<?xml version="1.0" standalone="no"?>
<!DOCTYPE svg PUBLIC "-//W3C//DTD SVG 20010904//EN"
 "http://www.w3.org/TR/2001/REC-SVG-20010904/DTD/svg10.dtd">
<svg version="1.0" xmlns="http://www.w3.org/2000/svg"
 width="1928.000000pt" height="1074.000000pt" viewBox="0 0 1928.000000 1074.000000"
 preserveAspectRatio="xMidYMid meet">
<metadata>
Created by potrace 1.16, written by Peter Selinger 2001-2019
</metadata>
<g transform="translate(0.000000,1074.000000) scale(0.100000,-0.100000)"
fill="#000000" stroke="none">
<path d="M14550 8026 c0 -5 11 -24 25 -42 33 -43 32 -52 -7 -57 -31 -4 -31 -4
6 -5 38 -2 38 -2 32 -34 -4 -18 -6 -175 -4 -348 1 -173 2 -346 2 -385 1 -38
-3 -108 -8 -155 -4 -47 -9 -611 -10 -1255 -2 -643 -6 -1178 -10 -1187 -5 -10
-4 -18 1 -18 6 0 11 -60 12 -145 1 -113 -1 -145 -11 -145 -10 0 -10 -2 0 -9
10 -6 12 -27 9 -82 -3 -41 -5 -81 -5 -89 4 -105 7 -354 8 -604 2 -247 -1 -310
-11 -317 -10 -6 -5 -16 21 -39 28 -25 32 -33 20 -40 -8 -5 -28 -10 -45 -11
-16 0 -24 -3 -17 -6 6 -2 12 -11 12 -18 0 -8 5 -17 11 -21 8 -4 9 1 4 16 -6
19 -4 22 10 17 9 -4 21 -7 26 -7 4 0 6 -7 3 -15 -4 -8 -2 -15 3 -15 19 0 114
-94 109 -107 -4 -8 3 -13 19 -13 19 0 30 -13 59 -71 29 -58 36 -83 36 -130 0
-33 4 -59 9 -59 5 0 9 20 9 45 0 50 19 118 31 110 5 -2 72 -5 150 -6 77 0 141
-5 141 -10 0 -11 306 -2 409 12 40 6 99 10 130 9 136 -5 286 0 271 10 -8 6
-35 9 -60 8 -56 -2 -90 9 -90 28 0 8 -7 14 -15 14 -8 0 -15 -7 -15 -15 0 -9
-9 -15 -22 -15 -17 0 -19 3 -10 12 7 7 12 42 12 85 l0 73 33 0 c17 0 66 -5
107 -11 117 -15 300 -20 300 -8 0 7 -14 8 -38 4 -39 -6 -207 10 -226 23 -6 3
-47 7 -91 7 -76 0 -80 1 -83 23 -3 22 -1 23 32 16 20 -3 67 -7 106 -8 59 -1
67 -3 53 -13 -9 -7 -13 -13 -7 -14 20 -2 225 -8 319 -10 55 0 120 -4 145 -9
l45 -8 -38 33 c-45 39 -66 42 -347 50 -113 3 -228 8 -257 11 l-52 5 0 527 c-1
290 -4 659 -7 820 -4 160 -4 292 -1 292 3 0 18 -37 33 -82 15 -46 48 -131 75
-191 26 -59 51 -122 54 -140 4 -17 15 -48 25 -67 17 -34 108 -277 151 -405 12
-33 41 -112 66 -175 25 -62 47 -131 49 -152 2 -21 10 -48 18 -61 15 -22 97
-228 111 -277 6 -22 1 -19 -39 20 -52 50 -64 44 -14 -7 18 -18 27 -33 20 -33
-27 0 -9 -15 21 -17 18 -1 36 -10 42 -19 6 -9 22 -31 37 -49 15 -18 24 -36 20
-40 -4 -5 1 -5 10 -2 11 4 24 -2 35 -16 10 -13 28 -29 40 -38 36 -25 163 -143
163 -151 0 -4 -27 -8 -60 -8 -33 0 -60 -4 -60 -10 0 -12 5 -13 90 -14 l64 -1
37 -76 c21 -43 42 -80 48 -84 13 -7 2 24 -29 84 -24 48 -25 61 -5 61 8 0 33
-25 56 -55 23 -30 46 -55 51 -55 11 0 -23 50 -47 70 -34 29 -13 31 178 23 105
-4 218 -7 250 -6 l57 2 0 -59 c0 -33 4 -60 10 -60 6 0 10 27 10 60 l0 60 41 0
c23 0 47 7 55 15 11 10 36 15 85 15 l69 0 1 -67 c3 -95 3 -100 12 -109 4 -4 7
34 7 84 l0 92 38 2 c20 1 50 1 65 0 16 -1 36 2 45 8 15 8 13 10 -8 11 -72 3
-110 8 -120 14 -7 5 -9 28 -5 68 4 34 7 333 8 664 2 470 -1 605 -10 614 -15
15 -18 33 -5 25 5 -3 5 18 0 47 -7 45 -6 75 7 147 1 8 6 33 9 55 11 63 14 761
4 960 -8 184 -18 880 -15 1060 1 55 1 337 -1 627 l-2 528 30 -6 c17 -4 30 -2
30 4 0 5 -13 12 -30 16 -17 3 -30 12 -30 20 0 8 -10 18 -22 22 -11 3 -69 50
-127 103 -58 53 -122 108 -141 121 -19 13 -47 35 -62 48 -15 14 -31 22 -35 19
-19 -19 71 -119 165 -183 48 -33 139 -121 131 -127 -2 -2 -67 1 -144 5 -88 6
-257 5 -455 -2 l-315 -11 -28 33 c-15 18 -73 78 -128 133 l-100 100 391 -3
c377 -3 460 2 460 27 0 21 -430 28 -709 11 -79 -4 -150 -6 -158 -3 -7 3 -19 0
-27 -6 -7 -6 -21 -9 -30 -5 -9 3 -16 2 -16 -4 0 -5 12 -13 26 -16 22 -6 25
-11 20 -32 -20 -79 -21 -111 -14 -1066 2 -203 0 -368 -4 -368 -3 0 -9 6 -12
13 -3 6 -4 -17 -2 -52 4 -75 -4 -67 -40 44 -14 44 -43 118 -64 165 -20 47 -58
146 -84 220 -26 74 -51 144 -56 155 -5 11 -37 90 -73 175 -35 85 -74 180 -86
210 -13 30 -30 73 -38 94 -8 22 -25 63 -39 91 -30 64 -30 68 -2 59 20 -6 21
-5 9 10 -7 9 -21 16 -30 16 -9 0 -32 21 -51 46 -19 25 -48 61 -63 79 -16 19
-26 39 -22 45 3 5 0 10 -7 10 -7 0 -29 21 -48 46 -63 82 -92 114 -103 114 -7
0 -7 -4 1 -12 7 -7 12 -19 13 -27 1 -38 187 -276 227 -293 15 -6 14 -7 -3 -9
-60 -6 -713 4 -733 12 -15 6 -21 5 -17 -1 4 -6 -18 -10 -57 -10 l-64 0 -36 48
c-19 26 -47 67 -61 92 -15 25 -42 63 -62 84 -19 22 -32 43 -28 46 5 4 58 3
118 -1 195 -14 715 -16 704 -3 -13 15 -151 23 -553 30 l-328 5 -27 31 c-14 17
-31 39 -38 47 -7 9 -13 12 -13 7z m2056 -425 c-4 -5 -1 -13 5 -16 6 -4 8 -21
5 -39 -3 -17 -8 -74 -12 -126 -3 -52 -8 -97 -10 -99 -15 -16 -25 34 -34 164
-7 97 -16 155 -24 163 -10 11 -12 -7 -8 -95 3 -59 9 -111 13 -114 16 -10 16
-111 0 -117 -11 -4 -13 6 -9 46 3 28 1 49 -4 46 -14 -9 -10 -114 5 -112 9 2
12 -21 12 -90 0 -121 19 -116 23 7 2 67 6 91 15 88 9 -3 13 -56 14 -195 2
-166 0 -192 -13 -192 -35 0 -45 -27 -42 -111 2 -57 7 -84 16 -87 10 -3 13 15
11 84 -2 71 1 89 12 89 12 0 14 -34 14 -192 0 -105 -3 -195 -7 -199 -15 -15
-21 7 -19 71 1 39 -2 65 -9 65 -6 0 -10 -27 -10 -64 0 -69 -9 -86 -28 -55 -7
10 -8 19 -3 19 6 0 4 12 -4 28 -8 15 -17 43 -20 64 -3 20 -12 39 -21 42 -10 4
-13 2 -8 -6 4 -6 9 -32 11 -57 2 -25 8 -50 13 -56 5 -6 5 -17 1 -24 -7 -10
-11 -8 -16 10 -5 13 -8 26 -7 29 0 3 -5 11 -10 18 -6 7 -13 43 -14 80 -2 37
-7 83 -11 102 -7 38 -6 93 2 128 3 14 1 22 -7 22 -9 0 -9 3 0 12 16 16 15 28
-2 28 -16 0 -23 -51 -22 -177 1 -55 -3 -88 -8 -83 -11 11 -22 209 -16 290 2
33 -8 777 -12 810 -5 54 5 48 123 -69 66 -66 118 -124 115 -130z m-1751 -8
c-5 -10 -7 -22 -6 -28 3 -11 3 -20 -4 -2065 -5 -1427 -8 -1599 -27 -1611 -7
-4 -8 -14 -3 -25 5 -11 9 -52 10 -91 2 -61 0 -73 -13 -73 -12 0 -13 3 -4 12
14 14 16 42 2 33 -6 -4 -11 9 -12 32 -2 63 -3 66 -15 70 -9 3 -11 -16 -7 -74
2 -43 0 -109 -4 -146 -5 -38 -5 -70 0 -73 5 -3 7 -13 4 -22 -7 -23 -8 -96 -2
-215 3 -59 1 -95 -5 -91 -5 3 -7 10 -4 15 4 5 3 15 -2 22 -4 6 -8 35 -8 62 -3
96 -17 360 -21 364 -2 2 1 12 7 23 7 14 7 23 -1 33 -8 10 -8 15 1 20 7 5 7 10
2 14 -16 10 -24 81 -10 82 9 0 8 2 0 6 -7 2 -13 9 -13 14 0 6 5 7 10 4 6 -3
10 1 10 9 0 9 -6 16 -12 16 -10 0 -9 3 1 9 10 6 11 13 2 29 -6 11 -11 30 -11
42 0 12 -3 19 -8 16 -9 -5 -8 -192 2 -411 4 -82 5 -147 2 -145 -5 6 -14 102
-21 245 -3 61 -8 137 -12 170 -7 78 -6 329 2 356 4 11 1 27 -6 35 -10 13 -10
17 2 25 11 7 11 9 -3 9 -23 0 -23 9 -1 25 10 8 17 28 18 56 2 31 6 43 16 41 9
-2 7 4 -5 17 -11 12 -15 21 -10 21 5 0 3 4 -5 9 -14 9 -24 77 -13 95 7 13 10
76 3 76 -4 0 -7 41 -8 92 -1 60 1 87 7 78 13 -21 12 -3 -1 22 -8 15 -8 19 0
14 12 -8 10 28 -3 41 -4 5 -6 3 -4 -2 2 -6 -1 -10 -7 -10 -5 0 -9 6 -9 12 1 7
-1 11 -5 9 -9 -6 -10 37 -13 306 -2 120 -5 218 -8 218 -8 0 -4 1338 3 1375 11
54 16 707 6 854 -5 80 -5 149 -1 153 10 10 95 -109 87 -122 -3 -5 1 -7 9 -4
10 4 21 -6 32 -28 15 -28 19 -62 20 -213 3 -232 3 -225 12 -225 4 0 8 94 9
209 l2 210 -51 68 c-28 37 -65 84 -82 103 -17 19 18 -13 78 -72 88 -86 107
-110 101 -125z m344 17 c14 -7 -107 -20 -202 -22 -26 0 -50 -5 -54 -11 -6 -10
135 -5 332 12 61 5 184 12 275 16 91 3 172 8 181 11 24 7 46 -17 57 -66 6 -24
9 -46 7 -48 -2 -2 -18 16 -36 42 -44 62 -50 49 -9 -16 61 -96 108 -191 180
-367 39 -96 80 -194 91 -217 10 -24 19 -47 19 -52 0 -5 18 -53 41 -108 58
-142 74 -185 78 -207 0 -4 11 -28 25 -55 13 -26 45 -114 71 -197 26 -82 72
-212 101 -287 30 -76 54 -142 54 -148 0 -29 72 -218 136 -358 13 -29 24 -55
24 -57 0 -12 47 -104 73 -142 56 -84 69 -70 32 34 -28 77 -28 82 -32 358 -2
154 -5 313 -7 353 -2 39 1 72 5 72 5 0 4 12 -1 26 -6 14 -8 38 -5 52 10 50 15
266 20 797 2 292 4 540 5 552 0 23 0 23 163 21 89 -1 235 1 323 6 l161 8 6
-33 c8 -56 13 -1804 9 -3553 -1 -428 0 -788 3 -800 2 -12 7 -111 9 -221 l5
-200 -217 3 c-119 1 -249 5 -288 8 -66 5 -72 7 -77 30 -3 16 0 24 9 24 22 0
16 15 -10 30 -22 11 -44 56 -33 66 2 2 23 -3 47 -11 44 -16 57 -14 46 4 -4 6
-13 8 -21 4 -8 -3 -15 0 -15 7 0 6 -4 9 -9 6 -15 -10 -61 12 -61 29 0 9 -4 14
-9 11 -9 -6 -21 22 -27 61 -1 12 -9 34 -17 50 -8 15 -22 53 -32 83 -9 30 -23
69 -31 87 -8 17 -14 36 -14 42 0 6 -11 29 -25 51 -14 22 -25 46 -25 53 0 7 -4
17 -9 22 -5 6 -25 60 -45 120 -20 61 -41 119 -45 130 -5 11 -24 63 -42 115
-17 52 -35 100 -39 105 -3 6 -19 42 -35 80 -15 39 -35 77 -42 86 -12 14 -12
18 -1 22 8 4 6 6 -5 6 -10 1 -15 6 -12 11 4 6 11 8 16 5 14 -9 11 1 -16 49
-14 25 -24 49 -23 53 1 4 -11 34 -25 67 -15 32 -27 64 -27 72 0 7 -15 45 -34
86 -18 40 -54 129 -80 197 -26 69 -50 130 -55 135 -5 6 -11 25 -15 41 -7 28
-21 66 -133 354 -24 63 -41 121 -39 128 3 7 1 13 -5 13 -5 0 -9 6 -8 13 1 6 0
23 -1 37 -2 18 -4 20 -7 8 -2 -10 -8 -18 -12 -18 -13 0 -31 24 -31 42 0 10 -6
18 -14 18 -8 0 -22 10 -30 22 -9 12 -16 19 -16 15 0 -11 52 -92 61 -95 5 -2 9
-13 9 -25 0 -20 0 -20 -14 -1 -21 28 -31 10 -11 -20 14 -22 16 -42 11 -128 -4
-57 -7 -107 -7 -113 0 -5 0 -311 1 -680 1 -818 -4 -1408 -14 -1423 -4 -6 -3
-20 2 -29 6 -10 12 -44 13 -77 l4 -58 -180 1 c-99 0 -293 1 -431 1 l-251 0 -7
42 c-4 24 -6 587 -4 1253 2 665 1 1631 -1 2145 -2 514 0 1014 4 1111 7 167 8
178 29 188 13 7 14 10 3 6 -20 -5 -33 16 -23 40 4 12 27 14 148 8 79 -3 149
-9 157 -13z m2312 -1223 c-5 -34 -7 -65 -4 -69 2 -4 -8 -25 -23 -45 -14 -21
-24 -30 -21 -21 4 10 2 20 -3 23 -10 6 -14 -7 -11 -32 1 -7 -3 -13 -9 -13 -6
0 -10 10 -8 23 2 12 -5 30 -15 40 -15 15 -17 32 -15 95 3 69 5 77 23 77 19 0
20 -6 17 -87 -3 -75 -2 -88 12 -88 13 0 16 14 16 82 0 63 4 86 17 100 17 19
17 19 25 -2 4 -11 4 -49 -1 -83z m-1345 -2197 c8 0 14 -4 14 -10 0 -5 -6 -10
-12 -10 -7 0 -1 -10 13 -23 14 -12 30 -33 36 -47 6 -14 18 -41 27 -61 9 -20
17 -45 19 -55 2 -11 20 -54 40 -97 21 -43 35 -82 32 -87 -4 -6 -1 -10 5 -10 7
0 10 -7 6 -15 -3 -8 -1 -15 4 -15 6 0 10 -9 10 -20 0 -11 5 -20 12 -20 6 0 8
-3 5 -7 -4 -3 -1 -13 6 -22 19 -23 41 -97 34 -115 -3 -8 1 -20 9 -26 8 -7 14
-24 14 -38 l0 -25 -20 26 c-11 14 -20 30 -20 36 0 10 -12 39 -61 146 -10 22
-31 76 -47 120 -17 44 -48 124 -70 177 -22 53 -37 99 -34 103 4 3 2 9 -4 13
-10 7 -45 86 -43 100 0 4 3 1 6 -5 2 -7 11 -13 19 -13z m1330 -125 c-5 -18 -2
-25 8 -25 10 0 13 6 10 15 -4 8 -1 15 5 15 6 0 11 -16 11 -35 0 -32 2 -35 19
-25 11 5 22 10 25 10 3 0 6 -36 6 -80 0 -44 -4 -80 -9 -80 -33 0 -41 14 -41
71 0 44 -4 59 -14 59 -21 0 -27 -157 -7 -173 12 -9 13 -9 7 0 -4 7 -2 21 3 30
9 16 10 14 11 -9 0 -31 -12 -42 -40 -33 -18 6 -19 15 -18 138 1 138 3 147 20
147 6 0 8 -10 4 -25z m-2844 -187 c0 -18 2 -40 3 -48 1 -8 -3 -21 -8 -27 -5
-7 -6 -13 -1 -13 5 0 8 -21 6 -47 -6 -114 -1 -487 7 -554 6 -40 8 -75 7 -76
-2 -2 -11 6 -20 16 -16 17 -17 52 -17 383 0 199 1 371 2 381 4 29 19 19 21
-15z m2849 -118 c6 0 6 -8 -1 -19 -10 -21 3 -40 15 -21 3 5 11 10 17 10 7 0 7
-5 1 -12 -5 -7 -10 -28 -12 -45 -2 -30 0 -33 24 -33 17 0 28 7 34 23 6 14 8
-6 5 -58 -5 -114 -13 -147 -33 -143 -13 3 -16 18 -17 83 0 50 -4 80 -12 83
-13 4 -27 -41 -18 -63 3 -9 0 -15 -10 -15 -8 0 -13 3 -10 8 2 4 1 25 -3 47 -4
22 -4 51 -1 65 3 14 3 43 -1 65 -7 38 2 79 9 43 2 -10 8 -18 13 -18z"/>
<path d="M16744 7317 c-2 -7 -3 -58 -2 -113 l3 -99 36 -3 c19 -2 47 2 62 7
l28 11 -3 102 -3 103 -58 3 c-41 2 -59 -1 -63 -11z"/>
<path d="M16943 7324 c-9 -4 -13 -36 -13 -109 0 -98 1 -103 23 -109 34 -9 67
-7 67 4 0 6 -13 10 -30 10 l-30 0 0 91 0 90 38 -3 37 -3 -3 -92 c-2 -78 0 -93
13 -93 16 0 18 15 16 134 -1 38 -3 72 -6 74 -7 8 -99 12 -112 6z"/>
<path d="M17136 7322 c-3 -5 -8 -28 -12 -52 -5 -31 -4 -41 4 -36 7 4 12 1 12
-9 0 -9 -4 -13 -10 -10 -6 4 -10 -11 -10 -39 0 -50 16 -66 67 -66 70 0 74 5
69 84 -3 39 -5 86 -6 104 l0 32 -54 0 c-30 0 -57 -4 -60 -8z"/>
<path d="M16753 6923 c-9 -3 -13 -36 -13 -113 0 -107 0 -108 26 -114 14 -4 41
-4 60 0 l34 6 0 108 c0 89 -3 109 -16 114 -18 7 -73 7 -91 -1z"/>
<path d="M16948 6923 c-16 -4 -18 -18 -18 -103 0 -76 4 -102 16 -114 18 -19
53 -20 89 -4 24 11 25 14 25 113 0 98 -1 103 -22 109 -25 6 -64 6 -90 -1z"/>
<path d="M17136 6922 c-4 -6 -10 -175 -7 -209 1 -14 88 -18 107 -5 7 4 13 48
16 109 3 96 2 102 -17 107 -30 8 -93 7 -99 -2z"/>
<path d="M16947 6503 c-4 -3 -7 -55 -7 -114 l0 -107 30 -7 c17 -4 43 -4 59 0
33 7 41 34 41 151 0 66 -2 72 -22 78 -31 8 -93 8 -101 -1z"/>
<path d="M16738 6403 c-4 -140 -7 -134 66 -131 l61 3 3 113 3 112 -65 0 -65 0
-3 -97z"/>
<path d="M17134 6085 c-4 -9 -7 -59 -8 -112 l-1 -96 30 -8 c17 -5 44 -4 66 3
l37 11 -1 106 -2 106 -58 3 c-45 2 -59 0 -63 -13z"/>
<path d="M16757 5703 c-16 -4 -17 -16 -15 -116 3 -126 2 -125 84 -112 l44 6 0
108 0 109 -31 6 c-34 6 -54 6 -82 -1z"/>
<path d="M16958 5703 l-28 -4 0 -108 0 -108 40 -7 c69 -11 87 -1 94 51 3 25 6
72 6 105 0 54 -2 59 -26 68 -26 10 -36 10 -86 3z m82 -120 l0 -94 -42 3 -43 3
-3 85 c-3 95 5 110 58 102 l30 -4 0 -95z"/>
<path d="M17130 5691 c-5 -11 -10 -62 -10 -114 0 -104 2 -107 75 -107 51 0 55
8 59 123 4 119 5 117 -69 117 -34 0 -47 -5 -55 -19z"/>
<path d="M16642 5288 c-2 -14 -12 -18 -46 -18 -54 0 -57 -9 -48 -130 l7 -85
43 -1 c26 -1 45 3 48 10 3 7 3 64 1 127 -1 63 -4 106 -5 97z"/>
<path d="M16747 5267 c-15 -10 -17 -27 -15 -117 l3 -105 65 0 65 0 3 109 c2
81 -1 112 -10 118 -20 12 -92 9 -111 -5z"/>
<path d="M16937 5274 c-4 -4 -7 -56 -7 -115 l0 -107 29 -7 c16 -3 46 -3 65 1
l37 6 -3 112 -3 111 -55 3 c-31 2 -59 0 -63 -4z"/>
<path d="M17148 5274 c-16 -5 -18 -19 -18 -115 0 -104 1 -109 23 -114 12 -3
39 -2 61 2 l39 8 -2 105 c-1 58 -4 106 -6 108 -6 7 -80 11 -97 6z"/>
<path d="M16740 4741 l0 -110 47 -7 c72 -11 77 -3 83 115 3 57 3 105 1 107 -2
2 -33 4 -68 4 l-63 0 0 -109z"/>
<path d="M16944 4839 c-8 -14 -13 -148 -6 -189 3 -22 9 -26 44 -27 80 -4 83 1
83 118 l0 104 -57 3 c-37 2 -59 -1 -64 -9z"/>
<path d="M17136 4828 c-3 -13 -6 -62 -6 -109 l0 -87 28 -4 c16 -2 42 0 59 4
l30 8 6 97 c3 53 3 101 1 105 -3 4 -29 8 -58 8 -47 0 -54 -3 -60 -22z"/>
<path d="M16570 4444 c-13 -4 -15 -24 -14 -112 l1 -107 44 0 c78 1 78 1 78
119 l1 106 -48 -1 c-26 -1 -54 -3 -62 -5z"/>
<path d="M16758 4422 c-2 -16 -4 -67 -4 -113 l1 -84 60 0 60 0 1 113 1 112
-57 0 c-56 0 -58 -1 -62 -28z"/>
<path d="M16953 4442 c-7 -4 -12 -46 -14 -111 l-3 -105 29 -8 c17 -4 46 -3 67
3 l38 10 0 109 0 110 -52 0 c-29 0 -58 -4 -65 -8z"/>
<path d="M17150 4360 c0 -47 -3 -95 -6 -107 -8 -30 13 -37 65 -23 l41 11 0
103 0 104 -50 -1 -50 -2 0 -85z"/>
<path d="M16570 3942 c0 -50 -3 -97 -6 -105 -10 -27 22 -46 62 -37 20 5 43 6
51 3 13 -5 14 2 10 38 -3 24 -9 70 -13 101 -7 65 -14 73 -66 83 l-38 7 0 -90z"/>
<path d="M16968 4023 c-21 -5 -26 -36 -24 -138 l1 -80 51 -3 c33 -2 54 2 61
10 6 8 8 51 5 106 -4 88 -6 94 -29 103 -25 9 -36 10 -65 2z"/>
<path d="M17146 3998 c-3 -13 -6 -60 -6 -105 l0 -83 35 0 c19 0 45 5 59 12 27
12 27 7 16 191 0 4 -22 7 -49 7 -42 0 -49 -3 -55 -22z"/>
<path d="M16968 3643 c-15 -4 -18 -17 -20 -74 -4 -144 -7 -132 32 -142 23 -6
41 -5 52 2 10 6 23 11 30 11 10 0 12 21 10 82 -4 124 -6 128 -50 127 -20 -1
-45 -3 -54 -6z"/>
<path d="M16761 3626 c-8 -9 -11 -45 -9 -102 l3 -88 32 -10 c22 -6 42 -5 61 3
29 12 29 12 30 106 0 62 -4 95 -11 98 -31 10 -95 7 -106 -7z"/>
<path d="M17138 3570 c-1 -38 -2 -82 -2 -97 -1 -32 22 -39 80 -28 l34 6 0 94
0 95 -55 0 -55 0 -2 -70z"/>
<path d="M4768 7968 c-3 -30 -5 -33 -33 -29 -78 12 -900 4 -870 -8 44 -17 686
-33 786 -20 51 7 85 -4 59 -20 -8 -5 -24 -16 -35 -25 -11 -9 -56 -44 -100 -77
-44 -33 -91 -71 -106 -85 -14 -13 -30 -24 -36 -24 -6 0 -21 -15 -34 -34 l-23
-35 -226 6 c-264 7 -327 22 -100 24 209 2 281 6 291 16 4 4 -101 6 -234 5
-191 -3 -245 -7 -258 -18 -18 -16 -59 -19 -59 -4 0 11 -119 14 -170 4 -22 -5
-28 -9 -18 -15 9 -6 5 -9 -12 -9 -14 1 -41 -2 -60 -5 -31 -5 -33 -4 -16 7 10
7 37 27 60 43 23 17 96 68 162 113 123 83 152 107 141 119 -8 7 -92 -45 -308
-190 -92 -62 -175 -117 -185 -124 -17 -10 -16 -11 11 -10 28 2 30 -1 36 -43 3
-25 7 -228 7 -453 1 -224 3 -411 6 -415 2 -4 5 -95 7 -202 l3 -195 -45 3 c-70
4 -83 10 -101 42 -9 16 -29 35 -43 42 -25 11 -29 9 -65 -30 -34 -37 -45 -42
-82 -42 -24 0 -59 -3 -78 -6 l-35 -6 -2 596 c-2 535 1 631 20 584 10 -25 -3
342 -14 399 -1 4 2 22 6 40 5 24 14 33 34 37 34 6 -708 -3 -824 -10 -98 -6
-144 -22 -190 -64 -43 -40 -189 -124 -193 -111 -6 17 -22 13 -22 -5 0 -19 -19
-36 -73 -65 -37 -20 -39 -20 -53 -2 -7 10 -14 22 -14 26 0 5 -4 6 -9 3 -5 -3
-7 -14 -4 -25 3 -12 -3 -24 -18 -35 -18 -13 -20 -16 -7 -16 14 0 17 -10 17
-52 0 -55 3 -169 21 -658 5 -157 8 -303 6 -325 -3 -22 -7 -119 -10 -215 -4
-96 -9 -204 -13 -240 -4 -36 -5 -69 -4 -75 2 -5 5 -113 6 -240 2 -126 6 -238
10 -248 9 -21 12 -929 5 -1212 -2 -104 -2 -210 2 -235 3 -25 9 -76 13 -115 9
-104 43 -269 73 -360 29 -88 113 -258 167 -338 18 -29 32 -54 29 -56 -2 -3
-41 31 -86 75 -44 43 -73 68 -64 54 38 -58 368 -380 419 -409 77 -44 85 -56
91 -139 5 -68 4 -73 -17 -82 -14 -6 49 -9 178 -10 221 -2 234 -3 320 -19 75
-13 728 -14 720 0 -4 5 -36 9 -73 10 -56 1 -130 13 -112 19 3 0 40 7 83 14 63
10 92 10 160 -1 45 -7 139 -16 209 -19 104 -5 136 -3 178 11 38 13 55 14 63 6
16 -16 34 -14 56 6 10 10 34 31 54 47 19 15 33 34 31 41 -8 20 16 29 29 12 13
-17 46 -19 320 -18 96 1 157 5 157 11 0 12 -3 12 -145 11 -109 0 -145 4 -145
17 0 4 39 6 87 5 75 -1 81 0 43 7 -25 5 -58 13 -75 19 -29 9 -29 10 -8 16 28
9 20 25 -12 25 -27 0 -41 -15 -23 -26 16 -10 -19 -22 -49 -16 -15 3 -22 10
-19 18 7 19 -12 28 -30 13 -13 -10 -17 -10 -24 0 -12 20 -121 5 -113 -15 3 -8
0 -14 -6 -14 -6 0 -11 4 -11 10 0 5 -7 6 -17 3 -11 -4 -14 -3 -9 6 4 7 -2 20
-16 32 l-23 20 24 -7 c14 -4 115 -5 225 -4 374 5 511 4 556 -3 42 -8 44 -7 20
6 -17 10 -71 17 -170 21 -80 3 -146 6 -148 6 -2 0 -1 4 2 8 5 8 158 7 243 -2
24 -3 45 0 48 5 4 5 -21 10 -57 10 -35 1 -74 3 -88 5 -14 2 -82 5 -152 6 -92
1 -130 -2 -142 -11 -13 -11 -16 -11 -16 2 0 21 -49 30 -112 22 -36 -5 -49 -4
-44 4 4 6 10 10 14 7 4 -2 31 0 60 4 29 3 55 3 57 0 4 -6 316 -7 348 -1 5 0 5
6 2 11 -6 9 14 14 43 11 19 -3 14 16 -7 22 -10 2 -60 5 -112 7 -92 2 -125 4
-203 14 -22 3 -48 0 -58 -5 -13 -7 -37 -7 -73 1 -41 9 -74 8 -131 0 -42 -6
-78 -9 -81 -6 -3 3 73 85 169 183 191 194 284 295 253 274 -11 -7 -7 -2 8 13
15 14 23 26 16 26 -8 0 -6 7 4 23 46 65 138 287 150 362 3 17 16 71 30 120 27
97 59 251 62 300 1 17 5 40 9 53 5 14 3 29 -4 37 -7 8 -8 15 -3 15 10 0 10 40
0 56 -3 6 -4 23 -1 37 2 15 1 27 -3 27 -5 0 -8 60 -8 132 0 162 -15 551 -20
557 -3 2 0 10 5 16 7 8 7 27 1 53 -5 23 -6 43 -3 46 3 3 4 167 3 363 -1 197
-1 606 0 908 2 636 2 680 -1 915 -1 96 -2 186 -1 200 1 29 47 59 89 61 l27 1
-30 9 c-18 5 -33 5 -39 -1 -17 -17 -56 -12 -54 8 3 40 -3 82 -11 82 -6 0 -11
-15 -13 -32z m-1778 -60 c0 -7 -41 -40 -90 -72 -49 -33 -98 -68 -107 -79 -31
-35 -135 -107 -154 -107 -10 0 -19 -7 -19 -15 0 -8 -6 -15 -12 -15 -7 0 -114
-3 -236 -7 -177 -5 -225 -4 -232 7 -6 9 -52 13 -184 14 -97 0 -176 3 -176 6 1
7 162 111 230 149 31 17 69 44 85 61 l29 30 235 0 c241 0 574 20 589 35 11 10
42 5 42 -7z m-22 -338 c-11 -301 -11 -364 -2 -765 4 -148 3 -332 -1 -407 -6
-123 -9 -138 -25 -138 -21 0 -32 42 -23 93 3 19 0 44 -6 56 -8 14 -8 21 -1 21
13 0 9 52 -5 62 -6 5 -5 8 3 8 7 0 12 14 12 35 0 19 -5 35 -11 35 -6 0 -9 -10
-8 -22 1 -13 -1 -30 -4 -38 -19 -47 -24 -89 -13 -101 7 -8 7 -10 0 -6 -8 5 -9
-5 -4 -33 4 -22 6 -40 3 -40 -2 0 1 -9 7 -19 7 -13 7 -22 0 -26 -5 -3 -10 -1
-10 4 0 6 -9 11 -20 11 -35 0 -69 -22 -79 -51 -5 -16 -17 -29 -25 -29 -13 0
-16 13 -17 58 -1 31 -5 102 -9 157 -5 74 -8 87 -10 50 -3 -55 -3 -69 1 -199 2
-63 0 -91 -9 -94 -8 -2 -12 14 -13 55 -1 110 2 271 6 317 2 25 -1 48 -6 52 -5
3 -6 11 -2 17 4 7 9 73 10 147 1 74 3 188 5 252 2 65 0 118 -3 118 -4 0 -4 21
-2 48 3 26 4 58 4 71 -1 14 5 28 11 33 10 6 8 8 -4 8 -14 0 -15 5 -7 36 10 34
14 87 18 204 1 55 1 55 63 105 77 62 158 144 158 159 0 12 21 38 26 33 1 -1
-2 -126 -8 -277z m1787 -910 c0 -932 -3 -1169 -12 -1165 -7 2 -13 0 -13 -5 0
-6 7 -10 15 -10 13 0 15 -9 11 -47 -3 -27 -5 -61 -5 -76 -1 -20 -5 -26 -13
-21 -9 5 -9 2 1 -9 11 -14 11 -17 0 -17 -11 0 -11 -2 -2 -8 9 -5 14 -48 17
-127 3 -66 8 -201 12 -300 3 -99 8 -183 11 -187 2 -5 0 -8 -6 -8 -5 0 -11 8
-13 18 -3 9 -5 -10 -6 -43 -1 -33 -5 -85 -8 -115 -4 -30 -6 -63 -6 -72 0 -10
-3 -20 -9 -23 -5 -4 -9 17 -9 47 0 29 -5 60 -10 68 -12 18 -8 -178 3 -197 4
-6 3 -14 -3 -18 -5 -3 -10 -1 -10 6 0 7 -3 9 -6 6 -4 -4 -2 -13 4 -20 7 -8 10
-16 8 -18 -2 -2 -6 -60 -10 -127 -3 -68 -8 -128 -11 -132 -3 -5 -1 -11 5 -15
5 -3 10 -11 10 -16 0 -6 -5 -7 -11 -3 -7 4 -10 1 -7 -7 7 -21 -35 -167 -65
-224 -19 -35 -25 -42 -21 -21 5 19 2 31 -7 37 -10 6 -11 9 -1 9 6 0 12 6 12
13 0 8 9 24 20 37 11 12 17 27 14 32 -3 5 0 16 7 24 10 13 10 17 -2 25 -10 6
-10 9 -1 9 6 0 12 6 12 14 0 8 -6 16 -12 19 -10 3 -10 7 1 20 7 10 10 17 7 17
-4 0 0 10 8 22 17 24 21 58 8 58 -11 0 -38 -57 -46 -100 -14 -64 -30 -100 -48
-106 -10 -3 -18 -10 -18 -15 0 -6 4 -8 9 -5 4 3 6 -6 3 -19 -2 -14 -9 -25 -14
-25 -5 0 -6 10 -3 23 6 19 3 18 -18 -8 -14 -16 -22 -36 -19 -44 3 -8 1 -12 -5
-8 -10 6 -33 -33 -33 -56 0 -7 -9 -31 -20 -52 -13 -25 -18 -50 -15 -65 4 -18
3 -21 -4 -10 -8 11 -17 0 -40 -50 -17 -36 -31 -75 -31 -87 0 -12 -19 -43 -41
-70 -53 -61 -57 -64 -35 -28 10 17 27 38 38 47 11 10 22 34 24 55 3 20 8 42
13 47 10 13 56 146 65 191 14 63 39 135 48 135 5 0 4 -9 -2 -19 -13 -25 -13
-41 0 -41 6 0 10 5 10 12 0 6 18 35 41 64 36 47 39 55 28 75 -9 17 -9 24 0 27
6 2 11 8 11 13 0 6 -10 4 -22 -2 -18 -9 -15 -4 10 21 17 19 32 39 32 46 0 6 7
17 15 24 8 7 15 21 15 32 0 10 5 16 10 13 6 -4 10 6 10 24 0 16 5 33 11 37 6
3 8 15 5 27 -3 11 -1 28 5 38 6 12 5 20 -2 25 -8 4 -7 9 2 15 11 7 9 13 -10
28 -20 15 -25 30 -29 82 -2 35 -4 75 -4 88 0 18 -2 21 -9 10 -7 -11 -13 -9
-29 11 -16 19 -19 34 -15 65 3 21 11 45 16 52 6 6 8 21 4 33 -3 11 -2 20 3 20
5 0 12 9 15 20 3 11 12 20 20 20 19 0 41 62 34 98 -3 15 -16 54 -30 87 -14 32
-23 64 -19 69 3 6 11 -3 18 -19 13 -29 13 -29 11 18 -1 27 -3 44 -5 38 -7 -21
-20 -11 -27 22 -13 62 -17 142 -7 132 6 -5 13 -21 15 -35 3 -14 4 0 2 30 -3
30 -5 60 -5 66 0 6 -11 22 -24 36 -14 13 -28 37 -31 53 -7 29 -7 29 9 10 16
-19 16 -18 1 12 -8 18 -14 36 -13 39 2 4 -6 12 -17 18 -11 6 -22 12 -24 14 -3
1 -6 21 -7 44 -1 22 -5 64 -8 92 -4 28 -6 55 -6 60 1 5 -3 12 -9 15 -7 5 -13
70 -16 172 -3 90 -7 216 -11 279 -6 122 -16 595 -15 745 0 50 0 230 1 402 l1
311 34 26 c18 14 38 26 44 26 6 0 11 4 11 9 0 5 18 22 40 38 22 15 40 36 40
46 0 15 -11 9 -52 -25 -72 -59 -119 -91 -125 -85 -8 9 180 142 196 139 9 -2
12 2 8 12 -4 10 -1 16 8 16 8 0 15 7 15 16 0 8 4 13 9 9 5 -3 16 3 23 13 10
14 66 62 72 62 0 0 1 -527 1 -1170z m-2730 950 c112 -2 113 -5 5 -28 -33 -7
41 -10 265 -10 l310 0 2 -298 c0 -165 2 -378 3 -474 1 -96 2 -242 2 -325 0
-82 0 -188 0 -234 0 -78 -2 -86 -24 -102 -32 -23 -47 -25 -90 -10 -31 10 -41
10 -68 -4 -32 -16 -52 -52 -52 -93 0 -16 -24 -44 -78 -91 -76 -67 -79 -69
-123 -64 -37 4 -48 2 -67 -17 -22 -22 -24 -60 -6 -101 5 -11 -13 -47 -56 -110
-71 -107 -73 -109 -111 -109 -20 0 -33 -9 -47 -32 -24 -40 -25 -60 -4 -99 15
-31 11 -55 -52 -276 -2 -7 -12 -13 -23 -13 -23 0 -46 -30 -57 -73 -5 -24 -1
-34 26 -62 l32 -33 -7 -111 c-5 -85 -10 -111 -21 -111 -8 0 -22 -8 -32 -18
-18 -18 -18 -8 -18 292 0 279 -9 571 -20 681 -2 22 -3 198 -2 390 4 597 3 888
-2 1214 l-5 315 25 7 c14 4 61 6 105 4 44 -2 130 -4 190 -5z m1936 -31 c3 -5
91 -11 195 -13 104 -2 197 -7 207 -11 13 -5 17 -19 17 -59 -3 -264 16 -1603
25 -1788 3 -65 2 -118 -3 -118 -12 0 -66 60 -95 105 -13 22 -48 66 -76 99 -29
32 -50 61 -47 64 10 9 55 -28 71 -58 9 -17 20 -30 25 -30 13 0 13 3 -6 50 -18
44 -39 60 -79 60 -47 0 -186 119 -178 151 6 23 -19 64 -48 79 -16 9 -28 9 -50
0 -27 -11 -39 -8 -134 36 -93 42 -106 52 -116 81 -6 18 -24 42 -40 54 -28 20
-31 20 -54 5 -14 -9 -25 -21 -25 -26 0 -12 -37 -13 -44 -2 -3 5 -7 144 -10
308 -2 164 -7 355 -10 424 -3 69 -8 206 -11 305 -6 188 -7 210 -19 262 l-7 32
158 4 c190 4 346 -2 354 -14z m-518 -1376 c4 -2 6 -16 5 -31 0 -15 2 -46 6
-68 l7 -42 -48 10 c-52 11 -324 13 -386 2 -36 -6 -38 -5 -32 19 4 14 2 35 -5
46 -17 32 4 26 46 -14 41 -39 44 -40 44 -22 0 6 17 23 38 37 20 13 50 35 65
47 29 24 53 31 42 13 -3 -5 -2 -10 4 -10 5 0 13 5 16 10 3 6 21 10 40 10 25 0
41 -8 66 -35 38 -40 52 -39 20 1 -11 15 -21 31 -21 36 0 9 75 2 93 -9z m127
-43 c4 -6 24 -12 46 -14 65 -6 214 -66 214 -87 0 -3 -28 -9 -62 -13 -35 -4
-74 -9 -88 -10 -14 -2 -37 -4 -52 -5 -16 0 -28 -5 -28 -11 0 -14 65 -12 135 4
33 8 76 13 95 12 40 -3 80 -22 80 -36 0 -6 9 -10 19 -10 30 0 33 -16 6 -30
-29 -16 -24 -30 12 -30 18 0 24 4 20 15 -28 70 154 -73 199 -157 8 -16 19 -28
24 -28 6 0 10 -5 10 -11 0 -6 -8 -8 -19 -4 -17 5 -21 0 -27 -32 -4 -21 -10
-45 -15 -55 -7 -12 -5 -15 10 -11 12 3 17 11 14 27 -5 24 19 56 40 55 17 0
107 -111 136 -164 25 -48 23 -67 -4 -45 -9 8 -41 17 -70 21 -30 4 -69 14 -86
23 -18 9 -37 16 -42 16 -15 0 -57 41 -57 56 0 6 -48 58 -107 114 -67 64 -98
100 -83 95 14 -5 64 -9 112 -9 47 -1 90 -4 94 -9 4 -4 2 -17 -4 -30 -14 -30
-21 -76 -12 -82 4 -3 11 15 14 40 4 25 14 51 21 59 27 26 -8 37 -137 43 -123
5 -123 5 -193 47 -38 23 -95 54 -125 69 -30 15 -62 31 -70 36 -8 5 -30 15 -48
22 -32 14 -33 16 -38 83 l-4 69 32 -7 c18 -3 35 -11 38 -16z m-948 -86 c-2
-10 -4 -45 -4 -76 -1 -32 -4 -58 -6 -58 -3 0 -11 8 -19 18 -14 16 -14 16 -9
-1 3 -10 0 -24 -7 -31 -29 -29 -171 -136 -179 -136 -12 0 -3 56 18 105 19 46
54 61 109 47 47 -12 54 -8 37 19 -14 21 -7 59 9 59 6 0 4 7 -5 15 -19 19 -13
37 17 51 29 15 43 11 39 -12z m765 -45 c29 -6 55 -15 58 -20 11 -17 16 -517 6
-571 -5 -30 -27 -92 -49 -138 -101 -215 -150 -330 -141 -330 9 0 127 231 164
323 10 26 22 47 26 47 4 0 6 -21 4 -47 -2 -27 -4 -79 -4 -116 l-1 -68 -82 -87
c-83 -87 -108 -106 -108 -79 0 8 -9 13 -22 13 -27 -1 -26 -18 -4 214 9 91 18
208 21 260 8 128 12 193 20 265 13 127 20 275 13 275 -5 0 -9 -8 -9 -17 -1
-10 -3 -31 -4 -48 -2 -16 -6 -61 -9 -100 -4 -38 -8 -81 -10 -95 -9 -53 -15
-119 -21 -225 -4 -60 -9 -126 -11 -145 -2 -19 -9 -113 -16 -207 -11 -171 -12
-173 -35 -173 -12 0 -23 6 -24 13 -2 27 -11 76 -30 157 -11 47 -31 137 -45
200 -32 141 -45 175 -38 100 6 -54 30 -169 77 -368 15 -61 21 -105 15 -108
-13 -8 -15 -6 -65 103 l-46 98 -5 203 c-2 121 0 208 5 213 6 6 7 30 3 55 -4
26 -8 126 -9 224 l-2 178 58 7 c32 3 67 8 78 9 34 6 187 -4 242 -15z m-412
-216 c-4 -115 -9 -327 -11 -473 -1 -146 -3 -267 -3 -270 -1 -3 -11 11 -22 30
-12 19 -43 60 -69 90 -26 30 -55 69 -65 85 -11 17 -34 47 -51 67 -37 41 -61
85 -59 108 0 8 -4 18 -10 22 -6 5 -5 8 3 8 12 0 12 6 -1 65 -3 11 -8 100 -12
197 l-6 176 74 31 c41 17 101 37 132 46 32 8 60 17 63 20 3 3 14 5 25 5 19 0
19 -5 12 -207z m635 138 c211 -108 260 -142 366 -252 169 -178 288 -408 334
-648 19 -97 21 -138 18 -280 -4 -140 -9 -181 -32 -266 -94 -347 -308 -615
-613 -769 -29 -14 -59 -26 -67 -26 -9 0 -32 58 -71 177 l-57 178 5 158 c3 88
8 161 11 164 3 3 20 -16 38 -42 76 -109 257 -347 304 -400 l26 -30 -18 30 c-9
17 -88 125 -174 240 -86 116 -162 220 -168 231 -13 25 -22 153 -10 160 4 3 33
-14 63 -36 79 -58 433 -279 505 -315 64 -32 10 9 -100 75 -187 113 -423 268
-461 303 -17 16 -19 26 -13 65 4 26 7 48 8 49 1 1 20 -4 41 -11 97 -33 619
-135 631 -123 3 2 -93 23 -213 46 -220 42 -385 80 -435 100 -23 9 -28 17 -28
46 0 34 2 35 38 36 20 1 47 3 59 4 12 1 75 5 140 9 140 9 533 52 541 60 9 10
-50 7 -245 -13 -233 -24 -521 -43 -534 -36 -5 4 -9 29 -9 56 0 38 4 51 18 56
105 36 311 121 507 208 88 40 169 75 180 80 12 4 15 9 8 12 -7 2 -79 -25 -160
-60 -178 -78 -524 -217 -541 -217 -8 0 -12 21 -12 64 0 76 -4 70 155 212 61
53 151 134 200 179 50 46 110 100 135 120 25 20 47 39 49 41 2 2 -2 4 -10 4
-8 0 -32 -17 -55 -38 -22 -20 -121 -107 -220 -193 -98 -86 -192 -171 -208
-188 -17 -17 -34 -31 -39 -31 -13 0 -4 260 10 285 37 64 152 309 148 313 -8 8
-9 6 -74 -125 -33 -67 -65 -124 -71 -128 -7 -4 -10 77 -10 249 0 297 -9 278
110 217z m-1186 10 c3 -4 -1 -17 -9 -27 -8 -10 -15 -29 -15 -41 0 -12 -4 -24
-9 -27 -4 -3 -11 -27 -15 -54 -5 -38 -12 -52 -31 -62 -14 -7 -23 -15 -20 -18
2 -3 -25 -44 -62 -91 -87 -113 -82 -108 -94 -91 -8 12 -9 9 -5 -10 7 -30 -32
-110 -53 -110 -18 0 -51 29 -51 44 0 7 -9 19 -20 29 -16 14 -18 21 -9 44 6 15
13 30 17 33 4 3 26 31 50 63 41 54 75 79 53 39 -6 -11 -7 -38 -2 -68 l9 -49 1
51 c1 59 9 68 74 85 25 7 49 19 52 26 2 8 -7 32 -20 54 -16 24 -23 45 -18 53
10 18 152 136 163 136 5 0 11 -4 14 -9z m204 -249 c2 -97 5 -190 8 -207 4 -28
0 -25 -53 35 -143 160 -173 179 -53 35 101 -122 101 -122 101 -217 0 -102 8
-170 20 -162 5 3 9 0 9 -5 0 -6 -4 -11 -8 -11 -9 0 -203 115 -252 150 -52 36
-164 93 -151 77 7 -9 17 -17 22 -17 5 0 71 -40 147 -88 75 -49 154 -99 175
-111 33 -20 37 -27 37 -62 0 -22 5 -50 11 -61 8 -15 8 -19 0 -14 -6 4 -11 3
-11 -2 0 -5 10 -12 23 -16 18 -5 19 -8 7 -15 -8 -5 -18 -7 -22 -5 -4 3 -8 -4
-8 -15 0 -24 -7 -25 -70 -10 -25 6 -130 28 -234 50 -104 21 -198 41 -208 45
-10 3 -18 1 -18 -4 0 -11 6 -12 300 -73 113 -23 210 -46 217 -51 7 -6 11 -36
10 -81 l-2 -72 -255 -37 c-140 -20 -261 -37 -267 -37 -7 -1 -13 -5 -13 -9 0
-5 24 -5 53 -1 97 15 442 59 464 59 l22 0 0 -284 0 -285 -35 -52 c-19 -29 -56
-77 -83 -108 -62 -73 -74 -95 -26 -51 21 19 62 68 92 108 29 39 55 72 56 72 1
0 4 -48 5 -106 2 -59 10 -131 18 -161 15 -57 57 -147 82 -175 8 -10 12 -18 7
-18 -13 0 -85 43 -85 51 0 5 -19 17 -42 27 -55 25 -270 222 -328 301 -25 34
-58 78 -73 99 -74 96 -148 314 -162 478 -9 108 -7 284 5 339 6 28 12 59 14 70
18 125 94 345 119 345 5 0 7 6 4 14 -3 8 2 25 12 38 10 13 21 33 25 46 4 12
11 22 16 22 5 0 22 19 38 43 16 23 47 58 67 77 21 19 50 48 64 64 27 29 189
156 200 156 3 0 7 -80 9 -178z m1634 -194 c35 -5 67 -14 72 -18 11 -10 -9
-100 -33 -150 -14 -30 -16 -40 -6 -40 11 0 20 17 23 43 0 4 7 19 16 32 9 13
18 42 22 64 4 23 10 41 14 41 12 0 46 -169 45 -220 0 -34 -5 -46 -18 -48 -26
-5 -106 30 -112 50 -3 9 -37 74 -75 144 -39 70 -70 131 -70 135 0 4 13 1 29
-7 16 -8 58 -20 93 -26z m-2178 -203 c-19 -57 -34 -112 -34 -120 0 -9 -5 -26
-12 -38 -6 -12 -13 -32 -14 -44 -3 -25 -46 -73 -65 -73 -7 0 -9 -3 -6 -6 7 -7
-25 -56 -55 -86 -25 -25 -23 -41 11 -77 32 -34 74 -103 85 -138 7 -22 4 -23
-38 -23 -25 0 -46 -5 -46 -10 0 -6 10 -8 24 -4 16 4 34 0 48 -10 12 -9 18 -16
12 -16 -6 0 -17 -19 -24 -42 -8 -24 -16 -47 -19 -53 -3 -5 -6 -17 -8 -25 -4
-29 37 36 43 68 10 49 26 34 41 -39 7 -35 20 -86 28 -113 9 -26 14 -50 11 -53
-3 -3 -31 12 -63 34 -47 31 -57 43 -55 63 2 19 0 22 -10 12 -20 -20 -33 -14
-45 19 -13 33 -4 73 19 82 7 3 3 6 -9 6 -18 1 -22 9 -28 51 -4 27 -10 52 -15
55 -4 2 -6 28 -4 57 3 29 5 85 7 123 1 45 6 70 14 70 19 0 27 14 15 28 -16 19
1 40 27 32 22 -7 22 -6 -3 34 -30 46 -32 82 -11 144 8 24 18 61 23 83 7 30 13
38 28 37 28 -4 101 25 108 42 3 8 0 16 -7 16 -10 1 25 12 54 18 4 0 -8 -46
-27 -104z m678 -20 c12 -22 21 -56 21 -75 -1 -34 -1 -34 5 -6 l7 30 51 -60
c93 -108 146 -204 114 -204 -6 0 -45 24 -88 53 -42 29 -96 64 -120 77 -49 28
-50 29 -55 173 l-4 108 24 -28 c13 -15 33 -46 45 -68z m1693 -57 c4 -18 9 -42
10 -53 1 -11 8 -33 14 -50 7 -16 15 -75 17 -130 3 -55 7 -106 9 -113 3 -7 0
-22 -5 -33 -6 -10 -7 -19 -2 -19 18 0 5 -83 -14 -97 -17 -12 -20 -11 -26 9
-12 46 -9 86 9 92 14 6 15 9 4 15 -17 11 -23 91 -20 266 1 24 -13 130 -17 137
-3 4 -1 8 4 8 5 0 13 -15 17 -32z m-87 -30 l53 -23 -7 -70 c-3 -38 -13 -82
-20 -97 -9 -17 -10 -29 -4 -33 6 -3 10 -1 10 4 0 6 4 11 9 11 11 0 11 -539 0
-546 -5 -3 -9 2 -9 10 0 9 -5 16 -11 16 -6 0 -8 7 -4 18 5 13 3 14 -6 5 -12
-12 -9 -24 15 -58 25 -37 3 -81 -62 -122 -31 -20 -51 -38 -45 -40 14 -5 80 36
106 65 10 11 20 37 23 58 2 22 11 44 20 51 10 7 12 13 4 18 -5 3 -8 10 -6 14
7 10 16 95 17 151 1 63 6 76 35 95 l25 16 -5 -58 c-6 -73 -16 -125 -27 -139
-5 -6 -6 -13 -3 -16 2 -3 -4 -30 -16 -59 -11 -30 -20 -63 -20 -74 0 -11 -7
-33 -15 -49 -8 -15 -15 -37 -15 -47 0 -11 -4 -27 -9 -37 -4 -9 -23 -48 -40
-86 -38 -81 -129 -226 -142 -226 -5 0 -9 10 -9 23 0 12 -6 44 -13 72 -10 37
-15 45 -20 31 -4 -10 -4 -23 -1 -28 4 -6 8 -30 9 -53 1 -24 5 -48 9 -54 12
-19 -61 -115 -150 -200 -48 -45 -91 -81 -98 -81 -9 0 -11 26 -10 91 l2 92 80
81 c43 45 91 101 106 125 15 24 37 46 47 48 12 3 18 11 15 19 -3 7 16 55 42
106 26 52 60 134 77 183 16 50 33 93 38 96 4 3 7 19 7 35 -1 16 3 46 8 67 6
20 10 95 10 165 1 70 2 129 2 132 7 25 3 60 -6 60 -7 0 -17 33 -24 83 -6 45
-18 100 -26 122 -23 65 -23 65 54 33z m-1568 -151 c143 -94 160 -107 160 -129
0 -22 8 -22 -105 3 -22 5 -66 14 -97 20 l-58 11 0 57 c0 31 -3 67 -7 80 -8 31
-2 29 107 -42z m-786 -39 c-3 -13 -5 -71 -5 -130 0 -60 -4 -108 -9 -108 -5 0
-21 20 -35 44 -14 24 -32 50 -40 56 -15 13 -21 60 -7 60 4 0 18 17 31 38 40
60 74 82 65 40z m752 -87 c16 -5 66 -17 112 -27 72 -15 82 -20 82 -39 0 -19
-7 -23 -46 -29 -26 -3 -62 -6 -80 -6 -30 0 -34 3 -35 28 l-2 27 -4 -27 c-4
-27 -13 -32 -67 -40 -23 -4 -33 26 -28 83 4 42 14 47 68 30z m444 -27 c66 -27
81 -88 34 -143 -39 -46 -54 -52 -105 -37 -38 11 -46 18 -58 53 -18 51 -2 96
43 124 38 23 36 23 86 3z m-250 -113 c0 -24 -12 -32 -85 -60 -33 -13 -86 -35
-117 -51 -32 -15 -60 -25 -62 -22 -10 9 6 127 18 134 6 4 26 8 44 8 31 0 32
-1 32 -42 0 -23 3 -38 7 -34 4 4 7 24 8 44 l0 37 70 5 c81 6 85 5 85 -19z m0
-58 c0 -3 -8 -15 -17 -25 -14 -15 -14 -19 -3 -16 21 4 16 -66 -7 -90 -30 -32
-53 -62 -53 -70 0 -4 -21 -29 -45 -55 -25 -26 -57 -66 -72 -87 -14 -22 -29
-40 -33 -40 -4 0 -8 40 -9 90 -2 87 -1 89 26 106 15 10 45 29 66 42 33 22 40
24 49 11 8 -12 9 -11 5 2 -4 11 7 23 34 38 34 19 37 24 27 41 -11 18 -12 18
-23 -3 -6 -13 -20 -22 -32 -21 -12 0 -21 -4 -20 -9 1 -5 -12 -16 -28 -25 -17
-10 -44 -27 -62 -39 -40 -30 -43 -29 -43 9 0 17 -3 28 -7 24 -4 -4 -6 -25 -4
-48 2 -27 -1 -38 -8 -34 -19 12 -13 74 9 96 11 11 24 20 30 20 9 0 36 12 160
68 49 23 60 25 60 15z m480 -118 c14 -17 24 -115 12 -115 -7 0 -74 81 -149
179 -7 9 -13 11 -13 5 0 -6 32 -53 71 -104 38 -51 76 -105 84 -120 9 -17 15
-74 17 -172 2 -81 2 -145 0 -143 -7 7 -125 351 -125 368 -1 9 -5 17 -10 17 -4
0 -6 4 -3 9 3 5 -1 22 -9 37 -8 16 -15 36 -15 44 0 8 -7 28 -15 43 -14 27 -13
30 7 47 22 18 23 17 79 -31 31 -27 62 -55 69 -64z m-200 37 c0 -29 33 -130
102 -317 23 -60 54 -150 69 -200 15 -49 44 -135 64 -190 20 -55 50 -143 67
-195 86 -269 215 -636 248 -707 26 -55 26 -55 -11 -51 l-32 3 -68 200 c-38
110 -75 223 -83 250 -8 28 -41 129 -74 225 -104 304 -197 588 -262 800 -23 74
-49 145 -57 158 -18 29 -11 52 17 52 15 0 20 -7 20 -28z m-106 -19 c-4 -21
-20 -84 -35 -141 -16 -56 -29 -110 -29 -120 0 -9 -21 -82 -46 -162 -25 -80
-60 -197 -78 -260 -18 -63 -41 -144 -52 -180 -10 -36 -22 -66 -26 -68 -4 -2
-8 -13 -8 -23 0 -11 -6 -41 -14 -67 -8 -26 -22 -82 -32 -124 -10 -43 -22 -78
-26 -78 -4 0 -8 -8 -8 -19 0 -10 -18 -95 -40 -190 -22 -94 -40 -180 -40 -190
0 -14 -10 -20 -47 -25 -25 -3 -48 -4 -50 -2 -2 2 6 25 17 52 12 27 28 77 36
112 8 35 35 120 60 189 26 70 61 176 80 237 19 61 41 131 49 156 8 25 39 131
69 235 30 105 60 204 66 220 7 17 25 82 41 145 53 210 93 340 107 340 9 0 11
-10 6 -37z m-1344 -63 c26 0 37 -19 46 -75 4 -27 15 -79 25 -114 18 -64 18
-65 -1 -83 -25 -24 -26 -79 -2 -101 10 -9 35 -20 56 -24 36 -8 42 -15 96 -110
l58 -102 -24 -16 c-19 -12 -24 -24 -24 -60 0 -60 28 -80 103 -72 l52 5 84 -77
c76 -70 83 -79 72 -98 -17 -33 -13 -77 10 -107 35 -44 131 -33 141 17 3 16 12
13 83 -22 44 -22 94 -48 110 -58 17 -10 32 -19 34 -20 2 -1 -2 -17 -8 -35 -7
-18 -23 -76 -37 -128 -14 -52 -39 -141 -56 -197 l-31 -103 -56 0 c-59 0 -88
-11 -77 -28 3 -6 2 -13 -4 -17 -6 -4 -8 -10 -5 -15 7 -12 -35 1 -54 16 -9 8
-40 35 -70 61 -30 27 -51 42 -47 36 19 -33 -21 -5 -100 69 -187 178 -332 426
-365 623 -1 6 -6 21 -11 35 -12 31 -60 301 -54 307 5 5 36 -73 36 -91 0 -27
59 -210 66 -203 2 2 -10 50 -27 108 -17 57 -40 133 -50 169 -11 36 -24 104
-29 150 -11 95 -14 393 -4 403 4 3 15 -5 26 -18 11 -14 28 -25 38 -25z m1166
-52 c-2 -46 -11 -100 -20 -120 -9 -21 -14 -38 -11 -38 5 0 -75 -162 -84 -170
-3 -3 -7 -14 -9 -25 -6 -43 -13 -51 -24 -32 -8 14 -1 37 31 104 23 47 35 80
27 74 -8 -7 -23 -32 -33 -57 -18 -44 -33 -57 -33 -29 0 8 -4 15 -10 15 -13 0
-13 -27 0 -32 11 -4 1 -48 -11 -48 -5 0 -9 8 -9 18 0 10 -4 22 -10 28 -6 6 -6
22 0 44 8 27 6 37 -7 52 -16 17 -16 20 0 35 16 16 17 16 17 -5 0 -12 9 -36 20
-54 12 -21 20 -27 20 -16 0 9 -6 23 -12 30 -7 7 -14 28 -15 47 -2 32 28 79 96
151 7 8 27 36 43 62 16 26 31 48 34 48 2 0 2 -37 0 -82z m234 56 c0 -25 51
-183 174 -538 25 -71 43 -133 41 -136 -8 -13 -91 -30 -142 -30 -88 0 -189 76
-214 161 -14 44 0 109 82 401 22 75 39 144 39 153 0 9 5 13 10 10 6 -3 10 -13
10 -21z m-1231 -118 c86 -49 107 -66 130 -107 24 -42 27 -56 7 -40 -20 16
-111 28 -102 12 4 -6 16 -9 26 -6 31 10 87 -34 135 -105 25 -38 45 -76 45 -85
0 -9 6 -26 14 -38 9 -13 16 -59 19 -112 3 -49 8 -98 12 -107 15 -38 -2 -42
-33 -9 -17 19 -29 37 -27 40 3 2 0 10 -6 18 -7 7 -12 23 -13 36 -1 13 -12 27
-28 35 -23 11 -28 20 -28 48 0 20 -4 33 -10 29 -5 -3 -7 -12 -3 -20 9 -24 -13
-17 -25 8 -6 12 -25 46 -42 75 -29 52 -30 53 -8 47 13 -4 41 -17 64 -29 26
-15 47 -20 60 -15 22 8 22 8 -65 35 -33 11 -55 24 -58 35 -3 10 -11 20 -19 23
-15 6 -56 81 -48 89 3 3 -6 23 -20 46 -15 24 -26 55 -26 76 0 19 -4 35 -10 35
-5 0 -10 5 -10 10 0 14 2 14 69 -24z m998 -95 c-1 -21 -5 -37 -8 -35 -4 2 -9
-5 -12 -15 -3 -15 -1 -18 11 -14 12 5 14 2 9 -11 -4 -10 -7 -28 -7 -42 0 -14
-5 -22 -12 -20 -7 1 -10 1 -5 -1 13 -8 7 -46 -23 -153 -32 -116 -94 -301 -109
-328 -9 -16 -10 -15 -16 3 -4 11 -11 32 -16 46 -6 14 -9 32 -7 40 2 8 -2 13
-8 12 -14 -3 -10 110 5 115 6 2 11 10 11 18 0 8 5 14 10 14 6 0 10 6 10 14 0
7 7 20 16 27 15 12 16 11 11 -6 -12 -39 -27 -126 -31 -178 -4 -42 10 -42 22 1
6 20 18 62 27 92 10 30 19 89 20 130 3 73 24 144 76 257 10 23 19 49 19 57 0
9 2 16 5 16 2 0 4 -18 2 -39z m1457 -338 c-15 -180 -40 -282 -126 -498 -70
-177 -159 -310 -277 -415 -66 -59 -135 -110 -149 -110 -10 0 -51 107 -105 275
-70 218 -72 195 23 238 90 41 96 43 107 23 11 -19 68 -46 97 -46 42 0 76 56
46 75 -15 9 -12 35 4 29 7 -3 16 1 19 10 7 17 -13 27 -42 19 -25 -6 -27 -21
-5 -51 33 -48 -5 -66 -71 -35 -41 19 -44 30 -12 42 23 10 26 13 147 136 64 65
79 75 100 70 62 -15 79 -16 99 -6 28 16 27 45 -4 65 -14 9 -25 25 -25 36 0 26
12 25 28 0 7 -11 17 -20 22 -20 16 0 12 30 -5 36 -25 10 -17 37 26 100 46 66
56 74 76 67 7 -3 13 2 13 11 0 9 4 16 10 16 5 0 7 -27 4 -67z m-2079 -50 c39
-47 71 -88 73 -92 4 -10 -138 5 -147 15 -5 5 -11 46 -14 91 -5 62 -3 81 6 77
7 -3 44 -44 82 -91z m691 15 c5 -18 9 -38 9 -43 0 -6 10 -25 23 -42 12 -17 22
-45 22 -62 0 -17 5 -31 10 -31 6 0 10 -12 10 -26 0 -19 -4 -25 -15 -20 -8 3
-15 1 -15 -4 0 -6 5 -10 10 -10 6 0 10 -4 10 -10 0 -5 -13 -8 -30 -6 -16 2
-30 0 -30 -3 0 -14 23 -29 37 -24 10 4 9 -3 -5 -28 -17 -30 -23 -34 -57 -31
-21 2 -49 10 -62 19 -27 18 -27 46 2 107 9 18 18 45 20 62 11 71 40 184 46
184 4 0 11 -15 15 -32z m-599 -131 c8 -9 33 -189 27 -198 -5 -9 -67 38 -160
119 -35 32 -41 42 -37 65 l6 28 79 -5 c44 -2 82 -7 85 -9z m965 -56 c-42 -78
-159 -187 -180 -167 -3 3 19 32 49 65 30 32 59 65 66 72 7 8 19 20 28 27 25
21 17 32 -15 21 -16 -6 -32 -19 -35 -28 -4 -13 -13 -17 -33 -13 -25 4 -25 3
-9 -10 18 -14 15 -48 -5 -48 -6 0 -8 6 -5 14 3 8 -1 17 -9 20 -9 4 -14 -1 -14
-14 0 -11 5 -20 10 -20 20 0 9 -20 -19 -35 -21 -10 -32 -12 -37 -4 -3 6 -1 15
6 19 8 5 10 15 6 26 -4 11 1 25 15 41 24 24 22 37 -3 28 -18 -7 -38 -47 -38
-75 0 -10 -5 -20 -11 -22 -6 -2 -2 -14 10 -29 21 -27 19 -39 -8 -39 -12 0 -16
10 -16 44 0 24 3 47 6 50 8 8 -1 56 -10 56 -4 0 -7 10 -6 23 2 15 8 21 21 20
10 -2 43 -6 72 -9 40 -5 61 -3 90 11 20 10 48 23 62 29 37 18 41 0 12 -53z
m525 -41 c-1 -53 2 -92 8 -94 19 -7 -91 -85 -180 -127 l-59 -29 -13 23 c-7 12
-12 31 -13 42 0 12 -4 25 -8 30 -5 6 -13 22 -20 37 -11 28 -11 28 82 74 51 25
118 65 147 89 30 24 55 44 56 44 1 1 1 -40 0 -89z m-1385 28 c63 -42 214 -118
235 -118 17 0 16 -20 -3 -88 -19 -66 -32 -86 -48 -73 -6 4 -29 14 -51 21 -52
16 -145 72 -139 82 3 5 10 6 15 2 6 -3 30 4 55 15 25 12 49 19 55 15 5 -3 16
-1 24 6 10 8 19 9 35 0 12 -6 26 -10 32 -8 6 2 -3 10 -21 17 -26 11 -42 11
-92 1 -33 -7 -62 -17 -65 -21 -8 -13 -48 -11 -67 4 -15 11 -25 50 -41 160 -5
42 -10 43 76 -15z m981 -200 c16 -45 37 -109 37 -114 0 -5 -64 -24 -82 -24
-11 0 -16 5 -13 10 3 6 -1 10 -11 10 -9 0 -45 21 -81 46 -35 25 -66 44 -68 42
-4 -4 91 -78 125 -98 24 -15 0 -29 -66 -40 -121 -20 -345 -7 -286 17 7 3 21
13 30 23 9 9 37 30 62 45 25 16 39 30 32 33 -7 2 -37 -15 -67 -37 -30 -23 -62
-44 -70 -47 -8 -3 -33 10 -58 30 -62 51 -71 45 -13 -9 27 -25 47 -48 43 -51
-3 -3 -45 -1 -92 6 l-87 12 7 32 c4 17 11 48 15 69 4 21 10 40 13 43 2 3 41
-1 85 -9 114 -20 203 -21 286 -3 39 8 104 20 143 26 40 7 75 16 79 21 11 18
23 8 37 -33z m59 -199 c5 -19 13 -42 19 -53 6 -10 33 -85 60 -166 26 -81 51
-153 54 -161 4 -12 -69 -14 -485 -17 -269 -1 -490 1 -490 5 0 20 69 282 79
300 6 12 11 34 11 50 0 15 5 35 10 43 8 13 12 11 30 -7 25 -28 26 -43 1 -43
-20 0 -31 -17 -24 -37 7 -19 37 -16 57 5 11 13 14 28 10 50 l-6 32 47 0 c58 0
235 -19 255 -28 8 -3 20 -6 25 -7 6 0 16 -4 23 -8 7 -5 12 -4 12 2 0 19 29 12
41 -10 26 -50 -62 -65 -96 -16 -17 25 -30 17 -20 -12 11 -35 35 -51 75 -51 30
0 43 6 59 26 25 31 27 52 6 60 -8 4 -15 10 -15 14 0 9 88 36 164 50 33 5 62
12 65 15 11 12 26 -3 33 -36z m280 -440 c-16 -13 -201 -86 -257 -102 -33 -8
-134 -27 -224 -41 -91 -14 -168 -31 -172 -37 -8 -13 -111 -8 -369 17 -151 15
-157 16 -255 63 -133 64 -157 94 -80 103 54 6 1364 3 1357 -3z m129 -6 c0 -5
2 -45 4 -90 l3 -82 -194 1 c-107 1 -194 5 -194 10 0 4 8 9 18 9 9 1 26 3 37 5
11 1 63 5 115 8 138 9 172 15 166 32 -3 8 1 14 12 15 9 1 1 5 -18 10 -37 9
-100 2 -100 -11 0 -4 -17 -10 -37 -13 -21 -4 -51 -9 -68 -12 -16 -3 -23 -2
-15 1 60 27 210 97 230 109 28 16 40 18 41 8z m-1547 -82 c28 -16 83 -39 121
-51 39 -12 74 -26 78 -30 4 -3 -54 -6 -129 -6 l-137 2 -2 57 c-2 34 1 57 7 57
6 0 34 -13 62 -29z"/>
<path d="M13260 7958 c0 -36 -12 -49 -25 -28 -10 16 -65 12 -65 -5 0 -16 36
-29 67 -23 24 4 53 -18 53 -41 0 -9 20 -45 45 -80 25 -36 45 -69 45 -74 0 -5
10 -23 22 -39 l21 -30 -84 2 c-108 4 -129 2 -129 -10 0 -6 42 -10 106 -10
l106 0 11 -30 c14 -36 37 -40 37 -6 0 21 -15 55 -68 149 -12 20 -19 37 -17 37
3 0 -13 23 -35 51 -22 27 -44 67 -50 87 -6 20 -17 48 -25 62 l-14 25 -1 -37z"/>
<path d="M5400 7951 c-8 -6 -19 -7 -25 -4 -5 4 -7 3 -3 -2 5 -5 -2 -15 -13
-23 -16 -11 -23 -12 -28 -3 -5 8 -14 4 -26 -11 -11 -13 -13 -17 -5 -10 34 30
30 8 -5 -28 -41 -42 -62 -51 -51 -24 5 14 4 15 -9 4 -9 -7 -14 -19 -11 -26 5
-12 -94 -112 -150 -151 -16 -12 -43 -25 -58 -29 -22 -5 -25 -9 -14 -15 13 -7
13 -18 5 -61 -12 -64 -13 -889 -2 -1548 11 -642 12 -1363 2 -1715 -15 -575
-16 -615 -6 -615 12 0 12 -37 -1 -45 -6 -3 -9 -27 -8 -53 l1 -47 7 50 c4 28 8
46 10 40 1 -5 3 -196 4 -424 l1 -414 60 -6 c33 -3 118 -5 190 -4 71 1 123 -2
116 -7 -8 -4 82 -8 198 -9 117 0 217 -3 222 -6 5 -4 15 -3 22 2 42 27 189 43
202 22 5 -7 13 -4 26 7 10 9 16 20 14 24 -3 4 3 14 12 21 9 8 54 64 99 125 46
61 101 129 122 150 31 30 37 43 31 59 -6 17 -8 17 -8 3 -1 -10 -6 -18 -12 -18
-8 0 -9 21 -3 73 9 78 6 229 -4 237 -4 3 -8 173 -8 378 -1 301 1 370 11 362
14 -11 95 -190 95 -208 0 -5 18 -63 39 -128 50 -152 153 -470 179 -554 75
-245 107 -343 128 -397 13 -34 24 -68 24 -76 0 -8 7 -20 15 -27 26 -22 16 -30
-35 -30 -27 0 -50 -4 -50 -10 0 -15 572 -13 706 2 60 7 199 13 309 13 l200 0
18 -37 c24 -49 33 -48 29 3 -3 28 0 44 9 50 11 7 10 9 -3 9 -10 0 -18 3 -18 6
0 7 35 51 83 107 l28 32 -17 -30 c-10 -16 -26 -40 -37 -52 -10 -12 -17 -28
-15 -35 3 -8 11 0 21 19 9 17 26 35 38 38 12 4 18 13 15 20 -6 18 20 39 39 32
8 -4 17 -2 20 3 6 9 -8 14 -27 11 -12 -2 -10 7 12 47 44 82 68 117 80 114 19
-4 3 47 -54 176 -29 64 -59 135 -66 157 -7 22 -18 51 -25 65 -19 36 -34 72
-119 290 -43 107 -87 218 -98 245 -11 28 -36 93 -54 145 -18 52 -47 133 -65
180 -64 170 -72 194 -84 253 -4 20 -11 40 -16 43 -5 3 -7 9 -4 14 5 7 -56 159
-108 271 -14 30 -29 66 -32 82 -4 15 -11 30 -17 33 -5 3 -4 12 3 20 8 10 8 14
0 14 -6 0 -11 -4 -11 -10 0 -16 -17 -11 -24 7 -7 18 31 66 45 57 5 -3 9 -1 9
4 0 10 57 76 176 201 101 107 160 193 162 235 0 5 4 12 9 15 11 8 31 68 39
116 3 22 9 45 14 50 27 34 56 205 65 385 3 63 10 167 15 230 9 111 6 217 -6
290 -3 19 -8 47 -11 62 -2 15 -17 67 -34 115 -16 48 -29 95 -29 105 0 10 -4
18 -9 18 -13 0 -54 114 -42 118 16 5 13 22 -4 22 -8 0 -12 6 -9 14 4 11 -29
80 -64 132 -51 77 -63 93 -72 99 -5 3 -10 11 -10 17 0 6 7 5 17 -3 14 -12 16
-12 11 1 -2 8 -11 15 -19 15 -24 1 -43 16 -29 25 24 15 -99 128 -221 206 -68
43 -310 160 -369 179 -30 10 -62 23 -70 30 -8 6 -22 16 -30 20 -13 8 -13 7 -1
-8 18 -23 16 -22 -140 17 -171 44 -308 60 -484 58 -740 -8 -902 -7 -898 6 6
14 -6 15 -27 3z m325 -51 c105 -5 296 -6 425 -2 248 8 427 -3 523 -32 27 -8
56 -12 65 -9 9 4 13 2 9 -4 -7 -12 26 -26 148 -64 39 -12 86 -30 105 -41 58
-31 69 -20 12 13 -29 17 -51 33 -49 35 6 6 173 -54 216 -77 20 -10 41 -19 48
-19 7 0 13 -4 13 -10 0 -5 9 -10 19 -10 11 0 22 -4 25 -9 4 -5 37 -26 74 -47
87 -49 197 -137 229 -183 121 -177 171 -270 138 -257 -8 3 -15 1 -15 -5 0 -5
7 -12 14 -15 8 -3 22 -28 32 -56 9 -28 23 -62 30 -77 8 -14 14 -33 14 -41 0
-8 12 -37 25 -65 14 -27 25 -61 25 -75 0 -14 5 -41 10 -60 17 -59 39 -174 38
-200 -1 -14 2 -68 5 -121 3 -52 1 -124 -4 -160 -6 -35 -12 -79 -12 -96 -2 -34
-16 -46 -18 -15 -4 55 -4 69 3 90 14 42 12 143 -3 153 -12 7 -12 9 0 9 11 0
11 3 0 16 -10 13 -10 17 2 25 9 6 11 11 3 17 -6 4 -15 15 -21 26 -10 17 -10
17 -16 -3 -3 -12 -2 -19 1 -17 4 2 6 -44 6 -102 -2 -137 -1 -132 -19 -126 -8
4 -15 1 -15 -5 0 -6 6 -11 13 -12 10 0 10 -2 0 -6 -18 -7 -16 -33 2 -33 8 0
15 -4 15 -10 0 -5 -7 -10 -15 -10 -9 0 -15 -9 -15 -21 0 -18 2 -19 15 -9 13
11 15 8 15 -17 0 -16 -8 -38 -18 -49 -10 -10 -18 -28 -19 -39 0 -11 -3 -32 -6
-47 -3 -16 -3 -28 1 -28 4 0 6 -20 4 -45 -2 -25 -8 -45 -14 -45 -5 0 -6 9 -3
20 5 14 2 20 -10 20 -15 0 -15 1 -1 16 21 20 21 41 1 24 -12 -10 -15 -10 -15
4 0 9 4 16 9 16 5 0 11 9 14 19 3 14 1 18 -9 14 -8 -3 -14 -1 -14 5 0 6 6 12
13 15 9 3 9 7 -1 20 -10 12 -11 21 -3 36 14 25 14 61 0 61 -5 0 -7 5 -4 10 4
6 12 8 18 4 7 -3 5 0 -4 8 -10 8 -16 30 -17 58 0 25 -1 58 -2 74 -1 16 5 33
12 37 11 7 10 9 -1 9 -9 0 -12 8 -9 25 3 15 -2 32 -12 42 -16 18 -16 24 2 73
7 19 11 21 18 10 11 -17 15 -13 23 21 8 32 -18 63 -33 39 -5 -8 -7 2 -5 25 2
22 -1 45 -6 51 -6 7 -9 20 -7 30 2 9 -2 19 -8 21 -8 2 -11 -32 -10 -113 1 -64
-2 -120 -5 -125 -6 -10 -24 58 -35 136 -4 28 -8 52 -9 55 -1 3 -5 28 -10 55
-15 98 -81 239 -177 382 -37 57 -72 102 -76 100 -4 -1 -45 32 -91 73 -176 160
-348 253 -571 308 -184 45 -220 52 -326 64 -147 15 -521 16 -784 1 -118 -7
-291 -15 -385 -18 -155 -5 -168 -5 -150 10 56 43 177 147 237 203 l67 62 63 0
c35 0 149 -4 253 -10z m591 -285 c181 -20 308 -41 416 -70 122 -31 332 -117
377 -153 20 -15 62 -45 93 -66 59 -39 184 -169 211 -221 9 -16 32 -47 51 -68
20 -21 36 -42 36 -47 0 -5 13 -30 30 -57 27 -45 55 -139 124 -435 19 -78 20
-91 6 -83 -9 6 -15 -18 -10 -40 1 -5 3 -16 3 -23 0 -7 7 -10 15 -7 12 4 13
-26 9 -207 -2 -117 -7 -226 -11 -242 -4 -16 -8 -50 -10 -77 -1 -26 -7 -54 -12
-61 -6 -7 -11 -24 -12 -37 -1 -22 -11 -58 -50 -171 -23 -68 -86 -197 -131
-266 -46 -73 -130 -144 -325 -277 l-29 -20 -19 24 -19 24 15 -30 c18 -38 8
-57 -36 -76 l-33 -14 33 -5 c30 -5 36 -12 78 -105 25 -55 59 -131 74 -170 60
-149 120 -307 120 -317 0 -5 16 -46 36 -91 75 -171 165 -390 160 -394 -5 -6
-27 31 -166 292 -62 116 -143 266 -180 335 -37 69 -96 181 -130 250 -58 114
-241 449 -334 610 -21 36 -58 106 -83 155 -25 50 -54 102 -64 117 -16 22 -17
28 -5 35 29 17 108 146 131 215 39 115 52 218 48 368 -4 152 -19 230 -62 325
-37 81 -85 141 -159 196 -79 60 -84 66 -28 36 29 -16 43 -21 35 -11 -7 8 -33
26 -58 39 -39 20 -42 24 -21 24 14 0 44 -8 68 -19 23 -10 42 -17 42 -14 0 10
-86 42 -125 47 -22 3 -60 12 -84 21 -47 17 -151 20 -241 6 -145 -23 -184 -31
-189 -36 -3 -4 17 -4 45 0 l51 6 -3 -592 c-2 -326 0 -621 4 -656 4 -34 4 -69
-1 -78 -16 -28 13 -35 118 -29 136 9 216 28 303 75 41 22 75 40 78 40 2 0 4
-9 4 -19 0 -19 50 -104 57 -97 3 2 -9 31 -26 64 -16 33 -27 62 -24 66 9 8 24
-15 78 -124 27 -52 87 -165 135 -250 48 -85 129 -236 180 -335 112 -217 197
-375 300 -555 42 -74 130 -234 195 -355 65 -121 126 -231 135 -245 10 -14 57
-125 105 -245 112 -284 127 -326 121 -332 -3 -3 -95 174 -204 393 -186 371
-259 513 -487 944 -48 91 -135 257 -192 370 -58 113 -109 210 -115 215 -19 20
140 -297 345 -686 79 -151 278 -539 441 -864 163 -324 310 -614 327 -644 16
-30 27 -56 24 -59 -3 -3 -89 -5 -192 -4 -104 1 -262 -2 -353 -7 -91 -6 -245
-13 -342 -16 l-176 -5 -7 33 c-4 17 -58 185 -120 372 -63 187 -118 356 -123
375 -6 19 -31 100 -57 180 -77 243 -113 372 -120 438 -4 34 -10 64 -14 67 -4
2 -4 -17 0 -43 14 -86 7 -95 -27 -34 -63 110 -75 155 -78 308 -3 140 -3 145
16 141 14 -4 18 -1 16 11 -2 10 -15 18 -32 20 l-29 4 7 -134 6 -133 -21 25
c-12 14 -34 51 -50 83 -16 32 -58 87 -94 122 -56 56 -65 62 -70 45 -4 -11 -13
-20 -20 -20 -21 0 -28 -19 -14 -36 9 -12 12 -208 11 -902 l-1 -887 -478 0
-478 0 1 425 2 425 117 235 c64 129 134 264 155 300 20 36 70 128 110 205 40
77 78 149 85 160 37 61 65 115 61 115 -13 0 -227 -386 -412 -744 -63 -120
-116 -222 -119 -225 -3 -3 -3 26 1 64 8 78 29 126 132 300 36 61 84 144 107
185 85 153 182 321 308 535 72 121 145 245 162 275 18 30 73 126 124 212 50
86 91 160 91 164 0 18 -85 -116 -341 -541 -187 -309 -229 -381 -390 -665 -92
-162 -175 -304 -183 -315 -15 -19 -16 -15 -17 60 -1 140 1 560 6 1305 6 729 6
787 6 915 0 39 0 79 1 90 0 11 -3 182 -7 380 -4 198 -8 477 -9 620 -2 143 -5
266 -7 274 -6 22 39 29 126 19 76 -9 294 -4 540 11 198 13 475 11 611 -4z m54
-832 c94 -33 242 -210 285 -338 25 -77 38 -209 32 -335 -8 -173 -46 -293 -100
-318 -81 -39 -251 -65 -299 -47 -10 4 -12 25 -8 93 6 102 5 170 -3 179 -4 3
-4 10 -1 15 10 16 0 683 -12 742 l-6 36 33 -6 c19 -3 54 -13 79 -21z m-289
-464 c0 -24 -1 -51 -2 -59 -5 -36 2 -60 16 -60 8 0 15 -7 15 -15 0 -8 5 -15
10 -15 14 0 13 23 -2 38 -9 9 -7 13 5 18 24 9 21 27 -3 19 -23 -7 -26 4 -7 27
10 15 14 15 25 2 7 -8 10 -14 6 -14 -3 0 -1 -7 6 -15 7 -8 16 -15 21 -15 5 0
9 7 9 15 0 8 5 15 10 15 6 0 10 -10 10 -21 0 -19 -4 -21 -30 -15 -22 4 -30 2
-30 -9 0 -7 5 -17 10 -20 6 -4 7 -12 3 -18 -11 -17 -11 -137 0 -137 4 0 5 5 2
10 -3 6 -1 10 4 10 6 0 11 -15 10 -32 0 -18 -3 -27 -6 -20 -2 6 -11 12 -19 12
-9 0 -13 -4 -10 -9 5 -8 17 -113 17 -153 0 -10 5 -18 11 -18 6 0 6 -6 -2 -15
-9 -11 -9 -15 -1 -15 7 0 9 -9 5 -25 -13 -53 22 -103 41 -57 11 25 13 84 4
108 -4 12 -11 57 -14 100 -4 44 -9 82 -11 86 -2 4 0 9 5 12 5 4 13 -19 16 -51
4 -32 12 -78 17 -103 27 -118 26 -122 -47 -197 -59 -61 -65 -65 -59 -38 5 17
8 100 7 185 -2 199 -1 186 -15 172 -14 -14 -20 -62 -7 -62 6 0 4 -7 -4 -14
-10 -11 -13 -26 -8 -53 4 -21 7 -90 6 -153 -1 -94 -5 -121 -20 -144 -17 -25
-19 -26 -26 -10 -3 11 -5 35 -3 54 3 38 4 129 2 260 0 47 3 150 6 230 8 166 8
172 6 185 -1 6 -2 28 -1 50 1 55 22 32 22 -26z m1154 -1349 c-4 -13 5 -39 28
-78 18 -31 59 -109 89 -172 148 -304 208 -433 208 -443 0 -8 3 -8 10 -1 7 7 0
32 -24 80 -45 91 -67 142 -76 179 -4 17 -11 38 -15 48 -15 35 23 6 40 -31 60
-132 102 -202 121 -202 8 0 19 -11 24 -25 5 -14 15 -25 22 -25 9 0 8 -3 -2
-10 -10 -6 -11 -10 -2 -10 6 0 12 -8 12 -17 0 -14 2 -15 9 -5 5 9 17 -6 38
-50 32 -66 34 -79 8 -58 -9 8 -15 8 -15 2 0 -6 4 -13 10 -17 5 -3 7 -12 3 -20
-3 -8 0 -15 6 -15 6 0 11 8 11 18 1 15 2 15 11 -2 9 -14 8 -20 -1 -26 -7 -4
-9 -13 -5 -20 6 -9 9 -9 16 1 8 14 10 10 55 -111 29 -77 28 -74 7 -66 -10 3
-6 -3 10 -15 15 -11 27 -25 27 -31 0 -6 13 -38 29 -72 16 -33 41 -90 56 -126
15 -36 38 -89 51 -118 13 -29 24 -58 24 -65 0 -7 4 -17 9 -22 4 -6 13 -23 19
-40 26 -78 26 -72 8 -51 -20 25 -20 16 -2 -29 17 -39 31 -47 21 -12 -3 12 8
-5 24 -38 35 -69 35 -69 19 -59 -7 4 -4 -3 7 -16 l20 -24 -25 15 c-14 9 -45
53 -70 97 -25 45 -49 82 -53 82 -16 0 74 -155 107 -185 39 -35 44 -24 -71
-176 -40 -53 -77 -109 -83 -124 -14 -37 -21 -28 -57 75 -17 47 -34 93 -38 103
-4 9 -3 17 3 17 5 0 -8 33 -29 74 -21 40 -36 76 -33 78 2 3 -2 11 -11 18 -8 7
-15 24 -15 38 0 14 -11 44 -25 68 -14 23 -30 66 -36 96 -6 29 -16 62 -23 73
-7 11 -20 43 -30 70 -11 28 -22 55 -27 60 -13 18 -89 218 -84 223 2 3 -2 17
-9 31 -27 49 -76 160 -76 169 0 5 -11 35 -25 67 -28 61 -125 313 -125 322 0 3
7 3 15 -1 8 -3 15 -1 15 5 0 6 -9 13 -20 16 -11 3 -20 10 -20 15 0 5 5 6 10 3
21 -13 9 15 -20 46 -17 19 -25 36 -19 39 6 4 -6 37 -29 83 -22 42 -43 73 -47
69 -5 -4 -5 -2 -1 5 3 6 2 14 -4 18 -15 9 -62 116 -63 145 -1 15 3 25 12 25
13 0 42 -84 44 -127 1 -9 4 -15 7 -13 4 2 32 -49 64 -113 86 -173 96 -196 96
-208 0 -6 8 -29 17 -50 9 -22 17 -50 18 -64 1 -31 15 -81 25 -95 5 -5 20 -46
35 -90 15 -44 35 -91 45 -105 9 -14 17 -32 17 -41 0 -8 14 -45 32 -81 17 -36
31 -70 30 -74 -3 -11 30 -121 44 -149 18 -35 30 -60 39 -78 4 -9 13 -27 20
-40 32 -61 50 -101 52 -121 4 -22 10 -43 31 -91 7 -16 18 -46 25 -66 7 -20 22
-47 33 -60 21 -27 20 -21 -17 66 -14 33 -26 70 -26 82 0 12 -4 25 -10 28 -17
11 -11 27 8 21 11 -4 8 2 -8 17 -14 12 -31 33 -37 47 -6 14 -34 72 -62 130
-28 58 -51 113 -51 121 0 9 -7 33 -15 52 -8 20 -15 39 -15 43 0 4 7 1 15 -6 8
-7 15 -16 15 -20 0 -5 22 -55 49 -112 26 -56 52 -113 56 -126 4 -13 9 -21 12
-18 5 5 -59 160 -89 214 -10 18 -18 39 -18 47 0 8 -9 20 -21 27 -20 13 -74
107 -65 115 2 3 16 -16 31 -41 15 -25 29 -46 32 -46 2 0 -9 24 -26 53 -17 28
-35 51 -40 50 -5 -1 -8 11 -7 27 1 17 -1 30 -5 30 -10 0 -48 66 -53 93 -2 12
-10 36 -16 52 -17 41 -29 105 -20 105 7 0 14 -16 42 -92 15 -43 30 -61 19 -22
-24 78 -53 149 -66 164 -19 21 -66 124 -75 167 -7 29 -6 34 8 30 10 -2 16 -9
14 -16 -1 -6 4 -22 13 -34 8 -12 15 -31 15 -42 0 -28 16 -49 30 -40 10 6 9 9
0 15 -7 4 -12 20 -12 34 0 15 -4 29 -9 32 -5 3 -9 18 -9 34 0 16 -7 35 -15 44
-9 8 -15 18 -14 21 4 10 -24 75 -32 75 -4 0 -14 17 -23 38 -8 20 -31 65 -50
100 -19 34 -33 62 -30 62 2 0 -1 10 -8 23 -15 27 -19 57 -6 57 5 0 6 5 3 10
-3 6 -1 10 5 10 7 0 9 -8 5 -20z m-1058 -1082 c0 -35 3 -103 7 -153 3 -49 7
-110 9 -134 1 -26 8 -46 15 -49 9 -3 11 3 7 20 -3 12 -7 68 -9 123 -2 55 -7
112 -11 128 -6 22 -4 26 8 21 11 -4 17 -28 22 -92 3 -48 8 -100 10 -117 13
-102 15 -159 5 -136 -15 34 -21 21 -10 -20 6 -19 13 -52 15 -74 l5 -40 -25 40
c-14 22 -21 41 -16 43 8 3 -1 78 -11 87 -3 3 -4 -25 -4 -63 0 -45 5 -71 14
-78 17 -13 31 -83 22 -109 -6 -17 -7 -16 -13 6 -4 13 -7 36 -7 51 0 15 -4 29
-9 32 -5 3 -7 -17 -4 -47 2 -28 7 -94 10 -145 3 -51 8 -91 10 -88 12 12 20 79
13 115 -4 23 -3 41 1 41 5 0 9 -4 9 -10 0 -5 5 -10 11 -10 7 0 8 11 4 31 -5
22 -4 29 4 25 6 -4 11 -32 10 -65 -1 -33 1 -63 5 -69 5 -8 -36 -62 -92 -120
-6 -8 -17 -22 -22 -33 -17 -30 -25 -22 -26 26 -1 25 2 45 7 45 5 0 7 6 4 13
-7 23 -15 720 -8 713 4 -4 8 -39 9 -79 4 -131 16 -237 26 -244 8 -4 9 14 5 58
-4 35 -9 132 -12 214 -4 83 -8 156 -10 163 -3 6 0 12 5 12 5 0 7 7 4 15 -4 8
-2 15 3 15 5 0 10 -28 10 -62z m-62 -304 c5 -162 7 -468 3 -569 -3 -55 -9 -78
-28 -107 -25 -38 -47 -51 -36 -22 3 9 6 22 6 30 0 8 6 14 14 14 11 0 15 23 20
93 8 122 8 107 6 382 -1 307 -1 329 5 324 2 -3 7 -68 10 -145z"/>
<path d="M6406 5378 c-18 -26 -21 -100 -5 -129 7 -14 16 -18 31 -13 11 3 55 7
97 8 72 1 76 3 79 25 5 35 -5 66 -34 100 -24 29 -31 31 -89 31 -55 0 -66 -3
-79 -22z m150 -9 c3 -6 0 -15 -7 -20 -11 -7 -9 -9 6 -9 23 0 51 -38 38 -50 -4
-5 -46 -10 -92 -11 -80 -3 -84 -2 -92 20 -13 34 -4 41 64 43 l62 2 -57 3 c-45
3 -56 7 -51 18 6 18 118 21 129 4z"/>
<path d="M5987 5303 c-40 -6 -89 -94 -81 -143 4 -19 13 -42 21 -50 13 -13 16
-13 26 0 13 16 113 28 104 13 -3 -5 12 -10 33 -10 38 -2 40 0 50 38 14 51 -2
111 -37 138 -25 20 -52 23 -116 14z m101 -25 c27 -27 13 -38 -48 -38 -38 0
-60 -4 -60 -11 0 -8 18 -10 58 -7 73 7 82 3 82 -33 0 -27 -10 -35 -35 -29 -11
3 -110 1 -139 -3 -14 -1 -20 5 -23 26 -3 22 1 29 24 38 20 7 24 12 14 18 -17
11 -6 29 23 41 31 13 90 12 104 -2z"/>
<path d="M6631 4721 c-35 -6 -52 -17 -82 -52 -59 -67 -63 -132 -17 -269 12
-36 23 -71 24 -77 5 -21 52 -15 59 7 5 16 14 20 43 19 22 -1 28 -3 15 -6 -23
-5 -53 -33 -35 -33 6 0 14 5 17 10 4 6 13 7 23 1 22 -12 122 -7 131 6 9 15 54
23 70 14 8 -5 11 -16 8 -25 -5 -12 0 -16 18 -16 27 0 55 24 55 46 0 9 5 25 12
37 16 29 11 71 -14 113 -11 19 -18 43 -15 54 3 11 1 18 -4 14 -5 -3 -9 2 -9
10 0 8 -6 19 -13 23 -7 4 -25 29 -40 55 -15 26 -36 52 -46 58 -26 14 -147 20
-200 11z m144 -78 c72 -6 78 -8 96 -36 10 -17 16 -34 13 -39 -7 -11 -255 -10
-273 1 -9 6 -11 18 -6 39 9 42 32 47 170 35z m2 -101 c151 3 158 0 169 -85 7
-51 -14 -82 -50 -73 -12 3 -29 6 -39 6 -11 0 -15 5 -11 11 5 8 -17 9 -77 5
-46 -4 -109 -8 -139 -9 -52 -2 -55 -1 -64 28 -5 17 -12 39 -17 50 -5 11 -13
33 -19 49 -10 27 -9 28 14 22 14 -3 27 -2 31 3 3 6 18 6 38 0 17 -6 92 -9 164
-7z"/>
<path d="M5549 4417 c-19 -13 -44 -44 -57 -70 -13 -29 -32 -51 -47 -57 -23 -9
-24 -12 -13 -30 11 -17 9 -27 -15 -69 -31 -56 -34 -102 -10 -163 29 -77 68
-101 88 -55 6 12 16 22 23 21 6 -1 72 -2 145 -2 131 -2 134 -2 145 -26 9 -20
16 -24 39 -20 30 6 44 20 42 44 -3 38 2 59 21 80 24 27 21 15 25 118 2 79 0
87 -29 135 -17 28 -45 66 -62 84 l-32 33 -115 0 c-102 0 -118 -2 -148 -23z
m210 -55 c53 -7 54 -8 67 -50 9 -34 10 -44 0 -48 -6 -2 -81 -3 -166 -2 l-155
3 2 29 c1 15 9 39 18 52 14 22 21 24 98 23 45 -1 106 -4 136 -7z m151 -129 c0
-16 -8 -42 -18 -58 -10 -17 -21 -50 -25 -74 -3 -24 -10 -49 -17 -55 -7 -7 -77
-12 -202 -14 -185 -3 -191 -3 -214 19 -13 12 -24 31 -24 41 0 18 2 18 33 3
l32 -16 -32 26 -32 26 30 57 29 57 191 0 191 0 -4 -53 c-4 -72 8 -66 17 8 6
50 10 60 26 60 14 0 19 -7 19 -27z"/>
<path d="M8404 7949 c-2 -3 33 -9 77 -12 44 -3 83 -8 87 -11 3 -4 -39 -52 -94
-109 -55 -56 -114 -119 -132 -140 -21 -25 -38 -37 -48 -33 -14 5 -15 -54 -10
-566 4 -503 3 -575 -10 -589 -14 -15 -14 -20 0 -47 15 -30 15 -30 -29 -67 -67
-55 -55 -111 23 -103 26 3 27 2 30 -54 l3 -57 -36 -15 c-43 -18 -95 -54 -95
-65 0 -5 12 -25 26 -46 l25 -38 -28 -29 c-15 -17 -45 -39 -65 -49 -39 -20 -46
-36 -28 -69 14 -27 -35 -100 -67 -100 -32 0 -73 -42 -66 -68 2 -11 20 -35 39
-53 19 -18 34 -38 34 -43 -1 -6 -14 -27 -30 -46 -41 -47 -39 -82 3 -114 19
-15 38 -26 44 -26 21 0 53 -50 47 -74 -4 -17 1 -34 17 -55 29 -39 44 -44 79
-26 42 22 60 19 60 -8 0 -13 5 -28 11 -34 6 -6 9 -19 7 -29 -2 -10 5 -27 14
-36 35 -35 11 -128 -32 -128 -10 0 -22 -9 -25 -20 -4 -11 -22 -41 -41 -65 -36
-48 -41 -64 -23 -82 8 -8 7 -17 -5 -34 -21 -30 -20 -52 2 -72 17 -15 20 -15
41 -1 21 15 24 14 48 -10 14 -14 32 -26 39 -26 11 0 13 -131 8 -767 -2 -423
-8 -779 -11 -793 -3 -14 -6 -28 -5 -32 1 -5 4 -73 7 -153 l4 -145 -29 0 c-17
0 -30 -4 -30 -10 0 -5 17 -10 37 -10 51 0 30 -18 -27 -23 l-45 -4 53 -1 c33
-1 52 -6 53 -14 1 -7 2 -20 3 -28 2 -8 3 -27 4 -42 1 -16 7 -28 13 -28 8 0 10
17 6 53 -3 30 -2 58 1 63 4 5 99 9 212 10 113 0 354 1 535 2 182 1 386 0 455
-3 69 -3 206 -7 305 -9 l180 -5 -145 12 c-213 18 -141 27 197 26 358 -1 727
12 741 26 12 12 -13 24 -41 19 -36 -6 -210 -5 -216 2 -2 2 30 4 71 4 41 0 103
3 138 7 43 4 61 3 57 -4 -4 -6 0 -14 9 -17 27 -11 40 -6 21 8 -16 12 -13 14
25 15 24 2 51 2 61 2 9 0 17 5 17 10 0 5 12 2 27 -8 19 -13 28 -14 31 -5 2 6
17 12 33 12 20 0 28 4 23 11 -4 7 -22 9 -45 6 -41 -5 -51 5 -21 22 14 9 12 11
-13 11 -16 1 -39 3 -50 5 -11 2 -38 6 -60 8 -52 6 -95 18 -95 26 0 3 62 5 137
3 153 -4 175 5 37 14 -49 4 -93 10 -97 14 -12 10 42 22 90 20 68 -3 88 -1 77
10 -6 6 -94 10 -213 11 -141 1 -200 4 -192 12 13 13 180 36 187 26 2 -4 -6
-10 -18 -13 -33 -7 200 4 242 11 51 10 -184 43 -272 38 -37 -1 -68 1 -68 5 0
5 13 18 30 30 54 39 145 163 196 270 66 136 148 372 157 451 2 19 9 52 15 74
6 22 20 92 32 155 11 63 26 131 32 150 27 81 12 359 -32 580 -12 58 -23 119
-26 135 -6 46 -25 93 -67 167 -20 36 -37 71 -37 77 0 21 -124 186 -192 254
-37 38 -68 73 -68 77 0 4 10 18 21 31 36 40 86 122 119 195 17 38 36 77 41 88
6 10 12 26 14 35 2 9 15 59 28 111 14 52 28 127 32 165 4 39 13 107 22 153 8
46 12 90 9 98 -3 8 1 14 9 14 9 0 15 9 15 23 0 16 -2 19 -9 8 -6 -9 -9 1 -9
30 0 24 -4 78 -7 120 -5 45 -3 96 3 126 11 49 6 89 -24 186 -5 15 -2 18 14 13
17 -6 19 -3 15 13 -3 12 -9 18 -14 15 -5 -3 -14 7 -19 21 -13 33 -13 38 0 30
14 -9 13 8 -2 23 -6 6 -13 17 -15 24 -14 62 -57 188 -71 208 -32 44 -37 54
-22 45 18 -11 -21 54 -77 128 -23 31 -40 57 -38 57 3 0 24 -9 45 -20 65 -33
46 -14 -30 30 -39 22 -95 66 -126 97 -59 58 -99 83 -252 159 -51 25 -92 48
-90 50 5 5 121 -38 176 -66 24 -12 46 -19 49 -16 6 6 -60 40 -129 66 -29 11
-127 38 -218 60 -91 23 -185 47 -210 55 -123 38 -283 45 -1128 48 -250 1 -456
-1 -458 -4z m340 -34 c50 -3 255 -8 456 -11 201 -3 394 -7 430 -10 36 -2 94
-6 130 -8 36 -2 90 -11 120 -19 32 -9 57 -11 60 -6 6 9 60 -11 60 -22 0 -3 17
-6 38 -7 51 -2 254 -63 335 -100 37 -17 100 -54 140 -81 84 -56 238 -214 273
-281 14 -25 38 -66 54 -91 58 -89 143 -369 113 -369 -13 0 -32 49 -22 56 5 3
7 10 3 15 -3 5 -9 7 -14 4 -5 -3 -12 11 -16 32 -4 20 -15 46 -25 57 -24 25
-24 13 1 -59 40 -117 15 -90 -33 35 -26 68 -34 94 -36 111 -2 15 -188 188
-234 217 -130 82 -347 186 -347 166 0 -2 55 -31 123 -63 78 -38 144 -78 182
-111 33 -28 76 -60 95 -70 39 -20 102 -82 99 -96 -3 -13 18 -61 31 -69 15 -9
88 -155 117 -235 14 -36 31 -83 39 -104 8 -21 13 -46 11 -55 -2 -9 -12 11 -22
44 -49 152 -189 380 -291 474 -186 170 -467 319 -689 365 -63 13 -338 34 -375
28 -23 -3 -1089 -25 -1142 -23 -27 1 -48 -2 -48 -8 0 -15 55 -23 115 -16 30 4
55 3 55 -1 0 -5 232 -8 528 -6 440 3 555 1 697 -13 94 -10 188 -23 210 -30 22
-8 69 -21 105 -30 200 -50 410 -173 552 -323 118 -126 251 -440 278 -656 29
-236 -1 -645 -50 -699 -7 -8 -113 66 -138 96 -13 15 -2 51 35 123 9 17 13 39
10 48 -8 20 -66 46 -102 46 -30 0 -32 11 -5 35 12 11 18 25 15 36 -4 10 -1 54
6 98 14 89 10 100 -45 128 -53 28 -82 32 -111 17 -39 -20 -59 -17 -70 9 -6 12
-18 22 -28 22 -10 0 -25 8 -32 18 -9 13 -20 17 -33 13 -25 -8 -50 -36 -33 -36
8 0 10 -8 6 -20 -5 -15 -3 -18 10 -14 9 4 24 -1 34 -10 16 -15 19 -15 31 -1 7
8 17 15 23 15 7 0 7 -4 -1 -12 -26 -26 -14 -36 33 -27 25 5 54 13 64 18 21 12
81 -2 118 -26 26 -17 30 -54 8 -73 -9 -7 -13 -21 -9 -35 3 -13 -2 -37 -10 -54
-16 -29 -15 -31 1 -32 16 0 15 -2 -2 -9 -12 -5 -14 -9 -6 -9 8 -1 12 -3 9 -6
-3 -3 -17 0 -31 6 -21 9 -30 9 -42 -1 -8 -7 -15 -18 -14 -24 0 -7 2 -6 6 2 5
13 33 17 33 5 0 -5 -20 -21 -45 -36 -25 -16 -45 -33 -45 -38 0 -5 18 2 40 16
45 28 58 30 83 10 11 -7 25 -11 33 -8 22 8 71 -16 77 -38 4 -13 -3 -24 -21
-35 -15 -8 -19 -13 -9 -10 9 3 17 1 17 -4 0 -6 -3 -10 -7 -10 -5 0 -9 -12 -9
-26 -1 -14 -10 -34 -19 -44 -19 -21 -14 -50 8 -50 8 0 22 -9 31 -19 17 -19 16
-21 -24 -57 -51 -47 -152 -191 -139 -200 16 -9 48 24 104 111 29 44 61 88 72
98 18 16 22 16 52 1 l32 -16 -26 -34 c-14 -19 -22 -34 -16 -34 5 0 19 14 31
30 41 57 51 21 12 -40 -9 -14 -15 -30 -14 -36 1 -6 -4 -17 -12 -23 -11 -9 -19
-9 -35 1 -17 10 -23 10 -33 -1 -10 -11 -10 -12 0 -7 7 4 12 1 12 -8 0 -21 21
-31 31 -15 7 11 9 10 9 -3 0 -10 -8 -26 -17 -36 -10 -10 -31 -34 -46 -55 -33
-43 -40 -45 -72 -13 -15 15 -28 20 -37 15 -9 -6 -9 -9 -1 -9 7 0 10 -7 7 -15
-5 -11 -2 -13 10 -9 21 8 47 -13 39 -32 -7 -18 -27 -18 -43 1 -17 21 -72 47
-81 38 -4 -5 -1 -14 7 -21 8 -7 14 -10 14 -7 0 3 10 -3 22 -15 12 -11 28 -20
36 -20 12 0 11 -4 -3 -20 -10 -11 -24 -20 -32 -20 -7 0 -13 -4 -13 -8 0 -5
-20 -23 -45 -41 -24 -17 -51 -39 -60 -47 -8 -9 -28 -19 -43 -23 l-27 -8 40
-39 c22 -21 58 -47 79 -57 49 -23 143 -102 151 -128 4 -10 13 -19 20 -19 8 0
12 -6 9 -14 -4 -12 -12 -13 -31 -5 -20 7 -30 6 -44 -7 -13 -12 -22 -13 -38 -5
-29 16 -46 14 -72 -9 l-24 -20 54 6 54 7 -7 -39 c-4 -21 -8 -46 -8 -55 1 -9
-19 -39 -43 -65 -25 -27 -44 -57 -45 -66 0 -10 -10 -28 -21 -39 -17 -17 -23
-19 -31 -8 -7 11 -11 11 -15 2 -2 -7 -11 -13 -18 -13 -21 0 -27 31 -10 56 9
13 11 24 6 24 -5 0 -15 -10 -24 -22 -14 -23 -15 -23 -13 11 1 22 11 43 31 63
l30 30 -32 -18 c-17 -10 -30 -20 -29 -22 2 -1 -9 -16 -24 -32 -15 -16 -27 -38
-26 -47 0 -10 -6 -18 -14 -18 -8 0 -14 6 -12 14 3 12 0 12 -12 1 -14 -11 -16
-9 -16 8 0 12 5 24 10 27 6 3 10 1 10 -5 0 -6 5 -8 11 -4 8 4 7 9 -2 15 -16
10 2 27 64 60 38 20 55 33 112 84 l30 27 -39 -23 c-26 -15 -40 -18 -45 -11 -8
13 -134 -91 -139 -115 -2 -7 -7 -11 -12 -8 -5 3 -12 0 -16 -6 -4 -8 -3 -9 4
-5 16 10 15 -6 -1 -28 -14 -20 -39 -18 -48 3 -3 9 -11 2 -21 -20 -13 -25 -14
-35 -5 -41 9 -6 8 -8 -3 -8 -9 -1 -6 -5 8 -10 34 -14 27 -51 -13 -63 -41 -13
-90 -17 -104 -8 -14 9 -14 10 25 54 6 7 37 48 70 92 101 136 149 195 159 195
6 0 16 9 23 20 7 11 9 20 5 19 -25 -4 -35 2 -29 18 6 14 3 14 -15 -3 -22 -19
-22 -19 -11 1 6 11 19 29 29 40 46 51 42 55 -8 7 -57 -54 -67 -55 -81 -12 -5
12 -7 11 -14 -5 -4 -11 -10 -22 -13 -25 -3 -3 -14 -14 -23 -26 -18 -20 -17
-20 13 -16 29 4 30 3 17 -17 -7 -11 -16 -21 -21 -21 -4 0 -5 5 -2 10 4 6 -10
1 -31 -10 -20 -12 -42 -19 -50 -16 -7 3 -15 0 -17 -7 -2 -7 -8 -9 -11 -5 -9 8
35 54 47 50 5 -1 11 7 14 18 3 11 9 17 14 14 5 -3 6 2 3 11 -6 14 -13 10 -43
-19 -37 -37 -67 -51 -39 -18 9 9 26 37 38 62 l22 45 -30 -28 c-16 -16 -38 -44
-48 -63 -10 -19 -22 -34 -27 -34 -13 0 -20 29 -11 48 4 9 8 28 9 41 1 21 -2
20 -35 -16 -19 -22 -43 -49 -52 -61 -10 -12 -24 -19 -32 -16 -13 5 -13 9 1 30
8 13 21 24 28 24 7 0 20 11 29 25 9 14 12 25 6 25 -5 0 -10 -3 -10 -8 0 -4
-10 -13 -21 -21 l-22 -13 22 31 c28 38 19 40 -20 4 -16 -16 -24 -30 -18 -33 6
-4 2 -16 -10 -31 -11 -13 -20 -19 -21 -12 0 6 5 15 10 18 16 10 12 28 -4 22
-10 -4 -13 -1 -10 8 3 7 13 15 22 18 9 2 26 19 36 38 l19 34 -21 -19 c-12 -11
-25 -16 -30 -12 -7 8 82 95 140 137 26 19 27 19 21 2 -6 -17 -5 -16 16 1 18
17 21 17 15 3 -7 -20 6 -23 24 -5 9 9 12 9 12 0 0 -19 25 -14 45 8 10 11 13
20 7 20 -6 0 -15 -7 -20 -16 -11 -20 -36 -9 -28 12 3 9 -1 11 -12 8 -9 -3 -3
6 13 20 24 21 27 28 16 35 -7 5 -10 14 -6 21 6 9 3 9 -14 1 -13 -7 -27 -8 -37
-3 -9 5 -33 6 -53 2 -37 -7 -69 10 -56 29 3 5 -4 7 -15 4 -14 -4 -20 0 -20 12
0 13 -3 15 -13 7 -19 -16 -46 3 -29 20 6 6 12 16 12 22 0 6 -5 5 -12 -2 -29
-29 -39 -1 -11 32 10 12 2 7 -17 -10 -31 -27 -38 -30 -62 -20 -31 11 -32 13
-18 53 l10 28 -21 -25 c-18 -21 -20 -22 -15 -5 6 19 5 19 -12 -1 -16 -19 -53
-44 -65 -44 -3 0 0 11 6 25 7 14 17 25 23 25 14 0 44 43 44 62 0 7 -9 -2 -20
-19 -24 -40 -34 -42 -26 -5 5 23 3 21 -14 -10 -21 -39 -34 -51 -23 -21 11 29
-14 5 -26 -26 -10 -22 -19 -28 -38 -27 -23 1 -24 3 -18 46 4 25 14 67 22 93 9
26 13 50 11 53 -6 6 -48 -107 -48 -129 0 -21 -27 -12 -34 11 -4 13 -5 12 -4
-3 1 -42 -2 -55 -13 -55 -12 0 -7 84 7 140 4 14 4 22 0 19 -11 -10 -37 -123
-32 -142 3 -14 0 -16 -16 -11 -14 4 -18 2 -14 -5 10 -15 -29 -14 -41 2 -10 12
-9 46 1 102 4 22 3 26 -4 15 -5 -8 -10 -25 -10 -38 0 -33 -20 -60 -41 -55 -16
4 -18 13 -14 62 l4 56 -10 -47 c-10 -45 -13 -47 -41 -44 -17 2 -34 9 -38 16
-4 7 -12 10 -18 6 -6 -3 -13 -2 -17 4 -7 12 -45 13 -45 2 0 -5 19 -17 41 -28
61 -27 69 -38 59 -75 -12 -39 -38 -69 -55 -63 -7 3 -15 -2 -19 -11 -4 -11 -12
-14 -26 -10 -14 5 -20 2 -20 -9 0 -9 -4 -16 -10 -16 -13 0 -13 6 1 29 8 11 9
32 4 57 l-7 39 -15 -40 c-7 -22 -25 -50 -38 -62 -28 -26 -40 -29 -32 -8 4 8 1
17 -5 21 -7 5 -9 -2 -6 -21 4 -21 1 -29 -13 -32 -11 -3 -19 -10 -19 -15 0 -5
-5 -6 -10 -3 -7 4 -7 11 -2 18 5 7 12 24 14 39 5 25 4 26 -14 13 -11 -7 -26
-23 -34 -34 -16 -22 -48 -28 -59 -11 -3 6 -13 10 -22 10 -12 0 -10 -7 10 -34
33 -43 27 -65 -28 -105 -42 -30 -105 -43 -105 -21 0 26 -17 5 -32 -41 -13 -41
-14 -48 -2 -38 31 26 24 -1 -11 -39 -20 -22 -38 -50 -40 -63 -2 -12 -1 -18 3
-15 4 4 7 11 7 14 0 15 17 32 26 26 5 -3 8 -2 7 3 -6 18 80 103 104 103 15 0
-22 -61 -64 -106 -49 -53 -39 -59 14 -7 21 20 38 32 38 26 0 -7 -4 -15 -10
-18 -5 -3 -10 -10 -10 -16 0 -5 11 1 24 12 16 14 23 29 21 47 -3 30 12 55 28
45 6 -4 8 0 4 10 -4 11 -2 14 8 11 7 -3 16 3 20 15 3 12 10 21 14 21 3 0 15
14 24 30 21 35 44 42 26 8 -7 -13 -23 -33 -36 -45 -13 -13 -19 -23 -14 -23 16
0 -8 -50 -41 -85 -15 -17 -28 -35 -28 -40 -1 -6 -21 -32 -45 -60 l-44 -50 -33
17 c-18 10 -49 19 -68 21 -45 4 -63 15 -56 33 3 8 1 14 -4 14 -18 0 -22 -22
-9 -48 12 -22 12 -26 -1 -30 -8 -3 -32 -22 -53 -42 -22 -23 -51 -40 -73 -44
-19 -4 -52 -23 -73 -42 -21 -19 -41 -34 -45 -34 -4 0 -6 63 -5 139 1 117 4
144 20 170 20 33 43 40 52 17 3 -7 -1 -24 -10 -35 -8 -12 -13 -25 -9 -28 3 -3
-1 -12 -9 -20 -8 -8 -15 -20 -15 -26 0 -6 8 0 18 13 9 13 37 43 60 66 39 37
41 41 19 37 -21 -4 -28 1 -42 26 -9 17 -13 36 -10 42 4 5 7 31 7 57 0 25 4 55
10 65 8 15 7 18 -4 12 -28 -17 -46 -37 -42 -49 3 -7 -7 -23 -21 -36 -26 -25
-32 -21 -15 11 7 13 7 19 0 19 -5 0 -10 15 -10 34 0 25 17 59 64 130 35 53 61
96 57 96 -13 0 -37 -32 -72 -97 -19 -35 -37 -63 -42 -63 -9 0 16 62 49 117 18
31 20 41 9 37 -9 -4 -15 -1 -15 7 0 7 -7 3 -16 -9 -9 -14 -14 -33 -10 -46 4
-16 0 -28 -11 -37 -15 -13 -15 -12 -4 9 8 15 8 22 1 22 -7 0 -11 20 -10 53 1
28 -1 135 -4 237 -3 105 -1 201 5 222 5 20 28 60 52 89 23 28 49 62 57 75 8
13 30 45 48 71 30 43 31 45 5 17 -55 -60 -95 -108 -124 -150 -43 -64 -49 -63
-49 6 0 68 16 86 50 55 12 -11 20 -13 20 -7 0 7 7 12 17 12 9 0 14 3 10 6 -15
16 123 184 151 184 12 0 13 3 4 12 -17 17 -52 -11 -125 -98 -51 -61 -87 -89
-87 -69 0 9 58 93 68 97 18 7 71 85 76 111 3 16 10 35 17 43 9 11 8 14 -5 14
-9 0 -18 -6 -20 -12 -19 -74 -60 -153 -72 -138 -2 3 -18 -11 -35 -30 -18 -19
-31 -36 -30 -38 8 -8 -7 -24 -17 -18 -17 10 -15 48 1 44 17 -4 62 49 70 82 l6
25 -24 -27 c-13 -16 -33 -28 -45 -28 -26 0 -25 8 3 38 l22 24 -28 -7 -28 -7 3
78 3 79 28 -3 c32 -3 34 4 8 32 -11 12 -21 35 -23 51 -3 27 2 32 47 54 59 29
107 32 133 8 23 -21 32 -22 32 -3 0 15 21 26 52 26 15 0 18 4 13 18 -18 42 5
82 46 82 25 0 89 -39 89 -54 0 -7 -12 -23 -27 -36 -18 -16 -23 -25 -14 -28 7
-2 18 4 26 14 11 15 17 16 39 6 23 -10 28 -9 42 13 21 32 28 32 63 -7 31 -35
51 -34 29 1 -10 16 -10 23 0 33 6 6 12 25 12 41 0 15 5 38 10 50 11 24 10 22
-36 -47 -13 -20 -27 -30 -39 -28 -10 2 -28 -2 -40 -8 -18 -10 -27 -9 -49 5
-36 24 -33 52 10 77 25 15 32 24 25 31 -8 8 -21 2 -44 -21 -30 -29 -36 -31
-84 -26 -48 6 -52 5 -69 -22 -10 -16 -33 -43 -52 -61 -33 -31 -35 -32 -58 -16
-24 15 -29 15 -90 -10 -35 -15 -68 -27 -73 -27 -4 0 -11 181 -15 403 -3 221
-9 438 -12 482 l-6 80 131 131 c72 73 131 139 131 148 0 24 39 59 58 51 8 -3
56 -8 106 -10z m-434 -2065 l0 -281 -47 -58 c-27 -32 -61 -75 -76 -95 -16 -21
-31 -35 -35 -32 -3 3 2 14 10 23 30 36 30 47 0 19 -42 -39 -53 -26 -14 18 17
19 34 41 39 49 4 7 19 21 33 30 16 11 19 17 9 17 -17 0 -53 -36 -88 -87 -21
-31 -23 -32 -46 -17 -13 9 -29 13 -34 10 -12 -8 -51 23 -51 40 0 21 51 74 71
74 11 0 19 7 19 16 0 14 -3 14 -15 4 -9 -8 -15 -9 -15 -2 0 6 5 14 10 17 18
11 10 35 -11 35 -17 0 -20 5 -16 20 4 17 2 20 -14 15 -22 -7 -52 12 -43 27 8
13 72 40 103 44 31 4 39 13 21 24 -12 8 -11 10 4 10 20 0 20 0 0 15 -18 14
-18 14 9 15 26 0 36 13 18 24 -14 9 -20 60 -9 74 6 6 18 12 28 12 10 0 25 11
34 25 11 17 26 25 46 25 38 0 38 15 1 49 -15 14 -27 35 -27 46 2 27 45 75 68
75 17 0 18 -16 18 -280z m0 -411 c-2 -166 -4 -172 -39 -135 l-22 23 21 36 c12
20 20 44 17 54 -3 13 -9 7 -23 -22 -30 -63 -63 -112 -80 -119 -17 -6 -54 13
-54 29 0 19 18 37 29 30 9 -5 9 -10 0 -21 -17 -20 6 -18 30 2 15 13 16 20 8
29 -7 7 -18 10 -24 8 -24 -9 -12 12 33 61 25 27 57 67 71 89 13 21 27 37 29
34 3 -2 4 -47 4 -98z m2602 -197 c74 -132 128 -250 128 -279 0 -17 -7 -15 -11
2 -1 6 -13 27 -25 47 -13 21 -24 42 -24 46 0 10 -62 124 -95 177 -10 17 -52
69 -92 117 -44 53 -68 89 -60 92 20 8 133 -119 179 -202z m-1412 87 c0 -5 6
-7 13 -3 6 3 -1 -5 -17 -20 -17 -15 -23 -26 -15 -26 9 0 10 -3 3 -8 -11 -7
-44 -65 -44 -78 0 -3 6 -1 14 5 11 9 10 2 -3 -34 -9 -25 -19 -45 -23 -45 -11
0 -10 18 2 25 6 3 10 14 10 23 0 11 -6 7 -19 -13 -10 -16 -14 -31 -9 -33 13
-6 9 -36 -9 -62 -17 -24 -16 -24 16 3 40 33 42 33 70 3 45 -47 4 -126 -58
-114 -17 3 -71 102 -71 130 0 10 8 25 18 35 10 10 38 64 62 121 38 90 60 124
60 91z m543 -16 c-7 -2 -13 -9 -13 -14 0 -6 8 -6 19 1 13 7 22 7 26 0 3 -5 -4
-11 -17 -12 -13 0 -28 -2 -33 -2 -22 -3 -76 -49 -91 -78 -10 -19 -21 -28 -30
-24 -9 3 -12 1 -9 -4 4 -6 -1 -17 -9 -26 -11 -11 -16 -12 -16 -3 0 7 -10 3
-23 -9 -13 -12 -28 -22 -35 -22 -14 0 -91 -70 -77 -70 6 0 3 -5 -5 -10 -11 -7
-11 -10 -2 -10 10 0 10 -5 2 -20 -10 -19 -1 -28 14 -13 11 11 36 12 36 2 0 -6
5 -7 11 -3 8 5 8 9 -1 14 -14 9 18 50 59 76 22 14 21 11 -7 -18 -19 -20 -32
-42 -31 -49 1 -8 -1 -22 -5 -31 -11 -24 0 -49 24 -55 11 -3 20 -10 20 -15 0
-19 -59 -134 -77 -151 -17 -15 -21 -14 -56 19 -29 27 -37 43 -37 70 0 19 4 34
8 34 4 0 7 22 5 50 -7 95 53 186 162 245 28 15 73 48 100 75 28 26 57 50 65
53 19 7 39 7 23 0z m-973 -44 c0 -5 5 -9 11 -9 5 0 7 6 4 13 -10 17 156 -154
177 -184 24 -33 13 1 -20 61 -16 29 -21 45 -13 48 6 2 11 11 11 20 1 15 2 14
11 -2 9 -14 8 -21 -2 -28 -11 -7 -9 -8 6 -6 15 2 20 -3 19 -19 0 -12 4 -20 8
-16 5 3 8 -1 7 -8 -2 -12 15 -54 40 -99 4 -8 23 -46 41 -85 27 -55 133 -215
143 -215 1 0 2 15 3 33 1 17 4 41 8 53 6 16 0 26 -33 48 -50 35 -63 61 -25 52
38 -10 71 24 80 83 4 25 17 64 29 87 12 23 26 72 29 108 4 35 13 70 21 76 11
9 15 -1 20 -54 4 -35 4 -69 0 -75 -3 -6 -4 -11 -1 -11 3 0 13 15 22 33 10 17
24 38 33 45 9 8 10 11 4 7 -26 -13 -12 11 22 38 19 15 35 25 35 22 0 -6 -21
-49 -59 -120 -11 -21 -21 -46 -21 -55 0 -9 -4 -20 -9 -25 -15 -18 -41 -113
-35 -132 4 -13 3 -15 -4 -5 -10 14 -22 -26 -28 -93 -1 -16 -7 -31 -12 -33 -5
-1 -7 -12 -4 -24 3 -14 1 -19 -6 -14 -9 5 -13 -14 -14 -66 -5 -176 -5 -235 4
-258 11 -29 15 -106 23 -389 3 -118 7 -217 9 -220 2 -3 7 -35 11 -71 4 -36 9
-67 11 -69 11 -11 13 10 5 52 -4 25 -4 51 0 59 6 8 9 -2 9 -27 0 -23 5 -46 11
-52 8 -8 8 -17 -3 -32 -18 -26 -11 -81 29 -216 37 -123 55 -160 102 -202 33
-31 41 -33 101 -32 56 2 73 -3 121 -30 60 -33 78 -39 60 -18 -6 8 -8 17 -4 20
3 4 1 7 -6 7 -11 0 -68 39 -106 72 -11 10 81 -30 130 -56 34 -18 75 -21 75 -6
0 6 -4 10 -9 10 -17 0 -112 81 -106 90 8 13 35 13 35 -1 0 -5 -5 -7 -11 -3 -7
4 -10 1 -7 -7 3 -9 21 -14 51 -14 48 -1 79 -14 36 -16 -34 -2 54 -19 126 -24
33 -3 83 -11 110 -19 98 -29 236 -43 216 -23 -6 6 -30 12 -53 14 -123 10 -201
34 -180 55 6 6 22 6 43 1 41 -11 119 -5 119 9 0 6 -14 8 -32 5 -18 -2 -42 -1
-53 3 -11 4 -45 4 -77 1 -73 -9 -101 0 -61 18 16 8 23 16 15 18 -7 3 -29 -5
-49 -17 -20 -11 -43 -18 -51 -15 -12 5 -11 10 8 30 30 32 20 32 -36 -1 -49
-29 -56 -19 -23 28 31 43 15 46 -21 4 -18 -20 -35 -36 -39 -36 -3 0 -6 14 -6
32 0 18 -6 33 -14 36 -10 3 -12 -1 -8 -17 4 -15 0 -21 -11 -23 -32 -2 -37 -4
-48 -10 -20 -13 -80 11 -115 45 -35 34 -61 80 -101 181 -19 50 -21 60 -8 64 8
2 43 33 77 68 88 91 127 181 145 339 14 124 14 103 -7 290 -9 80 -62 216 -106
274 -40 53 -45 88 -11 78 32 -9 37 -9 77 -7 22 1 34 4 28 7 -20 7 -15 25 5 19
19 -6 101 68 89 80 -4 4 -15 0 -25 -9 -10 -10 -21 -15 -24 -12 -10 10 -59 -18
-54 -31 5 -14 -13 -34 -31 -34 -7 0 -10 6 -7 14 3 8 11 14 17 12 7 -1 8 -1 4
2 -5 2 11 25 35 50 28 29 36 42 23 38 -23 -8 -18 -3 41 42 50 39 60 40 38 7
-9 -14 -25 -25 -35 -25 -10 0 -20 -4 -24 -9 -3 -6 4 -9 15 -8 12 1 41 21 66
44 24 24 47 43 50 43 2 0 22 18 43 40 34 36 72 56 56 30 -3 -5 -12 -10 -19
-10 -8 0 -19 -7 -26 -15 -15 -18 1 -20 18 -3 7 7 12 8 12 2 0 -8 -74 -103
-148 -191 -15 -17 -43 -50 -62 -74 -19 -23 -43 -49 -52 -58 -24 -21 -23 -31 3
-31 12 0 39 -5 60 -12 33 -9 42 -9 57 5 11 10 26 14 40 10 16 -4 31 2 47 17
29 28 31 42 9 76 -22 33 -10 42 25 21 37 -22 57 -22 70 1 9 15 12 15 39 -11
26 -25 34 -27 72 -21 49 8 90 44 90 79 0 16 8 25 25 29 14 4 29 14 32 24 4 9
16 29 26 44 15 20 17 31 10 40 -25 30 6 98 45 98 13 0 31 4 41 10 22 11 44
-11 123 -122 61 -85 113 -199 152 -330 30 -98 60 -248 52 -255 -9 -9 -22 36
-35 112 -12 68 -30 120 -31 85 0 -8 16 -96 35 -195 46 -237 47 -317 5 -537 -5
-29 -16 -87 -24 -129 -8 -42 -26 -97 -40 -123 -14 -26 -26 -53 -26 -61 0 -8
-4 -15 -9 -15 -6 0 -25 -30 -43 -67 -56 -115 -194 -277 -246 -290 -27 -6 -97
-57 -138 -100 -14 -13 -81 -41 -180 -73 -253 -81 -486 -111 -847 -111 -120 0
-221 2 -225 5 -8 5 -506 20 -605 19 -85 -1 -102 -13 -21 -14 32 0 68 -4 79 -9
12 -5 -49 -9 -157 -9 l-176 -1 4 38 c10 96 15 830 9 1267 -1 121 3 158 16 149
5 -3 9 0 9 5 0 6 -7 11 -15 11 -21 0 -19 20 3 21 15 1 15 2 1 6 -13 3 -16 14
-14 49 2 25 5 47 7 50 3 2 3 71 0 152 -4 138 -3 150 14 155 11 4 31 16 46 28
40 33 45 16 9 -29 -35 -44 -37 -52 -17 -52 7 0 19 13 26 30 16 38 44 47 71 22
l20 -20 -40 -33 c-26 -20 -37 -35 -30 -40 8 -5 8 -8 0 -13 -27 -17 12 -86 50
-86 24 0 42 -26 35 -53 -4 -18 3 -29 30 -51 33 -26 37 -27 53 -12 10 9 23 16
29 16 6 0 16 8 21 19 6 10 24 21 40 24 19 4 36 18 48 37 15 26 23 30 43 25 63
-14 100 -17 100 -7 0 6 9 13 19 17 10 3 24 19 31 35 12 30 35 44 24 15 -7 -17
7 -20 23 -4 7 7 9 3 5 -17 -3 -15 -13 -29 -23 -31 -21 -6 -25 -18 -8 -28 13
-9 46 21 65 57 11 21 22 28 44 28 17 0 30 5 30 11 0 15 53 56 108 85 6 3 19 3
27 0 14 -5 15 -60 15 -448 -1 -244 0 -497 2 -563 l3 -120 33 -3 c17 -2 32 -7
32 -12 0 -13 -85 -124 -126 -164 -22 -21 -52 -45 -69 -53 -16 -9 -55 -33 -85
-53 -30 -21 -70 -41 -87 -44 -18 -4 -33 -12 -33 -17 0 -12 -2 -12 61 10 112
39 225 112 289 185 101 116 122 172 165 451 16 98 22 266 11 284 -3 5 -11 56
-16 113 -16 160 -17 161 -55 255 -37 87 -107 204 -142 235 -10 8 -76 46 -148
84 -124 65 -239 134 -222 134 5 0 17 -5 28 -10 11 -7 19 -7 19 -1 0 5 24 -3
53 -18 28 -16 77 -36 107 -45 94 -29 118 -46 237 -166 59 -59 39 -15 -26 56
-87 96 -92 104 -81 124 16 29 11 37 -8 14 -22 -26 -42 -34 -64 -23 -15 8 -14
14 11 61 16 29 33 54 38 55 6 2 35 -47 66 -110 85 -179 109 -166 26 14 -21 47
-39 91 -39 98 0 28 -53 122 -90 157 -21 21 -36 42 -34 46 3 5 0 7 -8 6 -7 -2
-12 3 -10 10 1 6 -1 11 -5 10 -12 -3 -53 22 -53 32 0 5 7 7 15 4 8 -4 15 -10
15 -15z m-759 -391 c-1 -72 -6 -127 -13 -133 -7 -7 -12 -7 -14 0 -11 26 -24
39 -31 30 -10 -13 -83 -18 -83 -6 0 5 6 14 14 20 11 9 15 9 19 -1 3 -10 9 -9
22 4 17 16 17 17 -8 29 -29 13 -30 35 -7 80 16 29 92 111 98 105 2 -3 4 -60 3
-128z m1639 52 c-11 -37 -27 -64 -151 -250 -121 -182 -151 -239 -157 -301 -2
-27 -9 -49 -14 -49 -9 0 -1 116 8 132 3 5 1 8 -5 8 -6 0 -13 -17 -18 -37 l-7
-38 -7 55 c-4 30 -4 57 0 60 5 3 11 14 15 25 3 11 31 40 61 64 50 40 175 204
175 229 0 6 16 30 36 54 19 23 42 51 50 61 20 25 24 21 14 -13z m-1280 -12 c0
-5 4 -7 9 -3 24 14 17 -15 -14 -60 -35 -51 -41 -65 -27 -65 4 0 13 13 20 28
25 57 55 89 80 83 23 -6 23 -7 -15 -57 -39 -53 -93 -160 -98 -199 -2 -10 -11
-33 -40 -100 l-17 -40 -9 29 c-5 20 -4 35 7 50 8 13 11 26 8 29 -4 4 -1 14 6
23 11 13 11 17 1 24 -8 5 -11 16 -7 31 7 23 7 23 -8 5 -15 -19 -21 -39 -17
-60 2 -11 -49 -66 -61 -66 -5 0 -6 5 -3 10 3 6 1 10 -6 10 -7 0 -2 12 12 28
13 15 17 21 9 15 -35 -31 -30 -9 7 30 41 42 99 137 83 137 -4 0 -13 -13 -20
-30 -14 -33 -18 -35 -55 -18 -25 11 -32 28 -17 42 4 4 7 11 7 15 0 11 42 61
52 61 5 0 23 13 38 29 28 27 75 39 75 19z m103 -75 c-6 -16 -5 -16 10 -4 9 7
17 11 17 7 0 -10 -39 -46 -51 -46 -6 0 -9 -6 -6 -14 3 -8 -1 -20 -9 -26 -8 -7
-14 -17 -14 -23 0 -15 49 33 56 55 3 10 10 18 15 18 6 0 1 -15 -10 -33 -11
-19 -18 -37 -14 -41 4 -4 0 -4 -10 0 -13 4 -17 1 -17 -15 0 -12 -5 -21 -11
-21 -5 0 -7 4 -4 10 3 6 -1 7 -10 3 -13 -5 -14 -7 -3 -14 10 -7 8 -12 -11 -25
-20 -15 -21 -18 -7 -26 14 -8 14 -12 -3 -46 -11 -21 -22 -54 -26 -74 -4 -20
-17 -46 -29 -57 l-23 -21 5 30 c2 16 8 30 13 30 5 0 9 10 9 23 0 12 9 37 21
56 11 18 18 35 16 37 -8 8 -77 -127 -77 -151 0 -14 -4 -25 -10 -25 -21 0 -8
44 40 135 28 52 49 98 48 102 -5 18 83 173 98 173 2 0 0 -8 -3 -17z m1106
-268 c59 -93 92 -199 99 -318 7 -136 -8 -197 -62 -244 -40 -34 -148 -93 -171
-93 -18 0 -25 103 -21 300 3 115 10 194 20 230 16 59 77 190 88 190 3 0 25
-29 47 -65z"/>
<path d="M9325 7284 c-22 -13 -51 -24 -65 -24 -32 0 -101 -70 -125 -125 -26
-61 -32 -70 -47 -66 -7 2 -20 6 -29 8 -9 3 -32 -9 -51 -26 -28 -24 -43 -30
-78 -28 -35 1 -46 -3 -59 -22 -9 -13 -28 -35 -43 -50 -16 -14 -28 -35 -28 -48
0 -24 24 -53 45 -53 23 0 25 -29 5 -76 -11 -25 -20 -47 -20 -48 0 -1 16 -2 35
-2 19 0 30 3 25 6 -12 8 -5 104 11 143 7 15 9 30 6 34 -4 3 -11 -6 -16 -21
-13 -32 -21 -33 -51 -1 -23 24 -23 25 -4 46 10 12 29 25 41 30 14 5 21 14 17
23 -8 20 37 31 64 17 33 -18 61 -14 55 7 -7 27 41 50 69 33 11 -7 22 -11 23
-9 19 18 54 81 50 88 -3 5 0 12 5 15 6 4 15 18 20 31 7 17 17 24 35 24 16 0
25 6 25 15 0 16 71 54 101 55 9 0 19 7 23 15 7 20 65 19 88 -2 22 -20 24 -1 2
21 -22 23 -82 18 -129 -10z"/>
<path d="M9437 7230 c32 -19 51 -59 38 -80 -4 -6 6 -13 24 -16 23 -5 36 -16
47 -40 9 -19 22 -34 29 -34 21 0 122 49 136 66 25 31 86 55 113 44 34 -12 50
-44 36 -70 -6 -11 -15 -20 -20 -20 -6 0 -10 -7 -10 -15 0 -8 5 -15 10 -15 6 0
24 -13 41 -29 24 -23 29 -35 24 -53 -5 -17 -4 -19 4 -8 5 8 13 11 17 7 9 -8
-16 -38 -26 -32 -5 3 -6 -4 -3 -15 4 -14 -3 -30 -17 -45 -23 -24 -16 -37 7
-14 16 16 53 1 62 -24 4 -11 3 -36 -2 -54 -12 -38 -6 -49 19 -35 9 5 12 12 7
15 -15 10 0 82 17 83 31 2 34 6 13 14 -32 13 -28 30 6 30 33 0 51 -18 31 -30
-9 -6 -9 -9 0 -15 18 -11 53 2 94 34 33 26 46 30 94 29 32 0 67 -7 80 -15 22
-14 22 -14 5 -44 -20 -33 -21 -30 34 -66 17 -12 16 -14 -9 -37 -34 -31 -35
-36 -3 -66 l26 -24 -23 -18 c-13 -10 -29 -18 -37 -18 -7 0 -39 -24 -70 -53
-31 -29 -81 -76 -111 -104 -52 -49 -63 -82 -19 -55 17 11 25 11 44 -2 21 -14
24 -14 29 0 9 24 7 27 -9 14 -11 -9 -15 -9 -15 -1 0 7 -4 9 -10 6 -5 -3 -10
-2 -10 4 0 16 18 22 24 9 3 -9 10 -7 23 7 42 44 93 88 93 80 0 -4 -21 -28 -47
-52 -63 -57 -42 -56 26 2 29 25 57 45 62 45 5 0 9 4 9 10 0 5 -7 7 -16 3 -12
-4 -15 -2 -12 8 3 8 17 13 37 13 36 -2 38 2 14 29 -12 13 -14 21 -7 24 6 2 19
10 30 17 17 13 17 16 1 57 -16 40 -16 45 -2 55 26 19 24 67 -2 79 -18 8 -23
18 -23 50 0 49 -17 62 -92 71 -48 5 -57 3 -98 -25 -54 -37 -59 -37 -105 -10
l-36 22 -29 -21 c-33 -25 -42 -20 -29 15 16 43 10 59 -41 110 -29 29 -46 53
-41 59 5 5 12 23 16 40 5 28 2 35 -23 53 -47 33 -96 28 -138 -14 -23 -24 -42
-34 -53 -30 -11 3 -26 -4 -41 -20 -31 -33 -55 -32 -69 4 -7 15 -23 33 -36 39
-14 6 -27 24 -31 39 -10 41 -23 53 -58 53 l-31 0 32 -20z"/>
<path d="M9259 6826 c-2 -3 -1 -51 3 -108 4 -57 7 -186 7 -288 -1 -102 1 -213
5 -246 6 -52 4 -63 -10 -68 -20 -8 -36 2 -27 17 11 18 11 50 0 77 l-10 25 -7
-25 c-5 -14 -8 -40 -9 -57 -1 -32 -14 -43 -25 -24 -3 5 -15 7 -26 4 -17 -4
-20 0 -20 23 0 16 9 45 20 64 l21 35 -26 -28 c-14 -15 -25 -37 -25 -47 0 -10
-5 -22 -10 -25 -7 -4 -9 3 -5 22 5 22 4 25 -4 13 -6 -8 -8 -28 -5 -44 4 -19 3
-26 -5 -22 -8 5 -8 0 -1 -18 6 -17 6 -26 0 -26 -6 0 -10 -7 -10 -16 0 -10 -5
-14 -15 -10 -8 3 -21 9 -29 12 -10 4 -12 -1 -9 -20 3 -14 2 -37 -1 -50 -5 -20
-12 -24 -34 -23 -26 3 -27 4 -24 52 4 57 -10 53 -26 -7 -7 -25 -7 -39 1 -47
16 -16 -20 -25 -61 -15 -27 7 -38 16 -42 34 l-6 25 -6 -24 c-8 -29 -30 -23
-39 10 -6 23 -7 23 -22 -12 -15 -33 -51 -57 -61 -40 -2 3 2 31 10 61 8 30 13
62 11 70 -1 8 -9 -7 -16 -35 -7 -27 -19 -58 -28 -67 -8 -10 -13 -24 -10 -31 4
-11 -2 -13 -26 -8 -36 8 -45 33 -28 82 5 16 6 29 2 29 -8 0 -31 -67 -31 -93 0
-8 16 -28 36 -44 l36 -29 -16 -32 c-9 -17 -29 -43 -44 -57 l-27 -26 -18 23
c-15 18 -20 19 -28 7 -14 -22 -11 -27 22 -44 24 -13 34 -14 45 -4 20 17 17 2
-7 -32 l-20 -29 -44 31 c-41 29 -43 33 -33 62 5 18 12 43 15 57 8 37 -12 13
-27 -32 -6 -21 -16 -38 -21 -38 -5 0 -25 15 -44 34 -34 35 -34 35 -20 75 8 23
12 41 10 41 -5 0 -35 -69 -35 -80 0 -18 92 -115 139 -146 54 -37 58 -43 39
-62 -8 -8 -9 -12 -1 -12 15 0 94 90 88 100 -8 13 49 111 62 106 7 -3 10 0 8 7
-2 7 9 22 24 34 l28 22 -3 -22 c-1 -12 -3 -24 -3 -27 -1 -3 -19 -25 -41 -49
-22 -25 -40 -48 -40 -53 0 -5 -4 -6 -10 -3 -6 3 -10 -4 -10 -17 0 -13 -6 -33
-14 -44 -21 -29 -4 -54 20 -29 17 17 17 17 -6 10 -21 -6 -16 2 25 46 28 30 51
56 52 58 2 2 6 1 10 -2 3 -4 -8 -20 -25 -37 -33 -32 -43 -64 -17 -54 8 4 13 9
11 13 -1 3 10 20 27 36 16 17 28 23 25 15 -3 -8 -2 -22 3 -31 11 -21 60 -13
66 11 3 10 12 20 21 23 10 3 24 8 33 11 11 5 33 -8 67 -39 59 -53 69 -40 20
25 -18 23 -39 55 -47 69 -8 15 -16 21 -19 13 -3 -9 -7 -8 -18 2 -18 19 -18 32
0 17 11 -9 15 -9 19 1 4 10 8 10 17 -2 9 -11 13 -12 17 -2 8 21 19 14 54 -38
35 -51 66 -68 54 -29 -5 14 -3 19 3 15 6 -3 8 2 5 12 -2 11 6 32 21 49 25 29
33 53 20 53 -4 0 -13 -8 -20 -17 -12 -16 -13 -14 -4 11 6 16 8 31 6 34 -9 8
-26 -47 -20 -63 7 -16 -12 -45 -28 -45 -6 0 -8 6 -5 13 3 9 -3 13 -17 13 -14
-1 -20 4 -18 15 1 10 -6 19 -18 22 -11 3 -20 13 -20 22 0 9 -5 13 -11 9 -6 -3
-8 -17 -5 -30 5 -17 2 -24 -8 -24 -7 0 -16 11 -18 25 -3 13 -1 22 4 19 4 -3
11 2 14 11 4 9 16 15 28 13 12 -1 39 8 61 21 24 14 41 19 43 12 2 -6 10 -11
17 -11 9 0 12 13 10 43 -1 26 3 48 13 60 8 9 12 17 8 17 -4 0 -2 9 5 21 7 15
14 18 21 11 7 -7 4 -25 -12 -57 -12 -26 -20 -57 -17 -70 2 -14 0 -25 -5 -25
-13 0 2 -43 18 -53 8 -4 17 -26 20 -47 6 -35 9 -38 25 -29 11 5 19 15 19 21 0
6 14 40 30 75 17 35 32 77 34 92 2 16 6 34 10 42 4 8 0 5 -8 -5 -9 -11 -16
-26 -16 -33 0 -23 -64 -143 -75 -139 -19 5 -21 61 -4 106 34 89 43 110 51 110
11 0 10 -24 -1 -36 -18 -17 -61 -124 -51 -124 6 0 10 6 10 13 0 11 69 127 86
146 16 17 22 -68 8 -112 -4 -13 -2 -17 5 -12 8 4 10 -1 6 -17 -3 -12 -5 -36
-5 -53 1 -16 2 -58 3 -92 l1 -61 52 -7 c60 -7 217 17 271 43 20 9 48 28 62 41
15 13 43 35 64 49 20 13 37 29 37 33 0 5 5 9 11 9 5 0 7 -5 3 -11 -4 -7 -2
-10 6 -7 7 2 19 22 27 43 30 82 45 131 49 160 4 28 34 71 34 48 0 -6 12 -14
26 -17 26 -7 26 -7 8 -34 -36 -54 -63 -112 -53 -112 5 0 15 12 22 28 20 46 71
115 75 102 2 -6 -11 -27 -29 -46 -18 -19 -28 -34 -22 -34 6 0 16 7 23 15 7 9
15 13 18 11 2 -3 -15 -23 -39 -45 -24 -22 -41 -42 -37 -46 4 -4 26 11 49 34
24 23 47 41 52 41 4 0 14 15 22 33 27 61 125 147 125 109 0 -5 -31 -41 -70
-81 -65 -67 -84 -91 -60 -76 6 3 10 1 10 -6 0 -6 -8 -9 -20 -6 -20 5 -70 -26
-70 -44 0 -5 12 1 27 15 15 14 29 23 32 20 7 -7 -33 -45 -50 -47 -8 -2 -20 -6
-26 -10 -7 -5 -18 -5 -25 -1 -7 4 -8 3 -4 -4 4 -7 2 -12 -5 -12 -6 0 -9 8 -6
19 5 21 -18 37 -28 21 -4 -6 -2 -10 3 -10 5 0 7 -11 5 -24 -8 -40 28 -52 70
-23 34 23 57 25 201 19 l38 -2 -17 -26 c-20 -31 -13 -54 16 -54 18 0 20 2 9
15 -11 13 -8 21 19 49 l32 33 -33 -4 c-30 -4 -32 -3 -15 10 13 11 14 16 5 19
-8 3 -5 11 11 24 12 10 27 28 33 39 11 20 11 20 -11 1 -22 -20 -30 -9 -9 12 7
7 8 12 3 12 -6 0 -30 -20 -55 -45 -25 -24 -48 -44 -52 -45 -14 0 -8 25 10 41
9 8 31 31 47 50 17 19 40 41 51 49 31 23 98 100 91 106 -3 3 -20 -11 -39 -31
l-33 -37 -27 21 c-14 12 -33 21 -42 21 -9 0 -16 4 -16 8 0 5 -12 14 -26 21
-17 7 -24 17 -20 26 3 8 1 15 -5 15 -5 0 -14 -12 -19 -26 -17 -45 -50 -84 -71
-84 -10 0 -19 4 -19 10 0 5 -7 7 -15 4 -12 -5 -11 3 5 41 26 61 18 71 -11 13
-27 -54 -26 -53 -43 -38 -14 11 -14 16 -1 48 20 46 13 51 -14 10 l-21 -33 1
110 c1 112 -10 177 -42 253 -11 24 -15 41 -10 38 13 -8 43 -75 57 -126 l13
-45 0 50 c1 84 -55 181 -91 158 -6 -3 -8 -2 -5 4 3 5 -29 39 -72 76 -105 89
-163 108 -332 114 -69 2 -127 1 -130 -1z m312 -76 c20 -5 67 -36 105 -68 122
-102 164 -225 109 -319 -14 -23 -21 -43 -15 -43 5 0 18 18 27 41 12 31 18 38
24 26 13 -22 6 -147 -7 -147 -19 0 -24 -29 -7 -38 22 -13 13 -100 -15 -139
-18 -26 -32 -32 -91 -41 -38 -7 -90 -12 -114 -12 -31 0 -56 -8 -81 -25 -47
-32 -56 -31 -56 3 -1 15 -3 99 -5 187 -3 88 -7 258 -10 379 l-5 219 53 -6 c28
-3 68 -11 88 -17z"/>
<path d="M10567 5924 c-3 -3 -4 -11 -1 -18 7 -17 -38 -80 -61 -85 -10 -2 -24
5 -31 14 -11 15 -10 23 9 49 l22 31 -30 -19 c-46 -30 -76 -76 -40 -62 9 3 15
0 15 -8 0 -13 -29 -76 -34 -76 -5 0 2 48 9 62 3 7 -1 4 -9 -6 -9 -11 -16 -16
-16 -10 -1 5 -11 -3 -23 -18 -16 -20 -28 -26 -44 -22 l-23 6 22 30 c11 17 33
38 49 47 21 13 25 21 18 31 -10 16 -7 19 -76 -65 l-33 -39 -22 21 c-13 11 -38
28 -57 38 -33 17 -33 17 -19 -4 8 -11 34 -35 57 -52 37 -26 42 -35 38 -58 -5
-24 -2 -29 29 -40 37 -13 43 -25 18 -35 -9 -3 -14 -12 -11 -20 3 -7 0 -19 -6
-25 -8 -8 -6 -14 7 -24 16 -12 16 -14 -3 -31 -12 -11 -21 -28 -21 -38 0 -10
-8 -22 -17 -25 -42 -15 -132 -94 -133 -115 0 -4 26 10 58 32 31 21 68 42 82
45 34 9 89 55 73 62 -20 7 -15 31 6 38 11 3 30 3 43 0 27 -6 41 2 57 32 17 33
14 35 -14 8 -33 -34 -46 -31 -43 8 2 30 33 106 47 117 12 9 63 80 58 80 -3 0
10 23 29 51 19 28 34 62 34 75 0 25 -2 28 -13 18z"/>
<path d="M9551 3677 c-1 -66 -23 -183 -42 -219 -6 -11 -5 -18 1 -18 5 0 -2
-20 -15 -44 -14 -25 -25 -54 -25 -66 0 -12 -25 -46 -59 -81 -75 -76 -57 -93
25 -25 31 25 65 46 75 46 10 0 21 5 24 10 3 6 15 10 25 10 10 0 26 7 35 17 9
9 20 12 23 7 4 -5 23 -17 42 -26 19 -10 59 -31 89 -48 30 -16 65 -30 78 -30
33 0 21 16 -17 24 -17 3 -50 21 -73 40 -23 19 -51 35 -62 37 -13 3 -22 16 -28
42 -10 41 -22 48 -30 17 -3 -11 -10 -20 -16 -20 -6 0 -11 9 -11 20 0 22 -16
27 -23 8 -3 -7 -4 10 -1 37 12 157 12 215 -1 270 l-13 60 -1 -68z"/>
<path d="M9424 3453 c-21 -26 -52 -61 -69 -76 -50 -48 -338 -187 -387 -187 -9
0 -20 -4 -23 -10 -3 -6 5 -10 19 -10 14 0 28 5 31 10 3 6 15 10 26 10 11 0 39
10 62 21 80 41 172 72 216 73 36 1 45 5 52 24 5 13 29 50 54 82 38 50 72 110
61 110 -1 0 -20 -21 -42 -47z"/>
<path d="M12640 7221 c-95 -26 -203 -78 -194 -92 4 -8 3 -9 -4 -5 -7 4 -20 2
-29 -4 -16 -10 -16 -11 2 -5 24 8 19 2 -65 -60 -61 -46 -64 -43 -15 14 l20 25
-32 -20 c-17 -10 -44 -36 -60 -56 -102 -131 -124 -165 -162 -242 -50 -102 -76
-198 -91 -338 -14 -122 -7 -218 25 -336 13 -48 22 -90 20 -93 -2 -3 32 -75 77
-160 44 -85 104 -199 133 -254 59 -113 109 -206 170 -315 23 -41 67 -123 98
-182 l57 -106 -10 -74 c-13 -91 -27 -145 -41 -153 -7 -5 -6 -12 2 -21 9 -11 8
-33 -5 -96 -11 -56 -13 -85 -6 -92 5 -5 10 -21 11 -35 0 -25 1 -26 11 -4 9 19
18 21 92 21 44 0 107 3 139 7 55 5 58 5 48 -14 -8 -15 -7 -20 5 -25 23 -9 27
-7 21 8 -5 11 -1 11 24 -1 16 -8 26 -19 23 -25 -5 -7 4 -8 27 -4 19 4 50 7 69
7 34 -1 34 0 15 16 l-20 16 20 -7 c48 -17 74 -18 90 -2 19 18 45 21 45 5 0 -6
9 -8 22 -4 15 6 20 4 16 -6 -6 -16 73 -17 210 -4 42 4 98 7 125 6 27 -1 47 2
47 9 0 9 -79 16 -141 11 -27 -2 -85 17 -59 19 8 1 24 4 35 7 11 2 47 6 80 8
33 1 62 4 65 5 3 1 16 2 30 3 23 0 23 0 2 4 -12 2 -20 9 -16 14 4 6 -40 8
-123 3 -207 -10 -215 -8 -227 69 -4 23 -14 83 -21 132 -17 104 -23 141 -30
172 -4 16 18 67 66 160 117 224 194 383 283 578 94 208 103 229 111 255 4 14
11 30 15 35 16 21 69 213 80 292 37 253 -81 564 -287 753 -37 34 -81 68 -98
75 -110 48 -132 59 -146 71 -35 32 -122 46 -304 50 -153 3 -190 1 -245 -15z
m477 -61 c139 -40 269 -106 260 -133 -1 -5 -22 -16 -46 -23 -38 -11 -46 -10
-83 9 -23 12 -67 46 -100 75 -32 28 -62 52 -66 52 -11 -1 99 -99 147 -131 28
-18 39 -30 30 -33 -22 -8 -101 -31 -294 -86 -99 -28 -222 -69 -274 -91 -52
-22 -95 -38 -96 -37 -2 2 -25 30 -51 64 -80 99 -154 179 -154 165 0 -7 28 -45
63 -85 108 -124 136 -165 102 -152 -12 4 -13 2 -3 -14 10 -15 9 -22 -5 -38
-42 -46 -90 -168 -159 -402 -12 -40 -26 -56 -147 -153 -74 -59 -138 -104 -143
-99 -4 4 -9 21 -12 37 -2 17 -9 44 -17 60 -16 35 -22 312 -8 321 5 3 7 10 4
15 -4 5 -2 9 4 9 5 0 12 15 16 33 22 108 66 217 132 330 35 60 50 77 68 77 12
0 28 -7 35 -15 6 -8 58 -46 113 -85 74 -51 89 -59 57 -30 -25 22 -80 64 -122
93 -43 29 -77 55 -78 59 0 11 152 118 212 149 199 101 402 120 615 59z m347
-212 c20 -23 36 -49 36 -59 0 -9 7 -22 15 -29 8 -7 12 -16 9 -21 -3 -5 2 -6
12 -2 13 5 15 2 10 -15 -4 -11 -2 -23 3 -27 7 -4 8 1 4 11 -4 12 -3 15 6 10 7
-5 10 -14 7 -22 -7 -19 3 -44 19 -44 8 0 17 -4 20 -10 3 -5 0 -7 -9 -4 -22 8
-3 -64 22 -82 32 -22 45 -104 44 -274 -2 -237 -12 -271 -63 -209 -36 43 -129
230 -167 334 -50 135 -161 407 -173 421 -12 15 13 31 81 50 74 20 85 17 124
-28z m-244 -25 c0 -10 -7 -85 -15 -168 -8 -82 -15 -176 -15 -207 0 -32 -4 -58
-9 -58 -5 0 -17 17 -26 37 -10 21 -40 61 -67 89 -96 101 -223 131 -362 84
-118 -40 -175 -99 -215 -219 -61 -186 19 -402 175 -476 52 -25 66 -27 144 -23
73 3 96 9 149 37 l64 33 -24 -32 c-77 -104 -148 -217 -129 -205 5 3 33 41 61
83 29 42 80 111 114 152 33 41 71 89 82 105 27 39 53 128 53 182 0 24 5 43 10
43 9 0 126 -71 200 -120 14 -9 58 -38 98 -63 39 -26 72 -53 72 -60 0 -7 -98
-61 -217 -121 -120 -60 -288 -151 -374 -202 -86 -52 -161 -94 -167 -94 -6 0
-32 33 -58 73 -25 39 -75 104 -111 142 -107 115 -99 105 -78 105 16 0 13 7
-17 38 -38 40 -108 139 -108 153 0 5 8 6 18 2 15 -6 15 -4 -2 15 -11 12 -14
22 -8 22 6 0 11 20 11 48 1 83 8 115 41 212 37 110 60 158 87 182 29 26 112
60 288 118 88 29 187 62 220 75 86 32 89 33 103 34 6 1 12 -7 12 -16z m94
-196 c30 -73 73 -181 96 -242 22 -60 61 -147 86 -193 25 -46 44 -86 42 -88 -2
-1 -57 33 -122 76 -65 44 -141 92 -169 108 -29 15 -51 32 -50 38 10 62 24 217
29 328 8 164 7 164 88 -27z m-343 -97 c96 -49 161 -152 167 -263 4 -62 1 -75
-31 -140 -41 -83 -105 -139 -184 -163 -116 -35 -255 48 -298 176 -42 128 22
310 134 382 57 36 149 39 212 8z m-509 -488 c28 -42 54 -79 57 -82 4 -3 24
-30 45 -60 22 -30 65 -84 96 -120 55 -63 100 -123 100 -133 0 -9 -142 49 -285
115 -77 36 -185 85 -240 108 -55 23 -101 43 -102 44 -2 1 19 18 45 38 26 20
57 45 69 55 12 10 49 38 83 63 33 24 60 48 60 53 0 18 22 -8 72 -81z m1148
-68 c0 -5 -64 -153 -97 -224 -51 -112 -184 -371 -205 -402 -10 -14 -18 -30
-18 -34 0 -4 -9 -26 -19 -48 -11 -23 -50 -106 -88 -186 -68 -144 -112 -222
-133 -235 -5 -3 -10 -13 -10 -22 0 -8 -15 -36 -34 -62 -19 -25 -39 -65 -45
-88 -6 -23 -16 -45 -21 -48 -6 -4 -8 -10 -5 -15 3 -5 1 -11 -5 -15 -6 -4 -8
-11 -5 -16 4 -5 1 -9 -5 -9 -7 0 -10 -6 -7 -13 2 -6 -1 -17 -8 -24 -18 -16
-26 55 -16 130 4 31 5 60 2 63 -3 3 -7 65 -8 137 -1 114 1 136 18 163 10 17
19 38 19 45 -1 8 -8 2 -16 -13 -8 -16 -19 -28 -25 -28 -16 0 -8 92 11 120 9
14 22 40 29 58 8 17 16 32 20 32 4 0 15 14 24 30 10 17 13 30 7 30 -5 0 -19
-15 -29 -32 -11 -18 -26 -40 -34 -48 -9 -8 -19 -28 -23 -45 l-7 -29 -9 25 c-5
13 -8 54 -7 90 1 36 -1 71 -5 77 -3 6 -2 29 3 50 4 22 5 46 1 52 -4 7 -8 41
-8 77 0 58 2 65 26 80 15 9 50 31 77 48 48 31 163 96 288 163 31 17 57 29 57
25 0 -3 8 1 18 9 9 8 40 21 67 28 28 7 59 21 71 31 11 11 31 19 45 20 13 0 18
3 11 6 -15 6 30 33 54 33 8 0 14 4 14 8 0 5 7 9 15 9 8 0 15 -1 15 -3z m-1231
-193 c135 -60 260 -115 276 -121 17 -6 59 -24 95 -41 l65 -30 1 -62 c0 -34 8
-204 17 -377 10 -173 19 -373 21 -445 2 -71 7 -138 11 -147 12 -30 -9 -20 -33
17 -13 18 -21 39 -17 45 4 6 -5 29 -19 50 -14 22 -26 42 -26 46 0 3 -15 29
-33 57 -19 29 -46 72 -61 97 -36 59 -276 483 -276 488 0 2 -11 18 -24 35 -13
18 -58 102 -101 187 -43 85 -95 188 -117 228 -40 77 -42 82 -31 82 4 0 117
-49 252 -109z"/>
<path d="M11841 5630 c-18 -74 -45 -196 -61 -270 -37 -179 -33 -159 -86 -375
-25 -104 -48 -192 -51 -195 -2 -2 -8 2 -12 9 -12 19 -20 2 -23 -52 -2 -26 -6
-47 -9 -47 -4 0 -9 -16 -11 -35 -3 -25 0 -35 11 -37 13 -3 13 -5 -1 -18 -8 -8
-13 -21 -10 -28 2 -8 -3 -10 -15 -6 -14 5 -15 4 -4 -4 15 -10 10 -88 -8 -135
-5 -12 -21 -78 -36 -147 -15 -69 -30 -134 -35 -145 -8 -19 -9 -19 -9 2 -1 12
6 57 14 100 18 92 30 275 15 228 -5 -16 -12 -59 -16 -95 -5 -62 -16 -122 -34
-200 -5 -19 -15 -62 -23 -95 -24 -104 -59 -226 -63 -222 -3 2 9 62 26 133 16
71 32 140 35 154 3 14 15 67 25 117 21 97 26 178 11 169 -8 -5 -20 -65 -22
-108 0 -10 -4 -20 -10 -23 -5 -4 -9 0 -9 7 1 28 29 130 40 143 14 17 22 113 9
120 -5 4 -6 11 -2 17 3 7 7 25 8 42 1 25 12 82 30 156 1 3 5 20 9 38 4 18 11
30 16 27 5 -3 11 -1 15 5 3 5 0 10 -7 10 -11 0 -11 2 0 9 16 10 35 85 23 89
-10 3 11 144 40 267 37 157 87 458 79 479 -7 20 -7 20 -18 0 -6 -11 -27 -92
-47 -180 -48 -210 -54 -239 -70 -369 -8 -60 -30 -173 -49 -250 -19 -77 -46
-187 -60 -245 -14 -58 -30 -118 -36 -135 -9 -29 -37 -161 -45 -213 -3 -15 -13
-63 -24 -107 -32 -130 -68 -283 -91 -390 -12 -55 -33 -138 -46 -185 -13 -47
-40 -168 -60 -270 -28 -144 -34 -198 -30 -245 5 -47 2 -72 -13 -114 -11 -30
-18 -58 -15 -62 10 -17 24 -9 24 15 0 13 6 38 14 56 l13 33 8 -49 c4 -27 13
-61 21 -76 8 -15 14 -38 14 -51 0 -13 7 -32 15 -43 8 -10 15 -26 15 -35 0 -27
59 -45 120 -38 30 4 97 7 148 8 51 1 91 5 88 10 -3 4 39 8 94 8 55 0 100 -3
100 -8 0 -5 98 -6 224 -3 211 6 223 5 231 -12 6 -18 8 -17 16 4 7 20 13 22 49
16 27 -4 40 -3 40 5 0 6 -13 11 -30 11 -35 0 -34 -6 -14 80 l17 68 101 -5 c55
-2 107 -6 115 -9 31 -10 214 -16 305 -9 142 10 121 27 -28 22 -68 -2 -130 0
-138 4 -12 8 27 13 95 12 9 0 17 4 17 9 0 5 -54 6 -122 2 -148 -8 -142 -8
-245 -6 -80 2 -83 3 -83 25 0 13 2 26 5 29 3 3 38 -1 78 -9 54 -10 118 -13
255 -9 101 4 187 8 190 10 4 2 61 7 127 11 66 3 136 10 155 15 24 6 4 8 -65 4
-255 -12 -574 -15 -606 -6 -25 8 21 11 181 12 241 2 308 5 317 13 5 6 -266 10
-444 7 -45 -1 -73 3 -73 9 0 7 41 11 113 12 72 0 105 3 92 9 -24 10 -10 13 55
10 56 -3 54 -3 240 0 146 3 150 3 75 11 -113 11 -586 19 -580 9 3 -4 -2 -13
-10 -20 -8 -7 -12 -17 -8 -24 4 -6 -1 -5 -10 3 -10 8 -20 11 -24 7 -3 -3 -1
-6 5 -6 7 0 12 -4 12 -10 0 -5 -13 -8 -30 -7 -32 2 -38 17 -16 40 8 8 11 18 6
23 -5 5 -2 42 6 84 8 41 16 86 17 100 2 14 9 41 15 60 6 19 14 73 17 120 4 47
11 90 15 95 4 6 15 49 25 96 l18 86 46 -2 c25 -1 177 -3 337 -4 l292 -1 7 -55
c5 -41 11 -55 23 -55 14 0 13 -2 -2 -13 -15 -11 -16 -17 -7 -35 6 -11 11 -31
11 -44 0 -16 3 -19 9 -10 7 11 9 11 14 -2 3 -8 2 -18 -3 -21 -14 -9 -12 -45 3
-45 8 0 8 -3 -2 -9 -9 -6 -11 -16 -6 -27 7 -18 7 -18 14 0 4 10 7 -11 7 -45 0
-35 8 -100 17 -144 9 -44 19 -96 22 -116 3 -21 24 -59 51 -94 33 -44 42 -60
32 -67 -10 -6 -9 -11 6 -19 28 -17 126 -122 126 -136 0 -7 -10 -13 -22 -13
-13 0 -30 -5 -38 -10 -11 -8 -7 -10 20 -10 439 0 1084 -10 1089 -16 7 -8 17
-41 36 -111 4 -13 10 -23 15 -23 9 0 4 33 -10 65 -5 11 -11 43 -13 70 -3 28
-19 106 -36 175 -18 69 -33 137 -35 151 -2 14 -5 30 -8 35 -14 22 -41 130 -68
269 -16 83 -43 209 -60 280 -16 72 -37 161 -46 200 -9 38 -17 88 -18 112 0 24
-5 43 -10 43 -4 0 -6 11 -4 25 3 14 1 23 -6 22 -5 -1 -16 27 -23 63 -7 36 -19
95 -28 131 -8 37 -15 77 -14 90 0 23 1 23 9 4 12 -28 12 -14 -1 47 -10 43 -13
49 -21 33 -6 -14 -6 -8 -3 18 3 20 3 42 -1 49 -4 6 -8 27 -10 46 -2 18 -8 39
-13 46 -6 7 -12 37 -13 68 -2 31 -6 54 -10 52 -4 -2 -9 0 -13 6 -3 5 -2 10 3
10 6 0 8 9 5 20 -3 11 -9 20 -14 20 -5 0 -7 11 -3 25 4 16 2 25 -6 25 -7 0
-10 7 -7 15 4 8 2 17 -3 20 -5 3 -9 13 -8 23 0 17 -1 24 -20 97 -6 22 -13 63
-17 90 -8 57 -59 267 -81 336 -10 31 -24 50 -40 58 -23 10 -24 9 -22 -20 1
-17 6 -33 10 -35 5 -3 6 -9 3 -13 -2 -5 2 -32 11 -62 9 -29 17 -60 19 -70 2
-9 8 -33 13 -52 6 -20 8 -38 5 -40 -2 -3 2 -18 10 -34 8 -15 17 -46 21 -68 9
-63 24 -137 35 -175 13 -42 13 -40 1 -40 -5 0 -12 11 -16 25 -13 51 -16 15 -3
-39 8 -39 17 -56 28 -56 12 0 13 -2 4 -8 -10 -6 -10 -23 1 -78 32 -152 46
-209 55 -212 5 -2 7 -20 4 -40 -3 -25 -2 -33 5 -23 7 10 11 6 15 -15 3 -16 8
-40 12 -54 3 -14 8 -36 10 -50 3 -14 11 -50 20 -80 8 -30 20 -80 25 -110 14
-71 46 -218 76 -345 13 -55 46 -201 74 -325 92 -407 111 -484 135 -562 28 -86
29 -92 16 -83 -8 4 -536 7 -741 4 -36 -1 -104 -1 -151 0 l-86 1 -21 113 c-47
243 -62 334 -63 377 0 8 -5 35 -10 60 -5 25 -11 65 -14 90 -5 49 -18 118 -41
220 -8 36 -15 82 -16 103 -1 42 -12 54 -32 38 -10 -8 -53 -8 -152 -1 -77 5
-169 10 -206 10 -48 0 -68 4 -68 13 0 8 -4 7 -10 -3 -7 -10 -12 -12 -17 -4
-10 15 -182 10 -243 -6 -51 -13 -162 -30 -170 -25 -6 3 -30 -21 -31 -32 -1 -5
-3 -12 -5 -18 -2 -5 -15 -53 -30 -105 -15 -52 -37 -122 -50 -156 -12 -33 -41
-136 -64 -230 -52 -215 -51 -209 -40 -198 5 5 23 63 39 128 17 65 33 121 37
125 4 3 4 -6 0 -21 -3 -14 -8 -45 -11 -67 -3 -22 -10 -52 -15 -66 -6 -15 -10
-38 -10 -53 0 -15 -9 -50 -20 -79 -11 -28 -16 -53 -11 -55 4 -2 1 -40 -8 -85
l-15 -83 -65 0 c-88 0 -243 19 -258 32 -9 7 -13 7 -13 -2 0 -8 -4 -9 -12 -3
-8 6 -135 9 -310 7 -198 -1 -298 2 -298 9 0 5 15 71 34 146 19 75 48 197 65
271 17 74 35 149 41 165 5 17 12 46 14 65 7 43 24 120 33 140 3 8 7 20 8 25 0
6 4 21 8 35 3 14 9 52 11 85 3 33 15 105 26 160 20 102 27 132 55 245 9 35 17
80 19 100 1 19 7 35 14 35 7 0 12 5 13 10 1 6 6 19 12 30 5 11 12 29 14 40 13
79 13 99 1 106 -10 7 -9 9 3 9 18 0 43 87 27 96 -5 3 -5 11 1 18 6 7 8 16 4
19 -3 4 -1 7 6 7 8 0 11 7 7 15 -3 8 -2 15 3 15 4 0 7 16 5 35 -1 20 2 35 8
35 6 0 8 3 5 7 -4 3 -2 12 4 20 9 10 8 13 -1 13 -10 0 -10 3 0 15 7 8 10 22 6
30 -3 9 0 15 9 15 10 0 14 9 11 30 -2 17 1 30 7 30 6 0 8 3 5 6 -4 3 -2 20 4
37 8 26 30 128 42 197 1 8 5 22 9 30 3 8 13 49 22 90 8 41 24 113 35 160 11
47 23 103 26 125 3 22 9 54 13 70 4 17 5 50 2 75 -6 43 -8 40 -40 -90z"/>
<path d="M6328 3112 c-22 -4 -141 -149 -144 -176 -1 -11 -3 -24 -3 -28 -1 -5
-10 -8 -22 -8 -11 0 -17 -4 -14 -10 3 -5 23 -10 43 -10 l37 -1 -34 -15 c-44
-19 -34 -28 24 -20 43 7 58 20 33 29 -7 2 4 7 25 11 20 4 37 12 37 19 0 7 17
13 40 15 22 1 40 -2 40 -8 0 -5 6 -10 13 -10 8 0 14 7 14 15 0 11 -12 15 -41
15 -23 0 -47 4 -55 9 -7 5 -27 4 -46 -2 -18 -5 -42 -7 -52 -3 -43 17 24 26
246 32 242 7 295 23 86 25 -94 1 -110 3 -75 10 25 4 80 8 123 8 118 1 85 21
-36 22 -83 1 -95 3 -67 10 19 5 61 10 93 10 33 0 55 4 52 10 -4 5 -71 9 -152
9 -81 0 -143 3 -140 7 7 7 15 7 151 17 43 3 81 8 84 11 3 3 -30 6 -74 7 -43 1
-99 2 -124 3 -25 1 -52 -1 -62 -3z"/>
<path d="M15938 2881 c-44 -10 -20 -29 52 -40 88 -15 540 -15 540 0 0 5 -4 7
-10 4 -5 -3 -15 -3 -21 1 -8 5 -7 9 1 14 13 8 0 7 -123 -5 -45 -4 -61 -2 -74
10 -8 9 -18 13 -21 10 -4 -3 0 -10 8 -15 11 -7 7 -10 -17 -10 -17 0 -34 6 -36
13 -4 10 -6 10 -6 0 -1 -18 -42 -16 -77 2 -17 9 -30 11 -32 5 -2 -6 -8 -10
-14 -10 -6 0 -8 7 -4 15 4 13 -6 15 -67 14 -40 -1 -84 -4 -99 -8z"/>
<path d="M12513 2869 c-13 -4 -63 -9 -113 -11 -49 -2 -90 -5 -90 -8 0 -3 21
-12 46 -19 37 -11 94 -12 278 -6 307 10 301 9 303 20 2 6 -48 9 -131 7 -124
-4 -135 -3 -139 15 -4 17 -5 17 -6 0 -1 -13 -6 -17 -18 -13 -10 3 -35 7 -55
10 -21 2 -41 6 -45 9 -4 3 -18 1 -30 -4z"/>
</g>
</svg>
