<?xml version="1.0" standalone="no"?>
<!DOCTYPE svg PUBLIC "-//W3C//DTD SVG 20010904//EN"
 "http://www.w3.org/TR/2001/REC-SVG-20010904/DTD/svg10.dtd">
<svg version="1.0" xmlns="http://www.w3.org/2000/svg"
 width="1928.000000pt" height="1074.000000pt" viewBox="0 0 1928.000000 1074.000000"
 preserveAspectRatio="xMidYMid meet">
<metadata>
Created by potrace 1.16, written by Peter Selinger 2001-2019
</metadata>
<g transform="translate(0.000000,1074.000000) scale(0.100000,-0.100000)"
fill="#000000" stroke="none">
<path d="M14550 8025 c0 -4 11 -23 25 -41 33 -43 32 -52 -7 -57 -31 -4 -31 -4
6 -5 36 -2 38 -3 33 -29 -9 -48 -18 -1060 -20 -2213 -1 -608 -5 -1110 -10
-1117 -4 -6 -3 -14 2 -17 6 -4 8 -246 3 -466 0 -8 2 -116 4 -240 10 -569 9
-690 -3 -690 -20 0 -16 -9 18 -43 28 -27 29 -32 15 -42 -9 -7 -28 -10 -44 -7
-15 2 -24 2 -21 -2 3 -3 19 -7 35 -8 37 -2 49 -9 34 -18 -8 -5 -1 -14 22 -28
46 -30 101 -89 93 -101 -4 -7 4 -11 19 -11 21 0 30 -12 60 -71 29 -58 36 -83
36 -130 0 -33 4 -59 9 -59 5 0 9 20 9 45 0 24 5 59 11 77 l11 33 107 -3 c131
-3 173 -9 174 -25 0 -7 4 -3 9 8 5 11 9 14 9 8 1 -15 286 -9 410 8 40 6 99 10
130 9 135 -5 286 1 271 10 -8 5 -42 9 -75 8 -50 -1 -61 3 -73 21 -17 24 -32
28 -32 6 0 -8 -9 -15 -20 -15 -11 0 -20 5 -20 10 0 6 5 10 10 10 6 0 10 32 10
75 l0 75 28 0 c15 0 90 -7 167 -15 77 -8 153 -15 169 -15 50 0 21 11 -41 16
-32 3 -83 10 -113 16 -30 6 -89 12 -130 12 -71 1 -75 2 -78 24 -3 21 -1 23 30
17 18 -3 63 -7 100 -8 38 -1 68 -5 68 -9 0 -5 -6 -8 -12 -9 -7 0 -1 -4 13 -9
15 -4 112 -8 215 -9 104 -1 207 -6 229 -11 22 -5 41 -7 43 -6 6 7 -72 66 -88
67 -8 0 -26 2 -40 4 -14 2 -126 6 -250 9 -124 4 -244 9 -267 12 l-42 5 0 537
c0 295 -4 664 -7 820 -4 155 -4 282 -1 282 3 0 18 -37 33 -82 15 -46 49 -132
76 -193 26 -60 48 -116 48 -125 0 -8 12 -40 26 -70 14 -30 52 -129 85 -220
109 -300 152 -415 166 -443 7 -15 15 -45 18 -67 2 -21 17 -67 33 -102 38 -80
105 -259 99 -265 -3 -2 -23 15 -46 39 -22 24 -41 38 -41 32 0 -5 13 -23 30
-39 19 -18 26 -32 21 -39 -6 -7 1 -12 22 -13 18 -1 37 -10 42 -19 6 -9 22 -31
37 -49 15 -18 24 -36 20 -40 -4 -5 -1 -5 6 -1 8 5 29 -7 55 -31 23 -21 75 -67
115 -103 39 -36 72 -68 72 -72 0 -5 -27 -8 -60 -8 -33 0 -60 -4 -60 -10 0 -12
5 -13 90 -14 l64 -1 37 -76 c21 -43 43 -80 49 -84 11 -7 0 24 -35 97 -35 72 7
64 61 -12 20 -27 40 -50 46 -50 5 0 -1 14 -14 31 -59 79 -74 71 128 63 98 -4
212 -7 252 -7 l72 0 0 -58 c0 -79 18 -76 22 4 l3 62 37 -3 c23 -2 43 2 52 11
9 9 40 15 85 16 l71 2 1 -68 c1 -37 1 -75 0 -85 -1 -9 3 -19 9 -23 7 -4 10 24
10 84 l0 91 38 2 c20 1 51 1 69 -1 17 -1 34 3 38 9 4 6 -7 10 -27 10 -18 0
-50 3 -72 7 l-38 6 7 70 c12 126 11 862 -1 860 -13 -2 -23 101 -19 191 2 34 4
144 6 246 1 102 5 192 10 201 4 8 10 47 14 85 9 113 12 737 3 899 -5 83 -10
614 -12 1180 -2 567 -5 1037 -7 1045 -3 11 4 14 29 12 40 -4 42 13 2 22 -17 3
-30 12 -30 20 0 8 -10 18 -21 21 -20 7 -67 46 -189 160 -25 23 -67 57 -94 76
-26 19 -57 40 -67 48 -17 12 -19 11 -19 -3 0 -21 111 -134 170 -174 25 -16 65
-50 90 -75 24 -25 47 -42 50 -36 4 5 15 0 26 -12 11 -13 13 -19 4 -14 -8 5
-33 10 -55 11 -22 1 -101 5 -175 9 -74 3 -266 1 -427 -5 l-291 -11 -131 132
c-72 73 -131 133 -131 134 0 1 174 -1 387 -3 292 -3 397 -1 425 9 21 7 38 16
38 20 0 4 -37 9 -82 12 -100 7 -633 -2 -737 -11 l-74 -7 -2 -50 c-2 -27 -6
-106 -11 -175 -10 -134 -10 -151 -3 -818 3 -362 2 -441 -9 -437 -10 4 -12 -8
-9 -51 6 -71 -3 -57 -44 66 -18 52 -44 120 -59 150 -25 52 -43 98 -120 315
-18 50 -60 158 -94 240 -102 245 -108 258 -123 299 -8 22 -25 63 -39 91 -30
64 -30 68 -2 59 20 -6 21 -5 9 10 -7 9 -21 16 -30 16 -9 0 -32 21 -51 46 -19
25 -48 61 -63 79 -16 19 -26 39 -22 45 3 5 1 10 -6 10 -13 0 -88 80 -89 96 0
5 -14 23 -31 40 l-31 29 8 -30 c4 -16 23 -55 43 -86 46 -73 172 -219 189 -219
6 0 12 -4 12 -8 0 -11 -708 -3 -743 8 -17 6 -26 6 -22 0 4 -6 -19 -10 -57 -10
l-64 0 -36 48 c-20 26 -47 65 -60 88 -12 23 -40 60 -60 84 -21 23 -36 45 -34
49 3 3 58 3 123 -1 220 -13 712 -14 702 -2 -13 16 -153 23 -553 30 l-328 5
-35 42 c-45 53 -43 52 -43 42z m2062 -451 c2 -46 -12 -247 -18 -253 -15 -16
-25 33 -35 164 -8 104 -15 155 -25 165 -13 13 -14 7 -8 -45 4 -33 11 -66 17
-72 6 -9 6 -13 -2 -13 -14 0 -15 -77 -1 -82 6 -2 11 -28 13 -58 2 -47 -1 -55
-15 -54 -11 1 -18 -5 -18 -17 0 -11 6 -18 13 -17 9 2 12 -20 12 -84 0 -114 19
-121 23 -8 1 47 5 92 8 100 15 41 24 -31 24 -197 0 -156 -2 -183 -15 -183 -8
0 -15 -4 -15 -10 0 -5 7 -10 15 -10 14 0 16 -24 15 -177 -1 -98 -4 -188 -7
-200 -10 -44 -23 -22 -23 40 0 34 -4 69 -10 77 -6 9 -9 -9 -9 -54 0 -38 -5
-74 -10 -79 -8 -8 -11 0 -11 25 0 23 -6 38 -15 42 -8 3 -15 18 -15 34 0 15 -7
37 -15 48 -14 17 -15 14 -10 -39 3 -32 8 -63 11 -69 4 -6 1 -9 -7 -6 -8 3 -15
14 -17 26 -2 12 -7 20 -12 17 -5 -3 -7 13 -6 35 2 22 -1 40 -5 40 -5 0 -9 5
-9 11 0 5 5 7 10 4 12 -7 2 77 -10 85 -4 3 -6 38 -6 77 1 45 -3 72 -9 70 -6
-2 -10 -47 -9 -111 0 -64 -3 -103 -8 -98 -13 13 -25 208 -19 287 5 63 -8 805
-14 815 -3 5 -3 19 0 30 6 18 23 4 126 -98 109 -108 119 -122 121 -158z
m-1752 24 c0 -10 -5 -18 -11 -18 -5 0 -7 -4 -4 -10 6 -10 6 -42 0 -1805 -6
-1744 -6 -1756 -12 -1818 -4 -43 -9 -57 -19 -53 -18 7 -17 -4 1 -28 18 -24 20
-50 3 -40 -10 6 -10 5 -1 -7 13 -16 12 -30 -5 -69 -10 -24 -11 -23 -13 15 -1
22 -2 47 -1 57 1 9 -5 21 -13 28 -12 10 -14 1 -10 -71 3 -46 1 -115 -3 -152
-5 -38 -5 -70 0 -73 5 -3 6 -13 4 -22 -6 -19 -7 -92 -3 -205 2 -43 0 -80 -5
-83 -4 -3 -8 10 -9 28 0 47 -8 195 -17 321 -4 59 -4 114 1 123 5 9 4 20 -3 29
-8 9 -8 15 0 20 6 3 8 11 4 16 -3 5 -9 7 -13 5 -4 -3 -8 12 -9 34 -1 21 3 42
8 45 14 9 12 45 -2 46 -10 0 -10 2 0 6 14 6 16 33 2 33 -5 0 -10 14 -10 30 0
17 -4 30 -8 30 -9 0 -8 -166 1 -405 4 -84 3 -124 -2 -100 -5 22 -12 94 -15
160 -4 66 -9 156 -13 200 -7 85 -7 97 -4 270 1 61 1 115 0 120 -1 6 -1 14 0
19 1 4 -4 14 -10 22 -8 10 -8 14 0 14 6 0 11 7 11 16 0 14 2 15 18 3 16 -13
16 -13 0 7 -20 23 -23 44 -7 44 6 0 8 9 4 20 -4 14 -2 19 7 17 7 -2 10 -2 6 0
-5 3 -8 11 -8 19 0 8 -4 14 -10 14 -5 0 -10 9 -10 19 0 11 -5 23 -11 27 -8 5
-8 8 0 14 8 4 5 15 -9 33 -12 15 -17 27 -12 27 6 0 12 -5 14 -12 2 -6 9 -9 15
-5 11 7 10 92 -2 149 -7 31 -7 32 11 18 17 -14 18 -13 7 1 -7 9 -9 20 -5 24 4
5 1 5 -6 1 -12 -7 -12 18 2 102 5 29 3 32 -10 22 -8 -7 -17 -10 -21 -6 -3 3
-1 6 6 6 7 0 9 5 6 10 -4 6 -11 7 -17 4 -7 -4 -8 -2 -4 5 4 7 17 9 29 6 20 -5
19 -3 -5 19 -21 19 -28 34 -28 62 0 44 11 40 12 -5 1 -19 6 -31 14 -31 10 0
11 6 4 26 -6 14 -10 44 -10 67 0 31 -3 38 -10 27 -12 -19 -12 -24 -14 103 -2
85 0 107 11 103 7 -3 13 1 13 9 0 9 -6 12 -16 8 -14 -5 -15 3 -12 61 1 36 1
66 -2 66 -8 0 -4 1337 3 1375 3 17 6 51 7 78 0 26 1 71 2 100 5 144 2 606 -4
710 -5 73 -4 117 2 117 6 0 31 -28 56 -62 25 -35 49 -65 54 -68 28 -19 35 -62
37 -235 2 -231 2 -225 11 -225 4 0 8 90 8 199 -1 109 2 197 7 194 24 -14 -4
27 -85 128 l-92 114 112 -110 c62 -60 112 -118 112 -127z m343 12 c8 -7 -72
-15 -215 -23 -20 -2 -41 -6 -45 -11 -9 -9 155 -3 332 13 104 9 428 25 469 23
10 -1 22 -5 26 -9 9 -10 30 -96 25 -101 -2 -2 -18 16 -36 42 -44 62 -50 49 -9
-16 59 -93 107 -190 165 -333 32 -77 60 -144 64 -150 4 -5 20 -44 35 -85 16
-41 46 -120 69 -175 22 -55 48 -125 59 -155 18 -51 36 -97 59 -145 5 -11 36
-101 68 -200 32 -99 77 -227 100 -284 23 -58 41 -112 41 -121 0 -9 4 -20 9
-26 4 -5 14 -31 21 -59 7 -27 24 -77 38 -110 35 -83 100 -230 129 -291 27 -57
78 -122 88 -113 3 4 -6 42 -21 85 -26 78 -27 80 -31 419 -2 187 -6 346 -8 353
-2 6 0 12 5 12 6 0 6 9 1 23 -5 12 -7 42 -5 67 11 136 15 286 18 775 3 297 5
550 5 563 1 22 1 22 164 20 89 -2 235 1 323 6 l161 8 7 -43 c6 -45 11 -1228 9
-2299 -2 -1520 -2 -2034 2 -2040 2 -3 7 -102 10 -220 l5 -213 -37 6 c-21 4
-147 7 -279 8 -133 1 -246 4 -251 8 -6 3 -12 16 -15 29 -5 18 -2 22 17 22 15
0 26 -8 30 -20 8 -26 25 -26 18 -1 -3 11 -18 25 -34 31 -16 7 -29 16 -29 21 0
5 -7 9 -15 9 -8 0 -17 12 -20 28 -4 15 -11 35 -16 45 -5 10 -7 23 -3 29 4 6 3
8 -3 5 -10 -6 -21 14 -29 53 -3 15 -63 183 -83 233 -6 16 -11 34 -11 42 0 8
-4 17 -10 20 -15 9 -53 99 -90 210 -18 55 -38 114 -45 130 -7 17 -20 53 -30
80 -9 28 -20 59 -25 70 -5 11 -22 56 -40 100 -37 96 -72 169 -82 173 -15 7 -8
21 7 16 12 -5 11 3 -6 42 -30 70 -42 98 -44 104 -1 3 -8 19 -15 35 -7 17 -15
39 -16 50 -2 11 -19 56 -39 100 -52 116 -51 112 -85 210 -18 50 -38 99 -44
110 -7 11 -18 40 -25 65 -7 25 -28 83 -46 130 -97 245 -125 325 -121 337 3 7
1 13 -5 13 -6 0 -8 4 -5 8 3 5 1 22 -4 38 -4 16 -9 21 -9 12 -1 -10 -5 -18 -9
-18 -13 0 -32 23 -32 39 0 9 -11 21 -25 28 l-25 11 22 -39 c12 -21 25 -39 30
-39 4 0 8 -7 8 -16 0 -14 -3 -14 -15 -4 -23 19 -29 5 -10 -24 14 -22 16 -42
11 -128 -3 -57 -6 -140 -5 -186 4 -757 -4 -2012 -14 -2029 -4 -6 -3 -22 2 -35
5 -13 10 -47 12 -77 l4 -53 -175 0 c-96 1 -290 1 -431 1 l-257 1 -6 43 c-6 38
-8 683 -6 1970 0 336 4 497 11 497 6 0 8 4 5 8 -9 15 -19 1848 -11 2033 7 167
8 178 29 188 13 7 14 10 3 6 -19 -5 -33 16 -24 39 5 11 33 13 154 9 81 -3 152
-9 156 -13z m2311 -1195 c-2 -16 -5 -55 -8 -85 -3 -30 -11 -59 -19 -65 -7 -5
-16 -17 -20 -25 -3 -9 -6 -4 -6 12 -1 20 -7 29 -25 34 -29 7 -36 28 -36 112 0
47 4 64 15 69 26 9 29 -3 26 -92 -2 -72 0 -85 13 -85 13 0 16 14 16 82 0 64 4
85 18 98 16 16 17 16 23 -4 3 -12 4 -34 3 -51z m6 -260 c0 -10 -6 -12 -17 -8
-17 7 -17 6 -1 -20 14 -20 16 -32 8 -51 -5 -14 -6 -44 -3 -68 6 -43 8 -86 5
-145 -2 -26 -6 -33 -22 -33 -28 0 -32 28 -26 186 4 114 8 141 22 151 19 14 34
9 34 -12z m95 -610 c11 -197 12 -325 3 -325 -4 0 -8 33 -8 73 0 119 -12 231
-22 213 -5 -9 -18 -16 -28 -16 -18 0 -20 7 -20 91 l0 91 25 -6 c14 -4 25 -3
25 1 0 12 -16 35 -24 34 -20 -3 -26 0 -21 9 4 6 15 8 26 5 17 -6 19 -1 20 57
l2 63 7 -80 c4 -44 11 -138 15 -210z m-120 239 c19 7 26 -44 10 -70 -8 -12
-10 -26 -5 -35 5 -8 11 -85 13 -171 5 -153 4 -157 -16 -160 -17 -2 -21 -11
-22 -40 0 -23 4 -38 11 -38 17 0 17 -252 1 -262 -8 -5 -6 -8 6 -8 14 0 17 -10
17 -61 0 -47 4 -65 18 -75 15 -12 13 -13 -15 -10 -18 2 -33 -1 -33 -5 0 -5 7
-9 15 -9 11 0 14 -17 14 -86 0 -67 4 -94 20 -125 16 -29 19 -45 11 -57 -5 -9
-10 -12 -10 -7 -3 27 -9 47 -16 53 -4 4 -5 0 -1 -9 4 -12 -1 -18 -19 -22 -18
-3 -22 -1 -15 6 17 17 13 31 -4 17 -13 -10 -15 -9 -15 8 0 16 5 20 18 16 14
-5 15 -4 2 5 -21 14 -23 274 -2 266 8 -3 12 0 9 7 -2 7 -12 12 -22 10 -10 -2
-14 1 -10 7 3 6 13 11 21 11 17 0 19 47 2 52 -7 3 -12 47 -14 134 -4 183 -3
171 -14 154 -5 -8 -13 -11 -17 -6 -4 4 0 13 10 20 9 7 17 19 17 26 0 8 6 21
14 29 17 21 29 98 16 106 -5 3 -10 -1 -10 -9 0 -9 -5 -16 -11 -16 -6 0 -9 7
-5 15 3 8 1 15 -5 15 -6 0 -6 7 1 19 12 24 16 211 4 220 -9 6 -12 16 -20 56
-4 18 -4 18 4 2 4 -10 12 -18 17 -18 6 0 9 -8 7 -17 -2 -12 1 -11 13 6 17 23
12 47 -7 36 -7 -4 -8 -2 -4 4 4 7 3 12 -3 12 -6 0 -7 8 -3 18 6 16 7 16 10 -1
2 -10 10 -16 17 -13z m54 -1582 c-1 -16 -2 -16 -6 1 -2 9 -9 17 -15 17 -6 0
-8 -34 -4 -97 3 -54 5 -101 6 -106 0 -4 11 -5 25 -1 l25 6 0 -81 c0 -83 -6
-93 -40 -71 -11 7 -14 24 -13 65 2 43 0 55 -12 55 -12 0 -15 -15 -15 -75 0
-68 10 -95 23 -62 3 7 6 5 6 -5 1 -10 5 -18 10 -18 5 0 16 -11 25 -25 14 -22
15 -25 1 -25 -8 0 -15 9 -15 19 0 25 -26 34 -44 16 -12 -13 -16 -12 -26 0 -10
12 -10 15 1 15 11 0 11 2 2 8 -19 12 -14 312 4 312 15 0 16 9 4 29 -6 9 -4 23
6 37 12 19 19 22 34 13 10 -5 18 -17 18 -27z m-1374 -33 c-3 -9 1 -19 9 -22
15 -6 58 -93 70 -142 4 -16 25 -67 47 -113 22 -45 37 -87 34 -92 -3 -6 -1 -10
5 -10 7 0 9 -8 5 -21 -5 -15 -4 -19 4 -15 6 4 11 1 11 -7 0 -8 14 -41 30 -75
19 -37 29 -70 26 -85 -2 -14 2 -35 11 -46 8 -12 13 -29 11 -39 -2 -11 -11 -2
-25 28 -48 101 -81 179 -107 250 -16 41 -45 116 -66 166 -21 50 -42 108 -45
128 -4 20 -11 36 -16 36 -5 0 -9 8 -9 18 0 10 -4 22 -9 28 -5 5 -12 19 -16 32
-6 22 -5 22 14 10 13 -8 19 -19 16 -29z m-1524 -296 c1 -21 1 -54 0 -73 0 -19
-1 -147 -1 -285 0 -232 2 -282 16 -375 6 -34 6 -35 -14 -16 -12 10 -21 25 -21
34 0 10 -2 168 -4 353 -2 184 -2 350 1 367 6 44 22 40 23 -5z m2936 -268 c-2
-47 -7 -88 -11 -92 -3 -3 -6 -17 -6 -30 0 -17 -6 -23 -21 -23 -19 0 -20 5 -18
80 1 44 -1 84 -5 87 -15 15 -24 -23 -25 -99 -1 -80 -14 -124 -33 -112 -5 4 -6
9 -2 13 5 3 11 13 13 21 7 25 7 123 1 160 -12 70 5 88 42 45 16 -19 25 -22 39
-14 11 5 19 19 19 29 0 11 2 20 5 20 3 0 3 -38 2 -85z"/>
<path d="M16752 7321 c-10 -6 -14 -37 -14 -112 l-1 -104 56 0 c81 1 86 9 78
125 l-6 94 -50 3 c-27 2 -56 -1 -63 -6z"/>
<path d="M16943 7324 c-9 -4 -13 -36 -13 -110 0 -102 0 -104 25 -110 31 -8 92
3 101 18 8 12 7 188 0 196 -8 7 -99 12 -113 6z"/>
<path d="M17135 7318 c-9 -33 -12 -69 -4 -74 5 -3 9 -12 9 -20 0 -8 -4 -12
-10 -9 -6 4 -10 -5 -10 -19 0 -14 5 -26 11 -26 8 0 7 -5 -2 -16 -22 -27 15
-47 75 -40 27 3 50 7 52 9 2 2 1 49 -3 105 l-6 102 -54 0 c-34 0 -55 -5 -58
-12z"/>
<path d="M16752 6922 c-9 -6 -12 -37 -10 -118 3 -106 4 -109 27 -112 13 -2 39
-1 58 3 l34 6 -3 112 -3 112 -45 3 c-25 1 -51 -2 -58 -6z"/>
<path d="M17136 6922 c-2 -4 -6 -54 -7 -112 l-3 -104 34 -7 c20 -4 46 -2 63 4
l28 12 1 99 c1 74 -3 100 -13 107 -17 11 -96 12 -103 1z"/>
<path d="M17143 6503 c-9 -3 -13 -35 -13 -108 0 -98 1 -103 23 -109 32 -8 44
-7 28 3 -10 6 -14 35 -16 100 l-3 91 35 0 35 0 -7 -95 c-6 -80 -5 -95 8 -95
17 0 27 49 27 141 0 61 -2 67 -22 73 -27 7 -78 7 -95 -1z"/>
<path d="M16740 6385 l0 -115 43 0 c89 0 88 -1 85 119 l-3 106 -62 3 -63 3 0
-116z"/>
<path d="M16763 5700 c-20 -8 -21 -15 -20 -117 l2 -108 60 0 60 0 3 111 3 111
-32 7 c-39 7 -48 7 -76 -4z"/>
<path d="M16958 5703 l-28 -4 0 -109 0 -109 44 -6 c78 -12 86 -1 86 120 0 93
-2 105 -17 105 -10 0 -27 2 -38 4 -11 2 -32 1 -47 -1z m82 -118 l0 -95 -45 0
-45 0 0 88 c0 49 3 92 7 95 3 4 24 7 45 7 l38 0 0 -95z"/>
<path d="M17149 5703 c-13 -3 -18 -24 -24 -105 -6 -91 -5 -103 11 -115 19 -14
82 -17 101 -5 7 4 12 46 14 111 3 96 1 105 -17 112 -21 8 -59 9 -85 2z"/>
<path d="M16746 5267 c-17 -12 -18 -23 -11 -115 4 -56 12 -105 17 -108 5 -3
34 -3 63 1 l54 6 0 109 c1 77 -3 109 -12 112 -30 11 -94 8 -111 -5z m99 -112
l0 -90 -49 -3 -49 -3 5 86 c5 95 12 107 63 103 l30 -3 0 -90z"/>
<path d="M16937 5274 c-4 -4 -7 -56 -7 -115 0 -123 3 -127 86 -114 l45 6 -3
112 -3 112 -55 3 c-31 2 -59 0 -63 -4z m95 -26 c3 -7 5 -51 4 -98 l-1 -85 -37
-3 -38 -3 0 85 c0 47 0 89 -1 94 0 7 32 19 57 21 7 1 14 -5 16 -11z"/>
<path d="M17153 5270 c-22 -9 -23 -15 -23 -114 0 -118 1 -120 75 -109 l45 6 0
107 0 108 -31 6 c-38 7 -38 7 -66 -4z"/>
<path d="M16740 4741 c0 -120 1 -120 72 -121 56 0 58 3 58 121 l0 109 -65 0
-65 0 0 -109z m108 -8 l3 -93 -46 0 -45 0 0 96 0 95 43 -3 42 -3 3 -92z"/>
<path d="M16939 4823 c-10 -28 -6 -179 5 -191 11 -10 73 -12 97 -3 23 8 24 13
24 112 l0 104 -58 3 c-55 3 -58 2 -68 -25z"/>
<path d="M17136 4828 c-3 -13 -6 -63 -6 -111 l0 -88 58 3 57 3 7 95 c5 52 6
101 3 108 -3 7 -24 12 -59 12 -47 0 -54 -3 -60 -22z"/>
<path d="M16571 4441 c-11 -7 -14 -35 -14 -113 l0 -103 46 1 c68 0 72 8 72
120 l0 99 -45 3 c-25 1 -51 -2 -59 -7z"/>
<path d="M16758 4433 c-3 -10 -4 -61 -4 -113 l1 -95 39 -3 c82 -7 85 -3 83 96
-1 48 2 97 6 110 8 21 6 22 -56 22 -53 0 -65 -3 -69 -17z"/>
<path d="M16947 4443 c-3 -5 -7 -56 -8 -113 -2 -101 -1 -104 22 -112 15 -6 40
-5 67 3 l43 12 -3 105 -3 106 -56 4 c-32 2 -59 0 -62 -5z m91 -116 l3 -98 -38
3 -38 3 -3 89 c-3 96 2 106 47 103 26 -2 26 -3 29 -100z"/>
<path d="M17148 4341 c-2 -58 0 -110 4 -115 6 -9 77 0 93 12 6 4 9 50 7 108
l-3 100 -49 0 -49 0 -3 -105z"/>
<path d="M16570 3916 l0 -117 56 3 c31 2 58 7 61 11 8 13 -19 181 -31 194 -6
6 -28 15 -48 18 l-38 7 0 -116z"/>
<path d="M16982 4022 c-33 -5 -40 -28 -38 -127 l1 -90 51 -3 c33 -2 54 2 61
10 7 8 8 48 4 107 -6 90 -7 95 -31 101 -14 3 -35 4 -48 2z"/>
<path d="M17000 3640 l-45 -5 -7 -95 c-4 -52 -4 -98 0 -101 14 -13 80 -20 87
-9 4 6 14 8 23 6 15 -5 17 5 14 93 -2 62 -8 103 -15 108 -7 5 -32 6 -57 3z"/>
<path d="M16759 3626 c-5 -6 -9 -50 -9 -98 l0 -89 32 -13 c27 -12 37 -12 65 2
33 16 34 18 29 62 -3 25 -1 62 3 82 5 20 5 42 1 49 -10 15 -106 19 -121 5z"/>
<path d="M17146 3632 c-2 -4 -6 -48 -7 -97 l-2 -90 32 -3 c18 -2 40 0 49 4 10
4 20 6 25 6 4 -1 7 41 7 93 l0 95 -49 0 c-28 0 -52 -4 -55 -8z"/>
<path d="M4770 7971 l0 -28 -282 1 c-428 1 -645 -4 -628 -13 31 -17 681 -33
786 -19 55 7 91 -5 64 -21 -8 -5 -24 -16 -35 -25 -11 -9 -47 -37 -80 -62 -33
-25 -82 -64 -109 -87 -28 -23 -52 -41 -55 -40 -4 0 -17 -14 -31 -32 l-25 -33
-225 5 c-264 7 -327 22 -100 24 217 2 281 6 293 18 7 7 -16 9 -69 6 -43 -3
-154 -5 -246 -5 -95 -1 -170 -5 -173 -11 -4 -5 -11 -6 -17 -3 -6 4 -14 0 -19
-7 -6 -11 -11 -11 -21 -1 -20 20 -216 13 -203 -8 5 -8 -84 -25 -91 -17 -2 2
16 17 40 33 117 77 315 215 326 229 27 32 -2 26 -67 -14 -37 -23 -143 -93
-234 -154 -92 -62 -175 -117 -185 -124 -17 -10 -16 -11 11 -10 l30 2 6 -70 c4
-38 7 -242 7 -452 0 -210 3 -386 5 -390 3 -5 6 -96 8 -203 l3 -195 -25 4 c-13
1 -39 21 -57 42 -19 21 -41 39 -49 39 -9 0 -33 -16 -54 -35 -38 -34 -42 -35
-120 -35 -78 0 -82 1 -112 33 l-31 32 -3 558 c-2 503 1 593 20 545 10 -24 -3
344 -14 399 -1 4 2 22 6 40 6 28 12 32 44 35 80 8 -284 7 -594 -2 -358 -10
-365 -11 -430 -70 -44 -41 -189 -124 -193 -111 -6 17 -22 13 -22 -5 0 -19 -19
-36 -73 -65 -37 -20 -39 -20 -53 -2 -7 10 -14 22 -14 26 0 5 -4 6 -9 3 -5 -3
-7 -14 -4 -25 3 -12 -3 -24 -18 -35 -18 -13 -20 -16 -7 -16 14 0 17 -10 17
-52 0 -54 3 -164 21 -658 5 -157 8 -301 6 -320 -2 -19 -7 -125 -11 -235 -4
-110 -11 -220 -15 -245 -5 -24 -6 -49 -2 -54 3 -6 7 -112 9 -236 2 -124 9
-308 14 -410 9 -156 7 -545 -5 -1150 0 -41 3 -106 7 -145 4 -38 12 -110 18
-159 9 -88 24 -167 36 -196 3 -8 7 -27 9 -43 10 -74 110 -291 190 -411 19 -28
31 -52 28 -55 -2 -3 -41 31 -86 75 -44 43 -73 68 -64 54 38 -58 368 -380 419
-409 77 -44 85 -56 91 -139 5 -68 4 -73 -17 -82 -14 -6 49 -9 178 -11 223 -2
235 -3 320 -18 77 -13 715 -14 715 -1 0 6 -28 10 -62 10 -67 0 -108 8 -108 20
0 16 198 27 242 14 13 -4 16 -1 12 10 -6 16 -3 17 59 20 10 1 21 7 25 13 4 6
57 34 117 63 61 28 123 58 138 67 16 8 30 13 33 10 2 -2 6 -43 9 -90 l4 -86
-178 2 c-139 2 -177 -1 -174 -10 3 -7 6 -13 7 -13 0 0 60 -3 132 -6 106 -5
142 -3 189 10 41 12 61 14 68 7 16 -16 35 -13 57 9 11 11 29 20 40 20 13 0 18
5 14 15 -4 8 -1 15 5 15 6 0 11 7 11 15 0 7 7 18 16 23 15 8 15 10 0 15 -17 7
-12 37 6 37 6 0 4 -7 -3 -17 -13 -15 -10 -16 29 -10 26 5 42 3 42 -3 0 -5 -10
-10 -22 -10 -15 0 -19 -3 -12 -10 14 -14 444 -14 458 0 12 12 -4 13 -128 11
-103 -2 -172 7 -159 20 6 6 20 6 34 2 13 -5 51 -6 84 -2 33 3 48 6 33 7 -41 3
-118 25 -118 34 0 4 3 7 8 7 19 -3 33 2 27 11 -10 16 -153 5 -174 -14 -20 -18
-47 -21 -56 -6 -3 6 5 10 19 10 14 0 28 5 32 11 4 8 -7 9 -37 6 -24 -3 -52 -6
-61 -6 -10 -1 -17 -7 -15 -13 1 -7 -8 -14 -20 -16 -13 -2 -23 1 -23 7 0 6 7 8
15 5 29 -11 15 11 -15 24 -41 18 -39 36 3 26 17 -4 115 -6 217 -4 318 5 513 4
555 -3 l40 -7 -30 14 c-19 9 -81 16 -170 20 -159 6 -160 6 -121 15 16 3 79 3
140 0 61 -3 118 -2 126 2 9 5 -8 9 -45 10 -33 1 -71 3 -85 5 -63 6 -251 7
-300 1 -30 -3 -47 -4 -37 -1 42 13 10 22 -65 19 l-83 -3 50 12 c28 7 64 11 80
9 17 -2 106 -5 198 -7 154 -2 169 -1 178 16 5 10 17 18 27 19 53 3 -69 18
-167 20 -64 1 -121 6 -127 11 -7 5 -29 6 -50 3 -52 -9 -80 -9 -134 -3 -25 3
-76 1 -114 -4 -37 -5 -71 -7 -73 -4 -3 3 73 85 169 183 202 205 251 259 254
280 2 8 13 31 27 51 61 94 115 239 181 487 31 114 42 167 52 250 1 11 3 20 5
20 8 0 4 82 -5 87 -7 5 -5 8 6 8 21 0 18 47 -3 61 -9 6 -10 9 -2 9 8 0 11 21
8 73 -5 78 -12 269 -21 527 -3 90 -8 168 -11 172 -2 5 0 15 6 22 8 10 9 27 2
54 -5 23 -6 44 -3 47 3 3 4 162 3 353 -2 191 -2 592 -1 892 1 300 2 592 3 650
0 58 -1 184 -3 280 -4 247 -6 232 35 254 19 11 35 23 35 28 0 11 -13 10 -25
-1 -6 -5 -20 -12 -33 -16 -20 -6 -23 -3 -21 17 4 46 -1 88 -11 88 -5 0 -10
-13 -10 -29z m-1780 -63 c0 -7 -41 -40 -90 -72 -49 -33 -98 -68 -107 -79 -31
-35 -135 -107 -154 -107 -10 0 -19 -7 -19 -15 0 -10 -10 -15 -27 -16 -16 0
-124 -2 -242 -5 -136 -4 -211 -2 -207 4 8 13 -247 27 -314 18 -28 -4 -50 -3
-50 1 1 9 149 107 230 152 31 17 69 44 85 61 l29 30 240 0 c133 0 293 5 356
10 63 6 139 13 169 15 30 3 57 7 59 10 11 10 42 5 42 -7z m-22 -338 c-6 -151
-9 -349 -7 -440 2 -91 4 -305 4 -476 0 -273 -2 -314 -16 -330 -9 -11 -19 -26
-22 -34 -6 -18 -10 12 -9 87 1 39 -4 56 -16 64 -16 10 -16 10 1 5 9 -3 17 -1
17 4 0 6 -4 10 -10 10 -5 0 -10 7 -10 15 0 8 4 15 8 15 5 0 9 18 10 40 1 22
-2 40 -7 40 -6 0 -9 -8 -9 -17 1 -10 -5 -38 -12 -63 -7 -25 -13 -58 -12 -75 0
-16 2 -59 4 -95 l2 -65 -34 -16 c-19 -10 -51 -20 -71 -23 l-36 -6 -8 160 c-4
88 -10 160 -14 160 -6 0 -7 -55 -1 -230 2 -64 -1 -95 -9 -98 -8 -3 -11 30 -12
110 -1 167 -1 202 5 252 3 25 1 48 -4 51 -6 4 -7 12 -3 18 4 7 8 100 10 207 1
107 3 221 5 253 2 32 0 60 -3 63 -7 4 -2 118 6 142 2 6 0 12 -5 12 -5 0 -5 13
1 32 5 18 11 84 15 147 l6 115 36 33 c20 18 41 32 45 33 5 0 6 -22 2 -50 -4
-30 -3 -50 3 -50 13 0 23 70 12 89 -6 12 7 31 56 79 35 34 64 68 64 75 0 12
21 39 26 34 1 -1 -2 -126 -8 -277z m1788 178 c-10 -143 -6 -1886 5 -2078 5
-93 -2 -240 -12 -240 -7 0 -9 11 -5 30 3 17 1 30 -4 30 -14 0 -12 -54 2 -68 9
-9 9 -12 0 -12 -7 0 -12 -5 -12 -11 0 -6 7 -9 15 -5 12 4 14 0 9 -22 -4 -15
-10 -29 -13 -32 -8 -7 -7 -32 1 -46 9 -14 15 -126 23 -399 5 -167 4 -205 -7
-205 -10 0 -9 -3 2 -10 12 -8 13 -12 2 -19 -8 -4 -12 -14 -11 -22 2 -8 -1 -43
-6 -79 -5 -36 -8 -75 -8 -87 0 -13 -4 -23 -8 -23 -5 0 -10 21 -10 48 -1 26 -2
56 -3 67 -1 11 2 25 7 32 4 6 4 14 -1 17 -6 3 -12 -4 -15 -15 -9 -33 -3 -232
7 -254 8 -17 7 -18 -5 -8 -12 10 -14 2 -11 -60 2 -40 -1 -106 -6 -147 -6 -52
-6 -77 1 -82 8 -5 8 -14 0 -30 -6 -13 -19 -54 -28 -93 -21 -84 -54 -157 -66
-149 -5 3 -4 14 2 26 9 16 8 19 -2 13 -9 -6 -11 -3 -6 8 3 10 2 17 -3 17 -6 0
-10 5 -10 10 0 7 7 7 21 -1 14 -7 19 -7 15 0 -4 5 -1 20 5 33 33 64 36 73 17
62 -10 -6 -10 -4 0 7 15 16 16 49 2 49 -6 0 -4 13 5 30 9 17 13 35 10 40 -3 6
-1 10 4 10 6 0 11 7 11 15 0 8 -4 15 -9 15 -16 0 -29 -25 -41 -85 -7 -33 -17
-64 -22 -70 -4 -5 -8 -16 -8 -25 0 -8 -9 -22 -19 -30 -11 -7 -17 -18 -14 -23
3 -6 1 -7 -5 -3 -7 4 -18 -7 -28 -26 -9 -18 -23 -41 -32 -50 -8 -10 -16 -32
-17 -49 -2 -17 -11 -40 -22 -52 -11 -12 -19 -34 -18 -49 0 -15 -3 -24 -7 -22
-4 3 -8 -2 -8 -11 0 -9 -3 -14 -8 -11 -8 5 -35 -58 -52 -121 -6 -24 -13 -43
-15 -43 -9 0 7 85 20 111 23 44 60 164 71 229 9 51 14 57 30 36 12 -17 14 -18
14 -3 0 9 5 17 11 17 5 0 7 5 4 10 -3 5 -2 10 4 10 5 0 24 21 41 46 17 26 25
44 17 41 -9 -3 -13 2 -11 16 1 12 3 24 4 27 1 3 1 15 0 27 -1 18 3 20 21 16
16 -5 20 -3 14 7 -4 7 -2 16 6 21 11 7 8 14 -14 34 l-27 26 -22 -48 c-12 -26
-22 -51 -22 -55 -1 -3 -5 -10 -10 -15 -5 -5 -6 5 -2 22 4 17 12 32 17 33 18 7
9 57 -12 70 -19 12 -19 11 -9 -8 12 -23 6 -66 -16 -108 l-14 -27 0 37 c0 20 5
40 11 44 8 5 8 8 0 13 -6 4 -12 40 -13 81 -3 74 -3 75 22 75 14 0 29 6 33 13
9 13 27 7 27 -9 0 -6 -4 -7 -10 -4 -5 3 -11 -1 -11 -9 -2 -20 -3 -26 -13 -54
-5 -14 -3 -28 4 -36 13 -17 50 -9 50 11 0 8 5 11 11 7 8 -5 10 1 5 19 -7 31 2
59 18 50 6 -3 7 -2 3 3 -16 17 -32 9 -39 -21 -6 -29 -6 -29 -5 5 1 19 -2 41
-7 48 -4 7 -1 12 8 12 9 0 16 -5 16 -12 0 -6 3 -8 7 -5 3 4 1 17 -5 30 -12 25
-27 78 -31 111 0 6 -7 2 -14 -9 -8 -10 -16 -14 -19 -9 -9 14 13 124 24 124 6
0 8 7 4 15 -9 24 19 88 42 96 14 5 22 4 22 -2 0 -6 5 -7 10 -4 6 3 10 11 10
16 0 6 -4 8 -9 4 -16 -10 -23 14 -8 29 8 8 19 28 26 44 10 25 10 35 -3 60 -9
17 -14 37 -11 44 3 7 1 40 -5 73 l-9 60 4 -67 c4 -57 2 -68 -12 -68 -10 0 -14
6 -10 20 3 11 1 17 -4 14 -6 -3 -7 5 -4 19 4 15 2 28 -5 32 -9 6 -9 9 0 15 7
4 12 25 12 45 0 21 6 45 14 52 12 12 13 10 8 -15 -3 -16 -2 -32 4 -36 14 -8
16 153 1 170 -6 8 -9 28 -6 46 3 18 0 62 -7 98 -8 36 -14 54 -15 40 0 -14 4
-45 10 -70 7 -33 7 -50 -2 -67 -13 -24 -29 -22 -29 3 0 8 4 13 9 10 5 -4 3 20
-5 51 -8 32 -16 65 -18 73 -7 42 -19 70 -30 70 -8 0 -7 3 1 8 10 6 9 14 -2 35
-17 33 -4 36 18 5 l15 -23 -1 23 c-1 12 -7 22 -15 22 -14 0 -52 75 -48 94 2 6
1 8 -1 4 -12 -21 -23 -3 -22 35 1 39 2 40 9 12 l8 -30 1 36 c0 19 -3 39 -8 45
-6 5 -12 68 -15 139 -23 554 -29 843 -27 1447 l2 316 78 59 c44 32 84 68 90
81 15 31 6 28 -52 -21 -71 -57 -118 -90 -123 -84 -8 7 177 142 190 140 6 -2
17 11 24 29 6 17 15 29 18 25 4 -4 14 1 23 11 18 20 71 62 78 62 3 0 2 -37 -1
-82z m-2731 -138 c112 -2 113 -5 5 -28 -33 -7 40 -10 263 -10 170 0 310 -2
312 -4 2 -2 4 -219 5 -483 1 -581 2 -781 5 -858 1 -49 -1 -58 -14 -54 -9 3
-30 10 -47 15 -26 8 -38 6 -62 -9 -40 -24 -70 -78 -50 -90 10 -7 -6 -28 -63
-84 -75 -74 -77 -75 -128 -75 -70 0 -95 -25 -88 -86 4 -42 2 -47 -60 -119 -59
-69 -67 -75 -102 -75 -64 0 -92 -51 -66 -118 16 -39 16 -42 -8 -94 -13 -29
-32 -75 -42 -103 -24 -64 -32 -75 -61 -75 -16 0 -28 -10 -39 -30 -22 -43 -18
-75 15 -113 l29 -34 -14 -108 c-8 -59 -16 -109 -17 -111 -2 -1 -15 -5 -29 -9
l-26 -6 -8 313 c-4 172 -9 329 -10 348 -14 187 -18 371 -15 620 6 386 6 771 0
1159 l-5 315 25 7 c14 4 61 6 105 4 44 -2 130 -4 190 -5z m1936 -32 c3 -4 91
-10 195 -12 104 -2 197 -7 207 -11 16 -7 17 -35 18 -394 0 -212 2 -420 4 -461
1 -41 6 -275 9 -520 6 -422 9 -517 22 -619 7 -58 -4 -48 -62 52 -26 45 -70
109 -97 142 -30 35 -45 61 -38 63 17 6 57 -33 71 -69 13 -31 30 -39 30 -14 0
20 -36 91 -51 100 -5 4 -26 7 -44 7 -28 0 -49 13 -109 64 -77 66 -94 84 -77
84 15 0 -6 61 -29 84 -16 16 -34 21 -88 21 -56 1 -75 6 -116 31 -34 20 -52 39
-57 58 -9 33 -56 86 -77 86 -8 0 -27 -9 -42 -20 -22 -16 -38 -19 -68 -14 -22
3 -44 9 -50 13 -6 4 -12 119 -15 316 -3 171 -8 362 -11 425 -3 63 -8 198 -11
300 -3 102 -7 194 -9 205 -2 11 -6 37 -10 57 l-7 37 158 4 c191 4 346 -3 354
-15z m-595 -1379 c4 -6 10 -7 15 -2 13 13 69 4 69 -11 1 -6 2 -37 5 -68 3 -55
2 -58 -18 -53 -12 2 -44 7 -72 10 -27 3 -52 11 -56 17 -4 7 -9 7 -13 -1 -10
-16 -169 -15 -164 1 3 7 33 32 68 56 58 40 90 48 90 23 0 -6 7 -8 15 -5 8 4
15 1 15 -5 0 -6 6 -11 13 -11 6 1 2 9 -10 19 -26 22 -30 36 -8 28 8 -4 17 -2
20 3 8 13 22 13 31 -1z m-410 -23 c6 -13 11 -43 10 -67 l-1 -42 -70 -24 c-97
-32 -145 -43 -145 -32 0 5 5 9 10 9 5 0 9 4 8 8 -4 12 74 87 110 106 18 9 34
27 38 41 8 32 26 32 40 1z m624 -20 c19 -11 40 -21 45 -22 33 -3 85 -17 85
-24 0 -4 14 -10 30 -14 36 -7 120 -54 120 -67 0 -5 6 -9 13 -9 18 0 57 -34 57
-49 0 -6 -5 -11 -11 -11 -5 0 -7 -5 -3 -11 4 -7 10 -7 16 -1 14 14 69 -11 128
-57 46 -35 139 -130 141 -143 1 -5 2 -12 3 -18 0 -5 8 -15 17 -22 47 -39 149
-194 149 -227 0 -18 -4 -18 -76 5 -42 13 -84 30 -93 37 -9 8 -21 16 -27 18 -6
2 -59 57 -118 121 -58 65 -114 122 -124 128 -14 10 -13 10 8 5 14 -4 61 -10
105 -14 l80 -6 6 -80 c3 -44 6 -64 8 -45 1 19 5 51 7 70 10 78 13 73 -36 77
-76 5 -181 23 -204 35 -11 6 -48 30 -81 53 -33 23 -95 58 -137 78 -43 20 -78
41 -78 47 0 6 -5 8 -10 5 -6 -4 -29 1 -53 10 l-42 16 -2 75 c-2 73 -1 75 20
68 12 -3 38 -16 57 -28z m-957 -83 c-3 -7 -10 -13 -17 -12 -25 3 -36 -2 -36
-16 0 -11 7 -14 25 -9 24 6 25 5 25 -45 0 -28 -4 -51 -9 -51 -5 0 -36 -20 -69
-45 -63 -48 -77 -53 -86 -32 -3 6 -3 2 0 -10 3 -13 1 -23 -5 -23 -12 0 -128
-118 -179 -182 -20 -26 -43 -47 -49 -48 -7 0 -13 -6 -13 -14 0 -7 -9 -24 -19
-38 -36 -45 -98 -175 -116 -242 -15 -56 -20 -63 -30 -49 -10 14 -11 11 -8 -14
3 -17 0 -40 -6 -51 -7 -12 -7 -22 -1 -24 6 -2 6 -18 0 -43 -5 -22 -12 -77 -16
-122 -4 -46 -11 -83 -15 -83 -5 0 -9 4 -9 9 0 4 -16 29 -35 54 -19 25 -35 53
-35 62 0 9 20 38 45 64 51 54 53 61 25 61 -11 0 -20 -4 -20 -10 0 -5 -7 -18
-15 -27 -8 -10 -21 -27 -28 -37 -9 -12 -20 -17 -31 -13 -24 9 -20 37 5 37 18
0 19 2 9 15 -10 12 -10 18 1 33 7 9 15 19 16 21 1 2 9 -2 18 -9 10 -8 15 -9
15 -1 0 6 -3 11 -8 11 -4 0 -15 15 -25 33 -14 26 -15 38 -7 67 6 19 13 42 15
51 5 26 44 96 45 82 0 -20 18 -15 25 7 3 11 14 20 24 20 10 0 30 9 44 20 14
11 30 20 35 20 20 0 22 19 5 49 -10 17 -21 31 -26 31 -8 0 -31 -50 -29 -61 1
-4 -8 -5 -18 -2 -21 6 -29 -12 -9 -19 7 -2 0 -12 -14 -21 l-27 -17 7 32 c3 18
15 41 25 52 10 11 18 25 18 32 0 6 9 14 19 17 11 3 22 17 26 35 7 36 202 242
228 242 10 0 17 8 17 19 0 10 17 34 39 52 120 104 155 121 118 57 -10 -17 -15
-33 -12 -37 4 -3 11 2 16 12 7 11 17 16 29 12 27 -8 34 32 8 46 -19 10 -18 12
16 46 22 22 41 33 51 30 8 -4 15 -1 15 6 0 8 3 7 9 -2 5 -8 7 -20 4 -28z m786
-53 c32 -8 40 -15 45 -41 3 -17 6 -159 6 -314 0 -336 3 -324 -132 -558 -45
-78 -74 -142 -59 -133 11 7 129 209 157 269 10 20 20 37 24 37 9 0 4 -185 -6
-201 -5 -9 -44 -46 -86 -82 -70 -61 -80 -66 -100 -56 -45 23 -53 25 -93 18
-22 -4 -43 -4 -47 -1 -12 11 -68 156 -68 175 0 9 -4 17 -8 17 -24 0 -32 117
-32 490 l0 389 53 5 c28 3 66 7 82 8 47 4 221 -10 264 -22z m-433 -187 c-13
-385 -18 -458 -28 -464 -6 -4 -6 -9 -1 -12 10 -6 19 -176 14 -256 -1 -25 -11
-24 -15 1 -1 7 -34 57 -74 110 -45 60 -71 103 -66 110 4 7 4 10 -1 6 -10 -9
-70 56 -95 102 -21 41 -28 109 -36 331 l-5 156 31 13 c17 7 33 11 35 8 2 -2 7
-40 10 -83 3 -44 8 -114 11 -156 3 -41 7 -93 10 -115 3 -21 6 -65 8 -97 2 -32
6 -60 9 -63 3 -3 3 -12 0 -19 -2 -8 0 -22 6 -32 8 -14 10 -3 9 47 0 36 -4 75
-9 88 -6 16 -6 21 2 16 7 -4 9 0 5 12 -9 31 -25 183 -30 284 -3 52 -8 103 -11
112 -8 21 10 31 105 54 41 10 79 22 85 26 5 4 15 8 23 8 12 0 14 -29 8 -187z
m600 132 c210 -90 359 -195 461 -325 95 -121 122 -158 146 -205 26 -54 77
-187 82 -220 2 -11 11 -39 19 -62 26 -71 49 -277 42 -380 -7 -96 -45 -300 -72
-381 -76 -227 -220 -416 -434 -569 -47 -33 -113 -75 -148 -92 l-62 -31 -9 22
c-4 13 -32 92 -61 177 l-53 154 7 106 c4 58 7 127 6 154 0 26 3 47 7 47 4 0
19 -21 33 -47 29 -55 225 -351 247 -373 14 -13 14 -12 3 10 -15 27 -179 282
-244 375 -40 58 -41 63 -45 154 -3 106 -8 104 79 31 90 -76 440 -342 478 -364
49 -29 -52 55 -298 245 -279 215 -278 214 -264 284 5 28 10 35 23 31 115 -39
624 -159 651 -153 8 2 -30 14 -85 26 -313 72 -564 138 -582 155 -8 7 -9 23 -5
46 l8 34 79 3 c142 6 615 44 658 53 52 12 -71 7 -358 -14 -110 -8 -243 -16
-295 -18 l-95 -3 -3 41 -3 42 186 61 c299 99 581 209 538 211 -6 0 -47 -14
-90 -31 -115 -47 -594 -209 -615 -209 -15 0 -18 9 -18 58 0 32 6 65 13 74 6 9
59 56 117 106 104 89 422 398 402 391 -5 -2 -63 -54 -128 -115 -160 -150 -382
-344 -395 -344 -7 0 -9 39 -6 113 7 142 9 158 35 199 12 18 42 73 68 122 25
49 56 106 68 125 29 48 77 161 68 161 -4 0 -13 -15 -21 -32 -21 -50 -204 -378
-210 -378 -3 0 -5 126 -3 280 1 154 6 280 11 280 5 0 35 -11 67 -25z m-948
-248 c2 -106 0 -168 -6 -162 -5 6 -34 45 -66 88 -31 42 -59 77 -61 77 -3 0 24
-43 60 -96 36 -52 67 -105 70 -117 2 -12 6 -81 7 -153 4 -153 12 -149 -107
-62 -134 98 -245 171 -251 166 -3 -3 34 -34 83 -67 143 -101 256 -185 286
-214 28 -29 37 -48 13 -28 -22 18 -33 -25 -12 -48 20 -22 21 -35 1 -27 -10 4
-15 -1 -15 -14 0 -12 7 -20 18 -21 11 0 12 -2 4 -6 -10 -4 -10 -8 -1 -19 19
-23 -31 -12 -186 39 -186 62 -345 106 -345 96 0 -5 26 -16 58 -25 31 -9 145
-44 252 -78 l195 -63 3 -73 3 -73 -271 5 c-153 3 -270 2 -270 -3 0 -5 111 -9
248 -9 136 0 257 -3 270 -6 21 -6 22 -12 22 -89 0 -54 -4 -86 -12 -92 -7 -6
-44 -21 -83 -33 -80 -26 -398 -149 -405 -157 -12 -12 67 11 163 49 126 49 317
118 329 118 13 0 10 -198 -3 -206 -8 -5 -8 -8 0 -14 8 -4 13 -70 16 -202 2
-107 9 -223 15 -258 11 -62 57 -168 88 -202 23 -27 0 -21 -44 10 -21 16 -43
30 -49 32 -70 22 -361 296 -428 403 -58 92 -111 215 -105 245 2 9 -2 22 -9 27
-16 12 -51 205 -53 285 -4 193 15 388 41 415 5 5 9 18 9 29 0 32 30 126 63
196 17 35 30 70 30 77 0 7 3 11 6 9 3 -1 14 5 24 16 9 10 15 18 11 18 -3 0 6
15 20 33 15 19 26 39 26 46 0 28 309 311 340 311 3 0 6 -78 8 -173z m1576
-216 c3 -4 38 -19 78 -31 80 -25 115 -55 123 -105 10 -66 12 -244 2 -248 -6
-2 -6 -10 1 -23 9 -18 9 -232 -2 -492 -4 -101 -20 -136 -60 -130 -25 4 -34 42
-15 64 6 8 13 38 14 67 1 28 7 97 14 152 10 90 9 113 -9 220 -11 66 -23 140
-25 165 -2 25 -19 77 -36 115 -17 39 -40 94 -50 124 -11 30 -28 70 -39 88 -11
19 -20 36 -20 39 0 8 19 4 24 -5z m-1431 -189 c19 -34 98 -145 167 -234 28
-36 38 -88 17 -88 -9 0 -18 4 -21 9 -3 5 -30 25 -60 45 -30 20 -61 42 -68 49
-7 7 -33 24 -58 38 l-45 24 -3 129 -3 128 26 -31 c15 -17 36 -48 48 -69z m62
-268 c104 -71 125 -90 125 -110 0 -20 -4 -24 -17 -20 -34 10 -138 38 -188 50
l-50 11 -3 78 c-2 42 -1 77 2 77 3 0 62 -39 131 -86z m1649 -6 c14 -34 23
-259 11 -278 -3 -6 -8 -52 -10 -102 -5 -95 -20 -174 -42 -218 -12 -22 -12 -19
-8 30 5 72 19 446 19 533 0 73 10 85 30 35z m-2580 0 c3 -13 26 -51 51 -85 37
-52 45 -70 45 -106 0 -36 -4 -46 -25 -57 -14 -7 -25 -20 -25 -29 0 -27 -25
-87 -43 -105 -9 -10 -17 -23 -16 -29 0 -7 34 -40 74 -75 50 -43 78 -75 85 -98
7 -20 10 -37 7 -40 -2 -2 -25 4 -50 15 -26 11 -49 16 -52 12 -5 -9 30 -26 78
-37 20 -5 25 -10 18 -17 -6 -6 -11 -17 -11 -25 0 -21 -40 -102 -50 -102 -6 0
-18 17 -26 38 -9 20 -21 45 -26 55 -5 10 -6 27 -3 38 4 12 2 19 -6 19 -7 0 -9
3 -6 7 4 3 1 13 -7 22 -8 9 -20 57 -26 106 -6 50 -13 104 -16 120 -2 17 -4 37
-4 45 1 8 1 28 1 44 0 19 6 30 19 33 11 3 17 9 14 15 -3 5 -14 6 -25 3 -14 -5
-17 -3 -13 9 4 9 1 23 -6 31 -12 14 -11 44 7 173 6 45 27 57 37 20z m848 -92
c51 -17 159 -49 173 -51 6 -1 16 -3 23 -3 6 -1 12 -13 12 -26 l0 -24 -130 0
-130 1 0 58 c0 33 2 59 5 59 2 0 24 -6 47 -14z m467 -46 c58 -29 67 -75 29
-135 -31 -46 -55 -56 -108 -42 -33 9 -46 19 -58 44 -22 46 -3 107 41 133 40
25 49 25 96 0z m-180 -4 c7 -8 8 -17 4 -19 -8 -5 -9 -26 -5 -104 1 -20 12 -41
28 -57 l27 -24 -43 -131 c-24 -73 -47 -134 -51 -136 -4 -3 -3 9 2 27 5 18 11
65 13 105 2 40 8 77 12 84 5 8 2 11 -8 7 -12 -5 -14 6 -13 64 1 48 6 72 16 79
11 7 9 9 -9 9 -18 0 -21 3 -14 18 5 9 7 22 5 29 -2 6 1 14 6 18 8 4 8 12 1 26
-8 15 -7 19 3 19 8 0 20 -6 26 -14z m-83 -100 c2 -25 -20 -38 -127 -75 -30
-10 -71 -26 -91 -34 l-36 -17 -4 71 c-2 39 -1 73 1 75 2 2 61 4 130 4 125 0
126 0 127 -24z m472 14 c19 0 22 -5 22 -35 0 -40 1 -40 -36 -20 -16 8 -38 15
-49 14 -11 0 4 -10 33 -21 52 -21 52 -21 52 -65 0 -25 -4 -43 -8 -41 -4 2 -33
23 -64 48 -58 46 -60 51 -49 129 1 2 18 1 39 -3 20 -3 47 -6 60 -6z m-1420
-86 c1 -21 9 -77 18 -123 8 -46 13 -85 12 -87 -2 -2 -32 24 -67 56 l-62 60 23
32 c13 18 23 35 23 38 0 3 6 20 14 38 18 42 35 36 39 -14z m942 -14 c0 -28 -4
-40 -15 -40 -7 0 -18 -6 -22 -13 -4 -6 -27 -25 -51 -41 -24 -16 -63 -47 -87
-68 -24 -21 -46 -38 -49 -38 -3 0 -6 27 -6 60 0 36 -4 60 -11 60 -6 0 -8 -8
-5 -17 12 -42 11 -126 -2 -131 -10 -3 -12 15 -10 79 l3 83 125 52 c69 29 126
53 128 53 1 1 2 -17 2 -39z m487 -92 c6 -7 13 -49 17 -93 7 -93 15 -98 -95 63
-39 56 -74 100 -80 97 -20 -13 -8 13 14 28 21 14 25 12 78 -34 31 -27 61 -54
66 -61z m-1645 60 c9 -8 22 -53 33 -117 l18 -104 -27 -19 c-20 -15 -26 -28
-26 -58 0 -47 24 -76 70 -88 30 -7 37 -15 53 -58 10 -27 32 -80 50 -118 l31
-68 -27 -20 c-29 -21 -35 -54 -16 -91 17 -32 28 -37 86 -37 52 0 52 0 130 -81
43 -44 89 -98 102 -119 14 -20 37 -46 53 -56 35 -23 35 -30 2 -38 -43 -11
-107 48 -74 69 15 9 12 25 -5 25 -22 0 -34 -40 -23 -73 20 -55 77 -72 143 -40
l35 17 107 -55 c146 -74 142 -72 148 -87 3 -10 -3 -13 -22 -10 -19 2 -29 -2
-31 -13 -4 -24 56 -21 64 3 6 20 29 24 39 7 7 -11 -13 -69 -24 -69 -4 0 -17 7
-29 16 -13 9 -26 13 -29 10 -10 -9 18 -36 38 -36 11 0 19 -6 19 -13 0 -10 -53
-202 -97 -349 -4 -15 -17 -18 -69 -18 -60 0 -65 -2 -74 -26 -6 -14 -8 -29 -5
-34 7 -12 -35 1 -54 16 -9 8 -40 35 -70 61 -30 27 -51 42 -47 36 20 -35 -23
-4 -107 77 -148 141 -283 351 -332 515 -10 33 -24 79 -31 102 -12 38 -48 228
-60 313 l-4 35 21 -40 c22 -44 21 -30 -7 70 -12 46 -17 117 -20 308 -2 137 -1
253 2 258 8 13 48 11 66 -3z m1303 -203 c-26 -103 -64 -242 -86 -308 -37 -112
-85 -287 -96 -350 -3 -15 -9 -30 -14 -33 -5 -3 -9 -13 -9 -22 0 -9 -7 -29 -14
-44 -8 -16 -17 -40 -20 -55 -18 -88 -52 -217 -66 -248 -5 -11 -13 -45 -19 -75
-5 -30 -23 -113 -40 -183 -17 -71 -31 -136 -31 -146 0 -14 -10 -20 -47 -24
-27 -3 -49 -4 -51 -2 -2 2 4 17 13 35 9 17 25 66 36 108 11 42 56 185 100 317
96 286 97 290 149 475 22 80 52 179 66 220 23 66 65 219 81 290 4 23 57 204
69 239 3 10 8 11 15 4 6 -6 -6 -72 -36 -198z m145 173 c0 -18 11 -62 24 -98
13 -36 41 -112 61 -170 20 -58 43 -118 50 -135 7 -16 21 -59 30 -95 9 -36 25
-85 35 -110 30 -74 116 -327 156 -455 38 -126 125 -368 176 -495 17 -41 33
-81 36 -88 3 -10 -4 -13 -28 -10 l-34 3 -142 425 c-78 234 -162 488 -187 565
-25 77 -61 187 -80 245 -20 58 -54 166 -77 240 -23 74 -49 148 -57 163 -16 32
-10 47 18 47 15 0 19 -7 19 -32z m-292 -50 c-5 -10 -13 -18 -18 -18 -13 0 -13
6 1 33 11 22 11 22 -12 -1 -18 -17 -21 -25 -11 -30 9 -6 0 -23 -30 -60 -69
-83 -84 -104 -114 -159 -16 -29 -32 -53 -36 -53 -5 0 -8 17 -8 38 0 48 -5 80
-13 88 -11 11 5 -181 17 -195 8 -11 8 -13 -1 -7 -8 4 -13 2 -14 -6 -1 -7 -2
-30 -4 -50 -2 -21 -2 -38 0 -38 2 0 11 26 20 58 9 31 19 63 21 70 2 7 8 11 13
8 5 -3 7 2 4 13 -5 21 16 67 61 128 17 23 42 58 56 77 31 44 42 45 35 6 -3
-19 -1 -30 6 -30 8 0 10 13 6 38 -5 38 7 77 22 68 6 -4 7 -25 2 -118 0 -16 -5
-28 -11 -28 -5 0 -7 7 -4 15 4 8 1 15 -6 15 -8 0 -10 -8 -7 -21 3 -12 2 -32
-3 -44 -6 -16 -5 -25 3 -28 15 -5 -63 -157 -80 -157 -7 0 -13 -5 -13 -11 0 -5
5 -7 10 -4 13 8 13 3 -5 -33 -10 -20 -21 -29 -30 -26 -11 5 -14 -3 -13 -29 1
-20 -6 -46 -14 -59 -19 -30 -30 -75 -20 -82 5 -3 19 17 32 44 24 51 38 63 21
17 -17 -44 -33 -205 -21 -212 7 -4 60 162 65 205 2 14 -1 39 -7 55 -9 25 -7
39 11 75 11 24 21 47 21 52 0 4 11 32 24 63 19 42 29 53 41 49 12 -5 15 -14
10 -33 -4 -14 -8 -44 -11 -66 -4 -47 -46 -204 -79 -295 -13 -36 -31 -90 -40
-120 -10 -30 -20 -59 -22 -63 -9 -16 -24 10 -25 41 -1 17 -5 29 -10 26 -5 -4
-8 4 -6 17 2 16 -2 23 -10 21 -8 -1 -11 2 -7 8 4 6 1 17 -5 25 -9 11 -9 21 2
43 16 32 13 52 -8 52 -8 0 -14 8 -14 19 0 10 -6 30 -13 44 -10 18 -14 82 -15
220 l-2 194 28 25 c16 14 35 29 44 34 8 5 40 30 69 55 30 26 68 58 84 72 l30
26 6 -22 c3 -12 2 -30 -3 -39z m420 -53 c39 -57 76 -121 81 -142 12 -42 20
-256 9 -245 -11 12 -128 354 -128 374 0 10 -6 31 -14 46 -16 33 -29 72 -23 72
3 0 37 -47 75 -105z m-178 30 c0 -18 55 -190 142 -445 39 -113 71 -211 72
-219 2 -22 -73 -43 -144 -39 -49 3 -74 10 -100 28 -63 44 -82 64 -107 114 -28
55 -27 63 27 246 15 52 36 125 46 162 12 42 22 63 27 55 5 -8 7 -5 6 8 -4 34
13 115 22 109 5 -3 9 -11 9 -19z m1219 -152 c1 -26 4 -50 7 -54 2 -4 0 -18 -5
-31 -5 -13 -15 -43 -22 -68 -6 -25 -28 -74 -48 -110 -20 -36 -42 -78 -49 -94
-18 -43 -97 -149 -167 -227 -69 -77 -153 -148 -256 -214 -37 -25 -71 -49 -74
-55 -8 -12 -73 -47 -99 -52 -14 -2 -23 13 -46 75 l-29 79 57 25 c95 44 254
155 325 227 49 50 149 175 174 216 9 17 22 29 28 27 5 -2 30 8 55 22 122 72
112 62 107 106 -3 22 -11 58 -19 79 -9 21 -13 47 -11 57 4 15 37 34 64 38 3 1
6 -20 8 -46z m-85 11 c-4 -15 1 -51 12 -86 19 -64 15 -84 -22 -103 -10 -6 -38
-23 -62 -39 -23 -16 -45 -26 -48 -23 -3 3 6 25 20 50 23 39 57 125 72 182 11
41 14 45 24 45 6 0 8 -10 4 -26z m-2221 -124 c11 -30 35 -77 53 -104 19 -28
32 -51 31 -53 -8 -7 -120 43 -147 66 l-32 26 28 62 c16 35 33 61 38 60 5 -2
18 -27 29 -57z m-118 -80 c3 -11 15 -20 25 -20 10 0 21 -4 24 -8 2 -4 38 -25
80 -45 73 -37 121 -82 247 -233 51 -62 260 -196 371 -240 28 -11 48 -25 48
-34 0 -35 -39 -135 -53 -138 -9 -2 -35 6 -58 17 -24 12 -47 21 -52 21 -20 0
-154 70 -192 100 -22 17 -74 63 -115 102 -41 39 -94 88 -117 110 -48 45 -57
74 -20 62 12 -4 31 -7 42 -8 14 -1 21 -11 27 -40 11 -52 22 -63 13 -13 -7 34
-5 39 14 44 21 5 21 6 2 19 -11 8 -28 13 -38 12 -68 -6 -89 2 -121 44 -41 53
-41 68 1 69 21 1 25 3 12 6 -11 3 -26 10 -32 15 -10 8 -13 6 -13 -6 0 -9 -4
-16 -9 -16 -9 0 -61 71 -61 83 0 6 -33 82 -47 110 -2 4 0 7 6 7 5 0 13 -9 16
-20z m1041 -242 c5 -18 9 -38 9 -43 0 -6 10 -24 21 -40 12 -17 22 -45 22 -64
0 -19 6 -38 14 -42 20 -12 -2 -63 -30 -67 -12 -2 -22 -8 -22 -13 0 -6 9 -7 20
-4 11 4 20 2 20 -4 0 -6 -4 -11 -10 -11 -5 0 -10 -7 -10 -16 0 -14 3 -14 15
-4 16 14 20 3 6 -19 -5 -7 -14 -10 -20 -7 -6 4 -11 2 -11 -4 0 -16 -76 -3
-110 18 -14 9 -26 17 -28 17 -2 2 23 67 39 100 5 11 12 34 14 50 11 70 40 185
46 185 4 0 11 -15 15 -32z m1338 2 c17 -6 26 -6 26 0 0 6 5 10 11 10 18 0 -11
-220 -33 -247 -6 -7 -8 -13 -5 -13 7 0 -52 -163 -95 -266 -50 -117 -139 -247
-227 -334 -69 -68 -161 -140 -179 -140 -4 0 -13 15 -21 33 -29 72 -141 413
-141 428 0 11 11 19 34 23 29 6 38 2 69 -29 44 -44 86 -47 116 -9 24 30 27 50
9 58 -10 3 -8 9 4 19 21 16 14 27 -18 27 -44 0 -34 19 43 80 106 84 114 88
152 59 30 -22 32 -22 67 -5 33 15 36 20 30 46 -3 17 -1 30 4 30 13 0 13 27 0
35 -15 9 -51 -37 -39 -50 21 -21 9 -36 -28 -33 -47 4 -53 23 -14 45 17 10 38
33 46 50 19 40 129 179 147 186 7 3 14 6 15 6 1 1 13 -3 27 -9z m-972 -189
c-43 -78 -159 -187 -180 -167 -5 6 14 28 121 139 20 22 37 43 37 48 0 11 -61
-15 -62 -27 -1 -16 -96 -124 -109 -124 -9 0 -21 32 -14 38 3 3 5 0 5 -7 0 -7
5 -9 10 -6 6 4 8 15 5 25 -3 11 1 31 11 45 16 24 16 25 -5 25 -14 0 -21 -6
-21 -20 0 -11 -6 -23 -13 -26 -8 -3 -14 -13 -15 -22 -5 -39 -2 -57 8 -60 5 -2
10 -10 10 -19 0 -29 -25 -6 -34 32 -6 27 -5 44 4 58 6 11 8 22 3 26 -4 3 -10
13 -12 21 -9 36 -6 45 14 42 121 -16 131 -15 225 32 37 18 41 0 12 -53z m108
-182 c0 -6 6 -25 14 -42 24 -55 37 -101 29 -107 -5 -4 -34 -12 -66 -19 -43 -9
-61 -10 -72 -1 -10 8 -14 8 -17 -2 -3 -7 -16 -14 -29 -15 -13 -1 -71 -7 -129
-14 -107 -12 -220 -4 -227 16 -1 6 27 28 64 49 36 22 60 42 54 44 -7 2 -26 -6
-43 -18 -16 -12 -36 -19 -44 -16 -8 3 -14 -1 -14 -9 0 -8 -8 -19 -19 -24 -14
-8 -27 -4 -60 20 -22 17 -46 29 -53 27 -7 -3 10 -19 36 -37 26 -18 45 -35 42
-38 -2 -3 -30 1 -61 7 -55 11 -57 13 -51 38 4 15 11 44 15 65 5 21 11 40 13
43 3 2 54 -3 113 -12 62 -9 136 -13 174 -10 80 6 278 43 300 56 21 13 31 12
31 -1z m81 -255 c13 -39 129 -369 129 -369 0 0 -221 -1 -490 -3 -270 -1 -490
1 -490 5 0 23 74 302 87 327 9 17 16 43 15 59 -1 27 -1 27 51 21 29 -3 90 -12
137 -20 47 -7 115 -16 151 -20 80 -8 93 -15 85 -42 -14 -42 -72 -33 -113 16
-18 22 -22 24 -23 9 0 -10 7 -31 15 -47 29 -55 132 -48 150 10 4 14 1 28 -10
40 -17 19 -17 20 7 29 35 13 241 41 272 36 5 -1 17 -23 27 -51z m271 -415
c-12 -10 -181 -80 -231 -95 -25 -8 -129 -28 -230 -44 -103 -16 -187 -34 -192
-41 -5 -9 -44 -9 -176 0 -299 22 -356 32 -459 84 -121 61 -142 89 -74 99 45 6
1369 3 1362 -3z m-1418 -88 c28 -16 83 -39 121 -51 39 -12 73 -26 78 -29 4 -4
-54 -7 -129 -7 l-137 1 -2 58 c-2 34 1 57 7 57 6 0 34 -13 62 -29z"/>
<path d="M3103 5578 c6 -255 29 -582 43 -597 12 -13 14 18 5 115 -6 60 -13
181 -16 269 -3 88 -8 174 -10 190 -2 17 -5 96 -7 178 -1 86 -6 147 -11 147 -7
0 -8 -111 -4 -302z"/>
<path d="M3346 5717 c-10 -48 -20 -98 -21 -110 -1 -12 -3 -22 -5 -22 -1 0 -3
-9 -4 -20 -2 -11 -12 -60 -24 -110 -12 -49 -23 -101 -26 -115 -2 -14 -16 -81
-29 -150 -33 -165 -39 -210 -28 -210 4 0 14 28 20 63 13 69 42 207 71 337 22
96 28 130 35 180 3 19 7 44 9 55 23 113 27 145 24 166 -2 14 -11 -12 -22 -64z"/>
<path d="M13261 7957 c-1 -33 -3 -36 -18 -29 -10 5 -67 12 -126 16 l-108 7 3
-23 c3 -22 6 -23 125 -26 122 -3 123 -3 140 -30 9 -15 36 -57 60 -93 24 -37
43 -71 43 -76 0 -5 11 -20 25 -33 21 -20 25 -21 25 -6 0 9 -11 37 -25 62 -13
24 -22 44 -18 44 4 0 -5 12 -19 28 -31 32 -68 92 -68 110 0 6 12 12 28 12 19
0 23 3 13 9 -7 5 -22 6 -32 4 -13 -4 -22 4 -33 28 l-14 34 -1 -38z"/>
<path d="M5400 7951 c-8 -6 -19 -7 -25 -4 -5 4 -7 3 -3 -2 5 -5 -2 -15 -13
-23 -16 -11 -23 -12 -28 -3 -5 8 -14 4 -27 -11 -16 -19 -16 -20 -1 -9 34 27
27 3 -10 -33 -40 -38 -59 -46 -49 -20 5 14 4 15 -9 4 -9 -7 -14 -19 -11 -26 5
-12 -94 -112 -150 -151 -16 -12 -42 -25 -57 -28 -23 -6 -25 -9 -14 -19 12 -9
13 -20 2 -71 -13 -61 -13 -859 -1 -1425 10 -428 11 -1524 3 -1845 -5 -170 -10
-370 -12 -444 -2 -89 1 -141 8 -153 9 -14 9 -23 -1 -38 -6 -11 -11 -39 -10
-62 l1 -43 7 45 c4 25 8 38 10 30 1 -8 2 -196 1 -417 -1 -261 1 -403 8 -407 6
-4 8 -13 4 -21 -3 -8 0 -15 6 -15 6 0 11 9 11 20 0 18 4 20 43 13 23 -5 102
-8 175 -7 74 1 128 -2 121 -7 -8 -4 88 -9 211 -11 124 -2 230 0 235 3 31 20
181 34 199 20 10 -8 17 -7 26 4 7 9 20 13 29 10 9 -2 36 -1 61 4 l45 9 -57 1
c-54 1 -72 11 -47 26 5 4 48 57 94 119 46 62 103 131 125 154 34 34 40 44 31
59 -10 17 -10 17 -11 1 0 -10 -5 -18 -11 -18 -8 0 -9 20 -3 73 9 79 7 228 -4
237 -11 8 -11 750 1 743 11 -6 80 -153 91 -193 4 -14 43 -137 87 -275 113
-353 151 -471 199 -625 23 -74 53 -163 66 -198 14 -34 23 -66 20 -71 -3 -5 3
-16 14 -26 31 -28 24 -35 -30 -35 -27 0 -50 -4 -50 -10 0 -14 544 -12 800 3
113 7 252 12 310 12 l105 0 20 -37 c11 -21 22 -38 25 -38 3 0 4 20 2 45 -3 33
0 45 9 46 8 0 6 3 -4 7 -16 7 -16 11 10 46 15 21 41 52 56 69 l28 32 -17 -30
c-10 -16 -29 -45 -42 -63 -14 -17 -21 -32 -18 -32 11 0 87 83 81 88 -3 3 2 14
12 24 9 10 14 18 10 18 -3 0 5 19 19 43 13 23 34 61 46 85 14 28 27 41 36 37
21 -8 9 30 -54 174 -30 68 -54 128 -54 132 0 5 -12 34 -26 66 -14 32 -30 67
-35 78 -18 42 -123 303 -144 360 -13 33 -33 85 -45 115 -12 30 -37 98 -55 150
-19 52 -48 133 -66 180 -17 47 -45 126 -61 175 -17 50 -33 97 -36 105 -3 8 -4
20 -4 26 2 11 -65 177 -111 275 -14 30 -29 66 -32 82 -4 15 -11 30 -17 33 -5
3 -4 12 3 20 8 10 8 14 0 14 -6 0 -11 -4 -11 -10 0 -16 -17 -11 -24 6 -7 19
20 54 41 54 7 0 13 4 13 9 0 10 61 80 171 196 87 90 159 189 159 217 0 10 5
18 11 18 5 0 7 5 4 10 -3 6 -2 10 2 10 8 0 28 58 38 109 2 14 16 59 29 100 29
88 43 181 51 341 3 63 10 167 15 230 11 139 7 216 -16 352 -3 15 -20 72 -39
128 -18 55 -31 100 -27 100 4 0 2 4 -5 8 -19 12 -56 114 -43 122 11 7 -54 140
-94 192 -12 15 -31 41 -44 58 -20 25 -21 30 -7 30 9 0 13 5 10 11 -4 6 -13 8
-20 5 -8 -3 -19 1 -25 9 -8 10 -8 14 1 17 18 6 -53 81 -136 143 -109 83 -371
218 -471 244 -23 6 -47 18 -54 27 -9 10 -15 11 -20 4 -5 -8 -49 0 -146 23
-175 44 -311 60 -489 59 -77 0 -312 -2 -521 -4 -302 -2 -380 0 -377 10 6 14
-6 15 -27 3z m330 -51 c109 -5 300 -6 434 -1 131 4 268 4 305 -1 36 -4 86 -10
111 -13 51 -6 114 -24 186 -53 27 -11 87 -32 133 -47 47 -14 98 -33 114 -41
15 -9 33 -14 39 -12 6 2 -12 15 -41 28 -28 14 -51 28 -51 32 0 12 9 10 105
-26 214 -80 458 -232 522 -325 120 -175 171 -270 138 -258 -9 4 -12 1 -8 -9 3
-7 9 -14 13 -14 5 0 16 -24 26 -52 9 -29 21 -58 26 -64 5 -7 8 -16 7 -20 -1
-5 0 -12 1 -16 1 -5 4 -12 5 -18 1 -5 4 -12 5 -15 1 -3 3 -10 4 -15 0 -6 7
-14 14 -18 11 -8 38 -110 63 -237 34 -180 31 -475 -7 -489 -14 -5 -13 13 4
107 6 28 6 50 1 53 -5 3 -7 10 -3 15 10 16 12 59 3 53 -5 -3 -6 8 -3 24 5 23
0 35 -21 56 l-28 28 8 -29 c13 -47 12 -225 -2 -239 -7 -6 -15 -25 -19 -40 -5
-24 -4 -27 7 -16 18 17 30 15 23 -3 -4 -8 -12 -15 -20 -15 -8 0 -14 -10 -14
-21 0 -17 3 -19 13 -10 11 9 14 5 15 -19 0 -20 -6 -33 -20 -41 -14 -8 -18 -17
-14 -34 3 -13 1 -27 -4 -30 -6 -4 -8 -16 -4 -27 3 -11 7 -43 7 -72 2 -47 0
-52 -16 -48 -13 3 -15 8 -8 15 17 17 13 31 -4 17 -19 -16 -19 -1 0 24 8 11 15
27 15 35 -1 10 -6 7 -14 -8 -13 -23 -14 -22 -14 28 0 40 3 51 14 47 8 -3 14
-1 14 5 0 5 -6 12 -14 15 -11 4 -12 13 -6 35 5 17 5 29 -1 29 -12 0 -6 35 10
54 12 14 12 16 -1 11 -12 -5 -15 1 -12 31 1 20 -1 47 -6 59 -5 13 -6 25 -3 29
9 8 9 96 1 96 -5 0 -8 6 -8 14 0 7 -8 16 -18 18 -11 3 -22 22 -29 54 -15 61
-28 145 -25 162 2 6 -1 12 -5 12 -4 0 -9 15 -10 33 -4 81 -77 241 -176 384
-38 56 -73 100 -77 98 -5 -3 -19 7 -32 22 -67 78 -239 204 -353 261 -79 39
-208 85 -304 108 -36 8 -93 22 -127 30 -162 38 -555 49 -954 27 -118 -7 -291
-15 -385 -18 -164 -5 -169 -5 -145 12 33 24 148 124 231 201 l68 62 63 0 c35
0 151 -5 258 -10z m587 -285 c278 -29 438 -66 632 -144 68 -28 140 -63 160
-79 20 -15 62 -45 93 -66 60 -39 184 -169 211 -221 8 -16 32 -47 52 -67 20
-21 34 -41 31 -47 -3 -5 1 -15 10 -22 8 -7 24 -30 35 -52 20 -38 83 -267 99
-360 5 -26 12 -57 15 -68 11 -35 13 -89 3 -82 -6 3 -7 -3 -3 -17 4 -14 3 -20
-2 -17 -6 4 -8 -4 -5 -19 4 -20 7 -22 19 -12 13 10 14 -16 9 -213 -7 -260 -9
-289 -18 -289 -3 0 -4 -9 -1 -19 3 -11 -2 -34 -11 -52 -9 -18 -16 -45 -16 -60
0 -16 -6 -43 -14 -61 -7 -18 -21 -58 -31 -88 -23 -73 -85 -200 -134 -276 -42
-66 -126 -141 -269 -237 l-86 -59 -18 24 -19 23 15 -30 c18 -38 8 -57 -36 -76
l-33 -14 34 -5 c31 -5 36 -11 73 -95 66 -147 157 -374 188 -465 15 -47 40
-112 55 -145 61 -135 155 -368 151 -372 -2 -3 -15 15 -29 39 -49 86 -396 736
-453 848 -53 107 -201 376 -356 650 -55 96 -123 223 -136 253 -2 4 2 7 8 7 28
0 109 130 138 220 37 113 50 216 45 366 -8 255 -71 402 -221 515 -79 60 -84
66 -28 36 29 -16 43 -21 35 -11 -7 8 -33 27 -58 40 l-46 25 40 -6 c21 -4 52
-13 67 -21 15 -8 28 -12 28 -9 0 13 -87 45 -121 45 -20 0 -51 8 -70 17 -61 31
-159 29 -378 -7 -77 -12 -97 -25 -25 -16 l50 6 -2 -592 c-2 -326 0 -621 4
-656 4 -34 4 -69 -1 -78 -16 -28 13 -35 118 -29 134 8 216 28 302 75 70 38 83
40 83 14 0 -11 40 -77 56 -93 2 -3 -9 24 -25 60 -16 35 -28 66 -26 68 10 10
30 -20 75 -109 28 -55 92 -175 144 -267 51 -92 131 -240 176 -328 103 -201
201 -382 300 -555 42 -74 130 -234 195 -355 65 -121 125 -231 135 -245 9 -14
41 -86 70 -160 29 -74 74 -187 100 -250 47 -116 65 -170 55 -170 -3 0 -84 158
-180 352 -174 348 -337 666 -380 743 -35 62 -217 409 -327 625 -55 107 -104
200 -110 205 -12 12 205 -420 346 -690 58 -110 189 -366 292 -570 102 -203
247 -489 322 -635 164 -321 170 -334 174 -350 2 -9 -18 -13 -75 -14 -87 -1
-91 1 -118 78 -8 22 -33 61 -57 87 -62 70 -109 82 -297 82 -180 0 -222 -10
-284 -67 -25 -23 -58 -50 -73 -59 -24 -15 -27 -24 -30 -79 l-3 -63 -62 -3 -61
-3 -7 33 c-4 18 -59 188 -122 378 -119 360 -122 371 -198 615 -87 277 -93 300
-99 365 -3 35 -10 68 -15 73 -4 4 -4 -14 0 -40 14 -87 7 -96 -27 -35 -63 109
-75 156 -78 307 -2 80 -1 147 2 150 3 2 12 -1 20 -7 12 -10 14 -9 11 7 -3 13
-14 21 -33 23 l-29 4 6 -126 c4 -78 3 -126 -3 -126 -5 0 -27 32 -47 72 -21 40
-67 103 -103 141 -60 63 -65 67 -74 48 -5 -12 -16 -21 -23 -21 -12 0 -13 -9
-7 -42 4 -24 6 -434 6 -913 l-1 -870 -478 0 -478 0 2 426 1 426 126 249 c123
245 167 327 284 541 77 139 87 160 73 148 -19 -18 -219 -381 -344 -625 -153
-299 -150 -294 -141 -205 9 91 16 106 290 575 21 36 66 115 100 175 33 61 112
196 174 300 126 211 298 506 336 575 l25 45 -26 -30 c-14 -16 -47 -66 -74
-110 -27 -44 -106 -174 -177 -290 -70 -115 -151 -250 -179 -300 -28 -49 -64
-110 -80 -135 -16 -25 -104 -178 -196 -340 -92 -162 -175 -304 -183 -315 -15
-19 -16 -15 -17 60 -1 168 1 606 6 1305 6 725 6 784 6 915 0 39 0 79 0 90 1
11 -2 180 -6 375 -4 195 -8 474 -9 620 -1 146 -4 271 -7 279 -6 22 39 29 126
19 76 -9 294 -4 540 11 198 13 469 11 612 -4z m13 -820 c59 -12 102 -40 171
-112 151 -156 199 -304 186 -573 -9 -175 -46 -293 -102 -319 -83 -40 -267 -66
-301 -43 -7 4 -8 36 -4 92 5 68 6 175 1 175 -1 0 -3 164 -5 365 -2 201 -7 380
-11 399 -7 30 -6 33 11 28 10 -3 35 -9 54 -12z m-255 -435 c4 -11 5 -46 4 -78
-2 -42 3 -65 15 -85 23 -34 38 -35 30 -2 -4 15 -2 25 5 25 6 0 11 -8 11 -18 0
-10 8 -18 19 -19 13 -1 18 3 14 13 -3 7 -9 11 -14 8 -5 -3 -9 0 -9 5 0 13 3
13 24 5 10 -4 16 -18 16 -35 0 -29 -13 -38 -25 -19 -14 22 -23 8 -22 -36 0
-28 6 -48 14 -51 7 -3 13 -12 13 -21 0 -13 -3 -12 -14 3 -12 17 -14 7 -10 -80
6 -139 5 -136 23 -122 12 10 13 9 3 -10 -16 -29 -15 -46 1 -37 9 6 9 4 1 -7
-11 -14 -11 -75 -1 -86 20 -19 49 41 36 75 -5 12 -5 22 0 22 5 0 2 26 -5 57
-13 58 -13 70 4 59 10 -6 16 -34 28 -128 l6 -47 -81 -83 c-44 -46 -87 -92 -94
-102 -13 -18 -14 -18 -19 0 -3 11 -4 35 -2 54 3 41 4 141 3 255 0 44 2 148 5
230 4 83 7 155 6 160 0 6 -1 34 -2 63 -3 53 5 68 17 32z m1171 -1433 c6 -12
41 -80 77 -152 108 -211 227 -467 227 -487 0 -10 5 -18 11 -18 5 0 7 5 4 10
-3 6 -1 10 4 10 18 0 88 -76 106 -114 10 -20 20 -34 23 -31 10 9 31 -16 25
-31 -3 -8 0 -14 6 -14 6 0 11 5 11 11 0 5 5 7 10 4 6 -3 10 -11 10 -16 0 -6
-4 -7 -10 -4 -5 3 -10 -1 -10 -9 0 -8 5 -18 10 -21 6 -3 10 -1 10 6 0 23 16
-4 37 -61 54 -144 95 -243 113 -277 11 -21 20 -41 20 -45 0 -4 11 -31 24 -60
66 -145 80 -187 54 -172 -8 4 -10 3 -5 -2 5 -5 13 -9 19 -9 8 0 79 -158 78
-174 -1 -3 -14 19 -30 49 -16 30 -29 48 -30 40 0 -22 39 -91 66 -117 23 -21
35 -71 14 -58 -5 3 -10 13 -10 21 0 8 -4 13 -9 9 -5 -3 -29 31 -53 75 -24 44
-47 80 -51 80 -15 0 73 -154 105 -184 31 -28 31 -29 14 -60 -9 -17 -49 -73
-87 -125 -39 -52 -75 -105 -80 -118 -12 -33 -24 -23 -40 34 -7 27 -19 59 -26
73 -7 14 -13 32 -13 41 0 8 -6 21 -12 28 -9 10 -10 15 -2 18 7 2 -7 40 -37 99
-27 53 -49 105 -49 117 0 11 -11 39 -24 61 -21 36 -48 112 -50 141 -1 12 -27
74 -71 170 -18 39 -45 104 -60 145 -28 76 -125 319 -151 377 -8 17 -14 34 -14
38 0 4 -6 21 -14 38 -19 42 -76 195 -76 203 0 3 7 4 15 1 11 -5 12 -1 5 16
-21 54 -50 111 -50 99 0 -7 -5 -10 -11 -6 -8 5 -8 9 1 14 8 5 2 24 -21 66 -18
33 -37 61 -41 62 -5 2 -6 7 -3 12 3 4 -2 21 -10 36 -8 16 -15 25 -15 19 -1
-19 -52 100 -53 125 -3 46 25 28 39 -26 7 -28 26 -77 43 -110 17 -32 49 -97
71 -144 22 -47 47 -97 55 -112 8 -14 15 -35 15 -46 0 -12 5 -24 10 -27 6 -3
10 -11 10 -17 0 -7 -5 -6 -14 1 -12 10 -13 8 -9 -8 3 -12 12 -21 20 -21 9 0
13 -6 10 -14 -3 -8 1 -20 9 -26 8 -7 14 -17 14 -22 0 -6 -7 -4 -17 3 -15 13
-15 11 1 -18 9 -18 17 -36 18 -40 1 -5 8 -24 16 -43 32 -77 35 -86 39 -103 1
-10 13 -37 25 -60 12 -23 23 -50 25 -60 2 -10 14 -42 27 -70 28 -60 38 -86 41
-107 3 -20 51 -144 69 -178 52 -99 78 -155 80 -175 4 -25 7 -36 44 -127 28
-70 52 -113 59 -106 3 2 -1 14 -7 26 -26 48 -70 185 -61 188 5 2 7 10 4 18 -3
7 -9 11 -14 8 -5 -3 -21 20 -35 52 -14 31 -43 93 -65 138 -21 44 -39 87 -39
96 0 23 -28 98 -61 165 -20 42 -24 53 -10 38 10 -13 22 -23 25 -23 6 0 -22 48
-34 60 -3 3 -7 14 -8 25 -2 11 -8 22 -13 23 -5 2 -9 7 -9 12 0 5 -4 19 -9 32
-5 13 -9 27 -9 31 0 4 -7 18 -15 30 -22 35 -51 147 -37 147 6 0 30 -59 56
-139 2 -8 7 -11 10 -9 3 3 -5 32 -16 64 -12 33 -24 68 -27 79 -4 11 -9 22 -13
25 -14 10 -63 116 -81 172 -17 58 -12 81 11 53 7 -8 10 -15 6 -15 -4 0 0 -12
8 -28 8 -15 17 -41 20 -57 11 -60 19 -81 47 -110 15 -16 41 -61 59 -99 17 -38
33 -66 36 -63 3 3 -8 32 -25 66 -33 65 -39 88 -16 57 8 -11 15 -16 15 -10 0 5
-9 20 -20 34 -16 20 -19 21 -14 5 6 -16 2 -14 -19 8 -32 33 -36 58 -6 31 16
-14 21 -15 17 -4 -2 8 -15 21 -29 27 -13 7 -23 18 -21 24 1 6 -2 17 -8 24 -6
7 -8 20 -4 28 3 9 -1 26 -10 38 -9 14 -13 32 -9 47 4 19 3 23 -7 17 -7 -5 -11
-4 -7 1 6 10 -8 39 -68 149 -59 107 -81 151 -89 171 -3 11 -9 25 -12 32 -3 6
0 12 8 12 7 0 18 -10 24 -23z m247 -369 c67 -143 89 -184 107 -201 10 -9 11
-7 5 10 -5 18 -3 22 10 17 8 -4 15 -11 14 -18 -3 -22 1 -33 21 -56 11 -13 20
-32 20 -44 0 -15 3 -17 9 -8 5 9 17 -6 38 -50 17 -35 29 -64 28 -66 -8 -9 -46
26 -51 45 -3 12 -26 39 -51 60 -26 21 -56 48 -67 61 -23 26 -103 197 -110 236
-3 14 -7 30 -11 36 -3 5 0 10 8 10 8 0 22 -15 30 -32z m-1318 -695 c8 -83 17
-204 19 -250 0 -29 7 -58 15 -65 11 -11 12 -6 6 32 -4 25 -9 90 -10 145 -2 55
-6 108 -10 118 -4 10 -3 17 3 17 16 0 21 -25 27 -125 3 -49 10 -121 16 -159 5
-38 7 -71 4 -74 -3 -3 -5 0 -5 6 0 7 -4 12 -8 12 -9 0 -5 -53 5 -80 6 -15 13
-70 9 -70 -2 0 -13 12 -27 27 -18 20 -20 25 -6 20 9 -4 17 -2 17 3 0 6 -4 10
-10 10 -5 0 -10 22 -10 49 0 28 -4 52 -9 55 -9 6 -7 -167 5 -347 l6 -99 18 27
c14 21 16 35 9 59 -8 29 -11 50 -25 156 -3 24 -8 48 -10 52 -3 4 -1 8 5 8 12
0 19 -27 24 -94 2 -32 9 -53 21 -62 10 -7 16 -19 14 -26 -3 -7 -1 -26 3 -41 7
-25 2 -35 -44 -85 -29 -31 -60 -68 -69 -82 -16 -24 -17 -12 -18 250 0 151 -3
312 -7 358 -4 52 -2 82 4 82 12 0 24 -148 24 -300 0 -174 11 -340 22 -333 5 3
6 50 2 122 -4 64 -9 181 -10 261 -3 118 -13 392 -17 419 0 3 0 15 1 25 1 27
12 13 16 -21z m-59 -349 c2 -104 6 -242 9 -306 2 -65 0 -118 -4 -118 -5 0 -7
-30 -6 -67 1 -58 -2 -75 -24 -110 -14 -23 -29 -42 -34 -43 -12 0 5 54 20 63 9
6 13 30 13 82 0 41 4 76 9 80 5 3 7 24 5 48 -3 23 -5 146 -5 272 -1 284 0 300
7 293 3 -3 7 -91 10 -194z m1428 -485 c43 -12 79 -46 107 -101 25 -49 24 -66
-2 -42 -19 17 -39 19 -230 19 -149 0 -211 -3 -220 -12 -9 -9 -17 4 -36 59 -19
57 -21 73 -11 79 19 13 347 11 392 -2z m124 -175 c12 -8 22 -18 22 -22 0 -4
-113 -8 -250 -9 -138 -1 -250 2 -250 7 0 5 7 16 16 24 23 24 429 24 462 0z"/>
<path d="M6430 5444 c-25 -10 -40 -36 -40 -69 0 -55 16 -66 85 -56 37 5 67 5
79 -1 22 -12 32 -3 40 38 6 25 2 38 -17 59 -19 23 -33 29 -78 31 -30 2 -61 1
-69 -2z"/>
<path d="M5975 5327 c-26 -45 -33 -101 -14 -112 6 -4 51 -8 101 -9 88 -1 91 0
100 24 12 31 4 84 -17 116 -14 21 -23 24 -80 24 l-64 0 -26 -43z"/>
<path d="M6545 4878 c-11 -6 -26 -19 -33 -29 -7 -10 -20 -25 -29 -35 -27 -27
-27 -108 0 -199 21 -70 27 -80 49 -83 19 -2 27 2 31 18 6 25 27 18 27 -8 0
-11 8 -18 23 -19 12 -1 32 -5 45 -8 12 -3 22 -1 22 4 0 5 -10 12 -22 14 -17 3
-14 5 10 6 18 0 32 -4 32 -10 0 -8 5 -8 15 1 8 7 12 16 9 21 -3 5 1 9 8 10 7
0 23 2 36 5 20 4 27 -5 23 -29 -1 -5 13 -7 31 -5 28 3 34 8 41 38 19 78 19 88
-2 128 -12 23 -20 45 -19 49 2 5 -3 15 -10 23 -7 8 -26 34 -43 58 -16 23 -41
47 -55 52 -35 14 -165 12 -189 -2z m194 -54 c21 -5 37 -16 46 -35 8 -15 15
-30 15 -33 0 -8 -250 -4 -255 4 -3 4 0 22 6 39 11 31 11 31 84 31 40 0 87 -3
104 -6z m-75 -92 l159 1 10 -24 c30 -76 12 -117 -45 -104 -61 13 -188 17 -188
6 0 -15 -67 -14 -77 2 -9 13 -43 117 -43 131 0 5 6 4 13 -2 7 -6 75 -10 171
-10z"/>
<path d="M5630 4625 c-14 -7 -36 -36 -49 -63 -15 -31 -32 -53 -45 -56 -16 -4
-18 -8 -9 -17 9 -9 6 -24 -14 -62 -27 -54 -26 -76 3 -154 19 -50 42 -62 65
-34 14 17 31 20 142 23 120 3 126 2 129 -17 4 -25 36 -31 62 -12 13 10 19 25
18 49 -1 23 6 43 20 58 18 19 21 33 19 89 -2 72 -27 133 -73 183 -26 27 -28
28 -135 28 -72 -1 -116 -5 -133 -15z m236 -80 c8 -20 12 -40 9 -45 -6 -9 -295
-15 -295 -6 0 8 29 72 36 79 4 4 59 7 121 7 l114 0 15 -35z m26 -106 c-6 -60
-23 -66 -179 -65 -76 1 -149 5 -163 10 l-25 8 24 -17 c13 -10 33 -18 45 -19
11 -1 21 -7 21 -15 0 -20 156 -16 168 5 12 20 34 17 40 -6 5 -18 7 -19 32 -6
14 8 32 22 40 32 14 18 14 18 15 -2 0 -11 -6 -29 -14 -40 -13 -17 -30 -19
-181 -22 -111 -2 -171 0 -180 8 -26 22 -26 59 -1 113 l25 52 168 -1 168 -1 -3
-34z"/>
<path d="M8404 7949 c-2 -4 32 -9 76 -11 44 -3 83 -8 87 -11 4 -4 -38 -53 -93
-110 -55 -56 -114 -119 -132 -140 -21 -25 -38 -37 -48 -33 -13 5 -15 -59 -11
-568 5 -564 5 -573 -15 -590 -18 -16 -19 -19 -4 -35 23 -25 20 -35 -19 -65
-52 -40 -62 -64 -36 -89 12 -13 34 -21 53 -22 l33 0 3 -60 2 -60 -56 -30 c-78
-42 -84 -54 -50 -99 l27 -36 -23 -29 c-13 -16 -40 -39 -61 -51 -44 -25 -53
-41 -38 -68 8 -15 6 -29 -11 -59 -16 -30 -31 -42 -67 -53 -48 -15 -58 -32 -47
-73 3 -12 19 -31 36 -42 43 -29 44 -41 5 -92 -19 -25 -35 -53 -35 -61 0 -18
66 -82 85 -82 23 0 55 -53 44 -73 -7 -12 -4 -25 13 -47 28 -39 63 -48 101 -27
47 28 63 23 64 -20 0 -21 7 -61 14 -90 10 -42 10 -54 0 -67 -7 -9 -17 -13 -22
-11 -4 3 -13 -5 -20 -17 -6 -13 -27 -42 -45 -65 -36 -44 -41 -62 -23 -80 7 -7
3 -18 -15 -36 -31 -31 -32 -38 -7 -68 17 -21 22 -22 46 -11 24 11 30 10 60
-15 l33 -28 -5 -790 c-3 -463 -9 -797 -15 -808 -5 -9 -6 -21 -3 -26 3 -5 7
-73 10 -150 l4 -141 -30 0 c-18 0 -28 -4 -24 -10 3 -5 20 -10 36 -10 19 0 28
-4 24 -11 -4 -6 -24 -9 -46 -8 -21 2 -41 0 -45 -4 -4 -4 16 -7 44 -7 34 0 52
-4 53 -12 1 -7 2 -20 3 -28 2 -8 3 -27 4 -42 1 -16 7 -28 13 -28 8 0 10 17 6
53 -3 30 -2 58 1 63 4 5 99 9 212 10 113 0 356 1 540 2 184 1 387 0 450 -3 63
-3 198 -7 300 -9 l185 -5 -150 12 c-216 17 -140 28 191 26 263 -1 645 8 653
16 2 3 -2 11 -8 19 -10 12 -4 15 43 21 30 4 61 5 68 2 7 -3 -1 -6 -19 -6 -21
-1 -33 -7 -36 -18 -4 -17 -5 -17 -6 -1 -1 11 -6 15 -15 12 -25 -10 -6 -33 25
-31 16 1 29 6 29 11 0 4 7 6 14 3 9 -4 17 2 21 14 5 14 16 19 48 20 23 1 56 3
72 4 17 1 35 -2 42 -7 7 -6 18 -6 25 -2 7 5 17 9 22 9 5 0 11 5 13 12 3 8 -11
13 -39 15 -40 3 -41 4 -18 14 25 11 11 14 -144 30 -22 2 -44 8 -50 14 -10 10
35 13 194 12 63 0 63 0 22 8 -41 9 -136 18 -196 19 -16 1 -26 4 -22 8 6 6 48
9 219 13 10 0 15 5 12 10 -4 6 -55 10 -121 10 -63 0 -114 4 -114 9 0 5 44 12
98 15 195 14 202 18 57 37 -71 9 -158 15 -192 14 -35 -2 -63 1 -63 5 0 5 14
18 30 30 37 26 135 147 165 204 12 22 39 79 59 126 21 47 44 99 52 117 8 17
14 38 14 47 0 8 6 33 14 53 24 67 47 147 51 178 2 17 11 62 19 100 9 39 21 95
27 125 5 30 15 78 20 105 6 28 11 65 12 83 1 17 6 32 11 32 8 0 3 141 -10 285
-3 33 -17 123 -31 200 -14 77 -27 150 -28 162 -5 39 -27 96 -58 147 -16 28
-38 69 -47 91 -37 84 -208 297 -251 314 -15 5 -10 16 32 71 27 36 56 80 64 98
9 17 20 32 26 32 6 0 8 4 5 9 -5 8 4 33 44 126 12 27 50 147 54 171 9 49 17
104 22 159 2 33 7 67 9 75 6 23 18 162 17 187 -1 12 3 35 9 50 20 51 11 338
-11 368 -4 6 -10 25 -13 43 -6 31 -5 33 15 26 21 -6 20 -5 -5 25 -28 34 -34
51 -17 51 6 0 10 -5 10 -12 0 -6 2 -9 5 -6 8 8 -16 58 -28 58 -6 0 -8 3 -5 6
4 3 -1 22 -9 42 -9 20 -22 64 -30 97 -8 33 -22 69 -32 80 -27 30 -37 50 -21
40 24 -15 -59 112 -109 168 -22 24 -23 27 -6 21 11 -4 35 -16 53 -27 17 -10
32 -16 32 -13 0 3 -32 24 -70 46 -39 22 -96 66 -127 97 -58 58 -78 71 -241
154 -52 26 -99 54 -105 62 -7 7 -75 28 -152 46 -77 18 -155 39 -173 47 -18 8
-47 14 -65 14 -18 0 -48 5 -67 11 -56 17 -1446 34 -1456 18z m340 -34 c50 -3
253 -8 451 -11 537 -9 633 -15 708 -43 13 -5 30 -6 37 -1 13 8 42 -3 68 -28 9
-8 18 -9 26 -3 14 12 246 -54 336 -96 36 -17 97 -51 136 -76 81 -53 231 -205
275 -281 17 -28 43 -72 60 -97 47 -75 119 -294 119 -362 0 -22 -1 -22 -20 3
-22 28 -26 50 -9 50 5 0 7 5 4 10 -4 6 -11 7 -17 4 -6 -4 -8 -2 -5 3 4 6 0 16
-7 23 -8 6 -13 20 -11 31 2 10 0 19 -5 19 -5 0 -12 11 -16 25 -3 14 -10 25
-15 25 -8 0 4 -47 47 -179 13 -41 22 -76 19 -79 -2 -3 -7 4 -11 14 -21 64 -77
213 -88 236 -11 20 -11 29 -2 38 8 10 5 11 -14 5 -19 -5 -21 -4 -10 4 12 9 0
26 -70 96 -47 48 -105 100 -130 117 -67 46 -150 89 -150 78 0 -5 9 -14 19 -19
10 -6 45 -33 77 -61 33 -27 65 -50 72 -50 6 0 12 -5 12 -11 0 -5 4 -8 8 -5 10
6 94 -77 91 -90 -3 -13 12 -46 31 -69 42 -49 171 -348 156 -362 -3 -3 -9 3
-12 13 -69 190 -182 374 -292 474 -193 175 -473 323 -691 364 -70 14 -336 34
-371 28 -18 -2 -1061 -23 -1137 -23 -29 1 -53 -3 -53 -8 0 -15 58 -24 106 -16
24 3 49 3 55 -1 7 -4 285 -8 618 -9 333 -1 622 -5 641 -8 19 -4 68 -11 108
-17 40 -5 81 -14 90 -19 9 -4 51 -16 92 -26 137 -33 275 -99 401 -191 178
-131 268 -259 358 -512 76 -213 84 -261 83 -497 0 -145 -5 -238 -16 -300 -22
-124 -33 -166 -45 -178 -12 -12 -52 12 -93 55 l-27 29 35 82 c28 68 33 86 23
103 -13 25 -49 44 -82 44 -12 0 -29 5 -37 10 -12 8 -11 13 8 33 19 20 21 28
12 51 -5 15 -8 31 -6 34 2 4 7 25 10 47 4 22 9 48 12 58 9 29 -24 67 -81 93
-51 24 -55 24 -91 9 -48 -20 -64 -19 -64 4 0 20 -18 31 -51 31 -10 0 -19 3
-19 8 -1 27 -18 32 -56 15 -28 -12 -34 -18 -21 -21 12 -2 16 -9 12 -23 -5 -14
-2 -17 9 -13 8 3 25 -4 37 -15 20 -19 24 -19 39 -6 22 20 29 19 23 -5 -4 -17
-1 -19 28 -15 18 2 45 9 60 15 34 14 116 -9 145 -41 17 -19 17 -20 -3 -47 -15
-20 -17 -31 -10 -43 12 -19 -16 -89 -35 -89 -6 0 -8 -3 -4 -7 11 -11 -65 -82
-82 -76 -10 4 -13 2 -8 -5 4 -6 -3 -16 -15 -23 -19 -10 -21 -9 -16 4 4 11 -2
17 -23 22 -17 4 -32 11 -35 16 -4 5 -16 14 -28 20 -13 7 -5 -6 21 -33 23 -24
42 -50 42 -57 0 -11 4 -10 18 2 10 10 23 17 28 17 5 0 25 11 44 24 35 24 35
24 62 4 16 -11 32 -17 37 -13 12 7 91 -24 91 -35 0 -5 3 -15 6 -23 4 -10 -4
-21 -23 -31 -15 -8 -23 -15 -18 -16 19 0 12 -44 -11 -77 l-24 -31 36 -36 35
-35 -41 -37 c-48 -43 -163 -184 -156 -191 2 -3 12 0 22 5 13 7 22 6 32 -4 22
-23 38 -16 78 33 22 25 56 64 76 87 21 23 38 44 38 49 0 18 -22 4 -51 -33 -18
-22 -37 -40 -42 -40 -6 0 -2 10 9 23 17 20 16 19 -9 -2 -15 -14 -23 -27 -17
-31 5 -3 -3 -21 -21 -41 -27 -31 -29 -32 -23 -9 7 25 7 25 -15 6 -30 -27 -26
-10 7 29 15 18 47 58 71 89 24 31 47 56 50 56 3 0 19 -11 35 -25 l29 -25 -23
-52 c-12 -29 -27 -56 -33 -60 -6 -3 -12 -14 -13 -23 -5 -31 -24 -46 -46 -34
-16 9 -24 7 -36 -5 -15 -15 -14 -16 11 -16 37 0 34 -20 -8 -59 -19 -17 -35
-36 -35 -41 0 -17 -26 -11 -45 10 -10 11 -24 20 -31 20 -7 0 -15 6 -17 13 -4
9 -8 8 -16 -3 -7 -11 -7 -16 1 -19 7 -2 21 -12 31 -22 11 -10 25 -15 33 -12
19 7 18 -11 -1 -27 -12 -10 -21 -10 -45 0 -17 7 -33 10 -36 8 -3 -3 7 -8 21
-12 22 -6 24 -9 15 -26 -6 -11 -17 -20 -25 -20 -7 0 -15 -3 -17 -7 -7 -17 -97
-83 -112 -83 -9 0 -16 -3 -16 -7 0 -13 77 -75 123 -99 55 -29 181 -150 171
-166 -4 -6 -9 -6 -13 -2 -3 5 -22 9 -41 10 -19 0 -48 3 -65 7 -19 4 -37 1 -52
-8 -32 -21 -29 -35 6 -25 15 4 40 5 55 3 23 -5 26 -9 21 -27 -4 -11 -8 -28
-10 -36 -10 -46 -19 -60 -39 -61 -11 0 -16 -3 -9 -6 8 -3 -1 -18 -25 -42 -20
-20 -41 -45 -47 -55 -14 -24 -85 -34 -85 -12 0 9 5 16 11 16 5 0 7 5 4 11 -5
6 -12 4 -21 -8 -14 -17 -15 -17 -9 5 4 13 1 28 -9 37 -18 19 -26 19 -26 1 0
-7 -6 -19 -14 -26 -8 -6 -12 -18 -9 -26 3 -8 1 -15 -3 -15 -43 -7 -54 -5 -54
8 0 9 6 13 15 9 9 -3 16 1 16 9 1 8 2 19 3 24 0 5 19 27 41 48 22 22 45 48 51
59 7 10 15 16 19 12 4 -4 -3 -21 -15 -38 -35 -49 -20 -42 37 16 50 53 58 68
19 39 -37 -28 -41 -15 -6 16 19 17 26 26 15 20 -11 -5 -60 -46 -110 -90 -49
-45 -93 -81 -97 -81 -5 0 -8 -5 -8 -10 0 -7 6 -7 19 0 34 18 37 11 6 -15 -31
-25 -51 -33 -40 -15 3 6 2 10 -4 10 -5 0 -12 -6 -14 -12 -4 -10 -8 -10 -15 1
-8 11 -11 11 -18 0 -13 -22 -11 -79 3 -79 7 0 13 -11 13 -24 0 -29 -36 -50
-90 -54 -59 -4 -68 10 -35 55 16 21 31 40 35 43 3 3 25 30 49 60 25 30 50 60
56 65 6 6 30 35 52 65 23 30 72 78 108 105 73 55 157 128 113 98 -15 -10 -28
-21 -28 -25 0 -5 -5 -8 -11 -8 -7 0 -31 -16 -55 -35 -47 -39 -54 -41 -54 -21
0 7 12 21 26 31 14 9 23 19 20 23 -4 3 -20 -7 -36 -23 -34 -33 -54 -26 -24 8
42 47 45 60 5 20 -44 -45 -49 -47 -66 -35 -16 11 -11 38 10 63 20 23 20 23
-14 -1 -20 -14 -29 -26 -22 -28 9 -3 5 -12 -10 -28 -27 -29 -50 -33 -24 -4 10
11 20 33 21 48 2 20 1 23 -7 12 -17 -26 -71 -135 -63 -128 4 4 13 3 19 -2 9
-8 14 -6 19 5 3 8 13 15 22 15 16 0 15 -2 -1 -20 -10 -11 -23 -19 -29 -17 -6
3 -23 -2 -38 -9 -18 -9 -29 -11 -33 -3 -5 7 -12 6 -23 -3 -13 -11 -14 -11 -10
2 2 8 11 15 19 15 15 0 38 25 58 62 9 19 9 22 -3 17 -8 -3 -22 -16 -30 -29 -9
-14 -26 -30 -38 -36 -22 -11 -22 -11 -7 7 9 10 27 39 39 64 l23 45 -23 -20
c-12 -11 -36 -39 -52 -62 -16 -24 -33 -43 -38 -43 -13 0 -13 47 0 55 12 8 13
45 1 45 -5 0 -28 -22 -51 -50 -36 -43 -97 -87 -107 -76 -5 5 87 86 98 86 5 0
9 5 9 12 0 6 8 20 18 31 17 19 16 19 -5 6 -13 -8 -23 -17 -23 -21 0 -5 -5 -8
-11 -8 -6 0 -9 7 -6 14 4 11 1 13 -10 9 -13 -5 -14 -3 -3 16 11 22 11 22 -16
5 -27 -18 -27 -18 -16 2 15 28 130 134 145 134 7 0 18 9 25 20 16 26 36 17 22
-9 -8 -16 -6 -17 16 -13 32 6 41 22 21 37 -14 10 -10 18 33 63 27 29 58 52 69
52 11 0 21 5 23 10 2 6 19 16 38 23 19 7 52 23 73 36 30 19 35 26 26 37 -9 11
-8 18 1 29 14 16 60 16 72 0 4 -6 13 -2 22 10 17 24 2 39 -25 24 -26 -13 -32
-11 -24 9 4 9 8 26 11 36 2 11 8 24 14 30 15 15 12 29 -5 22 -8 -3 -15 -1 -15
4 0 11 29 40 41 40 5 0 15 11 21 25 6 14 15 25 20 25 13 0 -20 -58 -39 -69
-10 -6 -13 -11 -6 -11 17 0 74 73 68 87 -2 7 1 12 8 10 7 -1 11 6 11 15 -1 10
2 15 7 12 5 -3 9 0 9 6 0 8 -10 9 -30 5 -23 -5 -30 -3 -30 9 0 9 -4 16 -10 16
-5 0 -10 -5 -10 -12 0 -6 -7 -20 -17 -30 -18 -20 -4 -25 16 -5 9 9 9 5 -1 -14
-17 -33 -70 -89 -83 -89 -5 0 -4 4 4 9 7 5 11 13 8 19 -4 5 2 17 13 27 10 9
17 22 14 29 -2 6 10 30 28 52 38 46 61 84 55 90 -3 3 -22 -16 -43 -42 -63 -76
-104 -114 -125 -114 -10 0 -19 6 -19 14 0 15 67 76 83 76 12 0 70 49 81 69 5
9 -8 1 -29 -17 -28 -26 -40 -31 -46 -21 -4 8 -10 11 -11 9 -2 -3 -12 -18 -22
-33 -16 -27 -19 -28 -35 -13 -16 15 -19 15 -36 -4 -19 -21 -8 -29 13 -8 23 23
23 0 0 -25 l-23 -25 -35 30 -34 31 23 18 c12 10 20 23 16 29 -3 5 -1 10 4 10
6 0 11 6 11 13 -1 12 -33 -21 -49 -52 -8 -13 -13 -13 -45 4 -32 17 -51 55 -27
55 5 0 17 12 27 28 15 23 15 25 1 14 -32 -27 -38 -6 -8 26 33 34 33 39 -2 21
l-22 -12 20 24 c12 13 27 32 34 42 12 15 12 17 -5 10 -10 -3 -21 -9 -24 -13
-15 -17 -114 -90 -118 -86 -7 8 77 101 155 172 40 36 73 70 73 77 0 6 -20 -8
-44 -32 l-44 -44 -27 27 c-14 14 -28 26 -30 26 -11 0 -154 -154 -150 -161 3
-4 -5 -5 -16 -2 -20 6 -20 7 -5 18 9 7 16 16 16 20 0 15 92 115 106 115 23 0
16 19 -10 26 -14 3 -26 13 -28 22 -3 12 -9 7 -22 -18 -28 -53 -46 -70 -77 -70
-26 0 -28 3 -25 33 2 17 7 41 11 52 4 11 -2 7 -14 -10 -11 -16 -21 -38 -21
-48 0 -17 -20 -19 -31 -3 -4 5 -2 22 3 38 6 16 8 31 5 34 -3 3 -8 -4 -12 -15
-15 -48 -25 -16 -24 77 1 100 -11 165 -43 241 -10 24 -17 45 -15 47 6 6 51
-89 63 -136 l13 -45 0 51 c1 67 -43 159 -76 158 -12 0 -20 2 -18 6 2 3 -31 36
-74 73 -108 91 -163 110 -336 111 -111 1 -129 -1 -126 -14 8 -32 8 -496 0
-512 -5 -9 -5 -18 0 -20 4 -2 11 -38 14 -80 6 -72 5 -77 -14 -83 -25 -8 -34
-1 -23 17 10 15 6 77 -7 98 -6 10 -9 11 -10 3 -1 -7 -3 -17 -4 -23 -1 -5 -3
-28 -4 -51 -1 -28 -5 -39 -13 -36 -7 2 -12 16 -11 31 1 14 -2 24 -8 21 -5 -4
-9 -17 -9 -30 0 -18 -4 -22 -20 -18 -13 3 -20 14 -20 29 0 26 20 74 31 74 4 0
10 7 13 16 6 15 4 15 -10 3 -10 -8 -25 -27 -36 -44 -10 -16 -18 -23 -18 -15 0
13 -1 13 -10 0 -12 -19 -13 -33 -2 -26 11 6 -1 -70 -16 -104 -6 -14 -11 -20
-11 -15 -1 6 -10 11 -21 11 -13 0 -20 -6 -18 -16 4 -31 -12 -68 -34 -73 -32
-9 -36 -2 -31 50 l4 48 -16 -28 c-9 -15 -15 -42 -13 -59 4 -36 -12 -42 -67
-25 -28 8 -35 16 -36 36 -1 21 -2 22 -6 6 -9 -36 -22 -39 -34 -9 l-11 29 -14
-31 c-14 -34 -41 -51 -57 -35 -7 7 -7 19 1 36 7 14 12 43 11 63 l-1 37 -8 -42
c-5 -23 -16 -53 -25 -67 -10 -14 -15 -32 -12 -39 4 -10 -3 -12 -24 -9 -41 6
-50 22 -38 66 16 57 5 65 -15 12 -18 -47 -18 -49 1 -74 11 -15 31 -33 46 -40
23 -11 25 -16 16 -41 -5 -15 -25 -43 -45 -62 l-34 -33 -16 22 c-17 25 -34 21
-34 -8 0 -19 39 -37 68 -32 16 4 15 -9 -4 -36 -20 -29 -32 -28 -73 9 l-35 30
19 55 c21 62 14 85 -9 29 -9 -21 -16 -41 -16 -46 0 -23 -25 -17 -56 15 -37 38
-44 42 -44 27 0 -13 116 -131 162 -165 l38 -27 35 34 c24 23 33 40 29 51 -8
20 73 146 93 146 8 0 12 3 10 8 -3 4 1 12 7 18 10 9 12 4 12 -22 -1 -19 -3
-34 -7 -34 -7 0 -83 -109 -104 -150 l-17 -35 41 40 c42 40 58 42 21 3 -11 -12
-20 -26 -20 -30 0 -15 35 9 59 41 28 36 37 38 46 11 7 -22 55 -29 55 -7 0 7
14 18 31 24 34 13 60 1 103 -46 25 -28 40 -27 25 2 -21 40 -74 106 -85 107
-14 0 -40 30 -27 30 5 0 15 -6 21 -12 13 -13 23 -4 36 27 4 12 36 -19 61 -62
26 -44 41 -42 48 6 2 21 14 48 26 60 21 21 30 68 11 56 -5 -3 -10 -10 -10 -15
0 -5 -10 -25 -21 -45 l-22 -36 -47 51 c-27 27 -51 50 -54 50 -2 0 -3 -10 -1
-21 5 -22 -17 -63 -28 -53 -3 3 -1 17 4 31 5 14 7 28 4 33 -5 9 20 23 47 25
10 1 29 10 43 19 29 19 65 13 65 -10 0 -8 -7 -29 -16 -47 -15 -30 -15 -31 1
-16 9 9 20 32 25 50 6 30 8 31 15 14 5 -11 16 -32 26 -46 10 -14 16 -37 15
-52 -2 -15 -1 -27 1 -27 15 0 43 23 43 36 0 8 5 25 12 37 20 36 57 147 49 147
-4 0 -22 -34 -41 -75 -18 -42 -38 -74 -44 -72 -13 4 -19 107 -5 107 5 0 9 9 9
20 0 11 5 20 10 20 6 0 4 -15 -5 -37 -23 -54 -10 -52 19 4 31 58 64 98 73 89
4 -4 1 -16 -6 -28 -9 -15 -9 -18 0 -12 9 5 11 -2 6 -30 -4 -23 -2 -34 4 -30
13 8 1 -86 -13 -103 -8 -9 -6 -13 6 -13 13 0 15 -11 13 -64 l-3 -64 51 -7 c64
-8 235 19 284 45 38 20 124 99 154 140 l18 25 -6 -27 c-3 -16 -2 -28 3 -28 15
0 32 24 32 45 0 12 7 30 15 41 8 10 15 30 15 44 0 30 40 130 52 130 13 0 9
-12 -17 -59 -14 -24 -24 -45 -22 -47 5 -6 43 49 51 74 4 12 14 22 22 22 20 0
18 -14 -6 -35 -11 -10 -20 -24 -20 -30 0 -7 -7 -18 -15 -25 -8 -7 -15 -16 -15
-21 0 -21 17 -5 50 46 33 51 50 67 50 46 0 -5 -7 -14 -15 -21 -17 -14 -20 -30
-5 -30 6 0 10 6 10 13 0 7 10 18 21 26 21 12 21 12 -2 -21 -13 -18 -26 -35
-30 -38 -12 -10 -30 -50 -21 -50 5 0 18 11 30 25 21 24 42 33 42 17 0 -4 -9
-13 -20 -20 -12 -7 -18 -18 -14 -25 4 -7 4 -9 0 -5 -5 4 -20 -4 -34 -18 -29
-26 -62 -32 -62 -11 0 7 5 18 12 25 6 6 9 14 6 18 -9 9 -67 -59 -60 -70 3 -6
7 -5 10 2 2 7 8 12 13 12 4 0 6 -6 4 -13 -3 -6 4 -18 16 -25 19 -12 24 -11 48
11 28 27 114 40 191 30 36 -5 40 -8 34 -27 -10 -35 -10 -40 6 -42 8 0 21 -2
28 -2 6 -1 20 -10 30 -20 10 -10 35 -31 56 -47 33 -25 37 -33 34 -62 -3 -23 1
-34 12 -38 32 -12 53 -34 43 -47 -19 -25 -23 -62 -8 -79 13 -14 13 -18 -5 -34
-11 -10 -20 -24 -20 -31 0 -7 -20 -23 -45 -35 -25 -13 -68 -45 -95 -72 -33
-33 -50 -44 -50 -33 0 13 -4 15 -18 7 -10 -5 -24 -6 -31 -2 -7 5 -22 6 -32 4
-11 -3 -19 0 -19 6 0 9 -5 9 -21 0 -17 -9 -25 -7 -42 9 -27 24 -63 36 -71 23
-10 -16 5 -39 30 -45 32 -8 31 -11 -34 -70 -54 -51 -81 -59 -37 -12 26 28 45
59 45 73 0 4 -7 -1 -15 -11 -10 -14 -15 -15 -15 -6 0 21 -15 2 -49 -62 -35
-65 -38 -76 -16 -58 24 20 18 5 -7 -16 -12 -10 -18 -13 -14 -6 4 6 2 12 -3 12
-6 0 -11 -6 -11 -14 0 -8 -7 -17 -16 -20 -12 -5 -10 3 8 26 23 30 61 96 63
108 3 16 42 87 57 102 22 22 23 42 2 34 -12 -4 -15 -2 -10 9 3 8 9 23 13 33 3
9 -8 2 -26 -17 -24 -26 -35 -31 -43 -23 -7 7 -20 12 -30 12 -22 0 -22 -1 -3
43 8 20 15 39 15 42 0 11 -26 -19 -34 -40 -5 -13 -10 -15 -13 -8 -3 9 -15 5
-39 -13 -33 -26 -34 -26 -34 -5 0 11 5 21 10 21 6 0 10 5 10 11 0 5 -4 7 -10
4 -5 -3 -10 -1 -10 4 0 6 4 11 9 11 9 0 26 48 22 64 -1 5 5 16 12 25 8 9 18
27 21 41 5 15 -3 8 -18 -19 -14 -23 -26 -49 -26 -56 0 -7 -12 -29 -26 -50 -14
-21 -30 -49 -35 -62 -5 -14 -13 -21 -19 -18 -6 4 -2 22 11 47 11 22 15 37 9
33 -7 -4 -18 -23 -26 -41 -18 -42 -33 -44 -28 -3 3 22 0 28 -9 23 -9 -6 -9 -4
-1 7 13 16 47 129 41 135 -10 10 -58 -146 -52 -168 6 -18 5 -20 -5 -11 -7 6
-16 26 -20 45 l-8 33 -1 -37 c-1 -21 -5 -38 -11 -38 -13 0 -13 55 1 103 6 22
8 41 5 44 -7 7 -25 -65 -28 -114 -2 -45 -17 -60 -19 -20 l-2 22 -4 -23 c-9
-48 -63 -35 -57 14 1 15 -1 36 -6 48 -7 18 -9 15 -9 -15 -1 -43 -6 -49 -32
-42 -14 4 -19 12 -16 24 3 11 1 19 -4 19 -5 0 -9 -7 -9 -16 0 -9 -5 -12 -12
-8 -7 5 -21 9 -31 9 -10 1 -22 8 -27 15 -4 7 -12 10 -18 6 -6 -3 -13 -2 -16 3
-3 4 -17 9 -32 9 -32 0 -20 -15 39 -43 39 -18 42 -23 41 -58 -1 -37 -29 -81
-44 -72 -5 3 -10 1 -12 -4 -1 -5 -15 -12 -29 -16 -25 -6 -27 -4 -34 42 l-7 48
-23 -51 c-25 -57 -43 -74 -56 -53 -7 11 -9 11 -9 1 0 -17 -25 -42 -40 -42 -7
0 -9 7 -6 16 3 9 9 28 13 42 6 25 5 26 -13 12 -10 -8 -31 -28 -46 -45 -23 -26
-29 -29 -47 -17 -35 21 -43 13 -21 -18 31 -43 20 -74 -37 -110 -26 -16 -50
-26 -53 -23 -3 3 1 8 8 10 6 3 12 11 12 19 0 8 5 14 10 14 6 0 10 5 10 12 0 6
-17 -5 -37 -25 -43 -43 -56 -47 -47 -12 10 39 -2 30 -25 -20 -25 -53 -25 -55
-6 -55 16 0 21 -16 7 -22 -14 -6 -75 -88 -70 -94 3 -3 27 22 53 56 27 33 53
59 59 58 6 -1 21 3 33 10 l23 13 -18 -30 c-9 -16 -27 -42 -39 -59 -18 -24 -20
-31 -9 -35 14 -6 96 73 96 92 0 5 14 19 30 31 17 12 30 17 30 11 0 -5 -10 -17
-22 -26 l-23 -17 25 8 c20 6 23 4 14 -7 -6 -8 -43 -55 -83 -105 l-72 -91 -55
22 c-30 12 -68 21 -84 19 -22 -3 -30 1 -35 16 -4 11 -11 18 -16 15 -14 -9 -11
-20 11 -45 15 -17 23 -21 31 -13 14 14 59 -4 59 -22 0 -7 -13 -27 -29 -45 -42
-49 -63 -87 -51 -95 6 -3 10 3 10 15 0 15 5 20 14 17 9 -4 13 -1 11 6 -3 7 13
32 34 56 33 39 41 43 67 37 l29 -8 -27 -19 c-32 -24 -79 -96 -108 -169 -12
-30 -26 -64 -31 -75 -4 -11 -15 -37 -23 -58 -9 -22 -20 -36 -26 -32 -6 3 -7
11 -4 17 4 6 1 14 -6 18 -10 6 -8 16 10 44 12 20 20 43 17 50 -3 8 3 22 14 32
10 9 19 21 19 26 0 4 -9 -1 -20 -12 -11 -11 -26 -17 -35 -14 -18 7 -19 0 -5
-27 6 -11 7 -18 2 -17 -5 2 -21 -12 -36 -29 -21 -25 -30 -30 -40 -21 -17 16
-2 45 52 103 39 43 59 81 48 92 -3 3 -11 -6 -17 -21 -15 -31 -29 -33 -60 -6
l-24 19 63 61 c34 33 62 63 62 65 0 13 -20 3 -41 -20 -31 -33 -74 -56 -92 -49
-8 3 -35 -11 -61 -30 -25 -20 -47 -36 -49 -36 -1 0 -3 57 -5 128 -3 119 -2
129 20 161 44 66 70 41 37 -34 -11 -25 -18 -51 -15 -58 2 -7 5 -4 5 6 1 9 19
37 41 61 l41 44 -26 26 c-18 18 -25 36 -25 64 0 21 3 42 7 46 10 9 12 76 3 76
-15 0 -42 -40 -37 -54 4 -9 -6 -27 -23 -45 -33 -33 -39 -29 -13 9 16 22 16 23
0 17 -16 -6 -25 8 -9 15 4 2 36 41 71 88 36 47 68 87 71 90 10 7 73 120 67
120 -2 0 -23 -29 -46 -64 -23 -35 -51 -72 -63 -82 -21 -19 -21 -19 -15 1 6 16
3 15 -13 -5 -11 -14 -20 -20 -20 -13 0 7 21 35 46 64 25 28 43 53 40 56 -11
11 -120 -133 -111 -147 6 -10 -15 -50 -27 -50 -18 0 4 66 41 120 22 33 36 60
31 60 -5 0 -12 -5 -15 -10 -4 -6 -11 -7 -17 -4 -6 4 -8 2 -5 -4 7 -11 -23 -72
-35 -72 -14 0 -2 134 12 138 8 3 10 0 5 -8 -5 -8 -3 -11 5 -8 22 7 23 28 1 28
-11 0 -22 4 -25 9 -11 17 -15 346 -5 383 5 20 29 64 54 97 25 34 45 64 45 67
0 3 14 26 31 52 l31 47 -40 -45 c-22 -25 -43 -42 -47 -38 -8 7 107 165 138
190 18 14 19 18 6 18 -23 0 -46 -22 -114 -107 -52 -67 -75 -86 -75 -65 0 4 6
14 13 22 6 8 3 7 -9 -3 -35 -29 -40 -19 -6 16 86 86 122 130 128 155 3 15 10
37 15 50 8 20 6 23 -8 20 -11 -2 -17 -12 -16 -23 2 -25 -46 -115 -62 -115 -6
0 -24 -18 -41 -40 -35 -48 -44 -50 -44 -10 0 28 14 42 22 20 5 -15 22 1 47 44
l22 39 -35 -26 c-19 -15 -39 -27 -45 -27 -16 0 -13 21 6 43 17 18 17 19 -2 16
-18 -4 -20 2 -23 73 l-3 77 28 3 28 3 -21 20 c-12 11 -24 37 -28 57 -8 42 -6
43 81 73 l53 19 31 -23 c29 -22 31 -22 44 -4 9 11 10 20 3 24 -7 4 -6 9 1 13
6 4 11 2 11 -3 0 -6 11 -11 24 -11 22 0 24 3 19 33 -9 57 46 88 93 52 26 -19
34 -19 34 3 0 20 24 45 53 55 9 4 17 11 17 17 0 19 -24 10 -56 -21 -30 -30
-34 -31 -68 -19 -31 10 -41 9 -61 -4 -14 -9 -25 -21 -25 -27 0 -5 -17 -27 -38
-47 -36 -35 -39 -37 -64 -23 -23 13 -31 12 -87 -12 -34 -15 -64 -27 -65 -27
-2 0 -6 181 -10 403 -3 221 -9 438 -12 482 l-6 80 131 131 c72 73 131 139 131
148 0 24 39 59 58 51 8 -3 56 -8 106 -10z m850 -1175 c121 -59 221 -200 214
-300 -1 -27 0 -46 5 -43 9 5 11 -7 11 -93 1 -40 -2 -67 -5 -62 -4 6 -12 2 -18
-10 -9 -17 -8 -23 5 -30 23 -13 14 -99 -14 -139 -18 -26 -32 -32 -91 -41 -38
-7 -86 -12 -106 -12 -35 0 -83 -17 -117 -42 -30 -22 -27 -75 -43 611 l-4 194
61 -7 c34 -3 80 -15 102 -26z m-1286 -909 l2 -283 -32 -41 c-17 -23 -34 -44
-36 -47 -3 -3 -7 1 -9 8 -3 9 -23 -6 -54 -40 -26 -29 -48 -46 -49 -38 0 8 16
31 36 51 26 26 32 39 23 44 -8 5 -10 4 -5 -3 4 -7 1 -12 -6 -12 -7 0 -22 -14
-33 -30 -23 -34 -30 -36 -51 -15 -8 8 -21 12 -29 8 -18 -6 -45 14 -45 34 0 21
57 91 80 98 11 4 20 11 20 17 0 6 -6 6 -15 -2 -13 -11 -15 -9 -15 13 0 17 -7
26 -21 30 -13 4 -19 11 -16 19 3 9 -4 14 -21 13 -16 0 -28 6 -29 15 -4 19 72
61 94 53 12 -5 15 -2 10 9 -4 12 -1 14 14 11 17 -5 23 4 17 25 -1 4 -8 6 -15
4 -7 -2 -13 2 -13 8 0 5 11 10 25 10 26 0 32 9 16 26 -5 5 -11 23 -13 39 -3
26 1 31 30 40 17 5 32 13 32 18 0 15 33 36 56 37 34 0 34 10 -1 45 -18 19 -32
42 -31 52 2 25 47 74 65 71 14 -3 16 -40 19 -287z m4 -408 c-2 -54 -4 -106 -3
-115 0 -20 -16 -23 -38 -9 -12 8 -11 17 7 61 13 30 17 50 10 48 -7 -3 -16 -17
-21 -34 -16 -49 -66 -114 -87 -114 -28 0 -25 17 8 37 15 9 29 18 31 19 2 2 -3
10 -11 17 -10 10 -20 12 -31 5 -31 -17 -17 7 41 72 33 36 64 75 71 88 21 40
27 23 23 -75z m2596 -172 c65 -111 162 -335 132 -305 -15 16 -60 104 -60 120
0 8 -5 20 -10 27 -6 7 -31 47 -55 90 -24 43 -75 115 -113 160 -39 47 -67 88
-64 97 7 21 122 -107 170 -189z m-1428 11 c-16 -33 -30 -66 -30 -71 0 -6 -6
-11 -12 -11 -10 0 -9 -3 1 -9 7 -5 10 -14 6 -21 -6 -9 -9 -9 -16 1 -6 10 -9
10 -9 2 0 -6 4 -15 10 -18 6 -4 6 -13 0 -25 -6 -11 -15 -29 -20 -40 -12 -23
-3 -25 24 -5 25 19 27 19 58 -6 22 -18 25 -25 18 -56 -10 -42 -11 -43 -48 -49
-24 -4 -34 1 -51 22 -12 15 -21 35 -21 45 0 11 -4 19 -9 19 -14 0 -19 33 -9
59 6 17 14 22 28 18 11 -3 20 -1 20 4 0 5 -4 9 -10 9 -16 0 -12 12 36 115 28
59 50 93 55 88 6 -6 -2 -33 -21 -71z m605 58 c4 -6 3 -9 -2 -8 -32 10 -113
-51 -171 -131 -13 -17 -28 -28 -33 -25 -9 5 -95 -54 -132 -91 -18 -18 -13 -39
6 -29 7 3 5 0 -4 -8 -9 -7 -14 -19 -11 -26 3 -10 8 -9 23 4 10 9 19 23 19 31
0 7 5 13 10 13 6 0 10 -5 10 -11 0 -5 5 -7 12 -3 8 5 2 12 -17 20 -21 9 -24
13 -11 14 12 0 16 5 13 14 -4 10 -1 13 9 9 11 -4 12 -9 3 -19 -18 -22 6 -16
26 6 10 11 23 20 28 20 6 0 3 -8 -5 -17 -9 -10 -25 -35 -37 -56 -16 -29 -19
-42 -11 -58 6 -11 8 -24 5 -29 -3 -5 0 -8 7 -5 7 3 19 1 27 -4 11 -7 5 -25
-29 -91 -24 -45 -49 -84 -56 -87 -18 -7 -84 64 -84 91 0 12 3 26 7 29 3 4 7
35 9 69 4 107 48 174 159 248 28 18 77 54 110 80 33 26 65 45 72 43 6 -2 14 1
18 6 8 14 22 14 30 1z m-430 -90 l7 -60 21 27 c12 15 21 31 20 35 -2 5 3 8 11
8 8 0 17 7 20 16 4 9 9 14 12 11 4 -3 -7 -34 -24 -69 -39 -83 -70 -167 -74
-198 -2 -14 -7 -28 -12 -31 -10 -8 -35 -124 -41 -189 -2 -24 -9 -46 -14 -48
-6 -2 -11 -13 -11 -23 0 -11 5 -17 10 -14 6 4 9 -7 9 -27 -1 -23 -3 -26 -6
-10 -2 12 -8 22 -12 22 -9 0 -7 -202 3 -218 10 -17 15 -98 21 -367 3 -126 8
-243 10 -260 14 -106 18 -125 27 -125 6 0 7 11 3 27 -11 44 -16 185 -6 179 4
-3 9 -40 10 -83 1 -42 7 -83 12 -90 8 -8 6 -18 -3 -32 -18 -25 -11 -77 27
-211 31 -108 58 -167 89 -192 12 -10 29 -25 38 -34 13 -13 29 -15 70 -11 50 5
92 -9 190 -60 4 -2 5 2 2 10 -3 8 -25 29 -49 46 -24 17 -47 36 -50 41 -7 11
43 -8 60 -22 5 -4 17 -8 26 -8 9 0 22 -7 29 -15 7 -8 25 -15 41 -15 19 0 29
-5 29 -15 0 -17 9 -19 30 -5 13 8 13 10 -2 10 -9 0 -21 6 -25 13 -4 7 -21 21
-38 31 -44 27 -85 68 -79 78 3 4 14 8 25 8 11 0 17 -5 14 -10 -4 -6 -11 -7
-17 -4 -6 4 -9 1 -6 -7 3 -8 18 -14 34 -15 62 -2 74 -4 72 -16 -2 -8 5 -12 15
-10 10 2 24 -1 30 -6 7 -5 38 -10 69 -11 31 0 76 -7 100 -15 71 -23 118 -27
118 -10 0 10 -12 14 -43 14 -42 0 -97 18 -97 32 0 14 21 19 52 10 39 -10 118
-4 118 9 0 5 -17 9 -37 9 -21 0 -76 -1 -122 -1 -47 0 -88 -2 -93 -5 -4 -3 -8
-1 -8 4 0 5 14 15 32 23 17 7 27 14 20 17 -6 2 -29 -6 -52 -18 -50 -25 -70
-17 -39 16 29 31 18 30 -35 -1 -24 -14 -45 -22 -49 -19 -3 4 6 22 20 41 14 18
23 37 19 40 -4 4 -18 -7 -32 -25 -30 -37 -52 -42 -49 -9 3 29 -3 37 -21 30
-11 -4 -12 -9 -3 -19 9 -11 6 -14 -18 -14 -16 0 -33 -4 -38 -9 -19 -17 -73 1
-112 38 -39 38 -64 81 -105 185 -19 50 -21 60 -8 64 8 2 43 33 77 68 86 89
128 186 145 339 14 124 14 103 -8 295 -9 79 -59 207 -103 265 -21 27 -36 55
-34 61 3 8 26 10 71 7 49 -3 63 -2 52 6 -8 6 -26 11 -40 11 l-25 0 29 25 c16
14 34 24 40 22 13 -4 50 33 41 41 -4 4 -12 -1 -19 -11 -15 -19 -32 -22 -41 -7
-4 6 -1 9 7 8 7 -2 12 2 11 9 -3 14 66 87 99 104 22 12 22 11 8 -6 -14 -17
-14 -17 18 -1 34 17 44 33 15 21 -13 -4 -15 -3 -7 5 6 6 18 8 27 4 15 -5 15
-8 -1 -29 -9 -12 -23 -20 -30 -17 -8 2 -13 -1 -12 -9 4 -26 0 -39 -11 -39 -8
0 -7 6 2 17 12 14 12 16 -1 11 -8 -3 -14 -15 -13 -27 2 -11 -2 -21 -8 -21 -5
0 -7 5 -3 11 4 7 1 10 -7 7 -8 -3 -14 -12 -14 -20 0 -8 -5 -22 -11 -29 -23
-29 -25 -39 -10 -33 9 3 16 10 16 15 0 5 16 23 36 41 35 32 104 119 104 132 0
3 -7 2 -17 -1 -11 -4 -14 -3 -9 6 5 7 14 10 21 7 7 -2 27 11 45 29 18 19 37
32 41 29 12 -7 -69 -111 -233 -297 -16 -17 -28 -37 -28 -43 0 -6 -9 -14 -21
-17 -39 -10 -14 -32 47 -40 39 -6 65 -5 76 2 10 6 28 11 41 11 13 0 34 11 47
24 22 25 23 35 5 94 -6 16 -3 22 8 22 9 0 19 -4 22 -10 11 -18 62 -11 76 11
l14 21 28 -26 c34 -31 33 -31 92 -6 33 14 50 29 58 49 7 20 20 31 39 35 17 3
32 15 37 29 5 12 16 28 24 35 10 9 13 24 10 50 -6 46 16 69 71 74 39 3 41 1
98 -72 75 -96 140 -227 178 -360 30 -104 60 -241 60 -270 -1 -31 -28 50 -40
118 -6 40 -16 74 -21 78 -13 8 -12 3 27 -198 32 -165 36 -195 31 -303 -5 -140
-55 -405 -89 -475 -13 -25 -23 -48 -23 -51 0 -3 -8 -17 -17 -30 -10 -13 -32
-51 -49 -84 -52 -100 -186 -256 -232 -271 -29 -9 -100 -58 -137 -94 -46 -45
-303 -124 -500 -155 -191 -30 -442 -43 -660 -34 -529 22 -766 27 -777 15 -4
-3 20 -6 53 -6 32 0 66 -5 74 -10 10 -6 -42 -10 -157 -10 l-172 0 5 33 c10 76
15 831 9 1261 -2 129 2 169 16 160 5 -3 9 -1 9 5 0 5 -5 11 -12 13 -12 4 -19
116 -8 123 3 2 4 76 2 163 l-4 160 23 7 c13 4 34 17 46 28 13 11 26 17 30 13
5 -5 -9 -23 -30 -41 -37 -32 -42 -55 -12 -55 8 0 12 6 9 13 -2 7 7 24 21 37
l26 24 25 -27 c14 -15 21 -28 17 -28 -35 -5 -73 -21 -73 -30 0 -13 14 -11 28
3 6 6 15 8 19 4 4 -4 -2 -15 -13 -24 -12 -9 -24 -24 -27 -33 -9 -26 27 -75 61
-82 33 -7 48 -33 31 -54 -10 -11 -6 -20 21 -44 l33 -31 38 19 c22 10 39 21 39
25 0 3 16 12 35 18 19 6 43 22 54 36 22 29 67 32 112 8 28 -14 32 -14 48 0 10
9 23 16 29 16 7 0 12 13 12 29 0 16 8 35 17 42 18 15 18 15 -5 -41 -5 -12 0
-11 22 3 15 10 29 17 31 15 8 -9 -18 -51 -34 -55 -21 -5 -18 -33 4 -33 14 0
44 31 59 63 8 15 22 23 44 25 17 2 32 9 32 15 0 7 25 32 56 56 84 66 84 65 83
-224 -2 -314 -1 -514 3 -710 l3 -160 33 -3 c17 -2 32 -7 32 -11 0 -4 -14 -28
-31 -52 -73 -103 -199 -210 -199 -169 0 6 6 10 13 10 8 0 23 19 33 42 10 23
29 57 41 75 37 54 11 37 -34 -24 -24 -31 -43 -62 -43 -69 0 -25 -16 -14 -28
19 -6 18 -19 42 -27 52 -14 19 -15 18 -8 -10 3 -16 15 -50 26 -74 21 -48 24
-42 -48 -86 -22 -13 -52 -27 -67 -30 -16 -4 -28 -11 -28 -16 0 -5 1 -9 3 -9
17 0 123 45 194 84 92 48 148 100 216 200 39 58 97 264 97 347 0 14 3 29 7 32
11 12 19 259 9 276 -3 4 -8 46 -11 92 -4 46 -9 92 -12 103 -3 10 -7 35 -8 55
-6 68 -81 229 -143 308 -35 43 -61 61 -189 127 -81 42 -163 89 -181 104 l-33
27 26 1 c14 1 25 -2 25 -6 0 -8 96 -52 155 -70 77 -24 121 -50 193 -116 39
-37 72 -64 72 -61 0 4 -19 29 -42 57 -98 115 -100 119 -94 148 6 26 6 26 -9 8
-8 -11 -15 -25 -15 -32 0 -13 -47 -7 -56 7 -8 14 51 118 63 111 6 -4 34 -54
62 -112 29 -58 56 -109 61 -114 31 -31 9 46 -40 144 -17 33 -37 81 -46 107 -9
27 -25 60 -35 74 -10 14 -16 29 -12 33 3 3 1 6 -5 6 -7 0 -25 14 -42 31 -16
18 -43 41 -59 53 -23 17 -26 24 -16 33 11 10 32 -6 106 -77 51 -49 95 -88 97
-86 2 2 -9 23 -24 45 -15 23 -24 45 -20 48 4 4 12 1 17 -7 8 -11 9 -9 4 10
-10 35 7 16 39 -45 14 -27 26 -58 26 -67 0 -10 9 -27 20 -38 12 -12 18 -25 15
-30 -4 -6 3 -22 13 -38 11 -15 27 -43 36 -62 16 -36 37 -71 47 -80 3 -3 18
-22 33 -42 16 -21 33 -35 38 -32 6 4 5 10 -3 15 -10 6 -11 9 -1 9 6 0 12 6 12
14 0 8 6 17 13 20 7 3 -6 21 -36 48 -26 24 -47 46 -47 51 0 12 28 8 33 -5 3
-9 13 -5 31 12 18 18 30 45 39 86 7 34 18 68 25 77 7 9 20 52 28 97 7 45 16
86 20 91 13 22 22 5 29 -51z m-1350 -448 c-7 -19 -25 -5 -25 20 0 17 -2 18
-15 8 -20 -17 -32 -5 -15 15 10 12 10 15 -5 15 -9 0 -19 -9 -22 -20 -3 -11
-14 -20 -25 -20 -27 0 -18 22 16 38 25 12 26 15 12 30 -8 10 -15 20 -15 25 -2
14 28 62 61 97 l33 34 3 -114 c1 -62 0 -120 -3 -128z m1659 181 c-18 -57 -33
-86 -80 -158 -28 -44 -59 -93 -68 -110 -9 -16 -37 -57 -61 -90 -56 -76 -111
-183 -120 -235 -8 -47 -26 -54 -20 -8 2 18 0 37 -5 43 -5 6 -10 31 -12 55 -3
51 -5 49 102 158 41 42 93 108 115 145 22 37 61 98 88 135 26 36 47 70 47 74
0 5 4 8 10 8 5 0 7 -8 4 -17z m-1090 -38 c20 -15 20 -15 0 -30 -10 -8 -33 -17
-51 -21 -33 -6 -81 -49 -70 -61 4 -3 14 2 21 13 8 10 18 15 23 11 4 -5 -1 -15
-12 -23 -17 -13 -18 -16 -5 -24 13 -8 8 -14 -11 -12 -3 1 -5 -10 -3 -23 1 -14
-2 -25 -7 -25 -6 0 -7 -5 -4 -10 4 -6 3 -10 -2 -9 -20 3 -27 -2 -13 -11 9 -6
10 -10 3 -10 -21 0 -24 19 -7 47 16 26 15 25 -14 -5 -32 -33 -41 -49 -22 -37
13 8 13 -1 -1 -27 -9 -18 -9 -20 4 -15 11 4 8 -5 -9 -30 -13 -20 -29 -54 -36
-77 -15 -55 -29 -72 -40 -52 -5 9 -1 28 13 53 l21 38 -26 -28 c-14 -15 -26
-39 -26 -52 0 -27 -17 -42 -31 -28 -5 5 5 31 26 63 19 29 37 58 39 64 3 7 9 5
15 -4 9 -13 11 -13 11 3 0 9 -5 17 -11 17 -8 0 -8 4 1 15 6 8 9 18 6 24 -3 5
-1 11 5 13 6 2 22 28 34 58 16 38 29 54 39 52 9 -2 16 4 16 13 0 9 -4 13 -10
10 -5 -3 -10 -3 -10 1 0 8 112 131 120 133 3 0 14 -6 24 -14z m1011 -357 c56
-94 86 -197 93 -311 7 -136 -8 -197 -62 -244 -40 -34 -148 -93 -171 -93 -8 0
-15 24 -18 63 -7 68 -2 380 6 412 3 11 10 40 17 65 15 60 71 170 86 170 6 0
28 -28 49 -62z"/>
<path d="M9317 7299 c-15 -11 -44 -23 -64 -26 -66 -10 -138 -88 -163 -176 -9
-31 -15 -37 -28 -32 -43 18 -53 16 -81 -14 -26 -28 -34 -31 -69 -25 -32 5 -43
2 -56 -12 -94 -109 -91 -103 -73 -132 8 -15 26 -30 39 -33 15 -3 22 -12 21
-25 -6 -53 -17 -86 -29 -91 -15 -6 -19 -23 -5 -23 4 0 20 11 33 25 19 19 26
36 26 68 1 24 6 56 12 71 12 34 12 36 0 36 -5 0 -10 -9 -10 -19 0 -32 -20 -35
-46 -9 -29 29 -25 47 17 72 17 10 28 24 25 31 -8 23 66 37 79 15 11 -17 46
-12 43 7 -2 10 8 23 24 32 23 13 31 14 49 3 11 -7 22 -12 23 -10 4 4 39 73 63
123 12 26 27 41 41 43 12 2 22 9 22 16 0 16 34 34 85 44 25 5 40 13 40 22 0
23 63 25 86 4 23 -21 26 -2 3 20 -22 22 -76 20 -107 -5z"/>
<path d="M9396 7246 c41 -18 65 -53 58 -83 -5 -19 -2 -23 19 -23 18 0 32 -10
47 -35 12 -19 25 -35 30 -35 18 0 113 49 135 70 66 62 136 68 150 12 5 -21 1
-31 -17 -45 l-23 -19 25 -17 c47 -30 72 -61 67 -82 -4 -17 -2 -19 16 -13 l22
6 -23 -24 c-12 -13 -20 -27 -17 -30 3 -2 -4 -13 -15 -23 -23 -21 -28 -44 -5
-25 21 18 65 -2 66 -30 1 -11 1 -30 2 -43 1 -12 -2 -28 -7 -35 -4 -6 -3 -12 2
-12 16 0 28 24 26 50 -4 42 6 60 32 60 13 0 24 5 24 11 0 7 -11 9 -30 6 -18
-4 -30 -2 -30 4 0 6 5 7 10 4 6 -3 10 1 10 9 0 18 37 21 60 5 11 -8 12 -12 2
-16 -16 -6 -6 -23 14 -23 9 0 39 16 68 35 46 30 60 34 114 34 34 -1 69 -7 79
-15 17 -12 17 -15 2 -42 -19 -33 -9 -62 21 -62 32 0 34 -20 5 -50 -30 -31 -27
-44 15 -77 13 -10 12 -14 -5 -27 -23 -18 -45 -21 -45 -5 0 5 -5 7 -11 4 -6 -4
-8 -13 -5 -21 3 -7 0 -16 -6 -20 -7 -4 -8 -3 -4 4 16 27 -8 8 -62 -46 -31 -32
-66 -64 -77 -72 -12 -8 -34 -32 -50 -54 l-29 -39 24 8 c14 4 35 17 48 28 17
16 22 17 22 6 0 -8 -5 -20 -12 -27 -25 -25 7 -11 35 16 30 27 29 15 -2 -23 -9
-11 -1 -7 18 8 21 18 40 26 52 22 21 -7 26 10 7 19 -7 3 -3 3 10 0 12 -3 22
-1 22 5 0 6 -5 11 -11 11 -6 0 0 15 15 34 14 19 26 39 26 45 0 12 12 15 44 11
19 -2 19 -1 2 25 -15 23 -16 29 -5 36 8 5 18 9 22 9 10 0 -2 60 -15 77 -7 8
-5 20 6 35 23 33 20 65 -9 84 -21 14 -25 23 -23 53 3 32 -1 38 -32 53 -57 29
-117 24 -176 -16 -50 -34 -50 -34 -75 -15 -29 22 -72 24 -89 4 -28 -34 -36
-14 -15 37 5 13 -8 33 -50 77 -33 35 -52 62 -46 66 6 3 11 21 11 40 0 44 -38
75 -91 75 -29 0 -42 -6 -53 -23 -20 -29 -76 -63 -76 -45 0 7 -13 -2 -29 -20
-37 -39 -56 -40 -75 -4 -8 15 -25 33 -38 39 -16 7 -29 26 -36 52 -12 40 -14
41 -55 41 l-42 -1 31 -13z"/>
<path d="M9548 3655 c-3 -49 -12 -109 -21 -132 -8 -24 -11 -43 -6 -43 5 0 0
-15 -10 -34 -11 -19 -17 -36 -14 -39 2 -3 -2 -16 -10 -29 -8 -12 -18 -36 -21
-52 -4 -16 -32 -53 -61 -83 -41 -40 -51 -55 -40 -59 9 -4 37 12 71 40 31 25
63 46 70 46 14 0 22 3 82 33 17 9 32 12 32 8 0 -4 17 -15 38 -24 20 -9 61 -30
91 -47 52 -29 109 -41 96 -20 -3 6 -16 10 -27 10 -12 0 -44 18 -73 39 -28 21
-60 40 -70 42 -13 3 -22 17 -28 42 -10 41 -22 48 -30 17 -7 -26 -27 -26 -27 1
0 11 -5 17 -10 14 -6 -4 -7 -12 -4 -18 5 -8 4 -9 -3 -2 -7 7 -8 52 -3 136 5
88 4 145 -4 185 l-12 59 -6 -90z"/>
<path d="M12473 7933 c-90 -2 -163 -7 -163 -12 0 -14 216 -31 340 -27 169 5
160 4 160 26 0 19 -6 20 -87 18 -49 -1 -161 -4 -250 -5z"/>
<path d="M12640 7221 c-93 -27 -202 -79 -194 -93 4 -7 3 -8 -4 -4 -7 4 -20 2
-29 -4 -16 -10 -16 -11 2 -5 24 8 19 2 -65 -60 -61 -46 -64 -43 -15 14 l20 24
-33 -19 c-19 -10 -38 -27 -43 -36 -5 -9 -32 -43 -60 -75 -75 -86 -164 -272
-191 -398 -31 -146 -30 -341 2 -450 13 -44 24 -89 25 -100 1 -18 53 -123 200
-403 67 -127 147 -276 155 -287 4 -5 47 -83 95 -173 l87 -163 -17 -102 c-9
-56 -23 -109 -31 -118 -10 -11 -11 -18 -3 -26 9 -9 7 -33 -5 -94 -11 -57 -13
-86 -6 -93 5 -5 10 -21 11 -35 0 -26 1 -26 11 -4 10 20 18 22 102 22 50 1 112
3 139 5 44 3 60 -5 37 -19 -5 -3 -1 -14 10 -25 25 -25 33 -25 25 -1 -5 16 -2
18 15 14 11 -3 20 -1 20 5 0 15 37 21 68 12 15 -5 20 -9 12 -10 -8 -1 -22 -3
-30 -4 -8 -2 -23 -3 -32 -4 -24 -3 -23 -28 2 -35 11 -3 20 -1 20 4 0 4 7 6 15
3 8 -4 15 -1 15 6 0 8 9 11 25 8 14 -3 28 -1 31 3 9 15 29 10 52 -11 27 -25
36 -26 23 -2 -20 37 29 58 51 22 7 -11 17 -20 22 -20 4 0 3 7 -4 15 -10 12
-10 15 3 15 8 0 17 -4 19 -9 2 -5 30 -10 63 -11 78 -3 87 -2 81 9 -3 5 -15 7
-25 4 -10 -3 -21 -1 -24 4 -3 4 18 9 47 10 47 2 50 1 31 -13 -18 -14 -14 -15
45 -9 36 4 82 6 103 5 20 0 37 4 37 10 0 9 -51 14 -125 11 -16 -1 -36 3 -44 8
-16 10 73 31 124 29 54 -2 65 1 59 17 -5 12 -28 14 -143 10 -146 -6 -186 -2
-195 20 -2 7 -12 62 -21 122 -9 59 -23 141 -30 182 l-12 74 146 292 c80 160
167 338 193 395 26 58 63 139 81 180 19 41 38 86 42 100 4 14 11 30 15 35 14
17 68 217 81 294 20 131 -11 315 -78 461 -78 167 -233 339 -342 379 -32 12
-76 33 -97 47 -65 44 -124 55 -319 60 -154 3 -189 1 -245 -15z m477 -61 c139
-40 269 -106 260 -133 -1 -5 -23 -16 -47 -23 -42 -12 -47 -12 -88 12 -24 15
-68 48 -98 75 -30 27 -58 49 -62 49 -11 -1 99 -99 147 -131 28 -18 39 -30 30
-33 -22 -8 -101 -31 -294 -86 -99 -28 -223 -69 -275 -91 l-94 -40 -21 28 c-52
71 -180 213 -183 203 -3 -7 11 -28 30 -48 61 -65 148 -173 148 -184 0 -5 -7
-8 -15 -4 -12 4 -13 2 -3 -14 10 -15 9 -22 -3 -37 -49 -56 -115 -224 -159
-401 -9 -36 -23 -52 -82 -100 -39 -31 -100 -81 -136 -111 -70 -58 -83 -58 -85
3 -1 20 -4 36 -8 36 -4 0 -12 23 -19 50 -15 61 -9 298 7 308 6 4 18 35 27 69
24 96 69 204 121 292 37 64 52 81 70 81 12 0 28 -7 35 -15 6 -8 58 -46 113
-85 74 -51 89 -59 57 -30 -25 22 -80 64 -122 93 -43 29 -77 55 -78 58 0 15
161 124 235 159 203 95 383 110 592 50z m345 -211 c22 -23 37 -48 34 -55 -3
-7 8 -25 24 -41 16 -15 27 -31 24 -35 -3 -5 0 -7 7 -6 6 2 14 -3 17 -11 3 -8
0 -11 -7 -7 -22 14 -11 -13 14 -32 28 -23 33 -34 9 -25 -9 3 -4 -6 10 -20 14
-14 26 -32 26 -40 0 -8 7 -28 15 -45 22 -43 32 -141 28 -279 -3 -140 -10 -200
-25 -209 -6 -4 -24 8 -39 27 -36 43 -130 230 -168 334 -48 132 -160 407 -172
421 -12 15 13 31 81 50 70 19 81 17 122 -27z m-245 -66 c-3 -32 -11 -131 -18
-220 -7 -90 -16 -163 -19 -163 -3 0 -21 25 -40 56 -107 171 -311 215 -496 108
-57 -33 -79 -60 -115 -139 -42 -92 -47 -71 -9 35 43 118 70 157 134 186 57 26
532 191 555 193 11 1 12 -11 8 -56z m97 -156 c30 -73 73 -181 96 -242 22 -60
61 -147 86 -193 25 -46 44 -86 42 -87 -2 -2 -64 37 -138 86 -74 50 -150 97
-169 105 -32 13 -33 15 -28 61 3 27 11 135 18 241 11 156 15 190 25 177 7 -9
37 -76 68 -148z m-328 -85 c155 -79 219 -260 147 -413 -42 -89 -73 -123 -155
-164 -86 -43 -140 -46 -214 -11 -66 31 -120 86 -153 155 -37 81 -36 192 2 274
38 84 80 132 140 162 45 23 61 26 122 22 45 -2 85 -12 111 -25z m-494 -275
c-5 -89 22 -193 70 -258 41 -56 61 -73 128 -105 44 -22 69 -27 131 -27 65 0
88 5 143 31 36 17 66 29 66 26 0 -3 -20 -31 -44 -63 -53 -68 -115 -171 -92
-152 9 7 26 30 38 50 31 51 104 147 161 211 27 30 57 71 67 90 24 47 50 141
50 179 0 17 2 31 5 31 6 0 126 -73 180 -110 22 -15 73 -48 113 -73 39 -26 72
-53 72 -60 0 -7 -98 -61 -217 -121 -120 -60 -288 -151 -374 -202 -86 -52 -161
-94 -167 -94 -6 0 -34 35 -61 78 -28 42 -75 102 -105 132 -31 30 -56 60 -56
67 0 7 -10 17 -21 24 -17 9 -19 13 -8 20 11 6 8 14 -13 36 -42 44 -108 136
-108 150 0 7 6 11 13 9 6 -1 9 -1 6 1 -7 4 -3 117 6 171 11 60 22 33 17 -41z
m-31 -224 c29 -43 55 -80 58 -83 4 -3 24 -30 45 -60 22 -30 65 -84 96 -120 31
-36 69 -83 85 -104 24 -33 25 -38 9 -32 -10 5 -41 16 -69 26 -27 10 -108 45
-180 79 -71 34 -164 76 -205 92 -41 17 -96 40 -123 52 l-47 22 57 45 c32 24
63 48 68 53 55 44 141 107 147 107 4 0 31 -35 59 -77z m1149 -68 c0 -3 -21
-51 -46 -107 -25 -57 -56 -128 -69 -158 -29 -68 -162 -326 -187 -362 -10 -14
-18 -31 -18 -36 0 -6 -38 -90 -85 -187 -47 -97 -85 -178 -85 -181 0 -3 -11
-20 -25 -38 -14 -18 -25 -36 -25 -40 0 -4 -23 -40 -50 -81 -28 -41 -47 -75
-43 -75 4 0 2 -5 -5 -12 -7 -7 -12 -21 -12 -31 0 -10 -15 -33 -32 -50 -18 -17
-25 -28 -15 -24 21 8 23 -6 3 -23 -8 -6 -13 -17 -10 -25 3 -7 1 -16 -5 -20 -7
-4 -11 6 -11 27 -1 18 -3 125 -5 237 -4 190 -3 207 15 236 11 18 20 39 20 46
-1 8 -8 2 -16 -13 -8 -16 -19 -28 -25 -28 -17 0 -7 100 13 125 10 13 18 26 18
30 0 4 20 38 45 75 47 70 51 80 36 80 -5 0 -14 -13 -21 -30 -7 -16 -16 -30
-21 -30 -4 0 -11 -9 -14 -20 -4 -12 -15 -28 -25 -38 -10 -9 -19 -25 -21 -35
-2 -10 -8 -18 -14 -17 -6 0 -11 34 -11 79 -1 44 -5 84 -8 89 -4 6 -2 29 3 51
5 23 7 41 4 41 -3 0 0 7 7 15 11 13 10 14 -3 9 -13 -5 -15 4 -14 62 l2 67 100
62 c55 34 136 81 180 105 44 23 99 53 123 66 25 14 42 19 42 12 0 -7 6 -4 13
6 13 18 78 46 108 46 9 0 24 9 34 20 10 11 24 20 30 20 7 0 16 7 19 16 4 9 9
14 13 11 3 -4 15 -1 27 5 11 7 24 11 29 10 4 -1 7 3 7 8 0 6 7 10 15 10 8 0
15 -2 15 -5z m-1231 -194 c135 -60 260 -115 276 -121 17 -6 59 -24 95 -41 l65
-30 1 -57 c0 -31 8 -203 17 -382 26 -485 27 -550 8 -550 -15 -1 -15 -2 0 -13
18 -14 32 -47 20 -47 -15 0 -51 69 -45 85 3 8 -6 29 -20 48 -14 19 -26 37 -26
42 0 4 -18 34 -40 66 -22 32 -82 134 -134 226 -51 93 -116 208 -145 257 -28
49 -51 91 -51 93 0 2 -13 23 -29 46 -16 23 -77 139 -137 257 -126 248 -118
230 -108 230 4 0 118 -49 253 -109z"/>
<path d="M13807 5904 c-3 -3 -4 -11 -1 -18 2 -6 6 -27 8 -46 8 -88 20 -147 33
-173 8 -16 12 -35 9 -43 -3 -7 -1 -16 5 -20 6 -3 8 -13 4 -22 -3 -8 2 -40 11
-71 10 -31 18 -60 18 -66 1 -5 9 -35 18 -65 21 -69 53 -202 84 -350 13 -63 27
-123 30 -132 9 -29 -13 -20 -25 10 -11 26 -11 26 -7 2 5 -40 76 -354 83 -370
3 -8 5 -18 5 -22 -1 -5 2 -8 7 -8 6 0 7 -17 5 -37 -4 -26 -3 -34 4 -24 7 10
11 6 15 -15 3 -16 8 -40 11 -54 4 -14 9 -40 12 -59 3 -18 8 -41 10 -50 15 -55
49 -201 84 -361 23 -102 50 -223 61 -270 11 -47 24 -105 29 -130 26 -128 132
-563 149 -615 23 -68 25 -79 12 -70 -8 5 -571 7 -746 3 -38 -1 -107 -1 -151 0
l-81 2 -18 93 c-9 50 -24 126 -31 167 -8 41 -19 109 -24 150 -6 41 -12 86 -14
100 -2 14 -6 48 -10 75 -7 58 -31 183 -52 272 -8 34 -14 80 -14 102 0 42 -13
59 -33 42 -17 -13 -409 8 -419 23 -6 8 -11 6 -18 -4 -6 -9 -13 -11 -17 -5 -12
16 -228 12 -219 -4 3 -5 24 -7 46 -4 26 4 40 2 40 -6 0 -16 -97 -15 -103 2 -3
9 -11 9 -38 0 -19 -7 -59 -13 -90 -15 -31 -2 -62 -9 -68 -15 -7 -7 -9 -13 -5
-13 3 0 2 -6 -3 -12 -6 -7 -23 -58 -38 -113 -15 -55 -37 -122 -47 -150 -16
-41 -83 -289 -113 -420 -12 -55 13 -13 30 50 8 33 18 69 22 80 3 11 7 35 10
53 3 18 9 35 14 38 12 7 -10 -117 -43 -241 -5 -22 -11 -56 -12 -75 -2 -19 -9
-68 -16 -107 l-13 -73 -65 0 c-85 0 -243 20 -259 33 -9 6 -13 6 -13 -3 0 -8
-4 -9 -12 -3 -8 5 -137 8 -310 7 -164 -1 -298 1 -298 6 0 4 14 63 31 131 17
68 37 151 44 184 8 33 25 107 40 165 14 58 34 146 45 195 18 85 30 131 46 183
3 13 1 28 -6 37 -7 9 -8 15 -2 15 5 0 13 21 17 48 4 26 9 56 11 67 2 11 8 43
13 70 5 28 20 97 34 155 35 143 40 169 42 216 3 50 11 65 30 57 8 -3 15 -1 16
3 0 5 2 18 4 29 2 11 6 40 10 65 3 25 13 67 21 94 11 40 11 51 2 58 -10 6 -10
10 1 17 13 8 20 35 23 94 0 15 5 27 11 27 5 0 7 13 4 30 -4 19 -2 30 4 30 6 0
9 9 6 20 -3 13 0 20 9 20 8 0 14 5 14 10 0 6 -6 10 -12 10 -10 0 -9 3 1 9 7 5
10 14 7 20 -4 6 -3 11 2 11 9 0 13 15 26 100 7 50 28 146 36 165 9 23 80 332
81 355 1 8 8 46 15 83 8 38 14 83 14 100 0 18 6 43 13 57 12 24 22 90 13 90
-14 0 -91 -297 -135 -515 -46 -232 -132 -575 -142 -569 -4 2 -3 19 2 36 10 37
5 48 -10 20 -16 -30 -25 -102 -13 -102 6 0 13 8 15 18 3 11 5 8 5 -8 0 -14 -4
-34 -9 -45 -9 -19 -9 -18 -5 3 5 28 -10 29 -25 1 -9 -17 -8 -20 3 -13 11 6 11
5 0 -8 -7 -9 -12 -20 -11 -24 1 -5 -2 -18 -6 -28 -6 -13 -4 -21 3 -24 7 -2 12
-8 12 -13 0 -6 -5 -7 -11 -3 -8 4 -9 0 -4 -15 4 -15 2 -20 -7 -18 -7 2 -10 2
-5 0 10 -7 9 -57 -4 -109 -14 -53 -34 -60 -24 -8 3 20 2 34 -2 31 -13 -8 -15
-70 -3 -77 11 -7 0 -63 -60 -315 -10 -44 -31 -133 -45 -197 -15 -65 -29 -118
-31 -118 -9 0 9 99 41 230 19 74 41 178 49 230 19 121 30 267 20 257 -9 -9
-13 -27 -15 -82 -1 -32 -23 -157 -44 -255 -2 -8 -4 -19 -4 -24 -1 -6 -5 -6
-11 0 -6 6 -2 38 11 89 27 112 36 215 18 215 -11 0 -11 2 -2 8 16 10 27 118
13 127 -5 3 -10 11 -10 16 0 6 4 8 8 5 5 -3 9 12 9 32 1 42 11 106 23 136 4
12 8 24 8 29 2 32 15 66 24 61 6 -4 9 -1 6 7 -3 8 1 19 7 24 14 12 28 85 16
85 -11 0 12 147 44 280 22 95 39 185 52 265 2 17 13 73 23 125 27 139 29 163
21 184 -6 17 -9 16 -19 -10 -12 -29 -97 -397 -114 -489 -5 -27 -15 -100 -23
-162 -12 -93 -95 -453 -150 -648 -7 -27 -18 -79 -24 -115 -14 -82 -12 -76 -59
-260 -22 -85 -48 -195 -57 -245 -15 -83 -62 -272 -70 -286 -3 -3 -23 -98 -45
-210 -34 -165 -40 -216 -35 -269 4 -51 1 -77 -14 -119 -20 -52 -20 -78 0 -66
5 4 9 16 9 28 1 12 7 33 14 46 13 24 14 24 21 -20 4 -24 14 -56 21 -71 8 -15
14 -38 14 -51 0 -13 7 -32 15 -43 8 -10 15 -26 15 -35 0 -27 59 -45 125 -38
33 4 101 7 150 8 63 1 85 4 75 11 -10 7 17 10 88 9 56 -1 105 -6 108 -10 3 -5
105 -6 228 -3 211 6 223 5 231 -12 6 -18 8 -17 16 4 7 20 13 22 49 16 27 -4
40 -3 40 5 0 6 -13 11 -30 11 -35 0 -34 -6 -14 80 l17 68 91 -4 c50 -2 121 -9
157 -15 75 -13 306 -7 354 10 22 7 -5 9 -108 7 -75 -2 -140 1 -143 5 -3 5 15
9 40 9 25 0 46 4 46 9 0 5 -28 8 -62 5 -78 -5 -168 -7 -275 -5 l-83 1 0 31 c0
24 4 29 18 25 91 -27 255 -32 452 -16 179 16 275 22 297 21 12 0 25 4 29 10 5
8 -14 10 -67 5 -137 -12 -553 -17 -594 -8 -30 8 14 11 180 13 259 2 314 5 322
13 4 3 -81 6 -188 7 -264 0 -314 3 -316 13 -2 5 45 8 105 8 61 0 96 3 82 7
-23 6 -23 8 -5 12 11 3 49 3 85 0 36 -3 135 -4 220 -1 l155 5 -90 7 c-173 14
-575 18 -572 6 1 -6 -9 -17 -23 -25 -14 -7 -19 -13 -11 -13 25 0 3 -12 -29
-16 -25 -3 -30 0 -30 17 0 11 7 22 15 25 10 4 12 10 6 18 -6 7 -4 39 5 86 8
41 16 90 18 107 3 18 9 47 15 65 5 18 13 69 17 113 3 44 10 85 14 90 4 6 15
49 25 96 l18 86 46 -2 c25 -1 178 -3 339 -4 l292 -1 0 -22 c0 -36 11 -68 21
-62 5 3 6 -2 3 -10 -4 -10 -1 -16 7 -16 8 0 7 -4 -4 -12 -15 -12 -15 -17 -4
-51 8 -20 17 -34 20 -30 4 3 7 2 8 -3 0 -5 2 -19 5 -32 2 -14 0 -21 -6 -17
-15 9 -12 -15 5 -31 10 -11 12 -28 8 -64 -4 -32 0 -66 10 -97 9 -26 19 -77 23
-113 9 -83 14 -97 63 -161 30 -40 37 -56 29 -66 -6 -8 -6 -13 -1 -13 14 0 133
-123 133 -137 0 -7 -12 -13 -27 -14 -26 -1 -26 -2 7 -11 20 -5 254 -11 548
-13 283 -1 517 -6 521 -11 7 -8 17 -41 36 -111 4 -13 10 -23 15 -23 9 0 4 33
-10 65 -5 11 -11 43 -13 70 -3 43 -29 156 -68 298 -6 22 -8 41 -5 45 3 3 2 10
-3 16 -13 16 -47 139 -61 221 -18 101 -44 218 -116 529 -9 39 -17 88 -19 110
-1 23 -5 49 -9 58 -4 9 -4 23 0 29 5 9 2 10 -9 6 -12 -4 -17 -1 -17 11 0 9 -3
28 -7 42 -6 22 -5 24 10 11 9 -7 17 -10 17 -6 0 4 -7 13 -16 19 -20 15 -61
199 -45 204 6 2 11 8 11 13 0 6 -3 8 -7 6 -5 -3 -8 9 -9 26 -1 43 -13 99 -24
113 -6 6 -7 14 -4 17 4 3 -1 30 -11 60 -9 30 -18 73 -18 95 -2 29 -6 42 -17
43 -11 0 -11 2 -2 6 10 4 10 10 -3 30 -9 13 -14 32 -10 41 3 8 1 18 -4 22 -6
3 -12 21 -15 40 -3 19 -10 51 -16 70 -5 19 -15 62 -21 95 -16 93 -16 97 -28
150 -6 28 -14 61 -17 75 -3 14 -12 50 -20 80 -8 30 -17 62 -19 70 -2 8 -21 80
-43 160 -22 80 -48 179 -57 220 -9 41 -19 81 -21 88 -4 13 -17 16 -27 6z
m-437 -2619 c0 -14 6 -54 14 -88 49 -213 58 -258 54 -262 -3 -3 -18 14 -33 37
-16 24 -48 66 -72 94 -49 58 -51 64 -23 64 20 0 21 13 5 67 -2 6 2 14 10 17
10 3 17 -14 26 -67 12 -73 38 -141 39 -104 0 10 -5 28 -11 39 -6 12 -11 49
-11 84 0 35 -3 66 -7 68 -11 7 -13 76 -1 76 5 0 10 -11 10 -25z"/>
<path d="M6327 3112 c-14 -3 -81 -80 -162 -187 -26 -33 -18 -45 28 -46 l42 -1
-32 -9 c-37 -11 -53 -29 -25 -29 44 0 83 13 78 26 -3 8 6 15 25 19 48 11 33
20 -26 17 -30 -2 -55 0 -55 5 0 10 111 11 128 0 21 -14 13 -25 -25 -32 -31 -5
-34 -8 -20 -16 21 -12 135 -1 144 14 4 6 0 8 -10 4 -21 -8 -49 2 -41 14 3 5
-2 9 -10 9 -9 0 -16 5 -16 10 0 6 15 10 33 10 23 0 28 3 18 9 -8 5 -52 8 -98
6 -81 -2 -116 7 -70 19 12 3 122 9 245 13 229 6 287 23 83 23 -63 0 -111 3
-107 7 9 10 10 10 129 11 132 3 118 22 -16 23 -83 1 -95 3 -67 10 19 6 64 10
100 10 48 0 60 3 48 10 -10 5 -82 10 -160 11 -136 1 -161 14 -33 18 33 0 78 5
100 9 36 8 32 9 -40 12 -136 5 -169 5 -188 1z"/>
<path d="M12570 2881 c0 -10 -157 -27 -222 -24 -55 2 -46 -12 17 -27 51 -12
155 -11 537 4 21 0 38 6 38 11 0 14 -48 26 -56 14 -10 -16 -243 -8 -260 8 -8
8 -14 10 -14 4 0 -6 -9 -11 -20 -11 -13 0 -18 5 -14 15 4 8 3 15 0 15 -3 0 -6
-4 -6 -9z"/>
<path d="M15938 2881 c-43 -10 -20 -27 52 -39 87 -15 540 -16 540 -2 0 6 -4 8
-10 5 -5 -3 -21 2 -35 11 -18 11 -33 14 -52 8 -49 -14 -106 -13 -129 2 -13 9
-24 11 -28 5 -4 -5 2 -11 11 -13 10 -2 -11 -5 -46 -6 -35 -1 -70 3 -78 9 -7 6
-24 9 -39 6 -18 -3 -24 -1 -20 9 4 11 -9 14 -67 13 -40 -1 -84 -4 -99 -8z"/>
</g>
</svg>
