<?xml version="1.0" standalone="no"?>
<!DOCTYPE svg PUBLIC "-//W3C//DTD SVG 20010904//EN"
 "http://www.w3.org/TR/2001/REC-SVG-20010904/DTD/svg10.dtd">
<svg version="1.0" xmlns="http://www.w3.org/2000/svg"
 width="1928.000000pt" height="1074.000000pt" viewBox="0 0 1928.000000 1074.000000"
 preserveAspectRatio="xMidYMid meet">
<metadata>
Created by potrace 1.16, written by Peter Selinger 2001-2019
</metadata>
<g transform="translate(0.000000,1074.000000) scale(0.100000,-0.100000)"
fill="#000000" stroke="none">
<path d="M14550 8025 c0 -4 12 -24 27 -43 18 -24 26 -47 26 -76 1 -23 -3 -306
-7 -631 -5 -324 -8 -1067 -8 -1650 0 -735 -4 -1062 -11 -1067 -8 -4 -8 -10 0
-20 7 -9 11 -222 12 -658 1 -355 3 -664 6 -686 4 -37 1 -43 -18 -48 -17 -5
-29 2 -50 26 l-28 33 21 -50 c23 -55 47 -87 35 -47 -6 22 -5 23 17 17 12 -4
31 -17 40 -29 16 -20 16 -22 -5 -33 l-22 -12 23 -1 c23 0 31 -15 11 -22 -7 -2
1 -12 17 -23 16 -10 48 -37 71 -59 32 -29 40 -42 30 -49 -8 -6 -7 -7 5 -3 41
13 100 -96 106 -196 4 -71 21 -96 20 -30 0 20 5 55 11 77 l10 40 153 -3 c84
-2 158 -8 165 -13 11 -9 227 -5 363 7 30 2 87 6 125 7 l70 2 5 -80 c6 -96 21
-86 18 12 l-3 68 58 3 c31 2 57 7 57 12 0 6 -7 10 -15 10 -8 0 -23 9 -32 20
-21 24 -33 26 -33 5 0 -9 -9 -15 -22 -15 -17 0 -19 3 -10 12 7 7 12 42 12 86
l0 75 92 -8 c50 -4 98 -8 107 -10 50 -9 184 -15 173 -7 -7 5 -38 10 -70 11
-31 1 -75 7 -97 13 -22 6 -76 11 -120 12 -76 1 -80 2 -83 24 -3 22 -1 23 28
17 17 -4 62 -7 100 -8 39 -1 64 -4 58 -8 -26 -16 7 -23 134 -27 120 -4 131 -3
119 12 -11 13 -11 17 3 22 9 4 20 4 23 0 4 -3 -2 -6 -12 -6 -18 0 -18 -1 -4
-16 12 -11 36 -15 85 -15 38 0 86 -4 107 -8 35 -8 50 0 27 14 -6 4 -7 12 -4
18 4 7 3 9 -1 4 -5 -4 -18 -1 -29 6 -33 22 -75 26 -321 32 -126 3 -249 8 -272
11 l-42 5 0 537 c-1 295 -4 664 -7 820 -4 155 -4 282 -1 282 3 0 18 -37 33
-82 15 -46 49 -132 76 -193 26 -60 48 -116 48 -125 0 -8 12 -40 26 -70 14 -30
52 -129 85 -220 109 -300 152 -415 166 -443 7 -15 15 -44 18 -65 2 -20 17 -66
33 -102 40 -88 104 -261 99 -267 -3 -2 -24 15 -47 39 -41 42 -47 35 -7 -9 10
-12 16 -26 13 -32 -4 -6 9 -13 29 -17 25 -4 40 -15 51 -35 8 -16 28 -38 44
-50 16 -12 26 -27 23 -32 -3 -6 -1 -7 5 -3 6 3 17 -2 24 -12 7 -10 22 -25 34
-33 36 -24 164 -143 164 -151 0 -4 -27 -8 -60 -8 -33 0 -60 -4 -60 -10 0 -5 6
-10 13 -11 67 -6 84 -6 103 1 28 11 43 -5 79 -87 28 -64 66 -113 46 -60 -6 15
-19 44 -31 66 -24 48 -25 61 -5 61 8 0 33 -25 56 -55 23 -30 46 -55 51 -55 11
0 -23 50 -47 70 -35 29 -14 32 178 24 105 -5 218 -7 250 -6 l57 2 0 -60 c0
-33 4 -60 10 -60 6 0 10 27 10 60 l0 60 38 0 c20 0 46 7 56 15 13 10 44 15 88
15 l68 0 0 -84 c0 -118 18 -121 22 -4 l3 93 73 -2 c39 -1 72 3 72 8 0 5 -10
10 -22 11 -13 1 -32 2 -43 3 -11 1 -33 3 -49 4 l-28 1 7 63 c12 111 16 1149 4
1141 -6 -3 -10 -27 -9 -53 1 -25 1 -86 -1 -136 l-2 -90 -7 60 c-10 77 0 346
12 363 6 6 6 12 1 12 -4 0 -9 47 -9 104 0 58 3 103 7 100 4 -2 10 30 14 71 10
113 13 749 3 935 -4 91 -10 622 -12 1180 -2 558 -5 1022 -7 1030 -3 11 4 15
29 14 17 -1 32 3 32 7 0 5 -12 9 -26 9 -17 0 -28 6 -31 20 -3 10 -14 22 -24
25 -10 4 -25 12 -32 18 -25 23 -172 154 -197 175 -47 41 -134 102 -138 98 -17
-18 74 -120 155 -174 38 -25 143 -122 143 -132 0 -3 -60 -1 -132 3 -83 6 -256
5 -458 -2 l-325 -12 -23 28 c-13 15 -70 75 -128 133 l-105 105 388 -3 c289 -3
398 0 426 9 20 7 37 16 37 21 0 4 -30 9 -67 10 -64 2 -95 4 -118 8 -27 5 -379
-2 -518 -10 -87 -5 -162 -9 -165 -9 -25 4 -29 -7 -31 -73 0 -40 -5 -120 -10
-178 -8 -87 -7 -548 2 -1118 2 -84 -1 -112 -10 -112 -17 0 -17 -82 -1 -98 8
-8 9 -12 1 -12 -11 0 -34 53 -63 145 -13 41 -81 216 -105 270 -7 17 -23 62
-36 100 -12 39 -49 133 -81 210 -58 135 -100 239 -168 410 -17 44 -38 90 -46
102 -21 33 -18 46 8 37 20 -6 21 -5 9 10 -7 9 -21 16 -31 16 -10 0 -33 20 -51
46 -19 25 -49 64 -67 87 -18 23 -49 64 -70 90 -20 27 -52 65 -70 85 l-32 37 6
-30 c10 -43 60 -122 114 -180 25 -27 58 -67 74 -87 16 -21 35 -38 42 -38 8 0
14 -4 14 -8 0 -11 -708 -3 -742 8 -17 6 -28 5 -28 -1 0 -11 -100 -12 -116 -1
-18 13 -94 113 -94 125 0 17 -90 130 -97 123 -4 -3 1 -14 9 -23 21 -24 81
-133 74 -133 -4 0 -21 24 -40 53 -19 28 -46 63 -60 76 -29 27 -38 64 -11 41
10 -8 19 -10 25 -4 5 5 60 6 132 2 232 -13 707 -14 697 -2 -12 15 -173 23
-569 29 l-315 6 -33 42 c-41 52 -42 52 -42 42z m2063 -456 c0 -24 -2 -60 -5
-79 -3 -19 -6 -66 -7 -103 -1 -50 -4 -68 -13 -65 -7 3 -14 14 -16 26 -2 12 -7
22 -12 22 -4 0 -6 -9 -3 -20 3 -11 0 -20 -5 -20 -14 0 -9 -204 4 -207 5 -2 9
39 9 89 0 63 4 93 12 95 20 7 24 -33 21 -212 -3 -168 -3 -170 -25 -173 -13 -2
-23 -10 -23 -18 0 -8 -4 -14 -10 -14 -6 0 -10 -35 -10 -85 0 -78 2 -85 20 -85
19 0 20 7 20 91 0 68 3 90 13 86 9 -3 12 -51 12 -195 0 -169 -5 -216 -19 -201
-3 2 -6 36 -7 74 -3 105 -18 137 -17 38 0 -51 -4 -88 -11 -97 -10 -12 -10 -20
0 -38 8 -14 14 -18 17 -10 2 6 10 12 18 12 11 0 14 -20 14 -95 0 -63 -4 -95
-11 -95 -6 0 -9 -7 -5 -15 3 -8 1 -15 -4 -15 -6 0 -11 40 -11 93 l-2 92 -8
-70 c-4 -38 -4 -96 0 -127 4 -32 4 -58 0 -58 -9 0 -13 22 -27 155 -5 50 -8
112 -5 138 2 27 1 56 -3 65 -3 10 -9 33 -11 52 -2 19 -11 42 -19 50 -13 13
-15 10 -10 -31 3 -25 13 -62 21 -82 18 -42 19 -57 5 -57 -5 0 -10 14 -10 30 0
20 -5 30 -15 30 -9 0 -15 10 -15 26 0 14 -3 23 -8 20 -4 -2 -7 23 -7 57 1 34
-4 91 -10 127 -6 36 -8 77 -4 91 3 15 4 48 2 75 -3 27 -5 59 -4 71 0 12 -4 25
-9 28 -10 6 -11 -4 -16 -195 -3 -123 -2 -122 -13 -116 -5 4 -7 25 -5 47 3 23
2 49 -2 58 -11 24 -10 45 1 54 7 6 6 10 -1 13 -7 3 -8 20 -5 47 4 23 5 60 4
82 -1 22 -5 204 -7 405 -3 201 -5 370 -6 375 -10 50 7 39 121 -73 118 -116
121 -121 122 -163z m-1758 24 c-5 -10 -7 -22 -6 -28 1 -5 2 -154 1 -330 -1
-176 -3 -963 -6 -1750 -2 -786 -6 -1465 -8 -1508 -2 -42 -9 -84 -16 -92 -10
-12 -10 -18 0 -30 9 -11 10 -25 2 -55 -5 -21 -6 -40 -2 -42 5 -2 2 -8 -5 -15
-11 -10 -14 -3 -17 33 -2 24 0 44 4 44 11 0 -2 28 -15 33 -9 3 -12 -71 -13
-295 -1 -164 -5 -302 -8 -305 -3 -4 -6 5 -7 18 -1 13 -3 49 -5 79 -1 30 -5
132 -7 225 -3 115 -8 179 -17 195 -13 24 -12 24 6 10 18 -15 18 -14 0 13 -11
18 -15 38 -12 53 5 17 2 24 -8 24 -11 0 -13 -13 -11 -57 9 -146 12 -345 5
-322 -4 14 -11 93 -15 175 -4 82 -9 163 -12 179 -2 17 -4 107 -3 200 2 222 2
209 -10 213 -5 2 -10 8 -10 13 0 6 5 7 11 3 6 -3 10 1 9 12 -1 11 -2 35 -1 54
1 27 4 31 11 20 5 -8 10 -10 10 -5 0 6 -5 16 -12 23 -9 9 -9 12 1 12 7 0 10 4
6 9 -3 5 -1 12 4 15 13 8 1 46 -12 40 -16 -6 -22 83 -7 101 8 10 6 15 -9 20
-12 3 -21 10 -21 15 0 5 -3 17 -6 27 -3 10 3 6 13 -10 19 -27 33 -27 33 0 0 8
-4 12 -8 9 -5 -3 -9 8 -10 25 0 20 3 27 11 22 9 -5 9 -3 0 8 -14 17 -13 149 1
149 5 0 3 6 -3 14 -8 10 -9 16 -1 21 17 10 11 22 -13 29 -21 5 -23 12 -26 82
-1 47 1 74 7 70 12 -7 22 66 11 78 -5 6 -9 -6 -9 -29 0 -21 -3 -35 -7 -32 -16
16 -26 1589 -11 1732 4 39 9 116 10 172 2 57 7 103 11 103 5 0 5 5 2 10 -4 6
-8 142 -10 303 -1 160 -6 320 -10 355 -10 84 6 82 70 -9 28 -39 57 -81 65 -92
12 -17 15 -59 16 -206 2 -225 2 -221 12 -221 4 0 8 93 9 208 1 234 9 206 -94
334 l-66 83 108 -107 c87 -86 106 -110 100 -125z m344 21 c12 -11 -18 -15
-128 -21 -67 -3 -124 -10 -128 -16 -6 -10 132 -5 322 12 61 5 189 13 285 17
96 3 177 7 180 9 3 1 15 -1 26 -5 14 -6 24 -21 28 -45 4 -20 10 -43 13 -51 12
-31 -14 -11 -41 31 -15 25 -31 44 -34 41 -3 -3 10 -29 28 -58 51 -81 105 -184
140 -273 18 -44 39 -94 46 -112 8 -17 14 -34 14 -38 0 -3 11 -30 23 -58 24
-52 40 -94 93 -237 15 -41 34 -91 42 -110 8 -19 14 -38 13 -43 0 -4 15 -40 35
-80 50 -98 47 -91 110 -282 30 -93 70 -208 89 -255 18 -47 47 -130 64 -185 31
-98 97 -270 110 -290 4 -5 25 -50 46 -100 54 -124 103 -200 120 -183 3 2 -7
39 -20 81 -23 69 -26 99 -31 285 -6 248 -6 208 -4 322 1 52 -1 102 -5 111 -3
8 -2 26 3 39 5 15 5 37 -1 57 -12 39 -1 56 19 29 8 -11 14 -15 14 -8 0 7 -9
17 -20 24 -11 7 -20 16 -20 21 0 4 3 6 8 4 9 -6 9 35 16 748 2 308 5 570 5
583 1 22 1 22 159 20 86 -2 232 1 323 6 l166 8 6 -33 c6 -39 12 -1484 10
-2314 -2 -1144 -2 -2039 2 -2044 2 -4 6 -98 10 -211 l6 -205 -228 3 c-125 1
-256 5 -290 8 -58 5 -63 8 -63 29 0 13 6 26 13 29 8 3 7 9 -7 20 -10 8 -22 17
-27 18 -4 2 -11 17 -15 33 -7 27 -6 29 9 17 9 -8 21 -11 26 -8 5 4 12 2 16 -4
3 -5 18 -10 32 -10 21 0 23 2 13 15 -7 8 -10 21 -7 30 4 8 -1 22 -10 31 -11
11 -18 13 -21 5 -2 -6 -8 -8 -14 -5 -6 4 -6 -2 1 -14 13 -25 -1 -37 -26 -23
-10 5 -22 9 -28 9 -11 0 -23 31 -85 207 -23 66 -59 156 -80 200 -21 44 -53
125 -70 180 -18 55 -38 114 -45 130 -8 17 -20 51 -29 76 -13 40 -59 161 -97
254 -7 17 -13 34 -13 38 -1 4 -6 11 -12 15 -6 4 -15 18 -19 31 -6 20 -5 23 10
17 14 -5 15 -3 7 6 -5 7 -22 42 -37 78 -14 36 -34 81 -43 100 -9 19 -17 44
-18 55 -2 12 -18 54 -38 95 -19 41 -55 131 -81 199 -25 69 -49 130 -54 135 -4
6 -13 31 -20 56 -7 25 -32 95 -55 155 -24 61 -57 146 -73 190 -17 44 -34 89
-39 100 -4 11 -9 29 -10 40 -6 67 -6 70 -11 53 -2 -10 -8 -18 -12 -18 -13 0
-31 24 -31 42 0 10 -7 18 -15 18 -8 0 -15 5 -15 10 0 6 -5 10 -11 10 -5 0 0
-18 12 -40 13 -22 26 -40 31 -40 4 0 8 -7 8 -16 0 -14 -3 -14 -15 -4 -23 19
-29 5 -9 -25 14 -22 16 -40 10 -118 -9 -112 -8 -15 -7 -827 2 -839 -3 -1382
-12 -1396 -3 -6 -2 -26 3 -45 5 -19 10 -53 12 -77 l3 -44 -175 1 c-96 0 -290
0 -431 0 l-256 1 -7 41 c-4 22 -6 446 -5 942 0 496 0 1467 0 2157 -1 1339 2
1590 25 1590 7 0 16 5 20 12 5 8 2 9 -10 5 -19 -7 -32 14 -22 38 4 12 28 13
153 8 81 -3 150 -7 152 -9z m2312 -1232 c-1 -88 -4 -99 -26 -119 l-24 -23 -4
23 c-4 22 -4 22 -16 -3 -11 -23 -11 -23 -7 -2 3 15 -2 26 -15 32 -16 9 -19 22
-19 91 0 63 3 81 15 86 25 9 29 -3 29 -93 0 -108 20 -108 23 1 2 57 7 83 19
96 10 11 20 17 22 14 3 -3 5 -49 3 -103z m4 -171 c1 -28 -2 -51 -6 -51 -14 0
-10 -48 4 -53 9 -4 9 -8 1 -14 -12 -8 -11 -50 1 -124 4 -22 4 -61 0 -89 -5
-39 -10 -48 -25 -47 -23 1 -32 42 -29 135 2 75 7 95 20 86 5 -3 5 6 -1 20 -5
14 -6 26 -2 26 4 0 1 4 -6 8 -18 12 7 71 28 64 12 -4 13 -2 4 9 -10 13 -7 96
3 85 3 -2 6 -27 8 -55z m-13 -856 c20 -17 24 -25 14 -25 -23 0 -20 -19 7 -41
l22 -20 -22 6 c-22 6 -23 4 -24 -57 0 -35 -1 -93 -1 -129 -1 -36 2 -71 7 -78
9 -15 9 -101 0 -110 -9 -8 -25 21 -18 32 3 6 8 23 9 39 3 22 -1 31 -14 34 -15
4 -17 19 -16 125 1 65 5 127 9 137 11 25 13 52 3 52 -4 0 -8 -10 -8 -23 0 -26
-9 -39 -21 -31 -5 2 -4 16 2 31 11 29 3 46 -11 23 -5 -8 -12 -11 -15 -8 -15
15 8 29 36 23 22 -5 29 -3 29 9 0 10 -6 13 -15 10 -9 -4 -15 0 -15 10 0 22 7
20 42 -9z m-1320 -1184 c-2 -8 3 -21 11 -30 19 -22 53 -99 62 -140 4 -18 22
-62 41 -98 19 -35 32 -68 29 -74 -4 -5 -1 -9 5 -9 7 0 10 -7 6 -15 -3 -8 -1
-15 5 -15 6 0 9 -7 5 -15 -3 -8 -1 -15 4 -15 6 0 10 -9 10 -20 0 -11 5 -20 10
-20 6 0 9 -3 8 -7 -1 -5 4 -19 11 -32 11 -20 11 -25 0 -32 -13 -8 -5 -13 14
-10 5 1 6 -3 3 -8 -4 -5 -2 -12 4 -16 6 -3 10 -18 9 -33 -1 -15 6 -44 15 -66
24 -53 14 -56 -12 -4 -38 77 -94 202 -102 228 -16 48 -49 136 -84 218 -19 46
-38 97 -42 114 -3 18 -13 38 -20 46 -8 7 -12 17 -9 22 3 5 1 11 -5 15 -17 11
-11 37 8 33 9 -2 16 -10 14 -17z m1359 -165 c6 -6 9 -6 9 2 0 7 7 12 15 12 12
0 15 -15 14 -80 -1 -77 -2 -80 -25 -80 -23 0 -24 3 -24 65 0 62 -9 80 -27 53
-8 -14 -6 -126 3 -140 3 -5 10 -6 15 -3 5 4 9 -1 9 -9 0 -22 -17 -29 -24 -10
-3 9 -13 14 -21 11 -12 -5 -14 10 -12 92 2 92 4 100 27 119 l25 21 3 -22 c2
-12 8 -26 13 -31z m-2889 -128 c0 -18 0 -67 0 -108 -3 -165 -2 -498 2 -555 5
-70 21 -119 36 -110 6 4 8 15 5 26 -4 10 -4 19 -2 19 8 0 47 -70 47 -85 0 -7
3 -15 8 -17 11 -4 42 -88 33 -88 -8 0 -81 102 -81 114 0 3 -15 20 -33 35 l-33
29 -3 119 c-4 111 -5 402 -2 576 0 44 5 77 11 77 6 0 11 -15 12 -32z m2852
-151 c-1 -23 -2 -43 -3 -44 -3 -8 5 -18 13 -15 5 2 6 -4 3 -13 -5 -11 1 -15
24 -15 21 0 32 6 39 23 6 15 7 -4 4 -58 -7 -119 -13 -145 -35 -145 -17 0 -19
8 -19 79 0 44 -4 82 -9 85 -11 7 -25 -49 -17 -63 4 -5 2 -12 -4 -16 -11 -7
-12 3 -16 108 -1 37 -5 78 -8 91 -6 26 0 37 18 30 7 -3 11 -21 10 -47z"/>
<path d="M14795 4528 c1 -35 0 -67 -3 -73 -9 -15 -11 -55 -3 -55 3 0 6 -17 6
-37 0 -30 -4 -38 -17 -37 -10 1 -18 -2 -18 -7 0 -5 6 -9 13 -10 6 0 3 -4 -8
-9 -11 -5 -14 -9 -7 -9 6 -1 12 -6 12 -12 0 -5 -5 -7 -10 -4 -7 4 -9 -10 -5
-43 3 -28 2 -53 -3 -56 -13 -8 -2 -56 12 -56 8 0 8 -2 0 -8 -16 -9 -26 -79
-14 -87 6 -3 10 -2 10 3 0 4 10 19 22 32 18 19 27 58 18 73 0 1 -2 20 -4 42
-2 22 -7 49 -11 59 -6 13 -5 17 2 13 7 -5 9 1 5 15 -3 14 -2 19 6 14 16 -10
15 7 0 22 -10 10 -10 14 -1 20 13 8 25 192 15 245 -9 50 -20 28 -17 -35z"/>
<path d="M16747 7323 c-3 -5 -7 -55 -8 -113 l-4 -105 39 -3 c21 -2 51 2 67 9
l29 11 0 98 c0 80 -3 99 -16 104 -22 9 -102 7 -107 -1z"/>
<path d="M16938 7324 c-5 -4 -8 -53 -8 -110 l0 -102 30 -7 c35 -8 92 3 102 19
11 16 9 168 -1 185 -10 15 -111 28 -123 15z"/>
<path d="M17130 7311 c-5 -11 -10 -56 -10 -101 0 -75 1 -81 24 -91 15 -7 43
-9 72 -4 l47 7 -7 75 c-3 42 -6 89 -6 105 0 27 -1 28 -55 28 -43 0 -56 -4 -65
-19z"/>
<path d="M16744 6917 c-2 -7 -3 -60 -2 -118 l3 -104 29 -3 c16 -2 43 -1 60 2
l31 6 0 102 c0 57 -4 109 -8 116 -11 17 -106 16 -113 -1z"/>
<path d="M16943 6923 c-18 -7 -18 -204 -1 -221 14 -14 74 -16 83 -2 3 5 12 7
20 3 13 -4 15 12 15 105 0 91 -3 111 -16 116 -18 7 -83 7 -101 -1z"/>
<path d="M17133 6914 c-3 -8 -6 -58 -7 -111 l-1 -96 30 -8 c16 -5 45 -4 65 1
l35 9 2 103 c1 71 -2 105 -10 110 -23 15 -107 9 -114 -8z"/>
<path d="M16737 6393 c-3 -60 -2 -112 2 -116 4 -4 35 -7 67 -5 l59 3 3 113 3
112 -64 0 -64 0 -6 -107z"/>
<path d="M16752 6098 c-14 -17 -16 -46 -14 -150 2 -66 4 -76 18 -71 13 5 15
21 12 102 l-3 96 35 0 34 0 1 -80 c2 -109 3 -115 20 -115 12 0 15 18 15 104 0
58 -4 107 -9 110 -5 4 -29 9 -53 12 -32 4 -47 2 -56 -8z"/>
<path d="M16953 6103 c-20 -4 -22 -11 -25 -104 -3 -111 -2 -119 18 -119 10 0
14 17 16 68 1 37 2 81 2 97 1 26 5 30 34 33 l33 3 -2 -48 c-4 -107 0 -153 16
-153 12 0 15 19 15 109 l0 109 -31 6 c-33 6 -39 6 -76 -1z"/>
<path d="M17135 6090 c-3 -5 -9 -54 -12 -109 l-6 -100 27 -7 c14 -3 47 -3 72
1 35 5 44 10 40 22 -3 8 -6 57 -6 109 l0 94 -54 0 c-30 0 -58 -4 -61 -10z"/>
<path d="M16751 5696 c-8 -9 -11 -50 -9 -117 l3 -104 60 0 60 0 3 111 c3 109
2 112 -20 118 -39 10 -85 7 -97 -8z"/>
<path d="M16963 5702 l-33 -3 0 -109 0 -109 44 -6 c78 -12 86 -1 86 119 l0
104 -32 3 c-18 2 -48 3 -65 1z m77 -118 l0 -95 -41 3 -42 3 -2 70 c-5 105 0
115 46 115 l39 0 0 -96z"/>
<path d="M17143 5702 c-7 -5 -15 -47 -19 -106 -6 -89 -5 -100 11 -112 20 -15
82 -18 102 -6 7 5 14 47 17 114 4 102 4 106 -17 112 -31 8 -80 7 -94 -2z"/>
<path d="M16748 5269 c-15 -8 -18 -25 -18 -110 0 -99 0 -100 27 -110 14 -5 45
-7 68 -3 l42 6 0 108 c1 102 0 109 -21 114 -32 9 -79 7 -98 -5z m93 -44 c0
-14 1 -55 2 -92 l0 -68 -48 -3 -47 -3 5 88 c3 48 6 89 6 90 2 3 37 11 59 12
17 1 22 -5 23 -24z"/>
<path d="M16937 5274 c-4 -4 -7 -56 -7 -115 l0 -107 29 -7 c16 -3 46 -3 65 1
l37 6 -3 112 -3 111 -55 3 c-31 2 -59 0 -63 -4z"/>
<path d="M17150 5268 c-18 -7 -20 -16 -20 -112 0 -91 2 -105 18 -110 21 -7
104 6 103 17 -1 4 -1 52 -1 106 l0 99 -40 4 c-22 2 -49 0 -60 -4z"/>
<path d="M16549 5253 c-3 -53 4 -189 9 -194 4 -3 26 -4 50 -1 l42 4 0 98 0 98
-31 6 c-52 10 -69 7 -70 -11z"/>
<path d="M16550 4740 c0 -97 2 -111 16 -108 13 2 16 19 16 96 0 50 3 92 7 92
3 0 16 3 27 6 21 5 21 3 20 -89 0 -53 2 -99 7 -103 19 -19 28 19 25 112 l-3
99 -57 3 -58 3 0 -111z"/>
<path d="M16740 4735 l0 -115 59 0 c44 0 60 4 65 16 3 9 6 60 6 115 l0 99 -65
0 -65 0 0 -115z"/>
<path d="M16953 4842 c-9 -5 -13 -37 -14 -93 -2 -137 -5 -129 44 -129 87 0 85
-2 84 118 l-2 107 -50 3 c-27 1 -56 -1 -62 -6z"/>
<path d="M17141 4836 c-8 -9 -13 -51 -13 -108 l-1 -93 59 0 59 0 7 95 c4 52 5
101 3 108 -6 17 -99 16 -114 -2z"/>
<path d="M16571 4441 c-10 -7 -14 -35 -15 -113 l0 -103 35 -3 c19 -2 47 2 62
7 26 10 26 11 26 116 l0 105 -47 0 c-26 0 -53 -4 -61 -9z"/>
<path d="M16757 4423 c-3 -15 -4 -65 -4 -112 l2 -85 35 -9 c23 -5 47 -4 64 3
28 10 29 11 23 73 -3 34 -2 81 2 104 9 49 4 53 -69 53 -44 0 -48 -2 -53 -27z"/>
<path d="M16946 4442 c-3 -4 -6 -55 -7 -112 -2 -102 -1 -104 22 -110 13 -4 43
-2 67 2 l42 9 0 110 0 109 -59 0 c-33 0 -62 -4 -65 -8z"/>
<path d="M17165 4440 c-12 -4 -16 -29 -19 -109 l-4 -103 54 4 c30 3 55 7 56 9
2 2 2 50 0 106 l-3 102 -35 -2 c-19 -1 -41 -4 -49 -7z"/>
<path d="M16577 4023 c-4 -3 -7 -55 -7 -114 0 -118 2 -121 59 -108 19 4 38 6
43 3 14 -9 20 47 9 91 -6 24 -11 57 -11 74 0 20 -8 35 -22 45 -23 16 -60 21
-71 9z"/>
<path d="M16960 4010 c-17 -17 -19 -31 -17 -112 l2 -93 51 -3 c33 -2 54 2 61
10 6 8 8 51 5 106 -4 88 -6 94 -29 103 -36 13 -51 11 -73 -11z"/>
<path d="M16980 3641 c-24 -6 -25 -12 -32 -101 -4 -52 -4 -97 0 -101 14 -13
80 -20 87 -9 3 5 14 10 23 10 15 0 16 11 12 102 l-5 103 -30 2 c-16 1 -41 -2
-55 -6z"/>
<path d="M16755 3622 c-11 -29 -5 -180 8 -189 24 -20 56 -20 85 -3 29 18 29
19 30 109 1 50 -2 91 -6 92 -53 7 -113 2 -117 -9z"/>
<path d="M17146 3628 c-3 -7 -7 -52 -10 -100 l-6 -88 37 0 c82 0 83 1 83 106
l0 94 -50 0 c-32 0 -52 -5 -54 -12z"/>
<path d="M4768 7968 c-2 -24 -7 -32 -18 -29 -49 14 -922 4 -884 -9 48 -17 680
-31 792 -17 50 6 62 5 62 -6 0 -8 -11 -19 -25 -25 -14 -6 -25 -16 -25 -22 0
-5 -5 -10 -11 -10 -11 0 -94 -62 -163 -122 -24 -21 -47 -38 -52 -38 -11 0 -64
-58 -64 -70 0 -10 -434 -1 -475 10 -21 6 6 9 85 10 98 1 222 4 333 9 15 0 27
5 27 10 0 6 -36 8 -87 6 -49 -2 -159 -4 -245 -5 -137 -1 -159 -3 -168 -18 -7
-14 -9 -14 -10 -2 0 13 -2 13 -9 1 -7 -11 -13 -12 -23 -4 -16 13 -35 16 -115
14 -49 -1 -63 -4 -63 -16 0 -8 -5 -15 -11 -15 -5 0 -7 5 -4 10 3 6 -1 10 -10
10 -9 0 -14 -4 -10 -9 5 -10 -82 -28 -91 -19 -2 3 16 18 40 34 117 77 315 215
326 229 27 32 -2 26 -67 -14 -37 -23 -143 -92 -234 -154 -91 -61 -174 -117
-185 -124 -17 -10 -16 -11 11 -10 28 2 30 -1 36 -43 4 -25 7 -216 8 -425 1
-209 5 -450 9 -535 4 -85 6 -188 4 -229 l-3 -74 -114 5 -113 5 -40 42 c-21 22
-46 41 -55 41 -12 0 -30 -23 -61 -76 -1 -1 -14 -5 -31 -8 l-30 -6 -3 595 c-2
541 1 632 21 583 10 -25 -4 359 -15 399 -1 4 2 22 6 40 6 28 12 32 44 35 81 8
-282 7 -594 -1 -311 -9 -333 -11 -370 -31 -21 -12 -50 -32 -64 -45 -40 -37
-184 -118 -188 -106 -6 17 -22 13 -22 -5 0 -9 -8 -23 -18 -31 -22 -17 -93 -55
-96 -51 -2 2 -10 14 -19 28 l-17 24 0 -26 c0 -16 -9 -33 -22 -42 -19 -13 -20
-16 -5 -16 14 0 17 -8 16 -37 0 -21 1 -99 4 -173 12 -305 22 -651 21 -750 0
-145 -13 -451 -21 -530 -4 -36 -5 -69 -3 -75 1 -5 4 -86 6 -180 1 -93 8 -294
15 -445 10 -243 9 -549 -4 -1165 -2 -101 19 -311 45 -435 10 -52 21 -106 24
-120 16 -79 120 -300 190 -404 18 -28 31 -52 28 -55 -2 -3 -41 31 -86 75 -44
43 -73 68 -64 54 38 -57 355 -365 416 -405 36 -23 71 -49 78 -57 7 -8 14 -48
15 -88 3 -65 1 -73 -17 -80 -13 -5 61 -9 179 -10 215 -2 243 -4 321 -18 69
-12 711 -15 718 -4 3 6 -33 12 -82 16 -157 12 -202 18 -202 27 0 13 98 11 102
-1 2 -7 27 -6 75 3 49 9 92 11 139 5 37 -4 70 -6 72 -3 3 3 11 0 18 -6 6 -5
71 -12 144 -15 106 -4 142 -2 182 12 36 12 53 13 61 5 14 -14 47 -14 47 -1 0
6 15 17 33 25 17 8 28 14 23 15 -6 0 -2 6 9 13 10 8 15 19 11 26 -4 7 3 15 20
21 19 8 29 8 34 0 5 -8 78 -10 231 -9 123 1 240 1 259 1 27 -1 31 1 19 8 -17
10 -85 14 -209 11 -71 -2 -134 10 -114 21 5 3 36 2 70 -1 34 -4 72 -4 85 -1
41 11 -58 23 -220 29 -22 1 -22 14 0 17 5 1 15 2 22 3 33 5 -36 18 -94 17 -52
-1 -72 -6 -90 -21 -12 -11 -19 -14 -15 -7 4 6 2 12 -4 12 -6 0 -18 6 -26 14
-7 8 -19 16 -26 19 -7 2 -10 8 -6 12 4 4 15 4 25 1 46 -18 603 -4 603 15 0 4
-19 7 -42 7 -72 -1 -89 2 -84 11 6 9 174 6 248 -4 20 -3 39 -1 42 4 11 17
-334 31 -439 19 -38 -5 -53 -4 -40 1 19 9 18 10 -5 12 -43 4 -83 3 -125 -4
-22 -3 -33 -4 -25 0 8 3 17 9 20 14 6 9 82 11 300 5 91 -2 174 0 185 5 18 7
17 8 -7 8 -15 1 -30 6 -34 12 -5 9 1 10 20 5 15 -4 37 -4 49 0 l22 7 -22 8
c-13 5 -79 9 -148 10 -69 0 -127 5 -130 10 -3 4 -25 6 -48 3 -76 -9 -137 -10
-137 -2 0 8 -60 5 -143 -7 -26 -4 -47 -4 -47 0 0 4 78 87 174 184 206 209 244
252 239 268 -2 6 6 18 19 27 12 9 19 16 14 16 -5 0 -4 6 2 13 33 41 134 277
146 341 2 13 11 48 19 77 45 161 80 324 81 382 0 20 4 37 9 37 11 0 6 61 -5
77 -5 6 -5 14 1 17 7 5 7 15 1 32 -5 13 -9 28 -9 32 1 4 1 12 0 17 0 6 -3 91
-6 190 -7 290 -15 479 -20 493 -3 8 -2 19 2 25 4 6 5 194 4 417 -3 352 -2
1276 1 1590 1 58 -1 195 -4 305 l-6 200 39 19 c22 11 39 23 39 28 0 11 -17 10
-24 -1 -3 -5 -17 -11 -31 -13 -21 -4 -25 -2 -24 16 4 44 -1 86 -10 86 -6 0
-11 -15 -13 -32z m-1778 -60 c0 -7 -35 -35 -77 -63 -42 -27 -101 -71 -130 -97
-79 -71 -129 -101 -157 -96 -14 3 -31 1 -38 -3 -9 -6 -6 -9 10 -9 26 0 28 -6
7 -26 -8 -9 -15 -11 -15 -5 0 7 -72 9 -221 5 -170 -4 -224 -3 -229 7 -6 9 -56
12 -184 13 -97 1 -176 3 -175 6 0 8 89 66 190 125 52 30 108 68 124 85 l29 30
225 0 c124 0 287 5 361 10 74 6 157 12 183 14 26 2 51 6 54 10 11 11 43 6 43
-6z m-22 -338 c-6 -151 -9 -349 -7 -440 2 -91 4 -325 4 -520 l0 -355 -57 -7
c-53 -7 -60 -5 -82 17 -29 29 -43 31 -66 10 -16 -14 -17 -9 -23 67 -4 46 -7
106 -8 133 -1 50 -1 50 -9 13 -4 -21 -4 -82 -1 -135 7 -108 4 -143 -10 -143
-6 0 -7 198 -3 518 7 613 6 539 5 582 -1 30 5 85 9 85 0 0 3 47 6 105 l5 105
37 32 c47 41 56 41 48 -1 -4 -19 -3 -47 1 -63 7 -25 8 -21 14 27 3 30 2 60 -2
65 -5 7 18 36 56 74 36 35 65 68 65 75 0 11 21 38 26 33 1 -1 -2 -126 -8 -277z
m1789 183 c-10 -159 -7 -2025 3 -2078 2 -6 1 -59 0 -120 -2 -60 -5 -100 -7
-87 -2 12 -9 22 -14 22 -15 0 -10 -40 6 -46 8 -4 15 -11 15 -16 0 -6 -7 -7
-16 -4 -10 4 -13 2 -7 -7 4 -6 9 -30 10 -52 1 -22 4 -101 7 -175 3 -74 8 -179
10 -232 4 -72 2 -98 -7 -98 -9 0 -9 -2 -1 -8 7 -4 13 -51 16 -112 3 -58 3 -97
1 -87 -8 29 -23 19 -22 -15 2 -40 -9 -141 -21 -188 -7 -33 -8 -31 -9 21 -1 30
-7 63 -13 72 -11 14 -13 1 -13 -78 0 -52 3 -95 8 -95 4 0 7 5 7 12 0 6 2 9 5
6 8 -8 -6 -39 -15 -33 -4 3 -10 -5 -13 -17 -4 -12 -2 -25 4 -29 10 -6 8 -71
-5 -284 -5 -73 -71 -265 -91 -265 -3 0 2 53 9 95 2 11 9 19 15 17 7 -1 10 2 6
8 -4 6 0 22 9 35 18 28 20 39 6 30 -5 -3 -10 -2 -10 4 0 5 6 11 13 14 9 3 9 7
-1 19 -10 12 -9 22 3 51 8 20 15 46 15 58 0 18 -2 19 -15 9 -8 -7 -13 -16 -10
-20 3 -5 1 -11 -5 -15 -16 -10 -24 24 -9 41 7 9 12 29 11 45 -1 16 3 29 9 29
7 0 5 9 -5 24 -9 14 -12 27 -7 30 4 3 7 18 5 33 l-4 28 9 -28 c6 -16 7 -35 4
-43 -3 -8 -1 -14 5 -14 12 0 23 38 12 45 -4 2 -6 19 -4 37 3 23 -1 37 -13 47
-17 13 -17 13 0 7 15 -5 17 -2 12 14 -3 11 -7 33 -7 50 -1 16 -5 30 -9 30 -4
0 -10 10 -12 23 -3 12 -4 -5 -2 -38 2 -33 1 -50 -1 -37 -3 12 -10 22 -15 22
-5 0 -9 9 -9 20 0 11 -4 20 -10 20 -13 0 -13 -27 1 -35 6 -4 8 -13 5 -21 -3
-8 -1 -14 4 -14 5 0 9 -45 9 -100 0 -56 -4 -98 -9 -95 -11 7 -29 -26 -23 -43
3 -7 -7 -24 -21 -39 -29 -29 -33 -24 -12 15 26 53 38 98 41 159 2 46 0 59 -9
51 -6 -6 -10 -29 -7 -52 2 -23 0 -38 -4 -34 -13 12 -13 92 0 118 10 20 10 31
1 55 -11 25 -13 27 -19 11 -4 -10 -2 -25 4 -32 6 -8 7 -14 2 -14 -16 0 -35
-90 -22 -106 8 -10 8 -18 0 -27 -8 -10 -7 -19 4 -33 8 -10 14 -23 14 -29 0 -5
-4 -2 -10 8 -5 9 -16 17 -24 17 -17 0 -45 50 -45 78 0 11 11 53 24 93 18 56
29 74 43 74 20 0 71 30 91 54 18 21 15 56 -8 98 -11 21 -20 31 -20 24 0 -11
-5 -9 -21 4 -19 18 -24 63 -10 90 7 14 11 45 12 91 1 38 4 43 38 60 34 16 36
20 27 41 -13 27 -26 30 -27 6 0 -13 -4 -11 -12 8 -7 14 -18 24 -24 22 -7 -3
-13 1 -14 9 0 7 -2 21 -4 31 -2 9 3 17 10 17 8 0 11 -8 8 -22 -3 -17 -2 -19 5
-9 11 16 32 6 32 -15 0 -8 4 -14 9 -14 14 0 20 52 7 66 -46 49 -65 100 -70
196 -2 31 -7 62 -11 69 -8 12 -12 94 -14 297 -1 50 -5 92 -10 92 -9 0 -5 -313
4 -337 2 -7 1 -13 -4 -13 -16 0 -34 79 -46 215 -4 39 -11 75 -16 81 -5 6 -11
82 -14 170 -3 87 -8 222 -11 299 -4 110 -15 514 -16 655 0 14 0 199 2 411 2
385 2 387 23 398 69 35 147 108 147 138 0 15 5 21 14 17 8 -3 16 4 20 20 3 14
10 26 15 26 5 0 31 20 57 45 27 25 51 45 53 45 2 0 1 -39 -2 -87z m-2627 -144
c0 -9 -38 -19 -75 -20 -16 0 -39 -4 -50 -9 -11 -5 114 -8 293 -7 l312 2 1
-420 c0 -231 1 -549 1 -707 1 -225 -1 -290 -12 -302 -10 -13 -29 -16 -88 -14
l-76 3 -24 -35 c-14 -21 -22 -44 -19 -58 3 -18 -11 -36 -69 -88 -71 -64 -75
-66 -113 -59 -35 6 -44 3 -66 -19 -25 -25 -34 -70 -15 -81 21 -13 8 -45 -56
-133 -55 -77 -70 -92 -93 -92 -14 0 -37 -7 -50 -16 -20 -15 -22 -22 -17 -63
11 -78 8 -103 -23 -181 -24 -63 -35 -78 -66 -95 -65 -35 -77 -96 -30 -145 26
-27 27 -31 21 -102 -15 -163 -15 -166 -49 -186 l-32 -18 0 235 c0 243 -11 604
-21 701 -3 30 -5 206 -3 390 5 508 5 853 -1 1199 l-5 315 25 6 c33 8 400 7
400 -1z m1838 -32 c8 -7 52 -10 112 -8 106 3 271 -7 288 -18 7 -4 12 -230 16
-661 6 -636 9 -822 21 -1173 6 -161 5 -168 -12 -159 -10 6 -53 62 -96 125 -42
64 -80 117 -85 119 -18 8 -75 78 -69 85 4 4 30 -18 57 -47 53 -57 66 -51 34
16 -19 40 -47 58 -78 50 -24 -6 -39 3 -138 82 -60 47 -67 56 -62 81 4 20 -1
35 -21 59 -29 34 -64 41 -108 21 -19 -9 -40 -3 -126 32 -89 37 -106 48 -127
81 -14 21 -36 43 -49 48 l-25 10 -2 232 c0 128 -2 244 -4 258 -3 25 -9 174
-19 496 -3 93 -7 179 -9 190 -2 10 -6 36 -10 56 l-7 37 153 4 c197 5 349 -2
366 -16z m-547 -1372 c22 -12 27 -22 33 -76 3 -34 5 -64 3 -65 -1 -2 -54 4
-117 12 -63 8 -132 13 -154 9 -45 -7 -73 9 -55 31 8 9 8 14 1 14 -6 0 -13 8
-15 18 -3 9 -5 -2 -6 -24 -1 -40 -2 -42 -38 -48 -52 -8 -93 -8 -93 2 0 12 30
54 68 94 27 29 39 35 49 27 7 -6 10 -16 6 -22 -3 -6 -1 -7 5 -3 7 4 12 14 12
22 0 18 56 19 85 1 45 -26 85 -61 85 -74 0 -7 5 -13 12 -13 17 0 78 49 78 63
0 7 -5 4 -11 -5 -18 -32 -69 -22 -119 23 l-45 41 95 -7 c52 -4 106 -13 121
-20z m204 -48 c22 -8 57 -22 78 -31 35 -16 37 -18 21 -33 -11 -11 -13 -18 -5
-21 6 -2 11 -21 11 -43 0 -22 5 -39 11 -39 8 0 10 15 7 44 -4 34 -2 46 9 51
19 7 79 -30 93 -56 6 -10 20 -19 31 -19 22 0 107 -52 154 -95 l30 -28 -40 8
c-49 8 -36 8 -118 6 -41 -1 -66 -5 -62 -11 3 -5 53 -9 112 -9 115 0 126 -4
161 -65 14 -24 16 -42 11 -81 -4 -27 -10 -58 -14 -67 -4 -10 -3 -18 2 -18 11
0 33 58 33 88 0 12 4 22 9 22 12 0 81 -76 120 -134 l34 -49 -29 7 c-16 5 -49
12 -74 16 -91 17 -121 33 -173 94 -55 63 -188 178 -252 217 -22 14 -71 39
-110 56 -38 17 -91 41 -117 52 l-48 21 0 70 0 69 38 -4 c20 -2 55 -10 77 -18z
m-738 -55 c7 -8 10 -18 8 -23 -11 -16 14 -18 30 -3 15 15 18 15 32 2 13 -14
11 -16 -22 -22 -20 -4 -69 -18 -108 -31 -38 -13 -74 -22 -78 -19 -5 2 -4 16 1
30 13 32 12 43 0 24 -8 -12 -10 -11 -10 8 0 12 5 22 10 22 6 0 10 6 10 14 0 8
6 16 13 19 24 8 102 -6 114 -21z m-327 -68 c0 -8 -6 -14 -14 -14 -8 0 -16 -7
-20 -15 -3 -8 -15 -15 -26 -15 -12 0 -18 -4 -15 -10 3 -5 0 -10 -9 -10 -19 0
-46 -76 -42 -120 3 -30 -3 -41 -45 -83 -26 -27 -49 -52 -51 -55 -12 -27 -113
-150 -120 -146 -4 3 -8 16 -8 30 0 14 -4 22 -10 19 -5 -3 -7 -21 -4 -40 5 -33
-12 -81 -41 -115 -7 -8 -32 -71 -55 -140 -52 -154 -57 -163 -78 -155 -13 5
-13 3 2 -14 17 -19 17 -19 -3 -14 -17 4 -32 -5 -64 -41 -39 -42 -77 -60 -77
-36 0 6 7 10 16 10 14 0 14 3 4 15 -10 12 -10 15 2 15 11 0 14 9 12 35 -2 27
1 35 14 35 11 0 13 3 6 8 -24 15 -24 51 1 123 14 41 25 75 25 77 0 2 6 2 13 1
21 -4 96 21 104 35 4 7 19 19 32 26 21 11 22 14 8 22 -10 5 -17 15 -17 23 0 7
-11 27 -25 43 l-25 30 60 81 c33 45 67 81 75 81 18 0 18 -5 5 -30 -6 -12 -6
-27 -1 -42 11 -25 11 -25 16 16 5 38 12 44 73 58 58 14 60 21 24 82 -12 20
-22 41 -22 45 0 16 150 131 170 131 12 0 19 4 15 10 -3 5 7 16 23 24 16 8 34
22 41 30 15 18 31 12 31 -10z m805 -5 c38 -5 71 -12 74 -15 13 -13 20 -164 18
-414 l-2 -275 -93 -180 c-51 -99 -84 -169 -73 -155 11 14 51 82 88 152 37 71
71 128 74 128 3 0 7 -31 8 -69 l2 -68 -87 -97 c-78 -88 -89 -97 -113 -91 -14
4 -27 8 -29 10 -1 1 10 51 26 111 26 96 36 135 58 234 3 14 10 45 14 70 5 25
18 83 29 130 11 47 23 101 25 120 3 19 7 46 11 60 8 40 17 140 12 140 -5 0
-24 -96 -32 -162 -2 -15 -29 -134 -60 -265 -57 -246 -80 -344 -90 -401 -6 -27
-11 -33 -28 -30 -18 3 -21 11 -23 50 -18 402 -27 655 -26 751 1 68 -3 117 -8
117 -9 0 -13 -46 -13 -150 1 -111 16 -534 23 -640 7 -94 6 -126 -3 -132 -21
-14 -26 -9 -40 40 -19 62 -65 182 -80 207 -9 14 -13 133 -15 422 l-3 401 58 7
c32 3 67 8 78 9 26 5 133 -3 220 -15z m-389 -211 c-10 -281 -13 -390 -15 -412
-1 -25 -13 -13 -16 16 -1 13 -3 29 -4 36 0 6 -5 12 -11 12 -5 0 -7 -8 -4 -17
4 -12 -1 -10 -15 7 l-22 25 7 -40 c7 -43 14 -59 14 -32 0 10 7 17 15 17 8 0
12 -6 9 -14 -3 -7 1 -20 9 -27 10 -10 16 -55 20 -153 6 -134 6 -138 -12 -122
-32 29 -146 207 -143 223 2 9 -1 12 -8 8 -9 -5 -10 -1 -4 16 4 13 7 29 7 34
-1 6 -4 39 -7 75 -3 36 -8 85 -10 110 -2 25 -7 77 -11 115 -6 63 -11 127 -18
225 l-2 35 75 23 c41 13 86 27 100 32 55 18 53 26 46 -192z m590 152 c27 -12
101 -47 164 -78 98 -49 126 -69 195 -138 146 -147 214 -246 298 -434 76 -172
98 -279 99 -480 1 -162 -6 -211 -58 -394 -35 -123 -114 -274 -202 -386 -62
-79 -184 -193 -272 -254 -79 -56 -175 -105 -183 -95 -3 2 -30 78 -61 169 -48
143 -56 175 -55 235 3 142 5 142 85 -2 103 -185 140 -246 164 -274 l22 -24
-19 35 c-11 19 -67 121 -126 226 -108 192 -127 243 -127 336 0 22 4 38 9 36 5
-1 74 -77 154 -168 129 -147 294 -318 256 -265 -7 11 -79 92 -159 180 -247
271 -244 268 -250 342 -3 36 -3 66 1 69 4 2 83 -47 175 -109 207 -139 404
-261 410 -254 3 2 -46 37 -108 77 -285 185 -458 302 -471 320 -7 11 -11 34 -9
55 4 32 8 36 26 32 11 -2 64 -14 116 -27 224 -51 556 -121 574 -119 19 1 -83
28 -269 69 -176 39 -224 51 -372 86 -70 17 -71 18 -76 53 -2 20 -2 41 0 47 2
5 63 16 136 23 191 18 512 60 582 75 70 16 37 20 -50 6 -74 -11 -479 -57 -593
-66 l-83 -7 3 44 c4 51 -6 44 188 125 160 67 512 235 505 242 -5 5 -185 -72
-220 -94 -34 -21 -442 -194 -459 -194 -13 0 -16 12 -16 61 l0 61 256 255 c141
140 253 257 250 260 -3 3 -114 -101 -247 -231 -133 -130 -246 -236 -252 -236
-6 0 -8 35 -5 93 4 90 6 94 62 197 56 104 95 171 168 290 20 33 34 60 30 60
-4 0 -20 -21 -37 -48 -16 -26 -33 -51 -37 -57 -28 -35 -130 -206 -154 -257
-24 -52 -38 -48 -30 8 3 26 6 159 6 295 0 137 4 249 9 249 5 0 30 -9 57 -20z
m-822 -91 c3 -34 6 -91 6 -126 0 -35 5 -94 10 -131 6 -37 12 -94 14 -127 2
-33 8 -78 12 -100 l7 -40 -27 24 c-36 34 -77 124 -81 180 -2 25 -7 114 -10
197 -6 150 -6 152 16 168 38 26 46 20 53 -45z m-116 -135 c3 -162 1 -165 -53
-80 -18 29 -40 58 -48 65 -9 7 9 -25 39 -71 30 -46 56 -96 59 -113 2 -16 6
-96 8 -177 4 -168 11 -162 -93 -89 -213 148 -309 209 -278 176 16 -17 65 -52
271 -192 53 -36 98 -71 98 -77 1 -6 0 -39 -1 -73 -2 -58 0 -63 19 -63 12 0 21
-5 21 -11 0 -6 -9 -8 -22 -4 -17 6 -20 4 -15 -9 9 -23 -12 -21 -128 15 -103
31 -362 99 -380 98 -23 0 26 -18 105 -38 105 -28 379 -109 391 -117 5 -3 9
-36 9 -73 l0 -68 -112 -6 c-62 -4 -182 -10 -266 -13 -84 -4 -155 -11 -159 -17
-3 -6 18 -7 58 -3 35 3 157 9 272 12 l207 7 0 -89 0 -90 -52 -18 c-103 -36
-433 -168 -442 -177 -14 -13 51 7 150 47 172 68 336 125 342 119 3 -3 5 -45 4
-93 -3 -77 -6 -89 -25 -102 -44 -30 -317 -251 -317 -257 0 -9 47 25 190 138
76 60 142 109 147 109 5 0 7 -66 5 -157 l-4 -158 -37 -58 c-20 -31 -44 -72
-54 -90 l-19 -32 25 29 c14 16 31 41 39 55 7 14 19 32 26 39 6 7 12 18 12 23
0 6 5 7 10 4 6 -3 10 -23 10 -43 1 -87 38 -199 92 -274 24 -35 14 -35 -34 -3
-20 14 -42 25 -48 25 -6 0 -9 4 -5 9 3 5 0 13 -6 17 -8 4 -9 3 -5 -4 14 -23
-5 -11 -82 49 -124 97 -247 224 -312 323 -69 103 -122 207 -125 245 -1 14 -7
36 -14 48 -6 13 -20 64 -31 115 -32 152 -22 498 16 558 5 8 9 17 10 20 5 25
18 67 24 75 4 6 11 26 15 45 4 19 18 57 31 84 13 28 24 55 24 61 0 7 11 24 24
38 13 14 21 28 19 31 -5 5 61 94 80 107 5 3 9 15 11 25 1 10 12 23 24 29 12 5
22 12 22 16 0 9 101 109 110 109 5 0 10 4 12 10 3 10 119 108 128 109 3 1 6
-65 8 -145z m1511 -149 c16 -8 31 -12 33 -9 5 4 39 -2 124 -21 23 -5 61 -76
50 -94 -4 -6 -3 -11 3 -11 30 0 78 -200 62 -258 -5 -15 -5 -35 -2 -45 12 -32
5 -421 -7 -443 -8 -14 -8 -24 -1 -31 7 -7 8 -46 5 -104 -3 -52 -7 -138 -8
-191 -2 -53 -7 -100 -11 -104 -4 -4 -7 -2 -7 5 0 9 -5 9 -22 0 -13 -7 -25 -15
-28 -18 -8 -10 -104 -40 -109 -35 -3 3 6 26 20 52 14 26 39 88 54 137 16 50
32 94 37 100 5 6 18 -2 33 -20 13 -17 24 -25 25 -19 0 6 -9 19 -19 28 -28 26
-35 70 -18 106 9 16 12 30 9 30 -4 0 -6 74 -5 164 3 140 0 180 -21 278 -24
116 -49 186 -85 237 -11 15 -29 52 -40 82 -12 30 -41 86 -66 123 -57 87 -57
88 -6 61z m-1388 -230 c28 -49 55 -92 59 -95 4 -3 39 -52 77 -110 63 -95 96
-170 74 -170 -4 0 -37 22 -73 49 -35 27 -90 65 -122 86 -31 20 -59 42 -61 48
-2 7 -6 71 -8 144 -3 72 -8 137 -12 145 -6 9 -5 10 3 3 6 -5 34 -50 63 -100z
m1733 -290 c9 -55 15 -121 13 -147 -2 -27 0 -48 5 -48 14 0 -1 -175 -19 -220
-8 -19 -10 -40 -14 -112 -1 -34 -6 -55 -12 -51 -6 4 -7 1 -3 -6 9 -14 -12 -71
-26 -71 -6 0 -8 10 -5 23 16 62 29 305 26 497 -2 180 -2 250 1 265 3 22 18
-35 34 -130z m-1711 20 c132 -91 182 -132 185 -153 2 -15 -2 -22 -13 -22 -23
0 -133 29 -153 40 -10 5 -34 12 -54 15 l-38 6 0 80 c0 44 3 79 8 77 4 -1 34
-21 65 -43z m-747 8 c-4 -9 -9 -65 -13 -125 -3 -59 -8 -108 -11 -108 -3 0 -23
19 -43 42 -21 24 -40 40 -44 36 -4 -4 14 -29 39 -56 47 -50 63 -102 31 -102
-9 0 -15 -9 -15 -21 0 -15 5 -19 15 -15 23 9 18 -4 -15 -35 -16 -16 -27 -35
-24 -43 7 -19 -34 -98 -48 -94 -16 6 -29 57 -21 86 3 13 15 27 27 32 21 8 21
8 -4 18 -14 6 -22 11 -18 11 3 1 -2 24 -13 52 -10 29 -16 56 -13 60 2 5 5 39
5 76 0 87 6 108 25 92 10 -8 11 -16 3 -30 -8 -15 -6 -19 6 -19 12 0 15 7 13
26 -2 19 9 38 47 78 50 54 83 72 71 39z m818 -182 c60 -17 113 -35 117 -42 18
-30 -2 -36 -131 -36 l-130 0 0 59 c0 53 2 60 18 55 9 -4 66 -20 126 -36z m357
-12 c44 -15 69 -44 69 -82 0 -51 -58 -118 -93 -109 -5 2 -21 4 -36 6 -40 4
-49 12 -62 55 -9 32 -8 44 6 75 10 20 29 43 44 51 32 18 31 17 72 4z m-270
-88 c19 -1 25 -6 24 -21 -2 -29 -11 -35 -93 -64 -40 -14 -86 -33 -102 -41 -17
-9 -30 -12 -30 -8 0 4 -5 2 -12 -5 -21 -21 -23 -14 -22 60 l1 73 46 3 47 3 0
-45 c0 -26 5 -46 11 -46 6 0 8 16 4 44 -8 49 -3 53 64 49 20 -1 48 -2 62 -2z
m464 -59 c44 -16 50 -21 53 -50 2 -18 0 -32 -3 -32 -4 0 -27 14 -51 32 -24 17
-46 29 -50 26 -3 -3 11 -15 30 -27 54 -34 84 -75 81 -111 -1 -17 -4 -33 -7
-35 -3 -3 -24 19 -47 48 -22 30 -51 63 -63 73 -20 18 -20 16 3 -16 13 -19 44
-60 69 -90 40 -49 45 -61 48 -116 7 -112 0 -106 -88 69 -52 104 -80 171 -74
175 13 9 28 43 25 60 -3 16 15 15 74 -6z m-441 -53 c0 -19 -8 -35 -21 -42 -47
-28 -111 -74 -150 -109 -24 -21 -47 -38 -52 -38 -5 0 -12 15 -14 33 -3 28 -4
26 -5 -10 -3 -72 -22 -49 -22 26 0 75 6 83 75 109 17 6 59 22 95 36 87 33 95
33 94 -5z m286 -56 c0 -16 20 -84 44 -153 25 -69 63 -181 86 -250 24 -69 75
-219 115 -335 40 -115 87 -257 105 -315 41 -134 152 -440 219 -603 2 -5 -12
-7 -30 -5 l-32 3 -146 435 c-80 239 -160 480 -178 535 -18 55 -52 161 -77 235
-24 74 -63 196 -86 270 -23 74 -49 148 -57 163 -16 32 -10 47 18 47 14 0 19
-7 19 -27z m-100 10 c0 -5 -13 -57 -29 -118 -16 -60 -34 -136 -41 -168 -6 -32
-31 -117 -55 -190 -36 -111 -64 -211 -101 -357 -3 -14 -12 -39 -20 -57 -8 -17
-14 -40 -14 -50 0 -10 -4 -23 -10 -29 -5 -5 -20 -54 -34 -109 -13 -55 -35
-143 -49 -195 -44 -167 -87 -354 -87 -376 0 -18 -7 -22 -47 -27 -27 -3 -49 -4
-50 -3 -2 1 7 27 19 57 11 30 29 86 39 124 9 39 49 160 87 270 38 110 97 297
131 415 34 118 77 265 96 325 19 61 45 153 59 205 46 182 81 290 94 290 6 0
12 -3 12 -7z m-1366 -24 c39 -22 40 -25 56 -117 6 -35 15 -75 20 -88 8 -19 5
-27 -17 -43 -18 -15 -27 -33 -30 -64 -6 -52 9 -68 70 -76 42 -6 42 -7 89 -101
50 -103 55 -120 34 -120 -36 0 -56 -81 -29 -120 14 -20 22 -22 73 -17 57 5 58
5 97 -37 22 -22 56 -61 76 -85 l37 -44 -21 -34 c-25 -41 -19 -76 16 -99 31
-20 97 -14 126 12 19 17 23 16 100 -21 80 -39 118 -68 102 -78 -7 -5 -8 -28
-4 -69 1 -4 15 -15 32 -24 30 -15 33 -15 52 4 10 11 16 25 13 31 -9 14 -46 15
-46 1 0 -17 -19 -11 -30 11 -7 11 -9 28 -6 36 6 14 9 14 27 -3 12 -11 34 -18
55 -17 20 1 37 -4 40 -11 4 -10 -73 -297 -122 -458 -4 -14 -17 -18 -62 -18
-64 0 -76 -6 -86 -37 -4 -13 -12 -23 -17 -23 -14 0 -67 38 -118 85 -24 22 -41
34 -37 28 19 -34 -21 -5 -104 73 -104 100 -223 261 -279 378 -46 96 -102 279
-116 376 -3 25 -13 77 -21 115 -32 157 -10 134 35 -37 17 -65 42 -141 56 -170
14 -29 23 -46 21 -38 -3 8 -20 65 -39 125 -82 263 -96 342 -97 541 0 97 10
254 16 254 2 0 19 -9 38 -21z m1182 4 c-8 -29 -10 -112 -3 -119 11 -11 8 -84
-3 -84 -5 0 -10 7 -10 16 0 8 -5 12 -10 9 -6 -4 -7 -13 -1 -24 6 -10 6 -32 2
-52 -17 -72 -55 -185 -69 -208 -15 -22 -16 -22 -29 -5 -7 10 -13 13 -13 7 0
-7 4 -14 9 -17 4 -3 6 -17 4 -31 -6 -29 -23 -24 -23 7 0 38 -12 10 -15 -35 -1
-24 -6 -53 -9 -65 -6 -19 -9 -20 -22 -8 -12 12 -12 20 1 56 8 24 15 53 15 65
0 13 5 25 12 27 9 3 9 15 0 48 -10 42 -9 46 25 97 27 41 38 51 45 41 8 -10 9
-9 4 4 -3 9 4 27 15 40 l19 23 -4 -27 c-3 -16 0 -28 6 -28 6 0 8 13 5 33 -3
21 2 44 17 69 11 20 17 40 12 45 -5 4 -11 2 -13 -5 -3 -7 -31 -46 -62 -85 -31
-40 -72 -96 -91 -126 -35 -56 -45 -55 -38 3 2 23 0 32 -8 29 -8 -3 -10 -23 -7
-61 3 -40 1 -63 -9 -76 -13 -16 -15 -3 -17 109 -3 147 0 155 81 209 29 19 80
57 113 85 65 54 79 60 71 34z m444 -209 c53 -112 58 -128 62 -208 2 -47 1 -83
-3 -79 -8 9 -159 454 -159 469 0 17 42 -60 100 -182z m-195 86 c20 -75 106
-335 164 -498 23 -63 39 -117 36 -122 -10 -16 -93 -31 -157 -28 -36 2 -64 6
-62 10 3 4 -12 16 -33 27 -50 25 -77 56 -103 113 l-21 47 20 73 c11 40 32 116
46 168 14 52 37 130 50 173 14 43 25 88 25 100 0 35 16 7 35 -63z m-1285 -79
c0 -5 26 -13 57 -17 76 -9 83 -20 65 -103 -8 -36 -18 -70 -23 -75 -11 -13 -51
23 -47 43 2 8 -7 26 -19 40 -13 13 -23 36 -23 52 0 15 -7 34 -15 43 -17 17
-19 26 -5 26 6 0 10 -4 10 -9z m1040 -81 c-7 -4 -10 -15 -7 -24 4 -9 2 -16 -3
-16 -5 0 -6 -16 -3 -35 5 -30 3 -34 -11 -29 -12 5 -16 0 -16 -17 0 -19 2 -21
10 -9 34 53 -16 -166 -79 -343 -17 -49 -31 -96 -31 -105 0 -9 -7 -26 -15 -36
-16 -21 -23 -12 -29 35 -1 13 -8 38 -16 54 -22 50 -20 67 17 142 41 85 57 103
60 66 1 -17 -2 -22 -7 -13 -10 15 -34 -60 -32 -97 1 -13 -2 -23 -7 -23 -8 0
-9 -23 -2 -77 2 -20 17 -15 18 5 1 10 14 55 28 101 15 45 25 93 22 106 -2 14
1 26 7 28 8 3 8 10 0 23 -9 15 -7 28 11 65 13 25 26 63 30 85 4 21 13 49 21
61 8 12 14 31 14 41 0 23 9 34 22 25 6 -3 5 -9 -2 -13z m-870 -1 c0 -35 112
-235 177 -317 l74 -92 -58 6 c-75 8 -98 31 -89 90 8 65 0 81 -51 93 -25 7 -46
11 -47 9 0 -2 -6 -12 -13 -24 -7 -13 -8 -26 -2 -35 7 -11 9 -9 9 7 0 27 30 36
62 20 19 -9 24 -21 26 -60 4 -61 -6 -73 -45 -53 -29 15 -93 108 -108 157 -4
13 -14 30 -21 38 -16 15 -18 32 -5 32 5 0 14 -6 21 -14 6 -8 18 -12 26 -9 10
4 12 9 4 18 -11 13 18 145 32 145 5 0 8 -5 8 -11z m2286 -116 c-14 -59 -88
-187 -99 -172 -8 10 -47 122 -47 134 0 7 14 17 32 20 29 7 43 12 88 36 26 14
32 10 26 -18z m-166 -58 c0 -9 9 -33 20 -55 11 -22 20 -50 20 -64 0 -13 5 -26
11 -28 5 -2 -5 -21 -23 -42 -18 -21 -40 -49 -48 -61 -24 -36 -141 -169 -158
-179 -8 -5 -28 -24 -44 -42 -27 -31 -218 -147 -227 -139 -2 2 6 16 18 31 12
15 21 41 21 61 0 70 29 86 109 63 26 -7 42 -6 68 7 32 15 33 17 27 57 -7 47
-12 87 -13 101 -1 5 -6 4 -13 -3 -9 -9 -8 -24 2 -66 18 -76 13 -80 -85 -72
-96 8 -101 5 -115 -75 -12 -78 -32 -118 -69 -140 -19 -11 -35 -19 -36 -17 -2
2 -14 36 -28 76 l-26 74 52 24 c98 46 135 70 257 173 46 39 87 71 92 71 4 0 8
6 8 13 0 8 27 47 60 88 32 41 69 93 81 117 23 43 39 54 39 27z m206 -102 c-15
-177 -17 -200 -27 -253 -26 -139 -133 -402 -215 -528 -61 -94 -181 -218 -266
-276 -52 -34 -53 -35 -56 -13 -2 12 -8 27 -13 33 -14 17 -99 274 -99 299 0 11
-9 38 -20 60 -24 47 -25 61 -5 69 9 3 15 0 15 -8 0 -7 7 -19 16 -27 10 -8 14
-23 12 -41 -6 -35 15 -37 30 -3 10 21 9 27 -8 37 -28 18 -25 31 5 24 21 -5 25
-3 25 14 0 17 -4 19 -25 14 -19 -5 -25 -2 -25 9 0 19 42 52 134 102 l68 37 38
-21 c50 -28 94 -27 114 1 30 42 9 54 -30 17 -21 -19 -24 -20 -53 -5 -17 9 -31
19 -31 21 0 12 41 45 56 45 8 0 12 5 9 10 -3 6 0 10 7 10 7 0 19 14 27 31 8
18 43 63 79 101 62 66 68 69 100 63 43 -8 90 18 71 41 -16 20 -32 18 -47 -6
-16 -26 -32 -26 -32 1 0 12 8 23 20 26 11 3 20 12 20 19 0 8 4 14 10 14 5 0
13 12 16 28 12 50 63 132 82 132 2 0 1 -35 -2 -77z m-1384 -112 c0 -9 2 -21 2
-26 1 -6 12 -25 24 -42 14 -19 22 -43 20 -59 -2 -15 2 -29 9 -31 7 -3 9 3 6
16 -3 12 -1 21 5 21 17 0 25 -21 13 -33 -6 -6 -11 -20 -11 -31 -1 -37 -26 -59
-56 -52 -25 7 -26 6 -14 -9 8 -9 21 -14 31 -12 15 4 16 1 7 -19 -12 -26 -2
-47 12 -25 6 11 9 10 12 -5 4 -17 6 -16 15 5 12 30 24 14 12 -16 -8 -23 -49
-33 -49 -12 0 6 -8 8 -20 4 -23 -7 -87 9 -116 29 -21 15 -21 16 -4 63 9 26 21
56 25 66 4 10 9 26 9 35 1 10 11 54 21 100 17 71 22 80 32 65 7 -9 14 -24 15
-32z m-843 -8 c14 -9 49 -18 80 -20 79 -6 83 -13 95 -182 l5 -64 -57 56 c-31
30 -76 73 -98 94 -55 50 -77 87 -69 113 8 24 14 25 44 3z m235 -92 c44 -49
282 -188 334 -195 9 -2 18 -10 20 -20 4 -17 -36 -146 -44 -146 -3 0 -19 7 -35
16 -25 12 -28 18 -18 30 7 9 8 14 1 14 -6 0 -12 -6 -15 -12 -3 -10 -9 -10 -26
0 -11 6 -28 12 -37 12 -19 0 -144 68 -189 102 -28 22 -30 27 -33 103 -2 44 -5
93 -9 108 -4 26 -3 28 14 19 10 -6 27 -20 37 -31z m970 -67 c-42 -76 -161
-190 -180 -171 -8 8 19 47 33 47 7 0 13 3 13 8 0 4 25 34 55 66 49 53 69 84
48 74 -48 -23 -63 -33 -63 -43 0 -6 -8 -20 -18 -31 -10 -10 -21 -28 -26 -39
-6 -16 -9 -17 -16 -5 -6 9 -3 18 8 26 14 10 14 15 5 25 -17 17 -24 8 -27 -36
-3 -37 -20 -64 -32 -52 -4 4 -2 13 5 21 9 11 9 15 0 18 -9 3 -8 12 4 34 9 16
19 37 23 47 4 10 17 17 34 17 15 0 41 7 56 15 16 8 36 15 45 15 9 0 22 7 29
15 27 33 30 -3 4 -51z m124 -236 c31 -88 30 -93 -25 -107 -158 -39 -249 -49
-306 -33 l-29 8 53 52 c61 61 50 71 -13 12 -23 -22 -47 -39 -52 -37 -11 5
-136 97 -136 101 0 1 35 2 78 2 131 0 362 33 387 55 16 15 20 11 43 -53z
m-463 -60 c87 -70 100 -88 66 -88 -16 0 -162 28 -248 47 -19 4 -21 10 -16 37
4 17 12 45 19 62 13 31 14 31 54 21 24 -7 75 -39 125 -79z m-131 -103 c27 -6
31 -14 18 -27 -17 -17 -15 -33 1 -19 8 6 17 8 20 4 4 -3 9 2 13 11 5 14 9 12
26 -9 24 -31 16 -45 -25 -45 -39 1 -72 23 -64 44 7 19 -12 33 -23 17 -12 -21
1 -61 28 -81 33 -26 80 -26 109 2 27 25 29 43 7 52 -47 18 20 27 218 29 110 2
149 -1 153 -10 2 -7 14 -13 25 -13 27 0 25 -12 -5 -40 -31 -29 -75 -22 -110
17 -24 28 -24 28 -25 5 0 -37 43 -72 89 -72 32 0 44 6 65 31 29 34 34 67 11
75 -8 4 -15 10 -15 14 0 11 50 29 89 32 38 3 26 29 119 -248 28 -83 54 -157
57 -165 4 -12 -69 -14 -485 -17 -269 -1 -490 1 -490 4 0 11 102 418 106 426 2
3 19 2 37 -3 17 -6 40 -12 51 -14z m928 -456 c-16 -14 -183 -78 -252 -98 -41
-12 -149 -32 -239 -46 -90 -14 -170 -30 -178 -36 -13 -12 -178 -2 -413 23 -94
10 -115 16 -201 59 -126 63 -148 91 -79 101 45 6 1369 3 1362 -3z m129 -6 c1
-5 2 -45 4 -90 l2 -81 -193 1 c-190 2 -238 9 -149 23 25 3 45 10 45 16 0 5 17
16 38 25 20 8 82 37 137 64 104 50 114 54 116 42z m-1547 -82 c28 -16 83 -39
121 -51 39 -13 74 -26 78 -30 4 -4 -54 -6 -130 -6 l-138 1 -1 58 c0 31 4 57 9
57 5 0 33 -13 61 -29z"/>
<path d="M13261 7957 c-1 -33 -3 -36 -18 -29 -10 5 -68 12 -129 16 -103 6
-112 5 -110 -11 0 -10 6 -21 11 -25 6 -4 65 -8 132 -8 106 0 124 -2 132 -17 5
-10 9 -22 9 -27 -1 -4 16 -31 37 -58 20 -27 43 -65 51 -83 14 -34 44 -55 44
-30 0 8 -9 30 -21 49 -12 20 -18 36 -14 36 4 0 -7 16 -24 35 -27 31 -69 101
-69 115 0 3 -7 21 -15 40 l-15 35 -1 -38z"/>
<path d="M5376 7933 c-26 -17 -41 -21 -46 -14 -4 8 -13 4 -26 -11 -16 -19 -16
-20 -1 -9 33 26 27 4 -10 -32 -37 -38 -53 -45 -53 -26 0 5 -5 7 -11 4 -6 -4
-8 -13 -5 -20 2 -7 -23 -39 -57 -72 -75 -71 -114 -99 -151 -109 -22 -5 -25 -9
-14 -15 12 -7 13 -18 6 -56 -13 -68 -14 -824 -3 -1593 12 -780 13 -1294 3
-1635 -11 -378 -12 -580 -3 -595 5 -9 4 -11 -3 -6 -9 5 -12 -6 -12 -38 0 -24
4 -46 9 -48 13 -4 23 -98 11 -98 -5 0 -11 19 -13 43 -3 40 -4 40 -5 -10 -1
-37 2 -52 10 -50 10 1 12 -79 10 -365 -2 -260 0 -368 8 -373 6 -4 8 -15 5 -26
-4 -11 -2 -19 4 -19 6 0 11 9 11 20 0 18 4 20 43 13 23 -5 102 -7 176 -7 73 1
127 -2 120 -6 -7 -5 75 -8 183 -9 107 0 206 -3 221 -6 14 -4 32 -3 39 1 43 28
184 44 204 24 11 -11 26 2 49 40 23 40 186 248 223 285 31 32 38 44 32 60 -7
17 -9 17 -9 3 -1 -10 -5 -18 -11 -18 -14 0 -12 63 3 79 10 11 9 12 -2 6 -11
-7 -12 -3 -6 16 10 27 7 201 -3 209 -8 5 -13 760 -5 760 8 0 91 -185 103 -230
7 -25 29 -97 50 -160 21 -63 68 -209 105 -325 36 -115 84 -264 105 -330 21
-66 45 -142 54 -170 31 -100 63 -186 74 -197 22 -22 12 -28 -44 -28 -34 0 -53
-4 -49 -10 9 -14 514 -12 685 2 74 6 225 12 335 12 l200 1 20 -37 c11 -21 22
-38 25 -38 9 0 5 95 -4 101 -8 6 78 129 90 129 8 0 -17 -43 -42 -73 -13 -16
-24 -33 -24 -40 0 -6 16 8 36 31 24 28 44 42 62 43 24 2 24 2 5 6 -13 2 -23 6
-23 8 0 2 16 32 35 67 19 34 45 82 57 106 14 27 27 41 36 37 16 -6 9 37 -13
83 -30 60 -95 214 -95 223 0 6 -12 36 -26 67 -34 74 -30 63 -124 302 -45 113
-90 228 -102 255 -11 28 -36 93 -54 145 -47 135 -92 259 -99 269 -6 11 -55
175 -61 207 -4 24 -112 284 -124 299 -4 6 -13 28 -20 50 -7 22 -16 44 -20 49
-5 5 -7 14 -6 20 2 6 1 8 -1 4 -8 -13 -21 -9 -27 8 -7 19 20 54 41 54 7 0 13
5 13 10 0 6 10 21 23 33 13 12 45 49 71 81 26 33 71 80 98 105 52 47 131 155
131 178 0 7 4 13 8 13 4 0 9 7 13 15 3 8 2 15 -3 15 -4 0 -28 -32 -52 -71 -24
-39 -61 -90 -82 -113 l-39 -41 34 50 c45 68 128 208 128 217 0 5 4 8 9 8 5 0
7 -9 4 -20 -3 -11 -1 -20 4 -20 7 0 25 51 38 110 1 3 13 43 27 90 38 123 45
170 53 360 3 74 10 175 14 224 16 167 4 282 -45 441 -13 44 -24 84 -24 88 0 5
-13 36 -29 70 -35 73 -50 123 -32 113 6 -4 11 -2 11 3 0 6 -7 11 -15 11 -8 0
-12 6 -9 14 8 20 -72 153 -153 254 -21 26 -22 31 -7 25 16 -6 16 -4 -3 23 -60
83 -197 182 -377 273 -78 38 -169 79 -204 90 -34 11 -79 33 -100 48 -30 22
-33 23 -18 5 11 -12 17 -22 14 -22 -3 0 -70 15 -149 34 -192 46 -304 59 -484
58 -541 -5 -914 -7 -905 -4 12 4 14 22 3 21 -5 0 -25 -12 -47 -26z m484 -39
c30 -2 163 0 295 5 250 9 409 -2 518 -34 26 -8 55 -11 64 -8 10 4 14 2 10 -4
-4 -6 0 -13 8 -17 8 -3 15 -1 15 4 0 6 4 10 10 10 5 0 9 -5 7 -11 -3 -14 12
-21 103 -50 41 -13 94 -32 118 -42 58 -25 63 -16 7 12 -43 21 -66 41 -48 41
19 0 133 -44 210 -81 45 -21 86 -39 90 -39 5 0 14 -5 21 -12 6 -6 41 -28 76
-47 36 -20 81 -49 101 -66 20 -16 52 -43 72 -60 19 -16 56 -61 80 -100 25 -38
58 -88 73 -110 23 -34 50 -95 50 -113 0 -3 -10 3 -21 14 -22 19 -22 19 -10 -3
6 -13 16 -23 21 -23 5 0 18 -30 30 -67 22 -74 32 -98 61 -156 11 -20 26 -72
34 -115 8 -42 17 -90 20 -107 4 -16 10 -43 15 -60 12 -38 18 -338 7 -387 -5
-23 -14 -38 -23 -38 -10 0 -13 7 -9 23 16 68 22 118 13 123 -5 4 -5 10 0 17 5
7 7 21 5 32 -3 11 -5 38 -4 60 0 31 -2 36 -9 20 -8 -19 -11 -18 -14 7 0 6 -7
13 -15 16 -8 3 -11 0 -7 -7 4 -6 1 -11 -8 -11 -8 0 -18 -10 -22 -22 -3 -13
-14 -32 -23 -43 -16 -19 -15 -19 9 -4 14 9 26 26 28 38 2 12 9 20 15 18 8 -2
12 -36 12 -99 1 -74 -2 -95 -12 -91 -7 3 -13 9 -13 14 0 5 -4 9 -10 9 -16 0
-12 -22 8 -36 9 -7 12 -14 5 -14 -6 0 -11 -13 -11 -30 1 -16 5 -27 10 -24 4 3
8 1 8 -5 0 -5 -5 -11 -10 -13 -14 -4 -21 -48 -8 -48 5 0 8 -7 5 -14 -4 -11 -1
-13 10 -9 13 5 14 3 4 -16 -7 -12 -15 -20 -19 -17 -4 2 -8 -10 -9 -27 -2 -18
-7 -33 -13 -35 -6 -2 -4 -9 4 -17 7 -7 12 -30 12 -51 -2 -35 -5 -39 -29 -41
-16 -1 -25 2 -21 8 3 6 11 8 18 6 6 -3 12 4 12 14 0 12 -5 18 -13 15 -7 -3
-13 -1 -13 3 0 5 7 11 15 15 8 3 15 11 14 18 0 10 -2 10 -6 1 -8 -21 -18 -15
-19 12 -1 14 2 25 6 25 10 0 8 33 -3 41 -4 3 -3 18 2 32 8 20 7 27 -1 27 -9 0
-9 3 0 12 8 8 9 15 1 25 -9 9 -8 13 0 13 7 0 9 5 5 12 -4 7 -9 50 -10 97 -2
48 -4 86 -5 86 -2 0 -9 52 -9 73 0 26 -20 30 -21 5 -2 -39 -30 54 -44 140 -19
125 -35 196 -46 203 -5 3 -9 12 -9 20 0 35 -118 250 -173 314 -7 9 -16 24 -20
34 -4 9 -11 15 -16 12 -5 -3 -22 9 -38 27 -39 44 -152 139 -225 189 -121 82
-273 145 -448 186 -25 6 -74 18 -110 26 -157 37 -527 55 -780 37 -192 -13
-721 -34 -726 -28 -2 2 14 17 35 33 62 47 161 132 224 191 l58 56 197 -7 c108
-4 222 -9 252 -12z m465 -279 c182 -21 254 -33 375 -62 136 -33 350 -116 403
-157 23 -18 68 -49 99 -70 60 -39 184 -170 211 -221 8 -16 33 -48 55 -70 22
-22 38 -43 36 -47 -2 -3 6 -22 19 -41 32 -47 93 -249 117 -388 5 -26 13 -64
19 -84 7 -25 7 -44 1 -56 -6 -10 -10 -35 -9 -56 0 -21 3 -32 6 -25 2 6 9 12
14 12 12 0 10 -420 -2 -435 -4 -6 -6 -25 -5 -43 1 -17 -1 -32 -5 -32 -3 0 -5
-12 -3 -27 1 -15 -3 -36 -9 -47 -7 -12 -12 -25 -13 -31 -5 -44 -18 -96 -25
-101 -5 -3 -9 -14 -9 -25 0 -32 -78 -207 -132 -297 -55 -92 -123 -155 -282
-263 l-89 -61 -19 24 -19 23 15 -30 c18 -38 8 -57 -36 -76 l-33 -14 34 -5 c31
-5 36 -11 78 -105 64 -143 146 -347 178 -440 14 -44 69 -180 122 -303 90 -211
111 -275 65 -200 -11 18 -73 132 -137 253 -65 121 -149 277 -187 348 -37 70
-97 186 -133 257 -36 72 -118 224 -182 338 -187 333 -254 454 -263 476 -5 12
-18 35 -29 51 -24 35 -26 45 -7 45 21 0 112 148 134 220 37 118 45 181 44 344
-2 176 -13 232 -67 352 -33 74 -111 161 -187 212 -53 34 -47 39 8 8 27 -15 41
-20 33 -10 -7 8 -31 25 -53 36 -23 11 -43 24 -46 28 -3 4 -32 17 -65 29 -54
20 -72 22 -178 17 -65 -3 -127 -10 -137 -16 -10 -5 -36 -11 -57 -12 -35 -1
-35 -2 -7 -5 l31 -4 -3 -587 c-2 -323 0 -617 4 -654 5 -39 4 -75 -1 -84 -16
-28 12 -36 114 -30 146 9 196 21 303 76 80 41 102 48 112 38 6 -7 42 -71 79
-143 37 -71 100 -188 140 -260 40 -71 109 -202 155 -290 108 -209 205 -388
300 -555 43 -74 130 -234 195 -355 65 -121 126 -231 135 -245 10 -14 49 -106
88 -205 39 -99 84 -211 100 -250 30 -74 46 -125 37 -125 -2 0 -101 192 -219
428 -117 235 -251 497 -296 582 -152 284 -256 483 -365 695 -95 187 -142 270
-118 210 14 -35 223 -444 299 -588 41 -75 74 -139 74 -142 0 -3 23 -46 51 -97
28 -50 186 -362 352 -692 165 -331 313 -623 329 -649 50 -86 59 -82 -199 -82
-219 0 -517 -9 -729 -21 l-102 -6 -7 33 c-4 19 -58 187 -120 374 -204 612
-285 883 -309 1035 -12 73 -14 80 -10 30 3 -36 8 -77 11 -92 12 -59 -20 -25
-63 68 l-44 96 -4 154 c-3 85 -1 154 3 154 4 0 13 -6 20 -12 10 -11 12 -9 9 7
-2 14 -13 21 -32 23 l-29 4 6 -127 c8 -150 2 -154 -58 -44 -22 41 -67 102
-102 137 -55 56 -62 61 -68 42 -3 -11 -13 -20 -20 -20 -21 0 -28 -19 -15 -36
10 -11 12 -220 12 -902 l-1 -887 -478 0 -478 0 2 426 2 427 119 238 c66 132
146 286 177 344 143 263 205 380 205 387 0 20 -287 -502 -400 -728 -38 -76
-79 -152 -90 -171 l-21 -33 7 70 c8 78 28 126 132 300 36 61 86 148 112 195
79 143 231 405 350 605 100 169 257 438 312 535 l20 35 -26 -30 c-15 -16 -111
-169 -214 -340 -286 -473 -337 -559 -502 -850 -84 -148 -161 -283 -172 -300
l-19 -30 0 85 c-2 236 9 1964 14 2110 1 41 -1 89 -4 107 -4 18 -4 35 -1 38 3
3 5 24 4 48 -3 101 -14 727 -16 987 -2 157 -5 291 -7 299 -6 22 39 29 126 19
76 -9 287 -5 530 11 201 14 495 11 630 -4z m5 -820 c59 -12 102 -40 171 -112
146 -151 193 -286 188 -538 -4 -161 -40 -309 -85 -344 -38 -30 -180 -63 -259
-59 -56 2 -69 6 -66 18 10 43 -3 964 -15 1019 -6 29 -5 33 12 28 10 -3 35 -9
54 -12z m-249 -487 c1 -31 -2 -66 -6 -78 -6 -19 -4 -22 11 -18 14 4 19 -1 20
-19 2 -27 -10 -30 -26 -5 -11 16 -11 16 -6 -1 3 -10 6 -34 6 -53 0 -23 4 -33
11 -28 6 3 9 15 6 25 -3 10 -2 21 3 24 11 7 18 -27 10 -50 -8 -21 -3 -45 9
-45 11 0 11 83 0 96 -7 8 -6 14 1 19 18 11 22 0 22 -63 1 -50 4 -61 19 -65 20
-5 17 -37 -3 -37 -6 0 -8 7 -4 15 3 8 1 15 -5 15 -8 0 -9 -29 -4 -92 4 -51 8
-105 9 -119 0 -17 6 -25 14 -22 6 3 12 0 12 -6 0 -6 -4 -11 -9 -11 -8 0 -7
-77 1 -85 2 -2 11 3 22 10 14 11 18 27 18 74 0 32 -3 64 -6 70 -4 6 -9 39 -12
73 -2 35 -7 71 -10 80 -3 10 -1 18 5 18 6 0 11 -8 12 -17 1 -19 4 -38 20 -123
26 -136 25 -139 -23 -184 -24 -23 -67 -67 -96 -99 -37 -42 -52 -54 -53 -40 -4
69 2 515 7 588 7 91 7 107 3 135 -1 8 -1 33 -1 55 3 60 23 29 23 -37z m1153
-1339 c-3 -5 1 -22 9 -37 40 -75 188 -375 212 -427 15 -33 44 -94 63 -135 20
-41 35 -82 33 -92 -1 -9 3 -20 10 -24 7 -4 9 -3 6 2 -3 6 -2 16 3 24 6 10 19
1 54 -36 25 -26 46 -53 46 -59 0 -6 14 -21 31 -34 17 -12 28 -28 26 -35 -3 -6
4 -22 14 -35 11 -13 19 -17 19 -10 0 23 16 -4 39 -66 13 -33 28 -70 34 -82 12
-26 1 -45 -13 -23 -8 12 -10 12 -10 2 0 -8 9 -16 20 -19 10 -3 22 -15 26 -27
3 -11 17 -43 29 -71 38 -81 137 -309 139 -320 1 -5 9 -26 18 -46 9 -20 19 -47
22 -60 7 -23 6 -23 -8 -5 -20 25 -20 15 -2 -29 17 -39 31 -47 21 -12 -5 17 -4
19 4 7 6 -8 8 -23 5 -33 -3 -11 3 -24 16 -35 11 -9 22 -24 23 -32 2 -8 6 -21
10 -27 5 -7 4 -13 -1 -13 -10 0 -46 39 -56 60 -17 39 -65 115 -75 118 -6 2 13
-38 42 -89 28 -50 60 -94 70 -97 31 -8 20 -33 -57 -132 -72 -92 -95 -126 -106
-156 -6 -15 -14 -24 -17 -20 -13 13 -76 191 -75 214 0 12 -4 22 -9 22 -6 0 -9
6 -8 13 2 6 -14 46 -34 89 -20 42 -37 83 -37 92 0 8 -8 30 -18 48 -11 18 -24
51 -31 73 -7 22 -15 47 -18 55 -4 8 -5 19 -4 23 1 5 -5 20 -13 35 -33 61 -109
243 -167 402 -24 67 -115 293 -138 345 -18 40 -71 187 -71 197 0 6 7 5 18 -3
9 -7 6 0 -8 15 -14 16 -18 26 -10 22 8 -4 7 -1 -4 8 -21 17 -49 66 -37 66 4 0
13 -12 20 -26 6 -15 14 -24 17 -21 4 3 -8 32 -26 64 -79 142 -94 171 -122 226
-33 65 -41 112 -19 112 9 0 20 -23 31 -60 9 -33 43 -112 76 -175 33 -63 65
-131 73 -150 7 -19 21 -56 31 -82 10 -27 15 -48 10 -48 -5 0 -11 6 -13 13 -3
6 -6 7 -6 1 -1 -6 10 -21 23 -33 16 -15 22 -29 18 -43 -3 -11 1 -24 9 -29 9
-5 9 -9 2 -9 -7 0 -3 -18 12 -47 12 -27 28 -66 35 -88 11 -37 40 -105 61 -147
5 -10 9 -22 9 -28 0 -5 14 -39 30 -73 17 -35 30 -73 30 -83 0 -10 7 -32 15
-48 8 -15 15 -34 15 -41 0 -12 25 -67 85 -185 13 -25 26 -61 30 -80 4 -19 11
-39 15 -45 4 -5 10 -22 13 -36 9 -34 78 -181 84 -176 2 3 -10 39 -27 81 -17
43 -32 86 -33 96 -2 11 -6 23 -10 26 -13 14 -7 26 11 20 9 -3 5 4 -10 17 -16
12 -28 26 -28 31 0 4 -22 52 -50 106 -27 54 -59 129 -70 167 -12 37 -34 100
-50 138 -15 39 -33 86 -39 105 l-11 35 21 -25 20 -25 -12 25 c-13 24 -15 31
-18 49 0 5 -9 11 -19 13 -10 3 -19 11 -19 19 0 8 -7 30 -15 49 -36 82 -41 96
-43 123 -5 48 12 29 35 -40 22 -66 50 -116 35 -63 -15 56 -57 160 -65 160 -7
0 -64 134 -88 208 -11 33 -11 34 11 19 12 -8 22 -21 22 -28 1 -8 6 -25 12 -39
23 -54 35 -96 34 -117 0 -12 4 -25 11 -29 8 -5 9 0 5 15 -5 20 -3 22 21 17
l27 -6 -27 17 c-15 9 -29 25 -32 35 -3 14 -1 17 8 11 6 -4 4 -1 -6 8 -9 9 -15
19 -12 22 3 3 1 13 -4 24 -5 10 -15 39 -21 66 -6 26 -22 65 -36 87 -24 38
-106 197 -119 230 -3 8 -14 26 -23 40 -18 23 -17 24 2 16 15 -5 17 -4 8 5 -13
13 -6 42 8 33 5 -3 7 -10 3 -15z m271 -436 c4 -23 55 -119 88 -168 16 -23 27
-32 30 -23 3 8 8 4 15 -13 5 -14 23 -40 38 -58 29 -35 78 -131 66 -131 -13 1
-42 27 -42 39 0 7 -32 42 -71 79 -60 58 -76 81 -114 165 -25 54 -47 108 -49
120 -2 12 -5 27 -6 32 -6 25 2 26 21 2 11 -15 22 -34 24 -44z m-1330 -684 c3
-30 10 -100 15 -157 6 -56 8 -106 6 -111 -3 -4 1 -17 9 -27 14 -17 14 -13 9
41 -4 33 -8 94 -9 135 -1 41 -5 85 -8 98 -7 25 8 30 17 6 4 -9 11 -71 16 -138
6 -66 12 -146 15 -176 3 -45 2 -50 -6 -28 -10 25 -39 47 -39 29 0 -5 7 -11 15
-15 9 -3 15 -18 15 -40 0 -19 5 -38 10 -41 6 -3 10 -18 10 -32 0 -18 -4 -24
-15 -19 -12 4 -14 0 -9 -21 4 -14 8 -39 9 -55 3 -60 5 -68 15 -68 6 0 8 10 4
24 -3 13 -1 27 4 30 7 4 10 -17 10 -58 0 -35 2 -69 6 -74 5 -8 -37 -63 -92
-120 -6 -8 -17 -22 -22 -33 -6 -10 -14 -19 -18 -19 -4 0 -8 183 -8 405 -1 223
1 404 4 401 3 -3 6 -34 8 -68 1 -35 6 -97 10 -138 4 -41 6 -113 5 -160 -4
-136 10 -373 21 -362 6 6 5 72 -1 178 -5 93 -6 185 -2 204 4 19 3 62 -2 95 -5
33 -8 69 -7 80 2 33 2 35 -5 170 -8 127 0 173 10 64z m-59 -336 c2 -92 6 -221
9 -285 3 -65 2 -118 -3 -118 -4 0 -8 -37 -7 -82 0 -73 -3 -87 -25 -120 -14
-21 -28 -37 -32 -38 -14 0 -8 27 11 51 14 19 20 44 22 104 1 44 6 85 9 90 4 6
4 59 1 118 -4 60 -6 121 -5 135 1 15 2 94 3 176 0 82 4 146 7 143 4 -4 8 -82
10 -174z"/>
<path d="M6455 5313 c-11 -3 -31 -15 -44 -26 -21 -20 -23 -28 -18 -90 5 -82
25 -111 55 -84 20 18 52 23 52 8 0 -19 39 -22 65 -5 20 13 28 14 40 4 51 -43
63 58 15 133 -39 61 -87 79 -165 60z m65 -83 c80 0 99 -3 104 -16 8 -22 8 -54
-1 -54 -105 -4 -191 -2 -201 4 -7 4 -11 25 -10 49 1 23 3 36 6 29 2 -8 33 -12
102 -12z"/>
<path d="M5950 5213 c-34 -7 -58 -30 -86 -85 -27 -53 -28 -67 -13 -120 10 -39
26 -47 47 -26 13 13 155 11 160 -3 14 -39 66 49 64 109 -2 48 -39 109 -75 122
-30 10 -52 11 -97 3z m153 -95 c2 -7 -1 -24 -9 -38 -7 -14 -15 -33 -18 -42 -3
-11 -15 -18 -32 -18 -23 0 -25 2 -14 16 12 13 7 15 -46 12 -42 -2 -58 -7 -56
-16 2 -9 -7 -12 -30 -10 -31 3 -33 5 -33 43 l0 40 113 3 c69 2 110 6 107 12
-3 6 -2 10 4 10 5 0 11 -6 14 -12z"/>
<path d="M6637 4420 c-40 -7 -56 -17 -97 -61 -48 -51 -59 -69 -42 -69 10 0 36
-60 28 -67 -8 -8 -17 1 -21 24 -2 10 -4 23 -6 28 -7 32 -15 -109 -9 -155 12
-89 60 -229 82 -241 22 -12 72 -4 64 10 -14 22 23 31 95 22 56 -6 64 -9 34
-11 -22 -1 -45 -2 -51 -1 -7 1 -14 -8 -17 -19 -5 -18 0 -20 58 -20 47 0 64 4
69 15 3 10 19 15 46 15 29 0 40 4 40 15 0 10 10 15 30 15 20 0 30 -5 30 -15 0
-21 35 -37 65 -29 20 5 28 17 41 63 9 31 23 64 32 74 9 11 11 17 4 17 -7 0
-12 9 -12 19 0 11 -16 50 -35 87 -19 37 -35 68 -35 69 0 2 9 5 21 8 29 8 18
33 -12 29 -21 -2 -29 6 -51 55 -34 74 -75 113 -130 124 -53 10 -156 9 -221 -1z
m279 -54 c36 -36 45 -62 18 -52 -9 3 -85 6 -169 6 l-153 0 -4 30 c-3 21 0 34
11 40 9 5 72 10 140 10 l123 0 34 -34z m10 -72 c28 -7 71 -82 52 -89 -8 -3
-95 -4 -193 -3 l-180 3 2 35 c2 55 20 61 168 60 71 -1 139 -4 151 -6z m-374
-117 c9 -3 18 -2 20 4 2 5 38 5 93 -2 88 -11 279 -7 322 6 17 6 25 0 46 -37
14 -23 28 -66 31 -94 5 -42 3 -54 -13 -68 -10 -9 -29 -18 -42 -18 -79 -5 -416
4 -427 11 -7 4 -20 34 -28 67 -9 32 -20 64 -24 69 -5 6 -12 31 -16 55 -5 39
-4 43 7 29 8 -9 22 -19 31 -22z"/>
<path d="M5425 4032 c-52 -25 -78 -54 -109 -125 -14 -32 -30 -56 -35 -52 -6 3
-22 3 -36 -1 -24 -6 -25 -8 -11 -22 12 -13 18 -13 30 -2 28 23 18 -7 -30 -85
-59 -95 -62 -146 -12 -245 30 -58 36 -65 63 -65 23 0 31 5 33 23 3 22 4 22
185 20 l182 -2 -167 -6 c-91 -3 -170 -9 -175 -13 -4 -5 76 -7 179 -5 171 3
187 2 192 -14 6 -26 66 -24 88 2 10 10 14 22 9 24 -10 6 -8 37 4 56 5 8 9 24
10 36 0 13 12 32 27 43 21 17 24 26 19 51 -3 17 -3 70 0 118 5 66 3 92 -7 107
-120 175 -111 169 -272 173 -108 2 -133 0 -167 -16z m246 -12 c58 0 59 -1 85
-41 14 -23 44 -61 65 -84 22 -24 36 -46 31 -49 -5 -3 -22 11 -38 31 -28 36
-29 36 -36 12 l-7 -24 1 25 c2 38 -12 72 -28 66 -7 -3 -16 -1 -19 4 -4 6 -79
10 -178 10 l-171 0 22 22 c18 18 38 23 104 29 46 3 89 4 96 2 8 -1 40 -3 73
-3z m45 -88 c11 -7 34 -74 34 -99 0 -10 -49 -13 -210 -13 -236 0 -226 -4 -188
75 l22 45 165 0 c92 0 171 -4 177 -8z m124 -155 c0 -18 -7 -42 -14 -53 -15
-20 -28 -70 -42 -149 -5 -32 -8 -36 -14 -20 -7 19 -7 19 -19 -3 -12 -22 -14
-22 -251 -22 -234 0 -239 0 -263 23 -22 19 -46 77 -32 77 2 0 19 -9 37 -20 35
-21 78 -27 78 -10 0 5 -12 13 -27 16 -23 6 -46 17 -81 40 -5 3 24 57 53 101
l26 37 239 0 239 1 4 -25 c3 -25 7 -21 22 25 2 8 14 15 25 15 16 0 20 -6 20
-33z"/>
<path d="M5260 3696 c0 -17 43 -56 62 -56 28 0 47 -11 42 -24 -7 -18 39 -26
142 -26 65 0 84 3 84 14 0 8 8 17 18 21 35 15 -22 24 -156 24 l-134 1 -29 29
c-16 16 -29 24 -29 17z"/>
<path d="M8404 7949 c-2 -3 33 -9 77 -12 44 -3 83 -8 87 -11 3 -4 -39 -52 -94
-109 -55 -56 -114 -119 -132 -140 -21 -24 -39 -37 -48 -33 -13 5 -14 -83 -10
-734 2 -407 7 -744 10 -749 7 -11 21 -606 19 -820 -1 -97 -6 -162 -13 -176
-10 -19 -9 -27 6 -49 16 -25 17 -48 10 -269 -6 -222 -16 -1099 -19 -1764 l-1
-273 -36 0 c-26 0 -31 -3 -20 -10 8 -5 25 -10 38 -10 12 0 22 -5 22 -11 0 -8
-14 -10 -40 -6 -22 3 -43 1 -46 -4 -3 -5 18 -9 45 -9 34 0 51 -4 52 -12 1 -7
2 -20 3 -28 2 -8 3 -27 4 -42 1 -16 7 -28 13 -28 8 0 10 17 6 55 -3 30 -2 57
2 59 21 13 955 21 1221 10 292 -12 464 -16 460 -12 -5 5 -165 17 -255 19 -46
1 -48 1 -20 10 17 5 154 9 305 8 292 0 661 8 669 16 10 11 -13 19 -77 26 l-67
7 65 0 c36 1 94 3 130 6 67 5 65 2 -4 -9 -33 -5 -37 -8 -25 -20 19 -19 111 -1
102 21 -4 11 5 14 38 16 24 0 57 2 74 3 16 1 38 -3 49 -9 14 -8 20 -8 23 2 3
6 11 12 18 12 8 0 17 5 21 12 5 8 -3 9 -29 5 -42 -7 -60 9 -25 22 20 7 18 9
-19 12 -32 3 -43 1 -47 -11 -3 -12 -4 -11 -5 3 -1 10 -9 17 -23 18 -56 1 -113
11 -119 21 -4 6 -38 9 -84 7 -60 -3 -79 -1 -83 10 -4 11 9 13 74 7 130 -12
355 -16 314 -5 -19 5 -61 9 -92 9 -32 0 -58 4 -58 9 0 13 27 20 80 20 84 -1
103 1 96 9 -10 9 -8 9 -138 11 -124 2 -123 14 2 27 40 4 82 8 94 9 12 1 32 3
45 4 37 2 19 12 -30 16 -24 3 -71 8 -104 13 -33 4 -95 8 -138 7 -42 0 -77 3
-77 7 0 4 14 18 31 30 83 61 213 268 259 413 7 22 16 44 21 50 5 5 9 16 9 25
0 9 13 56 29 105 16 50 32 108 35 130 4 22 10 54 15 70 5 17 19 84 31 150 11
66 26 138 33 160 26 86 9 362 -34 578 -11 56 -22 113 -24 127 -2 14 -4 26 -6
28 -1 1 -2 5 -3 10 -9 39 -21 69 -56 131 -22 41 -40 78 -40 82 0 5 -25 47 -55
94 -30 47 -50 85 -45 85 5 0 24 23 42 50 18 28 50 62 71 76 36 23 62 65 58 90
-1 7 5 14 14 18 27 10 16 34 -34 70 -71 52 -72 61 -16 151 13 22 24 52 25 66
0 22 -8 30 -51 47 -28 12 -48 26 -45 31 4 5 8 28 10 52 3 23 8 45 13 48 4 3 8
24 9 46 1 47 12 171 18 200 2 11 7 49 11 85 4 36 10 81 14 100 15 70 4 261
-19 344 -12 43 -18 81 -14 84 4 4 9 1 11 -5 10 -27 20 -11 13 20 -10 45 -31
87 -43 87 -6 0 -8 3 -4 6 3 4 0 18 -7 33 -7 14 -19 52 -26 84 -7 31 -17 57
-22 57 -5 0 -6 5 -3 11 4 6 -3 21 -14 33 -12 13 -21 27 -20 32 4 17 -19 59
-70 127 -28 37 -46 67 -41 67 5 0 25 -9 44 -21 20 -12 36 -18 36 -15 0 3 -33
24 -72 47 -40 23 -95 65 -122 93 -51 54 -108 90 -243 157 -132 64 -95 68 42 4
83 -39 106 -45 59 -15 -50 32 -194 82 -194 67 0 -8 -3 -8 -9 2 -9 14 -297 94
-401 111 -30 5 -84 14 -119 20 -36 6 -74 10 -85 8 -12 -1 -27 2 -35 6 -9 6
-12 5 -8 -1 4 -6 -51 -8 -156 -5 -267 6 -1109 7 -1113 1z m296 -33 c19 -3 179
-6 355 -7 176 -2 379 -6 450 -10 72 -5 173 -9 225 -10 52 -1 100 -4 105 -8 13
-7 28 -10 97 -20 31 -4 62 -12 70 -18 7 -6 27 -11 43 -11 46 -1 258 -67 333
-103 147 -71 314 -213 388 -331 15 -23 46 -72 69 -108 59 -92 148 -381 125
-404 -7 -7 -10 -2 -10 12 0 12 -4 22 -10 22 -5 0 -10 11 -10 24 0 14 -9 41
-21 60 -12 20 -18 36 -15 36 3 0 -5 11 -18 25 -13 14 -27 25 -32 25 -14 0 -34
38 -29 53 8 19 -155 177 -244 237 -40 27 -81 61 -92 75 -11 14 -26 25 -32 24
-7 0 -2 -7 11 -16 12 -8 22 -20 22 -25 0 -5 -10 -4 -22 2 -17 8 -15 4 6 -12
16 -13 57 -46 91 -75 35 -29 65 -50 68 -47 10 11 101 -77 103 -99 2 -21 22
-65 34 -72 24 -15 138 -270 126 -282 -2 -2 -19 29 -38 69 -43 89 -135 234
-185 289 -115 127 -407 313 -583 372 -181 60 -208 62 -665 60 -231 -1 -550 -5
-710 -9 -159 -4 -302 -6 -317 -5 -16 1 -28 -3 -28 -8 0 -12 51 -22 110 -20 25
0 290 0 588 0 580 0 787 -12 922 -51 36 -10 99 -28 140 -40 181 -53 367 -166
496 -302 86 -91 159 -229 227 -428 54 -157 65 -219 73 -400 l5 -133 -41 7
c-23 4 -58 1 -81 -5 -37 -12 -41 -11 -57 12 -9 13 -17 29 -17 34 -1 6 -7 9
-15 7 -7 -2 -16 1 -19 6 -4 6 -16 6 -31 0 -18 -7 -21 -11 -11 -17 7 -5 13 -12
13 -17 -1 -5 6 -8 15 -6 10 2 13 -2 9 -15 -3 -10 -1 -25 4 -33 9 -13 12 -13
24 3 18 23 29 22 17 -2 -10 -17 -8 -18 22 -11 17 4 44 12 58 18 25 10 86 -2
104 -20 10 -10 -7 -58 -20 -58 -17 0 -75 -33 -75 -42 0 -6 35 2 73 17 17 7 18
4 11 -31 -10 -59 -31 -104 -48 -104 -10 0 -13 6 -9 16 5 14 3 13 -15 -2 -12
-10 -22 -23 -22 -29 0 -5 5 -3 10 5 6 11 12 12 20 4 8 -8 -4 -20 -41 -43 -57
-35 -77 -34 -109 6 -11 14 -23 23 -26 20 -3 -3 8 -20 25 -37 16 -18 32 -37 33
-42 2 -6 35 8 72 31 37 22 70 41 72 41 23 0 -31 -181 -87 -292 -28 -55 -57
-79 -46 -39 4 15 1 18 -12 13 -11 -4 -7 6 12 30 15 20 27 39 27 43 0 8 -54
-32 -104 -78 -42 -38 -73 -54 -84 -43 -7 8 33 46 48 46 6 0 8 4 5 10 -3 5 0 7
8 4 16 -6 96 68 135 124 37 51 15 37 -50 -33 -34 -36 -67 -65 -74 -65 -8 0
-31 -16 -53 -35 -42 -38 -56 -43 -65 -20 -3 8 -2 15 3 15 15 0 120 73 125 87
5 11 1 11 -17 1 -12 -6 -33 -13 -47 -14 -14 -2 -37 -17 -52 -34 -32 -35 -43
-37 -82 -11 -16 11 -35 17 -42 14 -23 -9 -16 -23 11 -23 38 0 150 -94 150
-126 1 -14 -3 -28 -7 -30 -14 -9 -9 -22 11 -29 31 -10 13 -43 -48 -88 -31 -23
-57 -45 -59 -49 -2 -5 -9 -8 -15 -8 -7 0 -20 -11 -29 -24 -17 -23 -17 -24 7
-30 14 -4 39 -21 57 -39 18 -17 50 -41 72 -52 42 -22 174 -160 232 -242 43
-62 53 -103 25 -103 -11 0 -22 4 -26 9 -7 12 -46 11 -62 -2 -8 -6 -23 -6 -40
1 -46 17 -81 23 -87 13 -5 -8 35 -31 57 -31 21 0 43 -19 32 -27 -5 -5 -19 -18
-30 -31 -16 -20 -17 -25 -5 -33 12 -7 12 -11 2 -17 -7 -5 -12 -13 -10 -18 1
-5 -19 -31 -45 -58 -26 -27 -47 -55 -47 -62 0 -20 -42 -45 -55 -34 -7 5 -15 7
-18 4 -3 -4 -13 1 -22 10 -15 15 -15 17 -1 32 9 8 16 20 16 27 0 6 41 51 91
100 50 48 89 91 86 94 -14 13 -141 -82 -131 -98 2 -4 -1 -11 -7 -15 -8 -4 -9
-3 -5 4 13 21 -5 13 -38 -16 -18 -16 -31 -35 -28 -43 3 -11 2 -11 -7 1 -9 13
-15 10 -43 -17 -18 -18 -27 -33 -20 -33 6 0 12 -5 12 -11 0 -6 -5 -7 -12 -2
-13 8 -18 9 -38 12 -5 0 -10 6 -10 12 0 6 7 8 16 5 8 -3 12 -2 9 4 -3 6 -1 10
4 10 16 0 51 32 45 42 -3 4 1 5 8 3 14 -6 138 105 138 123 0 6 9 18 21 26 12
8 18 19 14 25 -3 7 4 20 17 31 15 12 18 19 9 20 -11 0 -11 4 2 18 31 35 17 31
-55 -14 -40 -24 -74 -40 -76 -35 -2 6 -11 8 -20 5 -22 -7 42 50 91 82 21 14
35 29 32 34 -3 5 4 14 15 20 20 11 28 30 12 30 -5 0 -19 -10 -31 -21 -18 -17
-20 -23 -9 -30 10 -7 9 -9 -4 -9 -9 0 -39 -18 -68 -41 -32 -25 -64 -42 -84
-43 -18 -2 -38 -6 -45 -10 -23 -15 -10 7 33 52 25 26 72 67 105 92 33 25 60
51 61 58 0 16 -8 12 -83 -46 -32 -24 -61 -41 -65 -37 -4 4 1 13 12 20 10 8 34
28 53 46 28 25 32 33 22 41 -11 7 -11 11 -1 15 6 2 12 10 12 16 0 6 -15 -2
-32 -19 -59 -54 -78 -67 -84 -61 -4 4 -1 13 6 21 10 13 7 13 -20 0 -29 -15
-30 -17 -13 -29 10 -7 15 -17 11 -21 -4 -4 -3 -13 3 -20 7 -8 7 -18 0 -31 -5
-10 -12 -30 -15 -45 -4 -15 -21 -43 -40 -63 -19 -20 -35 -38 -35 -41 -1 -2 -1
-8 -1 -14 0 -5 -7 -10 -16 -10 -14 0 -14 3 -4 15 7 8 9 15 5 15 -5 0 0 9 10
20 19 21 29 50 17 50 -3 0 -27 -14 -54 -31 -27 -17 -51 -29 -54 -26 -3 3 6 22
21 41 29 39 20 47 -25 21 -35 -20 -43 -18 -28 8 13 22 19 57 11 57 -3 0 -19
-10 -36 -22 -35 -25 -68 -32 -61 -13 3 7 15 18 27 24 21 11 21 11 -3 5 -14 -3
-31 -14 -39 -25 -14 -20 -31 -25 -31 -9 0 5 22 24 50 42 27 18 48 34 46 36 -7
6 -65 -28 -101 -59 -19 -17 -35 -26 -35 -21 0 6 12 20 28 32 147 113 209 145
263 136 40 -6 60 7 41 26 -8 8 -16 7 -28 -3 -16 -12 -17 -12 -11 4 5 15 2 16
-21 11 -27 -7 -106 -47 -174 -91 -48 -30 -58 -30 -21 0 43 36 145 95 175 103
16 3 25 10 22 15 -9 15 6 10 37 -12 l29 -20 26 20 c24 19 24 20 6 30 -11 6
-22 8 -25 4 -4 -3 -12 -1 -20 5 -7 6 -32 12 -55 13 -33 2 -48 10 -71 36 l-29
33 29 24 c16 14 29 27 29 30 0 9 -55 0 -76 -13 -19 -13 -13 -12 34 5 34 13
-44 -54 -100 -86 -54 -30 -77 -49 -43 -36 23 9 18 0 -12 -20 -24 -15 -26 -15
-14 -1 13 17 3 24 -15 10 -5 -5 3 4 18 20 15 15 33 27 40 27 7 0 29 14 48 30
26 22 30 30 18 30 -10 0 -18 4 -18 10 0 5 -7 7 -15 4 -12 -5 -13 -2 -7 17 5
13 15 25 22 27 9 3 11 -1 6 -14 -6 -15 -5 -17 5 -6 7 6 24 12 39 13 14 0 19 3
13 6 -19 7 -16 21 12 50 29 33 24 45 -8 16 -43 -39 -57 -42 -94 -21 -38 23
-38 21 26 92 l36 39 -59 -41 c-81 -57 -104 -54 -40 6 27 26 46 44 40 40 -28
-22 -26 -4 4 27 18 19 31 37 28 40 -3 4 -32 -24 -64 -60 -32 -36 -60 -61 -62
-56 -2 7 -12 5 -25 -4 -12 -8 -25 -15 -29 -15 -9 0 8 41 43 100 50 84 41 95
-10 13 -60 -95 -76 -110 -69 -64 6 38 -4 40 -22 4 -7 -16 -15 -23 -17 -16 -5
15 35 109 53 124 8 6 14 16 14 22 0 22 -39 -27 -70 -89 -23 -43 -37 -61 -43
-55 -7 7 -15 7 -23 0 -7 -6 -18 -8 -24 -4 -20 12 -9 59 31 134 23 42 37 71 31
66 -18 -17 -82 -126 -82 -141 0 -17 -19 -29 -31 -17 -5 5 2 31 16 62 14 30 19
49 12 42 -8 -6 -22 -29 -32 -51 -20 -44 -26 -48 -46 -24 -7 9 -24 20 -36 25
l-24 9 21 41 c12 23 17 38 12 35 -5 -3 -17 -21 -26 -41 -16 -33 -36 -47 -36
-25 0 6 -4 10 -10 10 -24 0 -6 -23 41 -52 49 -30 51 -32 45 -67 -3 -21 -15
-44 -28 -54 -13 -9 -32 -24 -42 -32 -22 -16 -36 -11 -36 13 -1 16 -2 16 -14 0
-17 -23 -26 -23 -26 2 0 11 -5 20 -11 20 -7 0 -9 11 -5 30 7 39 -5 32 -41 -25
-15 -25 -31 -45 -35 -45 -4 0 -6 14 -6 30 1 21 5 29 14 26 7 -3 22 10 33 30
11 19 16 34 11 34 -6 0 -10 -4 -10 -8 0 -5 -7 -17 -16 -28 -15 -19 -16 -19
-10 1 5 17 3 16 -14 -5 -11 -14 -20 -31 -20 -38 0 -21 -37 -55 -51 -47 -7 5
-10 4 -5 -3 3 -6 2 -13 -4 -17 -13 -8 -26 25 -14 34 5 3 19 21 32 39 27 38 13
44 -17 6 -11 -14 -24 -23 -30 -20 -5 3 -23 -5 -39 -19 -37 -31 -43 -31 -72 0
-13 14 -30 25 -38 25 -12 0 -11 -5 3 -26 22 -35 12 -70 -26 -90 -17 -8 -33
-13 -37 -10 -3 3 -11 1 -19 -6 -11 -9 -18 -7 -31 7 -9 10 -12 15 -6 12 13 -8
40 20 30 30 -3 3 -6 1 -6 -6 0 -7 -4 -10 -9 -7 -4 3 -19 -3 -31 -14 -24 -21
-46 -27 -35 -10 3 6 -1 7 -9 4 -19 -7 -21 7 -3 26 10 12 9 12 -5 1 -10 -7 -18
-19 -18 -27 0 -7 -9 -19 -20 -27 -19 -13 -18 -14 19 -25 21 -7 48 -12 60 -12
31 0 26 -18 -11 -35 -25 -11 -27 -13 -8 -9 55 12 79 26 73 42 -5 11 -2 14 10
9 29 -11 66 7 123 61 27 24 49 28 60 10 5 -8 2 -9 -10 -5 -9 4 -14 3 -11 -2 3
-5 -3 -16 -12 -23 -10 -7 -25 -22 -33 -32 -14 -18 -14 -19 10 -7 l25 12 -26
-23 c-15 -13 -53 -44 -85 -70 -33 -25 -70 -56 -83 -67 -35 -31 -68 -26 -108
14 -34 34 -37 35 -59 20 -33 -21 -31 -39 3 -31 14 4 29 3 32 -2 3 -5 25 -23
48 -39 39 -28 41 -32 26 -44 -12 -10 -14 -10 -9 -1 12 20 -5 14 -29 -10 -45
-46 -118 -105 -165 -133 -14 -8 62 64 150 144 27 24 20 21 -30 -13 -64 -44
-235 -189 -275 -233 -21 -23 -45 -31 -45 -14 0 5 7 16 15 24 9 10 11 17 4 19
-11 4 36 47 151 143 105 87 155 133 150 139 -6 5 -95 -69 -155 -129 -17 -16
-40 -37 -50 -45 -19 -14 -19 -14 -2 6 26 31 20 38 -13 14 -16 -12 -35 -18 -41
-14 -7 4 -9 3 -5 -4 3 -6 -4 -18 -16 -26 -28 -20 -44 -21 -28 -1 10 12 10 15
0 15 -7 0 -10 7 -7 14 4 11 1 13 -11 9 -15 -6 -15 -5 -3 10 11 14 11 17 0 18
-17 0 15 14 56 23 l30 6 -28 -25 c-15 -14 -22 -25 -15 -25 17 1 86 60 69 60
-8 0 -11 6 -7 16 3 8 2 13 -3 10 -4 -3 -16 3 -26 14 -15 17 -15 20 -3 20 8 0
26 9 39 21 13 11 35 30 49 40 l25 20 -25 -12 c-14 -6 -31 -16 -38 -22 -8 -6
-39 -12 -69 -14 -41 -3 -63 -10 -84 -27 -28 -24 -62 -25 -75 -4 -4 6 2 8 15 3
13 -4 21 -2 21 5 0 6 -4 8 -10 5 -5 -3 -10 -1 -10 6 0 10 -3 10 -12 1 -19 -19
-38 -14 -38 9 0 17 -4 20 -24 15 -32 -8 -56 2 -49 20 3 8 10 14 15 14 6 0 7
-7 4 -16 -3 -9 -1 -14 5 -12 6 2 11 8 11 13 0 6 4 17 9 27 7 13 5 15 -11 11
-14 -4 -20 0 -20 11 0 9 -5 16 -12 16 -16 0 30 48 74 76 20 13 57 29 82 35 26
6 49 15 52 20 3 5 10 9 16 9 7 0 -1 -14 -18 -32 -28 -30 -27 -30 21 6 42 32
56 37 84 32 19 -3 46 -17 61 -31 27 -26 51 -35 31 -12 -6 8 -8 16 -5 20 3 3
-4 8 -16 12 -15 5 -19 12 -15 26 8 23 -7 25 -25 4 -11 -13 -15 -13 -30 5 -18
20 -17 60 1 60 5 0 9 7 9 15 0 16 31 87 42 96 5 3 -10 5 -31 4 -21 0 -46 -7
-55 -14 -26 -22 -18 3 9 29 14 13 23 26 20 29 -3 2 -23 -13 -45 -34 -22 -21
-42 -36 -45 -33 -3 3 14 25 38 49 24 24 49 53 56 64 9 14 14 16 17 7 4 -8 19
2 45 30 42 47 50 65 19 46 -11 -7 -20 -18 -20 -24 0 -6 -9 -19 -20 -29 -21
-19 -28 -7 -8 13 7 7 8 12 2 12 -5 0 -29 -25 -54 -56 -24 -30 -52 -60 -62 -65
-16 -9 -18 -7 -12 15 5 20 2 26 -10 26 -25 0 -19 17 17 41 17 12 44 33 58 46
14 13 35 22 47 21 11 -2 22 2 24 7 5 18 -61 18 -68 1 -3 -9 -11 -16 -18 -16
-6 0 -29 -18 -50 -40 -22 -22 -44 -39 -50 -38 -6 0 -24 -4 -39 -10 -37 -15
-37 -15 -37 7 0 13 -11 23 -35 31 -19 6 -35 15 -35 20 0 11 29 40 41 40 5 0 9
5 9 12 0 6 7 20 17 30 9 10 14 21 11 24 -3 3 -25 -18 -48 -45 -48 -57 -60 -62
-56 -27 3 26 72 110 84 102 4 -2 7 8 8 24 1 22 -3 26 -18 23 -16 -5 -23 5 -19
30 0 4 -7 7 -18 7 -10 0 -24 6 -30 14 -23 27 28 55 88 47 7 -2 10 2 6 8 -3 7
0 8 9 5 9 -3 23 1 32 11 15 15 15 18 -6 37 l-23 22 -17 -22 c-10 -11 -30 -24
-46 -28 -16 -4 -35 -11 -41 -17 -9 -6 -14 -5 -17 4 -3 8 -8 338 -11 734 -3
396 -8 752 -10 790 l-5 70 88 90 c48 50 107 107 130 128 23 21 42 46 42 56 0
28 38 62 63 57 12 -3 38 -7 57 -10z m2304 -1987 c33 -15 39 -36 18 -57 -10
-10 -18 -28 -19 -42 -1 -13 -16 -37 -34 -54 l-32 -30 37 -31 38 -31 -49 -39
c-26 -22 -74 -66 -107 -98 -44 -45 -55 -61 -45 -68 19 -12 29 -11 29 1 0 6 5
10 11 10 8 0 7 -5 -1 -15 -7 -9 -10 -18 -8 -21 3 -3 49 38 103 91 53 53 95 99
91 102 -3 3 -20 -8 -38 -25 -18 -17 -51 -46 -72 -66 -42 -39 -57 -47 -35 -18
26 32 122 132 128 132 3 0 17 -9 30 -19 l24 -18 -34 -31 c-19 -17 -28 -32 -21
-32 18 0 15 -20 -3 -20 -23 0 -66 -31 -59 -42 3 -5 -3 -12 -14 -15 -13 -3 -19
-10 -15 -20 3 -8 -3 -21 -15 -29 -12 -8 -19 -21 -16 -28 11 -30 -19 -28 -50 3
-17 17 -42 40 -56 50 l-25 19 32 46 c18 25 31 46 29 46 -9 0 -66 -62 -66 -71
0 -12 -17 -12 -25 0 -3 6 3 14 13 20 10 5 31 34 47 63 15 29 36 64 45 78 9 14
20 38 24 54 4 16 22 60 41 97 19 38 32 69 29 69 -2 0 3 11 12 25 18 28 23 29
58 14z m-2613 -293 c17 -15 49 -28 77 -32 52 -7 82 -20 82 -34 0 -5 -10 -18
-22 -30 l-22 -20 22 -15 c17 -12 19 -20 13 -38 -9 -22 1 -55 20 -67 13 -9 -60
-62 -79 -58 -25 5 -26 44 -2 79 32 44 18 46 -19 3 -24 -27 -31 -42 -27 -63 5
-22 -1 -31 -39 -59 l-45 -33 0 196 c0 107 3 195 6 195 3 0 19 -11 35 -24z
m1081 -439 c17 -31 33 -56 35 -54 7 8 -19 107 -28 107 -5 0 -9 7 -9 15 0 20
10 19 27 -2 13 -17 14 -16 10 5 -3 12 -2 20 3 17 7 -5 12 -26 25 -120 3 -22
10 -51 14 -65 5 -14 12 -43 16 -65 3 -22 8 -53 11 -70 l5 -30 -20 25 c-26 32
-27 10 -2 -45 10 -22 21 -53 25 -70 10 -42 40 -115 47 -115 4 0 12 15 19 33 6
17 18 43 25 57 15 28 9 81 -9 74 -17 -6 -39 47 -25 60 8 8 13 7 16 -1 6 -15
33 -17 33 -3 0 6 5 10 10 10 6 0 3 -12 -6 -27 -15 -26 -14 -25 13 4 34 38 113
178 143 254 12 30 27 65 33 79 5 14 10 28 9 33 -1 4 3 7 8 7 10 0 14 -38 10
-95 -1 -16 -11 -48 -22 -70 l-19 -40 28 35 c35 43 105 110 116 110 5 0 -3 -14
-17 -31 -29 -34 -32 -45 -13 -53 7 -3 5 -4 -5 -3 -22 3 -61 -43 -105 -123 -20
-36 -46 -81 -59 -101 -13 -19 -24 -42 -24 -50 0 -8 -11 -30 -23 -49 -13 -19
-32 -57 -42 -85 -11 -27 -24 -54 -31 -60 -12 -10 -31 -61 -39 -106 -3 -13 -9
-46 -15 -74 -9 -50 -13 -79 -26 -190 -3 -33 -9 -69 -12 -80 -2 -11 -4 -102 -4
-203 0 -167 14 -312 31 -337 4 -5 8 -28 10 -50 1 -22 13 -75 27 -118 13 -43
24 -82 24 -87 0 -31 63 -139 95 -164 34 -26 42 -28 90 -22 47 5 59 2 120 -30
37 -19 69 -33 72 -30 6 6 -56 66 -68 66 -3 0 -19 11 -35 25 l-29 25 68 -29
c38 -15 73 -33 80 -40 6 -6 20 -11 31 -11 11 0 27 -6 35 -14 10 -9 23 -11 36
-6 11 5 14 9 6 9 -16 1 -106 59 -140 92 -21 20 -22 23 -6 31 20 12 35 1 16
-11 -17 -11 1 -23 32 -21 37 3 83 -1 70 -7 -24 -9 -14 -25 11 -19 14 3 27 2
30 -3 3 -5 35 -9 71 -10 36 0 81 -8 101 -16 20 -8 39 -13 43 -10 4 2 30 -3 59
-11 28 -8 68 -14 89 -12 l38 4 -29 12 c-15 7 -62 14 -103 16 -40 1 -79 8 -85
14 -7 7 -18 12 -26 12 -7 0 -12 6 -9 13 4 12 78 17 87 6 7 -9 70 2 70 12 0 5
-17 9 -37 9 -21 0 -78 0 -128 0 l-90 -1 34 18 c19 9 29 19 23 21 -6 2 -29 -6
-52 -18 -50 -25 -70 -17 -39 16 29 31 18 30 -37 -2 -49 -29 -56 -19 -23 28 29
40 14 50 -17 10 -26 -32 -58 -44 -48 -18 3 8 1 23 -5 33 -10 17 -11 16 -17 -4
-3 -13 -11 -23 -18 -24 -6 0 -20 -3 -31 -6 -65 -16 -120 15 -170 96 -19 32
-35 62 -35 67 0 5 -10 33 -22 63 -20 46 -21 55 -8 59 17 5 150 140 150 153 0
5 11 32 24 61 30 66 43 122 51 218 9 106 10 89 -10 265 -3 28 -20 92 -38 144
l-32 93 22 15 c12 8 34 26 50 40 32 28 151 88 159 80 3 -3 -13 -17 -36 -32
-23 -15 -39 -29 -36 -32 3 -3 17 2 30 11 14 9 29 16 33 16 4 0 -5 -9 -22 -20
-16 -11 -38 -20 -47 -20 -11 0 -15 -5 -12 -15 5 -11 -2 -13 -32 -8 l-37 6 29
-37 c51 -65 90 -84 169 -82 68 1 70 2 79 31 6 17 11 32 13 34 1 2 20 -10 41
-27 35 -28 41 -30 58 -18 16 12 22 11 52 -16 28 -24 39 -28 66 -22 40 8 51 18
78 65 12 22 27 39 34 39 7 0 26 17 43 38 24 28 30 43 26 64 -8 34 17 84 47 95
13 4 37 8 53 9 17 1 40 5 51 9 19 6 26 -1 53 -57 47 -96 120 -360 120 -433 -1
-32 -28 51 -40 121 -6 35 -15 67 -20 70 -12 7 -11 -6 5 -84 51 -238 59 -302
53 -420 -3 -64 -15 -162 -26 -217 -11 -55 -25 -125 -32 -155 -14 -68 -40 -130
-56 -130 -6 0 -9 -9 -6 -20 3 -12 0 -20 -6 -20 -7 0 -10 -4 -7 -9 4 -5 3 -11
-2 -13 -4 -1 -21 -30 -37 -63 -58 -115 -192 -268 -250 -284 -18 -5 -42 -17
-52 -27 -88 -84 -109 -95 -273 -147 -239 -77 -488 -109 -820 -108 -102 1 -201
3 -222 5 -51 5 -539 20 -621 19 -38 -1 -71 -4 -74 -7 -4 -3 26 -6 65 -6 41 0
72 -4 72 -10 0 -6 -60 -10 -160 -10 -174 0 -177 0 -172 15 2 6 6 327 8 715 2
388 4 711 4 718 0 7 5 10 10 7 6 -3 10 -2 10 4 0 5 -6 11 -12 13 -13 5 -21
128 -9 128 3 0 5 151 3 336 -3 231 0 340 7 347 8 8 21 0 46 -27 27 -30 40 -37
58 -32 14 3 33 -1 47 -11 22 -16 24 -15 52 18 27 33 29 33 43 14 22 -27 14
-40 -27 -43 l-36 -3 2 -59 c0 -32 7 -65 14 -72 15 -15 15 -33 0 -57 -16 -27
16 -96 40 -86 9 4 31 9 47 10 92 7 153 20 177 36 37 26 76 25 87 -3 14 -36 55
-69 82 -66 29 4 43 19 26 30 -9 6 -9 8 0 8 17 0 65 49 58 60 -3 5 18 27 47 48
29 22 64 51 77 66 27 29 30 30 51 16 12 -7 11 -13 -10 -34 -13 -15 -19 -26
-13 -26 5 0 18 9 28 20 10 11 20 18 23 15 3 -2 -21 -30 -52 -62 -43 -44 -56
-63 -52 -79 4 -16 0 -23 -14 -27 -10 -3 -21 -3 -24 0 -5 5 26 53 52 81 6 7 12
19 12 25 -1 7 -16 -6 -35 -27 -19 -22 -37 -37 -40 -35 -2 3 23 36 57 74 65 72
53 76 -19 6 -23 -23 -46 -41 -52 -41 -6 0 -10 -3 -9 -7 2 -5 -11 -26 -27 -47
-20 -27 -26 -41 -17 -44 20 -6 13 -28 -14 -40 -14 -7 -22 -17 -19 -22 10 -15
21 -12 54 16 23 19 38 24 55 20 30 -7 56 2 56 20 0 8 10 14 25 14 14 0 28 7
31 15 16 40 19 -5 16 -237 -4 -276 -4 -578 0 -813 l3 -150 33 -3 c17 -2 32 -7
32 -12 0 -13 -84 -121 -122 -156 -50 -48 -197 -145 -243 -160 l-40 -14 39 5
c22 2 82 26 134 52 98 50 184 125 243 213 28 41 64 138 73 195 2 17 12 71 21
120 10 50 20 164 24 255 5 140 4 167 -9 177 -13 11 -13 12 0 13 13 0 15 25 17
155 3 168 -8 273 -38 371 -23 74 -54 113 -147 186 -101 78 -154 131 -140 139
9 6 8 12 -2 26 -8 10 4 2 25 -18 45 -41 129 -99 143 -99 23 0 172 -181 172
-209 0 -6 4 -11 10 -11 13 0 1 28 -49 119 -39 70 -40 76 -26 98 19 28 2 31
-18 3 -14 -20 -15 -20 -46 -3 -17 10 -31 20 -31 23 0 3 20 25 45 49 l44 44 13
-28 c10 -23 10 -29 0 -33 -6 -2 -12 -8 -12 -14 0 -6 6 -8 14 -5 16 6 28 -30
31 -93 1 -20 11 -51 21 -70 l19 -35 3 39 c2 21 -4 60 -12 86 -8 25 -18 83 -22
129 -4 45 -11 84 -15 87 -5 3 -9 16 -9 30 0 14 -4 23 -9 19 -5 -3 -13 5 -17
17 -4 13 -17 36 -30 51 -13 16 -24 33 -24 39 0 18 80 -85 112 -145z m742 -13
c-20 -17 -21 -17 34 2 11 4 8 -2 -8 -15 -14 -11 -32 -21 -41 -21 -9 0 -19 -3
-23 -7 -4 -5 -18 -8 -29 -8 -13 0 -26 -9 -32 -23 -5 -12 -16 -20 -23 -17 -7 3
-11 1 -8 -4 7 -11 -22 -23 -35 -15 -5 3 -8 0 -7 -7 4 -16 -44 -42 -53 -28 -3
6 -12 3 -20 -7 -12 -16 -12 -17 1 -9 8 5 -3 -12 -24 -38 -21 -26 -35 -47 -31
-47 4 0 30 20 58 45 58 51 86 61 42 15 -15 -16 -32 -27 -36 -24 -4 2 -10 0
-14 -6 -3 -5 -1 -10 6 -10 7 0 10 -13 7 -34 -2 -19 0 -32 4 -30 5 3 11 -2 14
-10 3 -9 10 -13 15 -10 22 13 6 -37 -25 -77 -44 -58 -127 -132 -136 -122 -3 4
-12 27 -20 50 -12 41 -11 47 25 138 20 52 42 95 49 96 7 0 6 3 -2 6 -15 6 15
61 61 110 47 51 188 120 246 122 24 1 24 1 5 -15z m-547 -31 c3 -7 -7 -24 -21
-38 -27 -27 -14 -34 18 -10 29 22 51 18 64 -9 9 -20 7 -32 -11 -68 -18 -36
-27 -44 -55 -46 -29 -3 -34 1 -46 30 -8 18 -17 53 -21 77 -6 39 -5 46 16 63
26 19 50 20 56 1z m1379 -248 c-5 14 -4 17 3 10 6 -6 12 -22 15 -35 2 -14 5
-25 7 -25 1 0 3 -9 4 -20 2 -11 11 -67 20 -125 12 -74 14 -105 6 -108 -6 -2
-8 -9 -4 -15 8 -14 11 -27 22 -115 4 -35 5 -65 1 -67 -4 -2 -5 -18 -2 -36 3
-22 1 -30 -7 -25 -6 4 -11 14 -11 22 0 8 -4 12 -10 9 -5 -3 -10 1 -10 9 0 9 5
16 11 16 8 0 9 15 3 48 -4 26 -8 58 -9 72 -1 14 -6 48 -11 75 -4 28 -7 70 -7
95 0 25 -4 51 -9 57 -6 7 -8 20 -4 28 3 9 2 13 -4 10 -16 -10 -11 21 5 35 14
12 14 15 -1 31 -10 11 -13 19 -9 19 5 0 -2 12 -16 27 l-24 28 24 -20 c24 -20
24 -20 17 0z m-933 -89 c-16 -18 -47 -47 -70 -66 -81 -68 -238 -213 -242 -223
-6 -18 -29 -38 -39 -35 -23 7 -95 -105 -106 -164 -4 -21 -12 -38 -17 -38 -6 0
-7 9 -3 23 4 12 8 29 9 37 1 8 5 24 10 35 37 91 37 90 15 70 -20 -18 -25 -11
-14 19 3 9 11 13 17 9 6 -3 7 -1 3 5 -4 7 -2 20 3 29 8 14 11 15 11 3 0 -12 2
-12 10 2 6 9 36 31 68 49 77 44 94 57 187 149 93 92 155 139 173 132 8 -3 3
-14 -15 -36z m-185 -331 c49 -122 66 -291 40 -391 -16 -57 -63 -101 -160 -149
-61 -31 -69 -32 -77 -17 -5 9 -9 78 -9 153 0 115 3 149 24 224 31 110 118 252
148 242 6 -2 21 -30 34 -62z"/>
<path d="M9896 7268 c-10 -6 -38 -10 -62 -10 -62 2 -127 -38 -171 -104 -35
-53 -37 -54 -59 -39 -32 20 -56 19 -87 -6 -21 -16 -31 -18 -46 -10 -36 20 -79
13 -97 -15 -9 -14 -30 -32 -45 -40 -40 -20 -39 -59 1 -82 30 -17 39 -45 20
-57 -6 -4 -17 -22 -25 -41 -11 -26 -20 -34 -39 -34 -29 0 -76 -43 -76 -68 0
-13 5 -12 20 8 10 14 22 21 27 17 4 -5 9 -138 10 -295 0 -158 4 -308 7 -334 4
-38 3 -48 -9 -48 -10 0 -15 10 -15 28 -1 27 -1 27 -18 6 -10 -11 -23 -19 -30
-16 -6 2 -15 -3 -18 -12 -7 -19 -34 -22 -34 -3 0 6 9 36 20 65 24 63 12 70
-13 7 -11 -25 -23 -45 -27 -45 -5 0 -12 -9 -15 -20 -4 -13 -15 -20 -32 -20
-23 0 -25 3 -21 33 3 17 9 41 13 52 8 17 7 18 -7 7 -9 -7 -21 -26 -28 -43 -12
-28 -11 -32 19 -63 l32 -33 -40 -45 c-39 -44 -64 -54 -88 -35 -10 7 -13 4 -13
-11 0 -22 22 -35 45 -26 22 9 19 -20 -6 -42 -19 -17 -23 -17 -47 -3 -31 17
-53 66 -35 77 15 10 35 62 24 62 -5 0 -21 -21 -36 -46 -23 -39 -29 -44 -43
-33 -33 25 -41 42 -36 73 l5 31 -16 -29 c-24 -41 -10 -64 80 -132 82 -62 83
-69 21 -101 -16 -9 -37 -22 -45 -31 -13 -13 -13 -14 7 -8 15 5 22 3 22 -6 0
-11 160 150 160 161 0 3 7 13 17 23 11 13 12 18 3 18 -7 0 6 16 28 36 22 19
43 35 47 34 3 0 15 9 27 20 12 11 23 18 26 16 4 -5 -27 -44 -86 -106 -24 -25
-48 -53 -54 -63 -8 -16 -7 -18 11 -12 27 8 27 -5 1 -33 -12 -12 -16 -22 -11
-22 5 0 13 5 16 10 4 6 16 8 28 5 16 -5 18 -4 8 3 -7 6 -10 15 -6 22 6 9 10 9
17 -1 7 -10 7 -8 3 8 -4 16 0 25 17 34 20 11 22 11 10 -3 -9 -12 -10 -18 -2
-23 6 -4 8 -16 4 -28 -6 -19 -5 -20 9 -9 9 8 21 11 27 7 5 -3 20 1 32 9 37 26
55 20 61 -19 3 -19 3 -51 0 -71 l-6 -36 87 4 c71 2 86 0 86 -12 1 -12 2 -12
10 2 6 9 29 19 52 23 58 10 123 39 156 70 15 15 40 33 56 42 17 8 38 25 48 37
18 21 18 21 8 -8 -7 -20 -7 -33 -1 -39 6 -6 12 -9 14 -6 2 2 19 26 37 53 50
74 93 112 123 107 4 0 7 8 7 19 0 23 -10 26 -28 8 -8 -8 -12 -8 -12 -1 0 6 6
16 14 23 8 6 13 19 10 28 -3 9 10 -15 30 -55 46 -96 55 -128 21 -77 -33 49
-48 48 -96 -3 -32 -34 -30 -35 16 -17 12 5 12 1 -1 -26 -9 -17 -14 -34 -11
-36 3 -3 13 10 22 30 17 35 38 46 50 26 4 -6 0 -24 -8 -40 l-15 -30 29 15 c26
14 29 14 29 0 0 -9 5 -13 10 -10 6 3 10 1 10 -4 0 -6 5 -11 10 -11 6 0 3 11
-6 25 -9 14 -12 25 -7 25 15 0 8 38 -16 93 -26 60 -27 84 -1 37 16 -30 19 -32
20 -12 0 23 20 32 20 10 1 -22 40 36 40 58 0 27 25 48 46 40 14 -5 12 -11 -12
-44 -15 -20 -31 -39 -35 -42 -3 -3 -9 -22 -13 -42 -4 -21 -12 -38 -18 -38 -7
0 -6 -5 2 -15 6 -8 9 -19 5 -25 -4 -6 -1 -18 6 -26 10 -13 10 -17 0 -24 -9 -5
-10 -9 -2 -14 8 -5 5 -17 -10 -37 -40 -56 -11 -40 36 20 46 59 65 68 65 33 0
-24 74 -52 134 -52 51 0 116 -18 116 -32 0 -4 12 -8 26 -8 l25 0 -28 -24 c-26
-23 -27 -25 -9 -32 12 -5 21 -3 24 4 2 6 14 27 28 47 l24 35 -25 -6 c-29 -7
-32 2 -7 29 16 19 16 19 -8 12 -20 -6 -16 0 20 33 25 22 42 43 38 47 -4 4 -28
-4 -55 -17 -122 -62 -122 -62 -149 -50 -17 8 -31 9 -43 2 -10 -5 -21 -7 -25
-3 -3 3 6 12 20 20 31 15 48 17 39 3 -13 -20 41 -9 66 14 32 30 72 51 124 65
40 10 95 53 95 72 0 5 -21 -4 -46 -22 l-46 -31 -21 20 -20 21 24 20 24 20 -31
-11 c-27 -10 -34 -9 -54 10 -13 12 -20 27 -17 36 10 26 -5 18 -49 -25 -32 -32
-47 -40 -61 -34 -10 5 -24 7 -30 6 -27 -4 -10 50 31 100 11 14 0 4 -25 -23
-49 -52 -60 -51 -74 4 -5 21 0 40 19 73 29 48 20 61 -12 20 -11 -14 -27 -25
-35 -25 -9 0 -20 -8 -26 -17 -5 -10 -13 -14 -17 -10 -4 4 7 27 24 52 44 62 25
57 -23 -6 l-39 -51 -18 22 c-11 13 -16 30 -14 37 4 11 0 13 -14 8 -11 -4 -20
-4 -20 -2 0 10 31 73 46 94 15 20 14 21 -6 16 -12 -3 -40 -28 -63 -54 -42 -49
-64 -63 -53 -33 5 14 4 15 -9 4 -8 -7 -13 -16 -10 -20 3 -5 -4 -6 -15 -3 l-21
5 21 35 c11 19 16 31 10 28 -21 -13 -9 7 25 41 35 35 44 54 25 54 -15 0 -80
-94 -69 -101 5 -3 1 -13 -10 -23 -19 -18 -20 -17 -19 71 2 97 -14 180 -44 232
-10 18 -17 35 -15 38 9 8 46 -64 58 -112 17 -68 26 -75 28 -23 1 53 -50 164
-79 173 -11 4 -20 10 -20 15 0 5 -8 11 -17 14 -10 4 -45 31 -77 60 -60 55
-127 84 -229 101 -36 6 -38 8 -33 33 l6 27 -26 -30 c-16 -19 -28 -25 -31 -18
-3 10 -9 10 -23 1 -29 -18 -37 -1 -11 23 13 12 20 27 16 36 -3 9 6 35 20 59
26 45 19 62 -9 22 -15 -21 -16 -21 -36 -3 -29 26 -25 51 10 65 17 7 35 21 41
31 13 25 44 24 85 -2 33 -20 34 -20 34 -1 0 33 67 45 90 17 12 -14 17 -12 47
17 18 17 33 37 33 44 0 18 58 64 74 58 7 -3 16 2 19 10 4 10 27 17 67 22 33 4
63 11 66 15 9 16 60 9 77 -9 25 -27 22 -45 -5 -36 -21 6 -21 4 6 -24 20 -22
29 -41 28 -62 0 -24 5 -33 22 -40 16 -6 26 -20 30 -44 l7 -36 55 0 c33 0 69 7
92 19 70 35 87 34 126 -3 36 -33 41 -66 10 -66 -21 0 -17 -12 16 -58 35 -49
36 -56 12 -74 -24 -17 -41 -45 -21 -33 8 4 22 15 32 23 9 8 17 11 17 6 0 -4
-12 -18 -26 -29 l-27 -21 27 -27 c29 -29 31 -42 16 -83 -13 -32 -6 -42 15 -24
8 7 13 21 10 30 -3 9 1 23 10 30 12 10 23 9 56 -4 39 -16 45 -16 95 0 51 16
56 16 100 -3 62 -25 77 -47 46 -68 -28 -20 -28 -42 1 -66 24 -20 22 -24 -29
-55 -18 -10 -18 -12 -1 -37 22 -34 41 -35 35 -2 -3 14 -2 25 2 25 4 0 15 16
26 35 18 35 18 35 -3 50 -20 14 -21 18 -8 49 12 29 12 36 -2 56 -28 39 -131
67 -148 40 -11 -18 -59 -10 -84 14 -25 23 -41 30 -69 27 -20 -2 -4 -21 17 -21
10 0 25 -7 32 -16 12 -15 11 -16 -11 -8 -14 4 -35 8 -48 7 -16 -1 -22 3 -18
13 3 7 1 16 -4 19 -6 4 -4 18 5 35 21 40 19 51 -15 90 -32 39 -36 56 -18 96
11 24 9 29 -24 60 -51 46 -78 51 -133 24 -32 -15 -49 -19 -58 -12 -8 7 -18 6
-31 -4 -30 -21 -44 -17 -62 19 -9 17 -24 41 -34 52 -9 11 -23 47 -30 80 -8 32
-22 67 -32 77 -20 20 -73 23 -102 6z m-302 -528 c73 -36 154 -116 185 -184 43
-92 58 -291 24 -324 -14 -14 -14 -17 1 -27 25 -19 21 -95 -7 -136 -20 -30 -31
-36 -87 -46 -36 -7 -84 -12 -108 -13 -41 0 -88 -16 -124 -42 -9 -7 -19 -10
-22 -7 -5 5 -10 132 -21 613 l-5 199 62 -7 c34 -3 80 -15 102 -26z"/>
<path d="M9266 6909 c-25 -20 -28 -20 -70 -4 -34 13 -48 14 -65 6 -12 -7 -21
-16 -21 -22 0 -5 -16 -19 -35 -30 -19 -12 -35 -28 -35 -36 0 -11 -8 -8 -30 10
l-29 25 -83 -23 -83 -22 0 -59 c0 -63 19 -92 52 -80 14 6 13 10 -6 30 -16 17
-21 33 -19 56 3 29 8 34 48 46 63 19 97 17 131 -7 27 -19 31 -19 51 -5 12 9
30 16 40 16 16 0 16 3 6 20 -30 48 41 79 93 41 l28 -21 11 21 c7 11 25 25 41
31 16 5 29 14 29 19 0 16 -26 10 -54 -12z"/>
<path d="M8728 6607 c-7 -7 -30 -25 -50 -41 -45 -34 -47 -49 -11 -80 21 -18
36 -23 59 -19 17 3 41 0 53 -7 l22 -11 -20 -31 c-13 -21 -44 -44 -93 -67 l-73
-36 0 -45 c0 -37 -5 -49 -30 -72 -16 -15 -49 -34 -72 -43 -27 -11 -43 -23 -43
-33 0 -36 12 -57 37 -69 31 -15 41 -10 23 12 -7 9 -10 18 -7 22 4 3 2 12 -4
19 -16 19 -2 34 31 34 18 0 39 10 55 26 22 22 31 25 65 19 42 -7 57 8 20 20
-27 9 -59 57 -42 63 6 2 12 9 12 16 0 6 14 24 31 39 35 31 62 29 92 -6 15 -17
22 -19 37 -9 14 8 21 8 29 -2 8 -9 3 -20 -17 -42 -93 -102 -112 -129 -112
-153 0 -25 1 -24 18 9 17 36 103 131 227 254 86 85 71 84 -25 -2 -53 -48 -69
-58 -67 -42 4 26 123 160 143 160 8 0 14 5 14 10 0 6 -8 10 -17 10 -21 0 -153
-134 -153 -155 0 -8 -4 -15 -10 -15 -6 0 -6 10 0 28 10 27 10 27 -6 5 -18 -26
-34 -29 -52 -11 -9 9 -4 20 25 50 20 21 43 38 51 38 12 0 12 -3 2 -15 -7 -8
-8 -15 -3 -15 16 0 100 94 108 121 4 13 16 34 27 45 19 21 19 21 -6 17 -19 -4
-26 -12 -26 -27 0 -12 -16 -37 -35 -56 -19 -19 -35 -40 -35 -47 0 -7 -4 -13
-10 -13 -5 0 -10 5 -10 11 0 7 -13 9 -37 5 -34 -5 -35 -4 -13 5 14 6 20 13 13
16 -7 2 -20 0 -31 -6 -15 -8 -24 -6 -39 9 -15 13 -24 15 -32 7 -16 -16 -26 0
-11 18 7 8 8 15 2 15 -5 0 -12 -7 -16 -15 -3 -8 -12 -15 -21 -15 -28 0 -15 30
25 56 22 15 40 30 40 35 0 15 -19 19 -32 6z"/>
<path d="M9551 3675 c-1 -38 -8 -95 -17 -125 -8 -30 -17 -66 -20 -80 -3 -13
-11 -31 -17 -39 -9 -12 -9 -13 1 -7 6 4 12 2 12 -3 0 -6 -5 -11 -11 -11 -5 0
-8 -3 -5 -8 2 -4 -3 -16 -11 -27 -10 -13 -17 -16 -20 -8 -4 10 -83 -66 -83
-81 0 -17 31 -2 50 24 27 38 43 39 30 3 -6 -16 -33 -49 -61 -74 -70 -64 -42
-74 36 -13 32 24 66 44 76 44 10 0 21 5 24 10 3 6 15 10 25 10 11 0 25 6 31
13 13 14 23 10 163 -66 50 -27 96 -35 96 -17 0 6 -9 10 -21 10 -25 0 -53 14
-100 51 -20 16 -44 29 -53 29 -9 0 -19 8 -22 18 -3 9 -10 28 -16 42 l-10 25
-9 -22 c-5 -13 -11 -23 -14 -23 -3 0 -10 10 -15 23 -7 17 -9 18 -9 5 -1 -10
-6 -18 -12 -18 -7 0 -9 14 -5 38 10 63 9 265 -2 307 -9 39 -10 37 -11 -30z"/>
<path d="M9457 3512 c-8 -21 -44 -67 -79 -104 -50 -52 -85 -76 -173 -121 -61
-31 -143 -67 -183 -80 -73 -25 -97 -37 -72 -37 20 0 79 20 135 45 106 48 196
77 226 73 26 -4 33 0 42 21 6 14 29 53 52 86 38 56 79 144 71 152 -2 2 -10
-13 -19 -35z"/>
<path d="M12463 7930 c-94 -3 -174 -8 -177 -11 -11 -11 292 -31 400 -26 108 5
161 18 149 38 -6 9 -67 9 -372 -1z"/>
<path d="M12143 7916 c3 -7 2 -17 -3 -22 -19 -20 -84 -393 -73 -421 14 -35 51
89 67 222 3 22 9 62 14 88 5 27 9 64 7 83 -1 19 2 37 7 40 14 9 9 24 -8 24
-10 0 -14 -6 -11 -14z"/>
<path d="M12647 7224 c-56 -13 -247 -98 -247 -110 0 -3 10 -2 23 2 12 3 -3
-10 -33 -31 -30 -21 -65 -47 -78 -59 -22 -20 -23 -20 -16 -1 4 11 16 28 27 38
11 9 16 17 11 17 -30 0 -173 -185 -227 -294 -103 -208 -132 -471 -75 -676 12
-41 22 -84 23 -95 1 -18 55 -130 120 -250 15 -27 49 -90 75 -140 67 -128 129
-243 155 -290 12 -22 42 -76 65 -120 23 -44 61 -113 82 -153 l40 -73 -17 -102
c-9 -56 -23 -109 -31 -118 -10 -12 -11 -18 -2 -27 9 -9 9 -23 1 -59 -20 -84
-24 -121 -13 -128 5 -3 10 -18 11 -33 0 -26 1 -26 11 -5 10 20 18 22 102 22
50 0 113 3 140 7 38 5 47 4 41 -5 -8 -14 13 -61 27 -61 5 0 6 9 3 20 -6 18 -4
19 19 9 14 -7 23 -16 20 -20 -3 -5 7 -9 23 -9 15 0 39 -3 52 -7 17 -4 22 -3
17 6 -4 6 -12 9 -17 6 -5 -4 -9 -2 -9 3 0 16 98 13 114 -4 21 -20 29 -17 16 5
-13 26 0 33 39 21 22 -6 29 -5 25 2 -4 6 -1 8 7 6 8 -3 13 -9 12 -14 -2 -10
155 -10 164 0 4 3 -5 6 -18 7 -89 3 -120 8 -134 23 -9 9 -21 16 -26 16 -5 0
-9 5 -9 10 0 13 57 13 65 0 3 -5 0 -10 -7 -10 -8 0 -5 -5 6 -11 10 -6 47 -11
82 -11 41 0 64 -4 64 -12 0 -8 29 -10 95 -8 96 3 134 21 48 23 -27 0 -70 2
-98 5 -27 2 -72 4 -100 5 -36 1 -45 3 -32 10 9 5 38 9 64 9 26 -1 85 2 130 6
69 5 80 9 68 20 -17 17 -47 18 -64 2 -11 -11 -12 -10 -6 0 6 12 -8 13 -81 6
-166 -15 -165 -15 -189 144 -10 64 -24 146 -31 182 l-14 65 142 280 c77 154
153 309 168 345 16 36 62 140 103 232 92 202 122 293 147 447 31 189 -37 431
-176 627 -53 75 -166 182 -214 201 -72 30 -118 52 -131 66 -8 7 -52 23 -99 35
-71 18 -112 22 -240 21 -96 0 -177 -6 -213 -15z m468 -63 c135 -38 271 -108
262 -134 -1 -5 -22 -16 -46 -23 -38 -11 -46 -10 -83 9 -23 12 -67 46 -100 75
-32 28 -62 52 -66 52 -11 -1 98 -97 147 -130 28 -19 39 -31 30 -34 -8 -3 -45
-14 -84 -25 -261 -75 -428 -127 -498 -157 l-82 -35 -20 27 c-43 59 -179 214
-187 214 -14 0 -9 -8 45 -69 80 -89 141 -171 133 -178 -3 -4 -17 2 -30 13 -29
23 -167 128 -214 162 -18 13 -30 27 -27 32 3 5 42 34 87 66 234 164 476 209
733 135z m347 -212 c21 -22 36 -45 33 -49 -3 -5 9 -26 27 -47 19 -21 40 -47
48 -58 14 -19 14 -19 -2 -6 -10 7 -18 10 -18 5 1 -14 26 -44 32 -39 3 3 10 -1
17 -8 9 -11 8 -17 -4 -27 -17 -14 -5 -46 26 -67 28 -20 43 -108 42 -243 -1
-164 -8 -249 -23 -264 -8 -8 -18 -2 -40 24 -37 44 -141 253 -173 345 -21 59
-75 200 -120 309 -7 17 -22 49 -33 73 l-22 44 22 11 c25 14 103 36 130 37 11
1 37 -17 58 -40z m-242 -23 c0 -8 -7 -88 -15 -178 -8 -90 -16 -185 -17 -213
l-3 -50 -36 55 c-55 85 -129 146 -206 170 -78 24 -97 25 -176 4 -114 -29 -198
-89 -232 -164 -10 -22 -22 -40 -27 -40 -12 0 -12 0 28 92 43 102 60 120 138
153 68 28 514 182 534 184 6 1 12 -5 12 -13z m-885 -23 c17 -16 75 -59 128
-97 54 -39 97 -71 97 -73 0 -2 -17 -32 -38 -67 -32 -54 -88 -205 -134 -365
-12 -40 -27 -56 -147 -153 -74 -59 -138 -108 -143 -108 -4 0 -9 12 -10 28 -2
40 -3 46 -10 58 -17 26 -22 78 -23 204 0 74 3 137 7 140 4 3 19 46 33 95 33
116 56 170 117 278 56 98 70 105 123 60z m922 -40 c6 -16 32 -77 58 -138 25
-60 64 -159 87 -220 22 -60 62 -152 90 -203 27 -52 48 -96 46 -98 -3 -2 -47
26 -99 62 -52 36 -126 83 -166 105 -39 22 -73 45 -75 51 -2 6 1 41 8 77 7 36
15 139 19 229 4 89 10 162 14 162 4 0 12 -12 18 -27z m-303 -215 c27 -8 61
-32 97 -68 125 -124 131 -297 14 -427 -90 -101 -208 -134 -300 -86 -56 29
-128 109 -150 166 -26 69 -18 186 20 262 32 65 91 130 138 150 40 18 127 19
181 3z m-467 -267 c-5 -44 -1 -81 13 -138 31 -119 91 -196 188 -241 48 -22 64
-24 145 -20 73 3 102 10 142 30 28 14 55 23 61 21 16 -5 113 113 137 167 10
25 22 75 24 113 4 40 10 67 17 67 6 0 59 -31 116 -68 58 -38 138 -90 178 -115
39 -26 72 -52 72 -60 0 -7 -98 -62 -217 -122 -120 -59 -288 -150 -374 -202
-86 -51 -161 -93 -167 -93 -6 0 -32 33 -58 73 -25 39 -74 102 -108 138 -89 97
-93 102 -77 107 9 3 3 14 -17 36 -44 46 -112 139 -112 153 0 8 7 10 18 6 15
-6 15 -4 -2 15 -11 12 -14 22 -8 22 7 0 12 5 12 10 0 6 -7 10 -16 8 -10 -2
-19 3 -22 11 -3 10 1 13 15 9 18 -5 20 0 22 41 1 38 5 73 10 89 1 1 4 2 7 2 4
0 4 -27 1 -59z m-40 -219 c50 -76 144 -201 218 -289 33 -39 71 -87 85 -104 22
-30 23 -32 5 -25 -11 4 -33 13 -50 18 -16 6 -106 45 -200 88 -93 42 -199 89
-235 104 -36 15 -83 35 -104 45 l-40 18 60 43 c126 93 166 124 187 146 12 12
25 20 29 18 4 -3 24 -31 45 -62z m1158 -109 c-8 -16 -25 -53 -39 -83 -65 -150
-87 -194 -275 -565 -17 -33 -65 -132 -107 -220 -41 -88 -85 -173 -97 -190 -13
-16 -29 -43 -37 -60 -8 -16 -29 -50 -46 -75 -17 -25 -37 -65 -45 -90 -7 -25
-21 -52 -29 -60 -8 -8 -14 -24 -13 -35 2 -11 -5 -30 -15 -42 -16 -22 -17 -13
-17 227 0 186 3 252 13 261 6 7 12 18 12 24 0 5 -4 4 -9 -4 -13 -21 -31 -3
-31 31 0 31 41 129 65 158 21 24 55 90 47 90 -4 0 -18 -17 -32 -38 -14 -20
-31 -43 -39 -51 -7 -8 -18 -28 -23 -44 -16 -45 -29 -14 -27 68 0 39 0 72 -1
75 -1 3 -3 55 -5 117 -1 61 -5 115 -8 120 -6 9 271 182 318 199 11 5 47 23 79
41 32 19 61 31 64 28 3 -3 12 1 21 9 9 8 38 21 65 30 27 9 60 26 75 37 28 22
91 53 104 51 4 -1 7 3 7 8 0 6 9 10 20 10 18 0 18 -2 5 -27z m-1426 -83 c46
-23 346 -155 476 -210 169 -70 160 -63 161 -128 0 -31 8 -199 17 -372 10 -173
18 -371 19 -440 2 -119 2 -125 -17 -125 -15 0 -20 7 -20 26 -1 14 -11 39 -23
56 -12 17 -22 34 -22 38 0 3 -17 32 -38 63 -21 31 -42 64 -45 72 -4 8 -11 22
-17 30 -5 8 -47 80 -91 160 -84 149 -174 308 -225 394 -27 45 -234 447 -234
453 0 8 25 1 59 -17z"/>
<path d="M13810 5880 c0 -34 21 -163 32 -200 12 -36 14 -46 23 -118 3 -24 11
-56 17 -70 6 -15 12 -40 14 -56 2 -16 8 -34 13 -40 8 -10 22 -73 26 -116 1 -8
4 -22 8 -30 13 -33 36 -127 41 -165 2 -22 5 -40 6 -40 3 0 10 -39 12 -65 1
-14 5 -29 8 -35 13 -19 20 -65 10 -65 -5 0 -12 11 -16 25 -13 52 -15 15 -2
-39 8 -38 18 -56 28 -56 11 0 12 -2 2 -8 -18 -12 31 -254 59 -288 6 -8 8 -25
5 -40 -4 -15 -3 -23 2 -20 6 3 12 -7 15 -22 3 -15 8 -40 12 -57 4 -16 8 -34 9
-40 1 -5 14 -62 29 -125 14 -63 36 -160 48 -215 11 -55 32 -145 45 -200 13
-55 39 -170 58 -255 102 -456 142 -618 171 -692 7 -17 -14 -18 -336 -18 -189
0 -373 -1 -409 -2 -36 0 -104 0 -152 1 l-87 1 -6 48 c-4 26 -13 74 -20 107
-22 98 -45 228 -47 265 -1 19 -4 40 -7 45 -3 6 -6 19 -6 30 -2 45 -18 148 -46
286 -16 81 -29 162 -29 182 0 39 -14 55 -33 38 -16 -13 -409 8 -419 22 -4 6
-13 4 -23 -6 -9 -10 -24 -16 -33 -16 -15 1 -15 2 1 6 38 10 13 18 -56 18 -110
-1 -147 -4 -147 -13 0 -4 18 -6 41 -4 22 3 46 -1 52 -7 8 -8 -4 -11 -46 -11
-35 0 -57 4 -57 11 0 7 -10 9 -27 5 -72 -18 -148 -24 -155 -13 -5 8 -8 6 -8
-5 0 -10 -5 -18 -11 -18 -5 0 -7 -5 -3 -11 3 -6 2 -14 -3 -18 -5 -3 -22 -51
-37 -105 -16 -55 -39 -127 -51 -161 -13 -34 -42 -138 -64 -231 -23 -93 -44
-177 -47 -186 -3 -10 -1 -18 4 -18 5 0 18 36 28 80 10 44 21 85 25 92 16 25
18 0 5 -53 -8 -30 -20 -76 -26 -104 -7 -27 -14 -68 -16 -90 -2 -22 -9 -70 -15
-107 l-12 -68 -64 0 c-97 0 -257 20 -265 33 -6 9 -8 8 -8 -2 0 -9 -4 -10 -12
-4 -8 5 -141 8 -310 7 -164 -1 -298 0 -298 2 0 4 50 214 95 399 13 55 27 118
31 140 4 22 10 47 15 56 4 9 10 31 12 50 2 19 7 41 11 50 4 9 6 20 5 25 -1 5
1 16 4 24 14 33 29 108 32 155 1 28 9 79 18 115 8 36 18 85 22 110 3 25 10 61
15 80 5 19 16 67 25 105 9 39 19 77 22 85 3 8 7 33 8 55 3 69 5 73 22 71 17
-1 27 25 38 101 3 18 12 58 20 90 11 42 12 59 3 64 -8 5 -7 12 5 24 17 16 20
32 19 88 0 15 3 27 7 27 5 0 7 14 5 30 -3 22 1 30 12 30 14 0 14 3 3 16 -10
13 -10 17 2 25 8 5 10 9 4 9 -5 0 -4 4 3 8 7 5 15 26 17 48 3 21 9 48 14 59 5
11 14 58 21 105 7 47 16 90 20 95 4 6 7 17 8 25 0 8 10 58 22 110 12 52 24
104 26 115 2 11 13 61 24 110 11 50 22 115 25 145 3 30 12 70 21 88 8 18 12
37 9 42 -3 5 -1 19 5 30 6 11 7 20 2 20 -18 0 -71 -189 -132 -475 -12 -55 -28
-131 -36 -170 -26 -117 -106 -440 -112 -445 -2 -3 -7 1 -9 8 -9 23 -23 12 -23
-19 0 -24 4 -30 15 -25 8 3 15 1 15 -4 0 -6 -9 -10 -19 -10 -11 0 -23 -5 -27
-12 -5 -8 0 -9 14 -6 12 4 22 3 22 -2 0 -4 -8 -10 -18 -12 -10 -3 -19 -12 -19
-19 0 -8 -3 -27 -7 -42 -5 -22 -3 -27 11 -27 15 0 15 -2 4 -9 -8 -5 -16 -29
-18 -53 -3 -23 -18 -99 -34 -168 -17 -69 -37 -152 -44 -185 -8 -33 -25 -112
-40 -175 -14 -63 -34 -152 -44 -198 -10 -46 -24 -89 -30 -95 -10 -9 -10 -6 -3
13 5 14 12 48 16 75 4 28 14 75 23 105 15 55 19 69 28 113 2 12 9 42 14 67 21
92 43 227 45 275 2 28 4 58 5 67 0 9 7 18 15 20 10 2 8 8 -9 20 -22 17 -23 17
-22 -5 2 -55 -14 -172 -39 -282 -14 -66 -30 -138 -35 -160 -13 -63 -58 -193
-55 -160 2 17 5 37 9 45 7 18 28 114 33 154 2 17 8 33 14 36 5 3 10 21 11 40
2 19 5 40 8 45 3 6 6 17 6 25 1 8 6 44 12 80 7 36 14 109 17 163 4 81 2 99
-11 104 -8 3 -10 9 -5 12 5 3 12 24 15 46 13 89 19 121 28 137 5 9 8 21 7 25
-4 18 15 62 24 57 6 -4 9 -1 6 7 -3 8 1 19 8 24 8 6 16 26 18 45 3 19 8 44 12
54 5 14 4 17 -4 12 -22 -13 -10 76 38 279 12 50 32 155 46 235 13 80 28 161
33 180 15 60 21 129 11 135 -13 8 -25 -19 -43 -100 -87 -385 -89 -399 -78
-416 7 -12 7 -20 1 -24 -6 -3 -10 -1 -10 6 0 7 -2 10 -5 8 -2 -3 -11 -60 -19
-128 -9 -67 -20 -139 -26 -159 -12 -47 -88 -348 -107 -427 -8 -33 -30 -130
-48 -215 -19 -85 -47 -207 -64 -270 -16 -63 -37 -155 -46 -205 -9 -49 -30
-139 -46 -200 -17 -60 -39 -153 -49 -205 -11 -52 -27 -129 -37 -170 -10 -41
-18 -120 -19 -175 -1 -99 -14 -162 -34 -175 -7 -5 -6 -11 4 -20 13 -10 16 -10
20 1 2 8 9 34 16 59 l13 45 12 -55 c6 -30 17 -65 23 -77 7 -12 12 -31 12 -42
0 -33 40 -101 69 -115 19 -10 40 -11 76 -5 28 4 94 8 148 8 64 1 96 5 92 11
-4 7 28 10 94 9 56 0 101 -5 101 -10 0 -5 94 -6 225 -3 209 6 225 5 232 -11 6
-16 7 -16 15 4 7 19 13 21 42 16 20 -4 36 -2 40 4 5 7 -4 11 -24 11 -30 0 -31
1 -24 38 4 20 11 45 15 54 5 9 9 25 9 36 0 17 7 19 98 16 53 -2 123 -8 154
-15 67 -14 310 -7 348 9 19 9 -4 10 -101 7 -69 -2 -132 1 -140 6 -9 6 6 9 44
9 31 0 57 4 57 9 0 6 -37 8 -92 4 -51 -3 -150 -6 -220 -7 l-128 -1 0 31 c0 46
20 67 50 55 l25 -10 -27 0 c-53 -2 -28 -18 45 -31 68 -11 277 -9 422 4 28 3
91 8 140 11 267 20 291 23 120 18 -346 -10 -641 -12 -655 -3 -13 8 373 18 448
11 12 -1 30 3 40 8 12 7 -61 10 -235 11 -162 0 -253 4 -253 10 0 6 45 10 113
11 61 0 103 4 93 8 -31 12 3 20 50 12 21 -3 118 -4 214 -1 l175 5 -105 7
c-167 12 -551 18 -546 9 9 -14 -49 -62 -67 -55 -20 7 -23 44 -4 44 8 0 8 3 -2
9 -13 8 -12 20 3 88 10 43 19 92 21 108 2 17 8 41 13 55 5 14 13 66 17 115 4
50 11 95 15 100 5 6 16 49 25 97 l18 88 51 -4 c28 -2 180 -4 337 -5 l287 -1 6
-45 c4 -25 13 -51 20 -58 11 -10 11 -15 -1 -25 -9 -9 -10 -18 -3 -32 5 -10 10
-29 10 -42 0 -16 3 -19 9 -10 7 11 10 10 15 -3 9 -25 7 -47 -4 -40 -5 3 -10 2
-10 -4 0 -5 6 -12 13 -14 9 -4 9 -7 -1 -15 -8 -5 -10 -16 -6 -27 7 -18 8 -18
15 1 4 10 5 -1 2 -27 -3 -26 1 -70 10 -105 8 -32 19 -81 23 -109 4 -27 9 -54
9 -60 1 -5 3 -17 3 -26 1 -8 22 -42 47 -74 35 -45 43 -61 34 -71 -7 -9 -8 -14
-1 -14 6 0 33 -23 61 -52 l51 -52 -6 34 c-10 50 -28 82 -76 135 -45 49 -92
125 -78 125 4 0 10 -7 14 -15 3 -8 12 -15 19 -15 11 0 13 12 11 45 -2 25 1 45
6 45 6 0 11 -10 12 -22 0 -13 2 -27 3 -33 1 -5 5 -31 9 -57 8 -47 36 -100 35
-68 0 8 -6 37 -13 64 -13 49 -11 96 4 96 8 0 19 -52 25 -110 1 -14 5 -32 8
-40 15 -41 27 -90 32 -135 3 -27 8 -60 11 -72 4 -19 0 -23 -23 -24 -26 -1 -26
-2 7 -10 19 -6 266 -11 548 -13 282 -2 516 -6 519 -10 4 -3 19 -43 34 -89 24
-68 27 -74 23 -37 -3 25 -10 49 -15 54 -5 6 -9 31 -9 58 0 26 -4 57 -9 70 -5
13 -24 84 -41 158 -18 74 -42 171 -56 215 -13 44 -33 133 -44 198 -11 65 -31
162 -45 215 -22 85 -51 216 -75 335 -4 22 -6 47 -3 56 2 10 -4 33 -15 52 -28
49 -37 90 -17 83 20 -8 19 6 -1 20 -24 18 -61 185 -43 197 7 4 9 17 5 33 -4
15 -10 24 -15 22 -5 -3 -11 3 -14 15 -4 16 -3 18 8 9 11 -9 12 -7 8 9 -3 12
-8 19 -12 17 -3 -2 -7 17 -8 42 0 26 -8 68 -17 93 -9 25 -17 55 -19 67 -2 12
-6 24 -10 28 -3 4 -2 16 4 27 6 11 7 17 1 13 -5 -3 -9 6 -9 21 0 15 -5 29 -11
31 -6 2 -8 14 -6 28 3 14 0 24 -7 24 -6 0 -9 7 -6 15 4 8 2 17 -3 20 -5 3 -9
13 -8 23 0 9 -3 26 -6 37 -14 50 -27 109 -31 145 -3 22 -12 68 -21 103 -8 34
-21 89 -29 122 -7 33 -27 107 -44 166 -17 58 -40 145 -51 195 -32 136 -60 224
-70 224 -6 0 -10 -9 -10 -20z"/>
<path d="M6320 3108 c-27 -10 -154 -171 -139 -176 5 -2 9 -8 9 -14 0 -6 -7 -7
-16 -4 -8 3 -12 2 -9 -4 3 -6 -1 -10 -9 -10 -8 0 -13 -6 -11 -13 4 -8 22 -11
53 -10 43 2 44 2 14 -6 -43 -11 -65 -31 -35 -31 42 0 83 13 83 26 0 19 16 18
24 -2 5 -13 16 -15 69 -9 34 4 66 11 71 15 8 8 -4 10 -86 10 -38 0 -46 4 -41
15 4 12 0 13 -17 7 -24 -9 -80 -4 -80 7 0 10 103 6 119 -4 10 -5 12 -4 7 3 -5
8 1 12 14 12 12 0 18 -4 15 -10 -3 -5 -1 -10 4 -10 6 0 11 5 11 10 0 6 10 10
23 9 21 0 21 -1 2 -9 -18 -8 -17 -9 7 -9 20 -1 26 3 22 14 -5 11 1 15 21 15
21 0 25 -3 17 -12 -8 -10 10 -13 84 -14 52 0 94 3 94 8 0 4 -36 8 -80 8 -44 0
-80 4 -80 9 0 5 -56 8 -130 7 -72 -2 -133 1 -136 5 -3 5 5 11 18 13 30 6 292
18 394 17 54 0 74 3 64 9 -8 5 -69 10 -135 11 -91 1 -110 3 -80 10 22 4 77 8
123 8 53 1 81 5 77 11 -3 6 -40 10 -81 10 -43 0 -74 4 -74 10 0 10 42 15 88
11 12 -1 22 3 22 9 0 11 -17 12 -172 12 -123 0 -146 11 -34 16 41 2 96 7 123
12 l48 8 -70 2 c-38 2 -95 4 -125 5 -30 2 -66 -1 -80 -7z"/>
<path d="M15928 2882 c-31 -13 -4 -31 62 -41 87 -14 553 -15 545 -1 -4 6 -15
8 -26 5 -12 -4 -19 -2 -19 6 0 7 -3 9 -6 6 -4 -3 -15 -2 -25 3 -12 7 -26 6
-44 -2 -21 -9 -28 -9 -34 1 -6 9 -11 10 -15 2 -10 -16 -45 -14 -63 4 -8 9 -18
13 -21 10 -4 -3 0 -10 8 -15 10 -6 -11 -7 -55 -4 -38 3 -84 6 -101 7 -21 1
-30 6 -27 15 4 9 -15 12 -78 11 -46 0 -92 -3 -101 -7z"/>
<path d="M12520 2869 c-14 -4 -64 -7 -112 -8 -48 -1 -90 -5 -93 -11 -5 -9 23
-15 48 -11 4 0 7 -4 7 -10 0 -13 309 -11 467 4 94 8 110 12 105 25 -4 11 -7
12 -10 4 -3 -10 -7 -10 -17 -2 -10 8 -19 8 -36 0 -14 -8 -58 -10 -138 -6 -64
3 -129 6 -145 6 -15 0 -33 3 -40 8 -6 5 -22 5 -36 1z"/>
</g>
</svg>
