<?xml version="1.0" standalone="no"?>
<!DOCTYPE svg PUBLIC "-//W3C//DTD SVG 20010904//EN"
 "http://www.w3.org/TR/2001/REC-SVG-20010904/DTD/svg10.dtd">
<svg version="1.0" xmlns="http://www.w3.org/2000/svg"
 width="1928.000000pt" height="1074.000000pt" viewBox="0 0 1928.000000 1074.000000"
 preserveAspectRatio="xMidYMid meet">
<metadata>
Created by potrace 1.16, written by Peter Selinger 2001-2019
</metadata>
<g transform="translate(0.000000,1074.000000) scale(0.100000,-0.100000)"
fill="#000000" stroke="none">
<path d="M14560 8016 c0 -4 10 -21 21 -38 26 -37 25 9 15 -683 -5 -313 -8
-1056 -8 -1650 0 -802 -3 -1082 -12 -1087 -8 -6 -8 -10 0 -15 8 -6 12 -148 13
-483 0 -261 2 -573 3 -692 2 -169 0 -218 -9 -218 -20 0 -16 -9 18 -43 l31 -31
-23 -9 -24 -9 25 -9 c20 -8 22 -12 10 -19 -9 -6 -10 -10 -3 -10 6 0 36 -23 67
-51 38 -35 53 -55 49 -66 -5 -12 -2 -15 10 -10 40 15 107 -111 107 -203 0 -33
4 -60 9 -60 6 0 10 17 9 38 0 46 20 124 31 118 4 -3 75 -6 157 -7 82 -1 143
-4 137 -6 -7 -3 -13 -9 -13 -14 0 -6 4 -8 8 -5 4 2 87 8 182 11 96 4 179 9
184 12 4 3 55 8 112 10 l104 5 0 -76 c0 -48 4 -76 11 -76 7 0 10 25 7 73 l-3
72 115 5 c77 3 108 8 92 13 -12 5 -37 8 -55 7 -55 -3 -67 -1 -84 20 -21 24
-33 26 -33 5 0 -9 -9 -15 -22 -15 -17 0 -19 3 -10 12 7 7 12 42 12 85 0 64 2
73 18 73 11 0 90 -7 177 -15 87 -8 160 -13 163 -11 6 6 -29 13 -102 21 -32 3
-64 9 -70 13 -6 4 -49 7 -96 7 -81 0 -85 1 -88 23 -3 22 -2 23 50 16 29 -4 74
-8 100 -8 33 -1 44 -4 37 -12 -11 -13 99 -23 271 -24 107 0 169 -4 230 -16 23
-4 23 -3 8 9 -10 8 -15 17 -11 20 6 6 -13 10 -20 5 -2 -2 -14 4 -27 13 -36 23
-79 28 -345 35 -132 4 -251 10 -265 14 l-25 6 -2 425 c-1 233 -5 601 -8 816
-3 216 -3 393 -1 393 3 0 17 -37 31 -82 15 -46 49 -132 76 -193 27 -60 49
-116 49 -123 0 -7 11 -38 25 -69 14 -30 53 -130 86 -222 107 -296 151 -415
166 -444 7 -15 15 -44 18 -65 2 -20 17 -66 33 -102 40 -88 104 -261 99 -267
-3 -2 -24 15 -47 39 -42 42 -47 35 -6 -10 16 -19 18 -25 7 -31 -9 -6 0 -11 28
-16 31 -5 45 -14 55 -34 8 -14 73 -77 145 -140 72 -62 136 -121 141 -132 10
-18 7 -19 -50 -19 -33 0 -60 -4 -60 -10 0 -11 7 -12 95 -14 l59 -1 37 -76 c21
-43 42 -80 48 -84 13 -7 2 24 -29 84 -42 84 -9 84 55 0 26 -33 49 -58 52 -55
6 6 -29 57 -52 76 -36 30 -15 32 183 25 108 -5 221 -8 250 -7 l52 2 0 -60 c0
-33 4 -60 10 -60 6 0 10 27 10 60 l0 60 38 0 c20 0 46 7 56 15 13 10 44 15 88
15 l68 0 1 -67 c3 -95 3 -100 12 -109 4 -4 7 31 7 79 0 52 4 89 11 93 6 3 40
6 75 6 35 0 64 4 64 8 0 10 -52 20 -100 20 l-38 0 4 53 c8 99 11 1003 3 1022
-5 12 -8 -16 -10 -70 -2 -76 -3 -83 -9 -45 -4 25 -5 122 -3 215 3 94 6 220 8
280 1 61 8 144 14 185 13 86 18 1001 5 1021 -7 12 -16 764 -11 994 1 61 1 343
-1 628 -2 509 -2 518 17 512 11 -3 22 -1 26 5 3 5 -1 10 -11 10 -9 0 -28 11
-43 25 -14 14 -71 65 -126 113 -55 48 -104 92 -110 98 -5 6 -32 26 -59 45 -26
19 -57 40 -67 48 -17 12 -19 11 -19 -3 0 -20 110 -132 165 -169 43 -28 142
-124 134 -130 -2 -2 -58 0 -124 5 -77 6 -241 6 -455 -2 l-335 -11 -25 29 c-14
16 -37 42 -51 58 -14 16 -60 62 -102 101 -42 40 -77 74 -77 76 0 2 161 2 358
0 383 -5 517 5 488 35 -9 8 -710 8 -741 -1 -11 -3 -49 -6 -85 -6 l-65 -1 0
-47 c0 -27 -4 -102 -10 -168 -10 -126 -10 -143 -4 -832 3 -365 2 -433 -10
-433 -11 0 -13 -12 -8 -57 7 -71 -3 -57 -39 52 -14 44 -43 118 -64 165 -21 47
-61 153 -90 235 -29 83 -79 213 -112 290 -34 77 -69 163 -79 190 -31 87 -99
246 -117 273 l-16 25 29 -7 c25 -6 27 -5 16 8 -8 9 -21 16 -31 16 -22 0 -143
156 -134 173 4 7 4 9 0 5 -4 -4 -28 17 -52 45 -24 29 -58 68 -75 87 l-31 35 8
-30 c3 -17 12 -37 18 -45 6 -8 20 -31 30 -50 11 -19 38 -55 60 -80 23 -25 57
-64 75 -87 19 -24 40 -43 48 -43 7 0 13 -3 13 -8 0 -8 -673 -5 -726 4 -18 2
-37 11 -44 19 -7 8 -18 15 -24 15 -6 0 -3 -5 7 -11 9 -5 17 -14 17 -19 0 -12
-100 -13 -115 -2 -16 11 -68 82 -98 132 -14 25 -42 62 -62 84 -19 21 -33 41
-31 45 2 3 58 3 123 -1 222 -13 712 -14 702 -1 -14 16 -401 32 -779 33 l-106
0 -32 42 c-18 23 -32 38 -32 34z m2050 -441 c2 -53 -11 -249 -16 -254 -2 -2
-10 1 -17 7 -10 9 -17 8 -26 -1 -9 -9 -14 -9 -21 3 -8 12 -10 10 -10 -7 0 -14
6 -23 15 -23 12 0 15 -17 15 -96 0 -61 4 -93 10 -89 6 3 10 48 10 101 0 55 4
94 10 94 17 0 21 -42 18 -215 -3 -150 -5 -170 -20 -173 -15 -3 -17 7 -16 78 0
45 -3 84 -6 87 -3 4 -6 -39 -6 -95 0 -55 -4 -103 -9 -106 -8 -5 -5 -129 4
-154 13 -34 25 8 25 84 0 64 3 85 13 81 9 -3 12 -51 12 -195 0 -167 -5 -216
-19 -201 -2 2 -6 42 -9 87 -7 109 -17 117 -17 14 0 -82 -15 -118 -26 -62 -4
17 -11 33 -15 36 -5 3 -9 20 -10 37 -1 38 -13 74 -21 61 -3 -5 -5 -37 -3 -71
2 -35 -1 -63 -5 -63 -10 0 -23 64 -22 115 0 22 -7 76 -15 119 -10 54 -11 81
-4 85 13 8 2 111 -11 111 -6 0 -7 -20 -4 -47 5 -36 4 -44 -4 -33 -8 11 -10 -3
-7 -55 3 -58 -7 -145 -13 -110 -6 35 -9 195 -14 603 -3 254 -8 467 -11 472 -4
6 -3 19 0 31 6 18 22 5 126 -98 110 -110 118 -121 119 -158z m-1750 23 c0 -10
-5 -18 -11 -18 -5 0 -7 -4 -4 -10 3 -5 6 -155 5 -332 -1 -178 -3 -964 -5
-1748 -4 -1401 -7 -1600 -27 -1600 -6 0 -7 -8 -3 -17 13 -29 14 -77 3 -90 -7
-9 -7 -13 1 -13 6 0 11 -5 11 -11 0 -5 -4 -8 -9 -4 -5 3 -12 -3 -14 -12 -5
-18 -12 43 -10 84 1 12 -4 24 -11 26 -9 4 -12 -17 -10 -87 1 -50 -2 -116 -6
-146 -4 -30 -5 -59 -3 -63 8 -13 9 -317 1 -309 -9 9 -17 122 -23 300 -2 68 -6
126 -9 130 -9 8 -7 24 2 18 5 -3 9 8 9 24 0 17 -5 30 -10 30 -5 0 -4 7 3 15 9
10 9 15 1 15 -6 0 -11 11 -11 25 0 14 5 25 10 25 6 0 10 7 10 16 0 14 -3 14
-15 4 -12 -10 -15 -9 -15 7 0 10 6 25 13 32 10 11 10 14 0 18 -18 6 -16 23 2
23 8 0 15 5 15 11 0 5 -4 8 -9 5 -10 -7 -21 17 -21 45 0 10 -5 19 -11 19 -11
0 -10 -33 7 -420 3 -80 4 -143 1 -140 -6 6 -8 32 -22 225 -3 44 -9 116 -12
160 -6 77 -7 220 -2 352 1 39 -3 68 -11 78 -11 13 -10 14 4 9 12 -5 15 -2 10
10 -3 9 -11 16 -18 16 -6 0 -5 4 3 9 8 5 14 23 13 40 0 19 3 29 10 25 6 -4 8
1 3 15 -5 16 -2 21 12 22 10 0 13 3 6 6 -7 2 -13 14 -13 25 0 15 -5 18 -16 14
-14 -5 -15 -4 -4 9 7 9 8 15 2 15 -15 0 -12 68 4 81 11 9 14 8 14 -1 0 -8 3
-11 6 -7 3 3 1 14 -5 24 -6 10 -11 12 -11 6 0 -7 -5 -13 -10 -13 -7 0 -7 7 0
20 6 11 8 25 4 31 -3 6 -8 33 -10 61 -3 46 -2 49 14 37 15 -12 15 -11 -1 7
-10 12 -17 27 -15 34 2 7 -3 15 -10 17 -8 3 -10 -1 -6 -11 3 -9 1 -16 -5 -16
-7 0 -11 19 -10 48 1 44 2 45 12 20 10 -27 37 -47 37 -28 0 6 -4 10 -10 10 -5
0 -10 5 -10 11 0 5 5 7 10 4 7 -4 10 2 8 17 -5 32 -18 50 -32 45 -7 -3 -12 5
-12 22 0 14 -2 40 -3 56 -5 53 -1 86 9 80 6 -3 10 -1 10 4 0 6 -4 11 -10 11
-5 0 -10 5 -10 11 0 5 5 7 10 4 11 -7 13 9 10 65 -2 32 -1 33 17 20 17 -14 17
-14 1 5 -9 11 -18 31 -21 45 -2 14 -5 -8 -6 -49 0 -41 -4 -71 -8 -68 -17 17
-25 1571 -9 1712 5 44 9 89 8 100 -1 11 -1 36 -1 55 1 19 2 52 2 73 0 20 5 37
11 37 7 0 7 3 1 8 -6 4 -10 104 -10 262 0 140 -4 301 -8 358 -8 117 1 129 45
59 15 -23 38 -54 51 -68 49 -51 51 -64 53 -254 2 -226 2 -225 12 -225 4 0 8
95 9 211 l1 211 -85 106 -85 107 111 -110 c61 -60 111 -118 111 -127z m339 16
c12 -11 -18 -15 -128 -21 -67 -3 -124 -10 -128 -16 -6 -9 197 -3 274 8 73 12
518 31 539 24 14 -5 24 -22 31 -56 6 -26 10 -50 8 -52 -2 -2 -18 17 -36 43
-46 65 -50 48 -5 -21 47 -73 132 -249 181 -373 20 -52 40 -99 44 -105 4 -5 20
-44 35 -85 72 -193 93 -246 117 -292 5 -10 9 -25 9 -33 0 -9 11 -38 25 -65 14
-28 61 -155 104 -283 43 -127 90 -260 105 -294 30 -72 48 -125 69 -203 16 -56
50 -141 104 -260 17 -36 33 -75 37 -87 19 -59 98 -174 111 -161 5 4 -5 42 -20
84 -27 77 -27 80 -31 398 -3 177 -5 349 -6 382 0 34 2 66 6 73 4 6 3 11 -3 11
-6 0 -8 13 -4 33 10 56 12 159 17 732 2 308 5 573 5 588 1 24 4 27 22 22 27
-9 270 -8 470 0 l156 7 6 -33 c6 -39 12 -1480 10 -2314 -3 -1197 -2 -2028 1
-2034 3 -3 7 -102 10 -220 l6 -214 -37 6 c-21 4 -143 7 -271 8 -128 0 -241 3
-251 6 -23 6 -35 53 -15 53 21 0 17 9 -16 40 -16 15 -30 35 -30 44 0 19 1 19
37 4 15 -6 38 -13 51 -15 20 -3 21 -2 11 16 -7 10 -19 17 -26 14 -7 -3 -21 -2
-30 3 -10 4 -27 8 -38 8 -12 1 -19 8 -19 19 1 9 -3 17 -8 17 -6 0 -7 7 -4 16
3 8 2 13 -3 10 -4 -3 -25 45 -45 107 -46 139 -45 136 -89 227 -32 67 -59 140
-143 385 -38 110 -107 279 -117 286 -5 4 -7 11 -3 17 3 5 -1 15 -9 22 -8 7
-15 19 -15 26 0 8 -4 14 -10 14 -5 0 -10 5 -10 11 0 6 7 9 15 5 8 -3 15 -4 15
-2 0 4 -44 104 -78 176 -9 19 -17 44 -18 55 -1 11 -19 56 -39 100 -53 118 -79
182 -91 225 -3 14 -17 48 -29 75 -13 28 -28 66 -33 85 -5 19 -30 89 -56 155
-26 66 -56 145 -67 175 -11 30 -24 62 -29 72 -5 9 -15 47 -21 85 -7 37 -15 60
-17 51 -5 -25 -42 -5 -42 22 0 11 -7 20 -15 20 -8 0 -15 5 -15 10 0 6 -5 10
-11 10 -11 0 29 -72 43 -78 11 -5 10 -32 -1 -32 -5 0 -11 6 -14 13 -2 6 -8 9
-12 5 -4 -4 -2 -14 5 -23 10 -12 12 -175 12 -788 -1 -962 -7 -1551 -16 -1566
-4 -6 -3 -19 2 -28 6 -10 12 -44 13 -77 l4 -58 -180 1 c-99 0 -293 1 -431 1
l-251 0 -7 41 c-4 22 -5 586 -4 1252 2 667 1 1637 -1 2157 -2 520 0 1020 4
1111 7 157 8 168 29 178 13 7 14 10 3 6 -20 -5 -32 16 -23 40 5 13 27 14 153
9 81 -4 150 -8 152 -10z m2301 -1075 c13 -9 13 -10 -2 -6 -27 9 -31 -32 -4
-43 22 -8 23 -12 19 -106 -4 -88 -7 -101 -29 -121 -16 -15 -24 -18 -24 -8 0 7
-13 19 -29 26 -28 13 -28 14 -30 102 -2 87 -2 88 21 85 22 -3 23 -6 21 -91 -2
-60 1 -87 8 -85 13 4 22 198 9 198 -5 0 -4 13 1 30 12 33 17 35 39 19z m56
-24 c-3 -8 -2 -15 3 -15 24 0 41 -181 20 -215 -4 -5 -10 -26 -14 -45 -5 -20
-10 -29 -13 -20 -6 17 -27 40 -37 40 -4 0 -5 -27 -2 -61 3 -48 2 -59 -9 -55
-8 3 -14 1 -14 -3 0 -5 7 -11 15 -15 11 -4 14 -14 9 -38 -4 -18 -5 -51 -4 -73
4 -65 3 -164 -3 -179 -4 -9 -14 -12 -26 -9 -12 3 -18 9 -15 14 3 5 9 7 14 4 4
-3 11 2 14 11 4 12 1 14 -14 9 -19 -6 -20 -2 -16 100 2 58 6 108 9 112 4 3 2
14 -3 24 -10 17 5 69 19 69 4 0 8 21 9 47 1 26 6 49 11 52 15 10 20 44 22 146
1 55 4 103 6 108 8 14 25 7 19 -8z m-79 -1194 c-3 -11 1 -28 8 -38 10 -14 13
-58 13 -154 -1 -75 2 -141 7 -149 4 -7 7 -34 6 -58 -1 -27 4 -49 11 -53 7 -4
9 -11 5 -16 -4 -4 -17 -2 -27 5 -17 10 -20 10 -20 -5 0 -29 -18 0 -20 32 -3
44 0 53 10 28 5 -13 14 -23 19 -23 12 0 1 43 -13 52 -7 5 -4 8 7 8 10 0 15 5
12 11 -4 6 -13 8 -20 5 -7 -2 -16 2 -19 10 -3 8 0 14 8 14 9 0 12 9 9 28 -2
15 -5 76 -7 136 -2 78 -7 110 -17 117 -11 6 -11 11 -1 21 6 6 12 20 12 30 0
10 5 18 11 18 6 0 9 -9 6 -19z m21 -800 c23 -20 29 -41 11 -41 -5 0 -8 -4 -4
-9 3 -6 -3 -14 -12 -20 -17 -9 -17 -11 2 -25 11 -8 23 -12 27 -9 5 2 18 1 29
-2 18 -6 20 -12 14 -38 -3 -18 -7 -50 -8 -71 -1 -22 -8 -41 -14 -43 -10 -4
-14 15 -15 69 l-2 73 -3 -65 c-2 -35 -9 -71 -16 -78 -9 -11 -7 -17 6 -27 19
-14 23 -30 5 -19 -8 5 -7 0 2 -11 10 -13 11 -19 4 -22 -7 -2 -10 -12 -7 -23 6
-23 -11 -57 -21 -41 -4 6 -3 11 2 11 5 0 7 12 4 26 -3 17 -9 23 -19 20 -9 -4
-13 -1 -10 6 2 7 10 12 16 11 13 -4 14 7 1 27 -8 12 -10 12 -10 1 0 -8 -3 -12
-6 -8 -3 3 -3 11 2 18 10 16 14 179 4 179 -15 0 -18 39 -4 51 16 13 19 59 4
59 -5 0 -10 5 -10 10 0 14 4 13 28 -9z m-1318 -350 c0 -11 4 -23 10 -26 17
-10 62 -118 70 -167 1 -4 21 -45 45 -92 27 -53 41 -93 38 -106 -3 -12 0 -20 8
-20 7 0 9 -3 6 -7 -4 -3 5 -26 19 -51 21 -36 24 -46 13 -53 -12 -7 -11 -9 1
-9 8 0 20 -11 27 -25 6 -14 7 -25 3 -25 -8 0 -1 -33 15 -72 4 -10 3 -18 -2
-18 -6 0 -18 19 -27 43 -10 23 -33 76 -51 117 -19 41 -43 102 -55 135 -12 33
-26 71 -32 85 -57 139 -78 194 -78 211 0 10 -4 19 -9 19 -5 0 -12 11 -15 24
-3 13 -9 31 -12 40 -4 11 -1 16 10 16 9 0 16 -8 16 -19z m1330 -131 c0 5 5 10
10 10 6 0 10 -9 10 -20 0 -16 5 -19 24 -14 22 5 24 2 28 -35 2 -23 2 -59 0
-81 -4 -34 -7 -40 -28 -40 -23 0 -24 3 -24 64 0 48 -4 65 -15 70 -13 5 -21
-19 -17 -55 1 -3 2 -27 3 -52 2 -31 7 -47 16 -47 15 0 17 -19 3 -40 -8 -13
-10 -12 -10 4 0 19 0 19 -14 1 -13 -18 -14 -18 -21 5 -12 38 -13 173 -1 194 8
14 8 20 -2 23 -6 3 -10 9 -6 14 3 5 13 5 25 -1 13 -7 19 -7 19 0z m-2861 -153
c0 -12 0 -26 0 -32 1 -5 2 -64 1 -130 -2 -290 1 -484 9 -540 10 -67 7 -76 -14
-54 -24 24 -27 797 -3 783 5 -3 8 -16 7 -27z m2847 -149 c-4 -21 -2 -28 7 -25
6 2 11 10 10 16 -2 6 2 11 8 11 6 0 8 -9 4 -20 -4 -11 -2 -20 4 -20 6 0 11 -4
11 -9 0 -5 -9 -7 -20 -4 -25 7 -25 -1 -3 -27 26 -30 61 -26 66 8 2 15 3 -11 1
-58 -4 -117 -12 -150 -35 -150 -17 0 -19 8 -19 85 0 50 -4 85 -10 85 -5 0 -10
-8 -10 -17 -2 -140 -16 -203 -42 -187 -5 3 -4 12 3 20 8 10 10 47 7 119 -3 57
-1 106 3 107 4 2 4 23 -1 48 -9 48 -5 64 12 54 5 -4 7 -20 4 -36z"/>
<path d="M16743 7313 c-5 -10 -7 -62 -5 -115 l3 -98 39 0 c21 0 50 4 64 10 26
9 26 11 26 109 0 111 0 111 -75 111 -32 0 -46 -5 -52 -17z"/>
<path d="M16938 7324 c-5 -4 -8 -53 -8 -110 0 -84 3 -103 16 -108 25 -10 74
-7 74 4 0 6 -13 10 -30 10 l-30 0 0 90 c0 82 2 90 19 90 11 0 26 3 35 6 14 5
16 -7 16 -95 0 -80 3 -101 14 -101 8 0 17 7 20 16 9 24 7 167 -3 183 -10 15
-111 28 -123 15z"/>
<path d="M17130 7311 c-5 -11 -10 -58 -10 -104 0 -68 3 -86 16 -91 20 -8 72
-8 102 0 25 7 27 26 15 147 l-6 67 -53 0 c-42 0 -55 -4 -64 -19z"/>
<path d="M16744 6917 c-2 -7 -3 -60 -2 -118 3 -117 3 -116 82 -105 l41 6 0
103 c0 56 -4 108 -8 115 -11 17 -106 16 -113 -1z"/>
<path d="M16934 6917 c-2 -7 -3 -58 -2 -112 3 -114 9 -122 81 -111 l47 7 0
109 c0 121 1 120 -76 120 -28 0 -47 -5 -50 -13z"/>
<path d="M17132 6913 c-4 -10 -7 -61 -7 -113 l0 -95 34 -3 c19 -2 48 -1 65 2
l31 6 0 107 0 108 -58 3 c-47 2 -58 0 -65 -15z"/>
<path d="M16740 6385 l0 -115 49 0 c82 0 81 -2 81 121 l0 109 -65 0 -65 0 0
-115z"/>
<path d="M16768 5703 c-24 -6 -29 -33 -26 -138 3 -101 4 -102 84 -90 l44 6 0
105 c0 103 0 105 -26 114 -26 10 -46 11 -76 3z"/>
<path d="M16963 5703 l-33 -4 0 -108 0 -109 45 -6 c78 -12 85 -2 85 119 0 97
-1 105 -19 105 -11 0 -25 2 -33 3 -7 2 -28 2 -45 0z m77 -119 l0 -95 -41 3
-41 3 -3 85 c-2 47 -1 88 2 93 2 4 22 7 44 7 l39 0 0 -96z"/>
<path d="M17149 5703 c-17 -4 -29 -76 -29 -169 0 -49 17 -64 72 -64 54 0 57 6
59 120 1 93 0 105 -17 111 -21 8 -59 9 -85 2z m79 -117 l3 -97 -38 3 -38 3 -2
92 -2 92 27 4 c15 2 32 3 37 2 6 -1 11 -44 13 -99z"/>
<path d="M16740 5265 c-8 -10 -10 -42 -5 -114 l7 -99 37 -4 c20 -1 47 -2 61 0
l26 3 0 107 c0 65 -4 110 -10 114 -20 14 -103 9 -116 -7z m100 -100 c0 -47 0
-88 0 -92 0 -5 -19 -8 -42 -8 -35 0 -43 3 -42 18 0 9 1 51 2 92 l2 75 40 0 40
0 0 -85z"/>
<path d="M16937 5274 c-4 -4 -7 -56 -7 -115 l0 -107 33 -6 c18 -3 48 -3 66 0
l32 7 -3 111 -3 111 -55 3 c-31 2 -59 0 -63 -4z"/>
<path d="M17146 5265 c-12 -13 -16 -38 -16 -115 0 -110 0 -110 79 -100 l44 5
-2 105 c-1 57 -4 106 -5 108 -2 1 -22 5 -44 8 -28 3 -45 0 -56 -11z"/>
<path d="M16573 4852 c-22 -3 -23 -7 -23 -113 0 -90 3 -109 15 -109 12 0 15
17 15 94 0 89 1 94 23 100 12 3 24 6 27 6 3 0 5 -45 4 -100 -1 -55 0 -100 2
-100 1 0 9 3 18 6 13 5 16 24 16 109 l0 103 -37 3 c-21 2 -48 3 -60 1z"/>
<path d="M16744 4837 c-2 -7 -3 -58 -2 -113 l3 -99 51 -3 c33 -2 55 2 61 10
10 11 17 113 14 191 -1 26 -2 27 -61 27 -41 0 -62 -4 -66 -13z"/>
<path d="M16940 4830 c-14 -26 -11 -188 4 -197 17 -11 38 -13 81 -7 l40 6 0
106 0 107 -57 3 c-49 3 -58 0 -68 -18z m100 -95 l0 -95 -40 0 -40 0 0 88 c0
49 3 92 7 95 3 4 21 7 40 7 l33 0 0 -95z"/>
<path d="M17140 4831 c-5 -11 -10 -61 -10 -111 l0 -91 58 3 57 3 7 100 c3 55
4 103 1 108 -2 4 -26 7 -53 7 -39 0 -52 -4 -60 -19z m98 -99 l3 -93 -43 3
c-24 2 -42 6 -40 11 1 4 2 46 2 93 l0 85 38 -3 37 -3 3 -93z"/>
<path d="M16571 4441 c-11 -7 -14 -32 -14 -106 0 -53 4 -99 7 -102 12 -13 51
-13 78 -2 26 10 28 16 29 68 1 31 3 72 4 91 1 19 0 41 -3 48 -5 14 -80 16
-101 3z"/>
<path d="M16760 4424 c-6 -15 -9 -66 -8 -113 l3 -86 39 -3 c22 -2 50 -1 62 2
23 6 24 10 23 99 -1 50 0 99 2 107 3 12 -8 16 -54 18 -54 3 -58 2 -67 -24z"/>
<path d="M16947 4444 c-4 -4 -7 -56 -7 -116 l0 -108 43 0 c89 0 88 -1 85 119
l-3 106 -55 3 c-31 2 -59 0 -63 -4z"/>
<path d="M17188 4443 l-38 -4 0 -67 c0 -37 -3 -84 -6 -104 l-7 -38 39 0 c81 0
79 -2 76 115 -2 74 -7 104 -15 103 -7 -1 -29 -3 -49 -5z"/>
<path d="M16570 3914 l0 -116 58 4 57 4 -1 40 c-5 141 -25 184 -86 184 l-28 0
0 -116z"/>
<path d="M16964 4015 c-20 -13 -22 -23 -20 -112 l1 -98 48 -3 c71 -5 75 3 70
111 -3 50 -8 95 -12 98 -15 16 -67 19 -87 4z"/>
<path d="M17000 3640 l-45 -5 -8 -90 c-4 -49 -5 -95 -3 -101 6 -16 75 -23 103
-10 21 10 23 17 23 97 0 104 -8 117 -70 109z"/>
<path d="M16757 3625 c-2 -5 -3 -50 -3 -100 l1 -90 36 -9 c28 -7 42 -5 60 8
21 14 24 24 26 106 1 49 -1 90 -5 90 -72 5 -112 3 -115 -5z"/>
<path d="M17146 3632 c-2 -4 -6 -48 -7 -97 l-2 -90 33 -3 c18 -2 44 2 57 9 21
12 23 18 23 101 l0 88 -49 0 c-28 0 -52 -4 -55 -8z"/>
<path d="M4768 7968 c-2 -24 -7 -32 -18 -29 -47 14 -922 4 -884 -9 49 -18 674
-30 787 -16 41 6 67 5 67 0 0 -6 -41 -41 -91 -79 -50 -39 -114 -89 -141 -112
-27 -24 -52 -43 -57 -43 -5 0 -19 -16 -32 -36 l-24 -35 -85 5 c-47 3 -150 6
-230 7 -162 2 -241 17 -95 18 50 1 133 3 185 5 52 2 119 4 148 5 28 0 52 5 52
11 0 5 -39 7 -97 5 -54 -3 -164 -5 -245 -6 -128 0 -149 -2 -158 -17 -5 -10
-10 -12 -10 -4 0 6 -5 12 -11 12 -5 0 -7 -4 -4 -10 9 -14 -7 -12 -29 5 -18 13
-44 13 -164 -1 -23 -3 -40 -9 -37 -15 4 -5 0 -9 -7 -10 -7 -1 -30 -3 -52 -5
-43 -3 -41 0 14 36 53 35 152 104 242 168 l77 54 188 -1 c103 -1 194 3 202 8
20 13 -177 22 -281 13 -51 -4 -89 -4 -91 2 -5 16 -46 -5 -175 -91 -148 -100
-301 -203 -328 -220 -17 -10 -16 -11 11 -10 28 2 30 -1 36 -43 4 -25 7 -216 8
-425 1 -209 5 -450 9 -535 4 -85 6 -187 4 -227 l-3 -72 -52 5 c-28 3 -56 9
-61 14 -15 15 24 25 45 12 22 -14 49 -16 49 -3 0 12 -46 41 -65 41 -8 0 -26
-10 -41 -22 -31 -28 -74 -37 -181 -37 -58 -1 -83 3 -83 11 0 7 -12 25 -27 40
l-27 28 -4 551 c-3 498 -2 551 12 546 14 -6 15 9 11 136 -4 123 -11 226 -16
254 -1 4 2 22 6 40 6 28 12 32 44 36 72 7 -301 6 -609 -3 -342 -9 -350 -11
-415 -70 -50 -46 -187 -123 -196 -109 -3 6 -12 8 -18 5 -6 -4 -9 -12 -5 -17 7
-12 -15 -31 -69 -60 -37 -20 -39 -20 -53 -2 -7 10 -14 22 -14 26 0 5 -4 6 -9
3 -5 -3 -7 -14 -4 -25 3 -12 -3 -24 -18 -35 -23 -16 -23 -16 -2 -16 19 0 21
-3 13 -29 -4 -16 -6 -32 -3 -35 3 -3 7 -67 8 -143 2 -76 7 -253 12 -393 10
-303 9 -397 -3 -675 -11 -262 -9 -558 6 -920 9 -194 10 -409 5 -700 -5 -231
-9 -447 -9 -480 -1 -122 46 -479 65 -491 5 -3 9 -19 9 -36 0 -59 104 -290 186
-412 18 -28 31 -52 28 -55 -2 -3 -41 31 -86 75 -44 43 -73 68 -64 54 37 -56
355 -365 416 -405 36 -23 70 -48 77 -57 7 -8 14 -47 17 -87 4 -67 2 -73 -18
-81 -13 -5 65 -9 199 -9 135 -1 234 -5 255 -12 47 -16 760 -24 760 -9 0 8
-114 16 -157 11 -19 -3 -16 16 5 25 30 13 261 13 295 0 47 -18 281 -14 329 7
31 13 37 13 42 1 8 -20 33 -17 56 6 11 11 27 20 35 20 8 0 15 7 15 15 0 8 7
15 15 15 8 0 12 6 10 13 -3 6 -1 17 3 22 9 13 74 36 81 29 3 -2 -5 -7 -17 -11
-65 -17 5 -23 254 -22 152 0 273 3 270 7 -9 9 -62 12 -202 12 -115 0 -180 9
-158 23 6 3 37 2 69 -2 32 -5 70 -5 85 0 21 6 19 7 -17 8 -23 1 -45 5 -48 11
-3 6 -17 10 -31 10 -13 0 -24 5 -24 10 0 6 7 10 16 10 8 0 13 4 9 9 -6 10
-163 13 -253 4 -45 -4 -51 -7 -41 -19 21 -25 2 -15 -37 21 -34 31 -35 35 -16
35 12 0 22 -4 22 -8 0 -5 91 -6 203 -3 281 6 526 5 566 -4 23 -5 32 -4 27 3
-10 16 -147 30 -300 32 -22 0 -36 3 -32 7 8 8 217 6 258 -3 14 -3 29 -1 32 4
12 19 -332 33 -438 18 -42 -6 -57 -6 -52 2 11 18 -38 25 -90 14 -39 -9 -44 -8
-33 4 15 14 97 19 189 11 30 -2 77 -1 103 3 26 4 50 3 53 -2 7 -11 144 -8 144
4 0 4 -9 8 -20 8 -11 0 -20 4 -20 8 0 5 28 8 62 6 38 -1 56 1 47 6 -18 12 -91
20 -216 24 -55 2 -105 6 -111 9 -5 4 -29 4 -53 1 -73 -10 -130 -10 -136 -1 -5
8 -76 3 -150 -10 -18 -3 -33 -2 -33 1 0 4 76 85 168 179 224 228 270 280 265
295 -3 6 1 12 8 12 7 0 10 3 6 6 -3 3 10 31 28 63 40 67 90 191 110 270 8 31
28 108 45 171 43 160 71 305 64 324 -3 9 -2 16 3 16 15 0 9 80 -7 90 -11 7
-11 10 -2 10 9 0 12 13 11 43 -1 23 -4 45 -5 48 -16 31 -38 2489 -23 2489 4 0
10 -6 12 -12 3 -7 6 -3 6 10 1 13 -3 21 -7 18 -4 -2 -8 82 -9 187 0 106 -3
265 -6 355 l-5 162 39 22 c22 12 39 25 39 30 0 11 -14 10 -25 -1 -20 -19 -50
-17 -51 4 -1 11 -2 35 -3 53 0 17 -5 32 -10 32 -6 0 -11 -15 -13 -32z m-1778
-61 c0 -7 -36 -36 -80 -65 -43 -28 -102 -72 -130 -97 -79 -70 -126 -98 -155
-93 -25 5 -35 -7 -12 -15 34 -12 -20 -18 -233 -23 -182 -4 -235 -3 -241 7 -5
9 -53 13 -183 13 -97 1 -176 3 -175 6 0 8 88 66 184 121 50 29 105 67 124 86
24 23 43 33 65 33 178 -2 633 13 711 24 55 7 106 14 113 15 6 0 12 -5 12 -12z
m-14 -194 c-3 -76 -9 -212 -13 -303 -4 -91 -7 -187 -6 -215 1 -27 5 -243 8
-479 3 -237 7 -432 10 -434 2 -3 11 1 19 7 16 13 36 7 36 -10 0 -6 -15 -9 -33
-8 -18 2 -37 1 -42 -2 -38 -21 -44 -18 -39 19 9 74 3 164 -12 179 -8 9 -12 18
-9 21 3 4 10 1 14 -6 5 -8 9 11 10 43 1 37 -2 54 -9 50 -5 -3 -10 -17 -10 -31
0 -14 -5 -35 -11 -46 -9 -17 -14 -202 -6 -241 2 -10 -60 -37 -115 -51 l-28 -6
0 62 c0 82 -11 198 -19 198 -3 0 -4 -61 -3 -135 3 -108 1 -135 -10 -135 -10 0
-13 36 -12 186 1 114 6 190 12 196 6 6 7 20 3 32 -9 27 -7 418 3 434 4 7 5 16
1 21 -9 16 -5 221 8 376 1 22 4 69 5 105 l2 65 62 50 c75 60 160 146 153 153
-5 5 23 42 32 42 2 0 1 -62 -1 -137z m1779 45 c-3 -46 -5 -87 -6 -93 -4 -47 5
-1884 10 -1930 3 -33 5 -97 3 -143 -3 -73 -6 -83 -20 -78 -14 5 -14 4 1 -8 14
-11 17 -25 15 -60 -2 -25 -5 -46 -8 -46 -3 0 -6 -23 -8 -51 -1 -28 1 -48 5
-46 4 3 8 -45 9 -106 1 -130 13 -453 20 -514 2 -24 0 -43 -6 -43 -5 0 -6 7 -3
17 4 11 3 14 -5 9 -16 -10 -15 -36 1 -36 9 0 9 -2 0 -8 -6 -4 -14 -26 -17 -50
-3 -23 -9 -61 -12 -84 -3 -24 -8 -45 -10 -47 -4 -4 -8 80 -6 127 1 12 -3 22
-8 22 -6 0 -10 -40 -10 -90 0 -71 -3 -90 -14 -90 -8 0 -16 -6 -19 -12 -8 -23
-20 0 -21 42 0 22 -5 40 -9 40 -5 0 -7 -30 -5 -66 3 -55 2 -63 -9 -48 -7 9
-11 37 -10 61 2 31 -1 43 -11 43 -9 0 -11 7 -7 20 4 13 1 22 -10 26 -10 4 -14
13 -10 28 5 16 4 18 -4 6 -18 -26 -29 2 -24 58 5 43 9 52 22 48 12 -5 12 -3
-2 8 -15 11 -16 18 -8 34 6 12 8 27 5 35 -3 8 -1 18 5 22 6 3 8 17 5 31 -8 31
13 32 26 2 9 -21 10 -20 7 7 -2 19 4 38 14 48 24 25 30 77 13 110 -8 15 -20
39 -28 55 -17 32 -22 54 -30 148 -13 134 -17 156 -33 180 -18 28 -7 33 14 7
10 -13 9 -9 -2 15 -9 18 -20 30 -24 28 -4 -3 -21 18 -36 46 -15 28 -23 48 -16
44 15 -10 14 17 -1 32 -9 9 -9 12 0 12 7 0 12 5 12 10 0 6 -5 9 -11 8 -6 -2
-14 3 -17 11 -3 8 0 11 7 7 14 -9 15 55 2 70 -6 5 -12 83 -16 174 -3 91 -8
224 -11 295 -13 315 -17 640 -14 1125 l2 315 44 28 c53 34 131 99 124 102 -3
2 4 12 14 24 11 12 16 24 13 27 -7 8 18 34 32 34 6 0 11 5 11 10 0 6 7 10 15
10 8 0 14 4 13 8 -3 7 50 61 60 62 1 0 0 -37 -3 -82z m-2715 -148 c98 -2 96
-6 -10 -28 -32 -7 45 -10 265 -10 170 0 311 -4 312 -9 2 -4 4 -315 5 -689 l3
-681 -36 4 c-30 4 -39 1 -57 -22 -13 -16 -22 -42 -22 -61 0 -28 -8 -39 -57
-76 -101 -75 -107 -78 -157 -72 -67 10 -104 -30 -84 -89 12 -32 9 -38 -92
-164 -55 -68 -79 -90 -107 -98 -20 -6 -45 -22 -56 -37 -20 -27 -20 -29 -4 -62
16 -35 16 -36 -26 -137 -34 -84 -48 -106 -75 -122 -58 -34 -67 -80 -28 -131
l23 -31 -20 -111 c-18 -102 -22 -113 -49 -128 l-28 -17 0 163 c0 159 -13 478
-27 688 -3 58 -5 247 -2 420 5 426 5 814 -1 1184 l-5 310 25 7 c14 4 68 5 120
4 52 -2 138 -4 190 -5z m1928 -32 c8 -7 64 -10 145 -9 112 1 251 -10 262 -21
2 -2 6 -287 9 -633 6 -637 12 -1005 21 -1215 4 -107 4 -112 -9 -77 -15 41 -41
66 -67 67 -25 0 -171 179 -164 201 8 25 -19 85 -48 104 -17 11 -37 14 -63 10
-34 -5 -49 1 -124 48 -76 49 -85 57 -82 81 4 30 -18 70 -47 86 -14 7 -33 5
-70 -6 -49 -16 -52 -16 -136 10 -47 15 -88 33 -91 41 -3 7 -7 139 -9 292 -6
526 -23 952 -41 1010 -6 22 -6 22 147 26 196 5 350 -2 367 -15z m-516 -1438
c0 -28 1 -56 2 -62 1 -7 -6 -11 -14 -9 -8 2 -66 6 -129 10 -73 4 -116 10 -118
18 -2 6 16 25 41 43 26 17 46 28 46 24 0 -4 6 1 14 11 15 21 81 31 91 14 7
-11 26 -12 24 -1 -3 19 3 22 21 12 15 -8 20 -22 22 -60z m-532 47 c0 -7 -30
-42 -66 -78 -37 -35 -76 -74 -87 -85 l-21 -21 -21 26 c-31 37 -48 71 -35 71 5
0 10 6 10 14 0 16 86 53 142 62 21 4 41 11 44 15 8 14 34 11 34 -4z m714 -34
c43 -17 71 -35 76 -48 5 -11 9 -14 9 -7 1 10 6 10 22 1 15 -8 18 -14 10 -22
-6 -6 -11 -20 -10 -31 0 -20 1 -20 11 2 6 12 20 22 30 22 23 0 108 -42 168
-84 l45 -31 -40 -6 c-22 -3 -83 -5 -135 -5 -85 1 -95 3 -92 19 2 9 -2 17 -8
17 -6 0 -8 -4 -5 -10 3 -5 1 -10 -6 -10 -18 0 -182 71 -198 86 -12 11 -10 15
13 24 15 5 32 10 37 10 13 0 11 17 -2 26 -6 3 -15 1 -19 -6 -4 -7 -15 -10 -24
-7 -11 5 -16 19 -16 52 l0 47 33 -7 c17 -3 63 -18 101 -32z m-1094 -125 c0 -7
-7 -22 -15 -32 -8 -11 -15 -29 -15 -40 -1 -45 -42 -106 -144 -209 -58 -59
-106 -113 -106 -118 0 -6 -8 -8 -17 -5 -10 4 -14 4 -10 0 3 -4 -2 -19 -13 -34
-23 -33 -114 -215 -125 -250 -17 -57 -28 -56 -57 6 -28 58 -28 58 -22 19 3
-22 11 -49 19 -61 27 -42 18 -104 -14 -104 -10 0 -37 -22 -60 -50 -23 -27 -46
-50 -51 -50 -15 0 -5 29 16 45 10 8 15 15 9 15 -14 0 -11 63 3 68 6 2 17 -6
24 -17 13 -21 28 -28 28 -13 0 4 -14 22 -31 40 l-31 33 27 77 c16 42 30 79 31
81 2 2 12 -2 21 -10 16 -13 17 -12 4 4 -12 14 -12 20 -1 30 10 9 13 9 17 0 7
-21 48 -15 70 10 33 36 37 63 13 97 -25 35 -21 55 20 115 34 50 121 145 132
145 4 0 8 -7 8 -15 0 -14 12 -14 86 1 25 5 29 42 8 82 -7 14 -11 29 -8 34 7
11 167 118 176 118 5 0 8 -6 8 -12z m830 1 c36 -5 69 -14 74 -19 4 -5 11 -161
14 -347 l5 -338 -50 -95 c-27 -52 -69 -131 -92 -175 -63 -117 -11 -52 62 80
l62 110 6 -70 c7 -82 5 -86 -95 -185 l-66 -65 -33 17 c-17 9 -40 19 -49 22
-16 5 -18 25 -19 218 0 117 -2 222 -4 233 -1 11 -6 94 -10 185 -3 91 -8 176
-9 190 -2 14 -4 37 -5 53 0 15 -6 27 -12 27 -5 0 -8 -3 -6 -7 5 -8 12 -198 23
-633 3 -135 7 -249 8 -255 0 -5 -9 -11 -21 -13 -17 -3 -24 3 -29 25 -21 90
-48 180 -57 191 -6 7 -19 37 -30 65 -19 48 -21 82 -24 419 l-4 367 33 4 c70 8
266 6 328 -4z m-394 -221 c-4 -117 -10 -216 -15 -221 -4 -4 -4 -27 0 -50 11
-56 11 -107 1 -107 -14 0 -33 51 -27 71 4 11 2 19 -4 19 -14 0 -15 -67 -1 -75
5 -3 7 -12 4 -19 -3 -8 0 -17 7 -22 8 -4 10 -3 5 4 -4 7 -3 12 2 12 5 0 10
-64 11 -142 l1 -143 -32 48 c-24 37 -28 51 -19 57 9 5 9 10 3 14 -6 3 -12 1
-14 -6 -4 -12 -54 56 -84 113 -9 19 -17 67 -20 127 -2 53 -6 108 -9 122 -6 32
-15 135 -19 230 -2 41 -7 82 -10 91 -7 15 7 25 59 45 29 11 138 41 154 43 12
1 13 -33 7 -211z m672 130 c50 -22 102 -48 115 -57 12 -9 36 -23 52 -31 46
-23 267 -250 317 -327 136 -205 190 -397 192 -683 1 -173 -12 -271 -56 -410
-81 -256 -236 -472 -433 -603 -86 -57 -199 -117 -220 -117 -5 0 -36 78 -68
173 l-58 172 3 177 c2 98 6 178 10 178 7 0 18 -13 183 -221 106 -134 170 -207
202 -232 36 -29 27 -11 -20 41 -67 72 -339 414 -353 442 -15 32 -25 150 -13
150 5 0 96 -58 202 -128 248 -166 358 -235 364 -228 3 3 -12 15 -33 28 -51 30
-494 327 -516 346 -17 14 -26 91 -13 104 3 2 36 -6 74 -19 77 -25 576 -153
600 -153 32 0 -3 11 -155 50 -312 81 -350 91 -436 118 l-88 27 0 36 0 37 103
7 c285 18 688 67 673 82 -2 2 -62 -2 -133 -11 -144 -17 -178 -20 -423 -41
-242 -21 -220 -24 -220 33 l0 48 183 73 c235 95 527 226 527 236 0 6 -16 0
-170 -65 -238 -100 -533 -220 -542 -220 -4 0 -8 30 -8 67 l0 66 53 51 c48 47
154 144 385 355 51 46 90 86 88 89 -6 5 -71 -51 -339 -290 -96 -87 -179 -158
-183 -158 -3 0 -5 42 -2 93 4 92 4 92 70 212 92 168 190 365 181 365 -8 0 -18
-17 -155 -274 -79 -148 -106 -179 -95 -109 4 22 7 161 8 308 l0 267 27 -7 c15
-3 69 -25 120 -47z m-908 -5 c8 -180 33 -457 45 -503 7 -24 6 -24 -19 5 -24
27 -61 88 -66 107 -1 4 -6 22 -11 40 -6 18 -12 100 -13 181 -3 140 -2 149 18
162 22 16 46 20 46 8z m1227 -11 c7 -4 16 -40 19 -80 4 -40 11 -75 17 -79 5
-3 7 10 3 33 -16 108 -9 142 25 124 10 -6 19 -17 19 -25 0 -8 7 -15 16 -15 13
0 15 -6 9 -27 -11 -42 -11 -68 0 -71 5 -1 10 12 11 28 2 43 10 47 42 24 40
-30 154 -176 145 -185 -11 -11 -177 18 -181 31 -2 5 -12 10 -23 10 -11 0 -41
20 -67 43 -26 24 -86 76 -135 115 l-87 71 82 4 c46 1 85 4 88 5 3 1 11 -2 17
-6z m-1340 -264 c3 -275 11 -410 27 -421 6 -5 0 -5 -14 -2 -27 8 -82 47 -220
155 -90 71 -140 106 -140 97 0 -4 114 -99 171 -142 184 -138 189 -144 189
-206 0 -28 5 -49 13 -53 8 -3 7 -8 -5 -16 -22 -13 -23 -30 -3 -30 8 0 15 -5
15 -10 0 -13 -30 -6 -140 31 -71 23 -233 74 -353 109 -16 5 -25 5 -22 0 3 -5
59 -26 123 -46 293 -91 392 -130 391 -154 0 -10 -2 -11 -6 -2 -12 29 -23 8
-23 -44 l0 -57 -252 5 c-139 3 -264 1 -278 -3 -14 -4 52 -8 145 -9 94 -1 217
-5 275 -9 l105 -6 0 -85 0 -84 -50 -17 c-27 -9 -130 -42 -227 -74 -97 -31
-185 -63 -195 -71 -22 -16 -13 -14 257 73 102 33 192 62 200 64 12 3 16 -11
18 -83 l3 -87 -180 -120 c-98 -66 -182 -125 -186 -132 -11 -17 21 2 195 117
86 57 160 104 163 104 11 0 8 -266 -3 -295 -5 -14 -37 -62 -70 -107 -33 -44
-58 -84 -55 -87 4 -3 9 -1 13 5 53 75 116 154 123 154 5 0 9 -26 9 -57 0 -121
32 -231 92 -315 26 -38 12 -35 -47 10 -27 20 -66 44 -85 54 -19 9 -74 49 -122
90 -136 115 -200 195 -281 348 -162 306 -194 611 -101 942 14 50 35 111 48
137 13 25 36 72 52 104 15 33 36 64 46 70 10 7 18 19 18 29 0 38 208 262 300
322 30 20 57 36 60 36 3 0 6 -105 7 -232z m1543 -19 c36 -5 72 -11 81 -12 19
-3 71 -53 87 -84 48 -90 88 -272 62 -288 -8 -5 -8 -11 1 -21 16 -20 12 -107
-6 -151 -9 -20 -13 -38 -10 -41 2 -3 9 7 14 22 6 14 12 26 14 26 6 0 2 -145
-5 -150 -3 -3 -3 -23 1 -45 4 -22 6 -65 4 -95 -7 -127 -3 -379 6 -356 5 13 10
16 15 8 7 -13 -30 -172 -45 -187 -5 -5 -9 -15 -9 -22 0 -45 -133 -271 -178
-306 -10 -6 -24 -25 -32 -41 -17 -32 -169 -176 -270 -255 -64 -51 -191 -121
-218 -121 -9 0 -12 7 -9 20 3 11 1 18 -4 14 -5 -3 -9 1 -9 8 -1 7 -9 31 -20
53 -25 52 -25 62 3 70 37 11 138 66 217 118 76 51 240 202 240 221 0 6 14 28
30 50 30 39 58 49 130 48 14 -1 36 7 49 17 24 18 24 18 -30 14 -30 -3 -58 -9
-63 -14 -6 -5 -18 -9 -29 -9 -17 0 -17 3 5 42 21 38 51 62 142 114 24 13 30
14 38 2 8 -10 9 -10 6 2 -3 8 1 26 9 40 11 21 11 25 -2 28 -8 2 -15 8 -15 13
0 5 -4 9 -9 9 -4 0 -6 -11 -4 -24 4 -20 -5 -31 -51 -65 -30 -23 -60 -41 -66
-41 -6 0 -2 16 9 38 10 20 29 70 41 110 14 42 28 72 36 72 8 0 13 9 11 22 -1
16 3 23 17 23 11 0 21 6 24 14 3 9 0 11 -7 7 -7 -4 -18 -5 -25 -3 -12 5 -12
17 0 74 30 147 18 413 -28 590 -5 23 -7 46 -3 52 3 7 -2 19 -13 29 -10 9 -29
41 -40 70 -31 76 -108 202 -161 263 -40 46 -43 52 -21 45 14 -4 54 -11 90 -17z
m-1408 -239 c22 -41 66 -113 99 -160 95 -135 96 -136 98 -197 1 -44 -1 -54
-11 -46 -7 5 -42 32 -78 59 -36 27 -88 65 -116 84 l-51 35 -6 150 c-2 82 -8
159 -12 170 l-8 20 22 -20 c13 -11 41 -54 63 -95z m325 -334 c18 -60 30 -113
25 -118 -15 -15 -37 1 -66 49 -25 42 -28 57 -32 157 l-4 111 22 -45 c11 -25
36 -94 55 -154z m1402 -13 c14 -153 12 -313 -6 -405 -7 -40 -16 -88 -20 -105
-3 -18 -9 -33 -13 -33 -12 0 -20 72 -10 85 5 6 8 43 8 83 -1 40 1 74 4 77 4 4
1 234 -4 285 -1 8 0 49 1 90 1 64 3 73 15 58 7 -10 18 -71 25 -135z m-2461 85
c-5 -29 -13 -88 -18 -132 -10 -85 -16 -100 -26 -70 -13 34 -45 74 -56 68 -5
-4 -2 -15 10 -28 11 -11 23 -31 27 -43 3 -13 11 -23 16 -23 13 0 11 -38 -2
-42 -6 -2 -13 -17 -15 -33 -1 -16 -8 -31 -13 -33 -6 -2 -11 -10 -11 -18 0 -25
-40 -96 -52 -92 -20 7 -34 38 -21 46 8 5 9 21 3 50 -4 25 -3 45 2 48 5 3 2 14
-8 25 -13 14 -15 27 -9 56 9 46 14 77 18 121 5 49 25 64 33 24 7 -33 20 -49
31 -38 4 4 1 12 -5 18 -18 18 -14 49 6 55 9 3 33 25 52 48 19 24 38 44 41 44
3 1 2 -23 -3 -51z m702 -3 c7 -9 50 -41 94 -72 102 -71 136 -102 136 -125 0
-22 6 -23 -82 7 -40 14 -81 28 -91 30 -10 2 -33 10 -52 17 l-35 12 0 73 c0 73
7 86 30 58z m98 -197 c77 -27 127 -49 133 -61 9 -17 5 -18 -73 -15 l-83 3 -4
35 -4 35 -6 -35 c-5 -31 -10 -35 -40 -38 -18 -2 -38 1 -43 6 -12 12 -23 112
-12 112 5 0 65 -19 132 -42z m211 -22 c9 -11 10 -20 1 -35 -6 -12 -8 -21 -4
-21 3 0 1 -7 -6 -15 -9 -11 -9 -15 -1 -15 7 0 11 -6 9 -12 -5 -29 15 -92 34
-107 19 -16 19 -19 5 -61 -8 -25 -18 -59 -21 -76 -4 -17 -18 -57 -32 -90 -21
-48 -24 -53 -20 -24 3 19 8 60 11 90 4 30 8 66 11 79 4 16 1 22 -8 19 -10 -4
-13 10 -12 61 0 37 4 72 8 79 4 7 2 12 -4 12 -10 0 -7 76 4 88 3 2 1 13 -5 23
-12 23 12 27 30 5z m180 -16 c42 -21 51 -36 51 -82 0 -22 -11 -41 -38 -68 -38
-38 -38 -38 -86 -27 -42 9 -51 16 -63 46 -21 49 -4 105 40 131 40 25 49 25 96
0z m-261 -87 c3 -19 -5 -25 -68 -44 -80 -24 -90 -20 -90 34 0 16 -4 26 -9 23
-4 -3 -5 -24 -1 -46 7 -40 6 -41 -27 -55 -63 -27 -68 -25 -67 25 4 102 -13 91
132 88 122 -3 127 -4 130 -25z m450 -3 c40 0 42 -1 42 -31 0 -28 -3 -31 -22
-25 -63 18 -79 15 -30 -5 50 -21 52 -23 52 -61 l0 -39 -47 37 c-70 55 -73 57
-73 47 0 -5 22 -25 50 -46 70 -52 80 -71 70 -132 -4 -27 -3 -61 2 -76 5 -15 8
-51 6 -80 l-3 -54 -53 103 c-52 102 -76 135 -47 65 17 -41 85 -165 94 -173 3
-3 7 -34 9 -70 1 -36 5 -81 8 -100 12 -78 -18 -5 -96 229 -44 134 -79 246 -76
249 3 3 13 -12 21 -33 9 -20 19 -35 21 -32 9 9 -43 102 -55 100 -6 -2 -11 2
-11 8 0 6 10 9 23 7 23 -5 23 -7 29 80 2 38 5 42 23 38 11 -3 39 -6 63 -6z
m-456 -80 c-2 -16 -8 -30 -12 -30 -4 0 -17 -9 -30 -20 -12 -11 -46 -34 -74
-52 -28 -18 -53 -35 -56 -38 -12 -15 -81 -62 -84 -59 -3 2 -6 33 -7 69 l-3 65
38 19 c48 24 196 75 217 76 12 0 14 -7 11 -30z m-1179 -21 c30 -16 37 -28 37
-69 0 -19 9 -72 19 -117 l18 -83 -24 -22 c-16 -15 -23 -33 -23 -57 0 -49 8
-57 59 -66 41 -7 44 -10 68 -64 14 -31 42 -93 64 -138 21 -45 39 -85 39 -88 0
-4 -9 -18 -20 -32 -50 -64 4 -137 85 -115 28 8 37 2 127 -77 53 -47 97 -92 97
-98 1 -7 8 -13 16 -13 8 0 19 -8 24 -19 6 -10 22 -22 36 -25 44 -11 26 -46
-24 -46 -24 0 -64 43 -51 56 6 6 6 15 -1 24 -8 13 -11 12 -24 -4 -18 -23 -11
-52 18 -83 29 -32 99 -32 121 -1 l15 21 43 -19 c23 -10 76 -38 117 -61 41 -24
81 -43 89 -43 10 0 13 -7 9 -22 -11 -50 -89 -327 -109 -390 l-22 -67 -65 -3
c-60 -3 -66 -5 -69 -26 -7 -48 -47 -33 -134 47 -21 19 -38 32 -38 28 0 -39
-189 149 -277 275 -131 189 -188 340 -243 642 -17 88 -19 120 -11 126 9 5 9
18 1 51 -25 103 -24 589 2 589 5 0 19 -5 31 -11z m107 -44 c0 -7 8 -11 18 -9
10 3 39 -13 71 -39 41 -33 57 -54 67 -88 19 -61 19 -61 -22 -53 -27 5 -35 4
-30 -5 4 -6 15 -11 25 -11 24 0 60 -35 67 -68 4 -15 15 -44 25 -64 24 -47 24
-51 -2 -38 -32 18 -34 4 -2 -15 22 -13 90 -103 111 -147 4 -9 -58 21 -78 37
-16 13 -50 16 -50 5 0 -8 32 -23 75 -37 l30 -9 0 -86 c0 -47 3 -90 8 -94 4 -4
7 -1 8 7 0 8 1 47 2 88 l1 73 21 -25 c11 -13 40 -50 64 -81 24 -31 66 -77 93
-102 49 -45 57 -65 21 -46 -10 5 -49 12 -87 16 -92 9 -124 24 -170 80 -30 37
-36 50 -25 56 10 7 7 11 -13 19 -23 9 -98 116 -98 140 0 4 15 6 33 5 l32 -3
-33 8 c-39 10 -35 6 -61 60 -24 50 -27 91 -8 91 7 0 3 8 -8 18 -29 24 -49 67
-42 91 3 12 1 19 -4 15 -14 -8 -28 39 -36 118 -4 44 -11 72 -20 75 -7 3 -13
14 -13 24 0 12 5 16 15 13 8 -4 15 -12 15 -19z m1074 -17 c-2 -18 -10 -37 -17
-43 -8 -5 -28 -37 -46 -70 -18 -33 -48 -76 -68 -97 -21 -21 -32 -41 -28 -48 5
-8 17 -1 36 22 15 18 28 27 29 21 0 -24 20 -13 20 10 0 29 32 96 38 79 2 -7 8
-9 14 -6 6 4 5 9 -3 15 -10 6 -10 13 -1 35 7 14 16 24 19 20 13 -13 10 -111
-5 -135 -13 -22 -13 -24 4 -17 16 6 17 5 6 -6 -11 -11 -16 -10 -28 6 -13 19
-14 19 -14 -8 0 -17 4 -25 11 -20 12 7 2 -57 -10 -66 -4 -3 -15 -23 -25 -45
-10 -22 -27 -57 -37 -78 -10 -21 -19 -48 -19 -62 0 -13 -4 -26 -9 -29 -5 -4
-9 14 -9 38 0 25 -5 53 -11 63 -8 14 -10 10 -8 -22 2 -22 0 -52 -4 -67 -4 -16
-3 -28 3 -30 8 -3 7 -16 -1 -41 -15 -43 -37 -52 -26 -9 4 15 7 69 6 120 -1 65
3 101 14 121 9 18 12 41 9 60 -7 35 -29 41 -37 11 -14 -54 -37 0 -37 88 0 30
-3 43 -10 36 -8 -8 -2 -106 10 -149 5 -21 -1 -43 -13 -48 -11 -4 -14 15 -16
93 -2 105 1 111 58 148 22 15 108 77 176 127 28 22 33 19 29 -17z m289 -10 c4
-43 27 -110 111 -343 24 -66 53 -149 64 -185 11 -36 39 -117 62 -180 22 -63
52 -151 66 -195 74 -230 207 -610 243 -687 11 -26 21 -50 21 -53 0 -3 -14 -5
-32 -3 l-32 3 -141 425 c-78 234 -158 475 -178 535 -19 61 -56 171 -81 245
-25 74 -59 182 -77 240 -17 58 -42 131 -56 163 -25 61 -24 77 7 77 14 0 19
-10 23 -42z m-103 25 c0 -5 -4 -24 -9 -43 -5 -19 -21 -82 -35 -140 -38 -151
-64 -243 -97 -340 -15 -47 -38 -123 -49 -170 -23 -91 -66 -232 -81 -265 -5
-11 -11 -32 -13 -47 -3 -15 -7 -32 -11 -38 -3 -5 -10 -31 -15 -58 -4 -26 -16
-72 -25 -102 -25 -83 -95 -379 -102 -427 -4 -32 -10 -43 -23 -43 -10 0 -32 -3
-50 -7 -30 -6 -33 -4 -25 13 21 49 54 151 55 166 0 19 33 123 55 173 31 74
120 355 200 635 30 107 62 211 70 230 7 19 34 114 59 210 66 251 69 260 83
260 7 0 13 -3 13 -7z m50 -91 c0 -9 22 -84 50 -167 52 -159 59 -179 128 -374
24 -68 40 -127 35 -131 -17 -15 -78 -30 -122 -30 -53 0 -153 43 -188 81 -12
13 -31 45 -43 71 -23 53 -20 78 25 218 35 108 83 279 90 322 7 37 25 44 25 10z
m1508 -214 c1 -24 2 -52 4 -63 1 -11 -2 -63 -7 -115 -8 -94 -8 -116 -3 -155 2
-11 -2 -19 -8 -18 -7 1 -10 -6 -7 -17 3 -11 0 -26 -6 -33 -6 -8 -8 -16 -6 -19
6 -6 -43 -149 -56 -162 -6 -6 -9 -2 -10 10 -2 31 2 49 14 56 8 5 8 8 -2 8 -11
0 -11 4 2 18 10 10 17 26 17 35 0 9 5 19 10 22 6 3 10 11 10 16 0 6 -4 7 -10
4 -5 -3 -10 1 -10 10 0 9 4 14 8 11 5 -3 8 16 6 42 -1 26 3 50 9 54 11 7 21
48 11 48 -20 0 -46 -50 -50 -97 -2 -18 -9 -42 -16 -55 -7 -13 -12 -27 -13 -31
0 -4 -5 -11 -10 -15 -6 -4 -12 -20 -13 -37 -2 -16 -8 -34 -13 -40 -6 -6 -9 17
-7 63 2 39 7 72 11 72 5 0 5 -9 2 -20 -3 -11 -4 -20 -1 -20 11 0 36 59 35 82
l0 23 -9 -22 c-5 -13 -17 -23 -26 -23 -13 0 -14 3 -4 15 6 8 9 19 5 25 -4 6
-3 9 2 8 17 -5 52 23 47 37 -4 8 -1 15 7 15 7 0 10 3 7 6 -4 3 0 17 7 31 7 14
11 32 7 41 -4 11 -1 14 11 9 12 -4 14 -2 10 10 -3 8 0 19 7 23 8 5 9 9 1 14
-6 4 -11 2 -11 -3 0 -6 -4 -11 -9 -11 -5 0 -7 15 -6 33 4 48 4 49 15 42 6 -3
11 4 11 17 2 32 2 31 -6 56 -5 16 -2 22 9 22 9 0 16 5 16 10 0 6 4 10 8 10 5
0 10 -19 10 -42z m-164 -5 c-4 -21 -8 -64 -9 -96 0 -31 -6 -62 -13 -69 -16
-16 -15 -23 3 -41 12 -12 12 -20 2 -41 -7 -14 -16 -26 -20 -26 -5 0 -6 -8 -3
-17 3 -10 -4 -34 -14 -53 l-20 -35 2 43 c1 24 8 48 15 54 10 8 10 14 3 23 -8
9 -8 15 0 20 5 3 10 1 10 -5 0 -7 5 -6 14 2 18 17 10 31 -14 23 -13 -4 -20 2
-28 24 -7 19 -7 33 -1 36 5 4 6 17 3 30 -6 25 20 131 38 153 6 6 17 12 25 12
12 0 14 -7 7 -37z m-1598 -38 c-4 -16 -2 -25 5 -25 28 0 -10 -173 -85 -388
-20 -57 -36 -111 -36 -120 0 -10 -8 -26 -17 -37 -11 -14 -14 -15 -10 -4 3 9 1
21 -5 27 -12 12 -47 109 -48 132 0 8 11 36 25 62 14 26 25 54 25 61 0 8 6 17
13 20 10 4 11 -8 4 -57 -5 -33 -12 -68 -15 -76 -5 -15 -6 -36 -3 -79 1 -30 14
-19 19 17 2 14 7 31 12 37 4 5 11 28 15 50 4 22 12 48 17 58 11 22 15 103 5
113 -4 4 -7 -1 -7 -11 0 -10 -3 -15 -6 -12 -4 3 1 22 10 41 9 19 16 42 16 52
0 26 53 164 63 164 5 0 6 -11 3 -25z m1461 -285 c14 0 15 -12 9 -83 -4 -45
-14 -107 -22 -137 -8 -30 -21 -77 -29 -105 -28 -102 -122 -313 -176 -395 -31
-47 -79 -111 -108 -142 -50 -55 -191 -168 -208 -168 -4 0 -18 24 -30 53 -28
68 -133 390 -133 409 0 8 25 27 56 42 63 31 124 45 124 28 0 -16 54 -42 88
-42 16 0 37 9 47 20 17 18 17 21 1 45 -16 24 -16 25 4 25 11 0 20 7 20 15 0
15 -10 19 -42 16 -50 -5 -5 60 96 138 52 40 56 42 105 35 42 -5 55 -3 71 11
26 24 25 34 -5 45 -28 11 -45 42 -27 48 7 2 19 20 28 40 19 46 84 114 102 107
8 -3 21 -5 29 -5z m-1363 -82 c-3 -4 7 -23 21 -42 15 -19 26 -43 25 -53 -1
-10 -2 -31 -1 -48 1 -23 3 -27 11 -15 8 12 10 10 10 -8 0 -33 -18 -62 -34 -56
-8 3 -17 1 -21 -5 -3 -6 1 -11 9 -11 19 0 19 1 5 -39 -11 -31 -14 -32 -48 -26
-20 4 -50 15 -68 26 -32 20 -32 20 -17 57 8 20 19 46 25 57 5 11 11 32 13 46
1 13 5 29 8 34 3 6 11 46 18 90 l14 80 17 -40 c10 -21 15 -43 13 -47z m-818
-67 c5 -5 43 -13 84 -19 87 -13 110 -32 110 -92 0 -21 3 -45 6 -54 10 -27 -15
-18 -79 28 -58 41 -147 126 -147 140 0 9 15 7 26 -3z m1172 -86 c-30 -57 -122
-149 -157 -158 -29 -7 -26 5 7 36 56 54 72 73 72 85 0 7 4 12 8 12 12 0 52 39
52 50 0 15 -61 -11 -68 -29 -14 -32 -67 -100 -79 -101 -7 0 -13 -4 -13 -10 0
-5 -4 -10 -8 -10 -15 0 -4 84 12 96 9 6 16 19 16 28 0 12 9 16 35 16 19 0 35
5 35 10 0 6 8 10 18 10 9 1 33 9 52 18 19 10 38 14 41 9 3 -5 -7 -33 -23 -62z
m-914 32 c45 -34 224 -133 269 -148 34 -12 38 -17 34 -39 -9 -46 -30 -115 -37
-123 -9 -10 -250 99 -250 113 0 7 116 35 142 35 10 0 17 5 15 10 -3 13 -77 9
-90 -4 -6 -6 -30 -11 -54 -11 -33 0 -46 5 -57 23 -16 25 -32 140 -21 156 9 15
14 14 49 -12z m1032 -224 c4 -16 10 -32 14 -38 4 -5 10 -22 14 -37 3 -14 9
-33 12 -41 4 -12 -8 -18 -53 -27 -32 -6 -92 -19 -133 -28 -79 -17 -293 -23
-342 -9 -32 8 -36 25 -10 34 9 3 31 17 49 29 17 13 44 29 59 34 15 6 24 13 21
16 -8 8 -121 -54 -153 -83 -22 -21 -32 -23 -76 -17 -29 4 -52 13 -55 21 -3 8
2 41 12 74 18 58 19 59 49 54 80 -14 175 -25 218 -25 26 0 50 -5 53 -11 5 -7
11 -5 18 4 7 9 54 22 117 32 58 10 119 23 135 30 42 19 44 18 51 -12z m65
-206 c4 -15 3 -29 -2 -33 -5 -3 -9 2 -9 10 0 9 -4 16 -10 16 -6 0 -5 -10 2
-25 6 -14 17 -25 23 -25 16 0 29 -30 81 -188 25 -73 47 -138 49 -145 4 -9
-102 -13 -486 -15 l-491 -2 5 22 c3 13 18 75 32 138 14 63 35 132 46 152 10
20 19 44 19 52 0 9 5 16 10 16 6 0 10 5 10 11 0 5 -4 7 -10 4 -5 -3 -10 -2
-10 3 0 25 309 -11 318 -37 2 -6 12 -7 27 -1 15 6 27 6 30 0 9 -15 25 -12 25
3 0 9 29 20 83 31 117 24 230 44 241 41 6 -1 13 -13 17 -28z m282 -449 c-2 -5
-8 -8 -14 -8 -5 0 -37 -13 -71 -29 -35 -16 -94 -39 -133 -51 -76 -24 -78 -24
-145 -34 -244 -37 -291 -46 -285 -55 10 -16 -115 -10 -420 20 -99 10 -120 16
-210 59 -127 60 -154 90 -91 102 40 7 1374 3 1369 -4z m128 -5 c0 -5 2 -45 3
-89 l3 -81 -189 2 c-104 2 -192 5 -194 8 -3 3 13 8 35 12 22 4 45 13 52 21 6
8 15 14 20 14 8 0 211 93 239 110 19 11 30 12 31 3z m-1547 -82 c28 -16 83
-39 121 -51 39 -12 74 -26 78 -30 4 -4 -54 -6 -129 -5 l-137 3 -3 56 c-1 33 2
56 8 56 6 0 34 -13 62 -29z"/>
<path d="M13260 7957 c0 -33 -2 -36 -17 -28 -10 5 -67 10 -128 12 -108 4 -110
4 -113 -18 -3 -23 -3 -23 132 -23 119 0 136 -2 145 -17 5 -10 9 -22 9 -27 -1
-4 15 -29 35 -55 19 -26 44 -66 55 -87 11 -22 28 -46 36 -53 26 -22 20 13 -10
60 -14 23 -23 43 -20 46 2 3 -13 28 -35 55 -21 27 -42 61 -45 75 -4 14 -15 41
-25 61 l-18 37 -1 -38z"/>
<path d="M5370 7929 c-25 -17 -62 -47 -83 -67 -29 -28 -40 -34 -46 -23 -6 9
-11 10 -15 2 -4 -6 -5 -15 -2 -20 6 -9 -99 -113 -150 -148 -16 -12 -43 -25
-58 -29 -22 -5 -25 -9 -14 -15 13 -7 13 -18 5 -61 -12 -63 -13 -882 -2 -1528
10 -646 11 -1393 2 -1760 -4 -173 -10 -377 -12 -452 -2 -81 1 -136 6 -132 5 3
9 -6 9 -20 0 -14 -4 -26 -10 -26 -5 0 -10 -25 -10 -56 0 -34 4 -53 10 -49 13
8 13 4 11 -396 -2 -233 1 -349 8 -353 5 -4 8 -13 4 -21 -3 -8 0 -15 6 -15 6 0
11 9 11 20 0 17 4 19 28 13 15 -4 86 -8 157 -8 72 0 132 -3 135 -7 6 -8 448
-12 470 -4 76 26 183 35 195 15 5 -7 13 -4 26 7 10 9 16 20 14 24 -2 4 5 16
16 26 12 11 42 48 67 84 55 78 149 192 168 203 8 4 13 20 13 35 -1 17 -3 20
-6 10 -2 -10 -9 -18 -15 -18 -7 0 -8 23 -3 68 8 73 9 186 1 242 -6 43 -4 -14
-10 398 -3 236 -1 350 6 346 14 -9 85 -165 99 -217 6 -23 28 -94 49 -157 21
-63 69 -209 105 -325 153 -484 219 -681 232 -696 21 -25 16 -29 -44 -29 -38
-1 -53 -4 -43 -9 8 -5 170 -11 360 -13 189 -1 331 -1 315 3 -38 7 240 23 410
24 l130 0 20 -37 c11 -21 22 -38 25 -38 8 0 4 86 -5 99 -4 7 12 36 36 67 50
65 67 78 45 35 -9 -17 -20 -31 -24 -31 -4 0 -12 -11 -19 -25 -6 -14 -7 -25 -2
-25 5 0 9 3 9 8 0 4 12 20 28 37 15 16 32 38 37 50 7 12 21 20 37 20 15 1 31
5 35 10 4 4 0 5 -9 2 -31 -11 -41 18 -18 54 11 19 30 53 42 77 14 27 27 41 36
37 22 -8 7 38 -54 174 -29 67 -54 127 -54 132 0 5 -13 38 -29 72 -25 56 -60
143 -207 512 -24 61 -50 133 -59 160 -9 28 -20 59 -25 70 -13 31 -40 105 -57
155 -8 25 -21 59 -28 75 -16 38 -65 196 -65 211 0 10 -21 62 -135 332 -12 29
-25 55 -28 59 -4 3 -2 12 4 19 7 8 7 14 -1 19 -5 3 -10 -1 -10 -9 0 -21 -16
-20 -24 0 -7 19 20 54 41 54 7 0 13 5 13 10 0 12 80 103 184 210 77 79 97 105
140 183 18 31 22 47 14 47 -7 0 -18 -10 -24 -23 -30 -59 -89 -148 -116 -173
l-31 -29 34 50 c44 65 129 208 129 217 0 5 5 8 11 8 6 0 8 -9 4 -20 -3 -11 -2
-20 3 -20 8 0 32 64 37 100 1 8 5 22 8 30 42 120 62 236 72 425 3 61 10 166
16 234 6 81 7 127 0 134 -6 6 -6 19 0 35 8 21 7 29 -7 39 -12 8 -13 13 -5 13
13 0 12 19 -5 116 -8 48 -64 216 -89 269 -31 67 -42 111 -25 100 14 -9 14 -8
-23 65 -36 71 -51 94 -114 179 -29 38 -45 67 -35 64 21 -9 -12 38 -60 84 -102
98 -365 249 -528 304 -36 12 -72 28 -81 36 -12 10 -18 11 -21 3 -3 -11 -65 2
-248 50 -71 18 -249 33 -385 32 -557 -5 -913 -7 -905 -4 12 4 14 22 3 22 -5 0
-28 -14 -53 -31z m495 -34 c39 -2 174 0 300 4 257 8 413 -3 528 -39 37 -12 78
-18 90 -15 17 5 18 4 8 -4 -16 -11 -5 -17 74 -40 41 -13 48 -15 123 -46 51
-22 67 -14 18 9 -43 20 -59 41 -25 31 101 -29 241 -93 403 -184 103 -59 184
-135 243 -230 26 -42 57 -89 69 -106 21 -29 36 -65 39 -95 1 -8 9 -40 19 -70
10 -30 19 -61 22 -68 2 -7 2 -14 1 -16 -1 -1 4 -10 11 -19 8 -9 11 -20 8 -26
-3 -5 -3 -11 1 -13 18 -8 45 -73 58 -140 8 -40 19 -93 24 -118 6 -25 13 -79
16 -120 3 -41 7 -97 10 -123 7 -56 -4 -209 -15 -227 -4 -7 -12 -10 -17 -7 -6
4 -5 31 2 72 7 38 9 68 4 71 -5 3 -6 11 -2 17 10 16 11 47 2 52 -4 3 -5 23 -2
45 5 32 2 40 -10 40 -8 0 -17 6 -20 13 -3 7 -9 1 -15 -14 -6 -15 -18 -29 -27
-33 -9 -3 -15 -12 -12 -19 2 -6 -2 -20 -11 -29 -8 -10 -11 -18 -5 -18 13 0 45
35 38 42 -3 3 1 11 10 18 18 15 17 20 19 -100 1 -70 -2 -87 -16 -98 -24 -17
-25 -77 -2 -68 10 4 14 1 11 -6 -2 -7 -11 -12 -18 -11 -9 2 -15 -5 -15 -17 0
-15 5 -18 18 -14 10 3 18 1 18 -5 0 -6 -6 -11 -12 -11 -9 0 -10 -2 -2 -8 14
-9 0 -52 -16 -52 -7 0 -11 -18 -10 -47 3 -80 2 -87 -13 -74 -8 6 -16 8 -19 5
-3 -2 -8 2 -11 11 -4 8 -2 15 4 15 5 0 7 11 3 26 -4 17 -2 29 7 35 11 7 12 11
1 17 -9 6 -10 16 -3 34 7 18 6 29 -2 38 -10 10 -8 12 7 6 14 -5 16 -3 9 6 -12
15 -11 13 -18 126 -3 60 -1 82 8 82 7 0 4 5 -5 11 -9 5 -15 15 -12 22 2 8 -7
26 -21 41 -13 15 -24 30 -23 34 1 4 -4 20 -10 35 -7 16 -12 40 -12 55 0 15 -4
44 -9 65 -6 26 -6 37 3 37 6 0 4 5 -4 10 -9 5 -17 25 -18 44 -5 75 -82 244
-162 357 -28 38 -50 72 -50 75 0 3 -7 12 -15 20 -8 9 -15 12 -15 9 0 -4 -39
30 -87 75 -145 134 -300 229 -463 285 -96 33 -316 82 -425 95 -120 15 -546 21
-665 10 -106 -10 -681 -32 -686 -27 -2 2 14 17 35 33 62 47 161 132 224 191
l58 56 192 -8 c106 -4 224 -8 262 -10z m461 -280 c282 -31 433 -66 621 -143
67 -27 139 -63 160 -79 21 -16 64 -47 96 -67 54 -36 207 -195 207 -216 0 -5
11 -20 25 -34 14 -14 25 -29 25 -34 0 -6 12 -17 26 -27 19 -12 23 -19 14 -25
-10 -6 -9 -10 2 -16 36 -22 110 -246 139 -419 4 -27 12 -65 18 -84 11 -35 11
-52 0 -61 -15 -11 -14 -70 1 -70 5 0 7 7 4 15 -4 8 -1 15 5 15 13 0 10 -438
-3 -480 -5 -14 -8 -40 -8 -58 1 -42 -15 -85 -28 -77 -6 4 -7 12 -4 18 5 9 4 9
-6 0 -10 -9 -10 -15 4 -28 9 -9 14 -20 12 -24 -3 -4 -7 -18 -10 -32 -12 -58
-61 -188 -108 -284 -57 -117 -105 -183 -178 -242 -78 -64 -236 -173 -251 -173
-6 0 -8 -4 -5 -8 7 -12 -28 -49 -56 -58 -21 -8 -20 -9 11 -14 31 -5 36 -11 78
-105 62 -139 145 -345 177 -438 15 -43 70 -179 122 -302 95 -226 117 -291 65
-200 -63 110 -403 748 -461 865 -58 116 -275 510 -325 590 -59 94 -165 310
-153 310 22 0 114 149 137 220 34 110 44 189 42 348 -1 171 -13 232 -65 346
-33 71 -81 129 -166 200 -41 34 -42 36 -11 21 18 -9 30 -12 26 -6 -3 6 -25 21
-48 32 -23 12 -45 27 -49 33 -4 6 -13 11 -20 11 -7 1 -26 7 -43 15 -39 18
-163 22 -250 9 -39 -5 -89 -13 -112 -16 -24 -3 -43 -8 -43 -12 0 -4 13 -6 28
-3 l28 4 0 -609 c-1 -334 1 -630 3 -658 2 -27 0 -58 -4 -67 -11 -26 26 -31
156 -19 139 12 191 28 291 85 l77 44 47 -92 c26 -50 92 -171 146 -270 55 -98
136 -249 180 -335 107 -207 214 -406 308 -571 43 -74 128 -229 190 -345 62
-115 123 -226 135 -245 12 -19 43 -89 69 -155 160 -402 172 -435 162 -435 -3
0 -104 197 -224 438 -121 240 -257 507 -302 592 -186 348 -258 485 -362 690
-61 118 -114 220 -120 225 -21 23 145 -308 357 -710 78 -148 279 -542 445
-875 167 -333 312 -617 322 -632 10 -14 18 -34 18 -45 0 -18 -29 -20 -262 -14
-16 1 -28 7 -28 14 0 6 -9 23 -20 37 -27 35 -25 64 5 78 28 13 33 37 10 46 -9
3 -21 -4 -31 -19 -19 -30 -34 -24 -34 13 0 15 -22 67 -48 117 -63 119 -101
144 -234 156 -99 9 -232 -2 -271 -22 -12 -7 -51 -42 -85 -78 l-64 -66 5 -125
c3 -69 8 -138 12 -155 36 -150 -160 418 -295 855 -22 74 -48 153 -55 175 -32
89 -85 286 -86 317 -1 18 -5 47 -10 63 -6 23 -7 16 -4 -27 2 -32 0 -58 -5 -58
-8 0 -82 146 -94 186 -8 26 -16 296 -9 307 2 4 12 2 20 -5 13 -10 15 -9 12 7
-3 13 -14 21 -33 23 l-29 4 6 -127 c8 -150 2 -155 -59 -41 -24 45 -66 103
-100 137 -54 55 -60 58 -68 39 -5 -11 -16 -20 -23 -20 -12 0 -13 -9 -7 -42 4
-24 6 -434 6 -913 l-1 -870 -134 -3 -134 -3 5 26 c3 19 -3 34 -20 53 -13 15
-39 51 -58 80 -49 74 -87 90 -230 98 -144 8 -212 -4 -273 -51 -32 -25 -50 -48
-63 -82 -9 -27 -21 -52 -26 -58 -11 -13 -10 -45 2 -45 6 0 10 -4 10 -10 0 -20
-28 -9 -33 13 -2 12 -3 205 -2 428 l3 407 116 228 c156 307 244 475 260 494 7
8 19 31 26 50 7 19 27 60 45 90 70 121 86 150 81 150 -6 0 -62 -92 -121 -200
-28 -52 -95 -175 -148 -272 -53 -98 -126 -236 -162 -307 -35 -71 -74 -145 -85
-163 l-21 -33 7 70 c8 81 26 121 162 355 50 85 123 211 162 280 40 69 158 271
262 450 105 179 215 368 246 420 30 52 64 111 75 130 l20 35 -21 -20 c-11 -11
-64 -92 -118 -180 -229 -377 -270 -446 -334 -555 -37 -63 -91 -155 -120 -205
-30 -49 -111 -191 -181 -315 -70 -124 -135 -234 -143 -245 -21 -27 -21 -103
-11 1365 6 878 6 917 -1 1395 -3 209 -7 490 -8 625 -1 135 -4 251 -7 259 -7
22 39 29 126 19 75 -9 292 -4 535 12 194 12 491 10 626 -5z m34 -827 c90 -23
250 -209 294 -341 43 -130 47 -359 10 -508 -35 -138 -39 -141 -176 -180 -94
-26 -229 -25 -212 2 12 20 1 984 -12 1027 -7 25 -6 25 96 0z m-281 -492 c-2
-39 0 -77 5 -84 4 -6 4 -12 -1 -12 -7 0 -8 -20 -3 -85 1 -20 1 -20 9 0 4 11 7
34 5 52 -1 18 2 33 7 33 5 0 9 -4 9 -10 0 -5 5 -10 10 -10 15 0 12 30 -2 31
-10 0 -10 2 -1 6 7 2 20 -3 29 -11 21 -22 30 -14 32 30 2 39 12 58 19 37 7
-20 23 -15 17 5 -5 14 -4 15 5 2 15 -20 14 -30 -3 -30 -15 0 -26 -21 -26 -51
0 -10 -5 -19 -11 -19 -7 0 -6 -8 3 -22 13 -19 13 -25 -1 -50 -9 -15 -22 -28
-28 -28 -18 0 -16 -19 2 -26 8 -4 15 -15 15 -25 0 -12 -5 -16 -15 -12 -13 4
-16 -2 -14 -38 2 -24 7 -47 13 -51 7 -5 6 -8 -2 -8 -7 0 -10 -5 -6 -11 4 -7 8
-46 10 -88 1 -42 8 -89 14 -105 10 -27 7 -32 -36 -75 -25 -25 -53 -56 -61 -68
-22 -33 -30 -21 -28 39 1 29 3 76 4 103 2 28 2 120 2 205 0 168 5 316 12 328
3 4 2 15 -2 24 -9 26 -1 109 11 102 5 -3 8 -38 7 -78z m1164 -1363 c7 -16 45
-89 83 -163 38 -74 89 -178 113 -230 24 -52 60 -129 80 -170 19 -41 34 -81 33
-87 -4 -16 15 -17 20 -2 2 6 19 -4 38 -22 66 -65 120 -134 115 -146 -2 -7 -1
-13 4 -13 5 0 11 -10 15 -22 5 -18 8 -20 15 -9 7 10 14 1 30 -34 12 -26 21
-51 21 -56 0 -5 8 -24 17 -44 15 -31 15 -37 3 -45 -13 -8 -12 -10 2 -10 9 0
20 -10 23 -22 4 -13 20 -50 35 -83 115 -250 148 -337 118 -319 -7 4 -8 3 -4
-5 4 -6 11 -9 16 -6 4 3 13 -2 20 -10 7 -8 9 -15 6 -15 -4 0 -2 -10 5 -21 8
-16 8 -23 0 -29 -8 -5 -7 -17 5 -45 12 -30 18 -35 25 -24 7 10 8 7 4 -11 -5
-19 0 -31 19 -48 26 -22 36 -62 15 -62 -5 0 -9 8 -8 18 3 29 -1 38 -10 24 -6
-10 -21 9 -51 65 -24 43 -45 73 -47 67 -5 -14 83 -164 106 -180 8 -7 19 -10
23 -8 25 16 5 -16 -104 -163 -38 -51 -73 -104 -78 -119 -13 -34 -23 -24 -45
46 -10 30 -21 60 -25 65 -4 6 -10 19 -12 30 -3 11 -9 28 -13 38 -6 14 -4 16
11 10 18 -6 18 -5 3 13 -23 28 -99 187 -99 207 0 10 -11 39 -25 65 -14 26 -28
62 -31 79 -3 18 -10 33 -16 33 -5 0 -6 5 -3 11 4 5 -4 33 -18 62 -40 84 -96
222 -123 299 -14 40 -31 87 -39 103 -7 17 -39 93 -69 170 -31 77 -61 149 -66
160 -15 34 -70 191 -70 201 0 5 4 2 10 -6 21 -34 16 -1 -8 53 -15 33 -30 56
-33 52 -4 -3 -10 -1 -15 6 -4 8 -3 10 4 5 7 -4 12 -5 12 -1 0 12 -63 130 -74
137 -6 4 -7 8 -2 8 5 0 3 6 -3 13 -6 8 -8 17 -4 20 3 4 1 7 -5 7 -13 0 -60 97
-69 143 -5 24 -3 28 12 26 12 -3 22 -21 32 -59 7 -30 27 -79 43 -110 84 -157
171 -358 150 -345 -18 11 -11 -8 12 -32 12 -13 17 -23 11 -23 -6 0 -9 -9 -6
-21 4 -16 8 -17 14 -7 6 9 9 9 9 1 0 -6 -4 -15 -10 -18 -6 -4 -6 -12 0 -23 16
-28 60 -134 60 -144 0 -16 61 -140 66 -135 3 3 1 14 -5 25 -6 12 -11 27 -10
34 0 7 5 2 11 -12 6 -14 25 -54 41 -90 16 -36 38 -87 48 -113 27 -68 50 -110
56 -104 3 3 -4 23 -15 44 -11 21 -28 56 -37 78 -10 22 -28 62 -41 88 -12 26
-26 61 -29 77 -4 17 -15 36 -25 43 -10 7 -24 26 -31 42 -6 17 -18 46 -26 65
-8 19 -17 42 -21 50 -5 8 -5 29 -2 45 5 28 7 27 28 -31 12 -34 22 -66 22 -73
0 -6 4 -11 9 -11 11 0 2 34 -23 94 -9 21 -16 46 -16 55 0 9 -5 34 -11 55 -8
29 -13 35 -19 25 -6 -9 -4 -22 5 -36 8 -12 15 -26 15 -30 0 -10 -31 35 -34 50
-2 7 -13 34 -25 60 -19 41 -28 71 -33 106 -2 18 4 22 17 11 8 -7 12 -16 9 -21
-3 -5 2 -19 10 -31 9 -12 16 -32 16 -43 0 -11 5 -27 10 -35 9 -13 11 -13 20 0
5 8 10 20 10 25 0 6 -4 4 -9 -3 -7 -11 -10 -10 -15 3 -3 9 -3 21 0 27 4 6 1
14 -5 18 -11 6 -18 35 -20 78 -1 7 -6 10 -13 6 -8 -5 -9 -2 -4 11 4 10 3 21
-1 24 -5 3 -33 54 -63 113 -30 59 -63 122 -72 140 -9 18 -15 39 -13 46 2 6 0
12 -6 12 -6 0 -7 5 -4 10 9 15 12 13 28 -17z m264 -403 c12 -48 55 -120 72
-120 10 0 12 -3 5 -8 -8 -5 -4 -18 12 -42 13 -19 24 -29 24 -22 0 23 15 11 33
-27 9 -20 17 -42 17 -49 0 -6 7 -12 15 -14 17 -3 70 -108 55 -108 -5 0 -21 17
-35 38 -14 21 -50 60 -81 86 -42 37 -66 69 -96 130 -43 88 -79 191 -70 201 9
8 41 -35 49 -65z m-1315 -877 c4 -36 2 -50 -6 -46 -6 3 -5 0 2 -8 6 -7 12 -21
12 -30 0 -10 5 -21 10 -24 8 -5 9 9 4 42 -4 26 -8 86 -10 133 -1 47 -4 92 -5
100 -3 23 0 74 5 69 8 -8 15 -62 21 -159 3 -52 7 -102 10 -110 2 -8 6 -46 9
-85 2 -38 2 -62 -1 -52 -2 9 -9 17 -14 17 -5 0 -9 7 -9 15 0 8 -4 15 -9 15 -5
0 -8 -12 -8 -26 0 -18 2 -22 8 -13 5 8 9 12 10 9 0 -3 7 -32 14 -65 7 -33 11
-62 10 -63 -6 -7 -35 57 -35 76 0 11 -6 22 -13 25 -18 7 -26 85 -32 292 l-4
160 13 -110 c8 -60 16 -133 18 -162z m-47 51 c7 -133 20 -223 35 -238 6 -6 10
-22 10 -36 0 -14 9 -33 20 -43 11 -9 20 -29 21 -44 1 -62 11 -107 24 -117 7
-6 15 -27 16 -47 3 -36 -14 -67 -68 -124 -11 -11 -28 -33 -37 -48 -10 -15 -21
-27 -25 -27 -4 0 -7 25 -7 57 1 31 -4 58 -9 60 -7 2 -10 -24 -10 -69 1 -61 -3
-80 -25 -115 -27 -46 -47 -57 -35 -20 3 12 6 46 5 75 -1 37 2 52 10 47 6 -4 9
-21 6 -41 -3 -19 -2 -34 3 -34 5 0 12 39 15 88 7 121 7 110 6 380 -1 134 1
246 4 250 3 3 7 -17 8 -44 1 -27 3 -62 4 -79 1 -16 3 -102 4 -190 1 -88 6
-178 11 -200 5 -24 6 110 3 325 -5 360 0 465 11 234z m1215 -479 c26 -13 80
-78 80 -96 0 -4 -19 0 -42 8 -31 11 -88 14 -206 14 -90 0 -167 -3 -172 -6 -5
-3 -12 0 -17 7 -5 8 -12 -5 -19 -37 l-12 -50 -1 55 c-1 39 -4 51 -11 40 -8
-13 -10 -13 -10 2 0 23 20 34 31 17 6 -10 9 -6 9 13 0 15 5 30 11 34 43 26
307 26 359 -1z m32 -115 c21 -6 45 -22 56 -38 27 -39 53 -120 41 -128 -6 -3
-49 -3 -97 1 -48 3 -156 7 -240 8 -84 0 -156 5 -158 9 -3 5 0 42 7 83 l13 75
170 0 c94 0 188 -5 208 -10z m-1818 -69 c23 -9 27 -15 21 -34 -4 -12 -9 -35
-12 -50 -5 -28 -6 -28 -24 -8 -13 14 -38 21 -86 27 -73 7 -287 0 -317 -12 -17
-7 -17 -5 -2 23 15 31 41 46 111 63 50 12 270 5 309 -9z m1314 -122 c-10 -7
-9 -9 5 -9 9 0 27 10 38 21 16 16 23 18 29 9 15 -25 401 -37 550 -18 23 3 25
0 24 -40 -1 -31 2 -39 8 -28 13 24 30 19 26 -6 -3 -23 -4 -23 -253 -31 -137
-4 -276 -6 -308 -5 -31 2 -57 -1 -57 -5 0 -5 -10 -7 -22 -5 -16 2 -24 11 -26
30 -2 14 -10 32 -18 38 -17 15 -19 77 -1 83 17 6 22 -24 5 -34z m-1463 21 c60
-6 119 -17 130 -24 12 -8 26 -30 32 -51 l12 -36 -57 8 c-31 4 -142 7 -245 5
-178 -3 -187 -2 -178 15 5 10 15 32 21 50 11 29 17 32 59 36 93 7 118 7 226
-3z"/>
<path d="M6406 5398 c-16 -23 -22 -104 -8 -124 9 -14 129 -17 137 -3 5 7 11 6
21 -2 36 -29 60 32 33 84 -28 54 -50 67 -110 67 -48 0 -60 -4 -73 -22z"/>
<path d="M5993 5348 c-22 -28 -53 -98 -53 -122 0 -29 27 -60 44 -49 6 5 46 8
88 7 69 -1 78 2 84 19 12 38 5 101 -14 126 -16 22 -28 26 -79 29 -40 2 -63 -1
-70 -10z"/>
<path d="M6443 4783 l-45 -48 5 -95 c7 -162 52 -250 97 -189 13 16 22 20 36
14 18 -8 17 -9 -3 -12 -13 -3 -23 -9 -23 -14 0 -10 48 -13 183 -8 12 0 17 5
14 14 -7 16 33 29 47 15 6 -6 0 -13 -15 -19 -20 -9 -14 -10 31 -8 53 2 55 3
58 32 2 17 8 34 13 40 16 16 10 64 -15 113 -13 26 -21 53 -19 60 5 12 -25 54
-83 118 l-32 34 -103 0 -102 0 -44 -47z m298 -52 c39 -47 30 -51 -119 -51 -76
0 -141 3 -144 6 -3 3 -1 21 5 40 l11 36 114 -4 c106 -3 115 -5 133 -27z m61
-108 c11 -26 14 -49 9 -73 -6 -33 -9 -35 -50 -38 -24 -2 -49 2 -54 7 -6 6 -29
10 -51 10 l-41 -2 40 -7 40 -7 -53 -2 c-33 0 -51 3 -47 9 3 6 1 10 -4 10 -6 0
-11 -4 -11 -10 0 -6 -28 -10 -65 -10 -62 0 -65 1 -70 28 -3 15 -10 43 -15 63
-6 20 -10 39 -10 43 0 16 49 21 202 19 l163 -1 17 -39z"/>
<path d="M5623 4570 c-44 -10 -60 -25 -90 -83 -13 -27 -33 -52 -44 -54 -21 -6
-25 -19 -8 -25 6 -2 -2 -28 -20 -62 -37 -70 -38 -104 -7 -172 29 -61 53 -75
77 -42 17 22 21 23 153 20 105 -2 136 -6 136 -16 0 -32 72 -23 79 9 2 11 11
25 20 32 15 12 14 13 -1 7 -10 -3 -18 -2 -18 4 0 21 12 42 24 42 16 0 17 5 22
115 l5 90 -39 59 c-22 32 -50 65 -63 72 -26 15 -172 17 -226 4z m207 -76 c6
-6 13 -27 17 -47 l6 -37 -155 0 c-85 0 -157 3 -161 6 -6 6 22 75 35 84 13 10
247 5 258 -6z m100 -108 c0 -13 -9 -35 -20 -49 -11 -14 -20 -34 -20 -46 0 -23
-20 -73 -34 -82 -5 -4 -84 -10 -176 -14 -185 -8 -222 -1 -228 44 -3 20 -1 23
15 16 35 -14 53 -17 53 -8 0 5 -13 14 -30 20 -20 8 -30 18 -30 32 0 12 4 21 9
21 5 0 15 16 21 35 6 19 15 35 18 35 4 0 87 2 185 3 l177 2 1 -40 2 -40 10 48
c8 35 15 47 29 47 12 0 18 -7 18 -24z"/>
<path d="M8404 7949 c-2 -4 32 -9 76 -11 44 -3 83 -8 87 -11 4 -4 -38 -53 -93
-110 -55 -56 -114 -119 -131 -139 -21 -24 -38 -36 -47 -32 -14 5 -15 -69 -12
-702 3 -390 9 -783 15 -874 22 -319 13 -2919 -10 -2946 -5 -6 -6 -13 -3 -16 3
-3 7 -67 9 -142 2 -74 6 -140 10 -146 4 -6 -12 -10 -42 -11 -36 0 -43 -3 -28
-9 11 -5 33 -9 48 -9 18 -1 26 -5 21 -12 -4 -7 -22 -9 -45 -6 -22 3 -39 1 -39
-4 0 -5 20 -9 45 -9 29 0 45 -4 46 -12 1 -7 2 -22 3 -33 1 -11 3 -30 4 -42 1
-13 7 -23 13 -23 7 0 10 20 9 53 -2 28 -2 57 -1 62 1 6 78 10 209 11 709 2
947 2 1022 -2 202 -9 465 -12 380 -4 -47 4 -116 9 -155 9 -49 1 -65 4 -55 11
9 6 157 10 355 11 187 0 381 2 430 4 50 2 114 3 143 4 38 1 52 5 50 14 -3 7
-34 14 -84 18 l-79 5 96 2 c52 1 99 6 105 11 5 6 24 6 44 1 l35 -8 -35 -1
c-39 -1 -69 -16 -57 -28 14 -14 54 -13 66 1 7 8 22 12 34 9 17 -4 19 -3 7 6
-23 16 -7 23 62 26 43 3 70 -1 85 -11 28 -18 33 -18 33 1 0 9 9 15 21 15 12 0
19 5 16 13 -2 7 -16 11 -35 9 -18 -2 -32 1 -32 7 0 6 8 11 17 11 35 0 3 11
-43 15 -27 2 -78 9 -114 16 -36 7 -101 13 -144 13 -58 1 -81 5 -84 15 -4 11 8
13 69 7 41 -4 135 -9 209 -11 129 -3 133 -3 90 11 -25 8 -61 14 -80 13 -51 -2
-57 0 -40 11 8 5 50 9 93 8 43 -1 82 3 87 8 6 6 2 10 -13 10 -166 1 -249 6
-231 14 22 9 124 21 243 28 39 3 19 11 -39 17 -29 3 -78 9 -109 14 -31 5 -91
8 -133 7 -43 -1 -78 2 -78 6 0 4 16 19 35 34 73 55 155 178 227 339 28 63 81
219 93 276 4 19 11 39 15 44 5 6 11 28 13 50 3 22 10 58 16 80 6 22 20 92 31
155 12 63 26 133 33 155 17 57 12 391 -7 446 -3 8 -7 28 -10 44 -2 17 -11 66
-20 110 -8 44 -17 93 -20 108 -8 46 -24 87 -61 162 l-36 70 26 18 c14 10 25
23 25 28 0 12 -37 12 -45 -1 -10 -16 -20 -12 -37 18 -9 15 -25 37 -35 50 -77
99 -127 159 -138 168 -12 9 -6 17 30 42 24 17 52 43 62 59 10 15 23 33 30 38
21 17 63 78 63 92 0 7 -4 13 -10 13 -5 0 -10 -6 -10 -13 0 -19 -58 -85 -80
-92 -11 -4 -20 -13 -20 -21 0 -8 -5 -12 -10 -9 -7 4 -7 11 -2 18 13 16 11 48
-2 44 -6 -2 -11 -8 -11 -14 0 -13 -101 -123 -108 -117 -3 3 15 35 41 71 46 66
132 233 158 308 8 21 20 42 26 47 7 4 13 24 13 45 1 21 4 37 8 36 4 -2 11 -3
16 -3 11 0 9 -33 -3 -41 -14 -11 36 -34 76 -34 24 -1 46 -9 62 -24 20 -19 22
-26 12 -47 -6 -13 -15 -24 -19 -24 -5 0 -5 -5 -2 -11 4 -6 -7 -28 -24 -50
l-32 -39 31 -30 c35 -34 37 -44 10 -56 -10 -5 -55 -42 -99 -83 -72 -65 -79
-75 -65 -88 13 -14 13 -17 -2 -34 -29 -33 -6 -21 63 31 36 28 70 50 74 50 5 0
9 7 9 15 0 8 16 25 35 37 33 22 53 48 37 48 -6 0 -31 -19 -127 -98 -47 -38
-55 -44 -55 -38 0 4 24 31 53 59 30 29 56 59 59 67 3 9 18 22 32 30 25 13 29
12 53 -13 27 -26 27 -27 8 -41 -11 -8 -32 -17 -46 -20 -15 -3 -29 -13 -33 -22
-6 -15 -4 -15 20 1 14 9 28 14 31 12 10 -11 -9 -47 -25 -47 -33 0 -44 -15 -33
-43 10 -27 10 -27 -37 -27 -40 -1 -54 -6 -92 -39 -25 -22 -41 -43 -37 -47 4
-5 11 -4 15 1 4 6 26 25 50 43 30 23 47 30 58 24 13 -7 10 -14 -18 -42 -21
-21 -29 -34 -20 -37 6 -3 10 -8 7 -13 -3 -4 2 -10 10 -13 9 -4 16 2 21 16 11
37 70 120 109 155 27 24 36 38 32 53 -3 12 -3 18 0 15 3 -3 15 6 26 20 l20 26
-66 62 -66 63 34 64 c19 35 35 76 35 90 0 31 -30 54 -84 64 -36 7 -45 18 -26
30 6 4 10 29 9 55 -2 27 2 55 8 62 6 7 15 30 21 50 13 46 -1 67 -58 93 -40 18
-41 19 -36 59 34 275 36 445 7 549 -23 82 -22 104 5 71 14 -18 15 -17 8 16 -3
19 -17 55 -30 80 -29 57 -54 119 -54 136 0 7 -5 25 -12 41 -6 15 -12 33 -14
40 -1 7 -12 26 -23 42 -12 16 -20 33 -19 38 4 16 -41 89 -84 136 -24 26 -42
47 -39 47 4 0 27 -11 54 -25 72 -39 56 -21 -23 25 -39 23 -94 65 -123 95 -57
58 -88 78 -234 151 -51 25 -93 48 -93 51 0 2 15 2 33 -1 29 -6 30 -5 8 4 -14
6 -31 8 -40 5 -8 -3 -18 0 -22 6 -8 13 -303 93 -399 109 -30 5 -84 14 -120 20
-35 6 -75 9 -87 5 -13 -3 -23 -1 -23 5 0 5 -5 10 -11 10 -5 0 -8 -4 -5 -9 3
-5 -76 -6 -182 -4 -291 8 -1083 9 -1088 2z m691 -39 c242 -5 460 -12 485 -15
25 -3 90 -6 145 -7 55 0 105 -5 111 -9 6 -5 27 -11 47 -14 20 -3 54 -7 74 -10
20 -3 44 -12 53 -19 8 -8 26 -12 41 -9 30 6 248 -59 328 -97 150 -73 331 -231
397 -348 15 -26 42 -67 60 -92 43 -61 84 -180 128 -372 10 -45 -12 -32 -26 15
-6 23 -17 45 -23 50 -6 4 -5 10 5 17 13 8 13 10 -1 10 -10 0 -20 11 -23 25 -4
14 -11 25 -17 25 -6 0 -9 -8 -6 -17 3 -10 12 -41 20 -68 8 -28 19 -61 26 -72
6 -12 11 -27 11 -34 0 -28 -19 10 -54 106 -20 55 -43 112 -52 128 -10 18 -11
27 -3 27 17 0 -29 57 -115 140 -85 82 -155 132 -173 125 -7 -2 -13 0 -13 5 0
22 -273 160 -288 145 -3 -3 44 -28 104 -56 60 -28 131 -67 158 -86 26 -19 45
-29 41 -22 -5 7 -3 10 6 7 8 -3 13 -11 11 -17 -3 -16 49 -60 71 -61 10 0 15
-4 12 -10 -3 -5 0 -10 7 -10 17 0 90 -73 87 -86 -3 -14 17 -58 33 -71 11 -10
65 -117 99 -198 21 -48 39 -109 34 -113 -2 -3 -8 4 -11 14 -38 107 -156 306
-223 377 -118 125 -379 295 -556 361 -126 48 -303 74 -510 77 -27 0 -297 -5
-600 -11 -302 -7 -570 -11 -595 -11 -43 1 -44 0 -25 -15 16 -12 34 -14 81 -10
33 4 63 3 67 0 3 -3 282 -7 619 -8 601 -1 668 -4 798 -36 285 -68 458 -151
626 -302 113 -100 189 -227 265 -442 21 -60 39 -114 39 -119 0 -4 -10 -1 -22
7 -26 18 -84 21 -123 6 -23 -9 -32 -6 -61 20 -24 21 -45 30 -69 30 -35 0 -42
15 -22 47 10 15 -1 41 -34 84 -24 31 -27 40 -19 73 11 49 7 59 -38 89 -53 36
-80 42 -101 23 -26 -23 -79 -37 -84 -23 -3 8 -10 6 -24 -5 -28 -26 -52 -22
-64 10 -6 15 -20 37 -32 50 -12 13 -27 40 -32 60 -9 29 -16 37 -42 43 l-32 6
30 -29 c18 -19 29 -40 29 -57 0 -19 7 -31 21 -37 12 -6 27 -26 33 -44 l11 -35
63 2 c34 2 75 9 90 17 57 29 87 29 121 1 35 -30 40 -59 14 -74 -17 -9 -17 -11
3 -33 11 -13 28 -35 36 -49 16 -25 15 -27 -5 -48 -19 -18 -19 -21 -4 -21 9 0
17 5 17 10 0 6 6 10 13 10 6 0 -5 -16 -27 -36 -21 -19 -35 -38 -32 -41 3 -4
11 -2 17 4 7 7 18 4 36 -13 19 -18 23 -28 17 -46 -4 -13 -7 -27 -6 -32 2 -4
-3 -14 -9 -22 -17 -21 -6 -26 17 -9 16 10 20 22 16 46 -4 28 -2 31 14 26 90
-29 104 -31 139 -18 30 10 43 10 84 -4 62 -20 79 -38 57 -60 -22 -22 -20 -48
4 -63 27 -17 25 -40 -5 -54 -30 -14 -32 -31 -4 -59 11 -11 19 -22 17 -23 -54
-35 -74 -44 -63 -26 3 6 -1 10 -10 10 -18 0 -209 -122 -220 -140 -9 -14 85 -6
115 10 12 6 24 9 27 7 3 -3 -14 -15 -37 -27 -23 -12 -39 -24 -36 -27 3 -3 11
-2 18 4 26 19 68 33 68 22 0 -5 -19 -18 -42 -29 -25 -11 -35 -19 -24 -19 22
-1 96 39 96 51 0 5 -6 6 -12 3 -7 -4 -2 3 12 14 33 27 60 29 36 2 -17 -19 -17
-19 3 -14 15 4 21 1 21 -12 0 -14 6 -16 28 -11 25 6 25 5 9 -8 -19 -15 -8 -30
15 -21 27 11 41 -21 34 -78 -9 -75 -37 -201 -46 -211 -5 -5 -20 4 -34 19 -38
41 -41 26 -4 -19 l31 -38 -17 -55 c-35 -109 -133 -273 -163 -273 -14 0 -18 16
-5 24 4 2 23 26 41 53 l34 48 -50 -52 c-52 -56 -67 -63 -77 -37 -7 17 19 54
37 54 6 0 3 -8 -6 -18 -37 -40 -14 -28 38 20 30 28 55 54 55 58 0 4 -18 -1
-40 -12 -39 -19 -56 -36 -24 -24 9 3 12 2 9 -5 -4 -5 -15 -7 -25 -4 -12 4 -26
-4 -44 -27 -17 -22 -29 -29 -34 -22 -4 7 -24 19 -44 27 -32 14 -37 14 -42 1
-4 -11 -1 -14 12 -10 12 4 28 -4 48 -25 16 -17 44 -39 62 -51 39 -24 40 -37 6
-77 -30 -36 -181 -156 -218 -172 -33 -15 -29 -29 10 -43 49 -18 142 -75 148
-92 3 -9 3 -20 0 -26 -4 -6 1 -8 15 -3 15 4 28 -1 46 -20 15 -14 37 -33 50
-41 25 -17 151 -186 178 -239 23 -48 30 -75 17 -75 -6 0 -8 5 -5 10 3 6 -3 10
-14 10 -12 0 -21 5 -21 12 0 9 -3 9 -11 1 -8 -8 -23 -7 -54 5 l-43 15 -96 -48
c-93 -46 -119 -64 -75 -50 15 5 19 4 14 -5 -4 -6 -17 -9 -30 -6 -15 4 -32 -2
-49 -15 -34 -27 -26 -38 10 -15 14 10 28 15 31 13 8 -9 -55 -37 -70 -32 -7 3
-37 -10 -65 -29 -29 -20 -52 -31 -54 -24 -2 6 -34 -7 -76 -32 -96 -58 -92 -67
6 -13 23 13 42 19 42 13 0 -6 -7 -13 -15 -16 -22 -9 -18 -23 5 -17 27 7 27
-23 0 -37 -15 -8 -30 -8 -54 0 -19 6 -38 10 -42 9 -13 -4 -84 33 -84 43 0 4
12 11 28 14 15 4 36 13 47 20 11 8 24 14 30 14 5 0 2 -5 -7 -11 -10 -5 -18
-14 -18 -19 0 -9 50 16 125 62 39 24 53 23 30 -2 -10 -11 -14 -20 -8 -20 5 0
18 9 28 20 13 14 14 20 5 20 -25 0 22 39 97 80 40 23 95 61 121 86 26 25 61
53 77 62 18 9 25 17 17 20 -10 3 -10 7 0 20 12 14 11 14 -9 2 -12 -8 -19 -18
-17 -22 3 -4 1 -8 -4 -8 -5 0 -30 -16 -55 -35 -41 -32 -87 -46 -87 -28 0 4 17
24 37 45 20 21 32 38 25 38 -7 0 -12 -3 -12 -7 -1 -12 -77 -66 -87 -62 -4 2
-7 8 -5 13 2 5 -8 2 -23 -8 -14 -9 -37 -24 -52 -33 -16 -9 -39 -26 -52 -37
-28 -24 -20 -7 22 47 16 20 25 37 21 37 -4 0 -31 -13 -61 -30 -65 -37 -69 -37
-45 -2 36 52 36 54 -4 34 -22 -10 -51 -22 -66 -26 l-27 -6 23 25 c13 14 26 34
29 45 4 17 1 19 -19 14 -25 -6 -34 10 -11 19 8 4 9 6 0 6 -6 1 -18 -5 -25 -12
-7 -7 -26 -18 -42 -25 -25 -11 -28 -11 -23 3 7 17 -1 19 -23 5 -13 -9 -13 -11
0 -21 12 -8 9 -9 -12 -5 -26 6 -54 -14 -31 -21 6 -2 19 -10 29 -17 16 -12 17
-16 4 -31 -14 -16 -13 -17 8 -11 35 11 30 1 -47 -86 -64 -73 -161 -131 -161
-96 0 6 -6 19 -14 27 -13 14 -11 22 9 66 13 28 32 73 42 100 17 47 54 91 151
178 48 43 38 19 -15 -37 -40 -40 -42 -45 -15 -27 36 25 43 19 10 -10 -13 -10
-17 -18 -10 -19 19 0 93 42 116 67 37 40 137 93 168 89 15 -1 31 -5 34 -9 3
-3 12 -3 20 0 8 3 14 0 14 -6 0 -12 36 -15 42 -3 2 4 27 25 55 46 71 54 58 59
-18 8 -54 -37 -63 -40 -73 -26 -7 8 -30 18 -51 21 -34 4 -52 -2 -117 -36 -42
-23 -79 -38 -82 -33 -4 6 92 60 185 103 11 5 24 0 37 -13 17 -18 23 -19 36 -8
9 7 16 16 16 21 0 12 -72 46 -90 42 -8 -2 -27 7 -42 21 l-28 23 22 29 23 29
-28 -18 c-15 -9 -27 -13 -27 -7 0 6 16 20 35 31 19 12 35 23 35 25 0 9 -38
-12 -68 -38 -18 -15 -39 -28 -46 -28 -8 0 -19 -7 -26 -15 -7 -9 -15 -13 -18
-11 -6 6 -61 -21 -85 -42 -9 -8 -19 -13 -21 -11 -3 2 12 15 32 29 20 13 48 33
61 44 13 12 21 15 17 9 -11 -19 1 -16 34 9 34 25 41 44 10 28 -11 -6 -20 -7
-20 -1 0 5 7 11 15 15 8 3 15 11 15 17 0 7 -9 4 -22 -8 -40 -35 -53 -38 -30
-5 28 39 41 47 54 34 6 -6 17 -8 24 -5 8 3 14 0 14 -7 0 -6 5 -8 10 -5 8 5 7
11 -1 21 -10 12 -6 21 17 46 29 32 22 30 -29 -5 -30 -20 -32 -20 -106 20 -2 1
7 18 19 37 25 42 18 44 -39 14 -22 -12 -44 -19 -47 -15 -3 3 4 21 17 39 l23
33 -25 -20 c-13 -11 -27 -24 -31 -30 -4 -5 -10 -6 -14 -2 -4 3 -1 13 6 22 17
20 1 19 -22 -2 -29 -26 -22 2 23 90 22 43 39 80 37 82 -2 2 -26 -32 -53 -75
-50 -79 -65 -94 -65 -65 0 8 -4 15 -10 15 -5 0 -10 -7 -10 -15 0 -8 -4 -15
-10 -15 -14 0 -13 2 15 72 34 84 23 87 -16 4 -21 -46 -34 -64 -40 -55 -6 10
-12 10 -27 -4 -16 -15 -21 -15 -31 -3 -13 15 13 98 53 165 16 28 17 33 3 23
-9 -8 -32 -47 -51 -88 -20 -41 -40 -74 -46 -74 -13 0 -13 6 0 31 13 24 2 25
-16 2 -12 -17 -14 -17 -36 4 -20 21 -21 26 -10 55 15 41 8 48 -9 9 -15 -34
-17 -35 -53 -21 -40 15 -31 -5 15 -37 23 -15 48 -38 56 -50 13 -20 12 -24 -19
-57 -38 -40 -88 -58 -88 -32 0 15 -2 15 -24 1 -29 -19 -36 -7 -25 43 9 43 -3
40 -41 -8 -17 -22 -35 -40 -39 -40 -9 0 -8 46 2 56 4 5 5 1 1 -9 -11 -29 3
-19 25 19 26 44 26 48 0 26 -51 -42 -68 -65 -59 -83 8 -14 6 -16 -10 -12 -11
3 -20 0 -20 -6 0 -6 -7 -11 -16 -11 -17 0 -12 29 12 68 20 31 7 28 -50 -13
-49 -35 -70 -39 -46 -10 20 24 -4 45 -27 23 -13 -14 -14 -20 -3 -32 21 -27
-14 -20 -48 9 -39 33 -44 32 -27 -9 13 -31 13 -35 -11 -57 -21 -20 -28 -21
-44 -11 -17 10 -20 10 -20 -3 0 -8 -5 -15 -11 -15 -7 0 -9 10 -5 25 5 18 3 23
-8 19 -8 -3 -16 -14 -19 -25 -3 -10 -11 -19 -17 -19 -10 0 -10 3 0 15 7 9 8
15 2 15 -5 0 -12 -7 -16 -15 -6 -16 -36 -21 -36 -6 0 4 10 21 22 36 21 27 21
27 1 16 -12 -6 -30 -22 -41 -36 -11 -14 -30 -25 -43 -25 -17 0 -9 -7 30 -25
44 -21 63 -24 105 -19 61 7 116 23 116 33 0 9 72 41 94 41 12 0 8 -9 -18 -34
-18 -19 -35 -38 -37 -43 -2 -4 -22 -20 -44 -35 -22 -15 -50 -35 -62 -44 -21
-15 -23 -15 -23 0 0 8 13 22 28 30 16 8 29 22 29 30 0 9 -1 16 -2 16 -1 0 -16
-5 -33 -11 -20 -7 -29 -15 -25 -25 3 -8 1 -14 -3 -14 -15 -1 -57 -40 -51 -47
4 -3 13 0 22 7 9 7 18 11 20 8 12 -11 -8 -37 -35 -46 -32 -12 -73 8 -107 52
-21 26 -53 36 -53 16 0 -5 -6 -10 -14 -10 -8 0 -16 -7 -20 -15 -6 -18 5 -20
21 -4 14 14 27 6 88 -48 26 -24 52 -43 58 -43 7 0 -3 -10 -20 -22 -34 -24 -39
-38 -24 -67 8 -14 -3 -28 -62 -79 -40 -33 -90 -80 -112 -103 l-40 -43 50 39
c28 21 68 55 90 75 69 63 115 94 126 83 6 -6 -4 -16 -30 -28 -22 -9 -50 -29
-63 -42 l-23 -25 36 24 c21 14 52 30 70 37 19 7 48 20 64 29 l30 15 -19 -21
c-11 -12 -29 -22 -41 -22 -13 0 -28 -7 -35 -15 -7 -8 -21 -15 -31 -15 -10 0
-20 -4 -24 -10 -3 -5 -20 -19 -38 -32 -21 -15 -27 -17 -18 -5 26 33 2 17 -51
-34 -48 -46 -115 -86 -126 -75 -10 10 52 76 142 151 53 44 96 81 96 82 0 21
-102 -60 -226 -179 -65 -62 -105 -91 -74 -53 10 12 10 15 -3 15 -8 0 -20 -7
-27 -15 -9 -11 -16 -13 -24 -5 -7 7 1 21 30 48 22 20 49 48 60 62 15 20 11 18
-16 -6 -19 -18 -49 -39 -66 -47 -17 -9 -37 -23 -44 -32 -12 -15 -12 -19 1 -29
8 -6 18 -19 22 -29 5 -14 14 -16 49 -11 24 4 49 11 55 17 7 5 25 7 40 4 16 -3
44 2 63 11 64 28 100 40 100 31 0 -4 11 -20 24 -34 21 -22 28 -25 45 -15 11 6
25 19 30 28 9 18 124 102 138 102 4 0 -15 -22 -42 -50 -47 -47 -75 -65 -59
-37 5 9 3 9 -7 -1 -12 -11 -12 -14 1 -22 8 -5 18 -6 22 -4 4 3 8 -1 8 -9 0 -8
-14 -17 -31 -21 -17 -3 -28 -10 -24 -16 10 -16 40 -12 68 10 18 15 33 18 56
14 17 -4 31 -12 31 -18 1 -6 0 -130 -1 -276 -2 -299 -1 -525 3 -745 l3 -150
33 -3 c17 -2 32 -7 32 -11 0 -14 -61 -95 -114 -149 -28 -30 -72 -64 -98 -78
-26 -13 -50 -29 -54 -35 -4 -6 -34 -25 -68 -41 -52 -24 -56 -28 -26 -23 19 3
77 27 129 53 141 71 249 189 290 317 48 146 88 458 62 474 -10 6 -9 10 4 15 9
3 14 9 12 13 -5 8 24 205 43 298 31 148 41 236 37 327 -5 131 -24 166 -152
282 -55 50 -118 111 -140 136 -21 25 -33 39 -25 33 19 -18 31 -16 23 3 -3 9
16 -4 43 -29 27 -25 78 -65 114 -89 52 -35 78 -63 127 -136 l62 -93 7 48 c4
26 2 88 -4 138 -7 49 -14 114 -17 142 -2 29 -10 63 -16 75 -7 13 -10 24 -8 25
2 1 -4 12 -13 23 -10 11 -18 23 -18 26 0 3 -9 17 -20 31 -11 14 -20 31 -20 36
0 21 59 -59 97 -131 37 -71 57 -76 34 -9 -8 21 -8 33 -1 35 5 2 10 13 11 25 0
21 1 21 11 -3 6 -14 12 -36 14 -50 1 -14 5 -47 9 -75 4 -27 9 -63 11 -80 1
-16 3 -30 4 -30 1 0 3 -22 6 -48 3 -32 1 -46 -6 -42 -5 3 -10 13 -10 22 0 9
-3 14 -6 11 -3 -3 0 -33 7 -67 9 -43 18 -61 29 -61 12 0 13 -2 1 -9 -10 -7
-12 -20 -7 -52 4 -24 7 -57 7 -74 1 -29 1 -29 9 -5 4 14 8 18 9 11 2 -28 19 3
40 72 11 37 39 94 63 128 24 33 50 73 58 87 8 15 24 43 35 62 12 19 38 74 59
123 22 48 41 85 43 83 2 -2 7 -26 10 -54 3 -35 0 -59 -12 -83 -16 -31 -13 -30
34 19 56 56 89 72 44 21 -16 -17 -27 -36 -25 -41 1 -6 -8 -20 -21 -32 -36 -34
-128 -179 -122 -194 3 -7 1 -11 -4 -8 -5 4 -22 -15 -37 -41 -15 -27 -38 -62
-51 -79 -12 -17 -23 -40 -23 -52 0 -16 -4 -20 -17 -15 -10 4 -14 2 -10 -4 12
-19 -4 -74 -21 -71 -11 2 -20 -12 -30 -47 -8 -27 -25 -75 -38 -105 -24 -53
-29 -70 -41 -135 -3 -16 -9 -37 -13 -45 -4 -8 -16 -53 -25 -100 -30 -143 -17
-520 17 -520 6 0 7 8 3 17 -12 33 -17 93 -7 93 5 0 12 -17 15 -37 2 -21 7 -48
10 -60 4 -15 1 -23 -8 -23 -39 0 61 -342 114 -388 14 -12 34 -30 43 -38 13
-13 28 -15 70 -10 47 6 60 3 111 -24 31 -16 61 -30 67 -30 20 0 9 19 -23 39
-18 11 -44 29 -56 41 -13 11 -29 20 -34 20 -6 0 -8 2 -5 5 3 3 44 -12 91 -35
47 -22 91 -40 97 -40 7 0 18 -7 24 -16 9 -11 17 -13 36 -5 14 5 21 10 15 11
-37 5 -49 11 -62 29 -8 12 -20 21 -27 21 -7 0 -22 11 -35 23 l-22 24 46 -2
c28 -1 50 -7 55 -16 10 -15 16 -17 109 -24 35 -3 79 -9 99 -15 20 -5 38 -7 41
-4 8 7 -21 24 -41 24 -9 0 -19 4 -22 9 -9 14 40 22 67 12 28 -11 107 -3 107
11 0 5 -17 9 -37 9 -21 0 -58 1 -83 2 -25 1 -62 -1 -82 -4 -50 -8 -56 1 -16
23 45 24 17 23 -31 -1 -40 -21 -74 -15 -46 9 32 27 13 30 -30 4 -49 -29 -57
-20 -24 28 29 40 14 50 -17 10 -31 -39 -42 -40 -46 -7 -3 24 -24 33 -22 9 2
-17 -76 -32 -113 -22 -60 15 -111 85 -165 222 -20 50 -21 60 -8 64 17 5 150
140 150 153 0 5 11 32 24 61 30 67 34 83 48 193 14 123 14 111 -7 295 -3 25
-13 67 -21 93 -19 57 -15 71 27 93 18 9 64 40 103 70 51 39 85 56 123 64 29 6
55 16 58 21 4 5 11 9 18 9 15 0 2 -11 -47 -40 -24 -14 -36 -18 -31 -9 5 8 -6
1 -25 -14 -19 -16 -45 -33 -58 -38 -13 -5 -21 -13 -18 -18 7 -10 -17 -21 -46
-21 -17 0 -14 -6 18 -36 60 -56 81 -67 110 -60 14 4 41 1 59 -5 28 -10 37 -10
58 4 14 9 28 30 32 47 l7 31 46 -27 c37 -22 49 -25 64 -15 16 10 24 8 49 -14
23 -18 42 -25 74 -25 38 0 47 5 69 33 15 19 26 39 26 44 0 6 13 13 29 16 35 7
65 58 56 98 -8 36 20 68 70 79 29 7 43 6 53 -4 25 -25 112 -350 111 -416 0
-32 -27 50 -38 116 -7 38 -17 76 -22 84 -13 18 -9 -8 33 -225 27 -144 30 -173
25 -290 -3 -71 -10 -143 -16 -160 -6 -16 -12 -48 -15 -70 -14 -129 -64 -284
-86 -270 -5 3 -6 -4 -3 -15 3 -12 0 -20 -6 -20 -7 0 -9 -4 -6 -10 3 -6 2 -10
-4 -10 -5 0 -13 -10 -17 -22 -27 -90 -209 -313 -263 -324 -27 -6 -104 -64 -84
-64 6 0 16 6 22 14 6 8 21 16 33 19 20 6 20 4 -4 -20 -18 -17 -37 -26 -57 -25
-16 0 -35 -6 -42 -14 -21 -25 -76 -49 -214 -93 -226 -71 -480 -103 -805 -102
-102 1 -198 3 -215 5 -41 5 -542 20 -634 18 -40 0 -76 -3 -79 -6 -3 -3 29 -6
71 -6 45 0 77 -4 77 -10 0 -6 -63 -10 -169 -10 l-169 0 4 38 c10 95 17 1055 9
1179 -3 49 6 75 19 55 3 -5 6 -72 7 -150 2 -78 6 -142 11 -142 9 0 3 303 -8
420 -3 36 -11 68 -17 72 -11 7 -19 128 -8 128 7 0 6 175 -3 1720 -4 569 -12
1129 -17 1243 l-11 208 68 72 c37 40 79 83 93 96 82 74 101 94 101 107 0 8 7
26 17 40 12 19 22 24 37 19 12 -4 219 -11 461 -15z m1585 -2469 c0 -14 -63
-71 -79 -71 -11 0 -12 -3 -3 -12 9 -9 16 -8 29 3 36 28 62 39 69 28 7 -12 7
-12 -21 -27 -19 -11 -19 -11 5 -12 14 -1 19 -4 12 -7 -6 -2 -9 -10 -5 -16 4
-6 1 -8 -8 -5 -8 3 -21 9 -30 12 -10 5 -16 2 -16 -9 0 -8 7 -15 14 -15 8 0 11
-5 8 -10 -4 -7 -11 -7 -18 -2 -7 5 -25 12 -41 16 -26 6 -27 5 -13 -9 9 -8 23
-15 31 -15 9 0 16 -4 16 -10 0 -5 7 -10 16 -10 8 0 12 -4 9 -10 -3 -5 -1 -10
4 -10 6 0 11 5 11 10 0 6 5 10 11 10 6 0 8 -9 3 -22 -8 -29 -4 -26 -43 -33
-24 -4 -32 -2 -28 7 2 7 11 12 20 12 24 -2 8 25 -25 42 -27 14 -31 14 -49 -2
-13 -12 -19 -13 -19 -4 0 7 -10 21 -22 31 -11 11 -16 19 -10 19 6 0 18 -7 27
-16 9 -9 19 -14 22 -10 4 3 -2 13 -13 20 -10 8 -17 16 -14 19 3 2 33 29 67 60
60 54 83 68 83 48z m-345 -288 c19 -15 18 -15 -15 -9 -23 4 -30 3 -21 -3 11
-7 6 -13 -21 -24 -20 -8 -39 -20 -42 -26 -4 -6 -12 -11 -17 -11 -6 0 -7 5 -4
10 10 16 -25 11 -43 -6 -15 -15 -14 -16 6 -10 32 10 27 1 -12 -23 -19 -12 -40
-19 -47 -16 -14 5 -44 -16 -106 -77 -40 -37 -43 -25 -7 28 57 86 129 142 217
169 56 18 88 18 112 -2z m-572 -8 c4 -8 2 -17 -3 -20 -15 -9 -12 -28 3 -22 48
18 57 18 64 0 4 -10 11 -21 16 -24 9 -7 -12 -62 -35 -93 -11 -14 -22 -17 -41
-12 -33 8 -58 76 -39 107 10 16 9 19 -3 19 -18 0 -21 46 -2 53 22 10 35 7 40
-8z m-427 -124 c21 -15 50 -40 63 -54 l24 -26 -24 -10 c-13 -5 -33 -19 -44
-31 -11 -12 -29 -27 -40 -32 -17 -9 -16 -6 5 18 14 15 36 38 49 51 13 13 18
23 11 23 -7 0 -48 -37 -92 -81 -43 -45 -82 -79 -85 -76 -3 4 22 32 56 64 62
59 83 92 35 54 -46 -37 -45 -23 1 20 25 23 43 44 40 47 -3 3 -22 -10 -43 -29
-62 -57 -134 -103 -102 -64 10 12 10 15 0 15 -7 0 -1 10 14 21 15 12 25 24 22
27 -3 2 -12 -1 -21 -8 -8 -7 -15 -9 -15 -6 0 11 63 61 77 61 16 0 39 23 31 31
-8 8 -78 -26 -78 -37 0 -5 -5 -9 -11 -9 -29 0 51 58 82 60 3 0 24 -13 45 -29z
m148 -226 c42 -9 41 -54 -4 -383 -5 -40 -12 -78 -15 -83 -16 -24 -25 10 -25
89 0 48 -4 125 -9 172 -6 47 -12 115 -14 152 -5 75 -13 69 67 53z m700 -40
c-20 -25 -39 -45 -43 -45 -3 0 -35 -25 -71 -56 -70 -60 -203 -154 -218 -154
-5 0 -12 -9 -15 -19 -3 -14 -11 -18 -24 -15 -22 6 -99 -65 -114 -104 -5 -13
-14 -20 -19 -17 -7 4 -7 11 -2 18 14 19 23 49 12 42 -6 -3 -10 1 -10 9 0 9 5
16 10 16 6 0 10 6 10 14 0 13 48 71 59 71 3 0 20 5 36 12 17 6 42 14 56 17 40
9 169 98 231 161 95 95 170 132 102 50z m566 29 c22 -9 40 -18 40 -20 0 -3 -8
-17 -17 -31 -10 -14 -16 -38 -15 -52 3 -31 -2 -39 -47 -70 -25 -17 -35 -20
-41 -11 -6 10 -9 10 -15 0 -4 -7 -3 -15 2 -19 15 -9 -2 -47 -25 -60 -14 -7
-29 -6 -55 7 -21 9 -37 19 -37 23 0 11 30 32 37 26 3 -4 15 -1 27 5 18 10 19
9 8 -4 -10 -13 -10 -17 3 -22 9 -3 13 -2 10 4 -7 12 63 90 81 90 7 0 16 4 19
10 4 6 -4 6 -22 0 l-28 -11 30 25 c17 14 25 25 19 26 -16 0 -100 -68 -119 -97
-9 -14 -19 -22 -22 -20 -10 10 29 62 70 94 64 49 113 93 104 93 -14 0 -92 -53
-148 -102 -31 -27 -67 -51 -80 -53 -21 -4 -22 -2 -8 8 9 7 14 18 12 25 -3 6 0
12 6 12 16 0 91 72 85 82 -3 4 -1 8 5 8 5 0 16 6 23 13 12 10 48 35 55 36 2 1
21 -6 43 -15z m-798 -366 c18 -58 22 -98 23 -188 0 -63 -3 -128 -7 -144 -11
-44 -63 -91 -150 -136 -94 -48 -93 -49 -97 100 -3 167 33 269 135 379 31 34
60 61 65 61 5 0 19 -33 31 -72z"/>
<path d="M9995 7275 c-27 -8 -59 -12 -69 -9 -34 11 -119 -44 -160 -103 -35
-50 -39 -53 -55 -39 -24 22 -61 20 -87 -5 -20 -19 -26 -20 -57 -8 -40 14 -83
6 -92 -19 -3 -9 -20 -26 -38 -37 -17 -11 -33 -28 -35 -38 -4 -21 24 -57 45
-57 23 0 14 -41 -19 -83 l-32 -40 29 7 c17 4 30 8 31 9 1 1 9 25 18 54 9 28
24 57 32 63 7 7 14 20 14 29 -1 13 -5 11 -19 -6 -23 -28 -33 -29 -56 -3 -22
25 -13 49 24 63 16 6 32 19 34 29 7 24 44 23 82 -2 36 -24 46 -25 39 -6 -12
32 77 50 95 19 9 -16 13 -15 41 14 16 18 30 35 30 38 0 3 10 19 22 35 15 21
30 30 50 30 17 0 28 5 28 14 0 16 79 31 109 21 12 -3 21 0 25 10 8 22 52 19
77 -6 11 -11 23 -18 27 -15 9 10 -31 44 -58 50 -14 2 -47 -2 -75 -9z"/>
<path d="M9360 6919 c-33 -21 -36 -21 -78 -5 -50 18 -59 15 -115 -38 -21 -20
-43 -36 -48 -36 -5 0 -9 -8 -9 -17 0 -14 -4 -13 -24 6 -26 25 -48 25 -116 1
-83 -29 -85 -31 -86 -93 0 -53 2 -57 28 -68 38 -16 47 -4 19 25 -16 17 -21 33
-19 56 3 30 8 34 58 51 72 23 86 23 121 -2 28 -19 31 -20 48 -5 10 9 27 16 39
16 19 0 21 4 16 25 -8 32 19 65 54 65 13 0 37 -9 54 -21 16 -12 30 -20 31 -18
19 35 28 44 56 54 18 6 29 14 25 18 -11 10 -15 9 -54 -14z"/>
<path d="M9513 6852 c-18 -21 -24 -24 -32 -13 -5 8 -11 9 -15 3 -3 -6 -36 -11
-74 -11 -97 -1 -138 -12 -133 -37 1 -10 4 -141 5 -289 2 -246 1 -274 -16 -310
-30 -65 -47 -90 -58 -89 -27 3 -30 5 -30 24 0 12 7 35 16 51 22 43 10 49 -15
8 -28 -45 -26 -67 5 -100 23 -24 24 -30 14 -50 -23 -44 -49 -62 -81 -55 -21 4
-29 2 -29 -9 0 -18 34 -37 54 -29 14 5 14 3 0 -25 -18 -37 -19 -37 -63 -10
-35 21 -35 23 -15 104 5 20 4 26 -5 21 -6 -4 -16 -27 -22 -52 -9 -36 -14 -42
-25 -33 -8 6 -14 8 -14 4 0 -13 -32 18 -40 40 -5 13 -2 30 9 50 20 34 32 65
27 65 -11 0 -56 -92 -56 -113 0 -28 38 -64 124 -116 52 -33 55 -36 38 -51 -9
-9 -25 -19 -34 -23 -15 -5 -26 -37 -13 -37 2 0 36 32 74 72 39 40 73 70 76 67
2 -3 -19 -32 -47 -65 -35 -40 -40 -48 -15 -25 36 34 63 37 36 4 -12 -15 -12
-16 1 -8 8 4 24 15 34 24 18 15 19 15 13 0 -4 -13 -1 -16 16 -11 12 2 28 9 35
15 7 5 15 7 19 4 6 -7 8 -75 2 -97 -3 -13 12 -15 96 -14 174 1 238 19 310 86
17 15 34 28 38 28 19 0 89 88 119 149 18 36 41 75 51 85 9 11 17 23 17 28 0 4
9 12 20 18 14 8 8 -5 -19 -41 -28 -37 -39 -61 -38 -85 1 -23 -6 -39 -24 -54
-13 -12 -19 -19 -12 -16 6 4 13 0 16 -6 3 -8 9 -2 15 14 6 14 16 29 23 33 16
10 51 93 44 105 -3 5 4 14 15 20 14 8 20 8 20 0 0 -6 5 -8 11 -5 6 4 8 14 5
22 -3 8 -1 11 5 8 5 -4 16 -1 24 5 33 27 12 -9 -26 -45 -35 -34 -67 -83 -126
-188 -7 -12 -21 -23 -33 -23 -21 -1 -27 11 -10 21 6 3 10 1 10 -4 0 -6 5 -11
10 -11 6 0 10 9 10 20 0 24 -18 22 -41 -5 -24 -28 -14 -43 27 -39 28 2 34 -1
34 -17 0 -10 4 -19 9 -19 14 0 23 33 10 40 -6 4 -7 9 -2 11 4 2 26 25 47 51
21 26 47 50 58 54 11 3 17 8 14 11 -8 8 27 32 37 26 5 -3 3 -9 -4 -14 -11 -7
-10 -9 3 -9 9 0 18 -3 21 -7 2 -5 2 -1 -1 7 -3 8 -7 29 -9 45 -4 36 0 28 46
-85 24 -59 29 -67 24 -35 -3 21 -15 59 -25 83 -11 24 -17 46 -14 49 3 3 13
-14 22 -37 14 -36 19 -40 24 -24 4 10 5 26 3 34 -4 12 -3 12 4 2 8 -10 12 -10
22 2 7 8 9 21 5 28 -6 11 -5 11 8 0 17 -13 21 -59 7 -68 -5 -3 -9 -16 -9 -30
0 -13 -5 -24 -11 -24 -7 0 -9 -10 -5 -25 4 -14 2 -25 -4 -25 -5 0 -10 -4 -10
-10 0 -5 7 -7 15 -4 20 8 20 -28 -1 -67 -20 -40 -11 -49 12 -12 10 15 27 37
39 48 11 11 28 31 38 45 10 14 16 18 14 10 -3 -8 8 -31 24 -50 28 -33 32 -35
99 -36 58 -1 78 -6 110 -28 46 -30 68 -33 77 -8 4 9 11 21 17 25 6 5 -6 6 -26
2 -49 -8 -50 11 -1 20 20 3 32 10 26 13 -6 4 6 20 28 37 33 26 51 55 33 55 -3
0 -45 -21 -94 -46 -48 -25 -96 -44 -106 -42 -15 3 -10 9 21 25 22 11 65 37 95
57 30 20 66 39 80 43 30 7 90 50 90 64 0 5 -17 -2 -37 -15 -40 -27 -63 -21
-63 15 0 31 -25 22 -126 -46 -53 -36 -99 -65 -102 -65 -3 0 5 12 19 26 29 32
138 104 156 104 18 0 16 19 -3 27 -8 3 -13 12 -10 19 11 29 -13 22 -38 -11
-30 -40 -64 -52 -96 -35 -16 8 -19 17 -14 33 7 22 6 22 -15 3 -25 -23 -28 -11
-3 17 17 19 16 19 -5 6 -40 -24 -42 -2 -6 51 l17 25 -25 -22 c-49 -44 -55 -18
-8 34 34 40 31 58 -4 25 -13 -12 -28 -22 -35 -22 -6 0 -15 -8 -21 -17 -20 -36
-23 -2 -3 37 20 41 20 41 0 23 -11 -10 -26 -30 -34 -45 -19 -37 -42 -35 -56 3
-8 23 -15 29 -29 26 -31 -8 -32 11 -3 61 l27 47 -33 -30 -32 -30 17 33 c25 50
13 48 -24 -4 -19 -26 -39 -43 -46 -40 -8 3 -18 -1 -24 -7 -14 -18 -61 -20 -61
-3 0 24 66 127 95 148 6 5 4 8 -5 8 -23 -1 -41 -18 -98 -95 -34 -47 -58 -71
-72 -71 -11 0 -20 3 -20 7 0 9 102 143 112 147 4 2 8 8 8 13 0 6 -4 8 -9 4
-15 -9 -101 -124 -113 -151 -18 -38 -39 -31 -34 12 3 24 16 48 40 71 20 20 38
45 42 55 4 13 11 17 22 13 9 -3 13 -3 9 1 -4 4 3 18 15 31 12 13 16 23 9 23
-7 0 -9 5 -6 10 3 6 1 10 -5 10 -7 0 -9 -7 -6 -16 4 -10 -4 -26 -21 -43 -16
-14 -43 -44 -61 -66 -26 -31 -32 -35 -29 -18 3 13 -1 42 -8 65 -20 68 -29 132
-17 124 6 -3 13 -25 17 -49 12 -69 24 -78 25 -17 0 77 -34 146 -91 185 -24 16
-74 55 -111 86 -42 36 -86 63 -120 74 -29 10 -54 19 -56 20 -2 2 4 15 13 29
23 34 6 32 -22 -2z m53 -98 c17 -3 63 -32 105 -67 127 -106 170 -228 114 -324
-14 -23 -21 -43 -15 -43 5 0 18 18 27 41 12 31 18 38 24 26 14 -24 6 -147 -8
-147 -15 0 -17 -26 -3 -35 20 -12 11 -100 -13 -136 -20 -30 -31 -36 -87 -46
-36 -7 -88 -12 -116 -13 -38 0 -61 -7 -88 -25 -47 -32 -56 -31 -56 3 0 15 -3
106 -5 202 -3 96 -7 267 -10 379 l-5 204 53 -7 c28 -4 66 -9 83 -12z"/>
<path d="M8800 6670 c-13 -8 -13 -13 3 -41 17 -31 17 -31 -10 -52 -77 -60 -87
-81 -52 -113 16 -14 36 -19 84 -19 35 0 66 -3 70 -6 12 -13 -61 -79 -125 -111
l-65 -34 3 -42 c3 -36 -1 -45 -30 -72 -18 -17 -52 -40 -75 -50 -44 -20 -51
-35 -37 -86 5 -19 51 -50 60 -41 2 1 -3 21 -11 42 -21 59 -19 65 20 65 28 0
38 5 47 25 12 26 63 50 73 34 8 -12 55 -12 55 0 0 6 -12 16 -27 23 -33 16 -54
48 -35 55 6 3 10 9 7 13 -9 15 56 70 81 70 13 0 33 -9 44 -20 15 -15 25 -18
38 -11 9 4 25 6 35 2 16 -6 9 -17 -43 -76 -59 -67 -84 -108 -78 -127 2 -5 22
20 45 55 23 35 59 80 80 99 132 122 188 200 68 94 -58 -52 -63 -44 -11 20 26
31 46 60 46 66 0 5 5 6 10 3 6 -4 9 -2 8 4 -2 6 11 21 27 35 31 25 30 45 -2
28 -10 -6 -48 -47 -83 -91 -59 -74 -80 -93 -80 -74 0 12 53 87 89 125 19 21
32 41 28 45 -4 3 1 15 10 26 14 16 15 19 3 15 -8 -2 -21 -17 -28 -31 -7 -15
-17 -27 -21 -27 -5 0 -11 -9 -14 -21 -3 -11 -15 -23 -27 -26 -13 -4 -17 -8
-10 -13 7 -4 -3 -21 -27 -48 -27 -31 -42 -40 -52 -33 -11 7 -8 15 14 43 15 19
40 43 56 54 16 10 29 25 29 33 0 11 -5 10 -20 -4 -11 -10 -23 -15 -28 -10 -4
4 -1 10 6 12 6 3 12 9 12 13 0 5 -13 4 -30 -1 -16 -6 -30 -15 -30 -20 0 -11
-33 1 -42 15 -5 8 -14 7 -29 -2 -27 -17 -35 -9 -13 12 9 9 14 19 11 22 -3 3
-14 -4 -24 -15 -21 -25 -43 -27 -43 -5 0 17 67 84 83 84 5 0 4 6 -2 14 -9 11
-9 15 1 20 10 5 10 7 1 12 -19 8 -16 27 3 20 21 -8 34 1 27 19 -6 17 -50 20
-73 5z"/>
<path d="M8541 6006 c-6 -8 -32 -19 -56 -25 -34 -9 -46 -17 -51 -35 -6 -24 10
-66 24 -66 4 0 20 -11 36 -25 l29 -25 -37 -47 c-51 -65 -49 -94 12 -138 56
-41 67 -42 97 -12 12 12 43 40 69 62 25 22 46 44 46 49 0 5 -13 -2 -28 -17
-41 -40 -52 -33 -12 8 19 19 29 35 24 35 -14 0 -90 -80 -84 -88 3 -4 -7 -8
-22 -10 -16 -2 -28 2 -28 8 0 7 -8 9 -20 5 -28 -9 -25 -3 20 43 42 42 52 66
23 55 -16 -6 -16 -5 -4 10 10 13 11 20 2 31 -8 10 -9 16 -1 21 17 11 11 22
-12 21 -18 -1 -22 4 -20 23 2 20 0 22 -12 12 -12 -10 -21 -10 -42 1 -15 7 -29
18 -31 24 -4 13 82 48 97 39 12 -7 40 12 40 26 0 5 -7 9 -15 9 -8 0 -15 5 -15
10 0 14 -16 12 -29 -4z"/>
<path d="M8759 5795 c-1 -3 -2 -8 -3 -13 -3 -20 -103 -135 -134 -154 -20 -12
-31 -23 -26 -24 34 -7 94 -28 94 -34 0 -3 -5 -11 -11 -17 -13 -13 3 -63 27
-87 10 -11 4 -19 -29 -45 -23 -17 -51 -30 -62 -29 -30 4 -30 47 0 92 14 21 24
41 20 44 -3 3 -6 3 -8 1 -49 -61 -59 -82 -55 -109 4 -25 -3 -35 -47 -73 -55
-48 -84 -109 -63 -134 7 -9 7 -13 0 -13 -6 0 -16 -9 -22 -21 -16 -29 10 -57
47 -52 23 3 31 -2 45 -26 l17 -30 58 23 c94 38 105 40 101 21 -3 -17 -93 -55
-133 -56 -14 0 -8 -5 17 -15 35 -15 38 -14 70 8 18 13 36 28 41 33 7 10 26
-10 27 -27 0 -10 -55 -38 -74 -38 -11 0 -14 -12 -12 -58 2 -46 8 -63 29 -86
22 -24 28 -26 33 -13 3 9 3 20 0 25 -3 5 6 15 20 23 27 14 180 173 203 211 22
36 -46 -26 -91 -84 -44 -55 -93 -94 -130 -103 -44 -11 -35 19 16 56 53 38 62
56 40 80 -10 11 -14 19 -9 19 4 0 0 11 -8 24 -15 23 -15 24 9 30 14 4 22 11
19 16 -10 17 -74 11 -115 -10 -40 -21 -70 -26 -70 -12 0 4 7 19 16 32 9 14 3
10 -13 -8 -29 -34 -43 -34 -43 0 0 22 -8 23 -31 2 -19 -17 -49 -13 -49 6 0 6
11 15 24 19 13 5 26 16 29 25 4 10 1 13 -8 10 -21 -8 -29 34 -11 61 34 51 145
114 154 87 6 -20 27 -13 57 18 28 29 65 40 65 20 0 -5 -7 -10 -17 -10 -9 0
-13 -3 -10 -7 4 -3 0 -15 -10 -25 -27 -30 -4 -20 27 12 16 17 36 30 45 30 20
0 19 16 -1 24 -8 3 -12 10 -9 16 3 5 -2 10 -11 10 -16 0 -16 1 1 14 11 8 16
20 12 29 -3 9 -2 19 3 22 6 4 10 13 10 22 0 9 8 25 18 36 16 19 16 20 0 14
-40 -14 -14 24 62 93 79 73 103 109 35 54 -91 -75 -147 -136 -142 -155 3 -10
1 -21 -4 -24 -4 -3 -6 -12 -3 -20 4 -9 -7 -22 -28 -35 -48 -29 -53 -25 -13 14
37 36 45 52 20 43 -38 -15 -18 20 61 102 47 50 81 91 73 91 -12 0 -97 -83
-146 -143 -13 -15 -31 -27 -40 -27 -13 0 -14 3 -5 12 14 14 16 42 2 33 -21
-13 -9 13 13 28 12 9 38 30 57 48 19 17 45 35 58 40 12 5 22 13 22 18 0 23
-51 -7 -112 -67 -37 -36 -70 -63 -73 -60 -6 6 85 121 105 133 6 3 8 11 5 16
-7 10 -24 12 -26 4z"/>
<path d="M10548 5105 c-20 -13 -38 -29 -40 -34 -1 -5 -19 -18 -38 -30 -19 -11
-30 -21 -24 -21 20 0 24 -42 6 -57 -9 -8 -11 -12 -4 -8 10 5 11 0 6 -22 -4
-15 -11 -36 -16 -45 -10 -21 -5 -23 14 -5 7 6 38 31 68 54 71 54 120 99 120
112 0 17 -17 13 -32 -7 -20 -27 -108 -96 -114 -89 -4 3 11 22 32 43 24 22 32
34 20 30 -19 -7 -19 -6 -2 13 10 11 22 18 27 16 10 -7 59 16 59 28 0 5 -12 2
-26 -8 -34 -22 -43 -11 -13 16 l24 21 -28 -17 c-16 -9 -34 -14 -40 -12 -7 2 4
14 23 25 19 12 30 22 25 22 -6 0 -27 -11 -47 -25z"/>
<path d="M9551 3675 c-1 -38 -8 -95 -17 -125 -9 -30 -17 -67 -19 -81 -1 -14
-7 -35 -13 -45 -5 -11 -10 -22 -11 -27 -1 -18 -22 -42 -27 -30 -3 6 -21 -6
-44 -30 -21 -23 -35 -46 -30 -51 4 -4 25 9 45 30 l37 39 -6 -30 c-5 -18 -30
-50 -64 -82 -46 -42 -53 -52 -36 -53 11 0 47 20 78 45 32 25 62 43 66 40 4 -3
21 2 36 10 16 8 34 15 41 15 6 0 14 6 16 13 4 8 8 9 14 2 4 -6 49 -32 100 -58
89 -45 133 -58 133 -37 0 6 -9 10 -21 10 -23 0 -55 15 -81 40 -19 17 -49 34
-80 44 -10 3 -18 12 -18 20 0 8 -5 27 -11 43 l-12 28 -6 -24 c-7 -28 -31 -41
-31 -17 0 9 -6 13 -15 10 -12 -5 -14 5 -10 60 12 168 12 195 0 251 l-13 60 -1
-70z"/>
<path d="M12141 7931 c-11 -7 -11 -9 0 -13 10 -4 11 -9 3 -19 -21 -28 -89
-392 -77 -412 10 -16 32 16 42 62 12 54 38 225 45 291 2 25 7 55 11 66 8 25
-4 37 -24 25z"/>
<path d="M12629 7936 c-2 -3 -89 -6 -191 -7 -103 -2 -184 -7 -180 -11 11 -11
235 -27 367 -28 143 0 204 9 216 31 9 18 4 19 -99 19 -60 0 -111 -2 -113 -4z"/>
<path d="M12649 7225 c-30 -8 -104 -37 -162 -65 -105 -50 -134 -69 -79 -50
l27 10 -29 -23 c-16 -12 -49 -37 -74 -55 l-45 -34 22 31 c12 17 30 35 39 41 9
5 13 10 8 10 -13 0 -76 -43 -76 -52 0 -4 -25 -35 -55 -70 -80 -91 -169 -274
-197 -403 -30 -143 -29 -351 2 -450 13 -38 23 -81 24 -95 2 -24 27 -77 111
-235 21 -38 59 -110 85 -160 26 -49 62 -117 80 -150 18 -33 84 -155 147 -271
l114 -212 -16 -102 c-9 -61 -22 -111 -31 -121 -11 -12 -12 -19 -4 -24 13 -8
11 -31 -10 -129 -7 -34 -7 -53 0 -60 5 -5 10 -21 11 -35 0 -26 0 -26 11 -4 10
21 17 22 100 21 49 0 91 2 95 6 3 3 26 6 50 6 40 0 43 -1 33 -20 -9 -18 -7
-19 23 -18 39 1 60 -9 51 -24 -5 -8 4 -9 29 -5 21 3 37 2 37 -4 0 -5 7 -9 15
-9 9 0 12 6 8 16 -4 10 -1 15 8 13 23 -5 108 11 114 22 9 14 35 11 35 -5 0 -7
8 -16 18 -18 30 -7 172 4 172 14 0 5 -9 7 -19 3 -11 -3 -22 -1 -26 5 -4 6 9
10 36 10 38 0 40 -2 28 -17 -13 -15 -11 -16 11 -10 14 4 60 7 103 7 50 0 76 4
72 10 -3 6 -39 10 -78 10 -74 0 -110 11 -87 25 12 8 86 13 189 14 30 1 51 4
48 8 -4 3 -23 6 -42 5 -19 -1 -35 3 -35 8 0 6 -34 8 -87 6 -193 -10 -185 -11
-212 12 -17 14 -25 45 -46 187 -14 94 -27 176 -30 182 -2 7 59 138 137 290 78
153 151 303 164 333 12 30 47 108 77 172 30 65 57 126 60 135 4 10 13 36 22
58 76 190 111 354 101 470 -13 160 -82 340 -182 481 -57 81 -176 190 -222 205
-46 14 -132 60 -132 69 0 4 -15 11 -32 15 -18 4 -37 9 -43 11 -74 26 -370 32
-466 9z m346 -34 c154 -33 286 -82 356 -131 41 -30 36 -44 -18 -56 -41 -10
-51 -9 -86 10 -22 12 -61 39 -86 61 -72 63 -92 73 -31 15 30 -28 75 -64 99
-80 28 -19 39 -31 30 -34 -8 -3 -115 -34 -239 -70 -124 -35 -270 -83 -325
-105 l-100 -42 -20 27 c-45 61 -179 214 -187 214 -13 0 0 -19 54 -81 76 -88
128 -153 128 -161 0 -17 -22 -6 -77 40 -32 27 -91 72 -132 102 l-74 54 26 20
c186 152 365 219 597 224 25 1 63 -3 85 -7z m466 -243 c21 -24 39 -51 39 -60
0 -9 7 -23 15 -31 8 -8 11 -18 7 -21 -3 -4 1 -4 11 0 13 5 16 2 10 -12 -4 -11
-3 -15 5 -10 6 4 16 -3 23 -16 11 -21 11 -22 -4 -9 -12 9 -17 10 -17 2 0 -6
11 -17 25 -23 26 -12 36 -31 10 -22 -11 5 -13 0 -6 -24 12 -39 30 -72 40 -72
26 0 54 -171 45 -268 -3 -31 -7 -94 -7 -139 -3 -152 -40 -132 -146 82 -33 68
-61 126 -61 130 0 4 -43 115 -96 247 -52 132 -93 242 -91 245 9 8 121 42 141
42 10 1 36 -18 57 -41z m-244 -60 c-3 -29 -11 -128 -18 -220 -7 -93 -16 -168
-20 -168 -4 0 -21 22 -39 49 -110 173 -292 217 -485 118 -65 -33 -91 -62 -120
-133 -13 -32 -28 -60 -34 -62 -11 -4 26 117 40 133 5 5 9 16 9 25 0 39 57 96
121 124 74 31 517 184 538 185 10 1 12 -11 8 -51z m-871 5 c28 -21 87 -65 132
-98 45 -32 82 -63 82 -69 0 -5 -7 -17 -15 -26 -40 -44 -94 -183 -157 -400 -10
-34 -25 -54 -68 -88 -30 -24 -90 -73 -134 -109 -43 -36 -82 -61 -86 -56 -5 4
-11 24 -13 43 -2 19 -10 49 -18 65 -19 40 -21 304 -3 322 7 7 17 36 23 63 29
135 154 390 191 390 8 0 38 -17 66 -37z m913 -41 c25 -50 82 -189 142 -346 27
-70 69 -166 95 -213 25 -46 44 -86 42 -89 -3 -2 -50 28 -107 67 -56 38 -132
86 -168 106 l-66 36 7 61 c14 114 25 271 25 344 1 39 3 72 6 72 2 0 13 -17 24
-38z m-284 -216 c152 -71 215 -250 143 -407 -32 -70 -80 -119 -155 -155 -70
-35 -118 -36 -188 -5 -182 80 -229 303 -104 487 25 37 83 84 119 97 41 15 137
6 185 -17z m-483 -251 c-5 -76 20 -191 54 -251 30 -53 95 -111 152 -136 37
-17 61 -20 136 -16 78 3 98 8 139 32 48 28 71 30 46 2 -25 -25 -89 -119 -120
-176 -42 -74 -27 -56 66 75 43 61 81 112 84 115 3 3 26 29 50 57 56 69 86 132
102 220 l13 71 31 -15 c16 -9 66 -39 110 -68 44 -28 113 -73 153 -98 39 -26
72 -52 72 -59 0 -7 -102 -64 -227 -127 -126 -63 -294 -154 -374 -203 -81 -48
-152 -88 -158 -88 -5 0 -32 33 -58 74 -26 41 -74 102 -106 135 -33 34 -55 61
-51 61 4 0 -3 11 -16 25 -15 16 -19 25 -10 25 8 0 2 13 -16 33 -37 39 -114
141 -114 150 0 4 7 7 15 7 20 0 19 16 -2 24 -14 6 -15 9 -3 16 10 6 14 30 14
82 1 61 8 98 20 98 1 0 0 -29 -2 -65z m-50 -213 c58 -86 171 -236 227 -302 31
-36 67 -80 80 -99 21 -30 22 -33 5 -27 -10 5 -41 16 -69 26 -51 18 -333 154
-305 147 8 -3 26 -7 40 -11 24 -6 24 -6 -3 9 -15 9 -36 13 -47 10 -14 -4 -222
73 -238 90 -3 3 71 60 198 154 33 25 60 49 60 54 0 15 19 -4 52 -51z m1148
-149 c-14 -32 -44 -97 -65 -144 -29 -63 -44 -85 -55 -82 -12 4 -12 3 -1 -5 11
-8 2 -33 -47 -128 -84 -166 -106 -208 -112 -214 -3 -3 -19 -34 -34 -70 -61
-139 -169 -356 -199 -399 -17 -25 -33 -55 -34 -66 -2 -11 -10 -25 -18 -31 -8
-6 -15 -16 -15 -21 0 -6 -7 -16 -14 -23 -8 -6 -23 -33 -32 -58 -10 -26 -26
-59 -36 -74 -11 -15 -18 -33 -17 -40 4 -18 -11 -58 -21 -58 -4 0 -6 9 -3 20 3
11 10 20 17 20 6 0 4 4 -3 9 -12 8 -15 51 -17 238 -1 125 -5 236 -9 247 -9 20
4 82 29 139 13 30 14 37 2 37 -7 0 -16 -15 -20 -32 -11 -55 -27 -12 -25 68 1
39 -1 76 -4 81 -4 6 -3 32 2 57 5 26 5 48 1 51 -4 3 -8 34 -8 70 l-1 64 67 44
c87 57 106 68 172 104 169 92 208 112 213 107 3 -4 17 3 31 14 14 11 43 23 63
27 21 3 47 15 58 25 27 24 92 60 110 60 8 0 15 5 15 10 0 6 8 10 19 10 17 0
16 -4 -9 -57z m-1198 -149 c95 -42 214 -93 263 -114 167 -70 160 -64 160 -123
0 -29 8 -200 18 -382 9 -181 19 -383 20 -447 3 -113 2 -117 -18 -114 -14 2
-20 11 -20 28 -1 13 -11 38 -23 55 -12 17 -22 34 -22 38 0 4 -13 26 -29 49
-15 24 -61 101 -101 172 -40 71 -89 156 -108 189 -20 33 -61 105 -92 160 -49
86 -80 139 -120 205 -5 8 -33 65 -63 125 -30 61 -73 145 -96 188 -23 43 -41
82 -41 88 0 5 22 -2 49 -16 28 -14 128 -59 223 -101z"/>
<path d="M13824 5783 c4 -49 13 -101 21 -116 8 -15 11 -35 8 -43 -3 -7 -1 -14
5 -14 5 0 10 -15 10 -32 -1 -41 7 -80 21 -106 6 -11 8 -22 5 -24 -2 -3 1 -18
7 -34 7 -16 11 -33 10 -37 0 -4 3 -16 8 -25 5 -9 11 -30 14 -47 11 -62 30
-141 38 -156 4 -8 10 -33 12 -55 3 -21 10 -52 16 -68 7 -16 10 -31 7 -33 -2
-2 2 -26 9 -54 7 -27 10 -51 5 -54 -11 -7 -20 6 -20 28 0 11 -3 18 -6 14 -10
-10 19 -109 34 -115 10 -3 10 -7 2 -12 -8 -5 -9 -18 -1 -46 5 -21 12 -52 14
-69 11 -64 30 -141 38 -151 5 -6 6 -14 2 -17 -3 -4 -1 -7 6 -7 9 0 11 -8 7
-25 -4 -14 -2 -25 3 -25 8 0 19 -40 23 -80 0 -8 5 -21 11 -28 5 -7 7 -15 4
-18 -3 -3 6 -46 19 -96 14 -49 27 -102 29 -116 2 -15 11 -58 19 -97 9 -38 21
-95 27 -125 6 -30 17 -80 25 -110 8 -30 26 -107 40 -170 13 -63 41 -182 60
-265 19 -82 44 -190 55 -240 21 -89 60 -234 74 -267 7 -17 -14 -18 -341 -19
-407 -1 -637 1 -640 4 -1 1 -10 43 -19 92 -9 50 -23 124 -31 165 -8 41 -19
113 -24 160 -6 47 -14 105 -20 130 -5 25 -12 65 -14 90 -2 25 -15 99 -30 165
-14 66 -26 137 -26 157 0 40 -13 56 -33 40 -15 -13 -429 7 -421 20 3 4 0 8 -5
8 -6 0 -11 -4 -11 -9 0 -18 -40 -23 -56 -7 -17 18 -82 20 -149 7 l-40 -9 48
-1 c26 0 47 -5 47 -11 0 -14 -93 -13 -107 1 -9 9 -20 9 -40 1 -48 -18 -131
-24 -136 -10 -3 8 -6 6 -6 -4 -1 -10 -6 -18 -12 -18 -5 0 -7 -5 -3 -11 3 -6 2
-14 -3 -18 -5 -3 -22 -51 -37 -106 -15 -55 -36 -119 -46 -142 -11 -24 -40
-127 -65 -230 -26 -104 -49 -196 -51 -205 -3 -10 -2 -18 3 -18 5 0 22 53 38
118 16 64 33 122 38 127 6 6 7 2 3 -11 -4 -12 -9 -37 -11 -54 -5 -41 -22 -120
-41 -186 -8 -28 -14 -66 -14 -84 0 -18 -5 -62 -12 -98 l-12 -65 -115 7 c-129
7 -191 15 -206 25 -5 4 -151 7 -322 6 -172 -1 -313 1 -313 4 0 3 15 69 34 146
67 273 71 292 120 505 8 35 12 68 10 72 -2 3 0 9 5 12 12 8 34 104 32 149 0
15 4 25 9 22 6 -4 10 -1 10 4 0 6 -4 11 -9 11 -5 0 -5 18 0 43 20 91 29 133
34 162 2 17 15 75 29 130 13 55 29 126 36 158 6 31 15 57 20 57 8 0 29 53 34
83 1 7 4 17 7 22 3 6 6 25 7 42 1 18 8 56 16 85 9 34 10 59 4 71 -6 11 -5 17
2 17 6 0 9 4 6 9 -4 5 -2 11 4 13 6 2 11 24 12 51 1 26 5 47 9 47 3 0 5 14 4
30 -1 20 3 30 13 30 12 0 12 3 2 15 -10 11 -9 18 4 30 9 9 17 22 17 28 5 48 9
72 15 86 4 9 8 23 9 32 5 46 28 157 35 174 5 11 16 56 26 100 9 44 27 127 40
185 28 119 29 128 39 225 4 39 11 80 16 93 11 30 11 42 0 42 -5 0 -14 -19 -20
-42 -18 -68 -96 -413 -121 -533 -13 -60 -39 -171 -58 -245 -18 -74 -39 -156
-44 -182 -6 -27 -15 -48 -19 -48 -5 0 -9 5 -9 12 0 21 -13 -1 -16 -27 -2 -20
1 -25 12 -21 26 10 14 -10 -13 -22 -22 -9 -23 -11 -5 -8 28 5 29 -10 1 -19
-11 -4 -18 -9 -16 -11 3 -3 1 -21 -3 -40 -7 -30 -6 -35 7 -29 13 5 14 3 3 -11
-8 -8 -15 -34 -17 -57 -2 -23 -19 -107 -38 -187 -62 -257 -84 -354 -90 -390
-4 -19 -10 -46 -15 -60 -4 -14 -13 -52 -20 -85 -16 -76 -42 -162 -36 -120 8
62 37 208 43 218 16 26 79 363 89 472 3 39 8 73 10 77 2 4 0 9 -5 12 -11 7
-18 -20 -26 -99 -8 -80 -24 -171 -35 -198 -13 -32 -12 -13 5 88 17 106 19 169
5 160 -5 -3 -10 -2 -10 4 0 5 5 11 11 13 12 4 18 94 8 123 -3 11 -1 43 6 70 7
28 16 74 20 102 4 29 11 55 16 58 4 3 6 12 2 20 -3 10 1 15 12 15 9 0 13 5 10
11 -4 6 1 16 11 24 15 10 18 25 17 76 -2 76 7 139 47 314 50 226 102 534 92
551 -6 11 -12 13 -16 6 -8 -13 -103 -427 -121 -527 -7 -38 -16 -99 -19 -135
-8 -73 -27 -171 -63 -310 -69 -267 -119 -476 -128 -535 -2 -16 -22 -102 -44
-190 -22 -88 -53 -223 -70 -300 -17 -77 -44 -194 -60 -260 -58 -232 -75 -328
-76 -425 -1 -101 -9 -145 -32 -171 -12 -14 -11 -18 2 -29 12 -10 16 -10 19 1
2 8 10 34 17 58 l13 45 11 -55 c6 -30 17 -64 23 -76 7 -12 12 -31 12 -42 0
-33 40 -101 69 -115 17 -8 41 -10 71 -5 25 4 92 8 150 9 70 1 97 5 80 10 -16
5 19 8 93 8 65 0 117 -4 117 -9 0 -6 90 -7 225 -3 209 6 225 5 232 -12 6 -15
7 -15 15 5 7 19 13 21 42 16 20 -4 36 -2 40 4 5 7 -4 11 -24 11 -30 0 -31 1
-24 38 4 20 11 45 15 54 5 9 9 26 9 36 0 19 6 20 103 16 56 -2 124 -9 150 -14
87 -18 357 -8 357 12 0 6 -47 9 -119 7 -66 -2 -123 -1 -127 4 -4 4 15 7 42 8
27 1 128 3 224 5 96 2 182 1 190 -3 8 -3 26 -7 40 -9 14 -1 54 -5 89 -9 51 -6
63 -5 59 6 -3 10 -27 14 -89 14 -46 0 -87 4 -91 10 -8 11 -169 11 -570 -1
l-238 -7 0 32 c0 26 3 31 18 27 98 -29 288 -31 587 -6 72 7 177 15 235 20 102
8 -2 7 -315 -5 -213 -8 -399 -4 -413 9 -5 5 401 12 454 7 12 -1 32 3 45 8 16
7 -58 10 -228 10 -162 1 -253 5 -253 11 0 6 12 10 26 10 19 0 25 4 20 15 -4
11 1 15 17 14 12 0 16 -3 10 -6 -32 -13 -7 -23 57 -23 51 0 69 3 68 13 -2 7 6
11 17 10 47 -4 89 -5 254 -4 96 1 172 3 169 6 -13 13 -662 29 -654 16 9 -14
-46 -62 -62 -56 -8 3 -18 5 -23 5 -6 0 -7 5 -4 11 4 5 8 31 10 57 6 84 15 135
27 149 6 7 8 16 5 19 -2 3 1 27 8 54 7 27 16 86 20 132 4 46 11 88 15 93 4 6
15 49 25 97 l18 86 41 -3 c22 -2 174 -4 337 -4 l297 -1 6 -45 c4 -25 14 -51
22 -59 9 -9 10 -16 3 -18 -7 -2 -8 -20 -4 -52 4 -27 11 -43 15 -36 5 8 9 7 14
-5 9 -24 7 -37 -4 -30 -16 10 -12 -25 5 -42 12 -11 14 -26 10 -58 -4 -26 -1
-65 8 -101 8 -33 19 -81 23 -109 4 -27 9 -54 9 -60 1 -5 3 -17 3 -26 1 -9 20
-39 43 -68 29 -36 39 -56 34 -71 -3 -11 -2 -20 4 -20 5 0 29 -20 53 -45 49
-51 60 -55 54 -20 -7 36 -36 84 -80 133 -43 46 -90 122 -76 122 4 0 10 -7 14
-15 3 -8 12 -15 21 -15 11 0 13 5 8 18 -7 15 -8 30 -4 67 3 26 29 -37 36 -85
7 -51 29 -110 41 -110 3 0 3 4 0 8 -9 14 -19 65 -23 120 -6 66 13 70 22 5 4
-27 15 -82 25 -123 29 -116 32 -132 34 -172 2 -33 -1 -37 -23 -41 -22 -3 -22
-4 6 -6 17 0 35 -6 38 -11 4 -7 37 -9 85 -6 44 2 92 1 107 -3 15 -4 52 -3 81
2 77 13 762 -2 767 -17 2 -6 14 -44 26 -84 12 -40 25 -75 29 -77 7 -5 -5 62
-17 95 -4 8 -7 30 -9 48 -3 34 -50 236 -85 367 -33 122 -57 226 -83 355 -22
111 -62 291 -97 435 -7 27 -11 69 -10 92 0 24 -3 43 -8 43 -20 0 -92 321 -73
328 15 5 16 28 2 37 -6 4 -7 -1 -3 -11 4 -12 3 -15 -5 -10 -7 4 -12 19 -12 34
0 22 2 24 11 12 8 -12 9 -11 6 5 -2 11 -9 19 -15 18 -15 -4 -16 24 -1 29 9 3
8 11 -2 28 -7 14 -12 29 -11 33 1 5 -2 25 -8 45 -29 95 -37 142 -26 142 7 0 7
3 -1 8 -7 4 -14 17 -16 27 -1 11 -6 25 -10 32 -4 6 -4 18 -1 27 3 9 2 16 -4
16 -6 0 -13 19 -17 43 -4 23 -9 51 -12 62 -3 11 -6 30 -8 42 -2 12 -5 26 -8
30 -3 5 -8 29 -11 53 -12 84 -47 226 -187 753 -5 20 -15 37 -21 37 -7 0 -8
-28 -4 -87z"/>
<path d="M6322 3110 c-31 -13 -114 -112 -128 -152 -4 -10 -10 -18 -14 -18 -5
0 -6 -10 -4 -22 2 -13 2 -17 -2 -11 -4 10 -9 10 -20 -1 -22 -22 -17 -26 34
-27 45 -1 46 -1 15 -10 -55 -16 -53 -33 3 -25 50 7 84 25 49 27 -11 1 0 7 25
14 25 7 39 13 31 14 -28 2 0 15 41 18 35 4 40 2 30 -10 -10 -11 -6 -13 21 -9
17 3 26 7 20 9 -24 8 -13 25 15 23 15 -1 34 -2 42 -1 13 1 13 3 0 10 -8 6 -17
8 -22 5 -13 -8 -238 -12 -243 -4 -10 16 29 20 256 26 235 7 293 23 94 25 -86
1 -101 3 -70 10 22 4 76 8 120 9 56 0 75 3 65 10 -8 5 -48 10 -87 10 -42 0
-73 4 -73 10 0 10 35 14 105 11 36 -1 38 0 20 11 -14 9 -62 12 -157 11 -141
-1 -185 10 -60 15 38 2 91 7 118 11 l49 9 -51 1 c-28 0 -84 3 -125 6 -41 3
-84 1 -97 -5z"/>
<path d="M15933 2882 c-39 -12 -10 -31 62 -42 97 -14 538 -13 530 1 -4 6 -10
8 -13 5 -3 -3 -11 -1 -19 5 -7 6 -13 9 -13 5 0 -3 -10 -2 -23 3 -14 5 -30 5
-40 0 -11 -7 -24 -6 -37 1 -13 7 -20 7 -20 0 0 -5 -21 -9 -47 -9 -27 1 -40 3
-30 6 9 2 15 9 11 14 -3 6 -15 4 -29 -5 -18 -12 -25 -12 -28 -3 -3 9 -7 9 -18
1 -8 -6 -23 -9 -34 -7 -11 3 -31 6 -45 6 -14 1 -29 8 -33 15 -8 13 -133 16
-174 4z"/>
<path d="M12647 2863 c5 -14 -12 -18 -20 -5 -8 12 -317 3 -317 -10 0 -4 14 -8
30 -8 17 0 30 -5 30 -11 0 -7 59 -9 178 -8 224 2 402 17 396 34 -3 7 -17 10
-37 7 -65 -9 -237 -10 -237 0 0 5 5 6 10 3 6 -3 10 -1 10 4 0 6 -11 10 -24 9
-15 -1 -22 -7 -19 -15z"/>
</g>
</svg>
