<?xml version="1.0" standalone="no"?>
<!DOCTYPE svg PUBLIC "-//W3C//DTD SVG 20010904//EN"
 "http://www.w3.org/TR/2001/REC-SVG-20010904/DTD/svg10.dtd">
<svg version="1.0" xmlns="http://www.w3.org/2000/svg"
 width="1928.000000pt" height="1074.000000pt" viewBox="0 0 1928.000000 1074.000000"
 preserveAspectRatio="xMidYMid meet">
<metadata>
Created by potrace 1.16, written by Peter Selinger 2001-2019
</metadata>
<g transform="translate(0.000000,1074.000000) scale(0.100000,-0.100000)"
fill="#000000" stroke="none">
<path d="M14560 8014 c0 -5 9 -20 20 -34 28 -35 25 -48 -12 -53 -31 -4 -31 -4
6 -5 36 -2 38 -3 33 -29 -9 -47 -18 -1149 -18 -2260 -1 -600 -4 -1065 -9
-1068 -5 -3 -6 -16 -1 -29 5 -12 10 -227 10 -477 1 -250 2 -555 3 -678 1 -203
0 -224 -16 -233 -13 -7 -23 -5 -37 8 -17 15 -19 15 -19 1 0 -9 5 -19 10 -22 6
-3 10 -15 10 -25 0 -10 5 -22 12 -26 8 -5 9 0 6 14 -8 27 5 36 31 22 12 -6 18
-16 15 -25 -5 -11 -2 -13 10 -9 9 3 16 1 16 -5 0 -6 -5 -11 -11 -11 -6 0 -9
-6 -6 -14 3 -8 1 -16 -5 -18 -6 -2 3 -13 19 -24 53 -33 124 -104 117 -116 -4
-7 -3 -8 5 -4 16 10 35 -12 71 -82 25 -50 30 -71 30 -132 0 -76 6 -89 14 -30
2 19 8 58 12 85 4 28 7 55 5 60 -1 6 3 4 10 -2 9 -9 56 -13 162 -13 93 0 146
-4 142 -10 -6 -10 317 -3 345 7 15 6 166 11 365 13 114 1 125 18 12 19 -52 1
-58 3 -67 27 -10 25 -30 25 -30 -1 0 -16 -27 -28 -35 -15 -3 5 -1 11 5 15 5 3
10 40 10 81 0 52 4 74 13 74 6 0 59 -4 117 -10 201 -18 226 -19 239 -10 8 5
-25 9 -83 11 -62 3 -99 8 -104 16 -6 9 -31 11 -90 7 -68 -4 -83 -2 -88 11 -3
8 -3 22 0 30 4 13 10 14 26 5 11 -6 56 -11 100 -11 44 0 82 -5 85 -10 4 -5 -2
-9 -11 -9 -10 0 -14 -3 -11 -7 4 -3 93 -7 199 -9 106 -2 217 -7 245 -12 53 -9
53 -9 46 16 -8 31 2 26 87 -54 36 -33 83 -77 105 -97 22 -19 38 -38 35 -40 -3
-3 -63 -8 -134 -11 -71 -3 -131 -8 -134 -11 -3 -3 37 -6 89 -6 52 -1 121 -2
154 -3 l59 -1 49 -98 c27 -54 52 -96 54 -93 3 2 -13 43 -35 90 -23 47 -36 88
-31 92 10 6 48 -30 91 -86 15 -19 30 -32 33 -28 4 3 -10 24 -29 46 -20 22 -36
43 -36 47 0 4 60 5 133 2 72 -4 185 -7 250 -7 l117 0 0 -67 c0 -83 18 -74 22
12 l3 60 40 -1 c22 -1 43 3 47 9 8 13 144 22 151 10 3 -5 7 -51 8 -101 2 -117
19 -110 19 8 0 55 4 91 11 96 6 4 42 7 80 6 38 0 69 4 69 9 0 8 -17 10 -108
13 -34 1 -43 24 -36 88 3 31 7 207 8 392 1 266 -1 336 -11 336 -7 0 -13 5 -13
10 0 6 5 10 10 10 6 0 10 23 10 51 0 27 -4 48 -9 45 -14 -9 -24 172 -16 291 8
122 8 255 -2 328 -3 28 -7 250 -9 495 -3 454 -10 662 -23 641 -5 -8 -15 -9
-33 -2 -24 9 -25 12 -22 93 1 45 2 87 3 92 1 4 12 5 26 2 15 -4 25 -2 25 4 0
6 -11 15 -25 20 -14 5 -25 11 -25 13 0 2 11 2 25 -1 23 -4 25 -1 26 37 1 22 3
46 4 51 1 6 4 25 6 43 1 17 6 -65 11 -183 5 -118 10 -255 13 -305 2 -49 4
-285 4 -522 1 -400 8 -516 25 -377 3 30 6 263 6 517 0 360 -3 477 -14 529 -8
36 -12 84 -10 105 9 68 4 646 -6 707 -5 34 -6 64 -1 70 13 16 16 217 12 750
-3 437 -2 479 12 473 9 -3 19 -2 22 3 4 6 2 10 -2 10 -9 0 -27 15 -168 138
-134 117 -246 202 -257 196 -5 -3 -3 -13 6 -23 9 -10 16 -22 16 -27 0 -5 16
-20 34 -34 101 -75 263 -218 255 -224 -2 -1 -62 1 -134 6 -124 8 -230 6 -621
-8 l-171 -6 -39 48 c-40 49 -160 167 -195 192 -10 7 -19 17 -19 21 0 4 174 7
388 7 367 -1 462 4 462 23 0 15 -154 20 -455 14 -359 -6 -442 -12 -436 -33 2
-8 3 -22 3 -30 -1 -8 -7 -76 -13 -150 -13 -147 -14 -198 -8 -803 2 -224 1
-415 -2 -425 -3 -9 -1 -24 4 -33 6 -9 7 -25 3 -35 -8 -18 -8 -18 -17 1 -6 14
-8 2 -6 -38 4 -70 0 -63 -52 79 -21 60 -54 141 -71 179 -18 39 -50 122 -71
185 -35 109 -115 314 -144 369 -7 15 -41 98 -75 186 -34 88 -70 174 -80 192
-21 36 -16 47 14 31 21 -11 21 -11 2 10 -10 12 -22 20 -26 17 -7 -5 -66 55
-94 95 -40 60 -70 97 -102 133 -19 20 -33 41 -31 45 2 4 -11 20 -30 36 l-34
29 7 -28 c11 -43 68 -132 126 -195 61 -66 108 -121 108 -126 0 -1 -21 -1 -47
1 -27 2 -222 4 -435 5 l-388 2 -31 36 c-17 19 -51 66 -76 105 -24 38 -55 81
-68 95 -13 14 -22 28 -20 31 2 4 63 3 137 -1 226 -12 688 -14 685 -3 -6 16
-123 23 -515 29 l-367 6 -32 41 c-18 23 -33 38 -33 33z m2046 -411 c-3 -7 -1
-15 4 -18 10 -6 10 -55 0 -55 -3 0 -6 -46 -7 -103 -2 -56 -3 -109 -3 -117 -2
-46 -2 -388 0 -405 6 -63 -3 -392 -12 -402 -19 -24 -25 -13 -21 41 2 30 0 56
-4 59 -4 3 -9 -16 -11 -41 -1 -26 -3 -56 -5 -67 -2 -16 3 -19 26 -17 l28 4 -5
-94 c-6 -115 -9 -134 -20 -145 -5 -4 -6 -3 -2 4 3 6 2 14 -3 17 -15 9 -19 -65
-4 -79 17 -17 16 -22 -2 -22 -8 0 -12 4 -9 8 2 4 0 10 -5 13 -10 7 -26 83 -22
105 1 7 0 20 -4 29 -5 13 -8 14 -14 3 -13 -20 -51 18 -55 55 -15 116 -17 168
-6 154 9 -12 10 -9 5 15 -4 17 -9 62 -11 100 -4 83 -12 125 -24 125 -11 0 -19
-103 -8 -115 4 -5 8 -14 8 -20 0 -5 -5 -3 -11 5 -8 12 -9 9 -4 -10 3 -14 8
-59 9 -100 2 -41 4 -79 6 -85 1 -5 1 -21 0 -35 -2 -25 -2 -25 -15 5 -8 17 -12
37 -9 46 2 9 -1 29 -8 45 -20 48 -14 115 6 72 3 -7 3 0 0 17 -3 16 -10 33 -16
36 -7 4 -7 9 0 13 11 7 14 75 4 91 -4 6 -7 177 -8 380 -1 204 -3 449 -4 545
-1 96 -2 179 -1 185 1 5 55 -44 121 -110 66 -66 118 -125 116 -132z m-1746 -4
c0 -10 -5 -19 -12 -21 -6 -2 -8 -10 -4 -17 5 -7 8 -159 7 -339 -1 -180 -4
-968 -7 -1752 -3 -784 -5 -1440 -5 -1458 1 -18 -3 -41 -8 -51 -5 -9 -6 -23 -1
-31 5 -8 2 -23 -8 -38 -12 -19 -13 -27 -4 -30 6 -2 12 -10 12 -18 0 -10 -5
-12 -12 -8 -9 5 -8 2 1 -9 11 -13 11 -23 3 -41 -8 -17 -7 -27 1 -35 9 -9 8
-14 -3 -21 -10 -7 -11 -10 -2 -10 6 0 12 -9 12 -20 0 -11 -4 -20 -10 -20 -5 0
-10 -7 -10 -15 0 -8 5 -15 11 -15 6 0 9 -8 7 -17 -6 -31 -23 -9 -25 32 -1 22
-2 42 -3 45 -1 3 -2 30 -1 61 0 31 -5 64 -12 73 -10 13 -12 -3 -14 -86 -2
-134 -3 -359 -1 -378 3 -41 -3 -153 -8 -147 -6 6 -10 74 -18 347 -3 85 -8 163
-12 173 -3 10 -2 29 5 43 13 30 15 64 2 64 -4 0 -6 -11 -3 -25 2 -15 0 -25 -7
-25 -6 0 -10 16 -9 40 1 39 11 52 21 28 3 -7 6 -3 6 10 1 17 -5 22 -22 22 -24
0 -24 -2 -19 -75 3 -52 1 -75 -7 -75 -6 0 -12 17 -13 38 -1 20 -3 51 -4 67
-11 112 -12 250 -3 268 8 14 8 18 0 13 -14 -9 -15 27 -2 71 5 17 7 34 4 37
-12 12 -10 66 3 77 8 6 14 16 14 22 0 6 -6 3 -13 -7 -12 -16 -13 -14 -9 19 3
25 11 39 26 45 17 7 18 9 4 9 -12 1 -18 9 -18 27 0 14 -4 23 -10 19 -5 -3 -10
3 -10 15 0 12 -5 30 -11 41 -13 25 -20 89 -9 89 4 0 11 -10 14 -22 7 -22 7
-22 16 -3 5 12 9 14 9 6 1 -8 3 -12 6 -9 3 3 -1 20 -9 39 -7 19 -13 49 -11 67
1 18 -3 37 -10 42 -8 7 -10 2 -7 -20 2 -17 0 -30 -5 -30 -5 0 -9 36 -10 80 0
73 1 78 18 70 22 -12 29 -12 29 -2 0 5 -11 14 -24 20 -22 10 -24 17 -24 79 0
59 2 64 11 41 6 -16 14 -28 19 -28 12 0 10 8 -9 37 -10 15 -19 40 -20 57 -15
175 -24 1552 -12 1701 13 156 18 710 8 900 -4 87 -6 162 -3 164 6 7 26 -18 97
-118 l52 -75 2 -180 c2 -229 1 -226 11 -226 4 0 8 93 9 207 1 235 3 228 -79
319 -97 110 -93 109 20 -1 62 -60 112 -117 112 -126z m353 11 c5 -4 -34 -10
-85 -14 -162 -12 -216 -19 -189 -26 24 -5 92 -1 296 19 55 6 183 13 285 17
102 3 197 8 212 9 32 4 40 -6 56 -61 19 -67 14 -72 -23 -20 -48 68 -53 70 -18
6 118 -216 113 -204 252 -540 97 -237 130 -324 124 -333 -3 -6 -2 -7 3 -4 10
6 45 -86 154 -408 37 -110 77 -222 90 -250 12 -27 39 -105 61 -173 73 -229
201 -508 253 -551 16 -13 17 -12 10 15 -4 16 -17 59 -29 95 -19 54 -23 88 -23
200 0 74 -1 218 -3 321 -1 103 0 191 4 194 3 4 2 16 -4 26 -7 14 -8 23 -1 30
6 6 7 20 3 32 -4 11 -6 37 -5 56 6 66 15 676 15 970 0 162 3 315 5 340 l5 45
324 2 323 2 6 -32 c8 -45 12 -1803 8 -3557 -1 -426 1 -795 4 -820 2 -25 6
-125 8 -223 l3 -179 -30 6 c-16 3 -132 6 -258 6 -219 0 -229 1 -229 19 0 11 6
22 13 24 15 7 -10 27 -33 27 -13 -1 -13 -2 0 -13 23 -17 13 -47 -15 -47 -27 0
-41 36 -18 48 13 8 11 12 -10 28 -13 11 -28 30 -32 43 -6 21 -5 23 14 18 14
-3 21 -1 18 6 -2 6 -14 14 -27 17 -16 4 -27 18 -37 45 -7 22 -17 49 -22 60
-15 33 -42 104 -72 193 -15 46 -37 98 -48 115 -11 18 -37 84 -59 147 -123 354
-160 452 -202 531 -11 20 -21 50 -22 68 -1 18 -6 35 -10 37 -5 3 -6 10 -3 15
4 5 2 9 -3 9 -5 0 -12 13 -15 29 -4 16 -16 50 -27 75 -12 24 -23 55 -24 68 -2
13 -16 52 -33 88 -41 87 -57 125 -81 190 -12 30 -37 96 -56 146 -20 51 -36 95
-36 98 0 13 -141 378 -161 418 -5 10 -6 24 -3 33 4 9 1 15 -7 15 -10 0 -10 3
-3 8 7 4 8 15 3 27 -7 17 -8 18 -8 2 -1 -15 -5 -16 -21 -7 -11 6 -20 16 -20
23 -1 12 -60 76 -60 63 0 -17 33 -55 43 -49 6 4 8 0 4 -10 -4 -10 1 -22 15
-31 11 -8 17 -19 13 -26 -5 -8 -11 -8 -21 1 -22 18 -30 2 -10 -20 15 -17 17
-34 12 -123 -2 -57 -5 -155 -5 -218 1 -105 -2 -1114 -4 -1780 0 -151 1 -301 4
-333 l4 -58 -429 0 c-235 0 -430 2 -432 4 -11 11 -14 208 -13 992 3 3393 4
3728 16 3732 9 3 10 9 1 22 -6 10 -8 26 -5 35 6 15 23 16 159 10 84 -4 157
-10 161 -14z m2289 -1123 c20 -6 20 -10 13 -113 -5 -80 -4 -105 4 -99 8 4 12
42 11 113 -1 137 -2 134 10 127 6 -3 10 0 10 7 0 7 7 2 16 -10 8 -12 13 -26 9
-31 -3 -5 -1 -12 5 -16 13 -8 13 -172 0 -180 -5 -3 -10 -15 -10 -27 0 -17 -2
-18 -15 -8 -13 10 -15 9 -16 -11 l0 -24 -11 25 c-10 23 -12 20 -19 -34 -7 -48
-6 -61 7 -70 12 -9 13 -17 5 -39 -7 -17 -9 -77 -7 -148 3 -98 2 -119 -10 -119
-8 0 -14 -5 -14 -12 0 -6 -6 -3 -14 8 -12 15 -14 50 -11 172 2 84 8 158 13
165 6 7 12 30 14 51 2 30 -1 39 -14 41 -20 4 -43 -20 -34 -34 4 -5 1 -13 -5
-17 -7 -4 -9 -3 -5 4 3 6 1 14 -5 17 -5 4 -8 14 -4 23 3 8 0 19 -7 23 -9 6
-14 40 -16 102 -4 88 -2 95 16 99 27 8 32 -7 32 -103 0 -43 4 -79 9 -79 11 0
9 180 -2 198 -5 7 -3 12 3 12 6 0 10 6 9 13 -1 6 0 19 1 27 2 8 5 1 7 -16 3
-22 11 -34 25 -37z m-13 -1221 c7 -26 11 -79 9 -130 -2 -47 1 -87 6 -89 4 -1
8 -38 7 -81 -1 -46 4 -85 10 -92 6 -8 10 -14 8 -15 -58 -13 -81 1 -69 41 14
50 15 117 1 134 -10 12 -10 16 -1 16 17 0 8 203 -10 225 -12 14 -12 18 1 26
22 14 24 12 38 -35z m-1664 -627 c15 -44 45 -122 67 -172 22 -51 50 -119 63
-152 47 -124 87 -233 115 -310 36 -100 44 -123 120 -324 33 -90 58 -171 55
-179 -3 -8 3 -28 14 -46 28 -46 125 -295 118 -303 -2 -2 -23 16 -45 39 -49 49
-56 45 -11 -7 24 -27 27 -35 14 -35 -9 0 -13 -5 -10 -10 3 -6 17 -7 30 -4 23
6 29 1 79 -56 22 -25 38 -61 30 -68 -4 -4 -9 -1 -11 6 -3 6 -9 12 -15 12 -6 0
-17 8 -25 18 -14 16 -14 16 -9 0 4 -14 0 -18 -22 -18 -20 0 -23 3 -12 10 8 5
12 11 9 14 -3 3 -120 8 -260 11 -139 3 -268 8 -286 11 l-32 5 0 462 c0 254 -3
623 -6 820 -4 196 -4 357 -2 357 3 0 17 -36 32 -81z m1742 -240 c6 -12 10 -34
7 -48 -2 -14 -6 -39 -7 -56 -5 -38 -33 -46 -46 -13 l-10 23 0 -22 c-1 -13 -5
-23 -11 -23 -5 0 -10 -5 -10 -11 0 -6 6 -9 14 -6 11 4 14 -7 15 -51 0 -57 -11
-93 -26 -79 -4 5 -3 11 2 15 18 13 16 33 -7 52 -20 17 -20 19 -5 20 21 0 23
16 3 23 -11 5 -13 13 -6 39 12 45 9 148 -4 148 -6 0 -5 4 3 9 25 16 75 5 88
-20z m-1392 -227 c-2 -7 4 -18 15 -24 11 -7 20 -17 20 -23 0 -25 105 -276 134
-319 16 -23 16 -30 5 -37 -12 -7 -12 -9 0 -9 7 0 11 -6 8 -14 -3 -8 3 -22 13
-31 16 -15 32 -55 31 -82 0 -5 6 -11 14 -15 7 -5 11 -17 8 -28 -3 -10 2 -40
11 -66 21 -62 20 -63 -9 -21 -23 36 -50 109 -48 134 0 7 -2 11 -6 8 -9 -5 -27
34 -82 175 -21 55 -47 119 -59 144 -11 25 -22 53 -23 63 -5 23 -13 44 -43 114
-29 69 -29 73 -4 57 11 -7 18 -19 15 -26z m1325 -119 c0 -16 4 -21 15 -17 11
5 13 2 9 -9 -5 -13 0 -15 30 -10 l36 6 0 -70 c0 -75 -14 -108 -42 -98 -13 5
-18 22 -20 73 -4 86 -22 91 -26 8 -3 -62 -2 -66 32 -102 22 -24 32 -42 28 -53
-5 -13 -7 -11 -12 8 -7 33 -30 39 -31 9 l0 -23 -10 23 c-5 13 -14 20 -19 17
-7 -4 -7 -12 -2 -18 5 -7 8 -31 8 -54 -1 -24 2 -43 7 -43 4 0 7 5 7 10 0 6 5
10 11 10 7 0 5 -10 -5 -26 -10 -14 -15 -31 -12 -37 2 -7 5 -3 6 8 1 19 1 19
11 2 8 -14 8 -22 0 -30 -6 -6 -11 -27 -11 -48 0 -20 -3 -63 -6 -97 -5 -47 -11
-61 -25 -65 -11 -3 -19 -1 -19 4 0 5 5 9 11 9 6 0 10 40 10 113 0 61 0 121 0
132 0 21 -10 228 -15 302 -1 23 1 40 6 37 4 -3 6 10 4 28 -2 18 -2 37 1 42 8
12 23 -15 23 -41z m-2847 -252 c1 -66 -1 -121 -5 -121 -4 0 -1 -15 7 -33 11
-26 11 -37 3 -45 -17 -17 -11 -362 8 -454 3 -17 1 -28 -5 -28 -27 0 -33 64
-35 398 -1 188 1 342 5 342 4 0 7 6 6 13 -1 30 3 60 8 55 3 -3 7 -60 8 -127z"/>
<path d="M16740 6392 c0 -121 1 -122 65 -122 57 0 66 19 63 129 l-3 96 -62 3
-63 3 0 -109z m103 76 c-2 -5 -3 -46 -3 -93 l0 -85 -40 0 -40 0 0 96 0 95 43
-3 c23 -2 41 -6 40 -10z"/>
<path d="M16763 5703 c-22 -4 -23 -8 -23 -114 0 -121 -5 -114 75 -109 45 2 52
20 51 122 -2 80 -5 92 -22 99 -21 8 -46 9 -81 2z"/>
<path d="M17147 5698 c-13 -10 -19 -35 -23 -103 -6 -79 -4 -93 11 -109 14 -14
27 -16 59 -10 22 3 44 8 49 11 4 2 7 51 7 108 0 85 -3 104 -16 109 -26 10 -69
7 -87 -6z m81 -111 l3 -98 -38 3 -38 3 -3 84 c-4 105 -1 113 40 109 l33 -3 3
-98z"/>
<path d="M16748 5270 c-14 -9 -16 -23 -11 -103 3 -50 10 -98 15 -104 6 -7 32
-13 59 -13 l49 0 0 109 c0 90 -3 110 -16 115 -24 9 -77 7 -96 -4z m90 -117 l3
-93 -40 0 c-22 0 -41 5 -43 13 -3 9 -2 128 2 175 0 2 17 2 38 0 l37 -3 3 -92z"/>
<path d="M16937 5273 c-4 -3 -7 -55 -7 -114 l0 -107 31 -4 c18 -3 46 -2 63 1
l31 7 0 98 c1 71 -3 103 -13 112 -14 14 -93 19 -105 7z"/>
<path d="M17163 5273 c-29 -6 -35 -28 -31 -133 l3 -85 34 -3 c19 -2 44 -1 57
2 23 6 24 10 24 106 0 99 0 101 -26 110 -14 6 -28 9 -32 9 -4 -1 -17 -4 -29
-6z"/>
<path d="M16757 4843 c-16 -4 -17 -16 -15 -108 l3 -103 30 -5 c17 -3 43 -3 58
0 32 6 39 35 35 143 l-3 75 -45 2 c-25 0 -53 -1 -63 -4z m91 -110 l3 -93 -41
0 -40 0 0 96 0 95 38 -3 37 -3 3 -92z"/>
<path d="M16764 4438 c-4 -7 -10 -53 -12 -102 -4 -78 -2 -91 14 -103 23 -17
89 -17 101 0 5 6 9 57 8 112 l-1 100 -51 3 c-34 2 -54 -1 -59 -10z"/>
<path d="M16952 4438 c-8 -8 -12 -46 -12 -115 l0 -103 43 0 c90 0 88 -1 85
119 l-3 106 -50 3 c-30 2 -55 -2 -63 -10z m86 -105 l-3 -98 -35 0 -35 0 -3 98
-3 97 41 0 41 0 -3 -97z"/>
<path d="M16970 4017 c-24 -12 -25 -17 -26 -110 0 -63 3 -97 10 -98 6 -1 26
-3 44 -5 64 -7 70 4 65 108 -3 51 -8 96 -12 100 -13 15 -57 18 -81 5z"/>
<path d="M16968 3642 c-12 -2 -16 -23 -21 -95 -7 -101 0 -117 52 -117 64 0 71
7 70 74 0 33 -3 79 -7 101 -7 38 -9 40 -43 40 -19 0 -42 -1 -51 -3z"/>
<path d="M16755 3632 c-11 -11 -5 -178 7 -190 13 -13 49 -15 84 -6 19 5 22 15
28 96 4 50 5 93 2 95 -6 7 -115 11 -121 5z"/>
<path d="M4768 7968 c-2 -24 -7 -32 -18 -29 -29 8 -359 9 -715 2 l-360 -6 210
-8 c116 -4 278 -12 360 -18 149 -10 278 -8 408 6 48 6 67 5 67 -4 0 -6 -11
-17 -25 -23 -14 -6 -25 -14 -25 -18 0 -4 -30 -28 -67 -53 -67 -46 -103 -76
-195 -163 -44 -42 -49 -45 -90 -40 -24 3 -121 6 -215 7 -194 2 -296 15 -153
20 47 1 94 2 105 1 50 -4 285 11 285 18 0 5 -42 6 -92 4 -51 -3 -157 -5 -236
-5 -108 -1 -146 -4 -157 -15 -18 -18 -33 -18 -52 2 -21 20 -69 15 -65 -8 2
-12 -3 -15 -19 -11 -16 4 -17 8 -7 14 10 7 9 9 -4 9 -10 0 -18 -6 -18 -13 0
-15 -57 -16 -80 -2 -9 5 -11 4 -6 -3 5 -8 -3 -12 -26 -12 -18 0 -44 -3 -58 -6
l-25 -6 25 21 c14 12 88 64 165 115 148 99 219 155 197 156 -21 0 -117 -59
-295 -181 -89 -61 -173 -116 -187 -122 l-25 -11 27 -3 c34 -5 36 -19 35 -363
0 -267 12 -867 19 -902 4 -25 -5 -22 -28 7 -25 32 -45 31 -85 -4 -28 -24 -44
-29 -115 -35 -102 -8 -145 0 -165 30 -8 13 -21 24 -29 24 -7 0 -16 5 -19 10
-9 15 -19 1063 -10 1107 6 32 9 35 15 18 7 -17 9 -15 9 12 1 17 -6 39 -15 47
-12 13 -13 16 -1 16 15 0 16 78 2 207 -4 39 -4 92 -1 117 7 41 10 46 34 46 15
0 34 5 42 11 11 8 -4 9 -55 5 -38 -3 -248 -8 -465 -12 -217 -3 -411 -10 -431
-15 -20 -5 -58 -26 -85 -47 -42 -33 -150 -100 -302 -189 -37 -22 -67 -30 -58
-15 2 4 -2 16 -10 27 -13 18 -14 18 -14 -8 0 -15 -9 -32 -22 -41 l-22 -16 21
0 c19 0 21 -3 13 -30 -5 -16 -7 -42 -5 -57 9 -60 30 -704 30 -873 -1 -172 -16
-512 -25 -553 -4 -20 -5 -52 0 -70 4 -18 8 -118 8 -223 1 -104 6 -245 11 -314
9 -103 7 -850 -2 -1240 -1 -47 1 -114 6 -150 4 -36 12 -105 18 -155 29 -243
108 -461 241 -658 21 -31 36 -57 32 -57 -3 0 -45 37 -92 83 -141 136 -64 45
114 -135 108 -109 194 -186 244 -219 l78 -52 7 -75 c6 -66 5 -77 -11 -89 -15
-11 17 -13 197 -13 121 0 231 -5 254 -11 44 -12 651 -19 725 -8 34 4 21 6 -52
7 -58 1 -98 6 -98 12 0 6 -22 10 -50 10 -27 0 -50 4 -50 9 0 5 69 10 158 11
86 0 162 1 167 1 6 0 21 -3 35 -6 19 -5 21 -4 10 4 -20 14 -9 22 39 28 22 3
39 9 36 13 -2 4 15 15 38 25 23 10 88 41 145 68 56 27 105 48 107 45 3 -2 7
-43 9 -90 l5 -85 -174 3 c-152 2 -173 0 -160 -12 20 -20 271 -23 334 -3 35 10
46 10 49 1 7 -21 36 -13 70 19 25 23 36 29 45 20 15 -15 104 -14 113 1 5 7 1
9 -13 6 -11 -3 -28 -1 -37 4 -11 6 -16 5 -16 -3 0 -7 -7 -4 -16 7 -13 15 -15
16 -10 2 3 -12 1 -15 -10 -11 -17 6 -17 9 -4 34 6 10 20 19 30 19 11 0 20 5
20 10 0 11 -13 14 -45 10 -14 -1 -17 2 -10 9 15 15 88 2 75 -14 -5 -6 -7 -15
-3 -18 11 -11 241 -8 248 3 4 6 -10 10 -33 10 -26 0 -42 5 -45 15 -5 11 -1 12
16 6 12 -5 32 -5 45 0 12 5 22 5 22 1 0 -4 12 -7 28 -6 15 1 38 2 51 3 40 2
15 13 -28 13 -22 0 -43 4 -47 9 -4 6 -10 6 -19 -1 -9 -8 -14 -6 -19 5 -5 15
-36 22 -36 8 0 -5 -15 -7 -33 -7 -49 2 -50 3 -33 19 17 17 43 20 48 5 2 -7 14
-7 36 1 17 6 29 15 26 20 -3 5 -9 7 -13 4 -5 -2 -47 -5 -95 -6 -47 -1 -86 -7
-86 -12 0 -5 15 -7 35 -4 28 5 33 3 23 -7 -13 -13 -103 -15 -115 -3 -3 4 3 7
15 7 11 0 24 5 27 10 4 6 -11 10 -39 8 -25 0 -46 -5 -46 -10 0 -4 7 -8 15 -8
26 0 16 -15 -11 -16 -16 -1 -24 2 -21 10 3 7 -8 21 -24 30 -16 10 -27 22 -23
27 4 6 11 6 20 -1 29 -25 524 -13 524 12 0 5 -9 7 -19 3 -11 -3 -22 -2 -24 2
-3 5 -37 7 -76 6 -40 -1 -71 2 -71 7 0 5 61 9 145 8 80 0 149 2 152 6 4 3 -18
6 -48 7 -30 1 -112 3 -184 6 -71 3 -156 5 -187 6 -32 0 -58 4 -58 8 0 17 186
26 192 9 2 -6 27 -4 65 4 34 7 66 9 70 5 5 -4 42 -10 83 -13 53 -5 69 -4 53 4
-36 15 -27 25 27 27 51 3 60 -3 38 -25 -9 -9 -9 -12 0 -12 7 0 12 5 12 10 0 6
11 3 26 -6 19 -13 28 -14 37 -5 8 8 6 11 -10 11 -11 0 -28 11 -36 24 -12 17
-25 24 -49 24 -18 0 -130 3 -248 7 -266 10 -262 10 -338 2 -58 -7 -62 -6 -53
10 5 10 54 61 108 114 107 104 276 285 282 303 2 6 13 19 25 29 11 10 15 15 7
11 -9 -4 -12 -2 -9 7 3 8 11 13 17 11 7 -1 10 2 7 7 -4 5 -2 12 3 16 12 7 74
135 92 190 7 22 16 45 20 50 23 34 128 468 134 555 1 20 5 45 9 57 5 15 2 25
-11 32 -12 7 -13 10 -4 11 10 0 12 15 7 73 -4 39 -8 137 -10 217 -6 197 -17
482 -20 514 -2 14 0 26 3 26 5 0 6 196 1 210 -2 3 -2 9 -1 14 1 4 1 119 0 255
-1 278 0 1323 2 1536 1 77 -1 211 -4 297 -3 86 -3 165 -1 175 6 23 57 53 92
54 l27 1 -29 8 c-21 7 -35 5 -52 -7 -14 -9 -28 -13 -32 -9 -7 8 -8 13 -10 69
-2 46 -20 49 -24 5z m-1778 -56 c0 -12 -67 -65 -108 -86 -19 -10 -59 -41 -90
-69 -106 -97 -106 -97 -244 -102 -70 -3 -127 -10 -133 -16 -7 -8 -4 -10 10 -6
11 3 60 8 109 12 72 6 87 4 84 -7 -5 -16 -117 -25 -318 -27 -74 -1 -153 -5
-175 -10 -22 -5 -66 -12 -97 -16 -32 -3 -58 -10 -58 -15 0 -4 8 -6 18 -4 38
10 622 9 623 -1 1 -5 1 -13 0 -18 -1 -4 0 -193 1 -420 2 -511 2 -513 -2 -562
-1 -22 -2 -105 -1 -185 2 -115 -1 -151 -13 -175 -9 -16 -13 -37 -11 -46 4 -12
-13 -29 -60 -59 l-65 -42 -36 17 c-21 10 -46 14 -60 11 -35 -9 -66 -63 -59
-102 6 -33 -3 -45 -108 -144 -43 -40 -51 -44 -99 -45 -45 0 -54 -3 -66 -25
-13 -23 -13 -30 2 -62 20 -41 16 -62 -19 -118 -12 -19 -37 -63 -55 -98 -22
-41 -41 -64 -56 -68 -52 -13 -74 -69 -47 -122 19 -37 19 -38 -5 -137 -21 -89
-27 -102 -53 -117 -33 -19 -43 -56 -10 -38 30 15 32 13 29 -27 -4 -44 -32 -58
-43 -22 -7 20 -8 21 -17 5 -10 -18 10 -60 40 -82 11 -8 14 -35 13 -120 -2
-101 -4 -110 -26 -129 -25 -22 -37 -77 -24 -112 5 -13 25 -31 46 -40 22 -11
39 -26 41 -38 2 -11 15 -57 29 -102 24 -76 24 -83 9 -98 -18 -19 -21 -67 -6
-96 7 -13 21 -19 45 -19 36 0 54 -19 118 -132 24 -41 25 -48 11 -56 -17 -9
-36 -78 -28 -103 10 -34 73 -48 128 -28 30 11 33 9 98 -57 38 -37 68 -70 68
-73 0 -4 -9 -14 -20 -24 -25 -21 -18 -37 16 -37 21 0 24 4 19 20 -7 23 13 28
22 5 3 -9 19 -23 35 -31 34 -18 28 -30 -18 -40 -25 -5 -37 0 -60 21 -26 24
-29 25 -33 9 -5 -27 52 -74 91 -74 33 0 68 24 68 47 0 19 5 17 87 -23 71 -36
83 -47 63 -59 -26 -16 5 -109 41 -120 26 -9 49 11 49 43 0 24 -1 24 -13 8 -11
-15 -17 -17 -35 -7 -24 13 -38 53 -26 72 5 9 10 9 18 -2 18 -22 54 -39 71 -33
19 8 20 -14 1 -58 -8 -18 -35 -112 -61 -208 -26 -96 -49 -181 -51 -187 -2 -9
-25 -13 -67 -13 -49 0 -68 -4 -78 -17 -10 -11 -10 -14 -1 -9 17 10 15 -9 -3
-24 -21 -17 -51 -1 -123 65 -39 35 -51 43 -42 25 16 -30 -107 76 -177 154
-151 166 -271 398 -312 606 -41 205 -52 283 -41 290 9 6 9 22 -1 66 -16 68
-18 425 -6 740 7 177 -2 563 -19 814 -8 130 -9 425 0 720 5 178 3 451 -4 729
-9 331 -9 446 0 455 8 8 73 10 215 8 124 -2 205 0 209 6 8 13 -174 26 -278 20
-42 -2 -76 -1 -76 2 0 8 142 101 215 141 33 18 76 48 96 67 l36 34 304 3 c167
2 318 6 334 9 17 3 61 7 99 10 38 3 71 8 74 11 9 8 52 6 52 -3z m-15 -209 c-3
-82 -8 -213 -12 -293 -4 -80 -6 -170 -5 -200 1 -30 4 -238 8 -461 6 -373 5
-408 -11 -442 -9 -20 -24 -37 -32 -37 -11 0 -13 13 -8 66 6 68 -1 97 -16 73
-7 -11 -9 -10 -9 4 0 9 6 17 14 17 10 0 13 20 11 90 -2 111 -15 133 -15 27 0
-71 -2 -77 -21 -77 -11 0 -18 -4 -15 -9 3 -4 8 -39 12 -77 7 -86 11 -111 18
-123 7 -10 -53 -36 -106 -46 -20 -4 -38 -3 -41 2 -3 5 -7 64 -9 131 -2 67 -7
122 -11 122 -4 0 -7 -56 -5 -125 2 -105 1 -123 -10 -108 -10 14 -12 61 -10
196 2 103 -1 178 -6 180 -5 2 -6 8 -2 15 4 6 9 171 11 367 2 195 6 359 9 364
3 4 8 61 12 126 l5 119 37 33 c45 41 54 41 51 1 -6 -87 9 -105 18 -22 3 33 1
49 -9 55 -10 7 -7 12 12 26 34 24 110 106 110 119 0 9 20 34 27 34 2 0 1 -66
-2 -147z m1781 55 c-4 -64 -5 -157 -4 -333 1 -27 0 -138 -1 -245 -1 -107 -1
-443 0 -747 0 -303 -2 -556 -6 -562 -3 -6 -2 -11 4 -11 6 0 9 -90 9 -247 0
-216 -3 -249 -17 -260 -12 -9 -13 -12 -2 -13 8 0 11 -7 8 -20 -3 -11 -2 -18 1
-16 4 2 8 -60 9 -137 1 -78 4 -172 6 -209 4 -48 2 -68 -6 -68 -7 0 -6 -4 3
-10 12 -8 13 -11 1 -19 -9 -6 -10 -11 -2 -15 6 -4 11 -13 11 -19 0 -7 -4 -6
-10 3 -16 25 -12 -27 4 -53 16 -28 21 -107 6 -107 -7 0 -9 8 -5 20 4 11 2 20
-4 20 -6 0 -11 -18 -11 -40 0 -25 5 -40 13 -40 9 0 9 -2 0 -8 -6 -4 -15 -36
-19 -72 -10 -91 -9 -89 -17 -96 -4 -4 -7 5 -7 19 0 15 -1 29 -2 32 -8 26 -13
95 -6 95 4 0 8 19 7 43 l-1 42 -11 -45 c-7 -25 -11 -70 -10 -100 2 -38 0 -50
-7 -40 -8 13 -10 12 -10 -2 0 -10 5 -18 10 -18 6 0 11 -20 10 -47 0 -27 2 -60
6 -75 4 -18 2 -28 -5 -28 -7 0 -8 -8 -1 -24 5 -13 7 -26 5 -28 -2 -2 -6 -63
-9 -135 -6 -142 -30 -247 -81 -356 -33 -69 -44 -70 -15 -1 12 27 16 43 9 37
-27 -27 -29 -11 -3 23 20 26 27 46 26 73 -2 23 1 31 6 23 7 -11 10 -9 14 6 4
15 2 19 -8 15 -20 -7 -17 14 4 27 16 11 16 11 0 6 -20 -6 -23 6 -8 34 11 20 2
83 -11 75 -4 -3 -8 -13 -8 -23 0 -34 -14 -107 -23 -119 -5 -6 -11 -25 -13 -42
-2 -16 -11 -41 -20 -55 -17 -26 -45 -42 -45 -26 0 6 4 10 10 10 5 0 9 10 9 23
-2 26 18 79 32 88 6 3 11 17 11 30 1 13 6 31 12 39 10 13 9 13 -6 1 -11 -8
-18 -9 -18 -3 0 6 5 14 10 17 6 4 8 11 5 16 -3 5 0 6 8 3 10 -4 13 3 12 27 -1
21 5 39 18 52 14 14 20 32 19 58 -1 29 2 37 12 33 11 -4 13 0 9 15 -3 11 -9
18 -14 15 -5 -3 -9 2 -9 11 0 9 5 13 10 10 6 -3 10 1 10 9 0 9 -8 16 -17 16
-16 1 -16 2 -3 13 16 13 22 139 6 154 -4 4 -7 1 -6 -7 1 -8 2 -40 1 -70 -2
-48 -4 -52 -12 -30 -6 14 -8 57 -4 98 4 52 2 72 -5 67 -8 -5 -10 -54 -7 -157
4 -126 3 -149 -9 -144 -8 3 -14 1 -14 -4 0 -6 6 -10 13 -10 8 0 7 -4 -3 -10
-10 -6 -11 -10 -2 -10 6 0 12 -10 12 -22 0 -18 -2 -20 -10 -8 -12 19 -19 11
-24 -31 -2 -19 -9 -33 -14 -32 -6 2 -17 -13 -23 -32 -7 -19 -17 -35 -21 -35
-14 0 -9 40 6 46 8 3 12 12 9 20 -3 8 -1 14 5 14 8 0 19 32 26 72 1 3 4 10 9
14 4 4 7 16 7 26 0 10 5 18 10 18 6 0 10 17 10 38 0 24 -3 32 -9 23 -5 -7 -7
-23 -4 -35 3 -18 2 -18 -7 3 -6 13 -8 32 -5 42 4 11 2 19 -4 19 -14 0 -10 179
5 194 9 9 9 16 -1 30 -12 15 -15 8 -25 -58 -13 -78 -30 -93 -30 -27 0 50 30
143 44 138 17 -6 46 12 46 28 0 8 4 15 8 15 13 0 32 69 21 76 -5 3 -9 16 -9
30 0 14 -11 35 -25 48 -34 31 -65 115 -32 88 10 -8 12 -1 11 34 -2 52 9 57 24
12 l10 -33 1 46 c1 67 -10 140 -21 133 -5 -3 -7 -13 -3 -22 3 -8 0 -19 -7 -24
-10 -6 -10 -8 0 -8 6 0 12 -9 12 -20 0 -11 -4 -20 -10 -20 -10 0 -14 20 -11
57 1 12 -3 24 -9 28 -5 3 -10 1 -10 -5 0 -6 -5 -8 -11 -4 -8 5 -8 9 1 14 9 5
9 9 1 14 -14 9 -15 36 -1 36 5 0 12 -11 16 -25 11 -44 23 -27 19 28 -6 67 -18
112 -43 162 -11 21 -18 45 -15 52 3 7 0 13 -6 13 -6 0 -11 4 -11 10 0 5 7 7
15 4 11 -5 13 -2 9 10 -3 9 -15 16 -25 16 -10 0 -19 7 -19 15 0 8 -4 15 -10
15 -5 0 -9 15 -9 33 l1 32 8 -30 c5 -18 6 9 3 65 -3 52 -9 100 -13 105 -9 11
-17 140 -26 430 -3 110 -8 203 -10 207 -3 5 0 8 6 8 6 0 8 5 4 12 -7 10 -15
283 -15 503 -1 719 0 733 21 740 11 3 26 12 32 18 7 7 36 29 65 50 33 24 51
45 50 57 -1 15 -17 6 -85 -47 -47 -37 -83 -62 -81 -56 5 13 176 153 187 153 4
0 23 16 42 35 19 20 40 33 48 30 7 -3 10 0 7 6 -7 10 21 38 38 39 5 0 6 -33 3
-72z m-803 -177 c7 -7 72 -11 167 -12 142 0 243 -8 255 -21 3 -2 7 -274 10
-604 8 -953 17 -1352 30 -1434 6 -34 5 -34 -20 14 -31 56 -39 86 -23 86 15 0
1 80 -18 101 -8 9 -28 19 -45 23 -19 3 -46 24 -72 53 -60 68 -177 181 -209
201 -24 14 -39 42 -22 42 25 0 87 -54 119 -105 26 -42 30 -15 5 38 -31 66 -53
82 -107 79 -47 -2 -54 1 -192 86 -47 29 -63 52 -38 52 9 0 19 -9 22 -20 6 -18
25 -29 25 -15 0 11 -32 70 -48 88 -18 21 -67 22 -102 2 -36 -20 -71 -18 -135
8 -46 18 -55 26 -55 47 0 60 -9 544 -15 755 -6 243 -21 485 -31 522 -6 22 -5
22 117 26 182 6 370 0 382 -12z m-623 -1351 c12 0 18 -4 15 -10 -4 -6 -12 -9
-18 -8 -19 4 -107 -58 -107 -74 0 -10 54 17 95 47 36 27 55 22 55 -13 0 -20 3
-23 9 -12 6 8 7 18 5 22 -7 11 3 10 26 -2 16 -9 18 -7 15 11 -3 13 0 19 8 16
7 -2 12 -17 13 -33 1 -16 5 -49 9 -73 7 -40 6 -43 -11 -37 -21 8 -201 25 -256
24 -20 0 -50 3 -67 7 -20 4 -31 3 -31 -4 0 -6 -9 -11 -20 -11 -11 0 -20 5 -20
12 0 6 -6 3 -14 -7 -25 -35 -59 5 -48 58 3 14 10 18 28 14 15 -3 24 0 24 8 0
13 21 25 44 25 16 0 66 -45 66 -59 0 -17 20 -23 35 -11 20 17 19 30 -2 30 -19
1 -100 67 -91 75 9 10 183 21 200 13 9 -4 26 -8 38 -8z m-380 -35 c0 -15 -3
-23 -34 -84 -20 -41 -16 -47 14 -21 30 26 40 25 40 -5 0 -15 -6 -25 -15 -25
-9 0 -12 6 -9 18 4 13 2 12 -7 -3 -6 -11 -12 -21 -13 -21 -1 -1 -11 -5 -24 -8
-21 -7 -22 -6 -17 38 4 29 2 46 -5 46 -10 0 -15 -31 -13 -77 1 -18 -6 -23 -48
-32 -27 -6 -66 -18 -85 -26 -20 -8 -37 -15 -38 -15 -1 0 -1 21 -1 47 0 28 5
48 13 51 11 3 16 -16 15 -55 -1 -7 3 -13 8 -13 5 0 9 5 9 11 0 6 9 9 20 6 11
-3 20 -1 20 5 0 6 6 8 14 5 8 -3 22 1 33 8 17 14 17 14 -5 15 -32 0 -82 37
-82 60 0 21 31 39 100 59 25 7 54 17 65 21 31 13 45 11 45 -5z m658 -32 c30
-9 56 -22 59 -30 3 -7 11 -13 19 -13 8 0 13 -3 13 -7 -3 -20 2 -24 16 -13 11
9 34 2 120 -39 99 -49 127 -71 88 -71 -10 0 -68 -5 -129 -10 l-110 -10 -90 40
c-89 39 -111 62 -64 68 14 2 32 12 39 23 11 19 10 20 -11 14 -13 -4 -24 -12
-26 -16 -4 -11 -32 -12 -33 -1 0 4 -3 27 -6 51 l-5 43 33 -7 c19 -3 58 -13 87
-22z m-993 -70 c-8 -18 -10 -37 -13 -99 -1 -16 -11 -40 -22 -52 -11 -12 -20
-25 -20 -29 0 -5 -26 -27 -57 -51 -69 -50 -213 -187 -213 -202 0 -6 -11 -15
-25 -22 -13 -6 -22 -14 -19 -19 6 -10 -94 -181 -113 -192 -7 -4 -13 -19 -13
-33 0 -14 -8 -39 -17 -57 -9 -18 -16 -35 -16 -38 1 -3 -7 -39 -19 -80 -11 -41
-20 -84 -20 -96 0 -12 -5 -20 -12 -17 -7 3 -32 -14 -56 -36 -24 -22 -39 -40
-34 -40 5 0 24 14 42 30 18 17 36 30 39 30 7 0 -7 -129 -18 -157 -9 -23 -29
-32 -29 -12 0 6 -11 25 -25 43 -14 18 -25 37 -25 43 0 5 -11 15 -25 21 -28 13
-33 50 -14 99 6 15 12 39 14 53 2 14 8 38 15 54 10 28 11 28 30 11 18 -17 21
-16 60 15 42 33 48 50 11 30 -24 -12 -28 -5 -8 15 9 9 19 10 31 3 30 -17 28
-2 -5 33 -57 61 -63 75 -48 112 18 43 80 147 88 147 3 0 7 -32 8 -71 1 -39 6
-76 12 -82 19 -19 23 0 8 45 -8 24 -13 55 -10 70 6 31 42 58 81 62 15 2 26 6
25 10 -7 29 -10 31 -26 17 -11 -8 -17 -9 -17 -3 0 15 37 35 42 22 2 -5 9 -6
16 -1 10 6 6 15 -17 39 -17 17 -31 35 -31 40 0 17 154 156 158 143 2 -7 -1
-18 -7 -24 -6 -6 -11 -27 -10 -46 1 -33 1 -34 9 -11 4 14 11 38 15 54 6 27 7
28 56 23 57 -6 119 1 119 14 0 5 -13 9 -30 9 -34 0 -36 7 -16 55 8 19 11 35 7
35 -14 0 -43 -38 -37 -49 9 -14 -32 -40 -54 -34 -24 6 -15 33 11 33 12 0 19 7
19 20 0 11 6 20 13 20 7 0 53 27 103 60 49 33 91 60 93 60 2 0 0 -8 -4 -17z
m724 -58 c53 -9 100 -20 105 -25 12 -12 18 -420 7 -510 -7 -52 -22 -103 -49
-160 -21 -47 -67 -151 -102 -232 l-63 -148 -49 2 c-28 0 -66 -7 -89 -17 -40
-18 -40 -18 -62 4 l-22 23 30 -18 30 -18 -30 33 -30 32 -3 514 -3 514 33 5
c106 18 191 18 297 1z m-364 -247 c-5 -128 -9 -317 -9 -420 -1 -104 -3 -188
-6 -188 -3 0 -18 24 -33 53 -15 28 -35 66 -44 82 -93 171 -96 182 -108 415 -2
30 -6 62 -9 70 -11 31 -12 151 -2 159 6 5 46 18 89 29 43 11 81 23 85 26 3 3
14 6 25 6 19 0 20 -5 12 -232z m642 166 c319 -150 521 -373 644 -708 126 -345
71 -786 -137 -1096 -68 -103 -196 -240 -284 -307 -90 -67 -223 -144 -233 -134
-5 5 -33 87 -63 181 -48 150 -54 183 -53 247 1 40 5 73 8 73 3 0 3 59 -1 132
-4 72 -6 133 -4 135 2 2 48 -47 102 -109 119 -137 279 -306 314 -332 22 -17
22 -16 -5 15 -16 18 -55 61 -87 94 -31 33 -114 127 -186 209 -128 147 -130
149 -135 205 -2 31 -2 59 2 64 4 4 88 -33 187 -82 206 -102 454 -215 460 -208
2 2 -51 30 -118 62 -68 32 -214 102 -325 156 l-203 98 0 46 0 45 38 -5 c20 -3
100 -14 177 -25 205 -29 527 -70 549 -70 56 0 -15 14 -235 45 -134 19 -305 44
-379 55 -74 11 -138 20 -142 20 -5 0 -8 25 -8 55 0 49 2 55 23 59 31 7 231 48
417 86 221 45 332 71 326 77 -5 5 -224 -35 -551 -102 -115 -24 -214 -40 -218
-35 -5 4 -7 27 -5 51 l3 44 170 95 c308 171 518 300 491 300 -7 0 -318 -174
-603 -338 -29 -16 -54 -27 -57 -24 -4 3 -6 31 -6 63 0 61 11 80 119 199 23 25
41 48 41 52 0 4 16 22 35 39 19 18 32 35 29 38 -3 3 -55 -46 -115 -109 l-108
-115 -1 115 c0 132 13 225 39 284 45 100 61 139 61 148 0 6 6 24 14 41 43 94
53 127 37 127 -4 0 -34 -66 -66 -147 -32 -82 -62 -155 -66 -163 -5 -8 -9 78
-9 193 0 119 4 207 9 207 5 0 54 -21 108 -46z m376 1 c15 -13 27 -29 27 -35 0
-6 5 -8 10 -5 16 10 12 -12 -5 -29 -8 -8 -15 -19 -15 -25 0 -18 19 -12 30 9 6
11 17 20 24 20 18 0 166 -155 166 -174 0 -13 -4 -15 -17 -8 -10 5 -43 15 -73
22 -141 31 -132 26 -125 73 4 31 3 38 -4 27 -6 -8 -11 -25 -11 -37 0 -36 -24
-28 -113 40 -46 35 -102 74 -125 87 -23 13 -42 27 -42 31 0 4 28 8 63 9 34 0
80 2 102 3 l40 2 3 -65 c2 -36 7 -69 12 -74 6 -6 8 21 5 72 -5 91 1 98 48 57z
m-1253 -44 c-4 -16 -6 -32 -3 -35 4 -3 8 -43 10 -88 2 -46 8 -105 13 -131 13
-63 13 -110 0 -102 -21 13 -42 82 -47 155 -7 105 -25 117 -22 15 2 -65 8 -91
30 -135 51 -100 55 -127 62 -362 1 -16 5 -28 10 -28 8 0 6 79 -7 183 -3 26 0
37 7 35 11 -4 23 -24 96 -159 13 -24 32 -57 43 -72 19 -26 44 -164 33 -175 -4
-5 -53 39 -193 175 l-74 72 4 160 c2 88 0 157 -5 154 -4 -2 -5 -13 -2 -24 4
-10 2 -19 -3 -19 -10 0 -9 -18 -16 206 -6 180 -5 181 17 192 12 6 30 11 39 11
14 1 15 -4 8 -28z m-119 -103 c1 -40 3 -89 4 -108 2 -19 4 -94 5 -165 1 -72 5
-147 9 -167 15 -66 9 -62 -158 91 -50 46 -91 80 -91 76 0 -3 56 -61 125 -128
l124 -122 -4 -64 c-3 -47 0 -67 10 -78 21 -20 19 -50 -3 -57 -25 -8 -72 9
-242 92 -162 78 -220 103 -220 96 0 -3 101 -55 225 -116 174 -85 225 -115 225
-129 0 -11 6 -19 14 -19 9 0 12 -7 9 -21 -4 -16 -8 -17 -14 -7 -5 8 -9 -7 -9
-40 l0 -53 -177 6 c-98 3 -220 8 -270 10 -51 3 -93 1 -93 -3 0 -5 75 -12 168
-16 92 -3 213 -9 270 -13 l103 -6 -3 -71 -3 -71 -65 -18 c-86 -23 -209 -52
-348 -81 -110 -23 -147 -36 -105 -36 29 0 181 33 348 75 77 19 148 35 158 35
15 0 17 -11 17 -99 l0 -99 -152 -102 c-170 -113 -250 -172 -244 -178 2 -2 46
25 98 59 251 168 284 189 293 186 13 -5 7 -284 -7 -311 -6 -12 -42 -58 -80
-103 -38 -46 -65 -83 -59 -83 5 0 31 25 58 56 26 31 60 70 75 88 l27 31 1 -74
c0 -106 34 -240 76 -303 19 -28 33 -52 32 -54 -4 -3 -102 70 -183 135 -89 72
-355 331 -355 345 0 7 -8 21 -19 30 -43 39 -111 245 -111 337 0 22 -4 38 -8
35 -10 -6 -11 5 -16 162 -3 79 -1 132 5 132 5 0 7 11 3 25 -7 28 8 122 38 235
11 41 22 86 24 100 3 14 10 30 17 35 7 6 11 18 9 27 -2 9 4 28 13 42 9 14 16
27 16 30 -1 14 30 74 44 86 9 7 14 18 11 25 -2 6 5 17 15 24 11 6 17 16 14 21
-4 6 1 13 9 16 8 3 26 25 40 48 42 73 261 276 297 276 5 0 10 -33 10 -72z
m1502 -93 c48 -13 98 -30 112 -39 47 -31 182 -283 162 -303 -4 -3 -29 6 -56
20 -27 15 -62 27 -79 27 -44 0 -55 20 -49 87 5 54 5 56 -6 21 -6 -21 -13 -38
-16 -38 -3 1 -28 33 -56 72 -27 39 -72 98 -100 132 -43 52 -47 59 -25 52 14
-4 64 -18 113 -31z m186 -331 c24 -8 57 -22 73 -30 29 -15 30 -17 28 -87 -1
-40 -1 -76 0 -82 1 -5 1 -14 0 -20 -1 -5 -2 -50 -1 -98 0 -77 -1 -87 -14 -77
-20 16 -19 5 1 -25 23 -36 29 -223 7 -247 -32 -36 -42 -22 -38 50 2 37 0 109
-4 159 -4 60 -3 94 4 96 5 2 2 12 -9 22 -12 13 -16 27 -12 47 3 15 1 28 -4 28
-5 0 -12 12 -16 28 -10 44 -52 159 -74 202 -11 21 -20 42 -20 45 0 9 34 5 79
-11z m-854 -118 c-1 -28 -3 -67 -4 -86 -1 -35 -20 -61 -141 -197 -57 -65 -76
-58 -39 12 12 22 46 96 76 165 29 69 58 134 63 145 5 11 15 34 21 50 l12 30 7
-34 c5 -19 7 -57 5 -85z m1019 -144 c3 -13 8 -32 11 -43 7 -21 16 -164 14
-214 0 -16 -2 -59 -4 -95 -2 -36 -4 -81 -4 -100 0 -19 -7 -58 -16 -85 -8 -28
-15 -60 -15 -72 0 -30 -14 -29 -28 2 -6 14 -7 25 -2 25 15 0 27 82 18 128 -4
23 -4 52 0 65 4 12 6 36 5 52 -2 17 -3 37 -3 45 1 34 -3 308 -4 350 -3 69 8
82 16 20 3 -30 9 -65 12 -78z m-1712 46 c24 -29 79 -82 121 -118 61 -51 77
-71 77 -92 0 -16 -2 -28 -5 -28 -10 0 -240 103 -249 111 -13 12 -14 179 0 179
5 0 31 -24 56 -52z m694 -120 l1 -50 -69 -46 c-80 -53 -83 -68 -4 -23 31 17
60 31 66 31 5 0 10 -18 10 -39 0 -43 -1 -44 -83 -60 l-48 -9 -19 40 -19 40 76
89 c42 49 79 86 82 83 3 -3 6 -28 7 -56z m-581 -112 c44 -19 81 -42 83 -51 3
-15 -10 -15 -158 -1 -19 2 -49 4 -66 5 -31 1 -32 2 -37 59 -2 31 -2 60 0 65 2
4 26 -3 51 -16 26 -14 83 -41 127 -61z m-936 20 l30 -44 -29 -12 c-35 -15 -54
-35 -45 -50 4 -6 20 1 42 19 21 18 42 27 54 24 17 -5 19 -15 19 -109 0 -57 -3
-104 -7 -103 -5 0 -30 27 -58 60 -27 32 -59 68 -70 79 -16 17 -17 24 -7 40 6
11 9 26 6 35 -4 10 -2 13 8 10 9 -4 14 3 16 20 1 14 -3 25 -8 25 -6 0 -10 11
-10 25 0 38 25 30 59 -19z m1278 -55 c45 -21 58 -46 49 -94 -14 -67 -59 -98
-121 -84 -34 8 -47 17 -61 42 -21 40 -13 93 19 122 40 37 58 39 114 14z m-267
-56 c14 -9 12 -45 -2 -46 -32 -2 -149 -27 -205 -44 l-43 -12 0 43 c0 23 -3 50
-7 60 -6 16 3 16 120 11 70 -3 131 -8 137 -12z m5 -99 c0 -18 -7 -33 -20 -40
-11 -6 -22 -14 -25 -17 -12 -13 -180 -119 -189 -119 -6 0 -11 -4 -11 -10 0 -5
-4 -10 -10 -10 -11 0 -12 111 -1 149 6 22 19 28 116 52 61 15 117 27 125 26 9
-2 15 -13 15 -31z m433 18 c61 -18 72 -27 72 -61 0 -35 -12 -34 -68 4 -29 19
-56 33 -59 30 -3 -3 20 -22 51 -42 32 -20 59 -42 60 -48 12 -44 21 -117 15
-117 -4 0 -18 17 -30 38 -13 20 -45 60 -72 89 -44 47 -48 54 -42 87 4 20 9 36
12 36 3 0 30 -7 61 -16z m-1436 -56 c35 -38 58 -72 58 -85 0 -25 -10 -29 -28
-11 -7 7 -12 8 -12 2 0 -5 6 -16 12 -22 10 -10 4 -12 -31 -7 -52 6 -57 9 -75
43 -13 25 -19 117 -9 135 10 17 31 3 85 -55z m1369 -35 c48 -52 114 -133 127
-159 7 -14 11 -82 11 -182 -1 -89 2 -167 7 -174 5 -9 4 -10 -4 -3 -6 6 -47
118 -91 250 -56 165 -75 232 -61 215 l21 -25 -18 40 c-10 22 -24 44 -30 48
-14 9 -17 27 -5 27 4 0 24 -17 43 -37z m1096 -57 c6 -67 -2 -81 -27 -51 -25
30 -27 14 -4 -32 27 -52 30 -73 12 -93 -11 -12 -10 -12 4 -2 13 10 17 10 20 0
6 -16 -12 -71 -25 -79 -5 -4 -5 -9 2 -13 29 -18 -61 -166 -102 -166 -18 0 -33
29 -42 78 -5 33 -4 42 7 42 8 0 25 11 38 25 13 14 29 24 36 21 7 -3 20 2 31 9
12 10 14 14 4 15 -8 0 -11 6 -7 15 5 13 2 14 -17 4 -12 -6 -34 -23 -49 -37
-40 -37 -43 -22 -9 42 17 31 31 71 31 89 0 40 18 107 29 107 4 0 6 14 3 30 -3
18 0 30 7 30 6 0 16 12 22 27 15 40 30 15 36 -61z m-1464 53 c11 -41 -6 -94
-49 -149 -52 -68 -74 -89 -74 -68 0 8 6 20 13 27 10 11 9 12 -2 6 -11 -6 -13
-4 -8 9 4 11 3 15 -4 10 -6 -3 -9 -22 -6 -43 3 -30 -2 -43 -29 -78 -19 -23
-34 -46 -34 -52 0 -21 -21 -21 -30 1 -10 21 -10 21 -6 -6 2 -17 -4 -41 -14
-58 -17 -28 -17 -27 -18 109 0 85 3 127 8 108 4 -16 8 -49 9 -72 0 -24 5 -43
11 -43 9 0 8 23 -5 127 -3 31 0 35 78 87 45 30 96 66 112 80 37 31 41 32 48 5z
m300 -67 c11 -42 47 -156 82 -252 34 -96 79 -227 99 -290 21 -63 53 -157 72
-208 19 -51 43 -123 53 -160 28 -96 182 -528 225 -629 14 -34 26 -65 26 -68 0
-4 -14 -5 -32 -3 l-32 3 -68 200 c-38 110 -73 216 -79 235 -6 19 -19 58 -29
85 -10 28 -44 131 -76 230 -31 99 -85 266 -120 370 -35 105 -84 256 -108 337
-25 80 -52 158 -61 172 -20 30 -14 56 12 56 14 0 22 -17 36 -78z m-113 61 c0
-26 -90 -370 -125 -478 -52 -162 -107 -353 -110 -385 0 -3 -3 -10 -7 -15 -3
-6 -9 -27 -13 -48 -4 -20 -11 -37 -15 -37 -9 0 -17 -30 -25 -90 -3 -19 -12
-60 -21 -90 -34 -119 -103 -391 -115 -458 l-13 -70 -46 -4 c-25 -3 -46 -4 -47
-4 -2 1 42 138 143 440 47 143 88 266 90 275 28 114 117 413 144 486 10 28 30
97 45 155 53 212 90 330 103 330 6 0 12 -3 12 -7z m91 -226 c26 -84 74 -231
108 -327 33 -96 61 -184 61 -196 0 -17 -10 -24 -45 -34 -52 -14 -167 -9 -173
8 -2 7 -9 12 -16 12 -25 0 -94 71 -114 118 -20 46 -20 52 -6 113 8 35 21 81
30 103 12 32 36 118 48 173 1 7 5 16 9 19 4 4 7 -35 7 -87 0 -147 20 -413 32
-424 7 -7 9 -2 5 15 -3 14 -9 139 -13 278 -4 146 -10 248 -15 240 -6 -9 -9 -6
-9 10 0 14 4 21 11 16 6 -4 10 1 8 12 -4 27 11 117 19 110 3 -4 27 -75 53
-159z m-276 47 c-2 -37 -9 -72 -14 -77 -6 -6 -11 -18 -11 -26 0 -9 -7 -29 -16
-46 -29 -53 -61 -119 -79 -162 -17 -38 -38 -50 -34 -20 4 31 -2 170 -6 165
-11 -10 -19 -63 -17 -105 1 -24 -2 -43 -7 -43 -9 0 -25 -58 -26 -93 0 -10 -5
-21 -11 -25 -6 -4 -8 -16 -4 -26 6 -18 9 -16 23 14 9 18 17 53 17 77 0 23 5
43 10 43 20 0 10 -83 -17 -137 l-26 -55 -14 34 c-8 18 -12 44 -9 58 3 14 3 19
0 13 -11 -26 -26 -13 -21 16 4 16 3 31 -1 34 -4 2 -2 3 4 1 12 -3 23 45 25
111 l1 40 10 -50 c6 -34 6 -62 -1 -86 -6 -20 -11 -40 -11 -44 0 -11 15 4 16
16 1 5 2 11 3 14 0 3 1 7 1 10 0 3 6 18 15 35 18 35 19 54 3 44 -8 -5 -9 3 -5
30 3 22 2 34 -4 31 -14 -9 -11 5 6 21 8 9 45 55 82 105 36 49 70 89 74 89 7 0
-61 -139 -81 -165 -10 -13 -23 -75 -16 -75 7 0 86 158 86 174 0 7 6 19 14 25
16 13 29 54 15 45 -5 -3 -9 -1 -9 3 0 10 29 53 35 53 3 0 3 -30 0 -66z m-1007
-81 c-1 -18 1 -35 5 -39 4 -4 7 0 7 9 0 23 15 21 53 -5 44 -31 86 -77 103
-113 8 -16 27 -52 42 -80 23 -42 28 -65 31 -140 3 -100 5 -105 31 -105 10 0
25 -7 33 -15 8 -8 34 -18 58 -21 66 -11 80 -32 78 -114 -1 -39 -4 -70 -7 -70
-3 0 -28 21 -56 48 -28 26 -67 60 -86 76 -26 21 -29 25 -10 16 24 -11 24 -10
-3 13 -20 17 -26 29 -21 43 4 10 3 16 -1 11 -10 -9 -65 41 -65 60 0 7 -9 17
-20 23 -11 6 -19 14 -19 18 3 19 -2 32 -12 30 -5 -2 -22 17 -36 41 -29 52 -38
85 -20 74 7 -4 20 -6 30 -5 10 2 25 -2 33 -8 11 -10 14 -9 14 4 0 9 7 16 15
16 25 0 -14 49 -45 56 -30 8 -100 45 -100 54 0 3 -9 15 -19 27 -11 11 -27 42
-35 68 -9 26 -21 55 -26 65 -9 17 -7 17 21 7 26 -10 30 -16 27 -44z m1012 -63
c-8 -5 -9 -16 -5 -30 4 -12 3 -20 -1 -17 -5 3 -9 -16 -10 -42 -1 -50 -43 -225
-68 -286 -9 -20 -16 -46 -16 -56 0 -11 -4 -19 -9 -19 -5 0 -11 -18 -15 -40 -8
-53 -37 -123 -46 -113 -4 4 -15 34 -24 65 -10 32 -21 60 -26 63 -18 11 49 195
71 195 17 0 5 -81 -21 -145 -8 -18 -8 -49 -1 -95 4 -24 19 20 20 57 1 24 5 31
15 27 11 -4 13 0 9 15 -3 12 2 36 10 53 21 45 25 84 9 80 -10 -2 -10 2 -2 17
5 11 9 28 9 38 -1 17 -2 17 -6 1 -2 -10 -9 -18 -14 -18 -6 0 -9 3 -7 8 13 25
29 63 48 107 48 115 85 183 88 163 2 -12 -2 -24 -8 -28z m1350 -237 c-23 -43
-69 -110 -101 -150 -32 -39 -59 -76 -59 -81 0 -12 -71 -78 -132 -121 -26 -18
-49 -40 -52 -47 -3 -8 -11 -14 -19 -14 -7 0 -24 -11 -37 -25 -13 -14 -28 -25
-33 -25 -5 0 -22 -13 -38 -29 -24 -25 -145 -101 -162 -101 -6 0 -60 161 -55
164 2 1 32 17 68 36 36 18 83 45 105 59 22 14 45 26 50 26 6 0 41 30 78 65 38
36 74 64 80 62 6 -2 21 2 34 9 19 10 31 10 57 1 42 -16 69 -15 64 1 -3 6 -24
13 -49 15 -24 2 -49 8 -55 13 -8 7 -14 6 -19 -1 -3 -5 -11 -10 -18 -10 -6 0 3
12 20 28 16 15 45 46 63 70 17 23 36 40 40 37 5 -3 30 6 56 20 26 14 55 25 65
25 10 0 22 6 26 13 8 14 42 36 56 37 5 0 -10 -35 -33 -77z m-2011 -93 c51 -55
90 -104 87 -108 -6 -11 -126 17 -126 29 0 5 -6 9 -14 9 -7 0 -18 6 -25 13 -10
13 -28 157 -19 157 2 0 46 -45 97 -100z m2069 8 c8 -8 15 -8 28 3 16 13 17 9
10 -66 -12 -132 -58 -287 -152 -510 -59 -139 -215 -331 -339 -414 -54 -36 -65
-38 -65 -12 0 11 -4 22 -10 26 -5 3 -18 34 -29 68 -10 34 -39 121 -64 193 -63
182 -63 170 6 201 l58 26 32 -30 c34 -33 77 -48 108 -38 18 6 49 52 49 74 0
16 -29 1 -35 -18 -5 -16 -12 -17 -55 -10 -79 12 -91 28 -39 50 29 11 33 11 50
-9 31 -38 40 -19 15 30 -20 37 -10 41 35 12 45 -28 49 -29 49 -9 0 8 -16 21
-36 30 -19 8 -33 19 -29 25 3 5 44 40 91 76 78 61 87 66 110 55 35 -15 76 -14
102 5 30 21 28 41 -9 75 -36 34 -34 44 5 30 30 -12 33 -5 10 20 -15 16 -13 22
21 73 36 55 59 68 83 44z m-1338 -40 c7 -24 23 -64 36 -90 13 -26 20 -49 15
-52 -5 -3 -11 -18 -14 -33 -4 -24 -4 -25 8 -10 7 9 15 17 19 17 10 0 7 -38 -4
-45 -5 -3 -7 -12 -3 -20 3 -8 0 -15 -6 -15 -6 0 -11 8 -11 17 0 15 -2 14 -14
-3 -13 -16 -13 -19 -1 -22 12 -3 12 -7 -1 -28 -17 -25 -37 -33 -28 -11 2 7 -7
19 -21 27 -25 13 -34 30 -15 30 6 0 10 12 9 28 0 16 -3 21 -6 12 -4 -8 -12
-21 -20 -28 -11 -11 -13 -11 -14 0 0 7 -5 0 -10 -17 -7 -24 -5 -34 10 -48 12
-13 21 -15 25 -8 4 6 2 11 -3 11 -6 0 -11 4 -11 9 0 10 40 2 40 -8 0 -3 3 -16
6 -27 5 -19 2 -21 -23 -16 -15 3 -40 13 -54 23 l-27 19 17 47 c9 27 19 50 24
51 4 2 4 8 1 13 -3 6 -1 15 4 22 6 7 12 26 15 42 13 82 30 155 37 155 4 0 13
-19 20 -42z m-565 -135 c55 -49 197 -133 260 -155 57 -19 59 -30 32 -123 -18
-63 -25 -63 -166 8 -110 55 -134 77 -83 77 17 0 32 5 34 10 3 9 32 15 91 19 4
1 7 5 7 10 0 15 -82 7 -115 -11 -47 -24 -90 -13 -106 29 -15 39 -21 173 -8
173 6 0 30 -17 54 -37z m896 -6 c-6 -8 -31 -22 -56 -33 -25 -10 -45 -24 -45
-32 0 -8 -6 -12 -14 -9 -17 7 -27 -25 -15 -44 7 -11 9 -10 9 4 0 9 5 17 10 17
19 0 1 -44 -20 -46 -5 -1 -14 -2 -19 -3 -5 0 -11 -9 -14 -18 -4 -16 -5 -16
-12 1 -6 13 -4 21 3 24 11 3 17 32 7 32 -8 0 -45 -39 -45 -48 0 -4 9 -13 20
-20 24 -15 26 -28 4 -36 -13 -5 -15 -2 -11 13 3 15 1 18 -11 14 -10 -4 -13 -2
-8 5 4 7 2 12 -3 12 -15 0 -14 27 2 33 9 4 9 7 -1 15 -11 7 -9 17 9 48 l23 39
-22 -19 c-12 -11 -25 -16 -29 -12 -4 4 -1 11 7 16 15 9 7 25 -12 25 -6 0 -13
5 -15 12 -3 9 6 11 32 8 21 -3 42 -8 47 -11 13 -8 1 -54 -19 -76 -15 -16 -15
-18 0 -18 24 0 59 54 45 68 -7 7 -8 12 -4 12 5 0 15 -8 23 -17 13 -17 14 -16
8 5 -6 21 10 33 17 12 2 -6 13 -4 29 4 22 11 74 32 88 35 2 1 -2 -5 -8 -12z
m151 -253 c9 -16 19 -45 22 -64 6 -34 5 -36 -40 -58 -30 -15 -71 -25 -118 -28
l-71 -5 27 21 c64 50 73 59 58 60 -8 0 -33 -18 -56 -39 -34 -33 -50 -41 -103
-49 -67 -10 -245 1 -295 18 -16 6 -39 10 -52 10 -32 0 -37 13 -24 61 22 79 28
90 47 80 10 -5 38 -17 63 -25 64 -23 97 -53 83 -74 -5 -9 -24 -19 -42 -22 -17
-3 -30 -9 -29 -15 4 -13 36 -7 69 12 25 15 30 14 83 -12 39 -19 60 -25 67 -18
7 7 -5 14 -35 22 -29 7 -52 20 -62 36 -9 14 -20 25 -24 25 -9 0 -91 52 -87 55
1 1 40 -2 86 -8 83 -9 168 0 213 24 10 5 37 9 60 10 24 0 61 4 83 8 52 11 57
10 77 -25z m64 -200 c7 -21 38 -111 69 -199 31 -88 58 -167 61 -175 4 -13 -55
-15 -485 -18 -294 -1 -491 1 -491 7 0 5 18 80 41 167 23 88 45 177 51 199 5
22 12 43 16 47 4 4 40 0 81 -10 l73 -17 4 -40 c5 -54 33 -77 92 -73 35 2 49 9
65 30 20 27 20 28 2 48 -10 11 -14 20 -9 21 5 0 74 6 154 13 80 7 149 9 155 4
13 -11 27 -10 20 2 -3 6 3 10 14 10 11 0 23 -4 26 -10 3 -5 13 -10 22 -10 12
0 13 3 3 15 -13 15 -5 38 12 33 6 -2 17 -22 24 -44z m268 -434 c7 -8 -192 -90
-218 -90 -12 0 -27 -5 -33 -11 -10 -10 -117 -29 -283 -50 -109 -14 -121 -18
-95 -30 27 -13 -176 -3 -385 18 -150 14 -171 19 -231 49 -37 19 -70 34 -75 34
-17 0 -83 53 -78 62 3 5 16 13 28 17 23 9 1361 9 1370 1z m-1375 -104 c53 -24
111 -47 128 -51 68 -14 37 -21 -93 -20 l-134 0 0 35 c0 19 -3 45 -6 58 -4 12
-3 22 1 22 4 0 51 -20 104 -44z"/>
<path d="M3329 5773 c0 -5 -2 -17 -5 -28 -2 -11 -6 -44 -9 -73 -3 -30 -7 -57
-9 -61 -3 -4 -8 -23 -11 -42 -3 -19 -10 -50 -15 -69 -5 -19 -12 -55 -16 -80
-3 -25 -7 -54 -9 -65 -13 -75 -37 -261 -41 -315 -7 -102 13 -40 32 98 23 176
54 369 69 442 16 77 29 200 21 200 -3 0 -6 -3 -7 -7z"/>
<path d="M13260 7950 c0 -29 -1 -30 -22 -19 -27 15 -316 17 -768 6 -168 -4
-310 -8 -317 -7 -6 0 -9 -8 -6 -20 3 -11 1 -20 -3 -20 -5 0 -10 -10 -11 -22 0
-13 -13 -66 -27 -118 -15 -52 -25 -106 -22 -119 2 -14 -2 -31 -10 -38 -8 -8
-14 -20 -14 -26 0 -7 4 -6 10 3 8 12 10 11 10 -7 0 -12 -7 -29 -16 -37 -12
-12 -12 -16 -2 -16 9 0 10 -3 2 -8 -7 -4 -12 -20 -12 -36 0 -15 -4 -31 -9 -35
-5 -3 -8 -17 -7 -31 1 -14 -2 -28 -7 -31 -5 -3 -11 -23 -14 -45 -8 -65 -13
-95 -35 -194 -11 -52 -29 -138 -40 -190 -10 -52 -28 -136 -39 -186 -11 -50
-29 -147 -41 -215 -24 -136 -79 -381 -87 -389 -2 -3 -2 27 1 65 3 42 -14 -31
-44 -180 -50 -256 -69 -343 -115 -545 -39 -170 -39 -171 -24 -181 11 -7 10 -9
-3 -9 -10 0 -18 -3 -18 -7 0 -5 -7 -60 -15 -123 -16 -122 -37 -218 -105 -475
-23 -88 -56 -230 -75 -315 -31 -146 -38 -176 -65 -275 -6 -22 -24 -107 -40
-190 -17 -82 -43 -197 -59 -255 -16 -58 -33 -130 -39 -160 -6 -30 -21 -100
-34 -155 -14 -62 -23 -138 -24 -200 -2 -103 -14 -162 -36 -177 -10 -6 -10 -10
2 -17 20 -13 27 -7 34 35 8 39 29 42 34 3 2 -13 10 -38 18 -56 8 -17 14 -39
14 -50 0 -10 7 -31 15 -47 19 -37 19 -60 0 -52 -8 3 -15 0 -15 -5 0 -7 9 -9
22 -6 12 4 28 1 35 -5 13 -11 74 -12 118 -4 11 3 65 5 120 6 69 2 91 5 70 10
-18 5 25 8 113 9 93 1 142 -3 142 -10 0 -7 63 -8 201 -3 185 7 203 6 215 -10
11 -16 13 -16 19 3 5 17 12 19 58 15 37 -3 46 -2 32 5 -11 5 -30 10 -43 10
-21 1 -22 4 -16 39 4 20 11 48 17 62 6 14 9 30 9 36 -3 18 239 7 271 -13 5 -3
13 1 18 8 8 12 10 12 18 0 7 -11 32 -13 133 -8 67 4 137 11 153 16 17 5 24 10
17 10 -7 1 -11 5 -7 11 7 12 228 10 236 -3 4 -5 13 -7 20 -5 10 3 6 9 -11 18
-32 17 -487 18 -520 0 -11 -6 -39 -8 -63 -6 -23 3 -91 6 -150 7 -92 1 -108 3
-103 16 3 8 6 20 6 28 0 10 14 10 73 -2 69 -14 131 -13 415 2 129 7 70 15
-119 16 -281 1 -290 2 -282 10 4 4 118 9 253 10 338 4 354 17 25 19 -359 3
-341 2 -336 20 1 8 3 26 3 40 0 29 17 137 25 160 3 8 7 26 9 40 2 14 6 36 10
50 9 34 11 43 19 130 4 41 11 80 15 85 13 18 42 164 34 176 -5 9 12 11 71 6
43 -4 199 -7 346 -7 l268 0 6 -47 c4 -27 14 -53 21 -59 13 -10 13 -12 0 -17
-13 -5 -13 -12 -4 -39 6 -18 17 -37 24 -43 6 -5 14 -37 17 -70 2 -33 3 -50 0
-37 -2 12 -9 22 -15 22 -5 0 -7 -7 -4 -16 13 -33 59 -285 57 -307 -2 -11 28
-66 61 -111 16 -22 27 -48 25 -58 -3 -11 5 -23 22 -34 14 -9 38 -30 53 -48 27
-30 27 -30 28 -8 0 34 -29 92 -65 128 -32 34 -40 44 -68 87 -18 28 -18 28 3
17 20 -11 21 -10 14 24 -5 30 -3 36 11 36 15 0 15 3 5 15 -7 9 -10 18 -6 22
11 11 16 -3 20 -50 6 -69 31 -147 47 -147 14 0 11 23 -7 60 -14 28 -22 126
-11 137 2 2 14 -41 26 -94 12 -54 27 -116 33 -138 12 -44 16 -69 22 -134 5
-43 5 -43 -25 -39 -16 3 -29 1 -29 -3 0 -15 95 -19 588 -23 283 -2 517 -8 522
-12 4 -5 12 -30 18 -55 13 -53 54 -147 47 -109 -11 63 -59 277 -91 404 -14 54
-23 100 -20 103 2 2 -2 16 -10 31 -14 27 -48 170 -79 332 -9 47 -21 101 -25
120 -4 19 -25 107 -45 194 -20 88 -37 181 -38 208 0 28 -5 48 -12 48 -12 0
-69 251 -91 400 -4 28 -2 32 7 20 9 -13 10 -12 5 3 -3 10 -6 26 -7 35 0 13 -2
13 -8 -3 -5 -13 -8 -2 -8 35 0 31 -6 67 -13 80 -7 13 -14 40 -16 59 -1 20 -12
61 -23 90 -16 42 -18 57 -8 63 9 6 9 8 -1 8 -9 0 -11 7 -7 20 3 11 2 20 -3 20
-5 0 -9 16 -10 36 -1 20 -6 42 -12 49 -5 6 -7 14 -5 17 3 3 0 18 -6 34 -7 16
-13 40 -15 54 -6 53 -56 271 -95 410 -44 154 -58 216 -89 375 -10 55 -35 170
-54 255 -20 85 -43 193 -51 240 -9 47 -26 121 -37 165 -22 86 -31 127 -52 245
-13 70 -30 143 -93 395 -14 55 -34 143 -44 195 -11 52 -26 131 -35 175 -18 90
-32 133 -49 155 -6 8 -24 38 -40 65 -16 28 -41 66 -56 85 -15 19 -30 46 -34
60 -11 42 -29 80 -37 80 -5 0 -8 -14 -8 -30z m-905 -46 c50 -3 276 -5 503 -5
l412 2 10 -25 c5 -14 25 -48 45 -75 19 -28 35 -53 35 -56 0 -3 12 -24 26 -46
14 -23 24 -43 21 -45 -2 -2 -246 -5 -543 -5 l-539 -1 -3 24 c-2 12 -3 37 -3
53 0 17 -3 41 -7 55 -4 17 -8 2 -12 -49 l-5 -74 -41 84 c-53 106 -84 172 -84
176 0 2 21 1 48 -1 26 -3 88 -8 137 -12z m-165 -117 c0 -5 21 -52 46 -104 l46
-96 -36 -141 c-19 -77 -37 -157 -39 -176 -2 -19 -21 -98 -41 -175 -20 -77 -36
-148 -36 -158 0 -10 -7 -20 -15 -23 -8 -4 -13 -10 -10 -14 5 -8 -11 -86 -90
-455 -19 -88 -44 -209 -55 -270 -34 -176 -57 -284 -100 -463 -21 -92 -58 -252
-80 -357 -54 -250 -131 -568 -141 -579 -8 -10 -2 61 7 75 3 5 1 9 -5 9 -11 0
-19 -24 -26 -75 -2 -16 -4 -30 -5 -30 -1 0 -3 -16 -5 -35 -2 -19 -6 -45 -10
-57 -4 -14 -3 -23 3 -23 6 0 8 -9 5 -20 -3 -11 -9 -20 -13 -20 -5 0 -7 -11 -6
-25 2 -13 -4 -55 -13 -92 l-15 -68 -7 40 c-3 22 -7 33 -8 25 -1 -8 -4 -33 -7
-55 -4 -30 -3 -36 5 -25 9 12 11 11 11 -8 0 -15 -4 -21 -12 -16 -8 5 -9 2 -5
-9 4 -10 3 -27 -2 -40 -5 -12 -14 -47 -20 -77 -5 -30 -17 -89 -26 -130 -9 -41
-18 -88 -21 -105 -4 -25 -43 -185 -61 -248 -3 -10 -7 -17 -9 -14 -5 4 34 206
43 220 5 8 42 181 48 227 2 14 8 47 15 74 6 28 13 75 16 105 10 116 12 130 19
142 5 7 3 10 -5 7 -15 -5 -17 -12 -30 -123 -5 -44 -14 -104 -20 -133 -7 -30
-13 -60 -14 -68 -2 -16 -16 -32 -16 -18 0 5 5 36 10 69 6 33 15 107 19 164 5
57 14 108 20 114 6 6 11 25 11 42 0 17 5 36 11 42 6 6 8 17 3 24 -5 9 -10 6
-16 -11 -6 -15 -12 -20 -18 -14 -7 7 -5 39 5 95 17 94 31 133 44 125 5 -3 12
6 16 22 5 15 9 32 11 37 13 43 13 65 2 65 -8 1 -7 6 5 14 19 14 24 31 6 20
-20 -12 -5 83 56 356 8 36 22 106 31 155 32 179 56 300 65 323 5 13 11 40 14
61 2 21 11 64 20 97 8 32 24 100 34 149 11 50 35 158 55 240 19 83 46 209 60
280 28 145 84 412 115 550 52 231 61 266 66 275 4 6 10 31 15 58 20 111 30
168 34 187 2 11 7 40 11 64 7 41 9 43 21 26 8 -10 14 -23 14 -28z m1248 -242
c7 -38 18 -95 23 -125 6 -30 28 -125 49 -210 22 -85 49 -202 60 -260 12 -58
34 -163 50 -235 17 -71 45 -206 65 -300 19 -93 50 -232 68 -307 19 -76 30
-139 25 -140 -5 -2 -3 -23 6 -48 8 -25 16 -57 18 -72 2 -15 7 -30 11 -34 3 -4
9 -33 13 -65 4 -33 11 -59 15 -59 5 0 7 -11 3 -25 -3 -14 -2 -25 3 -25 5 0 9
-10 8 -22 -1 -13 1 -32 6 -44 4 -11 10 -34 13 -50 11 -58 27 -118 35 -129 5
-5 9 -17 9 -25 1 -8 6 -35 12 -60 16 -64 47 -187 59 -240 6 -25 13 -61 16 -80
3 -19 10 -59 16 -88 13 -65 5 -80 -12 -23 -17 56 -23 45 -8 -13 8 -31 16 -45
24 -42 7 2 15 -4 18 -15 4 -17 3 -18 -9 -8 -24 20 -17 -17 9 -42 18 -18 19
-21 3 -15 -14 5 -17 2 -12 -10 3 -8 6 -20 6 -25 0 -6 6 -7 13 -3 9 6 9 5 0 -7
-11 -14 -10 -43 5 -79 3 -8 7 -26 8 -39 2 -13 9 -28 16 -32 7 -4 9 -11 6 -15
-4 -3 0 -13 8 -22 11 -10 12 -18 5 -25 -6 -6 -11 -20 -10 -31 0 -20 1 -20 8
-2 6 16 10 12 18 -22 7 -26 7 -42 1 -42 -5 0 -2 -10 6 -22 9 -12 16 -32 16
-45 0 -12 7 -48 16 -80 24 -88 34 -131 49 -213 28 -148 45 -226 59 -275 8 -27
24 -93 35 -145 131 -587 161 -710 186 -760 l13 -25 -412 2 c-226 1 -449 3
-496 3 l-85 0 -23 118 c-13 64 -29 149 -37 187 -8 39 -17 99 -20 135 -3 36
-10 81 -15 100 -4 19 -11 62 -15 95 -3 33 -17 113 -31 178 -13 64 -24 133 -24
152 0 37 -14 52 -33 37 -8 -6 -71 -6 -172 -1 -88 5 -203 6 -255 4 -52 -3 -133
-7 -180 -9 -48 -3 -90 0 -97 5 -8 7 -18 7 -32 0 -11 -6 -35 -11 -53 -11 -40 0
-108 -18 -106 -28 1 -4 -2 -14 -5 -22 -3 -8 -20 -64 -37 -125 -18 -60 -35
-114 -40 -120 -17 -23 -115 -415 -108 -436 2 -6 21 58 42 142 21 85 43 159 48
164 7 7 8 3 5 -10 -12 -48 -37 -155 -48 -210 -6 -33 -18 -83 -26 -111 -7 -28
-12 -59 -11 -70 1 -10 -4 -54 -11 -96 l-14 -78 -66 0 c-37 0 -103 5 -148 10
-138 17 -188 20 -466 22 -148 1 -271 6 -273 10 -3 4 7 49 20 100 14 51 46 183
70 293 25 110 52 228 61 262 9 33 15 65 14 70 -1 4 1 15 4 23 15 36 34 130 26
124 -12 -7 -12 11 0 34 5 9 14 46 20 82 12 74 32 165 56 260 9 36 18 74 19 85
13 82 20 105 32 105 8 0 14 5 14 11 0 5 -5 7 -10 4 -15 -9 -23 21 -11 42 9 16
10 16 11 -5 0 -34 17 -18 26 25 4 21 8 40 9 43 5 20 18 96 17 101 0 3 5 27 13
54 8 26 13 51 10 54 -2 4 3 29 11 56 8 27 12 57 8 67 -3 10 -1 18 4 18 6 0 9
11 7 25 -1 14 2 25 7 25 4 0 6 11 4 25 -3 16 1 28 11 34 10 5 14 16 11 29 -3
12 -2 22 2 24 8 3 16 39 26 111 2 16 6 32 9 37 3 5 8 30 11 57 3 26 10 52 15
57 5 6 9 19 9 30 0 10 16 87 36 170 35 147 42 180 49 221 2 11 8 40 13 65 36
163 43 193 47 200 5 9 33 146 65 325 20 112 37 193 61 290 12 48 14 56 23 120
4 28 26 110 48 183 22 74 41 147 43 163 6 47 126 521 141 558 8 18 11 37 8 42
-2 5 0 17 6 28 14 26 14 26 600 26 l495 0 13 -70z"/>
<path d="M12704 6850 c-60 -8 -199 -61 -219 -82 -7 -8 -6 -9 3 -4 6 4 12 5 12
2 0 -3 -26 -23 -57 -44 -84 -56 -87 -58 -81 -40 4 9 0 15 -8 15 -8 0 -14 -4
-14 -8 0 -4 -19 -28 -41 -53 -83 -92 -157 -232 -190 -357 -30 -112 -32 -321
-5 -419 10 -36 19 -76 20 -90 1 -14 40 -97 87 -185 48 -88 127 -237 177 -331
50 -95 114 -212 142 -260 l51 -89 -10 -59 c-6 -32 -18 -67 -26 -76 -12 -14
-13 -19 -3 -22 10 -4 9 -23 -5 -93 -12 -60 -14 -92 -7 -99 5 -5 10 -21 11 -35
l0 -26 11 23 c11 22 16 23 115 20 76 -1 107 1 112 11 6 9 17 1 40 -26 20 -24
34 -33 37 -25 7 14 44 16 44 2 0 -5 5 -10 11 -10 6 0 8 7 5 16 -4 9 -2 13 5 8
19 -11 97 -15 79 -4 -11 7 -6 10 20 10 20 0 41 -5 47 -11 8 -8 17 -7 35 5 21
14 28 14 65 1 41 -14 99 -14 336 -1 91 6 80 16 -19 17 -49 1 -99 3 -111 4 -13
1 -23 -1 -23 -6 0 -8 -67 -6 -76 3 -2 3 24 8 58 12 63 6 102 24 53 24 -15 0
-30 4 -34 10 -3 6 -26 9 -51 8 -56 -3 -77 17 -85 82 -3 26 -8 56 -11 67 -2 11
-11 73 -19 138 l-15 117 74 144 c41 79 72 146 69 150 -3 3 -1 11 5 18 12 16
142 273 142 282 0 4 11 32 25 62 14 30 25 58 25 63 0 5 14 41 31 82 45 110 61
191 61 304 -1 170 -59 329 -179 491 -68 91 -115 132 -199 172 -33 15 -71 36
-86 46 -15 9 -53 24 -86 31 -76 18 -270 26 -348 15z m341 -60 c88 -22 185 -67
236 -110 l33 -27 -52 -12 c-49 -10 -55 -9 -92 14 -21 13 -55 38 -74 56 -20 17
-34 25 -31 18 5 -12 37 -37 123 -96 15 -10 14 -13 -13 -23 -16 -7 -77 -25
-135 -41 -146 -41 -318 -98 -362 -120 -21 -11 -44 -19 -52 -19 -8 0 -46 39
-84 88 -68 85 -112 132 -112 119 0 -4 38 -55 84 -113 l84 -106 -29 -43 c-16
-23 -38 -64 -50 -91 -23 -54 -74 -212 -84 -260 -3 -17 -18 -42 -33 -56 -34
-31 -234 -180 -236 -176 -6 9 -30 111 -38 156 -12 72 -4 200 14 243 8 19 23
61 33 94 35 120 129 295 158 295 7 0 52 -30 100 -67 48 -36 89 -64 92 -61 6 5
-140 121 -166 130 -32 12 -22 25 54 76 108 73 214 121 322 145 58 13 235 6
310 -13z m330 -211 c53 -70 87 -125 109 -179 10 -25 24 -58 31 -75 26 -60 37
-122 39 -209 1 -61 -3 -91 -11 -93 -7 -2 -9 -11 -6 -19 3 -8 0 -14 -6 -14 -6
0 -11 5 -11 10 0 6 -6 10 -12 10 -7 -1 -2 -10 11 -20 20 -18 23 -27 18 -66 -2
-25 -8 -48 -11 -52 -20 -19 -118 162 -181 334 -19 50 -61 157 -94 237 l-59
146 56 20 c31 11 64 20 72 20 9 1 33 -22 55 -50z m-213 -30 c-11 -95 -31 -310
-31 -339 l-1 -35 -26 40 c-45 68 -115 133 -168 156 -40 17 -62 20 -111 16
-123 -11 -215 -63 -266 -150 -24 -41 -28 -46 -23 -22 11 51 68 158 94 177 14
10 50 27 80 39 103 39 435 147 445 144 6 -1 9 -13 7 -26z m58 -97 c18 -42 59
-144 90 -227 31 -82 72 -179 89 -214 18 -34 31 -65 29 -67 -2 -2 -43 23 -91
56 -47 33 -112 74 -143 91 l-56 32 7 41 c14 85 25 214 25 294 0 47 4 81 9 78
5 -4 24 -41 41 -84z m-311 -123 c67 -14 140 -79 171 -151 19 -44 22 -64 17
-119 -10 -123 -64 -206 -161 -250 -52 -23 -90 -23 -142 0 -47 22 -109 90 -125
139 -19 59 -7 188 24 249 36 70 82 121 121 132 42 12 39 12 95 0z m-382 -237
c-7 -57 -7 -86 -1 -90 6 -4 16 -34 22 -66 14 -70 61 -133 128 -172 60 -36 175
-38 249 -5 26 12 50 19 52 17 3 -2 -11 -26 -30 -53 -41 -58 -91 -143 -84 -143
3 0 39 48 80 108 41 59 88 120 105 135 42 40 85 140 90 210 2 31 9 57 14 57
10 0 122 -71 262 -165 33 -22 62 -45 64 -52 2 -7 -78 -52 -200 -112 -112 -55
-261 -134 -332 -175 -71 -42 -133 -76 -137 -76 -4 0 -30 33 -57 73 -27 39 -77
101 -111 137 -33 36 -56 67 -50 69 6 2 2 12 -10 25 -11 11 -38 48 -60 80 -34
51 -38 61 -25 71 13 9 13 13 -5 29 -21 19 -29 42 -11 31 6 -3 7 1 4 9 -3 9 -2
16 3 16 6 0 16 26 23 58 24 105 32 98 17 -16z m-28 -216 c72 -106 114 -164
186 -251 41 -49 72 -92 69 -94 -2 -2 -14 1 -27 7 -12 6 -56 24 -97 40 -41 17
-122 52 -180 80 -150 70 -225 102 -244 102 -23 0 -20 17 8 32 39 22 98 63 166
117 56 44 66 49 75 34 6 -9 25 -39 44 -67z m966 -143 c-102 -235 -129 -293
-166 -358 -22 -38 -50 -92 -61 -120 -47 -107 -197 -390 -207 -388 -6 2 -8 -3
-6 -10 3 -6 -10 -35 -29 -64 -36 -54 -72 -122 -100 -185 -9 -21 -21 -38 -25
-38 -4 0 -9 80 -10 178 -1 97 -5 220 -8 272 -3 52 -7 145 -9 205 -2 61 -5 139
-8 174 -2 41 0 69 8 76 39 38 417 245 448 245 7 0 25 8 38 17 14 10 31 18 38
19 7 2 19 7 26 13 21 17 101 59 105 55 2 -2 -13 -43 -34 -91z m-1155 -36 c58
-24 129 -56 158 -71 29 -15 107 -49 173 -76 131 -53 173 -76 164 -90 -3 -5 1
-159 9 -342 26 -579 26 -544 5 -517 -10 13 -22 33 -25 44 -4 11 -38 72 -77
135 -38 63 -95 160 -127 215 -31 55 -98 170 -147 255 -111 192 -269 505 -251
497 7 -3 60 -26 118 -50z"/>
<path d="M5373 7931 c-29 -20 -58 -43 -65 -52 -20 -26 -68 -53 -68 -40 0 7 -5
9 -10 6 -6 -4 -7 -11 -4 -17 8 -12 -82 -105 -147 -154 -26 -19 -57 -34 -70
-34 -20 -1 -21 -2 -8 -10 13 -8 14 -18 7 -57 -13 -76 -21 -933 -8 -933 6 0 8
-5 4 -12 -8 -13 -8 -6 0 -363 10 -415 12 -1623 3 -1975 -14 -540 -14 -590 -7
-590 13 0 17 -196 12 -659 -1 -124 1 -228 5 -232 14 -14 196 -31 275 -26 42 3
78 1 80 -3 3 -9 448 -19 448 -10 0 3 24 11 53 18 69 16 154 16 160 0 4 -10 8
-10 14 -2 4 7 36 15 71 19 76 9 75 17 -2 16 l-55 0 81 107 c44 59 105 133 134
166 54 59 64 79 42 92 -6 4 -8 3 -4 -4 3 -6 2 -13 -3 -16 -14 -9 -21 21 -20
87 1 45 3 55 9 37 14 -48 22 39 11 125 -10 77 -22 815 -14 815 9 0 92 -188
106 -240 9 -30 65 -210 126 -400 61 -190 127 -397 147 -460 20 -63 49 -150 65
-192 16 -42 29 -83 29 -91 0 -8 7 -20 15 -27 27 -22 16 -30 -41 -30 -35 0 -53
-4 -49 -10 4 -7 109 -10 301 -10 162 1 299 -2 305 -6 6 -3 14 -2 18 3 9 14
223 30 456 33 149 3 140 5 160 -40 10 -22 20 -38 23 -36 7 8 6 81 -2 94 -7 11
61 112 85 127 17 11 -17 -48 -40 -69 -12 -11 -21 -26 -21 -35 0 -19 57 48 85
101 48 90 111 188 121 188 19 0 0 64 -54 186 -27 60 -55 127 -62 149 -7 22
-18 51 -26 65 -7 14 -31 72 -54 130 -23 58 -75 186 -114 285 -40 99 -80 205
-90 235 -9 30 -21 64 -25 75 -14 32 -42 107 -56 150 -7 22 -23 65 -35 95 -12
30 -28 78 -37 105 -8 28 -18 57 -21 65 -3 8 -4 19 -3 24 3 12 -30 94 -98 248
-34 75 -61 141 -61 147 0 6 -6 11 -14 11 -7 0 -19 6 -25 14 -9 11 -6 18 16 35
15 11 31 24 35 28 70 76 112 126 137 161 17 23 36 42 41 42 6 0 10 5 10 11 0
5 -6 7 -12 3 -7 -5 2 12 21 36 18 25 42 60 53 78 11 17 24 32 30 32 13 0 -28
-67 -66 -107 -16 -18 -25 -33 -20 -33 25 0 149 163 138 182 -3 4 -1 8 4 8 6 0
12 7 16 15 10 28 -11 15 -35 -20 -40 -58 -41 -39 -3 33 44 81 49 86 41 45 -12
-60 8 -34 27 35 10 37 27 96 38 132 11 36 22 74 24 85 16 96 24 166 29 260 3
61 10 168 16 239 9 116 7 186 -7 298 -2 20 -20 87 -39 148 -19 61 -35 120 -35
131 0 10 -5 18 -11 17 -10 -3 -30 43 -54 122 -7 24 -7 25 9 5 17 -20 17 -19
11 5 -4 14 -14 30 -22 37 -8 6 -15 18 -17 26 -1 8 -9 26 -19 40 -9 15 -17 29
-17 32 0 6 -57 83 -105 143 -15 17 -22 32 -16 32 5 0 19 -12 30 -26 12 -15 21
-22 21 -17 0 21 -120 140 -196 195 -98 70 -332 191 -424 219 -38 11 -74 27
-81 35 -8 10 -15 11 -19 5 -4 -7 -55 1 -145 23 -170 41 -320 59 -480 58 -812
-9 -912 -7 -907 11 5 21 7 22 -55 -22z m672 -34 c356 12 484 7 600 -23 33 -9
72 -16 88 -17 15 0 27 -4 27 -8 0 -12 48 -35 88 -42 19 -4 48 -13 65 -21 113
-50 170 -58 77 -11 -61 31 -61 42 1 20 24 -9 64 -23 89 -31 88 -30 333 -161
372 -198 15 -14 31 -26 35 -26 26 0 183 -196 183 -228 0 -5 14 -26 30 -47 17
-21 30 -50 30 -64 0 -14 6 -38 14 -53 8 -15 17 -41 21 -59 4 -19 11 -40 16
-49 43 -78 98 -288 116 -450 13 -111 7 -390 -8 -390 -13 0 -16 47 -15 192 2
137 1 146 -16 143 -20 -4 -48 -29 -48 -42 0 -5 -5 -14 -12 -21 -14 -14 -21
-52 -10 -52 11 0 32 45 32 67 0 14 3 14 12 5 17 -17 18 -192 2 -185 -7 3 -13
-11 -16 -37 -3 -31 0 -39 10 -35 8 3 12 0 9 -7 -2 -7 -11 -13 -19 -12 -9 1
-14 -7 -13 -20 2 -12 8 -20 14 -18 6 1 11 -2 11 -8 0 -5 8 -10 17 -10 14 0 15
-2 4 -12 -11 -10 -14 -10 -18 0 -3 6 -9 12 -14 12 -5 0 -4 -9 3 -19 9 -15 8
-24 -7 -48 -11 -15 -18 -36 -16 -47 2 -13 -1 -16 -11 -10 -10 6 -11 4 -2 -7
15 -21 18 -95 3 -105 -9 -5 -10 -2 -5 11 5 15 4 16 -9 5 -8 -7 -15 -8 -15 -2
0 5 7 15 15 22 8 7 15 15 15 19 0 11 -57 41 -64 34 -3 -3 -6 -1 -6 6 0 7 7 10
18 7 13 -5 20 3 29 31 6 21 9 42 5 48 -10 17 -9 84 2 78 6 -4 6 1 2 13 -19 47
-27 197 -13 229 8 16 7 18 -4 8 -7 -7 -16 -13 -20 -13 -10 0 -24 41 -20 58 1
8 -4 21 -13 31 -9 10 -16 42 -18 86 -2 39 -6 72 -10 75 -4 3 -10 21 -12 40 -5
36 -38 145 -58 190 -39 90 -132 240 -149 240 -6 0 -9 5 -7 11 4 11 -44 69 -57
69 -4 0 -32 24 -61 52 -167 160 -396 279 -645 333 -171 36 -222 44 -387 56
-172 12 -321 10 -707 -10 -104 -5 -262 -12 -350 -15 l-160 -6 25 20 c66 55
187 159 219 189 84 81 68 77 326 64 127 -7 302 -9 390 -6z m384 -291 c251 -39
426 -87 596 -167 78 -36 236 -152 295 -216 29 -32 57 -57 61 -56 4 1 10 -9 13
-22 4 -14 11 -25 16 -25 6 0 10 -6 10 -13 0 -7 16 -29 36 -48 19 -18 51 -67
70 -108 34 -73 100 -300 115 -396 4 -27 12 -64 17 -81 6 -20 6 -37 0 -49 -8
-12 -7 -16 0 -11 7 4 5 -8 -3 -28 -18 -42 -18 -46 -4 -46 5 0 7 5 4 10 -3 6
-2 10 4 10 6 0 13 -11 17 -25 6 -26 -2 -405 -10 -465 -3 -19 -8 -53 -11 -75
-3 -22 -10 -41 -15 -43 -6 -2 -10 -13 -10 -25 0 -67 -83 -281 -160 -411 -40
-68 -67 -100 -127 -149 -80 -66 -240 -177 -254 -177 -5 0 -9 -9 -9 -19 0 -13
-13 -25 -42 -38 l-41 -18 38 -5 c21 -3 41 -12 45 -20 44 -89 179 -421 220
-540 18 -52 56 -149 85 -215 83 -188 127 -297 122 -302 -5 -4 -81 130 -182
322 -32 61 -100 187 -150 280 -51 94 -124 234 -163 311 -39 78 -112 215 -163
305 -286 510 -323 579 -307 579 17 0 91 109 121 180 41 95 59 216 58 389 -1
172 -13 234 -72 361 -31 68 -103 150 -172 195 -15 10 -26 20 -23 22 2 3 16 -3
30 -13 15 -9 29 -15 31 -12 3 2 -14 15 -38 28 -23 13 -49 28 -57 35 -8 7 -42
22 -74 34 -53 20 -73 21 -178 17 -66 -3 -128 -10 -138 -16 -10 -5 -34 -11 -52
-11 l-33 -1 29 -7 29 -6 -2 -120 c-2 -66 -5 -133 -7 -150 -2 -16 -3 -214 -2
-440 2 -225 3 -460 3 -522 0 -111 0 -112 25 -118 33 -9 181 4 260 21 36 8 98
33 138 54 41 22 75 40 78 40 2 0 4 -11 4 -25 0 -14 4 -25 9 -25 4 0 23 -27 40
-60 50 -93 47 -71 -4 30 -24 49 -40 92 -35 95 5 3 19 -14 31 -37 23 -45 25
-48 181 -338 56 -102 132 -246 171 -320 115 -223 237 -449 292 -545 28 -49 98
-175 155 -280 56 -104 128 -235 159 -289 49 -89 120 -247 121 -269 0 -5 6 -23
14 -40 45 -99 127 -310 123 -320 -2 -7 -99 177 -214 408 -116 231 -248 490
-293 575 -45 85 -172 328 -282 540 -110 212 -205 390 -210 395 -9 11 59 -143
72 -160 4 -5 51 -95 105 -200 260 -507 298 -581 305 -590 4 -5 141 -275 304
-600 163 -324 310 -615 326 -644 16 -30 27 -57 25 -59 -2 -3 -127 -6 -277 -7
-150 -1 -354 -6 -453 -11 -99 -4 -216 -9 -259 -9 -79 0 -79 0 -83 28 -2 15
-55 181 -118 370 -114 344 -245 755 -272 857 -8 30 -27 68 -42 85 -15 17 -44
70 -65 119 -37 86 -37 89 -41 237 -2 110 0 149 9 146 6 -2 14 -17 17 -33 6
-25 7 -24 8 14 1 41 0 42 -31 42 l-31 0 6 -125 c3 -69 3 -125 -1 -125 -8 0
-25 25 -67 100 -16 30 -59 82 -94 115 -36 33 -61 54 -57 48 5 -9 0 -13 -12
-13 -11 0 -21 -6 -23 -12 -2 -7 -2 -123 1 -258 3 -135 4 -542 2 -905 l-3 -660
-479 0 -480 0 1 275 c0 151 4 280 8 285 3 6 4 71 1 145 l-6 135 124 250 c69
138 183 357 254 489 71 131 127 240 125 242 -6 7 -267 -467 -377 -686 -43 -85
-90 -175 -104 -200 l-27 -45 7 75 c4 49 14 89 29 115 12 22 58 103 102 180 44
77 91 160 105 185 60 107 224 391 263 455 24 39 98 165 165 280 68 116 138
236 156 268 108 184 129 225 75 151 -87 -119 -632 -1034 -805 -1352 -43 -78
-82 -145 -87 -148 -5 -3 -10 34 -10 83 -3 191 3 1668 7 1674 8 13 8 575 0 587
-4 7 -2 12 4 12 6 0 9 4 5 9 -3 6 -8 164 -11 353 -11 716 -14 904 -17 927 -3
33 28 40 133 29 83 -9 279 -4 510 12 181 13 628 4 749 -14z m-94 -809 c126
-34 285 -218 329 -382 9 -34 19 -122 22 -200 5 -120 3 -155 -16 -245 -26 -127
-36 -148 -78 -173 -53 -31 -170 -57 -249 -56 l-73 2 5 36 c11 72 2 916 -10
987 -8 47 0 50 70 31z m-255 -417 c4 0 6 -8 4 -17 -7 -37 -12 -133 -5 -133 3
0 16 -3 28 -6 20 -6 22 -4 15 22 -4 16 -7 38 -6 49 1 11 2 35 3 53 0 17 4 32
9 32 8 0 32 -49 32 -67 0 -17 -17 -17 -23 0 -2 6 -4 -8 -4 -33 0 -25 3 -47 8
-50 4 -3 4 -11 0 -19 -7 -10 -13 -11 -31 -1 -12 6 -25 8 -28 4 -4 -4 -1 -9 6
-11 6 -3 12 -12 12 -20 0 -12 -3 -13 -13 -4 -11 8 -14 4 -14 -20 0 -29 2 -30
14 -14 7 10 16 16 20 12 3 -4 -1 -15 -10 -25 -19 -20 -23 -37 -7 -27 6 4 10
-5 10 -19 0 -14 5 -26 10 -26 6 0 10 11 10 25 0 14 -4 25 -10 25 -5 0 -10 5
-10 11 0 6 7 9 15 6 21 -9 28 9 9 27 -17 17 -11 38 9 31 7 -3 20 8 29 25 9 16
22 30 29 30 8 0 8 -4 -1 -15 -8 -9 -8 -15 -2 -15 7 0 8 -10 2 -30 -5 -19 -5
-32 2 -36 7 -4 4 -10 -6 -16 -15 -8 -15 -12 3 -37 19 -26 19 -41 -1 -41 -4 0
-8 9 -8 20 0 11 -7 20 -15 20 -16 0 -10 29 9 43 7 5 6 10 -4 17 -12 7 -17 3
-22 -18 -5 -15 -6 -32 -3 -39 2 -7 0 -15 -5 -18 -6 -4 -10 -14 -10 -23 1 -16
2 -16 14 1 16 21 27 23 20 3 -3 -9 3 -17 15 -21 13 -4 22 -17 25 -38 3 -18 9
-63 15 -102 24 -161 24 -162 6 -169 -14 -5 -17 -2 -13 19 3 13 1 22 -3 19 -11
-6 -10 4 0 31 5 11 2 41 -5 69 -7 27 -14 73 -15 102 -2 39 -6 51 -16 47 -7 -3
-13 0 -13 6 0 6 -7 8 -15 5 -19 -8 -11 -43 13 -61 14 -12 14 -13 -1 -13 -23 0
-20 -70 3 -71 10 0 11 -2 3 -6 -19 -7 -16 -21 7 -28 11 -3 20 -10 20 -15 0 -5
-8 -6 -17 -3 -12 5 -15 2 -11 -9 4 -9 1 -21 -5 -27 -7 -7 -7 -11 -1 -11 6 0 9
-16 8 -36 -3 -31 -1 -34 16 -29 33 11 22 -7 -45 -73 -35 -35 -66 -69 -69 -75
-11 -29 -25 21 -19 73 3 30 5 73 4 95 -2 125 5 691 10 710 1 6 4 -7 6 -27 2
-21 8 -38 13 -38z m1154 -1407 c-3 -10 4 -34 15 -53 39 -68 151 -302 151 -315
0 -7 4 -15 8 -17 4 -1 19 -25 31 -53 90 -189 109 -234 105 -239 -2 -3 -1 -4 2
-1 4 2 14 -4 23 -15 14 -16 18 -17 28 -5 10 11 9 15 -7 20 -20 6 -37 37 -93
170 -40 96 -51 135 -37 135 6 0 29 -39 52 -87 54 -115 78 -149 90 -131 12 19
58 -39 58 -73 0 -15 7 -29 15 -33 8 -3 15 -10 15 -16 0 -6 -5 -8 -12 -4 -7 4
-8 3 -4 -4 4 -6 12 -9 19 -6 8 3 25 -28 46 -83 19 -49 42 -106 52 -128 9 -22
26 -67 38 -100 12 -33 26 -69 31 -80 5 -11 25 -59 45 -107 19 -47 53 -125 75
-172 22 -46 40 -89 40 -94 0 -5 23 -63 50 -128 56 -133 53 -124 40 -124 -5 0
-10 9 -10 20 0 11 -5 20 -11 20 -6 0 -9 -6 -6 -12 3 -7 8 -21 12 -30 4 -11 3
-18 -4 -18 -6 0 -11 5 -11 12 0 16 -71 141 -77 135 -4 -5 9 -33 50 -112 20
-38 54 -75 69 -75 9 0 9 3 0 12 -16 16 -15 28 3 28 22 0 19 -43 -7 -87 -12
-21 -25 -40 -28 -43 -17 -16 -83 -104 -118 -158 -45 -70 -49 -69 -72 18 -6 25
-20 64 -31 88 -11 24 -17 47 -14 52 3 4 -6 30 -19 57 -37 73 -76 162 -76 174
0 6 -11 35 -25 65 -14 30 -25 61 -25 69 0 7 -4 17 -10 20 -5 3 -10 15 -10 25
0 11 -9 39 -19 62 -78 174 -117 274 -137 353 -4 17 -8 32 -10 35 -1 3 -5 15
-9 28 -4 12 -12 22 -17 22 -6 0 -8 7 -5 15 4 8 1 17 -4 21 -14 8 -40 70 -110
259 -33 88 -64 171 -70 184 -15 36 -3 37 16 2 8 -17 18 -31 20 -31 3 0 -4 18
-15 40 -12 23 -24 39 -28 36 -4 -2 -7 8 -8 22 -1 15 -15 51 -33 80 -17 29 -31
57 -31 62 0 5 -16 36 -35 69 -56 96 -92 191 -71 191 2 0 11 2 19 6 11 4 15 -8
20 -49 6 -61 39 -142 52 -130 4 5 5 2 1 -5 -4 -7 3 -25 17 -42 14 -16 31 -46
38 -67 6 -21 19 -49 29 -63 22 -33 51 -113 54 -148 3 -40 25 -112 35 -112 5 0
9 -11 9 -24 0 -25 48 -145 108 -271 19 -38 34 -78 34 -89 0 -12 5 -16 15 -12
8 3 15 1 15 -4 0 -12 100 -220 106 -220 10 0 -102 236 -116 245 -5 3 -16 27
-25 54 -9 27 -22 55 -30 61 -8 7 -17 28 -21 49 -4 20 -13 50 -22 66 -8 17 -19
39 -25 50 -6 11 -11 35 -13 53 -2 28 0 31 12 21 8 -6 14 -20 14 -30 0 -10 4
-20 9 -24 5 -3 13 -20 17 -38 4 -17 9 -26 11 -19 7 19 -46 152 -89 222 -19 32
-58 141 -58 165 0 5 8 -2 17 -15 10 -14 18 -28 18 -32 0 -3 3 -10 8 -14 4 -4
7 -14 7 -21 0 -8 9 -32 20 -55 11 -22 17 -45 14 -49 -3 -5 2 -9 10 -9 9 0 16
-5 16 -11 0 -6 6 -16 13 -24 8 -7 27 -47 43 -89 16 -42 32 -76 36 -76 8 0 -29
121 -39 129 -12 8 -94 171 -87 171 4 0 1 7 -6 15 -6 8 -9 19 -6 24 4 5 2 12
-3 16 -6 3 -8 12 -5 19 6 15 -34 97 -53 109 -6 4 -10 14 -7 22 4 8 1 15 -5 15
-6 0 -10 3 -10 8 3 15 -54 131 -62 126 -5 -3 -6 2 -3 10 4 11 0 16 -10 16 -9
0 -16 5 -16 11 0 5 5 7 10 4 13 -8 -10 46 -28 64 -10 10 -10 16 -1 27 16 19
28 18 23 -3z m-1012 -1150 c1 -21 3 -67 4 -103 1 -36 6 -96 11 -135 6 -38 7
-97 3 -130 -5 -40 -3 -63 4 -68 8 -6 7 -10 -1 -14 -16 -6 -17 -67 -2 -95 9
-17 13 -18 20 -7 6 10 9 8 9 -9 0 -19 -3 -21 -19 -13 -10 6 -22 18 -26 28 -10
25 -15 127 -6 133 4 3 -1 12 -10 21 -16 16 -17 12 -13 -65 10 -218 16 -267 30
-249 9 13 11 34 7 71 -4 32 -2 52 4 52 18 0 36 -29 30 -50 -3 -11 -1 -20 4
-20 18 0 9 -23 -23 -60 -18 -20 -51 -60 -73 -89 l-40 -52 -3 63 c-1 35 -6 72
-11 83 -19 41 -29 185 -26 363 2 101 6 186 9 189 3 4 7 -20 7 -53 6 -280 10
-387 17 -434 6 -35 8 64 5 277 -3 294 -2 332 12 327 11 -5 15 1 15 25 0 17 5
31 10 31 6 0 10 -19 10 -43 0 -24 3 -47 6 -50 4 -4 7 -47 8 -96 1 -61 5 -94
14 -103 11 -11 12 -5 6 37 -4 28 -7 59 -6 70 5 83 0 160 -10 170 -8 9 1 35 13
35 5 0 10 -17 11 -37z"/>
<path d="M6442 5463 c-40 -5 -63 -47 -53 -95 l6 -30 83 -2 c45 0 82 1 83 4 0
3 2 14 4 24 7 35 -45 107 -74 104 -9 0 -31 -3 -49 -5z"/>
<path d="M6027 5416 c-8 -9 -18 -29 -22 -45 -7 -32 10 -75 25 -66 5 3 40 6 79
6 79 1 89 12 68 78 -12 36 -13 36 -73 39 -45 2 -66 -1 -77 -12z"/>
<path d="M6463 5014 c-24 -26 -32 -42 -28 -58 2 -11 2 -15 -1 -8 -11 23 -24
12 -24 -22 0 -38 36 -162 49 -171 14 -8 41 6 41 21 0 8 5 14 10 14 6 0 10 -8
10 -17 0 -13 3 -14 12 -5 14 14 48 16 48 2 0 -5 -7 -6 -17 -3 -11 4 -14 3 -9
-5 11 -18 49 -15 42 3 -4 11 1 15 19 15 13 0 26 4 30 10 8 13 35 1 35 -17 0
-9 8 -13 22 -11 17 2 25 13 33 48 13 50 -1 101 -44 173 -30 49 -67 67 -137 67
-52 0 -59 -3 -91 -36z m248 -110 c14 -35 10 -72 -8 -78 -10 -3 -57 -2 -105 2
-47 4 -85 4 -82 1 6 -11 -32 -17 -49 -8 -8 5 -18 24 -22 42 -4 17 -8 39 -11
47 -3 13 16 15 133 14 125 -1 137 -2 144 -20z"/>
<path d="M5858 5033 c-9 -2 -29 -24 -43 -49 -14 -24 -30 -44 -36 -44 -6 0 -7
-4 -4 -10 3 -5 -1 -23 -10 -39 -18 -36 -19 -61 -3 -112 9 -31 16 -39 35 -39
14 0 23 6 23 16 0 11 5 14 16 10 9 -3 23 -6 32 -6 15 0 15 -2 2 -10 -11 -7 -7
-10 18 -10 20 0 31 4 27 10 -9 14 98 13 113 -2 8 -8 15 -8 26 1 9 7 15 16 14
19 -1 4 4 25 10 47 25 84 13 140 -42 203 -17 19 -29 22 -90 21 -39 -1 -79 -3
-88 -6z m197 -166 c-2 -27 -10 -54 -17 -59 -19 -12 -63 -5 -60 10 1 9 -19 12
-75 12 -70 0 -75 -1 -57 -15 18 -14 16 -15 -26 -13 -43 3 -45 5 -45 33 0 17 5
42 12 57 13 27 14 27 131 30 64 2 123 1 129 0 9 -3 11 -20 8 -55z"/>
<path d="M6723 4199 c-31 -9 -83 -64 -83 -87 0 -7 -11 -14 -24 -18 -23 -5 -24
-11 -30 -102 -5 -72 -3 -110 8 -147 45 -152 55 -186 62 -196 4 -7 22 -9 50 -5
24 3 44 1 46 -4 5 -16 182 -22 246 -9 31 6 75 12 97 13 37 1 40 3 48 39 7 27
19 45 41 58 17 10 24 19 16 19 -12 1 -12 3 3 14 21 16 22 26 2 26 -8 0 -17
-11 -21 -25 -3 -14 -10 -25 -15 -25 -12 0 -11 7 2 45 10 28 8 39 -20 97 -35
73 -38 96 -16 104 24 10 17 27 -9 20 -21 -5 -27 2 -56 57 -63 120 -92 137
-222 136 -51 0 -107 -5 -125 -10z m230 -18 c25 -10 57 -37 57 -49 0 -8 -287
-5 -301 3 -5 4 -9 -4 -9 -17 0 -36 -11 -68 -22 -62 -5 3 -6 -5 -3 -19 4 -14 2
-28 -4 -31 -7 -5 -11 8 -11 39 0 25 4 44 9 41 5 -3 9 5 9 18 0 41 30 74 70 79
75 8 181 7 205 -2z m89 -138 l27 -53 -174 0 c-96 0 -178 0 -182 1 -8 0 -8 20
2 77 l6 33 147 -3 147 -3 27 -52z m-174 -83 c96 0 182 4 192 10 15 8 22 5 38
-18 25 -36 56 -126 50 -144 -7 -16 -64 -23 -73 -8 -4 6 -11 8 -16 5 -19 -13
21 -37 51 -31 33 6 37 -1 16 -29 -11 -15 -19 -17 -52 -9 -44 10 -335 13 -329
4 2 -3 -11 -6 -29 -7 -28 -1 -34 4 -49 38 -9 22 -17 48 -17 59 0 12 -6 31 -14
43 -8 12 -18 38 -21 58 -6 35 -6 36 18 32 14 -3 28 0 32 7 5 8 10 9 18 1 7 -7
73 -11 185 -11z"/>
<path d="M5549 4171 c-66 -14 -102 -43 -141 -115 -20 -37 -34 -74 -31 -82 3
-9 -1 -14 -12 -14 -12 0 -15 5 -10 20 5 15 2 20 -14 20 -31 0 -36 -21 -11 -40
l23 -17 -38 -62 c-46 -75 -49 -118 -11 -206 22 -53 28 -60 55 -63 27 -3 31 0
31 22 l0 26 177 -4 c175 -5 177 -5 180 -28 5 -35 19 -43 50 -32 18 6 29 18 31
32 2 16 16 28 43 38 44 18 52 34 14 26 -14 -2 -25 -8 -25 -13 0 -5 -4 -9 -10
-9 -5 0 -10 7 -10 15 0 8 8 15 19 15 10 0 24 7 31 15 14 17 3 20 -20 6 -36
-24 -28 29 9 55 13 10 15 26 11 100 -3 50 -2 96 4 105 7 13 3 25 -18 49 -15
18 -36 50 -47 71 -10 21 -30 46 -43 54 -28 18 -179 29 -237 16z m195 -104 c17
-13 39 -91 28 -102 -8 -8 -350 -6 -355 3 -3 4 6 31 19 60 l23 52 134 0 c94 0
138 -4 151 -13z m58 -170 c-1 -23 -8 -61 -15 -85 -12 -43 -16 -46 -77 -55
l-25 -3 28 -8 c67 -20 85 3 108 137 7 45 16 67 25 67 19 0 19 -67 0 -85 -7 -8
-16 -37 -20 -65 -4 -28 -11 -61 -16 -74 l-9 -24 -226 -1 -226 -2 -29 30 c-17
16 -30 34 -30 40 0 20 18 20 35 1 19 -21 45 -27 45 -10 0 6 -8 10 -18 10 -51
0 -55 56 -8 125 l33 50 214 -3 214 -2 -3 -43z"/>
<path d="M9653 7959 c4 -14 -12 -15 -142 -12 -275 8 -1120 8 -1107 1 7 -4 49
-8 94 -10 45 -1 82 -4 82 -6 0 -14 -275 -286 -286 -284 -12 2 -14 -95 -10
-615 l4 -618 -25 -44 -25 -43 31 -29 c27 -25 31 -34 31 -83 0 -51 -2 -56 -35
-76 -41 -26 -46 -57 -15 -107 14 -24 16 -33 7 -33 -8 0 -24 -12 -38 -26 -13
-14 -39 -32 -56 -39 -30 -13 -32 -17 -31 -58 2 -31 8 -48 21 -56 36 -23 47 4
22 53 -18 34 -11 50 21 42 17 -5 24 -2 24 7 0 19 30 44 63 52 l27 7 0 -200 0
-200 -55 -80 c-55 -80 -85 -113 -85 -94 0 6 10 23 23 39 45 57 50 67 17 36
-37 -33 -58 -35 -115 -13 -16 6 -38 20 -48 31 -15 16 -16 23 -6 41 7 13 15 25
18 28 41 32 70 117 35 103 -10 -4 -17 1 -21 16 -3 11 -9 19 -13 16 -11 -7 -33
22 -26 33 3 6 27 13 52 17 63 9 97 44 59 59 -9 3 -20 -3 -27 -14 -9 -13 -24
-20 -46 -20 -80 0 -99 -57 -37 -107 41 -32 43 -43 14 -69 -50 -45 -60 -112
-21 -147 9 -9 39 -24 66 -35 29 -11 44 -22 38 -26 -22 -13 -14 -71 13 -96 23
-22 29 -23 58 -12 52 19 67 16 68 -15 1 -16 2 -44 3 -63 0 -21 -6 -42 -16 -52
-24 -24 -40 -86 -28 -109 17 -31 11 -54 -26 -102 -35 -45 -36 -48 -21 -71 15
-22 15 -25 -3 -41 -42 -38 -3 -93 43 -62 20 13 23 12 32 -7 6 -12 22 -22 38
-24 26 -3 27 -6 22 -35 -5 -29 -15 -959 -16 -1629 l-1 -268 -37 -2 -36 -1 35
-4 c40 -5 65 -22 34 -24 -10 -1 -31 0 -46 1 -16 1 -28 -3 -28 -9 0 -6 20 -11
45 -11 29 0 46 -5 46 -12 1 -7 3 -20 4 -28 1 -8 3 -27 4 -42 0 -16 6 -28 12
-28 7 0 10 20 7 58 l-3 57 255 7 c306 9 791 10 950 3 217 -11 494 -14 400 -5
-47 4 -116 9 -155 10 -48 1 -64 4 -49 10 11 4 234 10 495 14 261 3 475 5 475
6 1 0 4 9 7 20 3 11 10 20 16 20 6 0 8 -7 5 -15 -4 -9 0 -15 10 -15 9 0 16 5
16 12 0 6 6 4 13 -6 8 -11 19 -15 31 -10 14 5 15 9 4 15 -9 6 -4 9 15 9 15 0
30 7 33 15 4 10 19 15 38 15 17 0 48 3 69 6 31 5 36 4 31 -10 -5 -12 0 -16 19
-16 14 0 29 5 32 10 4 6 10 8 15 5 4 -3 6 3 3 13 -3 14 -12 17 -32 14 -17 -2
-34 3 -44 13 -11 10 -48 20 -109 27 -146 17 -138 27 22 28 104 1 138 4 121 11
-31 12 -68 16 -155 18 -101 2 -72 14 41 17 54 2 112 4 128 5 l30 1 -33 8 c-32
8 -100 10 -309 13 -108 1 -128 16 -31 24 29 2 55 8 56 13 6 16 42 11 42 -5 0
-8 5 -15 11 -15 5 0 7 5 4 10 -3 6 1 10 10 10 9 0 13 -5 9 -11 -5 -9 11 -10
59 -5 36 4 91 7 121 7 31 0 58 5 61 10 4 5 -2 10 -12 10 -47 3 -87 7 -192 17
-63 6 -125 9 -138 6 -33 -9 -29 11 10 40 103 79 212 269 283 496 25 80 48 152
51 160 6 15 80 362 88 410 8 46 14 73 19 78 3 2 1 14 -5 25 -8 14 -8 17 0 13
7 -4 10 10 10 41 0 89 -19 287 -35 373 -31 164 -66 315 -74 320 -4 3 -22 34
-40 70 -22 43 -28 66 -21 68 8 3 4 10 -9 19 -12 9 -37 40 -56 70 -37 57 -140
182 -181 220 l-24 23 26 27 c14 16 32 43 40 60 8 18 27 45 43 61 16 16 32 41
36 56 4 15 13 29 20 32 8 3 12 13 9 23 -2 10 5 47 17 82 11 35 23 76 25 91 3
15 9 38 14 51 6 14 6 28 1 33 -5 5 -5 15 0 24 7 12 15 11 51 -9 23 -13 39 -19
35 -12 -4 6 -21 18 -38 27 -28 14 -30 19 -24 52 4 21 9 66 11 102 1 36 11 119
20 185 27 194 22 392 -11 472 -18 42 -18 57 1 49 10 -4 15 1 15 16 0 16 -3 18
-13 9 -17 -14 -27 -4 -27 25 0 18 4 22 18 17 15 -6 15 -4 -2 15 -22 26 -50 99
-66 176 -6 30 -20 62 -30 71 -21 19 -28 41 -9 29 7 -4 10 -1 7 7 -3 8 -12 13
-19 11 -8 -2 -11 -1 -7 3 9 9 -29 74 -67 117 -16 18 -36 41 -44 51 -12 16 -12
17 5 11 10 -4 25 -12 32 -17 7 -5 15 -8 18 -5 3 3 -19 19 -48 36 -30 16 -78
54 -108 83 -55 54 -104 87 -235 155 -92 48 -71 55 30 9 42 -20 80 -34 82 -31
7 6 -69 44 -132 66 -27 10 -58 21 -67 25 -11 4 -18 3 -18 -4 0 -6 8 -11 18
-12 12 0 13 -2 3 -6 -8 -3 -20 2 -27 12 -13 17 -99 45 -204 66 -92 19 -132 29
-145 39 -5 4 -30 10 -55 13 -25 3 -76 11 -115 17 -111 17 -125 18 -125 7 0 -6
-7 -2 -16 9 -11 13 -14 14 -11 3z m-848 -44 c77 -3 286 -8 465 -11 179 -3 337
-7 353 -9 15 -1 54 -3 88 -4 37 -1 58 -5 54 -11 -3 -5 -1 -10 4 -10 6 0 11 5
11 10 0 6 11 10 25 10 14 0 25 -5 25 -11 0 -6 7 -9 15 -5 8 3 26 1 39 -4 13
-5 44 -11 68 -14 23 -3 57 -9 73 -14 17 -5 35 -7 42 -5 6 2 14 -1 18 -6 3 -6
14 -11 24 -11 32 0 228 -68 294 -102 34 -17 87 -48 117 -69 70 -47 218 -200
256 -264 15 -28 42 -70 60 -95 47 -68 86 -182 129 -377 3 -12 1 -24 -4 -28 -6
-3 -13 10 -17 30 -3 19 -10 37 -14 40 -5 3 -6 14 -3 25 4 13 0 20 -10 20 -8 0
-20 14 -27 30 -7 17 -16 30 -21 30 -12 0 -11 -3 6 -36 8 -16 15 -36 15 -44 0
-9 5 -21 11 -27 6 -6 7 -13 2 -16 -5 -3 -18 17 -28 46 -10 29 -22 56 -26 62
-16 17 -10 35 9 28 15 -6 15 -5 3 10 -7 9 -17 14 -22 11 -5 -3 -6 2 -3 10 3 9
1 16 -5 16 -6 0 -11 6 -11 13 0 15 -161 182 -210 218 -19 15 -63 40 -98 58
-34 17 -86 46 -115 65 -47 29 -176 87 -195 86 -4 -1 56 -33 133 -73 133 -68
197 -107 220 -133 17 -19 73 -55 83 -52 12 4 92 -90 92 -108 0 -8 6 -17 14
-20 8 -3 14 -13 14 -22 -1 -9 17 -47 40 -84 23 -36 44 -79 48 -94 4 -15 13
-39 20 -53 8 -14 14 -35 13 -46 0 -11 -19 18 -42 65 -130 265 -294 419 -615
580 -144 71 -271 107 -432 121 -149 13 -1192 -1 -1322 -18 -26 -3 -63 -2 -83
1 l-37 7 110 107 c61 59 118 123 127 142 22 43 34 52 60 45 11 -3 83 -7 160
-10z m-398 -310 c21 -3 49 -8 63 -11 19 -4 22 -2 10 6 -12 8 -11 10 7 10 12 0
24 -6 26 -12 4 -10 8 -9 16 2 6 8 11 11 11 5 0 -7 195 -9 567 -8 313 0 613 -3
668 -8 151 -15 355 -71 500 -138 165 -77 336 -214 414 -331 49 -73 120 -230
164 -360 47 -140 49 -150 53 -265 2 -55 5 -125 6 -155 7 -200 -26 -486 -58
-497 -13 -4 -104 64 -104 78 0 5 11 31 25 58 53 101 40 147 -44 158 -46 6 -46
6 -29 36 7 12 13 40 14 62 0 22 8 59 18 83 24 63 8 90 -69 121 -52 20 -64 22
-90 11 -55 -22 -76 -24 -69 -6 3 9 1 16 -5 16 -7 0 -25 10 -41 22 -23 16 -27
25 -20 39 7 13 4 21 -15 33 -32 21 -31 30 1 44 15 7 22 17 18 24 -12 19 -15
86 -4 93 17 11 11 54 -10 67 -14 9 -20 24 -20 51 0 51 -44 81 -109 73 -24 -4
-51 -12 -59 -18 -8 -7 -30 -18 -49 -24 -31 -11 -37 -10 -60 12 -27 25 -63 29
-70 9 -2 -6 9 -11 23 -10 15 0 29 -6 32 -14 4 -11 -3 -13 -30 -8 -20 3 -40 1
-45 -4 -6 -6 -14 -5 -22 5 -9 11 -8 17 4 29 20 20 19 28 -2 20 -15 -5 -16 -3
-5 8 22 24 13 58 -29 104 -40 43 -40 45 -29 81 15 44 6 55 -62 78 -52 17 -73
13 -88 -14 -13 -25 -68 -52 -73 -36 -2 6 -14 -1 -26 -16 -27 -34 -67 -37 -76
-8 -4 11 -19 32 -33 45 -15 14 -32 40 -38 58 -9 27 -16 32 -45 35 l-34 2 26
-14 c29 -17 51 -59 43 -80 -4 -10 3 -17 20 -22 14 -3 34 -21 45 -40 23 -38 33
-41 75 -19 15 8 34 15 41 15 8 0 26 11 42 24 53 44 84 55 123 42 40 -13 50
-39 24 -67 -17 -19 -16 -21 33 -72 46 -47 50 -55 41 -77 -6 -14 -12 -20 -15
-13 -2 7 -13 2 -29 -13 -32 -33 -31 -44 1 -14 24 23 25 23 25 3 0 -11 -10 -27
-22 -36 -13 -8 -20 -18 -16 -22 4 -4 14 -2 22 4 35 29 70 -26 59 -94 -4 -28
-4 -29 11 -11 11 14 14 31 9 59 l-6 39 31 -6 c17 -4 33 -3 36 3 4 6 15 7 28 2
15 -5 34 -1 65 17 33 18 58 24 104 24 78 0 99 -17 81 -64 -13 -36 -9 -48 19
-48 33 0 24 -39 -12 -52 l-30 -10 33 -29 c30 -26 31 -30 16 -39 -10 -6 -18
-16 -18 -23 -1 -15 -22 -39 -95 -107 -33 -30 -60 -60 -60 -66 0 -6 -6 -19 -14
-28 -7 -9 -10 -16 -6 -16 13 0 65 34 65 43 0 21 101 107 125 107 33 0 32 -18
-1 -30 -22 -9 -192 -150 -179 -150 3 0 8 0 11 1 4 0 10 -5 14 -12 6 -9 14 -6
31 10 12 11 20 23 17 27 -9 8 42 56 82 76 41 22 41 22 34 4 -3 -8 -1 -17 5
-20 6 -4 8 -13 4 -21 -4 -11 0 -14 13 -9 11 4 24 11 31 16 8 7 10 3 6 -11 -7
-26 5 -26 75 -6 63 19 114 9 157 -31 24 -22 25 -27 12 -37 -8 -7 -22 -41 -31
-75 -15 -60 -44 -101 -71 -101 -5 0 1 9 14 20 13 11 22 21 20 23 -8 8 -50 -34
-45 -43 6 -9 -73 -71 -91 -71 -5 0 -25 14 -46 31 -54 44 -53 32 1 -25 l46 -49
17 22 c18 22 35 29 23 9 -4 -7 -3 -8 5 -4 6 4 9 11 6 15 -2 5 15 22 39 39 37
26 43 29 39 13 -5 -21 4 -25 74 -36 22 -4 49 -15 58 -25 16 -17 16 -21 2 -35
-9 -8 -24 -15 -34 -15 -17 -1 -17 -1 0 -14 23 -18 22 -27 -13 -71 -16 -21 -30
-39 -30 -40 0 -2 17 -13 37 -25 l37 -22 -31 -26 c-26 -23 -133 -173 -133 -187
0 -29 88 79 95 117 4 22 60 78 78 78 5 0 11 -8 14 -19 3 -13 11 -17 24 -14 24
7 25 -18 2 -54 -10 -14 -18 -32 -19 -40 -4 -25 -35 -52 -52 -45 -15 5 -15 4
-3 -11 12 -15 12 -22 1 -42 -7 -14 -19 -25 -27 -25 -7 0 -13 -5 -13 -11 0 -18
-39 -47 -58 -44 -9 1 -11 0 -4 -2 15 -5 16 -43 1 -43 -6 0 -22 9 -36 20 -30
23 -45 26 -37 7 2 -7 17 -18 32 -23 l26 -9 -56 -45 c-31 -25 -67 -53 -80 -64
-12 -10 -42 -27 -65 -38 -24 -10 -43 -23 -43 -28 0 -4 -3 -17 -6 -27 -4 -13
-3 -15 4 -4 7 10 14 11 31 2 47 -26 157 -107 212 -159 59 -54 59 -55 37 -67
-13 -6 -44 -10 -70 -8 -27 2 -58 -1 -69 -8 -31 -16 -137 -98 -146 -112 -4 -7
9 0 29 16 20 15 39 27 42 27 3 0 21 11 41 24 44 30 99 33 92 4 -3 -10 -2 -18
2 -18 4 0 8 -18 9 -40 2 -32 -2 -42 -23 -56 -19 -13 -29 -14 -37 -6 -9 9 -3
20 21 43 18 17 30 33 26 37 -9 10 -105 -91 -110 -116 -5 -28 -1 -28 27 0 18
18 18 20 3 15 -15 -6 -16 -5 -5 8 7 8 16 15 20 15 13 0 20 -30 10 -43 -56 -70
-74 -87 -96 -87 -16 0 -28 8 -34 23 -5 12 -9 16 -9 9 -1 -7 -6 -10 -11 -7 -6
4 -8 11 -5 16 4 5 -1 16 -9 24 -14 14 -17 13 -31 -14 -16 -32 -39 -53 -29 -27
4 9 1 16 -6 16 -7 0 -10 7 -6 15 3 8 0 15 -5 15 -7 0 -9 -11 -6 -26 4 -25 3
-26 -34 -21 -22 3 -39 2 -39 -2 0 -3 -10 -11 -22 -16 -13 -6 -22 -17 -20 -26
1 -9 -8 -21 -20 -28 -22 -11 -15 -11 28 3 16 5 23 1 31 -17 6 -13 8 -29 4 -35
-16 -26 -131 -45 -131 -21 0 5 -4 7 -10 4 -5 -3 -18 -2 -27 3 -19 10 -43 6
-43 -8 0 -4 21 -18 46 -31 40 -19 51 -20 79 -10 18 6 39 9 47 6 8 -3 26 4 41
15 29 23 34 51 17 94 -12 33 -3 37 50 24 36 -9 45 -9 54 5 11 14 14 13 36 -4
14 -10 35 -19 48 -19 38 0 98 37 111 68 7 17 30 44 51 60 40 33 57 72 42 99
-14 25 -3 50 29 63 15 7 31 21 35 32 9 29 24 18 87 -63 64 -83 149 -248 178
-348 10 -36 23 -79 29 -96 10 -33 40 -182 40 -202 0 -7 -4 -13 -8 -13 -5 0
-14 31 -21 69 -14 78 -40 166 -40 136 0 -24 8 -67 44 -245 24 -121 27 -148 21
-265 -3 -71 -12 -159 -20 -195 -8 -36 -21 -100 -30 -143 -9 -43 -21 -88 -28
-100 -7 -12 -11 -26 -10 -30 3 -9 -27 -65 -44 -83 -5 -6 -25 -41 -44 -77 -30
-60 -73 -116 -168 -221 -19 -22 -51 -45 -71 -52 -19 -6 -37 -18 -40 -25 -2 -8
2 -10 12 -6 14 5 15 3 5 -13 -15 -23 -41 -35 -46 -21 -4 12 -52 -7 -52 -21 0
-15 -119 -65 -242 -103 -222 -67 -462 -96 -791 -95 -115 0 -212 2 -215 4 -4 2
-133 7 -287 11 -154 4 -282 9 -285 10 -3 2 -30 0 -60 -5 l-55 -8 68 -1 c38 0
66 -5 63 -10 -3 -5 -72 -9 -153 -10 -82 -1 -156 -3 -166 -4 -18 -2 -19 10 -15
228 1 127 3 456 3 733 0 276 3 502 7 502 4 0 8 -21 9 -47 1 -98 11 -308 15
-312 6 -7 4 259 -2 317 -4 32 -12 52 -20 52 -9 0 -12 18 -12 65 1 36 4 65 7
65 3 0 4 71 3 159 l-4 158 35 22 c19 12 42 18 51 15 14 -5 10 -12 -21 -39 -21
-18 -35 -36 -32 -39 4 -4 25 10 48 31 36 32 39 38 25 46 -14 8 -9 17 35 57 29
27 48 51 42 54 -12 8 -56 -11 -97 -41 -17 -13 -35 -23 -39 -23 -5 0 -16 -7
-26 -16 -17 -15 -18 -10 -21 110 -3 124 -3 127 24 164 15 20 33 49 39 65 6 15
17 27 25 27 22 0 17 -16 -17 -55 -17 -19 -27 -35 -22 -35 5 0 14 5 19 10 8 8
19 7 39 0 36 -14 55 2 31 26 -9 9 -16 26 -15 38 1 11 -4 34 -11 49 -11 22 -11
33 -2 48 7 10 12 26 12 35 0 16 -1 16 -18 1 -19 -18 -32 -14 -32 9 0 7 29 51
64 98 35 47 59 87 53 89 -6 2 -26 -17 -44 -42 -72 -99 -106 -155 -96 -158 13
-5 5 -43 -8 -43 -5 0 -9 -6 -9 -14 0 -8 -7 -16 -15 -20 -27 -10 -19 66 10 98
14 15 25 33 25 40 0 7 10 24 23 37 33 37 59 79 47 79 -5 0 -10 7 -10 16 0 9 6
14 13 11 6 -2 22 10 35 27 28 38 28 49 -1 15 -12 -14 -30 -29 -39 -32 -9 -3
-22 -15 -28 -26 -9 -17 -8 -20 5 -15 21 8 19 -2 -7 -36 -25 -34 -44 -40 -27
-9 9 17 8 23 -2 30 -9 6 -10 12 -4 17 21 15 48 52 38 52 -5 0 -24 -18 -42 -40
-17 -22 -25 -37 -16 -34 19 8 11 -19 -17 -55 l-18 -24 1 44 c1 32 9 51 27 72
14 15 22 27 17 27 -4 0 -1 8 7 18 29 33 32 45 11 33 -11 -6 -28 -26 -37 -46
-20 -41 -26 -44 -26 -10 0 14 9 34 20 45 18 18 11 38 -9 25 -18 -11 -21 32
-20 308 2 305 2 307 59 273 35 -20 44 -20 65 0 27 28 28 7 1 -29 -14 -19 -26
-37 -26 -41 0 -3 -18 -33 -40 -65 -41 -60 -46 -71 -31 -71 4 0 29 33 55 74 26
41 54 80 62 87 8 6 22 30 32 53 11 23 33 57 50 75 17 19 29 38 26 43 -3 4 6
19 20 33 29 29 31 35 13 35 -7 0 -46 -38 -85 -85 -40 -47 -77 -85 -83 -85 -19
0 2 44 33 69 23 18 26 26 17 37 -10 12 -15 12 -30 -2 -22 -20 -38 -11 -19 11
10 13 9 15 -9 15 -25 0 -26 7 -4 32 26 29 7 33 -21 5 -14 -14 -28 -21 -31 -16
-4 5 -17 6 -31 3 -22 -6 -24 -4 -24 34 0 23 5 44 11 48 8 4 7 9 -2 15 -12 8
-11 11 1 19 12 7 12 12 2 22 -19 19 -14 30 7 18 27 -14 30 -13 24 10 -5 18 0
20 34 20 l40 0 -25 51 c-30 60 -25 67 55 93 65 20 92 20 115 0 14 -14 20 -14
33 -4 12 10 13 16 4 26 -8 10 -8 14 0 14 6 0 11 -4 11 -10 0 -13 47 -13 55 -1
3 5 1 12 -5 16 -17 11 -11 43 12 59 33 23 53 20 93 -16 l36 -31 -28 -23 c-34
-27 -25 -43 10 -19 20 13 30 14 46 6 17 -9 20 -8 23 12 2 16 11 23 30 25 22 3
29 -2 34 -22 3 -14 9 -26 13 -26 8 0 36 43 33 51 0 4 3 20 7 37 5 17 7 33 4
36 -9 8 -32 -26 -33 -46 0 -11 -8 -18 -19 -18 -23 0 -36 16 -21 25 5 3 10 25
10 48 0 23 9 61 20 85 20 45 12 57 -14 20 l-16 -23 -28 28 -27 28 25 19 c14
11 42 20 65 21 33 1 36 2 15 8 -14 4 -25 13 -25 21 0 18 53 26 68 11 17 -17
50 -14 43 4 -3 10 7 20 31 31 29 14 39 15 55 5 11 -7 21 -11 23 -9 9 10 39 74
37 80 -1 3 5 12 13 18 8 7 15 18 15 26 0 16 37 37 50 29 6 -3 10 1 10 9 0 18
62 47 102 48 17 1 28 8 31 19 6 24 53 25 79 2 22 -20 24 -1 2 21 -22 23 -57
20 -114 -9 -27 -14 -61 -25 -75 -25 -38 0 -109 -71 -136 -136 -17 -41 -27 -53
-38 -48 -42 17 -52 15 -79 -14 -25 -27 -34 -30 -69 -25 -38 5 -43 2 -97 -50
-52 -52 -55 -57 -45 -81 7 -14 24 -29 40 -35 21 -7 26 -14 22 -30 -7 -29 -19
-34 -42 -19 -18 11 -25 9 -53 -19 -31 -29 -35 -30 -55 -16 -30 20 -77 9 -99
-25 -9 -15 -30 -37 -45 -50 -16 -13 -27 -28 -24 -33 11 -16 -8 -9 -31 12 l-22
21 -86 -33 c-94 -35 -98 -42 -77 -116 10 -34 1 -43 -40 -43 -18 0 -19 12 -19
341 0 188 -5 429 -11 535 -9 155 -9 197 2 210 6 8 18 13 25 10 7 -3 30 -8 51
-11z m2334 -2141 c6 -8 10 -14 7 -14 -2 0 20 -25 49 -56 82 -87 174 -237 222
-364 25 -66 27 -100 3 -49 -9 20 -23 43 -31 53 -7 9 -11 16 -7 16 7 0 -62 132
-95 180 -47 69 -118 156 -163 200 -25 24 -46 47 -46 51 0 11 49 -3 61 -17z
m-2425 -460 c-3 -14 -6 -68 -7 -120 -1 -72 -5 -94 -15 -94 -8 0 -14 7 -14 15
0 8 -4 15 -10 15 -5 0 -10 -5 -10 -11 0 -6 -6 -9 -14 -6 -7 3 -19 0 -25 -6 -8
-8 -14 -8 -23 1 -10 10 -10 15 2 22 8 6 20 8 27 5 6 -2 17 4 25 12 11 14 11
16 -3 11 -17 -6 -39 27 -39 57 0 16 87 125 101 125 5 0 7 -12 5 -26z m2761
-189 c6 -2 34 -214 31 -240 -1 -17 1 -35 5 -42 10 -17 7 -194 -4 -187 -5 3 -9
-5 -10 -18 -1 -16 -5 -12 -13 17 -11 34 -11 42 2 51 13 9 13 20 3 75 -6 35
-13 85 -15 111 -3 26 -7 52 -10 56 -3 5 -2 23 3 39 6 19 4 42 -4 65 -7 23 -9
42 -3 52 6 10 5 16 -2 16 -5 0 -10 -5 -10 -11 0 -5 -5 -7 -11 -3 -8 5 -8 9 1
14 9 5 9 9 1 14 -6 4 -11 12 -11 18 0 6 10 3 23 -8 12 -10 23 -19 24 -19z"/>
<path d="M9263 6578 c2 -236 0 -266 -15 -288 -23 -32 -23 -39 2 -33 27 7 26
-20 0 -75 -22 -46 -39 -53 -47 -22 -5 20 -27 27 -37 12 -9 -14 6 -52 20 -52
13 0 9 -29 -6 -40 -4 -3 -15 -18 -24 -35 l-17 -30 5 28 c4 15 9 38 12 51 4 16
1 25 -10 29 -11 5 -16 0 -16 -14 0 -29 -38 -99 -54 -99 -7 0 -19 -7 -26 -15
-22 -26 -37 -18 -32 18 3 22 1 29 -6 22 -6 -5 -12 -21 -14 -35 -5 -36 -35 -39
-41 -3 l-4 28 -2 -27 c-1 -21 -6 -28 -21 -28 -32 0 -70 22 -70 42 0 10 -4 18
-10 18 -5 0 -10 -4 -10 -8 0 -18 -39 -54 -51 -46 -7 4 -9 3 -6 -3 4 -6 -2 -13
-14 -16 -17 -4 -19 -2 -13 16 4 12 12 25 18 29 7 5 7 8 -3 8 -9 0 -10 4 -4 13
6 6 13 30 16 52 l5 40 -13 -30 c-8 -16 -14 -38 -15 -47 0 -9 -5 -20 -10 -23
-6 -4 -17 -22 -25 -41 -16 -38 -22 -40 -51 -20 -20 15 -20 15 11 89 14 33 -11
17 -28 -18 -24 -51 -21 -71 13 -97 40 -29 38 -51 -11 -101 -38 -39 -41 -41
-54 -24 -17 24 -30 5 -15 -23 12 -23 23 -25 51 -9 19 10 20 9 8 -13 -17 -33
-29 -38 -58 -25 -48 20 -53 30 -36 63 17 33 20 64 6 64 -6 0 -14 -19 -18 -42
-9 -46 -31 -62 -40 -29 -3 11 -13 23 -22 26 -28 9 -41 40 -31 76 11 37 6 50
-8 22 -20 -37 -17 -63 12 -105 38 -55 87 -97 132 -113 l34 -12 -35 -46 c-19
-25 -31 -48 -26 -52 5 -3 31 28 58 69 43 67 74 99 60 62 -3 -8 2 -17 11 -21
12 -4 23 2 37 21 42 57 52 67 57 58 4 -5 0 -26 -7 -47 -16 -46 1 -63 18 -18
13 35 30 36 35 3 4 -28 6 -28 48 11 59 54 71 54 119 2 48 -51 57 -55 51 -20
-4 23 -41 77 -96 139 l-25 28 50 -25 c28 -14 60 -34 71 -45 16 -15 24 -18 33
-9 8 8 5 17 -10 33 -12 13 -16 24 -10 28 6 4 5 22 -4 51 -13 44 -12 46 12 65
31 24 49 25 57 4 8 -20 -2 -77 -21 -121 -16 -39 -16 -46 -2 -41 14 5 56 109
65 161 7 45 40 127 50 127 3 0 4 -7 0 -15 -6 -16 9 -21 19 -5 3 5 13 6 21 3
11 -4 15 -16 12 -39 -2 -19 -2 -34 2 -34 3 0 3 -28 2 -62 -4 -63 -22 -93 -49
-83 -18 6 -28 -16 -12 -25 7 -5 26 -6 42 -3 l29 6 -4 -62 -4 -61 66 1 c118 0
302 47 321 82 5 8 20 22 35 32 l27 17 -5 -31 c-7 -47 7 -37 32 23 12 30 30 62
41 72 19 17 19 16 8 -15 -6 -18 -9 -34 -7 -36 6 -7 58 19 58 28 0 5 -5 5 -11
1 -11 -7 -6 17 12 61 14 33 94 138 108 143 13 4 -24 -59 -69 -118 -35 -45 -46
-74 -25 -66 9 3 21 -4 31 -19 20 -31 46 -32 91 -4 31 19 44 21 110 15 41 -3
79 -8 84 -12 5 -3 0 -17 -11 -31 -28 -36 -25 -43 16 -43 28 0 43 -7 68 -34 17
-18 44 -36 60 -40 22 -5 27 -11 22 -26 -3 -11 -9 -29 -12 -40 -4 -14 -2 -20 8
-20 8 0 21 -11 28 -25 12 -22 11 -27 -5 -46 -16 -17 -17 -22 -5 -29 8 -6 18
-10 23 -10 13 0 8 -45 -8 -67 -9 -12 -40 -37 -70 -55 -30 -18 -55 -38 -55 -45
0 -18 8 -17 79 20 51 25 69 41 85 72 12 22 32 45 46 52 32 15 97 73 82 73 -6
0 -13 -4 -17 -10 -3 -5 -19 -19 -35 -30 -26 -18 -29 -19 -23 -4 5 14 3 16 -11
11 -14 -6 -16 -3 -11 14 4 13 2 25 -5 29 -9 6 3 24 39 61 29 30 51 46 51 37 0
-8 -16 -31 -35 -51 -34 -35 -44 -57 -26 -57 5 0 22 15 37 33 15 17 31 31 35
30 5 -2 6 3 3 11 -3 7 2 16 11 20 9 3 15 11 13 18 -1 7 4 24 11 37 12 21 11
23 -3 18 -9 -4 -16 -2 -16 4 0 5 7 12 15 15 19 8 58 70 53 85 -2 6 -12 -7 -22
-29 -20 -43 -44 -61 -57 -40 -5 8 -19 1 -48 -25 -55 -49 -66 -47 -15 2 22 22
48 58 57 81 l16 40 -29 -22 c-16 -13 -27 -28 -26 -33 10 -31 -113 -120 -136
-97 -8 8 -8 15 2 27 14 16 35 21 25 5 -4 -6 1 -7 11 -3 12 4 14 8 5 11 -7 2 3
19 28 44 45 44 60 90 17 49 l-25 -23 6 22 c5 19 3 21 -13 12 -10 -6 -36 -29
-58 -52 -21 -22 -41 -39 -43 -36 -3 3 8 16 23 30 43 36 24 40 -24 5 l-42 -31
-40 19 c-22 10 -40 21 -40 24 0 3 16 24 36 47 34 40 33 60 -1 25 -13 -12 -19
-13 -24 -4 -5 8 4 25 21 44 61 66 62 67 49 67 -11 0 -76 -43 -91 -61 -12 -14
-71 -30 -96 -27 l-29 3 35 17 c19 10 64 42 100 73 35 30 70 55 76 55 14 0 84
79 84 94 0 6 -16 -8 -36 -31 -20 -24 -41 -43 -47 -43 -6 0 -21 12 -33 27 l-21
27 -77 -69 c-42 -38 -76 -74 -76 -80 0 -14 -49 -67 -87 -94 -65 -44 -105 3
-57 67 16 20 29 43 31 51 3 20 41 56 50 47 4 -4 -3 -16 -17 -26 -14 -10 -21
-22 -17 -26 4 -4 -3 -18 -15 -31 -27 -29 -12 -30 19 -1 34 32 27 8 -7 -26 -17
-16 -30 -39 -29 -50 0 -15 2 -16 6 -6 8 21 34 50 45 50 5 0 2 -7 -6 -16 -23
-22 -20 -30 4 -9 10 9 18 22 17 28 -1 6 8 16 21 22 23 10 30 25 11 25 -5 0 -7
5 -3 11 5 8 9 8 14 -1 6 -9 9 -9 15 0 4 6 5 14 1 17 -6 6 96 110 129 131 11 7
13 11 5 9 -20 -6 -54 18 -45 32 3 6 4 11 0 11 -3 0 -19 -22 -35 -48 -31 -51
-65 -74 -90 -61 -8 4 -23 10 -32 13 -24 7 -23 15 13 70 17 26 29 49 26 52 -5
6 -71 -72 -73 -87 -1 -5 -2 -12 -3 -15 0 -4 -11 6 -23 21 l-22 28 26 48 c21
41 23 47 7 39 -9 -6 -27 -23 -39 -40 -12 -16 -24 -30 -28 -30 -4 0 -4 33 -1
73 7 82 -12 200 -42 259 -21 41 -23 52 -10 44 18 -12 61 -118 62 -154 0 -29 2
-33 8 -17 23 57 -29 194 -83 220 -17 8 -62 44 -101 78 -84 76 -145 97 -294
103 -53 2 -108 6 -123 9 l-26 6 1 -263z m340 159 c79 -47 148 -117 178 -183
37 -78 38 -131 4 -184 -27 -43 -29 -50 -16 -50 5 0 16 19 25 41 24 60 41 39
31 -38 -5 -32 -8 -62 -6 -67 1 -4 -6 -14 -16 -22 -17 -13 -17 -15 0 -25 35
-21 11 -145 -33 -169 -20 -11 -124 -28 -189 -32 -28 -1 -59 -12 -85 -29 -22
-15 -42 -26 -44 -24 -4 3 -14 434 -16 655 0 63 -5 118 -10 121 -5 4 -6 15 -2
24 10 27 121 15 179 -18z"/>
<path d="M9411 5599 c-6 -18 -11 -43 -11 -55 0 -13 -2 -24 -5 -24 -2 0 -31 14
-63 30 -59 30 -92 38 -92 22 0 -5 18 -17 40 -27 22 -10 47 -26 55 -35 14 -16
15 -22 2 -52 -8 -19 -26 -42 -40 -51 -33 -21 -37 -21 -37 1 -1 13 -4 12 -14
-7 -8 -15 -16 -20 -20 -12 -13 20 -28 12 -20 -11 3 -13 3 -19 -2 -15 -8 7 -10
22 -13 91 -1 32 -9 31 -16 -3 -6 -34 -16 -45 -27 -30 -8 11 -9 10 -4 -3 3 -10
1 -28 -4 -40 l-9 -23 0 23 c-1 27 -21 30 -21 3 0 -10 -7 -22 -16 -25 -24 -9
-30 1 -12 21 18 21 33 93 20 93 -6 0 -13 -21 -17 -46 -5 -37 -9 -43 -20 -34
-11 9 -17 5 -29 -19 -22 -42 -30 -44 -76 -21 -45 23 -52 15 -15 -20 29 -27 31
-51 9 -85 -13 -20 -65 -55 -81 -55 -2 0 -1 12 3 28 6 26 5 26 -15 -5 -24 -39
-36 -41 -44 -11 -7 24 -17 20 -21 -9 -3 -22 -44 -45 -69 -39 -12 3 -29 -7 -46
-26 -27 -30 -27 -30 -60 -14 -40 21 -55 11 -23 -14 26 -21 28 -35 17 -96 -6
-37 -5 -42 16 -47 13 -3 29 -1 36 5 10 8 13 6 13 -6 0 -9 5 -16 11 -16 5 0 8
-4 5 -8 -3 -5 3 -8 12 -8 59 0 92 -5 92 -14 0 -5 -4 -9 -9 -7 -5 1 -16 -6 -23
-16 -7 -10 -22 -20 -33 -21 -13 -2 -19 -10 -17 -21 2 -10 -1 -14 -7 -10 -6 3
-14 -2 -18 -12 -4 -10 -26 -42 -50 -71 -24 -30 -43 -58 -43 -63 0 -12 -52 -90
-57 -86 -2 3 1 17 7 33 l10 29 -25 -30 c-25 -29 -26 -29 -40 -11 -20 27 -21
25 27 74 27 28 44 39 48 31 12 -19 22 8 11 28 -6 10 -11 14 -11 10 0 -5 -13 1
-29 12 -31 22 -71 28 -71 11 0 -6 11 -16 25 -22 33 -15 32 -23 -10 -69 -19
-22 -35 -47 -35 -58 0 -27 36 -68 65 -75 23 -6 25 -10 20 -39 -5 -24 -2 -37 9
-46 9 -8 16 -20 16 -27 0 -28 80 -5 110 31 7 8 17 15 23 15 5 0 29 18 53 40
50 46 57 47 102 20 18 -11 38 -20 45 -20 16 0 51 37 60 63 4 11 12 15 18 11 7
-4 9 -3 5 4 -3 6 -2 13 3 16 5 4 13 -4 17 -16 5 -16 1 -27 -16 -40 -20 -16
-21 -18 -4 -25 12 -5 25 3 44 25 17 21 35 32 53 32 14 0 32 8 39 19 7 10 32
28 55 39 23 12 44 31 48 42 7 24 18 25 34 6 9 -11 12 -90 10 -293 -2 -153 -1
-343 0 -423 2 -80 4 -210 4 -290 l2 -145 33 -3 c17 -2 32 -7 32 -12 0 -27
-127 -171 -183 -207 -38 -24 -65 -25 -35 0 8 6 28 35 43 62 16 28 39 65 53 83
13 17 22 32 19 32 -8 0 -113 -133 -121 -155 -8 -18 -9 -17 -19 10 -6 16 -19
43 -29 60 l-19 30 6 -30 c4 -16 15 -51 26 -78 l20 -47 -28 -25 c-15 -14 -51
-32 -80 -42 -29 -9 -50 -20 -47 -24 7 -12 88 19 182 69 82 44 156 109 217 192
29 39 73 150 79 200 3 19 10 67 17 105 6 39 15 90 19 115 10 59 10 321 -1 385
-15 99 -39 185 -75 277 -63 159 -99 198 -277 294 -49 27 -108 65 -131 85 -22
20 -52 42 -66 49 -14 7 -20 15 -13 17 10 4 45 -12 138 -59 17 -9 60 -30 98
-47 37 -17 87 -48 110 -69 23 -21 51 -44 61 -52 18 -13 19 -13 11 0 -43 72
-92 118 -147 136 -10 4 -18 8 -18 11 0 13 31 61 53 81 l25 23 26 -55 c14 -30
26 -62 26 -70 0 -9 9 -33 20 -53 11 -21 20 -43 20 -50 0 -7 9 -17 20 -23 29
-16 26 5 -15 96 -19 42 -40 95 -46 118 -26 101 -33 122 -46 137 -11 14 -11 18
1 28 11 10 19 4 43 -28 15 -22 31 -41 36 -41 14 0 7 24 -19 61 -25 37 -27 79
-3 79 6 0 8 -4 5 -9 -3 -5 3 -19 13 -32 25 -32 37 -89 21 -99 -7 -4 -9 -13 -6
-19 4 -6 12 -9 17 -5 16 10 39 -17 39 -45 0 -14 7 -39 15 -55 8 -15 12 -32 9
-37 -3 -5 -2 -9 3 -9 4 0 19 -17 32 -38 14 -20 32 -46 40 -58 9 -11 2 -6 -16
12 -17 18 -34 29 -38 26 -3 -4 -3 2 1 13 4 11 3 17 -1 12 -10 -9 -45 21 -45
40 0 7 -5 13 -11 13 -11 0 -2 -41 11 -50 4 -3 24 -30 44 -60 21 -30 40 -54 42
-52 2 1 18 -13 35 -30 33 -36 33 -36 15 40 -4 19 -1 22 25 22 37 0 36 6 -3 47
l-31 32 25 33 c52 68 142 323 140 393 -1 19 0 19 10 2 5 -10 8 -27 5 -38 -3
-10 -1 -22 4 -25 5 -3 9 -24 10 -47 0 -37 2 -40 12 -23 7 11 24 33 38 49 21
25 27 27 32 14 4 -11 2 -14 -8 -11 -10 4 -13 0 -10 -14 2 -12 -3 -26 -11 -33
-8 -6 -14 -16 -14 -21 0 -6 21 7 47 28 48 39 48 39 25 7 -12 -17 -36 -37 -53
-45 -37 -16 -55 -52 -98 -204 -12 -39 -21 -85 -21 -101 0 -30 -21 -59 -33 -46
-4 3 -7 -1 -7 -10 0 -9 5 -16 12 -14 15 3 12 -54 -7 -136 -8 -33 -11 -66 -8
-75 4 -15 3 -15 -7 -2 -9 12 -10 -6 -5 -75 3 -49 10 -91 14 -93 4 -1 6 -32 4
-67 -2 -36 1 -65 6 -65 13 0 25 82 17 108 -4 11 -2 23 3 27 11 6 6 84 -6 95
-3 3 -3 -10 0 -27 4 -18 3 -33 -2 -33 -12 0 -21 64 -10 68 5 2 10 18 10 35 1
24 3 26 6 10 6 -30 17 -29 31 2 7 14 22 29 34 34 38 15 88 71 164 186 40 61
86 120 103 133 17 12 31 21 31 19 0 -21 -37 -83 -70 -115 -22 -23 -40 -45 -40
-49 0 -16 -116 -182 -127 -183 -7 0 -13 -5 -13 -11 0 -5 4 -8 10 -4 5 3 3 -7
-5 -22 -8 -15 -15 -35 -15 -43 0 -13 -1 -13 -10 0 -11 17 -9 19 -45 -52 -15
-31 -29 -72 -30 -90 -1 -18 -5 -41 -9 -51 -5 -10 -6 -33 -3 -52 5 -28 3 -32
-8 -22 -7 6 -11 15 -8 20 2 4 -1 7 -7 7 -8 0 -10 -53 -5 -197 3 -109 8 -209
10 -223 2 -14 4 -37 4 -52 1 -16 6 -28 12 -28 7 0 9 11 6 30 -4 16 -2 32 3 35
6 4 10 -14 10 -44 0 -28 4 -51 10 -51 5 0 6 -7 3 -17 -5 -12 -3 -14 7 -8 9 5
11 4 6 -4 -9 -14 -26 -5 -26 15 0 8 -5 14 -11 14 -6 0 -8 -8 -4 -19 3 -11 10
-43 15 -73 22 -136 104 -338 136 -338 4 0 18 -9 30 -21 18 -17 28 -19 51 -12
32 11 96 -5 148 -37 18 -11 45 -19 61 -19 24 1 25 3 7 6 -13 2 -23 8 -23 13 0
4 -20 20 -44 34 -61 36 -71 65 -10 31 24 -14 51 -25 59 -25 7 0 15 -4 17 -9 4
-14 68 -24 68 -11 0 5 -3 10 -7 10 -5 0 -22 14 -40 30 -18 17 -37 30 -42 30
-6 0 -11 9 -11 20 0 11 6 20 14 20 8 0 13 -8 12 -17 -1 -14 7 -18 37 -18 26 0
36 -4 32 -12 -2 -7 3 -13 13 -13 37 -1 200 -20 216 -26 9 -3 16 -2 16 4 0 5
-12 13 -27 17 l-28 7 24 9 c14 6 36 6 50 2 33 -10 101 -5 101 8 0 12 -122 15
-216 4 -29 -3 -32 11 -5 20 11 3 25 13 32 21 8 10 -9 5 -44 -12 -60 -30 -82
-27 -52 6 28 31 11 34 -31 5 -45 -30 -55 -19 -24 25 30 42 21 47 -15 10 -36
-37 -41 -37 -48 0 -7 33 -27 41 -27 11 0 -14 -10 -21 -37 -27 -52 -11 -72 -7
-115 23 -41 28 -70 74 -111 176 -30 75 -34 99 -14 91 8 -3 38 21 71 57 64 69
118 173 137 264 16 76 16 310 0 394 -18 92 -59 197 -98 248 l-34 44 52 65 c28
35 61 69 73 76 l21 11 -20 -24 c-11 -13 -31 -36 -44 -51 -14 -16 -20 -28 -14
-28 5 0 28 20 51 45 27 30 46 43 56 39 9 -3 14 -10 11 -15 -3 -4 -11 -6 -18
-3 -7 2 -23 -10 -37 -28 l-23 -33 26 24 c18 16 27 20 27 11 0 -8 16 1 36 21
23 21 33 26 26 14 -6 -11 -26 -36 -46 -55 -50 -48 -45 -59 5 -13 38 35 84 104
60 89 -6 -4 -11 -2 -11 4 0 6 8 13 18 17 26 9 52 34 46 44 -3 5 4 9 15 9 11 0
23 5 26 10 3 6 10 10 15 10 4 0 -19 -27 -51 -60 -32 -33 -59 -66 -59 -72 0 -7
30 19 67 58 37 38 67 74 65 81 -3 11 65 59 74 51 2 -3 -32 -41 -75 -86 -79
-82 -98 -112 -29 -47 20 19 39 35 42 35 10 0 89 90 103 118 8 14 18 29 22 32
4 3 14 16 21 29 7 13 30 44 53 68 22 24 38 46 35 49 -3 3 -36 -29 -74 -70 -65
-72 -110 -103 -96 -67 5 14 4 14 -11 2 -23 -18 -21 -3 3 37 22 36 25 46 10 37
-6 -4 -19 -24 -30 -46 -19 -37 -49 -57 -36 -24 3 8 0 15 -6 15 -7 0 -7 4 -1
13 26 32 23 87 -3 87 -21 0 -17 10 13 38 24 22 25 24 5 18 -22 -7 -31 7 -12
19 11 7 4 25 -9 25 -4 0 -18 -10 -30 -22 l-23 -21 23 -14 c13 -8 16 -12 6 -9
-15 5 -16 2 -7 -14 6 -11 8 -20 4 -20 -3 0 -1 -7 6 -15 17 -21 4 -80 -23 -108
-13 -12 -27 -31 -31 -42 -5 -13 -10 -15 -13 -8 -4 10 -10 10 -26 -2 -39 -27
-38 -16 2 37 22 29 38 55 35 57 -2 3 -31 -21 -63 -53 -32 -32 -61 -53 -65 -48
-3 5 3 30 14 53 17 38 17 44 4 47 -17 4 -48 -27 -70 -71 -8 -15 -19 -25 -24
-22 -14 8 -12 49 2 63 8 8 8 15 -2 27 -12 14 -16 14 -25 3 -6 -7 -22 -22 -35
-33 l-25 -20 25 30 c33 39 67 100 50 90 -8 -5 -11 -3 -8 6 3 8 12 14 21 14 9
0 31 14 49 32 28 27 39 31 74 28 34 -4 46 0 64 20 13 14 29 25 36 25 7 0 16 5
20 12 4 7 3 8 -4 4 -7 -4 -12 -1 -12 6 -1 38 -84 63 -129 38 -16 -8 -21 -8
-21 2 0 6 -7 3 -15 -8 -15 -18 -15 -18 -9 8 4 19 1 29 -13 37 -17 11 -17 12 1
26 11 8 15 15 9 15 -7 0 -15 -4 -18 -10 -3 -5 -14 -10 -23 -10 -9 0 -31 -17
-49 -37 -18 -20 -33 -31 -33 -24 0 6 12 24 26 38 23 23 24 27 10 35 -16 9 -15
12 3 44 24 40 13 45 -20 9 -13 -13 -34 -25 -46 -25 -25 0 -29 10 -11 28 6 6 9
15 5 19 -4 3 -13 -1 -20 -11 -14 -18 -47 -13 -47 8 0 7 14 34 30 62 l31 49
-31 -35 c-57 -65 -75 -81 -98 -87 -32 -8 -40 5 -14 23 12 8 22 21 22 27 0 7
-7 4 -14 -5 -16 -22 -36 -23 -36 -2 0 8 -4 12 -10 9 -5 -3 -10 -15 -10 -26 0
-10 -5 -19 -11 -19 -7 0 -9 8 -4 23 15 50 15 72 -1 35 -20 -47 -34 -49 -30 -5
2 17 1 24 -1 15 -7 -29 -23 -20 -23 12 0 17 -4 30 -10 30 -5 0 -10 -23 -10
-51 0 -31 -4 -48 -10 -44 -5 3 -10 24 -10 46 0 24 -4 38 -10 34 -5 -3 -10 -25
-11 -48 0 -31 -2 -37 -8 -22 -8 19 -8 19 -15 -2 -4 -13 -13 -23 -20 -23 -15 0
-38 24 -31 32 3 2 7 29 10 59 6 59 -8 50 -19 -13 -11 -63 -29 -46 -23 22 3 33
4 60 2 60 -2 0 -8 -14 -14 -31z m579 -334 c-13 -15 -1 -21 16 -7 5 4 0 -3 -11
-14 -11 -12 -23 -20 -26 -18 -4 2 -13 -4 -20 -13 -12 -14 -12 -16 1 -8 13 8
13 6 2 -7 -8 -10 -20 -14 -29 -11 -10 4 -14 2 -10 -4 11 -18 -3 -42 -33 -57
-21 -10 -30 -11 -34 -2 -2 6 -5 3 -5 -6 -1 -10 -5 -18 -10 -18 -5 0 -13 -9
-16 -20 -3 -11 -11 -20 -17 -20 -6 0 -21 -11 -34 -26 -27 -28 -33 -54 -9 -34
13 11 15 9 12 -8 -2 -12 -6 -25 -10 -28 -17 -17 -5 -25 13 -9 26 24 25 12 -2
-25 -12 -16 -19 -32 -16 -35 11 -11 59 76 53 96 -4 11 -2 19 5 19 6 0 8 -4 5
-10 -3 -5 0 -10 9 -10 17 0 15 -21 -4 -46 -14 -18 -14 -18 3 -5 15 12 20 12
35 -5 11 -12 16 -28 12 -45 -5 -25 -80 -149 -90 -149 -3 0 -22 15 -44 33 l-38
33 16 37 c8 21 11 35 5 31 -7 -4 -9 10 -5 42 13 109 16 119 40 137 14 10 23
24 20 31 -3 9 24 37 73 75 43 33 94 74 113 90 39 34 49 39 30 16z m-1036 -123
c-8 -2 -14 -8 -14 -13 0 -16 -34 -49 -51 -49 -11 0 -20 -11 -24 -30 -7 -32
-26 -51 -33 -32 -2 7 -8 10 -13 6 -14 -8 -11 -24 6 -24 23 0 18 -16 -10 -34
-29 -19 -78 -21 -93 -3 -6 7 -9 24 -6 38 l6 24 -19 -24 c-26 -31 -57 -25 -61
12 -2 20 7 44 29 76 31 45 36 48 79 49 39 0 42 -1 27 -12 -9 -7 -17 -22 -17
-32 1 -18 1 -18 12 1 20 35 36 45 70 46 18 0 51 8 73 18 36 16 41 17 46 2 4
-9 1 -17 -7 -19z m474 -30 c7 -5 11 -15 9 -23 -2 -8 -2 -11 0 -6 10 17 60 6
81 -18 24 -27 22 -59 -4 -102 -19 -30 -33 -29 -73 7 -27 25 -32 37 -29 60 3
21 0 30 -9 30 -8 0 -13 12 -13 30 0 30 13 37 38 22z m440 -509 c87 -124 137
-377 100 -507 -6 -22 -25 -55 -41 -73 -34 -37 -171 -108 -191 -100 -12 5 -14
40 -11 199 5 240 4 230 14 243 12 16 20 55 11 55 -5 0 2 29 15 64 25 68 66
146 77 146 4 0 15 -12 26 -27z"/>
<path d="M9551 3685 c-1 -74 -26 -206 -45 -244 -9 -16 -13 -31 -10 -34 9 -8
-20 -47 -35 -47 -12 0 -91 -73 -91 -85 0 -8 35 8 68 33 58 44 46 15 -21 -53
-77 -77 -60 -91 27 -20 30 25 59 44 63 43 13 -3 87 24 94 35 4 6 18 2 35 -10
45 -31 175 -93 195 -93 11 0 19 5 19 10 0 10 -2 11 -37 15 -12 1 -45 19 -72
39 -28 20 -58 36 -66 36 -9 0 -18 8 -21 18 -3 9 -10 28 -16 42 l-10 25 -9 -22
c-8 -23 -29 -32 -29 -13 0 6 -4 10 -10 10 -5 0 -10 -8 -10 -17 0 -9 -2 -14 -5
-11 -3 3 -1 68 4 144 7 108 7 152 -4 199 l-13 60 -1 -60z"/>
<path d="M12424 3116 c-10 -22 -9 -23 40 -25 28 -1 47 1 43 6 -5 4 -14 8 -20
9 -7 0 -20 2 -29 2 -10 1 -18 6 -18 11 0 5 12 7 28 4 15 -3 35 -5 45 -5 12 1
17 -4 13 -14 -4 -11 5 -14 40 -14 28 0 43 4 39 10 -7 12 -18 11 255 11 315 0
227 16 -125 22 l-300 6 -11 -23z"/>
<path d="M6303 3105 c-13 -9 -23 -21 -23 -26 0 -6 -6 -16 -12 -24 -41 -42 -83
-101 -80 -112 2 -7 -11 -21 -27 -31 -37 -21 -39 -32 -6 -32 18 0 23 4 19 15
-4 8 -3 15 1 15 3 0 13 -7 21 -15 18 -17 34 -20 34 -5 0 6 -5 10 -11 10 -5 0
-8 4 -5 9 7 11 46 2 46 -10 0 -14 32 -10 50 6 9 8 34 19 56 25 32 8 23 9 -53
5 -82 -3 -119 4 -95 18 10 7 350 22 420 19 32 -1 51 2 47 8 -4 6 -59 10 -127
10 -67 0 -119 2 -117 4 10 9 100 18 174 17 57 -1 76 1 65 9 -30 20 -306 8
-293 -13 4 -7 -1 -8 -13 -3 -10 5 -23 8 -29 8 -63 -3 -85 -7 -85 -14 0 -5 -5
-6 -10 -3 -14 9 9 38 25 31 6 -2 32 0 57 4 25 5 75 10 112 11 79 3 171 23 141
32 -11 3 -49 4 -85 3 -36 -2 -74 0 -85 5 -15 6 -10 8 23 10 23 1 47 3 52 4 6
1 31 3 57 4 82 2 42 9 -92 15 -110 6 -133 4 -152 -9z"/>
<path d="M15927 2881 c-17 -6 -17 -8 -3 -20 8 -7 19 -10 25 -7 5 3 11 1 13 -5
2 -6 56 -12 136 -16 134 -5 188 0 177 17 -3 6 -1 10 5 10 6 0 13 -7 16 -15 5
-12 26 -15 105 -15 80 0 97 3 93 14 -7 18 -66 27 -76 12 -5 -7 -11 -8 -15 -1
-11 14 -53 18 -53 5 0 -7 -6 -8 -19 0 -24 12 -84 13 -76 1 6 -11 -67 -6 -110
7 -16 5 -35 7 -42 5 -6 -2 -14 1 -18 6 -7 12 -130 14 -158 2z"/>
<path d="M12500 2869 c0 -6 -17 -9 -37 -8 -45 1 -144 -9 -151 -16 -3 -3 9 -5
26 -5 17 0 34 -5 37 -11 5 -7 79 -9 239 -5 232 5 290 11 280 27 -3 5 0 9 5 9
6 0 11 -4 11 -10 0 -5 7 -10 15 -10 8 0 15 4 15 9 0 14 -40 20 -67 10 -37 -14
-246 -11 -270 4 -6 4 -18 4 -27 1 -9 -3 -24 -3 -33 1 -29 13 -43 14 -43 4z"/>
</g>
</svg>
