<?xml version="1.0" standalone="no"?>
<!DOCTYPE svg PUBLIC "-//W3C//DTD SVG 20010904//EN"
 "http://www.w3.org/TR/2001/REC-SVG-20010904/DTD/svg10.dtd">
<svg version="1.0" xmlns="http://www.w3.org/2000/svg"
 width="1928.000000pt" height="1074.000000pt" viewBox="0 0 1928.000000 1074.000000"
 preserveAspectRatio="xMidYMid meet">
<metadata>
Created by potrace 1.16, written by Peter Selinger 2001-2019
</metadata>
<g transform="translate(0.000000,1074.000000) scale(0.100000,-0.100000)"
fill="#000000" stroke="none">
<path d="M14560 8017 c0 -3 12 -28 26 -54 17 -32 24 -58 21 -78 -4 -26 -20
-1074 -19 -1240 0 -33 0 -103 1 -155 4 -809 -4 -1926 -13 -1932 -8 -6 -8 -10
0 -15 8 -6 12 -148 13 -483 0 -261 2 -573 3 -692 2 -169 0 -218 -9 -218 -20 0
-16 -9 18 -43 l31 -31 -23 -9 -24 -9 25 -9 c20 -8 22 -12 10 -19 -9 -6 -10
-10 -3 -10 6 0 36 -23 67 -51 38 -35 53 -55 49 -66 -5 -12 -2 -15 10 -10 40
15 107 -111 107 -203 0 -33 4 -60 9 -60 6 0 10 17 9 38 0 46 20 124 31 118 4
-3 75 -6 157 -7 82 -1 143 -4 137 -6 -7 -3 -13 -9 -13 -14 0 -6 4 -8 8 -5 4 2
87 8 182 11 96 4 179 9 184 12 4 3 55 8 112 10 l104 5 0 -76 c0 -48 4 -76 11
-76 7 0 10 25 7 73 l-3 72 115 5 c77 3 108 8 92 13 -12 5 -37 8 -55 7 -55 -3
-67 -1 -84 20 -21 24 -33 26 -33 5 0 -9 -9 -15 -22 -15 -17 0 -19 3 -10 12 7
7 12 42 12 85 0 64 2 73 18 73 11 0 90 -7 177 -15 87 -8 160 -13 163 -11 6 6
-29 13 -102 21 -32 3 -64 9 -70 13 -6 4 -49 7 -96 7 -81 0 -85 1 -88 23 -3 22
-2 23 50 16 29 -4 74 -8 100 -8 33 -1 44 -4 37 -12 -11 -14 99 -23 284 -24 70
0 133 -2 140 -5 6 -2 32 -6 57 -9 39 -5 43 -4 28 8 -10 7 -15 16 -11 19 6 6
-13 10 -20 5 -2 -2 -14 4 -27 13 -36 23 -79 28 -345 35 -132 4 -251 10 -265
14 l-25 6 -2 425 c-1 233 -5 601 -8 816 -3 216 -3 393 -1 393 3 0 17 -37 31
-82 15 -46 49 -132 76 -193 27 -60 49 -116 49 -123 0 -7 11 -38 25 -69 14 -30
53 -130 86 -222 107 -296 151 -415 166 -444 7 -15 15 -44 18 -65 2 -20 17 -66
33 -102 40 -88 104 -261 99 -267 -3 -2 -24 15 -47 39 -42 42 -47 35 -6 -10 16
-19 18 -25 7 -31 -9 -6 0 -11 28 -16 31 -5 45 -14 55 -34 8 -14 73 -77 145
-140 72 -62 136 -121 141 -132 10 -18 7 -19 -50 -19 -33 0 -60 -4 -60 -10 0
-11 7 -12 95 -14 l59 -1 37 -76 c21 -43 42 -80 48 -84 13 -7 2 24 -29 84 -42
84 -9 84 55 0 26 -33 49 -58 52 -55 6 6 -29 57 -52 76 -36 30 -15 32 183 25
108 -5 221 -8 250 -7 l52 2 0 -60 c0 -33 4 -60 10 -60 6 0 10 27 10 60 l0 60
38 0 c20 0 46 7 56 15 13 10 44 15 88 15 l68 0 1 -67 c3 -95 3 -100 12 -109 4
-4 7 31 7 79 0 52 4 89 11 93 6 3 40 6 75 6 35 0 64 4 64 8 0 10 -52 20 -100
20 l-38 0 4 53 c2 28 6 213 8 409 5 333 4 357 -12 352 -13 -5 -14 -4 -3 4 16
11 25 239 10 263 -5 9 -9 -18 -10 -76 l-2 -90 -8 65 c-5 36 -6 126 -2 200 4
74 6 188 5 253 -1 65 2 126 7 135 5 9 12 55 16 102 10 134 12 729 3 900 -5 85
-10 622 -11 1192 l-3 1036 28 -3 c38 -5 36 11 -2 19 -16 3 -30 12 -30 19 0 8
-10 18 -23 24 -20 9 -196 159 -222 189 -5 6 -32 26 -59 45 -26 19 -57 40 -67
48 -17 12 -19 11 -19 -3 0 -20 110 -132 165 -169 43 -28 142 -124 134 -130 -2
-2 -58 0 -124 5 -77 6 -241 6 -455 -2 l-335 -11 -25 29 c-14 16 -37 42 -51 58
-14 16 -60 62 -102 101 -42 40 -77 74 -77 76 0 2 172 2 383 0 364 -3 467 3
467 27 0 4 -37 10 -82 13 -95 6 -633 0 -663 -7 -11 -2 -49 -5 -85 -5 l-65 -1
0 -47 c0 -27 -4 -102 -10 -168 -5 -66 -9 -185 -9 -265 4 -794 4 -973 -1 -980
-3 -5 1 -11 7 -13 8 -3 5 -6 -6 -6 -17 -1 -18 -7 -13 -58 8 -73 -3 -57 -44 67
-18 52 -47 128 -66 169 -19 40 -54 135 -79 209 -25 74 -68 187 -96 251 -28 64
-68 159 -88 211 -73 184 -110 270 -127 297 l-17 26 29 -7 c25 -6 27 -5 16 8
-8 9 -21 16 -31 16 -22 0 -143 156 -134 173 4 7 4 9 0 5 -4 -4 -28 17 -52 45
-24 29 -58 68 -75 87 l-31 35 8 -30 c4 -17 23 -55 43 -86 46 -73 172 -219 189
-219 6 0 12 -3 12 -8 0 -8 -673 -5 -726 4 -18 2 -37 11 -44 19 -7 8 -18 15
-24 15 -6 0 -3 -5 7 -11 9 -5 17 -14 17 -19 0 -12 -100 -13 -115 -2 -16 11
-69 82 -98 132 -14 25 -42 63 -61 84 -19 21 -34 42 -32 45 3 4 58 3 123 -1
219 -13 712 -14 702 -2 -13 16 -152 23 -549 30 l-335 5 -32 41 c-18 22 -33 38
-33 35z m2050 -442 c1 -22 -1 -60 -4 -85 -2 -25 -5 -160 -5 -301 -1 -209 -3
-259 -15 -268 -21 -17 -25 -4 -25 83 0 43 -2 81 -5 84 -8 7 -8 -152 0 -172 3
-9 15 -16 26 -16 19 0 19 -7 16 -194 -3 -172 -8 -220 -22 -205 -2 2 -6 39 -9
82 -6 102 -17 111 -17 14 0 -78 -15 -112 -26 -57 -4 17 -11 33 -15 36 -5 3 -9
16 -9 29 0 29 -10 55 -20 55 -5 0 -7 -27 -5 -60 3 -62 -9 -81 -20 -32 -3 15
-8 61 -10 103 -2 41 -9 95 -14 121 -6 27 -7 57 -3 70 11 29 3 108 -10 108 -6
0 -7 -18 -3 -46 4 -31 2 -44 -5 -39 -7 4 -9 -25 -6 -91 2 -61 1 -92 -5 -82
-13 23 -24 176 -19 263 4 64 -10 817 -15 825 -3 6 -3 19 0 31 6 18 22 5 126
-98 111 -110 118 -121 119 -158z m-1750 23 c0 -10 -5 -18 -11 -18 -5 0 -7 -4
-4 -10 3 -5 6 -155 5 -332 -1 -178 -3 -960 -5 -1738 -4 -1408 -7 -1599 -27
-1611 -7 -4 -7 -13 0 -26 13 -23 12 -63 -1 -80 -6 -9 -6 -13 2 -13 6 0 11 -5
11 -11 0 -5 -4 -8 -9 -4 -5 3 -12 -3 -14 -12 -5 -18 -12 43 -10 84 1 12 -4 24
-12 26 -10 4 -12 -12 -8 -76 2 -45 0 -111 -5 -147 -6 -36 -8 -69 -5 -73 8 -13
8 -317 1 -317 -5 0 -9 16 -9 35 -1 19 -3 52 -4 73 -2 20 -5 102 -8 181 -3 78
-8 146 -11 149 -9 8 -7 24 2 18 5 -3 8 15 8 40 -1 24 -4 44 -8 44 -5 0 -8 11
-8 25 0 14 5 25 10 25 6 0 10 7 10 16 0 14 -3 14 -15 4 -19 -15 -20 1 -4 33 9
16 9 22 0 25 -16 5 -14 22 4 22 8 0 15 5 15 11 0 5 -4 8 -9 5 -10 -7 -21 17
-21 45 0 10 -5 19 -11 19 -11 0 -10 -33 7 -420 3 -80 4 -143 1 -140 -6 6 -8
32 -22 225 -3 44 -9 116 -12 160 -6 77 -7 220 -2 354 1 42 -2 66 -9 69 -7 2
-12 8 -12 13 0 4 7 6 16 2 14 -5 15 -3 7 12 -13 22 -5 57 11 48 6 -3 6 0 -1 8
-16 16 -17 43 -2 33 8 -4 9 0 4 15 -5 16 -2 21 12 22 10 0 13 3 6 6 -7 2 -13
14 -13 25 0 15 -5 18 -16 14 -14 -5 -15 -4 -4 9 9 11 9 15 1 15 -7 0 -9 5 -6
10 3 6 0 10 -7 10 -8 0 -9 3 -3 8 6 4 10 21 10 37 0 17 3 38 8 48 4 9 4 23 0
30 -4 6 -8 34 -9 60 -2 44 -1 47 14 35 14 -10 14 -9 -1 8 -10 12 -17 27 -15
34 2 7 -3 15 -10 17 -8 3 -10 -1 -6 -11 3 -9 1 -16 -5 -16 -7 0 -11 19 -10 48
1 44 2 45 12 20 10 -27 37 -47 37 -28 0 6 -4 10 -10 10 -5 0 -10 5 -10 11 0 5
5 7 10 4 7 -4 10 2 8 17 -5 32 -18 50 -32 45 -7 -3 -12 5 -12 22 0 14 -2 40
-3 56 -5 53 -1 86 9 80 6 -3 10 -1 10 4 0 6 -4 11 -10 11 -5 0 -10 5 -10 11 0
5 5 7 10 4 11 -7 13 9 10 65 -2 32 -1 33 17 20 17 -14 17 -14 1 5 -9 11 -18
31 -21 45 -2 14 -5 -8 -6 -49 -2 -116 -14 -75 -17 59 -2 89 1 118 9 113 9 -5
9 -3 1 8 -6 8 -13 61 -14 119 -8 224 -5 1269 4 1345 5 44 9 89 8 100 -1 11 -1
36 -1 55 1 19 2 52 2 73 0 20 5 37 11 37 7 0 7 3 1 8 -6 4 -10 104 -10 262 0
140 -4 301 -8 358 -8 117 1 129 45 59 15 -23 38 -54 51 -68 48 -51 51 -64 53
-254 2 -225 2 -225 12 -225 4 0 8 95 9 211 l1 210 -85 107 -85 107 111 -110
c61 -60 111 -118 111 -127z m339 16 c12 -11 -18 -15 -128 -21 -67 -3 -124 -10
-128 -16 -6 -9 197 -3 274 8 73 12 518 31 539 24 14 -5 24 -22 31 -56 6 -26
10 -50 8 -52 -2 -2 -18 17 -36 43 -46 65 -50 48 -5 -21 20 -32 59 -103 86
-158 53 -110 187 -432 199 -480 5 -16 18 -49 29 -72 12 -23 22 -47 22 -52 0
-5 5 -22 12 -38 6 -15 11 -31 10 -35 -1 -3 5 -12 13 -18 8 -7 15 -21 15 -31 0
-10 12 -44 26 -76 14 -32 30 -67 35 -78 5 -11 40 -112 77 -225 38 -113 81
-233 96 -267 30 -72 48 -125 69 -203 16 -56 50 -141 104 -260 17 -36 33 -75
37 -87 19 -59 98 -174 111 -161 5 4 -5 42 -20 84 -29 84 -26 22 -37 785 -1 30
2 61 6 67 4 7 3 12 -3 12 -6 0 -8 13 -4 33 10 56 12 156 16 748 2 316 7 581
11 587 4 7 11 10 16 7 14 -9 280 -9 461 -1 l166 8 6 -33 c6 -39 12 -1482 10
-2314 -3 -1169 -2 -2029 2 -2035 2 -3 6 -102 9 -219 l6 -214 -37 6 c-21 4
-143 7 -271 8 -128 0 -241 3 -251 6 -23 6 -35 53 -15 53 21 0 17 9 -16 40 -16
15 -30 35 -30 44 0 19 1 19 37 4 15 -6 38 -13 51 -15 20 -3 21 -2 11 16 -7 10
-19 17 -26 14 -7 -3 -21 -2 -30 3 -10 4 -27 8 -38 8 -12 1 -19 8 -19 19 1 9
-3 17 -8 17 -6 0 -7 7 -4 16 3 8 2 13 -3 10 -4 -3 -25 45 -45 107 -46 139 -45
136 -89 227 -32 67 -61 146 -143 385 -35 103 -108 279 -118 286 -5 4 -6 11 -2
17 3 5 -1 15 -9 22 -8 7 -15 19 -15 26 0 8 -4 14 -10 14 -5 0 -10 5 -10 11 0
6 7 9 15 5 8 -3 15 -4 15 -2 0 4 -44 104 -78 176 -9 19 -17 44 -18 55 -1 11
-19 56 -39 100 -53 118 -79 182 -91 225 -3 14 -17 48 -29 75 -13 28 -28 68
-35 90 -7 22 -32 92 -57 155 -24 63 -53 140 -64 170 -11 30 -24 62 -29 72 -5
9 -15 47 -21 85 -7 37 -15 60 -17 51 -5 -25 -42 -5 -42 22 0 11 -7 20 -15 20
-8 0 -15 5 -15 10 0 6 -5 10 -11 10 -11 0 29 -72 43 -78 11 -5 10 -32 -1 -32
-5 0 -11 6 -14 13 -2 6 -8 9 -12 5 -4 -4 -2 -14 5 -23 10 -12 12 -175 12 -788
-1 -962 -7 -1551 -16 -1566 -4 -6 -3 -19 2 -28 6 -10 12 -44 13 -77 l4 -58
-180 1 c-99 0 -293 1 -431 1 l-251 0 -7 41 c-4 22 -5 586 -4 1252 2 667 1
1637 -1 2157 -2 520 0 1020 4 1111 7 157 8 168 29 178 13 7 14 10 3 6 -20 -5
-32 16 -23 40 5 13 27 14 153 9 81 -4 150 -8 152 -10z m2278 -1090 c-3 -20 0
-28 14 -31 21 -6 23 -19 19 -131 -2 -62 -6 -77 -26 -97 -15 -15 -24 -19 -24
-10 0 7 -13 19 -29 26 -28 13 -28 14 -30 102 -2 87 -2 88 21 85 22 -3 23 -5
19 -92 -2 -65 0 -87 9 -84 14 4 24 198 10 198 -5 0 -4 13 1 30 13 37 23 39 16
4z m83 -3 c0 -5 -6 -12 -12 -14 -8 -4 -7 -6 3 -6 9 -1 20 -13 25 -28 10 -36
13 -175 4 -188 -4 -5 -11 -26 -15 -45 -5 -20 -10 -29 -13 -20 -6 16 -27 40
-36 40 -5 0 -6 -67 -4 -240 1 -107 -1 -193 -6 -198 -3 -3 -12 1 -21 8 -14 11
-13 14 2 27 17 13 16 14 -4 8 -23 -6 -23 -6 -19 100 2 58 6 108 9 112 4 3 2
14 -3 24 -10 17 5 69 19 69 4 0 8 21 9 47 1 26 6 49 11 52 15 10 20 44 22 146
1 55 4 103 6 108 6 10 23 9 23 -2z m-84 -1197 c-4 -9 0 -27 8 -39 12 -18 14
-54 13 -164 -1 -79 2 -142 7 -144 5 -2 9 -25 8 -51 -1 -27 3 -55 9 -62 14 -17
5 -18 -22 -4 -15 8 -19 7 -19 -5 0 -8 6 -15 14 -15 12 0 15 -21 18 -100 2 -55
1 -110 -2 -122 -7 -27 -50 -39 -50 -14 0 27 2 31 11 28 6 -1 6 5 1 15 -4 10
-6 58 -3 106 3 48 2 92 -2 96 -11 11 -16 71 -6 76 4 3 9 -4 12 -15 3 -11 9
-20 15 -20 13 0 2 50 -12 51 -6 0 -2 4 9 9 19 9 19 9 -2 16 -23 6 -32 24 -13
24 6 0 10 9 10 20 0 14 -5 18 -17 13 -15 -6 -16 -4 -6 8 7 9 10 52 9 123 -2
94 -5 110 -20 116 -16 5 -17 7 -2 19 9 7 16 22 16 32 0 11 5 19 11 19 6 0 8
-7 5 -16z m29 -794 c-4 -11 -2 -20 4 -20 6 0 11 -7 11 -15 0 -8 -5 -15 -11
-15 -5 0 -8 -4 -4 -9 3 -6 -3 -14 -12 -20 -17 -9 -17 -11 2 -25 11 -8 23 -12
27 -9 5 2 17 1 29 -2 17 -6 19 -12 13 -38 -4 -18 -8 -50 -8 -71 -1 -22 -6 -41
-13 -43 -10 -4 -13 15 -14 69 l-2 73 -7 -67 c-5 -37 -11 -72 -15 -78 -3 -5 0
-23 8 -39 8 -16 12 -41 10 -55 -6 -29 -23 -35 -23 -8 0 10 -6 24 -12 31 -11
11 -10 12 1 6 9 -5 12 -3 9 6 -3 8 -11 13 -17 12 -12 -3 -15 10 -5 20 9 9 13
177 4 177 -15 0 -18 39 -4 51 17 14 18 41 2 57 -9 9 -8 12 5 12 9 0 17 5 17
10 0 6 3 10 6 10 3 0 2 -9 -1 -20z m-1325 -359 c0 -11 4 -23 10 -26 17 -10 62
-118 70 -167 1 -4 21 -45 45 -92 27 -53 41 -93 38 -106 -3 -12 0 -20 8 -20 7
0 9 -3 6 -7 -4 -3 5 -26 19 -51 21 -36 24 -46 13 -53 -12 -7 -11 -9 1 -9 16 0
43 -47 30 -52 -5 -2 -2 -21 5 -43 8 -21 12 -41 9 -44 -7 -8 -33 32 -40 64 -3
17 -20 57 -37 90 -16 33 -33 71 -38 85 -10 36 -51 140 -93 243 -20 48 -36 97
-36 108 0 10 -4 19 -9 19 -5 0 -12 11 -15 24 -3 13 -9 31 -12 40 -4 11 -1 16
10 16 9 0 16 -8 16 -19z m1327 -133 c7 19 23 14 23 -8 0 -15 6 -19 23 -17 21
2 22 -2 25 -75 3 -78 3 -78 -23 -78 -24 0 -25 2 -25 64 0 48 -4 65 -15 70 -11
4 -15 -2 -16 -22 -1 -15 -1 -30 0 -34 0 -4 1 -29 2 -56 2 -38 6 -49 16 -45 15
6 19 -32 3 -42 -5 -3 -10 -1 -10 6 0 6 -9 19 -19 28 -15 13 -20 33 -22 86 -2
39 0 76 4 83 5 7 5 22 1 35 -6 20 -5 21 11 7 14 -11 19 -12 22 -2z m-2858
-151 c0 -12 0 -26 0 -32 1 -5 2 -64 1 -130 -2 -290 1 -484 9 -540 10 -67 7
-76 -14 -54 -24 24 -27 797 -3 783 5 -3 8 -16 7 -27z m2848 -143 c-2 -14 0
-27 4 -30 5 -3 9 2 9 10 0 9 5 16 11 16 6 0 8 -9 4 -20 -4 -11 -2 -20 4 -20 6
0 11 -4 11 -9 0 -5 -9 -7 -20 -4 -25 7 -25 -1 -3 -27 24 -28 60 -26 66 3 3 12
3 -14 1 -58 -4 -112 -12 -145 -35 -145 -17 0 -19 8 -19 85 0 50 -4 85 -10 85
-10 0 -13 -20 -10 -81 1 -39 -16 -115 -28 -123 -10 -6 -9 238 2 245 5 4 5 13
1 20 -9 14 -14 69 -7 82 8 16 24 -7 19 -29z"/>
<path d="M16747 6923 c-3 -5 -5 -57 -4 -117 1 -121 1 -122 72 -111 l46 6 -3
112 -3 112 -52 3 c-28 2 -54 -1 -56 -5z"/>
<path d="M17135 6920 c-4 -6 -7 -57 -8 -113 l-2 -102 34 -3 c19 -2 48 -1 65 2
l31 6 0 107 0 108 -57 3 c-33 2 -59 -2 -63 -8z"/>
<path d="M16740 6385 l0 -115 49 0 c82 0 81 -2 81 121 l0 109 -65 0 -65 0 0
-115z"/>
<path d="M16768 5703 c-24 -6 -29 -33 -26 -138 3 -101 4 -102 84 -90 l44 6 0
108 0 109 -31 6 c-34 6 -44 6 -71 -1z"/>
<path d="M16965 5701 l-30 -6 -3 -106 -3 -106 41 -7 c22 -3 52 -3 65 0 25 6
25 7 25 115 0 101 -1 109 -19 109 -11 0 -25 2 -33 4 -7 2 -26 1 -43 -3z m75
-116 l0 -95 -40 0 -40 0 0 95 0 95 40 0 40 0 0 -95z"/>
<path d="M17143 5702 c-7 -5 -15 -47 -19 -106 -6 -89 -5 -100 11 -112 20 -15
83 -19 101 -6 7 4 13 49 16 114 3 100 2 107 -17 112 -29 8 -78 7 -92 -2z"/>
<path d="M16745 5263 c-14 -14 -16 -30 -10 -112 4 -55 12 -99 18 -103 15 -9
45 -10 84 -2 l30 6 -1 106 c0 64 -4 110 -10 114 -21 14 -94 8 -111 -9z m95
-98 c0 -47 0 -88 0 -92 0 -5 -19 -8 -42 -8 l-43 0 4 85 c2 47 5 88 8 93 2 4
20 7 39 7 l34 0 0 -85z"/>
<path d="M16937 5274 c-4 -4 -7 -56 -7 -115 0 -123 3 -127 86 -114 l45 6 -3
112 -3 112 -55 3 c-31 2 -59 0 -63 -4z"/>
<path d="M17160 5273 c-26 -10 -30 -25 -30 -124 0 -109 0 -109 79 -99 l44 5
-2 105 c-1 57 -4 106 -5 108 -7 6 -72 10 -86 5z"/>
<path d="M16744 4837 c-2 -7 -3 -58 -2 -113 l3 -99 51 -3 c33 -2 55 2 62 10 6
7 12 58 14 113 l3 100 -63 3 c-46 2 -64 -1 -68 -11z"/>
<path d="M16940 4824 c-13 -32 -10 -174 3 -191 10 -14 47 -17 93 -7 l29 6 0
106 0 107 -58 3 c-54 3 -58 2 -67 -24z m100 -89 l0 -95 -40 0 -40 0 0 88 c0
49 3 92 7 95 3 4 21 7 40 7 l33 0 0 -95z"/>
<path d="M17141 4831 c-6 -11 -11 -60 -11 -110 l0 -91 54 0 c30 0 57 3 59 8 3
4 6 52 8 107 l4 100 -52 3 c-43 3 -54 0 -62 -17z m93 -17 c3 -9 6 -52 6 -95
l0 -80 -42 3 c-24 2 -42 6 -40 11 1 4 2 45 2 92 l0 85 34 0 c22 0 36 -6 40
-16z"/>
<path d="M16570 4440 c-12 -7 -15 -28 -14 -104 1 -52 5 -100 9 -106 8 -13 44
-13 82 1 l30 10 1 105 1 104 -47 0 c-26 0 -54 -5 -62 -10z"/>
<path d="M16755 4408 c-3 -24 -5 -74 -3 -113 l3 -70 39 -3 c22 -2 50 -1 62 2
23 6 24 10 23 99 -1 50 0 99 2 107 3 12 -9 16 -58 18 l-62 3 -6 -43z"/>
<path d="M16946 4442 c-2 -4 -6 -55 -7 -112 l-2 -104 26 -7 c15 -4 45 -2 67 3
l41 11 -3 106 -3 106 -57 3 c-31 2 -59 -1 -62 -6z"/>
<path d="M17188 4443 l-38 -4 0 -67 c0 -37 -3 -84 -6 -104 l-7 -38 39 0 c81 0
79 -2 76 115 -2 74 -7 104 -15 103 -7 -1 -29 -3 -49 -5z"/>
<path d="M16569 3998 c-2 -18 -3 -70 -1 -116 l4 -84 56 4 57 4 -1 40 c-5 140
-25 184 -85 184 -23 0 -27 -5 -30 -32z"/>
<path d="M16963 4015 c-20 -14 -21 -23 -20 -113 l2 -97 48 -3 c71 -5 75 3 70
111 -3 50 -8 95 -12 98 -15 17 -67 19 -88 4z"/>
<path d="M17000 3640 l-45 -5 -8 -90 c-4 -49 -5 -95 -3 -101 6 -16 75 -23 103
-10 21 10 23 17 23 97 0 104 -8 117 -70 109z"/>
<path d="M16757 3625 c-2 -5 -3 -50 -3 -100 l1 -90 36 -9 c28 -7 42 -5 60 8
21 14 24 24 26 106 1 49 -1 90 -5 90 -72 5 -112 3 -115 -5z"/>
<path d="M17146 3632 c-2 -4 -6 -48 -7 -97 l-2 -90 33 -3 c18 -2 44 2 57 9 21
12 23 18 23 101 l0 88 -49 0 c-28 0 -52 -4 -55 -8z"/>
<path d="M4768 7968 c-2 -24 -7 -32 -18 -29 -47 14 -922 4 -884 -9 49 -18 674
-30 787 -16 41 6 67 5 67 0 0 -6 -41 -41 -91 -79 -50 -39 -114 -89 -141 -112
-27 -24 -52 -43 -57 -43 -5 0 -19 -16 -32 -36 l-24 -35 -85 5 c-47 3 -150 6
-230 7 -162 2 -241 17 -95 18 50 1 133 3 185 5 52 2 119 4 148 5 28 0 52 5 52
11 0 5 -39 7 -97 5 -54 -3 -164 -5 -245 -6 -128 0 -149 -2 -158 -17 -5 -10
-10 -12 -10 -4 0 6 -5 12 -11 12 -5 0 -7 -4 -4 -10 9 -14 -7 -12 -29 5 -18 13
-44 13 -164 -1 -23 -3 -40 -9 -37 -15 4 -5 0 -9 -7 -10 -7 -1 -30 -3 -52 -5
-43 -3 -41 0 14 36 53 35 152 104 242 168 l77 54 188 -1 c103 -1 194 3 202 8
20 13 -177 22 -281 13 -51 -4 -89 -4 -91 2 -5 16 -46 -5 -175 -91 -148 -100
-301 -203 -328 -220 -17 -10 -16 -11 11 -10 28 2 30 -1 36 -43 4 -25 7 -228 7
-452 1 -225 3 -412 6 -417 12 -19 7 -352 -5 -367 -9 -11 -39 -14 -126 -14
l-114 0 -38 40 c-21 22 -45 40 -54 40 -8 0 -31 -18 -50 -40 -19 -22 -38 -40
-44 -40 -6 0 -10 218 -11 591 -2 522 0 590 13 585 13 -5 14 13 10 137 -3 78
-7 167 -11 197 -7 64 -7 69 0 95 2 11 5 23 5 27 1 4 18 9 39 11 73 7 -298 6
-608 -3 -342 -9 -350 -11 -415 -70 -50 -46 -187 -123 -196 -109 -3 6 -12 8
-18 5 -6 -4 -9 -12 -5 -17 7 -12 -15 -31 -69 -60 -37 -20 -39 -20 -53 -2 -7
10 -14 22 -14 26 0 5 -4 6 -9 3 -5 -3 -7 -14 -4 -25 3 -12 -3 -24 -18 -35 -23
-16 -23 -16 -2 -16 19 0 21 -3 13 -29 -4 -16 -6 -32 -3 -35 3 -3 7 -67 8 -143
2 -76 7 -253 12 -393 10 -303 9 -397 -3 -675 -11 -257 -9 -559 5 -890 14 -324
15 -741 1 -1028 -6 -126 -8 -231 -6 -235 2 -4 9 -61 15 -127 14 -145 40 -303
52 -311 5 -3 9 -19 9 -36 0 -59 104 -290 186 -412 18 -28 31 -52 28 -55 -2 -3
-41 31 -86 75 -44 43 -73 68 -64 54 37 -56 355 -365 416 -405 36 -23 70 -48
77 -57 7 -8 14 -47 17 -87 4 -67 2 -73 -18 -81 -13 -5 65 -9 199 -9 135 -1
234 -5 255 -12 47 -16 756 -24 765 -9 5 9 -116 17 -162 11 -19 -3 -16 16 5 25
30 13 261 13 295 0 47 -18 281 -13 329 7 31 13 37 13 42 1 8 -20 33 -17 56 6
11 11 27 20 35 20 8 0 15 7 15 15 0 8 4 15 9 15 5 0 12 11 15 25 4 14 12 25
19 23 7 -1 23 4 35 11 13 7 27 10 30 6 3 -3 -4 -8 -16 -12 -63 -16 16 -23 260
-22 148 0 267 3 264 7 -9 9 -62 12 -202 12 -115 0 -180 9 -158 23 6 3 37 2 69
-2 32 -5 70 -5 85 0 21 6 19 7 -17 8 -23 1 -45 5 -48 11 -3 6 -17 10 -31 10
-13 0 -24 5 -24 10 0 6 7 10 15 10 8 0 15 4 15 10 0 10 -165 12 -258 3 -45 -4
-51 -7 -41 -19 21 -25 2 -15 -37 21 -34 31 -35 35 -16 35 12 0 22 -4 22 -8 0
-5 91 -6 203 -3 281 6 526 5 566 -4 23 -5 32 -4 27 3 -9 16 -104 26 -301 33
-30 1 -35 3 -17 7 12 4 78 4 145 1 67 -3 126 -2 130 2 19 15 -327 28 -438 16
-49 -6 -54 -5 -27 3 17 6 32 12 32 14 0 6 -155 -1 -180 -8 -25 -8 -25 -8 -4 8
23 16 69 19 232 14 52 -2 96 0 98 4 3 5 0 8 -5 8 -6 0 -11 5 -11 12 0 6 11 1
24 -11 20 -19 33 -22 90 -20 36 1 66 6 66 11 0 4 -9 8 -20 8 -11 0 -20 4 -20
8 0 5 28 8 62 6 38 -1 56 1 47 6 -18 12 -87 19 -217 25 -56 2 -106 6 -111 9
-4 3 -28 3 -52 0 -73 -10 -130 -10 -136 -1 -5 8 -76 3 -150 -10 -18 -3 -33 -2
-33 2 0 3 78 86 173 183 222 226 265 274 260 290 -3 6 1 12 8 12 7 0 10 3 6 6
-3 3 10 31 28 63 39 66 89 189 111 270 79 295 118 470 108 495 -3 9 -2 16 3
16 15 0 9 80 -7 90 -13 8 -12 10 2 10 13 0 15 5 9 28 -4 15 -9 77 -10 137 -1
61 -4 130 -7 155 -10 115 -22 2260 -12 2260 3 0 9 -6 11 -12 3 -7 6 -3 6 10 1
13 -3 21 -7 18 -4 -2 -8 82 -9 187 0 106 -3 265 -6 355 l-5 162 39 22 c22 12
39 25 39 30 0 11 -14 10 -25 -1 -20 -19 -50 -17 -51 4 -1 11 -2 35 -3 53 0 17
-5 32 -10 32 -6 0 -11 -15 -13 -32z m-1778 -60 c0 -7 -12 -20 -28 -30 -53 -32
-148 -101 -188 -138 -67 -62 -121 -93 -149 -88 -25 5 -35 -7 -12 -15 34 -12
-20 -18 -233 -23 -182 -4 -235 -3 -241 7 -5 9 -53 13 -183 13 -97 1 -176 3
-175 6 0 8 88 66 184 121 50 29 105 67 124 86 24 23 43 33 65 33 178 -2 633
13 711 24 55 7 106 14 113 15 6 0 12 -5 12 -11z m-15 -195 c-2 -76 -7 -208
-11 -293 -4 -85 -7 -180 -6 -210 10 -465 10 -935 1 -947 -6 -7 -20 -13 -31
-13 -10 0 -44 -8 -76 -19 -31 -10 -69 -21 -84 -25 l-28 -6 0 62 c0 82 -11 198
-19 198 -3 0 -4 -61 -3 -135 3 -93 1 -135 -7 -135 -11 0 -13 24 -12 205 0 148
2 185 12 185 5 0 5 10 1 23 -5 12 -7 110 -5 217 1 107 2 227 2 265 -2 93 3
221 14 350 2 22 4 69 5 105 l2 65 62 50 c75 60 160 146 153 153 -4 5 23 42 31
42 2 0 1 -62 -1 -137z m1781 45 c-7 -106 -7 -141 -3 -1286 2 -786 1 -962 -10
-958 -7 3 -13 1 -13 -4 0 -6 7 -10 16 -10 13 0 15 -10 10 -62 -2 -35 -7 -78
-10 -95 -3 -18 -2 -33 2 -33 4 0 7 -51 8 -113 1 -139 13 -478 19 -532 3 -31 2
-34 -4 -15 -6 18 -10 21 -14 10 -3 -8 -5 -22 -5 -30 0 -15 -7 -79 -18 -153 -8
-52 -17 -38 -17 25 1 29 -3 61 -7 73 -6 14 -9 3 -10 -40 -2 -75 -1 -213 2
-240 2 -27 -12 -207 -18 -216 -2 -4 0 -19 6 -33 6 -17 6 -33 0 -44 -5 -9 -16
-44 -25 -77 -9 -33 -26 -82 -38 -109 -16 -39 -22 -45 -27 -30 -8 22 -1 54 11
54 5 0 9 5 9 11 0 5 -4 7 -10 4 -14 -9 -12 1 3 17 23 24 37 66 24 72 -9 3 -8
8 3 15 12 9 13 13 1 20 -10 6 -11 13 -2 29 6 12 10 25 10 29 -1 4 3 21 10 37
6 16 9 31 7 34 -8 7 -36 -25 -36 -42 0 -8 -4 -17 -8 -20 -5 -3 -9 -19 -10 -35
-1 -26 -25 -84 -42 -101 -5 -5 -8 -16 -13 -50 -2 -11 -7 -23 -11 -27 -5 -5 -6
4 -4 20 3 15 1 27 -4 27 -5 0 -5 8 1 18 5 9 7 30 4 45 -3 17 -1 27 7 27 7 0 9
-8 5 -20 -3 -11 -4 -20 0 -20 9 0 35 66 34 87 0 15 -2 14 -9 -3 -10 -26 -26
-38 -34 -25 -4 5 -2 13 4 16 6 4 8 16 5 28 -2 12 -2 16 1 10 4 -9 11 -9 30 3
13 9 21 20 18 25 -3 5 1 19 8 31 7 13 13 26 14 31 1 4 3 10 4 15 1 4 2 11 1
15 -1 4 5 15 14 23 8 9 15 23 14 32 0 11 -2 12 -6 5 -9 -25 -21 -13 -18 20 4
48 4 49 15 42 7 -4 8 18 3 67 -4 40 -7 83 -8 96 0 21 -1 21 -13 5 -8 -12 -10
-32 -6 -62 5 -31 4 -42 -5 -37 -8 5 -11 -15 -11 -71 0 -43 -3 -95 -6 -116 -6
-31 -9 -35 -18 -21 -10 13 -12 10 -14 -16 -1 -19 2 -29 8 -25 6 4 7 -1 3 -11
-6 -16 -7 -16 -19 0 -19 26 3 135 24 122 7 -4 7 10 3 87 -2 28 -3 29 -11 11
-4 -11 -6 -38 -4 -59 2 -28 0 -35 -8 -27 -19 19 -18 78 3 101 10 11 19 25 19
31 0 5 5 10 10 10 7 0 8 13 4 36 -4 21 -2 39 4 43 6 4 8 47 5 119 -3 62 -8
110 -11 108 -2 -3 -4 -55 -3 -116 1 -75 -2 -110 -9 -105 -5 3 -10 13 -10 22 0
9 -3 14 -6 10 -4 -3 -3 -14 1 -24 4 -10 9 -31 11 -47 2 -22 0 -26 -9 -17 -7 7
-12 17 -13 24 -4 44 -34 79 -34 40 0 -14 -2 -15 -9 -5 -5 8 2 55 16 115 13 56
26 112 29 125 3 16 11 22 29 22 14 0 25 5 25 10 0 6 7 10 15 10 25 0 19 89 -8
141 -27 50 -38 97 -43 187 -4 60 9 86 20 40 3 -13 3 2 1 32 -2 36 -14 75 -34
112 -16 31 -27 59 -24 62 3 2 -4 18 -16 34 -34 48 -43 82 -48 176 -2 49 -8 96
-13 106 -5 9 -12 86 -15 171 -3 85 -8 215 -11 289 -13 309 -17 644 -14 1130
l2 315 44 28 c56 37 129 97 129 108 0 4 6 14 13 21 6 6 12 17 12 23 0 5 -6 3
-13 -6 -13 -17 -175 -149 -182 -149 -18 0 2 24 42 52 26 17 76 56 111 86 34
29 67 50 72 47 6 -3 10 1 10 10 0 11 5 15 15 11 10 -3 15 -1 13 7 -2 11 47 65
60 67 1 0 0 -37 -2 -82z m-2716 -148 c98 -2 97 -6 -10 -28 -32 -7 44 -10 263
-10 169 0 310 -1 312 -4 2 -2 5 -304 6 -671 l3 -667 -26 -28 c-15 -15 -28 -40
-30 -57 -2 -24 -16 -39 -73 -78 -67 -46 -72 -48 -121 -41 -29 3 -61 3 -71 0
-28 -9 -42 -46 -37 -92 5 -37 1 -44 -78 -136 -73 -87 -87 -98 -115 -98 -20 0
-41 -8 -54 -21 -18 -18 -21 -30 -17 -78 5 -52 1 -63 -42 -149 -38 -74 -54 -97
-81 -110 -19 -9 -40 -30 -47 -45 -12 -24 -11 -33 9 -73 20 -42 21 -51 10 -97
-7 -29 -16 -74 -19 -102 -6 -41 -13 -53 -39 -70 -18 -11 -34 -27 -36 -35 -3
-8 -5 44 -6 115 -2 137 -16 478 -28 655 -3 58 -5 247 -2 420 5 434 5 819 -1
1184 l-5 310 25 7 c14 4 68 5 120 4 52 -2 138 -4 190 -5z m1928 -32 c8 -7 64
-10 145 -9 112 1 251 -10 262 -21 2 -2 6 -282 9 -623 5 -611 13 -1066 20
-1237 3 -49 3 -88 1 -88 -19 0 -46 27 -109 109 -40 53 -95 118 -122 145 -35
35 -45 50 -35 54 14 5 53 -33 77 -74 7 -10 15 -16 19 -12 11 11 -2 51 -26 81
-16 22 -29 27 -62 27 -36 0 -54 9 -124 62 -68 50 -83 66 -83 88 0 37 -40 94
-70 98 -13 2 -41 -2 -62 -9 -34 -11 -44 -10 -105 15 -120 49 -133 55 -133 71
0 8 -15 30 -34 48 l-34 34 -6 264 c-16 679 -26 915 -41 966 -7 22 -7 22 146
26 196 5 350 -2 367 -15z m-896 -1379 c-2 -8 -8 -17 -14 -20 -6 -4 -4 -8 5
-12 7 -3 20 3 28 14 23 32 77 25 121 -16 20 -19 42 -43 48 -55 12 -22 18 -20
-80 -25 -30 -2 -83 -6 -118 -10 l-64 -6 6 73 c2 40 5 74 5 74 1 1 16 0 34 -1
21 -2 31 -8 29 -16z m-102 1 c0 -5 -7 -28 -16 -50 -17 -43 -37 -51 -53 -22 -9
15 -10 15 -11 -5 0 -25 -46 -83 -65 -83 -7 0 -15 -4 -17 -10 -5 -15 -68 -25
-68 -10 0 7 8 10 20 7 11 -3 20 -3 20 0 0 9 -23 48 -33 54 -6 4 -6 17 0 35 7
22 22 33 68 51 32 12 62 20 66 17 5 -3 19 2 31 10 25 18 58 21 58 6z m482 -70
c4 -35 6 -65 5 -66 -1 -1 -40 3 -86 10 -88 12 -109 26 -69 47 13 6 37 24 53
39 29 27 58 40 80 35 6 -1 13 -30 17 -65z m72 51 c3 -5 16 -8 29 -8 38 0 132
-31 159 -52 13 -11 37 -23 52 -27 15 -3 30 -12 32 -19 3 -7 15 -15 26 -18 13
-4 17 -10 12 -18 -4 -7 -9 -24 -10 -37 -2 -19 0 -21 12 -11 8 6 14 18 14 25 0
31 67 1 165 -75 l60 -46 -65 -6 c-83 -7 -196 7 -236 30 -17 10 -69 35 -115 55
-142 63 -149 68 -149 97 0 14 -3 47 -6 73 -5 30 -3 46 4 46 6 0 13 -4 16 -9z
m-928 -142 c-16 -32 -11 -65 6 -35 15 26 23 19 22 -19 -1 -34 -24 -64 -49 -65
-5 0 -4 4 3 9 8 4 12 19 10 32 l-4 24 -12 -27 c-10 -23 -53 -67 -230 -233 -29
-27 -67 -70 -84 -95 -18 -25 -34 -47 -38 -50 -19 -15 -150 -266 -150 -287 0
-8 -10 -17 -22 -22 -19 -7 -27 -3 -45 23 -12 17 -27 37 -33 44 -12 14 -3 49
31 128 24 53 44 71 63 55 22 -18 88 13 104 48 11 25 10 34 -8 70 l-22 40 23
33 c44 64 131 158 146 158 8 0 13 -3 11 -7 -27 -55 -47 -106 -43 -113 3 -5 1
-11 -4 -15 -12 -7 -3 -35 10 -35 5 0 9 12 9 28 1 77 47 138 96 126 12 -3 35 1
51 10 15 8 22 15 16 16 -7 0 -13 12 -13 28 0 15 -5 33 -10 38 -6 6 -8 17 -5
25 6 17 143 95 163 93 6 -1 12 3 12 9 0 6 3 8 6 4 3 -3 -1 -20 -10 -38z m817
-18 c36 -12 37 -14 38 -59 2 -157 -3 -272 -14 -306 -9 -31 -9 -40 1 -44 16 -5
15 -22 -1 -22 -14 0 -43 -66 -39 -87 2 -7 -2 -13 -8 -13 -5 0 -10 -9 -10 -20
0 -10 -9 -42 -20 -70 -19 -49 -61 -182 -101 -322 -27 -95 -22 -127 6 -43 81
242 157 483 157 502 0 13 6 27 13 33 17 14 25 -51 25 -189 0 -104 -1 -107 -40
-179 -22 -40 -59 -103 -83 -140 -57 -88 -64 -101 -39 -77 17 17 50 65 139 202
10 15 12 4 12 -58 l1 -76 -42 -39 c-24 -22 -60 -52 -80 -67 -36 -28 -37 -28
-64 -11 -31 21 -45 25 -94 27 -31 2 -35 5 -36 32 -4 58 -35 168 -59 209 -27
45 -34 43 -10 -3 8 -16 24 -65 35 -110 36 -139 34 -170 -8 -131 -49 46 -99
173 -72 182 8 2 8 11 1 31 -6 16 -11 52 -11 80 1 51 1 51 16 27 l15 -25 -6 25
c-20 76 -24 144 -24 432 l-1 317 53 5 c128 14 284 8 350 -13z m-437 -203 c-3
-111 -8 -204 -11 -206 -3 -3 -6 10 -7 29 -5 108 -14 236 -18 249 -1 3 -1 20 0
37 1 27 -1 32 -15 26 -16 -5 -17 -16 -10 -92 5 -47 9 -104 10 -126 2 -22 12
-83 23 -135 16 -70 20 -118 17 -185 -3 -49 -5 -123 -5 -162 0 -40 -3 -73 -7
-73 -5 1 -20 26 -35 58 -16 31 -51 100 -78 152 -28 52 -49 99 -46 105 2 6 -5
17 -15 23 -11 7 -32 38 -46 70 -15 31 -34 62 -42 68 -11 9 -15 39 -15 133 l-1
122 27 17 c15 9 30 14 33 11 3 -3 8 -51 10 -105 8 -142 26 -297 38 -309 6 -6
7 9 3 45 -10 91 -18 195 -21 272 -1 40 -5 80 -9 89 -8 18 14 31 94 54 30 9 64
20 75 25 11 5 28 9 39 9 18 1 18 -8 12 -201z m589 151 c5 -5 16 -9 25 -9 25 0
208 -97 258 -137 146 -117 282 -276 348 -406 46 -90 67 -151 101 -282 25 -100
27 -126 27 -285 -1 -184 -16 -277 -76 -460 -89 -274 -319 -538 -570 -655 -29
-14 -58 -25 -64 -25 -5 0 -20 33 -33 73 -12 39 -38 114 -57 165 -35 92 -36 93
-32 232 2 77 4 140 4 140 1 0 21 -30 45 -67 179 -281 259 -397 266 -389 3 3
-25 51 -62 108 -102 153 -203 314 -224 357 -15 28 -20 61 -22 127 -1 49 1 91
3 94 3 3 34 -19 69 -47 141 -116 426 -330 470 -354 40 -21 16 3 -58 57 -168
124 -465 358 -474 375 -9 19 -13 109 -4 109 3 0 23 -9 44 -20 60 -30 531 -203
586 -215 36 -7 -39 24 -230 95 -77 29 -198 76 -270 104 l-130 51 -3 40 -3 40
318 2 c175 2 352 7 393 12 52 6 -16 8 -219 4 -162 -3 -338 -2 -393 2 l-98 7 0
42 0 41 88 24 c102 28 400 123 556 177 187 65 101 48 -134 -26 -312 -98 -486
-150 -504 -150 -13 0 -16 12 -16 58 0 32 6 65 13 74 15 19 239 188 437 328
171 121 155 109 148 115 -8 8 -299 -193 -496 -342 -45 -35 -87 -63 -93 -63 -7
0 -10 30 -7 88 l3 89 60 91 c33 50 81 124 106 164 26 40 71 111 101 158 50 77
72 120 64 120 -1 0 -74 -108 -162 -240 -93 -140 -163 -235 -168 -230 -5 5 -5
97 1 222 5 117 8 257 5 311 -5 116 -1 131 30 122 13 -4 27 -11 33 -16z m-937
-327 c2 -136 5 -264 8 -285 7 -50 6 -49 -139 87 -174 163 -183 158 -14 -7 81
-80 147 -149 148 -154 1 -14 8 -66 13 -101 2 -18 11 -41 18 -49 11 -14 10 -16
-9 -11 -16 4 -23 2 -23 -8 0 -8 -6 -14 -13 -14 -8 0 -97 38 -200 85 -176 80
-255 110 -232 88 6 -5 39 -22 75 -38 271 -117 411 -185 382 -185 -6 0 -12 -10
-12 -22 0 -19 2 -20 10 -8 8 13 10 12 10 -2 0 -10 -4 -18 -10 -18 -5 0 -10
-18 -10 -40 0 -48 15 -46 -201 -26 -219 21 -358 28 -334 18 11 -5 65 -12 120
-16 134 -9 397 -36 407 -42 4 -3 8 -40 8 -83 l0 -78 -142 -37 c-339 -88 -382
-100 -367 -104 9 -1 123 24 254 58 131 33 242 60 246 60 5 0 9 -36 9 -80 l0
-79 -42 -24 c-24 -13 -104 -58 -178 -100 -74 -42 -144 -83 -155 -92 -29 -23
79 32 235 119 74 41 137 72 140 68 3 -4 4 -61 2 -128 l-3 -120 -110 -124 c-60
-68 -107 -125 -104 -128 5 -5 105 101 171 179 20 24 39 45 43 46 3 2 7 -48 9
-110 5 -208 25 -292 96 -392 l21 -30 -50 29 c-28 16 -56 37 -63 45 -10 12 -12
12 -6 1 30 -56 -291 229 -359 319 -78 104 -142 257 -207 491 -27 96 -40 342
-20 355 6 4 8 10 5 15 -9 14 45 250 66 292 10 20 19 44 19 51 0 8 12 35 26 61
14 25 23 46 20 46 -3 0 3 9 14 20 11 11 20 27 20 35 0 16 75 117 91 123 5 2 9
9 9 16 0 18 218 236 236 236 3 0 17 9 31 20 14 11 28 20 32 20 3 0 7 -111 9
-248z m1415 218 c3 -3 7 -36 9 -74 3 -44 9 -71 17 -74 9 -3 11 2 8 14 -4 11
-7 46 -8 79 -2 47 0 61 13 63 21 4 73 -65 60 -81 -15 -20 -23 -89 -9 -84 7 2
13 20 15 40 2 23 8 37 17 37 17 0 84 -75 136 -154 l41 -61 -25 -3 c-14 -2 -51
4 -84 13 -32 9 -69 19 -83 22 -14 3 -59 40 -100 83 -41 42 -104 101 -140 132
l-64 55 96 -1 c53 -1 99 -4 101 -6z m-1314 -307 c21 -43 42 -90 46 -104 4 -13
19 -42 33 -64 68 -107 151 -257 151 -273 0 -9 2 -34 4 -54 2 -21 2 -38 -1 -38
-2 0 -48 39 -101 86 -53 48 -111 100 -128 116 -32 28 -33 31 -35 116 -4 159
-5 187 -13 247 -4 33 -5 57 -1 54 4 -3 24 -42 45 -86z m1520 -2 c54 -11 86
-22 89 -31 3 -8 9 -18 14 -21 4 -3 18 -32 30 -65 17 -47 21 -83 22 -181 1 -68
3 -123 6 -123 9 0 -2 -133 -12 -154 -7 -13 -7 -16 1 -12 7 5 10 -61 9 -219 -1
-124 1 -228 5 -231 3 -4 2 -15 -4 -26 -11 -21 -9 -100 4 -109 4 -3 1 -25 -8
-48 -8 -24 -15 -50 -15 -58 0 -8 -17 -49 -37 -90 -33 -64 -44 -77 -80 -94 -23
-10 -53 -19 -66 -19 -13 0 -38 -5 -56 -11 -18 -6 -34 -10 -36 -8 -2 2 12 26
30 53 24 36 51 59 104 88 39 22 71 44 71 48 0 5 6 7 14 4 18 -7 30 12 20 34
-10 25 -53 147 -51 147 32 8 61 23 65 33 3 9 -3 10 -23 2 -38 -15 -47 -13 -36
8 5 9 9 19 8 22 -2 11 27 106 36 118 8 9 7 16 -1 21 -7 4 -8 19 -2 46 16 70
23 242 12 292 -6 26 -16 82 -22 123 -17 116 -84 291 -152 396 -66 104 -64 98
-42 90 10 -5 57 -16 103 -25z m-2189 -305 c0 -3 -9 -44 -20 -93 -11 -48 -23
-98 -25 -110 -7 -32 -17 -29 -39 12 -11 19 -23 35 -28 35 -14 0 -9 -27 8 -41
14 -12 44 -61 44 -74 0 -3 -7 -5 -15 -5 -8 0 -17 -14 -21 -35 -3 -19 -12 -39
-20 -46 -8 -6 -14 -17 -14 -24 0 -22 -34 -75 -48 -75 -16 0 -28 30 -15 39 14
9 24 41 13 41 -4 0 -7 20 -5 45 2 24 0 47 -6 50 -10 7 -6 51 11 115 5 19 12
47 15 63 7 36 22 35 30 -3 4 -16 11 -33 17 -37 8 -4 9 0 4 13 -19 44 -18 52 5
59 12 4 37 23 55 41 27 29 54 44 54 30z m704 -78 c28 -29 83 -81 122 -115 67
-58 93 -96 74 -108 -5 -3 -64 23 -132 57 l-123 63 -3 78 c-2 42 0 77 4 77 4 0
30 -24 58 -52z m1731 -155 c7 -71 -5 -398 -14 -398 -1 0 -4 -13 -6 -30 -5 -38
-26 -107 -37 -120 -4 -5 -5 40 -2 100 4 61 10 114 14 119 5 4 4 21 0 36 -5 16
-5 44 0 64 4 19 6 37 3 40 -8 7 -5 274 3 287 14 23 32 -22 39 -98z m-1665 -37
c78 -39 126 -70 128 -81 3 -15 -2 -16 -37 -11 -23 3 -59 9 -81 12 -38 5 -40 7
-40 42 0 43 -11 37 -12 -7 -1 -33 -6 -35 -57 -25 -31 6 -31 7 -31 70 0 35 1
64 3 64 1 0 58 -29 127 -64z m389 -76 c64 -32 70 -89 18 -147 -34 -36 -34 -36
-88 -27 -51 9 -55 11 -68 49 -12 37 -12 45 4 78 17 36 54 66 83 67 7 0 30 -9
51 -20z m-369 -30 c47 -5 91 -10 98 -10 6 0 12 -11 12 -24 0 -23 -7 -26 -77
-41 -43 -9 -100 -23 -127 -31 -27 -7 -51 -12 -55 -10 -3 2 -5 33 -3 69 l4 66
31 -4 c18 -3 70 -9 117 -15z m600 -25 l0 -35 -52 -1 c-54 -1 -52 -3 14 -14
l37 -6 -1 -62 c0 -34 1 -66 3 -72 10 -26 -15 -16 -66 29 -31 26 -58 46 -60 44
-3 -2 27 -35 65 -73 l70 -69 0 -68 c0 -39 -4 -68 -10 -68 -5 0 -10 4 -10 9 0
5 -31 57 -70 115 -71 108 -80 132 -58 154 7 7 13 38 13 69 l0 57 50 12 c75 18
75 18 75 -21z m-1680 -40 c17 -9 30 -21 30 -28 0 -6 5 -62 10 -124 l10 -112
-25 -25 c-48 -48 -22 -136 40 -136 20 0 29 -8 42 -37 9 -21 38 -85 65 -143 49
-104 49 -105 29 -119 -16 -10 -21 -24 -21 -61 0 -59 16 -74 81 -75 27 -1 53
-5 58 -11 5 -5 26 -29 46 -54 20 -25 56 -66 80 -91 42 -45 43 -46 24 -62 -27
-24 -25 -72 6 -102 30 -31 82 -33 118 -5 30 24 31 24 160 -53 47 -28 66 -44
62 -55 -3 -10 0 -12 10 -8 11 4 20 -3 28 -22 6 -15 16 -30 22 -34 6 -5 6 -10
0 -17 -16 -14 -55 6 -55 29 0 11 -7 20 -15 20 -24 0 -17 -29 14 -61 33 -32 48
-35 75 -16 15 11 17 17 7 35 -6 12 -16 22 -21 22 -6 0 -10 5 -10 11 0 12 49 4
64 -11 8 -8 -9 -75 -96 -367 l-31 -102 -66 -3 c-60 -3 -66 -5 -69 -26 -7 -47
-46 -34 -129 42 -18 16 -40 31 -48 32 -20 3 -79 51 -147 121 -142 146 -266
366 -317 563 -46 179 -76 351 -62 360 9 5 9 19 0 56 -17 68 -19 684 -2 684 2
0 17 -7 33 -15z m1186 -37 c1 -8 -1 -20 -5 -25 -6 -10 -128 -83 -138 -83 -4 0
-14 -6 -22 -14 -16 -14 -88 -56 -96 -56 -3 0 -4 26 -4 58 1 53 2 54 9 19 10
-54 18 -55 16 -2 -1 30 -5 45 -14 45 -7 0 -11 4 -8 9 5 7 50 20 91 26 6 1 17
5 25 8 27 11 125 35 134 33 5 -1 10 -9 12 -18z m-993 -66 c36 -37 49 -58 56
-95 7 -41 6 -47 -6 -43 -39 15 -66 19 -59 7 4 -6 13 -11 19 -11 28 -1 70 -49
83 -96 7 -27 16 -60 20 -73 6 -22 5 -23 -17 -12 -20 10 -18 7 7 -16 17 -15 41
-47 52 -70 11 -23 30 -59 43 -79 l23 -38 -39 29 c-22 17 -41 33 -43 38 -2 4
-20 7 -40 7 l-37 0 25 -15 c25 -14 33 -18 78 -36 18 -7 22 -17 24 -56 1 -44 2
-45 5 -10 2 20 7 37 11 37 4 -1 31 -36 59 -79 29 -43 83 -109 120 -148 77 -80
242 -193 359 -244 47 -21 74 -38 74 -48 0 -28 -37 -136 -46 -136 -15 1 -197
93 -254 129 -100 63 -99 61 -33 62 102 2 153 7 153 16 0 15 -97 13 -147 -4
-25 -9 -36 -8 -56 5 -26 17 -36 52 -39 137 -2 56 -14 66 -103 81 -38 6 -78 15
-87 21 -12 5 -18 5 -18 -1 0 -17 34 -30 94 -37 78 -9 88 -19 97 -99 5 -38 7
-71 4 -73 -8 -9 -154 129 -185 174 -16 25 -30 49 -30 53 0 5 -16 32 -36 61
-35 51 -40 78 -8 46 9 -9 19 -14 22 -11 4 3 1 9 -5 13 -7 4 -19 21 -27 37 -11
20 -16 24 -16 13 0 -10 -3 -18 -7 -18 -12 0 -63 85 -63 104 0 9 -5 16 -11 16
-6 0 -9 6 -6 14 3 7 -8 41 -24 74 -33 69 -37 102 -13 102 12 0 10 7 -10 31
-14 17 -26 34 -26 39 0 5 -3 15 -6 24 -4 10 -1 16 10 16 8 0 20 9 26 20 8 16
8 20 -4 20 -8 0 -18 -4 -21 -10 -10 -17 -23 -11 -31 12 -11 35 -13 138 -3 138
5 0 9 7 9 15 0 29 36 15 83 -33z m993 -27 c-7 -27 -65 -95 -217 -255 -8 -9
-18 -24 -22 -33 -3 -9 -11 -17 -17 -17 -12 0 -14 169 -2 185 8 11 36 30 72 47
14 7 31 18 38 25 7 7 36 24 65 38 29 15 56 30 61 35 15 15 28 0 22 -25z m287
-37 c4 -43 27 -113 111 -343 24 -66 52 -147 61 -180 10 -33 22 -71 28 -85 19
-49 78 -216 104 -295 99 -309 202 -599 243 -689 26 -58 26 -58 -12 -54 l-32 3
-141 425 c-78 234 -158 475 -178 535 -19 61 -56 171 -81 245 -25 74 -64 196
-86 270 -23 74 -49 145 -57 158 -18 29 -11 52 16 52 15 0 20 -9 24 -42z m-103
25 c-1 -9 -7 -34 -43 -173 -13 -52 -27 -112 -31 -132 -4 -21 -27 -97 -51 -170
-24 -73 -55 -178 -69 -234 -14 -55 -35 -127 -46 -159 -11 -32 -20 -66 -20 -76
0 -9 -4 -19 -9 -21 -5 -1 -12 -16 -15 -33 -7 -37 -24 -104 -42 -169 -8 -26
-14 -57 -14 -67 0 -11 -4 -19 -10 -19 -5 0 -10 -8 -10 -19 0 -10 -16 -85 -36
-167 -19 -82 -38 -168 -41 -190 -5 -41 -6 -42 -51 -48 -25 -3 -47 -4 -49 -2
-3 2 2 17 10 33 7 15 21 55 30 88 9 33 38 121 63 195 63 182 105 317 176 560
33 113 71 239 84 280 14 41 42 140 63 220 64 244 85 310 98 310 7 0 13 -3 13
-7z m237 -130 c35 -52 67 -111 73 -131 11 -42 19 -265 9 -254 -10 10 -130 363
-134 392 -1 14 -10 42 -19 62 -19 43 -21 72 -3 44 7 -10 40 -61 74 -113z
m-422 12 c-1 -57 -5 -80 -19 -93 -16 -16 -17 -15 -11 31 4 28 3 47 -3 47 -17
0 -19 -79 -3 -95 13 -12 8 -27 -40 -120 -54 -105 -76 -131 -64 -75 4 17 2 30
-3 30 -11 0 -22 -33 -22 -66 0 -12 -7 -35 -16 -50 l-15 -29 6 32 c4 18 2 34
-4 38 -11 6 -16 -25 -13 -77 2 -29 -12 -38 -22 -15 -3 6 -4 -1 -1 -16 4 -17
-1 -36 -11 -50 -16 -22 -16 -22 -10 6 4 16 3 26 -2 23 -5 -3 -9 49 -8 122 1
90 4 126 12 125 7 -1 10 6 7 17 -3 12 1 22 11 26 9 3 16 11 16 16 0 6 17 29
38 51 20 22 46 50 57 62 34 37 79 91 95 113 8 12 17 22 21 22 3 0 5 -34 4 -75z
m238 18 c5 -29 69 -235 106 -338 92 -258 111 -319 104 -325 -33 -30 -237 -41
-226 -13 3 7 -6 17 -19 22 -68 26 -135 130 -122 188 7 33 65 235 99 343 12 41
26 94 30 118 7 46 20 48 28 5z m-253 -235 c10 -122 -5 -200 -84 -426 -20 -57
-36 -111 -36 -120 0 -10 -8 -26 -16 -37 -10 -13 -15 -15 -13 -5 2 8 -2 25 -9
36 -26 48 -43 115 -36 149 3 19 10 35 14 35 4 0 13 18 20 41 20 60 35 62 26 3
-5 -27 -8 -58 -8 -69 1 -10 -2 -24 -6 -30 -4 -5 -7 -19 -6 -30 1 -11 2 -31 3
-44 1 -26 13 -21 17 7 4 22 33 120 45 150 5 13 9 56 9 95 -1 40 3 87 9 105 8
27 7 32 -7 32 -11 0 -13 3 -6 8 13 8 37 51 40 72 4 20 26 60 34 60 4 0 8 -15
10 -32z m1485 -150 c-2 -7 -6 -49 -9 -93 -13 -197 -27 -280 -66 -395 -79 -236
-168 -401 -279 -522 -50 -55 -190 -168 -208 -168 -5 0 -15 15 -22 33 -28 69
-141 412 -141 428 0 10 13 21 31 28 45 16 54 14 66 -12 6 -13 28 -32 48 -41
44 -21 79 -11 97 29 9 20 8 28 -5 43 -20 22 -21 30 -4 28 6 0 13 4 14 9 2 6
-8 10 -22 10 -13 0 -25 5 -25 10 -2 15 78 91 138 132 49 34 55 36 86 25 44
-16 81 -15 96 2 20 26 23 76 5 96 -22 25 -14 47 42 116 43 53 48 56 84 52 22
-2 39 -1 40 2 6 39 3 52 -13 61 -24 13 -23 23 13 85 29 52 43 68 34 42z m-171
-176 c-22 -31 -52 -72 -69 -91 l-30 -34 -8 39 c-22 114 -22 113 7 124 15 5 42
10 59 10 18 0 41 7 52 16 35 26 29 -4 -11 -64z m-131 -82 c1 -19 6 -38 11 -42
16 -11 -40 -81 -111 -139 -105 -84 -179 -139 -189 -139 -5 0 -22 -11 -39 -25
-32 -27 -89 -55 -110 -55 -7 0 -16 12 -20 28 -3 15 -12 41 -20 57 -28 64 -30
61 67 110 50 25 91 45 92 43 1 -2 0 -33 -2 -70 -4 -67 -4 -68 -32 -68 -15 0
-44 7 -65 16 -26 10 -41 12 -48 5 -7 -7 -6 -12 4 -14 8 -3 32 -10 54 -17 22
-6 54 -10 70 -8 29 3 30 5 33 63 2 33 4 71 5 84 1 22 69 85 170 159 17 12 38
34 45 50 8 15 26 40 41 55 l26 28 8 -43 c5 -24 9 -59 10 -78z m-1092 51 c1 -9
1 -20 0 -24 -1 -4 10 -22 23 -40 13 -18 25 -45 25 -62 0 -53 3 -70 8 -57 9 23
20 12 15 -15 -7 -35 -22 -51 -44 -45 -10 2 -18 -1 -18 -7 0 -6 7 -11 15 -11
18 0 18 1 4 -39 -10 -30 -13 -31 -48 -25 -20 4 -50 15 -68 26 -32 19 -32 19
-17 56 8 20 19 46 25 57 5 11 11 31 13 45 2 14 6 32 9 40 3 8 11 46 18 84 11
62 13 67 25 51 8 -10 15 -26 15 -34z m357 -176 c-30 -57 -122 -149 -157 -158
-28 -7 -26 2 4 33 57 57 135 144 135 151 0 14 -61 -13 -68 -30 -11 -27 -66
-101 -76 -101 -5 0 -14 -8 -21 -17 -11 -15 -13 -9 -9 37 2 35 9 57 19 62 8 5
15 16 15 23 0 10 10 15 29 15 17 0 33 5 36 10 3 6 14 10 23 10 9 1 33 9 52 18
19 10 38 14 41 9 3 -5 -7 -33 -23 -62z m112 -176 c0 -6 6 -25 14 -42 23 -52
35 -96 28 -101 -4 -2 -38 -13 -76 -25 -87 -27 -133 -27 -154 -1 -18 21 -138
78 -127 60 4 -6 34 -25 68 -42 l62 -31 -30 -9 c-50 -15 -274 -13 -324 3 -25 8
-46 19 -48 24 -2 6 17 21 42 34 56 30 51 41 -6 13 -22 -11 -47 -18 -54 -15
-10 3 -12 -2 -8 -16 6 -22 -3 -26 -25 -12 -10 6 -11 17 -4 47 6 21 13 52 16
67 5 22 11 27 24 22 9 -4 58 -15 107 -25 50 -10 99 -21 109 -25 12 -6 17 -5
13 2 -4 6 28 15 86 23 129 17 240 40 252 51 13 12 35 11 35 -2z m76 -241 c7
-25 17 -54 23 -66 6 -11 31 -82 56 -157 25 -74 48 -141 50 -148 4 -9 -102 -13
-485 -15 -269 -1 -490 0 -490 3 0 14 62 267 80 326 11 36 20 73 20 83 0 14 6
16 38 11 56 -10 146 -36 159 -46 13 -12 113 -20 113 -10 0 4 8 7 18 8 9 0 46
6 80 12 35 7 116 16 180 20 71 6 118 14 120 21 8 23 27 2 38 -42z m277 -430
c-2 -5 -8 -8 -14 -8 -5 0 -37 -13 -71 -29 -85 -39 -211 -78 -278 -86 -30 -4
-107 -15 -170 -26 -63 -10 -116 -19 -118 -19 -2 0 0 -5 3 -10 8 -13 -149 -6
-370 16 -156 15 -162 17 -260 64 -127 60 -154 90 -91 102 40 7 1374 3 1369 -4z
m128 -5 c0 -5 2 -44 3 -89 l3 -81 -189 2 c-104 1 -191 5 -194 8 -3 3 13 8 35
12 22 4 45 13 52 21 6 8 15 14 20 14 8 0 211 93 239 110 19 11 30 12 31 3z
m-1547 -82 c28 -16 83 -39 121 -51 39 -12 74 -26 78 -30 4 -4 -54 -6 -129 -5
l-137 3 -3 56 c-1 33 2 56 8 56 6 0 34 -13 62 -29z"/>
<path d="M3192 5875 c-5 -56 -6 -895 -1 -895 18 0 27 764 10 860 -5 25 -9 41
-9 35z"/>
<path d="M5370 7929 c-25 -17 -62 -47 -83 -67 -29 -28 -40 -34 -46 -23 -6 9
-11 10 -15 2 -4 -6 -5 -15 -2 -20 6 -9 -99 -113 -150 -148 -16 -12 -43 -25
-58 -29 -22 -5 -25 -9 -14 -15 13 -7 13 -18 5 -61 -12 -64 -13 -881 -2 -1547
11 -656 12 -1367 2 -1741 -4 -173 -10 -377 -12 -452 -2 -81 1 -136 6 -132 5 3
9 -6 9 -20 0 -14 -4 -26 -10 -26 -5 0 -10 -25 -10 -56 0 -30 4 -53 9 -50 16
10 18 -48 13 -398 -3 -233 0 -346 7 -350 5 -4 8 -13 4 -21 -3 -8 0 -15 6 -15
6 0 11 9 11 20 0 17 4 19 28 13 15 -4 86 -8 157 -8 72 0 132 -3 135 -7 6 -8
446 -12 470 -5 91 29 183 36 195 16 5 -7 13 -4 26 7 10 9 16 20 14 24 -2 4 5
16 16 26 12 11 42 48 67 84 55 78 149 192 168 203 8 4 13 20 13 35 -1 17 -3
20 -6 10 -2 -10 -9 -18 -15 -18 -7 0 -8 23 -3 68 8 73 9 186 1 242 -6 43 -4
-14 -10 398 -3 236 -1 350 6 346 14 -9 85 -165 99 -217 6 -23 28 -94 49 -157
21 -63 69 -209 105 -325 153 -484 219 -681 232 -696 21 -25 16 -29 -44 -29
-41 0 -54 -3 -43 -10 20 -13 608 -13 702 0 40 6 172 11 293 13 l220 2 20 -37
c11 -21 22 -38 25 -38 7 0 4 86 -4 99 -6 9 77 131 90 131 2 0 -2 -13 -11 -30
-9 -17 -19 -30 -23 -30 -4 0 -12 -11 -19 -25 -16 -35 -1 -31 20 5 10 17 22 30
28 30 5 0 14 12 19 26 6 14 19 28 30 31 22 6 27 19 9 25 -7 2 -3 16 10 38 11
19 30 53 42 75 27 51 26 50 43 36 21 -18 -1 48 -63 188 -28 62 -51 117 -51
123 0 5 -11 33 -24 61 -14 29 -57 133 -96 232 -39 99 -91 230 -115 290 -24 61
-51 133 -60 160 -9 28 -20 59 -25 70 -13 31 -40 105 -57 155 -8 25 -21 59 -28
75 -16 38 -65 196 -65 211 0 10 -21 62 -135 332 -12 29 -25 55 -28 59 -4 3 -2
12 4 19 7 8 7 14 -1 19 -5 3 -10 -1 -10 -9 0 -21 -16 -20 -24 0 -7 19 20 54
41 54 7 0 13 5 13 10 0 12 80 103 184 210 77 79 97 105 140 183 18 31 22 47
14 47 -7 0 -18 -10 -24 -23 -30 -59 -89 -148 -116 -173 l-31 -29 34 50 c44 65
129 208 129 217 0 5 4 8 9 8 5 0 7 -9 4 -20 -3 -11 -1 -20 5 -20 8 0 27 53 37
105 2 11 4 20 5 20 1 0 3 7 5 15 1 8 12 44 24 80 23 75 38 178 46 335 3 61 10
166 16 234 6 81 7 127 0 134 -6 6 -6 19 0 35 8 21 7 29 -7 39 -12 8 -13 13 -5
13 13 0 12 19 -5 116 -8 48 -64 216 -89 269 -31 67 -42 111 -25 100 14 -9 14
-8 -23 65 -34 66 -50 92 -101 161 -24 32 -32 49 -21 45 11 -4 15 -2 12 6 -2 7
-11 13 -20 13 -9 0 -22 6 -29 13 -11 11 -9 12 6 6 19 -7 19 -6 -1 22 -60 83
-200 184 -378 273 -77 38 -169 80 -205 92 -36 12 -72 28 -81 36 -12 10 -18 11
-21 3 -3 -11 -65 2 -248 50 -71 18 -249 33 -385 32 -557 -5 -913 -7 -905 -4
12 4 14 22 3 22 -5 0 -28 -14 -53 -31z m495 -34 c39 -2 174 0 300 4 253 9 405
-3 528 -40 38 -11 78 -17 90 -14 17 5 18 4 8 -4 -16 -11 -5 -17 74 -40 41 -13
48 -15 123 -46 51 -22 67 -14 18 9 -46 22 -57 39 -19 30 77 -19 227 -88 397
-184 103 -57 184 -134 243 -229 26 -42 57 -89 69 -106 21 -29 36 -65 39 -95 1
-8 9 -40 19 -70 10 -30 19 -61 22 -68 2 -7 2 -14 1 -16 -1 -1 4 -10 11 -19 8
-9 11 -20 8 -26 -3 -5 -3 -11 1 -13 18 -8 45 -73 58 -140 8 -40 19 -93 24
-118 6 -25 13 -79 16 -120 3 -41 7 -97 10 -123 7 -56 -4 -209 -15 -227 -4 -7
-12 -10 -17 -7 -6 4 -5 31 2 72 7 38 9 68 4 71 -5 3 -6 11 -2 17 11 18 10 40
-4 62 -16 23 -17 39 -3 30 6 -4 10 5 10 19 0 14 -4 26 -9 26 -5 0 -16 3 -25 6
-10 4 -16 1 -16 -8 0 -7 -9 -19 -20 -26 -12 -7 -18 -17 -14 -23 3 -6 -2 -19
-12 -30 -9 -10 -12 -19 -7 -19 13 0 36 28 39 47 2 8 5 17 8 21 14 13 19 -14
20 -102 1 -71 -2 -92 -11 -89 -7 3 -13 9 -13 14 0 5 -4 9 -10 9 -5 0 -10 -7
-10 -15 0 -8 4 -15 8 -15 4 0 7 -18 5 -41 -2 -33 1 -40 13 -35 10 4 14 1 11
-6 -2 -7 -11 -12 -18 -11 -9 2 -15 -5 -15 -17 0 -15 5 -18 18 -14 10 3 18 1
18 -5 0 -6 -6 -11 -12 -11 -9 0 -10 -2 -2 -8 15 -9 -1 -56 -16 -47 -6 4 -10
-6 -10 -24 0 -16 -6 -31 -12 -33 -9 -3 -8 -9 4 -21 19 -20 13 -64 -7 -47 -6 5
-14 7 -17 4 -3 -2 -8 2 -11 11 -4 8 -2 15 4 15 5 0 7 11 3 26 -4 17 -2 29 7
35 11 7 12 11 1 17 -9 6 -10 16 -3 34 7 18 6 29 -2 38 -10 10 -8 12 7 6 19 -7
19 -6 1 14 -11 12 -13 20 -6 20 7 0 9 5 5 12 -5 7 -9 40 -10 74 -1 34 -4 66
-8 72 -3 6 -2 12 3 14 15 5 0 56 -25 83 -26 28 -21 34 8 8 18 -16 19 -16 8 11
-12 34 2 58 28 49 9 -3 14 -3 10 1 -4 5 -3 18 2 31 7 18 5 26 -11 37 -11 7
-21 24 -23 38 -2 14 -6 32 -10 41 -4 9 -6 20 -5 25 3 20 -2 32 -17 38 -12 5
-14 1 -8 -17 9 -28 12 -227 2 -227 -10 0 -25 57 -34 125 -4 33 -8 62 -9 65 -1
3 -5 23 -9 45 -19 104 -89 256 -166 366 -28 38 -50 71 -50 74 0 3 -10 16 -21
28 -12 12 -18 15 -13 7 4 -8 -32 22 -81 68 -143 132 -299 230 -452 283 -65 22
-267 72 -358 88 -160 28 -531 38 -745 20 -112 -9 -682 -31 -686 -26 -2 2 14
17 35 33 62 47 161 132 224 191 l58 56 192 -8 c106 -4 224 -8 262 -10z m461
-280 c182 -20 288 -38 404 -68 122 -32 328 -116 377 -154 21 -16 64 -47 96
-67 54 -36 207 -195 207 -216 0 -5 14 -23 30 -38 17 -16 30 -32 30 -36 0 -5
10 -16 23 -27 16 -13 18 -19 7 -19 -13 -1 -13 -2 1 -13 39 -30 111 -249 140
-422 4 -27 12 -64 17 -82 8 -23 6 -43 -4 -73 -14 -40 -12 -60 6 -60 5 0 7 7 4
15 -4 8 -1 15 5 15 8 0 10 -68 7 -232 -4 -245 -5 -258 -17 -258 -4 0 -5 -18
-3 -40 4 -44 -11 -94 -26 -85 -6 4 -7 12 -4 18 5 9 4 9 -6 0 -10 -9 -10 -15 4
-28 9 -9 14 -20 12 -24 -3 -4 -7 -18 -10 -32 -12 -58 -61 -188 -108 -284 -57
-117 -105 -183 -178 -242 -78 -64 -236 -173 -251 -173 -6 0 -8 -4 -5 -8 7 -12
-28 -49 -56 -58 -21 -8 -20 -9 11 -14 31 -5 36 -11 78 -105 62 -139 145 -345
177 -438 15 -43 70 -179 122 -302 95 -226 117 -291 65 -200 -63 110 -403 748
-461 865 -55 111 -246 458 -327 595 -78 133 -164 305 -151 305 22 0 114 149
137 220 34 110 44 189 42 348 -1 171 -13 232 -65 346 -33 71 -81 129 -166 200
-41 34 -42 36 -11 21 18 -9 30 -12 26 -6 -3 6 -25 21 -48 32 -23 12 -45 27
-49 33 -4 6 -13 11 -20 11 -7 1 -26 7 -43 15 -39 18 -163 22 -250 9 -39 -5
-89 -13 -112 -16 -24 -3 -43 -8 -43 -12 0 -4 13 -6 28 -3 l29 4 -4 -589 c-1
-323 1 -618 5 -655 5 -39 4 -75 -1 -84 -16 -28 13 -35 118 -28 137 8 217 28
303 74 41 22 75 40 78 40 2 0 4 -10 4 -22 0 -12 6 -29 14 -37 8 -9 28 -43 45
-76 17 -33 30 -55 30 -50 0 6 -19 50 -43 100 -25 49 -42 93 -39 98 7 12 25
-16 86 -134 29 -57 106 -200 170 -316 65 -117 120 -220 124 -230 11 -30 231
-440 313 -583 42 -74 128 -229 190 -345 62 -115 123 -226 135 -245 12 -19 43
-89 69 -155 160 -402 172 -435 162 -435 -3 0 -104 197 -224 438 -121 240 -257
507 -302 592 -186 348 -258 485 -362 690 -97 190 -154 291 -116 205 26 -57
258 -510 369 -720 61 -115 251 -489 421 -830 171 -341 320 -632 330 -647 10
-14 18 -35 18 -46 0 -16 -6 -19 -32 -16 -18 1 -70 3 -115 3 -74 1 -81 3 -76
20 3 14 -3 21 -25 29 -35 12 -47 6 -27 -15 19 -19 19 -33 0 -33 -8 0 -15 8
-15 18 0 9 -22 62 -49 118 -53 111 -97 157 -166 175 -24 7 -98 10 -185 7 -167
-5 -190 -13 -244 -84 -42 -55 -53 -96 -34 -127 8 -12 19 -34 25 -48 10 -22 9
-26 -4 -25 -24 2 -27 -21 -4 -29 29 -9 26 -25 -3 -25 -27 0 -30 9 -42 111 -4
37 -2 59 5 63 16 10 14 36 -3 36 -18 0 -28 -55 -25 -143 2 -64 0 -72 -17 -75
-16 -2 -23 10 -43 75 -13 43 -68 211 -121 373 -54 162 -117 356 -140 430 -23
74 -48 155 -56 180 -40 119 -84 282 -85 312 -1 18 -5 47 -10 63 -6 23 -7 16
-4 -27 2 -32 0 -58 -5 -58 -8 0 -82 147 -94 185 -8 29 -17 295 -10 306 3 6 12
5 21 -3 13 -10 15 -9 12 7 -3 13 -14 21 -33 23 l-29 4 6 -127 c8 -150 2 -155
-59 -41 -24 45 -66 103 -100 137 -54 55 -60 58 -68 39 -5 -11 -15 -20 -22 -20
-20 0 -27 -19 -14 -36 10 -11 13 -217 12 -902 l-1 -887 -179 -3 -179 -3 -24
36 c-42 62 -73 70 -254 70 -158 0 -161 0 -219 -30 -32 -16 -61 -38 -64 -47 -5
-21 -28 -24 -34 -5 -2 6 -3 197 -2 423 l2 411 116 229 c64 126 134 263 157
304 22 41 82 152 131 245 50 94 99 185 110 203 11 17 17 32 14 32 -6 0 -92
-144 -149 -250 -25 -47 -75 -139 -111 -205 -37 -66 -104 -195 -151 -287 -46
-91 -94 -181 -105 -200 l-21 -33 7 70 c8 81 26 121 162 355 50 85 123 213 164
283 40 71 158 273 262 450 104 177 213 365 244 417 30 52 64 111 75 130 l20
35 -21 -20 c-19 -18 -63 -88 -300 -480 -150 -247 -241 -404 -413 -705 -92
-162 -175 -304 -183 -315 -21 -27 -21 -106 -11 1365 7 924 7 942 -1 1395 -3
209 -7 490 -8 625 -1 135 -4 251 -7 259 -7 22 39 29 126 19 75 -9 292 -4 535
12 199 13 484 10 626 -5z m34 -827 c90 -23 250 -209 294 -341 43 -130 47 -359
10 -508 -35 -138 -39 -141 -176 -180 -95 -27 -229 -25 -212 3 12 19 1 983 -12
1026 -7 25 -6 25 96 0z m-281 -492 c-3 -63 0 -75 19 -94 26 -26 32 -27 32 -7
0 8 -4 15 -10 15 -5 0 -14 9 -20 20 -6 12 -7 20 -1 20 5 0 11 -7 13 -15 2 -10
8 -12 17 -6 12 8 12 12 -2 26 -10 9 -17 21 -17 26 0 6 7 3 16 -5 8 -9 20 -16
25 -16 14 0 11 -28 -3 -33 -10 -3 -10 -7 -1 -19 7 -8 10 -18 6 -22 -11 -10
-12 -86 -2 -92 5 -3 9 4 9 15 0 10 6 21 13 24 9 3 9 7 -2 20 -8 11 -10 23 -5
34 4 10 8 33 9 50 1 18 5 32 11 30 12 -3 5 -81 -7 -85 -6 -2 -3 -14 5 -27 13
-20 13 -24 1 -29 -9 -3 -15 -9 -14 -13 3 -21 -2 -33 -15 -33 -8 0 -13 -11 -13
-27 0 -16 2 -22 4 -15 3 6 11 12 19 12 8 0 14 7 14 15 0 9 6 12 15 8 13 -5 13
-8 -5 -20 -11 -8 -20 -20 -20 -28 0 -9 -6 -12 -15 -8 -13 4 -16 -2 -14 -38 2
-24 7 -47 13 -51 7 -5 6 -8 -2 -8 -7 0 -11 -4 -8 -9 3 -4 8 -35 11 -67 4 -32
8 -67 11 -76 3 -11 0 -18 -8 -18 -9 0 -10 -3 -2 -8 6 -4 15 -17 19 -30 6 -19
-2 -32 -40 -70 -26 -25 -54 -57 -63 -69 -8 -13 -17 -21 -21 -18 -10 11 1 674
12 693 3 4 2 15 -2 24 -9 26 -1 109 11 102 5 -3 8 -38 7 -78z m1164 -1363 c7
-16 45 -89 83 -163 65 -127 113 -226 182 -381 16 -37 35 -70 41 -73 7 -4 9
-16 6 -27 -4 -10 -2 -19 3 -19 6 0 12 5 14 11 4 12 41 -21 111 -101 26 -30 45
-61 42 -67 -2 -7 -1 -13 4 -13 5 0 11 -10 15 -22 5 -18 8 -20 15 -9 7 10 14 1
30 -34 12 -26 21 -50 21 -54 0 -11 59 -163 84 -216 62 -132 126 -284 126 -299
0 -10 -5 -14 -12 -10 -7 4 -8 3 -4 -5 4 -6 11 -9 16 -6 4 3 13 -2 20 -10 7 -8
9 -15 6 -15 -4 0 -2 -10 5 -21 8 -16 8 -23 0 -29 -8 -5 -7 -17 5 -45 12 -30
18 -35 25 -24 7 10 8 7 4 -11 -5 -19 0 -31 19 -48 15 -12 26 -32 26 -43 0 -21
-1 -22 -20 -4 -11 10 -39 52 -62 94 -23 42 -43 71 -45 65 -8 -25 110 -199 128
-188 26 16 8 -13 -103 -163 -38 -51 -73 -104 -78 -119 -13 -34 -23 -24 -45 46
-10 30 -21 60 -25 65 -4 6 -10 19 -12 30 -3 11 -9 28 -13 38 -6 14 -4 16 11
10 17 -6 17 -5 5 11 -25 30 -93 170 -97 199 -2 15 -15 49 -29 75 -14 26 -25
50 -25 54 0 4 -5 19 -11 35 -7 15 -13 38 -15 50 -1 13 -12 40 -22 60 -28 52
-88 198 -118 285 -14 40 -31 87 -39 103 -7 17 -39 93 -69 170 -31 77 -61 149
-66 160 -15 34 -70 191 -70 201 0 5 4 2 10 -6 21 -34 16 -1 -8 53 -15 33 -30
56 -33 52 -4 -3 -10 -1 -15 6 -4 8 -3 10 4 5 7 -4 12 -5 12 -1 0 12 -63 130
-74 137 -6 4 -7 8 -2 8 5 0 3 6 -3 13 -6 8 -8 17 -4 20 3 4 1 7 -5 7 -13 0
-60 97 -69 143 -5 24 -3 28 12 26 12 -3 22 -21 32 -59 7 -30 27 -80 44 -110
28 -51 51 -100 101 -210 33 -72 57 -141 47 -134 -17 10 -9 -9 13 -33 14 -15
17 -23 8 -23 -9 0 -7 -5 6 -16 10 -8 13 -12 5 -8 -16 8 -11 -12 30 -111 16
-38 29 -73 29 -78 0 -16 52 -118 58 -113 3 3 11 1 19 -5 17 -15 17 -8 -2 27
-12 24 -15 26 -16 9 0 -14 -2 -15 -5 -5 -10 30 -61 158 -72 180 -5 8 -5 29 -2
45 6 27 8 24 30 -42 13 -40 27 -73 31 -73 8 0 0 31 -24 95 -8 22 -20 65 -27
95 -6 30 -14 63 -17 74 -3 12 -1 16 6 12 6 -4 11 -2 11 3 0 6 -7 11 -16 11
-11 0 -14 5 -10 17 4 9 2 19 -4 23 -6 4 -13 24 -15 46 -3 21 -10 41 -15 42 -6
2 -7 8 -4 14 4 6 3 13 -2 17 -5 3 -33 53 -63 111 -29 58 -63 124 -76 147 -15
28 -19 44 -11 47 6 2 2 5 -9 5 -17 1 -17 3 -5 11 8 5 16 10 17 10 1 0 8 -12
16 -27z m257 -387 c0 -4 14 -37 31 -72 19 -40 36 -64 47 -65 11 0 12 -3 4 -6
-9 -3 -7 -12 8 -33 13 -18 26 -27 35 -23 9 3 15 -1 15 -8 0 -22 34 -88 48 -91
15 -4 65 -108 52 -108 -5 0 -21 17 -35 38 -13 20 -54 63 -90 95 -36 32 -65 62
-65 67 0 5 -16 42 -35 83 -39 83 -66 163 -57 172 7 6 41 -34 42 -49z m-1325
-663 c1 -63 12 -198 22 -252 5 -27 3 -32 -8 -26 -11 6 -12 5 -1 -6 6 -7 12
-21 12 -30 0 -10 5 -21 10 -24 8 -5 9 7 4 37 -3 23 -8 84 -10 133 -1 50 -4 97
-5 105 -4 25 1 74 6 69 7 -7 14 -70 20 -169 3 -47 7 -92 10 -100 2 -8 7 -46
10 -85 5 -63 5 -68 -9 -50 -13 18 -14 16 -6 -20 4 -22 11 -52 15 -67 4 -16 5
-28 1 -28 -9 0 -36 58 -36 78 0 11 -6 22 -14 25 -8 3 -16 31 -20 74 -11 105
-18 393 -9 393 4 0 8 -26 8 -57z m-29 -179 c6 -136 20 -227 34 -232 6 -2 10
-18 10 -36 0 -19 8 -38 20 -49 11 -9 20 -29 21 -44 1 -62 11 -107 24 -117 7
-6 15 -27 16 -47 3 -36 -14 -67 -68 -124 -11 -11 -28 -33 -37 -48 -27 -40 -33
-33 -30 28 2 30 -1 57 -5 60 -11 6 -21 -50 -17 -100 2 -29 -4 -52 -23 -82 -28
-46 -48 -57 -36 -20 3 12 6 46 5 75 -1 37 2 52 10 47 6 -4 9 -21 6 -41 -3 -19
-2 -34 3 -34 17 0 23 134 21 468 -1 134 1 246 4 250 3 3 7 -17 8 -44 1 -27 3
-62 4 -79 1 -16 3 -102 4 -190 1 -88 6 -178 11 -200 5 -24 6 110 3 325 -5 358
1 469 12 234z m1279 -603 c23 -16 62 -62 71 -84 5 -13 1 -13 -33 -2 -45 17
-347 20 -387 5 -23 -9 -26 -7 -32 25 -8 45 -1 62 28 68 13 3 93 4 178 4 113
-2 160 -6 175 -16z m47 -112 c21 -11 68 -106 68 -138 0 -17 -16 -19 -234 -26
-227 -7 -235 -7 -256 13 -21 19 -21 24 -10 79 7 32 17 64 22 71 14 16 379 17
410 1z m-1908 -108 c27 -26 33 -41 16 -41 -5 0 -10 8 -11 18 0 15 -2 14 -15
-4 -13 -19 -19 -20 -67 -11 -29 5 -122 7 -209 4 -87 -3 -158 -2 -158 2 0 11
68 40 120 51 25 5 102 8 172 7 119 -2 128 -3 152 -26z"/>
<path d="M6406 5378 c-16 -23 -22 -114 -8 -134 8 -11 136 -13 148 -2 4 4 13 3
20 -3 8 -6 21 -8 30 -5 25 10 13 87 -20 131 -26 34 -30 35 -91 35 -55 0 -66
-3 -79 -22z"/>
<path d="M5960 5293 c-16 -27 -30 -62 -30 -80 0 -34 25 -67 42 -57 17 10 132
13 143 4 20 -17 36 7 41 61 4 43 1 61 -15 87 -20 31 -23 32 -86 32 l-65 0 -30
-47z"/>
<path d="M6531 4781 c-43 -8 -64 -24 -108 -88 -35 -51 -1 -310 43 -327 19 -7
44 3 44 19 0 20 14 26 48 19 23 -5 30 -11 27 -25 -4 -17 1 -21 23 -18 4 1 6 5
5 10 -2 5 7 9 20 8 12 0 16 -3 9 -6 -6 -2 -10 -9 -6 -14 7 -12 44 -12 44 1 0
5 20 8 48 5 26 -2 38 -2 27 1 -31 9 -42 23 -25 34 25 16 50 12 50 -9 0 -26 13
-33 44 -25 19 4 27 15 32 40 3 19 10 37 15 40 17 10 9 67 -17 115 -21 38 -24
52 -15 62 9 12 6 18 -14 31 -13 9 -34 34 -45 56 -11 22 -32 47 -45 56 -29 19
-136 27 -204 15z m186 -81 c27 0 37 -6 53 -32 11 -18 20 -36 20 -40 0 -5 -67
-8 -150 -8 -163 0 -159 -1 -144 57 7 26 40 33 128 27 32 -2 74 -4 93 -4z m106
-124 c25 -35 32 -100 12 -116 -17 -14 -324 -22 -361 -9 -15 5 -23 19 -27 46
-4 21 -9 53 -13 71 -5 26 -4 31 9 26 8 -3 17 -2 20 3 3 4 81 7 173 6 167 -2
169 -2 187 -27z"/>
<path d="M5616 4510 c-54 -10 -88 -36 -107 -83 -17 -44 -38 -67 -63 -68 -17
-1 -18 -2 -3 -6 23 -6 22 -15 -13 -76 -19 -35 -30 -68 -30 -93 0 -53 48 -148
77 -152 16 -2 22 3 25 20 3 23 4 23 151 24 147 0 149 0 158 -23 10 -26 40 -30
59 -8 7 9 14 34 15 57 2 30 9 48 27 63 23 19 25 30 27 104 2 81 1 85 -39 152
-22 38 -50 74 -62 80 -27 15 -160 20 -222 9z m179 -76 c18 -7 45 -54 45 -79 0
-13 -23 -15 -165 -15 -184 0 -186 1 -145 68 l20 32 114 0 c63 0 122 -3 131 -6z
m119 -103 c7 -11 -11 -73 -24 -81 -5 -3 -14 -27 -19 -54 -5 -26 -17 -53 -27
-61 -24 -17 -180 -29 -296 -23 -94 6 -128 22 -128 60 0 19 10 23 26 9 14 -14
54 -23 54 -13 0 5 -12 12 -27 15 -54 12 -58 20 -32 68 30 56 49 80 60 74 4 -3
86 -5 182 -6 l175 0 -3 -32 c-2 -18 -3 -35 -4 -39 -1 -5 -10 -17 -21 -28 -11
-11 -15 -20 -10 -20 21 0 9 -19 -17 -28 -28 -10 -27 -10 10 -11 20 -1 36 2 35
7 -2 10 22 122 33 150 9 23 24 29 33 13z"/>
<path d="M8404 7949 c-2 -4 32 -9 76 -11 44 -3 83 -8 87 -11 4 -4 -38 -53 -93
-110 -55 -56 -114 -119 -131 -139 -21 -24 -38 -36 -47 -32 -14 5 -15 -70 -12
-702 3 -390 9 -785 15 -879 7 -93 12 -422 14 -730 3 -753 -13 -2197 -24 -2211
-5 -6 -6 -13 -3 -16 3 -3 7 -67 9 -142 2 -74 6 -140 10 -146 4 -6 -12 -10 -42
-11 -36 0 -43 -3 -28 -9 11 -5 33 -9 48 -9 18 -1 26 -5 21 -12 -4 -7 -22 -9
-45 -6 -22 3 -39 1 -39 -4 0 -5 20 -9 45 -9 29 0 45 -4 46 -12 1 -7 2 -22 3
-33 1 -11 3 -30 4 -42 1 -13 7 -23 13 -23 7 0 10 20 9 53 -2 28 -2 57 -1 62 1
6 78 10 209 11 709 2 947 2 1022 -2 202 -9 465 -12 380 -4 -47 4 -116 9 -155
9 -49 1 -65 4 -55 11 9 6 157 10 355 11 187 0 381 2 430 4 50 2 114 3 143 4
38 1 52 5 50 14 -3 7 -34 14 -84 18 l-79 5 96 2 c52 1 99 6 105 11 5 6 24 6
44 1 l35 -8 -35 -1 c-39 -1 -69 -16 -57 -28 14 -14 54 -13 66 1 7 8 22 12 34
9 17 -4 19 -3 7 6 -23 16 -7 23 62 26 43 3 70 -1 85 -11 28 -18 33 -18 33 1 0
9 9 15 21 15 12 0 19 5 16 13 -2 6 -15 11 -29 9 -15 -2 -29 2 -33 7 -3 6 1 11
11 11 36 0 5 11 -42 15 -27 2 -78 9 -114 16 -36 7 -101 13 -144 13 -59 1 -80
5 -84 15 -4 12 9 13 74 7 44 -5 138 -9 209 -11 125 -3 128 -3 85 11 -25 8 -61
14 -80 13 -51 -2 -57 0 -40 11 8 5 50 9 93 8 43 -1 82 3 87 8 6 6 2 10 -13 10
-166 1 -249 6 -231 14 22 9 124 21 243 28 39 3 19 12 -40 17 -30 3 -79 9 -109
13 -30 4 -90 8 -132 7 -43 0 -78 3 -78 7 0 4 16 19 35 34 73 55 155 178 227
339 28 63 81 219 93 276 4 19 11 39 15 44 5 6 10 28 13 50 2 22 9 58 15 80 17
62 52 248 52 276 0 14 5 30 12 37 18 18 13 386 -6 443 -3 8 -7 28 -10 44 -2
17 -12 68 -22 115 -9 47 -18 94 -20 105 -1 11 -3 20 -4 20 -1 0 -4 11 -6 25
-3 13 -23 61 -46 106 l-41 82 22 23 c20 21 20 24 5 27 -9 2 -20 -2 -25 -9 -4
-7 -10 -11 -12 -9 -2 3 -13 19 -25 35 -77 105 -152 198 -169 211 -16 11 -14
14 19 34 33 19 58 47 136 152 23 32 28 48 15 48 -5 0 -18 -18 -31 -40 -12 -22
-26 -40 -31 -40 -5 0 -20 -12 -35 -27 l-27 -27 3 24 c2 14 -1 26 -7 28 -5 1
-10 -3 -10 -8 0 -6 -4 -14 -10 -18 -5 -4 -27 -26 -47 -49 -21 -24 -40 -38 -44
-32 -3 6 1 16 9 22 28 23 80 110 138 232 32 69 59 128 59 133 0 5 9 17 20 27
17 15 24 16 46 6 15 -6 41 -9 59 -5 28 5 39 1 60 -20 22 -22 24 -30 15 -41 -7
-8 -9 -15 -4 -15 5 0 1 -5 -8 -11 -9 -5 -15 -16 -12 -23 3 -8 -8 -29 -25 -48
l-30 -33 31 -32 31 -32 -29 -23 c-60 -46 -169 -160 -157 -165 9 -3 9 -12 2
-30 l-10 -26 28 18 c16 10 39 28 53 40 33 30 140 88 140 76 0 -24 -14 -41 -35
-41 -31 0 -37 -12 -25 -44 9 -26 9 -26 -38 -26 -43 0 -52 -4 -92 -45 -53 -54
-44 -59 16 -10 41 34 74 45 74 25 0 -5 -21 -30 -46 -55 -28 -27 -41 -45 -32
-45 9 0 19 8 22 17 6 14 9 15 16 4 10 -18 40 -7 40 15 0 22 73 119 105 140 22
14 30 28 37 59 1 6 10 19 20 29 10 11 18 23 18 27 0 4 -23 26 -50 49 -78 66
-80 75 -30 157 43 71 16 123 -67 129 -21 1 -40 2 -42 3 -2 1 3 9 11 19 9 9 18
40 21 67 2 28 13 71 23 97 18 45 18 47 0 67 -10 11 -33 27 -51 36 l-34 15 6
119 c6 124 -3 158 -29 101 -7 -16 -15 -30 -18 -30 -12 0 -40 112 -40 163 0 46
4 59 21 71 19 13 21 22 17 71 -6 71 7 82 16 12 10 -77 17 -97 31 -97 13 0 25
43 25 93 0 17 -9 64 -21 105 -21 77 -19 99 7 66 14 -18 15 -17 8 16 -3 19 -16
53 -29 75 -23 40 -48 107 -51 135 -1 8 -7 29 -14 45 -7 17 -12 34 -11 38 1 4
-10 23 -24 41 -14 19 -25 38 -23 42 4 17 -40 90 -84 137 -24 26 -42 47 -39 47
4 0 27 -11 54 -25 72 -39 56 -21 -23 25 -39 23 -94 65 -123 95 -57 58 -88 78
-234 151 -51 25 -93 48 -93 51 0 2 15 2 33 -1 l32 -6 -35 14 c-22 8 -37 9 -41
3 -4 -5 -8 -4 -11 3 -4 13 -296 93 -398 110 -30 5 -84 14 -120 20 -35 6 -75 9
-87 5 -13 -3 -23 -1 -23 5 0 5 -5 10 -11 10 -5 0 -8 -4 -5 -9 3 -5 -76 -6
-182 -4 -291 8 -1083 9 -1088 2z m691 -40 c242 -4 460 -11 485 -14 25 -3 90
-6 145 -7 55 0 105 -5 111 -9 6 -5 31 -12 55 -15 79 -10 91 -13 114 -28 12 -8
32 -12 43 -9 27 7 227 -51 317 -92 39 -18 102 -53 141 -78 80 -52 230 -204
271 -275 15 -26 42 -67 59 -92 43 -61 84 -180 128 -372 10 -45 -12 -32 -26 15
-6 23 -15 44 -18 47 -3 3 -14 27 -25 54 -11 27 -27 52 -35 54 -12 4 -13 2 -4
-9 6 -8 18 -41 28 -74 9 -33 24 -75 32 -93 16 -37 19 -61 5 -47 -5 6 -25 55
-45 110 -20 55 -43 112 -51 127 -11 20 -12 27 -3 30 18 6 -166 193 -237 241
-33 23 -60 39 -60 37 0 -2 -33 15 -72 39 -77 46 -213 105 -221 96 -3 -3 44
-28 104 -56 60 -28 131 -67 158 -86 26 -19 45 -29 41 -22 -5 7 -3 10 6 7 8 -3
13 -11 11 -17 -3 -16 49 -60 71 -61 10 0 15 -4 12 -10 -3 -5 0 -10 7 -10 18 0
90 -74 86 -87 -2 -5 11 -32 28 -59 58 -90 153 -309 139 -322 -2 -3 -8 4 -11
14 -38 107 -156 306 -223 377 -118 125 -379 295 -556 361 -126 48 -304 75
-510 77 -27 0 -297 -5 -600 -11 -302 -7 -570 -11 -595 -11 -43 1 -44 0 -25
-15 16 -12 34 -14 83 -10 47 5 62 3 62 -6 0 -9 3 -8 10 2 5 8 10 11 10 5 0 -7
204 -10 592 -10 578 0 688 -5 808 -34 293 -73 458 -152 626 -303 111 -99 194
-236 264 -438 18 -52 41 -112 51 -132 11 -21 19 -45 19 -54 0 -10 5 -32 12
-51 14 -39 5 -52 -20 -29 -15 13 -18 26 -14 65 4 44 2 50 -26 70 -34 24 -55
26 -117 10 -43 -11 -45 -10 -75 20 -18 17 -40 31 -51 31 -27 0 -23 -17 6 -24
24 -6 36 -26 16 -26 -28 0 -60 21 -55 35 4 9 0 15 -9 15 -14 0 -14 3 -1 28 19
37 18 41 -15 94 -24 38 -28 53 -24 87 7 50 -11 75 -75 103 -40 18 -45 18 -61
4 -25 -23 -79 -37 -84 -23 -2 7 -12 5 -27 -6 -34 -24 -49 -21 -61 11 -6 15
-20 38 -33 52 -12 14 -28 44 -35 68 -10 35 -16 42 -37 42 l-26 0 26 -31 c14
-17 26 -43 26 -57 0 -18 7 -31 21 -37 12 -6 27 -26 33 -45 l11 -35 65 3 c36 2
74 9 85 16 11 7 36 16 55 20 30 5 40 2 68 -23 36 -34 41 -60 12 -68 -19 -5
-18 -6 5 -38 14 -17 25 -37 25 -43 0 -6 6 -12 13 -15 8 -3 4 -13 -12 -31 -26
-27 -21 -37 6 -11 8 9 18 13 22 10 3 -4 -2 -11 -11 -16 -9 -5 -27 -23 -39 -40
l-22 -31 22 7 c27 8 65 -30 55 -54 -3 -9 -6 -23 -7 -31 0 -8 -4 -21 -10 -27
-11 -15 -2 -17 22 -3 13 6 17 17 14 33 -6 33 10 41 46 22 35 -17 93 -20 122
-4 15 8 31 6 64 -7 61 -23 71 -36 50 -68 -16 -24 -16 -28 -1 -51 9 -14 21 -25
26 -25 20 0 9 -20 -20 -35 -37 -19 -37 -29 -4 -60 l26 -24 -31 -15 c-39 -21
-58 -21 -41 -1 16 19 -76 -20 -105 -45 -11 -9 -46 -34 -77 -54 -67 -44 -74
-60 -20 -50 45 8 110 36 94 42 -6 2 -24 -4 -41 -13 -17 -8 -31 -11 -31 -6 0 9
90 51 110 51 6 0 8 -5 4 -12 -5 -7 -1 -9 12 -6 23 6 48 -17 40 -38 -3 -8 0
-14 7 -14 7 0 19 -16 27 -35 9 -24 17 -32 24 -25 5 5 20 10 33 10 21 0 23 -4
23 -56 0 -31 -9 -96 -21 -145 -23 -100 -33 -107 -83 -61 -32 29 -20 7 22 -40
19 -21 23 -34 19 -57 -14 -69 -129 -272 -162 -285 -22 -8 -26 9 -7 30 39 44
47 59 17 34 -17 -14 -34 -31 -38 -37 -4 -7 -14 -13 -21 -13 -19 0 -29 31 -15
44 8 8 13 8 16 -1 2 -7 14 -2 30 13 14 13 33 24 41 24 8 0 12 3 9 7 -4 3 3 17
15 30 27 29 10 30 -26 2 -14 -11 -26 -18 -26 -14 0 3 -5 3 -11 -1 -8 -4 -7 -9
2 -16 10 -7 9 -8 -5 -4 -13 5 -28 -2 -46 -19 l-26 -25 -43 21 c-31 15 -46 18
-54 10 -8 -8 -4 -11 15 -11 17 0 35 -11 51 -30 14 -16 29 -30 34 -30 4 -1 21
-11 37 -24 27 -23 28 -24 11 -49 -20 -31 -162 -149 -217 -180 -42 -24 -47 -35
-20 -44 50 -18 102 -45 102 -53 0 -6 7 -10 15 -10 14 0 55 -37 55 -51 0 -4
-14 -12 -31 -18 -17 -6 -48 -24 -69 -41 -38 -30 -70 -39 -70 -19 0 6 -7 9 -15
6 -8 -4 -17 -2 -20 3 -12 20 -58 9 -143 -36 -48 -25 -105 -63 -127 -85 -58
-56 -64 -48 -7 9 48 48 166 122 227 142 28 9 38 8 58 -4 22 -15 25 -15 40 2
16 17 14 19 -24 36 -30 14 -38 21 -28 27 22 14 1 10 -22 -3 -17 -10 -23 -10
-26 0 -3 6 -11 12 -19 12 -22 0 -17 16 14 40 19 15 21 18 5 10 -12 -5 -25 -15
-28 -20 -3 -6 -14 -10 -22 -10 -13 0 -9 8 13 31 25 27 26 30 6 20 -12 -7 -27
-9 -33 -6 -5 4 -16 2 -24 -5 -11 -9 -12 -7 -7 12 3 13 13 28 21 35 24 18 4 16
-25 -3 -20 -14 -23 -14 -19 -2 8 21 51 39 72 31 15 -5 16 -3 6 8 -18 18 -17
23 14 59 l27 32 -45 -31 -44 -31 -37 17 c-43 21 -46 30 -17 67 24 31 18 47 -8
25 -23 -19 -74 -41 -80 -35 -3 3 5 20 18 38 l23 33 -25 -20 c-13 -11 -27 -24
-31 -30 -4 -5 -10 -6 -14 -2 -4 3 -1 13 6 22 17 20 1 19 -22 -2 -30 -27 -22 3
27 95 26 46 45 86 43 87 -2 2 -28 -35 -58 -81 -54 -83 -70 -98 -70 -69 0 21
-18 19 -23 -2 -3 -12 -5 -9 -6 8 0 14 2 29 6 32 12 13 42 87 34 87 -4 0 -20
-28 -36 -62 -36 -78 -34 -75 -45 -58 -7 12 -12 12 -28 -3 -16 -15 -21 -15 -31
-3 -13 15 12 91 50 152 10 17 19 35 19 39 0 15 -41 -44 -63 -92 -30 -65 -37
-74 -48 -68 -5 4 -5 14 1 26 13 23 2 25 -15 2 -11 -15 -15 -14 -39 10 -15 15
-31 25 -36 22 -5 -3 -11 -1 -15 5 -7 12 -35 14 -35 2 0 -4 18 -18 39 -32 22
-13 45 -34 52 -47 11 -21 9 -27 -21 -58 -42 -43 -70 -53 -83 -30 -7 14 -11 15
-17 4 -5 -7 -16 -14 -25 -15 -15 -2 -17 4 -11 44 l6 47 -41 -43 c-43 -45 -46
-47 -49 -22 -4 27 0 40 11 40 8 0 8 -5 -1 -15 -7 -9 -8 -15 -2 -15 13 0 24 29
16 42 -8 12 -44 -20 -44 -39 0 -8 -5 -11 -12 -7 -7 4 -8 3 -4 -5 4 -7 -2 -19
-16 -30 -56 -46 -41 18 22 95 27 32 47 61 45 63 -2 2 -17 -11 -32 -29 -38 -45
-86 -90 -97 -90 -5 0 -18 -7 -28 -17 -28 -25 -33 -8 -8 27 l23 32 -31 -16
c-36 -18 -46 -32 -32 -41 5 -3 10 -10 10 -15 0 -14 -32 0 -62 28 -29 27 -35
20 -18 -22 7 -19 6 -29 -6 -41 -27 -26 -52 -36 -57 -22 -4 9 -8 8 -16 -3 -15
-21 -25 -5 -11 19 6 12 8 21 5 21 -14 0 -65 -31 -65 -40 0 -6 -9 -10 -20 -10
-26 0 -25 15 1 41 11 11 18 23 15 26 -3 3 -22 -12 -43 -33 -21 -21 -43 -37
-49 -36 -6 1 -18 -6 -25 -15 -13 -16 -12 -17 4 -4 28 22 46 -2 22 -29 -10 -11
-14 -20 -8 -20 5 0 18 9 28 20 14 15 22 17 37 9 35 -19 146 -3 184 26 18 14
37 25 41 24 20 -3 27 2 13 11 -11 7 -5 10 25 10 l39 0 -44 -46 c-25 -25 -71
-64 -104 -87 -32 -23 -70 -52 -84 -64 -37 -34 -68 -29 -115 18 -40 40 -42 41
-78 29 -46 -16 -83 -5 -76 21 4 15 2 17 -10 10 -9 -5 -17 -19 -19 -33 -2 -21
1 -24 34 -22 48 2 58 -5 35 -22 -10 -7 -13 -14 -7 -14 6 0 19 9 29 20 10 11
22 20 27 20 5 0 31 -20 57 -45 26 -25 54 -45 61 -45 6 0 -2 -17 -20 -37 -29
-33 -31 -38 -16 -48 15 -11 14 -15 -5 -39 -11 -14 -16 -26 -10 -26 5 0 13 5
16 10 9 14 62 41 93 46 22 4 24 3 12 -11 -11 -13 -15 -13 -21 -3 -8 12 -13 4
-10 -14 0 -5 -3 -8 -9 -8 -21 0 -26 -1 -48 -16 -13 -9 -30 -13 -38 -10 -8 3
-14 2 -14 -2 0 -4 -26 -27 -58 -50 -32 -23 -69 -57 -82 -75 l-23 -32 29 26
c78 71 190 140 232 145 13 2 35 10 48 19 13 8 24 11 24 5 0 -6 -12 -15 -27
-21 -114 -46 -157 -71 -237 -141 -24 -21 -50 -38 -59 -38 -9 0 -19 -4 -22 -10
-8 -13 -25 -13 -25 0 0 17 63 82 127 130 45 34 59 50 48 54 -16 6 -53 -24
-169 -136 -39 -38 -75 -68 -80 -68 -6 0 -5 5 2 12 22 22 12 32 -11 10 -27 -26
-47 -28 -47 -7 0 8 3 15 8 15 4 0 22 14 40 31 17 16 36 28 41 25 5 -3 35 22
67 55 33 33 96 92 142 131 45 39 80 73 78 75 -6 7 -146 -108 -209 -172 -29
-30 -46 -42 -42 -30 4 12 -12 2 -41 -27 -26 -26 -62 -54 -80 -63 -42 -20 -50
-32 -31 -53 7 -9 17 -25 21 -36 4 -13 11 -16 24 -11 9 4 28 10 42 13 14 2 30
8 35 12 6 5 31 8 57 8 30 -1 55 5 65 14 10 8 31 18 47 22 24 6 34 2 61 -24 28
-27 35 -30 52 -20 11 7 24 22 29 34 6 14 17 20 32 19 13 -2 21 1 18 6 -7 10
62 66 71 58 11 -11 -75 -87 -91 -81 -9 3 -16 1 -16 -4 0 -6 9 -14 20 -17 27
-9 25 -23 -5 -31 -25 -6 -32 -18 -16 -28 5 -3 25 6 46 19 29 20 44 24 71 19
19 -3 34 -11 34 -18 1 -6 0 -130 -1 -276 -2 -300 -1 -526 3 -745 l3 -150 33
-3 c17 -2 32 -7 32 -11 0 -14 -61 -95 -114 -149 -28 -30 -72 -64 -98 -78 -26
-13 -50 -29 -54 -35 -4 -6 -34 -25 -68 -41 -52 -25 -56 -28 -26 -23 19 3 77
26 129 52 141 72 249 190 290 318 35 107 68 319 76 475 6 141 34 326 57 376 5
12 10 97 11 190 2 144 -1 175 -16 209 -11 25 -68 88 -150 167 -104 100 -129
130 -120 139 10 10 21 4 55 -25 24 -20 72 -58 107 -84 62 -45 127 -123 152
-184 11 -27 29 -38 29 -18 0 5 -13 32 -30 60 -16 28 -30 53 -30 56 0 3 -9 19
-20 34 -14 20 -17 31 -9 36 8 5 8 8 0 13 -8 5 -6 14 7 29 11 12 21 22 24 22 8
0 25 -73 27 -115 2 -48 19 -105 32 -105 12 0 12 66 0 127 -6 26 -12 77 -16
113 -7 81 -9 98 -18 106 -11 12 -8 24 6 24 7 0 22 -17 32 -37 14 -30 19 -34
23 -19 2 10 -1 23 -7 29 -15 15 -14 39 3 71 13 26 14 26 24 -36 10 -59 17
-106 27 -188 3 -19 7 -51 10 -70 5 -34 5 -34 -11 -15 -16 20 -16 19 -10 -5 3
-14 9 -42 12 -62 4 -25 12 -38 23 -39 10 0 11 -2 4 -6 -20 -8 -15 -103 6 -103
4 0 5 19 4 43 l-2 42 9 -35 c5 -19 7 -43 4 -52 -3 -10 -1 -18 3 -18 8 0 43 98
43 121 0 6 23 42 50 81 50 68 138 229 175 318 l18 45 8 -55 c5 -41 4 -61 -8
-83 -21 -42 -9 -44 22 -2 16 20 42 46 59 58 l31 22 -28 -34 c-17 -20 -27 -42
-24 -53 3 -11 0 -18 -8 -18 -19 0 -61 -57 -140 -190 -38 -63 -71 -117 -74
-120 -15 -13 -38 -67 -33 -79 2 -8 0 -11 -5 -8 -5 3 -15 -15 -22 -39 -9 -29
-18 -43 -26 -40 -9 3 -20 -19 -36 -67 -12 -40 -29 -85 -36 -100 -8 -16 -21
-59 -30 -95 -8 -37 -21 -92 -28 -124 -7 -31 -16 -62 -20 -68 -4 -6 -7 -89 -7
-184 0 -173 15 -316 34 -316 6 0 7 8 3 17 -12 33 -17 93 -7 93 5 0 12 -17 15
-37 3 -21 8 -48 12 -61 5 -16 3 -22 -8 -22 -20 0 -14 -55 20 -170 38 -134 63
-193 92 -218 14 -12 33 -29 41 -37 11 -9 36 -13 80 -12 54 1 72 -3 111 -26 77
-45 99 -30 27 19 -24 16 -49 35 -56 41 -7 7 -18 13 -24 13 -6 0 -9 3 -6 6 4 3
45 -13 91 -35 47 -23 91 -41 97 -41 6 0 18 -6 26 -14 7 -8 23 -12 34 -9 24 6
21 12 -10 18 -12 2 -29 14 -37 25 -8 11 -20 20 -27 20 -7 0 -22 11 -35 23
l-22 24 46 -2 c28 -1 50 -7 55 -16 10 -16 16 -17 110 -24 36 -3 80 -10 99 -15
19 -5 37 -7 40 -4 8 7 -21 24 -41 24 -9 0 -19 4 -22 9 -9 14 40 22 67 12 28
-11 107 -3 107 11 0 5 -17 9 -37 9 -21 0 -58 1 -83 2 -25 1 -62 -1 -82 -4 -50
-8 -56 1 -16 23 18 9 26 17 18 18 -8 0 -30 -9 -49 -21 -41 -25 -73 -19 -47 9
28 32 18 34 -29 6 -49 -29 -57 -20 -24 28 29 40 14 50 -17 10 -31 -39 -42 -40
-46 -7 -3 24 -24 33 -22 9 2 -16 -76 -32 -112 -22 -59 15 -113 87 -166 222
-20 50 -21 60 -8 64 17 5 150 140 150 153 0 5 11 32 24 61 47 103 67 257 52
388 -3 30 -9 77 -12 104 -3 26 -12 66 -20 88 -21 61 -18 72 29 98 23 13 48 30
55 37 20 20 102 75 115 77 38 8 75 21 100 33 16 8 31 12 34 9 3 -2 -13 -14
-36 -26 -23 -11 -41 -18 -41 -14 0 3 -19 -8 -42 -25 -23 -17 -48 -31 -55 -31
-7 0 -13 -7 -13 -15 0 -9 -12 -18 -30 -21 l-29 -6 32 -35 c45 -49 78 -63 154
-68 75 -5 103 9 103 52 0 29 8 29 54 -2 38 -26 66 -32 66 -15 0 17 21 11 52
-15 53 -45 114 -31 148 34 11 24 29 41 43 45 36 9 60 51 54 92 -8 46 23 80 80
88 51 7 63 -7 87 -100 9 -33 23 -80 31 -105 16 -42 45 -188 44 -219 0 -32 -27
50 -38 116 -7 38 -16 76 -21 84 -15 24 -13 4 26 -197 33 -173 35 -198 31 -318
-3 -71 -10 -143 -16 -160 -6 -16 -12 -48 -15 -70 -14 -129 -64 -284 -86 -270
-5 3 -6 -4 -3 -15 3 -12 0 -20 -6 -20 -7 0 -9 -4 -6 -10 3 -5 2 -10 -4 -10 -5
0 -13 -10 -17 -22 -27 -90 -209 -313 -263 -324 -27 -6 -104 -64 -84 -64 6 0
16 6 22 14 6 8 21 16 33 19 20 6 20 4 -4 -20 -18 -17 -37 -26 -57 -25 -16 0
-35 -6 -42 -14 -21 -25 -76 -49 -214 -93 -226 -71 -480 -103 -805 -102 -102 1
-202 3 -224 5 -54 6 -535 20 -625 18 -40 0 -76 -3 -79 -6 -3 -3 29 -6 71 -6
45 0 77 -4 77 -10 0 -6 -63 -10 -169 -10 l-169 0 4 38 c10 95 17 1055 9 1179
-3 49 6 75 19 55 3 -5 6 -72 7 -150 2 -78 6 -142 11 -142 9 0 -2 404 -13 439
-5 17 -7 2 -6 -48 2 -54 -2 -75 -11 -79 -12 -4 -13 51 -3 161 1 5 6 5 11 2 6
-3 10 -2 10 4 0 5 -5 11 -12 13 -12 4 -21 128 -9 128 3 0 5 150 4 333 -7 1547
-15 2455 -24 2630 l-11 208 68 72 c37 40 79 83 93 96 83 75 101 94 101 110 0
27 39 64 59 55 9 -4 214 -10 456 -15z m1953 -1706 c15 -10 30 -22 34 -28 11
-14 -2 -48 -23 -63 -12 -8 -19 -25 -19 -48 0 -20 -5 -34 -12 -35 -10 0 -10 -2
0 -6 21 -8 13 -26 -9 -20 -12 3 -18 3 -15 0 3 -4 1 -12 -5 -20 -6 -7 -8 -13
-3 -13 10 0 -17 -20 -28 -20 -4 0 -3 14 2 31 5 16 7 45 5 63 -4 30 0 37 35 61
22 16 38 30 35 33 -3 3 -13 -3 -24 -12 -24 -22 -29 -13 -23 47 4 52 10 55 50
30z m-1126 -906 c-12 -13 -22 -28 -22 -34 0 -6 -7 -16 -15 -23 -27 -23 -76
-121 -70 -141 4 -10 10 -19 15 -19 14 0 -8 -62 -32 -87 -31 -33 -59 -26 -81
20 -24 51 -15 74 34 88 39 12 74 39 50 39 -8 0 -9 4 -1 13 5 6 37 49 71 95 33
46 63 81 67 78 3 -3 -4 -16 -16 -29z m397 -139 c17 -11 15 -14 -27 -35 -84
-42 -166 -98 -221 -151 -29 -29 -46 -50 -37 -46 9 3 16 1 16 -5 0 -18 24 -12
52 13 14 14 28 22 31 19 3 -3 27 13 54 35 76 63 123 83 167 71 20 -5 41 -7 48
-3 7 5 9 2 5 -9 -9 -24 18 -11 83 38 57 44 93 65 107 65 4 0 26 -16 48 -35 22
-19 43 -35 46 -35 9 0 136 -173 166 -225 13 -25 22 -49 18 -55 -8 -13 -35 -13
-35 1 0 6 -9 8 -20 4 -11 -3 -35 -1 -54 6 -30 11 -41 10 -93 -13 -69 -30 -153
-84 -113 -74 19 6 21 5 10 -3 -8 -6 -22 -8 -31 -6 -16 5 -74 -33 -65 -42 3 -3
18 2 33 11 l28 17 -24 -21 c-13 -11 -31 -18 -39 -15 -15 6 -82 -30 -95 -52 -4
-7 -13 -13 -19 -13 -21 0 55 70 99 91 39 19 64 39 48 39 -14 0 -83 -40 -96
-56 -8 -9 -48 -39 -89 -65 -41 -27 -67 -49 -58 -49 9 0 20 5 23 10 3 6 14 10
23 10 13 0 12 -5 -8 -21 l-25 -21 28 6 c30 7 38 -12 13 -33 -15 -12 -86 -11
-86 2 0 4 -6 7 -12 5 -7 -1 -33 9 -58 21 -44 24 -45 24 -20 34 22 8 36 14 85
36 6 2 3 -4 -5 -14 -14 -17 -13 -17 8 -11 36 12 158 85 174 103 9 12 4 11 -18
-4 -38 -27 -145 -83 -139 -73 8 13 149 95 166 96 28 2 122 58 164 98 22 21 58
52 79 68 22 16 41 35 42 43 3 18 -1 19 -18 2 -28 -27 -114 -84 -135 -89 -33
-9 -28 8 12 46 19 19 35 36 35 40 0 7 -7 2 -60 -44 -38 -33 -55 -39 -46 -15 3
8 4 15 2 15 -8 0 -112 -72 -133 -93 -13 -11 -23 -16 -23 -10 0 5 11 20 25 33
14 13 23 26 20 28 -3 3 2 14 12 24 23 25 12 23 -48 -12 -28 -17 -54 -29 -56
-26 -3 3 4 17 16 32 26 33 21 40 -16 21 -15 -8 -44 -18 -63 -22 l-35 -8 31 27
c29 23 51 66 36 66 -4 0 -29 -14 -57 -31 -28 -17 -39 -27 -25 -24 19 6 22 5
14 -5 -7 -7 -21 -9 -34 -5 -20 6 -21 8 -4 26 9 10 22 19 29 19 7 0 20 9 31 21
16 18 12 17 -26 -5 -51 -29 -68 -33 -50 -11 15 18 7 19 -21 4 -16 -8 -18 -13
-8 -25 14 -17 -2 -19 -19 -2 -10 10 -15 10 -22 -2 -7 -11 -4 -17 9 -22 27 -10
35 -27 19 -45 -11 -14 -10 -15 10 -9 34 11 27 -3 -34 -72 -52 -58 -131 -122
-151 -122 -5 0 -17 16 -27 35 -13 24 -16 38 -9 47 6 7 23 48 38 91 27 76 100
177 128 177 13 0 67 50 67 62 0 5 -6 6 -12 1 -7 -4 -20 -8 -28 -10 -8 -1 -37
-26 -63 -55 -44 -48 -47 -50 -31 -18 51 105 137 178 244 206 58 16 76 17 99 2z
m-824 -370 c18 -16 1 -324 -24 -431 -9 -40 -26 -34 -28 10 -13 228 -26 393
-33 416 l-9 27 42 -6 c23 -4 47 -11 52 -16z m715 4 c0 -12 -65 -74 -148 -142
-62 -51 -99 -78 -200 -145 -9 -5 -26 -21 -40 -35 -18 -19 -22 -20 -18 -7 5 14
-1 13 -28 -8 -38 -29 -86 -87 -86 -104 0 -6 -4 -11 -10 -11 -6 0 -9 -3 -8 -7
4 -17 -14 -73 -24 -73 -6 0 -7 8 -3 18 16 40 24 76 18 85 -3 6 -2 7 4 4 11 -7
38 42 28 51 -3 3 -5 0 -5 -6 0 -7 -5 -12 -10 -12 -7 0 -7 7 0 20 6 11 15 18
20 15 4 -3 6 4 3 15 -3 13 1 22 11 26 11 4 15 14 11 28 -2 11 -2 15 1 8 5 -10
9 -10 20 -1 8 6 14 8 14 4 0 -5 8 -2 18 6 9 8 39 21 66 27 54 14 140 72 236
159 90 82 130 108 130 85z m534 -7 c40 -17 42 -21 21 -49 -8 -11 -15 -35 -15
-53 0 -48 -55 -93 -68 -55 -2 7 3 12 11 12 8 0 21 8 28 17 8 9 10 15 4 12 -55
-27 -63 -33 -58 -45 4 -10 0 -12 -11 -8 -20 8 -13 19 36 55 23 16 34 29 26 29
-21 0 -94 -60 -107 -88 -15 -32 -14 -34 10 -22 30 17 69 22 69 10 0 -10 -13
-14 -37 -11 -6 1 -14 -3 -18 -9 -4 -6 1 -7 11 -3 13 5 15 2 9 -18 -4 -13 -16
-32 -28 -42 -18 -15 -23 -16 -32 -5 -5 8 -17 12 -26 10 -9 -1 -21 4 -28 12 -9
11 -7 18 12 33 13 10 27 29 31 40 4 12 43 52 87 89 44 36 78 68 75 71 -7 7
-84 -45 -153 -103 -62 -53 -104 -74 -68 -34 10 11 15 20 12 20 -4 0 14 19 38
41 25 23 43 44 40 47 -5 5 74 62 86 62 4 0 23 -7 43 -15z m-794 -362 c28 -89
38 -245 20 -319 -11 -44 -22 -63 -54 -91 -45 -38 -175 -107 -185 -97 -3 3 -6
69 -6 147 0 134 2 146 30 217 23 57 45 91 94 142 35 38 67 68 72 68 4 0 18
-30 29 -67z"/>
<path d="M9995 7269 c-16 -5 -43 -7 -58 -4 -42 7 -118 -40 -158 -97 -34 -51
-44 -55 -72 -34 -21 17 -61 10 -83 -15 -13 -14 -21 -16 -36 -8 -37 20 -78 14
-107 -17 -16 -16 -39 -36 -51 -45 -30 -20 -21 -65 15 -79 14 -5 25 -17 25 -25
0 -18 -38 -76 -58 -88 -7 -5 -11 -11 -8 -15 4 -7 -2 -8 -91 -13 -29 -1 -54 -7
-56 -13 -2 -6 0 -49 5 -96 5 -47 7 -177 5 -290 -4 -210 -5 -211 -50 -297 -14
-27 -45 -30 -54 -6 -4 9 3 33 14 55 26 46 11 51 -17 6 -26 -43 -25 -64 5 -94
32 -32 31 -36 -6 -79 -32 -37 -56 -44 -78 -22 -10 10 -12 7 -9 -13 2 -20 9
-26 34 -28 32 -3 32 -3 17 -33 -17 -35 -26 -36 -65 -8 -31 23 -31 21 -12 119
5 24 4 24 -10 7 -8 -11 -17 -36 -21 -57 l-6 -38 -30 15 c-48 24 -54 57 -23
117 29 57 27 58 -9 5 -36 -53 -40 -82 -16 -113 16 -21 86 -71 166 -119 6 -4
25 8 44 28 35 36 66 50 34 15 -10 -11 -15 -23 -11 -28 4 -4 14 2 22 12 7 11
17 16 21 12 4 -4 1 -12 -8 -17 -9 -4 -24 -20 -34 -35 -18 -27 -7 -26 28 4 11
10 17 11 17 4 0 -16 33 -15 48 0 6 6 14 9 17 6 7 -7 10 -77 4 -98 -3 -13 12
-15 96 -14 111 0 199 14 242 39 93 52 217 180 230 238 3 15 9 27 14 27 5 0 9
7 9 15 0 8 4 15 8 15 4 0 16 14 25 30 13 21 14 30 6 30 -20 0 31 48 58 55 15
3 31 1 37 -5 8 -8 6 -9 -9 -4 -18 7 -19 6 -6 -10 12 -15 12 -17 0 -14 -8 2
-17 7 -20 11 -3 4 -17 -2 -30 -13 -18 -17 -20 -20 -6 -16 15 5 14 0 -8 -25
-20 -25 -23 -34 -13 -40 7 -5 18 -9 23 -9 6 0 4 4 -3 8 -19 12 33 56 68 58
l30 2 -46 -48 c-25 -26 -51 -58 -58 -71 -7 -13 -24 -42 -37 -64 -14 -22 -28
-48 -32 -57 -7 -19 -47 -25 -47 -8 0 6 8 10 17 8 10 -2 19 4 21 15 5 24 -18
18 -41 -10 -23 -29 -16 -41 23 -37 24 3 33 -1 39 -19 8 -19 10 -20 16 -5 4 9
4 21 1 26 -7 12 72 100 106 118 16 8 28 21 28 29 0 8 5 15 10 15 6 0 10 -6 10
-14 0 -7 8 -20 17 -27 15 -12 16 -12 9 6 -18 46 -26 79 -15 68 20 -20 66 -162
61 -189 -3 -17 -1 -25 5 -21 18 11 5 79 -32 176 -43 113 -46 146 -4 41 36 -89
49 -106 49 -64 0 22 8 36 31 53 17 13 28 25 25 28 -3 4 -1 12 6 20 16 19 2 28
-19 12 -14 -11 -14 -9 2 9 11 13 21 19 23 13 2 -6 10 -11 19 -11 8 0 13 -3 11
-7 -24 -49 -33 -63 -40 -63 -5 0 -6 -4 -3 -10 3 -5 -2 -10 -12 -10 -14 0 -15
-2 -5 -9 11 -7 11 -16 1 -52 -7 -24 -15 -46 -19 -49 -8 -8 -8 -50 1 -50 18 0
17 -36 -1 -68 -34 -57 -16 -47 40 23 29 36 55 64 58 61 3 -3 -1 -13 -9 -23 -8
-9 -9 -14 -2 -10 6 4 27 -9 47 -29 29 -29 39 -33 54 -25 26 14 127 -11 157
-39 16 -15 30 -20 44 -15 31 9 25 -2 -9 -20 -16 -9 -30 -22 -30 -30 0 -16 18
-19 38 -6 18 11 43 61 31 61 -16 0 -10 29 9 39 9 6 12 11 4 11 -7 0 -21 -6
-32 -12 -15 -10 -22 -10 -32 0 -9 9 -8 12 6 12 18 0 123 97 114 105 -3 3 -22
-2 -43 -11 -30 -12 -35 -18 -24 -26 10 -7 9 -8 -7 -3 -14 3 -40 -4 -69 -20
-49 -25 -85 -32 -85 -16 0 5 12 12 28 16 15 3 58 26 96 51 38 24 77 44 86 44
24 0 108 62 92 68 -8 2 -24 -6 -37 -18 -28 -26 -59 -23 -63 8 -2 12 -10 22
-17 22 -16 0 -131 -66 -161 -92 -27 -24 -37 -23 -24 2 15 29 -5 25 -24 -5 -20
-31 -20 -36 1 -28 11 4 14 3 9 -6 -4 -6 -16 -9 -25 -6 -11 3 -24 -2 -32 -12
-13 -15 -12 -16 9 -11 28 8 28 4 -3 -16 -24 -16 -27 -16 -43 0 -14 15 -15 18
-2 22 8 3 38 27 66 54 32 30 54 44 56 36 3 -8 21 0 55 25 28 20 60 37 72 37
21 0 29 24 11 35 -5 3 -10 15 -10 26 0 26 -14 24 -34 -6 -25 -38 -62 -58 -92
-51 -21 6 -25 12 -21 31 5 27 -2 32 -20 14 -8 -8 -15 -4 -27 12 -15 22 -14 25
17 58 17 19 23 29 12 21 -11 -8 -24 -21 -28 -27 -4 -7 -12 -13 -17 -13 -18 0
-10 22 20 60 17 21 26 41 21 44 -5 3 -16 -5 -25 -19 -9 -14 -25 -25 -36 -25
-11 0 -20 -7 -20 -15 0 -8 -4 -15 -10 -15 -16 0 -12 22 10 58 32 52 23 49 -22
-8 l-42 -53 -18 23 c-10 12 -18 29 -18 37 0 10 -6 12 -20 8 -26 -8 -26 9 0 58
21 39 14 52 -8 16 -7 -12 -16 -19 -18 -16 -3 3 2 17 11 31 30 45 0 28 -34 -19
-18 -25 -37 -43 -42 -39 -6 3 -16 0 -24 -6 -8 -7 -15 -9 -15 -5 0 4 -7 2 -15
-5 -12 -10 -16 -9 -21 5 -7 18 11 55 65 130 l34 48 -29 -17 c-16 -10 -52 -50
-81 -90 -33 -46 -59 -72 -72 -73 -27 -2 -26 9 2 44 44 55 49 63 40 63 -5 0
-24 -25 -43 -55 -39 -60 -62 -71 -57 -27 2 15 6 32 9 37 8 16 2 74 -16 145
-19 77 -20 98 -6 84 6 -6 13 -34 17 -62 8 -67 23 -67 23 -1 0 65 -33 141 -75
174 -19 14 -37 25 -40 25 -4 0 -40 29 -80 64 -48 42 -91 70 -124 81 -50 16
-61 27 -41 40 6 3 10 13 10 22 0 11 -6 8 -21 -11 -42 -54 -68 -20 -45 58 8 26
22 56 32 67 9 11 14 22 11 25 -4 4 -15 -3 -24 -15 l-18 -22 -24 25 c-28 30
-23 49 18 67 17 8 31 19 31 25 0 27 67 23 85 -5 9 -16 35 -13 35 3 0 8 14 19
32 25 28 10 36 9 59 -8 l26 -19 26 30 c15 16 27 32 27 34 0 3 10 18 22 34 15
21 30 30 50 30 17 0 28 5 28 14 0 15 73 29 108 19 13 -3 22 -1 22 6 0 20 63
12 87 -11 28 -26 31 -6 3 22 -22 22 -72 25 -125 9z m-429 -515 c17 -3 63 -32
105 -67 127 -106 170 -228 114 -324 -14 -23 -21 -43 -15 -43 5 0 18 18 27 41
13 34 18 38 25 24 12 -21 0 -137 -16 -147 -8 -5 -8 -13 2 -28 20 -33 15 -103
-11 -141 -20 -30 -31 -36 -87 -46 -36 -7 -88 -12 -116 -13 -38 0 -61 -7 -88
-25 -47 -32 -56 -31 -56 3 0 15 -3 106 -5 202 -3 96 -7 267 -10 379 l-5 204
53 -7 c28 -4 66 -9 83 -12z"/>
<path d="M9367 6928 c-32 -19 -41 -20 -70 -10 -52 19 -71 15 -113 -23 -78 -71
-74 -68 -93 -51 -22 20 -51 20 -98 1 -19 -8 -44 -15 -54 -15 -21 0 -62 -36
-55 -49 3 -4 6 -26 7 -48 2 -33 8 -44 27 -53 33 -15 48 2 22 25 -13 12 -20 31
-20 56 0 34 3 39 28 45 15 3 40 10 56 15 45 14 71 11 100 -12 25 -20 28 -20
45 -5 10 9 27 16 39 16 19 0 21 4 16 25 -8 32 19 65 52 65 12 0 36 -11 52 -25
36 -30 42 -31 42 -7 0 25 19 42 47 42 14 0 23 6 23 15 0 20 -8 19 -53 -7z"/>
<path d="M8802 6677 c-9 -11 -8 -18 7 -31 25 -23 18 -40 -26 -67 -18 -12 -41
-32 -50 -46 -16 -23 -15 -26 15 -56 27 -27 35 -30 51 -20 12 8 31 9 56 3 21
-5 44 -6 53 -3 8 4 -2 -11 -22 -31 -20 -21 -36 -41 -36 -45 0 -4 -24 -17 -52
-29 -29 -12 -63 -30 -76 -40 -21 -16 -22 -22 -14 -60 8 -33 7 -42 -3 -42 -8 0
-23 -12 -35 -27 -12 -15 -40 -35 -63 -43 -33 -12 -43 -21 -45 -42 -2 -15 2
-36 8 -48 8 -16 8 -20 -3 -20 -8 0 -22 -9 -32 -20 -10 -11 -28 -20 -39 -20
-32 0 -66 -28 -66 -55 0 -16 15 -36 44 -60 l45 -36 -39 -61 c-45 -70 -44 -77
24 -132 44 -37 76 -46 76 -22 0 7 18 26 40 41 56 38 91 87 75 102 -10 9 -22 2
-55 -32 -23 -24 -41 -47 -41 -51 1 -5 -7 -10 -19 -12 -11 -2 -20 2 -20 7 0 7
-11 9 -27 6 l-28 -6 31 28 c17 15 39 40 49 56 15 24 16 27 1 21 -19 -7 -21 7
-4 24 10 10 10 15 1 20 -8 5 -9 13 -3 22 15 23 12 34 -5 20 -19 -16 -38 -3
-32 22 4 15 3 17 -8 8 -9 -8 -21 -6 -44 7 -17 10 -31 22 -31 26 0 12 65 37 95
37 15 0 23 4 20 10 -3 6 1 7 9 4 21 -8 20 6 -1 22 -15 11 -16 13 -2 14 8 0 20
-5 26 -11 19 -19 24 7 8 51 -17 49 -13 60 22 60 15 0 36 12 54 31 26 28 32 30
74 24 52 -8 61 6 16 25 -32 13 -47 38 -32 53 5 5 8 15 6 21 -5 14 63 66 87 66
10 0 27 -9 38 -20 14 -14 27 -18 50 -14 18 4 30 2 30 -4 0 -6 -27 -41 -60 -78
-32 -37 -64 -80 -69 -96 -14 -40 1 -35 24 9 11 21 75 94 142 162 68 69 121
126 119 128 -1 2 -33 -24 -70 -58 -37 -34 -70 -58 -74 -55 -3 4 -2 10 4 14 5
4 28 29 49 56 22 28 56 67 76 87 38 39 41 56 7 38 -23 -12 -66 -60 -120 -131
-38 -51 -61 -53 -27 -2 31 47 22 51 -21 9 -31 -30 -43 -36 -52 -27 -9 9 -5 19
18 44 16 18 38 39 49 47 11 9 30 26 43 40 12 13 25 21 29 18 3 -4 -11 -23 -31
-42 -30 -28 -34 -35 -19 -35 11 0 32 14 49 32 16 17 22 28 14 24 -8 -4 -6 0 4
8 17 14 18 16 3 16 -9 0 -17 5 -17 11 0 6 -12 1 -26 -10 -20 -16 -30 -18 -40
-10 -13 11 -52 -3 -65 -24 -7 -11 -29 -1 -29 13 0 5 13 11 29 15 16 3 37 15
47 26 18 20 18 20 -6 10 -14 -5 -38 -16 -55 -24 -16 -8 -41 -18 -53 -22 -22
-6 -23 -5 -11 17 12 22 11 23 -8 6 -11 -10 -27 -18 -36 -18 -31 0 -18 29 27
62 32 23 43 38 40 51 -3 10 0 17 8 17 8 1 6 6 -6 15 -19 14 -18 15 13 15 22 0
31 4 29 13 -6 18 -72 21 -86 4z"/>
<path d="M8710 5729 c-30 -39 -69 -81 -87 -94 l-34 -22 46 -13 c46 -13 58 -33
33 -58 -10 -10 -10 -15 -1 -20 6 -4 15 -20 18 -35 4 -15 11 -30 16 -33 10 -6
-31 -43 -69 -63 -55 -29 -70 27 -26 92 38 57 22 56 -19 -1 -26 -34 -34 -55
-30 -70 4 -18 -7 -36 -51 -82 -52 -55 -61 -74 -57 -122 1 -10 -2 -18 -7 -18
-16 0 -23 -30 -12 -51 7 -13 21 -19 44 -19 27 0 36 -5 45 -28 7 -17 28 -35 55
-47 l43 -20 37 27 c45 32 33 43 -24 23 -47 -17 -70 -19 -70 -7 0 6 41 25 128
60 9 3 13 -2 10 -16 -1 -11 5 -29 15 -40 18 -20 18 -21 -15 -35 -18 -8 -41
-17 -51 -21 -28 -9 -15 -106 19 -143 20 -22 27 -25 34 -13 5 9 5 19 -2 27 -7
9 -7 13 2 13 7 0 27 13 45 29 42 37 189 201 184 206 -2 1 -29 -20 -59 -48 -30
-28 -49 -47 -41 -43 29 18 4 -13 -43 -53 -66 -57 -116 -75 -116 -41 0 11 68
56 96 63 15 4 14 5 -6 6 -14 0 -36 -8 -50 -19 -14 -11 -34 -19 -45 -19 -17 0
-16 3 10 24 17 14 42 25 57 25 35 0 44 17 22 41 -9 10 -13 19 -9 19 4 0 1 8
-9 19 -16 17 -15 19 13 31 33 13 61 40 43 40 -6 0 -13 -4 -17 -9 -3 -5 -20 -7
-39 -4 -24 4 -46 -2 -80 -21 -55 -31 -81 -34 -72 -9 6 16 6 16 -12 0 -25 -23
-32 -21 -32 8 0 29 -7 31 -31 9 -14 -13 -21 -13 -40 -3 l-23 12 31 15 c18 8
34 21 37 29 4 8 1 11 -5 8 -6 -4 -16 1 -24 11 -11 16 -11 23 1 46 16 31 83 79
133 96 44 15 44 15 31 -8 -15 -28 -9 -25 46 20 47 38 74 50 74 31 0 -5 -7 -14
-15 -21 -9 -7 -13 -15 -11 -17 3 -3 15 4 27 16 13 12 29 21 37 21 13 0 12 3
-1 18 -10 10 -14 22 -10 26 4 4 0 4 -9 1 -9 -4 -19 -1 -23 5 -4 6 -15 8 -26 5
-23 -8 -26 10 -3 19 24 9 36 7 28 -5 -4 -7 1 -10 12 -7 12 2 19 12 20 29 1 14
8 40 17 57 8 18 11 32 6 32 -25 0 -1 34 74 105 62 59 71 70 37 47 -76 -52
-138 -116 -149 -158 -6 -21 -8 -40 -6 -43 6 -5 -25 -41 -35 -41 -5 0 -10 7
-13 14 -4 11 -1 13 10 9 12 -5 15 -2 10 10 -3 9 -2 17 3 17 17 0 11 18 -7 22
-13 2 4 26 70 93 48 50 87 91 87 92 0 1 -8 0 -17 -4 -10 -3 -53 -42 -95 -86
-43 -45 -81 -77 -85 -74 -4 4 -1 13 5 19 17 17 15 28 -4 28 -21 0 78 91 118
108 16 7 26 17 23 22 -10 17 -39 -2 -107 -69 -82 -79 -90 -64 -13 24 31 35 52
66 47 69 -5 3 -33 -27 -62 -65z"/>
<path d="M9551 3675 c-1 -38 -8 -95 -17 -125 -9 -30 -17 -64 -18 -75 -1 -11
-8 -30 -15 -43 -6 -12 -10 -26 -7 -30 2 -4 -3 -16 -11 -27 -10 -13 -17 -16
-20 -8 -4 10 -83 -66 -83 -81 0 -17 26 -2 57 32 l33 37 -6 -30 c-4 -19 -27
-49 -63 -82 -45 -42 -52 -52 -35 -53 11 0 47 20 78 45 32 25 62 43 66 40 4 -3
21 2 36 10 16 8 34 15 41 15 6 0 14 6 16 13 4 8 8 9 14 2 4 -6 49 -32 100 -58
89 -45 133 -58 133 -37 0 6 -11 10 -24 10 -13 0 -46 16 -72 35 -48 34 -58 40
-89 50 -8 2 -15 11 -15 19 0 8 -5 27 -11 43 l-12 28 -6 -24 c-9 -33 -31 -39
-31 -9 0 18 -2 20 -10 8 -5 -8 -11 -12 -13 -10 -2 3 -1 61 3 131 5 88 3 143
-6 185 l-12 59 -1 -70z"/>
<path d="M9449 3486 c-7 -19 -16 -33 -20 -31 -4 3 -28 -20 -55 -50 -40 -46
-68 -66 -174 -118 -69 -35 -153 -72 -188 -83 -34 -10 -62 -22 -62 -26 0 -5 4
-8 8 -8 14 0 124 39 136 48 28 22 190 74 216 70 25 -4 31 0 42 26 6 17 30 54
51 81 40 50 72 113 64 122 -3 2 -11 -11 -18 -31z"/>
<path d="M12649 7225 c-30 -8 -104 -37 -162 -65 -105 -50 -134 -69 -79 -50
l27 10 -29 -23 c-16 -12 -49 -37 -74 -55 l-45 -34 22 31 c12 17 30 35 39 41 9
5 13 10 8 10 -13 0 -76 -43 -76 -52 0 -4 -25 -35 -55 -70 -80 -92 -169 -274
-197 -403 -31 -145 -30 -341 2 -445 12 -41 23 -86 24 -100 2 -24 26 -76 111
-235 21 -38 63 -119 95 -180 58 -112 105 -199 145 -270 12 -22 38 -69 57 -105
20 -36 56 -104 82 -152 l47 -86 -17 -104 c-9 -56 -23 -110 -31 -120 -11 -12
-11 -18 -3 -23 13 -8 11 -31 -10 -129 -7 -34 -7 -53 0 -60 5 -5 10 -21 11 -35
0 -26 0 -26 11 -4 10 21 17 22 100 21 49 0 91 2 95 6 3 3 26 6 50 6 40 0 43
-1 33 -20 -9 -18 -7 -19 23 -18 39 1 60 -9 51 -24 -5 -8 4 -9 29 -5 21 3 37 2
37 -4 0 -5 7 -9 15 -9 9 0 12 6 8 16 -4 10 -1 15 8 13 23 -5 108 11 114 22 9
14 35 11 35 -5 0 -7 8 -16 18 -18 30 -7 172 4 172 14 0 5 -9 7 -19 3 -11 -3
-22 -1 -26 5 -4 6 9 10 36 10 38 0 40 -2 28 -17 -13 -15 -11 -16 11 -10 14 4
60 7 103 7 50 0 76 4 72 10 -3 6 -39 10 -78 10 -74 0 -110 11 -87 25 12 8 86
13 189 14 30 1 51 4 48 8 -4 3 -23 6 -42 5 -19 -1 -35 3 -35 8 0 6 -34 8 -87
6 -174 -10 -195 -9 -214 11 -13 13 -25 65 -44 188 -15 94 -27 180 -27 192 0
12 30 79 67 150 133 251 365 739 365 767 0 7 3 16 7 20 7 7 19 36 63 165 41
115 64 259 56 346 -13 160 -82 340 -182 481 -57 81 -176 190 -222 205 -46 14
-132 60 -132 69 0 4 -15 11 -32 15 -18 4 -37 9 -43 11 -74 26 -370 32 -466 9z
m346 -34 c154 -33 286 -82 356 -131 41 -30 36 -44 -18 -56 -41 -10 -51 -9 -86
10 -22 12 -61 39 -86 61 -72 63 -92 73 -31 15 30 -28 74 -64 98 -80 24 -15 39
-30 35 -32 -11 -6 -54 -19 -280 -82 -105 -30 -236 -73 -290 -96 l-98 -40 -20
26 c-45 60 -179 214 -187 214 -14 0 -9 -8 45 -69 29 -33 72 -84 95 -113 47
-62 47 -74 -3 -148 -33 -49 -103 -234 -125 -330 -16 -73 -28 -90 -102 -146
-35 -26 -91 -72 -126 -102 -37 -32 -67 -51 -72 -46 -5 5 -11 25 -13 44 -2 19
-10 49 -18 65 -19 40 -21 304 -3 322 7 7 17 36 23 63 29 136 154 390 191 390
9 0 37 -15 61 -33 61 -46 161 -119 180 -132 51 -34 -80 77 -143 122 -43 30
-80 58 -83 63 -3 5 5 16 17 25 13 9 48 34 78 56 71 53 150 92 247 125 107 36
275 52 358 35z m466 -243 c21 -24 39 -51 39 -60 0 -9 7 -23 15 -31 8 -8 11
-18 7 -21 -3 -4 1 -4 11 0 13 5 16 2 10 -12 -4 -11 -3 -15 5 -10 6 4 16 -3 23
-16 11 -21 11 -22 -4 -9 -12 9 -17 10 -17 2 0 -6 11 -17 25 -23 26 -12 36 -31
10 -22 -11 5 -13 0 -6 -24 12 -39 30 -72 40 -72 26 0 54 -171 45 -268 -3 -31
-7 -94 -7 -139 -3 -148 -40 -131 -134 60 -57 115 -267 636 -260 644 9 8 121
42 141 42 10 1 36 -18 57 -41z m-244 -65 c-21 -199 -30 -363 -20 -385 12 -26
18 31 31 272 l7 125 22 -40 c26 -50 80 -181 144 -349 27 -70 69 -166 95 -213
25 -46 44 -86 42 -88 -2 -2 -63 36 -136 85 -73 49 -149 95 -168 102 -28 10
-34 17 -34 43 0 23 -3 26 -10 15 -5 -8 -10 -10 -11 -5 -5 65 -21 95 -94 173
-98 106 -254 130 -396 63 -35 -16 -74 -39 -86 -49 -44 -38 -117 -221 -90 -223
9 0 9 -2 0 -6 -26 -10 -3 -217 25 -228 10 -4 12 21 6 134 -6 131 -6 142 16
195 13 31 30 56 37 56 7 0 13 5 13 10 0 15 31 43 63 57 15 7 27 17 27 23 0 5
21 19 47 31 51 23 148 28 184 9 11 -6 29 -13 40 -15 29 -6 116 -83 129 -116 7
-16 15 -27 18 -24 3 3 18 -25 34 -63 28 -64 29 -70 18 -142 -6 -41 -16 -79
-23 -85 -7 -5 -21 -27 -30 -48 -10 -20 -36 -54 -58 -76 -27 -26 -38 -43 -33
-54 11 -30 41 -18 82 36 63 80 94 151 96 223 1 72 -10 74 136 -21 52 -34 128
-83 168 -108 39 -26 72 -52 72 -59 0 -7 -98 -62 -217 -122 -120 -59 -288 -150
-374 -202 -87 -52 -162 -94 -167 -94 -6 0 -32 33 -58 73 -26 39 -83 110 -127
157 -44 46 -75 86 -69 88 6 2 -18 42 -53 89 -66 87 -80 118 -48 106 9 -4 2 8
-17 25 -27 26 -30 34 -21 46 7 8 20 12 29 10 15 -5 14 -4 -1 9 -12 10 -14 17
-8 22 6 3 11 23 11 43 0 21 6 46 14 57 7 11 17 35 21 54 14 63 67 176 98 208
21 22 58 42 116 63 195 69 487 168 500 169 11 1 13 -11 8 -56z m-757 -736 c96
-139 143 -203 204 -272 34 -38 72 -85 85 -104 21 -30 22 -33 5 -27 -10 5 -41
16 -69 26 -51 18 -333 154 -305 147 8 -3 26 -7 40 -11 24 -6 24 -6 -3 9 -15 9
-36 13 -47 10 -14 -4 -222 73 -238 90 -3 3 71 60 198 154 33 25 60 49 60 54 0
17 22 -6 70 -76z m1144 -94 c-8 -16 -41 -89 -74 -163 -33 -74 -67 -148 -75
-164 -9 -16 -43 -83 -77 -150 -34 -66 -64 -123 -68 -126 -3 -3 -28 -54 -55
-115 -67 -152 -142 -302 -177 -353 -16 -23 -31 -52 -33 -65 -3 -12 -12 -27
-20 -33 -8 -6 -15 -16 -15 -21 0 -6 -7 -16 -15 -23 -8 -6 -24 -37 -35 -68 -12
-32 -28 -64 -36 -74 -9 -9 -14 -22 -13 -30 4 -18 -10 -58 -21 -58 -4 0 -6 9
-3 20 3 11 10 20 17 20 6 0 4 4 -3 9 -12 8 -15 51 -17 238 -1 125 -5 236 -9
246 -9 21 2 85 19 112 20 32 26 65 11 65 -7 0 -15 -15 -19 -32 -11 -55 -27
-12 -25 68 1 39 -1 76 -4 81 -4 6 -3 32 2 57 5 26 5 48 1 51 -4 3 -8 34 -8 70
l0 64 60 41 c33 22 62 40 64 40 3 0 23 12 45 26 94 59 276 154 282 148 3 -4
17 3 31 14 14 11 43 23 63 27 21 3 47 15 58 25 27 24 92 60 110 60 8 0 15 5
15 10 0 6 9 10 20 10 18 0 18 -2 4 -27z m-1212 -179 c95 -42 214 -93 263 -114
167 -70 160 -64 160 -123 0 -29 8 -200 18 -382 9 -181 19 -383 20 -447 3 -113
2 -117 -18 -114 -14 2 -20 11 -20 28 -1 13 -11 38 -23 55 -12 17 -22 34 -22
38 0 3 -13 25 -29 49 -16 23 -40 62 -54 86 -101 181 -297 523 -334 585 -16 28
-57 104 -90 170 -33 66 -79 155 -102 198 -22 43 -41 82 -41 88 0 5 22 -2 49
-16 28 -14 128 -59 223 -101z"/>
<path d="M11831 5588 c-23 -95 -48 -207 -55 -248 -16 -82 -21 -104 -66 -290
-65 -267 -80 -315 -80 -260 0 30 -12 18 -16 -15 -2 -20 1 -25 12 -21 26 10 14
-10 -13 -22 -22 -9 -23 -11 -5 -8 28 5 29 -10 1 -19 -11 -4 -18 -9 -16 -11 3
-3 1 -21 -3 -40 -7 -30 -6 -35 7 -29 13 5 14 3 3 -11 -8 -8 -15 -34 -17 -57
-3 -37 -37 -188 -89 -397 -9 -36 -19 -77 -21 -92 -3 -16 -9 -28 -13 -28 -4 0
-4 17 1 38 18 70 47 249 54 323 4 41 9 77 11 81 2 4 0 9 -5 12 -12 8 -18 -21
-31 -135 -10 -88 -37 -213 -39 -179 -1 8 6 56 14 105 17 106 19 169 5 160 -5
-3 -10 -2 -10 4 0 5 5 11 10 13 12 4 19 96 10 124 -4 10 -3 37 3 59 10 44 36
173 39 193 1 6 8 12 15 12 8 0 11 5 8 11 -4 6 1 16 11 23 14 11 18 26 17 72
-2 74 12 171 43 297 28 118 64 332 64 387 0 52 -14 51 -29 -2 -42 -160 -74
-310 -87 -413 -17 -134 -35 -225 -71 -365 -69 -265 -119 -476 -128 -535 -4
-30 -17 -82 -60 -255 -14 -52 -38 -158 -54 -235 -17 -77 -44 -194 -60 -260
-58 -232 -75 -328 -76 -425 -1 -101 -9 -145 -32 -171 -12 -14 -11 -18 2 -29
12 -10 16 -10 19 1 2 8 10 34 17 58 l13 45 11 -55 c6 -30 17 -64 23 -76 7 -12
12 -31 12 -42 0 -33 40 -101 69 -115 17 -8 41 -10 71 -5 25 4 92 8 150 9 69 1
98 4 85 10 -13 6 20 9 93 8 61 0 112 -4 112 -9 0 -6 90 -7 225 -3 209 6 225 5
232 -12 6 -15 7 -15 15 5 7 19 13 21 42 16 20 -4 36 -2 40 4 5 7 -4 11 -24 11
-30 0 -31 1 -24 38 4 20 11 45 15 54 5 9 9 26 9 36 0 19 6 20 103 16 56 -2
124 -9 150 -14 87 -18 357 -8 357 12 0 6 -47 9 -117 8 -65 -2 -122 -1 -128 0
-26 7 121 15 284 15 99 0 181 3 181 6 0 12 -66 17 -200 13 -74 -2 -242 -7
-372 -10 l-238 -7 0 32 c0 26 3 31 18 27 98 -29 288 -31 587 -6 72 7 177 15
235 20 102 8 -2 7 -315 -5 -213 -8 -399 -4 -413 9 -5 5 401 12 454 7 12 -1 32
3 45 8 16 7 -58 10 -228 10 -162 1 -253 5 -253 11 0 6 12 10 26 10 22 0 25 2
14 15 -11 13 -8 15 16 14 16 0 23 -3 17 -6 -32 -13 -7 -23 57 -23 51 0 69 3
68 13 -2 7 6 11 17 10 47 -4 89 -5 254 -4 315 2 177 15 -262 26 -174 4 -227 3
-221 -6 9 -15 -21 -38 -44 -34 -9 1 -11 0 -4 -2 24 -8 12 -22 -18 -20 -22 1
-29 6 -24 17 3 8 7 35 10 60 9 104 15 134 25 147 7 7 9 16 6 19 -2 3 1 27 8
54 7 27 16 86 20 132 4 46 11 88 15 93 4 6 15 49 25 97 l18 86 41 -3 c22 -2
174 -4 337 -4 l297 -1 6 -45 c4 -25 14 -51 22 -59 9 -9 10 -16 3 -18 -7 -2 -8
-20 -4 -52 4 -27 11 -43 15 -36 5 8 9 7 14 -5 9 -24 7 -37 -4 -30 -16 10 -12
-25 5 -42 12 -11 14 -26 10 -58 -4 -26 -1 -65 8 -101 8 -33 19 -81 23 -109 4
-27 9 -54 9 -60 1 -5 3 -17 3 -26 1 -9 20 -39 43 -68 29 -36 39 -56 34 -71 -3
-11 -2 -20 4 -20 5 0 29 -20 53 -45 49 -51 60 -55 54 -20 -7 36 -36 84 -80
133 -43 46 -90 122 -76 122 4 0 10 -7 14 -15 3 -8 12 -15 21 -15 11 0 13 5 8
18 -7 15 -8 30 -4 67 3 26 29 -37 36 -85 7 -51 29 -110 41 -110 3 0 3 4 0 8
-9 14 -19 65 -23 120 -6 66 13 70 22 5 4 -27 15 -82 25 -123 29 -116 32 -132
34 -172 2 -33 -1 -37 -23 -41 -22 -3 -22 -4 6 -6 17 0 35 -6 38 -11 4 -7 37
-9 85 -6 44 2 92 1 107 -3 15 -4 52 -3 81 2 77 13 762 -2 767 -17 2 -6 14 -44
26 -84 12 -40 25 -75 29 -77 9 -6 -13 91 -23 101 -4 4 -7 23 -7 43 0 34 -38
206 -81 366 -33 122 -57 226 -83 355 -22 111 -62 290 -97 434 -6 28 -12 69
-12 93 0 24 -3 43 -7 43 -19 0 -90 322 -72 328 15 5 16 28 2 37 -6 4 -7 -1 -3
-11 4 -12 3 -15 -5 -10 -7 4 -12 19 -12 34 0 22 2 24 11 12 8 -12 9 -11 6 5
-2 11 -9 19 -15 17 -15 -3 -16 25 -1 30 9 3 8 11 -2 28 -7 14 -12 29 -11 33 1
5 -2 25 -8 45 -29 95 -37 142 -26 142 7 0 7 3 -1 8 -7 4 -14 17 -16 27 -1 11
-6 25 -10 32 -4 6 -4 18 -1 27 4 9 1 16 -6 16 -7 0 -10 8 -7 20 3 10 1 20 -3
22 -4 2 -11 21 -14 43 -4 22 -9 50 -11 62 -1 12 -5 26 -8 30 -3 5 -8 29 -12
53 -11 81 -66 310 -122 505 -21 72 -33 101 -46 103 -9 2 -17 -2 -17 -8 0 -6 5
-8 13 -4 8 5 8 2 -2 -9 -9 -12 -10 -17 -2 -17 9 0 9 -5 1 -20 -6 -11 -7 -20
-2 -20 4 0 9 -22 9 -48 0 -27 8 -62 16 -79 9 -17 14 -33 11 -35 -2 -3 1 -18 7
-34 16 -37 15 -34 34 -124 21 -98 29 -128 35 -141 5 -8 11 -34 13 -57 3 -22 8
-46 12 -52 4 -7 9 -28 10 -48 2 -20 8 -52 14 -69 5 -18 6 -35 2 -38 -12 -7
-21 6 -21 28 0 11 -3 18 -6 14 -10 -10 19 -109 34 -115 10 -3 10 -7 2 -12 -8
-5 -9 -18 -1 -46 5 -21 12 -52 14 -69 11 -64 30 -141 38 -151 5 -6 6 -14 2
-17 -3 -4 -1 -7 6 -7 9 0 11 -8 7 -25 -4 -14 -2 -25 3 -25 8 0 19 -40 23 -80
0 -8 5 -21 11 -28 5 -7 7 -15 4 -18 -3 -3 5 -45 19 -92 13 -48 33 -134 44
-192 28 -137 47 -225 60 -275 5 -22 21 -92 35 -155 14 -63 42 -182 61 -265 19
-82 44 -190 55 -240 21 -89 60 -234 74 -267 7 -17 -14 -18 -341 -19 -407 -1
-637 1 -640 4 -1 1 -10 43 -19 92 -9 50 -23 124 -31 165 -8 41 -19 113 -24
160 -6 47 -14 105 -20 130 -5 25 -12 65 -14 90 -2 25 -15 99 -30 165 -14 66
-26 137 -26 157 0 40 -13 56 -33 40 -15 -13 -429 7 -421 20 3 4 0 8 -5 8 -6 0
-11 -4 -11 -9 0 -18 -40 -23 -56 -7 -17 18 -82 20 -149 7 l-40 -9 48 -1 c26 0
47 -5 47 -11 0 -14 -93 -13 -107 1 -9 9 -20 9 -40 1 -38 -14 -130 -24 -135
-15 -3 5 -3 2 -2 -4 2 -7 -4 -13 -12 -13 -9 0 -12 -5 -8 -11 3 -6 2 -14 -3
-18 -5 -3 -22 -51 -37 -105 -16 -55 -39 -127 -52 -161 -12 -35 -42 -139 -64
-231 -23 -93 -44 -177 -46 -186 -3 -10 -2 -18 3 -18 5 0 22 53 38 118 16 64
33 122 38 127 6 6 7 2 3 -10 -3 -11 -7 -34 -9 -50 -4 -32 -19 -103 -43 -196
-8 -30 -14 -68 -14 -84 0 -15 -5 -57 -12 -93 l-12 -65 -115 7 c-128 7 -191 15
-206 25 -5 4 -151 6 -322 5 -172 0 -313 2 -313 5 0 3 15 69 34 146 67 273 71
292 120 505 8 35 12 68 10 72 -2 3 0 9 5 12 12 8 34 104 32 149 0 15 4 25 9
22 6 -4 10 -1 10 4 0 6 -4 11 -9 11 -5 0 -5 18 0 43 21 96 29 134 34 167 3 19
10 49 15 65 5 17 21 83 35 149 14 65 33 125 41 133 16 17 18 33 4 33 -5 0 -10
-7 -10 -15 0 -8 -4 -15 -9 -15 -5 0 -7 9 -4 20 3 11 14 20 24 20 11 0 20 7 20
15 2 22 4 29 10 40 3 6 6 25 7 42 1 18 8 56 16 85 9 34 10 59 4 71 -6 11 -5
17 2 17 6 0 9 4 6 9 -4 5 -2 11 4 13 6 2 11 24 12 51 1 26 5 47 9 47 3 0 5 14
4 30 -1 20 3 30 13 30 12 0 12 3 2 15 -10 11 -9 18 4 30 9 9 17 22 17 28 5 52
9 74 18 92 5 11 15 58 21 105 7 47 17 92 21 100 5 8 15 49 24 90 9 41 25 116
36 165 41 184 56 305 39 305 -4 0 -26 -78 -49 -172z"/>
<path d="M6322 3110 c-31 -13 -114 -112 -128 -152 -4 -10 -11 -18 -17 -18 -7
0 -7 -4 1 -12 19 -19 14 -28 -13 -28 -47 0 -25 -20 23 -21 45 -1 46 -1 15 -10
-55 -16 -53 -33 3 -25 50 7 84 25 49 27 -11 1 0 7 25 14 25 7 39 13 31 14 -28
2 0 15 41 18 35 4 40 2 30 -10 -10 -11 -6 -13 21 -9 17 3 26 7 20 9 -24 8 -13
25 15 23 15 -1 34 -2 42 -1 13 1 13 3 0 10 -8 6 -17 8 -22 5 -13 -8 -238 -12
-243 -4 -10 16 29 20 256 26 235 7 293 23 94 25 -86 1 -101 3 -70 10 22 4 76
8 120 9 56 0 75 3 65 10 -8 5 -48 10 -87 10 -42 0 -73 4 -73 10 0 10 35 14
105 11 36 -1 38 0 20 11 -14 9 -62 12 -157 11 -141 -1 -185 10 -60 15 38 2 91
7 118 11 l49 9 -51 1 c-28 0 -84 3 -125 6 -41 3 -84 1 -97 -5z"/>
<path d="M15933 2882 c-39 -12 -10 -31 62 -42 97 -14 538 -13 530 1 -4 6 -10
8 -13 5 -3 -3 -11 -1 -19 5 -7 6 -13 9 -13 5 0 -3 -10 -2 -23 3 -14 5 -30 5
-40 0 -11 -7 -24 -6 -37 1 -13 7 -20 7 -20 0 0 -5 -21 -10 -47 -9 -33 0 -42 3
-29 8 13 5 16 10 9 14 -6 4 -18 0 -26 -8 -18 -17 -31 -20 -22 -5 8 13 -1 13
-25 -2 -15 -10 -26 -9 -53 4 -26 12 -37 14 -46 5 -8 -8 -11 -7 -11 6 0 15 -11
17 -77 16 -43 -1 -88 -4 -100 -7z"/>
<path d="M12647 2863 c5 -14 -12 -18 -20 -5 -8 12 -317 3 -317 -10 0 -4 14 -8
30 -8 17 0 30 -5 30 -11 0 -7 59 -9 178 -8 224 2 402 17 396 34 -3 7 -17 10
-37 7 -65 -9 -237 -10 -237 0 0 5 5 6 10 3 6 -3 10 -1 10 4 0 6 -11 10 -24 9
-15 -1 -22 -7 -19 -15z"/>
</g>
</svg>
