<?xml version="1.0" standalone="no"?>
<!DOCTYPE svg PUBLIC "-//W3C//DTD SVG 20010904//EN"
 "http://www.w3.org/TR/2001/REC-SVG-20010904/DTD/svg10.dtd">
<svg version="1.0" xmlns="http://www.w3.org/2000/svg"
 width="1928.000000pt" height="1074.000000pt" viewBox="0 0 1928.000000 1074.000000"
 preserveAspectRatio="xMidYMid meet">
<metadata>
Created by potrace 1.16, written by Peter Selinger 2001-2019
</metadata>
<g transform="translate(0.000000,1074.000000) scale(0.100000,-0.100000)"
fill="#000000" stroke="none">
<path d="M14550 8025 c0 -4 11 -23 25 -41 33 -43 32 -52 -7 -57 -32 -4 -32 -4
5 -5 36 -2 38 -4 33 -29 -8 -45 -17 -1022 -20 -2213 -1 -608 -6 -1113 -10
-1122 -5 -11 -4 -18 2 -18 7 0 11 -54 11 -145 1 -111 -1 -145 -11 -145 -9 0
-10 -3 -2 -8 15 -10 18 -131 3 -148 -8 -10 -8 -18 -1 -26 6 -8 11 -98 11 -233
1 -121 2 -325 4 -452 2 -186 -1 -234 -11 -238 -10 -3 -4 -14 17 -36 37 -36 33
-49 -15 -49 -20 0 -33 -4 -29 -10 3 -5 19 -7 34 -4 16 4 32 1 35 -5 4 -6 1
-11 -6 -11 -8 -1 -5 -7 7 -16 56 -42 115 -98 115 -110 0 -8 9 -14 19 -14 14 0
30 -20 55 -71 29 -58 36 -83 36 -130 0 -33 4 -59 9 -59 5 0 9 20 9 45 0 50 19
118 31 110 5 -2 72 -5 150 -6 77 0 141 -5 141 -10 0 -11 306 -2 409 12 40 6
99 10 130 9 136 -5 286 0 271 10 -8 6 -35 9 -60 8 -56 -2 -90 9 -90 28 0 8 -7
14 -15 14 -8 0 -15 -7 -15 -15 0 -9 -9 -15 -22 -15 -17 0 -19 3 -10 12 7 7 12
42 12 85 l0 73 28 0 c15 0 63 -4 107 -9 139 -16 230 -23 224 -16 -7 7 -27 10
-111 20 -105 12 -70 24 59 20 249 -8 386 -15 396 -22 6 -3 7 -1 3 5 -4 7 -14
12 -22 12 -8 0 -14 7 -14 16 0 8 -4 13 -9 10 -4 -3 -17 1 -27 9 -24 18 -35 19
-28 1 8 -20 -9 -27 -24 -10 -10 11 -10 14 0 14 9 1 8 3 -2 10 -9 5 -119 11
-245 15 -127 3 -253 8 -282 11 l-52 5 0 517 c0 284 -3 653 -7 820 -4 166 -4
302 -1 302 3 0 17 -37 32 -82 14 -45 49 -131 76 -192 27 -60 49 -117 49 -125
0 -9 12 -41 26 -71 24 -52 111 -284 155 -415 12 -33 41 -112 66 -175 25 -62
47 -131 49 -152 2 -21 10 -48 18 -61 17 -25 116 -275 116 -291 0 -5 -20 10
-45 34 -51 50 -62 44 -13 -7 25 -26 28 -33 14 -33 -9 0 -14 -5 -11 -10 4 -6
10 -8 15 -5 15 9 69 -17 75 -36 4 -10 22 -31 41 -45 18 -14 31 -31 27 -37 -3
-5 -1 -7 5 -3 6 3 17 -2 24 -12 7 -10 22 -25 34 -33 35 -24 164 -143 164 -151
0 -5 -27 -8 -60 -8 -33 0 -60 -4 -60 -10 0 -10 26 -13 114 -14 40 -1 40 -2 77
-77 21 -43 42 -80 48 -84 13 -7 2 24 -29 84 -24 48 -25 61 -5 61 8 0 33 -25
56 -55 23 -30 46 -55 51 -55 6 0 -6 20 -26 44 -20 24 -36 47 -36 51 0 4 87 3
193 -2 105 -4 218 -7 250 -6 l57 2 0 -59 c0 -33 4 -60 10 -60 6 0 10 27 10 60
l0 60 41 0 c23 0 47 7 55 15 11 10 36 15 85 15 l69 0 1 -67 c1 -38 1 -75 0
-85 -1 -9 3 -19 9 -23 7 -4 10 24 10 84 l0 91 38 2 c20 1 50 1 65 0 16 -1 36
2 45 8 15 8 13 10 -8 11 -72 3 -110 8 -120 14 -8 5 -9 26 -5 64 3 31 7 237 9
459 2 334 1 402 -11 398 -16 -6 -17 26 -14 254 1 87 6 156 12 158 5 2 6 8 3
14 -13 21 -12 146 3 228 12 68 15 184 15 570 0 267 -3 496 -7 510 -7 25 -16
783 -12 985 1 61 1 345 -1 632 l-3 523 30 -6 c18 -4 31 -2 31 4 0 5 -13 12
-30 16 -17 3 -30 12 -30 20 0 8 -10 18 -21 21 -12 4 -72 53 -134 109 -173 156
-277 224 -228 149 24 -36 104 -110 161 -149 26 -18 67 -53 91 -78 29 -30 47
-42 52 -34 5 8 12 7 23 -5 21 -21 20 -30 -1 -19 -37 18 -364 22 -730 9 l-223
-7 -38 49 c-22 27 -77 84 -123 127 -46 43 -85 81 -87 84 -1 3 170 4 380 2 276
-2 394 0 425 9 23 6 41 15 38 19 -13 22 -410 28 -700 10 -82 -5 -159 -8 -170
-7 -16 2 -20 -4 -21 -33 0 -19 -7 -114 -14 -210 -7 -108 -10 -238 -6 -340 8
-187 9 -840 2 -847 -2 -2 0 -18 4 -35 8 -25 7 -29 -7 -24 -13 5 -15 -2 -11
-50 6 -68 -2 -56 -47 74 -18 53 -47 126 -63 162 -16 36 -50 127 -76 203 -26
76 -65 180 -87 230 -22 51 -58 137 -80 192 -22 55 -51 125 -64 155 -13 30 -33
80 -45 110 -12 30 -26 59 -31 64 -18 20 -10 38 13 30 20 -6 21 -5 9 10 -7 9
-21 16 -30 16 -9 0 -32 21 -51 46 -19 25 -48 61 -63 79 -16 19 -26 39 -22 45
3 5 0 10 -7 10 -7 0 -29 21 -48 46 -63 82 -92 114 -103 114 -7 0 -7 -4 1 -12
7 -7 12 -19 13 -27 1 -38 187 -276 227 -293 15 -6 14 -7 -3 -9 -60 -6 -713 4
-733 12 -15 6 -21 5 -17 -1 4 -6 -18 -10 -57 -10 l-64 0 -36 48 c-19 26 -47
67 -61 92 -15 25 -42 63 -62 84 -19 22 -32 43 -28 46 5 4 58 3 118 -1 195 -14
715 -16 704 -3 -13 16 -157 23 -552 29 l-329 5 -35 43 c-45 53 -43 52 -43 42z
m2056 -424 c-4 -5 -1 -13 5 -16 6 -4 8 -20 5 -39 -3 -17 -9 -74 -12 -126 -12
-183 -38 -122 -49 115 -3 64 -10 104 -18 113 -12 11 -13 -3 -10 -90 2 -57 9
-113 15 -125 6 -13 12 -42 12 -65 1 -35 -2 -43 -16 -42 -10 1 -18 -2 -18 -7 0
-5 0 -12 0 -16 0 -5 6 -8 13 -8 8 0 12 -24 13 -85 1 -105 2 -109 14 -90 5 8
10 53 10 98 0 63 3 83 13 79 9 -3 12 -51 14 -190 2 -182 1 -187 -18 -187 -17
0 -20 6 -19 33 1 17 1 52 0 77 l-3 45 -7 -50 c-3 -27 -3 -68 2 -89 6 -25 5
-43 -2 -50 -11 -11 -14 -124 -4 -150 15 -38 24 -9 24 75 0 68 3 90 13 86 9 -3
12 -48 13 -173 1 -94 0 -182 -3 -197 -10 -51 -23 -27 -23 43 0 40 -4 70 -10
70 -6 0 -10 -28 -10 -64 0 -36 -4 -67 -9 -70 -13 -8 -21 18 -14 46 3 17 2 19
-5 9 -8 -11 -12 -4 -19 29 -11 55 -30 64 -29 14 1 -21 7 -39 14 -42 7 -2 12
-13 12 -25 0 -18 -4 -16 -26 15 -21 30 -26 50 -30 115 -2 43 -7 105 -12 139
-4 33 -5 72 -1 87 4 15 3 27 -2 27 -6 0 -5 8 1 20 9 16 8 20 -5 20 -8 0 -15
-3 -16 -7 -2 -20 -6 -115 -8 -177 -1 -93 -11 -78 -16 25 -2 46 -6 99 -9 118
-3 19 -1 40 5 47 6 7 8 26 4 42 -3 16 -8 196 -10 399 -2 203 -7 381 -10 396
-15 57 10 43 127 -72 66 -66 117 -124 114 -130z m-1746 2 c0 -7 -5 -13 -11
-13 -7 0 -8 -7 -4 -17 3 -10 6 -160 5 -333 -5 -1746 -11 -3190 -15 -3259 -2
-50 -8 -87 -15 -91 -9 -5 -9 -13 -2 -27 13 -23 9 -82 -6 -109 -10 -16 -12 -14
-13 21 -3 61 -3 63 -15 75 -8 8 -10 -16 -9 -83 1 -51 -1 -117 -5 -147 -4 -30
-6 -58 -3 -63 9 -15 9 -337 1 -329 -5 5 -11 47 -13 93 -8 202 -17 364 -21 371
-3 5 -1 8 3 8 12 0 14 38 2 46 -6 4 -6 11 2 20 9 11 9 14 -1 14 -7 0 -10 7 -6
15 3 8 1 15 -4 15 -13 0 -13 47 0 55 12 8 13 75 1 75 -5 0 -9 6 -8 13 1 31 -4
57 -10 57 -5 0 -9 -27 -10 -60 -1 -46 2 -60 13 -60 8 0 14 -5 14 -11 0 -6 -7
-9 -15 -6 -12 5 -14 -4 -10 -56 9 -132 15 -351 10 -345 -7 6 -9 34 -20 213 -3
61 -8 134 -11 163 -8 86 -7 420 2 433 5 9 2 10 -9 6 -11 -4 -14 -2 -10 9 3 7
9 14 14 14 5 0 9 15 9 33 -1 56 3 68 17 63 7 -3 13 -1 13 3 0 5 -7 12 -16 15
-9 3 -14 12 -12 18 3 7 -2 19 -9 27 -8 7 -12 25 -9 42 2 16 -4 44 -15 66 -10
20 -19 48 -19 62 0 31 9 22 16 -15 9 -54 15 -64 37 -64 18 0 19 2 7 10 -14 9
-17 20 -23 92 -1 14 -5 29 -8 32 -3 3 -4 20 -1 37 3 23 9 29 21 25 13 -5 13
-4 -1 8 -19 14 -25 42 -8 31 13 -8 13 1 -1 27 -8 15 -8 19 0 14 13 -8 10 29
-4 41 -4 5 -5 2 -1 -4 5 -8 1 -13 -9 -13 -11 0 -15 5 -11 16 3 8 2 12 -4 9 -6
-3 -10 -1 -10 4 0 6 5 11 10 11 6 0 10 5 10 11 0 5 -3 8 -7 6 -5 -3 -9 7 -10
22 -1 15 -3 32 -4 37 -5 26 2 64 11 59 6 -3 10 -2 10 4 0 5 -5 11 -12 13 -9 3
-13 67 -16 229 -9 417 -7 1343 2 1539 5 107 10 204 10 215 0 11 5 23 10 27 7
5 7 8 1 8 -6 0 -9 73 -8 202 1 112 -2 273 -7 358 -6 85 -6 158 -2 162 5 5 30
-23 57 -62 26 -38 51 -70 55 -70 4 0 13 -12 20 -27 10 -20 15 -81 16 -208 3
-233 3 -225 12 -225 4 0 8 94 9 210 l1 209 -50 68 c-28 37 -65 84 -82 103 -17
19 18 -12 77 -70 59 -57 107 -110 107 -117z m339 7 c14 -7 -107 -20 -202 -22
-26 0 -50 -5 -54 -11 -6 -10 130 -6 332 12 61 5 184 12 275 16 91 3 172 8 181
11 24 7 46 -17 57 -66 6 -24 9 -46 7 -48 -2 -2 -18 16 -36 42 -44 62 -50 49
-9 -16 56 -88 115 -206 165 -333 26 -66 56 -138 66 -160 10 -22 35 -85 55
-140 19 -55 42 -118 50 -140 8 -22 20 -51 27 -64 6 -13 12 -29 12 -35 0 -6 9
-27 20 -46 10 -19 20 -41 21 -48 1 -7 11 -32 22 -55 11 -23 45 -118 77 -212
31 -93 76 -220 101 -282 24 -62 44 -117 44 -122 0 -27 73 -223 127 -341 14
-30 32 -73 41 -95 9 -22 24 -53 34 -70 10 -16 22 -39 27 -50 10 -24 49 -60 56
-53 3 2 -7 38 -21 79 -24 71 -25 86 -30 364 -2 160 -6 320 -7 358 -2 37 0 67
5 67 4 0 3 12 -2 26 -13 34 -2 53 17 29 11 -16 13 -16 13 -3 0 9 -7 19 -15 22
-13 5 -15 25 -10 143 3 76 8 374 10 663 2 289 4 535 5 547 0 23 0 23 163 21
89 -1 235 1 323 6 l161 8 6 -33 c8 -58 13 -1828 9 -3551 -1 -433 0 -793 2
-800 3 -7 7 -105 11 -218 l5 -205 -217 3 c-120 1 -250 5 -289 8 -66 5 -72 7
-77 30 -3 16 0 24 9 24 14 0 20 20 7 20 -18 1 -42 28 -49 54 -6 26 -5 27 14
17 25 -14 42 -14 42 -1 0 5 -16 12 -35 16 -26 4 -35 11 -35 26 0 10 -4 17 -9
14 -8 -5 -19 17 -27 54 -3 15 -63 183 -83 233 -6 16 -11 34 -11 42 0 8 -5 17
-11 21 -16 9 -50 91 -93 219 -20 61 -41 119 -45 130 -5 11 -21 54 -36 95 -32
90 -90 231 -115 281 -11 21 -15 41 -10 49 5 8 -2 30 -16 56 -13 24 -24 47 -24
53 0 5 -10 31 -22 58 -12 26 -23 58 -24 69 -1 12 -17 50 -34 85 -18 34 -54
123 -81 197 -26 74 -52 139 -57 146 -5 6 -12 25 -16 41 -7 28 -21 66 -133 354
-24 63 -41 121 -39 128 3 7 1 13 -5 13 -5 0 -9 6 -8 13 1 6 0 23 -1 37 -2 18
-4 20 -7 8 -2 -10 -8 -18 -12 -18 -13 0 -31 24 -31 42 0 10 -6 18 -14 18 -8 0
-22 10 -30 22 -9 12 -16 19 -16 15 0 -11 52 -92 61 -95 5 -2 9 -13 9 -25 0
-20 0 -20 -14 -1 -21 28 -31 10 -11 -20 14 -22 16 -42 11 -128 -3 -57 -6 -139
-6 -183 5 -900 -3 -2015 -14 -2033 -4 -7 -3 -20 2 -29 6 -10 12 -44 13 -77 l4
-58 -180 1 c-99 0 -293 1 -431 1 l-252 0 -7 46 c-3 25 -5 588 -3 1252 2 664 1
1628 -1 2142 -2 514 0 1014 4 1111 7 167 8 178 29 188 13 7 14 10 3 6 -20 -5
-33 16 -23 40 4 12 27 14 148 8 79 -3 149 -9 157 -13z m2310 -1212 c-1 -51 -7
-102 -12 -113 -16 -31 -35 -47 -42 -35 -3 5 -1 10 5 10 6 0 8 5 4 12 -5 8 -12
2 -21 -17 -12 -28 -13 -28 -11 -5 2 14 -2 24 -8 23 -14 -3 -16 7 -17 107 -2
79 -1 85 18 85 19 0 20 -6 18 -88 -2 -67 0 -88 10 -84 8 2 13 32 15 86 3 76
13 110 35 111 5 0 7 -42 6 -92z m11 -233 c0 -9 -6 -12 -15 -9 -9 4 -15 0 -15
-10 0 -9 6 -15 13 -13 7 1 11 -7 9 -23 -1 -14 -3 -42 -5 -62 -1 -21 -6 -38
-12 -38 -5 0 -4 -4 3 -8 16 -11 25 -112 12 -132 -9 -13 -11 -13 -19 0 -6 8
-13 11 -16 8 -10 -10 4 -28 21 -28 16 0 18 -9 4 -30 -6 -10 -10 -11 -10 -2 0
6 -6 12 -13 12 -16 0 -22 155 -8 212 7 30 5 40 -11 57 -15 17 -16 21 -3 21 8
0 15 9 15 20 0 17 19 32 48 39 1 1 2 -6 2 -14z m-44 -841 c-4 -9 0 -27 8 -39
12 -18 14 -53 13 -159 -1 -75 1 -136 5 -136 13 0 18 -37 9 -62 -6 -16 -5 -31
4 -48 8 -15 10 -29 4 -36 -5 -6 -10 -56 -11 -111 -2 -77 0 -99 10 -96 7 3 12
-2 12 -12 0 -11 -5 -15 -15 -11 -9 3 -15 0 -15 -9 0 -8 -4 -15 -10 -15 -5 0
-10 -7 -10 -15 0 -8 -5 -15 -11 -15 -7 0 -5 10 5 25 19 29 21 41 3 27 -10 -8
-13 -6 -14 8 -1 14 3 17 15 12 16 -5 16 -5 0 11 -23 24 -16 171 9 201 15 17
15 19 1 8 -19 -15 -30 -4 -34 35 -2 20 0 22 17 13 19 -11 29 3 10 14 -5 3 -7
15 -4 26 3 11 9 17 14 14 5 -3 9 0 9 5 0 6 -4 11 -8 11 -5 0 -17 7 -28 15 -19
15 -19 15 0 8 16 -5 18 -3 11 13 -4 10 -8 71 -9 135 -2 63 -5 120 -9 125 -5 8
-3 51 2 72 1 1 6 2 12 2 6 0 8 -7 5 -16z m-1321 -1124 c-3 -5 1 -10 10 -10 11
0 15 -6 10 -19 -3 -12 0 -21 9 -24 16 -6 58 -92 70 -142 4 -16 25 -68 48 -114
22 -46 41 -94 42 -107 0 -13 4 -24 9 -24 4 0 7 -9 7 -20 0 -11 3 -20 8 -20 11
0 54 -116 51 -137 -2 -10 3 -28 10 -41 7 -13 11 -31 9 -40 -3 -15 -37 47 -70
128 -6 14 -16 37 -24 51 -7 14 -25 59 -39 100 -15 41 -32 88 -40 104 -7 17
-19 46 -28 65 -29 67 -52 135 -49 148 2 6 -1 12 -6 12 -5 0 -14 17 -21 38 -7
20 -15 43 -17 50 -3 6 -1 12 6 12 6 0 8 -4 5 -10z m1371 -146 c-3 -46 -3 -46
25 -40 32 6 33 5 29 -99 -2 -60 -13 -76 -37 -52 -11 11 -17 34 -17 68 -1 33
-6 54 -13 57 -10 3 -13 -16 -13 -72 0 -62 -3 -76 -15 -76 -13 0 -16 16 -14
100 1 54 4 99 8 98 30 -3 38 4 35 32 -2 17 1 30 6 30 5 0 8 -21 6 -46z m-2877
-172 c-1 -10 0 -19 1 -22 7 -17 7 -90 -1 -90 -5 0 -4 -12 2 -27 5 -14 6 -29 2
-32 -5 -3 -7 -24 -6 -46 4 -53 4 -45 4 -250 0 -168 2 -216 14 -272 6 -26 -7
-30 -25 -8 -9 11 -12 106 -12 377 0 200 2 371 3 380 3 22 21 12 18 -10z m2876
-191 c-9 -41 -9 -40 25 -45 17 -2 28 0 25 4 -3 5 -1 11 3 14 11 6 9 -130 -1
-140 -4 -4 -7 -20 -7 -36 0 -23 -4 -29 -17 -26 -15 3 -18 15 -19 83 0 50 -4
80 -12 83 -15 5 -21 -25 -24 -117 -2 -50 -7 -76 -16 -79 -9 -3 -11 3 -7 21 11
42 12 109 2 162 -7 40 -6 51 7 61 20 14 20 24 1 24 -8 0 -15 5 -15 11 0 7 10
9 25 5 16 -4 25 -2 25 5 0 7 3 10 6 6 3 -3 3 -19 -1 -36z"/>
<path d="M16942 7322 c-9 -6 -12 -36 -10 -113 l3 -104 43 -3 c29 -2 42 0 37 7
-3 6 -17 11 -31 11 -24 0 -24 1 -24 89 l0 89 33 5 c17 2 35 0 39 -6 4 -6 5
-51 2 -99 -3 -74 -2 -88 11 -88 10 0 15 11 16 33 2 62 -2 171 -6 176 -9 9
-101 12 -113 3z"/>
<path d="M17135 7320 c-11 -17 -14 -80 -4 -74 5 3 9 -17 9 -45 0 -30 -5 -51
-12 -54 -10 -4 -10 -7 0 -18 12 -13 117 -20 124 -8 2 2 2 50 0 107 l-3 102
-54 0 c-30 0 -57 -5 -60 -10z"/>
<path d="M16744 6917 c-2 -7 -3 -60 -2 -118 l3 -104 29 -3 c16 -2 44 -1 63 3
l33 6 0 102 c0 67 -4 107 -12 115 -17 17 -107 16 -114 -1z"/>
<path d="M16937 6924 c-4 -4 -7 -56 -7 -115 0 -123 3 -127 86 -114 l45 6 -3
112 -3 112 -55 3 c-31 2 -59 0 -63 -4z"/>
<path d="M17137 6923 c-3 -5 -6 -55 -8 -112 l-4 -105 30 -8 c16 -4 46 -3 66 2
l37 10 0 102 c1 70 -3 105 -11 110 -15 10 -104 10 -110 1z"/>
<path d="M16963 6503 c-13 -2 -23 -12 -23 -21 -1 -9 -3 -56 -6 -104 l-5 -88
27 -11 c16 -5 45 -7 65 -4 l36 6 7 101 c4 56 3 104 -1 109 -11 10 -73 18 -100
12z"/>
<path d="M17143 6503 c-9 -3 -13 -35 -13 -108 0 -108 3 -116 48 -115 15 1 15
2 1 10 -12 7 -16 28 -16 99 l-1 89 30 4 c16 3 31 1 34 -4 3 -5 4 -48 3 -95 -2
-55 1 -88 7 -90 13 -4 24 65 24 147 0 51 -2 58 -22 64 -27 7 -78 7 -95 -1z"/>
<path d="M16738 6410 c-1 -49 -2 -100 -2 -112 -1 -22 3 -23 64 -23 l65 0 3
113 3 112 -66 0 -65 0 -2 -90z"/>
<path d="M16758 6098 c-19 -14 -23 -45 -20 -155 2 -61 4 -71 18 -66 13 5 15
22 12 102 l-3 96 33 3 32 3 0 -100 c0 -94 1 -101 20 -101 19 0 20 7 20 104 0
58 -4 107 -8 110 -23 14 -88 17 -104 4z"/>
<path d="M16958 6103 l-28 -4 0 -109 0 -108 33 -6 c18 -3 48 -3 65 0 l32 7 0
107 0 108 -31 6 c-17 3 -34 5 -38 5 -3 -1 -18 -4 -33 -6z"/>
<path d="M17133 6084 c-3 -8 -6 -58 -7 -111 l-1 -96 30 -8 c40 -11 93 8 97 35
2 12 2 60 0 109 l-3 87 -55 0 c-40 0 -56 -4 -61 -16z"/>
<path d="M16762 5703 c-22 -4 -23 -7 -20 -116 3 -126 2 -125 84 -112 l44 6 0
108 0 109 -31 6 c-33 6 -39 6 -77 -1z"/>
<path d="M16958 5703 l-28 -4 0 -109 0 -109 34 -7 c19 -3 48 -3 64 1 26 5 30
11 36 52 3 25 6 72 6 105 0 54 -2 59 -26 68 -26 10 -36 10 -86 3z m82 -119 l0
-95 -42 3 c-27 2 -43 8 -42 16 1 6 2 48 3 92 l1 80 40 0 40 0 0 -96z"/>
<path d="M17131 5688 c-5 -13 -9 -62 -10 -110 -2 -97 5 -108 71 -108 54 0 57
6 59 120 2 116 1 118 -74 119 -30 1 -39 -3 -46 -21z"/>
<path d="M16748 5269 c-15 -8 -18 -25 -17 -114 1 -101 2 -104 26 -110 14 -3
44 -3 68 1 l43 6 1 108 c0 103 -1 108 -22 114 -33 9 -80 7 -99 -5z m96 -51 c3
-18 5 -60 3 -93 l-2 -60 -49 -3 -48 -3 3 86 c4 93 11 105 61 105 23 0 28 -5
32 -32z"/>
<path d="M16937 5274 c-4 -4 -7 -56 -7 -115 l0 -107 29 -7 c16 -3 46 -3 65 1
l37 6 -3 112 -3 111 -55 3 c-31 2 -59 0 -63 -4z m94 -16 c5 -30 9 -155 5 -173
-5 -21 -13 -25 -40 -25 l-35 0 -3 91 c-2 73 0 93 12 100 13 8 59 13 61 7z"/>
<path d="M17170 5270 l-35 -5 -3 -108 c-3 -122 -2 -124 73 -113 l45 7 0 108
c0 122 -1 123 -80 111z"/>
<path d="M16747 4843 c-4 -3 -7 -53 -7 -109 l0 -103 47 -7 c73 -11 78 -4 81
120 l3 106 -59 0 c-32 0 -62 -3 -65 -7z m101 -110 l3 -93 -46 0 -45 0 0 96 0
95 43 -3 42 -3 3 -92z"/>
<path d="M16951 4841 c-11 -7 -14 -32 -13 -107 1 -54 4 -100 7 -103 10 -9 73
-11 96 -2 23 8 24 13 24 112 l0 104 -50 3 c-27 1 -56 -2 -64 -7z"/>
<path d="M17143 4843 c-9 -3 -13 -35 -13 -108 l0 -102 29 -6 c15 -3 41 -3 57
2 29 7 29 9 36 102 5 52 6 100 3 107 -4 12 -86 16 -112 5z"/>
<path d="M16570 4444 c-13 -4 -15 -24 -14 -112 l1 -107 44 0 c79 1 78 1 76
117 l-2 103 -45 2 c-25 0 -52 -1 -60 -3z"/>
<path d="M16758 4428 c-2 -13 -4 -63 -3 -113 l0 -90 60 0 60 0 1 113 1 112
-57 0 c-52 0 -58 -2 -62 -22z"/>
<path d="M16954 4442 c-7 -4 -13 -49 -15 -111 l-4 -104 30 -8 c17 -5 45 -4 67
3 l38 11 0 109 0 108 -52 0 c-29 0 -58 -4 -64 -8z"/>
<path d="M17148 4340 c-3 -58 -2 -109 2 -113 4 -5 27 -5 51 0 l44 9 3 106 3
106 -50 -1 -49 -2 -4 -105z"/>
<path d="M16568 3923 c-4 -124 2 -135 59 -123 20 5 42 8 47 7 12 -2 12 48 -1
138 -8 63 -29 85 -80 85 -21 0 -22 -5 -25 -107z"/>
<path d="M16968 4023 c-10 -2 -18 -5 -19 -6 0 -1 -3 -47 -6 -101 -3 -76 -2
-101 9 -107 20 -13 96 -11 105 4 9 14 4 189 -5 198 -10 10 -64 18 -84 12z"/>
<path d="M16978 3643 c-27 -4 -28 -7 -28 -62 0 -32 -3 -78 -6 -103 l-6 -45 38
-6 c23 -4 50 -1 66 6 28 12 28 13 28 102 0 49 -4 95 -8 100 -7 12 -39 14 -84
8z"/>
<path d="M16762 3628 c-6 -7 -9 -53 -9 -103 l2 -90 37 -9 c28 -7 42 -6 60 6
21 14 23 23 24 104 1 57 -2 92 -10 96 -18 12 -93 9 -104 -4z"/>
<path d="M17147 3632 c-3 -4 -7 -48 -8 -97 -3 -88 -3 -90 20 -93 13 -2 39 -1
57 3 l34 6 0 94 0 95 -49 0 c-28 0 -52 -3 -54 -8z"/>
<path d="M4768 7968 c-3 -30 -5 -33 -33 -29 -78 12 -900 4 -870 -8 44 -17 686
-33 786 -20 51 7 85 -4 59 -20 -8 -5 -24 -16 -35 -25 -11 -9 -61 -47 -111 -85
-49 -38 -96 -76 -103 -85 -8 -9 -19 -16 -25 -16 -6 0 -22 -16 -36 -34 l-25
-34 -225 5 c-269 7 -332 21 -105 24 225 2 286 6 298 18 7 7 -7 9 -44 6 -30 -2
-140 -4 -246 -5 -157 0 -194 -3 -207 -15 -16 -17 -56 -20 -56 -5 0 11 -119 14
-170 4 -22 -5 -28 -9 -18 -15 9 -6 5 -8 -12 -8 -14 1 -41 -2 -60 -6 -40 -9
-36 -1 20 35 122 80 309 212 320 225 27 32 -2 26 -67 -14 -37 -23 -143 -93
-234 -154 -92 -62 -175 -118 -185 -124 -17 -11 -16 -12 7 -7 17 3 30 1 35 -8
5 -7 9 -150 10 -318 0 -168 4 -443 9 -612 l8 -306 -26 -26 c-24 -24 -32 -26
-123 -26 l-97 0 -34 40 c-19 22 -43 40 -52 40 -10 0 -31 -18 -46 -40 -18 -25
-35 -40 -49 -40 l-21 0 -2 581 c-2 320 0 586 3 591 4 6 10 5 15 -3 11 -19 1
331 -12 398 -1 4 2 22 6 40 5 24 14 33 34 37 34 6 -708 -3 -824 -10 -98 -6
-144 -22 -190 -64 -43 -40 -189 -124 -193 -111 -6 17 -22 13 -22 -5 0 -19 -19
-36 -73 -65 -37 -20 -39 -20 -53 -2 -7 10 -14 22 -14 26 0 5 -4 6 -9 3 -5 -3
-7 -14 -4 -25 3 -12 -3 -24 -18 -35 -18 -13 -20 -16 -7 -16 14 0 17 -10 17
-52 0 -29 2 -123 5 -208 3 -85 10 -285 16 -445 5 -159 8 -308 6 -330 -3 -22
-7 -119 -10 -215 -4 -96 -9 -204 -13 -240 -4 -36 -5 -69 -4 -75 2 -5 5 -114 6
-241 1 -127 5 -235 7 -240 18 -30 24 -879 9 -1119 -8 -129 -7 -285 3 -345 2
-14 7 -59 10 -100 10 -108 43 -272 74 -365 29 -88 113 -258 167 -338 18 -29
32 -54 29 -56 -2 -3 -41 31 -86 75 -44 43 -73 68 -64 54 38 -58 368 -380 419
-409 77 -44 85 -56 91 -139 5 -68 4 -73 -17 -82 -14 -6 49 -9 178 -10 221 -2
234 -3 320 -19 71 -12 732 -14 719 -1 -5 4 -43 11 -84 14 -159 12 -210 19
-204 27 7 12 87 12 100 0 5 -6 31 -5 64 0 64 11 140 13 181 4 23 -5 28 -3 23
8 -7 19 29 26 175 33 119 6 167 17 156 34 -3 5 2 10 12 11 10 1 1 5 -20 10
-24 6 -45 5 -55 -1 -14 -7 -10 -9 16 -10 18 0 31 -4 28 -9 -8 -12 -72 -5 -69
8 2 6 -2 11 -7 11 -6 0 -10 -4 -10 -9 0 -4 -17 -11 -37 -14 -21 -4 -51 -9 -68
-12 -16 -3 -23 -2 -15 1 55 25 210 97 233 110 16 9 31 13 34 10 3 -3 7 -44 8
-90 l3 -85 -171 0 c-207 1 -209 0 -177 -12 14 -6 84 -13 156 -16 111 -5 138
-3 178 12 35 14 50 15 58 7 17 -17 35 -15 58 8 11 11 27 20 35 20 8 0 15 7 15
15 0 8 5 15 11 15 6 0 9 7 5 15 -3 9 0 15 7 15 7 0 23 9 35 20 22 21 62 27 62
9 0 -5 -4 -8 -9 -5 -5 4 -16 3 -25 0 -47 -18 6 -24 219 -24 150 0 235 4 235
10 0 6 -8 10 -17 10 -10 1 -85 2 -166 4 -81 1 -152 7 -157 12 -6 6 33 8 108 6
166 -5 136 13 -38 23 -36 2 -67 4 -69 4 -2 1 2 8 9 16 7 8 17 12 22 9 17 -11
228 -16 228 -6 0 5 -30 10 -67 10 -38 1 -104 3 -147 5 -67 3 -83 0 -98 -15
-20 -20 -53 -24 -63 -8 -3 6 5 10 19 10 14 0 28 4 31 10 7 11 -22 13 -78 3
-26 -4 -34 -9 -25 -14 10 -7 10 -9 -2 -9 -8 0 -31 14 -50 31 -31 27 -32 29
-10 23 14 -4 115 -6 225 -4 344 5 519 4 560 -3 l40 -7 -40 16 c-31 12 -84 16
-242 17 -112 1 -203 5 -203 10 0 4 19 7 43 8 110 2 297 -1 340 -7 31 -4 47 -2
47 5 0 6 -19 11 -42 12 -24 0 -70 2 -103 4 -148 11 -221 12 -259 3 -27 -6 -42
-6 -44 1 -2 6 -8 11 -13 11 -6 0 -7 -4 -4 -10 3 -5 -1 -10 -9 -10 -9 0 -15 6
-13 13 1 9 -15 11 -63 9 -67 -3 -78 9 -12 15 20 1 49 5 65 8 15 2 27 1 27 -4
0 -10 325 -9 336 2 4 4 -5 7 -20 7 -15 0 -25 4 -21 9 3 5 28 8 55 6 28 -2 50
1 50 5 0 11 -57 19 -190 25 -58 3 -123 7 -145 9 -22 2 -48 0 -58 -6 -12 -6
-37 -5 -72 2 -41 9 -74 8 -131 0 -42 -6 -78 -9 -81 -6 -4 3 38 50 93 105 170
170 358 369 337 357 -9 -5 -11 -2 -7 8 3 8 12 17 20 20 7 3 11 12 8 20 -3 8
-1 17 5 20 24 15 111 224 136 326 7 30 25 98 39 150 50 179 73 339 52 352 -7
5 -5 8 6 8 16 0 20 32 6 55 -3 6 -4 31 -3 58 1 26 0 47 -4 47 -3 0 -6 60 -7
132 0 119 -12 638 -15 656 -1 4 0 12 1 17 1 6 1 170 0 365 -1 195 -1 600 1
900 3 724 3 719 -1 920 -4 237 -6 222 35 244 19 11 35 23 35 28 0 11 -17 10
-25 -2 -3 -5 -17 -10 -30 -10 -17 0 -24 5 -23 18 3 40 -3 82 -11 82 -6 0 -11
-15 -13 -32z m-1778 -60 c0 -7 -41 -40 -90 -72 -49 -33 -98 -68 -107 -79 -31
-35 -135 -107 -154 -107 -10 0 -19 -7 -19 -15 0 -8 -6 -15 -12 -15 -7 0 -114
-3 -236 -7 -177 -5 -225 -4 -232 7 -6 9 -52 13 -184 14 -97 0 -176 3 -176 6 1
7 162 111 230 149 31 17 69 44 85 61 l29 30 235 0 c209 0 286 4 525 25 33 3
62 7 64 10 11 10 42 5 42 -7z m-22 -348 c-11 -302 -11 -333 -2 -755 4 -148 3
-332 -1 -408 -7 -133 -8 -137 -30 -143 -31 -8 -50 3 -36 20 17 21 25 124 11
141 -9 11 -9 15 -1 15 12 0 11 37 -2 58 -5 7 -4 12 2 12 6 0 11 11 11 25 0 14
-4 25 -8 25 -10 0 -41 -121 -35 -133 3 -5 6 -46 6 -92 l2 -83 -45 -15 c-25 -8
-57 -18 -72 -21 -28 -6 -28 -6 -29 51 -2 133 -9 267 -14 271 -6 7 -8 -47 -5
-210 1 -87 -2 -128 -9 -128 -7 0 -11 23 -12 58 -1 114 9 746 13 845 2 31 0 57
-5 57 -4 0 -5 10 -2 23 3 12 7 67 10 122 2 55 6 118 7 140 2 22 5 69 6 105 l2
65 62 50 c72 58 158 145 158 161 0 10 21 36 26 31 1 -1 -2 -130 -8 -287z
m1788 198 c-6 -94 -6 -1519 -1 -2005 3 -228 1 -373 -5 -373 -5 0 -7 -29 -5
-67 3 -38 7 -117 10 -178 3 -60 7 -144 10 -185 4 -80 7 -235 5 -260 -1 -10 -4
-9 -9 5 -5 12 -10 -22 -15 -90 -10 -149 -16 -208 -21 -214 -5 -5 -9 87 -6 132
1 15 -2 27 -7 27 -11 0 -21 -110 -11 -116 4 -2 3 -20 -1 -40 -6 -26 -5 -34 4
-31 6 3 12 -3 12 -13 0 -10 -5 -16 -11 -14 -6 3 -10 -37 -11 -113 -2 -214 -21
-319 -77 -429 l-25 -49 5 45 c5 41 21 88 44 132 13 25 11 31 -5 25 -10 -4 -13
-1 -9 8 3 8 9 12 14 9 5 -3 9 2 9 11 0 10 -5 13 -11 9 -17 -10 -2 48 16 62 11
8 12 13 2 24 -9 10 -9 11 1 6 8 -5 12 0 12 13 0 12 -4 21 -10 21 -5 0 -10 -5
-10 -11 0 -5 -5 -7 -12 -3 -7 4 -8 3 -4 -4 4 -6 0 -25 -9 -41 -8 -17 -15 -43
-15 -59 0 -16 -8 -40 -18 -53 -28 -36 -52 -89 -41 -89 6 0 7 -5 3 -11 -11 -19
-24 13 -13 33 6 10 7 23 4 28 -3 5 -1 11 5 15 13 8 13 18 -4 40 -12 17 -13 14
-14 -28 -1 -26 -6 -56 -12 -67 -6 -11 -8 -20 -4 -20 3 0 -5 -15 -20 -34 -15
-20 -23 -41 -20 -50 3 -9 2 -16 -4 -16 -5 0 -15 -13 -22 -30 -12 -30 -30 -41
-30 -18 0 37 26 118 38 118 7 0 10 -5 6 -12 -4 -7 -3 -8 4 -4 7 4 12 14 12 22
0 8 4 14 9 14 4 0 13 23 18 50 8 41 8 48 -3 39 -7 -6 -11 -16 -8 -24 6 -16
-12 -29 -21 -15 -3 5 1 19 9 31 8 12 12 27 10 34 -3 7 0 16 7 21 9 5 10 2 6
-9 -3 -10 -2 -17 3 -17 6 0 10 7 10 16 0 9 9 18 20 21 11 3 20 10 20 15 0 5
-5 6 -11 2 -8 -4 -8 -1 0 14 7 13 17 19 26 16 8 -4 15 -1 15 5 0 6 -6 11 -12
11 -9 1 -7 5 3 13 9 7 19 22 23 35 4 12 12 22 17 22 5 0 8 3 7 8 -3 15 15 42
25 35 6 -3 7 -1 3 6 -4 6 -12 9 -17 6 -5 -4 -9 -1 -9 4 0 6 3 11 8 11 4 0 13
14 21 30 10 24 10 34 1 45 -7 9 -9 26 -5 45 7 30 -7 43 -19 18 -4 -7 -3 -2 0
12 13 51 16 110 6 110 -6 0 -13 8 -15 18 -2 9 -2 -7 1 -35 3 -32 0 -58 -6 -66
-7 -7 -11 -46 -11 -86 1 -57 -3 -75 -16 -85 -16 -11 -16 -14 -1 -28 9 -9 16
-22 16 -29 0 -10 -3 -10 -12 -1 -9 9 -18 5 -39 -18 -24 -25 -28 -27 -26 -10 1
11 7 22 14 24 7 3 13 21 13 39 0 19 7 40 15 47 8 7 15 16 15 21 0 5 -7 6 -15
3 -12 -5 -15 2 -15 29 0 45 -11 97 -20 97 -3 0 -7 -6 -8 -12 -3 -40 -3 -58 1
-100 5 -54 -9 -64 -24 -18 -6 17 -15 30 -20 30 -16 0 -10 53 13 119 17 47 29
67 48 75 82 36 105 80 75 146 -10 22 -23 36 -30 34 -21 -9 -36 22 -30 62 3 22
7 62 8 89 2 56 21 78 24 28 0 -17 6 -40 13 -50 9 -15 10 -11 5 22 -3 22 -8 48
-11 58 -3 10 0 17 9 17 23 0 38 41 28 77 -5 17 -7 34 -3 37 3 3 -4 16 -15 29
-13 13 -27 53 -37 102 -9 44 -21 84 -26 89 -6 6 -6 14 1 22 18 22 13 116 -10
176 -7 20 -16 231 -12 303 4 74 -2 247 -9 280 -8 37 -9 35 -8 -25 0 -36 -1
-68 -2 -72 -2 -8 -3 -56 -1 -60 1 -2 3 -93 5 -204 2 -124 8 -208 15 -221 17
-33 13 -41 -8 -16 -10 12 -21 20 -24 16 -9 -8 -16 32 -21 119 -3 43 -10 86
-15 96 -6 11 -13 84 -16 163 -2 79 -8 214 -11 299 -11 266 -16 659 -14 1142
l1 316 37 28 c20 15 42 32 47 38 6 7 27 22 48 35 22 14 37 30 37 42 0 16 -10
12 -59 -28 -88 -71 -104 -83 -116 -83 -12 1 22 30 111 95 38 27 75 49 81 47 8
-2 10 3 7 13 -4 10 0 15 10 15 9 0 16 7 16 16 0 8 5 12 10 9 6 -3 13 1 16 9 3
9 10 16 15 16 4 0 19 11 33 25 14 14 28 25 31 25 3 0 3 -33 1 -72z m-2731
-148 c112 -2 113 -5 5 -28 -33 -7 41 -10 265 -10 l310 0 3 -293 c2 -261 4
-894 2 -1021 0 -35 -4 -48 -14 -48 -29 0 -68 -45 -75 -86 -5 -36 -13 -44 -86
-92 -49 -32 -86 -50 -95 -46 -40 18 -78 16 -100 -6 -19 -19 -22 -30 -18 -71 5
-47 3 -52 -41 -102 -25 -30 -60 -71 -77 -93 -26 -32 -36 -38 -63 -36 -22 2
-39 -5 -56 -22 -29 -29 -32 -57 -9 -95 15 -26 14 -30 -24 -106 -22 -44 -43
-91 -47 -105 -10 -35 -24 -50 -46 -50 -58 0 -80 -97 -34 -152 14 -16 23 -33
21 -37 -3 -4 -10 -39 -16 -77 -18 -118 -20 -122 -52 -139 -17 -8 -32 -15 -33
-15 -1 0 -6 134 -10 298 -4 163 -9 313 -10 332 -14 194 -18 371 -15 620 6 386
6 771 0 1159 l-5 315 25 7 c14 4 61 6 105 4 44 -2 130 -4 190 -5z m1934 -34
c9 -7 48 -10 109 -8 102 4 282 -6 299 -16 8 -5 13 -202 17 -602 7 -777 15
-1214 21 -1272 7 -55 2 -60 -20 -18 -10 20 -25 31 -48 35 -27 5 -46 22 -96 89
-52 68 -64 91 -65 124 -3 56 -30 85 -74 80 -27 -3 -51 7 -125 52 -81 50 -92
60 -89 82 4 32 -42 88 -71 88 -11 0 -28 -7 -38 -16 -17 -15 -26 -13 -130 20
-61 20 -117 36 -124 36 -16 0 -40 28 -31 37 3 3 15 -2 26 -12 26 -23 26 -3 1
33 -18 25 -20 51 -25 292 -3 146 -7 321 -10 390 -3 69 -8 206 -11 305 -6 188
-7 210 -19 262 l-7 32 153 4 c197 4 339 -2 357 -17z m-573 -1357 c8 -14 -49
-67 -82 -75 -27 -7 -60 7 -94 38 -37 35 -20 4 21 -38 l41 -42 43 29 c24 16 48
29 54 29 6 0 11 6 11 14 0 11 57 32 66 24 1 -2 5 -34 8 -71 4 -60 3 -67 -12
-63 -37 11 -222 28 -255 23 -19 -2 -41 -1 -48 4 -7 4 -16 4 -19 -1 -3 -5 -33
-12 -66 -15 l-62 -7 5 26 c3 14 22 45 43 69 33 37 43 43 76 41 22 -1 50 5 64
12 31 16 196 19 206 3z m-420 -80 c-1 -68 -3 -73 -26 -80 -14 -4 -56 -17 -94
-29 -71 -22 -87 -21 -66 5 10 12 10 15 -3 15 -9 0 -22 10 -28 22 -7 13 -18 29
-26 37 -19 18 -11 24 76 55 56 20 77 24 87 15 19 -15 8 -57 -24 -91 l-25 -27
30 2 c20 1 29 6 26 15 -3 7 3 22 13 34 11 12 15 22 8 25 -18 6 -4 60 19 71 12
5 25 8 28 6 3 -1 5 -35 5 -75z m694 15 c61 -23 89 -45 90 -69 1 -19 1 -19 11
-2 10 17 13 17 27 3 10 -8 58 -35 107 -60 82 -41 153 -94 129 -97 -5 -1 -65
-3 -134 -4 l-125 -2 -62 34 c-35 19 -62 39 -60 45 1 6 -4 13 -12 16 -9 3 -11
0 -6 -8 9 -14 -14 -8 -80 20 l-40 17 2 69 c1 38 2 69 2 70 4 5 116 -19 151
-32z m-1099 -126 c-11 -18 -27 -59 -37 -90 -15 -50 -30 -70 -125 -164 -60 -60
-112 -105 -116 -101 -11 12 -5 108 8 123 6 8 33 17 60 20 27 4 49 10 49 15 0
5 7 9 15 9 20 0 18 20 -5 50 -35 45 -27 61 63 117 97 62 114 66 88 21z m839
-7 l45 -17 7 -64 c3 -36 6 -173 5 -305 -2 -232 -3 -241 -26 -285 -31 -59 -132
-302 -128 -307 4 -3 24 40 75 157 8 19 23 53 33 76 11 22 19 46 19 52 0 7 4
12 9 12 13 0 18 -86 8 -131 -5 -19 -39 -75 -78 -125 -38 -49 -77 -101 -87
-117 -11 -17 -22 -25 -32 -21 -8 4 -28 10 -45 13 -22 5 -29 13 -28 27 1 10 -3
66 -8 124 -6 58 -12 239 -14 404 -2 164 -6 300 -8 303 -11 10 -15 -102 -12
-367 2 -157 5 -296 8 -310 3 -14 8 -60 12 -103 5 -71 4 -78 -11 -75 -11 2 -26
30 -44 83 -15 44 -40 109 -56 145 l-28 65 -4 379 c-2 231 1 383 6 388 27 27
308 26 382 -1z m-423 -197 c-3 -108 -9 -199 -12 -202 -6 -6 -5 -9 -10 83 -8
133 -13 186 -18 191 -3 3 -3 12 0 20 7 19 -5 64 -18 64 -7 0 -8 -33 -3 -102 3
-57 8 -122 9 -144 3 -51 25 -144 33 -144 6 0 8 -315 3 -399 -2 -32 -22 -14
-40 36 -7 21 -19 45 -27 53 -7 8 -31 56 -54 105 -23 50 -46 98 -51 107 -5 10
-6 24 -3 33 4 8 1 59 -5 113 -6 53 -13 138 -15 187 -3 50 -7 97 -11 106 -7 18
16 31 95 54 30 9 66 20 80 24 56 19 54 27 47 -185z m696 100 c70 -35 184 -109
228 -148 19 -17 57 -49 83 -71 58 -48 157 -189 214 -301 42 -84 102 -277 107
-342 1 -20 6 -46 11 -57 5 -11 9 -99 9 -195 0 -165 -2 -182 -32 -295 -60 -223
-125 -357 -236 -485 -52 -61 -171 -165 -233 -206 -89 -58 -194 -114 -212 -114
-4 0 -19 33 -31 73 -12 39 -36 108 -54 152 -22 57 -32 102 -35 158 -2 42 0 77
5 77 4 0 43 -71 86 -158 86 -174 115 -227 123 -219 3 3 -38 91 -91 197 -110
219 -128 278 -121 381 3 40 8 74 11 77 2 3 15 -8 27 -24 81 -104 417 -457 399
-419 -5 11 -62 76 -127 145 -64 69 -159 171 -210 228 l-94 103 0 59 c0 32 -3
65 -6 74 -9 23 10 20 53 -10 37 -25 479 -246 558 -278 90 -38 7 10 -175 100
-107 53 -248 125 -312 161 l-118 64 0 51 c0 47 1 50 23 45 80 -20 625 -88 692
-86 37 1 -29 11 -355 54 -69 9 -160 23 -204 31 -43 8 -93 14 -112 14 -18 0
-36 5 -40 12 -7 10 -8 77 -2 84 2 1 80 15 173 29 222 35 605 123 605 140 0 7
-56 -5 -130 -26 -156 -44 -638 -125 -653 -110 -5 5 -7 32 -5 61 l3 54 60 34
c333 190 607 354 600 360 -2 2 -70 -34 -152 -81 -386 -220 -476 -270 -495
-275 -19 -5 -20 -2 -17 80 l4 85 57 74 c31 41 109 141 173 223 64 81 114 151
111 154 -3 3 -7 3 -9 1 -1 -2 -16 -20 -32 -39 -17 -20 -46 -56 -65 -80 -19
-24 -58 -71 -86 -104 -28 -34 -69 -87 -92 -118 -64 -87 -66 -86 -58 43 4 63 8
123 9 134 0 11 6 23 11 27 7 5 7 8 -1 8 -10 0 -13 52 -13 228 0 126 3 231 6
234 6 6 76 -23 167 -68z m-929 -36 c3 -29 6 -84 6 -123 0 -68 14 -191 26 -229
12 -36 -18 -11 -44 39 -15 27 -33 54 -40 60 -8 7 -15 54 -19 141 l-6 132 29
15 c16 9 32 16 35 17 3 0 9 -24 13 -52z m1318 16 c7 -9 28 -31 47 -48 83 -77
124 -125 150 -176 15 -30 36 -69 46 -87 19 -30 19 -32 2 -51 -9 -10 -17 -30
-17 -43 1 -35 -5 -68 -13 -75 -4 -4 -7 -14 -7 -22 0 -11 3 -12 14 -3 13 11 32
97 29 129 -2 27 32 5 54 -33 21 -38 60 -181 51 -190 -7 -7 -81 17 -108 35 -14
9 -33 20 -42 23 -9 3 -29 30 -44 59 -28 56 -153 248 -168 259 -5 4 -5 12 -2
18 4 6 1 11 -7 11 -8 0 -22 9 -33 21 -10 12 -62 53 -114 91 -52 39 -98 74
-102 77 -4 3 42 6 103 7 60 0 109 -2 109 -5 -1 -3 -5 -25 -9 -48 -4 -23 -4
-48 0 -55 6 -9 9 -4 9 15 0 33 22 107 32 107 4 0 13 -7 20 -16z m-1437 -94 c0
-57 -3 -79 -12 -76 -8 4 -8 -4 2 -27 13 -31 27 -387 15 -387 -3 0 -45 33 -94
73 -157 127 -186 150 -191 146 -2 -2 44 -45 103 -94 59 -49 127 -109 151 -132
40 -39 43 -46 37 -78 -5 -27 -3 -37 9 -42 14 -5 14 -8 3 -15 -10 -7 -10 -11 0
-15 15 -6 16 -63 1 -63 -6 0 -9 6 -6 13 4 10 -2 13 -19 9 -13 -2 -31 1 -39 8
-9 7 -18 10 -21 7 -3 -3 8 -12 24 -21 31 -16 42 -34 42 -67 0 -10 5 -19 10
-19 6 0 10 -5 10 -11 0 -5 -4 -8 -9 -5 -5 3 -8 -6 -8 -21 0 -15 -5 -29 -11
-31 -7 -2 -7 -14 -1 -35 11 -38 12 -107 2 -107 -70 -1 -538 -31 -541 -35 -9
-8 89 -5 318 9 118 8 218 12 222 10 5 -3 8 -40 8 -83 l0 -78 -92 -33 c-170
-59 -360 -134 -349 -138 7 -2 53 12 104 31 158 61 281 105 310 112 l27 7 1
-58 c0 -33 2 -69 3 -81 1 -12 0 -26 -3 -31 -3 -5 -69 -57 -146 -115 -145 -109
-235 -185 -199 -168 12 6 92 65 179 131 86 67 160 119 162 116 3 -3 7 -96 8
-208 1 -112 8 -232 15 -267 11 -63 57 -169 88 -203 8 -10 12 -18 9 -18 -14 0
-96 44 -92 50 2 3 -18 16 -45 29 -31 15 -92 65 -163 135 -205 200 -273 295
-322 446 -10 30 -22 66 -27 79 -14 36 -36 175 -46 282 -8 91 0 265 14 298 4 9
8 30 10 46 8 57 56 210 75 237 10 15 19 32 19 38 0 23 69 157 96 186 16 17 35
42 42 55 7 14 29 41 48 59 19 19 43 43 52 54 61 66 89 92 145 131 34 24 64 44
67 45 3 0 5 -36 5 -80z m-341 11 c4 -5 0 -11 -6 -13 -9 -3 -13 -30 -13 -90 0
-82 -1 -86 -34 -123 -18 -21 -47 -68 -63 -104 -35 -78 -62 -138 -94 -206 -13
-28 -24 -56 -24 -63 0 -23 -47 -13 -66 14 -10 14 -26 35 -35 47 -15 19 -14 24
3 69 32 84 69 148 87 148 14 0 14 -2 1 -10 -8 -5 -11 -12 -8 -15 4 -4 17 0 30
9 12 9 30 16 39 16 9 0 25 11 35 25 10 14 25 25 32 25 9 0 7 11 -8 39 -11 22
-24 42 -30 46 -20 12 -9 34 56 114 62 76 85 93 98 72z m484 -356 c13 -36 41
-85 150 -269 19 -32 37 -71 39 -85 8 -56 10 -91 6 -91 -5 0 -233 207 -249 227
-6 7 -14 79 -18 166 -4 83 -10 163 -13 177 -7 34 64 -71 85 -125z m1582 -163
l55 -27 0 -52 c0 -29 3 -53 7 -53 5 0 8 -40 8 -90 0 -55 -4 -90 -10 -90 -7 0
-7 -6 0 -20 7 -12 9 -60 5 -127 -3 -60 -5 -168 -6 -241 -1 -147 2 -140 -71
-187 -47 -30 -48 -23 -13 90 14 44 25 87 25 95 0 8 7 28 15 44 12 23 13 40 6
85 -6 31 -12 120 -15 199 -2 87 -8 148 -15 156 -7 8 -21 51 -31 95 -11 44 -26
97 -34 116 -14 32 -14 35 2 35 9 0 42 -13 72 -28z m116 -85 c16 -72 31 -226
28 -287 -1 -35 0 -69 3 -74 10 -15 3 -137 -12 -206 -7 -36 -16 -94 -20 -130
-8 -82 -15 -110 -26 -110 -6 0 -7 21 -4 48 7 62 18 330 16 411 -1 41 3 67 11
72 8 5 9 11 1 21 -12 15 -25 300 -13 293 5 -3 12 -20 16 -38z m-1504 -244 c9
-34 -10 -30 -115 23 -157 78 -142 61 -145 155 l-3 82 128 -119 c70 -65 131
-129 135 -141z m-922 195 c-5 -13 -14 -69 -21 -125 -6 -57 -14 -103 -18 -103
-8 0 -63 97 -77 137 -6 18 -8 30 -3 27 4 -2 26 13 48 35 21 21 47 41 58 44 10
3 19 5 20 6 2 0 -2 -9 -7 -21z m1410 -87 l0 -68 -69 -47 c-125 -83 -134 -55
-26 75 41 49 75 94 75 99 0 6 5 10 10 10 6 0 10 -30 10 -69z m-1540 -3 c0 -20
72 -168 82 -168 4 0 8 -7 8 -16 0 -9 -5 -12 -12 -8 -10 6 -10 4 0 -7 17 -18
15 -30 -3 -23 -8 4 -15 1 -15 -4 0 -6 6 -12 14 -14 11 -2 9 -10 -9 -32 -22
-28 -26 -29 -49 -16 -14 7 -29 10 -33 7 -3 -4 8 -12 26 -18 29 -10 32 -15 26
-38 -3 -14 -9 -39 -12 -54 -3 -16 -14 -34 -24 -40 -11 -7 -19 -19 -19 -29 0
-23 -16 -32 -24 -13 -3 8 -2 15 3 15 5 0 6 21 4 48 -3 26 -4 55 -4 65 2 57 5
77 14 77 5 0 5 6 -1 13 -6 7 -12 22 -12 32 -6 109 -6 131 0 140 3 6 7 25 8 44
2 19 5 38 8 42 8 13 24 11 24 -3z m849 -62 c25 -13 81 -40 124 -61 88 -42 105
-71 35 -60 -24 4 -51 11 -60 16 -9 5 -26 9 -37 9 -12 0 -21 6 -21 14 0 8 -5
18 -11 21 -6 4 -9 0 -7 -11 3 -19 3 -19 -62 -9 -23 3 -41 105 -19 105 6 0 32
-11 58 -24z m4 -110 c22 -5 27 -12 29 -39 l1 -32 4 33 c5 37 11 38 98 14 40
-12 61 -23 63 -35 3 -14 -5 -17 -50 -18 -29 0 -88 -3 -130 -5 l-78 -5 0 51 c0
44 2 51 18 47 9 -3 29 -8 45 -11z m450 -1 c61 -25 75 -83 35 -141 -32 -46 -57
-55 -109 -40 -38 11 -46 18 -58 53 -18 51 -2 96 43 124 37 23 44 23 89 4z
m-186 -95 c-3 -11 0 -18 6 -17 6 1 11 -14 11 -35 0 -22 5 -38 12 -38 6 0 17
-6 23 -14 10 -12 6 -35 -19 -113 -17 -54 -37 -111 -45 -128 l-15 -30 5 30 c2
17 7 59 10 95 3 36 8 73 11 82 4 12 1 16 -9 12 -15 -5 -17 22 -3 44 4 6 3 12
-1 12 -5 0 -9 27 -10 60 -1 48 1 60 14 60 10 0 14 -6 10 -20z m-70 -19 c-1
-14 -15 -25 -47 -37 -133 -49 -177 -66 -192 -75 -19 -10 -20 -8 -20 31 -2 90
-2 90 47 90 45 0 45 0 45 -35 0 -19 4 -35 10 -35 5 0 7 13 3 31 -8 41 6 49 89
49 60 0 67 -2 65 -19z m-1155 -76 c4 -5 8 -29 8 -52 0 -23 5 -77 11 -119 11
-74 11 -77 -10 -93 -12 -9 -24 -32 -27 -52 -5 -31 -2 -39 21 -57 15 -12 38
-22 50 -22 16 0 26 -9 35 -32 7 -18 24 -59 38 -92 l26 -59 -21 -17 c-32 -25
-39 -80 -15 -110 15 -19 29 -23 72 -24 l54 -1 64 -89 c57 -79 62 -90 49 -104
-27 -31 -30 -76 -7 -105 18 -23 29 -27 70 -27 27 0 52 5 55 10 11 18 40 10
104 -31 81 -51 152 -110 145 -121 -3 -4 -14 -8 -25 -8 -13 0 -19 7 -20 23 -1
15 -4 11 -9 -13 -9 -38 8 -83 35 -94 49 -19 115 7 115 46 0 21 15 21 74 -2 23
-8 25 -12 15 -37 -6 -15 -35 -113 -66 -218 -30 -104 -57 -198 -60 -207 -4 -14
-17 -18 -62 -18 -56 0 -92 -12 -78 -26 9 -9 -12 -34 -29 -34 -15 0 -18 3 -103
77 -30 27 -51 42 -47 36 19 -33 -21 -5 -100 69 -159 151 -286 347 -339 523
-10 33 -23 78 -31 101 -15 48 -66 335 -60 341 5 5 36 -73 36 -91 0 -14 34
-129 57 -194 29 -79 23 -37 -11 74 -60 198 -76 258 -86 334 -11 86 -13 356 -4
476 l7 81 31 -16 c17 -9 34 -20 38 -26z m1153 0 c-2 -14 -18 -37 -36 -52 -46
-39 -110 -85 -113 -81 -2 2 -8 12 -14 23 -8 15 -11 16 -12 5 0 -9 5 -21 10
-26 8 -8 0 -19 -25 -38 -20 -16 -38 -26 -39 -25 -2 2 -6 33 -8 70 l-5 65 41
16 c22 9 64 25 91 35 28 11 56 18 63 15 6 -2 12 1 12 7 0 6 8 11 19 11 14 0
18 -6 16 -25z m374 -38 c8 -12 39 -53 70 -91 l56 -69 3 -89 c4 -93 -5 -111
-27 -52 -17 46 -150 322 -151 311 0 -5 -5 -5 -12 -1 -8 5 -6 10 8 14 25 9 36
4 53 -23z m-219 -138 c-18 -68 -38 -149 -45 -179 -7 -30 -32 -116 -55 -190
-23 -74 -52 -173 -65 -220 -36 -134 -69 -245 -76 -250 -6 -5 -25 -79 -49 -190
-7 -30 -18 -68 -25 -85 -14 -32 -95 -389 -95 -416 0 -12 -13 -18 -47 -23 -25
-3 -48 -4 -50 -2 -2 2 6 25 17 52 12 27 28 78 36 114 8 36 36 121 61 190 40
109 86 249 113 345 5 17 43 145 85 285 41 140 93 323 115 405 34 127 52 189
86 294 3 10 8 11 15 4 8 -8 2 -47 -21 -134z m128 111 c4 -27 61 -202 112 -340
17 -47 44 -128 60 -180 16 -52 49 -147 73 -210 24 -63 54 -149 66 -190 60
-196 207 -614 241 -687 26 -55 26 -55 -12 -51 l-32 3 -145 435 c-80 240 -165
494 -188 565 -23 72 -57 177 -77 235 -19 58 -53 166 -76 240 -23 74 -48 145
-57 158 -8 13 -12 30 -9 39 9 23 41 11 44 -17z m-286 -58 c-3 -19 -27 -66 -54
-105 -27 -40 -68 -101 -90 -136 -23 -35 -44 -59 -46 -53 -6 20 -20 13 -15 -7
3 -11 0 -28 -6 -38 -9 -16 -11 -14 -12 12 -1 17 -2 53 -4 80 -1 28 -3 66 -4
85 -1 20 -5 30 -9 23 -4 -6 -4 -54 -1 -105 8 -98 2 -178 -12 -178 -11 0 -12
281 -1 295 4 6 20 21 37 34 l30 23 10 -49 c9 -40 8 -57 -7 -98 -21 -58 -21
-55 -8 -55 6 0 10 6 10 13 0 8 7 27 15 44 12 25 13 39 3 86 l-12 57 33 27 c19
16 43 36 54 46 29 24 37 21 37 -14 0 -18 4 -28 10 -24 6 4 8 10 5 15 -3 5 -1
19 5 30 9 16 8 18 -5 14 -22 -9 -18 5 8 26 20 17 22 17 28 2 4 -9 4 -32 1 -50z
m-964 -56 c51 -54 62 -70 62 -99 0 -21 7 -41 20 -52 11 -10 20 -27 20 -37 0
-11 17 -50 37 -86 21 -37 38 -69 38 -72 2 -18 60 -115 86 -145 18 -20 33 -46
35 -58 21 -124 25 -157 21 -188 -7 -51 13 -60 116 -54 60 3 87 1 94 -8 12 -15
48 -146 42 -152 -8 -7 -122 65 -163 103 -21 21 -36 31 -32 25 4 -7 3 -13 -2
-13 -20 0 -162 171 -162 194 0 29 20 89 33 97 17 12 -3 29 -35 29 l-30 0 22
-18 22 -18 -19 -44 -19 -43 -33 41 c-18 23 -46 69 -61 101 -16 33 -34 62 -39
66 -6 3 -11 19 -11 34 0 16 -7 34 -15 41 -8 7 -15 23 -15 36 0 30 -20 32 -21
2 -1 -18 -3 -17 -8 7 -4 17 -13 41 -20 53 -7 13 -10 26 -7 30 3 3 6 0 6 -7 0
-7 5 -9 11 -6 7 5 5 13 -6 25 -9 10 -18 33 -18 51 -2 27 2 34 23 39 22 5 23 7
7 13 -10 4 -27 7 -38 7 -12 0 -21 9 -25 28 -4 15 -11 32 -16 39 -5 7 -5 13 0
17 5 3 7 17 5 31 -6 31 2 55 20 55 7 0 41 -29 75 -64z m1225 -39 c15 -51 36
-119 47 -152 10 -33 48 -145 84 -250 36 -104 63 -192 58 -196 -16 -15 -78 -29
-125 -29 -55 0 -134 34 -179 77 -15 14 -36 47 -47 74 -24 55 -22 75 28 234 16
50 36 123 46 163 9 39 21 72 26 72 5 0 8 3 7 8 -3 15 15 103 20 97 4 -3 19
-48 35 -98z m-255 -4 c-1 -21 -8 -49 -15 -63 -7 -14 -13 -33 -13 -42 0 -20 16
-24 22 -6 3 7 7 5 11 -6 4 -9 3 -15 -2 -12 -13 8 -32 -19 -26 -36 3 -8 -1 -34
-9 -57 -10 -29 -10 -41 -3 -38 7 2 13 18 15 35 2 18 7 32 11 32 27 0 -44 -278
-136 -529 l-16 -43 -17 43 c-34 86 -41 117 -34 158 4 22 10 38 15 35 5 -3 9 1
9 8 0 8 11 29 25 48 l25 34 0 -31 c0 -17 -5 -33 -12 -35 -6 -2 -11 -21 -10
-41 1 -20 -3 -37 -7 -37 -11 0 -9 -86 2 -96 3 -4 9 12 13 35 4 23 11 44 15 47
5 3 9 15 10 27 0 12 8 45 18 72 15 45 15 53 1 77 -12 23 -13 31 -2 48 6 11 12
29 12 39 0 11 5 23 10 26 6 4 8 10 5 15 -3 5 -1 17 4 27 33 64 43 103 36 144
-6 32 -10 38 -16 26 -5 -9 -5 -25 0 -39 7 -19 2 -40 -20 -94 -17 -38 -34 -77
-39 -86 -6 -10 -10 -25 -10 -33 0 -21 -17 -19 -24 3 -3 9 10 48 29 86 19 39
35 77 35 85 0 9 -16 -17 -36 -56 -20 -40 -40 -73 -44 -73 -14 0 -20 48 -9 76
8 23 12 25 19 14 9 -13 10 -13 11 0 1 8 1 18 0 22 0 3 15 28 35 55 19 26 42
65 52 85 16 35 41 55 29 23 -4 -8 -1 -17 5 -21 8 -5 9 3 5 24 -7 34 0 62 14
62 5 0 9 -17 7 -37z m1447 -105 c-3 -24 -8 -59 -9 -78 -3 -43 -15 -80 -26 -80
-4 0 -6 -8 -4 -17 5 -18 -79 -175 -96 -181 -6 -2 -8 -8 -5 -12 6 -10 -104
-161 -132 -182 -10 -7 -31 -31 -47 -52 -29 -38 -286 -216 -313 -216 -7 0 -13
-4 -13 -10 0 -5 -18 -19 -40 -30 l-40 -21 -9 23 c-11 31 -42 121 -44 131 -1 4
34 27 78 50 44 23 100 55 125 71 59 38 190 148 214 181 24 32 38 32 32 0 -3
-14 -1 -23 5 -20 5 4 9 20 9 36 0 48 71 128 142 161 32 16 63 28 67 28 4 0 17
14 29 30 16 21 19 30 9 30 -7 0 -20 11 -27 25 -7 14 -16 25 -19 25 -3 0 -12 4
-19 8 -24 16 7 71 62 108 69 46 81 45 71 -8z m5 -355 c0 -105 -26 -249 -64
-353 -101 -282 -175 -412 -305 -540 -69 -68 -161 -140 -179 -140 -4 0 -14 15
-21 33 -21 52 -141 411 -141 423 0 14 106 58 120 49 5 -3 10 -11 10 -16 0 -6
7 -17 15 -26 12 -12 13 -18 4 -29 -16 -19 -33 -18 -80 7 -53 26 -63 16 -21
-22 37 -33 85 -38 114 -12 19 17 24 58 8 68 -14 9 -12 23 3 21 6 0 12 4 12 9
0 6 -12 9 -27 7 -19 -1 -28 3 -28 12 0 17 47 55 153 124 l78 51 37 -19 c47
-25 67 -25 93 1 19 19 20 22 4 46 -16 24 -16 25 4 18 17 -5 21 -2 21 14 0 11
-9 25 -20 31 -11 6 -20 14 -20 18 0 5 27 40 61 79 47 56 67 73 92 76 29 4 30
5 10 12 -13 4 -23 11 -23 16 0 20 23 66 43 86 38 38 47 29 47 -44z m-1384 -45
c5 -18 9 -38 9 -43 0 -6 11 -25 23 -43 15 -20 21 -39 17 -52 -4 -12 1 -25 13
-36 16 -14 18 -22 11 -50 -6 -18 -16 -46 -24 -61 -8 -15 -15 -36 -15 -47 0
-16 -5 -17 -47 -11 -27 4 -49 11 -51 16 -2 5 -9 9 -16 9 -37 0 -36 32 5 115 5
11 11 34 14 50 2 17 6 37 8 45 2 8 10 43 17 78 8 34 17 62 21 62 4 0 11 -15
15 -32z m-472 -218 c45 -28 114 -63 153 -78 42 -16 73 -33 73 -41 0 -17 -39
-151 -45 -151 -13 0 -94 41 -113 58 -13 11 -30 18 -38 15 -9 -3 -12 0 -9 9 8
20 -31 159 -50 177 -12 13 -26 13 -92 4 -51 -7 -82 -8 -90 -2 -6 6 -14 40 -17
77 -4 37 -8 83 -10 102 l-4 35 80 -77 c45 -42 117 -100 162 -128z m838 31
c-43 -78 -159 -187 -180 -167 -6 6 61 83 86 99 14 9 16 37 3 37 -5 0 -19 -16
-31 -36 -14 -21 -28 -33 -36 -30 -8 3 -13 0 -11 -6 1 -6 -4 -13 -10 -15 -20
-7 -16 60 5 96 13 25 24 31 50 31 17 0 32 4 32 9 0 5 15 12 33 15 19 3 42 13
53 20 31 23 34 -2 6 -53z m128 -238 c13 -38 25 -74 27 -80 3 -8 -3 -13 -15
-13 -11 0 -39 -9 -63 -19 -39 -18 -198 -45 -207 -36 -7 7 22 42 49 61 15 10
26 20 24 22 -5 6 -44 -17 -66 -39 -10 -10 -23 -19 -27 -19 -4 0 -38 26 -75 58
-58 49 -64 57 -45 59 142 15 320 47 347 63 26 15 27 14 51 -57z m-555 12 c33
-8 70 -14 83 -15 27 0 185 -131 173 -143 -20 -20 -278 -3 -343 22 -31 12 -38
31 -12 31 9 0 38 13 63 28 25 16 54 31 64 35 9 3 17 11 17 17 0 6 -34 -6 -75
-28 -41 -22 -76 -37 -79 -35 -3 4 7 53 19 91 5 15 16 15 90 -3z m671 -365 c41
-118 74 -215 74 -215 0 0 -221 -1 -490 -3 -270 -1 -490 1 -490 5 0 28 101 413
109 413 16 0 127 -35 131 -41 3 -4 28 -10 55 -14 57 -7 63 -10 49 -32 -28 -45
-79 -42 -107 7 -10 17 -23 28 -28 25 -16 -10 -10 -32 17 -64 21 -26 33 -31 68
-31 54 0 81 26 73 69 -6 26 -3 29 26 35 54 10 248 17 260 9 22 -14 46 -13 49
1 2 11 10 8 32 -10 27 -24 28 -26 11 -44 -28 -31 -69 -25 -99 13 l-26 32 0
-27 c0 -63 92 -95 143 -51 25 23 23 83 -3 90 -11 3 -20 9 -20 14 0 11 60 38
79 36 9 -1 41 -82 87 -217z m216 -261 c-16 -13 -201 -86 -257 -102 -33 -8
-134 -27 -224 -41 -91 -14 -168 -31 -172 -37 -8 -13 -111 -8 -369 17 -151 15
-157 16 -255 63 -133 64 -157 94 -80 103 54 6 1364 3 1357 -3z m-1418 -88 c28
-16 83 -39 121 -51 39 -12 74 -26 78 -30 4 -3 -54 -6 -129 -6 l-137 2 -2 57
c-2 34 1 57 7 57 6 0 34 -13 62 -29z"/>
<path d="M3405 5868 c-7 -35 -15 -74 -35 -179 -11 -53 -26 -123 -34 -155 -8
-33 -22 -97 -30 -144 -8 -47 -31 -157 -50 -245 -19 -88 -31 -164 -27 -168 15
-15 153 634 187 876 5 40 -2 51 -11 15z"/>
<path d="M13260 7955 c0 -31 -2 -34 -17 -27 -10 6 -65 11 -123 13 -100 4 -105
3 -105 -16 0 -19 8 -20 127 -23 131 -3 140 -6 148 -47 1 -5 22 -40 46 -76 24
-37 44 -71 44 -76 0 -13 39 -48 46 -41 3 4 -5 28 -17 55 -12 26 -22 50 -22 53
0 3 -17 26 -38 52 -20 26 -45 72 -54 103 -22 67 -35 79 -35 30z"/>
<path d="M5400 7951 c-8 -6 -19 -7 -25 -4 -5 4 -7 3 -3 -2 5 -5 -2 -15 -13
-23 -16 -11 -23 -12 -28 -3 -5 8 -14 4 -26 -11 -11 -13 -13 -17 -5 -10 34 30
30 8 -5 -28 -41 -42 -62 -51 -51 -24 5 14 4 15 -9 4 -9 -7 -14 -19 -11 -26 5
-12 -94 -112 -150 -151 -16 -12 -43 -25 -58 -29 -22 -5 -25 -9 -14 -15 13 -7
13 -18 5 -61 -12 -64 -14 -899 -3 -1493 11 -598 12 -1431 3 -1770 -15 -575
-16 -615 -6 -615 12 0 12 -37 -1 -45 -6 -3 -9 -27 -8 -53 l1 -47 7 50 c4 28 8
46 9 40 2 -5 4 -197 5 -425 l1 -414 40 -5 c22 -2 106 -4 188 -4 81 0 142 -4
136 -8 -6 -4 84 -7 200 -8 117 0 217 -3 222 -6 5 -4 15 -3 22 2 42 27 189 43
202 22 5 -7 13 -4 26 7 10 9 16 20 14 24 -3 4 3 14 12 21 9 8 53 64 98 124 45
61 100 128 122 151 30 31 38 45 32 60 -7 17 -8 17 -8 1 -1 -10 -5 -15 -11 -12
-13 8 -13 62 0 70 7 4 7 13 0 26 -7 12 -7 25 -1 37 10 19 3 172 -8 172 -3 0
-7 169 -8 375 -1 255 1 374 8 369 14 -8 85 -163 99 -216 7 -24 27 -88 45 -143
41 -124 146 -447 173 -535 75 -245 107 -343 128 -397 13 -34 24 -68 24 -76 0
-8 7 -20 15 -27 27 -22 16 -30 -41 -30 -34 0 -53 -4 -49 -10 9 -14 533 -13
691 2 71 7 219 12 329 13 l200 0 20 -37 c11 -21 22 -38 25 -38 3 0 4 19 2 41
-3 28 0 44 9 50 11 7 10 9 -3 9 -10 0 -18 3 -18 6 0 7 35 51 83 107 l28 32
-17 -30 c-10 -16 -26 -40 -37 -52 -10 -12 -17 -28 -15 -35 3 -8 11 0 21 19 9
17 25 34 36 38 11 3 21 19 25 37 5 26 8 29 21 18 9 -7 19 -10 23 -6 4 4 -1 13
-10 20 -18 13 -15 21 61 146 5 8 14 14 21 12 19 -4 4 45 -54 174 -29 66 -59
137 -66 159 -7 22 -18 51 -25 65 -19 36 -33 71 -130 315 -48 121 -93 234 -100
250 -7 17 -27 71 -43 120 -17 50 -45 128 -63 175 -40 107 -69 191 -74 210 -23
97 -73 233 -138 370 -14 30 -29 67 -32 83 -4 15 -15 33 -24 40 -27 19 -34 37
-21 52 17 21 31 19 23 -2 -6 -16 -5 -16 10 -4 10 8 15 16 13 19 -7 6 23 62 33
62 5 0 25 21 45 48 21 26 70 81 110 122 40 41 81 89 93 105 40 59 72 124 63
130 -5 3 -11 -4 -15 -15 -3 -11 -12 -26 -18 -33 -19 -20 -57 -76 -57 -83 0
-12 -72 -105 -77 -100 -3 3 10 27 28 53 34 48 103 161 133 218 8 17 15 24 16
18 0 -7 4 -13 9 -13 8 0 19 28 27 70 6 32 10 45 16 55 12 20 46 170 52 230 3
33 8 107 11 165 3 58 10 157 15 220 9 110 6 215 -6 290 -12 72 -15 84 -44 175
-17 50 -30 99 -30 109 0 9 -4 16 -9 16 -13 0 -54 114 -42 118 5 2 7 10 4 18
-3 7 -10 11 -16 7 -6 -4 -8 0 -4 10 5 14 -22 75 -61 133 -33 50 -49 72 -66 93
-19 22 -19 24 -3 18 13 -5 17 -3 14 5 -2 7 -11 13 -20 13 -9 0 -22 6 -29 13
-11 11 -9 12 6 6 19 -7 19 -6 -1 22 -38 52 -131 131 -222 188 -70 45 -311 162
-371 181 -30 10 -62 23 -70 30 -8 6 -22 16 -30 20 -13 8 -13 7 -1 -8 18 -23
16 -22 -140 17 -171 44 -308 60 -484 58 -740 -8 -902 -7 -898 6 6 14 -6 15
-27 3z m325 -51 c105 -5 296 -6 425 -2 248 8 427 -3 523 -32 27 -8 56 -12 65
-9 9 4 13 2 9 -4 -7 -10 54 -40 97 -49 36 -7 121 -37 158 -55 60 -31 68 -21
10 12 -29 17 -51 33 -49 35 6 6 173 -54 216 -77 20 -10 41 -19 48 -19 7 0 13
-4 13 -10 0 -5 9 -10 19 -10 11 0 22 -4 25 -9 4 -5 36 -26 73 -47 76 -42 165
-108 204 -151 15 -15 46 -59 70 -98 24 -38 53 -83 65 -100 18 -25 44 -86 44
-103 0 -2 -7 1 -15 8 -11 9 -15 9 -15 1 0 -6 7 -14 14 -17 8 -3 23 -29 32 -57
9 -29 20 -56 24 -62 4 -5 10 -23 14 -40 4 -16 18 -52 32 -81 13 -28 24 -62 24
-75 0 -13 5 -40 10 -59 17 -58 39 -173 38 -200 0 -14 2 -74 5 -135 3 -60 1
-132 -4 -160 -6 -27 -11 -62 -13 -77 -3 -33 -15 -49 -17 -22 -2 27 -1 41 6
104 13 116 12 140 -3 140 -11 0 -12 3 -3 14 9 11 9 15 -1 19 -10 4 -10 8 2 16
12 8 11 13 -9 30 -30 26 -34 26 -25 -1 4 -12 7 -67 8 -121 1 -76 -2 -100 -13
-107 -20 -11 -21 -53 -2 -67 14 -11 14 -12 -1 -13 -12 0 -18 -8 -18 -21 0 -17
3 -19 13 -10 11 9 14 5 15 -19 0 -16 -4 -32 -9 -36 -5 -3 -7 -10 -4 -15 4 -5
0 -9 -7 -9 -9 0 -14 -13 -15 -36 -1 -42 -5 -47 -27 -38 -18 7 -22 34 -5 34 7
0 8 7 4 18 -10 22 -10 32 -1 61 6 18 5 22 -5 15 -11 -6 -12 -5 -2 8 7 8 10 18
7 21 -5 5 -14 93 -15 151 0 11 6 23 13 27 8 6 9 9 2 9 -15 0 -25 38 -12 46 5
3 0 16 -13 30 -13 14 -17 24 -10 24 7 0 10 4 7 9 -4 5 -2 21 4 36 8 22 13 25
24 16 11 -9 15 -6 18 17 2 16 2 34 0 40 -5 16 -29 15 -35 0 -2 -7 -3 5 -2 27
2 22 -2 46 -7 52 -6 7 -8 19 -5 27 3 8 0 19 -7 25 -10 9 -13 -14 -12 -114 1
-69 -2 -125 -5 -125 -15 0 -26 47 -32 131 -3 31 -7 61 -10 65 -3 5 -10 36 -16
69 -6 32 -16 64 -21 69 -6 6 -10 17 -10 25 0 43 -190 366 -216 366 -5 0 -47
34 -93 75 -176 160 -348 253 -571 308 -184 45 -220 52 -326 64 -147 15 -521
16 -784 1 -118 -7 -291 -15 -385 -18 -155 -5 -168 -5 -150 10 56 43 177 147
237 203 l67 62 63 0 c35 0 149 -4 253 -10z m591 -285 c181 -20 308 -41 416
-70 122 -31 332 -117 377 -153 20 -15 62 -45 94 -66 53 -35 207 -195 207 -215
0 -4 9 -19 21 -32 11 -13 28 -33 37 -44 10 -11 17 -23 17 -26 0 -4 7 -15 16
-25 34 -39 69 -134 104 -279 71 -296 67 -274 51 -297 -16 -23 -11 -48 11 -48
12 0 14 -32 12 -212 -1 -120 -6 -222 -12 -233 -5 -10 -10 -44 -10 -75 0 -30
-4 -64 -10 -75 -7 -11 -13 -31 -14 -44 -2 -22 -14 -61 -51 -171 -23 -68 -86
-197 -131 -266 -43 -68 -199 -203 -301 -260 -64 -37 -71 -42 -71 -48 3 -22 -3
-28 -36 -44 l-36 -17 32 -5 c29 -5 35 -13 77 -105 54 -117 85 -194 149 -365
49 -131 75 -196 181 -449 36 -84 63 -156 60 -158 -6 -7 -10 0 -346 627 -37 69
-93 177 -125 240 -61 120 -254 475 -310 570 -43 72 -195 349 -195 355 0 3 6 5
13 5 21 0 103 132 131 210 40 114 53 216 49 375 -7 255 -70 403 -221 516 -79
60 -84 66 -28 36 29 -16 43 -21 35 -11 -7 8 -33 26 -58 39 -39 20 -42 24 -21
24 14 0 44 -8 68 -19 23 -10 42 -17 42 -14 0 10 -86 44 -115 44 -16 0 -55 9
-85 20 -59 21 -155 25 -250 10 -145 -23 -184 -31 -189 -36 -3 -4 17 -4 45 0
l52 6 -5 -547 c-3 -302 -1 -596 4 -656 5 -62 5 -114 0 -123 -16 -28 13 -35
118 -29 135 8 216 28 303 75 41 22 75 40 78 40 2 0 4 -9 4 -19 0 -21 50 -104
58 -96 3 2 -2 15 -11 28 -25 39 -46 96 -37 102 4 3 34 -46 66 -107 31 -62 96
-183 144 -268 48 -85 131 -240 185 -345 102 -198 217 -410 315 -580 31 -55
110 -199 175 -320 65 -121 126 -232 136 -246 10 -14 50 -107 88 -206 38 -99
82 -209 97 -244 26 -62 46 -129 38 -129 -2 0 -93 179 -203 398 -185 369 -282
559 -484 937 -44 83 -129 247 -189 365 -98 191 -146 276 -121 215 12 -29 195
-391 264 -520 145 -275 202 -384 381 -740 105 -209 249 -495 321 -635 178
-349 175 -344 171 -349 -2 -2 -88 -4 -191 -3 -104 1 -262 -2 -353 -7 -91 -6
-245 -13 -342 -16 l-176 -5 -8 33 c-3 17 -55 179 -115 358 -196 589 -294 912
-304 1007 -4 34 -10 64 -14 67 -4 2 -4 -17 0 -43 11 -63 11 -72 0 -72 -10 0
-40 55 -76 141 -23 53 -26 77 -29 205 -3 140 -3 145 16 141 14 -4 18 -1 16 11
-2 10 -15 18 -32 20 l-29 4 7 -134 6 -133 -21 25 c-12 14 -34 51 -50 82 -16
32 -58 87 -93 123 -57 57 -65 63 -71 45 -3 -11 -13 -20 -20 -20 -20 0 -28 -19
-15 -35 8 -10 11 -252 11 -902 l0 -888 -478 0 -478 0 1 426 2 425 122 245 c68
134 148 289 178 344 30 55 86 159 124 230 39 72 79 145 90 163 11 17 17 32 15
32 -14 0 -219 -369 -390 -700 -61 -118 -119 -228 -129 -245 l-19 -30 7 70 c8
80 26 120 148 330 46 77 124 214 176 305 51 91 152 264 223 385 125 211 318
542 359 615 l20 35 -26 -30 c-51 -59 -509 -821 -745 -1240 -78 -137 -146 -254
-152 -260 -7 -7 -10 14 -10 70 -1 234 2 655 7 1300 2 396 5 752 5 790 0 66 0
175 0 220 0 11 -2 178 -6 370 -4 193 -8 472 -9 620 -2 149 -5 276 -7 284 -6
22 39 29 126 19 76 -9 294 -4 540 11 198 13 475 11 611 -4z m54 -832 c93 -33
242 -210 285 -337 26 -80 38 -202 32 -331 -8 -177 -45 -297 -100 -323 -81 -39
-251 -65 -299 -47 -10 4 -12 25 -8 93 6 102 5 170 -3 179 -4 3 -4 10 -1 15 10
16 0 664 -12 736 l-7 42 34 -6 c19 -3 54 -13 79 -21z m-287 -501 c1 -34 -2
-62 -7 -62 -4 0 2 -11 15 -24 28 -29 33 -83 8 -89 -18 -5 -32 -44 -18 -53 5
-3 9 6 9 20 0 14 5 26 11 26 6 0 9 -7 5 -15 -3 -9 0 -15 8 -15 8 0 14 6 13 13
-1 38 4 67 13 67 6 0 10 -6 10 -14 0 -9 9 -12 28 -9 19 3 23 2 13 -5 -8 -6
-12 -19 -8 -32 3 -14 1 -20 -6 -17 -7 2 -12 10 -12 17 0 7 -5 15 -11 17 -7 2
-11 -8 -10 -26 1 -21 6 -30 16 -28 8 1 14 -4 13 -10 -2 -7 3 -13 10 -13 13 0
41 -123 54 -238 5 -42 -8 -72 -30 -72 -8 0 -7 4 0 11 8 8 8 20 3 35 -6 15 -6
24 0 24 10 0 9 14 -4 60 -7 24 -12 73 -15 136 -1 27 -5 32 -26 32 -23 0 -25
-4 -25 -45 0 -40 2 -45 20 -40 11 3 18 1 14 -4 -3 -5 -12 -9 -20 -9 -17 0 -18
-12 -1 -29 10 -11 9 -12 -3 -6 -12 6 -12 5 -3 -5 6 -7 9 -18 7 -25 -3 -7 5
-21 18 -30 15 -11 17 -15 6 -12 -15 5 -18 0 -18 -35 0 -23 7 -49 15 -58 14
-16 10 -24 -52 -92 -72 -80 -84 -81 -77 -8 3 34 3 96 2 255 0 64 5 204 14 385
0 8 -1 44 -2 80 -1 36 -1 72 0 80 4 27 20 -73 23 -138z m1152 -1312 c-4 -12 1
-33 13 -53 47 -77 312 -621 312 -641 0 -6 5 -4 10 4 11 16 6 21 113 -104 27
-31 52 -54 57 -51 4 3 11 -3 14 -12 4 -9 1 -20 -5 -24 -6 -4 -8 -12 -4 -19 6
-9 9 -9 15 1 9 14 22 -13 59 -121 25 -73 23 -67 84 -205 24 -55 61 -140 82
-190 20 -49 41 -99 45 -110 5 -11 25 -60 45 -110 20 -49 39 -95 41 -101 3 -6
-2 -14 -10 -17 -11 -4 -26 15 -55 68 -23 40 -46 77 -53 81 -26 16 82 -162 110
-182 29 -20 29 -21 14 -50 -8 -16 -48 -72 -88 -125 -41 -53 -78 -109 -84 -124
-6 -16 -14 -24 -19 -19 -17 19 -80 214 -69 214 6 0 4 8 -5 18 -10 10 -17 22
-17 26 0 4 -9 26 -19 49 -11 23 -20 47 -21 52 -1 6 -8 18 -17 27 -8 9 -13 21
-10 25 3 5 -10 40 -29 79 -19 38 -34 79 -34 91 0 12 -5 25 -10 28 -6 4 -8 11
-4 16 3 5 -1 20 -8 32 -8 12 -22 45 -32 72 -11 28 -22 55 -27 60 -13 18 -89
218 -84 223 2 3 -2 17 -9 31 -7 14 -23 45 -35 69 -12 23 -19 42 -16 42 3 0 -1
10 -9 22 -9 12 -16 28 -16 35 0 6 -13 41 -30 76 -16 36 -30 68 -30 72 0 4 -6
21 -14 38 -24 55 -76 196 -76 208 0 8 5 7 17 -2 9 -8 14 -9 11 -4 -11 18 -41
90 -44 103 -4 19 -14 28 -14 13 0 -7 -5 -9 -11 -5 -8 5 -8 9 1 14 8 5 1 26
-24 73 -19 36 -36 63 -39 59 -2 -4 -2 -1 0 7 2 8 0 17 -4 20 -19 14 -85 161
-79 176 11 29 28 11 42 -42 7 -29 43 -112 80 -185 103 -206 109 -221 118 -282
1 -10 7 -21 12 -24 12 -9 14 -42 3 -42 -5 0 -5 -7 0 -17 30 -57 51 -107 65
-152 17 -59 46 -123 59 -132 5 -4 7 -13 5 -20 -3 -8 9 -41 25 -74 17 -33 32
-64 32 -70 1 -5 3 -12 4 -15 2 -3 4 -13 6 -24 8 -40 50 -152 67 -178 10 -14
18 -33 18 -41 0 -9 5 -19 11 -23 12 -7 49 -90 54 -119 1 -11 6 -29 10 -40 14
-38 36 -90 45 -107 6 -10 10 -23 10 -30 0 -12 39 -69 40 -58 0 3 -13 37 -30
75 -16 39 -30 79 -30 90 0 12 -6 27 -12 33 -10 10 -10 15 1 21 11 7 11 10 -1
17 -17 10 -148 271 -148 295 -1 24 -39 131 -60 166 -24 41 -25 50 -3 32 15
-13 15 -11 -1 19 -9 17 -14 32 -10 32 4 0 1 7 -6 15 -6 8 -9 19 -5 24 3 6 0 8
-8 5 -18 -7 -29 30 -13 46 8 9 8 11 -2 8 -16 -3 -22 7 -51 81 -20 52 -29 125
-13 105 4 -5 16 -35 27 -67 10 -32 22 -60 26 -63 8 -5 2 18 -31 114 -12 34
-25 62 -29 62 -8 0 -69 125 -76 157 -2 10 -7 28 -11 41 -3 12 -2 22 4 22 13 0
33 -25 25 -33 -3 -4 0 -14 7 -22 7 -9 16 -32 19 -52 7 -39 27 -56 27 -23 0 11
-4 20 -9 20 -5 0 -6 7 -3 16 3 8 -1 26 -10 39 -9 13 -13 28 -10 33 7 12 -27
90 -54 125 -12 14 -21 29 -20 32 1 9 -52 109 -67 126 -7 9 -13 20 -11 25 4 13
-23 74 -33 74 -5 0 -3 11 3 25 13 30 32 34 23 5z m288 -477 c16 -35 39 -80 53
-100 13 -20 24 -40 24 -44 0 -5 7 -6 15 -3 16 6 55 -49 55 -78 0 -9 7 -18 15
-20 16 -3 70 -108 56 -108 -10 0 -51 39 -51 49 0 12 -98 111 -109 111 -8 0
-26 33 -87 165 -21 47 -42 123 -35 130 8 9 31 -27 64 -102z m-1352 -610 c0
-10 2 -29 3 -43 7 -53 18 -207 18 -243 1 -27 7 -41 20 -48 18 -9 18 -8 8 10
-6 12 -12 69 -14 128 -2 60 -7 122 -11 138 -7 27 -6 29 8 15 12 -11 18 -42 22
-113 2 -54 8 -103 11 -109 4 -6 7 -63 8 -128 2 -100 0 -117 -13 -112 -9 3 -12
1 -7 -6 4 -6 7 -36 7 -67 1 -41 6 -58 19 -68 12 -8 19 -28 21 -56 3 -37 -2
-49 -36 -91 -22 -27 -42 -49 -45 -49 -3 -1 -6 43 -6 97 -3 137 -15 324 -22
318 -6 -7 -3 -163 7 -316 6 -93 4 -119 -7 -138 -8 -12 -16 -21 -17 -20 -6 6
-13 820 -8 814 4 -3 8 -39 9 -78 6 -148 15 -233 24 -242 10 -10 7 89 -9 327
-4 53 -3 97 1 97 5 0 8 -8 9 -17z m-52 -488 c7 -378 3 -437 -30 -487 -24 -38
-46 -52 -35 -22 3 9 6 22 6 30 0 8 7 14 15 14 12 0 15 14 15 70 0 85 0 83 10
95 4 6 6 24 4 40 -4 35 -6 530 -3 560 5 44 15 -121 18 -300z"/>
<path d="M6439 5353 c-9 -2 -24 -19 -34 -37 -31 -57 0 -169 38 -138 15 12 128
19 146 8 23 -15 41 2 41 40 0 40 -29 95 -63 119 -20 14 -90 19 -128 8z"/>
<path d="M5929 5227 c-9 -7 -28 -34 -43 -61 -22 -39 -26 -57 -21 -87 8 -44 29
-67 48 -51 19 16 140 20 152 4 18 -23 43 -3 51 41 11 62 5 98 -22 135 -24 30
-29 32 -87 32 -34 0 -69 -6 -78 -13z"/>
<path d="M6661 4591 c-20 -6 -50 -28 -77 -57 l-44 -49 3 -95 c2 -59 10 -108
20 -130 9 -19 22 -55 29 -80 11 -38 17 -46 41 -48 21 -3 27 1 27 17 0 11 4 22
8 25 5 3 46 1 93 -3 l84 -8 -79 -2 c-88 -1 -96 -7 -21 -16 27 -3 53 -11 57
-18 6 -9 10 -9 16 -1 4 6 24 14 45 18 21 4 35 11 32 15 -7 12 21 22 40 15 8
-4 15 -15 15 -25 0 -14 7 -19 29 -19 24 0 31 6 44 38 28 72 30 126 7 173 -15
28 -20 52 -16 71 5 24 2 31 -14 35 -11 3 -35 31 -54 62 -19 31 -45 62 -58 70
-27 17 -176 24 -227 12z m-48 -129 c-10 -7 -24 -17 -32 -21 -11 -7 -11 -12 0
-29 12 -19 21 -20 205 -19 l193 2 21 -36 c11 -20 20 -51 20 -68 0 -30 -14 -38
-52 -32 -5 0 -8 -3 -8 -9 0 -5 12 -10 26 -10 16 0 24 -5 21 -12 -2 -9 -18 -12
-43 -9 -21 2 -106 4 -187 5 -135 1 -150 3 -163 20 -8 11 -14 28 -14 37 0 10
-9 38 -20 64 -11 26 -22 65 -23 86 -3 33 -1 38 14 34 13 -5 16 -1 12 13 -2 11
0 23 6 26 7 4 11 -1 11 -14 0 -34 20 -12 22 23 l1 32 4 -35 c3 -25 0 -38 -14
-48z m292 42 c9 -4 25 -24 35 -45 l20 -38 -138 -3 c-166 -4 -172 -3 -172 29 0
58 11 63 130 63 59 0 116 -3 125 -6z"/>
<path d="M5554 4260 c-65 -9 -101 -38 -137 -110 -29 -60 -34 -65 -61 -62 -20
3 -27 0 -24 -10 3 -7 15 -12 27 -11 11 2 21 -2 21 -7 0 -6 -4 -10 -9 -10 -5 0
-13 -10 -17 -22 -4 -13 -18 -40 -30 -60 -35 -55 -33 -131 6 -207 38 -77 73
-94 85 -41 l7 30 169 0 169 0 6 -24 c10 -40 49 -39 91 0 20 19 33 37 30 41 -4
3 -7 1 -7 -5 0 -7 -7 -12 -16 -12 -13 0 -15 7 -9 37 8 46 12 53 30 53 8 0 17
5 21 12 5 8 0 9 -14 6 -12 -4 -20 -2 -16 3 3 5 12 9 19 9 12 0 13 19 8 113 -3
63 -11 119 -18 127 -6 8 -23 35 -37 60 -44 76 -58 84 -162 90 -51 3 -110 3
-132 0z m210 -112 c8 -13 18 -40 21 -60 l7 -38 -180 0 c-121 0 -183 4 -188 11
-3 6 4 33 16 60 l23 49 143 0 c138 0 144 -1 158 -22z m106 -122 c0 -14 -5 -37
-11 -53 -6 -15 -16 -57 -23 -93 -10 -52 -17 -67 -37 -77 -17 -9 -86 -13 -225
-13 -222 0 -236 3 -250 63 -7 32 2 34 36 7 26 -20 50 -26 50 -12 0 5 -18 16
-40 25 -22 8 -43 22 -46 30 -5 13 48 121 65 131 3 2 59 0 122 -6 79 -7 145 -8
205 -1 49 6 91 9 94 7 3 -1 2 -34 -4 -72 -8 -61 -13 -71 -35 -80 -18 -8 -20
-10 -4 -6 12 3 24 1 27 -4 7 -12 -28 -22 -54 -15 -19 5 -19 5 0 44 28 54 25
58 -14 20 l-34 -33 -123 3 c-102 2 -123 -1 -121 -12 6 -29 36 -39 116 -39 67
0 83 3 102 21 20 18 23 19 38 4 19 -19 76 -29 94 -17 7 5 14 24 16 43 3 19 7
62 11 97 6 52 10 62 26 62 13 0 19 -7 19 -24z"/>
<path d="M8404 7949 c-2 -3 33 -9 77 -12 44 -3 83 -8 87 -11 3 -4 -39 -52 -94
-109 -55 -56 -114 -119 -132 -140 -21 -24 -39 -37 -48 -33 -13 5 -14 -71 -11
-612 4 -600 4 -618 -15 -650 l-20 -33 26 -34 c20 -26 26 -45 26 -83 0 -47 -2
-51 -35 -71 -39 -23 -43 -42 -17 -86 l18 -29 -47 -42 c-26 -23 -57 -45 -67
-48 -28 -9 -33 -29 -17 -60 13 -25 12 -28 -21 -61 -19 -19 -43 -35 -52 -35
-32 0 -62 -29 -62 -60 0 -21 9 -36 35 -56 19 -14 35 -30 35 -35 0 -5 -18 -32
-40 -60 -22 -28 -40 -55 -40 -61 0 -11 41 -51 94 -91 32 -25 36 -33 31 -57 -5
-24 0 -36 29 -67 l35 -38 35 19 c41 22 71 15 63 -14 -3 -11 -1 -23 5 -26 5 -4
8 -19 4 -34 -3 -20 -1 -30 10 -34 11 -4 14 -19 12 -58 -3 -49 -5 -53 -28 -53
-17 0 -28 -8 -36 -26 -7 -14 -26 -42 -44 -62 -27 -31 -31 -42 -26 -71 5 -24 2
-37 -9 -46 -36 -30 -6 -92 34 -70 27 14 48 53 32 58 -6 2 -11 12 -11 22 0 10
-5 20 -12 22 -20 7 1 57 44 104 22 24 46 44 53 44 8 0 10 -30 8 -112 -5 -134
-7 -145 -28 -128 -8 7 -12 16 -9 21 3 5 -2 9 -11 9 -41 0 -24 -53 22 -71 l23
-8 -6 -808 c-3 -445 -10 -815 -15 -824 -4 -9 -6 -18 -4 -21 3 -2 7 -71 10
-151 l4 -147 -29 0 c-17 0 -30 -4 -30 -10 0 -5 17 -10 37 -10 51 0 30 -18 -27
-23 l-45 -4 53 -1 c33 -1 52 -6 53 -14 1 -7 2 -20 3 -28 2 -8 3 -27 4 -42 1
-16 7 -28 13 -28 8 0 10 17 6 53 -3 30 -2 58 1 63 4 5 99 9 212 10 113 0 354
1 535 2 182 1 386 0 455 -3 69 -3 206 -7 305 -9 l180 -5 -145 12 c-209 18
-139 28 176 26 245 -1 655 8 662 16 2 2 1 8 -3 14 -3 6 -39 11 -82 11 -115 0
-84 6 65 14 94 4 131 3 127 -5 -4 -6 -13 -8 -21 -5 -8 3 -14 0 -14 -6 0 -7 -4
-7 -12 0 -7 5 -21 6 -31 3 -17 -6 -17 -8 -4 -20 12 -9 21 -10 37 -1 12 6 28 9
36 6 8 -3 14 -1 14 3 0 5 10 7 23 4 22 -5 22 -5 2 10 -19 16 -18 16 20 17 22
1 57 3 77 5 21 2 40 0 43 -6 4 -5 13 -9 21 -9 8 0 12 5 9 10 -4 6 5 10 19 10
14 0 26 5 26 11 0 7 -14 10 -35 7 -38 -4 -45 5 -17 21 14 9 11 10 -18 11 -19
0 -73 7 -120 15 -47 8 -86 15 -87 15 -2 0 -3 3 -3 8 0 4 62 6 137 5 100 -1
126 1 95 7 -35 8 -121 16 -181 19 -8 1 -11 4 -7 8 7 7 14 8 136 11 52 2 70 5
59 12 -9 5 -104 10 -213 12 -125 1 -193 5 -186 12 12 12 180 35 186 25 2 -4
-6 -10 -18 -13 -32 -7 188 4 237 12 34 5 23 8 -80 23 -65 10 -150 16 -187 14
-37 -1 -68 1 -68 5 0 5 13 18 30 30 82 59 206 260 268 435 36 104 82 259 86
290 2 17 8 48 14 70 6 22 20 92 32 155 11 63 26 131 32 150 28 87 11 361 -37
605 -36 182 -41 196 -85 273 -22 38 -40 74 -40 80 0 22 -125 187 -192 255 -37
37 -68 71 -68 76 0 4 10 19 21 32 41 46 105 154 136 229 66 161 86 245 108
455 9 83 18 168 21 190 3 22 7 54 9 70 11 81 5 283 -8 325 -27 83 -30 103 -13
97 22 -9 20 9 -4 33 -11 11 -19 28 -19 38 1 15 2 15 6 0 2 -9 11 -19 19 -22
12 -5 12 -1 -1 24 -9 17 -20 30 -25 30 -5 0 -9 8 -9 18 0 30 -51 186 -69 212
-32 44 -37 54 -22 45 18 -11 -21 54 -77 128 -23 31 -40 57 -38 57 3 0 24 -9
45 -20 66 -34 45 -14 -32 31 -40 23 -97 66 -125 96 -55 56 -96 82 -251 159
-51 25 -92 48 -90 50 5 5 121 -38 176 -66 24 -12 46 -19 49 -16 6 5 -63 41
-121 63 -66 25 -447 124 -491 128 -22 2 -62 9 -90 15 -28 7 -162 14 -300 17
-387 7 -1136 9 -1141 2z m340 -34 c50 -3 253 -8 451 -11 198 -3 383 -7 410 -9
28 -2 88 -5 134 -6 65 -2 88 -6 102 -20 10 -10 19 -14 21 -10 4 11 129 -4 137
-16 3 -5 23 -10 43 -11 52 -3 253 -64 331 -100 37 -17 100 -54 140 -81 84 -56
238 -214 273 -281 14 -25 38 -66 54 -91 46 -72 121 -295 120 -357 -1 -14 -5
-12 -21 7 -11 13 -17 31 -14 41 3 10 0 20 -8 23 -7 2 -19 28 -27 57 -8 28 -17
53 -20 55 -11 7 -4 -48 15 -105 9 -30 24 -75 32 -99 7 -24 11 -46 9 -49 -3 -3
-8 1 -10 9 -40 119 -82 234 -89 247 -5 6 -6 16 -2 21 3 6 -3 14 -12 20 -10 5
-18 15 -18 23 0 19 -161 169 -225 210 -133 84 -325 177 -338 163 -2 -2 51 -31
119 -63 80 -39 146 -78 184 -112 33 -28 76 -60 95 -70 39 -20 102 -82 99 -96
-3 -14 17 -58 33 -72 18 -14 94 -174 123 -256 12 -34 25 -69 29 -78 5 -10 4
-18 0 -18 -5 0 -22 35 -38 77 -51 130 -151 288 -241 378 -182 181 -473 340
-710 389 -63 13 -338 34 -375 28 -23 -3 -1089 -25 -1142 -23 -27 1 -48 -2 -48
-7 0 -15 64 -23 120 -16 27 4 50 3 50 -2 0 -5 226 -8 528 -6 440 3 555 1 697
-13 94 -10 188 -23 210 -30 22 -8 69 -21 105 -30 200 -50 410 -173 552 -323
109 -115 236 -401 274 -615 33 -186 13 -603 -35 -730 l-10 -27 -60 40 c-62 42
-73 56 -60 80 24 45 49 106 49 120 0 27 -33 49 -84 56 l-47 7 21 22 c17 18 21
33 19 67 -2 24 1 49 5 56 18 29 25 75 15 94 -6 11 -36 31 -66 45 -53 25 -57
25 -90 9 -44 -21 -63 -20 -63 3 0 11 -12 23 -30 31 -16 7 -30 19 -30 28 0 9
-10 26 -22 39 l-22 23 22 16 c12 8 22 19 22 25 0 18 -24 9 -69 -28 -25 -20
-38 -27 -28 -16 16 18 17 24 6 36 -11 11 -18 10 -49 -7 -69 -40 -86 -56 -72
-65 11 -6 10 -11 -3 -25 -9 -9 -12 -16 -6 -16 5 0 22 19 38 42 30 44 58 67 69
56 3 -4 -10 -21 -30 -38 -20 -18 -36 -37 -36 -44 0 -6 -13 -19 -29 -29 -32
-18 -85 -77 -77 -84 9 -9 52 21 97 68 25 27 51 49 59 49 7 0 -4 -16 -26 -35
-21 -19 -33 -35 -26 -35 7 0 10 -5 6 -11 -4 -8 -9 -7 -16 2 -7 11 -8 9 -4 -4
3 -10 1 -28 -5 -39 -8 -15 -8 -19 1 -16 6 2 12 8 12 13 1 10 28 33 38 32 3 0
15 5 28 12 27 15 29 35 2 26 -33 -10 -23 12 16 35 21 14 33 28 30 36 -6 15 -2
17 32 8 30 -9 28 -20 -8 -33 l-31 -10 29 -31 c19 -19 39 -30 57 -30 19 0 26
-4 22 -14 -7 -17 31 -16 85 3 28 9 47 9 78 1 73 -20 92 -56 52 -102 -9 -11
-12 -27 -8 -43 4 -14 2 -25 -4 -25 -5 0 -10 -5 -10 -11 0 -16 -26 -39 -44 -39
-21 0 -20 16 0 24 9 4 15 9 12 12 -11 10 -58 -16 -52 -30 3 -8 1 -17 -5 -21
-6 -3 -11 0 -11 7 0 9 -3 9 -10 -2 -15 -24 8 -39 25 -17 10 14 18 16 31 9 15
-8 11 -13 -26 -38 -23 -15 -37 -30 -31 -32 6 -2 23 4 37 13 16 10 33 13 47 9
12 -4 38 -8 59 -9 20 0 43 -7 52 -14 23 -19 20 -48 -5 -56 -14 -5 -18 -10 -11
-17 12 -12 -1 -53 -26 -82 -16 -17 -16 -19 1 -30 40 -24 62 -49 49 -53 -21 -8
-79 -74 -125 -144 -61 -91 -60 -88 -37 -82 11 3 23 9 26 14 3 5 12 2 20 -6 19
-19 34 -19 34 -1 0 7 23 35 51 61 28 27 44 45 35 42 -18 -7 -19 -9 33 61 27
35 29 36 49 23 11 -6 8 -21 -15 -70 -26 -57 -46 -76 -55 -50 -2 5 -14 -4 -26
-21 -22 -29 -22 -30 -3 -18 16 10 23 10 33 0 19 -19 -13 -48 -38 -34 -12 7
-25 7 -36 1 -27 -14 -22 -30 7 -23 30 7 33 -10 9 -44 -12 -17 -22 -21 -42 -16
-18 4 -23 2 -14 -3 15 -11 6 -43 -13 -43 -7 0 -18 7 -25 15 -7 8 -18 15 -25
15 -7 0 -18 7 -25 15 -14 17 -50 20 -50 5 0 -5 7 -7 15 -4 8 4 15 1 15 -5 0
-6 7 -11 16 -11 8 0 13 -4 10 -9 -4 -5 7 -15 24 -23 32 -14 34 -25 7 -42 -13
-8 -20 -8 -25 0 -10 17 -49 26 -57 14 -3 -5 2 -10 13 -10 11 0 25 -6 31 -14
10 -12 7 -18 -16 -30 -15 -8 -44 -29 -63 -46 -19 -18 -47 -37 -63 -44 -27 -12
-27 -13 -10 -32 10 -11 25 -23 33 -27 71 -32 260 -195 260 -224 0 -3 -18 -2
-40 1 -30 4 -42 1 -49 -11 -7 -14 -13 -15 -39 -4 -38 16 -47 11 -108 -59 -42
-48 -30 -43 28 13 10 9 24 18 31 18 44 4 74 -14 58 -36 -5 -5 -11 -26 -15 -45
-4 -20 -20 -47 -40 -66 -19 -18 -37 -43 -41 -56 -8 -26 -34 -58 -47 -58 -16 0
-8 27 16 49 13 12 24 33 24 46 0 13 14 36 33 55 34 31 34 31 4 13 -38 -23 -66
-55 -60 -70 2 -8 -2 -10 -12 -6 -11 4 -14 2 -9 -5 10 -17 -20 -82 -38 -82 -48
0 21 115 101 170 20 14 39 32 41 40 7 21 -75 -45 -130 -104 -26 -28 -48 -48
-49 -43 -5 26 -2 35 23 65 34 40 35 47 4 27 -13 -9 -37 -43 -53 -75 -15 -33
-34 -59 -42 -60 -9 0 -11 6 -6 18 4 9 8 27 9 39 1 15 25 42 66 76 69 57 98 87
84 87 -5 0 -31 -21 -58 -46 -32 -30 -51 -42 -56 -34 -5 8 -11 6 -20 -5 -11
-13 -10 -14 5 -9 13 5 16 4 11 -5 -5 -7 -19 -17 -33 -22 -15 -6 -23 -15 -20
-23 9 -23 -40 -61 -73 -58 -20 2 -32 -2 -39 -17 -14 -26 -14 -31 4 -31 8 0 18
-12 21 -27 11 -42 -19 -57 -109 -55 -40 0 -42 6 -13 39 13 15 41 46 60 68 20
22 39 49 42 60 4 11 16 30 27 42 11 13 16 23 11 23 -5 0 -23 -20 -41 -43 -17
-23 -52 -64 -77 -92 -25 -27 -46 -52 -46 -55 0 -3 -16 -16 -35 -29 -39 -26
-37 -41 5 -41 16 0 41 -5 56 -10 20 -8 32 -7 49 4 12 8 32 12 44 9 15 -4 30 2
46 17 29 27 31 47 9 78 -23 33 -11 38 29 13 36 -22 61 -20 72 6 5 14 10 12 34
-11 26 -25 34 -27 73 -21 50 8 84 36 93 75 4 19 14 30 31 34 13 4 24 11 24 17
0 6 9 24 20 39 16 22 18 34 11 53 -15 39 16 79 73 95 26 7 51 10 56 7 23 -14
135 -183 166 -250 51 -109 125 -376 124 -443 -1 -37 -21 20 -37 101 -15 80
-32 131 -33 97 0 -8 16 -96 35 -195 46 -236 47 -321 5 -535 -4 -25 -15 -82
-24 -127 -8 -45 -26 -103 -40 -128 -15 -25 -26 -52 -26 -60 0 -8 -4 -15 -9
-15 -6 0 -25 -30 -43 -67 -57 -116 -186 -268 -245 -288 -18 -6 -49 -26 -70
-43 -91 -77 -108 -86 -256 -134 -245 -79 -482 -109 -840 -109 -120 0 -221 2
-225 5 -6 3 -401 17 -595 20 -43 1 -81 -2 -83 -6 -3 -5 21 -8 53 -9 32 0 67
-4 78 -9 12 -5 -49 -9 -157 -9 l-176 -1 4 38 c10 96 16 871 10 1262 -2 125 1
163 15 154 5 -3 9 0 9 5 0 6 -7 11 -15 11 -21 0 -19 20 3 21 14 1 14 2 1 6
-11 3 -15 16 -15 53 1 28 3 50 6 50 3 0 4 81 2 180 -4 160 -2 180 12 180 9 0
26 11 38 25 23 27 61 37 39 11 -10 -12 -9 -14 6 -10 11 3 26 -3 37 -15 18 -20
18 -21 -13 -38 -20 -12 -35 -30 -41 -51 -11 -43 -7 -52 36 -81 29 -20 35 -29
31 -51 -5 -21 1 -31 27 -52 l32 -26 55 34 c30 18 58 34 63 34 6 0 27 12 48 26
39 27 54 28 114 3 39 -16 90 4 99 38 6 27 25 31 25 6 0 -13 3 -14 12 -5 18 18
27 14 21 -9 -3 -11 -17 -25 -30 -30 -13 -5 -21 -13 -18 -19 11 -18 33 -11 63
20 17 17 41 30 55 30 14 0 40 15 61 35 21 19 42 35 49 35 6 0 21 10 34 22 21
20 25 20 39 7 13 -13 14 -54 13 -270 -2 -265 -1 -559 3 -764 l3 -120 33 -3
c17 -2 32 -7 32 -12 0 -13 -85 -124 -126 -164 -22 -21 -52 -44 -67 -52 -15 -8
-55 -32 -88 -54 -33 -21 -73 -42 -89 -45 -17 -4 -30 -11 -30 -16 0 -5 1 -9 3
-9 15 0 120 45 192 83 75 39 101 59 154 121 97 112 118 162 150 356 34 209 40
280 23 297 -13 12 -13 16 -2 23 11 7 11 22 3 77 -6 37 -11 90 -12 117 -1 28
-4 53 -6 57 -3 3 -7 28 -10 54 -6 45 -36 129 -88 245 -42 93 -84 131 -267 241
-94 55 -173 106 -176 111 -4 6 2 5 14 -1 30 -16 36 -14 21 7 -13 16 -12 16 6
1 26 -22 161 -89 177 -89 30 0 96 -46 169 -120 44 -43 79 -74 79 -71 0 7 -66
98 -114 157 -17 20 -23 39 -20 55 l5 24 -12 -22 c-12 -24 -43 -30 -68 -14 -11
7 -7 18 18 54 17 25 36 49 42 53 13 8 27 -11 36 -48 3 -16 9 -28 12 -28 4 0
20 -34 36 -75 30 -80 50 -108 52 -75 1 11 -2 22 -8 25 -5 4 -9 16 -9 28 0 12
-12 45 -25 72 -14 28 -25 58 -25 67 0 9 -5 20 -11 23 -5 4 -8 12 -6 18 8 22
-62 142 -112 194 -28 28 -51 54 -51 57 0 30 125 -82 172 -154 35 -52 29 -20
-7 48 -18 32 -20 42 -9 42 8 0 14 5 14 10 0 6 5 10 10 10 14 0 12 -27 -2 -34
-7 -3 -4 -4 6 -3 14 1 22 -6 26 -23 4 -14 12 -24 18 -23 7 2 9 -4 3 -19 -11
-30 -2 -67 21 -79 10 -5 16 -14 13 -20 -7 -10 49 -133 73 -161 8 -10 12 -18 9
-18 -4 0 9 -21 28 -46 19 -25 35 -50 35 -55 0 -5 5 -9 10 -9 6 0 8 10 4 24 -3
14 0 29 10 39 23 23 21 30 -29 71 -47 40 -56 56 -30 56 8 0 15 -5 15 -11 0 -6
10 -9 23 -7 14 2 22 9 21 20 -1 10 3 16 9 15 5 -1 17 21 25 48 8 28 25 77 38
110 12 33 25 81 29 106 15 100 38 91 39 -15 1 -70 2 -73 14 -48 8 15 26 38 40
51 18 15 21 21 9 17 -14 -4 -16 -2 -8 13 6 10 18 24 27 32 16 12 17 12 11 -3
-3 -9 -1 -18 5 -20 7 -3 -1 -23 -20 -51 -34 -49 -72 -129 -72 -152 0 -8 -5
-26 -12 -42 -6 -15 -11 -31 -10 -35 1 -5 -2 -8 -8 -8 -5 0 -10 -8 -10 -17 0
-9 -4 -30 -10 -47 -34 -106 -37 -122 -29 -138 5 -10 5 -19 0 -22 -5 -4 -12 0
-14 6 -3 7 -6 -2 -6 -20 -1 -18 3 -31 7 -28 5 3 10 -27 11 -66 1 -40 4 -75 7
-80 3 -4 0 -8 -5 -8 -13 0 -13 -1 -14 72 0 31 -5 54 -9 52 -5 -3 -8 -52 -7
-110 1 -57 4 -102 8 -100 6 4 8 -29 16 -381 4 -195 13 -283 26 -283 5 0 6 6 3
14 -3 8 -1 17 5 21 7 4 11 -5 11 -24 0 -16 4 -41 9 -55 7 -17 6 -27 -3 -35
-16 -13 -12 -64 8 -136 8 -27 24 -82 36 -122 11 -40 25 -75 30 -78 6 -3 10
-14 10 -23 0 -20 72 -84 104 -93 12 -3 36 -1 55 4 29 7 43 4 102 -27 38 -20
70 -36 72 -36 1 0 3 9 3 20 0 11 -6 20 -14 20 -14 0 -64 33 -97 64 -20 19 -20
20 8 2 16 -10 31 -15 34 -12 3 2 26 -9 53 -25 46 -28 90 -38 90 -20 0 5 -15
19 -34 30 -55 35 -60 46 -18 45 60 -1 70 -4 47 -14 -14 -6 -16 -9 -5 -10 8 -1
26 -4 40 -6 14 -2 56 -7 93 -9 38 -3 87 -12 110 -19 82 -27 238 -43 218 -23
-6 6 -30 12 -53 14 -123 10 -201 34 -180 55 6 6 22 6 43 1 41 -11 119 -5 119
9 0 6 -14 8 -32 5 -18 -2 -43 -1 -54 4 -12 4 -46 4 -75 1 -30 -4 -65 -6 -79
-4 -23 4 -23 5 10 19 19 8 30 17 23 20 -6 2 -30 -5 -52 -16 -22 -12 -43 -21
-46 -21 -11 0 -4 24 12 42 23 26 3 22 -37 -7 -54 -40 -67 -28 -29 27 30 42 15
47 -22 7 -30 -32 -32 -33 -39 -14 -4 11 -5 26 -3 33 3 6 -2 12 -12 12 -12 0
-16 -6 -12 -20 3 -11 0 -21 -6 -21 -7 -1 -23 -3 -37 -6 -49 -8 -75 -3 -110 22
-32 22 -100 117 -100 140 0 5 -10 34 -22 64 -20 46 -21 55 -8 59 8 2 43 33 77
68 88 91 126 181 145 339 13 112 13 126 4 200 -20 168 -54 277 -112 358 -19
26 -34 50 -34 55 0 4 27 36 60 72 33 36 57 57 53 46 -5 -16 -3 -17 15 -7 12 7
22 15 22 19 0 4 12 15 26 26 26 18 26 18 15 -2 -17 -32 -13 -39 6 -12 10 14
17 28 16 32 -2 4 4 5 12 2 18 -7 3 -33 -38 -66 -16 -13 -42 -35 -57 -49 -19
-18 -32 -24 -42 -18 -10 7 -10 9 0 9 15 0 82 59 82 73 0 5 -16 -5 -35 -22 -20
-17 -40 -31 -45 -31 -12 0 -61 -49 -52 -52 22 -5 102 -2 102 5 0 4 -5 7 -12 7
-6 0 -8 3 -4 8 4 4 9 6 11 5 2 -1 19 12 37 29 18 17 50 41 71 55 20 13 37 28
37 35 0 6 -9 3 -21 -8 -21 -18 -21 -18 1 19 14 23 28 36 36 33 8 -3 14 -1 14
5 0 6 4 8 9 4 5 -3 16 4 24 16 9 11 26 28 39 37 l23 16 -20 -24 c-11 -14 -26
-31 -33 -38 -7 -8 -11 -16 -8 -19 2 -2 25 17 51 42 25 26 49 44 53 41 3 -4
-21 -33 -53 -66 -33 -33 -56 -60 -52 -60 14 0 249 221 242 228 -3 3 -22 -10
-43 -29 -20 -19 -48 -44 -61 -54 l-24 -20 5 27 c3 15 2 27 -1 26 -20 -2 -22 4
-5 18 19 15 18 15 -2 5 -11 -5 -26 -17 -33 -25 -8 -9 -17 -13 -23 -10 -5 3 -4
12 4 22 11 13 10 15 -8 10 -25 -6 -26 10 -5 36 8 9 12 19 9 21 -2 3 -19 -15
-37 -40 -28 -40 -65 -76 -47 -47 8 13 -6 16 -18 5 -4 -5 -12 -8 -18 -8 -6 0
-13 -11 -15 -24 -3 -22 -2 -23 14 -10 16 13 31 15 71 10 34 -3 -28 -42 -74
-45 -12 -1 -29 -8 -38 -15 -26 -22 -31 -3 -8 29 29 39 28 46 -5 25 -27 -18
-27 -18 5 22 18 23 32 47 32 54 0 14 -20 -5 -64 -63 -16 -21 -32 -38 -37 -38
-14 0 -11 35 6 66 8 15 13 30 10 32 -8 8 -53 -30 -64 -54 -6 -15 -14 -24 -18
-21 -3 4 5 23 17 44 22 37 22 38 1 19 -26 -23 -29 -3 -5 32 20 29 8 29 -16 0
-15 -18 -21 -20 -31 -11 -10 10 -9 17 6 33 10 11 13 20 8 20 -6 0 -16 -7 -23
-15 -7 -8 -17 -15 -23 -15 -6 0 7 18 28 40 21 22 44 40 50 40 6 0 22 11 35 25
20 22 32 25 74 23 28 -1 57 1 63 5 9 6 11 3 7 -7 -9 -22 3 -20 16 3 8 17 7 19
-15 16 -14 -1 -25 2 -25 8 0 5 -9 7 -21 4 -13 -3 -19 -1 -16 6 3 7 11 10 18 8
8 -2 21 -6 30 -8 11 -3 19 4 23 23 9 34 21 44 110 90 103 53 127 73 120 101
-5 20 0 26 32 39 36 15 37 17 20 30 -13 9 -16 17 -9 26 5 7 15 31 21 54 7 22
23 54 37 70 14 16 25 34 25 40 0 6 9 19 20 29 11 10 20 22 20 26 0 5 11 25 25
45 25 37 32 64 17 64 -4 0 -13 -15 -20 -34 -18 -48 -46 -78 -67 -70 -13 5 -15
14 -11 37 5 25 4 28 -9 17 -26 -21 -16 -2 13 26 15 15 22 24 15 20 -6 -3 -13
-3 -15 1 -1 5 -25 -14 -53 -41 -27 -27 -42 -46 -32 -43 18 7 22 -2 10 -19 -5
-5 -1 -1 9 8 20 22 28 23 28 4 0 -21 -79 -86 -96 -79 -12 4 -9 12 11 39 14 19
22 34 16 34 -5 0 -19 -13 -31 -30 -26 -36 -29 -36 -64 -7 -14 12 -40 31 -57
41 l-31 18 16 -24 c9 -14 37 -40 62 -58 41 -29 45 -36 40 -62 -5 -26 -2 -31
37 -49 23 -11 34 -17 24 -14 -10 3 -24 -1 -30 -8 -15 -15 -17 -69 -3 -79 6 -4
4 -14 -7 -26 -9 -10 -17 -26 -17 -34 0 -9 -28 -34 -62 -56 -35 -22 -73 -51
-85 -66 -22 -24 -61 -34 -77 -19 -4 4 -26 6 -49 5 -46 -2 -84 19 -71 39 5 9 2
10 -9 6 -28 -10 -29 11 -2 29 14 9 25 21 25 26 0 5 -15 -2 -33 -16 -23 -18
-37 -22 -47 -16 -12 8 -13 13 -2 30 7 11 8 20 3 20 -6 0 -12 -4 -15 -9 -9 -14
-71 4 -68 20 3 11 1 12 -9 2 -19 -18 -31 -16 -25 5 2 9 8 28 12 42 l7 24 -34
-25 c-19 -15 -45 -30 -59 -34 -24 -7 -24 -6 6 26 18 19 39 50 48 69 16 34 16
34 -1 11 -10 -14 -26 -34 -36 -45 l-18 -21 10 22 c8 16 7 22 -5 27 -8 3 -12 2
-9 -4 3 -5 1 -18 -4 -27 -8 -14 -10 -15 -11 -3 0 9 -8 3 -19 -14 -11 -17 -18
-33 -15 -38 3 -4 0 -8 -7 -8 -8 0 -10 12 -6 37 6 36 -8 36 -15 -1 -1 -11 -9
-21 -16 -24 -9 -3 -11 7 -9 36 2 21 6 43 9 48 13 22 39 115 36 125 -2 6 -14
-20 -27 -59 -13 -39 -27 -69 -31 -67 -4 2 -5 -6 -3 -18 4 -25 -12 -55 -24 -44
-4 4 -7 27 -6 50 1 31 -1 37 -7 22 -5 -11 -9 -32 -9 -47 -1 -15 -6 -30 -11
-33 -12 -8 -3 83 12 124 5 13 7 26 4 28 -5 5 -46 -116 -46 -137 0 -13 -9 -17
-32 -16 l-33 1 1 70 c0 39 4 81 7 95 4 14 0 9 -9 -10 -9 -19 -17 -55 -18 -80
-1 -54 -10 -55 -103 -9 l-61 30 10 35 c5 20 7 38 4 41 -3 3 -8 -8 -11 -23 -12
-54 -14 -56 -37 -48 -40 12 -1 -24 48 -46 36 -15 44 -24 44 -45 0 -46 -40
-100 -67 -90 -7 2 -13 0 -13 -5 0 -6 -11 -10 -25 -10 -22 0 -25 4 -25 34 0 51
-14 51 -38 1 -12 -24 -31 -49 -43 -56 -21 -11 -22 -10 -16 22 l6 34 -15 -28
c-8 -15 -12 -32 -9 -37 8 -12 -13 -23 -32 -16 -10 4 -12 10 -6 19 17 21 23 47
11 47 -6 0 -26 -17 -46 -37 l-34 -37 -31 17 c-40 23 -45 15 -14 -22 16 -19 23
-38 20 -50 -8 -30 -86 -91 -103 -81 -11 7 -10 14 5 37 17 26 17 27 1 13 -10
-8 -22 -24 -27 -37 -10 -26 -29 -31 -29 -8 0 8 -4 15 -9 15 -5 0 -14 -7 -21
-15 -7 -8 -10 -15 -6 -15 4 0 -1 -11 -10 -25 -15 -24 -15 -25 2 -25 11 0 15
-4 9 -8 -18 -13 -67 -83 -62 -88 3 -3 24 18 47 45 24 29 52 51 62 51 11 0 29
5 41 11 21 12 18 7 -73 -103 -18 -22 -27 -39 -20 -43 5 -3 10 -2 10 3 0 17 39
54 50 47 7 -4 5 -11 -5 -21 -8 -9 -15 -20 -15 -26 0 -11 36 30 39 44 3 15 54
63 63 60 5 -1 6 2 3 8 -4 6 -14 9 -24 6 -12 -4 -12 -3 2 7 29 19 53 39 38 31
-9 -5 -12 -3 -7 4 10 17 19 15 35 -9 11 -19 11 -21 -3 -16 -10 4 -13 1 -10 -7
3 -8 -5 -25 -18 -38 -36 -37 -88 -99 -88 -104 0 -3 -12 -16 -27 -29 -28 -23
-28 -23 -58 -5 -16 10 -49 21 -73 23 -52 6 -75 23 -67 48 4 11 2 19 -4 19 -17
0 -24 -40 -9 -57 11 -13 9 -18 -12 -32 -14 -9 -36 -26 -48 -39 -13 -13 -44
-27 -68 -31 -42 -8 -79 -30 -97 -58 -22 -35 -28 -8 -24 105 7 151 9 161 38
183 13 10 19 19 14 19 -6 0 -16 -5 -23 -12 -6 -6 -14 -9 -17 -6 -3 3 5 12 17
20 21 14 25 14 40 -7 17 -22 16 -24 -3 -50 -33 -41 -15 -41 35 1 50 42 51 42
35 64 -9 13 -10 12 -5 -2 4 -13 0 -18 -14 -18 -12 0 -22 9 -25 23 -9 35 2 157
16 173 21 26 4 24 -25 -3 -19 -17 -26 -32 -22 -46 3 -12 0 -28 -7 -36 -10 -12
-9 -14 7 -8 16 6 17 5 6 -8 -7 -8 -16 -12 -21 -9 -5 3 -9 0 -9 -5 0 -6 -4 -11
-10 -11 -5 0 0 16 11 35 12 19 17 35 11 35 -5 0 -12 -7 -16 -15 -3 -8 -12 -15
-20 -15 -12 0 -15 11 -12 50 3 43 11 59 57 114 58 70 112 142 123 166 10 20
-6 2 -60 -70 -68 -90 -113 -137 -114 -119 0 9 7 22 15 29 8 7 12 16 9 21 -3 5
6 24 19 41 39 53 42 65 9 34 -17 -16 -29 -32 -27 -36 2 -3 -4 -14 -15 -23 -18
-15 -19 -13 -20 66 0 45 -3 211 -5 369 -4 255 -2 287 12 292 9 4 27 -1 40 -9
13 -9 27 -14 31 -11 12 7 48 -24 37 -32 -15 -11 -80 -94 -94 -120 -21 -40 -6
-34 26 11 17 23 58 74 91 113 75 91 86 110 33 59 -28 -27 -41 -34 -41 -23 0 9
3 18 8 20 4 2 38 38 77 81 52 59 74 77 89 73 17 -4 18 -3 4 10 -22 22 -41 10
-127 -85 -74 -83 -97 -98 -86 -58 5 19 5 20 -5 4 -9 -14 -15 -15 -25 -7 -11
10 -11 14 0 28 8 9 21 26 29 37 8 11 18 17 22 13 4 -5 -1 -17 -11 -28 -10 -11
-14 -20 -9 -20 22 0 115 111 139 164 23 51 23 57 8 54 -10 -2 -17 -10 -15 -18
4 -18 -40 -100 -54 -100 -6 0 -19 -9 -29 -20 -31 -35 -37 -22 -8 18 l28 37
-37 -27 c-43 -32 -53 -35 -43 -10 5 14 4 15 -6 5 -16 -16 -29 -17 -29 -3 0 6
11 15 24 20 22 8 45 30 31 30 -3 0 -27 -11 -53 -25 -46 -24 -47 -25 -54 -5 -9
24 7 70 23 70 16 0 1 15 -14 15 -20 1 -7 39 19 58 28 21 23 37 -10 37 l-23 0
-7 458 c-3 251 -9 491 -12 532 l-6 75 131 131 c72 73 131 139 131 148 0 24 39
59 58 51 8 -3 56 -8 106 -10z m-436 -2126 l2 -214 -61 -63 c-34 -34 -64 -60
-67 -57 -3 2 14 30 37 60 24 31 40 59 37 62 -6 6 -18 -4 -89 -74 -36 -37 -38
-37 -52 -19 -8 11 -18 17 -21 13 -10 -9 -64 21 -64 36 0 17 73 97 88 97 6 0
14 5 18 11 4 7 0 9 -13 5 -17 -6 -20 -3 -15 19 3 19 0 25 -13 25 -12 0 -16 6
-12 20 4 16 2 18 -13 10 -25 -13 -48 13 -30 35 7 8 16 15 21 15 4 0 20 5 36
12 15 6 33 10 39 9 6 0 17 6 24 14 11 13 10 18 -6 31 -18 14 -18 15 6 13 39
-2 39 -1 20 39 -19 37 -19 37 2 55 11 9 26 17 33 17 7 0 15 7 19 15 6 16 44
35 61 31 6 -2 11 -85 13 -217z m1 -397 c-4 -20 -5 -40 -2 -45 4 -6 0 -7 -8 -2
-38 22 -39 27 -18 56 11 16 19 37 17 46 -2 13 -10 7 -27 -22 -13 -22 -24 -45
-24 -52 0 -7 -4 -10 -8 -8 -4 3 -14 -6 -23 -20 -19 -29 -38 -32 -56 -10 -16
19 -11 24 26 31 33 6 44 15 27 21 -7 2 -9 11 -6 20 5 13 3 14 -15 4 -12 -7
-22 -18 -22 -26 0 -8 -7 -15 -17 -15 -9 0 -14 2 -12 5 2 3 40 42 84 88 l80 82
6 -59 c3 -32 3 -75 -2 -94z m1250 -82 c4 0 12 5 19 12 9 9 12 9 12 0 0 -7 -4
-12 -9 -12 -4 0 -18 -30 -31 -66 -34 -102 -50 -135 -60 -129 -14 9 0 63 32
123 15 30 28 58 28 63 0 20 -16 6 -40 -34 -24 -41 -26 -46 -29 -66 0 -5 -8
-17 -18 -26 -14 -14 -14 -18 -2 -26 13 -8 5 -13 -15 -10 -5 1 -6 -6 -2 -15 4
-9 -1 -27 -9 -40 -19 -30 -9 -31 22 -2 l24 22 29 -31 c26 -28 28 -34 19 -66
-7 -26 -17 -38 -40 -46 -17 -6 -35 -8 -40 -5 -16 9 -41 65 -35 79 2 7 -1 16
-8 18 -24 9 -26 47 -4 69 12 12 37 53 57 92 43 84 84 136 89 112 2 -9 7 -16
11 -16z m297 -267 c-16 -13 -30 -35 -32 -48 -1 -13 -5 -28 -8 -34 -4 -6 5 -18
19 -27 14 -9 25 -23 25 -31 0 -28 -74 -153 -90 -153 -4 0 -24 15 -44 34 -45
43 -48 80 -8 122 15 16 40 47 56 69 32 45 98 106 106 99 3 -3 -8 -17 -24 -31z
m-1216 -82 c0 -5 8 -7 19 -4 26 7 36 -15 17 -36 -9 -10 -13 -21 -9 -24 11 -12
21 -8 19 9 -2 26 25 37 59 24 l30 -12 -27 -10 c-38 -13 -159 -197 -164 -248 0
-8 -9 -30 -18 -49 -13 -24 -15 -36 -7 -44 12 -12 21 -6 25 15 1 8 11 30 23 50
15 26 18 38 10 41 -7 3 -1 9 13 15 14 6 20 11 13 11 -15 1 -5 31 10 31 6 0 24
12 39 27 15 15 28 22 28 16 0 -6 -3 -13 -7 -15 -5 -1 -19 -23 -32 -48 -82
-156 -78 -151 -120 -156 -30 -3 -31 -2 -26 27 3 17 13 43 21 57 l16 27 -20
-25 c-31 -38 -39 -15 -8 25 15 19 23 35 18 35 -13 0 -8 36 8 54 7 9 10 19 7
22 -3 3 -10 -1 -16 -8 -44 -53 -61 -77 -61 -86 0 -5 -8 -16 -17 -23 -15 -13
-16 -12 -11 9 4 15 2 22 -8 22 -8 0 -14 3 -14 8 0 7 35 32 45 32 10 -1 50 54
63 85 11 27 11 28 -2 11 -9 -10 -17 -24 -19 -30 -2 -6 -15 1 -30 16 -13 15
-28 24 -31 21 -3 -4 -6 -1 -6 5 0 7 4 12 8 12 5 0 30 20 55 45 26 25 51 45 56
45 5 0 11 7 15 15 6 16 36 21 36 6z m1330 -31 c0 -18 -25 -66 -56 -105 -17
-22 -48 -67 -70 -100 -21 -33 -60 -90 -87 -126 -33 -46 -46 -72 -41 -85 5 -15
4 -16 -5 -4 -8 12 -15 3 -36 -43 -15 -31 -30 -57 -35 -57 -4 0 -8 16 -8 36 0
19 -3 38 -6 41 -3 4 -6 -21 -6 -55 0 -33 -3 -63 -7 -65 -5 -3 -8 24 -8 59 1
35 -3 64 -7 64 -4 0 -8 5 -8 11 0 5 5 7 10 4 6 -3 14 4 19 17 5 13 40 50 77
83 44 39 91 95 133 160 95 145 141 199 141 165z m1098 -77 c5 -10 12 -38 16
-63 3 -25 10 -74 16 -110 13 -84 13 -83 -5 -76 -19 7 -19 1 2 -19 13 -13 17
-43 21 -142 4 -125 4 -125 -17 -114 -11 7 -21 17 -21 23 0 7 5 6 15 -2 8 -7
15 -8 15 -3 0 5 -9 16 -20 26 -20 17 -19 44 1 32 13 -9 11 40 -5 105 -7 30
-13 72 -12 93 1 20 -1 37 -4 37 -3 0 -6 9 -6 20 0 11 4 20 8 20 5 0 4 9 -2 20
-6 11 -8 25 -5 30 3 6 3 10 -2 10 -4 0 -13 17 -20 38 -10 32 -10 34 2 18 13
-16 14 -15 13 15 0 19 -5 40 -11 47 -6 8 -6 12 1 12 6 0 15 -8 20 -17z m-1185
-283 c56 -90 88 -197 95 -313 7 -136 -8 -197 -62 -244 -40 -34 -148 -93 -171
-93 -18 0 -25 101 -21 285 4 176 26 288 69 355 13 19 26 43 30 53 10 27 20 21
60 -43z"/>
<path d="M9410 7285 c-25 -13 -52 -22 -61 -19 -26 7 -113 -70 -133 -118 -27
-65 -33 -73 -48 -69 -47 14 -64 11 -87 -13 -20 -22 -33 -26 -77 -26 -48 0 -55
-3 -68 -27 -8 -16 -26 -38 -40 -50 -14 -13 -26 -31 -26 -41 0 -20 29 -52 48
-52 20 0 23 -19 7 -49 -18 -36 -19 -68 -2 -74 8 -3 6 -10 -8 -21 -23 -18 -45
-22 -27 -4 7 7 12 17 12 22 0 6 -5 5 -12 -2 -7 -7 -20 -12 -30 -12 -10 0 -18
-6 -18 -13 0 -7 -9 -18 -20 -25 -11 -7 -20 -20 -20 -29 0 -14 4 -13 24 6 21
20 26 21 45 9 21 -13 30 -8 43 23 2 4 14 10 27 14 19 6 23 4 18 -8 -3 -9 5
-24 19 -38 29 -27 45 -18 19 11 -10 11 -15 21 -12 21 4 1 12 2 19 3 7 1 12 20
13 48 0 25 -3 44 -7 42 -5 -3 -8 -11 -8 -18 0 -21 -34 -46 -49 -36 -11 6 -12
15 -4 37 6 15 11 40 12 56 0 15 7 43 15 62 8 19 11 35 5 35 -5 0 -14 -11 -19
-25 -12 -31 -21 -31 -49 -1 l-22 24 28 26 c15 14 34 26 41 26 9 0 12 6 8 15
-9 23 37 42 67 27 37 -19 52 -18 52 2 0 13 12 24 32 33 27 11 34 10 47 -2 8
-8 17 -15 19 -15 7 0 51 73 52 85 1 22 47 75 66 75 10 0 19 6 19 14 0 14 32
29 84 41 15 3 35 13 43 20 19 19 67 19 83 0 7 -9 15 -13 18 -10 3 3 -3 14 -13
25 -24 27 -69 25 -125 -5z"/>
<path d="M9525 7240 c-11 -5 -14 -9 -7 -9 18 -1 51 -59 45 -81 -4 -13 1 -19
19 -22 15 -2 30 -16 43 -41 17 -32 24 -37 45 -34 42 8 94 31 122 53 15 12 41
27 58 34 65 27 133 -40 80 -80 l-23 -18 48 -46 49 -46 -39 -40 c-21 -22 -34
-40 -29 -40 6 0 20 11 32 25 12 14 28 25 34 25 8 0 9 -3 3 -8 -6 -4 -23 -24
-39 -45 -29 -39 -31 -60 -2 -32 14 15 17 14 36 -3 23 -21 26 -40 14 -92 -6
-31 -6 -34 8 -22 10 7 16 27 15 47 -1 48 10 56 60 45 43 -10 56 -6 114 33 22
14 41 17 94 13 81 -6 92 -14 75 -55 -14 -34 -8 -61 14 -61 28 0 25 -29 -7 -54
l-31 -25 24 -25 c30 -33 44 -33 37 -1 -2 14 4 42 14 61 20 39 16 60 -11 69
-15 5 -17 13 -13 44 5 33 2 41 -20 55 -13 9 -47 19 -75 23 -43 5 -57 1 -101
-23 -43 -24 -54 -27 -68 -16 -43 30 -64 36 -84 24 -32 -20 -38 -14 -33 36 5
44 3 50 -35 89 -37 39 -39 45 -30 75 14 52 11 62 -26 82 -52 28 -86 24 -134
-14 -34 -28 -44 -32 -51 -20 -7 11 -13 9 -30 -13 -28 -35 -66 -36 -74 -3 -3
14 -19 33 -35 42 -16 10 -32 29 -34 43 -9 41 -29 60 -52 51z"/>
<path d="M8846 6815 c-30 -20 -43 -23 -84 -18 -44 5 -51 3 -69 -21 -11 -14
-34 -41 -51 -61 -31 -34 -31 -34 -60 -18 -28 16 -32 15 -98 -12 -38 -16 -75
-33 -83 -39 -18 -14 -6 -107 16 -123 40 -30 60 -1 23 32 -14 13 -20 29 -18 49
3 28 9 33 68 54 64 23 66 23 100 5 19 -9 38 -19 43 -21 4 -2 7 3 7 11 0 16 20
27 50 27 16 0 17 3 7 31 -11 28 -10 33 12 50 28 23 43 24 80 4 27 -13 29 -13
39 9 5 12 24 30 42 38 18 9 28 18 22 22 -5 3 -26 -5 -46 -19z"/>
<path d="M9264 6573 c1 -193 -2 -264 -12 -280 -11 -19 -10 -22 3 -17 12 5 15
-4 15 -54 0 -33 3 -67 6 -76 3 -9 1 -16 -5 -16 -6 0 -11 14 -11 31 0 17 -4 28
-10 24 -5 -3 -10 -14 -10 -23 0 -11 -9 -18 -25 -18 -20 -2 -25 3 -25 20 0 12
7 31 15 42 17 22 19 38 4 29 -5 -4 -15 -19 -20 -33 -8 -21 -12 -24 -20 -12 -6
11 -8 5 -4 -18 3 -19 3 -49 -1 -68 -6 -32 -8 -33 -20 -17 -12 16 -13 16 -14 2
0 -9 -6 -19 -14 -22 -7 -3 -16 -19 -19 -36 -5 -22 -14 -32 -32 -37 -35 -9 -38
-3 -27 50 6 28 6 46 0 46 -14 0 -40 -69 -33 -90 8 -24 -15 -31 -59 -18 -29 9
-36 16 -37 37 0 25 -1 25 -9 5 -12 -31 -30 -39 -30 -15 0 31 -36 27 -44 -4 -5
-18 -13 -25 -31 -25 -29 0 -28 -3 -11 73 8 31 10 57 6 57 -5 0 -11 -18 -15
-40 -4 -22 -13 -46 -20 -53 -7 -7 -15 -22 -19 -34 -5 -15 -13 -19 -32 -15 -33
6 -39 22 -24 67 16 49 5 56 -14 10 -22 -53 -20 -63 19 -101 35 -33 36 -34 20
-64 -23 -45 -60 -66 -91 -51 -33 15 -34 14 -34 -8 0 -20 18 -31 51 -31 22 0
24 -17 5 -43 -12 -15 -17 -15 -38 -4 -53 27 -58 39 -42 92 19 64 10 70 -16 12
-12 -26 -24 -47 -27 -47 -3 0 -22 16 -41 36 -30 31 -34 40 -29 71 5 28 3 33
-5 25 -7 -7 -12 -27 -12 -46 0 -43 46 -97 127 -150 31 -21 57 -44 57 -51 0 -6
-9 -20 -20 -30 -16 -14 -18 -21 -8 -28 9 -6 7 -7 -6 -3 -20 7 -46 -9 -46 -27
0 -7 4 -7 12 1 15 15 32 16 23 2 -3 -5 -2 -10 3 -10 9 0 27 33 20 36 -2 1 15
22 37 47 69 80 98 118 93 123 -3 2 -11 -2 -18 -11 -7 -8 -17 -15 -22 -15 -15
0 66 91 90 101 12 5 22 14 22 21 0 7 9 19 20 25 18 12 18 11 -2 -25 -12 -20
-43 -65 -70 -99 -26 -34 -44 -64 -40 -67 5 -3 16 4 26 15 10 12 20 19 22 16 3
-3 -6 -16 -20 -30 -31 -31 -36 -59 -6 -32 14 13 20 14 20 5 0 -9 6 -8 20 5 13
11 18 27 16 46 -4 32 1 35 27 15 9 -7 15 -20 12 -28 -7 -19 25 -34 36 -17 4 6
11 9 17 5 6 -3 14 0 19 7 4 8 20 22 36 32 24 15 27 16 27 1 0 -9 7 -16 15 -16
9 0 29 -16 46 -35 65 -74 53 -24 -19 79 -20 28 -32 48 -27 44 4 -4 13 -1 19 8
15 20 37 10 62 -29 23 -35 67 -49 63 -19 -4 23 10 62 22 62 5 0 9 16 9 35 0
42 11 45 35 8 20 -30 25 -71 11 -90 -12 -18 0 -16 25 5 22 18 38 50 45 91 3
14 10 32 15 40 7 12 9 3 6 -32 -3 -26 -1 -65 4 -86 5 -22 5 -52 -1 -70 l-9
-31 57 -1 c111 -2 237 17 285 43 68 36 178 134 203 181 22 42 37 32 15 -10
-26 -53 -36 -87 -22 -79 13 9 61 107 61 127 0 8 9 29 21 48 11 18 18 38 16 44
-2 6 -15 -11 -30 -36 -41 -70 -44 -57 -4 15 37 66 44 73 65 60 9 -7 5 -23 -19
-70 -18 -34 -30 -65 -27 -68 7 -6 78 63 94 90 6 11 15 16 22 12 8 -4 -1 -19
-25 -42 -19 -19 -32 -38 -28 -42 3 -4 18 6 31 21 13 15 24 23 24 18 0 -6 -22
-33 -50 -61 -53 -53 -63 -57 -29 -9 11 16 16 29 11 29 -18 0 -35 -31 -35 -61
0 -17 -5 -28 -11 -26 -6 2 -10 17 -9 32 2 26 1 27 -11 9 -14 -20 -18 -56 -6
-49 4 2 17 -7 30 -20 l23 -25 32 20 c38 23 158 30 193 11 13 -7 30 -10 38 -7
19 7 18 -4 -3 -19 -24 -18 -25 -55 0 -55 12 0 17 5 14 14 -4 9 3 16 19 20 13
4 24 11 24 17 0 7 -6 6 -17 -2 -11 -9 -10 -3 6 19 22 32 17 44 -8 20 -12 -11
-13 -10 -7 6 3 10 2 24 -4 31 -7 9 -5 16 7 26 15 12 16 12 8 -1 -5 -9 -5 -12
1 -7 9 9 10 13 13 42 0 8 11 23 23 35 44 41 3 18 -63 -35 -62 -50 -100 -70
-84 -45 9 14 -2 12 -29 -6 -41 -26 -36 0 6 35 31 26 38 29 29 13 -18 -33 -6
-27 67 34 99 82 154 135 147 142 -3 3 -21 -9 -39 -27 -29 -28 -37 -31 -55 -22
-12 7 -21 16 -21 21 0 6 -9 10 -20 10 -11 0 -20 6 -20 14 0 7 -9 16 -20 19
-11 3 -20 12 -20 21 0 28 -14 17 -39 -29 -13 -25 -27 -46 -30 -46 -63 -14 -81
8 -57 65 8 20 11 36 7 36 -5 0 -18 -21 -29 -47 -19 -47 -20 -47 -29 -23 -6 14
-14 23 -19 21 -4 -2 -13 3 -18 11 -6 11 -3 29 12 59 28 56 19 63 -19 16 -17
-20 -35 -37 -40 -37 -5 0 -9 41 -8 93 1 97 -12 167 -42 231 -11 22 -17 41 -15
43 9 10 57 -94 69 -152 3 -11 5 3 6 30 2 83 -55 181 -91 158 -6 -3 -8 -2 -5 4
3 5 -29 39 -72 76 -105 89 -162 108 -332 114 l-127 4 2 -258z m307 177 c20 -5
67 -36 105 -68 122 -102 164 -225 109 -319 -14 -23 -21 -43 -15 -43 5 0 17 18
26 40 9 23 19 38 23 35 11 -12 7 -155 -5 -155 -19 0 -25 -30 -9 -36 25 -10 19
-93 -9 -135 -22 -33 -31 -37 -95 -47 -38 -7 -90 -12 -114 -12 -31 0 -56 -8
-81 -25 -38 -25 -55 -31 -57 -17 0 4 -2 84 -4 177 -2 94 -6 273 -9 399 l-6
229 52 -6 c29 -3 69 -11 89 -17z"/>
<path d="M9551 3679 c-1 -41 -7 -98 -15 -125 -8 -27 -17 -66 -20 -86 -4 -21
-11 -38 -16 -38 -4 0 -6 -8 -3 -18 2 -10 -3 -24 -11 -31 -9 -8 -16 -26 -16
-42 0 -21 -15 -43 -59 -88 -47 -46 -56 -61 -44 -65 15 -6 25 0 83 52 14 12 36
25 50 29 14 3 31 10 38 16 6 5 12 7 12 3 0 -3 15 3 34 14 19 10 36 16 38 12 2
-4 19 -15 38 -24 19 -10 59 -31 89 -48 30 -16 65 -30 78 -30 33 0 21 16 -18
24 -18 3 -51 21 -73 40 -23 18 -50 35 -61 37 -13 3 -22 17 -28 42 -10 42 -22
48 -30 15 -5 -18 -8 -19 -21 -9 -9 8 -13 18 -10 25 3 6 -1 2 -10 -8 -14 -18
-15 -14 -11 45 12 176 12 218 0 274 l-13 60 -1 -76z"/>
<path d="M12470 7933 c-288 -5 -233 -29 85 -37 211 -5 268 0 273 27 3 15 -6
17 -95 15 -54 -1 -172 -4 -263 -5z"/>
<path d="M12640 7221 c-95 -26 -203 -78 -194 -92 4 -8 3 -9 -4 -5 -7 4 -20 2
-29 -4 -16 -10 -16 -11 2 -5 24 8 19 2 -65 -60 -61 -46 -64 -43 -15 14 l20 25
-32 -20 c-17 -10 -44 -36 -60 -56 -102 -131 -124 -165 -161 -240 -101 -207
-127 -473 -67 -681 13 -45 22 -84 20 -87 -2 -4 32 -76 77 -161 44 -85 102
-194 128 -244 47 -90 127 -237 235 -435 106 -191 99 -168 80 -284 -9 -55 -23
-108 -32 -118 -11 -12 -11 -18 -3 -23 13 -8 11 -31 -10 -129 -7 -34 -7 -53 0
-60 5 -5 10 -21 11 -35 0 -25 1 -26 11 -4 9 19 18 21 92 21 44 0 106 3 137 6
56 6 56 6 51 -19 -3 -19 0 -25 13 -25 10 0 15 5 12 14 -5 11 -1 11 24 -1 16
-8 26 -19 23 -25 -5 -7 4 -8 27 -4 19 4 46 7 62 7 15 0 27 4 27 9 0 6 -5 10
-12 10 -6 0 -9 2 -6 5 8 8 38 -6 33 -16 -3 -4 4 -13 15 -19 12 -6 20 -7 20 -1
0 5 -6 12 -12 15 -7 4 -3 4 10 2 13 -3 22 1 22 9 0 16 50 29 63 16 5 -5 17 -7
26 -5 9 3 5 -1 -8 -9 -23 -14 -21 -14 33 -12 31 2 60 5 63 8 3 3 16 2 29 -3
15 -6 24 -6 24 0 0 10 -20 13 -83 12 -21 0 -35 3 -32 9 4 5 -5 14 -19 21 -35
15 -33 28 4 28 22 0 28 -4 24 -15 -6 -14 -2 -15 71 -30 31 -7 103 7 81 15 -26
9 117 34 149 26 13 -3 26 -2 29 2 3 5 18 8 33 7 18 -2 20 -1 6 2 -13 2 -23 8
-23 14 0 5 -52 6 -127 3 -208 -9 -204 -11 -222 99 -6 40 -20 124 -30 187 l-18
114 63 126 c35 69 70 136 78 150 18 29 144 291 208 435 25 55 59 129 75 165
17 36 34 76 38 90 4 14 11 30 15 35 14 17 68 217 81 294 38 244 -83 563 -288
751 -65 60 -86 73 -162 101 -18 7 -49 23 -69 37 -63 42 -124 53 -317 58 -153
3 -190 1 -245 -15z m477 -61 c139 -40 263 -103 263 -134 0 -7 -23 -17 -51 -22
-49 -11 -52 -10 -107 26 -32 20 -68 49 -82 64 -14 16 -34 32 -45 37 -30 15 83
-88 134 -122 28 -18 39 -30 30 -33 -28 -10 -118 -36 -278 -81 -90 -25 -214
-66 -275 -91 l-111 -45 -20 27 c-11 15 -47 59 -80 97 -33 39 -70 82 -82 96
-13 15 -22 20 -23 13 0 -8 28 -46 63 -86 97 -111 124 -149 109 -154 -6 -2 -10
-8 -7 -13 4 -5 -12 -39 -33 -76 -34 -59 -88 -205 -134 -363 -12 -40 -26 -55
-147 -153 -74 -59 -138 -104 -143 -99 -4 4 -9 21 -12 37 -2 17 -9 44 -17 60
-20 45 -18 345 2 345 4 0 10 15 14 33 22 108 66 217 132 330 31 52 51 77 64
77 11 0 16 5 13 14 -3 9 23 34 73 71 237 174 485 221 750 145z m347 -212 c20
-23 36 -49 36 -58 0 -9 11 -27 24 -39 14 -13 22 -29 19 -37 -4 -10 0 -12 11
-8 9 3 16 1 16 -5 0 -6 -5 -11 -10 -11 -6 0 -5 -8 2 -19 7 -11 15 -18 19 -15
4 2 13 -4 20 -13 12 -14 11 -15 -8 -9 -22 7 -22 7 -7 -31 9 -21 24 -45 34 -53
32 -26 43 -96 42 -265 -2 -241 -12 -276 -63 -214 -36 43 -129 230 -167 334
-50 135 -161 407 -173 421 -12 15 13 31 81 50 74 20 85 17 124 -28z m-244 -30
c0 -13 -7 -86 -15 -163 -8 -77 -15 -166 -15 -197 0 -32 -4 -58 -10 -58 -5 0
-18 17 -29 38 -10 20 -45 62 -78 93 -46 44 -72 60 -118 74 -147 43 -339 -24
-396 -137 -92 -188 -74 -379 48 -504 64 -66 119 -86 223 -82 70 2 95 8 139 31
29 16 59 26 67 23 8 -3 25 10 41 32 15 20 30 39 33 42 44 39 100 175 100 242
0 22 4 29 14 25 13 -5 72 -42 289 -183 37 -24 67 -50 67 -57 0 -6 -109 -67
-243 -134 -133 -68 -300 -159 -372 -203 -71 -44 -135 -80 -142 -80 -7 0 -33
33 -58 73 -26 39 -72 99 -104 132 -31 33 -69 74 -85 92 -28 31 -28 32 -5 26
22 -5 22 -4 7 8 -27 22 -128 161 -128 176 0 8 5 11 13 8 6 -4 4 0 -7 9 -11 9
-16 21 -12 32 5 12 2 15 -10 10 -10 -4 -14 -2 -11 6 2 7 13 13 23 12 16 0 19
6 16 42 -7 81 91 339 141 375 12 8 48 26 80 39 75 29 508 178 525 179 6 1 12
-9 12 -21z m94 -191 c30 -73 73 -181 96 -242 22 -60 61 -147 86 -193 25 -46
44 -86 42 -88 -2 -1 -57 33 -123 78 -66 44 -142 91 -168 105 -49 24 -49 24
-43 66 3 23 11 131 18 240 10 160 14 195 24 182 7 -9 37 -76 68 -148z m-548
-45 c-3 -5 32 -8 77 -9 105 0 147 -4 142 -14 -3 -4 9 -12 25 -18 17 -5 30 -15
30 -20 0 -6 7 -11 15 -11 8 0 15 -6 15 -14 0 -8 7 -22 15 -30 9 -8 27 -39 40
-68 41 -91 41 -269 -1 -285 -7 -3 -14 -11 -14 -19 0 -8 -4 -14 -10 -14 -5 0
-10 -7 -10 -16 0 -8 -5 -12 -10 -9 -6 3 -15 -6 -21 -22 -7 -18 -13 -23 -18
-15 -5 9 -12 5 -21 -14 -8 -14 -30 -34 -50 -44 -46 -24 -242 -49 -248 -32 -2
6 -20 16 -40 22 -25 7 -44 21 -59 45 -30 45 -31 73 -3 45 11 -11 24 -20 29
-20 5 0 11 -8 13 -18 3 -10 13 -19 22 -20 9 -1 23 -3 31 -4 8 -1 15 -5 15 -10
0 -4 10 -8 23 -7 18 0 16 3 -13 17 -42 21 -97 76 -115 117 l-13 30 -7 -27 c-4
-16 -12 -28 -17 -28 -6 0 -7 11 -4 25 5 20 0 31 -20 50 -16 15 -23 29 -18 36
4 7 8 22 9 33 4 51 18 122 27 133 5 7 10 41 11 77 0 36 4 63 8 60 4 -2 9 0 11
6 1 5 14 11 27 13 14 2 28 12 31 22 5 13 9 15 14 7 10 -17 29 -15 22 3 -3 8
-2 14 2 14 21 -3 42 2 42 11 0 5 -15 7 -32 4 l-33 -5 35 14 c43 18 53 20 46 9z
m-324 -511 c35 -58 157 -221 218 -291 55 -63 100 -123 100 -133 0 -9 -142 49
-285 115 -77 36 -185 85 -240 108 -55 23 -101 43 -102 44 -2 1 19 18 45 38 26
20 57 45 69 55 12 10 49 38 83 63 33 24 60 49 60 53 0 16 28 -13 52 -52z
m1168 -97 c0 -11 -121 -275 -130 -284 -3 -3 -5 -9 -5 -15 0 -12 -116 -241
-151 -300 -14 -22 -29 -51 -35 -65 -95 -220 -217 -457 -241 -468 -5 -2 -8 -10
-8 -18 0 -8 -18 -41 -40 -73 -22 -32 -40 -68 -40 -79 0 -12 -4 -24 -10 -27 -5
-3 -10 -15 -10 -26 0 -10 -9 -27 -20 -36 -11 -9 -15 -20 -10 -23 5 -3 5 -11 0
-20 -5 -8 -12 -11 -16 -7 -4 4 -9 107 -10 230 -1 216 -1 223 22 270 13 26 20
47 14 47 -5 0 -12 -11 -16 -25 -3 -14 -13 -25 -21 -25 -38 0 9 162 64 218 7 8
18 22 23 33 19 34 -9 22 -29 -13 -11 -18 -26 -40 -34 -48 -8 -8 -18 -25 -21
-38 -14 -44 -27 -9 -26 66 1 43 1 79 0 82 -1 3 -3 60 -5 128 l-3 123 26 16
c15 9 56 35 92 58 64 42 292 167 360 197 19 9 52 19 72 23 20 4 44 16 54 26 9
10 29 19 43 20 14 0 20 3 13 6 -15 6 30 33 54 33 8 0 14 4 14 8 0 5 7 9 15 9
8 0 15 -2 15 -3z m-1231 -193 c135 -60 260 -115 276 -121 17 -6 59 -24 95 -41
l65 -30 0 -57 c0 -31 8 -203 18 -382 22 -407 25 -550 12 -550 -6 0 -6 -3 1 -8
6 -4 14 -20 18 -36 6 -26 5 -28 -8 -17 -21 18 -47 71 -40 83 3 5 -6 27 -20 48
-14 22 -26 42 -26 46 0 3 -16 31 -37 62 -67 106 -80 127 -118 197 -56 102 -65
117 -143 254 -40 68 -72 125 -72 128 0 2 -11 19 -24 36 -13 18 -58 102 -101
187 -43 85 -95 188 -117 228 -40 77 -42 82 -31 82 4 0 117 -49 252 -109z"/>
<path d="M11695 5845 c-8 -31 -20 -74 -24 -98 -5 -23 -25 -116 -45 -207 -46
-207 -62 -291 -76 -405 -5 -49 -26 -153 -46 -230 -19 -77 -46 -185 -60 -240
-13 -55 -28 -113 -34 -130 -8 -25 -33 -146 -46 -220 -2 -11 -12 -56 -23 -100
-31 -127 -68 -282 -91 -390 -12 -55 -33 -138 -46 -185 -13 -47 -40 -168 -60
-270 -28 -144 -34 -198 -30 -245 5 -47 2 -72 -13 -114 -20 -52 -20 -71 0 -71
5 0 9 12 9 28 1 15 7 41 14 57 l13 30 7 -50 c5 -27 14 -62 22 -77 8 -15 14
-38 14 -51 0 -13 7 -32 15 -43 8 -10 15 -26 15 -35 0 -27 59 -45 120 -38 30 4
98 8 150 8 64 1 90 4 80 11 -10 6 19 9 87 9 56 0 105 -4 108 -9 4 -6 95 -7
229 -4 211 6 223 5 230 -12 7 -18 9 -17 17 4 7 20 13 22 49 16 27 -4 40 -3 40
5 0 6 -13 11 -30 11 -35 0 -34 -6 -14 80 l17 68 106 -4 c58 -3 122 -9 142 -13
83 -19 359 -10 359 12 0 6 -43 8 -119 4 -65 -2 -125 -1 -132 4 -13 8 45 15 94
11 9 -1 17 3 17 9 0 8 -30 9 -102 4 -114 -8 -133 -8 -261 -6 l-88 1 3 25 c4
31 -2 30 105 14 69 -10 128 -10 297 -1 246 14 313 19 381 28 87 11 64 17 -40
10 -196 -13 -589 -18 -615 -7 -18 7 44 10 220 11 135 1 256 6 270 10 22 7
-240 13 -422 10 -42 -1 -68 3 -68 9 0 6 3 10 8 10 4 -1 52 -1 107 1 66 1 93 4
80 10 -24 10 -10 13 50 10 70 -3 97 -3 250 0 143 3 147 3 70 11 -106 10 -585
19 -582 10 1 -3 -7 -18 -19 -33 -14 -18 -29 -26 -47 -25 -30 2 -35 18 -13 40
9 9 11 18 5 24 -6 6 -3 37 6 84 9 41 18 86 19 101 2 14 9 41 14 60 6 18 14 71
17 118 4 47 11 90 15 95 4 6 15 49 25 96 l18 86 46 -2 c25 -1 177 -3 337 -4
l292 -1 7 -55 c5 -41 11 -55 23 -55 14 0 13 -2 -2 -13 -15 -11 -16 -17 -7 -35
6 -11 11 -31 11 -44 0 -16 3 -19 9 -10 7 11 9 11 14 -2 3 -8 2 -18 -3 -21 -14
-9 -12 -45 3 -45 8 0 8 -3 -2 -9 -9 -6 -11 -16 -6 -27 7 -18 7 -18 14 0 4 10
7 -11 7 -45 0 -35 8 -100 17 -144 9 -44 19 -96 22 -115 3 -20 24 -61 50 -95
31 -42 41 -62 32 -67 -9 -6 -7 -12 7 -20 11 -6 36 -29 57 -52 21 -22 40 -38
42 -36 2 3 0 23 -5 45 -6 28 -28 63 -73 114 -36 41 -65 78 -65 83 0 4 9 8 21
8 16 0 19 4 14 18 -13 31 -12 61 1 66 9 3 16 -16 24 -67 12 -72 39 -142 40
-104 0 10 -4 26 -9 35 -13 25 -20 94 -12 116 10 27 17 12 31 -64 6 -36 18 -89
26 -119 8 -29 17 -76 19 -103 2 -27 6 -52 9 -55 14 -14 4 -33 -16 -33 -13 0
-29 -4 -36 -9 -24 -14 113 -20 433 -17 171 1 393 0 494 -3 l183 -6 13 -40 c7
-22 16 -52 19 -67 4 -16 10 -28 15 -28 10 0 5 32 -9 65 -5 11 -11 43 -13 70
-3 28 -19 106 -36 175 -18 69 -33 137 -35 151 -2 14 -5 30 -8 35 -14 22 -41
130 -68 269 -16 83 -43 209 -60 280 -16 72 -37 161 -46 200 -9 38 -17 88 -18
112 0 24 -5 43 -10 43 -4 0 -6 11 -4 25 3 14 1 23 -6 22 -5 -1 -16 27 -23 63
-7 36 -19 95 -28 131 -8 37 -15 77 -14 90 0 23 1 23 9 4 12 -28 12 -14 -1 47
-10 43 -13 49 -21 33 -6 -14 -6 -8 -3 18 3 20 3 42 -1 49 -4 6 -8 27 -10 46
-2 18 -8 39 -13 46 -6 7 -12 37 -13 68 -2 31 -6 54 -10 52 -4 -2 -9 0 -13 6
-3 5 -2 10 3 10 6 0 8 9 5 20 -3 11 -9 20 -14 20 -5 0 -7 11 -3 25 4 16 2 25
-6 25 -7 0 -10 7 -7 15 4 8 2 17 -3 20 -5 3 -9 13 -8 23 0 9 -3 28 -7 42 -4
14 -15 66 -25 115 -24 122 -45 213 -73 320 -57 210 -115 432 -122 462 -3 17
-14 38 -22 45 -15 12 -16 9 -9 -22 3 -19 9 -69 13 -110 3 -41 12 -82 19 -91 8
-9 14 -27 13 -40 -1 -40 11 -107 26 -143 8 -18 12 -36 9 -38 -3 -3 2 -23 10
-44 7 -22 24 -82 36 -134 12 -52 25 -106 30 -120 5 -14 11 -41 13 -60 3 -19 7
-42 10 -50 4 -8 8 -31 11 -50 3 -19 10 -51 16 -70 12 -42 12 -40 0 -40 -5 0
-12 11 -16 25 -13 51 -16 15 -3 -39 8 -39 17 -56 28 -56 12 0 13 -2 4 -8 -10
-6 -10 -25 2 -87 9 -44 19 -82 23 -85 4 -3 7 -13 8 -22 3 -65 5 -78 18 -90 8
-8 11 -27 9 -48 -3 -24 -1 -31 5 -21 7 10 11 6 15 -15 3 -16 8 -40 12 -54 3
-14 8 -36 10 -50 3 -14 11 -50 20 -80 8 -30 20 -80 25 -110 14 -71 46 -218 76
-345 13 -55 46 -201 74 -325 92 -407 111 -484 135 -562 14 -42 25 -78 25 -80
0 -3 -212 -2 -901 2 l-86 0 -22 118 c-12 64 -29 151 -37 192 -13 71 -24 147
-25 180 0 8 -5 35 -10 60 -5 25 -11 65 -14 90 -5 49 -18 118 -41 220 -8 36
-15 82 -16 103 -1 41 -12 54 -31 38 -15 -12 -392 6 -419 20 -12 6 -18 6 -18
-1 0 -5 -7 -10 -16 -10 -8 0 -13 4 -10 8 7 12 -191 5 -239 -8 -68 -19 -159
-29 -166 -18 -7 10 -24 -20 -20 -36 1 -5 -2 -12 -7 -15 -4 -3 -21 -51 -36
-105 -16 -55 -39 -127 -51 -161 -13 -33 -42 -137 -65 -231 -52 -215 -51 -209
-40 -198 5 5 23 63 39 128 17 65 33 121 37 125 4 3 4 -6 0 -21 -3 -14 -8 -45
-11 -67 -3 -22 -10 -52 -15 -66 -6 -15 -10 -38 -10 -53 0 -15 -9 -50 -20 -79
-11 -28 -16 -53 -11 -55 4 -2 1 -40 -8 -85 l-15 -83 -64 0 c-93 0 -256 21
-264 34 -5 7 -8 7 -8 -3 0 -9 -4 -10 -12 -4 -7 5 -145 8 -310 7 -193 -1 -298
2 -298 9 0 5 15 71 34 146 19 75 48 197 65 271 17 74 36 151 42 171 6 20 12
49 13 65 2 16 5 36 9 44 3 8 11 40 17 70 6 30 15 64 20 75 5 11 11 49 14 85 3
36 15 110 26 165 20 101 27 133 54 240 8 33 17 86 20 118 5 62 16 91 16 42 0
-31 6 -31 12 0 1 11 9 26 16 34 7 7 11 20 8 28 -4 8 -3 20 1 26 4 6 8 27 10
47 2 19 9 55 16 80 7 25 12 57 11 73 0 15 3 27 7 27 4 0 8 8 8 18 0 37 7 78
14 90 5 6 5 12 1 12 -3 0 0 8 7 17 11 13 11 15 1 9 -11 -6 -11 -4 -4 10 25 47
43 95 37 103 -3 5 1 29 9 53 7 24 19 77 25 118 7 41 16 84 20 95 11 26 80 328
87 380 3 22 9 56 14 75 6 19 10 51 10 71 0 20 6 49 14 64 8 15 12 33 9 40 -2
7 3 27 12 44 8 17 11 31 5 31 -5 0 -17 -17 -25 -37 -18 -43 -106 -396 -129
-518 -26 -137 -123 -544 -133 -555 -2 -2 -8 2 -12 9 -12 19 -20 1 -22 -50 -1
-24 -5 -48 -9 -54 -11 -15 -18 -75 -8 -75 4 0 8 -5 8 -11 0 -5 -4 -8 -8 -5 -5
3 -10 -16 -11 -42 -1 -26 -8 -72 -15 -102 -8 -30 -27 -109 -41 -175 -15 -66
-31 -131 -36 -145 -5 -14 -18 -70 -29 -125 -26 -126 -37 -172 -49 -210 -9 -25
-9 -20 -5 25 4 30 13 74 20 96 28 83 80 370 89 489 4 50 8 92 10 95 7 11 -14
34 -22 26 -4 -5 -2 -11 5 -13 6 -3 10 -9 6 -14 -8 -14 -14 -48 -20 -129 -7
-90 -106 -520 -120 -520 -5 0 2 51 9 70 5 13 26 112 31 145 1 6 7 24 13 40 33
86 64 371 52 470 -4 29 11 123 27 167 14 41 14 40 14 62 0 8 7 22 16 30 8 9
13 20 10 25 -3 5 0 11 8 14 14 6 27 75 15 82 -9 6 15 155 46 285 13 58 36 173
50 255 15 83 33 182 41 220 17 79 24 175 13 175 -4 0 -15 -25 -24 -55z"/>
<path d="M6325 3112 c-11 -2 -22 -8 -25 -12 -3 -5 -17 -23 -32 -42 -111 -136
-112 -143 -13 -143 57 0 70 -3 73 -17 2 -12 -7 -18 -38 -23 -49 -8 -68 2 -21
11 17 4 34 11 38 17 4 6 -4 7 -23 3 -53 -14 -106 -8 -114 11 -3 7 -10 2 -17
-12 -11 -25 -10 -25 35 -26 46 -1 46 -1 15 -10 -52 -15 -54 -33 -2 -25 24 4
84 9 132 11 49 2 95 9 103 16 9 7 14 8 14 1 0 -6 12 -9 28 -7 15 2 30 4 35 4
4 1 7 5 7 9 0 9 -93 8 -107 -1 -12 -7 -73 20 -73 33 0 5 15 10 33 10 24 0 28
-3 17 -10 -12 -8 -11 -10 8 -10 23 0 30 14 11 26 -7 4 -53 7 -103 8 -52 1 -91
5 -91 11 0 12 152 22 350 24 94 1 135 4 125 11 -8 5 -66 10 -129 10 -63 0
-111 3 -108 6 8 8 34 10 145 12 121 3 94 22 -30 22 -56 0 -99 3 -96 6 9 9 69
16 133 15 46 0 56 2 42 10 -10 6 -72 10 -143 10 -77 -1 -124 3 -124 9 0 6 27
10 63 10 63 1 139 9 146 16 2 2 -31 5 -75 6 -43 1 -99 2 -124 3 -25 1 -54 -1
-65 -3z"/>
<path d="M15943 2881 c-50 -9 -27 -28 47 -40 83 -14 570 -15 570 -1 0 5 -7 7
-16 3 -9 -3 -20 0 -25 8 -5 9 -9 10 -9 2 0 -8 -9 -7 -31 4 -24 12 -36 13 -58
3 -37 -15 -226 -11 -267 6 -24 10 -34 10 -44 1 -10 -10 -12 -8 -7 6 6 15 -1
17 -61 16 -37 -1 -82 -4 -99 -8z"/>
<path d="M12517 2869 c-8 -5 -58 -10 -111 -11 -53 -2 -96 -6 -96 -10 0 -7 32
-12 53 -9 4 0 7 -4 7 -10 0 -9 63 -10 243 -5 204 5 357 17 337 25 -12 6 -46
12 -55 11 -5 -1 -58 -4 -117 -6 -99 -5 -108 -4 -108 12 0 17 -1 17 -12 1 -12
-15 -19 -15 -70 -3 -31 7 -62 9 -71 5z"/>
</g>
</svg>
