<?xml version="1.0" standalone="no"?>
<!DOCTYPE svg PUBLIC "-//W3C//DTD SVG 20010904//EN"
 "http://www.w3.org/TR/2001/REC-SVG-20010904/DTD/svg10.dtd">
<svg version="1.0" xmlns="http://www.w3.org/2000/svg"
 width="1928.000000pt" height="1074.000000pt" viewBox="0 0 1928.000000 1074.000000"
 preserveAspectRatio="xMidYMid meet">
<metadata>
Created by potrace 1.16, written by Peter Selinger 2001-2019
</metadata>
<g transform="translate(0.000000,1074.000000) scale(0.100000,-0.100000)"
fill="#000000" stroke="none">
<path d="M14564 8003 c9 -17 20 -35 26 -38 21 -13 9 -34 -22 -38 -32 -4 -31
-4 6 -5 37 -2 38 -3 33 -34 -9 -61 -18 -1155 -19 -2243 -1 -676 -4 -1082 -10
-1086 -7 -4 -7 -13 -1 -25 5 -11 9 -113 8 -229 -2 -115 -2 -219 -2 -230 -1
-11 1 -83 3 -160 2 -77 3 -246 3 -375 -1 -247 0 -266 5 -342 3 -35 0 -48 -12
-53 -12 -4 -8 -12 19 -36 28 -25 31 -32 19 -40 -11 -8 -12 -12 -2 -16 19 -7
14 -23 -5 -17 -13 4 -11 0 5 -13 66 -51 122 -109 118 -120 -3 -8 2 -13 13 -13
10 0 25 -8 34 -18 26 -29 67 -125 67 -159 0 -18 5 -33 10 -33 6 0 10 8 10 18
0 9 5 34 11 55 9 33 14 38 32 33 12 -3 79 -6 149 -7 108 -2 126 -4 116 -16 -9
-12 -7 -13 13 -8 39 9 472 32 652 34 31 1 57 6 57 11 0 6 -7 10 -15 10 -8 0
-23 9 -32 20 -21 24 -33 26 -33 5 0 -9 -9 -15 -22 -15 -17 0 -19 3 -10 12 7 7
12 42 12 85 l0 73 28 0 c15 0 72 -5 127 -11 142 -14 236 -18 231 -10 -3 4 -35
8 -73 9 -37 2 -86 8 -108 14 -22 7 -76 12 -120 12 -76 1 -80 2 -83 24 -3 21
-1 23 25 18 15 -3 60 -7 100 -8 40 -1 67 -6 60 -10 -24 -15 6 -20 140 -24 259
-8 328 -12 343 -18 11 -5 16 -1 16 14 0 11 -5 19 -11 17 -5 -2 -22 4 -36 14
-33 23 -72 27 -334 34 -121 3 -239 8 -262 11 l-42 5 0 537 c0 295 -3 664 -7
820 -3 155 -4 282 -1 282 3 0 15 -30 27 -68 13 -37 47 -124 76 -194 30 -70 54
-131 54 -137 0 -6 12 -36 26 -68 14 -32 52 -132 85 -223 110 -304 152 -415
166 -443 7 -15 15 -45 18 -67 2 -21 17 -67 33 -102 41 -86 104 -259 98 -266
-3 -3 -24 15 -45 39 -22 24 -40 39 -41 33 0 -5 14 -23 30 -39 21 -20 26 -31
18 -36 -7 -4 4 -10 25 -14 24 -5 42 -15 50 -30 11 -21 189 -189 268 -253 16
-13 29 -28 29 -33 0 -5 -27 -9 -60 -9 -33 0 -60 -4 -60 -10 0 -11 10 -13 95
-14 l60 -1 41 -83 c44 -89 76 -133 48 -67 -9 22 -25 57 -35 77 -40 78 -6 80
52 3 23 -30 46 -55 51 -55 6 0 -6 20 -26 44 -20 24 -36 47 -36 51 0 4 69 4
153 0 83 -4 196 -7 250 -8 l97 0 0 -59 c0 -32 4 -58 10 -58 6 0 10 27 10 60
l0 60 41 0 c23 0 47 7 55 15 11 10 36 15 85 15 l69 0 1 -67 c1 -38 1 -75 0
-85 -1 -9 3 -19 9 -23 7 -4 10 24 10 84 l0 91 38 2 c20 1 51 1 69 -1 17 -1 34
3 38 9 3 5 -2 10 -12 10 -26 1 -96 10 -111 16 -10 3 -12 16 -7 52 6 44 6 88 7
392 1 69 2 268 4 443 3 224 0 316 -7 311 -6 -3 -10 -29 -9 -58 2 -28 1 -91 0
-141 l-3 -90 -8 70 c-9 85 0 355 13 355 5 0 6 6 1 13 -9 14 -11 227 -2 227 4
0 10 26 14 58 11 86 13 732 3 927 -4 94 -10 627 -12 1185 -1 558 -5 1022 -7
1030 -3 12 4 14 29 12 40 -4 42 13 2 22 -17 3 -30 12 -30 20 0 8 -9 18 -21 21
-11 4 -62 44 -112 90 -138 124 -246 209 -255 201 -18 -19 72 -118 165 -181 50
-34 140 -122 132 -129 -2 -2 -60 1 -129 6 -85 7 -230 7 -453 -1 -181 -6 -333
-9 -338 -5 -5 3 -27 27 -47 52 -20 26 -73 81 -117 122 -44 41 -81 77 -83 81
-1 3 169 3 379 1 281 -3 393 -1 425 8 24 7 44 16 44 21 0 21 -867 16 -888 -6
-4 -4 -7 -21 -8 -38 0 -18 -5 -88 -10 -157 -9 -131 -10 -167 -6 -819 2 -222 1
-406 -2 -408 -3 -3 -2 -11 1 -19 3 -8 0 -14 -6 -14 -7 0 -11 -21 -11 -52 0
-64 -11 -55 -40 37 -20 62 -71 195 -102 265 -19 44 -26 63 -54 150 -15 47 -54
146 -86 220 -33 74 -75 173 -93 220 -77 199 -98 247 -117 279 l-22 34 29 -7
c29 -7 29 -7 11 13 -10 11 -24 17 -31 15 -7 -3 -47 40 -98 108 -46 62 -94 122
-106 132 -11 11 -21 24 -21 31 0 6 -14 24 -31 41 l-31 29 8 -30 c11 -43 61
-122 114 -180 25 -27 58 -67 74 -87 16 -21 35 -38 42 -38 8 0 14 -4 14 -8 0
-11 -708 -3 -742 8 -17 6 -28 5 -28 -1 0 -11 -100 -12 -116 -1 -18 12 -82 100
-99 136 -16 32 -79 106 -92 106 -3 0 1 -8 9 -17 25 -29 71 -113 65 -119 -3 -3
-17 14 -31 38 -14 24 -41 58 -60 77 -33 32 -41 66 -10 40 9 -8 18 -9 24 -3 6
6 54 7 117 2 202 -13 722 -14 712 -2 -12 15 -142 22 -534 30 -170 3 -320 7
-332 8 -12 0 -35 18 -53 41 -42 53 -45 55 -26 18z m2044 -407 c6 -40 6 -61 -2
-151 -4 -49 -7 -188 -7 -308 1 -202 -1 -218 -17 -215 -14 3 -18 18 -23 83 l-6
80 1 -88 c1 -54 -3 -86 -9 -83 -6 2 -11 -35 -13 -95 -4 -95 -3 -99 17 -99 20
0 21 5 21 91 0 68 3 90 13 86 9 -3 12 -51 12 -195 0 -104 -3 -194 -7 -198 -15
-14 -21 6 -20 58 1 29 -3 71 -8 93 -9 38 -9 37 -6 -17 1 -32 0 -58 -4 -58 -3
0 -4 -16 -2 -36 3 -28 1 -35 -9 -32 -8 3 -13 16 -12 31 1 16 -3 27 -10 27 -7
0 -14 11 -15 26 -2 28 -21 68 -28 61 -3 -3 -1 -29 5 -58 6 -33 6 -58 0 -63 -5
-6 -11 3 -15 22 -4 17 -10 30 -13 27 -4 -2 -8 28 -8 68 -1 160 -12 330 -22
340 -7 7 -10 4 -10 -9 0 -10 -2 -34 -4 -51 -2 -18 -4 -49 -5 -68 -1 -19 -6
-35 -11 -35 -11 0 -12 11 -10 85 3 144 -10 875 -16 885 -4 6 -3 19 0 31 6 17
22 4 123 -97 64 -65 118 -127 120 -138z m-1753 -3 c-5 -10 -7 -22 -6 -28 1 -5
2 -156 1 -335 0 -179 -3 -968 -6 -1755 -6 -1663 -5 -1575 -23 -1575 -9 0 -11
-7 -7 -20 3 -11 9 -29 12 -40 5 -16 3 -19 -10 -14 -9 3 -16 10 -16 15 0 5 -6
9 -12 9 -10 0 -14 -41 -15 -168 -3 -211 -3 -268 0 -364 1 -43 -1 -74 -6 -69
-10 10 -17 127 -21 356 -2 115 -7 188 -14 202 -15 27 -12 83 4 83 6 0 11 13
10 29 -1 16 -4 27 -7 25 -4 -2 -10 12 -13 31 -15 78 -24 26 -20 -117 3 -106 8
-154 17 -160 9 -6 9 -8 0 -8 -9 0 -10 -31 -7 -117 9 -202 -7 -115 -23 124 -16
247 -16 261 -14 433 0 63 -1 133 -2 155 -2 24 2 47 11 57 8 10 12 29 10 42 -3
17 0 26 9 28 11 2 9 10 -10 30 -21 23 -25 35 -23 78 2 33 -1 53 -10 58 -7 4
-15 21 -19 37 l-6 30 15 -33 c17 -36 42 -35 31 2 -6 18 -11 67 -14 124 -1 6
-7 12 -14 12 -8 0 -13 15 -14 40 -1 22 3 40 9 40 6 0 8 -12 5 -29 -4 -20 -2
-31 8 -35 9 -3 12 0 8 10 -3 7 0 14 7 14 10 0 10 3 0 15 -10 12 -10 15 0 15
10 0 10 3 0 15 -9 10 -9 15 -1 15 6 0 11 7 11 16 0 12 -3 14 -13 6 -10 -8 -13
-6 -14 9 -1 14 3 19 13 15 8 -3 14 -1 14 4 0 5 -10 10 -22 12 -21 3 -23 9 -24
68 -1 36 0 54 2 40 9 -51 25 -100 34 -100 14 0 12 18 -2 22 -6 2 -13 30 -16
61 -2 31 -8 54 -13 52 -4 -3 -10 -1 -14 5 -3 5 1 10 9 10 11 0 16 9 15 28 l-1
27 -8 -25 c-11 -33 -13 -21 -14 83 -1 66 2 86 12 82 6 -2 12 0 12 5 0 6 -7 10
-15 10 -12 0 -15 20 -16 118 -1 64 -1 121 0 125 2 9 1 22 -3 152 -5 159 -7
915 -2 923 17 27 27 837 14 1070 -8 141 -2 150 52 70 19 -29 45 -63 58 -77 35
-38 42 -84 38 -251 -4 -153 0 -210 13 -210 4 0 7 90 7 200 -1 110 3 200 7 200
10 0 -41 72 -117 164 -53 64 -48 61 54 -41 91 -90 111 -115 105 -130z m345 19
c20 -8 -77 -20 -172 -21 -45 -1 -80 -6 -84 -12 -7 -13 120 -8 326 11 63 5 202
11 309 13 l195 2 12 -50 c7 -27 11 -51 9 -53 -2 -2 -18 16 -36 42 -44 62 -50
49 -9 -16 56 -88 99 -173 146 -285 24 -59 44 -111 44 -115 0 -4 14 -37 30 -73
17 -36 30 -69 30 -73 1 -4 9 -25 20 -47 11 -22 19 -45 20 -51 0 -14 76 -218
100 -269 10 -22 30 -65 44 -95 14 -30 50 -130 80 -222 53 -160 91 -266 122
-335 8 -17 14 -35 14 -40 0 -14 67 -219 84 -256 8 -18 26 -59 42 -92 15 -33
40 -90 55 -127 27 -66 79 -151 100 -163 21 -14 20 5 -6 80 -25 72 -27 93 -31
289 -3 116 -5 216 -5 221 -1 6 0 44 0 85 1 41 0 123 -2 182 -2 59 0 105 3 103
4 -2 4 9 2 26 -3 19 0 29 8 29 8 0 9 4 3 13 -5 6 -8 39 -7 72 2 33 5 310 8
615 2 305 5 565 5 577 1 22 2 22 164 21 89 -1 235 2 323 6 l161 8 6 -33 c6
-38 12 -1424 11 -2314 -1 -313 -2 -900 -2 -1304 -1 -404 0 -737 2 -740 3 -4 7
-100 11 -215 l6 -209 -38 6 c-21 4 -143 7 -271 8 -128 0 -241 3 -251 6 -23 6
-35 53 -15 53 20 0 18 5 -16 38 -30 31 -44 76 -17 53 8 -6 17 -8 20 -4 4 3 12
2 19 -4 7 -5 23 -10 36 -11 19 -1 21 2 12 13 -7 8 -15 13 -18 12 -4 -1 -28 5
-55 12 -40 12 -47 17 -41 34 4 11 2 17 -3 14 -13 -8 -22 14 -62 138 -18 55
-36 107 -40 115 -5 9 -12 30 -15 48 -4 17 -12 34 -17 37 -14 9 -43 79 -84 200
-21 61 -43 124 -51 140 -7 17 -22 57 -32 90 -26 80 -73 198 -83 210 -5 5 -9
17 -9 27 0 10 -4 18 -10 18 -5 0 -10 9 -10 20 0 11 -3 20 -7 20 -5 0 -13 11
-20 25 -9 20 -8 25 3 25 18 0 18 3 -4 42 -11 18 -25 51 -32 73 -7 22 -20 54
-29 70 -8 17 -16 39 -17 51 -2 11 -18 52 -36 90 -19 38 -49 112 -67 164 -18
52 -43 118 -56 145 -13 28 -26 61 -30 75 -8 27 -83 228 -143 380 -20 52 -38
104 -38 115 -4 56 -6 70 -11 53 -7 -27 -23 -22 -35 10 -6 15 -22 33 -35 39
l-23 11 22 -39 c12 -21 25 -39 30 -39 4 0 8 -7 8 -15 0 -18 -17 -20 -23 -2 -2
6 -7 9 -11 5 -4 -3 0 -18 10 -33 14 -22 16 -40 10 -118 -10 -130 -7 -329 6
-344 7 -9 7 -13 -1 -13 -8 0 -11 -156 -10 -562 0 -451 -7 -1243 -12 -1318 -1
-8 1 -24 4 -35 3 -11 6 -42 8 -68 l4 -49 -345 1 c-190 0 -384 1 -431 1 l-86 0
-7 42 c-12 71 -7 2463 4 2466 6 2 8 7 5 11 -8 14 -18 1854 -10 2032 7 167 8
178 29 188 13 7 14 10 3 6 -19 -5 -33 16 -24 39 4 11 34 12 149 9 78 -2 150
-7 158 -11z m2320 -1448 c0 -9 -5 -12 -12 -8 -8 5 -7 0 2 -11 14 -17 13 -18
-2 -12 -10 3 -18 2 -18 -3 0 -6 7 -10 16 -10 12 0 13 -5 7 -22 -4 -13 -7 -39
-6 -58 8 -142 6 -199 -7 -215 -12 -15 -14 -15 -23 1 -7 13 -7 19 1 22 16 5 15
23 0 20 -15 -3 -18 139 -6 204 5 22 4 39 -2 43 -14 9 17 65 35 65 8 0 15 -7
15 -16z m-10 -1259 c0 -25 4 -45 10 -45 5 0 7 8 3 18 -5 14 -3 15 7 5 11 -10
11 -16 -3 -31 -23 -25 -24 -175 -1 -231 9 -22 14 -46 11 -53 -3 -7 -8 2 -12
19 -4 18 -11 30 -16 27 -5 -3 -7 -9 -4 -14 3 -4 -2 -10 -10 -14 -8 -3 -15 -13
-15 -21 0 -9 -4 -14 -9 -11 -5 3 -7 15 -4 26 3 11 9 17 14 14 5 -3 9 2 9 10 0
10 -6 13 -15 10 -8 -4 -15 -1 -15 5 0 6 5 11 11 11 8 0 8 4 2 13 -6 6 -9 32
-7 57 1 25 2 64 3 88 1 34 5 44 22 50 20 8 20 9 3 23 -10 7 -15 9 -11 2 10
-16 -5 -24 -18 -9 -15 16 -13 66 2 66 7 0 13 -7 13 -15 0 -8 5 -15 10 -15 7 0
7 6 2 18 -10 19 -5 42 9 42 5 0 9 -20 9 -45z m-26 -468 c-3 -8 9 -13 33 -15
20 -1 39 -5 42 -8 5 -4 4 -35 -2 -124 -4 -46 -22 -26 -27 30 l-5 55 -7 -60
c-3 -33 -9 -75 -13 -92 -5 -25 -3 -32 7 -28 10 4 14 -5 13 -34 0 -21 -3 -37
-7 -34 -5 2 -8 0 -8 -4 0 -5 -9 -9 -20 -9 -14 0 -20 7 -19 21 0 11 3 14 6 8 2
-7 11 -13 19 -13 11 0 11 5 2 25 -6 14 -15 25 -20 25 -5 0 -6 6 -1 13 13 21
11 200 -3 228 -7 15 -11 29 -7 32 9 10 23 -2 17 -16z m-1324 -241 c0 -8 7 -17
16 -20 8 -3 13 -10 9 -15 -3 -5 -1 -12 5 -16 11 -7 38 -64 65 -140 10 -27 36
-88 57 -134 21 -47 36 -91 34 -98 -3 -7 -1 -13 5 -13 6 0 9 -7 5 -15 -3 -8 2
-19 12 -24 9 -6 14 -11 9 -11 -4 0 0 -12 9 -26 15 -22 15 -27 3 -35 -11 -7
-11 -9 4 -9 10 0 16 -4 13 -9 -3 -5 1 -14 9 -21 10 -9 12 -17 5 -30 -5 -9 -7
-19 -5 -22 2 -2 12 -22 21 -43 14 -35 14 -38 0 -26 -8 7 -24 36 -35 64 -11 29
-33 79 -49 112 -16 33 -37 85 -47 115 -10 30 -37 100 -60 155 -23 55 -46 116
-50 135 -4 19 -11 37 -15 40 -12 9 -39 100 -29 100 5 0 9 -6 9 -14z m1372
-127 c-6 -15 -6 -34 0 -49 8 -23 10 -23 19 -7 19 33 29 6 29 -78 0 -78 -1 -83
-20 -78 -29 8 -34 20 -32 80 1 41 -2 53 -13 53 -13 0 -20 -29 -17 -61 1 -3 2
-25 3 -48 2 -22 7 -41 11 -41 4 0 8 -11 8 -24 0 -18 -5 -24 -20 -23 -11 1 -21
6 -23 12 -8 20 -5 235 3 230 11 -7 42 24 35 36 -4 5 -15 9 -26 9 -10 0 -19 4
-19 9 0 10 19 9 38 -2 8 -6 12 -2 12 9 0 13 3 15 10 8 7 -7 7 -19 2 -35z
m-2881 -196 c1 -16 2 -44 1 -63 0 -19 -1 -147 -1 -285 -1 -258 2 -357 14 -387
8 -21 -10 -25 -22 -5 -4 6 -9 23 -10 37 -4 54 -9 686 -5 708 6 31 22 28 23 -5z"/>
<path d="M16937 7323 c-4 -3 -7 -52 -7 -109 0 -97 1 -102 23 -108 35 -9 69 -7
62 4 -3 6 -17 10 -31 10 -24 0 -24 1 -24 89 l0 89 30 4 c16 3 34 0 39 -5 5 -5
7 -49 4 -99 -4 -72 -2 -89 9 -86 9 3 14 32 16 105 3 97 2 101 -20 107 -31 8
-93 8 -101 -1z"/>
<path d="M16744 6917 c-2 -7 -3 -60 -2 -118 3 -117 3 -116 82 -105 l41 6 -2
105 c0 57 -4 109 -8 114 -9 16 -105 14 -111 -2z"/>
<path d="M17137 6923 c-3 -4 -6 -55 -8 -113 l-4 -104 33 -7 c18 -4 48 -2 66 3
l32 10 0 107 -1 106 -57 3 c-31 2 -58 -1 -61 -5z"/>
<path d="M16768 6502 l-28 -3 0 -115 0 -114 49 0 c82 0 81 -2 81 120 l0 108
-37 3 c-21 2 -50 3 -65 1z"/>
<path d="M16755 6096 c-18 -13 -20 -24 -17 -118 2 -56 5 -104 7 -106 2 -2 9
-1 15 3 7 4 11 37 10 88 -2 123 -4 117 30 117 l29 0 3 -97 c3 -82 6 -98 20
-101 14 -3 16 9 15 102 -1 57 -4 107 -7 110 -15 15 -86 17 -105 2z"/>
<path d="M17135 6090 c-3 -5 -8 -54 -11 -109 l-5 -99 31 -7 c17 -4 47 -4 66
-1 l34 7 0 109 0 110 -54 0 c-30 0 -58 -4 -61 -10z"/>
<path d="M16745 5688 c-3 -13 -5 -66 -3 -118 3 -107 4 -107 84 -95 l44 6 0
108 0 109 -31 6 c-62 12 -88 8 -94 -16z"/>
<path d="M16963 5702 l-33 -3 0 -109 0 -109 44 -6 c78 -12 86 -1 86 119 l0
104 -32 3 c-18 2 -48 3 -65 1z m77 -117 l0 -95 -40 0 -40 0 -1 55 c-3 140 -5
135 41 135 l40 0 0 -95z"/>
<path d="M17142 5701 c-8 -5 -15 -42 -19 -106 -5 -88 -4 -100 12 -112 20 -14
83 -18 101 -5 7 4 13 51 16 114 4 86 2 108 -9 113 -22 8 -86 6 -101 -4z"/>
<path d="M16746 5267 c-16 -11 -17 -26 -14 -112 l3 -99 30 -8 c17 -5 47 -6 68
-2 l37 6 0 108 c0 89 -3 109 -16 114 -27 11 -89 6 -108 -7z m102 -114 l3 -93
-51 0 -50 0 0 85 c0 93 9 107 65 102 l30 -2 3 -92z"/>
<path d="M16937 5274 c-4 -4 -7 -56 -7 -115 l0 -107 29 -7 c16 -3 46 -3 65 1
l37 6 -3 112 -3 111 -55 3 c-31 2 -59 0 -63 -4z m91 -26 c12 -12 17 -143 6
-172 -4 -10 -18 -16 -39 -16 l-34 0 -3 91 c-2 73 0 93 12 100 21 12 44 11 58
-3z"/>
<path d="M17153 5273 c-22 -4 -23 -8 -23 -113 0 -122 0 -123 77 -113 l48 5 -3
107 c-2 58 -5 107 -5 108 -6 5 -76 10 -94 6z"/>
<path d="M16557 4843 c-4 -3 -7 -53 -7 -110 0 -93 2 -103 18 -103 16 0 18 11
19 92 2 88 11 113 37 105 6 -2 9 -41 8 -88 -1 -46 3 -90 7 -98 19 -30 29 4 30
104 l2 105 -54 0 c-29 0 -57 -3 -60 -7z"/>
<path d="M16742 4738 l3 -113 56 -3 c67 -4 67 -5 70 133 l2 90 -67 3 -67 3 3
-113z"/>
<path d="M16940 4826 c-11 -29 -10 -164 1 -186 8 -18 65 -25 98 -12 20 7 22
15 24 112 l2 105 -58 3 c-53 3 -58 1 -67 -22z"/>
<path d="M17135 4831 c-6 -21 -9 -190 -3 -196 1 -1 21 -6 43 -9 64 -11 73 2
77 119 l3 100 -57 3 c-49 3 -57 0 -63 -17z"/>
<path d="M16570 4444 c-12 -4 -15 -24 -13 -112 l1 -107 36 -3 c38 -3 51 14 15
20 -19 3 -21 11 -25 96 l-4 93 31 -3 32 -3 -2 -103 c-2 -100 -2 -103 18 -93
17 10 19 22 20 116 l0 105 -47 -1 c-26 -1 -54 -3 -62 -5z"/>
<path d="M16758 4428 c-2 -13 -3 -63 -3 -113 l0 -90 40 -6 c22 -4 50 -2 63 4
23 11 24 15 19 77 -4 36 -3 82 2 102 10 43 3 48 -69 48 -42 0 -48 -3 -52 -22z"/>
<path d="M16946 4442 c-2 -4 -6 -54 -7 -111 -3 -99 -2 -105 19 -114 14 -7 36
-6 67 3 l45 13 0 108 0 109 -59 0 c-33 0 -62 -3 -65 -8z m94 -118 c0 -93 0
-94 -24 -94 -53 0 -56 6 -56 100 l0 89 33 3 c17 2 35 2 40 0 4 -2 7 -46 7 -98z"/>
<path d="M17178 4442 c-27 -3 -28 -5 -28 -61 0 -32 -3 -78 -6 -103 -6 -42 -5
-46 18 -51 13 -4 40 -2 59 3 l34 10 -3 105 c-4 116 4 106 -74 97z"/>
<path d="M16570 3916 c0 -125 1 -128 59 -115 19 4 38 6 43 3 12 -7 21 43 13
74 -3 15 -10 49 -13 77 -7 52 -31 75 -79 75 -23 0 -23 -2 -23 -114z"/>
<path d="M16771 4016 c-7 -8 -13 -54 -14 -108 l-2 -93 48 -3 c49 -3 67 14 20
20 -26 3 -26 4 -28 84 -2 80 -2 81 21 76 22 -4 23 -10 26 -80 2 -49 7 -77 16
-80 9 -3 12 19 12 87 0 89 -1 92 -26 101 -35 14 -60 12 -73 -4z"/>
<path d="M16962 4012 c-16 -16 -19 -33 -18 -113 l1 -94 48 -3 c71 -5 75 3 70
111 -3 50 -8 95 -12 98 -3 4 -20 10 -38 14 -24 5 -36 2 -51 -13z"/>
<path d="M16980 3640 c-24 -6 -25 -10 -32 -100 -4 -52 -4 -97 0 -101 14 -13
80 -20 87 -9 3 5 14 10 23 10 15 0 17 11 14 92 -2 51 -8 98 -14 105 -10 13
-33 14 -78 3z"/>
<path d="M16754 3631 c-2 -2 -4 -47 -4 -98 l0 -94 32 -13 c27 -12 37 -12 65 2
32 15 34 19 32 67 -1 27 1 67 3 88 3 21 1 40 -5 44 -11 7 -116 11 -123 4z"/>
<path d="M17145 3628 c-2 -7 -6 -52 -8 -100 l-5 -88 42 0 c67 1 76 14 76 114
l0 86 -50 0 c-32 0 -52 -5 -55 -12z"/>
<path d="M4768 7968 c-2 -24 -7 -32 -18 -29 -47 13 -921 4 -884 -9 48 -18 680
-31 792 -17 50 6 62 5 62 -6 0 -8 -11 -19 -25 -25 -14 -6 -25 -16 -25 -22 0
-5 -6 -10 -13 -10 -7 0 -20 -8 -29 -17 -9 -10 -33 -29 -53 -43 -21 -14 -61
-46 -90 -72 -28 -27 -54 -46 -57 -43 -3 3 -16 -10 -29 -29 l-23 -34 -221 4
c-209 5 -273 10 -263 19 2 3 105 7 229 9 253 5 229 3 229 14 0 8 -405 6 -484
-2 -21 -3 -43 -10 -47 -18 -7 -11 -11 -11 -17 0 -6 9 -31 12 -78 12 -88 -2
-140 -10 -124 -20 7 -5 -9 -11 -39 -15 -29 -4 -54 -5 -57 -3 -2 3 16 18 40 34
117 77 315 215 326 229 27 32 -2 26 -67 -14 -37 -23 -143 -92 -234 -154 -92
-61 -175 -117 -185 -124 -17 -10 -16 -11 11 -10 28 2 30 -1 36 -43 4 -25 7
-205 8 -400 0 -195 5 -470 9 -610 5 -140 7 -258 5 -262 -8 -15 -58 14 -91 53
-18 21 -40 39 -47 39 -7 0 -26 -15 -41 -32 -26 -33 -28 -33 -124 -36 l-98 -4
-18 31 c-10 17 -21 31 -24 31 -3 0 -6 252 -7 560 -3 508 1 596 20 548 6 -15 0
263 -8 342 -3 30 -3 72 1 92 5 34 9 37 42 40 80 8 -271 7 -589 -1 -317 -9
-338 -11 -375 -31 -21 -12 -50 -32 -64 -45 -14 -13 -61 -44 -104 -69 -59 -35
-81 -44 -87 -34 -6 9 -10 7 -15 -7 -4 -11 -15 -26 -23 -33 -21 -16 -92 -54
-95 -50 -2 2 -10 14 -19 28 l-17 24 0 -26 c0 -16 -9 -33 -20 -41 -18 -12 -18
-15 -5 -20 10 -4 15 -18 14 -39 -1 -18 1 -96 4 -173 12 -289 22 -644 21 -745
0 -145 -13 -451 -21 -530 -4 -36 -5 -69 -4 -75 2 -5 5 -98 7 -205 2 -107 8
-305 15 -440 7 -163 9 -385 4 -660 -4 -228 -8 -451 -9 -495 0 -44 2 -107 7
-140 4 -33 10 -87 13 -120 7 -73 34 -226 42 -240 3 -5 7 -22 9 -38 7 -66 113
-298 183 -402 60 -89 51 -87 -53 12 -139 135 -54 36 128 -149 109 -110 195
-187 228 -206 76 -43 85 -56 90 -140 5 -68 4 -74 -16 -82 -14 -6 52 -9 178
-11 225 -2 251 -3 318 -17 64 -13 727 -14 727 -2 0 6 -33 10 -72 11 -40 0 -80
2 -88 4 -41 11 -58 14 -92 14 -57 1 -45 21 12 21 28 0 50 -4 50 -9 0 -4 35 -3
78 3 82 13 136 13 165 1 9 -4 31 -5 47 -3 16 3 31 1 32 -4 2 -5 61 -11 131
-14 103 -4 137 -2 178 11 37 13 54 14 62 6 16 -16 35 -13 57 9 11 11 27 20 36
20 8 0 12 5 9 10 -3 6 1 13 9 16 9 3 16 15 16 25 0 10 6 19 14 19 7 0 19 7 26
15 14 17 50 20 50 5 0 -5 -9 -10 -20 -10 -11 0 -20 -4 -20 -10 0 -6 53 -10
140 -10 140 0 184 12 90 24 -62 8 -58 26 4 19 26 -3 46 -1 50 6 7 10 -13 15
-51 14 -7 -1 -13 5 -13 13 0 8 7 14 16 14 8 0 12 5 9 10 -3 6 -22 10 -41 10
-19 0 -34 -4 -34 -10 0 -5 7 -10 15 -10 8 0 15 -4 15 -10 0 -5 -24 -10 -52
-10 -38 0 -49 3 -38 10 8 5 24 10 34 10 11 0 17 3 13 6 -10 11 -96 13 -103 3
-3 -5 0 -8 8 -7 7 2 13 -4 13 -12 0 -19 -49 -15 -82 6 -29 18 -37 18 -29 -1 8
-22 -17 -18 -34 5 -8 11 -20 20 -26 20 -7 0 -15 7 -18 15 -5 13 0 15 27 10 53
-9 279 -10 497 -1 150 5 216 4 248 -5 46 -13 70 -5 31 9 -19 8 -204 21 -302
22 -10 0 -16 4 -12 9 5 9 153 7 248 -4 26 -3 47 -2 47 3 0 8 -115 19 -291 26
-40 2 -100 -2 -135 -9 -35 -6 -64 -8 -64 -3 0 4 5 8 11 8 5 0 8 4 5 8 -6 9
-102 7 -139 -3 -19 -5 -18 -4 4 9 28 16 69 18 317 12 138 -3 172 -1 168 9 -3
8 6 16 22 20 26 7 26 7 5 16 -12 4 -78 9 -148 10 -69 1 -128 6 -131 10 -3 5
-24 6 -47 3 -55 -7 -81 -7 -142 -1 -27 3 -78 1 -113 -5 -35 -5 -66 -8 -69 -4
-3 3 73 85 169 183 215 219 269 278 262 286 -3 3 13 37 36 77 42 72 115 253
125 311 3 18 8 35 10 39 16 26 93 377 94 430 0 8 2 31 4 50 2 19 2 38 0 43 -6
10 -9 90 -28 612 -3 83 -8 158 -11 167 -3 10 -2 23 2 30 7 10 7 471 1 928 -2
102 1 191 6 198 5 6 6 12 1 12 -5 0 -9 146 -9 325 0 295 3 351 18 313 3 -8 6
-6 6 5 1 9 -3 17 -7 17 -4 0 -8 100 -9 223 -1 122 -4 281 -7 354 l-5 132 40
23 c21 12 39 25 39 30 0 11 -14 10 -25 -1 -20 -19 -50 -17 -51 4 -1 11 -2 35
-3 53 0 17 -5 32 -10 32 -6 0 -11 -15 -13 -32z m-1778 -60 c0 -7 -34 -35 -76
-63 -42 -27 -101 -72 -132 -98 -84 -74 -128 -100 -157 -95 -25 5 -35 -7 -12
-15 36 -13 -24 -19 -234 -23 -175 -4 -234 -2 -240 7 -5 9 -57 12 -183 13 -97
1 -176 3 -176 6 1 6 159 109 225 146 28 15 65 43 84 61 l34 33 232 0 c128 0
289 5 358 10 70 6 149 12 177 14 28 2 54 6 57 10 11 11 43 6 43 -6z m-14 -160
c-9 -163 -19 -447 -18 -518 0 -36 3 -244 7 -462 7 -402 5 -428 -29 -450 -20
-14 -23 -8 -18 41 3 31 0 51 -7 56 -9 5 -9 10 0 21 9 11 9 17 -1 29 -10 12
-10 15 0 15 10 0 10 3 0 15 -9 10 -9 15 -1 15 6 0 11 5 11 10 0 22 -20 8 -26
-17 -4 -16 -13 -33 -20 -39 -11 -9 -12 -13 -2 -22 9 -7 12 -38 10 -106 l-3
-96 -57 -16 c-31 -9 -62 -19 -68 -21 -8 -3 -14 44 -19 162 -4 91 -10 164 -12
161 -3 -3 -5 -79 -4 -170 1 -127 -2 -166 -11 -166 -10 0 -12 20 -11 72 1 40 3
223 5 405 2 183 5 333 8 333 3 0 5 15 4 33 -4 71 -6 155 -6 212 1 33 1 67 1
75 0 15 8 75 11 75 0 0 3 47 5 104 l5 104 37 33 c21 18 42 33 46 34 5 0 6 -18
2 -40 -4 -21 -3 -45 2 -52 5 -8 10 3 14 32 4 25 3 49 -2 54 -5 6 18 36 56 73
36 35 65 69 65 76 0 12 19 37 28 37 2 0 1 -46 -2 -102z m1780 -19 c-7 -119 -8
-1477 -1 -1934 3 -176 2 -355 -3 -398 -4 -43 -7 -79 -5 -81 2 -2 5 -61 8 -132
6 -194 15 -411 19 -484 2 -36 2 -57 -1 -47 -11 40 -21 11 -28 -75 -14 -182
-27 -206 -27 -48 1 42 -3 69 -7 61 -5 -7 -9 -52 -10 -99 -1 -48 -4 -103 -6
-122 -2 -19 -1 -27 1 -17 7 24 23 12 17 -12 -3 -12 -11 -17 -19 -14 -8 3 -14
0 -14 -6 0 -6 5 -11 11 -11 12 0 11 -145 -2 -213 -4 -26 -3 -47 3 -55 8 -9 8
-16 -2 -25 -10 -9 -11 -9 -6 1 4 6 2 12 -4 12 -6 0 -8 -10 -5 -23 8 -30 -28
-158 -62 -224 -30 -59 -41 -65 -18 -10 9 22 11 37 5 37 -15 0 -12 30 4 36 8 3
12 12 9 20 -3 7 2 16 10 20 9 3 13 12 11 19 -3 7 -1 16 5 20 6 3 11 11 11 16
0 6 -4 8 -8 5 -12 -7 -11 26 1 42 6 8 6 12 -2 12 -13 0 -5 41 10 50 8 5 21 60
14 60 -11 0 -49 -68 -51 -91 -3 -38 -26 -101 -44 -119 -9 -8 -15 -28 -15 -43
1 -16 -2 -30 -6 -32 -3 -3 -6 6 -5 18 1 12 -3 25 -8 29 -6 4 -1 17 14 32 25
27 21 33 -11 16 -10 -6 -19 -17 -19 -24 0 -8 -6 -18 -13 -24 -9 -8 -16 -6 -24
7 -9 14 -5 24 16 52 25 33 61 50 61 29 0 -19 17 -10 28 15 6 13 7 27 3 30 -5
3 -12 -3 -15 -12 -5 -11 -10 -13 -17 -6 -6 6 -5 18 4 36 11 21 16 24 27 14 7
-7 10 -7 7 -1 -3 5 5 33 19 62 13 28 23 57 22 64 -2 7 3 12 11 10 11 -2 12 0
3 11 -7 8 -9 17 -5 21 4 4 1 11 -7 16 -8 5 -11 12 -7 16 4 4 14 -1 22 -12 14
-18 14 -18 15 4 0 12 -4 22 -8 22 -7 0 -8 52 -2 75 2 6 0 21 -3 35 -3 14 -9
45 -12 69 -7 62 -17 66 -14 6 3 -53 -6 -95 -21 -95 -5 0 -11 8 -13 18 -3 9 -6
1 -7 -18 -1 -19 -6 -44 -11 -55 -7 -17 -8 -15 -7 10 1 17 -1 36 -6 43 -14 22
-18 105 -5 97 6 -4 9 -20 7 -36 -3 -16 -1 -29 4 -29 4 0 8 16 8 35 0 25 -7 43
-25 59 -13 13 -22 26 -19 29 8 7 37 -3 46 -17 4 -6 8 0 7 14 0 14 5 43 12 66
11 35 10 44 -6 68 -12 17 -19 50 -21 85 -2 74 3 92 24 84 14 -6 15 -4 5 8 -10
12 -9 18 6 31 11 9 22 34 26 56 5 32 1 50 -20 91 -17 31 -32 84 -39 134 -7 45
-18 92 -24 104 -9 16 -9 22 0 25 8 3 8 9 0 24 -6 12 -9 30 -6 41 4 12 -4 31
-20 50 -14 17 -22 33 -19 37 4 4 0 4 -10 0 -12 -4 -17 -1 -17 11 0 9 3 14 8
12 4 -3 5 22 4 55 -3 46 -7 58 -18 54 -8 -3 -14 1 -14 10 0 8 5 12 10 9 14 -8
13 51 -1 76 -6 12 -12 75 -14 142 -12 385 -17 522 -21 529 -2 3 0 9 6 13 6 4
7 12 3 18 -4 6 -9 99 -11 207 -4 210 -4 218 -2 690 l2 315 40 25 c63 39 141
117 135 134 -4 10 -1 13 7 10 8 -3 16 5 20 20 3 14 10 26 15 26 5 0 28 18 52
40 24 22 48 40 53 40 5 0 6 -43 2 -101z m-2626 -120 c0 -9 -38 -19 -75 -19
-16 -1 -43 -7 -60 -15 l-30 -14 30 5 c17 3 162 6 323 7 l292 2 2 -435 c1 -485
1 -520 -1 -570 -1 -19 -2 -96 -1 -170 1 -74 1 -144 1 -156 -1 -12 -11 -25 -26
-32 -29 -14 -58 -66 -50 -92 5 -15 -8 -28 -61 -63 -62 -41 -68 -43 -93 -31
-37 20 -55 17 -89 -11 -30 -25 -45 -72 -31 -97 5 -9 -26 -48 -90 -116 -89 -94
-100 -102 -134 -102 -50 0 -76 -36 -59 -84 18 -50 15 -70 -23 -141 -19 -36
-40 -83 -46 -105 -10 -34 -18 -42 -50 -50 -21 -6 -43 -19 -49 -30 -17 -32 -12
-85 10 -105 24 -22 25 -42 4 -154 -15 -79 -19 -88 -50 -108 l-34 -22 0 142 c0
135 -12 415 -27 652 -3 61 -5 250 -2 420 5 421 5 799 -1 1174 l-5 315 24 6
c32 7 401 7 401 -1z m1832 -32 c4 -7 51 -10 135 -9 110 3 268 -9 278 -20 1 -2
6 -273 9 -603 11 -1033 18 -1326 36 -1438 9 -63 -8 -47 -41 38 -13 33 -33 70
-44 82 -28 30 -58 83 -46 83 14 0 39 -27 56 -61 18 -35 35 -38 35 -6 0 45 -48
97 -90 97 -20 0 -38 15 -77 63 -28 34 -63 73 -77 86 -17 16 -24 31 -21 42 8
24 -29 95 -57 110 -12 6 -39 9 -63 6 -23 -4 -46 -2 -51 2 -5 5 -56 34 -114 63
-157 82 -183 99 -170 112 14 14 61 -12 75 -42 11 -24 35 -30 35 -8 0 17 -36
63 -61 76 -14 8 -28 6 -56 -11 -35 -20 -43 -21 -95 -10 l-58 12 -2 272 c0 150
-2 283 -4 297 -3 25 -9 188 -19 501 -3 92 -7 175 -9 185 -2 11 -6 36 -10 56
l-7 37 158 4 c200 4 346 -2 355 -16z m-675 -1387 c4 -16 8 -18 20 -9 11 10 11
14 1 20 -7 5 5 6 27 2 22 -3 50 -15 63 -26 22 -21 32 -11 10 11 -9 9 -6 12 14
12 24 0 26 -3 31 -67 3 -38 4 -69 4 -69 -1 -1 -33 2 -72 7 -93 12 -266 14
-339 4 l-59 -8 6 31 c4 17 2 34 -3 37 -6 3 -10 19 -10 36 0 38 21 38 70 -1 21
-16 43 -30 49 -30 7 0 14 -7 17 -15 10 -24 25 -17 84 35 60 54 79 61 87 30z
m-357 2 c0 -5 -13 -21 -30 -35 -16 -15 -30 -34 -30 -41 0 -8 -7 -22 -16 -31
-18 -18 -44 -13 -86 17 -28 20 -39 13 -16 -10 10 -10 10 -14 0 -21 -8 -5 -1
-8 18 -8 27 0 49 -15 50 -34 0 -3 -27 -15 -60 -27 -55 -19 -60 -20 -60 -4 0 9
-3 27 -6 40 -9 31 10 28 25 -5 9 -20 14 -24 21 -13 5 8 3 19 -6 27 -17 18 -18
30 -1 36 8 4 7 6 -3 6 -17 1 -46 41 -30 41 5 0 10 -4 10 -10 0 -18 18 -11 25
9 6 20 119 66 136 56 4 -3 10 -1 14 5 7 12 45 14 45 2z m655 -32 c6 -4 62 -28
125 -53 133 -52 215 -96 203 -108 -6 -6 -161 -19 -253 -21 -19 -1 -23 4 -10
13 12 8 11 9 -6 4 -12 -3 -34 1 -50 10 -16 8 -34 15 -39 15 -6 0 -21 7 -33 16
-18 13 -20 19 -11 36 8 14 8 23 0 31 -6 6 -11 26 -11 44 0 34 0 34 38 27 20
-4 42 -10 47 -14z m-1001 -126 c-10 -23 -12 -40 -6 -46 6 -6 12 0 16 16 7 27
26 36 26 12 0 -7 3 -27 6 -44 6 -28 3 -32 -37 -52 -24 -11 -36 -14 -26 -6 11
9 17 24 15 38 -3 21 -5 20 -21 -14 -28 -56 -50 -72 -79 -57 -13 7 -24 12 -25
11 -11 -7 -21 1 -17 12 3 8 0 25 -7 37 -10 20 -8 25 17 46 24 19 139 83 150
83 2 0 -4 -16 -12 -36z m756 0 c81 -8 107 -21 112 -54 2 -16 5 -138 7 -272 3
-272 -7 -356 -48 -427 -15 -25 -35 -66 -45 -91 -10 -25 -38 -83 -62 -129 -24
-46 -42 -86 -40 -89 8 -8 65 91 123 217 63 134 69 135 72 19 1 -65 -7 -82 -89
-176 -39 -46 -70 -86 -67 -88 2 -3 34 28 71 67 37 40 68 70 70 68 2 -2 6 -26
7 -54 l4 -50 -75 -37 -74 -37 -21 22 c-11 12 -19 24 -18 28 1 3 -9 4 -22 1
-14 -2 -25 -2 -25 1 0 12 84 465 105 567 8 38 35 192 35 198 0 3 -5 1 -10 -4
-6 -6 -13 -28 -15 -50 -3 -21 -10 -52 -15 -69 -5 -16 -12 -48 -16 -70 -3 -22
-8 -43 -10 -46 -10 -17 -66 -338 -80 -462 -6 -52 -9 -58 -28 -55 -18 3 -22 12
-27 63 -12 113 -21 190 -24 195 -2 3 -6 37 -10 75 -3 39 -8 81 -11 95 -6 33
-23 207 -30 300 -3 41 -10 80 -15 85 -7 7 -8 -7 -5 -40 3 -27 8 -95 11 -150 6
-103 32 -349 40 -375 2 -8 9 -57 16 -109 6 -52 15 -105 19 -117 7 -17 5 -24
-7 -28 -9 -4 -17 -5 -19 -4 -1 2 -26 57 -54 123 l-53 120 -6 180 c-3 99 -5
286 -3 416 l3 237 57 10 c56 9 162 8 272 -4z m-363 -215 c-4 -111 -8 -204 -11
-206 -5 -6 -15 80 -15 137 -1 96 -12 195 -22 199 -7 2 -8 6 -1 10 6 4 4 11 -5
20 -14 13 -15 3 -9 -90 14 -198 16 -221 21 -230 4 -5 8 -17 10 -26 3 -10 8
-34 13 -53 5 -19 7 -78 6 -130 -4 -137 -4 -227 1 -266 6 -46 -10 -43 -36 7
-11 23 -30 51 -41 63 -33 35 -100 154 -93 166 3 5 2 10 -3 10 -6 0 -13 7 -16
16 -6 15 -4 15 11 3 14 -12 16 -12 8 0 -4 8 -9 50 -10 93 -2 43 -6 111 -9 151
-4 40 -9 104 -12 142 -3 39 -6 81 -7 95 -2 23 5 27 73 48 41 13 86 27 100 31
55 19 53 27 47 -190z m613 138 c185 -90 295 -162 381 -247 133 -133 176 -201
273 -426 72 -168 105 -472 73 -659 -70 -398 -261 -675 -597 -864 -49 -28 -96
-51 -103 -51 -8 0 -34 64 -70 173 l-56 172 0 178 c0 97 4 177 9 177 8 0 25
-21 151 -187 100 -130 242 -298 223 -263 -17 32 -54 82 -116 157 -103 125
-226 290 -246 331 -16 33 -23 125 -10 137 2 3 38 -20 79 -49 103 -72 496 -306
516 -306 4 0 -62 42 -147 94 -212 129 -299 183 -380 239 l-70 48 0 61 c0 53 2
59 17 54 55 -21 609 -127 656 -125 18 1 -22 12 -88 25 -360 71 -581 118 -586
126 -3 5 -5 23 -4 41 2 38 -26 32 345 72 288 31 432 53 445 67 7 7 1 8 -20 4
-111 -21 -742 -89 -761 -82 -9 4 -14 22 -14 55 0 61 -6 57 196 150 82 38 181
83 219 101 39 18 122 57 185 86 156 73 115 69 -52 -5 -262 -116 -493 -222
-502 -232 -6 -5 -18 -9 -28 -9 -15 0 -18 9 -18 64 l0 65 250 247 c138 136 248
250 245 252 -5 6 -59 -45 -332 -310 -84 -81 -155 -148 -159 -148 -3 0 -4 46
-2 103 l4 102 69 140 c38 77 69 141 68 142 -1 2 11 27 27 58 16 30 25 55 19
55 -5 0 -13 -8 -16 -17 -4 -10 -9 -20 -12 -23 -3 -3 -36 -67 -74 -143 -37 -76
-71 -136 -75 -133 -4 2 -6 124 -4 270 2 201 6 266 15 265 7 0 41 -15 77 -32z
m382 11 c33 -12 43 -38 39 -98 -2 -44 -2 -45 14 -22 9 13 15 32 12 42 -5 18
-3 18 22 6 46 -24 172 -168 159 -181 -3 -3 -24 2 -48 10 -23 8 -53 15 -67 15
-13 0 -40 7 -60 15 -23 10 -40 12 -46 6 -11 -11 67 -35 145 -46 25 -3 51 -11
56 -18 11 -14 12 -217 1 -217 -4 0 -25 26 -46 58 -108 165 -228 278 -400 376
-46 26 -83 48 -83 49 0 1 28 1 62 -1 35 -1 83 1 108 7 58 11 98 11 132 -1z
m-1232 -40 c0 -7 5 -78 11 -158 6 -80 12 -173 14 -207 2 -34 7 -68 11 -74 4
-7 3 -9 -3 -6 -18 11 -13 -64 6 -101 25 -49 127 -201 157 -232 17 -19 22 -36
22 -70 -1 -25 2 -55 6 -67 10 -32 0 -29 -49 15 -23 20 -81 66 -128 100 l-87
64 -1 121 c-1 67 -1 128 0 135 1 8 -4 21 -11 30 -11 13 -11 14 1 8 11 -7 12 0
6 35 -4 24 -9 48 -12 52 -3 4 -7 82 -9 174 -5 155 -4 165 13 159 9 -4 14 -4
10 0 -9 9 12 34 29 34 8 0 14 -6 14 -12z m-112 -329 c2 -160 8 -304 12 -320
l9 -29 -31 16 c-24 13 -126 96 -277 228 -23 20 -23 20 -13 1 5 -11 45 -49 87
-85 187 -157 216 -184 221 -209 3 -14 8 -32 10 -40 2 -7 -1 -20 -8 -28 -9 -11
-9 -17 3 -25 11 -7 11 -11 2 -15 -7 -2 -13 -11 -13 -19 0 -20 -10 -18 -107 16
-48 17 -91 29 -96 27 -5 -1 31 -17 79 -35 117 -43 119 -44 122 -81 2 -17 7
-31 13 -31 5 0 9 -5 9 -11 0 -5 -4 -7 -10 -4 -6 4 -10 -21 -10 -69 0 -62 -3
-75 -17 -80 -10 -2 -128 -17 -263 -31 -135 -15 -254 -30 -265 -35 -24 -11 7
-8 310 25 121 13 224 20 228 16 15 -14 4 -143 -13 -152 -8 -5 -118 -49 -245
-99 -126 -50 -214 -88 -195 -84 19 3 107 34 195 69 238 92 255 98 261 92 9 -8
5 -167 -4 -182 -4 -7 -34 -34 -67 -61 -157 -125 -275 -227 -271 -232 3 -2 27
13 53 34 136 113 288 233 291 230 1 -2 4 -71 6 -152 4 -168 -3 -199 -67 -294
-20 -29 -34 -56 -32 -59 7 -6 8 -5 57 76 l45 72 12 -77 c11 -75 56 -189 88
-224 23 -26 4 -22 -38 7 -20 13 -40 21 -44 17 -5 -4 -5 -1 -1 6 5 7 -1 15 -16
21 -49 18 -193 139 -294 245 -116 122 -175 211 -214 326 -14 41 -29 80 -32 85
-23 39 -61 264 -46 282 6 7 4 13 -4 15 -17 6 -13 160 7 268 9 47 18 99 21 115
9 48 74 235 90 261 9 13 13 28 9 34 -3 5 -2 10 2 10 5 0 17 17 28 38 11 20 32
51 47 67 16 17 28 35 28 42 0 15 180 193 238 236 24 18 55 42 70 54 15 12 29
23 32 23 3 0 7 -131 8 -291z m-138 261 c0 -4 -32 -36 -72 -71 -96 -86 -218
-208 -216 -217 2 -4 -11 -32 -29 -62 -17 -30 -41 -77 -53 -105 -12 -27 -34
-75 -48 -105 -15 -30 -25 -59 -24 -63 5 -16 -42 -237 -50 -237 -4 0 -8 6 -8
13 0 6 -12 26 -26 42 l-25 30 16 -34 c9 -18 15 -42 12 -52 -4 -13 0 -19 11
-19 15 0 17 -15 18 -110 1 -63 -2 -107 -7 -104 -5 3 -7 9 -4 14 3 5 -1 22 -10
37 l-16 28 7 -35 c4 -19 7 -40 7 -47 0 -7 7 -15 15 -18 8 -3 12 -11 9 -19 -3
-8 3 -56 14 -106 10 -51 17 -96 14 -100 -3 -5 -1 -11 4 -14 5 -4 12 -24 16
-46 4 -22 11 -42 16 -46 5 -3 9 -13 9 -23 0 -24 47 -131 67 -153 8 -9 13 -21
10 -25 -8 -12 17 -48 88 -128 33 -38 71 -83 85 -102 77 -103 325 -281 419
-299 18 -4 35 -13 38 -19 2 -7 -5 -45 -17 -85 -24 -80 -14 -76 -117 -38 -29
11 -55 23 -58 28 -9 15 88 60 107 49 13 -7 15 -5 11 12 -5 18 -3 20 17 14 15
-5 20 -4 16 4 -4 6 -18 11 -31 11 -13 0 -26 6 -29 13 -3 6 -4 3 -1 -9 5 -18
-3 -25 -46 -42 -38 -16 -56 -19 -70 -11 -13 7 -19 6 -19 -1 0 -11 -100 40
-135 69 -11 9 -32 23 -47 30 -34 17 -111 97 -84 87 11 -4 57 -8 104 -9 92 -3
112 -14 112 -68 0 -47 12 -89 25 -89 11 0 11 8 3 38 -6 20 -13 57 -17 81 -7
50 -3 48 -121 56 -41 3 -79 10 -83 14 -5 5 -12 51 -16 103 -7 84 -23 138 -43
138 -12 0 -9 -13 6 -32 7 -10 14 -44 15 -75 3 -70 7 -102 16 -125 14 -36 -33
-19 -67 24 -18 23 -31 42 -28 43 7 0 -24 42 -35 46 -29 11 -131 160 -118 173
3 2 -4 15 -15 27 -12 12 -24 35 -27 50 -4 16 -13 29 -21 29 -8 0 -14 5 -14 11
0 5 6 7 13 3 13 -8 -11 26 -27 37 -5 4 -7 12 -4 19 2 8 12 3 28 -13 24 -25 53
-27 44 -2 -3 7 6 36 20 65 l26 53 -28 23 c-15 13 -31 24 -37 24 -5 0 -1 -7 9
-15 24 -18 24 -57 2 -109 -15 -37 -17 -38 -34 -22 -22 19 -42 79 -35 105 3 10
0 22 -6 25 -6 4 -11 16 -11 27 0 16 5 19 20 14 11 -3 20 -2 20 3 0 6 -11 13
-25 16 -18 5 -25 13 -25 32 0 14 -6 32 -14 39 -8 9 -13 32 -12 57 0 28 -4 47
-14 55 -8 6 -11 15 -7 19 4 5 12 2 17 -6 6 -8 10 -10 10 -5 0 6 -4 15 -9 20
-5 6 -13 28 -17 49 -6 36 -5 39 15 33 17 -4 19 -2 12 11 -6 10 -4 23 5 38 13
19 13 22 -2 28 -9 3 -14 12 -11 20 3 7 2 17 -3 22 -19 20 -15 82 16 232 6 31
17 28 37 -10 l17 -33 -6 33 c-3 17 -2 32 3 32 5 0 27 18 50 39 33 32 37 40 23
44 -9 2 -28 25 -43 51 l-26 46 20 57 c10 31 31 77 46 102 l27 46 12 -70 c6
-38 10 -73 8 -76 -5 -8 22 -20 29 -13 3 3 -3 36 -14 72 -10 37 -19 68 -19 69
0 1 21 9 48 17 46 16 87 56 64 64 -6 2 -8 10 -5 18 3 8 -5 26 -17 39 l-22 24
20 28 c11 15 52 59 91 98 57 55 73 67 83 57 9 -9 10 -15 2 -20 -15 -10 -24
-38 -31 -101 -6 -66 2 -66 12 -1 10 65 10 63 22 85 9 16 21 20 55 18 29 -1 52
5 68 17 22 17 50 17 50 0z m1774 -212 c10 -18 28 -51 41 -73 63 -106 105 -208
92 -222 -4 -4 -33 6 -65 23 -74 38 -72 37 -72 25 0 -6 29 -24 64 -40 35 -16
66 -34 70 -40 4 -6 9 -36 13 -67 l5 -56 -31 7 c-37 8 -41 -2 -6 -15 36 -14 39
-32 16 -95 -11 -30 -16 -55 -11 -55 6 0 11 5 11 10 1 6 3 15 4 20 1 6 3 15 4
20 0 6 5 10 10 10 12 0 11 -330 -1 -353 -6 -12 -6 -23 1 -31 12 -14 14 -209 2
-201 -5 2 -14 18 -21 35 -7 16 -16 30 -21 30 -16 0 -10 83 8 102 15 17 15 18
0 18 -15 0 -17 17 -14 160 1 93 -2 161 -7 163 -6 2 -18 41 -28 88 -16 73 -16
85 -4 93 12 8 11 12 -7 21 -22 10 -110 202 -100 218 2 4 5 59 6 122 2 123 11
141 41 83z m210 -533 c9 -50 17 -128 19 -175 2 -47 8 -93 12 -103 7 -17 2
-123 -8 -162 -23 -88 -37 -161 -37 -189 0 -18 -6 -41 -14 -52 -15 -20 -15 -1
-1 146 8 78 11 462 4 540 -5 67 -3 97 6 88 2 -2 11 -44 19 -93z m-1728 21 c21
-19 77 -63 124 -98 57 -43 86 -72 88 -87 3 -21 1 -23 -25 -17 -15 4 -73 26
-128 49 l-100 42 -5 73 c-3 39 -2 72 1 72 3 0 23 -15 45 -34z m13 -155 c30
-17 115 -51 184 -74 11 -4 17 -17 17 -35 0 -27 -3 -30 -46 -36 -26 -3 -62 -6
-80 -6 -30 0 -34 3 -35 28 l-1 27 -7 -30 c-5 -27 -10 -30 -49 -33 -47 -3 -43
-11 -43 93 0 82 0 85 12 85 6 0 28 -9 48 -19z m281 -79 c-7 -3 -8 -8 -1 -16 7
-8 6 -21 -4 -39 -9 -17 -10 -27 -3 -27 7 0 6 -6 -2 -15 -10 -12 -10 -15 1 -15
8 0 15 -12 16 -31 1 -17 12 -38 24 -48 l22 -18 -43 -132 c-24 -72 -44 -130
-46 -128 -6 5 22 202 30 215 9 14 -6 16 -19 2 -7 -6 -10 18 -9 63 1 40 -3 77
-8 84 -5 6 -5 14 -1 16 5 3 9 26 8 51 0 25 4 46 8 46 5 0 6 8 3 17 -6 14 -4
14 14 -2 13 -12 17 -21 10 -23z m170 2 c46 -19 60 -38 60 -85 0 -41 -70 -115
-97 -104 -16 7 -37 11 -66 14 -16 2 -38 73 -32 102 6 27 65 89 85 89 5 0 28
-7 50 -16z m-261 -93 c12 -8 13 -14 3 -35 -6 -14 -18 -26 -25 -26 -16 0 -93
-29 -175 -66 -29 -13 -54 -24 -56 -24 -3 0 -1 77 3 123 1 13 10 17 46 17 l45
0 0 -42 c0 -23 3 -38 7 -34 4 4 7 24 8 44 l0 37 60 6 c33 3 62 6 65 7 3 1 11
-2 19 -7z m-1144 -109 c3 -31 9 -82 13 -112 7 -52 6 -57 -20 -82 -22 -21 -28
-35 -28 -71 0 -48 12 -64 57 -76 21 -5 31 -17 41 -47 8 -21 25 -70 39 -108 26
-69 26 -69 6 -85 -28 -22 -36 -62 -17 -89 12 -18 25 -22 64 -22 l50 0 59 -75
c33 -41 68 -88 77 -105 10 -16 22 -30 26 -30 4 0 8 -6 8 -14 0 -22 -31 -28
-57 -10 -24 15 -25 25 -8 67 5 12 3 17 -8 17 -30 0 -36 -79 -7 -105 16 -14 30
-17 76 -12 56 6 58 5 115 -39 61 -47 66 -58 60 -138 -3 -39 33 -76 75 -76 49
0 84 16 84 40 0 11 6 20 13 20 16 0 106 -43 132 -63 20 -15 20 -16 1 -30 -12
-9 -17 -20 -13 -31 10 -24 32 -14 32 14 0 25 19 38 30 20 3 -5 1 -25 -4 -43
-6 -17 -34 -113 -62 -212 -28 -99 -53 -188 -56 -197 -4 -14 -17 -18 -62 -18
-63 0 -75 -6 -85 -37 -4 -13 -12 -23 -17 -23 -14 0 -67 38 -118 85 -24 22 -41
34 -37 28 19 -33 -21 -5 -103 73 -104 99 -218 252 -277 374 -47 95 -104 287
-128 430 -9 52 -19 107 -23 123 -3 15 -1 27 4 27 5 0 24 -55 42 -122 18 -68
44 -145 57 -173 26 -54 26 -53 -16 75 -51 152 -88 313 -95 413 -4 54 -4 199 0
322 l7 224 33 -25 c29 -22 35 -33 40 -82z m1146 26 c3 -28 -4 -53 -15 -60 -12
-8 -19 -13 -109 -84 -32 -25 -62 -42 -69 -38 -6 4 -8 3 -5 -3 7 -11 -19 -40
-28 -32 -2 3 -5 30 -7 61 -2 31 -6 54 -11 51 -4 -2 -4 -35 -1 -74 5 -49 4 -69
-5 -69 -7 0 -11 25 -11 74 0 67 2 75 24 89 13 9 36 19 50 23 22 5 26 3 27 -17
1 -20 2 -19 8 6 5 24 15 33 56 48 28 11 57 23 65 28 22 11 30 11 31 -3z m397
-95 c29 -43 64 -96 80 -117 26 -38 27 -45 28 -173 1 -74 5 -151 9 -171 4 -20
4 -34 0 -31 -11 11 -176 491 -171 496 2 2 11 -11 19 -29 27 -53 19 -15 -8 44
-14 29 -25 47 -25 40 0 -7 -5 -10 -11 -6 -8 4 -7 9 2 15 8 5 16 9 19 9 3 0 29
-35 58 -77z m-234 -74 c-15 -57 -32 -131 -39 -164 -6 -33 -32 -123 -57 -200
-25 -77 -53 -171 -62 -210 -18 -75 -71 -247 -86 -280 -5 -11 -12 -31 -15 -45
-20 -95 -51 -215 -65 -245 -5 -11 -11 -38 -15 -60 -4 -22 -22 -103 -41 -179
-19 -76 -34 -149 -34 -161 0 -19 -7 -23 -47 -28 -27 -3 -49 -4 -50 -3 -2 1 8
30 21 64 13 33 29 83 34 109 6 27 36 118 67 203 30 85 89 270 130 410 42 140
91 305 110 365 35 110 73 248 82 295 4 21 55 197 69 239 3 10 8 11 15 4 8 -8
3 -41 -17 -114z m124 91 c4 -28 67 -219 108 -325 15 -38 41 -117 59 -175 18
-58 54 -163 80 -235 26 -71 54 -150 62 -175 88 -277 206 -616 239 -688 13 -29
24 -55 24 -58 0 -3 -14 -4 -31 -2 l-32 3 -89 260 c-48 143 -97 289 -108 325
-10 36 -34 110 -53 165 -48 142 -187 565 -237 725 -24 74 -50 145 -58 157 -8
13 -11 30 -8 39 9 24 41 12 44 -16z m-320 -124 c-18 -25 -60 -88 -93 -141 -33
-53 -68 -106 -77 -118 -17 -22 -17 -22 -18 21 0 23 -5 42 -10 42 -6 0 -8 -20
-4 -53 5 -39 2 -62 -9 -83 -14 -27 -15 -21 -15 108 0 135 1 138 26 167 15 16
38 34 50 41 28 14 59 39 127 102 l50 47 3 -44 c3 -36 -3 -51 -30 -89z m272 46
c0 -9 12 -51 26 -92 14 -41 32 -95 39 -120 8 -25 45 -137 84 -249 39 -112 68
-207 66 -211 -10 -16 -98 -32 -152 -28 -88 7 -164 63 -202 149 -19 42 -19 49
-5 109 8 36 25 99 38 140 39 125 53 172 71 252 10 42 22 75 27 72 4 -3 8 -13
8 -22z m1195 -42 c19 -36 23 -137 7 -166 -6 -12 -31 -31 -54 -42 -24 -11 -53
-30 -66 -42 -29 -28 -36 -22 -17 13 11 22 69 190 91 265 5 18 21 7 39 -28z
m-1425 -9 c0 -32 -12 -81 -20 -81 -4 0 -5 12 -3 28 4 21 2 24 -6 12 -6 -8 -8
-32 -4 -52 4 -25 2 -38 -6 -38 -6 0 -11 12 -11 26 0 16 -4 23 -11 18 -6 -4 -8
-20 -5 -39 5 -25 -1 -45 -27 -91 -39 -69 -49 -94 -39 -94 4 0 27 39 52 88 51
100 67 89 20 -15 -17 -37 -41 -89 -53 -115 -24 -52 -42 -54 -33 -3 4 19 2 36
-3 39 -5 3 -8 17 -7 31 2 14 -1 22 -6 18 -23 -13 17 76 64 144 15 23 32 50 36
60 14 33 47 83 55 83 4 0 7 -8 7 -19z m1456 -183 c-4 -13 -8 -30 -10 -38 -3
-21 -13 -47 -42 -108 -13 -28 -24 -54 -24 -57 -1 -20 -126 -198 -191 -273 -16
-18 -34 -30 -40 -26 -8 5 -8 9 1 14 15 9 22 150 8 167 -7 9 0 28 24 65 19 29
50 79 69 110 23 40 44 62 69 73 64 29 90 46 107 70 23 31 37 32 29 3z m-1456
-19 c0 -6 -4 -7 -10 -4 -5 3 -10 1 -10 -4 0 -6 5 -11 10 -11 6 0 8 -10 6 -22
-3 -13 -12 -59 -20 -103 -15 -77 -114 -396 -135 -433 -8 -14 -10 -15 -14 -2
-3 8 -10 30 -16 48 -5 18 -7 40 -4 49 5 12 2 15 -9 10 -14 -5 -16 2 -12 51 3
31 9 59 15 60 5 2 9 10 9 18 0 8 5 14 10 14 6 0 10 6 10 14 0 16 18 31 26 23
3 -3 1 -14 -5 -25 -6 -11 -13 -42 -16 -69 -2 -26 -7 -65 -9 -85 -5 -47 10 -60
19 -16 8 40 35 127 46 149 10 21 15 102 6 115 -6 11 53 188 75 223 12 19 28
19 28 0z m1447 -354 c-8 -123 -35 -223 -108 -409 -39 -100 -80 -184 -120 -246
-66 -102 -183 -224 -270 -283 l-53 -35 -14 36 c-40 109 -135 390 -139 412 -4
22 1 27 44 44 26 10 56 26 65 33 20 18 41 8 36 -15 -2 -10 3 -22 11 -28 20
-16 6 -44 -22 -44 -12 0 -39 9 -60 19 -22 11 -40 15 -43 9 -3 -5 -4 -10 -3
-12 2 -1 17 -12 33 -24 35 -27 87 -29 108 -4 21 24 31 59 18 67 -14 8 -13 26
1 23 6 -2 14 3 16 10 3 8 -6 12 -26 12 -65 0 -47 19 151 160 39 27 50 31 62
20 9 -6 32 -16 52 -20 31 -7 40 -5 61 16 23 23 23 25 7 49 -9 14 -20 25 -25
25 -14 0 -11 -28 4 -33 24 -9 -10 -29 -44 -25 -45 4 -50 31 -10 47 16 7 32 22
36 34 5 16 8 18 11 7 3 -9 13 -21 24 -28 17 -10 20 -10 20 7 0 10 -10 25 -22
33 -22 15 -22 15 48 99 39 46 79 96 88 112 12 18 27 27 44 27 l25 0 -6 -95z
m-1381 23 c5 -18 9 -38 9 -43 0 -6 10 -25 23 -42 12 -17 22 -36 22 -42 0 -6 6
-11 14 -11 8 0 17 -4 20 -9 11 -17 -14 -74 -46 -102 -24 -21 -28 -29 -16 -29
9 0 20 5 23 10 3 6 11 10 16 10 6 0 -1 -14 -15 -31 -14 -17 -26 -37 -26 -46 0
-12 -7 -14 -37 -8 -30 5 -86 28 -101 40 -3 2 24 73 38 97 5 9 19 66 32 127 12
61 25 111 29 111 4 0 11 -15 15 -32z m1082 -49 c-3 -39 -11 -76 -17 -82 -7 -7
-42 -12 -80 -13 -50 0 -73 -5 -86 -17 -9 -9 -13 -21 -10 -27 3 -6 -4 -14 -16
-18 -15 -6 -18 -11 -11 -16 32 -20 -20 -144 -75 -176 -19 -11 -38 -18 -41 -15
-3 3 -7 43 -8 89 -3 82 -2 84 24 97 26 13 86 54 108 74 6 6 41 34 78 64 36 30
75 67 87 83 39 50 52 38 47 -43z m-714 -135 c-43 -79 -161 -190 -181 -171 -7
8 21 47 33 47 7 0 19 10 27 23 8 12 34 42 56 67 47 51 51 63 16 50 -44 -17
-77 -42 -65 -50 8 -5 -4 -24 -33 -56 -25 -27 -48 -46 -51 -43 -11 11 7 79 26
99 23 25 21 31 -9 24 -12 -4 -27 -18 -33 -33 l-10 -26 4 27 c3 24 -19 59 -31
51 -1 -2 -3 0 -3 5 0 8 -1 8 73 -2 38 -6 66 -5 80 2 31 15 70 26 83 24 7 -1
15 5 18 14 4 12 10 14 17 7 6 -6 1 -26 -17 -59z m705 10 c8 -7 -44 -56 -117
-111 -100 -74 -109 -76 -82 -24 18 35 25 67 29 124 2 17 49 26 106 21 33 -4
62 -8 64 -10z m-352 -156 c-2 -68 -4 -73 -25 -76 -30 -4 -18 -22 15 -22 21 0
23 -3 14 -14 -7 -8 -26 -18 -43 -21 -33 -8 -48 5 -48 40 0 11 -9 38 -21 59
-23 43 -24 42 39 78 69 39 71 38 69 -44z m-223 -105 c14 -42 25 -77 23 -78 -1
0 -19 -8 -40 -18 -39 -18 -78 -25 -164 -31 -57 -3 -68 1 -52 20 8 9 6 11 -9 8
-11 -4 -44 12 -87 40 -37 26 -70 44 -72 42 -5 -5 74 -73 110 -94 15 -9 27 -19
27 -22 0 -7 -164 -1 -210 7 -19 3 -40 5 -47 4 -12 -2 -132 27 -144 35 -7 4 12
102 24 121 9 15 77 -8 78 -27 0 -10 2 -11 6 -3 3 10 29 11 101 7 79 -5 124 -1
239 19 78 14 150 30 160 36 10 6 21 11 25 11 3 0 18 -35 32 -77z m56 -179 c10
-27 40 -117 68 -200 28 -83 54 -157 57 -165 4 -12 -69 -14 -485 -17 -269 -1
-490 1 -490 4 0 12 102 419 106 423 5 6 94 -21 94 -28 0 -4 -5 -12 -10 -17
-14 -14 7 -72 30 -84 29 -16 92 -12 112 7 19 17 25 63 8 63 -5 0 -10 -8 -10
-19 0 -28 -61 -37 -95 -15 -43 28 -15 69 33 48 29 -12 54 -15 66 -6 6 5 35 10
63 11 45 2 52 0 47 -13 -9 -23 46 -21 101 4 35 16 57 19 115 14 48 -3 77 -1
86 7 12 10 19 8 35 -10 23 -24 22 -49 -2 -64 -20 -13 -90 19 -97 45 -7 30 -19
20 -14 -12 9 -59 89 -90 140 -54 27 19 28 33 3 78 -14 25 -16 37 -8 45 18 18
29 8 47 -45z m273 -426 c-2 -5 -8 -8 -14 -8 -5 0 -37 -13 -71 -29 -106 -49
-196 -73 -382 -101 -105 -17 -182 -33 -186 -41 -7 -10 -40 -10 -167 0 -333 24
-358 29 -464 82 -126 62 -148 91 -79 101 52 7 1368 3 1363 -4z m128 -5 c0 -5
2 -45 4 -90 l3 -81 -193 1 c-185 2 -226 8 -148 23 20 4 44 15 54 25 11 11 25
19 32 20 6 0 62 24 122 54 115 56 124 60 126 48z m-1536 -89 c22 -13 72 -33
110 -45 39 -11 74 -24 78 -29 5 -4 -53 -7 -129 -5 l-137 2 -3 57 c-2 54 -1 56
19 50 12 -4 40 -17 62 -30z"/>
<path d="M13261 7957 c-1 -33 -3 -36 -18 -29 -10 5 -69 12 -131 16 l-114 7 4
-23 c3 -23 6 -23 135 -26 136 -3 145 -5 153 -47 5 -23 112 -175 120 -170 4 3
2 19 -7 36 -8 16 -16 36 -17 43 -1 7 -14 28 -29 46 -25 29 -65 97 -65 110 0 3
-7 21 -15 40 l-15 35 -1 -38z"/>
<path d="M5370 7929 c-25 -17 -62 -47 -83 -67 -29 -28 -40 -34 -46 -23 -6 9
-11 10 -15 2 -4 -6 -5 -15 -2 -20 6 -9 -84 -98 -144 -143 -19 -15 -48 -30 -63
-34 -19 -4 -25 -9 -17 -14 8 -5 10 -23 6 -56 -11 -87 -11 -923 -1 -1594 15
-979 12 -1609 -11 -2167 -4 -96 -2 -148 6 -162 14 -28 24 -99 11 -86 -5 6 -11
26 -14 45 -3 30 -4 28 -5 -12 -1 -27 3 -48 8 -48 6 0 10 -9 10 -21 0 -11 -4
-17 -10 -14 -5 3 -10 2 -10 -4 0 -5 6 -11 13 -14 9 -3 11 -78 8 -344 -2 -272
0 -342 10 -349 19 -11 48 -14 214 -18 83 -2 157 -7 165 -10 8 -3 42 -5 75 -3
33 2 123 0 200 -4 77 -3 145 -4 150 0 42 26 188 41 200 21 5 -8 12 -7 22 2 9
7 28 13 42 14 67 1 94 5 88 10 -3 4 -29 6 -57 5 -47 -1 -64 9 -39 24 5 4 47
57 93 118 45 62 101 130 123 152 31 31 38 44 32 60 -6 17 -8 17 -8 3 -1 -10
-5 -18 -11 -18 -14 0 -12 64 2 78 9 9 8 12 -6 12 -17 0 -17 1 -2 25 14 21 16
40 10 110 -4 47 -10 85 -13 85 -3 0 -7 169 -7 375 -1 206 2 375 6 375 7 0 76
-144 91 -190 4 -14 41 -131 83 -260 142 -446 225 -705 240 -755 31 -99 64
-187 75 -198 21 -21 11 -27 -46 -27 -41 0 -54 -3 -46 -11 12 -12 592 -7 738 7
44 4 170 7 280 8 l200 1 20 -37 c25 -47 32 -48 27 -3 -2 19 1 42 8 50 10 12 9
15 -5 15 -9 0 -15 3 -13 8 9 21 84 121 91 122 10 0 -10 -38 -33 -65 -9 -11
-20 -29 -24 -40 -5 -16 -2 -15 14 5 11 14 20 28 20 31 0 4 15 14 33 23 17 8
26 16 19 16 -9 0 -11 7 -6 23 9 30 11 32 27 19 8 -7 18 -7 27 -2 12 8 10 10
-7 10 -13 0 -23 2 -23 5 0 26 88 161 102 157 11 -3 1 52 -13 78 -16 28 -91
205 -109 256 -10 28 -22 59 -28 70 -13 25 -33 72 -66 159 -15 39 -40 102 -56
140 -50 120 -111 277 -141 365 -33 95 -59 166 -94 255 -28 72 -75 225 -75 242
0 14 -107 271 -120 288 -4 6 -13 28 -20 50 -7 22 -16 45 -21 51 -5 6 -3 16 3
22 9 9 9 12 0 12 -7 0 -12 -4 -12 -10 0 -16 -17 -11 -24 7 -7 18 31 66 45 57
5 -3 9 -1 9 4 0 11 59 79 171 197 84 87 162 193 153 206 -3 5 -1 9 4 9 6 0 12
7 16 15 3 8 1 15 -3 15 -5 0 -30 -33 -55 -72 -57 -92 -107 -160 -113 -154 -3
3 10 26 29 53 18 26 54 84 80 128 62 106 70 117 62 86 -4 -16 -2 -22 7 -19 7
2 13 11 14 19 2 7 19 68 38 134 39 130 53 223 62 385 3 58 8 146 12 195 12
173 10 256 -11 372 -10 51 -66 223 -91 278 -30 65 -42 111 -26 101 6 -4 11 -2
11 3 0 6 -4 11 -10 11 -5 0 -10 7 -10 15 0 12 -39 88 -68 131 -29 44 -51 75
-81 112 -24 30 -28 40 -15 35 46 -17 -56 90 -156 164 -98 73 -340 197 -455
233 -22 7 -54 24 -71 37 -37 28 -56 31 -23 3 13 -10 21 -19 16 -20 -4 0 -69
15 -145 34 -180 44 -315 60 -492 58 -346 -4 -909 -7 -900 -4 12 4 14 22 3 22
-5 0 -28 -14 -53 -31z m365 -29 c106 -5 292 -6 420 -1 262 8 428 -5 545 -43
38 -12 70 -19 70 -14 0 4 8 8 18 7 11 0 12 -2 4 -6 -18 -7 4 -33 27 -33 21 0
153 -45 194 -66 15 -9 33 -14 39 -12 5 2 -11 14 -36 26 -41 21 -67 42 -52 42
31 0 225 -81 316 -131 113 -62 158 -90 174 -108 11 -12 23 -21 28 -21 19 0 93
-79 136 -145 24 -38 57 -88 72 -110 23 -34 50 -95 50 -113 0 -3 -10 3 -22 14
-18 15 -17 12 4 -13 14 -18 29 -47 33 -65 4 -18 16 -52 26 -75 11 -23 19 -47
19 -54 0 -6 8 -26 19 -43 17 -28 26 -63 62 -236 13 -62 20 -156 22 -285 1
-132 -9 -205 -28 -205 -14 0 -14 16 0 90 10 54 11 140 1 140 -4 0 -6 7 -2 15
3 8 0 15 -7 16 -9 0 -9 2 1 6 15 6 16 33 1 33 -7 0 -18 8 -25 18 -13 16 -14
16 -7 -2 4 -12 3 -17 -4 -13 -5 3 -19 -10 -29 -31 -25 -46 -49 -53 -58 -16 -4
15 -3 31 3 37 5 5 7 16 4 23 -3 8 -1 14 5 14 6 0 12 -6 15 -12 3 -7 10 0 16
17 11 26 10 31 -9 45 -11 9 -22 27 -22 40 -1 14 -5 30 -10 36 -5 7 -8 16 -7
20 4 24 -3 42 -17 48 -13 5 -14 3 -7 -6 5 -7 9 -46 8 -85 -2 -48 2 -73 9 -73
6 0 5 -4 -3 -9 -9 -6 -12 -20 -9 -40 2 -17 1 -31 -3 -31 -12 0 -28 54 -34 120
-16 159 -73 309 -178 471 -51 78 -109 153 -91 119 5 -8 -32 22 -81 68 -186
172 -368 269 -610 327 -38 9 -97 23 -130 30 -152 36 -552 55 -790 36 -171 -13
-705 -34 -711 -28 -2 2 14 17 35 33 62 46 161 131 223 190 l57 54 68 0 c37 0
154 -4 258 -10z m585 -285 c182 -20 256 -32 376 -60 131 -31 354 -118 407
-159 23 -18 68 -49 99 -70 60 -39 184 -170 211 -221 8 -16 31 -46 51 -65 19
-19 36 -43 36 -52 0 -10 4 -18 9 -18 15 0 59 -113 86 -225 15 -60 31 -123 35
-140 10 -35 32 -140 36 -172 1 -13 -2 -23 -7 -23 -6 0 -7 -4 -4 -10 3 -5 2
-10 -3 -10 -5 0 -6 -15 -4 -32 3 -18 7 -27 9 -20 3 6 9 12 14 12 11 0 10 -428
-1 -435 -4 -2 -6 -20 -5 -40 0 -19 -2 -35 -6 -35 -3 0 -5 -12 -3 -27 1 -15 -3
-36 -9 -47 -6 -12 -12 -28 -13 -37 -4 -53 -74 -249 -120 -335 -68 -131 -101
-172 -205 -254 -56 -45 -113 -88 -128 -97 -14 -9 -39 -25 -55 -36 l-29 -20
-20 24 -19 24 16 -27 c21 -35 12 -54 -33 -76 l-36 -17 34 -5 c31 -5 36 -11 78
-105 63 -141 146 -346 178 -440 15 -44 59 -154 97 -245 91 -214 119 -283 114
-287 -6 -6 -29 34 -131 227 -54 102 -117 219 -140 260 -24 41 -93 174 -155
295 -111 216 -182 346 -345 635 -46 80 -103 184 -128 232 -25 48 -52 97 -61
110 -19 27 -20 38 -5 38 14 0 27 16 75 88 42 64 68 130 90 232 22 102 22 373
-1 462 -23 88 -68 182 -113 236 -22 26 -37 54 -35 62 4 13 3 13 -5 1 -9 -12
-16 -9 -44 15 -18 16 -45 37 -58 47 -14 10 -3 6 24 -8 40 -21 46 -22 33 -7
-10 11 -36 28 -59 38 l-42 19 29 6 30 7 -31 1 c-17 0 -57 10 -90 22 -51 18
-74 19 -177 15 -65 -3 -127 -10 -137 -16 -10 -5 -36 -11 -57 -12 -34 -1 -35
-2 -7 -5 l31 -4 -3 -592 c-2 -326 1 -619 5 -652 5 -36 4 -67 -1 -79 -16 -31 9
-38 116 -31 155 9 236 32 350 99 l48 29 18 -22 c9 -13 50 -87 90 -165 40 -77
101 -190 135 -251 35 -60 102 -186 150 -280 97 -187 251 -473 296 -548 16 -27
93 -166 171 -310 77 -144 149 -274 159 -289 11 -15 50 -107 88 -205 38 -98 83
-209 99 -248 30 -74 46 -125 37 -125 -3 0 -81 152 -173 338 -187 374 -347 686
-427 831 -29 53 -126 238 -215 411 -89 173 -167 320 -172 325 -17 17 296 -600
444 -875 31 -58 186 -364 345 -680 159 -316 299 -592 311 -612 43 -74 61 -69
-268 -73 -162 -1 -342 -5 -400 -9 -58 -3 -163 -8 -235 -11 l-130 -6 -24 78
c-13 43 -72 225 -132 404 -170 513 -260 815 -278 929 l-10 65 5 -67 c2 -38 3
-68 0 -68 -8 0 -53 84 -80 148 -24 57 -27 78 -30 213 -2 82 -1 149 3 149 4 0
13 -6 20 -12 10 -11 12 -9 9 7 -2 14 -13 21 -32 23 l-29 4 6 -127 c8 -151 2
-155 -60 -39 -52 97 -149 198 -165 171 -5 -9 -15 -17 -23 -17 -20 0 -28 -19
-15 -35 9 -11 12 -232 12 -902 l-1 -888 -478 0 -478 0 0 107 c1 59 4 110 7
113 3 3 11 -8 17 -26 19 -56 59 -99 91 -99 22 0 29 5 32 23 3 20 9 22 68 23
36 1 53 0 38 -3 -16 -2 -28 -9 -28 -14 0 -6 12 -8 28 -5 15 3 85 8 157 12 71
3 140 10 152 15 24 9 33 -5 11 -14 -8 -3 -6 -6 5 -6 9 -1 17 -8 17 -16 0 -26
75 -20 102 9 13 13 32 28 43 34 17 10 17 11 3 12 -9 0 -20 -4 -23 -10 -13 -21
-27 -9 -20 17 7 29 60 82 83 83 6 0 12 5 12 10 0 12 -34 -3 -63 -28 -9 -8 -20
-13 -23 -10 -8 8 44 88 57 88 6 0 9 7 5 15 -4 11 6 20 34 31 22 9 40 20 40 25
0 4 -15 2 -34 -6 l-33 -14 -2 85 c-1 46 -4 91 -7 98 -3 8 -1 17 5 21 20 12 12
42 -21 83 -18 21 -48 60 -66 86 -47 68 -80 79 -237 80 -194 1 -239 -22 -306
-154 -34 -69 -46 -83 -66 -75 -15 5 -43 -4 -43 -14 0 -4 11 -13 25 -19 25 -12
25 -12 10 -49 -9 -21 -22 -41 -30 -46 -8 -4 -15 -17 -15 -27 0 -10 -4 -22 -10
-25 -11 -7 -11 -13 -10 253 l1 193 124 247 c69 136 147 288 174 337 106 196
201 376 201 383 0 20 -213 -367 -368 -668 -148 -288 -145 -284 -136 -195 8 78
28 126 132 300 36 61 86 148 112 195 101 182 284 497 430 740 32 52 92 156
135 230 42 74 86 150 97 168 11 17 17 32 15 32 -8 0 -68 -87 -109 -155 -19
-33 -93 -154 -163 -270 -182 -299 -265 -441 -456 -775 -92 -162 -175 -304
-183 -315 -15 -19 -16 -15 -17 60 -2 188 9 1935 14 2105 1 41 -1 89 -4 107 -4
18 -4 35 -1 38 7 6 10 96 4 108 -4 8 -10 346 -16 922 -2 160 -5 296 -7 304 -6
22 39 29 126 19 75 -9 286 -4 540 12 201 12 476 10 615 -5z m10 -820 c59 -12
102 -40 171 -112 141 -145 179 -246 185 -488 3 -145 1 -169 -21 -255 -14 -52
-33 -106 -43 -120 -27 -37 -138 -71 -249 -77 -92 -5 -93 -5 -94 18 -1 13 0 29
1 34 6 30 -7 935 -15 983 -4 28 -2 33 13 28 9 -2 33 -8 52 -11z m1515 -396 c1
-72 -3 -98 -15 -109 -21 -20 -27 -65 -8 -57 9 3 15 -1 15 -9 0 -8 -6 -14 -14
-14 -7 0 -13 -10 -13 -21 0 -18 2 -19 15 -9 13 11 15 8 15 -13 0 -35 -10 -57
-24 -57 -8 0 -13 -15 -14 -37 -2 -43 -16 -63 -33 -46 -9 9 -8 16 4 28 16 16
13 45 -5 45 -5 0 -6 5 -2 12 9 14 12 98 4 98 -3 0 -6 49 -7 109 -1 100 1 110
19 114 10 3 24 19 31 36 20 54 32 29 32 -70z m-1765 -94 c1 -22 -1 -49 -3 -60
-3 -13 6 -30 24 -47 16 -15 29 -32 29 -37 0 -6 5 -11 11 -11 6 0 9 -7 5 -15
-7 -20 8 -19 24 0 11 13 10 18 -6 30 -18 14 -18 16 -1 26 12 7 17 23 17 51 0
35 2 39 15 28 11 -9 13 -16 5 -24 -5 -5 -10 -23 -10 -38 0 -16 -6 -28 -12 -28
-10 0 -10 -2 0 -8 21 -14 10 -76 -16 -87 -25 -11 -30 -35 -7 -35 8 0 15 -9 15
-20 0 -25 -17 -26 -23 -2 -3 9 -5 -16 -4 -55 1 -40 4 -73 7 -73 4 0 4 -14 2
-31 -3 -21 -1 -30 6 -25 6 3 14 1 18 -5 4 -8 3 -9 -4 -5 -13 8 -15 0 -12 -59
2 -65 8 -77 31 -62 17 11 19 21 14 109 -4 99 8 134 19 56 21 -138 22 -127 -25
-172 -24 -23 -68 -67 -97 -99 -38 -43 -52 -54 -53 -40 -2 24 0 187 2 193 1 3
1 9 0 14 -5 25 3 510 10 649 2 33 19 -72 19 -118z m1154 -1330 c-3 -8 1 -27 8
-42 127 -247 160 -313 198 -397 25 -55 60 -129 78 -164 17 -36 32 -76 32 -91
0 -14 5 -33 11 -41 8 -12 9 -11 5 5 -3 11 -1 27 4 35 7 11 18 4 54 -35 25 -28
46 -56 46 -62 0 -7 5 -13 11 -13 5 0 8 -4 4 -9 -3 -5 0 -13 6 -17 8 -4 9 -3 5
4 -4 7 -3 12 2 12 12 0 26 -30 23 -47 -1 -7 3 -13 9 -13 5 0 10 -6 10 -14 0
-8 5 -18 12 -22 7 -5 8 -3 3 6 -5 8 -3 11 5 8 8 -2 24 -33 37 -69 13 -35 30
-77 37 -94 8 -16 17 -41 21 -55 4 -14 21 -53 36 -87 16 -33 29 -63 29 -66 0
-4 30 -72 95 -212 15 -31 11 -49 -8 -39 -7 4 -8 3 -4 -2 5 -5 13 -9 19 -9 6 0
19 -22 30 -49 15 -40 16 -47 3 -36 -19 16 -19 9 -1 -35 14 -34 34 -51 22 -19
-3 8 -2 12 4 9 6 -3 7 -16 4 -29 -4 -17 1 -27 20 -40 17 -11 26 -26 26 -43 l0
-26 -25 23 c-14 13 -25 28 -25 33 0 12 -71 126 -83 134 -15 9 75 -156 101
-183 12 -14 27 -22 32 -19 27 17 0 -27 -97 -157 -40 -53 -78 -109 -83 -124
-14 -36 -22 -26 -58 76 -16 47 -33 93 -37 103 -4 9 -3 17 2 17 5 0 -15 50 -45
111 -29 61 -51 113 -48 116 2 3 -6 24 -19 47 -13 23 -26 59 -30 79 -4 20 -11
40 -16 43 -5 3 -7 10 -4 15 4 5 -1 19 -9 31 -9 12 -16 29 -16 36 0 8 -15 46
-34 85 -36 76 -99 235 -101 252 0 6 -9 28 -19 50 -10 22 -36 85 -58 140 -22
55 -44 104 -49 109 -5 6 -9 16 -9 24 0 8 -6 28 -14 45 -19 42 -76 195 -76 203
0 3 6 4 14 1 11 -5 12 0 3 23 -6 16 -15 28 -20 27 -11 -2 -50 63 -43 70 2 3
12 -9 21 -27 9 -18 19 -30 21 -27 6 6 -96 201 -108 205 -4 2 -5 9 -2 14 4 6 1
16 -7 22 -18 13 -58 96 -66 138 -5 25 -3 29 12 27 17 -4 46 -83 48 -131 1 -9
4 -15 6 -12 3 3 15 -12 26 -34 62 -118 93 -183 103 -208 6 -16 20 -53 31 -82
15 -41 17 -52 6 -48 -9 3 -12 0 -8 -10 3 -7 11 -14 19 -14 7 0 19 -10 25 -22
12 -22 11 -22 -6 -8 -17 14 -18 13 -11 -5 5 -11 11 -30 13 -42 3 -13 10 -23
15 -23 5 0 6 -5 3 -10 -4 -6 -3 -16 3 -23 5 -7 20 -43 33 -82 12 -38 31 -82
41 -96 9 -14 15 -29 11 -32 -3 -4 -2 -12 3 -19 6 -7 16 -31 23 -53 8 -22 22
-52 32 -66 10 -14 16 -28 14 -31 -11 -11 59 -193 112 -292 15 -28 69 -171 77
-207 3 -9 9 -25 15 -35 6 -11 20 -41 31 -67 29 -66 36 -53 9 14 -12 30 -27 72
-34 94 -7 22 -16 48 -20 58 -6 14 -3 16 11 11 14 -4 12 0 -7 18 -29 26 -149
272 -149 305 0 12 -4 24 -9 27 -7 5 -19 46 -21 71 0 3 -14 31 -30 64 -36 70
-37 80 -8 55 22 -19 23 -19 8 1 -8 11 -21 24 -27 28 -7 4 -13 13 -13 19 0 7 5
6 15 -2 13 -10 13 -8 -1 18 -8 17 -21 33 -29 36 -8 3 -15 14 -15 25 0 11 -4
22 -9 26 -5 3 -13 20 -16 38 -4 17 -12 41 -18 52 -13 25 -17 75 -7 75 5 0 14
-17 21 -37 6 -21 16 -43 21 -50 5 -7 7 -16 5 -21 -7 -9 9 -39 17 -31 8 8 -45
152 -66 179 -23 29 -41 69 -73 162 l-23 67 24 -16 c13 -8 21 -19 18 -24 -2 -5
2 -19 11 -33 9 -13 15 -28 14 -32 -2 -5 6 -36 16 -69 14 -43 20 -54 23 -37 2
14 8 20 15 16 7 -4 2 4 -11 18 -18 20 -20 27 -10 32 10 5 10 7 1 12 -7 3 -13
16 -13 29 0 12 -6 28 -14 34 -8 7 -14 25 -14 40 1 17 -29 83 -76 170 -42 77
-76 147 -76 155 0 7 -7 19 -15 26 -12 10 -13 15 -4 21 10 6 10 11 -1 24 -12
14 -12 18 1 26 19 12 19 11 13 -6z m251 -405 c7 -14 16 -32 19 -40 3 -8 10
-22 15 -30 5 -8 16 -31 25 -51 9 -20 22 -42 31 -49 8 -7 15 -18 15 -24 0 -6 8
-20 17 -31 l16 -20 -8 20 c-4 11 -10 27 -13 35 -5 13 -3 13 11 2 9 -8 16 -17
15 -20 -2 -10 14 -46 24 -52 6 -5 9 -16 17 -60 1 -3 5 1 10 8 5 9 17 -6 38
-50 34 -71 33 -87 -3 -43 -14 17 -54 59 -89 95 -49 49 -74 87 -106 155 -23 49
-45 103 -49 120 -4 16 -11 38 -15 49 -12 28 14 16 30 -14z m-1311 -672 c-1
-29 1 -75 6 -103 5 -27 11 -92 13 -143 2 -56 9 -98 16 -105 10 -10 11 -5 6 23
-3 19 -7 81 -9 136 -2 56 -7 107 -10 113 -8 13 3 56 12 47 6 -7 6 -8 16 -116
3 -41 11 -117 17 -168 6 -52 8 -96 5 -100 -3 -3 -6 2 -6 11 0 9 -4 18 -8 21
-5 3 -5 -16 -1 -42 12 -67 17 -110 12 -89 -8 32 -22 7 -16 -30 4 -26 3 -34 -5
-29 -7 4 -12 16 -12 26 0 10 -4 21 -9 25 -6 3 -8 -14 -5 -42 3 -27 9 -93 13
-148 4 -55 9 -93 10 -84 0 9 7 19 15 22 11 5 12 14 5 47 -15 67 -21 147 -9
130 5 -8 10 -27 10 -42 0 -16 5 -28 10 -28 6 0 8 10 4 24 -3 13 -1 26 4 30 6
3 10 -27 11 -77 l1 -82 -43 -45 c-24 -25 -52 -57 -61 -72 -10 -16 -21 -28 -25
-28 -3 0 -6 20 -7 45 0 25 3 45 9 45 6 0 6 4 0 13 -5 6 -7 22 -4 35 3 12 3
141 0 285 -4 144 -5 264 -3 266 11 13 16 -23 20 -170 3 -90 6 -204 8 -254 2
-49 4 -115 5 -145 1 -45 4 -51 12 -36 7 12 9 48 4 105 -4 47 -9 167 -10 266
-2 99 -6 258 -10 353 -4 107 -3 172 3 168 5 -3 8 -29 6 -58z m-59 -359 c10
-313 10 -444 2 -503 -6 -39 -5 -61 2 -65 6 -4 -2 -25 -22 -54 -34 -50 -54 -61
-42 -24 4 12 7 31 6 42 0 16 2 17 9 5 13 -21 17 -3 25 95 7 101 7 94 5 375 -1
297 -1 304 5 298 3 -3 8 -79 10 -169z m-451 71 c10 -7 16 -28 16 -51 0 -38 0
-39 -19 -20 -32 32 -227 40 -370 14 -31 -5 -32 -4 -22 15 26 48 85 62 253 58
85 -2 132 -7 142 -16z m-26 -89 c22 -12 60 -116 47 -129 -3 -4 -109 -8 -235
-10 -267 -5 -261 -8 -215 88 26 53 32 59 64 63 69 9 316 0 339 -12z m149 -139
c18 -11 3 -122 -17 -122 -4 0 -13 -26 -19 -57 -18 -94 -31 -134 -42 -128 -5 4
-7 11 -4 16 4 5 1 9 -5 9 -7 0 -9 -8 -5 -19 4 -12 0 -21 -12 -26 -10 -4 -133
-10 -273 -12 -282 -5 -294 -2 -320 54 -8 18 -20 33 -26 33 -7 0 -9 11 -6 25
l4 25 38 -30 c44 -35 87 -53 95 -40 5 8 -35 38 -92 69 -32 17 -29 81 4 81 8 0
12 4 8 9 -3 5 7 30 22 55 25 42 31 46 58 41 110 -19 451 -13 508 10 15 6 17 1
16 -36 0 -24 -4 -64 -7 -88 -6 -39 -11 -45 -42 -56 -97 -34 -99 -32 -38 46
l41 54 -56 -55 c-74 -71 -74 -85 -3 -76 30 3 61 9 70 12 12 5 15 2 10 -10 -6
-17 -62 -36 -106 -36 -16 0 -28 -5 -28 -11 0 -8 16 -9 53 -4 28 4 60 7 70 7 9
0 17 5 17 13 0 7 4 15 9 17 6 2 13 39 16 83 12 136 26 170 62 147z"/>
<path d="M6433 5208 c-33 -37 -41 -60 -37 -110 6 -87 51 -152 70 -103 4 10 19
15 48 14 22 0 35 -3 28 -6 -16 -6 -6 -23 15 -23 8 0 13 6 10 13 -7 19 51 21
69 2 20 -20 31 -19 42 3 18 36 13 91 -13 142 -42 82 -54 90 -138 90 -63 0 -76
-3 -94 -22z m-3 -76 c0 -4 50 -7 110 -5 l111 2 10 -26 c20 -53 10 -58 -115
-59 l-114 0 -7 34 c-3 18 -9 40 -12 48 -3 8 0 14 6 14 6 0 11 -4 11 -8z"/>
<path d="M5843 5070 c-23 -10 -56 -65 -84 -142 -19 -52 -12 -109 18 -138 13
-13 16 -13 29 7 14 19 22 21 97 16 45 -2 92 -9 104 -15 31 -15 51 -4 46 24 -3
15 2 29 11 37 11 9 16 30 16 68 0 44 -6 63 -30 97 -16 24 -37 46 -45 50 -24 9
-136 6 -162 -4z m217 -112 c0 -21 -26 -88 -38 -100 -7 -7 -59 -14 -128 -16
-121 -5 -143 2 -128 38 4 8 9 29 13 45 l7 30 124 5 c69 3 131 7 138 8 6 1 12
-4 12 -10z"/>
<path d="M6756 4100 c-43 -8 -58 -18 -114 -75 -38 -40 -62 -72 -58 -80 3 -8 1
-40 -4 -71 -7 -42 -6 -76 5 -128 19 -93 82 -268 101 -282 19 -15 92 -6 119 14
19 13 19 14 -7 10 -23 -4 -26 -3 -18 12 8 15 16 17 47 9 21 -5 65 -9 98 -11
l60 -2 -53 -3 c-42 -3 -52 -7 -48 -19 4 -11 -4 -14 -36 -14 -59 0 -44 -6 32
-13 47 -4 58 -3 41 4 -13 5 -22 11 -20 14 3 2 44 5 92 6 70 1 87 5 83 15 -4
10 5 14 34 14 33 0 40 -3 40 -19 0 -13 9 -21 30 -26 36 -8 70 2 70 20 0 8 14
31 32 52 27 32 28 34 5 14 -15 -14 -30 -22 -33 -19 -10 11 20 47 48 59 15 6
33 18 40 27 9 12 2 10 -24 -6 -38 -22 -53 -14 -20 10 10 7 22 20 27 28 6 12 5
13 -6 3 -20 -20 -24 -16 -26 29 -2 28 -15 62 -39 102 -35 56 -36 60 -19 73 11
7 23 13 28 13 19 0 -1 24 -26 31 -30 8 -41 1 -26 -17 6 -7 6 -15 1 -18 -5 -3
-15 14 -22 37 -25 83 -69 156 -111 184 -38 25 -50 27 -157 29 -65 2 -139 -1
-166 -6z m311 -40 c12 -7 30 -30 41 -49 l20 -36 -196 2 -197 3 -7 37 c-3 21
-3 41 0 45 22 22 305 21 339 -2z m51 -122 c11 -9 52 -92 52 -105 0 -4 -423 3
-437 6 -6 2 -2 38 7 73 l11 37 97 3 c138 4 255 -2 270 -14z m-430 -135 c11
-15 12 -15 12 4 0 19 4 20 38 13 62 -14 282 -21 370 -12 76 7 84 6 102 -13 32
-34 49 -88 47 -149 -2 -48 -7 -62 -27 -78 -22 -18 -34 -19 -105 -13 -44 4
-155 7 -246 6 -192 -1 -189 -2 -210 92 -8 31 -17 57 -20 57 -11 0 -29 59 -29
93 0 27 2 29 28 23 15 -4 33 -14 40 -23z"/>
<path d="M5241 3164 c8 -9 14 -24 14 -33 0 -14 16 -16 119 -15 113 1 119 2
137 25 17 22 17 24 1 31 -9 4 -77 7 -151 7 -122 1 -132 0 -120 -15z"/>
<path d="M8404 7949 c-2 -3 33 -9 77 -12 44 -3 83 -8 87 -11 3 -4 -39 -52 -94
-109 -55 -56 -114 -119 -132 -140 -20 -23 -39 -37 -47 -33 -12 4 -14 -95 -10
-712 2 -394 9 -771 14 -837 12 -138 11 -138 -66 -164 -41 -14 -48 -20 -51 -45
-3 -22 5 -37 35 -68 l38 -40 -41 -36 c-77 -69 -75 -93 11 -152 38 -26 45 -36
45 -64 0 -19 11 -49 25 -70 22 -33 25 -47 25 -130 l0 -93 -40 -37 c-27 -25
-40 -45 -40 -63 0 -15 -7 -34 -16 -44 -14 -16 -14 -20 2 -44 15 -23 22 -26 50
-20 30 5 34 3 40 -21 4 -15 4 -97 0 -183 -4 -86 -9 -491 -12 -901 -2 -410 -7
-761 -11 -780 -3 -19 -6 -39 -5 -43 2 -4 4 -71 7 -148 l4 -139 -35 0 c-21 0
-33 -4 -29 -10 3 -5 19 -10 36 -10 16 0 29 -5 29 -11 0 -8 -14 -10 -40 -6 -22
3 -43 1 -46 -4 -3 -5 18 -9 45 -9 34 0 51 -4 52 -12 1 -7 2 -20 3 -28 2 -8 3
-27 4 -42 1 -16 7 -28 13 -28 8 0 10 17 6 53 -3 30 -2 58 1 63 4 5 99 9 212
10 649 3 916 3 1010 -1 245 -11 465 -17 460 -13 -5 6 -169 17 -255 19 -44 0
-47 2 -25 10 15 6 130 9 285 8 258 -2 685 8 693 16 14 14 -18 25 -76 26 -54 2
-44 4 48 10 63 5 120 7 125 5 6 -3 -4 -5 -22 -5 -21 -1 -31 -6 -29 -13 1 -7 1
-10 -1 -5 -6 10 -33 9 -33 -2 0 -17 28 -19 81 -6 30 7 48 13 42 14 -7 1 -13 5
-13 10 0 14 141 23 157 9 11 -9 16 -9 22 1 4 6 12 11 17 10 19 -3 34 1 34 10
0 6 -19 11 -42 13 -40 3 -41 4 -19 14 22 10 17 12 -40 18 -106 11 -137 16
-161 26 -23 9 32 12 187 11 120 0 -8 21 -164 28 -8 1 -11 4 -7 8 3 4 57 8 119
11 61 2 115 7 119 10 8 8 8 8 -239 12 -106 1 -193 6 -193 10 0 12 49 22 72 14
11 -3 23 -2 27 4 7 11 32 15 71 12 22 -1 23 -2 6 -9 -34 -13 -3 -19 54 -11 47
7 108 13 205 20 50 4 -209 35 -282 34 -46 0 -83 3 -83 7 0 4 13 17 30 29 53
38 148 166 194 264 99 207 144 357 206 681 15 82 27 141 40 200 6 30 8 93 5
155 -11 190 -17 241 -51 410 -9 41 -17 87 -19 103 -6 47 -26 97 -66 167 -22
37 -39 72 -39 78 0 21 -126 198 -177 249 -29 29 -53 55 -53 58 0 3 12 5 28 6
15 0 21 3 15 6 -7 2 -13 9 -13 15 0 6 7 7 16 4 18 -7 70 21 60 32 -8 8 85 102
101 102 7 0 17 -9 23 -20 10 -18 7 -22 -19 -33 -24 -10 -28 -16 -19 -25 9 -9
9 -12 0 -12 -7 0 -12 -7 -12 -15 0 -9 -6 -15 -12 -14 -27 3 -59 -14 -54 -28 5
-11 0 -13 -17 -8 -21 6 -21 5 -4 -9 16 -12 16 -17 6 -35 -21 -33 0 -38 30 -6
15 17 45 45 65 63 20 18 36 39 36 48 0 8 9 24 20 36 11 12 20 26 20 30 0 5
-27 34 -60 65 -33 32 -60 63 -60 69 0 7 -6 15 -12 17 -10 4 -10 7 -1 14 18 13
60 141 68 208 4 30 11 58 16 60 4 3 6 12 3 20 -6 15 30 338 47 415 6 28 8 59
4 68 -7 16 -7 65 0 103 6 28 -14 150 -30 192 -20 50 -19 60 5 52 27 -9 25 3
-5 31 -24 22 -36 62 -15 49 6 -4 8 -10 5 -15 -3 -5 -1 -11 5 -15 16 -10 12 13
-14 63 -13 26 -33 80 -44 121 -12 40 -29 85 -39 100 -10 14 -18 31 -19 36 -2
24 -25 65 -73 128 -28 37 -46 67 -41 67 5 0 26 -9 47 -21 25 -14 31 -15 18 -4
-11 9 -42 28 -69 42 -28 14 -74 51 -104 82 -56 58 -105 90 -259 167 -51 25
-91 50 -88 54 6 10 7 10 -165 50 -74 17 -150 38 -168 46 -18 8 -47 14 -65 14
-18 0 -50 5 -72 11 -22 6 -150 13 -285 16 -365 7 -1161 9 -1166 2z m671 -41
c160 -1 349 -5 420 -10 72 -4 176 -8 233 -10 56 -1 102 -6 102 -11 0 -5 6 -7
13 -4 6 2 30 -2 51 -10 28 -9 42 -10 46 -3 5 8 18 5 42 -8 19 -11 46 -19 60
-19 14 0 83 -17 154 -38 206 -60 338 -138 472 -280 45 -47 94 -107 109 -133
15 -26 42 -68 60 -94 47 -68 123 -305 123 -379 l-1 -34 -16 35 c-8 19 -15 43
-15 53 0 9 -3 17 -8 17 -5 0 -12 16 -16 35 -3 19 -11 35 -16 35 -6 0 -8 7 -4
15 3 9 0 15 -9 15 -19 0 -19 -5 5 -69 12 -29 19 -61 18 -70 -2 -9 -16 16 -32
56 -15 40 -25 76 -22 81 3 5 -3 17 -14 27 -13 11 -18 25 -14 37 3 10 1 18 -5
18 -6 0 -11 5 -11 11 0 27 -197 194 -292 247 -18 10 -63 35 -99 55 -64 36
-179 81 -179 71 0 -3 51 -30 113 -60 141 -68 201 -102 206 -116 6 -17 64 -67
86 -74 30 -9 85 -65 85 -86 0 -10 5 -18 10 -18 6 0 10 -8 10 -19 0 -10 7 -24
16 -32 30 -25 143 -273 130 -287 -3 -2 -20 29 -39 69 -54 118 -159 270 -235
339 -130 118 -375 268 -515 316 -144 49 -295 72 -497 75 -54 1 -1119 -22
-1172 -25 -79 -4 -76 4 41 120 61 61 111 116 111 123 0 6 6 21 13 32 11 19 18
21 102 15 50 -3 221 -7 380 -8z m-625 -304 c41 -2 345 -4 675 -6 493 -3 621
-7 718 -21 64 -9 125 -21 135 -25 9 -5 51 -17 92 -27 98 -23 271 -100 362
-161 40 -27 114 -89 164 -139 76 -76 99 -106 142 -191 28 -56 72 -158 96 -228
57 -159 69 -224 80 -422 l6 -91 -66 35 c-63 33 -68 34 -98 20 -38 -17 -62 -13
-69 13 -3 10 -12 19 -20 19 -8 0 -17 9 -20 20 -4 17 -11 19 -39 13 -18 -3 -42
-13 -53 -21 -19 -13 -18 -14 9 -7 26 5 28 4 17 -9 -12 -14 -10 -16 8 -16 11 0
20 -6 19 -12 -2 -9 7 -12 27 -10 24 3 28 1 18 -9 -30 -30 2 -33 88 -7 32 9 44
7 93 -15 61 -28 71 -50 36 -82 -13 -12 -18 -25 -14 -38 7 -22 -12 -64 -41 -89
-11 -10 -15 -17 -8 -18 6 0 15 5 18 10 3 6 14 10 23 10 13 0 13 -2 -4 -15 -10
-8 -26 -15 -36 -15 -9 0 -18 -4 -20 -8 -5 -12 -98 -64 -98 -55 0 4 14 17 30
28 16 11 30 23 30 28 0 4 7 7 15 7 8 0 15 7 15 15 0 12 -7 14 -27 9 -36 -9
-40 -13 -23 -24 8 -6 12 -10 8 -10 -5 0 -9 1 -11 3 -2 1 -11 -6 -21 -15 -23
-23 -39 -23 -61 2 -35 39 -36 19 -1 -21 19 -23 33 -46 30 -50 -10 -17 15 -9
43 14 15 12 41 28 56 35 25 11 32 10 54 -8 14 -11 34 -20 44 -20 27 0 24 -30
-15 -146 -55 -165 -112 -265 -168 -295 -22 -12 -18 13 7 41 27 30 9 24 -36
-12 -42 -34 -50 -49 -20 -41 25 6 35 -11 21 -37 -12 -23 -45 -24 -45 -2 0 7
-11 22 -25 32 -25 19 -25 19 -5 34 11 8 28 13 38 10 11 -4 17 0 17 10 0 9 4
16 9 16 5 0 16 16 25 35 9 19 21 37 26 40 18 11 10 26 -10 20 -16 -5 -20 -2
-20 14 0 12 -4 21 -9 21 -6 0 3 14 19 32 16 17 28 34 25 36 -9 9 -134 -105
-158 -145 -16 -25 2 -12 47 35 29 29 46 41 46 31 0 -16 -67 -89 -82 -89 -13 0
-50 21 -65 36 -7 7 -18 14 -25 16 -10 4 -10 8 1 21 14 18 36 24 26 7 -12 -20
12 -9 36 16 13 14 41 35 61 47 21 11 38 24 38 28 0 8 -63 -22 -85 -41 -10 -9
-16 -7 -24 7 -9 17 -11 17 -33 -6 -13 -13 -18 -21 -11 -17 16 8 44 -4 37 -16
-4 -7 -9 -6 -14 1 -5 8 -14 6 -31 -8 -24 -19 -24 -19 -68 6 -42 23 -79 25 -66
3 4 -6 10 -8 15 -5 11 7 60 -15 60 -26 0 -5 12 -15 28 -23 53 -28 75 -56 68
-88 -5 -24 0 -36 22 -59 15 -16 34 -29 42 -29 8 0 4 -6 -10 -13 -18 -9 -24
-20 -22 -36 2 -12 -2 -30 -10 -38 -11 -15 -11 -16 5 -10 23 9 22 -5 -3 -21
-11 -7 -20 -18 -20 -25 0 -15 -61 -47 -90 -47 -29 0 -24 -24 8 -41 111 -57
300 -228 341 -306 23 -46 13 -61 -26 -36 -17 11 -26 12 -43 3 -16 -9 -25 -9
-33 -1 -19 19 -87 11 -87 -10 0 -5 18 -12 40 -15 48 -8 56 -17 34 -39 -10 -9
-18 -31 -18 -49 -2 -25 -12 -41 -46 -72 -25 -21 -47 -43 -49 -48 -2 -6 -14
-20 -26 -31 -24 -25 -85 -24 -85 2 0 8 -4 11 -10 8 -5 -3 -10 -2 -10 4 0 5 4
11 10 13 10 3 71 56 169 145 70 65 36 50 -54 -22 -83 -67 -141 -91 -71 -30 22
19 37 35 33 35 -13 0 -57 -24 -57 -31 0 -4 -8 -10 -17 -13 -10 -3 -1 9 20 28
21 19 34 36 30 38 -4 3 -3 4 3 2 7 -1 29 14 50 33 32 29 35 34 15 28 -16 -5
-26 -3 -32 6 -6 10 -9 10 -9 2 0 -15 -193 -204 -221 -217 -14 -6 -23 -5 -32 4
-10 10 -9 12 3 8 9 -3 31 7 50 23 19 16 30 29 23 29 -6 0 -15 -4 -18 -10 -3
-5 -16 -15 -28 -21 -12 -6 1 10 28 35 28 25 45 45 39 46 -20 0 -139 -113 -135
-130 7 -33 3 -72 -9 -80 -6 -4 -36 -8 -66 -9 -64 -1 -71 15 -21 44 17 10 61
50 97 88 40 42 82 77 110 89 25 11 52 24 60 29 58 36 78 51 103 76 22 22 29
25 36 14 7 -11 13 -11 32 4 18 13 19 16 5 11 -10 -4 -27 -4 -38 0 -17 5 -13
12 32 55 29 28 50 53 47 56 -3 3 -23 -12 -45 -33 -62 -62 -101 -87 -138 -90
-19 -1 -34 2 -34 7 0 14 -28 11 -33 -3 -2 -7 -8 -10 -12 -6 -4 4 -2 16 5 25 7
10 -15 -11 -48 -47 -34 -35 -64 -61 -68 -57 -7 6 58 81 114 131 13 12 35 33
50 49 14 15 30 27 35 27 6 0 0 -12 -14 -27 l-24 -27 31 22 c17 11 37 29 45 39
13 16 12 17 -4 4 -9 -8 -20 -11 -23 -8 -3 3 18 24 46 46 29 23 48 41 43 41 -4
0 -37 -23 -72 -50 -36 -28 -68 -50 -73 -50 -17 0 -7 20 17 36 14 9 23 19 20
22 -3 3 -14 -3 -25 -13 -24 -22 -27 -9 -3 17 9 10 11 18 6 18 -6 0 -16 -6 -23
-14 -6 -8 -17 -13 -24 -10 -9 3 -13 -3 -13 -20 0 -14 4 -23 9 -20 7 4 8 -6 3
-27 -8 -38 -42 -79 -83 -100 -15 -7 -38 -22 -51 -31 -34 -26 -38 -14 -7 23 15
17 25 34 22 36 -6 6 -60 -23 -75 -41 -24 -29 -29 -17 -10 21 10 20 16 39 14
42 -3 2 -22 -12 -43 -32 -21 -20 -44 -37 -52 -37 -15 1 22 37 75 73 14 11 24
21 21 24 -3 3 -19 -5 -36 -17 -34 -24 -51 -20 -29 6 13 16 12 16 -6 6 -32 -17
-54 -49 -43 -60 6 -6 6 -12 -1 -16 -6 -4 -11 -2 -11 4 0 6 -4 9 -9 5 -5 -3
-13 0 -16 6 -8 12 34 61 46 53 4 -2 13 5 19 17 11 19 10 20 -12 14 -18 -5 -13
3 22 35 44 40 133 93 142 85 10 -10 98 -15 98 -5 0 5 -11 10 -25 10 -27 0 -34
14 -11 23 8 3 20 15 26 26 8 17 8 19 -4 15 -8 -3 -25 0 -38 7 -13 7 -37 14
-55 15 -18 2 -42 8 -54 15 -22 11 -22 12 -4 25 10 8 14 14 9 14 -6 0 -15 -5
-22 -12 -6 -6 -15 -9 -18 -5 -4 4 7 20 24 37 18 17 32 33 32 35 0 8 -38 -13
-45 -25 -3 -6 -14 -10 -23 -10 -14 1 -13 4 7 20 13 11 19 20 13 20 -19 0 -58
-41 -44 -46 22 -10 13 -20 -59 -68 -84 -56 -101 -57 -24 0 58 41 89 81 38 49
l-28 -18 19 21 c35 40 10 45 -28 6 l-39 -39 32 45 c26 37 37 45 64 45 23 0 32
5 32 17 0 10 6 23 13 30 25 25 11 29 -18 5 -28 -24 -32 -25 -58 -11 -15 7 -33
14 -40 14 -9 0 -11 7 -6 23 4 12 9 24 13 27 3 3 13 14 21 25 15 19 15 19 -10
2 -14 -9 -31 -19 -37 -22 -78 -30 -86 -30 -78 2 5 22 4 25 -8 15 -8 -7 -18 -8
-22 -4 -5 4 -5 2 -1 -5 3 -6 2 -14 -4 -18 -27 -17 -19 34 19 117 23 50 40 92
38 95 -2 2 -20 -28 -40 -66 -47 -90 -60 -111 -70 -111 -5 0 -6 8 -2 18 4 9 10
26 13 37 4 17 2 16 -15 -5 -11 -14 -23 -32 -26 -40 -3 -9 -6 -5 -6 10 0 14 8
45 19 69 11 24 19 46 16 48 -4 5 -41 -57 -63 -106 -15 -36 -16 -36 -23 -11 -8
24 -8 24 -9 3 -1 -16 -7 -23 -21 -23 -11 0 -21 3 -21 8 -7 45 -6 62 7 73 8 6
14 17 14 24 0 7 12 34 27 61 15 27 20 44 12 37 -8 -7 -26 -36 -40 -65 -13 -29
-26 -55 -30 -58 -3 -3 -8 -13 -12 -22 -11 -30 -27 -20 -20 12 3 19 1 30 -6 30
-6 0 -11 -3 -11 -7 0 -5 -4 -14 -9 -22 -7 -11 -13 -10 -35 4 -26 17 -33 42
-18 61 11 13 33 64 27 64 -3 0 -16 -22 -30 -49 -25 -50 -25 -50 -52 -36 -64
33 -58 7 7 -33 28 -17 53 -38 56 -46 6 -16 -32 -86 -46 -86 -5 0 -19 -10 -30
-22 l-21 -23 -5 22 c-6 21 -8 21 -30 7 -22 -15 -23 -15 -30 10 -3 14 -3 37 0
51 10 39 -10 30 -36 -17 -26 -47 -45 -59 -44 -27 1 12 -6 24 -14 26 -13 4 -13
3 0 -7 11 -9 12 -13 3 -17 -7 -2 -13 -11 -13 -18 0 -21 -21 -30 -32 -14 -7 10
-7 7 -3 -8 7 -24 -1 -28 -23 -15 -10 7 -9 15 3 40 9 17 20 34 26 37 15 10 71
96 66 101 -3 3 -18 -16 -33 -41 -17 -30 -45 -58 -76 -77 -26 -16 -52 -37 -57
-46 -9 -15 -12 -15 -38 4 -15 11 -34 24 -42 29 -16 9 -12 0 21 -47 10 -14 18
-30 18 -35 0 -16 -50 -66 -68 -68 -9 0 -23 -5 -31 -9 -8 -5 -16 -4 -21 4 -5 9
-9 9 -14 1 -11 -18 -26 -13 -20 7 5 15 4 15 -10 -2 -8 -10 -20 -15 -26 -11 -6
4 -20 -2 -31 -14 -10 -11 -25 -18 -33 -15 -8 3 -17 1 -21 -5 -3 -6 1 -11 9
-11 13 0 14 -5 5 -27 l-10 -28 23 22 c24 22 108 32 108 12 0 -5 -6 -9 -14 -9
-7 0 -20 -7 -27 -17 -13 -15 -12 -15 16 0 17 9 43 25 60 36 23 16 32 18 44 8
12 -9 13 -9 7 1 -4 6 -5 12 -2 12 2 0 12 3 20 6 12 5 15 2 9 -12 -4 -12 -3
-15 6 -10 7 5 10 14 8 21 -5 12 58 85 73 85 4 0 10 -7 13 -14 4 -10 1 -13 -9
-9 -7 3 -15 0 -15 -6 -5 -39 -18 -56 -117 -155 -80 -80 -98 -93 -104 -79 -6
17 -7 17 -7 1 -1 -27 -29 -21 -81 17 -29 21 -51 31 -55 25 -13 -22 -56 -10
-73 20 -14 25 -32 40 -32 26 0 -22 25 -66 36 -62 7 3 14 0 16 -5 2 -6 17 -12
33 -13 34 -4 75 -16 75 -23 0 -3 -46 -54 -102 -115 -57 -61 -124 -133 -149
-161 -27 -29 -51 -47 -57 -43 -19 11 21 74 90 144 68 67 73 80 14 33 -22 -17
-44 -27 -55 -24 -18 4 -36 -11 -36 -31 0 -5 -6 -11 -14 -14 -8 -3 -11 0 -7 7
4 6 1 11 -7 11 -24 0 -12 42 16 57 15 8 31 12 35 9 4 -3 14 -1 22 4 12 7 9 15
-15 41 -17 18 -25 33 -19 36 26 9 106 65 101 70 -3 3 -18 -4 -34 -15 -19 -13
-46 -20 -86 -21 -34 0 -68 -7 -80 -16 -12 -8 -34 -15 -49 -15 -33 0 -81 17
-75 28 3 4 1 31 -4 60 -13 72 1 112 47 135 19 9 39 17 45 17 5 0 27 11 49 25
22 14 40 21 40 15 0 -5 -3 -10 -7 -10 -5 -1 -21 -11 -37 -25 -23 -18 -25 -23
-11 -22 10 1 34 19 54 40 29 32 36 36 43 23 7 -12 1 -25 -21 -49 -49 -51 -36
-59 17 -10 7 7 26 20 42 30 17 9 30 21 30 26 0 4 -5 5 -10 2 -11 -7 -40 18
-40 34 0 6 -6 11 -12 11 -10 0 -9 3 1 9 7 5 15 26 18 47 2 22 8 43 14 48 13
14 11 26 -4 26 -7 0 -27 -15 -45 -34 -31 -33 -91 -71 -99 -62 -2 2 12 17 31
34 l34 30 -23 12 c-13 7 -21 18 -18 26 3 8 1 14 -5 14 -6 0 -12 -5 -14 -12 -3
-7 -10 -8 -17 -4 -9 6 -7 14 11 34 23 26 23 26 -11 -2 -26 -21 -36 -24 -42
-14 -15 24 107 178 142 178 29 0 31 17 3 24 -28 7 -47 0 -38 -15 3 -5 -15 -30
-40 -56 -25 -25 -46 -51 -46 -56 0 -5 -9 -7 -20 -4 -11 3 -23 1 -26 -4 -7 -11
-24 -12 -24 -1 0 5 33 41 73 80 77 76 82 99 7 32 -53 -46 -67 -51 -43 -12 l17
27 -22 -19 c-12 -10 -20 -28 -19 -39 1 -11 -3 -21 -8 -24 -7 -2 -11 24 -12 69
-1 40 -2 116 -3 170 -2 99 2 118 25 118 17 0 25 23 14 41 -20 31 -10 57 23 65
18 3 39 15 46 25 10 15 22 18 53 14 47 -6 49 4 9 33 -28 21 -43 72 -21 72 5 0
11 9 14 20 3 11 18 25 34 31 23 9 34 7 65 -10 20 -12 41 -21 46 -21 6 0 44 39
87 88 42 48 87 93 98 99 19 11 20 13 4 13 -32 0 -55 -19 -112 -90 -31 -39 -61
-68 -66 -64 -6 4 -6 11 2 20 15 19 4 18 -27 -2 -13 -9 -26 -15 -29 -13 -7 8
59 85 82 96 31 15 29 7 -4 -22 -16 -13 -25 -27 -20 -31 10 -11 104 97 132 152
19 37 20 44 7 42 -9 -2 -19 -15 -23 -30 -10 -37 -48 -98 -61 -98 -6 0 -7 8 -4
17 6 16 6 16 -12 0 -19 -17 -52 -14 -52 4 0 5 9 18 20 29 25 25 23 25 -41 0
-56 -22 -70 -20 -48 6 13 16 12 16 -8 5 -13 -6 -23 -16 -23 -21 0 -6 -11 -10
-25 -10 -14 0 -25 5 -25 12 0 17 61 78 78 78 7 0 10 5 7 10 -3 6 -13 10 -21
10 -19 0 -104 -79 -104 -96 0 -7 12 -22 27 -34 20 -15 35 -19 63 -15 27 4 41
1 50 -10 23 -28 -3 -62 -77 -98 -80 -39 -92 -54 -75 -99 12 -32 12 -34 -30
-71 -25 -22 -51 -36 -63 -35 -20 3 -20 13 -26 663 -3 363 -10 701 -14 752 -9
99 1 132 34 117 9 -4 50 -9 91 -10z m-142 -1861 c-1 -84 -4 -153 -7 -153 -4 0
-13 9 -21 20 -8 11 -20 20 -27 20 -18 0 -16 15 2 30 9 7 13 15 10 18 -2 3 -13
-6 -24 -19 -16 -20 -21 -21 -35 -10 -22 19 -21 23 24 67 64 64 63 102 -5 149
-15 10 -17 16 -8 25 17 18 77 28 85 16 4 -6 7 -80 6 -163z m1410 -420 c-9 -10
-23 -31 -32 -48 -9 -16 -27 -48 -39 -70 -14 -25 -31 -41 -44 -43 -15 -2 -20
-8 -16 -18 3 -8 -4 -23 -16 -33 -29 -25 -26 -33 7 -15 15 7 37 14 50 14 18 0
22 4 17 19 -3 11 8 40 30 77 19 32 42 75 51 94 9 19 19 29 21 22 3 -7 -5 -29
-18 -50 -65 -108 -72 -126 -73 -196 -1 -59 -5 -71 -25 -87 -13 -10 -31 -19
-41 -19 -25 0 -54 49 -53 88 1 17 -3 32 -8 32 -22 0 -6 40 27 65 20 15 40 40
46 56 5 16 15 29 21 29 7 0 7 -4 -1 -12 -7 -7 -12 -16 -12 -21 0 -18 22 7 66
74 25 39 48 68 51 65 4 -3 -1 -14 -9 -23z m109 -35 c1 -13 5 -37 8 -55 3 -19
-1 -47 -10 -70 l-15 -38 21 25 c56 66 91 101 96 96 4 -3 11 -2 17 2 7 4 -1 -4
-16 -18 -16 -14 -28 -31 -28 -39 0 -11 5 -9 22 5 l22 19 -20 -27 c-10 -15 -28
-28 -39 -28 -11 -1 -15 -4 -9 -6 6 -3 -2 -19 -20 -39 -17 -19 -41 -53 -53 -77
-47 -93 -91 -188 -86 -188 2 0 -5 -15 -16 -34 -13 -21 -19 -41 -15 -52 4 -11
4 -16 -1 -12 -4 4 -14 -4 -22 -18 -16 -31 -17 -55 -2 -34 9 12 10 12 5 -3 -3
-10 -6 -27 -6 -38 0 -10 -7 -19 -15 -19 -9 0 -15 -10 -16 -27 -1 -16 -3 -39
-5 -53 -2 -14 -5 -50 -8 -81 -2 -31 -8 -99 -12 -150 -18 -216 0 -619 28 -619
6 0 7 10 4 23 -11 34 -17 207 -6 177 4 -14 8 -51 9 -82 1 -31 5 -68 11 -82 8
-21 6 -28 -11 -40 -13 -9 -16 -16 -10 -21 6 -3 11 -18 11 -33 0 -61 89 -330
113 -340 4 -2 21 -15 37 -29 23 -19 39 -24 72 -22 56 4 98 -7 154 -38 25 -14
48 -22 51 -19 6 6 -55 66 -67 66 -4 0 -20 11 -36 25 -39 34 -30 32 60 -15 42
-22 86 -40 96 -40 10 0 23 -8 29 -17 7 -12 13 -15 20 -8 7 7 -9 24 -48 53 -32
23 -66 51 -76 62 -16 18 -16 20 -1 26 21 8 35 -4 17 -15 -21 -13 5 -24 55 -23
25 1 42 -3 39 -8 -7 -12 56 -27 118 -28 27 -1 67 -7 90 -13 23 -7 53 -13 67
-16 51 -7 75 -12 75 -13 0 -1 21 -3 48 -5 94 -5 34 20 -70 29 -77 7 -141 32
-125 48 6 6 22 6 43 0 39 -10 109 -4 109 9 0 6 -17 10 -37 10 -99 1 -180 -2
-195 -7 -31 -9 -20 10 14 25 18 8 27 16 21 18 -6 2 -30 -5 -53 -17 -50 -25
-70 -17 -39 16 29 31 18 30 -37 -2 -49 -29 -56 -19 -23 28 29 40 14 50 -17 10
-26 -32 -58 -44 -48 -18 3 8 1 23 -5 33 -10 17 -11 16 -17 -4 -4 -15 -14 -23
-28 -23 -12 0 -26 -4 -32 -10 -16 -16 -78 7 -115 44 -58 57 -154 279 -108 250
17 -10 136 120 160 174 35 82 37 87 44 112 7 26 26 178 27 220 1 14 -2 50 -5
80 -4 30 -10 80 -13 110 -7 58 -59 216 -75 226 -14 8 -10 27 11 53 14 16 24
20 33 14 22 -18 57 -22 57 -7 0 13 -18 19 -47 15 -20 -3 -15 13 10 36 27 25
102 64 110 57 2 -3 25 7 51 21 26 14 46 21 46 14 0 -7 10 -9 28 -4 24 6 23 4
-13 -24 -99 -75 -194 -141 -204 -141 -26 0 -7 -22 40 -46 37 -18 59 -24 78
-18 14 4 39 6 54 5 39 -4 67 24 67 66 0 36 14 42 46 18 23 -18 56 -19 72 -3 9
9 17 7 34 -9 53 -49 109 -38 159 31 18 25 39 46 46 46 8 0 25 12 38 26 19 21
25 38 25 74 0 54 9 65 65 78 22 5 47 13 56 17 37 15 118 -140 173 -330 33
-115 56 -221 56 -254 -1 -36 -22 22 -37 102 -15 81 -32 131 -33 96 0 -18 44
-254 60 -326 15 -62 12 -232 -5 -320 -8 -43 -24 -125 -35 -181 -19 -100 -43
-170 -63 -183 -5 -4 -7 -11 -4 -16 4 -6 -2 -19 -13 -30 -10 -12 -25 -37 -34
-56 -42 -103 -202 -289 -260 -305 -18 -5 -46 -21 -62 -36 -91 -83 -99 -87
-254 -136 -250 -80 -493 -112 -835 -111 -104 1 -203 3 -220 5 -39 5 -531 20
-618 19 -38 -1 -71 -4 -74 -7 -4 -3 28 -6 70 -6 45 0 77 -4 77 -10 0 -6 -62
-10 -165 -10 -179 0 -182 0 -176 15 1 6 5 327 7 715 2 388 3 711 4 718 0 7 5
10 10 7 6 -3 10 -2 10 4 0 5 -5 11 -12 13 -12 4 -21 128 -9 128 3 0 4 128 3
285 l-4 285 49 -6 c26 -4 58 -15 70 -27 19 -17 26 -18 54 -8 39 13 39 13 39 1
0 -5 -15 -13 -32 -18 -29 -7 -33 -13 -35 -45 -3 -27 2 -42 18 -58 18 -18 19
-24 9 -49 -10 -25 -9 -32 10 -58 19 -26 26 -29 47 -21 13 5 39 11 56 14 68 10
117 23 129 32 17 13 78 25 78 15 0 -4 12 -20 27 -37 20 -23 35 -30 64 -30 23
0 41 5 43 12 6 15 42 17 51 4 7 -12 -22 -41 -41 -41 -19 0 -18 -19 2 -27 9 -3
28 6 48 26 28 27 36 30 58 22 27 -10 41 -5 51 22 3 9 13 17 21 17 26 0 66 23
66 37 0 7 8 13 18 13 16 0 17 -17 14 -252 -4 -294 -4 -612 0 -818 l3 -145 33
-3 c17 -2 32 -7 32 -11 0 -4 -14 -28 -31 -52 -73 -103 -199 -210 -199 -169 0
6 6 10 14 10 8 0 19 14 25 31 6 17 26 52 44 78 18 25 37 53 41 61 15 28 -64
-65 -96 -113 l-32 -49 -11 30 c-5 16 -18 40 -27 53 l-18 24 7 -30 c3 -16 15
-50 26 -74 21 -48 24 -42 -48 -86 -22 -13 -52 -27 -67 -30 -16 -4 -26 -11 -23
-15 8 -12 90 19 192 73 89 48 152 106 217 201 25 38 63 141 71 192 2 16 13 84
25 151 16 99 20 159 19 320 -1 109 -6 211 -11 227 -4 17 -4 32 0 35 8 7 8 24
-1 61 -3 14 -13 66 -23 115 -22 117 -69 218 -125 271 -24 22 -83 68 -130 102
-88 63 -120 92 -101 92 6 0 9 8 6 18 -4 10 -2 13 3 7 18 -22 84 -66 137 -91
40 -19 76 -48 121 -98 91 -100 118 -160 131 -296 10 -100 17 -86 11 20 -6 101
-19 135 -84 234 -18 27 -35 62 -38 78 -4 15 -11 28 -17 28 -6 0 -8 6 -5 13 20
47 19 51 -3 25 -19 -23 -26 -25 -44 -16 -12 6 -23 12 -25 14 -2 2 15 24 37 48
45 48 67 45 32 -4 -12 -17 -17 -30 -12 -30 5 0 14 12 21 26 10 23 24 26 27 6
0 -4 8 -23 16 -42 9 -19 18 -55 20 -80 5 -45 48 -133 48 -97 0 28 -31 170 -41
189 -5 9 -12 41 -15 70 -3 29 -17 71 -30 94 -19 32 -22 44 -13 50 8 4 19 -2
28 -16 9 -13 24 -33 34 -44 17 -21 17 -21 11 9 -3 17 -11 40 -17 53 -9 19 -8
25 3 32 8 6 20 10 25 10 6 0 3 -5 -5 -10 -10 -6 -11 -10 -2 -10 6 0 12 -9 12
-20 0 -11 5 -20 10 -20 6 0 10 -6 9 -12 -1 -7 0 -20 4 -28 5 -15 11 -39 26
-115 4 -22 17 -63 28 -92 12 -29 18 -55 15 -58 -4 -3 0 -10 8 -15 8 -5 11 -12
6 -17 -8 -8 -28 21 -32 45 -3 18 -12 27 -20 19 -4 -4 11 -46 32 -94 52 -118
60 -134 67 -127 7 8 -9 61 -28 90 -8 13 -15 31 -15 41 1 10 13 -6 28 -35 l28
-52 17 45 c13 37 14 50 4 66 -6 10 -15 19 -19 19 -5 0 -8 6 -8 14 0 8 -8 17
-17 20 -13 5 -14 9 -4 19 7 7 14 8 19 2 4 -6 18 -10 31 -10 21 0 32 14 74 95
27 52 59 125 71 162 13 37 26 71 29 75 4 3 7 15 7 25 0 26 15 22 17 -4z m381
-60 c14 -1 14 -1 6 -22 -3 -9 -11 -16 -16 -16 -5 0 -22 -9 -36 -21 -64 -49
-136 -99 -145 -99 -15 0 47 57 83 75 19 10 41 27 49 37 7 11 22 23 34 27 18 7
18 8 3 14 -12 5 -27 -4 -49 -27 -29 -30 -114 -90 -127 -89 -3 1 -16 -7 -30
-17 -14 -10 -34 -19 -45 -21 -12 -3 -21 -14 -23 -27 -2 -12 -8 -22 -13 -22 -5
0 -9 -7 -9 -16 0 -9 -17 -37 -37 -62 -33 -42 -34 -44 -7 -19 32 29 55 37 34
12 -8 -9 -9 -15 -2 -15 6 0 17 8 24 18 7 9 26 24 41 32 16 8 40 24 53 37 13
12 24 18 24 12 0 -5 -20 -24 -45 -41 -44 -31 -58 -62 -32 -71 9 -3 8 -8 -3
-23 -14 -18 -14 -18 3 -5 54 43 -2 -64 -77 -146 -42 -47 -56 -53 -56 -25 0 10
-7 27 -15 38 -8 10 -15 29 -15 40 0 19 29 123 47 164 3 8 7 22 8 31 2 23 61
104 92 129 16 12 64 39 108 60 44 21 89 46 100 54 11 9 29 13 40 10 11 -3 26
-6 33 -6z m-1328 -283 c-13 -14 -29 -25 -36 -25 -8 0 -11 -6 -7 -16 3 -8 12
-13 19 -10 23 9 16 -3 -23 -37 -20 -18 -43 -31 -50 -31 -7 1 -10 -2 -8 -7 7
-10 -64 -59 -84 -59 -7 0 7 18 33 41 25 22 46 46 46 52 0 6 -13 -2 -29 -17
-16 -15 -33 -29 -38 -29 -4 -1 -21 -17 -37 -34 -15 -18 -34 -33 -42 -33 -22 0
-17 9 24 47 20 19 30 32 22 28 -8 -3 5 12 29 34 24 23 49 41 57 41 7 0 21 11
32 25 12 14 26 23 34 20 8 -3 26 3 39 14 34 29 47 26 19 -4z m1200 -54 c0 -11
-32 -55 -71 -98 -105 -116 -215 -235 -241 -262 -13 -13 -17 -21 -11 -17 9 5
11 2 7 -9 -4 -9 -11 -14 -17 -12 -14 4 -42 -24 -64 -65 -9 -18 -18 -35 -18
-38 -17 -82 -28 -120 -33 -120 -4 0 -5 25 -4 55 2 30 7 55 12 55 15 0 19 41 4
47 -15 6 -11 78 6 98 6 7 7 15 3 18 -3 4 -1 7 6 7 7 0 9 -10 5 -27 l-6 -28 14
24 c7 14 43 45 80 70 71 49 132 108 187 181 27 36 128 138 139 140 1 0 2 -9 2
-19z m-182 -343 c65 -104 100 -326 72 -444 -16 -66 -58 -107 -162 -159 -61
-31 -69 -32 -77 -17 -5 9 -9 81 -9 160 -1 122 3 158 24 240 14 53 30 105 36
117 21 41 83 135 90 135 3 0 15 -15 26 -32z"/>
<path d="M9667 7280 c-27 -10 -61 -18 -77 -18 -17 1 -41 -10 -60 -25 -17 -15
-35 -27 -39 -27 -5 0 -23 -27 -41 -61 -25 -47 -36 -59 -48 -53 -43 17 -61 16
-86 -9 -21 -21 -31 -24 -70 -20 -43 5 -47 3 -95 -44 -28 -28 -51 -55 -51 -61
0 -6 16 -24 37 -41 l36 -30 -24 -51 c-16 -33 -32 -53 -47 -57 -26 -6 -88 -61
-78 -70 3 -3 15 2 25 11 16 14 23 15 41 6 16 -9 25 -9 36 1 20 17 17 28 -6 22
-24 -6 -27 12 -4 21 25 10 34 7 34 -11 0 -13 3 -14 12 -5 17 17 33 15 18 -3
-18 -22 -8 -27 23 -12 33 15 35 56 2 53 -11 -1 -26 -5 -32 -9 -6 -4 -14 -3
-18 2 -3 5 2 14 10 18 9 5 18 28 21 52 3 24 12 54 21 67 9 14 13 28 9 32 -7 6
-20 -9 -30 -33 -2 -5 -17 3 -32 18 l-29 28 24 20 c13 10 29 19 37 19 8 0 14 9
14 20 0 17 7 20 39 20 22 0 42 -4 45 -9 3 -5 14 -11 25 -14 14 -3 18 -1 14 9
-13 35 38 56 76 32 17 -10 23 -8 40 13 11 13 26 35 33 49 7 14 19 31 26 38 6
7 12 18 12 23 0 5 13 9 29 9 19 0 30 6 34 18 4 19 44 32 92 32 13 0 25 7 29
15 8 22 56 18 83 -7 19 -18 23 -19 23 -5 0 17 -48 47 -72 47 -7 -1 -35 -9 -61
-20z"/>
<path d="M9781 7199 c21 -23 29 -39 25 -54 -4 -17 1 -25 19 -33 13 -6 34 -30
45 -52 16 -32 25 -40 40 -36 11 4 29 8 39 11 11 3 29 8 40 10 12 2 34 13 49
24 15 10 44 22 64 26 31 6 41 3 62 -19 32 -31 33 -52 5 -67 -21 -11 -21 -11 8
-42 58 -63 58 -65 32 -94 l-24 -27 28 17 c15 10 27 13 27 8 0 -6 -8 -15 -19
-20 -10 -6 -26 -22 -36 -37 -17 -26 -17 -27 0 -20 10 4 28 0 42 -9 20 -14 23
-21 18 -48 -4 -18 -11 -36 -16 -41 -17 -18 -9 -26 11 -14 13 8 19 20 16 31 -5
22 29 83 38 68 4 -5 26 -13 50 -16 34 -5 53 -2 86 15 43 22 50 22 135 5 52
-11 70 -40 40 -65 -22 -18 -18 -39 10 -52 32 -14 32 -31 -1 -55 -22 -17 -25
-23 -16 -40 18 -32 42 -37 42 -8 0 13 8 41 17 61 17 35 17 36 -6 55 -18 15
-21 24 -16 49 8 36 -6 57 -51 76 -59 25 -94 26 -131 4 -44 -26 -59 -25 -104 6
-31 21 -41 24 -59 14 -12 -7 -19 -18 -16 -26 3 -8 1 -14 -4 -14 -14 0 -23 41
-11 53 19 19 12 44 -24 91 -31 41 -34 49 -28 94 5 47 4 50 -28 69 -56 34 -84
36 -116 9 -35 -29 -69 -40 -78 -26 -5 8 -14 5 -26 -9 -30 -32 -56 -27 -73 13
-8 19 -22 39 -33 44 -10 6 -25 30 -33 54 -13 34 -21 44 -42 46 l-27 3 30 -32z"/>
<path d="M9076 6859 c-20 -15 -34 -19 -54 -14 -78 19 -75 19 -131 -40 -49 -52
-55 -55 -70 -41 -10 9 -26 16 -37 16 -36 0 -144 -42 -153 -58 -11 -23 10 -102
31 -116 28 -17 33 2 11 42 -30 54 -18 77 47 91 71 15 87 14 110 -9 24 -24 40
-26 40 -5 0 10 10 15 30 15 27 0 29 2 24 30 -4 18 -1 36 6 45 16 19 69 19 94
0 26 -20 33 -19 39 6 3 11 19 25 36 32 17 6 31 15 31 19 0 15 -27 8 -54 -13z"/>
<path d="M9267 6524 c1 -170 4 -338 7 -374 6 -70 -2 -94 -26 -85 -12 5 -15 16
-11 48 4 35 2 39 -8 23 -6 -10 -13 -33 -14 -50 -3 -36 -25 -45 -62 -25 -20 11
-24 19 -19 42 7 32 -10 28 -24 -7 -8 -21 -8 -21 -18 4 l-9 24 -12 -22 c-13
-25 -47 -46 -61 -37 -7 4 -6 13 0 25 14 26 29 111 19 104 -5 -2 -11 -20 -15
-38 -3 -19 -14 -43 -23 -53 -9 -10 -20 -26 -24 -35 -8 -22 -40 -23 -57 -3 -9
11 -9 22 -1 46 13 38 13 39 3 39 -12 0 -32 -46 -32 -74 0 -13 12 -31 30 -44
17 -13 30 -26 30 -31 0 -4 -17 -27 -38 -50 -32 -36 -42 -41 -65 -36 -15 4 -27
11 -27 17 0 5 -4 6 -10 3 -5 -3 -10 -14 -10 -25 0 -19 19 -30 51 -30 24 0 24
-12 1 -33 -23 -21 -36 -21 -67 -1 -25 17 -33 48 -15 59 6 3 10 12 10 18 0 7
-10 1 -21 -13 -22 -26 -21 -19 6 45 20 46 2 34 -23 -16 -21 -41 -41 -43 -62
-7 -14 26 -13 31 13 78 16 27 26 50 24 50 -10 0 -67 -98 -67 -114 0 -26 42
-72 103 -113 28 -20 55 -41 59 -47 5 -7 17 -1 33 17 14 15 30 27 35 27 6 0 10
7 10 16 0 8 4 13 9 10 5 -3 8 0 7 7 0 7 23 41 53 75 40 46 59 61 73 56 12 -3
18 0 18 10 0 22 19 20 27 -1 4 -10 11 -22 15 -28 30 -36 57 -87 45 -82 -8 3
-20 0 -26 -6 -8 -8 -11 -8 -11 1 0 7 5 12 10 12 6 0 10 5 10 10 0 7 -7 7 -21
-1 -16 -8 -23 -8 -29 0 -4 7 -15 9 -25 4 -15 -5 -13 0 8 22 30 33 34 45 15 45
-20 0 -165 -152 -150 -157 7 -3 19 1 27 7 12 10 15 9 15 -3 0 -11 5 -14 17
-10 11 4 14 3 9 -5 -4 -7 -3 -12 3 -12 16 0 22 18 9 23 -10 4 -11 7 0 18 14
16 16 33 2 24 -5 -3 -10 -1 -10 4 0 6 4 11 9 11 14 0 33 -28 26 -39 -3 -6 0
-8 9 -5 11 4 13 0 9 -16 -5 -19 -3 -20 22 -14 15 4 36 15 47 26 10 10 23 16
28 13 5 -3 12 0 16 6 4 8 22 -6 50 -37 24 -27 44 -52 44 -56 0 -5 4 -8 9 -8
13 0 -3 52 -33 106 -14 25 -22 52 -19 61 5 12 1 14 -15 8 -14 -4 -22 -2 -22 5
0 6 4 9 9 6 11 -7 23 37 15 57 -3 8 -1 18 4 21 6 3 13 -6 17 -21 4 -16 2 -29
-6 -33 -6 -4 -8 -13 -5 -19 12 -19 24 -12 31 17 8 34 32 72 45 72 6 0 10 -27
10 -60 0 -58 -15 -83 -23 -37 -3 20 -4 21 -12 3 -6 -13 -4 -22 6 -30 19 -14
42 -116 33 -150 -6 -24 -4 -26 27 -27 102 -4 256 18 303 43 27 14 146 107 167
130 9 10 21 18 28 18 6 0 11 5 11 10 0 17 14 10 34 -16 14 -20 15 -29 7 -37
-9 -9 -14 -9 -20 1 -7 11 -10 10 -14 -3 -4 -9 -3 -13 3 -10 6 3 10 1 10 -5 0
-6 10 -4 24 5 23 15 25 15 31 -5 3 -11 11 -17 17 -14 5 4 -1 17 -15 33 -25 26
-57 80 -69 116 -6 19 -6 19 -13 -2 -4 -13 -11 -23 -16 -23 -5 0 -5 8 -2 18 5
13 4 15 -8 7 -8 -5 -6 -2 5 8 10 10 24 16 29 14 6 -2 26 -30 44 -63 39 -71 42
-65 7 17 -27 65 -27 90 1 42 14 -24 15 -24 11 -5 -3 15 2 26 14 32 18 10 42
46 56 83 3 9 13 17 20 17 18 0 18 -1 -10 -50 -13 -24 -22 -48 -20 -55 3 -6 -2
-23 -9 -38 -16 -30 -13 -110 3 -115 15 -5 12 -29 -6 -58 -9 -13 -13 -28 -9
-32 4 -4 12 1 19 11 6 10 34 51 63 90 28 40 66 96 82 125 17 28 35 52 39 52 4
0 18 -9 32 -20 14 -11 31 -20 39 -20 7 0 1 -10 -15 -22 -16 -13 -37 -32 -46
-43 -10 -11 -17 -15 -18 -10 0 6 14 25 31 43 16 17 26 32 20 32 -16 0 -71 -76
-61 -86 5 -5 3 -17 -6 -28 -7 -11 -17 -16 -21 -12 -4 4 -1 11 7 16 8 5 11 13
6 17 -4 4 -14 -1 -22 -11 -11 -15 -14 -16 -14 -5 0 9 11 26 25 39 27 26 69 90
57 89 -10 0 -105 -125 -114 -149 -4 -11 -3 -20 2 -20 6 0 10 5 10 10 0 6 7 10
15 10 8 0 15 -5 15 -11 0 -15 42 -48 62 -49 9 0 20 4 23 10 7 11 96 11 140 0
17 -5 43 -11 58 -14 l28 -7 -22 -18 c-12 -9 -20 -23 -18 -29 6 -18 46 13 65
50 15 29 15 30 -5 23 -28 -8 -27 10 1 29 31 22 15 31 -19 10 -18 -12 -10 2 27
39 30 31 50 57 44 57 -6 0 -19 -9 -29 -20 -10 -11 -22 -17 -26 -14 -5 3 -14 0
-21 -5 -75 -61 -120 -82 -133 -60 -4 6 -13 8 -21 5 -24 -9 -15 10 16 34 17 13
30 28 30 33 0 12 100 107 113 107 18 0 1 -21 -68 -85 -70 -64 -87 -85 -67 -85
4 0 37 25 72 55 36 30 80 62 98 71 38 18 102 72 102 86 0 5 -17 -4 -37 -21
-43 -36 -57 -38 -75 -13 -7 10 -25 22 -40 26 -16 3 -28 11 -28 16 0 6 -7 10
-15 10 -8 0 -15 9 -15 20 0 29 -17 24 -35 -9 -8 -17 -24 -36 -36 -44 -24 -17
-59 -11 -59 10 0 13 -3 13 -15 3 -28 -23 -17 10 21 64 l36 51 -51 -53 -50 -54
-17 34 c-15 33 -15 37 6 77 26 52 21 64 -10 22 -12 -17 -27 -31 -34 -31 -8 0
-19 -7 -26 -15 -22 -27 -22 -9 0 34 28 56 18 52 -21 -9 -38 -59 -62 -62 -69
-10 l-5 35 -17 -25 c-14 -18 -21 -21 -30 -12 -8 8 -5 23 15 63 34 65 34 73 -3
29 -36 -44 -55 -32 -35 23 7 20 10 37 6 37 -4 0 -11 30 -17 68 -6 37 -21 87
-32 111 -25 50 -23 65 2 26 23 -35 46 -102 46 -133 0 -47 10 -16 11 34 2 56
-39 150 -69 161 -19 7 -85 58 -137 107 -54 52 -146 78 -295 84 l-125 4 2 -308z
m292 232 c68 -15 183 -120 221 -202 38 -80 39 -132 5 -191 -14 -23 -21 -43
-15 -43 5 0 17 18 26 40 9 23 19 38 23 35 11 -12 7 -155 -5 -155 -19 0 -25
-30 -9 -36 24 -10 19 -94 -8 -135 -20 -30 -31 -35 -87 -45 -36 -7 -84 -12
-108 -13 -41 -1 -89 -17 -124 -43 -9 -7 -20 -10 -23 -6 -3 3 -8 100 -11 214
-11 502 -13 560 -20 578 -7 18 -3 19 52 13 32 -3 70 -8 83 -11z"/>
<path d="M10614 6520 c-15 -15 -72 -30 -76 -19 -2 4 -23 -11 -47 -34 -25 -23
-72 -60 -105 -82 -32 -22 -61 -45 -63 -51 -6 -18 44 -4 63 17 9 10 23 19 29
19 7 0 20 12 30 26 10 16 22 23 32 20 10 -4 27 5 44 24 16 16 31 30 34 30 17
0 -4 -27 -72 -96 -65 -64 -71 -74 -39 -54 22 13 36 18 32 11 -6 -9 1 -11 31
-6 l38 7 -42 -27 c-24 -14 -43 -30 -43 -36 0 -14 7 -11 27 10 10 10 29 21 42
24 21 5 19 1 -13 -25 -48 -39 -39 -49 14 -14 22 14 46 26 54 26 22 0 38 -27
31 -51 -5 -15 -3 -20 6 -17 8 3 15 12 17 21 4 19 -64 97 -84 97 -8 0 -14 5
-14 10 0 6 -7 10 -15 10 -8 0 -15 4 -15 8 0 16 67 67 83 64 19 -4 22 9 6 25
-8 8 -3 16 20 27 17 9 31 23 31 31 0 17 -21 20 -36 5z"/>
<path d="M9551 3676 c-1 -37 -8 -94 -16 -127 -8 -32 -14 -62 -13 -66 1 -4 -3
-18 -10 -29 -6 -12 -8 -24 -5 -28 3 -3 1 -6 -6 -6 -7 0 -11 -6 -8 -12 7 -20
-13 -50 -28 -44 -14 5 -85 -65 -85 -84 0 -18 12 -11 51 32 36 39 39 41 39 19
0 -16 -20 -43 -59 -81 -53 -51 -64 -70 -41 -70 4 0 33 20 64 45 32 25 67 45
77 45 10 0 20 4 23 9 3 5 18 12 33 16 15 3 31 12 35 18 5 8 11 8 16 2 4 -5 23
-18 42 -27 19 -10 59 -31 89 -48 53 -30 101 -39 101 -20 0 6 -12 10 -27 10
-15 0 -48 17 -79 40 -29 22 -60 40 -69 40 -9 0 -18 8 -21 18 -3 9 -12 31 -19
47 -12 26 -14 27 -14 8 -1 -27 -19 -40 -27 -18 -5 12 -9 13 -20 4 -12 -10 -14
-4 -10 42 14 148 14 227 1 279 l-13 55 -1 -69z"/>
<path d="M12450 7930 c-102 -3 -180 -8 -175 -12 17 -11 235 -29 331 -28 160 3
234 11 234 27 0 8 -4 11 -10 8 -5 -3 -10 -1 -10 4 0 11 -20 11 -370 1z"/>
<path d="M12650 7225 c-61 -15 -166 -60 -220 -94 -28 -18 -30 -21 -10 -16 15
5 3 -7 -30 -30 -30 -21 -65 -47 -78 -59 -22 -20 -23 -20 -16 -1 4 11 16 28 27
38 11 9 16 17 10 17 -26 0 -154 -159 -208 -260 -86 -160 -118 -292 -118 -490
0 -117 3 -147 26 -227 15 -51 26 -96 25 -100 -2 -8 60 -134 117 -238 15 -27
53 -99 85 -160 59 -115 66 -126 203 -377 143 -261 131 -225 112 -342 -9 -55
-23 -107 -30 -115 -10 -10 -11 -18 -2 -31 8 -14 7 -32 -2 -72 -15 -63 -16 -91
-4 -138 9 -31 10 -33 17 -13 6 20 13 22 99 22 51 1 114 3 141 6 41 5 48 3 42
-10 -6 -16 13 -55 27 -55 5 0 6 9 2 20 -6 17 -3 19 17 11 13 -5 22 -14 20 -20
-1 -6 11 -11 27 -11 16 0 36 -3 45 -6 9 -3 16 -1 16 6 0 6 -4 8 -10 5 -5 -3
-10 -2 -10 2 0 5 23 10 51 11 28 1 59 7 69 12 21 11 109 2 91 -9 -6 -4 24 -6
67 -4 42 1 83 2 90 3 7 0 11 4 7 10 -3 5 -12 7 -20 3 -8 -3 -15 0 -15 6 0 6
14 11 31 11 22 0 30 -4 26 -13 -4 -11 12 -13 86 -9 88 4 105 7 96 16 -9 9
-159 12 -159 3 0 -4 -7 -2 -15 7 -10 10 -26 13 -44 10 -16 -3 -31 -2 -35 4 -3
6 9 12 29 14 19 2 36 0 38 -5 1 -4 25 -3 52 3 27 6 60 8 72 5 13 -3 23 -2 23
2 0 5 26 6 57 5 32 -2 55 -1 51 4 -5 4 -24 7 -43 6 -19 -1 -37 3 -40 8 -3 5
-52 6 -113 3 -200 -10 -193 -14 -216 140 -10 61 -23 145 -30 184 -12 70 -12
75 13 130 14 32 42 87 62 123 63 111 203 394 214 430 4 14 22 54 40 90 18 36
47 99 65 140 17 41 38 91 46 110 9 19 19 44 24 55 20 45 69 225 81 295 30 190
-37 429 -177 626 -52 74 -165 181 -214 202 -90 38 -140 65 -140 74 0 6 -7 8
-15 4 -8 -3 -15 -2 -15 2 0 4 -35 16 -77 25 -96 21 -349 22 -433 2z m467 -65
c139 -40 269 -106 260 -133 -1 -5 -22 -16 -46 -23 -38 -11 -46 -10 -83 9 -23
12 -67 46 -100 75 -32 28 -62 52 -66 52 -11 -1 98 -97 147 -130 28 -19 39 -31
30 -35 -8 -2 -116 -34 -242 -69 -125 -36 -271 -84 -325 -106 l-97 -41 -20 27
c-55 75 -180 214 -183 204 -3 -7 12 -28 31 -48 47 -50 147 -175 147 -186 0 -4
-7 -6 -15 -2 -12 4 -13 2 -3 -13 9 -15 7 -24 -11 -50 -48 -67 -110 -227 -151
-388 -10 -38 -25 -54 -147 -153 -77 -62 -140 -107 -145 -102 -5 5 -10 24 -11
43 -2 19 -9 45 -17 59 -21 35 -19 340 2 340 3 0 11 22 17 49 18 84 68 208 121
301 41 72 56 90 75 90 12 0 28 -7 35 -15 6 -8 58 -46 113 -85 77 -53 91 -60
58 -30 -24 22 -80 65 -123 96 -43 30 -76 59 -73 64 13 21 171 124 237 154 198
91 380 105 585 46z m344 -210 c21 -22 40 -53 44 -70 4 -16 11 -30 16 -30 6 0
7 -5 3 -12 -4 -6 -3 -8 4 -4 6 3 21 -8 33 -26 15 -22 17 -28 6 -19 -19 15 -22
9 -6 -20 5 -11 14 -17 18 -14 12 7 36 -24 26 -33 -4 -4 -10 -1 -12 6 -3 6 -9
12 -15 12 -6 0 -6 -6 2 -15 7 -8 10 -15 6 -15 -11 0 23 -57 37 -63 34 -13 50
-183 36 -390 -8 -119 -19 -136 -58 -89 -35 41 -131 233 -170 338 -26 70 -91
237 -124 318 -7 17 -22 49 -33 73 l-22 44 22 11 c25 14 103 36 130 37 11 1 37
-17 57 -39z m-241 -27 c0 -10 -7 -85 -15 -168 -8 -82 -15 -176 -15 -208 0 -65
-9 -67 -39 -9 -27 52 -104 127 -159 154 -40 19 -62 23 -142 22 -81 -1 -104 -5
-155 -28 -111 -50 -162 -122 -191 -268 -16 -81 -16 -88 3 -165 34 -135 117
-237 217 -264 23 -6 77 -9 122 -7 66 3 90 9 128 32 26 15 54 25 62 22 21 -8
120 117 144 181 11 29 23 78 26 108 4 30 8 55 10 55 4 0 108 -65 269 -168 49
-31 91 -64 93 -72 1 -10 -64 -48 -215 -124 -120 -61 -279 -146 -353 -190 -156
-93 -179 -106 -191 -106 -4 0 -31 35 -58 78 -28 42 -75 102 -105 132 -31 30
-56 60 -56 66 0 6 -10 19 -22 27 -21 15 -22 16 -4 16 18 1 18 2 4 14 -14 11
-104 126 -122 156 -5 8 -3 17 5 22 12 8 12 11 -1 19 -13 9 -13 11 0 19 8 6 11
13 7 17 -4 4 -13 2 -19 -4 -16 -16 -28 -15 -28 2 0 15 27 29 39 22 4 -3 8 17
8 44 2 85 65 273 114 342 28 39 98 71 304 138 88 29 194 65 235 81 89 33 100
35 100 12z m94 -196 c30 -73 73 -181 96 -242 22 -60 61 -147 86 -193 25 -46
43 -86 41 -88 -2 -2 -49 27 -104 66 -56 38 -131 86 -168 106 l-67 37 6 41 c3
23 11 130 18 239 10 159 15 195 24 182 7 -9 37 -76 68 -148z m-328 -70 c43
-22 118 -102 145 -155 20 -40 24 -62 24 -142 0 -86 -3 -101 -30 -153 -16 -32
-45 -74 -64 -93 -70 -70 -214 -100 -291 -60 -63 33 -120 87 -147 139 -30 60
-53 161 -46 200 3 16 1 27 -6 27 -16 0 -14 32 6 70 14 30 17 32 23 14 5 -14
10 -5 20 37 l12 55 87 43 c83 41 88 42 162 38 42 -3 89 -12 105 -20z m-527
-509 c92 -132 145 -204 206 -274 33 -38 70 -83 82 -100 l22 -32 -67 23 c-37
13 -134 54 -217 93 -82 38 -179 81 -215 96 -36 15 -82 35 -103 44 l-37 17 67
53 c38 29 93 72 123 95 30 23 57 45 58 49 10 22 36 1 81 -64z m1151 -72 c0 -5
-41 -99 -100 -233 -17 -37 -27 -50 -39 -46 -14 4 -14 3 -1 -5 12 -9 1 -38 -69
-174 -46 -90 -90 -170 -97 -179 -8 -8 -14 -19 -14 -23 0 -30 -192 -415 -224
-449 -15 -16 -24 -33 -21 -38 4 -5 1 -9 -5 -9 -6 0 -8 -4 -5 -10 3 -5 2 -10
-4 -10 -6 0 -7 -7 -4 -17 4 -11 3 -14 -5 -9 -7 4 -12 2 -12 -4 0 -7 -9 -25
-20 -40 -11 -16 -27 -48 -35 -71 -9 -24 -23 -51 -31 -60 -9 -10 -14 -24 -11
-31 5 -14 -10 -48 -21 -48 -4 0 -7 109 -7 243 0 214 2 245 18 267 9 13 17 31
17 40 -1 8 -7 3 -16 -13 -8 -15 -20 -25 -25 -21 -16 10 -7 86 13 116 10 14 18
30 18 36 0 5 8 20 18 33 28 35 73 119 64 119 -7 0 -30 -34 -60 -87 -7 -13 -17
-23 -22 -23 -4 0 -13 -14 -19 -31 -6 -17 -15 -28 -21 -24 -15 9 -13 138 3 154
10 10 9 12 -3 9 -17 -4 -22 46 -8 75 6 11 6 23 0 30 -16 20 -12 130 5 150 9 9
20 17 24 17 5 0 34 16 64 36 31 19 104 61 163 93 59 32 123 67 144 79 20 11
39 18 42 15 3 -4 14 1 24 10 10 10 41 24 68 34 27 9 66 29 86 45 20 16 40 28
45 27 15 -2 53 13 53 22 0 5 7 9 15 9 8 0 15 -2 15 -4z m-1431 -106 c55 -28
366 -164 494 -216 149 -61 142 -55 143 -127 0 -34 8 -204 18 -377 9 -173 18
-373 20 -445 1 -71 6 -138 10 -147 14 -32 -8 -19 -32 18 -12 19 -20 39 -16 45
3 6 -6 28 -20 49 -14 22 -26 42 -26 45 0 4 -17 32 -38 63 -21 31 -42 64 -45
72 -4 8 -11 22 -17 30 -6 8 -46 78 -89 155 -43 77 -101 180 -129 229 -29 49
-52 91 -52 93 0 2 -12 23 -27 46 -45 69 -53 81 -63 104 -14 33 -101 205 -149
296 -22 43 -41 80 -41 82 0 10 22 4 59 -15z"/>
<path d="M11886 5813 c-20 -62 -77 -307 -116 -498 -36 -176 -75 -342 -95 -405
-7 -25 -16 -62 -20 -84 -4 -25 -10 -35 -16 -29 -6 6 -6 19 1 37 13 35 13 56
-1 56 -5 0 -8 -4 -5 -9 3 -5 -1 -26 -10 -46 -8 -20 -13 -42 -11 -48 2 -7 -2
-29 -9 -51 -17 -48 -17 -49 1 -42 19 7 19 2 1 -16 -19 -19 -30 -58 -17 -58 6
0 11 -5 11 -11 0 -5 -4 -8 -8 -5 -4 2 -9 -14 -9 -36 -3 -72 -25 -148 -42 -148
-13 0 -13 -2 -2 -9 11 -7 10 -22 -8 -92 -12 -46 -25 -104 -30 -129 -5 -25 -21
-97 -36 -160 -31 -139 -65 -292 -65 -297 0 -1 -5 -3 -11 -3 -7 0 -8 7 -4 18 4
9 14 50 21 89 7 40 20 97 28 125 28 102 61 267 71 358 2 19 7 59 10 89 4 33
13 60 23 69 16 13 16 13 0 8 -10 -3 -18 -1 -18 4 0 6 -4 10 -9 10 -6 0 -10 -8
-9 -17 2 -71 -42 -338 -58 -352 -4 -3 -4 4 -1 16 3 13 1 26 -4 29 -5 3 -6 11
-2 17 16 25 33 105 38 182 13 187 13 196 -2 202 -9 4 -11 8 -4 12 6 4 13 33
16 65 4 32 13 76 21 98 8 22 14 49 14 59 0 11 7 19 18 20 10 0 12 3 5 6 -7 2
-13 9 -13 14 0 6 5 7 10 4 13 -8 29 34 32 85 2 22 6 40 11 40 4 0 7 8 7 18 0
14 -2 15 -10 2 -22 -34 -8 61 40 275 25 113 83 420 97 511 5 39 -13 54 -27 22
-10 -25 -88 -370 -114 -503 -8 -44 -20 -122 -26 -174 -6 -52 -13 -98 -15 -102
-3 -4 -11 -35 -19 -70 -17 -80 -93 -384 -106 -424 -5 -16 -21 -88 -35 -159
-15 -71 -44 -199 -66 -284 -21 -85 -39 -165 -39 -176 0 -12 -18 -91 -41 -176
-72 -281 -121 -537 -115 -609 6 -66 -16 -161 -36 -161 -6 0 -5 -6 2 -15 17
-21 26 -12 34 34 9 55 23 59 31 9 4 -24 14 -55 21 -70 8 -15 14 -38 14 -51 0
-13 7 -32 15 -43 8 -10 15 -26 15 -35 0 -29 59 -47 125 -38 33 4 101 8 150 8
64 1 86 4 75 11 -10 7 19 9 95 5 61 -3 210 -5 331 -5 206 2 222 0 229 -17 6
-16 8 -16 16 5 7 20 13 22 43 17 20 -4 36 -2 40 4 5 7 -4 11 -24 11 -30 0 -31
1 -24 38 4 20 11 45 15 54 5 9 9 25 9 36 0 19 6 20 103 16 56 -2 121 -9 144
-15 51 -14 302 -6 348 10 23 8 2 10 -97 7 -71 -2 -130 0 -134 5 -3 5 18 9 45
9 28 0 51 4 51 10 0 6 -32 7 -82 3 -46 -3 -108 -6 -138 -5 -30 0 -92 1 -137 1
l-83 1 0 31 c0 24 3 30 16 25 69 -27 267 -30 549 -10 197 14 267 24 240 34
-11 4 -69 1 -130 -6 -60 -8 -135 -14 -165 -14 -30 1 -118 1 -195 1 -77 0 -160
4 -185 8 -31 6 29 9 185 11 127 2 240 2 251 1 12 -1 32 3 45 8 16 7 -64 10
-246 11 -161 1 -262 5 -250 10 11 5 67 10 125 11 58 1 94 4 80 7 -42 8 6 19
54 13 23 -3 122 -4 221 -1 l180 5 -125 7 c-196 12 -545 20 -538 12 12 -12 -11
-44 -27 -38 -11 5 -13 2 -9 -10 7 -17 1 -19 -33 -10 -22 6 -22 31 1 46 7 5 7
8 -2 8 -15 0 -9 64 13 136 8 26 12 51 10 55 -3 4 1 24 9 45 7 22 17 80 21 129
4 50 11 95 15 100 4 6 16 49 25 97 l18 88 51 -4 c28 -2 180 -4 339 -5 l287 -1
0 -24 c0 -32 20 -86 32 -86 5 0 2 -7 -6 -16 -12 -11 -13 -20 -6 -34 6 -10 10
-28 10 -39 0 -12 6 -20 12 -19 7 2 14 -8 16 -22 2 -20 1 -22 -7 -10 -9 13 -11
13 -11 -2 0 -10 5 -18 10 -18 6 0 10 -7 10 -16 0 -8 -4 -12 -10 -9 -12 7 -13
-6 -3 -31 6 -16 7 -16 14 2 5 11 6 3 3 -21 -3 -22 0 -60 6 -85 6 -25 17 -84
25 -133 7 -48 20 -97 29 -110 8 -12 29 -41 45 -64 18 -25 26 -45 20 -49 -6 -3
2 -15 19 -27 15 -12 43 -38 61 -57 l32 -35 -7 35 c-8 46 -30 83 -79 137 -47
53 -90 123 -76 123 6 0 11 -6 11 -14 0 -7 9 -16 19 -19 18 -4 19 0 15 44 -2
28 0 49 6 49 6 0 11 -10 12 -22 0 -13 2 -27 3 -33 12 -75 20 -103 32 -120 14
-19 15 -18 8 10 -3 17 -9 59 -12 95 -8 95 10 65 37 -60 12 -58 26 -123 31
-145 5 -22 11 -59 13 -82 4 -42 4 -43 -24 -43 -43 0 -45 -16 -2 -17 20 -1 270
-4 555 -6 285 -2 522 -8 526 -13 5 -5 14 -31 21 -59 8 -27 22 -68 32 -90 10
-22 16 -32 14 -23 -3 9 -8 34 -12 55 -4 21 -10 43 -14 48 -4 6 -10 35 -13 65
-3 30 -19 111 -37 180 -17 69 -33 136 -34 150 -2 14 -8 37 -14 51 -17 43 -30
97 -66 275 -19 93 -46 219 -60 279 -14 61 -33 139 -41 175 -8 36 -15 84 -15
107 0 24 -9 56 -20 76 -11 19 -22 52 -24 73 -3 21 -11 64 -20 95 -18 68 -31
174 -17 144 13 -28 13 -15 0 47 -10 43 -13 49 -21 33 -6 -14 -7 -10 -3 15 4
31 -6 84 -36 190 -5 19 -11 55 -13 80 -2 24 -9 46 -15 48 -6 2 -8 14 -5 28 4
15 2 24 -6 24 -7 0 -10 6 -7 14 3 7 1 18 -3 22 -5 5 -11 25 -14 44 -3 19 -12
60 -20 90 -8 30 -17 75 -19 100 -6 47 -47 229 -71 315 -8 28 -28 97 -45 155
-17 58 -31 107 -31 110 0 3 -5 -2 -10 -10 -12 -20 -5 -157 11 -195 7 -16 14
-43 16 -59 2 -16 8 -35 14 -43 7 -7 9 -16 6 -20 -4 -3 -3 -11 2 -17 5 -6 11
-31 14 -56 3 -25 10 -58 16 -73 6 -15 10 -31 10 -35 -1 -4 0 -10 1 -14 1 -5 3
-11 5 -15 1 -5 4 -15 7 -23 6 -15 24 -101 34 -156 5 -29 9 -45 20 -84 8 -30
-13 -24 -24 8 -17 46 -13 6 7 -76 11 -42 25 -103 31 -134 6 -32 16 -58 23 -58
8 0 8 -3 0 -11 -11 -11 -7 -32 14 -89 4 -8 5 -24 4 -35 -2 -17 0 -18 9 -5 8
11 9 5 4 -24 -5 -30 -4 -37 6 -31 10 6 12 1 8 -18 -3 -17 0 -28 9 -31 8 -3 11
-11 8 -16 -4 -6 -3 -16 2 -23 9 -11 11 -20 16 -77 1 -14 5 -27 8 -30 5 -5 16
-50 61 -260 11 -52 31 -140 44 -195 13 -55 46 -201 74 -325 100 -445 127 -551
155 -622 7 -17 -17 -18 -381 -18 -214 -1 -398 -2 -409 -2 -11 -1 -59 -1 -106
0 l-87 2 -11 68 c-6 37 -16 87 -21 112 -27 126 -40 199 -41 235 -2 22 -4 44
-7 48 -2 5 -6 27 -8 50 -2 23 -6 53 -8 67 -3 14 -8 43 -11 65 -9 63 -35 196
-46 238 -6 21 -11 56 -11 78 0 42 -12 57 -31 40 -9 -7 -79 -6 -224 2 -136 8
-219 9 -233 3 -14 -6 -24 -6 -28 1 -11 16 -72 24 -134 17 -68 -8 -79 -21 -13
-16 28 3 45 0 45 -7 0 -16 -97 -14 -102 1 -4 10 -13 10 -44 1 -66 -20 -134
-26 -134 -12 0 7 -6 4 -14 -6 -8 -11 -12 -24 -9 -29 3 -4 1 -11 -4 -15 -5 -3
-22 -51 -38 -106 -15 -55 -38 -128 -51 -162 -13 -34 -42 -138 -64 -230 -23
-93 -43 -176 -46 -185 -3 -10 -1 -18 3 -18 5 0 15 24 22 53 23 90 36 127 45
127 4 0 6 -6 3 -12 -2 -7 -9 -35 -15 -63 -6 -27 -17 -70 -23 -95 -6 -25 -12
-57 -13 -72 0 -14 -5 -24 -10 -20 -5 3 -6 -3 -2 -14 4 -10 2 -49 -5 -86 l-12
-68 -66 0 c-88 0 -243 19 -258 32 -9 7 -13 7 -13 -3 0 -8 -3 -9 -9 -3 -6 5
-132 8 -310 7 -166 0 -301 1 -301 3 0 4 30 132 85 359 9 39 25 106 35 150 11
44 26 108 34 142 9 33 18 74 20 90 2 15 6 35 8 43 33 99 35 120 16 120 -9 0
-10 2 -2 8 11 7 18 32 28 102 8 54 22 121 60 289 19 85 33 158 30 162 -2 5 -2
19 1 32 5 18 12 23 26 20 14 -4 19 0 20 13 0 11 2 27 4 36 15 77 16 98 6 98
-6 0 -11 4 -11 10 0 5 6 7 13 4 17 -6 40 83 25 92 -7 4 -7 9 0 13 12 8 32 100
25 118 -3 7 0 13 7 13 7 0 10 7 6 15 -3 8 0 15 6 15 7 0 6 5 -2 15 -9 11 -10
15 0 15 6 0 10 8 8 18 -2 9 3 22 12 29 13 11 13 12 0 13 -11 0 -12 2 -3 8 7 4
15 25 18 47 2 21 9 43 15 49 5 5 10 24 10 42 0 17 5 44 10 60 6 16 11 43 13
59 2 17 6 37 9 45 7 17 88 383 93 415 1 11 3 20 5 20 1 0 4 25 6 55 3 30 9 64
13 75 29 69 30 73 16 85 -10 9 -16 1 -29 -37z"/>
<path d="M6325 3110 c-21 -8 -61 -51 -120 -130 -27 -36 -32 -47 -22 -59 10
-12 9 -14 -3 -9 -16 6 -46 -18 -32 -25 4 -2 25 -5 46 -5 43 -2 65 -12 25 -12
-14 0 -34 -7 -45 -15 -21 -17 -35 -17 174 1 39 3 74 10 77 14 3 5 -3 9 -12 9
-96 3 -117 1 -126 -8 -14 -14 -27 -14 -27 -1 0 6 6 10 14 10 7 0 19 7 26 15 7
8 17 12 23 8 6 -3 7 -1 3 5 -5 8 4 12 29 12 22 0 34 -4 30 -10 -3 -5 1 -10 10
-10 9 0 14 4 10 9 -3 6 11 13 32 16 21 4 45 8 53 10 8 1 -49 2 -128 0 -131 -3
-190 6 -125 19 37 7 299 18 393 18 51 -1 70 2 60 8 -8 5 -69 10 -134 10 -66 0
-116 3 -112 7 8 8 30 10 149 12 63 1 86 4 81 12 -8 14 -233 7 -274 -8 -14 -5
-41 -6 -60 -3 -34 6 -35 6 -8 13 14 4 34 4 42 1 9 -3 23 -1 31 6 9 7 26 10 40
6 14 -4 31 -3 38 1 14 8 31 10 116 14 104 3 45 19 -77 20 -123 1 -179 18 -67
20 39 1 84 5 100 9 24 6 17 8 -35 10 -36 2 -90 4 -120 5 -30 2 -64 0 -75 -5z"/>
<path d="M15927 2883 c-26 -7 -16 -25 19 -36 16 -6 154 -12 307 -14 l279 -5
-11 21 c-7 12 -17 21 -24 21 -7 0 -6 -4 3 -10 13 -9 13 -10 0 -10 -9 0 -20 4
-26 10 -6 6 -21 6 -40 1 -41 -12 -124 -12 -124 -1 0 6 -5 10 -11 10 -5 0 -7
-4 -4 -10 3 -5 -1 -10 -9 -10 -9 0 -16 6 -16 13 0 9 -2 9 -9 -1 -6 -9 -21 -11
-52 -7 -24 3 -58 7 -75 8 -21 1 -30 6 -27 15 4 9 -15 12 -78 11 -46 -1 -92 -3
-102 -6z"/>
<path d="M12662 2864 c-7 -12 -14 -14 -28 -8 -10 5 -46 9 -79 8 -180 -3 -245
-7 -245 -15 0 -5 14 -9 30 -9 17 0 30 -5 30 -11 0 -9 64 -10 248 -5 210 7 264
9 324 15 4 1 5 8 1 16 -4 12 -13 14 -37 9 -17 -4 -77 -8 -133 -10 -84 -2 -101
0 -96 12 7 19 -4 18 -15 -2z"/>
</g>
</svg>
