<?xml version="1.0" standalone="no"?>
<!DOCTYPE svg PUBLIC "-//W3C//DTD SVG 20010904//EN"
 "http://www.w3.org/TR/2001/REC-SVG-20010904/DTD/svg10.dtd">
<svg version="1.0" xmlns="http://www.w3.org/2000/svg"
 width="1928.000000pt" height="1074.000000pt" viewBox="0 0 1928.000000 1074.000000"
 preserveAspectRatio="xMidYMid meet">
<metadata>
Created by potrace 1.16, written by Peter Selinger 2001-2019
</metadata>
<g transform="translate(0.000000,1074.000000) scale(0.100000,-0.100000)"
fill="#000000" stroke="none">
<path d="M4770 8019 l0 -74 -398 -1 c-640 -3 -756 -4 -751 -8 2 -2 114 -7 249
-10 135 -4 298 -11 364 -17 147 -11 274 -11 390 2 91 10 115 5 83 -15 -10 -6
-35 -26 -55 -43 -20 -18 -40 -33 -44 -33 -11 0 -190 -149 -219 -182 -21 -25
-30 -29 -60 -24 -18 3 -104 6 -189 7 -226 3 -284 16 -90 20 85 2 173 4 195 5
22 1 52 2 68 3 15 0 27 5 27 10 0 6 -35 8 -82 6 -46 -3 -163 -5 -260 -6 -159
-2 -212 -9 -160 -22 10 -3 5 -5 -12 -6 -20 -1 -27 3 -23 13 5 13 -24 14 -156
6 -5 0 -6 -4 -3 -9 3 -5 -3 -11 -15 -14 -17 -5 -18 -3 -7 11 11 14 10 15 -5 9
-10 -4 -21 -7 -23 -7 -3 0 -3 -4 0 -9 5 -8 -85 -23 -92 -16 -2 2 66 49 150
106 166 111 238 166 238 181 0 14 -121 -55 -215 -122 -102 -73 -214 -148 -270
-180 -59 -33 -64 -41 -21 -28 20 6 39 8 43 4 4 -4 9 -190 10 -414 2 -224 6
-514 10 -645 5 -132 5 -241 1 -243 -4 -3 -27 16 -51 41 -24 25 -49 45 -55 45
-7 0 -29 -16 -51 -35 l-38 -35 -104 0 -104 0 -17 30 c-15 26 -18 87 -23 541
-7 525 -4 612 20 603 10 -4 11 2 5 29 -4 19 -11 40 -15 47 -5 8 -4 11 3 6 11
-7 9 141 -3 251 -4 28 -3 67 0 87 7 33 10 36 41 36 18 0 35 4 38 9 4 5 -71 7
-177 4 -100 -2 -317 -8 -482 -12 -331 -8 -327 -7 -409 -77 -22 -19 -44 -34
-48 -34 -5 0 -37 -19 -70 -42 -38 -25 -63 -37 -66 -30 -6 18 -22 14 -22 -6 0
-17 -11 -26 -77 -63 -41 -23 -43 -23 -43 -4 0 8 -4 15 -10 15 -5 0 -10 7 -10
16 0 8 -4 13 -9 10 -4 -3 -6 -16 -4 -30 4 -17 -2 -28 -18 -40 l-23 -16 22 0
c19 0 20 -3 12 -25 -5 -14 -8 -40 -5 -58 2 -17 7 -133 10 -257 3 -124 8 -241
10 -260 14 -114 1 -815 -16 -907 -6 -29 -7 -58 -2 -65 4 -7 8 -112 9 -233 1
-121 4 -236 7 -255 19 -112 23 -787 7 -1070 -10 -170 -8 -265 5 -400 13 -130
37 -287 55 -358 32 -121 125 -322 203 -436 48 -71 16 -53 -75 44 -50 52 -85
85 -79 73 13 -25 281 -307 351 -369 25 -22 75 -60 112 -84 38 -25 68 -49 69
-55 0 -5 1 -41 2 -79 2 -67 1 -70 -23 -77 -14 -4 76 -8 200 -8 124 -1 243 -6
265 -12 51 -13 716 -22 810 -10 67 8 63 8 -65 11 -74 1 -140 2 -147 1 -6 -1
-14 3 -18 9 -3 5 -28 10 -56 10 -28 0 -49 5 -49 11 0 7 18 8 53 4 70 -8 69 -8
173 1 59 4 103 3 123 -4 26 -9 31 -8 31 4 0 8 -5 12 -10 9 -5 -3 -10 -2 -10 4
0 5 20 13 45 17 25 3 45 10 45 15 0 5 17 17 38 26 20 10 83 39 140 66 57 27
106 46 110 43 3 -4 6 -43 6 -89 l1 -82 -177 2 c-148 1 -176 -1 -171 -13 3 -8
9 -14 15 -14 5 0 6 6 2 13 -6 9 -4 9 8 -1 32 -26 314 -19 342 8 5 5 20 1 34
-11 l25 -20 27 26 c25 24 35 26 131 29 133 5 134 5 125 13 -3 4 -40 6 -82 5
-44 0 -72 3 -69 9 4 5 -1 9 -9 9 -9 0 -16 -7 -16 -15 0 -16 -16 -20 -24 -6 -3
4 3 16 12 24 16 15 56 17 316 17 289 1 352 5 231 16 -32 2 -61 6 -64 8 -3 2
-30 0 -58 -3 -29 -4 -53 -4 -53 1 0 4 6 9 13 10 52 6 52 11 -3 17 -61 7 -101
1 -61 -9 14 -3 27 -12 29 -19 3 -10 0 -11 -13 -3 -10 5 -26 7 -36 5 -26 -7
-71 6 -64 17 4 7 14 6 26 -1 23 -12 41 -3 20 10 -15 10 -1 14 108 30 77 12 94
23 25 16 -27 -2 -74 -7 -104 -9 l-55 -5 40 13 40 13 -45 7 c-25 3 -56 7 -70 9
-14 2 56 7 155 11 181 9 343 4 380 -10 20 -8 20 -7 1 11 -19 20 -93 25 -378
26 -49 0 -88 4 -88 9 0 4 75 8 166 8 91 0 169 3 172 6 5 6 -10 7 -226 12 -62
1 -134 5 -160 9 -26 3 -67 8 -91 10 -24 2 -46 6 -49 9 -8 8 108 6 208 -4 66
-6 88 -5 100 5 11 10 20 11 33 3 28 -15 147 -23 147 -9 0 6 -9 11 -20 11 -41
0 -18 15 25 16 45 1 66 -15 23 -17 -30 -2 61 -17 135 -23 31 -2 57 0 57 5 0
10 -1 10 -75 14 -94 5 -89 4 -75 20 10 12 10 16 -1 19 -42 14 -618 24 -657 12
-45 -15 -19 20 114 153 75 75 163 166 194 203 32 36 61 63 65 60 4 -4 6 0 5 8
-4 29 0 40 16 40 10 0 14 6 11 14 -3 8 2 20 11 28 16 12 16 11 2 -7 -14 -19
-14 -19 3 -6 10 8 16 19 14 25 -3 6 9 36 25 66 74 136 181 513 203 715 3 28 8
57 11 67 3 9 1 19 -5 22 -5 3 -7 15 -4 26 3 13 0 20 -8 20 -11 0 -11 2 -1 8
13 9 12 38 -2 61 -6 10 -5 12 2 7 7 -4 12 -3 12 3 0 5 -5 13 -10 16 -6 4 -7
12 -3 20 5 7 5 76 0 152 -14 258 -29 2313 -16 2313 4 0 10 -6 12 -12 3 -7 6
-3 6 10 1 13 -3 20 -9 17 -5 -3 -10 1 -10 10 0 9 5 13 10 10 6 -3 10 3 10 14
0 14 -5 19 -15 15 -8 -4 -15 -1 -15 5 0 6 4 11 9 11 6 0 7 131 4 323 l-5 322
32 18 c17 9 45 17 61 17 17 0 28 4 25 9 -6 9 -48 7 -96 -4 -21 -5 -25 -3 -26
17 -2 47 -16 163 -20 167 -2 2 -4 -29 -4 -70z m-1782 -111 c-3 -7 -43 -40 -90
-73 -47 -33 -116 -86 -155 -117 l-69 -57 -128 -5 c-117 -4 -147 -9 -135 -20 2
-2 48 0 102 6 55 5 101 7 105 4 17 -18 -33 -25 -222 -32 -172 -5 -210 -4 -217
7 -6 10 -9 11 -9 2 0 -7 -7 -13 -16 -13 -8 0 -13 4 -10 9 8 12 -56 17 -224 20
-74 1 -136 3 -137 5 -4 4 145 100 217 140 36 19 78 49 93 66 l29 30 261 1
c144 1 271 3 282 4 11 1 61 5 111 9 110 8 166 15 173 21 10 10 42 4 39 -7z
m-20 -353 c-11 -335 -11 -283 -2 -801 l7 -401 -22 -22 c-13 -13 -25 -20 -28
-17 -3 2 -5 72 -5 155 0 83 -4 153 -9 157 -5 3 -10 -24 -10 -60 -2 -84 -2 -85
-14 -94 -6 -4 -10 -54 -10 -115 0 -85 -3 -110 -15 -117 -16 -10 -111 -32 -116
-27 -6 6 -5 261 1 290 3 15 1 27 -5 27 -5 0 -10 -3 -11 -7 0 -5 -2 -21 -4 -38
-4 -27 -6 -216 -4 -233 4 -22 -2 -42 -11 -37 -7 4 -8 157 -5 445 2 241 5 442
6 446 1 5 0 14 -1 19 -4 20 3 193 15 375 7 105 7 105 44 137 20 18 39 32 43
33 4 0 6 -27 4 -60 -2 -33 0 -63 5 -66 5 -3 9 3 10 13 0 10 3 38 5 62 4 30 1
47 -8 52 -10 6 -7 13 12 26 36 25 110 105 110 118 0 11 21 37 26 32 1 -1 -2
-132 -8 -292z m1788 198 c-3 -49 -5 -131 -5 -183 1 -52 1 -117 1 -145 0 -27
-1 -177 -2 -332 -1 -236 -3 -282 -15 -287 -8 -3 -15 -11 -15 -18 0 -9 3 -9 10
2 5 8 11 12 15 9 8 -9 8 -901 -1 -923 -4 -11 -3 -17 2 -14 11 7 11 -4 13 -192
2 -210 -5 -311 -21 -321 -9 -6 -10 -9 -1 -9 7 0 13 -10 13 -22 -1 -45 8 -248
15 -333 5 -68 3 -90 -7 -96 -10 -7 -10 -11 0 -21 6 -6 12 -23 11 -37 l-1 -26
-8 25 c-4 15 -8 -29 -9 -110 -1 -148 -8 -230 -21 -244 -14 -15 -22 34 -8 51 9
12 9 15 1 9 -8 -4 -13 -1 -13 9 0 9 -5 13 -10 10 -6 -4 -8 -15 -5 -26 4 -11 0
-26 -9 -35 -9 -8 -16 -20 -16 -27 0 -6 6 -2 14 9 13 17 14 7 13 -89 -1 -60 1
-111 6 -114 4 -2 4 -9 1 -15 -4 -5 -8 -36 -9 -68 -2 -32 -6 -63 -10 -69 -3 -6
0 -25 9 -41 8 -17 10 -30 5 -30 -6 0 -7 -5 -3 -12 4 -6 -1 -17 -11 -25 -11 -7
-14 -13 -7 -13 8 0 9 -7 2 -22 -5 -13 -18 -54 -29 -93 -21 -72 -50 -126 -51
-93 0 9 -6 18 -12 20 -9 3 -8 10 5 22 9 10 23 27 29 39 14 25 17 97 4 97 -5 0
-3 6 3 14 6 7 9 21 5 30 -3 9 -1 16 5 16 6 0 11 8 11 18 0 14 2 15 10 2 9 -13
10 -13 11 0 1 8 0 20 -1 25 -1 6 -4 18 -6 29 -5 29 -14 32 -14 6 0 -13 -3 -20
-6 -17 -10 9 -13 87 -4 92 4 2 6 17 4 32 -2 16 -1 20 2 11 8 -27 27 -22 20 5
-3 12 -6 29 -6 37 0 13 -1 13 -10 0 -14 -23 -18 -9 -12 57 3 49 8 62 23 66 11
3 19 11 18 19 0 10 -2 10 -6 1 -2 -7 -8 -13 -13 -13 -10 0 -31 76 -32 118 -1
17 -5 32 -10 32 -5 0 -6 -21 -3 -47 3 -29 1 -49 -6 -54 -7 -4 -8 -15 -3 -30
l8 -24 8 25 c5 17 6 12 2 -15 -3 -22 -8 -80 -10 -128 -2 -49 -8 -96 -14 -105
-8 -14 -9 -11 -10 12 0 41 -9 28 -15 -22 -5 -41 -62 -143 -89 -159 -7 -4 -16
-15 -19 -23 -4 -11 -6 -9 -6 5 -1 12 5 27 12 34 6 8 7 11 1 8 -14 -8 -10 106
5 145 6 15 7 30 2 32 -29 18 -14 153 27 249 14 32 20 37 40 32 17 -4 22 -2 16
6 -4 7 -1 17 7 23 31 23 59 69 50 80 -5 6 -12 26 -16 45 -5 22 -10 29 -15 21
-14 -22 -30 0 -30 41 0 30 3 38 13 33 7 -5 7 -1 -2 10 -9 10 -11 20 -5 24 11
8 12 52 1 69 -4 6 -3 14 3 18 5 3 10 15 10 26 0 10 4 19 10 19 10 0 40 51 40
68 0 5 -11 25 -24 45 -13 19 -22 38 -19 40 2 3 -4 4 -14 4 -14 -2 -18 5 -18
33 0 19 -3 40 -6 45 -4 6 -10 25 -14 44 -5 24 -4 31 4 27 6 -4 9 -12 6 -17 -4
-5 -2 -9 4 -9 5 0 15 -17 22 -37 7 -21 14 -32 17 -25 6 20 -38 122 -54 122
-20 0 -27 19 -14 35 18 22 29 18 36 -10 4 -14 9 -24 11 -21 3 2 0 19 -6 38 -6
18 -13 50 -16 72 -4 21 -17 49 -32 64 -20 20 -25 36 -27 81 -8 166 -8 167 -16
141 -5 -17 -9 4 -10 65 0 50 -3 119 -5 155 -12 196 -16 399 -21 1006 l-4 671
25 11 c26 12 138 100 143 113 5 11 -19 23 -27 13 -13 -18 -102 -86 -107 -81
-9 9 125 107 140 101 9 -4 20 5 30 24 16 31 68 75 80 67 3 -3 4 -2 1 2 -5 6
33 53 43 53 2 0 2 -39 -2 -87z m-2712 -143 c49 0 87 -2 84 -5 -2 -3 -40 -10
-84 -16 -43 -6 -82 -14 -86 -17 -6 -6 195 -6 529 1 l123 2 0 -448 c-1 -246 2
-453 6 -458 4 -6 0 -15 -7 -20 -12 -7 -12 -9 0 -9 8 0 11 -6 6 -17 -3 -10 -5
-85 -4 -168 4 -220 4 -220 -20 -244 -20 -20 -25 -33 -22 -58 1 -6 -26 -30 -59
-53 -57 -39 -62 -40 -94 -29 -66 24 -119 -17 -119 -92 0 -33 -8 -45 -74 -111
-61 -60 -82 -75 -120 -83 -37 -8 -51 -17 -66 -42 -16 -28 -17 -37 -6 -72 11
-38 10 -42 -23 -93 -19 -29 -48 -77 -64 -105 -16 -29 -34 -53 -40 -53 -6 0
-23 -9 -38 -21 -30 -24 -34 -64 -11 -108 13 -25 12 -36 -5 -97 -10 -38 -24
-88 -30 -111 -8 -33 -16 -43 -42 -52 -46 -16 -49 -14 -42 27 3 20 0 161 -7
312 -8 167 -14 598 -14 1095 -1 451 -5 891 -9 978 l-7 157 23 10 c13 5 70 8
128 5 58 -2 145 -4 194 -5z m1829 -16 c88 -8 93 -24 9 -25 -31 0 -75 -4 -97
-9 -28 -6 -8 -7 65 -3 58 2 106 8 107 11 4 9 371 -3 401 -12 16 -5 22 -15 21
-34 0 -51 12 -1178 17 -1487 2 -170 8 -359 13 -420 4 -60 7 -111 5 -113 -1 -2
-22 35 -47 83 -37 72 -41 85 -25 79 19 -6 20 -3 13 37 -10 58 -17 65 -80 84
-46 13 -60 24 -106 80 -29 36 -53 76 -54 89 0 13 -13 42 -28 65 -28 41 -29 42
-80 39 -41 -2 -61 3 -92 21 -70 42 -105 72 -105 88 0 21 -45 79 -71 94 -16 8
-31 6 -71 -11 -49 -21 -51 -21 -101 -4 -29 10 -55 21 -59 24 -4 3 -9 136 -11
295 -7 446 -26 936 -37 975 -5 19 -10 38 -10 42 0 4 64 9 143 11 78 1 156 4
173 5 17 1 65 -1 107 -4z m-475 -1381 c51 -6 52 -7 51 -37 -1 -17 2 -50 6 -72
l7 -42 -63 12 -64 11 1 63 c0 34 -3 62 -8 62 -4 0 -8 -28 -8 -63 l0 -62 -127
0 c-71 0 -146 -2 -168 -5 l-40 -5 1 42 c1 36 -1 40 -12 25 -13 -17 -31 -11
-20 7 8 12 65 41 82 41 20 0 103 -54 104 -67 0 -16 50 10 76 38 48 55 82 64
182 52z m-472 -14 c4 -7 -3 -31 -16 -54 -16 -29 -21 -48 -15 -61 7 -16 9 -15
14 10 8 40 31 46 32 9 1 -17 3 -21 6 -10 6 23 23 22 23 -3 0 -14 -11 -22 -37
-29 -57 -16 -64 -14 -57 14 3 14 2 25 -4 25 -13 0 -23 -26 -16 -43 5 -15 -65
-47 -102 -47 -17 0 -20 5 -16 25 2 14 0 25 -6 25 -13 0 -23 -38 -11 -46 14 -8
11 -21 -7 -28 -21 -8 -36 2 -27 17 5 7 8 19 9 27 1 8 2 25 3 38 0 12 8 22 16
22 21 0 54 -31 48 -45 -2 -7 0 -16 6 -20 6 -3 11 1 11 10 0 13 6 15 30 10 39
-9 39 9 0 25 -17 7 -42 26 -56 43 l-26 31 58 23 c84 32 87 31 79 -19 -4 -24
-4 -40 0 -36 4 4 9 24 12 45 6 47 32 69 49 42z m659 -22 c66 -19 82 -27 93
-50 7 -15 18 -24 24 -21 6 4 5 10 -3 16 -10 7 -4 7 16 3 16 -4 35 -11 42 -16
6 -6 49 -28 94 -50 97 -47 94 -54 -25 -64 -45 -4 -97 -9 -117 -11 -25 -3 -61
7 -119 30 l-83 33 -4 77 c-2 42 -3 76 -1 76 2 0 39 -11 83 -23z m-979 -104
c-3 -16 -8 -46 -12 -68 -4 -22 -12 -47 -19 -55 -8 -8 -15 -22 -17 -30 -2 -8
-21 -26 -43 -41 -22 -15 -69 -54 -105 -88 -66 -61 -82 -71 -79 -48 1 6 1 23 0
37 -1 22 -3 23 -12 7 -6 -9 -7 -27 -4 -38 4 -11 1 -27 -6 -36 -7 -8 -18 -23
-24 -33 -5 -10 -32 -51 -60 -92 -27 -40 -49 -75 -49 -78 1 -3 -10 -22 -22 -42
-13 -21 -24 -42 -24 -48 0 -6 -11 -33 -25 -60 -18 -35 -31 -50 -45 -50 -11 0
-20 6 -20 13 0 7 -16 32 -36 55 l-36 42 22 43 c53 104 110 167 110 122 0 -8 5
-15 10 -15 13 0 13 13 0 26 -14 14 -1 54 17 47 8 -3 12 -12 8 -20 -4 -12 0
-14 17 -9 13 3 31 6 41 6 10 0 20 8 24 18 3 9 13 25 21 35 8 9 13 18 11 20 -2
2 -21 17 -41 34 l-37 31 75 71 c41 39 79 71 86 71 9 0 9 -3 0 -12 -7 -7 -12
-28 -12 -47 0 -39 10 -34 26 12 10 30 14 32 69 35 32 2 72 9 89 17 l31 13 -43
1 c-43 1 -44 1 -37 31 8 37 -2 40 -15 4 -8 -20 -15 -24 -31 -19 -15 5 -19 4
-15 -4 4 -6 0 -11 -8 -11 -9 0 -15 5 -13 11 3 17 66 79 78 79 6 0 28 13 48 29
37 29 90 60 104 61 5 0 6 -12 3 -27z m747 -38 c26 -3 58 -10 72 -15 29 -11 30
-15 26 -383 -3 -257 7 -213 -105 -452 -32 -66 -69 -146 -84 -178 -20 -42 -31
-55 -42 -51 -33 14 -97 1 -162 -34 -10 -5 -48 35 -48 51 0 6 12 -1 26 -17 14
-15 28 -25 31 -22 4 3 -5 19 -19 34 -22 23 -54 119 -43 130 2 2 20 -28 42 -67
21 -39 41 -71 44 -71 4 0 -13 47 -36 104 -49 117 -51 139 -47 403 1 118 5 155
17 166 13 13 12 16 -2 22 -15 5 -15 7 -3 15 8 6 10 10 4 10 -8 0 -12 52 -13
166 -1 92 -4 171 -7 175 -5 8 15 15 71 23 35 5 208 -1 278 -9z m-377 -177
c-16 -522 -19 -603 -22 -607 -2 -2 -6 5 -10 15 -5 17 -86 200 -103 233 -4 8
-13 17 -19 19 -13 4 21 -82 88 -223 41 -87 47 -109 49 -170 l2 -70 -64 70
c-35 39 -94 106 -131 149 l-67 79 2 70 c1 47 -2 72 -9 75 -7 2 -12 8 -12 13 0
6 5 7 10 4 6 -4 10 7 9 27 -1 30 -2 31 -8 8 -6 -20 -9 -15 -14 30 -7 57 -6
358 1 327 2 -9 7 -15 12 -12 5 3 7 12 4 20 -4 9 4 19 23 26 15 6 36 16 47 21
31 16 131 46 139 41 4 -2 7 -11 7 -19 0 -8 5 -12 10 -9 15 9 12 -4 -5 -21 -8
-9 -15 -24 -15 -35 0 -10 7 -19 15 -19 8 0 15 -4 15 -10 0 -5 -7 -7 -15 -4
-19 7 -19 4 -1 -32 15 -31 19 -157 5 -149 -4 3 -2 -7 6 -22 8 -15 15 -41 15
-57 0 -16 3 -26 7 -22 8 8 6 257 -3 328 -3 26 -12 53 -21 59 -12 11 -11 14 9
25 49 28 49 26 44 -158z m660 83 c158 -76 290 -169 379 -267 116 -128 130
-149 235 -379 38 -83 90 -340 72 -356 -7 -6 -112 -18 -447 -49 -115 -11 -243
-24 -283 -30 -40 -5 -78 -10 -83 -10 -5 0 -9 24 -9 54 l0 53 48 21 c77 33 407
184 541 248 69 32 118 60 109 62 -9 2 -100 -36 -203 -83 -104 -48 -244 -111
-313 -141 -68 -30 -133 -61 -145 -69 -40 -28 -47 -20 -47 53 0 37 4 72 8 79 4
6 91 96 193 200 102 103 189 195 194 203 17 27 -58 -40 -222 -201 -89 -87
-165 -159 -169 -159 -8 0 1 240 11 284 3 16 15 47 25 69 11 23 20 47 20 54 0
7 3 13 8 13 9 0 46 100 39 106 -5 5 -77 -142 -77 -157 0 -5 -4 -9 -10 -9 -6 0
-10 85 -10 235 0 129 3 235 6 235 3 0 62 -27 130 -59z m374 12 c109 -95 210
-204 210 -227 0 -12 9 -29 20 -38 10 -9 31 -35 46 -58 22 -34 25 -44 16 -63
-6 -12 -19 -49 -28 -82 -22 -74 -29 -84 -50 -63 -21 21 -22 154 -1 174 10 11
8 53 -3 75 -13 23 -30 25 -30 4 0 -8 5 -15 10 -15 11 0 3 -98 -10 -135 -7 -18
-8 -18 -20 5 -7 14 -32 48 -55 75 -59 70 -117 146 -113 150 5 3 129 -11 163
-20 23 -6 27 -5 19 4 -6 7 -43 17 -82 21 -131 17 -135 20 -148 129 -4 34 -11
64 -15 67 -15 9 -8 -61 16 -150 8 -28 6 -27 -61 26 -38 30 -95 70 -126 88 -32
19 -54 37 -50 41 12 11 186 27 197 18 14 -14 25 -10 19 6 -12 29 22 15 76 -32z
m-1381 -326 c1 -78 4 -157 8 -176 4 -21 2 -32 -5 -30 -5 2 -61 59 -122 127
-62 68 -115 121 -118 118 -3 -4 4 -16 15 -29 11 -12 62 -70 115 -128 52 -58
100 -114 105 -125 6 -10 11 -61 11 -111 0 -51 4 -97 7 -103 13 -21 -22 -8
-129 49 -61 32 -151 80 -199 106 -49 25 -91 44 -93 42 -3 -2 84 -53 193 -112
109 -59 201 -110 206 -114 4 -4 9 -41 10 -82 1 -53 6 -73 15 -72 6 2 12 -1 12
-6 0 -13 -87 -3 -195 20 -170 38 -328 69 -350 69 -37 0 -49 23 -34 67 7 21 21
65 32 98 23 71 46 125 60 143 8 10 13 10 26 0 14 -12 14 -11 3 4 -16 20 -8 74
13 85 7 5 23 27 35 51 12 23 26 45 31 48 5 3 7 10 3 15 -8 14 209 228 276 273
l55 36 6 -61 c3 -33 7 -125 8 -202z m1721 -102 c20 -32 63 -155 57 -162 -3 -2
-74 20 -124 38 l-21 8 24 58 c13 32 24 66 24 76 0 27 17 20 40 -18z m-27 -153
c68 -18 87 -37 87 -88 0 -32 -4 -44 -12 -42 -7 2 -34 10 -59 17 -41 11 -50 19
-73 65 -38 76 -41 73 57 48z m-869 -137 c-1 -75 -6 -112 -17 -128 -35 -50
-154 -167 -170 -167 -10 0 -17 3 -15 8 25 48 167 344 176 365 21 49 28 28 26
-78z m-707 33 c14 -24 67 -87 117 -140 68 -73 92 -106 97 -133 3 -19 2 -35 -3
-35 -10 0 -117 63 -178 105 -63 43 -79 60 -81 85 -4 67 2 160 11 160 5 0 22
-19 37 -42z m1608 -26 l50 -18 3 -142 c2 -94 -1 -142 -8 -142 -6 0 -5 -9 4
-22 22 -36 27 -72 16 -129 -9 -47 -32 -89 -49 -89 -3 0 -7 71 -8 158 -1 153
-12 221 -59 380 -8 26 -11 26 51 4z m-2416 -44 c8 -18 28 -52 44 -75 27 -38
29 -45 17 -72 -6 -16 -18 -32 -26 -35 -7 -3 -11 -12 -8 -20 3 -9 -3 -20 -15
-28 -12 -7 -21 -18 -21 -24 0 -6 -10 -22 -23 -36 -13 -14 -24 -32 -24 -39 0
-8 -4 -23 -9 -33 -5 -14 -4 -17 4 -12 17 10 33 -2 81 -57 46 -54 54 -98 22
-119 -14 -9 -17 -16 -10 -25 7 -8 4 -31 -12 -75 -27 -76 -32 -83 -48 -64 -9
11 -10 20 -1 35 6 12 7 21 2 21 -12 0 -34 49 -27 61 4 5 13 9 21 9 8 0 14 5
14 10 0 6 -10 8 -24 4 -13 -3 -27 -1 -31 6 -16 26 -20 281 -4 291 5 3 11 19
12 36 1 18 7 30 16 29 25 -2 22 20 -5 32 -28 14 -28 21 3 132 9 30 17 61 19
68 6 21 19 13 33 -20z m828 -149 c32 -22 87 -59 123 -82 36 -23 66 -49 68 -58
3 -14 -4 -14 -64 -2 -37 7 -75 18 -85 23 -10 6 -31 10 -46 10 -16 0 -36 6 -45
13 -19 15 -36 137 -19 137 6 0 37 -18 68 -41z m-602 1 c17 -5 122 -27 235 -50
113 -24 211 -44 218 -46 8 -2 12 -30 12 -93 0 -86 -1 -91 -22 -96 -65 -15
-463 -76 -508 -78 l-52 -2 -5 103 c-4 89 10 252 23 274 5 8 46 2 99 -12z m665
-151 c47 -11 95 -22 108 -25 13 -3 22 -12 22 -24 0 -20 -11 -25 -80 -35 -25
-4 -53 -9 -62 -11 -15 -5 -18 2 -20 43 l-2 48 -3 -47 c-4 -43 -7 -49 -31 -54
-15 -3 -35 -8 -44 -11 -16 -4 -18 4 -18 72 0 75 1 77 23 71 12 -3 60 -16 107
-27z m395 -2 c58 -33 62 -94 9 -151 -24 -26 -31 -28 -72 -22 -25 3 -53 13 -63
22 -42 38 -29 122 25 155 40 24 52 24 101 -4z m1102 -114 c-9 -207 -48 -359
-138 -533 -60 -115 -115 -191 -213 -291 -122 -124 -343 -277 -366 -253 -4 5
-33 87 -64 182 -56 170 -57 173 -55 285 1 61 4 130 8 152 l6 39 79 -122 c43
-67 111 -173 152 -234 41 -62 75 -117 78 -123 2 -5 6 -7 10 -4 7 7 -59 114
-238 387 -81 121 -88 137 -93 193 -4 43 -3 60 5 58 6 -2 51 -42 99 -90 139
-135 403 -368 403 -356 0 3 -66 65 -147 138 -210 190 -333 310 -349 341 -14
28 -19 68 -8 68 4 0 66 -38 138 -83 72 -46 154 -97 181 -112 28 -16 105 -65
173 -108 67 -44 125 -78 127 -75 5 5 -183 130 -381 253 -78 49 -163 103 -188
122 -43 31 -46 36 -46 79 0 45 0 46 28 39 35 -9 156 -32 535 -100 49 -9 93
-15 99 -13 5 2 -69 19 -164 37 -95 19 -245 48 -333 66 l-160 31 -3 35 -3 35
93 12 c51 7 188 21 303 32 116 12 246 27 290 34 44 8 95 14 114 15 l34 1 -6
-137z m180 32 c0 -48 -5 -109 -12 -134 -7 -25 -17 -71 -20 -101 -4 -30 -12
-66 -17 -80 -15 -40 -26 -5 -16 53 5 29 6 75 3 104 -4 28 -1 69 5 91 5 22 11
64 11 94 1 51 12 71 34 65 6 -2 11 -43 12 -92z m-2704 -69 c6 -109 5 -121 -12
-133 -24 -16 -39 -109 -22 -126 7 -7 26 -17 43 -23 29 -9 35 -19 66 -113 l34
-102 -21 -20 c-14 -14 -21 -32 -21 -59 0 -52 22 -73 69 -65 35 6 38 4 60 -37
14 -24 44 -74 68 -111 43 -67 43 -69 24 -85 -26 -23 -37 -94 -18 -111 17 -14
69 -17 114 -7 27 6 37 2 80 -36 26 -24 61 -53 76 -65 23 -18 27 -26 21 -50 -4
-15 -11 -33 -16 -40 -24 -30 37 -83 94 -83 30 0 41 5 55 28 9 15 18 29 19 30
4 5 107 -34 155 -59 29 -15 40 -25 36 -37 -3 -9 -10 -30 -15 -47 -6 -16 -27
-91 -47 -165 -20 -74 -44 -158 -53 -187 l-15 -52 -66 -3 c-57 -3 -66 -6 -66
-22 0 -10 -7 -23 -16 -29 -12 -8 -28 -1 -70 30 -30 22 -63 50 -73 62 -12 13
-22 18 -26 11 -10 -16 -198 173 -262 265 -31 44 -74 114 -97 155 -42 78 -116
286 -126 355 -3 22 -14 88 -24 148 -10 59 -15 107 -10 107 4 0 10 -15 14 -32
12 -61 36 -140 41 -135 3 2 -12 69 -33 148 l-37 144 -1 255 c0 140 4 298 8
352 l9 96 27 -16 c28 -15 28 -18 34 -136z m1657 48 c0 -28 0 -28 -100 -8 -42
9 -2 -14 47 -27 35 -9 43 -16 48 -41 11 -48 -7 -50 -64 -7 -29 22 -55 38 -58
36 -6 -7 22 -33 72 -67 41 -28 64 -64 51 -77 -3 -4 -16 3 -29 14 -39 36 -53
37 -21 2 18 -19 37 -44 43 -56 13 -25 15 -83 3 -83 -4 0 -22 24 -40 53 -18 28
-48 70 -68 92 -43 47 -33 28 55 -104 l56 -84 5 -139 c3 -77 3 -142 1 -144 -6
-5 -120 330 -126 366 -4 30 -41 138 -56 163 -16 28 -5 30 35 7 l37 -20 -21 28
c-17 23 -18 32 -9 65 5 20 7 42 4 47 -4 6 21 10 64 10 70 0 71 0 71 -26z
m-502 -19 c-1 -10 -10 -21 -18 -25 -8 -4 -26 -13 -40 -20 -105 -57 -168 -88
-187 -94 -22 -7 -23 -6 -18 55 3 34 7 64 9 67 2 2 23 6 45 9 l41 6 0 -37 c0
-20 5 -36 10 -36 6 0 8 15 4 40 -7 44 -5 45 84 54 24 3 46 7 50 10 10 10 24
-11 20 -29z m-330 -112 l-3 -78 -228 -114 c-125 -63 -226 -116 -223 -118 5 -6
241 104 354 164 46 25 90 42 97 39 10 -4 13 -23 10 -83 -3 -43 -7 -93 -10
-110 -3 -18 -2 -33 2 -33 4 0 7 -42 5 -92 -2 -51 1 -132 5 -181 9 -85 8 -89
-19 -135 -15 -26 -28 -51 -28 -55 0 -17 18 4 34 38 20 42 31 39 41 -12 7 -40
43 -121 73 -163 20 -28 27 -32 -113 58 -117 76 -253 204 -295 278 -16 29 -34
56 -41 60 -6 3 1 -14 16 -40 34 -59 27 -69 -12 -19 -98 124 -161 246 -141 270
6 8 3 18 -10 31 -30 30 -101 269 -87 292 2 4 37 10 77 14 70 6 191 24 348 51
41 7 92 14 113 14 l38 1 -3 -77z m326 37 c-2 -45 -3 -50 -12 -50 -5 0 -55 -45
-112 -100 -57 -55 -107 -100 -112 -100 -4 0 -8 -4 -8 -10 0 -5 -4 -10 -10 -10
-6 0 -9 27 -9 63 l1 62 14 -50 13 -50 -1 55 c-1 62 -7 78 -19 59 -6 -11 -9 -9
-9 7 0 16 23 33 113 78 61 32 116 62 122 67 18 17 30 9 29 -21z m286 -42 c0
-27 27 -113 92 -293 28 -77 58 -167 68 -200 10 -33 39 -121 65 -195 26 -74 61
-178 77 -230 53 -165 121 -361 159 -455 4 -11 17 -49 29 -85 12 -36 35 -96 51
-134 16 -37 29 -70 29 -73 0 -2 -14 -3 -32 -1 -32 3 -32 4 -83 158 -335 1003
-442 1334 -461 1415 -4 17 -12 37 -19 45 -31 38 -28 70 6 70 13 0 19 -7 19
-22z m-100 5 c0 -5 -12 -53 -26 -108 -15 -55 -33 -129 -41 -165 -7 -36 -36
-134 -63 -219 -28 -84 -50 -162 -50 -172 0 -10 -5 -21 -10 -24 -6 -4 -10 -12
-8 -18 3 -20 -13 -97 -22 -102 -5 -3 -11 -23 -15 -45 -4 -22 -10 -40 -13 -40
-4 0 -8 -14 -9 -32 -1 -18 -10 -36 -18 -41 -10 -5 -15 -20 -14 -35 1 -15 -1
-34 -4 -42 -3 -8 -10 -35 -16 -60 -5 -25 -19 -79 -30 -120 -12 -41 -28 -104
-36 -140 -8 -36 -26 -108 -40 -160 -14 -52 -25 -107 -25 -122 0 -24 -3 -26
-50 -30 -49 -3 -62 6 -41 28 5 5 21 50 36 99 29 99 52 169 65 200 22 53 172
534 200 640 17 66 44 156 60 200 15 44 40 127 54 185 49 196 91 330 104 330 6
0 12 -3 12 -7z m-187 -55 c-3 -18 -22 -59 -41 -92 -19 -34 -38 -71 -43 -83
-12 -33 -26 -28 -21 6 2 16 0 31 -5 34 -4 3 -8 -11 -7 -31 0 -21 -6 -48 -15
-62 -8 -14 -25 -46 -38 -72 -27 -56 -34 -60 -28 -15 4 25 3 28 -4 12 -5 -11
-10 -29 -10 -40 -1 -11 -12 -42 -26 -70 l-25 -50 1 115 c1 120 6 163 19 155 4
-2 5 -48 3 -102 -3 -65 -1 -93 5 -83 6 8 10 41 10 73 -1 31 2 60 6 64 3 4 4
20 1 37 -5 24 -2 34 14 44 19 11 21 10 22 -10 1 -40 8 -80 14 -87 4 -3 5 22 3
56 -3 69 -7 63 91 157 33 32 61 63 61 68 0 4 4 8 10 8 5 0 7 -13 3 -32z m271
-139 c20 -64 36 -120 36 -126 0 -5 29 -92 65 -194 36 -101 68 -200 71 -220 6
-34 5 -36 -34 -47 -49 -15 -119 -15 -161 -1 l-31 11 -1 86 c0 48 -1 191 -1
317 0 181 -2 218 -9 175 -6 -30 -9 -169 -7 -308 2 -138 0 -252 -4 -252 -20 0
-78 66 -97 110 l-22 51 26 92 c27 97 67 239 91 322 8 28 17 65 21 83 3 18 9
30 13 25 4 -4 24 -60 44 -124z m1156 45 c23 -53 26 -93 8 -116 -16 -19 -120
-89 -126 -83 -6 6 28 104 38 110 5 3 12 27 16 53 7 52 20 82 34 82 5 0 18 -21
30 -46z m-1420 -24 c0 -36 -4 -60 -11 -60 -7 0 -8 12 -4 33 5 24 4 28 -4 17
-14 -20 -14 -57 0 -62 14 -5 -132 -308 -149 -308 -8 0 -10 -8 -6 -24 4 -17 -1
-31 -15 -45 -12 -12 -21 -29 -21 -39 0 -10 -7 -27 -16 -38 -15 -18 -15 -18 -9
4 4 13 4 45 0 70 -7 44 -8 46 -18 22 l-10 -25 -5 24 c-2 13 2 27 9 31 7 5 13
19 15 32 1 12 10 37 18 53 16 30 16 29 11 -35 -4 -36 -8 -72 -11 -82 -3 -9 0
-19 6 -23 12 -7 22 15 25 54 4 54 4 54 19 42 11 -9 15 -4 19 27 4 21 2 53 -3
72 -13 47 6 100 56 158 21 25 51 71 67 104 16 32 31 58 33 58 2 0 4 -27 4 -60z
m-952 -99 c66 -34 103 -60 85 -61 -18 0 -16 -20 1 -20 8 0 16 -6 19 -13 6 -16
-19 -52 -27 -39 -3 5 -31 13 -61 17 -59 7 -74 19 -96 83 -8 25 -8 36 1 47 16
19 11 20 78 -14z m958 -38 c-4 -16 -9 -47 -11 -70 -11 -90 -88 -369 -108 -390
-4 -3 -7 -14 -7 -24 0 -10 -5 -30 -12 -46 -6 -15 -12 -32 -12 -38 -1 -5 -5
-21 -10 -34 -9 -26 -22 -18 -30 19 -3 14 -13 50 -22 81 l-16 55 33 72 c18 40
36 72 41 72 4 0 8 -2 8 -4 0 -2 3 -12 7 -22 4 -11 3 -15 -4 -11 -7 4 -13 -11
-18 -41 -4 -26 -11 -55 -17 -65 -13 -25 0 -103 15 -88 6 6 10 26 9 46 -1 21 3
33 8 30 6 -4 10 8 10 27 1 18 9 51 20 73 11 22 19 49 19 60 0 11 -3 14 -6 8
-2 -7 -12 -13 -21 -13 -14 0 -14 2 -3 9 9 6 11 18 7 35 -3 14 -2 34 3 43 5 10
33 69 62 130 30 62 56 113 58 113 2 0 0 -12 -3 -27z m1444 -11 c0 -10 -14 -47
-30 -81 -17 -35 -29 -66 -26 -68 7 -8 -18 -55 -82 -151 -48 -71 -59 -82 -76
-76 -40 13 -119 17 -112 5 4 -6 15 -11 25 -11 10 0 24 -7 31 -15 10 -12 16
-13 27 -4 20 18 28 2 13 -26 -18 -33 -134 -155 -149 -155 -7 0 -8 8 -1 24 5
13 7 37 5 53 -2 15 -4 33 -5 38 0 6 -6 2 -13 -7 -7 -9 -29 -18 -48 -21 -31 -3
-30 -4 10 -5 37 -2 42 -5 36 -19 -16 -38 -17 -54 -6 -67 9 -11 3 -21 -31 -51
-24 -20 -52 -40 -63 -45 -11 -4 -62 -1 -113 7 -83 12 -95 12 -109 -2 -9 -9
-23 -13 -35 -9 -17 5 -18 4 -6 -15 13 -22 28 -28 28 -12 0 13 127 22 175 13
l40 -8 -61 -41 c-34 -23 -74 -45 -90 -49 -16 -4 -37 -13 -46 -22 -16 -14 -19
-12 -33 21 -8 20 -15 42 -15 50 0 7 -4 17 -9 23 -5 5 -11 19 -13 32 -3 20 5
26 54 46 31 13 87 46 124 74 65 48 91 60 65 28 -9 -11 -10 -20 -2 -35 6 -11
11 -30 11 -43 0 -25 16 -56 24 -47 3 2 0 23 -5 45 -19 72 -2 114 75 194 68 70
93 85 61 36 -10 -14 -13 -26 -7 -26 14 0 42 46 42 70 0 11 4 20 9 20 5 0 13
10 18 23 14 40 88 147 101 147 15 0 16 -12 0 -28 -10 -10 -10 -15 2 -22 8 -6
21 -8 28 -5 6 2 12 0 12 -5 0 -6 5 -10 10 -10 6 0 10 6 10 14 0 7 13 19 30 26
35 15 60 40 39 40 -8 0 -27 -9 -44 -20 -38 -25 -38 -25 -57 8 -16 26 -15 30 2
70 11 23 26 42 35 42 8 0 37 16 63 35 52 39 82 45 82 17z m-2327 -122 l-2 -25
16 23 c8 12 19 22 23 22 10 0 90 -115 90 -129 0 -14 -2 -14 -37 0 -15 6 -41
12 -57 15 -15 2 -34 8 -41 14 -7 6 -19 9 -26 8 -7 -2 -26 21 -42 50 l-29 53
54 -3 c50 -3 53 -5 51 -28z m17 -110 c14 -7 20 -26 25 -75 4 -36 11 -65 16
-65 5 0 7 10 5 23 -17 80 -17 97 -1 104 9 3 32 -1 50 -10 32 -15 32 -16 40
-109 5 -51 9 -96 9 -100 1 -3 5 -10 9 -15 5 -4 6 37 2 92 l-6 100 58 -65 c79
-89 174 -182 209 -206 38 -26 230 -114 249 -114 20 0 19 -19 -6 -95 -23 -72
-30 -75 -89 -45 -22 11 -45 20 -52 20 -7 0 -39 20 -71 45 -35 26 -65 41 -74
38 -12 -5 -13 -2 -5 13 7 13 6 38 -3 79 -8 38 -9 64 -3 72 11 14 2 17 -131 32
-51 7 -98 17 -105 24 -84 91 -186 233 -186 261 0 9 39 7 60 -4z m2320 -17 c0
-15 -2 -16 -10 -3 -12 19 -13 4 -1 -19 6 -10 6 -46 0 -92 -16 -129 -18 -142
-66 -314 -3 -11 -9 -24 -13 -30 -4 -5 -20 -43 -34 -84 -79 -221 -231 -423
-393 -525 -50 -31 -53 -31 -53 -10 0 9 -6 28 -14 42 -28 53 -144 418 -135 426
9 9 143 66 153 66 6 0 22 -12 35 -25 18 -20 33 -25 72 -25 45 0 51 3 60 27 6
15 8 35 6 45 -3 10 -1 18 4 18 18 0 9 17 -16 30 -14 7 -25 19 -25 26 0 12 104
112 146 140 16 11 32 12 61 6 61 -14 94 7 90 56 -2 20 -8 47 -15 60 -15 26
-12 31 55 135 35 52 50 67 69 67 16 0 24 -6 24 -17z m-1394 -100 c4 -16 8 -32
9 -38 1 -5 11 -29 23 -52 12 -23 22 -58 22 -78 0 -22 4 -34 10 -30 6 3 10 17
10 30 0 18 4 23 15 19 21 -8 19 -24 -10 -65 -13 -20 -21 -40 -17 -44 4 -4 -3
-3 -15 4 -35 18 -50 12 -24 -10 23 -19 23 -20 5 -41 -19 -20 -19 -21 4 -14 25
8 28 1 8 -20 -26 -26 -39 -17 -33 24 5 27 4 33 -4 20 -9 -17 -12 -17 -35 -2
-23 16 -24 18 -9 40 17 27 20 48 5 39 -6 -4 -8 -11 -5 -16 4 -5 -3 -9 -14 -9
-14 0 -19 -5 -15 -15 4 -8 2 -15 -4 -15 -6 0 -8 -9 -5 -21 4 -12 11 -18 20
-15 15 6 61 -30 51 -39 -7 -7 -74 20 -95 36 -7 6 -9 16 -5 23 4 6 12 27 18 46
6 19 15 34 20 33 5 -1 9 15 10 35 1 21 4 51 8 67 3 17 12 54 18 83 13 58 22
65 34 25z m-654 -188 c58 -6 58 -6 69 -48 11 -40 14 -95 7 -103 -7 -6 -105 64
-141 99 -18 18 -40 36 -50 40 -31 12 -18 25 21 21 20 -2 63 -6 94 -9z m1152
-256 c14 -39 24 -74 22 -78 -9 -14 -117 -35 -124 -25 -4 6 -16 14 -27 18 -33
12 -175 98 -175 106 0 9 59 19 115 21 22 0 65 7 95 14 30 7 58 13 61 14 4 0
18 -31 33 -70z m-583 30 c30 -6 86 -12 124 -14 39 -2 72 -5 75 -5 3 0 -9 -9
-25 -18 -17 -9 -56 -34 -87 -55 l-56 -39 -41 26 c-56 36 -64 33 -13 -5 40 -29
56 -53 30 -44 -7 2 -33 9 -56 15 -44 11 -44 11 -37 48 6 33 26 102 31 102 1 0
26 -5 55 -11z m349 -75 c85 -56 98 -68 83 -77 -16 -10 -259 -18 -332 -11 -42
4 -69 9 -61 12 8 3 42 26 75 52 33 26 68 50 78 53 9 4 17 11 17 17 0 26 61 7
140 -46z m286 -122 c8 -37 -6 -42 -36 -12 -12 12 -20 15 -20 8 1 -25 27 -48
51 -46 22 3 27 -8 81 -167 32 -93 58 -170 58 -170 0 0 -221 -1 -490 -2 -270
-2 -490 0 -490 4 0 3 16 68 35 144 19 76 35 140 35 142 0 2 11 16 25 31 27 29
32 47 13 44 -12 -3 -13 30 -2 41 2 2 45 -1 96 -8 51 -6 111 -14 134 -17 37 -4
41 -7 36 -29 -3 -19 4 -32 28 -55 41 -39 90 -41 125 -5 30 29 31 42 8 68 -10
11 -13 17 -6 13 7 -4 23 0 35 8 13 8 73 19 133 26 61 6 114 15 120 21 13 13
23 -1 31 -39z m12 -428 l263 -6 -73 -32 c-40 -17 -93 -38 -118 -45 -25 -8 -63
-20 -86 -27 -22 -7 -115 -23 -207 -35 -138 -20 -164 -26 -154 -37 9 -12 -6
-13 -98 -7 -61 3 -155 11 -210 16 -248 25 -244 24 -354 81 -57 29 -104 58
-104 63 0 6 9 15 20 20 24 13 755 19 1121 9z"/>
<path d="M4535 4428 c-3 -13 -5 -41 -4 -63 2 -67 -24 -229 -41 -250 -4 -5 -4
-19 0 -30 4 -11 5 -26 3 -32 -3 -7 -1 -13 5 -13 5 0 12 14 14 30 3 17 0 30 -5
30 -6 0 -7 3 -4 6 4 4 13 1 22 -6 13 -10 15 -9 15 8 0 12 4 24 10 27 5 3 10
16 10 28 0 12 1 48 1 80 1 50 3 55 14 40 9 -11 10 -22 4 -27 -13 -15 -11 -23
7 -23 12 0 14 7 10 30 -3 16 -6 36 -6 44 0 8 -4 12 -9 9 -18 -11 -30 21 -28
77 3 57 -8 77 -18 35z"/>
<path d="M3276 5703 c-9 -42 -54 -385 -65 -498 -17 -164 -20 -225 -11 -225 12
0 18 37 30 180 6 69 15 154 20 190 5 36 12 90 15 120 3 30 7 69 10 85 2 17 7
50 10 75 3 25 7 57 10 73 3 15 1 27 -4 27 -5 0 -12 -12 -15 -27z"/>
<path d="M14556 8020 c4 -8 16 -27 26 -42 26 -37 23 -48 -14 -49 l-33 -2 35
-6 c27 -5 35 -11 33 -26 -1 -11 -5 -283 -8 -605 -4 -322 -9 -634 -10 -695 -2
-60 -4 -139 -4 -175 0 -36 2 -465 3 -955 2 -611 0 -894 -7 -903 -7 -9 -7 -16
-1 -20 7 -5 11 -248 12 -699 2 -651 1 -692 -15 -696 -10 -2 -26 3 -35 11 -16
13 -18 13 -18 -1 0 -9 5 -19 10 -22 6 -3 10 -15 10 -26 0 -10 5 -19 11 -19 6
0 8 9 4 20 -4 13 -2 20 6 20 16 0 69 -50 69 -64 0 -6 -7 -2 -15 8 -14 18 -15
19 -15 2 0 -14 -5 -17 -24 -12 -14 3 -27 2 -30 -3 -9 -14 16 -19 41 -10 13 5
25 4 28 -1 4 -6 1 -10 -4 -10 -6 0 -11 -4 -11 -10 0 -5 6 -10 14 -10 20 0 137
-110 130 -121 -3 -5 1 -9 9 -9 15 0 63 -65 84 -114 7 -15 13 -63 14 -105 0
-79 17 -76 18 4 1 49 19 117 30 111 4 -3 67 -6 139 -7 73 -1 132 -6 132 -10 0
-5 -11 -9 -24 -9 -14 0 -28 -5 -32 -12 -4 -6 -3 -8 2 -5 20 12 140 21 569 42
55 2 159 5 230 6 129 1 145 16 20 18 -65 1 -78 6 -88 34 -9 23 -27 22 -27 -3
0 -14 -7 -20 -22 -20 -17 0 -19 3 -10 12 7 7 12 42 12 85 0 86 -22 79 193 58
91 -9 156 -11 170 -5 16 6 3 9 -49 9 -39 1 -89 7 -111 15 -24 8 -74 14 -119
13 -76 -1 -79 0 -82 22 -4 23 -2 24 44 17 26 -3 77 -6 113 -6 45 0 61 -3 51
-10 -8 -5 -12 -11 -9 -14 3 -3 79 -8 169 -10 90 -3 199 -8 243 -12 56 -5 78
-4 73 4 -3 6 -2 13 3 16 5 4 33 -17 63 -45 29 -28 72 -67 96 -87 24 -19 48
-44 53 -54 11 -21 22 -19 -156 -18 -27 0 -63 -4 -80 -9 -30 -9 -7 -11 219 -15
l59 -1 50 -98 c27 -53 52 -95 55 -93 2 3 -12 41 -33 85 -43 92 -43 121 1 76
16 -17 42 -46 56 -65 15 -19 29 -32 33 -29 3 3 -10 26 -29 50 -19 24 -34 45
-32 46 1 1 113 0 249 -4 l247 -6 0 -66 c0 -82 18 -71 22 14 3 59 3 60 33 60
17 0 36 4 44 9 8 5 50 12 93 14 l78 5 2 -109 c0 -60 1 -115 1 -121 -1 -7 3
-13 8 -13 5 0 9 48 9 108 0 59 4 113 9 121 6 10 38 13 125 14 71 0 113 4 107
10 -8 8 -44 11 -193 16 l-36 1 5 63 c3 34 6 239 6 455 2 339 0 394 -13 402
-13 8 -15 42 -13 222 2 117 4 252 5 301 2 48 1 87 -2 87 -10 0 -11 28 -15 485
-4 468 -14 738 -25 695 -4 -18 -13 -25 -30 -25 -24 0 -24 1 -23 88 0 49 3 91
6 93 3 3 15 1 26 -6 29 -15 28 6 -1 31 l-23 20 23 -6 c13 -4 22 -2 22 4 0 6 4
11 9 11 17 0 30 -388 30 -953 1 -363 9 -463 25 -318 12 102 8 960 -5 1021 -6
30 -9 107 -7 170 7 277 -2 686 -17 709 -4 7 -1 19 7 28 11 13 13 129 11 620
-2 491 0 604 11 600 7 -3 19 -1 27 4 11 7 11 9 -3 9 -10 0 -26 9 -36 20 -10
11 -35 32 -54 48 -20 15 -83 68 -141 117 -153 131 -187 158 -195 151 -3 -4 -1
-16 6 -27 7 -11 10 -24 7 -29 -4 -6 -1 -10 5 -10 11 0 117 -85 262 -212 11 -9
25 -15 32 -12 7 3 18 -2 25 -10 11 -13 5 -14 -41 -9 -78 9 -579 8 -759 -1
l-157 -8 -45 56 c-24 30 -80 88 -123 127 -44 40 -80 76 -82 80 -1 3 176 6 395
5 219 0 410 2 426 7 47 13 29 27 -36 27 -35 0 -67 3 -71 7 -13 13 -749 -8
-764 -22 -1 -1 2 -13 7 -27 5 -13 5 -31 1 -39 -11 -20 -25 -258 -24 -409 1
-124 3 -925 2 -967 0 -13 -5 -23 -10 -23 -6 0 -9 -23 -6 -60 5 -73 0 -65 -51
77 -21 59 -55 146 -75 193 -50 114 -49 111 -86 225 -18 55 -60 163 -93 240
-33 77 -84 203 -114 280 -30 77 -63 154 -73 172 -11 18 -15 35 -10 38 5 3 11
1 15 -5 7 -12 25 -13 25 -2 0 5 -17 17 -37 28 -21 11 -53 40 -71 64 -18 25
-40 53 -48 63 -16 20 -18 31 -4 22 6 -3 10 -1 10 5 0 6 -10 14 -23 19 -22 8
-100 94 -93 102 2 2 -12 17 -30 32 l-34 29 7 -33 c3 -19 15 -42 25 -53 10 -11
21 -29 24 -40 4 -12 32 -48 63 -82 111 -120 120 -133 100 -139 -11 -4 -23 -4
-27 -1 -5 3 -192 6 -416 7 l-406 1 -35 41 c-20 23 -48 64 -64 92 -16 27 -43
66 -60 85 -17 19 -31 38 -31 42 0 7 502 2 723 -6 80 -4 107 -2 104 7 -6 18
-104 24 -497 32 l-355 7 -27 31 c-16 17 -28 27 -28 22 0 -5 10 -19 22 -32 12
-13 16 -23 10 -23 -11 0 -37 26 -78 76 -9 10 -12 12 -8 4z m1935 -287 c66 -65
117 -123 115 -130 -3 -7 0 -15 5 -19 6 -3 8 -16 4 -28 -3 -11 -8 -68 -10 -126
-2 -58 -4 -107 -5 -110 -1 -3 -1 -93 0 -202 1 -186 0 -197 -18 -202 -12 -4
-22 -19 -26 -38 -10 -48 -7 -148 4 -148 6 0 10 35 10 85 0 67 3 85 14 85 22 0
26 -27 21 -125 -2 -49 -5 -131 -6 -182 -1 -71 -5 -93 -15 -93 -10 0 -15 15
-16 48 -2 75 -3 80 -12 89 -4 4 -7 -5 -6 -22 4 -62 0 -115 -10 -115 -5 0 -10
9 -10 20 0 11 -5 20 -11 20 -6 0 -9 7 -6 15 4 8 0 27 -8 42 -8 15 -15 34 -15
41 0 6 -5 12 -10 12 -7 0 -9 -18 -5 -51 5 -40 13 -58 40 -86 20 -20 38 -33 41
-30 4 3 16 2 26 -4 19 -10 20 -18 14 -97 -9 -123 -9 -122 -23 -122 -7 0 -13
-11 -13 -25 0 -14 -6 -25 -13 -25 -9 0 -14 16 -16 46 -1 26 -6 69 -12 97 -5
27 -9 67 -9 88 0 22 -4 39 -10 39 -5 0 -7 6 -4 13 3 8 -7 25 -21 40 -23 22
-27 36 -30 99 -6 100 -15 141 -30 126 -8 -7 -8 -127 -1 -245 3 -57 4 -103 1
-103 -5 0 -35 56 -35 66 0 3 7 1 15 -6 12 -10 13 -7 5 20 -5 18 -9 35 -8 39 1
3 -2 17 -6 30 -6 16 -4 26 5 32 11 8 11 12 -3 23 -18 14 -25 32 -9 22 14 -9
20 16 9 37 -6 11 -5 17 2 17 6 0 9 4 6 8 -16 26 -29 332 -14 332 5 0 6 5 3 10
-3 6 -8 171 -11 368 -2 196 -6 376 -10 400 -3 23 -2 42 2 42 3 0 60 -53 125
-117z m-1797 0 c26 -38 56 -80 68 -95 20 -25 22 -41 24 -215 2 -230 2 -223 13
-223 5 0 8 90 7 200 0 110 2 200 6 200 12 0 -31 67 -76 118 -66 75 -74 91 -19
37 28 -27 72 -70 97 -94 48 -46 54 -59 35 -78 -6 -6 -8 -16 -5 -22 4 -6 7
-154 6 -328 -6 -2434 -10 -3256 -17 -3265 -4 -7 -6 -25 -5 -40 2 -23 -2 -28
-20 -29 -13 0 -17 -3 -10 -6 6 -2 12 -11 12 -19 0 -8 4 -14 9 -14 6 0 8 -17 6
-37 -1 -21 -3 -50 -4 -65 -2 -47 -18 -31 -19 18 -1 50 -9 84 -20 84 -4 0 -8
-88 -10 -197 -1 -108 -4 -199 -7 -201 -13 -14 -17 19 -20 174 -2 104 -7 169
-14 173 -13 8 -12 81 1 81 5 0 7 -13 3 -29 -3 -16 -2 -32 3 -35 5 -3 12 12 16
34 3 22 11 40 16 40 6 0 10 10 9 23 l0 22 -9 -22 c-16 -39 -42 -24 -47 27 -7
60 -8 69 -14 75 -4 3 -6 -64 -5 -149 1 -86 -2 -152 -6 -148 -10 10 -19 168
-20 362 -1 242 0 250 16 244 11 -4 13 0 9 15 -3 11 -9 18 -14 15 -5 -3 -9 5
-9 17 0 21 1 22 20 4 23 -21 26 -9 5 19 -8 11 -13 28 -9 38 4 13 1 16 -11 12
-13 -5 -14 -2 -5 20 5 14 6 26 1 26 -5 0 -12 7 -15 16 -3 8 -2 13 3 10 5 -4 7
3 4 15 -3 12 0 25 7 29 16 10 20 79 5 77 -5 -1 -10 5 -10 13 0 8 6 14 13 12 8
-1 4 9 -9 27 -12 17 -18 34 -14 42 6 8 4 10 -5 4 -8 -5 -11 -3 -8 6 3 8 16 13
29 12 22 -3 23 -2 7 11 -21 15 -23 37 -6 54 8 8 8 15 -1 26 -9 11 -9 15 1 18
9 3 9 6 0 12 -7 4 -15 0 -19 -10 -4 -10 -2 -19 5 -22 7 -2 12 -9 12 -15 -1 -7
-9 -2 -19 10 -14 17 -18 41 -19 110 -1 48 -4 201 -7 338 -4 138 -6 268 -6 290
0 22 -1 69 -1 105 -5 232 -2 929 5 1045 5 77 8 169 8 205 -1 36 3 79 8 97 5
17 7 34 4 37 -3 3 -7 132 -8 288 -1 156 -6 318 -10 361 -5 49 -4 77 3 77 5 0
31 -30 56 -67z m1073 -125 c6 -7 13 -26 17 -43 4 -16 10 -39 13 -50 5 -18 4
-18 -11 -6 -10 8 -27 33 -38 55 -12 23 -23 35 -25 28 -3 -7 22 -56 54 -111 33
-54 81 -149 108 -212 112 -263 135 -320 176 -429 24 -63 46 -117 49 -120 10
-8 31 -65 33 -91 1 -13 13 -46 26 -74 37 -77 37 -78 101 -274 33 -101 76 -220
94 -265 19 -45 50 -132 70 -195 84 -261 233 -567 262 -539 3 3 -7 39 -21 79
-24 65 -27 92 -30 224 -4 194 -5 390 -2 438 1 20 -1 37 -4 37 -4 0 -4 33 -2
73 5 70 6 81 4 122 -1 11 1 124 4 250 3 127 7 415 9 640 2 226 5 421 5 435 l1
25 324 2 324 2 6 -32 c8 -45 12 -2030 8 -3512 -2 -423 0 -819 3 -880 3 -60 7
-170 10 -242 l4 -133 -228 0 c-125 0 -256 3 -290 6 -55 6 -61 9 -61 29 0 17 6
23 26 23 17 0 24 -5 20 -14 -3 -7 -1 -16 4 -19 6 -4 10 -1 10 4 0 14 43 14 57
0 8 -8 16 -8 30 0 16 9 16 10 1 11 -11 0 -15 5 -12 15 4 8 1 15 -5 15 -6 0
-11 -4 -11 -9 0 -9 -28 -6 -60 6 -8 4 -22 5 -31 4 -16 -2 -69 52 -69 70 0 19
100 -4 142 -33 30 -21 45 -24 30 -5 -6 6 -9 29 -8 50 1 21 -2 41 -6 43 -5 3
-8 14 -8 25 0 11 -5 17 -10 14 -6 -4 -8 -27 -5 -56 6 -52 2 -58 -24 -34 -14
12 -47 20 -108 27 -7 1 -13 5 -13 10 0 19 -2 24 -17 40 -9 10 -13 25 -9 35 4
9 4 14 0 10 -7 -7 -15 11 -79 188 -18 50 -46 117 -63 151 -17 33 -37 85 -46
115 -40 134 -173 483 -208 547 -10 18 -18 46 -18 63 0 16 -7 40 -15 52 -8 13
-16 32 -18 42 -2 11 -14 42 -25 68 -12 27 -22 55 -22 63 0 8 -16 50 -36 92
-54 117 -61 131 -88 207 -46 129 -124 339 -165 445 -60 152 -78 209 -87 265
-4 28 -10 42 -12 33 -5 -25 -30 -22 -38 5 -3 12 -22 36 -42 52 l-36 30 20 -34
c10 -18 31 -47 46 -63 28 -30 29 -60 2 -37 -23 19 -27 3 -8 -26 14 -22 16 -40
10 -118 -7 -96 -9 -349 -7 -1082 1 -432 -5 -1131 -10 -1150 -1 -6 0 -21 4 -35
3 -14 8 -46 10 -72 l5 -48 -434 0 -434 0 -1 28 c0 15 -2 70 -4 122 -2 87 -5
1217 -4 2052 0 191 3 349 7 352 4 2 5 165 2 363 -7 532 -6 1800 2 1808 7 7 26
9 193 20 50 3 108 8 130 11 22 4 146 12 275 19 129 7 242 13 251 14 9 0 21 -5
26 -11z m1716 -1099 c-4 -12 0 -19 10 -19 8 0 17 -7 21 -15 8 -21 -5 -208 -15
-219 -6 -6 -9 -5 -9 2 0 6 -11 11 -25 10 -20 -2 -24 -6 -19 -23 4 -11 3 -17
-1 -13 -5 4 -14 3 -22 -3 -9 -8 -13 -8 -13 -1 0 6 4 13 9 17 6 3 4 17 -5 33
-19 38 -20 188 0 195 26 10 37 -20 35 -95 -1 -40 2 -73 7 -73 5 0 9 42 10 93
0 51 -4 92 -9 92 -5 0 -4 6 2 14 6 8 11 18 10 22 -3 20 2 28 10 15 5 -7 6 -22
4 -32z m30 -309 c3 -11 2 -18 -2 -15 -5 2 -8 -10 -9 -27 0 -21 2 -28 8 -19 12
21 18 -18 7 -51 -5 -15 -7 -76 -4 -137 5 -117 -1 -143 -27 -122 -8 7 -13 18
-10 26 3 7 1 16 -5 20 -6 3 -11 16 -12 28 0 12 -3 16 -6 10 -2 -7 -16 -13 -29
-13 -25 0 -25 1 -22 83 3 74 5 82 23 82 18 0 21 -9 26 -70 4 -49 6 -58 8 -30
1 22 4 54 7 70 2 17 6 48 8 70 11 103 27 142 39 95z m-35 -887 c-2 -9 3 -18
10 -20 7 -3 12 6 13 24 0 24 9 21 11 -4 1 -5 8 -14 17 -21 14 -11 14 -12 1
-11 -36 3 -51 -1 -43 -13 7 -12 16 -122 25 -340 2 -48 1 -83 -3 -77 -4 7 -12
8 -18 5 -16 -10 -14 -26 4 -26 12 0 15 -15 14 -77 -1 -101 4 -114 42 -106 30
6 37 -5 17 -25 -8 -8 -15 -9 -25 -1 -10 9 -13 8 -13 -5 0 -20 -16 -21 -24 0
-3 8 -10 13 -15 10 -22 -14 -30 24 -26 127 3 68 0 107 -6 107 -6 0 -8 4 -5 9
5 8 16 89 19 141 1 14 -4 24 -10 23 -7 -2 -10 4 -7 12 4 8 9 15 13 15 3 0 4
33 0 73 -3 39 -4 85 -3 101 3 21 -2 29 -16 33 -24 6 -26 19 -5 27 8 3 15 15
15 26 0 12 4 18 10 15 6 -4 9 -14 8 -22z m-1659 -655 c36 -101 82 -220 102
-263 10 -22 37 -89 60 -150 23 -60 52 -137 64 -170 13 -33 53 -143 90 -245 37
-102 78 -213 91 -247 13 -34 21 -68 18 -77 -3 -8 3 -31 15 -49 18 -30 98 -227
116 -287 6 -22 1 -19 -40 20 -26 25 -43 36 -37 24 6 -11 18 -26 26 -34 22 -18
20 -30 -6 -31 -22 0 -22 -1 -3 -8 11 -5 24 -6 28 -4 16 10 62 -18 82 -49 39
-62 44 -72 38 -78 -3 -3 -8 1 -10 8 -3 6 -11 12 -19 12 -8 0 -14 4 -14 9 0 17
-67 23 -290 27 -124 2 -249 6 -277 10 l-53 5 1 470 c0 258 -3 627 -6 819 -4
193 -5 350 -2 350 2 0 14 -28 26 -62z m375 -513 c7 -5 20 -30 29 -55 39 -108
68 -181 91 -230 14 -29 23 -57 20 -61 -3 -5 1 -19 8 -31 6 -13 13 -29 14 -36
1 -8 9 -19 17 -25 17 -14 39 -76 31 -88 -3 -5 0 -9 5 -9 6 0 11 -15 11 -32 1
-18 7 -44 15 -58 8 -14 14 -32 14 -40 0 -12 -2 -12 -6 -1 -3 8 -16 30 -29 49
-13 19 -24 41 -24 48 0 6 -15 45 -34 86 -19 40 -47 107 -61 148 -15 41 -35 93
-45 115 -9 22 -27 67 -40 100 -12 33 -29 74 -37 91 -10 21 -12 40 -7 55 7 22
8 22 12 4 2 -11 9 -24 16 -30z m-1544 -291 c0 -16 1 -67 2 -114 1 -47 1 -98 0
-115 -4 -120 0 -400 7 -443 8 -50 0 -75 -15 -51 -12 20 -23 272 -19 429 2 80
4 192 5 250 0 71 4 100 10 89 5 -9 10 -29 10 -45z"/>
<path d="M16747 6924 c-4 -4 -7 -56 -7 -116 l0 -108 48 0 c72 0 73 2 70 121
l-3 104 -50 3 c-28 2 -54 0 -58 -4z"/>
<path d="M16740 6392 c0 -121 1 -122 65 -122 57 0 66 19 63 129 l-3 96 -62 3
-63 3 0 -109z m100 -7 l0 -95 -40 0 -40 0 0 95 0 95 40 0 40 0 0 -95z"/>
<path d="M17135 6090 c-4 -6 -9 -54 -12 -106 -7 -106 -3 -114 52 -114 75 0 75
1 75 121 l0 109 -54 0 c-30 0 -58 -5 -61 -10z m93 -107 l-3 -97 -31 -2 c-29
-1 -32 2 -38 35 -8 49 -8 146 1 154 3 4 21 7 40 7 l34 0 -3 -97z"/>
<path d="M16758 5703 c-16 -4 -18 -18 -18 -113 0 -102 1 -108 21 -113 26 -7
79 2 96 15 18 14 12 196 -7 208 -15 10 -61 11 -92 3z"/>
<path d="M16935 5702 c-3 -3 -5 -53 -5 -112 l0 -107 41 -6 c23 -3 52 -1 65 5
23 11 24 15 24 115 0 114 7 104 -77 108 -24 1 -45 0 -48 -3z m86 -22 c18 0 20
-6 17 -92 l-3 -93 -36 -3 c-36 -3 -36 -3 -43 44 -14 107 -2 162 32 149 8 -3
22 -5 33 -5z"/>
<path d="M17146 5697 c-14 -10 -19 -33 -23 -110 l-6 -96 27 -11 c15 -5 42 -6
64 -2 l37 8 3 104 c2 76 -1 106 -10 112 -20 12 -72 10 -92 -5z m79 -106 l0
-95 -35 0 -35 -1 -3 84 c-4 105 -1 113 40 109 l33 -3 0 -94z"/>
<path d="M16747 5269 c-16 -10 -17 -20 -11 -107 4 -53 12 -100 18 -104 6 -4
32 -8 59 -8 l47 0 0 113 0 113 -47 2 c-27 1 -56 -3 -66 -9z m91 -113 l-3 -91
-37 -3 c-21 -2 -38 0 -38 5 -1 4 -1 46 -2 92 -1 92 6 103 59 93 23 -4 24 -7
21 -96z"/>
<path d="M16937 5273 c-4 -3 -7 -55 -7 -114 l0 -107 29 -4 c16 -2 45 -2 65 0
l36 4 0 102 c0 66 -4 106 -12 114 -13 13 -100 17 -111 5z"/>
<path d="M17152 5270 c-22 -9 -23 -13 -20 -112 l3 -103 34 -3 c19 -2 44 -1 57
2 23 6 24 10 24 106 0 99 0 101 -26 110 -30 12 -42 12 -72 0z"/>
<path d="M16747 4844 c-4 -4 -7 -53 -7 -109 l0 -102 38 -6 c62 -10 80 -1 87
47 4 22 5 70 3 106 l-3 65 -55 3 c-31 2 -59 0 -63 -4z m87 -20 c13 -5 16 -23
16 -95 l0 -89 -40 0 c-38 0 -40 1 -41 33 -1 69 -1 133 0 145 1 13 38 16 65 6z"/>
<path d="M16944 4839 c-5 -9 -9 -124 -5 -191 1 -15 11 -18 64 -18 l62 0 1 103
c1 65 -3 105 -10 109 -17 12 -104 9 -112 -3z"/>
<path d="M16947 4444 c-4 -4 -7 -56 -7 -116 l0 -108 43 0 c90 0 88 -1 85 119
l-3 106 -55 3 c-31 2 -59 0 -63 -4z m93 -109 l0 -95 -40 0 -40 0 0 95 0 95 40
0 40 0 0 -95z"/>
<path d="M17183 4443 c-33 -4 -33 -4 -33 -62 0 -32 -3 -79 -6 -105 l-7 -46 34
0 c80 0 80 1 78 116 -1 90 -3 104 -18 102 -9 0 -31 -3 -48 -5z"/>
<path d="M16576 4022 c-8 -13 -10 -197 -2 -210 9 -15 57 -15 92 0 24 11 26 16
20 53 -3 22 -8 60 -11 85 -4 27 -15 52 -27 63 -21 17 -63 23 -72 9z"/>
<path d="M16970 4023 c-8 -3 -18 -11 -22 -17 -10 -13 -8 -196 1 -196 3 -1 23
-3 43 -6 68 -10 76 2 71 108 -3 51 -8 96 -12 100 -10 11 -64 18 -81 11z"/>
<path d="M16967 3642 c-13 -3 -17 -14 -17 -50 0 -26 -3 -70 -6 -98 -6 -47 -5
-52 16 -59 12 -4 42 -4 66 0 l44 6 0 67 c0 37 -3 84 -6 105 -6 36 -8 37 -43
35 -21 -2 -45 -4 -54 -6z"/>
<path d="M16757 3633 c-12 -12 -8 -178 5 -191 14 -14 77 -16 98 -2 9 6 13 22
12 47 -2 21 1 60 6 86 8 41 7 49 -9 57 -20 11 -102 13 -112 3z"/>
<path d="M17144 3627 c-3 -8 -4 -52 -2 -98 l3 -84 32 -3 c64 -6 73 8 73 108
l0 90 -50 0 c-33 0 -52 -5 -56 -13z"/>
<path d="M13260 7961 c0 -28 -3 -32 -17 -26 -27 12 -347 21 -433 13 -57 -6
-577 -20 -658 -18 -9 0 -11 -7 -7 -20 3 -11 3 -20 -2 -20 -5 0 -9 -8 -10 -17
0 -10 -15 -71 -32 -136 -16 -66 -30 -122 -29 -125 1 -4 -2 -15 -7 -25 -4 -10
-2 -23 4 -31 10 -11 9 -16 -4 -23 -11 -6 -16 -24 -17 -56 0 -26 -5 -47 -10
-47 -6 0 -8 -13 -6 -30 2 -16 0 -31 -5 -33 -6 -2 -10 -18 -9 -37 1 -26 -2 -31
-10 -20 -8 12 -9 12 -4 -3 3 -10 -5 -73 -19 -140 -14 -67 -30 -147 -36 -177
-6 -30 -24 -116 -39 -190 -16 -74 -33 -162 -39 -195 -19 -108 -62 -308 -81
-385 l-19 -75 4 70 c5 82 -4 55 -30 -95 -19 -111 -58 -307 -79 -400 -83 -370
-100 -455 -110 -550 -8 -68 -23 -141 -58 -275 -44 -169 -91 -365 -114 -475
-13 -63 -44 -196 -68 -295 -24 -99 -51 -223 -61 -275 -9 -52 -19 -102 -22
-110 -3 -8 -8 -24 -10 -34 -2 -10 -12 -49 -22 -85 -11 -36 -24 -91 -30 -121
-6 -30 -18 -89 -27 -130 -9 -41 -20 -97 -26 -125 -6 -27 -8 -81 -5 -118 4 -69
-12 -144 -36 -159 -8 -5 -9 -10 -1 -18 12 -12 47 -3 39 11 -8 11 5 59 16 59 5
0 11 -12 15 -27 3 -16 11 -44 18 -63 49 -132 54 -152 33 -145 -8 4 -17 -1 -20
-9 -5 -12 -2 -13 19 -6 18 7 33 6 52 -3 18 -9 43 -11 77 -6 28 4 94 8 148 8
63 1 96 5 92 11 -4 6 30 10 94 10 66 0 101 -4 101 -11 0 -8 65 -9 224 -3 213
6 224 6 235 -12 10 -18 11 -18 17 3 6 20 11 22 45 17 26 -4 39 -3 39 5 0 6
-14 11 -31 11 -29 0 -30 1 -24 32 14 62 39 108 60 109 76 5 225 -5 225 -15 0
-5 63 -6 158 -3 168 7 187 9 199 21 4 5 -34 6 -85 4 -51 -3 -95 -1 -98 3 -7
12 7 13 311 18 35 1 46 4 35 11 -8 5 -71 7 -140 5 -69 -2 -235 -7 -370 -10
-134 -4 -248 -9 -253 -12 -7 -4 1 46 9 56 2 2 40 -2 85 -9 83 -13 253 -8 534
15 28 2 111 8 185 12 128 8 131 8 60 13 -41 3 -109 2 -150 -3 -140 -13 -577
-20 -584 -8 -5 8 43 11 166 12 280 2 326 4 334 12 4 4 -110 7 -254 7 -163 0
-263 4 -267 10 -4 6 14 10 46 10 51 0 58 12 14 23 -19 4 -19 5 1 6 12 0 27 -6
34 -14 8 -9 30 -15 59 -15 31 0 41 3 32 9 -20 13 18 17 99 11 36 -3 148 -3
250 0 161 4 176 6 115 13 -38 4 -203 10 -365 13 -253 3 -292 2 -277 -10 16
-12 15 -14 -18 -20 -20 -4 -33 -11 -30 -15 6 -11 -23 -23 -36 -15 -12 7 -3
126 16 197 8 32 15 69 15 82 0 13 5 27 10 30 6 4 10 12 9 18 -5 27 13 175 25
207 7 19 19 66 27 104 l13 68 51 -6 c27 -3 179 -6 337 -6 l287 0 7 -45 c3 -26
13 -53 21 -60 10 -10 10 -15 3 -15 -17 0 -2 -93 16 -103 8 -4 14 -13 14 -18 0
-6 -4 -7 -10 -4 -16 10 -12 -30 19 -185 29 -140 38 -193 40 -216 1 -6 19 -34
42 -63 28 -35 39 -57 34 -70 -4 -15 4 -26 38 -50 25 -17 47 -37 50 -46 12 -29
25 -15 17 18 -15 58 -33 93 -53 103 -10 5 -26 22 -36 39 -9 16 -24 38 -33 49
-23 25 -23 43 -1 25 15 -13 16 -11 10 19 -4 19 -2 32 4 32 6 0 8 10 5 23 -5
19 -5 20 3 2 8 -18 26 -88 37 -139 2 -11 8 -24 14 -30 19 -19 22 3 7 51 -20
63 -27 117 -18 132 7 12 28 -62 35 -124 2 -16 6 -37 9 -45 12 -31 36 -147 39
-185 3 -35 0 -40 -17 -38 -11 1 -27 0 -35 -4 -24 -10 64 -25 170 -28 53 -2
100 -5 105 -6 6 -2 39 1 74 5 93 12 762 -4 766 -18 26 -91 50 -163 57 -171 13
-14 10 9 -12 98 -11 45 -24 102 -29 127 -6 25 -22 94 -36 153 -14 59 -27 118
-29 130 -1 12 -8 36 -15 52 -16 38 -61 228 -61 256 0 11 -27 137 -60 280 -33
142 -60 279 -60 304 0 25 -4 45 -10 45 -5 0 -9 3 -8 8 1 4 -4 18 -10 32 -6 14
-18 61 -27 105 -9 44 -18 91 -21 103 -3 13 -1 21 4 18 8 -5 21 -59 26 -108 3
-20 16 -18 16 3 0 26 -38 152 -39 131 -2 -31 -19 2 -25 48 -4 28 -10 58 -13
68 -6 15 -5 16 12 2 16 -13 17 -13 10 0 -5 8 -10 23 -12 35 -1 11 -10 47 -18
80 -9 33 -21 85 -27 115 -6 30 -15 60 -20 67 -5 7 -7 17 -3 23 3 5 3 16 -2 23
-4 6 -9 27 -10 46 -1 19 -7 38 -14 42 -6 3 -9 11 -6 16 5 9 -7 79 -21 113 -3
8 -6 18 -7 23 -2 4 -3 8 -4 10 -1 1 -4 16 -6 32 -2 17 -6 39 -9 50 -2 11 -11
54 -20 95 -9 41 -22 98 -29 125 -81 297 -105 393 -132 535 -8 41 -28 138 -45
215 -17 77 -37 172 -45 210 -8 39 -26 119 -40 179 -14 60 -35 157 -46 215 -11
58 -30 149 -44 201 -13 52 -29 122 -34 155 -6 33 -19 89 -30 125 -20 70 -49
200 -76 345 -18 94 -82 230 -144 305 -16 19 -32 45 -36 58 -6 20 -3 22 31 22
45 0 39 11 -8 15 -22 1 -37 9 -44 24 -18 36 -24 36 -24 2z m-880 -57 c80 -5
313 -8 519 -8 340 -1 374 -3 376 -18 2 -9 21 -41 44 -72 23 -30 41 -59 41 -63
0 -5 12 -26 26 -46 14 -21 24 -40 22 -42 -2 -2 -245 -5 -539 -7 l-536 -3 -11
35 c-5 19 -8 46 -6 60 3 14 1 36 -5 50 -8 20 -10 9 -11 -55 l-1 -80 -63 125
c-35 69 -61 129 -59 133 3 5 17 6 31 3 15 -3 92 -8 172 -12z m-190 -117 c0 -5
21 -52 46 -105 l46 -96 -26 -101 c-38 -140 -43 -164 -51 -215 -12 -72 -60
-251 -67 -245 -3 3 -9 -6 -12 -21 -4 -14 -5 -29 -1 -32 3 -3 5 2 5 11 0 9 4
17 9 17 5 0 4 -13 -2 -29 -6 -17 -15 -27 -20 -24 -5 3 -6 -4 -2 -16 4 -12 2
-21 -4 -21 -6 0 -11 -13 -11 -28 0 -29 -32 -191 -100 -507 -21 -99 -48 -232
-60 -295 -11 -63 -34 -171 -51 -240 -51 -215 -78 -332 -99 -435 -68 -318 -131
-575 -142 -575 -4 0 -6 10 -3 23 3 12 9 49 15 82 11 68 34 175 49 231 6 20 6
33 1 28 -10 -10 -58 -188 -67 -244 -2 -19 -6 -46 -8 -60 -2 -14 -10 -54 -19
-90 -13 -57 -13 -66 0 -76 12 -10 11 -12 -7 -17 -17 -5 -20 -9 -11 -19 7 -10
7 -18 -4 -32 -10 -14 -11 -23 -3 -33 9 -10 8 -13 -1 -13 -7 0 -10 -7 -7 -15 4
-8 2 -17 -4 -20 -5 -4 -7 -11 -3 -17 7 -11 -26 -180 -36 -188 -4 -3 -15 -48
-24 -100 -10 -52 -20 -105 -22 -117 -2 -13 -8 -23 -13 -23 -5 0 -3 28 5 63 19
92 32 189 33 255 1 12 4 22 9 22 4 0 6 -21 3 -47 -2 -27 0 -45 3 -42 3 3 8 34
9 67 3 51 1 60 -10 51 -17 -15 -18 12 0 30 10 10 9 14 -4 21 -12 7 -15 20 -12
52 3 34 1 39 -7 26 -18 -29 -31 -21 -25 15 3 17 8 46 11 62 15 99 30 139 47
128 6 -4 8 4 5 21 -3 17 -1 26 7 26 16 0 23 27 20 74 -2 20 1 36 7 36 7 0 7 4
0 13 -13 15 -3 101 28 233 12 49 32 150 46 224 39 211 53 279 73 360 11 41 25
102 31 135 7 33 16 74 20 90 4 17 15 68 25 115 10 47 25 117 35 155 21 83 39
166 80 370 50 251 98 470 145 670 9 39 19 81 22 95 3 14 9 30 13 35 4 6 10 33
14 60 3 28 10 73 16 100 6 28 16 81 22 118 10 61 13 67 25 51 7 -10 13 -22 13
-27z m1248 -247 c20 -120 33 -176 73 -335 21 -82 52 -220 69 -305 17 -85 40
-191 50 -235 11 -44 35 -159 54 -255 19 -96 47 -218 61 -270 14 -52 28 -123
31 -157 2 -35 9 -74 14 -88 5 -14 7 -25 5 -25 -2 0 0 -11 5 -26 13 -33 23 -83
24 -116 1 -14 3 -25 6 -23 3 2 14 -42 24 -98 10 -56 23 -111 29 -122 6 -11 11
-31 12 -45 2 -14 10 -44 19 -68 9 -24 19 -62 21 -84 9 -66 25 -131 37 -145 6
-8 8 -16 5 -19 -3 -3 1 -28 9 -56 9 -27 20 -75 25 -107 6 -31 12 -69 15 -85 7
-38 -12 -25 -21 15 -4 17 -9 29 -11 26 -2 -2 1 -27 8 -56 8 -35 16 -51 27 -51
12 0 13 -2 3 -9 -10 -6 -11 -18 -3 -52 5 -24 18 -80 27 -124 10 -44 26 -91 36
-104 14 -19 16 -27 6 -38 -8 -10 -8 -17 -1 -21 15 -10 26 -75 11 -66 -7 4 -2
-6 10 -23 24 -33 28 -48 12 -38 -5 3 -10 2 -10 -4 0 -5 5 -11 10 -13 6 -2 11
-18 13 -36 1 -17 5 -32 8 -32 5 0 34 -116 44 -180 7 -45 47 -225 90 -410 19
-80 55 -237 81 -350 25 -113 55 -242 65 -287 11 -46 28 -106 39 -135 11 -29
20 -54 20 -55 0 -1 -222 -2 -493 -2 l-493 0 -18 92 c-24 120 -30 155 -55 322
-43 290 -60 392 -75 458 -9 38 -16 81 -16 97 0 34 -12 44 -37 32 -10 -4 -79
-5 -153 -1 -74 4 -177 9 -228 10 -55 1 -88 5 -80 10 7 5 -27 9 -82 9 -52 0
-102 -5 -110 -10 -10 -6 13 -7 66 -4 94 7 125 -10 37 -19 -72 -7 -150 2 -131
15 9 7 7 8 -7 3 -11 -4 -47 -11 -80 -16 -33 -5 -69 -11 -80 -13 -11 -3 -26 -5
-34 -5 -7 -1 -11 -7 -8 -15 3 -8 3 -16 -1 -18 -4 -2 -21 -50 -37 -108 -16 -58
-39 -130 -51 -160 -12 -30 -40 -131 -63 -225 -56 -231 -54 -215 -37 -209 7 3
14 15 14 27 0 26 59 267 67 275 9 10 5 -24 -9 -74 -8 -27 -20 -83 -26 -124 -7
-41 -15 -82 -18 -90 -20 -54 -28 -100 -18 -110 7 -7 6 -10 -1 -10 -7 0 -12 -8
-12 -17 0 -10 -3 -44 -7 -75 l-7 -58 -46 0 c-25 0 -86 5 -136 11 -49 6 -109
11 -132 11 -24 0 -43 4 -43 8 0 4 -133 7 -296 8 -162 0 -297 2 -300 4 -2 3 2
32 11 64 9 32 38 156 65 274 28 118 55 227 61 241 5 14 11 44 12 67 0 23 4 42
8 42 5 0 33 125 35 160 0 8 4 33 8 55 4 22 9 54 11 70 4 28 27 136 62 285 8
36 16 78 19 94 2 16 8 34 14 41 5 6 7 14 4 18 -3 3 0 15 6 27 8 16 9 25 2 29
-7 4 -8 12 -2 21 8 13 10 12 10 -2 0 -10 5 -18 10 -18 6 0 10 13 10 28 0 16 3
32 7 35 3 4 8 19 9 33 4 34 31 172 50 249 8 33 14 69 14 80 1 11 1 32 1 47 1
16 5 25 10 22 5 -3 9 6 9 20 0 14 5 26 10 26 6 0 10 6 9 13 -1 6 1 23 4 37 11
42 19 83 24 125 3 22 9 44 14 49 5 6 9 29 9 52 0 24 4 45 9 48 4 3 11 25 15
48 4 24 16 81 27 128 46 193 51 212 65 300 3 19 18 85 34 145 28 110 59 253
65 303 5 36 50 260 69 342 15 65 18 81 36 175 6 28 16 73 25 100 47 161 56
192 59 210 26 136 135 576 146 590 5 6 10 24 12 40 3 29 6 30 58 35 30 3 276
5 545 5 l490 0 13 -75z"/>
<path d="M12673 6826 c-58 -14 -255 -101 -203 -91 23 5 23 4 6 -7 -10 -7 -46
-33 -80 -57 -56 -40 -58 -41 -31 -11 30 32 30 32 5 25 -14 -4 -26 -11 -28 -16
-2 -4 -17 -23 -33 -41 -86 -94 -181 -274 -206 -391 -24 -109 -21 -292 5 -400
12 -49 20 -93 17 -97 -3 -5 -1 -11 4 -14 5 -3 22 -32 39 -63 113 -218 301
-568 366 -681 47 -83 47 -83 36 -139 -5 -31 -17 -65 -27 -75 -11 -13 -12 -18
-3 -18 13 0 11 -37 -10 -134 -7 -34 -7 -53 0 -60 5 -5 10 -21 11 -35 l0 -26
11 23 c11 22 16 23 109 20 66 -1 101 2 112 10 12 11 20 7 46 -25 20 -23 34
-34 39 -27 4 6 36 11 72 11 36 0 101 2 145 3 44 1 99 -1 123 -5 53 -10 54 4 2
29 -47 23 -51 36 -12 36 22 0 33 -8 46 -33 l18 -32 146 3 c80 2 155 7 166 11
23 9 -146 22 -214 16 l-45 -3 48 11 c27 7 45 16 41 20 -9 9 2 10 94 7 49 -1
72 2 72 10 0 6 -4 8 -10 5 -5 -3 -10 -1 -10 4 0 13 -104 13 -195 2 -58 -8
-104 3 -119 28 -7 10 -24 121 -51 332 -4 28 5 54 41 125 82 157 98 189 98 199
1 6 27 62 59 125 60 119 118 251 144 330 8 25 21 59 28 75 41 94 50 141 50
265 0 141 -11 185 -80 335 -72 154 -177 276 -285 328 -36 17 -67 34 -70 37
-14 15 -60 34 -110 46 -87 21 -304 26 -377 10z m358 -54 c90 -23 148 -48 225
-98 l59 -37 -54 -14 c-38 -10 -57 -11 -64 -4 -17 17 -31 13 -17 -4 7 -9 11
-17 9 -18 -8 -6 -78 -27 -169 -52 -134 -36 -308 -94 -353 -117 -21 -11 -42
-18 -47 -16 -5 2 -30 30 -57 64 -80 100 -123 148 -128 142 -5 -4 48 -75 129
-172 25 -30 36 -50 29 -54 -32 -20 -152 -309 -153 -370 -1 -36 -31 -68 -151
-157 l-124 -92 -6 41 c-4 22 -12 57 -18 76 -14 45 -15 260 0 260 5 0 7 5 4 10
-4 6 -2 16 3 23 5 7 13 28 17 47 19 90 131 322 161 334 6 2 45 -20 85 -51 115
-86 139 -99 84 -48 -27 26 -74 63 -102 81 -29 19 -53 37 -53 39 0 7 141 100
189 125 112 57 200 78 327 79 68 1 126 -5 175 -17z m330 -204 c134 -167 206
-377 184 -537 -9 -63 -21 -67 -19 -6 1 37 0 42 -12 30 -16 -16 -19 -39 -4 -30
6 3 10 -1 10 -10 0 -9 -4 -13 -10 -10 -5 3 -10 -3 -10 -14 0 -11 5 -23 11 -26
20 -13 29 -54 17 -80 -6 -14 -15 -25 -19 -25 -27 0 -102 154 -198 405 -27 72
-66 168 -85 214 -20 46 -35 86 -33 88 6 6 111 42 123 43 6 0 26 -19 45 -42z
m-197 -25 c4 -9 3 -19 -2 -22 -9 -6 -32 -225 -33 -311 l0 -45 -22 30 c-50 67
-115 128 -159 151 -112 57 -313 4 -370 -96 -13 -22 -27 -40 -31 -40 -10 0 0
38 19 67 8 12 14 28 14 36 0 31 60 73 156 109 118 43 394 136 410 137 7 1 15
-7 18 -16z m46 -95 c15 -35 42 -101 60 -148 84 -220 104 -269 131 -319 16 -30
27 -56 26 -58 -2 -2 -60 34 -129 79 -68 46 -134 89 -147 96 -12 7 -19 17 -15
23 8 13 34 268 34 337 0 28 3 52 6 52 3 0 18 -28 34 -62z m-286 -139 c49 -14
119 -78 148 -137 43 -90 23 -228 -46 -309 -41 -48 -126 -87 -180 -81 -60 7
-126 55 -159 116 -23 42 -27 62 -27 128 0 94 19 154 70 221 54 72 102 88 194
62z m-396 -241 c-1 -40 4 -93 10 -118 7 -25 15 -56 17 -68 7 -29 89 -118 126
-137 63 -33 208 -26 266 12 35 23 36 11 4 -33 -34 -46 -95 -154 -88 -154 3 0
39 48 80 108 41 59 88 120 105 135 40 39 84 139 91 209 l6 57 160 -104 c88
-58 160 -111 160 -118 0 -6 -99 -61 -220 -122 -121 -60 -268 -138 -326 -172
-58 -35 -109 -63 -112 -63 -3 0 -28 33 -55 73 -27 39 -73 98 -103 130 -30 32
-54 64 -54 71 0 6 -8 20 -18 31 -23 25 -63 83 -79 114 -10 18 -10 25 -1 28 8
3 8 13 -3 38 -18 43 -18 46 2 38 10 -4 15 -1 13 8 -4 17 11 109 17 109 2 0 3
-33 2 -72z m-57 -165 c33 -55 121 -172 218 -292 46 -57 80 -102 75 -99 -5 2
-20 9 -34 15 -14 7 -63 27 -110 46 -47 19 -152 65 -235 102 -82 37 -157 68
-164 70 -25 3 -22 19 7 37 15 9 70 49 122 87 52 39 96 70 97 71 1 0 12 -17 24
-37z m1000 -159 c-12 -19 -21 -41 -21 -48 0 -8 -7 -19 -15 -26 -8 -7 -13 -16
-10 -20 2 -4 -2 -16 -10 -26 -9 -12 -14 -14 -15 -6 0 7 -5 10 -12 6 -8 -5 -6
-10 5 -19 14 -10 9 -26 -47 -136 -34 -68 -82 -162 -105 -209 -122 -246 -192
-377 -258 -487 -40 -67 -73 -128 -73 -136 0 -8 -7 -20 -15 -27 -8 -7 -15 -21
-15 -32 0 -10 -4 -17 -9 -13 -6 3 -11 89 -12 198 -1 106 -3 226 -6 267 -2 41
-6 131 -8 200 -2 69 -6 148 -8 177 -4 51 -3 53 39 83 23 16 45 30 49 30 4 0
30 15 58 34 77 51 346 179 363 172 8 -3 14 0 14 7 0 7 17 21 38 31 20 10 48
24 62 32 34 18 39 -4 11 -52z m-1171 -58 c58 -24 157 -65 220 -93 63 -27 145
-62 182 -77 36 -15 73 -33 81 -39 13 -10 18 -74 31 -352 9 -187 16 -376 15
-420 0 -44 3 -88 6 -97 4 -11 3 -18 -4 -18 -6 0 -23 24 -37 53 -15 28 -51 93
-82 142 -30 50 -80 135 -112 190 -32 55 -90 156 -131 225 -100 171 -287 530
-276 530 1 0 49 -20 107 -44z"/>
<path d="M5375 7933 c-27 -19 -61 -45 -75 -57 -14 -12 -34 -29 -44 -37 -18
-13 -19 -12 -13 4 8 20 -6 23 -22 3 -9 -11 -9 -15 1 -20 20 -8 -149 -163 -197
-180 -22 -8 -33 -15 -23 -15 13 -1 15 -9 11 -43 -3 -24 -9 -50 -13 -58 -8 -15
-4 -1145 4 -1350 9 -207 11 -1528 3 -1815 -13 -497 -16 -831 -8 -810 13 32 19
-42 15 -190 -6 -244 -4 -549 4 -557 14 -14 205 -30 276 -23 50 5 66 3 61 -5
-11 -17 519 -10 537 8 16 16 120 16 136 0 10 -10 15 -10 22 2 5 8 19 15 32 15
13 1 41 3 63 4 39 3 39 4 10 11 -16 4 -42 5 -57 2 -16 -2 -28 -1 -28 3 0 8 35
56 67 91 12 13 20 24 18 24 -6 0 54 79 80 105 11 11 35 38 53 60 17 22 32 35
32 29 0 -6 -11 -21 -25 -34 -14 -13 -25 -29 -25 -36 0 -7 -3 -14 -7 -16 -14
-6 -80 -93 -87 -113 -4 -15 1 -26 19 -39 l26 -19 -32 -14 c-18 -7 -30 -15 -28
-18 3 -2 59 0 124 6 66 6 136 12 155 14 54 5 57 6 26 15 -16 5 -36 6 -45 2 -9
-4 -37 -5 -63 -2 -40 4 -45 7 -35 21 7 9 27 19 46 22 27 6 32 4 27 -8 -6 -16
3 -19 28 -9 9 3 13 11 10 16 -4 6 -1 8 7 6 8 -3 13 -9 12 -14 -1 -5 33 -9 76
-8 42 0 104 -2 138 -6 34 -3 60 -3 57 1 -7 12 -70 20 -158 20 -47 0 -88 5 -92
10 -4 6 -55 9 -130 8 -71 -1 -124 1 -124 7 0 9 172 21 368 26 150 3 119 19
-39 20 -76 0 -117 4 -111 10 5 5 65 9 133 9 87 0 119 2 109 9 -9 6 -73 9 -157
8 -113 -2 -143 -6 -143 -17 0 -11 -3 -11 -16 0 -13 10 -19 10 -36 0 -11 -7
-23 -10 -26 -7 -3 3 0 6 6 6 6 0 9 7 5 17 -4 9 -2 14 3 11 5 -4 61 -1 124 4
63 6 134 11 157 12 24 2 45 5 49 8 9 9 -106 19 -163 14 -29 -3 -53 -1 -53 4 0
4 38 11 85 15 132 11 94 23 -78 24 -106 1 -108 1 -107 24 3 36 1 40 -15 27
-17 -14 -16 -19 -20 80 -2 36 -1 59 2 53 3 -7 9 -13 15 -13 9 0 5 107 -7 195
-2 11 -4 22 -4 25 -2 23 -5 720 -3 720 6 0 89 -183 100 -220 6 -19 43 -136 82
-260 39 -124 86 -272 105 -330 18 -58 56 -179 85 -270 29 -91 63 -194 76 -230
13 -36 24 -70 24 -76 0 -7 7 -17 15 -24 27 -23 16 -30 -47 -30 -41 -1 -58 -4
-48 -9 8 -5 177 -11 375 -13 198 -1 344 0 325 3 -33 6 -32 7 15 9 28 1 61 4
75 5 174 18 416 21 435 5 7 -6 18 -24 25 -40 7 -16 15 -28 19 -25 10 5 7 77
-3 93 -8 14 4 34 53 92 17 19 31 30 31 23 0 -6 -16 -30 -35 -53 -20 -24 -33
-45 -30 -49 4 -3 16 7 28 24 12 16 29 37 39 46 9 10 19 28 23 41 4 12 13 30
19 38 7 8 29 44 51 80 21 36 40 67 42 69 1 2 13 -4 25 -15 l22 -19 -17 27 c-9
15 -17 35 -17 44 0 9 -24 73 -54 143 -30 69 -62 148 -71 174 -10 26 -22 50
-26 53 -5 3 -9 12 -9 21 0 8 -6 29 -14 46 -7 18 -23 55 -34 82 -34 77 -179
447 -187 475 -4 14 -35 102 -70 195 -82 221 -108 302 -100 315 3 5 1 10 -4 10
-6 0 -11 9 -11 21 0 11 -13 48 -28 82 -33 71 -104 236 -122 285 -7 17 -18 32
-26 32 -7 0 -16 4 -19 10 -7 11 23 60 37 60 6 0 5 -7 -2 -15 -17 -20 -6 -31
13 -14 8 7 12 22 9 32 -3 12 7 29 30 50 18 18 51 54 73 82 22 27 62 70 89 95
48 44 108 126 139 188 21 44 4 41 -28 -5 -14 -21 -25 -33 -25 -27 0 18 56 115
63 108 3 -3 3 -12 0 -20 -3 -8 -1 -14 5 -14 5 0 12 10 15 23 3 12 21 76 40
142 41 141 54 221 62 370 3 61 10 173 16 250 15 192 5 290 -47 452 -19 59 -34
115 -34 126 0 11 -3 17 -7 13 -4 -3 -14 11 -24 31 -24 55 -32 83 -21 83 5 0
14 -15 20 -32 5 -18 10 -25 11 -15 2 30 -77 179 -139 262 -33 44 -60 84 -60
90 0 5 7 1 15 -9 8 -11 17 -17 20 -15 10 10 -123 145 -197 200 -88 65 -348
199 -435 224 -32 9 -65 23 -74 32 -10 8 -18 10 -20 4 -3 -6 -59 4 -140 24
-244 60 -282 62 -894 54 -381 -5 -493 -1 -497 15 -2 9 -17 3 -53 -21z m545
-37 c102 -1 246 2 320 6 207 10 444 -22 548 -76 17 -9 39 -16 49 -16 10 0 52
-14 93 -31 142 -59 171 -59 55 0 -72 36 -58 41 23 7 31 -13 67 -27 80 -31 13
-4 65 -26 115 -51 238 -113 343 -194 428 -327 28 -45 59 -94 70 -108 10 -15
21 -39 25 -53 5 -22 3 -25 -11 -20 -16 6 -16 5 -1 -25 9 -17 20 -31 25 -31 5
0 12 -12 16 -27 3 -16 13 -41 21 -58 7 -16 15 -39 17 -50 1 -11 14 -43 29 -70
15 -30 28 -73 31 -108 2 -31 9 -63 14 -69 6 -7 14 -40 17 -73 4 -33 10 -76 13
-95 9 -60 6 -334 -4 -360 -10 -24 -10 -23 -17 12 -3 19 -2 46 3 59 5 14 7 44
5 69 -2 25 -4 80 -4 123 -1 44 -5 77 -11 77 -6 0 -10 -10 -9 -22 3 -37 1 -48
-11 -48 -6 0 -8 9 -4 20 4 11 2 20 -4 20 -6 0 -11 -6 -11 -14 0 -8 -7 -16 -15
-20 -8 -3 -15 -15 -15 -26 0 -11 -4 -20 -10 -20 -5 0 -10 -7 -10 -16 0 -8 -5
-12 -11 -8 -6 3 -15 0 -20 -7 -6 -10 -10 -9 -15 6 -4 11 -12 23 -17 26 -5 4
-5 9 2 13 6 4 11 3 11 -2 0 -6 6 -12 13 -15 9 -3 12 7 10 40 -2 37 0 44 12 39
11 -4 19 3 25 20 14 37 13 49 -4 35 -12 -10 -16 -4 -25 36 -7 26 -13 53 -14
58 -2 6 -15 35 -29 65 -14 30 -29 73 -33 95 -4 22 -10 45 -14 50 -14 24 -37
105 -30 105 5 0 19 -12 33 -27 14 -15 29 -24 33 -20 4 4 -4 15 -18 24 -30 21
-79 72 -78 81 3 18 -2 35 -7 29 -3 -3 -28 27 -54 66 -49 73 -100 129 -100 110
0 -6 7 -17 16 -24 36 -30 164 -261 164 -296 0 -7 4 -13 8 -13 4 0 8 -8 8 -17
1 -17 15 -84 23 -110 1 -2 1 -6 2 -10 1 -5 10 -20 21 -35 11 -16 16 -28 12
-28 -3 0 -1 -7 6 -15 14 -17 21 -215 8 -215 -12 0 -21 22 -25 59 -8 85 -34
215 -48 241 -8 16 -15 35 -15 42 0 34 -138 286 -162 296 -5 2 -8 12 -8 23 0
10 -5 19 -11 19 -15 0 -64 52 -61 63 1 5 -2 6 -7 3 -5 -4 -33 16 -63 43 -68
62 -213 163 -288 201 -127 64 -389 137 -585 162 -121 15 -552 16 -865 1 -140
-7 -309 -15 -375 -17 l-120 -5 30 22 c35 26 166 139 243 210 l54 50 161 -8
c89 -4 245 -9 347 -9z m495 -290 c258 -36 430 -83 610 -167 128 -59 332 -235
399 -343 10 -16 32 -43 48 -58 17 -16 28 -34 25 -42 -3 -8 0 -17 7 -19 7 -3
25 -34 39 -69 28 -69 97 -317 97 -352 0 -11 6 -41 14 -66 11 -38 11 -51 0 -84
-8 -21 -14 -47 -14 -58 0 -17 3 -18 15 -8 24 20 26 -2 21 -216 -6 -241 -9
-280 -27 -276 -10 3 -10 0 1 -12 10 -13 10 -16 0 -16 -9 0 -10 -4 -2 -13 8 -9
7 -21 -3 -41 -8 -16 -15 -36 -15 -46 0 -56 -93 -289 -162 -408 -43 -72 -62
-93 -153 -165 -172 -136 -235 -168 -235 -122 0 9 -5 13 -11 10 -7 -5 -5 -14 4
-29 19 -29 7 -50 -41 -76 l-37 -19 43 -1 c24 0 42 -5 42 -11 0 -6 18 -52 41
-103 59 -132 141 -336 179 -446 18 -52 50 -135 72 -185 80 -182 139 -327 135
-331 -2 -3 -44 69 -92 158 -273 506 -332 616 -396 743 -64 126 -390 720 -460
838 -33 55 -34 57 -16 57 30 0 124 165 149 260 50 198 42 487 -18 620 -57 125
-68 139 -162 218 -69 57 -72 62 -15 31 32 -17 34 -18 17 -2 -12 10 -37 26 -55
37 -64 36 -8 29 67 -9 55 -27 82 -47 101 -76 26 -39 44 -48 24 -11 -30 56
-178 143 -217 128 -8 -3 -44 6 -81 21 -63 24 -76 25 -183 19 -64 -3 -129 -10
-145 -15 -17 -6 -54 -12 -83 -15 -77 -6 -79 -18 -3 -14 l64 3 -2 -120 c-2 -66
-5 -123 -7 -127 -4 -6 -4 -213 1 -1026 0 -87 1 -88 133 -78 135 11 209 32 305
86 86 48 87 48 99 27 6 -12 74 -139 151 -282 77 -143 167 -312 199 -375 151
-289 197 -375 276 -515 47 -82 98 -175 115 -205 39 -72 144 -266 222 -410 55
-101 87 -172 140 -310 7 -19 36 -91 64 -160 53 -134 66 -170 57 -170 -3 0
-106 201 -229 448 -123 246 -286 564 -362 707 -76 143 -196 373 -267 510 -72
138 -134 255 -140 260 -14 15 125 -267 212 -430 104 -195 346 -667 591 -1155
150 -300 286 -567 301 -593 46 -79 49 -77 -123 -77 -133 0 -150 2 -139 15 7 8
16 12 21 9 5 -3 9 4 9 15 0 13 7 21 18 21 16 1 16 1 0 14 -10 7 -18 23 -18 35
0 12 -16 53 -36 92 l-35 71 30 27 c45 41 39 67 -10 40 -11 -5 -17 -15 -13 -21
4 -6 1 -9 -7 -6 -8 2 -37 49 -65 103 -61 121 -104 168 -167 183 -54 14 -298
16 -344 3 -17 -5 -51 -29 -75 -53 -24 -23 -52 -50 -64 -59 -18 -14 -20 -28
-22 -151 -3 -127 -1 -141 28 -231 17 -53 35 -99 40 -102 23 -14 9 -35 -24 -35
-29 0 -34 4 -39 28 -2 15 -10 41 -16 57 -20 55 -168 508 -231 705 -34 107 -74
236 -90 285 -63 199 -72 235 -91 360 -17 121 -18 124 -14 45 3 -47 8 -96 12
-109 4 -16 2 -22 -6 -20 -7 3 -32 48 -56 101 l-45 96 -4 151 c-3 111 -1 151 8
148 6 -2 13 -38 16 -88 4 -56 8 -78 14 -66 5 10 4 52 0 95 -9 75 -10 77 -38
80 l-29 4 6 -127 c4 -91 3 -125 -5 -123 -6 2 -32 43 -58 91 -26 48 -49 85 -52
82 -3 -3 -24 15 -47 40 -23 25 -48 45 -57 45 -29 0 -45 -27 -38 -62 4 -18 7
-425 8 -904 l1 -871 -103 -7 c-56 -4 -107 -4 -112 -1 -19 12 -10 45 15 57 14
6 25 15 25 19 0 5 12 15 28 23 l27 15 -39 -6 c-30 -5 -38 -3 -34 7 2 7 14 14
26 15 29 2 41 15 14 15 -22 0 -30 14 -13 25 6 3 10 54 10 113 0 59 2 114 5
122 4 10 -10 37 -34 70 -23 30 -51 72 -62 92 -34 61 -71 72 -230 70 -213 -2
-247 -18 -319 -148 -23 -42 -47 -78 -55 -81 -8 -3 -12 -9 -9 -14 3 -4 12 -6
20 -2 10 3 15 -1 15 -12 0 -12 -5 -15 -16 -11 -9 3 -20 6 -25 6 -5 0 -9 7 -9
15 0 8 -7 15 -15 15 -22 0 -18 -19 7 -39 l22 -18 -31 -60 c-16 -32 -33 -80
-37 -105 -8 -50 2 -148 14 -148 13 0 18 36 7 55 -8 16 -6 17 19 11 l29 -6 -27
23 c-28 23 -39 63 -15 54 9 -3 11 7 9 37 -3 32 2 49 17 67 11 13 29 34 38 45
18 21 21 22 158 12 77 -5 190 -7 250 -3 61 3 118 6 128 6 9 0 17 6 17 14 0 8
4 17 10 20 13 8 3 -75 -16 -134 -11 -31 -12 -47 -4 -56 13 -15 4 -57 -21 -102
-14 -25 -15 -31 -4 -27 31 12 55 70 55 132 0 69 19 163 34 174 6 4 18 8 27 8
14 0 16 -8 12 -47 -3 -27 -14 -63 -24 -81 -10 -18 -22 -52 -25 -75 -10 -62
-44 -139 -60 -133 -7 3 -20 -1 -28 -9 -8 -8 -25 -14 -38 -14 l-23 2 23 4 c47
9 19 19 -44 15 -54 -4 -69 -1 -76 12 -8 13 -29 16 -128 16 -73 0 -120 -4 -120
-10 0 -6 41 -10 103 -10 56 0 108 -4 115 -9 8 -5 -74 -11 -195 -14 -114 -3
-217 -8 -228 -12 -20 -6 -20 -2 -18 232 1 131 3 325 3 431 l0 194 135 266 c74
147 156 305 181 352 292 535 306 560 300 560 -3 0 -18 -24 -32 -52 -15 -29
-46 -84 -69 -123 -78 -130 -303 -541 -395 -725 -38 -74 -82 -160 -99 -190
l-31 -55 6 70 c6 79 10 87 157 345 204 358 262 459 352 610 51 85 117 198 147
250 30 52 103 177 161 277 59 100 107 185 107 189 0 13 -37 -40 -109 -156 -39
-63 -75 -122 -81 -130 -17 -28 -153 -253 -288 -480 -112 -188 -204 -348 -419
-728 -14 -24 -27 -41 -30 -38 -7 7 -4 1717 3 1728 8 13 7 827 -2 1178 -4 168
-8 400 -10 515 -1 116 -4 219 -6 230 -2 13 3 20 12 20 8 0 20 3 25 6 6 4 48 2
95 -3 81 -9 289 -4 525 12 173 12 594 4 720 -14z m-20 -837 c74 -37 180 -151
225 -242 45 -91 59 -156 66 -297 7 -134 -3 -224 -37 -343 -24 -81 -42 -95
-160 -127 -94 -25 -217 -25 -210 0 5 21 2 651 -5 859 -6 217 -8 214 121 150z
m1449 -285 c9 -3 13 -11 9 -18 -4 -6 -8 -42 -9 -79 -3 -74 -8 -87 -26 -69 -15
15 -28 16 -28 2 0 -5 7 -10 15 -10 8 0 14 -3 14 -7 -4 -27 3 -73 10 -69 5 4 8
-2 6 -11 -1 -10 -7 -17 -13 -16 -5 1 -12 -7 -15 -18 -4 -16 -2 -19 10 -14 29
11 32 -17 6 -59 -14 -23 -31 -44 -37 -48 -8 -5 -7 -8 2 -8 8 0 12 -15 11 -42
0 -24 -3 -37 -6 -30 -2 6 -9 12 -14 12 -6 0 -8 -4 -5 -9 3 -4 0 -16 -7 -25
-10 -14 -12 -11 -11 21 1 20 6 39 13 41 9 3 9 7 1 17 -8 10 -8 19 -1 34 8 14
8 22 1 26 -12 8 -3 46 14 57 7 5 6 8 -4 8 -12 0 -16 11 -17 43 -1 23 -2 68 -3
100 -1 34 4 64 11 73 7 9 8 14 2 12 -6 -2 -13 2 -14 7 -2 6 6 11 18 13 15 2
26 15 35 38 6 19 13 34 14 34 1 0 9 -3 18 -6z m-1764 -370 c0 -8 5 -14 11 -14
6 0 9 -6 6 -14 -3 -7 0 -19 6 -25 6 -6 7 -11 2 -11 -6 0 -9 -27 -9 -60 1 -33
-2 -63 -7 -66 -4 -2 -6 -11 -3 -18 10 -26 9 -266 -1 -270 -5 -3 -2 -5 8 -5 30
-2 36 39 30 208 -3 111 -1 161 6 161 6 0 12 -10 12 -22 1 -13 3 -39 4 -58 1
-19 3 -45 4 -57 0 -13 8 -23 16 -23 8 0 15 -5 15 -11 0 -6 -6 -9 -12 -6 -8 3
-13 -4 -13 -19 0 -13 2 -24 5 -24 4 0 4 -16 2 -37 -4 -30 -2 -35 12 -30 31 12
16 -14 -43 -72 -32 -31 -60 -64 -63 -72 -4 -10 -9 -11 -17 -3 -8 8 -9 33 -2
95 5 46 7 87 4 91 -2 5 -4 84 -3 176 0 140 2 183 9 210 3 10 21 -11 21 -24z
m1238 -1333 c45 -90 82 -169 82 -176 0 -7 4 -15 9 -17 12 -4 123 -249 125
-275 0 -13 4 -23 9 -23 4 0 7 -10 7 -22 0 -13 5 -30 10 -38 6 -10 8 -3 4 25
-5 38 -4 39 10 21 27 -34 20 10 -7 47 -31 42 -97 199 -104 246 l-5 36 21 -25
c11 -14 21 -29 21 -33 0 -15 51 -121 73 -154 23 -35 41 -44 30 -17 -4 11 -2
15 6 13 7 -3 12 -8 11 -12 0 -4 6 -15 14 -23 9 -8 21 -33 27 -55 9 -27 15 -36
21 -27 5 9 8 6 8 -10 0 -13 6 -30 14 -37 8 -8 28 -49 46 -92 17 -43 37 -91 45
-108 26 -60 44 -125 39 -140 -4 -8 1 -17 9 -21 9 -3 21 -22 28 -42 6 -21 15
-42 20 -48 5 -6 15 -28 23 -50 8 -21 29 -73 48 -114 48 -103 62 -140 55 -146
-3 -4 -13 11 -22 31 -8 21 -18 36 -21 33 -7 -8 43 -105 59 -115 15 -9 70 -123
63 -131 -3 -2 -16 18 -30 45 -14 26 -25 41 -25 33 -1 -19 34 -78 65 -109 13
-13 24 -29 24 -35 0 -6 -7 -2 -15 8 -8 11 -18 16 -22 12 -5 -4 4 -18 20 -31
15 -13 27 -29 27 -36 0 -6 -33 -57 -72 -111 -40 -55 -84 -118 -98 -141 -14
-22 -31 -42 -37 -44 -6 -2 -18 20 -28 54 -9 32 -22 72 -30 88 -8 17 -16 45
-19 61 -7 38 -43 121 -56 129 -6 3 -10 14 -10 24 0 17 -11 46 -55 146 -7 17
-24 64 -38 105 -27 81 -43 121 -88 218 -16 35 -29 68 -29 73 0 12 -71 201
-100 264 -64 143 -193 485 -183 485 7 0 92 -184 88 -191 -3 -3 4 -24 15 -46
10 -22 22 -51 25 -66 4 -15 11 -30 16 -33 5 -3 9 -12 9 -19 0 -21 42 -115 52
-115 4 0 8 -8 8 -19 0 -10 7 -24 15 -31 21 -18 19 -35 -2 -19 -17 13 -17 13 0
-7 9 -11 17 -25 17 -31 0 -6 7 -13 15 -17 9 -3 24 -25 34 -48 27 -61 84 -158
75 -129 -3 14 -27 63 -53 110 -26 48 -57 114 -70 149 -13 34 -28 65 -32 68 -5
3 -9 16 -9 29 0 13 -5 25 -12 27 -6 2 -12 12 -14 21 -1 10 -14 40 -28 67 -25
47 -37 116 -17 94 5 -5 26 -49 46 -97 21 -48 39 -86 41 -84 4 4 -58 171 -82
222 -8 17 -25 50 -39 75 -26 50 -66 172 -53 164 10 -7 48 -84 48 -99 0 -18 44
-100 55 -103 6 -1 10 -5 10 -9 0 -5 10 -28 21 -53 12 -25 32 -68 45 -97 25
-56 40 -64 19 -11 -32 81 -84 194 -97 206 -18 19 -36 53 -30 59 3 3 -3 20 -13
38 -14 24 -15 35 -7 38 8 2 -23 74 -85 199 -54 107 -98 201 -98 208 0 23 21
-13 108 -189z m-1141 -927 c2 -47 8 -94 13 -105 7 -13 7 -19 0 -19 -5 0 -10
-4 -10 -10 0 -5 6 -10 14 -10 8 0 17 -8 19 -17 6 -21 -1 66 -9 118 -3 21 -1
40 4 43 9 6 19 -64 22 -159 1 -27 5 -79 9 -115 9 -69 6 -84 -10 -60 -8 11 -8
8 -3 -10 4 -14 8 -41 9 -60 1 -19 5 -45 9 -58 5 -14 3 -22 -4 -22 -15 0 -20
18 -24 76 -5 73 -5 74 -14 74 -12 0 4 -120 22 -162 9 -21 16 -46 16 -57 0 -11
7 -27 16 -35 13 -14 13 -16 1 -16 -16 0 -27 21 -27 50 0 10 -8 26 -17 36 -10
10 -19 25 -20 33 -1 9 -6 59 -13 111 -13 117 -25 478 -14 467 4 -4 9 -46 11
-93z m-29 -222 c-3 -70 31 -285 48 -298 17 -13 19 -28 3 -18 -9 5 -10 -1 -4
-22 5 -16 11 -67 14 -114 5 -75 7 -82 19 -63 7 13 10 35 7 50 -4 16 -8 38 -11
51 -2 12 0 22 6 22 5 0 10 -7 10 -15 0 -18 16 -20 23 -2 3 6 6 -5 8 -25 1 -21
2 -42 3 -47 1 -9 -40 -60 -114 -144 l-25 -28 -2 356 c-1 231 1 354 8 350 5 -4
8 -28 7 -53z m-438 -202 c6 -9 6 -16 0 -18 -6 -2 -8 -20 -6 -40 2 -20 1 -29
-1 -20 -2 10 -16 21 -31 25 -33 10 -307 8 -357 -1 -34 -7 -36 -6 -25 13 24 46
96 61 283 57 100 -1 130 -5 137 -16z m1646 -40 c37 -19 94 -84 94 -109 0 -5
-18 -2 -41 5 -54 19 -380 16 -387 -3 -3 -10 35 -13 170 -13 227 0 238 -3 272
-81 14 -33 26 -65 26 -71 0 -15 -465 -7 -481 9 -10 10 -10 27 -3 74 8 48 7 72
-4 108 -23 74 -25 79 -29 54 -3 -12 1 -32 7 -43 9 -17 8 -42 -1 -106 -7 -46
-17 -84 -22 -84 -4 0 -6 4 -3 9 10 15 -4 39 -25 44 -18 5 -20 11 -13 69 9 91
24 96 25 8 1 -67 2 -71 11 -40 5 19 11 46 13 60 l5 25 -9 -25 c-6 -18 -8 -8
-7 39 3 90 5 91 200 91 140 0 165 -2 202 -20z m-1685 -47 c7 -7 17 -41 24 -77
11 -55 10 -66 -2 -70 -8 -3 -118 -6 -244 -6 -182 0 -229 3 -229 13 0 7 9 32
20 55 11 23 25 53 30 66 5 14 19 27 32 29 50 10 357 2 369 -10z m1227 -233
c23 -1 49 -22 62 -51 9 -21 10 -20 6 13 -2 20 -2 38 0 41 3 3 20 -3 37 -12 27
-13 66 -16 252 -15 121 1 233 3 249 5 24 3 32 -1 47 -28 24 -43 52 -151 45
-177 -3 -12 -16 -27 -28 -35 -28 -17 -209 -30 -441 -31 -151 0 -168 2 -173 18
-3 9 -10 25 -15 35 -5 9 -7 28 -3 41 4 16 0 31 -13 44 -10 11 -24 28 -32 37
-15 19 -41 98 -41 127 0 18 1 18 16 4 8 -9 23 -16 32 -16z"/>
<path d="M5932 5208 c-11 -13 -30 -48 -42 -78 -20 -52 -20 -58 -5 -93 15 -36
45 -51 45 -23 0 22 146 22 154 0 11 -29 38 -10 52 36 14 48 10 98 -12 141 -17
34 -31 39 -108 39 -52 0 -66 -4 -84 -22z m156 -12 c3 -11 10 -26 18 -34 16
-16 18 -50 4 -86 -7 -19 -17 -26 -35 -26 -14 0 -25 5 -25 10 0 6 -25 10 -56
10 -37 0 -53 -4 -49 -11 5 -7 -3 -9 -21 -7 -27 3 -29 6 -26 38 5 44 16 52 72
46 40 -4 159 8 135 14 -5 1 -50 1 -99 0 l-90 -2 16 24 c13 20 24 23 76 23 69
0 70 12 2 18 -33 3 -30 4 15 3 51 -1 60 -4 63 -20z"/>
<path d="M6463 5220 c-30 -12 -67 -65 -71 -101 -4 -39 26 -129 43 -129 8 0 20
6 27 13 17 16 140 16 159 0 22 -18 40 0 46 45 4 32 0 51 -23 92 -15 28 -39 60
-52 71 -26 20 -90 25 -129 9z m178 -117 c18 -48 8 -54 -81 -47 -58 5 -84 3
-95 -6 -22 -18 -40 1 -43 45 l-3 35 106 0 c105 0 106 0 116 -27z"/>
<path d="M6645 4603 c-11 -2 -29 -6 -41 -8 -22 -5 -80 -85 -67 -94 4 -3 9 -16
11 -28 2 -17 -1 -21 -13 -17 -10 4 -13 13 -9 26 4 15 2 19 -7 16 -21 -7 -18
-159 4 -233 25 -84 39 -110 64 -113 17 -3 24 3 29 22 5 20 12 26 35 26 16 0
29 -4 29 -10 0 -5 -5 -10 -11 -10 -5 0 -7 -5 -3 -11 4 -8 0 -9 -15 -4 -11 3
-21 2 -21 -3 0 -25 150 -30 242 -8 69 17 78 22 78 46 0 10 5 22 10 25 6 4 8
10 5 14 -2 5 -1 21 4 38 7 23 3 43 -16 87 -23 55 -23 59 -6 72 17 13 17 13 -2
14 -14 0 -32 20 -60 65 -25 42 -50 70 -71 80 -30 14 -121 19 -169 8z m225
-123 l20 -40 -143 0 c-79 0 -146 2 -148 5 -3 2 -3 20 -1 40 l4 35 124 0 124 0
20 -40z m-326 -54 c-3 -7 1 -16 10 -19 8 -3 17 1 20 9 3 9 11 12 16 9 6 -4 82
-8 168 -9 l157 -3 18 -48 c18 -48 15 -73 -4 -45 -9 12 -10 12 -5 -2 3 -11 -2
-22 -14 -28 -20 -11 -30 3 -10 15 5 3 7 12 3 21 -4 11 -9 8 -20 -12 -11 -22
-11 -29 -1 -36 20 -12 38 -9 44 7 8 19 24 20 24 1 0 -32 -29 -38 -200 -40
-179 -3 -182 -2 -194 44 -3 14 -13 49 -21 79 -8 29 -12 58 -9 62 9 14 24 10
18 -5z"/>
<path d="M5620 4562 c-23 -11 -46 -36 -65 -69 -23 -40 -36 -53 -55 -54 -17 -1
-20 -3 -7 -6 22 -6 22 -8 -13 -72 -40 -73 -38 -108 9 -201 12 -22 57 -20 53 3
-3 15 6 17 67 17 38 0 71 -4 73 -9 2 -6 26 -3 58 5 62 16 80 13 80 -15 0 -23
33 -33 56 -17 9 7 18 28 20 47 5 42 23 89 35 89 13 0 11 107 -2 132 -8 15 -8
19 0 14 36 -22 -36 111 -77 142 -26 19 -189 16 -232 -6z m187 -58 c19 -5 43
-48 43 -76 0 -7 -279 0 -288 7 -2 2 4 19 12 39 l15 36 98 0 c54 0 108 -3 120
-6z m52 -153 c-10 -63 -18 -73 -55 -73 -25 0 -26 -2 -10 -13 21 -16 53 -8 66
14 7 15 17 74 19 119 1 6 8 12 17 12 12 0 15 -7 11 -27 -8 -42 -39 -147 -43
-153 -3 -2 -84 -5 -181 -7 -152 -2 -180 0 -195 14 -22 20 -16 66 16 128 l21
40 157 0 c86 0 160 3 164 8 16 16 22 -10 13 -62z"/>
<path d="M5150 3050 c0 -6 7 -27 16 -46 12 -26 23 -34 43 -34 37 0 76 -23 75
-43 -2 -15 12 -17 117 -17 98 0 119 3 119 15 0 20 37 38 66 31 16 -4 24 -2 24
7 0 11 -33 13 -167 9 -195 -4 -234 4 -270 57 -13 19 -23 28 -23 21z"/>
<path d="M9615 7960 c17 -7 16 -9 -10 -11 -16 -1 -50 -1 -75 0 -155 6 -1138 5
-1132 -1 4 -4 44 -8 90 -10 45 -1 82 -7 82 -12 0 -5 -46 -56 -102 -112 -57
-57 -116 -119 -131 -138 -18 -22 -34 -33 -43 -29 -14 5 -15 -48 -11 -488 2
-272 1 -575 -3 -674 -4 -99 -4 -185 1 -190 4 -6 11 -38 14 -71 6 -50 4 -66
-11 -88 -15 -25 -16 -33 -5 -77 l13 -49 -33 -27 c-17 -16 -46 -35 -63 -43 -28
-14 -31 -20 -32 -62 -1 -52 -25 -98 -53 -98 -34 0 -80 -22 -86 -41 -8 -23 23
-69 59 -89 33 -17 33 -25 -4 -66 -62 -71 -52 -126 30 -166 53 -26 55 -28 62
-75 5 -34 15 -55 33 -70 25 -22 28 -22 62 -8 19 8 38 15 41 15 2 0 1 -21 -3
-47 -4 -27 -8 -73 -9 -104 -1 -50 -5 -60 -40 -99 -30 -33 -37 -48 -33 -69 3
-15 -1 -34 -9 -45 -8 -11 -14 -28 -14 -38 0 -21 35 -42 57 -34 9 4 24 -1 34
-10 17 -15 18 -52 13 -743 -3 -399 -6 -850 -6 -1002 l-1 -276 -29 -1 c-44 -1
-48 -12 -5 -12 20 0 37 -5 37 -11 0 -7 -26 -9 -75 -7 -41 2 -75 0 -75 -4 0 -4
36 -10 80 -14 47 -4 80 -11 81 -18 1 -6 2 -18 3 -26 2 -8 3 -27 4 -42 1 -16 7
-28 13 -28 7 0 10 20 7 58 l-3 57 250 7 c304 9 797 10 960 3 66 -3 190 -8 275
-11 85 -2 178 -6 205 -9 41 -3 45 -2 25 6 -14 6 -92 13 -174 16 -83 4 -141 9
-130 13 10 4 229 10 487 13 257 3 472 9 477 12 5 3 7 12 3 20 -3 8 0 15 6 15
6 0 11 -7 11 -15 0 -10 10 -15 29 -15 43 0 91 11 86 20 -6 10 21 22 55 25 14
1 34 5 45 9 16 7 17 6 5 -4 -12 -9 -11 -10 7 -5 12 3 24 1 28 -5 3 -5 15 -10
26 -10 13 0 18 4 13 12 -4 7 -3 8 5 4 12 -8 44 17 35 27 -3 3 -20 1 -37 -4
-18 -5 -39 -9 -47 -9 -13 0 -13 1 0 10 27 17 -19 37 -102 45 -43 3 -80 11 -83
16 -5 8 143 15 198 10 9 -1 17 2 17 7 0 10 -78 24 -110 20 -8 0 -31 0 -50 2
l-35 2 45 9 c25 5 68 9 95 8 28 -1 66 0 85 1 l35 2 -40 9 c-22 5 -76 8 -120 8
-118 0 -234 7 -242 14 -3 4 7 7 23 7 17 0 39 7 50 15 25 19 48 19 40 0 -8 -21
3 -21 169 -10 92 7 130 14 121 22 -3 3 -22 7 -43 9 -21 2 -96 8 -167 14 -70 6
-137 8 -147 5 -29 -10 -23 4 24 49 137 133 210 268 294 546 14 47 29 94 33
105 5 11 11 31 13 45 22 125 70 354 82 393 17 56 14 269 -6 409 -6 46 -12 90
-13 98 -1 8 -5 22 -8 30 -5 14 -29 144 -33 180 -2 22 -26 93 -35 105 -13 16
-70 123 -70 130 0 3 5 3 10 0 6 -3 10 -2 10 3 0 6 -6 12 -14 15 -7 3 -38 41
-69 84 -80 114 -165 213 -182 213 -8 0 -15 5 -15 10 0 6 5 10 10 10 6 0 10 6
10 14 0 18 17 29 31 21 7 -5 5 -15 -6 -31 -8 -13 -13 -24 -9 -24 14 0 64 42
64 55 0 7 23 33 50 58 28 25 50 52 50 60 0 8 7 20 15 27 23 19 18 36 -17 63
l-31 25 17 55 c9 30 18 64 19 76 1 11 4 21 8 21 8 0 22 56 23 93 1 33 18 35
65 6 18 -11 35 -18 37 -16 2 2 -17 16 -42 32 -44 28 -45 30 -38 64 4 20 8 60
10 90 1 30 6 75 9 100 4 25 9 62 10 81 2 19 7 55 10 80 4 25 8 61 9 80 1 19 5
41 9 48 5 6 4 12 -1 12 -6 0 -8 23 -6 53 4 60 -10 153 -33 215 -16 41 -11 71
7 42 15 -25 20 -6 9 36 -6 21 -19 48 -28 59 -19 21 -47 111 -43 133 2 6 -1 12
-6 12 -6 0 -13 20 -16 45 -5 29 -15 50 -29 61 -14 10 -18 18 -10 21 14 5 -28
71 -94 150 -27 32 -37 50 -26 46 28 -10 109 -59 177 -107 74 -51 100 -65 66
-36 -36 31 -178 124 -231 150 -24 13 -76 54 -115 91 -39 38 -73 69 -77 69 -4
0 -35 17 -69 38 -35 20 -87 48 -116 62 -86 39 -42 35 49 -4 91 -40 119 -41 42
-3 -69 35 -207 79 -368 117 -77 18 -142 37 -143 42 -2 4 -7 6 -10 4 -4 -2 -29
0 -57 5 -27 5 -93 16 -145 24 -52 7 -104 17 -114 21 -15 6 -17 4 -11 -7 6 -11
5 -12 -6 -1 -7 6 -22 12 -33 11 -21 0 -21 0 -1 -9z m-420 -55 c346 -5 538 -12
563 -20 7 -3 10 -11 7 -17 -4 -7 0 -5 8 5 20 24 52 21 66 -5 6 -13 9 -15 7 -5
-3 9 -1 17 4 17 6 0 10 -4 10 -9 0 -5 15 -8 34 -7 19 2 51 -3 73 -11 21 -8 52
-16 70 -18 112 -13 313 -87 440 -162 96 -57 226 -181 287 -274 16 -24 41 -62
56 -84 62 -92 126 -268 136 -378 5 -57 -3 -79 -10 -26 -2 13 -6 31 -9 39 -3 8
-7 26 -9 40 -2 14 -9 24 -16 22 -8 -1 -11 2 -7 8 3 5 0 10 -7 10 -10 0 -10 2
1 9 10 7 11 13 2 30 -15 27 -21 27 -14 -1 5 -19 0 -17 -30 14 -23 23 -34 43
-31 53 4 8 1 15 -5 15 -6 0 -11 7 -11 15 0 8 -6 15 -12 16 -7 0 -24 14 -38 32
-22 28 -23 30 -5 24 19 -7 18 -6 -2 15 -12 13 -37 39 -54 58 -17 19 -26 27
-19 17 22 -31 2 -31 -37 1 -21 16 -54 39 -73 49 -19 11 -80 46 -135 78 -107
62 -163 88 -210 98 -16 4 11 -14 60 -39 153 -77 208 -110 280 -168 38 -30 72
-53 76 -51 9 6 99 -104 99 -122 0 -8 13 -33 29 -56 36 -53 64 -107 68 -130 2
-10 9 -30 17 -45 7 -15 16 -40 20 -57 3 -16 -15 13 -42 65 -124 247 -240 363
-517 523 -131 75 -221 112 -347 142 -126 29 -339 43 -553 34 -82 -4 -296 -8
-475 -9 -179 -2 -376 -6 -438 -9 -62 -3 -120 -4 -128 -1 -11 4 15 37 95 116
61 61 111 114 111 118 0 4 7 18 16 32 17 25 17 25 133 19 64 -3 274 -8 466
-10z m-755 -302 c36 -2 310 -4 610 -3 590 0 814 -11 932 -48 35 -11 89 -27
121 -37 186 -53 382 -170 508 -302 62 -65 86 -100 132 -194 67 -138 83 -175
93 -214 4 -16 10 -34 14 -40 24 -33 46 -149 55 -300 14 -212 5 -427 -22 -530
-19 -73 -28 -85 -47 -60 -11 16 -11 23 4 49 10 17 26 58 35 91 l17 59 -27 23
c-16 14 -39 23 -61 23 -38 0 -42 9 -19 44 13 19 13 28 4 49 -10 22 -8 34 10
76 38 90 25 116 -82 156 -44 16 -51 17 -80 3 -35 -17 -59 -14 -51 6 3 8 -3 16
-13 20 -38 15 -63 31 -63 43 0 10 -6 10 -25 1 -14 -6 -25 -15 -25 -20 0 -4
-18 -26 -40 -47 -34 -33 -37 -39 -18 -34 19 4 16 -1 -14 -27 -21 -18 -38 -36
-38 -41 0 -18 30 -8 64 22 37 32 53 31 90 -7 14 -14 16 -14 16 0 0 8 -20 27
-45 42 -25 14 -45 28 -45 31 0 10 45 41 53 36 4 -2 5 -13 2 -24 -5 -14 -2 -19
14 -19 11 0 23 5 26 10 10 16 28 12 22 -5 -9 -23 8 -26 75 -14 61 11 66 10
116 -15 29 -15 55 -33 58 -40 3 -7 -5 -30 -17 -50 -11 -20 -18 -43 -15 -51 3
-10 -12 -29 -47 -55 -29 -22 -69 -54 -89 -71 l-38 -30 -44 30 c-25 17 -46 31
-48 31 -3 0 17 -22 44 -50 50 -52 61 -60 52 -36 -5 14 34 49 114 101 69 45 57
24 -18 -34 -39 -29 -73 -57 -76 -62 -12 -20 15 -7 57 26 l44 35 16 -22 c9 -12
29 -22 48 -23 37 -3 81 -30 81 -50 0 -8 -8 -19 -17 -24 -10 -6 -12 -11 -6 -11
19 0 4 -60 -24 -93 -29 -35 -29 -38 2 -67 14 -13 25 -31 25 -40 0 -32 -88
-195 -129 -238 -22 -24 -43 -52 -46 -63 -4 -10 -10 -19 -15 -19 -5 0 -24 -14
-42 -30 -18 -17 -59 -50 -92 -73 -32 -23 -70 -52 -85 -65 -26 -22 -26 -22 -6
-37 17 -14 18 -17 5 -26 -12 -8 -10 -9 6 -4 16 4 39 -8 85 -42 220 -166 361
-366 437 -623 31 -104 62 -238 62 -266 0 -36 -18 1 -29 58 -16 83 -32 141 -43
153 -6 6 -7 4 -4 -5 3 -8 10 -42 15 -75 5 -33 21 -116 35 -184 37 -175 35
-268 -8 -506 -8 -43 -37 -162 -47 -192 -6 -20 -17 -33 -27 -33 -13 0 -14 -2
-4 -9 12 -7 12 -12 0 -32 -7 -13 -16 -26 -19 -29 -3 -3 -20 -35 -38 -72 -56
-118 -216 -298 -265 -298 -14 0 -28 -4 -31 -10 -3 -5 1 -10 9 -10 9 0 16 -4
16 -8 0 -15 -40 -46 -48 -37 -4 4 -1 10 6 12 6 3 12 9 12 13 0 5 -16 0 -35
-11 -19 -12 -35 -25 -35 -29 0 -8 -122 -70 -138 -70 -5 0 -51 -14 -103 -30
-272 -88 -533 -110 -1095 -91 -515 17 -604 19 -604 9 0 -4 32 -8 72 -8 125 0
69 -8 -109 -15 l-173 -7 5 29 c13 79 20 1021 9 1276 -4 87 -2 127 5 127 7 0
11 -26 12 -62 1 -35 2 -76 4 -93 1 -16 3 -94 5 -172 2 -80 7 -140 12 -137 8 5
2 368 -7 444 -2 14 -4 48 -5 75 -1 28 -4 42 -7 33 -9 -34 -19 -17 -17 28 1 26
7 50 14 54 7 4 8 10 3 13 -6 4 -11 88 -12 191 l-2 184 45 0 c28 -1 53 5 63 14
19 17 36 14 63 -10 17 -14 16 -17 -21 -52 -21 -20 -39 -44 -39 -53 0 -31 22
-63 55 -81 30 -16 32 -21 23 -41 -8 -18 -6 -27 8 -42 11 -11 24 -28 30 -39 10
-16 15 -17 33 -6 11 6 27 12 35 12 7 0 19 7 26 15 7 8 19 15 28 15 9 0 39 16
69 37 l53 36 49 -26 c27 -15 51 -27 53 -27 3 0 17 11 33 24 19 17 26 29 21 42
-4 10 -1 21 6 26 21 13 30 9 23 -11 -4 -13 0 -20 15 -24 26 -7 26 -27 0 -34
-24 -6 -27 -23 -5 -23 9 0 26 11 39 25 13 14 34 25 47 25 16 0 45 22 91 71 37
39 68 65 68 57 0 -7 0 -143 -2 -303 -1 -159 -1 -319 -1 -355 1 -36 2 -167 3
-292 l2 -228 34 0 c39 0 41 -5 17 -40 -61 -90 -193 -213 -210 -196 -4 3 0 12
9 19 8 6 33 44 56 84 23 40 47 75 52 78 6 3 10 11 10 17 0 11 -108 -121 -127
-156 -10 -18 -11 -17 -17 10 -4 16 -15 40 -26 54 l-19 25 8 -35 c5 -19 16 -52
25 -72 16 -36 16 -37 -15 -62 -16 -14 -52 -33 -79 -43 -28 -10 -50 -21 -50
-25 0 -10 -1 -11 55 9 74 25 211 101 247 136 108 109 170 219 183 327 3 25 8
52 11 61 5 18 10 50 23 144 13 90 13 311 2 406 -6 46 -12 100 -15 119 -6 56
-54 210 -82 267 -31 65 -101 128 -194 177 -76 40 -201 137 -183 143 23 8 268
-128 316 -175 26 -25 47 -41 47 -35 0 15 -52 93 -62 93 -4 0 -8 10 -8 23 0 17
-2 19 -9 8 -8 -12 -15 -12 -45 3 -20 9 -36 20 -36 25 0 13 62 102 68 97 3 -3
-1 -12 -8 -21 -7 -9 -11 -18 -8 -20 3 -3 11 1 18 10 20 24 55 -27 55 -81 0
-23 3 -40 7 -37 5 2 23 -27 40 -64 38 -79 50 -61 19 27 -11 30 -30 84 -42 120
-12 36 -32 89 -43 118 -16 42 -17 55 -7 65 10 9 16 7 31 -13 11 -14 20 -30 20
-36 0 -15 31 -41 53 -45 13 -3 26 -27 43 -79 30 -88 114 -223 114 -183 0 5 17
7 38 5 l37 -4 -42 44 -43 43 31 33 c37 40 116 227 131 312 5 33 14 60 18 60
12 0 33 -86 25 -109 -10 -33 7 -24 37 19 31 44 53 53 43 18 -4 -13 -23 -52
-43 -88 -38 -67 -97 -225 -110 -295 -6 -30 -12 -39 -25 -37 -10 2 -17 -4 -17
-13 0 -9 5 -13 11 -9 8 4 9 -14 3 -62 -4 -38 -7 -75 -7 -81 0 -7 -5 -13 -10
-13 -5 0 -7 26 -3 63 4 50 4 56 -5 32 -19 -55 -26 -297 -9 -303 6 -2 8 -7 6
-10 -2 -4 -7 -78 -11 -166 -4 -111 -3 -156 4 -151 12 7 15 -8 4 -19 -9 -8 -8
-165 2 -251 5 -46 11 -65 21 -65 16 0 18 -12 5 -25 -22 -22 80 -380 118 -416
42 -40 75 -53 135 -54 46 -1 73 -8 110 -28 50 -28 96 -35 96 -16 0 6 -9 8 -20
4 -11 -3 -20 -2 -20 3 0 6 -20 23 -45 39 -43 27 -56 43 -35 43 6 0 10 -3 10
-8 0 -4 23 -15 50 -25 28 -10 50 -22 50 -27 0 -6 16 -10 35 -10 46 0 44 14 -5
42 -59 34 -49 46 33 38 21 -2 21 -2 -3 -9 -24 -7 36 -17 155 -27 22 -1 53 -7
68 -13 16 -6 33 -11 38 -11 18 0 -15 26 -46 38 -37 13 -20 16 83 12 47 -1 72
2 72 9 0 12 -47 16 -170 12 l-85 -2 33 20 c17 11 32 23 32 26 0 7 -70 -22 -87
-37 -10 -8 -17 -8 -25 0 -9 9 -7 17 7 32 23 25 8 26 -25 0 -47 -37 -65 -22
-29 24 32 40 12 46 -22 7 -30 -36 -29 -37 -45 17 -2 6 -8 12 -14 12 -9 0 -11
-6 -9 -27 0 -11 -81 -32 -100 -26 -60 21 -120 96 -164 206 -29 72 -34 103 -16
91 17 -10 130 115 161 177 43 87 40 77 58 224 15 118 15 103 1 235 -16 141
-52 255 -101 317 -27 35 -25 43 12 43 29 0 30 1 13 14 -18 13 -16 16 24 64 41
49 66 67 85 63 4 -1 14 4 22 10 21 18 17 -5 -5 -25 -14 -13 -20 -14 -23 -5 -5
16 -25 4 -39 -24 -12 -22 -12 -22 10 -3 17 16 24 17 34 7 9 -10 9 -15 -3 -24
-8 -7 -16 -22 -17 -33 -2 -18 2 -21 19 -16 44 11 198 136 185 149 -4 3 -13 0
-21 -6 -8 -7 -20 -10 -26 -6 -12 7 -49 -14 -82 -47 -11 -11 -22 -17 -25 -15
-10 11 102 107 124 107 13 0 13 -3 3 -15 -15 -18 1 -20 18 -3 9 9 12 9 12 -2
0 -8 15 0 37 21 36 34 36 34 16 4 -32 -48 -35 -55 -24 -55 6 0 11 6 11 13 0
13 109 122 201 202 46 40 78 85 60 85 -5 0 -18 -10 -28 -22 -26 -32 -119 -108
-132 -108 -16 0 -14 10 6 34 15 18 14 18 -8 -1 -26 -24 -49 -30 -49 -14 0 6 5
13 10 16 6 3 10 11 10 17 0 6 -9 3 -20 -7 -25 -23 -27 -4 -4 40 10 19 11 31 5
33 -21 7 -10 28 27 51 50 31 68 57 51 77 -9 11 -15 12 -23 4 -8 -8 -7 -13 4
-20 8 -5 11 -12 7 -17 -5 -4 -12 -1 -16 6 -7 11 -16 9 -42 -11 -19 -14 -43
-28 -53 -32 -15 -5 -16 -10 -8 -18 8 -8 8 -15 1 -24 -7 -8 -7 -14 1 -19 24
-15 9 -52 -37 -94 -38 -34 -44 -44 -33 -51 13 -8 13 -12 -3 -27 -16 -16 -17
-15 -13 23 l4 41 -25 -25 c-35 -35 -39 -21 -8 28 15 23 24 44 22 46 -2 3 -28
-16 -56 -42 -28 -26 -54 -44 -58 -41 -3 4 -1 12 4 19 15 19 32 75 26 82 -8 8
-49 -33 -75 -72 -18 -30 -22 -32 -36 -18 -12 12 -13 18 -3 30 7 8 14 31 15 50
3 28 0 33 -13 28 -35 -13 36 61 91 95 46 28 60 33 76 24 15 -8 23 -7 33 5 7 8
18 13 25 10 15 -6 52 20 41 30 -4 4 -7 2 -7 -4 0 -7 -7 -12 -17 -12 -14 0 -14
2 3 21 19 21 18 21 -9 45 -16 13 -37 24 -48 24 -27 0 -24 9 19 54 l37 39 -42
-33 c-24 -18 -43 -37 -43 -41 0 -11 -60 -42 -67 -35 -3 2 5 15 18 29 13 13 31
32 39 43 14 18 14 18 -5 4 -11 -8 -25 -21 -30 -28 -6 -7 -18 -10 -28 -6 -20 7
-23 24 -4 24 7 0 22 7 33 15 16 13 14 13 -19 0 -31 -13 -45 -13 -77 -4 -22 7
-40 15 -40 18 0 3 14 21 30 40 45 51 36 58 -17 13 -45 -39 -73 -45 -73 -15 0
9 -6 13 -14 10 -20 -8 -36 15 -29 41 7 30 -3 28 -44 -8 -43 -38 -61 -38 -65 1
l-3 30 -22 -20 c-31 -29 -34 -27 -28 22 2 23 2 33 -1 23 -4 -11 -12 -25 -19
-32 -9 -10 -11 -2 -9 39 3 47 3 49 -5 14 -13 -60 -23 -57 -19 5 2 38 0 54 -7
47 -5 -5 -10 -34 -9 -64 0 -56 -15 -55 -17 0 0 33 -2 30 -29 -42 -8 -21 -19
-33 -31 -33 -24 0 -25 40 -3 117 9 30 14 57 11 59 -5 5 -47 -106 -47 -125 0
-6 -4 -11 -10 -11 -5 0 -10 19 -10 43 0 31 -3 38 -10 27 -5 -8 -10 -25 -10
-37 0 -13 -2 -23 -5 -23 -8 0 -80 42 -85 50 -6 9 -80 25 -80 17 0 -3 19 -17
43 -30 78 -46 82 -68 25 -133 -30 -34 -58 -45 -58 -21 0 9 -3 8 -9 -2 -14 -22
-31 -3 -31 35 0 19 -4 34 -9 34 -4 0 -20 -27 -35 -60 -15 -33 -32 -58 -37 -54
-6 3 -6 10 -1 17 5 7 12 24 16 39 3 14 9 34 12 45 6 14 4 16 -6 6 -7 -6 -19
-9 -26 -6 -9 3 -14 -2 -14 -15 0 -25 -28 -92 -38 -92 -17 0 -21 13 -11 32 20
37 -3 33 -36 -7 l-34 -39 -36 17 c-49 24 -51 22 -16 -20 l30 -36 -19 -38 c-23
-45 -39 -57 -51 -38 -7 11 -9 10 -9 -4 0 -10 -10 -21 -22 -26 -28 -11 -39 -3
-15 10 19 11 24 53 5 46 -7 -2 -12 -11 -12 -20 1 -9 -3 -14 -8 -11 -5 3 -12
-3 -15 -15 -7 -27 -20 -27 -29 2 -8 21 -8 20 -13 -8 -5 -22 -14 -31 -39 -39
-51 -14 -37 -23 32 -20 78 3 101 -13 69 -49 -40 -46 -46 -61 -10 -28 l36 34
-2 -35 c-2 -20 -15 -52 -31 -72 -22 -30 -33 -36 -63 -36 -24 0 -45 8 -59 21
-22 21 -62 20 -49 -1 3 -5 -3 -20 -14 -32 -12 -12 -21 -27 -21 -32 0 -6 10 1
21 17 31 41 42 33 14 -10 -14 -20 -22 -39 -19 -42 4 -3 8 -1 10 4 2 6 13 25
24 43 21 34 19 34 69 5 2 -1 -9 -19 -24 -39 -18 -24 -30 -32 -35 -24 -5 7 -17
-5 -34 -34 -16 -28 -32 -44 -38 -40 -7 5 -9 1 -5 -9 3 -9 2 -16 -4 -14 -6 1
-26 -22 -45 -50 -40 -63 -37 -70 6 -11 16 22 30 38 30 35 0 -18 -81 -127 -94
-127 -3 0 -6 7 -6 15 0 8 5 15 11 15 6 0 8 7 5 16 -4 9 0 24 7 33 22 26 58 93
53 98 -2 3 -12 -9 -20 -26 -23 -44 -76 -102 -88 -95 -5 3 3 19 19 36 18 19 22
27 10 22 -10 -3 -22 -15 -28 -25 -12 -23 -28 -24 -36 -3 -6 17 42 74 63 74 7
0 14 -8 17 -17 3 -14 7 -11 17 12 8 17 28 48 46 70 44 57 52 75 18 40 -16 -16
-28 -32 -27 -34 1 -2 -8 -12 -22 -23 -23 -18 -24 -18 -59 5 -26 18 -32 27 -23
36 6 6 16 11 22 11 7 0 34 22 60 49 27 28 52 48 57 45 10 -7 48 14 48 26 0 6
-9 10 -20 10 -11 0 -20 6 -20 14 0 26 41 110 60 123 11 8 17 20 13 29 -6 17
-28 13 -28 -6 0 -7 -15 -24 -32 -38 -26 -20 -33 -21 -33 -9 0 10 -6 14 -14 11
-8 -3 -16 2 -19 13 -4 16 -5 16 -6 1 0 -9 10 -28 24 -41 23 -20 24 -27 15 -51
-5 -15 -10 -38 -10 -51 0 -15 -10 -31 -25 -41 -14 -9 -25 -22 -25 -30 0 -17
-14 -25 -57 -30 -21 -3 -45 -11 -54 -20 -9 -8 -23 -12 -32 -8 -11 4 -19 0 -23
-10 -4 -10 -16 -15 -37 -13 l-32 2 -3 107 c-3 104 -2 106 21 112 13 3 29 18
37 33 7 16 15 23 17 16 2 -6 -3 -26 -12 -43 -11 -21 -12 -31 -5 -28 7 2 23 30
36 63 34 83 31 108 -6 63 -19 -23 -19 -22 -2 14 18 39 32 49 32 23 0 -8 5 -15
10 -15 6 0 10 -11 10 -25 0 -14 5 -25 10 -25 6 0 10 -9 10 -20 0 -11 -4 -20
-8 -20 -4 0 -16 -15 -26 -32 l-19 -33 35 38 c20 20 43 37 52 37 21 0 20 3 -9
46 -14 20 -22 41 -19 46 3 5 -2 15 -11 22 -16 11 -15 15 4 49 24 42 25 47 12
47 -5 0 -18 -15 -30 -32 -19 -30 -21 -31 -17 -8 3 14 5 30 5 36 1 6 26 42 56
80 30 38 55 75 55 82 0 18 -20 15 -27 -5 -3 -10 -18 -31 -33 -48 -15 -16 -35
-46 -45 -65 -10 -19 -22 -42 -26 -50 -5 -8 -13 -25 -18 -37 -6 -11 -15 -24
-21 -28 -9 -6 -9 -10 1 -16 17 -10 5 -24 -29 -34 -23 -7 -23 -6 -7 19 9 14 14
29 11 35 -3 5 5 23 19 39 14 17 32 46 40 65 8 19 20 41 27 49 22 22 81 118 76
123 -4 4 -42 -48 -84 -113 -2 -2 -10 1 -20 6 -14 8 -21 5 -31 -16 -11 -20 -11
-27 -2 -33 9 -5 5 -17 -15 -43 -32 -43 -46 -46 -46 -9 0 35 34 104 82 171 22
29 36 57 33 63 -8 11 -35 -7 -35 -23 0 -5 -15 -30 -32 -56 -18 -26 -32 -51
-30 -55 1 -4 -4 -18 -13 -30 -14 -21 -15 -20 -15 21 0 49 28 111 60 130 26 16
17 32 -17 32 -21 0 -23 -3 -14 -14 10 -12 9 -20 -4 -40 -22 -33 -25 -33 -25 2
0 15 -3 123 -6 240 l-6 212 26 0 c18 0 24 4 20 15 -4 8 -12 15 -19 15 -18 0
-28 52 -20 100 8 49 41 63 85 36 35 -20 70 -21 70 -1 0 8 5 15 10 15 6 0 10
-2 10 -5 0 -8 -55 -118 -84 -167 -16 -27 -26 -57 -24 -70 4 -22 5 -21 16 7 21
50 64 128 93 165 14 19 29 47 33 61 3 14 23 46 43 70 21 24 45 53 53 64 l15
20 -25 -20 c-14 -11 -40 -36 -58 -55 -27 -29 -31 -31 -21 -10 17 37 81 100
101 100 10 0 18 5 18 10 0 6 -4 10 -10 10 -26 0 -60 -28 -104 -86 -27 -36 -53
-67 -58 -70 -18 -12 -66 -15 -72 -5 -10 15 34 54 61 56 35 1 93 77 93 121 0 8
-4 12 -10 9 -5 -3 -10 -14 -10 -24 0 -26 -41 -76 -50 -61 -5 8 -12 5 -24 -11
-16 -23 -16 -23 -16 -2 0 12 -6 23 -12 25 -9 3 -8 12 5 31 24 37 22 39 -15 18
-40 -22 -108 -36 -108 -22 0 5 5 13 10 16 6 3 10 11 10 17 0 6 -9 3 -19 -6
-19 -17 -19 -17 -14 2 3 12 14 28 24 38 25 23 24 38 -1 24 -17 -9 -20 -8 -20
11 0 16 5 20 20 16 27 -7 25 7 -2 26 -13 8 -20 18 -15 23 4 4 13 2 19 -4 7 -7
21 -12 31 -12 16 0 17 3 7 15 -10 12 -7 15 14 21 14 3 33 4 41 1 23 -10 26 9
5 35 -10 14 -22 37 -25 51 -7 25 -3 29 41 48 72 31 120 36 144 14 16 -15 23
-16 33 -6 9 9 9 14 -2 20 -11 7 -11 10 0 17 7 4 14 3 17 -4 5 -17 52 -15 52 2
0 8 -6 16 -12 18 -20 7 18 57 48 64 18 5 34 0 54 -14 29 -22 40 -20 40 9 0 18
35 49 56 49 6 0 17 -12 25 -27 8 -16 21 -34 29 -41 13 -12 12 -13 -7 -9 -13 3
-26 1 -29 -4 -3 -5 -21 -9 -40 -9 -19 0 -33 -4 -31 -9 1 -4 -9 -18 -23 -29
-31 -25 -21 -39 13 -17 16 10 34 14 51 9 15 -3 26 -2 25 2 -7 42 40 48 61 9
12 -23 15 -24 31 -9 16 15 36 100 25 111 -2 3 -14 -13 -26 -36 -22 -43 -36
-55 -25 -21 4 12 2 20 -6 20 -16 0 -6 98 15 139 19 36 6 42 -17 9 l-15 -23
-26 24 c-14 14 -26 28 -26 32 0 14 63 42 95 42 l30 -1 -30 10 c-39 14 -42 17
-25 28 20 13 67 13 75 0 11 -17 46 -12 43 7 -4 23 40 45 78 38 28 -5 33 -2 44
25 7 16 16 30 21 30 5 0 6 6 3 13 -3 8 2 20 11 27 8 7 15 19 15 26 0 8 14 17
30 21 17 3 30 11 30 17 0 13 82 46 113 46 9 0 17 7 17 15 0 23 46 30 75 11 31
-20 33 -3 3 18 -31 22 -45 20 -101 -10 -27 -14 -61 -27 -75 -29 -15 -1 -30 -3
-34 -4 -21 -3 -97 -93 -114 -133 -19 -46 -20 -47 -55 -42 -31 5 -39 2 -61 -24
-22 -27 -30 -30 -65 -25 -43 6 -83 -9 -83 -31 0 -8 -16 -27 -36 -43 -35 -28
-36 -30 -23 -58 8 -16 25 -32 39 -35 19 -5 24 -12 22 -30 -3 -33 -8 -35 -37
-20 -23 12 -28 11 -55 -15 -27 -26 -33 -28 -60 -18 -44 17 -69 6 -126 -55 -51
-54 -52 -54 -77 -37 -25 16 -28 15 -95 -14 -39 -17 -75 -31 -80 -31 -17 0 -21
-25 -10 -74 5 -26 8 -49 6 -51 -1 -2 -20 -6 -40 -10 l-38 -7 0 353 c0 195 -5
438 -11 542 -9 150 -9 190 1 203 8 8 20 12 29 8 9 -4 45 -9 81 -11z m-130
-1899 l-1 -266 -30 -47 c-34 -56 -37 -71 -9 -46 11 10 20 24 20 31 0 7 5 16
10 19 6 4 10 -8 10 -29 0 -24 -5 -36 -14 -36 -7 0 -19 -7 -26 -15 -16 -19 -44
-19 -60 -1 -11 15 -1 36 50 101 21 26 42 75 32 75 -4 0 -16 -16 -26 -35 -11
-19 -23 -35 -28 -35 -15 0 -8 26 17 60 14 19 25 41 25 49 0 9 -13 -6 -29 -32
-15 -26 -32 -52 -38 -58 -13 -13 -89 16 -120 46 -24 23 -25 21 34 111 18 27
28 51 23 52 -6 2 -10 10 -10 18 0 9 -4 12 -10 9 -15 -9 -83 46 -71 58 5 5 33
15 62 21 57 13 85 39 59 57 -12 8 -10 9 8 4 29 -8 37 13 18 50 -16 31 -7 55
21 55 8 0 24 11 35 25 11 14 26 25 34 25 12 0 14 -40 14 -266z m1780 -433 c0
-7 -50 -48 -120 -99 -2 -2 2 -7 10 -12 13 -8 11 -13 -7 -32 -13 -12 -23 -17
-23 -10 0 7 5 12 10 12 6 0 10 7 10 15 0 20 -9 19 -29 -3 -9 -11 -21 -21 -28
-23 -6 -2 -34 -26 -63 -53 -36 -34 -48 -51 -40 -56 10 -6 8 -16 -8 -42 -32
-52 -14 -54 26 -3 19 25 39 45 45 45 5 0 4 -6 -3 -15 -6 -8 -9 -19 -5 -24 3
-6 -5 -22 -19 -36 -33 -33 -34 -46 -2 -15 44 41 70 8 45 -57 -12 -32 -79 -133
-88 -133 -3 0 -18 11 -33 25 -35 30 -37 56 -12 192 8 46 31 93 44 93 6 0 10 5
10 11 0 5 -4 7 -10 4 -5 -3 -10 -2 -10 2 0 17 96 101 151 132 31 17 62 38 69
46 7 8 18 15 25 15 7 0 18 7 25 15 14 17 30 20 30 6z m-543 -30 c-1 -16 -5
-27 -9 -25 -8 5 -39 -38 -32 -45 3 -3 9 1 14 9 6 9 10 10 10 3 0 -24 -13 -43
-30 -43 -18 0 -35 -25 -22 -33 4 -2 2 -2 -5 -1 -7 2 -10 -3 -7 -11 4 -11 12
-12 32 -4 30 11 72 -5 72 -28 0 -7 5 -13 10 -13 7 0 7 -6 1 -17 -6 -10 -12
-30 -16 -45 -12 -61 -105 -18 -105 49 0 18 -4 33 -10 33 -5 0 -10 11 -10 25 0
14 6 25 13 25 8 0 22 19 33 43 21 47 54 107 60 107 2 0 2 -13 1 -29z m463
-338 c0 -11 -30 -54 -68 -99 -67 -78 -193 -260 -199 -286 -5 -27 -23 -40 -23
-17 0 5 -5 7 -10 4 -6 -4 -8 -10 -5 -15 3 -5 0 -12 -7 -17 -23 -15 -50 -74
-53 -117 -2 -22 -5 -48 -8 -56 -3 -8 -7 -22 -10 -30 -2 -8 -4 20 -3 62 0 43 4
78 7 78 12 0 18 43 8 59 -8 13 -9 11 -7 -9 2 -15 -2 -25 -9 -25 -17 0 -17 2
-9 65 6 44 9 51 17 37 9 -16 13 -14 43 15 18 18 49 44 69 58 20 14 71 75 113
135 43 61 88 122 102 138 24 25 52 36 52 20z m-95 -384 c34 -76 65 -223 65
-311 0 -101 -18 -154 -65 -195 -35 -30 -152 -93 -174 -93 -23 0 -27 259 -7
375 25 135 47 201 94 278 22 37 24 38 42 22 10 -9 30 -43 45 -76z"/>
<path d="M9530 7241 c0 -6 4 -11 10 -11 14 0 41 -57 34 -74 -4 -10 2 -17 20
-22 15 -3 36 -20 48 -38 12 -17 23 -33 24 -34 5 -7 124 41 135 54 6 8 32 23
56 34 41 18 47 18 74 4 37 -19 48 -43 26 -59 -23 -17 -21 -28 11 -58 64 -62
66 -65 51 -83 -8 -10 -13 -26 -11 -37 2 -10 -7 -30 -19 -43 -24 -26 -20 -31
11 -12 15 10 22 9 38 -6 21 -18 34 -73 20 -82 -4 -3 -8 -13 -8 -22 0 -14 3
-14 20 4 18 17 19 25 10 49 -6 15 -8 30 -5 34 4 3 32 6 64 7 42 1 70 8 102 27
37 21 53 25 103 21 75 -5 89 -17 81 -63 -5 -31 -3 -37 17 -46 28 -12 30 -34 3
-49 -11 -6 -22 -12 -24 -13 -2 -1 9 -17 23 -34 15 -18 23 -35 18 -38 -5 -3
-11 -12 -14 -20 -2 -8 -34 -31 -72 -51 -63 -34 -176 -132 -176 -151 0 -17 30
-9 48 13 50 63 99 111 126 125 25 12 19 3 -26 -41 -32 -30 -58 -60 -58 -65 0
-5 -7 -12 -16 -15 -30 -12 -8 -16 24 -5 17 6 34 19 37 30 4 10 9 19 13 19 4 0
27 18 52 41 37 34 48 39 62 30 10 -6 26 -11 35 -11 14 1 12 5 -9 21 -31 23
-36 39 -13 39 20 0 30 27 16 44 -6 7 -8 15 -5 19 3 3 1 14 -4 24 -7 13 -6 24
4 38 20 27 17 43 -12 70 -18 16 -24 30 -19 43 11 35 -34 74 -91 79 -43 4 -59
1 -106 -26 l-56 -32 -30 26 c-34 28 -64 32 -82 10 -10 -13 -7 -14 25 -12 23 1
40 -3 42 -10 3 -9 -12 -12 -51 -12 -58 1 -65 6 -43 28 10 11 7 12 -13 6 -24
-7 -24 -7 -7 12 27 30 21 60 -22 106 -36 39 -39 45 -34 88 l5 45 -44 17 c-49
19 -98 22 -98 7 0 -5 -19 -21 -41 -36 -33 -20 -43 -23 -50 -13 -6 10 -13 6
-29 -14 -21 -26 -60 -37 -60 -17 0 5 -17 26 -37 46 -21 21 -43 51 -49 68 -10
30 -54 51 -54 27z"/>
<path d="M9265 6643 c4 -122 3 -232 -4 -288 -7 -59 -7 -91 -1 -95 6 -4 9 -32
8 -62 -2 -51 -4 -55 -20 -47 -10 5 -18 14 -18 19 0 23 -18 7 -23 -20 -4 -16
-13 -30 -21 -30 -8 0 -16 -14 -20 -33 -6 -33 -43 -83 -53 -73 -3 3 -5 33 -5
68 0 43 -2 57 -8 43 -5 -11 -9 -43 -9 -71 -1 -30 -7 -56 -14 -63 -18 -14 -30
-2 -16 15 6 7 9 23 7 36 -3 18 -7 14 -18 -22 -14 -43 -16 -45 -55 -45 -35 0
-40 3 -39 23 0 12 -3 22 -8 22 -4 0 -8 -4 -8 -10 0 -5 -7 -10 -15 -10 -8 0
-15 7 -15 15 0 8 -4 15 -10 15 -5 0 -10 -7 -10 -15 0 -19 -61 -58 -73 -46 -5
5 -3 37 6 75 8 36 12 66 7 66 -4 0 -10 -14 -14 -31 -3 -17 -12 -45 -20 -62 -8
-18 -16 -40 -20 -49 -6 -21 -25 -23 -50 -5 -17 12 -17 16 -2 51 19 45 19 46 7
46 -5 0 -17 -21 -27 -47 l-18 -46 37 -32 c20 -18 37 -40 37 -49 0 -18 -63 -86
-79 -86 -6 0 -14 8 -20 18 -9 16 -10 16 -16 -1 -10 -25 13 -48 41 -41 27 7 30
-3 10 -31 -12 -17 -16 -18 -52 -4 -42 16 -42 19 -28 93 5 27 4 37 -4 33 -5 -4
-13 -25 -17 -47 -6 -36 -25 -67 -25 -40 0 6 -11 15 -24 20 -35 13 -40 42 -17
96 12 26 21 49 21 53 -1 12 -60 -94 -60 -108 0 -27 69 -98 124 -127 54 -28 55
-29 37 -49 -28 -31 -63 -85 -56 -85 10 0 85 83 85 93 0 11 42 57 52 57 3 0 8
-8 10 -17 3 -15 12 -10 46 24 45 45 47 44 33 -5 -13 -45 6 -42 25 4 14 34 16
35 29 18 8 -11 15 -25 15 -31 0 -20 17 -15 37 10 10 13 30 31 45 41 26 17 28
17 56 -4 16 -12 36 -33 43 -46 7 -13 19 -24 27 -24 26 0 5 43 -53 105 -60 64
-59 78 2 46 57 -31 84 -57 77 -75 -3 -9 -1 -16 5 -16 23 0 91 165 91 222 0 38
28 98 45 98 6 0 9 -33 9 -82 -2 -109 -2 -108 -17 -108 -15 0 -67 -78 -66 -100
0 -11 3 -9 9 5 18 40 45 66 63 59 18 -7 22 -25 18 -91 l-3 -43 59 0 c70 0 209
24 256 44 35 14 130 82 135 97 2 4 9 6 16 3 15 -6 59 53 50 68 -4 7 -3 8 4 4
13 -8 16 -36 4 -36 -7 0 -25 -37 -37 -77 -10 -35 11 -27 24 7 5 17 17 38 26
46 9 9 31 39 50 68 19 28 55 78 79 111 25 33 45 63 45 68 2 17 -39 -20 -56
-50 -10 -18 -21 -33 -25 -33 -17 0 -6 23 30 61 26 29 42 38 55 34 18 -8 23
-30 8 -40 -24 -14 -141 -175 -146 -201 -6 -26 -5 -27 6 -9 7 11 16 24 21 30 4
5 32 42 61 80 28 39 58 76 65 83 6 7 12 18 12 23 0 5 7 9 15 9 23 0 18 -13
-15 -40 -33 -28 -37 -45 -14 -54 11 -4 18 1 21 14 3 11 12 20 19 20 21 0 17
-12 -16 -50 -27 -30 -30 -32 -24 -11 4 16 3 21 -5 17 -6 -4 -11 -2 -11 5 0 10
-3 10 -12 1 -8 -8 -8 -15 2 -27 7 -8 10 -18 7 -21 -3 -3 -2 -17 3 -30 12 -31
0 -31 -33 0 -18 16 -29 21 -34 14 -3 -7 3 -18 15 -26 12 -8 22 -21 22 -28 0
-20 40 -17 77 5 32 20 79 27 166 23 54 -2 70 -21 42 -52 -21 -23 -12 -40 22
-40 16 0 43 -15 68 -37 24 -21 53 -45 65 -53 l21 -15 -24 -46 c-21 -43 -22
-46 -4 -35 15 8 21 8 24 -2 3 -7 11 -18 18 -25 11 -10 9 -18 -8 -47 l-20 -35
31 29 c18 17 32 25 32 19 0 -6 3 -19 7 -29 5 -14 3 -16 -11 -11 -20 8 -44 -2
-28 -12 5 -3 12 -15 16 -27 8 -27 -40 -76 -105 -105 -32 -15 -49 -29 -49 -40
0 -16 5 -16 53 6 55 26 77 31 77 16 0 -5 -6 -12 -12 -14 -8 -4 -9 -6 -2 -6 6
-1 17 6 24 14 9 11 9 15 1 15 -23 0 34 66 119 139 l25 21 -30 -12 c-16 -7 -33
-17 -37 -23 -4 -5 -10 -6 -15 -2 -4 5 -2 12 5 16 7 4 12 12 11 17 -5 27 7 43
57 79 56 40 105 95 85 95 -6 0 -11 -4 -11 -9 0 -5 -9 -12 -20 -16 -20 -6 -50
-29 -97 -72 -13 -13 -29 -23 -34 -23 -19 0 -3 25 32 48 23 16 33 31 32 45 -1
12 1 16 3 10 10 -23 29 -13 67 36 46 61 47 69 4 37 -35 -27 -61 -36 -39 -14
17 17 15 38 -4 38 -15 0 -15 2 0 23 9 12 23 36 32 52 17 29 16 29 -1 15 -32
-26 -74 -74 -75 -86 0 -6 -9 -19 -21 -30 -15 -14 -22 -15 -28 -6 -6 9 -13 7
-30 -7 -19 -16 -26 -18 -42 -8 -21 13 -25 27 -9 27 6 0 15 12 20 26 6 14 23
37 40 51 16 13 30 33 30 44 0 24 -12 24 -35 -1 -10 -11 -28 -20 -41 -20 -13 0
-35 -15 -53 -35 -33 -38 -44 -37 -94 7 -19 17 -19 18 12 59 29 40 35 67 9 41
-14 -14 -38 -16 -38 -3 0 4 10 21 22 37 12 15 23 33 24 38 1 6 6 20 10 30 5
12 -20 -2 -64 -38 -40 -31 -77 -54 -83 -51 -5 4 -17 1 -25 -6 -8 -6 -18 -9
-22 -5 -4 4 5 17 19 29 74 61 145 114 174 129 30 16 91 85 83 93 -2 3 -22 -13
-43 -35 -42 -43 -55 -49 -55 -25 0 22 -15 18 -26 -5 -11 -24 -156 -151 -164
-144 -3 3 36 43 85 90 71 66 87 85 76 93 -11 7 -27 -3 -64 -40 -27 -27 -60
-57 -73 -65 -13 -9 -26 -25 -30 -36 -7 -24 -104 -125 -104 -109 0 12 88 124
101 129 5 2 9 7 9 12 0 21 86 109 120 122 18 7 21 11 11 17 -7 5 -21 6 -31 4
-13 -4 -19 1 -22 17 -2 18 -9 13 -38 -32 -26 -40 -42 -54 -62 -56 -16 -2 -28
1 -28 7 0 6 -6 8 -12 6 -7 -3 -19 -1 -26 3 -10 7 -4 24 23 73 32 55 33 61 12
41 -13 -13 -33 -39 -43 -58 -21 -38 -39 -46 -29 -11 4 15 4 18 -3 8 -10 -14
-32 -7 -32 10 0 6 9 29 20 51 11 23 18 44 15 46 -3 3 -6 3 -8 1 -25 -36 -81
-99 -84 -95 -3 3 0 19 7 36 18 43 6 48 -14 5 -9 -19 -19 -35 -22 -35 -2 0 -4
42 -3 93 1 114 -6 158 -37 219 -13 26 -24 53 -23 60 1 26 69 -126 69 -154 0
-17 4 -27 10 -23 37 23 -32 211 -77 209 -12 0 -21 3 -20 7 1 4 -34 38 -78 76
-96 82 -153 103 -294 109 -53 2 -111 6 -129 9 l-34 6 7 -198z m290 112 c73
-14 185 -114 226 -202 36 -76 37 -124 4 -182 -28 -48 -29 -51 -17 -51 5 0 17
18 27 40 10 22 21 37 24 34 9 -9 7 -153 -2 -147 -4 2 -10 -4 -14 -13 -4 -10
-2 -19 5 -22 23 -7 14 -104 -12 -143 -22 -33 -29 -36 -103 -47 -43 -7 -100
-14 -127 -17 -30 -3 -58 -13 -71 -25 -29 -28 -45 -25 -46 8 0 15 -2 70 -4 122
-1 52 -4 210 -5 349 -1 140 -6 265 -10 277 -5 12 -6 25 -2 29 7 7 63 2 127
-10z"/>
<path d="M10535 5011 c-16 -10 -59 -49 -94 -86 -43 -45 -66 -63 -71 -55 -5 9
-9 9 -14 1 -4 -6 -4 -16 0 -22 4 -7 1 -10 -6 -7 -24 8 -20 22 13 48 18 13 26
17 18 7 -30 -37 5 -14 45 31 79 86 42 77 -60 -16 -64 -59 -80 -79 -52 -69 20
8 21 -6 1 -23 -10 -9 -15 -9 -15 -1 0 6 -4 11 -9 11 -4 0 -6 -11 -4 -24 6 -28
-14 -38 -65 -31 -38 4 -62 -2 -62 -17 0 -6 -19 -28 -42 -50 -24 -22 -36 -36
-28 -32 8 4 25 16 37 27 12 10 26 16 32 13 7 -4 8 -1 5 8 -4 11 0 16 10 16 9
0 17 -4 17 -10 3 -20 4 -25 11 -36 24 -37 -93 -65 -157 -38 -35 14 -55 12 -55
-6 0 -4 20 -18 45 -30 33 -16 53 -20 73 -14 15 4 39 8 53 8 15 1 37 10 49 21
18 16 21 28 17 62 -4 40 -3 43 19 43 13 0 35 -5 50 -12 22 -10 28 -10 40 6 12
18 14 18 40 -3 49 -39 126 -18 159 42 13 25 31 41 53 48 38 12 65 60 55 97 -4
17 2 26 27 39 53 30 63 39 56 52 -5 8 -12 9 -19 2 -8 -6 -26 -4 -52 5 -54 19
-84 17 -120 -5z m84 -23 c16 -10 18 -16 8 -32 -6 -12 -12 -32 -13 -45 -2 -13
-13 -31 -24 -40 -12 -9 -33 -26 -47 -38 -14 -13 -29 -23 -32 -23 -3 0 -11 -10
-16 -22 -10 -23 -59 -47 -71 -35 -4 4 -1 13 6 22 7 8 8 15 2 15 -5 0 -15 -7
-22 -15 -7 -9 -15 -14 -17 -11 -7 6 28 56 39 56 5 0 20 10 33 23 13 12 53 47
88 77 36 30 64 56 62 58 -6 6 -123 -79 -159 -117 -22 -22 -53 -43 -70 -47 -17
-4 -37 -15 -44 -25 -17 -24 -32 -24 -25 -1 2 10 19 27 36 37 18 10 67 53 109
96 81 83 111 96 157 67z"/>
<path d="M9550 3682 c0 -63 -33 -227 -50 -247 -6 -7 -7 -15 -4 -18 9 -9 -25
-59 -35 -53 -4 3 -27 -15 -51 -39 -38 -38 -41 -45 -23 -45 11 0 26 6 32 14 6
8 22 16 34 20 15 3 3 -14 -40 -55 -35 -34 -63 -63 -63 -65 0 -16 43 3 91 41
32 25 61 45 66 43 16 -3 91 22 95 33 2 5 44 -13 94 -40 92 -52 154 -73 154
-53 0 6 -15 14 -33 17 -19 4 -56 23 -83 44 -27 21 -55 36 -62 33 -7 -2 -15 5
-18 15 -3 10 -10 29 -16 43 l-10 25 -10 -25 c-7 -20 -11 -22 -19 -10 -8 13
-11 13 -23 -2 -11 -15 -13 -13 -14 23 -1 22 1 38 6 36 8 -6 7 256 -2 292 -10
44 -16 35 -16 -27z"/>
<path d="M9452 3502 c-6 -17 -16 -32 -21 -32 -6 0 -11 -4 -11 -9 0 -5 -26 -35
-57 -66 -44 -42 -88 -71 -178 -115 -66 -32 -146 -67 -177 -77 -32 -9 -58 -21
-58 -25 0 -15 22 -8 177 53 121 48 162 60 189 56 31 -5 35 -3 40 21 4 15 25
54 48 87 52 76 69 110 64 126 -3 8 -10 -1 -16 -19z"/>
<path d="M16001 2890 c-47 -3 -86 -10 -88 -16 -7 -20 73 -36 211 -41 122 -4
141 -3 152 11 10 15 12 15 18 1 4 -12 27 -15 122 -15 116 0 116 0 93 19 -17
14 -26 16 -31 8 -5 -7 -8 -8 -8 -2 0 15 -43 16 -52 2 -6 -9 -10 -9 -17 2 -6 9
-21 12 -47 9 -22 -3 -50 -2 -64 2 -14 4 -36 1 -52 -7 -19 -9 -34 -10 -53 -3
-15 6 -36 10 -47 10 -12 0 -29 6 -37 13 -11 8 -41 11 -100 7z"/>
<path d="M12662 2883 c-6 -2 -10 -9 -7 -14 8 -12 -128 -6 -137 6 -5 7 -11 6
-15 -1 -5 -7 -41 -12 -92 -13 -96 -1 -122 -11 -71 -25 48 -14 355 -17 465 -4
50 5 103 9 120 8 22 0 27 2 18 11 -6 6 -30 11 -52 11 -23 0 -41 4 -41 9 0 6
-7 4 -15 -4 -10 -11 -32 -15 -72 -13 -87 4 -95 5 -89 15 3 4 18 7 33 5 24 -4
25 -3 8 5 -22 11 -34 12 -53 4z"/>
</g>
</svg>
