<?xml version="1.0" standalone="no"?>
<!DOCTYPE svg PUBLIC "-//W3C//DTD SVG 20010904//EN"
 "http://www.w3.org/TR/2001/REC-SVG-20010904/DTD/svg10.dtd">
<svg version="1.0" xmlns="http://www.w3.org/2000/svg"
 width="1928.000000pt" height="1074.000000pt" viewBox="0 0 1928.000000 1074.000000"
 preserveAspectRatio="xMidYMid meet">
<metadata>
Created by potrace 1.16, written by Peter Selinger 2001-2019
</metadata>
<g transform="translate(0.000000,1074.000000) scale(0.100000,-0.100000)"
fill="#000000" stroke="none">
<path d="M14550 8025 c0 -4 11 -23 25 -41 33 -43 32 -52 -7 -57 -31 -4 -31 -4
6 -5 36 -2 38 -3 33 -29 -9 -47 -18 -1050 -20 -2213 -1 -608 -5 -1110 -10
-1117 -4 -6 -3 -14 2 -17 5 -3 9 -71 10 -151 1 -112 -1 -145 -11 -145 -9 0 -9
-3 -2 -8 15 -10 18 -130 4 -147 -8 -9 -8 -20 -2 -32 6 -11 11 -191 11 -450 1
-238 4 -439 7 -446 3 -9 -4 -17 -18 -21 -18 -5 -29 1 -51 26 l-28 33 22 -50
c23 -55 46 -85 34 -47 -9 32 19 29 51 -5 19 -20 22 -29 12 -36 -10 -7 -10 -10
0 -14 21 -8 13 -21 -10 -16 -16 4 -11 -3 17 -22 61 -42 116 -98 111 -112 -3
-8 2 -13 13 -13 43 0 101 -116 101 -202 0 -32 4 -58 9 -58 6 0 10 17 9 38 0
60 20 125 38 118 9 -3 72 -6 140 -6 111 0 124 -2 125 -17 0 -15 2 -15 9 2 5
11 9 14 9 8 1 -15 286 -9 410 8 40 6 99 10 130 9 135 -5 286 1 271 10 -8 5
-42 9 -75 8 -50 -1 -61 3 -73 21 -17 24 -32 28 -32 6 0 -9 -9 -15 -22 -15 -17
0 -19 3 -10 12 7 7 12 42 12 85 0 86 -19 81 195 58 153 -16 202 -18 192 -9 -4
4 -26 8 -49 10 -95 7 -148 16 -148 24 0 4 39 6 88 4 48 -2 152 -6 232 -8 80
-2 154 -7 165 -12 19 -7 19 -7 2 13 -31 35 1 39 36 5 18 -17 68 -63 112 -102
44 -39 82 -76 83 -81 2 -5 -24 -9 -57 -9 -34 0 -61 -4 -61 -10 0 -12 5 -13 90
-14 l65 -1 35 -72 c37 -76 71 -123 51 -71 -6 15 -19 45 -31 67 -24 48 -25 61
-5 61 8 0 33 -25 56 -55 23 -30 46 -55 51 -55 5 0 -1 14 -14 31 -59 79 -74 71
128 63 98 -4 212 -7 252 -7 l72 0 0 -58 c0 -79 18 -76 22 4 l3 62 32 -3 c17
-2 42 3 55 11 13 8 52 15 91 16 l67 2 1 -68 c1 -37 1 -75 0 -85 -1 -9 3 -19 9
-23 7 -4 10 24 10 84 l0 91 38 2 c20 1 51 1 69 -1 17 -1 34 3 38 9 4 6 -7 10
-27 10 -18 0 -50 3 -71 7 l-38 6 5 46 c12 87 16 771 5 771 -6 0 -7 5 -3 12 4
6 9 94 11 196 4 139 2 182 -7 177 -7 -4 -11 -28 -10 -59 2 -28 1 -89 0 -136
l-2 -85 -9 55 c-5 30 -6 114 -2 185 3 72 7 191 8 265 2 74 7 155 13 180 16 68
22 708 9 955 -8 163 -18 901 -14 1055 3 131 2 773 -1 985 l-3 190 30 -3 c17
-2 31 1 31 7 0 6 -8 11 -19 11 -10 0 -31 11 -47 25 -16 14 -58 51 -94 82 -36
31 -85 75 -110 98 -25 23 -66 55 -91 72 -25 17 -51 38 -58 47 -8 9 -17 16 -22
16 -39 0 60 -118 150 -180 59 -40 141 -117 141 -132 0 -4 -12 -5 -27 -1 -35
10 -551 9 -744 -1 l-147 -8 -43 54 c-24 29 -80 87 -124 128 -44 41 -81 77 -83
80 -1 3 170 4 380 2 373 -3 468 3 468 29 0 5 -30 10 -67 11 -64 2 -95 4 -118
8 -27 5 -378 -2 -515 -10 -85 -5 -164 -8 -175 -7 -16 2 -20 -4 -21 -33 0 -19
-5 -84 -10 -145 -10 -133 -12 -1295 -1 -1295 4 0 7 -4 7 -10 0 -5 -7 -7 -16
-3 -13 5 -15 -2 -11 -52 6 -70 -3 -58 -39 50 -15 44 -46 125 -70 181 -23 55
-60 155 -82 220 -22 66 -64 174 -93 239 -48 111 -73 172 -159 390 -17 44 -38
90 -46 102 -21 33 -18 46 8 37 20 -6 21 -5 9 10 -7 9 -21 16 -31 16 -10 0 -33
21 -51 46 -19 25 -47 61 -62 80 -16 18 -26 38 -22 44 3 5 2 10 -4 10 -13 0
-90 82 -91 96 0 5 -14 23 -31 40 l-31 29 8 -30 c4 -16 23 -55 43 -86 46 -73
172 -219 189 -219 6 0 12 -4 12 -8 0 -4 -163 -6 -362 -4 -284 3 -369 7 -392
18 -25 12 -27 12 -16 -1 11 -13 4 -15 -48 -15 -72 0 -88 13 -153 120 -21 36
-55 82 -74 104 -19 21 -33 41 -31 45 2 3 58 3 123 -1 219 -13 712 -14 702 -2
-13 16 -150 23 -548 30 l-334 5 -34 42 c-45 53 -43 52 -43 42z m2062 -451 c0
-21 -2 -75 -5 -119 -4 -44 -7 -182 -8 -307 0 -227 -1 -228 -22 -229 l-22 0 23
-11 c22 -11 23 -14 22 -187 -1 -97 -4 -186 -7 -198 -10 -44 -23 -22 -23 40 0
34 -4 69 -10 77 -6 9 -9 -8 -9 -53 0 -72 -8 -99 -22 -76 -5 8 -6 22 -3 32 3
11 -1 23 -10 30 -9 7 -18 27 -20 45 -2 19 -9 39 -16 45 -9 10 -11 1 -6 -40 8
-66 19 -96 48 -125 21 -21 23 -32 24 -154 1 -80 6 -140 14 -153 6 -13 9 -25 7
-28 -8 -7 -28 34 -31 65 -2 15 -7 61 -11 102 -3 41 -12 93 -18 115 -6 22 -10
45 -9 51 1 6 -5 17 -13 24 -8 7 -15 16 -15 21 0 4 -5 20 -12 36 -6 15 -10 38
-9 50 1 11 -3 24 -8 28 -6 3 -11 11 -11 17 0 6 7 5 17 -3 15 -13 15 -12 3 11
-8 14 -13 37 -11 53 1 15 -1 27 -6 27 -5 0 -9 12 -8 28 0 15 -2 44 -6 65 -3
20 -2 37 2 37 5 0 9 5 9 10 0 6 -6 10 -14 10 -10 0 -13 -23 -12 -110 2 -122
-11 -124 -19 -3 -3 43 -7 95 -9 116 -2 21 1 40 6 43 6 4 7 29 3 62 -4 31 -9
216 -11 411 -2 196 -5 363 -5 371 -7 55 4 49 121 -67 111 -110 120 -122 122
-159z m-1752 24 c0 -10 -5 -18 -11 -18 -5 0 -7 -4 -4 -10 3 -5 6 -148 5 -317
-12 -3612 -9 -3354 -34 -3363 -15 -5 -15 -8 -2 -25 19 -25 21 -49 4 -39 -10 6
-10 4 -2 -7 15 -19 14 -51 -3 -67 -11 -11 -13 -8 -15 20 -1 18 -2 41 -2 50 -1
10 -7 23 -13 29 -9 9 -11 -7 -8 -67 3 -44 1 -111 -4 -149 -5 -39 -5 -74 -1
-80 4 -5 5 -30 1 -55 -3 -25 -5 -56 -3 -70 2 -14 4 -61 5 -105 2 -44 6 -86 11
-93 4 -6 3 -12 -3 -12 -5 0 -12 8 -15 18 -9 28 -17 167 -19 318 -1 78 -5 137
-9 130 -5 -7 -8 -6 -8 4 0 9 5 21 12 28 9 9 9 15 0 24 -8 8 -9 15 -1 25 8 9 8
13 0 13 -6 0 -10 3 -10 8 1 4 0 9 -1 12 -8 16 -5 86 4 93 8 6 7 10 -3 14 -11
5 -11 7 0 14 11 7 12 12 2 29 -7 11 -13 29 -13 40 0 12 -4 19 -8 16 -9 -5 -8
-208 2 -415 4 -69 4 -123 2 -120 -7 6 -14 78 -21 198 -3 58 -9 134 -12 170 -6
82 -5 347 3 383 3 15 0 29 -6 33 -9 6 -9 10 1 16 10 6 11 11 3 17 -15 10 -13
51 3 45 7 -3 13 0 13 6 0 6 -4 11 -10 11 -5 0 -10 7 -10 16 0 8 5 12 11 8 8
-4 9 1 4 16 -6 19 -4 22 9 17 9 -4 16 -2 16 3 0 6 -4 10 -10 10 -5 0 -10 7
-10 15 0 9 -7 18 -15 21 -12 5 -13 10 -4 20 7 8 7 14 1 14 -11 0 -13 49 -3 65
10 16 9 59 -2 72 -5 7 -6 24 -3 38 4 14 2 35 -5 46 -10 19 -9 20 11 9 20 -11
21 -10 10 9 -6 12 -8 26 -5 31 3 5 1 11 -5 15 -5 3 -10 15 -10 26 0 11 4 18 9
15 4 -3 8 8 7 24 -1 23 -5 29 -18 24 -14 -4 -16 -1 -11 12 5 13 3 15 -8 9 -12
-8 -12 -6 0 8 13 16 14 16 27 0 7 -10 14 -13 14 -7 0 16 -27 37 -38 30 -5 -3
-10 24 -11 59 -1 40 2 65 8 65 6 0 11 10 10 23 0 21 -1 21 -9 2 -12 -27 -12
-26 -14 98 -1 84 1 106 11 103 7 -3 13 -1 13 4 0 6 -7 10 -16 10 -13 0 -15 11
-12 65 1 36 1 65 -2 65 -5 0 -7 114 -9 788 -1 227 0 416 3 420 4 7 14 223 18
370 1 39 6 72 11 72 4 0 5 5 2 10 -4 6 -8 142 -10 303 -1 161 -6 320 -10 355
-5 42 -4 62 3 62 6 0 32 -29 57 -65 26 -36 50 -65 54 -65 25 0 35 -63 37 -235
2 -226 2 -225 12 -225 4 0 7 90 7 199 0 110 3 197 8 194 24 -15 -4 27 -85 128
l-92 114 112 -110 c62 -60 112 -118 112 -127z m339 12 c13 -7 -65 -15 -211
-23 -20 -2 -41 -6 -45 -11 -8 -9 132 -3 327 13 111 9 435 25 474 23 10 -1 22
-5 26 -9 9 -10 30 -96 25 -101 -2 -2 -18 16 -36 42 -44 62 -50 49 -9 -16 19
-29 49 -82 69 -118 38 -71 208 -476 221 -527 4 -17 21 -65 37 -105 46 -112 46
-113 45 -120 -1 -5 3 -8 9 -8 5 0 8 -4 5 -9 -3 -5 5 -31 18 -58 44 -87 55
-116 115 -298 32 -99 77 -226 100 -282 22 -55 41 -107 41 -115 0 -7 9 -38 21
-68 12 -30 23 -62 24 -70 5 -20 60 -152 90 -218 14 -29 25 -55 25 -58 0 -3 14
-33 30 -68 33 -68 84 -135 95 -124 4 4 -5 41 -19 82 -24 66 -27 94 -32 243 -3
92 -5 175 -5 183 1 33 -1 280 -2 350 -2 66 0 75 15 74 10 -1 15 3 12 8 -3 5
-13 7 -21 4 -12 -5 -14 -1 -9 20 12 46 16 215 21 769 2 297 4 550 4 562 1 22
2 22 164 21 89 -1 235 2 323 6 l161 9 5 -34 c9 -59 14 -1791 10 -3558 -1 -431
0 -787 2 -790 3 -4 7 -101 11 -216 l6 -210 -228 3 c-125 1 -256 5 -289 8 -56
5 -62 8 -67 30 -6 32 26 33 47 2 13 -19 16 -19 16 -5 0 16 3 16 37 2 42 -18
60 -8 38 21 -13 17 -14 18 -15 1 0 -14 -4 -16 -19 -7 -11 5 -30 10 -43 10 -14
0 -34 9 -46 20 -12 11 -25 20 -31 20 -10 0 -21 24 -21 45 0 11 9 11 52 -1 57
-15 66 -13 43 6 -8 7 -15 9 -15 6 0 -4 -10 -1 -22 5 -12 7 -34 12 -48 13 -17
1 -25 6 -24 18 1 10 -2 16 -6 13 -7 -4 -18 19 -26 55 -5 23 -70 205 -78 218
-4 7 -10 25 -12 40 -3 15 -11 34 -18 42 -19 23 -41 74 -85 205 -23 66 -45 129
-50 140 -5 11 -21 54 -34 95 -22 65 -60 161 -100 253 -6 15 -15 27 -19 27 -5
0 -8 9 -8 20 0 11 -4 20 -10 20 -5 0 -10 4 -10 10 0 5 7 7 15 4 19 -8 19 -6
-5 44 -18 37 -40 87 -45 102 -1 3 -8 19 -15 35 -7 17 -15 39 -16 51 -1 11 -19
56 -39 100 -52 114 -51 111 -85 209 -18 50 -38 99 -45 110 -6 11 -15 33 -19
50 -10 41 -150 410 -173 455 -9 17 -9 26 -2 31 8 5 8 9 0 13 -6 4 -9 11 -6 16
3 4 1 19 -4 32 -7 17 -10 18 -10 6 -2 -34 -41 -10 -41 24 0 10 -6 18 -14 18
-8 0 -22 10 -30 22 -9 12 -16 19 -16 15 0 -11 52 -92 61 -95 5 -2 9 -11 9 -19
0 -13 -3 -13 -15 -3 -23 19 -29 5 -10 -23 13 -20 16 -45 13 -117 -1 -50 -6
-94 -10 -96 -4 -2 -5 -14 -2 -27 12 -61 3 -2084 -9 -2104 -5 -7 -4 -21 1 -30
6 -10 12 -44 13 -76 l4 -59 -175 0 c-96 1 -290 1 -431 1 l-257 1 -6 43 c-6 44
-8 532 -7 1740 1 496 5 727 12 727 5 0 8 4 5 8 -9 15 -19 1848 -11 2033 7 167
8 178 29 188 13 7 14 10 3 6 -20 -5 -33 16 -23 40 4 12 27 14 148 8 79 -3 149
-9 157 -13z m2359 -1108 c2 -14 7 -31 12 -37 9 -12 6 -150 -5 -213 -7 -37 -9
-40 -20 -25 -11 14 -10 19 3 29 13 10 12 12 -9 12 -22 0 -25 -5 -24 -30 1 -16
-2 -31 -7 -34 -4 -3 -8 14 -8 37 0 33 -3 39 -13 30 -8 -6 -17 -8 -20 -4 -4 3
-14 0 -23 -8 -15 -12 -17 -12 -13 0 3 8 -3 23 -13 33 -16 16 -18 32 -16 96 3
64 6 77 21 80 15 3 17 -6 17 -87 0 -75 3 -91 15 -91 13 0 15 14 14 81 -1 72 1
83 21 102 19 18 22 19 17 5 -4 -10 -2 -18 4 -18 7 0 8 -30 3 -90 -4 -58 -3
-90 3 -90 13 0 23 72 16 115 -3 19 -1 47 5 64 6 17 7 31 2 33 -5 2 -7 13 -3
26 7 28 16 21 21 -16z m-38 -344 c0 -5 -4 -6 -10 -3 -5 3 -10 -3 -10 -14 0
-10 5 -21 11 -23 9 -3 9 -13 1 -38 -5 -19 -9 -48 -7 -65 16 -131 12 -185 -12
-185 -8 0 -11 -5 -7 -12 5 -10 3 -10 -7 0 -19 18 -20 253 -1 260 6 2 12 8 12
13 0 6 -4 7 -10 4 -5 -3 -10 -2 -10 4 0 5 -3 17 -7 27 -5 14 -3 16 12 11 14
-6 16 -5 7 6 -8 10 -9 16 -1 24 13 13 39 6 39 -9z m-40 -369 c0 -8 4 -8 14 0
11 9 14 6 18 -16 5 -40 -1 -63 -18 -63 -8 0 -14 -4 -14 -10 0 -5 4 -10 10 -10
14 0 20 -50 24 -202 3 -114 1 -138 -11 -138 -8 0 -11 4 -8 10 8 13 -13 52 -24
45 -5 -2 -11 10 -13 29 -4 37 0 58 10 52 4 -2 6 33 5 77 -1 45 -2 101 -2 125
-1 30 -5 42 -16 42 -9 0 -15 9 -14 23 1 16 3 17 6 5 2 -10 10 -15 19 -11 8 3
14 0 14 -7 0 -6 5 -8 10 -5 15 9 12 35 -4 35 -8 0 -16 7 -20 15 -3 8 -1 15 4
15 6 0 10 -5 10 -11z m7 -507 c7 -12 10 -66 10 -150 -1 -73 2 -133 7 -135 5
-2 8 -29 7 -61 -1 -45 2 -62 16 -73 17 -13 17 -14 -2 -9 -19 6 -20 2 -17 -87
3 -128 7 -139 37 -131 20 5 25 2 24 -12 0 -11 -3 -14 -6 -6 -10 24 -23 11 -23
-22 0 -19 -4 -37 -9 -40 -5 -3 -9 0 -8 7 1 34 -4 57 -13 57 -5 0 -7 -6 -4 -14
3 -8 1 -17 -5 -21 -7 -3 -11 3 -11 15 0 12 -5 18 -10 15 -6 -4 -8 -11 -5 -16
4 -5 1 -9 -4 -9 -6 0 -11 9 -11 20 0 11 7 20 15 20 8 0 15 5 15 11 0 5 -4 8
-9 5 -5 -3 -11 1 -14 9 -9 22 4 168 16 183 8 10 7 12 -3 10 -9 -2 -16 10 -20
33 -7 39 2 80 13 62 4 -7 3 -14 -3 -18 -6 -4 -4 -12 5 -22 19 -18 33 -10 17
10 -7 8 -7 18 -2 27 13 21 12 26 -7 45 -14 14 -17 39 -17 146 -1 116 -3 130
-21 144 -17 14 -17 16 -2 11 9 -3 17 -1 17 4 0 16 14 11 27 -8z m-1609 -777
c24 -60 57 -144 72 -186 15 -41 32 -84 38 -95 12 -23 120 -315 134 -364 6 -19
35 -98 65 -175 31 -77 57 -154 58 -172 2 -17 17 -60 33 -95 38 -80 105 -259
99 -265 -3 -2 -23 15 -46 39 -22 24 -41 38 -41 32 0 -5 13 -23 30 -39 19 -18
26 -32 21 -39 -6 -7 1 -12 22 -13 18 -1 37 -10 42 -19 6 -9 23 -32 38 -50 31
-36 21 -54 -17 -29 -23 16 -24 15 -19 -4 3 -12 1 -21 -5 -21 -12 0 -38 30 -26
31 5 0 -1 4 -13 9 -12 5 -124 12 -250 15 -125 3 -247 8 -270 11 l-41 5 -1 527
c0 290 -3 660 -6 822 l-5 295 21 -55 c12 -30 42 -104 67 -165z m297 -336 c-3
-9 1 -19 9 -22 15 -6 58 -92 70 -141 4 -16 25 -67 48 -115 22 -47 41 -96 42
-108 0 -13 4 -23 9 -23 4 0 7 -7 7 -15 0 -8 5 -15 11 -15 5 0 7 -4 4 -10 -3
-5 1 -20 9 -33 9 -12 17 -32 19 -42 1 -11 6 -25 9 -31 4 -5 5 -19 4 -30 -2
-10 3 -27 11 -36 8 -9 13 -27 11 -40 -2 -19 -8 -13 -30 32 -39 81 -71 155
-102 240 -16 41 -43 111 -61 155 -19 44 -40 101 -47 128 -6 26 -16 47 -20 47
-4 0 -8 8 -8 18 0 10 -4 22 -9 28 -5 5 -12 19 -16 32 -6 22 -5 22 14 10 13 -8
19 -19 16 -29z m1357 -112 c-5 -7 -6 -23 -2 -37 4 -17 8 -21 14 -12 4 6 14 12
22 12 11 0 14 -17 14 -79 0 -44 -4 -82 -9 -85 -4 -3 -17 1 -27 9 -15 11 -19
24 -17 66 3 57 -4 79 -18 58 -12 -19 -11 -136 0 -143 5 -4 12 0 14 6 3 8 6 8
6 2 1 -6 -8 -21 -19 -34 -11 -13 -20 -18 -20 -11 0 7 -4 10 -9 6 -6 -3 -10 40
-10 105 0 78 4 110 12 110 7 0 6 5 -3 11 -12 8 -10 9 7 4 16 -4 23 -1 28 15 4
11 11 18 16 14 6 -3 6 -10 1 -17z m-2881 -174 c1 -16 2 -40 3 -55 1 -16 -1
-28 -4 -28 -12 0 3 -620 16 -670 7 -24 7 -25 -13 -7 -18 16 -21 32 -24 130 -4
136 -2 603 2 635 4 31 19 28 20 -5z m2879 -173 c0 -11 -6 -20 -14 -20 -22 0
-29 -17 -16 -37 11 -17 11 -17 6 0 -7 21 10 23 18 2 7 -20 36 -19 51 2 10 14
12 3 10 -60 -1 -42 -5 -80 -8 -84 -4 -3 -7 -17 -7 -30 0 -17 -6 -23 -21 -23
-21 0 -21 4 -17 85 3 64 1 85 -8 85 -17 0 -23 -23 -23 -106 -1 -71 -22 -141
-34 -110 -3 8 -1 16 6 19 14 4 17 106 7 187 -6 46 -4 54 19 80 31 35 31 35 31
10z"/>
<path d="M16753 7323 c-9 -3 -13 -36 -13 -114 l0 -109 47 0 c47 0 51 15 5 22
-22 3 -23 7 -25 93 l-2 90 35 -1 35 -1 2 -59 c1 -32 2 -74 2 -91 1 -22 6 -33
16 -33 12 0 15 18 15 99 l0 98 -37 7 c-43 7 -63 7 -80 -1z"/>
<path d="M16948 7324 c-16 -5 -18 -19 -18 -109 l0 -103 30 -7 c44 -10 90 3 99
28 8 21 5 177 -4 185 -7 7 -88 11 -107 6z"/>
<path d="M17133 7318 c-4 -7 -9 -54 -11 -105 l-4 -92 26 -7 c25 -6 103 0 112
8 2 2 1 50 -3 106 l-6 102 -53 0 c-31 0 -56 -5 -61 -12z"/>
<path d="M16745 6917 c-3 -7 -4 -60 -3 -118 3 -101 4 -104 27 -107 13 -2 39
-1 58 3 l34 6 -3 112 -3 112 -53 3 c-37 2 -54 -1 -57 -11z"/>
<path d="M17136 6922 c-2 -4 -6 -54 -7 -112 l-3 -104 32 -8 c20 -6 42 -4 62 4
l31 13 2 102 c2 79 -1 104 -11 108 -21 8 -100 6 -106 -3z"/>
<path d="M16740 6385 l0 -115 53 0 c28 0 58 4 65 8 9 6 12 36 10 113 l-3 104
-62 3 -63 3 0 -116z"/>
<path d="M17133 6083 c-4 -9 -7 -60 -7 -113 l-1 -95 35 -5 c19 -3 49 -2 66 3
l31 9 -1 107 -1 106 -58 3 c-47 2 -58 0 -64 -15z"/>
<path d="M16757 5703 c-16 -4 -17 -16 -15 -116 l3 -112 36 -3 c19 -2 47 2 62
7 27 10 27 11 27 115 l0 104 -31 6 c-34 6 -54 6 -82 -1z"/>
<path d="M16958 5703 l-27 -4 0 -109 0 -108 35 -7 c20 -3 49 -3 65 0 l29 7 0
109 c0 97 -2 109 -17 109 -10 0 -27 2 -38 4 -11 2 -32 1 -47 -1z m82 -118 l0
-95 -39 0 -39 0 -4 79 c-4 109 -4 111 43 111 l39 0 0 -95z"/>
<path d="M17148 5703 c-10 -2 -18 -10 -18 -16 -1 -7 -3 -52 -7 -101 -5 -79 -3
-91 13 -103 19 -14 82 -17 101 -5 18 12 21 211 2 223 -14 9 -60 10 -91 2z"/>
<path d="M16747 5267 c-15 -10 -17 -27 -15 -111 l3 -100 30 -8 c16 -4 47 -5
67 -1 l38 6 0 107 c0 103 -1 108 -22 114 -38 10 -83 7 -101 -7z m98 -112 l0
-90 -49 -3 -49 -3 5 83 c2 46 8 89 12 96 5 8 23 12 44 10 l37 -3 0 -90z"/>
<path d="M16937 5274 c-4 -4 -7 -56 -7 -115 l0 -107 29 -7 c16 -3 46 -3 65 1
l37 6 -3 112 -3 111 -55 3 c-31 2 -59 0 -63 -4z"/>
<path d="M17153 5273 c-22 -4 -23 -8 -23 -113 0 -122 1 -124 75 -113 l45 6 0
107 0 108 -31 6 c-17 3 -34 5 -38 5 -3 -1 -16 -4 -28 -6z"/>
<path d="M16742 4738 l3 -113 48 -3 c72 -5 77 3 77 124 l0 104 -65 0 -66 0 3
-112z m106 -5 l3 -93 -46 0 -45 0 0 96 0 95 43 -3 42 -3 3 -92z"/>
<path d="M16944 4837 c-2 -7 -3 -58 -2 -112 l3 -98 42 -4 c70 -6 73 -1 76 118
l2 104 -58 3 c-41 2 -59 -1 -63 -11z"/>
<path d="M17136 4828 c-3 -13 -6 -62 -6 -109 l0 -87 28 -4 c15 -2 41 -1 57 2
l30 5 8 94 c5 51 6 99 3 107 -4 10 -22 14 -60 14 -47 0 -54 -3 -60 -22z m102
-96 l3 -93 -43 3 c-34 2 -43 7 -42 21 0 9 1 51 2 93 l2 75 38 -3 37 -3 3 -93z"/>
<path d="M16570 4441 c-12 -7 -15 -31 -14 -113 l0 -103 33 -3 c18 -2 45 2 60
8 26 11 27 11 26 113 l0 102 -45 2 c-25 2 -52 -1 -60 -6z"/>
<path d="M16757 4428 c-3 -13 -5 -63 -4 -113 l2 -90 39 -3 c22 -2 49 -1 62 2
22 6 23 10 22 94 -1 48 1 97 5 108 7 20 4 21 -57 23 -59 1 -64 -1 -69 -21z"/>
<path d="M16946 4442 c-2 -4 -6 -54 -7 -112 l-3 -105 27 -9 c18 -7 39 -5 67 4
l40 13 0 109 0 108 -59 0 c-33 0 -62 -3 -65 -8z"/>
<path d="M17155 4440 c-2 -3 -4 -52 -6 -110 l-4 -105 41 1 c70 1 69 0 66 116
l-3 105 -45 -1 c-25 0 -47 -3 -49 -6z"/>
<path d="M16570 3916 l0 -117 55 2 c43 2 56 6 61 21 7 24 -16 170 -30 185 -6
6 -28 15 -48 18 l-38 7 0 -116z"/>
<path d="M16962 4012 c-15 -15 -18 -35 -17 -112 l0 -95 51 -3 c33 -2 54 2 61
10 6 8 8 51 5 106 -4 88 -6 94 -29 103 -35 13 -51 11 -71 -9z"/>
<path d="M16998 3642 l-48 -3 -2 -75 c-1 -40 -2 -86 -2 -101 -1 -24 4 -28 38
-35 25 -5 43 -4 52 3 8 6 19 9 26 6 17 -6 12 183 -5 198 -7 6 -33 9 -59 7z"/>
<path d="M16760 3632 c-6 -2 -10 -44 -10 -97 0 -83 2 -96 19 -105 26 -13 54
-13 86 2 23 10 25 16 22 61 -3 27 -1 66 4 86 5 21 4 40 -1 45 -9 9 -99 15
-120 8z"/>
<path d="M17139 3555 c-1 -47 -2 -91 -3 -97 -1 -17 67 -23 94 -8 18 10 20 20
20 100 l0 90 -55 0 -55 0 -1 -85z"/>
<path d="M4768 7968 c-2 -24 -7 -32 -18 -29 -49 13 -922 4 -884 -9 46 -17 658
-31 787 -18 55 6 67 4 67 -8 0 -8 -4 -14 -9 -14 -5 0 -20 -9 -33 -20 -12 -11
-57 -45 -98 -76 -41 -32 -92 -73 -113 -93 -21 -20 -39 -34 -41 -31 -2 3 -15
-9 -30 -27 l-26 -31 -218 5 c-260 7 -322 21 -102 24 213 2 281 6 291 16 10 10
-457 6 -481 -4 -8 -3 -19 -5 -24 -4 -5 1 -13 -4 -18 -11 -8 -10 -11 -10 -15 0
-3 7 -25 12 -58 12 -33 0 -55 -5 -58 -12 -4 -10 -6 -10 -6 0 -1 16 -38 15 -48
-2 -5 -8 -35 -16 -73 -19 -54 -6 -62 -5 -46 6 10 6 37 26 60 42 23 17 96 68
162 113 123 83 152 107 141 119 -8 7 -92 -45 -308 -190 -92 -62 -175 -117
-185 -124 -17 -10 -16 -11 11 -10 28 2 30 -1 36 -43 4 -25 7 -216 8 -425 1
-209 5 -450 9 -535 4 -85 5 -181 2 -213 -3 -32 -1 -62 4 -67 13 -13 -63 -13
-83 -1 -20 13 4 24 35 17 31 -8 33 18 3 35 -19 9 -25 7 -45 -16 -28 -33 -74
-44 -176 -45 -68 0 -77 2 -83 20 -8 25 -50 54 -65 45 -18 -11 -11 -31 15 -43
37 -17 31 -32 -12 -32 l-38 0 -3 595 c-4 555 -1 637 21 583 10 -24 -4 345 -14
399 -1 4 2 22 6 40 6 28 12 32 44 35 80 8 -284 7 -595 -1 -311 -9 -333 -11
-370 -31 -21 -12 -50 -32 -64 -45 -40 -37 -184 -118 -188 -106 -6 17 -22 13
-22 -5 0 -19 -19 -36 -74 -65 l-38 -20 -15 20 c-18 26 -33 27 -26 2 3 -12 -3
-24 -18 -35 -18 -13 -20 -16 -7 -16 14 0 17 -10 17 -52 0 -55 3 -169 21 -658
5 -157 8 -303 6 -325 -3 -22 -7 -119 -10 -215 -4 -96 -9 -204 -13 -240 -4 -36
-6 -69 -4 -75 2 -5 5 -94 6 -197 2 -102 6 -228 9 -280 18 -262 24 -781 11
-1018 -12 -218 -12 -375 -1 -450 2 -14 7 -59 10 -100 8 -85 34 -239 44 -254 3
-6 7 -23 9 -39 7 -68 111 -294 189 -412 18 -27 31 -52 28 -54 -2 -3 -41 31
-86 75 -44 43 -73 68 -64 54 38 -58 368 -380 419 -409 77 -44 85 -56 91 -139
5 -68 4 -73 -17 -82 -14 -6 49 -9 178 -10 220 -2 233 -3 320 -18 79 -14 725
-16 725 -2 0 6 -29 10 -67 10 -128 0 -153 23 -40 36 83 9 77 9 139 1 37 -5 46
-4 42 7 -7 17 40 26 156 31 134 6 182 15 176 31 -3 8 -1 14 5 14 6 0 8 4 5 8
-8 13 -74 13 -82 0 -5 -7 2 -9 20 -6 17 4 25 1 23 -6 -2 -7 -31 -11 -73 -11
-38 -1 -85 -4 -104 -8 l-35 -8 40 19 c22 10 72 33 110 50 39 18 83 40 98 48
16 9 30 14 33 11 2 -2 6 -43 9 -91 l4 -86 -185 3 c-101 2 -182 1 -178 -2 3 -3
9 -6 12 -6 4 0 13 -4 21 -9 7 -5 67 -10 133 -13 91 -3 134 0 176 12 39 12 58
13 65 6 16 -16 35 -13 57 9 11 11 29 20 40 20 13 0 18 5 14 15 -4 10 0 15 12
15 14 0 15 3 7 11 -24 24 62 69 94 50 15 -9 12 -10 -15 -11 -20 0 -31 -4 -27
-10 4 -7 96 -10 262 -9 177 0 252 4 245 11 -6 6 -64 10 -144 10 -138 0 -201 5
-193 17 2 4 44 6 92 4 61 -3 83 -1 73 6 -8 5 -17 8 -21 5 -11 -6 -109 18 -109
28 0 4 3 7 8 7 19 -3 33 2 27 10 -3 5 -39 8 -80 7 -56 -2 -80 -7 -95 -21 -16
-15 -25 -16 -52 -7 -30 9 -31 10 -8 12 14 1 34 5 45 10 14 7 5 8 -30 5 -27 -2
-56 -4 -62 -4 -7 -1 -13 -8 -13 -16 0 -8 -5 -15 -11 -15 -6 0 -9 7 -5 15 3 9
0 15 -8 15 -7 0 -21 9 -31 20 -16 17 -16 20 -2 20 9 0 18 -3 20 -7 3 -5 97 -6
209 -4 346 7 491 6 548 -1 l55 -7 -35 15 c-27 13 -79 16 -242 18 -122 0 -203
5 -198 10 10 10 320 11 380 1 26 -4 40 -3 40 4 0 6 -22 12 -52 13 -29 0 -64 2
-78 4 -62 6 -250 7 -300 1 -30 -3 -47 -4 -37 -1 43 13 10 22 -64 18 -44 -3
-79 -1 -76 3 6 9 61 16 112 14 17 0 119 -2 228 -4 l197 -4 0 22 c0 29 -26 34
-183 36 -65 1 -120 5 -122 9 -2 4 -24 5 -47 3 -64 -6 -88 -6 -141 0 -26 3 -77
1 -113 -5 -36 -5 -68 -7 -71 -4 -3 3 54 65 127 138 169 170 286 298 282 310
-1 5 9 24 23 42 14 18 25 38 25 44 0 6 4 12 8 14 23 8 108 230 146 378 8 30
23 89 34 130 22 82 44 198 47 245 0 17 4 35 7 40 5 10 5 17 -6 175 -4 52 -9
149 -11 215 -9 277 -17 470 -21 474 -2 2 1 12 6 22 7 11 7 33 1 58 -5 22 -6
42 -3 45 5 5 5 163 -1 1126 -2 294 -1 541 1 548 4 11 6 11 13 0 7 -10 9 -9 9
5 0 9 -4 17 -8 17 -4 0 -9 109 -10 243 -1 133 -4 274 -6 312 -2 39 -2 91 1
117 5 40 10 49 39 64 19 10 34 22 34 26 0 11 -14 10 -25 -1 -20 -19 -50 -17
-51 4 -1 11 -2 35 -3 53 0 17 -5 32 -10 32 -6 0 -11 -15 -13 -32z m-1778 -60
c0 -7 -35 -35 -77 -63 -42 -27 -101 -71 -130 -97 -79 -71 -129 -101 -157 -96
-14 3 -31 1 -38 -3 -9 -6 -6 -9 10 -9 12 0 22 -4 22 -8 0 -11 -171 -22 -327
-22 -83 0 -113 3 -114 13 0 10 -2 10 -6 0 -2 -7 -11 -13 -19 -13 -9 0 -13 4
-10 9 8 12 -250 25 -314 17 -28 -4 -50 -3 -50 1 1 10 99 76 200 134 44 25 95
60 113 77 l33 32 234 0 c208 0 285 4 524 25 33 3 62 7 64 10 11 10 42 5 42 -7z
m-22 -333 c-6 -149 -9 -346 -7 -440 2 -93 4 -327 4 -519 l0 -349 -22 -3 c-26
-4 -26 -5 -24 88 2 58 0 67 -13 62 -9 -3 -16 -1 -16 6 0 6 5 8 10 5 6 -3 13 1
17 10 3 10 0 21 -7 25 -8 5 -10 15 -5 26 13 30 17 84 6 84 -5 0 -9 -8 -9 -17
0 -10 -7 -47 -15 -82 -9 -36 -14 -68 -11 -72 2 -4 7 -29 9 -56 3 -26 8 -60 11
-74 5 -24 1 -27 -37 -37 -49 -12 -69 -7 -69 19 0 10 -4 19 -10 19 -10 0 -14
-13 -11 -37 1 -6 -3 -14 -8 -17 -12 -8 -19 38 -27 186 -4 70 -10 126 -13 123
-6 -3 -5 -78 3 -294 0 -19 -4 -36 -11 -38 -10 -4 -13 24 -14 114 -1 65 -1 136
0 158 1 22 3 159 6 305 3 146 7 291 8 323 1 32 -1 60 -4 63 -4 2 -6 28 -3 57
10 132 14 189 19 286 l4 103 38 34 c21 18 42 33 46 34 4 0 5 -22 1 -50 -4 -32
-3 -50 4 -50 12 0 22 82 11 94 -5 6 19 37 56 73 36 35 65 69 65 76 0 12 21 39
26 34 1 -1 -2 -124 -8 -272z m1789 173 c-8 -105 -9 -659 -3 -1448 6 -780 6
-845 -1 -900 -8 -71 -8 -75 -18 -89 -6 -10 -4 -13 6 -9 11 4 14 -14 15 -106 2
-171 15 -489 20 -498 3 -4 -3 -8 -13 -9 -16 0 -16 -1 2 -9 18 -7 19 -8 2 -15
-9 -4 -16 -12 -15 -19 1 -6 -2 -42 -6 -81 -4 -38 -8 -80 -10 -92 -4 -48 -16
-33 -16 20 0 31 -4 57 -10 57 -6 0 -10 -34 -9 -82 0 -46 -4 -95 -10 -110 -6
-16 -7 -28 -1 -28 5 0 12 9 15 21 4 11 9 18 11 16 9 -9 -20 -57 -35 -58 -12
-1 -11 -3 3 -6 17 -5 18 -13 12 -114 -4 -60 -9 -115 -12 -123 -3 -8 -1 -17 5
-21 6 -3 11 -11 11 -16 0 -6 -4 -7 -10 -4 -6 4 -10 -6 -10 -23 0 -47 -65 -242
-80 -242 -19 0 8 111 30 125 5 3 8 11 4 16 -3 5 0 16 6 24 10 12 10 15 0 15
-10 0 -10 3 0 15 7 9 9 26 5 46 -4 19 -3 34 4 38 6 4 14 21 17 38 6 28 4 31
-14 26 -13 -3 -18 -11 -15 -19 3 -8 0 -14 -7 -14 -6 0 -9 -4 -5 -9 3 -5 1 -12
-5 -16 -5 -3 -10 -21 -10 -38 0 -18 -7 -42 -15 -53 -8 -12 -11 -24 -8 -28 3
-3 -2 -14 -13 -23 -13 -13 -19 -30 -17 -58 0 -22 -3 -47 -7 -55 -5 -8 -7 8 -4
38 2 33 0 50 -6 47 -6 -3 -10 -13 -10 -21 0 -8 -4 -14 -9 -14 -17 0 -93 -169
-88 -196 2 -13 2 -22 -1 -20 -15 15 -82 -130 -74 -159 2 -6 -1 -6 -7 0 -8 8
-3 31 14 78 13 37 26 71 29 76 8 12 38 122 41 146 3 30 27 109 36 119 4 5 7
-2 6 -15 0 -13 -4 -26 -8 -29 -3 -3 -3 -14 1 -25 7 -18 8 -18 15 8 4 15 11 27
16 27 9 0 49 59 49 73 0 18 -20 5 -26 -18 -7 -29 -34 -56 -34 -33 0 8 7 23 15
34 19 25 19 35 -1 27 -14 -5 -14 -3 -3 16 16 25 29 27 29 6 0 -8 2 -15 4 -15
2 0 11 -2 18 -5 10 -4 19 7 28 35 12 36 12 43 -1 51 -10 6 -11 11 -3 17 18 11
45 71 39 83 -4 5 -1 8 7 7 7 -2 13 6 14 17 1 31 14 65 25 65 6 0 9 10 8 23 -2
12 0 27 3 32 4 7 -6 9 -28 7 -25 -3 -34 -8 -30 -18 3 -8 2 -14 -2 -14 -5 0 -6
-17 -4 -37 2 -29 1 -34 -7 -23 -8 12 -11 8 -11 -19 0 -43 -11 -34 -17 14 -3
28 0 35 14 35 16 1 15 3 -5 20 -20 16 -21 23 -14 58 6 23 6 46 0 56 -5 9 -6
22 -2 29 6 8 3 8 -8 -1 -9 -8 -14 -20 -11 -29 3 -8 0 -19 -8 -24 -10 -6 -10
-9 -1 -9 6 0 12 -5 12 -11 0 -5 -5 -7 -11 -3 -8 4 -9 0 -4 -15 3 -11 3 -26 -1
-33 -5 -7 -9 -20 -9 -28 -1 -8 -2 -25 -3 -36 -2 -26 -37 -39 -40 -15 -13 94
-12 114 2 164 9 30 16 65 16 76 0 26 25 28 39 4 6 -10 11 -13 11 -6 0 7 11 23
24 36 21 21 23 29 16 66 -6 34 -5 39 6 30 8 -6 14 -21 15 -33 0 -12 3 -15 6
-8 6 14 -23 101 -39 117 -7 7 -8 -2 -4 -25 6 -32 5 -33 -6 -10 -13 28 -19 80
-9 80 3 0 5 27 5 60 -1 33 3 60 9 60 5 0 7 12 4 27 -5 29 9 67 22 59 16 -10
33 42 28 85 -8 66 -11 83 -19 89 -10 8 -40 119 -42 156 -1 18 -8 40 -16 50
-13 16 -13 17 2 11 14 -5 16 -2 9 16 -4 12 -11 35 -15 51 -7 27 -6 28 10 15
16 -13 16 -12 6 7 -6 12 -9 24 -5 27 3 4 1 13 -5 20 -7 8 -9 16 -6 19 3 3 1 9
-5 13 -15 9 -14 -18 1 -33 8 -8 9 -15 2 -22 -7 -7 -18 5 -33 36 -17 33 -26 42
-32 33 -6 -10 -8 -9 -8 6 0 11 -2 39 -5 63 -3 24 -1 42 4 42 13 0 13 63 1 76
-9 8 -14 104 -26 454 -3 80 -5 145 -6 145 -1 0 -10 505 -11 590 0 44 1 223 1
398 l2 318 27 17 c63 39 141 108 141 125 1 15 -13 7 -58 -32 -32 -28 -63 -51
-69 -51 -5 0 -15 -7 -22 -15 -7 -8 -17 -15 -22 -15 -19 0 12 27 98 89 46 33
84 55 84 50 0 -6 5 -7 11 -4 5 4 8 12 6 18 -3 11 19 41 25 35 2 -1 23 16 48
40 25 23 49 42 54 42 4 0 6 -37 3 -82z m-2712 -139 c93 -1 91 -5 -15 -27 -32
-7 44 -10 263 -10 169 0 310 -1 312 -3 2 -3 4 -218 5 -479 1 -631 2 -804 2
-870 1 -58 -16 -76 -42 -45 -7 9 -28 15 -50 15 -30 0 -44 -6 -64 -31 -26 -31
-35 -69 -16 -69 6 0 15 11 20 24 12 33 50 57 78 49 29 -7 28 -21 -2 -33 -13
-4 -49 -29 -80 -54 -179 -146 -160 -134 -209 -129 -37 4 -49 1 -67 -17 -20
-20 -22 -29 -16 -76 6 -51 4 -57 -34 -114 -64 -93 -92 -119 -122 -113 -18 3
-33 -2 -47 -16 -22 -22 -29 -75 -11 -86 18 -11 11 -44 -26 -121 -30 -64 -40
-76 -65 -81 -16 -3 -36 -15 -44 -27 -22 -30 -19 -89 6 -120 l20 -26 -22 -116
c-19 -104 -24 -116 -46 -125 -13 -5 -26 -9 -29 -9 -2 0 -4 51 -4 113 0 125
-16 543 -27 682 -3 50 -4 234 -2 410 5 447 5 817 -1 1184 l-5 315 25 8 c14 4
70 5 125 3 55 -3 141 -5 190 -6z m1916 -30 c3 -5 91 -11 195 -13 104 -2 197
-7 207 -11 16 -7 17 -36 18 -394 1 -212 2 -417 4 -456 1 -38 6 -272 10 -520 6
-449 9 -537 21 -650 4 -33 4 -58 1 -55 -2 3 -17 34 -32 70 -15 36 -43 86 -62
113 -41 56 -33 61 20 12 45 -41 51 -43 42 -12 -11 35 -46 67 -74 67 -34 0 -36
2 -110 90 -35 41 -91 101 -125 132 -33 31 -55 57 -48 58 24 0 50 -19 72 -55
12 -20 24 -34 27 -31 9 8 -17 72 -39 95 -17 19 -27 22 -62 17 -36 -6 -50 -1
-126 42 -76 43 -85 52 -88 80 -3 33 -53 92 -76 92 -8 0 -25 -9 -40 -21 -25
-19 -30 -20 -79 -8 -28 7 -67 18 -84 26 l-33 13 -2 263 c0 144 -2 273 -4 287
-3 25 -9 188 -19 501 -3 92 -7 175 -9 185 -2 11 -6 36 -10 56 l-7 37 158 4
c191 4 346 -2 354 -14z m-985 -1384 c4 -8 1 -21 -5 -29 -12 -14 -5 -46 13 -58
7 -5 7 -8 -1 -8 -7 0 -13 -9 -13 -20 0 -13 -9 -22 -27 -26 -16 -3 -41 -10 -57
-15 -29 -9 -29 -9 -11 11 10 12 24 19 31 16 18 -7 25 4 11 19 -6 6 -20 10 -30
7 -10 -3 -24 3 -32 14 -13 17 -14 15 -9 -26 l6 -45 -72 -28 c-39 -15 -75 -25
-80 -22 -4 3 -10 0 -12 -6 -2 -7 -10 -10 -18 -7 -8 2 2 11 24 22 20 9 36 23
35 29 -5 28 41 94 58 84 5 -3 15 -1 23 4 11 8 12 12 3 16 -9 3 -10 10 -3 24
12 22 36 25 43 7 3 -7 6 -3 6 8 1 16 9 23 32 28 17 3 35 4 40 1 4 -3 5 -29 2
-57 -4 -34 -3 -49 4 -45 13 8 24 47 14 47 -4 0 -5 16 -3 35 4 36 18 46 28 20z
m188 -46 l45 -50 28 18 c15 10 35 23 44 28 9 6 28 18 43 29 34 24 110 33 122
15 12 -19 11 -72 -1 -81 -6 -5 -5 -8 3 -8 6 0 12 -9 12 -21 0 -15 -4 -19 -16
-15 -9 4 -58 9 -108 13 -50 3 -96 10 -102 14 -6 5 -14 6 -18 2 -3 -4 -35 -8
-71 -11 -49 -3 -65 0 -65 10 0 8 -4 7 -11 -4 -6 -12 -22 -18 -43 -18 -30 0
-33 2 -33 33 0 32 22 60 43 53 6 -3 11 3 10 12 -1 14 26 28 61 31 6 1 32 -22
57 -50z m451 10 c28 -10 51 -25 53 -33 2 -9 12 -17 23 -17 10 -1 25 -2 32 -3
19 -1 205 -97 218 -112 13 -16 9 -17 -66 -15 -27 2 -79 -2 -114 -8 -55 -9 -69
-8 -105 8 -22 10 -64 29 -93 41 -45 19 -52 26 -51 49 0 14 -3 47 -7 74 l-8 47
34 -7 c19 -3 57 -14 84 -24z m-990 -66 c-2 -10 -4 -20 -5 -23 -4 -9 0 -54 6
-86 5 -29 2 -34 -43 -62 -26 -17 -63 -41 -82 -53 l-34 -23 12 22 c10 18 9 21
-4 16 -8 -4 -15 -14 -15 -23 0 -14 -7 -17 -32 -14 -24 3 -29 2 -18 -6 8 -5 18
-7 22 -5 4 3 8 1 8 -4 0 -5 -26 -34 -58 -64 -31 -30 -70 -74 -85 -97 -15 -23
-44 -59 -63 -79 -32 -33 -130 -219 -149 -282 -4 -14 -16 -42 -26 -62 -11 -20
-21 -54 -24 -75 -3 -21 -10 -62 -15 -92 -6 -30 -10 -70 -10 -88 0 -18 -4 -33
-10 -33 -15 0 -82 111 -76 126 3 7 -1 19 -8 26 -13 14 -14 68 0 89 4 7 8 26 8
43 1 38 19 43 36 12 11 -21 11 -28 -1 -42 -8 -9 -13 -25 -11 -35 2 -9 -2 -20
-8 -24 -15 -9 -12 -25 5 -25 8 0 19 10 26 23 6 12 20 29 31 38 19 15 18 16
-17 54 -48 53 -51 72 -21 132 14 28 26 56 26 61 0 18 20 24 35 12 9 -7 13 -21
9 -34 -3 -14 1 -28 10 -35 13 -11 16 -11 16 2 0 9 -5 19 -10 22 -6 4 3 19 20
36 28 29 41 57 20 44 -5 -3 -10 -1 -10 5 0 7 8 9 19 5 31 -10 34 11 6 55 l-25
40 26 41 c40 64 115 154 132 157 23 6 9 -21 -19 -35 -13 -7 -20 -13 -15 -13 6
0 5 -5 -2 -12 -14 -14 -16 -87 -2 -108 7 -11 9 2 6 42 -6 73 13 95 68 80 39
-11 41 -10 26 19 -7 11 -7 19 -1 19 5 0 12 -6 15 -12 3 -9 9 -7 20 6 11 14 13
23 5 32 -6 7 -8 18 -4 24 3 5 0 19 -8 31 -8 11 -13 28 -10 38 4 14 155 127
188 140 5 2 13 8 16 14 4 5 15 7 25 3 17 -7 16 -9 -8 -28 -16 -11 -28 -28 -28
-39 0 -25 2 -24 40 11 18 17 38 30 46 30 10 0 11 6 4 26 -13 33 -13 47 0 39 6
-3 10 -1 10 4 0 6 4 11 9 11 5 0 8 -8 6 -17z m734 -63 c36 -5 71 -16 80 -25
13 -13 15 -57 16 -303 0 -342 -2 -361 -37 -431 -16 -30 -28 -58 -28 -63 0 -4
-27 -57 -61 -118 -33 -61 -59 -115 -57 -121 2 -5 34 42 72 106 38 64 73 118
78 121 4 3 8 10 8 15 0 6 -4 7 -10 4 -5 -3 -10 -2 -10 3 0 12 40 92 46 92 3 0
2 -5 -2 -12 -4 -6 -6 -65 -5 -130 l2 -118 -33 -31 c-41 -38 -113 -89 -126 -89
-5 0 -23 7 -38 15 -16 8 -39 15 -51 15 -13 0 -23 6 -23 13 0 12 -26 265 -34
342 -3 22 -8 67 -11 100 -3 33 -8 78 -10 100 -3 22 -7 90 -11 150 -3 61 -10
115 -16 120 -26 25 35 -705 68 -807 3 -11 0 -18 -8 -18 -8 0 -31 -9 -53 -20
-30 -15 -42 -17 -54 -8 -27 21 -41 41 -41 62 0 18 2 18 26 -5 l26 -24 -22 37
c-18 31 -22 56 -25 148 -2 98 -1 109 12 93 14 -17 14 -17 8 2 -19 55 -25 168
-25 462 l0 321 68 7 c37 3 76 7 87 9 27 3 115 -3 194 -14z m-381 -210 c-1
-110 -6 -200 -10 -200 -5 0 -9 12 -9 28 -2 30 -6 111 -13 219 -5 80 -13 113
-28 113 -6 0 -8 -29 -4 -82 11 -167 18 -224 34 -266 12 -35 16 -91 16 -277 1
-221 0 -233 -16 -218 -10 9 -20 25 -24 37 -3 11 -24 42 -45 68 -21 26 -39 51
-39 56 0 6 -4 12 -8 14 -11 4 -53 98 -48 106 2 4 -4 8 -15 8 -23 0 -23 2 -3
-44 8 -20 16 -50 16 -65 1 -15 5 -30 9 -33 5 -3 6 2 3 10 -8 22 9 20 24 -1
103 -146 133 -191 137 -208 18 -90 14 -102 -21 -64 -10 12 -39 35 -64 52 -25
16 -54 38 -65 49 -11 10 -39 32 -62 48 l-43 30 -2 133 c0 72 -1 139 0 147 0 8
-4 37 -9 65 -6 27 -12 121 -15 207 l-5 157 30 15 c16 9 32 16 34 16 3 0 8 -29
12 -65 3 -36 10 -65 15 -65 8 0 6 37 -4 108 -3 17 -4 32 -3 32 1 0 33 11 71
25 38 14 79 25 92 25 12 0 26 5 29 10 3 6 13 10 21 10 14 0 15 -26 12 -200z
m697 99 c175 -90 290 -182 401 -324 32 -42 71 -90 85 -106 33 -37 93 -187 125
-311 48 -189 55 -416 19 -593 -18 -85 -67 -240 -92 -290 -96 -190 -256 -377
-411 -483 -93 -63 -163 -102 -185 -102 -8 0 -34 59 -67 153 l-54 152 -1 195
c-1 107 1 203 3 213 2 13 29 -10 100 -85 121 -129 314 -323 281 -283 -13 16
-103 113 -200 215 -177 188 -189 205 -189 276 0 33 12 30 67 -18 42 -36 164
-129 368 -278 33 -24 54 -36 46 -27 -7 9 -101 83 -209 164 -250 189 -271 208
-267 251 1 18 4 35 7 37 3 3 40 -11 84 -31 43 -20 142 -57 219 -84 77 -26 151
-52 165 -58 41 -17 163 -60 190 -67 83 -21 -158 76 -385 154 -60 21 -147 55
-192 76 l-83 38 0 47 0 47 193 7 c443 15 527 19 527 28 0 6 -56 7 -137 3 -76
-3 -239 -7 -363 -8 l-225 -2 0 40 0 40 60 18 c174 54 425 134 537 173 70 24
131 44 137 44 5 0 13 5 16 10 10 17 -41 2 -405 -115 -258 -83 -332 -105 -341
-99 -17 10 -10 93 9 110 32 30 578 420 597 428 6 2 7 6 3 10 -7 9 -187 -110
-354 -234 -105 -77 -231 -164 -246 -168 -16 -4 -18 5 -18 86 l0 90 47 63 c95
129 254 372 247 378 -4 3 -8 2 -10 -4 -7 -18 -245 -350 -266 -370 l-20 -20 7
55 c4 30 6 185 5 344 l-1 288 28 -6 c15 -3 82 -34 148 -67z m318 33 c10 -10
14 -22 10 -26 -4 -4 0 -4 9 -1 9 4 18 -1 22 -12 4 -10 2 -19 -3 -21 -14 -5
-14 -72 -1 -72 6 0 10 16 10 35 0 24 5 35 15 35 27 0 188 -171 174 -185 -8 -7
-188 22 -202 33 -8 7 -17 9 -21 5 -3 -4 -23 9 -44 28 -43 41 -88 75 -178 134
l-65 42 62 7 c95 9 139 8 140 -6 1 -7 0 -39 -1 -70 -1 -32 2 -58 7 -58 4 0 10
28 11 62 5 84 22 106 55 70z m-1368 -219 c0 -87 2 -185 6 -218 3 -33 3 -61 0
-63 -9 -3 0 -164 10 -184 7 -12 6 -18 -1 -18 -18 0 -49 19 -165 100 -106 74
-221 145 -200 123 11 -12 213 -153 303 -212 28 -18 52 -38 52 -42 0 -15 2 -23
11 -46 6 -16 5 -23 -4 -24 -6 0 -2 -5 11 -11 25 -13 24 -34 -2 -32 -11 1 -16
-6 -16 -27 0 -17 -5 -29 -12 -29 -13 0 -161 51 -362 124 -55 20 -101 34 -104
32 -7 -7 59 -33 406 -158 60 -21 92 -39 92 -51 0 -4 -4 -6 -10 -2 -5 3 -10
-24 -12 -67 -3 -71 -4 -73 -28 -72 -14 1 -137 4 -275 7 -202 5 -226 4 -125 -4
69 -5 193 -12 275 -16 l150 -8 3 -66 3 -66 -58 -16 c-32 -9 -143 -37 -248 -62
-209 -50 -220 -53 -213 -61 6 -5 423 91 466 107 50 19 52 16 52 -86 l0 -95
-34 -17 c-57 -30 -366 -237 -366 -246 0 -12 30 6 200 118 85 56 165 107 178
114 l22 12 0 -141 c0 -86 -4 -150 -11 -163 -7 -12 -42 -58 -79 -102 -67 -80
-85 -105 -77 -105 5 0 121 133 141 162 9 12 18 19 21 16 3 -2 10 -53 15 -112
11 -114 41 -206 86 -267 13 -18 22 -35 19 -37 -2 -3 -23 8 -46 24 -23 16 -49
34 -58 39 -135 84 -318 256 -399 375 -29 41 -68 108 -87 148 -36 73 -78 218
-69 234 3 5 1 14 -4 21 -21 26 -50 297 -32 297 6 0 8 5 4 12 -10 16 -6 103 8
168 6 30 12 62 13 70 5 36 19 76 31 90 7 9 15 32 17 52 2 20 9 44 16 52 8 9
11 16 7 16 -7 0 45 102 57 111 5 3 8 10 7 14 -1 4 6 17 16 29 11 12 32 48 49
79 35 69 192 233 278 294 34 23 64 43 67 43 3 0 5 -71 5 -157z m1428 -25 c12
-6 60 -15 106 -19 102 -9 106 -13 178 -154 57 -112 76 -191 49 -201 -15 -6
-15 -8 1 -19 17 -13 17 -15 -4 -35 -13 -11 -23 -25 -23 -31 0 -6 7 -3 16 5 8
9 20 14 25 11 12 -8 12 -95 0 -95 -5 0 -5 -16 0 -37 10 -44 13 -518 4 -556 -7
-26 -30 -42 -46 -31 -5 3 -9 0 -9 -6 0 -7 12 -10 28 -8 27 3 27 2 29 -57 1
-33 6 -61 12 -63 6 -2 11 -11 11 -19 0 -10 -6 -13 -16 -9 -14 5 -16 1 -10 -26
14 -68 -86 -279 -113 -239 -8 12 -12 12 -25 2 -25 -21 -19 -31 14 -24 17 3 30
1 30 -4 0 -23 -177 -259 -187 -249 -2 2 1 23 7 47 12 44 5 129 -10 129 -15 0
-22 -40 -10 -56 9 -9 10 -28 6 -57 -4 -23 -8 -52 -9 -64 -3 -33 -108 -130
-229 -211 -59 -40 -112 -72 -117 -72 -6 0 -8 12 -5 29 4 16 1 32 -5 35 -7 4
-11 -1 -11 -13 0 -11 -7 -26 -15 -35 -20 -19 -19 -26 3 -26 12 0 9 -6 -12 -19
-36 -24 -43 -21 -52 27 -4 20 -10 42 -13 47 -4 6 -12 23 -19 38 -12 28 -12 28
57 61 101 48 216 133 301 221 41 43 87 91 103 106 15 15 27 29 27 32 0 2 24
44 53 93 29 49 68 124 87 167 33 75 38 81 70 78 8 0 5 4 -8 11 -24 12 -23 25
4 82 7 16 11 32 9 36 -3 5 -1 20 5 35 5 14 12 54 15 88 3 34 7 77 9 94 8 58
10 129 4 139 -3 5 -9 43 -13 84 -18 184 -19 186 -38 230 -8 19 -31 82 -52 140
-21 58 -42 111 -47 118 -6 6 -7 12 -2 12 4 0 -8 17 -27 38 -36 38 -149 177
-163 200 -9 15 -1 15 27 0z m418 -554 c10 -46 17 -129 17 -183 0 -55 5 -109
12 -120 6 -12 8 -27 4 -33 -4 -7 -7 -31 -5 -55 2 -42 -10 -118 -31 -198 -6
-22 -13 -52 -14 -66 -5 -37 -23 -83 -31 -76 -3 3 -2 14 2 24 21 46 32 466 19
698 -3 61 -2 106 2 102 4 -4 16 -46 25 -93z m-1718 -22 c4 -6 31 -27 60 -46
76 -49 147 -115 147 -137 0 -24 -1 -24 -85 7 -39 14 -90 33 -115 41 -25 9 -48
18 -52 22 -6 6 -13 94 -10 140 2 24 2 24 25 5 12 -10 26 -25 30 -32z m-835
-84 c11 -24 32 -58 46 -77 14 -19 26 -43 26 -52 0 -18 -43 -106 -61 -123 -5
-6 -9 -20 -9 -32 0 -14 -8 -25 -20 -29 -25 -8 -26 -35 -2 -35 10 0 29 -8 42
-17 24 -16 25 -16 9 3 -9 10 -18 26 -21 34 -5 15 28 89 56 125 15 20 15 19 15
-5 0 -14 2 -50 6 -80 3 -30 7 -77 9 -105 2 -27 6 -57 9 -65 3 -8 8 -27 11 -42
5 -22 3 -25 -14 -21 -17 5 -18 3 -7 -20 6 -14 16 -25 20 -24 5 1 16 -16 24
-38 9 -22 29 -74 45 -115 17 -41 31 -80 32 -86 1 -6 17 -29 35 -52 31 -39 32
-57 2 -29 -12 10 -13 9 -7 -7 5 -15 3 -17 -11 -10 -31 13 -116 18 -109 5 4 -6
12 -9 17 -6 9 6 67 -9 101 -26 10 -5 18 -4 20 3 2 6 34 -25 70 -68 36 -43 85
-97 107 -118 22 -22 36 -43 31 -46 -6 -4 -3 -33 9 -81 11 -41 20 -64 20 -51 1
13 -4 43 -10 68 -6 25 -9 47 -6 50 3 3 34 -18 69 -46 58 -48 266 -160 295
-160 7 0 13 -7 13 -16 0 -22 -31 -127 -40 -138 -16 -16 -170 47 -261 108 -26
17 -66 42 -88 55 -23 14 -40 30 -39 35 4 19 -22 56 -40 56 -9 0 -35 18 -57 39
-43 41 -130 156 -130 170 0 5 -3 13 -7 17 -5 4 -8 14 -8 22 0 8 -13 27 -30 42
-16 15 -30 37 -30 49 0 12 -4 21 -10 21 -5 0 -10 8 -10 18 0 9 -9 28 -20 42
-11 14 -20 32 -20 41 0 9 -3 19 -7 23 -14 13 -13 47 2 52 8 3 42 -8 75 -25 34
-17 59 -27 55 -21 -4 6 -33 24 -66 40 -32 17 -59 34 -59 39 0 4 -11 13 -25 19
-24 11 -36 52 -15 52 6 0 10 5 10 11 0 6 -7 8 -16 5 -8 -3 -13 -2 -10 2 3 5
-3 21 -14 37 -10 15 -16 34 -13 41 3 8 1 14 -5 14 -12 0 -22 46 -26 113 -1 33
-8 51 -22 62 -13 10 -14 14 -5 15 11 0 11 3 0 17 -12 14 -12 16 1 11 13 -5 16
5 15 64 0 38 3 72 8 75 4 3 1 10 -8 17 -14 10 -16 23 -11 67 17 144 30 162 64
87z m903 -94 c98 -30 139 -53 139 -79 l0 -25 -129 0 -129 0 -4 68 c-3 37 -3
70 -1 74 2 4 21 1 41 -8 20 -9 58 -22 83 -30z m219 -68 c-8 -101 0 -150 30
-174 22 -17 22 -18 5 -72 -40 -131 -74 -223 -74 -200 0 29 27 209 34 220 4 6
-1 7 -11 3 -13 -5 -16 -3 -11 9 3 9 3 19 0 22 -3 3 -7 24 -8 46 -2 29 2 43 14
50 14 8 14 9 -2 10 -14 0 -17 7 -15 36 1 19 6 38 10 40 4 3 6 20 3 37 -6 30
-5 31 11 15 9 -9 16 -28 14 -42z m179 14 c58 -29 68 -79 29 -136 -31 -45 -56
-55 -108 -41 -35 10 -46 18 -58 46 -20 49 -2 105 41 131 40 25 49 25 96 0z
m224 -107 c7 -4 10 -73 3 -73 -2 0 -24 12 -50 26 -25 14 -46 22 -46 17 0 -4
21 -19 48 -33 39 -21 47 -30 50 -57 2 -18 -1 -33 -5 -33 -5 0 -29 20 -53 45
-24 25 -48 45 -54 45 -5 0 19 -26 52 -58 60 -56 62 -59 62 -107 l0 -50 -28 35
c-15 19 -37 46 -50 60 l-23 25 12 -25 c7 -14 30 -45 51 -69 45 -52 50 -67 46
-146 l-3 -60 -59 115 c-32 63 -64 122 -71 130 -8 8 -19 28 -25 44 -10 26 -9
28 5 16 14 -12 14 -9 -1 23 -20 41 -14 57 13 36 16 -13 17 -12 5 2 -9 12 -10
24 -3 42 5 14 7 35 4 47 -6 21 -4 22 53 15 32 -4 62 -9 67 -12z m-1664 -32 c9
-6 21 -50 31 -121 16 -109 16 -112 -3 -125 -12 -9 -21 -30 -24 -58 -5 -38 -2
-47 18 -61 13 -9 33 -16 45 -16 28 0 36 -12 58 -85 10 -33 27 -80 38 -104 19
-38 19 -45 6 -55 -8 -6 -20 -38 -26 -71 -11 -54 -10 -62 6 -85 17 -21 27 -25
78 -26 l59 -1 59 -69 c32 -38 67 -82 76 -98 17 -27 17 -29 -1 -47 -25 -25 -24
-74 0 -98 29 -29 83 -36 122 -17 31 15 35 15 86 -9 58 -26 173 -103 173 -115
0 -4 -7 -11 -16 -14 -12 -5 -14 -13 -9 -34 10 -40 24 -52 59 -52 41 0 59 17
45 42 -8 16 -6 18 21 18 34 0 34 -1 20 -44 -6 -17 -33 -112 -61 -211 -28 -99
-53 -188 -56 -197 -4 -15 -17 -18 -69 -18 -60 0 -65 -2 -74 -26 -6 -14 -8 -30
-5 -35 4 -5 -2 -6 -12 -2 -28 10 -74 44 -127 93 -28 25 -44 37 -37 28 8 -11 9
-18 3 -18 -23 0 -195 177 -261 268 -101 141 -154 248 -192 387 -4 17 -13 48
-19 70 -12 46 -49 240 -56 300 l-5 40 20 -40 c23 -43 22 -31 -5 65 -19 68 -30
367 -19 533 6 99 9 117 23 117 10 0 23 -4 31 -9z m1176 -26 c-1 -14 -4 -27 -6
-28 -14 -8 -47 -30 -129 -84 -51 -35 -94 -63 -96 -63 -1 0 -5 10 -7 23 -3 16
-5 13 -6 -10 0 -18 -6 -33 -11 -33 -14 0 -9 155 5 156 6 0 23 6 38 12 38 16
47 15 48 -5 0 -15 2 -14 9 3 8 19 23 26 94 40 10 2 25 8 34 13 23 13 31 5 27
-24z m0 -109 c-4 -26 -13 -52 -19 -59 -6 -7 -28 -32 -48 -57 -20 -25 -49 -58
-63 -75 -15 -16 -38 -49 -52 -72 -14 -24 -29 -43 -33 -43 -5 0 -12 21 -15 48
-10 78 -14 81 -10 7 3 -48 0 -78 -9 -95 -12 -21 -14 -10 -14 105 -1 122 0 128
13 95 l15 -35 -3 40 c-2 35 2 42 31 60 18 11 69 47 115 81 45 34 86 58 90 54
5 -4 5 -29 2 -54z m150 -117 c-21 -85 -62 -230 -91 -324 -29 -93 -60 -200 -69
-236 -8 -36 -21 -84 -29 -107 -8 -23 -13 -42 -9 -42 3 0 1 -6 -5 -12 -5 -7
-13 -29 -17 -48 -4 -19 -11 -41 -15 -50 -11 -20 -58 -198 -68 -252 -2 -16 -9
-28 -15 -28 -6 0 -8 -2 -5 -5 6 -6 -12 -95 -41 -210 -34 -133 -41 -164 -41
-184 0 -15 -10 -20 -47 -24 -27 -3 -49 -4 -51 -3 -1 2 7 23 18 48 11 25 27 76
35 114 9 38 40 137 70 219 58 161 132 397 185 590 18 66 46 156 61 200 15 44
40 130 54 190 22 91 71 265 91 324 3 10 8 11 15 4 7 -7 -1 -57 -26 -164z m135
144 c0 -34 92 -310 135 -408 8 -17 19 -51 24 -75 6 -25 30 -101 55 -170 78
-221 106 -302 161 -470 67 -205 124 -365 164 -459 17 -40 31 -75 31 -78 0 -2
-14 -3 -32 -1 l-32 3 -142 425 c-220 661 -282 848 -344 1050 -23 74 -49 148
-57 163 -16 32 -10 47 18 47 14 0 19 -7 19 -27z m-50 -78 c0 -19 48 -169 137
-430 42 -121 76 -226 77 -234 2 -20 -60 -39 -129 -40 -55 -1 -67 3 -125 42
-53 34 -70 52 -92 97 l-27 55 19 75 c9 41 41 154 69 251 28 97 51 184 51 193
0 10 5 14 10 11 6 -3 10 -12 10 -20z m-231 -71 c2 -59 -23 -149 -66 -237 -18
-37 -33 -72 -33 -77 0 -6 -7 -10 -15 -10 -9 0 -15 -9 -15 -24 0 -33 -16 -42
-24 -12 -4 15 6 47 30 95 20 40 33 75 29 79 -3 3 -8 -4 -12 -16 -3 -12 -10
-19 -15 -16 -5 3 -7 12 -4 20 3 8 1 14 -5 14 -6 0 -8 -11 -4 -28 5 -25 -5 -57
-35 -114 -6 -10 -6 -19 -1 -23 5 -3 9 -20 8 -39 0 -20 -5 -32 -11 -29 -5 4 -6
1 -2 -6 9 -14 -1 -61 -12 -61 -5 0 -6 21 -4 48 2 26 4 62 5 80 0 17 4 32 9 32
4 0 1 16 -7 36 -16 39 -20 68 -7 47 5 -8 8 1 8 20 0 24 13 50 45 93 25 32 54
74 64 92 26 43 42 41 37 -3 -3 -21 0 -35 7 -35 6 0 9 16 6 43 -2 23 -2 50 1
60 10 32 21 18 23 -29z m-14 -289 c-24 -135 -138 -495 -153 -481 -2 2 -3 7 -3
10 1 4 -6 20 -14 36 -9 17 -15 36 -14 43 1 6 -3 25 -9 40 -15 35 -15 67 -2 67
6 0 10 5 10 10 0 6 -7 10 -15 10 -20 0 -30 46 -17 75 8 18 8 25 -2 28 -10 4
-12 -1 -9 -14 3 -10 1 -19 -5 -19 -13 0 -20 36 -22 108 -1 57 15 122 31 122 6
0 8 4 5 9 -3 5 1 14 9 21 13 11 14 10 10 -2 -3 -8 1 -27 9 -43 14 -26 13 -30
-2 -43 -9 -7 -12 -11 -7 -9 6 3 9 -14 6 -46 -2 -29 -6 -46 -8 -39 -3 6 -9 12
-14 12 -14 0 -11 -21 6 -40 8 -9 16 -35 19 -58 2 -24 5 -45 7 -47 3 -2 15 16
28 41 28 52 38 51 20 -3 -16 -49 -24 -116 -21 -171 2 -28 22 -19 22 10 0 18
20 87 41 143 16 43 16 52 3 76 -18 32 -18 48 1 23 11 -15 14 -16 15 -4 0 9 -5
21 -10 26 -7 7 -2 26 15 60 14 27 25 53 25 58 0 5 10 32 22 59 20 44 23 47 29
25 3 -13 0 -55 -6 -93z m81 -227 c5 -18 9 -38 9 -43 0 -6 10 -25 23 -42 12
-17 22 -36 22 -42 0 -6 7 -11 15 -11 9 0 15 -9 15 -22 -1 -22 -1 -23 -15 -4
-15 19 -15 19 -15 -2 0 -12 5 -22 11 -22 17 0 6 -65 -11 -66 -8 -1 -21 -2 -27
-3 -7 0 -13 -6 -13 -12 0 -6 9 -8 21 -4 18 6 19 5 10 -13 -15 -28 -14 -32 4
-26 8 4 15 1 15 -5 0 -18 -50 -33 -84 -25 -17 3 -44 13 -60 21 -24 13 -27 19
-22 45 3 16 13 44 21 62 9 18 18 45 20 62 11 71 40 184 46 184 4 0 11 -15 15
-32z m1380 -40 c-14 -144 -43 -245 -128 -448 -80 -193 -222 -375 -368 -472
l-54 -37 -11 28 c-48 130 -147 442 -142 447 8 8 67 -47 67 -62 0 -20 32 -25
56 -9 24 16 32 49 14 60 -19 12 -10 26 11 20 16 -5 20 -3 17 6 -3 8 -13 14
-24 15 -39 2 -44 4 -44 18 0 19 189 146 216 146 12 0 38 -7 57 -15 49 -20 74
-19 87 6 9 17 8 23 -7 35 -10 7 -22 13 -28 13 -5 0 -4 -3 3 -6 19 -7 14 -20
-10 -26 -13 -4 -33 0 -47 10 l-24 15 43 39 c24 22 47 39 52 39 4 0 8 6 8 13 0
6 28 46 63 87 62 74 64 75 111 75 31 1 50 -4 55 -13 5 -9 11 4 15 37 10 78 20
61 12 -21z m-1012 -144 c-44 -81 -161 -190 -182 -170 -5 6 12 26 111 129 42
44 61 75 40 65 -48 -23 -63 -33 -63 -43 0 -6 -8 -20 -19 -31 -10 -11 -24 -30
-30 -42 -6 -12 -18 -22 -26 -22 -8 0 -15 -4 -15 -10 0 -5 -4 -10 -10 -10 -5 0
-10 6 -10 14 0 8 -3 16 -7 19 -5 2 -2 2 5 1 7 -2 12 6 12 20 0 13 6 29 13 35
16 13 30 3 20 -13 -20 -32 -7 -33 23 -2 35 36 48 61 16 33 -11 -10 -23 -13
-31 -8 -19 12 -6 41 18 41 10 0 38 9 62 19 24 11 46 18 50 15 4 -2 12 3 19 12
27 32 30 -4 4 -52z m125 -241 c13 -38 26 -73 28 -79 2 -6 -6 -14 -19 -17 -113
-26 -195 -37 -281 -38 -56 -1 -106 -5 -112 -9 -12 -9 -162 4 -233 20 -48 11
-53 14 -48 34 4 11 12 42 18 69 6 26 17 47 24 47 6 0 47 -7 90 -16 57 -12 104
-15 169 -11 87 6 309 48 322 61 13 13 19 4 42 -61z m45 -145 c11 -35 39 -118
90 -263 31 -88 56 -160 56 -160 -1 -5 -980 -3 -980 2 0 25 75 301 86 318 8 11
14 34 14 52 0 23 5 33 15 33 18 0 20 -16 3 -23 -8 -3 -6 -6 5 -6 21 -1 23 -31
2 -31 -20 0 -19 -39 0 -47 20 -7 42 21 50 66 l6 34 67 -7 c73 -8 81 -11 64
-28 -16 -16 12 -66 43 -78 52 -20 116 38 85 75 -7 8 -11 18 -8 21 6 5 192 23
251 24 32 0 37 -3 37 -23 0 -12 7 -33 16 -45 28 -40 119 -22 94 18 -8 13 -13
13 -31 2 -19 -12 -24 -11 -47 11 -26 27 -23 48 6 41 9 -3 26 2 37 10 25 19 35
20 39 4z m288 -469 c-12 -10 -133 -60 -207 -86 -38 -13 -153 -37 -254 -53
-111 -17 -187 -33 -192 -41 -7 -12 -109 -6 -469 27 -37 4 -87 21 -155 53 -133
64 -157 94 -80 103 54 6 1364 3 1357 -3z m-1417 -89 c28 -16 83 -39 121 -51
38 -11 73 -24 77 -28 4 -5 -54 -8 -129 -7 l-137 1 -2 58 c-2 34 1 57 7 57 6 0
34 -13 63 -30z"/>
<path d="M3390 5780 c-4 -14 -10 -40 -19 -90 -5 -30 -16 -83 -25 -117 -9 -34
-18 -75 -20 -90 -2 -15 -11 -59 -20 -98 -23 -95 -86 -393 -86 -406 0 -6 4 -8
8 -5 5 3 16 38 25 78 10 40 31 129 48 198 36 149 33 136 58 280 11 63 25 141
31 173 6 32 9 64 6 70 -2 7 -5 10 -6 7z"/>
<path d="M13260 7957 c0 -33 -2 -36 -17 -29 -10 5 -68 12 -129 15 l-111 6 5
-24 4 -25 129 0 129 0 12 -27 c7 -16 31 -58 55 -94 24 -37 43 -71 43 -75 1
-11 36 -54 44 -54 13 0 4 34 -20 76 -14 24 -23 44 -20 44 4 0 -12 23 -34 51
-22 28 -43 62 -46 76 -4 14 -15 41 -25 61 l-18 37 -1 -38z"/>
<path d="M5376 7934 c-26 -18 -41 -23 -45 -15 -5 8 -14 4 -27 -11 -16 -19 -16
-20 -1 -9 9 8 20 12 22 9 7 -6 -43 -56 -69 -70 -16 -9 -18 -8 -12 7 5 15 4 16
-9 5 -9 -7 -14 -19 -11 -26 5 -12 -94 -112 -150 -151 -16 -12 -43 -25 -58 -29
-22 -5 -25 -9 -14 -15 12 -7 13 -18 6 -61 -12 -66 -15 -811 -6 -1308 4 -206 9
-665 10 -1020 3 -570 0 -802 -17 -1392 -2 -90 0 -148 5 -148 13 0 13 -47 0
-55 -6 -3 -9 -27 -8 -53 l1 -47 7 45 c4 25 8 38 10 30 1 -8 1 -190 1 -403 -1
-213 0 -396 3 -405 7 -21 67 -27 238 -26 65 1 115 -3 112 -7 -5 -8 444 -17
461 -9 53 26 188 39 200 19 5 -7 13 -5 25 6 9 8 23 13 31 10 8 -3 34 -1 59 4
l45 9 -57 1 c-54 1 -72 11 -47 26 5 4 48 57 94 119 46 62 103 131 125 154 34
34 40 44 31 59 -10 17 -10 17 -11 1 0 -10 -4 -18 -10 -18 -5 0 -10 18 -10 40
0 22 3 40 8 40 8 0 8 90 -1 255 -4 66 -9 259 -12 430 -5 283 -4 308 10 287 19
-26 79 -156 89 -192 4 -14 43 -135 86 -270 43 -135 102 -319 131 -410 93 -295
166 -511 178 -523 21 -21 11 -27 -46 -27 -36 0 -53 -4 -47 -9 5 -6 161 -11
364 -13 195 -2 341 -1 325 2 -37 7 316 28 440 26 l90 -1 20 -37 c25 -47 32
-48 27 -3 -3 21 1 42 9 52 8 10 9 14 2 10 -24 -15 -22 13 2 40 22 23 24 24 15
5 -6 -12 -9 -22 -7 -22 10 0 87 83 82 88 -6 7 25 42 37 42 5 0 7 -4 4 -9 -4
-5 4 -7 16 -3 22 5 22 6 -4 14 -25 9 -26 11 -15 36 6 15 20 41 32 57 11 17 25
39 32 50 6 11 17 19 23 17 19 -4 6 38 -61 193 -54 126 -75 174 -114 270 -48
116 -210 527 -221 560 -11 37 -45 128 -96 265 -38 102 -78 225 -85 260 -6 34
-66 185 -116 291 -14 30 -29 66 -32 82 -4 15 -11 30 -17 33 -5 3 -4 12 3 20 8
10 8 14 0 14 -6 0 -11 -4 -11 -10 0 -16 -17 -11 -24 7 -7 18 31 66 45 57 5 -3
9 -1 9 4 0 11 53 72 176 202 81 86 127 147 157 208 30 62 -6 28 -53 -49 -50
-83 -101 -152 -107 -146 -2 3 16 33 39 69 24 35 61 96 83 136 38 68 64 95 50
52 -4 -11 -2 -20 4 -20 9 0 15 14 9 23 -1 1 4 12 11 25 7 13 14 41 17 64 3 23
11 53 18 67 31 61 51 187 61 376 4 61 10 160 14 220 10 138 6 243 -15 355 -7
35 -28 106 -34 115 -4 6 -13 35 -21 65 -7 30 -17 57 -20 60 -9 6 -49 106 -49
121 0 6 5 7 10 4 16 -10 12 -1 -22 62 -53 97 -89 154 -122 191 -18 20 -18 22
-2 22 16 0 16 2 6 15 -9 11 -15 12 -20 5 -5 -7 -11 -6 -19 4 -9 11 -9 15 1 19
18 6 -49 75 -137 142 -109 82 -370 218 -471 244 -23 6 -47 18 -54 27 -9 10
-15 11 -20 4 -5 -8 -45 -1 -131 21 -182 47 -389 69 -574 62 -160 -7 -852 -10
-835 -5 12 4 14 22 2 22 -4 0 -25 -12 -46 -26z m349 -34 c110 -5 307 -6 439
-1 131 4 268 4 305 -1 36 -4 86 -10 111 -12 40 -5 158 -40 215 -64 11 -5 54
-19 95 -32 41 -13 92 -32 113 -42 21 -11 43 -18 49 -16 5 2 -11 14 -36 26 -43
22 -67 42 -49 42 4 0 43 -13 86 -29 42 -16 77 -27 77 -24 0 2 12 -4 28 -15 15
-11 38 -23 52 -27 14 -4 43 -19 65 -33 22 -14 65 -39 95 -55 112 -60 196 -137
256 -235 26 -43 58 -90 69 -107 26 -35 48 -95 35 -95 -4 0 -10 6 -13 13 -2 6
-8 9 -12 5 -4 -4 2 -15 14 -24 11 -10 28 -41 37 -69 8 -27 17 -56 20 -63 2 -7
3 -15 3 -18 0 -4 4 -10 9 -13 6 -4 12 -19 14 -34 3 -16 10 -32 16 -36 7 -4 19
-43 28 -87 8 -43 19 -88 24 -99 20 -46 30 -157 32 -340 1 -132 -9 -195 -30
-195 -9 0 -9 18 1 65 13 60 17 144 6 151 -6 3 -8 12 -5 20 3 8 1 14 -4 14 -6
0 -10 5 -10 11 0 5 5 7 10 4 16 -10 11 8 -8 33 -17 22 -19 23 -33 6 -8 -10 -9
-15 -3 -11 17 10 22 -20 19 -124 -4 -118 -3 -109 -18 -109 -9 0 -14 -12 -15
-30 -1 -30 12 -41 21 -17 3 7 6 5 6 -5 1 -10 -6 -18 -14 -18 -9 0 -15 -9 -15
-21 0 -16 3 -19 13 -11 9 8 13 3 14 -20 2 -23 -3 -31 -17 -35 -11 -3 -20 -13
-20 -22 0 -14 2 -14 10 -1 5 8 10 10 10 4 0 -6 -3 -14 -7 -18 -4 -3 -8 -16
-10 -28 -2 -12 -9 -28 -16 -37 -8 -10 -8 -12 -1 -8 19 11 24 -20 7 -35 -15
-11 -16 -11 -10 5 3 9 2 17 -2 17 -5 0 -11 -6 -14 -12 -2 -7 -4 8 -3 34 0 25
4 44 8 42 3 -2 9 0 13 5 3 5 -2 14 -11 19 -15 9 -15 12 -2 40 12 24 13 29 2
25 -8 -3 -12 3 -11 16 1 12 8 21 17 21 13 1 13 2 0 13 -11 9 -16 38 -18 115
-2 92 0 104 16 108 19 6 56 63 46 73 -3 3 -11 -2 -18 -13 -20 -33 -44 -61 -49
-56 -2 3 -7 20 -10 38 -5 23 -3 31 4 26 8 -4 9 1 4 16 -6 19 -4 21 14 15 18
-5 21 -2 21 21 0 15 9 38 21 50 13 14 18 27 13 36 -6 9 -10 6 -14 -11 -3 -14
-11 -26 -18 -29 -14 -4 -56 83 -47 98 7 11 -16 50 -29 50 -5 0 -5 -5 0 -12 5
-7 9 -46 9 -85 0 -52 4 -73 13 -73 6 0 12 -4 12 -10 0 -5 -7 -7 -15 -3 -13 4
-16 -2 -14 -38 2 -24 7 -48 13 -52 7 -5 5 -7 -4 -4 -8 2 -15 10 -16 18 0 8 -5
25 -11 39 -6 14 -14 51 -18 84 -17 143 -32 194 -92 324 -42 91 -183 304 -183
277 0 -4 -37 27 -81 69 -174 162 -370 266 -604 320 -38 9 -98 24 -133 32 -165
38 -546 49 -962 27 -124 -7 -297 -15 -385 -18 -146 -5 -158 -4 -140 10 61 47
178 148 235 202 76 73 47 69 385 53z m630 -289 c273 -32 398 -61 596 -141 67
-27 138 -62 158 -78 20 -15 62 -45 93 -66 60 -39 184 -169 211 -221 8 -16 32
-47 52 -67 20 -21 34 -41 31 -47 -3 -5 1 -15 10 -22 20 -17 51 -78 63 -126 90
-347 105 -423 89 -434 -12 -8 -17 -68 -6 -75 4 -3 8 0 8 5 0 6 5 11 10 11 7 0
9 -73 5 -222 -5 -254 -7 -288 -17 -288 -3 0 -4 -9 -1 -19 3 -11 -2 -34 -11
-52 -9 -18 -16 -45 -16 -60 0 -16 -6 -43 -14 -61 -7 -18 -21 -58 -31 -88 -23
-73 -85 -200 -134 -276 -42 -66 -126 -141 -269 -237 l-86 -59 -18 24 -19 23
15 -31 c14 -29 8 -59 -11 -59 -4 0 -19 -8 -32 -17 l-23 -17 32 -3 c30 -3 35
-9 72 -93 64 -144 157 -373 188 -465 16 -47 55 -143 86 -215 80 -184 125 -297
120 -302 -6 -6 -30 37 -169 297 -63 118 -144 269 -179 335 -36 66 -94 176
-128 245 -56 110 -217 405 -337 615 -86 152 -163 305 -152 305 27 0 109 132
137 220 37 113 50 216 45 366 -8 255 -71 402 -221 515 -79 60 -84 66 -28 36
29 -16 43 -21 35 -11 -7 8 -33 26 -58 39 -39 20 -42 24 -21 24 14 0 44 -8 68
-19 23 -10 42 -17 42 -14 0 12 -88 44 -121 44 -20 0 -51 8 -70 17 -60 30 -182
28 -369 -6 -36 -7 -39 -9 -15 -10 l30 -1 -2 -675 -1 -675 25 -6 c34 -9 184 4
263 22 36 8 98 33 138 54 64 35 73 37 78 22 3 -9 10 -24 15 -32 5 -8 23 -44
40 -79 23 -50 27 -66 17 -73 -7 -4 -10 -8 -5 -8 4 0 9 1 11 3 2 1 14 -7 25
-17 15 -14 3 18 -38 104 -33 68 -58 126 -55 129 9 10 33 -26 91 -139 33 -63
96 -180 140 -260 44 -80 117 -217 163 -305 106 -206 204 -386 300 -555 42 -74
130 -234 195 -355 65 -121 125 -231 135 -245 17 -25 34 -66 153 -370 125 -318
107 -293 -152 225 -115 231 -243 483 -284 560 -40 77 -119 227 -176 333 -56
107 -147 282 -203 390 -55 108 -105 202 -110 207 -13 13 219 -448 352 -700 55
-104 197 -383 316 -620 119 -236 272 -539 340 -672 68 -133 124 -249 124 -256
0 -12 -17 -14 -82 -10 -46 2 -100 3 -120 3 -21 0 -38 4 -38 10 0 5 11 10 25
10 14 0 25 5 25 11 0 6 -9 9 -20 6 -23 -6 -27 11 -5 19 8 4 15 13 15 21 0 10
-6 13 -16 9 -12 -4 -14 -1 -9 13 6 19 -24 90 -50 121 -8 8 -18 27 -24 42 -9
23 -6 30 22 58 24 23 28 33 19 39 -18 11 -60 2 -58 -12 3 -26 -19 -20 -28 8
-17 57 -73 170 -100 202 -45 53 -115 73 -265 74 -191 1 -218 -6 -287 -75 -22
-23 -51 -48 -65 -57 -24 -16 -24 -19 -21 -140 3 -128 36 -297 68 -346 21 -33
17 -43 -13 -43 -27 0 -29 5 -95 208 -37 114 -86 261 -108 327 -23 66 -52 156
-65 200 -13 44 -45 145 -70 225 -78 248 -112 373 -119 435 -4 33 -10 63 -15
68 -4 4 -4 -14 0 -40 14 -87 7 -96 -27 -35 -63 110 -74 154 -78 312 -2 83 -1
150 3 150 4 0 13 -6 20 -12 10 -11 12 -9 9 7 -2 14 -13 21 -32 23 l-29 4 6
-127 c4 -95 3 -125 -6 -122 -7 2 -31 39 -54 83 -28 53 -63 100 -104 139 -58
56 -62 58 -75 40 -8 -10 -15 -17 -17 -14 -2 2 -15 25 -30 51 -43 74 -67 88
-154 88 -101 0 -136 -16 -168 -79 -14 -28 -30 -51 -36 -51 -5 0 -7 -4 -4 -10
3 -5 -3 -27 -15 -49 -24 -48 -25 -89 -5 -138 22 -53 58 -71 69 -35 5 15 20 17
122 18 107 0 115 -1 111 -18 -4 -15 1 -18 28 -18 24 0 35 5 38 18 3 9 10 38
17 65 7 26 17 50 21 53 11 7 11 -5 10 -951 l-1 -780 -233 0 c-192 0 -241 3
-286 18 -30 9 -85 17 -121 17 -57 0 -232 -21 -295 -35 -20 -4 -20 1 -18 424
l1 428 126 249 c69 137 153 299 186 359 33 61 76 140 95 177 19 37 48 88 65
114 36 57 41 84 5 33 -40 -60 -220 -389 -338 -619 -61 -118 -119 -228 -129
-245 l-19 -30 7 70 c8 78 28 126 132 300 36 61 86 148 112 195 58 105 141 248
230 400 226 384 338 574 380 645 58 98 72 125 66 125 -12 0 -89 -121 -318
-505 -82 -137 -170 -284 -196 -325 -25 -41 -121 -208 -213 -370 -92 -162 -175
-304 -183 -315 -15 -19 -16 -15 -17 60 -2 182 1 689 13 2110 0 44 0 94 -1 110
-1 17 0 53 2 80 2 28 1 54 -1 58 -4 8 -8 281 -16 937 -2 151 -5 281 -7 289 -6
22 39 29 126 19 76 -9 294 -4 540 11 226 15 474 12 650 -8z m-30 -815 c75 -20
104 -38 176 -113 146 -151 193 -287 188 -541 -4 -147 -39 -301 -77 -335 -33
-30 -144 -60 -237 -64 -84 -4 -91 -3 -103 17 -8 12 -9 19 -3 15 11 -6 11 4 15
188 1 31 -1 57 -4 57 -3 0 -5 152 -5 338 -1 185 -4 363 -8 395 -4 31 -4 57 0
57 5 0 31 -6 58 -14z m-251 -432 c3 -9 6 -47 6 -86 0 -55 3 -69 14 -65 8 3 13
-1 12 -11 -1 -13 7 -17 32 -17 19 -1 32 4 32 12 0 7 4 13 8 13 5 0 9 -18 9
-40 0 -21 -4 -37 -9 -34 -4 3 -8 12 -8 20 0 8 -6 14 -13 14 -20 0 -20 -77 1
-89 16 -10 16 -10 0 -11 -11 0 -18 -8 -18 -20 0 -11 5 -20 11 -20 5 0 7 5 4
10 -3 6 -1 10 4 10 6 0 11 -2 11 -4 0 -2 3 -12 7 -22 5 -14 2 -16 -16 -11 -26
6 -25 25 -7 -188 10 -107 15 -128 32 -115 20 17 18 4 -3 -18 -10 -10 -44 -46
-75 -81 -41 -43 -58 -57 -59 -44 -2 51 2 442 4 463 2 14 0 34 -4 45 -3 11 -2
33 2 50 9 30 11 105 7 203 -3 51 4 67 16 36z m1092 -1480 c7 -28 26 -77 43
-110 38 -74 106 -215 124 -257 33 -75 36 -87 27 -87 -6 0 -10 5 -10 12 0 6 -2
9 -5 7 -9 -10 8 -49 22 -49 9 0 13 -6 10 -14 -3 -7 2 -24 10 -37 11 -15 12
-20 3 -14 -10 6 -12 4 -6 -11 4 -10 9 -23 10 -29 1 -5 4 -14 8 -20 3 -5 29
-68 57 -140 29 -71 62 -152 75 -180 13 -27 27 -66 31 -85 4 -19 11 -39 15 -45
4 -5 10 -23 14 -40 7 -30 47 -120 90 -205 19 -37 34 -78 40 -110 1 -3 4 -9 7
-15 4 -5 9 -22 13 -36 3 -15 21 -60 39 -100 19 -41 40 -89 47 -106 7 -18 16
-33 21 -33 5 0 3 13 -6 29 -20 40 -65 161 -69 186 -1 11 -8 30 -14 42 -17 30
-15 38 5 22 15 -13 15 -12 4 9 -6 12 -16 22 -22 22 -5 0 -23 30 -40 68 -17 37
-46 99 -64 137 -19 39 -36 81 -39 95 -6 36 -66 189 -77 195 -5 4 -9 11 -9 17
0 6 12 -2 26 -18 l26 -29 -15 31 c-9 17 -23 36 -31 43 -19 16 -22 37 -3 25 7
-5 5 -2 -5 7 -9 9 -20 29 -23 45 -5 23 -4 26 5 14 10 -13 11 -13 7 0 -2 8 -12
14 -22 12 -9 -2 -15 1 -12 5 3 5 0 22 -7 38 -34 77 -39 92 -40 118 -2 45 10
31 39 -48 15 -42 29 -74 32 -72 7 8 -29 103 -77 197 -51 102 -84 196 -71 205
11 6 33 -20 24 -28 -3 -4 0 -13 6 -21 7 -8 14 -27 17 -43 9 -54 45 -128 72
-147 l27 -20 -20 23 c-16 19 -17 24 -5 32 11 8 12 12 3 16 -7 2 -13 11 -13 18
0 8 -5 17 -12 21 -7 4 -8 3 -4 -4 4 -7 2 -12 -4 -12 -8 0 -10 9 -6 24 4 15 -3
41 -18 71 -14 26 -22 54 -19 61 3 8 0 14 -6 14 -6 0 -10 3 -9 8 3 14 -14 62
-23 62 -5 0 -9 4 -9 9 0 6 -22 51 -49 100 -27 50 -48 91 -45 91 2 0 -5 16 -16
36 -22 38 -17 69 5 37 16 -23 154 -296 186 -368 12 -27 44 -94 70 -149 27 -54
49 -109 49 -123 0 -14 4 -22 10 -18 6 4 8 11 5 16 -4 5 -2 9 4 9 14 0 99 -88
106 -110 3 -10 17 -25 30 -34 15 -10 22 -22 19 -31 -4 -8 -1 -15 5 -15 6 0 11
5 11 11 0 5 5 7 10 4 16 -10 12 -25 -7 -25 -9 0 -13 -3 -9 -7 4 -4 14 -8 23
-8 9 0 24 -24 40 -65 14 -36 31 -78 38 -95 7 -16 16 -41 20 -55 10 -33 135
-316 155 -352 15 -26 13 -61 -2 -52 -8 4 -10 3 -5 -2 5 -5 13 -9 19 -9 5 0 19
-22 29 -50 22 -59 24 -80 4 -45 l-15 25 7 -30 c7 -36 29 -72 60 -102 22 -21
33 -71 13 -58 -5 3 -6 13 -3 21 5 12 1 15 -13 11 -15 -5 -24 6 -47 53 -15 32
-37 69 -48 82 -12 13 -2 -13 21 -57 46 -86 76 -125 97 -125 19 0 6 -23 -81
-143 -39 -53 -78 -111 -87 -128 -10 -16 -20 -31 -24 -32 -4 -1 -15 19 -25 46
-10 26 -16 47 -15 47 2 0 -7 26 -21 57 -16 35 -22 59 -15 61 11 4 7 14 -23 67
-27 46 -60 118 -63 136 -1 9 -13 38 -27 65 -21 43 -48 121 -51 149 -3 23 -40
115 -47 115 -5 0 -8 9 -8 19 0 11 -4 22 -9 25 -4 3 -25 52 -46 108 -21 57 -43
109 -48 116 -5 7 -7 15 -4 19 4 3 0 18 -8 32 -19 35 -60 130 -70 161 -4 14
-21 53 -36 88 -16 34 -29 69 -29 77 0 7 -4 16 -9 19 -5 3 -11 16 -14 28 -2 13
-16 54 -31 93 -30 81 -32 92 -11 75 9 -8 3 15 -16 61 -35 82 -77 160 -94 171
-5 4 -6 8 -2 8 4 0 2 10 -5 23 -7 12 -12 26 -13 30 0 4 -5 11 -11 15 -23 15
-69 135 -59 152 13 21 28 4 41 -46z m-1262 -156 c9 -12 16 -30 16 -40 0 -16
-12 -18 -130 -18 -84 0 -130 4 -130 10 0 6 7 24 15 40 l16 30 99 0 c91 0 100
-2 114 -22z m77 -60 c3 -28 -4 -54 -17 -69 -8 -8 -14 -30 -14 -48 0 -24 -6
-34 -25 -41 -36 -14 -278 -14 -304 -1 -26 14 -25 58 0 109 l17 33 151 2 c104
1 154 6 163 15 6 6 16 12 20 12 4 0 9 -6 9 -12z m1507 -100 c6 -13 24 -52 41
-88 34 -73 91 -162 91 -142 0 7 5 10 10 7 6 -4 8 -11 5 -16 -4 -5 1 -12 10
-15 10 -4 14 -13 10 -28 -4 -14 -3 -17 3 -8 7 10 13 7 28 -15 23 -35 65 -123
58 -123 -16 0 -54 35 -54 51 0 10 -10 25 -22 33 -50 35 -112 103 -128 141 -10
22 -30 66 -45 99 -14 32 -28 68 -29 80 -1 12 -6 27 -10 34 -4 7 -2 12 7 12 7
0 19 -10 25 -22z m-1313 -720 c1 -23 6 -81 10 -128 4 -47 8 -102 8 -123 0 -20
7 -42 14 -49 13 -10 14 -5 9 33 -4 24 -8 85 -10 135 -2 50 -6 96 -10 102 -3 6
-3 18 1 28 11 28 22 -16 29 -109 3 -45 9 -115 15 -155 11 -91 11 -101 -1 -82
-9 13 -10 13 -10 -1 0 -8 6 -21 13 -28 10 -11 10 -13 0 -7 -14 8 -18 -19 -5
-28 8 -5 15 -66 8 -66 -1 0 -13 12 -27 27 -18 20 -20 25 -6 20 15 -6 16 -3 7
13 -5 10 -10 38 -10 61 0 50 -7 49 -11 -1 -2 -19 -7 -37 -10 -40 -12 -9 3 -60
17 -60 7 0 16 -10 18 -22 9 -44 12 -98 5 -98 -9 0 -16 25 -18 65 -1 16 -5 33
-10 38 -6 6 -7 -16 -3 -54 3 -35 6 -101 6 -146 1 -46 4 -83 7 -83 3 0 11 11
18 24 10 18 11 38 4 80 -6 31 -6 59 -2 62 5 3 9 -2 9 -10 0 -9 5 -16 10 -16 6
0 8 11 4 25 -4 15 -2 25 5 25 7 0 11 -21 10 -57 -1 -32 0 -64 2 -70 4 -12 -69
-111 -81 -112 -3 -1 -6 61 -8 137 -2 75 -6 172 -10 215 -6 62 -5 77 6 77 8 0
11 7 8 18 -8 29 -16 103 -21 214 -2 59 -5 110 -6 115 -4 21 2 86 7 81 3 -4 7
-26 9 -50z m-55 -483 c1 -99 6 -191 11 -205 5 -15 7 82 5 243 -1 147 1 267 6
267 4 0 8 -21 8 -47 1 -27 5 -68 10 -93 5 -26 4 -50 -1 -56 -8 -10 -5 -108 10
-339 6 -88 4 -115 -7 -132 -8 -13 -17 -23 -21 -23 -3 0 -5 34 -4 75 2 41 -1
75 -6 75 -5 0 -7 -9 -4 -20 3 -11 1 -20 -4 -20 -6 0 -9 -33 -9 -76 1 -67 -2
-81 -24 -110 -26 -35 -46 -45 -36 -18 3 9 6 22 6 30 0 8 7 14 15 14 12 0 15
15 15 79 0 44 4 82 9 85 4 3 7 22 5 43 -5 69 -7 246 -4 423 3 166 4 170 10 80
4 -52 9 -176 10 -275z m1267 39 c31 -23 88 -102 80 -110 -3 -3 -16 0 -29 7
-24 13 -222 18 -353 9 l-69 -5 -16 42 c-8 23 -19 45 -23 49 -11 12 -8 -64 4
-84 14 -23 -11 -126 -32 -130 -24 -4 -49 51 -49 110 0 84 16 90 22 8 3 -39 11
-77 18 -83 10 -10 11 -2 6 35 -4 28 -3 49 4 53 5 3 10 14 10 23 0 12 -3 13 -8
5 -5 -8 -8 1 -9 22 -1 20 6 40 14 47 23 19 101 26 260 25 127 -2 145 -4 170
-23z m43 -133 c18 -5 34 -25 59 -74 18 -38 30 -71 26 -75 -9 -9 -409 -5 -465
6 l-45 8 3 39 c4 62 20 93 50 98 46 7 346 5 372 -2z m-493 -166 c18 -12 22
-13 26 -1 5 12 13 12 54 -1 59 -18 376 -27 472 -12 72 10 69 12 117 -75 44
-80 26 -167 -37 -180 -49 -9 -139 -7 -114 4 12 5 -45 9 -149 9 -93 1 -167 -1
-165 -3 2 -2 44 -6 92 -9 149 -9 110 -17 -86 -17 l-187 0 -19 38 c-11 21 -22
55 -26 75 -4 20 -11 37 -16 37 -5 0 -9 7 -9 15 0 9 -6 26 -14 38 -7 12 -16 39
-19 60 -6 36 -5 37 26 37 18 0 42 -7 54 -15z"/>
<path d="M6034 5410 c-27 -11 -56 -82 -46 -111 8 -19 16 -21 95 -23 l87 -1 6
43 c8 54 -14 92 -54 93 -15 0 -36 2 -47 4 -11 2 -29 0 -41 -5z"/>
<path d="M6510 5009 c-14 -5 -38 -26 -54 -47 -26 -34 -28 -42 -22 -97 6 -74
33 -155 53 -162 9 -4 22 3 32 15 12 15 23 19 44 15 15 -3 27 -9 27 -13 0 -4
-11 -5 -24 -3 -13 3 -27 -1 -31 -8 -6 -9 -2 -11 13 -7 12 4 22 2 22 -3 0 -5
30 -9 68 -9 51 1 63 3 49 11 -24 14 -12 29 24 29 29 0 40 -14 17 -23 -7 -3 4
-6 25 -6 25 -1 37 3 37 13 0 8 7 16 15 20 8 3 15 10 15 15 0 6 -7 8 -15 5 -18
-7 -19 0 -3 26 10 16 8 27 -10 65 -12 25 -22 50 -22 55 0 20 -62 95 -88 107
-32 14 -137 15 -172 2z m175 -19 c4 -6 -25 -10 -81 -10 -112 0 -101 -13 14
-16 69 -2 89 -6 99 -20 26 -36 16 -40 -97 -42 l-111 -2 2 42 c1 24 4 46 6 51
6 11 161 9 168 -3z m-222 -90 c-5 -20 -2 -20 146 -16 l151 4 10 -40 c6 -21 8
-47 5 -57 -6 -20 -52 -34 -61 -20 -3 5 -38 9 -78 9 -48 0 -79 5 -92 15 -10 8
-23 14 -29 14 -5 1 1 -8 15 -19 l25 -20 -36 0 c-35 0 -36 1 -52 60 -19 68 -21
90 -8 90 5 0 7 -9 4 -20z"/>
<path d="M8404 7949 c-2 -3 33 -9 77 -12 44 -3 83 -8 87 -11 3 -4 -39 -52 -94
-109 -55 -56 -114 -119 -132 -140 -21 -25 -38 -37 -48 -33 -13 5 -14 -67 -11
-615 l5 -620 -24 -29 c-32 -37 -30 -57 6 -78 28 -16 30 -21 30 -79 0 -62 0
-63 -40 -88 -45 -29 -49 -41 -20 -78 11 -14 20 -29 20 -34 -1 -17 -61 -73 -95
-87 -41 -18 -51 -36 -35 -66 15 -28 -19 -85 -58 -95 -67 -16 -95 -67 -54 -100
9 -7 28 -23 42 -34 27 -21 28 -17 -24 -91 -26 -37 -28 -43 -16 -66 8 -13 30
-34 49 -46 60 -35 82 -59 70 -74 -15 -19 -3 -49 32 -78 l30 -26 39 20 c22 11
44 20 50 20 15 0 12 -87 -5 -120 -12 -23 -13 -34 -3 -55 11 -24 8 -29 -36 -74
-36 -37 -47 -55 -44 -74 2 -16 -6 -34 -21 -51 -23 -25 -23 -26 -6 -52 15 -23
22 -25 54 -20 31 5 42 2 60 -17 l21 -24 -5 -819 c-3 -450 -8 -835 -12 -854 -3
-19 -6 -39 -5 -43 2 -4 4 -71 7 -148 l4 -139 -37 0 c-28 0 -33 -3 -22 -10 8
-5 28 -10 43 -10 17 0 26 -4 22 -11 -4 -6 -24 -9 -46 -8 -21 2 -41 0 -45 -4
-4 -4 16 -7 44 -7 34 0 52 -4 53 -12 1 -7 2 -20 3 -28 2 -8 3 -27 4 -42 1 -16
7 -28 13 -28 8 0 10 17 6 53 -3 30 -2 58 1 63 4 5 97 9 207 10 110 0 360 1
555 2 195 0 400 -1 455 -3 55 -3 186 -7 290 -9 l190 -5 -155 12 c-222 17 -147
28 186 26 263 -1 645 8 653 16 2 3 -2 11 -9 20 -10 13 -9 15 9 15 12 0 20 -4
17 -9 -10 -15 18 -29 49 -25 41 5 94 22 73 23 -10 1 -18 6 -18 11 0 6 6 10 13
8 6 -1 38 2 70 6 41 5 62 4 73 -4 10 -9 18 -10 27 -1 8 6 16 9 19 6 3 -3 11 1
18 10 11 13 8 15 -21 16 -19 1 -38 1 -44 0 -5 -1 -2 5 7 12 16 12 5 16 -87 27
-58 7 -108 17 -111 22 -5 7 39 10 196 9 63 0 64 1 22 9 -36 8 -99 14 -191 19
-25 2 -1 16 27 17 15 0 69 1 120 2 50 1 92 6 92 11 0 6 -10 9 -22 9 -70 -4
-248 3 -248 10 0 4 8 8 18 8 60 3 256 24 260 29 3 3 -6 5 -19 6 -13 0 -33 2
-44 3 -11 2 -45 7 -75 11 -30 4 -94 8 -142 9 -48 1 -90 5 -93 8 -3 3 8 16 25
28 37 26 135 147 165 204 12 22 39 79 59 126 21 47 44 99 52 117 8 17 14 35
14 41 0 11 25 95 46 157 7 22 15 56 18 75 9 70 69 356 78 377 6 11 7 27 3 34
-5 8 -4 10 3 5 16 -9 15 7 0 22 -9 9 -9 12 1 12 23 0 2 296 -34 481 -9 46 -23
118 -31 159 -8 41 -21 86 -28 100 -113 218 -153 280 -249 385 l-55 60 32 45
c17 25 37 49 44 53 67 43 118 187 67 187 -19 0 -19 13 -1 53 41 95 69 208 81
327 6 65 21 185 31 250 21 128 18 415 -4 443 -5 7 -12 27 -15 45 -6 30 -5 33
13 27 26 -8 25 -4 -5 29 -14 15 -25 35 -25 44 1 12 5 10 15 -8 10 -17 14 -20
15 -9 0 9 -9 28 -21 43 -11 14 -18 26 -15 26 3 0 -2 17 -10 37 -9 20 -17 44
-19 52 -11 56 -29 109 -44 126 -27 30 -37 50 -21 40 24 -15 -59 112 -109 168
-22 24 -23 27 -6 21 11 -4 35 -16 53 -27 17 -10 32 -16 32 -13 0 3 -32 24 -71
46 -38 23 -94 66 -124 96 -55 56 -77 70 -243 155 -52 26 -99 54 -105 62 -7 7
-75 28 -152 47 -77 18 -160 38 -185 46 -99 29 -187 37 -450 41 -422 8 -1121 9
-1126 2z m836 -45 c179 -4 350 -8 380 -10 30 -1 77 -3 103 -3 32 -1 46 -5 41
-12 -4 -7 1 -7 16 1 12 6 29 8 38 4 21 -9 46 -14 98 -18 23 -2 57 -11 77 -21
20 -9 40 -14 45 -11 10 6 259 -66 304 -88 17 -9 35 -16 40 -16 4 0 49 -26 99
-57 93 -59 233 -193 281 -269 14 -21 45 -70 70 -109 46 -72 96 -207 118 -323
14 -71 10 -84 -14 -47 -14 21 -15 29 -5 41 11 13 6 18 -14 15 -5 -1 -6 3 -3 8
3 5 0 14 -8 20 -8 7 -12 21 -9 31 4 14 0 20 -11 20 -21 0 -21 -1 14 -110 16
-51 28 -95 26 -97 -2 -2 -25 54 -51 124 -26 70 -50 132 -53 138 -3 5 -7 18 -7
27 -1 10 -42 58 -91 108 -107 109 -283 222 -435 279 -94 36 -65 13 62 -48 87
-42 147 -80 202 -126 43 -36 84 -65 90 -65 16 0 89 -73 86 -86 -3 -14 17 -58
33 -71 29 -25 167 -347 154 -360 -4 -4 -9 3 -12 15 -15 56 -97 217 -157 309
-101 152 -236 265 -475 398 -229 126 -472 170 -847 154 -77 -4 -349 -9 -603
-13 l-464 -7 62 68 c33 37 79 82 100 98 38 29 46 41 69 98 l11 27 157 -5 c87
-3 304 -8 483 -11z m-782 -297 c39 1 72 -1 72 -5 0 -4 253 -7 562 -7 310 0
601 -3 648 -7 112 -10 217 -26 238 -37 9 -4 51 -16 92 -26 137 -33 275 -99
401 -191 129 -95 206 -182 268 -304 65 -125 146 -360 164 -473 20 -125 13
-444 -13 -576 -30 -147 -41 -164 -78 -114 l-20 27 35 80 c21 50 32 89 28 103
-6 27 -53 53 -95 53 -34 0 -41 21 -15 46 11 11 13 28 9 62 -3 29 0 63 9 87 20
59 9 86 -48 117 -52 29 -103 36 -122 17 -18 -18 -58 -7 -61 18 -2 13 -14 25
-33 32 -16 5 -29 17 -29 25 0 18 -16 21 -25 6 -4 -6 -15 -8 -25 -5 -10 3 -25
-1 -34 -10 -22 -22 -20 -28 4 -13 26 16 40 0 16 -18 -17 -12 -18 -14 -3 -14 9
0 17 -5 17 -10 0 -7 6 -7 20 0 16 9 18 8 14 -5 -8 -20 10 -19 30 1 9 8 21 12
27 8 8 -5 7 -10 -5 -16 -23 -13 -22 -42 2 -30 9 5 23 7 30 5 7 -3 33 0 58 6
36 9 51 8 81 -4 74 -31 93 -66 56 -103 -9 -9 -10 -19 -3 -31 6 -12 5 -22 -2
-29 -6 -6 -12 -22 -14 -34 -4 -34 -4 -34 -13 -19 -7 11 -12 10 -27 -3 -11 -10
-28 -25 -39 -34 -12 -9 -15 -13 -8 -9 6 5 20 7 30 5 14 -4 12 -7 -12 -19 -16
-7 -41 -24 -54 -36 -14 -12 -29 -19 -34 -16 -5 3 -3 9 4 14 12 8 11 11 -1 19
-8 5 -20 10 -26 10 -6 0 -19 9 -29 20 -10 11 -23 20 -29 20 -5 0 9 -19 32 -43
23 -23 42 -49 42 -56 0 -7 15 -1 38 17 20 16 43 27 51 24 8 -3 11 0 7 7 -13
20 39 12 57 -9 10 -13 29 -20 50 -20 42 0 84 -39 72 -67 -5 -10 -9 -21 -9 -25
-1 -3 -4 -10 -8 -14 -5 -4 -8 -17 -8 -29 0 -12 -9 -34 -20 -48 -26 -33 -26
-35 12 -74 l33 -34 -50 -42 c-28 -23 -58 -51 -67 -62 -10 -11 -43 -48 -75 -83
-31 -34 -53 -65 -49 -69 4 -4 10 -3 14 3 4 6 17 16 30 23 18 10 22 9 22 -4 0
-8 -5 -15 -11 -15 -5 0 -7 -4 -4 -10 9 -15 25 -12 25 4 0 8 7 17 16 20 45 17
45 -5 2 -50 -18 -19 -38 -34 -44 -34 -16 0 -64 24 -64 33 0 4 -9 7 -21 7 -28
0 -15 -17 28 -35 37 -16 39 -32 7 -49 -10 -6 -23 -17 -27 -23 -4 -7 -13 -13
-19 -13 -6 0 -25 -12 -43 -27 -30 -26 -53 -43 -83 -62 -15 -9 -5 -41 12 -41 7
0 23 -11 36 -25 13 -14 29 -25 36 -25 7 0 14 -3 16 -8 2 -4 27 -24 55 -45 69
-50 166 -158 153 -171 -6 -6 -17 -3 -30 9 -17 15 -23 16 -29 6 -7 -10 -14 -10
-40 3 -33 17 -72 13 -91 -9 -9 -11 -2 -13 35 -13 57 1 69 -9 50 -45 -7 -15
-11 -27 -7 -27 3 0 1 -5 -6 -12 -7 -7 -12 -20 -12 -29 0 -10 -8 -20 -17 -23
-19 -6 -66 -49 -87 -80 -7 -10 -28 -20 -49 -22 -38 -5 -45 2 -27 24 7 9 7 9
-2 2 -55 -46 13 57 87 130 24 24 42 46 39 50 -4 3 -42 -33 -87 -80 -44 -47
-78 -78 -74 -69 4 12 -1 18 -19 22 -20 4 -23 1 -19 -14 4 -11 2 -19 -3 -19 -5
0 -12 -9 -15 -20 -4 -16 -11 -19 -39 -15 -102 16 -106 15 -129 -29 l-21 -41
21 19 c22 20 30 9 9 -13 -11 -11 -10 -13 5 -8 15 6 18 2 15 -21 -3 -24 -10
-29 -61 -42 -57 -14 -58 -14 -82 12 -13 14 -30 28 -37 31 -9 3 -6 10 11 23 13
9 31 26 40 37 39 49 111 107 134 107 5 0 -31 -37 -78 -82 -48 -45 -82 -84 -76
-86 7 -2 20 3 30 12 10 9 21 13 25 9 4 -5 6 -3 5 2 -2 6 22 36 52 69 29 32 54
63 54 70 0 6 4 16 8 22 15 25 -99 -44 -136 -81 -21 -22 -48 -50 -60 -63 -15
-15 -33 -22 -59 -22 -21 0 -38 3 -38 6 0 12 72 95 78 90 2 -3 -1 -14 -9 -23
-7 -10 7 0 32 23 24 22 62 51 84 63 l40 22 -35 -28 c-19 -15 -49 -43 -68 -60
-18 -18 -47 -40 -63 -50 -28 -17 -38 -33 -20 -33 6 0 13 5 16 10 4 6 11 7 17
4 7 -4 8 -2 4 4 -4 7 -1 12 6 12 7 0 40 27 72 60 32 33 66 60 74 60 8 0 30 14
49 31 20 17 42 28 50 25 8 -3 11 -1 8 4 -3 6 -1 10 5 10 6 0 25 13 43 30 18
16 36 30 41 30 12 0 -26 -44 -78 -91 -22 -20 -41 -44 -42 -54 -2 -14 3 -11 21
11 13 16 24 25 25 21 0 -5 13 1 30 13 20 14 27 26 23 37 -5 12 -2 15 9 11 20
-8 38 10 31 29 -5 12 -1 14 18 8 16 -4 19 -3 11 3 -10 7 -7 13 15 27 32 20
153 145 141 145 -4 0 -42 -32 -83 -71 -69 -66 -99 -84 -57 -35 l17 21 -25 -20
c-13 -11 -30 -27 -37 -35 -11 -13 -12 -12 -13 5 0 12 31 50 81 98 45 43 79 80
77 83 -3 2 -11 -2 -18 -11 -7 -8 -19 -15 -26 -15 -8 0 -14 -7 -14 -15 0 -8 -7
-15 -15 -15 -8 0 -15 -7 -15 -15 0 -8 -8 -15 -17 -15 -9 0 -14 -3 -10 -6 3 -4
1 -12 -6 -19 -7 -7 -22 -25 -35 -40 -31 -36 -41 -23 -13 18 l22 32 -30 -35
c-24 -27 -31 -30 -31 -16 0 15 -3 16 -15 6 -9 -8 -15 -9 -15 -2 0 6 4 13 9 16
5 3 11 16 14 28 5 17 -6 9 -38 -27 -24 -27 -44 -44 -45 -37 0 22 -23 12 -62
-28 -45 -49 -50 -36 -8 22 48 66 34 68 -25 3 -49 -54 -55 -57 -55 -35 0 14 4
41 10 59 5 19 7 37 4 40 -6 6 -48 -47 -50 -64 -1 -5 -2 -15 -3 -21 0 -7 -9
-15 -18 -18 -15 -6 -15 -4 2 14 27 30 6 25 -27 -7 -15 -14 -31 -23 -35 -19 -4
4 -3 10 3 14 6 4 18 18 27 32 10 14 23 25 29 25 6 0 13 6 16 14 3 10 0 12 -14
7 -23 -9 -42 -14 -31 -9 4 3 7 12 7 21 0 8 8 25 18 36 17 21 17 21 -5 2 -12
-10 -27 -16 -33 -14 -6 2 13 26 42 54 67 64 176 135 139 91 -9 -11 -4 -14 23
-15 19 -1 39 5 46 13 9 11 9 15 1 15 -6 0 -14 7 -18 16 -8 22 35 57 116 96
116 54 132 63 144 77 9 11 9 15 0 18 -15 5 -18 33 -4 33 5 0 22 5 36 10 22 8
25 13 15 25 -14 17 10 74 53 122 33 36 60 83 53 91 -3 2 -1 13 5 23 8 16 6 19
-10 19 -22 0 -33 22 -24 46 10 27 -20 11 -34 -18 -12 -24 -83 -86 -83 -72 0 3
-7 1 -15 -6 -11 -9 -12 -15 -5 -20 7 -5 6 -11 -5 -20 -14 -12 -15 -10 -11 14
3 14 12 41 20 59 l16 32 -23 -28 c-16 -19 -29 -26 -40 -21 -24 9 -21 23 6 34
12 5 33 21 46 35 14 15 27 22 30 16 4 -6 12 -6 21 -1 13 8 12 11 -3 22 -17 13
-17 15 4 42 l22 28 -21 -13 c-12 -8 -22 -18 -22 -23 0 -12 -108 -116 -120
-116 -5 0 -13 6 -17 14 -4 7 -27 25 -50 39 -56 35 -59 42 -28 78 27 33 27 51
0 29 -12 -10 -19 -10 -27 -2 -9 9 -7 16 8 28 13 11 15 17 6 20 -8 4 -3 17 18
42 16 20 30 40 30 45 0 8 -118 -88 -132 -108 -4 -5 -10 -6 -14 -2 -4 4 1 16
11 27 10 11 15 20 12 20 -12 0 67 76 103 100 44 29 100 81 100 93 0 4 -20 -8
-43 -27 l-44 -36 -23 25 c-13 14 -32 25 -42 25 -10 0 -18 5 -18 10 0 6 -9 10
-19 10 -11 0 -27 10 -35 22 l-15 21 -11 -27 c-5 -15 -10 -30 -10 -33 0 -18
-37 -43 -63 -43 -28 0 -29 2 -24 33 3 17 8 41 12 52 4 12 -2 7 -14 -10 -11
-16 -21 -36 -21 -42 0 -7 -9 -12 -20 -10 -27 4 -35 14 -23 29 5 7 13 22 16 33
5 14 0 12 -18 -10 -22 -26 -25 -27 -31 -11 -4 10 -2 27 5 38 19 30 31 68 23
68 -5 0 -21 -20 -37 -46 -16 -25 -32 -47 -37 -50 -5 -3 -8 37 -7 88 1 93 -16
180 -47 242 -8 16 -12 31 -10 33 8 9 46 -67 59 -118 l14 -54 5 43 c5 60 -46
167 -79 166 -12 0 -20 3 -18 7 3 4 -10 18 -28 32 -17 13 -52 43 -76 65 -65 60
-146 84 -301 89 l-125 4 0 -260 c0 -195 -3 -263 -12 -272 -15 -15 -17 -33 -4
-25 9 6 15 -19 26 -114 5 -44 5 -44 -12 -25 -12 13 -28 19 -45 17 -26 -3 -27
-3 -16 35 5 21 14 47 20 58 7 16 5 16 -11 -4 -12 -13 -21 -29 -21 -37 0 -8 -4
-14 -10 -14 -5 0 -10 -22 -10 -49 0 -51 -15 -74 -32 -50 -7 10 -8 8 -5 -8 4
-19 2 -21 -13 -13 -14 8 -16 5 -13 -13 5 -27 -23 -65 -52 -69 -18 -3 -20 2
-18 52 l2 55 -15 -34 c-9 -19 -14 -48 -12 -63 4 -25 1 -28 -21 -28 -43 0 -71
11 -71 29 -1 14 -3 14 -15 -2 -13 -18 -14 -18 -27 2 -16 26 -25 27 -33 2 -6
-21 -61 -45 -70 -31 -3 4 -1 10 5 12 5 1 12 30 15 63 l5 60 -14 -47 c-7 -25
-19 -52 -25 -60 -6 -7 -18 -21 -25 -32 -10 -15 -16 -17 -34 -7 -24 13 -27 35
-12 77 16 40 3 42 -16 1 -22 -46 -12 -81 31 -110 19 -12 35 -24 35 -28 0 -3
-13 -26 -30 -52 -30 -48 -30 -48 -59 -33 -26 14 -30 14 -35 0 -8 -21 17 -44
43 -39 24 4 29 -23 9 -43 -18 -18 -30 -15 -66 16 l-32 27 15 49 c22 73 5 81
-20 10 -7 -21 -18 -40 -24 -42 -6 -2 -27 13 -46 34 -22 24 -35 32 -35 22 0
-23 103 -119 161 -150 l50 -27 -40 -39 c-25 -25 -37 -43 -32 -51 6 -9 17 -2
40 25 17 21 32 44 32 51 1 7 2 16 3 21 0 4 14 23 30 42 15 19 26 27 22 18 -3
-10 -1 -18 4 -18 6 0 10 -5 10 -11 0 -6 -7 -8 -17 -4 -14 5 -15 4 -6 -6 10
-10 16 -9 31 4 10 9 29 17 43 17 17 0 20 3 10 9 -7 5 -10 14 -6 21 6 9 9 9 16
-1 6 -11 9 -10 15 4 3 9 10 14 15 11 5 -2 3 -14 -3 -24 -12 -19 -3 -43 10 -25
4 6 13 10 20 11 6 1 18 2 25 3 7 0 25 13 40 27 l27 25 28 -19 c15 -11 38 -32
51 -46 56 -60 38 1 -21 75 -29 36 -29 38 -12 57 17 21 18 20 70 -36 29 -31 55
-54 59 -50 5 4 3 13 -3 21 -14 16 -5 53 22 90 18 24 18 28 4 40 -9 6 -18 18
-20 26 -3 10 -7 9 -18 -5 -8 -10 -10 -15 -4 -11 7 4 17 1 23 -7 9 -11 8 -22
-6 -50 -16 -34 -33 -48 -33 -27 0 5 -9 13 -20 16 -11 3 -23 17 -26 30 -3 13
-12 26 -20 29 -22 9 -17 28 6 21 11 -3 20 -2 20 3 0 5 16 17 36 28 l36 19 20
-25 c11 -14 29 -36 40 -49 12 -14 21 -39 21 -57 0 -29 3 -32 19 -23 10 5 19
17 19 27 3 37 7 58 17 82 8 20 10 11 12 -50 1 -41 2 -94 2 -117 l-1 -43 52 -1
c162 -3 269 25 349 92 27 23 48 34 50 27 2 -6 29 22 60 63 57 77 70 98 113
187 13 28 29 52 35 52 14 0 13 -4 -20 -61 -66 -111 -102 -199 -81 -199 5 0 14
15 21 33 25 64 103 217 112 217 13 0 10 -18 -8 -45 -9 -13 -31 -56 -49 -95
-26 -53 -31 -70 -20 -70 8 0 15 -3 15 -8 0 -4 9 -13 20 -20 17 -10 25 -9 49 9
33 24 102 32 194 23 54 -6 57 -7 43 -23 -22 -24 -20 -51 3 -51 11 0 49 -26 85
-57 55 -47 66 -62 66 -88 0 -21 9 -40 25 -55 24 -22 29 -58 11 -72 -6 -4 -5
-16 2 -32 9 -21 8 -29 -9 -50 -11 -14 -18 -30 -15 -35 3 -5 -6 -14 -22 -20
-51 -22 -87 -44 -122 -78 -37 -35 -77 -45 -66 -17 3 9 2 12 -4 9 -6 -4 -27 -9
-46 -11 -32 -4 -35 -2 -30 13 7 17 6 17 -9 2 -13 -13 -21 -14 -41 -5 -13 6
-22 16 -20 23 3 7 -1 10 -10 6 -19 -7 -18 11 2 27 8 8 20 23 26 34 6 13 -5 7
-28 -16 -29 -27 -43 -35 -54 -28 -12 7 -10 13 10 36 l25 27 -28 -18 c-35 -23
-43 -14 -21 22 18 28 18 28 -14 -4 l-33 -31 -39 16 c-22 10 -35 21 -30 26 5 5
6 15 3 22 -3 8 -1 14 5 14 5 0 12 10 15 23 5 17 -1 13 -24 -15 -17 -21 -40
-38 -50 -38 -10 0 -19 -4 -19 -10 0 -5 -7 -10 -17 -10 -15 0 -15 1 0 18 9 10
20 34 23 53 4 19 20 60 36 92 16 33 26 57 21 54 -4 -3 -33 -53 -63 -111 -52
-100 -75 -124 -51 -53 l11 32 -20 -25 c-11 -14 -20 -31 -20 -37 0 -7 -4 -13
-9 -13 -16 0 -18 37 -4 79 22 66 10 71 -15 6 -18 -46 -20 -60 -10 -67 9 -6 7
-8 -7 -6 -17 3 -20 10 -18 48 l3 45 -19 -50 c-16 -42 -27 -53 -22 -23 0 4 3
27 5 50 3 24 7 52 11 63 4 13 1 11 -8 -5 -8 -14 -20 -49 -27 -77 -13 -55 -18
-61 -38 -41 -9 9 -12 9 -12 0 0 -13 -26 -16 -34 -4 -3 4 -1 24 3 44 5 20 5 42
0 49 -6 10 -9 5 -9 -16 0 -41 -12 -55 -38 -48 -15 4 -22 14 -23 32 -2 23 -2
24 -6 4 -5 -27 -6 -28 -46 -6 -18 9 -36 17 -42 18 -11 1 -11 13 -1 60 4 19 0
14 -10 -13 -13 -36 -19 -42 -36 -36 -37 11 -9 -15 43 -41 53 -27 58 -39 33
-90 -19 -40 -50 -63 -84 -61 -21 1 -27 8 -36 46 l-11 45 -21 -45 c-21 -46 -73
-105 -59 -67 9 24 2 21 -27 -10 -21 -23 -26 -24 -31 -11 -4 9 1 28 10 42 24
37 3 32 -41 -9 -37 -36 -58 -43 -69 -25 -3 6 -13 10 -21 10 -11 0 -10 -6 6
-28 30 -41 19 -76 -35 -107 -50 -30 -59 -31 -45 -6 19 36 10 36 -20 1 -28 -33
-30 -34 -44 -16 -14 17 -16 16 -32 -20 -10 -22 -18 -49 -19 -61 0 -11 -7 -28
-14 -37 -7 -9 -9 -16 -3 -16 5 0 22 16 38 35 15 20 33 34 38 32 6 -3 19 0 29
5 26 14 21 -5 -16 -54 -33 -43 -33 -44 -11 -43 13 0 29 6 36 13 20 20 32 14
13 -8 -22 -24 -13 -27 10 -4 11 12 13 20 5 29 -7 9 -6 16 7 26 15 12 16 12 10
-3 -4 -12 -2 -15 8 -12 7 3 15 14 18 24 3 13 0 17 -9 13 -8 -3 -14 0 -14 6 0
21 -18 11 -30 -18 -6 -16 -21 -38 -33 -48 l-21 -18 17 28 c9 15 25 39 34 55 9
15 19 29 21 32 1 2 7 -2 12 -10 7 -11 11 -12 24 0 9 7 19 10 23 7 8 -8 33 12
33 25 0 6 -8 4 -17 -3 -10 -8 -1 8 19 36 20 27 42 51 49 53 11 4 12 2 2 -9 -7
-7 -13 -21 -13 -31 0 -10 -5 -18 -11 -18 -5 0 -7 -5 -4 -11 4 -6 -1 -16 -11
-24 -11 -7 -16 -16 -12 -20 4 -4 -2 -17 -14 -29 -11 -11 -49 -58 -84 -103 -69
-88 -78 -91 -136 -51 -27 19 -68 24 -68 9 0 -5 8 -12 17 -15 14 -6 10 -13 -23
-48 l-39 -41 35 24 c19 13 40 29 45 37 9 11 16 11 38 1 34 -15 34 -21 -3 -42
-31 -19 -150 -176 -150 -199 0 -7 -11 -31 -25 -53 -30 -50 -30 -52 -1 -52 16
0 28 8 35 26 l12 26 -21 -25 c-11 -14 -20 -21 -20 -17 0 14 32 57 39 53 4 -3
13 5 21 17 12 21 12 21 -5 7 -18 -14 -18 -12 1 20 11 19 27 35 35 35 8 0 13 7
11 16 -1 9 7 24 18 34 11 10 20 24 20 32 0 7 5 13 12 13 7 0 25 12 41 28 22
20 27 22 19 7 -6 -11 -31 -39 -56 -62 -25 -23 -40 -43 -35 -45 11 -4 -9 -44
-68 -136 -19 -29 -40 -51 -46 -49 -7 2 -19 1 -28 -4 -13 -6 -18 -3 -22 12 -7
25 9 80 25 91 8 5 1 6 -15 2 l-29 -7 24 26 c38 42 75 94 55 78 -16 -13 -20
-13 -27 0 -7 11 -12 11 -22 1 -9 -9 -9 -12 0 -12 7 0 -2 -16 -19 -35 -32 -35
-66 -48 -56 -21 3 8 1 16 -5 18 -6 2 12 21 40 41 47 35 103 107 82 107 -5 0
-12 -9 -15 -20 -8 -27 -44 -34 -78 -17 l-28 15 30 22 c17 12 31 25 31 30 0 15
-73 -1 -119 -26 -71 -39 -71 -39 -71 96 0 66 4 120 9 120 5 0 11 -5 13 -12 3
-7 10 -8 17 -4 10 7 10 10 1 16 -8 5 -1 17 21 40 29 29 34 31 45 16 10 -14 7
-26 -14 -64 l-26 -47 49 47 49 48 -23 24 c-22 23 -23 30 -16 93 4 37 11 76 16
86 6 11 6 17 0 17 -18 0 -45 -52 -48 -88 -2 -34 -18 -62 -34 -62 -5 0 -3 13 6
30 22 42 18 51 -5 13 -11 -18 -24 -33 -30 -33 -15 0 -12 12 10 40 11 14 20 30
20 35 0 12 45 67 115 144 l50 55 -47 -38 c-26 -20 -68 -67 -94 -103 -27 -35
-50 -59 -52 -53 -2 6 9 26 25 43 16 18 42 50 57 72 20 28 9 20 -36 -27 -35
-38 -66 -68 -69 -68 -2 0 -5 60 -5 132 -1 73 -4 255 -7 403 -3 157 -1 277 5
288 7 14 12 15 31 5 12 -6 38 -16 58 -22 l37 -11 -49 -74 c-46 -70 -59 -101
-41 -101 4 0 17 19 29 43 11 23 37 62 57 85 20 24 36 49 36 56 0 7 14 32 31
57 l32 44 -47 -49 c-49 -51 -74 -57 -37 -9 12 15 45 57 73 93 28 36 56 68 62
72 7 5 6 8 -4 7 -22 0 -60 -36 -114 -106 -25 -34 -50 -65 -55 -67 -5 -3 -23
-1 -40 5 -31 11 -31 12 -14 28 10 9 26 20 36 24 15 5 16 4 7 -13 -18 -33 -11
-35 13 -3 12 17 41 55 63 84 44 57 71 115 42 91 -8 -6 -23 -30 -33 -52 -11
-25 -25 -40 -36 -40 -10 0 -26 -11 -35 -25 -9 -14 -20 -25 -26 -25 -5 0 5 21
22 46 36 51 36 67 0 29 -22 -23 -59 -33 -73 -19 -4 4 10 20 30 35 41 33 33 39
-12 9 -16 -11 -33 -20 -37 -20 -12 0 -6 164 6 173 7 5 5 12 -6 21 -17 12 -18
41 -18 345 0 182 -5 421 -11 531 -12 217 -8 239 35 223 12 -5 54 -7 94 -6z
m1097 -852 c71 -15 186 -117 225 -201 38 -80 39 -130 4 -190 -14 -24 -21 -44
-15 -44 6 0 18 18 27 40 9 23 19 38 23 35 11 -12 7 -155 -5 -155 -18 0 -25
-28 -8 -34 24 -9 18 -95 -10 -137 -22 -33 -31 -37 -95 -47 -38 -7 -86 -12
-106 -12 -35 0 -83 -17 -117 -42 -9 -7 -20 -10 -23 -6 -3 3 -8 104 -11 224 -2
121 -6 302 -9 403 l-4 183 47 -5 c26 -3 61 -8 77 -12z m-1245 -991 l0 -216
-65 -64 c-66 -65 -91 -79 -81 -46 5 15 -2 21 -36 31 -87 26 -91 35 -46 87 18
20 32 40 31 43 -2 3 6 6 16 6 11 0 23 4 27 8 5 4 1 5 -9 1 -13 -5 -17 -1 -17
20 0 14 -3 25 -7 25 -21 -3 -33 2 -33 15 0 9 -12 16 -27 18 -17 2 -28 9 -28
18 0 17 74 59 92 52 7 -2 20 4 30 13 16 17 16 18 -3 32 -18 15 -17 15 12 10
l31 -6 -15 44 c-14 36 -14 46 -3 59 7 9 21 16 30 16 9 0 27 12 40 25 13 14 32
25 42 25 18 0 19 -11 19 -216z m2403 -310 c16 -14 31 -24 33 -21 9 9 125 -120
159 -177 63 -103 158 -326 134 -311 -8 6 -49 87 -49 99 0 15 -107 197 -144
246 -48 65 -151 170 -166 170 -5 0 -10 5 -10 10 0 17 14 11 43 -16z m-1143
-134 c-13 -25 -2 -26 16 -3 7 10 16 14 20 10 5 -4 2 -12 -6 -18 -12 -7 -12
-11 -2 -17 10 -7 10 -11 -3 -22 -8 -7 -15 -20 -16 -29 0 -9 -3 -11 -5 -4 -3 7
0 21 6 32 6 12 9 21 6 21 -3 0 -16 -22 -30 -50 -25 -50 -25 -65 1 -32 12 15
12 13 2 -10 -7 -16 -16 -28 -21 -28 -4 0 -8 -6 -8 -14 0 -17 -18 -31 -27 -22
-3 3 0 12 6 20 7 8 10 19 7 24 -3 4 6 32 20 62 13 29 22 55 19 58 -7 7 -9 4
-44 -62 -17 -34 -27 -63 -21 -66 11 -7 2 -50 -11 -50 -5 0 -9 -6 -9 -13 0 -8
-9 -22 -20 -32 -28 -25 -45 -8 -30 29 8 21 15 26 30 21 11 -3 20 -2 20 3 0 6
-5 12 -11 14 -7 2 1 27 20 65 17 33 31 64 31 69 -1 14 -38 -37 -62 -83 -24
-48 -37 -55 -34 -19 0 13 4 22 9 19 4 -2 7 5 7 16 0 12 4 20 9 19 5 -2 22 14
39 35 17 20 32 32 34 26 2 -7 15 2 28 19 28 35 46 42 30 12z m133 -90 c1 -25
-1 -58 -5 -75 -7 -26 -5 -25 13 10 12 22 28 43 35 48 7 4 11 13 8 21 -3 7 3
19 12 27 16 12 17 12 11 -3 -12 -33 12 -19 39 22 15 22 29 40 31 40 5 0 -1
-10 -41 -71 -36 -54 -68 -110 -72 -124 -2 -5 -16 -41 -32 -80 -16 -38 -37 -97
-46 -130 -9 -33 -21 -73 -27 -90 -11 -34 -19 -93 -20 -145 0 -31 -1 -32 -8
-10 -15 52 -22 -12 -17 -159 3 -80 7 -256 10 -391 5 -245 19 -394 38 -417 8
-9 7 -13 -3 -13 -10 0 -10 -3 -3 -8 6 -4 14 -25 16 -47 7 -53 60 -231 83 -275
20 -38 68 -86 100 -99 10 -4 34 -5 53 0 38 8 71 1 125 -30 44 -25 54 -26 54
-7 0 7 -20 24 -43 37 -59 32 -65 52 -11 31 23 -9 54 -24 69 -34 14 -10 38 -18
52 -18 16 0 26 -6 26 -15 0 -17 2 -18 24 -9 9 3 16 10 16 16 0 5 -4 6 -10 3
-5 -3 -29 9 -52 27 -99 75 -114 98 -65 98 21 -1 21 -1 4 -14 -22 -17 -6 -30
24 -21 17 6 20 4 13 -6 -6 -11 -4 -11 10 0 13 11 20 11 28 3 9 -9 7 -12 -7
-13 -30 -2 61 -19 130 -25 33 -2 80 -11 105 -18 52 -16 126 -28 188 -31 43 -1
44 -1 17 13 -15 8 -38 12 -51 9 -14 -2 -27 0 -30 4 -3 5 -26 9 -52 9 -31 0
-55 7 -72 20 -27 21 -25 22 32 24 20 1 34 -3 30 -8 -3 -5 2 -6 12 -3 10 4 29
7 42 7 13 0 24 5 24 10 0 6 -15 11 -32 10 -97 0 -156 -1 -185 -4 -42 -3 -42 8
-1 25 17 7 27 14 20 17 -6 2 -29 -6 -52 -18 -50 -25 -70 -17 -39 16 27 29 15
31 -26 4 -16 -11 -38 -20 -48 -20 -16 0 -14 5 9 35 37 48 21 58 -17 11 -34
-40 -43 -40 -44 2 0 15 -3 26 -7 25 -5 -2 -13 -3 -19 -3 -8 0 -8 -5 1 -15 11
-13 8 -15 -17 -15 -16 0 -33 -4 -39 -10 -16 -16 -78 7 -115 43 -57 55 -153
279 -108 251 17 -10 135 119 159 173 38 86 52 138 62 233 13 124 14 103 -8
290 -9 72 -57 204 -94 257 -48 66 -30 79 78 57 28 -6 29 -24 2 -31 -32 -8 -18
-27 26 -36 48 -11 80 -11 119 -2 77 17 102 50 79 105 -8 18 -13 35 -11 37 2 2
23 -4 47 -12 52 -18 45 -19 70 7 l20 22 23 -22 c42 -40 133 -19 162 37 8 17
24 31 34 31 30 0 74 58 76 102 3 49 18 64 73 71 43 5 44 4 88 -51 64 -81 128
-218 168 -357 33 -116 56 -222 56 -254 -1 -34 -20 18 -36 96 -18 93 -23 108
-30 100 -5 -5 27 -187 58 -333 26 -123 -27 -528 -84 -644 -13 -25 -23 -48 -23
-52 0 -4 -7 -15 -15 -25 -9 -10 -28 -44 -43 -75 -54 -110 -197 -275 -248 -285
-15 -3 -36 -14 -45 -24 -9 -11 -21 -19 -26 -19 -4 0 -26 -18 -47 -39 -35 -35
-59 -46 -198 -91 -270 -87 -600 -124 -968 -109 -507 21 -775 27 -781 17 -3 -5
29 -8 70 -8 44 0 76 -4 76 -10 0 -6 -65 -10 -174 -10 -161 0 -174 1 -170 18
10 47 16 1022 8 1267 -4 120 2 179 17 170 5 -4 9 -2 9 3 0 6 -6 12 -14 15 -9
4 -12 22 -11 64 2 32 4 60 5 63 1 3 1 94 0 203 -2 195 -2 197 19 197 12 0 24
-7 27 -15 8 -20 34 -19 34 1 0 9 -5 12 -11 8 -7 -4 -10 -1 -7 6 10 31 35 34
66 8 l31 -26 -34 -6 c-19 -4 -37 -11 -40 -16 -8 -13 11 -13 36 0 13 8 19 7 19
0 0 -6 -12 -16 -26 -22 -23 -11 -25 -16 -19 -47 6 -33 37 -70 59 -71 4 0 5
-12 2 -26 -5 -20 0 -31 25 -55 19 -17 39 -28 48 -25 54 17 149 61 168 79 l23
20 59 -31 c54 -28 63 -30 88 -19 15 7 29 18 31 26 3 16 32 46 32 34 0 -5 -5
-14 -12 -21 -15 -15 -3 -16 23 -2 17 9 19 7 19 -16 0 -17 -6 -28 -20 -31 -11
-3 -20 -12 -20 -19 0 -25 29 -15 57 21 19 24 36 35 54 35 17 0 43 16 79 50 48
46 85 68 96 58 2 -3 3 -121 2 -264 -1 -261 1 -562 5 -774 l2 -115 33 -3 c17
-2 32 -7 32 -12 0 -4 -20 -34 -44 -66 -75 -101 -186 -193 -186 -154 0 6 6 10
13 10 8 0 23 19 33 42 10 23 29 57 41 75 37 54 11 37 -34 -24 -24 -31 -43 -62
-43 -69 0 -28 -16 -12 -38 38 -12 28 -24 49 -27 46 -6 -5 7 -49 29 -100 l16
-38 -42 -30 c-22 -17 -58 -35 -79 -42 -21 -6 -36 -14 -34 -19 7 -11 87 20 190
74 162 84 263 227 295 421 32 189 41 259 39 336 -1 93 -6 175 -9 175 -2 0 -4
25 -6 55 -5 98 -21 183 -51 265 -33 94 -91 201 -125 231 -12 12 -86 58 -163
104 -159 94 -181 110 -164 121 6 3 52 -15 103 -40 50 -26 110 -55 134 -64 27
-11 71 -45 117 -92 41 -41 77 -75 80 -75 3 0 -26 42 -64 93 -51 69 -66 98 -60
109 6 11 4 18 -7 22 -8 3 -13 2 -9 -3 13 -22 -6 -38 -37 -32 -30 6 -53 31 -29
31 6 0 11 4 11 9 0 17 45 80 55 77 11 -3 48 -66 38 -66 -3 0 1 -8 9 -17 8 -10
23 -41 33 -69 20 -58 54 -110 55 -83 0 17 -29 104 -53 159 -9 19 -23 58 -31
87 -21 67 -49 112 -113 179 -56 57 -61 64 -40 64 21 0 197 -189 197 -212 0 -4
7 -5 16 -1 15 5 15 7 0 15 -21 12 -67 106 -56 113 5 3 7 12 3 20 -3 8 -1 15 3
15 10 0 56 -95 61 -125 2 -11 12 -32 24 -48 11 -15 17 -32 14 -37 -4 -6 10
-44 30 -86 41 -84 41 -108 0 -44 -29 46 -41 48 -25 4 12 -31 118 -194 127
-194 11 0 -9 54 -31 84 -33 44 -39 56 -27 56 6 0 22 -21 37 -46 l27 -47 15 48
c14 43 14 48 -1 57 -9 5 -17 16 -17 24 0 8 -4 13 -9 9 -9 -5 -31 24 -31 39 0
2 15 2 33 -1 31 -5 34 -2 50 34 40 92 82 221 99 301 11 57 13 61 20 35 5 -15
9 -48 11 -73z m297 10 c-12 -16 -16 -30 -10 -30 6 0 9 -4 5 -10 -3 -5 -12 -7
-19 -4 -8 3 -17 0 -22 -7 -4 -8 -3 -10 4 -5 20 12 13 -3 -13 -31 -13 -15 -28
-24 -32 -19 -4 4 -1 11 7 16 13 8 12 10 -2 10 -10 0 -18 -4 -18 -8 0 -5 -7
-17 -16 -28 -8 -10 -12 -13 -8 -5 9 19 -10 6 -55 -34 -42 -38 -54 -66 -33 -81
14 -10 13 -16 -8 -50 -13 -21 -16 -32 -7 -24 14 14 57 85 57 95 0 2 -8 2 -17
-2 -15 -5 -14 -3 2 10 12 10 15 16 7 17 -17 0 -7 17 18 30 13 7 21 7 26 -2 4
-6 3 -8 -3 -5 -6 4 -16 0 -22 -7 -21 -25 8 -30 30 -5 31 36 22 10 -12 -32 -30
-38 -31 -40 -14 -65 14 -22 15 -28 4 -35 -10 -6 -10 -9 -2 -9 6 0 15 5 19 11
4 7 10 7 16 1 14 -14 -43 -130 -83 -167 -19 -18 -33 -25 -36 -18 -2 6 -13 21
-24 34 -27 31 -34 64 -21 107 7 21 13 53 16 73 8 78 84 185 151 214 17 7 50
31 75 53 53 49 70 54 40 12z m-13 -316 c-13 -38 -34 -68 -220 -330 -96 -136
-123 -190 -123 -246 1 -21 -2 -38 -6 -38 -4 0 -9 -10 -11 -22 -3 -13 -4 3 -2
35 1 31 -1 57 -5 57 -10 0 -19 48 -13 71 9 34 24 20 17 -16 -4 -21 -2 -35 4
-35 5 0 12 14 16 31 5 24 1 35 -17 50 -15 12 -18 21 -11 26 6 5 14 18 18 30 4
12 32 38 62 58 58 39 85 72 162 194 26 41 61 89 79 105 17 17 33 38 35 46 3
15 20 32 26 26 1 -2 -3 -21 -11 -42z m-924 -51 c18 -10 34 -21 35 -25 2 -5 10
-8 17 -8 23 0 24 -26 3 -59 -11 -17 -23 -30 -25 -27 -3 3 5 19 17 35 12 17 17
31 11 31 -6 0 -24 -19 -41 -42 -16 -22 -30 -36 -30 -31 0 6 9 22 20 36 11 14
20 31 20 38 0 7 -18 -14 -41 -45 -23 -32 -38 -60 -34 -64 3 -3 10 0 15 8 17
27 10 -1 -7 -31 -10 -16 -24 -29 -32 -29 -11 0 -10 3 4 14 12 8 16 19 12 30
-5 11 6 40 28 77 39 66 45 91 17 66 -10 -10 -22 -14 -25 -10 -4 3 -7 -1 -7
-11 0 -9 -11 -34 -25 -56 -14 -22 -25 -46 -25 -53 0 -7 -5 -18 -10 -23 -6 -6
-12 -21 -15 -33 -5 -26 -43 -63 -59 -58 -20 7 -17 33 6 59 60 67 104 135 120
187 7 23 14 41 16 41 2 0 18 -8 35 -17z m833 -323 c51 -98 75 -184 81 -293 8
-135 -7 -197 -60 -242 -41 -35 -149 -95 -171 -95 -27 0 -34 301 -11 433 20
113 91 273 117 265 6 -2 26 -33 44 -68z"/>
<path d="M9388 7305 c-26 -14 -60 -25 -75 -25 -54 -1 -153 -122 -153 -186 0
-10 -10 -12 -43 -8 -39 6 -46 3 -68 -22 -21 -25 -31 -29 -79 -29 -46 0 -56 -3
-65 -22 -7 -12 -24 -32 -38 -43 -39 -31 -36 -66 8 -91 19 -12 35 -24 35 -28 0
-3 -9 -30 -19 -59 -19 -51 -19 -52 0 -52 10 0 19 -4 19 -9 0 -12 -54 -22 -58
-10 -5 13 -32 11 -32 -1 0 -6 -12 -22 -27 -35 -16 -13 -25 -27 -21 -31 5 -4
17 1 28 11 17 15 24 16 45 7 23 -11 27 -9 35 12 7 19 28 36 46 36 2 0 4 -8 4
-18 0 -25 45 -68 55 -52 4 6 -1 18 -11 26 -17 13 -18 15 -3 27 13 10 17 34 10
67 -1 3 -10 -6 -21 -20 -18 -24 -20 -24 -36 -8 -15 15 -15 19 -4 33 8 9 13 32
12 51 -2 19 5 48 13 65 9 17 14 34 10 37 -6 6 -20 -11 -28 -33 -2 -6 -14 -4
-31 4 -36 20 -31 51 11 71 23 11 31 20 27 32 -8 26 37 34 77 14 40 -20 51 -20
47 0 -2 9 9 25 23 36 22 16 30 18 48 9 27 -15 32 -12 54 33 9 20 25 52 35 72
11 24 26 37 44 41 14 3 25 10 22 17 -5 15 59 46 96 46 19 0 30 5 30 14 0 28
54 35 82 9 10 -9 18 -11 18 -5 0 14 -40 42 -60 42 -8 0 -36 -11 -62 -25z"/>
<path d="M9477 7250 c30 -12 56 -55 49 -78 -5 -15 -1 -21 22 -25 19 -4 33 -16
45 -41 18 -39 39 -45 71 -21 11 8 28 15 38 15 9 0 32 13 50 29 77 66 134 72
160 15 11 -23 9 -28 -11 -43 l-24 -18 47 -46 c25 -26 46 -50 46 -55 0 -4 -9
-18 -20 -30 -24 -26 -15 -30 12 -5 25 23 32 11 8 -15 -11 -12 -20 -25 -20 -29
0 -5 -9 -15 -20 -23 -11 -8 -20 -18 -20 -23 0 -5 13 1 29 12 24 17 31 18 46 7
18 -13 23 -56 10 -96 -3 -11 -2 -20 3 -20 15 0 34 28 27 40 -4 6 -4 22 -1 36
5 19 13 24 36 24 17 0 30 4 30 9 0 4 -15 7 -34 6 -33 -3 -34 -2 -18 16 27 32
78 17 65 -19 -9 -23 50 -8 91 23 26 20 44 25 89 25 70 0 107 -13 107 -39 0
-11 -4 -23 -10 -26 -21 -13 -10 -43 20 -54 37 -12 37 -18 4 -53 l-27 -27 30
-28 30 -28 -21 -16 c-12 -9 -32 -20 -46 -24 -23 -7 -23 -7 -7 9 21 21 22 27 3
20 -8 -3 -27 -22 -43 -42 -15 -20 -43 -50 -63 -66 -64 -55 -133 -126 -127
-132 3 -3 18 1 35 10 16 8 32 13 35 10 3 -3 19 2 37 11 18 9 34 14 38 11 3 -3
0 -6 -6 -6 -7 0 -12 -5 -12 -10 0 -7 6 -7 20 0 10 6 17 16 14 23 -2 7 9 21 26
30 17 10 38 29 46 43 11 17 26 24 47 24 29 0 29 1 14 18 -22 25 -21 31 8 54
17 13 23 24 17 32 -20 24 -22 66 -6 91 18 28 11 61 -16 70 -14 4 -20 17 -22
48 -4 49 -26 64 -107 74 -44 5 -55 2 -97 -26 -56 -37 -58 -37 -91 -11 -14 11
-33 20 -42 20 -10 0 -27 -9 -39 -20 -12 -11 -24 -20 -27 -20 -5 0 -1 27 11 72
3 11 -13 35 -45 67 -47 47 -49 52 -40 83 14 49 12 55 -25 77 -47 29 -82 26
-125 -9 -20 -17 -41 -35 -47 -40 -7 -5 -16 -4 -22 2 -8 8 -17 4 -32 -15 -27
-34 -57 -35 -69 -3 -5 13 -22 32 -37 43 -15 11 -32 35 -38 54 -9 29 -16 34
-46 36 -30 2 -32 1 -13 -7z"/>
<path d="M8813 6810 c-28 -25 -35 -27 -61 -18 -40 15 -79 3 -96 -31 -8 -15
-26 -36 -40 -45 -15 -9 -26 -23 -26 -31 0 -19 -14 -19 -30 0 -7 8 -23 15 -36
15 -27 0 -148 -52 -158 -68 -8 -13 16 -108 31 -123 7 -7 19 -9 29 -5 15 6 14
10 -9 34 -29 30 -35 73 -14 89 18 14 100 43 121 43 10 0 30 -7 46 -16 26 -16
28 -16 49 5 11 11 30 21 41 21 18 0 19 3 9 21 -26 49 37 97 86 65 32 -21 42
-20 48 4 3 11 19 28 36 37 17 10 31 21 31 26 0 15 -26 5 -57 -23z"/>
<path d="M9551 3680 c-1 -36 -8 -93 -16 -128 -8 -34 -14 -66 -13 -70 1 -4 -5
-20 -12 -37 -7 -16 -12 -34 -11 -38 1 -4 -5 -18 -14 -30 -8 -12 -15 -32 -15
-45 0 -15 -21 -43 -59 -81 -44 -44 -56 -61 -45 -65 9 -3 37 13 70 39 30 25 63
45 73 45 10 0 21 3 25 7 3 4 23 12 43 19 32 11 41 10 87 -12 28 -13 71 -35 95
-49 46 -26 81 -32 81 -15 0 6 -11 10 -24 10 -13 0 -41 14 -62 31 -22 17 -54
38 -71 45 -18 8 -33 21 -33 29 0 8 -6 26 -12 41 l-13 27 -5 -23 c-7 -31 -30
-38 -30 -10 0 19 -2 20 -15 10 -14 -11 -15 -4 -10 61 3 41 7 101 10 134 2 33
-2 85 -10 115 l-13 55 -1 -65z"/>
<path d="M9460 3514 c-6 -14 -10 -34 -10 -45 0 -12 -5 -19 -11 -17 -7 2 -35
-20 -63 -50 -39 -42 -78 -68 -168 -113 -65 -32 -149 -70 -188 -83 -71 -24 -95
-36 -69 -36 20 1 130 38 143 50 26 21 183 69 214 65 28 -4 34 0 43 22 5 14 31
54 58 87 26 34 52 80 58 104 12 47 8 56 -7 16z"/>
<path d="M12485 7933 c-281 -5 -225 -30 85 -38 200 -5 253 1 258 28 3 15 -7
17 -90 15 -51 -1 -165 -4 -253 -5z"/>
<path d="M12650 7225 c-79 -20 -212 -83 -204 -97 4 -7 3 -8 -4 -4 -7 4 -20 2
-29 -4 -16 -10 -16 -11 2 -5 24 8 19 2 -65 -60 -61 -46 -64 -43 -15 14 l20 25
-32 -20 c-17 -10 -46 -37 -62 -59 -17 -22 -48 -61 -69 -87 -159 -200 -234
-574 -162 -813 12 -38 22 -81 24 -95 2 -27 149 -325 165 -334 5 -4 17 -28 27
-54 10 -26 25 -58 34 -72 9 -14 33 -54 52 -90 19 -36 86 -158 147 -273 l113
-207 -17 -103 c-10 -56 -23 -109 -31 -118 -10 -11 -11 -18 -3 -26 9 -9 7 -33
-5 -94 -11 -57 -13 -86 -6 -93 5 -5 10 -21 11 -35 0 -26 1 -26 11 -4 10 20 18
22 102 22 50 0 113 3 140 6 41 5 47 3 42 -10 -6 -17 13 -55 27 -55 5 0 6 9 2
20 -5 16 -3 19 12 14 10 -4 23 -13 30 -22 7 -8 19 -12 29 -8 9 3 23 1 30 -5
12 -10 13 -8 8 5 -6 15 0 17 55 13 33 -2 61 0 61 5 0 15 52 30 60 18 4 -7 36
-14 71 -17 62 -6 80 7 20 13 -16 2 -42 15 -57 29 l-27 25 31 0 c29 0 58 -20
30 -20 -8 0 -7 -4 4 -10 27 -16 153 -17 144 -1 -8 12 27 20 121 28 78 6 81 7
56 20 -20 10 -51 12 -127 7 -56 -4 -110 -6 -121 -5 -11 0 -28 1 -37 2 -31 1
-35 15 -68 237 -10 70 -21 134 -25 143 -4 10 22 70 66 155 113 217 170 335
282 579 87 191 104 228 112 255 4 14 11 30 15 35 13 18 68 218 80 294 31 191
-47 462 -185 640 -58 76 -160 170 -205 188 -76 30 -130 57 -130 64 0 8 -18 16
-85 36 -72 21 -391 27 -465 8z m467 -65 c139 -40 269 -106 260 -133 -1 -5 -23
-16 -47 -23 -42 -12 -47 -12 -88 12 -24 15 -68 48 -98 75 -30 27 -58 49 -62
49 -11 -1 99 -99 146 -130 24 -15 39 -30 35 -32 -10 -6 -40 -14 -293 -87 -113
-32 -243 -75 -290 -96 l-85 -37 -20 28 c-21 29 -135 165 -166 199 -14 15 -19
16 -19 5 0 -8 17 -33 38 -55 61 -65 142 -166 142 -177 0 -6 -7 -8 -15 -4 -12
4 -13 2 -3 -14 10 -15 9 -22 -4 -37 -43 -48 -116 -233 -158 -400 -9 -35 -23
-52 -82 -100 -39 -32 -100 -82 -136 -112 -39 -32 -67 -50 -73 -44 -5 5 -11 28
-13 51 -2 23 -10 49 -17 58 -18 21 -24 291 -7 311 6 7 7 13 2 13 -5 0 -3 4 4
8 7 5 14 22 16 38 8 59 69 212 122 307 45 79 59 97 78 97 13 0 29 -7 36 -15 6
-8 58 -46 113 -85 74 -51 89 -59 57 -30 -25 22 -80 64 -122 93 -43 29 -77 55
-78 59 0 15 160 123 235 158 204 95 383 110 592 50z m345 -211 c22 -23 37 -47
34 -54 -2 -7 9 -25 24 -40 16 -16 27 -32 24 -37 -3 -5 -2 -8 3 -7 20 3 27 -2
13 -11 -12 -7 -12 -12 4 -29 10 -11 23 -18 27 -15 13 8 11 -20 -2 -33 -8 -8
-6 -19 6 -39 9 -16 14 -21 11 -11 -4 12 -2 17 6 15 7 -3 13 -11 14 -19 0 -8 6
-27 13 -44 34 -81 34 -460 -1 -481 -6 -4 -24 8 -39 27 -36 43 -129 228 -167
334 -48 132 -161 406 -172 420 -13 16 11 32 80 51 70 19 81 17 122 -27z m-242
-41 c0 -18 -5 -67 -10 -108 -6 -41 -12 -126 -15 -189 -3 -63 -6 -116 -8 -118
-2 -2 -16 19 -31 46 -30 56 -112 134 -165 158 -26 12 -66 17 -141 17 -96 1
-110 -1 -160 -27 -103 -53 -134 -94 -171 -230 -24 -83 -27 -139 -12 -197 7
-25 14 -57 17 -71 9 -42 99 -152 147 -178 68 -38 264 -41 277 -3 2 8 -9 10
-40 7 -24 -3 -67 -8 -96 -11 -42 -5 -59 -2 -88 15 -19 12 -39 19 -44 16 -15
-9 -100 86 -100 111 0 13 -4 24 -9 24 -5 0 -10 17 -10 38 -7 166 -7 261 0 256
5 -3 9 0 9 5 0 12 46 65 126 147 64 65 116 79 226 64 40 -6 75 -14 78 -18 3
-5 21 -18 41 -30 38 -23 114 -128 129 -179 l8 -28 1 30 c1 20 4 26 9 17 15
-23 31 86 38 257 6 137 9 162 19 147 17 -22 112 -248 164 -389 22 -60 61 -147
86 -194 25 -48 44 -88 42 -89 -1 -2 -57 33 -122 77 -66 45 -141 92 -167 105
-27 13 -48 30 -48 36 0 6 -3 8 -7 4 -4 -4 -10 -40 -14 -80 -4 -50 -14 -91 -32
-128 -15 -30 -27 -65 -27 -77 0 -22 1 -21 24 6 32 38 58 116 60 180 0 29 6 53
11 53 9 0 71 -39 298 -186 37 -24 67 -50 67 -57 0 -6 -98 -61 -218 -121 -119
-60 -287 -152 -373 -203 -86 -51 -161 -93 -167 -93 -6 0 -32 33 -58 73 -25 39
-75 104 -111 142 -95 103 -95 103 -85 106 5 2 -16 38 -48 80 -65 87 -82 122
-53 113 14 -5 15 -4 4 4 -8 6 -12 19 -8 31 3 12 1 21 -4 21 -5 0 -9 -6 -10
-12 0 -10 -2 -10 -6 0 -2 6 -9 9 -15 6 -6 -4 -9 -1 -6 7 2 7 14 16 25 19 16 4
19 13 18 45 -2 43 40 185 82 275 30 67 57 97 103 116 49 21 282 103 355 125
33 10 89 29 125 43 85 33 90 32 90 -6z m-759 -765 c67 -100 129 -181 199 -263
31 -36 69 -83 85 -104 24 -33 25 -38 9 -32 -10 5 -41 16 -69 26 -51 18 -332
153 -305 146 8 -2 26 -6 40 -10 21 -5 20 -3 -5 9 -16 7 -38 12 -47 9 -16 -5
-58 10 -191 70 l-48 21 133 102 c73 57 136 103 140 103 4 0 31 -35 59 -77z
m1149 -67 c0 -7 -64 -154 -101 -231 -18 -38 -33 -72 -33 -75 -1 -3 -9 -22 -20
-44 -14 -30 -20 -36 -28 -25 -8 11 -9 10 -4 -4 5 -15 -76 -189 -124 -267 -5
-8 -29 -60 -54 -115 -97 -218 -148 -315 -189 -362 -10 -12 -16 -26 -13 -31 3
-6 2 -12 -2 -14 -17 -7 -70 -95 -83 -137 -7 -24 -21 -48 -31 -55 -22 -13 -24
-28 -3 -20 11 5 13 2 9 -10 -3 -9 -10 -16 -16 -16 -5 0 -7 -4 -4 -9 3 -4 -2
-17 -10 -27 -15 -18 -15 -18 -11 3 3 13 2 25 -3 28 -7 4 -4 97 4 138 2 9 0 17
-4 17 -5 0 -8 62 -8 138 0 116 3 142 19 168 11 17 19 38 19 45 -1 8 -8 1 -16
-14 -8 -15 -20 -25 -26 -21 -14 9 -3 102 16 123 7 9 17 27 21 39 4 13 15 32
26 43 10 10 28 37 39 61 17 36 18 39 3 22 -10 -12 -25 -32 -33 -44 -8 -13 -25
-35 -36 -49 -12 -14 -24 -36 -28 -49 -13 -41 -26 -11 -26 62 0 44 5 77 13 85
10 10 9 12 -3 9 -26 -5 -16 95 11 116 8 6 25 27 36 46 12 19 45 57 72 85 28
27 51 55 51 61 0 7 7 15 16 18 9 4 14 9 11 12 -9 10 -45 -19 -40 -33 3 -7 0
-13 -6 -13 -6 0 -11 5 -11 11 0 5 -4 7 -10 4 -5 -3 -10 -11 -10 -16 0 -6 5 -7
10 -4 20 12 9 -2 -35 -48 -25 -26 -56 -65 -70 -87 -14 -22 -29 -40 -34 -40 -5
0 -9 30 -8 67 l2 67 42 25 c139 85 186 113 258 151 44 24 94 51 111 61 18 10
35 15 39 11 3 -4 11 1 16 10 5 9 33 22 64 29 30 7 62 20 71 31 10 10 25 18 36
18 10 0 17 3 16 8 -2 4 -1 7 2 8 3 0 16 7 30 14 14 8 28 13 33 12 4 -1 7 3 7
8 0 6 7 10 15 10 8 0 15 -2 15 -4z m-1231 -195 c135 -60 260 -115 276 -121 17
-6 59 -24 95 -41 l65 -30 0 -57 c0 -31 8 -203 18 -382 22 -405 26 -550 15
-556 -4 -3 -1 -12 7 -20 8 -9 15 -20 15 -25 0 -19 -16 -8 -38 27 -18 28 -21
39 -11 44 9 6 4 18 -19 46 -18 21 -32 43 -32 48 0 5 -18 35 -40 67 -22 32 -82
134 -134 226 -51 93 -116 208 -145 257 -28 49 -51 91 -51 93 0 2 -13 23 -29
46 -16 23 -77 139 -137 257 -126 248 -118 230 -108 230 4 0 118 -49 253 -109z"/>
<path d="M13814 5853 c10 -105 22 -168 35 -191 7 -13 10 -30 7 -38 -3 -8 -2
-14 2 -14 4 0 8 -20 8 -44 1 -24 9 -58 18 -76 8 -18 13 -36 10 -41 -3 -5 1
-23 10 -39 14 -29 25 -68 31 -113 1 -12 8 -44 15 -72 6 -27 13 -54 14 -60 1
-5 4 -14 8 -20 3 -5 9 -34 12 -63 3 -30 10 -61 15 -70 4 -10 11 -36 15 -59 3
-23 9 -48 12 -57 3 -9 2 -16 -4 -16 -6 0 -15 12 -21 28 -11 26 -11 26 -7 2 5
-40 76 -354 83 -370 3 -8 5 -18 5 -22 -1 -5 2 -8 7 -8 6 0 7 -17 5 -37 -4 -26
-3 -34 4 -24 7 10 11 6 15 -15 3 -16 8 -40 11 -54 4 -14 8 -38 11 -55 7 -44
10 -56 23 -95 6 -19 23 -91 37 -160 36 -173 70 -324 186 -825 54 -233 83 -345
104 -397 7 -17 -17 -18 -376 -19 -211 0 -395 -1 -409 -2 -14 0 -64 0 -111 1
l-86 2 -22 118 c-44 234 -50 268 -56 317 -3 28 -7 61 -9 75 -2 14 -6 48 -10
75 -7 56 -30 176 -52 275 -8 36 -14 82 -14 102 0 40 -13 56 -33 40 -16 -13
-417 7 -417 21 0 5 -7 4 -16 -4 -9 -7 -18 -9 -22 -3 -4 5 -23 10 -42 11 -57 4
-181 -8 -175 -17 3 -4 23 -6 45 -3 26 4 40 2 40 -6 0 -7 -19 -11 -50 -11 -30
0 -50 4 -50 11 0 7 -10 9 -27 5 -72 -18 -148 -24 -155 -13 -5 8 -8 6 -8 -5 0
-10 -5 -18 -10 -18 -6 0 -9 -3 -8 -7 0 -5 -2 -15 -5 -23 -4 -8 -21 -64 -38
-125 -17 -60 -37 -121 -44 -135 -7 -14 -34 -110 -60 -215 -25 -104 -49 -199
-52 -210 -4 -14 -2 -17 6 -10 6 6 19 46 30 89 11 43 22 80 25 84 19 18 13 -23
-24 -168 -7 -25 -13 -63 -15 -85 -2 -22 -10 -70 -16 -107 l-12 -68 -65 0 c-85
0 -243 20 -259 33 -9 6 -13 6 -13 -3 0 -8 -4 -9 -12 -3 -8 5 -140 8 -310 7
-168 -1 -298 2 -298 7 0 5 15 71 34 146 55 218 85 345 92 388 4 22 10 45 14
50 3 6 12 42 19 80 12 63 28 128 47 193 4 12 1 28 -6 37 -7 8 -8 15 -3 15 5 0
17 44 27 98 9 53 33 167 53 252 19 85 37 173 38 195 2 22 3 48 4 58 1 9 5 17
10 17 4 0 7 -15 5 -32 -8 -74 29 34 42 122 2 19 11 60 19 89 10 37 11 59 4 67
-6 8 -6 13 0 16 11 4 24 50 24 91 0 15 4 27 9 27 4 0 6 14 3 30 -3 19 -1 30 6
30 6 0 9 9 6 20 -3 13 0 20 9 20 8 0 14 5 14 10 0 6 -6 10 -12 10 -10 0 -10 2
-1 8 14 9 22 42 54 217 6 33 15 69 19 80 5 11 16 58 26 105 9 47 25 119 36
160 11 41 20 82 20 90 0 8 7 46 14 83 8 38 14 83 14 100 0 18 6 44 14 59 16
30 28 100 16 93 -18 -11 -85 -261 -135 -500 -37 -178 -66 -308 -91 -401 -14
-55 -31 -120 -36 -147 -8 -35 -14 -45 -23 -37 -14 11 -25 3 -25 -18 0 -8 6
-12 15 -8 8 3 15 1 15 -4 0 -5 -10 -11 -22 -13 l-23 -4 23 -2 c24 -1 25 -6 11
-36 -9 -18 -9 -18 -5 3 3 15 0 22 -7 19 -7 -2 -11 -11 -11 -20 1 -9 -3 -14 -8
-11 -6 4 -8 -2 -4 -14 4 -11 1 -31 -6 -43 -10 -17 -10 -23 0 -26 6 -3 12 -9
12 -14 0 -6 -4 -8 -8 -5 -4 2 -9 -16 -10 -42 -1 -25 -13 -91 -28 -147 -14 -55
-34 -138 -44 -185 -63 -290 -107 -466 -109 -435 -1 21 14 90 49 235 43 172 86
488 64 467 -9 -9 -11 -16 -18 -101 -7 -83 -33 -207 -46 -220 -14 -14 -13 0 9
96 20 86 32 283 18 306 -5 6 -4 12 1 12 5 0 9 15 8 33 -1 17 4 59 12 92 20 86
20 89 21 103 1 6 9 12 19 13 10 0 12 3 5 6 -7 2 -13 9 -13 14 0 4 7 6 15 3 8
-4 15 -1 15 5 0 6 -5 11 -12 11 -7 0 -6 5 4 13 16 13 32 87 19 87 -11 0 12
147 44 280 22 95 39 185 52 265 2 17 13 75 24 130 26 124 32 226 13 201 -7
-10 -18 -41 -24 -69 -20 -90 -61 -269 -80 -347 -10 -41 -26 -133 -35 -205 -15
-112 -115 -556 -160 -710 -8 -27 -19 -79 -25 -115 -12 -81 -11 -73 -58 -260
-22 -85 -47 -195 -56 -245 -9 -49 -32 -146 -51 -215 -60 -220 -107 -476 -101
-550 4 -51 1 -78 -14 -119 -19 -52 -19 -77 1 -66 5 4 9 16 9 28 1 12 7 33 14
46 13 24 14 24 21 -20 4 -24 14 -56 21 -71 8 -15 14 -38 14 -51 0 -13 7 -32
15 -43 8 -10 15 -26 15 -35 0 -27 59 -45 125 -38 33 4 100 7 148 8 57 1 86 5
82 11 -4 7 26 10 90 9 52 -1 98 -6 101 -10 2 -5 105 -6 228 -3 211 6 224 5
231 -13 6 -17 8 -16 16 5 7 20 13 22 49 16 27 -4 40 -3 40 5 0 6 -13 11 -30
11 -35 0 -34 -6 -14 80 l17 69 91 -4 c50 -3 114 -9 141 -14 47 -9 320 -9 357
1 50 12 18 18 -96 15 -70 -2 -132 1 -139 5 -7 4 8 8 33 8 25 0 52 5 60 10 10
7 -18 8 -85 4 -113 -7 -146 -8 -262 -6 l-83 2 0 31 c0 24 4 29 18 25 83 -23
150 -28 320 -22 100 4 188 9 195 11 13 4 198 17 234 16 12 0 24 3 28 8 3 5 15
7 28 4 17 -3 18 -2 7 5 -10 6 -42 6 -90 0 -108 -13 -547 -20 -600 -9 -34 7 10
9 180 11 298 4 297 4 306 13 4 4 -106 7 -244 7 -156 0 -253 4 -257 10 -4 6 34
10 107 11 62 1 102 4 88 8 -42 12 0 21 61 13 30 -4 61 -6 69 -6 8 1 82 2 164
3 82 0 147 3 145 5 -13 12 -650 31 -648 19 4 -23 -3 -33 -23 -33 -18 0 -20 -2
-8 -10 12 -7 11 -10 -5 -16 -11 -5 -20 -3 -23 4 -2 6 -10 8 -18 5 -9 -3 -14 1
-14 11 0 9 7 19 16 23 10 4 12 8 5 12 -7 5 -6 31 4 86 8 44 17 92 19 107 3 15
9 44 15 65 5 21 12 74 16 118 4 44 10 85 15 90 4 6 15 49 25 96 l18 86 46 -2
c25 -1 178 -3 339 -4 l292 -1 0 -24 c0 -33 20 -86 33 -86 6 0 3 -6 -7 -13 -15
-11 -16 -17 -7 -35 6 -11 11 -31 11 -44 0 -18 2 -20 10 -8 5 8 10 11 11 5 0
-5 2 -20 5 -33 2 -14 0 -21 -6 -17 -15 10 -12 -15 5 -31 10 -11 13 -27 9 -57
-3 -23 0 -62 6 -87 15 -60 32 -155 39 -216 0 -6 21 -37 46 -69 34 -44 43 -60
33 -67 -10 -6 -8 -11 7 -20 29 -17 125 -121 125 -135 0 -8 -12 -13 -29 -13
-44 0 -47 -18 -3 -19 20 -1 192 -3 382 -4 622 -4 700 -6 705 -19 2 -7 11 -39
20 -70 9 -32 20 -58 25 -58 9 0 4 33 -10 65 -5 11 -11 43 -13 70 -3 28 -19
106 -36 175 -18 69 -34 136 -35 150 -2 14 -9 37 -15 53 -16 41 -39 135 -71
297 -16 80 -40 195 -54 255 -50 213 -56 240 -57 285 -1 25 -6 50 -11 57 -6 7
-6 22 -2 35 6 20 5 21 -10 9 -14 -12 -16 -11 -16 7 0 11 -3 28 -6 36 -5 13 -2
15 12 9 18 -6 18 -6 1 14 -28 32 -69 213 -48 213 6 0 11 5 11 11 0 5 -4 7 -10
4 -6 -3 -7 1 -4 10 6 14 -7 78 -23 125 -3 8 -7 29 -9 45 -2 17 -9 41 -14 55
-6 14 -12 47 -13 73 -1 26 -6 47 -10 47 -5 0 -6 4 -3 8 3 5 -2 21 -9 36 -8 16
-12 33 -9 38 4 6 2 13 -4 17 -6 4 -14 22 -16 41 -6 40 -8 49 -24 105 -10 37
-18 79 -27 148 -2 15 -11 53 -19 85 -20 77 -46 182 -52 212 -3 14 -12 45 -20
69 -19 57 -94 354 -94 374 0 8 -7 18 -16 21 -14 5 -15 -1 -10 -51z"/>
<path d="M6291 3087 c-16 -18 -52 -62 -80 -99 -46 -60 -49 -68 -33 -77 14 -9
13 -10 -11 -11 -17 0 -26 -4 -22 -10 4 -6 22 -9 40 -8 19 1 37 -1 41 -5 4 -4
-2 -7 -12 -7 -11 0 -29 -7 -40 -16 -18 -14 -15 -15 36 -9 30 4 88 8 128 11 76
4 92 8 92 26 0 7 -4 7 -13 0 -10 -8 -21 -7 -41 4 -18 9 -33 11 -40 5 -6 -5
-29 -12 -51 -15 -39 -6 -39 -6 -10 5 17 7 33 16 36 21 3 5 25 12 47 15 68 9
38 20 -48 18 -80 -1 -117 6 -85 19 9 3 120 9 246 13 235 6 297 23 90 23 -63 0
-111 3 -107 7 9 10 10 10 129 11 63 1 96 6 92 12 -3 6 -42 10 -86 10 -51 0
-78 4 -74 10 3 6 39 10 78 10 57 1 68 3 53 12 -11 6 -74 10 -157 10 -146 -1
-192 11 -65 16 41 2 96 7 123 12 l48 8 -70 2 c-38 2 -101 4 -138 6 -65 3 -69
2 -96 -29z"/>
<path d="M15943 2883 c-32 -6 -29 -29 5 -38 50 -13 582 -18 582 -5 0 6 -5 8
-10 5 -6 -4 -17 -1 -25 5 -8 6 -20 8 -26 4 -8 -5 -9 -3 -4 6 6 10 1 11 -21 6
-38 -10 -218 -15 -203 -6 7 5 8 10 1 14 -5 3 -12 -1 -15 -8 -6 -15 -38 -16
-68 -2 -9 4 -20 6 -25 5 -21 -4 -35 2 -29 11 6 10 -115 12 -162 3z"/>
<path d="M12660 2864 c0 -11 -5 -14 -17 -9 -33 14 -333 10 -333 -4 0 -17 68
-24 255 -25 146 -1 360 7 382 13 1 1 0 7 -3 15 -4 11 -15 13 -37 9 -38 -8
-247 -13 -229 -6 17 7 15 23 -3 23 -8 0 -15 -7 -15 -16z"/>
</g>
</svg>
