<?xml version="1.0" standalone="no"?>
<!DOCTYPE svg PUBLIC "-//W3C//DTD SVG 20010904//EN"
 "http://www.w3.org/TR/2001/REC-SVG-20010904/DTD/svg10.dtd">
<svg version="1.0" xmlns="http://www.w3.org/2000/svg"
 width="1928.000000pt" height="1074.000000pt" viewBox="0 0 1928.000000 1074.000000"
 preserveAspectRatio="xMidYMid meet">
<metadata>
Created by potrace 1.16, written by Peter Selinger 2001-2019
</metadata>
<g transform="translate(0.000000,1074.000000) scale(0.100000,-0.100000)"
fill="#000000" stroke="none">
<path d="M14560 8014 c0 -5 9 -20 20 -34 28 -35 25 -48 -12 -53 -31 -4 -31 -4
6 -5 36 -2 38 -3 33 -29 -3 -16 -8 -291 -12 -613 -4 -322 -8 -632 -10 -690 -4
-149 -4 -143 0 -1125 2 -583 -1 -894 -7 -902 -7 -9 -7 -13 0 -13 7 0 10 -153
11 -467 0 -258 1 -572 3 -700 3 -223 2 -232 -17 -237 -10 -3 -27 2 -37 11 -16
15 -18 15 -18 0 0 -9 6 -19 13 -24 12 -7 17 -9 50 -11 9 -1 17 -10 17 -21 0
-10 6 -18 13 -17 6 0 12 -3 12 -9 0 -5 -3 -9 -7 -8 -4 2 -4 -5 -1 -14 4 -11 3
-14 -5 -9 -7 4 -12 3 -12 -1 0 -10 37 -43 48 -43 16 0 93 -84 88 -96 -4 -9 2
-13 17 -11 18 2 29 -11 60 -72 32 -64 37 -83 37 -144 0 -78 9 -84 16 -10 3 26
9 64 14 83 l9 35 148 -3 c82 -2 149 -8 151 -13 4 -9 284 -3 337 8 33 6 212 12
380 13 75 0 105 3 95 10 -8 5 -38 10 -67 10 -61 0 -83 7 -83 26 0 8 -7 14 -15
14 -8 0 -14 -6 -12 -12 1 -7 -9 -14 -23 -16 -19 -3 -22 -1 -13 10 6 7 11 44
12 83 1 38 3 71 5 73 2 2 57 -2 122 -8 195 -18 204 -19 204 -10 0 4 -32 10
-72 12 -44 2 -73 9 -76 16 -3 9 -26 10 -88 6 -72 -6 -84 -5 -90 10 -11 28 3
48 25 37 10 -6 55 -12 100 -13 60 -2 80 -6 78 -16 -1 -10 33 -14 158 -18 88
-2 179 -4 202 -4 23 1 44 -3 47 -8 3 -5 20 -9 39 -10 31 -1 34 1 31 24 -2 21
8 15 78 -48 45 -40 97 -87 117 -105 20 -17 34 -33 31 -36 -3 -3 -66 -8 -140
-12 -74 -3 -136 -8 -139 -10 -5 -6 154 -10 246 -7 l61 2 53 -100 c29 -55 54
-98 56 -96 3 2 -12 39 -31 81 -20 43 -36 84 -36 92 0 24 34 -2 80 -62 23 -30
45 -53 48 -50 3 3 -9 23 -26 44 -55 69 -58 68 123 55 28 -1 114 -3 193 -4
l142 -1 0 -67 c0 -82 18 -73 22 12 l3 59 40 1 c22 0 45 6 52 12 7 7 44 12 83
13 l70 1 0 -83 c0 -45 5 -89 10 -97 7 -10 10 14 10 77 0 52 4 95 10 98 6 4 40
7 75 7 72 0 90 17 23 20 -24 0 -51 1 -60 0 -28 -3 -40 34 -33 90 4 28 8 203 9
390 1 267 -1 338 -11 338 -7 0 -13 5 -13 11 0 5 4 8 9 5 14 -9 17 14 10 64 -3
25 -7 41 -9 35 -1 -5 -6 8 -11 30 -4 22 -6 128 -2 235 6 206 5 299 -4 365 -3
22 -6 234 -8 470 -4 487 -13 713 -26 677 -6 -17 -15 -22 -31 -20 -22 3 -23 7
-23 86 0 87 9 108 40 96 13 -5 16 -3 13 7 -3 8 -12 13 -21 11 -8 -1 -18 2 -22
8 -4 6 4 10 19 10 24 0 26 3 26 45 0 25 4 45 9 45 4 0 12 -84 16 -187 4 -104
9 -222 10 -263 2 -41 4 -274 4 -518 1 -408 8 -513 25 -383 13 95 7 971 -7
1051 -9 50 -10 109 -6 180 7 104 2 522 -7 590 -10 77 -10 106 0 119 8 10 10
194 9 619 -2 498 0 603 11 599 7 -3 19 -1 27 4 11 7 11 9 -3 9 -10 0 -26 9
-37 21 -10 11 -33 30 -49 42 -16 12 -80 65 -141 117 -150 129 -195 164 -198
153 -7 -21 27 -64 93 -117 126 -102 204 -171 204 -181 0 -7 -47 -7 -137 -2
-76 4 -282 2 -458 -4 l-320 -10 -28 33 c-48 56 -170 178 -199 199 -16 11 -28
24 -28 29 0 4 147 6 328 3 296 -4 502 4 519 21 4 3 3 9 0 13 -10 10 -588 9
-750 -1 l-137 -8 0 -27 c1 -14 -4 -89 -11 -166 -6 -77 -12 -198 -11 -270 1
-444 1 -971 0 -980 -1 -5 2 -20 6 -32 4 -14 3 -23 -3 -23 -5 0 -12 8 -15 18
-3 9 -4 -11 -2 -46 3 -74 -1 -69 -53 74 -21 60 -53 139 -70 176 -17 37 -52
129 -78 205 -25 76 -68 190 -96 253 -27 63 -78 189 -114 280 -35 91 -73 179
-84 197 -11 18 -16 34 -10 37 5 4 12 2 16 -4 3 -5 11 -10 17 -10 6 0 3 9 -7
20 -10 11 -22 17 -26 14 -9 -5 -79 64 -79 78 0 4 -14 24 -32 43 -23 27 -28 39
-19 45 9 5 10 10 2 14 -6 4 -11 2 -11 -4 0 -15 -89 81 -90 96 0 5 -14 23 -31
40 l-31 29 8 -29 c11 -44 70 -136 123 -191 26 -27 58 -65 70 -83 12 -18 26
-30 31 -27 5 3 11 1 15 -4 6 -11 -58 -26 -73 -17 -5 3 -188 6 -406 7 l-396 1
-35 41 c-20 23 -48 64 -64 92 -16 27 -43 66 -60 85 -17 19 -31 40 -31 45 0 7
42 8 123 3 230 -13 705 -14 700 -2 -5 15 -136 22 -538 30 -170 3 -314 9 -319
11 -4 3 -11 1 -15 -5 -4 -7 -22 8 -44 35 -20 25 -37 42 -37 37z m2044 -406
c-3 -5 -2 -14 3 -20 8 -14 11 -68 3 -68 -6 0 -9 -132 -9 -390 0 -187 -1 -195
-22 -210 -18 -14 -22 -30 -26 -103 -4 -62 -2 -87 6 -87 7 0 11 28 11 85 0 67
3 85 14 85 8 0 17 -4 21 -10 3 -5 2 -95 -1 -200 -6 -149 -10 -190 -21 -190 -9
0 -13 15 -13 52 0 68 -17 51 -19 -19 -1 -32 -19 -29 -27 5 -4 15 -13 35 -20
46 -7 10 -10 25 -7 32 3 8 2 22 -1 31 -6 15 -9 15 -16 3 -9 -14 -2 -71 10 -80
3 -3 12 -19 19 -36 12 -29 30 -44 75 -58 17 -6 18 -15 14 -101 -3 -83 -7 -97
-25 -110 -23 -16 -25 -53 -5 -78 12 -13 7 -27 -9 -27 -5 0 -6 7 -3 15 4 8 2
15 -4 15 -10 0 -22 46 -28 110 -6 58 -21 146 -23 127 0 -10 -5 -15 -11 -12
-11 6 -26 -42 -16 -52 3 -4 6 4 6 16 0 30 16 18 23 -16 3 -16 8 -39 12 -53 l7
-25 -21 24 c-21 23 -27 18 -15 -13 3 -9 10 -14 14 -11 4 3 7 -6 6 -20 l-1 -25
-16 22 c-16 20 -24 52 -34 138 -10 73 -17 105 -27 118 -8 9 -7 11 7 6 17 -7
18 -2 12 51 -3 32 -12 62 -19 66 -12 8 -5 13 14 10 3 0 5 10 3 22 -5 45 -17
77 -29 77 -13 0 -11 -248 3 -290 4 -14 5 -36 1 -50 -10 -42 -23 -5 -25 76 -2
41 -8 81 -15 89 -10 12 -10 15 0 15 9 0 10 21 5 83 -4 45 -8 307 -10 582 -2
275 -6 517 -10 538 -3 21 -2 43 1 49 4 6 57 -40 125 -108 64 -65 115 -122 113
-126z m-1752 -18 c-7 -12 -10 -25 -7 -31 4 -5 6 -155 5 -332 -8 -2592 -12
-3249 -18 -3287 -5 -27 -13 -44 -20 -43 -16 4 -15 -12 2 -26 16 -14 18 -66 4
-93 -5 -10 -5 -18 0 -18 4 0 8 -16 9 -35 1 -19 -3 -33 -7 -30 -5 3 -10 -3 -12
-12 -3 -10 -5 15 -6 54 -2 61 -14 123 -24 123 -2 0 -4 -114 -5 -253 -1 -138
-3 -265 -3 -280 0 -16 -4 -26 -10 -22 -5 3 -9 29 -8 58 2 101 -10 372 -18 391
-5 14 -4 17 4 12 7 -4 12 -1 12 8 0 9 -8 16 -17 16 -16 0 -16 2 -3 11 11 8 12
12 3 16 -7 2 -13 13 -13 24 0 10 -4 19 -9 19 -5 0 -7 -34 -5 -75 2 -42 -1 -73
-5 -71 -17 11 -36 402 -20 412 5 3 9 10 9 15 0 6 -4 8 -9 5 -5 -3 -11 5 -13
19 -3 14 -1 22 4 19 5 -4 9 4 8 17 -1 13 -1 26 0 29 2 6 11 163 12 199 0 13
-5 27 -11 31 -7 3 -9 14 -5 23 3 10 1 17 -5 17 -6 0 -8 12 -4 32 5 25 3 30 -8
26 -12 -5 -15 6 -17 49 -1 33 2 52 8 48 6 -3 10 -24 10 -46 0 -22 4 -38 9 -35
5 4 11 0 14 -6 2 -7 4 2 5 20 0 17 -3 32 -8 32 -9 0 -7 138 1 169 2 7 -1 15
-8 18 -8 3 -10 -4 -7 -22 3 -19 1 -26 -8 -23 -7 3 -14 19 -15 37 -2 26 0 32
12 27 9 -3 15 0 15 9 0 8 -4 15 -9 15 -13 0 -22 43 -10 51 8 5 8 9 0 13 -6 4
-11 24 -10 44 l1 37 12 -35 c11 -28 14 -31 17 -15 3 11 -3 29 -13 39 -21 23
-24 46 -5 46 8 0 8 3 -2 9 -11 7 -15 60 -19 252 -9 471 -9 1335 -1 1449 13
158 17 756 7 919 -4 74 -5 137 -2 140 7 7 38 -30 101 -124 l48 -69 1 -176 c2
-235 3 -244 12 -236 4 4 8 101 9 214 l1 207 -29 45 c-15 25 -40 59 -55 75 -83
92 -78 89 26 -12 106 -104 114 -115 102 -133z m907 21 c14 -9 41 -81 41 -111
0 -8 -16 7 -35 34 -19 27 -37 51 -40 55 -13 12 11 -37 45 -94 64 -106 140
-265 165 -345 4 -14 22 -56 40 -95 18 -38 50 -115 70 -170 21 -55 50 -128 66
-162 16 -34 31 -75 35 -90 4 -15 9 -32 13 -38 3 -5 6 -14 8 -20 1 -5 15 -44
32 -85 16 -41 53 -147 81 -235 28 -88 66 -196 85 -240 18 -44 51 -136 73 -205
38 -117 145 -375 194 -465 20 -37 45 -64 59 -65 9 0 -16 101 -31 130 -9 16
-14 82 -17 195 -8 352 -8 497 0 502 4 2 2 13 -3 24 -7 13 -7 25 0 38 6 13 7
28 1 44 -5 13 -7 39 -5 58 7 52 14 408 18 874 2 231 4 429 5 440 1 20 9 20
325 22 l324 2 6 -32 c8 -45 12 -1913 8 -3552 -1 -429 0 -791 3 -805 3 -14 6
-91 8 -172 1 -80 5 -141 9 -135 5 7 8 3 8 -11 0 -13 -4 -20 -10 -17 -6 4 -8
-10 -4 -37 l6 -43 -248 3 c-137 1 -255 5 -261 7 -7 2 -13 12 -13 21 0 16 9 16
69 2 8 -2 16 3 18 10 3 7 -1 11 -9 10 -7 -2 -12 2 -11 9 2 9 -4 10 -20 4 -14
-6 -30 -6 -38 0 -21 13 -42 11 -32 -3 17 -29 13 -48 -11 -48 -30 0 -42 35 -18
51 11 6 13 12 6 15 -24 10 -42 30 -49 53 -6 21 -5 23 14 18 15 -3 21 -1 18 6
-2 7 -14 13 -26 15 -13 2 -27 15 -33 30 -19 48 -69 185 -94 260 -13 40 -33 90
-44 110 -28 54 -46 96 -79 192 -102 298 -145 410 -192 504 -11 21 -19 49 -17
61 1 12 -5 34 -15 49 -10 15 -20 39 -21 52 -2 14 -8 30 -14 36 -7 7 -12 19
-12 28 0 9 -4 20 -9 25 -6 6 -13 26 -16 45 -3 19 -22 69 -42 110 -36 74 -51
113 -98 240 -75 204 -98 265 -136 365 -73 192 -99 269 -100 300 -1 17 -3 22
-6 13 -4 -14 -8 -15 -24 -5 -10 6 -19 20 -19 29 0 10 -5 18 -11 18 -7 0 -20
10 -30 22 -11 11 -19 17 -19 11 0 -6 11 -22 25 -37 13 -14 21 -26 17 -26 -4
-1 3 -9 16 -20 13 -11 21 -24 17 -30 -5 -8 -11 -7 -21 1 -22 18 -30 2 -10 -20
15 -17 17 -34 13 -123 -3 -57 -6 -105 -7 -108 -1 -3 -2 -8 -2 -11 1 -3 1 -60
2 -125 0 -65 1 -243 2 -394 3 -494 2 -629 -3 -1106 -3 -259 -9 -476 -13 -482
-4 -6 -3 -20 2 -29 6 -10 12 -44 13 -76 l4 -58 -429 1 c-236 0 -431 2 -433 3
-10 10 -13 209 -13 822 -1 1306 1 1724 8 1729 4 2 5 165 2 363 -8 539 -6 1800
2 1809 4 3 31 8 60 10 29 2 112 9 183 15 72 6 236 17 365 24 129 6 237 13 240
13 3 1 11 -2 19 -7z m1717 -1092 c-5 -26 -3 -29 21 -29 l26 0 -7 -111 c-6 -85
-4 -109 5 -104 9 6 10 44 7 141 -3 74 -2 131 3 128 4 -2 6 -11 2 -19 -3 -8 0
-15 6 -15 6 0 11 6 11 13 0 6 9 -3 20 -21 38 -61 21 -289 -18 -250 -9 9 -12 6
-13 -12 l-1 -25 -8 25 c-8 29 -15 17 -24 -44 -3 -26 -1 -43 9 -53 17 -17 20
-43 4 -43 -5 0 -7 -4 -4 -10 3 -5 1 -10 -5 -10 -6 0 -9 -4 -5 -10 3 -5 8 -61
10 -124 4 -99 3 -115 -12 -120 -9 -4 -21 -2 -27 4 -16 16 -13 313 4 335 4 6
11 29 15 53 7 42 6 42 -23 42 -22 0 -29 -4 -28 -17 0 -10 -7 -19 -18 -21 -13
-3 -16 0 -10 9 10 17 13 50 3 44 -12 -8 -19 36 -19 116 0 63 3 78 17 83 26 10
33 -13 32 -98 -1 -48 2 -81 8 -83 7 -3 10 32 9 97 0 55 -4 100 -9 100 -4 0 -3
9 3 21 7 11 9 27 6 35 -4 9 -2 12 5 8 6 -3 9 -19 5 -35z m-1 -1189 c-2 -11 2
-35 9 -53 15 -37 28 -257 27 -469 -1 -81 3 -149 7 -152 20 -12 -3 -77 -24 -69
-8 3 -14 0 -14 -6 0 -6 -4 -11 -10 -11 -6 0 -8 48 -5 127 3 101 7 130 19 139
9 6 16 15 16 19 0 4 -6 3 -13 -3 -23 -19 -38 19 -25 65 8 27 13 33 16 19 3
-14 6 -16 12 -6 10 16 1 42 -11 34 -5 -3 -9 -1 -9 4 0 6 7 12 15 16 8 3 15 11
14 18 0 10 -2 10 -6 0 -2 -6 -9 -10 -13 -7 -5 3 -6 13 -3 22 5 12 2 15 -10 10
-15 -6 -16 -4 -6 14 16 31 7 218 -11 229 -12 7 -12 12 -2 22 6 6 12 22 12 35
0 13 4 23 9 23 6 0 8 -9 6 -20z m-1629 -745 c20 -55 47 -123 60 -151 13 -28
35 -82 49 -120 71 -188 90 -238 130 -349 63 -176 134 -364 146 -386 5 -10 12
-39 14 -64 3 -25 11 -55 19 -68 23 -35 119 -287 113 -294 -2 -2 -23 16 -45 39
-49 49 -56 45 -11 -7 24 -27 27 -35 14 -35 -9 0 -13 -5 -9 -11 3 -6 16 -8 28
-5 26 6 43 -5 78 -54 30 -41 44 -80 29 -80 -6 0 -11 7 -11 15 0 8 -6 15 -14
15 -8 0 -16 5 -18 12 -3 8 -94 15 -309 24 -167 7 -305 13 -306 13 -1 1 -2 211
-2 469 0 257 -3 627 -5 822 -3 221 -2 347 4 335 5 -11 26 -65 46 -120z m318
-388 c7 -7 11 -18 9 -24 -3 -7 5 -18 16 -25 12 -7 21 -19 21 -26 0 -7 4 -20 9
-30 6 -9 22 -48 36 -87 15 -38 35 -89 46 -112 10 -24 19 -50 19 -58 0 -8 4
-15 10 -15 5 0 7 -6 4 -13 -6 -17 22 -83 46 -107 11 -11 21 -29 21 -40 3 -37
4 -41 18 -49 10 -6 11 -13 3 -27 -7 -13 -6 -24 3 -38 7 -12 16 -34 19 -51 5
-25 1 -22 -24 20 -16 28 -30 56 -30 63 0 7 -11 35 -25 61 -13 27 -43 97 -65
157 -23 59 -50 125 -60 146 -10 22 -22 53 -25 70 -4 16 -18 56 -32 87 -28 63
-44 111 -37 111 3 0 11 -6 18 -13z m-1515 -329 c3 -23 3 -34 2 -153 -1 -350 0
-444 4 -485 3 -25 7 -60 10 -77 7 -38 -8 -44 -26 -11 -9 16 -12 123 -14 368
-1 190 1 353 3 363 6 24 17 21 21 -5z"/>
<path d="M16742 6388 l3 -113 46 -3 c72 -5 81 10 77 127 l-3 96 -63 3 -63 3 3
-113z m98 -3 l0 -95 -40 0 -40 0 0 95 0 95 40 0 40 0 0 -95z"/>
<path d="M16763 5703 c-22 -4 -23 -8 -23 -113 0 -106 1 -108 24 -114 34 -8 85
4 95 23 5 9 9 56 9 104 0 85 -1 89 -25 98 -25 9 -41 10 -80 2z"/>
<path d="M16957 5703 l-28 -4 3 -107 3 -106 35 -8 c21 -4 46 -3 63 4 l27 10 0
104 c0 92 -2 104 -17 104 -10 0 -27 2 -38 4 -11 2 -33 1 -48 -1z m83 -119 l0
-94 -40 0 c-38 0 -40 2 -42 33 -9 153 -4 167 52 159 l30 -4 0 -94z"/>
<path d="M17153 5700 c-13 -5 -23 -17 -23 -27 -1 -10 -3 -52 -6 -94 -7 -92 5
-112 67 -105 21 2 43 7 48 11 7 4 11 48 11 109 0 99 -1 104 -22 110 -30 8 -48
7 -75 -4z m75 -112 l3 -96 -38 1 -38 2 -3 84 c-4 105 -1 113 40 109 l33 -3 3
-97z"/>
<path d="M16747 5269 c-16 -10 -17 -20 -11 -107 4 -53 12 -100 18 -104 6 -4
32 -8 59 -8 l47 0 0 109 c0 104 -1 109 -22 115 -34 9 -71 7 -91 -5z m93 -114
l0 -95 -40 0 c-33 0 -40 4 -45 23 -4 17 -2 101 4 160 1 4 19 7 41 7 l40 0 0
-95z"/>
<path d="M16937 5273 c-4 -3 -7 -55 -7 -114 l0 -107 33 -3 c17 -2 47 -3 64 -1
l33 3 -1 100 c0 74 -4 103 -16 114 -14 15 -94 21 -106 8z"/>
<path d="M17165 5273 c-31 -8 -35 -21 -35 -125 l0 -98 44 0 c76 0 76 0 76 111
0 98 0 100 -26 109 -27 11 -27 11 -59 3z"/>
<path d="M16757 4843 c-16 -4 -18 -16 -16 -108 l1 -104 39 -6 c80 -14 93 8 87
145 l-3 75 -45 2 c-25 0 -53 -1 -63 -4z"/>
<path d="M16761 4419 c-6 -17 -11 -65 -11 -105 0 -62 3 -75 19 -84 23 -12 81
-13 96 -2 7 4 10 49 10 112 l-2 105 -50 3 c-49 3 -51 2 -62 -29z"/>
<path d="M16947 4436 c-3 -8 -7 -59 -8 -113 l-2 -98 33 -3 c19 -2 49 -1 67 3
l34 6 -3 106 -3 107 -56 4 c-43 3 -58 0 -62 -12z m93 -106 l0 -100 -40 0 -40
0 0 94 c0 100 2 104 53 105 l27 1 0 -100z"/>
<path d="M17192 4443 c-18 -3 -35 -10 -37 -16 -2 -7 -6 -54 -8 -104 l-4 -93
31 0 c76 0 77 1 75 116 -1 72 -5 104 -13 102 -6 0 -26 -3 -44 -5z"/>
<path d="M16574 4017 c-2 -7 -3 -58 -2 -113 l3 -99 29 -3 c37 -5 86 16 86 37
0 49 -30 167 -46 178 -23 17 -63 17 -70 0z"/>
<path d="M16965 4016 c-17 -12 -20 -27 -21 -110 l-1 -95 29 -7 c16 -3 45 -3
63 0 l33 7 -5 97 c-3 53 -8 100 -12 104 -15 16 -66 19 -86 4z"/>
<path d="M16989 3643 l-36 -4 -6 -92 c-3 -51 -2 -96 3 -100 12 -13 80 -26 80
-16 0 5 9 9 20 9 18 0 20 6 19 78 -2 127 -6 133 -80 125z"/>
<path d="M16754 3625 c-3 -6 -4 -49 -2 -96 3 -81 4 -84 31 -97 22 -11 33 -11
56 -1 27 12 29 16 35 102 4 49 6 91 4 92 -2 1 -29 5 -61 7 -40 3 -60 1 -63 -7z"/>
<path d="M4768 7968 c-2 -24 -7 -32 -18 -29 -28 8 -274 9 -680 3 -223 -4 -394
-8 -380 -9 14 -1 153 -8 310 -14 157 -6 335 -14 395 -16 61 -3 156 0 213 7 56
7 105 10 109 7 13 -14 -21 -38 -46 -33 -14 3 -20 3 -13 0 15 -7 16 -34 1 -34
-18 0 -204 -146 -265 -208 -29 -30 -37 -33 -76 -28 -24 3 -127 6 -230 6 -103
1 -190 6 -193 11 -4 5 40 9 104 9 68 0 111 4 111 10 0 17 -250 10 -257 -6 -6
-16 -43 -19 -43 -5 0 5 -9 12 -19 16 -24 7 -73 -4 -65 -16 3 -5 0 -9 -5 -9 -6
0 -11 4 -11 8 0 5 -19 9 -42 10 -34 0 -39 -1 -23 -9 16 -7 14 -9 -12 -6 -18 2
-30 0 -28 -4 5 -7 -95 -23 -102 -16 -2 3 69 54 159 115 172 117 242 171 219
172 -19 0 -109 -55 -296 -183 -88 -60 -171 -114 -185 -120 l-25 -11 26 -3 c26
-4 27 -6 34 -104 3 -55 6 -199 4 -322 -1 -122 2 -358 6 -524 6 -244 5 -303 -5
-303 -7 0 -23 -11 -36 -25 -21 -23 -30 -25 -106 -25 -102 0 -141 10 -171 46
-18 20 -28 25 -46 19 -18 -5 -21 -12 -17 -30 5 -18 1 -24 -17 -29 -12 -3 -26
-6 -32 -6 -7 0 -10 202 -10 588 0 464 3 586 13 584 18 -3 15 63 -4 82 -13 14
-14 16 0 16 12 0 14 14 11 88 -3 48 -7 110 -10 137 -3 28 -3 71 1 98 5 43 8
47 32 47 15 0 34 5 42 10 9 6 -36 7 -125 4 -77 -3 -295 -9 -485 -13 -335 -7
-346 -8 -385 -30 -22 -13 -51 -33 -65 -45 -14 -13 -73 -51 -133 -87 -201 -120
-197 -118 -197 -98 0 6 -7 17 -15 25 -13 14 -15 13 -15 -10 0 -14 -9 -31 -22
-40 l-22 -16 21 0 c19 0 21 -3 13 -28 -4 -16 -6 -42 -4 -58 3 -16 7 -99 9
-184 3 -85 9 -288 15 -450 6 -162 8 -308 6 -325 -3 -16 -7 -120 -11 -230 -4
-110 -10 -216 -14 -235 -5 -20 -5 -45 -1 -55 4 -11 8 -110 8 -220 1 -110 6
-258 11 -330 8 -106 6 -906 -2 -1240 -3 -126 29 -397 63 -530 32 -127 116
-309 202 -438 21 -31 36 -57 32 -57 -3 0 -45 37 -92 83 -133 128 -58 40 116
-137 89 -90 189 -181 232 -210 41 -28 77 -53 81 -56 4 -3 10 -40 14 -82 7 -76
7 -78 -16 -87 -16 -7 47 -10 196 -11 124 0 237 -5 260 -11 49 -14 726 -21 746
-8 9 5 -25 9 -84 9 -64 0 -96 4 -92 10 4 6 3 10 -2 9 -30 -5 -93 3 -88 11 3 5
56 10 118 10 62 0 135 0 162 1 28 0 61 -3 75 -7 22 -7 23 -5 12 8 -11 13 -8
16 20 22 18 4 67 9 108 11 140 10 181 16 187 31 3 8 9 12 13 9 5 -3 12 0 16 6
12 20 -156 6 -188 -15 -15 -10 -36 -16 -47 -14 -12 2 31 27 115 66 75 35 137
62 140 60 2 -3 6 -43 8 -90 l5 -85 -159 2 c-124 1 -160 -2 -164 -12 -4 -9 5
-13 27 -14 18 0 76 -2 129 -3 58 -1 120 4 155 12 41 11 58 12 61 3 6 -18 36
-13 55 9 9 11 26 20 38 20 15 0 19 5 15 15 -3 8 -1 15 4 15 6 0 10 9 10 20 0
13 7 20 20 20 11 0 20 5 20 10 0 6 -12 10 -27 10 -18 0 -24 3 -17 10 5 5 26 7
47 3 36 -5 37 -7 21 -24 -17 -18 -13 -19 114 -19 140 0 173 12 70 26 -41 5
-53 9 -35 12 15 2 27 8 27 13 0 5 5 9 11 9 5 0 7 -4 4 -10 -10 -16 41 -12 55
5 9 10 9 15 1 15 -6 0 -11 -6 -11 -12 0 -9 -3 -8 -10 2 -9 15 -80 23 -80 8 0
-4 -7 -8 -16 -8 -8 0 -12 5 -9 10 3 5 1 10 -4 10 -6 0 -11 5 -11 10 0 12 57
13 64 1 9 -14 56 0 56 16 0 12 -10 14 -40 11 -22 -2 -40 0 -40 4 0 5 24 8 53
9 28 0 66 2 82 3 17 1 44 3 62 4 24 1 31 6 27 16 -4 10 -12 13 -27 7 -29 -10
-100 -6 -122 7 -13 7 9 9 74 9 50 0 94 3 98 7 7 7 -6 8 -117 11 -100 3 -232
14 -237 19 -9 9 136 17 153 8 23 -12 158 -5 162 8 5 14 42 12 39 -2 -1 -8 21
-13 68 -14 58 -3 66 -1 45 8 -14 6 -32 10 -40 9 -8 -2 -12 0 -8 4 4 4 32 9 63
11 46 2 59 -1 78 -19 18 -18 33 -23 80 -22 31 0 57 5 57 10 0 6 -24 9 -59 7
-39 -2 -61 1 -67 9 -5 9 -1 11 15 6 18 -4 20 -3 10 9 -6 7 -15 11 -21 8 -5 -3
-14 -2 -21 3 -7 6 -50 11 -97 12 -47 1 -119 4 -160 7 -41 3 -84 5 -95 5 -11 0
-49 0 -85 1 -123 1 -195 -3 -228 -12 l-32 -8 19 26 c25 36 159 162 171 162 6
0 10 6 10 13 0 6 39 52 86 101 47 49 92 100 101 113 8 12 19 20 24 17 5 -3 6
2 3 10 -4 10 6 27 26 46 18 17 28 34 24 41 -3 6 -2 14 3 18 27 18 125 245 143
331 4 19 19 78 33 131 27 102 55 237 63 304 2 22 7 50 9 63 4 15 0 25 -11 29
-11 4 -12 8 -4 13 15 9 15 103 1 108 -6 2 -11 8 -11 13 0 6 5 7 12 3 6 -4 8
-3 5 3 -4 6 -9 91 -12 189 -7 259 -15 456 -19 479 -2 11 -1 24 2 29 6 10 5
537 -2 901 -2 130 0 215 7 223 5 6 5 12 1 12 -11 0 -12 720 -1 737 4 6 4 103
1 215 -6 197 -8 347 -5 398 1 28 47 60 87 60 13 0 24 4 24 8 0 12 -62 7 -87
-7 -13 -6 -23 -8 -24 -4 -1 4 -2 15 -3 23 -2 8 -3 30 -4 48 -1 17 -6 32 -11
32 -6 0 -11 -15 -13 -32z m-1778 -58 c0 -5 -35 -33 -77 -62 -42 -29 -99 -73
-127 -98 -91 -81 -114 -93 -170 -93 -28 0 -38 -2 -23 -4 16 -3 26 -10 24 -16
-7 -22 -433 -37 -454 -16 -7 7 -78 11 -197 12 -102 1 -186 4 -186 8 0 7 144
101 215 140 33 18 76 47 95 65 l35 32 305 5 c168 3 319 8 335 10 17 3 62 8
100 12 39 4 72 9 74 11 9 8 51 4 51 -6z m-20 -331 c-12 -312 -12 -301 -4 -866
7 -474 9 -448 -41 -455 -11 -2 -19 2 -18 7 1 6 3 51 6 101 6 100 -1 127 -27
102 -10 -11 -14 -29 -11 -59 12 -145 11 -163 -10 -167 -11 -2 -29 -7 -40 -12
-43 -18 -75 -21 -75 -6 0 10 10 14 30 14 17 -1 34 2 38 6 10 11 -28 36 -54 36
-20 0 -22 6 -28 93 -4 50 -3 106 2 122 5 17 9 80 9 140 l0 110 -9 -110 c-5
-60 -11 -166 -12 -235 -3 -109 -6 -125 -21 -128 -11 -3 -15 0 -10 7 4 7 7 151
7 321 0 171 3 312 8 315 5 3 4 20 -1 39 -6 21 -6 43 0 59 5 14 7 28 3 31 -7 7
-5 303 2 315 3 4 8 61 11 127 4 80 10 122 19 129 90 70 206 182 206 201 0 11
22 36 27 31 1 -2 -2 -122 -7 -268z m1786 179 c-6 -95 -6 -102 -3 -1335 2 -619
0 -1056 -6 -1062 -5 -5 -5 -16 1 -27 5 -11 9 -77 9 -149 0 -71 4 -172 8 -224
5 -66 4 -91 -4 -87 -15 10 -14 -7 1 -22 9 -9 9 -12 1 -12 -8 0 -9 -9 -3 -31 5
-18 7 -35 5 -40 -3 -4 -1 -10 5 -14 5 -3 9 -34 8 -68 -1 -62 -1 -62 -8 -17 -9
57 -11 52 -15 -40 -2 -41 -7 -88 -12 -105 -5 -16 -8 -40 -7 -52 1 -13 -3 -23
-7 -23 -5 0 -9 3 -10 8 -4 60 -9 95 -15 100 -4 4 -4 -13 0 -37 6 -39 5 -43 -9
-31 -12 10 -15 10 -15 -4 0 -9 4 -16 9 -16 5 0 10 -24 11 -52 0 -29 1 -62 2
-73 2 -69 -6 -204 -12 -200 -7 5 -4 -53 5 -99 4 -17 -21 -104 -61 -213 -16
-43 -34 -57 -34 -27 0 9 -5 12 -12 8 -7 -5 1 11 19 35 17 24 29 49 26 57 -3 8
0 14 6 14 6 0 11 5 11 11 0 5 -4 7 -10 4 -18 -11 -11 14 8 25 16 11 16 11 0 6
-14 -4 -18 0 -18 22 0 21 2 24 10 12 8 -11 10 -8 8 15 -2 18 2 29 8 28 6 -1
11 11 12 28 1 31 -12 39 -22 14 -3 -8 -11 -15 -18 -15 -10 0 -10 2 1 9 7 5 9
11 4 14 -5 3 -14 -3 -21 -14 -7 -10 -8 -19 -3 -19 7 0 7 -58 0 -67 -1 -2 -2
-6 -3 -10 -1 -5 -7 -18 -14 -31 -7 -12 -10 -27 -7 -32 3 -6 0 -10 -8 -10 -8 0
-17 -9 -20 -20 -3 -11 -1 -20 4 -20 5 0 9 -5 9 -11 0 -5 -4 -8 -9 -4 -5 3 -16
-4 -24 -16 -11 -15 -16 -17 -20 -7 -3 7 -6 3 -6 -10 -1 -13 -5 -21 -10 -18
-10 7 -71 -95 -71 -119 0 -8 6 -15 13 -15 8 0 9 -3 1 -8 -23 -15 -85 -149 -77
-168 6 -16 5 -17 -9 -4 -11 11 -13 19 -6 28 6 6 8 12 5 12 -4 0 3 21 15 48 30
70 68 193 68 225 0 28 14 37 24 15 3 -7 3 -3 0 10 -3 12 -1 22 5 22 6 0 11 -8
11 -17 0 -13 3 -14 12 -5 8 8 6 16 -11 29 l-22 18 23 44 c26 49 44 62 44 32 0
-11 -3 -18 -6 -16 -3 2 -5 -18 -5 -43 1 -53 17 -59 26 -10 3 18 15 51 27 73
24 44 27 55 13 55 -5 0 -12 -13 -16 -30 -7 -32 -25 -52 -21 -23 2 10 -4 21
-12 24 -12 4 -8 10 16 25 32 19 58 75 45 98 -3 6 -3 8 2 4 11 -10 35 17 35 41
0 12 5 21 10 21 6 0 10 8 10 18 0 10 3 22 6 25 11 11 13 67 2 61 -6 -4 -8 2
-4 14 4 12 2 23 -5 28 -8 5 -11 2 -7 -7 3 -8 2 -23 -3 -34 -6 -15 -8 -9 -9 25
-2 92 -8 165 -13 180 -3 8 -8 27 -11 43 -4 18 -13 27 -26 27 -23 0 -33 30 -28
81 2 21 8 33 16 31 16 -3 16 25 0 31 -10 3 -10 9 -2 23 6 11 9 35 6 55 -3 28
0 38 13 43 10 3 23 2 29 -3 8 -7 11 9 11 60 0 39 -5 73 -11 77 -13 9 -42 128
-49 206 -6 64 -19 129 -34 169 -6 16 -7 29 -1 32 5 3 7 12 3 20 -3 8 -1 15 4
15 5 0 10 7 10 15 0 8 -4 15 -9 15 -4 0 -8 -7 -8 -16 0 -9 -7 -14 -16 -12 -19
4 -47 87 -35 103 11 14 1 146 -10 139 -5 -3 -10 32 -11 78 -1 46 -3 97 -3 113
-10 167 -26 787 -26 985 0 52 0 238 0 413 1 176 5 317 9 317 10 0 72 45 108
78 11 11 26 21 34 24 7 2 14 14 15 25 1 19 -1 20 -17 9 -10 -7 -33 -26 -51
-42 -41 -37 -87 -67 -94 -61 -2 3 8 13 24 23 15 10 56 43 91 72 34 30 62 49
62 43 0 -6 5 -11 11 -11 6 0 9 5 7 11 -2 7 19 33 47 58 27 25 52 49 53 54 2 4
10 7 19 7 12 0 14 -12 9 -72z m-2604 -150 c-4 -4 -45 -12 -92 -18 -47 -6 -88
-14 -92 -18 -4 -4 55 -6 130 -5 75 2 221 4 324 5 l188 3 1 -430 c2 -466 1
-509 -1 -632 -1 -45 1 -143 5 -217 l7 -135 -55 -27 c-54 -26 -56 -27 -90 -11
-50 24 -74 21 -109 -13 -27 -28 -30 -35 -24 -72 7 -40 6 -41 -76 -119 -62 -59
-90 -78 -111 -79 -41 0 -86 -27 -93 -55 -4 -14 1 -35 12 -54 l18 -30 -46 -68
c-25 -37 -51 -78 -57 -91 -7 -12 -30 -30 -52 -38 -61 -25 -73 -63 -43 -128 17
-34 16 -36 -24 -143 -29 -77 -46 -109 -59 -112 -58 -11 -72 -87 -26 -142 27
-31 27 -34 24 -148 -2 -105 -5 -118 -27 -144 -38 -46 -30 -107 21 -152 16 -13
32 -52 51 -119 25 -90 26 -100 11 -111 -21 -15 -32 -86 -18 -114 9 -16 21 -21
51 -21 45 0 49 -5 112 -127 l32 -61 -21 -19 c-27 -23 -39 -91 -21 -116 14 -19
56 -25 103 -14 27 6 38 -1 115 -74 50 -48 80 -83 73 -86 -7 -2 -13 -9 -13 -15
0 -7 5 -6 14 1 17 14 66 -5 66 -25 0 -27 -64 -28 -97 -2 -10 8 -9 13 2 25 19
19 19 43 1 43 -20 0 -26 -13 -28 -56 -2 -47 28 -74 82 -74 30 0 43 6 59 26
l20 26 53 -28 c29 -16 73 -41 97 -58 36 -24 41 -30 27 -38 -10 -6 -16 -22 -16
-44 0 -31 5 -36 45 -56 42 -21 46 -21 62 -5 15 15 15 17 -3 23 -52 17 -74 27
-86 41 -10 12 -9 18 7 29 22 17 40 13 40 -7 0 -20 46 -39 63 -26 18 14 25 2
13 -21 -6 -12 -11 -29 -11 -40 0 -11 -14 -64 -31 -118 -16 -55 -41 -139 -54
-189 l-23 -90 -68 -5 c-56 -4 -68 -8 -70 -24 -8 -53 -43 -43 -131 38 -30 27
-50 40 -47 30 7 -20 -14 -2 -125 101 -75 70 -195 233 -245 334 -39 78 -93 222
-110 293 -9 40 -46 257 -51 298 l-4 35 20 -40 c11 -22 17 -29 14 -15 -36 139
-38 161 -39 380 -1 124 3 331 8 460 7 210 -3 620 -20 805 -2 28 -3 208 -2 400
4 514 4 861 -2 1209 l-5 310 24 6 c35 8 431 6 423 -2z m1706 -13 c103 -7 125
-20 47 -28 -22 -2 23 -2 100 1 142 5 343 -4 362 -16 7 -5 13 -200 17 -607 12
-1089 17 -1307 32 -1407 8 -54 -8 -47 -37 14 -28 60 -80 140 -121 183 -31 34
-35 45 -13 45 14 0 63 -65 80 -105 8 -19 8 -19 12 -2 8 31 -6 82 -27 104 -10
12 -37 24 -58 28 -31 5 -53 20 -100 68 -69 71 -104 103 -149 135 -33 23 -43
42 -23 42 6 0 22 -11 34 -24 13 -12 32 -26 41 -30 9 -3 19 -15 22 -25 5 -19
33 -38 33 -23 0 4 -14 30 -30 59 -33 57 -52 68 -108 59 -57 -9 -122 36 -155
107 -29 64 -50 74 -114 56 -40 -11 -52 -10 -119 12 -67 22 -74 27 -79 54 -2
17 -7 152 -10 300 -11 590 -24 916 -41 972 -6 22 -5 22 118 25 68 2 138 4 154
6 16 2 76 0 132 -3z m-536 -1361 c84 -6 110 -21 80 -46 -17 -15 -99 -48 -119
-48 -5 0 -35 24 -64 54 l-54 53 40 -3 c22 -2 75 -6 117 -10z m-337 -41 c-4
-16 -8 -41 -9 -58 -3 -48 -16 -75 -35 -75 -10 0 -35 -7 -55 -15 -20 -9 -41
-13 -46 -10 -6 4 -10 2 -10 -2 0 -5 -18 -14 -40 -20 -30 -8 -40 -7 -40 2 0 6
3 15 7 19 4 3 7 20 7 38 1 43 41 73 79 59 36 -14 44 -37 21 -64 -19 -22 -19
-22 1 -6 11 10 34 16 53 14 23 -1 36 4 43 17 11 20 6 22 -21 8 -13 -7 -21 -5
-31 7 -8 8 -32 27 -54 41 l-40 25 44 15 c32 11 45 11 50 3 5 -8 13 -5 26 9 10
11 27 20 38 20 16 0 18 -4 12 -27z m229 -28 c32 -25 68 -45 80 -45 11 0 41 11
64 25 48 27 66 25 56 -8 -6 -20 -5 -20 10 -8 20 17 22 16 30 -33 7 -37 6 -38
-16 -33 -13 3 -59 8 -103 12 -44 4 -88 9 -98 12 -18 5 -18 6 -1 24 9 10 13 19
8 19 -15 0 -55 -31 -50 -38 2 -4 -12 -7 -33 -7 l-36 0 -3 53 c-5 88 9 92 92
27z m326 8 c0 -14 2 -15 9 -5 6 11 19 10 67 -6 32 -11 58 -25 57 -31 -2 -6 3
-11 10 -12 32 -2 60 -10 72 -22 7 -8 33 -21 58 -31 25 -9 47 -25 49 -34 3 -9
18 -23 34 -31 49 -23 89 -44 94 -50 3 -3 31 -26 63 -50 62 -48 146 -141 127
-141 -7 0 -29 4 -49 9 -20 5 -61 14 -91 20 -30 6 -64 13 -75 15 -11 2 -56 28
-99 57 -69 45 -77 53 -63 64 16 12 36 75 24 75 -3 0 -14 -16 -23 -35 -19 -41
-26 -42 -79 -14 -22 11 -78 36 -125 54 -78 31 -85 36 -86 62 0 15 -4 49 -8 76
-6 43 -5 47 14 47 12 0 20 -7 20 -17z m-912 -125 c-12 -83 -30 -119 -69 -142
-39 -23 -59 -38 -119 -93 -26 -24 -50 -43 -54 -43 -10 0 -7 27 11 104 16 69
28 90 45 80 4 -3 31 -9 58 -13 36 -6 53 -5 60 4 8 9 4 14 -16 19 -27 7 -27 11
-11 82 3 15 73 63 93 64 8 0 8 -19 2 -62z m784 -29 c24 -8 37 -19 40 -33 2
-12 3 -169 3 -351 l-1 -330 -97 -170 c-53 -93 -97 -176 -97 -183 0 -7 -4 -10
-10 -7 -5 3 -20 8 -32 10 -12 3 -25 8 -29 12 -12 13 -48 557 -49 741 0 40 -4
71 -9 68 -18 -12 13 -742 34 -797 4 -11 -5 -19 -32 -27 -31 -10 -40 -9 -55 5
-19 17 -26 5 -7 -14 7 -7 7 -13 1 -17 -12 -7 -41 25 -46 50 -3 11 -7 27 -11
37 -4 10 -3 17 3 17 6 0 16 -8 22 -17 10 -16 11 -16 5 2 -16 48 -35 154 -35
195 l0 45 23 -50 c13 -27 36 -89 51 -137 30 -94 55 -124 29 -35 -16 56 -55
167 -81 232 -14 34 -17 98 -20 402 l-3 362 43 4 c77 8 322 -1 360 -14z m-439
-286 c-4 -159 -7 -339 -5 -400 1 -62 0 -113 -3 -113 -10 0 -36 70 -30 80 4 6
2 10 -4 10 -22 0 -138 268 -145 336 -1 11 -5 24 -7 30 -3 5 -6 29 -8 54 -3 70
-12 120 -22 120 -5 0 -7 -21 -4 -47 2 -27 5 -73 6 -103 2 -64 33 -174 59 -210
10 -14 37 -68 60 -120 24 -52 53 -113 66 -135 16 -28 25 -64 30 -120 7 -85 6
-85 -39 -24 -14 21 -67 82 -117 138 -50 55 -95 112 -100 126 -6 15 -10 63 -11
108 0 51 -3 75 -8 62 -5 -12 -10 39 -13 125 -2 80 -1 146 2 148 3 1 3 27 0 57
-5 43 -3 55 6 51 8 -3 11 0 8 8 -6 16 98 62 182 80 36 8 68 17 71 20 4 3 13 6
21 6 12 0 13 -42 5 -287z m623 231 c71 -26 149 -67 172 -91 7 -7 18 -13 23
-13 39 0 227 -168 285 -255 18 -27 47 -69 63 -92 55 -77 147 -285 135 -304 -2
-4 3 -24 12 -44 45 -109 60 -381 28 -545 -28 -151 -99 -340 -156 -416 -137
-186 -258 -311 -386 -403 -73 -52 -158 -98 -166 -90 -2 2 -29 80 -60 173 l-57
170 2 135 c2 116 4 132 16 115 8 -10 72 -107 142 -214 71 -108 137 -202 147
-210 23 -20 27 -25 -121 200 -176 266 -193 307 -179 416 l6 41 221 -167 c229
-172 311 -230 322 -230 8 0 -128 107 -325 254 -80 60 -162 125 -182 144 -36
34 -38 39 -38 100 0 57 2 63 18 57 69 -28 625 -176 653 -174 19 1 -106 39
-276 84 -77 20 -196 53 -265 73 l-125 37 -3 42 -3 41 63 6 c35 3 209 13 388
22 179 9 332 20 340 25 9 5 -18 7 -70 4 -47 -3 -191 -9 -320 -15 -129 -6 -272
-13 -316 -16 l-82 -6 -5 39 c-2 21 0 43 7 49 6 6 67 30 136 52 267 89 563 198
600 222 34 22 -17 7 -187 -54 -342 -124 -548 -194 -556 -189 -10 6 -2 132 9
143 5 5 104 84 220 177 199 158 354 293 337 293 -8 -1 -40 -25 -235 -185 -68
-55 -157 -126 -198 -157 -41 -31 -85 -66 -97 -77 -37 -35 -43 -27 -43 62 0
107 13 147 88 280 34 60 62 113 62 118 0 13 53 113 63 117 4 2 7 12 7 22 0 10
4 21 9 24 5 3 11 15 14 27 5 19 4 20 -7 8 -16 -16 -44 -67 -147 -266 -40 -79
-77 -143 -82 -143 -6 0 -7 22 -3 53 3 28 6 166 6 305 0 208 2 252 14 252 7 0
45 -12 82 -26z m-1206 -11 c0 -5 -5 -28 -11 -53 -7 -25 -12 -67 -13 -95 -1
-49 -2 -50 -34 -53 -24 -2 -45 4 -73 24 -21 15 -39 30 -39 35 0 10 151 149
162 149 4 0 8 -3 8 -7z m239 -292 c1 -107 5 -199 8 -205 16 -27 -34 24 -68 69
-55 73 -142 165 -128 135 7 -14 26 -41 43 -61 155 -181 157 -183 154 -312 -2
-76 1 -109 11 -121 26 -31 16 -26 -268 128 -57 31 -105 55 -107 53 -2 -2 57
-39 132 -83 189 -110 229 -137 230 -154 3 -44 5 -51 14 -45 6 3 10 -1 10 -9 0
-10 -6 -13 -15 -10 -8 4 -15 1 -15 -5 0 -6 7 -11 15 -11 9 0 14 -9 14 -22 -1
-13 2 -31 6 -42 6 -13 4 -17 -5 -14 -7 2 -15 15 -17 28 -5 36 -13 37 -13 2 0
-19 -5 -32 -12 -32 -7 0 -96 16 -198 35 -102 19 -212 40 -245 46 -33 6 -67 13
-75 15 -11 3 -15 18 -16 53 0 28 2 48 6 46 9 -6 32 63 25 75 -3 5 -1 10 4 10
6 0 10 3 10 8 -1 4 0 9 1 12 1 3 4 18 6 34 3 16 13 37 22 45 24 23 44 64 46
98 3 35 29 76 41 65 4 -4 5 1 2 11 -4 11 -1 20 8 23 8 4 12 10 9 15 -3 5 1 9
9 9 8 0 20 15 28 33 23 58 90 124 111 111 4 -3 5 2 2 11 -7 17 85 107 159 158
38 26 42 26 48 10 4 -10 7 -105 8 -212z m1445 99 c44 -11 89 -20 102 -20 21 0
39 -24 29 -40 -3 -4 -5 -51 -6 -104 0 -53 -5 -96 -9 -96 -4 0 -19 19 -33 43
-25 42 -118 163 -140 182 -7 6 -23 23 -37 39 -22 26 -23 28 -5 22 11 -3 56
-15 99 -26z m-1741 -26 c3 -3 -16 -34 -42 -68 -26 -33 -63 -85 -81 -114 l-34
-53 -19 33 c-14 25 -16 27 -11 8 12 -42 9 -93 -8 -130 -9 -19 -25 -60 -36 -90
-19 -50 -27 -80 -46 -163 -4 -15 -11 -25 -17 -22 -15 10 -69 108 -69 127 0 10
19 29 43 44 23 14 54 40 68 57 l26 30 -23 34 c-12 18 -32 42 -44 51 l-22 18
22 39 c12 22 33 54 46 72 13 17 24 36 24 42 0 6 7 11 16 11 12 0 14 -5 9 -17
-17 -39 -18 -66 -4 -61 8 3 13 14 11 26 -4 24 27 48 81 63 36 10 51 29 22 29
-8 0 -15 7 -15 15 0 17 16 20 25 5 4 -7 14 -5 28 5 23 16 40 19 50 9z m1955
-116 c52 -78 87 -146 97 -190 9 -34 -5 -36 -44 -8 -16 10 -52 27 -82 37 -43
14 -54 22 -52 38 1 11 5 54 8 95 7 78 11 100 19 100 3 0 27 -33 54 -72z m21
-199 c39 -18 71 -38 71 -45 0 -7 4 -14 9 -16 15 -5 23 -64 28 -211 3 -89 2
-142 -5 -150 -6 -7 -7 -18 -3 -25 13 -21 3 -442 -11 -459 -9 -11 -9 -16 1 -23
10 -5 12 -26 9 -74 -2 -40 0 -67 7 -70 5 -2 3 -5 -6 -5 -22 -1 -52 45 -44 68
3 11 0 21 -8 24 -17 6 -31 68 -18 76 13 9 24 51 12 51 -5 0 -12 -8 -15 -17 -3
-10 -3 -4 0 12 2 17 7 44 9 60 3 17 9 44 14 60 8 24 14 112 14 195 0 85 -47
315 -80 393 -14 32 -23 60 -21 63 7 6 68 -19 68 -28 0 -4 4 -8 8 -8 9 0 32 44
32 60 0 17 -18 11 -24 -8 -14 -44 -104 4 -131 71 -19 47 -12 48 84 6z m-2353
-135 c-5 -20 4 -48 35 -110 22 -46 39 -91 35 -99 -3 -9 -18 -15 -38 -15 -29
-1 -31 -2 -16 -14 16 -12 15 -16 -13 -54 -17 -23 -36 -42 -43 -42 -6 0 -17 14
-24 32 -10 28 -9 35 8 53 21 23 26 45 10 45 -5 0 -13 12 -16 26 -7 28 44 204
59 204 5 0 6 -12 3 -26z m782 1 c7 -14 32 -47 56 -73 165 -177 232 -298 124
-224 -24 16 -82 51 -130 77 l-88 47 0 99 c0 76 3 99 13 99 8 0 19 -11 25 -25z
m719 -119 l3 -85 -82 -75 c-45 -42 -87 -76 -95 -76 -20 0 -16 30 10 64 13 17
52 82 88 143 35 62 66 113 69 113 3 0 6 -38 7 -84z m-676 -123 c46 -27 105
-63 132 -81 53 -37 63 -64 20 -57 -16 2 -57 9 -93 14 -36 6 -82 13 -102 16
l-38 6 0 59 c0 32 -3 65 -6 74 -3 9 -4 16 -2 16 3 0 43 -21 89 -47z m-467 -54
c110 -22 226 -46 256 -52 l55 -12 3 -77 3 -77 -38 -10 c-21 -5 -78 -17 -128
-26 -144 -24 -366 -72 -373 -80 -10 -10 115 11 461 79 81 16 79 18 75 -80 l-3
-69 -125 -64 c-213 -108 -332 -173 -327 -178 3 -2 105 45 227 106 121 61 225
111 230 111 9 0 4 -156 -6 -171 -3 -5 -34 -29 -68 -52 -83 -56 -215 -160 -216
-170 0 -4 44 25 98 66 95 72 187 137 194 137 2 0 1 -66 0 -147 l-4 -146 -49
-64 c-27 -35 -54 -74 -61 -86 -23 -43 18 1 63 68 24 35 47 61 51 59 4 -3 8
-20 8 -37 1 -73 60 -248 95 -277 33 -28 12 -28 -27 1 -24 16 -65 44 -93 63
-84 55 -230 181 -281 242 -27 32 -59 67 -70 78 -31 31 -104 146 -110 176 -3
14 -16 45 -29 70 -36 71 -78 235 -66 259 8 14 8 20 -1 23 -8 3 -11 42 -11 129
1 109 4 146 18 209 2 8 4 21 4 28 1 18 26 16 245 -29z m-416 -59 c7 -12 10
-25 8 -29 -7 -11 41 -110 65 -137 11 -12 22 -38 26 -58 5 -33 4 -36 -18 -36
-22 -1 -23 -2 -6 -14 19 -15 18 -32 -5 -86 -8 -19 -18 -43 -21 -52 -4 -10 -10
-18 -15 -18 -20 0 -46 107 -32 130 5 9 1 19 -12 29 -27 22 -35 106 -14 156 19
46 19 45 2 45 -10 0 -13 11 -11 43 1 23 3 43 4 45 4 8 18 -1 29 -18z m1049
-54 c17 -7 17 -45 1 -51 -7 -2 -35 -7 -63 -10 -85 -11 -107 -15 -144 -25 -19
-5 -36 -8 -37 -7 -2 2 -6 116 -5 128 1 6 222 -26 248 -35z m271 27 c58 -36 68
-83 30 -140 -26 -38 -53 -48 -106 -39 -99 16 -93 162 8 186 19 4 36 8 38 9 1
1 15 -7 30 -16z m-174 -38 c-4 -11 -7 -24 -8 -30 0 -5 -5 -13 -11 -17 -6 -5
-5 -8 2 -8 8 0 11 -11 9 -30 -2 -16 1 -30 5 -30 5 0 9 -6 9 -14 0 -7 9 -20 20
-27 21 -14 21 -14 -9 -113 -16 -54 -35 -104 -40 -109 -17 -17 -13 93 4 123 21
36 18 46 -6 25 -20 -19 -20 -19 -10 9 6 15 8 25 3 23 -4 -3 -7 39 -7 94 0 54
3 99 8 99 4 0 4 12 1 26 -6 24 -5 25 15 13 14 -10 19 -20 15 -34z m-89 -82 c0
-19 -6 -29 -18 -31 -11 -2 -34 -14 -54 -27 -19 -13 -43 -27 -54 -30 -11 -4
-43 -22 -72 -41 -28 -19 -54 -34 -57 -34 -3 0 -6 21 -7 48 l-1 47 13 -40 c7
-22 14 -31 14 -20 0 11 -6 37 -13 58 -14 37 -13 38 12 49 15 5 43 12 62 14 19
1 60 9 90 17 81 22 86 21 85 -10z m503 -10 c4 -38 -5 -40 -67 -18 -22 8 -41
11 -41 6 0 -9 45 -31 65 -31 24 0 45 -30 45 -65 0 -46 -12 -50 -45 -15 -16 17
-34 30 -39 30 -6 0 9 -17 33 -38 l44 -38 5 -82 c2 -45 1 -82 -4 -82 -5 1 -48
59 -95 130 -64 96 -83 132 -75 139 9 8 30 -8 73 -54 34 -36 65 -65 69 -65 5 0
-11 20 -35 44 -24 25 -40 49 -36 55 4 7 1 10 -7 9 -7 -2 -12 3 -10 10 1 8 -2
11 -7 8 -5 -4 -12 -2 -16 4 -3 5 -2 10 2 10 5 0 8 15 7 32 -1 18 -1 35 2 39 2
3 32 6 66 5 l63 -1 3 -32z m-503 -64 c8 -37 -9 -63 -26 -39 -9 13 -10 12 -5
-2 5 -17 -44 -72 -103 -115 -14 -10 -46 -39 -72 -65 -26 -25 -50 -44 -53 -41
-3 4 -5 38 -4 77 2 70 2 70 5 14 5 -77 23 -75 19 2 -2 59 -2 61 32 82 28 17
36 19 44 7 8 -12 9 -12 5 1 -4 16 25 43 58 54 11 3 34 17 50 31 39 31 42 31
50 -6z m285 -53 c0 -23 18 -77 196 -596 46 -135 96 -281 110 -325 83 -254 195
-572 238 -672 14 -34 26 -65 26 -68 0 -4 -14 -5 -32 -3 l-32 3 -137 410 c-76
226 -151 455 -167 510 -17 55 -58 179 -91 275 -33 96 -74 222 -91 280 -17 58
-40 125 -51 149 -16 35 -18 46 -7 52 23 15 38 9 38 -15z m-100 11 c0 -8 -32
-143 -49 -207 -10 -41 -24 -97 -29 -125 -5 -27 -26 -95 -46 -150 -20 -55 -38
-111 -41 -125 -2 -14 -21 -81 -41 -150 -20 -69 -41 -143 -47 -165 -6 -22 -13
-42 -17 -45 -9 -7 -24 -43 -21 -53 1 -5 -12 -61 -30 -125 -42 -160 -119 -490
-119 -512 0 -15 -10 -19 -50 -22 -31 -2 -48 1 -46 7 3 6 17 48 32 95 15 47 71
220 125 385 54 165 119 372 143 460 24 88 54 187 66 220 12 33 33 103 46 155
55 220 99 360 111 360 7 0 13 -1 13 -3z m-183 -65 c-2 -27 -11 -59 -21 -73
-39 -55 -129 -189 -171 -251 -45 -68 -59 -83 -49 -50 5 13 4 14 -4 3 -6 -8 -8
-20 -5 -27 2 -7 0 -21 -6 -31 -8 -13 -10 14 -11 104 0 123 4 153 22 153 6 0 8
-24 5 -61 -6 -67 0 -119 14 -119 5 0 9 9 9 20 0 11 5 20 10 20 6 0 10 8 10 18
-1 16 -1 16 -11 0 -19 -33 -24 -18 -21 59 4 78 18 113 48 113 7 0 15 8 18 18
3 10 19 25 35 35 16 9 51 39 77 66 27 28 50 50 51 51 2 0 1 -22 0 -48z m429
-97 l68 -100 6 -128 c3 -70 3 -127 0 -127 -3 0 -15 35 -28 78 -13 42 -45 136
-72 207 -52 140 -69 196 -53 180 6 -5 41 -55 79 -110z m-196 67 c0 -10 14 -55
30 -102 17 -47 35 -101 39 -120 5 -19 41 -127 80 -239 75 -213 77 -231 27
-231 -20 0 -26 16 -69 198 -56 231 -100 382 -92 312 5 -36 94 -403 121 -497 6
-22 4 -23 -52 -23 -98 0 -187 64 -229 164 -15 35 -14 42 6 117 12 44 27 85 34
92 6 7 12 19 13 27 1 13 27 128 35 155 2 6 12 47 22 92 10 45 23 79 27 77 4
-3 8 -13 8 -22z m-229 -116 c-4 -19 -5 -19 -11 -1 -6 17 -8 15 -15 -10 -5 -17
-7 -36 -6 -44 1 -7 -11 -39 -28 -71 -38 -70 -41 -104 -4 -38 l26 48 14 -26 c7
-15 13 -37 13 -50 0 -42 -70 -309 -100 -379 -5 -11 -14 -38 -20 -60 -19 -68
-32 -95 -41 -89 -5 3 -9 15 -9 27 0 12 -7 30 -15 40 -7 11 -11 25 -8 33 3 8 0
14 -6 14 -18 0 -13 63 9 105 11 22 20 46 20 55 0 13 1 13 10 0 7 -12 10 -8 11
15 0 17 3 24 6 18 8 -21 21 -15 21 10 0 12 5 38 10 57 24 80 31 115 22 120 -5
3 -5 22 0 45 10 41 12 98 3 62 -2 -9 -9 -14 -15 -11 -7 4 -8 2 -4 -4 7 -11 -2
-53 -20 -96 -6 -15 -4 -18 8 -13 15 5 15 2 1 -39 -10 -30 -19 -42 -25 -36 -6
6 -7 20 -2 33 4 13 7 50 6 81 -1 47 3 63 22 85 39 48 96 133 108 161 l11 27 7
-25 c3 -14 4 -34 1 -44z m-1047 29 c3 -8 12 -15 21 -15 8 0 15 -4 15 -10 0 -5
7 -10 16 -10 8 0 41 -26 72 -57 43 -44 58 -66 59 -90 2 -35 -5 -41 -25 -21 -9
9 -12 9 -12 1 0 -7 5 -15 11 -18 6 -4 8 -14 4 -23 -4 -12 -1 -11 16 3 21 20
21 20 40 -5 10 -14 28 -37 39 -52 26 -33 23 -34 -34 -8 -24 12 -47 20 -52 19
-9 -2 -23 2 -71 21 -12 5 -32 27 -43 50 l-21 40 21 8 c21 8 21 8 -4 22 -14 7
-26 19 -26 26 0 6 -6 14 -14 17 -7 3 -16 23 -20 45 -3 22 -9 47 -12 56 -3 9
-2 16 4 16 5 0 12 -7 16 -15z m2697 -131 c1 -132 -3 -237 -9 -206 -2 12 -8 22
-14 22 -6 0 -8 -9 -5 -20 3 -11 1 -20 -4 -20 -5 0 -9 -7 -9 -16 0 -8 -4 -13
-9 -10 -9 6 -31 -36 -31 -59 0 -8 -3 -15 -8 -15 -4 0 -16 -12 -26 -27 -9 -16
-15 -20 -12 -11 3 10 1 20 -4 23 -6 4 -10 -3 -10 -14 0 -12 -5 -21 -11 -21 -6
0 -8 7 -5 16 3 9 6 43 6 75 0 45 3 59 13 54 6 -4 3 1 -8 10 -25 20 -25 96 -1
170 17 49 58 100 70 88 9 -9 66 48 66 66 0 8 2 12 5 9 3 -3 5 -54 6 -114z
m-269 52 c4 -20 14 -49 22 -64 8 -16 11 -33 8 -38 -4 -6 -35 -27 -69 -48 -70
-41 -80 -53 -64 -69 7 -7 12 -5 17 7 4 9 31 33 60 51 97 62 97 53 9 -122 -21
-44 -62 -99 -105 -143 -16 -17 -56 -35 -110 -52 -101 -31 -170 -47 -170 -40 0
2 26 31 57 64 49 49 59 56 65 41 7 -16 7 -16 6 2 -3 28 15 57 89 147 36 43 62
78 58 78 -4 0 -3 6 3 13 8 10 38 81 83 195 13 33 32 23 41 -22z m-2196 -247
c19 -11 41 -30 49 -42 17 -24 20 -67 6 -67 -6 0 -3 -12 5 -27 7 -16 14 -38 14
-51 0 -13 4 -21 8 -18 8 5 7 19 -4 101 l-6 40 33 -40 c18 -22 61 -69 96 -104
34 -35 60 -67 57 -72 -2 -4 3 -51 12 -104 9 -53 14 -98 11 -101 -2 -2 -32 23
-67 56 -59 57 -88 78 -60 45 26 -32 -9 -13 -39 20 -17 19 -34 35 -38 35 -9 0
-32 25 -47 49 -7 10 -4 11 10 4 11 -6 30 -7 44 -3 14 3 55 4 93 2 46 -3 67 -1
67 7 0 7 -23 11 -63 11 -39 0 -70 6 -84 15 -19 13 -22 13 -27 0 -10 -28 -35
-15 -74 38 -45 61 -54 81 -41 94 6 6 2 16 -11 28 -32 29 -23 105 13 105 5 0
25 -9 43 -21z m2264 -69 c0 -15 -7 -30 -15 -34 -8 -3 -15 -10 -15 -16 0 -5 7
-10 15 -10 8 0 15 -8 15 -17 -1 -46 -30 -235 -39 -252 -6 -11 -11 -27 -11 -36
0 -21 -80 -226 -120 -307 -73 -147 -187 -284 -312 -376 -58 -43 -78 -51 -78
-31 0 6 -7 25 -15 42 -24 54 -125 362 -125 385 0 11 -4 24 -10 27 -22 14 -6
27 81 70 103 50 114 53 128 26 14 -24 65 -45 95 -37 25 6 84 102 70 115 -4 3
-9 0 -11 -6 -6 -18 -33 -16 -33 1 0 9 -7 12 -20 9 -12 -3 -20 0 -20 7 0 6 9
14 20 17 11 3 20 13 20 22 1 9 50 68 110 131 87 91 112 112 122 102 16 -16 78
-15 101 2 24 18 21 38 -8 70 -30 33 -31 39 -4 31 19 -6 20 -4 14 24 -5 22 -1
37 12 55 22 29 33 25 33 -14z m-1380 -112 c7 -24 21 -60 31 -81 11 -21 18 -48
17 -60 -2 -12 1 -22 7 -22 5 0 10 5 10 10 0 19 20 16 23 -5 2 -11 -1 -20 -7
-20 -5 0 -11 -12 -13 -27 -2 -21 -8 -28 -23 -26 -11 1 -23 -4 -27 -10 -12 -19
-9 -27 7 -21 12 5 13 1 4 -24 -17 -50 -33 -57 -83 -38 -55 21 -72 39 -54 57 7
8 14 27 15 43 1 16 6 32 12 35 5 3 12 22 16 41 3 19 7 42 9 50 14 73 31 140
36 140 4 0 13 -19 20 -42z m1108 -96 c-25 -26 -77 -80 -116 -121 -71 -74 -96
-84 -98 -40 0 13 -4 42 -8 64 -6 35 -4 45 18 68 14 15 37 28 53 29 55 3 68 5
98 13 17 5 43 16 60 26 46 28 43 13 -7 -39z m-1663 -48 c17 -13 46 -53 64 -91
19 -37 42 -77 52 -88 16 -18 24 -100 9 -93 -34 16 -160 91 -160 95 0 3 13 3
29 0 40 -8 47 4 12 19 -32 14 -43 42 -56 143 -8 59 -8 59 50 15z m1429 9 c-13
-28 -5 -125 11 -143 18 -20 19 -40 3 -40 -6 0 -21 -9 -32 -19 -31 -28 -213
-123 -219 -114 -3 4 -9 24 -15 43 -6 19 -15 50 -21 68 -9 31 -8 34 17 44 33
15 213 140 231 162 18 22 35 21 25 -1z m-1244 -125 c36 -21 77 -38 92 -38 18
0 28 -5 28 -15 0 -31 -34 -137 -46 -142 -7 -2 -35 8 -64 22 -49 25 -52 28 -47
58 3 26 -5 46 -44 103 -50 75 -53 96 -10 67 14 -9 55 -34 91 -55z m847 -125
c28 -62 42 -125 28 -120 -6 3 -38 -4 -71 -15 -38 -13 -96 -22 -164 -25 -92 -4
-111 -2 -154 16 -59 26 -73 20 -19 -8 34 -18 35 -20 13 -20 -50 -1 -214 19
-252 31 -36 11 -38 13 -33 42 11 50 26 106 29 106 36 0 156 -74 156 -97 0 -7
7 -13 15 -13 23 0 122 52 108 57 -6 2 -25 -3 -42 -11 -42 -22 -65 -20 -98 9
l-28 24 105 0 c58 0 125 4 150 9 24 6 59 8 77 5 18 -3 39 0 47 6 8 6 31 13 52
15 21 1 40 8 42 14 7 22 23 12 39 -25z m129 -383 c41 -118 74 -215 74 -215 0
0 -221 -1 -490 -3 -270 -1 -490 1 -490 5 0 4 23 102 52 217 l51 208 33 -5 c89
-15 192 -57 139 -57 -8 0 -15 -4 -15 -10 0 -5 4 -10 9 -10 5 0 7 -9 4 -19 -6
-25 35 -53 81 -54 54 -1 102 54 60 70 -9 3 -21 -3 -31 -16 -16 -24 -60 -26
-55 -3 2 9 -4 11 -18 7 -11 -4 -20 -2 -20 4 0 6 5 11 10 11 6 0 10 7 10 16 0
12 5 14 18 8 26 -12 82 -7 101 9 10 9 52 17 118 21 l102 7 16 -37 c8 -20 23
-43 33 -50 22 -17 70 -17 101 -1 34 17 37 35 6 35 -14 0 -25 -4 -25 -9 0 -5
-7 -9 -16 -9 -10 0 -14 6 -10 15 3 8 1 15 -3 15 -5 0 -11 -4 -13 -10 -4 -12
-68 26 -68 41 0 7 11 8 29 4 16 -3 32 -2 35 3 3 5 17 7 31 5 17 -4 27 0 31 11
18 46 39 5 110 -204z m203 -259 c8 0 11 -4 7 -8 -4 -5 -11 -7 -14 -7 -4 1 -23
-6 -43 -16 -102 -52 -262 -93 -499 -126 -98 -14 -99 -14 -75 -24 29 -12 -42
-12 -206 0 -265 21 -349 35 -415 69 -34 17 -65 31 -70 31 -4 0 -25 12 -45 26
-40 28 -42 50 -6 57 19 3 1328 1 1366 -2z m-1394 -96 c22 -12 73 -33 113 -46
39 -12 72 -25 72 -28 0 -4 -58 -6 -130 -6 l-130 0 0 35 c0 19 -3 46 -7 59 -5
21 -3 23 18 16 13 -4 42 -17 64 -30z"/>
<path d="M3407 5793 c-4 -3 -7 -17 -7 -31 0 -14 -4 -41 -9 -61 -5 -20 -15 -63
-21 -96 -6 -33 -18 -82 -25 -110 -8 -27 -26 -97 -39 -155 -14 -58 -39 -163
-57 -233 -29 -120 -34 -176 -9 -111 27 69 132 505 155 639 2 11 9 51 15 88 11
66 11 84 -3 70z"/>
<path d="M13260 7950 c0 -29 -2 -30 -22 -19 -27 15 -311 17 -763 6 -170 -4
-316 -7 -324 -7 -8 0 -11 -6 -7 -15 3 -8 -4 -43 -15 -77 -11 -35 -29 -101 -39
-148 -11 -47 -23 -96 -26 -109 -5 -18 -4 -22 5 -16 9 5 12 0 9 -16 -2 -14 -9
-23 -17 -21 -10 2 -12 -7 -9 -33 2 -19 1 -35 -4 -35 -4 0 -5 -7 -2 -15 4 -8 1
-15 -6 -15 -8 0 -11 -11 -8 -30 2 -16 1 -31 -4 -32 -5 -2 -11 -23 -13 -48 -2
-25 -6 -54 -9 -65 -15 -67 -49 -231 -61 -295 -8 -41 -26 -124 -39 -185 -14
-60 -33 -153 -42 -205 -19 -112 -58 -295 -78 -365 l-15 -50 4 65 c4 55 1 45
-20 -60 -73 -370 -84 -419 -131 -625 -20 -88 -37 -179 -38 -202 0 -22 -4 -39
-8 -36 -5 2 -8 1 -8 -4 0 -4 -7 -57 -14 -118 -15 -116 -38 -218 -106 -480 -36
-139 -53 -212 -100 -435 -10 -46 -17 -75 -43 -170 -14 -50 -44 -200 -51 -253
-2 -12 -6 -29 -8 -37 -11 -31 -58 -218 -72 -285 -9 -38 -25 -115 -38 -170 -14
-64 -23 -134 -23 -195 -1 -93 -17 -168 -39 -182 -8 -5 -8 -10 0 -18 15 -15 43
-2 37 18 -2 10 2 33 11 52 l14 35 7 -49 c4 -27 14 -61 21 -75 8 -14 14 -34 14
-44 0 -53 73 -149 100 -132 8 5 120 12 245 15 32 1 36 3 20 10 -13 5 25 9 103
9 80 1 121 -3 117 -9 -3 -5 -1 -10 4 -10 6 0 11 5 11 10 0 6 5 10 11 10 5 0 7
-5 4 -11 -5 -7 54 -8 201 -3 189 6 208 6 220 -10 11 -16 13 -16 19 3 5 17 12
19 58 15 37 -3 46 -2 32 5 -11 5 -30 10 -43 10 -21 1 -22 4 -16 39 4 20 12 48
19 62 7 14 11 30 8 35 -2 7 22 10 69 8 135 -5 195 -10 206 -16 5 -4 13 -1 15
5 4 10 8 10 15 -1 8 -11 34 -13 134 -8 138 7 169 13 162 32 -7 18 197 21 226
3 17 -11 40 -5 28 7 -13 13 -133 24 -238 21 -151 -4 -152 -5 -145 -15 3 -5 28
-8 55 -5 27 2 51 0 54 -5 3 -4 -27 -10 -67 -13 -98 -7 -152 -5 -152 6 0 6 19
9 41 7 24 -1 45 3 49 9 5 9 -10 10 -61 5 -78 -8 -114 -9 -270 -5 l-110 3 4 27
4 27 76 -14 c58 -12 112 -14 217 -9 223 11 256 13 262 20 6 5 -353 11 -399 7
-10 -1 -26 2 -35 8 -13 7 44 11 197 12 263 2 267 2 276 11 4 4 -92 8 -212 8
-120 -1 -234 -1 -252 0 -20 0 -31 4 -27 10 3 6 29 10 57 10 52 0 60 7 18 15
-12 2 -25 7 -29 11 -3 4 10 4 29 0 19 -3 37 -11 38 -16 5 -14 79 -13 84 1 2 7
78 10 233 9 126 0 226 2 222 6 -9 9 -76 12 -380 18 -223 4 -258 3 -253 -10 3
-7 1 -14 -4 -14 -5 0 -17 -9 -27 -19 -10 -10 -30 -19 -46 -19 -24 0 -27 3 -20
22 3 11 7 37 8 56 2 55 17 134 28 148 5 7 7 15 5 18 -3 3 -2 22 3 42 5 20 12
46 14 56 2 11 7 53 11 95 4 42 10 81 14 86 13 16 41 166 33 178 -4 7 9 8 42 4
26 -4 182 -7 346 -7 l298 0 7 -45 c3 -26 13 -52 20 -60 18 -17 18 -25 0 -25
-20 0 -4 -57 21 -76 15 -11 15 -15 4 -23 -7 -5 -9 -10 -3 -12 5 -2 12 -22 14
-44 3 -22 3 -32 1 -22 -2 9 -9 17 -15 17 -5 0 -7 -7 -4 -16 8 -20 57 -268 61
-309 4 -31 21 -66 59 -115 23 -30 31 -48 25 -56 -6 -8 0 -17 18 -29 16 -9 40
-31 55 -49 l27 -31 1 28 c0 35 -25 85 -56 113 -13 11 -38 43 -57 70 -38 56
-56 88 -34 62 23 -29 40 -22 32 12 -5 23 -3 30 9 30 9 0 18 -10 20 -22 19 -91
29 -129 37 -134 12 -7 11 12 -2 60 -6 22 -12 55 -14 73 -4 53 18 34 33 -28 6
-30 19 -83 28 -119 9 -36 18 -85 20 -110 2 -25 6 -55 10 -67 5 -19 2 -22 -33
-26 l-38 -4 42 -1 c23 -1 44 -6 48 -11 3 -6 114 -8 283 -5 152 2 385 1 516 -3
l239 -8 17 -60 c20 -72 52 -144 46 -105 -2 14 -10 54 -19 90 -9 36 -26 110
-38 165 -11 55 -27 123 -35 150 -8 28 -15 64 -18 80 -2 17 -9 44 -15 60 -14
32 -44 165 -85 365 -14 69 -42 194 -61 278 -19 84 -36 167 -38 185 -3 18 -10
46 -16 62 -10 25 -40 158 -86 390 -3 17 -8 57 -10 90 -2 33 -9 74 -15 90 -7
17 -14 46 -16 65 -1 19 -12 58 -22 87 -14 36 -16 53 -8 56 8 3 7 9 -3 20 -7 9
-14 29 -15 44 -4 44 -18 107 -27 118 -4 6 -10 28 -13 50 -3 22 -12 74 -21 115
-9 41 -19 86 -21 100 -3 14 -27 107 -54 206 -28 100 -55 203 -60 230 -5 27
-19 94 -30 149 -11 55 -33 163 -50 240 -17 77 -42 192 -55 255 -13 64 -33 154
-44 200 -28 116 -39 168 -46 215 -3 22 -17 83 -30 135 -46 185 -109 463 -141
625 -21 105 -70 207 -151 315 -38 49 -42 70 -13 70 11 0 20 5 20 11 0 7 -10 9
-25 5 -20 -5 -26 -2 -31 19 -9 35 -24 31 -24 -5z m-915 -45 c44 -4 269 -6 501
-5 l420 1 14 -28 c8 -15 29 -49 47 -76 18 -26 33 -49 33 -52 0 -3 12 -24 26
-46 14 -23 24 -43 21 -45 -2 -2 -247 -5 -543 -5 l-539 -1 -3 24 c-2 12 -4 34
-6 48 -2 14 -5 39 -7 55 -1 17 -5 -3 -8 -44 l-6 -74 -41 84 c-53 106 -84 172
-84 176 0 2 21 1 48 -1 26 -3 83 -8 127 -11z m-141 -152 c14 -35 38 -87 52
-116 l25 -54 -35 -134 c-19 -74 -38 -156 -42 -184 -12 -86 -81 -349 -93 -353
-6 -2 -11 -18 -11 -35 0 -17 -12 -88 -26 -157 -35 -166 -93 -435 -104 -485 -6
-22 -17 -83 -25 -135 -9 -52 -42 -207 -75 -345 -32 -137 -74 -326 -95 -420
-49 -232 -126 -548 -135 -558 -8 -9 -4 46 6 75 3 10 1 18 -5 18 -6 0 -12 -6
-12 -12 -2 -17 -7 -46 -14 -88 -4 -19 -6 -45 -6 -57 0 -12 -4 -25 -9 -28 -13
-8 -13 -45 -1 -45 5 0 7 -9 4 -20 -3 -11 -9 -20 -13 -20 -4 0 -7 -10 -7 -22 1
-44 -16 -123 -62 -288 -12 -41 -21 -89 -21 -107 0 -18 -4 -42 -9 -55 -5 -13
-19 -70 -31 -128 -24 -114 -47 -204 -61 -235 -6 -14 -7 -10 -2 15 3 19 7 42 8
50 5 44 18 107 26 121 8 17 39 157 65 299 9 47 18 92 21 100 7 23 8 139 0 147
-7 6 -9 -8 -12 -82 -1 -22 -5 -51 -8 -65 -12 -54 -31 -145 -31 -152 -1 -3 -5
-10 -10 -15 -5 -4 -6 5 -3 22 21 104 38 237 33 242 -3 4 -6 -3 -6 -13 0 -11
-4 -24 -9 -29 -9 -10 -41 -148 -41 -182 0 -10 -7 -26 -15 -37 -13 -17 -14 -17
-13 5 0 13 4 33 9 44 18 40 58 218 52 228 -3 5 -1 7 4 4 13 -8 23 14 23 49 0
13 5 24 10 24 6 0 10 12 10 26 0 14 5 34 10 45 6 11 8 25 4 31 -5 7 -10 3 -16
-12 -6 -15 -12 -20 -18 -14 -7 7 -5 39 5 95 22 114 23 119 46 119 12 0 17 5
14 10 -4 6 -4 19 0 28 10 23 14 52 19 147 2 44 19 143 36 220 31 140 57 269
66 335 8 55 54 272 60 281 3 5 6 21 8 36 2 16 9 48 16 73 7 25 13 52 14 60 1
8 5 26 9 40 3 14 13 59 22 100 9 41 32 140 50 220 19 80 45 204 59 275 31 160
88 429 116 550 12 50 25 110 30 135 5 25 18 79 29 120 19 69 49 222 66 328 8
52 15 47 49 -35z m1234 -208 c22 -122 33 -175 83 -385 58 -246 98 -426 145
-660 19 -96 48 -227 64 -290 47 -190 57 -240 47 -240 -8 0 0 -55 11 -75 3 -5
7 -16 8 -25 0 -8 9 -41 18 -73 10 -32 15 -69 12 -82 -4 -15 -1 -25 9 -29 8 -3
12 -12 9 -20 -3 -8 1 -41 10 -73 19 -74 26 -106 23 -114 -1 -3 4 -13 12 -22 7
-10 11 -17 7 -17 -3 0 0 -16 8 -35 8 -19 13 -35 10 -35 -3 0 0 -8 5 -19 6 -10
12 -33 14 -52 6 -47 26 -128 36 -148 5 -9 11 -34 13 -57 3 -23 8 -45 11 -50 3
-5 8 -29 12 -54 4 -25 8 -47 10 -50 2 -4 6 -29 9 -56 6 -48 5 -49 -9 -19 -8
17 -14 36 -15 44 0 8 -2 12 -5 9 -11 -11 29 -141 49 -160 19 -19 19 -20 2 -14
-15 5 -17 3 -12 -16 4 -13 9 -36 11 -53 9 -64 29 -130 42 -144 8 -8 13 -25 10
-38 -2 -12 -1 -23 3 -23 4 0 10 -12 12 -27 3 -16 9 -37 13 -47 6 -15 5 -17 -5
-11 -9 5 -7 0 3 -16 9 -13 17 -33 17 -44 0 -11 13 -76 30 -145 16 -69 37 -161
46 -205 9 -44 29 -136 45 -205 36 -154 50 -211 95 -415 72 -326 109 -468 133
-514 9 -16 -83 -17 -900 -12 l-86 1 -21 113 c-29 151 -51 279 -62 357 -25 187
-32 235 -55 345 -13 66 -25 136 -27 155 -2 29 -7 34 -23 32 -29 -5 -38 -5
-297 2 -131 4 -238 3 -238 -2 0 -12 -133 -14 -164 -2 -17 6 -34 7 -44 1 -10
-5 -45 -11 -80 -13 -34 -3 -67 -9 -71 -14 -5 -5 -21 -54 -36 -109 -14 -55 -37
-127 -50 -160 -29 -73 -73 -235 -120 -450 -3 -11 2 -6 9 10 8 17 27 81 42 143
15 61 31 112 36 112 10 0 10 -3 -1 -33 -6 -14 -13 -45 -16 -68 -3 -24 -10 -60
-15 -79 -5 -19 -12 -53 -16 -75 -8 -45 -8 -44 -18 -65 -3 -9 -6 -25 -5 -35 4
-36 -1 -66 -9 -61 -4 2 -8 -10 -8 -27 0 -18 -1 -45 -2 -61 l-2 -29 -122 7
c-68 3 -139 10 -159 15 -21 5 -43 5 -50 0 -8 -4 -19 -3 -26 3 -9 7 -115 11
-308 12 -162 0 -295 4 -295 8 0 5 15 68 34 140 45 179 125 526 128 563 2 17 5
32 8 35 14 13 36 140 27 149 -7 7 -7 14 0 23 6 7 14 33 18 58 9 53 9 54 30
150 31 136 37 165 40 185 2 11 4 21 4 23 1 1 1 4 2 7 0 2 5 19 10 37 5 18 11
58 14 88 3 30 9 69 15 85 7 24 8 16 5 -35 l-4 -65 15 45 c8 25 17 59 19 75 3
17 8 41 10 55 3 14 7 35 9 46 3 12 9 38 14 57 6 20 8 38 5 41 -3 3 -2 13 2 23
13 30 17 47 18 86 1 20 6 37 10 37 5 0 6 12 3 26 -4 15 -3 23 3 20 5 -3 8 12
8 36 -1 23 4 43 10 45 7 3 9 11 6 20 -4 11 -2 14 5 9 8 -5 12 1 13 16 0 13 2
32 5 43 2 11 6 32 8 48 3 15 9 42 15 60 6 17 12 46 13 62 1 17 4 35 7 40 3 6
13 44 22 85 9 41 27 118 39 170 12 52 23 102 25 110 1 8 5 31 9 50 17 96 43
208 62 270 7 25 23 97 35 160 11 63 34 180 50 260 17 80 39 192 50 250 21 114
24 125 70 278 17 57 33 115 35 130 6 33 9 49 17 82 4 14 32 129 63 255 31 127
60 235 65 241 5 6 7 18 4 25 -9 25 13 43 62 49 26 4 271 6 543 6 l495 -1 13
-70z"/>
<path d="M12655 6950 c-89 -24 -190 -71 -173 -81 8 -5 4 -11 -13 -17 -13 -6
-46 -26 -72 -46 -53 -41 -57 -42 -57 -21 0 18 -16 20 -26 3 -5 -7 -3 -8 7 -3
8 5 -11 -18 -41 -51 -181 -197 -262 -520 -198 -789 11 -49 21 -102 21 -117 0
-16 3 -28 8 -28 4 0 11 -9 14 -21 4 -11 26 -53 50 -93 23 -40 77 -140 120
-222 42 -82 125 -234 183 -338 l106 -189 -11 -74 c-6 -42 -18 -82 -27 -92 -13
-14 -14 -20 -4 -23 10 -4 9 -23 -5 -93 -12 -60 -14 -92 -7 -99 5 -5 10 -21 11
-35 l0 -26 11 23 c10 19 19 22 72 23 34 1 66 0 71 -2 14 -4 44 -1 81 6 29 6
35 3 57 -29 22 -33 25 -35 30 -16 5 21 38 18 34 -3 -1 -7 15 -12 41 -12 28 -1
42 3 42 12 0 7 5 13 10 13 6 0 10 -4 10 -9 0 -9 73 1 128 18 18 5 30 6 27 1
-9 -15 22 -19 116 -15 52 3 138 6 191 8 106 4 146 17 55 18 -31 0 -74 1 -94 1
-21 0 -54 -2 -73 -5 -82 -14 -136 -16 -150 -7 -13 9 -13 11 0 21 13 9 13 10
-1 6 -9 -3 -22 -1 -30 3 -11 7 -10 10 3 15 25 10 53 2 53 -15 0 -12 12 -15 50
-13 65 2 135 14 135 23 0 4 -11 5 -25 2 -14 -2 -25 0 -25 4 0 5 46 9 102 8 73
-2 97 1 84 8 -17 9 -129 12 -211 5 -40 -4 -97 13 -109 31 -6 10 -11 41 -41
254 l-16 107 44 93 c25 51 58 117 76 146 17 29 31 59 31 67 0 7 43 103 96 212
52 109 99 207 104 218 93 229 110 281 118 381 10 113 0 204 -37 323 -31 98
-106 233 -173 310 -51 58 -140 125 -194 145 -27 11 -69 31 -94 45 -25 14 -54
27 -65 28 -11 2 -47 7 -80 12 -101 16 -262 11 -340 -9z m390 -47 c73 -16 214
-76 266 -114 41 -29 25 -44 -51 -44 -46 0 -56 -2 -48 -12 11 -14 9 -16 -62
-33 -109 -27 -401 -121 -465 -150 -67 -30 -70 -31 -85 -13 -74 91 -174 203
-182 203 -12 0 -5 -9 78 -106 34 -39 70 -83 79 -98 17 -26 17 -28 -12 -69 -17
-23 -37 -55 -45 -72 -24 -47 -69 -183 -87 -260 l-17 -70 -129 -102 c-72 -56
-133 -102 -137 -102 -5 -1 -8 10 -8 23 0 13 -7 43 -16 67 -18 46 -29 265 -15
284 4 6 16 37 25 70 55 190 145 375 183 375 8 0 44 -24 81 -53 83 -66 162
-120 168 -115 2 3 -17 20 -44 38 -26 19 -75 57 -109 86 -34 28 -68 54 -75 57
-19 8 52 67 141 119 114 65 220 99 336 108 108 8 125 7 230 -17z m373 -234
c53 -65 102 -155 143 -264 26 -70 41 -297 20 -318 -8 -8 -11 -4 -11 17 0 16
-4 25 -10 21 -6 -4 -8 -16 -5 -28 2 -12 2 -16 -1 -9 -6 13 -24 17 -24 5 0 -5
7 -17 16 -28 11 -15 17 -17 23 -7 5 8 8 -4 9 -31 1 -24 -4 -51 -11 -61 -13
-17 -16 -16 -44 20 -16 22 -39 59 -50 84 -56 121 -80 177 -134 319 -33 85 -73
183 -89 218 -17 36 -30 71 -30 78 0 14 114 57 135 51 6 -1 34 -31 63 -67z
m-232 -16 c-6 -29 -35 -321 -36 -362 0 -19 -8 -11 -41 37 -91 137 -200 182
-346 142 -93 -25 -153 -59 -187 -103 -25 -33 -57 -129 -61 -179 -4 -74 -5 -75
-16 -54 -20 33 55 280 99 330 27 30 149 81 350 147 103 33 192 62 197 64 6 2
18 4 29 4 15 1 17 -4 12 -26z m67 -121 c45 -110 127 -321 127 -327 0 -3 20
-45 44 -95 25 -49 42 -90 39 -90 -3 0 -68 41 -144 90 -76 50 -143 90 -150 90
-8 0 -10 13 -5 43 17 103 25 199 25 296 1 125 10 124 64 -7z m-277 -126 c59
-27 113 -89 139 -159 23 -60 17 -151 -15 -225 -39 -92 -153 -172 -242 -172
-75 0 -197 101 -218 182 -20 73 -8 193 25 262 30 60 91 122 129 129 62 12 133
6 182 -17z m392 -351 c75 -49 138 -95 140 -102 2 -7 -81 -54 -205 -117 -115
-57 -271 -140 -347 -185 -75 -45 -142 -79 -147 -76 -5 4 -28 34 -51 67 -22 34
-66 87 -96 119 -71 75 -88 99 -70 99 8 0 7 4 -4 11 -19 10 -108 143 -108 159
0 6 7 10 17 10 12 0 10 6 -10 23 -30 25 -36 57 -11 57 10 0 14 -6 11 -15 -4
-8 -2 -17 3 -20 6 -4 10 1 10 9 0 19 16 22 18 4 14 -130 73 -227 167 -273 58
-29 192 -27 259 3 27 12 51 20 54 17 3 -3 -8 -20 -25 -38 -32 -33 -103 -145
-103 -162 0 -5 12 8 27 30 53 80 137 191 174 230 50 52 87 137 95 213 l7 61
29 -17 c16 -9 91 -57 166 -107z m-889 -87 c60 -95 132 -192 210 -282 40 -48
72 -89 69 -91 -7 -7 -146 49 -244 98 -74 37 -287 126 -331 139 -7 1 45 47 115
100 70 54 131 96 136 95 5 -2 26 -28 45 -59z m1061 -72 c0 -4 -49 -116 -98
-221 -33 -72 -91 -189 -164 -330 -15 -27 -73 -144 -129 -259 -57 -114 -109
-211 -116 -213 -7 -3 -11 -8 -9 -12 3 -4 -15 -36 -40 -72 -24 -35 -44 -68 -44
-72 0 -5 -9 -22 -21 -38 -14 -21 -17 -29 -7 -30 10 0 10 -2 1 -6 -7 -2 -13
-10 -13 -17 0 -7 -6 -21 -14 -32 -13 -17 -15 3 -16 161 -2 207 -4 274 -13 400
-4 50 -9 156 -12 236 l-4 146 117 69 c106 63 254 140 402 209 54 25 120 58
150 75 16 9 30 12 30 6z m-1313 -101 c28 -14 235 -104 452 -196 62 -26 116
-51 120 -54 3 -4 7 -21 7 -38 17 -356 26 -561 30 -687 2 -85 6 -173 9 -195 5
-37 4 -39 -10 -21 -8 11 -15 26 -15 33 0 7 -4 13 -10 13 -5 0 -10 7 -10 15 0
19 -31 78 -91 170 -25 39 -68 111 -96 160 -27 50 -89 158 -138 240 -48 83
-127 227 -176 322 -49 94 -98 187 -109 205 -11 18 -20 36 -20 41 0 12 26 8 57
-8z"/>
<path d="M5381 7937 c-24 -18 -62 -49 -84 -69 -41 -39 -57 -46 -57 -27 0 5 -5
7 -10 4 -6 -4 -7 -11 -4 -17 14 -23 -177 -188 -220 -188 -18 -1 -19 -2 -5 -10
14 -8 15 -18 6 -67 -12 -69 -14 -901 -4 -1318 11 -423 13 -1601 4 -1960 -4
-170 -9 -371 -11 -445 -2 -84 1 -140 7 -148 11 -13 14 -252 9 -671 -1 -113 1
-208 5 -212 15 -14 186 -30 267 -25 44 3 82 2 86 -3 6 -11 460 -20 460 -9 0 9
94 28 143 28 24 0 49 -6 55 -12 9 -9 15 -10 20 -2 4 7 35 15 70 19 74 8 75 17
3 17 -28 -1 -51 1 -51 3 0 15 212 281 248 312 19 16 23 25 15 35 -6 7 -13 22
-16 33 -2 11 -3 5 -1 -12 5 -54 -13 -37 -20 19 -5 33 -4 54 3 56 18 6 23 64
12 142 -9 69 -22 820 -15 820 12 0 81 -160 115 -268 23 -70 79 -246 125 -392
177 -553 238 -735 251 -751 21 -25 16 -29 -43 -29 -34 0 -53 -4 -49 -10 8 -13
491 -12 660 1 204 17 537 25 556 14 5 -4 18 -23 29 -43 10 -20 20 -31 20 -24
4 38 2 80 -4 90 -7 11 61 113 85 127 16 11 -2 -22 -40 -69 -17 -22 -29 -41
-26 -44 3 -3 6 -3 8 -1 13 19 76 87 79 84 2 -2 4 7 4 20 1 13 11 36 23 51 12
15 21 32 21 39 0 7 6 18 14 24 8 7 22 28 31 47 13 29 20 34 38 28 18 -5 20 -4
10 7 -7 7 -13 23 -13 36 0 13 -16 58 -36 100 -20 43 -47 107 -61 143 -13 36
-33 83 -43 105 -10 22 -28 65 -40 95 -11 30 -25 64 -30 75 -5 11 -37 90 -70
175 -34 85 -71 178 -82 205 -11 28 -29 77 -40 110 -10 33 -23 69 -27 80 -5 11
-18 45 -29 75 -11 30 -34 92 -51 137 -52 138 -63 175 -58 194 3 10 -2 20 -10
23 -8 3 -12 10 -9 15 6 10 -20 78 -98 253 -31 70 -56 132 -56 138 0 7 -7 10
-14 7 -20 -8 -31 29 -16 48 7 8 20 17 31 20 10 4 19 12 19 18 0 7 16 27 35 46
19 18 52 53 72 79 21 25 65 73 99 107 57 56 110 128 116 157 2 7 9 19 16 26 7
8 10 17 7 21 -6 6 -14 -3 -51 -53 -29 -42 -19 -8 18 59 31 56 37 64 33 38 -9
-53 10 -38 30 25 10 31 19 64 20 72 1 8 5 22 8 30 29 77 53 224 62 385 3 55
10 161 15 235 4 74 8 149 8 165 0 64 -29 214 -58 303 -16 50 -30 99 -30 107 0
8 -3 15 -8 15 -13 0 -67 139 -57 148 3 3 5 0 5 -6 0 -7 5 -12 10 -12 15 0 12
14 -9 36 -10 11 -22 31 -26 45 -4 13 -13 31 -19 39 -6 8 -20 31 -30 50 -11 19
-22 37 -25 40 -4 3 -23 25 -44 49 -38 46 -50 74 -20 50 15 -13 15 -12 5 6 -15
30 -108 114 -185 169 -86 61 -311 175 -404 205 -40 13 -78 30 -84 38 -8 9 -15
10 -19 4 -4 -7 -55 1 -145 23 -186 45 -319 60 -500 57 -82 -1 -317 -3 -521 -4
-349 -2 -371 -1 -366 16 6 22 6 22 -47 -16z m634 -39 c99 1 217 4 263 7 106 7
286 -10 380 -36 39 -11 76 -17 82 -14 5 3 18 -3 29 -14 11 -11 33 -23 48 -27
30 -6 113 -35 176 -61 54 -23 56 -9 3 17 -25 12 -48 25 -51 30 -12 19 160 -41
252 -88 35 -18 64 -31 65 -30 2 2 17 -7 35 -20 17 -12 34 -22 37 -22 18 0 126
-74 126 -86 0 -8 4 -12 10 -9 14 9 102 -77 143 -138 81 -123 107 -167 113
-193 6 -22 4 -26 -9 -21 -11 4 -14 2 -10 -8 3 -8 9 -13 13 -10 5 3 18 -21 29
-52 12 -32 26 -67 31 -78 33 -73 69 -178 75 -225 4 -30 11 -61 15 -70 9 -17
27 -124 31 -185 4 -60 3 -263 -1 -317 -4 -45 -20 -69 -20 -30 0 10 -3 22 -7
26 -11 11 -9 50 3 62 6 7 9 25 7 40 -9 96 -9 115 -1 120 5 3 2 17 -7 30 -8 13
-11 24 -5 24 5 0 10 5 10 11 0 5 -4 7 -10 4 -5 -3 -10 -1 -10 4 0 6 -5 11 -12
11 -9 0 -9 -3 -1 -11 6 -6 9 -18 6 -26 -4 -11 -8 -12 -13 -2 -7 10 -11 9 -22
-2 -17 -18 -39 -87 -29 -94 5 -2 13 14 20 36 19 64 36 43 36 -45 0 -42 -3 -84
-7 -94 -4 -9 -7 -13 -7 -9 -1 5 -6 5 -12 1 -8 -4 -7 -9 2 -15 11 -6 11 -11 1
-21 -6 -6 -12 -21 -12 -31 0 -16 3 -17 14 -8 12 10 13 9 9 -8 -3 -11 -10 -18
-16 -15 -8 3 -12 -10 -12 -35 0 -21 3 -37 8 -34 4 2 7 13 7 23 0 10 5 22 10
25 6 3 10 -3 10 -15 0 -14 4 -19 13 -15 6 4 4 0 -5 -8 -10 -8 -18 -19 -18 -24
0 -6 -7 -16 -15 -23 -8 -7 -15 -24 -15 -39 0 -15 -6 -33 -12 -40 -8 -9 -8 -11
-2 -8 7 4 14 1 17 -7 3 -8 -5 -18 -20 -25 -22 -10 -25 -9 -20 4 4 8 2 15 -3
15 -6 0 -6 9 0 24 5 13 6 26 4 29 -3 3 -1 14 5 25 7 13 7 22 -1 30 -8 8 -6 18
6 36 12 19 13 26 4 26 -14 0 -16 16 -19 183 -2 67 -6 93 -12 81 -12 -22 -27
-1 -27 40 0 16 -7 34 -15 40 -9 7 -16 36 -19 81 -2 39 -7 77 -9 85 -3 8 -13
44 -22 80 -20 76 -22 83 -66 175 -34 73 -112 200 -129 210 -6 4 -8 11 -5 16 4
5 1 9 -5 9 -5 0 -18 13 -28 28 -9 16 -23 27 -29 25 -7 -3 -13 -1 -13 4 0 12
-128 118 -212 177 -132 91 -305 164 -478 201 -180 38 -224 44 -385 56 -170 12
-346 9 -710 -10 -104 -5 -262 -12 -350 -15 l-160 -6 35 28 c54 42 180 151 238
205 l53 49 212 -8 c117 -5 293 -8 392 -6z m403 -292 c350 -50 561 -122 752
-257 92 -64 117 -88 205 -193 22 -27 56 -67 76 -90 79 -92 127 -226 200 -555
16 -73 18 -133 5 -121 -7 5 -11 -2 -12 -21 -1 -25 2 -28 18 -23 19 6 20 1 14
-223 -5 -225 -8 -264 -19 -293 -4 -8 -6 -22 -5 -30 3 -34 -3 -50 -18 -50 -11
0 -14 6 -9 23 6 21 5 21 -6 3 -10 -16 -9 -22 3 -30 14 -8 14 -17 -3 -80 -30
-110 -48 -156 -111 -280 -58 -116 -90 -158 -171 -224 -83 -68 -234 -172 -250
-172 -6 0 -7 -3 -4 -6 13 -13 -14 -43 -50 -55 l-38 -14 39 -5 c38 -5 40 -7 76
-90 20 -47 44 -101 53 -120 34 -75 107 -259 137 -350 18 -52 58 -154 91 -227
88 -199 122 -284 116 -289 -6 -6 -28 33 -222 396 -87 162 -169 315 -183 340
-13 25 -60 115 -103 200 -43 85 -85 166 -94 180 -8 14 -85 151 -169 305 -85
154 -166 299 -180 321 -29 47 -31 54 -13 54 18 1 75 83 112 164 50 107 68 221
66 405 -1 149 -6 182 -38 281 -34 106 -96 190 -203 274 l-35 27 35 -16 c31
-14 33 -14 15 0 -124 97 -232 122 -410 94 -154 -25 -143 -22 -111 -28 l29 -6
-2 -123 c-1 -68 -5 -134 -7 -145 -6 -30 -5 -810 2 -917 2 -47 7 -91 9 -98 3
-7 0 -23 -6 -34 -15 -28 2 -38 66 -38 150 0 281 33 391 101 58 35 61 36 73 18
6 -11 50 -93 98 -182 47 -89 100 -187 118 -217 18 -30 79 -145 135 -255 115
-223 189 -362 325 -605 51 -91 121 -219 157 -285 36 -66 95 -175 132 -241 36
-67 66 -124 66 -128 0 -3 9 -25 19 -49 50 -110 181 -451 178 -461 -3 -9 -170
314 -377 734 -41 83 -136 264 -267 510 -22 41 -109 208 -193 370 -84 162 -156
299 -161 304 -16 18 -9 -5 15 -47 13 -23 75 -143 138 -267 152 -297 271 -527
323 -625 23 -44 172 -336 329 -650 158 -313 297 -590 311 -614 13 -25 23 -47
21 -49 -3 -2 -141 -6 -308 -8 -167 -2 -323 -5 -348 -8 -25 -2 -128 -5 -230 -7
l-184 -4 -7 40 c-4 22 -21 78 -37 125 -76 221 -318 976 -349 1090 -8 30 -27
68 -42 85 -15 17 -44 70 -64 117 -36 83 -37 90 -41 233 -4 143 -4 147 15 142
15 -4 19 -1 17 11 -2 10 -15 18 -32 20 l-29 4 6 -126 c3 -74 2 -126 -3 -126
-5 0 -27 32 -47 72 -23 43 -63 98 -100 135 -35 35 -64 69 -65 76 0 6 -2 17 -2
22 -2 11 -28 45 -68 87 -25 26 -32 28 -108 28 -101 0 -130 -14 -165 -79 -18
-32 -32 -48 -41 -44 -8 3 -14 1 -14 -5 0 -6 5 -12 11 -14 6 -2 -1 -26 -16 -61
l-27 -57 20 -58 c15 -42 26 -58 41 -60 13 -2 21 2 21 10 0 11 24 14 118 13 64
0 125 -4 135 -9 28 -13 47 1 47 35 0 18 3 29 7 25 11 -11 9 -1696 -2 -1698 -5
-1 -223 -3 -482 -3 l-473 0 5 428 5 428 115 227 c175 346 339 656 403 762 14
23 14 24 0 10 -27 -25 -279 -484 -437 -795 -94 -186 -93 -185 -85 -95 7 79 6
77 114 265 56 96 220 385 302 530 22 39 57 97 78 130 21 33 73 121 115 195
139 240 277 474 297 503 22 32 19 47 -4 20 -51 -60 -632 -1032 -812 -1361 -43
-78 -83 -145 -87 -148 -5 -3 -10 34 -10 83 -3 213 3 1669 7 1675 7 11 6 617
-1 988 -3 184 -8 457 -10 605 -3 149 -6 281 -7 295 -2 17 2 25 12 25 8 0 20 3
25 6 6 4 48 2 95 -3 82 -9 277 -4 520 12 185 12 599 5 728 -14z m-29 -829 c24
-12 74 -52 110 -90 142 -146 190 -278 191 -522 0 -103 -25 -249 -53 -317 -9
-20 -28 -43 -44 -51 -113 -58 -350 -79 -318 -28 12 20 4 862 -9 998 l-5 43 42
-6 c23 -2 61 -15 86 -27z m-314 -404 c3 -27 7 -62 10 -80 2 -17 -1 -33 -7 -35
-14 -5 -2 -58 13 -58 17 0 58 51 52 66 -3 8 -9 12 -14 9 -4 -3 -6 -12 -2 -20
3 -8 0 -15 -7 -15 -10 0 -11 13 -6 53 4 28 8 60 8 70 -1 9 2 17 6 17 15 0 29
-51 28 -99 -2 -51 -18 -81 -42 -81 -8 0 -14 -7 -14 -15 0 -17 17 -20 22 -4 2
7 12 7 31 0 21 -8 27 -8 27 3 0 8 -6 16 -12 19 -9 3 -8 10 6 23 13 14 17 15
14 4 -3 -8 -1 -23 3 -32 7 -12 3 -22 -11 -36 -21 -20 -18 -52 4 -52 7 0 13 -6
13 -12 0 -7 4 -21 8 -30 4 -11 3 -18 -4 -18 -6 0 -13 11 -17 25 -3 14 -13 25
-21 25 -9 0 -13 6 -9 15 3 9 0 15 -9 15 -17 0 -20 -16 -5 -25 6 -4 8 -11 5
-16 -4 -5 1 -9 9 -9 9 0 16 -9 16 -20 0 -11 5 -20 11 -20 5 0 8 -4 5 -9 -4 -5
-1 -11 6 -13 6 -2 15 -31 19 -64 4 -32 10 -78 14 -101 5 -27 4 -43 -2 -43 -11
0 -21 43 -30 130 -3 34 -12 61 -23 72 -24 23 -42 5 -29 -29 5 -14 7 -29 3 -34
-3 -5 0 -9 5 -9 6 0 11 5 11 10 0 6 4 10 8 10 4 0 8 -9 8 -20 0 -12 -6 -19
-15 -17 -23 3 -21 -52 2 -73 17 -17 17 -18 0 -24 -15 -6 -15 -8 -3 -17 13 -8
13 -10 0 -19 -8 -5 -10 -10 -5 -10 6 0 10 -15 10 -32 0 -26 4 -32 18 -30 29 5
19 -11 -47 -75 -35 -34 -66 -68 -69 -75 -4 -10 -8 -10 -16 2 -10 14 -5 135 6
153 2 4 -1 14 -7 22 -10 11 -10 15 -1 15 7 0 9 5 5 12 -8 13 -6 327 2 376 4
17 11 32 16 32 6 0 7 -11 4 -25 -4 -15 -2 -25 4 -25 6 0 8 5 5 10 -3 6 1 10 9
10 10 0 13 -6 10 -15 -4 -8 -1 -15 5 -15 12 0 16 40 4 40 -5 1 -19 10 -32 21
-23 19 -25 26 -25 130 -1 113 8 144 19 62z m1161 -1413 c1 -16 13 -47 27 -67
14 -21 42 -76 63 -123 21 -47 44 -92 51 -101 7 -8 13 -19 13 -23 0 -5 19 -47
41 -95 107 -222 122 -258 121 -281 -1 -15 1 -19 5 -10 3 8 11 18 16 22 7 4 5
15 -5 30 -21 31 -93 202 -106 250 -6 21 -7 40 -3 42 7 5 27 -30 75 -134 37
-79 79 -150 85 -145 2 3 -1 11 -7 17 -15 15 -16 51 -1 46 13 -4 46 -65 53
-100 4 -16 11 -27 16 -25 6 1 17 -9 24 -23 16 -27 57 -128 60 -145 1 -5 9 -23
17 -40 27 -52 62 -155 55 -162 -3 -3 -6 -1 -6 5 0 7 -6 12 -12 12 -7 -1 -2
-10 11 -21 23 -18 60 -93 96 -190 7 -20 25 -61 38 -90 14 -30 42 -94 62 -144
20 -49 39 -97 43 -105 5 -13 3 -13 -11 -1 -9 7 -17 10 -17 7 0 -11 40 -86 46
-86 2 0 0 9 -6 21 -6 11 -9 25 -7 32 2 7 10 -6 17 -28 7 -22 16 -44 21 -49 5
-6 9 -15 9 -20 0 -6 -9 0 -20 14 l-20 25 11 -33 c7 -22 16 -31 25 -28 9 3 16
-4 20 -20 7 -27 -21 -89 -59 -129 -28 -30 -97 -125 -121 -167 -11 -21 -24 -38
-27 -38 -4 0 -12 21 -19 48 -7 26 -18 61 -25 77 -7 17 -17 43 -24 58 -6 16 -9
33 -6 38 7 10 -19 70 -47 111 -11 16 -16 32 -13 38 3 5 2 10 -2 10 -5 0 -17
24 -27 53 -10 28 -26 70 -36 92 -10 22 -21 56 -25 75 -4 19 -22 67 -40 105
-47 102 -144 350 -149 385 -1 8 -18 49 -37 90 -34 70 -102 242 -163 405 -22
61 -23 67 -6 46 26 -30 25 -24 -4 38 -12 28 -27 47 -31 43 -5 -4 -6 -2 -3 3 3
6 -16 53 -43 105 -103 200 -112 221 -100 247 14 31 30 29 29 -4 -1 -47 22
-113 60 -177 66 -109 125 -239 127 -281 2 -37 49 -186 65 -210 4 -5 24 -50 43
-100 20 -49 50 -117 66 -150 16 -33 26 -61 22 -63 -7 -2 29 -111 59 -177 5
-11 23 -54 40 -95 17 -41 37 -84 44 -95 7 -11 25 -61 40 -110 15 -50 32 -99
38 -110 7 -11 18 -33 27 -50 8 -16 16 -24 18 -18 2 6 -8 35 -23 65 -16 29 -27
57 -26 62 4 11 -54 159 -89 228 -16 32 -39 84 -50 115 -12 32 -32 82 -45 111
-27 58 -28 62 -16 62 5 0 19 -24 32 -52 29 -64 61 -120 66 -115 2 2 -23 55
-57 117 -76 142 -84 161 -62 153 11 -4 14 -3 9 5 -4 7 -13 12 -21 12 -8 0 -11
8 -8 23 4 17 2 19 -6 7 -8 -12 -11 -12 -17 4 -11 28 18 40 33 13 7 -12 12 -17
12 -12 0 17 -28 61 -29 45 0 -10 -7 -7 -23 10 -26 27 -59 107 -64 154 -3 24
-1 27 12 16 8 -7 15 -17 15 -23 0 -23 43 -126 51 -121 5 3 5 13 0 22 -16 29
-48 115 -62 164 -7 26 -16 45 -20 42 -4 -2 -15 10 -24 28 -25 48 -55 148 -44
148 5 0 9 8 9 17 0 14 2 15 13 4 10 -11 10 -14 0 -18 -14 -5 -18 -23 -5 -23 4
0 14 4 22 10 12 8 12 12 0 37 -8 15 -17 30 -20 33 -5 5 -43 81 -45 90 -2 11
-78 156 -87 168 -6 6 -7 12 -2 12 5 0 3 4 -5 9 -20 13 -26 62 -9 72 7 5 13 9
13 9 0 0 0 -13 1 -30z m-1286 -209 c25 -48 19 -51 -115 -51 -73 0 -125 4 -125
10 0 5 5 21 12 35 11 24 14 25 114 25 92 0 104 -2 114 -19z m67 -67 c2 -5 -4
-19 -13 -29 -15 -20 -15 -20 -11 3 6 27 -9 30 -16 2 -3 -11 -1 -20 4 -20 24 0
-5 -97 -32 -105 -11 -4 -79 -7 -151 -7 -112 -1 -133 2 -143 16 -14 19 -7 64
17 110 l15 30 114 -2 c63 -1 132 2 154 7 46 10 57 9 62 -5z m159 -821 c5 -84
7 -103 19 -145 10 -39 25 -35 20 5 -2 17 -7 56 -11 85 -4 33 -3 52 4 52 6 0
13 -38 16 -87 3 -49 11 -129 16 -180 12 -108 12 -140 0 -103 -7 23 -8 22 -9
-11 -1 -19 4 -40 11 -47 9 -9 9 -12 0 -12 -16 0 -15 -27 1 -33 9 -4 9 -8 1
-14 -7 -4 -14 -28 -18 -52 -7 -51 -19 -70 -16 -26 4 53 0 75 -11 75 -8 0 -9
-21 -5 -67 4 -38 9 -98 12 -135 5 -59 8 -65 21 -53 11 11 14 35 11 95 -2 66
-1 77 10 63 6 -9 12 -36 12 -59 0 -25 5 -44 13 -47 17 -5 -3 -40 -59 -101 -25
-27 -52 -59 -61 -72 -8 -13 -18 -24 -22 -24 -3 0 -7 30 -8 68 -1 37 -8 105
-16 152 -8 47 -14 110 -12 140 1 30 4 107 5 170 3 152 17 79 19 -100 2 -158
11 -270 23 -270 5 0 7 8 4 18 -3 9 -8 127 -11 262 -7 264 -7 261 -2 305 2 17
5 44 6 60 l3 30 8 -30 c5 -20 8 5 9 74 1 120 11 128 17 14z"/>
<path d="M6404 5389 c-14 -15 -19 -36 -18 -74 0 -60 17 -90 43 -76 9 5 51 8
94 7 l77 -2 0 32 c0 42 -33 119 -55 128 -9 3 -40 6 -69 6 -41 0 -57 -5 -72
-21z"/>
<path d="M5986 5324 c-33 -33 -58 -95 -52 -129 8 -40 33 -66 46 -45 6 9 24 11
69 7 35 -3 59 -1 55 4 -3 5 0 9 5 9 6 0 11 -5 11 -11 0 -6 10 -9 23 -7 22 3
26 15 28 81 0 16 -8 45 -19 65 -19 36 -20 37 -84 40 -51 2 -70 -1 -82 -14z"/>
<path d="M6513 4880 c-13 -5 -23 -13 -23 -18 0 -5 -16 -27 -36 -50 -36 -43
-37 -50 -3 -32 22 12 25 5 6 -14 -7 -7 -18 -11 -25 -8 -6 2 -12 -4 -12 -14 0
-28 42 -188 53 -201 13 -18 47 -16 47 1 0 23 19 29 37 11 14 -14 14 -18 2 -26
-9 -6 3 -9 36 -8 45 0 48 1 25 12 -24 10 -23 11 20 17 25 4 38 8 30 10 -8 1 1
6 20 10 38 9 50 6 50 -15 0 -7 8 -16 17 -20 44 -16 77 99 48 168 -9 21 -13 47
-10 58 4 13 2 19 -9 19 -8 0 -24 16 -36 35 -38 62 -64 75 -144 74 -39 0 -81
-4 -93 -9z m181 -16 c39 -15 8 -24 -84 -24 -60 0 -100 -4 -100 -10 0 -6 42
-10 105 -10 l104 0 16 -29 c8 -17 12 -31 7 -33 -4 -2 -59 -2 -123 0 l-116 3 0
42 c-1 23 4 48 9 55 11 13 152 18 182 6z m80 -136 c41 -65 24 -123 -35 -119
-19 1 -66 3 -105 5 -39 1 -76 6 -82 10 -8 5 -10 2 -6 -8 5 -12 -1 -16 -24 -16
-17 0 -34 6 -39 13 -14 21 -33 81 -33 104 0 22 1 22 120 19 67 -2 133 0 148 4
40 12 40 12 56 -12z"/>
<path d="M6905 3794 c-92 -23 -134 -67 -142 -146 -2 -24 -10 -49 -18 -58 -14
-13 -15 -11 -9 20 4 19 11 41 17 48 14 18 2 26 -20 14 -19 -11 -25 -52 -27
-207 0 -68 4 -89 27 -138 16 -32 33 -86 39 -120 6 -34 15 -68 21 -76 28 -34
97 -34 97 0 0 10 8 22 18 28 23 12 73 6 83 -11 7 -10 9 -10 9 0 0 7 13 12 31
12 19 0 28 -4 24 -11 -4 -6 -1 -10 6 -8 8 1 34 0 59 -1 36 -2 40 -3 20 -9 -14
-4 -45 -3 -70 1 -34 6 -58 4 -97 -10 l-50 -18 125 4 c79 3 123 1 119 -5 -4 -6
14 -7 51 -1 31 5 75 10 97 11 34 2 41 6 56 37 10 19 20 43 23 52 3 10 22 24
42 33 20 8 35 18 31 21 -3 3 -14 1 -25 -5 -12 -6 -25 -11 -30 -11 -12 0 -2 63
12 72 8 5 7 8 -1 8 -7 0 -13 10 -13 23 0 13 -11 46 -25 73 -39 74 -55 115 -44
109 13 -8 39 13 39 31 0 8 -7 14 -16 14 -8 0 -12 -4 -9 -10 6 -9 2 -11 -24
-14 -5 -1 -32 44 -60 99 -66 134 -90 149 -241 152 -58 1 -114 -1 -125 -3z
m262 -44 c30 -18 60 -57 50 -66 -2 -3 -26 0 -53 6 -27 6 -105 10 -174 9 l-125
-2 -17 -36 c-10 -20 -17 -48 -18 -63 0 -15 -5 -30 -11 -33 -13 -9 -3 54 17
108 10 28 11 43 4 58 -8 14 -8 20 2 23 7 3 20 7 28 9 8 3 71 6 140 6 107 1
130 -2 157 -19z m23 -87 c28 -5 36 -14 61 -69 16 -35 29 -65 29 -66 0 -4 -214
-4 -339 0 l-94 2 7 61 c3 33 8 65 12 70 6 10 274 12 324 2z m-394 -163 c7 0
15 -6 17 -12 2 -7 3 0 1 16 -3 25 -2 27 11 16 10 -8 69 -16 158 -22 131 -7
190 -6 289 8 36 5 36 5 66 -58 45 -97 53 -129 42 -168 -7 -25 -20 -41 -45 -54
-31 -17 -39 -18 -75 -6 -56 18 -292 19 -314 1 -20 -17 -104 -9 -117 10 -5 8
-14 32 -20 54 -5 22 -23 65 -38 95 -16 30 -32 79 -36 109 l-7 54 27 -21 c15
-12 34 -22 41 -22z"/>
<path d="M5425 3751 c-22 -4 -50 -12 -61 -19 -32 -17 -81 -77 -109 -132 -23
-46 -28 -50 -60 -50 -40 0 -44 -14 -15 -45 19 -21 19 -21 -20 -86 -30 -49 -41
-79 -46 -124 -5 -54 -2 -67 30 -136 l35 -76 118 -1 c65 -1 171 -4 236 -8 84
-5 117 -3 117 5 0 6 -4 11 -10 11 -5 0 -10 7 -10 15 0 11 -12 13 -52 10 -29
-2 -114 -5 -188 -7 -114 -2 -135 -1 -138 12 -2 13 26 15 208 15 134 0 209 -4
208 -10 -1 -5 2 -22 6 -37 7 -23 14 -28 41 -28 18 0 38 7 46 16 7 8 26 22 42
30 16 9 26 18 23 21 -3 3 -12 0 -21 -7 -22 -18 -27 -8 -20 34 6 29 12 36 30
36 12 0 29 8 36 17 13 15 11 16 -18 10 -32 -6 -32 -6 -21 24 7 19 15 28 24 25
21 -8 44 4 44 22 0 13 -3 12 -14 -4 -8 -10 -18 -15 -22 -11 -5 4 -4 11 1 15 6
4 10 67 10 143 0 111 -3 140 -16 155 -9 11 -33 47 -54 81 -26 44 -46 65 -69
73 -38 14 -236 22 -291 11z m280 -29 c6 -4 11 -29 12 -57 1 -42 0 -46 -9 -28
-15 31 -57 38 -230 38 -139 0 -146 1 -131 18 9 9 30 21 47 26 38 11 297 14
311 3z m-43 -83 c28 -11 44 -45 50 -104 l3 -30 -224 3 c-124 1 -226 3 -227 5
-1 1 12 31 30 67 22 44 39 66 55 70 37 9 284 0 313 -11z m164 -176 c-3 -21 -6
-46 -6 -55 0 -9 -7 -23 -15 -31 -8 -8 -23 -54 -34 -102 -20 -92 -27 -107 -40
-86 -7 10 -13 11 -31 1 -15 -8 -97 -12 -267 -12 -228 0 -247 1 -271 19 -15 11
-28 32 -30 46 l-3 25 38 -19 c40 -21 63 -24 63 -10 0 5 -15 12 -34 15 -19 4
-39 13 -46 21 -19 23 -2 86 41 150 l39 58 258 -1 257 -2 0 -47 c-1 -94 -12
-156 -32 -171 -10 -7 -34 -12 -56 -10 -22 2 -36 -1 -34 -7 5 -15 86 -18 104
-4 8 7 19 23 23 34 8 22 23 130 24 178 1 28 19 47 45 47 10 0 12 -9 7 -37z"/>
<path d="M8408 7948 c4 -4 44 -8 89 -10 46 -2 83 -5 83 -7 0 -13 -276 -285
-287 -283 -12 3 -13 -104 -7 -745 4 -411 7 -770 8 -798 1 -48 0 -50 -39 -71
-36 -19 -40 -24 -37 -54 3 -35 31 -65 46 -50 6 6 5 19 -4 34 -17 32 -7 56 25
56 l25 0 0 -208 c0 -169 -3 -212 -15 -227 -8 -11 -23 -30 -32 -43 -25 -32 -57
-21 -48 16 l6 26 -18 -21 c-14 -17 -23 -20 -42 -12 l-24 9 20 23 c11 12 28 37
39 55 10 17 22 32 26 32 11 0 10 -18 -2 -25 -5 -3 -10 -11 -10 -18 0 -6 10 -1
23 11 17 18 19 24 8 31 -8 5 -9 11 -3 15 6 3 12 0 15 -6 2 -7 8 -9 13 -5 5 4
2 12 -5 17 -21 13 -74 -27 -96 -72 -22 -46 -34 -56 -46 -37 -13 21 -12 23 41
86 53 62 63 93 30 93 -11 0 -20 4 -20 10 0 5 -11 12 -24 16 -27 6 -42 32 -27
47 5 5 33 15 63 22 29 7 52 17 50 24 -1 6 3 10 9 9 22 -5 20 20 -2 27 -16 5
-27 2 -38 -13 -9 -10 -31 -22 -50 -26 -41 -8 -71 -32 -71 -58 0 -23 52 -78 74
-78 23 0 21 -5 -24 -61 -22 -28 -43 -63 -47 -77 -7 -28 12 -70 37 -83 49 -25
84 -38 92 -33 8 5 4 -26 -8 -65 -2 -8 3 -25 12 -38 14 -22 20 -24 60 -18 l44
6 -6 -43 c-4 -24 -14 -51 -23 -62 -11 -13 -15 -34 -14 -75 3 -54 1 -57 -39
-92 -34 -30 -39 -38 -30 -55 8 -15 6 -24 -9 -43 -23 -28 -24 -44 -4 -61 17
-14 55 -4 55 16 0 8 5 14 11 14 6 0 8 -8 4 -19 -4 -13 2 -25 19 -39 l26 -20
-6 -768 c-3 -423 -5 -892 -6 -1042 l0 -272 -37 -1 c-33 -2 -33 -2 -6 -6 17 -2
37 -6 45 -9 27 -9 -12 -24 -47 -18 -21 4 -33 2 -33 -5 0 -6 18 -11 44 -11 l44
0 7 -55 c9 -74 28 -72 23 2 l-3 58 250 7 c293 9 801 10 965 3 238 -11 490 -14
400 -5 -47 4 -119 9 -160 10 -63 2 -69 3 -40 10 19 4 233 11 475 14 503 7 466
6 484 12 11 3 11 7 1 19 -10 12 -9 15 4 15 9 0 16 -7 16 -16 0 -9 7 -14 18
-13 9 1 25 -1 35 -6 14 -6 26 0 47 23 15 17 36 30 46 30 11 -1 38 2 61 6 35 6
44 5 49 -8 12 -30 74 -13 74 20 0 7 -8 10 -20 7 -11 -3 -20 -9 -20 -14 0 -4
-13 0 -30 9 -29 16 -29 17 -7 23 13 3 -17 10 -73 18 -183 25 -174 30 63 34 32
1 44 4 37 11 -9 9 -49 12 -174 15 -16 1 -26 4 -23 8 6 5 82 10 216 12 13 1 21
4 18 8 -8 7 -178 14 -331 14 -75 0 -96 3 -87 12 6 6 28 10 48 9 20 -2 39 1 42
7 7 10 32 14 81 11 28 -1 31 -3 15 -9 -19 -8 -18 -9 5 -12 14 -3 43 -1 65 3
22 4 70 7 107 8 37 0 70 5 73 10 3 6 -2 11 -12 11 -10 1 -31 3 -48 4 -92 9
-225 18 -262 18 -50 -1 -53 7 -16 37 15 11 53 51 85 88 86 99 159 253 227 482
13 41 27 86 31 100 10 27 60 268 66 313 2 15 5 31 8 35 7 12 20 94 21 134 0
20 3 34 6 33 11 -8 9 103 -7 255 -8 85 -17 157 -19 160 -2 3 -11 48 -20 100
-19 107 -17 99 -34 160 -7 25 -12 47 -11 49 1 2 -2 7 -7 10 -15 11 -74 131
-69 140 3 5 -1 15 -10 22 -9 7 -34 40 -56 73 -50 75 -167 216 -179 216 -17 0
-9 16 21 46 16 16 30 37 30 46 0 9 11 25 25 36 14 11 25 25 25 31 0 5 9 15 20
21 11 6 18 15 15 20 -4 6 1 20 9 32 9 12 13 31 10 43 -3 12 4 51 15 86 12 36
23 74 25 86 3 12 10 31 16 43 6 12 8 34 5 52 -7 28 -5 29 16 23 21 -7 22 -6
11 7 -9 12 -10 27 -3 57 5 23 8 54 6 69 -4 26 0 61 26 247 21 153 14 356 -15
427 -19 47 -31 132 -17 123 15 -9 14 -5 -14 51 -14 27 -32 81 -41 121 -9 41
-24 79 -35 89 -21 19 -26 49 -6 39 6 -4 3 1 -8 10 -11 9 -20 19 -20 23 -1 16
-37 70 -75 111 -22 25 -38 47 -35 49 2 2 21 -6 41 -19 21 -12 34 -17 30 -11
-4 7 -28 23 -54 36 -26 14 -68 45 -94 70 -26 25 -52 46 -58 46 -5 0 -10 6 -10
13 0 12 -26 28 -185 113 -97 52 -78 58 30 9 43 -20 80 -34 82 -31 7 7 -85 52
-137 67 -25 7 -49 16 -54 21 -17 14 -29 9 -16 -7 7 -8 8 -15 2 -15 -5 0 -16 8
-23 19 -12 15 -90 40 -214 66 -11 2 -45 10 -75 19 -30 8 -59 12 -64 9 -5 -4
-6 -1 -3 4 4 6 -12 13 -41 16 -26 3 -58 8 -72 10 -25 5 -105 17 -150 23 -13 1
-28 -3 -33 -9 -6 -9 -10 -9 -13 -1 -3 8 -19 9 -52 2 -26 -5 -80 -6 -121 -2
-100 9 -1082 11 -1073 2z m406 -33 c89 -3 294 -8 456 -11 162 -3 329 -7 370
-8 41 -2 88 -4 103 -5 18 -1 26 -5 21 -12 -5 -8 -1 -8 14 0 28 15 52 14 52 -1
0 -9 18 -14 50 -15 29 -1 48 2 45 8 -4 5 -1 9 5 9 6 0 13 -7 16 -15 4 -8 10
-13 14 -10 5 3 24 -4 42 -14 20 -13 35 -17 39 -10 4 7 22 5 55 -5 27 -8 87
-26 134 -40 102 -31 209 -81 287 -135 69 -47 197 -177 242 -243 17 -27 44 -67
60 -90 53 -80 64 -107 131 -323 5 -16 11 -50 14 -75 4 -42 11 -92 22 -150 4
-21 3 -22 -6 -8 -6 10 -13 30 -14 45 -8 61 -19 109 -31 133 -6 14 -10 33 -8
43 3 10 -1 17 -10 17 -20 0 -31 31 -15 43 9 6 8 7 -4 3 -11 -3 -19 2 -23 15
-4 10 -11 19 -16 19 -6 0 -8 -3 -6 -7 18 -35 42 -93 48 -118 21 -81 21 -80 10
-65 -5 9 -19 45 -32 80 -12 36 -26 71 -31 77 -6 7 -8 19 -5 28 4 8 0 21 -8 29
-8 8 -15 22 -15 30 0 9 -5 16 -11 16 -6 0 -9 6 -6 14 4 9 -2 16 -15 19 -13 4
-19 11 -15 21 3 8 1 18 -5 22 -7 4 -8 3 -4 -4 4 -7 3 -12 -3 -12 -6 0 -25 18
-43 41 -38 48 -158 145 -158 128 0 -6 -15 -1 -32 13 -54 40 -180 112 -237 135
-95 40 -67 16 50 -42 63 -31 149 -83 193 -116 43 -34 88 -64 100 -69 11 -4 33
-21 47 -36 31 -34 74 -108 57 -98 -6 4 2 -10 19 -32 36 -46 93 -152 93 -174 0
-9 4 -20 9 -25 14 -16 25 -79 12 -71 -6 4 -11 12 -11 17 0 19 -53 123 -97 192
-23 37 -43 70 -43 72 0 12 -112 124 -170 169 -134 107 -344 225 -484 272 -167
57 -196 59 -766 56 -289 -2 -613 -7 -720 -11 -107 -4 -203 -5 -213 -3 -13 3
11 32 97 116 63 61 117 121 121 133 9 32 35 55 53 48 9 -3 88 -8 176 -10z
m-385 -314 c28 -4 48 -4 45 1 -6 9 20 11 29 1 4 -3 280 -7 614 -7 596 -1 779
-9 838 -37 11 -5 54 -18 95 -29 209 -53 383 -147 529 -285 108 -102 177 -216
237 -388 14 -40 28 -79 33 -87 11 -21 41 -126 47 -164 2 -17 6 -84 9 -149 2
-64 6 -120 8 -125 3 -4 1 -81 -3 -172 -8 -173 -33 -308 -58 -317 -18 -7 -81
55 -67 65 10 6 65 122 65 135 0 15 -35 37 -59 37 -37 0 -43 8 -25 35 8 12 14
38 13 56 -2 19 5 49 15 67 24 46 24 92 1 109 -45 32 -125 41 -165 18 -31 -18
-51 -19 -48 -3 2 6 -6 14 -17 16 -29 6 -45 21 -38 38 3 8 2 14 -2 14 -13 0
-110 -51 -116 -62 -4 -6 -12 -9 -19 -6 -7 2 6 17 29 32 23 16 41 33 41 37 0 5
8 9 18 9 26 0 34 11 21 27 -6 7 -8 13 -3 13 5 0 15 4 23 9 12 8 12 12 2 25
-10 12 -11 16 -1 16 8 0 10 10 6 33 -3 20 0 39 9 51 20 26 19 45 -2 68 -11 12
-16 32 -15 53 7 72 -82 102 -175 59 -30 -13 -55 -24 -58 -24 -2 0 -16 11 -31
25 -27 25 -74 34 -74 15 0 -5 11 -10 24 -10 31 0 53 -25 30 -34 -9 -3 -22 -1
-30 5 -7 6 -22 8 -34 4 -14 -4 -20 -2 -20 9 0 8 5 18 10 21 6 3 10 11 10 17 0
6 -10 3 -21 -8 -23 -20 -23 -17 0 28 17 34 8 69 -30 112 -28 32 -29 38 -20 72
12 44 5 56 -50 85 -50 25 -64 24 -87 -6 -11 -14 -28 -25 -39 -25 -10 0 -24 -5
-31 -12 -9 -9 -12 -8 -12 6 0 15 -4 14 -31 -8 -39 -33 -46 -33 -67 6 -9 17
-27 41 -39 53 -13 12 -23 31 -23 42 0 29 -24 56 -54 59 l-27 3 25 -20 c26 -21
41 -53 37 -81 -1 -9 7 -19 19 -23 11 -4 30 -25 41 -47 18 -36 23 -39 50 -34
16 3 44 9 62 12 17 4 39 12 47 19 8 7 32 20 53 29 34 14 41 14 72 -1 44 -21
52 -43 24 -64 -18 -13 -20 -19 -10 -37 6 -12 17 -25 24 -29 41 -26 59 -111 20
-96 -13 5 -15 2 -9 -12 4 -13 -2 -27 -21 -47 -25 -26 -21 -42 5 -16 9 9 18 7
39 -9 32 -23 38 -57 16 -91 -20 -32 -10 -39 16 -11 14 16 19 30 14 47 -6 26
12 46 32 34 22 -14 82 -8 120 11 43 21 132 25 167 6 21 -11 23 -41 6 -70 -11
-17 -10 -22 12 -38 20 -16 22 -21 11 -35 -7 -9 -22 -16 -32 -16 -24 0 -24 -11
1 -33 30 -25 26 -55 -6 -51 -17 1 -49 -13 -95 -42 -38 -25 -69 -47 -69 -50 0
-3 5 -2 10 1 15 9 12 -2 -7 -32 -17 -26 -17 -26 5 -12 12 8 25 22 28 31 3 10
9 18 13 18 4 0 27 18 50 39 23 22 40 33 37 25 -7 -17 6 -18 22 -2 8 8 12 8 12
1 0 -6 -12 -16 -27 -21 -16 -6 -40 -21 -55 -34 -21 -19 -24 -27 -16 -42 9 -16
8 -18 -6 -13 -9 4 -28 0 -41 -9 -13 -9 -29 -13 -35 -9 -7 4 -25 -5 -41 -21
-48 -46 -35 -57 31 -25 21 10 44 15 50 11 9 -5 9 -9 1 -14 -6 -4 -11 -12 -11
-17 0 -11 39 12 96 58 34 27 44 30 53 19 6 -7 9 -21 5 -30 -4 -12 -2 -15 9
-10 8 3 18 0 22 -6 5 -8 12 -5 22 7 14 17 14 17 10 -4 -6 -27 2 -28 69 -8 27
8 61 15 76 15 30 0 98 -29 98 -42 0 -4 0 -11 0 -15 0 -5 -10 -8 -23 -9 -26 -1
-95 -42 -117 -70 -8 -10 7 -3 34 16 33 22 51 29 54 21 3 -9 9 -8 23 5 16 15
19 15 19 2 0 -9 -6 -21 -14 -27 -8 -7 -15 -20 -15 -29 0 -9 -2 -25 -3 -35 -2
-20 -54 -66 -138 -121 -30 -20 -47 -36 -38 -36 17 0 121 66 126 81 2 5 8 9 14
9 6 0 5 -6 -2 -15 -18 -22 -5 -30 46 -30 54 -1 71 -14 52 -44 -9 -15 -20 -20
-33 -17 -19 5 -19 4 -2 -9 22 -16 16 -46 -14 -79 -23 -24 -25 -46 -5 -46 8 0
21 -6 28 -13 7 -8 23 -19 36 -26 27 -15 28 -25 0 -81 -63 -132 -70 -141 -92
-136 -6 2 -8 1 -3 -1 14 -9 7 -25 -9 -19 -9 3 -12 2 -9 -5 10 -16 -15 -39 -39
-35 -11 2 -15 1 -8 -1 14 -5 16 -39 3 -47 -5 -3 -20 3 -33 14 -14 11 -29 16
-33 12 -4 -4 -6 0 -3 8 2 8 19 19 36 25 30 8 44 25 22 25 -5 0 -7 7 -4 15 4 8
10 15 16 15 5 0 6 -4 3 -10 -3 -5 0 -10 7 -10 7 0 25 22 40 48 15 26 45 69 68
95 23 26 40 53 37 59 -2 8 -12 1 -22 -17 -10 -16 -34 -43 -53 -60 l-34 -29 27
54 c35 71 20 55 -44 -45 -52 -81 -86 -128 -108 -151 -18 -18 -17 -22 19 -40
l32 -16 -50 -43 c-27 -24 -62 -51 -79 -61 l-30 -18 18 28 c10 15 16 30 13 33
-3 3 -1 14 5 25 7 14 7 23 -2 34 -9 11 -9 17 2 30 11 13 9 14 -14 9 -29 -8
-34 -1 -14 20 6 7 23 27 35 44 13 17 40 48 60 69 39 41 77 128 69 159 -2 11
-7 2 -12 -22 -11 -56 -23 -75 -46 -75 -11 0 -24 -11 -31 -25 -6 -14 -15 -25
-20 -25 -5 0 1 14 13 31 18 26 19 33 8 40 -8 5 -9 9 -4 9 11 0 38 60 31 67 -5
5 -66 -72 -66 -83 -1 -10 -27 -41 -57 -67 -19 -17 -22 -17 -52 0 -17 10 -31
20 -30 23 0 3 27 24 60 47 32 24 59 50 59 58 0 22 -7 19 -41 -20 -40 -45 -86
-78 -102 -72 -6 2 6 15 28 29 46 30 92 68 80 68 -13 0 -110 -55 -121 -69 -9
-11 -18 -10 -52 10 -23 13 -42 27 -42 30 0 3 25 34 56 68 53 58 54 61 19 37
-67 -46 -77 -26 -15 32 38 36 39 37 15 38 -16 1 -25 -3 -25 -13 0 -9 -6 -13
-15 -9 -8 3 -37 -7 -63 -23 -32 -19 -54 -26 -67 -20 -20 7 -20 7 0 15 11 4 31
18 45 30 36 33 99 74 112 74 18 0 98 70 98 87 0 11 -10 6 -35 -16 -20 -17 -40
-31 -44 -31 -5 0 -14 14 -20 31 l-11 31 -27 -17 c-16 -10 -46 -33 -69 -52 -23
-18 -44 -33 -48 -33 -4 0 -14 -7 -23 -15 -8 -9 -18 -14 -21 -11 -8 9 121 125
140 126 26 0 33 21 9 27 -12 3 -21 13 -21 24 0 11 -4 19 -10 19 -5 0 -10 -4
-10 -8 0 -5 -16 -27 -36 -50 -36 -42 -74 -56 -74 -26 0 10 -6 14 -15 10 -8 -3
-22 -3 -31 1 -13 5 -11 10 13 32 56 51 67 75 15 32 -29 -24 -54 -42 -56 -40
-2 2 -9 14 -15 27 -10 19 -10 27 2 40 8 9 20 28 27 42 12 24 11 24 -21 -5 -19
-16 -41 -38 -50 -49 -9 -10 -19 -14 -22 -9 -9 15 -2 41 18 63 12 13 14 20 5
20 -7 0 -26 -15 -44 -34 -26 -29 -34 -32 -47 -23 -13 10 -16 29 -15 92 2 123
-9 200 -39 256 -14 28 -24 53 -21 56 5 5 30 -38 54 -92 7 -16 13 -44 14 -62 1
-18 5 -30 10 -27 29 18 -31 207 -69 221 -21 8 -91 62 -148 113 -52 48 -136 71
-273 76 -57 2 -112 6 -122 9 -19 6 -19 -2 -16 -256 3 -178 1 -269 -7 -286 -8
-19 -8 -26 2 -32 19 -12 12 -109 -8 -116 -9 -3 -24 -23 -33 -45 -18 -44 -48
-55 -48 -17 0 13 6 45 14 70 8 26 10 45 6 42 -5 -3 -11 -19 -15 -35 -4 -16
-11 -32 -16 -35 -5 -4 -9 -22 -9 -41 0 -19 -5 -34 -11 -34 -6 0 -9 9 -6 20 7
25 -10 26 -18 1 -4 -15 -14 -19 -48 -17 -38 1 -42 4 -45 29 -4 29 -32 39 -32
11 0 -11 -5 -14 -16 -10 -8 3 -22 -1 -31 -9 -8 -8 -19 -12 -25 -9 -6 4 -14 0
-19 -7 -8 -11 -12 -10 -24 6 -15 19 -15 19 -31 -3 -17 -25 -52 -29 -60 -8 -3
8 4 32 16 55 22 45 12 56 -14 16 -32 -49 -31 -79 4 -108 28 -24 30 -29 19 -49
-7 -13 -25 -35 -42 -50 -24 -23 -32 -26 -49 -17 -15 8 -23 8 -31 0 -14 -14 6
-31 36 -31 19 0 21 -8 9 -28 -6 -8 -19 -10 -40 -6 -46 9 -55 25 -38 64 7 18
11 42 8 53 -4 16 -8 11 -21 -23 -9 -24 -21 -45 -27 -47 -20 -7 -24 27 -9 63 8
19 10 34 6 34 -5 0 -14 -13 -21 -30 -13 -32 -30 -40 -30 -15 0 8 -5 15 -11 15
-7 0 -9 10 -5 25 4 14 2 25 -4 25 -11 0 -14 -13 -10 -44 2 -25 47 -96 61 -96
5 0 27 -13 47 -29 20 -16 49 -32 65 -35 27 -6 27 -7 10 -31 -10 -13 -22 -25
-28 -25 -15 0 -72 -49 -58 -50 7 0 10 -7 7 -17 -4 -10 21 9 54 42 41 40 59 66
56 77 -3 10 3 21 16 28 20 11 21 10 15 -9 -11 -34 17 -25 45 15 13 20 26 31
28 24 2 -6 -1 -17 -7 -23 -27 -27 -8 -28 21 -1 l31 29 -21 -32 c-24 -34 -28
-53 -12 -53 5 0 16 15 24 33 l14 32 13 -32 c16 -39 33 -42 54 -10 8 13 26 29
40 35 21 10 29 8 53 -13 16 -14 35 -38 42 -55 13 -32 27 -39 36 -16 3 8 -9 36
-28 62 -35 50 -79 124 -73 124 15 0 115 -86 115 -99 0 -9 5 -23 10 -31 8 -13
14 -10 35 14 14 16 25 32 26 35 1 13 8 38 18 66 6 17 13 42 16 58 3 15 10 27
16 27 6 0 7 -5 3 -12 -4 -6 -7 -32 -5 -56 1 -26 -4 -53 -13 -68 -20 -29 -21
-45 -2 -18 12 16 16 16 20 4 11 -29 13 -65 5 -87 -13 -36 11 -46 103 -40 139
8 239 39 293 88 11 10 39 32 62 48 26 19 49 47 62 76 21 48 48 65 31 19 -8
-21 -6 -33 11 -61 16 -26 19 -37 10 -46 -14 -14 -15 -51 -1 -42 5 3 17 22 26
41 20 43 49 61 70 43 11 -9 18 -9 26 -1 8 8 18 3 38 -18 24 -25 31 -28 57 -21
17 5 49 5 74 0 24 -5 59 -12 77 -15 45 -9 49 -21 18 -53 -34 -35 -33 -41 9
-41 26 0 46 -10 83 -42 27 -24 57 -48 68 -54 19 -12 18 -13 -4 -55 -12 -24
-49 -73 -82 -108 -33 -36 -58 -66 -56 -69 4 -4 30 24 106 111 17 20 35 37 39
37 3 0 16 -15 28 -34 16 -26 19 -36 10 -45 -9 -9 -8 -11 7 -5 11 4 21 2 26 -6
11 -18 1 -40 -17 -40 -10 0 -13 -6 -9 -16 10 -27 -17 -57 -78 -88 -31 -16 -56
-35 -56 -42 0 -18 2 -18 46 3 34 17 36 17 50 -1 7 -10 12 -22 10 -25 -2 -3 9
-6 25 -7 53 -2 254 -159 242 -190 -3 -9 0 -12 9 -9 23 9 140 -151 194 -264 73
-151 158 -471 126 -471 -5 0 -14 31 -21 69 -14 77 -39 165 -40 139 -1 -9 15
-99 35 -200 33 -169 36 -192 31 -308 -3 -69 -10 -141 -16 -160 -6 -19 -12 -51
-15 -70 -7 -58 -34 -184 -45 -213 -8 -19 -15 -25 -28 -21 -14 5 -15 4 -4 -4
11 -8 12 -15 0 -40 -7 -17 -17 -28 -21 -26 -4 3 -8 -1 -8 -8 0 -23 -70 -151
-108 -197 -76 -94 -145 -161 -171 -168 -14 -3 -57 -31 -94 -60 -80 -64 -117
-82 -269 -128 -114 -34 -203 -52 -378 -77 -108 -15 -546 -18 -865 -5 -261 10
-404 11 -412 3 -3 -3 17 -6 46 -6 29 0 50 -4 47 -9 -3 -5 -72 -9 -153 -10 -82
-1 -157 -3 -168 -4 -15 -1 -19 3 -17 18 1 11 4 339 6 728 2 390 7 711 10 714
3 4 7 -20 7 -53 1 -32 3 -75 4 -94 1 -19 3 -71 4 -115 1 -49 5 -72 10 -61 8
20 6 134 -5 264 -4 51 -10 72 -19 72 -10 0 -13 17 -13 65 1 36 4 65 7 65 3 0
6 107 6 237 0 180 3 238 12 238 7 0 22 8 33 18 26 22 32 22 64 -4 l27 -21 -29
-27 c-44 -40 -61 -73 -52 -97 8 -20 49 -59 71 -66 5 -2 4 -17 -3 -37 -10 -27
-10 -35 0 -38 6 -3 12 -10 12 -18 0 -7 6 -18 14 -24 11 -9 28 -5 79 19 35 16
68 30 72 30 4 0 27 16 51 35 52 43 72 44 110 5 31 -31 64 -40 64 -16 0 8 -7
17 -16 20 -8 3 -12 11 -8 17 3 6 2 14 -3 18 -5 3 17 33 50 66 43 43 54 51 41
28 -11 -17 -31 -45 -46 -62 -35 -38 -37 -52 -3 -21 31 29 43 22 14 -9 -11 -12
-19 -29 -17 -39 2 -12 12 -4 36 30 17 26 32 51 32 57 0 6 4 11 10 11 11 0 1
-30 -17 -48 -15 -15 -18 -36 -4 -28 11 7 23 -22 15 -35 -3 -5 -14 -9 -25 -9
-27 0 -19 -24 8 -28 13 -2 29 7 41 23 18 22 26 25 55 20 24 -5 37 -2 47 10 8
9 37 28 64 42 28 14 57 34 64 44 11 16 17 17 34 8 18 -10 19 -17 14 -72 -5
-53 -7 -384 -5 -990 l0 -147 34 0 c40 0 42 -5 18 -40 -61 -90 -193 -213 -210
-196 -4 3 0 12 9 19 8 6 28 35 43 62 16 28 39 66 53 85 19 27 16 25 -16 -10
-23 -25 -51 -62 -64 -82 -27 -43 -34 -46 -44 -16 -3 12 -15 35 -26 52 l-19 31
6 -34 c4 -18 16 -53 27 -77 l19 -44 -28 -25 c-15 -13 -49 -32 -75 -40 -27 -9
-48 -19 -48 -22 0 -15 83 14 167 59 91 49 155 104 224 191 30 40 77 158 85
215 3 26 13 81 21 122 22 113 27 397 9 528 -16 114 -66 303 -97 364 -27 53
-103 127 -194 188 -66 43 -215 180 -215 197 0 2 13 -5 29 -16 16 -12 34 -21
40 -21 6 0 11 -4 11 -9 0 -5 12 -15 28 -22 25 -13 65 -38 156 -98 21 -14 64
-51 94 -81 l55 -55 -32 58 c-17 32 -29 63 -25 69 4 7 3 8 -4 4 -6 -4 -21 -2
-32 4 -15 8 -19 17 -14 38 5 25 4 25 -9 10 -18 -23 -41 -23 -58 -1 -8 9 -9 14
-4 11 6 -3 26 14 45 38 19 23 38 43 42 43 11 1 47 -77 54 -118 8 -40 51 -138
65 -146 17 -11 9 29 -22 115 -17 47 -33 101 -36 120 -3 19 -9 40 -14 46 -5 6
-7 13 -4 16 3 3 -2 22 -10 42 -15 36 -13 56 6 56 5 0 9 -7 9 -15 0 -8 3 -15 8
-15 4 0 15 -14 24 -30 21 -37 42 -41 28 -5 -5 14 -19 38 -31 54 -18 24 -19 32
-9 51 6 12 15 18 19 14 19 -22 43 -108 37 -135 -5 -24 -2 -29 14 -29 19 0 25
-15 21 -48 -1 -7 4 -21 12 -32 19 -27 11 -76 -9 -59 -10 8 -14 8 -14 1 0 -17
51 -106 68 -118 8 -6 12 -16 8 -23 -5 -7 -2 -10 5 -9 8 2 14 -8 14 -24 1 -15
5 -31 9 -35 5 -4 5 3 2 17 -7 25 -7 25 11 -2 23 -36 30 -35 35 1 2 17 2 28 -2
26 -7 -4 -60 49 -60 61 0 4 -7 16 -17 26 -9 10 -14 21 -11 24 3 3 15 -10 27
-29 11 -18 29 -42 41 -52 17 -15 20 -16 20 -2 0 10 6 13 19 10 33 -8 32 14 -3
48 -26 25 -31 35 -22 45 33 35 51 64 100 162 32 64 61 138 72 185 9 42 20 77
24 77 4 0 6 -40 6 -89 l-1 -90 45 51 c25 29 50 61 55 72 6 12 24 40 40 63 30
42 55 51 62 23 4 -12 3 -12 -5 -1 -7 10 -19 1 -50 -40 -67 -90 -99 -177 -45
-124 8 9 17 14 20 11 8 -7 -37 -47 -46 -41 -13 7 -59 -57 -91 -129 -35 -76
-92 -241 -96 -276 -8 -71 -16 -110 -23 -110 -5 0 -5 18 -1 40 4 22 3 40 -1 40
-5 0 -10 -6 -10 -12 -1 -7 -4 -33 -7 -58 -4 -37 -13 -505 -11 -575 1 -56 10
-233 13 -257 1 -16 3 -40 4 -54 1 -15 6 -23 13 -18 6 3 8 16 5 28 -3 11 -1 28
4 36 7 11 10 -1 10 -38 0 -37 -3 -51 -11 -46 -9 5 -10 -1 -5 -22 4 -16 12 -52
16 -81 12 -72 87 -293 107 -315 9 -10 22 -18 30 -18 7 0 13 -5 13 -10 0 -18
43 -32 70 -22 28 10 81 -4 154 -41 45 -24 76 -26 76 -6 0 4 -7 6 -15 3 -8 -4
-15 -1 -15 5 0 6 -5 11 -10 11 -18 0 -80 45 -80 57 0 8 26 -1 66 -22 93 -49
143 -47 69 4 -39 26 -45 41 -16 41 11 0 26 3 35 6 9 3 16 1 16 -6 0 -6 -4 -8
-10 -5 -5 3 -10 2 -10 -3 0 -6 37 -13 83 -17 82 -7 147 -18 183 -32 17 -6 17
-5 5 10 -7 9 -24 17 -37 17 -12 0 -25 4 -28 9 -9 14 47 23 75 13 29 -11 120
-1 101 12 -14 8 -155 10 -209 2 -41 -6 -43 8 -3 24 17 7 30 16 30 21 0 5 -25
-3 -55 -18 -58 -29 -80 -26 -50 7 24 27 14 35 -16 12 -57 -44 -81 -35 -43 15
33 44 24 54 -12 14 -31 -35 -44 -39 -44 -13 0 9 -5 24 -10 32 -9 13 -11 13
-19 0 -5 -8 -8 -17 -5 -21 2 -4 -15 -11 -37 -17 -40 -10 -99 0 -99 17 0 4 -12
13 -26 19 -18 9 -38 39 -70 106 -47 100 -66 165 -45 151 17 -10 122 99 151
156 38 74 60 150 71 249 14 114 14 92 0 223 -13 123 -52 257 -87 304 -13 17
-24 35 -24 40 0 23 107 103 138 103 10 0 23 5 30 12 7 7 12 8 12 2 0 -5 -9
-15 -20 -22 -11 -7 -20 -19 -20 -27 0 -8 -8 -19 -17 -24 -17 -10 -17 -10 -1
-11 9 0 36 22 60 50 24 27 50 50 58 50 10 -1 7 -5 -7 -13 -12 -7 -22 -15 -22
-20 -2 -15 -26 -47 -37 -47 -7 0 -14 -7 -18 -15 -3 -8 -1 -15 5 -15 6 0 9 -7
5 -15 -3 -8 -3 -15 0 -15 5 0 64 40 74 50 3 3 11 5 19 5 8 0 16 6 19 13 7 21
-32 13 -68 -13 -18 -14 -36 -23 -38 -20 -7 6 -12 2 81 64 81 54 112 64 57 17
-38 -32 -24 -35 16 -4 27 22 26 10 -4 -24 -32 -37 3 -16 45 27 24 25 47 45 52
45 6 0 12 8 16 19 3 10 38 53 78 95 40 42 71 79 68 82 -3 3 2 2 10 -1 9 -3 23
3 35 16 l19 22 -24 -13 c-23 -12 -23 -11 4 24 41 54 26 52 -20 -3 -43 -51
-123 -116 -132 -107 -3 3 0 12 7 21 17 21 1 19 -23 -3 -15 -13 -21 -14 -24 -4
-4 10 -8 10 -19 1 -18 -15 -31 -4 -17 13 6 7 15 28 21 46 9 26 8 32 -4 32 -32
0 -2 48 36 55 22 5 79 41 89 57 21 34 5 30 -33 -8 -23 -23 -42 -34 -52 -30
-10 4 -23 -2 -33 -15 -10 -12 -23 -20 -30 -18 -15 5 33 58 106 114 29 22 52
44 53 48 0 8 -99 -62 -134 -95 -11 -10 -27 -16 -35 -13 -9 2 -27 -3 -41 -11
-25 -15 -25 -15 10 -8 l35 7 -25 -22 c-21 -17 -22 -20 -5 -15 16 6 18 5 8 -7
-17 -17 -16 -29 1 -29 8 0 17 -14 21 -30 5 -24 0 -41 -24 -80 -17 -28 -31 -57
-31 -64 0 -8 -7 -16 -15 -20 -13 -4 -13 -2 -5 14 16 31 12 33 -14 6 -13 -15
-29 -26 -36 -26 -9 0 -8 5 3 18 10 10 14 22 10 25 -3 4 8 25 26 47 50 62 33
67 -32 9 -69 -62 -98 -62 -64 0 12 22 19 43 15 47 -4 4 -28 -12 -53 -35 -24
-22 -47 -41 -49 -41 -5 0 6 40 23 83 9 23 8 27 -7 27 -15 1 -15 2 2 15 21 16
19 29 -2 16 -8 -4 -15 -17 -17 -27 -2 -10 -4 -21 -4 -24 -1 -3 -6 2 -12 10 -8
12 -9 10 -4 -7 3 -12 1 -24 -5 -28 -6 -4 -8 -15 -5 -24 7 -24 -21 -49 -37 -33
-9 9 -7 19 10 41 20 28 20 29 2 24 -11 -3 -20 -2 -20 2 0 11 91 98 119 114 97
53 93 52 119 35 18 -12 23 -13 20 -3 -3 8 5 18 16 24 28 14 31 37 8 65 -16 20
-28 23 -85 23 -37 0 -67 4 -67 9 0 4 6 8 13 9 9 0 9 2 -1 6 -6 2 -10 9 -7 14
4 5 -2 6 -11 2 -13 -5 -16 -3 -11 10 4 11 0 15 -11 15 -9 0 -25 3 -34 7 -13 5
-30 -5 -65 -39 -25 -25 -48 -46 -50 -46 -3 0 14 23 36 51 23 29 41 56 41 60 0
5 10 7 23 4 16 -4 29 0 41 14 16 18 17 21 4 21 -9 0 -18 -7 -22 -15 -3 -8 -11
-15 -17 -15 -8 0 -6 7 4 18 10 10 17 23 17 29 0 6 7 16 15 23 8 7 15 17 15 22
0 5 -17 -4 -37 -21 -42 -34 -55 -38 -72 -17 -9 11 -9 15 1 19 7 2 10 8 5 12
-4 5 -13 3 -19 -3 -20 -20 -35 -14 -35 13 0 17 10 33 28 46 35 25 54 56 34 56
-7 0 -11 -6 -8 -14 4 -9 0 -11 -11 -7 -9 3 -16 2 -16 -4 0 -6 -23 -27 -51 -47
-35 -27 -53 -35 -61 -27 -7 7 -4 20 12 42 31 44 19 48 -15 5 -31 -38 -33 -39
-53 -26 -11 6 -9 17 7 52 36 77 69 169 61 169 -4 0 -19 -32 -35 -71 -25 -65
-62 -119 -80 -119 -4 0 -5 18 -3 40 4 46 -10 38 -22 -12 l-8 -33 -1 43 c-1 51
-16 55 -25 6 -6 -28 -10 -33 -20 -24 -10 8 -15 7 -20 -5 -7 -20 -32 -19 -40 1
-4 9 9 53 29 97 19 45 33 83 31 85 -2 2 -23 -33 -46 -77 -43 -82 -66 -97 -54
-35 8 42 -3 45 -17 4 -12 -34 -24 -37 -50 -14 -14 13 -16 21 -8 41 5 14 7 28
5 31 -3 2 -8 -7 -12 -22 -7 -30 -12 -31 -50 -12 -26 14 -44 13 -44 -2 0 -4 16
-16 35 -26 19 -10 43 -27 54 -37 19 -18 19 -21 4 -46 -8 -16 -32 -41 -52 -56
-32 -25 -37 -26 -47 -12 -11 15 -13 15 -23 -2 -9 -16 -12 -16 -21 -3 -5 8 -10
30 -10 48 0 17 -4 32 -8 32 -4 0 -22 -27 -39 -60 -17 -32 -33 -57 -36 -54 -8
8 23 96 42 119 16 20 16 20 -6 1 -13 -11 -23 -23 -23 -28 0 -5 -9 -18 -20 -30
-11 -12 -20 -29 -20 -39 0 -16 -19 -29 -42 -29 -6 0 -8 12 -4 30 3 17 3 30 0
30 -4 0 -22 -17 -41 -37 l-34 -38 -39 22 c-22 12 -40 19 -40 17 0 -3 11 -20
25 -38 33 -44 32 -59 -11 -101 -29 -29 -39 -34 -50 -24 -8 6 -14 20 -14 30 0
11 -3 19 -6 19 -8 0 -43 -43 -44 -54 0 -6 6 -1 14 10 12 15 17 16 27 7 16 -16
9 -23 -27 -26 -22 -2 -29 2 -28 16 2 25 -9 21 -34 -13 -16 -22 -31 -30 -52
-30 -31 0 -43 -19 -12 -21 74 -4 163 3 196 14 46 17 94 60 98 89 2 12 9 23 16
26 20 6 9 -35 -18 -65 -14 -16 -23 -34 -22 -42 2 -9 -2 -12 -12 -8 -11 5 -16
0 -16 -15 0 -18 -4 -20 -32 -14 -32 5 -32 5 -9 -8 l23 -13 -27 -21 c-15 -12
-31 -22 -35 -22 -17 0 -19 15 -3 33 13 15 14 19 4 15 -24 -7 -38 -37 -22 -47
11 -7 9 -16 -13 -44 -39 -51 -99 -54 -136 -7 -10 14 -19 17 -29 11 -12 -8 -12
-13 -3 -24 10 -12 6 -26 -22 -76 -43 -76 -38 -80 9 -6 20 30 40 55 46 55 5 0
22 -6 37 -14 31 -15 64 -15 84 2 17 13 70 11 75 -3 3 -9 -52 -28 -107 -38 -8
-2 -46 -37 -85 -77 -65 -69 -66 -79 -2 -21 15 14 27 20 27 13 0 -6 -15 -22
-33 -36 -18 -14 -62 -62 -97 -107 -80 -101 -111 -131 -128 -124 -8 3 -17 5
-21 5 -14 0 -4 50 15 71 19 22 19 22 -3 10 -14 -7 -23 -8 -23 -2 0 5 9 13 20
16 11 3 20 10 20 15 0 4 27 44 59 88 33 44 57 83 54 86 -3 3 2 17 11 31 9 14
12 25 6 25 -5 0 -10 -4 -10 -9 0 -5 -7 -17 -16 -25 -9 -9 -17 -22 -18 -29 -4
-29 -124 -167 -145 -167 -4 0 -17 13 -28 28 l-21 29 29 31 c17 18 37 32 45 32
21 0 17 -9 -16 -40 -23 -21 -25 -27 -11 -23 27 7 84 70 68 76 -7 2 2 21 26 50
20 25 37 49 37 54 0 11 -60 -57 -60 -68 0 -5 -7 -9 -15 -9 -8 0 -15 4 -15 9 0
5 -9 13 -20 16 -28 9 -25 22 10 40 17 9 28 20 25 25 -10 16 -55 11 -83 -8 -15
-11 -36 -21 -47 -24 -11 -3 -28 -9 -37 -13 -16 -6 -17 3 -17 102 l0 108 46 50
c25 28 42 42 39 32 -3 -11 -9 -31 -12 -45 -5 -26 -5 -26 10 -7 8 11 20 25 26
32 5 7 10 19 10 28 0 8 5 15 10 15 14 0 13 -43 -2 -58 -6 -6 -8 -15 -4 -19 4
-5 13 -1 19 8 7 8 20 18 30 22 17 7 24 27 8 27 -9 0 -41 88 -41 113 0 8 7 17
15 21 8 3 15 10 15 16 0 6 7 18 15 27 9 8 14 18 11 20 -3 3 -12 -2 -21 -11
-20 -19 -32 -20 -38 -3 -2 7 -8 8 -13 3 -5 -5 -4 -11 4 -13 14 -5 16 -33 2
-33 -5 0 -10 7 -10 16 0 25 -25 10 -28 -17 -4 -25 -60 -84 -71 -74 -3 4 3 11
13 17 13 7 15 13 7 18 -16 9 29 81 47 75 11 -4 17 8 13 29 -2 11 60 108 66
102 3 -3 -4 -18 -16 -34 -12 -17 -21 -35 -21 -40 0 -6 -6 -12 -12 -15 -7 -2
-10 -7 -6 -11 3 -4 25 16 47 46 23 29 51 64 62 77 28 33 42 61 30 61 -5 0 -22
-18 -38 -40 -27 -37 -43 -50 -43 -32 0 4 6 14 13 22 10 12 9 12 -5 1 -10 -7
-30 -33 -45 -57 -15 -24 -31 -44 -35 -44 -13 0 -9 10 13 41 12 18 16 29 8 29
-6 0 0 10 15 21 15 12 25 23 22 26 -7 7 -56 -39 -50 -48 6 -11 -47 -79 -62
-79 -7 0 -14 -7 -18 -15 -8 -21 4 -19 31 7 27 25 40 19 22 -10 -14 -22 -58
-46 -67 -38 -3 3 -6 32 -8 64 -3 56 -1 63 37 116 23 32 53 62 67 67 21 8 23
12 12 19 -24 15 -27 13 -71 -56 -45 -68 -58 -71 -40 -10 5 22 6 38 0 42 -12 7
-11 24 2 24 5 0 7 -4 4 -10 -3 -5 -2 -10 4 -10 20 0 22 21 3 27 -11 2 -23 15
-26 26 -10 37 -7 337 4 357 8 15 18 17 50 13 33 -5 40 -3 40 11 0 9 -8 16 -17
16 -20 0 -63 38 -63 56 0 7 6 19 13 26 7 7 20 25 30 40 24 38 57 44 98 19 40
-25 55 -26 75 -6 9 8 22 15 31 15 11 0 8 -6 -10 -21 -15 -11 -26 -23 -24 -27
1 -4 -23 -41 -54 -82 -56 -74 -75 -115 -59 -125 5 -3 12 5 16 17 12 40 65 109
169 223 55 61 109 122 120 135 l20 25 -25 -20 c-14 -11 -46 -42 -72 -70 -25
-27 -50 -47 -54 -43 -10 10 41 81 88 124 42 37 45 58 6 31 -39 -26 -69 -58
-99 -107 -27 -44 -32 -47 -69 -47 -50 0 -55 7 -29 42 16 20 27 25 45 21 32 -9
98 61 113 119 6 24 15 47 21 50 20 12 10 26 -10 15 -13 -7 -20 -21 -20 -40 0
-34 -31 -92 -46 -86 -6 2 -16 -5 -22 -15 -15 -23 -28 -24 -36 -3 -3 9 7 31 26
55 35 44 33 63 -3 25 -12 -13 -28 -22 -35 -19 -7 2 -15 0 -19 -6 -3 -6 -1 -11
4 -11 6 0 11 -4 11 -10 0 -5 -7 -10 -15 -10 -8 0 -15 5 -15 11 0 7 -10 9 -27
5 -48 -11 -58 -11 -56 0 1 7 -6 10 -17 7 -35 -9 -22 20 27 64 l47 42 -27 12
c-15 7 -30 9 -35 4 -4 -4 -1 -10 6 -12 16 -6 15 -23 -2 -23 -17 0 -76 -65 -76
-83 0 -7 13 -23 29 -35 24 -18 38 -20 79 -15 33 4 52 2 57 -7 11 -18 -52 -77
-90 -84 -18 -4 -49 -18 -69 -31 l-36 -24 0 486 c0 267 -5 573 -11 679 -12 206
-8 231 32 219 10 -3 41 -10 68 -14z m1126 -845 c75 -17 185 -116 226 -203 35
-75 38 -132 8 -179 -11 -19 -19 -40 -16 -47 2 -6 12 8 22 32 25 60 40 33 27
-49 -6 -41 -5 -61 2 -64 6 -2 4 -5 -5 -5 -22 -1 -33 -30 -14 -37 24 -10 19
-94 -8 -135 -25 -37 -42 -42 -195 -58 -63 -7 -89 -14 -106 -30 -30 -29 -46
-26 -46 7 -1 15 -3 106 -5 202 -3 96 -6 256 -7 355 -2 99 -7 183 -12 186 -5 4
-6 15 -2 24 5 14 15 16 54 12 26 -2 61 -7 77 -11z m1175 -1286 c20 0 230 -282
230 -310 0 -5 9 -24 19 -42 25 -43 72 -168 63 -168 -4 1 -35 58 -69 128 -64
131 -164 275 -240 345 -44 40 -56 64 -27 53 9 -3 19 -6 24 -6z m-624 -257 c0
-10 -12 -27 -26 -38 -14 -10 -29 -25 -33 -32 -5 -8 -13 -11 -18 -7 -5 3 -21
-1 -34 -10 -13 -9 -29 -16 -35 -16 -6 0 -23 -12 -39 -27 -15 -16 -38 -35 -50
-43 -54 -35 -58 -39 -38 -40 9 0 17 3 17 8 0 4 14 15 30 24 48 27 35 2 -20
-39 -34 -25 -46 -39 -37 -45 9 -5 7 -11 -8 -22 -14 -11 -16 -15 -6 -16 11 0 9
-5 -5 -22 l-19 -23 23 19 c12 11 22 25 22 33 0 7 3 13 8 13 4 0 15 14 25 31
10 18 21 29 25 25 3 -4 2 -10 -4 -14 -6 -4 -13 -17 -17 -30 -4 -18 -2 -22 10
-18 11 5 14 1 10 -13 -3 -15 0 -17 16 -13 18 5 19 2 14 -28 -7 -31 -61 -114
-91 -139 -12 -10 -22 -6 -50 20 -34 30 -35 34 -30 81 3 28 12 67 19 88 7 21
12 40 9 42 -2 3 5 13 16 23 23 21 28 44 5 25 -13 -11 -14 -9 -3 17 19 44 68
81 192 145 61 32 114 57 117 58 4 0 6 -8 5 -17z m-66 -351 c0 -12 -63 -81 -92
-100 -15 -10 -42 -36 -60 -59 -137 -169 -167 -204 -172 -201 -15 8 -83 -143
-72 -160 3 -5 -2 -21 -10 -36 -17 -34 -18 -63 -2 -68 9 -3 9 -6 0 -12 -16 -10
-28 42 -14 64 6 10 8 37 6 60 -3 26 -1 46 6 50 12 7 3 40 -11 40 -5 0 -9 7 -9
15 0 8 5 15 10 15 7 0 9 16 6 40 -2 22 0 42 5 46 5 3 9 -5 9 -18 l1 -23 22 26
c12 15 39 34 59 44 41 19 123 103 216 223 19 23 42 42 52 42 10 0 22 5 25 10
7 12 25 13 25 2z m1040 -42 c0 -5 -8 -11 -17 -11 -17 -1 -17 -2 0 -6 9 -2 17
-5 17 -6 0 -1 6 -38 14 -83 22 -124 32 -340 16 -359 -8 -10 -9 -15 -1 -15 6 0
11 -7 11 -16 0 -8 -5 -12 -11 -8 -8 5 -9 -8 -4 -44 4 -29 3 -52 -3 -56 -13 -8
-21 63 -11 91 5 12 4 25 0 28 -11 6 -20 65 -10 65 3 0 9 -10 12 -22 12 -44 14
-11 4 57 -5 39 -10 94 -11 122 0 29 -4 53 -8 53 -5 0 -8 31 -8 68 0 47 -6 79
-19 105 -10 20 -15 35 -11 32 5 -3 11 -1 15 5 8 13 25 13 25 0z m-1186 -260
c63 -96 104 -340 76 -456 -18 -75 -64 -114 -207 -177 -13 -6 -26 -7 -30 -3 -9
8 -11 290 -3 371 2 28 9 56 14 63 6 8 11 24 13 35 10 67 79 207 103 207 4 0
19 -18 34 -40z"/>
<path d="M9575 7279 c-28 -10 -65 -18 -84 -19 -44 0 -119 -62 -149 -124 -22
-44 -44 -58 -57 -36 -11 18 -33 11 -70 -21 -27 -24 -39 -29 -48 -20 -6 6 -26
11 -44 11 -24 0 -38 -7 -54 -29 -11 -16 -32 -34 -45 -41 -12 -7 -25 -19 -28
-26 -7 -19 32 -64 56 -64 16 0 19 -5 14 -22 -3 -13 -6 -26 -6 -30 0 -14 -23
-8 -35 9 -12 16 -16 15 -54 -12 -32 -21 -45 -25 -53 -17 -7 7 -31 12 -55 12
-35 0 -45 -4 -54 -22 -5 -13 -26 -33 -45 -46 -28 -18 -39 -21 -50 -11 -17 14
-61 8 -134 -20 l-55 -20 0 -52 c1 -41 5 -55 24 -70 32 -26 45 -14 20 20 -13
17 -19 39 -17 57 3 25 10 31 53 46 69 23 104 22 132 -4 23 -21 28 -17 24 20
-1 6 3 12 9 12 5 0 10 -4 10 -10 0 -5 11 -10 25 -10 22 0 24 3 15 19 -14 27
-4 47 31 62 27 10 34 9 59 -10 33 -24 50 -27 50 -8 0 18 32 47 52 47 9 0 21
-14 27 -31 14 -40 14 -39 -4 -39 -9 0 -12 -6 -9 -15 4 -8 10 -12 15 -9 12 7
39 -21 39 -41 0 -10 7 -15 16 -13 20 4 44 76 34 102 -5 16 -7 16 -23 -2 -11
-11 -15 -26 -11 -37 6 -15 4 -15 -14 -4 -15 10 -18 17 -11 30 5 10 6 24 3 32
-3 8 -1 18 5 22 6 3 11 16 11 28 0 13 7 33 16 45 21 30 10 41 -16 17 -19 -17
-21 -17 -40 0 -28 26 -25 42 13 62 17 10 32 25 32 33 0 21 58 25 75 6 17 -21
54 -21 46 0 -4 11 5 19 30 30 33 14 38 14 55 -2 11 -9 20 -15 22 -13 1 2 11
18 22 34 11 17 29 47 40 68 19 37 46 54 65 42 5 -3 10 2 10 12 0 14 13 21 53
31 29 6 58 12 66 12 7 0 19 7 27 15 21 21 40 19 65 -6 25 -25 39 -17 15 10
-25 27 -54 30 -111 10z"/>
<path d="M10652 4972 c4 -15 -1 -17 -36 -14 -70 7 -80 5 -120 -19 -22 -13 -91
-75 -154 -136 -69 -68 -123 -113 -135 -113 -11 0 -30 -12 -43 -27 -28 -33 -29
-39 -9 -47 8 -3 15 0 15 7 0 22 16 38 33 31 9 -3 17 -17 17 -30 0 -19 -5 -24
-27 -25 -52 -2 -98 3 -103 11 -8 12 -68 22 -74 12 -7 -12 75 -62 101 -62 11 0
24 5 31 12 9 9 15 9 24 0 15 -15 51 -15 66 0 7 7 12 29 12 50 0 21 2 38 5 38
3 0 22 -9 42 -20 28 -15 40 -17 50 -8 10 8 19 6 36 -11 25 -22 75 -28 107 -11
10 5 28 29 40 52 12 24 37 59 55 78 35 37 51 86 36 109 -13 21 2 45 44 70 21
12 35 28 35 40 0 14 -5 19 -15 15 -8 -4 -15 -1 -15 5 0 6 -5 11 -11 11 -6 0
-9 -8 -7 -18z m-72 -49 c0 -4 -17 -24 -37 -45 -20 -21 -32 -38 -25 -38 6 0 24
16 39 35 15 19 30 35 33 35 3 0 6 -22 7 -49 2 -42 -2 -52 -28 -77 -17 -16 -35
-39 -40 -51 -5 -13 -13 -23 -19 -23 -8 0 -8 6 0 20 9 17 8 19 -7 13 -14 -5
-13 -1 5 16 12 12 22 26 22 31 0 6 6 10 14 10 8 0 17 12 20 26 8 30 -1 45 -14
24 -5 -8 -21 -14 -36 -15 -16 0 -31 -8 -38 -20 -6 -10 -16 -25 -23 -32 -6 -7
-21 -25 -32 -39 -12 -15 -24 -24 -28 -20 -4 4 -3 10 3 14 13 8 94 135 94 147
0 4 -7 1 -17 -6 -14 -12 -16 -12 -11 1 6 20 58 48 91 49 15 1 27 -2 27 -6z"/>
<path d="M9551 3685 c-2 -69 -23 -196 -41 -240 -6 -16 -14 -39 -16 -49 -2 -11
-10 -27 -19 -35 -13 -14 -15 -13 -15 3 0 14 -10 7 -40 -25 -38 -43 -50 -69
-31 -69 6 0 12 4 16 10 3 5 19 19 35 30 51 36 33 2 -31 -61 -73 -71 -54 -80
31 -14 33 25 63 44 67 43 12 -3 87 24 94 34 3 4 25 -3 50 -17 83 -47 164 -85
182 -85 19 0 24 20 5 21 -32 2 -50 9 -95 41 -26 18 -57 35 -68 38 -12 4 -23
19 -28 43 -10 41 -22 48 -30 17 -6 -23 -27 -27 -27 -5 0 8 -4 15 -10 15 -5 0
-10 -10 -10 -22 0 -12 -2 -19 -5 -16 -3 3 -1 68 4 144 7 108 7 152 -4 199
l-13 60 -1 -60z"/>
<path d="M9453 3504 c-7 -21 -24 -40 -93 -113 -50 -53 -216 -143 -338 -184
-76 -25 -97 -37 -69 -37 17 0 128 40 163 58 61 32 168 64 199 59 31 -5 34 -3
41 26 4 18 22 50 40 73 19 23 34 46 34 53 0 6 10 25 22 41 12 16 19 33 15 36
-4 4 -10 -2 -14 -12z"/>
<path d="M6319 3113 c-9 -2 -31 -25 -50 -51 -18 -26 -45 -60 -59 -75 -14 -16
-25 -34 -25 -40 0 -7 -4 -13 -8 -14 -9 -4 -47 -42 -47 -48 0 -3 12 -5 26 -5
19 0 25 4 20 15 -3 8 -3 15 0 15 3 0 12 -7 20 -15 18 -17 34 -20 34 -5 0 6 -5
10 -11 10 -5 0 -8 4 -4 10 6 10 36 2 46 -13 9 -14 31 2 23 16 -5 9 -3 9 6 0
21 -20 -6 -43 -50 -43 -44 0 -70 -8 -70 -22 0 -6 16 -7 38 -4 20 3 69 8 107
11 105 7 168 15 173 20 6 6 -28 8 -70 5 -108 -7 -117 -6 -108 5 5 7 7 14 4 18
-9 8 35 19 47 11 7 -4 9 -3 5 4 -3 6 2 13 11 16 10 3 -21 3 -69 1 -77 -3 -114
4 -91 18 10 6 359 21 426 19 30 -1 46 2 42 8 -4 6 -58 10 -128 10 -89 1 -117
3 -104 11 10 6 28 10 40 9 12 -1 27 -1 32 0 6 1 43 1 84 0 56 -1 72 1 66 10
-6 10 -43 11 -148 7 -77 -3 -142 -9 -146 -14 -10 -13 -135 -17 -126 -3 4 6 16
10 28 8 12 -2 21 2 20 7 -1 6 40 11 100 13 56 1 124 7 150 13 26 6 57 9 67 6
11 -3 20 -2 20 3 0 10 -76 19 -127 14 -24 -2 -53 0 -65 5 -17 7 -3 11 60 16
45 4 81 9 79 11 -6 6 -249 12 -268 7z"/>
<path d="M15927 2881 c-17 -6 -17 -8 -4 -19 27 -23 127 -31 359 -31 187 0 226
2 216 13 -16 16 -78 29 -78 16 0 -6 -10 -6 -27 1 -18 7 -28 6 -33 -1 -5 -8
-15 -7 -34 1 -21 10 -29 10 -35 1 -4 -7 -25 -9 -61 -6 -30 4 -77 7 -104 8 -28
1 -51 7 -54 14 -4 13 -114 16 -145 3z"/>
<path d="M12426 2863 c-1 -2 -27 -6 -57 -9 -58 -6 -76 -13 -41 -15 25 -2 31
-3 53 -13 24 -11 458 0 496 12 19 6 35 7 38 2 3 -5 13 -6 21 -3 21 8 3 23 -26
22 -72 -3 -288 -1 -378 2 -57 2 -105 3 -106 2z"/>
</g>
</svg>
