<?xml version="1.0" standalone="no"?>
<!DOCTYPE svg PUBLIC "-//W3C//DTD SVG 20010904//EN"
 "http://www.w3.org/TR/2001/REC-SVG-20010904/DTD/svg10.dtd">
<svg version="1.0" xmlns="http://www.w3.org/2000/svg"
 width="1928.000000pt" height="1074.000000pt" viewBox="0 0 1928.000000 1074.000000"
 preserveAspectRatio="xMidYMid meet">
<metadata>
Created by potrace 1.16, written by Peter Selinger 2001-2019
</metadata>
<g transform="translate(0.000000,1074.000000) scale(0.100000,-0.100000)"
fill="#000000" stroke="none">
<path d="M14560 8016 c0 -5 10 -22 22 -38 13 -19 21 -46 21 -72 0 -22 -3 -275
-7 -561 -4 -286 -9 -1026 -11 -1645 -2 -619 -4 -1134 -4 -1145 -1 -11 1 -83 4
-160 3 -101 1 -142 -8 -148 -9 -7 -9 -10 1 -14 6 -2 12 -11 12 -19 0 -9 -5
-12 -12 -8 -10 6 -10 4 0 -7 15 -16 16 -91 1 -106 -7 -7 -8 -17 -1 -29 6 -11
10 -124 11 -264 0 -135 2 -336 3 -448 2 -156 0 -202 -9 -202 -20 0 -15 -11 19
-42 36 -32 32 -42 -17 -42 -19 0 -35 -4 -35 -8 0 -4 15 -8 34 -8 35 0 57 -15
34 -22 -7 -3 5 -16 27 -30 52 -34 99 -84 91 -97 -4 -6 -1 -9 6 -6 19 7 51 -29
82 -90 18 -38 25 -69 27 -122 2 -82 18 -91 18 -10 0 28 4 64 10 79 l11 28 156
0 c146 0 156 -1 143 -17 -8 -9 -9 -14 -3 -11 5 4 91 10 190 14 98 3 181 9 184
13 5 6 119 10 345 12 76 0 113 4 100 9 -11 5 -43 9 -72 9 -61 1 -83 8 -83 27
0 8 -7 14 -15 14 -8 0 -15 -7 -15 -15 0 -8 -7 -15 -16 -15 -11 0 -14 5 -10 16
3 8 6 60 7 115 l1 101 61 -8 c34 -5 79 -8 100 -7 31 1 36 -1 26 -13 -9 -11 -8
-14 7 -15 11 0 87 -2 169 -4 83 -3 189 -7 237 -10 83 -5 86 -5 81 15 -3 11
-12 20 -20 20 -8 0 -11 -5 -7 -12 4 -7 -4 -3 -18 10 -29 26 -61 29 -398 41
-118 4 -220 10 -226 14 -8 5 -12 150 -12 509 -1 277 -4 645 -8 818 -4 173 -4
313 -1 310 3 -3 18 -41 32 -85 15 -44 49 -129 75 -190 26 -60 64 -153 83 -205
50 -132 127 -343 177 -480 22 -63 50 -136 61 -161 12 -25 22 -61 24 -80 2 -19
19 -70 38 -114 52 -122 99 -247 94 -251 -2 -3 -24 15 -47 38 -42 42 -47 35 -7
-9 10 -12 16 -26 13 -31 -3 -5 7 -12 23 -15 16 -4 35 -14 43 -23 26 -32 65
-70 143 -139 44 -38 100 -90 125 -115 l45 -45 -62 -3 c-35 -2 -63 -7 -63 -12
0 -12 6 -13 89 -14 l64 -1 42 -83 c23 -46 48 -89 54 -95 13 -13 -9 43 -40 105
-40 78 -6 80 52 3 23 -30 46 -55 51 -55 5 0 -7 23 -28 51 l-38 52 185 -8 c101
-4 214 -7 252 -6 l67 1 0 -65 c0 -42 4 -64 10 -60 6 3 10 33 10 66 l0 59 34 0
c18 0 47 7 62 15 17 9 56 15 92 15 l62 0 1 -67 c1 -38 1 -74 0 -81 -1 -6 3
-20 8 -30 8 -12 10 8 11 75 0 54 4 95 11 98 6 4 37 7 70 8 84 0 83 14 -2 22
l-71 7 6 57 c4 31 8 217 11 414 3 312 2 357 -11 347 -8 -7 -14 -9 -14 -5 0 4
6 13 13 19 10 7 12 27 9 60 -2 29 -7 44 -12 36 -14 -22 -23 136 -16 265 11
177 7 369 -7 391 -3 6 -6 217 -6 469 0 494 -6 658 -25 633 -8 -10 -18 -13 -32
-8 -18 7 -20 16 -18 90 2 87 12 112 39 90 12 -10 15 -10 15 3 0 9 -9 19 -20
22 -11 4 -18 10 -15 15 3 5 12 7 20 3 12 -4 15 6 17 48 3 99 5 119 11 125 2 3
5 -73 6 -168 0 -95 5 -207 10 -248 5 -41 10 -298 11 -569 0 -272 3 -497 5
-500 17 -16 20 61 24 492 2 360 0 507 -10 582 -7 55 -12 111 -11 125 7 73 2
617 -6 690 -7 60 -7 90 1 105 12 22 14 1158 1 1197 -5 17 -3 20 14 16 11 -3
26 -2 33 3 11 7 10 9 -5 9 -10 0 -28 9 -40 20 -20 19 -213 191 -246 218 -35
30 -125 92 -133 92 -5 0 -6 -6 -3 -12 3 -7 9 -21 12 -30 4 -10 10 -18 14 -18
5 0 32 -22 62 -48 29 -27 63 -55 76 -64 12 -8 45 -36 72 -62 27 -25 57 -46 67
-46 20 0 43 -18 43 -33 0 -4 -5 -5 -12 -1 -28 18 -405 24 -699 12 l-247 -10
-131 132 c-72 73 -131 134 -131 134 0 1 174 1 388 1 369 0 469 5 457 25 -3 4
-33 10 -68 12 -95 4 -607 1 -652 -5 -22 -3 -69 -6 -105 -6 l-65 -1 0 -47 c0
-27 -4 -100 -10 -163 -5 -63 -9 -180 -8 -260 5 -657 2 -1004 -8 -1011 -8 -4
-10 -26 -7 -59 7 -68 -3 -54 -42 60 -17 52 -52 139 -76 192 -24 54 -44 103
-44 111 0 7 -4 17 -9 23 -4 5 -14 32 -21 59 -7 28 -38 111 -68 185 -30 74 -79
196 -109 270 -30 74 -68 168 -84 207 -16 40 -36 85 -46 100 l-17 26 29 -7 c25
-6 27 -5 16 8 -8 9 -21 16 -31 16 -9 0 -33 21 -53 48 -95 125 -175 227 -204
260 l-33 37 7 -35 c3 -19 9 -37 13 -40 3 -3 16 -22 29 -42 32 -53 170 -212
187 -216 56 -13 -34 -17 -353 -14 -354 3 -369 4 -398 24 -16 11 -24 15 -17 7
21 -23 13 -29 -42 -29 -52 0 -56 2 -91 43 -20 23 -45 58 -55 78 -10 19 -39 60
-64 91 -25 31 -43 57 -41 60 2 2 52 0 112 -4 200 -13 722 -14 712 -2 -12 15
-144 22 -539 30 -179 3 -332 7 -340 10 -8 3 -27 21 -42 41 -16 20 -28 33 -28
29z m2053 -425 c3 -14 2 -59 -4 -100 -5 -42 -9 -200 -8 -351 3 -378 -2 -600
-13 -629 -5 -16 -5 -28 2 -35 13 -13 13 -136 0 -173 -6 -15 -18 -33 -27 -40
-13 -10 -14 -19 -5 -55 6 -23 9 -44 7 -47 -10 -10 -28 63 -46 184 -30 198 -31
205 -39 200 -10 -6 -10 -56 1 -76 4 -9 10 -40 13 -69 4 -45 3 -51 -12 -46 -10
3 -8 -1 6 -10 12 -9 22 -21 22 -26 0 -6 -7 -5 -15 2 -8 7 -15 9 -15 4 0 -5 -5
-2 -10 6 -13 20 -13 53 0 45 14 -9 12 9 -2 23 -10 10 -10 15 2 22 13 8 13 10
-1 10 -11 0 -19 12 -24 38 -3 20 -9 48 -11 62 -5 24 -5 24 10 6 15 -19 16 -18
16 12 0 18 -5 32 -10 32 -6 0 -8 13 -5 30 4 20 1 30 -7 30 -10 0 -9 3 1 9 8 6
10 14 5 22 -5 8 -9 25 -10 39 -3 47 -4 51 -14 45 -5 -3 -10 -17 -10 -31 0 -13
-4 -24 -10 -24 -12 0 -22 56 -17 98 3 18 1 35 -4 38 -7 4 -6 77 1 149 2 20
-12 801 -14 825 -2 14 -1 28 1 33 7 12 239 -226 246 -252z m-1761 -1 c-7 -12
-10 -25 -7 -30 3 -6 6 -153 5 -327 -1 -175 -3 -950 -5 -1721 -4 -1436 -7
-1611 -27 -1623 -9 -6 -9 -11 -1 -21 14 -17 11 -94 -5 -110 -9 -9 -12 -3 -13
27 -2 61 -3 68 -14 72 -9 3 -13 -136 -15 -526 0 -19 -3 -31 -7 -28 -7 8 -10
36 -17 230 -3 81 -7 151 -10 155 -3 5 -1 14 4 21 4 8 4 27 0 42 -5 17 -5 29 1
29 5 0 9 4 9 10 0 5 -5 9 -12 7 -19 -4 -21 69 -2 87 14 15 14 17 0 22 -9 3
-14 10 -11 14 8 13 -6 90 -16 90 -8 0 -7 -49 5 -410 3 -103 2 -138 -4 -105 -5
28 -11 91 -13 140 -2 50 -8 137 -12 195 -7 100 -8 191 -4 364 1 57 -3 81 -12
87 -12 8 -11 12 4 23 10 8 15 20 11 30 -3 9 -2 16 4 16 6 0 13 -6 15 -12 3 -8
6 -6 6 5 1 9 -4 17 -11 17 -6 0 -8 3 -5 6 3 4 2 15 -4 25 -7 15 -6 19 5 19 11
0 12 7 7 28 -5 15 -13 26 -18 25 -6 -1 -8 9 -5 22 2 15 0 25 -7 25 -7 0 -9 5
-4 13 12 19 14 47 3 47 -6 0 -10 -8 -11 -17 0 -15 -2 -15 -8 2 -10 25 -5 36
14 28 9 -3 15 1 16 8 0 8 2 24 3 37 2 13 -1 25 -5 27 -4 3 -7 34 -8 70 0 36 4
63 8 61 11 -7 9 59 -2 70 -10 10 -9 26 1 20 5 -3 9 11 10 31 1 21 -3 40 -9 44
-6 4 -13 21 -15 39 -6 51 -15 49 -13 -3 2 -32 7 -47 16 -47 7 0 13 -6 13 -14
0 -9 -7 -12 -20 -9 -15 4 -20 14 -21 42 -2 53 2 74 14 90 9 12 9 13 0 7 -15
-9 -14 -19 -19 194 -10 444 -12 1452 -3 1515 5 39 10 120 11 180 2 61 7 113
13 118 7 4 7 10 0 15 -6 4 -10 104 -10 262 0 140 -4 299 -8 353 -9 115 0 123
52 48 18 -27 41 -58 51 -68 42 -46 45 -61 44 -270 0 -135 4 -203 11 -203 7 0
10 68 10 200 0 110 4 200 8 200 10 0 -18 41 -102 145 l-63 80 108 -107 c100
-99 108 -110 96 -128z m347 24 c13 -11 -19 -16 -129 -21 -66 -3 -123 -10 -126
-14 -4 -8 7 -12 26 -11 87 5 204 13 311 22 195 16 457 26 478 19 11 -5 22 -26
29 -59 7 -29 11 -55 9 -57 -2 -2 -18 20 -36 48 -17 28 -34 49 -38 46 -3 -3 4
-21 15 -39 67 -106 114 -199 165 -323 32 -77 69 -163 83 -192 13 -28 24 -59
24 -67 0 -8 4 -18 10 -21 5 -3 14 -25 21 -48 6 -23 21 -64 34 -92 43 -94 53
-120 65 -165 7 -25 15 -49 19 -55 14 -18 69 -167 116 -315 26 -80 69 -201 95
-270 27 -69 62 -168 79 -220 31 -100 144 -362 187 -437 15 -24 35 -48 45 -54
10 -5 19 -8 19 -7 0 2 -12 39 -26 82 -23 72 -26 97 -30 285 -2 113 -4 208 -5
211 0 3 0 104 1 225 1 121 2 237 2 258 0 20 5 37 10 37 6 0 5 6 -2 15 -7 8 -9
23 -5 32 3 10 6 79 5 153 -2 74 -2 142 -2 150 0 8 1 191 1 405 2 437 4 478 31
470 26 -8 246 -8 452 0 l175 7 6 -33 c6 -39 12 -1463 11 -2309 -4 -1450 -4
-2033 0 -2039 2 -3 7 -102 10 -220 l7 -214 -38 6 c-21 4 -146 7 -279 8 -132 0
-245 4 -251 7 -17 12 -23 52 -7 52 21 0 17 9 -16 40 -16 15 -30 35 -30 44 0
20 1 20 36 1 16 -8 40 -15 53 -15 20 0 21 2 11 15 -7 8 -19 15 -26 15 -43 0
-92 26 -104 54 -7 17 -12 35 -11 40 1 4 -7 27 -18 50 -10 22 -24 59 -31 81
-15 53 -36 104 -77 194 -19 40 -65 162 -102 270 -38 108 -87 239 -110 292 -22
53 -41 103 -41 111 0 9 -7 21 -15 28 -8 7 -13 16 -10 20 3 4 -2 13 -11 20 -11
10 -12 15 -3 21 9 5 7 19 -9 53 -12 25 -22 48 -22 50 0 2 -10 26 -22 53 -12
26 -23 57 -24 68 -1 11 -16 49 -32 85 -16 36 -38 85 -49 110 -11 25 -28 70
-38 100 -9 30 -26 75 -37 100 -12 25 -27 63 -33 85 -12 38 -29 83 -136 360
-21 55 -41 123 -45 150 -4 28 -9 42 -11 33 -3 -10 -8 -18 -12 -18 -13 0 -31
24 -31 40 0 9 -14 27 -32 40 l-32 24 29 -50 c16 -27 36 -54 44 -61 9 -6 13
-15 9 -19 -4 -4 -14 -1 -23 6 -23 19 -29 5 -10 -24 14 -21 16 -42 11 -118 -9
-168 -6 -342 7 -350 9 -6 9 -8 -1 -8 -10 0 -12 -110 -11 -542 1 -698 -5 -1310
-14 -1325 -4 -6 -3 -22 2 -35 5 -13 10 -47 12 -76 l4 -53 -432 -2 -433 -2 -2
35 c0 19 -2 46 -4 60 -1 14 -2 563 -1 1220 0 657 1 1694 1 2304 1 861 4 1110
13 1113 9 3 10 9 1 22 -6 10 -8 26 -5 35 6 14 23 15 154 10 81 -4 150 -8 152
-10z m2283 -1070 c-13 -24 -4 -51 20 -57 19 -5 20 -11 14 -101 -5 -64 -3 -96
4 -96 6 0 10 43 10 115 0 90 3 115 14 115 21 0 46 -80 45 -145 0 -53 -37 -197
-38 -152 -1 9 -6 17 -12 17 -5 0 -8 3 -6 8 3 4 -1 12 -8 19 -9 8 -18 8 -36 -1
-20 -10 -29 -9 -57 7 l-33 19 3 87 c3 78 5 86 23 86 18 0 20 -7 22 -80 3 -113
5 -114 13 -5 4 52 3 99 -1 104 -4 5 -5 16 -2 25 9 29 26 61 31 57 2 -3 0 -12
-6 -22z m28 -336 c-1 -79 0 -89 12 -82 7 4 7 0 0 -12 -5 -11 -7 -24 -5 -31 2
-6 0 -14 -5 -17 -6 -3 -6 -24 -1 -51 6 -33 6 -175 -1 -212 0 -2 -8 5 -18 15
-10 9 -17 22 -15 28 2 6 -3 14 -11 17 -10 4 -14 17 -12 39 2 18 1 25 -1 15 -3
-12 -12 -17 -26 -15 -21 3 -22 8 -22 83 0 73 2 80 20 80 17 0 21 -9 26 -60 l6
-60 3 60 c2 33 5 76 6 95 1 23 6 34 14 32 7 -2 10 3 7 12 -6 14 13 116 21 116
2 0 3 -24 2 -52z m-29 -892 c-7 -9 -6 -19 4 -33 11 -15 14 -54 13 -156 0 -74
2 -139 4 -144 3 -4 6 -30 7 -58 2 -27 8 -53 14 -57 20 -12 0 -20 -22 -8 -14 7
-21 7 -21 0 0 -5 -6 -10 -13 -10 -10 0 -13 12 -11 38 4 65 5 68 18 37 l12 -30
0 43 c0 44 -4 50 -24 30 -8 -8 -12 -8 -12 -1 0 6 6 13 14 16 9 4 13 15 10 34
-3 15 -6 76 -7 135 -2 94 -4 108 -21 116 -17 7 -17 9 -2 24 9 9 13 24 10 32
-4 9 -1 16 6 16 7 0 10 7 6 16 -3 9 -3 21 1 27 4 7 11 -3 15 -22 6 -20 5 -37
-1 -45z m31 -568 l3 -103 33 3 c31 3 45 -11 20 -21 -10 -4 -9 -8 2 -16 9 -7
10 -11 3 -11 -6 0 -14 4 -18 9 -8 14 -45 9 -45 -6 0 -7 -6 -13 -14 -13 -8 0
-16 -6 -19 -12 -2 -7 -8 -10 -12 -6 -4 4 -2 15 5 23 11 13 11 16 -1 13 -8 -2
-13 3 -11 10 1 8 -3 12 -10 10 -13 -5 -14 -30 -7 -112 3 -27 -1 -41 -10 -44
-11 -4 -13 3 -8 32 3 22 0 50 -9 71 -18 45 -18 66 1 59 8 -4 15 -1 15 6 0 6
-9 14 -20 17 -18 5 -20 14 -20 73 0 81 6 100 31 100 17 0 19 -8 19 -95 0 -52
4 -95 9 -95 4 0 11 41 14 91 5 84 17 119 38 119 5 0 10 -46 11 -102z m-1332
-578 c0 -11 4 -22 10 -25 14 -8 56 -102 70 -156 7 -24 30 -77 51 -117 22 -40
41 -85 42 -100 2 -15 15 -52 30 -82 15 -32 22 -56 16 -59 -5 -1 -2 -9 7 -16 9
-6 18 -25 19 -41 2 -16 6 -40 10 -53 6 -16 4 -22 -4 -20 -12 4 -114 233 -127
283 -3 14 -10 29 -15 32 -5 3 -9 15 -9 27 0 12 -14 49 -30 82 -17 33 -30 65
-30 72 0 7 -4 21 -9 31 -23 46 -41 95 -41 112 0 10 -4 22 -10 25 -16 10 -12
35 5 29 8 -4 15 -14 15 -24z m1351 -112 c1 -7 1 -21 0 -30 -3 -21 10 -23 26
-7 18 18 29 -38 25 -123 -2 -33 -5 -38 -27 -38 -23 0 -24 3 -27 68 -4 90 -23
82 -23 -11 0 -52 3 -71 13 -69 14 2 16 -27 2 -48 -8 -12 -10 -12 -10 -1 0 10
-3 11 -14 2 -17 -14 -31 2 -22 24 3 8 1 17 -4 20 -6 4 -10 37 -10 74 0 76 21
134 46 124 10 -4 12 0 8 11 -3 9 -1 16 5 16 6 0 12 -6 12 -12z m-2879 -315
c-4 -404 0 -556 15 -607 3 -12 1 -17 -8 -14 -19 6 -26 44 -30 154 -3 110 1
542 5 589 5 47 6 49 13 42 3 -4 5 -78 5 -164z m2872 -69 c6 2 7 1 3 -2 -9 -5
11 -32 24 -32 5 0 5 8 2 18 -6 14 -4 15 9 4 14 -11 17 -10 21 5 2 10 3 -18 2
-62 -4 -110 -13 -145 -37 -145 -18 0 -20 7 -18 78 3 97 2 102 -10 102 -6 0
-10 -26 -10 -59 0 -81 -10 -149 -24 -154 -8 -3 -10 30 -9 115 2 130 7 158 25
140 6 -6 16 -9 22 -8z"/>
<path d="M16744 6487 c-2 -7 -3 -58 -2 -113 l3 -99 46 -3 c72 -5 80 10 77 127
l-3 96 -58 3 c-41 2 -59 -1 -63 -11z m96 -102 l0 -95 -40 0 -40 0 0 95 0 95
40 0 40 0 0 -95z"/>
<path d="M16779 5703 c-23 -4 -27 -10 -33 -50 -3 -25 -6 -74 -6 -108 0 -72 8
-80 76 -69 50 7 52 10 48 129 -4 105 -8 110 -85 98z"/>
<path d="M16970 5700 l-35 -5 -3 -106 -3 -106 42 -6 c23 -3 52 -1 65 5 23 11
24 16 24 113 l0 103 -27 3 c-16 3 -44 2 -63 -1z m70 -115 l0 -95 -45 0 -45 0
0 88 c0 49 3 92 7 95 3 4 24 7 45 7 l38 0 0 -95z"/>
<path d="M17153 5700 c-13 -5 -23 -11 -23 -12 -1 -2 -3 -45 -7 -97 -7 -106 1
-121 63 -121 63 0 64 2 64 120 l0 108 -31 6 c-38 7 -38 7 -66 -4z m75 -113 l3
-98 -38 3 -38 3 -3 84 c-4 105 -1 113 40 109 l33 -3 3 -98z"/>
<path d="M16747 5266 c-11 -12 -13 -35 -10 -103 2 -48 6 -94 8 -100 3 -9 24
-13 60 -13 l55 0 0 109 c0 104 -1 109 -22 115 -39 10 -76 7 -91 -8z m93 -111
l0 -95 -40 0 -40 0 0 95 0 95 40 0 40 0 0 -95z"/>
<path d="M16937 5273 c-4 -3 -7 -55 -7 -114 l0 -107 26 -5 c15 -2 44 -2 65 0
l38 6 0 103 c0 92 -2 105 -19 114 -21 11 -93 14 -103 3z"/>
<path d="M17160 5270 c-24 -6 -25 -8 -28 -113 l-3 -108 58 3 58 3 3 99 c1 55
-1 103 -5 107 -12 12 -55 17 -83 9z"/>
<path d="M16757 4843 c-15 -4 -17 -17 -15 -111 l3 -107 54 0 c50 0 55 2 62 26
3 15 6 64 5 110 l-1 84 -45 2 c-25 0 -53 -1 -63 -4z m91 -110 l3 -93 -41 0
-40 0 0 96 0 95 38 -3 37 -3 3 -92z"/>
<path d="M16953 4842 c-7 -5 -12 -43 -14 -107 l-2 -99 28 -8 c15 -4 43 -4 62
0 l33 7 4 101 5 102 -31 6 c-40 8 -70 7 -85 -2z m87 -107 l0 -95 -40 0 -40 0
0 95 0 95 40 0 40 0 0 -95z"/>
<path d="M16578 4443 c-10 -2 -18 -9 -19 -14 0 -5 -1 -51 -1 -101 l-1 -93 29
-8 c17 -5 40 -4 57 2 l27 11 0 105 0 105 -37 -1 c-21 -1 -46 -3 -55 -6z"/>
<path d="M16763 4433 c-4 -9 -7 -60 -7 -113 l-1 -95 39 -3 c82 -7 82 -6 80
115 l-3 108 -50 3 c-42 2 -53 0 -58 -15z"/>
<path d="M16947 4436 c-3 -8 -7 -59 -8 -113 l-2 -98 33 -3 c19 -2 49 -1 67 3
l34 6 -3 107 -3 107 -56 3 c-43 2 -58 -1 -62 -12z m88 -106 l0 -95 -35 0 -35
0 -3 89 c-3 96 2 108 48 104 25 -3 25 -4 25 -98z"/>
<path d="M16577 4023 c-4 -3 -7 -55 -7 -115 l0 -109 55 3 c48 3 57 6 62 26 3
12 0 42 -6 67 -6 24 -11 57 -11 74 0 20 -8 35 -22 45 -23 16 -60 21 -71 9z"/>
<path d="M16985 4022 c-35 -7 -39 -20 -41 -116 -2 -88 0 -95 20 -100 36 -10
83 -7 93 7 5 7 7 52 4 106 -6 91 -7 95 -31 101 -14 3 -34 4 -45 2z"/>
<path d="M16995 3641 l-40 -6 -7 -80 c-10 -110 -6 -122 39 -128 21 -2 42 0 48
4 5 5 16 9 25 9 13 0 14 13 10 92 -5 88 -12 120 -28 117 -4 -1 -25 -5 -47 -8z"/>
<path d="M16756 3591 c-10 -71 -7 -146 6 -159 16 -16 69 -15 92 3 16 12 20 30
22 104 l4 89 -59 4 -59 3 -6 -44z"/>
<path d="M4770 7972 l0 -28 -277 1 c-346 1 -661 -8 -613 -17 91 -18 643 -29
768 -15 62 7 72 6 72 -7 0 -9 -11 -18 -25 -22 -14 -3 -25 -9 -25 -14 0 -4 -30
-29 -67 -56 -36 -27 -71 -53 -77 -59 -6 -6 -31 -26 -56 -45 -25 -19 -59 -49
-76 -68 -31 -33 -32 -34 -95 -28 -35 3 -135 5 -221 6 -144 0 -159 2 -176 20
-14 15 -26 19 -50 14 -17 -4 -29 -10 -26 -15 3 -5 -6 -9 -20 -9 -16 0 -25 5
-23 13 1 9 -18 11 -78 9 -97 -4 -124 -10 -104 -24 10 -7 8 -7 -8 -3 -13 3 -23
3 -23 -2 0 -4 -16 -9 -36 -10 -45 -2 -48 -5 111 103 174 117 251 177 237 182
-17 5 -80 -33 -281 -170 -96 -66 -187 -126 -203 -134 -35 -18 -35 -23 -1 -21
24 2 28 -2 34 -38 4 -22 8 -161 7 -310 0 -328 11 -926 18 -937 3 -4 -16 -8
-41 -8 -28 0 -44 4 -40 10 3 6 17 10 31 10 14 0 24 6 24 14 0 25 -24 24 -52
-2 -25 -22 -37 -25 -142 -30 l-115 -5 -31 32 c-32 32 -58 39 -76 21 -7 -7 -11
175 -12 582 0 501 2 588 13 563 11 -26 12 -10 8 120 -3 83 -6 188 -6 235 l-2
85 45 7 c54 8 -705 0 -839 -8 -98 -7 -138 -21 -192 -71 -14 -13 -61 -44 -104
-69 -59 -33 -81 -41 -87 -32 -6 10 -10 10 -17 -2 -5 -8 -8 -17 -5 -21 2 -4
-21 -22 -52 -39 -53 -31 -56 -31 -69 -14 -8 11 -15 26 -15 34 0 12 -2 13 -9 1
-5 -7 -6 -21 -4 -31 3 -11 -4 -24 -18 -34 -23 -16 -23 -16 -2 -16 19 0 21 -3
13 -29 -4 -16 -6 -32 -3 -35 3 -3 7 -90 9 -193 2 -103 8 -312 13 -463 5 -151
8 -291 6 -310 -21 -248 -24 -765 -6 -1109 12 -218 16 -819 6 -946 -12 -173
-14 -331 -5 -393 5 -37 14 -114 21 -172 14 -135 13 -130 39 -230 39 -150 105
-294 195 -431 19 -29 32 -55 29 -58 -3 -3 -39 29 -81 72 -41 42 -77 77 -80 77
-27 0 349 -374 427 -425 36 -23 70 -48 77 -56 6 -8 14 -47 16 -87 5 -68 4 -74
-16 -82 -14 -5 62 -9 198 -9 133 -1 234 -5 255 -12 42 -14 627 -23 715 -12
l60 8 -70 6 c-38 4 -105 11 -147 15 -43 3 -78 11 -78 17 0 6 22 7 58 3 31 -3
62 -7 67 -7 40 -3 199 13 222 22 15 6 94 17 176 24 134 11 168 17 156 29 -9 9
-139 15 -144 7 -7 -13 -45 -21 -45 -10 0 5 8 12 18 15 21 8 156 69 196 90 16
8 31 12 34 9 3 -2 6 -42 7 -89 l3 -84 -179 3 c-99 2 -179 0 -179 -4 0 -17 72
-26 195 -26 105 1 136 4 164 19 31 16 35 17 43 2 11 -20 33 -20 55 -1 10 9 30
26 44 38 14 12 28 30 32 39 6 18 76 52 86 43 3 -3 -5 -8 -17 -12 -55 -14 -11
-23 113 -23 93 0 135 3 135 11 0 6 -10 9 -23 7 -20 -4 -55 17 -46 27 2 2 28
-1 57 -6 35 -7 63 -7 80 0 24 8 22 9 -20 10 -28 1 -48 6 -48 12 0 6 -9 9 -19
6 -28 -7 -49 9 -22 18 37 11 23 25 -26 25 l-48 0 25 -20 25 -20 -57 2 c-32 0
-55 5 -52 10 3 5 14 6 24 3 10 -3 21 -1 24 4 4 6 -9 13 -29 17 -19 3 -35 9
-35 13 0 15 535 22 605 8 40 -8 40 -8 16 9 -19 14 -47 18 -135 19 -61 1 -138
3 -171 4 -118 7 2 18 155 15 123 -2 135 -2 75 6 -177 23 -403 21 -388 -3 4 -7
0 -8 -11 -4 -10 4 -20 7 -22 7 -3 0 -3 4 1 9 13 22 -101 26 -150 5 -18 -7 -19
-7 -4 8 17 18 57 21 228 19 47 -1 87 2 90 6 3 5 13 9 21 10 8 1 26 4 40 7 22
6 22 5 -3 -5 -47 -19 -19 -29 79 -27 95 1 144 14 58 16 -26 0 -50 4 -55 9 -5
5 20 8 59 7 52 -2 63 0 48 8 -22 12 -221 28 -341 28 -44 0 -91 0 -105 0 -99 2
-217 -1 -232 -6 -32 -10 -19 12 35 61 90 82 376 388 370 398 -3 4 1 16 9 25
65 77 165 334 198 512 4 25 15 68 23 95 16 56 39 167 41 205 1 14 6 32 11 39
5 10 4 12 -3 7 -7 -4 -12 -3 -12 3 0 5 5 13 11 16 12 8 1 67 -15 77 -7 5 -4 8
7 8 10 0 16 4 13 8 -9 15 -15 101 -21 313 -4 112 -9 207 -11 210 -3 6 -4 49
-4 594 0 193 -1 596 -3 898 -1 301 1 547 5 547 3 0 9 -8 11 -17 3 -10 5 -2 6
17 0 19 -3 30 -7 23 -4 -6 -8 93 -9 220 -1 128 -4 270 -7 317 -8 125 -1 162
36 183 16 9 42 17 56 18 l27 1 -28 8 c-19 6 -36 4 -55 -6 -37 -19 -43 -18 -41
9 4 45 -1 87 -11 87 -5 0 -10 -13 -10 -28z m-1780 -64 c0 -7 -12 -20 -28 -30
-53 -32 -148 -101 -188 -138 -70 -64 -120 -93 -149 -86 -14 4 -25 2 -25 -4 0
-5 8 -10 18 -10 16 -1 16 -1 0 -11 -26 -15 -469 -23 -478 -9 -5 8 -61 12 -184
13 -97 1 -176 4 -176 8 0 7 141 99 215 139 33 18 75 48 94 67 l34 33 236 0
c215 0 596 22 609 35 10 9 22 5 22 -7z m-22 -333 c-6 -148 -9 -351 -7 -450 2
-99 4 -330 4 -513 0 -316 -1 -334 -19 -347 -31 -23 -37 -8 -30 72 5 59 4 77
-7 84 -12 8 -12 11 1 19 13 9 13 11 0 20 -12 8 -13 13 -2 30 14 23 16 70 3 70
-16 0 -24 -63 -25 -193 l-1 -128 -54 -16 c-54 -15 -54 -15 -72 8 -13 18 -19
51 -24 139 -9 174 -12 179 -14 23 0 -88 -5 -143 -11 -143 -12 0 -13 21 -11
160 2 126 3 143 14 151 5 3 5 21 0 40 -5 19 -7 97 -6 174 1 77 2 151 2 165 -2
38 -1 52 4 84 2 16 1 56 -3 89 -4 33 -3 78 1 100 4 22 3 53 -1 68 -5 17 -4 44
2 66 11 38 12 50 16 189 2 70 2 70 42 100 62 44 171 155 167 167 -3 9 34 50
39 44 1 -1 -3 -123 -8 -272z m1789 166 c-11 -130 -7 -2013 3 -2066 1 -6 2 -45
1 -87 -1 -64 -4 -76 -16 -72 -11 5 -15 -1 -15 -26 0 -17 4 -29 10 -25 5 3 7
12 3 20 -3 8 0 15 7 15 9 0 10 -19 5 -72 -4 -40 -7 -82 -7 -93 0 -28 9 -267
17 -462 5 -116 4 -163 -4 -163 -6 0 -11 -5 -11 -11 0 -5 4 -8 9 -4 5 3 12 1
16 -5 3 -6 -1 -13 -9 -16 -11 -4 -16 -19 -16 -42 0 -61 -22 -214 -30 -203 -3
7 -5 45 -4 86 2 43 -1 75 -6 75 -9 0 -17 -194 -11 -240 4 -31 1 -147 -4 -190
-11 -81 -12 -120 -5 -125 14 -9 -74 -274 -90 -275 -11 0 -3 74 8 78 7 2 12 11
12 21 0 9 4 21 9 26 5 6 12 25 16 43 5 23 3 32 -7 32 -11 0 -11 2 1 9 10 6 11
13 2 29 -8 15 -8 23 0 27 6 4 8 13 5 21 -3 8 1 17 8 20 20 8 16 45 -4 41 -11
-1 -15 7 -14 38 1 31 5 40 18 39 16 -2 16 0 1 23 -9 14 -14 27 -11 31 3 3 6 0
6 -6 0 -7 5 -12 11 -12 6 0 8 9 4 21 -5 14 -1 25 12 35 17 14 17 14 -1 7 -16
-5 -18 -2 -14 22 3 15 0 51 -6 79 -7 29 -11 57 -8 64 2 7 -1 12 -7 12 -11 0
-7 -72 6 -115 5 -17 4 -18 -10 -7 -13 11 -16 9 -20 -15 -3 -15 -5 -50 -6 -77
0 -32 -6 -53 -17 -60 -8 -7 -14 -16 -13 -21 4 -17 -13 -65 -22 -65 -12 0 -12
17 0 24 4 3 7 18 5 33 -1 15 0 32 4 38 3 5 7 15 9 20 1 6 8 33 15 61 8 28 11
60 7 70 -6 15 -8 13 -9 -11 0 -16 -7 -43 -15 -60 -14 -29 -14 -29 -9 20 12
138 13 158 7 152 -3 -4 -12 1 -19 11 -13 16 -13 16 -14 -3 0 -14 -3 -16 -11
-8 -8 8 -8 17 0 31 6 10 8 22 4 25 -5 6 11 81 25 117 6 16 9 28 11 48 0 6 9
12 20 12 31 0 54 61 41 109 -6 22 -9 43 -8 48 5 22 -16 75 -36 88 -17 11 -22
25 -24 67 -1 29 -5 61 -8 70 -3 10 -2 18 3 18 11 0 34 -38 25 -42 -4 -2 -4
-25 -1 -53 l6 -50 1 54 c2 68 12 60 22 -16 l7 -58 2 54 c1 36 -4 60 -14 71 -8
9 -16 41 -19 71 -2 30 -9 66 -14 80 -6 15 -8 30 -5 33 3 3 1 11 -4 18 -13 17
-36 96 -39 131 -1 21 2 27 13 23 12 -5 13 3 9 42 -2 26 -5 50 -5 55 -1 4 -5 7
-10 7 -4 0 -5 -19 -1 -42 5 -24 6 -45 4 -47 -7 -8 -44 31 -38 41 3 5 0 15 -6
23 -6 8 -9 22 -6 32 3 10 1 41 -4 68 l-9 50 4 -59 c2 -32 0 -55 -4 -50 -5 5
-12 122 -16 259 -4 138 -9 300 -11 360 -5 138 -17 571 -17 605 0 14 1 199 2
411 l2 385 37 20 c20 10 44 26 52 34 9 8 33 28 52 44 20 16 34 35 31 43 -4 9
-24 -3 -67 -39 -33 -29 -69 -59 -79 -67 -9 -8 -20 -11 -24 -7 -4 3 6 16 22 29
16 12 52 41 82 65 29 23 62 42 73 42 12 0 22 9 25 23 3 12 19 28 36 36 16 7
29 18 29 24 0 6 12 21 28 33 33 27 36 20 29 -75z m-2718 -130 c52 0 92 -4 89
-7 -3 -3 -36 -9 -73 -15 -83 -11 -124 -31 -50 -23 28 3 175 6 328 7 l277 2 1
-385 c2 -997 1 -1033 -30 -1057 -9 -7 -40 -27 -69 -44 -50 -29 -57 -31 -91
-19 -61 20 -93 11 -115 -33 -14 -29 -15 -42 -7 -50 22 -22 10 -41 -80 -132
-85 -87 -92 -92 -131 -92 -50 0 -83 -32 -74 -70 3 -13 9 -35 13 -50 5 -21 -6
-50 -48 -130 -49 -94 -57 -104 -90 -113 -21 -6 -40 -17 -43 -26 -10 -25 -7
-82 4 -89 19 -12 11 -82 -32 -258 -6 -26 -17 -41 -33 -47 -13 -5 -27 -16 -32
-25 -5 -9 -14 126 -21 342 -7 197 -15 374 -18 393 -3 19 -4 193 -3 385 5 547
4 864 -1 1210 l-5 319 25 7 c14 3 68 5 120 4 52 -1 137 -3 189 -4z m1914 -30
c7 -7 69 -11 157 -12 136 -1 254 -9 264 -19 2 -3 7 -277 10 -610 9 -1015 21
-1407 42 -1441 3 -5 1 -9 -4 -9 -9 0 -52 88 -52 107 0 4 -21 35 -45 67 -60 80
-56 94 7 26 50 -55 51 -55 45 -23 -13 66 -40 90 -99 85 -22 -2 -138 134 -138
161 0 29 -47 105 -69 112 -11 3 -34 5 -53 4 -47 -3 -159 67 -152 96 6 27 -30
83 -59 90 -13 4 -41 0 -61 -9 -36 -15 -41 -14 -148 21 -61 21 -106 39 -101 40
6 2 8 43 6 101 -2 53 -5 180 -8 282 -2 102 -7 286 -10 410 -4 185 -16 394 -28
505 -2 19 5 20 138 25 195 7 346 3 358 -9z m-609 -1361 c4 -5 -11 -21 -34 -37
-70 -46 -89 -55 -111 -48 -24 8 -89 69 -89 84 0 19 213 20 234 1z m-394 -41
c0 -52 -54 -102 -75 -69 -9 15 -25 12 -25 -5 0 -8 4 -15 10 -15 5 0 7 -6 4
-14 -11 -29 40 -13 74 22 33 36 51 38 34 5 -5 -10 -7 -24 -5 -30 3 -7 0 -14
-6 -14 -6 -1 -14 -2 -18 -4 -5 -1 -26 -5 -48 -10 -22 -4 -62 -16 -89 -27 -27
-10 -51 -16 -54 -13 -6 6 -14 45 -16 80 0 11 -5 23 -10 27 -13 9 12 38 33 38
14 -1 13 -3 -3 -15 -10 -7 -15 -19 -11 -25 5 -8 10 -8 20 0 8 7 23 9 34 5 35
-11 47 6 20 26 -20 16 -22 20 -9 29 8 5 25 10 36 10 12 0 37 6 55 14 39 16 49
13 49 -15z m495 7 c2 -6 6 -35 9 -65 l5 -53 -72 7 c-98 9 -323 9 -371 0 l-38
-8 7 34 c6 31 49 81 71 86 5 1 16 4 24 7 9 4 37 -12 70 -39 30 -25 62 -45 71
-45 9 0 33 11 53 25 20 14 40 25 43 25 4 0 17 10 30 21 18 18 25 20 38 9 12
-10 15 -10 15 3 0 17 40 12 45 -7z m112 -6 c23 -5 67 -19 97 -31 44 -16 56
-25 57 -42 0 -12 3 -16 6 -9 5 14 33 17 33 3 0 -6 -5 -13 -10 -16 -7 -4 -6
-13 1 -27 6 -12 11 -38 11 -60 -1 -21 3 -38 9 -38 12 0 12 87 -1 95 -13 8 -13
25 1 25 20 0 174 -80 208 -109 33 -27 34 -30 34 -105 0 -80 13 -92 20 -19 2
24 6 45 9 49 17 16 198 -150 198 -182 0 -15 -152 2 -198 22 -52 22 -51 22
-136 92 -119 98 -214 153 -344 201 -24 9 -44 20 -45 25 -2 8 52 16 121 18 18
1 31 6 29 12 -4 12 -117 15 -117 4 0 -15 -28 -8 -34 8 -9 22 -7 94 2 94 4 0
26 -5 49 -10z m-945 -137 c-2 -27 -14 -61 -26 -78 -11 -16 -21 -34 -21 -40 -1
-5 -7 -8 -15 -6 -8 2 -32 3 -52 3 -39 1 -46 6 -27 25 8 8 7 17 -3 33 -15 25
-10 29 81 82 65 37 69 36 63 -19z m775 -14 c29 -6 55 -14 58 -19 3 -4 8 -89
11 -187 7 -208 -3 -300 -48 -406 -76 -183 -161 -423 -155 -440 3 -11 56 114
108 253 60 162 76 201 85 200 5 0 9 -58 9 -128 l0 -127 -84 -110 c-104 -138
-97 -130 -114 -117 -8 7 -17 9 -20 6 -3 -3 -12 -2 -19 2 -7 5 -25 7 -39 6 -25
-3 -26 -1 -48 120 -12 68 -31 164 -42 213 -18 84 -51 281 -63 385 -3 25 -8
113 -12 197 l-7 151 54 6 c124 14 237 12 326 -5z m-409 -213 c-3 -205 -16
-264 -23 -105 -4 87 -11 151 -21 183 -4 12 -2 16 5 11 8 -5 10 2 6 22 -11 46
-14 53 -25 53 -10 0 -9 -43 5 -242 3 -42 14 -96 24 -120 14 -33 18 -63 16
-128 -1 -47 -3 -118 -4 -158 0 -40 -5 -71 -10 -68 -4 3 -16 31 -26 63 -10 32
-21 63 -25 68 -4 6 -11 21 -15 35 -4 14 -21 54 -38 90 -49 106 -66 161 -72
235 -2 22 -4 40 -5 40 -1 0 -4 26 -5 57 -4 62 -12 85 -26 71 -5 -5 -5 -23 1
-42 5 -18 10 -82 12 -143 1 -61 5 -102 9 -92 5 11 8 13 8 5 1 -13 13 -42 67
-157 13 -28 24 -54 24 -58 0 -9 55 -137 80 -187 15 -30 27 -130 21 -174 -1 -5
-40 30 -86 80 -68 71 -83 94 -79 111 9 34 9 91 1 174 -15 147 -22 180 -36 180
-4 0 -2 -30 5 -67 17 -96 28 -293 16 -293 -5 0 -26 18 -46 40 -36 40 -42 65
-39 155 1 16 -2 32 -7 35 -5 3 -9 41 -10 85 -3 101 -3 100 15 85 13 -10 15 -9
16 11 3 70 -4 175 -12 184 -6 6 -8 -24 -4 -83 3 -51 1 -92 -4 -92 -15 0 -18
21 -18 130 l-1 105 37 17 c81 36 108 47 149 58 23 6 47 8 52 5 6 -3 10 -2 10
4 0 9 19 17 48 20 9 1 12 -44 10 -203z m592 158 c87 -35 196 -91 245 -124 75
-52 205 -176 271 -261 71 -91 99 -140 140 -246 82 -215 99 -303 98 -528 0
-169 -2 -188 -32 -310 -39 -157 -75 -240 -158 -365 -88 -132 -211 -251 -358
-345 -108 -68 -161 -94 -170 -84 -2 2 -28 72 -57 154 l-53 150 0 217 c-1 191
3 243 16 209 10 -29 386 -471 400 -471 5 0 -21 35 -57 78 -76 87 -249 298
-311 377 -34 44 -42 63 -48 114 -8 74 -2 90 28 63 28 -25 237 -158 406 -259
154 -91 200 -116 206 -110 2 2 -44 32 -104 67 -196 117 -456 282 -499 316 -36
29 -41 38 -40 71 2 44 7 44 97 18 98 -29 252 -66 256 -62 3 2 -56 21 -131 42
-213 59 -210 57 -213 97 l-3 35 103 6 c153 8 672 59 680 66 9 8 -52 4 -327
-19 -126 -11 -282 -21 -345 -23 l-115 -2 -2 25 c-4 57 -2 58 212 143 61 24
119 47 129 51 10 3 16 9 13 12 -2 3 -42 -9 -88 -27 -46 -18 -122 -47 -168 -65
-47 -18 -89 -30 -94 -27 -5 3 -7 33 -4 67 5 59 7 62 69 121 35 33 88 82 118
108 49 43 50 45 10 16 -25 -18 -77 -61 -117 -96 -44 -39 -74 -59 -78 -53 -17
28 12 93 102 228 52 79 93 145 90 148 -4 5 -64 -77 -147 -203 -19 -29 -39 -53
-44 -53 -10 0 -1 282 12 388 5 34 6 62 2 62 -3 0 -7 70 -9 155 -1 85 -1 155 1
155 3 0 33 -12 68 -26z m-1200 -71 c0 -3 -7 -14 -16 -24 -10 -11 -16 -41 -18
-87 -3 -65 -6 -74 -43 -119 -22 -26 -64 -88 -94 -138 -29 -49 -56 -92 -59 -95
-3 -3 -7 -14 -8 -25 -2 -11 -14 -42 -27 -70 -13 -27 -35 -103 -50 -168 -15
-64 -30 -119 -35 -122 -4 -2 -20 16 -36 41 -36 57 -44 39 -10 -22 29 -52 32
-74 14 -93 -11 -10 -10 -11 2 -6 14 5 15 -3 10 -57 -4 -35 -5 -89 -4 -121 2
-47 0 -56 -9 -44 -7 8 -23 18 -37 21 -14 3 -19 3 -12 0 19 -9 14 -54 -12 -109
-14 -27 -23 -53 -20 -56 2 -4 -3 -12 -11 -19 -8 -7 -16 -11 -16 -9 -4 13 -9
55 -14 137 -5 78 -4 92 9 92 8 0 18 -4 21 -10 3 -5 10 -10 16 -10 5 0 4 8 -2
18 -10 15 -6 26 16 60 15 23 32 42 36 42 5 0 9 10 9 23 -1 14 -13 30 -35 44
-19 12 -35 18 -35 13 0 -5 9 -14 20 -20 11 -6 20 -21 20 -34 0 -24 -49 -97
-63 -93 -9 3 -16 167 -7 167 3 0 5 15 4 33 -2 17 2 50 8 72 5 22 12 55 15 73
5 33 27 43 37 17 9 -24 26 -17 26 10 0 16 -6 25 -15 25 -8 0 -15 9 -15 20 0
11 3 20 6 20 10 0 34 -28 34 -39 0 -22 27 -10 65 29 28 29 34 40 22 40 -9 0
-24 12 -34 28 -9 15 -25 34 -34 42 -16 13 -16 19 -5 51 7 20 27 57 44 83 18
26 32 51 32 56 0 13 18 22 30 15 6 -4 4 -15 -6 -29 -13 -20 -13 -30 -2 -65 9
-29 18 -41 32 -41 18 0 18 1 2 19 -9 10 -19 34 -23 54 -4 29 -2 36 16 42 11 3
21 11 21 16 0 5 8 9 18 9 9 0 32 14 51 30 30 26 31 31 18 45 -9 8 -19 24 -22
35 -3 11 -11 20 -16 20 -24 0 -2 31 73 107 46 46 91 83 100 83 10 0 18 -3 18
-7z m258 -231 c2 -119 6 -225 8 -234 9 -32 -8 -19 -88 67 -43 46 -98 99 -121
117 -23 18 7 -19 66 -81 60 -63 115 -123 122 -135 15 -23 26 -196 13 -196 -4
0 -32 16 -63 35 -30 20 -55 32 -55 28 0 -4 25 -23 56 -42 30 -19 57 -38 61
-44 3 -5 5 -46 4 -90 -2 -57 2 -83 11 -88 29 -19 -61 -7 -235 30 -100 22 -204
43 -232 47 -97 13 -38 -5 130 -40 288 -60 308 -65 317 -74 5 -5 8 -40 6 -78
l-3 -69 -236 -7 c-130 -4 -254 -12 -275 -17 -30 -7 -17 -8 51 -4 50 2 173 6
275 6 l185 2 3 -72 3 -71 -153 -50 c-175 -57 -338 -119 -353 -135 -7 -7 -4 -8
10 -2 64 24 478 165 486 165 6 0 9 -37 7 -92 l-3 -93 -187 -120 c-102 -66
-185 -121 -183 -123 5 -5 126 66 253 148 62 40 114 71 117 69 2 -3 5 -68 6
-145 2 -154 1 -157 -71 -264 -51 -77 -55 -84 -41 -76 6 4 35 42 64 84 l52 77
6 -71 c12 -132 48 -241 97 -296 27 -31 -4 -19 -59 22 -30 22 -58 40 -64 40
-14 0 -164 133 -224 198 -69 75 -185 223 -214 272 -35 60 -79 179 -71 191 3 6
-1 16 -9 22 -47 39 -67 432 -28 557 12 36 21 74 21 85 0 49 104 316 139 358 8
9 11 17 7 17 -4 0 6 18 23 39 17 21 31 43 31 48 0 14 55 73 68 73 7 0 12 6 12
13 0 24 215 214 245 216 6 1 11 -80 13 -217z m1551 17 c64 -2 70 -4 93 -33 43
-54 126 -232 113 -244 -4 -5 -33 6 -132 49 -29 13 -56 38 -91 84 -27 36 -70
87 -95 114 -26 27 -47 52 -47 54 0 3 20 -1 45 -9 25 -7 77 -14 114 -15z
m-1149 -174 c13 -90 62 -346 85 -445 8 -36 18 -78 22 -94 13 -58 -22 -20 -72
80 l-50 99 -2 235 c-1 129 0 228 2 220 2 -8 9 -51 15 -95z m1285 -102 c33 -18
40 -26 37 -48 -2 -17 1 -24 7 -20 6 3 11 15 11 26 0 29 22 18 31 -15 8 -28 4
-109 -6 -125 -3 -5 -1 -12 5 -16 6 -3 10 -25 10 -48 -1 -23 0 -60 2 -82 2 -22
0 -50 -4 -61 -4 -12 -4 -25 -1 -28 7 -7 6 -309 -2 -495 -6 -140 -20 -179 -71
-196 -16 -5 -40 -18 -54 -28 -34 -24 -36 -8 -6 52 14 28 26 57 26 66 0 9 7 18
15 21 10 4 13 14 9 30 -3 12 0 40 7 61 7 21 12 44 11 51 -2 7 4 15 13 18 16 7
21 44 6 44 -6 0 -6 12 -1 30 13 47 10 258 -5 330 -8 36 -17 90 -20 121 -7 61
-29 145 -44 163 -13 16 -71 164 -71 182 0 16 0 16 95 -33z m-1455 -274 c83
-87 120 -142 105 -157 -2 -3 -19 8 -37 24 -18 16 -75 55 -125 87 -51 33 -94
66 -97 75 -5 18 -10 106 -7 132 1 10 14 1 34 -24 18 -21 75 -83 127 -137z
m1598 55 c7 -23 12 -53 12 -67 0 -14 5 -27 11 -29 13 -4 23 -373 12 -392 -4
-6 -7 -26 -6 -46 1 -38 -23 -185 -32 -200 -12 -19 -25 -10 -20 13 16 76 23
593 8 705 -10 77 -4 83 15 16z m-1712 -85 c16 -17 56 -46 89 -66 67 -39 125
-90 125 -110 0 -17 9 -18 -135 18 l-125 31 0 79 c0 44 4 79 8 79 5 0 21 -14
38 -31z m708 -11 c-4 -18 -7 -64 -6 -103 1 -38 -2 -75 -6 -81 -4 -6 -27 -21
-52 -33 -25 -12 -36 -18 -25 -15 78 24 76 24 84 1 12 -32 6 -37 -52 -39 l-52
-1 50 -6 c46 -6 50 -8 53 -35 3 -26 1 -28 -20 -22 -13 3 -34 8 -48 11 -22 5
-23 4 -5 -5 11 -5 32 -14 48 -20 23 -8 27 -15 27 -50 l0 -41 -28 20 c-16 11
-35 27 -42 36 -7 9 -23 21 -34 26 -12 6 7 -16 42 -48 59 -54 63 -61 61 -98 -1
-22 2 -62 5 -90 l8 -50 -21 25 -21 25 14 -36 c9 -21 18 -89 21 -160 3 -68 8
-135 11 -149 8 -35 -7 -17 -23 28 -59 161 -155 462 -148 462 2 0 15 -21 30
-46 41 -70 41 -45 0 31 -38 69 -39 89 -3 66 19 -12 19 -11 6 8 -15 22 -13 71
3 71 5 0 3 11 -3 25 -8 19 -8 29 0 37 8 8 7 15 -4 25 -17 17 -19 43 -3 43 7 0
33 17 58 37 25 20 48 38 50 40 2 2 1 6 -2 10 -4 4 -22 -7 -40 -24 -48 -46 -97
-67 -97 -42 0 6 17 31 38 57 21 26 55 68 76 95 44 56 61 61 50 15z m-686 -155
c177 -44 187 -47 190 -74 l3 -26 -128 -6 c-70 -3 -128 -5 -129 -4 -4 6 -11
127 -7 127 3 0 35 -7 71 -17z m279 -43 c1 -11 -2 -20 -6 -20 -4 0 -6 -12 -6
-27 1 -16 -3 -34 -9 -41 -6 -9 -6 -16 1 -20 5 -4 13 -23 17 -43 4 -26 13 -38
28 -42 16 -5 19 -11 14 -29 -4 -13 -16 -54 -26 -91 -10 -38 -25 -83 -33 -100
-8 -18 -17 -39 -21 -47 -3 -8 -4 1 -1 20 3 19 7 63 10 98 2 35 8 68 11 74 5 7
2 9 -7 6 -11 -4 -14 8 -14 61 0 36 4 72 8 79 5 6 4 12 -1 12 -12 0 -11 34 2
42 8 5 7 8 -1 8 -7 0 -13 6 -13 14 0 8 6 16 13 19 9 3 9 7 -1 19 -8 11 -9 18
-3 22 6 4 7 14 4 24 -6 16 -5 16 13 0 11 -9 20 -26 21 -38z m178 -3 c35 -20
40 -27 43 -64 3 -34 -2 -47 -30 -78 -31 -36 -34 -37 -80 -32 -62 8 -65 10 -79
56 -9 32 -8 44 6 75 17 36 55 65 85 65 8 1 33 -9 55 -22z m-1436 -60 c6 -8 14
-53 16 -98 3 -46 10 -112 16 -147 11 -58 10 -65 -9 -85 -25 -27 -36 -68 -28
-101 4 -17 18 -28 48 -38 40 -14 43 -18 81 -109 22 -51 44 -111 50 -132 10
-34 9 -39 -11 -53 -17 -12 -22 -25 -22 -59 0 -52 16 -65 80 -65 40 0 100 -23
100 -38 0 -5 29 -41 65 -80 66 -74 73 -86 55 -97 -13 -8 -13 -61 0 -85 14 -27
65 -35 95 -16 23 15 28 15 67 -5 70 -36 168 -103 168 -115 0 -6 -7 -17 -15
-24 -17 -14 -12 -45 13 -72 22 -25 88 -24 102 1 5 11 7 27 4 35 -4 11 0 16 14
16 29 0 35 -15 22 -53 -12 -37 -99 -347 -109 -392 -6 -28 -10 -30 -56 -33 -74
-3 -96 -10 -93 -28 2 -9 -4 -21 -12 -26 -18 -12 -84 29 -134 80 -15 17 -34 28
-41 26 -21 -8 -183 154 -250 250 -94 137 -125 190 -156 274 -41 109 -66 200
-88 327 -11 61 -23 125 -27 143 -4 20 -3 32 4 32 6 0 17 -31 26 -69 20 -88 89
-291 99 -291 3 0 -13 53 -35 118 -21 64 -53 169 -71 232 l-32 115 2 337 c0
185 4 341 8 347 7 12 34 1 54 -22z m1171 -37 c0 -11 -8 -23 -17 -26 -10 -4
-31 -12 -48 -19 -16 -8 -43 -15 -60 -17 -25 -3 -30 1 -37 27 l-7 30 3 -33 c1
-18 -2 -36 -8 -40 -12 -7 -77 -32 -86 -32 -3 0 -6 26 -5 58 l0 57 65 6 c36 3
95 6 133 7 61 2 67 0 67 -18z m-13 -77 c-2 -38 -22 -57 -30 -26 -2 10 -3 7 -2
-6 2 -18 -8 -30 -43 -55 -25 -17 -74 -52 -108 -78 -71 -54 -74 -52 -74 42 l0
58 43 16 c23 8 71 25 107 37 36 13 74 29 85 36 11 7 20 13 21 13 1 0 1 -17 1
-37z m-929 -105 c11 -62 24 -131 28 -153 l7 -39 -24 15 c-35 22 -59 30 -59 18
0 -5 11 -14 25 -19 27 -10 32 -29 13 -48 -9 -9 -9 -15 0 -24 12 -12 12 -12 27
37 9 31 25 12 70 -82 25 -53 58 -108 73 -122 16 -14 63 -66 106 -116 43 -49
115 -125 160 -168 44 -43 74 -75 66 -71 -37 18 -176 153 -244 237 -87 108
-114 130 -186 151 -56 17 -90 40 -90 63 0 7 -6 13 -14 13 -19 0 -48 58 -41 82
4 9 0 32 -9 50 -27 60 -28 92 -6 159 23 67 56 129 69 129 5 0 17 -51 29 -112z
m1222 34 c0 -27 46 -169 110 -342 18 -47 44 -125 60 -175 15 -49 46 -142 69
-205 41 -113 55 -154 133 -400 22 -69 51 -152 65 -185 14 -33 39 -100 55 -150
16 -49 41 -114 54 -143 13 -29 24 -55 24 -58 0 -3 -14 -4 -31 -2 -32 3 -32 4
-96 188 -36 102 -73 212 -83 245 -24 82 -140 434 -207 630 -30 88 -64 189 -75
225 -84 275 -101 328 -114 353 -17 31 -12 47 17 47 14 0 19 -7 19 -28z m-285
-19 c-1 -15 -5 -38 -9 -50 -4 -13 -4 -23 1 -23 13 0 9 -73 -5 -77 -8 -3 -10 1
-5 13 4 10 2 15 -3 11 -13 -8 -17 -107 -4 -107 5 0 10 5 10 10 0 6 4 10 9 10
8 0 -17 -61 -45 -110 -8 -14 -22 -41 -31 -60 -51 -114 -56 -122 -63 -110 -5 8
-11 -4 -15 -31 -4 -24 -21 -70 -38 -104 l-31 -60 -7 34 c-4 18 -11 36 -16 40
-4 3 -9 29 -10 56 -2 28 -5 60 -8 72 -3 12 -1 24 4 27 5 3 12 -13 17 -37 l8
-42 4 50 c2 30 -1 51 -8 53 -8 3 -7 8 1 18 10 12 14 11 27 -7 20 -28 18 -98
-4 -113 -14 -11 -15 -15 -3 -34 17 -27 29 -28 29 -3 0 24 27 88 40 96 5 3 10
15 10 25 0 10 6 25 14 32 17 17 33 83 18 74 -6 -3 -13 -20 -17 -37 -4 -17 -13
-33 -21 -36 -8 -3 -14 -13 -14 -23 0 -11 -4 -22 -10 -25 -6 -4 -10 5 -10 19 0
14 -4 26 -10 26 -11 0 -13 30 -4 54 9 24 24 19 24 -8 0 -14 5 -28 10 -31 13
-8 13 21 0 46 -12 21 12 71 86 183 53 79 64 99 58 105 -3 3 -16 -8 -30 -24
-20 -24 -24 -26 -22 -10 2 11 14 29 27 40 14 13 22 28 19 40 -5 20 -5 20 -13
0 -4 -11 -17 -30 -28 -42 -12 -14 -18 -30 -14 -44 4 -15 -6 -39 -32 -78 -21
-31 -53 -78 -70 -105 -36 -57 -38 -54 -50 64 -8 78 -7 87 12 108 11 12 25 22
31 23 6 0 49 31 96 68 47 38 88 67 91 65 3 -2 5 -16 4 -31z m185 30 c0 -5 -7
-33 -16 -63 -8 -30 -17 -64 -19 -75 -3 -11 -12 -54 -21 -95 -9 -41 -41 -150
-70 -242 -30 -92 -63 -207 -74 -255 -12 -48 -30 -112 -40 -141 -11 -29 -20
-62 -20 -72 0 -11 -4 -20 -8 -20 -5 0 -17 -37 -26 -82 -10 -46 -29 -119 -42
-163 -13 -44 -37 -138 -54 -210 -17 -71 -35 -146 -40 -166 -6 -20 -10 -48 -10
-61 0 -22 -5 -26 -42 -31 -23 -3 -45 -4 -49 -1 -4 2 1 24 11 48 11 23 26 72
35 107 8 35 35 123 61 194 54 155 155 470 183 575 39 149 59 216 75 260 20 53
36 110 81 285 46 180 58 215 72 215 7 0 13 -3 13 -7z m50 -88 c0 -15 54 -188
99 -320 46 -132 92 -267 106 -313 13 -42 13 -43 -13 -55 -15 -6 -63 -12 -107
-12 -79 0 -81 1 -139 44 -43 32 -64 56 -82 96 l-25 54 19 73 c11 40 42 152 71
249 28 97 51 184 51 193 0 10 5 14 10 11 6 -3 10 -13 10 -20z m1209 -291 c-12
-38 -42 -104 -66 -148 -23 -43 -43 -80 -43 -82 0 -3 -81 -116 -130 -181 -35
-48 -51 -44 -36 10 14 44 10 114 -6 134 -6 7 6 34 36 81 24 38 49 73 55 77 6
3 11 14 11 24 0 22 37 56 70 66 48 13 86 38 103 68 28 47 30 26 6 -49z m-1448
19 c2 -31 -3 -58 -11 -61 -4 -1 -5 -13 -3 -26 6 -29 -30 -174 -67 -276 -15
-41 -34 -97 -41 -125 -24 -94 -33 -95 -63 -6 -14 44 -26 87 -26 96 0 21 61
135 73 135 5 0 7 -10 4 -22 -3 -13 -13 -54 -22 -92 -15 -58 -15 -72 -4 -95
l13 -26 4 30 c2 17 16 69 33 117 34 103 34 102 12 123 -15 16 -15 20 2 68 49
139 93 211 96 160z m-893 -75 c80 -28 145 -84 119 -103 -10 -7 -13 -15 -7 -21
5 -5 10 -25 13 -44 3 -29 4 -27 5 13 1 27 6 47 12 45 12 -4 120 -147 120 -159
0 -13 -18 -11 -80 7 -30 8 -66 15 -79 15 -27 -1 -95 63 -106 100 -4 13 -15 33
-24 44 -16 18 -51 100 -51 118 0 10 6 9 78 -15z m2347 -270 c-11 -131 -43
-255 -91 -363 -7 -16 -24 -60 -38 -97 -29 -80 -86 -180 -151 -266 -46 -61
-184 -192 -202 -192 -5 0 -18 -9 -28 -20 -23 -25 -45 -26 -45 -1 0 11 -4 22
-10 26 -5 3 -25 54 -44 113 -20 59 -51 152 -70 207 -26 73 -32 101 -23 107 17
11 47 10 47 -2 0 -19 64 -50 102 -50 56 0 90 57 51 86 -10 7 -15 16 -11 20 4
4 14 1 23 -6 12 -10 15 -10 15 4 0 12 -9 16 -36 16 -24 0 -34 4 -32 13 3 6 48
45 101 85 l97 74 46 -23 c43 -20 50 -21 73 -8 32 18 40 58 14 77 -15 13 -16
14 -1 9 26 -9 32 10 8 30 -11 10 -20 21 -20 24 0 4 34 48 76 99 70 85 79 92
105 86 22 -4 29 -2 29 9 0 8 5 15 11 15 8 0 9 -22 4 -72z m-1366 -7 c12 -33
26 -63 31 -66 6 -4 10 -24 10 -46 0 -21 5 -39 10 -39 6 0 10 -11 10 -25 0 -14
4 -25 8 -25 13 0 8 -48 -5 -62 -18 -17 -16 -39 2 -32 8 4 15 2 15 -4 0 -13
-20 -20 -42 -14 -14 3 -15 8 -6 28 6 13 15 24 20 24 4 0 8 13 8 29 0 29 0 29
-30 15 -16 -9 -30 -20 -30 -25 0 -13 14 -11 28 3 8 8 12 8 12 1 0 -6 -7 -16
-15 -23 -9 -7 -13 -15 -10 -18 7 -8 -16 -32 -31 -32 -7 0 -24 4 -38 9 -32 13
-26 55 8 46 18 -5 19 -5 4 5 -20 13 -24 36 -6 42 16 6 18 46 2 52 -7 3 -10 -2
-7 -14 3 -12 -3 -22 -16 -29 -15 -9 -21 -21 -21 -47 0 -24 -4 -34 -12 -32 -18
6 -21 30 -8 64 6 16 11 31 12 34 0 3 4 11 10 18 6 6 7 12 3 12 -4 0 -2 7 5 15
6 8 9 19 5 25 -4 6 -3 16 3 23 5 7 14 45 21 85 7 39 16 70 20 67 5 -2 18 -31
30 -64z m1069 16 c2 -28 0 -72 -3 -96 l-7 -43 -36 5 c-131 21 -119 23 -141
-14 -23 -38 -26 -49 -11 -49 6 0 10 5 10 12 0 6 7 19 15 28 13 14 25 15 76 8
34 -4 65 -5 70 -2 5 3 9 -1 9 -9 0 -23 -119 -118 -254 -202 -18 -11 -54 -35
-81 -52 -67 -45 -79 -43 -99 15 -40 112 -45 96 52 147 112 58 241 155 317 237
33 36 65 66 70 67 6 0 11 -23 13 -52z m-1871 -23 c24 -9 51 -13 62 -9 11 3 22
1 26 -5 8 -13 25 -183 19 -189 -7 -8 -84 82 -84 98 0 12 -2 13 -9 3 -6 -10
-20 1 -55 39 -26 29 -51 61 -57 71 -8 16 -6 17 23 12 18 -3 52 -12 75 -20z
m168 -57 c37 -34 205 -147 260 -174 22 -11 57 -26 78 -32 21 -7 37 -19 37 -28
0 -22 -31 -126 -40 -136 -4 -5 -23 -2 -41 6 -19 9 -61 27 -94 40 -33 13 -87
41 -120 61 -33 21 -72 45 -87 54 -48 29 -33 37 64 34 65 -3 98 -8 110 -18 22
-21 36 2 14 24 -12 13 -35 15 -111 13 l-95 -2 -11 28 c-6 15 -13 59 -16 96 -3
37 -10 70 -14 73 -5 3 -9 10 -9 16 0 11 16 -1 75 -55z m1008 -56 c-6 -3 -20
-24 -31 -46 -35 -68 -154 -170 -175 -149 -2 3 22 30 54 61 33 31 59 62 59 70
0 7 8 17 18 20 17 7 32 22 32 35 0 10 -52 -10 -72 -29 -9 -8 -21 -12 -27 -8
-7 3 -8 0 -5 -9 3 -9 11 -13 17 -9 6 3 7 1 3 -6 -4 -6 -11 -9 -16 -6 -10 6
-33 -22 -26 -33 2 -4 -8 -21 -25 -36 -21 -20 -29 -23 -29 -12 0 8 8 20 18 26
15 10 14 11 -5 7 -29 -6 -29 1 2 43 14 19 25 38 25 42 0 16 -31 8 -37 -9 -4
-10 -16 -31 -27 -46 -20 -27 -20 -28 -2 -62 19 -34 17 -53 -3 -41 -16 10 -25
94 -12 110 9 10 9 16 1 21 -8 5 -7 11 2 23 11 13 10 15 -4 9 -14 -5 -18 -1
-18 14 0 17 5 20 23 16 98 -24 133 -20 227 27 21 10 27 10 34 -2 5 -8 4 -17
-1 -21z m112 -284 l25 -68 -43 -18 c-52 -23 -173 -43 -205 -34 -18 4 -20 8
-11 19 6 8 17 14 24 14 7 0 18 7 25 15 11 13 10 14 -5 8 -15 -5 -17 -3 -12 11
4 11 3 15 -4 11 -6 -4 -8 -12 -6 -19 3 -6 -6 -17 -19 -23 -20 -9 -33 -4 -104
40 -83 52 -87 64 -21 65 69 2 293 40 306 53 13 13 21 2 50 -74z m-513 9 c6 -8
8 -7 8 2 0 16 68 5 88 -15 7 -7 42 -34 78 -59 35 -25 64 -50 64 -55 0 -9 -64
-15 -125 -12 -16 1 -51 2 -78 3 -42 0 -186 25 -194 34 -5 5 18 108 28 127 7
15 14 15 66 1 32 -8 61 -19 65 -26z m574 -201 c13 -39 45 -131 71 -205 25 -74
47 -139 50 -145 2 -7 -165 -11 -487 -13 -269 -1 -490 0 -490 3 0 15 62 267 80
325 11 36 20 71 20 78 0 6 10 12 23 12 44 -1 143 -27 171 -46 17 -10 42 -17
59 -15 23 2 28 -1 25 -15 -1 -9 -10 -21 -19 -27 -24 -15 -79 10 -79 35 0 14
-6 19 -22 16 -17 -2 -22 -9 -20 -23 9 -61 124 -91 157 -41 10 15 14 33 10 49
-6 23 -3 27 36 37 24 7 95 10 168 8 69 -1 131 1 138 5 7 5 21 -1 33 -13 24
-24 25 -36 4 -44 -33 -13 -70 -5 -96 19 -32 30 -43 20 -22 -20 19 -38 31 -45
74 -45 70 0 102 48 59 91 -20 20 -20 21 -2 34 10 8 22 13 26 12 4 -1 19 -34
33 -72z m94 -403 c165 -2 168 -7 40 -59 -119 -49 -166 -61 -323 -83 -161 -23
-177 -27 -177 -43 0 -12 -152 -4 -390 19 -151 15 -157 16 -255 63 -133 64
-157 94 -80 103 34 3 963 4 1185 0z m-1235 -98 c22 -12 72 -32 110 -45 39 -12
74 -25 78 -29 4 -4 -53 -6 -128 -6 l-135 1 0 26 c0 15 -3 41 -6 59 -7 30 -6
32 17 25 13 -4 42 -18 64 -31z"/>
<path d="M3289 5928 c-4 -13 -9 -55 -14 -112 -4 -38 -8 -77 -10 -85 -1 -9 -6
-50 -10 -91 -4 -41 -9 -88 -11 -105 -4 -30 -15 -136 -33 -310 -12 -110 -16
-233 -9 -241 7 -6 15 42 24 141 3 39 14 147 24 240 11 94 22 211 25 260 4 50
8 97 10 105 7 30 17 200 11 200 -3 0 -6 -1 -7 -2z"/>
<path d="M13260 7962 l0 -31 -47 4 c-27 3 -85 7 -130 9 -76 5 -83 3 -83 -13 0
-27 18 -31 151 -31 l120 0 12 -27 c17 -40 118 -201 133 -214 26 -21 22 10 -7
56 -16 26 -28 50 -25 52 3 3 -10 24 -28 47 -61 76 -70 106 -30 106 15 0 23 4
19 10 -4 6 -18 9 -33 8 -20 -2 -27 2 -30 17 -7 36 -22 41 -22 7z"/>
<path d="M5369 7928 c-24 -17 -62 -47 -83 -66 -24 -21 -41 -31 -44 -24 -2 7
-8 12 -14 12 -5 0 -7 -8 -3 -19 9 -28 -154 -177 -203 -186 -28 -5 -33 -9 -21
-16 14 -7 15 -17 6 -66 -12 -68 -14 -934 -4 -1383 16 -678 12 -1866 -8 -2385
-3 -77 -2 -124 4 -116 6 9 9 5 9 -14 0 -19 -3 -23 -9 -14 -5 9 -8 -7 -7 -41 1
-52 1 -53 7 -15 14 92 18 -11 15 -382 -2 -216 -1 -398 1 -405 6 -16 93 -24
234 -20 58 1 108 -2 111 -8 6 -10 444 -16 470 -6 57 21 176 32 194 17 10 -8
17 -6 31 9 10 11 15 20 11 20 -4 0 11 21 33 46 22 26 57 70 76 100 20 29 62
81 95 116 58 61 74 98 49 114 -8 4 -9 0 -4 -15 3 -11 2 -21 -3 -21 -12 0 -21
80 -10 86 4 3 9 -5 9 -18 1 -18 2 -19 6 -4 3 10 0 23 -6 29 -6 6 -7 17 -2 26
5 9 7 34 5 56 -2 22 -6 168 -9 325 -4 157 -10 349 -13 428 -4 78 -3 142 1 142
9 0 89 -166 102 -210 4 -14 43 -137 87 -275 44 -137 97 -304 118 -370 138
-433 174 -542 186 -556 23 -25 17 -29 -43 -29 -41 0 -54 -3 -46 -11 12 -12
580 -6 733 7 47 5 175 8 285 8 l200 1 20 -37 c11 -21 22 -38 25 -38 8 0 4 86
-5 99 -4 7 12 36 36 67 50 65 67 78 45 35 -9 -17 -20 -31 -24 -31 -4 0 -12
-11 -19 -25 -6 -14 -9 -25 -6 -25 13 0 103 123 104 143 0 7 9 26 19 42 11 17
29 47 40 67 11 21 28 38 36 38 22 0 14 30 -48 170 -28 63 -59 139 -69 169 -11
30 -23 59 -28 65 -4 6 -16 34 -26 61 -10 28 -23 64 -30 80 -40 92 -184 458
-199 505 -9 30 -20 64 -25 75 -5 11 -18 45 -29 75 -69 183 -92 251 -92 268 0
10 -4 22 -9 27 -6 6 -12 26 -15 45 -5 39 -22 85 -91 240 -26 58 -51 119 -57
135 -6 17 -15 35 -19 41 -5 6 -3 16 3 22 9 9 9 12 1 12 -6 0 -13 -5 -15 -12
-5 -13 -28 -2 -28 13 0 5 23 33 51 62 29 29 72 77 98 107 25 30 70 78 100 105
56 52 123 143 136 185 4 13 14 30 21 38 8 7 17 25 20 40 3 15 19 70 35 123 45
151 53 198 64 404 3 66 9 152 12 190 16 202 5 341 -36 465 -10 30 -24 79 -32
108 -7 28 -16 52 -20 52 -4 0 -17 25 -29 57 -16 44 -18 58 -8 64 9 6 8 9 -4
14 -9 4 -15 12 -12 19 2 6 -7 32 -21 56 -13 25 -29 54 -34 66 -5 11 -32 49
-60 84 -34 42 -47 66 -40 71 18 11 -116 138 -211 201 -96 63 -282 156 -380
189 -36 12 -72 28 -81 36 -12 10 -18 11 -21 3 -2 -7 -49 0 -143 24 -183 45
-362 65 -535 59 -156 -6 -875 -10 -860 -5 12 4 13 22 2 22 -5 0 -29 -14 -53
-32z m500 -33 c46 -1 181 1 300 5 239 8 405 -4 523 -39 37 -11 77 -17 90 -14
17 3 19 2 9 -5 -11 -8 -10 -12 7 -21 11 -6 28 -11 37 -11 15 0 49 -12 158 -58
48 -20 59 -10 13 12 -35 17 -55 36 -37 36 5 0 51 -16 102 -35 141 -54 361
-174 405 -222 13 -14 24 -22 24 -17 0 4 18 -10 41 -31 38 -37 64 -76 162 -238
43 -72 49 -100 15 -71 -22 19 -23 19 -8 -1 8 -11 21 -26 27 -33 7 -7 17 -32
23 -55 6 -23 18 -56 26 -74 8 -17 14 -36 14 -42 0 -6 10 -29 21 -51 12 -22 28
-75 36 -118 8 -42 19 -97 24 -122 33 -152 30 -470 -4 -457 -7 3 -11 10 -9 17
19 84 18 207 -3 222 -6 5 -5 8 3 8 6 0 12 11 12 25 0 14 -5 25 -11 25 -5 0 -7
-4 -4 -10 3 -5 1 -10 -4 -10 -6 0 -11 10 -12 23 l0 22 -9 -22 c-5 -12 -16 -30
-25 -40 -9 -10 -24 -28 -33 -41 l-17 -23 -22 21 c-13 11 -20 27 -17 35 9 21
25 19 17 -2 -3 -10 -3 -15 1 -11 7 5 13 26 15 51 1 4 8 7 16 7 8 0 15 9 15 19
0 11 6 26 13 33 18 18 28 46 18 53 -5 2 -12 -6 -15 -20 -11 -45 -45 -25 -52
30 -5 41 -11 59 -20 62 -6 2 -10 -37 -10 -92 0 -101 -17 -149 -27 -78 -3 21
-9 61 -13 88 -4 28 -6 56 -5 63 1 6 -3 12 -9 12 -6 0 -10 6 -9 13 4 21 -12 97
-22 103 -5 3 -9 14 -9 26 0 24 -73 174 -99 203 -10 11 -26 34 -34 50 -9 17
-32 47 -51 68 -20 21 -36 42 -36 48 0 5 -6 9 -14 9 -8 0 -16 3 -18 8 -7 15
-156 140 -218 182 -135 91 -296 157 -475 195 -179 38 -223 45 -388 56 -173 12
-277 10 -707 -10 -129 -6 -295 -14 -368 -17 -77 -4 -130 -10 -125 -15 15 -15
292 -22 433 -10 224 19 611 25 745 12 218 -22 414 -57 531 -97 126 -42 265
-102 302 -131 21 -15 63 -45 94 -66 62 -41 171 -159 233 -249 21 -32 44 -58
52 -58 12 0 18 -13 14 -34 -1 -5 2 -12 6 -15 17 -13 55 -93 70 -148 22 -85 53
-211 63 -264 4 -25 13 -63 19 -86 9 -31 8 -49 -3 -80 -9 -25 -11 -45 -5 -54 7
-11 9 -11 9 4 0 9 5 17 10 17 13 0 11 -399 -3 -450 -5 -19 -9 -52 -9 -74 1
-21 -4 -50 -10 -65 -6 -14 -12 -39 -14 -54 -12 -93 -105 -312 -186 -439 -37
-57 -161 -164 -287 -247 l-65 -43 -19 24 -18 23 11 -23 c17 -35 5 -68 -32 -83
l-33 -14 33 -5 c32 -5 36 -11 83 -115 60 -133 175 -418 185 -460 4 -17 49
-128 100 -248 52 -119 96 -229 100 -245 6 -26 5 -26 -8 -7 -8 11 -48 83 -88
160 -84 160 -105 201 -224 417 -47 87 -118 222 -157 300 -66 130 -259 484
-339 617 -17 30 -52 95 -77 145 -25 49 -54 102 -66 118 l-21 28 22 16 c59 41
128 180 159 318 21 98 20 371 -3 458 -38 147 -130 283 -234 347 -41 25 -33 28
12 5 16 -9 27 -11 23 -5 -3 6 -25 21 -48 32 -23 12 -46 28 -50 36 -5 7 -12 11
-18 8 -5 -4 -15 -3 -21 2 -51 32 -162 41 -278 23 -30 -5 -83 -13 -118 -19 -77
-11 -97 -24 -25 -16 l51 6 -5 -543 c-2 -299 -1 -594 4 -656 5 -61 5 -121 1
-132 -11 -30 28 -35 157 -22 136 14 189 29 287 85 l77 44 37 -71 c21 -39 102
-189 181 -333 78 -145 143 -265 143 -267 0 -9 180 -346 268 -501 46 -82 145
-262 219 -400 74 -137 145 -266 158 -287 13 -20 52 -108 86 -195 34 -87 79
-199 100 -249 40 -97 55 -144 45 -144 -3 0 -104 197 -225 438 -120 240 -254
502 -296 582 -81 151 -395 752 -447 854 -16 32 -31 56 -34 53 -5 -5 124 -259
333 -657 74 -140 237 -460 363 -710 202 -404 388 -769 433 -855 10 -18 13 -32
7 -35 -6 -4 -86 -5 -178 -3 -92 1 -248 -2 -347 -7 -99 -5 -259 -12 -356 -15
l-176 -6 -37 118 c-20 65 -64 199 -97 298 -136 413 -289 914 -290 955 -1 19
-5 49 -10 65 -6 23 -7 16 -4 -27 2 -32 0 -58 -4 -58 -4 0 -29 45 -55 99 l-48
99 -3 144 c-1 78 -1 147 2 151 3 4 12 2 20 -5 13 -10 15 -9 12 7 -3 13 -14 21
-33 23 l-29 4 7 -127 c8 -151 1 -156 -60 -41 -36 67 -144 196 -165 196 -20 0
-29 -64 -28 -208 1 -86 1 -494 0 -906 l-1 -750 -133 -4 -132 -4 19 21 c11 12
14 21 8 21 -7 0 -12 5 -12 10 0 6 7 10 15 10 21 0 92 37 101 52 5 8 -2 6 -17
-4 -28 -18 -104 -33 -95 -19 3 4 20 11 37 15 17 3 42 15 56 26 31 24 25 25
-24 5 -42 -18 -53 -19 -53 -5 0 6 9 10 19 10 27 0 51 10 51 22 0 5 -9 6 -20 3
-28 -9 -25 5 8 32 15 13 19 20 10 17 -15 -5 -17 6 -20 98 -2 57 1 115 7 131 6
18 6 32 0 40 -6 8 -32 47 -60 89 -69 107 -80 112 -248 116 -110 3 -148 1 -181
-12 -55 -21 -98 -68 -127 -136 -13 -30 -29 -59 -37 -63 -8 -6 -11 -18 -8 -32
8 -31 -10 -41 -26 -15 -14 21 -38 27 -38 9 0 -6 9 -13 20 -16 25 -7 25 -13 -1
-58 -13 -22 -27 -34 -35 -31 -11 4 -14 -6 -15 -42 -1 -26 -1 -51 0 -56 1 -6
-1 -21 -5 -35 -15 -49 -21 94 -17 383 l3 279 158 311 c139 272 205 396 311
576 32 55 44 83 32 76 -19 -12 -281 -486 -395 -713 -41 -83 -85 -166 -96 -185
l-21 -33 7 70 c9 92 45 164 304 600 26 44 101 172 165 285 65 113 166 286 225
385 58 99 128 218 155 265 26 47 55 95 63 108 8 12 12 22 9 22 -9 0 -73 -91
-114 -161 -21 -36 -103 -173 -182 -305 -215 -358 -259 -433 -368 -619 -121
-208 -194 -336 -222 -392 -34 -69 -43 -64 -42 23 1 44 1 255 1 469 0 215 2
653 5 975 4 322 6 621 6 665 0 44 0 103 0 130 0 28 0 61 1 75 0 14 -3 192 -7
395 -4 204 -8 478 -9 610 -1 132 -6 247 -10 256 -9 21 11 36 27 20 17 -17 25
-13 20 12 -3 16 1 26 16 33 24 11 146 112 244 202 l68 64 187 -7 c103 -4 225
-8 271 -10z m461 -1100 c59 -12 102 -40 171 -112 141 -145 179 -245 184 -488
3 -145 1 -169 -22 -260 -26 -104 -41 -131 -83 -147 -71 -28 -167 -48 -232 -48
l-73 0 5 93 c3 50 5 130 3 177 -1 47 -4 238 -6 425 -3 187 -8 348 -12 359 -7
15 -4 17 11 13 10 -3 35 -9 54 -12z m1516 -394 c-1 -74 -4 -97 -13 -94 -7 3
-13 9 -13 14 0 5 -4 9 -10 9 -5 0 -10 -7 -10 -15 0 -8 8 -15 18 -15 12 0 13
-3 4 -8 -16 -11 -12 -62 6 -62 8 0 12 -6 9 -12 -2 -7 -10 -12 -16 -10 -17 3
-13 -46 4 -56 18 -9 10 -42 -9 -42 -7 0 -11 -12 -11 -27 1 -16 -2 -36 -7 -45
-5 -10 -4 -18 3 -20 16 -5 -1 -38 -21 -38 -20 0 -34 26 -20 35 7 4 6 13 0 26
-9 15 -7 19 5 19 17 0 21 26 4 32 -9 3 -9 9 -1 24 8 16 8 24 -1 33 -9 10 -8
11 8 5 18 -7 19 -6 6 10 -8 9 -16 43 -17 74 -1 31 -3 57 -4 57 -2 0 -3 71 -1
103 1 15 9 26 21 29 11 3 27 21 36 39 9 19 19 34 23 34 4 0 7 -44 7 -99z
m-1769 -129 c-3 -23 -1 -45 4 -47 4 -3 5 -22 2 -42 -5 -31 -4 -35 10 -30 22 8
23 -28 2 -49 -8 -9 -15 -21 -14 -27 0 -9 2 -8 6 1 2 6 9 12 14 12 15 0 10 -32
-8 -52 -16 -18 -16 -18 0 -12 18 6 21 -3 11 -30 -3 -9 -10 -13 -15 -10 -5 3
-4 -7 1 -22 7 -19 7 -30 -1 -40 -8 -9 -8 -18 -2 -26 6 -8 9 -72 8 -148 -1
-107 -5 -142 -19 -168 -10 -19 -20 -31 -23 -28 -9 9 -3 523 7 601 1 6 1 66 0
135 -1 163 1 180 12 95 5 -38 7 -89 5 -113z m108 -69 c-2 -16 -4 -31 -4 -35
-2 -16 -21 -7 -21 9 0 9 -3 13 -7 10 -4 -4 -7 -34 -7 -67 -1 -57 0 -60 23 -60
19 0 21 -3 12 -14 -10 -11 -8 -17 6 -25 17 -10 17 -10 0 -11 -10 0 -20 7 -23
15 -14 35 -22 10 -18 -52 3 -38 5 -78 5 -91 -1 -13 4 -32 9 -42 7 -13 6 -20
-3 -24 -9 -5 -9 -7 0 -12 7 -3 9 -12 6 -20 -3 -8 -2 -30 1 -49 5 -27 10 -33
24 -28 14 5 13 3 -3 -13 -11 -10 -33 -32 -49 -49 -27 -29 -28 -29 -20 -5 4 14
8 133 9 265 2 229 1 241 -18 263 -16 17 -18 25 -9 34 9 9 12 7 12 -12 0 -22 1
-22 18 -7 10 10 24 17 30 17 7 0 12 7 12 15 0 8 4 15 9 15 5 0 8 -12 6 -27z
m1058 -1270 c8 -16 41 -80 74 -143 33 -63 88 -178 123 -255 35 -77 76 -165 92
-194 18 -37 24 -57 17 -62 -8 -5 -8 -8 0 -13 6 -4 11 -2 11 3 0 6 7 11 16 11
18 0 94 -78 94 -96 0 -6 9 -19 20 -29 11 -10 20 -24 20 -31 0 -7 14 -24 32
-39 18 -15 37 -37 43 -48 29 -60 56 -137 50 -147 -3 -5 -2 -10 3 -10 8 0 35
-58 32 -68 -1 -1 8 -19 19 -40 11 -20 32 -66 47 -102 14 -36 40 -93 57 -128
16 -34 27 -66 23 -70 -4 -3 -11 0 -16 8 -6 10 -10 11 -10 3 0 -7 9 -17 20 -23
19 -10 38 -46 55 -101 7 -23 7 -24 -9 -4 -16 19 -16 19 -7 -5 23 -62 42 -100
54 -107 23 -13 39 -51 26 -59 -15 -9 -36 19 -85 112 -21 41 -40 70 -42 65 -2
-5 5 -25 15 -44 56 -107 74 -134 96 -146 l25 -13 -46 -67 c-25 -36 -64 -88
-85 -116 -22 -27 -46 -65 -54 -84 -8 -18 -18 -30 -22 -25 -4 5 -23 51 -41 103
-24 70 -29 95 -20 101 8 5 9 10 2 14 -9 5 -56 98 -82 161 -4 11 -17 40 -28 65
-11 25 -23 56 -27 69 -4 13 -14 40 -23 60 -9 20 -15 40 -13 46 2 9 -7 32 -74
180 -18 39 -42 99 -54 135 -20 59 -62 166 -96 245 -7 17 -30 73 -50 125 -21
52 -43 109 -50 125 -8 17 -22 55 -33 85 -11 30 -23 64 -28 75 -7 18 -6 18 9 6
9 -7 17 -10 17 -6 0 13 -92 200 -122 247 -16 26 -27 52 -23 58 3 5 2 10 -4 10
-10 0 -28 35 -64 122 -10 24 -12 40 -6 44 18 10 39 -5 39 -28 0 -13 12 -50 26
-83 14 -33 26 -65 28 -72 1 -7 9 -20 18 -30 15 -17 118 -242 133 -290 4 -15 2
-23 -6 -23 -6 0 1 -16 15 -35 19 -24 22 -33 10 -28 -13 5 -15 3 -6 -13 25 -48
62 -136 68 -161 3 -16 12 -37 19 -48 7 -12 14 -29 16 -39 5 -22 39 -31 39 -10
0 8 -6 13 -12 11 -8 -1 -13 10 -13 30 0 17 -3 29 -7 26 -5 -2 -11 4 -14 14 -4
10 -16 38 -27 62 -21 47 -30 101 -16 101 12 0 25 -27 40 -87 7 -29 16 -53 20
-53 8 0 2 33 -11 65 -16 39 -30 88 -30 108 0 18 2 17 20 -6 11 -14 20 -29 20
-34 0 -5 9 -27 19 -49 11 -22 29 -69 41 -104 12 -36 26 -69 32 -75 7 -7 9 -5
5 5 -3 8 -16 47 -28 85 -12 39 -26 72 -31 73 -4 2 -6 8 -2 13 3 5 -4 25 -16
44 -12 19 -19 39 -15 45 4 6 3 9 -2 8 -14 -4 -53 26 -53 41 0 11 -3 12 -11 4
-8 -8 -8 -17 0 -32 7 -12 9 -21 6 -21 -8 0 -56 106 -80 177 l-22 63 21 -14
c12 -8 20 -20 18 -26 -1 -7 2 -18 8 -25 6 -7 13 -26 16 -41 6 -34 22 -64 34
-64 4 0 2 13 -6 30 -9 16 -13 34 -9 40 3 5 -1 20 -10 33 -8 13 -13 31 -9 40 3
9 -1 26 -10 39 -9 12 -16 30 -16 40 0 10 -4 18 -9 18 -4 0 -27 37 -50 83 -24
45 -52 97 -63 115 -11 17 -17 32 -14 32 4 0 0 13 -9 30 -17 34 -18 40 -6 40 5
0 16 -12 24 -27z m244 -365 c10 -18 29 -58 43 -88 36 -80 70 -130 86 -130 8 0
17 -8 21 -17 3 -10 20 -36 37 -58 17 -22 42 -65 55 -95 13 -30 27 -63 32 -72
11 -22 11 -28 0 -28 -5 0 -13 10 -17 22 -17 53 -91 146 -146 182 -13 8 -31 30
-40 48 -42 82 -79 166 -89 201 -5 21 -13 45 -16 53 -11 28 17 13 34 -18z
m-1303 -833 c7 -71 9 -131 4 -133 -4 -2 -9 -11 -10 -20 0 -9 -4 36 -8 101 -4
65 -12 123 -18 129 -8 8 -10 -9 -7 -63 2 -41 7 -166 10 -279 7 -277 14 -412
20 -418 13 -13 15 40 6 193 -8 161 -7 262 5 315 l6 25 10 -25 c16 -39 21 -7
10 63 -5 34 -9 85 -7 112 1 28 -2 61 -7 75 -5 13 -6 35 -3 48 12 50 23 7 30
-123 3 -49 10 -114 15 -144 13 -71 13 -74 -5 -67 -8 3 -15 1 -15 -4 0 -6 7
-10 15 -10 9 0 15 -9 14 -22 -1 -17 -2 -19 -6 -5 -2 9 -8 17 -13 17 -9 0 2
-49 16 -71 5 -8 3 -9 -6 -4 -10 6 -12 4 -7 -8 19 -47 18 -52 -2 -28 -12 13
-21 34 -21 47 0 13 -4 24 -10 24 -18 0 -10 -55 10 -73 11 -9 20 -29 20 -44 0
-16 3 -38 6 -50 4 -14 2 -23 -4 -23 -6 0 -15 24 -19 53 l-7 52 -7 -39 c-3 -22
-3 -54 2 -70 5 -17 9 -50 9 -73 0 -24 5 -43 10 -43 6 0 10 -5 10 -11 0 -5 -4
-7 -10 -4 -6 4 -10 -6 -9 -22 0 -16 3 -22 6 -13 4 8 12 20 19 25 9 8 10 24 3
69 -5 32 -7 61 -4 64 3 3 5 -2 5 -10 0 -9 7 -19 16 -22 9 -4 14 -9 12 -12 -3
-3 -2 -20 2 -39 7 -31 3 -39 -58 -112 -36 -43 -68 -79 -72 -81 -4 -1 -6 21 -6
49 1 32 -4 54 -11 56 -8 3 -11 -17 -11 -71 1 -64 -2 -80 -23 -110 -27 -40 -45
-47 -34 -13 3 12 7 28 7 35 1 6 7 12 15 12 10 0 13 19 13 73 -1 69 -1 71 -15
42 -14 -29 -14 -28 -11 32 1 35 5 66 9 69 7 7 11 -17 8 -48 -3 -24 15 -23 22
1 2 10 2 63 -2 117 -4 55 -6 115 -5 134 2 19 3 107 3 194 1 88 3 157 6 154 3
-3 8 -113 11 -244 8 -339 9 -352 18 -361 9 -8 -2 735 -10 749 -3 4 0 8 5 8 6
0 11 -7 11 -16 0 -29 20 -3 21 29 2 44 7 14 23 -138z m-515 -254 c11 -7 39
-39 62 -74 23 -34 50 -68 60 -75 28 -19 25 -54 -3 -50 -17 2 -22 9 -21 25 2
13 -5 27 -16 33 -10 5 -27 32 -37 60 -19 54 -34 65 -34 25 0 -24 -2 -25 -22
-13 -33 19 -349 18 -371 -1 -21 -17 -22 -2 -1 27 22 31 51 44 119 53 79 10
238 4 264 -10z m-34 -99 c23 -7 32 -17 42 -48 6 -21 12 -52 12 -67 l1 -28
-229 3 c-126 2 -233 6 -236 10 -4 4 6 36 23 72 22 47 37 66 54 70 32 7 297 -3
333 -12z m77 -234 c-7 -57 -19 -108 -25 -115 -16 -16 -69 -21 -74 -7 -2 6 8
28 23 49 15 22 19 33 9 25 -16 -13 -55 -81 -55 -96 0 -4 23 -4 50 -1 54 6 62
-1 32 -31 -13 -13 -15 -21 -7 -29 7 -7 16 -1 31 21 16 23 23 54 28 121 4 49
11 94 16 99 6 6 10 20 10 33 0 18 6 23 25 23 22 0 25 -4 25 -39 0 -24 -9 -51
-25 -75 -14 -20 -27 -56 -31 -79 -11 -89 -26 -128 -51 -138 -29 -11 -210 -12
-216 -1 -3 4 -67 4 -144 0 -188 -10 -210 -6 -230 43 -22 56 -31 40 -19 -35 8
-57 12 -66 30 -67 21 0 21 -1 1 -9 -11 -5 -30 -9 -41 -9 -18 -1 -21 4 -19 32
2 17 3 55 4 83 1 62 13 69 72 49 48 -17 49 -17 49 -7 0 4 -20 18 -45 31 -45
24 -52 37 -36 69 5 9 17 34 27 55 11 21 28 49 39 63 l20 25 105 -12 c57 -6
171 -9 252 -7 122 3 151 7 165 21 10 9 18 17 18 17 1 0 -5 -46 -13 -102z"/>
<path d="M6000 5360 c-20 -40 -26 -87 -12 -105 4 -6 42 -8 97 -5 l89 5 4 40
c2 26 -2 52 -14 73 -17 31 -19 32 -80 32 l-64 0 -20 -40z"/>
<path d="M6487 4970 c-56 -11 -129 -100 -81 -100 8 0 12 -5 9 -10 -4 -6 -11
-8 -16 -5 -15 10 -9 -106 9 -165 19 -59 45 -76 69 -44 7 10 16 15 19 11 4 -4
14 -1 22 6 13 9 14 9 8 0 -5 -9 -1 -13 11 -13 11 0 24 -5 30 -11 10 -10 37
-13 97 -10 18 1 17 3 -4 21 l-23 20 33 0 c27 0 32 -3 27 -20 -4 -17 0 -20 24
-20 27 0 57 32 51 54 -2 4 2 14 8 21 11 13 -11 99 -31 119 -5 6 -9 17 -10 25
-1 31 -65 106 -100 118 -38 13 -95 14 -152 3z m201 -80 c11 -14 18 -28 15 -32
-2 -5 -58 -8 -124 -8 l-119 0 0 25 c0 36 26 46 121 43 79 -3 89 -5 107 -28z
m49 -90 c21 -51 17 -89 -10 -95 -12 -4 -35 -1 -51 4 -36 14 -166 14 -166 0 0
-6 -16 -9 -37 -7 -35 3 -37 5 -50 53 -15 61 -16 68 -3 60 6 -3 12 0 15 7 4 10
38 13 147 11 l141 -1 14 -32z"/>
<path d="M5723 4761 c-52 -9 -66 -21 -93 -77 -12 -24 -29 -44 -37 -44 -10 0
-13 -6 -9 -16 3 -8 -6 -38 -20 -66 -20 -40 -25 -60 -20 -90 14 -86 60 -136 85
-91 7 14 25 17 93 19 45 0 68 -1 51 -3 -18 -2 -33 -9 -33 -15 0 -6 10 -8 23
-5 12 3 46 9 75 13 44 6 52 4 52 -10 0 -20 29 -21 57 -1 14 10 19 22 16 34 -3
11 2 34 11 52 10 21 16 58 16 104 0 60 -5 81 -26 119 -15 26 -37 54 -50 63
-27 18 -129 25 -191 14z m177 -87 c21 -54 21 -54 -124 -54 -74 0 -137 4 -140
9 -3 5 1 23 10 40 l15 31 115 0 c114 0 115 0 124 -26z m70 -69 c0 -9 -6 -30
-13 -48 -8 -18 -17 -48 -20 -67 -6 -32 -12 -37 -52 -48 -48 -13 -243 -15 -285
-3 -18 5 -26 15 -28 34 -3 27 25 117 39 127 4 3 77 4 162 2 l154 -3 -3 -30
c-2 -17 -7 -36 -11 -42 -4 -7 -8 -16 -8 -20 0 -5 -11 -15 -25 -22 l-25 -14 23
-1 c17 0 28 10 42 43 11 23 20 54 20 68 0 14 3 29 7 32 11 12 23 8 23 -8z"/>
<path d="M6980 3664 c-102 -11 -137 -24 -176 -67 -22 -24 -50 -50 -64 -60 -25
-17 -25 -19 -25 -160 1 -139 2 -144 43 -272 26 -80 51 -137 63 -147 26 -22 91
-25 83 -4 -3 8 -1 17 5 20 6 4 8 13 5 21 -5 11 2 13 32 9 21 -2 42 -10 45 -17
9 -15 217 -5 262 12 35 13 47 7 47 -24 0 -12 7 -26 16 -29 28 -11 84 -7 86 7
0 6 2 17 2 23 2 16 26 44 38 44 6 0 23 11 40 25 36 30 30 32 -19 5 -20 -11
-38 -18 -39 -17 -8 7 25 92 36 95 9 3 11 -1 7 -12 -4 -9 -2 -16 3 -16 14 0 22
18 11 25 -6 3 -7 13 -4 22 4 10 2 14 -4 10 -6 -4 -15 12 -23 41 -6 26 -25 70
-41 98 -34 60 -36 80 -9 89 11 3 20 15 20 26 0 15 -7 19 -31 19 -27 0 -30 -3
-25 -22 5 -20 4 -19 -5 2 -92 201 -92 201 -149 230 -35 18 -162 31 -230 24z
m185 -34 c27 -6 51 -21 73 -46 17 -21 32 -41 32 -44 0 -4 -19 -1 -42 7 -33 11
-81 14 -201 11 l-158 -3 3 35 c3 35 4 35 58 41 89 9 192 9 235 -1z m70 -110
c19 -7 35 -28 55 -72 l28 -63 -71 -6 c-74 -6 -324 -1 -364 7 -27 5 -29 30 -11
99 l12 45 162 0 c90 0 175 -4 189 -10z m-438 -146 c17 -5 23 -16 28 -55 4 -27
11 -49 16 -49 5 0 9 -4 9 -10 0 -7 34 -61 87 -139 2 -2 6 -2 9 2 4 3 -7 23
-23 44 -47 60 -81 125 -88 170 l-6 41 42 -15 c34 -11 86 -14 244 -11 110 2
206 6 214 8 8 3 19 -4 25 -15 6 -11 19 -32 29 -46 25 -37 39 -134 26 -181 -15
-57 -54 -74 -131 -58 -43 10 -102 11 -211 5 -196 -9 -190 -10 -223 6 -19 10
-31 25 -37 49 -18 74 -30 116 -37 135 -12 29 -21 105 -15 116 7 10 12 11 42 3z"/>
<path d="M8404 7949 c-2 -3 33 -9 77 -12 44 -3 83 -8 86 -11 4 -3 -43 -57
-104 -118 -60 -62 -118 -126 -128 -141 -12 -19 -24 -27 -37 -24 -18 5 -18 -18
-14 -696 2 -386 9 -781 15 -877 22 -340 13 -2918 -10 -2946 -5 -6 -6 -13 -4
-16 3 -3 8 -67 10 -142 3 -76 7 -141 10 -147 4 -5 -12 -9 -37 -9 -31 0 -39 -3
-28 -10 8 -5 25 -10 38 -10 12 0 22 -5 22 -11 0 -6 -15 -9 -34 -8 -19 2 -38 0
-42 -4 -4 -4 14 -7 39 -7 43 0 47 -2 47 -24 0 -40 12 -86 23 -86 6 0 8 20 4
53 -3 30 -2 58 1 63 4 5 102 9 217 10 116 0 363 1 550 2 187 1 390 -1 450 -4
205 -10 485 -13 405 -4 -41 4 -108 8 -148 9 -43 0 -71 5 -67 10 3 6 152 10
363 11 196 1 402 3 457 6 55 2 112 4 128 4 33 0 35 13 5 28 l-23 11 25 0 c14
1 33 -8 43 -19 19 -23 62 -27 70 -6 4 9 15 13 29 10 20 -4 20 -3 4 4 -29 13
-7 21 69 28 54 5 70 3 86 -12 18 -16 19 -16 26 2 5 11 14 19 21 19 6 0 12 5
12 10 -1 6 -22 9 -48 8 -26 -1 -38 1 -27 4 42 11 34 20 -22 27 -32 4 -85 12
-118 18 -33 6 -92 11 -132 12 -39 0 -75 5 -80 9 -4 5 -3 8 2 6 6 -1 18 1 29 6
10 4 55 3 100 -3 44 -7 128 -11 186 -11 90 1 100 3 70 12 -19 6 -70 10 -112 9
-43 -1 -78 2 -78 7 0 9 90 18 184 19 21 1 42 4 47 9 10 10 0 10 -248 13 -106
1 -193 3 -193 5 0 2 18 12 40 24 29 15 38 17 33 6 -6 -17 22 -21 32 -5 3 6 27
10 53 10 33 0 43 -3 32 -10 -26 -16 -7 -18 85 -9 79 9 108 12 164 18 31 3 0
13 -56 17 -32 2 -78 8 -103 13 -25 5 -58 9 -75 8 -16 -1 -52 0 -80 1 l-50 3
37 30 c63 51 144 161 188 254 55 115 100 224 100 240 0 17 28 111 47 156 8 19
16 51 17 71 2 19 6 41 11 47 4 7 11 40 16 74 5 34 13 82 19 107 6 25 13 63 16
85 3 22 8 47 12 55 20 50 22 193 6 352 -8 83 -17 154 -19 158 -2 4 -9 38 -15
76 -6 38 -13 80 -16 94 -3 14 -7 34 -9 45 -7 46 -31 113 -55 155 -36 62 -42
80 -26 80 7 0 21 9 31 20 16 17 16 20 2 26 -8 3 -25 1 -36 -5 -17 -9 -23 -7
-38 15 -47 67 -158 202 -189 229 l-34 30 21 15 c12 8 29 23 38 33 19 21 32 22
25 2 -13 -32 16 -12 80 55 64 68 91 111 83 134 -2 6 -12 -5 -22 -24 -33 -66
-97 -120 -107 -90 -2 6 -21 -5 -42 -25 -44 -40 -65 -46 -39 -11 10 13 22 21
27 18 5 -3 6 0 2 6 -3 6 18 63 49 126 30 64 55 121 55 129 0 28 42 98 65 109
20 9 29 8 42 -4 10 -8 29 -15 42 -16 32 -1 76 -45 68 -66 -4 -9 -17 -17 -29
-17 -16 -1 -18 -3 -6 -6 24 -6 16 -48 -15 -81 -15 -16 -27 -32 -27 -36 0 -5
14 -24 30 -43 17 -18 30 -38 30 -43 0 -10 -19 -24 -37 -26 -15 -3 -123 -93
-123 -103 0 -4 -23 -24 -50 -45 -28 -21 -48 -41 -45 -44 3 -3 13 2 23 11 35
32 73 12 40 -21 -6 -6 -10 -14 -7 -16 2 -3 33 20 69 49 36 30 73 55 82 55 10
0 26 9 36 20 22 24 52 18 45 -10 -3 -10 -18 -24 -35 -31 -23 -9 -29 -17 -25
-35 4 -20 0 -22 -37 -21 -32 1 -51 -6 -88 -33 -26 -19 -47 -41 -47 -49 -1 -11
3 -11 17 2 10 10 23 17 29 17 5 0 20 11 33 25 13 14 29 25 36 25 28 0 25 -23
-7 -56 -18 -19 -27 -34 -21 -34 7 0 17 -11 22 -25 5 -14 14 -25 20 -25 6 0 6
9 0 26 -9 21 -6 30 20 57 16 18 30 34 30 37 0 3 22 29 50 58 31 32 47 57 44
67 -4 8 -1 15 4 15 6 0 14 10 17 21 6 17 -4 32 -43 73 -27 28 -53 61 -57 74
-3 12 -12 22 -18 22 -9 0 -9 2 -1 8 19 12 64 117 64 150 0 37 -18 56 -65 72
-35 12 -44 23 -25 35 6 4 9 30 9 58 -1 29 5 71 15 96 22 57 13 78 -40 101
l-44 19 5 97 c3 53 8 101 11 106 4 5 6 73 5 151 0 111 -5 157 -21 212 -11 38
-20 71 -20 73 0 2 8 1 19 -3 15 -4 18 -1 14 19 -3 13 -14 26 -24 29 -10 3 -19
13 -19 24 0 15 2 16 10 3 20 -31 10 12 -15 60 -14 27 -27 63 -28 80 -2 16 -7
33 -10 37 -4 3 -7 14 -7 23 0 9 -13 37 -30 61 -16 24 -30 52 -30 62 0 21 -36
78 -83 132 -20 22 -34 41 -32 43 2 3 21 -6 41 -19 21 -12 34 -18 31 -12 -4 6
-32 25 -63 43 -30 17 -79 55 -107 85 -53 55 -90 78 -254 161 -51 25 -91 50
-88 54 6 10 11 9 -180 54 -82 20 -158 41 -167 46 -10 6 -32 10 -50 10 -18 0
-51 5 -72 11 -22 6 -67 12 -100 13 -34 1 -68 6 -76 11 -8 5 -15 5 -17 -2 -3
-7 -58 -9 -166 -6 -249 8 -1088 9 -1093 2z m346 -34 c47 -3 247 -7 445 -10
198 -4 376 -8 395 -10 19 -2 78 -5 130 -6 81 -2 99 -5 119 -23 13 -12 21 -15
16 -7 -6 11 -1 12 29 7 20 -4 53 -9 73 -12 20 -2 42 -9 50 -15 7 -6 22 -9 34
-6 11 3 44 -3 72 -13 29 -10 81 -26 117 -36 87 -24 190 -72 275 -127 73 -47
211 -183 256 -252 14 -22 46 -72 71 -111 30 -45 59 -111 82 -182 46 -141 46
-152 0 -117 -19 15 -19 15 1 9 18 -5 18 -3 -2 12 -13 9 -23 22 -23 29 0 6 -10
20 -22 31 -13 11 -18 12 -12 4 5 -8 18 -42 28 -75 10 -33 24 -72 31 -87 8 -15
10 -30 6 -33 -5 -2 -14 10 -21 28 -7 17 -16 41 -20 52 -5 11 -17 45 -27 75
-10 30 -21 57 -24 60 -3 3 -9 18 -13 33 -8 33 -151 185 -214 229 -23 16 -47
26 -54 22 -6 -4 -8 -3 -4 4 4 6 -17 21 -51 38 -32 15 -74 37 -93 50 -40 27
-161 76 -168 69 -2 -2 51 -31 119 -64 84 -41 150 -81 204 -125 44 -37 84 -66
90 -66 14 0 87 -74 84 -86 -3 -13 11 -45 37 -79 31 -42 84 -147 84 -165 0 -9
4 -20 9 -25 11 -12 63 -156 58 -161 -4 -5 -11 10 -62 129 -47 108 -158 281
-218 337 -132 125 -399 289 -557 343 -192 66 -304 72 -1030 56 -311 -7 -593
-13 -628 -13 -60 0 -61 -1 -36 -14 19 -10 43 -12 86 -7 34 4 58 3 55 -1 -3 -5
233 -7 533 -6 593 4 798 -7 940 -52 30 -9 91 -28 134 -42 213 -66 431 -210
534 -353 57 -77 185 -351 166 -351 -3 0 4 -15 15 -34 30 -48 26 -62 -9 -33
-48 41 -89 50 -140 32 -42 -15 -46 -15 -70 5 -48 39 -71 46 -85 27 -15 -21
-29 -22 -21 -2 3 9 0 15 -9 15 -20 0 -19 10 1 25 22 16 13 53 -23 96 -23 27
-27 41 -25 78 3 45 2 47 -40 72 -65 40 -83 43 -117 18 -16 -11 -42 -22 -57
-23 -16 -1 -39 -7 -51 -14 -33 -18 -43 -15 -58 22 -8 18 -26 41 -40 50 -14 9
-25 23 -25 31 0 34 -23 65 -49 65 l-26 0 21 -18 c29 -23 45 -57 38 -76 -5 -12
3 -19 25 -27 17 -6 31 -18 31 -27 0 -10 7 -25 14 -35 12 -15 22 -17 67 -11 29
4 67 15 84 25 16 10 46 20 65 24 30 5 40 1 68 -24 35 -33 40 -49 17 -57 -22
-9 -18 -27 10 -54 14 -13 25 -29 25 -36 0 -7 4 -14 9 -16 16 -6 24 -48 9 -48
-8 0 -22 -13 -31 -30 -14 -24 -15 -29 -3 -24 24 9 68 -25 60 -48 -3 -11 -7
-30 -8 -42 -2 -13 -6 -28 -10 -34 -11 -18 10 -14 25 4 7 9 12 29 11 44 -4 38
9 43 58 24 36 -15 48 -15 96 -4 50 12 59 12 102 -6 50 -21 65 -51 41 -81 -11
-13 -9 -19 16 -40 27 -24 28 -26 11 -39 -11 -7 -24 -15 -29 -17 -16 -5 25 -56
45 -57 14 0 16 6 12 29 -6 29 12 54 20 29 3 -7 7 -67 10 -133 l6 -120 -20 25
c-11 14 -20 31 -20 38 0 23 -52 3 -56 -22 -4 -25 31 -60 51 -52 11 4 15 1 13
-12 -2 -11 3 -17 15 -16 21 2 21 -4 6 -151 -6 -60 -16 -114 -21 -120 -6 -7
-18 0 -33 20 -13 16 -26 27 -29 24 -3 -3 8 -21 24 -40 16 -19 29 -42 30 -51 1
-50 -108 -303 -145 -338 -17 -16 -23 -16 -37 -6 -16 12 -13 17 32 56 28 24 50
47 50 52 0 12 -49 -23 -81 -57 -13 -13 -28 -25 -32 -25 -19 0 1 30 46 69 27
22 45 41 40 41 -4 0 3 9 17 20 14 10 22 21 19 24 -3 3 -21 -8 -41 -24 -20 -17
-42 -28 -50 -25 -16 5 -64 -32 -54 -43 4 -4 16 4 27 17 11 13 22 22 25 19 2
-3 -7 -19 -21 -36 l-25 -30 -40 21 c-22 12 -40 25 -40 29 0 4 17 16 38 27 40
20 93 71 74 71 -6 0 -15 -6 -19 -13 -4 -8 -15 -16 -23 -20 -8 -4 -26 -15 -40
-24 -23 -17 -24 -17 -17 0 3 9 2 17 -3 17 -9 0 -55 -59 -49 -64 2 -1 18 -8 35
-15 17 -7 37 -23 44 -37 8 -13 17 -24 21 -24 3 0 19 -16 33 -35 l27 -35 -21
-35 c-34 -55 -233 -215 -268 -215 -24 0 14 -37 45 -45 l26 -6 -24 -27 c-13
-14 -17 -21 -9 -15 32 23 55 23 83 0 15 -12 39 -32 55 -44 146 -117 171 -145
261 -293 44 -74 58 -110 41 -110 -6 0 -8 5 -5 10 3 6 -3 10 -14 10 -11 0 -23
5 -27 11 -5 8 -9 8 -14 -1 -6 -9 -14 -8 -33 5 -15 9 -40 15 -59 13 l-33 -3 47
-22 47 -22 -19 -38 c-10 -21 -16 -46 -14 -56 2 -12 -7 -24 -28 -35 -18 -9 -51
-36 -74 -60 -32 -32 -49 -42 -68 -39 -14 1 -28 6 -32 10 -15 15 64 104 153
171 29 22 51 41 49 43 -8 9 -112 -61 -178 -119 -36 -32 -70 -40 -47 -11 12 14
12 16 -1 9 -8 -4 -2 3 14 15 16 13 57 50 90 82 43 43 54 58 37 52 -36 -11 -91
-46 -91 -57 0 -6 -7 -7 -16 -4 -8 3 -13 2 -10 -3 8 -12 -25 -38 -47 -38 -16 0
-16 2 -1 25 16 25 16 25 -20 -3 -39 -29 -45 -38 -21 -29 8 4 15 1 15 -6 0 -8
-8 -10 -22 -7 -21 6 -78 -17 -78 -31 0 -5 5 -13 12 -20 15 -15 12 -15 -31 -2
-30 8 -39 6 -80 -24 -25 -18 -55 -36 -66 -41 -13 -5 -16 -9 -7 -12 7 -3 31 7
53 22 23 14 42 25 42 23 1 -2 8 -13 14 -25 11 -20 10 -24 -11 -38 -30 -20 -92
-12 -161 20 -27 13 -60 27 -73 32 -22 8 -21 11 38 56 58 46 98 67 123 67 6 0
1 -9 -11 -20 -12 -11 -26 -20 -32 -20 -5 0 -10 -4 -10 -9 0 -5 -18 -23 -41
-39 -39 -29 -39 -54 1 -32 17 9 19 8 13 -7 -5 -12 8 -6 37 17 29 23 42 29 37
17 -7 -19 -6 -20 17 -11 9 3 14 9 12 13 -5 8 124 97 197 135 26 14 53 23 59
21 7 -3 49 27 92 65 43 39 82 70 86 70 4 0 10 9 13 21 5 19 4 20 -16 5 -85
-60 -128 -86 -141 -86 -20 0 -20 10 0 38 l16 23 -33 -20 c-28 -17 -34 -18 -47
-5 -12 13 -18 12 -46 -9 -17 -13 -42 -29 -56 -36 -19 -10 -17 -5 11 21 20 18
52 43 70 56 91 61 174 123 174 130 0 4 4 13 9 20 15 24 -4 26 -29 2 -14 -13
-23 -26 -20 -28 6 -6 -82 -62 -98 -62 -7 0 12 23 42 50 30 28 50 50 45 50 -6
0 -15 -5 -22 -12 -9 -9 -12 -8 -12 4 0 13 -7 10 -30 -10 -21 -19 -26 -28 -17
-34 9 -6 9 -8 -2 -8 -16 0 -62 -46 -54 -54 3 -3 0 -19 -6 -35 -9 -19 -22 -31
-42 -35 -15 -3 -47 -17 -69 -32 -51 -34 -61 -25 -26 21 31 40 20 45 -37 15
-20 -11 -39 -20 -42 -20 -3 0 2 16 10 36 19 45 19 43 -7 37 -22 -4 -23 -4 -4
11 23 19 17 20 -18 5 -27 -13 -46 -42 -20 -32 12 4 13 1 3 -20 -16 -36 -41
-45 -33 -12 5 19 2 25 -11 25 -9 0 -13 5 -10 10 3 6 1 10 -5 10 -7 0 -14 -9
-17 -20 -5 -20 -27 -24 -22 -5 4 19 121 116 177 147 60 34 143 48 119 20 -9
-12 -8 -14 8 -10 12 2 19 11 19 21 -1 10 9 25 22 34 30 19 30 29 3 44 -49 26
-77 28 -100 8 l-22 -19 33 6 c22 5 31 4 27 -3 -4 -6 3 -14 16 -17 20 -6 21 -7
4 -17 -9 -6 -26 -8 -36 -4 -23 7 -139 -52 -245 -126 -73 -50 -97 -71 -57 -49
32 17 38 11 11 -11 -17 -14 -21 -22 -12 -26 6 -2 12 -10 12 -16 0 -7 13 -23
29 -36 l28 -23 -23 -42 c-29 -52 -111 -136 -157 -161 l-36 -19 -20 25 c-11 13
-19 29 -16 34 23 59 75 168 94 200 13 22 24 49 23 59 -1 22 46 93 94 142 39
39 126 85 197 104 52 14 67 27 43 36 -20 8 -20 28 -1 44 9 7 13 15 10 18 -3 3
-14 -3 -25 -13 -11 -10 -20 -13 -20 -7 0 15 41 42 53 35 6 -3 7 -1 3 5 -9 16
-21 15 -38 -1 -22 -23 -109 -70 -115 -63 -4 3 -16 -2 -27 -11 -21 -18 -21 -18
-3 4 11 12 25 19 33 16 16 -6 80 54 69 65 -3 4 -13 -2 -21 -12 -7 -11 -17 -16
-21 -12 -9 9 42 56 62 56 8 0 15 4 15 9 0 5 12 23 26 40 14 17 21 31 15 31 -6
0 -11 -4 -11 -8 0 -5 -15 -17 -34 -27 -34 -18 -36 -18 -73 1 -21 10 -39 20
-41 21 -2 0 4 15 13 33 19 36 14 50 -10 27 -9 -9 -31 -19 -51 -23 -35 -6 -56
1 -39 14 6 4 26 25 45 47 40 45 11 26 -35 -22 -31 -35 -51 -43 -42 -19 4 10 1
13 -9 9 -21 -8 -17 11 17 78 33 66 51 109 45 109 -6 0 -84 -127 -91 -149 -3
-12 -13 -21 -21 -21 -12 0 -14 7 -9 33 5 24 4 28 -4 17 -6 -8 -11 -23 -11 -32
0 -10 -5 -18 -11 -18 -6 0 -8 7 -5 16 3 9 9 28 12 42 4 15 10 32 14 37 12 17
20 45 12 45 -10 0 -50 -78 -58 -114 -6 -23 -8 -26 -16 -12 -7 13 -12 13 -28 4
-49 -31 -44 45 10 153 30 60 -1 28 -34 -36 -14 -27 -26 -55 -26 -61 0 -6 -8
-18 -17 -25 -15 -12 -16 -12 -10 3 3 10 2 20 -3 23 -6 4 -10 1 -10 -4 0 -16
-12 -13 -43 13 -29 23 -29 24 -12 56 9 18 12 29 5 25 -6 -4 -15 -18 -20 -31
-12 -31 -34 -32 -27 -1 16 66 16 70 -1 34 -10 -21 -22 -35 -29 -32 -24 8 -13
-12 19 -39 17 -14 34 -26 38 -26 3 0 11 -9 17 -20 18 -28 2 -61 -46 -93 -41
-28 -67 -28 -57 -1 3 8 1 14 -4 14 -6 0 -10 -4 -10 -10 0 -5 -6 -10 -14 -10
-7 0 -16 -9 -19 -20 -6 -22 -27 -28 -27 -7 0 7 5 18 11 24 18 18 21 83 3 76
-7 -2 -16 -13 -19 -23 -3 -10 -17 -30 -31 -45 -21 -22 -28 -25 -35 -14 -6 11
-11 11 -21 1 -6 -6 -20 -12 -30 -12 -10 0 -18 -7 -18 -17 0 -14 -3 -14 -12 -5
-9 9 -10 15 -2 20 11 7 23 34 25 57 0 6 5 16 11 23 21 24 -12 12 -34 -13 -23
-26 -78 -59 -86 -51 -2 3 5 15 17 27 12 13 21 26 21 31 0 11 -18 10 -25 -2 -4
-6 -11 -8 -16 -5 -5 4 -9 -3 -9 -14 0 -25 -8 -26 -38 -5 -25 17 -43 11 -24 -8
20 -20 14 -56 -13 -74 -13 -8 -29 -13 -35 -9 -6 4 -18 -1 -25 -11 -17 -23 -20
-3 -5 27 7 12 7 19 1 19 -18 0 -61 -23 -61 -33 0 -5 7 -4 15 3 21 17 30 6 11
-13 -21 -21 -56 -10 -56 17 -1 20 -2 20 -23 -5 -12 -15 -29 -29 -37 -32 -28
-9 43 -30 107 -31 34 -1 65 -4 69 -8 4 -5 12 -8 18 -8 6 0 4 4 -4 10 -11 7 -9
11 14 20 41 15 83 53 78 70 -3 13 -2 13 6 1 6 -8 20 -12 36 -9 27 5 26 -4 -8
-47 -14 -17 -17 -18 -26 -5 -9 12 -10 10 -5 -9 6 -19 4 -23 -9 -18 -9 4 -16 1
-16 -6 -1 -17 -88 -89 -100 -82 -17 11 -11 19 31 43 48 28 47 38 -3 18 -53
-23 -103 -67 -86 -77 20 -13 28 -11 22 6 -4 8 -1 15 4 15 18 0 24 -20 12 -35
-25 -31 -92 -12 -139 39 -27 29 -41 33 -41 12 0 -16 91 -97 122 -109 14 -5 30
-2 46 9 13 9 22 11 18 6 -3 -6 -1 -14 5 -18 6 -3 15 -1 19 6 6 10 9 9 15 0 10
-16 -21 -40 -50 -40 -12 0 -30 -7 -41 -15 -29 -22 -51 -19 -25 5 13 10 21 25
18 32 -2 8 -17 -1 -41 -27 -20 -22 -32 -41 -26 -43 14 -5 13 -32 -2 -32 -26 0
-217 -151 -260 -206 -10 -12 -27 -24 -39 -27 -21 -6 -21 -5 2 20 l24 27 -32
-22 c-36 -25 -53 -28 -53 -8 0 19 27 39 41 31 6 -4 14 -4 18 1 3 5 24 25 46
44 23 19 72 63 110 96 39 34 94 82 123 108 29 25 48 46 42 46 -6 0 -29 -17
-51 -37 -22 -21 -52 -45 -67 -55 -15 -10 -50 -39 -78 -65 -120 -113 -144 -134
-144 -128 0 4 35 44 78 88 l77 81 -81 -73 c-45 -40 -95 -81 -112 -91 -40 -25
-47 -38 -29 -58 7 -9 17 -25 21 -36 4 -13 11 -16 24 -11 9 4 27 7 39 7 12 -1
25 3 28 8 3 6 26 10 50 10 24 0 56 6 72 14 72 35 87 35 123 0 37 -37 56 -34
85 10 9 13 35 36 58 51 40 26 167 148 167 160 0 3 -10 0 -22 -7 -13 -7 -27
-11 -32 -10 -4 2 -14 -3 -22 -9 -8 -6 -14 -7 -14 -2 0 6 15 18 34 28 19 11 32
23 30 27 -3 5 -10 6 -15 3 -5 -4 -9 -1 -9 4 0 21 20 10 77 -43 53 -49 56 -54
41 -70 -9 -9 -21 -16 -26 -16 -5 0 -18 -11 -28 -25 -21 -28 -37 -33 -28 -10
10 24 -26 7 -68 -33 -21 -20 -40 -33 -43 -31 -11 11 72 78 103 82 28 5 77 45
66 56 -6 6 -64 -21 -64 -30 0 -5 -5 -9 -12 -9 -7 0 3 16 22 35 58 60 28 47
-41 -18 -37 -34 -85 -78 -108 -97 -42 -33 -42 -34 -19 -43 22 -8 23 -9 4 -23
-11 -8 -23 -14 -28 -14 -4 0 -8 -4 -8 -10 0 -16 30 -12 58 8 17 12 36 16 51
13 l23 -6 -3 -280 c-3 -309 -2 -533 3 -760 l3 -150 33 -3 c17 -2 32 -7 32 -12
0 -12 -64 -96 -109 -143 -46 -49 -203 -155 -256 -173 l-40 -14 43 5 c67 8 225
99 290 167 118 123 143 188 190 490 13 85 14 185 2 193 -5 3 -10 14 -10 23 0
15 2 15 10 2 8 -12 10 -8 11 15 1 17 3 41 5 55 2 14 8 57 12 96 5 39 12 75 15
81 4 6 9 30 12 53 3 24 8 46 10 50 3 4 7 29 10 56 3 27 11 75 17 107 17 90 5
208 -26 261 -24 41 -132 156 -147 156 -4 0 -40 37 -80 82 -43 47 -64 76 -49
68 14 -8 31 -15 38 -16 7 -1 34 -22 60 -46 26 -24 68 -58 93 -76 30 -20 68
-63 105 -117 57 -85 59 -86 67 -58 4 15 5 73 1 128 -3 55 -8 122 -10 149 -5
85 -26 133 -88 204 -11 12 -15 22 -9 22 19 0 78 -84 118 -169 21 -43 28 -35
16 19 -7 34 -6 48 5 64 8 11 15 18 15 16 6 -22 30 -209 34 -264 5 -61 4 -67
-10 -56 -18 15 -18 10 -2 -53 7 -26 16 -44 21 -40 4 4 4 0 0 -10 -3 -10 -1
-17 5 -17 6 0 11 -5 11 -11 0 -5 -5 -7 -10 -4 -6 4 -9 -17 -8 -57 1 -35 3 -55
6 -45 2 9 8 17 13 17 6 0 8 -4 5 -8 -2 -4 -1 -14 5 -22 7 -12 9 -12 9 3 0 10
11 43 25 73 29 64 29 63 11 78 -18 14 -32 76 -17 76 6 0 11 -9 11 -20 0 -23
10 -26 28 -8 15 15 16 3 2 -23 -19 -35 -2 -20 47 44 42 52 102 164 177 327 17
37 18 35 18 -48 0 -32 -7 -63 -16 -77 -9 -14 -14 -25 -11 -25 12 0 82 79 73
82 -6 2 -2 10 8 18 16 14 17 13 11 -2 -4 -11 -2 -18 6 -18 8 0 7 -4 -3 -10 -8
-5 -11 -12 -8 -15 4 -4 -8 -23 -25 -42 -18 -19 -45 -56 -62 -83 -33 -53 -90
-140 -137 -207 -16 -24 -26 -43 -21 -43 4 0 0 -6 -9 -14 -10 -7 -22 -25 -28
-40 -5 -15 -14 -25 -19 -22 -5 4 -7 -3 -4 -14 3 -11 1 -20 -5 -20 -6 0 -14 -9
-17 -20 -4 -11 -10 -18 -15 -15 -4 2 -12 -8 -17 -23 -5 -15 -18 -49 -28 -77
-77 -219 -105 -356 -109 -530 -2 -123 20 -325 35 -325 12 0 11 17 -2 42 -8 14
-8 23 0 31 8 8 11 6 11 -6 0 -10 6 -27 13 -38 7 -14 8 -23 2 -25 -31 -13 -40
-23 -27 -36 6 -6 12 -23 12 -36 0 -13 7 -47 16 -75 41 -136 57 -183 65 -192 5
-5 9 -15 9 -23 0 -16 11 -27 62 -65 32 -25 42 -27 85 -22 41 6 56 2 105 -24
71 -38 105 -42 68 -8 -14 12 -37 28 -52 36 -27 14 -40 38 -15 27 6 -2 29 -10
50 -17 20 -7 37 -16 37 -20 0 -5 16 -11 35 -15 19 -3 35 -10 35 -15 0 -5 12
-9 26 -9 14 0 23 4 19 10 -3 6 -15 10 -26 10 -10 0 -19 4 -19 10 0 5 -12 16
-28 24 -36 19 -83 66 -76 77 3 5 12 9 21 9 12 0 13 -3 4 -14 -15 -18 10 -29
46 -19 21 5 25 3 20 -10 -6 -16 16 -21 146 -31 37 -3 76 -10 87 -16 23 -12 40
-13 40 -1 0 5 -19 16 -42 24 l-43 14 37 7 c21 4 46 2 56 -3 22 -12 104 -2 96
11 -4 6 -22 8 -40 5 -19 -3 -36 -2 -39 3 -4 7 -69 6 -112 -1 -4 -1 -19 -1 -33
0 -24 2 -23 3 10 21 19 11 28 19 20 20 -8 0 -31 -9 -51 -19 -39 -21 -72 -14
-44 9 32 27 13 30 -30 4 -51 -29 -61 -17 -24 30 30 38 15 45 -16 7 -24 -28
-65 -45 -50 -21 3 6 3 19 0 31 -5 16 -10 18 -21 8 -7 -6 -11 -15 -8 -20 3 -5
2 -9 -3 -9 -4 -1 -25 -3 -46 -6 -53 -8 -77 0 -118 40 -59 57 -154 279 -108
250 16 -9 123 105 152 162 52 104 77 219 79 359 1 70 -28 246 -48 295 -15 34
-14 36 13 57 44 35 71 30 145 -30 29 -23 44 -28 70 -25 18 3 44 1 57 -4 51
-19 115 41 97 89 -6 15 -5 15 11 2 10 -8 32 -22 50 -32 27 -15 36 -16 52 -5
18 11 24 9 49 -15 21 -20 38 -27 69 -27 35 0 46 6 76 39 19 21 46 41 60 45 34
8 71 60 63 90 -8 32 19 66 53 66 15 0 32 5 37 10 22 22 46 -18 80 -135 36
-121 64 -253 64 -290 -1 -32 -28 51 -40 124 -6 37 -15 73 -20 81 -14 21 -13 3
4 -83 8 -40 24 -124 36 -186 19 -95 22 -136 17 -235 -3 -67 -12 -152 -20 -191
-8 -38 -23 -108 -32 -155 -16 -84 -43 -160 -57 -160 -5 0 -8 -9 -8 -21 0 -13
-4 -18 -12 -13 -7 5 -8 3 -3 -6 4 -7 3 -15 -2 -19 -5 -3 -24 -35 -42 -70 -36
-71 -74 -123 -148 -205 -51 -55 -73 -69 -126 -81 -15 -3 -25 -9 -23 -14 3 -5
-6 -17 -20 -27 -14 -11 -35 -27 -47 -37 -36 -31 -85 -52 -208 -90 -208 -65
-377 -94 -609 -103 -74 -3 -140 -7 -145 -9 -6 -1 -87 1 -180 5 -406 20 -791
27 -803 16 -3 -3 30 -6 74 -6 53 0 74 -3 64 -10 -8 -5 -88 -9 -178 -9 -152 -1
-164 0 -157 17 3 9 8 336 11 726 2 390 6 712 9 714 3 3 6 -18 6 -46 1 -29 2
-73 3 -99 2 -27 4 -119 6 -205 2 -86 7 -155 12 -152 9 6 2 366 -8 454 -4 30
-12 58 -18 62 -12 8 -19 128 -8 128 4 0 6 152 5 338 -10 1825 -15 2454 -23
2606 -6 99 -10 191 -10 205 0 19 23 50 88 116 48 50 107 107 130 127 23 21 41
41 41 45 -6 36 33 78 64 69 12 -3 60 -8 107 -11z m1082 -2705 c-16 -30 -34
-50 -44 -50 -13 0 -18 -8 -18 -30 0 -28 2 -29 26 -20 35 14 47 12 41 -4 -3 -8
0 -17 8 -20 16 -6 7 -48 -20 -90 -18 -28 -56 -35 -72 -13 -15 20 -29 79 -28
126 0 40 3 46 25 51 14 3 25 11 25 16 0 6 15 25 33 43 17 18 32 37 32 42 0 6
4 7 10 4 5 -3 -2 -27 -18 -55z m380 -415 c-11 -14 -41 -44 -67 -68 -26 -23
-63 -57 -83 -75 -21 -18 -67 -54 -105 -79 -37 -24 -74 -51 -82 -60 -8 -8 -19
-12 -24 -9 -5 3 -15 -2 -22 -11 -12 -14 -12 -16 1 -9 8 4 -3 -9 -25 -31 -22
-21 -40 -41 -40 -45 0 -3 -3 -10 -7 -14 -15 -15 -8 22 9 46 l17 24 -26 -20
c-14 -10 -38 -38 -53 -61 -15 -24 -31 -43 -36 -43 -12 0 -12 13 0 26 5 5 12
20 16 33 5 17 4 21 -5 16 -16 -10 -5 26 23 74 17 27 23 32 25 18 3 -17 6 -16
35 5 18 13 54 29 81 36 27 7 65 25 85 41 20 15 52 37 72 49 20 12 58 46 84 74
53 58 113 106 133 107 9 1 7 -7 -6 -24z m-729 -2 c32 -8 36 -44 21 -164 -28
-220 -39 -282 -50 -286 -10 -3 -22 129 -30 327 -1 36 -5 82 -8 103 -7 41 -7
40 67 20z m468 -371 c27 -88 36 -244 19 -318 -11 -44 -22 -63 -54 -91 -48 -41
-160 -98 -179 -90 -10 4 -14 34 -16 119 -3 142 13 217 62 304 20 36 130 153
138 148 5 -3 18 -35 30 -72z"/>
<path d="M9940 7284 c-25 -8 -62 -14 -82 -14 -25 0 -52 -10 -83 -31 -44 -30
-95 -92 -95 -115 0 -19 -27 -24 -40 -8 -18 21 -45 17 -79 -12 -28 -24 -34 -25
-61 -14 -39 16 -78 5 -92 -25 -6 -14 -19 -27 -28 -30 -10 -3 -25 -14 -34 -24
-22 -24 -8 -57 30 -71 28 -11 32 -43 7 -62 -10 -7 -23 -22 -28 -32 -12 -21
-85 -31 -85 -11 0 19 34 45 58 45 13 0 22 6 22 15 0 20 -4 19 -54 -10 -40 -24
-45 -24 -72 -10 -43 22 -63 19 -98 -19 -17 -18 -41 -39 -54 -45 -14 -8 -21
-18 -18 -27 7 -19 0 -18 -34 8 l-30 22 -52 -21 c-29 -12 -63 -24 -75 -28 -34
-9 -42 -26 -36 -78 5 -39 11 -51 29 -59 31 -14 42 -3 21 20 -23 26 -32 76 -15
88 7 6 38 18 69 27 57 18 79 15 120 -14 13 -10 20 -8 37 9 13 13 28 19 38 15
14 -5 15 -1 10 24 -12 55 50 84 102 47 27 -19 27 -70 0 -77 -10 -3 -18 -11
-18 -17 0 -10 4 -10 15 0 9 7 19 10 23 6 12 -12 12 -435 0 -462 -8 -16 -8 -27
0 -36 9 -12 17 -77 13 -121 0 -10 -7 -17 -15 -15 -8 2 -22 -6 -30 -17 -20 -26
-21 -4 -1 50 20 58 18 77 -4 29 -10 -23 -24 -45 -30 -48 -6 -4 -11 -16 -11
-27 0 -22 -18 -25 -44 -6 -17 12 -17 16 -2 52 21 49 13 57 -13 14 -28 -45 -27
-55 10 -89 l32 -28 -19 -33 c-20 -34 -64 -53 -96 -43 -28 9 -21 -19 8 -33 14
-6 32 -9 40 -6 8 3 14 1 14 -4 0 -13 -33 -43 -47 -43 -21 0 -64 42 -59 59 2 9
8 32 11 51 9 45 -10 29 -22 -19 -12 -46 -38 -56 -28 -11 5 23 4 30 -4 26 -6
-4 -11 -14 -11 -22 0 -8 -5 -14 -10 -14 -20 0 -23 34 -7 81 23 65 20 72 -8 19
-44 -83 -30 -114 85 -176 28 -15 50 -30 50 -34 0 -4 -16 -18 -35 -31 -19 -13
-33 -28 -32 -34 5 -15 37 -19 37 -5 0 7 -7 10 -17 6 -16 -5 -16 -4 1 7 43 28
104 95 120 132 18 40 82 115 98 115 5 0 1 -12 -8 -27 l-16 -28 26 28 c14 15
26 35 26 43 0 8 4 14 9 14 5 0 8 -7 7 -16 -2 -22 -101 -128 -113 -121 -6 4
-15 -5 -21 -18 -9 -20 -9 -23 4 -18 10 4 12 0 8 -11 -3 -9 -10 -13 -16 -10 -9
6 -77 -63 -78 -80 0 -6 15 5 32 23 38 39 70 54 80 37 5 -8 11 -7 20 2 19 19
30 14 23 -9 -6 -18 -4 -20 17 -14 12 4 29 14 36 23 10 14 12 11 14 -19 2 -47
1 -55 -6 -85 l-7 -26 147 5 c81 4 150 10 153 15 3 5 18 12 32 15 14 4 46 25
71 47 26 22 49 40 53 40 15 0 95 94 95 112 0 10 9 27 20 38 11 11 16 20 10 20
-12 0 34 83 49 88 6 2 9 -3 5 -12 -4 -11 0 -16 12 -16 15 0 12 -7 -16 -31 -19
-17 -34 -33 -33 -35 1 -2 -4 -19 -12 -38 -21 -49 -19 -52 15 -19 17 15 30 33
30 38 0 6 8 26 18 45 11 19 17 40 16 45 -3 9 57 55 71 55 14 0 2 -18 -20 -30
-19 -10 -22 -16 -13 -22 10 -6 9 -11 -5 -19 -9 -6 -14 -15 -11 -21 4 -6 3 -8
-3 -5 -6 4 -23 -17 -38 -48 -16 -30 -32 -52 -36 -49 -5 2 -15 -8 -23 -24 -18
-35 -46 -61 -46 -42 0 10 -3 10 -15 0 -9 -7 -12 -16 -8 -21 13 -11 75 2 70 15
-3 6 4 12 14 12 22 0 22 -1 9 -27 -14 -25 -3 -44 16 -28 10 8 12 22 8 46 -6
31 -3 38 31 66 21 18 47 37 57 43 11 6 27 22 37 37 l17 27 34 -71 c29 -58 32
-72 20 -79 -8 -5 -11 -12 -7 -17 14 -14 25 20 24 71 -1 35 5 60 18 80 11 16
20 35 21 42 1 6 12 26 25 43 12 17 19 34 15 38 -5 5 -15 -2 -23 -14 -23 -34
-37 -28 -16 7 20 35 27 36 54 11 17 -16 18 -19 4 -31 -8 -7 -15 -19 -15 -28 0
-8 -10 -30 -21 -49 -12 -19 -19 -36 -16 -39 3 -3 -1 -23 -8 -44 -13 -36 -9
-90 9 -119 4 -6 -1 -22 -10 -35 -9 -14 -14 -30 -12 -36 3 -10 57 57 86 107 8
14 18 20 28 16 13 -5 15 -2 10 14 -10 30 94 177 109 153 4 -6 -5 -20 -19 -31
-14 -11 -31 -30 -37 -42 l-12 -22 24 21 c13 12 31 19 39 17 12 -4 13 -3 1 5
-11 8 -10 12 5 20 11 5 25 7 32 5 23 -9 12 -28 -28 -46 -39 -18 -45 -39 -13
-51 17 -7 54 17 139 91 34 29 71 53 83 53 27 0 28 16 1 23 -11 3 -20 12 -20
21 0 25 -17 19 -40 -14 -31 -44 -56 -54 -91 -40 -16 7 -29 15 -29 17 0 3 16
28 36 57 l37 51 -46 -48 c-44 -46 -67 -53 -67 -21 0 8 7 27 16 42 l16 27 -21
-24 c-15 -17 -25 -21 -32 -14 -8 8 -3 24 16 53 14 23 24 44 22 47 -3 2 -23
-15 -46 -39 -32 -33 -43 -40 -50 -29 -6 9 -2 26 12 50 l21 36 -27 -24 c-15
-14 -27 -33 -27 -43 0 -10 -7 -21 -15 -25 -18 -6 -55 23 -55 43 0 10 -6 11
-25 4 -30 -11 -32 -1 -9 35 9 14 12 25 6 25 -6 0 -16 -8 -21 -17 -16 -27 -13
3 3 42 21 50 6 43 -31 -14 -26 -39 -39 -50 -74 -59 -24 -6 -45 -9 -47 -7 -11
10 11 75 33 101 14 16 39 52 55 79 16 28 38 61 47 75 10 13 12 21 6 17 -7 -4
-29 -32 -49 -62 -20 -30 -39 -55 -44 -55 -4 0 -29 -33 -55 -72 -27 -40 -50
-75 -52 -77 -1 -2 -16 -5 -32 -6 -25 -1 -30 2 -34 31 -3 17 -2 48 3 68 4 20 4
36 0 36 -4 0 -11 26 -15 58 -4 31 -13 72 -21 91 -8 19 -12 36 -9 39 8 8 45
-81 45 -113 1 -16 5 -39 10 -50 l9 -20 1 20 c10 106 -50 257 -95 241 -6 -2
-37 23 -70 55 -65 64 -134 102 -205 114 -59 10 -62 12 -49 38 l12 22 -24 -22
c-15 -14 -36 -21 -57 -21 -31 1 -43 13 -21 20 8 3 59 111 59 127 0 2 -9 -4
-20 -14 -22 -20 -44 -15 -60 14 -9 18 -6 24 22 41 18 11 36 20 39 20 4 0 6 8
5 17 -2 26 36 28 80 4 48 -26 51 -26 50 1 -1 17 7 24 33 32 29 8 36 7 48 -10
14 -18 16 -18 48 19 18 21 41 54 50 73 13 27 22 34 45 34 19 0 30 5 30 14 0
16 30 26 83 26 21 0 45 7 53 15 21 21 46 19 78 -6 29 -23 37 -11 9 13 -27 23
-54 26 -103 12z m-345 -544 c70 -34 155 -118 186 -185 37 -77 38 -133 4 -192
-14 -23 -21 -43 -16 -43 6 0 18 16 26 37 8 20 19 33 23 29 13 -14 8 -146 -5
-146 -15 0 -17 -26 -3 -35 20 -13 11 -99 -15 -137 -26 -39 -7 -34 -234 -63
-19 -2 -50 -16 -70 -29 -19 -14 -36 -24 -38 -23 -1 2 -5 102 -8 223 -3 120 -8
304 -10 408 l-5 189 62 -7 c34 -3 80 -15 103 -26z"/>
<path d="M9025 6540 c7 -23 -48 -110 -70 -110 -8 0 -29 -25 -47 -55 -18 -30
-39 -55 -45 -55 -22 0 -14 21 22 57 38 38 43 48 20 39 -9 -3 -15 0 -15 10 0
12 -7 14 -30 9 -19 -4 -30 -3 -30 4 0 6 8 11 18 11 21 0 73 39 53 40 -8 0 -34
-11 -58 -26 -24 -14 -47 -22 -52 -19 -5 3 -12 1 -16 -5 -3 -5 -11 -10 -16 -10
-6 0 -1 17 11 38 l22 37 -31 -32 c-31 -33 -51 -42 -51 -22 0 22 22 49 50 64
33 17 39 35 12 35 -21 0 -102 -80 -102 -100 0 -8 16 -25 35 -38 27 -17 40 -20
55 -12 23 12 70 13 89 1 19 -12 -24 -51 -100 -90 -69 -36 -84 -54 -81 -96 2
-25 -2 -35 -16 -39 -10 -3 -25 -18 -34 -34 -12 -19 -30 -31 -64 -40 l-47 -13
6 -42 c6 -39 4 -44 -26 -63 -18 -12 -44 -25 -59 -28 -18 -4 -30 -15 -34 -31
-9 -35 0 -51 45 -82 22 -16 40 -32 41 -37 0 -4 -13 -25 -29 -45 -51 -64 -50
-81 8 -129 27 -23 54 -42 60 -42 6 0 37 19 68 43 32 23 70 49 85 56 15 8 39
26 53 41 l26 27 -23 -4 c-13 -3 -33 -18 -43 -34 -18 -26 -45 -40 -45 -21 0 4
21 30 46 57 25 28 43 42 40 33 -7 -22 7 -23 24 -3 10 12 10 15 -4 15 -9 0 -16
5 -16 11 0 6 -25 -15 -55 -47 -30 -33 -55 -54 -55 -47 0 6 4 15 10 18 17 10
32 45 20 45 -6 0 -15 -11 -20 -25 -8 -22 -12 -24 -29 -13 -11 7 -22 10 -24 8
-54 -71 -71 -90 -84 -90 -10 0 -3 13 21 40 20 22 36 42 36 45 0 10 -35 -13
-59 -39 -26 -28 -51 -34 -51 -13 0 12 58 87 86 112 6 6 15 23 19 40 6 28 6 29
-13 12 -24 -22 -32 -22 -32 4 0 12 -4 17 -11 14 -12 -8 -69 14 -69 26 0 13 79
50 100 47 16 -3 23 3 19 15 -7 24 -5 37 8 37 9 0 13 -6 9 -15 -7 -19 8 -20 23
-1 9 10 8 16 -4 26 -9 7 -14 19 -11 25 2 7 -1 18 -7 24 -16 16 0 26 41 26 31
0 38 4 40 23 5 32 34 44 93 36 42 -6 51 -4 47 7 -3 8 -11 13 -17 11 -19 -4
-48 16 -54 38 -3 11 -1 20 5 20 5 0 7 4 3 9 -3 5 8 24 24 42 22 23 38 32 60
31 45 -1 71 -11 71 -28 0 -18 14 -18 30 1 7 8 18 15 25 15 7 0 32 25 55 55 23
30 60 71 82 91 22 19 38 38 35 41 -9 8 -50 -18 -76 -51 -55 -67 -110 -121
-116 -114 -11 11 14 48 72 107 29 30 56 67 59 81 3 14 9 33 15 43 7 14 5 17
-12 17 -16 0 -19 -4 -14 -20z"/>
<path d="M10728 6467 c-49 -22 -68 -36 -68 -50 0 -17 3 -16 31 7 17 14 38 26
47 26 18 0 -11 -26 -102 -90 -52 -37 -68 -60 -41 -60 29 0 96 40 89 53 -5 9
-4 9 6 0 11 -10 8 -16 -14 -34 -15 -12 -25 -24 -22 -27 3 -2 12 1 20 7 8 7 23
11 33 9 14 -3 11 -8 -15 -25 -19 -11 -29 -24 -24 -27 6 -4 27 5 48 19 20 14
40 25 44 25 4 0 10 7 13 14 4 10 1 13 -9 9 -7 -3 -14 0 -14 6 0 6 18 18 40 27
41 17 50 28 28 37 -7 3 2 6 21 6 33 1 33 2 17 20 -16 18 -16 19 9 25 15 4 25
12 22 19 -5 17 -35 21 -53 6 -8 -7 -29 -14 -46 -16 -26 -3 -29 -1 -18 12 7 8
19 14 28 13 8 -2 17 3 19 10 7 18 -15 13 -89 -21z"/>
<path d="M10707 6057 c-30 -24 -40 -28 -50 -18 -6 6 -12 17 -12 24 0 25 -38
17 -88 -20 -29 -21 -85 -61 -125 -88 -73 -49 -113 -85 -95 -85 5 0 19 9 31 20
12 11 25 20 31 20 5 0 11 5 13 12 2 6 10 9 17 7 6 -2 -9 -19 -35 -38 -52 -36
-81 -33 -77 8 3 20 2 21 -21 6 -32 -21 -41 -45 -15 -38 12 4 19 0 19 -9 0 -24
44 -42 68 -29 24 13 76 4 161 -29 l54 -21 36 35 c37 38 26 50 -17 20 -13 -9
-26 -13 -30 -9 -7 6 14 25 48 45 8 5 12 12 8 16 -4 4 -14 1 -23 -6 -8 -7 -15
-8 -15 -3 0 5 11 16 25 23 22 12 62 70 49 70 -3 0 -48 -27 -100 -60 -53 -33
-100 -57 -106 -54 -6 4 9 20 33 35 24 16 66 47 94 69 27 22 61 42 75 45 28 7
93 61 88 74 -2 5 -20 -5 -41 -22z"/>
<path d="M8909 5732 c-103 -107 -141 -154 -130 -165 11 -11 -14 -57 -30 -57
-5 0 -2 12 8 26 17 27 17 27 -5 13 -11 -7 -24 -10 -28 -6 -11 10 42 76 119
149 40 37 68 70 64 74 -4 5 -53 -37 -107 -91 -55 -55 -116 -113 -136 -130 -46
-38 -73 -81 -67 -105 4 -13 -13 -36 -55 -77 -63 -62 -85 -111 -62 -138 10 -12
9 -15 -3 -15 -21 0 -32 -37 -16 -56 8 -10 22 -12 45 -8 27 5 35 2 50 -21 15
-24 21 -26 58 -20 23 4 53 13 69 20 24 12 27 11 27 -2 0 -9 8 -25 17 -36 17
-18 17 -19 -2 -33 -11 -8 -36 -17 -57 -21 -35 -5 -48 -20 -31 -37 4 -4 8 -15
8 -24 4 -57 8 -69 25 -91 17 -19 23 -21 36 -11 10 10 12 15 4 20 -8 5 11 25
48 54 33 25 75 65 93 88 19 24 44 51 56 61 28 23 31 42 4 27 -11 -5 -37 -32
-58 -60 -21 -27 -44 -47 -51 -45 -7 3 -11 1 -8 -4 10 -15 -98 -91 -111 -78 -9
9 8 47 21 47 17 0 95 69 79 70 -7 0 -10 7 -7 15 4 8 1 15 -5 15 -6 0 -11 9
-11 19 0 11 -6 22 -12 24 -9 4 -6 11 10 24 41 33 -13 47 -69 17 -17 -8 -49
-16 -72 -17 -40 -2 -42 -1 -40 26 2 31 -5 33 -33 12 -27 -21 -56 -19 -52 3 2
9 12 16 22 15 9 0 15 2 12 5 -4 3 1 17 11 31 16 25 16 25 -1 12 -15 -13 -19
-13 -27 0 -13 21 -12 25 23 64 48 56 190 131 147 78 -11 -13 -11 -17 -1 -20 6
-3 10 -9 6 -14 -13 -21 14 -6 53 30 46 43 68 33 32 -13 -11 -14 -16 -26 -10
-26 5 0 14 7 18 15 5 8 22 16 39 18 31 3 94 36 94 49 0 4 -15 -1 -32 -12 -18
-11 -38 -20 -45 -20 -16 0 -37 67 -27 88 4 9 9 28 10 41 2 13 13 35 26 49 l23
26 -27 -17 c-27 -17 -53 -24 -33 -9 6 4 17 19 25 34 8 15 44 59 79 98 71 78
71 96 0 22z"/>
<path d="M9551 3685 c-1 -44 -8 -104 -16 -134 -8 -30 -12 -58 -9 -63 3 -4 0
-8 -5 -8 -6 0 -10 -8 -9 -17 4 -29 -33 -105 -48 -99 -11 4 -84 -64 -84 -79 0
-14 24 -2 51 26 17 17 33 29 35 26 11 -10 -19 -53 -70 -99 -68 -62 -37 -65 44
-4 33 24 76 47 97 51 21 4 45 13 54 21 14 12 27 8 105 -36 89 -49 154 -72 154
-52 0 5 -13 12 -29 15 -17 4 -52 22 -78 41 -26 18 -57 35 -68 37 -13 3 -22 16
-28 42 -9 36 -27 52 -27 23 0 -8 -7 -16 -15 -20 -11 -4 -15 1 -15 17 -1 22 -1
21 -16 -3 -14 -25 -15 -24 -9 15 9 69 7 267 -3 325 l-10 55 -1 -80z"/>
<path d="M9451 3488 c0 -10 -7 -18 -13 -19 -7 0 -35 -27 -63 -60 -43 -51 -67
-67 -175 -122 -69 -35 -156 -72 -193 -82 -60 -18 -88 -35 -54 -35 19 1 128 39
142 50 24 20 162 63 205 64 42 2 46 4 56 34 5 18 17 41 25 50 58 69 80 104 76
119 -4 17 -5 17 -6 1z"/>
<path d="M12445 7930 c-99 -3 -173 -8 -165 -12 30 -15 220 -27 375 -24 168 4
192 8 192 31 0 16 -26 17 -402 5z"/>
<path d="M12650 7225 c-72 -18 -257 -104 -243 -113 6 -4 -16 -26 -52 -53 -60
-44 -61 -45 -58 -20 3 24 3 25 -9 7 -7 -10 -35 -44 -61 -75 -126 -146 -195
-315 -217 -539 -13 -122 -7 -205 22 -312 11 -41 21 -86 22 -100 2 -24 27 -77
111 -235 21 -38 61 -115 90 -170 62 -118 77 -147 224 -417 l112 -206 -17 -104
c-9 -58 -23 -111 -32 -120 -11 -13 -11 -18 -2 -18 13 0 11 -23 -9 -130 -7 -35
-7 -58 -1 -64 6 -6 10 -21 10 -35 l0 -25 16 23 c15 21 23 23 98 21 44 -2 83
-2 86 0 15 6 59 8 83 3 26 -5 27 -6 10 -19 -17 -12 -17 -13 0 -14 9 0 17 -4
17 -10 0 -5 4 -10 10 -10 5 0 7 6 4 14 -4 11 0 13 15 9 12 -3 21 -12 21 -19 0
-10 11 -13 43 -10 23 3 42 6 42 6 0 1 19 4 41 6 29 2 46 -1 54 -11 7 -8 18
-15 24 -15 7 0 7 3 1 8 -5 4 -19 18 -30 32 -15 18 -15 21 -3 11 14 -10 25 -10
53 -1 19 6 41 9 48 7 7 -3 5 -6 -5 -6 -26 -1 -22 -18 5 -23 12 -2 54 -1 92 2
54 4 64 7 43 12 -14 5 -39 5 -55 2 -24 -5 -36 0 -64 25 l-33 31 26 0 c26 0 53
-22 41 -33 -3 -4 28 -7 70 -7 69 0 99 -11 65 -23 -7 -2 34 -2 92 1 58 2 109 7
113 12 4 4 -52 10 -125 14 -147 8 -194 24 -73 24 76 1 120 11 54 13 l-34 1 39
8 c29 5 44 4 54 -6 15 -16 68 -19 76 -5 3 5 0 14 -8 20 -16 14 -229 6 -234 -9
-2 -5 -10 -10 -18 -10 -9 0 -12 4 -9 10 3 6 0 10 -8 10 -8 0 -24 8 -36 18 -17
14 -25 45 -46 185 -14 92 -25 179 -25 192 0 27 8 44 155 330 125 242 135 262
135 273 0 6 22 57 49 113 224 478 259 655 180 920 -33 112 -62 174 -122 264
-49 73 -194 220 -228 230 -51 16 -149 65 -149 75 0 6 -4 9 -10 5 -5 -3 -17 -2
-27 3 -57 29 -99 35 -268 38 -131 2 -195 0 -235 -11z m450 -60 c112 -30 223
-81 265 -121 l30 -28 -35 -6 c-19 -4 -44 -10 -56 -13 -23 -8 -124 51 -181 106
-18 17 -35 28 -38 25 -7 -6 101 -94 154 -126 l35 -21 -28 -10 c-15 -6 -39 -14
-54 -17 -123 -28 -395 -113 -510 -159 l-87 -36 -18 23 c-74 95 -182 217 -185
209 -2 -5 38 -59 87 -119 50 -60 91 -112 91 -116 0 -16 -27 -2 -79 42 -31 27
-87 70 -126 97 -38 27 -72 51 -75 53 -11 9 132 113 207 151 200 100 395 122
603 66z m333 -189 c19 -15 23 -31 5 -20 -7 4 -9 3 -5 -1 4 -5 15 -10 23 -11
22 -3 49 -44 46 -69 -2 -12 8 -31 25 -45 17 -16 22 -18 13 -6 -9 12 -10 17 -3
12 7 -4 18 -16 24 -28 8 -15 8 -19 0 -14 -6 4 -11 2 -11 -4 0 -6 7 -13 15 -16
10 -4 13 -13 10 -25 -4 -11 -2 -19 5 -19 6 0 9 -4 6 -9 -9 -14 4 -41 19 -41 8
0 17 -5 21 -12 5 -8 1 -9 -12 -5 -17 6 -17 6 -3 -5 26 -21 37 -50 47 -128 11
-83 5 -330 -9 -367 -12 -31 -23 -29 -53 10 -27 36 -132 240 -146 285 -11 34
-29 81 -119 303 -39 97 -71 179 -71 182 0 8 111 43 145 46 6 0 18 -6 28 -13z
m-213 -58 c0 -13 -7 -88 -15 -167 -8 -79 -14 -188 -14 -242 0 -54 -4 -106 -10
-117 -6 -10 -12 -41 -15 -68 -6 -56 -28 -115 -50 -134 -9 -7 -16 -18 -16 -26
0 -17 -84 -104 -102 -104 -8 0 -19 -5 -25 -11 -6 -6 -63 -15 -127 -21 -115 -9
-117 -9 -160 16 -60 35 -116 110 -116 155 0 20 -8 49 -18 65 -14 23 -16 41
-11 95 11 109 21 154 30 139 7 -11 9 -11 9 1 0 11 3 11 16 0 13 -11 14 -9 9
13 -5 20 -2 26 14 31 15 4 21 13 21 34 0 19 3 24 9 14 6 -9 11 -10 15 -2 4 6
4 16 0 23 -5 7 -2 9 9 5 8 -3 21 0 27 8 21 25 100 55 147 55 62 0 173 -20 173
-31 0 -5 3 -8 8 -6 4 1 19 -9 32 -22 14 -13 18 -20 10 -16 -8 5 -2 -5 13 -21
16 -16 41 -58 57 -94 16 -36 30 -63 31 -60 10 47 7 66 -18 111 -38 71 -122
145 -185 164 -162 48 -363 -20 -419 -141 -91 -201 -72 -368 56 -499 68 -70
126 -89 247 -83 73 5 95 10 128 32 65 43 81 32 29 -19 -47 -45 -151 -205 -135
-205 3 0 24 28 47 63 23 34 52 74 63 89 12 14 31 39 43 55 12 15 33 42 48 58
99 114 135 189 135 283 0 54 -6 55 142 -41 62 -41 136 -88 165 -106 43 -27 71
-57 61 -66 -2 -2 -103 -53 -224 -114 -122 -60 -290 -151 -374 -201 -84 -50
-158 -89 -165 -87 -7 3 -27 32 -45 64 -18 32 -66 92 -106 134 -41 41 -74 81
-74 87 0 7 -5 12 -11 12 -5 0 -8 4 -4 10 6 9 -45 87 -97 148 -32 38 -35 52
-10 53 14 0 13 3 -5 16 -13 8 -23 22 -23 29 0 8 -5 14 -11 14 -5 0 -7 5 -3 11
3 6 14 9 24 6 16 -4 18 2 16 49 -1 30 2 54 6 54 5 0 6 5 3 10 -4 6 -2 16 3 23
5 7 13 26 17 44 13 65 67 189 93 216 34 35 52 43 287 123 105 35 219 75 255
89 81 30 90 30 90 3z m-895 -8 c15 -17 174 -136 229 -172 7 -5 3 -17 -10 -35
-12 -16 -32 -49 -44 -73 -26 -51 -95 -258 -106 -316 -8 -49 -20 -62 -119 -138
-44 -33 -99 -78 -122 -99 -23 -21 -46 -36 -52 -33 -7 5 -18 44 -26 96 0 3 -5
12 -10 20 -6 8 -10 71 -11 140 -1 132 2 142 68 345 16 50 54 134 84 188 60
105 81 119 119 77z m945 -82 c44 -98 95 -223 135 -333 20 -55 59 -142 86 -194
28 -51 48 -95 46 -97 -1 -2 -60 35 -130 82 -70 46 -144 93 -165 104 l-38 20
13 157 c6 87 12 195 12 241 1 45 3 82 7 82 3 0 18 -28 34 -62z m-818 -670 c73
-109 149 -210 212 -283 34 -38 72 -85 85 -104 21 -30 22 -33 5 -27 -10 5 -41
16 -69 26 -27 10 -104 44 -170 75 -66 31 -178 82 -249 111 -72 30 -132 56
-134 58 -2 2 29 28 68 57 38 30 98 75 133 101 34 26 65 48 69 48 4 0 26 -28
50 -62z m1143 -126 c-12 -26 -31 -65 -40 -87 -56 -125 -84 -185 -152 -320 -41
-82 -80 -157 -87 -165 -13 -18 -42 -77 -91 -187 -32 -75 -73 -156 -149 -298
-15 -27 -33 -53 -41 -58 -8 -4 -12 -14 -9 -22 4 -8 1 -15 -6 -15 -6 0 -9 -4
-6 -9 3 -4 -3 -16 -14 -26 -10 -9 -27 -40 -36 -67 -10 -32 -23 -52 -35 -55
-11 -3 -19 -10 -19 -15 0 -5 5 -6 10 -3 6 3 10 2 10 -4 0 -5 -6 -12 -12 -14
-10 -4 -10 -8 -1 -14 8 -6 8 -13 -3 -27 -7 -11 -17 -17 -20 -13 -4 4 -8 111
-10 239 -2 210 -1 234 15 257 21 29 61 115 61 128 -1 4 -17 -23 -36 -60 -19
-38 -39 -65 -45 -61 -25 15 12 142 56 194 7 8 27 40 44 70 32 57 21 46 -49
-47 -22 -29 -40 -59 -40 -67 0 -8 -4 -18 -10 -21 -15 -9 -23 39 -18 110 2 36
1 65 -3 65 -8 0 -2 77 7 91 2 4 0 10 -5 13 -5 4 -9 36 -8 73 l2 67 45 27 c213
131 438 252 451 243 5 -3 19 2 31 10 12 9 30 16 39 16 9 0 24 9 33 19 10 11
29 22 42 25 13 4 33 15 44 26 11 11 26 17 35 14 9 -4 15 -3 14 2 -3 18 1 23
15 18 12 -5 10 -14 -9 -52z m-1369 -83 c111 -52 311 -139 429 -188 169 -70
160 -64 160 -123 0 -29 6 -159 14 -288 12 -222 29 -652 26 -658 -6 -8 -35 13
-35 25 0 8 -25 56 -56 106 -31 51 -65 107 -75 125 -47 81 -64 111 -92 162 -60
108 -220 385 -237 410 -9 14 -52 95 -95 180 -42 85 -81 160 -85 165 -16 23
-58 125 -51 125 5 0 48 -19 97 -41z"/>
<path d="M11897 5843 c-19 -56 -75 -286 -112 -463 -30 -146 -34 -162 -76 -340
-17 -74 -36 -139 -40 -145 -5 -5 -9 -19 -9 -32 0 -13 -4 -23 -9 -23 -4 0 -7
12 -5 28 4 26 3 25 -11 -6 -9 -19 -16 -49 -17 -68 -1 -19 -5 -37 -10 -40 -4
-3 -5 -10 -2 -16 4 -6 10 -5 15 3 7 11 9 10 9 -3 0 -25 -11 -49 -21 -43 -5 3
-11 -7 -15 -22 -3 -15 -8 -34 -10 -42 -4 -12 -2 -12 13 0 15 12 16 12 8 -1 -4
-8 -17 -25 -28 -37 -11 -13 -16 -23 -10 -23 6 0 14 6 16 13 20 50 -25 -166
-59 -283 -9 -30 -20 -80 -24 -112 -4 -31 -10 -60 -14 -66 -3 -5 -19 -78 -36
-163 -31 -153 -49 -210 -50 -159 0 14 11 70 24 125 41 167 55 236 71 340 9 55
20 108 26 118 5 9 5 17 1 17 -5 0 -7 26 -5 58 2 48 1 52 -7 27 -5 -16 -12 -61
-15 -100 -7 -86 -13 -123 -31 -172 -18 -52 -18 -14 0 74 8 37 17 106 20 153 3
47 5 86 5 87 1 1 7 0 15 -3 11 -4 13 4 9 41 -3 32 -1 45 6 40 6 -3 11 -1 11 5
0 6 -8 10 -17 8 -14 -3 -18 -13 -17 -43 1 -22 0 -32 -3 -22 -2 9 -11 17 -19
17 -10 0 -12 5 -7 13 4 6 9 21 10 32 7 45 35 181 40 195 3 8 5 19 4 24 -1 5 5
6 14 3 11 -5 15 0 15 16 0 13 5 28 12 35 6 6 12 24 13 39 2 15 6 37 10 48 6
17 5 17 -5 5 -19 -25 -4 96 36 285 56 268 87 436 99 540 5 45 4 48 -9 35 -19
-19 -120 -455 -142 -610 -17 -126 -46 -273 -76 -390 -68 -263 -91 -356 -109
-445 -11 -55 -38 -170 -59 -255 -21 -85 -41 -173 -44 -195 -9 -52 -38 -179
-80 -340 -57 -220 -89 -409 -82 -476 7 -61 -5 -118 -31 -150 -11 -13 -11 -18
0 -27 17 -14 27 -6 27 22 1 12 7 32 14 45 13 24 14 24 21 -20 4 -24 14 -56 21
-71 8 -15 14 -40 14 -56 0 -16 7 -35 15 -42 8 -7 15 -20 15 -29 0 -29 57 -48
120 -40 30 4 98 8 150 9 66 2 86 5 65 10 -18 4 18 7 93 7 69 0 122 -4 122 -9
0 -6 86 -7 225 -2 211 6 225 6 231 -11 7 -17 8 -16 16 4 7 19 13 21 42 16 20
-4 36 -2 40 4 5 7 -4 11 -24 11 -35 0 -35 -1 -8 97 11 40 14 42 57 48 26 3 91
-1 146 -10 106 -16 226 -19 338 -8 111 10 78 25 -50 22 -94 -3 -117 -1 -115
10 2 10 -11 12 -55 11 -32 -2 -111 -2 -175 -2 l-118 2 0 29 c0 35 21 54 52 48
20 -4 20 -4 -4 -6 -52 -2 -28 -18 45 -30 65 -11 294 -8 422 4 22 2 83 7 135
10 263 19 295 23 120 18 -96 -3 -206 -7 -245 -9 -137 -7 -387 -4 -403 6 -12 6
38 10 153 11 94 1 178 1 188 0 9 -1 17 3 17 8 0 7 -60 11 -182 11 -130 0 -179
3 -171 11 6 6 54 10 119 10 71 0 104 3 94 9 -23 14 -9 17 60 11 36 -3 137 -4
225 -1 88 3 142 7 120 8 -22 2 -58 5 -80 7 -62 6 -562 14 -547 8 6 -3 12 -8
12 -13 0 -11 -40 -25 -59 -21 -12 2 -13 0 -2 -13 11 -13 9 -15 -16 -13 -23 2
-29 6 -27 22 1 11 3 20 4 20 1 0 4 20 6 45 6 68 10 93 22 121 5 14 11 41 13
60 2 19 5 38 8 44 6 12 7 20 16 120 4 44 10 85 15 90 4 6 15 49 25 98 l18 87
36 -4 c20 -3 172 -5 337 -5 l302 -1 7 -45 c3 -25 12 -51 19 -58 11 -10 11 -14
-1 -22 -12 -9 -12 -15 -1 -40 7 -17 19 -35 27 -41 10 -8 11 -13 3 -18 -7 -4
-12 -19 -11 -34 l1 -27 8 25 8 25 1 -27 c1 -14 -3 -28 -9 -30 -5 -1 -6 -14 -3
-28 l7 -25 7 25 c5 16 6 8 3 -20 -3 -25 0 -65 6 -90 6 -25 17 -84 25 -132 14
-95 14 -95 62 -155 19 -23 33 -48 31 -55 -3 -12 91 -118 104 -118 2 0 3 15 0
33 -3 20 -26 59 -61 102 -66 82 -107 145 -93 145 5 0 12 -7 16 -15 3 -8 12
-15 21 -15 17 0 20 16 5 25 -7 4 -7 13 0 26 12 22 32 16 29 -9 -4 -25 21 -131
32 -137 12 -8 11 2 -1 45 -13 42 -20 160 -10 160 7 0 28 -88 34 -140 2 -14 12
-59 24 -100 11 -41 22 -100 24 -130 2 -36 9 -59 19 -67 9 -7 52 -12 105 -12
49 -1 98 -1 109 -1 11 0 90 2 175 5 85 3 267 2 404 -2 l250 -8 8 -35 c12 -50
50 -151 55 -147 2 2 -4 31 -12 63 -9 32 -18 77 -21 99 -4 35 -44 203 -75 318
-6 22 -8 41 -6 44 3 2 -1 16 -8 30 -14 27 -48 168 -84 348 -11 55 -40 187 -65
293 -24 105 -42 200 -39 210 2 11 -4 34 -15 53 -10 19 -24 66 -31 104 -6 39
-16 84 -21 100 -18 60 -23 118 -10 110 9 -6 10 3 5 36 -8 49 -25 77 -19 32 3
-25 3 -25 -8 5 -8 23 -8 36 -1 40 7 5 7 15 1 32 -6 14 -12 39 -14 56 -1 18
-10 55 -20 83 -9 28 -14 60 -11 72 3 11 0 22 -7 25 -6 2 -13 23 -13 46 -1 23
-7 45 -14 49 -6 3 -9 11 -5 17 3 6 2 13 -3 16 -5 3 -12 27 -17 53 -4 27 -9 55
-11 63 -1 8 -9 49 -17 90 -8 41 -19 93 -25 115 -5 22 -17 72 -25 110 -8 39
-22 93 -31 120 -9 28 -36 129 -61 225 -25 96 -47 176 -49 178 -2 2 -9 1 -15
-3 -8 -5 -8 -10 0 -20 7 -9 8 -15 1 -20 -13 -7 -2 -97 12 -106 5 -4 7 -14 4
-23 -4 -9 -2 -16 4 -16 6 0 7 -4 4 -10 -3 -5 -3 -16 2 -22 4 -7 8 -34 9 -60 2
-25 8 -57 15 -70 7 -12 13 -35 15 -51 1 -15 7 -34 14 -42 6 -8 9 -19 5 -25 -4
-6 -2 -16 4 -23 5 -7 12 -26 15 -42 10 -54 28 -130 37 -150 9 -24 28 -114 35
-169 3 -22 7 -43 9 -46 2 -4 6 -29 9 -56 6 -48 5 -49 -9 -19 -8 17 -14 39 -15
49 0 11 -3 16 -6 13 -6 -6 9 -77 24 -117 3 -8 6 -17 7 -20 1 -3 5 -33 10 -68
4 -35 14 -69 21 -76 7 -8 11 -16 8 -19 -10 -10 8 -98 23 -113 8 -8 12 -22 9
-31 -4 -9 -2 -19 4 -23 6 -4 12 -21 12 -38 1 -18 4 -32 7 -32 4 0 7 -12 6 -27
0 -16 6 -41 13 -56 8 -15 11 -34 8 -42 -3 -8 -2 -15 3 -15 4 0 15 -35 24 -77
9 -43 26 -123 38 -178 18 -88 38 -173 94 -410 8 -33 33 -143 56 -245 68 -304
88 -391 95 -402 4 -6 10 -24 14 -42 4 -17 11 -39 15 -48 7 -17 -16 -18 -381
-19 -214 0 -398 -1 -409 -1 -11 -1 -59 -1 -106 0 l-86 2 -17 93 c-10 50 -24
126 -32 167 -14 69 -33 194 -35 230 0 8 -4 35 -9 60 -5 25 -11 65 -14 90 -2
25 -16 101 -30 170 -14 69 -26 139 -26 157 0 36 -14 50 -34 34 -10 -8 -51 -9
-147 -1 -74 5 -165 10 -202 10 -38 0 -66 4 -63 8 3 4 -28 9 -67 11 -80 2 -197
-8 -197 -18 0 -3 39 -5 87 -4 60 1 80 -1 63 -6 -38 -13 -144 -13 -158 1 -9 9
-20 9 -49 -1 -21 -6 -61 -13 -89 -14 -45 -2 -83 -20 -77 -37 3 -7 -43 -160
-78 -260 -48 -134 -124 -450 -109 -450 5 0 22 61 40 135 18 74 36 137 40 140
4 3 2 -19 -5 -47 -7 -29 -20 -96 -30 -148 -9 -52 -21 -102 -26 -111 -5 -9 -11
-48 -13 -85 -3 -38 -9 -82 -14 -99 -8 -29 -10 -30 -78 -31 -91 -1 -234 13
-249 26 -8 6 -15 6 -23 -2 -7 -7 -12 -8 -12 -2 0 5 -116 9 -300 8 -165 -1
-300 1 -300 5 0 3 15 69 34 146 97 396 126 526 121 535 -3 5 -1 11 5 15 6 4 8
11 4 16 -3 5 -1 16 5 23 6 7 12 31 14 52 1 22 5 41 8 44 12 10 22 53 10 46
-15 -9 -14 3 3 52 8 22 17 60 20 84 10 78 22 142 33 178 11 32 27 104 37 156
3 12 9 39 15 60 6 21 8 40 6 43 -3 2 4 10 15 18 24 17 26 33 5 33 -8 0 -15 4
-15 10 0 5 6 7 14 4 16 -6 40 31 31 46 -3 6 -3 16 1 22 5 7 10 31 12 53 2 22
7 44 12 50 12 14 16 87 6 103 -4 7 -3 12 3 12 11 0 27 64 22 93 -1 9 2 17 6
17 5 0 10 12 11 28 1 15 6 28 12 30 5 2 6 10 3 19 -3 8 -1 18 4 22 14 9 26 61
13 61 -6 0 -7 6 -1 18 25 50 34 73 29 78 -4 3 -2 20 3 37 5 18 12 50 15 72 3
22 9 49 13 60 5 11 26 97 46 190 21 94 43 189 51 212 7 23 15 68 18 100 2 32
11 85 20 118 18 68 19 75 8 75 -4 0 -16 -21 -25 -47z"/>
<path d="M6318 3109 c-9 -5 -45 -44 -79 -87 -34 -42 -69 -85 -78 -96 -15 -17
-15 -18 3 -15 10 2 21 -2 24 -10 3 -9 -1 -11 -16 -7 -11 4 -23 2 -26 -3 -8
-12 111 -13 151 -1 15 4 22 9 15 9 -7 1 -10 6 -7 11 3 6 17 7 31 4 14 -4 24
-2 24 5 0 15 -44 24 -83 17 -30 -5 -68 7 -56 18 3 4 297 14 464 16 6 0 3 5 -5
10 -8 5 -62 10 -119 10 -57 0 -101 3 -97 7 9 10 10 10 124 11 59 1 91 6 87 12
-3 6 -40 10 -81 10 -43 0 -74 4 -74 10 0 6 31 10 72 10 69 0 85 6 37 15 -48 9
-180 12 -223 5 -25 -4 -50 -4 -56 0 -15 9 48 19 125 21 33 1 74 5 90 9 26 7
22 8 -25 10 -30 1 -89 4 -130 6 -41 2 -83 -1 -92 -7z"/>
<path d="M15920 2875 c0 -33 50 -39 333 -42 152 -2 277 0 277 5 0 15 -84 29
-114 19 -21 -7 -31 -6 -37 4 -8 12 -11 12 -18 -1 -8 -12 -15 -12 -44 -2 -38
14 -63 15 -32 2 16 -7 12 -9 -18 -9 -25 -1 -36 3 -31 10 4 7 -3 6 -17 -2 -13
-7 -26 -11 -29 -9 -23 15 -70 28 -70 20 0 -5 -5 -10 -11 -10 -6 0 -9 7 -5 15
4 13 -9 15 -89 15 -78 0 -95 -3 -95 -15z"/>
<path d="M12653 2866 c-6 -10 -22 -12 -73 -5 -35 4 -67 6 -71 4 -3 -2 -49 -5
-102 -6 -54 -2 -97 -6 -97 -11 0 -4 14 -8 30 -8 17 0 30 -5 30 -11 0 -13 319
-11 435 3 44 5 93 9 108 8 19 0 27 4 25 12 -5 15 -35 17 -60 6 -16 -8 -135
-11 -188 -5 -14 2 -24 8 -22 15 3 16 -5 15 -15 -2z"/>
</g>
</svg>
