<?xml version="1.0" standalone="no"?>
<!DOCTYPE svg PUBLIC "-//W3C//DTD SVG 20010904//EN"
 "http://www.w3.org/TR/2001/REC-SVG-20010904/DTD/svg10.dtd">
<svg version="1.0" xmlns="http://www.w3.org/2000/svg"
 width="1928.000000pt" height="1074.000000pt" viewBox="0 0 1928.000000 1074.000000"
 preserveAspectRatio="xMidYMid meet">
<metadata>
Created by potrace 1.16, written by Peter Selinger 2001-2019
</metadata>
<g transform="translate(0.000000,1074.000000) scale(0.100000,-0.100000)"
fill="#000000" stroke="none">
<path d="M14550 8025 c0 -4 11 -23 25 -41 33 -43 32 -52 -7 -57 -31 -4 -31 -4
6 -5 36 -2 38 -3 33 -29 -9 -47 -18 -1055 -20 -2213 -1 -608 -5 -1110 -10
-1117 -4 -6 -3 -14 2 -17 7 -5 8 -200 3 -466 0 -8 2 -116 4 -240 10 -569 9
-690 -3 -690 -20 0 -15 -11 19 -42 30 -26 31 -29 13 -41 -17 -13 -17 -14 1
-21 15 -6 16 -9 5 -15 -10 -7 -7 -13 15 -27 47 -30 106 -92 99 -103 -4 -7 4
-11 19 -11 21 0 30 -12 60 -71 29 -58 36 -83 36 -130 0 -33 4 -59 9 -59 5 0 9
20 9 45 0 24 5 59 11 77 l11 33 107 -3 c131 -3 173 -9 174 -25 0 -7 4 -3 9 8
5 11 9 14 9 8 1 -15 286 -9 410 8 40 6 99 10 130 9 135 -5 286 1 271 10 -8 5
-42 9 -75 8 -50 -1 -61 3 -73 21 -17 24 -32 28 -32 6 0 -9 -9 -15 -22 -15 -17
0 -19 3 -10 12 7 7 12 42 12 85 0 86 -20 81 202 57 83 -8 159 -14 171 -12 12
2 -7 7 -43 12 -36 4 -90 12 -120 18 -30 7 -89 12 -130 12 -71 1 -75 2 -78 24
-3 21 -1 23 30 17 18 -3 63 -7 100 -8 38 -1 68 -5 68 -9 0 -5 -6 -8 -12 -9 -7
0 -2 -4 12 -8 14 -5 92 -9 173 -10 195 -3 268 -7 297 -16 25 -8 25 -7 7 13
-14 15 -15 22 -6 28 7 4 21 -2 33 -17 12 -14 31 -31 42 -39 36 -25 164 -145
164 -152 0 -5 -27 -8 -60 -8 -33 0 -60 -4 -60 -10 0 -12 5 -13 90 -14 l64 -1
37 -76 c21 -43 42 -80 48 -84 13 -7 2 24 -29 84 -24 48 -25 61 -5 61 8 0 33
-25 56 -55 23 -30 46 -55 51 -55 5 0 -1 14 -14 31 -59 79 -74 71 128 63 98 -4
212 -7 252 -7 l72 0 0 -58 c0 -79 18 -76 22 4 l3 62 37 -3 c23 -2 43 2 52 11
9 9 40 15 85 16 l71 2 1 -68 c1 -37 1 -75 0 -85 -1 -9 3 -19 9 -23 7 -4 10 24
10 84 l0 91 38 2 c20 1 51 1 69 -1 17 -1 34 3 38 9 4 6 -7 10 -27 10 -18 0
-50 3 -72 7 l-38 6 6 66 c10 103 16 740 7 745 -4 3 -5 28 -1 56 12 95 12 342
0 335 -7 -4 -11 -29 -10 -59 2 -28 1 -89 0 -136 l-2 -85 -9 55 c-5 30 -6 118
-3 195 4 77 8 196 9 265 1 69 7 145 13 170 16 69 22 698 9 945 -4 83 -9 614
-11 1180 -2 567 -5 1037 -7 1045 -3 11 4 14 29 12 40 -4 42 13 2 22 -17 3 -30
12 -30 20 0 8 -10 18 -21 21 -20 7 -67 46 -189 160 -25 23 -67 57 -94 76 -26
19 -57 40 -67 48 -17 12 -19 11 -19 -3 0 -21 111 -134 170 -174 25 -16 65 -50
90 -75 24 -25 47 -42 50 -36 4 5 15 0 26 -12 11 -13 13 -19 4 -14 -8 5 -33 10
-55 11 -22 1 -101 5 -175 8 -74 4 -266 2 -427 -4 l-291 -11 -131 132 c-72 73
-131 133 -131 134 0 0 174 -1 387 -3 291 -3 397 -1 425 9 21 7 38 16 38 20 0
4 -37 9 -82 12 -100 7 -633 -2 -737 -11 l-74 -7 -2 -50 c-2 -27 -6 -106 -11
-175 -10 -134 -10 -144 -3 -818 3 -362 2 -441 -9 -437 -10 4 -12 -8 -9 -51 6
-71 -3 -57 -44 66 -18 52 -44 120 -59 150 -15 30 -48 114 -73 185 -73 208 -83
234 -132 345 -26 58 -57 134 -70 170 -34 95 -105 264 -116 274 -18 20 -10 38
13 30 20 -6 21 -5 9 10 -7 9 -21 16 -30 16 -9 0 -32 21 -51 46 -19 25 -48 61
-63 79 -16 19 -26 39 -22 45 3 5 1 10 -6 10 -13 0 -88 80 -89 96 0 5 -14 23
-31 40 l-31 29 8 -30 c4 -16 23 -55 43 -86 46 -73 172 -219 189 -219 6 0 12
-4 12 -8 0 -11 -708 -3 -743 8 -17 6 -26 6 -22 0 4 -6 -18 -10 -54 -10 -70 0
-87 13 -152 120 -21 36 -55 82 -74 104 -19 21 -33 41 -31 45 2 3 58 3 123 -1
220 -13 712 -14 702 -2 -13 16 -153 23 -553 30 l-328 5 -35 42 c-45 53 -43 52
-43 42z m2062 -451 c2 -46 -12 -247 -18 -253 -15 -16 -25 33 -35 164 -8 104
-15 155 -25 165 -13 13 -14 7 -8 -45 4 -33 11 -66 17 -72 6 -9 6 -13 -2 -13
-6 0 -11 -17 -11 -40 0 -22 4 -40 9 -40 15 0 25 -100 12 -113 -9 -9 -14 -8
-21 3 -8 12 -10 10 -10 -8 0 -12 5 -21 13 -20 9 2 13 -24 17 -97 6 -118 22
-103 19 17 -2 81 2 95 20 83 7 -4 11 -72 11 -196 0 -161 -2 -189 -15 -189 -8
0 -15 -4 -15 -10 0 -5 7 -10 15 -10 14 0 16 -24 15 -177 -1 -98 -4 -188 -7
-200 -10 -44 -23 -22 -23 40 0 34 -4 69 -10 77 -6 9 -9 -9 -9 -54 0 -38 -5
-74 -10 -79 -8 -8 -11 0 -11 27 0 30 -3 37 -15 32 -8 -3 -14 -2 -14 2 8 52
-20 112 -53 112 -6 0 -4 -6 6 -13 10 -7 19 -29 21 -50 2 -20 6 -45 10 -56 3
-11 1 -22 -5 -26 -6 -4 -13 6 -16 24 -4 17 -9 29 -13 27 -4 -3 -7 12 -8 32 -1
20 -3 49 -6 64 -2 15 -1 26 3 23 3 -2 4 9 2 26 -2 16 -8 29 -12 29 -4 0 -7 34
-6 75 1 46 -3 74 -9 72 -6 -2 -10 -48 -10 -110 1 -117 -16 -123 -21 -8 -1 36
-5 87 -8 113 -3 26 -1 50 4 53 5 3 7 20 4 38 -3 17 -6 204 -8 414 -3 210 -7
387 -11 393 -3 5 -3 19 0 31 6 17 22 5 126 -99 109 -108 119 -122 121 -158z
m-1752 24 c0 -10 -5 -18 -11 -18 -5 0 -7 -4 -4 -10 7 -11 7 9 -1 -2050 -6
-1622 -6 -1626 -28 -1624 -14 2 -14 -1 -1 -27 18 -34 19 -53 3 -43 -10 6 -10
5 -1 -7 13 -16 12 -30 -5 -69 -10 -24 -11 -23 -13 15 -1 22 -2 47 -1 57 1 9
-5 21 -13 28 -12 10 -13 -1 -9 -72 2 -46 0 -114 -4 -151 -5 -38 -5 -70 0 -73
5 -3 7 -13 4 -22 -6 -20 -7 -88 -3 -200 2 -46 0 -85 -5 -88 -4 -3 -8 10 -9 28
0 47 -8 195 -17 321 -4 59 -4 114 1 123 5 9 4 20 -3 29 -8 10 -8 15 1 20 7 5
7 10 1 14 -5 3 -13 17 -17 30 -6 20 -4 23 9 18 10 -4 16 -1 16 8 0 9 -6 12
-15 9 -8 -4 -15 -1 -15 5 0 6 6 11 13 12 10 0 10 2 0 6 -7 2 -13 9 -13 14 0 6
5 7 10 4 6 -3 10 1 10 9 0 9 -6 16 -12 17 -10 0 -10 2 0 6 14 6 16 33 2 33 -5
0 -10 14 -10 30 0 17 -4 30 -8 30 -9 0 -9 -168 1 -405 4 -84 3 -124 -2 -100
-5 22 -12 99 -16 170 -3 72 -9 153 -12 180 -7 68 -6 331 2 366 4 19 3 29 -5
29 -7 0 -10 7 -6 16 4 9 1 23 -5 30 -8 10 -8 14 0 14 6 0 11 7 11 16 0 14 2
15 18 3 14 -11 14 -10 -2 8 -15 18 -16 26 -7 37 6 7 9 21 5 30 -4 11 -2 15 7
13 8 -2 11 -2 7 0 -5 3 -8 11 -8 18 0 7 -4 15 -10 17 -13 4 -22 88 -12 102 7
9 9 71 3 71 -1 0 -4 24 -6 53 -2 47 -1 51 14 40 14 -11 14 -11 4 3 -7 9 -10
18 -7 22 3 3 0 15 -6 27 -6 12 -8 29 -5 38 11 27 14 72 4 72 -5 0 -9 -4 -9
-10 0 -5 -4 -10 -10 -10 -5 0 -6 7 -3 17 4 11 3 14 -5 9 -7 -4 -12 -3 -12 2 0
6 7 12 15 16 8 3 15 1 15 -4 0 -6 4 -10 8 -10 4 0 8 8 8 19 0 19 -26 23 -38 6
-4 -5 -8 20 -8 58 0 38 4 67 10 67 6 0 10 10 9 23 0 21 -1 21 -9 2 -12 -27
-12 -25 -14 98 -2 89 0 107 12 102 8 -3 12 0 9 7 -2 7 -10 12 -17 10 -8 -2
-11 15 -8 63 1 36 1 65 -2 65 -9 0 -4 1340 5 1385 10 55 12 789 2 903 -5 60
-4 92 2 92 6 0 25 -21 43 -46 18 -25 43 -57 55 -70 45 -49 48 -62 49 -249 3
-230 3 -225 12 -225 4 0 9 95 9 210 l2 211 -87 107 -86 107 112 -110 c62 -60
112 -118 112 -127z m343 12 c8 -7 -72 -15 -215 -23 -20 -2 -41 -6 -45 -11 -9
-9 155 -3 332 13 104 9 428 25 469 23 10 -1 22 -5 26 -9 9 -10 30 -96 25 -101
-2 -2 -18 16 -36 42 -44 62 -50 49 -9 -16 59 -93 107 -190 165 -333 32 -77 60
-144 64 -150 9 -13 98 -244 158 -409 13 -38 43 -107 64 -151 5 -11 36 -101 68
-200 32 -99 77 -226 100 -282 22 -55 41 -107 41 -115 0 -7 9 -38 21 -68 12
-30 22 -62 24 -70 5 -20 130 -315 156 -367 26 -51 75 -110 84 -102 3 4 -6 41
-20 83 -23 67 -27 97 -31 244 -3 92 -5 178 -4 192 4 101 4 347 -1 345 -6 -4
-4 88 5 210 4 44 8 332 10 640 3 308 5 570 5 583 1 22 1 22 164 20 89 -2 235
1 323 6 l161 8 6 -33 c8 -55 13 -1801 9 -3558 -1 -431 0 -787 3 -791 2 -3 7
-102 10 -220 l5 -213 -37 6 c-21 4 -146 7 -279 8 -132 0 -245 4 -251 7 -5 4
-12 17 -15 30 -5 17 -2 22 13 22 10 0 24 -9 31 -20 7 -11 16 -20 19 -20 4 0 5
9 2 20 -3 11 -11 20 -17 20 -7 0 -22 9 -34 20 -12 11 -25 20 -31 20 -10 0 -21
24 -21 45 0 11 9 11 53 -1 28 -7 53 -14 54 -14 6 0 -30 60 -42 70 -8 7 -12 17
-8 24 4 8 3 8 -6 0 -10 -9 -10 -17 -2 -33 7 -12 16 -21 21 -21 6 0 10 -5 10
-10 0 -7 -8 -6 -22 1 -12 7 -34 12 -48 13 -17 1 -25 6 -24 18 1 10 -2 16 -6
13 -7 -4 -18 19 -26 55 -3 15 -63 183 -83 233 -6 16 -11 34 -11 42 0 8 -4 17
-10 20 -15 9 -53 99 -90 210 -18 55 -38 114 -45 130 -8 17 -25 64 -39 105 -22
66 -61 166 -99 253 -6 15 -15 27 -19 27 -5 0 -8 9 -8 20 0 11 -4 20 -10 20 -5
0 -10 4 -10 10 0 5 7 7 15 4 12 -5 11 3 -6 42 -30 70 -42 98 -44 104 -1 3 -8
19 -15 35 -7 17 -15 39 -16 50 -2 11 -19 56 -39 100 -52 116 -51 112 -85 210
-18 50 -38 99 -44 110 -7 11 -18 40 -25 65 -7 25 -28 83 -46 130 -96 242 -125
325 -121 336 3 7 2 15 -2 19 -7 7 -8 9 -12 48 -2 17 -3 18 -7 5 -2 -10 -8 -18
-12 -18 -12 0 -31 23 -31 39 0 9 -11 21 -25 28 l-25 11 22 -39 c12 -21 25 -39
30 -39 4 0 8 -7 8 -16 0 -14 -3 -14 -15 -4 -23 19 -29 5 -10 -24 14 -22 16
-42 11 -128 -3 -57 -6 -140 -5 -186 4 -757 -4 -2012 -14 -2029 -4 -6 -3 -22 2
-35 5 -13 10 -47 12 -77 l4 -53 -175 0 c-96 1 -290 1 -431 1 l-257 1 -6 43
c-6 38 -8 683 -6 1970 0 336 4 497 11 497 6 0 8 4 5 8 -9 15 -19 1849 -11
2033 7 167 8 178 29 188 13 7 14 10 3 6 -19 -5 -33 16 -24 39 5 11 33 13 154
9 81 -3 152 -9 156 -13z m2312 -1152 c3 -18 2 -67 -2 -108 -5 -42 -5 -91 -2
-110 4 -19 3 -39 -2 -44 -5 -6 -9 5 -9 30 0 37 -2 39 -31 41 -24 2 -30 -1 -25
-12 7 -18 -3 -45 -16 -45 -5 0 -6 6 -1 13 10 16 5 45 -13 73 -11 15 -14 44
-12 95 3 66 5 74 23 74 19 0 20 -5 16 -87 -3 -76 -1 -88 13 -88 13 0 16 12 14
78 -1 51 3 84 13 100 19 30 27 28 34 -10z m5 -298 c0 -5 -6 -10 -12 -13 -10
-3 -10 -9 -1 -25 9 -15 10 -29 3 -46 -5 -14 -6 -44 -2 -68 11 -74 7 -169 -9
-178 -28 -18 -34 11 -34 153 0 162 7 197 36 190 10 -3 19 -9 19 -13z m-29
-380 c5 0 9 5 9 10 0 6 3 10 8 10 4 0 7 -16 8 -35 0 -19 -3 -35 -8 -35 -5 0
-7 -4 -3 -9 3 -5 1 -12 -5 -16 -6 -4 -7 -13 -1 -24 5 -9 12 -88 14 -174 4
-133 3 -157 -10 -157 -8 0 -11 -5 -7 -12 4 -6 3 -8 -4 -4 -12 7 -20 -20 -14
-46 2 -10 12 -18 21 -19 9 0 12 -2 6 -5 -10 -4 -11 -213 -1 -240 3 -9 1 -12
-4 -9 -6 3 -10 2 -10 -4 0 -5 5 -11 12 -13 7 -3 11 -25 9 -62 -1 -46 2 -61 16
-72 16 -12 15 -13 -14 -10 -18 2 -33 -1 -33 -5 0 -5 7 -9 15 -9 11 0 14 -17
14 -88 0 -107 5 -124 36 -116 13 3 26 0 30 -6 5 -9 1 -10 -15 -5 -17 5 -21 3
-20 -12 1 -10 2 -27 1 -38 -1 -18 -2 -19 -12 -2 -5 9 -8 21 -5 26 3 5 -1 11
-9 14 -9 4 -12 1 -8 -9 3 -7 0 -14 -6 -14 -6 0 -11 7 -11 16 0 8 -4 13 -10 9
-5 -3 -7 -13 -4 -23 2 -9 -1 -6 -8 7 -10 19 -10 25 0 29 7 2 9 9 5 15 -9 15
-11 267 -1 267 3 0 9 -6 12 -12 4 -7 4 -2 2 11 -3 13 -1 32 4 42 7 13 5 22 -6
33 -12 12 -16 45 -18 156 -2 77 -6 143 -10 147 -3 3 -6 1 -6 -5 0 -7 -5 -12
-12 -12 -6 0 -4 7 5 18 10 10 17 24 17 32 0 7 6 18 14 24 17 13 29 103 16 111
-6 3 -10 -1 -10 -9 0 -9 -5 -16 -11 -16 -6 0 -9 7 -5 15 3 8 0 15 -6 15 -7 0
-7 4 1 13 13 17 18 216 5 226 -9 6 -14 20 -19 51 -1 8 0 9 2 2 3 -7 9 -10 14
-7 5 4 9 -4 10 -17 0 -15 3 -18 6 -8 3 8 11 18 17 22 7 4 4 13 -7 26 -9 10
-16 25 -16 33 1 9 3 7 6 -3 2 -10 9 -18 14 -18z m120 -176 c14 -247 17 -384 7
-384 -4 0 -8 33 -8 73 0 106 -11 227 -21 227 -5 0 -9 -7 -9 -15 0 -8 -9 -15
-20 -15 -19 0 -20 7 -20 91 l0 91 26 -6 c21 -6 25 -4 22 11 -2 10 -9 19 -16
19 -6 1 -17 2 -23 3 -5 0 -7 6 -4 11 4 6 15 8 26 5 17 -6 19 -1 19 41 0 104
11 27 21 -152z m-1785 -966 c15 -46 49 -132 76 -193 26 -60 48 -116 48 -125 0
-8 12 -40 26 -70 24 -52 111 -284 155 -415 12 -33 41 -112 66 -175 25 -63 47
-129 48 -147 2 -17 17 -60 33 -95 38 -80 105 -259 99 -265 -3 -2 -23 15 -46
39 -22 24 -41 38 -41 32 0 -5 13 -23 30 -39 19 -18 26 -32 21 -39 -6 -7 1 -12
22 -13 18 -1 37 -10 42 -19 6 -9 23 -32 38 -50 31 -36 21 -54 -17 -29 -24 16
-24 16 -19 -6 4 -16 2 -20 -8 -17 -8 3 -14 11 -14 19 0 23 -37 28 -274 34
-124 3 -245 8 -268 11 l-42 5 0 537 c0 295 -4 664 -7 820 -4 155 -4 282 -1
282 3 0 18 -37 33 -82z m349 -469 c-3 -9 1 -19 9 -22 15 -6 58 -93 70 -142 4
-16 25 -67 47 -113 22 -45 37 -87 34 -92 -3 -6 -1 -10 5 -10 7 0 9 -8 5 -21
-5 -15 -4 -19 4 -15 6 4 11 1 11 -7 0 -8 14 -41 30 -75 19 -37 29 -70 26 -85
-2 -14 2 -35 11 -46 8 -12 13 -29 11 -39 -2 -11 -11 -2 -25 28 -48 101 -81
179 -107 250 -16 41 -43 111 -61 155 -19 44 -40 101 -47 128 -6 26 -16 47 -20
47 -4 0 -8 8 -8 18 0 10 -4 22 -9 28 -5 5 -12 19 -16 32 -6 22 -5 22 14 10 13
-8 19 -19 16 -29z m1309 -30 c-2 -4 0 -19 6 -33 6 -17 6 -35 0 -51 -9 -24 2
-36 15 -15 10 17 25 11 25 -9 0 -11 5 -23 10 -26 6 -3 10 -1 10 4 0 6 7 11 15
11 12 0 15 -16 15 -80 0 -82 -6 -92 -40 -70 -11 7 -14 24 -13 65 2 43 0 55
-12 55 -12 0 -15 -15 -15 -75 0 -68 10 -95 23 -62 3 7 6 7 6 1 1 -6 -7 -21
-18 -33 -33 -37 -39 -8 -39 177 1 95 5 168 9 161 4 -7 6 -16 3 -20z m-2833
-266 c1 -21 1 -54 0 -73 0 -19 -1 -147 -1 -285 0 -232 2 -282 16 -375 6 -34 6
-35 -14 -16 -12 10 -21 25 -21 34 0 10 -2 168 -4 353 -2 184 -2 350 1 367 6
44 22 40 23 -5z m2844 -140 c-2 -25 5 -29 21 -13 6 6 10 1 12 -16 1 -19 -2
-25 -12 -21 -18 7 -30 -23 -15 -37 9 -8 10 -7 6 7 -9 23 5 22 21 -3 14 -23 35
-18 50 13 8 17 10 3 8 -61 -2 -45 -6 -85 -10 -89 -3 -3 -6 -17 -6 -30 0 -17
-6 -23 -21 -23 -20 0 -21 5 -18 80 2 43 0 82 -4 87 -16 15 -25 -22 -26 -99 -1
-50 -6 -87 -15 -99 -13 -19 -13 -19 -13 6 0 14 3 25 8 25 6 0 4 94 -3 185 -1
6 2 20 6 33 4 12 4 22 -1 22 -7 0 -9 42 -4 80 4 24 19 -21 16 -47z"/>
<path d="M16747 7323 c-4 -3 -7 -55 -7 -115 l0 -108 47 0 c48 0 51 15 5 22
-23 3 -24 7 -25 93 l-2 90 35 -1 35 -1 3 -92 c2 -72 6 -91 17 -91 12 0 15 19
15 99 l0 98 -37 7 c-49 8 -78 8 -86 -1z"/>
<path d="M17137 7324 c-4 -4 -4 -34 -1 -68 4 -45 3 -57 -5 -46 -8 12 -11 8
-11 -18 0 -20 4 -31 10 -27 6 3 10 2 10 -4 0 -5 -6 -11 -12 -14 -10 -4 -10 -7
0 -18 12 -13 115 -20 126 -8 2 2 2 50 -1 107 l-6 102 -52 0 c-28 0 -55 -3 -58
-6z"/>
<path d="M16752 6922 c-9 -6 -12 -37 -10 -118 3 -106 4 -109 27 -112 13 -2 39
-1 58 3 l34 6 -3 112 -3 112 -45 3 c-25 1 -51 -2 -58 -6z"/>
<path d="M17136 6922 c-2 -4 -6 -54 -7 -112 l-3 -104 34 -7 c20 -4 46 -2 62 4
29 12 29 12 31 114 2 94 1 102 -18 107 -30 8 -93 7 -99 -2z"/>
<path d="M16740 6385 l0 -115 43 0 c89 0 88 -1 85 119 l-3 106 -62 3 -63 3 0
-116z"/>
<path d="M16768 5703 c-24 -6 -26 -18 -24 -128 1 -112 1 -112 82 -100 l44 6 0
108 0 109 -31 6 c-33 6 -44 6 -71 -1z"/>
<path d="M16960 5701 c-24 -7 -25 -9 -28 -113 l-3 -107 45 -6 c78 -12 86 -1
86 120 0 93 -2 105 -17 105 -10 0 -27 2 -38 4 -11 3 -31 1 -45 -3z m82 -37 c2
-9 2 -52 0 -95 l-4 -79 -44 0 -44 0 0 88 c0 49 3 92 7 95 3 4 23 7 44 7 26 0
38 -5 41 -16z"/>
<path d="M17149 5703 c-12 -3 -18 -21 -23 -71 -10 -114 -8 -140 13 -152 23
-12 81 -13 98 -2 7 4 12 46 14 111 3 96 1 105 -17 112 -21 8 -59 9 -85 2z"/>
<path d="M16765 5271 l-30 -7 3 -104 c2 -58 7 -109 12 -114 5 -5 33 -5 64 -2
l55 7 0 110 c1 97 -1 109 -17 109 -9 0 -26 2 -37 4 -11 2 -33 1 -50 -3z m83
-118 l3 -93 -52 0 -52 0 5 86 c5 94 12 106 63 102 l30 -3 3 -92z"/>
<path d="M16937 5274 c-4 -4 -7 -56 -7 -115 0 -123 3 -127 86 -114 l45 6 -3
112 -3 112 -55 3 c-31 2 -59 0 -63 -4z m95 -26 c3 -7 5 -51 4 -98 l-1 -85 -37
-3 -38 -3 0 85 c0 47 0 89 -1 94 0 7 32 19 57 21 7 1 14 -5 16 -11z"/>
<path d="M17158 5273 l-28 -4 0 -109 c0 -122 1 -124 75 -113 l45 6 0 108 c0
81 -3 109 -12 109 -7 0 -22 2 -33 4 -11 2 -32 1 -47 -1z"/>
<path d="M16550 4740 c0 -100 2 -110 18 -110 17 0 18 10 18 94 -1 86 1 95 18
100 11 3 23 3 27 1 4 -3 5 -42 2 -87 -4 -82 4 -117 26 -104 7 5 11 46 11 112
l0 104 -60 0 -60 0 0 -110z"/>
<path d="M16742 4738 l3 -112 39 -4 c21 -2 49 -1 62 2 23 6 24 9 24 116 l0
110 -65 0 -66 0 3 -112z m106 -6 l3 -93 -43 3 -43 3 -3 93 -3 93 43 -3 43 -3
3 -93z"/>
<path d="M16947 4843 c-12 -21 -16 -75 -9 -143 l7 -75 52 0 c28 0 54 2 56 5 3
3 7 52 9 110 l3 105 -57 3 c-31 2 -58 -1 -61 -5z"/>
<path d="M17136 4828 c-3 -13 -6 -62 -6 -109 l0 -87 32 -4 c18 -3 44 -2 58 2
24 6 25 11 33 99 5 51 6 99 3 107 -4 10 -22 14 -60 14 -47 0 -54 -3 -60 -22z
m102 -96 l3 -93 -43 3 c-34 2 -43 7 -42 21 0 9 1 51 2 93 l2 75 38 -3 37 -3 3
-93z"/>
<path d="M16570 4441 c-12 -7 -15 -31 -14 -113 l0 -103 35 -3 c19 -2 47 2 61
7 26 10 27 11 27 114 l1 104 -48 1 c-26 1 -54 -2 -62 -7z"/>
<path d="M16759 4448 c0 -2 -3 -51 -5 -109 -6 -117 -4 -121 51 -121 71 0 74 3
72 100 0 48 2 97 7 110 7 21 5 22 -58 22 -36 0 -66 -1 -67 -2z"/>
<path d="M16947 4436 c-3 -8 -7 -59 -8 -112 l-2 -98 28 -9 c18 -6 40 -5 66 3
l40 13 -3 106 -3 106 -56 3 c-43 2 -58 -1 -62 -12z m93 -112 l0 -95 -37 3 -38
3 -3 93 -3 92 41 0 40 0 0 -96z"/>
<path d="M17150 4440 c0 -3 -1 -52 -2 -110 -2 -118 -1 -120 72 -100 31 8 40
15 36 26 -3 9 -6 55 -6 103 l0 87 -50 0 c-27 -1 -50 -3 -50 -6z"/>
<path d="M16570 3916 l0 -117 55 3 c36 2 57 8 60 17 8 20 -16 174 -29 188 -6
6 -28 15 -48 18 l-38 7 0 -116z"/>
<path d="M16982 4022 c-32 -5 -38 -26 -38 -127 l1 -90 51 -3 c33 -2 54 2 61
10 7 8 8 48 4 107 -6 90 -7 95 -31 101 -14 3 -35 4 -48 2z"/>
<path d="M17000 3640 l-45 -5 -7 -95 c-4 -52 -4 -98 0 -101 14 -13 80 -20 87
-9 4 6 14 8 23 6 15 -5 17 5 14 93 -2 62 -8 103 -15 108 -7 5 -32 6 -57 3z"/>
<path d="M16760 3632 c-6 -2 -10 -44 -10 -97 0 -83 2 -96 19 -105 26 -13 54
-13 86 2 24 11 26 16 22 59 -3 27 -2 63 3 82 4 19 4 41 0 48 -8 11 -95 19
-120 11z"/>
<path d="M17146 3632 c-2 -4 -6 -48 -7 -97 -2 -87 -1 -90 21 -93 12 -2 38 -1
56 3 l34 6 0 94 0 95 -49 0 c-28 0 -52 -4 -55 -8z"/>
<path d="M4770 7971 l0 -28 -282 1 c-412 1 -646 -4 -623 -13 43 -17 653 -32
788 -20 54 6 67 4 67 -7 0 -8 -4 -14 -9 -14 -5 0 -20 -9 -33 -20 -12 -11 -50
-41 -83 -66 -33 -25 -82 -64 -109 -87 -28 -23 -52 -41 -55 -40 -4 0 -17 -14
-31 -32 l-25 -34 -220 6 c-263 7 -325 21 -105 24 220 2 281 6 293 18 7 7 -16
9 -69 6 -43 -3 -154 -5 -246 -5 -95 -1 -170 -5 -173 -11 -4 -5 -11 -6 -17 -3
-6 4 -14 0 -19 -7 -6 -11 -11 -11 -21 -1 -20 20 -216 13 -203 -8 5 -8 -84 -25
-91 -17 -2 2 16 17 40 33 117 77 315 215 326 229 27 32 -2 26 -67 -14 -37 -23
-143 -93 -234 -154 -92 -62 -175 -117 -185 -124 -17 -10 -16 -11 11 -10 28 2
30 -1 36 -43 4 -25 7 -164 6 -310 0 -298 11 -843 19 -907 l5 -43 -49 0 c-66 0
-112 10 -112 24 0 20 -55 66 -78 66 -14 0 -30 -13 -44 -35 -26 -40 -37 -44
-123 -48 -55 -2 -60 0 -57 18 2 11 3 278 3 593 -1 521 2 610 22 560 10 -24 -4
345 -14 399 -1 4 2 22 6 40 6 28 12 32 44 35 80 8 -284 7 -594 -2 -358 -10
-365 -11 -430 -70 -44 -41 -189 -124 -193 -111 -6 17 -22 13 -22 -5 0 -19 -19
-36 -73 -65 -37 -20 -39 -20 -53 -2 -7 10 -14 22 -14 26 0 5 -4 6 -9 3 -5 -3
-7 -14 -4 -25 3 -12 -3 -24 -18 -35 -18 -13 -20 -16 -7 -16 14 0 17 -10 17
-52 0 -54 3 -164 21 -658 5 -157 8 -301 6 -320 -2 -19 -7 -125 -11 -235 -4
-110 -11 -220 -15 -245 -5 -24 -6 -49 -2 -54 3 -5 7 -111 9 -235 3 -124 9
-314 14 -421 9 -164 7 -537 -4 -1135 -1 -44 2 -111 6 -150 4 -38 12 -110 18
-159 9 -88 24 -167 36 -196 3 -8 7 -27 9 -43 10 -74 110 -291 190 -411 19 -28
31 -52 28 -55 -2 -3 -41 31 -86 75 -44 43 -73 68 -64 54 38 -58 368 -380 419
-409 77 -44 85 -56 91 -139 5 -68 4 -73 -17 -82 -14 -6 49 -9 178 -10 220 -2
233 -3 320 -18 79 -14 715 -16 715 -2 0 6 -28 10 -62 10 -67 0 -108 8 -108 20
0 16 198 27 242 14 13 -4 16 -1 12 10 -6 16 -3 17 59 20 10 1 21 7 25 13 4 6
57 34 117 63 61 28 123 58 138 67 16 8 30 13 33 10 2 -2 6 -43 9 -90 l4 -86
-178 2 c-139 2 -177 -1 -174 -10 3 -7 13 -13 22 -14 191 -10 258 -8 309 6 39
12 58 13 65 6 16 -16 35 -13 57 9 11 11 29 20 40 20 13 0 18 5 14 15 -4 10 0
15 11 15 9 0 13 5 10 10 -4 6 -1 17 5 25 10 12 9 16 -4 21 -13 5 -13 8 -1 20
19 20 30 18 14 -3 -13 -15 -10 -16 29 -10 26 5 42 3 42 -3 0 -5 -9 -10 -20
-10 -11 0 -20 -4 -20 -10 0 -6 33 -10 78 -10 238 -2 378 2 386 10 12 12 -4 13
-124 11 -106 -2 -176 7 -163 20 6 6 20 6 34 2 13 -5 51 -6 84 -2 33 3 48 6 33
7 -41 3 -118 25 -118 34 0 4 3 7 8 7 19 -3 33 2 27 11 -10 16 -153 5 -173 -13
-12 -11 -31 -15 -55 -13 -55 5 -58 16 -4 16 25 0 49 5 52 11 5 7 -8 9 -41 5
-27 -2 -55 -5 -62 -5 -7 -1 -11 -5 -7 -10 3 -5 1 -12 -4 -15 -13 -8 -41 4 -41
17 0 6 -8 19 -17 30 -18 19 -17 19 17 12 19 -4 118 -7 220 -5 303 5 512 3 555
-4 l40 -6 -30 14 c-19 9 -81 16 -170 20 -159 6 -160 6 -121 15 16 3 79 3 140
0 61 -3 118 -2 126 2 9 5 -6 9 -40 10 -30 0 -75 3 -100 5 -81 7 -234 8 -290 1
-30 -3 -47 -4 -37 -1 42 13 10 22 -65 19 l-83 -3 50 12 c28 7 64 11 80 9 17
-2 106 -5 198 -7 157 -2 169 -1 178 16 6 11 17 17 25 14 8 -3 14 -1 14 3 0 12
-71 20 -195 23 -55 1 -105 6 -111 10 -7 5 -29 6 -50 3 -52 -9 -80 -9 -134 -3
-25 3 -76 1 -114 -4 -37 -5 -71 -7 -73 -4 -3 3 73 85 170 183 191 195 240 249
243 268 1 8 15 33 31 57 64 95 117 233 183 474 27 102 61 256 59 272 -1 4 0 9
1 12 2 3 4 21 6 40 2 19 5 52 7 73 3 27 0 40 -12 47 -9 5 -11 10 -5 10 10 0
13 64 5 100 0 3 -3 82 -6 175 -9 324 -16 470 -21 488 -3 10 -1 24 5 31 8 10 9
27 2 54 -5 23 -6 44 -3 47 3 3 5 162 3 353 -1 191 -2 592 -1 892 1 300 2 592
3 650 0 58 -1 184 -3 280 -4 247 -6 232 35 254 19 11 35 23 35 28 0 11 -13 10
-25 -1 -6 -5 -20 -12 -33 -16 -20 -6 -23 -3 -21 17 4 46 -1 88 -11 88 -5 0
-10 -13 -10 -29z m-1780 -63 c0 -7 -41 -40 -90 -72 -49 -33 -98 -68 -107 -79
-31 -35 -135 -107 -154 -107 -10 0 -19 -7 -19 -15 0 -10 -10 -15 -27 -16 -16
0 -124 -2 -242 -5 -136 -4 -211 -2 -207 4 8 13 -247 27 -314 18 -28 -4 -50 -3
-50 1 1 9 149 107 230 152 31 17 69 44 85 61 l29 30 240 0 c133 0 293 5 356
10 63 6 139 13 169 15 30 3 57 7 59 10 11 10 42 5 42 -7z m-22 -333 c-6 -149
-9 -346 -7 -440 7 -298 4 -778 -4 -827 -7 -39 -13 -49 -32 -54 -32 -8 -58 2
-28 11 20 7 22 13 21 101 0 52 -4 94 -9 94 -5 0 -9 7 -9 15 0 8 4 15 8 15 5 0
9 18 10 40 1 23 -3 40 -9 40 -6 0 -9 -6 -6 -14 5 -13 -13 -79 -25 -91 -2 -3
-3 -36 -1 -74 4 -55 1 -75 -14 -98 -32 -49 -49 -64 -87 -70 l-36 -6 0 50 c0
90 -13 203 -22 197 -5 -3 -7 -25 -4 -48 11 -84 9 -210 -2 -214 -11 -3 -16 100
-13 263 1 28 3 154 4 280 2 127 6 236 11 243 4 7 2 12 -4 12 -7 0 -9 8 -5 20
9 29 12 131 4 136 -7 4 -2 118 6 142 2 6 0 12 -5 12 -5 0 -5 13 1 32 5 18 11
84 15 147 l6 115 36 33 c20 18 41 32 45 33 5 0 6 -22 2 -50 -4 -30 -3 -50 3
-50 13 0 23 70 12 89 -6 12 7 31 56 79 35 34 64 68 64 75 0 12 21 39 26 34 1
-1 -2 -124 -8 -272z m1788 173 c-10 -143 -6 -1886 5 -2078 1 -14 1 -73 0 -132
-1 -80 -5 -110 -16 -122 -19 -19 -19 -30 0 -22 12 4 14 0 9 -22 -4 -15 -10
-29 -13 -32 -8 -7 -7 -32 2 -47 8 -13 12 -80 22 -410 5 -141 3 -193 -5 -193
-7 0 -5 -6 4 -16 9 -8 16 -21 15 -27 0 -9 -2 -8 -6 1 -7 18 -25 14 -22 -5 2
-10 -1 -47 -6 -83 -5 -36 -8 -75 -8 -87 0 -13 -4 -23 -8 -23 -8 0 -14 69 -11
113 1 10 -2 15 -8 12 -5 -3 -9 -44 -8 -90 0 -55 -4 -90 -12 -100 -11 -13 -10
-14 4 -9 9 3 16 1 16 -5 0 -6 -3 -11 -7 -11 -5 0 -8 -50 -7 -110 1 -61 -2
-130 -7 -153 -4 -25 -3 -47 2 -54 7 -7 7 -18 0 -30 -5 -10 -17 -49 -27 -88
-18 -75 -50 -151 -67 -162 -6 -3 -7 -1 -3 5 4 7 1 12 -6 13 -9 0 -10 2 -1 5 7
3 9 12 6 20 -3 8 1 14 8 14 9 1 8 4 -3 11 -26 15 -23 32 3 18 14 -7 19 -7 15
0 -4 5 -2 18 3 28 27 51 37 113 20 124 -8 5 -8 13 3 28 8 11 17 19 19 17 2 -2
5 14 6 37 1 23 -1 36 -3 30 -3 -7 -13 -13 -22 -13 -12 0 -13 -3 -5 -11 9 -9 6
-17 -8 -32 -12 -13 -19 -35 -19 -58 0 -21 -4 -41 -10 -44 -5 -3 -10 -14 -10
-25 0 -10 -6 -20 -13 -23 -22 -8 -99 -129 -104 -164 -3 -18 -10 -33 -15 -33
-5 0 -6 6 -2 13 4 7 3 8 -2 4 -5 -5 -9 -14 -10 -20 0 -7 -2 -20 -2 -30 -1 -10
-6 -15 -12 -12 -7 4 -7 -3 0 -20 5 -14 6 -24 1 -21 -14 9 -63 -92 -77 -162 -1
-8 -5 -16 -8 -20 -15 -14 6 81 29 129 21 47 48 135 60 200 9 46 27 89 37 89 7
0 7 -4 0 -12 -5 -8 -6 -22 -1 -33 7 -19 8 -19 8 2 1 12 9 27 20 32 17 10 42
45 78 110 20 35 16 41 -16 25 -30 -15 -50 -46 -33 -52 11 -3 -18 -72 -30 -72
-4 0 -8 10 -8 23 0 18 -2 19 -11 7 -9 -13 -10 -13 -6 0 2 8 10 15 18 15 8 0
15 7 15 15 1 8 3 18 4 23 4 12 7 26 9 37 0 6 7 10 15 10 7 0 16 9 19 20 4 15
10 18 24 13 16 -6 16 -5 4 10 -11 14 -11 18 3 23 10 4 15 13 12 20 -3 8 -1 14
5 14 16 0 0 42 -30 74 -14 16 -21 26 -15 23 16 -9 23 13 31 87 6 57 5 60 -11
47 -11 -9 -13 -17 -6 -21 11 -7 3 -70 -10 -70 -9 0 -6 87 3 96 4 4 7 16 7 26
0 10 6 18 13 18 8 0 7 4 -3 10 -8 5 -11 10 -6 10 4 0 -6 16 -24 36 -21 25 -30
44 -27 58 3 11 11 47 18 79 7 31 17 57 21 57 5 0 5 12 2 26 -5 19 -4 25 5 20
7 -5 11 1 11 14 0 16 4 20 15 16 10 -3 15 -1 13 7 -1 6 6 24 16 40 16 23 17
34 8 68 -6 23 -8 49 -5 58 4 14 3 14 -6 1 -10 -13 -12 -13 -21 0 -5 8 -14 16
-20 16 -21 3 -22 4 -11 18 8 10 9 16 1 21 -6 3 -8 9 -6 13 2 4 0 31 -5 61 -5
31 -4 61 0 70 7 11 11 1 16 -34 3 -28 15 -70 24 -94 17 -40 19 -41 23 -17 3
14 2 23 -3 21 -12 -8 -17 6 -28 75 -10 63 -4 101 10 64 6 -14 8 -9 8 19 1 21
-10 58 -23 86 -14 26 -32 78 -40 115 -15 61 -45 136 -45 111 -1 -5 8 -42 18
-82 10 -40 16 -74 13 -77 -3 -4 -1 -6 5 -6 6 0 14 -8 17 -17 5 -13 0 -11 -19
7 -17 16 -25 33 -23 50 2 17 -2 24 -11 22 -8 -2 -11 3 -8 12 3 8 2 16 -2 18
-4 2 -11 20 -14 41 -4 28 -2 40 8 44 16 5 17 50 2 70 -5 7 -6 17 -3 22 4 5 2
12 -4 16 -6 4 -7 12 -3 18 9 14 4 58 -7 72 -5 6 -11 69 -14 140 -23 548 -29
843 -27 1447 l2 316 78 59 c44 32 84 68 90 81 15 31 6 28 -52 -21 -71 -57
-118 -90 -123 -84 -8 7 177 142 190 140 6 -2 17 11 24 29 6 17 15 29 18 25 4
-4 14 1 23 11 18 20 71 62 78 62 3 0 2 -37 -1 -82z m-2711 -139 c93 -1 91 -5
-15 -27 -33 -7 40 -10 263 -10 170 0 310 -1 312 -4 3 -3 6 -638 6 -1144 -1
-185 -2 -202 -18 -200 -9 0 -19 -7 -21 -17 -3 -16 -1 -17 17 -7 18 9 21 8 21
-10 0 -12 -5 -20 -11 -18 -6 2 -24 -8 -40 -23 -37 -35 -133 -83 -137 -69 -8
22 -61 10 -92 -22 -27 -27 -31 -37 -26 -66 4 -25 -1 -43 -18 -70 -41 -65 -115
-123 -146 -115 -28 7 -60 -15 -76 -52 -16 -40 -18 -69 -2 -40 14 26 54 65 68
65 18 0 11 -16 -26 -51 -20 -18 -43 -50 -51 -69 -29 -68 -72 -120 -99 -120
-73 0 -113 -63 -76 -121 l19 -30 -34 -117 c-18 -64 -35 -118 -38 -120 -2 -2
-18 -11 -37 -20 -18 -10 -35 -25 -36 -36 -3 -16 0 -18 24 -12 25 7 43 -4 44
-26 0 -6 -63 -38 -75 -38 -1 0 -5 91 -9 203 -7 209 -11 288 -22 467 -4 58 -6
247 -3 420 5 434 5 808 -1 1179 l-5 315 25 8 c14 4 70 5 125 3 55 -3 141 -5
190 -6z m1916 -30 c3 -5 91 -11 195 -13 104 -2 197 -7 207 -11 16 -7 17 -35
18 -394 0 -212 2 -426 4 -476 2 -49 6 -265 9 -480 3 -214 9 -446 12 -514 7
-122 7 -123 -14 -112 -11 6 -51 54 -87 107 -37 53 -87 117 -111 142 -24 26
-46 54 -49 62 -3 8 -29 30 -58 48 -76 49 -134 102 -120 110 17 10 -9 67 -40
87 -22 14 -31 14 -66 4 -38 -11 -46 -10 -95 14 -30 15 -66 31 -80 37 -15 5
-26 17 -26 25 0 9 -12 32 -26 51 -28 37 -63 45 -84 19 -11 -13 -8 -15 17 -15
28 0 83 -43 71 -55 -4 -5 -46 12 -90 36 -10 5 -25 9 -33 9 -13 0 -15 35 -17
263 0 144 -2 273 -4 287 -3 25 -9 188 -19 501 -3 92 -7 175 -9 185 -2 11 -6
36 -10 56 l-7 37 158 4 c191 4 346 -2 354 -14z m-528 -1371 c12 -6 17 -21 17
-47 0 -21 3 -53 6 -71 6 -29 5 -32 -13 -26 -37 12 -236 22 -311 16 -41 -3 -76
-1 -79 4 -6 8 14 29 75 78 27 22 72 34 72 20 0 -6 -6 -12 -12 -15 -7 -2 -10
-8 -6 -12 12 -13 41 24 30 38 -14 17 57 20 77 4 11 -9 15 -9 18 1 3 6 11 12
19 12 8 0 14 4 14 9 0 11 66 3 93 -11z m-533 -21 c0 -7 9 -20 20 -30 17 -14
20 -14 20 -2 0 8 4 15 8 15 5 0 9 -24 9 -53 l0 -54 -136 -43 c-75 -23 -142
-45 -150 -48 -7 -3 -1 9 15 26 19 20 31 27 36 19 7 -12 23 -2 23 14 0 11 95
109 106 109 4 0 12 14 18 30 10 30 31 41 31 17z m635 -17 c3 -5 17 -10 31 -10
16 0 28 -8 34 -22 6 -17 9 -19 9 -6 1 14 7 16 34 11 48 -9 137 -50 137 -64 0
-6 -7 -9 -15 -5 -8 3 -29 0 -47 -5 -18 -6 -39 -13 -46 -15 -7 -2 -11 -8 -8
-13 4 -5 32 -1 67 9 72 22 109 13 109 -27 0 -12 -4 -23 -9 -23 -11 0 -20 -59
-10 -66 4 -2 13 13 20 33 6 21 13 41 16 45 11 21 223 -110 223 -138 0 -12 -9
-14 -42 -10 -24 3 -77 8 -119 11 -59 5 -89 13 -130 36 -48 26 -113 58 -243
118 -39 18 -39 18 -42 84 -3 53 0 67 11 67 7 0 17 -4 20 -10z m-915 -65 c0
-21 -4 -30 -12 -28 -3 1 -11 -11 -17 -27 -10 -31 -4 -39 17 -18 9 9 12 8 13
-7 0 -11 2 -32 4 -46 3 -20 -2 -29 -22 -38 -88 -40 -307 -252 -412 -399 -59
-83 -140 -275 -155 -367 -2 -11 -4 -20 -6 -20 -1 0 -4 -16 -7 -35 -7 -49 -20
-62 -57 -54 -27 6 -29 5 -17 -10 15 -18 11 -26 -42 -80 -23 -24 -30 -27 -37
-15 -6 8 -5 15 1 17 6 3 6 9 -1 18 -16 18 -2 37 21 31 16 -4 17 -2 8 15 -6 11
-8 31 -5 44 4 14 2 24 -4 24 -22 0 12 167 37 183 7 4 13 14 13 21 0 8 12 17
28 22 15 4 29 8 32 9 20 6 66 31 72 40 12 16 10 23 -13 46 -17 17 -23 19 -30
8 -5 -8 -6 -21 -3 -31 8 -26 -14 -31 -37 -9 -19 17 -20 21 -7 26 9 4 18 16 21
27 4 14 11 19 22 15 13 -5 14 -3 5 13 -14 27 -13 44 8 68 24 29 66 83 73 95 4
5 14 7 23 4 14 -6 15 -11 5 -28 -9 -17 -8 -23 2 -30 10 -6 16 -2 20 14 3 15
12 22 28 21 17 -1 21 4 18 18 -4 14 1 18 19 18 28 0 29 3 8 36 -14 20 -18 22
-28 10 -6 -8 -22 -17 -34 -21 -22 -6 -23 -5 -12 14 6 12 16 18 22 15 7 -4 8
-3 4 5 -4 6 -1 14 8 17 8 3 25 26 37 51 12 24 32 50 46 56 13 6 33 25 44 44
11 18 24 33 29 33 4 0 41 31 81 69 41 39 92 78 114 88 22 9 44 23 48 30 11 18
27 16 27 -2z m791 -85 c48 -14 48 -17 45 -325 -3 -271 -3 -266 -69 -405 -15
-30 -27 -60 -27 -66 0 -7 -25 -63 -55 -125 -57 -118 -61 -129 -47 -129 10 0
132 250 132 271 0 8 12 39 26 69 20 44 27 52 35 39 6 -13 7 -146 0 -200 -1 -4
-37 -49 -81 -100 -43 -51 -77 -95 -74 -98 3 -3 34 27 70 67 36 39 70 72 75 72
5 0 9 -28 9 -62 l0 -63 -72 -33 -72 -32 -31 30 c-17 17 -34 27 -38 24 -4 -4
-13 -2 -20 4 -10 9 -12 24 -6 64 12 77 48 373 54 443 3 33 7 81 10 108 3 28 1
47 -5 47 -5 0 -10 -15 -11 -32 0 -18 -2 -42 -4 -53 -2 -11 -7 -45 -10 -75 -3
-30 -15 -118 -25 -195 -11 -77 -23 -178 -27 -223 -6 -81 -7 -84 -30 -79 -13 2
-26 0 -29 -4 -14 -23 -34 -2 -66 69 -44 96 -60 163 -60 250 0 37 0 221 1 409
l1 342 28 5 c46 8 335 -2 373 -14z m-433 -195 c-3 -107 -7 -198 -11 -202 -4
-3 -8 7 -8 23 -1 16 -3 45 -5 64 -2 19 -5 73 -8 120 -2 47 -5 87 -6 90 -1 3
-2 9 -1 14 3 15 -10 46 -19 46 -21 0 7 -317 32 -368 11 -22 14 -63 13 -168 -2
-76 -4 -141 -5 -144 -4 -9 -1 -143 4 -197 2 -29 2 -53 -2 -53 -4 0 -16 13 -27
29 -11 15 -62 73 -114 127 -113 120 -119 128 -122 179 -1 22 -4 43 -6 47 -2 3
-5 53 -8 110 -2 57 -7 164 -10 239 l-7 136 32 13 c17 7 33 11 35 8 2 -2 9 -78
15 -169 5 -90 15 -195 22 -234 6 -38 11 -78 10 -89 0 -10 2 -15 5 -12 6 5 9
22 13 66 0 8 7 2 15 -15 12 -25 14 -26 9 -5 -4 14 -11 31 -17 38 -5 7 -11 27
-12 45 -2 18 -8 64 -14 102 -6 39 -13 108 -16 155 -3 47 -7 96 -8 109 -2 20 6
26 53 43 30 10 70 20 89 23 19 2 39 9 44 14 6 6 17 11 25 11 11 0 13 -34 10
-195z m618 130 c38 -19 74 -35 79 -35 20 0 130 -62 175 -98 148 -119 295 -300
352 -434 17 -40 39 -91 49 -113 24 -53 53 -185 69 -313 28 -222 -29 -527 -138
-732 -77 -145 -217 -304 -343 -391 -31 -21 -64 -46 -73 -55 -23 -23 -150 -84
-157 -76 -3 4 -30 75 -60 157 l-54 150 1 145 c1 95 5 145 13 148 7 2 8 10 2
20 -13 25 -25 132 -14 132 11 0 84 -76 144 -150 51 -63 124 -144 193 -215 72
-73 64 -64 -274 327 -52 60 -59 74 -65 123 -4 31 -5 59 -2 62 4 3 41 -18 84
-47 122 -83 503 -316 503 -307 0 5 -81 59 -175 117 -146 91 -183 114 -285 183
-58 39 -110 77 -115 84 -6 8 -8 34 -6 59 3 44 4 46 30 40 14 -3 71 -12 126
-20 55 -8 195 -28 312 -45 217 -32 240 -34 232 -26 -4 3 -204 37 -354 59 -76
12 -100 16 -200 32 -55 9 -107 17 -115 18 -28 3 -40 17 -40 45 0 16 6 33 13
38 11 9 121 26 387 59 135 17 393 64 386 71 -3 3 -67 -4 -143 -16 -127 -20
-572 -80 -618 -84 -17 -2 -21 5 -23 39 -2 26 2 45 11 52 8 7 71 37 141 67 144
62 568 267 562 272 -4 4 -59 -19 -146 -59 -36 -17 -112 -53 -170 -80 -136 -64
-378 -168 -390 -168 -6 0 -10 31 -10 69 l0 69 81 83 c45 46 124 137 176 202
52 65 121 146 154 179 32 34 58 63 56 64 -6 6 -122 -112 -211 -216 -110 -128
-223 -247 -247 -260 -13 -8 -14 -1 -8 53 5 34 6 85 3 112 -3 28 1 81 10 120 8
38 12 73 10 77 -3 4 -1 8 4 8 14 0 103 208 117 273 2 9 7 22 11 29 4 6 3 8 -4
4 -6 -3 -16 -23 -22 -44 -11 -33 -26 -69 -88 -214 -8 -20 -19 -35 -23 -32 -5
2 -8 99 -8 214 0 167 3 210 13 210 8 0 45 -16 82 -35z m-968 -278 c2 -122 5
-230 8 -239 10 -33 -10 -18 -109 80 -122 119 -124 108 -4 -19 100 -106 115
-134 118 -216 1 -32 6 -66 10 -75 7 -12 4 -17 -8 -20 -15 -3 -15 -4 0 -20 9
-9 17 -19 17 -23 0 -7 -35 12 -264 144 -87 51 -160 90 -163 87 -2 -2 84 -57
191 -121 108 -64 200 -124 204 -133 8 -17 7 -161 -2 -169 -5 -6 -19 -3 -316
66 -118 28 -216 48 -218 46 -8 -7 274 -79 463 -118 70 -14 75 -20 75 -91 l0
-62 -232 -18 c-128 -10 -258 -18 -288 -19 l-55 -2 0 149 c0 103 4 151 11 153
7 2 10 12 7 21 -4 18 4 60 32 152 9 30 17 63 17 72 -1 9 6 22 14 29 8 6 14 17
14 24 0 6 9 20 19 29 11 10 17 24 15 31 -3 7 2 19 10 28 9 9 16 18 16 22 0 14
82 125 120 162 22 22 40 44 40 49 0 12 130 130 200 183 30 23 55 41 55 41 0 0
1 -100 3 -223z m1375 170 c26 0 49 -3 52 -7 2 -4 5 -40 6 -79 2 -92 19 -104
20 -14 1 72 4 101 13 110 8 9 36 -17 36 -33 0 -8 10 -24 22 -36 123 -123 195
-230 182 -272 -4 -11 -2 -16 4 -12 20 12 46 -58 57 -154 2 -25 9 -66 14 -93 5
-29 5 -50 -1 -53 -5 -3 -6 -13 -2 -23 4 -9 6 -52 4 -96 -1 -44 -2 -89 -1 -100
0 -11 -1 -105 -1 -210 -2 -266 0 -298 18 -312 9 -6 13 -16 10 -21 -3 -5 -8
-24 -10 -43 -9 -62 -33 -136 -62 -189 -30 -55 -57 -73 -149 -95 -48 -11 -50
-13 -52 -48 -1 -20 2 -39 7 -42 6 -4 10 7 10 24 0 35 7 41 53 44 19 2 44 13
57 25 27 25 45 29 36 7 -10 -28 -103 -160 -130 -185 -14 -14 -26 -29 -26 -34
0 -19 -97 -121 -174 -182 -45 -36 -106 -85 -137 -109 -61 -49 -163 -100 -178
-90 -6 3 -14 20 -20 38 -5 18 -16 49 -25 69 l-16 36 83 41 c162 80 384 289
477 450 30 51 46 66 106 101 90 51 115 80 116 131 0 21 4 39 9 39 5 0 9 8 9
17 0 13 -3 14 -12 5 -7 -7 -20 -12 -30 -12 -14 0 -16 -4 -9 -23 16 -42 1 -76
-48 -109 -25 -17 -56 -40 -68 -51 -20 -18 -23 -18 -23 -4 0 9 9 31 20 49 20
32 73 188 74 218 1 10 9 14 25 12 23 -2 23 -1 8 16 -10 11 -13 22 -7 32 5 8 6
18 3 23 -2 4 -2 16 2 25 4 9 7 87 6 174 0 128 -5 180 -26 285 -15 70 -29 142
-32 158 -2 17 -12 41 -22 55 -9 14 -36 65 -59 113 -23 49 -56 108 -72 132 -17
24 -30 46 -30 48 0 13 -140 157 -235 241 l-30 27 50 -7 c28 -4 71 -7 98 -7z
m-1253 -593 c16 -26 27 -51 23 -57 -4 -6 -1 -7 6 -2 25 15 173 -154 183 -207
3 -16 3 -28 0 -28 -7 0 -225 132 -244 148 -15 12 -18 32 -18 104 0 53 4 88 10
88 6 0 24 -21 40 -46z m1732 -160 c14 -113 18 -326 7 -341 -9 -9 -8 -13 0 -13
6 0 11 -7 11 -15 0 -8 -5 -15 -11 -15 -7 0 -8 -7 -4 -17 11 -25 7 -68 -11
-145 -25 -107 -37 -85 -30 55 3 67 6 220 7 340 0 162 4 217 12 214 7 -2 15
-30 19 -63z m-1732 -34 c25 -17 81 -52 125 -78 57 -34 81 -53 83 -69 2 -16 -2
-23 -12 -23 -26 0 -230 42 -237 49 -9 8 -18 151 -10 151 3 0 26 -14 51 -30z
m-968 -66 l30 -16 -6 -111 c-4 -62 -9 -119 -12 -128 -6 -21 -51 -42 -60 -28
-7 12 5 299 13 299 2 0 18 -7 35 -16z m128 -92 c77 -82 100 -120 100 -164 0
-35 -4 -45 -22 -53 -14 -6 -23 -19 -24 -32 -1 -26 11 -31 20 -8 3 8 11 15 18
15 9 0 21 -39 35 -112 12 -62 20 -114 18 -116 -6 -7 -125 91 -125 103 0 7 9
24 20 38 21 26 26 47 12 47 -5 0 -16 -16 -25 -36 -12 -24 -23 -34 -35 -32 -17
3 -22 25 -22 90 0 15 -4 29 -10 33 -5 3 -10 11 -10 17 0 7 5 6 14 -1 10 -8 16
-9 21 -1 3 5 1 10 -5 10 -24 0 -41 70 -36 149 2 42 5 77 5 79 3 10 30 -3 51
-26z m836 4 c22 -7 76 -19 122 -26 60 -10 86 -19 93 -31 13 -25 1 -30 -86 -36
l-75 -6 -1 29 c-1 16 -1 32 0 37 0 4 -4 7 -10 7 -7 0 -8 -11 -4 -31 8 -37 -4
-49 -52 -49 l-33 0 0 60 c0 33 2 60 4 60 2 0 21 -6 42 -14z m464 -2 c64 -26
79 -80 38 -140 -31 -45 -56 -55 -108 -41 -33 9 -46 19 -58 44 -22 46 -3 107
41 133 39 24 37 24 87 4z m-176 -10 c11 -4 13 -12 6 -29 -16 -43 1 -130 32
-155 19 -15 19 -16 -6 -100 -27 -92 -58 -175 -68 -186 -4 -3 -3 9 2 27 5 19
11 63 14 99 2 36 8 74 12 84 6 15 4 18 -8 13 -14 -5 -15 -1 -8 24 5 16 5 29 1
29 -10 0 -8 81 2 98 5 6 4 12 0 12 -5 0 -9 20 -9 45 1 46 3 49 30 39z m-83
-107 c-1 -4 -1 -16 -1 -27 0 -13 -10 -24 -27 -31 -16 -5 -65 -29 -111 -51 -69
-35 -85 -39 -93 -27 -8 11 -9 10 -7 -5 2 -10 -3 -21 -10 -24 -11 -3 -13 12 -9
74 l5 79 34 3 c226 21 220 21 219 9z m439 -24 l60 -16 0 -44 c0 -23 -3 -43 -6
-43 -3 0 -26 16 -51 35 -25 19 -51 35 -57 35 -12 -1 -5 -7 68 -58 46 -31 47
-34 45 -80 -2 -26 1 -66 5 -89 5 -29 4 -43 -3 -43 -6 0 -11 3 -11 8 0 4 -10
18 -21 32 -12 15 -9 4 10 -30 28 -52 30 -61 30 -176 0 -66 3 -128 7 -139 5
-13 4 -16 -4 -11 -7 4 -12 12 -12 17 0 6 -27 88 -60 182 -34 94 -62 183 -64
197 -2 14 -11 45 -20 69 -9 24 -15 46 -13 48 2 1 21 -22 41 -51 43 -63 78 -98
56 -57 -7 13 -33 53 -58 88 -33 45 -48 60 -55 51 -6 -10 -7 -9 -4 2 2 8 13 15
25 14 12 0 19 3 17 7 -5 8 5 69 11 69 3 0 31 -7 64 -17z m-760 -81 c0 -103 18
-86 -185 -177 -179 -80 -289 -135 -282 -141 2 -3 40 12 83 32 139 64 368 164
377 164 5 0 7 -50 5 -110 -2 -85 -7 -113 -18 -120 -13 -8 -13 -10 1 -10 14 0
17 -24 22 -177 4 -102 12 -199 20 -228 15 -55 61 -150 85 -177 27 -32 -24 -13
-63 23 -11 10 -24 19 -30 20 -42 8 -252 190 -356 307 -54 61 -149 222 -149
253 0 7 -6 20 -13 28 -8 9 -19 41 -26 71 -47 205 -56 274 -38 288 12 10 351
38 495 41 l72 1 0 -88z m325 6 c-4 -48 -4 -48 -20 -48 -9 0 -12 6 -9 18 5 14
4 14 -4 2 -6 -8 -8 -18 -5 -23 3 -5 -23 -36 -58 -68 l-64 -59 -7 28 c-6 26 -7
26 -5 -5 2 -33 -37 -88 -54 -77 -5 3 -9 26 -9 52 0 26 -5 54 -11 62 -9 14 -6
-45 6 -105 5 -23 -9 -52 -18 -38 -10 16 -11 153 -1 163 12 12 236 127 250 129
7 1 10 -12 9 -31z m140 -213 c-26 -103 -64 -242 -86 -308 -34 -104 -79 -267
-96 -347 -3 -14 -9 -29 -13 -35 -4 -5 -11 -26 -15 -45 -4 -19 -11 -41 -15 -50
-11 -20 -58 -198 -68 -252 -2 -16 -8 -28 -12 -28 -4 0 -10 -22 -14 -48 -3 -27
-22 -111 -41 -188 -19 -76 -35 -149 -35 -160 0 -18 -7 -22 -47 -27 -27 -3 -49
-4 -51 -3 -1 2 7 23 18 48 11 25 27 75 35 113 9 37 39 131 67 209 54 152 134
408 188 601 18 66 45 156 60 200 15 44 39 127 54 185 25 96 80 295 92 329 3
10 8 11 15 4 6 -6 -6 -72 -36 -198z m145 178 c0 -34 92 -310 135 -408 8 -17
19 -51 24 -75 6 -25 28 -94 49 -155 87 -241 112 -315 148 -430 20 -66 50 -156
66 -200 16 -44 41 -111 55 -150 14 -38 39 -104 55 -145 17 -41 33 -81 36 -88
3 -10 -4 -13 -28 -10 l-33 3 -142 425 c-204 608 -280 840 -345 1050 -23 74
-49 148 -57 163 -16 32 -10 47 18 47 14 0 19 -7 19 -27z m-301 -50 c-9 -11
-10 -14 -1 -9 19 11 14 -11 -5 -26 -20 -14 -79 -87 -105 -129 -9 -14 -23 -32
-30 -40 -7 -8 -24 -36 -38 -63 -14 -28 -31 -57 -39 -66 -15 -19 -22 -112 -10
-132 6 -8 9 3 9 29 0 23 5 45 10 48 6 3 10 17 10 31 0 13 4 24 9 24 5 0 12 13
16 30 3 16 27 58 53 94 26 35 57 79 70 98 l22 33 0 -28 c0 -18 4 -26 11 -21 6
3 8 15 6 26 -6 22 12 70 23 63 13 -8 3 -129 -14 -160 -19 -35 -20 -52 -5 -57
6 -2 -1 -21 -16 -43 -15 -21 -45 -73 -68 -115 -47 -89 -52 -95 -43 -55 12 50
15 125 5 125 -5 0 -9 9 -9 21 0 11 -5 17 -10 14 -6 -4 -7 -13 -2 -23 7 -15 8
-49 4 -104 -1 -10 -7 -18 -13 -18 -5 0 -7 4 -4 10 8 12 -5 80 -15 80 -4 0 -10
-9 -13 -20 -3 -13 -1 -18 5 -13 8 4 9 -5 3 -28 -4 -19 -7 -47 -6 -63 1 -25 -1
-27 -13 -16 -13 10 -15 8 -14 -17 1 -15 -2 -36 -6 -45 -6 -13 -3 -20 9 -25 26
-9 45 22 46 76 1 25 3 38 6 29 2 -10 8 -18 12 -18 12 0 1 -45 -20 -87 -18 -35
-17 -53 2 -53 5 0 9 8 9 18 0 9 9 31 20 47 21 31 28 19 10 -16 -10 -17 -16
-56 -24 -157 -6 -62 10 -41 39 51 26 85 43 216 24 185 -7 -11 -9 -11 -9 0 0
19 82 206 94 214 15 10 24 -9 18 -39 -3 -18 -7 -21 -13 -11 -6 9 -9 9 -9 1 0
-6 4 -14 8 -17 21 -13 -47 -262 -130 -479 -13 -34 -29 -23 -30 21 -1 17 -5 29
-10 26 -5 -4 -8 4 -6 17 2 16 -2 23 -10 21 -8 -1 -11 2 -6 9 3 6 1 15 -5 19
-10 5 -9 16 3 43 9 22 11 39 5 42 -14 10 -29 -4 -29 -27 0 -27 -5 -21 -14 15
-4 19 -3 26 4 22 15 -9 12 32 -4 58 -9 15 -13 60 -14 143 -1 67 -2 125 -3 130
-1 5 -1 34 0 64 1 40 4 51 11 40 5 -8 10 -10 10 -4 0 13 38 54 50 54 5 0 11
-10 13 -22 3 -18 5 -17 6 7 1 22 15 43 51 78 27 27 54 45 60 42 6 -4 7 1 3 11
-5 14 -3 16 11 11 9 -4 15 -3 12 1 -6 10 24 56 31 48 3 -3 0 -13 -8 -23z
m-1126 -52 c15 -14 27 -35 27 -50 0 -13 7 -50 16 -81 l16 -57 -31 -31 c-19
-18 -31 -41 -31 -57 0 -37 41 -75 83 -75 31 0 36 -5 73 -72 22 -40 49 -93 59
-117 l19 -43 -27 -20 c-20 -14 -27 -28 -27 -51 1 -54 21 -69 98 -76 75 -7 84
-12 197 -115 60 -53 60 -54 41 -75 -22 -24 -17 -82 10 -112 25 -28 122 -20
132 10 4 11 -5 13 -45 7 -46 -6 -50 -5 -71 24 -13 16 -18 30 -12 30 7 0 9 8 5
20 -8 26 7 26 31 -1 21 -23 43 -34 217 -105 105 -42 118 -50 114 -68 -4 -16
-95 -331 -124 -428 -4 -15 -17 -18 -69 -18 -60 0 -65 -2 -74 -26 -6 -14 -8
-29 -5 -34 7 -12 -35 1 -54 16 -9 8 -40 35 -70 61 -30 27 -51 42 -47 36 20
-35 -23 -4 -107 77 -148 141 -283 351 -332 515 -10 33 -24 79 -31 102 -12 38
-48 228 -60 313 l-4 35 21 -40 c22 -44 21 -33 -6 70 -18 71 -31 331 -21 427
l8 67 26 -16 c15 -9 39 -28 55 -42z m1412 -96 c22 -71 72 -224 112 -340 40
-115 69 -213 65 -216 -29 -26 -184 -41 -197 -19 -4 6 -21 16 -38 24 -49 20
-90 59 -116 110 -26 53 -25 63 30 251 17 55 36 123 44 150 8 28 21 72 30 98 8
26 15 57 15 69 0 41 16 3 55 -127z m-1217 -13 c52 -44 93 -105 79 -118 -4 -4
-18 -2 -32 4 -14 7 -34 12 -43 11 -9 0 -3 -5 14 -10 17 -5 36 -20 44 -34 7
-14 18 -25 24 -25 6 0 5 5 -2 12 -15 15 -16 28 -2 28 5 0 24 -28 41 -62 17
-35 49 -87 70 -117 41 -57 51 -85 22 -59 -10 9 -29 19 -43 23 -101 28 -144 61
-120 90 7 8 10 20 7 27 -3 8 -9 3 -15 -12 -12 -30 -50 -67 -40 -39 4 9 -1 27
-10 40 -9 13 -17 28 -17 34 -1 11 -22 62 -36 85 -5 8 -11 20 -12 25 -27 79
-35 115 -30 137 5 24 8 26 27 16 11 -6 45 -31 74 -56z m2527 -178 c1 -16 -4
-39 -11 -51 -8 -12 -15 -38 -16 -58 -2 -19 -6 -35 -9 -35 -4 0 -10 -7 -13 -16
-4 -10 -2 -13 6 -8 8 5 9 -4 5 -32 l-5 -39 15 35 c26 59 30 65 39 62 4 -2 11
4 14 14 4 12 9 14 13 6 4 -6 -3 -20 -15 -32 -12 -11 -27 -35 -33 -53 -7 -23
-16 -32 -31 -31 -15 0 -20 -5 -17 -17 3 -9 0 -19 -5 -23 -6 -3 -10 11 -10 34
-1 24 4 40 11 40 9 0 9 2 0 8 -6 4 -11 21 -11 37 0 17 -2 44 -6 62 -7 32 8
108 26 130 17 21 51 0 53 -33z m-2455 -149 c7 -8 31 -20 54 -26 62 -16 165
-90 247 -179 49 -53 101 -97 155 -130 89 -54 204 -110 229 -110 19 0 19 -22
-3 -90 -26 -83 -22 -81 -110 -50 -97 34 -116 44 -173 92 -25 21 -49 38 -53 38
-8 0 -84 56 -144 107 -19 15 -52 55 -75 88 -22 33 -47 64 -55 68 -9 6 -12 18
-8 33 5 19 3 22 -10 17 -18 -7 -43 19 -73 77 -32 61 -35 80 -13 80 11 0 25 -7
32 -15z m2317 -74 c12 -12 14 -30 9 -90 -7 -76 -22 -163 -33 -191 -3 -8 -7
-19 -8 -25 -7 -31 -60 -174 -94 -252 -77 -180 -220 -361 -361 -455 l-54 -36
-12 31 c-6 18 -20 57 -32 87 -31 83 -112 339 -112 354 0 7 32 28 70 45 l70 33
31 -26 c56 -47 100 -46 126 5 10 19 9 27 -3 40 -13 15 -13 17 7 22 25 7 16 27
-12 27 -10 0 -19 6 -19 14 0 17 106 113 152 138 28 16 34 16 48 3 18 -17 58
-19 79 -6 10 6 12 19 8 40 -5 22 -3 30 4 25 7 -4 10 1 7 11 -4 23 -28 32 -28
11 0 -9 -5 -16 -11 -16 -8 0 -7 -5 2 -16 10 -12 10 -17 0 -23 -13 -9 -61 -3
-61 8 0 3 16 29 36 56 20 28 51 74 71 102 19 29 48 64 63 77 16 13 26 26 23
29 -3 3 -1 12 3 19 7 10 9 8 12 -6 2 -11 11 -26 19 -35z m-1371 -53 c5 -18 9
-38 9 -43 0 -6 10 -24 23 -39 14 -19 22 -42 22 -67 0 -22 5 -39 10 -39 11 0
13 -30 4 -54 -3 -9 -17 -16 -30 -16 -13 0 -24 -5 -24 -11 0 -6 9 -8 20 -4 22
7 26 -5 9 -22 -6 -6 -8 -20 -4 -32 5 -17 10 -19 25 -11 13 7 17 16 13 27 -6
15 -5 16 9 3 11 -11 13 -20 7 -32 -9 -18 -39 -24 -52 -12 -3 3 -26 8 -51 10
-25 2 -58 11 -73 21 -16 9 -29 18 -31 18 -3 2 23 68 39 100 5 11 11 31 13 45
2 14 6 32 9 40 3 8 11 45 18 83 7 37 16 67 20 67 4 0 11 -15 15 -32z m368
-184 c-44 -81 -161 -190 -182 -170 -5 6 14 28 121 139 41 43 46 58 20 50 -26
-7 -46 -25 -62 -56 -8 -15 -30 -43 -48 -62 -36 -37 -61 -47 -45 -19 5 9 7 25
5 35 -6 22 14 52 29 43 5 -3 6 -15 2 -27 -6 -18 -1 -16 25 10 34 34 43 57 12
29 -23 -21 -41 -14 -41 15 0 14 7 19 29 19 28 0 41 5 116 42 44 22 49 8 19
-48z m106 -176 c0 -2 11 -36 25 -77 14 -41 24 -75 23 -76 -2 -1 -43 -12 -93
-25 -65 -17 -130 -24 -234 -28 -162 -5 -169 -1 -88 53 25 16 46 33 46 37 1 6
-62 -28 -101 -55 -14 -9 -21 -7 -40 9 -19 18 -83 54 -95 54 -1 0 -3 -4 -3 -9
0 -5 25 -24 56 -41 30 -18 52 -36 47 -41 -7 -7 -102 2 -171 17 -25 5 -25 17 1
107 10 37 12 38 41 32 98 -22 212 -28 291 -17 130 19 248 43 264 52 15 9 31
13 31 8z m134 -406 c37 -114 70 -211 72 -217 3 -7 -165 -11 -486 -13 -270 -1
-490 0 -490 2 0 15 70 287 80 311 7 17 12 36 11 44 -4 22 8 61 19 61 6 0 10
-7 10 -15 0 -8 6 -16 13 -16 6 -1 17 -2 22 -4 6 -1 18 -3 28 -3 21 -2 22 -25
1 -43 -12 -10 -22 -10 -45 -2 -22 8 -29 8 -29 0 1 -38 39 -50 79 -26 27 16 32
25 29 52 l-3 32 95 -1 c83 -1 125 -4 263 -17 39 -4 52 -20 35 -46 -18 -30 -51
-26 -85 9 -33 35 -43 37 -43 10 0 -60 98 -93 140 -48 21 23 28 68 10 68 -17 0
-11 19 10 30 23 12 133 38 170 39 24 1 28 -9 94 -207z m218 -273 c-13 -11
-206 -87 -262 -103 -48 -14 -171 -35 -305 -51 -52 -7 -78 -15 -87 -28 -7 -11
-270 5 -443 28 -84 10 -114 20 -191 58 -121 61 -142 89 -74 99 45 6 1369 3
1362 -3z m-1417 -89 c28 -16 83 -39 121 -51 38 -11 73 -24 77 -28 4 -5 -54 -8
-129 -7 l-137 1 -2 58 c-2 34 1 57 7 57 6 0 34 -13 63 -30z"/>
<path d="M5369 7928 c-24 -17 -60 -46 -79 -65 -37 -36 -56 -43 -46 -17 5 14 4
15 -9 4 -9 -7 -14 -19 -11 -26 5 -12 -94 -112 -150 -151 -16 -12 -42 -25 -57
-28 -23 -6 -25 -9 -14 -19 12 -9 13 -20 2 -71 -13 -61 -13 -859 -1 -1425 10
-426 11 -1523 3 -1840 -4 -168 -10 -369 -12 -447 -2 -83 0 -143 6 -143 12 0
12 -47 -1 -55 -6 -3 -9 -27 -8 -53 l1 -47 7 45 c4 25 8 38 10 30 1 -8 2 -196
1 -417 -1 -261 1 -403 8 -407 6 -4 8 -13 4 -21 -3 -8 0 -15 6 -15 6 0 11 9 11
20 0 18 4 20 43 13 23 -5 102 -8 175 -7 74 1 128 -2 121 -7 -8 -4 88 -9 211
-11 124 -2 230 0 235 3 31 20 181 34 199 20 10 -8 17 -7 26 4 7 9 20 13 29 10
9 -2 36 -1 61 4 l45 9 -57 1 c-54 1 -72 11 -47 26 5 4 48 57 94 119 46 62 103
131 125 154 34 34 40 44 31 59 -10 17 -10 17 -11 1 0 -10 -4 -18 -10 -18 -5 0
-10 18 -10 40 0 22 4 40 8 40 11 0 6 221 -5 229 -13 9 -13 752 -1 745 11 -7
81 -153 92 -194 4 -14 43 -137 88 -275 106 -332 148 -463 198 -625 23 -74 53
-163 66 -198 14 -34 23 -66 20 -71 -3 -5 3 -16 14 -26 31 -28 24 -35 -30 -35
-27 0 -50 -4 -50 -10 0 -6 103 -10 288 -10 159 0 329 -2 378 -4 56 -2 71 -1
39 3 -56 7 200 23 400 25 l110 1 20 -37 c11 -21 22 -38 25 -38 3 0 4 20 2 45
-3 33 0 45 9 46 8 0 6 3 -4 7 -16 7 -16 11 10 46 15 21 41 52 56 69 l28 32
-17 -30 c-10 -16 -26 -41 -36 -54 -32 -43 -19 -43 22 0 22 23 38 45 35 47 -3
3 1 12 9 21 8 9 14 18 14 21 0 11 28 67 48 95 12 17 25 40 29 53 4 16 12 21
22 18 22 -9 11 27 -53 173 -30 68 -54 128 -54 132 0 5 -12 34 -26 66 -38 83
-41 92 -149 363 -54 135 -104 263 -111 285 -11 36 -35 102 -96 265 -52 140
-68 190 -81 245 -14 59 -63 183 -118 300 -15 33 -31 72 -34 88 -4 15 -11 30
-17 33 -5 3 -4 12 3 20 8 10 8 14 0 14 -6 0 -11 -4 -11 -10 0 -16 -17 -11 -24
7 -7 18 31 66 45 57 5 -3 9 -1 9 4 0 11 53 72 176 202 102 109 172 211 166
243 -1 4 2 7 6 7 7 0 28 60 37 109 2 14 16 59 29 100 29 88 43 181 51 341 3
63 10 167 15 230 11 139 7 216 -16 352 -3 15 -20 72 -39 128 -18 55 -31 100
-27 100 4 0 2 4 -5 8 -11 7 -53 103 -53 123 0 6 5 7 10 4 6 -3 10 -4 10 -2 0
10 -85 164 -104 189 -12 15 -31 41 -44 58 -20 25 -21 30 -7 30 9 0 13 5 10 11
-4 6 -13 8 -20 5 -8 -3 -19 1 -25 9 -8 10 -8 14 1 17 18 6 -53 81 -136 143
-109 83 -371 218 -471 244 -23 6 -47 18 -54 27 -9 10 -15 11 -20 4 -5 -8 -49
0 -146 23 -175 44 -311 60 -489 59 -77 0 -314 -2 -527 -4 -214 -2 -383 -1
-378 0 12 4 13 22 2 22 -5 0 -29 -14 -53 -32z m361 -28 c109 -5 300 -6 434 -1
131 4 268 4 305 -1 36 -4 87 -10 112 -13 41 -4 89 -19 214 -64 17 -6 66 -23
110 -37 44 -14 93 -33 108 -41 16 -8 33 -13 39 -11 6 2 -12 15 -41 28 -45 22
-65 40 -43 40 17 0 193 -71 257 -104 245 -127 324 -189 401 -314 26 -43 58
-90 69 -107 12 -16 27 -45 33 -64 10 -29 10 -32 -5 -27 -16 6 -16 6 0 -12 9
-10 23 -38 32 -62 9 -25 22 -59 30 -75 7 -17 15 -43 17 -58 3 -16 10 -32 16
-36 11 -7 38 -109 63 -236 13 -70 29 -291 24 -345 -10 -102 -17 -139 -30 -144
-14 -5 -14 19 -1 74 11 41 14 160 5 154 -5 -3 -6 9 -3 26 5 23 2 34 -12 45
-27 21 -35 18 -26 -7 6 -18 8 -161 3 -220 -1 -5 -7 -8 -13 -8 -7 0 -14 -14
-15 -32 -2 -24 0 -29 9 -20 17 17 28 15 22 -3 -4 -8 -12 -15 -20 -15 -8 0 -14
-10 -14 -21 0 -17 3 -19 13 -10 11 9 14 5 15 -19 0 -20 -6 -33 -20 -41 -13 -7
-18 -17 -15 -31 7 -26 -2 -50 -17 -41 -6 4 -5 0 2 -9 7 -9 14 -43 15 -76 2
-52 0 -58 -16 -54 -13 3 -15 8 -8 15 17 17 13 31 -4 17 -19 -16 -19 -1 0 24 8
11 15 29 14 40 0 17 -3 15 -14 -9 -12 -29 -13 -28 -13 23 0 41 4 52 17 52 14
1 15 2 0 13 -11 9 -14 20 -8 40 4 15 3 27 -2 27 -12 0 -6 35 10 54 12 14 12
16 -1 11 -11 -4 -14 4 -13 37 1 24 -2 50 -6 59 -5 9 -5 19 -2 23 12 11 8 91
-4 104 -7 7 -13 22 -13 33 0 21 -20 27 -21 7 0 -7 -6 6 -13 29 -14 44 -31 150
-27 171 1 6 -2 12 -6 12 -4 0 -9 15 -10 33 -4 73 -72 231 -155 354 -61 92 -94
134 -101 127 -2 -3 -15 8 -29 23 -67 78 -238 204 -353 261 -79 39 -208 85
-304 108 -36 8 -93 22 -127 30 -162 38 -555 49 -954 27 -118 -7 -291 -15 -385
-18 -164 -5 -169 -5 -145 12 39 29 159 133 230 200 l65 63 65 0 c36 0 153 -5
260 -10z m587 -285 c278 -29 438 -66 632 -144 68 -28 140 -63 160 -79 20 -15
62 -45 93 -66 60 -39 184 -169 211 -221 8 -16 32 -47 52 -67 20 -21 34 -41 31
-47 -3 -5 1 -15 10 -22 8 -7 24 -30 35 -52 20 -38 83 -267 99 -360 5 -26 12
-57 15 -68 10 -31 13 -89 5 -84 -12 7 -17 -27 -9 -60 4 -16 7 -22 8 -12 0 9 6
17 11 17 8 0 9 -70 5 -222 -6 -259 -8 -288 -17 -288 -3 0 -4 -9 -1 -19 3 -11
-2 -34 -11 -52 -9 -18 -16 -45 -16 -60 0 -16 -6 -43 -14 -61 -7 -18 -21 -58
-31 -88 -23 -73 -85 -200 -134 -276 -42 -66 -126 -141 -269 -237 l-86 -59 -18
24 -19 23 15 -30 c18 -38 8 -57 -36 -76 l-33 -14 34 -5 c31 -5 36 -11 73 -95
63 -142 148 -351 189 -465 20 -58 76 -197 123 -309 85 -199 102 -256 53 -169
-47 83 -395 734 -447 838 -62 123 -261 488 -296 542 -25 38 -204 368 -204 374
0 2 5 4 11 4 27 0 109 132 137 220 37 113 50 216 45 366 -8 255 -71 402 -221
515 -79 60 -84 66 -28 36 29 -16 43 -21 35 -11 -7 8 -33 27 -58 40 l-46 25 40
-6 c21 -4 52 -13 67 -21 15 -8 28 -12 28 -9 0 13 -87 45 -121 45 -20 0 -51 8
-70 17 -61 31 -159 29 -378 -7 -77 -12 -97 -25 -25 -16 l50 6 -2 -592 c-2
-326 0 -621 4 -656 4 -34 4 -69 -1 -78 -16 -28 13 -35 118 -29 134 8 216 28
302 75 70 38 83 40 83 14 0 -7 11 -30 25 -50 31 -46 31 -41 0 31 -37 83 -8 64
39 -26 21 -40 89 -166 151 -279 62 -113 148 -272 190 -355 98 -190 197 -373
295 -545 42 -74 130 -234 195 -355 65 -121 125 -231 135 -245 9 -14 41 -86 70
-160 29 -74 74 -187 100 -250 47 -116 65 -170 55 -170 -3 0 -84 158 -180 352
-173 346 -336 665 -380 743 -39 69 -223 421 -327 625 -55 107 -104 200 -110
205 -13 13 220 -450 352 -700 55 -104 184 -356 286 -560 103 -203 247 -489
322 -635 164 -321 170 -334 174 -350 3 -12 -38 -15 -123 -11 -33 1 -45 28 -24
51 23 25 18 33 -16 28 -30 -5 -31 -3 -80 97 -51 108 -88 151 -157 182 -30 14
-68 17 -197 18 -88 0 -177 -4 -198 -8 -34 -7 -72 -35 -176 -127 -23 -21 -23
-25 -19 -146 l4 -124 -37 0 c-34 0 -38 3 -45 33 -3 17 -58 187 -121 377 -62
190 -122 372 -132 405 -40 125 -114 363 -136 435 -12 41 -25 104 -29 140 -3
35 -10 68 -15 73 -4 4 -4 -14 0 -40 11 -64 11 -73 0 -73 -9 0 -83 144 -95 187
-8 26 -15 300 -8 308 3 2 12 -1 20 -7 12 -10 14 -9 11 7 -3 13 -14 21 -33 23
l-29 4 6 -127 c5 -93 4 -126 -5 -123 -6 2 -31 40 -54 84 -45 83 -164 214 -164
181 0 -9 -7 -17 -15 -17 -8 0 -15 -6 -15 -12 -1 -7 0 -112 1 -233 1 -121 1
-528 0 -905 l-2 -685 -477 0 -477 0 2 426 1 426 126 249 c123 245 167 327 284
541 75 136 87 160 74 148 -24 -24 -254 -442 -378 -688 -115 -228 -117 -230
-108 -142 8 78 28 126 132 300 36 61 86 148 112 195 74 133 163 287 304 525
190 322 356 607 367 630 20 41 -43 -43 -90 -120 -27 -44 -106 -174 -177 -290
-70 -115 -151 -250 -179 -300 -28 -49 -64 -110 -80 -135 -16 -25 -104 -178
-196 -340 -92 -162 -175 -304 -183 -315 -15 -19 -16 -15 -17 60 -1 168 1 606
6 1305 6 725 6 784 6 915 0 39 0 79 0 90 1 11 -2 180 -6 375 -4 195 -8 474 -9
620 -1 146 -4 271 -7 279 -6 22 39 29 126 19 76 -9 294 -4 540 11 198 13 469
11 612 -4z m8 -819 c75 -20 104 -38 176 -113 151 -156 198 -301 186 -568 -8
-180 -45 -297 -102 -324 -81 -39 -247 -65 -297 -46 -9 4 -13 25 -11 75 1 38 4
73 6 77 4 6 1 118 -2 118 -1 0 -3 164 -5 365 -2 201 -7 380 -11 398 -8 36 -8
37 60 18z m-250 -436 c4 -11 5 -48 4 -82 -2 -37 2 -63 8 -65 16 -6 26 29 11
40 -10 6 -9 8 3 4 13 -4 15 -1 12 14 -3 10 0 19 6 19 6 0 11 -4 11 -10 0 -5 5
-10 10 -10 6 0 8 11 4 26 -5 19 -3 25 4 20 13 -8 13 -74 0 -82 -4 -3 -8 0 -8
6 0 6 -5 8 -11 4 -8 -4 -8 -9 0 -17 14 -14 14 -37 1 -37 -5 0 -10 10 -11 23
l0 22 -12 -23 c-8 -19 -8 -25 3 -32 9 -5 19 -5 27 1 7 6 17 8 23 4 5 -3 10 1
10 9 0 9 5 16 10 16 6 0 10 -13 10 -30 0 -16 -5 -30 -11 -30 -5 0 -7 5 -4 10
3 6 -2 10 -13 10 -27 0 -31 -83 -5 -100 16 -10 16 -11 1 -6 -15 4 -16 -5 -12
-92 6 -134 6 -133 22 -120 10 9 12 8 10 -3 -2 -8 -7 -18 -13 -22 -6 -6 -5 -10
3 -14 10 -4 10 -8 1 -19 -16 -20 -2 -95 17 -87 25 9 33 70 20 148 -12 73 -16
155 -7 155 5 0 9 -15 9 -32 1 -18 6 -55 12 -83 6 -27 14 -71 17 -97 5 -45 3
-49 -33 -86 -22 -21 -65 -66 -96 -101 -41 -44 -58 -57 -59 -44 -2 66 2 447 6
533 6 130 6 161 3 228 -3 53 5 69 17 32z m1155 -1420 c0 8 8 -1 19 -20 75
-142 136 -264 157 -312 13 -32 51 -113 84 -180 33 -67 60 -130 60 -140 0 -10
5 -18 11 -18 5 0 7 5 4 10 -3 6 -1 10 4 10 17 0 90 -79 107 -116 9 -19 20 -32
24 -29 11 7 24 -13 25 -38 1 -10 9 -26 18 -35 16 -15 17 -15 17 0 0 9 -4 20
-10 23 -5 3 -10 11 -10 16 0 26 21 -8 50 -83 17 -46 36 -92 40 -103 4 -11 13
-36 20 -55 7 -19 27 -67 46 -106 19 -40 34 -74 34 -78 0 -3 11 -29 24 -58 66
-145 80 -187 54 -172 -8 4 -10 3 -5 -2 5 -5 13 -9 19 -9 8 0 79 -158 78 -174
-1 -3 -14 19 -30 49 -16 30 -29 48 -30 40 0 -22 39 -91 66 -117 23 -21 35 -71
14 -58 -5 3 -6 13 -3 22 5 12 2 15 -10 10 -12 -5 -26 12 -59 73 -24 44 -47 80
-51 80 -15 0 73 -154 105 -184 31 -28 31 -29 14 -60 -9 -17 -49 -73 -87 -125
-39 -52 -75 -106 -80 -119 -12 -30 -22 -21 -38 33 -15 48 -39 113 -53 140 -8
13 -7 20 0 23 6 2 -6 35 -28 76 -22 41 -36 76 -33 80 4 3 1 6 -5 6 -6 0 -14
17 -18 38 -3 20 -17 55 -29 77 -21 36 -48 114 -50 141 0 12 -26 72 -71 169
-18 39 -46 108 -62 155 -31 88 -50 136 -81 205 -10 22 -26 63 -36 90 -10 28
-25 59 -32 70 -7 11 -13 26 -13 33 0 8 -6 28 -14 45 -19 42 -76 195 -76 203 0
3 6 4 14 1 10 -4 7 13 -12 58 -15 35 -30 59 -33 53 -4 -7 -9 -7 -13 0 -3 6 -1
12 5 14 11 4 -46 119 -63 126 -4 2 -5 9 -2 17 3 7 -3 22 -13 32 -25 25 -64
110 -66 142 -3 47 25 29 39 -25 7 -28 26 -77 43 -110 17 -32 51 -102 76 -154
25 -52 50 -103 55 -112 6 -10 10 -27 10 -37 0 -11 5 -23 10 -26 6 -3 10 -11
10 -17 0 -7 -5 -6 -14 1 -12 10 -13 8 -9 -8 3 -12 12 -21 20 -21 9 0 13 -6 10
-14 -3 -8 1 -20 9 -26 8 -7 14 -18 13 -24 0 -7 -2 -6 -6 2 -2 6 -9 12 -14 12
-5 0 -3 -13 6 -30 8 -16 16 -33 17 -37 1 -5 8 -24 16 -43 31 -75 35 -85 37
-96 2 -6 10 -27 18 -45 9 -19 25 -59 37 -89 11 -30 27 -68 35 -85 17 -37 27
-65 30 -85 3 -20 51 -144 69 -178 34 -65 78 -166 81 -187 4 -23 66 -175 83
-203 25 -39 23 -18 -3 42 -27 62 -31 82 -15 89 6 3 5 4 -2 3 -18 -4 -42 55
-27 65 8 5 5 10 -8 18 -11 5 -26 25 -33 43 -7 18 -35 77 -61 132 -27 54 -49
106 -49 115 0 20 -49 150 -67 176 -20 30 -15 43 7 15 11 -14 20 -20 20 -14 0
6 -11 23 -25 38 -25 27 -33 42 -16 32 5 -4 7 3 4 15 -3 11 -12 23 -19 26 -8 3
-14 10 -14 15 0 6 -7 26 -16 46 -36 81 -45 107 -54 155 -16 81 14 27 56 -102
2 -8 7 -11 10 -9 3 3 -5 32 -16 64 -12 33 -24 68 -27 79 -4 11 -9 22 -13 25
-26 18 -94 191 -92 233 0 10 -4 15 -10 11 -7 -4 -8 -2 -4 4 4 7 11 12 15 12 9
0 24 -38 22 -53 -1 -4 5 -18 14 -30 8 -12 15 -34 15 -49 0 -15 5 -30 10 -33 6
-3 10 -17 10 -29 0 -13 7 -30 16 -37 15 -12 16 -11 9 11 l-8 25 23 -20 c16
-14 22 -16 18 -5 -2 8 -14 19 -26 25 -12 5 -22 13 -22 18 0 4 6 5 12 1 7 -5 3
5 -10 20 -12 16 -19 32 -16 37 2 5 -2 22 -11 39 -9 17 -13 35 -9 41 5 9 -21
74 -36 89 -3 3 -20 34 -38 70 -18 36 -45 88 -61 116 -15 28 -31 59 -34 70 -4
10 -10 26 -13 34 -5 13 -4 13 5 0 9 -13 11 -13 11 0z m262 -381 c37 -87 76
-154 87 -151 8 2 11 -3 8 -11 -3 -8 3 -27 14 -43 11 -17 19 -23 19 -14 1 11 4
9 12 -5 7 -11 18 -26 25 -33 12 -13 17 -27 14 -44 0 -5 4 -7 11 -5 10 2 70
-103 63 -111 -8 -9 -55 32 -55 47 0 9 -21 34 -47 56 -25 22 -56 50 -67 63 -25
28 -107 207 -109 236 0 12 -5 27 -10 34 -7 8 -5 12 6 12 8 0 21 -14 29 -31z
m-1317 -705 c2 -22 6 -61 9 -89 3 -27 7 -87 8 -132 1 -63 5 -83 16 -83 10 0
12 8 6 32 -3 18 -8 76 -10 128 -1 52 -4 107 -7 123 -5 31 9 37 18 7 3 -10 8
-57 10 -102 2 -46 9 -114 14 -153 13 -87 13 -94 1 -75 -7 11 -10 4 -10 -26 0
-22 5 -45 12 -52 17 -17 2 -28 -17 -12 -10 8 -15 30 -15 61 0 26 -5 51 -12 55
-6 4 -8 3 -5 -4 4 -5 3 -21 -2 -34 -7 -18 -10 -7 -15 52 -20 249 -23 360 -10
348 3 -3 7 -23 9 -44z m-53 -546 c2 -120 1 -218 -2 -218 -4 0 -6 -30 -5 -67 2
-67 -6 -95 -31 -120 -7 -7 -14 -18 -17 -25 -8 -23 -15 -4 -10 25 3 15 12 27
19 27 11 0 14 18 14 79 0 44 4 82 9 86 5 3 7 24 5 48 -5 42 -8 463 -3 547 4
80 17 -159 21 -382z m32 290 c4 -51 7 -100 7 -108 -1 -159 1 -256 8 -350 6
-96 5 -119 -8 -140 -21 -32 -19 -53 -23 353 -4 333 2 424 16 245z m36 -168 c0
-23 5 -40 11 -40 6 0 9 7 5 15 -7 20 3 19 26 -2 21 -18 25 -42 5 -25 -11 9
-12 0 -9 -51 5 -69 -6 -74 -14 -6 -8 64 -23 70 -17 7 2 -29 7 -95 10 -146 l5
-94 18 27 c16 24 16 33 5 81 -7 30 -8 54 -4 54 5 0 9 -4 9 -10 0 -5 6 -10 14
-10 9 0 15 -15 18 -47 3 -43 0 -51 -37 -94 -22 -26 -42 -48 -45 -48 -3 -1 -5
36 -5 82 -1 45 -4 142 -9 215 -5 93 -5 132 3 132 6 0 11 -18 11 -40z m1318
-279 c24 -12 53 -38 67 -61 33 -52 32 -62 -2 -53 -35 10 -389 10 -425 0 -17
-4 -28 -14 -28 -25 -1 -13 -4 -11 -15 8 l-14 25 -1 -30 c0 -43 -19 -105 -32
-105 -6 0 -8 -9 -5 -20 10 -39 -10 -19 -37 36 -15 31 -25 62 -22 70 3 7 1 16
-4 19 -6 4 -10 13 -10 21 0 8 5 12 10 9 6 -4 7 -11 4 -17 -4 -6 -3 -8 3 -5 6
4 16 27 23 52 7 24 16 42 21 39 5 -3 9 4 9 15 0 36 17 23 24 -17 3 -21 15 -47
26 -57 24 -22 24 -20 5 35 -24 69 -21 78 28 83 23 3 107 4 188 2 125 -2 151
-6 187 -24z m81 -162 c23 -25 51 -80 51 -102 0 -21 25 -38 44 -31 11 4 16 1
16 -12 0 -18 -10 -19 -137 -19 -76 0 -210 -2 -298 -5 -129 -4 -160 -2 -160 8
0 10 28 14 125 14 69 1 157 7 195 14 66 12 60 12 -95 7 -91 -3 -176 -6 -190
-7 -23 -1 -25 2 -23 39 3 44 21 96 37 107 6 4 102 8 213 8 194 0 203 -1 222
-21z"/>
<path d="M6437 5453 c-36 -6 -52 -43 -37 -87 l10 -31 87 1 c79 2 87 4 95 24
11 29 -16 78 -48 90 -25 10 -55 11 -107 3z"/>
<path d="M5996 5358 c-30 -40 -40 -76 -28 -107 8 -22 14 -23 100 -25 102 -1
102 -2 102 70 0 64 -32 94 -99 94 -45 0 -53 -3 -75 -32z"/>
<path d="M6488 4888 l-39 -43 4 -70 c9 -130 59 -225 89 -171 5 9 19 16 31 16
18 0 19 -2 7 -10 -11 -7 -12 -12 -4 -20 15 -15 134 -2 131 14 -1 6 13 12 31
14 27 3 32 0 32 -19 0 -17 4 -20 23 -15 12 3 27 6 33 6 6 0 12 12 12 28 0 15
4 44 7 64 5 25 2 47 -9 69 -9 18 -16 36 -16 41 0 11 -71 110 -90 125 -9 8 -50
12 -109 13 l-93 0 -40 -42z m-3 -77 c-6 -19 0 -20 152 -19 l158 0 12 -28 c7
-16 12 -43 13 -61 0 -40 -22 -55 -63 -40 -18 6 -70 7 -131 4 -55 -4 -106 -3
-111 1 -13 8 -45 110 -45 140 0 12 5 22 11 22 6 0 8 -8 4 -19z"/>
<path d="M5663 4685 c-22 -9 -40 -29 -57 -63 -14 -27 -33 -52 -42 -56 -12 -5
-14 -10 -7 -17 8 -8 4 -24 -14 -58 -28 -52 -27 -91 3 -156 22 -45 52 -58 61
-26 5 20 12 21 134 21 71 0 129 -4 129 -9 0 -5 -29 -6 -64 -4 -74 6 -176 -4
-176 -18 0 -11 281 -11 299 1 7 4 14 23 16 41 4 46 3 43 23 67 15 17 17 32 12
95 -5 61 -13 84 -38 124 -18 28 -43 55 -57 61 -36 16 -183 14 -222 -3z m202
-53 c14 -9 36 -62 31 -70 -5 -9 -274 -7 -283 2 -4 3 1 22 10 41 l17 35 107 0
c60 0 113 -4 118 -8z m45 -107 c-1 -42 -16 -87 -32 -96 -25 -13 -35 -4 -18 16
13 16 0 21 -15 6 -12 -12 -185 -16 -244 -6 -32 6 -42 5 -37 -3 4 -7 13 -12 19
-12 7 0 25 -7 41 -15 21 -11 47 -14 90 -11 45 4 52 3 26 -3 l-35 -8 43 -2 c23
0 42 2 42 7 0 4 9 13 21 20 16 10 24 10 35 1 7 -6 11 -15 8 -20 -3 -5 0 -9 5
-9 6 0 11 5 11 10 0 6 5 10 11 10 7 0 18 8 25 18 12 16 13 16 14 -4 0 -46 -24
-52 -198 -54 l-162 -1 -11 28 c-12 32 -7 59 21 105 l19 33 161 0 c100 0 160
-4 160 -10z"/>
<path d="M8404 7949 c-2 -4 32 -9 76 -11 44 -3 83 -8 87 -11 4 -4 -38 -53 -93
-110 -55 -56 -114 -119 -132 -140 -21 -25 -38 -37 -48 -33 -14 5 -15 -58 -10
-569 4 -531 3 -576 -12 -584 -16 -9 -16 -12 -1 -40 l17 -29 -44 -43 c-24 -24
-44 -48 -44 -55 0 -19 33 -42 65 -46 29 -3 30 -4 33 -64 3 -60 2 -61 -29 -74
-37 -16 -89 -57 -89 -72 0 -5 11 -24 25 -42 l25 -33 -32 -35 c-18 -20 -48 -43
-65 -52 -35 -17 -40 -34 -23 -67 8 -15 7 -23 -4 -34 -8 -8 -18 -24 -21 -35 -3
-11 -18 -23 -33 -26 -47 -10 -72 -27 -79 -52 -5 -21 2 -33 41 -69 l47 -44 -21
-27 c-47 -61 -52 -72 -46 -97 4 -16 26 -38 60 -60 56 -35 70 -54 59 -81 -8
-22 16 -63 47 -79 22 -11 30 -10 60 6 38 20 80 25 80 10 0 -6 -4 -12 -9 -15
-5 -4 -5 -22 1 -43 17 -61 16 -118 -2 -118 -11 0 -15 11 -14 44 1 39 -1 42
-13 26 -15 -22 -17 -51 -3 -60 21 -13 9 -47 -31 -90 -34 -37 -41 -50 -36 -73
4 -21 1 -32 -14 -42 -23 -17 -25 -53 -3 -74 18 -19 17 -19 47 -5 21 9 28 7 55
-21 l32 -31 -6 -802 c-4 -468 -10 -809 -16 -820 -5 -9 -6 -21 -3 -26 3 -5 7
-73 10 -150 l4 -141 -30 0 c-18 0 -28 -4 -24 -10 3 -5 20 -10 36 -10 19 0 28
-4 24 -11 -4 -6 -24 -9 -46 -8 -21 2 -41 0 -45 -4 -4 -4 16 -7 44 -7 34 0 52
-4 53 -12 1 -7 2 -20 3 -28 2 -8 3 -27 4 -42 1 -16 7 -28 13 -28 8 0 10 17 6
53 -3 30 -2 58 1 63 4 5 99 9 212 10 113 0 356 1 540 2 184 1 387 0 450 -3 63
-3 198 -7 300 -9 l185 -5 -150 12 c-216 17 -140 28 191 26 263 -1 645 8 653
16 2 3 -2 11 -8 19 -10 12 -3 16 44 21 31 4 59 5 62 1 4 -3 -4 -6 -16 -6 -12
0 -24 -7 -27 -15 -4 -8 -11 -15 -16 -15 -6 0 -4 7 3 17 12 14 12 16 -1 11 -8
-2 -16 -12 -18 -21 -3 -14 4 -16 36 -13 46 4 62 12 62 32 0 10 13 14 43 16 23
0 56 2 72 3 17 2 35 -2 42 -7 7 -5 18 -6 25 -2 7 5 17 9 22 9 5 0 11 5 13 12
3 8 -11 13 -39 15 -40 3 -41 4 -18 14 25 11 11 14 -144 30 -22 2 -44 8 -50 14
-10 10 35 13 194 12 63 0 63 0 22 8 -41 9 -136 18 -196 19 -16 1 -26 4 -22 8
6 6 48 9 219 13 10 0 15 5 12 10 -4 6 -55 10 -121 10 -63 0 -114 4 -114 9 0 5
42 11 93 15 50 4 115 10 142 13 47 7 42 8 -72 23 -68 9 -154 15 -193 14 -38
-1 -70 2 -70 7 0 4 14 17 30 29 37 26 135 147 165 204 12 22 39 79 59 126 21
47 44 99 52 117 8 17 14 38 14 47 0 8 6 33 14 53 24 67 47 147 51 178 2 17 11
62 19 100 9 39 21 95 27 125 5 30 15 78 20 105 6 28 11 65 12 83 1 17 5 32 10
32 15 0 -5 295 -28 420 -25 134 -37 205 -40 227 -5 41 -27 96 -61 154 -19 31
-38 69 -44 84 -16 43 -111 173 -179 245 -34 36 -61 68 -61 72 0 4 -8 4 -17 1
-11 -4 -2 11 20 35 20 23 37 46 37 50 0 5 14 22 30 39 19 19 28 37 24 47 -4
10 0 18 10 22 9 3 13 10 10 15 -9 15 16 51 32 45 8 -3 14 -1 14 4 0 6 -4 10
-10 10 -14 0 -12 28 4 58 33 60 70 209 81 327 4 33 10 94 14 135 8 73 1 120
-18 120 -12 0 -23 -29 -14 -42 3 -7 1 -8 -6 -4 -7 4 -10 13 -8 19 2 7 -4 24
-14 38 -10 14 -16 29 -13 32 3 2 7 36 10 73 3 38 7 74 9 81 2 7 0 15 -6 18 -5
4 -7 11 -4 16 7 10 35 -14 35 -30 0 -6 10 -15 21 -22 17 -9 24 -8 31 2 12 18
5 234 -9 251 -5 7 -13 28 -16 46 -6 31 -5 33 16 27 l22 -6 -21 19 c-25 21 -41
62 -25 62 6 0 11 -8 12 -17 0 -11 2 -13 6 -5 3 7 -1 23 -9 35 -21 32 -55 124
-68 184 -7 29 -18 57 -26 64 -21 17 -40 54 -23 43 23 -14 -61 114 -110 169
-22 24 -23 27 -6 21 11 -4 35 -16 53 -27 17 -10 32 -16 32 -13 0 3 -31 23 -69
46 -39 22 -95 65 -126 96 -57 57 -78 71 -243 155 -52 26 -99 54 -105 62 -7 7
-75 28 -152 46 -77 18 -156 39 -175 46 -65 24 -214 38 -460 42 -401 7 -1122 8
-1126 2z m340 -34 c50 -3 255 -8 456 -11 201 -3 390 -8 420 -9 30 -2 87 -5
125 -6 39 -1 76 -7 83 -12 7 -6 15 -7 18 -4 3 3 23 0 43 -8 21 -7 44 -9 51 -5
13 8 42 -4 68 -28 9 -8 18 -9 26 -3 14 12 246 -54 336 -96 36 -17 97 -51 136
-76 80 -52 230 -204 271 -275 15 -26 42 -68 60 -94 44 -64 123 -302 123 -369
l0 -24 -20 25 c-12 14 -18 34 -15 46 3 13 -3 28 -14 39 -11 9 -17 23 -14 31 3
7 -2 21 -11 29 -9 9 -16 23 -16 31 0 8 -4 14 -9 14 -10 0 1 -44 45 -179 13
-41 22 -76 19 -79 -2 -3 -7 4 -11 14 -21 64 -77 213 -88 236 -11 20 -11 29 -2
38 8 10 5 11 -14 5 -19 -5 -21 -4 -10 4 12 8 -1 26 -70 96 -90 91 -130 121
-277 205 -85 48 -223 107 -223 95 0 -3 55 -32 123 -64 80 -39 144 -79 187
-115 36 -31 71 -56 78 -56 6 0 12 -4 12 -10 0 -5 6 -10 13 -10 16 0 89 -73 86
-86 -3 -13 12 -46 31 -69 42 -49 171 -348 156 -362 -3 -3 -9 3 -12 13 -69 190
-182 374 -292 474 -193 175 -473 323 -691 364 -70 14 -336 34 -371 28 -18 -2
-1061 -23 -1137 -23 -29 1 -53 -3 -53 -8 0 -15 58 -24 106 -16 24 3 49 3 55
-1 6 -3 284 -7 617 -9 334 -1 623 -5 642 -8 19 -4 68 -11 108 -17 40 -5 81
-14 90 -19 9 -4 51 -16 92 -26 137 -33 275 -99 401 -191 181 -133 269 -260
363 -527 71 -204 78 -242 77 -487 -1 -172 -5 -238 -22 -330 -20 -110 -32 -150
-46 -150 -4 0 -21 10 -39 22 -40 28 -58 62 -44 86 5 9 21 45 35 79 21 52 23
66 13 82 -14 23 -50 41 -81 41 -38 0 -50 20 -27 45 16 17 19 27 11 46 -10 28
-6 78 10 126 13 41 1 65 -51 98 -51 32 -87 40 -114 25 -29 -15 -71 -10 -71 10
0 8 -14 19 -32 24 -18 6 -34 18 -37 30 -4 14 -8 17 -18 9 -7 -6 -24 -13 -37
-15 -14 -1 -26 -9 -29 -16 -2 -7 2 -10 12 -6 19 7 21 -7 4 -25 -11 -11 -9 -12
10 -6 16 5 22 2 22 -9 0 -10 6 -13 16 -9 9 3 20 0 25 -8 8 -12 12 -11 23 4 7
9 17 17 22 17 4 0 3 -5 -4 -12 -34 -34 -3 -40 78 -17 69 21 178 -29 164 -75
-4 -11 -13 -25 -20 -29 -10 -6 -11 -13 -2 -32 9 -20 8 -28 -5 -43 -10 -10 -15
-21 -12 -24 9 -9 -115 -128 -132 -127 -11 0 -13 3 -5 6 6 2 12 9 12 14 0 6 -5
7 -10 4 -6 -4 -30 5 -55 19 -60 36 -62 33 -10 -15 25 -23 42 -45 39 -50 -9
-15 2 -10 66 27 l61 37 24 -23 c13 -12 29 -19 35 -15 18 11 88 -24 93 -47 4
-12 -2 -28 -12 -40 -10 -10 -18 -30 -18 -44 0 -14 -10 -39 -22 -55 l-22 -30
33 -39 c18 -21 41 -41 51 -45 27 -10 21 -25 -28 -71 -25 -23 -45 -47 -45 -53
0 -7 -5 -9 -12 -5 -6 4 -8 3 -5 -2 9 -15 -28 -57 -52 -59 -11 -1 -21 0 -21 2
0 2 32 42 70 90 39 47 68 88 65 91 -9 9 -91 -76 -158 -163 -42 -54 -52 -73
-33 -57 33 25 56 29 56 7 0 -38 64 19 147 132 26 34 49 60 53 58 3 -2 -13 -45
-38 -95 -40 -83 -46 -91 -70 -88 -14 2 -27 -3 -29 -9 -3 -7 2 -13 11 -13 24 0
19 -14 -18 -48 -19 -17 -36 -36 -38 -43 -4 -13 -14 -10 -63 20 -16 10 -36 16
-42 13 -7 -2 -13 1 -13 7 0 16 -17 13 -24 -4 -3 -9 -1 -15 7 -14 30 4 58 -2
52 -11 -3 -5 -3 -10 2 -10 4 0 16 -7 26 -14 21 -16 13 -46 -14 -46 -10 0 -19
-5 -19 -10 0 -6 -8 -14 -17 -17 -10 -4 -42 -26 -71 -50 -29 -24 -59 -43 -67
-43 -8 0 -15 -3 -15 -7 0 -11 73 -74 105 -90 81 -41 219 -172 201 -191 -4 -3
-10 -2 -14 4 -4 5 -18 9 -31 8 -14 -1 -40 3 -59 8 -43 12 -78 4 -92 -22 -9
-17 -8 -18 17 -10 34 12 88 8 88 -5 -3 -50 -32 -102 -95 -167 -39 -39 -73 -68
-77 -65 -3 4 -12 2 -19 -4 -19 -16 -31 16 -14 36 8 10 9 15 2 15 -6 0 -15 -8
-21 -17 -5 -10 -13 -14 -17 -10 -4 4 3 21 15 38 l23 31 -26 -17 c-22 -15 -26
-15 -26 -2 0 8 10 22 23 30 12 9 17 16 10 16 -16 1 -66 -62 -73 -91 -7 -29
-60 -39 -60 -13 0 11 5 15 14 12 10 -4 17 2 22 16 3 12 24 39 46 60 54 50 29
48 -31 -3 -26 -22 -53 -40 -59 -40 -7 0 -12 -5 -12 -11 0 -5 5 -7 11 -3 7 4
10 1 7 -7 -3 -8 -15 -19 -29 -26 -20 -10 -25 -10 -29 2 -6 17 -20 8 -38 -22
-8 -16 -9 -23 -1 -23 6 0 9 -6 6 -14 -3 -8 1 -17 9 -20 39 -15 -2 -68 -61 -77
-26 -4 -75 9 -75 20 0 5 17 27 39 50 21 22 51 57 66 77 15 20 51 61 79 91 28
29 69 74 91 99 22 25 69 67 104 95 35 27 60 49 55 49 -5 0 -35 -20 -66 -45
-32 -25 -62 -45 -68 -45 -21 0 -9 20 30 47 22 15 40 32 40 36 0 5 -22 -10 -50
-33 -29 -25 -50 -36 -50 -28 0 8 5 19 12 26 7 7 8 12 4 12 -4 0 -15 -9 -24
-21 -25 -30 -53 -16 -45 22 6 34 -6 37 -32 9 -10 -11 -22 -17 -28 -13 -6 4 -6
-1 1 -12 7 -14 6 -23 -6 -34 -14 -15 -13 -16 12 -19 46 -6 28 -27 -43 -50 -51
-17 -56 -5 -16 40 40 43 41 59 2 34 -26 -18 -52 -62 -48 -86 1 -11 -1 -11 -9
2 -8 13 -4 32 21 80 l31 63 -32 -30 c-18 -16 -36 -40 -41 -52 -4 -12 -17 -27
-29 -33 -18 -10 -20 -9 -16 12 3 13 10 38 15 57 6 19 9 36 7 38 -4 4 -69 -60
-93 -92 -11 -15 -26 -26 -33 -23 -8 2 6 24 38 58 28 30 49 57 46 59 -3 3 -8 1
-12 -5 -4 -6 -16 -16 -28 -22 -19 -10 -21 -9 -19 13 2 13 6 29 10 35 4 7 -5 4
-20 -6 -27 -18 -28 -18 -17 1 19 36 128 135 149 135 7 0 13 5 13 10 0 6 15 18
34 26 18 9 41 29 50 45 9 15 25 31 36 34 11 4 20 11 20 17 0 5 6 8 13 5 6 -2
28 7 47 20 19 12 40 23 48 23 7 0 30 12 52 26 38 25 39 28 25 44 -21 23 -9 30
51 35 25 1 48 6 52 9 11 12 -21 25 -39 16 -9 -5 -19 -7 -22 -4 -6 6 -3 14 27
71 20 38 20 44 2 37 -7 -3 -16 2 -20 11 -3 9 -2 13 4 10 5 -3 25 11 44 32 20
21 36 33 36 27 0 -7 -6 -14 -14 -17 -8 -3 -20 -15 -26 -27 -25 -46 37 10 75
68 24 36 30 50 16 38 -11 -11 -21 -14 -21 -8 0 7 -6 12 -14 12 -25 0 -30 22
-10 38 18 13 18 14 -5 7 -24 -7 -23 -7 5 31 l29 38 -33 -23 c-18 -12 -39 -35
-47 -50 -14 -28 -117 -133 -123 -126 -2 2 4 16 14 31 18 27 18 27 -4 15 -14
-8 -22 -8 -22 -1 0 5 -6 10 -13 10 -7 0 -19 9 -27 20 -8 11 -20 20 -27 20 -7
0 -13 4 -13 8 0 5 -18 18 -40 31 -22 12 -40 28 -40 34 0 7 13 27 29 45 17 17
26 32 21 32 -5 0 -12 -4 -15 -10 -3 -5 -16 -10 -28 -10 -19 1 -17 5 18 37 22
20 32 33 23 30 -10 -4 -26 -10 -35 -14 -13 -4 -11 2 8 23 14 16 32 38 40 49
17 24 19 25 -83 -54 -38 -29 -68 -48 -68 -43 0 6 5 14 10 17 6 3 10 11 10 17
0 7 -13 -1 -29 -16 -16 -15 -37 -26 -47 -24 -13 2 -7 10 25 31 23 15 46 25 50
22 5 -3 21 10 37 27 15 18 40 43 56 55 50 36 120 105 113 111 -3 3 -24 -12
-46 -34 l-40 -39 -22 25 c-12 14 -30 24 -39 22 -10 -2 -25 4 -34 12 -8 9 -22
16 -29 16 -7 0 -15 10 -17 23 -3 18 -9 12 -33 -33 -23 -42 -36 -56 -55 -58
-44 -4 -53 9 -35 52 23 55 12 55 -14 1 -19 -40 -24 -44 -41 -35 -19 10 -19 13
-5 48 l15 37 -24 -28 c-31 -38 -36 -23 -35 91 1 90 -12 157 -42 230 -10 23
-17 42 -14 42 10 0 46 -73 58 -121 l14 -54 5 43 c5 62 -46 168 -80 165 -13 -2
-21 1 -18 5 3 5 -30 38 -73 75 -108 91 -163 110 -336 111 -111 1 -129 -1 -126
-14 3 -8 6 -142 7 -296 1 -155 5 -303 8 -329 5 -30 3 -52 -5 -61 -19 -24 -28
-16 -22 20 6 38 -3 86 -16 86 -4 0 -9 -23 -10 -52 -2 -58 -9 -74 -18 -40 -5
20 -7 21 -18 6 -7 -11 -19 -15 -29 -11 -20 8 -14 45 17 97 19 31 19 33 3 20
-11 -8 -25 -30 -33 -47 -15 -38 -23 -43 -16 -10 3 16 2 18 -5 8 -5 -7 -8 -30
-5 -50 5 -36 -15 -107 -24 -83 -3 6 -9 12 -14 12 -4 0 -5 -8 -2 -17 5 -12 2
-15 -10 -10 -13 5 -17 1 -17 -19 0 -39 -18 -64 -46 -64 -24 0 -25 1 -18 53 4
34 3 49 -3 42 -17 -17 -32 -72 -26 -94 4 -17 1 -21 -20 -21 -44 0 -80 18 -73
37 6 16 6 16 -12 0 -24 -22 -32 -21 -32 4 0 27 -24 19 -28 -9 -2 -14 -13 -24
-28 -28 -34 -9 -37 -2 -24 43 7 21 10 50 8 63 -4 20 -6 16 -13 -18 -4 -24 -14
-49 -21 -57 -8 -7 -14 -20 -14 -28 0 -20 -35 -28 -57 -12 -16 12 -16 18 -6 56
14 53 10 61 -11 20 -24 -46 -20 -65 24 -105 22 -20 40 -40 40 -44 0 -13 -59
-102 -68 -102 -4 0 -18 9 -30 21 -19 17 -23 18 -28 5 -10 -27 18 -54 53 -51
l33 3 -21 -29 c-25 -36 -35 -36 -79 2 l-35 29 18 51 c10 28 16 53 13 57 -8 7
-10 4 -27 -42 -8 -22 -19 -41 -25 -43 -6 -2 -27 13 -47 33 -24 24 -37 32 -37
22 0 -21 95 -118 153 -156 l48 -32 37 37 c21 21 31 38 24 41 -14 4 6 47 46
100 19 25 27 30 34 20 7 -9 8 -6 5 10 -3 15 0 22 9 22 8 0 14 7 14 16 0 8 4
12 10 9 14 -8 -12 -66 -55 -125 -19 -26 -35 -52 -35 -58 0 -5 -7 -15 -15 -22
-8 -7 -15 -18 -15 -26 0 -7 21 8 46 34 28 28 36 34 20 14 -14 -19 -26 -38 -26
-43 0 -15 35 12 56 42 18 28 34 37 34 21 0 -4 -7 -18 -16 -30 -9 -13 -13 -26
-10 -29 3 -4 6 -1 6 6 0 9 8 11 21 8 14 -4 19 -2 16 8 -4 9 1 11 15 7 12 -3
26 1 32 9 6 8 22 20 34 27 26 15 31 13 95 -47 24 -23 37 -30 37 -20 0 13 -40
79 -74 125 -6 8 -3 18 9 30 17 18 19 17 44 -16 38 -50 71 -83 78 -76 3 3 1 11
-5 19 -15 17 -5 54 25 93 14 19 21 38 17 48 -3 9 -2 16 3 16 13 0 33 -46 33
-75 0 -27 21 -34 37 -12 5 6 20 46 32 87 13 41 27 79 31 83 12 14 19 -35 10
-83 -4 -25 -8 -39 -9 -32 0 7 -5 10 -11 7 -12 -7 -14 -26 -2 -24 31 5 34 -2
30 -65 l-4 -64 53 -6 c62 -7 232 18 277 41 45 23 135 101 159 139 28 42 35 43
29 2 -4 -31 -3 -32 13 -16 10 9 19 28 21 42 1 15 10 33 19 42 12 13 13 19 4
24 -6 4 -8 13 -4 20 6 9 9 9 16 -1 6 -10 9 -8 9 9 0 12 -5 22 -11 22 -7 0 -5
10 5 25 9 14 14 29 12 34 -6 9 21 37 28 30 3 -2 -4 -22 -15 -43 -10 -22 -17
-41 -14 -44 4 -4 41 51 48 71 3 11 57 -2 57 -13 0 -5 -6 -15 -13 -22 -26 -27
-57 -71 -57 -81 0 -6 18 9 40 33 22 24 40 39 40 35 0 -5 -10 -19 -22 -32 -12
-13 -19 -26 -15 -29 10 -10 26 5 66 64 50 75 95 122 115 122 28 0 17 -18 -54
-90 -38 -39 -70 -77 -70 -85 0 -8 -5 -14 -12 -13 -7 2 -12 -3 -13 -9 0 -7 -17
-24 -37 -38 -34 -23 -38 -24 -38 -8 -1 15 -4 15 -20 -6 -27 -31 -26 -11 1 23
11 14 16 26 10 26 -7 0 -7 8 1 25 6 14 14 25 17 25 4 0 15 14 24 30 18 30 9
42 -12 16 -7 -8 -29 -48 -50 -90 l-39 -75 24 -16 c30 -19 40 -19 72 4 31 21
125 33 189 24 39 -5 43 -8 37 -27 -11 -37 -10 -40 16 -44 14 -2 41 -18 61 -36
20 -17 46 -39 57 -48 15 -12 22 -29 22 -53 0 -22 6 -38 18 -44 45 -26 47 -28
32 -46 -17 -21 -21 -54 -8 -78 8 -15 5 -22 -12 -34 -12 -8 -19 -21 -16 -28 3
-9 -14 -24 -47 -41 -29 -14 -71 -44 -94 -65 -43 -40 -78 -55 -52 -22 13 15 12
15 -6 6 -27 -14 -91 -10 -87 6 1 8 -6 6 -21 -4 -21 -14 -26 -14 -36 -1 -7 8
-10 20 -6 25 3 7 0 8 -9 5 -24 -9 -19 7 12 39 20 22 22 27 7 19 -11 -6 -27
-20 -35 -31 -8 -12 -22 -21 -32 -21 -21 0 -22 4 -7 33 12 22 12 22 -10 3 -21
-19 -21 -19 -21 2 0 11 5 24 10 27 6 3 10 11 10 17 0 5 -13 -4 -29 -21 -30
-32 -45 -38 -56 -21 -3 6 -15 10 -27 10 -15 0 -18 3 -11 13 6 6 13 26 17 42
l7 30 -33 -33 c-19 -18 -37 -30 -40 -27 -3 3 -11 -1 -18 -10 -17 -21 -30 -19
-30 5 0 11 3 19 8 18 12 -5 48 26 62 52 10 21 8 20 -18 -7 -30 -32 -56 -47
-32 -19 6 8 14 29 17 46 2 18 13 46 24 64 10 17 19 36 19 41 0 15 -41 -55 -53
-90 -6 -16 -22 -48 -36 -70 -14 -22 -29 -47 -33 -55 -4 -10 -7 -7 -7 11 -1 14
4 30 11 37 6 6 9 14 6 17 -3 3 -16 -10 -28 -30 -12 -20 -24 -34 -27 -32 -6 7
15 120 33 169 23 67 10 54 -19 -18 -14 -36 -24 -74 -22 -85 3 -15 0 -19 -11
-15 -12 5 -14 1 -8 -16 6 -20 5 -21 -10 -6 -9 9 -17 25 -17 35 -1 10 -5 2 -10
-17 -6 -28 -7 -23 -5 25 2 33 6 69 10 80 3 11 -1 4 -10 -15 -10 -19 -18 -52
-18 -72 -1 -38 -10 -49 -19 -25 -3 6 -6 2 -6 -9 -1 -24 -33 -38 -50 -21 -6 6
-11 29 -11 51 0 21 -3 36 -7 32 -4 -4 -8 -17 -8 -29 0 -27 -23 -32 -50 -11
-17 13 -18 16 -5 24 8 5 11 10 6 10 -5 0 -17 -7 -27 -16 -14 -13 -20 -13 -38
-2 -12 7 -21 16 -21 20 0 4 -7 5 -15 2 -8 -4 -15 -2 -15 2 0 5 -11 9 -25 9
-40 0 -29 -14 31 -41 56 -25 56 -25 51 -61 -7 -41 -32 -73 -57 -73 -10 0 -23
-7 -30 -15 -19 -22 -40 0 -40 41 0 49 -16 50 -29 0 -7 -27 -20 -50 -35 -60
-32 -20 -37 -20 -29 1 4 11 3 14 -5 9 -7 -4 -12 -13 -12 -20 0 -8 -7 -19 -15
-26 -23 -19 -32 16 -11 39 13 15 14 21 5 27 -8 5 -24 -6 -44 -29 -32 -36 -58
-47 -70 -27 -3 6 -13 10 -21 10 -12 0 -11 -5 5 -26 37 -47 23 -80 -54 -125
l-39 -23 17 24 c9 14 17 31 16 40 0 13 -2 13 -6 1 -8 -20 -50 -61 -63 -61 -5
0 -10 7 -10 16 0 13 -3 14 -15 4 -8 -7 -13 -16 -10 -20 3 -5 1 -11 -5 -15 -15
-10 -12 -35 5 -35 8 0 15 -4 15 -9 0 -5 -7 -11 -15 -15 -8 -3 -15 -1 -15 5 0
6 -5 7 -11 3 -8 -4 -7 -9 2 -14 9 -6 6 -16 -14 -40 -15 -17 -27 -36 -27 -42 0
-6 2 -9 4 -7 2 2 25 29 50 59 26 30 52 55 59 55 7 1 23 7 37 14 l25 14 -19
-22 c-11 -11 -15 -21 -10 -21 5 0 5 -4 -1 -8 -12 -9 -78 -91 -90 -112 -4 -8 4
-4 18 9 15 14 27 19 27 12 0 -7 12 1 26 18 14 17 31 31 37 31 8 0 7 -4 -1 -12
-7 -7 -12 -17 -12 -22 0 -6 5 -3 11 6 5 10 9 19 8 20 -1 2 8 22 20 46 13 26
33 47 49 53 17 6 22 13 15 17 -8 5 -1 22 24 52 29 36 35 40 30 20 -4 -14 -7
-31 -7 -38 0 -7 -4 -11 -9 -7 -5 3 -12 1 -16 -5 -3 -5 -1 -10 6 -10 7 0 2 -9
-10 -19 -13 -11 -20 -24 -17 -29 3 -5 -9 -27 -27 -48 -18 -21 -52 -65 -76 -96
-24 -32 -50 -58 -58 -58 -8 0 -28 7 -45 16 -17 9 -49 18 -72 20 -44 4 -52 10
-58 39 -5 19 -5 19 -13 2 -12 -27 14 -70 39 -63 16 4 49 -6 65 -21 3 -2 -13
-21 -34 -43 -21 -22 -36 -42 -33 -45 3 -4 25 14 49 39 37 38 47 43 66 36 15
-6 21 -15 16 -25 -3 -10 -8 -13 -12 -6 -9 14 -105 -130 -134 -199 -13 -30 -31
-70 -41 -89 l-18 -35 -13 30 c-10 24 -10 32 2 46 8 9 12 22 8 28 -3 6 -1 9 6
8 6 -2 12 7 14 19 1 13 10 32 20 43 10 11 13 20 7 20 -7 0 -12 -4 -12 -9 0 -5
-11 -8 -24 -8 -22 0 -23 1 -9 29 16 31 8 55 -8 25 -10 -17 -12 -17 -40 0 -26
16 -40 43 -21 43 14 1 117 98 110 105 -4 4 -24 -9 -44 -29 -20 -20 -44 -37
-53 -37 -48 -4 -61 -8 -97 -33 -21 -14 -42 -26 -45 -26 -11 0 -8 232 3 254 6
12 22 32 35 46 20 20 26 22 34 10 12 -20 11 -26 -6 -40 -8 -7 -15 -23 -15 -36
0 -12 -4 -26 -10 -29 -5 -3 -10 -11 -10 -18 0 -6 7 0 16 13 10 14 35 45 58 69
23 24 36 41 30 38 -6 -4 -21 4 -33 17 -24 26 -31 77 -12 99 6 8 9 21 5 30 -3
8 -1 25 6 36 14 27 2 27 -27 -1 -24 -22 -31 -48 -13 -48 5 0 -7 -15 -28 -34
-44 -41 -52 -39 -21 6 12 18 16 27 9 21 -8 -7 -18 -13 -22 -13 -8 0 40 63 120
159 21 24 44 54 52 66 8 13 26 38 38 56 13 19 4 12 -20 -16 -23 -27 -58 -65
-77 -85 -29 -30 -31 -31 -17 -7 9 15 12 27 6 27 -5 0 -10 5 -10 10 0 6 5 10
12 10 14 0 48 30 48 42 0 4 -5 8 -12 8 -6 0 -9 -3 -5 -6 7 -7 -17 -34 -30 -34
-5 0 -20 -15 -33 -32 -22 -31 -22 -32 -2 -14 12 11 22 14 22 8 0 -6 -5 -14
-10 -17 -6 -4 -9 -14 -6 -23 7 -23 -63 -119 -74 -102 -16 25 0 82 37 137 55
82 59 93 19 48 -20 -22 -39 -48 -42 -57 -13 -41 -23 -13 -23 65 -3 490 -6 464
76 570 24 31 42 57 38 57 -3 0 8 21 26 48 l32 47 -47 -45 c-25 -24 -46 -40
-46 -36 0 13 138 194 152 199 7 3 3 6 -9 6 -16 1 -41 -23 -94 -89 -60 -76 -89
-104 -89 -86 0 14 32 75 45 86 33 27 78 92 85 123 4 18 11 40 15 50 6 13 3 16
-9 11 -9 -3 -16 -15 -16 -26 0 -32 -30 -80 -89 -140 -31 -32 -59 -58 -63 -58
-5 0 -8 14 -8 30 0 17 5 30 10 30 6 0 10 -10 10 -22 0 -22 0 -22 17 2 9 14 19
27 23 30 3 3 11 19 19 35 l13 30 -29 -27 c-51 -48 -87 -30 -40 20 21 24 21 24
1 14 -12 -6 -24 -8 -28 -5 -3 3 -6 42 -6 86 0 78 0 79 24 73 35 -9 38 3 11 36
-14 16 -25 42 -25 57 0 25 7 31 56 50 67 25 92 26 122 5 22 -15 25 -15 46 5
12 12 30 21 39 21 12 0 15 7 10 34 -4 29 -1 37 21 52 26 16 29 16 62 1 41 -20
44 -20 44 -5 0 16 41 58 57 58 14 0 17 12 7 23 -4 4 -24 -9 -46 -28 -31 -29
-42 -34 -58 -25 -28 15 -67 12 -82 -6 -7 -9 -31 -36 -54 -61 -40 -46 -41 -46
-67 -28 -25 16 -28 16 -83 -9 -31 -14 -62 -26 -69 -26 -9 0 -14 92 -19 398 -3
218 -9 433 -12 477 l-6 80 131 131 c72 73 131 139 131 148 0 24 39 59 58 51 8
-3 56 -8 106 -10z m803 -1158 c88 -23 191 -114 235 -206 23 -49 29 -75 26
-111 -1 -27 0 -46 5 -43 9 5 11 -7 11 -93 1 -40 -2 -67 -5 -62 -4 6 -12 2 -18
-11 -10 -17 -9 -22 4 -27 25 -10 20 -92 -9 -135 -22 -33 -31 -37 -95 -47 -38
-7 -86 -12 -106 -12 -35 0 -83 -17 -117 -42 -9 -7 -19 -10 -22 -7 -3 3 -8 102
-11 220 -3 118 -7 298 -10 402 l-4 187 32 0 c18 0 56 -6 84 -13z m-1239 -926
l2 -283 -56 -69 c-74 -91 -87 -98 -34 -18 33 49 37 58 17 40 -15 -14 -27 -29
-27 -35 0 -13 -61 -76 -73 -76 -5 0 5 17 21 38 16 20 35 48 41 62 l12 25 -24
-27 c-14 -15 -32 -37 -41 -49 -13 -20 -18 -21 -41 -11 -15 7 -31 10 -36 6 -14
-8 -50 36 -42 50 29 46 71 92 84 88 12 -3 12 -2 0 6 -8 6 -12 19 -9 29 4 15 0
19 -16 19 -16 -1 -20 4 -18 23 2 20 0 22 -12 12 -16 -14 -56 1 -56 20 0 11 76
48 98 49 7 0 25 11 40 25 26 25 26 25 4 25 -12 0 -22 5 -22 10 0 6 11 8 25 4
29 -7 30 -5 10 32 -23 45 -19 64 15 70 16 4 36 17 45 30 9 14 25 24 40 24 36
0 41 19 12 44 -36 29 -42 70 -14 102 11 14 28 23 37 22 13 -3 15 -41 18 -287z
m3 -418 c-1 -59 -4 -109 -6 -111 -9 -9 -45 20 -38 31 15 23 31 77 22 77 -4 0
-11 -9 -14 -20 -3 -11 -11 -20 -16 -20 -6 0 -8 -4 -4 -9 8 -13 -33 -79 -57
-92 -16 -8 -24 -7 -37 8 -19 20 -17 43 5 43 8 0 11 -6 7 -16 -5 -14 -3 -14 27
1 31 16 32 17 12 31 -12 8 -28 11 -39 7 -10 -4 8 22 40 58 32 35 65 79 74 96
9 18 19 30 22 28 3 -3 4 -54 2 -112z m1355 -238 l-5 -50 19 43 c10 23 26 45
35 49 10 3 13 8 6 12 -6 4 -3 17 9 36 11 17 20 25 20 18 0 -6 -4 -15 -10 -18
-5 -3 -10 -11 -10 -17 0 -6 9 -3 20 7 25 22 26 12 2 -23 -10 -15 -23 -38 -29
-52 -6 -14 -18 -42 -27 -63 -10 -20 -22 -60 -29 -87 -6 -28 -15 -50 -19 -50
-3 0 -12 -26 -18 -57 -6 -32 -15 -72 -21 -89 -5 -17 -9 -47 -9 -67 0 -25 -5
-37 -14 -37 -18 0 -23 -224 -5 -246 9 -11 9 -14 0 -14 -8 0 -10 -8 -5 -22 11
-35 12 -64 19 -333 3 -137 8 -263 10 -280 14 -106 18 -125 27 -125 6 0 7 11 3
27 -11 44 -16 185 -6 179 4 -3 9 -40 10 -83 1 -42 7 -83 13 -90 7 -9 7 -17 -2
-28 -17 -21 -8 -102 25 -215 31 -108 59 -167 89 -192 12 -10 28 -24 37 -33 12
-11 33 -15 75 -13 55 2 97 -11 188 -60 24 -13 -26 41 -62 68 -23 17 -42 32
-42 35 0 6 51 -16 65 -27 5 -4 17 -8 26 -8 9 0 22 -7 29 -15 7 -8 25 -15 41
-15 19 0 29 -5 29 -15 0 -17 9 -19 30 -5 13 8 13 10 -2 10 -9 0 -21 6 -25 13
-4 7 -25 23 -45 36 -21 12 -38 26 -38 31 0 14 36 21 66 14 25 -7 26 -8 9 -15
-14 -5 -15 -8 -5 -9 8 -1 26 -4 40 -6 14 -3 52 -7 85 -10 33 -2 83 -11 110
-19 100 -28 236 -42 216 -22 -6 6 -29 12 -51 13 -23 1 -44 4 -47 8 -4 3 -25 6
-48 6 -40 0 -95 18 -95 32 0 14 21 19 52 10 39 -10 118 -4 118 9 0 5 -17 9
-37 9 -21 0 -76 -1 -122 -1 -47 0 -88 -2 -93 -5 -4 -3 -8 -1 -8 4 0 5 14 15
32 23 17 7 27 14 20 17 -6 2 -29 -6 -52 -18 -50 -25 -70 -17 -39 16 29 31 18
30 -35 -1 -24 -14 -45 -22 -49 -19 -3 4 6 22 20 41 14 18 23 37 19 40 -4 4
-18 -7 -32 -25 -30 -37 -52 -42 -49 -9 3 29 -3 37 -21 30 -11 -4 -12 -9 -3
-19 9 -11 6 -14 -18 -14 -16 0 -33 -4 -38 -9 -19 -17 -73 1 -112 38 -39 38
-64 81 -105 185 -19 50 -21 60 -8 64 8 2 43 33 77 68 86 89 128 186 145 339
14 124 14 103 -8 295 -9 77 -58 204 -100 262 -37 50 -40 87 -6 73 9 -4 37 -8
62 -9 33 -1 46 -5 48 -18 2 -10 -5 -19 -18 -23 -32 -10 -18 -29 26 -35 21 -3
44 -9 50 -12 6 -4 22 -1 37 7 15 7 41 15 59 17 47 4 67 43 49 93 -7 20 -11 38
-8 41 2 2 20 -3 40 -11 35 -15 67 -12 67 6 0 20 30 20 57 0 27 -21 30 -21 76
-5 37 13 52 24 64 49 11 23 25 35 45 39 15 3 31 14 35 23 4 10 13 23 21 29 9
7 13 20 9 33 -7 30 11 79 31 85 80 22 76 24 143 -66 34 -46 79 -119 100 -163
52 -108 130 -384 129 -454 -1 -34 -20 18 -36 96 -18 93 -23 108 -30 100 -3 -3
11 -90 31 -194 33 -170 37 -200 32 -308 -5 -140 -55 -405 -89 -475 -13 -25
-23 -48 -23 -51 0 -3 -8 -17 -17 -30 -10 -13 -32 -51 -49 -84 -52 -100 -186
-256 -232 -271 -29 -9 -100 -58 -137 -94 -46 -45 -303 -124 -500 -155 -191
-30 -442 -43 -660 -34 -529 22 -766 27 -777 15 -4 -3 20 -6 53 -6 32 0 66 -5
74 -10 10 -6 -42 -10 -157 -10 l-172 0 5 33 c10 76 16 859 9 1261 -2 127 2
169 16 160 5 -3 9 -1 9 5 0 5 -5 11 -12 13 -12 4 -21 128 -9 128 3 0 4 79 3
175 -4 168 -3 175 16 175 10 0 29 9 42 20 13 11 28 20 33 20 15 0 -23 -39 -44
-45 -24 -8 -24 -24 -1 -32 9 -4 20 -11 24 -17 4 -6 16 -6 34 2 14 7 28 11 31
9 4 -5 -22 -33 -35 -39 -35 -13 -2 -108 37 -108 30 0 45 -24 29 -49 -11 -19
-9 -24 22 -49 l34 -29 46 22 c25 13 62 30 83 40 21 10 42 26 47 36 12 22 48
19 103 -7 35 -17 40 -17 65 -2 15 9 30 30 35 48 4 17 14 33 22 37 8 3 15 13
15 22 0 9 9 31 20 49 11 17 17 32 15 32 -3 0 -1 9 5 20 6 11 15 18 20 15 5 -3
12 4 15 16 4 11 9 18 12 16 2 -3 -2 -18 -11 -34 -8 -15 -16 -23 -16 -18 0 6
-9 -14 -20 -43 -10 -29 -30 -66 -44 -83 -31 -37 -33 -49 -6 -42 11 3 20 10 20
15 0 5 5 6 10 3 12 -7 -6 -46 -26 -58 -18 -11 -18 -27 1 -27 8 0 29 18 46 40
24 30 40 40 61 40 18 0 28 5 28 15 0 9 11 21 25 27 14 6 25 17 25 23 0 7 8 15
18 19 9 3 25 11 34 18 34 25 38 -1 37 -252 -2 -321 -1 -519 3 -715 l3 -160 33
-3 c17 -2 32 -7 32 -12 0 -4 -20 -34 -44 -66 -75 -101 -186 -193 -186 -154 0
6 6 10 13 10 8 0 23 19 33 42 10 23 29 57 41 75 37 54 11 37 -34 -24 -24 -31
-43 -62 -43 -69 0 -25 -16 -14 -28 19 -6 18 -19 42 -27 52 -14 19 -15 18 -8
-10 3 -16 15 -50 26 -74 21 -48 24 -42 -48 -86 -22 -13 -52 -27 -67 -30 -16
-4 -28 -11 -28 -16 0 -5 1 -9 3 -9 17 0 123 45 194 84 92 48 148 100 216 200
39 58 97 264 97 347 0 14 3 29 7 32 11 11 19 259 9 275 -3 5 -7 42 -11 83 -3
41 -8 92 -11 114 -3 22 -7 51 -9 65 -9 74 -93 252 -148 316 -25 28 -79 64
-181 118 -80 44 -160 91 -178 106 -32 27 -32 28 -8 25 14 -1 50 -16 81 -33 31
-17 87 -41 124 -54 55 -18 85 -38 158 -102 49 -44 84 -70 78 -58 -6 11 -16 24
-21 27 -16 10 -90 113 -90 125 0 5 -6 9 -12 8 -14 -3 -14 5 -3 35 11 26 -10
20 -23 -7 -8 -18 -16 -22 -36 -19 -14 3 -26 9 -26 13 0 4 13 33 28 64 27 52
30 55 45 38 8 -9 38 -65 66 -124 28 -60 56 -108 62 -108 7 0 8 7 4 18 -4 9
-11 32 -17 50 -5 18 -17 47 -27 65 -10 18 -31 66 -46 107 -37 97 -61 135 -125
193 -29 26 -50 51 -46 54 12 13 60 -24 124 -94 36 -40 69 -73 72 -73 4 0 -4
22 -17 48 -13 27 -21 56 -17 65 9 24 26 9 19 -16 -5 -17 -4 -19 4 -7 8 12 15
5 32 -35 12 -27 23 -59 24 -70 4 -34 5 -35 18 -33 7 2 13 -10 15 -27 2 -16 12
-41 23 -56 10 -15 19 -32 19 -39 0 -7 9 -24 20 -40 11 -15 17 -30 13 -34 -3
-3 -19 12 -36 35 -36 48 -44 45 -20 -7 17 -36 118 -174 128 -174 15 0 0 35
-35 79 -23 29 -35 51 -27 51 7 0 26 -20 42 -46 33 -51 45 -63 38 -34 -3 11 0
34 7 50 12 30 11 32 -36 75 -42 38 -46 44 -27 45 12 0 25 -5 28 -10 15 -25 74
66 75 115 0 11 9 38 20 60 10 22 27 84 37 139 l18 99 13 -54 c7 -30 10 -76 8
-104z m384 140 c-8 -9 -9 -15 -2 -15 6 0 14 5 17 10 3 6 16 10 28 9 14 0 16
-2 7 -6 -61 -20 -124 -62 -144 -95 -11 -21 -25 -38 -29 -38 -5 0 -5 5 -1 12 4
7 3 8 -5 4 -6 -4 -9 -11 -7 -15 3 -4 -9 -21 -27 -37 -18 -16 -26 -22 -19 -14
6 8 12 18 12 23 0 14 -72 -46 -93 -78 -10 -16 -16 -21 -13 -10 6 18 5 17 -16
-4 -15 -15 -19 -25 -11 -28 7 -2 9 -11 6 -19 -12 -32 18 -11 37 25 11 22 24
42 30 46 16 10 12 -6 -7 -27 -9 -10 -13 -21 -10 -24 3 -4 18 8 32 25 15 17 32
31 38 31 6 0 -1 -12 -15 -27 -39 -42 -49 -68 -39 -96 5 -13 17 -27 25 -30 22
-9 20 -23 -10 -87 -23 -51 -60 -100 -73 -100 -3 0 -21 14 -40 30 -33 30 -34
31 -27 88 4 31 7 70 7 85 -1 17 3 26 9 22 5 -3 7 0 4 8 -3 8 6 39 19 69 25 56
74 105 133 133 34 16 122 85 158 122 23 25 46 32 26 8z m-619 -207 c1 -7 0
-21 0 -31 -2 -15 1 -16 22 -6 37 17 77 -12 72 -53 -9 -69 -66 -89 -104 -37
-19 25 -21 36 -13 54 9 19 8 22 -6 21 -21 -1 -29 43 -10 55 19 13 38 11 39 -3z
m839 -130 c-17 -24 -66 -81 -109 -128 -43 -47 -93 -102 -110 -122 -30 -35 -33
-36 -59 -22 -15 8 -33 14 -40 14 -7 0 -11 4 -7 10 3 5 12 7 20 3 19 -7 48 16
41 33 -2 6 4 14 15 17 10 3 19 10 19 16 0 14 -70 -23 -105 -55 -15 -14 -31
-24 -35 -22 -13 5 37 75 72 99 28 20 31 20 18 4 -8 -11 -19 -23 -25 -27 -7 -5
-7 -8 0 -8 17 0 55 30 55 44 0 11 56 56 100 81 29 16 -24 -36 -57 -56 -19 -12
-32 -23 -30 -25 7 -7 63 25 87 51 13 14 31 25 41 25 9 0 22 7 29 15 15 18 0
20 -20 3 -12 -11 -12 -10 0 5 7 10 19 16 25 13 7 -2 30 13 51 35 50 51 62 50
24 -3z m-329 -92 c-40 -71 -123 -200 -163 -255 -18 -24 -37 -52 -43 -61 -5
-10 -25 -42 -42 -71 -18 -30 -33 -62 -33 -71 0 -9 -5 -20 -11 -24 -6 -3 -9
-17 -6 -30 2 -13 0 -21 -4 -18 -5 3 -9 -2 -9 -10 0 -9 -4 -16 -10 -16 -13 0
-13 23 1 37 7 7 6 15 -5 26 -16 15 -19 117 -3 117 4 0 7 6 7 13 0 14 26 41 94
99 35 29 120 150 155 219 7 15 23 37 35 50 12 14 31 38 42 54 33 50 29 1 -5
-59z m-56 -318 c56 -94 86 -197 93 -311 7 -136 -8 -197 -62 -244 -40 -34 -148
-93 -171 -93 -16 0 -24 89 -23 250 0 140 11 229 38 310 21 62 68 150 80 150 4
0 24 -28 45 -62z"/>
<path d="M9315 7294 c-22 -13 -51 -24 -65 -24 -41 -1 -112 -75 -135 -142 l-19
-58 -37 6 c-33 6 -41 2 -64 -22 -22 -24 -34 -29 -78 -29 -43 0 -53 -4 -63 -23
-6 -13 -24 -36 -39 -52 -35 -37 -29 -77 15 -93 30 -11 40 -40 20 -52 -5 -3
-10 -16 -10 -29 0 -12 -5 -27 -12 -34 -22 -22 0 -23 26 -1 20 17 26 32 26 61
0 21 6 54 14 73 9 21 11 37 5 40 -5 4 -13 -5 -19 -19 -12 -32 -20 -32 -49 -2
l-23 25 27 25 c15 14 34 26 41 26 7 0 10 8 7 21 -6 20 -3 21 33 16 21 -3 51
-9 67 -12 23 -6 26 -5 21 9 -13 35 54 64 82 36 7 -7 19 5 38 40 15 27 24 50
20 50 -4 0 0 8 8 18 8 9 18 25 21 35 4 10 17 17 32 17 18 0 25 5 25 18 0 14
15 24 58 38 31 10 61 25 65 31 11 18 72 16 87 -2 7 -9 15 -13 18 -10 3 3 -3
14 -13 25 -24 27 -79 25 -130 -6z"/>
<path d="M9427 7240 c32 -19 51 -59 38 -80 -4 -6 6 -13 24 -16 23 -5 36 -16
47 -40 19 -39 31 -42 76 -14 18 11 40 20 49 20 9 0 24 10 35 21 10 12 36 32
57 46 33 21 41 22 64 11 38 -19 48 -53 22 -79 l-21 -21 48 -43 c45 -40 48 -45
36 -65 -12 -20 -11 -20 8 -10 23 12 26 4 7 -19 -8 -9 -24 -34 -37 -56 -23 -39
-23 -40 -2 -21 19 16 26 17 48 8 23 -11 25 -16 20 -69 -4 -52 -4 -55 12 -40
10 11 15 30 14 51 -2 32 0 36 32 45 20 5 44 7 55 4 12 -3 39 9 71 31 48 33 56
36 115 32 35 -2 68 -7 74 -10 14 -9 14 -49 -1 -64 -13 -13 5 -42 26 -42 30 0
34 -23 10 -49 -13 -14 -24 -29 -24 -33 0 -12 38 -48 50 -48 13 0 13 23 -1 37
-8 8 -7 17 5 34 24 35 20 67 -9 81 -20 9 -25 18 -25 49 0 48 -25 67 -98 76
-38 4 -58 2 -76 -10 -14 -9 -40 -25 -58 -36 -33 -18 -35 -18 -57 0 -28 23 -64
24 -81 4 -7 -8 -19 -15 -26 -15 -10 0 -11 6 -4 26 17 43 12 54 -40 104 -47 45
-49 49 -40 81 15 51 13 58 -22 79 -45 27 -92 26 -115 -3 -27 -33 -69 -57 -80
-46 -6 6 -17 -2 -31 -21 -23 -30 -62 -41 -62 -17 0 8 -18 30 -40 50 -22 19
-40 44 -40 54 0 28 -20 43 -54 43 l-31 0 32 -20z"/>
<path d="M10361 6660 c-28 -24 -45 -26 -37 -5 3 8 3 15 0 15 -9 0 -246 -242
-241 -246 8 -8 58 16 53 25 -7 10 2 20 64 71 24 19 49 41 57 49 8 7 16 11 19
9 7 -7 -61 -78 -74 -78 -7 0 -12 -4 -12 -10 0 -5 -6 -10 -14 -10 -8 0 -17 -7
-20 -16 -3 -8 -2 -12 4 -9 6 3 10 1 10 -6 0 -7 8 -5 20 6 11 10 23 15 28 11 7
-7 -18 -31 -42 -39 -6 -2 -8 -8 -3 -12 4 -5 17 1 30 12 26 24 57 36 57 23 0
-6 -4 -10 -8 -10 -12 0 -56 -39 -51 -45 3 -2 27 16 54 41 40 36 47 47 35 54
-12 8 -10 14 13 38 15 15 27 33 27 40 0 7 14 12 32 12 31 0 31 0 12 21 -19 21
-19 22 4 36 12 9 22 22 22 29 0 19 -10 17 -39 -6z"/>
<path d="M9548 3655 c-3 -49 -12 -109 -21 -132 -9 -26 -11 -43 -5 -43 6 0 5
-6 -2 -15 -7 -8 -10 -21 -6 -30 3 -8 0 -14 -7 -12 -7 1 -12 -5 -13 -13 0 -8
-5 -26 -11 -40 -6 -14 -16 -39 -23 -56 -6 -17 -33 -52 -61 -78 -68 -65 -40
-74 36 -12 31 25 63 46 71 46 14 0 22 3 82 33 17 9 32 12 32 8 0 -4 17 -15 38
-24 20 -9 61 -30 91 -47 52 -29 109 -41 96 -20 -3 6 -16 10 -27 10 -12 0 -44
18 -73 39 -28 21 -60 40 -70 42 -13 3 -22 17 -28 42 -10 41 -22 48 -30 17 -7
-26 -27 -26 -27 1 0 11 -5 17 -10 14 -6 -4 -7 -12 -4 -18 5 -8 4 -9 -3 -2 -7
7 -8 52 -3 136 5 88 4 145 -4 185 l-12 59 -6 -90z"/>
<path d="M12540 7933 c-115 -4 -145 -16 -83 -32 44 -12 331 -10 351 2 6 5 12
15 12 23 0 15 -10 15 -280 7z"/>
<path d="M12645 7221 c-71 -18 -165 -58 -220 -94 -27 -17 -28 -18 -5 -12 15 4
4 -7 -30 -30 -30 -21 -66 -47 -80 -59 -23 -20 -23 -20 -10 -1 8 11 23 31 35
44 l20 25 -32 -20 c-17 -10 -46 -37 -62 -59 -17 -22 -48 -61 -69 -87 -52 -66
-129 -224 -152 -311 -46 -182 -49 -362 -8 -507 12 -41 22 -84 23 -95 1 -21
136 -287 271 -535 23 -41 92 -169 154 -283 l112 -208 -17 -102 c-9 -56 -23
-109 -31 -118 -10 -11 -11 -18 -3 -26 9 -9 7 -33 -5 -94 -11 -57 -13 -86 -6
-93 5 -5 10 -21 11 -35 0 -26 1 -26 11 -4 10 20 18 22 102 22 50 1 112 3 139
5 44 3 60 -5 37 -19 -5 -3 -1 -14 10 -25 25 -25 33 -25 25 0 -6 17 -3 19 17
11 13 -5 22 -14 21 -19 -1 -5 7 -12 17 -15 11 -3 20 -1 20 4 0 6 8 5 20 -1 16
-9 19 -8 13 6 -5 14 -1 16 21 12 14 -3 29 -2 31 3 7 10 65 -10 65 -22 0 -5 5
-9 10 -9 7 0 7 6 0 20 -8 15 -6 21 10 30 11 6 26 7 33 3 6 -4 21 -6 31 -4 12
2 17 -2 14 -11 -4 -10 5 -12 38 -9 24 1 44 7 44 11 0 4 -6 8 -12 7 -36 -1 -58
4 -58 14 0 7 11 8 33 3 17 -5 59 -8 92 -7 55 2 58 0 40 -13 -18 -14 -14 -15
45 -9 36 4 82 6 103 5 20 0 37 4 37 10 0 9 -71 16 -109 10 -23 -3 -84 11 -77
18 9 9 32 12 111 16 39 3 75 5 82 5 7 1 10 7 7 15 -5 12 -34 14 -165 11 -142
-3 -160 -2 -168 13 -5 10 -17 67 -26 127 -9 61 -23 142 -31 180 l-13 70 49
100 c27 55 64 127 82 161 51 94 189 385 301 634 13 30 28 66 32 80 4 14 11 30
15 35 14 17 68 217 81 294 20 131 -11 315 -78 461 -78 167 -233 339 -342 379
-32 12 -76 33 -97 47 -64 44 -124 55 -314 60 -147 3 -186 1 -245 -15z m472
-61 c139 -40 269 -106 260 -133 -1 -5 -23 -16 -47 -23 -42 -12 -47 -12 -88 12
-24 15 -68 48 -98 75 -30 27 -58 49 -62 49 -11 -1 99 -99 146 -130 24 -15 39
-30 35 -32 -10 -6 -43 -15 -293 -87 -113 -32 -243 -75 -290 -96 l-85 -37 -20
28 c-21 29 -135 165 -166 199 -14 15 -19 16 -19 5 0 -8 17 -33 38 -55 61 -65
142 -166 142 -177 0 -6 -7 -8 -15 -4 -12 4 -13 2 -4 -12 9 -14 5 -27 -21 -66
-38 -56 -91 -191 -125 -318 -13 -48 -26 -92 -30 -98 -4 -6 -50 -45 -103 -87
-54 -42 -112 -90 -130 -107 -38 -35 -53 -27 -55 28 -1 20 -5 36 -11 36 -5 0
-6 3 -3 7 4 3 1 13 -6 21 -15 19 -20 291 -5 310 6 6 7 12 2 12 -5 0 -3 4 4 9
7 4 14 19 16 32 5 54 74 228 122 313 58 102 78 114 123 74 14 -14 67 -52 116
-87 74 -51 82 -54 45 -21 -25 22 -80 64 -122 93 -43 29 -77 55 -78 58 0 14
144 111 226 153 203 101 387 118 601 56z m345 -211 c22 -23 37 -48 34 -55 -3
-7 8 -25 24 -41 16 -15 27 -31 24 -35 -3 -5 0 -7 7 -6 6 2 14 -3 17 -11 3 -8
0 -11 -7 -7 -22 14 -11 -13 14 -32 28 -23 33 -34 9 -25 -9 3 -4 -6 10 -20 14
-14 26 -32 26 -40 0 -8 7 -28 15 -45 22 -43 32 -141 28 -279 -3 -140 -10 -200
-25 -209 -6 -4 -24 8 -39 27 -36 43 -129 228 -167 334 -49 133 -161 407 -173
421 -12 15 13 31 81 50 70 19 81 17 122 -27z m-242 -26 c0 -10 -7 -85 -15
-168 -18 -190 -20 -274 -3 -257 7 7 16 83 23 204 l10 193 21 -40 c28 -53 103
-234 153 -368 22 -60 61 -147 86 -194 25 -48 44 -88 42 -89 -2 -2 -50 28 -108
67 -57 39 -132 86 -166 106 -58 32 -63 38 -63 68 0 18 -4 35 -9 37 -5 2 -25
30 -43 63 -43 76 -119 139 -195 161 -119 35 -271 -1 -355 -83 -51 -49 -96
-170 -103 -272 -4 -67 10 -83 21 -23 3 20 12 47 20 59 8 12 14 37 15 55 0 28
2 30 9 13 7 -16 9 -12 10 20 1 40 21 81 34 68 4 -4 26 15 50 43 62 70 114 94
211 94 68 0 85 -4 137 -32 33 -17 76 -51 95 -75 41 -50 83 -157 83 -213 0 -52
-25 -144 -50 -184 -11 -19 -20 -40 -20 -47 0 -8 -13 -23 -29 -33 -18 -12 -27
-25 -23 -34 7 -19 84 66 112 124 23 47 44 148 36 176 -9 36 -4 33 307 -168 37
-24 67 -50 67 -57 0 -6 -98 -61 -218 -121 -119 -60 -287 -152 -373 -203 -86
-51 -161 -93 -167 -93 -6 0 -32 33 -58 73 -25 39 -75 104 -111 142 -95 103
-95 103 -85 106 5 2 -19 42 -54 89 -65 86 -78 115 -46 103 16 -6 16 -6 -1 11
-14 14 -15 21 -6 33 10 12 8 13 -15 9 -31 -6 -32 15 0 24 15 4 20 16 22 60 3
52 36 167 68 237 8 17 14 35 14 40 0 4 17 27 38 50 41 46 88 66 339 148 76 24
167 56 203 69 78 30 90 31 90 9z m-759 -780 c67 -100 129 -181 199 -263 31
-36 69 -83 85 -104 24 -33 25 -38 9 -32 -10 5 -41 16 -69 26 -51 18 -332 153
-305 146 8 -2 26 -6 40 -10 21 -5 20 -3 -5 9 -16 7 -38 12 -47 9 -16 -5 -72
15 -191 69 l-47 22 57 45 c32 24 63 48 68 53 55 44 141 107 147 107 4 0 31
-35 59 -77z m1149 -67 c0 -4 -49 -118 -94 -221 -39 -87 -186 -375 -208 -407
-10 -14 -18 -31 -18 -36 0 -6 -31 -75 -69 -154 -38 -79 -78 -163 -90 -188 -12
-25 -52 -93 -91 -152 -38 -60 -66 -108 -62 -108 3 0 1 -5 -6 -12 -7 -7 -12
-21 -12 -31 0 -10 -15 -33 -32 -50 -18 -17 -25 -28 -15 -24 21 8 23 -6 3 -23
-8 -6 -13 -17 -10 -25 3 -7 1 -16 -5 -20 -7 -4 -11 6 -12 27 -8 437 -8 442 12
474 10 17 19 38 19 45 -1 8 -8 1 -16 -14 -8 -15 -20 -25 -26 -21 -14 9 -3 102
16 123 7 9 17 27 21 41 4 13 14 31 22 39 23 22 65 92 60 98 -3 3 -14 -8 -24
-24 -21 -33 -25 -38 -57 -78 -13 -16 -25 -38 -27 -48 -2 -10 -8 -18 -14 -17
-6 0 -11 34 -11 79 -1 44 -4 83 -8 89 -5 8 -3 37 7 82 1 8 6 21 10 27 6 9 3
11 -7 7 -12 -5 -14 6 -13 62 l2 67 100 62 c55 34 136 81 180 105 44 23 99 53
122 66 22 12 44 20 47 17 3 -4 12 1 19 10 6 9 35 22 62 29 28 6 59 20 71 30
11 10 25 18 31 18 6 0 14 7 17 16 4 9 9 14 13 11 3 -4 15 -1 27 5 11 7 24 11
29 10 4 -1 7 3 7 8 0 6 7 10 15 10 8 0 15 -2 15 -4z m-1231 -195 c135 -60 260
-115 276 -121 17 -6 59 -24 95 -41 l65 -30 0 -57 c0 -31 8 -201 18 -377 9
-176 18 -374 20 -440 2 -114 1 -120 -18 -120 -15 0 -19 6 -17 23 1 13 -9 38
-23 56 -14 18 -25 36 -25 41 0 4 -18 34 -40 66 -22 32 -82 134 -134 226 -51
93 -116 208 -145 257 -28 49 -51 91 -51 93 0 2 -13 23 -29 46 -15 23 -77 138
-137 256 -125 247 -118 231 -108 231 4 0 118 -49 253 -109z"/>
<path d="M12516 6282 c-11 -18 5 -95 25 -124 10 -15 19 -31 19 -36 0 -18 96
-106 135 -123 57 -26 205 -26 260 0 l40 19 -35 -4 c-19 -2 -75 -7 -123 -10
-79 -6 -91 -5 -115 13 -15 11 -37 23 -49 27 -29 9 -93 71 -93 90 0 9 -4 24 -9
34 -6 9 -12 33 -16 53 -6 42 -29 77 -39 61z"/>
<path d="M11906 5858 c-28 -68 -83 -286 -126 -497 -36 -176 -83 -379 -105
-451 -7 -25 -16 -62 -20 -83 -3 -21 -10 -35 -15 -32 -5 3 -5 19 1 37 5 17 7
33 5 36 -8 7 -25 -35 -32 -77 -6 -34 -4 -41 10 -41 13 0 16 -5 11 -22 -10 -32
-21 -42 -30 -27 -5 7 -4 10 2 6 6 -4 13 2 16 13 6 22 -7 27 -19 8 -4 -7 -9
-24 -10 -38 -1 -14 -5 -34 -9 -44 -6 -13 -4 -21 3 -24 7 -2 12 -8 12 -13 0 -6
-5 -7 -11 -3 -8 4 -9 0 -4 -15 4 -15 2 -20 -7 -18 -7 2 -10 2 -5 0 10 -7 9
-57 -4 -108 -13 -50 -32 -52 -22 -2 3 18 2 29 -2 25 -11 -10 -14 -72 -3 -79 8
-5 -6 -79 -62 -314 -10 -44 -31 -133 -45 -197 -15 -65 -29 -118 -31 -118 -9 0
9 99 41 230 19 74 41 178 49 230 19 121 30 267 20 257 -9 -9 -13 -27 -15 -82
-1 -32 -23 -157 -44 -255 -2 -8 -4 -19 -4 -24 -1 -6 -5 -6 -11 0 -6 6 -2 38
11 89 27 112 36 215 18 215 -11 0 -11 2 -2 8 16 10 27 118 13 127 -5 3 -10 11
-10 16 0 6 4 8 8 5 5 -3 9 12 9 32 1 45 11 106 25 141 5 14 9 27 8 29 -1 1 1
16 5 32 4 20 11 27 21 23 8 -3 14 0 14 6 0 6 -5 11 -12 11 -7 0 -5 5 4 13 17
13 34 87 20 87 -12 0 10 141 43 280 22 95 39 185 52 265 2 17 13 73 24 127 22
113 24 151 7 146 -14 -5 -23 -34 -75 -258 -42 -185 -49 -221 -68 -367 -12 -93
-95 -453 -150 -648 -7 -27 -18 -79 -24 -115 -14 -82 -12 -76 -59 -260 -22 -85
-48 -195 -57 -245 -15 -83 -62 -272 -70 -286 -3 -3 -23 -98 -45 -210 -34 -165
-40 -216 -35 -269 4 -51 1 -77 -14 -119 -20 -52 -20 -78 0 -66 5 4 9 16 9 28
1 12 7 33 14 46 13 24 14 24 21 -20 4 -24 14 -56 21 -71 8 -15 14 -38 14 -51
0 -13 7 -32 15 -43 8 -10 15 -26 15 -35 0 -27 59 -45 125 -38 33 4 101 7 150
8 63 1 85 4 75 11 -10 7 17 10 88 9 56 -1 105 -6 108 -10 3 -5 105 -6 228 -3
211 6 223 5 231 -12 6 -18 8 -17 16 4 7 20 13 22 49 16 27 -4 40 -3 40 5 0 6
-13 11 -30 11 -35 0 -34 -6 -14 80 l17 68 100 -4 c56 -3 119 -9 141 -14 66
-14 275 -12 336 4 55 14 54 14 -82 13 -75 -1 -140 1 -144 6 -4 4 14 7 39 7 26
0 47 4 47 9 0 5 -28 8 -62 5 -78 -5 -168 -7 -275 -5 l-83 1 0 31 c0 24 4 29
18 25 91 -27 255 -32 452 -16 179 16 275 22 297 21 12 0 25 4 29 10 5 8 -14
10 -67 5 -136 -12 -553 -17 -594 -8 -30 8 14 11 180 13 259 2 314 5 322 13 6
5 -294 10 -444 6 -56 -1 -87 10 -64 25 6 3 9 11 7 18 -1 7 -1 9 1 4 3 -4 10
-4 16 0 7 4 6 -1 -2 -10 -12 -16 -6 -17 90 -16 59 1 93 4 79 8 -23 6 -23 8 -5
12 11 3 49 3 85 0 36 -3 135 -4 220 -1 l155 5 -125 8 c-253 15 -540 18 -538 5
2 -6 -7 -17 -20 -23 -13 -7 -23 -16 -23 -21 0 -5 -11 -10 -24 -11 -19 -1 -25
3 -25 18 0 11 7 22 15 25 10 4 12 10 6 18 -6 7 -4 39 5 86 8 41 16 90 18 107
3 18 9 47 15 65 5 18 13 69 17 113 3 44 10 85 14 90 4 6 15 49 25 96 l18 86
46 -2 c25 -1 178 -3 339 -4 l292 -1 0 -22 c0 -36 11 -68 21 -62 5 3 6 -2 3
-10 -4 -10 -1 -16 7 -16 8 0 7 -4 -4 -12 -15 -12 -15 -17 -4 -51 8 -20 17 -34
20 -30 4 3 7 2 8 -3 0 -5 2 -19 5 -32 2 -14 0 -21 -6 -17 -15 9 -12 -15 5 -31
10 -11 12 -28 8 -64 -4 -32 0 -66 10 -97 8 -26 19 -73 23 -103 4 -30 8 -59 9
-65 1 -5 3 -17 3 -25 1 -9 22 -42 46 -75 34 -44 42 -63 34 -72 -6 -8 -7 -13
-1 -13 14 0 133 -123 133 -137 0 -7 -12 -13 -27 -14 -26 -1 -26 -2 7 -11 20
-5 254 -11 548 -13 283 -1 517 -6 521 -11 7 -8 17 -41 36 -111 4 -13 10 -23
15 -23 9 0 4 33 -10 65 -5 11 -11 43 -13 70 -3 43 -29 156 -68 298 -6 22 -8
41 -5 45 3 3 2 10 -3 16 -13 16 -47 139 -61 221 -18 101 -44 218 -116 529 -9
39 -17 88 -18 110 -1 23 -5 47 -10 54 -4 7 -5 20 -2 29 4 11 2 14 -9 9 -10 -3
-15 1 -15 12 0 9 -3 28 -7 42 -6 22 -5 24 10 11 9 -7 17 -10 17 -6 0 4 -7 13
-16 19 -20 15 -61 199 -45 204 6 2 11 8 11 13 0 6 -3 8 -7 6 -5 -3 -8 7 -9 21
-1 43 -14 104 -24 117 -5 7 -7 15 -4 18 4 3 -1 30 -11 60 -9 30 -18 73 -18 95
-1 23 -6 42 -11 42 -5 0 -6 3 -3 7 4 3 0 17 -9 31 -8 13 -13 31 -9 40 3 8 1
18 -4 22 -6 3 -12 21 -15 40 -3 19 -10 51 -16 70 -9 30 -22 98 -34 175 -2 11
-11 52 -20 90 -9 39 -21 90 -27 115 -16 74 -81 304 -91 323 -5 9 -13 17 -18
17 -14 0 -2 -160 15 -193 8 -16 12 -33 9 -38 -3 -5 1 -23 10 -39 14 -29 25
-68 31 -113 1 -12 8 -44 15 -72 16 -67 16 -68 23 -85 3 -8 15 -64 27 -125 13
-60 25 -116 27 -122 3 -7 1 -13 -5 -13 -6 0 -15 12 -21 28 -11 26 -11 26 -7 2
5 -40 76 -354 83 -370 3 -8 5 -18 5 -22 -1 -5 2 -8 7 -8 6 0 7 -17 5 -37 -4
-26 -3 -34 4 -24 7 10 11 6 15 -15 3 -16 8 -40 11 -54 4 -14 9 -40 12 -59 3
-18 8 -41 10 -50 15 -55 49 -201 84 -361 23 -102 50 -223 61 -270 11 -47 24
-105 29 -130 26 -128 132 -563 149 -615 23 -68 25 -79 12 -71 -8 6 -567 8
-746 4 -38 -1 -107 -1 -151 0 l-81 2 -18 93 c-9 50 -24 126 -31 167 -8 41 -19
109 -24 150 -6 41 -12 86 -14 100 -2 14 -6 48 -10 75 -7 58 -31 183 -52 272
-8 34 -14 80 -14 102 0 43 -13 59 -34 42 -9 -8 -56 -8 -162 -1 -82 5 -182 11
-221 12 -40 1 -73 4 -73 8 0 5 -107 6 -183 2 -21 -1 -36 -6 -33 -11 3 -5 24
-7 46 -4 26 4 40 2 40 -6 0 -7 -19 -11 -50 -11 -30 0 -50 4 -50 11 0 7 -10 9
-27 5 -72 -18 -148 -24 -155 -13 -5 8 -8 6 -8 -5 0 -10 -5 -18 -10 -18 -6 0
-9 -3 -8 -7 0 -5 -2 -15 -5 -23 -4 -8 -20 -63 -37 -122 -17 -58 -37 -123 -46
-144 -13 -30 -80 -283 -109 -409 -12 -55 13 -13 30 50 8 33 18 69 22 80 3 11
7 35 10 53 3 18 9 35 14 38 12 7 -10 -117 -43 -241 -5 -22 -11 -56 -12 -75 -2
-19 -9 -68 -16 -107 l-13 -73 -65 0 c-85 0 -243 20 -259 33 -9 6 -13 6 -13 -3
0 -8 -4 -9 -12 -3 -8 5 -137 8 -310 7 -164 -1 -298 2 -298 7 0 5 14 61 30 126
17 65 37 147 45 183 7 36 25 112 40 170 14 58 34 146 45 195 18 85 30 131 46
183 3 13 1 28 -6 37 -7 8 -8 15 -3 15 5 0 18 46 28 103 10 56 30 156 46 222
35 154 39 170 43 227 5 56 12 69 31 61 8 -3 15 -1 16 3 0 5 2 18 4 29 2 11 6
40 10 65 3 25 13 67 21 94 11 40 11 51 2 58 -10 6 -10 10 -1 16 12 8 27 69 25
105 0 9 4 17 10 17 6 0 8 12 5 30 -4 19 -2 30 4 30 6 0 9 9 6 20 -3 13 0 20 9
20 8 0 14 5 14 10 0 6 -6 10 -12 10 -10 0 -9 3 1 9 7 5 10 14 7 20 -4 6 -3 11
2 11 9 0 13 15 26 100 7 50 28 146 36 165 9 23 80 332 81 355 1 8 8 46 15 83
8 38 14 81 14 97 0 16 5 41 11 57 7 15 13 35 15 43 1 8 5 25 8 38 7 33 -3 27
-18 -10z"/>
<path d="M6264 3053 c-31 -38 -63 -79 -72 -93 -9 -14 -22 -31 -29 -38 -25 -26
-15 -43 22 -40 19 1 37 -1 41 -5 4 -4 -2 -7 -12 -7 -11 0 -29 -7 -40 -15 -19
-14 -19 -14 2 -15 44 0 85 13 80 26 -3 8 6 15 25 19 48 11 33 20 -26 17 -30
-2 -55 0 -55 5 0 10 111 11 127 0 6 -4 14 -3 18 3 8 13 45 13 45 0 0 -5 8 -10
18 -9 10 0 12 3 4 6 -6 2 -10 8 -7 13 7 11 -108 24 -134 15 -12 -3 -31 -3 -43
1 l-23 7 24 8 c13 5 124 12 248 16 230 6 289 23 84 23 -63 0 -111 3 -107 7 9
10 10 10 129 11 132 3 118 22 -16 23 -83 1 -95 3 -67 10 19 6 64 10 100 10 50
0 61 2 47 10 -10 6 -82 11 -160 11 -135 1 -159 14 -32 18 33 0 78 5 100 9 36
8 32 9 -40 12 -156 6 -170 6 -184 -5 -11 -8 -13 -8 -7 2 19 31 -9 6 -60 -55z"/>
<path d="M15933 2932 c-57 -1 -103 -6 -103 -10 0 -4 55 -8 122 -9 130 -3 193
-22 78 -24 -134 -3 -154 -28 -39 -48 86 -14 539 -15 539 0 0 5 -4 7 -10 4 -5
-3 -21 2 -35 11 -18 11 -33 14 -52 8 -49 -14 -106 -13 -129 2 -13 9 -24 11
-28 5 -4 -5 2 -11 11 -13 10 -2 -11 -5 -46 -6 -35 -1 -69 2 -75 7 -19 15 -55
19 -60 7 -2 -6 -4 0 -3 14 0 14 4 30 9 36 9 12 68 6 68 -7 0 -6 9 -5 20 1 39
21 9 32 -79 28 -47 -2 -132 -4 -188 -6z"/>
<path d="M12570 2881 c0 -10 -157 -27 -222 -24 -55 2 -46 -12 17 -27 51 -12
155 -11 537 4 21 0 38 6 38 11 0 14 -48 26 -56 14 -10 -16 -243 -8 -260 8 -8
8 -14 10 -14 4 0 -6 -9 -11 -20 -11 -13 0 -18 5 -14 15 4 8 3 15 0 15 -3 0 -6
-4 -6 -9z"/>
</g>
</svg>
