<?xml version="1.0" standalone="no"?>
<!DOCTYPE svg PUBLIC "-//W3C//DTD SVG 20010904//EN"
 "http://www.w3.org/TR/2001/REC-SVG-20010904/DTD/svg10.dtd">
<svg version="1.0" xmlns="http://www.w3.org/2000/svg"
 width="1928.000000pt" height="1074.000000pt" viewBox="0 0 1928.000000 1074.000000"
 preserveAspectRatio="xMidYMid meet">
<metadata>
Created by potrace 1.16, written by Peter Selinger 2001-2019
</metadata>
<g transform="translate(0.000000,1074.000000) scale(0.100000,-0.100000)"
fill="#000000" stroke="none">
<path d="M4770 7972 l0 -28 -142 3 c-79 1 -339 -1 -578 -5 -434 -7 -435 -7
-220 -14 118 -4 280 -12 360 -18 183 -13 366 -13 449 1 75 12 101 0 52 -25
-17 -9 -44 -29 -60 -44 -16 -15 -51 -43 -78 -62 -56 -41 -104 -82 -151 -128
l-33 -34 -157 1 c-143 1 -323 10 -330 16 -1 1 100 5 224 8 153 4 231 10 238
18 8 9 -18 10 -109 5 -66 -3 -180 -7 -252 -7 -107 -1 -133 -4 -133 -15 0 -19
-36 -18 -44 1 -4 13 -22 14 -108 9 -57 -3 -107 -10 -113 -15 -5 -6 -2 -9 10
-10 11 -1 -5 -5 -35 -9 -30 -5 -56 -7 -58 -6 -2 3 15 15 218 153 145 98 169
116 170 126 1 27 -92 -26 -295 -168 -82 -58 -169 -114 -192 -125 -50 -22 -55
-32 -14 -24 18 4 32 1 37 -7 5 -8 9 -165 10 -349 0 -184 4 -473 9 -642 l8
-308 -27 0 c-15 0 -60 5 -99 11 -63 10 -75 15 -100 45 -16 19 -36 34 -46 34
-10 0 -36 -16 -59 -36 -27 -22 -56 -38 -80 -41 l-37 -5 0 569 c0 611 0 617 15
608 12 -7 12 156 -1 293 -5 56 -7 118 -3 137 5 29 10 35 33 35 14 0 33 5 41
11 11 7 -8 9 -65 5 -44 -3 -258 -8 -475 -11 -432 -7 -442 -8 -505 -68 -16 -16
-44 -35 -61 -42 -17 -8 -55 -30 -85 -49 -29 -20 -55 -32 -57 -26 -2 5 -8 10
-14 10 -6 0 -8 -7 -4 -15 3 -10 -13 -25 -55 -50 -68 -40 -69 -40 -69 -21 0 7
-7 19 -15 26 -13 11 -15 8 -15 -13 0 -15 -9 -32 -22 -41 -16 -12 -18 -16 -7
-16 13 0 16 -16 18 -87 1 -49 4 -133 6 -188 7 -164 13 -965 8 -1033 -3 -34 -9
-60 -14 -56 -5 3 -9 -2 -9 -11 0 -10 5 -13 12 -9 8 5 9 -12 3 -67 -4 -41 -7
-85 -7 -99 2 -155 13 -515 17 -550 14 -129 17 -777 5 -1019 -13 -271 -14 -262
26 -578 30 -233 89 -393 225 -608 21 -33 35 -62 32 -65 -3 -3 -45 38 -95 90
-49 52 -85 85 -79 73 13 -26 274 -301 346 -365 28 -24 75 -60 106 -80 30 -20
60 -43 66 -50 6 -7 13 -44 15 -83 3 -65 2 -70 -22 -82 -21 -11 10 -13 200 -13
136 0 239 -4 260 -11 44 -14 634 -23 785 -12 l110 8 -135 7 c-166 8 -270 18
-270 27 0 8 306 6 390 -4 101 -11 312 -8 344 5 22 8 37 8 58 -1 25 -10 32 -9
52 10 17 16 35 21 78 21 84 0 178 12 178 22 0 5 -8 7 -18 4 -10 -3 -43 -7 -74
-7 -43 -1 -60 3 -75 18 -19 19 -19 20 -2 32 23 14 40 15 19 1 -10 -7 82 -10
280 -9 202 1 287 5 270 11 -14 6 -69 10 -124 11 -105 0 -110 10 -11 22 46 5
55 9 41 17 -10 6 -27 6 -44 1 -45 -16 -135 -17 -130 -2 2 7 20 15 39 17 19 2
50 8 69 13 28 7 24 8 -25 4 -33 -3 -75 -8 -92 -11 -21 -4 -33 -2 -33 5 0 6 3
10 8 8 4 -1 8 3 10 8 1 6 -19 13 -45 16 -27 3 -46 7 -43 8 3 1 113 4 246 8
164 4 251 2 273 -5 29 -10 44 -1 21 13 -14 9 -97 14 -223 15 -75 0 -106 3
-102 11 5 7 36 9 84 7 42 -3 87 -1 101 3 19 5 11 7 -30 9 -30 1 -66 3 -80 5
-45 7 -200 6 -212 -1 -6 -4 -9 -1 -6 7 4 11 35 14 149 14 163 1 170 2 149 15
-12 8 -8 10 15 11 17 1 44 1 60 0 27 -2 28 -1 15 12 -11 11 -53 17 -165 22
-232 11 -404 13 -467 5 -33 -3 -58 -2 -58 3 0 5 46 55 103 111 128 127 321
334 326 349 2 7 10 20 19 30 8 9 12 20 9 23 -3 4 7 29 23 58 16 28 43 92 60
141 18 50 34 97 38 105 3 8 11 38 18 65 6 28 22 86 34 130 28 103 57 265 55
310 0 19 3 35 8 35 5 0 5 10 1 22 -4 13 -6 49 -5 80 1 32 -3 67 -9 77 -6 13
-7 22 0 26 5 3 7 11 5 18 -10 25 -16 251 -21 787 -11 1212 -12 1516 -6 1550 5
33 6 34 13 10 5 -17 7 -5 8 39 1 58 0 62 -16 50 -15 -12 -16 -12 -8 6 8 22 11
160 7 460 -4 276 -7 251 30 269 17 9 42 16 55 16 12 0 23 5 23 10 0 14 -43 13
-75 -2 -32 -14 -36 -9 -42 47 -6 49 -23 62 -23 17z m-1782 -64 c-3 -7 -40 -37
-84 -67 -44 -31 -115 -84 -158 -118 l-77 -63 -72 -1 c-40 -1 -81 -3 -92 -4
-11 -1 -45 -2 -74 -3 -35 -1 -51 -6 -45 -11 5 -6 45 -7 106 -1 88 9 156 2 132
-12 -5 -3 -103 -9 -217 -12 -155 -6 -212 -4 -223 5 -10 8 -14 8 -14 0 0 -6
-10 -11 -22 -11 -19 0 -20 2 -8 10 11 7 5 10 -25 11 -22 1 -107 4 -189 8
l-149 6 84 54 c46 30 111 70 144 89 33 18 73 47 89 63 l28 29 244 0 c246 0
531 15 569 30 30 13 57 12 53 -2z m-13 -155 c-13 -275 -19 -505 -15 -628 2
-77 4 -302 4 -500 l1 -360 -25 0 c-24 0 -24 2 -23 70 0 39 -4 76 -9 83 -7 8
-7 12 0 12 6 0 10 19 9 45 -1 25 -5 45 -9 45 -13 0 -19 -40 -8 -60 7 -13 7
-20 0 -20 -5 0 -10 7 -10 15 0 8 -4 15 -10 15 -13 0 -1 -158 15 -192 18 -37
10 -35 -30 8 -39 41 -64 40 -102 -2 -26 -29 -26 -30 -23 56 1 36 -4 76 -10 90
-8 19 -9 -5 -6 -102 4 -102 2 -128 -8 -128 -11 0 -14 38 -15 178 -1 98 2 190
8 204 5 14 7 29 4 32 -8 8 -6 289 2 315 4 13 2 21 -5 21 -7 0 -9 8 -5 19 3 10
6 88 7 172 1 88 6 157 12 161 6 4 5 12 -3 21 -7 10 -9 26 -5 44 8 29 9 41 12
160 2 67 4 73 38 107 46 46 58 46 51 0 -6 -38 0 -64 14 -64 14 0 11 98 -3 103
-9 3 -4 11 12 23 40 30 108 103 115 124 15 46 24 14 20 -67z m1782 1 c-3 -58
-9 -89 -18 -95 -10 -6 -10 -9 -2 -9 16 0 17 -1156 1 -1166 -6 -4 -5 -10 3 -15
11 -8 11 -11 -3 -20 -10 -5 -18 -18 -17 -27 0 -14 2 -13 9 3 16 40 19 -11 23
-365 3 -195 5 -359 7 -365 5 -21 0 -288 -6 -283 -3 4 -8 75 -10 160 -2 84 -8
167 -13 183 -4 18 -6 -41 -4 -140 3 -93 9 -183 14 -199 13 -40 12 -79 -2 -70
-7 4 -6 -2 2 -17 14 -26 17 -228 4 -249 -5 -9 -4 -11 3 -6 9 5 12 -16 13 -76
2 -100 0 -111 -14 -120 -9 -6 -9 -10 -1 -15 6 -5 11 -19 12 -33 0 -14 3 -43 5
-65 4 -32 3 -34 -3 -10 l-7 30 -2 -35 c-1 -19 -2 -74 -2 -122 0 -77 -8 -105
-22 -80 -2 4 -2 0 1 -8 9 -29 7 -43 -6 -47 -10 -4 -13 8 -10 51 2 31 7 56 12
56 4 0 3 6 -3 13 -6 8 -8 16 -5 20 6 6 8 103 3 197 -4 106 -20 -214 -22 -462
-1 -135 -5 -249 -8 -253 -4 -3 -3 -22 2 -43 5 -23 3 -50 -4 -74 -13 -41 -27
-50 -27 -19 0 11 -7 26 -15 35 -14 14 -14 17 5 28 12 8 20 23 20 41 0 15 -4
26 -9 22 -5 -3 -13 0 -17 7 -5 7 -10 4 -16 -12 -5 -12 -11 -20 -15 -17 -9 10
27 78 38 72 13 -9 11 9 -3 23 -8 8 -8 15 2 27 9 11 14 53 16 132 1 63 -2 110
-6 103 -10 -16 -22 3 -15 22 3 8 1 25 -4 39 -12 29 -10 38 -26 -161 -3 -41
-11 -80 -17 -88 -8 -9 -8 -16 -1 -20 6 -4 10 -27 10 -52 0 -39 -1 -42 -10 -22
-6 12 -14 22 -19 22 -5 0 -7 -4 -4 -9 9 -13 -4 -42 -16 -35 -5 3 -6 13 -3 23
4 9 8 23 9 31 1 8 6 24 10 35 4 11 11 29 15 40 4 11 5 34 1 50 -5 27 -7 28
-16 11 -6 -10 -17 -17 -24 -14 -10 3 -9 8 4 20 9 9 16 21 16 27 0 6 8 11 18
11 10 0 13 3 6 8 -16 11 -24 41 -14 47 6 4 10 -2 10 -12 0 -14 2 -15 9 -4 10
16 2 51 -15 69 -19 18 -26 15 -14 -7 14 -28 12 -35 -5 -17 -8 8 -15 23 -15 33
0 15 -2 16 -10 3 -17 -27 -19 -5 -4 60 8 36 16 77 17 92 1 15 14 40 28 55 35
37 49 66 49 100 -1 30 -20 63 -38 63 -6 0 -14 10 -18 23 -11 34 -13 107 -3
107 5 0 9 10 9 23 0 16 -3 18 -9 9 -6 -10 -10 -8 -14 10 -4 12 -2 25 4 26 6 3
6 9 -2 18 -7 8 -9 17 -5 21 8 8 13 2 18 -22 1 -11 7 -23 12 -27 5 -3 11 -35
13 -70 3 -73 10 -108 21 -108 11 0 -4 181 -15 189 -14 9 -23 65 -13 80 10 18
-5 69 -31 104 -31 42 -50 102 -36 116 6 6 7 11 1 11 -5 0 -15 15 -22 33 -7 17
-16 39 -20 47 -4 8 -5 56 -2 105 3 63 1 93 -7 100 -8 7 -14 72 -18 200 -3 105
-8 273 -12 375 -4 102 -7 439 -7 749 l-1 564 26 9 c14 5 47 29 74 53 26 25 51
45 55 45 4 0 10 6 13 13 7 19 -22 17 -44 -2 -55 -51 -68 -61 -75 -61 -4 0 -15
-6 -24 -12 -26 -21 32 34 81 74 24 21 50 38 57 38 8 0 46 31 85 70 40 38 74
70 76 70 2 0 1 -39 -2 -86z m-2738 -144 c57 0 102 -3 99 -6 -4 -3 -38 -10 -78
-15 -39 -5 -77 -12 -85 -16 -12 -7 245 -7 547 0 l108 2 0 -453 c0 -250 2 -458
5 -463 4 -5 0 -9 -7 -9 -10 0 -10 -2 1 -9 7 -5 11 -14 7 -19 -10 -16 -10 -157
-1 -319 4 -79 4 -143 1 -143 -4 0 -21 7 -37 16 -45 23 -80 15 -107 -26 -12
-19 -22 -45 -20 -59 2 -20 -9 -35 -62 -77 -61 -50 -67 -52 -111 -47 -39 5 -49
2 -66 -16 -23 -25 -35 -68 -26 -99 3 -15 -7 -34 -39 -69 -24 -26 -60 -69 -81
-94 -27 -34 -46 -48 -72 -53 -25 -5 -39 -15 -50 -36 -19 -37 -19 -55 1 -89 15
-26 14 -30 -38 -136 -41 -86 -58 -111 -75 -113 -51 -7 -70 -88 -33 -135 23
-29 25 -64 9 -171 -10 -70 -14 -77 -42 -91 -16 -8 -32 -15 -34 -15 -2 0 -1 82
3 183 4 118 1 289 -9 487 -12 222 -16 525 -17 1110 0 443 -2 843 -3 889 -2 83
-1 85 23 93 14 4 61 5 105 3 44 -3 127 -5 184 -5z m1878 -20 c27 0 42 -4 38
-10 -3 -5 -30 -10 -58 -11 -29 0 -70 -4 -92 -9 -34 -8 -30 -8 25 -5 155 11
479 16 520 8 l45 -9 6 -579 c8 -751 19 -1334 25 -1350 3 -7 1 -16 -4 -19 -21
-13 -54 12 -102 78 -44 60 -50 75 -50 118 0 27 -7 62 -15 78 -14 28 -20 30
-69 30 -51 0 -57 3 -115 55 -34 30 -65 55 -69 55 -4 0 -23 15 -42 33 -20 17
-48 38 -63 44 -32 15 -36 33 -7 33 11 0 41 -20 66 -46 25 -25 49 -43 51 -40 3
3 -10 27 -29 53 l-35 48 -69 0 c-94 0 -186 43 -226 103 -38 57 -72 78 -103 64
l-24 -11 -4 277 c-7 414 -25 890 -37 951 -5 29 -10 55 -10 57 0 5 307 11 359
7 24 -2 64 -3 88 -3z m-542 -1366 c78 -9 95 -26 101 -104 3 -33 1 -60 -3 -60
-5 0 -34 4 -64 10 -30 5 -92 11 -139 13 l-85 3 -5 54 c-6 63 -19 56 -16 -7 2
-32 -2 -44 -13 -47 -14 -4 -112 -9 -135 -7 -4 1 20 30 55 67 51 52 68 64 86
59 13 -3 23 -1 23 4 0 39 103 2 144 -52 15 -19 34 -38 42 -41 16 -6 79 32 70
42 -3 3 -14 -2 -24 -11 -10 -10 -22 -17 -26 -17 -4 0 -33 25 -64 57 -46 45
-52 55 -32 49 14 -3 52 -9 85 -12z m189 -55 c6 9 104 -20 168 -49 l28 -13 -28
-14 c-25 -13 -111 -38 -173 -50 -25 -5 -27 -2 -32 39 -5 35 -4 70 2 97 1 2 7
-2 15 -8 9 -8 16 -8 20 -2z m-616 -39 c71 -32 58 -50 -59 -88 -56 -18 -104
-30 -107 -27 -11 10 19 83 44 109 32 31 63 33 122 6z m893 -66 c30 -19 36 -27
32 -48 -4 -20 -1 -26 12 -26 12 0 15 5 10 20 -7 23 -2 25 28 8 33 -17 177
-128 177 -136 0 -4 -52 -6 -115 -4 -112 3 -117 4 -202 46 -49 24 -116 54 -150
67 -35 13 -63 27 -63 30 0 4 21 12 48 18 26 7 61 16 78 21 17 6 40 10 52 10
13 0 22 6 22 15 0 17 19 12 71 -21z m-476 -34 c28 -6 61 -11 75 -12 l25 -3 0
-140 c-1 -131 -3 -146 -34 -235 -35 -102 -70 -216 -131 -430 -21 -74 -43 -151
-49 -170 -13 -41 -14 -78 -3 -65 5 6 18 42 30 80 75 245 105 347 142 483 24
84 45 150 48 147 10 -10 10 -400 -1 -420 -5 -11 -50 -81 -99 -156 -48 -75 -88
-142 -88 -149 0 -9 -9 -10 -32 -5 -18 5 -49 8 -68 7 l-36 -1 -36 112 c-75 232
-73 215 -73 607 l0 355 75 5 c90 7 187 3 255 -10z m-369 -259 c-3 -135 -9
-266 -11 -291 -7 -57 -7 -247 1 -322 3 -32 2 -58 -3 -58 -4 0 -23 24 -41 53
-18 28 -41 63 -51 77 -71 97 -154 236 -176 298 -24 68 -26 84 -24 208 3 144
18 185 20 57 2 -104 6 -143 14 -151 4 -4 5 46 3 110 -3 103 -6 119 -23 132
-11 8 -16 18 -12 22 4 5 12 2 17 -5 6 -11 9 -9 12 9 3 24 32 49 44 37 4 -3 1
-13 -5 -21 -9 -10 -10 -25 -3 -48 5 -18 10 -65 11 -105 1 -39 6 -84 10 -100 4
-15 9 -73 10 -128 2 -55 7 -108 12 -118 6 -9 7 -22 4 -27 -3 -5 -1 -11 5 -15
9 -5 14 6 12 26 -1 3 -4 46 -7 95 -4 49 -9 105 -11 124 -7 49 -17 214 -18 280
l-1 55 60 18 c33 11 78 24 100 31 22 7 44 10 49 8 4 -3 5 -115 2 -251z m-476
224 c0 -14 -4 -25 -10 -25 -5 0 -9 -15 -8 -32 1 -18 -1 -44 -6 -58 -5 -18 -5
-21 3 -10 5 8 14 11 18 6 4 -4 -5 -17 -22 -29 -47 -35 -175 -168 -203 -212
-22 -35 -26 -37 -33 -20 -9 24 -11 121 -3 151 5 18 13 20 67 20 45 0 70 5 90
18 33 22 30 30 -6 17 -29 -11 -42 -4 -25 16 19 23 1 26 -30 4 -16 -11 -32 -18
-35 -14 -4 3 -13 0 -22 -7 -9 -7 -15 -8 -15 -2 0 6 4 12 8 14 4 2 18 18 31 36
25 36 56 45 46 12 -5 -15 -3 -18 9 -14 19 7 21 40 4 47 -22 8 98 107 130 107
6 0 12 -11 12 -25z m1088 -35 c79 -32 198 -96 208 -111 3 -5 20 -15 38 -23 38
-16 227 -193 262 -246 13 -19 36 -53 51 -75 58 -86 142 -292 128 -315 -3 -4
-21 -11 -42 -15 -61 -11 -486 -151 -670 -220 -35 -13 -63 -22 -64 -20 0 3 -1
31 -1 63 -1 69 -2 67 189 222 175 141 373 313 368 319 -5 4 -300 -231 -471
-376 -40 -35 -78 -63 -84 -63 -6 0 -10 33 -10 84 0 79 3 90 38 158 48 92 76
140 116 203 110 171 156 248 151 253 -7 7 -23 -14 -77 -101 -24 -37 -54 -86
-68 -107 -14 -22 -51 -82 -83 -135 -32 -52 -63 -95 -69 -95 -7 0 -9 28 -4 93
3 50 6 192 7 315 0 122 4 222 7 222 4 0 40 -13 80 -30z m-962 -205 c0 -69 -3
-125 -8 -125 -4 0 -17 18 -28 39 -11 22 -25 43 -32 47 -6 4 6 -24 27 -61 l38
-69 9 -161 c4 -88 9 -170 11 -182 7 -38 -19 -20 -293 202 -30 24 -64 51 -75
59 -20 14 -20 15 -1 50 11 20 23 36 27 36 4 0 10 8 14 18 16 50 261 272 299
272 7 0 11 -45 12 -125z m1498 71 c17 -18 40 -44 50 -57 11 -13 41 -49 67 -80
27 -31 62 -87 79 -125 16 -38 35 -77 41 -88 18 -32 -3 -36 -84 -17 -43 10 -79
20 -80 22 -2 2 -16 23 -31 47 -16 23 -26 45 -23 48 3 3 38 1 77 -6 39 -7 74
-10 76 -7 9 8 -58 26 -113 30 -52 4 -82 19 -84 41 0 10 -38 44 -209 195 l-35
31 119 -1 118 -1 32 -32z m-1909 -152 c0 -99 -2 -108 -22 -121 -21 -14 -25
-12 -68 31 l-47 45 29 38 c15 21 34 44 41 52 7 8 20 24 29 37 30 46 38 29 38
-82z m-40 -145 c4 -5 -5 -28 -19 -49 -14 -22 -26 -45 -26 -53 0 -7 -7 -23 -16
-35 -8 -12 -12 -22 -8 -22 3 0 1 -6 -5 -14 -7 -8 -20 -44 -31 -81 -11 -37 -25
-73 -31 -82 -7 -8 -13 -33 -14 -56 -2 -53 -15 -178 -21 -195 -5 -18 -74 63
-74 87 0 9 15 39 33 66 l33 49 -23 42 c-13 23 -30 48 -38 54 -8 7 -15 22 -15
34 0 29 72 176 87 176 15 0 43 -39 43 -60 0 -8 -23 -30 -51 -49 -63 -43 -56
-54 9 -12 30 19 56 29 66 25 11 -4 16 -1 16 10 0 9 -4 16 -10 16 -5 0 -17 17
-27 38 -9 20 -19 41 -21 45 -2 4 7 7 19 6 46 -4 58 1 79 36 22 36 34 43 45 24z
m122 -61 c27 -24 114 -96 195 -161 153 -123 169 -138 150 -145 -16 -5 -16 -89
1 -95 7 -2 14 -19 15 -36 2 -30 1 -31 -25 -25 -63 13 -513 170 -525 182 -9 9
23 116 49 167 31 59 33 65 33 85 0 17 43 70 56 70 2 0 25 -19 51 -42z m440
-79 c40 -69 131 -208 184 -281 37 -51 65 -138 45 -138 -8 0 -105 72 -168 124
-20 17 -51 41 -67 54 l-31 24 0 113 c0 63 -5 126 -10 140 -18 47 12 24 47 -36z
m1661 -11 c13 -60 15 -195 2 -203 -4 -3 -13 2 -20 10 -7 8 -26 15 -42 15 -24
0 -29 3 -25 18 27 80 48 162 49 185 2 46 24 30 36 -25z m-944 -256 c-3 -66 -3
-68 -51 -110 -86 -77 -141 -104 -128 -62 13 41 167 263 175 251 4 -7 6 -42 4
-79z m851 -37 c25 -127 30 -354 10 -477 -21 -133 -45 -207 -111 -343 -91 -188
-222 -340 -391 -455 -89 -61 -194 -113 -204 -103 -3 5 -32 86 -63 182 -54 165
-57 179 -55 268 1 51 5 96 10 99 4 2 6 10 4 17 -2 7 -6 60 -9 120 -5 80 -4
107 5 107 7 0 76 -62 153 -138 240 -236 331 -321 336 -315 3 3 -106 114 -242
247 -240 235 -246 242 -253 289 -3 26 -4 47 0 47 3 0 52 -28 108 -62 80 -48
352 -201 497 -278 42 -22 18 0 -27 26 -27 15 -68 39 -93 55 -25 15 -80 45
-122 68 -43 22 -140 79 -218 126 -130 81 -140 88 -140 117 0 25 3 29 18 23 99
-41 661 -219 668 -212 3 3 -149 56 -338 118 l-343 114 -3 41 -3 41 197 6 c109
4 256 7 328 8 72 0 140 5 151 10 13 6 -107 7 -327 4 l-348 -6 0 39 0 39 98 36
c53 20 212 75 352 122 140 47 271 92 290 99 19 8 38 11 42 7 4 -3 15 -42 23
-86z m81 76 l31 -19 -1 -95 c-1 -59 -7 -101 -14 -110 -8 -9 -9 -16 -3 -19 6
-2 11 -73 13 -175 l3 -171 -27 -29 c-27 -28 -36 -53 -21 -53 4 0 18 12 30 28
l23 27 -6 -80 c-3 -44 -7 -92 -9 -107 -1 -15 2 -29 8 -31 6 -2 7 -9 3 -16 -6
-10 -11 -8 -20 7 -6 11 -25 40 -41 64 -19 26 -29 53 -27 68 1 14 4 41 6 60 10
84 18 148 26 189 4 25 6 50 3 58 -3 7 -1 13 5 13 9 0 9 52 -1 130 -3 19 -8 62
-12 95 -4 33 -10 74 -15 90 -20 72 -20 95 -2 95 9 0 31 -9 48 -19z m-2241 -6
c22 -7 78 -28 125 -45 47 -18 145 -53 219 -79 121 -42 136 -50 142 -74 4 -15
3 -27 -2 -27 -18 0 -8 -18 14 -24 21 -6 21 -7 4 -20 -10 -8 -18 -17 -18 -20 1
-3 1 -10 1 -16 0 -6 -105 -10 -295 -10 l-295 0 0 28 c0 56 44 302 54 302 6 0
29 -7 51 -15z m597 -43 c12 -15 61 -54 107 -87 80 -57 131 -108 119 -120 -5
-6 -248 73 -260 84 -3 3 -8 39 -10 79 -4 81 5 90 44 44z m1739 1 c5 -15 8 -38
4 -50 -3 -14 -1 -23 6 -23 7 0 10 -33 8 -102 -2 -57 1 -114 5 -128 5 -17 4
-21 -2 -11 -5 7 -15 10 -21 7 -8 -5 -7 -14 4 -29 18 -25 19 -59 4 -74 -16 -16
-23 -87 -9 -78 8 5 10 -2 7 -21 -8 -52 -30 -114 -40 -114 -6 0 -7 17 -2 43 8
47 8 116 3 318 -3 121 -1 139 15 157 10 11 14 22 8 23 -15 6 -26 109 -12 109
6 0 16 -12 22 -27z m-2591 -78 c0 -8 4 -15 10 -15 14 0 90 -116 90 -139 0 -33
-11 -51 -33 -51 -19 0 -19 -1 -4 -13 16 -11 16 -16 -10 -69 -15 -32 -31 -58
-35 -58 -10 0 -39 56 -32 63 3 3 0 14 -7 25 -14 22 -5 57 12 46 8 -4 7 -9 -2
-15 -11 -7 -11 -9 -1 -9 7 0 19 5 26 12 10 10 7 16 -18 33 -28 19 -31 26 -30
70 1 28 4 64 6 80 3 17 6 36 7 43 1 17 21 15 21 -3z m883 -97 c13 -7 18 -19
16 -43 -2 -19 0 -37 4 -41 4 -4 7 11 7 34 l0 42 53 -19 c28 -11 64 -22 80 -25
18 -4 27 -13 27 -26 0 -19 -7 -20 -129 -20 l-129 0 -4 56 c-1 31 -1 57 1 60 5
5 51 -6 74 -18z m452 -41 c35 -20 40 -28 43 -63 2 -33 -3 -46 -30 -78 -33 -38
-34 -38 -87 -31 -49 7 -54 10 -68 43 -26 62 -4 117 57 141 36 14 40 13 85 -12z
m-597 -161 c2 -44 -1 -83 -6 -88 -16 -16 -501 -176 -519 -172 -11 3 -19 13
-20 22 0 9 -8 51 -16 92 -24 122 -29 206 -14 222 11 10 67 12 293 8 l279 -5 3
-79z m329 68 c7 -20 -24 -43 -92 -68 -38 -13 -93 -34 -121 -45 l-50 -19 1 65
c0 53 4 67 17 72 30 10 241 6 245 -5z m467 -4 c30 0 33 -3 33 -30 0 -35 -2
-35 -52 -14 -43 18 -86 15 -45 -4 14 -6 37 -13 52 -16 27 -6 56 -42 43 -54 -3
-4 -24 3 -45 16 -54 30 -63 28 -15 -4 22 -15 46 -34 53 -42 14 -18 16 -62 3
-62 -16 0 -131 130 -131 148 1 51 23 76 58 66 8 -2 28 -4 46 -4z m-469 -91
c-3 -39 -22 -60 -36 -39 -8 12 -9 11 -7 -5 3 -19 -22 -39 -144 -120 -42 -28
-52 -31 -45 -12 2 7 1 35 -3 62 -5 28 -4 54 0 58 4 5 39 20 76 33 38 14 85 31
104 38 53 20 58 19 55 -15z m-1185 6 c16 -9 32 -25 34 -38 3 -12 12 -67 22
-121 16 -94 16 -100 -1 -112 -10 -7 -20 -31 -22 -54 -6 -51 16 -80 61 -80 30
0 33 -4 72 -97 41 -97 41 -98 23 -122 -23 -29 -26 -103 -4 -121 8 -7 34 -11
62 -8 l47 3 63 -80 c41 -52 61 -85 57 -95 -21 -47 -28 -92 -18 -108 17 -27 88
-36 126 -17 31 15 33 15 73 -15 22 -16 64 -43 93 -60 28 -17 52 -32 52 -35 0
-2 -8 -20 -17 -40 -16 -34 -16 -36 4 -62 40 -54 121 -56 148 -3 16 31 42 39
62 19 8 -8 1 -41 -23 -117 -37 -115 -69 -227 -88 -307 l-12 -50 -70 -5 c-59
-4 -69 -8 -69 -24 0 -10 -7 -23 -16 -29 -12 -8 -30 0 -75 33 -32 24 -67 52
-77 64 -10 12 -15 14 -11 7 14 -26 -59 32 -131 104 -167 168 -298 400 -346
614 -19 83 -50 282 -47 292 2 6 16 -35 32 -92 60 -215 154 -420 292 -634 46
-71 93 -141 105 -155 30 -36 15 -10 -77 130 -149 228 -271 505 -335 761 -28
113 -31 143 -36 339 -5 194 0 330 13 330 3 0 18 -7 34 -15z m1606 -82 l79 -87
5 -92 c3 -51 2 -90 -2 -88 -4 3 -26 43 -49 90 -23 47 -51 99 -63 117 -63 92
-84 147 -57 147 4 0 43 -39 87 -87z m-136 23 c0 -27 48 -178 113 -357 25 -68
61 -173 81 -234 90 -280 235 -706 266 -780 5 -11 16 -45 26 -75 9 -30 32 -90
50 -133 27 -62 31 -79 19 -83 -39 -15 -47 0 -115 206 -37 113 -81 241 -97 285
-17 44 -54 154 -83 245 -29 91 -82 257 -119 370 -37 113 -80 246 -95 295 -45
145 -66 206 -82 237 -17 33 -12 48 17 48 13 0 19 -7 19 -24z m-100 7 c-1 -11
-25 -106 -45 -178 -10 -33 -21 -78 -25 -100 -8 -42 -45 -170 -78 -270 -11 -33
-27 -85 -35 -115 -64 -230 -81 -285 -93 -301 -6 -8 -14 -35 -17 -61 -4 -25
-24 -113 -46 -195 -60 -222 -101 -395 -101 -426 0 -26 -2 -27 -50 -27 -49 0
-59 6 -41 26 5 5 21 50 36 99 15 50 40 126 56 170 16 44 38 112 48 150 11 39
32 102 46 140 15 39 29 79 32 90 3 11 18 63 34 115 15 52 42 149 59 214 29
108 45 159 70 221 14 35 40 123 40 138 0 16 64 250 79 290 9 24 32 39 31 20z
m-183 -67 c-4 -25 -20 -63 -36 -88 -69 -99 -83 -108 -83 -52 0 22 -2 24 -10
11 -5 -10 -5 -24 1 -35 8 -15 0 -32 -40 -88 -28 -38 -55 -71 -60 -73 -6 -2 -8
27 -6 75 3 44 3 68 0 54 -3 -14 -9 -30 -14 -36 -4 -6 -5 -33 0 -61 5 -36 4
-58 -5 -75 -12 -20 -13 -6 -14 104 0 74 4 129 10 133 6 3 10 -1 10 -9 0 -9 4
-16 10 -16 5 0 7 7 3 15 -5 16 22 55 39 55 5 0 16 6 23 13 39 34 156 115 169
116 5 1 6 -19 3 -43z m-991 3 c62 -48 92 -129 49 -129 -7 0 -18 -6 -24 -14
-10 -12 -9 -13 7 -9 11 2 22 1 26 -5 6 -11 -35 -122 -46 -122 -14 0 -37 57
-28 66 11 11 1 56 -10 49 -14 -9 -46 69 -49 118 -2 44 10 77 29 77 4 0 25 -14
46 -31z m667 -61 c-1 -46 -2 -85 -3 -88 0 -3 -85 -61 -190 -130 -104 -68 -187
-126 -185 -128 6 -7 66 29 217 129 82 54 154 99 160 99 6 0 8 -12 4 -31 -3
-17 -6 -91 -6 -164 0 -125 -1 -134 -25 -166 -54 -74 -96 -141 -92 -145 2 -3
19 19 37 48 58 92 90 119 90 77 0 -11 9 -66 21 -122 14 -72 29 -113 50 -145
16 -24 28 -46 26 -48 -2 -2 -22 9 -44 24 -23 15 -65 43 -95 63 -81 54 -173
143 -260 252 -43 54 -78 94 -78 90 0 -4 39 -59 85 -122 47 -63 84 -116 82
-118 -7 -7 -116 116 -158 178 -26 39 -38 66 -34 78 3 12 0 21 -10 25 -19 7
-100 176 -110 228 -7 37 -7 37 37 47 23 6 135 42 248 80 113 38 212 69 220 70
12 1 15 -13 13 -81z m557 39 c0 -7 48 -157 106 -335 58 -178 103 -329 100
-337 -10 -28 -169 -49 -204 -27 -14 9 -20 132 -22 472 -2 251 -2 252 10 245 6
-3 10 -12 10 -18z m-243 -172 c-8 -16 -26 -55 -40 -85 -13 -30 -33 -75 -45
-100 -11 -25 -23 -55 -27 -67 -3 -13 -11 -23 -16 -23 -16 0 -10 46 9 71 31 40
61 111 67 159 l6 45 -18 -51 c-11 -28 -34 -75 -53 -104 l-35 -54 -8 42 c-8 39
-5 46 29 95 50 69 72 90 86 81 6 -4 8 -3 4 4 -3 6 6 31 21 57 l28 46 3 -43 c2
-24 -3 -56 -11 -73z m208 -204 c0 -263 -2 -298 -15 -291 -29 16 -69 66 -90
112 -23 53 -21 70 30 238 16 52 36 122 45 155 24 84 24 85 27 85 2 0 3 -135 3
-299z m1196 144 c25 -53 28 -69 19 -80 -10 -12 -9 -15 4 -15 9 0 16 -7 16 -15
0 -18 -12 -19 -27 -4 -7 7 -20 4 -44 -10 -19 -12 -46 -21 -60 -21 -15 0 -32
-7 -39 -15 -15 -18 -15 -18 49 -4 27 6 55 17 62 25 15 18 39 18 39 0 0 -8 -14
-41 -31 -74 -30 -55 -36 -61 -96 -84 l-64 -26 2 42 c2 23 -1 47 -5 54 -4 7 -1
15 8 18 9 3 13 10 10 15 -3 6 -1 15 4 22 6 7 26 52 46 101 34 85 61 136 71
136 3 0 19 -29 36 -65z m-1406 -111 c-23 -108 -76 -299 -91 -328 -8 -16 -14
-39 -14 -50 0 -12 -4 -28 -10 -36 -11 -18 -16 -6 -23 60 -3 25 -3 37 0 28 7
-28 30 -21 31 10 1 38 7 64 19 87 13 25 24 107 13 100 -4 -2 -11 -19 -15 -37
-8 -32 -8 -32 -12 -7 -2 15 3 44 11 64 9 21 16 45 16 54 0 9 7 29 15 45 8 15
15 37 15 47 0 24 17 25 23 2 2 -10 3 -6 1 8 -4 33 4 42 21 25 11 -10 11 -24 0
-72z m1222 -161 c-4 -21 -13 -43 -22 -49 -20 -15 -19 -21 5 -27 15 -4 20 -14
21 -39 0 -18 2 -42 4 -53 3 -12 -8 -32 -27 -52 l-32 -33 -107 0 c-124 0 -129
-3 -140 -87 -4 -31 -13 -59 -19 -63 -12 -7 -3 -40 11 -40 9 0 11 6 29 102 13
68 18 70 130 66 l75 -3 -55 -56 c-54 -54 -319 -219 -352 -219 -9 0 -21 15 -28
33 -7 17 -16 41 -20 52 -5 11 -11 30 -13 43 -5 23 -9 21 123 80 48 21 165 109
243 182 69 64 82 72 72 40 -8 -25 15 -120 28 -120 5 0 6 12 1 28 -4 15 -9 52
-10 82 -2 49 2 62 34 112 21 31 41 57 46 57 5 1 6 -16 3 -36z m235 -23 c16 0
-3 -197 -23 -230 -6 -9 -7 7 -4 45 l5 60 -16 -60 c-8 -33 -17 -73 -19 -90 l-4
-30 11 28 c7 15 16 27 21 27 5 0 6 -8 2 -17 -4 -10 -11 -36 -17 -58 -5 -22
-15 -54 -23 -70 -8 -17 -28 -69 -45 -115 -76 -207 -204 -381 -367 -497 -35
-25 -65 -44 -67 -42 -11 13 -156 436 -156 455 0 39 19 37 57 -5 28 -32 43 -41
69 -41 48 0 74 27 77 80 2 40 -1 45 -20 48 -34 5 -28 16 25 49 26 17 71 48
100 69 52 37 54 37 82 21 55 -33 120 -12 120 39 0 13 5 26 10 29 14 8 13 52
-1 61 -8 4 -9 -1 -4 -16 8 -26 -12 -24 -28 2 -8 12 8 39 71 122 45 59 82 110
82 114 0 15 25 32 38 27 8 -3 18 -5 24 -5z m-1346 -147 c31 -67 31 -105 -1
-139 -14 -15 -23 -29 -20 -32 3 -3 0 -11 -6 -19 -9 -10 -15 -10 -25 -2 -21 18
-17 39 9 40 18 1 19 2 4 6 -13 3 -17 11 -14 24 3 10 1 22 -4 25 -5 3 -9 -9 -9
-25 0 -17 -4 -31 -9 -31 -5 0 -16 -3 -25 -6 -21 -8 -21 24 -1 54 9 12 15 27
14 34 -2 7 0 22 3 33 4 11 12 54 19 95 l12 74 14 -39 c8 -22 26 -63 39 -92z
m-730 35 c19 -17 47 -120 56 -208 2 -18 8 -24 23 -23 129 16 143 16 153 -4 6
-11 14 -43 18 -73 l7 -53 -83 43 c-62 33 -102 64 -166 129 -46 47 -84 91 -84
98 0 7 -6 10 -13 7 -13 -4 -97 92 -97 110 0 4 37 4 83 0 60 -5 88 -12 103 -26z
m108 -73 c65 -61 173 -137 232 -161 22 -9 40 -17 42 -19 7 -7 -72 -115 -84
-115 -7 0 -15 15 -19 33 -5 26 -36 136 -40 144 -1 2 -36 -3 -78 -11 -42 -7
-79 -11 -82 -8 -3 3 -5 16 -5 28 0 23 -22 113 -35 147 -13 31 11 18 69 -38z
m1081 -292 c9 -27 21 -58 26 -71 5 -13 9 -25 9 -28 0 -6 -44 -23 -110 -41 -53
-15 -240 -24 -240 -12 0 4 36 37 79 75 44 38 80 74 80 81 1 6 23 14 51 18 27
4 52 11 56 16 13 22 34 6 49 -38z m-527 -6 c16 -13 175 -11 222 3 41 12 110
13 110 2 0 -11 -114 -122 -126 -122 -6 0 -35 18 -65 41 -64 48 -89 63 -89 52
0 -4 22 -23 49 -42 55 -37 99 -80 85 -82 -74 -12 -293 16 -317 40 -10 10 19
121 31 121 4 0 18 -7 31 -16 22 -16 23 -16 12 3 -9 18 -7 20 17 15 15 -2 33
-9 40 -15z m648 -354 c39 -117 69 -213 65 -213 -3 0 -223 -1 -488 -3 -266 -2
-483 -1 -483 2 0 3 10 42 21 86 11 44 34 133 49 199 16 65 31 121 34 124 4 3
23 1 44 -4 32 -8 36 -13 33 -34 -8 -56 -5 -64 28 -87 45 -31 76 -29 112 6 34
35 37 51 9 58 -27 7 -25 18 3 19 119 5 358 5 380 -1 32 -9 37 -39 7 -55 -21
-11 -45 -2 -87 34 -25 21 -29 11 -12 -28 24 -51 131 -59 149 -10 5 13 8 40 6
61 -3 40 15 65 44 60 10 -1 39 -72 86 -214z m-6 -259 c124 -4 216 -9 205 -12
-11 -2 -24 -7 -30 -11 -23 -17 -176 -71 -255 -90 -91 -22 -288 -50 -373 -53
l-52 -2 48 -3 c26 -2 47 -7 47 -11 0 -10 -288 5 -442 22 -88 11 -140 22 -157
33 -14 10 -50 28 -80 40 -83 35 -111 66 -72 81 28 10 889 14 1161 6z m351 -21
c6 -137 4 -158 -13 -157 -10 0 -96 2 -190 3 -126 1 -168 4 -155 12 10 6 71 13
135 16 70 3 129 11 146 19 16 8 35 14 43 14 7 0 13 5 13 11 0 8 -26 10 -85 7
-47 -2 -85 -2 -85 1 0 6 169 89 183 90 4 1 7 -7 8 -16z"/>
<path d="M3146 6003 c-9 -22 0 -970 10 -1000 3 -13 11 -20 16 -17 5 3 7 12 4
20 -3 8 -9 238 -12 512 -4 273 -8 498 -9 500 -1 2 -6 -5 -9 -15z"/>
<path d="M2918 5983 c-2 -4 -4 -20 -3 -35 0 -16 -2 -28 -5 -28 -3 0 -5 -15 -3
-32 9 -88 14 -164 17 -279 3 -104 1 -126 -11 -126 -10 0 -14 11 -12 38 2 20
-2 43 -8 51 -19 23 -55 217 -50 268 4 37 1 51 -13 63 -17 14 -17 12 -14 -37
10 -136 13 -159 45 -278 7 -24 13 -56 15 -71 5 -38 12 -48 31 -45 9 2 18 -3
20 -9 3 -7 0 -13 -7 -13 -7 0 -8 -6 -1 -19 6 -10 8 -21 5 -24 -3 -3 -1 -13 4
-23 8 -14 11 -5 14 37 3 51 2 388 -1 419 -1 8 -2 41 -1 73 2 53 -11 92 -22 70z"/>
<path d="M14584 7977 c17 -27 15 -41 -5 -43 -5 -1 -17 -3 -26 -4 -10 -1 -2 -6
17 -9 19 -4 34 -12 33 -18 -5 -25 -15 -1273 -18 -2263 -2 -586 -4 -1076 -4
-1090 0 -57 6 -772 8 -855 1 -49 2 -192 2 -317 l-1 -228 -23 0 c-13 0 -28 5
-35 12 -9 9 -12 8 -12 -4 0 -9 5 -20 10 -23 6 -4 9 -14 8 -22 -2 -9 2 -18 9
-20 7 -3 9 4 6 18 -5 18 -3 21 11 16 10 -4 22 -7 28 -7 6 0 8 -6 5 -14 -3 -8
2 -16 15 -19 37 -10 8 -27 -40 -23 -40 3 -44 2 -28 -9 10 -8 24 -11 32 -8 15
6 49 -22 144 -117 110 -112 124 -138 129 -244 4 -90 19 -98 20 -11 2 62 20
118 37 111 8 -3 70 -6 138 -7 90 -1 126 -4 129 -14 4 -9 18 -10 54 -5 26 4
109 9 183 10 74 1 151 5 170 7 19 2 70 7 113 9 l77 6 0 -81 c0 -52 4 -81 11
-81 7 0 10 26 8 78 l-4 77 125 5 c89 4 115 7 91 13 -18 4 -50 7 -70 7 -53 0
-79 10 -84 31 -7 25 -27 24 -27 -1 0 -14 -7 -20 -22 -20 -17 0 -19 3 -10 12 7
7 12 42 12 85 l0 73 28 0 c15 0 70 -5 122 -11 139 -15 220 -18 220 -8 0 5 -24
9 -54 9 -30 0 -85 7 -122 16 -37 8 -95 14 -128 13 -57 -3 -61 -1 -64 21 -4 21
-1 23 35 17 21 -4 64 -7 97 -7 45 0 57 -3 53 -14 -4 -10 17 -14 101 -19 65 -4
111 -2 118 4 7 5 14 6 16 1 1 -5 65 -12 140 -15 128 -6 137 -6 131 11 -4 10 9
3 33 -18 22 -19 72 -64 112 -99 39 -35 72 -68 72 -73 0 -5 -24 -9 -52 -9 -189
1 -244 -13 -74 -19 l159 -5 48 -95 c27 -51 54 -99 60 -105 12 -12 -12 48 -47
117 -13 26 -24 52 -24 58 0 25 33 6 71 -42 41 -53 79 -83 46 -37 -9 13 -24 34
-33 47 -9 12 -15 25 -12 27 3 3 112 2 244 -3 l239 -7 3 -57 c4 -80 22 -73 22
8 0 63 1 66 21 61 12 -3 48 1 80 9 33 8 78 14 101 12 l43 -3 6 -115 c4 -63 8
-117 9 -120 2 -3 6 48 9 112 4 64 9 120 13 123 3 3 58 7 122 8 64 1 116 5 116
9 0 5 -6 8 -12 9 -169 7 -211 9 -219 15 -6 4 -8 22 -4 46 11 61 12 928 2 928
-5 0 -7 -11 -5 -25 3 -14 1 -28 -3 -31 -5 -3 -9 19 -10 48 0 29 -2 62 -5 73
-7 35 8 325 17 319 5 -3 9 0 9 5 0 6 -4 11 -9 11 -5 0 -9 42 -9 93 -1 50 -6
117 -11 147 -13 70 -14 780 0 780 5 0 9 -156 9 -405 0 -374 7 -481 24 -355 4
27 7 260 6 519 0 358 -3 485 -14 537 -9 48 -11 98 -7 164 8 112 4 565 -5 630
-11 70 -11 80 -3 80 11 0 14 189 11 729 -3 435 -2 503 10 498 8 -3 21 -1 29 4
11 7 11 9 -3 9 -10 0 -25 9 -35 19 -10 11 -35 32 -55 48 -20 15 -84 69 -141
118 -152 130 -187 158 -195 151 -3 -4 0 -16 7 -27 7 -12 10 -23 7 -27 -3 -3 3
-10 13 -16 17 -10 126 -98 161 -130 56 -52 114 -94 125 -90 6 3 18 -3 26 -12
12 -15 12 -16 -6 -11 -47 13 -420 17 -667 8 -147 -6 -273 -8 -282 -5 -8 3 -30
26 -49 50 -19 25 -73 79 -118 121 -46 42 -85 80 -87 83 -1 4 174 5 390 3 298
-3 401 -1 426 9 50 19 38 28 -38 28 -38 0 -70 3 -70 8 0 9 -318 5 -538 -8 -95
-5 -183 -10 -195 -10 -21 0 -22 -4 -25 -110 -2 -61 -7 -141 -12 -178 -5 -37
-6 -146 -3 -242 9 -295 4 -912 -8 -942 -6 -15 -9 -45 -7 -67 5 -56 -6 -40 -40
59 -16 47 -52 137 -79 200 -28 63 -62 154 -77 202 -14 48 -53 151 -87 230 -33
79 -89 217 -125 308 -36 91 -74 179 -84 197 -11 18 -15 35 -10 38 5 3 11 1 15
-5 3 -5 11 -10 17 -10 16 0 -13 31 -38 41 -24 8 -111 116 -102 125 3 3 24 -16
47 -42 22 -26 41 -42 41 -37 0 18 -65 84 -85 87 -12 2 -19 10 -17 20 2 9 -4
16 -12 16 -15 0 -92 85 -90 98 1 4 -14 20 -32 35 l-34 29 7 -33 6 -32 -94 6
c-52 4 -245 10 -429 13 l-335 6 -27 32 c-15 17 -28 27 -28 22 0 -5 7 -18 17
-28 30 -33 6 -30 -27 4 -32 31 -32 32 -16 5z m649 -79 l308 -2 16 -30 c9 -17
39 -56 67 -87 125 -136 127 -139 109 -139 -10 -1 -169 0 -353 2 -184 1 -370 1
-414 0 l-79 -3 -39 43 c-22 24 -47 57 -55 73 -9 17 -36 56 -59 87 -24 31 -44
60 -44 64 0 4 53 4 118 1 64 -4 256 -8 425 -9z m1243 -150 c104 -101 148 -165
137 -195 -6 -15 -8 -39 -11 -155 -2 -53 -5 -68 -17 -68 -8 0 -15 8 -15 18 -1
15 -2 15 -12 -2 -11 -20 -15 -232 -4 -243 3 -4 6 42 6 100 0 100 1 107 20 107
19 0 20 -7 20 -191 0 -179 -1 -191 -19 -196 -11 -3 -22 -15 -25 -26 -10 -37
-7 -167 4 -167 6 0 10 35 10 84 0 85 13 117 29 74 5 -13 8 -50 7 -83 -2 -33
-3 -115 -4 -182 -2 -99 -5 -123 -16 -123 -18 0 -24 21 -23 88 0 29 -3 55 -6
59 -4 3 -7 -19 -7 -49 0 -31 -3 -70 -7 -88 -5 -29 -4 -32 12 -27 10 4 24 2 31
-4 18 -15 18 -103 0 -184 l-13 -60 -11 40 c-6 22 -13 49 -16 60 -3 11 -3 -14
0 -55 4 -72 4 -74 -10 -43 -8 18 -17 74 -20 125 -8 127 -13 147 -48 191 -24
31 -29 46 -28 85 3 76 0 106 -10 122 -9 13 -11 13 -20 0 -5 -8 -8 -20 -6 -26
2 -6 1 -16 -3 -23 -15 -24 -22 141 -25 589 -2 250 -7 476 -11 503 -4 26 -5 47
-1 47 3 0 53 -46 112 -102z m-1620 -154 c-4 -10 -9 -806 -11 -1769 -3 -962 -7
-1777 -11 -1810 -4 -33 -6 -69 -6 -80 1 -10 -4 -25 -10 -32 -7 -9 -8 -21 -1
-36 8 -19 9 -43 4 -95 -2 -26 -18 -2 -25 36 -3 22 -13 46 -23 53 -15 13 -16
11 -9 -16 5 -16 7 -84 6 -150 -1 -66 -2 -167 -2 -225 0 -173 -16 -72 -23 143
-4 106 -6 207 -6 225 1 21 -2 31 -9 27 -6 -3 -10 3 -10 17 0 17 3 19 9 9 6 -9
10 -10 16 -2 4 7 3 17 -3 24 -14 18 -35 133 -29 157 4 17 3 19 -8 10 -9 -7
-12 -25 -9 -53 2 -23 6 -59 9 -79 4 -42 -9 -102 -18 -78 -12 33 -15 218 -4
230 9 10 8 12 -5 7 -10 -4 -18 -2 -18 3 0 6 4 10 9 10 4 0 9 24 10 53 1 28 3
67 4 85 2 18 0 35 -5 38 -4 3 -3 16 2 30 6 14 7 30 4 36 -5 7 -2 8 5 4 7 -5
10 -14 7 -22 -3 -8 -1 -14 3 -14 13 0 24 34 12 38 -12 4 -15 23 -3 21 19 -3
23 2 12 16 -7 8 -9 15 -5 15 4 0 -4 11 -18 24 -15 14 -22 28 -17 31 6 3 10 1
10 -6 0 -7 3 -10 6 -6 7 7 -9 38 -22 40 -11 2 -7 45 8 74 6 12 15 20 20 17 10
-6 10 -1 2 21 -6 13 -9 14 -16 3 -6 -9 -7 -6 -3 9 3 12 1 24 -4 27 -6 4 -8 13
-5 20 3 7 -5 30 -17 50 -16 27 -17 35 -6 30 16 -6 18 11 4 34 -11 17 -2 15 17
-4 15 -14 16 -13 16 14 0 17 -6 33 -12 35 -10 4 -9 8 2 16 8 5 12 13 8 16 -10
10 -37 -25 -32 -40 4 -8 1 -15 -4 -15 -12 0 -11 64 0 76 4 4 3 15 -2 24 -26
48 -34 1843 -9 1896 7 15 3 783 -5 887 -9 116 0 124 54 45 19 -29 48 -68 64
-86 l30 -34 2 -232 c2 -262 2 -246 12 -246 4 0 8 101 9 225 1 123 4 228 7 233
6 11 -35 74 -83 127 -78 84 -61 76 34 -17 76 -74 96 -100 91 -114z m898 20
c16 -6 53 -111 43 -120 -3 -3 -21 21 -41 53 -19 32 -36 51 -36 43 0 -9 20 -48
44 -87 62 -98 89 -155 153 -312 30 -75 58 -140 63 -146 4 -5 24 -55 45 -110
20 -55 54 -140 75 -190 21 -49 44 -110 50 -135 7 -25 16 -50 20 -55 9 -11 33
-73 56 -150 9 -27 21 -61 26 -75 6 -14 28 -77 49 -141 21 -63 48 -138 60 -165
11 -27 40 -107 64 -179 49 -150 175 -450 213 -512 15 -23 34 -44 44 -46 22 -6
23 -12 -8 80 -26 76 -26 82 -30 422 -2 189 -6 346 -8 348 -3 3 -1 15 3 27 5
11 5 30 1 41 -4 11 -5 24 -3 28 6 10 12 381 16 934 2 233 5 425 8 427 2 2 148
7 325 10 l321 5 6 -62 c8 -95 13 -1914 9 -3482 -2 -418 0 -821 3 -895 3 -74 7
-186 10 -248 l4 -113 -257 5 c-141 2 -272 4 -289 5 -18 0 -33 5 -33 10 0 5 -3
16 -6 24 -9 24 24 28 45 6 14 -16 21 -17 27 -8 4 7 3 14 -2 16 -42 15 -89 52
-92 72 -3 21 -1 23 20 17 12 -4 40 -11 61 -15 21 -5 46 -16 57 -26 23 -21 39
-13 21 9 -7 8 -12 28 -11 43 2 34 -9 73 -21 73 -10 0 -6 -53 6 -82 9 -23 -17
-24 -35 -3 -7 8 -27 15 -44 15 -47 0 -81 21 -81 50 0 16 5 24 13 22 8 -1 12 3
10 10 -3 7 -17 14 -31 16 -20 3 -27 9 -27 26 0 12 -4 26 -9 31 -10 10 -54 131
-73 200 -6 22 -14 42 -17 45 -14 11 -71 140 -89 200 -44 142 -132 374 -185
490 -11 25 -24 61 -28 80 -9 46 -26 93 -55 158 -13 29 -24 60 -24 70 0 10 -18
56 -41 102 -37 78 -77 178 -164 415 -18 50 -54 144 -80 210 -49 126 -76 210
-93 285 -5 25 -10 35 -11 23 0 -13 -5 -23 -9 -23 -13 0 -32 23 -33 39 0 15
-59 70 -59 55 0 -3 16 -29 35 -55 37 -52 47 -81 20 -59 -22 19 -29 6 -11 -22
12 -18 14 -44 11 -118 -6 -140 -9 -588 -7 -1055 3 -429 -5 -1152 -12 -1163 -4
-7 9 -103 19 -150 l5 -22 -432 2 -433 3 -7 145 c-3 80 -6 492 -7 915 0 424 0
922 -1 1107 -1 315 0 337 17 347 10 6 13 11 6 11 -13 0 -17 292 -18 1437 0
573 3 745 12 754 7 7 36 14 65 16 29 1 105 8 168 13 63 6 220 15 349 20 129 6
237 12 239 15 7 7 17 6 36 -1z m1727 -1081 c1 -10 1 -24 0 -30 -1 -8 5 -10 14
-7 19 8 19 5 17 -148 -2 -69 -5 -88 -16 -88 -8 0 -16 5 -18 11 -2 6 -16 1 -32
-12 -27 -21 -28 -22 -22 -2 4 12 1 25 -9 33 -11 9 -15 33 -15 97 0 82 1 84 23
81 21 -3 22 -7 22 -91 0 -54 4 -87 11 -87 6 0 10 45 9 130 -1 72 3 130 7 130
4 0 9 -8 9 -17z m29 -354 c0 -16 -5 -29 -12 -29 -9 0 -9 -3 1 -9 11 -7 14 -38
13 -148 -1 -181 -1 -175 -10 -169 -5 3 -7 19 -4 36 3 19 0 30 -7 30 -7 0 -9
-4 -6 -10 3 -5 2 -17 -3 -26 -24 -43 -25 263 -1 308 5 9 9 26 9 38 0 12 5 18
10 15 6 -3 10 -19 10 -36z m98 -497 c1 -70 7 -172 12 -227 10 -112 9 -215 -2
-215 -5 0 -8 28 -8 63 0 112 -12 233 -21 209 -5 -13 -17 -22 -29 -22 -19 0
-20 6 -20 89 0 91 9 113 35 91 12 -10 15 -10 15 2 0 8 -6 20 -12 27 -10 11
-10 14 0 18 7 3 12 23 12 49 0 24 3 44 8 44 4 0 8 -57 10 -128z m-1793 -1014
c21 -64 83 -226 96 -251 5 -9 19 -43 30 -75 11 -31 31 -82 44 -112 13 -30 37
-93 54 -140 68 -190 163 -449 186 -506 13 -34 23 -70 23 -80 -1 -11 10 -44 25
-74 43 -89 106 -270 93 -270 -6 0 -24 14 -39 32 -18 21 -24 25 -18 11 6 -12
16 -25 21 -28 18 -11 10 -24 -17 -28 -19 -3 -14 -4 16 -6 39 -1 49 -7 88 -48
23 -26 43 -51 43 -55 0 -14 -23 -9 -43 10 -17 15 -48 17 -275 20 -140 2 -274
7 -296 11 l-41 7 -3 373 c-2 274 0 377 9 387 6 8 8 14 3 14 -5 0 -9 10 -10 23
0 12 -4 200 -8 417 -4 217 -8 397 -8 400 -2 36 9 23 27 -32z m413 -598 c13
-30 30 -75 39 -100 8 -25 24 -61 34 -81 10 -21 21 -52 24 -70 3 -19 13 -41 21
-50 7 -8 14 -19 14 -24 0 -4 12 -32 26 -61 14 -29 27 -67 29 -86 1 -18 8 -45
13 -60 7 -15 7 -30 2 -33 -4 -3 -18 19 -29 49 -11 30 -32 78 -46 107 -15 30
-35 79 -45 109 -10 30 -27 75 -38 100 -44 99 -70 167 -77 200 -4 19 -11 40
-15 45 -4 6 -10 23 -14 40 l-8 30 24 -30 c12 -16 33 -54 46 -85z m-1581 -289
c-1 -60 1 -107 6 -104 4 2 7 -1 7 -6 0 -6 -4 -11 -10 -11 -5 0 -10 -7 -10 -16
0 -8 5 -12 10 -9 6 3 10 -1 10 -10 0 -9 -3 -14 -7 -12 -10 7 -4 -362 7 -433 4
-30 7 -56 6 -57 -1 -1 -8 2 -15 6 -20 13 -31 228 -25 451 4 102 5 213 4 248
-1 36 3 62 9 62 6 0 9 -41 8 -109z"/>
<path d="M14798 4619 c0 -13 -2 -35 -4 -49 -9 -80 -11 -190 -3 -195 14 -9 11
-32 -5 -38 -10 -4 -13 -1 -9 9 3 7 0 14 -5 14 -13 0 -24 -87 -24 -178 0 -37
-4 -90 -9 -118 -6 -30 -6 -60 -1 -74 9 -23 9 -23 16 10 3 19 11 42 16 50 9 13
11 13 20 0 8 -13 10 -12 11 5 0 11 2 31 3 44 2 13 -1 45 -6 72 -6 31 -5 63 2
88 11 41 16 368 6 379 -3 3 -7 -6 -8 -19z"/>
<path d="M16740 6392 c0 -121 1 -122 65 -122 57 0 66 19 63 129 l-3 96 -62 3
-63 3 0 -109z m100 -7 l0 -95 -40 0 -40 0 0 95 0 95 40 0 40 0 0 -95z"/>
<path d="M16763 5703 c-22 -4 -23 -8 -23 -114 l0 -109 54 0 c31 0 58 5 63 13
15 18 7 198 -9 208 -13 9 -46 10 -85 2z"/>
<path d="M16939 5699 c-6 -3 -8 -51 -7 -110 l3 -104 39 -3 c84 -7 86 -4 86
108 0 88 -2 100 -19 110 -20 10 -85 10 -102 -1z m76 -19 c25 -10 26 -11 23
-97 l-3 -88 -34 -3 c-20 -2 -37 2 -42 10 -13 20 -11 162 3 176 15 15 19 15 53
2z"/>
<path d="M17144 5696 c-17 -13 -19 -27 -19 -112 0 -96 0 -98 25 -104 14 -3 41
-3 60 0 l35 5 3 104 c2 77 -1 107 -10 113 -21 12 -72 9 -94 -6z m74 -14 c9 -6
12 -33 10 -97 l-3 -89 -35 0 -35 -1 -3 84 c-2 46 -1 90 2 98 6 14 44 17 64 5z"/>
<path d="M16747 5269 c-17 -10 -18 -20 -12 -107 4 -54 13 -100 19 -104 6 -4
32 -8 59 -8 l47 0 0 115 0 115 -47 0 c-27 0 -56 -5 -66 -11z m77 -15 c13 -5
16 -23 16 -95 0 -85 -1 -89 -24 -95 -55 -14 -60 -6 -59 86 1 47 2 88 2 92 1 6
18 13 43 17 3 0 13 -2 22 -5z"/>
<path d="M16934 5267 c-2 -7 -3 -58 -2 -113 l3 -99 63 -3 62 -3 0 90 c0 49 -4
101 -10 115 -8 23 -15 26 -60 26 -33 0 -52 -5 -56 -13z"/>
<path d="M17152 5270 c-22 -9 -23 -13 -20 -112 l3 -103 34 -3 c19 -2 44 -1 57
2 23 6 24 10 24 106 0 99 0 101 -26 110 -30 12 -42 12 -72 0z"/>
<path d="M16746 4828 c-3 -13 -6 -60 -6 -106 0 -76 2 -83 23 -91 12 -5 40 -6
62 -2 l40 6 3 108 3 107 -59 0 c-53 0 -60 -2 -66 -22z"/>
<path d="M16947 4843 c-4 -3 -7 -53 -7 -110 l0 -103 69 0 70 0 -11 31 c-6 18
-8 60 -5 99 4 44 2 71 -6 79 -12 12 -99 15 -110 4z"/>
<path d="M17144 4838 c-5 -7 -10 -57 -12 -111 l-4 -98 58 3 59 3 0 105 0 105
-47 3 c-30 2 -49 -2 -54 -10z"/>
<path d="M16761 4431 c-15 -28 -14 -184 1 -199 13 -13 59 -16 94 -6 19 5 20
12 18 112 l-2 107 -51 3 c-41 2 -52 0 -60 -17z"/>
<path d="M16951 4436 c-8 -9 -11 -47 -9 -112 l3 -99 29 -3 c16 -2 44 -1 63 3
l34 6 -3 107 -3 107 -51 3 c-35 2 -54 -2 -63 -12z m87 -102 c3 -85 1 -92 -18
-97 -11 -3 -29 -3 -40 0 -18 5 -20 14 -20 92 0 48 3 91 7 95 4 4 21 6 38 4
l30 -3 3 -91z"/>
<path d="M17183 4443 l-33 -4 -2 -70 c-4 -137 -4 -134 15 -137 11 -2 35 -1 54
3 l34 6 -2 105 c-2 88 -5 104 -18 102 -9 0 -31 -3 -48 -5z"/>
<path d="M16970 4023 c-24 -10 -26 -18 -25 -115 l0 -92 38 -9 c25 -6 47 -6 61
1 21 9 22 14 18 103 -2 52 -7 97 -11 101 -10 11 -64 18 -81 11z"/>
<path d="M16984 3643 l-31 -4 -7 -96 c-5 -74 -4 -98 6 -105 15 -9 64 -10 97
-1 23 6 23 8 19 99 -2 51 -6 95 -8 97 -10 9 -46 13 -76 10z"/>
<path d="M16756 3624 c-3 -9 -6 -51 -6 -95 l0 -80 31 -13 c33 -14 69 -11 69 6
0 6 6 8 13 5 9 -3 13 19 15 88 l3 92 -38 7 c-60 9 -80 7 -87 -10z"/>
<path d="M17147 3634 c-4 -4 -7 -47 -7 -95 0 -87 0 -89 26 -95 15 -4 39 -3 53
2 25 9 26 12 26 99 l0 90 -45 3 c-25 2 -49 0 -53 -4z"/>
<path d="M13260 7954 c0 -20 -4 -24 -19 -19 -58 18 -316 21 -591 5 -113 -6
-268 -10 -345 -10 -176 2 -164 3 -163 -17 0 -10 -18 -90 -41 -178 -27 -106
-38 -162 -31 -169 13 -13 13 -27 -1 -23 -12 2 -42 -119 -35 -139 3 -6 0 -16
-5 -21 -6 -6 -11 -24 -11 -42 -1 -17 -5 -31 -11 -31 -5 0 -7 -7 -4 -15 3 -8
-8 -78 -25 -157 -16 -79 -33 -163 -38 -188 -9 -53 -91 -462 -121 -605 -12 -55
-25 -120 -30 -144 -11 -55 -24 -70 -16 -18 3 20 3 37 -1 37 -8 0 -20 -54 -53
-240 -20 -114 -26 -140 -95 -445 -40 -175 -73 -354 -74 -399 0 -31 -20 -123
-57 -266 -14 -52 -36 -140 -49 -195 -13 -55 -28 -115 -34 -132 -6 -18 -15 -54
-19 -80 -18 -101 -51 -251 -71 -318 -11 -38 -32 -128 -46 -200 -14 -71 -45
-209 -69 -305 -24 -96 -46 -193 -50 -215 -3 -22 -15 -78 -27 -125 -13 -57 -19
-111 -17 -165 3 -84 -1 -99 -39 -177 -2 -5 8 -8 23 -8 15 0 25 5 24 13 -4 30
2 67 10 67 5 0 14 -19 20 -42 21 -90 41 -152 51 -162 16 -16 12 -33 -10 -39
-11 -3 -20 -10 -20 -16 0 -7 8 -7 25 -1 19 7 32 6 48 -4 17 -12 33 -13 72 -5
28 5 73 9 100 9 117 -3 176 0 170 10 -4 7 25 10 84 9 50 -1 91 -6 91 -11 0 -6
84 -7 220 -3 209 7 222 7 235 -11 14 -18 15 -18 21 4 5 19 11 22 33 17 15 -3
38 -1 52 4 21 9 19 10 -19 10 l-44 1 7 33 c4 17 14 50 23 71 l15 39 146 -9
c176 -11 391 -9 446 4 33 8 21 10 -73 11 -75 1 -111 4 -107 11 4 7 56 10 133
9 70 -1 152 0 182 1 48 1 52 3 30 12 -16 6 -73 8 -160 3 -74 -4 -239 -9 -366
-11 l-231 -3 5 26 c5 24 6 25 61 16 102 -15 395 -7 636 17 50 6 126 10 169 10
44 0 77 2 74 5 -13 13 -200 13 -283 0 -102 -16 -464 -20 -510 -6 -21 7 19 10
140 11 224 3 357 8 363 15 5 4 -491 10 -525 6 -6 -1 -14 2 -17 7 -3 5 47 9
111 9 63 0 118 5 122 10 3 5 38 10 76 10 343 3 427 6 370 14 -33 4 -196 11
-362 15 -291 6 -301 6 -300 -12 1 -13 -6 -20 -20 -22 -13 -2 -23 -8 -23 -13 0
-5 -11 -9 -24 -9 -22 0 -23 2 -20 63 3 55 17 126 45 239 5 20 12 74 15 120 4
46 10 88 14 93 4 6 16 50 26 98 l18 89 36 -6 c19 -3 171 -6 337 -6 l302 0 7
-50 c4 -28 11 -53 16 -56 6 -4 5 -10 -3 -15 -10 -6 -10 -13 -1 -34 7 -14 12
-34 12 -44 0 -11 7 -21 15 -25 8 -3 15 -13 15 -23 0 -15 -2 -16 -10 -3 -22 34
-10 -58 17 -130 4 -8 5 -19 4 -24 -2 -9 12 -102 30 -202 7 -34 23 -70 50 -105
24 -32 37 -59 34 -70 -4 -12 5 -23 29 -38 18 -12 41 -33 50 -46 20 -31 36 -33
28 -3 -3 14 -1 19 6 14 7 -4 11 -17 11 -29 0 -12 1 -31 3 -42 2 -17 -2 -20
-27 -17 -23 2 -27 1 -15 -7 8 -6 25 -11 37 -11 12 0 25 -5 28 -10 6 -10 41
-12 170 -8 232 7 858 2 864 -7 5 -5 13 -30 19 -55 13 -54 41 -124 47 -118 3 2
-7 54 -21 114 -14 60 -34 147 -44 194 -10 47 -25 111 -33 142 -8 32 -12 60 -9
62 3 3 -1 12 -8 21 -15 18 -54 174 -76 305 -8 52 -19 109 -24 125 -12 38 -54
223 -79 342 -11 51 -17 102 -14 113 3 12 0 20 -7 20 -6 0 -10 6 -8 12 3 7 -1
19 -9 26 -7 7 -13 23 -12 35 1 19 2 18 15 -8 14 -30 14 -30 7 15 -9 70 -61
301 -69 308 -3 4 -4 -2 -1 -13 3 -11 9 -38 12 -60 5 -34 4 -37 -6 -20 -7 11
-12 50 -12 88 0 41 -3 63 -8 55 -6 -9 -9 -9 -9 -1 0 6 5 15 10 18 6 4 7 11 3
18 -10 17 -64 234 -64 259 0 10 -4 20 -9 23 -4 3 -6 14 -3 25 3 11 1 20 -3 20
-5 0 -9 14 -10 31 -1 16 -6 47 -12 67 -6 20 -23 89 -37 152 -14 63 -30 131
-35 150 -5 19 -21 82 -35 140 -15 58 -37 146 -51 195 -13 50 -35 146 -49 215
-29 143 -58 277 -85 400 -101 452 -119 537 -125 600 -2 14 -14 63 -28 110 -14
47 -31 114 -37 150 -7 36 -20 94 -30 130 -11 36 -31 126 -45 200 -40 209 -52
248 -90 312 -19 33 -35 65 -35 72 0 7 -9 21 -21 32 -28 25 -55 64 -63 92 -7
20 -4 22 26 22 27 1 30 2 16 11 -10 5 -26 9 -35 7 -11 -2 -22 6 -28 20 -13 30
-25 28 -25 -4z m-877 -54 c22 -5 229 -6 462 -3 l423 4 7 -22 c4 -12 26 -50 49
-84 37 -55 74 -116 84 -138 2 -4 -223 -7 -500 -6 -290 0 -523 -3 -550 -9 -48
-9 -58 -6 -37 15 7 7 8 17 2 29 -6 11 -11 39 -12 64 -3 67 -11 62 -11 -8 0
-34 -4 -62 -8 -62 -9 0 -122 227 -116 233 6 6 164 -4 207 -13z m-193 -117 c7
-21 23 -58 36 -82 13 -24 24 -48 24 -54 0 -6 7 -19 17 -29 18 -20 19 -15 -31
-203 -15 -55 -31 -104 -37 -109 -11 -12 -12 -29 0 -22 10 7 0 -51 -28 -159
-12 -43 -21 -92 -21 -108 0 -25 -2 -28 -15 -17 -14 12 -15 8 -9 -30 5 -31 4
-41 -4 -36 -7 4 -12 5 -12 2 0 -2 -3 -12 -7 -22 -4 -11 -3 -15 4 -11 8 5 9 -1
2 -20 -11 -31 -109 -500 -169 -803 -21 -107 -57 -269 -79 -359 -23 -90 -55
-232 -72 -315 -16 -83 -36 -176 -44 -206 -8 -30 -31 -125 -50 -210 -36 -150
-60 -231 -52 -167 5 31 -9 47 -17 20 -3 -10 -12 -55 -19 -99 -8 -45 -18 -87
-22 -94 -4 -7 -2 -15 4 -19 12 -8 5 -41 -9 -41 -4 0 -5 -11 -3 -25 6 -26 -24
-173 -37 -190 -5 -6 -16 -53 -25 -105 -9 -52 -20 -108 -25 -125 -5 -16 -12
-49 -16 -73 -4 -23 -11 -45 -16 -48 -5 -3 -7 5 -4 18 3 12 10 55 17 93 6 39
15 83 20 100 5 16 12 52 15 80 4 27 10 52 14 55 6 5 11 22 26 99 3 13 -1 28
-7 32 -7 4 -12 24 -11 46 8 154 20 259 38 345 7 37 11 74 8 81 -3 8 2 17 10
20 9 4 16 14 16 24 0 15 -2 16 -10 3 -5 -8 -11 -12 -14 -9 -8 8 12 134 39 249
29 122 73 347 87 439 5 36 13 72 18 80 8 17 25 101 22 113 -1 4 5 24 12 46 8
21 26 97 40 168 15 71 42 194 61 274 19 80 48 217 65 305 17 88 35 174 39 190
5 17 14 57 20 90 7 33 18 89 26 125 8 36 26 117 40 180 14 63 34 144 45 180
17 55 28 104 44 200 24 136 31 170 37 170 4 0 13 -17 19 -37z m1234 -173 c3
-3 10 -39 16 -80 12 -84 11 -78 79 -360 27 -113 64 -272 80 -355 17 -82 38
-179 46 -215 8 -36 22 -108 30 -160 9 -52 30 -147 47 -210 36 -134 59 -250 53
-260 -3 -4 4 -43 15 -86 12 -44 23 -90 26 -103 3 -13 9 -32 14 -42 7 -12 6
-19 -2 -21 -8 -3 -8 -10 1 -27 7 -13 22 -66 32 -120 11 -53 24 -98 29 -99 6
-2 8 -8 4 -13 -3 -5 0 -26 7 -47 18 -52 16 -45 43 -167 14 -60 26 -111 27
-112 2 -3 1 -2 14 -58 5 -22 9 -42 10 -45 0 -3 5 -27 9 -55 4 -27 12 -57 17
-66 4 -9 5 -19 2 -23 -4 -4 -13 4 -20 16 -11 21 -12 21 -12 3 0 -11 7 -33 15
-50 8 -16 12 -22 10 -13 -3 10 0 20 6 24 7 5 9 -7 4 -37 -7 -49 42 -287 64
-314 7 -8 10 -21 7 -30 -4 -8 -1 -17 5 -21 7 -4 6 -9 -3 -15 -11 -7 -11 -9 -1
-9 8 0 10 -8 6 -24 -3 -13 -1 -27 5 -30 6 -4 11 -22 11 -41 0 -18 5 -35 11
-37 6 -2 12 -16 12 -31 0 -15 3 -27 7 -27 4 0 11 -15 14 -32 3 -18 9 -44 11
-58 3 -14 10 -50 16 -80 5 -30 25 -120 43 -200 42 -179 136 -586 171 -740 41
-183 57 -243 71 -272 8 -15 14 -29 14 -31 0 -3 -222 -4 -492 -3 l-493 1 -27
135 c-24 119 -51 289 -79 500 -5 36 -20 119 -33 185 -14 66 -27 134 -28 150
-2 24 -7 29 -23 27 -11 -2 -24 -3 -30 -4 -5 0 -93 3 -195 8 -102 4 -200 8
-217 8 -18 0 -33 3 -33 8 0 10 -167 9 -200 -2 -14 -5 13 -6 64 -3 60 4 87 3
83 -4 -10 -16 -84 -22 -145 -12 -40 6 -75 5 -126 -6 -50 -11 -72 -12 -77 -4
-4 6 -12 -2 -20 -20 -8 -17 -16 -31 -19 -31 -3 0 -6 -11 -6 -24 -1 -13 -23
-88 -48 -166 -26 -78 -64 -213 -86 -299 -56 -229 -54 -217 -36 -202 9 7 14 16
11 20 -2 4 2 30 10 57 7 27 16 62 20 78 3 15 8 26 11 23 6 -6 -15 -134 -26
-162 -14 -34 -23 -84 -35 -199 l-8 -78 -111 7 c-61 4 -129 11 -151 17 -22 6
-186 12 -365 14 -302 4 -325 5 -324 22 3 28 123 535 134 562 6 14 12 43 14 65
1 22 6 47 9 55 7 16 27 95 31 120 1 9 6 22 11 30 5 8 4 15 -2 17 -8 3 -8 14
-2 36 6 18 12 43 14 57 12 83 35 199 43 220 5 14 17 66 27 117 14 71 22 90 31
82 9 -7 14 -2 19 23 5 21 4 33 -4 36 -6 2 -11 19 -11 38 0 20 4 33 10 29 5 -3
7 -12 3 -20 -3 -8 -1 -15 5 -15 9 0 14 18 27 95 2 17 7 48 11 70 3 22 10 47
15 56 4 9 9 34 11 55 1 21 8 54 15 72 8 18 11 37 8 41 -2 5 3 33 12 62 9 30
15 61 14 71 -1 9 3 19 9 23 6 3 8 11 4 16 -3 5 -1 15 4 22 5 7 15 44 22 82 7
39 16 80 21 93 5 13 9 39 9 58 0 19 4 42 9 52 5 9 23 80 40 157 17 77 34 149
36 160 14 56 17 74 22 115 2 25 9 51 15 58 6 7 8 15 5 18 -3 3 1 27 8 52 19
69 61 261 84 387 11 61 32 164 46 230 15 66 33 154 41 195 17 84 42 185 54
215 5 11 14 43 20 70 7 28 15 57 18 65 3 8 7 24 8 35 9 63 150 634 160 644 3
3 26 8 52 11 61 7 1029 7 1036 0z"/>
<path d="M12675 6826 c-77 -18 -195 -71 -195 -88 0 -17 -97 -71 -110 -63 -6 4
-21 -4 -34 -17 -104 -106 -203 -284 -233 -418 -25 -112 -23 -280 6 -405 27
-114 29 -119 92 -235 25 -47 63 -119 84 -160 37 -70 209 -386 270 -493 26 -46
27 -51 16 -104 -6 -31 -18 -64 -26 -73 -11 -12 -12 -19 -3 -28 9 -9 9 -23 0
-59 -21 -87 -24 -120 -13 -127 6 -4 11 -17 11 -28 0 -20 1 -20 19 -4 15 14 35
17 103 15 45 -1 93 1 106 5 18 6 29 1 51 -23 16 -17 32 -27 36 -23 3 4 41 8
83 9 146 3 202 8 202 17 0 5 7 2 17 -5 13 -11 57 -13 212 -11 108 2 200 7 204
12 10 9 -139 23 -217 19 -30 -1 -58 0 -61 3 -5 5 117 20 185 23 76 4 79 5 74
20 -5 13 -27 14 -146 9 -184 -7 -180 -10 -202 135 -9 61 -14 116 -11 122 4 5
2 15 -3 22 -6 7 -12 37 -13 67 -2 51 4 68 94 253 152 309 203 420 242 527 14
41 35 95 45 120 60 147 51 342 -24 525 -75 181 -206 336 -319 376 -21 7 -46
21 -56 30 -9 9 -34 21 -54 28 -20 6 -52 16 -71 21 -59 18 -293 22 -361 6z
m366 -57 c107 -26 277 -115 258 -134 -4 -3 -26 -9 -50 -13 -37 -7 -50 -5 -84
16 -22 13 -53 36 -70 51 -16 15 -39 33 -50 41 l-20 15 20 -24 c11 -13 48 -43
83 -68 34 -25 62 -48 62 -51 0 -4 -55 -22 -122 -41 -162 -45 -354 -109 -400
-132 -21 -11 -41 -19 -45 -19 -4 0 -43 45 -86 99 -44 55 -86 102 -94 105 -20
8 -12 -4 81 -117 47 -59 75 -101 69 -105 -35 -22 -130 -250 -149 -357 -3 -22
-10 -47 -15 -55 -7 -15 -251 -200 -263 -200 -3 0 -6 10 -6 23 0 12 -7 45 -16
72 -26 86 -20 222 16 345 31 104 111 282 149 329 21 28 9 32 111 -40 25 -18
61 -43 80 -56 25 -18 21 -12 -15 21 -27 26 -69 59 -92 74 -24 15 -43 32 -43
38 0 16 125 98 214 139 44 20 107 43 140 50 96 21 240 18 337 -6z m320 -200
c123 -156 180 -305 178 -469 -1 -47 -3 -77 -6 -67 -6 21 -29 22 -37 1 -11 -28
-6 -51 14 -69 24 -21 27 -77 6 -95 -12 -9 -20 -4 -45 31 -17 23 -31 47 -31 54
0 7 -7 27 -16 46 -9 19 -27 57 -40 84 -13 28 -38 91 -56 140 -17 50 -55 144
-84 210 -58 134 -58 133 16 159 63 21 65 21 101 -25z m-204 -37 c-3 -15 -11
-100 -18 -190 -7 -89 -17 -162 -21 -162 -4 0 -14 12 -22 28 -20 39 -119 130
-161 147 -49 21 -150 19 -221 -5 -74 -25 -125 -66 -153 -122 -14 -29 -21 -36
-21 -23 0 12 9 38 20 60 11 22 20 45 20 52 0 20 57 66 108 87 64 27 444 154
461 155 10 1 12 -7 8 -27z m63 -110 c18 -42 59 -146 91 -231 33 -85 72 -178
88 -207 16 -30 25 -54 20 -54 -5 0 -62 35 -127 78 -65 42 -128 82 -139 89 -18
10 -20 17 -13 50 12 52 30 244 30 310 0 30 4 52 9 49 5 -4 24 -41 41 -84z
m-295 -113 c27 -7 58 -29 97 -69 48 -49 58 -66 68 -115 12 -60 9 -99 -16 -177
-25 -78 -137 -168 -209 -168 -65 0 -149 60 -187 134 -28 54 -23 199 10 268 26
55 77 116 106 128 30 12 84 12 131 -1z m391 -341 c85 -55 153 -106 151 -112
-2 -6 -116 -67 -253 -136 -137 -69 -279 -144 -317 -168 -76 -48 -101 -52 -118
-19 -19 38 -129 176 -173 218 -10 9 -15 22 -12 28 4 5 0 13 -7 18 -13 7 -36
39 -90 124 -16 25 -16 28 -3 23 19 -7 21 7 4 24 -6 6 -12 24 -14 39 -1 15 0
23 3 16 2 -7 11 -9 19 -6 9 3 14 -2 14 -16 0 -12 4 -21 9 -21 5 0 12 -21 16
-47 9 -61 18 -78 69 -131 62 -65 88 -76 181 -76 60 1 93 7 129 23 27 12 51 20
53 17 2 -2 -7 -16 -20 -32 -26 -31 -102 -164 -94 -164 3 0 33 42 67 93 35 50
82 112 106 137 53 55 96 148 102 218 3 28 9 52 14 52 5 0 79 -46 164 -102z
m-845 -65 c30 -49 172 -239 242 -324 l55 -66 -127 52 c-69 29 -148 63 -176 77
-27 13 -98 44 -157 69 -59 24 -107 46 -107 49 0 4 237 177 246 180 1 0 12 -17
24 -37z m1000 -158 c-16 -33 -36 -77 -46 -97 -9 -21 -22 -35 -27 -32 -13 8
-63 -49 -89 -100 -23 -47 -23 -46 -5 -46 16 0 49 47 49 70 0 8 6 20 13 27 7 7
14 18 17 25 2 7 7 10 11 7 10 -9 -48 -141 -112 -252 -32 -56 -66 -122 -76
-147 -24 -62 -196 -384 -246 -461 -22 -34 -40 -69 -40 -76 0 -8 -9 -26 -20
-40 -11 -14 -20 -32 -20 -40 0 -8 -4 -11 -10 -8 -5 3 -10 85 -11 198 0 106 -3
221 -5 257 -2 36 -6 149 -9 251 l-6 187 38 23 c117 72 173 102 275 153 231
113 342 166 344 163 2 -2 -10 -30 -25 -62z m-1196 -47 c28 -11 104 -43 170
-73 66 -29 171 -74 233 -101 63 -26 116 -52 117 -58 6 -18 25 -408 30 -621 3
-110 8 -215 11 -232 7 -47 -8 -40 -35 15 -13 26 -68 124 -123 217 -281 477
-303 515 -384 675 -96 189 -107 213 -86 205 9 -4 40 -16 67 -27z"/>
<path d="M5409 7957 c-8 -8 -31 -25 -51 -38 -20 -13 -56 -40 -79 -59 -27 -22
-41 -29 -36 -17 8 20 -6 23 -22 3 -9 -11 -9 -15 1 -20 8 -3 -18 -35 -72 -86
-63 -60 -97 -84 -130 -94 -37 -11 -41 -14 -24 -20 19 -6 20 -10 11 -54 -11
-56 -15 -1151 -5 -1370 10 -226 14 -1558 5 -1847 -12 -416 -17 -831 -8 -810
11 26 20 -119 15 -250 -3 -114 -4 -403 -1 -455 2 -30 6 -35 37 -42 19 -5 92
-10 161 -12 70 -2 130 -6 135 -9 7 -4 391 -11 469 -9 6 1 28 6 50 13 65 19
156 23 166 7 7 -9 11 -10 17 -2 4 6 31 15 61 19 36 5 49 10 40 16 -8 5 -29 6
-46 3 -18 -4 -33 -2 -33 3 0 17 57 65 64 54 5 -7 15 -7 32 -1 28 11 75 10 68
-2 -3 -4 -13 -8 -23 -8 -18 0 -63 -29 -46 -30 10 0 194 17 265 25 19 2 40 4
45 5 6 0 4 4 -2 8 -7 4 -61 7 -120 7 -60 -1 -89 0 -66 2 33 3 41 7 36 20 -5
13 1 14 43 9 27 -3 94 -6 149 -7 55 0 102 -4 105 -8 3 -4 28 -5 55 -1 46 5 48
6 20 13 -16 4 -74 8 -127 9 -53 1 -95 5 -92 10 3 5 -49 9 -118 8 -155 -1 -150
-2 -144 8 5 8 306 25 428 25 34 0 45 3 39 11 -6 7 -47 10 -115 9 -61 -2 -108
2 -111 7 -7 11 35 14 153 13 39 -1 72 3 72 8 0 5 -36 9 -79 9 -44 0 -82 4 -85
9 -7 11 78 23 109 15 13 -3 25 -1 29 4 6 10 -128 27 -143 18 -4 -3 -28 -2 -52
2 -41 8 -37 9 51 17 125 10 85 23 -86 26 -68 2 -124 5 -124 7 0 3 7 10 15 16
11 8 14 20 9 43 -8 39 -23 35 -18 -4 4 -28 4 -28 -5 -3 -13 37 -13 62 1 54 8
-5 9 2 5 23 -3 17 -1 35 4 40 7 7 7 49 0 129 -11 126 -23 804 -15 804 16 0 95
-202 163 -417 44 -137 100 -313 126 -393 25 -80 66 -210 92 -290 25 -80 56
-173 69 -207 13 -34 24 -68 24 -76 0 -8 7 -20 15 -27 27 -23 16 -30 -47 -30
-51 -1 -59 -3 -44 -12 18 -10 703 -5 786 6 106 15 412 22 431 10 6 -3 17 -22
25 -40 8 -19 18 -34 22 -34 9 0 8 82 -2 98 -5 8 7 33 33 67 23 30 44 55 46 55
12 0 3 -21 -19 -43 -13 -13 -29 -34 -36 -48 -11 -20 -7 -19 28 11 22 19 41 39
41 43 2 20 101 196 127 226 2 2 14 -4 26 -15 l22 -19 -15 25 c-9 14 -19 39
-22 56 -3 18 -28 83 -56 145 -56 130 -203 492 -251 619 -17 47 -38 99 -45 115
-7 17 -29 75 -48 130 -47 135 -76 214 -92 250 -29 68 -76 225 -70 234 3 6 1
11 -4 11 -6 0 -11 8 -11 18 0 9 -30 85 -66 167 -36 83 -72 169 -81 193 -8 23
-20 42 -27 42 -7 0 -17 5 -24 12 -10 10 -6 17 14 35 15 13 32 23 37 23 6 0 2
-6 -9 -14 -10 -8 -16 -18 -11 -22 10 -10 36 27 30 43 -3 8 19 40 48 71 64 69
135 155 133 162 -2 6 57 90 63 90 7 0 -27 -59 -37 -65 -5 -3 -10 -11 -10 -17
0 -19 50 33 86 90 53 82 79 141 108 248 15 55 31 110 36 124 19 54 26 114 34
280 4 69 11 177 16 240 5 63 9 133 9 155 0 77 -28 231 -58 322 -17 51 -31 99
-31 108 0 8 -3 15 -8 15 -9 0 -39 67 -47 107 -6 27 -6 27 9 9 9 -11 17 -29 17
-40 1 -16 2 -17 6 -4 6 22 -62 157 -122 243 -32 46 -44 70 -36 75 9 5 8 10 -4
20 -13 11 -15 10 -9 -4 9 -22 -9 -20 -23 3 -10 15 -10 21 0 24 18 7 -128 146
-208 198 -105 69 -230 133 -340 174 -54 20 -108 43 -120 51 -14 9 -24 11 -27
5 -2 -6 -56 4 -133 24 -195 50 -399 70 -610 59 -93 -4 -312 -8 -487 -9 -255 0
-314 2 -306 13 15 18 3 26 -13 9z m501 -61 c96 -2 245 0 330 3 224 9 425 -18
555 -73 17 -7 62 -24 100 -36 39 -13 79 -29 90 -36 11 -7 36 -15 55 -18 32 -6
30 -4 -25 29 -45 27 -53 34 -30 29 17 -4 34 -11 39 -15 6 -5 18 -9 27 -9 27 0
329 -153 382 -194 26 -20 51 -36 56 -36 15 0 96 -94 140 -165 25 -38 57 -90
73 -114 40 -63 37 -90 -6 -53 -20 17 -20 17 -2 -12 15 -23 16 -30 5 -37 -8 -5
-12 -9 -9 -10 3 0 13 -2 23 -4 14 -3 17 1 12 18 -4 17 -2 16 6 -3 53 -116 109
-276 115 -325 4 -27 10 -57 15 -66 7 -15 26 -109 36 -184 7 -58 7 -310 -1
-333 -12 -36 -27 -14 -21 31 9 60 5 265 -5 290 -8 21 -9 21 -10 -3 0 -15 -13
-35 -30 -50 -17 -13 -30 -29 -30 -35 0 -6 -13 -25 -28 -43 l-28 -31 2 45 c1
25 4 48 7 51 3 3 3 12 0 20 -5 13 -1 15 18 10 21 -5 24 -3 25 23 1 20 -3 27
-12 23 -9 -3 -14 2 -14 15 0 12 -5 24 -11 27 -6 4 -8 14 -5 22 3 8 -2 28 -11
44 -19 32 -37 39 -29 12 13 -45 11 -193 -3 -193 -10 0 -18 37 -26 120 -7 67
-58 235 -95 310 -25 53 -108 190 -120 200 -4 3 -9 13 -13 23 -4 10 -11 15 -17
12 -5 -3 -10 1 -10 9 0 8 -9 20 -20 26 -11 6 -20 17 -20 25 0 8 -6 15 -13 15
-6 0 -41 25 -76 56 -78 67 -183 139 -277 187 -127 64 -361 129 -569 158 -118
17 -558 17 -890 2 -363 -18 -465 -21 -465 -14 0 4 11 13 24 21 26 16 134 110
225 198 l56 53 165 -6 c91 -4 244 -8 340 -9z m360 -276 c313 -27 617 -103 778
-194 152 -86 313 -230 381 -339 12 -20 27 -37 32 -37 5 0 9 -7 9 -15 0 -9 6
-18 14 -21 8 -3 13 -11 10 -18 -3 -7 2 -19 11 -26 33 -28 59 -99 110 -310 50
-206 62 -280 46 -280 -5 0 -11 -9 -14 -20 -4 -15 0 -20 15 -20 20 0 20 -5 14
-217 -5 -207 -10 -263 -25 -263 -3 0 -5 -21 -4 -47 0 -27 -2 -52 -7 -58 -4 -5
-10 -27 -14 -47 -22 -124 -140 -387 -206 -461 -43 -49 -158 -143 -246 -202
-63 -42 -94 -51 -94 -25 0 5 -4 10 -9 10 -5 0 -4 -13 2 -29 12 -33 -1 -52 -50
-73 l-28 -12 39 -5 c38 -6 39 -7 82 -106 48 -109 110 -263 203 -505 33 -85 89
-224 126 -308 37 -84 65 -155 62 -158 -3 -3 -26 35 -52 83 -65 121 -96 180
-210 388 -54 99 -138 259 -187 355 -96 187 -466 861 -505 921 -26 39 -28 49
-12 49 23 0 96 111 127 190 46 122 56 186 54 367 -1 201 -12 252 -77 386 -19
40 -52 80 -104 129 -42 39 -66 65 -54 59 30 -15 38 -14 23 4 -7 8 -16 15 -21
15 -5 0 -26 11 -47 24 -20 13 -65 33 -100 46 -57 21 -73 22 -177 16 -62 -3
-124 -10 -138 -15 -13 -5 -50 -12 -82 -15 -79 -9 -86 -19 -10 -15 l60 4 0
-635 c0 -349 4 -642 8 -651 5 -11 -3 -31 -27 -65 -20 -27 -66 -98 -102 -159
-37 -60 -79 -128 -94 -150 -47 -69 -506 -849 -615 -1045 -99 -178 -106 -190
-111 -190 -5 0 1 1527 8 2205 1 77 -2 340 -6 585 -11 696 -14 844 -18 865 -4
23 15 27 107 23 107 -5 376 0 525 10 201 13 463 14 600 2z m126 -846 c58 -28
189 -176 228 -257 51 -109 61 -162 61 -337 -1 -162 -16 -265 -52 -339 -16 -32
-27 -39 -98 -64 -62 -22 -100 -29 -170 -30 -75 -2 -89 0 -87 13 5 23 2 767 -4
914 l-5 129 46 -7 c26 -3 62 -13 81 -22z m1447 -356 c-1 -35 -2 -71 -2 -80 -1
-10 -8 -18 -16 -18 -18 0 -20 21 -3 38 13 13 0 16 -19 4 -13 -8 -6 -62 9 -62
5 0 8 -8 7 -17 -2 -10 1 -29 5 -42 5 -16 4 -26 -4 -31 -7 -5 -14 -22 -15 -39
-1 -25 1 -29 12 -19 18 15 29 2 13 -17 -7 -8 -9 -15 -4 -16 5 0 -2 -5 -16 -10
-13 -6 -20 -13 -15 -17 14 -10 17 -32 5 -32 -5 0 -10 4 -10 10 0 5 -6 7 -14 4
-11 -4 -13 3 -10 36 2 22 8 49 14 59 7 14 6 22 -4 30 -9 8 -13 39 -12 113 1
89 3 103 19 106 12 3 17 -3 17 -19 0 -17 3 -20 12 -11 8 8 8 15 -1 25 -9 11
-9 21 0 41 21 46 34 31 32 -36z m-1754 -255 c1 -10 1 -29 1 -43 0 -14 1 -36 2
-50 1 -14 1 -45 1 -70 -3 -188 -1 -363 4 -375 3 -8 1 -15 -4 -15 -6 0 -16 -12
-23 -27 -11 -26 -13 -26 -20 -8 -4 10 -5 31 -3 45 1 14 3 109 3 211 0 158 2
188 15 193 8 3 15 11 14 18 0 10 -2 10 -6 1 -2 -7 -8 -13 -13 -13 -14 0 -4
116 11 133 18 20 18 20 18 0z m482 -650 c28 -54 70 -132 92 -173 22 -41 84
-156 138 -256 55 -99 99 -183 99 -186 0 -10 208 -397 302 -563 47 -82 105
-188 130 -235 24 -47 85 -159 135 -250 50 -91 112 -219 138 -285 25 -66 66
-169 90 -230 51 -126 64 -172 46 -161 -6 4 -11 12 -11 17 0 17 -426 865 -550
1094 -62 116 -168 318 -236 450 -68 132 -130 249 -139 260 -27 35 21 -64 155
-320 29 -55 88 -170 132 -255 44 -85 95 -182 113 -215 45 -83 685 -1360 685
-1368 0 -3 -86 -6 -192 -7 -105 0 -340 -7 -522 -15 -182 -8 -333 -11 -336 -7
-3 4 -13 30 -22 57 -9 28 -62 187 -117 355 -102 312 -235 727 -267 835 -10 33
-25 112 -35 175 -16 103 -17 107 -12 37 3 -43 6 -85 7 -92 0 -8 -3 -15 -9 -15
-5 -1 -29 42 -53 96 l-43 97 -3 149 c-2 106 0 148 8 145 6 -2 13 -42 16 -98 3
-63 7 -86 12 -69 9 31 10 117 2 159 -6 26 -11 31 -37 31 l-30 0 5 -120 c4 -86
2 -120 -6 -117 -21 7 -95 141 -95 174 -1 17 -5 34 -10 37 -4 3 -6 -6 -3 -19 7
-37 -11 -30 -59 23 -24 26 -43 46 -42 43 2 -2 -7 -9 -19 -15 -21 -11 -21 -12
-18 -306 3 -162 4 -573 5 -912 l0 -616 -105 -8 c-58 -4 -181 -3 -275 2 -170 9
-493 8 -551 -1 l-30 -5 0 260 c-1 143 2 260 5 260 4 0 5 78 3 173 l-4 173 117
230 c65 126 132 256 150 289 117 215 206 398 147 300 -38 -62 -212 -386 -302
-560 -114 -221 -123 -233 -114 -146 5 53 17 84 67 175 33 61 71 129 85 150 13
22 46 78 72 125 26 47 94 167 152 266 58 99 145 248 193 330 48 83 131 224
185 315 53 91 115 196 137 233 l40 68 114 3 c147 5 206 18 306 71 l82 43 20
-36 c11 -21 41 -76 66 -124 25 -49 47 -88 50 -88 6 0 -62 147 -96 206 -24 42
-28 64 -13 64 1 0 26 -44 55 -97z m669 -584 c0 -10 5 -21 11 -25 6 -3 40 -68
75 -143 66 -138 82 -170 102 -206 21 -37 102 -228 107 -251 2 -6 10 -24 19
-40 l16 -29 -6 27 c-5 23 -3 26 15 21 26 -7 70 -58 83 -95 6 -16 13 -28 17
-28 5 0 16 -18 26 -40 10 -22 22 -40 26 -40 19 0 17 20 -5 53 -13 19 -22 38
-19 41 4 3 -30 41 -74 83 -73 71 -84 88 -126 183 -25 58 -49 117 -53 133 -10
44 12 32 36 -20 54 -118 73 -152 81 -147 5 3 6 -2 3 -10 -4 -10 -1 -16 10 -16
10 0 13 -6 10 -15 -5 -11 -2 -13 10 -9 9 4 16 1 16 -6 0 -7 7 -10 17 -6 10 4
14 4 10 0 -4 -4 0 -18 9 -32 8 -13 13 -30 10 -37 -7 -18 10 -29 18 -13 3 7 3
3 0 -9 -4 -16 -1 -23 9 -23 17 0 31 -31 128 -285 23 -60 23 -61 4 -45 -13 11
-14 10 -9 -4 3 -9 10 -16 16 -16 5 0 6 -5 3 -10 -4 -6 -1 -9 5 -8 7 2 19 -15
26 -37 8 -22 22 -56 30 -75 25 -56 52 -116 75 -167 11 -27 27 -61 35 -78 7
-16 25 -61 40 -100 14 -38 33 -83 41 -98 8 -16 12 -31 9 -34 -3 -4 -17 20 -31
52 -14 31 -28 55 -30 53 -8 -7 49 -127 61 -130 7 -2 8 -11 4 -22 -6 -18 -8
-17 -22 10 -55 107 -87 172 -93 194 -4 14 -16 36 -25 50 -24 34 -256 494 -298
592 -35 80 -78 149 -48 78 30 -74 108 -245 116 -255 4 -5 20 -39 36 -75 16
-36 67 -137 114 -225 47 -88 94 -178 104 -200 58 -126 99 -205 117 -220 18
-17 19 -17 19 5 0 19 3 21 12 12 16 -16 -9 -61 -96 -175 -35 -45 -71 -97 -80
-114 -22 -44 -33 -41 -46 10 -6 23 -20 63 -30 89 -23 54 -25 78 -7 79 9 0 9 2
-1 6 -12 4 -74 126 -77 148 0 6 -6 21 -12 35 -6 14 -21 50 -33 80 -12 30 -30
76 -41 103 -10 26 -15 47 -10 47 10 0 61 -104 61 -124 0 -7 7 -21 16 -32 15
-19 15 -19 11 1 -3 11 -8 29 -13 39 -6 16 -4 18 9 13 19 -7 21 1 7 23 -6 10
-10 11 -10 3 0 -26 -16 -12 -29 25 -18 48 -41 83 -51 77 -14 -9 -148 300 -136
313 3 2 10 -8 17 -24 6 -16 15 -37 20 -46 5 -10 9 -22 9 -28 0 -19 92 -205 96
-194 3 5 -20 62 -49 125 -30 63 -60 131 -68 152 -8 23 -18 36 -26 33 -8 -4
-13 3 -13 17 0 13 -4 27 -9 32 -9 11 -46 107 -44 115 0 3 -7 16 -17 30 -24 34
-170 401 -170 427 0 2 5 1 11 -3 16 -10 2 35 -22 68 -10 15 -19 30 -19 35 0 4
-16 40 -36 81 -20 40 -34 76 -31 78 8 8 41 -46 71 -116 15 -36 36 -84 47 -107
22 -49 23 -57 8 -47 -14 8 -2 -35 16 -56 7 -8 16 -31 20 -50 4 -19 20 -64 36
-99 16 -35 29 -68 29 -73 0 -10 51 -120 60 -128 7 -7 31 -71 37 -100 3 -14 10
-30 15 -36 4 -6 31 -51 59 -100 28 -49 47 -78 43 -64 -9 32 -54 119 -64 125
-5 3 -18 35 -30 73 -12 37 -32 90 -45 117 -72 154 -95 210 -95 229 1 21 1 21
16 1 8 -11 20 -38 26 -60 12 -42 38 -88 38 -67 0 7 -11 40 -25 74 -28 69 -35
123 -12 98 8 -8 26 -46 42 -85 33 -82 45 -100 40 -58 -2 17 -18 56 -35 87 -17
32 -27 62 -24 68 4 7 2 8 -4 4 -7 -4 -14 3 -18 19 -3 14 -10 25 -14 25 -12 0
-50 100 -50 132 0 17 -6 42 -14 56 -7 15 -20 41 -27 57 -8 17 -18 33 -22 36
-5 3 -9 12 -11 20 -1 8 -27 66 -59 130 -60 122 -66 139 -42 119 8 -7 15 -21
15 -31z m-1083 -1564 c3 -104 6 -218 6 -252 0 -65 10 -84 20 -35 6 30 1 108
-13 216 -5 39 -6 74 -2 80 9 15 32 -94 41 -194 5 -56 10 -79 15 -67 5 9 6 24
3 32 -4 8 -2 17 3 20 5 3 10 -3 13 -12 2 -10 2 10 0 45 -4 80 12 81 20 2 l7
-60 -61 -73 c-33 -39 -63 -73 -67 -74 -4 -2 -7 73 -7 167 0 122 -3 172 -12
182 -17 16 -17 -9 -1 -119 9 -65 9 -86 0 -95 -9 -9 -12 -5 -13 18 -1 31 -2 47
-12 109 -3 22 -2 103 2 180 5 94 9 120 11 78 1 -35 4 -67 5 -73 1 -5 3 -26 4
-45 0 -19 6 -35 12 -35 8 0 9 32 4 108 -9 127 -10 199 -5 267 5 69 19 -125 27
-370z"/>
<path d="M6015 5291 c-53 -9 -60 -14 -91 -67 -22 -37 -25 -52 -20 -88 8 -48
24 -69 45 -57 7 5 12 11 12 15 -1 3 1 6 4 6 27 0 29 -1 15 -10 -12 -8 -10 -10
8 -10 13 0 20 4 17 10 -10 16 76 12 95 -5 14 -13 19 -13 35 -1 16 11 19 27 19
86 0 69 -1 74 -32 101 -33 30 -39 31 -107 20z m115 -123 l0 -38 -80 6 c-59 5
-84 3 -95 -6 -24 -20 -39 1 -31 44 l7 36 99 -2 100 -1 0 -39z"/>
<path d="M6421 5258 c-34 -37 -40 -84 -18 -147 14 -40 29 -48 50 -27 9 10 17
12 19 5 2 -7 19 -7 53 1 37 8 55 8 71 -1 81 -43 75 106 -7 175 -25 21 -41 26
-84 26 -48 0 -57 -4 -84 -32z m204 -89 c4 -17 4 -33 1 -36 -3 -3 -50 -6 -106
-7 -106 -1 -110 1 -110 50 0 24 1 24 104 24 l104 0 7 -31z"/>
<path d="M6577 4739 c-26 -10 -78 -89 -58 -89 5 0 7 -9 4 -20 -3 -11 -10 -20
-15 -20 -5 0 -6 10 -3 21 5 15 3 20 -6 17 -42 -14 -1 -280 46 -298 28 -10 42
-3 41 22 -1 15 6 22 24 23 14 2 32 -1 40 -6 12 -7 11 -8 -5 -9 -21 0 -45 -17
-45 -32 0 -4 50 -8 110 -8 67 0 110 4 110 10 0 6 -26 11 -57 11 -54 2 -55 2
-18 8 34 5 37 8 22 17 -16 9 -13 11 18 12 30 1 37 -3 45 -24 24 -63 82 8 83
101 0 43 -63 185 -108 242 -22 27 -27 28 -112 30 -48 1 -100 -2 -116 -8z m219
-67 c13 -8 34 -46 34 -61 0 -13 -256 -16 -263 -3 -2 4 0 22 5 40 l9 32 102 0
c56 0 107 -4 113 -8z m76 -123 c25 -47 23 -95 -2 -109 -23 -12 -93 -3 -84 11
3 5 -32 8 -78 8 -46 -1 -75 -3 -65 -6 33 -9 6 -23 -44 -23 -50 0 -50 0 -70 47
-11 25 -21 53 -22 62 -1 9 -6 21 -10 27 -3 6 -5 13 -3 15 3 2 85 3 183 3 l178
-2 17 -33z"/>
<path d="M5674 4709 c-30 -8 -51 -32 -81 -89 -14 -27 -45 -33 -54 -11 -3 9
-12 2 -27 -23 -23 -39 -20 -47 6 -17 13 14 23 16 42 11 25 -8 25 -8 2 -9 -13
-1 -20 -5 -17 -11 3 -5 -3 -27 -15 -49 -22 -44 -25 -77 -11 -113 5 -13 12 -35
15 -50 5 -22 12 -28 31 -28 18 0 25 5 25 20 0 19 7 20 123 20 117 0 123 -1
132 -22 23 -53 71 -25 79 45 3 26 13 58 21 71 12 17 15 42 13 88 -3 52 -10 72
-37 111 -18 27 -44 52 -58 58 -30 11 -147 10 -189 -2z m178 -68 c4 -3 10 -18
13 -33 l7 -28 -131 0 c-76 0 -131 4 -131 10 0 5 5 20 11 34 11 24 17 25 93 28
83 3 126 0 138 -11z m78 -94 c0 -21 -29 -73 -30 -53 0 4 -8 -2 -19 -15 -14
-17 -28 -23 -56 -22 -46 1 -34 -15 17 -24 30 -4 37 -2 43 16 3 11 10 21 15 21
12 0 -8 -52 -23 -62 -21 -14 -323 -9 -335 5 -11 13 -13 69 -3 77 3 3 13 19 21
35 l16 30 157 3 c135 2 157 0 157 -13 0 -8 5 -15 10 -15 6 0 10 9 10 20 0 11
5 20 10 20 6 0 10 -10 10 -23z"/>
<path d="M5429 3741 c-49 -16 -76 -41 -115 -111 -29 -52 -44 -70 -61 -70 -35
0 -53 -11 -53 -31 0 -10 3 -19 8 -19 4 0 13 -4 20 -9 11 -6 6 -24 -23 -84 -42
-88 -54 -168 -31 -207 9 -14 23 -41 32 -60 9 -19 23 -43 32 -52 16 -19 62 -25
62 -8 0 9 115 7 335 -4 43 -2 60 -1 45 4 -21 7 -19 8 17 9 23 1 45 -3 48 -9
18 -29 85 8 88 49 1 14 10 27 24 32 29 11 30 18 1 13 -14 -3 -8 3 15 16 22 12
36 24 33 27 -3 3 -17 -2 -30 -11 -16 -10 -27 -12 -31 -6 -4 6 15 19 41 30 26
11 44 23 41 26 -3 3 -20 -1 -38 -10 -35 -18 -48 -14 -31 7 7 8 9 17 5 20 -3 4
0 7 8 7 8 0 15 10 16 21 1 12 6 26 10 30 5 5 5 48 1 96 -5 59 -4 91 4 100 8
10 4 23 -18 54 -16 23 -39 57 -50 76 -48 78 -47 78 -222 80 -86 1 -169 -2
-183 -6z m335 -22 c3 -3 0 -17 -7 -32 -9 -21 -16 -25 -32 -19 -11 4 -95 7
-188 7 -92 0 -167 3 -167 6 0 9 44 30 81 39 37 10 304 9 313 -1z m-79 -67 c45
-8 63 -35 72 -103 l6 -39 -227 0 c-174 0 -226 3 -226 13 1 6 13 37 29 67 25
50 31 56 67 61 56 9 232 9 279 1z m110 -159 c-8 -31 -15 -87 -18 -148 -2 -35
-7 -42 -37 -58 -19 -9 -45 -15 -57 -12 -16 4 -23 1 -23 -10 0 -24 65 -20 91 6
27 27 37 17 15 -15 -13 -20 -13 -24 -2 -20 21 8 25 24 37 138 12 106 22 140
42 133 14 -4 23 -87 9 -87 -9 0 -27 -68 -37 -140 -9 -66 -15 -80 -31 -80 -8 0
-12 4 -9 10 3 5 -11 2 -32 -8 -33 -15 -70 -17 -263 -16 -143 1 -235 5 -253 12
-50 21 -62 111 -14 113 17 1 18 2 5 6 -26 6 -22 33 13 99 32 62 69 108 69 86
0 -10 54 -12 240 -12 230 1 239 2 245 21 10 31 19 14 10 -18z"/>
<path d="M5735 3437 c-6 -8 -27 -39 -48 -70 l-38 -57 -170 0 c-167 0 -170 0
-194 25 -14 13 -25 29 -25 35 0 5 -4 10 -10 10 -13 0 -1 -30 22 -56 35 -39 -3
-70 -53 -44 -12 7 -19 7 -19 1 0 -15 34 -31 64 -31 17 0 26 6 26 15 0 23 47
42 63 26 6 -6 12 -17 12 -24 0 -12 148 -12 188 -1 9 3 17 1 17 -5 0 -5 -21
-11 -47 -13 l-48 -3 58 -5 c47 -4 57 -2 55 10 -4 25 12 40 41 40 15 0 31 3 34
7 4 3 21 8 38 10 37 4 69 20 69 35 0 7 -4 7 -12 1 -7 -6 -28 -15 -45 -21 -45
-15 -43 0 7 71 22 32 36 57 32 57 -4 0 -12 -6 -17 -13z"/>
<path d="M6930 3735 c-8 -2 -32 -6 -52 -10 -29 -4 -44 -15 -72 -55 -20 -28
-42 -50 -50 -50 -20 0 -22 -12 -25 -151 -2 -115 0 -133 22 -190 14 -35 31 -90
38 -122 14 -65 46 -100 88 -95 19 2 27 11 33 36 9 33 10 33 51 26 43 -8 310
-7 337 1 9 3 22 -7 32 -25 12 -21 25 -30 42 -30 26 0 56 23 56 43 0 7 8 37 17
68 13 42 25 60 43 68 l25 11 -25 -5 c-23 -4 -25 -1 -25 33 0 26 -12 56 -38 97
l-37 59 25 16 c16 9 25 22 23 35 -2 16 -11 20 -42 20 -39 0 -39 0 -69 70 -54
130 -85 148 -257 151 -69 2 -132 1 -140 -1z m303 -48 c15 -9 33 -30 41 -46
l15 -28 -189 5 c-153 4 -193 2 -207 -9 -10 -8 -14 -9 -10 -2 4 7 1 29 -8 49
-8 20 -15 38 -15 39 0 10 52 13 190 12 130 -2 160 -5 183 -20z m69 -151 c33
-96 48 -89 -197 -84 -118 2 -217 7 -221 10 -3 4 -3 34 1 68 l7 61 196 -2 196
-1 18 -52z m-502 -97 c24 -9 34 -9 39 0 5 8 17 8 42 0 18 -5 111 -12 204 -16
150 -4 190 -2 264 18 15 5 64 -71 75 -116 8 -33 8 -91 1 -115 -3 -8 -15 -21
-27 -29 -24 -15 -104 -17 -122 -3 -10 8 -247 8 -264 -1 -4 -2 -35 -4 -70 -6
-85 -4 -105 10 -121 86 -7 32 -21 72 -31 88 -21 36 -42 105 -31 105 5 0 23 -5
41 -11z"/>
<path d="M9625 7961 c17 -4 -256 -7 -607 -7 -350 1 -634 -2 -631 -6 2 -5 34
-8 71 -9 129 -2 129 -2 23 -104 -50 -50 -108 -111 -127 -137 -21 -30 -42 -48
-54 -48 -20 0 -20 -4 -16 -712 2 -392 8 -761 12 -820 l7 -108 -26 -21 c-21
-16 -27 -29 -27 -58 0 -45 -30 -78 -80 -87 -85 -16 -97 -51 -39 -106 l39 -37
-35 -46 c-36 -48 -44 -89 -25 -126 13 -24 81 -59 114 -59 23 0 24 -3 19 -35
-5 -29 -1 -41 17 -60 13 -14 29 -25 37 -25 10 0 13 -27 13 -121 l0 -121 -31
-30 c-24 -25 -30 -37 -25 -59 3 -17 0 -32 -9 -39 -32 -26 -13 -65 34 -72 16
-2 27 -11 31 -28 3 -14 3 -151 -1 -305 -7 -313 -14 -1352 -10 -1602 l3 -162
-49 -4 -48 -3 48 -2 c57 -2 64 -22 7 -22 -22 0 -40 -4 -40 -10 0 -5 20 -10 44
-10 l43 0 7 -60 c9 -77 29 -70 24 9 l-3 56 250 7 c316 9 781 10 950 2 237 -10
524 -13 465 -4 -30 4 -102 9 -160 10 -80 1 -98 4 -75 11 17 5 174 9 350 10
369 2 595 14 608 32 7 9 10 9 14 0 2 -8 20 -12 41 -12 38 1 107 16 85 18 -7 0
-13 6 -13 11 0 6 22 10 48 10 26 0 53 5 60 12 9 9 16 8 30 -5 19 -18 57 -24
47 -8 -3 5 4 11 15 13 41 6 18 23 -28 21 -41 -3 -44 -1 -24 9 12 6 22 14 22
18 0 11 -38 19 -42 10 -3 -9 -155 14 -166 24 -3 3 37 6 89 6 107 0 150 14 77
25 -25 4 -53 6 -64 5 -10 -1 -26 -2 -34 -1 -13 1 -13 2 0 11 8 6 40 10 70 9
95 -1 107 0 90 11 -8 5 -62 10 -120 11 l-105 1 65 14 c36 7 85 14 110 14 25 1
54 5 65 10 17 6 15 8 -15 13 -84 14 -138 20 -182 21 -25 1 -49 4 -52 7 -3 3
-26 3 -51 -1 -25 -4 -47 -5 -50 -2 -2 3 34 46 82 96 77 82 92 105 149 225 35
73 64 140 64 147 0 8 4 22 10 32 19 35 63 202 100 377 21 99 44 203 51 230 16
62 16 354 0 440 -18 91 -41 221 -47 263 -9 62 -35 131 -75 202 -42 72 -48 90
-24 70 13 -11 14 -10 9 3 -3 8 -12 18 -19 21 -7 2 -33 33 -56 68 -23 35 -57
81 -76 102 -18 22 -33 46 -33 53 0 7 -4 13 -10 13 -5 0 -10 5 -10 10 0 6 6 10
14 10 8 0 27 15 43 34 15 18 47 46 71 61 29 19 42 35 42 50 0 12 7 28 15 35
26 21 17 41 -41 94 l-57 52 27 99 c15 55 32 108 37 117 5 10 9 29 9 43 0 28
15 26 63 -8 16 -10 30 -17 32 -15 3 2 -16 17 -40 33 -48 30 -49 32 -36 85 5
19 12 76 16 125 8 114 12 150 15 150 3 0 13 94 14 138 1 20 4 37 7 37 4 0 10
7 13 16 3 8 2 13 -2 10 -5 -3 -9 23 -10 57 -2 67 -29 206 -43 222 -16 16 -10
27 12 20 16 -5 20 -3 17 6 -3 8 -12 13 -21 13 -9 -1 -14 2 -11 7 3 5 0 18 -6
29 -13 25 -2 26 17 3 8 -10 6 -2 -4 17 -11 19 -27 58 -36 85 -31 94 -47 146
-47 157 0 7 -10 22 -22 35 -12 13 -17 23 -10 23 12 0 -41 82 -99 152 -23 26
-37 48 -31 48 10 0 169 -98 217 -134 46 -34 64 -41 30 -12 -29 25 -155 107
-245 159 -25 14 -67 48 -95 75 -62 60 -156 124 -243 165 -36 17 -61 32 -56 34
6 2 46 -13 88 -33 84 -39 119 -40 39 -1 -84 42 -202 79 -388 122 -60 14 -117
29 -125 32 -25 10 -30 11 -175 33 -38 6 -85 12 -103 14 -18 2 -35 6 -39 10 -3
3 -22 5 -42 5 l-36 -1 30 -7z m-470 -56 c415 -4 577 -12 586 -27 5 -7 17 -7
39 1 44 15 50 14 50 -5 0 -14 7 -15 39 -10 32 5 42 3 50 -11 6 -11 11 -13 11
-5 0 14 37 8 85 -15 16 -7 31 -10 33 -5 2 6 23 3 50 -5 26 -8 65 -19 86 -24
51 -13 197 -69 216 -84 8 -6 31 -19 52 -28 164 -75 376 -335 452 -553 39 -112
54 -184 39 -184 -6 0 -10 11 -10 25 0 14 -9 32 -19 40 -14 10 -15 14 -5 15 10
0 8 7 -8 24 -12 13 -21 27 -20 32 4 22 -2 34 -17 34 -14 0 -14 -3 -4 -15 7 -9
10 -18 7 -22 -4 -3 -2 -14 4 -24 5 -11 6 -19 2 -19 -5 0 -23 30 -40 68 -61
129 -96 182 -119 182 -8 0 -40 19 -73 43 -61 44 -96 65 -171 104 -25 13 -58
32 -75 42 -42 27 -176 83 -183 77 -3 -3 11 -13 31 -21 80 -33 263 -140 318
-187 34 -28 64 -46 71 -42 6 4 8 3 5 -3 -4 -6 0 -16 8 -23 13 -11 15 -10 10 6
-6 18 -6 18 7 0 7 -11 21 -27 30 -37 19 -20 41 -58 44 -76 1 -6 15 -31 32 -55
33 -49 83 -153 92 -193 1 -5 6 -19 12 -30 9 -20 9 -20 -6 -1 -9 11 -16 23 -16
28 0 25 -143 243 -194 297 -189 197 -492 363 -751 411 -92 17 -335 26 -490 19
-77 -4 -297 -8 -490 -10 -192 -1 -392 -5 -443 -8 -51 -3 -100 -4 -108 -1 -9 4
21 40 96 115 60 60 110 113 110 118 0 4 8 19 17 33 16 25 18 26 97 19 45 -3
252 -8 461 -10z m-745 -301 c19 -4 303 -7 630 -7 617 1 804 -7 930 -43 30 -8
79 -22 109 -31 86 -24 240 -90 306 -130 139 -84 281 -224 338 -333 21 -40 36
-74 34 -76 -2 -2 -30 39 -63 92 -61 100 -96 144 -113 144 -6 0 15 -33 45 -72
30 -40 76 -117 103 -170 27 -53 51 -94 54 -91 4 3 0 18 -8 34 -17 32 -19 53
-6 44 5 -3 17 -29 27 -58 9 -28 20 -56 24 -62 4 -5 13 -26 18 -45 6 -19 20
-60 31 -90 21 -59 35 -159 30 -215 -1 -11 2 -38 5 -60 8 -50 8 -338 0 -359 -8
-20 -44 -21 -70 -1 -19 14 -19 14 2 29 18 13 21 23 17 59 -4 32 0 53 16 82 12
22 21 50 21 62 0 48 -129 106 -190 85 -34 -12 -55 -8 -44 9 3 6 -8 15 -25 22
-17 6 -31 18 -31 25 0 10 -8 13 -25 9 -16 -3 -24 0 -22 7 2 6 13 12 25 14 28
4 28 10 -4 34 l-25 20 21 23 c13 14 19 29 15 36 -11 17 -13 79 -3 85 16 10 8
59 -12 72 -11 7 -17 18 -14 27 10 26 -5 62 -33 80 -29 20 -115 24 -136 7 -7
-5 -29 -15 -50 -22 -35 -11 -41 -10 -61 9 -28 26 -62 27 -78 1 -7 -11 -18 -20
-25 -20 -17 0 -16 10 4 32 9 10 11 18 5 18 -6 0 -14 -4 -17 -10 -3 -5 -11 -10
-17 -10 -6 0 -3 8 6 19 22 24 15 63 -21 109 -21 28 -28 48 -28 81 0 41 -3 46
-40 67 -51 30 -89 30 -109 2 -15 -21 -83 -57 -71 -38 11 17 -5 11 -42 -17
l-36 -28 -21 30 c-12 16 -33 40 -47 55 -14 14 -32 47 -39 75 -21 84 -64 104
-140 65 -22 -11 -55 -20 -75 -20 -30 0 -44 -9 -89 -54 -30 -30 -60 -70 -67
-90 -12 -34 -15 -35 -49 -30 -30 5 -42 1 -68 -21 -22 -18 -38 -24 -52 -20 -26
8 -90 -13 -90 -30 0 -7 -17 -26 -37 -43 -35 -27 -36 -32 -25 -56 6 -14 23 -31
37 -38 19 -9 24 -17 20 -36 -2 -14 -9 -28 -15 -32 -7 -4 -8 -18 -5 -33 5 -20
2 -28 -14 -37 -12 -6 -31 -8 -41 -5 -13 4 -20 2 -20 -8 0 -7 -11 -20 -25 -27
-14 -7 -25 -17 -25 -22 0 -14 22 -9 42 9 14 13 21 14 30 5 18 -18 38 -14 38 7
0 10 7 21 15 25 17 6 45 -19 45 -40 0 -19 14 -18 34 5 19 21 33 116 15 105 -6
-3 -18 -22 -25 -41 -12 -28 -18 -33 -29 -23 -17 14 -10 34 8 23 9 -5 9 -3 0 8
-14 18 -9 72 12 123 15 35 5 51 -13 20 -8 -15 -11 -15 -36 1 -14 10 -26 23
-26 31 0 17 39 44 64 44 16 0 17 3 8 12 -19 19 -14 27 24 34 22 4 40 2 47 -5
6 -6 22 -11 35 -11 19 0 22 3 13 13 -16 20 28 41 69 32 36 -8 44 0 85 83 21
40 32 52 50 52 14 0 25 7 28 19 2 11 17 21 36 25 17 3 44 9 61 12 16 3 35 12
41 20 15 19 48 18 71 -3 22 -20 23 -33 2 -33 -12 0 -10 -7 10 -31 14 -17 26
-41 26 -53 0 -14 9 -27 25 -34 13 -6 31 -25 40 -42 8 -16 19 -30 23 -30 25 0
120 35 137 50 11 10 39 24 62 30 37 12 44 11 72 -9 37 -26 38 -35 10 -55 -22
-15 -22 -15 20 -62 22 -26 41 -52 41 -58 0 -7 -16 -27 -35 -46 -19 -19 -35
-38 -35 -44 0 -5 11 1 25 14 14 13 27 21 30 18 10 -10 -7 -37 -26 -43 -10 -4
-19 -11 -19 -16 0 -12 14 -11 27 2 14 14 53 2 53 -17 0 -15 16 -19 24 -6 3 5
33 7 67 6 46 -2 72 2 100 16 44 23 131 26 169 7 25 -13 29 -30 15 -73 -5 -16
-2 -23 14 -27 31 -8 28 -45 -5 -53 l-25 -7 25 -26 c33 -34 32 -41 -1 -72 -16
-14 -33 -34 -39 -44 -6 -11 -20 -25 -31 -30 -11 -6 -35 -24 -54 -42 -19 -17
-47 -43 -63 -57 -16 -14 -27 -29 -24 -32 3 -3 17 6 31 20 15 14 32 26 39 26 7
0 1 -10 -14 -21 -16 -11 -28 -25 -28 -31 0 -6 6 -6 15 2 8 6 18 9 24 6 5 -3
11 1 15 9 3 8 16 15 28 15 21 -1 20 -3 -12 -29 -19 -16 -32 -33 -28 -36 10
-10 78 34 78 50 0 16 68 71 77 62 3 -4 0 -13 -7 -22 -11 -13 -10 -14 4 -9 11
4 16 1 16 -11 0 -12 5 -15 18 -10 9 4 26 10 37 12 16 5 18 3 8 -8 -25 -26 -13
-31 65 -24 66 5 83 3 119 -14 44 -22 64 -46 56 -68 -3 -7 -13 -13 -23 -13 -10
0 -21 -4 -24 -9 -4 -5 4 -7 16 -3 22 5 22 4 6 -14 -10 -11 -15 -29 -12 -39 5
-22 -30 -65 -80 -100 -80 -55 -95 -64 -101 -56 -3 5 4 13 16 16 12 4 17 10 11
14 -14 8 15 43 63 75 28 19 33 26 18 26 -10 0 -42 -25 -70 -55 -29 -30 -56
-55 -61 -55 -4 0 -19 11 -32 25 -13 14 -28 25 -34 25 -5 0 5 -15 23 -32 19
-18 41 -43 49 -56 13 -21 16 -21 32 -7 9 8 22 15 29 15 6 0 22 9 34 21 32 30
55 41 62 29 3 -5 -6 -21 -21 -35 -15 -14 -23 -25 -19 -25 5 0 16 7 25 15 13
12 23 13 41 6 13 -5 36 -12 52 -15 17 -4 27 -13 27 -24 0 -26 -27 -121 -38
-135 -5 -7 -10 -24 -10 -39 1 -40 -76 -186 -125 -239 -23 -26 -48 -59 -55 -73
-6 -14 -18 -26 -26 -26 -9 0 -20 -9 -26 -20 -6 -11 -16 -20 -23 -20 -7 0 -35
-20 -62 -44 -28 -24 -74 -55 -102 -70 -29 -14 -53 -32 -53 -38 0 -6 -7 -20
-17 -30 -9 -10 -11 -18 -6 -18 6 0 13 7 17 15 5 14 66 22 66 9 0 -4 -12 -17
-27 -30 -16 -13 -24 -24 -19 -24 6 0 19 9 31 20 21 19 23 20 56 3 80 -39 228
-174 292 -266 18 -25 47 -66 64 -91 64 -87 144 -305 178 -484 18 -91 17 -82 7
-82 -5 0 -14 26 -21 58 -25 119 -32 147 -43 157 -7 7 -8 3 -3 -14 4 -12 11
-46 15 -75 5 -28 16 -82 25 -121 30 -132 34 -160 34 -261 1 -86 -6 -150 -33
-299 -7 -37 -38 -160 -47 -182 -5 -13 -15 -23 -24 -23 -13 0 -13 -3 -3 -20 9
-14 10 -23 3 -28 -5 -4 -30 -47 -55 -95 -48 -97 -181 -266 -233 -297 -18 -11
-42 -20 -54 -20 -12 0 -25 -4 -28 -10 -3 -5 3 -10 14 -10 19 0 20 -2 9 -20
-15 -24 -39 -35 -31 -14 3 7 0 14 -6 14 -7 0 -14 -6 -17 -14 -3 -8 -11 -13
-19 -10 -7 3 -15 -2 -18 -10 -9 -23 -88 -59 -217 -99 -308 -97 -556 -116
-1230 -94 -140 5 -308 10 -372 12 -71 3 -118 0 -118 -5 0 -6 32 -10 72 -10
123 0 70 -7 -106 -14 l-169 -7 7 308 c6 272 7 768 2 998 -1 44 1 94 5 110 6
27 7 25 8 -15 1 -25 3 -79 5 -120 2 -41 4 -105 5 -142 0 -38 5 -68 11 -68 6 0
7 58 4 153 -7 171 -20 343 -23 282 -1 -25 -4 -35 -9 -27 -10 16 -3 72 9 72 5
0 9 5 9 11 0 5 -4 7 -10 4 -5 -3 -10 3 -10 14 0 12 5 21 10 21 7 0 7 6 2 18
-5 9 -10 115 -11 235 l-3 217 51 0 c28 0 60 5 71 12 10 7 23 8 27 4 4 -5 3
-11 -3 -13 -22 -7 -49 -31 -43 -37 3 -4 18 3 33 15 18 14 31 18 37 12 7 -7 2
-13 -15 -17 -40 -10 -32 -29 8 -22 33 6 33 6 30 -30 -3 -42 -8 -49 -30 -40
-11 4 -14 13 -11 27 4 15 2 19 -10 15 -8 -3 -17 -6 -19 -6 -2 0 -4 -13 -4 -29
0 -21 10 -37 36 -58 32 -26 35 -32 24 -49 -11 -17 -9 -24 16 -52 27 -28 32
-30 67 -22 21 4 44 13 52 20 8 6 18 9 23 6 5 -3 39 10 76 29 l66 35 38 -25
c37 -24 40 -25 74 -11 19 8 40 22 47 30 12 14 15 13 31 -7 20 -25 18 -35 -14
-47 -19 -7 -20 -9 -3 -15 12 -5 29 0 48 14 19 14 37 20 49 16 14 -4 27 2 44
19 13 14 27 26 32 26 16 1 74 59 77 77 1 10 7 18 12 18 6 0 8 -4 5 -10 -8 -18
-15 -704 -10 -960 l5 -250 33 -3 c17 -2 32 -6 32 -10 0 -4 -24 -39 -53 -77
-55 -71 -161 -164 -174 -151 -4 4 -2 10 5 15 7 4 27 32 45 62 18 30 41 66 51
82 34 51 9 27 -50 -48 l-58 -74 -12 27 c-7 15 -19 36 -28 47 -16 19 -16 19 -9
-10 3 -16 14 -48 24 -70 17 -37 17 -41 1 -58 -20 -22 -74 -51 -117 -62 -16 -4
-25 -9 -18 -12 17 -6 110 23 141 45 15 11 48 28 73 39 26 12 73 49 113 89 78
80 140 196 151 284 3 30 10 69 15 85 18 62 25 178 24 420 0 235 -2 258 -28
373 -45 201 -82 259 -210 334 -80 47 -136 89 -136 102 0 5 -14 22 -32 38 -17
15 -29 28 -27 28 3 0 59 -30 125 -66 77 -43 139 -86 177 -122 39 -39 57 -51
57 -39 0 9 -4 17 -9 17 -5 0 -15 15 -22 34 -7 19 -22 39 -34 44 -15 7 -22 19
-22 41 0 17 4 31 9 31 4 0 8 9 8 20 0 53 44 -11 54 -78 7 -47 51 -142 65 -142
11 0 -3 63 -29 132 -10 28 -22 71 -26 95 -10 69 -49 153 -100 216 -25 32 -44
60 -41 63 7 7 104 -103 139 -158 16 -27 34 -48 39 -48 13 0 12 4 -16 62 -25
51 -26 78 -5 78 5 0 10 -7 10 -15 0 -8 4 -15 9 -15 6 0 13 -21 16 -47 4 -27
13 -58 21 -70 12 -19 24 -59 40 -132 3 -14 8 -29 11 -35 3 -6 0 -5 -8 2 -35
32 -38 6 -4 -47 13 -22 27 -51 31 -65 3 -14 10 -26 15 -26 4 0 16 -16 25 -35
9 -20 22 -34 28 -32 12 4 9 49 -4 57 -4 3 -12 15 -19 27 -10 19 -9 22 4 17 8
-4 15 -12 15 -20 0 -18 8 -18 26 0 7 8 19 16 26 19 9 3 7 11 -7 28 -37 43 -51
63 -37 55 7 -4 12 -2 12 4 0 6 13 28 29 48 41 52 107 186 127 260 11 40 22 62
32 62 12 0 14 -12 9 -67 l-5 -68 19 24 c11 13 23 30 27 38 9 15 52 27 52 14 0
-4 -9 -16 -20 -26 -11 -10 -20 -26 -20 -35 0 -10 -7 -23 -16 -31 -23 -19 -83
-142 -115 -234 -15 -44 -33 -79 -39 -77 -6 1 -11 -6 -10 -15 1 -10 1 -31 0
-48 -1 -26 -3 -27 -10 -10 -6 16 -9 17 -13 5 -12 -35 -15 -60 -6 -66 5 -3 9 4
9 15 0 12 5 21 11 21 6 0 8 -8 5 -17 -3 -10 -8 -31 -12 -46 -6 -25 -8 -26 -19
-11 -11 16 -12 15 -17 -4 -3 -12 -1 -23 4 -24 7 -3 7 -12 -2 -27 -7 -15 -8
-21 -1 -17 6 4 11 0 11 -9 0 -9 -4 -13 -10 -10 -12 8 -12 15 -17 -180 -12
-381 -1 -623 27 -617 11 3 11 0 0 -13 -16 -20 -2 -93 50 -255 45 -141 53 -157
98 -195 30 -25 44 -29 96 -30 46 0 76 -8 118 -29 48 -23 62 -26 85 -18 25 9
26 10 5 11 -21 1 -90 40 -119 68 -20 18 -15 28 5 10 9 -8 29 -19 45 -22 15 -4
31 -14 36 -22 4 -8 11 -14 14 -14 17 2 68 -13 73 -20 7 -13 96 -11 114 2 11 8
6 9 -22 4 -44 -7 -88 3 -88 20 0 6 -16 20 -35 31 -45 24 -44 34 3 34 27 0 33
-3 22 -10 -20 -13 -5 -24 16 -12 10 6 27 7 38 2 12 -4 51 -11 88 -14 37 -4 82
-11 100 -17 18 -5 37 -9 43 -9 17 0 -31 29 -60 36 -49 12 0 23 76 17 83 -7
102 12 21 20 -32 4 -88 4 -125 0 -71 -6 -86 1 -37 18 17 6 30 15 30 20 0 5
-17 2 -37 -7 -21 -9 -49 -19 -63 -22 -25 -5 -25 -5 -6 17 27 30 13 37 -27 12
-19 -11 -37 -21 -41 -21 -12 0 -6 22 14 47 28 36 16 42 -18 10 -29 -27 -65
-39 -44 -14 15 18 -10 51 -26 35 -7 -7 -12 -17 -12 -24 0 -16 -53 -27 -94 -20
-32 6 -87 57 -115 106 -28 50 -71 165 -67 177 3 7 12 13 19 13 17 0 94 80 130
136 38 57 65 149 78 261 14 116 14 102 0 233 -13 120 -43 226 -79 278 -18 27
-22 40 -14 52 12 18 53 15 65 -5 4 -8 16 -15 25 -15 10 0 27 -7 39 -15 17 -12
37 -14 93 -9 82 8 107 30 96 84 -5 29 -4 30 22 24 15 -3 37 -11 50 -17 18 -8
28 -8 43 1 16 10 24 9 48 -9 44 -32 94 -19 146 36 22 23 50 46 63 50 30 9 52
45 55 91 3 38 8 43 65 64 30 12 40 28 25 43 -3 4 -12 2 -18 -3 -8 -7 -28 -5
-61 5 -68 21 -88 19 -136 -11 -31 -20 -39 -22 -35 -9 10 26 -33 -9 -143 -114
-52 -50 -101 -89 -107 -86 -7 3 -19 8 -27 11 -8 3 -30 -8 -49 -25 -36 -33 -58
-42 -37 -16 7 9 9 19 5 23 -4 4 -10 1 -13 -7 -3 -8 -16 -25 -30 -38 -19 -17
-21 -23 -9 -23 9 0 19 4 22 10 3 6 17 10 30 10 13 0 25 6 28 13 5 14 36 -20
37 -41 0 -30 -92 -43 -148 -20 -15 6 -38 12 -52 13 -14 1 -33 3 -42 4 -10 0
-18 7 -18 15 0 21 111 126 133 126 16 0 17 -3 7 -15 -7 -8 -19 -15 -27 -15 -8
0 -13 -8 -11 -17 2 -10 -7 -22 -22 -30 -14 -7 -21 -13 -16 -13 5 0 1 -9 -9
-20 -21 -24 -14 -25 24 -5 16 8 31 11 35 8 4 -4 30 15 58 43 29 27 46 41 39
31 -20 -26 -4 -34 22 -10 12 11 37 28 55 37 18 10 36 24 39 32 3 7 13 14 22
14 11 -1 3 -12 -23 -34 -24 -21 -36 -38 -31 -45 5 -8 38 19 99 81 50 51 122
120 159 154 37 33 67 66 67 73 0 7 -31 -14 -69 -48 -66 -58 -91 -73 -91 -51 0
11 13 24 85 89 31 27 45 46 37 49 -10 3 -10 7 -1 18 10 12 9 13 -5 8 -9 -3
-15 -12 -14 -18 4 -19 -133 -151 -141 -137 -5 7 -16 9 -27 5 -18 -7 -18 -7 -1
13 27 31 39 83 22 90 -14 5 -3 29 32 73 2 2 8 -2 13 -9 6 -11 15 -8 40 18 18
17 30 35 26 38 -3 4 -11 2 -17 -4 -6 -6 -17 -9 -23 -7 -6 2 -27 -11 -46 -31
-37 -38 -50 -43 -50 -21 0 8 14 24 31 36 16 12 28 24 25 27 -2 3 -20 -6 -38
-20 -18 -13 -41 -27 -50 -30 -17 -6 -26 -28 -10 -26 24 4 34 -2 24 -14 -7 -8
-6 -17 3 -30 19 -27 -3 -88 -39 -105 -14 -7 -36 -26 -47 -41 -14 -19 -27 -27
-40 -24 -17 5 -16 10 17 54 20 27 31 49 26 49 -11 0 -87 -55 -97 -69 -3 -6
-10 -11 -16 -11 -14 0 -11 34 6 56 20 26 19 34 -4 34 -11 0 -36 -20 -57 -45
-20 -25 -41 -45 -46 -45 -13 0 0 39 23 72 17 25 18 28 2 36 -15 9 -14 13 8 43
13 19 32 40 42 48 14 10 16 15 6 21 -8 5 -4 8 12 9 78 3 132 12 154 27 26 17
33 34 15 34 -6 0 -14 10 -19 22 -8 21 -14 23 -101 33 -19 2 -37 4 -40 4 -3 1
6 10 20 21 14 11 20 20 15 20 -6 0 -16 -5 -23 -12 -9 -9 -15 -9 -24 0 -10 10
-8 14 10 18 12 4 19 10 16 15 -3 5 2 9 10 9 8 0 17 4 20 9 9 14 -32 1 -45 -15
-16 -19 -43 -18 -35 2 4 12 1 14 -14 9 -22 -7 -29 19 -7 29 6 3 2 3 -11 0 -21
-5 -22 -4 -10 15 7 12 16 21 19 21 4 0 9 6 12 14 4 9 -8 6 -35 -9 l-42 -24
-38 20 c-21 11 -38 23 -38 27 0 5 11 23 25 42 28 39 33 56 7 24 -17 -20 -95
-74 -107 -74 -3 0 -5 7 -5 15 0 8 4 15 9 15 10 0 29 19 120 125 33 38 58 71
56 74 -2 2 -17 -12 -32 -30 -49 -60 -144 -150 -156 -148 -30 4 -38 -2 -32 -21
7 -21 -1 -25 -23 -12 -10 7 -10 15 -1 38 13 36 21 74 14 74 -2 0 -14 -18 -25
-40 -24 -48 -34 -51 -25 -10 8 38 -2 39 -17 3 -11 -26 -12 -27 -15 -6 -3 12 0
39 6 59 6 21 9 40 6 42 -9 9 -31 -65 -29 -98 2 -24 0 -30 -7 -20 -5 8 -9 24
-9 35 0 15 -2 17 -9 6 -5 -7 -6 -22 -3 -34 4 -14 2 -18 -8 -12 -7 4 -16 2 -20
-5 -4 -7 -15 -10 -24 -7 -17 7 -14 41 11 112 42 114 32 127 -12 18 -36 -90
-48 -105 -56 -67 -3 16 -2 40 3 54 8 24 7 24 -7 6 -8 -11 -15 -29 -15 -41 0
-36 -10 -36 -66 0 -54 34 -84 44 -84 26 0 -5 20 -21 44 -35 50 -29 61 -48 45
-79 -17 -34 -71 -77 -96 -77 -25 0 -46 30 -37 53 3 8 1 18 -4 21 -6 3 -15 -6
-20 -22 -13 -33 -49 -79 -56 -71 -3 3 1 18 9 33 37 72 -5 75 -50 4 -33 -52
-50 -59 -58 -26 -4 15 1 30 15 45 12 13 19 23 15 23 -3 0 -16 -10 -27 -22 -21
-22 -22 -23 -35 -4 -13 17 -15 18 -21 2 -3 -9 -1 -23 6 -31 22 -27 1 -34 -42
-15 -52 23 -60 18 -25 -14 31 -29 33 -43 13 -91 -15 -36 -57 -67 -64 -46 -2 7
-12 4 -29 -9 -19 -15 -30 -17 -44 -9 -10 5 -19 14 -19 19 0 6 -5 10 -11 10 -5
0 -8 -4 -5 -9 3 -5 -3 -20 -15 -35 -15 -19 -18 -30 -10 -43 6 -10 11 -12 11
-5 0 13 30 17 30 3 0 -5 -16 -23 -37 -40 -20 -17 -33 -34 -30 -37 3 -4 23 11
44 32 26 26 59 46 103 61 66 23 81 23 62 1 -6 -7 -11 -17 -11 -23 -3 -26 -14
-44 -30 -50 -10 -3 -24 -17 -32 -31 -38 -71 -110 -94 -155 -49 -13 13 -30 22
-38 19 -18 -7 -61 -66 -58 -80 1 -7 -6 -14 -16 -16 -19 -5 -129 -148 -113
-148 5 0 21 17 37 37 15 20 46 56 69 78 22 23 48 53 58 68 15 23 20 25 44 16
48 -18 55 -28 35 -55 -9 -13 -22 -24 -28 -24 -18 0 -213 -226 -227 -262 -13
-35 9 -16 78 68 82 99 122 140 131 131 3 -3 -23 -39 -59 -80 -36 -41 -70 -84
-76 -95 -16 -30 -67 -63 -85 -56 -21 8 -20 33 1 56 15 17 15 20 3 28 -13 8
-13 10 1 10 9 0 35 24 57 53 23 29 62 71 87 94 26 23 44 46 41 52 -4 5 -52
-37 -108 -95 -101 -104 -143 -135 -92 -69 28 37 24 47 -8 18 -10 -9 -18 -11
-18 -6 0 6 7 16 15 23 9 7 26 27 38 44 16 23 17 27 4 17 -14 -11 -21 -11 -29
-3 -8 8 -8 12 -1 12 13 0 114 102 107 109 -2 3 -25 -18 -50 -47 -43 -49 -83
-70 -70 -37 3 9 0 15 -9 15 -21 0 -18 18 5 32 11 7 20 17 20 22 0 12 -89 -1
-107 -16 -11 -9 -17 -9 -24 3 -8 12 -11 11 -23 -3 -17 -23 -63 -23 -70 0 -9
30 -4 147 8 161 6 7 28 25 49 38 21 13 48 40 59 59 24 41 33 39 18 -2 l-10
-29 20 25 c11 14 22 33 26 43 8 26 18 21 37 -23 14 -32 22 -40 44 -40 l27 0
-21 20 c-12 10 -26 42 -32 70 -12 54 -4 81 36 125 44 50 57 68 47 64 -7 -2
-33 -30 -59 -62 -33 -41 -51 -55 -58 -48 -17 17 27 92 112 190 12 13 21 29 21
35 -1 22 -150 -161 -150 -185 0 -6 -6 -9 -14 -6 -18 7 -48 -36 -40 -57 3 -9 1
-16 -6 -16 -6 0 -8 5 -4 12 4 7 3 8 -5 4 -6 -4 -9 -11 -6 -15 6 -11 -33 -46
-42 -38 -3 4 -1 7 5 7 7 0 12 8 12 19 0 30 72 134 82 119 6 -10 8 -10 8 1 0 8
17 35 38 60 49 59 77 101 66 101 -5 0 -27 -22 -49 -50 -22 -27 -44 -48 -50
-46 -5 2 -21 -13 -33 -31 -13 -19 -26 -33 -28 -30 -6 6 46 100 70 128 10 12
15 24 11 27 -4 4 -11 -1 -16 -10 -5 -9 -25 -37 -43 -62 -19 -24 -32 -47 -29
-50 3 -3 0 -12 -7 -21 -9 -11 -10 -15 0 -15 6 0 10 -5 8 -11 -2 -6 -8 -10 -13
-10 -6 0 -20 -10 -32 -21 -25 -24 -32 -9 -8 16 20 19 19 32 0 16 -35 -29 -24
3 18 57 64 80 117 152 117 158 0 20 -29 -10 -96 -100 -44 -58 -82 -105 -86
-105 -33 0 76 188 114 198 23 6 23 22 1 22 -21 0 -75 -62 -99 -114 -17 -35
-44 -53 -28 -18 4 9 8 40 8 69 1 28 4 55 8 58 4 4 2 13 -5 20 -9 8 -13 64 -15
182 l-3 170 37 18 c28 13 42 15 60 6 20 -9 24 -8 24 7 0 9 -15 24 -33 32 -42
20 -45 48 -10 98 34 50 52 55 98 31 42 -23 71 -24 92 -4 8 9 17 14 20 12 2 -3
-7 -16 -21 -30 -14 -15 -26 -32 -26 -40 0 -7 -18 -37 -39 -66 -38 -50 -60
-106 -47 -118 3 -3 13 11 22 33 19 48 80 140 98 151 18 11 48 71 41 82 -10 17
24 78 64 114 41 37 48 47 33 47 -14 0 -102 -91 -102 -104 0 -22 -33 -44 -75
-51 l-40 -6 35 30 c19 17 39 31 45 31 10 0 66 64 65 75 0 3 9 27 19 55 19 49
15 64 -9 35 -6 -8 -9 -18 -6 -23 8 -13 -47 -95 -77 -115 -15 -10 -27 -14 -27
-9 0 5 10 14 23 20 21 11 20 11 -5 6 -32 -7 -34 -2 -12 30 19 29 6 39 -27 22
-14 -7 -44 -16 -68 -20 l-43 -7 22 38 22 38 -29 -32 c-16 -18 -33 -33 -36 -33
-15 0 -6 22 18 45 l24 25 -24 0 c-25 0 -65 -42 -65 -69 0 -29 51 -48 113 -43
l57 4 0 -28 c-1 -28 -20 -64 -34 -64 -4 0 -2 9 4 20 15 29 0 25 -72 -16 -80
-47 -98 -62 -91 -80 3 -8 0 -14 -6 -14 -8 0 -11 161 -12 573 -1 314 -2 588 -4
607 -21 256 -16 307 24 296 9 -2 32 -8 51 -12z m-108 -1739 c9 -12 8 -287 -1
-330 -5 -23 -12 -31 -34 -33 -30 -4 -37 17 -13 37 18 15 38 71 26 71 -5 0 -14
-15 -21 -34 -17 -48 -42 -60 -82 -41 -18 8 -38 24 -45 35 -11 19 -7 26 38 74
54 57 68 103 29 91 -19 -6 -21 -4 -16 14 4 18 2 21 -14 16 -20 -7 -49 9 -49
26 0 12 41 28 87 33 34 5 83 36 55 36 -7 0 -12 4 -12 9 0 13 43 10 52 -4z
m2585 -166 c-23 -21 -37 -38 -31 -39 5 0 23 14 39 30 28 30 55 39 55 20 0 -5
6 -10 14 -10 25 0 30 -22 9 -39 -11 -9 -18 -22 -15 -29 2 -6 -1 -12 -7 -12 -6
0 -11 -6 -11 -13 0 -8 -27 -21 -65 -32 -36 -11 -65 -22 -65 -27 0 -4 7 -5 15
-2 9 4 15 0 15 -10 0 -9 -4 -16 -10 -16 -5 0 -10 -5 -10 -11 0 -5 5 -7 10 -4
6 3 10 2 10 -3 0 -12 -40 -23 -52 -16 -5 4 -7 12 -4 20 3 8 0 11 -8 8 -24 -9
-27 15 -4 27 13 7 26 17 30 24 4 7 28 19 53 26 28 8 40 16 32 21 -9 5 -7 11 8
22 52 37 59 45 53 51 -4 4 -26 -6 -50 -23 -41 -29 -88 -49 -88 -38 0 3 14 28
30 56 17 28 28 56 24 61 -3 5 0 17 7 25 10 13 15 12 35 -7 l23 -22 -42 -38z
m-962 -689 c-23 -24 -27 -33 -16 -39 9 -6 10 -11 2 -15 -6 -4 -16 -4 -23 0 -7
4 -8 3 -4 -5 4 -6 0 -23 -9 -37 -16 -25 -16 -25 4 -15 11 6 23 16 26 21 9 15
23 12 34 -8 12 -22 -11 -77 -60 -144 -35 -48 -56 -59 -65 -33 -3 8 -15 17 -25
20 -15 5 -19 14 -16 41 2 19 7 37 10 41 4 3 7 14 7 24 0 20 136 179 153 179 6
0 -2 -14 -18 -30z m699 -67 c4 -5 12 -9 17 -9 5 -1 12 -2 16 -3 10 -2 -49 -61
-61 -61 -6 0 -37 -21 -69 -46 -52 -42 -57 -48 -43 -62 12 -13 18 -13 30 -2 19
15 20 7 5 -21 -13 -25 -58 -44 -72 -30 -5 5 -16 7 -23 4 -35 -13 1 33 96 123
30 29 51 56 47 60 -4 4 -36 -22 -72 -58 -35 -36 -66 -61 -68 -54 -3 8 -9 7
-21 -3 -9 -8 -19 -12 -22 -9 -6 6 126 135 164 160 28 19 63 23 76 11z m-574
-63 c0 -5 -21 -33 -48 -62 -26 -29 -61 -71 -77 -93 -17 -22 -51 -62 -77 -90
-50 -54 -98 -120 -98 -135 0 -14 -17 -12 -24 3 -3 6 -3 0 1 -16 4 -22 2 -26
-10 -21 -12 4 -23 -8 -41 -45 -15 -28 -26 -54 -25 -58 4 -22 -2 -43 -12 -43
-7 0 -9 10 -5 26 4 15 9 40 12 58 5 30 5 30 -11 11 -16 -19 -16 -19 -10 10 4
17 8 35 10 41 2 6 -1 17 -5 24 -5 9 -2 23 10 39 10 15 20 33 23 41 2 8 3 3 1
-12 -4 -33 11 -37 28 -7 7 11 28 27 46 36 47 22 133 111 198 204 50 70 77 96
107 98 4 1 7 -3 7 -9z m-145 -341 c36 -71 63 -182 71 -293 8 -123 -7 -186 -55
-229 -36 -31 -179 -102 -188 -93 -3 2 -7 65 -9 139 -5 145 5 211 51 352 25 78
79 175 96 175 5 0 20 -23 34 -51z"/>
<path d="M8968 6813 c-24 -24 -30 -25 -53 -15 -43 20 -69 14 -101 -20 -58 -64
-79 -77 -99 -62 -26 20 -47 17 -107 -10 -29 -14 -61 -27 -70 -30 -15 -5 -17
-14 -12 -65 5 -47 4 -59 -7 -58 -28 1 -79 -16 -79 -27 0 -6 4 -18 10 -26 5 -9
5 -19 -2 -27 -13 -16 -10 -20 17 -25 20 -3 22 3 9 35 -6 15 -3 17 20 11 16 -4
26 -2 26 5 0 6 -7 11 -15 11 -8 0 -15 4 -15 9 0 12 40 24 74 22 l29 -3 -22 30
c-11 17 -21 42 -21 56 0 22 8 30 47 47 61 26 116 28 141 6 17 -16 21 -16 32
-2 7 8 26 15 43 15 24 0 28 3 19 12 -47 47 38 103 95 63 21 -15 23 -14 38 15
11 21 23 30 41 30 16 0 24 5 22 13 -8 22 -32 18 -60 -10z"/>
<path d="M9263 6595 c2 -135 1 -264 -4 -288 -4 -24 -4 -43 2 -45 10 -4 12
-114 3 -149 -7 -27 -29 -30 -43 -5 -8 15 -11 14 -21 -12 -6 -16 -8 -31 -6 -34
3 -3 8 3 12 12 8 22 25 21 17 -1 -6 -19 -42 -52 -55 -53 -5 0 -8 14 -8 31 0
17 -4 28 -10 24 -5 -3 -10 -14 -10 -24 0 -28 -26 -46 -45 -31 -10 9 -15 9 -15
1 0 -6 -7 -11 -15 -11 -13 0 -15 9 -11 41 4 35 3 39 -9 29 -8 -7 -15 -19 -15
-26 0 -17 -12 -18 -28 -2 -10 10 -16 7 -28 -10 -11 -16 -22 -21 -35 -17 -11 4
-19 2 -19 -4 0 -6 -4 -11 -10 -11 -5 0 -10 7 -10 15 0 8 4 15 8 15 8 0 35 111
28 117 -2 2 -13 -23 -26 -57 -12 -33 -26 -60 -30 -60 -4 0 -10 -9 -13 -20 -5
-21 -41 -28 -52 -10 -4 6 -1 26 5 46 15 45 6 55 -14 15 -23 -44 -20 -67 14
-91 39 -28 38 -41 -6 -89 -34 -38 -46 -42 -86 -26 -10 4 -18 3 -18 -2 0 -15
35 -43 53 -43 21 0 22 -14 1 -31 -13 -11 -23 -9 -62 11 -60 31 -112 79 -112
104 0 10 10 35 22 55 20 34 21 35 2 18 -12 -9 -26 -34 -32 -54 -10 -31 -9 -41
8 -68 19 -30 56 -62 118 -100 l33 -21 -31 -34 c-16 -18 -30 -38 -30 -42 0 -16
27 6 64 51 42 50 86 87 86 73 0 -6 -4 -12 -8 -14 -16 -6 -133 -170 -130 -180
2 -6 31 26 63 71 33 44 63 81 67 81 5 0 29 21 53 47 25 26 45 42 45 35 0 -6
-4 -13 -9 -16 -5 -3 -13 -19 -19 -34 -8 -23 -7 -29 4 -29 8 0 14 5 14 11 1 14
39 64 40 51 0 -5 8 -20 18 -32 l17 -23 49 39 c58 46 70 44 112 -24 16 -25 34
-45 41 -45 19 0 3 42 -33 87 -19 23 -34 46 -34 51 0 5 -9 17 -20 27 -11 10
-18 20 -16 23 7 6 116 -68 116 -79 0 -12 43 -7 52 6 13 18 8 26 -11 20 -26 -8
-69 29 -88 78 -10 25 -18 34 -23 26 -5 -6 -15 -9 -25 -6 -10 5 -14 3 -9 -4 4
-7 1 -10 -6 -7 -24 8 -23 28 2 28 13 0 33 3 46 6 18 5 23 2 28 -23 6 -30 43
-87 44 -66 0 7 -7 31 -17 54 -16 40 -15 42 2 55 25 18 39 18 31 -1 -4 -13 -2
-13 14 -5 26 14 30 4 31 -82 0 -40 1 -82 1 -93 1 -11 -1 -36 -5 -56 l-7 -36
42 -1 c82 -1 243 22 287 40 24 10 64 36 89 58 24 22 52 40 61 40 9 0 25 16 35
35 11 19 23 35 28 35 4 0 7 4 5 8 -4 14 37 82 50 82 22 0 14 -26 -17 -61 -39
-44 -46 -72 -26 -101 l16 -22 0 22 c0 12 -4 22 -10 22 -17 0 -11 27 7 34 10 4
14 4 11 0 -10 -9 15 -32 29 -27 15 6 12 -34 -6 -65 -7 -13 -10 -26 -7 -30 7
-7 30 22 50 63 19 38 46 62 121 109 33 20 70 44 83 52 30 22 28 9 -3 -20 -14
-13 -28 -33 -30 -45 -7 -36 -15 -42 -37 -27 -19 13 -24 12 -54 -11 -34 -25
-43 -43 -23 -43 5 0 7 5 3 12 -5 8 -2 9 9 5 10 -4 21 1 27 11 9 15 12 14 33
-10 26 -32 52 -35 86 -12 19 13 37 15 95 10 128 -12 135 -16 106 -56 -26 -36
-26 -36 11 -44 18 -3 51 -23 74 -44 24 -20 53 -44 65 -52 l21 -15 -31 -43
c-30 -41 -38 -70 -10 -37 15 19 30 19 30 2 0 -8 11 -24 25 -37 19 -18 22 -26
13 -37 -8 -11 -7 -12 5 -7 33 12 41 -8 12 -31 -20 -17 -25 -27 -18 -39 8 -14
15 -10 51 24 43 39 43 39 22 57 -27 24 -25 31 13 49 17 9 41 20 52 26 17 9 85
105 133 188 l14 25 -21 -25 c-11 -14 -33 -43 -48 -65 -24 -36 -73 -88 -116
-124 -13 -10 -15 -9 -10 9 3 11 14 25 24 31 16 8 59 77 59 94 0 3 -8 5 -17 3
-27 -4 -28 34 -2 84 l22 43 -55 -50 c-30 -27 -53 -53 -51 -57 2 -3 -17 -20
-41 -36 -38 -26 -47 -28 -56 -16 -10 11 -6 20 16 43 15 16 32 27 36 25 13 -8
40 17 34 32 -3 8 5 20 16 28 12 9 19 18 16 22 -4 3 -14 0 -24 -7 -36 -29 -91
-85 -100 -102 -8 -13 -16 -16 -33 -9 -22 8 -21 9 17 35 48 34 88 75 79 83 -3
3 -18 -3 -32 -14 -15 -12 -32 -19 -38 -17 -15 6 -64 -31 -54 -41 4 -4 15 0 25
9 10 10 23 17 28 17 5 0 -4 -11 -20 -25 -16 -14 -32 -22 -35 -17 -3 5 -17 12
-31 16 -14 3 -33 13 -44 21 -17 13 -17 15 -2 30 9 9 17 21 17 26 3 19 5 24 13
37 12 20 1 25 -24 12 -38 -20 -34 -2 9 45 64 70 51 80 -34 26 -77 -49 -107
-62 -134 -58 l-26 3 25 11 c22 10 152 102 187 132 7 6 16 11 21 11 4 0 23 16
42 35 19 19 30 35 26 35 -5 0 -19 -11 -32 -25 -13 -14 -28 -25 -34 -25 -5 0
-20 11 -32 25 -12 14 -26 25 -30 25 -5 0 -32 -22 -60 -50 -28 -27 -55 -50 -59
-50 -5 0 -24 -17 -43 -37 -19 -21 -37 -36 -40 -33 -7 7 122 141 157 165 27 17
27 18 8 32 -11 7 -18 20 -15 28 11 28 -5 15 -36 -30 -42 -61 -61 -70 -117 -55
-36 11 -45 18 -50 41 -3 16 -10 29 -15 29 -5 0 -6 -4 -3 -10 3 -6 -1 -7 -9 -4
-16 6 -13 45 4 69 4 6 10 18 13 28 12 32 -11 17 -44 -28 -23 -31 -35 -41 -40
-33 -5 7 -4 17 1 22 12 12 13 46 2 46 -5 0 -18 -18 -31 -40 -26 -46 -39 -49
-66 -17 -17 18 -20 37 -20 117 -1 96 -11 143 -47 213 -11 21 -18 41 -15 43 6
6 63 -111 74 -151 7 -28 8 -27 11 16 4 64 -48 165 -100 194 -20 12 -64 46 -97
76 -74 68 -140 90 -286 95 -55 2 -113 6 -128 9 l-28 5 4 -245z m283 160 c95
-25 190 -107 236 -204 35 -76 35 -143 -1 -191 -23 -32 -26 -40 -13 -40 5 0 17
18 27 41 17 37 20 39 27 19 7 -20 -1 -96 -17 -147 -5 -15 -3 -23 4 -23 20 0
12 -92 -12 -135 -25 -44 -31 -46 -196 -65 -61 -7 -90 -15 -106 -30 -29 -28
-45 -25 -45 8 0 15 -3 115 -6 222 -3 107 -7 269 -8 360 -1 91 -6 173 -10 183
-7 14 -3 17 27 17 20 0 62 -7 93 -15z"/>
<path d="M9550 3680 c0 -36 -10 -101 -21 -145 -12 -44 -23 -90 -26 -102 -3
-13 -9 -23 -13 -23 -4 0 -7 -8 -6 -17 0 -10 -5 -18 -11 -18 -15 0 -103 -83
-103 -96 0 -17 19 -9 55 22 58 52 41 8 -20 -50 -30 -29 -55 -54 -55 -57 0 -13
33 1 81 34 30 21 79 46 109 57 30 10 58 22 61 27 3 4 31 -7 63 -24 32 -18 77
-43 99 -55 41 -24 87 -30 87 -13 0 5 -17 14 -38 20 -22 5 -57 23 -79 39 -22
16 -49 32 -61 35 -12 4 -22 15 -22 24 -1 9 -7 28 -14 41 l-13 24 -7 -27 c-7
-29 -32 -31 -30 -2 2 14 -1 15 -13 4 -14 -11 -15 -7 -9 29 12 66 10 286 -2
313 -9 21 -11 16 -12 -40z"/>
<path d="M9423 3465 c-5 -8 -31 -38 -60 -67 -66 -68 -295 -189 -382 -201 -14
-2 -27 -10 -29 -17 -3 -9 1 -11 11 -7 9 3 35 11 59 17 24 7 59 20 78 30 80 41
178 72 215 68 37 -3 39 -1 45 28 4 17 26 58 48 91 23 32 42 62 42 66 0 13 -19
7 -27 -8z"/>
<path d="M15913 2948 c5 -13 1 -18 -13 -18 -11 0 -20 4 -20 9 0 14 -34 9 -49
-6 -9 -10 -5 -13 21 -14 18 -1 44 -3 58 -4 37 -4 239 -7 450 -6 180 0 232 8
112 16 -33 2 -77 8 -98 12 -46 11 -124 10 -141 0 -7 -5 -21 -3 -32 3 -30 16
-46 13 -31 -5 11 -13 8 -15 -14 -15 -27 0 -35 15 -13 23 6 3 -4 3 -23 0 -39
-5 -39 -5 -96 3 -25 4 -51 1 -65 -6 -19 -11 -25 -10 -37 6 -13 17 -14 17 -9 2z"/>
<path d="M15977 2892 c-74 -3 -84 -16 -31 -41 22 -11 88 -15 284 -18 140 -1
266 0 279 4 23 6 23 6 -5 18 -36 14 -168 19 -159 5 3 -5 -11 -2 -31 6 -29 12
-43 13 -61 5 -29 -13 -74 -14 -105 -2 -67 27 -71 28 -171 23z"/>
<path d="M12654 2875 c-6 -15 -34 -21 -34 -7 0 4 -9 8 -20 9 -11 1 -20 -3 -20
-9 0 -7 -6 -6 -15 2 -10 8 -27 10 -52 5 -21 -4 -56 -8 -79 -10 -23 -1 -46 -5
-52 -9 -6 -3 -13 -2 -16 2 -6 11 -56 3 -56 -8 0 -18 78 -24 285 -23 121 1 231
4 245 6 14 3 45 6 70 6 55 1 42 21 -16 23 -21 1 -42 6 -46 12 -6 8 -11 7 -17
-3 -11 -17 -96 -25 -120 -11 -14 8 -14 9 3 10 28 0 16 8 -22 15 -24 4 -34 1
-38 -10z"/>
</g>
</svg>
