<?xml version="1.0" standalone="no"?>
<!DOCTYPE svg PUBLIC "-//W3C//DTD SVG 20010904//EN"
 "http://www.w3.org/TR/2001/REC-SVG-20010904/DTD/svg10.dtd">
<svg version="1.0" xmlns="http://www.w3.org/2000/svg"
 width="1928.000000pt" height="1074.000000pt" viewBox="0 0 1928.000000 1074.000000"
 preserveAspectRatio="xMidYMid meet">
<metadata>
Created by potrace 1.16, written by Peter Selinger 2001-2019
</metadata>
<g transform="translate(0.000000,1074.000000) scale(0.100000,-0.100000)"
fill="#000000" stroke="none">
<path d="M14560 8016 c0 -5 10 -21 21 -38 26 -37 25 10 15 -688 -4 -316 -8
-1056 -8 -1645 0 -755 -3 -1074 -11 -1083 -7 -9 -7 -16 0 -20 16 -11 17 -270
1 -290 -7 -9 -8 -13 -2 -9 7 4 11 -99 12 -341 1 -191 3 -438 5 -550 1 -156 -1
-202 -10 -202 -20 0 -16 -9 18 -42 l31 -31 -22 -12 -22 -12 23 -7 c15 -5 19
-9 11 -13 -15 -6 3 -33 22 -33 21 0 99 -87 91 -101 -6 -9 -3 -11 8 -6 40 15
107 -111 107 -202 0 -34 4 -61 9 -61 6 0 10 17 9 38 0 20 5 55 11 77 l10 40
150 -3 c133 -3 149 -5 144 -19 -4 -10 -2 -14 4 -10 5 3 90 9 189 13 98 3 180
10 182 15 2 4 14 4 27 -1 16 -6 27 -6 31 1 4 7 39 10 88 9 167 -5 311 0 296
10 -8 5 -43 10 -77 10 -52 0 -64 3 -73 20 -13 24 -30 26 -30 5 0 -9 -9 -15
-22 -15 -17 0 -19 3 -10 12 7 7 12 42 12 85 l0 73 43 0 c23 0 71 -4 107 -9 36
-5 103 -12 150 -15 80 -4 82 -4 25 5 -33 5 -85 15 -115 21 -30 7 -90 11 -132
10 -77 -2 -78 -1 -78 24 0 23 3 24 33 19 17 -3 62 -7 98 -8 48 -1 65 -5 62
-14 -3 -7 -4 -13 -2 -13 2 -1 67 -3 144 -5 77 -3 188 -7 246 -10 88 -4 106 -3
106 9 0 9 -6 17 -14 20 -7 3 -13 1 -13 -5 0 -5 -9 -1 -21 10 -23 22 -89 33
-95 16 -3 -6 -19 -11 -37 -12 -18 -1 -23 1 -12 4 37 9 40 23 4 23 -90 0 -400
11 -445 16 l-52 5 -1 447 c0 246 -3 615 -6 820 -2 204 -3 372 0 372 2 0 15
-35 29 -77 14 -43 43 -121 66 -173 38 -87 56 -131 125 -315 12 -33 38 -103 58
-155 19 -52 45 -123 57 -158 11 -35 41 -116 67 -180 25 -64 47 -130 48 -147 0
-16 15 -59 32 -95 39 -83 106 -261 99 -267 -2 -3 -23 15 -46 39 -42 42 -47 35
-6 -10 17 -20 18 -24 6 -32 -14 -9 -6 -15 14 -11 19 4 66 -22 71 -40 3 -10 20
-30 38 -45 66 -55 174 -151 217 -194 l45 -45 -62 -3 c-59 -3 -80 -13 -49 -25
14 -6 104 1 116 8 11 7 28 -17 65 -92 18 -37 40 -77 49 -88 15 -18 15 -17 0
20 -9 22 -25 57 -35 77 -40 78 -6 80 52 3 23 -30 46 -55 51 -55 11 0 -23 50
-47 70 -34 28 -14 32 150 25 91 -4 204 -7 250 -7 l85 0 0 -59 c0 -33 4 -59 10
-59 6 0 10 27 10 60 l0 60 34 0 c18 0 47 7 62 15 17 9 56 15 92 15 l62 0 1
-62 c2 -81 5 -107 13 -115 3 -3 6 32 6 80 0 52 4 89 11 93 6 3 40 6 75 6 35 0
64 4 64 9 0 5 -9 10 -20 10 -11 1 -24 3 -30 4 -5 1 -28 3 -51 4 l-41 1 7 68
c7 78 13 742 7 821 -2 32 -7 49 -12 41 -14 -23 -22 171 -13 320 4 80 5 188 0
240 -4 52 -10 291 -12 530 -4 496 -13 717 -26 682 -6 -16 -15 -22 -30 -20 -21
3 -22 9 -22 88 l1 85 26 -2 c31 -2 36 23 6 32 -11 4 -18 10 -15 15 3 5 12 7
20 3 12 -4 15 4 16 33 0 22 3 57 7 79 5 26 9 -20 10 -125 1 -91 7 -201 13
-245 6 -44 9 -104 8 -135 -1 -30 -2 -252 -1 -493 2 -411 10 -526 26 -353 9
101 8 965 -1 979 -6 10 -16 671 -14 902 4 384 1 1219 -4 1236 -6 18 -4 21 13
17 11 -3 26 -2 33 3 11 7 10 9 -5 9 -10 0 -28 9 -40 20 -59 57 -229 203 -291
250 -38 29 -76 57 -82 63 -9 7 -13 5 -13 -7 0 -18 131 -156 149 -156 6 0 42
-30 80 -66 39 -36 75 -63 81 -59 6 4 17 1 25 -5 18 -15 20 -34 4 -24 -28 17
-413 24 -700 12 l-247 -10 -131 133 c-72 74 -131 134 -131 134 0 0 174 0 388
0 374 0 462 5 462 26 0 5 -17 9 -37 9 -21 -1 -105 2 -186 6 -88 4 -256 2 -410
-6 l-262 -13 -2 -101 c-2 -55 -8 -150 -14 -210 -8 -71 -9 -159 -4 -250 10
-183 12 -946 3 -946 -4 0 -5 7 -2 15 4 8 1 15 -6 15 -10 0 -11 -15 -7 -57 8
-73 -3 -57 -44 67 -18 52 -46 124 -64 160 -18 36 -56 135 -85 220 -29 85 -81
220 -115 300 -34 80 -68 163 -75 185 -7 22 -23 61 -36 87 -13 26 -24 52 -24
59 0 6 -16 42 -35 81 l-34 70 26 -7 c23 -5 25 -4 14 9 -8 9 -21 16 -31 16 -22
0 -143 157 -136 175 3 8 0 12 -7 10 -7 -2 -28 16 -47 41 -19 25 -50 62 -68 82
l-33 37 7 -30 c4 -16 23 -55 43 -86 46 -73 172 -219 189 -219 6 0 12 -3 12 -8
0 -4 -163 -6 -362 -4 -284 3 -369 7 -392 18 -25 12 -27 12 -16 -1 11 -13 4
-15 -48 -15 -76 0 -71 -4 -179 161 -13 19 -37 50 -54 67 -17 17 -28 35 -26 39
3 5 54 5 114 1 200 -13 722 -14 712 -2 -13 15 -145 23 -539 30 -179 3 -332 8
-340 10 -8 3 -27 21 -42 41 -16 20 -28 33 -28 29z m2051 -443 c1 -21 -2 -84
-6 -141 -4 -57 -7 -194 -8 -305 -2 -181 -4 -202 -19 -205 -15 -3 -17 7 -17 78
0 45 -2 85 -5 88 -7 6 -10 -61 -7 -139 2 -42 -1 -58 -12 -62 -11 -4 -14 -20
-12 -66 4 -74 12 -101 31 -101 11 0 14 19 14 91 0 68 3 90 13 86 9 -3 12 -51
12 -195 0 -167 -5 -217 -19 -201 -2 2 -7 44 -10 94 -8 109 -16 123 -16 28 0
-39 -3 -92 -7 -119 -6 -45 -5 -48 10 -35 9 7 23 11 31 8 12 -5 14 -22 9 -94
-3 -48 -10 -94 -16 -101 -8 -10 -7 -16 4 -23 9 -5 10 -9 2 -9 -21 0 -26 22
-26 99 l1 76 -9 -63 c-7 -47 -6 -78 6 -129 8 -36 13 -68 10 -71 -11 -11 -29
60 -41 168 -16 132 -41 223 -59 216 -8 -3 -11 2 -8 15 3 10 1 19 -3 19 -5 0
-10 33 -11 73 -1 41 -7 102 -13 137 -6 35 -8 66 -3 69 16 12 13 31 -6 31 -17
0 -19 -8 -17 -95 1 -62 -2 -91 -9 -84 -5 5 -10 33 -10 62 0 29 -3 57 -6 62 -4
6 -5 39 -3 75 2 36 4 70 5 75 1 17 -11 799 -13 815 -5 57 4 52 122 -67 111
-112 120 -124 121 -160z m-1751 24 c0 -14 -5 -17 -16 -13 -14 5 -15 4 -5 -8 9
-10 12 -101 11 -338 -1 -177 -3 -969 -5 -1758 -2 -789 -7 -1469 -11 -1510 -4
-41 -11 -78 -16 -81 -7 -4 -7 -13 0 -25 10 -21 10 -66 -2 -101 -5 -14 -3 -23
3 -23 15 0 14 -27 -1 -33 -8 -3 -13 4 -14 17 -5 94 -9 117 -18 125 -8 7 -11
-20 -12 -92 0 -56 -2 -124 -3 -152 -2 -27 -2 -123 0 -212 4 -167 -7 -190 -16
-35 -11 184 -17 267 -21 271 -2 2 1 10 8 18 8 10 8 17 0 25 -14 14 -16 32 -3
24 9 -6 7 29 -4 63 -4 14 -2 21 6 21 7 0 5 6 -6 13 -10 8 -16 18 -13 23 3 5 2
18 -3 29 -7 18 -8 18 -9 -5 -3 -41 -2 -78 5 -240 4 -85 5 -153 2 -150 -8 7
-15 89 -23 240 -3 74 -9 156 -13 181 -4 25 -6 73 -5 105 2 32 4 132 5 220 1
89 5 167 10 175 4 8 3 19 -3 26 -8 10 -6 13 5 13 12 0 14 6 8 28 -5 15 -12 26
-17 25 -5 -1 -9 25 -9 58 0 61 6 72 24 42 6 -10 11 -13 11 -6 0 6 -6 18 -14
26 -8 7 -13 28 -12 45 1 18 -2 32 -6 32 -4 0 -7 12 -7 28 3 55 -1 92 -11 92
-5 0 -7 -7 -4 -15 4 -8 1 -15 -5 -15 -6 0 -11 11 -11 25 0 22 3 24 25 15 16
-6 25 -6 25 0 0 6 -6 10 -12 11 -10 0 -10 2 0 6 15 6 16 35 0 51 -8 8 -8 12
-1 12 14 0 11 42 -5 48 -7 2 -11 -4 -10 -15 2 -10 -1 -20 -7 -23 -5 -3 -10 17
-12 45 -2 28 -5 55 -8 62 -2 7 0 15 5 18 9 6 15 -22 11 -52 -1 -7 3 -13 10
-13 14 0 2 71 -14 83 -9 6 -9 10 1 14 6 2 12 12 12 21 0 15 -2 15 -10 2 -8
-13 -10 -12 -11 5 -1 11 -3 30 -4 43 -1 12 2 22 6 22 5 0 9 -12 9 -27 0 -14 3
-23 7 -20 9 10 10 67 2 97 -7 23 -7 23 -8 -7 -1 -18 -4 -33 -8 -33 -11 0 -16
266 -17 965 -1 336 3 637 7 670 5 33 8 99 8 147 -1 50 4 90 10 93 7 5 6 12 -2
22 -10 12 -10 16 2 24 8 5 10 9 4 9 -6 0 -10 88 -10 242 0 134 -3 296 -7 361
-8 135 -2 144 49 69 18 -26 44 -60 58 -76 14 -17 29 -41 33 -55 4 -14 7 -113
7 -219 0 -123 4 -192 10 -192 7 0 11 76 12 211 l1 211 -85 106 -85 107 111
-110 c62 -62 111 -118 111 -128z m330 16 c23 -9 -64 -21 -157 -22 -48 -1 -85
-6 -89 -12 -7 -12 105 -9 336 11 194 16 458 26 479 18 11 -4 21 -21 25 -43 4
-20 10 -44 13 -52 11 -28 -16 -4 -43 39 -14 22 -28 37 -31 34 -3 -3 9 -29 27
-58 66 -106 97 -166 153 -303 32 -77 66 -158 76 -180 11 -22 22 -51 26 -65 4
-14 14 -34 21 -45 8 -11 14 -26 14 -33 0 -16 42 -126 75 -197 12 -27 26 -65
30 -82 3 -18 11 -33 16 -33 5 0 9 -6 9 -12 0 -7 13 -47 29 -88 16 -41 53 -147
81 -235 29 -88 67 -196 85 -240 30 -71 48 -124 86 -245 21 -69 84 -217 160
-376 27 -58 75 -121 84 -112 3 2 -7 39 -21 82 -23 71 -25 97 -29 284 -3 114
-5 209 -6 212 -1 3 -1 8 0 12 1 7 0 145 -2 208 0 19 3 116 7 215 4 99 9 431
11 737 1 306 6 562 10 568 3 5 10 8 15 5 14 -9 274 -8 461 0 l166 8 6 -34 c5
-39 12 -1459 11 -2314 -3 -1431 -3 -2029 0 -2034 2 -3 7 -102 10 -220 l7 -214
-38 6 c-21 4 -143 7 -271 8 -128 0 -241 3 -251 6 -23 6 -35 53 -15 53 21 0 17
9 -16 40 -16 15 -30 35 -30 44 0 19 5 20 32 5 11 -6 33 -12 49 -14 26 -4 27
-2 17 15 -7 10 -16 16 -21 13 -5 -3 -28 0 -52 7 -30 8 -45 19 -49 33 -6 24 9
38 33 30 12 -5 13 -3 5 6 -9 10 -17 10 -32 2 -14 -7 -23 -8 -27 -1 -3 5 0 10
7 10 9 0 9 3 2 8 -6 4 -26 50 -44 102 -43 126 -41 122 -87 220 -22 47 -57 137
-78 200 -20 63 -41 120 -45 125 -4 6 -10 24 -14 40 -8 33 -80 220 -96 247 -6
10 -10 25 -10 33 0 8 -4 15 -10 15 -5 0 -7 7 -4 15 4 8 -1 17 -10 21 -9 3 -16
14 -16 24 0 10 -6 21 -12 23 -10 4 -10 7 0 14 12 9 -9 74 -56 173 -9 19 -17
44 -18 55 -2 11 -17 51 -34 89 -17 39 -37 84 -45 100 -7 17 -30 76 -50 131
-20 55 -40 104 -45 110 -4 5 -11 25 -15 43 -4 18 -29 90 -56 160 -100 255
-118 308 -125 357 -4 28 -9 42 -11 33 -3 -10 -8 -18 -12 -18 -13 0 -31 24 -31
42 0 10 -7 18 -15 18 -8 0 -15 5 -15 10 0 6 -5 10 -11 10 -12 0 28 -70 51 -87
8 -6 12 -15 8 -19 -4 -4 -14 -1 -23 6 -22 19 -30 5 -11 -21 13 -20 15 -52 9
-241 -5 -174 -4 -218 7 -218 9 0 10 -3 1 -13 -7 -10 -11 -180 -10 -578 0 -310
-3 -728 -6 -929 -3 -201 -5 -372 -5 -380 0 -8 4 -46 9 -85 5 -38 8 -70 8 -70
-1 0 -196 1 -433 3 l-432 3 -6 47 c-5 36 -7 727 -5 1407 0 11 1 252 2 535 1
283 2 1012 3 1620 1 608 2 1119 3 1135 4 57 -1 56 148 49 76 -3 145 -8 153
-11z m2292 -1094 c-4 -26 -2 -31 11 -26 23 9 28 -16 21 -114 -5 -63 -3 -89 5
-89 10 0 18 150 12 213 -1 9 3 17 9 17 6 0 8 5 5 10 -3 6 -3 10 2 10 14 0 43
-113 43 -165 0 -44 -37 -190 -39 -157 -1 7 -7 20 -15 28 -8 7 -16 19 -18 26
-3 9 -11 8 -31 -5 -15 -10 -27 -13 -27 -7 0 5 -5 10 -10 10 -6 0 -10 -6 -9
-12 3 -25 -1 -48 -9 -48 -4 0 -6 18 -4 40 3 32 1 40 -12 40 -13 0 -16 14 -16
90 0 83 2 90 20 90 26 0 32 -28 26 -113 -3 -41 -1 -67 5 -65 12 4 22 190 10
198 -10 7 7 72 18 66 4 -3 6 -20 3 -37z m27 -302 c-1 -30 1 -60 6 -67 5 -9 4
-11 -3 -6 -14 9 -16 -6 -3 -19 6 -6 6 -26 2 -45 -4 -19 -3 -55 1 -80 10 -52 2
-160 -12 -174 -7 -7 -14 -6 -22 2 -8 8 -8 15 3 28 12 16 12 17 -3 12 -23 -9
-26 6 -17 87 4 39 5 73 2 78 -2 4 -1 13 4 20 11 17 11 29 1 49 -6 12 -3 29 7
48 8 16 18 50 22 75 8 61 15 57 12 -8z m-5 -496 c-9 -17 -10 -30 -3 -42 13
-25 17 -309 4 -309 -5 0 -10 20 -10 45 -1 44 -14 76 -17 39 0 -10 -2 -23 -3
-29 -2 -5 -3 -14 -4 -20 -1 -5 -6 -2 -12 8 -6 11 -7 23 -2 30 17 22 16 230 -1
270 -8 20 -13 37 -10 37 2 0 7 0 12 0 4 0 8 -4 8 -10 3 -20 4 -21 18 -8 8 7
12 17 9 21 -3 4 -2 16 2 25 7 14 9 13 14 -8 4 -14 2 -36 -5 -49z m16 -427 c0
-8 6 -14 13 -15 6 -1 2 -4 -11 -7 -22 -7 -23 -10 -24 -145 0 -76 3 -141 6
-144 3 -4 6 -29 6 -56 0 -36 5 -54 18 -63 21 -16 0 -19 -29 -4 -15 9 -19 7
-19 -5 0 -9 -5 -15 -12 -13 -12 4 -16 84 -4 95 3 4 6 -1 6 -10 0 -9 3 -18 8
-20 4 -3 7 11 6 31 0 23 -5 36 -12 35 -14 -3 -16 14 -2 19 5 2 6 18 2 38 -4
19 -7 78 -7 130 0 70 -4 98 -14 106 -8 6 -11 16 -7 22 9 15 36 16 36 2 0 -5 5
-10 11 -10 5 0 7 5 4 10 -8 13 4 32 16 25 5 -4 9 -13 9 -21z m-9 -536 c1 -51
2 -101 2 -110 0 -19 12 -24 22 -9 6 11 45 10 45 -1 0 -4 -11 -10 -25 -14 -14
-3 -25 -10 -25 -15 0 -5 -3 -8 -7 -7 -19 3 -43 -16 -43 -34 0 -11 -5 -16 -10
-13 -6 4 -8 15 -5 26 4 11 2 19 -5 19 -7 0 -10 7 -6 15 3 8 1 15 -3 15 -13 0
-19 -23 -14 -55 9 -66 6 -105 -7 -105 -7 0 -9 15 -5 38 3 25 0 49 -10 68 -18
35 -19 55 -2 49 31 -11 45 20 51 110 6 83 16 115 37 115 5 0 10 -42 10 -92z
m3 -276 c-16 -12 -16 -14 -1 -9 26 10 20 -8 -8 -23 -30 -16 -17 -30 28 -30 20
0 30 -7 37 -26 6 -14 8 -29 5 -34 -3 -4 -6 -28 -6 -54 -2 -37 -6 -46 -21 -46
-14 0 -18 8 -19 38 0 33 -1 35 -10 14 -5 -13 -7 -27 -4 -32 3 -4 -2 -13 -10
-20 -20 -17 -25 -1 -21 75 1 33 -1 65 -6 71 -8 11 -8 19 7 81 7 29 10 31 28
21 20 -10 20 -11 1 -26z m-1334 -312 c0 -11 4 -22 10 -25 13 -8 60 -110 67
-148 3 -17 25 -67 49 -113 26 -52 40 -91 37 -103 -3 -13 -1 -21 6 -21 7 0 9
-5 6 -10 -3 -6 3 -23 14 -39 26 -37 41 -76 47 -125 3 -22 10 -48 15 -59 6 -10
8 -21 5 -25 -9 -8 -34 29 -41 60 -4 15 -20 56 -37 90 -17 35 -34 74 -38 88
-12 38 -56 150 -76 195 -9 22 -19 45 -20 50 -1 6 -12 34 -23 63 -11 29 -19 54
-19 55 0 1 -7 19 -16 41 -20 48 -20 57 -1 50 8 -4 15 -14 15 -24z m1312 -70
c6 0 8 -12 5 -30 -4 -16 -3 -30 2 -30 5 0 14 14 20 30 10 30 25 38 36 20 3 -5
0 -7 -9 -4 -16 6 -24 -18 -18 -53 3 -18 9 -22 27 -17 20 5 23 2 27 -35 2 -23
2 -59 0 -81 -4 -34 -7 -40 -28 -40 -23 0 -24 3 -24 65 0 52 -3 65 -15 65 -13
0 -15 -13 -13 -75 2 -55 7 -75 17 -75 8 0 11 -6 7 -16 -3 -9 -6 -20 -6 -25 0
-5 -5 -9 -11 -9 -5 0 -7 6 -3 13 6 9 4 9 -8 -1 -13 -10 -18 -10 -24 -1 -4 7
-2 15 4 17 8 2 8 8 -2 18 -15 15 -16 133 -2 166 5 10 4 42 -1 71 -5 29 -7 60
-4 68 4 8 7 3 9 -13 2 -16 8 -28 14 -28z m-2841 -370 c-3 -290 0 -499 9 -554
11 -66 9 -74 -11 -50 -16 19 -25 186 -23 449 2 274 3 287 15 283 8 -3 11 -43
10 -128z m2846 31 c3 -11 11 -22 19 -25 8 -3 14 -17 14 -30 0 -18 -4 -24 -15
-20 -20 8 -19 -6 3 -22 11 -9 13 -16 6 -21 -16 -12 -27 -216 -11 -210 7 2 18
-3 25 -12 8 -9 11 -10 7 -3 -3 6 -2 12 3 12 18 0 21 -54 5 -70 -14 -13 -14
-13 -8 8 7 26 0 28 -21 7 -9 -8 -19 -15 -24 -15 -5 0 -7 7 -4 15 4 8 10 15 15
15 5 0 9 7 9 15 0 8 -2 15 -4 15 -2 0 -11 3 -20 6 -11 4 -16 0 -16 -12 -1 -18
-1 -18 -11 -1 -8 13 -7 22 1 32 8 9 11 50 9 117 -1 57 -1 108 1 113 1 6 1 12
0 15 -1 3 -3 24 -5 48 -3 42 12 59 22 23z"/>
<path d="M16747 7317 c-15 -10 -17 -27 -15 -112 l3 -100 63 1 c34 1 66 4 70 8
11 12 2 200 -11 208 -19 12 -92 9 -110 -5z"/>
<path d="M16942 7322 c-9 -6 -12 -36 -10 -113 l3 -104 59 1 c37 1 61 6 67 15
11 18 11 170 0 188 -10 16 -100 26 -119 13z"/>
<path d="M17136 7314 c-23 -23 -23 -189 0 -198 20 -8 72 -7 103 1 23 6 24 7
18 99 -3 51 -8 98 -12 104 -10 16 -91 12 -109 -6z"/>
<path d="M16744 6917 c-2 -7 -3 -60 -2 -118 l3 -104 29 -3 c16 -2 44 -1 62 3
l33 6 0 102 c-1 56 -6 108 -11 115 -14 17 -107 16 -114 -1z"/>
<path d="M16934 6917 c-2 -7 -3 -58 -2 -112 3 -114 9 -122 81 -111 l47 7 0
109 c0 121 1 120 -76 120 -28 0 -47 -5 -50 -13z"/>
<path d="M17132 6913 c-5 -10 -9 -61 -8 -113 l1 -95 34 -3 c19 -2 49 -1 66 2
l30 6 2 102 c1 70 -2 105 -10 110 -7 4 -33 8 -59 8 -35 0 -50 -5 -56 -17z"/>
<path d="M16747 6493 c-4 -3 -7 -55 -7 -115 l0 -108 49 0 c82 0 81 -2 81 121
l0 109 -58 0 c-32 0 -62 -3 -65 -7z"/>
<path d="M16935 6458 c-3 -24 -5 -72 -3 -108 l3 -65 37 -9 c26 -6 46 -6 63 2
24 11 25 14 25 117 l0 105 -59 0 -60 0 -6 -42z m104 -73 l-1 -95 -39 0 -39 0
0 95 0 95 40 0 40 0 -1 -95z"/>
<path d="M17133 6083 c-4 -10 -7 -60 -7 -113 l-1 -95 35 -5 c19 -3 47 -1 62 4
32 12 34 25 30 144 l-3 82 -55 0 c-42 0 -56 -4 -61 -17z"/>
<path d="M16768 5703 c-24 -6 -29 -33 -26 -138 l3 -90 36 -3 c19 -2 47 2 61 7
26 10 27 11 27 111 0 99 -1 101 -25 110 -26 10 -46 11 -76 3z"/>
<path d="M16958 5703 l-28 -4 0 -109 0 -108 45 -6 c78 -12 85 -2 85 118 0 99
-1 104 -22 110 -24 6 -34 6 -80 -1z m66 -19 c13 -5 16 -24 16 -101 l0 -94 -42
3 -43 3 -3 83 c-4 104 13 129 72 106z"/>
<path d="M17148 5703 c-10 -2 -18 -5 -18 -6 0 -1 -3 -47 -7 -101 -5 -89 -4
-101 12 -113 20 -14 83 -17 102 -5 18 11 20 212 2 223 -14 9 -61 10 -91 2z
m80 -116 l3 -98 -38 3 -38 3 -3 84 c-4 105 -1 113 40 109 l33 -3 3 -98z"/>
<path d="M16943 5273 c-9 -3 -13 -36 -13 -113 l0 -107 29 -6 c16 -3 45 -3 65
0 l36 6 0 107 c0 103 -1 108 -22 114 -27 7 -78 7 -95 -1z"/>
<path d="M16737 5258 c-6 -18 4 -191 12 -200 7 -8 34 -11 81 -9 l35 1 0 108 0
107 -62 3 c-43 2 -62 -1 -66 -10z m103 -104 l0 -95 -42 3 -43 3 4 85 c3 90 8
100 54 100 l27 0 0 -96z"/>
<path d="M17137 5264 c-4 -4 -7 -53 -7 -110 0 -114 0 -114 75 -104 l40 5 0
105 0 105 -50 3 c-28 2 -54 0 -58 -4z"/>
<path d="M16757 4843 c-16 -4 -17 -16 -15 -111 l3 -107 54 0 c53 0 55 1 63 33
5 18 8 68 6 110 l-3 77 -45 2 c-25 0 -53 -1 -63 -4z m91 -110 l3 -93 -40 0
c-26 0 -41 5 -45 16 -8 22 -8 159 1 168 4 4 23 6 43 4 l35 -3 3 -92z"/>
<path d="M16954 4842 c-8 -4 -13 -47 -15 -109 l-4 -101 33 -5 c17 -3 47 -3 65
0 l32 5 2 103 c1 98 0 103 -20 109 -30 8 -80 7 -93 -2z"/>
<path d="M17150 4840 c-11 -7 -16 -34 -18 -110 l-4 -101 59 3 58 3 3 99 c2 73
-1 102 -10 108 -18 11 -70 10 -88 -2z m88 -108 l3 -93 -43 3 c-24 2 -42 6 -40
11 1 4 2 46 2 93 l0 85 38 -3 37 -3 3 -93z"/>
<path d="M16569 4438 c-13 -11 -15 -31 -10 -113 6 -95 7 -100 29 -103 13 -2
37 2 52 8 28 12 29 13 32 106 2 52 2 99 0 104 -5 14 -85 12 -103 -2z"/>
<path d="M16763 4433 c-4 -10 -7 -60 -7 -113 l-1 -95 39 -3 c81 -7 82 -6 81
112 0 96 -2 105 -20 110 -42 12 -86 6 -92 -11z"/>
<path d="M16947 4442 c-3 -4 -7 -55 -8 -113 l-2 -104 33 -3 c19 -2 49 -1 67 3
l34 6 -3 107 -3 107 -57 3 c-31 2 -59 -1 -61 -6z m88 -113 l0 -94 -35 0 -35 0
-3 92 -3 92 28 4 c15 2 33 3 38 2 6 -1 10 -41 10 -96z"/>
<path d="M17193 4442 l-43 -3 0 -67 c0 -37 -3 -84 -6 -104 l-7 -38 41 0 c71 0
72 1 72 110 0 55 -3 100 -7 102 -5 2 -27 2 -50 0z"/>
<path d="M16577 4023 c-4 -3 -7 -55 -7 -115 l0 -109 58 3 57 3 -1 40 c-3 94
-17 156 -38 170 -21 16 -58 20 -69 8z"/>
<path d="M16982 4022 c-33 -5 -39 -27 -38 -127 l1 -90 51 -3 c33 -2 54 2 61
10 7 8 8 48 4 107 -6 90 -7 95 -31 101 -14 3 -35 4 -48 2z"/>
<path d="M17000 3640 l-45 -5 -8 -90 c-4 -49 -5 -95 -3 -101 6 -16 75 -23 103
-10 21 10 23 17 23 97 0 104 -8 117 -70 109z"/>
<path d="M16756 3591 c-3 -24 -6 -68 -6 -97 0 -57 14 -74 62 -74 49 1 61 23
64 119 l4 89 -59 4 -59 3 -6 -44z"/>
<path d="M4770 7972 l0 -29 -277 2 c-344 1 -661 -7 -613 -17 93 -19 647 -29
768 -14 63 8 72 7 72 -8 0 -9 -4 -16 -8 -16 -9 0 -142 -99 -211 -158 -24 -20
-54 -44 -65 -52 -12 -8 -32 -26 -45 -41 l-23 -27 -217 5 c-242 5 -352 21 -158
22 73 1 117 5 117 11 0 13 -247 12 -255 0 -3 -5 -13 -6 -22 -3 -11 4 -14 3 -9
-5 9 -15 0 -15 -27 0 -35 19 -214 8 -201 -13 3 -5 -1 -9 -8 -10 -7 0 -31 -2
-53 -4 -34 -3 -37 -2 -21 8 10 7 37 26 60 42 23 17 64 46 91 64 28 19 85 59
127 89 l77 54 188 0 c103 -1 197 3 208 7 30 12 -195 22 -293 13 -49 -5 -86 -4
-92 2 -11 11 -91 -37 -305 -184 -88 -60 -168 -112 -177 -116 -25 -8 -22 -21 4
-20 19 1 24 -6 29 -44 4 -25 7 -164 7 -310 0 -146 3 -422 7 -614 8 -329 7
-349 -9 -343 -10 4 -40 7 -68 7 -45 0 -53 4 -89 40 -22 22 -48 40 -58 40 -10
0 -32 -16 -50 -35 -23 -26 -40 -35 -64 -35 -17 0 -48 -3 -68 -6 l-35 -6 -2
597 c-2 522 0 596 13 591 13 -4 14 14 10 132 -3 75 -8 164 -11 197 -6 73 -6
75 0 100 2 11 5 23 5 27 1 4 20 8 44 10 92 8 -306 7 -609 -1 -350 -10 -355
-11 -420 -72 -46 -44 -186 -122 -195 -108 -9 16 -29 2 -23 -16 4 -9 -13 -24
-48 -44 -29 -17 -56 -31 -59 -31 -3 0 -12 11 -19 25 -15 27 -31 25 -23 -4 3
-12 -3 -24 -18 -35 -23 -16 -23 -16 -2 -16 19 0 21 -3 13 -31 -5 -18 -7 -36
-4 -41 4 -6 8 -87 10 -181 2 -95 8 -300 14 -457 5 -157 8 -303 6 -325 -22
-212 -24 -729 -5 -1145 11 -260 7 -1029 -6 -1150 -4 -30 -2 -93 4 -140 6 -47
16 -130 22 -185 15 -132 14 -127 39 -225 37 -142 109 -301 194 -429 19 -30 33
-57 30 -60 -2 -3 -41 31 -86 75 -44 43 -73 68 -64 54 37 -56 355 -365 416
-405 36 -23 70 -48 77 -56 6 -8 14 -47 17 -87 6 -69 5 -73 -17 -82 -14 -6 54
-9 193 -9 145 -1 238 -6 285 -15 83 -17 730 -22 740 -5 5 7 -61 13 -157 12
-10 0 -18 4 -18 8 0 13 32 19 129 25 53 3 100 9 105 12 5 3 6 0 2 -6 -5 -8 0
-12 13 -12 14 0 19 5 15 15 -4 11 5 16 35 21 23 4 41 11 41 16 0 4 11 13 23
17 29 11 190 86 231 107 16 8 31 12 34 10 2 -3 6 -43 7 -90 l3 -84 -180 4
c-98 2 -176 -1 -173 -5 12 -20 67 -28 190 -26 105 1 137 4 164 19 31 16 35 17
43 2 12 -22 34 -20 58 4 11 11 27 20 35 20 8 0 15 7 15 15 0 8 5 15 10 15 6 0
10 6 10 14 0 8 16 23 36 35 40 24 44 25 44 11 0 -5 -7 -10 -15 -10 -8 0 -15
-4 -15 -10 0 -6 52 -10 135 -10 83 0 135 4 135 10 0 6 -12 10 -27 10 -29 0
-61 15 -52 24 2 3 30 1 61 -3 31 -4 76 -4 100 -1 l43 7 -57 2 c-31 0 -60 5
-63 11 -3 6 -18 10 -33 10 -25 1 -26 2 -9 14 23 18 8 27 -38 24 -33 -2 -51
-18 -21 -18 8 0 18 -4 21 -10 4 -6 -12 -10 -39 -10 -39 0 -46 3 -46 20 0 26
-16 26 -32 0 -13 -21 -62 -28 -73 -10 -4 6 6 10 22 10 15 0 35 5 43 10 11 7
-5 10 -53 8 -60 -2 -68 -4 -64 -20 3 -10 4 -18 2 -18 -7 0 -67 61 -64 64 2 2
51 0 109 -5 69 -6 162 -6 270 2 157 11 344 8 420 -6 31 -5 33 -5 15 7 -31 19
-52 21 -304 27 -30 0 -52 3 -49 6 7 7 62 8 211 5 65 -1 120 0 123 3 13 13
-368 25 -446 15 -32 -5 -47 -4 -35 1 16 6 9 10 -32 16 -29 3 -66 4 -83 0 -19
-4 -30 -3 -30 4 0 6 21 12 48 12 26 1 54 2 62 3 8 0 35 -3 60 -7 52 -9 152 1
144 14 -8 14 6 10 22 -6 17 -17 154 -20 154 -4 0 5 -9 9 -20 9 -11 0 -20 4
-20 8 0 5 25 8 55 7 63 -3 65 11 2 19 -86 11 -309 20 -377 16 -19 -2 -55 -1
-80 2 -25 3 -76 2 -115 -2 -38 -5 -72 -6 -74 -4 -2 1 75 83 171 181 184 187
286 298 253 273 -19 -15 -19 -14 -3 10 65 96 132 239 164 356 99 358 138 579
107 609 -13 13 -13 15 1 15 11 0 13 6 6 29 -4 16 -6 32 -3 35 3 2 2 9 -1 14
-3 6 -8 84 -11 174 -10 361 -17 604 -16 613 2 25 1 661 -2 1158 -1 301 0 547
4 547 4 0 10 -8 12 -17 3 -11 5 -7 6 10 0 16 -3 26 -7 23 -4 -2 -8 97 -9 222
-1 125 -4 284 -6 354 l-5 128 39 22 c21 12 39 25 39 30 0 11 -14 10 -25 -1 -6
-5 -20 -12 -33 -16 -20 -6 -23 -3 -21 17 4 46 -1 88 -11 88 -5 0 -10 -13 -10
-28z m-1780 -64 c0 -7 -35 -35 -77 -63 -43 -27 -95 -66 -118 -86 -92 -82 -138
-111 -167 -105 -15 3 -28 1 -28 -4 0 -6 5 -10 12 -10 8 0 9 -3 2 -10 -16 -16
-465 -25 -474 -9 -6 9 -56 12 -184 13 -97 1 -176 3 -176 6 0 6 157 108 225
146 28 15 65 42 83 59 l33 32 322 7 c177 3 367 12 422 20 55 7 106 14 113 15
6 0 12 -5 12 -11z m-15 -200 c-3 -79 -8 -208 -12 -288 -4 -80 -5 -217 -3 -305
7 -237 5 -843 -2 -850 -4 -4 -19 5 -35 19 -33 31 -68 42 -86 28 -6 -6 -21 -28
-32 -49 -11 -21 -24 -41 -30 -45 -29 -21 -33 -5 -40 147 -4 86 -10 153 -13
150 -3 -3 -5 -77 -3 -165 1 -105 -2 -160 -9 -160 -20 0 -17 367 3 381 5 4 5
15 0 25 -7 14 -8 284 -2 454 1 8 1 51 0 95 -1 73 3 166 12 285 1 25 4 74 5
110 l2 65 61 49 c76 62 149 134 149 149 0 10 29 47 37 47 2 0 1 -64 -2 -142z
m1781 50 c-3 -46 -4 -434 -4 -863 0 -429 -1 -829 -2 -890 -2 -135 -3 -119 4
-185 6 -71 8 -126 7 -229 -1 -70 -3 -82 -16 -77 -8 3 -15 1 -15 -4 0 -6 7 -10
15 -10 12 0 15 -11 14 -50 -1 -27 -5 -50 -8 -50 -3 0 -5 -19 -4 -42 6 -172 18
-470 27 -645 2 -28 -2 -43 -10 -43 -7 0 -14 -28 -18 -77 -3 -43 -8 -89 -10
-103 -1 -14 -4 -33 -4 -44 -2 -14 -5 -16 -16 -7 -11 9 -14 7 -15 -11 -2 -26
-3 -98 -2 -143 1 -26 -4 -100 -12 -200 -1 -16 -6 -36 -10 -42 -6 -9 -3 -11 9
-6 17 6 16 -7 -9 -67 -5 -14 -11 -32 -12 -40 -4 -35 -59 -180 -68 -180 -9 0 2
85 11 88 7 2 12 8 12 13 0 6 -6 7 -12 3 -7 -4 -2 4 11 19 12 14 20 30 17 36
-4 5 -2 12 4 16 15 10 12 23 -7 28 -13 3 -11 5 6 6 18 1 21 4 12 14 -6 8 -8
17 -4 20 3 4 1 7 -4 7 -7 0 -3 16 8 40 10 21 19 46 19 55 0 21 -19 19 -27 -2
-4 -10 -11 -21 -17 -25 -6 -4 -11 -19 -11 -35 -2 -46 -28 -123 -43 -123 -7 0
-10 -4 -7 -10 3 -5 2 -10 -3 -10 -5 0 -7 -11 -5 -24 3 -13 -1 -27 -8 -31 -9
-6 -10 -1 -5 21 l7 29 -30 -35 c-17 -19 -31 -29 -31 -22 0 7 9 23 20 35 47 50
105 174 77 164 -7 -2 -12 -10 -12 -17 0 -7 -6 -15 -13 -18 -19 -6 -11 30 11
46 9 7 15 18 12 23 -3 5 2 6 11 2 15 -5 16 -1 10 31 -5 26 -4 36 4 31 5 -3 7
-12 4 -18 -5 -9 -4 -9 5 -1 7 6 13 25 13 42 1 17 9 40 19 51 11 11 16 27 13
36 -4 8 -1 22 6 30 10 12 10 15 0 15 -8 0 -9 10 -5 29 4 19 1 34 -8 42 -9 9
-12 28 -9 61 3 29 1 48 -6 48 -10 0 -18 -52 -28 -190 -4 -51 -10 -78 -20 -83
-10 -5 -13 -16 -8 -29 4 -15 3 -18 -6 -13 -7 4 -10 20 -8 37 3 16 1 31 -4 34
-4 3 -8 16 -8 30 0 14 4 23 9 20 5 -3 7 -16 4 -29 -4 -15 -2 -19 4 -12 18 18
23 83 7 89 -7 3 -11 12 -8 21 3 8 1 15 -5 15 -6 0 -11 -14 -11 -31 0 -17 4
-28 10 -24 6 3 10 1 10 -4 0 -6 -8 -11 -17 -11 -14 0 -18 8 -18 35 0 19 3 35
8 35 10 0 9 58 -2 65 -10 5 -24 -83 -21 -126 4 -42 0 -59 -11 -59 -6 0 -9 9
-6 20 3 11 1 23 -4 26 -5 3 -9 0 -9 -7 0 -10 -3 -10 -12 -1 -9 9 -8 29 2 84
21 120 58 185 73 128 8 -32 25 -23 23 13 -1 27 2 32 19 30 15 -1 22 5 24 20 5
29 3 74 -3 117 -3 19 -6 52 -7 73 -1 21 -6 40 -11 43 -5 4 -6 -20 -2 -55 7
-62 -1 -76 -26 -46 -15 18 -22 95 -9 95 5 0 7 29 4 65 -4 68 6 84 24 38 l11
-28 -6 30 c-3 16 -6 34 -7 39 -4 17 21 17 25 -1 3 -10 4 19 4 63 -1 61 -5 87
-17 100 -9 11 -21 35 -27 54 -23 80 -41 171 -36 184 3 8 0 17 -5 21 -6 3 -9
10 -6 15 3 5 1 11 -5 15 -5 3 -10 12 -10 18 0 7 10 1 21 -13 17 -20 19 -21 14
-5 -4 11 -8 25 -8 31 0 6 -9 9 -20 6 -16 -4 -19 -2 -14 12 4 10 1 19 -8 22 -9
4 -15 20 -15 43 0 58 -12 141 -20 136 -4 -2 -7 1 -7 8 0 7 -3 84 -7 172 -23
581 -28 821 -26 1405 l1 336 36 19 c33 18 56 36 116 92 9 9 17 23 17 31 0 8
-27 -9 -62 -39 -35 -29 -71 -60 -81 -68 -21 -17 -35 -8 -16 11 41 39 163 123
175 120 7 -1 16 8 19 20 3 13 19 29 36 37 16 7 27 16 25 20 -3 4 4 14 16 22
11 8 26 19 32 26 6 7 12 12 14 13 1 0 0 -37 -2 -82z m-2716 -147 c63 -2 88 -5
75 -11 -11 -5 -36 -9 -55 -10 -19 -1 -44 -5 -55 -10 -12 -5 105 -9 288 -8 170
0 310 -2 313 -4 2 -3 4 -321 5 -707 1 -499 -2 -706 -10 -714 -8 -8 -20 -8 -44
1 -83 30 -142 -3 -142 -80 0 -38 -3 -43 -88 -114 -84 -70 -92 -74 -138 -74
-41 0 -51 -4 -65 -25 -13 -20 -14 -30 -4 -61 12 -36 12 -37 -66 -150 -66 -98
-81 -114 -104 -114 -50 0 -77 -53 -55 -107 14 -33 13 -41 -20 -151 -34 -111
-45 -132 -72 -132 -7 0 -17 -9 -23 -19 -18 -34 -12 -81 15 -113 20 -23 24 -37
20 -66 -2 -20 -7 -74 -10 -120 -5 -78 -8 -86 -39 -117 l-33 -33 1 281 c1 281
-10 681 -20 747 -3 19 -5 190 -3 380 5 533 4 856 -1 1204 l-5 320 25 7 c14 3
68 5 120 4 52 -1 138 -3 190 -4z m1883 -20 c53 -2 46 -21 -8 -21 -26 0 -45 -5
-45 -11 0 -7 8 -9 23 -4 64 20 462 14 482 -7 2 -2 6 -275 9 -608 9 -916 18
-1339 32 -1408 10 -50 -3 -38 -42 39 -25 51 -31 70 -20 66 29 -11 18 27 -24
85 -38 53 -62 73 -86 70 -6 -1 -28 20 -50 46 -21 27 -65 68 -96 91 -32 24 -58
46 -59 49 0 4 -2 22 -4 40 -3 38 -49 92 -76 92 -10 0 -29 -5 -42 -11 -20 -9
-36 -5 -102 28 -43 21 -81 45 -85 53 -37 79 -46 91 -68 97 -14 3 -39 -1 -61
-12 -35 -18 -79 -21 -92 -7 -4 4 -10 140 -13 302 -14 662 -26 947 -42 1007 -6
22 -6 22 142 25 139 3 236 3 327 -1z m-482 -1388 c4 -5 9 -39 12 -76 l4 -68
-26 5 c-79 16 -117 18 -228 18 -74 -1 -123 2 -123 8 0 16 62 70 80 70 6 0 22
12 35 28 14 15 25 21 25 13 0 -9 8 -11 25 -7 20 5 33 -3 75 -44 28 -27 52 -50
54 -50 3 0 11 3 20 6 24 9 19 24 -8 24 -27 0 -86 55 -86 79 0 11 13 13 67 8
37 -4 70 -10 74 -14z m-494 -40 c18 -43 24 -77 15 -90 -4 -7 -48 -24 -97 -38
-50 -14 -98 -28 -108 -31 -16 -5 -17 -3 -8 13 6 10 24 33 41 52 16 18 30 37
30 41 0 4 11 11 25 14 14 4 25 14 25 23 0 18 28 42 50 43 8 0 20 -12 27 -27z
m588 17 c3 -5 17 -10 31 -10 14 0 24 -6 24 -14 0 -9 16 -16 43 -20 23 -3 49
-7 59 -9 23 -4 188 -90 188 -97 0 -3 -47 -12 -105 -19 -57 -8 -102 -18 -99
-23 6 -9 65 -4 151 11 23 5 46 5 52 2 6 -4 14 -39 17 -79 4 -40 11 -75 16 -78
15 -10 20 3 10 23 -16 30 -22 133 -8 133 31 0 289 -220 275 -234 -6 -6 -138 7
-194 20 -27 6 -28 5 -17 -9 14 -16 58 -27 136 -31 25 -1 48 -5 51 -8 3 -3 6
-28 6 -56 1 -29 5 -52 10 -52 5 0 7 25 5 55 -3 38 -1 55 7 55 14 -1 65 -67 93
-120 11 -19 31 -51 45 -70 44 -57 85 -200 58 -200 -11 0 -11 -2 -2 -8 14 -9
13 -105 0 -118 -4 -4 -7 -14 -7 -22 0 -11 3 -12 14 -3 11 10 15 8 20 -6 3 -10
3 -144 0 -298 -6 -286 -6 -314 0 -375 2 -19 2 -45 -1 -57 l-5 -23 -19 23 c-14
16 -18 18 -19 6 0 -8 5 -20 11 -26 20 -20 0 -57 -53 -95 -29 -21 -54 -36 -56
-34 -2 2 8 33 21 68 25 64 30 82 49 178 5 30 17 60 25 67 8 6 10 14 4 17 -5 3
-7 18 -5 34 5 34 5 183 0 191 -3 4 -7 58 -10 120 -4 63 -11 120 -18 128 -6 7
-21 57 -34 110 -13 53 -28 101 -34 107 -23 23 -11 36 30 30 55 -9 50 1 -10 21
-42 14 -54 24 -76 63 -47 82 -106 166 -154 217 -25 28 -61 68 -80 90 -73 88
-237 197 -391 260 l-80 33 -5 71 c-4 58 -2 71 10 71 8 0 18 -4 21 -10z m-917
-165 c-1 -41 -5 -75 -8 -75 -4 0 -42 -25 -84 -56 -43 -31 -79 -54 -82 -52 -7
8 15 110 27 125 6 7 24 13 40 13 16 0 29 5 29 10 0 6 11 10 25 10 16 0 25 6
25 15 0 8 4 15 9 15 6 0 9 9 8 20 -1 12 -8 20 -19 20 -36 0 -17 23 25 29 4 0
6 -33 5 -74z m777 11 c44 -10 51 -15 56 -41 11 -50 10 -518 -1 -578 -6 -30
-40 -118 -76 -194 -74 -156 -108 -237 -96 -229 8 5 85 155 142 279 12 26 26
47 30 47 4 0 8 -38 9 -84 l2 -84 -48 -59 c-104 -129 -121 -145 -155 -138 -26
6 -29 10 -24 34 3 14 13 71 21 126 21 135 52 306 70 385 8 36 17 87 20 115 4
27 8 52 10 56 3 3 7 28 10 55 4 27 10 67 15 89 12 51 12 55 1 55 -7 0 -23 -71
-26 -115 0 -5 -4 -16 -9 -23 -4 -7 -6 -16 -3 -18 3 -3 1 -20 -4 -37 -4 -18
-11 -48 -14 -67 -3 -19 -12 -60 -20 -90 -26 -104 -85 -465 -85 -520 0 -25 -3
-26 -49 -27 l-50 -1 -17 57 c-9 31 -21 60 -26 66 -4 5 -8 16 -8 25 -1 19 -28
56 -36 48 -3 -3 -1 -14 4 -25 6 -10 25 -55 43 -101 28 -70 31 -85 19 -92 -22
-14 -32 -8 -59 41 -20 36 -25 60 -27 127 -2 71 0 81 12 71 18 -15 20 11 2 29
-10 10 -14 110 -16 417 l-3 404 43 4 c94 8 296 4 343 -7z m-419 -208 c-3 -111
-8 -204 -11 -206 -3 -3 -6 10 -6 29 -2 38 -7 144 -11 204 -2 22 -10 46 -18 53
-13 12 -13 13 3 8 15 -5 17 -2 12 17 -4 12 -9 30 -11 40 -3 9 -10 17 -16 17
-6 0 -8 -9 -5 -19 2 -10 1 -24 -3 -31 -4 -6 -3 -32 1 -57 5 -25 12 -84 15
-130 3 -47 13 -104 21 -127 18 -50 26 -136 18 -194 -6 -43 -16 -50 -20 -15 -5
46 -19 85 -31 90 -16 6 -19 43 -4 43 13 0 13 31 -1 50 -8 12 -10 9 -6 -12 2
-16 1 -28 -4 -28 -13 0 -18 15 -24 66 -13 105 -47 289 -56 303 -8 12 -9 6 -4
-19 5 -31 17 -121 31 -235 2 -22 11 -67 19 -100 9 -33 17 -70 20 -82 3 -13 7
-33 10 -44 5 -25 15 -38 15 -20 0 7 5 9 10 6 6 -4 8 -11 4 -16 -3 -6 2 -19 11
-29 9 -10 18 -31 20 -47 6 -47 8 -223 2 -229 -8 -9 -158 199 -153 213 3 7 0
13 -7 13 -12 0 -61 55 -84 94 -7 12 -12 32 -13 47 0 14 -6 31 -12 38 -10 11
-10 13 0 7 7 -5 12 -1 12 9 0 9 -4 14 -9 11 -9 -6 -11 23 -14 238 l-2 139 45
23 c55 28 179 68 187 60 3 -3 15 1 27 9 48 34 49 30 42 -187z m724 101 c36
-17 85 -45 110 -62 64 -43 233 -210 290 -287 104 -140 184 -332 212 -510 20
-127 16 -406 -6 -505 -23 -101 -64 -234 -80 -260 -7 -11 -18 -34 -23 -52 -34
-99 -190 -282 -330 -387 -86 -65 -229 -146 -256 -146 -9 0 -20 13 -26 33 -5
17 -30 91 -55 163 -41 117 -46 141 -46 218 0 54 4 86 11 86 6 0 51 -83 100
-185 49 -102 91 -185 93 -185 9 0 -39 110 -109 249 -50 101 -76 164 -79 197
-12 108 -14 204 -5 210 6 3 67 -50 137 -119 198 -194 372 -348 372 -329 0 6
-49 53 -108 105 -170 148 -392 367 -396 391 -14 66 -14 96 -2 96 7 0 100 -46
208 -103 234 -124 288 -151 294 -145 2 3 -44 30 -103 61 -60 32 -173 92 -253
135 l-145 77 -3 44 -3 44 33 -7 c70 -14 518 -65 618 -70 l105 -5 -75 11 c-41
5 -210 27 -375 47 l-300 37 0 39 0 39 80 14 c245 41 691 139 681 150 -2 2
-143 -24 -313 -58 -462 -92 -443 -89 -450 -77 -11 19 -11 88 1 100 7 7 49 32
95 57 78 43 391 227 515 304 33 20 55 36 49 36 -6 0 -116 -60 -244 -133 -129
-73 -265 -151 -304 -172 -38 -21 -79 -44 -91 -52 -28 -18 -34 -9 -34 48 0 65
9 83 76 165 33 39 95 115 139 169 44 54 101 123 126 153 25 29 54 68 63 85 15
27 11 25 -22 -13 -107 -120 -261 -303 -310 -367 -30 -40 -59 -73 -64 -73 -7 0
-9 41 -6 113 5 98 9 121 37 185 38 87 54 125 55 132 2 8 47 122 63 157 34 79
53 149 35 128 -8 -9 -101 -234 -149 -357 -10 -27 -21 -48 -25 -48 -9 0 -11
494 -2 503 7 7 109 -31 194 -74z m-1230 61 c0 -5 -4 -10 -9 -10 -13 0 -30 -50
-34 -102 -4 -47 -21 -72 -138 -196 -39 -43 -89 -110 -89 -122 0 -7 -7 -10 -16
-6 -12 5 -15 2 -10 -10 3 -8 -6 -36 -20 -62 -31 -55 -72 -161 -86 -222 -5 -25
-14 -49 -18 -53 -4 -5 -21 15 -36 43 -16 29 -30 48 -32 42 -3 -11 20 -67 42
-97 11 -15 12 -26 4 -45 -6 -14 -12 -32 -13 -40 -15 -113 -19 -156 -16 -217 4
-86 -10 -96 -39 -28 -11 25 -24 45 -30 45 -12 0 36 -88 56 -105 19 -15 12 -80
-8 -79 -10 1 -14 -4 -11 -12 3 -8 11 -14 19 -14 8 0 14 -4 14 -10 0 -5 -4 -10
-9 -10 -14 0 -39 -44 -44 -78 -3 -18 -1 -32 4 -32 5 0 9 7 9 15 0 8 4 23 9 33
5 9 12 25 15 35 10 31 23 18 30 -31 3 -26 15 -72 26 -102 14 -37 16 -56 9 -61
-8 -5 -8 -8 0 -13 10 -6 41 -70 41 -83 0 -3 -17 -2 -37 1 -38 6 -38 6 -12 -8
14 -8 32 -16 40 -18 8 -2 21 -12 29 -23 14 -19 67 -126 71 -143 1 -4 15 -27
31 -51 25 -35 28 -45 17 -52 -10 -6 -11 -9 -1 -9 9 0 12 -26 12 -98 0 -93 4
-117 19 -108 3 2 4 47 1 99 l-5 95 94 -95 c52 -52 119 -113 149 -135 56 -41
211 -122 256 -134 31 -7 32 -19 8 -99 -17 -53 -22 -60 -43 -58 -37 2 -141 51
-134 63 3 6 10 8 14 5 11 -6 65 21 81 40 19 23 -6 19 -43 -7 -75 -53 -135 5
-142 137 l-3 40 -83 8 c-142 13 -188 26 -215 62 -13 18 -24 39 -24 48 0 9 -4
19 -10 22 -5 3 -10 18 -11 33 0 15 -3 21 -6 15 -11 -29 -20 -19 -100 120 -18
33 -33 61 -33 64 0 3 11 2 24 -1 19 -5 26 -1 31 14 7 22 -1 40 -17 40 -5 0 -7
-7 -4 -16 4 -12 0 -15 -17 -12 -14 2 -21 9 -21 21 1 9 -1 17 -5 17 -4 0 -15
23 -25 50 -10 28 -24 50 -32 50 -8 0 -14 5 -14 10 0 6 5 10 11 10 7 0 5 10 -5
25 -9 13 -16 40 -16 59 0 19 -7 42 -16 51 -9 8 -17 31 -19 50 -2 19 -6 39 -9
44 -4 5 -2 12 3 16 10 6 9 10 -9 102 -11 53 -9 113 5 147 6 13 4 21 -3 24 -7
2 -12 24 -12 52 0 39 4 52 20 60 14 7 20 7 20 0 0 -23 19 -6 59 55 41 61 45
85 17 85 -8 0 -19 7 -26 15 -7 8 -21 15 -32 15 -17 0 -18 5 -13 47 3 26 12 71
21 100 15 51 17 53 50 53 40 0 69 13 101 45 l23 22 -23 41 c-12 23 -27 42 -34
42 -6 0 -14 4 -17 8 -9 14 112 192 130 192 11 0 14 -4 8 -12 -5 -7 -9 -20 -8
-28 1 -8 2 -21 3 -27 0 -7 6 -13 12 -13 6 0 8 8 4 19 -3 10 -1 30 4 44 8 19
19 27 53 32 54 9 70 22 62 49 -5 17 -4 19 7 9 18 -18 34 -16 17 1 -47 50 -51
59 -37 82 19 31 150 133 172 134 9 0 17 -4 17 -10z m158 -267 l3 -178 -59 75
c-79 101 -109 124 -41 32 115 -156 104 -121 104 -329 0 -145 -3 -183 -13 -183
-13 0 -323 157 -368 187 -13 8 -24 13 -24 10 0 -10 99 -68 246 -145 l149 -78
3 -73 c2 -41 -1 -78 -5 -82 -5 -5 -100 7 -213 25 -235 38 -328 51 -319 42 7
-7 36 -12 314 -57 110 -17 206 -36 213 -42 7 -5 12 -33 12 -68 0 -53 -2 -59
-22 -63 -13 -3 -125 -19 -249 -36 -124 -17 -239 -35 -255 -40 -26 -9 -25 -9
11 -5 22 3 143 19 269 35 126 16 233 27 237 24 5 -3 9 -40 9 -83 l0 -78 -215
-97 c-117 -54 -222 -104 -232 -112 -27 -21 56 13 261 106 98 44 181 78 184 75
3 -3 5 -52 3 -108 l-2 -102 -129 -130 c-71 -71 -133 -134 -137 -140 -18 -22
79 64 167 149 60 58 95 85 97 76 1 -8 7 -100 12 -205 10 -206 21 -254 81 -348
16 -26 26 -47 21 -47 -5 0 -30 16 -55 35 -26 19 -49 35 -52 35 -18 0 -141 95
-205 159 -123 123 -197 228 -274 387 -56 114 -111 297 -102 341 2 13 2 25 -2
27 -15 9 -12 241 4 310 38 168 75 284 119 371 14 28 26 56 26 64 0 15 68 114
82 119 4 2 8 9 8 16 0 6 15 27 33 46 17 19 41 46 52 60 11 14 37 38 58 54 21
16 35 31 32 34 -3 3 6 12 19 21 13 9 48 33 77 54 30 20 56 37 59 37 3 0 6 -80
8 -177z m108 -351 c18 -26 37 -58 44 -72 7 -14 19 -28 25 -32 7 -5 30 -34 50
-65 21 -32 52 -74 69 -93 34 -37 48 -90 24 -90 -11 0 -11 -2 0 -9 8 -4 12 -17
10 -28 -3 -18 -16 -13 -123 49 -66 38 -123 72 -126 76 -8 8 -17 312 -9 312 3
0 19 -22 36 -48z m1729 -157 c9 -38 19 -115 22 -170 3 -55 9 -104 13 -110 13
-17 1 -201 -21 -315 -5 -30 -10 -64 -10 -75 0 -10 -5 -25 -11 -32 -5 -7 -8
-19 -5 -28 4 -8 2 -17 -3 -20 -6 -4 -10 -17 -10 -30 0 -34 -10 -55 -26 -55 -8
0 -14 -7 -14 -16 0 -8 4 -13 9 -10 12 8 -19 -91 -53 -173 -25 -58 -59 -113
-93 -149 -7 -7 -13 -17 -13 -21 0 -24 -206 -261 -227 -261 -11 0 -6 101 7 141
5 15 4 31 -1 36 -5 5 5 24 24 46 93 107 154 198 195 290 11 26 26 47 33 47 7
0 19 7 28 15 33 31 79 65 88 65 13 0 35 74 39 125 1 22 5 63 7 90 3 28 6 103
8 168 1 65 6 120 11 123 4 3 4 13 0 22 -5 9 -10 75 -11 146 -1 71 -7 140 -12
153 -12 32 -12 90 0 78 5 -6 17 -41 26 -80z m-1686 -177 c42 -24 90 -51 106
-60 17 -10 40 -23 53 -30 28 -14 32 -62 5 -54 -16 4 -131 26 -140 26 -2 0 -3
10 -4 23 0 12 -5 31 -10 42 -7 15 -8 9 -5 -22 4 -41 3 -43 -20 -38 -13 3 -34
7 -46 10 -21 4 -23 10 -23 75 0 38 2 70 4 70 2 0 38 -19 80 -42z m440 -128
c58 -29 68 -79 29 -136 -30 -44 -52 -52 -106 -40 -37 8 -47 16 -58 42 -23 56
-3 110 52 139 37 19 37 19 83 -5z m-179 -9 c6 -11 6 -22 1 -25 -12 -8 -20 -55
-10 -62 5 -3 9 -19 9 -36 0 -20 8 -38 25 -53 l26 -21 -25 -85 c-14 -46 -34
-106 -46 -134 -19 -45 -20 -47 -16 -15 3 19 8 60 11 90 4 30 8 66 11 79 4 18
2 22 -10 18 -18 -7 -20 1 -7 23 6 8 7 19 3 25 -12 19 -8 60 7 79 15 18 15 19
0 13 -14 -4 -17 1 -17 29 0 19 4 34 9 34 5 0 4 11 -1 24 -14 37 11 52 30 17z
m-195 -11 c61 -11 111 -20 113 -20 1 0 2 -9 2 -20 0 -17 -7 -20 -42 -20 -24 0
-60 -3 -80 -6 -37 -6 -38 -6 -38 25 0 18 -4 30 -9 27 -4 -3 -6 -16 -4 -29 5
-25 -15 -37 -64 -37 -19 0 -23 5 -23 34 0 19 -3 41 -6 50 -8 21 14 21 151 -4z
m603 -74 l4 -28 -54 6 c-59 8 -48 -7 15 -18 34 -6 37 -9 37 -41 0 -40 -3 -41
-38 -16 -40 27 -72 43 -72 34 0 -4 23 -21 51 -38 31 -18 52 -38 54 -52 3 -13
7 -34 10 -48 7 -35 -6 -31 -45 13 -18 20 -49 54 -68 74 -28 29 -33 40 -24 51
7 8 9 17 5 20 -3 4 0 13 7 22 8 10 9 15 1 15 -6 0 -11 7 -11 14 0 11 15 16 53
19 71 4 72 4 75 -27z m-488 -26 c0 -15 -28 -33 -126 -80 -70 -33 -130 -58
-133 -54 -11 10 -8 119 3 126 6 4 28 8 49 8 34 0 37 -2 37 -27 0 -16 5 -35 11
-43 8 -11 9 -2 4 32 l-6 47 38 4 c101 10 123 8 123 -13z m-7 -77 c5 -28 0 -53
-12 -53 -8 0 -94 -74 -160 -137 -24 -24 -47 -43 -51 -43 -4 0 -11 -7 -14 -16
-12 -31 -21 -4 -24 73 l-3 79 123 60 c68 34 126 62 129 62 4 1 9 -10 12 -25z
m367 -1 c0 -4 31 -42 69 -84 l70 -77 -2 -100 -2 -100 -23 45 c-12 24 -20 49
-17 53 5 8 -79 178 -112 226 -17 26 -17 45 2 45 8 0 15 -3 15 -8z m-77 -64 c2
-24 25 -101 52 -173 26 -71 63 -177 82 -235 19 -58 62 -181 95 -275 33 -93 71
-206 85 -250 45 -150 174 -516 222 -634 17 -41 31 -76 31 -78 0 -2 -14 -3 -32
-1 l-31 3 -143 425 c-78 234 -162 488 -187 565 -25 77 -61 187 -81 245 -19 58
-53 166 -76 240 -23 74 -49 148 -57 163 -16 31 -10 47 17 47 14 0 19 -10 23
-42z m-108 0 c-4 -18 -20 -81 -36 -141 -16 -59 -29 -116 -29 -128 0 -11 -16
-70 -36 -132 -62 -195 -82 -261 -90 -297 -3 -19 -19 -73 -35 -120 -16 -47 -29
-92 -29 -102 0 -9 -4 -18 -10 -20 -5 -1 -11 -16 -13 -33 -2 -16 -6 -37 -9 -45
-4 -8 -13 -44 -21 -80 -8 -36 -24 -101 -37 -145 -45 -163 -90 -351 -90 -380 0
-19 -7 -23 -47 -29 -25 -3 -48 -4 -50 -2 -3 2 2 17 10 33 7 15 21 55 31 88 22
80 56 187 101 315 39 112 109 334 145 465 31 110 67 229 90 295 10 30 39 134
64 230 66 251 69 260 84 260 10 0 12 -8 7 -32z m264 -196 c-4 -2 6 -29 22 -60
22 -42 32 -79 38 -142 4 -47 7 -87 5 -88 -1 -2 -7 5 -13 16 -11 21 -161 468
-161 480 0 4 26 -40 58 -98 32 -58 54 -106 51 -108z m-447 146 c-3 -30 -13
-64 -23 -77 -11 -13 -19 -33 -19 -44 0 -25 -65 -132 -107 -176 l-33 -34 0 42
c0 23 -4 40 -9 37 -11 -7 -20 -66 -10 -71 10 -7 -1 -45 -13 -45 -5 0 -6 9 -3
20 3 11 3 20 -2 20 -4 0 -8 38 -8 85 0 62 4 88 15 99 49 48 138 126 143 126 4
0 7 -11 7 -25 0 -30 16 -33 23 -5 3 11 1 20 -4 20 -5 0 -9 5 -9 11 0 12 41 68
51 68 3 1 4 -23 1 -51z m-1192 -8 c0 -3 15 -14 34 -22 28 -14 35 -23 40 -60 4
-24 17 -79 30 -124 l23 -81 -24 -27 c-44 -51 -25 -101 42 -111 57 -9 67 -17
108 -95 18 -36 51 -92 72 -124 l38 -59 -22 -17 c-28 -20 -31 -73 -6 -100 20
-22 83 -28 102 -9 16 16 55 -7 178 -106 59 -47 114 -89 123 -94 13 -8 14 -12
3 -25 -19 -23 -64 -20 -87 6 -10 12 -13 18 -6 14 8 -5 12 2 12 23 0 36 -16 41
-31 8 -14 -30 2 -71 36 -93 22 -15 32 -15 66 -5 36 11 40 16 36 37 -4 21 -1
24 17 18 48 -14 166 -70 166 -78 0 -7 -68 -246 -127 -448 -4 -14 -19 -18 -72
-20 -60 -3 -66 -5 -69 -26 -7 -49 -46 -34 -141 53 -24 22 -40 34 -36 27 16
-30 -38 11 -117 86 -95 91 -213 256 -273 385 -24 50 -57 144 -74 207 -41 156
-75 351 -62 359 6 4 5 40 -5 101 -15 101 -18 260 -7 374 5 61 8 67 20 51 7
-11 13 -22 13 -25z m1430 -3 c0 -21 113 -368 204 -627 8 -25 12 -48 8 -51 -17
-15 -79 -29 -130 -29 -97 0 -195 73 -222 165 -13 45 -8 69 55 300 19 72 43
160 52 197 9 37 20 65 25 62 4 -3 8 -10 8 -17z m-255 -191 c-16 -53 -117 -265
-127 -266 -4 0 -12 25 -19 56 -12 53 -11 58 7 73 11 9 23 24 27 35 4 11 13 16
22 12 10 -3 15 1 15 11 0 9 11 31 25 49 14 18 25 39 25 47 0 17 9 27 26 27 9
0 9 -10 -1 -44z m11 -63 c-4 -9 -2 -19 3 -22 17 -11 -32 -231 -82 -368 -13
-37 -32 -93 -41 -123 -26 -88 -32 -90 -51 -24 -10 32 -21 69 -26 82 -5 13 -6
35 -2 50 6 27 48 109 64 127 12 13 11 -17 -1 -51 -6 -15 -13 -45 -16 -67 -2
-22 -7 -43 -9 -47 -8 -12 7 -70 17 -70 5 0 8 12 7 28 -2 15 0 33 4 39 33 53
62 234 36 217 -5 -3 -9 2 -9 11 0 11 5 15 14 12 10 -4 13 -1 9 9 -5 15 51 178
70 202 14 17 20 15 13 -5z m1474 -240 c0 -64 -31 -263 -50 -328 -102 -341
-232 -554 -425 -700 -80 -60 -95 -65 -95 -36 0 11 -4 22 -9 26 -12 7 -101 275
-101 303 0 12 8 22 21 25 18 5 21 11 16 36 -4 18 -2 31 3 31 6 0 10 4 10 10 0
5 -6 7 -13 4 -17 -6 -52 20 -43 34 3 6 19 17 34 25 15 8 65 36 111 62 68 39
87 46 100 36 48 -34 80 -44 106 -33 32 15 42 39 27 63 -16 25 -15 30 4 27 32
-6 26 22 -5 28 -17 4 -31 10 -31 15 0 5 35 47 77 94 73 83 78 86 110 80 60
-11 90 9 59 40 -12 12 -15 12 -20 0 -7 -19 -36 -20 -36 -1 0 8 7 16 15 20 8 3
14 9 13 13 -2 5 3 15 10 23 7 8 29 41 48 73 39 62 64 74 64 30z m-1386 -124
c2 -15 13 -41 25 -58 12 -17 21 -39 20 -48 0 -10 -1 -31 0 -48 1 -23 3 -27 11
-15 8 12 10 9 10 -12 0 -37 -42 -67 -67 -47 -15 13 -15 12 -2 -9 8 -12 20 -20
27 -17 15 6 5 -46 -12 -57 -10 -7 -61 -1 -78 9 -14 8 15 41 31 36 11 -4 9 0
-4 11 -19 15 -19 17 -2 30 18 14 24 56 7 56 -5 0 -10 -7 -10 -15 0 -9 -9 -19
-19 -23 -11 -4 -20 -10 -20 -14 -1 -5 -1 -22 -1 -39 0 -20 -4 -29 -12 -26 -18
6 -12 60 13 114 11 25 18 51 15 59 -3 7 -1 16 3 18 5 3 11 25 14 48 4 24 12
61 18 83 11 39 12 39 21 15 6 -14 11 -37 12 -51z m972 -143 c-1 -61 -4 -92
-11 -86 -5 4 -49 13 -97 20 l-86 13 91 73 c51 40 95 73 98 74 4 0 6 -42 5 -94z
m-593 15 c-6 -3 -18 -22 -28 -41 -32 -65 -154 -175 -173 -156 -3 3 18 29 46
58 29 29 54 60 58 70 3 10 9 18 14 18 11 0 40 29 40 40 0 12 -36 -2 -81 -30
-25 -16 -28 -21 -11 -17 12 3 22 1 22 -4 0 -5 -4 -9 -9 -9 -5 0 -13 -9 -16
-20 -3 -11 -11 -20 -18 -20 -8 0 -8 3 1 12 17 17 15 28 -4 28 -9 0 -18 9 -21
20 -8 29 -32 25 -44 -7 -6 -16 -16 -35 -24 -43 -14 -16 -9 -70 6 -70 5 0 9 -7
9 -15 0 -26 -15 -17 -29 18 -15 35 -14 69 0 78 11 6 1 39 -11 39 -4 0 -7 11
-7 25 0 19 4 24 16 21 9 -3 42 -8 73 -12 58 -6 80 -1 158 40 21 10 26 10 34
-2 5 -8 4 -17 -1 -21z m-1053 -41 c91 0 113 -14 123 -75 5 -28 13 -58 18 -67
6 -12 5 -18 -2 -18 -18 0 -139 79 -196 129 -53 45 -73 76 -31 47 15 -11 45
-16 88 -16z m1445 -50 c-3 -6 4 -9 17 -8 13 1 50 -2 83 -7 33 -5 66 -7 73 -6
22 4 12 -13 -26 -45 -51 -43 -267 -163 -276 -154 -2 3 -15 38 -28 78 l-25 72
81 40 c81 39 112 49 101 30z m-282 -186 c18 -53 22 -76 14 -79 -143 -50 -349
-80 -405 -58 -22 9 -21 10 28 52 28 24 58 44 67 45 17 3 32 27 16 25 -9 -1
-78 -44 -121 -76 l-30 -23 -48 35 c-63 44 -104 68 -104 58 0 -5 23 -24 50 -43
28 -19 60 -43 73 -52 22 -17 22 -17 -22 -18 -50 0 -172 20 -184 30 -5 4 0 37
10 74 15 59 20 66 38 61 52 -15 234 -26 300 -17 123 17 260 44 270 53 17 16
22 10 48 -67z m111 -332 c38 -114 70 -211 72 -217 3 -7 -165 -11 -486 -13
-270 -1 -490 0 -490 3 0 19 73 303 83 319 6 12 11 28 12 36 1 8 2 23 3 33 1 9
9 17 18 17 10 0 14 -6 11 -14 -4 -10 3 -14 21 -14 57 -2 62 -4 62 -22 0 -24
-40 -36 -69 -20 -30 16 -46 2 -25 -21 22 -24 86 -26 109 -2 11 10 15 27 13 44
-4 26 -1 29 29 35 34 6 249 -13 268 -24 5 -4 28 -6 50 -7 46 0 57 -21 26 -49
-25 -23 -74 -14 -100 20 -23 29 -31 30 -31 4 0 -36 44 -70 90 -70 67 0 116 66
75 100 -13 11 -13 15 -3 21 13 9 95 35 133 42 60 13 56 20 129 -201z m218
-273 c-11 -9 -152 -67 -217 -89 -33 -11 -132 -32 -220 -45 -207 -32 -216 -34
-209 -47 8 -12 -93 -7 -366 18 -164 15 -166 16 -265 63 -131 63 -156 93 -85
103 44 6 1369 3 1362 -3z m-1407 -94 c22 -13 72 -33 110 -45 39 -12 74 -26 78
-30 4 -4 -53 -6 -128 -5 l-137 3 -3 56 c-3 54 -2 57 18 50 12 -4 40 -17 62
-29z"/>
<path d="M3095 5710 c4 -74 8 -137 10 -140 1 -3 6 -57 10 -120 3 -63 8 -128
10 -145 2 -16 9 -91 16 -165 6 -74 15 -142 20 -150 12 -22 11 40 -6 230 -7 91
-17 201 -20 245 -3 44 -8 94 -10 111 -3 18 -7 67 -10 110 -7 105 -13 145 -21
153 -3 3 -3 -55 1 -129z"/>
<path d="M13260 7955 c0 -31 -2 -34 -17 -27 -10 6 -55 12 -100 14 -74 4 -83 3
-83 -13 0 -24 20 -29 119 -29 85 0 111 -8 111 -36 0 -12 102 -180 121 -198 21
-22 5 -28 -73 -26 -131 4 -188 1 -188 -10 0 -6 51 -10 134 -10 109 0 138 -3
150 -16 32 -31 18 39 -20 101 -19 33 -31 61 -26 63 4 1 -8 21 -29 43 -20 22
-42 55 -49 72 -6 18 -16 40 -21 49 -5 10 -9 24 -9 32 0 8 -4 18 -10 21 -6 4
-10 -8 -10 -30z"/>
<path d="M5369 7929 c-24 -17 -61 -48 -83 -68 -25 -23 -40 -32 -43 -23 -8 20
-25 14 -18 -7 9 -28 -154 -177 -203 -186 -28 -5 -33 -9 -21 -16 14 -7 15 -17
6 -61 -11 -62 -14 -934 -4 -1378 11 -467 13 -1560 4 -1890 -14 -512 -15 -610
-6 -604 5 3 8 -6 7 -20 -1 -15 -6 -26 -10 -26 -4 0 -7 -26 -6 -57 l2 -58 3 53
c2 29 8 50 12 48 4 -3 6 -192 4 -420 -3 -279 -1 -416 6 -420 5 -4 8 -13 4 -21
-3 -8 0 -15 6 -15 6 0 11 9 11 21 0 14 5 19 14 16 40 -16 766 -40 776 -26 14
18 176 35 194 20 10 -8 17 -6 31 9 10 11 14 20 10 20 -5 0 5 15 22 33 16 17
43 50 58 72 70 98 110 147 127 156 11 6 -8 -25 -41 -68 -46 -60 -57 -81 -50
-95 13 -25 10 -36 -4 -16 -12 15 -14 15 -25 -3 -11 -18 -9 -19 35 -20 46 -1
47 -1 16 -10 -37 -11 -53 -29 -26 -29 66 1 118 23 76 32 -11 3 -5 6 14 9 29 5
31 4 21 -14 -10 -19 -7 -19 58 -12 38 4 73 11 78 16 5 5 -2 6 -17 4 -14 -3
-29 0 -32 6 -4 6 -19 7 -37 4 -21 -5 -28 -4 -24 4 4 6 2 11 -5 11 -7 0 -9 3
-5 7 10 11 86 12 86 2 0 -5 10 -9 23 -8 12 0 16 3 10 6 -25 10 -12 22 22 21
19 -1 38 2 42 6 4 4 -54 5 -130 3 -121 -4 -165 1 -140 16 5 3 113 9 240 13
239 7 308 23 110 25 -87 1 -103 3 -72 10 22 4 74 8 114 8 102 1 80 20 -24 21
-44 1 -107 -4 -140 -10 -74 -13 -200 -21 -191 -13 4 4 14 8 24 9 102 14 171
23 187 23 11 1 61 5 110 9 85 7 88 8 50 17 -22 5 -93 9 -157 8 -129 -2 -163
10 -44 15 41 2 96 7 123 12 l48 8 -45 2 c-160 8 -206 7 -228 -1 -35 -13 -39
-4 -9 23 19 18 23 28 17 43 -7 17 -9 17 -9 3 -1 -10 -5 -18 -11 -18 -14 0 -13
106 1 129 9 13 9 42 2 107 -6 49 -11 186 -12 304 -1 118 -4 284 -8 368 -4 99
-2 152 4 152 10 0 76 -135 94 -190 24 -74 176 -553 210 -660 112 -353 174
-537 186 -551 21 -25 16 -29 -44 -29 -38 -1 -53 -4 -43 -9 8 -5 184 -10 390
-12 206 -2 350 -1 320 2 l-55 6 55 3 c83 5 94 7 110 13 8 4 100 5 205 4 l190
-2 20 -37 c11 -21 22 -38 25 -38 8 0 4 86 -5 99 -4 7 12 36 36 67 50 65 67 78
45 35 -9 -17 -20 -31 -24 -31 -4 0 -12 -11 -19 -25 -6 -14 -9 -25 -7 -25 13 0
84 92 99 130 7 16 29 58 65 122 11 21 28 38 36 38 23 0 14 30 -52 178 -30 68
-54 129 -54 135 0 7 -13 39 -29 72 -16 33 -68 159 -115 280 -48 121 -96 243
-108 270 -11 28 -29 77 -40 110 -10 33 -23 69 -27 80 -5 11 -18 47 -30 80 -13
33 -33 87 -46 120 -26 67 -75 224 -75 240 0 6 -13 43 -30 83 -31 77 -42 101
-83 192 -14 31 -29 68 -32 83 -4 15 -11 30 -17 33 -5 3 -4 12 3 20 8 10 8 14
0 14 -6 0 -11 -4 -11 -10 0 -16 -17 -11 -24 7 -5 12 9 32 47 68 30 29 75 76
99 106 25 30 76 86 114 124 72 73 155 205 128 205 -8 0 -14 -5 -14 -11 0 -7
-15 -33 -34 -59 -18 -26 -36 -56 -40 -66 -3 -11 -23 -36 -43 -55 l-36 -34 34
50 c44 65 129 208 129 217 0 5 5 8 11 8 6 0 8 -9 4 -20 -3 -11 -2 -20 3 -20 8
0 33 66 37 100 1 8 14 53 28 100 31 103 44 194 52 360 4 69 10 168 15 220 9
93 6 220 -6 290 -3 19 -8 46 -10 60 -3 14 -16 58 -29 98 -14 40 -25 77 -25 83
0 6 -13 38 -29 72 -37 78 -45 107 -32 107 6 0 11 5 11 10 0 6 -7 10 -15 10 -9
0 -12 6 -9 15 4 8 2 21 -3 28 -6 6 -24 38 -41 70 -17 31 -36 63 -42 70 -50 59
-77 102 -69 108 17 10 -83 111 -175 176 -93 66 -312 178 -416 214 -36 12 -72
28 -81 36 -12 10 -18 11 -21 3 -2 -7 -49 0 -143 24 -178 44 -314 60 -490 58
-354 -5 -914 -7 -905 -4 12 4 13 22 2 22 -5 0 -29 -14 -53 -31z m507 -34 c40
-2 172 1 295 5 250 8 397 -3 517 -39 40 -12 83 -19 95 -16 16 5 18 4 8 -3 -11
-8 -10 -12 7 -21 11 -6 27 -11 35 -11 15 0 88 -27 169 -63 62 -26 72 -17 13
12 -51 25 -71 47 -34 36 61 -17 170 -61 234 -94 84 -42 228 -125 251 -143 78
-63 122 -114 183 -212 86 -138 113 -199 71 -161 -19 17 -20 17 -14 2 3 -10 14
-22 23 -27 9 -4 23 -32 30 -60 7 -29 20 -64 27 -79 8 -14 14 -31 14 -38 0 -7
9 -30 20 -51 11 -21 27 -72 36 -113 8 -41 20 -96 26 -124 11 -53 13 -74 22
-229 8 -144 -15 -295 -38 -257 -4 6 -2 11 5 11 9 0 10 3 2 11 -7 7 -8 23 -1
52 14 57 17 157 5 157 -5 0 -7 7 -3 15 3 8 1 15 -4 15 -6 0 -10 5 -10 11 0 5
5 7 10 4 6 -4 10 5 10 20 0 15 -4 24 -10 20 -6 -4 -8 -11 -5 -16 4 -5 1 -9 -5
-9 -7 0 -10 6 -7 14 11 27 -6 25 -35 -5 -17 -16 -28 -33 -24 -36 3 -3 1 -12
-6 -20 -6 -7 -8 -17 -4 -21 10 -9 36 27 36 51 0 10 5 17 12 15 9 -3 13 -33 13
-100 0 -72 -3 -94 -12 -91 -7 3 -13 9 -13 14 0 5 -4 9 -10 9 -5 0 -10 -7 -10
-15 0 -8 4 -15 9 -15 6 0 7 -16 4 -35 -4 -26 -2 -36 11 -41 9 -3 14 -10 11
-15 -3 -4 -11 -6 -18 -3 -8 3 -13 -4 -13 -16 0 -15 5 -18 18 -14 10 3 18 1 18
-5 0 -6 -6 -11 -12 -11 -10 0 -9 -3 1 -9 10 -7 11 -13 2 -30 -7 -11 -17 -21
-22 -21 -7 0 -9 -10 -5 -24 4 -16 0 -30 -9 -40 -8 -8 -14 -23 -14 -33 1 -17 2
-17 6 0 2 9 9 17 14 17 6 0 9 -8 7 -17 -4 -23 -44 -29 -51 -9 -4 9 -2 16 4 16
5 0 7 11 3 25 -4 15 -2 25 5 25 14 0 14 27 0 32 -7 2 -7 12 0 31 7 17 7 27 1
27 -6 0 -10 5 -10 11 0 6 7 8 16 5 14 -5 15 -4 5 8 -7 8 -15 48 -17 88 -3 40
-6 89 -8 108 -2 19 0 40 5 46 6 8 4 14 -5 17 -8 3 -20 16 -27 29 -11 21 -11
22 4 9 15 -12 17 -11 18 3 1 9 3 21 4 26 1 6 3 15 4 21 0 6 7 9 15 6 25 -10
28 45 4 64 -19 15 -24 32 -33 101 -4 33 -14 50 -25 43 -4 -3 -4 -20 0 -39 4
-18 6 -50 5 -70 -2 -20 1 -34 6 -30 5 3 9 0 9 -5 0 -6 -4 -11 -10 -11 -5 0
-10 -18 -10 -41 0 -24 4 -38 10 -34 6 3 10 1 10 -4 0 -13 -10 -14 -27 -3 -11
7 -18 40 -37 172 -22 146 -74 270 -170 409 -28 40 -58 84 -67 97 -9 13 -19 21
-24 16 -4 -4 -5 1 -2 11 4 11 3 16 -3 12 -6 -4 -50 29 -98 73 -186 169 -345
250 -622 315 -160 39 -204 45 -392 58 -170 11 -307 9 -683 -10 -99 -5 -259
-12 -355 -15 -158 -6 -173 -5 -155 9 48 36 175 145 238 204 l69 64 196 -8
c109 -4 229 -9 268 -10z m451 -280 c127 -14 239 -32 353 -55 120 -25 370 -123
428 -167 21 -15 63 -45 94 -66 55 -36 183 -169 206 -214 7 -12 9 -28 6 -37 -3
-8 -1 -23 6 -33 10 -15 10 -14 5 10 -7 34 7 35 25 2 7 -14 24 -32 37 -40 13
-9 21 -21 17 -27 -4 -5 -3 -13 2 -17 36 -25 95 -209 134 -412 4 -25 13 -64 19
-86 8 -28 8 -49 1 -68 -15 -39 -12 -65 6 -65 24 0 17 -419 -8 -468 -9 -18 -12
-30 -7 -27 5 4 9 -5 9 -19 0 -35 -18 -78 -30 -71 -6 4 -7 12 -4 18 5 9 4 9 -6
0 -10 -9 -10 -15 3 -28 12 -11 14 -22 8 -38 -5 -12 -9 -26 -9 -30 0 -4 -4 -20
-10 -35 -5 -15 -15 -45 -22 -67 -26 -85 -83 -204 -142 -297 -37 -57 -161 -164
-287 -247 l-65 -43 -18 24 -19 23 15 -31 c14 -29 14 -33 -4 -52 -11 -11 -30
-24 -42 -28 -21 -8 -20 -9 11 -14 31 -5 36 -11 78 -105 62 -139 145 -345 177
-438 15 -43 70 -179 122 -302 95 -226 117 -291 65 -200 -57 100 -410 763 -464
870 -52 105 -291 539 -307 560 -9 11 -180 326 -180 332 0 1 6 3 13 3 18 0 101
127 126 194 42 113 53 192 52 363 0 179 -11 239 -62 351 -17 36 -48 87 -68
112 -21 25 -36 52 -34 60 4 12 3 13 -5 1 -8 -11 -19 -6 -56 25 -25 21 -46 40
-46 41 0 2 14 -4 31 -13 17 -8 28 -11 24 -5 -3 6 -25 21 -48 32 -23 12 -46 28
-50 36 -5 7 -12 11 -18 8 -5 -4 -15 -3 -21 2 -51 32 -162 41 -278 23 -30 -5
-83 -13 -118 -19 -76 -11 -97 -24 -26 -16 l50 5 0 -607 c-1 -335 1 -630 3
-658 2 -27 0 -58 -4 -67 -11 -27 34 -32 159 -20 137 14 190 29 288 86 l77 44
47 -92 c26 -50 92 -172 147 -271 55 -99 136 -250 180 -335 107 -207 202 -384
302 -560 45 -80 133 -239 195 -355 62 -115 123 -226 136 -246 12 -20 48 -101
79 -180 31 -79 76 -193 100 -254 48 -122 59 -155 51 -155 -3 0 -104 197 -225
438 -120 240 -251 498 -291 572 -39 74 -162 308 -272 520 -110 212 -205 390
-210 395 -20 20 240 -491 437 -860 23 -44 177 -348 340 -675 164 -327 311
-615 326 -642 51 -85 56 -82 -130 -80 -89 1 -167 5 -173 8 -5 4 4 21 22 39 30
31 30 32 8 28 -19 -4 -23 0 -25 23 0 15 -21 65 -44 112 -42 81 -43 84 -24 98
10 8 22 14 27 14 4 0 8 9 8 20 0 13 -7 20 -20 20 -30 0 -35 -3 -33 -22 4 -31
-15 -20 -22 12 -9 43 -73 171 -98 198 -49 54 -93 67 -222 67 -193 0 -207 -4
-288 -88 l-69 -72 -1 -125 c-1 -69 2 -143 6 -165 l7 -40 -14 35 c-16 39 -122
365 -215 655 -106 335 -151 489 -152 520 0 16 -7 59 -14 95 l-15 65 6 -60 c2
-33 7 -72 10 -88 10 -52 -14 -27 -54 56 -52 108 -51 100 -57 270 -5 145 -4
148 15 142 14 -5 20 -2 20 9 0 11 -10 16 -32 16 l-31 0 7 -126 c8 -150 1 -154
-59 -41 -23 42 -67 103 -98 136 l-57 60 -26 -24 c-20 -19 -24 -29 -18 -47 4
-13 8 -420 8 -905 l1 -883 -85 0 c-47 0 -95 -3 -107 -6 -18 -5 -24 -1 -30 22
-10 38 -10 152 0 186 7 22 3 32 -25 65 -19 21 -44 54 -56 73 -29 49 -63 79
-103 90 -54 16 -291 13 -331 -3 -59 -25 -103 -72 -138 -148 -38 -83 -70 -125
-81 -107 -4 6 -5 162 -3 347 l4 335 164 321 c90 177 175 339 188 361 35 55
128 231 128 241 -1 20 -204 -346 -343 -617 -61 -118 -119 -228 -129 -245 l-19
-30 7 70 c8 81 27 122 162 355 50 85 129 223 177 305 180 311 274 474 340 585
38 63 100 169 138 235 38 66 78 136 90 155 l20 35 -21 -20 c-11 -11 -58 -81
-103 -155 -207 -340 -287 -473 -349 -580 -37 -63 -109 -187 -161 -275 -53 -88
-137 -236 -189 -328 -51 -92 -97 -170 -102 -173 -6 -4 -9 27 -9 72 1 44 1 430
2 858 0 429 2 795 4 815 7 62 6 649 0 1021 -4 195 -8 472 -9 615 -2 143 -5
266 -7 274 -7 22 44 30 128 19 75 -10 271 -5 528 11 199 13 495 11 632 -4z
m43 -832 c60 -22 177 -135 231 -225 65 -107 81 -175 85 -363 3 -143 0 -170
-21 -254 -29 -110 -43 -136 -90 -155 -87 -37 -241 -59 -287 -41 -10 4 -12 24
-8 88 3 45 5 123 3 172 -1 50 -4 243 -6 430 -3 187 -8 348 -12 357 -6 16 -3
17 26 12 19 -3 54 -13 79 -21z m-292 -500 c-2 -34 0 -65 4 -68 3 -3 2 -20 -2
-38 -4 -18 -3 -41 1 -52 7 -19 8 -19 8 2 1 12 6 25 11 28 7 4 8 -26 5 -87 -3
-51 -5 -104 -5 -117 0 -13 -5 -30 -10 -37 -7 -7 -7 -15 -2 -18 5 -3 8 -67 7
-142 -3 -125 -2 -135 13 -120 14 14 16 50 17 268 0 242 0 254 -20 270 -11 9
-16 20 -11 25 5 4 11 2 13 -4 8 -22 20 -14 27 18 4 21 1 35 -9 46 -8 8 -15 19
-15 24 0 6 7 3 16 -5 8 -9 20 -16 26 -16 6 0 7 -8 3 -17 -4 -10 -9 -24 -12
-30 -3 -9 4 -13 21 -13 14 0 26 -4 26 -10 0 -5 -4 -10 -9 -10 -6 0 -4 -12 4
-26 13 -25 12 -29 -16 -53 -16 -14 -29 -29 -29 -33 0 -13 38 -9 43 5 3 7 6 5
6 -5 1 -10 -4 -18 -10 -18 -6 0 -8 -9 -4 -21 6 -18 4 -20 -15 -14 -22 7 -22 6
-15 -51 4 -33 7 -71 6 -86 -1 -16 3 -28 7 -28 5 0 7 -12 4 -26 -3 -19 -1 -25
7 -20 6 4 11 2 11 -3 0 -6 -4 -11 -10 -11 -11 0 -14 -49 -4 -74 5 -13 9 -14
20 -5 35 29 9 -8 -42 -59 -31 -31 -63 -68 -72 -81 -15 -21 -16 -22 -22 -5 -4
11 -6 39 -4 64 1 25 3 104 3 175 1 283 2 319 8 328 9 14 9 58 1 89 -3 15 -2
30 3 34 5 3 7 10 4 15 -6 9 -9 125 -5 164 5 40 20 -91 18 -152z m1149 -1329
c-3 -3 2 -15 12 -25 17 -18 201 -379 201 -393 0 -4 27 -61 60 -127 33 -67 57
-126 53 -133 -4 -6 1 -5 10 3 15 12 21 9 49 -21 46 -47 79 -88 72 -88 -4 0 5
-10 20 -21 15 -12 25 -26 23 -33 -2 -6 4 -20 14 -30 22 -22 24 -15 7 17 -10
20 -10 21 5 8 10 -7 17 -19 17 -25 0 -7 16 -50 35 -96 19 -47 33 -91 30 -97
-2 -7 0 -13 5 -13 5 0 12 -10 16 -22 3 -13 19 -50 34 -83 15 -33 38 -85 50
-115 12 -30 35 -80 51 -111 30 -58 39 -106 17 -93 -7 4 -8 3 -4 -5 4 -6 11 -9
16 -6 5 3 16 -11 25 -31 17 -42 19 -58 5 -49 -13 8 -13 4 6 -40 12 -30 18 -35
25 -24 6 9 7 3 3 -18 -4 -21 -2 -33 4 -33 18 0 42 -30 42 -52 0 -20 -1 -20
-23 3 -13 13 -40 54 -61 92 -20 37 -41 67 -46 67 -12 0 87 -170 108 -186 9 -7
20 -10 24 -8 25 16 5 -16 -104 -163 -38 -51 -73 -104 -78 -118 -10 -25 -30
-26 -30 -2 -1 7 -16 51 -34 100 -26 69 -30 87 -18 87 12 0 12 3 1 16 -18 22
-99 186 -99 201 0 7 -9 29 -19 49 -11 20 -25 58 -32 85 -7 27 -17 49 -21 49
-5 0 -6 4 -3 10 3 5 -4 31 -15 57 -12 27 -23 53 -24 58 -1 6 -10 25 -19 43
-27 50 -97 235 -92 240 3 3 1 10 -4 16 -8 11 -70 151 -75 171 -2 6 -8 21 -13
35 -6 14 -23 54 -37 90 -15 36 -31 74 -36 85 -5 11 -20 52 -34 90 -13 39 -28
79 -32 90 -7 18 -6 18 9 6 22 -18 22 -13 -9 58 -15 33 -30 58 -35 56 -4 -3
-11 0 -15 6 -4 8 -3 9 4 5 7 -4 12 -4 12 0 0 8 -73 147 -81 154 -12 11 -70
141 -76 171 -5 26 -3 30 12 28 12 -3 23 -23 35 -64 9 -33 29 -82 43 -110 66
-126 157 -330 157 -354 0 -2 -8 3 -17 10 -10 7 -5 -1 11 -19 20 -21 25 -32 15
-32 -11 -1 -10 -4 4 -14 18 -14 24 -32 7 -21 -15 9 -13 4 25 -86 19 -46 35
-87 35 -91 0 -4 14 -37 30 -71 17 -35 30 -69 30 -76 0 -16 50 -114 56 -108 2
2 -7 27 -21 56 -15 28 -25 59 -23 68 2 10 16 -14 32 -52 51 -122 84 -193 94
-199 6 -3 -4 24 -22 61 -18 38 -37 79 -41 93 -17 56 -56 130 -67 127 -7 -1
-14 7 -16 18 -2 11 -10 35 -18 53 -8 17 -21 49 -29 70 -9 20 -20 45 -26 55 -5
9 -5 17 0 17 4 0 6 12 3 26 -10 52 15 14 34 -51 10 -36 22 -65 26 -65 13 0
-39 148 -62 175 -20 24 -70 136 -76 172 -3 15 -7 30 -10 34 -2 4 0 10 5 13 10
6 33 -17 30 -30 -2 -5 2 -20 8 -34 6 -14 16 -45 23 -70 7 -25 16 -54 20 -65
12 -29 12 2 -1 50 -6 22 -11 47 -13 55 -1 9 -5 20 -9 26 -3 6 -7 28 -9 48 -1
21 -8 40 -15 43 -7 3 -10 9 -7 14 3 6 1 15 -4 22 -5 7 -23 37 -39 67 -17 30
-46 85 -67 123 -20 37 -34 67 -31 67 3 0 -1 13 -10 30 -18 35 -19 40 -3 40 6
0 9 -3 5 -6z m290 -444 c47 -102 54 -115 79 -145 22 -26 25 -27 19 -7 -3 12
-2 22 4 22 5 0 13 -15 16 -32 4 -18 21 -51 38 -72 36 -45 80 -136 67 -136 -5
0 -17 12 -27 27 -10 14 -53 61 -95 104 -43 43 -78 82 -78 88 0 5 -13 38 -30
73 -35 73 -60 154 -52 163 9 9 30 -22 59 -85z m-1329 -817 c4 -51 4 -93 0 -93
-5 0 -8 -7 -8 -16 0 -8 5 -12 10 -9 6 3 10 -1 10 -9 0 -8 5 -18 11 -22 9 -5 9
9 4 52 -5 32 -10 93 -11 134 -1 41 -4 86 -6 99 -2 13 2 26 8 28 6 2 11 -2 12
-9 0 -7 4 -56 7 -108 3 -52 9 -122 14 -155 6 -39 5 -62 -2 -67 -10 -6 -5 -98
8 -131 5 -12 3 -16 -7 -12 -11 4 -12 -7 -4 -70 6 -46 15 -75 22 -75 7 0 14
-19 16 -47 3 -40 0 -51 -25 -77 -15 -17 -45 -52 -65 -78 -20 -27 -39 -48 -43
-48 -4 0 -5 25 -3 55 2 30 0 55 -5 55 -13 0 -25 -83 -17 -114 4 -17 -3 -35
-25 -66 -17 -23 -32 -40 -35 -38 -9 10 9 68 21 68 9 0 15 27 19 88 8 115 8
108 6 406 0 142 1 260 3 263 5 4 13 -154 21 -436 3 -84 8 -156 12 -160 4 -3 4
153 0 348 -3 195 -3 351 1 347 4 -4 9 -35 10 -69 13 -473 24 -680 35 -669 7 7
7 68 -1 186 -13 215 -14 226 -1 226 6 0 10 -15 10 -34 0 -19 5 -38 11 -41 15
-10 23 2 14 22 -5 10 -7 22 -6 27 1 5 -5 16 -13 25 -16 18 -37 248 -35 381 l2
65 9 -65 c5 -36 12 -107 16 -157z m1102 -293 c28 -15 43 -32 66 -73 l15 -28
-30 15 c-24 13 -67 16 -216 16 l-186 0 3 38 c3 36 5 37 48 44 76 11 272 3 300
-12z m57 -120 c16 -15 63 -115 63 -134 0 -17 -459 -10 -476 7 -6 6 13 124 23
140 2 4 86 7 187 7 167 0 184 -2 203 -20z m-1734 -35 c25 -10 36 -36 27 -61
-8 -19 -13 -20 -57 -13 -62 10 -274 10 -335 0 -52 -9 -53 -8 -38 20 14 26 64
50 125 60 57 9 251 5 278 -6z m1371 -130 c41 -4 162 -6 270 -4 l196 4 24 -45
c13 -25 30 -65 37 -90 7 -25 17 -48 22 -51 6 -4 2 -23 -9 -45 -13 -27 -28 -41
-49 -46 -52 -14 -528 -28 -542 -16 -9 7 -13 7 -13 -1 0 -6 -6 -11 -14 -11 -9
0 -20 25 -31 68 -17 65 -20 76 -44 135 -13 32 -15 127 -3 127 5 0 17 -7 28
-15 29 -22 34 -19 35 23 l1 37 9 -32 c9 -31 11 -31 83 -38z m-1367 -17 c7 -20
13 -54 15 -75 l3 -38 -225 -3 c-222 -3 -270 0 -270 17 0 4 14 38 30 75 l30 66
203 -2 202 -3 12 -37z m50 -187 l-10 -79 -302 2 -303 1 3 30 c1 17 3 39 4 49
1 24 14 13 18 -17 7 -41 22 -40 16 1 -7 55 12 75 58 62 46 -14 326 -23 417
-15 54 5 78 12 90 26 9 10 17 19 17 19 0 0 -3 -35 -8 -79z"/>
<path d="M5990 5348 c-25 -41 -32 -68 -28 -104 l3 -29 97 -1 c67 -1 98 2 101
10 10 26 0 104 -16 129 -16 24 -24 27 -77 27 -57 0 -61 -2 -80 -32z"/>
<path d="M6478 4888 c-16 -5 -28 -13 -28 -16 0 -4 -14 -23 -31 -42 -31 -35
-31 -36 -26 -121 10 -149 62 -233 101 -161 10 17 15 21 16 11 0 -13 14 -18 61
-22 34 -3 65 -11 70 -18 6 -10 12 -8 26 8 10 12 28 24 41 28 18 5 25 2 29 -14
7 -26 51 -29 60 -3 3 9 13 25 21 35 14 16 14 17 0 12 -15 -6 -15 -2 -6 27 9
29 7 41 -11 76 -11 23 -21 50 -21 60 0 11 -7 25 -15 32 -8 6 -25 31 -39 55
-17 28 -37 47 -57 54 -39 13 -154 13 -191 -1z m208 -64 c11 -3 28 -19 38 -35
l17 -29 -53 -2 c-29 -1 -75 -2 -103 -3 -27 -1 -67 0 -87 2 -35 4 -37 7 -32 31
4 15 9 30 11 35 5 8 178 10 209 1z m89 -128 c19 -46 12 -93 -15 -101 -25 -8
-91 5 -84 16 3 5 -29 9 -71 9 -47 0 -74 -4 -70 -10 8 -13 -39 -24 -69 -16 -16
4 -26 15 -29 33 -3 16 -9 41 -13 57 -11 46 6 51 179 51 l157 0 15 -39z"/>
<path d="M5650 4653 c-27 -10 -67 -54 -85 -93 -9 -21 -26 -41 -38 -44 -16 -4
-18 -8 -9 -19 9 -10 6 -24 -13 -60 -31 -57 -32 -110 -4 -162 32 -60 54 -70 69
-31 9 24 10 24 142 22 118 -1 133 -3 136 -18 2 -12 13 -18 32 -18 34 0 38 5
44 53 2 20 14 50 25 66 46 64 17 213 -54 284 -27 26 -31 27 -129 26 -55 0
-108 -3 -116 -6z m208 -76 c6 -7 12 -26 14 -42 l3 -30 -140 -3 c-76 -1 -145 0
-152 2 -10 4 -10 11 -1 33 7 15 16 34 21 41 13 17 240 17 255 -1z m82 -97 c0
-12 -6 -33 -14 -48 -7 -15 -16 -44 -20 -64 -4 -24 -15 -42 -29 -50 -13 -7 -84
-13 -181 -15 -138 -3 -161 -1 -177 13 -21 19 -26 49 -6 41 43 -16 59 -18 53
-8 -4 6 -15 11 -25 11 -38 0 -42 24 -14 76 l26 49 168 0 169 0 0 -27 c0 -16 5
-28 10 -28 6 0 10 16 10 35 0 24 5 35 15 35 8 0 15 -9 15 -20z"/>
<path d="M8404 7949 c-2 -3 33 -9 77 -12 44 -3 83 -8 87 -11 3 -4 -39 -52 -94
-109 -55 -56 -114 -119 -131 -139 -21 -24 -38 -36 -47 -32 -14 5 -15 -71 -12
-698 2 -386 9 -779 15 -873 19 -289 18 -1349 -3 -3000 -1 -104 1 -207 4 -227
l7 -38 -41 0 c-30 0 -37 -3 -26 -10 8 -5 25 -10 38 -10 12 0 22 -5 22 -11 0
-6 -15 -9 -34 -8 -19 2 -38 0 -42 -4 -4 -4 13 -7 38 -7 l46 0 7 -55 c9 -73 30
-74 22 -2 -3 30 -2 58 1 63 4 5 102 9 217 10 116 0 368 1 560 2 193 1 395 -1
450 -4 189 -9 465 -13 385 -4 -41 4 -109 8 -150 9 -52 1 -70 4 -60 11 9 6 157
10 360 10 391 1 609 6 618 14 3 4 -3 13 -14 21 -18 14 -18 14 4 15 12 0 25 -6
28 -14 3 -8 19 -18 35 -21 23 -5 33 -1 51 20 20 22 34 27 93 32 58 4 73 3 84
-11 17 -20 31 -21 31 -1 0 9 9 15 21 15 12 0 19 5 17 12 -3 8 -21 12 -49 11
l-44 -2 29 13 29 13 -54 6 c-136 15 -165 20 -175 28 -6 5 -46 8 -89 6 -52 -1
-79 2 -82 10 -3 8 13 10 54 8 32 -2 128 -6 213 -9 152 -5 154 -5 100 10 -31 9
-71 13 -92 10 -22 -4 -38 -2 -38 3 0 14 58 24 95 17 17 -3 44 -3 60 1 l30 6
-25 8 c-14 4 -72 8 -130 9 -119 1 -111 13 16 25 43 5 88 9 99 10 11 1 29 3 39
4 32 2 11 12 -33 16 -23 2 -65 7 -94 11 -28 4 -91 8 -139 8 -49 1 -88 2 -88 4
0 2 24 27 53 55 29 29 67 70 85 92 36 44 139 251 165 330 46 139 77 246 81
277 2 19 9 52 15 73 6 22 20 92 31 155 12 63 26 133 33 154 20 68 13 333 -13
466 -6 30 -13 70 -15 87 -3 18 -10 54 -16 80 -6 27 -12 60 -14 76 -5 42 -21
85 -60 161 l-35 69 31 19 c23 14 29 22 21 30 -8 8 -18 8 -37 0 -22 -10 -27 -8
-42 14 -49 70 -195 244 -205 244 -6 0 -1 11 12 25 13 14 28 25 34 25 6 -1 1
-9 -11 -19 -26 -22 -29 -31 -9 -31 28 0 178 163 195 212 14 41 -2 34 -28 -12
-20 -36 -64 -80 -80 -80 -11 0 -6 43 7 68 7 12 9 22 4 22 -12 0 -42 -46 -47
-72 -4 -18 -96 -118 -110 -118 -3 0 6 17 20 37 14 21 25 41 25 46 0 5 11 23
24 40 13 18 45 79 71 137 26 58 56 125 68 150 24 48 24 48 26 85 0 14 5 25 10
25 15 0 22 -32 10 -46 -9 -11 -7 -14 10 -14 11 0 21 -4 21 -10 0 -5 18 -10 40
-10 31 0 47 -6 65 -26 22 -24 23 -28 10 -47 -8 -12 -15 -30 -15 -41 0 -11 -14
-35 -32 -53 l-31 -32 31 -33 c18 -17 32 -35 32 -38 0 -3 -21 -22 -47 -42 -27
-20 -75 -65 -108 -98 -45 -47 -54 -60 -36 -55 25 8 26 1 6 -48 -7 -16 39 20
101 79 13 12 25 20 27 17 3 -2 19 3 36 11 38 20 51 20 51 0 0 -8 -14 -20 -31
-26 -27 -9 -30 -14 -26 -38 6 -26 4 -27 -36 -26 -35 1 -50 -6 -90 -39 -26 -21
-47 -43 -47 -47 0 -10 64 28 85 52 10 11 24 20 31 20 28 0 25 -23 -7 -56 -24
-25 -29 -34 -16 -34 10 0 14 -5 11 -15 -4 -9 0 -15 10 -15 9 0 16 3 17 8 0 4
2 17 3 29 1 12 29 52 62 88 32 36 72 89 87 118 l28 52 -48 45 c-57 53 -85 94
-73 106 19 19 60 113 60 136 0 32 -29 57 -74 65 -34 5 -48 25 -26 38 5 3 9 27
8 53 -1 26 7 68 18 95 23 58 16 73 -48 104 -45 22 -45 23 -41 65 2 24 6 65 8
92 2 27 7 61 10 75 3 14 6 87 6 161 1 109 -3 148 -20 204 -21 71 -19 100 5 69
24 -31 5 44 -26 107 -39 77 -53 117 -46 129 4 5 2 12 -4 16 -5 3 -10 15 -10
26 0 10 -5 19 -11 19 -5 0 -8 4 -5 9 3 4 -6 23 -19 41 -19 26 -22 36 -12 42 6
4 8 8 2 8 -5 0 -18 18 -29 39 -10 22 -40 62 -65 90 -26 28 -45 51 -41 51 3 0
23 -9 44 -21 58 -31 34 -5 -28 30 -30 17 -79 55 -108 85 -56 57 -98 84 -255
162 -51 25 -90 50 -88 55 3 5 -7 11 -22 15 -15 4 -95 24 -178 46 -82 21 -175
43 -205 48 -30 5 -84 14 -120 20 -35 6 -74 9 -86 6 -13 -4 -25 -1 -28 7 -4 8
-8 9 -11 1 -4 -8 -61 -10 -188 -7 -291 8 -1079 9 -1083 2z m278 -28 c31 -6
173 -10 315 -11 142 -1 353 -6 468 -12 116 -5 243 -10 283 -10 41 1 83 -5 98
-13 14 -7 43 -12 64 -11 21 0 36 -2 34 -5 -2 -4 8 -6 22 -6 13 0 34 -9 45 -19
13 -12 23 -14 30 -7 7 7 51 -2 138 -28 220 -64 348 -137 476 -271 80 -83 93
-101 177 -236 59 -94 155 -392 127 -392 -5 0 -12 8 -15 18 -5 15 -13 35 -32
76 -3 5 0 6 7 2 6 -4 11 -2 11 3 0 6 -7 11 -15 11 -8 0 -17 11 -21 25 -6 22
-24 36 -24 18 0 -14 39 -133 50 -153 6 -12 7 -20 1 -20 -8 0 -61 124 -61 144
0 4 -11 30 -25 57 -16 32 -20 49 -12 50 9 0 9 2 0 6 -7 2 -13 10 -13 17 0 16
-163 178 -213 211 -40 28 -52 31 -41 13 4 -8 3 -10 -2 -5 -5 5 -9 14 -9 20 0
7 -10 13 -22 15 -12 2 -27 10 -33 18 -7 8 -18 14 -24 14 -6 0 -29 12 -49 26
-44 29 -178 87 -185 79 -3 -3 43 -27 102 -55 115 -54 135 -67 235 -147 36 -29
70 -53 76 -53 14 0 80 -67 80 -83 2 -19 17 -50 35 -72 20 -23 90 -156 90 -171
0 -6 9 -29 20 -52 11 -22 20 -45 20 -50 0 -5 9 -26 19 -48 11 -21 17 -43 13
-48 -5 -8 -21 21 -27 50 -8 34 -90 192 -140 270 -69 107 -114 155 -220 238
-105 82 -170 123 -312 196 -140 71 -269 107 -428 120 -152 12 -180 12 -780 -1
-291 -7 -559 -12 -594 -12 -59 0 -63 -1 -45 -14 14 -11 35 -13 88 -8 37 3 66
3 63 -2 -3 -4 234 -6 527 -5 593 4 805 -7 946 -52 30 -9 91 -28 135 -42 213
-67 445 -223 544 -368 43 -62 115 -211 146 -301 15 -44 32 -88 37 -98 14 -27
4 -31 -26 -12 -25 17 -82 17 -131 1 -14 -5 -30 2 -54 24 -28 26 -41 31 -68 28
l-35 -4 7 44 c6 39 3 49 -25 88 -26 37 -31 51 -28 90 l3 47 -55 30 c-34 19
-62 28 -70 23 -8 -4 -31 -15 -50 -26 -24 -12 -39 -15 -47 -8 -8 7 -19 5 -35
-6 -33 -24 -46 -20 -62 18 -8 18 -23 40 -34 47 -11 8 -26 33 -32 57 -11 34
-18 42 -37 42 l-25 0 26 -31 c14 -17 26 -42 26 -55 0 -16 7 -27 21 -33 12 -4
27 -23 33 -42 l11 -34 65 3 c35 1 73 8 85 16 42 28 90 30 123 6 38 -28 48 -60
21 -67 -25 -7 -24 -15 5 -42 14 -13 30 -36 37 -52 10 -26 9 -32 -7 -45 -14
-12 -16 -17 -6 -21 10 -4 8 -12 -10 -30 -21 -24 -21 -25 -3 -20 12 4 29 -1 43
-13 18 -15 20 -23 13 -43 -5 -14 -7 -28 -4 -31 3 -3 0 -12 -7 -21 -19 -23 -3
-31 20 -10 14 13 17 22 10 30 -11 13 -3 45 11 45 5 0 27 -7 50 -16 35 -14 48
-15 92 -5 47 11 57 11 98 -7 58 -25 65 -36 44 -68 -16 -25 -16 -27 10 -54 24
-25 25 -29 10 -44 -9 -9 -23 -16 -31 -16 -12 0 -12 -4 2 -25 9 -14 26 -31 37
-37 18 -9 19 -8 14 21 -4 18 -2 31 3 31 11 0 11 -3 15 -134 l2 -90 -21 27
c-16 20 -31 27 -55 27 -22 0 -31 4 -28 13 2 6 16 11 31 10 23 -2 26 1 16 12
-15 18 -5 35 21 35 10 0 19 7 19 15 0 19 -30 19 -56 0 -22 -17 -38 -19 -29 -5
4 7 -3 8 -22 4 -28 -7 -115 -64 -176 -116 l-32 -27 26 -1 c23 0 77 29 54 30
-5 0 6 10 25 22 19 12 41 21 48 19 8 -1 20 3 28 10 8 6 17 10 20 7 5 -6 -40
-53 -77 -81 l-24 -18 25 7 c14 3 35 17 46 30 22 24 62 35 48 12 -5 -8 -2 -9
10 -5 14 5 17 3 12 -8 -3 -9 0 -15 9 -15 9 0 12 -6 9 -15 -4 -10 0 -15 15 -15
12 0 21 -6 21 -15 0 -10 7 -15 18 -13 14 3 17 -5 17 -47 -1 -69 -26 -225 -38
-232 -6 -3 -19 6 -29 20 -11 15 -24 27 -30 27 -5 0 5 -19 23 -41 l33 -42 -28
-81 c-34 -99 -67 -168 -109 -223 -32 -42 -54 -57 -43 -28 4 12 0 14 -19 9 -31
-8 -48 23 -21 38 28 16 86 69 97 90 12 22 7 20 -79 -30 -50 -28 -50 -42 0 -17
18 10 29 13 23 8 -5 -4 -22 -19 -36 -31 l-27 -24 -42 27 c-23 14 -40 31 -37
38 2 7 25 23 51 37 25 14 42 26 37 28 -5 2 -21 -4 -35 -14 -23 -15 -26 -15
-26 0 0 8 14 31 31 51 17 19 26 35 20 35 -6 0 -11 -4 -11 -8 0 -5 -11 -14 -25
-20 -33 -15 -32 1 3 34 l27 26 -25 -7 c-21 -6 -18 -2 14 24 21 17 35 31 30 31
-4 0 -3 5 4 12 24 24 11 28 -22 6 -19 -13 -32 -26 -30 -30 3 -4 -1 -5 -8 -3
-7 3 -35 -8 -62 -25 -27 -17 -58 -30 -70 -28 -17 3 -11 9 29 31 28 15 70 43
94 63 24 19 56 38 71 41 28 5 105 61 97 70 -3 2 -21 -6 -41 -18 -42 -24 -71
-19 -61 11 5 16 2 20 -14 20 -12 0 -21 5 -21 10 0 6 -7 10 -15 10 -8 0 -17 11
-21 25 l-6 26 -38 -41 c-20 -22 -43 -40 -51 -40 -33 0 -59 14 -59 30 0 10 -7
21 -16 24 -9 4 -13 2 -8 -5 4 -7 1 -10 -7 -7 -23 8 -22 38 2 64 12 13 17 24
11 24 -6 0 -18 -9 -26 -21 -8 -12 -19 -18 -25 -15 -7 4 1 22 19 48 36 49 39
70 7 40 -13 -12 -28 -22 -35 -22 -6 0 -17 -9 -25 -20 -23 -34 -27 -10 -5 34
l20 41 -25 -24 c-15 -13 -24 -27 -22 -31 3 -4 -4 -15 -15 -25 -22 -20 -44 -9
-56 27 -4 13 -12 18 -25 15 -31 -8 -33 11 -4 49 34 44 27 56 -9 14 -31 -38
-33 -33 -6 23 l21 42 -51 -55 c-27 -30 -50 -51 -50 -46 0 5 -7 3 -15 -4 -9 -7
-18 -10 -22 -7 -3 4 -12 2 -19 -4 -18 -15 -26 4 -14 35 5 14 7 26 4 26 -2 0 0
9 6 20 6 11 14 18 19 16 4 -3 22 20 39 51 l32 55 -32 -28 c-39 -35 -128 -149
-128 -165 0 -6 -6 -9 -14 -6 -7 3 -19 0 -25 -6 -6 -6 -11 -8 -11 -4 0 17 35
75 71 119 22 26 39 50 39 54 0 14 -58 -59 -96 -119 -49 -80 -59 -68 -40 50 3
18 1 35 -5 38 -5 4 -9 21 -9 38 0 18 -7 57 -15 87 -18 66 -18 71 -3 45 17 -29
48 -148 41 -159 -3 -5 -1 -6 5 -2 14 8 8 85 -11 156 -11 42 -81 129 -94 116
-3 -2 -23 12 -46 32 -22 20 -52 47 -65 60 -30 27 -99 59 -147 68 -38 7 -43 15
-20 34 8 7 15 17 15 23 0 6 -13 -1 -28 -16 -19 -18 -35 -25 -45 -21 -10 3 -17
9 -17 13 0 19 35 108 48 124 11 13 12 17 2 17 -7 0 -19 -8 -26 -17 -12 -17
-14 -17 -37 6 -31 28 -26 47 19 63 21 7 33 18 31 28 -3 20 48 26 76 7 39 -25
55 -27 50 -8 -3 11 4 21 22 29 35 16 45 15 67 -5 18 -16 21 -16 49 14 16 18
29 35 29 38 0 17 46 65 63 65 11 0 25 8 32 17 8 11 32 18 74 21 33 2 61 8 61
13 0 15 67 10 80 -6 7 -8 18 -15 24 -15 6 0 -2 12 -17 25 -30 27 -60 31 -104
14 -15 -6 -48 -11 -73 -11 -26 0 -55 -7 -70 -17 -14 -10 -33 -21 -42 -24 -10
-3 -34 -31 -53 -62 -38 -59 -45 -64 -66 -39 -16 19 -55 11 -86 -18 -17 -16
-25 -18 -41 -9 -38 20 -79 13 -100 -17 -11 -15 -32 -34 -46 -42 -39 -20 -36
-68 4 -83 36 -14 38 -30 8 -73 -27 -39 -46 -49 -113 -60 -46 -8 -50 -11 -47
-34 2 -14 5 -158 8 -320 3 -162 6 -308 7 -324 2 -23 -3 -29 -22 -32 -19 -4
-22 -1 -16 13 10 25 24 83 19 83 -2 0 -11 -15 -19 -32 -33 -69 -40 -78 -58
-78 -26 0 -32 27 -13 67 22 47 13 55 -13 12 -28 -45 -26 -62 8 -95 l29 -27
-19 -32 c-24 -40 -62 -59 -90 -45 -16 9 -19 7 -19 -8 0 -19 30 -36 58 -33 6 1
12 -1 12 -5 0 -13 -33 -44 -45 -44 -23 0 -66 41 -61 59 13 48 17 81 8 81 -5 0
-13 -17 -17 -37 -9 -52 -11 -53 -45 -36 -33 16 -38 39 -16 81 28 56 26 75 -3
25 -51 -86 -42 -106 69 -173 30 -18 57 -34 60 -37 2 -2 -13 -20 -35 -39 -22
-19 -34 -34 -26 -34 8 0 11 -6 7 -16 -6 -15 -4 -15 10 -3 14 12 16 11 13 -6
-2 -10 -29 -34 -59 -52 -56 -33 -110 -77 -110 -90 0 -3 11 4 25 17 20 18 28
21 37 12 15 -15 28 -15 28 0 0 6 8 20 17 30 16 18 18 17 65 -29 26 -26 48 -42
48 -36 0 6 -7 16 -15 23 -8 7 -15 18 -15 25 0 7 -7 18 -15 25 -17 14 -21 35
-5 25 6 -3 10 4 10 17 0 37 47 101 98 135 41 27 47 28 63 15 17 -15 17 -16 1
-28 -16 -12 -15 -13 3 -14 12 0 26 5 33 12 6 6 15 9 18 5 7 -7 9 -74 3 -97 -3
-13 11 -15 91 -14 191 3 237 15 308 78 22 20 43 36 48 36 26 0 110 116 129
180 4 14 17 35 28 46 18 19 23 20 35 7 12 -12 12 -16 -3 -33 -10 -11 -22 -20
-27 -20 -5 0 -2 7 6 16 23 23 19 40 -4 19 -23 -21 -26 -41 -7 -49 10 -5 10 -7
0 -12 -7 -3 -13 -12 -13 -19 0 -7 -5 -15 -12 -17 -6 -2 -12 -14 -13 -26 -1
-12 -10 -29 -21 -37 -16 -13 -16 -14 -1 -9 13 5 16 2 11 -11 -4 -10 -14 -15
-25 -12 -11 3 -16 0 -13 -7 6 -14 42 -13 70 2 12 6 46 35 75 64 30 29 69 66
87 81 l33 28 27 -60 c15 -34 30 -61 34 -61 8 0 -10 59 -24 76 -13 18 -58 151
-57 171 0 10 11 -13 23 -52 27 -85 65 -160 66 -130 0 17 43 75 55 75 2 0 3
-13 2 -30 -1 -19 -8 -30 -17 -31 -10 0 -11 -2 -3 -6 10 -3 10 -10 2 -25 -14
-26 -20 -98 -8 -98 14 0 11 -38 -6 -70 -20 -38 -3 -39 20 -2 10 15 31 40 46
56 16 16 26 32 24 36 -3 4 3 7 12 6 10 0 19 7 21 18 2 11 0 16 -7 12 -17 -11
-13 10 4 24 8 7 15 18 15 24 0 19 69 88 81 80 7 -4 -1 -18 -20 -38 -17 -18
-29 -35 -25 -38 3 -4 -4 -12 -16 -18 -12 -6 -19 -14 -17 -17 3 -2 24 8 46 23
23 15 39 29 36 32 -2 3 -11 -1 -20 -8 -8 -7 -15 -8 -15 -2 0 16 47 42 64 36
29 -11 16 -29 -49 -68 -36 -21 -65 -43 -65 -48 0 -5 -7 -17 -16 -26 -14 -13
-14 -17 -3 -20 8 -3 22 -14 31 -26 14 -17 28 -21 85 -22 63 -1 94 -9 133 -33
8 -5 24 -12 35 -16 19 -6 19 -7 -3 -24 -14 -10 -21 -23 -17 -33 4 -9 1 -19 -4
-23 -16 -9 -3 -25 20 -25 11 0 27 -13 37 -29 9 -15 32 -40 50 -55 17 -15 32
-34 32 -42 0 -32 -201 -211 -257 -228 -31 -10 -18 -33 23 -40 19 -4 34 -11 34
-16 0 -6 5 -10 12 -10 6 0 20 -7 30 -17 10 -9 28 -21 40 -27 29 -15 35 -44 11
-53 -10 -4 -41 -22 -70 -41 -48 -31 -53 -33 -75 -19 -52 33 -81 31 -170 -15
-90 -47 -123 -68 -171 -111 -28 -25 -29 -27 -7 -16 23 11 24 10 9 -5 -18 -19
-14 -66 5 -66 7 0 17 -5 24 -12 9 -9 8 -16 -5 -30 -14 -16 -14 -18 0 -18 8 0
17 5 19 12 3 7 7 8 10 2 9 -14 -99 -136 -160 -179 -29 -20 -54 -35 -56 -34
-38 56 -38 57 -15 107 11 26 22 52 23 57 19 73 103 184 160 210 17 8 56 32 86
54 30 22 79 52 108 67 29 15 51 28 49 30 -6 6 -71 -18 -88 -32 -8 -8 -22 -14
-31 -14 -8 0 -25 -11 -38 -25 -15 -16 -30 -23 -41 -20 -10 3 -20 1 -24 -4 -4
-7 1 -8 12 -4 10 3 15 3 11 -2 -4 -4 -18 -9 -30 -10 -36 -4 -38 -4 -38 -15 0
-9 -55 -70 -64 -70 -15 0 36 72 88 124 61 63 124 95 215 110 27 5 32 3 27 -10
-5 -12 -1 -14 16 -8 21 6 21 5 9 -10 -13 -16 -12 -17 11 -11 19 5 29 2 36 -12
9 -14 15 -16 28 -7 10 6 19 15 21 20 4 12 -60 44 -88 44 -11 0 -31 7 -45 16
-23 16 -23 17 -7 31 10 8 13 12 8 9 -6 -2 -17 -1 -25 5 -12 7 -10 9 7 9 12 0
25 5 29 11 4 8 -1 9 -17 4 -22 -6 -22 -5 6 19 17 14 24 25 17 26 -7 0 -20 -9
-30 -21 -9 -11 -37 -31 -62 -44 -25 -13 -58 -35 -73 -49 -15 -14 -36 -26 -45
-26 -12 1 -10 4 8 15 14 7 25 17 25 22 0 17 16 32 30 27 7 -3 31 10 52 30 21
19 33 36 26 36 -6 0 -19 -7 -28 -16 -9 -9 -19 -13 -23 -9 -4 4 4 15 17 26 13
10 19 19 13 19 -6 0 -25 -12 -43 -27 l-33 -28 28 38 c30 40 33 40 101 20 18
-5 18 -4 6 11 -12 15 -10 21 19 51 19 19 29 35 23 35 -6 0 -16 -7 -24 -16 -30
-36 -99 -52 -99 -23 0 5 -9 9 -20 9 -25 0 -26 20 0 52 27 35 16 40 -32 13 -22
-12 -49 -20 -60 -17 -18 4 -17 7 9 35 22 23 24 27 7 19 -11 -6 -26 -18 -34
-26 -19 -24 -32 -19 -19 7 11 20 11 21 -5 8 -29 -24 -26 -7 14 74 22 44 40 84
40 89 0 5 -24 -27 -52 -72 -52 -81 -68 -96 -68 -67 0 8 -4 15 -10 15 -5 0 -10
-7 -10 -17 0 -9 -3 -13 -6 -10 -4 4 3 34 15 68 13 33 21 62 19 65 -4 4 -52
-86 -64 -121 -6 -18 -8 -18 -11 -2 -5 21 -19 22 -27 2 -4 -13 -10 -14 -26 -5
-25 13 -23 24 26 129 19 40 28 69 21 62 -8 -6 -29 -42 -46 -81 -32 -69 -60
-104 -49 -62 6 23 -7 31 -14 10 -3 -9 -12 -8 -31 5 -29 19 -33 37 -16 69 6 11
8 22 5 25 -3 4 -11 -8 -17 -25 -10 -28 -39 -46 -39 -24 0 4 -9 8 -20 8 -29 0
-25 -11 13 -35 51 -31 70 -57 64 -83 -11 -42 -107 -98 -107 -62 0 13 -3 14
-15 4 -8 -6 -18 -9 -24 -6 -5 4 -12 -3 -16 -14 -8 -24 -25 -27 -25 -4 0 8 4
12 10 9 8 -5 12 6 25 68 5 27 -12 20 -36 -15 -34 -49 -63 -63 -40 -20 12 23 4
55 -10 46 -6 -3 -7 -15 -4 -27 4 -15 3 -18 -3 -9 -6 10 -13 8 -27 -8 -16 -18
-17 -20 -2 -14 9 3 17 2 17 -4 0 -10 -37 -26 -54 -23 -5 1 -13 -4 -17 -11 -4
-7 -11 -9 -16 -5 -4 5 -3 11 3 15 6 4 21 25 33 47 11 22 38 60 58 85 32 37 34
41 11 25 -15 -11 -30 -28 -33 -38 -8 -21 -113 -102 -122 -94 -3 4 -1 13 6 21
9 11 8 15 -5 20 -21 8 -45 -11 -37 -30 3 -7 9 -11 14 -8 5 3 9 0 9 -6 0 -15
-36 -3 -74 23 -29 20 -29 20 -21 1 16 -38 11 -64 -18 -82 -24 -15 -29 -15 -37
-2 -8 13 -10 12 -10 -2 0 -10 -7 -18 -15 -18 -18 0 -19 12 -3 28 6 6 8 15 4
19 -4 4 -16 -3 -26 -17 -17 -23 -70 -39 -70 -21 0 5 9 20 21 35 32 41 6 31
-41 -16 -33 -33 -38 -43 -26 -48 15 -5 14 -7 -1 -22 -10 -9 -38 -38 -63 -64
-31 -33 -37 -43 -19 -31 26 15 28 15 60 -14 19 -17 43 -38 54 -46 15 -11 16
-16 7 -20 -20 -7 -137 -107 -212 -179 -36 -34 -93 -76 -126 -93 -76 -38 -93
-56 -76 -79 7 -10 15 -25 18 -34 5 -15 14 -17 48 -12 22 4 46 10 51 15 6 4 29
8 51 7 23 0 52 6 65 13 20 11 88 38 97 39 1 0 2 -6 2 -13 0 -8 11 -24 25 -37
l25 -23 40 28 c47 32 59 47 33 39 -10 -3 -2 5 17 17 19 13 37 27 38 31 2 5 10
8 17 8 7 0 15 3 17 8 2 4 26 28 55 55 29 26 49 47 45 47 -3 0 4 7 17 16 22 16
24 15 58 -19 l36 -35 -24 -12 c-13 -7 -36 -23 -50 -37 -14 -13 -30 -23 -35
-22 -23 5 -74 -30 -74 -51 0 -6 -4 -9 -9 -5 -5 3 -12 1 -16 -5 -3 -5 -11 -10
-17 -10 -6 0 -1 12 13 26 28 30 88 68 95 61 3 -3 21 9 39 26 45 41 36 47 -16
13 -56 -38 -58 -28 -2 17 27 22 39 37 30 37 -9 0 -48 -29 -86 -65 -37 -36 -74
-65 -80 -65 -6 0 -11 -5 -11 -10 0 -6 -12 -22 -27 -36 -20 -18 -22 -24 -10
-20 14 4 18 1 15 -12 -2 -9 -13 -18 -26 -20 -25 -4 -31 -32 -7 -32 9 0 29 10
45 22 24 17 35 20 57 12 l26 -9 -3 -275 c-2 -151 -3 -349 -1 -440 1 -91 3
-232 4 -315 l2 -150 33 -3 c17 -2 32 -7 32 -12 0 -4 -19 -34 -43 -66 -48 -65
-128 -141 -173 -164 -16 -8 -45 -27 -65 -43 -20 -15 -53 -33 -75 -39 -21 -6
-33 -13 -27 -15 42 -15 238 92 311 168 112 118 137 178 176 414 30 176 35 257
18 263 -7 2 -12 13 -12 25 0 16 3 18 9 9 11 -17 17 7 26 103 4 39 18 113 31
166 13 53 26 116 28 140 3 25 9 63 13 84 13 59 10 194 -6 245 -11 38 -37 68
-165 192 -83 81 -145 148 -138 148 19 0 92 -39 92 -50 0 -5 36 -34 79 -64 75
-53 110 -95 187 -222 10 -16 13 -10 19 39 4 33 3 81 -3 110 -6 29 -9 78 -9
110 1 31 0 57 -3 57 -3 0 -6 8 -6 18 -1 9 -5 30 -9 46 -11 41 12 25 33 -23 12
-27 17 -32 20 -18 2 10 -1 31 -8 47 -10 23 -9 33 5 57 9 15 14 20 11 11 -3 -9
-1 -18 4 -20 11 -4 31 -168 23 -182 -4 -5 -1 -6 5 -2 9 5 12 -7 12 -41 0 -26
3 -59 6 -73 5 -24 5 -24 -10 -6 -15 19 -16 19 -16 -10 0 -16 13 -55 29 -86 16
-32 25 -58 20 -58 -5 0 -9 5 -9 10 0 6 -4 10 -9 10 -5 0 -7 -10 -4 -22 11 -49
25 -88 32 -88 3 0 17 33 31 73 15 44 44 99 76 142 46 63 120 205 170 325 l19
45 7 -60 c5 -49 3 -68 -13 -100 l-19 -40 37 41 c21 23 49 44 63 47 l25 6 -22
-18 c-12 -10 -20 -20 -18 -23 3 -2 -10 -20 -27 -38 -17 -19 -49 -63 -70 -99
-22 -35 -48 -76 -57 -90 -10 -14 -29 -44 -43 -66 -13 -22 -36 -58 -50 -80 -14
-22 -38 -76 -54 -119 -15 -44 -30 -74 -32 -67 -2 6 3 27 12 45 20 42 21 57 2
30 -8 -11 -24 -49 -36 -84 -12 -35 -29 -78 -37 -95 -9 -16 -20 -46 -25 -65 -9
-38 -15 -60 -23 -87 -33 -115 -46 -199 -45 -293 0 -58 0 -112 0 -120 -5 -76
17 -230 33 -230 5 0 6 10 2 22 -3 13 -8 55 -11 93 -2 39 -6 76 -9 83 -2 6 0
12 5 12 6 0 10 -1 10 -2 1 -2 3 -39 7 -83 3 -44 9 -87 14 -96 5 -11 2 -23 -12
-38 -11 -11 -15 -21 -9 -21 5 0 10 -14 10 -30 0 -34 52 -218 75 -263 8 -17 15
-35 15 -41 0 -6 12 -20 27 -31 14 -11 34 -28 44 -38 14 -15 26 -17 70 -12 49
6 60 3 122 -30 43 -23 67 -31 67 -23 0 16 -32 45 -66 60 -13 6 -24 15 -24 19
0 13 -33 20 -41 7 -6 -9 -14 -7 -32 10 -13 12 -27 22 -33 22 -28 1 -111 111
-99 130 3 5 -1 20 -9 32 -8 13 -17 41 -21 63 l-6 40 14 -30 c8 -16 21 -47 30
-67 9 -21 21 -38 26 -38 11 0 33 -59 26 -70 -3 -4 3 -7 13 -6 10 0 16 -6 16
-16 -1 -10 2 -15 7 -12 5 3 18 -5 28 -18 11 -13 30 -24 43 -24 26 -2 131 -45
136 -57 2 -4 21 -10 43 -13 21 -4 36 -10 34 -14 -8 -12 18 -18 40 -9 20 7 20
8 -1 8 -11 1 -31 12 -44 26 -13 14 -28 25 -34 25 -19 0 -78 59 -71 70 10 17
36 11 33 -7 -2 -14 3 -18 22 -16 14 1 32 -1 40 -3 13 -4 13 -6 0 -14 -12 -8
-9 -10 10 -11 14 0 34 -3 45 -5 11 -3 49 -7 85 -10 36 -2 78 -9 94 -14 36 -12
36 -12 36 -1 0 5 -17 15 -37 22 -36 12 -36 12 -13 21 14 5 35 5 51 -1 33 -11
111 -3 103 11 -4 6 -22 8 -40 5 -19 -3 -36 -2 -39 3 -5 8 -116 4 -142 -5 -27
-9 -21 11 9 27 18 9 26 17 18 18 -8 0 -30 -9 -49 -21 -41 -25 -73 -19 -47 9
28 32 18 34 -29 6 -49 -29 -57 -20 -24 28 29 40 16 48 -16 9 -32 -37 -45 -39
-45 -7 0 32 -20 44 -27 17 -3 -12 -10 -21 -17 -22 -12 -1 -35 -5 -51 -10 -44
-13 -138 61 -169 133 -55 128 -69 177 -45 162 11 -7 149 129 149 147 0 5 11
32 24 61 46 103 67 252 53 388 -12 111 -19 156 -33 198 -8 23 -14 47 -14 52 0
11 63 50 81 50 8 0 40 -19 71 -42 53 -39 61 -42 130 -44 72 -3 108 10 108 40
1 34 17 38 61 16 35 -18 46 -20 62 -10 16 10 23 8 46 -14 21 -20 37 -26 74
-26 45 0 49 3 79 45 18 25 40 45 49 45 30 0 62 50 56 87 -3 18 -2 33 2 33 5 0
11 9 14 20 4 14 14 20 34 20 16 0 34 5 39 10 21 21 45 -18 80 -130 35 -117 65
-254 63 -300 -1 -35 -24 43 -39 129 -6 37 -15 73 -20 81 -14 21 -13 3 4 -83
58 -295 59 -298 53 -432 -3 -71 -10 -143 -16 -160 -6 -16 -12 -48 -15 -70 -11
-110 -57 -265 -78 -265 -5 0 -8 -8 -8 -18 0 -10 -7 -28 -16 -41 -9 -13 -30
-49 -46 -80 -57 -107 -204 -271 -245 -271 -10 0 -30 -12 -45 -25 -36 -31 -36
-43 -2 -16 37 29 52 26 24 -4 -16 -17 -34 -25 -56 -25 -17 0 -37 -7 -45 -16
-7 -8 -29 -24 -48 -33 -44 -22 -242 -85 -331 -105 -187 -42 -518 -66 -755 -55
-399 19 -801 26 -813 15 -5 -5 128 -11 151 -7 5 1 6 -3 2 -9 -4 -6 -71 -10
-177 -10 -158 0 -170 1 -163 18 3 9 8 336 11 726 2 390 6 711 9 714 3 3 6 -17
6 -44 1 -27 2 -71 4 -99 1 -27 3 -106 5 -175 1 -69 7 -134 11 -145 9 -21 4
239 -7 410 -4 65 -9 93 -15 80 -9 -25 -10 -24 -13 53 -2 34 -1 62 3 62 3 0 5
150 4 333 -8 1664 -15 2468 -23 2609 -15 252 -23 220 78 323 48 50 107 107
130 128 23 21 42 47 42 58 0 15 32 59 43 59 1 0 28 -4 59 -9z m884 -1167 c17
-3 63 -32 105 -67 122 -102 170 -230 118 -316 -11 -18 -18 -38 -16 -45 3 -6
12 8 22 32 10 24 20 40 24 37 3 -4 6 -40 6 -81 0 -52 -4 -74 -12 -74 -15 0
-17 -26 -3 -35 20 -12 11 -100 -13 -136 -20 -30 -31 -36 -87 -46 -36 -7 -84
-12 -108 -13 -41 0 -88 -16 -124 -42 -9 -7 -20 -10 -23 -6 -4 3 -8 109 -11
234 -8 399 -12 539 -14 549 -6 28 17 30 136 9z m-166 -1360 c0 -9 -95 -98
-127 -119 -24 -15 -43 -32 -43 -36 0 -5 -8 -9 -18 -9 -9 0 -22 -8 -29 -19 -28
-45 -110 -26 -150 35 -15 23 -14 26 11 49 27 25 81 32 92 13 3 -5 13 -4 22 1
9 5 38 11 63 15 33 5 55 16 79 39 24 24 42 33 66 33 19 0 34 -1 34 -2z m363
-268 c-2 -21 2 -26 13 -22 40 15 67 19 60 7 -4 -6 0 -18 8 -26 17 -17 11 -43
-20 -90 -31 -48 -77 -24 -89 46 -5 30 -3 44 6 50 11 7 10 9 -3 9 -18 0 -26 39
-11 54 16 16 38 -1 36 -28z m883 -8 c63 -53 96 -90 150 -169 68 -97 108 -179
88 -179 -9 0 -12 5 -9 10 3 6 -3 10 -14 10 -12 0 -21 5 -21 12 0 8 -3 9 -11 1
-7 -7 -23 -6 -53 5 -40 15 -45 14 -92 -8 -27 -13 -71 -38 -98 -57 -26 -19 -45
-30 -41 -24 3 6 2 11 -4 11 -5 0 -13 -4 -16 -10 -3 -5 -15 -10 -25 -10 -25 0
-36 -20 -19 -32 11 -8 10 -9 -4 -4 -22 7 -65 -14 -89 -43 -10 -12 -23 -21 -30
-21 -18 0 30 47 84 81 26 17 48 35 48 40 0 12 -76 -37 -120 -77 -19 -18 -64
-50 -99 -73 -71 -46 -69 -55 3 -15 49 28 60 24 24 -7 l-23 -20 23 11 c29 14
40 5 25 -18 -14 -23 -115 -20 -160 5 -49 26 -46 30 30 47 19 5 26 3 22 -4 -4
-6 3 -6 19 2 14 6 26 14 26 18 0 4 12 12 26 18 14 7 22 17 19 22 -4 6 -3 9 2
8 4 -2 26 8 48 22 72 46 120 72 139 75 18 4 100 64 146 107 14 13 38 32 55 42
17 11 24 21 17 24 -7 2 -9 9 -6 14 4 7 2 8 -5 4 -6 -4 -9 -12 -6 -17 4 -5 2
-9 -3 -9 -5 0 -33 -16 -62 -36 -48 -33 -100 -51 -100 -35 0 13 86 92 139 128
2 2 2 6 -2 9 -3 3 -16 -4 -29 -16 -46 -44 -130 -104 -148 -105 -11 -1 -17 2
-14 7 10 15 -7 8 -58 -27 -51 -34 -82 -39 -43 -7 19 16 40 52 30 52 -2 0 -27
-13 -55 -30 -66 -39 -77 -38 -46 3 34 44 33 51 -6 31 -17 -9 -44 -20 -59 -24
l-27 -8 24 35 c29 42 30 55 7 46 -25 -9 -53 -34 -48 -43 3 -4 -3 -14 -12 -21
-15 -12 -16 -12 -10 4 7 20 -3 23 -21 5 -9 -9 -12 -9 -12 0 0 11 46 45 75 56
6 2 7 7 3 11 -5 5 -16 1 -25 -7 -24 -21 -68 -35 -58 -18 5 8 3 11 -6 8 -8 -3
-13 -13 -13 -22 1 -9 -3 -15 -9 -13 -23 7 -17 26 16 46 19 11 51 37 72 56 20
20 56 45 79 57 44 22 120 33 109 15 -4 -6 0 -8 11 -4 9 4 14 3 11 -2 -3 -5 4
-13 16 -16 12 -4 24 -2 28 3 7 12 141 102 151 102 4 0 24 -15 46 -32z m-1526
16 c0 -3 -14 -19 -30 -36 -24 -24 -28 -33 -19 -44 6 -8 8 -14 3 -14 -5 0 -3
-4 3 -8 9 -5 -16 -32 -76 -80 -48 -40 -101 -87 -117 -105 -27 -29 -25 -28 21
8 28 21 64 50 80 65 43 38 133 100 146 100 5 0 7 5 3 12 -5 8 -2 9 9 5 9 -3
19 -2 22 3 4 6 12 10 18 10 16 -1 -14 -23 -93 -70 -36 -21 -76 -51 -90 -66
l-25 -28 35 25 c42 31 158 99 168 99 4 0 -24 -20 -63 -44 -38 -25 -81 -53 -95
-63 -14 -10 -30 -18 -37 -18 -7 0 -33 -17 -57 -38 -25 -20 -60 -40 -77 -44
l-32 -6 18 24 c17 22 190 173 218 191 6 4 8 10 5 14 -9 8 -114 -76 -222 -176
-75 -70 -112 -94 -65 -44 23 25 23 26 2 15 -12 -6 -25 -16 -28 -21 -9 -15 -35
-12 -35 5 0 15 13 25 91 76 26 16 78 58 115 93 150 138 204 181 204 160z m357
-339 c27 -5 33 -12 39 -42 9 -45 -33 -384 -51 -413 -17 -27 -25 -3 -25 71 0
44 -4 122 -10 172 -5 51 -11 122 -13 160 -2 57 -1 66 13 63 8 -3 29 -7 47 -11z
m753 12 c0 -1 -17 -21 -37 -44 -61 -65 -161 -150 -237 -200 -39 -26 -77 -53
-84 -60 -8 -7 -19 -10 -25 -6 -7 3 -9 3 -5 -2 11 -12 -11 -35 -28 -28 -8 3
-14 2 -13 -3 3 -20 -2 -32 -17 -38 -14 -5 -15 -4 -4 9 7 9 10 18 7 21 -7 7
-85 -75 -93 -98 -3 -10 -12 -18 -21 -18 -14 0 -15 2 -1 18 22 25 30 62 11 55
-13 -5 -13 -3 -1 18 7 13 16 26 19 29 3 3 11 20 18 38 8 17 18 32 23 32 5 0 2
-10 -6 -22 -9 -12 -16 -27 -16 -33 0 -5 5 -2 11 7 11 19 74 51 124 62 46 11
190 112 244 172 43 47 131 108 131 91z m513 -17 c7 0 20 -7 30 -14 16 -12 16
-16 1 -51 -8 -20 -13 -43 -10 -50 8 -22 -33 -57 -59 -51 -19 5 -22 3 -18 -14
3 -11 0 -20 -6 -20 -6 0 -17 -13 -25 -29 -16 -29 -45 -48 -55 -34 -3 4 -12 8
-18 9 -31 2 -35 5 -30 18 4 11 1 13 -11 10 -9 -3 -1 4 18 15 19 11 31 20 25
21 -12 0 93 100 141 132 19 13 34 27 34 31 0 14 -94 -44 -151 -93 -30 -26 -62
-45 -77 -45 l-24 -1 28 24 c16 13 41 35 56 48 14 13 32 24 40 24 10 0 10 2 0
8 -15 10 66 74 86 67 8 -3 19 -5 25 -5z m-791 -371 c26 -88 35 -245 18 -315
-11 -44 -22 -63 -53 -90 -50 -42 -161 -99 -180 -91 -10 4 -14 31 -16 112 -2
123 10 195 47 270 30 60 138 188 155 182 6 -2 19 -32 29 -68z"/>
<path d="M9337 6908 c-32 -19 -41 -20 -70 -10 -51 18 -73 15 -99 -17 -13 -15
-35 -36 -50 -46 -15 -9 -25 -21 -22 -26 8 -14 -9 -10 -30 6 -26 20 -45 19
-119 -6 -86 -29 -90 -34 -83 -92 5 -48 25 -76 54 -77 18 0 15 18 -8 47 -27 35
-26 71 3 82 98 37 132 39 164 9 l23 -21 23 21 c13 12 31 22 41 22 14 0 17 5
12 25 -9 35 26 69 62 60 15 -4 35 -14 44 -22 16 -15 20 -14 42 10 14 15 34 27
46 27 11 0 20 7 20 15 0 20 -8 19 -53 -7z"/>
<path d="M8757 6539 c-59 -48 -63 -63 -25 -98 26 -24 35 -28 51 -19 18 9 92 6
103 -5 11 -10 -56 -65 -116 -96 -36 -19 -68 -38 -71 -44 -4 -5 -4 -27 -2 -48
5 -31 2 -39 -10 -39 -9 0 -25 -13 -36 -28 -11 -17 -37 -34 -60 -40 -44 -14
-59 -39 -41 -72 9 -17 6 -24 -17 -45 -15 -13 -37 -25 -48 -25 -32 0 -65 -29
-65 -55 0 -15 16 -36 47 -62 l46 -40 -36 -48 c-54 -70 -50 -93 25 -148 37 -27
68 -35 68 -18 0 5 17 22 38 38 49 36 107 102 98 111 -4 3 -23 -11 -41 -33 -19
-22 -34 -34 -35 -27 0 8 15 29 34 48 19 19 30 34 26 34 -5 0 -12 -4 -15 -10
-3 -5 -11 -10 -17 -10 -6 0 -1 12 13 27 18 20 19 23 4 13 -38 -29 -48 -40 -33
-40 9 -1 7 -5 -5 -14 -10 -8 -16 -20 -15 -27 2 -7 -2 -13 -9 -14 -6 0 -15 -4
-20 -9 -5 -5 -3 -6 5 -2 20 12 14 -9 -9 -30 -19 -17 -22 -18 -33 -2 -8 11 -21
15 -37 12 -23 -5 -22 -4 8 24 17 17 33 39 35 49 2 10 7 21 12 24 5 4 7 12 5
18 -3 8 -14 2 -29 -14 -21 -23 -22 -25 -5 -19 14 5 10 -4 -15 -29 -61 -63 -82
-41 -30 31 16 23 39 46 50 52 11 6 20 19 20 28 0 10 5 23 12 30 8 8 8 12 1 12
-6 0 -16 -7 -23 -15 -18 -21 -33 -7 -25 24 6 23 5 24 -7 8 -12 -17 -15 -17
-46 -2 -39 20 -41 32 -4 45 15 6 35 14 44 20 10 5 23 7 31 4 8 -3 20 2 27 11
10 12 10 15 -4 15 -9 0 -16 5 -16 10 0 13 27 13 35 0 4 -6 11 -8 16 -4 6 4 6
11 -1 19 -6 8 -13 30 -16 49 -4 35 -4 36 31 36 29 0 37 5 45 25 11 29 57 52
74 35 12 -12 66 -13 66 -1 0 5 -14 14 -30 20 -29 10 -57 52 -39 59 5 2 9 9 9
16 0 21 55 66 81 66 27 -1 59 -21 59 -39 0 -14 17 -15 25 -1 3 6 14 10 23 10
10 0 25 13 34 28 10 16 48 61 86 101 37 40 65 74 60 77 -13 8 -40 -16 -106
-93 -34 -39 -67 -75 -73 -78 -19 -12 -21 3 -4 29 23 34 10 33 -20 -1 -18 -21
-26 -25 -35 -16 -9 8 -4 20 21 47 33 37 55 47 45 21 -3 -8 0 -15 7 -15 13 1
98 102 109 131 11 30 -6 22 -32 -13 -13 -18 -35 -42 -49 -53 -27 -21 -76 -31
-65 -14 3 6 11 8 18 6 6 -3 19 6 29 19 14 19 15 23 2 18 -8 -3 -15 -10 -15
-16 0 -5 -9 -6 -20 -3 -12 4 -27 1 -35 -5 -16 -13 -55 -5 -55 12 0 6 -11 3
-25 -6 -30 -20 -32 -8 -4 28 30 38 9 32 -23 -6 -22 -28 -29 -31 -40 -20 -11
12 -5 21 37 58 38 34 45 44 30 44 -11 0 -37 -14 -58 -31z"/>
<path d="M8830 5773 c-8 -4 -37 -26 -65 -50 -27 -23 -56 -43 -64 -43 -12 0
-51 -29 -119 -90 -24 -21 -22 -40 3 -40 9 0 12 6 8 16 -5 14 -1 16 28 10 19
-4 42 -7 52 -7 21 0 22 -12 2 -29 -12 -10 -12 -15 5 -33 11 -11 20 -27 20 -34
0 -19 18 -16 42 7 12 11 25 20 30 20 11 0 10 -18 -2 -25 -6 -4 -8 -9 -6 -13 2
-4 -6 -8 -18 -8 -12 -1 -39 -14 -61 -28 -21 -15 -48 -26 -60 -24 -28 4 -31 42
-6 77 23 32 26 41 12 41 -18 0 -53 -70 -47 -94 5 -20 -3 -31 -43 -65 -53 -45
-95 -126 -73 -140 8 -5 5 -12 -8 -24 -11 -9 -20 -21 -20 -26 0 -18 33 -35 61
-33 23 3 31 -2 40 -22 7 -14 19 -26 26 -26 20 0 116 31 131 43 9 7 12 4 12
-10 0 -10 7 -28 15 -40 16 -23 16 -24 -34 -50 -13 -7 -30 -13 -37 -13 -8 0
-14 -7 -14 -15 0 -21 20 -19 44 4 12 11 35 23 51 26 l30 7 -34 -29 c-19 -15
-46 -30 -60 -33 -23 -5 -26 -10 -23 -40 5 -41 48 -88 66 -70 8 8 7 13 -2 19
-9 5 -5 11 14 21 32 18 206 200 201 213 -1 5 -36 -28 -76 -72 -47 -53 -89 -89
-118 -102 -25 -11 -47 -18 -49 -16 -10 10 10 38 40 56 50 31 73 60 57 71 -8 4
-11 15 -8 25 4 9 3 14 -3 10 -6 -3 -10 0 -10 9 0 8 -6 16 -12 19 -9 3 -5 10
10 22 50 37 -8 47 -84 15 -62 -27 -109 -24 -108 8 1 25 -18 29 -36 7 -18 -21
-52 -20 -48 3 3 11 12 16 26 15 14 -2 21 1 17 7 -4 6 -1 18 6 26 10 12 9 13
-6 8 -25 -10 -36 15 -20 45 24 47 91 93 165 116 l25 8 -20 -23 -20 -23 25 8
c14 4 34 16 46 26 11 11 26 19 32 19 7 0 12 5 12 10 0 6 5 10 11 10 6 0 1 -13
-11 -30 -25 -36 -22 -37 25 -9 27 16 33 24 25 34 -16 20 -18 84 -3 96 7 7 13
18 13 27 0 8 7 24 17 34 18 20 4 25 -15 6 -9 -9 -12 -9 -12 1 0 11 128 154
155 173 7 5 7 8 -1 8 -17 0 -158 -134 -174 -166 -22 -45 -30 -53 -45 -47 -19
7 17 56 102 141 34 34 56 62 49 62 -7 0 -52 -40 -99 -90 -47 -49 -93 -90 -102
-90 -14 0 -15 3 -5 15 7 8 9 15 5 15 -5 0 0 10 11 21 l19 22 -32 -17 c-18 -9
-33 -12 -33 -7 0 12 49 51 63 51 5 0 28 15 51 33 23 19 49 36 59 40 9 3 17 11
17 17 0 11 -7 12 -30 3z"/>
<path d="M9551 3680 c-1 -41 -8 -100 -16 -130 -9 -30 -18 -70 -20 -89 -3 -18
-8 -38 -12 -45 -4 -6 -8 -13 -8 -16 0 -3 -6 -14 -13 -25 -8 -13 -15 -16 -18
-8 -5 10 -84 -65 -84 -81 0 -15 22 -4 48 24 35 36 42 37 35 8 -3 -13 -31 -46
-62 -75 -43 -40 -51 -52 -36 -52 11 0 46 20 79 44 32 24 62 42 67 40 4 -3 29
6 55 20 26 14 50 22 53 18 3 -5 47 -29 97 -55 88 -46 134 -59 134 -38 0 6 -9
10 -21 10 -23 0 -55 15 -81 40 -18 17 -49 34 -79 43 -9 3 -19 21 -23 41 -8 40
-21 47 -29 16 -7 -29 -37 -26 -30 3 4 17 2 19 -6 7 -5 -8 -11 -12 -13 -10 -2
3 -1 61 3 130 4 69 3 143 -2 165 -5 22 -10 51 -12 65 -3 14 -5 -9 -6 -50z"/>
<path d="M9397 3430 c-64 -74 -75 -83 -195 -143 -70 -35 -155 -72 -190 -83
-34 -10 -62 -22 -62 -26 0 -5 3 -8 8 -8 14 1 123 39 150 53 61 33 173 68 204
65 29 -3 34 1 43 27 5 17 31 57 56 90 25 33 48 70 51 83 4 12 5 22 5 22 -1 0
-33 -36 -70 -80z"/>
<path d="M10528 5085 c-37 -35 -40 -47 -5 -20 11 7 25 11 33 8 10 -4 4 -11
-18 -22 -18 -9 -33 -22 -33 -28 0 -7 -4 -12 -10 -10 -5 1 -9 8 -9 15 1 6 -6
12 -17 12 -21 0 -34 -17 -17 -22 17 -6 13 -74 -6 -103 -31 -48 -15 -45 62 11
85 62 142 113 142 127 0 4 -10 7 -22 5 -13 -2 -23 -9 -23 -16 0 -14 -101 -93
-109 -85 -7 8 17 43 30 43 6 0 17 7 24 15 10 12 10 15 -1 15 -8 0 -3 6 11 13
43 23 81 50 76 54 -3 3 -15 -2 -28 -11 -28 -20 -44 -21 -28 -1 9 11 9 15 1 15
-7 0 -9 5 -6 10 13 21 -12 8 -47 -25z"/>
<path d="M12475 7930 c-77 -3 -138 -7 -135 -9 3 -2 39 -9 80 -16 105 -19 368
-15 380 5 22 34 29 33 -325 20z"/>
<path d="M12650 7225 c-73 -18 -230 -93 -230 -110 0 -7 -19 -25 -42 -40 -24
-15 -54 -37 -68 -49 -22 -19 -22 -18 4 17 l29 39 -26 -14 c-14 -7 -36 -27 -49
-45 -13 -17 -45 -60 -72 -95 -73 -95 -142 -244 -167 -363 -30 -142 -30 -340 1
-445 12 -41 23 -86 25 -100 2 -24 60 -147 127 -267 17 -32 50 -94 73 -138 45
-88 103 -194 175 -325 26 -47 73 -134 105 -193 l57 -108 -17 -102 c-9 -56 -23
-109 -32 -119 -11 -12 -11 -18 -3 -23 13 -8 11 -31 -10 -129 -7 -34 -7 -53 0
-60 5 -5 10 -21 11 -35 0 -26 1 -26 11 -4 10 20 18 21 99 21 49 -1 92 2 96 6
3 3 26 6 50 6 40 0 43 -1 33 -20 -9 -18 -7 -19 23 -18 39 1 60 -9 51 -24 -5
-8 4 -9 29 -5 21 3 37 2 37 -4 0 -5 5 -9 10 -9 6 0 10 6 10 13 0 9 12 14 30
15 17 0 47 6 68 13 45 15 92 19 92 7 0 -4 -6 -8 -12 -9 -7 0 -5 -4 4 -7 24
-10 108 -2 108 10 0 5 -13 7 -29 5 -23 -4 -37 2 -62 24 -32 28 -32 29 -8 29
31 0 53 -15 45 -29 -7 -11 20 -14 102 -11 39 1 58 -13 30 -23 -7 -2 34 -2 92
1 120 5 154 18 53 21 -85 2 -134 11 -127 22 3 5 19 9 35 9 17 0 28 4 25 9 -3
5 15 5 40 0 59 -11 99 -3 83 17 -16 19 -238 11 -251 -8 -6 -10 -8 -10 -8 0 0
6 -9 12 -19 12 -10 0 -28 8 -40 18 -17 14 -25 45 -45 182 -14 91 -27 172 -31
181 -4 10 51 129 143 310 82 162 153 305 157 319 4 14 32 76 61 138 30 62 54
114 54 117 0 2 11 28 24 57 93 209 135 391 122 534 -14 154 -81 328 -181 469
-54 77 -167 183 -214 202 -68 27 -141 65 -141 75 0 5 -6 8 -12 7 -13 -2 -33 4
-78 24 -40 17 -384 19 -450 2z m464 -64 c142 -41 266 -104 266 -135 0 -6 -20
-17 -44 -24 -40 -10 -49 -9 -86 10 -22 12 -71 46 -108 76 l-67 54 55 -53 c30
-29 74 -65 98 -80 24 -15 39 -29 35 -32 -4 -3 -111 -34 -238 -71 -126 -36
-275 -84 -330 -106 l-100 -40 -20 27 c-18 24 -137 164 -171 202 -8 8 -16 12
-19 9 -3 -3 37 -56 90 -118 52 -63 95 -117 95 -122 0 -18 -21 -5 -101 60 -46
37 -105 81 -131 97 -27 17 -48 33 -48 37 0 16 140 111 225 152 208 102 386
118 599 57z m343 -211 c21 -22 39 -44 39 -50 1 -5 2 -16 3 -22 1 -7 11 -24 22
-38 11 -14 18 -19 14 -12 -3 6 -3 12 2 12 4 0 13 -11 20 -25 8 -19 8 -25 0
-25 -7 0 1 -11 17 -23 16 -13 30 -34 31 -45 1 -17 -1 -19 -12 -11 -29 24 -13
-9 39 -82 20 -28 36 -139 32 -218 -1 -31 -3 -92 -4 -136 -1 -44 -6 -95 -12
-113 l-10 -34 -28 27 c-31 30 -135 232 -176 342 -14 37 -59 153 -101 256 -41
104 -73 191 -70 194 8 7 120 42 139 42 10 1 35 -17 55 -39z m-240 -62 c-3 -29
-11 -128 -18 -220 -7 -93 -16 -168 -20 -168 -3 0 -22 24 -42 54 -91 137 -231
193 -382 152 -60 -16 -132 -51 -163 -80 -27 -24 -77 -115 -74 -133 2 -6 -2
-14 -8 -18 -5 -3 -10 -15 -10 -25 0 -10 -5 -22 -10 -25 -20 -12 18 120 60 211
33 72 58 94 148 128 106 40 496 174 511 175 11 1 12 -11 8 -51z m-882 15 c17
-16 75 -59 128 -97 54 -39 97 -72 97 -74 0 -2 -16 -31 -36 -63 -41 -69 -85
-185 -118 -313 -26 -102 -1 -73 -224 -257 -41 -34 -78 -57 -82 -53 -5 5 -10
25 -12 44 -2 19 -5 37 -8 40 -32 29 -37 274 -7 365 9 28 30 93 47 145 17 52
56 139 86 193 62 109 74 116 129 70z m924 -51 c25 -50 82 -188 142 -345 26
-70 68 -166 94 -214 25 -47 44 -88 42 -89 -2 -2 -49 28 -106 67 -56 38 -132
86 -168 106 l-65 36 6 61 c15 135 25 275 25 344 1 39 3 72 6 72 2 0 13 -17 24
-38z m-280 -217 c97 -48 171 -168 171 -275 0 -136 -117 -281 -251 -311 -91
-21 -220 55 -270 159 -19 38 -23 63 -23 134 1 78 4 94 34 154 35 72 87 129
135 150 51 23 149 17 204 -11z m-489 -277 c-2 -113 41 -228 112 -299 95 -94
269 -109 390 -33 46 29 56 18 19 -22 -43 -46 -151 -214 -138 -214 3 0 23 26
44 58 52 78 118 165 181 241 30 35 62 82 71 105 20 45 36 128 32 164 -1 13 3
22 11 22 7 0 61 -31 118 -68 58 -38 138 -90 178 -115 39 -26 72 -52 72 -59 0
-7 -98 -62 -217 -122 -120 -60 -288 -151 -375 -202 -86 -52 -161 -94 -167 -94
-6 0 -33 35 -60 78 -28 42 -75 102 -105 132 -31 30 -56 61 -56 69 0 7 -8 20
-17 27 -14 10 -15 13 -3 14 9 0 1 14 -21 38 -37 39 -109 135 -109 146 0 3 7 6
16 6 13 0 14 3 4 15 -6 8 -8 20 -4 26 4 7 6 41 5 76 -2 41 1 63 9 63 7 0 11
-20 10 -52z m-31 -210 c97 -140 144 -204 205 -273 34 -38 72 -85 85 -104 21
-30 22 -33 5 -26 -10 4 -41 16 -69 25 -49 18 -334 155 -305 147 8 -2 26 -7 40
-11 24 -6 24 -6 -3 9 -15 9 -36 14 -46 10 -14 -4 -224 74 -239 89 -2 2 29 28
68 57 38 30 98 75 133 101 34 26 65 48 69 48 4 0 30 -33 57 -72z m1153 -80
c-5 -7 -22 -42 -37 -78 -61 -146 -222 -473 -256 -522 -11 -14 -19 -29 -19 -34
0 -4 -12 -32 -26 -63 -136 -289 -191 -392 -223 -418 -12 -11 -13 -13 0 -13 9
0 5 -8 -11 -20 -14 -11 -19 -20 -12 -20 16 0 16 -20 -1 -20 -12 0 -22 -15 -52
-80 -9 -19 -24 -52 -33 -72 -9 -21 -20 -38 -24 -38 -3 0 -4 -10 0 -22 3 -14 1
-19 -6 -14 -7 4 -10 2 -6 -7 3 -8 -1 -19 -8 -25 -11 -8 -13 37 -13 246 0 142
-4 262 -8 269 -21 30 12 134 68 208 12 17 30 46 39 65 l17 35 -30 -35 c-17
-19 -36 -47 -43 -62 -7 -16 -18 -28 -24 -28 -6 0 -15 -15 -18 -32 -12 -58 -29
-5 -24 78 2 41 0 75 -4 76 -5 2 -4 25 1 51 4 26 5 50 1 52 -5 3 -8 32 -8 66 0
59 17 99 42 99 5 0 23 10 40 23 35 26 93 60 216 125 47 24 95 51 107 58 12 8
31 14 42 14 10 0 22 7 25 16 4 9 13 14 21 10 8 -3 15 -1 15 3 0 5 18 12 39 16
22 3 47 15 57 26 9 10 23 19 31 19 7 0 13 3 13 8 0 10 62 37 79 34 7 -2 10 1
6 7 -3 7 3 11 16 11 16 0 19 -3 11 -12z m-1432 -98 c44 -22 313 -141 468 -206
179 -76 167 -66 167 -126 0 -29 8 -199 18 -378 9 -179 19 -380 20 -447 3 -118
2 -122 -18 -119 -13 2 -19 10 -17 21 2 9 -8 34 -22 56 -14 21 -26 41 -26 45 0
3 -15 29 -34 57 -19 29 -80 133 -136 232 -195 342 -224 391 -280 485 -5 8 -33
65 -63 125 -30 61 -73 145 -96 188 -23 43 -41 80 -41 82 0 10 22 4 60 -15z"/>
<path d="M13810 5880 c6 -10 9 -23 8 -27 -6 -21 15 -156 27 -181 8 -15 12 -35
9 -44 -3 -10 -1 -18 4 -18 5 0 9 -20 10 -45 0 -24 7 -58 16 -76 9 -17 13 -35
10 -40 -3 -5 2 -23 10 -41 12 -28 28 -85 27 -103 0 -2 5 -19 10 -37 5 -18 12
-49 15 -68 3 -19 10 -42 14 -50 7 -13 16 -54 36 -170 3 -14 9 -40 14 -59 5
-19 8 -37 5 -39 -9 -9 -25 11 -25 30 0 12 -3 19 -6 16 -7 -7 18 -118 27 -118
3 0 6 -12 7 -27 1 -51 43 -238 59 -261 8 -13 12 -31 8 -40 -3 -8 -1 -18 4 -21
5 -4 12 -20 15 -36 2 -17 5 -30 6 -30 2 0 10 -34 15 -61 1 -12 13 -59 25 -105
12 -46 23 -95 25 -109 2 -14 11 -56 19 -95 9 -38 21 -95 27 -125 6 -30 19 -86
29 -125 10 -38 28 -115 40 -170 22 -97 32 -142 100 -440 27 -118 45 -187 87
-329 4 -12 2 -17 -5 -12 -8 5 -482 8 -742 4 -36 0 -104 0 -151 1 l-86 1 -23
123 c-12 67 -29 150 -36 185 -8 35 -14 82 -14 106 0 23 -3 46 -6 49 -4 4 -8
21 -9 39 -4 66 -25 196 -50 308 -14 63 -25 132 -25 152 0 40 -14 56 -33 40
-16 -14 -409 7 -419 22 -5 7 -8 6 -8 -2 0 -7 -5 -10 -11 -6 -19 11 -162 15
-204 5 l-40 -9 50 -2 c28 -1 68 -2 90 -1 34 0 36 -1 15 -8 -41 -13 -150 -13
-166 0 -10 8 -21 9 -41 0 -16 -6 -53 -12 -84 -13 -34 -2 -62 -9 -70 -18 -8 -8
-13 -16 -12 -17 1 -2 1 -8 -2 -15 -2 -7 -15 -52 -28 -99 -14 -47 -36 -117 -50
-155 -45 -124 -121 -444 -107 -444 5 0 11 15 15 33 15 74 38 146 45 142 8 -5
-5 -67 -38 -188 -8 -32 -15 -65 -14 -75 1 -9 -4 -50 -10 -89 l-11 -73 -81 1
c-45 0 -108 5 -141 10 -33 5 -68 9 -77 10 -10 0 -20 3 -22 7 -2 4 -144 6 -315
6 -171 -1 -313 2 -316 6 -2 4 10 68 29 141 18 74 36 152 40 174 4 22 13 60 20
85 18 58 66 267 70 300 2 24 6 37 26 87 6 14 5 25 -1 29 -7 4 -8 9 -1 13 14 9
25 51 14 51 -6 0 -8 9 -5 20 3 11 8 18 12 16 3 -2 6 11 7 29 1 44 22 167 39
230 13 48 31 128 39 170 10 51 29 110 43 132 10 14 11 23 4 23 -6 0 -11 -4
-11 -10 0 -5 -4 -10 -9 -10 -5 0 -7 9 -4 19 3 11 11 17 18 15 16 -7 37 29 29
49 -3 8 0 18 5 22 6 3 9 10 7 14 -3 4 4 43 14 86 14 58 16 82 8 92 -7 9 -7 13
1 13 7 0 10 4 7 9 -4 5 -2 11 3 13 5 1 11 21 13 43 2 22 7 45 10 50 3 6 5 22
4 38 -1 16 3 27 12 27 9 0 10 5 3 17 -6 12 -5 20 4 28 8 5 17 31 20 58 3 26 9
55 14 65 5 9 15 55 22 102 6 47 16 92 20 100 5 8 17 60 29 115 11 55 29 138
41 185 22 92 23 101 34 205 4 39 10 72 14 75 8 6 14 70 7 70 -13 0 -79 -263
-147 -590 -12 -58 -37 -166 -56 -240 -19 -74 -40 -156 -45 -182 -6 -27 -14
-48 -18 -48 -10 0 -8 20 3 38 5 6 6 12 4 12 -3 0 -1 16 3 35 12 54 -5 42 -19
-13 -20 -79 -20 -106 -2 -114 12 -5 11 -7 -6 -7 -13 -1 -23 -6 -23 -12 0 -6 7
-9 15 -5 8 3 15 1 15 -4 0 -5 -9 -12 -20 -15 -11 -4 -18 -10 -15 -14 2 -5 0
-22 -5 -40 -6 -21 -5 -31 2 -31 7 0 7 -4 1 -12 -5 -7 -11 -32 -12 -56 -1 -23
-18 -106 -38 -185 -19 -78 -37 -155 -40 -172 -2 -16 -8 -41 -13 -55 -5 -14
-16 -63 -25 -110 -9 -47 -20 -96 -24 -110 -5 -14 -14 -52 -21 -85 -17 -81 -38
-154 -39 -133 -1 10 3 37 8 60 6 24 21 93 35 153 70 314 82 380 92 508 3 42 2
77 -3 77 -5 0 -9 -8 -9 -17 -2 -72 -25 -220 -43 -278 -14 -44 -13 -21 4 80 17
106 19 155 5 155 -5 0 -10 5 -10 10 0 6 6 10 13 10 8 0 12 16 11 48 -2 67 -2
68 -19 46 -8 -10 -15 -14 -15 -7 0 6 7 18 15 27 8 8 15 25 15 38 0 36 32 192
41 203 5 5 9 -1 10 -15 2 -32 2 -27 -5 -90 -6 -54 -6 -54 7 -20 20 53 21 126
2 133 -20 8 -20 27 1 27 8 0 12 5 9 11 -4 6 1 16 11 24 14 10 18 25 16 71 -2
71 12 164 43 299 13 55 33 150 44 210 55 297 62 346 53 361 -14 25 -19 11 -62
-183 -66 -290 -79 -359 -95 -477 -12 -96 -53 -284 -85 -396 -6 -19 -19 -73
-30 -120 -11 -47 -25 -98 -30 -115 -5 -16 -16 -66 -25 -110 -8 -44 -38 -174
-65 -290 -27 -115 -60 -259 -73 -320 -13 -60 -38 -166 -55 -235 -58 -233 -76
-333 -77 -425 -1 -103 -11 -159 -31 -176 -11 -9 -11 -15 -3 -25 15 -18 29 -9
29 19 1 12 7 33 14 46 13 24 14 24 21 -20 4 -24 14 -56 21 -71 8 -15 14 -40
14 -56 0 -16 7 -35 15 -42 8 -7 15 -19 15 -26 0 -7 12 -21 26 -31 24 -15 59
-18 129 -8 11 1 63 4 115 5 67 2 86 5 65 10 -22 6 -25 8 -10 10 11 1 23 2 27
1 4 0 50 -1 103 -2 55 0 95 -5 95 -11 0 -6 78 -7 225 -2 211 6 225 6 231 -11
7 -17 8 -16 16 4 7 19 13 21 42 16 20 -4 36 -2 40 4 5 7 -4 11 -24 11 -30 0
-31 1 -24 35 3 19 12 51 19 72 l13 38 89 -3 c48 -2 102 -5 118 -8 112 -19 385
-14 385 7 0 5 -51 7 -115 6 -64 -2 -118 0 -121 5 -3 4 17 8 45 8 27 0 53 5 56
11 5 7 -19 8 -77 3 -102 -8 -106 -8 -250 -6 l-118 2 0 29 c0 35 21 54 52 48
20 -4 20 -4 -4 -6 -54 -2 -27 -19 50 -31 83 -12 276 -9 512 11 343 28 342 28
165 22 -93 -3 -206 -7 -250 -8 -181 -7 -374 -5 -396 4 -16 7 44 10 191 11 118
0 237 2 263 4 83 6 66 18 -23 16 -214 -5 -451 0 -445 10 3 6 52 10 111 10 88
0 104 2 104 16 0 10 6 14 18 10 9 -3 31 -6 47 -6 59 -4 388 0 384 4 -15 15
-673 30 -664 15 4 -5 11 -7 16 -4 5 4 9 2 9 -4 0 -5 -20 -13 -45 -17 -41 -6
-44 -8 -28 -20 16 -12 15 -13 -13 -11 -26 2 -30 5 -26 25 2 12 9 22 14 22 7 0
7 4 0 13 -5 6 -9 23 -7 37 12 95 16 115 25 124 6 6 10 24 10 41 0 16 5 46 10
65 6 19 13 69 16 110 3 41 9 80 14 85 4 6 15 49 25 97 l18 87 36 -4 c20 -2
172 -4 339 -4 l302 -1 0 -24 c0 -33 20 -86 33 -86 6 0 3 -6 -7 -13 -15 -11
-16 -17 -7 -35 6 -11 11 -31 11 -44 0 -16 3 -19 9 -10 7 11 9 11 14 -2 4 -9 2
-16 -3 -16 -6 0 -10 -12 -9 -27 l1 -28 8 25 8 25 1 -27 c1 -16 -4 -28 -10 -28
-7 0 -8 -7 -4 -17 7 -21 30 -140 50 -260 15 -91 15 -91 63 -150 24 -30 32 -48
27 -63 -4 -11 -2 -20 4 -20 6 0 30 -20 53 -45 23 -25 46 -45 49 -45 10 0 -5
61 -22 89 -8 13 -32 44 -53 68 -44 48 -90 123 -76 123 4 0 10 -7 14 -15 3 -8
11 -15 19 -15 9 0 12 13 10 47 -3 46 -2 47 13 24 9 -13 18 -45 20 -73 3 -27
11 -62 19 -76 17 -32 19 -21 5 29 -6 20 -12 63 -14 95 -2 33 -7 79 -11 104 -4
25 -4 41 1 37 7 -7 36 -135 49 -218 3 -20 10 -51 16 -70 14 -43 27 -111 33
-166 4 -41 3 -43 -21 -43 -15 0 -23 -3 -20 -7 10 -10 51 -14 162 -17 55 -2
105 -4 110 -6 6 -2 38 0 73 4 94 12 753 -4 757 -18 2 -6 14 -44 26 -84 12 -40
25 -75 29 -77 8 -5 -6 66 -20 100 -4 11 -8 35 -9 53 -1 28 -38 190 -71 314 -6
20 -10 40 -9 45 1 4 -3 22 -10 38 -15 37 -43 151 -75 315 -24 117 -69 322
-101 453 -8 32 -11 65 -8 73 3 8 -4 33 -15 57 -11 23 -27 80 -37 127 -9 47
-21 107 -27 135 -7 35 -7 50 1 53 14 5 14 29 1 37 -6 4 -7 -1 -3 -12 4 -12 3
-15 -4 -8 -16 14 -28 99 -14 91 14 -9 14 -4 0 31 -6 15 -13 45 -15 67 -2 21
-7 43 -12 50 -15 24 -30 101 -20 107 6 4 4 9 -5 12 -13 5 -17 23 -18 80 0 9
-5 17 -11 17 -5 0 -8 7 -5 15 4 8 2 17 -2 20 -5 2 -12 26 -17 52 -4 27 -9 55
-11 63 -2 8 -5 26 -7 40 -2 14 -5 25 -6 25 -1 0 -4 14 -6 30 -9 57 -46 210
-89 370 -24 88 -59 222 -77 297 -27 113 -36 138 -51 138 -14 0 -16 -4 -7 -20z"/>
<path d="M15930 2880 c-25 -15 1 -30 71 -40 85 -13 572 -13 564 -1 -3 5 -18 8
-33 7 -15 -2 -40 3 -55 11 -22 11 -36 12 -58 4 -19 -6 -31 -6 -35 0 -4 7 -10
7 -18 0 -7 -6 -34 -8 -62 -5 -27 2 -57 4 -66 4 -97 -1 -137 3 -135 14 3 14
-152 20 -173 6z"/>
<path d="M12617 2873 c-5 -9 -29 -12 -65 -11 -96 3 -219 -4 -233 -13 -10 -6
-4 -9 19 -9 17 0 32 -5 32 -11 0 -13 411 -5 572 10 4 1 5 7 2 14 -3 9 -16 12
-37 9 -18 -3 -78 -6 -134 -7 -90 -3 -103 -1 -103 14 -1 14 -2 14 -14 -1 -7
-10 -16 -18 -19 -18 -3 0 -7 8 -9 18 -3 12 -6 14 -11 5z"/>
</g>
</svg>
