<?xml version="1.0" standalone="no"?>
<!DOCTYPE svg PUBLIC "-//W3C//DTD SVG 20010904//EN"
 "http://www.w3.org/TR/2001/REC-SVG-20010904/DTD/svg10.dtd">
<svg version="1.0" xmlns="http://www.w3.org/2000/svg"
 width="1928.000000pt" height="1074.000000pt" viewBox="0 0 1928.000000 1074.000000"
 preserveAspectRatio="xMidYMid meet">
<metadata>
Created by potrace 1.16, written by Peter Selinger 2001-2019
</metadata>
<g transform="translate(0.000000,1074.000000) scale(0.100000,-0.100000)"
fill="#000000" stroke="none">
<path d="M14560 8014 c0 -5 9 -20 20 -34 28 -35 25 -48 -12 -53 -32 -4 -32 -4
5 -5 l38 -2 -6 -47 c-8 -82 -16 -1131 -16 -2245 0 -712 -3 -1068 -10 -1068 -6
0 -7 -5 -4 -10 18 -29 22 -315 5 -335 -7 -8 -8 -15 -2 -15 6 0 10 -106 11
-297 3 -549 3 -738 2 -749 -1 -14 -35 -11 -55 5 -13 11 -16 11 -16 -2 0 -9 5
-19 10 -22 6 -3 10 -15 10 -26 0 -10 5 -19 10 -19 6 0 10 9 10 20 0 23 4 24
31 9 11 -6 18 -17 15 -24 -3 -9 0 -12 8 -9 8 3 17 1 21 -5 3 -6 0 -13 -7 -16
-23 -9 -18 -42 9 -56 37 -20 114 -99 108 -110 -3 -5 0 -6 8 -3 10 3 27 -15 53
-58 36 -58 39 -69 43 -153 4 -87 17 -90 20 -5 1 19 5 51 11 70 l10 35 155 -3
c88 -2 153 -7 150 -12 -6 -9 232 -5 335 6 63 7 214 13 375 14 71 1 103 4 90
10 -11 5 -42 9 -70 9 -55 1 -68 7 -78 34 -8 20 -27 14 -27 -9 0 -8 -10 -14
-22 -14 -17 0 -19 3 -10 12 7 7 12 42 12 85 0 84 -14 78 135 62 149 -15 195
-18 195 -9 0 4 -34 10 -76 12 -42 3 -79 10 -83 16 -4 7 -35 9 -84 7 -81 -5
-97 3 -83 40 4 13 10 14 26 5 11 -6 57 -11 103 -11 46 0 89 -4 97 -9 11 -7 7
-10 -14 -10 -16 0 -26 -3 -23 -6 4 -4 89 -8 189 -10 101 -2 210 -7 244 -12 60
-8 60 -8 56 16 -4 22 -3 23 17 13 11 -7 21 -15 21 -19 0 -4 43 -45 95 -91 52
-46 95 -87 95 -92 0 -5 -27 -9 -60 -9 -33 0 -60 -4 -60 -10 0 -11 7 -12 95
-14 l59 -1 49 -98 c27 -54 52 -96 54 -93 3 2 -13 43 -35 89 -22 47 -38 88 -35
91 11 11 41 -14 83 -69 23 -30 45 -53 48 -50 3 3 -8 22 -24 43 -56 69 -62 66
87 59 74 -4 187 -7 252 -7 l117 0 0 -67 c0 -83 18 -74 22 12 l3 60 39 -3 c24
-2 42 1 46 9 5 7 38 14 84 17 l76 4 1 -94 c1 -51 1 -97 0 -101 -1 -5 3 -6 9
-2 6 3 10 45 10 95 0 54 4 91 11 96 6 3 40 6 75 6 72 0 99 17 32 20 -24 1 -50
2 -58 4 -8 1 -23 2 -32 3 -15 1 -17 10 -12 74 9 121 10 737 1 737 -5 0 -5 -4
-2 -10 3 -5 1 -10 -4 -10 -6 0 -11 9 -11 21 0 11 5 17 10 14 6 -4 10 15 10 50
0 31 -4 54 -9 51 -16 -10 -23 173 -14 330 5 82 6 180 3 217 -3 43 -2 67 5 67
6 0 6 3 -1 8 -6 4 -12 14 -13 22 -1 8 -4 218 -6 465 -2 248 -7 497 -11 555 -7
101 -7 104 -21 72 -7 -18 -11 -37 -8 -43 9 -13 -9 -11 -23 3 -18 18 -14 35 11
43 l22 7 -25 7 c-24 7 -25 11 -26 81 -1 102 2 113 32 106 32 -8 31 8 -1 22
-25 12 -34 32 -14 32 8 0 8 4 -1 15 -10 12 -7 15 14 21 14 3 27 10 27 15 1 5
3 14 4 19 1 6 4 25 6 43 1 17 6 -65 11 -183 5 -118 10 -258 13 -310 2 -52 4
-290 5 -528 0 -401 7 -508 24 -365 4 31 7 263 6 515 0 373 -3 472 -15 532 -13
60 -14 98 -6 193 10 133 4 527 -9 617 -5 33 -6 64 -1 70 13 17 16 228 12 750
-3 418 -2 478 11 473 8 -3 21 -1 29 4 12 7 12 9 -1 9 -9 0 -31 13 -50 30 -19
16 -76 65 -126 108 -122 106 -246 203 -252 198 -13 -14 30 -68 96 -121 76 -61
166 -138 190 -162 8 -7 18 -11 23 -7 11 6 39 -13 39 -28 0 -5 -6 -6 -12 -1
-16 10 -8 9 -253 15 -110 3 -312 1 -450 -4 l-250 -9 -25 29 c-14 15 -36 42
-50 58 -14 17 -59 61 -100 99 -41 37 -76 71 -78 75 -2 4 165 6 370 4 388 -3
502 5 474 34 -11 10 -690 6 -801 -4 -72 -8 -89 -12 -86 -24 2 -8 3 -22 3 -30
-28 -325 -27 -290 -21 -958 2 -228 1 -419 -3 -425 -3 -6 -2 -21 3 -35 5 -13 6
-29 2 -35 -4 -8 -10 -3 -15 13 -5 16 -6 3 -5 -37 2 -35 2 -61 -1 -59 -2 2 -25
62 -51 133 -27 70 -67 171 -89 223 -22 52 -50 127 -62 165 -20 69 -110 296
-135 345 -7 14 -41 97 -75 185 -34 88 -70 174 -81 191 -22 36 -16 48 15 32 21
-11 21 -11 2 10 -10 12 -22 19 -27 16 -15 -9 -141 146 -135 168 1 7 1 10 -1 6
-2 -4 -21 12 -41 35 -20 23 -40 44 -44 45 -5 2 -8 9 -8 16 0 7 -14 25 -31 42
l-31 29 8 -29 c11 -44 68 -132 126 -196 29 -31 68 -74 86 -93 l32 -37 -57 5
c-32 2 -230 5 -440 5 l-383 2 -31 36 c-17 19 -51 66 -76 105 -24 38 -53 79
-64 90 -36 39 -26 43 104 35 209 -12 707 -14 704 -3 -5 15 -135 22 -532 29
l-360 7 -32 41 c-18 22 -33 37 -33 32z m2054 -442 c3 -23 2 -42 -2 -42 -7 0
-10 -83 -13 -417 0 -116 2 -216 5 -221 3 -6 3 -96 -1 -201 -5 -150 -9 -191
-20 -191 -14 0 -16 7 -13 61 1 21 -3 39 -8 43 -5 3 -10 -11 -11 -32 -6 -103
-7 -97 19 -97 25 0 25 0 23 -90 -2 -118 -5 -136 -20 -130 -7 2 -13 -1 -14 -8
-3 -28 4 -62 12 -65 5 -2 9 -8 9 -14 0 -6 -9 -3 -19 6 -21 19 -34 63 -33 107
0 21 -5 28 -24 32 -27 5 -31 -5 -10 -22 8 -7 12 -21 9 -32 -5 -19 -6 -18 -18
4 -7 13 -15 37 -17 53 -3 16 -9 37 -13 47 -6 13 -4 16 9 11 9 -3 16 -2 16 4 0
5 -6 12 -14 15 -7 3 -16 25 -19 49 -3 23 -9 54 -13 67 -5 17 -4 22 4 17 10 -6
10 7 2 119 -1 6 -1 19 0 30 0 11 -1 31 -3 45 -3 14 -5 31 -6 38 0 6 -5 12 -11
12 -5 0 -10 -20 -10 -45 0 -31 -4 -45 -13 -45 -9 0 -12 10 -9 30 2 17 0 30 -4
30 -5 0 -10 165 -11 368 0 202 -2 448 -3 547 -1 99 -1 184 -1 190 1 5 55 -44
121 -110 110 -110 121 -124 124 -163z m-1754 27 c0 -10 -6 -20 -12 -23 -10 -5
-10 -7 0 -12 9 -4 11 -26 7 -82 -4 -54 -17 -3002 -15 -3477 0 -16 -4 -37 -9
-44 -6 -9 -6 -22 -1 -32 7 -12 5 -21 -5 -29 -20 -16 -19 -36 2 -44 12 -5 13
-10 5 -18 -7 -7 -7 -19 -1 -35 5 -14 5 -22 0 -19 -5 3 -11 -1 -15 -9 -3 -8 -2
-17 3 -19 13 -8 12 -79 -2 -88 -9 -6 -9 -10 2 -17 8 -5 11 -16 7 -26 -10 -27
-21 -9 -23 38 -1 23 -2 44 -3 47 -1 3 -2 30 -1 61 0 31 -5 64 -12 73 -10 13
-12 -6 -14 -101 -3 -119 -3 -335 -1 -363 3 -45 -3 -152 -9 -146 -4 3 -8 43 -9
89 -8 305 -16 432 -27 440 -8 6 -6 7 6 3 20 -6 22 7 5 37 -18 31 -18 87 -1 87
7 0 13 5 13 11 0 5 -4 8 -9 5 -9 -6 -21 49 -21 97 0 15 -4 27 -8 27 -4 0 -6
-24 -3 -52 7 -66 -2 -267 -11 -253 -3 6 -8 50 -10 98 -2 48 -5 87 -8 87 -8 0
-6 403 2 415 4 6 3 17 -2 25 -6 10 -3 21 8 34 9 11 12 17 6 13 -7 -4 -9 2 -6
18 2 14 -1 32 -8 40 -6 8 -9 19 -6 24 4 5 2 12 -3 15 -5 3 -7 15 -4 26 3 11 0
27 -7 35 -16 19 -25 109 -10 100 5 -3 10 -24 10 -45 0 -21 5 -42 10 -45 6 -3
10 -1 10 5 0 6 6 8 13 4 6 -4 9 -4 5 1 -4 4 -3 14 4 22 8 11 7 12 -6 7 -12 -5
-16 0 -17 22 -1 16 -2 43 -3 59 -1 17 -9 46 -18 65 -18 40 -23 94 -8 85 6 -3
10 -17 10 -30 0 -13 4 -26 9 -30 6 -3 8 12 5 37 -3 33 -2 40 7 28 9 -13 10
-12 5 3 -3 10 -6 23 -6 28 0 5 -4 9 -10 9 -5 0 -10 -8 -10 -17 0 -9 -3 -13 -7
-9 -4 4 -9 51 -10 104 -17 560 -22 1622 -9 1812 4 69 8 148 7 177 -1 29 3 61
8 71 6 11 8 22 4 26 -3 3 -7 140 -8 303 -2 164 -6 333 -10 376 -6 58 -4 77 5
77 7 0 10 7 6 18 -4 9 43 -32 104 -93 60 -60 110 -117 110 -126z m908 5 c10
-10 32 -85 32 -105 0 -8 -16 8 -35 35 -48 68 -53 70 -18 6 90 -164 115 -214
153 -305 23 -55 56 -134 75 -175 18 -41 54 -131 79 -200 25 -69 53 -137 62
-153 8 -15 12 -32 8 -39 -4 -6 -3 -8 3 -5 7 4 22 -28 39 -81 15 -48 31 -91 35
-97 4 -5 35 -95 69 -200 34 -104 76 -221 93 -260 16 -38 47 -124 68 -191 38
-122 65 -191 124 -319 17 -38 38 -87 45 -107 8 -21 17 -38 21 -38 9 0 34 -62
32 -80 -2 -10 -1 -11 3 -2 5 10 9 10 20 1 24 -20 23 -7 -3 71 -20 61 -25 100
-28 205 -8 253 -9 530 -3 541 4 5 3 16 -3 24 -11 19 -12 33 0 25 6 -3 7 6 2
22 -4 16 -6 46 -5 68 5 76 14 681 15 975 0 162 3 315 5 340 l5 45 324 2 323 2
6 -32 c8 -45 12 -1874 8 -3552 -1 -423 0 -790 3 -815 3 -25 7 -126 9 -225 l3
-180 -226 2 c-124 2 -254 6 -288 9 -58 5 -63 8 -63 29 0 13 6 26 13 28 12 5 7
12 -29 35 -6 4 -15 18 -19 31 -6 21 -5 23 14 18 15 -3 21 -1 18 6 -2 7 -14 13
-26 15 -13 2 -26 15 -33 30 -21 53 -70 188 -94 257 -13 38 -40 101 -58 140
-19 38 -41 95 -51 125 -9 30 -32 96 -50 145 -18 50 -52 142 -75 205 -23 63
-55 142 -71 175 -15 33 -30 71 -32 85 -2 14 -9 38 -15 53 -7 16 -12 31 -12 34
0 3 -6 19 -14 36 -26 59 -41 102 -38 109 1 4 -16 47 -39 95 -46 99 -49 107
-78 183 -11 30 -36 96 -55 146 -20 51 -36 95 -36 98 0 13 -141 379 -162 419
-5 10 -6 23 -2 29 4 5 0 14 -7 19 -9 5 -10 9 -2 9 7 0 9 9 5 22 -5 20 -6 20
-12 3 -6 -17 -7 -17 -21 -1 -69 82 -99 106 -63 51 9 -14 20 -22 25 -19 5 3 9
-4 9 -15 0 -11 7 -24 16 -29 10 -5 14 -15 10 -21 -6 -9 -11 -9 -22 0 -22 18
-30 2 -10 -20 14 -15 17 -36 15 -112 -1 -52 -5 -98 -7 -103 -11 -20 0 -241 11
-248 9 -6 9 -10 0 -16 -11 -7 -13 -205 -16 -1637 0 -148 2 -299 4 -333 l4 -64
-429 1 c-236 0 -431 2 -433 4 -10 10 -12 184 -12 787 0 355 0 654 0 665 -1 11
0 108 0 215 1 107 2 837 3 1622 0 784 4 1430 8 1434 4 3 31 8 60 10 29 2 112
9 183 15 121 10 568 35 608 33 9 0 21 -5 25 -10z m1794 -1050 c-2 -19 1 -41 8
-49 6 -8 9 -19 6 -24 -4 -5 -2 -12 4 -16 15 -9 12 -146 -4 -208 -8 -30 -12
-73 -9 -96 4 -26 2 -41 -5 -41 -13 0 -20 37 -12 70 4 14 3 36 -1 50 l-7 25 -1
-24 c-1 -13 -4 -21 -7 -18 -12 12 -6 290 6 297 13 8 3 60 -11 60 -5 0 -9 7 -9
15 0 12 5 12 23 4 19 -8 22 -16 19 -45z m-82 -14 c0 -5 5 -9 12 -7 6 1 13 -7
15 -18 1 -11 0 -14 -3 -7 -8 17 -24 15 -24 -3 0 -8 6 -15 14 -15 23 0 27 -29
20 -143 -6 -95 -9 -107 -20 -92 -12 16 -16 16 -31 4 -10 -8 -22 -20 -27 -28
-14 -23 -35 71 -36 160 0 58 4 78 14 82 27 11 37 -20 35 -100 -1 -45 2 -76 7
-73 10 6 13 179 4 185 -10 6 1 65 11 65 5 0 9 -4 9 -10z m30 -360 c-18 -14
-18 -39 1 -45 10 -4 19 -11 19 -17 0 -5 -7 -7 -16 -4 -9 4 -13 2 -8 -5 3 -6 8
-71 9 -144 3 -123 2 -133 -15 -138 -11 -3 -24 0 -29 7 -12 14 -7 308 5 328 5
7 9 19 10 26 2 8 6 21 10 30 6 14 8 13 14 -8 3 -14 4 -27 0 -30z m-55 -420 c4
-6 18 -9 33 -8 23 3 27 -1 27 -24 1 -16 -3 -28 -7 -28 -4 0 -8 5 -8 12 0 9 -3
9 -12 0 -9 -9 -8 -15 5 -24 14 -11 18 -36 22 -156 3 -110 1 -142 -8 -139 -7 2
-11 17 -9 32 2 20 -1 26 -11 22 -17 -6 -41 29 -26 38 6 4 9 55 8 128 -1 110
-3 122 -23 138 -11 10 -16 18 -9 19 6 0 15 -5 18 -10z m33 -395 c-1 -14 -5
-25 -8 -25 -8 0 -1 -59 10 -85 9 -21 20 -199 20 -316 0 -65 1 -67 25 -65 27 1
33 24 13 44 -9 9 -9 12 0 12 13 0 32 -32 32 -54 0 -9 -12 -16 -32 -18 -20 -2
-32 -8 -30 -15 1 -7 -1 -13 -5 -13 -11 0 -3 -163 8 -176 5 -6 21 -9 36 -6 23
4 25 3 20 -19 -4 -13 -7 -30 -7 -36 0 -7 -5 -13 -11 -13 -6 0 -9 6 -6 14 7 19
-18 40 -39 32 -10 -4 -13 -13 -9 -26 4 -11 2 -20 -4 -20 -6 0 -13 11 -17 25
-3 14 -10 25 -15 25 -5 0 -6 -8 -2 -17 5 -16 4 -15 -9 1 -14 17 -15 18 -21 2
-4 -10 -5 -21 -3 -24 2 -4 7 -40 10 -79 6 -62 4 -72 -9 -67 -10 4 -15 20 -15
48 0 23 -9 59 -20 80 -22 44 -19 56 13 56 41 0 47 13 53 105 4 68 9 91 22 101
10 7 13 16 8 21 -5 4 -11 2 -13 -4 -4 -10 -8 -10 -18 1 -11 11 -11 21 0 62 7
27 14 40 14 30 1 -16 3 -18 14 -7 10 10 8 15 -7 26 -10 8 -16 18 -13 23 4 4 0
20 -8 35 -11 22 -11 26 2 31 8 3 12 10 8 15 -3 6 -7 52 -9 103 -3 76 -7 94
-20 96 -20 4 -20 12 0 27 11 8 17 26 17 53 0 29 4 42 13 42 9 0 13 -10 12 -25z
m-1653 -750 c15 -44 46 -120 67 -170 22 -49 44 -106 50 -125 6 -19 20 -57 33
-85 12 -27 29 -70 38 -95 14 -41 39 -111 110 -305 54 -148 86 -231 102 -269 9
-21 14 -47 12 -57 -3 -10 6 -38 18 -62 31 -57 119 -287 112 -293 -2 -3 -24 14
-47 38 -42 43 -46 35 -6 -11 15 -17 17 -25 8 -28 -21 -8 -2 -23 21 -18 23 6
36 -4 80 -60 24 -31 40 -65 31 -65 -3 0 -14 9 -25 19 -29 27 -53 30 -334 36
-137 3 -262 8 -277 11 l-28 6 1 458 c0 253 -2 622 -5 822 -3 200 -1 356 3 348
5 -8 21 -51 36 -95z m341 -442 c-3 -7 3 -18 12 -25 16 -12 30 -42 73 -163 10
-27 35 -86 57 -130 27 -55 36 -82 28 -87 -7 -5 -7 -8 3 -8 8 0 11 -6 7 -15 -3
-9 1 -18 9 -21 8 -4 12 -10 9 -15 -3 -5 -1 -9 4 -9 9 0 26 -55 23 -73 -1 -4 5
-10 12 -13 8 -3 13 -16 11 -31 -1 -15 4 -42 12 -61 8 -19 14 -40 14 -46 0 -14
-60 85 -60 101 0 6 -15 44 -34 85 -19 40 -48 110 -65 156 -17 45 -38 96 -46
113 -9 17 -27 63 -40 102 -13 40 -33 94 -44 120 -26 60 -26 60 -1 45 11 -7 18
-18 16 -25z m1318 -89 c3 -9 6 -25 6 -37 0 -12 4 -17 8 -12 4 6 16 11 27 13
18 2 18 2 3 -8 -29 -18 -20 -29 17 -23 l35 6 0 -70 c0 -75 -14 -108 -42 -98
-13 5 -18 22 -20 73 -2 36 -8 67 -13 69 -15 5 -15 -115 1 -151 7 -17 13 -25
14 -18 0 17 20 15 20 -3 0 -8 -6 -15 -14 -15 -8 0 -17 -8 -19 -17 -3 -13 -5
-12 -6 5 0 13 -5 20 -11 17 -5 -3 -15 -3 -21 1 -8 4 -7 9 2 15 11 7 11 9 1 9
-10 0 -12 29 -11 130 3 122 9 152 23 114z m-2839 -276 c0 -68 -4 -126 -8 -129
-4 -3 -1 -18 7 -34 11 -21 12 -32 4 -42 -7 -8 -10 -70 -9 -171 2 -217 12 -302
36 -322 16 -13 19 -6 16 30 -1 8 9 -5 21 -30 12 -25 25 -47 28 -50 10 -9 30
-84 23 -89 -3 -4 -8 0 -10 7 -3 7 -16 26 -29 41 -13 16 -24 33 -24 38 0 5 -15
24 -34 43 -18 19 -37 46 -41 60 -11 33 -14 700 -3 700 4 0 7 8 6 18 -2 30 2
52 10 52 4 0 7 -55 7 -122z m2845 -69 c0 -21 4 -30 13 -26 7 3 13 -3 13 -13 0
-10 -3 -18 -6 -18 -20 2 -29 -4 -24 -17 4 -8 10 -15 16 -15 5 0 6 6 3 13 -4 6
0 4 9 -7 8 -10 22 -16 30 -13 29 11 39 -20 32 -94 -7 -83 -10 -89 -37 -89 -19
0 -20 6 -19 78 2 102 2 104 -10 97 -5 -3 -10 -23 -10 -44 0 -21 -3 -65 -6 -99
-5 -47 -11 -61 -25 -65 -11 -3 -19 -1 -19 4 0 5 5 9 11 9 6 0 9 40 8 115 -1
77 2 119 10 129 8 10 9 15 1 18 -6 2 -13 18 -16 36 -4 24 -2 32 10 32 11 0 16
-10 16 -31z"/>
<path d="M16740 6392 c0 -121 1 -122 65 -122 57 0 66 19 63 129 l-3 96 -62 3
-63 3 0 -109z m103 76 c-2 -5 -3 -46 -3 -93 l0 -85 -40 0 -40 0 0 96 0 95 43
-3 c23 -2 41 -6 40 -10z"/>
<path d="M16763 5703 c-22 -4 -23 -8 -23 -113 0 -101 1 -108 21 -113 32 -9 89
4 99 22 5 9 7 57 6 106 -2 77 -5 89 -22 96 -21 8 -46 9 -81 2z m80 -118 c0
-61 -4 -90 -12 -89 -6 1 -24 2 -41 3 l-30 1 0 83 c0 46 5 88 11 94 6 6 24 7
41 4 l32 -7 -1 -89z"/>
<path d="M17147 5698 c-13 -10 -19 -35 -23 -103 -6 -79 -4 -93 11 -109 14 -14
27 -16 59 -10 22 3 44 8 49 11 4 2 7 51 7 108 0 85 -3 104 -16 109 -26 10 -69
7 -87 -6z m81 -111 l3 -98 -38 3 -38 3 -3 84 c-4 105 -1 113 40 109 l33 -3 3
-98z"/>
<path d="M16760 5271 c-25 -7 -25 -8 -21 -102 1 -51 8 -100 13 -106 6 -7 32
-13 59 -13 l49 0 0 109 c0 104 -1 109 -22 115 -28 7 -45 6 -78 -3z m80 -117
l0 -95 -42 3 -43 3 2 90 c1 50 2 91 2 93 1 1 19 2 41 2 l40 0 0 -96z"/>
<path d="M16948 5273 c-14 -4 -16 -18 -15 -110 2 -105 2 -107 27 -113 14 -4
42 -5 63 -2 l38 4 -2 105 c-2 88 -5 106 -20 114 -18 9 -60 10 -91 2z"/>
<path d="M17163 5273 c-29 -6 -35 -28 -31 -133 l3 -85 34 -3 c19 -2 44 -1 57
2 23 6 24 10 24 106 0 54 -3 101 -7 103 -16 8 -59 14 -80 10z"/>
<path d="M16757 4843 c-16 -4 -18 -16 -16 -108 l2 -103 36 -6 c82 -13 95 8 89
144 l-3 75 -45 2 c-25 0 -53 -1 -63 -4z m91 -110 l3 -93 -41 0 c-45 0 -42 -7
-42 120 0 28 0 55 1 61 1 6 17 9 39 7 l37 -3 3 -92z"/>
<path d="M16946 4435 c-3 -9 -6 -61 -6 -116 l0 -99 43 0 c89 0 88 -1 85 119
l-3 106 -56 3 c-45 2 -58 0 -63 -13z m92 -102 l-3 -98 -35 0 -35 0 -3 84 c-2
46 -1 90 2 98 3 7 21 13 41 13 l36 0 -3 -97z"/>
<path d="M17192 4443 c-18 -3 -35 -10 -37 -16 -2 -7 -6 -54 -9 -104 l-5 -93
35 0 c70 0 75 9 73 121 -1 65 -6 98 -13 97 -6 0 -26 -3 -44 -5z"/>
<path d="M16970 4017 c-24 -12 -25 -17 -26 -110 l-1 -97 26 -1 c14 0 33 -2 41
-3 8 -2 25 0 36 5 20 7 21 12 17 101 -3 51 -8 96 -12 99 -14 14 -58 17 -81 6z"/>
<path d="M16756 3632 c-12 -11 -6 -179 7 -190 17 -14 47 -17 78 -9 25 6 26 10
33 98 4 50 5 94 2 96 -7 8 -114 12 -120 5z"/>
<path d="M4768 7968 c-2 -24 -7 -32 -18 -29 -8 3 -73 5 -145 6 -152 3 -937 -8
-915 -12 17 -3 552 -25 710 -30 58 -1 151 2 208 9 105 11 132 7 97 -17 -11 -8
-27 -21 -35 -28 -8 -8 -31 -25 -50 -38 -48 -33 -109 -80 -135 -104 -12 -11
-43 -40 -69 -65 l-48 -44 -232 3 c-127 1 -233 5 -235 7 -11 10 11 13 99 14
168 2 340 12 340 20 0 5 -39 6 -87 4 -49 -2 -157 -5 -241 -5 -120 -1 -155 -5
-159 -15 -7 -19 -31 -18 -50 2 -11 11 -26 14 -46 10 -16 -3 -40 -6 -53 -6 -16
0 -22 -4 -18 -15 5 -11 0 -12 -26 -5 -22 6 -32 5 -36 -3 -3 -7 -28 -12 -65
-13 l-61 -1 23 18 c13 11 87 61 164 113 77 52 156 108 175 125 31 29 32 31 11
25 -34 -9 -125 -66 -299 -186 -81 -55 -158 -105 -172 -111 l-25 -11 26 -3 c26
-4 27 -6 33 -101 3 -53 6 -241 6 -417 0 -176 4 -425 8 -553 4 -129 4 -236 1
-237 -16 -10 -50 11 -68 41 -26 43 -55 44 -96 4 -30 -29 -36 -31 -141 -37
l-110 -6 -12 28 c-9 20 -14 167 -18 561 -6 514 -2 655 17 609 6 -17 8 -15 8
10 1 17 -5 37 -11 43 -9 9 -9 15 -2 20 11 8 11 95 0 215 -4 42 -5 95 -1 117 6
35 10 40 33 40 15 0 34 5 42 10 10 6 -33 7 -120 4 -74 -3 -292 -9 -485 -13
-385 -8 -376 -6 -456 -75 -32 -27 -113 -77 -277 -173 -37 -22 -67 -30 -58 -15
2 4 -2 16 -10 27 -13 18 -14 18 -14 -8 0 -15 -9 -32 -22 -41 l-22 -16 21 0
c19 0 21 -3 13 -30 -5 -16 -7 -42 -4 -57 2 -15 6 -109 9 -208 4 -99 10 -279
15 -400 5 -121 7 -265 5 -320 -20 -523 -19 -507 -29 -524 -4 -6 -4 -17 1 -23
4 -7 8 -96 10 -198 1 -102 6 -277 12 -390 14 -260 14 -713 1 -1033 -6 -137 -8
-252 -6 -256 3 -4 8 -41 11 -82 11 -121 33 -268 54 -356 31 -130 115 -313 204
-446 54 -81 22 -61 -83 50 -50 52 -73 72 -57 49 46 -70 357 -375 432 -424 38
-26 73 -49 76 -52 4 -3 10 -40 14 -82 7 -76 7 -78 -16 -87 -16 -7 47 -10 196
-11 122 0 238 -5 260 -11 44 -12 650 -20 725 -10 38 5 29 7 -55 13 -135 9
-195 18 -195 29 0 14 94 11 109 -3 8 -7 11 -8 8 -2 -4 6 6 10 26 10 18 0 68 2
113 4 48 1 89 -2 102 -9 12 -7 22 -8 22 -2 0 5 -6 11 -12 14 -21 7 -2 18 41
24 22 3 38 9 35 14 -3 5 0 9 5 9 6 0 11 -4 11 -9 0 -11 137 -3 193 10 20 6 37
14 37 19 0 5 7 7 15 4 8 -4 15 -1 15 5 0 14 -47 15 -52 1 -5 -15 -75 -23 -83
-10 -8 12 -45 13 -45 1 0 -9 -60 -24 -68 -16 -2 2 8 10 24 17 16 6 75 34 132
61 56 27 105 48 107 45 3 -2 7 -43 9 -90 l5 -85 -174 2 c-149 2 -172 0 -160
-12 19 -19 273 -22 328 -4 29 10 42 10 50 2 17 -17 42 -13 62 9 10 11 24 20
32 20 15 0 36 47 27 61 -3 5 -2 9 3 8 4 -1 19 3 33 9 l25 11 -27 0 c-16 1 -28
5 -28 9 0 4 33 8 74 7 41 0 72 -3 69 -7 -2 -5 -19 -8 -37 -8 -19 0 -39 -7 -46
-15 -11 -13 4 -15 124 -15 84 0 136 4 136 10 0 6 -18 10 -39 10 -25 0 -41 5
-44 15 -5 11 -1 12 18 5 17 -6 25 -6 25 1 0 6 4 8 8 5 4 -2 8 4 8 14 0 15 -7
17 -41 14 -22 -3 -46 -7 -54 -10 -8 -2 -22 3 -32 12 -11 10 -19 13 -19 8 0 -5
-38 -9 -85 -9 -47 0 -85 3 -85 8 0 4 -11 17 -25 29 -25 22 -24 48 1 27 9 -7
62 -13 135 -15 67 -2 124 -5 127 -8 6 -7 -46 -9 -133 -6 -33 1 -71 -3 -85 -9
-18 -7 6 -9 92 -7 64 1 125 -1 135 -5 22 -8 75 10 67 22 -3 6 -14 7 -25 4 -11
-4 -19 -2 -19 4 0 7 23 11 58 11 71 0 132 10 132 21 0 8 -24 10 -117 9 -18 0
-33 4 -33 10 0 6 29 10 78 9 140 -2 225 1 219 7 -5 5 -250 15 -419 17 -32 0
-58 4 -58 9 0 4 10 8 23 9 12 0 41 2 65 5 28 3 49 0 60 -8 12 -10 14 -10 8 0
-5 8 0 12 13 12 12 0 21 -4 21 -8 0 -4 25 -8 55 -8 37 1 55 5 55 14 0 14 27
17 32 3 2 -6 37 -12 78 -15 51 -3 68 -2 53 4 -37 15 -26 25 28 27 47 2 50 0
45 -20 -3 -12 -3 -16 0 -9 4 9 9 10 19 2 18 -15 73 -21 80 -9 4 5 -8 9 -24 9
-19 0 -40 9 -53 22 -14 14 -36 24 -58 24 -19 1 -91 5 -160 9 -69 3 -132 6
-140 6 -24 0 -152 1 -185 2 -16 0 -56 -2 -87 -6 -44 -5 -58 -3 -58 7 0 7 48
60 108 117 117 115 296 308 272 294 -8 -4 -4 4 9 18 13 15 28 24 32 21 5 -3 9
0 9 5 0 6 -5 11 -11 11 -5 0 -7 5 -4 10 4 6 10 8 14 6 4 -3 8 1 8 8 0 7 16 39
36 72 32 52 100 221 111 278 3 11 12 48 21 81 9 33 18 67 20 75 2 8 12 51 23
95 19 75 31 139 38 210 1 17 3 30 4 30 1 0 4 12 6 28 4 21 1 27 -13 27 -12 0
-14 3 -6 8 8 5 11 29 8 67 -1 33 -3 60 -4 60 -1 0 -3 79 -5 175 -5 193 -16
462 -21 497 -2 13 0 25 3 27 6 4 7 201 2 216 -1 3 -2 9 -1 13 1 5 1 113 0 240
0 128 0 498 0 822 1 876 1 907 -2 1070 l-3 149 35 18 c19 10 47 18 61 19 24 1
24 1 -4 9 -20 6 -37 5 -57 -5 -36 -19 -38 -19 -37 8 3 47 -2 87 -11 87 -6 0
-11 -15 -13 -32z m-1778 -57 c0 -8 -67 -61 -145 -113 -22 -15 -62 -47 -90 -72
-60 -55 -103 -77 -141 -72 -16 2 -21 1 -11 -1 20 -5 23 -22 5 -28 -7 -3 -121
-9 -253 -15 -241 -10 -372 -23 -390 -41 -6 -6 7 -7 35 -3 82 10 610 10 611 -1
1 -5 1 -14 0 -18 -1 -4 0 -193 1 -420 1 -227 1 -439 0 -472 0 -33 -1 -144 -1
-247 0 -163 -2 -188 -16 -188 -21 0 -57 -60 -51 -85 4 -16 -11 -32 -70 -74
-56 -40 -78 -51 -87 -42 -16 16 -83 14 -101 -5 -26 -26 -38 -54 -38 -91 0 -28
-10 -46 -51 -91 -78 -87 -100 -102 -144 -102 -62 0 -78 -33 -51 -107 12 -33
10 -40 -47 -148 -50 -96 -64 -115 -87 -120 -32 -7 -58 -39 -58 -71 0 -12 9
-41 19 -65 18 -42 19 -48 4 -124 -8 -44 -17 -90 -19 -102 -3 -15 -12 -23 -24
-23 -10 0 -22 -4 -25 -10 -18 -29 -25 0 -25 98 -1 101 -11 372 -25 632 -9 156
-9 384 -2 835 3 209 1 535 -4 724 -7 248 -7 347 1 355 8 7 77 10 215 8 125 -2
205 0 209 6 8 13 -174 26 -278 20 -42 -2 -76 -1 -76 2 0 10 251 170 266 170 4
0 24 17 45 38 l39 37 212 -3 c222 -4 579 16 596 32 9 9 52 7 52 -3z m-14 -193
c-3 -73 -9 -209 -13 -303 -3 -93 -5 -222 -2 -285 2 -63 4 -268 4 -455 l0 -340
-27 -3 c-26 -3 -27 -2 -24 37 2 30 0 41 -10 41 -8 0 -14 5 -14 10 0 6 6 10 14
10 10 0 13 25 11 125 -1 69 -6 129 -10 133 -4 4 -6 -20 -5 -53 5 -138 2 -163
-22 -168 -23 -4 -23 -4 2 -15 18 -8 20 -11 7 -11 -13 -1 -16 -7 -12 -23 3 -13
6 -57 7 -98 l3 -75 -66 -21 c-86 -28 -133 -38 -126 -27 9 14 11 408 3 422 -5
7 -5 16 0 20 5 3 9 155 9 336 0 182 3 348 7 371 4 23 10 90 14 150 7 109 7
109 42 141 45 41 56 41 50 1 -3 -18 -2 -44 2 -58 5 -20 8 -15 14 29 6 41 5 55
-5 62 -11 7 -9 12 11 26 34 24 110 106 110 119 0 9 20 34 27 34 2 0 1 -60 -1
-132z m1786 80 c2 -18 -1 -53 -5 -78 -5 -25 -8 -92 -7 -150 2 -167 2 -167 1
-750 0 -305 0 -642 0 -747 0 -106 -2 -197 -5 -202 -4 -5 -2 -11 3 -13 9 -3 14
-118 12 -302 -1 -79 -3 -88 -18 -82 -17 6 -17 5 -1 -7 13 -10 16 -25 13 -62
-2 -26 -9 -51 -16 -55 -8 -6 -8 -9 1 -15 6 -4 9 -14 6 -22 -3 -8 -2 -12 2 -9
4 2 9 -62 10 -142 2 -81 5 -173 5 -204 1 -32 -1 -58 -5 -58 -5 0 -8 -5 -8 -11
0 -5 5 -7 10 -4 6 3 10 1 10 -4 0 -6 -4 -11 -8 -11 -5 0 -9 -7 -9 -15 0 -8 4
-12 9 -9 5 3 7 -17 4 -45 -2 -28 -1 -51 2 -51 4 0 8 -18 10 -40 1 -22 -2 -40
-7 -40 -5 0 -7 10 -3 22 3 13 1 19 -5 15 -5 -4 -13 -59 -17 -124 -4 -65 -11
-122 -17 -128 -5 -5 -9 2 -9 20 0 39 -10 76 -19 70 -4 -2 -4 -29 -1 -59 3 -31
2 -63 -3 -72 -5 -9 -6 -19 -1 -23 11 -8 12 -42 1 -58 -5 -7 -5 -19 -1 -25 10
-15 5 -169 -5 -183 -4 -5 -4 -26 -1 -45 l6 -35 16 50 c10 31 16 42 17 27 1
-12 -8 -40 -19 -62 -11 -22 -20 -46 -20 -55 0 -8 -3 -15 -7 -15 -5 0 -9 -10
-9 -22 -2 -36 -29 -118 -59 -181 -30 -63 -45 -73 -20 -14 19 45 19 48 -1 40
-11 -4 -6 8 14 35 27 38 29 48 26 102 -3 41 -1 60 7 60 8 0 8 4 -1 15 -10 13
-9 15 9 15 11 0 21 4 21 10 0 5 -5 9 -11 7 -6 -1 -14 4 -16 11 -3 7 1 10 11 6
10 -4 14 0 13 15 -1 15 -4 17 -14 9 -9 -7 -13 -7 -13 1 0 7 -4 10 -9 6 -6 -3
-10 -13 -10 -23 1 -49 -15 -111 -37 -144 -14 -23 -25 -54 -26 -78 -1 -23 -6
-44 -11 -47 -6 -4 -8 0 -4 10 3 10 2 17 -2 17 -13 0 7 80 31 124 13 25 16 37
8 34 -7 -2 -21 -20 -32 -38 -10 -19 -18 -29 -18 -22 0 6 -4 12 -10 12 -5 0
-10 -9 -10 -20 0 -11 4 -20 8 -20 4 0 6 -16 4 -35 -2 -19 -8 -32 -13 -29 -5 3
-6 -2 -2 -11 4 -12 8 -13 13 -5 4 6 7 -3 8 -19 0 -17 -4 -31 -9 -31 -5 0 -8 5
-6 11 1 6 -4 14 -10 16 -7 3 -13 -2 -13 -10 0 -9 -11 -28 -24 -44 -13 -15 -26
-38 -30 -50 -4 -13 -12 -23 -18 -23 -5 0 -8 6 -5 13 2 6 10 37 18 67 7 30 19
59 27 63 10 7 10 12 1 23 -7 8 -7 14 -1 14 18 0 21 29 5 46 -16 16 -15 16 7 9
14 -4 22 -4 18 0 -4 4 0 21 8 37 13 25 17 28 31 16 14 -11 16 -10 11 9 -6 22
13 38 39 34 7 -1 10 4 7 12 -3 8 2 20 10 27 9 7 13 17 10 22 -9 14 5 60 16 53
9 -6 14 8 11 28 -1 4 3 17 9 27 6 12 7 20 1 20 -5 0 -7 9 -4 20 6 22 19 26 26
8 2 -7 2 -2 0 12 -6 32 -12 38 -22 21 -5 -7 -9 13 -10 51 -1 34 -5 90 -10 123
-8 51 -9 40 -8 -73 1 -72 -1 -132 -5 -132 -4 0 -4 -17 -1 -37 l6 -38 -22 19
c-11 11 -24 16 -28 13 -3 -4 -1 -7 5 -7 6 0 10 -18 9 -44 -1 -24 -5 -39 -9
-33 -4 6 -8 9 -10 7 -27 -42 -36 -76 -18 -65 6 3 10 1 10 -4 0 -15 -15 -14
-29 3 -13 15 -5 46 12 46 6 0 7 3 4 7 -4 3 -2 12 4 19 6 8 11 29 12 49 1 21 6
35 13 35 7 0 15 18 18 43 17 136 15 159 -4 87 -6 -22 -15 -40 -21 -40 -16 0
-7 103 11 125 23 27 31 53 19 60 -5 4 -7 10 -5 14 3 4 -6 20 -20 36 -22 26
-24 35 -18 84 7 54 44 136 61 136 16 -1 34 50 29 80 -4 19 -3 25 3 16 5 -8 11
-9 15 -3 3 5 -1 15 -9 22 -8 7 -15 20 -15 29 0 22 -19 41 -42 41 -24 0 -36 33
-42 112 -2 35 -8 80 -12 102 -6 31 -4 38 7 34 8 -3 16 -13 17 -23 2 -10 0 -15
-6 -11 -6 3 -2 -11 8 -31 9 -21 20 -45 23 -53 3 -8 5 9 4 37 -1 29 -5 53 -9
53 -5 0 -8 22 -8 50 0 27 -10 75 -22 107 -12 32 -21 64 -20 71 2 6 -2 12 -8
12 -5 0 -9 -3 -8 -7 2 -5 -1 -10 -7 -13 -6 -3 -11 14 -12 40 -8 143 -17 214
-24 190 l-7 -25 -1 28 c-1 15 4 27 10 27 8 0 8 4 1 13 -10 12 -17 124 -27 437
-8 247 -17 619 -16 725 0 50 0 234 1 410 l1 320 57 38 c87 57 118 85 107 96
-6 6 -38 -12 -89 -51 -43 -33 -77 -56 -75 -50 5 12 176 152 187 152 5 0 25 16
45 36 22 22 40 33 48 28 8 -5 10 -3 5 5 -5 7 0 18 10 26 28 21 32 18 36 -17z
m-802 -218 c10 -5 85 -10 167 -11 134 0 236 -9 248 -20 2 -3 7 -275 10 -604
10 -1004 15 -1253 31 -1420 l5 -60 -34 76 c-23 52 -32 87 -29 107 5 35 -13 95
-35 117 -8 8 -28 15 -44 15 -24 0 -47 17 -122 93 -101 101 -144 139 -176 156
-27 15 -27 31 -1 31 11 0 45 -25 75 -55 30 -30 55 -52 55 -49 0 2 -9 22 -20
43 -23 46 -77 94 -97 86 -46 -17 -61 -14 -135 30 -60 35 -78 51 -78 68 0 35
-36 86 -66 93 -19 5 -40 0 -68 -14 -50 -27 -97 -28 -124 -4 -20 16 -21 31 -26
317 -3 165 -8 338 -10 385 -3 47 -7 187 -10 312 -4 157 -10 240 -20 268 -10
31 -11 42 -3 46 43 15 476 10 507 -6z m-687 -1358 c9 -12 9 -16 0 -19 -6 -2
-27 -17 -45 -33 -18 -17 -39 -30 -45 -30 -7 0 -13 -4 -13 -10 0 -18 21 -10 67
25 51 39 70 43 80 18 5 -14 8 -13 14 5 10 26 31 28 53 7 23 -24 30 -17 11 11
l-17 26 34 -7 c38 -8 58 -29 58 -63 0 -15 -7 -26 -20 -29 -24 -6 -27 -21 -4
-19 19 1 27 -14 16 -31 -5 -8 -21 -9 -57 -2 -28 5 -99 11 -160 13 -60 2 -109
8 -108 13 1 4 5 16 8 26 5 12 3 16 -7 12 -19 -7 -115 79 -100 89 7 4 16 5 20
2 5 -3 30 -1 58 3 77 13 143 9 157 -7z m-363 -33 c0 -5 -13 -37 -30 -71 -16
-33 -30 -64 -30 -69 0 -17 49 25 60 52 13 31 78 84 67 55 -4 -10 -7 -35 -7
-56 0 -35 -3 -39 -32 -45 -28 -6 -201 -62 -253 -81 -11 -5 -15 2 -15 25 0 17
5 31 11 31 7 0 9 -9 6 -22 -5 -20 -5 -21 7 -6 7 9 31 19 55 22 24 2 46 7 49
11 9 9 -21 26 -35 20 -7 -3 -21 -8 -30 -12 -16 -6 -16 -5 -5 10 12 14 12 19
-2 32 -34 34 -20 50 72 82 97 35 112 38 112 22z m637 -20 c4 -16 8 -17 14 -7
7 11 14 10 38 -4 22 -12 31 -13 35 -5 2 7 8 2 12 -11 4 -14 12 -21 20 -18 7 3
16 1 19 -3 3 -5 13 -7 23 -4 18 4 131 -43 166 -69 18 -14 15 -16 -35 -22 -30
-5 -80 -9 -112 -11 -32 -2 -65 -9 -73 -16 -12 -10 -24 -8 -62 9 -26 11 -55 23
-64 26 -10 3 -18 15 -18 26 0 23 10 26 28 8 9 -9 12 -9 12 0 0 7 -5 12 -12 12
-6 0 -9 3 -5 6 3 4 0 13 -8 21 -21 20 -20 83 1 83 9 0 18 -9 21 -21z m-977
-144 c-10 -47 -6 -76 6 -39 25 79 42 80 41 3 0 -39 -5 -53 -21 -65 -27 -18
-34 -18 -39 4 -3 13 -6 10 -11 -10 -5 -15 -17 -30 -28 -34 -11 -3 -17 -8 -14
-11 2 -3 -31 -36 -75 -75 -43 -38 -88 -83 -100 -99 -11 -16 -25 -29 -30 -29
-5 0 -9 34 -9 75 0 41 -4 75 -9 75 -12 0 -18 -117 -8 -137 12 -20 2 -56 -23
-85 -26 -30 -98 -157 -129 -228 -13 -30 -30 -67 -38 -83 -8 -15 -12 -31 -9
-36 3 -5 -1 -14 -9 -21 -8 -7 -12 -16 -9 -21 6 -10 -23 -131 -40 -164 -7 -13
-26 -35 -44 -50 -18 -15 -32 -31 -32 -37 0 -12 50 19 67 41 10 14 11 13 8 -4
-2 -11 -4 -57 -4 -102 -1 -80 -2 -83 -27 -89 -38 -10 -48 7 -27 44 14 25 15
34 5 44 -9 9 -12 9 -12 -4 0 -9 -7 -18 -15 -21 -8 -4 -12 -15 -10 -27 2 -12
-3 -25 -15 -32 -10 -6 -16 -17 -13 -23 2 -7 -4 -21 -14 -30 -17 -17 -18 -17
-21 -1 -2 9 2 24 9 32 9 11 9 18 1 26 -17 17 -15 41 3 35 11 -5 13 0 8 25 -5
25 -3 29 8 23 12 -8 12 -6 1 8 -15 18 -8 37 14 37 8 0 12 5 9 10 -3 6 -15 10
-26 10 -25 0 -25 0 -9 120 6 47 16 87 21 88 5 2 9 12 9 23 0 10 5 19 11 19 5
0 7 -5 3 -11 -6 -10 12 -28 28 -29 4 0 21 14 38 30 17 17 40 30 50 30 28 0 25
17 -5 24 -14 4 -25 11 -25 16 0 5 -14 25 -31 45 l-32 36 21 42 c12 23 30 63
41 90 11 26 24 47 28 47 4 0 16 -26 26 -58 l18 -57 -26 -22 c-14 -13 -24 -23
-22 -23 10 0 77 31 77 35 0 2 -9 20 -20 40 -22 39 -27 85 -9 85 8 0 8 4 0 14
-12 15 -5 46 11 46 5 0 6 -9 3 -20 -5 -17 -2 -20 22 -21 15 -1 33 0 38 1 6 2
18 3 27 4 16 0 16 2 1 18 -12 14 -13 21 -4 32 10 11 6 21 -20 50 -36 41 -39
34 50 128 l55 58 85 0 c90 0 127 10 98 26 -9 5 -20 28 -25 51 -8 37 -7 44 12
61 33 30 139 102 143 98 2 -2 -1 -25 -7 -51z m828 2 l47 -12 8 -75 c5 -41 5
-151 2 -245 -9 -228 -9 -217 0 -324 10 -137 3 -167 -66 -272 -33 -50 -64 -96
-69 -102 -6 -7 -18 -23 -28 -36 -42 -54 -38 -11 9 104 85 207 168 460 129 394
-5 -9 -41 -103 -81 -210 -39 -107 -80 -216 -91 -244 l-20 -50 -59 3 c-37 3
-65 -1 -74 -8 -20 -16 -53 5 -79 50 -17 29 -17 33 -3 27 21 -8 21 -8 2 36 -17
41 -20 107 -5 107 6 0 10 -4 10 -9 0 -5 5 -22 12 -38 6 -15 12 -35 14 -43 4
-21 47 -111 51 -107 3 4 -33 120 -50 157 -6 14 -18 33 -27 44 -13 16 -15 76
-16 437 l-2 419 22 5 c72 16 284 11 364 -8z m-423 -244 c-4 -125 -8 -323 -8
-440 -1 -117 -5 -209 -8 -205 -14 16 -136 208 -143 227 -9 21 -9 24 -20 145
-4 41 -11 104 -16 140 -10 72 -24 241 -24 280 0 22 8 27 74 48 41 13 89 29
105 37 17 7 34 9 39 5 5 -5 5 -109 1 -237z m904 147 c-1 -44 -4 -80 -6 -80 -3
0 -26 15 -52 33 -25 19 -72 47 -103 63 -32 15 -58 31 -58 35 0 16 20 19 59 10
22 -4 43 -5 48 -1 9 9 44 17 86 19 l28 1 -2 -80z m72 52 c27 -24 30 -31 20
-49 -6 -12 -11 -37 -11 -55 l0 -33 14 25 c8 16 9 29 3 38 -6 8 -6 12 2 12 6 0
11 7 11 15 0 12 4 13 19 6 51 -28 210 -185 199 -196 -3 -3 -52 2 -109 10 -57
8 -108 15 -114 15 -27 1 -36 17 -25 45 9 25 9 26 -5 15 -8 -7 -12 -16 -9 -21
8 -14 -9 -10 -31 7 -17 12 -21 29 -23 104 -4 103 4 111 59 62z m-395 -3 c34
-17 43 -26 38 -38 -22 -53 -74 -214 -74 -231 0 -11 -4 -20 -10 -20 -6 0 -10
58 -10 155 0 85 2 155 5 155 3 0 26 -10 51 -21z m121 -57 c89 -43 164 -94 252
-172 83 -73 211 -223 211 -247 0 -7 4 -13 10 -13 21 0 130 -263 130 -314 0
-13 6 -39 14 -57 23 -57 39 -232 32 -348 -12 -184 -53 -336 -136 -500 -118
-235 -288 -414 -503 -532 -38 -22 -73 -36 -77 -34 -5 3 -32 76 -61 163 -50
151 -52 162 -56 285 -1 70 1 127 5 127 5 0 37 -46 72 -102 119 -192 211 -330
216 -325 3 2 -35 67 -83 143 -205 322 -195 301 -205 421 -5 58 -7 107 -6 109
4 4 89 -71 202 -177 91 -85 221 -198 251 -218 30 -20 -89 95 -273 263 -89 83
-165 159 -167 170 -2 12 -6 37 -7 56 -3 30 0 35 17 33 18 -1 317 -109 538
-193 43 -17 84 -30 90 -30 21 1 -36 28 -139 65 -54 20 -145 54 -201 76 -56 21
-105 39 -108 39 -3 0 -48 16 -100 36 l-95 37 0 45 0 45 180 -8 c99 -4 197 -9
218 -10 57 -6 382 -8 387 -3 4 4 -203 15 -642 35 l-143 6 0 53 0 53 98 30 c53
17 183 56 287 87 212 62 368 115 361 121 -4 4 -289 -78 -586 -167 -74 -23
-142 -42 -150 -43 -12 -2 -15 10 -15 53 l0 54 70 48 c39 27 129 88 201 136
156 104 333 234 334 245 0 5 -51 -27 -112 -69 -178 -124 -481 -324 -490 -324
-4 0 -6 33 -5 73 l3 73 84 120 c84 120 171 238 257 349 25 33 34 49 20 36 -15
-13 -53 -58 -84 -100 -32 -42 -69 -89 -83 -104 -14 -16 -51 -65 -82 -108 -68
-95 -104 -139 -114 -139 -10 0 4 295 16 361 6 29 19 71 29 94 22 47 63 171 67
200 3 25 3 25 9 25 3 0 31 -13 62 -28z m-934 6 c-5 -7 -8 -24 -6 -38 2 -14 5
-54 7 -90 1 -36 6 -78 9 -95 14 -62 17 -92 18 -159 1 -38 5 -82 10 -99 8 -28
8 -29 -10 -13 -11 10 -25 32 -32 49 -7 18 -24 50 -38 71 -25 38 -26 46 -28
198 -2 146 0 158 14 146 14 -11 16 -11 11 3 -8 20 9 39 35 39 14 0 17 -4 10
-12z m-115 -123 c1 -41 -3 -86 -8 -99 -5 -15 -5 -38 1 -60 6 -20 11 -117 12
-215 2 -205 12 -196 -98 -104 -83 70 -205 157 -211 151 -2 -3 11 -15 29 -28
91 -67 271 -216 285 -238 12 -19 13 -28 4 -43 -19 -30 -15 -116 5 -128 10 -5
15 -12 12 -15 -8 -8 -71 10 -229 69 -80 30 -183 66 -228 82 l-84 27 6 36 c3
19 18 62 34 95 16 33 32 70 36 83 4 12 22 42 40 65 18 24 46 65 61 92 44 77
303 323 325 310 4 -2 7 -38 8 -80z m1464 -69 c32 -4 60 -11 62 -15 3 -4 18 -6
35 -3 22 3 32 -1 40 -16 6 -11 17 -27 25 -35 42 -41 152 -239 136 -245 -4 -2
-28 8 -53 22 -25 13 -68 30 -96 37 -32 8 -53 20 -59 33 -6 12 -51 67 -101 123
-94 106 -108 129 -68 114 12 -5 48 -11 79 -15z m-1209 -528 c64 -97 79 -126
84 -169 l6 -53 -32 25 c-17 13 -44 33 -59 44 -137 100 -173 131 -177 149 -2
12 -7 91 -10 176 l-6 155 59 -105 c32 -58 93 -158 135 -222z m1424 230 c75
-27 103 -57 103 -109 0 -44 -34 -105 -64 -113 -10 -2 -15 -9 -11 -15 11 -19
31 -12 43 14 6 14 18 25 27 25 13 0 15 -28 13 -215 -3 -175 -6 -217 -17 -225
-11 -6 -12 -12 -4 -22 10 -11 18 -103 13 -133 -1 -5 -1 -27 0 -48 1 -29 -5
-43 -29 -68 -17 -17 -31 -40 -31 -52 0 -20 2 -19 18 8 11 17 26 36 35 43 13
11 17 10 26 -7 10 -19 10 -29 -6 -68 -4 -10 -7 -25 -8 -33 -6 -80 -39 -190
-57 -190 -5 0 -8 -6 -6 -12 7 -19 -83 -195 -134 -263 -60 -82 -275 -295 -297
-295 -5 0 -14 7 -21 15 -7 8 -17 12 -23 8 -6 -4 -4 -11 7 -18 14 -11 13 -15
-11 -40 -32 -31 -160 -105 -184 -105 -17 0 -44 54 -59 117 -7 29 -5 33 22 44
17 7 69 36 115 66 93 58 98 60 90 39 -3 -8 3 -32 14 -53 l19 -38 -6 57 -6 57
74 74 c41 41 78 82 81 91 4 9 13 16 21 16 7 0 17 8 20 18 15 40 61 102 77 102
4 0 10 -19 14 -42 4 -24 11 -50 17 -58 6 -10 6 1 2 30 -15 89 -14 91 51 126
33 18 67 33 75 33 18 1 43 54 37 78 -4 13 -5 12 -6 -5 0 -13 -6 -20 -11 -17
-10 6 -11 19 -12 103 0 23 -4 42 -9 42 -11 0 -12 43 -2 54 7 7 12 24 18 66 12
84 29 160 35 160 5 0 8 17 8 38 1 20 1 46 2 57 3 48 -10 191 -24 257 -8 40
-20 102 -27 138 -6 36 -15 70 -20 75 -4 6 -24 51 -44 100 -20 50 -39 96 -42
103 -8 18 28 15 94 -10z m-2096 -279 c72 -31 148 -60 314 -119 86 -31 145 -58
145 -67 0 -3 -9 -3 -20 0 -11 3 -18 1 -14 -4 15 -25 28 -132 14 -124 -6 3 -10
16 -11 28 0 12 -4 31 -9 42 -6 13 -7 3 -3 -27 3 -27 2 -48 -3 -48 -33 -1 -387
-20 -465 -26 l-96 -6 -5 30 c-6 43 8 173 28 257 9 39 17 76 17 83 0 19 29 14
108 -19z m619 -95 c78 -48 130 -96 130 -121 0 -13 -4 -23 -10 -23 -10 0 -240
77 -246 82 -2 3 -7 138 -5 163 1 5 20 -9 44 -32 23 -22 62 -53 87 -69z m1659
-5 c14 -92 13 -163 -1 -191 -5 -10 -5 -18 0 -18 12 0 15 -177 3 -184 -5 -3 -7
-15 -4 -26 6 -21 -25 -135 -34 -126 -8 8 -4 626 4 639 11 18 20 -10 32 -94z
m-1029 33 c0 -42 -5 -51 -47 -94 -51 -52 -54 -64 -7 -23 41 35 54 32 54 -14 0
-45 -11 -56 -76 -76 -63 -19 -60 -20 -77 15 -15 29 -14 31 33 96 27 36 62 85
77 109 15 24 31 41 35 39 4 -3 8 -26 8 -52z m-505 -218 c0 -14 -16 -17 -127
-21 l-126 -4 -4 58 c-2 32 -3 61 -2 64 2 3 61 -14 131 -37 96 -32 128 -47 128
-60z m246 35 c73 -24 92 -96 41 -156 -31 -36 -42 -39 -98 -29 -84 15 -99 123
-25 173 39 27 38 26 82 12z m-1417 -104 c19 -9 22 -22 29 -130 8 -117 8 -119
-15 -136 -19 -15 -23 -27 -23 -69 0 -55 23 -85 57 -77 23 6 29 -4 67 -108 28
-78 30 -91 17 -101 -21 -15 -32 -90 -16 -109 7 -9 29 -15 50 -15 33 0 44 -6
75 -42 20 -24 50 -63 66 -87 24 -37 27 -46 15 -53 -22 -12 -32 -96 -14 -114
24 -24 84 -29 113 -10 26 17 27 17 69 -21 23 -21 56 -50 74 -65 l32 -28 -20
-32 c-11 -18 -20 -43 -20 -55 0 -31 45 -63 91 -63 30 0 42 6 63 32 l25 32 80
-38 c87 -43 114 -73 93 -106 -7 -11 -12 -29 -12 -41 0 -18 -34 -143 -96 -361
-4 -14 -19 -18 -72 -20 -61 -3 -67 -5 -72 -28 -6 -25 -37 -40 -49 -23 -3 5
-22 20 -41 33 -19 13 -40 30 -45 38 -6 7 -16 12 -22 10 -22 -6 -197 167 -273
270 -42 57 -95 140 -117 185 -53 107 -108 272 -122 367 -6 41 -18 110 -27 154
-12 61 -13 80 -4 86 10 6 9 19 0 61 -17 74 -24 331 -15 533 6 146 9 165 22
154 8 -7 25 -17 37 -23z m993 17 c6 -4 13 -23 16 -42 4 -33 4 -33 5 8 l2 42
81 0 c76 0 80 -1 77 -21 -2 -17 -22 -28 -98 -55 -52 -18 -106 -35 -120 -38
-27 -5 -27 -5 -36 -8 -3 -2 -7 23 -9 54 l-3 57 31 4 c18 2 34 4 37 5 3 1 10
-2 17 -6z m-152 -76 l0 -69 -237 -73 c-131 -40 -246 -78 -257 -84 -30 -16 -38
-12 -49 20 -19 52 -36 230 -25 241 6 6 93 15 199 20 104 5 209 10 234 12 25 2
65 4 90 3 l45 -1 0 -69z m-619 31 c5 -6 20 -163 17 -169 -5 -10 -133 92 -133
106 1 50 40 80 90 70 14 -3 26 -6 26 -7z m1439 -8 c11 -8 13 -55 2 -65 -3 -4
-18 1 -32 10 -35 23 -75 37 -75 27 0 -5 15 -14 33 -20 65 -22 76 -39 82 -118
4 -49 2 -73 -5 -73 -6 0 -8 -5 -4 -11 10 -16 14 -119 4 -119 -4 0 -17 17 -27
38 -11 20 -32 62 -48 92 -16 30 -30 49 -32 43 -5 -14 38 -98 82 -162 28 -40
30 -51 35 -152 3 -59 2 -105 -2 -101 -7 7 -93 258 -141 408 -9 27 -19 59 -22
70 -6 15 -2 14 14 -6 11 -14 21 -20 21 -15 0 6 -13 25 -30 43 -16 18 -30 37
-30 43 0 19 49 8 91 -21 l44 -31 -35 31 c-19 16 -38 30 -42 30 -9 0 -11 64 -3
72 8 7 108 -3 120 -13z m-490 -46 c-4 -21 -11 -39 -16 -41 -5 -2 -56 -39 -114
-82 l-105 -78 0 49 c0 27 -4 49 -8 49 -5 0 -7 -25 -6 -55 1 -30 -2 -57 -7 -61
-5 -3 -9 33 -9 84 l0 89 103 32 c56 18 111 36 122 41 40 18 48 13 40 -27z
m-1040 -63 c40 -28 115 -108 115 -124 0 -11 -23 -7 -39 8 -22 19 -61 30 -61
17 0 -6 6 -11 13 -11 24 0 38 -22 24 -38 -10 -13 -9 -14 10 -1 20 12 25 11 40
-4 16 -16 16 -19 0 -47 -10 -17 -15 -30 -11 -30 5 0 3 -5 -4 -12 -15 -15 -16
-48 -2 -48 12 0 30 41 23 52 -7 12 18 51 27 42 8 -10 28 -68 35 -104 2 -13 13
-40 23 -61 12 -24 16 -41 9 -48 -6 -6 3 -21 23 -43 41 -41 64 -77 57 -84 -3
-3 -25 6 -50 20 -24 14 -51 26 -60 26 -29 0 -85 34 -102 63 -15 26 -15 31 -1
68 20 49 20 59 1 59 -10 0 -15 -8 -14 -22 6 -70 -15 -80 -26 -12 -3 25 -13 63
-20 85 -13 36 -13 39 3 37 11 -2 18 5 20 19 3 17 -1 20 -15 17 -15 -4 -24 6
-41 43 -21 44 -39 163 -26 163 3 0 25 -14 49 -30z m1325 -2 c0 -13 32 -115 70
-228 39 -113 84 -249 100 -302 17 -54 48 -146 69 -205 22 -60 73 -207 114
-328 99 -293 149 -435 186 -524 17 -41 31 -76 31 -78 0 -2 -14 -3 -32 -1 l-32
3 -153 460 c-84 253 -171 514 -193 580 -23 66 -47 140 -55 165 -91 295 -126
403 -140 424 -20 31 -14 56 15 56 14 0 20 -7 20 -22z m-100 5 c0 -25 -89 -366
-120 -463 -21 -63 -43 -135 -50 -160 -7 -25 -17 -58 -21 -75 -5 -16 -23 -82
-41 -145 -18 -63 -36 -118 -41 -121 -5 -4 -17 -44 -27 -90 -10 -46 -40 -172
-68 -280 -27 -107 -56 -227 -63 -267 -12 -67 -15 -72 -39 -73 -14 0 -36 -2
-48 -5 -16 -3 -22 0 -19 8 3 7 17 51 32 98 15 47 66 202 112 345 129 393 128
392 162 520 18 66 44 152 58 190 13 39 38 122 54 185 54 213 94 340 107 340 6
0 12 -3 12 -7z m-180 -39 c0 -20 -6 -48 -14 -62 -8 -15 -27 -56 -42 -92 -24
-57 -76 -145 -94 -160 -12 -10 -69 -106 -79 -132 -6 -16 -15 -28 -21 -28 -5 0
-10 -6 -10 -14 0 -8 -3 -17 -7 -19 -5 -3 -6 75 -3 173 l5 178 35 33 34 33 13
-44 13 -45 -6 46 -5 46 82 62 c46 33 86 61 91 61 4 0 8 -16 8 -36z m-330 -78
l0 -104 -62 -45 c-129 -92 -306 -247 -281 -247 5 0 18 10 29 21 26 29 240 200
284 226 l35 22 -3 -187 -4 -187 -35 -53 c-45 -65 -38 -79 7 -15 l34 47 22 -89
c20 -86 62 -187 84 -200 5 -3 10 -11 10 -16 0 -11 -157 106 -201 150 -15 14
-62 55 -105 91 -207 169 -317 330 -339 493 l-6 44 113 36 c62 20 160 49 218
66 58 16 116 34 130 40 14 5 35 10 48 10 21 1 22 -2 22 -103z m601 -109 c26
-84 75 -232 108 -331 34 -98 61 -186 61 -196 0 -51 -228 -53 -244 -2 -9 26 -9
462 -1 505 5 25 4 37 -4 37 -6 0 -11 10 -11 23 0 18 2 19 11 7 8 -12 10 -12 8
5 -3 29 12 117 19 110 3 -3 27 -74 53 -158z m-276 81 c-2 -18 -7 -44 -10 -58
-5 -19 -4 -22 4 -10 26 37 9 -23 -33 -112 -24 -51 -54 -119 -67 -151 -34 -84
-44 -87 -43 -14 1 68 11 117 25 117 13 0 109 196 109 223 0 20 7 37 16 37 1 0
1 -15 -1 -32z m183 -143 c-12 -60 -16 -259 -8 -370 4 -44 5 -82 3 -84 -8 -11
-64 56 -82 98 -22 52 -21 56 38 261 11 41 26 95 32 119 14 60 30 39 17 -24z
m1399 7 c7 -4 10 -17 6 -30 -3 -12 -9 -19 -13 -17 -10 6 -7 -35 3 -51 8 -13 2
-48 -17 -103 -9 -22 -11 -41 -6 -41 6 0 10 8 10 17 0 9 3 14 6 10 9 -9 -6 -48
-16 -42 -5 3 -14 -3 -19 -14 -14 -25 -14 -44 -1 -36 6 3 10 -2 10 -12 0 -10 3
-29 7 -42 4 -17 3 -22 -5 -17 -7 4 -12 1 -12 -6 -1 -17 -39 -67 -40 -51 0 6 7
19 16 27 9 9 11 16 4 16 -7 0 -11 31 -11 93 0 50 0 120 -1 154 0 35 4 75 10
90 5 16 13 36 16 46 6 18 32 22 53 9z m-1567 -23 c0 -11 -4 -18 -9 -14 -6 3
-10 -18 -10 -48 0 -57 -54 -293 -77 -339 -8 -15 -14 -36 -14 -48 0 -11 -4 -20
-10 -20 -5 0 -10 -10 -10 -23 0 -20 -33 -124 -43 -134 -2 -2 -15 25 -27 59
-13 35 -27 68 -31 73 -9 13 5 85 19 94 5 3 19 26 31 49 12 24 24 42 27 39 5
-4 -13 -101 -23 -127 -9 -21 -12 -62 -6 -84 8 -28 23 0 23 42 0 18 4 31 9 28
5 -3 11 9 14 27 3 17 12 50 20 72 11 30 12 42 4 48 -9 6 -9 10 0 13 7 3 9 12
6 20 -5 13 -7 13 -14 2 -12 -19 -12 17 0 40 16 30 41 90 41 99 0 4 14 35 30
68 17 33 30 65 30 72 0 7 5 13 10 13 6 0 10 -9 10 -21z m-904 -205 c124 -50
143 -62 150 -99 3 -20 4 -58 2 -85 -3 -28 0 -54 6 -60 7 -7 7 -13 -1 -21 -8
-8 -19 0 -39 27 -16 21 -46 55 -67 76 -36 37 -114 178 -97 178 4 0 25 -7 46
-16z m279 -190 c64 -64 115 -117 113 -119 -2 -1 -39 3 -83 11 -44 7 -85 13
-92 13 -24 2 -40 31 -42 82 -6 92 -7 105 -15 117 -17 28 8 6 119 -104z m2046
96 c24 -13 25 -63 4 -186 -18 -103 -25 -126 -73 -254 -94 -252 -157 -359 -282
-481 -71 -70 -160 -139 -178 -139 -11 0 -92 223 -145 398 l-25 82 86 41 85 40
26 -25 c41 -40 86 -52 116 -32 22 15 28 27 24 54 -1 4 -5 6 -10 4 -5 -1 -12 6
-16 15 -3 10 -13 26 -21 36 -10 11 -11 17 -4 17 7 0 12 6 12 13 1 13 94 108
154 156 30 24 42 28 56 21 26 -14 84 -12 98 2 18 18 15 36 -13 64 l-25 24 37
68 c53 99 56 102 94 82z m-1361 -82 c7 -24 21 -60 32 -81 18 -37 19 -80 2
-109 -4 -7 2 -4 15 6 12 11 19 26 17 33 -6 16 10 27 19 13 8 -12 -33 -100 -46
-100 -5 0 -9 8 -10 18 0 14 -2 14 -9 -3 -13 -29 -12 -35 5 -35 19 0 19 -9 -2
-32 -19 -22 -10 -36 12 -18 18 15 20 -1 3 -18 -9 -9 -9 -12 0 -12 7 0 17 11
22 25 13 35 27 31 22 -6 -4 -30 -6 -31 -41 -25 -20 4 -50 8 -68 10 -18 2 -45
13 -62 25 -29 21 -30 22 -15 59 8 20 19 46 24 57 9 18 50 206 50 227 0 24 18
3 30 -34z m383 -120 c2 -7 -7 -30 -20 -50 -12 -21 -23 -41 -23 -46 0 -15 -105
-111 -132 -121 -41 -15 -43 4 -3 29 20 12 48 38 62 58 15 21 38 48 50 61 25
26 30 46 11 38 -7 -2 -30 -10 -50 -18 -21 -7 -38 -19 -38 -26 0 -10 5 -11 19
-3 30 15 34 12 13 -10 -19 -20 -52 -19 -52 2 0 5 -4 6 -10 3 -17 -10 -12 -35
6 -28 14 5 14 3 2 -17 -7 -12 -23 -33 -35 -45 -18 -19 -23 -20 -28 -8 -5 15 7
37 30 56 6 5 3 7 -7 3 -25 -8 -22 7 7 37 40 39 14 40 -30 1 -31 -28 -37 -37
-25 -44 10 -6 11 -12 2 -22 -6 -8 -9 -24 -5 -36 3 -12 1 -22 -5 -22 -17 0 -20
92 -4 118 8 12 12 25 8 29 -3 3 -6 1 -6 -5 0 -7 -4 -12 -8 -12 -4 0 -8 12 -7
28 0 21 4 26 20 24 11 -2 25 -8 32 -14 7 -5 16 -7 22 -4 5 3 20 2 32 -3 17 -6
34 -3 59 10 19 10 46 20 59 22 14 2 27 9 29 15 5 16 19 15 25 0z m-1059 -18
c33 -5 63 -13 68 -18 13 -13 14 -110 1 -123 -17 -17 -111 56 -152 116 l-31 47
27 -6 c16 -4 55 -11 87 -16z m147 -34 c43 -30 250 -136 267 -136 16 0 15 -12
-8 -91 -14 -45 -26 -69 -36 -69 -17 0 -141 62 -169 85 -20 16 -20 16 4 9 45
-12 12 14 -38 31 -27 9 -54 21 -59 28 -9 11 -16 90 -13 145 1 28 10 28 52 -2z
m1015 -247 c35 -85 34 -89 -11 -105 -22 -8 -74 -17 -115 -20 -41 -2 -83 -7
-93 -10 -11 -3 -24 1 -30 9 -13 17 -87 40 -87 28 0 -5 14 -12 32 -17 17 -5 33
-15 35 -21 3 -9 -25 -12 -101 -11 -82 1 -106 4 -106 14 0 8 6 14 14 14 13 0
67 39 55 40 -4 0 -26 -11 -51 -25 -37 -21 -54 -24 -116 -21 -99 4 -104 10 -79
94 23 79 23 78 39 65 7 -6 29 -14 48 -18 51 -11 134 -49 156 -72 21 -22 64
-37 64 -22 0 5 15 23 33 39 39 36 33 39 -12 6 -35 -26 -55 -25 -111 8 l-35 21
90 8 c146 12 162 14 173 21 6 4 39 9 74 13 35 3 70 9 78 14 24 14 33 6 56 -52z
m-543 -175 c59 -9 107 -21 107 -25 0 -5 -7 -9 -15 -9 -26 0 -17 -37 16 -64 37
-31 81 -34 109 -6 25 25 26 49 3 66 -17 12 -16 13 5 14 12 0 22 4 22 9 0 11
49 18 158 24 66 4 72 3 72 -15 0 -22 52 -78 72 -78 7 0 25 7 40 14 18 10 30
11 34 5 5 -8 80 -219 110 -309 4 -13 -55 -15 -485 -18 -270 -1 -491 0 -491 3
0 22 74 301 86 323 7 15 14 42 14 60 0 27 3 32 18 28 9 -2 65 -12 125 -22z
m871 -434 c6 -7 -191 -90 -213 -90 -10 0 -31 -6 -47 -14 -16 -7 -101 -23 -189
-35 -189 -27 -195 -28 -175 -41 22 -14 -67 -12 -267 5 -256 23 -309 31 -340
52 -15 11 -48 27 -72 37 -66 25 -100 53 -94 74 4 17 36 18 698 17 382 0 696
-3 699 -5z m-1384 -100 c30 -15 81 -36 113 -46 31 -10 57 -20 57 -23 0 -4 -58
-6 -130 -6 l-130 0 0 35 c0 19 -3 46 -7 59 -5 21 -4 23 18 16 13 -4 49 -20 79
-35z"/>
<path d="M3282 5676 c-1 -19 -6 -63 -11 -98 -16 -103 -30 -226 -37 -328 -3
-52 -10 -122 -15 -155 -11 -77 -12 -126 0 -105 12 22 18 64 41 295 11 116 22
230 25 255 16 151 17 170 8 170 -5 0 -10 -15 -11 -34z"/>
<path d="M13260 7955 c0 -23 -2 -24 -52 -17 -67 9 -336 8 -738 -2 -265 -7
-315 -10 -315 -22 0 -8 -5 -18 -10 -22 -6 -4 -11 -16 -12 -27 -1 -11 -13 -63
-28 -115 -14 -52 -24 -107 -22 -122 2 -16 -2 -29 -10 -32 -7 -3 -13 -10 -13
-16 0 -6 5 -8 10 -5 16 10 12 -32 -5 -48 -8 -9 -14 -31 -13 -52 1 -20 -3 -40
-8 -43 -5 -4 -9 -18 -8 -32 1 -14 -2 -28 -7 -31 -5 -3 -12 -32 -15 -64 -3 -32
-7 -62 -10 -66 -4 -7 -23 -95 -64 -299 -10 -52 -26 -129 -35 -170 -9 -41 -27
-136 -41 -210 -27 -148 -83 -400 -90 -400 -2 0 -2 28 1 63 4 59 4 58 -14 -28
-10 -49 -28 -144 -40 -210 -12 -66 -29 -149 -37 -185 -61 -263 -98 -444 -116
-560 -23 -155 -56 -305 -125 -580 -28 -107 -60 -244 -73 -305 -22 -105 -33
-150 -64 -267 -8 -29 -28 -127 -46 -217 -17 -90 -38 -182 -46 -205 -16 -44
-35 -125 -59 -246 -8 -41 -21 -109 -30 -150 -11 -50 -15 -97 -11 -140 6 -67
-13 -147 -37 -162 -9 -5 -9 -10 0 -19 17 -17 30 -4 37 37 8 39 29 42 34 3 2
-13 10 -38 18 -56 8 -17 14 -39 14 -50 0 -10 7 -31 15 -47 19 -37 19 -60 0
-52 -8 3 -15 0 -15 -5 0 -7 9 -9 22 -6 12 4 28 1 35 -5 13 -11 74 -12 118 -4
11 3 65 5 120 7 72 1 90 4 65 9 -20 4 31 7 125 7 100 0 147 -3 125 -7 -19 -5
67 -6 191 -3 211 5 227 4 237 -12 9 -17 10 -17 17 4 6 20 11 21 58 15 38 -4
48 -3 37 5 -8 6 -28 11 -43 11 -27 0 -28 1 -21 38 4 20 11 48 17 62 6 14 9 30
8 37 -1 8 25 10 96 6 54 -3 111 -5 127 -4 16 0 36 -5 44 -11 10 -9 16 -8 23 3
8 12 10 12 18 0 7 -12 34 -13 147 -8 80 4 142 11 148 17 8 9 -27 10 -134 6
-94 -4 -140 -2 -130 4 8 5 31 10 50 11 19 0 44 5 55 10 13 6 -3 7 -50 3 -38
-3 -141 -6 -227 -7 l-157 -2 6 25 c3 14 7 27 9 29 2 2 42 -2 88 -9 60 -9 122
-11 213 -5 70 4 154 9 186 10 33 2 62 6 65 9 4 5 -310 10 -440 7 -16 0 -28 4
-28 9 0 6 81 10 203 11 318 2 327 2 327 10 0 5 -109 9 -242 10 -334 2 -354 3
-349 20 2 8 4 30 3 49 0 28 25 157 53 274 2 11 7 53 11 95 4 42 10 81 14 86
13 18 42 164 34 176 -5 9 12 11 71 6 43 -4 199 -7 346 -7 l268 0 6 -47 c4 -27
14 -53 21 -59 13 -10 13 -12 0 -17 -13 -5 -13 -12 -4 -39 6 -18 18 -39 25 -46
16 -17 18 -56 1 -46 -13 8 -9 -24 20 -161 19 -86 34 -181 32 -198 -1 -13 32
-70 62 -110 19 -23 28 -45 25 -57 -4 -14 4 -25 29 -40 18 -12 42 -33 53 -48
20 -26 20 -26 21 -5 0 34 -30 102 -50 113 -10 5 -36 36 -58 69 -33 47 -37 58
-21 54 17 -5 18 -1 13 26 -5 25 -3 31 11 31 14 0 15 3 5 15 -7 9 -10 18 -6 22
11 11 17 -4 22 -54 5 -64 26 -135 42 -141 14 -4 11 17 -7 63 -14 33 -22 135
-11 135 6 0 26 -76 60 -235 5 -22 12 -53 16 -70 3 -16 8 -47 9 -69 3 -38 3
-38 -26 -32 -17 3 -28 2 -25 -3 12 -18 87 -22 583 -25 281 -2 516 -6 521 -10
6 -3 15 -28 21 -54 10 -47 38 -122 45 -122 2 0 -3 28 -11 62 -8 35 -17 77 -19
93 -5 34 -12 63 -54 234 -17 68 -29 126 -26 128 2 2 -2 16 -10 31 -14 27 -39
136 -88 372 -14 69 -41 191 -60 272 -19 82 -37 171 -40 199 -3 28 -10 57 -16
64 -11 14 -29 86 -61 255 -30 155 -33 178 -20 160 8 -11 11 -11 11 -2 0 7 -7
15 -15 18 -8 4 -15 14 -15 23 0 14 2 14 11 1 9 -13 10 -13 6 2 -3 9 -9 34 -13
55 -4 21 -11 47 -17 58 -6 11 -11 34 -13 52 -2 18 -10 53 -19 79 -8 25 -13 55
-10 65 4 11 2 19 -5 19 -7 0 -9 8 -5 20 4 12 2 20 -5 20 -7 0 -9 8 -5 19 3 11
1 22 -4 25 -6 4 -8 13 -5 20 3 8 0 17 -5 21 -6 3 -9 10 -6 15 3 5 0 21 -6 37
-6 15 -12 37 -14 48 -6 49 -58 281 -76 342 -50 171 -73 262 -109 448 -11 55
-31 152 -45 215 -15 63 -42 189 -60 279 -19 91 -39 179 -45 197 -11 32 -19 72
-44 214 -8 41 -25 120 -40 175 -14 55 -26 109 -26 121 0 11 -11 58 -26 105
-14 46 -27 95 -29 109 -4 32 -32 167 -51 247 -8 34 -14 70 -14 80 0 20 -90
182 -130 233 -16 19 -31 46 -35 60 -20 72 -45 103 -45 55z m-905 -51 c50 -3
276 -5 503 -5 l412 2 10 -25 c5 -14 25 -48 45 -75 19 -28 35 -53 35 -56 0 -3
12 -24 26 -46 14 -23 24 -43 21 -45 -2 -2 -246 -5 -543 -5 l-539 -1 -3 24 c-2
12 -3 37 -3 53 0 17 -3 41 -7 55 -4 17 -8 3 -12 -47 l-5 -73 -42 83 c-46 92
-83 169 -83 174 0 2 21 1 48 -1 26 -3 88 -8 137 -12z m-165 -117 c0 -5 21 -52
46 -105 l46 -96 -22 -85 c-28 -107 -38 -151 -49 -221 -6 -30 -16 -77 -25 -105
-8 -27 -17 -63 -20 -80 -9 -49 -44 -183 -50 -194 -4 -5 -10 -29 -16 -53 -47
-225 -95 -454 -124 -603 -48 -241 -61 -302 -107 -493 -21 -89 -52 -229 -69
-310 -17 -81 -36 -174 -44 -207 -70 -293 -110 -445 -118 -445 -5 0 -7 9 -4 20
3 11 9 30 12 41 4 13 2 19 -4 15 -8 -5 -18 -36 -28 -91 -1 -5 -3 -12 -4 -15
-1 -3 -3 -20 -6 -39 -4 -29 -2 -32 11 -21 10 9 15 9 15 1 0 -6 -4 -11 -10 -11
-5 0 -16 -13 -25 -30 -9 -17 -11 -30 -5 -30 18 0 11 -30 -7 -31 -10 0 -13 -3
-7 -5 19 -8 1 -107 -57 -314 -5 -19 -14 -60 -19 -90 -15 -86 -29 -152 -39
-190 -5 -19 -20 -80 -32 -135 -12 -55 -26 -104 -30 -109 -11 -13 1 70 22 154
11 41 21 82 24 90 14 58 55 272 55 291 -1 23 -1 23 -12 4 -6 -10 -13 -31 -14
-45 -6 -50 -11 -64 -24 -68 -7 -3 -10 0 -6 6 4 7 9 24 10 39 5 38 26 153 32
178 5 20 5 20 -10 1 -9 -11 -16 -28 -16 -38 0 -10 -5 -18 -11 -18 -7 0 -8 7
-4 18 4 9 11 32 17 50 5 17 12 32 16 32 4 0 8 17 10 37 1 20 7 42 14 50 6 7 8
17 4 21 -4 4 -13 -1 -20 -10 -8 -11 -17 -14 -27 -7 -13 8 -5 13 15 10 4 -1 6
12 4 28 -4 24 -2 28 9 20 7 -6 10 -15 7 -20 -3 -5 -1 -9 4 -9 9 0 27 57 36
115 2 17 7 40 11 53 4 13 3 22 -3 22 -5 0 -13 -15 -16 -32 -13 -68 -15 -80
-21 -99 -11 -33 -26 -10 -20 29 23 139 39 187 57 176 7 -5 9 2 6 20 -4 19 -1
26 10 26 8 0 13 3 10 6 -4 3 -2 19 3 36 6 21 5 36 -2 45 -9 10 -8 13 5 13 9 0
16 5 16 11 0 5 -5 7 -11 3 -17 -10 -3 97 31 241 16 66 34 149 40 185 7 36 14
76 17 90 8 43 21 112 33 180 6 36 19 99 29 140 10 41 24 100 30 130 7 30 16
73 21 95 5 22 16 69 24 105 8 36 31 133 50 215 19 83 46 209 60 280 31 157 88
427 116 550 11 50 29 132 40 183 10 51 22 98 26 104 4 7 11 30 15 53 12 66 29
159 33 180 2 11 7 40 11 64 7 41 9 43 21 26 8 -10 14 -23 14 -28z m1248 -242
c27 -146 36 -185 78 -360 24 -99 60 -256 79 -350 67 -314 97 -460 105 -505 5
-25 25 -110 45 -188 21 -81 34 -154 31 -168 -4 -13 0 -40 9 -61 8 -21 16 -51
19 -68 2 -16 5 -30 6 -30 4 0 13 -54 14 -82 1 -17 4 -29 9 -26 8 5 10 -10 7
-46 -1 -16 2 -21 11 -16 8 6 10 4 4 -5 -8 -13 28 -185 50 -235 8 -16 18 -52
24 -80 6 -27 17 -79 26 -115 8 -36 18 -78 21 -94 3 -16 10 -40 15 -54 5 -14
12 -48 15 -76 3 -28 8 -54 10 -57 2 -4 6 -23 10 -44 7 -45 -11 -40 -21 6 -4
17 -9 28 -12 25 -4 -4 2 -31 23 -96 4 -11 7 -12 13 -1 6 9 10 8 13 -7 4 -15 2
-19 -8 -15 -22 8 -17 -14 9 -38 18 -18 19 -21 3 -15 -14 5 -17 2 -12 -10 3 -8
6 -20 6 -25 0 -6 5 -7 12 -3 7 5 8 3 2 -7 -12 -20 -6 -52 14 -68 15 -12 15
-13 1 -8 -15 5 -15 1 -6 -26 14 -44 16 -49 32 -77 9 -16 11 -28 4 -36 -6 -8
-6 -13 0 -16 9 -3 17 -28 26 -83 2 -11 4 -20 5 -20 3 0 7 -30 11 -77 2 -21 6
-38 10 -38 4 0 9 -12 12 -27 3 -16 12 -57 20 -93 8 -36 23 -103 32 -150 15
-75 42 -194 90 -395 8 -33 26 -114 41 -180 87 -396 117 -515 143 -564 9 -16
-84 -17 -899 -12 l-85 1 -23 118 c-13 64 -29 149 -37 187 -17 86 -29 167 -27
178 1 4 -2 26 -7 50 -6 23 -13 69 -16 102 -3 33 -17 113 -30 178 -14 64 -25
133 -25 152 0 37 -14 52 -33 37 -8 -7 -70 -7 -182 -1 -93 6 -208 8 -255 5
-214 -14 -255 -14 -267 -5 -7 6 -17 7 -24 3 -7 -4 -30 -9 -53 -11 -56 -6 -116
-22 -114 -31 1 -4 -1 -14 -5 -22 -3 -8 -20 -64 -37 -125 -18 -60 -35 -114 -40
-120 -15 -20 -110 -395 -110 -432 1 -27 25 48 50 160 13 53 27 97 33 97 5 0 6
-8 2 -17 -4 -10 -16 -63 -26 -118 -11 -55 -27 -125 -35 -155 -8 -30 -13 -62
-12 -70 1 -8 -4 -50 -12 -92 l-14 -78 -70 0 c-39 0 -102 5 -141 11 -106 15
-185 19 -473 21 -145 1 -265 5 -268 10 -2 4 9 58 25 121 16 62 46 188 66 278
20 90 43 188 52 216 8 29 12 57 9 62 -4 5 -2 11 3 13 5 1 12 22 14 45 3 23 8
47 12 53 4 7 9 33 11 58 5 61 20 157 33 207 38 150 62 254 65 280 3 17 9 50
14 74 6 24 8 49 5 57 -2 7 0 21 6 31 9 16 10 16 11 -5 0 -48 24 -2 35 68 1 8
5 29 9 47 4 17 9 44 11 60 2 15 8 42 14 60 5 17 7 34 4 37 -3 3 -2 13 2 23 17
38 37 152 29 164 -3 5 0 9 7 9 7 0 9 10 7 25 -4 17 0 29 11 35 13 8 13 11 3
18 -11 7 -10 10 3 16 11 4 14 12 10 26 -3 11 -3 20 2 20 5 0 9 8 10 18 1 9 6
42 12 72 6 30 13 69 16 85 3 17 10 46 15 65 15 55 90 384 96 420 1 8 6 35 12
60 5 25 17 78 26 119 9 40 18 76 21 80 7 12 33 143 61 301 24 141 44 233 66
315 6 22 12 49 14 60 11 84 27 153 53 234 17 52 33 110 37 130 12 76 147 607
156 618 5 7 7 17 3 22 -3 6 -1 19 5 30 14 26 12 26 600 26 l495 0 13 -70z"/>
<path d="M12665 6826 c-71 -17 -206 -77 -187 -83 7 -3 -8 -18 -35 -35 -26 -17
-61 -42 -78 -57 -16 -14 -23 -18 -16 -8 8 9 11 21 7 25 -8 7 -68 -56 -115
-124 -44 -61 -109 -194 -125 -257 -40 -153 -40 -342 0 -476 8 -29 13 -59 10
-67 -3 -7 -1 -16 5 -20 6 -3 13 -13 17 -23 19 -46 330 -625 395 -734 40 -68
40 -68 28 -125 -6 -31 -18 -63 -25 -71 -11 -10 -12 -18 -3 -31 8 -13 7 -33 -2
-77 -21 -95 -21 -102 -11 -108 5 -3 10 -18 11 -33 0 -26 1 -26 11 -5 9 18 21
22 70 25 32 2 71 0 86 -4 16 -5 37 -2 53 6 26 13 29 12 59 -23 18 -20 34 -31
36 -25 3 8 28 10 74 6 50 -3 70 -1 70 7 0 9 13 10 45 5 28 -4 50 -2 58 4 9 8
26 7 58 -2 25 -8 72 -12 104 -11 33 2 110 4 172 6 137 2 175 18 48 20 -78 1
-174 15 -122 18 21 1 23 21 2 21 -8 0 -15 5 -15 11 0 7 -11 9 -30 6 -34 -7
-86 8 -94 28 -5 14 -31 168 -40 245 -4 25 -9 64 -12 86 -5 37 2 56 61 170 37
71 71 134 77 141 5 7 7 17 3 23 -4 6 -2 16 3 23 13 15 142 271 142 281 0 4 9
26 19 49 11 23 31 76 46 117 15 41 37 100 48 130 31 85 30 290 -1 385 -60 179
-172 357 -269 427 -57 41 -190 107 -253 125 -69 20 -313 26 -385 9z m380 -50
c97 -26 255 -110 255 -136 0 -4 -19 -12 -42 -18 -49 -13 -57 -9 -143 56 -33
25 -52 36 -41 24 10 -11 40 -36 67 -54 27 -18 49 -38 49 -43 0 -6 -78 -32
-172 -58 -143 -40 -244 -74 -388 -131 -10 -4 -30 14 -63 57 -69 91 -125 153
-131 146 -3 -3 32 -51 78 -108 l84 -103 -38 -61 c-39 -65 -120 -289 -120 -333
0 -31 -27 -57 -144 -144 -49 -36 -99 -73 -112 -83 l-24 -19 0 30 c0 16 -7 49
-16 73 -11 30 -16 77 -15 149 0 109 4 144 19 164 5 6 15 34 21 61 29 117 135
325 167 325 7 0 19 -6 26 -13 14 -14 134 -105 158 -120 39 -24 -81 80 -128
111 -61 41 -61 40 36 105 105 70 253 129 352 141 64 7 204 -2 265 -18z m311
-193 c87 -118 101 -143 152 -269 28 -67 45 -181 40 -260 -4 -61 -16 -93 -25
-66 -5 14 -23 16 -23 2 0 -5 8 -19 17 -29 23 -27 25 -54 9 -87 l-15 -27 -30
44 c-34 47 -95 183 -156 344 -21 55 -60 151 -86 214 -27 62 -46 117 -43 122 6
10 90 37 120 38 11 1 29 -11 40 -26z m-174 -75 c38 -75 62 -132 125 -298 30
-80 70 -176 89 -214 19 -37 33 -70 31 -72 -2 -2 -46 26 -98 62 -52 36 -118 79
-147 95 -29 17 -50 34 -47 39 20 32 44 400 26 400 -6 0 -11 -18 -12 -42 0 -24
-6 -103 -12 -177 l-12 -135 -26 40 c-35 52 -84 100 -138 135 -38 25 -55 29
-110 29 -71 0 -134 -16 -200 -50 -75 -38 -122 -143 -123 -273 -1 -60 23 -169
43 -194 35 -47 78 -87 114 -106 55 -30 170 -29 239 1 27 12 50 21 52 19 2 -2
-13 -25 -32 -53 -38 -52 -88 -144 -79 -144 3 0 22 26 42 58 43 67 83 121 136
180 50 56 88 142 94 215 3 31 7 57 9 57 14 0 324 -214 324 -224 0 -6 -98 -60
-217 -119 -120 -58 -267 -136 -328 -172 -60 -36 -113 -65 -117 -65 -4 0 -30
33 -57 73 -27 39 -76 101 -110 136 -41 44 -57 67 -49 72 9 6 7 10 -5 15 -10 3
-27 23 -38 43 -11 20 -31 51 -44 70 -29 39 -32 53 -10 45 9 -4 15 0 15 9 0 8
-7 17 -15 21 -15 6 -22 56 -7 56 7 0 17 29 38 115 2 6 6 23 9 39 8 41 54 148
72 168 8 9 38 26 66 39 63 27 446 157 467 158 9 1 27 -21 42 -51z m-206 -221
c54 -36 101 -103 114 -160 22 -102 -21 -236 -93 -290 -105 -79 -180 -76 -272
12 -46 43 -65 89 -66 164 -2 91 10 134 54 208 51 86 74 100 157 96 51 -2 74
-9 106 -30z m-437 -482 c36 -49 100 -133 143 -187 43 -53 78 -98 78 -101 0 -6
-101 35 -240 98 -223 100 -286 127 -304 131 -10 2 -20 5 -22 7 -2 2 54 45 124
96 l127 92 15 -22 c8 -13 44 -64 79 -114z m956 -2 c-2 -10 -17 -47 -33 -83
-17 -36 -42 -94 -57 -130 -36 -87 -100 -215 -123 -248 -11 -15 -30 -52 -43
-82 -56 -127 -197 -395 -207 -393 -6 2 -9 -3 -7 -10 3 -6 -9 -35 -27 -63 -48
-74 -75 -124 -103 -186 -9 -21 -20 -38 -25 -38 -6 0 -10 78 -11 193 0 105 -2
201 -5 212 -2 11 -6 97 -10 190 -3 94 -7 197 -8 230 -3 59 -3 60 38 90 23 17
68 47 101 67 63 38 340 174 365 180 8 2 17 5 20 8 13 13 61 40 72 40 7 0 24 9
38 20 31 24 30 24 25 3z m-1215 -107 c25 -10 115 -48 200 -85 85 -38 185 -80
222 -95 36 -15 73 -33 81 -39 13 -10 18 -75 31 -372 9 -198 18 -397 20 -442 2
-46 1 -83 -3 -83 -3 0 -28 42 -55 93 -26 50 -58 106 -70 122 -12 17 -34 50
-48 75 -29 52 -106 184 -206 357 -76 129 -262 489 -262 506 0 5 10 3 23 -5 12
-8 42 -22 67 -32z"/>
<path d="M5375 7932 c-21 -15 -57 -44 -79 -64 -40 -39 -56 -46 -56 -27 0 5 -5
7 -10 4 -6 -4 -7 -11 -4 -17 8 -12 -82 -105 -147 -154 -26 -19 -57 -34 -70
-34 -20 -1 -21 -2 -8 -10 13 -8 14 -18 7 -57 -13 -75 -20 -933 -7 -933 5 0 8
-4 5 -8 -8 -14 -9 -74 -2 -382 10 -444 12 -1603 3 -1965 -4 -176 -9 -379 -11
-452 -2 -78 1 -136 7 -142 10 -10 13 -245 9 -650 -1 -124 1 -228 5 -232 15
-14 185 -31 264 -26 42 2 81 1 86 -4 10 -10 452 -17 456 -7 1 4 17 9 35 11 17
2 35 7 39 10 12 13 131 8 136 -5 4 -10 8 -10 14 -2 4 7 36 15 71 19 74 8 75
17 3 17 -28 -1 -51 2 -51 5 0 3 10 18 23 34 12 15 42 56 67 89 25 34 66 86 93
116 26 30 47 59 47 65 0 6 7 9 15 5 18 -7 21 31 4 54 -9 13 -10 12 -5 -2 3
-10 1 -20 -4 -23 -11 -7 -12 -5 -15 55 -1 25 0 37 2 28 3 -10 8 -18 12 -18 9
0 6 193 -3 236 -6 30 -16 764 -10 764 12 0 81 -160 115 -268 23 -70 79 -246
126 -392 46 -146 105 -330 130 -410 25 -80 59 -180 74 -222 16 -43 29 -84 29
-91 0 -8 7 -20 15 -27 27 -22 16 -30 -42 -30 -36 0 -54 -3 -47 -10 10 -10 622
-19 627 -9 3 9 144 18 388 25 l205 6 19 -41 c10 -23 20 -39 23 -37 7 8 6 81
-2 94 -8 13 -3 24 25 57 10 11 27 31 38 45 11 14 20 20 21 13 0 -7 -13 -28
-30 -46 -16 -19 -30 -41 -30 -48 0 -18 59 54 85 103 50 94 111 188 123 188 19
0 7 37 -58 190 -32 74 -61 146 -65 160 -4 14 -11 30 -15 35 -5 6 -15 28 -23
50 -8 22 -61 157 -119 300 -58 143 -112 285 -122 315 -9 30 -21 64 -25 75 -5
11 -18 45 -29 75 -11 30 -34 91 -50 136 -41 107 -59 161 -67 204 -10 53 -14
63 -109 282 -31 70 -56 132 -56 137 0 6 -6 11 -14 11 -7 0 -19 6 -25 14 -9 11
-6 18 16 35 15 11 31 24 35 28 71 78 115 128 128 146 8 13 49 57 90 98 49 49
88 99 111 144 21 39 37 73 37 78 1 8 22 81 54 187 11 36 22 77 24 93 2 15 5
31 7 35 7 10 16 101 22 222 3 58 10 162 16 231 15 196 4 292 -51 467 -17 51
-30 101 -30 112 0 11 -5 19 -11 18 -11 -3 -63 131 -55 139 2 2 13 -15 25 -39
11 -24 21 -38 21 -32 0 15 -35 90 -66 139 -13 22 -27 47 -31 55 -7 15 -62 90
-108 148 -30 37 -23 42 14 10 14 -13 6 0 -17 29 -51 61 -88 95 -173 156 -85
60 -316 177 -406 206 -40 13 -78 30 -84 38 -8 9 -14 10 -19 3 -4 -7 -53 1
-146 24 -167 41 -318 59 -479 58 -675 -8 -912 -6 -908 6 8 18 -8 14 -52 -16z
m690 -35 c341 12 464 7 581 -24 32 -8 71 -15 87 -16 15 0 27 -4 27 -8 0 -12
55 -39 80 -39 12 0 40 -9 62 -20 23 -11 47 -20 53 -20 7 0 26 -7 44 -16 18 -9
35 -14 38 -11 3 3 -18 18 -47 32 -61 31 -61 42 1 20 24 -9 64 -23 89 -31 56
-19 154 -66 158 -76 2 -5 7 -8 12 -8 13 0 51 -18 85 -40 17 -10 50 -29 74 -42
24 -13 49 -31 55 -40 6 -10 16 -18 22 -18 22 0 129 -125 163 -190 19 -36 42
-74 52 -85 23 -25 42 -105 25 -105 -6 0 -1 -8 11 -18 11 -9 24 -32 28 -50 4
-18 13 -46 21 -62 9 -16 13 -34 9 -40 -3 -5 -2 -10 2 -10 13 0 51 -109 58
-165 4 -27 10 -54 15 -60 7 -9 12 -37 26 -165 14 -118 8 -376 -8 -386 -3 -2
-11 9 -16 26 -6 16 -7 32 -2 35 5 3 8 66 8 140 -1 74 -5 132 -10 129 -4 -3 -6
-9 -3 -14 3 -5 1 -11 -5 -15 -6 -4 -10 7 -10 26 0 32 0 31 -26 -17 -14 -27
-32 -56 -40 -65 -12 -14 -12 -18 -1 -27 11 -10 16 -4 27 27 21 66 37 41 35
-54 -1 -50 3 -85 8 -85 6 0 7 -3 4 -6 -4 -4 -18 1 -32 10 -14 9 -25 12 -25 6
0 -5 5 -10 11 -10 7 0 10 -15 7 -40 -3 -31 0 -39 10 -35 11 4 12 -3 7 -35 -6
-38 -6 -40 19 -40 16 0 26 -6 26 -15 0 -8 0 -18 1 -22 0 -4 -5 -9 -12 -12 -8
-2 -10 3 -6 18 4 18 1 21 -21 21 -18 0 -23 -3 -14 -8 10 -7 7 -16 -11 -43 -17
-26 -21 -42 -16 -66 6 -32 -1 -56 -17 -53 -5 1 -10 -4 -12 -10 -3 -8 3 -10 17
-5 33 10 23 -25 -11 -38 -20 -7 -28 17 -16 50 6 18 2 26 -20 38 -15 9 -19 14
-9 11 10 -3 25 1 33 9 9 8 11 15 5 15 -15 0 -14 27 1 32 7 3 8 9 3 19 -14 21
-16 81 -3 96 6 7 6 13 1 13 -5 0 -10 17 -11 38 0 20 -2 70 -3 110 -2 57 -5 72
-15 68 -13 -5 -18 6 -15 27 0 4 -3 7 -9 7 -5 0 -7 7 -3 15 3 9 -1 23 -10 33
-8 10 -17 49 -21 92 -9 95 -38 201 -85 310 -41 93 -125 230 -141 230 -6 0 -10
6 -8 13 3 11 -40 62 -53 62 -3 0 -30 23 -60 52 -64 61 -79 73 -184 145 -158
108 -300 160 -610 223 -183 36 -461 41 -950 16 -104 -5 -262 -12 -350 -15
l-160 -6 34 28 c47 37 213 182 226 196 6 6 24 23 42 36 l32 25 233 -12 c130
-7 312 -9 413 -6z m364 -291 c251 -39 426 -87 596 -167 77 -35 236 -151 293
-214 28 -30 54 -54 57 -53 4 2 13 -12 20 -29 8 -18 34 -54 58 -80 24 -27 58
-78 75 -115 32 -71 99 -305 112 -395 5 -28 11 -56 14 -62 10 -16 14 -101 4
-101 -4 0 -8 -7 -8 -15 0 -8 6 -15 13 -15 8 0 7 -4 -3 -10 -13 -8 -12 -10 3
-10 18 0 19 -11 13 -217 -3 -120 -8 -234 -10 -253 -3 -19 -7 -53 -10 -75 -3
-22 -9 -41 -15 -43 -6 -2 -11 -14 -11 -26 0 -34 -44 -172 -83 -262 -61 -140
-117 -223 -198 -292 -73 -62 -245 -182 -261 -182 -4 0 -8 -7 -8 -16 0 -21 -20
-39 -55 -49 l-30 -9 39 -5 c21 -3 42 -13 46 -21 10 -18 57 -127 117 -270 24
-58 67 -168 94 -244 27 -77 71 -190 98 -250 76 -172 123 -288 118 -293 -5 -4
-82 132 -182 322 -32 61 -93 174 -136 252 -43 78 -115 215 -160 305 -80 160
-157 301 -309 568 -89 157 -172 307 -182 333 -5 11 -3 17 5 17 16 0 90 111
120 180 42 96 60 218 59 389 -2 170 -13 228 -67 347 -35 78 -80 133 -155 190
-52 40 -61 58 -14 27 16 -10 25 -12 20 -5 -4 7 -26 22 -49 34 -41 21 -41 22
-17 29 23 6 22 7 -9 8 -34 1 -86 15 -128 34 -28 13 -229 1 -298 -17 -38 -10
-44 -14 -26 -17 23 -4 23 -5 22 -128 -1 -69 -4 -128 -7 -133 -13 -21 -2 -986
11 -1026 3 -7 0 -23 -6 -34 -18 -33 6 -40 116 -33 144 9 218 29 318 85 l87 48
17 -31 c31 -61 112 -213 182 -342 39 -71 101 -188 139 -258 37 -71 111 -212
165 -315 55 -103 130 -241 167 -307 38 -66 109 -194 158 -285 50 -91 116 -212
148 -270 32 -58 73 -143 92 -190 18 -47 65 -163 103 -259 39 -95 68 -178 66
-185 -2 -6 -96 174 -209 399 -113 226 -243 480 -288 565 -45 85 -174 333 -287
550 -113 217 -210 400 -215 405 -11 10 264 -533 407 -805 41 -80 132 -257 201
-395 279 -554 501 -991 514 -1011 29 -47 16 -50 -186 -46 -104 1 -286 -2 -404
-8 -118 -6 -271 -11 -339 -13 l-124 -2 -3 25 c-3 14 -69 223 -148 465 -151
460 -227 699 -246 775 -7 25 -22 56 -35 70 -25 28 -54 82 -85 160 -17 42 -21
81 -24 201 -2 82 -1 149 3 149 4 0 13 -6 20 -12 10 -11 12 -9 9 7 -2 14 -13
21 -32 23 l-29 4 6 -127 c8 -148 2 -154 -55 -50 -20 38 -65 98 -99 133 l-62
63 -21 -23 c-20 -22 -21 -30 -16 -263 3 -132 4 -539 2 -905 l-2 -665 -480 0
-479 0 1 283 c0 166 4 282 10 282 5 0 6 4 3 10 -3 5 -6 71 -6 146 l0 136 99
197 c112 220 258 498 368 698 19 33 34 65 34 70 0 21 -211 -361 -382 -691 -65
-126 -121 -232 -124 -235 -3 -4 -2 28 2 69 7 80 9 84 151 330 33 58 72 125 85
150 50 89 248 429 358 615 111 188 274 468 312 535 l20 35 -26 -30 c-28 -32
-83 -120 -339 -545 -196 -324 -309 -519 -443 -759 -57 -101 -108 -189 -114
-195 -7 -7 -10 18 -11 79 -3 199 3 1670 7 1677 6 10 6 543 0 928 -4 195 -9
486 -12 645 -2 160 -5 301 -7 314 -3 33 28 40 133 29 81 -9 283 -4 525 12 178
12 616 4 734 -14z m-59 -822 c97 -34 248 -214 286 -339 43 -144 44 -362 4
-523 -20 -80 -28 -97 -55 -118 -78 -59 -364 -89 -331 -35 13 20 4 916 -9 997
-7 40 -7 41 22 39 16 -1 53 -10 83 -21z m-228 -627 c-3 -21 0 -26 12 -21 12 4
16 0 16 -16 0 -17 3 -20 13 -12 9 8 13 2 14 -24 2 -20 -2 -34 -8 -34 -6 0 -9
9 -6 20 4 15 0 20 -15 20 -10 0 -17 4 -13 9 3 5 1 12 -4 15 -5 4 -9 -7 -9 -22
1 -16 -2 -34 -5 -39 -4 -6 4 -10 19 -10 33 0 46 -14 50 -55 2 -18 11 -80 19
-137 12 -82 13 -107 3 -118 -10 -13 -13 -11 -20 12 -3 15 -3 36 1 48 5 12 2
44 -7 77 -8 30 -14 76 -14 103 -1 39 -3 45 -14 36 -11 -9 -14 -8 -14 6 0 14
-3 15 -14 5 -11 -9 -12 -18 -5 -37 5 -13 7 -29 3 -34 -3 -5 -1 -9 5 -9 5 0 11
6 14 13 3 6 4 2 4 -11 -1 -14 -6 -21 -14 -18 -8 4 -12 -3 -11 -19 1 -15 9 -25
18 -26 10 0 11 -2 3 -6 -19 -7 -16 -21 7 -28 21 -7 28 -27 8 -22 -7 1 -12 -2
-13 -8 0 -5 -4 -16 -9 -24 -7 -10 -6 -12 3 -6 9 5 12 1 11 -11 -5 -45 0 -63
15 -58 30 12 14 -12 -49 -73 -35 -34 -66 -68 -69 -75 -12 -30 -26 18 -21 72 3
30 5 75 5 100 -3 63 -3 167 -2 293 1 100 2 107 21 107 11 0 20 5 20 10 0 6 4
10 10 10 5 0 7 -7 4 -15 -4 -9 0 -15 7 -15 11 0 11 -2 0 -9 -8 -5 -21 -7 -30
-4 -14 5 -14 4 0 -8 17 -14 32 -59 20 -59 -3 0 -5 -29 -4 -65 1 -36 -2 -65 -7
-65 -5 0 -6 -10 -2 -22 5 -13 7 -78 7 -145 -1 -116 3 -140 21 -111 8 13 7 395
-1 437 -2 13 -1 29 2 35 4 6 6 26 4 44 -2 25 1 33 11 30 8 -3 12 -16 10 -31z
m1085 -1179 c-2 -7 6 -31 19 -53 40 -68 154 -305 154 -319 0 -8 3 -16 8 -18 8
-4 93 -176 112 -229 16 -44 69 -111 70 -88 0 9 -8 27 -19 40 -20 27 -105 218
-115 262 -5 20 -3 27 9 27 8 0 15 -4 15 -9 0 -5 16 -44 35 -85 19 -42 35 -81
35 -86 0 -6 5 -10 10 -10 6 0 10 -7 10 -16 0 -12 6 -15 24 -10 20 5 28 0 45
-28 12 -18 21 -40 21 -48 0 -9 7 -21 15 -28 8 -7 15 -22 15 -34 0 -13 3 -17 8
-9 8 12 143 -317 146 -354 0 -13 4 -23 7 -23 4 0 12 -15 19 -32 6 -18 23 -56
36 -85 13 -28 24 -54 24 -56 0 -3 16 -40 36 -84 19 -43 39 -87 44 -98 4 -11
24 -59 43 -107 35 -85 38 -122 4 -55 -8 17 -16 25 -16 16 -1 -9 15 -33 34 -53
39 -42 42 -48 18 -39 -11 4 -14 3 -9 -5 4 -7 14 -12 22 -12 8 0 14 -7 14 -16
0 -13 -3 -14 -14 -5 -12 10 -14 8 -9 -11 2 -13 -15 12 -38 55 -45 80 -76 109
-38 35 37 -73 83 -138 98 -138 10 0 11 3 2 14 -8 9 -9 16 -2 21 22 13 22 -42
0 -81 -13 -21 -26 -41 -30 -44 -13 -10 -149 -203 -149 -212 0 -26 -22 10 -36
60 -9 31 -21 62 -26 68 -5 7 -10 25 -11 42 -1 16 -6 28 -11 24 -5 -3 -7 2 -3
11 4 10 -8 44 -28 82 -19 36 -34 68 -34 70 -1 3 -8 21 -16 41 -8 20 -15 41
-15 46 0 5 -11 34 -25 64 -14 30 -25 61 -25 69 0 7 -4 17 -10 20 -5 3 -10 15
-10 27 0 11 -7 32 -15 46 -8 15 -21 45 -29 67 -7 22 -30 78 -50 125 -20 46
-36 92 -36 102 0 9 -4 19 -9 22 -5 3 -12 23 -17 43 -4 21 -8 40 -10 43 -1 3
-5 15 -9 28 -4 12 -11 22 -16 22 -5 0 -9 5 -9 12 0 6 -11 34 -24 62 -28 60
-96 235 -137 356 -25 74 -26 82 -9 60 l21 -25 -18 40 c-10 22 -35 71 -55 109
-21 38 -38 73 -38 78 0 5 -18 40 -40 77 -52 87 -76 157 -61 175 17 21 51 27
51 9 0 -8 -4 -11 -10 -8 -6 4 -10 -6 -10 -22 0 -46 44 -173 60 -173 7 0 89
-160 111 -215 21 -56 28 -86 18 -79 -11 6 19 -74 34 -94 8 -11 12 -11 19 0 7
10 8 10 5 -2 -2 -8 -10 -14 -16 -12 -16 3 -15 1 20 -83 4 -11 20 -49 35 -85
14 -36 42 -99 62 -140 20 -41 35 -83 34 -93 0 -12 4 -17 13 -13 8 3 17 -3 20
-15 4 -10 10 -19 15 -19 5 0 -7 26 -26 57 -36 60 -46 95 -20 74 12 -10 13 -8
9 8 -3 12 -9 18 -14 15 -11 -6 -48 35 -49 54 0 11 13 16 32 13 4 0 5 6 1 15
-5 13 -7 13 -14 2 -5 -7 -9 -8 -9 -3 0 6 -5 3 -10 -5 -8 -13 -10 -13 -10 2 0
10 -9 33 -20 53 -11 19 -17 35 -15 35 3 0 -2 14 -10 30 -9 17 -13 35 -10 40 3
5 1 11 -5 15 -14 9 -13 28 2 23 6 -2 24 -33 39 -69 33 -75 39 -60 8 21 -27 71
-44 107 -70 150 -12 19 -32 69 -45 110 l-23 75 22 -30 c12 -16 20 -30 17 -31
-3 0 0 -7 6 -15 6 -8 19 -38 28 -66 10 -29 22 -53 27 -53 5 0 9 -7 9 -15 0 -8
5 -15 12 -15 6 0 8 -3 5 -7 -4 -3 -1 -13 7 -22 8 -9 26 -46 41 -83 29 -73 41
-87 30 -36 -7 29 -93 207 -106 218 -11 9 -29 73 -29 101 0 26 -38 111 -52 117
-5 2 -8 9 -8 16 0 20 -78 165 -85 158 -3 -4 -3 1 1 11 3 9 2 17 -4 17 -5 0
-13 15 -16 34 -4 19 -12 36 -18 38 -10 4 -3 48 9 48 3 0 3 -6 0 -12z m-1053
-1120 c-2 -3 2 -37 10 -75 8 -37 12 -97 10 -132 -2 -49 2 -76 20 -118 12 -29
25 -51 28 -48 2 3 2 -16 -2 -42 -5 -32 -4 -51 4 -56 8 -6 8 -10 -1 -14 -16 -6
-17 -52 -2 -90 10 -26 12 -27 19 -8 8 19 9 19 9 -2 1 -14 -5 -23 -14 -23 -9 0
-15 -9 -15 -22 0 -19 2 -20 10 -8 5 8 10 11 11 5 3 -24 5 -31 13 -53 6 -18 1
-30 -26 -61 -18 -20 -46 -55 -63 -76 -16 -22 -37 -46 -45 -55 -8 -8 -29 -36
-45 -62 -32 -51 -52 -63 -41 -25 4 12 6 77 6 145 -1 77 3 122 9 122 7 0 9 -35
7 -97 -2 -54 0 -107 4 -118 6 -13 9 12 9 67 1 48 6 90 11 93 6 4 10 -18 10
-59 0 -37 4 -66 10 -66 13 0 13 123 1 136 -6 5 -13 32 -17 59 -9 64 -11 442
-2 475 8 30 9 13 13 -245 2 -99 8 -191 13 -205 7 -17 9 34 7 170 -1 107 -4
200 -5 205 -6 23 1 208 7 202 3 -4 8 -51 9 -105 3 -143 17 -278 28 -290 3 -3
3 33 0 79 -2 46 -7 127 -10 179 -2 52 -5 104 -6 115 -1 11 0 49 1 85 2 45 5
59 10 45 5 -11 7 -23 5 -27z"/>
<path d="M6395 5442 c-7 -20 -6 -75 3 -88 4 -6 37 -9 85 -6 l77 4 0 33 c0 18
-8 39 -17 48 -24 20 -141 28 -148 9z"/>
<path d="M5864 5056 c-12 -8 -27 -29 -34 -46 -7 -16 -16 -30 -21 -30 -5 0 -9
-7 -9 -16 0 -14 16 -16 130 -13 101 3 131 1 135 -9 9 -23 6 -32 -10 -26 -8 4
-15 1 -15 -5 0 -6 5 -11 10 -11 16 0 11 -37 -6 -44 -23 -9 -62 -7 -68 2 -9 14
-136 13 -133 -1 1 -7 -7 -12 -18 -12 -17 0 -20 7 -20 42 0 52 -11 64 -25 28
-15 -39 13 -125 41 -125 10 0 19 5 19 10 0 6 14 10 30 10 17 0 30 -4 30 -10 0
-5 5 -10 11 -10 5 0 7 5 4 10 -3 6 3 10 14 10 12 0 21 -4 21 -10 0 -5 14 -10
30 -10 17 0 30 4 30 10 0 6 10 5 25 -2 14 -6 28 -9 31 -5 12 11 27 83 29 138
2 46 -2 62 -24 95 l-27 39 -79 3 c-58 2 -86 -1 -101 -12z"/>
<path d="M6444 5033 c-40 -43 -44 -88 -18 -169 26 -78 51 -95 72 -51 6 12 11
16 11 10 1 -7 13 -13 27 -13 17 0 23 -4 18 -12 -4 -7 1 -6 12 3 10 9 26 17 34
17 8 0 25 4 37 7 16 5 25 3 29 -9 10 -27 43 -19 49 12 4 15 10 34 14 42 5 9 1
30 -11 53 -11 22 -17 41 -14 44 5 6 -49 81 -69 95 -5 4 -43 8 -84 8 -72 0 -74
-1 -107 -37z m247 -99 c4 -11 8 -31 8 -46 l1 -27 -97 2 c-54 1 -105 -1 -113
-5 -24 -12 -39 5 -46 53 l-6 44 123 -1 c110 -2 124 -4 130 -20z"/>
<path d="M6688 4269 c-15 -6 -41 -32 -58 -60 -18 -27 -38 -49 -46 -49 -17 0
-19 -51 -2 -68 9 -9 9 -12 0 -12 -18 0 -15 -128 3 -181 9 -24 20 -64 26 -89
12 -54 34 -80 66 -80 18 0 28 8 36 30 12 30 35 38 72 24 13 -5 14 -9 4 -15
-17 -10 6 -40 25 -33 11 4 56 8 134 13 31 2 28 21 -5 21 -38 0 -25 6 28 14 44
7 47 6 53 -19 5 -21 12 -26 34 -23 29 3 48 41 71 142 11 46 10 53 -19 115 -27
58 -29 67 -16 77 23 17 19 27 -8 22 -21 -4 -28 3 -52 51 -40 80 -63 109 -97
121 -37 13 -213 12 -249 -1z m266 -30 c14 -11 26 -23 26 -27 0 -4 -63 -7 -140
-8 -126 -1 -142 -3 -155 -20 -14 -18 -15 -17 -11 11 2 17 5 35 5 42 1 17 24
21 142 22 93 1 109 -2 133 -20z m50 -108 l25 -48 -46 -7 c-25 -3 -104 -6 -174
-6 -143 0 -135 -5 -123 73 l7 37 143 0 144 0 24 -49z m-154 -85 c85 0 165 3
177 7 26 10 46 -15 67 -87 14 -44 13 -48 -7 -66 -11 -11 -31 -20 -44 -20 -13
0 -23 -4 -23 -10 0 -13 36 -13 61 0 28 15 26 -13 -3 -32 -17 -11 -34 -12 -77
-5 -31 5 -110 6 -176 2 -66 -4 -129 -7 -140 -7 -28 1 -52 39 -59 93 -4 26 -10
49 -15 51 -5 2 -12 23 -16 47 -7 42 -6 43 16 36 13 -4 27 -13 31 -19 5 -6 8
-1 8 12 0 20 2 21 22 11 14 -8 78 -12 178 -13z"/>
<path d="M5585 4245 c-5 -2 -22 -6 -37 -9 -42 -10 -90 -58 -123 -125 -31 -62
-41 -72 -51 -46 -4 8 -10 15 -15 15 -14 0 -10 -22 7 -41 15 -17 14 -22 -16
-69 -44 -68 -48 -118 -16 -194 27 -65 48 -85 72 -66 7 7 14 19 14 26 0 11 32
14 170 13 l170 -1 0 -23 c0 -28 30 -41 58 -26 18 10 29 40 38 106 2 17 13 42
23 56 15 20 19 43 19 110 0 46 2 89 3 94 5 16 -88 153 -112 166 -21 11 -180
22 -204 14z m192 -125 c6 -14 13 -36 15 -50 l3 -25 -177 -1 c-119 -1 -178 2
-178 9 0 6 9 30 21 54 l21 44 141 -3 c140 -3 142 -3 154 -28z m-106 -98 l149
3 0 -47 c0 -51 -31 -122 -57 -132 -11 -4 -14 -2 -9 9 4 11 -1 15 -19 15 -34 0
-31 -15 4 -30 62 -25 73 -8 96 148 4 26 12 42 21 42 17 0 20 -60 4 -76 -6 -6
-16 -42 -23 -80 -12 -65 -15 -69 -44 -75 -36 -7 -408 -2 -434 6 -18 6 -36 42
-26 52 3 2 15 -1 27 -7 11 -6 26 -9 33 -7 7 2 -5 11 -25 20 -21 9 -38 20 -38
25 0 5 11 26 25 46 14 20 25 42 25 48 0 7 9 21 20 33 19 20 26 21 72 13 28 -5
118 -8 199 -6z"/>
<path d="M8407 7948 c2 -5 42 -8 89 -8 46 0 84 -3 84 -6 0 -15 -274 -289 -287
-286 -12 3 -13 -88 -9 -619 l5 -622 -30 -36 c-16 -19 -29 -41 -29 -47 0 -6 16
-24 35 -38 32 -24 35 -32 35 -76 0 -47 -2 -51 -41 -77 -36 -24 -40 -30 -36
-60 3 -18 12 -44 21 -58 21 -31 20 -35 -3 -35 -11 0 -26 -9 -33 -19 -7 -10
-30 -26 -50 -34 -36 -15 -37 -17 -34 -62 2 -47 23 -74 46 -60 12 7 14 35 3 35
-5 0 -9 16 -10 35 -3 29 0 35 18 35 11 0 38 14 59 31 70 57 71 55 69 -248 l-1
-267 -26 -38 c-15 -20 -37 -42 -50 -47 -12 -6 -25 -18 -28 -26 -7 -17 -49 -20
-59 -5 -4 6 2 18 13 28 22 19 42 69 23 58 -16 -10 -14 8 8 57 47 109 50 121
21 89 -12 -12 -20 -28 -18 -35 1 -6 -6 -26 -15 -44 -19 -37 -35 -37 -100 -1
-56 31 -59 57 -13 108 20 22 36 43 37 48 0 4 2 16 3 28 2 16 -2 20 -16 16 -10
-2 -18 0 -18 5 0 5 -11 15 -25 21 -14 6 -25 18 -25 26 0 16 85 40 102 30 7 -5
9 -1 5 9 -4 11 -1 17 8 17 19 0 19 14 1 29 -11 9 -17 8 -28 -7 -7 -10 -31 -22
-53 -26 -79 -15 -88 -55 -24 -109 39 -34 40 -36 22 -54 -34 -35 -53 -72 -53
-106 0 -20 7 -40 18 -49 27 -25 104 -58 115 -51 6 3 4 -4 -5 -16 -29 -41 -1
-121 43 -121 10 0 30 6 45 12 22 10 28 10 32 0 2 -6 10 -12 17 -12 20 0 12
-96 -9 -119 -28 -30 -37 -79 -24 -127 11 -42 11 -45 -20 -83 -32 -39 -41 -74
-23 -86 6 -3 1 -21 -11 -41 -19 -33 -20 -37 -5 -52 13 -12 23 -14 44 -6 35 12
44 36 12 32 -13 -2 -26 2 -29 7 -3 6 5 11 18 13 25 4 29 27 7 48 -8 9 -15 24
-15 34 0 18 72 111 92 118 5 2 7 -46 6 -110 -3 -109 -4 -113 -25 -111 -12 1
-24 -5 -27 -14 -7 -17 20 -53 39 -53 10 0 11 -155 8 -693 -5 -1017 -5 -1170
-2 -1187 3 -10 -8 -17 -36 -21 l-40 -6 37 -2 c20 0 40 -5 43 -11 6 -10 -8 -13
-57 -12 -16 0 -28 -4 -28 -9 0 -5 20 -9 45 -9 29 0 46 -5 46 -12 1 -7 3 -20 4
-28 1 -8 3 -27 4 -42 0 -16 6 -28 12 -28 7 0 10 20 7 57 l-3 58 250 7 c310 9
835 11 975 3 186 -10 473 -14 390 -5 -41 4 -111 8 -155 9 -54 2 -73 5 -59 11
11 4 234 10 495 14 261 3 475 5 477 6 1 0 2 6 2 14 0 8 14 22 32 30 35 18 93
22 83 6 -3 -5 -19 -10 -35 -10 -61 0 -82 -25 -27 -33 41 -6 64 2 45 15 -9 7
-4 8 15 4 15 -4 26 -3 25 1 -5 27 15 38 67 37 31 -1 58 3 61 7 9 14 24 0 17
-16 -3 -10 1 -15 16 -15 15 0 19 4 14 18 -6 14 -4 15 9 5 8 -7 18 -10 21 -6
14 13 6 23 -18 23 -13 0 -41 9 -62 19 -21 10 -69 22 -107 25 -116 11 -113 25
4 27 58 1 113 1 123 0 9 -1 17 3 17 8 0 6 -17 12 -37 13 -21 0 -54 2 -73 3
-19 2 -50 3 -69 4 -100 3 49 18 208 20 19 1 31 4 28 8 -7 7 -170 13 -351 14
-75 0 -96 3 -87 12 7 7 34 12 62 13 28 0 54 5 57 10 11 15 42 13 42 -2 0 -8 5
-14 11 -14 5 0 7 5 4 10 -3 6 1 10 10 10 9 0 13 -5 9 -11 -5 -9 11 -10 60 -5
36 4 94 7 128 7 45 0 58 3 50 11 -6 6 -28 12 -49 14 -21 1 -90 7 -153 13 -63
5 -125 8 -137 5 -32 -8 -29 10 6 35 51 36 139 155 191 257 28 54 71 164 96
244 25 80 49 154 54 165 5 11 11 36 14 55 4 31 60 294 72 345 3 11 6 43 8 71
1 27 5 54 8 60 23 43 -22 430 -77 649 -10 39 -21 72 -25 75 -4 3 -22 34 -40
70 -22 43 -28 66 -21 68 8 3 4 10 -8 19 -12 8 -36 38 -55 66 -39 62 -182 234
-198 239 -6 2 6 21 26 42 19 21 33 42 30 47 -2 4 13 27 36 51 22 24 40 50 40
60 0 9 7 24 17 33 9 9 17 31 18 48 1 18 15 70 29 117 15 47 27 102 27 123 0
20 2 37 5 37 3 0 23 -9 44 -20 50 -26 52 -19 4 9 -35 21 -36 24 -29 59 4 20 8
60 10 87 4 83 19 220 33 295 9 50 7 234 -3 295 -4 22 -13 57 -21 78 -18 48
-18 61 1 53 11 -4 15 1 15 17 0 16 -3 18 -9 8 -12 -18 -28 -7 -33 24 -6 27 1
32 20 13 19 -19 14 4 -6 26 -19 22 -55 122 -68 191 -4 21 -16 47 -28 57 -16
13 -18 20 -8 26 10 7 8 13 -8 27 -11 10 -20 23 -20 30 0 6 -25 41 -55 78 -47
57 -51 78 -7 44 7 -5 15 -8 18 -5 3 3 -19 19 -48 36 -30 16 -78 54 -108 83
-55 54 -105 87 -234 154 -37 20 -66 38 -63 41 2 2 42 -11 87 -31 90 -37 119
-40 49 -4 -62 31 -179 70 -179 58 0 -5 8 -9 18 -10 11 0 13 -2 4 -6 -8 -3 -22
4 -32 15 -11 11 -34 23 -52 27 -18 3 -53 13 -78 20 -25 8 -58 15 -75 17 -16 1
-36 6 -43 12 -7 5 -15 6 -18 3 -3 -3 -22 2 -42 10 -20 9 -50 17 -67 20 -16 2
-50 8 -75 13 -40 8 -76 13 -172 26 -15 1 -29 0 -32 -4 -2 -4 -73 -6 -158 -4
-324 7 -1106 7 -1101 0z m418 -33 c88 -3 282 -7 430 -10 372 -6 575 -16 575
-28 0 -5 6 -7 13 -4 7 3 46 -4 87 -14 41 -10 91 -19 110 -20 19 -2 40 -6 45
-10 6 -3 26 -10 45 -14 122 -25 284 -94 390 -166 114 -77 299 -300 359 -434
42 -94 96 -314 81 -329 -7 -7 -10 -4 -12 9 0 11 -2 25 -2 31 -1 6 -7 19 -15
28 -8 10 -9 16 -3 16 6 0 9 7 6 15 -4 8 -13 15 -21 15 -8 0 -11 5 -8 10 3 6 1
10 -6 10 -6 0 -9 8 -7 18 3 12 -1 18 -12 19 -15 1 -15 -2 0 -45 8 -26 19 -52
23 -59 4 -6 4 -14 -1 -17 -5 -3 -17 18 -26 47 -10 29 -25 63 -34 76 -13 22
-13 24 2 18 9 -4 16 -2 16 4 0 5 -7 12 -15 15 -8 3 -19 20 -25 38 -6 18 -29
48 -52 67 -22 19 -46 40 -52 48 -39 50 -113 111 -177 145 -41 22 -101 56 -134
76 -69 42 -202 96 -212 87 -3 -4 -1 -7 6 -7 33 0 324 -159 356 -195 23 -26 85
-65 85 -54 0 7 10 1 21 -12 47 -53 70 -89 65 -98 -4 -5 3 -12 14 -16 11 -4 19
-12 18 -18 -1 -7 9 -32 24 -57 24 -42 41 -77 82 -172 34 -77 13 -69 -27 12
-132 266 -291 417 -614 579 -144 72 -267 107 -427 121 -124 11 -879 5 -1201
-10 -110 -6 -210 -7 -223 -4 -20 6 -11 17 87 113 60 58 117 122 126 141 22 43
34 52 60 45 11 -3 92 -8 180 -10z m-418 -310 c21 -3 49 -8 63 -11 19 -4 22 -2
10 6 -12 8 -11 10 7 10 12 0 24 -6 26 -12 4 -10 8 -9 16 2 6 8 11 11 11 5 0
-7 199 -10 577 -10 596 0 722 -5 820 -32 32 -8 74 -19 93 -23 109 -23 286
-101 400 -176 94 -62 211 -172 259 -244 67 -100 209 -444 210 -507 0 -10 3
-65 6 -123 8 -164 5 -406 -5 -484 -9 -62 -16 -92 -36 -154 -5 -17 -49 6 -87
45 l-27 30 25 45 c14 25 28 65 31 90 6 40 4 47 -21 66 -16 13 -42 22 -61 22
-37 0 -45 18 -18 40 11 10 14 24 9 49 -3 23 0 46 10 65 38 71 5 129 -89 156
-39 11 -49 10 -68 -2 -29 -18 -68 -29 -68 -18 0 5 6 10 13 13 7 3 5 8 -8 13
-20 8 -31 16 -60 42 -8 7 -19 10 -25 7 -5 -3 -10 -1 -10 4 0 19 -26 12 -51
-15 -27 -29 -88 -69 -95 -62 -9 10 108 118 128 118 14 0 18 5 14 16 -4 10 3
23 16 34 19 15 20 20 9 34 -7 9 -11 16 -7 16 3 0 2 10 -3 23 -6 15 -4 29 5 42
19 26 17 49 -6 70 -12 11 -20 31 -20 50 0 45 -29 67 -96 73 -46 4 -59 1 -78
-17 -34 -32 -87 -38 -110 -12 -11 12 -30 21 -43 21 -32 0 -29 -18 4 -22 14 -2
28 -8 30 -15 3 -8 -13 -11 -51 -11 -53 1 -69 9 -46 23 6 3 10 11 10 17 0 6 -6
6 -15 -2 -9 -7 -18 -10 -21 -7 -3 3 4 11 16 17 32 17 19 65 -30 115 -37 38
-39 43 -30 75 14 49 14 47 -30 70 -52 26 -95 26 -114 -1 -19 -27 -67 -53 -76
-40 -3 6 -18 -3 -34 -19 -35 -38 -51 -38 -71 0 -8 16 -26 37 -39 45 -12 8 -28
33 -35 54 -9 32 -15 38 -31 34 -19 -5 -19 -6 5 -35 14 -16 25 -40 25 -54 0
-15 6 -24 15 -24 8 0 28 -18 43 -40 15 -21 32 -39 37 -40 6 0 25 9 43 20 18
11 38 20 45 20 8 0 23 11 36 24 30 32 91 51 127 39 35 -12 44 -48 17 -68 -17
-13 -15 -17 27 -62 25 -26 49 -51 54 -54 6 -5 5 -14 -3 -22 -7 -9 -13 -27 -15
-41 -1 -14 -13 -34 -27 -45 -13 -11 -19 -20 -12 -21 6 0 15 5 18 10 11 17 34
11 50 -13 17 -26 21 -64 10 -90 -6 -14 -4 -16 11 -10 13 5 16 3 11 -10 -3 -9
-2 -17 3 -17 9 0 6 47 -6 104 -7 27 -5 29 20 22 14 -3 35 -2 45 3 12 7 22 6
29 -1 8 -8 23 -4 54 15 50 29 120 41 163 29 28 -8 30 -12 28 -54 -1 -40 2 -47
24 -57 28 -13 26 -32 -5 -46 -28 -12 -28 -22 0 -44 20 -16 20 -20 7 -49 -14
-33 -36 -38 -31 -7 3 16 1 16 -25 -3 -16 -11 -41 -32 -56 -48 -15 -15 -30 -24
-34 -20 -4 3 -1 12 5 18 7 7 12 17 12 22 0 6 -14 -5 -31 -23 -29 -33 -33 -55
-5 -32 8 7 17 8 20 3 3 -6 -21 -38 -54 -72 -80 -83 -82 -108 -6 -50 39 30 83
43 58 18 -7 -7 -12 -18 -12 -26 0 -15 80 27 124 66 15 12 26 18 26 12 0 -5 8
-6 18 -3 15 6 16 5 2 -11 -8 -11 -16 -14 -18 -7 -4 12 -22 5 -22 -9 0 -5 14
-7 30 -5 28 4 35 -3 31 -28 -1 -4 8 -3 19 3 11 6 20 15 20 20 0 6 5 10 11 10
8 0 8 -5 -1 -15 -9 -11 -9 -15 -1 -15 7 0 9 -4 6 -10 -9 -14 13 -12 75 6 48
14 56 14 95 -1 23 -8 50 -24 60 -35 19 -21 14 -50 -9 -50 -10 0 -13 6 -10 15
4 8 3 15 0 15 -15 0 -83 -40 -97 -56 -11 -14 -6 -13 29 5 51 26 104 17 75 -13
-5 -4 -9 -20 -11 -34 -5 -55 -6 -62 -13 -62 -4 0 -9 5 -11 10 -2 6 -33 -14
-70 -45 -37 -30 -71 -55 -76 -55 -4 0 -23 11 -42 25 -51 37 -51 30 -1 -24 l46
-48 64 50 c46 34 67 45 70 36 6 -21 22 -29 59 -29 21 0 41 -9 57 -25 32 -31
31 -43 0 -51 -26 -7 -35 -24 -11 -24 20 0 8 -45 -20 -71 -23 -22 -32 -49 -16
-49 4 0 26 -18 50 -39 l42 -38 -41 -52 c-36 -45 -61 -69 -44 -41 3 6 2 10 -4
10 -12 0 -72 -75 -75 -95 -1 -8 -6 -18 -11 -22 -4 -4 -5 -2 -1 5 4 6 2 12 -3
12 -13 0 -14 -10 -3 -28 5 -7 16 -10 25 -6 17 6 19 10 21 37 1 6 10 20 21 30
11 10 14 15 6 11 -9 -5 -12 -3 -7 5 4 6 12 9 17 5 6 -3 20 5 33 18 13 12 36
34 52 47 18 15 24 26 16 28 -16 6 -6 23 14 23 19 0 18 -25 -3 -57 -10 -14 -18
-33 -20 -42 -1 -9 -12 -25 -25 -36 -13 -11 -22 -27 -20 -36 1 -8 -16 -36 -39
-62 -35 -38 -47 -46 -68 -41 -22 4 -23 4 -8 -6 19 -12 23 -40 6 -40 -6 0 -22
9 -36 20 -14 11 -32 20 -39 20 -17 0 -19 -20 -1 -20 6 0 23 -9 36 -19 l24 -18
-29 -19 c-16 -10 -49 -34 -73 -53 -25 -19 -67 -47 -95 -61 -35 -18 -52 -34
-54 -49 -3 -19 -1 -21 14 -13 13 7 36 -4 105 -53 96 -68 133 -98 164 -134 27
-31 7 -41 -70 -34 -55 5 -63 3 -96 -23 -20 -16 -45 -34 -55 -41 -18 -12 -18
-12 1 -6 11 4 34 15 50 25 30 18 95 25 95 10 0 -4 -5 -13 -12 -20 -9 -9 -9
-12 0 -12 7 0 12 5 12 10 0 6 5 10 10 10 21 0 8 -18 -38 -56 -48 -38 -100 -96
-71 -79 21 13 36 26 74 63 19 19 36 29 39 23 9 -13 -21 -59 -42 -66 -10 -3
-28 -22 -42 -42 -34 -52 -60 -72 -92 -73 -22 0 -26 3 -21 18 6 15 5 15 -10 3
-16 -13 -22 -8 -18 13 2 9 -18 26 -30 26 -4 0 -12 -13 -19 -30 -12 -30 -38
-44 -26 -15 3 9 0 15 -9 15 -9 0 -12 6 -9 18 5 13 4 14 -4 3 -5 -7 -7 -22 -5
-32 5 -17 1 -19 -31 -16 -20 2 -39 0 -42 -4 -3 -5 -14 -9 -25 -9 -10 0 -19 -7
-19 -15 0 -8 5 -15 10 -15 18 0 11 -22 -9 -27 -10 -2 -24 -17 -31 -31 -11 -26
-11 -26 7 -9 25 22 34 22 26 0 -4 -11 -2 -15 3 -10 5 5 9 19 9 30 0 32 29 28
33 -5 5 -40 -44 -63 -112 -53 -81 11 -89 11 -93 -2 -3 -7 2 -13 10 -13 9 0 29
-8 45 -17 26 -15 36 -16 64 -5 19 6 46 12 60 12 51 0 71 58 43 124 -8 17 -5
18 48 12 47 -6 57 -5 65 10 9 16 12 16 37 -4 34 -27 44 -27 93 -2 26 13 46 34
58 60 10 22 25 40 32 40 8 0 27 14 44 30 27 27 30 35 24 71 -6 37 -4 41 29 60
19 12 35 25 35 30 0 53 120 -105 194 -256 61 -125 135 -375 135 -460 1 -46
-14 -12 -32 75 -9 41 -21 86 -27 100 -10 23 -10 22 -5 -10 8 -59 14 -91 36
-185 17 -70 21 -125 22 -250 1 -157 -1 -170 -44 -370 -4 -22 -11 -51 -14 -65
-9 -47 -27 -80 -44 -81 -13 -1 -13 -2 2 -6 16 -4 16 -6 0 -36 -10 -18 -21 -34
-24 -37 -4 -3 -23 -36 -44 -75 -61 -116 -196 -269 -250 -283 -16 -5 -31 -14
-33 -22 -3 -9 1 -11 11 -7 14 5 15 3 5 -13 -15 -23 -41 -35 -46 -21 -4 12 -52
-7 -52 -21 0 -15 -119 -65 -242 -103 -288 -87 -598 -110 -1133 -85 -233 11
-564 14 -573 6 -3 -4 29 -6 72 -6 42 0 75 -4 72 -9 -3 -5 -70 -9 -148 -11 -79
-1 -154 -2 -166 -3 l-24 -2 4 230 c1 127 3 449 3 718 0 268 3 487 7 487 5 0 8
-15 9 -32 0 -18 2 -55 4 -83 1 -27 3 -88 4 -134 0 -46 4 -82 7 -78 8 7 6 234
-2 310 -5 38 -11 57 -20 57 -8 0 -14 5 -14 11 0 6 7 9 15 5 8 -3 15 -1 15 4 0
6 -6 10 -13 10 -9 0 -14 14 -14 45 0 25 3 45 7 45 3 0 4 70 2 155 -4 138 -3
155 12 155 9 0 16 -7 16 -15 0 -21 13 -19 28 5 10 17 10 20 -4 20 -14 0 -12 4
7 21 13 11 25 16 27 10 2 -6 13 -9 25 -6 13 3 32 -3 46 -14 l24 -19 -43 -51
-43 -51 16 -36 c9 -19 25 -37 34 -40 54 -17 66 -25 55 -36 -7 -7 -12 -18 -12
-26 0 -15 51 -82 63 -82 12 0 137 83 137 91 0 4 15 20 34 34 l34 26 41 -20
c22 -12 48 -21 56 -21 18 0 54 38 55 58 0 6 7 12 15 12 8 0 15 5 15 10 0 6 7
10 15 10 22 0 18 -23 -6 -38 -17 -11 -19 -16 -9 -25 9 -9 18 -4 39 21 18 21
36 32 54 32 19 0 31 8 42 30 9 17 22 30 30 30 8 0 30 16 49 35 57 56 58 49 55
-327 -2 -184 0 -339 4 -345 4 -7 3 -14 -2 -18 -6 -3 -7 -12 -4 -21 3 -8 6
-104 7 -212 l1 -197 33 -3 c17 -2 32 -7 32 -12 0 -27 -127 -171 -183 -207 -38
-24 -65 -25 -35 0 8 6 27 35 43 62 15 28 39 66 52 85 23 33 23 33 -12 -5 -19
-22 -50 -62 -67 -88 l-32 -49 -11 30 c-5 16 -18 40 -27 53 -16 24 -16 24 -8
-11 4 -19 15 -52 24 -73 16 -37 16 -38 -11 -62 -16 -14 -51 -32 -80 -42 -29
-9 -50 -20 -47 -24 10 -16 204 70 270 120 41 32 137 147 154 186 37 83 50 121
55 160 3 22 10 67 16 100 23 133 30 247 25 387 -2 81 -9 155 -14 165 -5 10
-13 38 -17 63 -8 48 -61 192 -93 257 -32 61 -108 124 -229 187 -62 32 -124 69
-138 82 -14 13 -43 36 -63 50 -30 21 -32 25 -12 19 14 -3 57 -22 95 -40 39
-18 104 -49 145 -69 42 -19 97 -53 123 -76 26 -23 47 -39 47 -36 0 18 -66 94
-96 109 -19 10 -32 22 -29 28 4 5 10 7 15 4 10 -6 35 23 26 32 -3 4 -20 -3
-36 -15 -16 -12 -32 -22 -35 -22 -13 0 11 58 37 88 25 29 33 32 29 10 0 -5 3
-8 7 -8 8 0 29 -43 73 -153 25 -62 59 -105 59 -73 0 9 -18 55 -40 101 -22 47
-45 109 -51 138 -6 28 -20 70 -30 91 -30 64 -7 68 48 9 26 -28 56 -53 66 -56
9 -4 18 -14 19 -24 2 -28 4 -36 16 -66 7 -16 12 -30 12 -33 0 -3 5 -10 10 -17
6 -7 26 -33 46 -60 19 -26 39 -45 45 -42 5 3 6 -1 3 -9 -5 -13 -8 -13 -23 2
-10 9 -30 35 -44 57 -15 22 -27 34 -27 27 0 -7 -11 0 -25 15 -31 35 -33 18 -2
-24 36 -51 131 -162 140 -162 11 -1 9 37 -3 44 -5 3 -10 11 -10 16 0 6 4 7 10
4 6 -3 7 1 4 9 -5 13 1 16 27 16 l34 1 -37 34 c-21 20 -38 39 -38 44 0 4 10
21 21 35 28 36 93 195 108 266 7 30 16 68 21 83 5 16 7 34 4 42 -3 7 -1 16 4
19 9 5 25 -94 23 -141 0 -13 4 -23 9 -23 6 0 10 6 10 14 0 8 12 28 26 45 20
24 28 28 38 18 11 -10 10 -14 -3 -24 -11 -9 -12 -12 -3 -13 8 0 10 -5 6 -12
-4 -7 4 -2 19 11 23 21 25 21 21 4 -3 -11 -25 -32 -49 -48 -40 -25 -52 -39
-62 -72 -1 -7 -5 -19 -6 -25 -2 -7 -7 -20 -11 -28 -14 -33 -55 -194 -50 -201
8 -14 -9 -40 -22 -35 -8 3 -14 -1 -14 -9 0 -8 5 -14 11 -13 6 2 13 -5 14 -14
5 -27 -30 -163 -41 -160 -4 2 -10 -2 -13 -9 -2 -6 0 -9 5 -6 5 3 9 -32 10 -78
0 -45 4 -91 8 -101 4 -11 10 -138 12 -284 2 -146 5 -276 7 -290 3 -14 5 -37 6
-52 0 -16 6 -28 11 -28 6 0 8 11 6 23 -2 13 0 30 5 38 6 9 9 -4 9 -38 0 -32
-5 -53 -12 -56 -9 -4 -10 -8 -2 -14 6 -4 12 -29 12 -55 4 -99 104 -358 138
-358 4 0 18 -10 30 -21 16 -15 29 -19 41 -14 10 5 20 8 23 8 56 -8 86 -17 126
-38 26 -14 59 -24 73 -24 21 1 22 2 6 6 -11 3 -35 18 -53 34 -18 16 -37 29
-42 29 -5 0 -14 9 -20 21 -11 19 -9 19 35 -5 25 -14 52 -26 60 -26 7 0 15 -4
17 -9 4 -13 68 -24 68 -12 0 5 -16 19 -35 31 -19 12 -35 25 -35 30 0 15 29 19
43 6 8 -8 58 -18 123 -24 60 -6 118 -14 127 -18 9 -3 17 -2 17 4 0 5 -12 13
-26 16 -48 12 -15 20 74 17 64 -1 84 1 76 9 -10 10 -163 17 -199 10 -6 -2 -19
-2 -30 -1 -16 1 -14 5 13 21 50 31 38 33 -23 3 -58 -29 -80 -26 -50 7 26 29
11 36 -21 11 -27 -22 -54 -28 -54 -12 0 4 10 20 21 35 30 38 18 42 -16 6 -36
-37 -41 -37 -48 0 -7 33 -27 41 -27 11 0 -24 -71 -44 -108 -30 -68 26 -103 71
-155 202 -29 71 -34 103 -16 91 6 -3 37 21 69 54 91 93 131 188 151 352 14
116 14 94 0 221 -17 155 -58 278 -115 346 l-27 33 44 57 c70 91 110 121 55 41
-25 -36 -12 -36 18 0 29 33 32 15 3 -22 -11 -14 -16 -26 -11 -26 5 0 15 11 22
25 8 14 20 23 27 21 17 -7 29 14 13 24 -11 7 -10 12 3 25 10 9 17 20 17 25 0
4 7 10 15 14 11 4 9 -4 -7 -24 -27 -37 -18 -49 18 -21 15 11 21 21 13 21 -10
0 -10 3 -2 11 6 6 9 18 6 25 -3 8 0 14 7 14 6 0 8 -4 5 -10 -3 -5 -2 -10 3
-10 5 0 12 9 15 20 3 13 14 20 30 20 14 0 29 4 32 10 3 6 11 10 16 10 6 0 7
-4 4 -10 -15 -24 14 -7 46 27 21 22 27 34 16 30 -11 -4 -16 -3 -12 4 4 6 13 8
21 5 8 -3 14 -1 14 4 0 6 5 10 10 10 18 0 10 -15 -31 -58 -23 -23 -36 -42 -30
-42 15 0 49 34 87 86 33 44 71 88 125 145 59 63 19 45 -51 -23 -46 -44 -73
-62 -92 -63 -16 0 -28 1 -28 2 0 8 26 49 35 55 6 5 6 8 -1 8 -6 0 -22 -16 -35
-35 -40 -58 -55 -43 -33 31 9 32 11 50 4 52 -14 5 -2 22 16 22 8 0 12 -4 9
-10 -15 -24 10 -7 38 25 17 20 36 34 43 31 17 -6 28 10 13 19 -6 4 -16 2 -22
-4 -6 -6 -16 -11 -21 -11 -6 0 0 9 14 20 16 13 20 20 10 19 -18 0 -52 -24 -44
-31 3 -4 -11 -18 -31 -33 -39 -31 -59 -27 -30 5 15 16 15 20 3 15 -9 -4 -18 0
-22 10 -3 9 -2 13 3 10 5 -3 13 0 17 6 4 8 3 9 -4 5 -7 -4 -12 -2 -12 5 0 9
-4 9 -15 -1 -8 -6 -19 -9 -24 -6 -5 4 -12 2 -16 -4 -3 -5 -1 -10 5 -10 6 0 8
-4 5 -10 -3 -5 1 -10 9 -10 19 0 21 -17 4 -22 -8 -3 -7 -11 5 -28 21 -31 22
-69 1 -99 -12 -17 -14 -25 -5 -30 9 -6 8 -11 -4 -21 -13 -11 -15 -10 -9 4 3 9
2 16 -3 16 -10 0 -38 -42 -35 -52 1 -5 -2 -8 -8 -8 -5 0 -10 -6 -10 -12 0 -7
-11 -18 -25 -25 -32 -14 -32 -8 1 22 15 14 23 25 19 25 -4 0 0 9 10 20 10 11
13 20 7 20 -6 0 -14 -4 -17 -10 -3 -6 -11 -10 -18 -10 -6 0 4 16 23 35 57 58
25 51 -38 -9 -32 -31 -62 -56 -65 -56 -13 0 -7 25 13 65 18 35 19 40 5 43 -18
4 -49 -27 -72 -71 -12 -23 -17 -26 -29 -16 -15 12 -10 48 9 61 15 9 -12 40
-30 34 -7 -3 -13 -1 -13 4 0 6 5 10 10 10 6 0 10 5 10 10 0 7 -6 7 -20 0 -11
-6 -20 -8 -20 -5 0 9 64 64 76 65 13 0 56 45 49 51 -3 3 18 4 46 3 44 -2 55 2
85 28 19 17 34 34 34 38 0 4 -14 21 -31 38 -26 25 -36 29 -50 21 -22 -11 -25
0 -6 20 10 11 9 12 -3 6 -8 -5 -21 -17 -28 -27 -16 -22 -32 -23 -32 -2 0 8 -5
12 -11 9 -5 -4 -18 3 -28 14 -10 12 -30 21 -45 21 -28 0 -32 8 -16 28 7 9 7 9
-2 2 -28 -23 -37 -10 -17 25 26 44 15 45 -28 3 -24 -23 -36 -29 -44 -21 -8 8
-8 17 0 34 l12 24 -17 -22 c-20 -27 -34 -30 -34 -5 0 13 -2 14 -9 3 -5 -7 -11
-9 -14 -4 -3 5 5 34 19 64 l24 54 -29 -35 c-16 -19 -27 -38 -25 -42 3 -4 -5
-12 -16 -18 -14 -8 -20 -8 -20 0 0 6 -5 8 -10 5 -6 -4 -8 -10 -5 -15 3 -5 -4
-14 -15 -20 -16 -8 -20 -8 -20 3 0 8 7 20 15 27 8 7 15 17 15 22 0 15 -31 -13
-41 -37 -9 -19 -9 -19 -6 1 7 34 -10 53 -18 21 -8 -31 -12 -33 -36 -11 -13 12
-16 21 -9 33 5 10 5 23 -1 32 -7 11 -9 9 -9 -9 0 -29 -20 -19 -21 11 0 12 -6
0 -13 -28 -14 -61 -28 -39 -20 31 3 30 2 44 -5 40 -6 -4 -8 -13 -4 -21 3 -8 0
-15 -6 -15 -6 0 -11 -18 -11 -42 0 -28 -3 -38 -9 -29 -7 11 -11 10 -19 -5 -9
-16 -14 -17 -29 -7 -10 6 -17 16 -15 23 5 22 11 110 7 110 -2 0 -9 -19 -15
-42 -18 -71 -20 -74 -30 -59 -4 8 -6 20 -3 27 2 7 0 21 -6 31 -10 17 -10 17
-12 -2 -1 -11 -1 -26 0 -32 3 -18 -7 -16 -74 17 -33 16 -66 30 -72 30 -28 0
-10 -21 37 -45 28 -14 54 -33 57 -42 8 -20 -21 -75 -49 -92 -19 -12 -23 -11
-35 5 -12 17 -13 17 -13 -4 0 -25 -10 -28 -28 -10 -10 10 -15 10 -21 -1 -5 -8
-7 6 -3 34 3 35 2 46 -7 41 -6 -4 -11 -12 -11 -18 0 -12 -39 -98 -45 -98 -2 0
-1 19 2 43 3 35 2 39 -7 24 -7 -11 -13 -25 -14 -32 -2 -17 -26 -45 -38 -45 -5
0 -6 10 -2 23 4 12 9 29 11 37 3 9 -4 6 -15 -7 -11 -12 -22 -19 -26 -16 -3 4
-6 -1 -6 -9 0 -28 -28 -43 -58 -31 -68 27 -68 27 -35 -8 31 -33 31 -35 17 -74
-7 -22 -14 -41 -14 -42 0 -6 -90 -30 -90 -23 0 4 7 10 15 14 8 3 15 13 15 22
0 13 -5 11 -20 -9 -11 -14 -20 -30 -20 -36 0 -19 -18 -12 -25 9 -8 27 -25 26
-25 -1 0 -38 -67 -67 -86 -38 -3 6 -14 -2 -25 -21 -24 -39 -48 -49 -65 -25 -8
11 -19 15 -31 11 -16 -7 -16 -9 4 -24 24 -18 28 -48 17 -115 l-6 -38 33 3 c41
4 48 21 14 36 -21 10 -24 16 -19 39 4 16 14 37 23 48 10 11 25 33 35 48 10 17
22 25 29 20 6 -4 45 -6 86 -4 67 2 73 1 62 -13 -8 -9 -9 -16 -3 -16 13 0 33
25 25 33 -3 4 11 14 31 22 42 18 85 61 86 87 0 14 20 39 20 25 0 -18 -27 -75
-42 -88 -10 -9 -18 -21 -18 -28 0 -6 -4 -11 -9 -11 -5 0 -13 -9 -16 -21 -4
-11 -13 -18 -20 -15 -7 2 -22 -2 -34 -11 -12 -8 -29 -12 -37 -9 -9 3 -12 2 -9
-5 4 -5 1 -16 -5 -24 -14 -17 -5 -20 13 -5 67 57 67 57 67 34 0 -9 -9 -18 -19
-21 -11 -3 -25 -17 -30 -32 -34 -83 -77 -115 -127 -93 -22 10 -25 17 -20 40
l6 27 -20 -24 c-21 -25 -27 -51 -10 -51 6 0 10 -6 10 -13 0 -8 8 -14 18 -14 9
1 31 0 47 -2 l30 -2 -25 -22 c-29 -25 -107 -118 -109 -129 0 -5 -1 -13 -1 -18
0 -6 -5 -9 -12 -8 -7 2 -29 -28 -49 -66 -20 -38 -44 -73 -53 -78 -16 -9 -16
-8 -1 22 9 17 14 37 11 43 -2 7 -5 5 -5 -4 -1 -9 -10 -24 -20 -33 -16 -14 -23
-15 -41 -6 -21 11 -21 11 11 51 17 22 42 47 55 56 27 17 32 43 9 43 -8 0 -20
8 -26 18 -8 12 -20 17 -34 14 -38 -7 -37 15 2 47 20 17 34 33 30 37 -9 9 -65
-14 -107 -45 -19 -14 -45 -32 -57 -38 l-22 -12 -3 125 c-3 129 -1 139 39 187
12 16 23 37 23 47 0 25 17 34 33 18 14 -12 9 -59 -8 -89 -6 -9 -2 -8 11 2 10
9 24 14 31 12 19 -7 27 19 9 29 -9 5 -16 19 -16 31 0 12 -7 35 -15 51 -20 38
-20 41 15 92 34 50 32 54 -6 19 -32 -30 -44 -32 -44 -6 0 17 35 70 77 117 11
11 17 26 15 33 -2 6 0 10 5 9 4 -2 9 1 11 7 2 5 0 10 -5 12 -18 4 -135 -175
-131 -201 2 -17 -18 -60 -34 -74 -12 -9 -14 -5 -12 27 1 21 4 43 6 47 3 5 4
44 3 86 -3 75 -2 77 31 109 25 24 31 35 21 42 -9 7 -9 10 1 14 6 2 12 9 12 15
0 6 -9 3 -20 -7 -20 -19 -28 -41 -10 -30 21 13 8 -11 -15 -28 l-25 -18 0 34
c0 25 7 39 23 50 l22 16 -22 0 c-15 1 -23 9 -27 29 -3 15 -5 147 -4 295 2 290
2 289 56 251 21 -15 25 -15 41 0 10 9 21 16 24 16 15 0 6 -26 -13 -40 -11 -8
-20 -20 -20 -26 0 -6 -16 -38 -35 -70 -35 -58 -41 -74 -27 -74 4 0 22 27 40
60 18 32 46 74 62 92 17 18 30 38 30 46 0 7 8 25 17 40 56 91 87 134 99 139
18 7 18 23 1 23 -7 0 -44 -38 -82 -85 -62 -78 -95 -103 -95 -74 0 8 -4 8 -15
-1 -8 -6 -22 -9 -32 -6 -10 3 -22 5 -28 5 -21 -1 -35 94 -14 106 14 9 59 -3
59 -16 0 -6 -9 -24 -21 -41 -29 -39 -18 -46 24 -14 21 16 41 24 51 20 9 -3 16
-1 16 5 0 6 7 11 15 11 21 0 55 58 55 93 0 40 -17 24 -25 -22 -7 -41 -35 -79
-35 -47 0 9 -4 16 -10 16 -5 0 -10 -4 -10 -9 0 -18 -31 -21 -37 -3 -4 9 -11
20 -16 23 -6 4 -1 17 12 30 11 12 19 24 17 26 -8 8 -46 -22 -46 -37 0 -12 -2
-12 -9 -1 -5 8 -16 11 -29 7 -20 -7 -21 -4 -19 68 1 56 6 76 16 76 7 0 11 6 8
14 -3 7 0 19 6 25 8 8 5 11 -11 11 l-22 0 0 346 c0 191 -5 434 -11 540 -9 155
-9 197 2 210 6 8 18 13 25 10 7 -3 30 -8 51 -11z m2333 -2140 c7 -8 9 -15 5
-15 -4 0 4 -10 19 -21 79 -62 258 -358 271 -449 3 -19 2 -28 -1 -20 -4 8 -10
17 -13 20 -7 5 -34 63 -32 68 3 5 -74 140 -118 207 -25 38 -79 103 -118 145
-40 41 -73 76 -73 78 0 9 50 -1 60 -13z m-705 -165 c-3 -5 -1 -10 5 -10 6 0 8
-5 4 -11 -5 -8 -9 -8 -14 1 -5 8 -26 -6 -65 -43 -31 -31 -54 -60 -51 -66 4 -5
-6 -21 -21 -35 -21 -20 -30 -23 -46 -14 -14 7 -18 7 -12 -2 4 -7 -13 -31 -44
-62 -28 -27 -51 -55 -51 -61 1 -7 11 -1 23 13 12 14 37 38 54 54 l33 30 -13
-27 c-6 -15 -16 -27 -22 -27 -14 -1 -51 -50 -60 -79 -6 -18 -4 -22 6 -15 8 5
18 9 23 9 5 0 15 10 24 23 9 15 11 22 3 22 -6 0 -14 -7 -17 -15 -4 -8 -11 -15
-17 -15 -5 0 -2 9 8 20 22 24 45 26 45 3 0 -9 10 -27 22 -40 19 -20 20 -25 8
-33 -12 -8 -12 -10 -1 -10 20 0 6 -41 -37 -111 -20 -32 -39 -59 -42 -59 -3 0
-22 15 -42 33 -36 30 -37 34 -29 70 5 20 5 39 0 42 -4 3 -6 11 -4 18 2 7 6 27
9 45 2 18 12 44 20 57 21 31 20 41 -1 24 -15 -13 -15 -12 0 17 24 47 167 173
167 147 0 -4 7 3 16 15 15 22 110 102 120 102 3 0 2 -4 -1 -10z m-71 -397 c-7
-30 -42 -81 -77 -113 -11 -11 -18 -20 -14 -20 13 0 -112 -180 -130 -187 -7 -3
-12 -10 -11 -17 3 -18 -13 -75 -23 -81 -5 -4 -6 1 -3 9 3 9 2 16 -4 16 -9 0
-51 -84 -59 -120 -10 -39 -10 -80 -1 -80 7 0 7 -5 -1 -13 -6 -8 -7 -18 -3 -22
4 -5 2 -5 -5 -1 -6 3 -13 -1 -16 -11 -2 -10 -2 17 -1 60 2 43 6 86 9 97 4 11
2 20 -4 20 -6 0 -11 -6 -12 -12 0 -7 -4 -4 -9 7 -5 12 -3 28 4 40 7 11 10 31
6 45 -4 14 -3 37 1 53 5 18 4 25 -3 21 -6 -4 -9 -1 -7 5 3 7 8 12 13 11 5 -1
13 4 18 12 8 10 9 9 5 -4 -14 -43 -19 -88 -9 -88 6 0 14 9 17 20 4 11 18 27
33 34 45 24 106 95 172 201 51 81 101 142 118 145 1 0 -1 -12 -4 -27z m-97
-301 c88 -119 138 -370 101 -508 -9 -33 -24 -56 -53 -81 -46 -39 -162 -96
-180 -89 -11 4 -13 46 -10 198 5 240 4 230 14 243 14 17 20 55 9 55 -7 0 -7 4
-1 13 6 6 13 26 17 42 8 36 66 155 76 155 3 0 15 -13 27 -28z"/>
<path d="M9381 7284 c-24 -13 -55 -24 -68 -24 -36 0 -108 -73 -134 -136 -21
-51 -40 -66 -54 -44 -11 17 -32 11 -65 -20 -26 -24 -39 -30 -60 -25 -36 8 -79
-10 -89 -38 -5 -12 -20 -29 -34 -36 -14 -8 -28 -19 -30 -25 -9 -22 14 -58 43
-69 24 -9 29 -16 24 -32 -11 -35 -24 -42 -40 -21 -14 19 -15 19 -49 -14 -31
-30 -38 -33 -55 -22 -32 20 -69 14 -94 -14 -30 -33 -56 -61 -78 -81 -16 -15
-19 -15 -38 2 -19 17 -25 17 -53 6 -18 -7 -54 -21 -82 -31 -27 -10 -51 -24
-53 -30 -3 -7 1 -37 7 -66 9 -38 18 -55 32 -59 30 -10 32 -1 9 38 -32 55 -24
78 35 99 48 18 93 19 143 3 21 -7 23 -5 20 15 -1 13 3 25 10 27 6 3 12 -2 12
-11 0 -10 9 -16 25 -16 28 0 31 11 13 40 -10 15 -9 23 6 39 23 25 63 27 94 5
21 -14 23 -14 32 10 9 24 37 46 60 46 6 0 16 -11 22 -25 20 -43 -37 -85 -71
-52 -11 10 -12 8 -6 -10 3 -13 3 -23 -2 -23 -17 -1 -45 -29 -38 -40 5 -8 15
-4 31 11 19 18 27 20 36 11 16 -16 39 -15 32 1 -3 8 2 19 10 26 18 15 56 -2
56 -24 0 -45 43 10 54 68 8 45 -3 47 -32 7 -22 -29 -52 -41 -52 -20 0 6 4 10
9 10 12 0 21 39 10 45 -5 3 2 35 16 70 13 36 22 65 20 65 -2 0 -13 -10 -25
-22 l-20 -22 -26 25 -25 24 28 22 c16 13 43 23 63 24 35 1 35 1 6 8 -38 8 -36
23 5 35 25 8 34 6 44 -7 14 -19 49 -12 42 8 -3 6 10 19 28 29 27 15 37 16 55
6 12 -6 23 -10 24 -8 19 26 46 78 40 78 -4 0 0 8 8 18 8 9 18 25 21 35 4 10
17 17 31 17 15 0 25 7 29 19 3 13 23 25 63 37 33 10 63 24 67 31 11 18 57 16
79 -4 15 -13 18 -14 18 -2 0 44 -71 51 -139 13z"/>
<path d="M9265 6580 l3 -260 -37 -48 c-33 -44 -34 -45 -7 -25 16 13 32 20 37
17 13 -8 11 -64 -2 -61 -7 1 -16 -13 -21 -30 -9 -35 -34 -44 -45 -17 -3 9 -1
25 6 36 7 11 9 23 5 26 -4 4 -9 1 -11 -6 -3 -7 -14 -21 -25 -32 -24 -23 -17
-52 17 -70 14 -7 25 -20 25 -29 0 -14 2 -14 10 -1 19 30 9 0 -12 -37 l-23 -37
27 19 c15 11 28 28 28 37 0 18 18 34 27 25 8 -9 8 -49 0 -80 -4 -16 -4 -26 0
-24 4 3 6 -19 5 -49 -4 -55 -22 -78 -54 -72 -7 2 -13 -4 -13 -12 0 -11 10 -14
39 -12 l39 3 -6 -60 -7 -61 63 0 c69 0 201 22 260 43 21 8 52 28 70 45 40 39
49 40 41 7 -9 -36 5 -31 21 9 8 18 25 47 38 62 13 16 31 43 40 59 9 17 16 23
17 15 0 -9 -6 -24 -14 -35 -7 -11 -16 -31 -20 -45 l-7 -25 20 23 c13 15 21 18
23 10 3 -7 5 1 5 18 0 21 18 56 57 113 58 84 70 118 22 61 -18 -22 -30 -29
-40 -23 -11 6 -12 13 -6 23 8 12 10 12 10 -5 0 -16 5 -13 29 15 25 30 30 33
45 21 12 -10 14 -17 6 -25 -5 -5 -10 -15 -10 -20 0 -6 9 0 19 13 17 22 20 23
34 9 17 -17 12 -30 -34 -89 -24 -31 -44 -79 -33 -79 3 0 21 16 41 35 20 19 40
35 45 35 4 0 8 5 8 11 0 5 -6 7 -12 3 -15 -9 7 20 37 51 12 11 35 39 53 62 18
23 46 47 62 54 31 14 31 29 0 29 -10 0 -20 8 -22 18 -2 12 -12 4 -37 -31 -37
-54 -79 -78 -93 -53 -5 8 -15 13 -22 10 -25 -10 -28 15 -6 46 12 17 23 36 24
43 1 7 5 18 10 25 7 11 4 12 -12 3 -26 -14 -63 -77 -56 -96 10 -24 -3 -17 -26
15 -19 27 -20 31 -6 65 19 45 20 49 8 53 -5 1 -15 -11 -22 -27 -25 -61 -35
-54 -30 22 6 84 -13 204 -41 258 -21 42 -24 53 -10 45 18 -12 61 -118 62 -154
0 -28 2 -32 8 -17 12 29 1 104 -20 147 -11 21 -43 55 -72 76 -29 22 -77 62
-107 89 -30 28 -57 51 -60 51 -3 0 -30 7 -60 16 -30 9 -100 19 -155 21 -55 3
-112 7 -126 10 l-26 6 2 -261z m325 162 c161 -77 263 -266 199 -368 -11 -19
-19 -40 -16 -47 2 -6 12 8 22 32 14 34 20 40 27 27 10 -19 -1 -146 -13 -146
-5 0 -9 -7 -9 -15 0 -8 5 -15 10 -15 19 0 11 -103 -10 -138 -25 -40 -45 -48
-145 -57 -117 -10 -125 -12 -164 -39 -19 -14 -37 -24 -39 -22 -4 5 -11 249
-14 546 -1 118 -6 221 -11 227 -5 7 -6 20 -3 29 9 23 107 15 166 -14z"/>
<path d="M10294 6152 l-42 -47 -12 27 c-21 44 -39 43 -89 -7 -25 -25 -64 -61
-86 -81 -24 -22 -32 -33 -20 -29 26 8 -34 -54 -87 -91 -37 -26 -39 -26 -58 -9
-11 10 -20 23 -20 28 0 6 25 33 55 62 30 28 55 57 55 65 -1 9 -16 -2 -37 -25
-20 -22 -33 -31 -29 -21 5 16 4 17 -9 6 -8 -7 -15 -20 -15 -29 0 -9 -11 -25
-25 -35 -27 -20 -33 -46 -12 -46 8 0 19 -11 25 -25 15 -32 32 -31 82 0 36 23
49 25 120 22 43 -1 82 -6 86 -10 4 -3 -1 -18 -10 -32 -18 -28 -14 -47 9 -39
18 7 53 -13 83 -47 13 -16 32 -29 42 -29 29 0 43 -25 28 -49 -11 -18 -9 -24
17 -50 28 -30 28 -31 10 -51 -18 -20 -18 -21 3 -36 12 -8 22 -23 22 -33 0 -24
-65 -87 -112 -109 -35 -16 -48 -35 -30 -46 15 -9 131 55 152 84 12 17 18 30
14 30 -16 0 13 21 35 25 12 2 38 18 57 35 46 40 29 39 -20 -2 -30 -25 -36 -27
-27 -10 15 29 14 37 -4 22 -9 -7 -18 -11 -21 -8 -6 7 84 98 98 98 5 0 8 7 5
15 -8 19 11 31 26 16 15 -15 24 -14 31 5 5 14 4 15 -8 5 -20 -17 -30 3 -15 30
8 16 8 23 -1 29 -9 6 -9 9 0 15 14 9 70 95 70 108 0 17 -21 -6 -35 -39 -8 -19
-22 -37 -32 -41 -10 -4 -22 -11 -26 -17 -5 -6 -5 -1 -2 12 8 28 -9 29 -29 0
-9 -12 -18 -19 -22 -16 -3 4 3 17 15 29 12 13 20 28 19 33 -1 6 4 21 11 34 12
22 11 23 -7 13 -27 -14 -48 -41 -32 -41 17 0 -27 -46 -72 -76 -44 -28 -48 -29
-74 -10 -18 14 -18 15 14 29 41 17 114 85 106 99 -6 9 -33 -10 -74 -52 -35
-34 -82 -61 -97 -55 -13 5 -9 13 22 45 46 48 39 67 -8 22 -18 -18 -36 -32 -39
-32 -3 0 -24 10 -47 23 l-40 23 22 25 c12 14 31 35 42 48 l20 24 -22 -12 c-12
-6 -25 -16 -28 -22 -5 -7 -11 -7 -20 1 -11 9 -5 19 28 51 37 36 39 40 17 34
-21 -5 -22 -4 -7 5 9 6 17 16 17 22 0 6 -9 3 -20 -7 -10 -9 -18 -22 -17 -29 1
-6 -8 -10 -20 -10 -13 1 -20 -3 -16 -11 5 -15 -9 -20 -79 -34 -27 -5 -48 -5
-48 0 0 5 5 9 11 9 6 0 56 34 111 75 55 41 105 78 112 82 18 11 70 83 60 83
-5 -1 -28 -22 -50 -48z"/>
<path d="M9120 6102 c0 -10 -7 -27 -15 -38 -8 -10 -15 -26 -15 -35 0 -9 -7
-20 -16 -23 -23 -9 -36 -7 -29 4 3 6 4 10 0 10 -3 0 -10 -11 -15 -25 -5 -14
-15 -25 -21 -25 -7 0 -9 9 -5 25 4 14 2 25 -3 25 -4 0 -11 -13 -14 -30 -10
-45 -37 -39 -38 8 0 33 -1 35 -10 14 -5 -13 -6 -28 -3 -33 10 -16 -25 -22 -56
-9 -17 7 -30 19 -30 26 0 8 -4 14 -10 14 -5 0 -10 -4 -10 -10 0 -10 -69 -60
-82 -60 -5 0 -8 7 -8 16 0 11 5 14 16 10 13 -5 14 -4 6 7 -8 9 -9 24 -2 48 15
50 10 81 -5 34 -18 -58 -55 -125 -69 -125 -6 0 -17 4 -25 9 -13 9 -13 21 5 81
6 23 5 24 -10 9 -10 -9 -20 -34 -23 -56 -5 -37 -3 -41 30 -62 33 -20 35 -24
26 -49 -6 -15 -24 -40 -40 -56 -27 -26 -33 -28 -51 -17 -25 15 -32 9 -23 -19
6 -18 12 -21 36 -16 32 6 36 -1 16 -28 -12 -16 -18 -17 -50 -7 -20 7 -39 16
-41 20 -3 4 2 26 10 50 9 27 11 48 5 58 -7 13 -11 3 -17 -37 -5 -29 -15 -55
-21 -58 -7 -2 -13 3 -13 12 0 9 -11 23 -25 32 -40 26 -47 47 -30 95 21 58 12
60 -15 4 l-22 -46 28 -42 c46 -70 113 -127 150 -127 29 0 22 -29 -17 -66 -31
-30 -38 -47 -15 -38 8 3 17 1 21 -5 8 -14 25 -14 25 0 0 5 -4 7 -10 4 -19 -12
-10 30 13 57 12 15 31 40 41 54 18 26 20 26 33 8 14 -18 15 -18 39 11 13 17
28 29 33 28 5 -1 8 3 7 10 0 7 4 12 9 12 13 0 8 -31 -9 -67 l-14 -27 24 15
c13 9 26 24 29 35 8 25 25 25 25 0 0 -34 15 -31 61 10 24 21 49 39 56 39 7 0
29 -20 50 -45 20 -25 41 -45 45 -45 31 0 -49 133 -108 179 -36 28 -24 27 38
-5 61 -31 98 -66 98 -94 0 -11 5 -20 10 -20 6 0 10 6 10 14 0 7 6 19 14 25 7
6 16 29 19 51 3 22 14 59 26 83 12 24 21 53 21 65 0 11 5 33 11 49 14 36 20
83 11 83 -4 0 -16 -19 -26 -42 -21 -47 -34 -36 -17 13 11 32 8 49 -10 49 -5 0
-9 -8 -9 -18z"/>
<path d="M9550 3679 c0 -35 -5 -84 -11 -109 -6 -25 -12 -54 -13 -65 -2 -11 -9
-33 -16 -50 -6 -16 -13 -39 -14 -51 -4 -29 -16 -45 -27 -38 -11 6 -103 -85
-94 -94 8 -9 55 28 55 44 0 9 5 12 11 8 6 -3 15 0 20 7 7 11 9 9 9 -6 0 -10
-27 -45 -60 -77 -73 -72 -50 -81 34 -13 30 25 59 44 63 43 16 -3 93 23 93 33
0 5 47 -16 105 -46 100 -52 145 -66 145 -46 0 5 -15 13 -32 16 -18 4 -54 23
-81 41 -26 19 -54 34 -62 34 -9 0 -18 8 -21 18 -3 9 -10 28 -16 42 l-10 25 -9
-22 c-8 -23 -29 -32 -29 -13 0 6 -5 10 -11 10 -6 0 -9 -6 -6 -13 3 -8 -1 -14
-9 -14 -9 0 -13 6 -9 16 8 20 25 269 20 285 -2 6 -6 28 -8 49 -8 63 -17 55
-17 -14z"/>
<path d="M9395 3432 c-58 -74 -65 -79 -190 -143 -72 -36 -158 -74 -192 -85
-35 -10 -63 -23 -63 -28 0 -13 43 1 180 56 148 60 184 70 200 54 13 -13 30 8
30 36 0 10 16 38 35 64 19 25 35 52 35 60 0 9 5 12 10 9 6 -4 9 -3 8 2 -1 4 3
18 10 31 25 45 -5 18 -63 -56z"/>
<path d="M6303 3105 c-13 -9 -23 -21 -23 -26 0 -6 -6 -16 -12 -24 -37 -37 -83
-100 -80 -108 1 -5 -3 -15 -9 -23 -8 -10 -8 -14 0 -14 6 0 11 -5 11 -11 0 -8
-4 -8 -14 0 -14 12 -46 5 -46 -10 0 -4 25 -8 56 -7 47 1 53 4 40 14 -14 10
-11 12 24 16 40 4 56 -6 23 -15 -14 -4 -14 -5 3 -6 12 0 27 6 34 14 13 16 77
31 88 21 3 -4 0 -11 -8 -16 -12 -8 -10 -10 8 -10 13 0 22 6 22 15 0 17 26 21
32 4 4 -12 188 -19 188 -7 0 4 -39 8 -86 8 -56 0 -83 4 -79 10 4 7 -38 9 -129
7 -120 -4 -154 1 -128 17 9 5 348 20 420 18 32 -1 51 2 47 8 -3 6 -61 11 -128
11 -109 1 -117 2 -72 11 28 6 86 9 130 9 56 -1 75 2 65 9 -8 5 -48 10 -87 10
-79 0 -98 16 -32 26 61 10 26 23 -52 20 -100 -5 -104 10 -4 19 47 4 85 8 83
10 -2 1 -61 6 -133 9 -111 6 -133 5 -152 -9z"/>
<path d="M15927 2881 c-17 -6 -17 -8 -3 -20 8 -7 19 -10 25 -7 5 3 11 1 13 -5
2 -7 55 -12 151 -14 117 -3 150 0 161 11 19 18 26 18 26 -1 0 -12 18 -15 100
-15 79 0 98 3 94 13 -3 8 -10 14 -17 14 -7 0 -25 3 -41 7 -18 4 -25 3 -21 -4
8 -13 -1 -13 -27 1 -15 8 -22 8 -28 -1 -6 -9 -13 -9 -28 -1 -27 14 -94 15 -72
1 10 -7 1 -8 -30 -6 -84 8 -140 19 -146 27 -6 11 -131 11 -157 0z"/>
<path d="M12500 2871 c0 -9 -53 -13 -134 -12 -16 0 -36 -4 -45 -9 -12 -7 -9
-9 16 -10 17 0 34 -4 38 -10 14 -23 546 -3 570 22 7 7 1 8 -18 4 -21 -5 -27
-4 -21 5 5 9 2 10 -12 4 -21 -9 -183 -23 -190 -16 -2 2 -24 5 -49 6 -24 0 -47
4 -51 7 -3 4 -19 5 -34 2 -15 -4 -31 -1 -34 5 -9 13 -36 15 -36 2z"/>
</g>
</svg>
