<?xml version="1.0" standalone="no"?>
<!DOCTYPE svg PUBLIC "-//W3C//DTD SVG 20010904//EN"
 "http://www.w3.org/TR/2001/REC-SVG-20010904/DTD/svg10.dtd">
<svg version="1.0" xmlns="http://www.w3.org/2000/svg"
 width="1928.000000pt" height="1074.000000pt" viewBox="0 0 1928.000000 1074.000000"
 preserveAspectRatio="xMidYMid meet">
<metadata>
Created by potrace 1.16, written by Peter Selinger 2001-2019
</metadata>
<g transform="translate(0.000000,1074.000000) scale(0.100000,-0.100000)"
fill="#000000" stroke="none">
<path d="M14560 8014 c0 -5 9 -20 20 -34 28 -35 25 -48 -12 -53 -31 -4 -31 -4
6 -5 36 -2 38 -3 33 -29 -9 -48 -18 -1151 -18 -2258 0 -731 -4 -1063 -11
-1072 -7 -9 -7 -13 0 -13 6 0 10 -161 11 -472 0 -260 2 -575 3 -700 3 -218 2
-227 -17 -232 -10 -3 -27 2 -37 11 -16 14 -18 14 -18 1 0 -17 23 -40 36 -37
28 5 44 -3 44 -21 0 -12 5 -17 14 -14 8 3 17 1 21 -5 3 -6 2 -11 -3 -11 -18 0
-20 -39 -3 -54 10 -9 20 -16 24 -16 14 0 96 -94 90 -103 -3 -6 -2 -8 3 -4 17
10 43 -19 74 -84 24 -52 30 -77 30 -133 0 -79 7 -83 15 -10 3 27 10 65 16 85
8 34 12 36 42 34 17 -2 87 -3 155 -4 77 -1 121 -5 117 -11 -8 -12 323 -1 349
12 14 7 16 7 11 -2 -5 -9 -3 -9 11 -2 18 9 63 10 332 11 66 1 101 5 97 11 -3
5 -32 10 -63 10 -62 0 -75 5 -85 33 -7 20 -27 14 -27 -8 0 -16 -27 -28 -35
-15 -3 5 -1 11 5 15 5 3 10 40 10 81 0 52 4 74 13 74 21 0 240 -20 280 -25 20
-3 37 -1 37 4 0 5 -32 11 -72 13 -39 2 -73 8 -75 14 -2 6 -36 9 -88 6 -71 -3
-86 -2 -91 12 -11 28 3 48 25 37 10 -6 55 -12 99 -14 45 -2 85 -6 88 -10 4 -4
-1 -7 -11 -7 -10 0 -15 -3 -11 -7 3 -4 96 -8 206 -9 111 -2 205 -6 211 -9 5
-4 25 -8 43 -11 31 -4 33 -2 28 24 -2 15 -2 25 1 22 3 -3 39 -35 79 -71 40
-36 91 -82 113 -102 22 -19 38 -38 35 -40 -3 -3 -63 -8 -134 -11 -72 -4 -132
-9 -135 -11 -2 -3 38 -6 90 -6 52 -1 120 -2 153 -3 l59 -1 50 -98 c27 -53 52
-96 54 -93 2 2 -12 40 -32 84 -45 97 -42 121 6 72 19 -19 44 -48 56 -65 12
-16 24 -27 28 -23 4 3 -10 25 -31 47 -20 23 -35 44 -32 46 2 3 116 2 251 -2
l247 -6 0 -64 c0 -40 4 -62 10 -58 6 3 10 35 10 69 l0 64 46 -6 c31 -3 45 -1
41 5 -8 13 27 20 106 22 l57 2 1 -93 c1 -51 1 -97 0 -101 -1 -5 3 -6 9 -2 6 3
10 45 10 95 0 50 4 92 10 95 6 4 40 7 75 7 36 0 65 4 65 9 0 8 -18 10 -98 13
-34 1 -43 24 -36 89 3 32 7 209 8 393 1 261 -2 334 -11 334 -7 0 -13 5 -13 10
0 6 5 10 10 10 6 0 10 23 10 51 0 27 -4 48 -9 45 -14 -9 -24 173 -16 285 7
111 7 275 -1 329 -3 19 -7 240 -9 490 -4 472 -11 660 -25 660 -5 0 -10 -4 -12
-9 -1 -5 -12 -5 -24 -1 -19 8 -21 15 -18 92 1 45 3 87 3 92 1 4 12 5 26 2 15
-4 25 -2 25 5 0 6 -9 13 -20 16 -11 3 -20 10 -20 15 0 5 9 6 20 3 18 -6 20 -2
21 34 1 23 3 46 4 51 1 6 4 25 6 43 1 17 6 -60 11 -173 4 -113 10 -250 12
-305 3 -55 5 -297 6 -538 0 -404 7 -514 24 -372 3 31 6 264 6 518 -1 347 -4
479 -14 532 -8 39 -12 93 -9 120 12 108 5 618 -8 691 -5 27 -6 56 -3 64 14 32
15 74 15 644 -1 512 1 587 14 582 8 -3 17 -1 20 4 4 6 2 10 -4 10 -6 0 -18 9
-28 19 -10 11 -33 30 -50 43 -17 13 -79 64 -136 113 -133 115 -199 166 -205
161 -2 -3 1 -17 8 -33 12 -26 53 -64 148 -136 20 -16 63 -53 94 -82 32 -31 58
-49 61 -42 3 9 8 8 20 -2 20 -16 23 -36 5 -24 -16 10 -9 9 -253 16 -110 2
-311 1 -447 -4 l-247 -9 -131 132 c-71 72 -130 133 -130 134 0 2 145 1 323 -2
293 -5 508 3 524 20 3 3 3 9 0 13 -10 9 -580 9 -750 -1 -132 -7 -148 -10 -141
-25 4 -9 6 -23 6 -31 -1 -8 -7 -76 -13 -150 -13 -152 -14 -213 -8 -848 2 -250
1 -456 -3 -458 -3 -2 -9 4 -12 13 -3 10 -4 -8 -2 -40 3 -70 -1 -63 -53 79 -21
60 -54 141 -71 179 -18 39 -50 122 -71 185 -38 116 -86 241 -139 360 -16 36
-55 130 -86 210 -30 80 -64 159 -75 177 -21 34 -11 53 15 27 9 -8 16 -11 16
-6 0 12 -28 36 -46 38 -18 3 -60 52 -131 154 -9 14 -34 45 -55 69 -21 24 -36
46 -34 50 2 3 -12 19 -31 35 l-34 29 7 -28 c11 -43 70 -136 123 -190 26 -27
58 -65 70 -82 12 -18 30 -33 39 -34 11 0 8 -4 -8 -10 -14 -6 -38 -8 -55 -5
-16 3 -204 6 -417 7 l-388 1 -31 36 c-17 19 -51 66 -76 105 -24 38 -55 81 -68
95 -13 14 -22 28 -20 31 2 3 56 3 122 -1 157 -8 701 -13 709 -6 18 19 -118 27
-546 33 l-345 5 -32 42 c-18 22 -33 37 -33 32z m2049 -413 c2 -34 0 -119 -5
-196 -3 -44 -5 -87 -5 -95 0 -8 0 -98 -1 -200 0 -102 0 -194 2 -205 6 -62 -3
-392 -12 -402 -19 -24 -24 -13 -20 47 2 33 0 60 -5 60 -4 0 -9 -15 -10 -32 -1
-18 -3 -49 -5 -68 -3 -33 -1 -35 25 -32 l28 4 -4 -94 c-3 -51 -6 -99 -8 -105
-4 -22 -27 -14 -32 10 -3 12 -3 -6 0 -40 5 -71 -10 -86 -22 -20 -8 45 -9 52
-20 165 -5 47 -13 76 -22 79 -7 3 -13 9 -13 15 0 5 5 6 10 3 6 -4 10 6 10 22
l1 28 15 -25 c15 -25 15 -25 8 10 -4 19 -13 44 -20 54 -8 11 -11 30 -7 44 4
18 2 23 -8 20 -8 -3 -13 -14 -11 -24 1 -10 3 -29 4 -42 0 -15 5 -21 14 -18 8
3 14 1 14 -4 0 -6 -7 -10 -15 -10 -8 0 -15 -9 -15 -20 0 -11 -4 -20 -9 -20 -9
0 8 -59 19 -70 3 -3 5 -21 5 -40 -1 -19 5 -47 12 -62 12 -24 11 -28 -2 -28 -8
0 -15 5 -15 12 0 6 -3 9 -6 6 -3 -4 0 -16 6 -28 10 -18 14 -20 21 -9 6 9 9 10
9 2 0 -6 -4 -15 -10 -18 -5 -3 -10 -16 -11 -28 0 -14 -2 -17 -6 -7 -2 8 -7 22
-11 30 -3 8 -6 22 -7 30 -1 8 -5 25 -9 38 -5 13 -3 22 3 22 6 0 11 7 11 15 0
8 -5 15 -11 15 -5 0 -7 -4 -4 -10 3 -5 2 -10 -4 -10 -5 0 -9 8 -9 18 1 9 -2
49 -6 87 -6 53 -5 66 4 55 9 -12 10 -7 4 20 -4 19 -8 58 -9 85 -2 62 -14 115
-26 115 -5 0 -9 -16 -9 -35 0 -19 -4 -35 -10 -35 -5 0 -10 8 -10 18 0 10 -3
22 -7 26 -5 4 -9 177 -9 384 -1 207 -3 456 -4 552 -1 96 -2 179 -1 185 2 15
239 -226 240 -244z m-1749 -3 c0 -9 -5 -18 -12 -20 -6 -2 -8 -10 -4 -16 4 -7
7 -160 7 -340 -3 -1072 -13 -3243 -15 -3276 -2 -28 -9 -42 -22 -47 -10 -4 -14
-8 -7 -8 7 -1 10 -8 7 -16 -4 -8 -1 -15 5 -15 6 0 11 -7 11 -16 0 -9 -5 -12
-12 -8 -10 6 -10 4 -2 -7 15 -22 17 -151 2 -161 -10 -8 -10 -11 0 -15 17 -7
15 -43 -2 -43 -11 0 -14 12 -13 45 1 25 0 45 -4 45 -3 0 -4 28 -2 63 2 40 -2
70 -10 81 -12 16 -16 -112 -17 -553 0 -35 -3 -61 -7 -58 -7 8 -18 247 -17 400
0 59 -3 107 -8 107 -4 0 -8 7 -8 16 0 8 5 12 11 8 8 -4 9 1 4 17 -4 13 -12 26
-16 27 -5 2 -9 16 -10 30 0 23 -1 24 -8 7 -4 -11 -6 -38 -5 -60 10 -165 12
-316 4 -290 -5 17 -11 73 -13 125 -3 52 -8 138 -11 190 -13 208 -15 310 -5
310 6 0 6 7 -1 20 -11 20 -9 77 3 97 4 6 3 14 -2 18 -6 3 -7 13 -4 21 3 9 0
20 -8 25 -10 6 -10 9 -1 9 8 0 12 16 12 45 0 38 4 47 23 55 17 7 18 9 5 9 -11
1 -18 9 -18 21 0 11 -5 20 -11 20 -7 0 -9 10 -5 24 3 14 1 28 -5 32 -8 5 -8 9
1 14 9 5 7 12 -8 26 -20 20 -32 111 -12 99 6 -3 10 -21 10 -39 0 -19 6 -39 14
-45 12 -10 14 -8 9 11 -4 18 -3 20 6 8 14 -20 14 -4 0 22 -6 12 -13 35 -14 52
-2 17 -3 37 -4 44 -1 6 -5 12 -11 12 -5 0 -7 -6 -4 -14 3 -8 1 -16 -4 -19 -4
-3 -9 30 -10 73 l-1 79 25 -9 c15 -6 24 -6 24 0 0 6 -4 10 -9 10 -6 0 -8 10
-6 23 4 21 4 21 -10 3 -8 -11 -15 -18 -16 -15 -1 2 -2 36 -4 74 -3 59 -2 66 8
43 6 -16 14 -28 19 -28 12 0 10 8 -9 37 -22 33 -20 14 -28 318 -18 645 -8
1700 16 1731 5 6 6 14 3 17 -4 4 -8 140 -9 304 -1 164 -6 333 -10 376 -5 53
-4 77 3 77 18 0 135 -172 143 -210 4 -19 8 -102 7 -185 0 -190 0 -205 10 -205
5 0 9 95 9 210 1 241 8 219 -110 355 -50 57 -40 49 51 -40 62 -60 112 -117
112 -127z m353 12 c5 -4 -31 -10 -80 -14 -153 -11 -214 -18 -209 -23 7 -8 73
-5 211 8 180 16 604 35 624 27 10 -3 21 -20 24 -36 3 -16 9 -43 13 -58 5 -25
1 -22 -30 20 -64 88 -57 68 31 -84 27 -47 71 -137 97 -200 26 -63 65 -155 86
-205 79 -182 149 -369 143 -378 -3 -6 -2 -7 4 -4 8 5 39 -70 34 -81 -1 -1 5
-15 13 -31 19 -35 31 -70 102 -286 31 -93 71 -206 89 -250 19 -44 49 -129 69
-190 44 -140 163 -424 199 -475 9 -13 17 -29 17 -35 0 -10 39 -39 45 -33 2 2
-8 37 -22 78 -21 66 -25 98 -29 260 -9 342 -10 565 -3 593 4 15 4 27 -1 27 -5
0 -6 15 -4 33 10 67 13 218 14 727 1 289 4 543 7 565 l5 40 323 2 323 2 6 -32
c8 -45 12 -1845 8 -3557 -1 -426 0 -786 3 -800 3 -14 6 -81 6 -150 1 -82 6
-135 15 -153 12 -25 11 -28 -2 -23 -12 5 -14 -2 -8 -46 l7 -51 -33 6 c-18 4
-135 7 -261 7 -222 0 -229 1 -229 20 0 11 -5 20 -11 20 -6 0 -9 -6 -6 -14 3
-8 -2 -16 -14 -19 -15 -4 -23 1 -30 19 -12 33 -12 34 6 34 15 0 22 20 8 20
-16 1 -40 26 -48 49 -6 21 -5 23 16 18 89 -20 91 -20 78 1 -10 16 -18 18 -35
11 -14 -5 -26 -4 -29 1 -4 6 -14 10 -24 10 -11 0 -25 14 -35 34 -15 32 -26 61
-90 246 -14 41 -37 95 -50 120 -14 25 -42 97 -64 160 -111 321 -164 461 -203
533 -12 21 -19 47 -16 58 3 10 0 19 -6 20 -8 0 -8 2 0 6 9 3 7 11 -7 26 -11
11 -20 29 -20 39 0 10 -11 42 -25 71 -14 28 -28 66 -30 82 -2 17 -17 57 -33
90 -39 81 -56 120 -80 185 -12 30 -37 96 -56 146 -20 51 -36 95 -36 98 0 8
-77 213 -121 321 -40 101 -42 108 -40 128 1 9 -4 17 -11 17 -10 0 -10 2 1 9
10 7 11 13 2 27 -9 17 -10 17 -11 2 0 -25 -29 -11 -36 18 -3 13 -12 24 -20 24
-7 0 -18 9 -24 21 -7 11 -14 18 -17 16 -9 -9 29 -57 40 -50 6 4 8 0 4 -10 -4
-10 1 -22 15 -31 11 -8 17 -19 13 -26 -5 -8 -11 -8 -21 1 -22 18 -30 2 -10
-20 14 -16 17 -36 15 -117 -1 -55 -4 -103 -7 -107 -2 -5 -3 -61 -2 -125 2
-102 0 -932 -3 -1772 0 -151 1 -301 4 -333 l4 -57 -330 -1 c-181 0 -376 0
-431 0 l-101 1 -7 50 c-4 27 -6 595 -4 1262 1 667 2 1708 3 2312 0 853 3 1100
12 1103 9 3 10 9 1 22 -6 10 -8 25 -5 34 5 14 26 15 159 10 84 -3 157 -9 161
-13z m2361 -1102 c16 -10 21 -183 7 -230 -11 -36 -30 -52 -32 -25 -1 6 -5 1
-9 -13 -5 -17 -8 -19 -9 -7 -2 30 -21 19 -21 -12 0 -17 5 -33 10 -36 6 -3 10
-12 9 -18 0 -9 -2 -9 -6 1 -2 6 -9 12 -14 12 -14 0 -11 -22 7 -41 12 -13 13
-22 5 -38 -7 -12 -9 -66 -7 -144 5 -116 4 -125 -14 -130 -11 -3 -24 0 -29 7
-16 19 -5 303 13 351 21 54 20 76 -1 72 -29 -4 -45 -18 -39 -33 3 -7 1 -16 -4
-19 -9 -6 -14 12 -12 45 0 8 -5 18 -11 22 -7 4 -13 43 -15 101 -3 83 -2 95 14
101 27 10 35 -12 33 -99 -1 -44 2 -79 7 -78 11 3 13 183 2 189 -9 6 1 34 13
34 5 0 9 -6 9 -12 0 -7 11 -18 25 -25 20 -9 25 -9 24 0 -3 25 1 38 11 32 6 -3
10 2 11 12 0 14 2 15 6 3 3 -8 11 -18 17 -22z m-92 -1144 c-5 -32 -2 -78 7
-104 12 -33 21 -261 10 -254 -5 3 -9 0 -9 -5 0 -6 4 -11 10 -11 5 0 10 -26 12
-57 2 -40 7 -57 16 -55 17 3 15 -17 -3 -24 -12 -5 -15 -26 -15 -99 0 -99 6
-112 48 -106 15 1 22 -3 22 -13 0 -9 -5 -16 -11 -16 -6 0 -9 -6 -6 -13 3 -8 1
-20 -4 -28 -6 -10 -9 -7 -9 13 0 15 -4 30 -10 33 -5 3 -10 -1 -10 -9 0 -9 -6
-16 -14 -16 -8 0 -17 -6 -19 -12 -4 -8 -8 -4 -12 10 -4 12 -14 22 -22 22 -8 0
-12 4 -9 9 3 5 8 51 11 102 3 52 10 96 15 97 6 2 10 11 10 20 0 14 -2 14 -9 3
-14 -23 -30 17 -20 52 17 59 11 353 -8 368 -9 8 -9 15 -1 29 9 14 9 22 -2 34
-7 9 -10 19 -6 23 3 3 6 1 6 -5 0 -7 5 -12 10 -12 6 0 8 11 4 26 -5 20 -3 25
7 22 8 -3 13 -14 11 -24z m-1657 -725 c15 -44 45 -122 67 -172 22 -51 50 -119
63 -152 47 -124 87 -233 115 -310 36 -100 44 -123 120 -324 33 -90 58 -171 55
-179 -3 -8 3 -28 14 -46 11 -17 36 -74 56 -126 20 -52 44 -112 52 -133 9 -20
14 -39 11 -42 -3 -3 -24 14 -46 37 -49 49 -56 45 -11 -7 17 -19 26 -35 20 -35
-6 0 -11 -5 -11 -11 0 -7 10 -9 25 -5 18 5 30 1 42 -14 10 -11 27 -31 39 -43
12 -12 24 -32 28 -44 6 -20 5 -21 -18 -10 -14 7 -26 15 -26 20 0 4 -8 7 -17 6
-11 0 -13 -3 -5 -6 6 -2 10 -9 6 -14 -9 -15 -21 -10 -27 11 -5 18 -14 20 -94
20 -126 0 -391 10 -440 16 l-42 5 0 467 c0 257 -3 626 -7 820 -3 193 -3 352
-1 352 3 0 17 -36 32 -81z m342 -444 c8 -9 13 -19 9 -22 -3 -4 5 -19 20 -34
14 -15 26 -31 26 -36 1 -20 66 -187 104 -266 7 -15 11 -36 8 -45 -5 -13 -4
-14 4 -3 7 10 11 10 17 1 4 -7 1 -16 -6 -21 -12 -7 -12 -9 0 -9 7 0 11 -6 8
-14 -3 -8 3 -22 13 -31 17 -16 37 -69 32 -88 -1 -4 4 -10 11 -13 9 -3 12 -16
9 -34 -2 -17 0 -36 5 -43 6 -6 13 -25 17 -42 7 -30 7 -30 -18 7 -24 36 -51
110 -49 135 0 7 -2 11 -6 8 -9 -5 -21 23 -86 190 -26 66 -51 125 -55 130 -6 9
-18 45 -25 81 -2 6 -17 42 -34 81 -17 39 -31 74 -31 77 0 10 11 6 27 -9z
m1331 -133 c2 -22 7 -29 18 -25 10 4 12 0 8 -11 -5 -14 -1 -15 31 -10 l37 6
-4 -77 c-3 -77 -15 -99 -45 -88 -9 4 -13 26 -13 74 0 72 -13 92 -24 38 -14
-71 -1 -129 29 -129 8 0 15 -5 15 -11 0 -5 4 -8 8 -5 10 6 10 -40 0 -50 -5 -4
-8 2 -8 14 0 26 -27 30 -33 5 -3 -13 -5 -12 -6 5 -1 19 -3 21 -15 10 -10 -9
-11 -20 -4 -37 5 -14 8 -34 7 -45 -2 -36 1 -40 14 -23 11 15 12 12 13 -25 1
-24 -2 -45 -6 -48 -4 -3 -10 -45 -14 -94 -3 -49 -8 -91 -11 -94 -14 -14 -14
-3 -14 243 0 11 -2 49 -5 85 -4 56 -6 190 -3 298 1 41 21 37 25 -6z m-2844
-205 c-2 -86 -3 -181 -3 -222 0 -16 0 -102 -1 -190 0 -154 5 -240 16 -297 7
-34 -10 -37 -27 -6 -14 26 -20 718 -7 718 5 0 7 4 4 9 -5 8 9 61 16 61 2 0 2
-33 2 -73z"/>
<path d="M16742 6388 l3 -113 46 -3 c72 -5 81 10 77 127 l-3 96 -63 3 -63 3 3
-113z m101 80 c-2 -5 -3 -46 -3 -93 l0 -85 -40 0 -40 0 0 96 0 95 43 -3 c23
-2 41 -6 40 -10z"/>
<path d="M16763 5703 c-22 -4 -23 -8 -23 -113 0 -101 1 -108 21 -113 32 -9 89
4 98 22 5 9 8 56 7 105 -1 79 -4 90 -21 97 -22 8 -47 9 -82 2z"/>
<path d="M16958 5703 l-26 -4 1 -107 2 -106 35 -8 c21 -4 46 -3 63 4 l27 10 0
104 c0 92 -2 104 -17 104 -10 0 -27 2 -38 4 -11 2 -32 1 -47 -1z m63 -23 c17
0 19 -8 19 -95 l0 -95 -39 0 -39 0 -5 53 c-9 90 -8 119 4 134 7 7 19 11 26 8
8 -3 23 -5 34 -5z"/>
<path d="M17147 5697 c-14 -9 -19 -33 -23 -104 -6 -111 5 -129 69 -119 22 4
44 9 49 12 4 3 8 52 8 109 0 85 -3 104 -16 109 -26 10 -69 7 -87 -7z m81 -110
l3 -98 -38 3 -38 3 -3 84 c-4 105 -1 113 40 109 l33 -3 3 -98z"/>
<path d="M16747 5269 c-17 -10 -18 -20 -11 -102 3 -51 11 -98 16 -104 6 -7 32
-13 59 -13 l49 0 0 109 c0 90 -3 110 -16 115 -24 9 -77 7 -97 -5z m91 -117 l3
-93 -43 3 -43 3 0 80 c-1 104 0 107 44 103 l36 -3 3 -93z"/>
<path d="M16937 5273 c-4 -3 -7 -55 -7 -114 l0 -107 29 -4 c16 -2 46 -2 66 0
l37 4 -4 105 c-3 76 -8 107 -19 114 -16 10 -93 12 -102 2z"/>
<path d="M17165 5273 c-31 -8 -35 -21 -35 -125 l0 -98 44 0 c76 0 76 0 76 111
0 98 0 100 -26 109 -27 11 -27 11 -59 3z"/>
<path d="M16757 4839 c-15 -9 -17 -24 -16 -109 l2 -98 33 -7 c46 -8 81 3 88
28 3 12 6 59 6 103 0 66 -3 83 -16 88 -24 9 -77 7 -97 -5z"/>
<path d="M16761 4419 c-15 -43 -14 -172 1 -187 13 -13 87 -16 103 -4 6 4 10
50 10 112 l-1 105 -51 3 c-49 3 -51 2 -62 -29z"/>
<path d="M16970 4017 c-24 -12 -25 -17 -26 -107 0 -58 4 -98 10 -102 18 -12
93 -9 103 5 6 7 8 52 5 105 -4 88 -6 94 -29 103 -31 11 -33 11 -63 -4z"/>
<path d="M16968 3642 c-12 -2 -16 -23 -21 -95 -4 -54 -2 -96 4 -103 14 -17 68
-23 95 -10 22 10 24 16 23 86 -1 110 -7 125 -50 125 -19 0 -42 -1 -51 -3z"/>
<path d="M16754 3615 c-3 -11 -4 -54 -2 -95 3 -69 5 -76 29 -87 16 -8 36 -9
55 -4 29 7 29 9 37 100 5 51 6 95 4 97 -2 3 -30 6 -61 7 -50 3 -57 1 -62 -18z"/>
<path d="M4768 7968 c-2 -24 -7 -32 -18 -29 -36 11 -977 5 -966 -6 6 -6 509
-27 656 -27 74 0 168 3 209 8 59 7 73 6 69 -4 -2 -8 -13 -18 -23 -24 -10 -6
-26 -19 -36 -28 -10 -10 -35 -28 -56 -41 -41 -27 -134 -105 -199 -168 -40 -39
-44 -40 -90 -35 -27 3 -126 6 -221 6 -95 1 -185 5 -200 10 -20 6 -5 9 57 9
191 2 385 12 394 21 5 5 -22 7 -70 4 -43 -2 -155 -5 -247 -5 -134 -1 -170 -4
-174 -15 -7 -19 -31 -18 -50 2 -18 17 -69 15 -66 -3 2 -7 -2 -13 -7 -13 -6 0
-10 5 -10 10 0 6 -19 9 -42 9 -24 -1 -33 -4 -20 -6 12 -2 22 -8 22 -12 0 -5
-18 -5 -40 -1 -22 4 -38 3 -37 -2 1 -5 -22 -10 -52 -12 l-54 -3 24 18 c13 11
87 61 164 113 160 108 203 141 193 151 -9 9 -98 -45 -293 -178 -88 -60 -171
-114 -185 -120 l-25 -11 27 -3 c34 -5 36 -18 36 -363 0 -151 3 -418 7 -593 5
-241 4 -322 -5 -333 -9 -10 -35 -14 -99 -14 -118 1 -160 12 -192 52 -24 29
-29 31 -52 21 -14 -7 -31 -24 -39 -40 -7 -15 -22 -29 -33 -31 -20 -3 -20 5
-22 583 -3 511 -1 586 12 591 20 8 19 58 0 74 -12 10 -13 15 -4 21 17 10 19
64 6 179 -5 52 -7 116 -3 143 7 43 10 47 34 47 15 0 34 5 42 11 11 8 -4 9 -55
5 -38 -3 -248 -8 -465 -12 -217 -3 -411 -10 -431 -15 -20 -5 -58 -26 -85 -47
-42 -33 -150 -100 -302 -189 -37 -22 -67 -30 -58 -15 2 4 -2 16 -10 27 -13 18
-14 18 -14 -8 0 -15 -9 -32 -22 -41 l-22 -16 22 0 c20 0 22 -4 16 -22 -4 -13
-7 -36 -6 -53 1 -16 4 -113 7 -215 3 -102 10 -286 15 -410 5 -124 7 -268 5
-320 -2 -52 -7 -167 -10 -255 -3 -88 -8 -185 -12 -215 -4 -30 -5 -59 -3 -65 2
-5 5 -104 6 -220 2 -115 8 -268 13 -340 8 -105 7 -838 -2 -1245 -3 -124 27
-371 61 -515 33 -135 113 -312 204 -448 21 -31 36 -57 32 -57 -3 0 -45 37 -92
83 -141 136 -64 45 114 -135 108 -109 194 -186 244 -219 l78 -52 7 -75 c6 -66
5 -77 -11 -89 -15 -11 17 -13 197 -13 118 0 232 -5 254 -11 48 -13 648 -20
720 -9 44 6 37 7 -47 9 -58 0 -98 5 -98 11 0 6 -22 10 -50 10 -28 0 -50 5 -50
10 0 7 32 10 88 9 48 -1 123 -1 167 0 44 1 91 0 105 -3 14 -4 19 -4 13 0 -25
11 -12 23 32 30 25 3 45 10 45 15 0 5 17 17 38 26 20 9 83 39 139 67 57 27
105 47 108 45 2 -3 7 -44 9 -91 l5 -86 -177 3 c-97 1 -168 -1 -157 -6 11 -4
16 -8 10 -9 -5 -1 1 -5 15 -9 40 -11 258 -4 308 10 35 10 47 10 50 1 7 -21 36
-13 71 19 27 26 35 29 43 18 8 -11 8 -9 4 5 -7 21 20 70 34 61 5 -3 11 -1 15
5 4 6 -7 10 -26 10 -22 0 -30 3 -23 10 5 5 26 7 47 3 29 -4 35 -9 27 -18 -7
-9 -7 -15 -1 -19 15 -10 421 -5 421 5 0 5 -44 9 -97 8 -135 -1 -157 0 -149 9
4 4 44 8 88 9 83 1 124 13 47 13 -25 0 -49 4 -55 9 -13 12 -60 22 -67 15 -4
-4 -22 -8 -41 -9 -24 -1 -33 2 -29 11 5 14 -28 14 -39 -1 -4 -5 -10 -6 -14 -2
-4 4 -5 10 -2 13 12 11 74 14 93 4 26 -14 88 6 66 20 -8 4 -20 6 -28 3 -7 -3
-13 -1 -13 5 0 22 427 28 500 7 24 -7 24 -7 5 8 -11 9 -30 17 -42 17 -14 0
-23 6 -23 15 0 10 -9 15 -27 14 -24 -2 -25 -2 -5 -6 12 -2 22 -8 22 -13 0 -4
-56 -7 -125 -6 -69 0 -125 4 -125 8 0 4 -11 3 -25 -2 -17 -7 -25 -6 -25 1 0 8
-5 7 -15 -1 -12 -10 -15 -10 -15 0 0 9 -4 9 -12 2 -8 -5 -22 -6 -33 -1 -11 4
-41 8 -67 8 -26 1 -49 4 -51 8 -3 5 16 7 41 6 96 -5 355 -4 360 1 3 4 -26 6
-64 7 -208 3 -412 14 -421 23 -10 10 128 13 181 3 16 -2 56 1 90 8 33 7 63 9
66 5 3 -5 39 -11 80 -14 62 -5 71 -4 50 5 -14 7 -32 11 -40 10 -8 -2 -12 0 -8
4 10 10 128 16 128 7 0 -4 -6 -14 -12 -21 -11 -11 -10 -13 5 -8 10 4 28 2 39
-4 14 -8 23 -8 31 0 8 8 5 11 -9 11 -28 0 -36 10 -21 28 10 13 9 14 -1 8 -7
-4 -18 -4 -25 2 -7 5 -52 10 -102 11 -49 1 -121 4 -160 7 -85 6 -84 6 -165 6
-36 0 -81 0 -100 1 -19 1 -63 -2 -98 -6 -57 -6 -62 -5 -53 11 5 9 49 56 98
103 135 132 298 310 295 323 -2 6 0 8 4 4 8 -9 34 10 34 24 0 6 -7 4 -17 -3
-15 -13 -15 -12 -4 9 7 13 19 26 27 29 8 3 13 12 10 19 -3 8 -2 14 3 14 10 0
52 84 90 182 56 142 138 475 147 593 1 17 3 30 4 30 1 0 3 9 5 20 3 11 -3 26
-12 33 -10 7 -12 12 -5 12 7 0 12 7 12 16 0 8 -4 12 -10 9 -5 -3 -10 -1 -10 4
0 6 5 11 11 11 7 0 9 15 5 43 -3 23 -8 121 -10 217 -3 96 -8 245 -12 330 -4
85 -6 162 -6 170 8 74 8 92 0 96 -5 3 -5 10 -2 16 4 5 6 153 4 327 -2 371 -2
1391 1 1571 1 69 1 206 -1 305 -1 99 -2 189 -1 200 1 24 51 55 89 56 l27 1
-29 8 c-21 7 -35 5 -52 -7 -14 -9 -28 -13 -32 -9 -6 7 -7 12 -10 74 -1 17 -6
32 -11 32 -6 0 -11 -15 -13 -32z m-1780 -60 c-3 -7 -40 -37 -84 -66 -43 -29
-97 -70 -119 -91 -81 -77 -112 -94 -168 -94 -29 0 -39 -2 -24 -4 16 -3 26 -10
24 -16 -4 -13 -110 -22 -357 -31 -143 -5 -243 -16 -256 -29 -4 -4 131 -5 300
-4 198 1 306 -2 307 -8 1 -5 1 -13 0 -18 -1 -4 0 -191 0 -415 1 -224 1 -436 1
-472 -3 -200 -2 -266 4 -372 7 -132 3 -143 -51 -154 -23 -4 -41 -1 -57 10 -33
23 -61 20 -91 -12 -20 -21 -27 -38 -27 -68 0 -50 -3 -53 -84 -118 -67 -53 -69
-54 -121 -49 -47 5 -54 3 -69 -18 -18 -26 -22 -74 -6 -84 6 -3 10 -14 10 -25
0 -25 -140 -230 -157 -230 -23 0 -63 -51 -63 -80 0 -15 7 -33 15 -40 20 -17
20 -18 -21 -130 -28 -75 -42 -100 -58 -104 -25 -6 -56 -54 -56 -86 0 -27 27
-80 42 -80 10 0 9 -27 -7 -160 -8 -65 -15 -79 -38 -82 -27 -4 -30 -33 -3 -33
13 0 22 -10 27 -30 11 -37 1 -47 -36 -37 l-30 8 -1 370 c-1 203 -4 401 -7 439
-15 164 -19 309 -16 615 5 526 4 814 -4 1163 l-7 327 26 10 c16 6 98 8 213 4
125 -4 190 -3 195 4 8 13 -178 26 -280 20 -41 -3 -74 -2 -74 2 0 8 139 99 215
141 33 18 75 47 94 66 19 18 39 33 45 33 71 -2 609 10 631 14 17 3 61 7 99 10
38 3 71 8 74 11 11 11 54 5 50 -7z m-13 -195 c-3 -76 -7 -203 -11 -283 -3 -80
-5 -174 -5 -210 10 -708 10 -921 2 -942 -8 -22 -18 -26 -70 -32 -58 -7 -62 -6
-85 21 -22 25 -27 26 -45 15 -20 -12 -21 -10 -22 35 0 27 -4 66 -9 88 -7 32
-8 22 -8 -55 1 -64 -3 -95 -11 -98 -9 -3 -11 42 -9 176 1 100 -1 184 -4 188
-4 4 -5 10 -2 15 2 4 7 168 9 364 3 196 7 360 9 364 3 4 8 61 11 127 l5 119
34 30 c19 17 49 41 68 55 48 36 118 110 118 124 0 10 19 36 26 36 2 0 1 -62
-1 -137z m1782 45 c-3 -40 -5 -122 -5 -183 1 -60 0 -153 0 -205 0 -52 -1 -174
-2 -270 -1 -96 1 -525 3 -953 4 -657 3 -780 -9 -792 -18 -18 -19 -42 -1 -27 9
8 12 -19 13 -131 1 -78 5 -190 9 -249 6 -83 5 -108 -5 -108 -9 0 -9 -4 -2 -12
5 -7 12 -42 15 -78 3 -36 4 -59 1 -52 -8 17 -24 15 -24 -3 0 -8 6 -15 13 -15
7 0 8 -3 2 -8 -14 -10 -18 -42 -5 -42 7 0 7 -6 1 -17 -14 -26 -24 -74 -22
-108 1 -16 -4 -37 -9 -45 -9 -11 -10 -5 -8 28 2 23 0 42 -5 42 -5 0 -6 17 -3
38 10 62 19 277 12 271 -4 -4 -9 -49 -12 -100 -5 -92 -8 -122 -18 -186 -3 -18
-1 -35 5 -38 5 -4 9 -12 9 -18 0 -7 -4 -6 -10 3 -5 8 -12 11 -16 7 -4 -4 -2
-13 4 -19 7 -7 12 -35 12 -63 0 -28 6 -57 13 -64 10 -11 9 -13 -5 -8 -10 4
-18 2 -18 -3 0 -6 4 -10 8 -10 5 0 7 -15 6 -32 -1 -18 -4 -90 -6 -159 -2 -74
-7 -125 -12 -121 -5 3 -7 -1 -4 -10 7 -17 -34 -164 -62 -225 -24 -51 -45 -67
-25 -18 14 31 14 35 0 35 -13 0 -10 8 10 34 14 19 27 45 28 58 2 12 8 34 15
48 12 23 12 24 -2 6 -14 -17 -16 -17 -16 -4 0 9 5 20 10 23 6 3 10 12 10 18 0
7 -4 6 -10 -3 -6 -10 -10 -11 -10 -2 0 18 4 27 11 25 10 -3 21 46 14 57 -4 6
-1 10 4 10 6 0 11 7 11 15 0 8 -4 15 -10 15 -5 0 -10 -5 -10 -12 0 -6 -7 -3
-16 8 -8 10 -13 13 -9 7 3 -7 3 -18 -1 -24 -4 -7 -8 -26 -10 -43 -6 -62 -11
-86 -23 -99 -6 -8 -9 -16 -6 -19 3 -3 -6 -34 -20 -69 -14 -35 -23 -50 -20 -34
3 17 1 36 -4 44 -10 15 7 59 34 91 19 22 25 79 8 73 -9 -4 -11 0 -7 11 3 9 10
14 14 11 5 -3 11 -1 15 5 3 5 1 10 -6 10 -9 0 -9 3 1 15 6 8 9 23 5 35 -4 11
-3 20 2 19 23 -4 35 2 29 16 -3 8 -1 15 4 15 6 0 8 18 5 43 -2 23 -2 34 1 25
10 -33 25 -19 18 17 -4 23 -2 41 7 53 13 15 12 16 -3 4 -9 -8 -19 -23 -21 -35
-2 -12 -4 -3 -4 20 0 24 3 41 7 38 4 -3 6 10 4 28 -1 17 -3 55 -4 82 -1 31 -4
43 -8 32 -4 -10 -7 -44 -5 -77 1 -33 -3 -62 -8 -66 -7 -4 -9 21 -8 74 2 54 -1
85 -10 96 -7 8 -10 20 -7 25 4 5 -5 22 -19 37 -14 15 -25 22 -25 17 0 -6 7
-16 15 -23 8 -7 15 -16 15 -21 0 -13 -38 -11 -42 3 -6 18 24 233 34 236 4 2 6
8 2 13 -3 5 6 19 19 31 28 27 40 55 27 63 -6 4 -10 13 -10 21 0 9 5 12 11 8 8
-4 8 0 0 15 -7 11 -9 21 -7 21 3 0 1 11 -4 25 -5 14 -6 25 -1 25 9 0 -10 97
-23 118 -4 6 -9 28 -11 49 -5 35 -13 60 -36 105 -5 10 -9 25 -9 33 0 9 -7 27
-16 40 -9 13 -22 44 -30 67 -10 30 -13 34 -10 13 3 -16 8 -39 12 -50 5 -15 4
-17 -5 -9 -6 6 -14 34 -18 62 -5 46 -4 52 13 53 18 0 18 1 0 8 -12 5 -15 10
-9 14 13 8 5 96 -11 116 -8 11 -8 13 2 7 6 -4 12 -3 12 3 0 5 -4 11 -9 13 -6
2 -12 68 -15 148 -4 80 -9 208 -12 285 -6 169 -15 606 -15 730 0 50 1 235 1
412 0 313 0 322 20 328 11 3 26 12 32 19 7 6 40 32 73 56 32 24 54 45 47 48
-7 2 -9 9 -5 15 8 15 -28 -14 -84 -67 -24 -22 -43 -35 -43 -29 0 6 28 36 63
67 44 40 67 54 81 50 11 -4 16 -2 12 4 -6 11 108 122 125 122 7 0 9 -26 6 -72z
m-804 -177 c7 -7 66 -11 147 -12 132 0 264 -10 274 -20 3 -3 8 -270 11 -594 8
-902 14 -1225 20 -1280 6 -47 5 -49 -12 -33 -10 9 -30 21 -45 27 -15 5 -51 43
-82 84 -30 41 -60 78 -66 82 -9 6 -9 9 -1 15 16 10 -21 93 -50 114 -13 9 -42
16 -65 16 -33 0 -54 9 -101 43 -113 82 -198 137 -211 137 -25 0 -5 25 22 28
28 4 53 -16 89 -71 9 -15 22 -27 27 -27 14 0 -13 57 -44 92 -24 28 -30 30 -69
23 -107 -20 -198 4 -233 63 -10 15 -27 36 -40 47 -21 19 -22 27 -28 275 -14
592 -18 701 -26 820 -5 69 -12 137 -16 152 l-6 27 123 4 c182 6 370 0 382 -12z
m-967 -1406 c-1 -30 -5 -45 -14 -45 -9 0 -11 -10 -7 -34 l7 -33 -69 -17 c-37
-9 -92 -26 -121 -36 -59 -22 -82 -25 -82 -9 0 5 4 8 8 5 12 -7 36 39 29 57
-12 31 38 55 85 41 24 -7 29 -30 7 -31 -10 -1 -19 2 -19 8 0 5 -8 9 -17 8 -11
0 -13 -3 -5 -6 6 -2 12 -13 12 -24 0 -19 11 -25 24 -12 7 8 29 14 63 17 12 1
28 8 36 14 8 7 17 9 21 5 4 -4 4 0 0 10 -8 21 -20 22 -32 2 -12 -23 -62 -3
-62 25 0 12 -7 20 -16 20 -18 0 -14 20 7 31 64 31 72 34 76 22 3 -8 11 -5 24
8 32 32 46 24 45 -26z m466 -21 c1 -24 2 -54 2 -66 1 -16 -4 -22 -14 -19 -8 2
-37 5 -65 7 -129 10 -175 16 -170 25 4 5 1 9 -4 9 -6 0 -11 -4 -11 -9 0 -4
-28 -11 -62 -15 -35 -3 -75 -8 -89 -11 -40 -7 -42 17 -7 67 17 24 31 44 32 45
1 1 28 4 61 8 56 5 62 4 95 -23 31 -27 33 -31 20 -47 -13 -16 -13 -17 5 -12
11 3 35 9 54 12 43 9 133 63 126 76 -4 5 1 6 9 3 11 -4 17 -21 18 -50z m103
16 c31 0 101 -22 185 -58 39 -16 42 -20 24 -26 -14 -4 -21 -15 -21 -31 0 -21
1 -22 14 -9 30 29 59 20 196 -63 88 -53 87 -54 -115 -56 -67 -1 -82 3 -117 26
-22 14 -64 35 -94 45 -74 27 -110 45 -115 60 -2 6 3 12 12 12 9 0 16 5 16 10
0 6 -9 10 -20 10 -17 0 -20 7 -20 52 0 40 3 49 12 40 7 -7 26 -12 43 -12z
m-840 -52 c-1 -13 -6 -21 -11 -19 -5 1 -8 7 -6 13 1 5 -3 8 -10 6 -7 -3 -14
-15 -16 -29 -4 -43 -36 -129 -43 -118 -4 7 -12 8 -18 4 -9 -5 -9 -10 0 -21 9
-11 7 -15 -7 -21 -19 -6 -127 -87 -174 -130 -14 -13 -26 -20 -27 -16 -1 5 5
44 15 88 l17 79 40 8 c29 6 43 5 50 -4 17 -22 52 -20 58 3 4 16 3 18 -9 8 -16
-13 -19 0 -15 55 3 26 1 28 -13 17 -9 -8 -16 -21 -16 -31 0 -14 -8 -18 -35
-17 -19 1 -35 5 -35 9 0 4 3 7 8 6 4 -2 8 2 10 7 6 19 35 45 50 45 9 0 43 15
78 34 34 19 64 33 67 30 2 -2 10 2 17 11 16 19 27 12 25 -17z m690 -92 l40
-12 3 -83 c2 -65 0 -81 -10 -75 -11 6 -11 5 0 -8 9 -12 13 -80 15 -264 l2
-249 -26 -50 c-14 -27 -58 -110 -98 -183 -40 -73 -71 -137 -69 -144 2 -6 44
61 94 150 49 89 92 162 96 162 4 0 7 -39 6 -87 -1 -83 -3 -90 -32 -122 -61
-66 -147 -132 -160 -122 -6 6 -31 14 -55 20 -36 8 -53 6 -93 -10 l-49 -19 -29
47 c-31 48 -44 133 -18 117 8 -5 9 -2 4 12 -5 10 -10 37 -12 59 -4 37 -3 35
21 -25 14 -36 30 -77 34 -91 11 -33 42 -92 46 -87 4 4 -34 115 -58 172 -45
104 -47 123 -47 517 l0 377 30 5 c16 4 36 4 43 1 7 -2 24 0 38 5 29 13 226 4
284 -13z m-428 -263 c-4 -142 -10 -316 -14 -388 l-6 -130 -18 40 c-10 22 -18
48 -18 58 -1 9 -5 17 -11 17 -5 0 -10 7 -10 15 0 8 -20 57 -45 108 -25 52 -45
98 -45 104 0 5 -7 24 -15 40 -9 17 -18 60 -21 94 -2 35 -6 78 -9 94 -2 17 -4
49 -4 73 -1 27 -5 41 -11 37 -10 -6 -6 -160 6 -250 8 -54 36 -145 44 -140 7 4
22 -24 80 -155 23 -52 51 -112 62 -132 17 -33 24 -107 19 -187 -1 -8 -14 4
-30 27 -16 22 -34 43 -40 47 -13 7 -160 190 -178 220 -7 11 -12 46 -13 78 0
36 -4 56 -10 52 -17 -10 -11 7 7 20 10 8 13 17 8 25 -7 11 -10 9 -15 -6 -4
-10 -8 32 -9 95 -1 63 -4 118 -7 123 -7 11 6 111 13 104 3 -3 7 -36 8 -73 2
-88 3 -93 14 -93 14 0 1 164 -14 176 -17 13 -31 64 -17 64 6 0 13 -6 15 -12 3
-8 6 -6 6 4 1 21 69 53 164 78 38 10 71 21 75 24 3 3 14 6 25 6 20 0 20 -5 14
-257z m627 197 c42 -18 92 -43 111 -56 20 -13 39 -24 43 -24 39 0 273 -210
335 -301 101 -147 178 -325 212 -489 44 -215 20 -518 -57 -705 -65 -158 -152
-301 -236 -388 -113 -116 -383 -310 -404 -289 -4 4 -32 83 -63 175 l-55 167 1
133 c1 72 4 146 8 162 l6 30 31 -55 c88 -158 263 -420 280 -420 7 0 -1 13 -61
100 -28 41 -97 152 -154 247 -101 169 -103 173 -108 247 -3 42 -3 76 1 76 4 0
53 -33 109 -72 207 -147 477 -320 477 -305 0 2 -118 83 -262 180 -336 225
-320 212 -323 270 -2 54 -1 55 81 27 68 -24 260 -79 481 -139 143 -38 182 -47
172 -37 -2 2 -152 47 -334 99 -181 53 -346 102 -365 110 -35 15 -35 16 -32 69
l4 54 151 12 c84 7 232 17 329 23 232 14 323 29 133 23 -77 -3 -203 -10 -280
-15 -77 -5 -186 -12 -242 -16 l-103 -6 0 46 0 46 78 29 c371 144 660 267 650
277 -2 2 -160 -59 -352 -136 -192 -76 -354 -139 -361 -139 -18 0 -7 111 14
134 9 10 64 57 124 103 59 47 107 87 107 90 0 13 -195 -121 -220 -151 -7 -9
-19 -16 -26 -16 -33 0 -8 263 29 310 22 28 187 341 187 354 0 21 -25 -16 -76
-112 -31 -59 -73 -137 -93 -174 -20 -38 -39 -68 -43 -68 -9 0 -14 213 -10 413
2 121 6 148 17 143 7 -2 48 -19 89 -36z m-1174 13 c-1 -5 -7 -19 -15 -33 -8
-14 -14 -46 -15 -72 0 -26 -4 -50 -10 -53 -5 -3 -10 -13 -10 -21 0 -7 -15 -34
-32 -58 -18 -25 -64 -88 -103 -140 -38 -53 -73 -96 -77 -96 -4 0 -5 -7 -1 -15
3 -9 -1 -23 -10 -33 -8 -9 -29 -63 -48 -119 -30 -92 -35 -102 -63 -111 -26 -8
-27 -10 -8 -11 25 -1 26 -10 10 -83 -6 -29 -11 -56 -10 -60 1 -5 -1 -8 -6 -8
-4 0 -7 -15 -7 -32 -1 -58 -13 -209 -17 -213 -2 -2 -8 -1 -13 3 -16 11 -95
118 -95 128 0 5 26 33 57 62 l58 54 -27 23 c-16 13 -28 29 -28 36 0 6 -11 20
-25 31 -14 11 -25 25 -25 31 0 15 56 186 63 193 3 3 14 1 25 -5 25 -13 53 -3
97 33 26 23 28 27 14 38 -9 7 -25 29 -35 48 -11 19 -23 38 -29 42 -6 5 -1 24
14 50 32 57 73 110 79 103 3 -2 5 -34 5 -70 0 -46 4 -68 15 -77 13 -11 14 -5
8 52 -5 48 -3 72 8 93 13 24 13 27 0 27 -12 0 -12 4 -4 20 11 20 11 20 31 1
17 -16 26 -17 57 -9 48 13 57 22 37 38 -12 10 -18 10 -30 0 -12 -10 -19 -10
-27 -2 -7 7 -20 12 -30 12 -16 0 -16 3 -6 20 15 23 28 26 28 6 0 -13 28 -31
36 -23 2 2 -2 18 -9 36 -11 32 -11 34 23 63 110 94 151 122 150 101z m1641
-92 c16 -16 29 -27 29 -23 0 3 5 1 12 -6 8 -8 8 -15 1 -24 -6 -7 -13 -31 -17
-53 -6 -39 -6 -39 8 -15 9 14 15 35 16 48 0 12 4 22 8 22 12 0 106 -101 136
-145 14 -22 26 -50 26 -62 0 -13 5 -23 10 -23 6 0 10 -5 10 -11 0 -6 9 -22 20
-36 11 -14 20 -33 20 -41 0 -9 6 -23 14 -31 8 -9 21 -51 30 -93 8 -42 18 -88
22 -103 6 -25 6 -26 -37 -20 l-44 5 42 -20 41 -20 -3 -97 c-7 -202 -7 -292 0
-302 3 -6 2 -11 -3 -11 -6 0 -8 -17 -6 -37 16 -159 5 -214 -47 -232 -32 -11
-34 -6 -19 35 6 15 13 61 15 103 3 42 8 94 12 116 10 63 11 100 3 105 -15 10
-19 81 -5 86 8 3 16 13 20 22 5 14 4 15 -6 5 -21 -21 -27 -15 -34 35 -4 26
-18 84 -32 129 -14 45 -22 86 -19 91 3 5 -1 15 -9 22 -8 7 -15 21 -15 31 0 11
-15 41 -33 67 -18 26 -43 70 -57 97 -14 28 -44 78 -68 113 -24 35 -42 65 -40
67 2 2 44 -7 93 -20 136 -38 119 -20 -20 21 -33 10 -66 18 -74 17 -7 -1 -52
31 -100 70 -47 40 -105 86 -128 102 -24 17 -43 32 -43 35 0 3 54 7 121 8 l120
2 30 -29z m-1441 -193 c0 -112 3 -214 7 -227 6 -25 6 -25 -13 -5 -11 10 -43
49 -72 85 -59 76 -100 114 -68 64 11 -16 45 -61 76 -100 32 -38 62 -86 68
-105 15 -50 21 -140 10 -140 -14 0 -3 -93 11 -98 13 -4 15 -22 2 -22 -5 0 -90
53 -188 119 -99 65 -191 124 -204 131 l-24 11 25 -21 c14 -11 99 -71 190 -132
181 -122 210 -146 209 -168 0 -10 -2 -11 -6 -2 -8 19 -23 14 -23 -9 0 -11 4
-18 9 -15 5 3 12 -1 15 -10 4 -12 2 -15 -9 -10 -11 4 -15 -1 -15 -19 0 -18 4
-23 15 -19 9 4 15 0 15 -10 0 -24 -51 -21 -225 13 -205 40 -295 54 -301 48 -6
-6 0 -7 296 -65 l195 -38 3 -76 3 -77 -33 -5 c-34 -6 -328 -39 -451 -51 -37
-4 -65 -11 -62 -15 6 -10 18 -9 319 26 115 13 213 24 218 24 5 0 7 -44 6 -97
l-3 -97 -166 -86 c-199 -102 -283 -150 -276 -156 3 -3 58 23 123 57 212 111
314 160 323 155 9 -6 6 -141 -4 -201 -4 -22 -34 -57 -115 -133 -61 -57 -115
-113 -122 -125 l-11 -22 24 20 c13 11 69 63 124 115 l100 95 7 -149 c8 -182
35 -301 84 -376 19 -28 34 -54 34 -56 0 -2 -46 27 -102 65 -196 134 -413 354
-482 489 -9 18 -14 36 -12 41 3 5 -3 16 -14 26 -36 33 -84 236 -79 335 2 30 1
60 -2 65 -8 13 -4 177 6 240 4 28 12 56 18 63 6 7 11 34 12 60 2 44 27 137 62
227 27 70 36 85 50 85 10 0 12 7 8 20 -4 13 2 34 16 58 24 39 104 148 126 170
7 7 13 17 13 22 0 5 9 12 20 15 11 3 20 12 20 19 0 7 21 30 46 52 25 21 51 44
58 50 23 21 99 74 108 74 4 0 8 -91 8 -202z m124 -423 c20 -30 73 -96 119
-147 76 -85 109 -143 91 -161 -3 -3 -42 18 -87 46 -45 27 -101 61 -125 75 -24
13 -47 33 -50 43 -9 24 -3 199 7 199 5 0 25 -25 45 -55z m1716 -72 c0 -5 4
-35 9 -68 25 -158 29 -364 8 -377 -9 -6 -9 -8 1 -8 21 0 15 -63 -25 -227 -8
-33 -26 -28 -20 4 3 15 1 35 -3 43 -12 22 0 70 17 70 11 0 13 4 6 13 -5 6 -10
76 -11 155 -2 118 0 142 12 142 12 0 11 7 -4 37 -10 21 -16 41 -13 46 6 10 16
59 14 72 -8 71 -8 105 0 105 5 0 9 -3 9 -7z m-1727 -134 c23 -16 80 -53 126
-82 100 -62 115 -83 50 -73 -24 4 -83 16 -131 28 -87 20 -88 21 -88 52 0 17
-3 48 -6 69 -4 20 -4 37 0 37 4 0 26 -14 49 -31z m112 -166 c44 -8 86 -17 93
-19 13 -4 17 -40 5 -47 -5 -3 -53 -8 -107 -11 -54 -4 -109 -9 -121 -12 -22 -5
-23 -2 -27 53 -2 32 -3 61 -1 64 2 4 20 3 40 -3 21 -5 74 -16 118 -25z m-911
-40 c31 -37 56 -77 56 -88 0 -12 6 -27 12 -33 10 -10 10 -15 -2 -22 -11 -7
-16 -5 -18 5 -2 8 -10 15 -17 15 -7 0 -22 3 -32 6 -15 5 -15 3 3 -13 31 -27
37 -53 18 -74 -10 -11 -13 -19 -8 -19 4 0 18 12 30 27 l22 28 7 -60 c4 -33 16
-89 26 -125 18 -67 17 -82 -3 -62 -7 7 -16 12 -21 12 -5 0 8 -15 27 -34 40
-37 44 -52 19 -73 -11 -8 -13 -12 -5 -11 8 2 19 -6 25 -17 7 -10 17 -25 23
-31 6 -7 17 -27 24 -46 7 -18 20 -41 29 -51 13 -16 13 -20 1 -28 -11 -8 -9 -9
9 -4 17 5 22 4 19 -6 -3 -8 12 -33 33 -57 20 -23 45 -58 54 -78 9 -20 19 -33
22 -30 3 3 42 -29 87 -70 44 -42 110 -96 146 -122 36 -25 67 -50 68 -54 2 -4
12 -8 23 -8 10 0 44 -13 75 -29 32 -16 63 -27 71 -24 19 7 16 -31 -7 -97 -12
-37 -24 -56 -37 -58 -11 -2 -55 14 -98 36 -44 21 -100 47 -125 59 -25 11 -64
36 -87 55 l-42 36 42 7 c76 13 112 18 140 18 15 0 27 4 27 10 0 9 -34 7 -165
-8 -27 -3 -56 -2 -64 3 -17 12 -30 79 -31 160 0 47 -3 62 -14 62 -8 0 -23 3
-33 7 -16 5 -15 3 3 -18 16 -18 23 -42 27 -92 2 -37 1 -69 -3 -72 -10 -6 -125
121 -125 138 0 7 -12 23 -26 37 -26 26 -100 145 -98 158 3 18 -2 26 -10 14 -5
-9 -18 6 -39 49 -31 60 -35 86 -10 61 7 -7 19 -12 28 -12 9 1 2 12 -20 31 -30
26 -33 32 -22 49 10 16 9 21 -6 29 -15 8 -47 64 -73 126 -4 11 -11 40 -15 64
-5 39 -4 43 11 38 12 -5 15 -2 13 11 -3 11 -12 16 -26 15 -12 -2 -22 2 -22 8
0 5 4 8 9 5 12 -8 23 23 14 37 -13 22 -10 45 5 39 11 -4 14 -1 10 10 -4 9 -1
21 5 27 8 8 7 11 -6 11 -9 0 -18 5 -18 10 -2 14 -5 22 -14 43 -12 28 4 137 20
137 2 0 29 -30 59 -67z m1260 57 c38 -14 66 -47 66 -76 0 -39 -30 -93 -59
-107 -27 -13 -75 -12 -66 2 2 5 -6 6 -20 4 -51 -10 -72 100 -28 149 31 35 66
44 107 28z m251 -133 c0 -21 -2 -40 -6 -43 -4 -2 -28 5 -54 16 -53 23 -55 23
-55 11 0 -4 21 -16 48 -26 26 -10 53 -22 60 -28 14 -11 17 -77 3 -77 -5 0 -33
20 -62 44 -30 25 -55 43 -57 41 -4 -3 49 -53 97 -92 20 -16 25 -31 28 -76 1
-32 1 -57 0 -57 -2 0 -19 21 -37 48 -19 26 -51 68 -73 94 -37 46 -38 49 -29
92 5 25 7 57 4 71 l-5 26 69 -3 69 -3 0 -38z m-507 24 c8 -4 12 -19 10 -31 -2
-18 -28 -36 -117 -81 -164 -84 -152 -85 -147 6 2 41 6 78 9 81 2 3 54 11 113
18 60 8 111 14 114 15 3 0 11 -3 18 -8z m10 -111 c0 -20 -5 -31 -18 -35 -11
-3 -22 -15 -25 -25 -3 -11 -32 -44 -63 -75 l-56 -55 -13 28 -12 27 1 -30 c1
-17 -1 -35 -5 -42 -4 -6 -5 -18 -1 -26 4 -10 21 2 62 45 48 50 57 57 63 41 5
-12 8 -6 8 21 1 30 4 37 17 32 8 -3 12 -2 9 4 -3 6 0 19 8 31 19 26 29 11 18
-27 -10 -34 -35 -76 -76 -127 -34 -42 -49 -48 -40 -14 6 21 6 21 -9 3 -11 -14
-13 -23 -5 -32 8 -10 1 -24 -28 -56 -40 -45 -87 -112 -96 -138 -7 -20 -10 19
-8 100 2 50 7 69 21 80 16 13 18 23 11 80 -4 36 -10 71 -12 79 -3 8 28 31 86
62 50 27 101 55 115 63 38 21 47 19 48 -14z m332 9 c0 -6 37 -61 83 -123 l82
-111 2 -155 c0 -85 -1 -148 -5 -140 -24 63 -117 339 -133 395 -11 39 -27 83
-35 98 -17 34 -18 47 -4 47 6 0 10 -5 10 -11z m-49 -44 c1 -14 2 -28 3 -32 15
-54 49 -157 96 -288 32 -88 85 -241 118 -340 189 -566 250 -739 311 -894 23
-57 41 -105 41 -108 0 -2 -14 -3 -31 -1 l-32 3 -142 425 c-158 471 -347 1047
-369 1127 -8 28 -22 63 -31 77 -20 31 -14 56 15 56 14 0 20 -7 21 -25z m-101
8 c0 -22 -96 -390 -121 -468 -17 -49 -39 -121 -50 -160 -27 -95 -60 -218 -63
-230 -1 -5 -4 -14 -8 -20 -3 -5 -9 -25 -13 -44 -4 -19 -14 -41 -21 -49 -8 -7
-14 -22 -14 -33 0 -10 -29 -133 -64 -273 -35 -140 -70 -286 -77 -324 l-13 -70
-46 -4 c-25 -3 -46 -4 -47 -4 -1 1 11 39 27 86 15 47 51 159 80 250 29 91 68
209 87 263 19 54 59 187 90 295 30 108 66 229 80 267 13 39 33 104 44 145 66
259 104 380 117 380 6 0 12 -3 12 -7z m-1357 -38 c20 -14 37 -29 38 -33 5 -55
12 -97 25 -145 13 -52 13 -61 -1 -91 -31 -65 -19 -89 63 -125 8 -3 32 -46 55
-94 l41 -89 -21 -16 c-12 -10 -25 -33 -28 -54 -6 -29 -3 -40 15 -58 19 -19 30
-22 81 -18 l59 4 62 -74 c50 -61 59 -76 46 -83 -20 -11 -32 -73 -19 -98 13
-23 73 -45 101 -36 11 3 27 13 35 21 13 14 22 11 75 -23 33 -21 71 -44 85 -51
30 -16 33 -32 5 -32 -16 0 -20 -7 -20 -30 0 -37 23 -85 45 -94 51 -19 87 -1
130 67 7 11 19 14 37 10 33 -6 34 0 -24 -183 -22 -69 -50 -165 -63 -215 l-23
-90 -68 -5 c-56 -4 -69 -8 -66 -21 1 -9 -5 -22 -13 -29 -21 -17 -51 -1 -122
64 -47 43 -73 53 -40 15 14 -16 -55 44 -132 116 -75 70 -195 233 -245 334 -64
127 -113 281 -131 411 -4 25 -13 78 -21 119 -17 82 -13 100 11 50 8 -19 13
-25 9 -14 -27 93 -36 173 -41 367 -6 208 -3 248 14 248 5 0 25 -11 46 -25z
m1407 -51 c0 -18 47 -164 141 -442 38 -112 69 -210 69 -218 0 -22 -62 -44
-125 -44 -93 0 -186 62 -223 149 -20 45 -20 47 -2 121 10 41 23 88 30 105 6
16 18 57 26 90 8 33 16 65 18 70 2 6 7 25 11 42 4 18 12 30 17 27 5 -4 8 2 7
12 -5 32 12 115 22 109 5 -4 9 -13 9 -21z m-233 -76 c-3 -45 -8 -62 -17 -60
-8 2 -11 -4 -7 -20 6 -22 -22 -98 -47 -128 -7 -8 -25 -44 -40 -80 -16 -36 -32
-69 -36 -73 -4 -5 -6 38 -5 95 2 61 0 95 -5 83 -5 -11 -9 -38 -9 -60 -2 -59
-12 -115 -22 -115 -12 0 -12 33 0 46 5 5 5 29 1 54 -9 53 -10 49 -15 -50 -3
-89 -4 -91 -15 -65 -6 14 -8 8 -4 -20 4 -27 0 -50 -11 -70 l-17 -30 6 35 c4
24 3 30 -3 20 -8 -12 -11 -11 -17 5 -5 11 -3 20 4 23 7 2 12 22 12 45 0 31 -3
38 -10 27 -8 -13 -10 -12 -10 3 0 9 5 17 10 17 6 0 10 7 10 16 0 22 41 104 52
104 4 0 8 7 8 15 0 7 6 18 13 22 6 4 31 33 53 63 23 30 51 64 62 76 11 11 27
35 36 52 9 18 19 32 22 32 3 0 4 -28 1 -62z m1459 -8 c-1 -49 3 -73 13 -79 15
-9 7 -51 -10 -51 -6 0 -16 15 -24 33 -11 26 -55 68 -55 52 0 -10 35 -81 48
-97 10 -13 11 -25 2 -57 -6 -22 -15 -43 -20 -46 -6 -3 -10 -16 -10 -28 0 -12
-9 -35 -20 -52 -12 -16 -27 -45 -35 -63 -8 -19 -28 -51 -45 -72 -16 -21 -30
-41 -30 -46 0 -15 -81 -114 -94 -114 -8 0 -14 10 -15 23 0 12 -3 43 -7 68 -5
42 -3 48 21 68 15 11 40 21 56 21 15 0 34 6 41 13 7 8 24 19 37 26 12 7 21 14
19 16 -9 9 -99 -25 -146 -55 l-54 -34 7 -56 c3 -30 8 -62 11 -72 4 -14 -5 -16
-76 -15 -44 1 -80 5 -80 8 0 3 26 33 59 65 48 49 110 128 194 248 9 13 27 19
66 21 59 4 97 25 44 25 -18 0 -35 5 -39 11 -5 8 -10 6 -16 -5 -5 -9 -15 -16
-23 -16 -12 0 -12 5 0 38 7 20 23 55 34 77 12 21 21 50 21 62 0 13 9 32 20 43
11 11 20 28 20 38 0 9 4 22 8 28 7 10 61 43 73 44 3 0 5 -32 5 -70z m189 -57
c-4 -42 -2 -79 4 -97 13 -34 3 -186 -10 -164 -10 14 -10 13 -14 -19 -3 -33
-14 -55 -23 -49 -5 3 -15 -7 -21 -22 -18 -41 -74 -132 -81 -132 -4 0 -4 15 -2
32 4 28 6 30 13 13 7 -19 8 -19 8 3 1 12 -3 22 -8 22 -11 0 -7 145 4 180 3 11
12 20 18 20 8 0 8 3 -1 9 -15 9 -19 75 -7 112 15 47 77 87 88 57 2 -7 4 9 4
36 1 41 12 65 31 66 2 0 0 -30 -3 -67z m-1643 -86 c-5 -7 -10 -27 -10 -46 -2
-79 -60 -318 -102 -416 -8 -19 -33 -94 -35 -105 -5 -26 -18 -50 -24 -44 -4 5
-14 29 -21 54 -8 25 -19 53 -26 63 -14 22 -4 72 26 134 11 23 20 49 20 57 0
29 18 25 24 -6 5 -28 -1 -60 -24 -123 -4 -11 -6 -32 -5 -45 1 -14 3 -34 4 -45
l2 -20 9 20 c5 11 9 36 10 55 1 19 4 29 7 23 9 -24 21 -13 18 18 -1 17 4 45
13 61 10 21 13 45 8 76 -4 35 -3 43 5 32 9 -13 10 -13 6 0 -2 8 -9 15 -15 15
-7 0 -12 3 -12 8 0 4 0 11 0 17 0 5 8 7 18 4 12 -4 13 -3 4 3 -10 8 -8 20 8
59 12 27 28 65 36 84 12 27 17 32 24 20 8 -12 10 -11 10 6 0 33 23 93 28 71 2
-10 -1 -23 -6 -30z m1454 -239 c-3 -40 -6 -86 -6 -103 0 -93 -56 -330 -100
-420 -5 -11 -23 -55 -40 -98 -32 -82 -37 -91 -109 -202 -52 -80 -150 -182
-233 -243 -58 -43 -78 -51 -78 -31 0 6 -7 25 -15 42 -8 18 -21 52 -29 77 -8
25 -35 104 -60 177 -47 135 -55 173 -34 173 6 0 26 -16 44 -35 26 -29 39 -35
73 -35 46 0 81 26 81 61 0 20 0 20 -31 -2 -34 -24 -91 -22 -118 5 -13 14 -11
17 20 30 30 13 36 13 52 -1 22 -20 32 -11 18 15 -14 26 -14 42 -1 42 6 0 10
-7 10 -15 0 -8 9 -15 19 -15 11 0 23 -4 26 -10 9 -15 25 -12 25 6 0 8 -13 20
-30 25 -16 6 -30 15 -30 19 0 11 70 67 143 115 54 36 58 37 75 21 11 -9 36
-16 60 -16 49 0 67 24 59 77 -5 28 -3 34 8 29 9 -3 15 1 15 10 0 9 -9 18 -20
21 -11 3 -20 10 -20 16 0 12 77 108 97 120 7 4 13 16 13 25 0 9 7 25 15 36 11
14 21 17 49 12 32 -6 35 -5 29 11 -4 10 -13 23 -20 28 -12 9 -11 18 6 58 30
70 44 61 37 -25z m-1371 -168 c40 -97 40 -100 16 -116 -11 -8 -21 -20 -21 -26
0 -7 6 -3 14 8 18 24 31 13 16 -15 -7 -14 -7 -21 0 -21 5 0 10 7 10 15 0 8 5
15 11 15 6 0 9 9 6 20 -7 26 13 38 28 17 7 -9 15 -14 18 -11 3 3 15 3 26 -1
17 -5 20 -12 14 -33 -3 -15 -10 -30 -15 -33 -14 -9 -20 -79 -7 -79 6 0 9 -7 5
-15 -3 -8 -1 -15 4 -15 6 0 10 -4 10 -10 0 -18 -19 -10 -35 14 -13 20 -14 29
-5 46 17 32 2 39 -20 10 -21 -28 -37 -22 -21 7 6 10 16 32 22 48 6 17 13 24
16 17 3 -7 -1 -19 -7 -27 -16 -19 -3 -19 16 -1 18 19 18 30 -2 47 -14 11 -19
10 -35 -10 -11 -13 -19 -32 -19 -42 0 -20 -16 -26 -22 -8 -2 7 -9 5 -17 -5
-11 -14 -11 -16 3 -16 15 0 15 -2 0 -25 -20 -31 -10 -47 11 -19 14 18 15 17 9
-11 -5 -27 -4 -28 9 -12 19 23 26 22 20 -3 -6 -21 -14 -23 -50 -14 -17 5 -23
14 -23 35 0 22 -6 30 -25 35 -24 6 -36 34 -15 34 6 0 10 9 10 20 0 18 -2 17
-24 -5 -37 -37 -41 -60 -11 -73 14 -6 25 -8 25 -3 0 5 -6 12 -12 14 -7 3 -3 6
8 6 16 1 23 -6 27 -26 3 -16 4 -29 3 -30 -5 -5 -72 18 -87 30 -16 12 -16 16 0
65 11 36 20 50 30 47 11 -4 11 -3 2 9 -9 11 -10 20 -1 36 6 12 12 31 14 43 6
58 30 147 36 140 4 -4 20 -37 35 -73z m367 -82 c13 -39 -136 -218 -182 -218
-18 0 -19 3 -10 21 16 28 2 39 -17 14 -15 -19 -15 -18 -9 13 3 19 1 32 -5 32
-14 0 10 42 33 58 10 7 16 18 13 23 -4 5 5 9 18 9 13 0 37 7 54 15 16 8 40 16
53 18 13 2 26 9 28 15 5 15 19 15 24 0z m528 3 c0 -5 17 -7 39 -4 21 3 48 0
59 -6 15 -8 27 -8 46 1 15 6 29 9 32 5 11 -11 -79 -107 -135 -144 -31 -20 -72
-49 -91 -65 -19 -15 -40 -28 -46 -28 -6 0 -17 -7 -24 -15 -7 -8 -27 -15 -44
-15 -22 0 -27 -3 -17 -9 10 -7 4 -16 -29 -40 -50 -36 -65 -30 -76 27 l-7 32
38 -16 c27 -11 41 -12 48 -5 8 8 7 11 -2 11 -11 0 -11 3 -1 15 7 8 10 25 7 37
-7 25 18 84 39 92 8 3 14 12 14 21 0 8 4 15 9 15 5 0 36 22 68 50 58 50 73 58
73 41z m-427 -283 c9 -24 19 -57 23 -75 l6 -32 -49 4 c-28 2 -62 9 -77 15 -34
13 -49 13 -41 0 3 -5 25 -15 47 -21 50 -13 40 -21 -47 -38 -120 -22 -490 1
-523 33 -7 8 29 136 39 136 4 0 10 -4 14 -9 3 -5 36 -13 73 -16 37 -4 76 -12
86 -17 13 -7 36 -7 70 0 95 20 161 31 215 37 51 6 54 5 40 -12 -13 -17 -13
-17 8 0 19 17 62 34 89 36 6 1 19 -18 27 -41z m117 -348 c38 -113 71 -212 74
-220 5 -13 -53 -15 -484 -18 -269 -2 -490 1 -490 5 0 4 23 102 52 216 42 171
54 208 67 204 9 -3 30 -10 46 -16 17 -6 43 -13 60 -16 26 -6 28 -8 12 -17 -10
-5 -27 -8 -38 -5 -16 4 -19 1 -16 -18 5 -42 35 -65 85 -65 49 0 82 21 82 50 0
10 -8 21 -17 25 -38 16 44 25 201 23 130 -2 162 -5 179 -18 28 -23 17 -48 -20
-45 -39 3 -63 15 -63 31 0 8 -7 14 -15 14 -24 0 -17 -37 11 -59 35 -28 97 -28
124 -1 25 25 25 37 0 45 -11 4 -18 11 -14 16 3 6 1 16 -5 23 -8 9 0 18 32 34
23 12 48 21 56 19 8 -1 41 -86 81 -207z m209 -279 c8 0 11 -4 7 -8 -4 -5 -11
-7 -14 -7 -4 1 -23 -6 -43 -16 -78 -40 -221 -82 -364 -105 -82 -14 -164 -25
-182 -25 -36 0 -53 -16 -26 -24 31 -9 -215 4 -387 21 -151 15 -171 19 -231 49
-37 19 -70 34 -75 34 -17 0 -83 53 -78 62 3 5 16 13 28 17 16 7 1290 8 1365 2z
m-1370 -105 c53 -24 111 -47 129 -51 63 -13 30 -20 -98 -20 l-130 0 0 35 c0
19 -3 45 -6 58 -4 12 -3 22 1 22 4 0 51 -20 104 -44z"/>
<path d="M3106 5830 c14 -400 16 -445 35 -660 12 -145 19 -191 27 -186 4 2 -1
109 -10 238 -9 128 -22 316 -28 418 -16 266 -30 379 -24 190z"/>
<path d="M13260 7950 c0 -29 -1 -30 -22 -19 -28 15 -299 17 -758 6 -173 -4
-320 -7 -327 -7 -6 0 -9 -8 -6 -20 3 -12 0 -20 -6 -20 -7 0 -10 -4 -6 -10 3
-5 -3 -37 -14 -72 -29 -96 -44 -174 -37 -187 4 -6 0 -18 -8 -27 -18 -18 -21
-34 -6 -34 15 0 12 -16 -6 -34 -12 -12 -12 -16 -2 -16 9 0 10 -3 2 -8 -7 -4
-12 -20 -12 -37 0 -16 -5 -31 -11 -33 -6 -2 -8 -14 -5 -29 4 -14 2 -28 -4 -32
-6 -4 -13 -27 -16 -51 -3 -25 -7 -54 -10 -65 -8 -37 -47 -219 -66 -315 -10
-52 -31 -151 -45 -220 -14 -69 -33 -163 -41 -210 -8 -47 -29 -146 -46 -220
-28 -114 -34 -130 -39 -100 l-5 35 -8 -45 c-25 -153 -85 -444 -141 -690 -35
-157 -52 -249 -60 -328 -4 -37 -11 -85 -17 -107 -6 -22 -18 -76 -28 -120 -9
-44 -36 -152 -59 -240 -23 -88 -57 -230 -76 -315 -34 -160 -40 -184 -73 -310
-17 -63 -39 -178 -47 -240 -1 -8 -4 -22 -7 -30 -10 -26 -57 -212 -72 -285 -9
-38 -25 -115 -38 -170 -14 -62 -23 -138 -24 -200 -2 -103 -14 -163 -36 -176
-9 -6 -10 -11 -2 -19 17 -17 42 -2 37 23 -4 27 11 52 26 43 6 -4 11 -20 11
-36 0 -16 4 -31 9 -35 5 -3 15 -30 21 -60 6 -30 16 -57 21 -60 5 -4 9 -14 9
-24 0 -29 57 -48 120 -40 30 4 96 8 145 8 62 1 85 4 75 11 -10 7 28 10 118 10
86 0 132 -4 132 -11 0 -7 63 -8 201 -3 185 7 203 6 215 -10 11 -16 13 -16 19
3 5 17 12 19 58 15 37 -3 46 -2 32 5 -11 5 -30 10 -43 10 -21 1 -22 4 -16 39
4 20 11 48 17 62 6 14 9 30 9 36 -3 15 211 7 268 -11 11 -4 20 -2 20 4 0 6 7
11 16 11 9 0 12 -5 8 -11 -9 -14 233 -6 281 10 17 5 24 10 17 10 -7 1 -10 6
-7 12 4 6 24 10 44 8 20 -1 61 -1 91 1 l55 3 -50 7 c-51 7 -240 4 -355 -6 -86
-7 -123 -8 -261 -5 l-115 3 4 28 4 27 71 -14 c54 -11 108 -13 217 -8 80 4 171
8 202 9 32 1 61 5 65 9 5 6 -182 10 -431 9 -26 0 -44 4 -40 8 5 5 119 10 254
11 333 4 356 17 35 19 -345 2 -351 2 -346 20 1 8 3 26 3 40 0 29 17 137 25
160 3 8 7 26 9 40 2 14 6 36 10 50 11 40 13 51 20 130 4 41 10 80 14 85 13 18
42 164 34 176 -5 9 9 10 56 6 35 -4 190 -7 346 -7 l283 0 6 -47 c4 -27 14 -54
23 -60 14 -12 14 -14 0 -25 -13 -11 -14 -17 -2 -43 7 -16 14 -25 14 -20 2 15
18 -27 19 -48 1 -10 -3 -15 -9 -12 -5 3 -10 -1 -10 -10 0 -9 4 -13 10 -10 11
6 26 -42 16 -52 -3 -4 -6 3 -6 15 0 12 -5 22 -11 22 -6 0 -8 -7 -5 -16 6 -16
34 -151 57 -279 10 -55 22 -82 56 -129 30 -42 40 -63 33 -71 -7 -9 -2 -17 17
-30 16 -9 40 -31 55 -49 26 -29 27 -30 28 -8 0 36 -26 90 -62 125 -67 67 -82
99 -51 111 12 5 14 9 5 18 -17 17 -15 38 3 38 8 0 15 -3 16 -7 4 -45 31 -143
40 -149 12 -7 24 26 12 35 -22 14 -37 140 -19 158 2 3 12 -31 21 -74 10 -43
24 -105 33 -138 8 -33 16 -80 18 -105 2 -25 6 -56 10 -69 7 -22 5 -23 -24 -19
-18 2 -32 1 -32 -4 0 -4 15 -8 34 -8 19 0 38 -4 41 -10 4 -6 106 -8 273 -5
147 3 379 2 516 -2 l249 -8 17 -60 c23 -79 39 -119 46 -112 4 3 -3 37 -15 76
-11 38 -21 79 -21 91 0 13 -4 39 -10 59 -24 87 -70 282 -68 288 0 5 -4 22 -11
38 -13 31 -47 176 -76 325 -18 89 -20 98 -54 245 -42 177 -60 271 -57 297 2
15 -2 26 -7 25 -11 -2 -43 124 -73 288 -25 139 -26 152 -15 135 7 -9 11 -10
11 -3 0 7 -8 17 -17 22 -10 6 -12 11 -5 11 6 0 12 5 12 11 0 5 -3 8 -7 6 -5
-3 -8 14 -9 37 0 23 -7 53 -14 66 -8 14 -13 32 -12 40 2 14 -23 102 -44 154
-5 14 -4 17 4 12 7 -4 12 -2 12 3 0 6 -5 11 -11 11 -6 0 -8 9 -4 20 3 11 2 20
-3 20 -5 0 -9 16 -10 36 -1 20 -6 42 -12 49 -5 6 -7 14 -4 18 3 3 1 14 -5 25
-6 12 -13 36 -16 54 -2 18 -11 65 -20 103 -8 39 -20 92 -25 120 -6 27 -29 115
-51 195 -44 154 -61 227 -84 354 -8 44 -35 170 -59 280 -24 111 -56 257 -72
326 -15 69 -33 152 -41 185 -8 33 -20 94 -27 135 -8 41 -26 125 -41 185 -56
229 -94 392 -105 450 -7 33 -18 89 -26 125 -8 36 -16 75 -19 88 -5 29 -85 169
-131 229 -39 51 -43 73 -14 73 11 0 20 5 20 11 0 7 -10 9 -25 5 -20 -5 -26 -2
-31 19 -9 35 -24 31 -24 -5z m-915 -45 c44 -4 270 -6 503 -5 l422 1 11 -28 c5
-15 26 -49 45 -75 18 -26 34 -50 34 -53 0 -3 12 -24 26 -46 14 -23 24 -43 21
-45 -2 -2 -246 -5 -543 -5 l-539 -1 -3 23 c-2 13 -3 38 -3 54 1 17 -2 41 -6
55 -5 18 -9 5 -13 -49 l-5 -74 -41 84 c-53 106 -84 172 -84 176 0 2 21 1 48
-1 26 -3 83 -8 127 -11z m-116 -206 l52 -116 -22 -79 c-11 -43 -28 -113 -36
-154 -8 -41 -28 -131 -45 -200 -16 -69 -34 -147 -40 -175 -7 -27 -17 -55 -25
-61 -7 -6 -10 -13 -8 -16 3 -3 -6 -59 -21 -124 -14 -65 -29 -141 -34 -169 -5
-27 -23 -111 -39 -185 -40 -176 -47 -213 -72 -350 -11 -63 -40 -197 -65 -296
-24 -100 -57 -246 -73 -325 -54 -261 -150 -660 -162 -673 -11 -12 -11 -2 0 47
9 36 -3 53 -13 20 -5 -16 -8 -37 -20 -138 -2 -11 -8 -31 -16 -44 -11 -21 -10
-23 5 -17 13 5 16 2 11 -10 -3 -8 -6 -21 -6 -27 0 -7 -5 -6 -10 3 -8 11 -9 5
-6 -23 3 -36 -21 -152 -59 -280 -9 -33 -21 -82 -26 -110 -16 -98 -59 -300 -82
-389 -14 -51 -34 -82 -23 -33 4 17 12 54 17 84 4 30 13 68 19 85 18 57 87 410
89 461 1 28 6 67 10 88 5 20 5 37 1 37 -11 0 -28 -76 -34 -150 -5 -63 -12
-108 -22 -142 -3 -9 -7 -26 -9 -37 -2 -11 -9 -29 -15 -38 -11 -17 -11 -17 -6
0 19 62 37 216 38 334 0 118 15 251 34 316 3 9 11 17 19 17 11 0 21 22 31 70
2 8 5 53 8 100 4 81 15 148 55 325 11 44 26 123 36 175 30 170 55 294 65 326
6 17 12 44 14 60 2 16 9 49 16 74 7 25 14 54 15 65 6 35 44 204 80 355 18 80
45 204 59 275 58 297 170 807 181 825 3 5 14 55 25 112 11 57 21 112 23 123 3
11 8 42 12 69 3 26 10 44 14 40 5 -5 32 -61 60 -125z m1209 -154 c7 -38 18
-95 23 -125 6 -30 26 -118 46 -195 32 -130 93 -405 149 -675 13 -63 29 -140
35 -170 6 -30 31 -134 54 -230 23 -97 38 -178 33 -181 -10 -7 -3 -55 11 -72 5
-7 10 -25 12 -42 2 -16 7 -36 12 -42 5 -7 11 -36 14 -65 3 -29 9 -54 14 -56 5
-2 6 -15 3 -28 -3 -13 -2 -24 3 -24 5 0 9 -10 8 -22 -2 -22 38 -187 52 -218 4
-8 7 -19 8 -25 1 -5 7 -27 14 -48 7 -21 11 -41 8 -43 -3 -3 4 -33 14 -67 11
-34 24 -82 30 -107 18 -82 41 -205 45 -240 l4 -35 -15 30 c-8 17 -14 36 -15
44 0 8 -2 12 -5 9 -3 -3 -1 -27 6 -52 8 -33 16 -46 25 -42 8 3 14 -1 14 -9 0
-8 -4 -15 -10 -15 -17 0 -11 -18 13 -41 18 -18 19 -21 3 -15 -14 5 -17 2 -12
-10 3 -8 6 -20 6 -25 0 -6 6 -7 13 -3 8 5 9 4 2 -5 -16 -17 -6 -84 11 -77 11
4 12 1 5 -12 -10 -19 -3 -72 10 -72 5 0 6 -7 3 -15 -4 -8 -1 -15 5 -15 8 0 10
-13 6 -37 -3 -26 -2 -32 3 -18 8 17 9 16 16 -10 4 -17 9 -38 13 -49 3 -12 1
-16 -6 -12 -6 4 -11 3 -11 -2 0 -6 7 -12 15 -16 9 -3 15 -19 15 -41 0 -20 5
-45 10 -55 6 -11 12 -32 15 -47 2 -15 9 -48 15 -73 6 -25 18 -79 25 -120 27
-143 54 -270 59 -279 6 -9 15 -46 60 -256 80 -369 137 -597 161 -645 l13 -25
-412 2 c-226 1 -449 2 -496 2 l-86 1 -18 93 c-29 145 -47 252 -66 382 -26 181
-40 270 -59 359 -12 54 -21 113 -21 132 0 36 -14 51 -33 36 -8 -7 -70 -7 -182
-1 -93 6 -208 7 -255 4 -189 -12 -255 -13 -267 -4 -8 7 -18 7 -30 1 -10 -6
-46 -12 -81 -14 -58 -4 -76 -10 -78 -26 0 -4 -4 -14 -7 -22 -3 -8 -18 -58 -32
-110 -15 -52 -33 -108 -40 -125 -30 -65 -121 -423 -113 -446 2 -7 19 49 38
124 19 76 37 137 42 137 10 0 10 -1 -2 -37 -6 -17 -12 -41 -14 -54 -3 -35 -25
-136 -42 -194 -8 -28 -13 -60 -12 -70 1 -11 -4 -56 -11 -99 l-14 -79 -121 7
c-67 3 -137 10 -157 15 -21 5 -43 5 -50 0 -8 -4 -16 -4 -20 2 -4 6 -117 11
-303 12 -164 1 -300 5 -302 9 -3 4 7 49 20 100 14 51 46 183 70 293 25 110 52
228 61 262 9 33 15 65 14 70 -1 4 1 15 4 23 17 42 34 130 25 130 -6 0 -7 7 -3
18 4 9 20 78 35 152 16 74 36 164 45 200 9 36 18 79 21 95 9 71 17 95 30 95 8
0 14 4 14 10 0 5 -7 7 -15 4 -19 -8 -19 6 -1 74 8 28 12 52 10 52 -3 0 -2 6 3
13 4 6 9 21 10 31 2 11 6 22 8 25 9 9 5 -28 -10 -86 -8 -31 -15 -66 -15 -76 0
-30 17 -10 26 30 4 21 8 40 9 43 3 12 19 96 20 105 1 6 5 25 9 44 5 18 10 45
11 60 2 14 8 44 14 66 6 22 8 48 5 58 -3 9 -1 17 4 17 6 0 9 11 7 25 -1 14 2
25 7 25 4 0 6 11 4 25 -3 16 1 28 11 34 10 5 14 16 11 29 -3 12 -2 22 2 24 5
2 11 17 13 33 3 17 11 55 17 85 7 30 14 73 17 95 2 22 8 44 13 50 4 5 11 30
15 55 4 25 20 99 36 165 16 66 32 136 34 155 3 19 10 53 15 75 5 22 17 74 26
115 9 41 22 95 29 120 14 45 49 219 60 295 7 45 27 146 50 250 37 164 45 205
49 237 3 18 21 84 41 147 19 63 37 128 40 145 2 17 8 49 13 71 6 22 31 123 55
225 25 102 54 211 65 244 11 32 18 66 15 75 -6 25 16 39 67 43 25 2 268 3 540
3 l495 0 13 -70z"/>
<path d="M12775 6883 c-27 -2 -76 -8 -108 -13 -62 -12 -182 -64 -182 -79 0 -6
-25 -27 -55 -48 -82 -58 -84 -59 -77 -40 10 26 0 21 -39 -20 -82 -86 -169
-241 -204 -363 -31 -107 -38 -317 -15 -420 10 -41 20 -92 22 -112 3 -21 9 -38
14 -38 5 0 9 -6 9 -13 0 -8 36 -79 80 -158 44 -79 80 -147 80 -151 0 -8 105
-200 223 -408 l59 -105 -12 -67 c-6 -37 -18 -72 -26 -79 -11 -9 -11 -15 -3
-25 9 -10 7 -34 -5 -96 -11 -56 -13 -85 -6 -92 5 -5 10 -21 11 -35 l0 -26 11
23 c11 22 16 23 109 20 66 -1 102 2 112 10 12 10 20 6 48 -25 19 -22 34 -33
37 -25 4 13 42 17 42 4 0 -4 25 -8 55 -7 36 0 55 4 55 12 0 10 6 10 24 1 20
-8 34 -7 67 6 25 10 45 13 48 8 9 -15 90 -19 288 -13 141 5 171 20 43 22 -52
1 -102 1 -110 0 -57 -9 -100 -9 -100 0 0 7 14 8 40 4 26 -4 40 -3 40 4 0 6 14
11 30 11 17 0 30 5 30 11 0 6 -8 8 -19 4 -10 -3 -23 1 -30 9 -8 9 -28 14 -56
13 -33 -2 -50 3 -65 18 -20 21 -24 38 -55 267 l-16 117 73 143 c40 79 73 148
74 153 0 6 13 35 29 65 51 99 115 229 115 235 0 4 14 36 30 72 17 35 30 68 30
72 0 4 15 45 34 92 110 273 64 550 -133 809 -52 69 -100 108 -171 144 -36 17
-85 44 -110 58 -64 37 -221 59 -365 51z m242 -58 c40 -8 97 -24 127 -35 66
-25 179 -97 172 -109 -4 -5 -28 -12 -55 -16 -45 -6 -54 -4 -98 26 -26 17 -59
41 -73 53 l-25 21 20 -23 c11 -13 41 -37 67 -54 26 -17 48 -35 48 -39 0 -8
-89 -37 -225 -74 -98 -27 -298 -96 -322 -111 -12 -8 -26 -14 -31 -14 -5 0 -36
35 -70 78 -101 125 -111 137 -117 130 -4 -3 33 -54 80 -113 l87 -106 -20 -22
c-35 -37 -70 -115 -112 -243 -22 -68 -40 -129 -40 -136 0 -21 -46 -65 -146
-139 -51 -38 -96 -74 -99 -79 -12 -20 -24 -9 -32 28 -9 47 -8 42 -22 76 -7 18
-11 72 -10 136 1 97 5 117 45 234 48 141 102 251 146 298 15 16 28 33 28 37 1
12 122 94 188 126 165 80 328 104 489 70z m345 -192 c62 -68 113 -155 165
-288 24 -63 27 -83 27 -197 1 -123 -6 -157 -24 -128 -8 13 -10 12 -10 -3 0
-10 7 -20 15 -23 19 -8 20 -63 2 -88 -13 -18 -15 -17 -36 13 -25 35 -114 212
-126 251 -11 38 -135 351 -150 380 -32 64 -31 67 37 89 35 11 66 20 69 20 3 1
17 -11 31 -26z m-160 -100 c20 -43 69 -161 107 -261 39 -101 85 -211 102 -243
18 -33 30 -61 28 -63 -2 -2 -63 35 -136 83 -72 47 -139 91 -147 96 -13 8 -14
17 -7 45 15 56 34 351 23 362 -8 8 -24 -140 -35 -317 l-2 -40 -34 53 c-43 68
-119 135 -169 150 -81 24 -186 8 -283 -45 -35 -18 -56 -41 -83 -86 -33 -55
-37 -58 -31 -27 4 19 22 64 39 100 27 57 37 68 81 90 39 19 482 177 505 179 3
1 22 -34 42 -76z m-231 -204 c155 -79 178 -324 42 -450 -83 -76 -169 -91 -239
-40 -92 66 -119 125 -111 241 5 77 29 142 80 214 45 64 142 79 228 35z m-445
-226 c-6 -45 -9 -80 -5 -77 8 5 11 -4 29 -83 14 -62 71 -132 134 -166 58 -31
183 -30 247 1 25 12 48 22 52 22 4 0 -15 -33 -42 -72 -65 -98 -97 -153 -85
-145 5 3 44 57 86 119 42 62 91 127 108 143 43 41 90 147 97 218 3 31 8 57 10
57 2 0 30 -18 61 -39 31 -22 103 -69 160 -105 70 -45 102 -71 100 -82 -2 -10
-94 -62 -223 -128 -121 -61 -268 -140 -326 -174 -58 -34 -110 -62 -117 -62 -6
0 -34 33 -61 73 -27 39 -75 99 -106 131 -31 32 -54 65 -51 72 3 7 -1 17 -9 22
-27 14 -106 145 -94 153 7 4 9 14 4 25 -5 11 -7 23 -6 28 1 5 -5 4 -13 -3 -14
-12 -14 -10 -5 18 11 30 12 31 26 14 14 -17 14 -17 10 5 -5 20 3 64 19 111 11
33 11 0 0 -76z m-38 -195 c74 -109 112 -161 160 -216 52 -62 112 -139 112
-145 0 -8 -93 29 -215 85 -210 96 -300 135 -327 142 -30 7 -36 21 -15 29 8 3
62 42 121 86 60 45 111 81 115 81 4 0 26 -28 49 -62z m957 -225 c-38 -87 -88
-194 -111 -238 -75 -142 -93 -178 -149 -295 -73 -154 -141 -279 -199 -369 -43
-66 -84 -147 -100 -193 -15 -48 -21 -1 -24 185 -2 111 -5 234 -7 272 -2 39 -6
154 -10 256 l-6 187 53 34 c104 68 160 99 310 172 84 41 160 77 168 80 8 4 42
22 75 40 33 19 62 32 64 30 2 -2 -27 -74 -64 -161z m-1215 65 c51 -24 299
-133 415 -182 151 -64 160 -69 158 -91 -2 -11 2 -99 8 -195 10 -168 28 -692
23 -698 -1 -2 -14 21 -28 50 -31 65 -71 135 -118 208 -19 30 -84 141 -143 245
-60 105 -116 201 -125 215 -27 39 -240 453 -240 466 0 3 3 4 8 2 4 -2 23 -11
42 -20z"/>
<path d="M5373 7931 c-29 -20 -58 -43 -65 -52 -20 -26 -68 -53 -68 -40 0 7 -5
9 -10 6 -6 -4 -7 -11 -4 -17 14 -23 -175 -188 -217 -188 -20 -1 -21 -2 -8 -10
13 -8 14 -18 7 -57 -13 -76 -21 -933 -8 -933 6 0 8 -5 4 -12 -9 -13 -9 0 0
-393 10 -457 12 -1591 3 -1945 -14 -531 -14 -585 -4 -598 10 -12 13 -272 9
-656 -1 -121 1 -223 5 -227 15 -15 175 -30 263 -25 49 2 90 1 92 -4 3 -9 448
-19 448 -10 0 9 111 30 156 30 22 0 46 -6 53 -12 10 -11 14 -10 22 4 5 10 10
21 11 25 0 5 12 22 27 38 14 17 33 42 42 55 9 14 21 21 25 17 5 -5 1 -14 -9
-21 -24 -18 -21 -26 8 -26 18 0 23 4 19 15 -4 8 -1 15 5 15 6 0 11 -4 11 -9 0
-11 31 -24 39 -16 3 3 -1 10 -9 15 -11 7 -8 10 13 10 16 0 26 -4 22 -10 -4 -6
5 -10 19 -10 14 0 26 -4 26 -10 0 -5 -22 -10 -49 -10 -55 0 -81 -7 -81 -22 0
-6 16 -7 38 -4 20 3 75 8 122 11 95 6 134 24 50 23 -56 0 -86 16 -60 32 8 5
25 10 37 10 12 0 25 5 28 11 5 7 -19 10 -79 7 -52 -2 -86 1 -86 7 0 6 10 11
22 11 196 12 353 18 396 17 32 -2 51 1 47 7 -3 6 -61 10 -128 11 -120 1 -121
1 -70 13 29 7 87 11 130 9 62 -3 74 -2 59 8 -21 13 -292 7 -289 -7 1 -5 -35
-9 -81 -9 -78 1 -82 -1 -105 -28 -18 -21 -21 -31 -12 -37 10 -5 9 -9 -2 -13
-9 -3 -20 0 -25 6 -7 8 9 35 55 89 36 43 70 78 76 77 8 0 8 -2 0 -6 -7 -2 -13
-10 -13 -16 0 -6 -10 -21 -22 -34 -22 -24 -20 -41 4 -27 7 5 18 9 23 9 19 1
170 16 210 20 22 3 56 8 75 13 51 12 13 21 -73 17 -98 -4 -92 12 8 20 47 4 85
9 83 10 -9 9 -257 13 -260 5 -2 -6 -9 -6 -18 0 -13 9 -11 13 10 29 18 15 21
22 13 33 -6 7 -13 24 -16 38 -5 22 -5 22 -5 -5 0 -46 -2 -51 -11 -36 -5 7 -9
46 -9 85 0 50 2 62 8 41 l7 -30 7 26 c4 14 3 63 -3 110 -8 74 -22 829 -14 829
5 0 70 -135 86 -180 9 -25 66 -202 127 -395 187 -591 263 -819 277 -836 21
-25 16 -29 -43 -29 -34 0 -53 -4 -49 -10 8 -13 474 -13 670 1 201 14 479 24
536 20 9 0 24 -19 34 -41 10 -22 20 -38 23 -36 8 9 8 81 0 93 -6 8 4 30 31 67
22 30 46 58 52 61 17 11 -17 -48 -40 -69 -12 -11 -21 -25 -21 -33 0 -18 61 53
83 97 29 56 50 93 73 125 11 17 24 38 27 49 4 11 13 16 22 12 24 -9 8 46 -56
195 -33 76 -59 142 -59 149 0 7 -9 29 -19 49 -29 54 -203 488 -256 636 -17 50
-35 99 -39 110 -32 85 -40 105 -51 140 -7 22 -23 65 -35 95 -41 106 -52 143
-47 161 3 11 1 17 -4 13 -5 -3 -9 3 -9 14 0 22 -29 96 -104 264 -31 70 -56
131 -56 135 0 5 -10 13 -21 18 -30 14 -28 27 8 50 18 11 32 25 33 30 0 6 19
28 41 50 23 22 60 64 82 93 22 28 43 52 48 52 5 0 9 5 9 11 0 5 -6 7 -12 3 -7
-5 2 12 21 36 18 25 43 60 54 77 12 18 26 33 30 33 11 0 -29 -67 -60 -101 -34
-37 -28 -48 8 -13 36 35 102 132 102 151 0 7 4 13 8 13 4 0 9 7 13 15 10 26
-8 16 -34 -20 -41 -56 -42 -40 -2 35 36 69 61 95 42 44 -12 -31 -12 -34 -2
-34 9 0 38 88 36 108 -1 6 3 12 8 12 5 0 8 6 5 13 -2 6 6 42 18 78 25 73 41
182 50 334 3 55 10 159 14 230 15 214 6 301 -49 472 -17 51 -30 102 -30 113 0
11 -5 19 -11 18 -11 -3 -63 131 -55 139 2 2 11 -13 21 -32 9 -20 19 -34 22
-32 5 6 -36 90 -49 98 -5 3 -10 13 -12 21 -1 8 -9 27 -19 41 -9 15 -17 29 -17
32 0 9 -41 65 -87 120 -46 53 -57 81 -21 49 l22 -19 -21 31 c-29 41 -94 100
-175 157 -86 62 -312 177 -405 206 -40 13 -78 30 -84 38 -8 9 -15 10 -19 4 -4
-7 -55 1 -145 23 -171 42 -321 60 -480 58 -66 -1 -298 -3 -516 -4 -373 -3
-396 -2 -391 15 5 21 7 22 -55 -22z m552 -36 c50 0 191 2 315 5 252 5 336 -2
439 -36 24 -8 52 -12 62 -9 11 4 19 2 19 -4 0 -14 31 -30 88 -46 26 -7 78 -25
116 -39 82 -31 98 -28 27 5 -96 46 -49 43 79 -4 62 -22 160 -67 170 -77 3 -3
44 -25 92 -50 86 -44 108 -60 209 -149 41 -37 129 -157 129 -176 0 -4 11 -21
25 -39 14 -18 29 -54 34 -80 5 -26 14 -53 20 -59 6 -6 11 -20 11 -30 0 -10 6
-33 14 -50 44 -98 69 -169 77 -220 5 -33 12 -64 16 -70 19 -30 37 -204 37
-352 0 -144 -6 -215 -16 -215 -4 0 -8 5 -8 11 0 5 -4 8 -8 5 -5 -3 -5 23 0 57
10 70 10 67 5 162 -3 49 -7 69 -16 67 -7 -1 -10 1 -7 6 2 4 1 14 -5 22 -7 13
-9 12 -9 -2 0 -9 -9 -19 -19 -23 -17 -5 -27 -22 -37 -66 -2 -9 5 -24 16 -34
11 -10 20 -13 20 -7 0 6 -5 12 -11 14 -9 3 -8 14 2 41 22 60 34 39 34 -60 0
-64 -3 -89 -11 -86 -7 2 -15 0 -19 -6 -3 -6 -1 -11 5 -11 7 0 10 -6 7 -12 -2
-7 -7 -24 -11 -38 -7 -24 -7 -24 9 -5 15 19 15 19 11 -5 -2 -14 -9 -24 -15
-22 -6 1 -11 -7 -11 -19 0 -11 5 -17 10 -14 6 3 10 2 10 -4 0 -5 -6 -12 -12
-15 -7 -3 -3 -3 10 0 12 3 22 1 22 -5 0 -6 -4 -11 -10 -11 -5 0 -10 -9 -10
-20 0 -11 -7 -20 -15 -20 -16 0 -18 -10 -16 -77 1 -34 -2 -41 -14 -37 -8 4
-15 1 -15 -5 0 -6 -4 -11 -8 -11 -13 0 -8 94 6 109 10 10 10 16 1 27 -9 11 -8
20 5 39 14 21 14 25 2 25 -10 0 -14 13 -14 43 0 23 -2 78 -3 123 -1 44 1 86 5
92 4 7 2 12 -3 12 -6 0 -11 -4 -11 -10 0 -5 -4 -10 -8 -10 -12 0 -32 46 -25
54 11 11 21 6 26 -11 3 -10 5 4 6 30 0 27 5 46 9 43 4 -2 14 -1 21 4 16 9 7
61 -11 57 -6 -1 -12 13 -13 33 -5 57 -15 94 -31 103 -8 4 -14 19 -14 31 0 13
-7 27 -15 30 -13 5 -14 10 -4 27 8 15 8 19 0 15 -7 -5 -11 2 -11 16 0 26 -16
55 -25 46 -15 -14 44 -178 64 -178 3 0 6 -51 6 -113 0 -106 -1 -112 -17 -97
-12 11 -18 36 -20 88 -2 39 -6 72 -9 72 -4 0 -9 15 -12 33 -6 39 -26 115 -37
142 -45 113 -116 239 -163 293 -11 12 -18 22 -15 22 3 0 -7 14 -22 30 -15 17
-33 30 -39 30 -5 0 -14 6 -18 14 -12 21 -139 125 -223 182 -153 104 -304 158
-605 219 -183 36 -461 41 -950 16 -104 -5 -262 -12 -350 -15 l-160 -6 35 28
c19 15 57 47 85 72 28 25 67 58 86 74 19 16 54 47 78 69 l43 39 212 -8 c116
-5 252 -9 301 -9z m493 -289 c258 -37 425 -83 607 -167 72 -33 235 -150 279
-200 21 -24 56 -63 77 -86 21 -23 39 -46 39 -51 0 -4 16 -24 36 -43 19 -18 51
-67 69 -107 35 -75 102 -305 115 -399 5 -28 11 -56 14 -61 3 -5 7 -31 9 -58 3
-27 3 -43 0 -36 -9 23 -18 12 -19 -23 0 -30 2 -34 19 -29 19 6 19 0 14 -222
-3 -126 -8 -242 -11 -259 -3 -16 -8 -48 -10 -70 -3 -22 -9 -41 -15 -43 -6 -2
-11 -13 -11 -25 0 -67 -83 -281 -160 -411 -57 -96 -123 -158 -288 -268 -50
-34 -95 -70 -98 -80 -3 -9 -24 -25 -46 -35 l-41 -18 38 -5 c21 -3 41 -12 45
-20 45 -91 181 -426 221 -542 17 -51 55 -147 84 -213 81 -182 127 -297 122
-302 -5 -4 -81 130 -182 322 -32 61 -100 187 -150 280 -51 94 -129 242 -173
330 -45 88 -88 171 -97 185 -14 24 -111 197 -261 468 -41 73 -74 136 -74 140
0 4 -9 18 -20 32 -23 29 -25 40 -7 40 15 0 89 109 117 173 49 110 64 214 61
407 -2 165 -14 224 -72 345 -37 79 -73 121 -169 198 l-35 28 35 -17 c28 -14
32 -14 23 -2 -7 8 -31 23 -53 33 -22 10 -38 20 -35 23 3 3 -25 16 -62 29 -72
25 -160 29 -268 12 -154 -25 -143 -22 -111 -28 l29 -6 -2 -123 c-1 -68 -5
-134 -7 -145 -7 -33 -3 -808 4 -930 4 -60 3 -115 -2 -124 -15 -27 15 -34 119
-28 135 9 216 28 302 75 l72 39 14 -27 c40 -76 79 -142 83 -142 3 0 -16 40
-41 88 -46 90 -51 102 -37 102 9 0 10 -1 182 -320 37 -69 77 -141 88 -162 11
-20 60 -112 108 -205 114 -222 234 -445 304 -568 32 -55 101 -181 155 -280 54
-99 123 -225 154 -280 31 -55 72 -138 90 -185 18 -47 64 -163 103 -259 38 -95
67 -178 65 -185 -2 -6 -98 178 -214 409 -116 231 -247 490 -293 575 -45 85
-172 328 -282 540 -110 212 -205 390 -210 395 -10 9 35 -86 86 -185 13 -25 63
-121 111 -215 48 -93 145 -280 215 -415 70 -135 250 -488 399 -785 149 -297
285 -565 301 -594 16 -30 28 -56 27 -58 -2 -1 -156 -5 -343 -8 -186 -3 -350
-7 -364 -9 -14 -2 -101 -5 -195 -7 l-169 -4 -7 40 c-4 22 -57 189 -117 370
-61 182 -129 391 -152 465 -23 74 -57 182 -75 240 -18 58 -39 125 -45 150 -6
25 -22 56 -35 70 -25 28 -54 82 -86 161 -16 43 -21 80 -24 201 -2 109 0 148 9
145 6 -2 14 -17 18 -33 5 -25 6 -23 5 11 -2 36 -5 40 -31 43 l-29 4 6 -126 c3
-69 3 -126 -1 -126 -8 0 -25 25 -67 100 -35 65 -123 150 -153 150 -12 0 -25
-8 -29 -17 -4 -10 -5 -137 -2 -283 3 -146 4 -551 2 -900 l-4 -635 -480 0 -480
0 5 315 c3 173 5 365 5 427 l0 112 130 258 c72 142 184 358 251 481 111 206
150 287 99 202 -52 -84 -293 -528 -362 -665 -41 -82 -87 -170 -101 -195 l-27
-45 7 75 c7 80 9 83 151 330 33 58 71 125 85 150 31 56 210 366 348 600 56 96
134 229 173 295 38 66 83 140 98 165 32 52 57 112 39 94 -14 -14 -56 -83 -336
-550 -258 -430 -394 -665 -539 -928 -8 -16 -19 -26 -22 -22 -8 7 -5 1745 3
1758 7 11 6 596 -1 1008 -4 195 -8 470 -10 610 -2 140 -5 264 -7 275 -2 12 3
20 12 20 8 0 20 3 25 6 6 4 48 2 95 -3 83 -9 276 -4 510 12 184 13 608 5 738
-14z m-84 -808 c60 -17 125 -64 192 -139 115 -128 152 -231 161 -444 4 -119 2
-156 -17 -245 -26 -127 -36 -149 -77 -172 -53 -32 -168 -58 -249 -58 -68 0
-75 2 -69 18 13 35 3 959 -11 1005 -5 16 10 47 24 47 2 0 23 -5 46 -12z m-264
-380 c2 -18 4 -59 4 -91 1 -41 4 -56 14 -52 6 2 12 0 12 -4 0 -5 -7 -11 -15
-15 -22 -8 -19 -37 3 -30 14 5 14 4 3 -4 -22 -16 2 -38 41 -41 57 -4 59 -4 55
-14 -4 -14 -35 -18 -43 -5 -3 5 -13 0 -21 -11 -17 -24 -33 -27 -33 -6 0 9 6
12 15 9 8 -4 15 -1 15 5 0 6 -7 11 -15 11 -8 0 -15 5 -15 10 0 6 -4 10 -8 10
-5 0 -9 -13 -9 -30 0 -16 4 -30 8 -30 5 0 7 -6 5 -12 -1 -7 -1 -10 1 -5 3 4
13 7 23 7 10 0 20 6 23 13 3 7 16 12 31 12 28 -2 49 -15 23 -15 -9 0 -17 -5
-17 -11 0 -6 7 -8 16 -5 14 5 15 4 4 -9 -7 -8 -18 -15 -26 -15 -7 0 -18 -9
-24 -19 -14 -27 -13 -34 4 -28 8 3 17 1 19 -6 3 -7 8 3 12 21 4 17 11 32 16
32 5 0 9 -2 9 -4 0 -2 3 -11 6 -20 4 -11 1 -16 -10 -16 -19 0 -22 -16 -4 -22
6 -2 15 -33 19 -69 3 -35 10 -81 14 -101 4 -23 3 -38 -3 -38 -9 0 -36 105 -32
125 7 34 -2 61 -25 72 -14 6 -27 7 -30 3 -8 -13 14 -62 25 -55 5 3 10 1 10 -4
0 -6 -7 -11 -15 -11 -11 0 -14 -9 -12 -35 1 -23 7 -35 17 -35 13 0 13 -1 0
-10 -13 -9 -13 -11 -1 -19 12 -8 12 -12 2 -25 -8 -9 -9 -16 -4 -16 5 0 8 -23
7 -50 -1 -45 1 -50 17 -45 33 11 21 -8 -45 -72 -35 -34 -66 -68 -69 -75 -13
-32 -25 19 -20 81 3 36 6 76 5 89 0 12 5 22 12 22 6 0 5 4 -3 9 -16 10 -16 -8
-7 411 6 296 5 270 9 270 2 0 5 -15 7 -32z m1177 -1491 c29 -54 130 -259 178
-362 103 -218 125 -269 126 -284 0 -10 4 -7 10 8 5 14 6 28 0 35 -33 41 -120
286 -102 286 4 0 29 -46 56 -102 52 -112 85 -163 85 -134 0 43 58 -26 59 -70
1 -12 8 -25 17 -28 9 -3 14 -13 11 -21 -4 -9 -1 -12 9 -8 8 3 14 -1 14 -8 0
-8 6 -26 14 -41 12 -22 38 -91 41 -108 1 -3 10 -25 22 -50 36 -80 64 -163 59
-177 -3 -8 -2 -12 3 -9 5 3 16 -11 24 -32 9 -20 29 -69 46 -108 16 -39 41 -98
56 -130 15 -33 31 -68 35 -79 5 -11 30 -74 56 -140 27 -66 48 -127 47 -135 -1
-8 3 -18 9 -22 28 -17 5 -93 -42 -138 -17 -17 -29 -33 -100 -139 l-50 -74 -15
36 c-8 20 -15 42 -15 49 0 7 -6 25 -14 40 -12 23 -27 73 -31 103 -1 6 -6 23
-13 38 -7 16 -12 31 -12 34 0 3 -8 17 -18 31 -18 26 -32 61 -112 282 -21 58
-55 146 -77 195 -22 50 -55 135 -73 190 -18 55 -44 123 -57 150 -45 93 -125
293 -163 407 -10 32 -24 68 -30 80 -10 21 -10 21 9 -2 26 -31 26 -22 2 27 -10
21 -34 70 -52 108 -19 39 -37 71 -41 73 -4 2 -4 10 -1 18 3 8 1 14 -4 14 -12
0 -93 159 -93 181 0 16 19 39 32 39 4 0 8 -15 8 -32 0 -49 18 -103 50 -156 43
-69 120 -229 141 -292 l18 -55 -20 25 c-21 26 -21 23 -1 -20 27 -60 45 -107
48 -128 1 -13 9 -33 16 -45 8 -12 22 -44 32 -72 10 -27 36 -87 57 -132 22 -46
39 -89 39 -98 0 -8 5 -15 11 -15 6 0 8 7 5 17 -4 9 -14 38 -22 65 -9 26 -22
52 -30 59 -16 13 -19 44 -4 34 6 -3 7 1 3 10 -5 13 -7 14 -14 3 -6 -9 -9 -6
-9 10 0 13 -7 38 -16 55 -9 18 -21 41 -27 52 -6 11 -11 35 -13 54 -4 49 17 22
41 -51 11 -32 23 -58 27 -58 4 0 8 -8 8 -17 0 -9 3 -13 7 -10 3 4 2 17 -4 30
-26 55 -73 183 -73 200 0 24 21 -1 47 -55 16 -35 37 -79 46 -98 l17 -35 -6 35
c-3 19 -12 46 -19 60 -58 115 -91 176 -99 181 -5 4 -6 11 -2 17 3 6 2 13 -4
17 -5 3 -10 21 -10 38 0 38 -152 351 -165 340 -4 -5 -5 -3 -2 4 8 13 -2 45
-12 39 -4 -3 -8 9 -9 27 -3 36 4 31 35 -26z m-1072 -1062 c4 -38 7 -82 6 -97
-1 -16 3 -28 7 -28 10 0 8 -122 -2 -139 -4 -6 -3 -11 2 -11 5 0 10 -21 11 -47
1 -64 5 -86 19 -91 9 -3 10 3 4 20 -16 42 -23 80 -14 74 12 -7 4 264 -8 279
-7 9 -6 16 4 24 12 10 15 1 19 -56 3 -37 5 -81 3 -98 -1 -16 1 -43 5 -60 16
-67 20 -137 8 -130 -11 7 -8 -24 8 -79 4 -14 1 -18 -10 -13 -11 4 -14 2 -10
-8 3 -8 9 -12 14 -9 5 3 9 -2 9 -10 0 -9 -5 -16 -11 -16 -7 0 -9 -11 -6 -29 4
-16 2 -31 -4 -33 -5 -2 -1 -13 10 -25 13 -13 21 -38 22 -67 2 -25 6 -46 11
-46 17 0 7 -27 -20 -58 -16 -17 -46 -54 -68 -81 -21 -28 -42 -50 -46 -51 -5 0
-8 25 -8 56 0 30 -4 63 -10 73 -15 30 -25 139 -23 276 1 72 2 166 2 209 2 146
11 72 16 -125 5 -235 15 -350 26 -343 5 3 7 9 4 14 -11 18 -15 551 -4 545 5
-4 9 -28 8 -53 -2 -62 12 -223 21 -240 8 -17 5 125 -5 191 -6 35 -4 47 5 47 8
0 10 8 6 23 -7 20 -10 43 -14 90 -1 9 -6 17 -11 17 -5 0 -8 -11 -6 -25 1 -14
-2 -28 -6 -31 -5 -3 -9 16 -9 42 0 40 2 45 15 34 13 -11 15 -2 15 75 0 49 2
86 4 84 2 -2 7 -35 11 -74z"/>
<path d="M6445 5453 c-47 -7 -75 -66 -56 -117 9 -22 14 -23 95 -23 56 0 86 4
87 11 5 49 -19 109 -50 126 -20 10 -24 10 -76 3z"/>
<path d="M6021 5397 c-21 -26 -38 -82 -32 -106 6 -24 10 -25 96 -25 l90 -1 0
56 c0 76 -13 89 -85 89 -36 0 -62 -5 -69 -13z"/>
<path d="M6516 5002 c-19 -5 -41 -23 -63 -55 -50 -71 -40 -76 132 -75 153 2
153 2 154 -68 1 -35 -17 -45 -59 -33 -40 11 -140 10 -140 -2 0 -6 -16 -9 -37
-7 -34 3 -37 6 -50 53 -8 28 -19 54 -24 60 -16 16 -10 -40 11 -109 16 -51 25
-66 40 -66 10 0 23 7 28 16 7 12 17 14 46 8 25 -4 34 -9 25 -15 -7 -4 -21 -3
-30 2 -11 6 -20 5 -24 0 -9 -15 83 -25 118 -12 l32 11 -33 -5 c-44 -6 -38 16
7 29 29 8 36 7 50 -13 24 -32 46 -18 59 37 8 37 7 54 -4 81 -8 18 -14 40 -14
47 0 14 -10 28 -61 87 -22 26 -34 30 -80 33 -30 1 -67 0 -83 -4z"/>
<path d="M5830 4977 c-14 -7 -34 -29 -45 -50 -11 -20 -26 -37 -34 -37 -8 0
-11 -6 -7 -15 3 -9 -3 -30 -14 -48 -24 -39 -25 -59 -4 -114 13 -34 22 -43 40
-43 15 0 24 6 24 15 0 8 4 15 10 15 5 0 7 -7 4 -14 -8 -21 85 -25 149 -8 26 7
57 10 68 7 12 -4 21 -1 23 7 2 7 11 37 20 67 9 29 16 69 16 88 0 38 -42 118
-70 133 -27 14 -150 12 -180 -3z m213 -147 c-1 -32 -15 -50 -41 -50 -7 0 -10
5 -7 10 3 6 2 10 -3 10 -14 0 -21 -11 -15 -26 6 -17 40 -18 46 -1 2 6 8 9 13
4 4 -4 1 -15 -8 -24 -13 -12 -43 -16 -147 -18 -152 -3 -161 1 -142 65 19 64
23 65 172 64 l134 0 -2 -34z"/>
<path d="M6753 4089 c-18 -5 -40 -22 -49 -37 -10 -15 -32 -41 -51 -57 l-34
-31 -1 -114 c-1 -101 2 -123 24 -180 14 -36 28 -81 32 -101 9 -52 31 -65 116
-73 41 -4 80 -7 85 -6 26 2 255 10 292 10 23 0 44 4 48 10 3 5 1 10 -4 10 -25
0 -8 30 24 46 20 9 34 19 31 21 -2 3 -14 -1 -27 -7 -21 -12 -22 -11 -14 26 16
72 9 126 -22 189 l-29 61 20 16 c27 21 14 35 -18 20 -19 -9 -24 -8 -21 1 2 7
-17 48 -43 91 -63 106 -84 116 -222 115 -58 0 -120 -5 -137 -10z m267 -24 c16
-8 34 -23 39 -33 8 -16 -2 -17 -147 -17 -164 0 -199 8 -172 40 15 18 42 22
158 24 66 1 102 -3 122 -14z m41 -86 c17 -9 59 -86 59 -108 0 -4 -12 -6 -27
-5 -16 1 -102 3 -192 3 l-164 1 6 50 c3 28 9 55 12 60 8 14 281 13 306 -1z
m-381 -132 c0 4 5 2 12 -5 9 -9 14 -8 22 3 9 11 21 12 61 4 28 -6 124 -9 215
-7 l165 3 26 -54 c27 -55 28 -91 3 -91 -8 0 -14 -4 -14 -10 0 -14 13 -13 28 2
20 20 24 1 7 -35 -24 -50 -54 -63 -116 -49 -65 15 -177 15 -250 0 -39 -8 -70
-9 -96 -2 -31 7 -39 15 -47 44 -5 19 -19 68 -32 108 -30 92 -31 106 -4 92 11
-6 20 -7 20 -3z"/>
<path d="M5463 4049 c-44 -21 -84 -74 -122 -159 -15 -34 -21 -41 -26 -27 -4 9
-16 17 -26 17 -25 0 -24 -12 1 -30 24 -18 25 -33 3 -51 -27 -23 -63 -111 -63
-155 0 -41 43 -152 64 -166 19 -13 54 -9 60 7 5 13 30 15 171 13 91 -2 165 -6
165 -10 0 -10 -6 -10 -179 -8 -88 1 -141 -2 -137 -8 3 -5 45 -10 92 -11 48 -1
91 -4 96 -7 5 -3 41 -3 79 1 56 6 69 10 65 22 -4 8 -3 20 1 26 4 7 9 2 13 -13
5 -20 13 -26 40 -28 38 -4 60 16 60 55 0 18 6 23 24 23 13 0 30 8 37 18 11 14
11 15 -1 5 -19 -18 -50 -16 -50 2 0 9 6 12 15 9 8 -4 15 -2 15 4 0 5 -7 12
-15 16 -9 3 -12 12 -9 21 4 9 13 14 20 11 7 -3 16 -1 19 4 4 6 1 10 -6 10 -10
0 -10 3 -1 12 8 8 12 45 12 100 0 72 -3 89 -17 98 -17 11 -17 11 0 6 36 -11
27 23 -29 108 -67 101 -77 106 -229 106 -81 0 -108 -4 -142 -21z m267 -8 c17
-5 26 -15 28 -34 3 -26 2 -26 -30 -19 -18 4 -93 7 -165 7 -73 0 -133 3 -133 6
0 13 31 32 63 39 40 10 203 10 237 1z m-3 -84 c13 -8 33 -69 33 -99 0 -16 -16
-17 -192 -12 -106 3 -194 7 -195 8 -2 2 8 27 22 57 24 54 24 54 77 59 67 6
239 -2 255 -13z m68 -144 c-4 -110 -37 -183 -82 -183 -15 0 -16 2 -3 10 11 7
7 10 -19 10 -33 0 -34 0 -16 -20 22 -24 57 -26 89 -5 18 12 25 29 31 70 3 30
11 57 16 60 5 4 9 22 9 41 0 24 5 34 15 34 22 0 19 -53 -5 -100 -11 -22 -20
-50 -20 -63 0 -13 -5 -37 -10 -54 -14 -40 -77 -55 -170 -41 -36 5 -124 7 -197
3 -85 -4 -138 -3 -151 4 -25 13 -43 63 -31 82 7 11 10 9 15 -8 4 -14 17 -24
36 -28 37 -9 49 1 17 14 -13 5 -33 18 -43 30 -21 23 -20 28 39 131 l14 24 220
-3 c195 -2 222 -1 227 13 11 28 20 17 19 -21z"/>
<path d="M8400 7948 c0 -7 66 -11 153 -11 15 0 27 -2 27 -4 0 -15 -275 -288
-287 -285 -12 3 -13 -86 -9 -615 4 -442 2 -628 -6 -655 -8 -27 -8 -41 0 -51 6
-7 14 -43 18 -80 7 -65 6 -69 -20 -96 l-27 -28 17 -49 c13 -38 14 -49 3 -53
-7 -2 -24 -16 -38 -31 -14 -14 -39 -32 -55 -38 -26 -12 -28 -16 -24 -55 7 -57
-20 -92 -77 -100 -37 -6 -65 -28 -65 -50 0 -5 18 -27 40 -49 22 -22 40 -44 40
-48 0 -4 -9 -15 -21 -26 -77 -70 -59 -151 41 -184 28 -9 37 -17 30 -24 -19
-19 -10 -57 19 -86 26 -27 31 -28 65 -18 47 15 56 5 60 -58 2 -37 -1 -52 -14
-61 -25 -18 -43 -88 -30 -114 15 -27 -1 -66 -40 -104 -24 -23 -27 -31 -19 -48
8 -15 7 -27 -7 -52 -23 -44 -13 -67 28 -63 17 2 33 9 36 16 2 7 -4 11 -19 10
-28 -4 -36 18 -10 27 22 7 29 39 11 50 -21 13 -8 43 40 96 l49 54 1 -117 c0
-113 -11 -155 -28 -108 -7 19 -10 20 -21 6 -17 -21 -5 -55 24 -62 l23 -6 -4
-711 c-3 -392 -5 -835 -5 -985 l-1 -272 -37 -1 c-33 -2 -33 -2 -6 -6 17 -2 37
-6 45 -9 27 -9 -12 -24 -47 -18 -21 4 -33 2 -33 -5 0 -6 19 -11 45 -11 29 0
46 -5 46 -12 1 -7 3 -20 4 -28 1 -8 3 -27 4 -42 0 -16 6 -28 12 -28 7 0 10 20
7 57 l-3 58 255 8 c298 8 771 9 950 2 69 -3 208 -7 310 -9 l185 -4 -160 11
c-182 14 -177 24 12 26 199 2 775 12 803 14 18 1 24 7 22 20 -2 10 3 17 12 17
10 0 13 -6 9 -16 -4 -11 -1 -15 13 -13 10 2 24 0 31 -4 15 -10 44 2 36 15 -4
7 3 9 20 6 18 -4 24 -1 20 9 -5 13 6 16 60 16 15 0 27 4 27 8 0 15 37 10 50
-6 22 -27 70 -12 70 22 0 9 -6 10 -26 3 -17 -7 -31 -7 -42 0 -13 7 -14 9 -3
10 10 0 11 3 5 9 -5 6 -48 15 -96 21 -141 17 -149 28 -23 30 61 1 124 2 140 1
l30 -1 -25 11 c-23 9 -97 17 -189 18 -19 1 -31 4 -27 8 4 4 51 8 104 9 53 2
110 3 126 3 16 1 26 4 23 7 -7 7 -167 14 -340 16 -67 1 -95 4 -88 11 6 6 30
11 54 12 24 1 51 6 61 12 9 5 31 7 49 5 28 -4 29 -6 12 -13 -11 -4 43 -5 120
-2 77 3 142 7 144 9 10 9 -11 16 -56 19 -26 2 -97 8 -157 14 -60 6 -120 8
-133 5 -31 -8 -29 10 4 36 111 87 220 278 293 510 23 74 46 144 50 155 5 11
25 106 45 210 20 105 43 211 50 236 10 35 10 50 2 58 -9 9 -8 14 3 21 12 7 12
31 2 172 -7 90 -19 199 -28 243 -34 175 -66 310 -73 315 -5 3 -23 34 -41 70
-22 43 -28 66 -21 68 8 3 4 10 -9 19 -12 9 -37 40 -56 70 -39 60 -143 186
-181 219 l-25 21 34 36 c19 19 32 40 30 46 -2 6 8 22 22 36 14 14 26 30 26 34
0 5 7 11 15 15 8 3 15 17 15 30 0 14 8 31 18 38 9 7 17 27 18 43 1 17 15 74
31 127 18 56 28 108 25 123 -4 25 -3 27 19 20 21 -7 22 -6 11 7 -9 12 -10 27
-3 57 5 23 8 54 6 69 -2 15 6 95 17 177 11 83 20 161 20 175 0 14 5 31 10 38
7 8 7 12 0 12 -7 0 -10 28 -10 73 1 83 -6 132 -28 200 -16 47 -12 76 6 47 6
-10 8 -4 8 19 -1 27 -3 30 -11 16 -8 -14 -11 -15 -18 -4 -16 25 -11 49 9 42
12 -5 11 1 -8 21 -14 15 -24 31 -24 34 1 4 -3 18 -8 32 -5 14 -16 54 -24 90
-9 36 -25 75 -37 88 -17 19 -19 25 -8 32 11 6 9 11 -8 21 -11 8 -21 21 -21 30
0 12 -50 80 -80 109 -3 3 -11 13 -19 23 -12 16 -12 17 5 10 10 -3 30 -14 44
-22 13 -9 21 -11 17 -4 -4 6 -31 24 -60 41 -28 16 -71 48 -93 71 -23 22 -47
41 -53 41 -6 0 -10 5 -9 10 3 11 -64 53 -186 116 -37 19 -65 38 -62 41 3 4 16
1 29 -5 53 -27 140 -62 145 -58 6 6 -84 51 -133 65 -22 7 -49 16 -60 21 -22
10 -365 97 -435 110 -25 5 -54 11 -65 13 -11 3 -47 8 -80 12 -32 4 -68 9 -79
11 -11 2 -24 -2 -29 -9 -6 -8 -10 -9 -13 -1 -3 8 -21 8 -57 2 -29 -4 -80 -5
-115 -2 -90 9 -1082 11 -1082 2z m400 -34 c80 -2 287 -7 460 -10 173 -3 351
-7 395 -9 44 -2 101 -5 128 -5 26 -1 47 -6 47 -12 0 -6 6 -8 14 -5 8 3 29 1
46 -6 25 -10 33 -9 40 3 6 9 10 10 10 3 0 -11 48 -29 110 -40 169 -30 342 -98
470 -184 69 -45 220 -203 257 -267 15 -26 41 -67 59 -92 47 -68 86 -182 129
-377 3 -12 1 -24 -3 -27 -5 -3 -15 19 -22 49 -7 30 -17 55 -22 55 -4 0 -16 16
-25 35 -9 19 -20 32 -25 29 -5 -3 -5 -11 1 -17 13 -16 54 -147 48 -153 -2 -3
-17 30 -32 73 -16 43 -32 82 -37 88 -14 16 -9 35 9 28 11 -4 14 -3 9 5 -4 7
-14 12 -22 12 -8 0 -13 3 -12 8 5 16 -35 82 -59 97 -16 11 -22 22 -18 32 6 18
-52 86 -67 77 -5 -3 -34 13 -65 37 -32 23 -64 43 -73 44 -9 0 -27 9 -40 18
-78 55 -151 97 -224 127 -90 38 -59 12 56 -45 62 -31 151 -86 198 -121 46 -35
90 -64 98 -64 16 0 73 -63 88 -97 6 -14 17 -29 25 -34 11 -7 11 -9 1 -9 -8 0
-2 -16 16 -42 36 -53 82 -139 82 -154 0 -6 7 -25 16 -42 8 -18 14 -40 11 -50
-3 -13 -7 -10 -16 13 -29 72 -58 126 -117 216 -109 166 -263 288 -529 419
-243 119 -347 134 -915 125 -478 -7 -797 -15 -846 -21 -22 -3 -54 -2 -72 1
l-34 6 114 112 c63 62 121 126 129 142 17 37 29 46 49 39 8 -3 80 -7 160 -10z
m-350 -308 c30 1 58 -4 63 -10 5 -8 10 -6 17 4 5 8 10 11 10 5 0 -7 195 -9
567 -8 526 1 619 -2 788 -27 113 -16 311 -82 428 -142 135 -68 299 -206 366
-308 61 -91 113 -207 174 -390 35 -102 40 -130 43 -240 2 -52 5 -111 7 -130
13 -125 -24 -480 -54 -514 -9 -10 -66 23 -94 54 -17 19 -17 24 -5 43 29 45 50
97 50 121 0 31 -34 56 -76 56 -42 0 -48 9 -23 36 17 18 19 28 12 50 -7 20 -4
37 10 65 31 64 28 99 -12 126 -53 36 -105 47 -140 28 -38 -19 -61 -19 -61 0 0
8 -6 15 -12 15 -22 0 -57 45 -48 60 6 9 0 20 -17 33 l-25 20 25 14 c21 10 25
19 22 43 -2 16 -6 34 -10 40 -3 5 2 23 11 40 18 29 17 30 -4 53 -15 16 -22 36
-22 65 0 36 -4 44 -30 57 -42 22 -100 19 -161 -9 -54 -26 -72 -24 -99 8 -15
19 -41 21 -58 4 -19 -19 -14 -30 9 -18 22 12 49 7 49 -9 0 -15 -86 -18 -100
-3 -10 11 -8 16 6 27 18 13 18 14 1 15 -14 0 -15 3 -6 18 17 27 4 66 -35 110
-26 30 -31 42 -25 62 14 48 10 59 -31 80 -49 25 -92 26 -107 1 -6 -10 -27 -28
-47 -39 -33 -19 -36 -20 -36 -4 -1 13 -6 10 -21 -10 -20 -27 -69 -40 -69 -19
0 6 -17 30 -39 54 -21 25 -41 57 -45 71 -5 19 -13 26 -31 26 l-24 0 24 -25
c15 -14 25 -36 25 -53 0 -23 5 -31 24 -36 14 -3 31 -18 38 -33 20 -41 40 -49
78 -29 18 9 39 16 46 16 7 0 25 10 41 23 50 40 79 51 114 41 47 -13 59 -38 32
-66 l-22 -23 49 -52 49 -52 -21 -43 c-11 -24 -27 -51 -36 -60 -17 -20 -3 -25
16 -6 9 9 16 7 32 -7 11 -10 20 -24 20 -32 0 -7 5 -13 10 -13 6 0 10 6 10 14
0 11 13 14 57 11 46 -2 66 2 101 21 43 24 93 29 157 15 25 -5 30 -11 29 -36 0
-17 -4 -38 -8 -47 -6 -14 -2 -20 18 -28 14 -5 26 -13 26 -18 0 -14 -23 -32
-42 -32 -22 0 -24 -18 -3 -26 31 -12 37 -41 13 -67 -13 -13 -32 -27 -43 -30
-19 -7 -19 -6 -2 7 9 7 17 16 17 20 0 13 -19 5 -61 -27 -24 -18 -50 -32 -58
-32 -8 0 -17 -7 -19 -15 -5 -13 -3 -13 11 -1 12 9 17 10 17 2 0 -7 -27 -39
-60 -71 -55 -54 -72 -80 -52 -80 5 0 18 9 31 21 12 12 25 18 28 15 3 -3 12 -1
20 6 7 6 16 8 20 4 3 -3 1 -6 -5 -6 -7 0 -12 -4 -12 -10 0 -18 18 -10 47 21
15 17 37 39 47 48 10 9 28 26 39 39 21 23 51 29 61 13 4 -5 -10 -19 -29 -31
-36 -22 -63 -43 -119 -93 -28 -26 -29 -27 -3 -12 18 12 27 13 27 6 0 -7 4 -10
9 -7 13 8 42 -4 36 -15 -3 -4 -13 -5 -22 -2 -11 4 -14 3 -9 -5 4 -7 1 -12 -7
-12 -14 0 -27 -20 -27 -41 0 -17 25 -8 60 21 40 35 60 37 85 10 20 -23 29 -21
19 4 -3 9 -12 16 -20 16 -8 0 -14 5 -14 10 0 6 -18 18 -40 27 -46 20 -49 28
-18 44 18 10 20 9 15 -4 -5 -14 -2 -15 19 -7 35 14 37 13 31 -10 -6 -24 -1
-25 36 -5 27 14 28 13 22 -5 -8 -24 4 -25 71 -5 37 11 58 12 86 4 44 -11 98
-55 83 -66 -13 -10 -39 -65 -36 -76 6 -27 -27 -76 -75 -112 -30 -21 -54 -43
-54 -47 0 -5 -10 -7 -22 -4 -13 3 -17 3 -10 0 10 -5 10 -9 1 -20 -10 -12 -19
-8 -56 22 -24 20 -46 35 -48 33 -1 -2 16 -25 40 -51 l42 -47 29 30 c16 17 44
39 61 50 29 18 35 19 47 6 8 -8 37 -17 64 -21 28 -3 56 -13 62 -21 15 -18 14
-19 -25 -39 -22 -12 -25 -16 -11 -16 15 0 17 -5 11 -27 -3 -16 -15 -37 -26
-49 -25 -27 -24 -38 6 -58 14 -9 25 -20 25 -25 0 -4 -16 -25 -35 -46 -20 -20
-43 -51 -52 -68 -24 -47 -64 -97 -77 -97 -13 0 -37 -35 -30 -43 6 -5 21 7 77
61 15 15 37 48 49 75 11 26 36 61 56 78 32 28 37 30 47 15 7 -9 20 -16 29 -16
22 0 20 -29 -4 -60 -11 -14 -20 -33 -20 -42 0 -9 -10 -25 -23 -35 -12 -10 -21
-25 -20 -33 2 -8 -17 -36 -40 -62 -35 -38 -48 -46 -68 -42 -21 5 -22 4 -6 -6
9 -6 17 -18 17 -25 0 -17 -26 -20 -35 -5 -3 5 -15 15 -26 20 -15 8 -19 7 -19
-4 0 -7 11 -17 25 -20 32 -8 32 -21 -2 -43 -16 -10 -52 -37 -82 -61 -30 -24
-72 -52 -93 -63 -38 -19 -52 -49 -23 -49 26 0 165 -99 243 -174 41 -39 101
-106 133 -149 55 -74 142 -238 160 -302 4 -16 16 -55 25 -85 23 -78 53 -211
54 -237 0 -39 -17 -25 -24 20 -11 69 -38 171 -48 182 -6 6 -7 5 -4 -5 2 -8 21
-100 42 -205 34 -179 36 -198 30 -320 -3 -71 -15 -173 -26 -225 -11 -52 -25
-116 -30 -143 -12 -61 -26 -87 -48 -87 -14 0 -15 -2 -2 -10 11 -7 12 -15 4
-37 -6 -15 -15 -27 -20 -26 -6 1 -16 -15 -24 -35 -21 -59 -66 -133 -116 -192
-95 -112 -118 -134 -153 -146 -19 -6 -37 -18 -40 -25 -2 -8 2 -10 15 -5 14 5
12 0 -8 -20 -15 -16 -31 -24 -35 -20 -4 5 -2 11 5 13 6 3 12 9 12 14 0 5 -21
-7 -47 -26 -136 -101 -402 -175 -738 -206 -115 -10 -655 -6 -810 7 -76 6 -366
6 -372 0 -4 -3 17 -6 46 -6 29 0 50 -4 47 -8 -3 -5 -70 -10 -148 -11 -79 -1
-154 -3 -168 -4 -20 -2 -24 2 -22 18 1 11 4 339 6 728 2 390 7 711 10 714 3 4
7 -18 7 -48 1 -30 2 -74 3 -99 2 -25 3 -89 4 -142 1 -54 5 -98 10 -98 8 0 6
215 -4 328 -4 50 -10 72 -19 72 -10 0 -13 17 -13 65 1 36 4 65 7 65 3 0 4 84
3 186 -3 153 -2 185 10 182 7 -3 26 6 41 18 50 41 67 28 20 -15 -24 -21 -43
-44 -43 -52 0 -7 20 7 45 31 37 37 46 41 60 30 21 -18 19 -29 -11 -55 -19 -17
-27 -33 -28 -61 -1 -33 4 -41 31 -59 38 -24 48 -42 32 -62 -9 -11 -7 -19 12
-41 13 -15 26 -30 30 -35 7 -10 72 17 89 37 7 9 18 16 25 16 7 0 36 18 65 41
l51 40 50 -26 c27 -14 55 -22 62 -18 15 9 42 45 42 57 0 9 63 76 72 76 3 0 -2
-12 -12 -26 -10 -16 -14 -35 -10 -51 4 -19 1 -26 -15 -30 -22 -6 -28 -33 -7
-33 16 0 57 37 57 52 0 6 11 8 30 5 24 -5 36 -1 60 23 17 17 38 30 46 30 9 0
29 14 46 32 26 28 31 30 44 16 13 -13 15 -57 13 -299 -1 -156 -1 -349 0 -429
2 -80 4 -210 4 -290 l2 -145 33 -3 c17 -2 32 -7 32 -12 0 -27 -127 -171 -183
-207 -38 -24 -65 -25 -35 0 8 6 28 35 43 62 16 28 39 65 53 83 13 17 22 32 19
32 -8 0 -113 -133 -121 -155 -8 -18 -9 -17 -20 11 -6 17 -19 42 -28 55 -16 24
-16 24 -8 -11 4 -19 15 -52 24 -73 16 -37 16 -38 -11 -62 -16 -13 -49 -32 -75
-40 -27 -9 -48 -19 -48 -22 0 -15 83 14 167 59 136 73 231 174 277 297 27 71
31 87 41 177 4 33 11 73 15 89 16 52 24 215 11 215 -6 0 -11 5 -11 11 0 5 5 7
10 4 6 -3 10 1 10 10 0 10 -5 13 -12 9 -10 -6 -10 -4 0 8 14 18 10 205 -6 235
-5 10 -13 40 -16 66 -9 56 -77 245 -107 293 -27 44 -93 101 -165 143 -109 64
-181 111 -204 136 -13 14 -29 25 -36 25 -6 0 -17 7 -24 15 -7 8 -9 15 -4 15 8
0 83 -33 117 -51 10 -5 59 -31 109 -57 50 -25 113 -66 140 -90 56 -51 69 -51
33 -2 -14 19 -25 40 -25 47 0 7 -8 13 -18 13 -29 0 -43 20 -26 37 8 8 14 19
14 26 0 6 -7 2 -15 -9 -15 -18 -16 -17 -10 16 4 31 4 33 -7 13 -6 -13 -16 -23
-22 -23 -6 0 -4 -4 4 -10 23 -14 4 -23 -22 -9 -14 7 -18 14 -10 17 6 2 12 9
12 16 0 7 14 25 30 41 29 28 30 28 45 9 8 -10 22 -39 31 -64 36 -100 69 -170
81 -174 7 -3 13 -1 13 4 0 10 -32 95 -54 145 -18 39 -26 66 -30 103 -3 16 -13
48 -25 71 -11 23 -18 48 -15 56 3 7 -3 16 -14 19 -17 6 -122 111 -122 122 0
16 31 -8 105 -83 51 -52 84 -92 81 -100 -4 -8 -1 -11 5 -7 6 3 17 -4 26 -15 8
-12 20 -20 26 -18 18 6 37 -19 37 -47 0 -13 5 -37 12 -53 6 -15 11 -31 10 -35
-1 -4 9 -19 23 -34 14 -15 25 -32 25 -39 0 -7 9 -20 20 -30 11 -10 20 -23 20
-29 -1 -14 -38 32 -50 62 -6 13 -14 20 -20 17 -6 -4 -7 1 -3 11 4 11 3 15 -5
10 -6 -3 -18 4 -26 16 -9 12 -18 20 -20 17 -7 -7 21 -61 49 -93 14 -16 25 -32
25 -35 0 -9 75 -91 83 -91 12 0 8 35 -7 55 -20 27 -10 42 24 37 37 -5 39 11 6
33 -37 24 -39 44 -12 84 38 55 95 187 116 268 11 41 22 79 27 85 4 7 6 26 5
42 -2 17 0 27 3 24 4 -3 9 -43 11 -89 5 -83 12 -108 22 -80 7 22 49 61 64 61
10 0 10 -2 -1 -9 -7 -5 -11 -13 -7 -19 3 -5 -1 -15 -9 -22 -7 -6 -11 -18 -8
-26 3 -8 -2 -17 -12 -20 -28 -11 -91 -176 -111 -292 -11 -65 -34 -190 -41
-222 l-7 -35 -7 40 -6 40 -2 -37 c0 -20 4 -40 9 -43 6 -3 10 -12 10 -18 0 -8
-3 -8 -9 2 -5 8 -9 -3 -9 -33 -1 -25 3 -46 8 -46 6 0 10 -5 10 -11 0 -5 -4 -7
-10 -4 -12 8 -12 2 1 -55 6 -25 12 -162 15 -305 2 -143 6 -271 8 -285 2 -14 5
-37 5 -52 1 -16 6 -28 12 -28 7 0 8 11 4 29 -3 17 -2 32 4 36 7 4 11 -12 11
-45 0 -32 -4 -49 -10 -45 -5 3 -10 -1 -10 -9 0 -8 4 -17 8 -20 5 -3 9 -25 11
-51 2 -55 84 -311 107 -337 10 -10 22 -18 27 -18 6 0 21 -9 33 -21 18 -17 28
-19 51 -12 32 11 83 -2 159 -40 46 -23 81 -26 69 -7 -3 5 -12 7 -20 3 -8 -3
-15 -1 -15 4 0 4 -18 19 -41 33 -40 25 -70 60 -50 60 5 0 11 -3 13 -7 4 -11
63 -43 78 -43 6 0 18 -7 26 -15 9 -8 26 -15 40 -15 13 0 24 -4 24 -10 0 -5 10
-10 23 -9 15 0 17 2 7 6 -8 3 -24 15 -36 27 -34 35 -74 66 -84 66 -6 0 -10 9
-10 20 0 11 6 20 14 20 8 0 13 -8 12 -17 -1 -14 7 -18 34 -20 54 -2 56 -3 41
-12 -9 -6 13 -11 65 -16 82 -6 145 -17 179 -30 18 -7 19 -6 5 8 -8 9 -25 18
-37 20 -12 2 -25 6 -28 9 -10 10 54 18 78 9 26 -10 97 -3 97 10 0 13 -120 15
-217 4 -32 -3 -28 10 7 25 17 7 30 16 30 21 0 5 -25 -3 -55 -18 -58 -29 -80
-26 -50 7 26 29 11 36 -21 11 -15 -11 -35 -21 -46 -21 -17 0 -17 3 8 35 34 45
27 54 -11 15 -36 -37 -41 -37 -48 0 -7 33 -27 41 -27 11 0 -14 -10 -21 -37
-27 -52 -11 -72 -7 -115 23 -41 28 -70 74 -111 176 -29 71 -34 103 -16 91 19
-11 127 111 159 180 51 109 63 176 63 331 0 77 -5 169 -12 204 -18 91 -59 197
-97 247 l-33 42 22 25 c12 14 35 42 51 62 33 41 75 69 57 38 -6 -10 -21 -28
-35 -41 -20 -19 -23 -26 -13 -36 13 -14 39 -3 85 38 31 28 27 13 -9 -31 -17
-21 -10 -15 16 12 35 38 45 44 40 26 -6 -18 -4 -22 6 -16 8 5 11 4 6 -1 -5 -5
-14 -9 -20 -9 -14 0 -16 -24 -2 -27 5 -1 37 30 70 69 33 39 70 76 83 84 12 7
20 19 18 26 -3 8 2 17 12 20 9 3 25 13 35 21 9 8 20 13 23 10 3 -4 -33 -43
-80 -89 -47 -45 -84 -85 -81 -87 2 -2 19 12 38 32 19 20 38 36 43 36 15 1 58
42 94 90 43 58 64 81 128 142 80 78 62 78 -25 0 -85 -76 -130 -100 -118 -63 5
17 3 20 -11 14 -15 -6 -15 -4 1 20 9 15 13 27 7 27 -5 0 -15 -13 -22 -30 -12
-30 -37 -44 -26 -14 3 8 2 12 -4 9 -14 -9 -12 16 4 44 13 24 6 55 -17 72 -4 3
5 18 20 33 l27 27 -27 -6 c-27 -7 -40 9 -14 18 6 2 9 8 5 12 -4 4 -17 -2 -29
-14 -13 -12 -26 -21 -31 -21 -4 0 -8 -5 -8 -11 0 -6 9 -8 22 -3 21 6 22 5 8
-11 -11 -13 -12 -19 -3 -22 7 -2 9 -11 6 -19 -3 -8 0 -14 6 -14 8 0 11 -12 9
-30 -4 -35 -67 -121 -84 -115 -7 2 -21 -3 -33 -11 -27 -19 -27 -3 0 22 12 10
28 32 37 49 15 29 14 30 -4 15 -10 -8 -38 -35 -61 -60 -34 -37 -42 -42 -48
-28 -3 9 1 30 9 47 18 34 21 61 7 61 -5 0 -24 -19 -42 -42 -18 -24 -36 -47
-40 -52 -11 -13 -32 33 -21 47 5 7 13 23 16 37 6 19 5 21 -3 10 -8 -11 -11
-12 -11 -2 0 7 -4 10 -10 7 -15 -9 -12 17 5 38 7 11 11 26 8 35 -5 11 -2 14 9
9 10 -3 26 6 44 24 16 16 33 28 40 25 6 -2 17 0 24 4 7 5 21 3 32 -3 14 -9 20
-9 26 -1 4 6 23 21 42 33 19 11 30 21 24 21 -7 0 -15 11 -18 24 -9 36 -85 46
-151 20 -18 -7 -18 -6 -6 9 10 13 10 17 1 17 -9 0 -10 3 -1 13 8 11 6 13 -12
13 -12 -1 -21 4 -20 10 1 7 -8 9 -22 6 -14 -2 -25 -8 -25 -13 0 -8 -102 -89
-113 -89 -17 0 21 76 52 104 33 30 25 8 -15 -40 -19 -24 -32 -44 -27 -44 12 1
73 58 73 70 0 5 5 10 11 10 6 0 9 9 6 20 -3 11 0 26 7 33 16 16 27 47 17 47
-4 0 -18 -11 -31 -25 -25 -26 -54 -33 -66 -14 -3 6 -1 16 5 22 6 6 11 16 11
21 -1 6 -9 1 -19 -12 -12 -13 -25 -20 -35 -16 -22 9 -20 25 9 68 37 55 31 54
-27 -3 -33 -33 -60 -51 -75 -51 -20 0 -23 4 -18 21 5 14 3 19 -3 15 -6 -3 -13
0 -15 6 -3 7 -6 3 -6 -9 -1 -13 -7 -23 -16 -23 -8 0 -15 2 -15 5 0 3 7 22 15
42 21 51 18 54 -9 9 -22 -38 -24 -38 -35 -18 -6 11 -11 33 -11 48 0 43 -22 14
-23 -30 -1 -20 -5 -36 -9 -36 -9 0 -11 11 -10 65 0 22 -2 32 -4 23 -3 -10 -10
-18 -15 -18 -5 0 -9 -15 -9 -32 0 -22 -3 -29 -9 -20 -6 10 -10 8 -14 -8 -4
-14 -12 -20 -24 -18 -15 3 -17 12 -15 53 2 27 10 64 18 83 8 19 14 42 13 51 0
18 -12 -6 -52 -114 l-15 -40 -7 28 c-4 15 -4 39 -1 55 l6 27 -14 -25 c-9 -14
-13 -32 -10 -42 9 -30 -14 -29 -74 3 -33 17 -70 29 -83 27 -20 -2 -14 -8 35
-33 32 -16 60 -35 63 -42 7 -17 -26 -81 -51 -98 -27 -19 -34 -19 -39 3 -4 14
-6 14 -12 -5 -9 -28 -17 -29 -38 -5 -10 11 -15 28 -11 46 7 39 -18 29 -28 -12
-11 -40 -27 -42 -26 -2 1 17 -2 33 -5 36 -3 3 -5 -7 -5 -24 1 -38 -11 -59 -24
-41 -7 11 -8 9 -6 -6 3 -22 -8 -45 -23 -45 -13 0 -11 34 2 47 6 6 9 17 6 25
-4 9 -8 5 -12 -9 -4 -13 -12 -23 -18 -23 -6 0 -23 -14 -37 -32 l-27 -32 -35
22 c-50 31 -55 27 -19 -13 37 -42 36 -41 11 -82 -17 -29 -60 -62 -60 -47 0 3
-7 1 -15 -6 -17 -15 -19 -7 -5 21 7 13 7 19 1 19 -6 0 -18 -15 -27 -32 l-17
-33 -15 23 -15 23 -18 -31 c-14 -22 -26 -30 -48 -30 -18 0 -31 -6 -35 -16 -5
-13 -4 -14 7 -6 8 7 17 9 21 5 18 -18 168 4 204 31 23 16 23 -1 0 -44 -13 -23
-31 -45 -41 -49 -10 -4 -24 -18 -31 -31 -8 -17 -19 -24 -34 -23 -12 2 -22 -2
-22 -7 0 -6 5 -10 10 -10 20 0 9 -27 -15 -38 -34 -16 -57 -15 -79 1 -15 11
-17 17 -7 35 8 14 8 22 1 22 -5 0 -10 -4 -10 -8 0 -12 -50 -33 -61 -27 -17 11
-9 58 16 91 l26 34 -31 -6 c-19 -4 -30 -2 -30 5 0 6 5 11 10 11 6 0 10 5 10
11 0 6 -9 4 -22 -5 -15 -11 -25 -12 -34 -5 -8 6 -13 5 -17 -6 -4 -10 2 -17 19
-21 25 -6 25 -8 19 -69 -6 -57 -5 -63 13 -67 11 -3 26 -2 33 3 19 11 30 -11
17 -35 -10 -20 -10 -20 8 -4 17 15 25 16 57 6 28 -9 36 -16 31 -27 -15 -36
-16 -51 -4 -51 9 0 7 -7 -5 -20 -10 -11 -24 -20 -32 -20 -7 0 -13 -6 -13 -13
0 -8 -9 -22 -20 -32 -11 -10 -20 -23 -20 -29 -1 -16 -50 -69 -57 -62 -4 3 3
16 14 29 12 12 42 54 67 92 39 59 43 71 29 74 -16 3 -75 -54 -70 -68 3 -11
-30 -51 -36 -44 -4 3 -7 -1 -7 -10 0 -30 -57 -110 -79 -112 -12 -1 -21 1 -21
5 0 4 18 33 41 64 23 32 39 59 36 62 -4 4 -82 -106 -90 -129 -6 -15 -41 4 -45
24 -3 18 63 89 83 89 21 0 19 17 -2 24 -10 3 -31 17 -48 31 l-30 24 33 26 c17
15 32 30 32 35 0 10 -70 -10 -90 -26 -17 -13 -88 -54 -95 -54 -3 0 -5 56 -5
125 l0 124 33 37 c17 21 37 49 43 63 10 22 13 24 19 9 4 -11 -1 -27 -14 -44
-25 -31 -20 -45 7 -21 23 21 36 22 29 2 -8 -20 11 -29 29 -14 13 10 12 15 -7
35 -16 17 -19 27 -11 36 7 9 6 18 -4 32 -19 27 -18 40 11 86 14 22 21 40 16
40 -5 0 -11 -7 -15 -15 -3 -8 -12 -15 -21 -15 -8 0 -15 -4 -15 -10 0 -5 -4
-10 -9 -10 -22 0 -3 55 32 93 21 23 40 52 43 65 4 12 10 22 14 22 4 0 10 8 14
18 3 9 9 24 12 32 3 8 -2 4 -12 -10 -10 -14 -44 -57 -76 -97 -37 -46 -56 -77
-52 -87 3 -9 2 -16 -4 -16 -6 0 -8 -8 -5 -19 3 -12 -3 -24 -16 -33 -12 -8 -18
-17 -16 -20 3 -3 -1 -8 -9 -11 -12 -5 -15 1 -13 26 2 32 43 102 122 207 23 30
51 73 64 95 l23 40 -53 -52 c-29 -29 -55 -51 -58 -48 -2 3 1 11 7 17 18 18 15
33 -3 18 -9 -7 -15 -20 -13 -28 2 -8 -16 -35 -39 -60 -24 -26 -43 -51 -43 -57
1 -5 29 20 63 58 34 37 66 67 70 67 4 0 -22 -34 -58 -77 -36 -42 -65 -80 -65
-85 0 -4 -4 -8 -9 -8 -4 0 -9 27 -10 59 -1 52 2 64 27 90 35 39 66 91 53 91
-5 0 -23 -22 -40 -50 -17 -27 -33 -50 -36 -50 -15 0 -1 53 21 79 25 30 25 31
5 31 -12 0 -21 -6 -22 -12 0 -7 -4 -4 -9 7 -14 33 -12 392 2 415 10 15 10 22
0 32 -14 14 -16 86 -2 122 11 31 39 34 81 9 25 -15 33 -16 50 -5 24 16 36 9
19 -10 -6 -7 -24 -31 -38 -54 -15 -23 -40 -60 -55 -82 -16 -22 -27 -49 -25
-58 2 -12 17 5 47 54 24 40 54 82 67 95 14 12 35 43 48 68 13 25 45 66 72 92
58 55 52 64 -6 11 -63 -57 -59 -32 5 31 32 31 55 59 51 62 -8 9 -94 -74 -112
-109 -15 -30 -53 -68 -66 -68 -20 0 -5 42 22 62 17 12 30 26 30 31 0 5 14 22
30 39 30 29 39 58 20 58 -6 0 -13 -8 -17 -17 -6 -18 -77 -93 -87 -93 -3 0 -1
11 4 24 8 22 6 25 -23 31 -18 4 -54 7 -80 8 l-49 1 6 30 c4 17 16 39 29 48
l22 18 -27 0 c-25 0 -28 4 -28 35 0 37 5 40 43 26 28 -11 42 -4 27 14 -13 15
31 29 61 20 24 -8 24 -3 -1 37 -25 41 -26 74 -2 87 9 5 40 16 69 24 48 14 54
14 86 -3 32 -17 37 -17 48 -4 10 13 10 17 -2 25 -9 5 -10 9 -2 9 6 0 15 -4 18
-10 3 -5 15 -10 26 -10 17 0 19 5 14 34 -6 28 -3 36 16 50 33 22 53 20 88 -10
17 -14 29 -19 26 -12 -3 8 4 27 16 42 26 33 62 32 67 -3 2 -13 12 -26 23 -28
10 -3 17 -9 14 -13 -3 -5 -14 -6 -24 -3 -10 3 -22 0 -25 -5 -3 -6 -14 -8 -24
-6 -19 4 -91 -50 -80 -61 4 -4 20 1 37 11 25 15 32 15 45 5 14 -12 16 -10 16
7 0 37 53 38 65 1 14 -44 50 0 58 71 5 44 5 44 -11 22 -53 -71 -49 -70 -51
-14 -1 28 5 70 14 94 20 57 19 65 -4 44 -19 -17 -21 -17 -45 1 -14 10 -26 21
-26 25 0 10 56 48 70 48 10 0 10 3 1 14 -13 16 -9 20 31 30 17 4 32 1 42 -9
21 -21 46 -19 46 4 0 27 64 49 86 30 18 -15 15 -18 71 80 24 42 38 57 57 59
14 2 26 10 26 18 0 17 62 44 101 44 19 0 29 5 29 15 0 21 58 20 82 -2 22 -19
25 -1 3 21 -28 27 -53 28 -110 2 -30 -15 -66 -26 -78 -26 -31 0 -108 -64 -131
-108 -36 -73 -46 -84 -62 -72 -19 17 -61 4 -79 -24 -14 -20 -22 -23 -59 -19
-45 5 -86 -9 -86 -30 0 -7 -14 -24 -31 -38 -27 -22 -31 -30 -25 -53 4 -18 17
-31 37 -38 24 -8 28 -14 23 -32 -10 -34 -24 -43 -35 -23 -14 24 -24 22 -61
-13 -30 -29 -32 -29 -55 -14 -33 21 -81 10 -101 -25 -8 -14 -30 -39 -49 -55
-33 -28 -34 -28 -54 -10 -18 16 -24 16 -52 5 -18 -8 -54 -22 -82 -32 -50 -18
-50 -18 -49 -61 0 -24 3 -50 8 -59 5 -13 0 -17 -26 -22 -18 -3 -41 -8 -50 -12
-17 -7 -18 13 -18 335 0 188 -5 430 -11 536 -12 215 -10 230 40 216 14 -4 51
-7 81 -6z m-141 -1827 c-1 -115 1 -212 4 -215 11 -11 -17 -71 -60 -127 -30
-40 -37 -55 -23 -47 12 6 33 29 48 50 28 40 49 53 37 23 -4 -10 -8 -26 -10
-36 -6 -29 -15 -37 -40 -37 -14 0 -31 -11 -44 -27 -16 -23 -23 -26 -37 -17
-23 14 -30 34 -11 34 8 0 25 19 37 43 12 23 32 53 45 67 26 29 49 70 42 76 -3
3 -15 -9 -26 -25 -12 -17 -25 -30 -29 -28 -4 1 -17 -8 -30 -21 -19 -19 -30
-22 -55 -16 -41 8 -43 11 -25 31 8 10 18 25 22 33 4 8 -5 0 -21 -19 -26 -29
-32 -32 -51 -22 -12 6 -22 16 -22 21 0 4 -3 15 -6 23 -3 9 9 31 31 54 59 61
63 81 23 96 -10 3 -18 13 -18 21 0 9 -6 13 -13 10 -8 -3 -19 2 -26 10 -10 12
-8 17 9 26 11 6 37 12 57 14 30 3 42 11 66 45 25 37 27 44 15 59 -22 27 -17
57 10 56 12 0 22 5 22 12 0 17 39 44 63 44 17 0 18 -13 16 -211z m2433 -318
c12 -15 11 -15 -6 -1 -11 8 9 -14 45 -50 93 -94 185 -241 238 -380 25 -65 27
-100 2 -49 -9 20 -23 44 -30 53 -7 9 -11 16 -7 16 12 0 -75 151 -131 228 -30
42 -83 105 -115 138 -56 57 -58 62 -34 62 14 0 31 -8 38 -17z m-761 -253 c-44
-46 -97 -105 -117 -132 -21 -26 -40 -43 -42 -36 -3 7 10 24 27 39 17 15 31 30
31 34 0 16 -19 5 -58 -34 -25 -24 -47 -37 -53 -33 -7 4 -9 3 -5 -4 3 -6 2 -13
-4 -17 -13 -8 -13 -45 -1 -45 6 0 13 5 16 10 3 6 0 10 -7 10 -7 0 -4 9 10 22
12 12 25 19 28 15 4 -4 -1 -14 -12 -23 -19 -15 -19 -16 1 -10 15 5 12 -1 -12
-23 -23 -21 -28 -32 -20 -40 9 -9 8 -17 -1 -31 -7 -11 -8 -20 -3 -20 13 0 61
66 61 84 0 9 5 16 10 16 6 0 10 -7 10 -15 0 -8 9 -24 20 -35 30 -30 25 -60
-24 -129 -25 -35 -47 -65 -50 -68 -2 -3 -21 7 -40 22 -40 31 -47 63 -18 91 16
17 16 18 -2 11 -16 -6 -17 -4 -11 20 4 16 9 47 11 71 6 63 43 132 90 167 149
110 225 161 242 164 2 1 -33 -36 -77 -81z m-541 -123 c-16 -19 -3 -19 16 -1
11 12 21 13 44 4 17 -5 30 -14 30 -20 0 -5 9 -7 20 -3 18 6 19 5 5 -22 -8 -15
-15 -35 -15 -44 0 -9 -9 -27 -19 -40 l-19 -24 -39 31 c-29 24 -38 39 -37 60 0
16 -5 33 -13 37 -16 10 -17 54 -1 59 7 3 19 -2 26 -9 11 -11 11 -17 2 -28z
m526 -214 c-9 -17 -32 -46 -50 -65 -19 -18 -42 -48 -51 -66 -22 -43 -102 -150
-123 -166 -9 -7 -14 -16 -10 -19 10 -10 -10 -45 -26 -45 -17 0 -67 -108 -71
-156 -2 -21 -8 -57 -13 -79 -8 -33 -9 -26 -7 43 2 46 6 86 9 89 15 16 1 87
-15 77 -10 -6 -11 2 -3 33 3 12 11 20 18 17 7 -3 18 7 26 21 7 14 19 25 27 25
26 0 92 72 169 186 66 97 118 153 132 139 2 -2 -4 -17 -12 -34z m-59 -335 c38
-74 73 -228 73 -320 0 -147 -31 -199 -155 -261 -39 -19 -76 -35 -82 -35 -28 0
-28 401 0 447 3 5 8 28 11 52 3 24 11 59 17 80 11 34 17 45 55 108 l17 27 19
-25 c11 -13 31 -46 45 -73z"/>
<path d="M9265 6579 c3 -216 1 -266 -11 -283 -18 -27 -18 -47 1 -40 18 7 19
-14 3 -67 -11 -38 -38 -55 -38 -24 0 8 -7 15 -15 15 -19 0 -19 -20 -1 -46 13
-18 12 -25 -9 -60 l-25 -39 7 48 c3 26 2 47 -3 47 -5 -1 -20 -24 -34 -53 -15
-31 -33 -53 -44 -56 -17 -3 -18 1 -13 33 3 21 2 36 -4 36 -6 0 -9 -18 -8 -40
2 -22 -2 -45 -9 -52 -9 -9 -12 -5 -12 20 0 18 -4 32 -10 32 -5 0 -10 -11 -10
-24 0 -13 -6 -28 -12 -33 -21 -16 -85 -3 -114 23 l-26 25 -31 -31 c-17 -16
-37 -30 -44 -30 -17 0 -29 30 -16 39 6 3 13 23 17 44 4 21 9 46 12 55 2 9 -4
-1 -15 -23 -11 -22 -20 -48 -20 -57 -1 -10 -6 -18 -11 -18 -6 0 -15 -11 -20
-25 -7 -18 -17 -25 -35 -25 -35 0 -40 21 -15 69 11 23 16 41 10 41 -10 0 -33
-39 -44 -77 -5 -17 1 -29 28 -54 30 -27 34 -35 24 -53 -28 -55 -108 -100 -108
-61 0 8 -4 15 -10 15 -14 0 -12 -22 5 -44 10 -13 22 -17 40 -14 28 6 31 0 11
-27 -12 -17 -18 -18 -56 -6 -36 11 -41 15 -35 34 3 12 8 40 11 62 l4 40 -15
-40 c-8 -22 -18 -47 -21 -55 -5 -13 -8 -12 -19 4 -10 12 -12 34 -8 67 4 33 2
49 -6 49 -7 0 -11 -19 -11 -47 l0 -48 -20 25 c-20 27 -19 51 7 105 l14 30 -20
-25 c-11 -14 -25 -39 -31 -56 -9 -27 -7 -37 16 -71 29 -45 110 -111 148 -121
l25 -7 -39 -50 c-21 -27 -36 -52 -33 -55 7 -6 83 81 83 96 0 6 16 26 35 45 19
19 35 39 35 45 0 6 7 17 15 24 8 7 13 16 10 20 -7 12 62 81 77 78 7 -2 12 5
12 15 -1 9 4 17 12 17 8 0 14 7 14 15 0 15 19 14 75 -3 11 -4 29 -7 40 -7 14
0 21 -8 23 -27 4 -34 -2 -35 -44 -3 -18 14 -45 30 -60 35 -24 9 -25 9 -14 -5
10 -13 8 -22 -14 -55 -14 -22 -29 -40 -32 -40 -3 0 2 10 10 22 9 12 16 29 15
38 0 10 -4 7 -11 -7 -11 -24 -28 -31 -28 -12 0 5 -4 8 -9 5 -5 -3 -7 -14 -4
-24 3 -13 -8 -29 -32 -50 -19 -18 -33 -32 -30 -32 3 0 -6 -12 -20 -27 -14 -16
-24 -32 -22 -37 8 -23 25 -13 57 29 24 32 37 42 44 35 7 -7 7 -13 1 -18 -6 -4
-11 -11 -11 -17 -1 -5 -5 -20 -9 -32 -10 -35 15 -28 28 7 15 39 24 38 35 -2
l8 -32 42 42 c23 23 51 42 61 42 19 0 81 -62 81 -80 0 -6 7 -10 15 -10 27 0 5
50 -52 122 -29 37 -53 69 -53 72 0 7 66 -35 105 -66 18 -16 35 -28 39 -28 12
0 6 38 -8 49 -7 6 -11 22 -9 36 3 13 0 38 -5 54 -10 28 -8 32 19 52 16 11 36
18 44 15 9 -3 15 1 15 10 0 8 5 12 10 9 7 -4 7 -11 2 -18 -5 -7 -13 -34 -17
-62 -4 -27 -13 -62 -21 -78 -8 -15 -13 -31 -10 -36 3 -4 -1 -17 -9 -27 -16
-21 -20 -44 -7 -44 7 0 74 170 87 220 23 95 45 127 78 114 16 -6 12 -39 -6
-61 -6 -9 -5 -13 4 -13 14 0 15 -13 10 -102 -1 -21 -7 -29 -26 -34 -38 -9 -33
-38 5 -30 33 6 34 5 30 -81 l-2 -43 54 0 c141 1 296 46 359 106 14 13 30 24
36 24 6 0 13 6 16 13 2 6 7 9 11 6 3 -3 1 -20 -5 -38 -18 -52 -2 -47 26 9 24
48 27 51 40 33 8 -10 15 -13 15 -7 1 35 90 54 90 19 0 -23 35 -26 77 -7 23 10
56 17 74 16 19 -1 53 -3 77 -5 51 -3 59 -12 38 -44 -21 -32 -20 -47 2 -44 27
4 60 -10 80 -35 10 -13 32 -31 50 -40 37 -19 37 -21 17 -69 -14 -33 -13 -35 4
-30 13 3 21 -2 26 -16 3 -12 10 -21 14 -21 3 0 15 -13 24 -30 18 -29 14 -36
-17 -31 -4 1 -5 -10 -2 -24 9 -36 -16 -69 -80 -106 -30 -17 -54 -37 -54 -45 0
-18 0 -18 58 11 28 14 59 25 70 25 12 0 24 4 27 10 4 6 -1 7 -11 3 -15 -6 -15
-2 4 24 12 17 22 34 22 37 0 12 55 68 88 88 18 11 31 23 28 25 -3 3 -17 -4
-32 -16 -27 -21 -64 -28 -64 -12 0 5 25 35 56 67 38 40 58 54 63 46 6 -10 12
-9 27 5 11 10 15 15 10 11 -15 -12 -38 -10 -31 2 3 6 1 10 -5 10 -6 0 -5 13 4
35 8 19 11 35 6 35 -5 0 -16 8 -26 17 -16 16 -18 15 -48 -21 -46 -56 -101
-114 -85 -91 7 11 34 45 59 75 46 55 86 127 76 137 -3 3 -22 -22 -43 -55 -30
-47 -48 -65 -86 -82 -56 -26 -81 -16 -51 19 10 11 23 21 29 21 5 0 3 -4 -5
-10 -8 -5 -12 -11 -10 -14 8 -7 47 29 74 69 31 44 34 65 7 41 -13 -12 -20 -14
-23 -5 -3 9 -10 8 -28 -2 -14 -8 -29 -14 -35 -14 -5 -1 -29 -14 -53 -30 l-44
-29 -36 19 c-20 11 -39 20 -41 22 -2 1 13 19 33 40 32 34 44 53 32 53 -3 0
-12 -7 -21 -16 -13 -13 -19 -14 -28 -5 -9 10 -8 15 3 24 25 19 73 87 63 87 -6
0 -21 -8 -34 -19 -42 -32 -113 -64 -146 -66 l-33 -1 27 28 c28 30 44 38 23 13
-25 -30 6 -14 50 26 25 22 69 54 97 71 46 26 93 73 93 93 0 3 -17 -10 -37 -30
-39 -38 -51 -40 -67 -9 -19 34 -30 34 -65 -2 -18 -19 -45 -43 -60 -52 -14 -9
-29 -22 -34 -28 -4 -7 -20 -15 -37 -19 -28 -6 -53 -27 -85 -70 -9 -13 -14 -15
-15 -6 0 15 66 81 81 81 5 0 39 29 74 65 36 36 72 65 80 65 25 0 17 19 -11 26
-19 5 -24 11 -21 26 4 16 3 17 -9 7 -8 -6 -14 -17 -14 -25 0 -19 -65 -84 -84
-84 -9 0 -16 4 -16 9 0 5 -13 12 -29 16 l-30 6 36 50 c19 27 33 52 30 55 -5 5
-42 -32 -70 -71 -13 -16 -14 -16 -30 0 -23 22 -21 42 8 93 32 56 15 54 -26 -3
-36 -50 -44 -55 -36 -22 6 21 6 21 -9 2 -13 -17 -14 -10 -14 75 1 110 -11 183
-40 241 -12 22 -19 43 -16 46 9 10 66 -117 66 -149 1 -23 3 -29 9 -18 22 39
-36 210 -72 210 -7 0 -49 31 -94 70 -104 88 -162 110 -317 116 -61 2 -119 7
-128 10 -16 5 -17 -13 -13 -257z m339 157 c78 -46 145 -115 176 -182 36 -75
38 -129 9 -178 -11 -20 -19 -41 -16 -48 2 -7 12 6 22 29 9 24 22 40 27 37 15
-10 -1 -145 -20 -163 -14 -15 -14 -16 1 -19 25 -5 23 -97 -3 -139 -21 -36 -55
-48 -160 -58 -103 -11 -112 -13 -149 -39 -19 -14 -36 -24 -38 -23 -4 4 -13
367 -16 592 -1 99 -6 183 -11 186 -5 4 -6 15 -2 24 10 26 124 14 180 -19z"/>
<path d="M10670 5045 c0 -18 -30 -20 -30 -2 -1 7 -7 4 -15 -7 -12 -16 -18 -17
-46 -7 -35 12 -37 11 -94 -34 -50 -40 -104 -67 -118 -58 -6 3 -7 1 -3 -6 4 -6
0 -14 -8 -17 -9 -3 -32 -29 -51 -57 l-36 -52 37 39 c24 25 39 34 44 27 5 -9
10 -8 20 4 11 13 10 15 -6 9 -13 -4 -9 3 11 20 17 14 33 26 37 26 15 0 -1 -33
-32 -65 -19 -19 -28 -35 -22 -35 12 0 122 106 122 117 0 3 -12 -2 -26 -12 -19
-12 -25 -13 -22 -3 6 17 64 57 95 64 13 4 34 3 48 0 33 -8 25 -26 -52 -110
-50 -54 -61 -72 -52 -82 6 -8 16 -11 21 -8 6 4 6 9 -1 14 -8 4 9 29 48 71 l60
64 1 -31 c0 -33 -26 -64 -53 -64 -10 0 -14 -6 -11 -14 3 -7 -2 -20 -10 -29 -9
-9 -16 -19 -16 -22 0 -4 -9 -20 -21 -36 -15 -22 -28 -29 -52 -29 -33 0 -75 34
-57 45 6 4 10 1 10 -5 0 -8 6 -8 20 0 11 6 20 16 20 22 0 12 69 110 86 120 6
4 19 20 29 34 l17 27 -34 -26 c-39 -30 -100 -111 -91 -120 3 -4 -2 -9 -11 -13
-9 -3 -16 -12 -16 -20 0 -21 -16 -17 -38 11 -25 31 -32 31 -32 2 0 -13 -7 -32
-16 -43 -15 -19 -15 -19 -9 0 3 11 0 23 -7 27 -9 6 -9 12 2 26 8 10 2 7 -13
-7 -16 -13 -23 -26 -18 -28 26 -9 8 -20 -26 -17 -39 3 -93 -18 -93 -36 0 -5
11 -14 24 -18 30 -12 41 -40 23 -59 -17 -16 -89 -27 -114 -17 -10 4 -25 9 -33
10 -8 1 -19 3 -25 5 -37 9 -48 -15 -12 -26 12 -3 30 -13 39 -21 13 -12 27 -13
55 -7 21 4 50 7 64 6 41 -4 63 29 56 83 l-7 45 28 -6 c15 -4 37 -11 49 -15 16
-6 25 -4 32 8 8 15 13 14 41 -11 25 -21 39 -26 59 -21 43 11 71 34 92 78 12
24 34 50 49 59 34 19 60 89 42 111 -17 21 -3 52 29 64 16 6 29 18 29 27 0 9 4
16 10 16 5 0 7 7 4 15 -4 8 -10 15 -15 15 -5 0 -9 -7 -9 -15z"/>
<path d="M9551 3685 c-2 -75 -24 -199 -45 -246 -8 -20 -13 -38 -11 -41 3 -2
-9 -18 -26 -34 -24 -23 -29 -25 -23 -9 4 12 -5 5 -22 -15 -16 -19 -32 -36 -36
-38 -12 -5 -9 -22 3 -22 6 0 26 12 45 26 62 47 50 15 -19 -51 -81 -78 -62 -92
27 -20 30 25 59 44 63 43 12 -3 87 24 94 34 3 4 46 -14 96 -42 92 -51 153 -72
153 -51 0 12 -1 12 -37 16 -12 1 -45 19 -72 39 -28 20 -58 36 -66 36 -9 0 -18
8 -21 18 -3 9 -10 28 -16 42 l-10 25 -9 -22 c-10 -27 -26 -30 -32 -5 -3 14 -6
13 -15 -8 -14 -32 -14 -23 -2 140 6 95 5 139 -5 185 l-13 60 -1 -60z"/>
<path d="M12430 3126 c0 -8 -8 -20 -17 -25 -14 -8 -2 -10 47 -11 42 0 60 3 51
9 -8 5 -20 7 -26 5 -7 -3 -15 1 -18 9 -5 12 0 13 29 4 19 -6 34 -14 34 -19 0
-4 18 -8 41 -8 24 0 38 4 34 10 -7 12 -23 11 250 11 129 0 209 4 194 9 -15 4
-71 8 -125 9 -55 1 -188 4 -296 6 -170 5 -198 3 -198 -9z"/>
<path d="M15836 2931 c-8 -12 33 -18 142 -20 57 -2 98 2 107 9 9 7 15 8 20 0
3 -5 -1 -10 -9 -10 -19 0 -21 -21 -3 -39 10 -10 9 -11 -5 -6 -10 4 -18 11 -18
16 0 11 -117 11 -143 0 -17 -6 -17 -8 -3 -20 8 -7 19 -10 25 -7 5 3 11 1 13
-5 2 -7 55 -13 145 -16 147 -6 201 3 138 23 -22 7 -32 7 -28 1 4 -6 -3 -7 -18
-3 -13 4 -39 11 -57 16 -62 16 -58 28 11 31 57 3 83 25 42 35 -14 3 -29 4 -32
0 -4 -3 2 -6 12 -6 28 0 9 -13 -25 -17 -20 -2 -30 2 -30 11 0 11 -14 13 -62
10 -90 -6 -198 -5 -208 1 -5 3 -11 1 -14 -4z"/>
<path d="M12426 2863 c-1 -2 -27 -5 -56 -8 -60 -6 -80 -15 -32 -15 17 0 34 -4
37 -10 7 -12 353 -11 449 1 38 5 73 14 77 20 5 8 8 8 11 -2 3 -8 11 -10 24 -5
35 14 -23 29 -63 15 -32 -10 -248 -11 -267 0 -10 5 -175 8 -180 4z"/>
</g>
</svg>
