<?xml version="1.0" standalone="no"?>
<!DOCTYPE svg PUBLIC "-//W3C//DTD SVG 20010904//EN"
 "http://www.w3.org/TR/2001/REC-SVG-20010904/DTD/svg10.dtd">
<svg version="1.0" xmlns="http://www.w3.org/2000/svg"
 width="1928.000000pt" height="1074.000000pt" viewBox="0 0 1928.000000 1074.000000"
 preserveAspectRatio="xMidYMid meet">
<metadata>
Created by potrace 1.16, written by Peter Selinger 2001-2019
</metadata>
<g transform="translate(0.000000,1074.000000) scale(0.100000,-0.100000)"
fill="#000000" stroke="none">
<path d="M14550 8026 c0 -5 12 -25 27 -44 18 -24 26 -47 26 -76 1 -23 -3 -297
-7 -611 -4 -313 -8 -1056 -8 -1650 -1 -760 -5 -1082 -12 -1087 -7 -5 -8 -11
-1 -15 16 -12 18 -323 2 -323 -9 0 -8 -3 2 -9 9 -6 12 -24 7 -67 -3 -33 -5
-66 -4 -74 4 -98 7 -341 7 -530 0 -305 1 -351 7 -372 4 -12 0 -18 -10 -18 -24
0 -20 -10 16 -42 27 -24 30 -31 18 -39 -11 -8 -12 -12 -2 -16 19 -7 14 -23 -5
-17 -12 4 -10 -1 7 -15 96 -82 120 -106 115 -119 -3 -9 0 -12 9 -9 37 15 106
-118 106 -205 0 -32 4 -58 9 -58 6 0 10 17 9 38 0 20 5 57 12 80 10 38 14 43
33 38 12 -3 83 -6 157 -7 74 0 129 -3 123 -6 -34 -13 -5 -18 70 -11 45 3 125
7 177 8 52 0 115 3 140 6 45 5 168 11 268 13 28 1 52 6 52 11 0 6 -7 10 -15
10 -8 0 -23 9 -32 20 -21 24 -33 26 -33 5 0 -9 -9 -15 -22 -15 -17 0 -19 3
-10 12 7 7 12 42 12 86 l0 75 91 -8 c50 -3 100 -8 112 -10 68 -10 154 -14 164
-7 7 4 -16 9 -55 10 -37 2 -85 8 -107 14 -22 6 -76 12 -120 12 -76 1 -80 2
-83 24 -3 21 -1 23 25 18 15 -3 60 -7 100 -8 40 -1 67 -6 60 -10 -24 -15 6
-20 140 -24 263 -8 328 -12 348 -20 19 -7 19 -7 2 13 -9 11 -16 22 -15 24 2 2
1 3 -1 1 -3 -1 -14 4 -25 11 -35 23 -63 26 -311 32 -132 3 -259 8 -282 11
l-42 5 0 502 c0 276 -3 645 -7 820 -4 174 -4 317 -1 317 3 0 15 -30 27 -68 13
-37 47 -124 76 -194 30 -70 54 -131 54 -137 0 -6 12 -36 26 -68 14 -32 52
-132 85 -223 110 -304 152 -415 166 -443 7 -15 16 -45 18 -67 2 -22 17 -68 33
-103 38 -80 104 -258 99 -264 -3 -2 -24 15 -47 39 -41 42 -47 35 -7 -9 10 -12
16 -26 13 -32 -4 -6 9 -13 29 -17 25 -4 40 -15 51 -35 8 -16 28 -38 44 -50 16
-12 27 -26 24 -31 -3 -5 -1 -7 4 -6 11 3 222 -182 222 -194 0 -5 -27 -8 -60
-8 -33 0 -60 -4 -60 -10 0 -5 6 -10 13 -11 67 -6 84 -6 103 1 28 11 41 -4 81
-90 17 -36 38 -74 47 -85 15 -18 15 -17 0 20 -9 22 -25 57 -35 77 -40 78 -6
80 52 3 23 -30 46 -55 51 -55 11 0 -23 50 -47 70 -34 29 -13 31 178 24 105 -5
218 -8 250 -6 l57 2 0 -60 c0 -33 4 -60 10 -60 6 0 10 27 10 60 l0 60 38 0
c20 0 46 7 56 15 13 10 44 15 88 15 l68 0 1 -67 c1 -38 1 -72 0 -77 -1 -5 2
-16 6 -25 4 -9 10 23 13 79 l5 95 73 -2 c39 -1 72 3 72 8 0 5 -10 10 -22 11
-13 0 -27 2 -33 3 -5 2 -27 3 -49 4 l-38 1 6 53 c12 94 17 1158 5 1151 -6 -3
-10 -27 -9 -53 1 -25 1 -89 -1 -141 l-2 -95 -7 65 c-10 95 0 353 14 363 7 5 8
9 1 15 -12 8 -16 222 -4 222 4 0 10 26 14 58 10 91 12 747 3 937 -9 172 -18
831 -15 1025 3 146 1 831 -2 1030 l-3 165 31 -1 c40 -2 40 12 1 20 -17 3 -30
12 -30 20 0 8 -10 18 -21 21 -12 4 -62 44 -113 90 -139 125 -245 209 -254 201
-17 -18 74 -120 155 -174 38 -25 143 -122 143 -132 0 -3 -57 -1 -127 3 -78 5
-257 4 -456 -2 l-328 -11 -129 132 c-72 73 -130 133 -130 133 0 1 172 -1 382
-3 279 -3 393 0 425 8 58 17 54 29 -9 30 -47 0 -124 6 -138 10 -17 5 -364 -2
-515 -11 -177 -10 -211 -17 -187 -41 7 -7 8 -17 2 -28 -5 -10 -13 -71 -17
-136 -8 -124 -8 -158 -5 -843 2 -327 0 -416 -10 -423 -10 -6 -8 -8 5 -8 9 0
17 -5 17 -11 0 -6 -7 -9 -15 -5 -12 4 -15 -3 -15 -36 0 -57 -11 -41 -48 67
-17 50 -48 131 -70 180 -22 50 -60 151 -85 225 -25 75 -70 193 -101 262 -30
69 -67 155 -81 192 -14 36 -37 96 -51 134 -14 37 -37 87 -51 111 l-25 44 28
-7 c24 -6 26 -5 15 8 -8 9 -21 16 -31 16 -16 0 -30 16 -122 139 -18 24 -50 63
-70 86 -21 23 -38 47 -38 52 0 5 -14 22 -31 39 l-31 29 8 -30 c3 -16 12 -37
18 -45 6 -8 20 -31 30 -50 11 -19 38 -55 60 -80 23 -25 57 -64 75 -87 19 -24
40 -43 48 -43 7 0 13 -3 13 -7 0 -11 -709 -4 -742 7 -18 6 -28 5 -28 -1 0 -5
-25 -9 -55 -9 -64 0 -83 15 -146 120 -21 36 -55 83 -74 104 -19 21 -33 41 -31
45 3 4 53 3 113 -1 202 -13 722 -14 712 -2 -12 15 -143 22 -539 30 -173 3
-318 8 -322 11 -5 2 -8 -2 -8 -9 -1 -12 -14 1 -66 67 -13 17 -24 26 -24 21z
m2057 -422 c-3 -4 -2 -14 3 -23 5 -10 4 -50 -1 -96 -5 -44 -9 -187 -10 -319 0
-225 -1 -238 -19 -243 -21 -6 -29 -33 -31 -113 -1 -80 0 -90 11 -90 6 0 10 37
10 90 0 76 3 90 16 90 14 0 16 -21 13 -194 -2 -107 -7 -198 -11 -202 -15 -14
-22 7 -20 59 1 29 -3 66 -8 82 -8 25 -9 22 -5 -23 2 -29 1 -51 -3 -48 -4 2 -7
-71 -6 -163 1 -126 5 -175 16 -197 15 -31 14 -54 -4 -54 -6 0 -6 6 2 15 12 15
11 16 -12 19 -6 0 -12 17 -13 36 -1 19 -6 69 -10 110 -4 41 -9 86 -10 100 -1
14 -8 37 -15 53 -10 20 -10 31 -3 38 8 8 11 7 10 -2 -1 -35 4 -52 12 -44 12
14 1 86 -12 78 -6 -4 -8 0 -4 10 3 9 2 19 -3 22 -5 3 -7 12 -4 19 3 7 -2 19
-11 26 -14 12 -15 8 -10 -31 4 -24 8 -49 10 -56 2 -7 0 -15 -6 -18 -5 -4 -12
7 -15 24 -5 22 -10 28 -23 23 -13 -5 -14 -3 -4 9 12 15 9 148 -4 179 -7 16 -9
27 -11 49 -1 8 -5 11 -9 8 -3 -4 -6 -36 -6 -73 0 -93 -15 -65 -23 41 -7 93 -7
115 -3 175 4 71 -10 820 -16 830 -4 6 -3 19 0 30 5 17 24 1 127 -100 67 -66
119 -123 115 -126z m-1753 -12 c-7 -11 -8 -26 -3 -41 5 -12 7 -26 4 -31 -2 -4
-7 -788 -11 -1741 -6 -2009 -5 -1879 -23 -1879 -9 0 -11 -7 -7 -20 3 -11 9
-29 12 -40 5 -16 3 -19 -10 -14 -9 3 -16 10 -16 15 0 5 -6 9 -12 9 -10 0 -14
-41 -15 -168 -3 -261 -3 -282 1 -364 2 -43 0 -78 -5 -78 -5 0 -10 12 -11 28
-1 15 -3 45 -4 67 -1 22 -5 127 -7 232 -3 143 -8 197 -18 210 -13 16 -12 17 4
4 22 -17 24 4 2 25 -17 17 -20 44 -6 44 5 0 12 -10 14 -22 4 -20 4 -19 6 5 1
18 -4 27 -14 27 -8 0 -15 7 -15 15 0 8 6 14 13 12 6 -1 12 3 12 8 -1 21 -29
115 -35 115 -12 0 -5 -83 8 -88 6 -2 12 -8 12 -13 0 -4 -6 -6 -14 -3 -12 5
-14 -7 -11 -68 10 -171 13 -371 5 -343 -8 30 -33 413 -32 490 3 246 3 318 -2
322 -3 3 0 15 7 27 7 11 12 35 12 51 0 19 5 29 13 27 9 -1 7 6 -5 22 -10 13
-22 21 -27 18 -5 -3 -6 0 -2 6 4 6 2 21 -4 32 -8 14 -8 20 0 20 7 0 9 8 5 21
-5 15 -2 22 14 26 12 3 21 9 21 14 0 5 -6 6 -14 3 -9 -3 -13 4 -13 23 -1 15
-4 48 -7 71 -5 33 -4 42 5 36 9 -5 9 -3 3 7 -9 15 -13 109 -4 109 3 0 6 14 7
31 2 28 1 29 -14 17 -12 -9 -15 -9 -9 0 4 7 1 15 -8 18 -9 3 -16 10 -16 15 0
5 11 4 25 -1 15 -6 25 -6 25 0 0 5 -10 10 -22 12 -21 3 -23 9 -26 66 -2 43 0
62 7 57 6 -3 11 -2 11 4 0 5 -5 11 -12 13 -9 3 -13 62 -15 214 -2 115 -5 228
-6 252 -2 23 0 42 4 42 4 0 3 15 -1 33 -9 30 -4 1111 5 1262 2 39 5 102 6 142
2 59 5 70 18 66 12 -4 13 -3 3 4 -10 8 -14 79 -16 309 -2 164 -7 325 -11 357
-6 45 -5 57 6 57 18 -1 92 -107 84 -120 -4 -6 -1 -9 5 -8 7 2 22 -10 33 -25
21 -27 22 -40 23 -215 2 -226 2 -222 12 -222 4 0 7 90 7 200 0 110 4 200 8
200 10 0 -41 72 -117 164 -53 64 -47 60 55 -41 97 -97 112 -116 103 -131z
m345 22 c12 -11 -18 -15 -128 -21 -67 -3 -124 -10 -128 -16 -6 -10 150 -5 327
12 92 9 423 25 474 23 10 -1 22 -5 26 -9 9 -10 30 -96 25 -101 -2 -2 -18 16
-36 42 -44 62 -50 49 -9 -16 58 -91 116 -208 164 -333 26 -66 53 -131 60 -145
8 -14 25 -54 39 -90 13 -36 44 -112 67 -170 23 -58 47 -123 54 -145 6 -22 22
-62 34 -90 13 -27 28 -59 33 -70 5 -11 33 -94 62 -185 51 -155 91 -264 123
-337 8 -17 14 -36 14 -42 0 -57 176 -485 242 -588 54 -84 68 -70 33 32 -25 70
-27 92 -31 288 -3 117 -5 219 -6 227 0 8 0 44 0 80 1 36 0 83 -1 105 -1 22 1
50 5 63 5 13 5 21 0 19 -4 -3 -8 19 -8 49 -1 30 1 52 5 50 7 -5 7 -6 14 749 3
308 6 570 6 582 1 22 2 23 164 21 89 -2 235 1 323 6 l161 8 6 -33 c6 -39 12
-1464 10 -2314 -2 -1164 -2 -2039 2 -2044 2 -3 6 -98 9 -211 l7 -205 -228 3
c-125 1 -256 5 -290 8 -58 5 -63 8 -63 29 0 13 6 26 13 29 8 3 7 9 -7 20 -10
8 -22 17 -27 18 -4 2 -11 17 -15 33 -7 27 -6 29 9 17 9 -8 21 -11 26 -8 5 4
12 2 15 -3 7 -11 56 -11 56 0 0 5 -3 9 -7 10 -16 1 -48 8 -72 15 -14 4 -30 8
-36 8 -5 1 -9 12 -8 24 2 13 -1 21 -6 17 -9 -5 -21 19 -27 52 -1 6 -13 40 -27
75 -14 35 -29 77 -33 93 -4 17 -10 35 -14 40 -4 6 -11 25 -15 42 -3 18 -11 35
-16 38 -14 9 -43 79 -88 210 -23 66 -45 129 -51 140 -5 11 -18 47 -28 80 -32
96 -107 280 -122 295 -7 7 -30 49 -30 55 0 3 9 1 19 -5 18 -9 17 -6 -4 33 -12
24 -26 54 -30 68 -4 13 -17 44 -28 69 -12 25 -22 54 -23 65 -2 12 -18 54 -38
95 -19 41 -54 127 -77 190 -22 63 -47 124 -53 135 -7 11 -16 33 -20 50 -4 16
-30 88 -57 160 -27 71 -62 164 -78 205 -15 41 -32 84 -37 95 -4 11 -9 29 -10
40 -6 67 -6 70 -11 53 -2 -10 -8 -18 -12 -18 -12 0 -31 23 -31 39 0 9 -11 21
-25 28 l-25 11 22 -39 c12 -21 25 -39 30 -39 4 0 8 -7 8 -16 0 -14 -3 -14 -15
-4 -23 19 -29 5 -9 -25 14 -22 16 -40 10 -118 -4 -51 -8 -101 -8 -112 0 -11 1
-328 1 -705 2 -858 -3 -1392 -11 -1406 -4 -6 -3 -26 2 -45 5 -19 10 -54 12
-78 l3 -43 -180 1 c-99 0 -293 1 -431 1 l-251 0 -7 42 c-4 24 -6 587 -4 1253
2 665 1 1631 -1 2145 -4 996 2 1290 24 1290 8 0 17 5 21 12 5 8 2 9 -10 5 -19
-7 -32 14 -22 38 4 12 28 13 153 8 81 -3 150 -7 152 -9z m2361 -1108 c0 -19 5
-38 11 -42 16 -10 6 -231 -11 -247 -10 -10 -11 -6 -6 16 4 16 2 27 -4 27 -5 0
-10 -4 -10 -10 0 -5 -7 -7 -17 -3 -14 6 -15 0 -10 -44 4 -40 3 -53 -9 -57 -16
-6 -19 -26 -3 -26 5 0 7 5 4 10 -3 6 -1 10 5 10 5 0 9 -13 8 -30 -1 -16 -5
-30 -9 -30 -3 0 -4 -21 -1 -47 12 -98 6 -194 -13 -211 -10 -10 -15 -11 -11 -4
4 7 2 12 -5 12 -7 0 -4 7 7 15 17 13 17 17 -2 14 -16 -2 -24 32 -24 109 0 49
4 82 10 82 11 0 10 59 -1 66 -9 5 13 64 23 64 4 0 8 20 8 45 0 41 -13 61 -22
33 -6 -16 -67 31 -74 57 -3 11 -4 50 -2 85 2 52 6 65 21 68 15 3 17 -6 17 -85
1 -56 5 -94 14 -105 10 -14 13 -2 15 75 2 104 6 123 26 131 11 4 14 -14 13
-101 0 -63 5 -110 11 -116 8 -8 11 18 11 95 0 75 4 108 13 112 8 4 9 8 1 11
-13 6 -6 55 7 55 5 0 9 -15 9 -34z m-76 -2069 c-3 -8 9 -13 33 -15 45 -3 54
-16 46 -66 -3 -21 -6 -51 -7 -65 -2 -48 -21 -27 -26 29 l-5 55 -7 -60 c-3 -33
-9 -74 -12 -92 -4 -24 -2 -31 9 -27 16 6 16 -55 0 -72 -18 -19 -45 -12 -45 10
0 17 2 18 10 6 18 -28 22 -1 7 45 -9 25 -12 43 -8 41 11 -7 6 165 -6 194 -11
27 -7 44 7 35 5 -3 7 -11 4 -18z m-1260 -350 c13 -30 31 -76 39 -104 8 -27 29
-77 46 -111 18 -35 29 -67 26 -72 -4 -6 -1 -10 5 -10 7 0 10 -7 6 -15 -3 -8
-1 -15 5 -15 6 0 7 -5 3 -12 -4 -6 1 -17 11 -25 11 -7 15 -13 11 -13 -4 0 0
-10 8 -22 18 -25 21 -42 6 -33 -5 3 -10 1 -10 -4 0 -6 7 -11 16 -11 8 0 13 -4
9 -9 -3 -5 0 -13 5 -16 6 -4 10 -17 9 -28 -1 -12 1 -29 4 -37 25 -60 28 -73
13 -61 -9 7 -24 37 -35 67 -12 30 -34 80 -49 112 -16 31 -37 82 -47 112 -10
30 -37 101 -61 156 -23 56 -46 118 -49 138 -4 20 -11 36 -15 36 -4 0 -10 7
-14 15 -4 10 1 15 14 15 14 0 27 -16 44 -53z m1307 -15 c-8 -27 7 -88 16 -64
3 6 11 12 19 12 12 0 14 -16 12 -82 -3 -77 -5 -83 -23 -80 -27 5 -25 1 -26 71
-1 46 -5 61 -15 61 -12 0 -14 -15 -12 -77 2 -50 7 -77 14 -76 7 1 9 -8 6 -22
-4 -25 -37 -31 -46 -9 -3 7 -4 62 -4 122 0 87 3 109 13 105 15 -5 39 32 30 46
-3 5 1 12 7 14 7 3 14 6 15 6 1 1 -2 -11 -6 -27z m-2880 -233 c1 -30 1 -184 0
-344 0 -159 3 -308 9 -330 10 -44 7 -53 -13 -37 -10 9 -15 45 -17 129 -5 172
-6 593 -1 626 6 46 21 16 22 -44z m2841 -98 c-1 -17 2 -31 8 -31 5 0 10 7 10
16 0 8 5 12 10 9 7 -4 7 -11 2 -18 -13 -17 -22 -58 -11 -51 5 3 9 -2 9 -10 0
-37 44 -28 59 12 7 20 9 6 5 -58 -5 -94 -15 -151 -27 -151 -4 1 -11 1 -17 1
-6 0 -10 35 -10 85 0 47 -4 85 -9 85 -15 0 -20 -28 -20 -109 -1 -41 -5 -79
-11 -86 -5 -6 -6 -16 -2 -21 4 -4 0 -3 -10 4 -14 11 -14 17 -4 37 14 26 15
162 2 183 -4 7 -1 24 8 37 12 19 13 25 4 25 -8 0 -14 15 -15 41 -1 26 3 39 10
36 7 -2 11 -18 9 -36z"/>
<path d="M16747 6923 c-4 -3 -7 -55 -7 -113 l0 -107 30 -6 c17 -4 44 -4 60 0
l30 6 0 107 c0 89 -3 109 -16 114 -21 8 -89 8 -97 -1z"/>
<path d="M16740 6385 l0 -115 53 0 c28 0 58 4 65 8 9 6 12 36 10 113 l-3 104
-62 3 -63 3 0 -116z m105 -2 l0 -93 -42 0 -43 0 0 96 0 95 43 -3 42 -3 0 -92z"/>
<path d="M16745 5638 c-4 -40 -5 -93 -3 -118 3 -51 13 -56 84 -45 l44 6 0 105
c0 103 0 105 -26 114 -14 6 -40 10 -59 10 l-33 0 -7 -72z"/>
<path d="M16965 5701 l-30 -6 -3 -106 -3 -107 45 -6 c79 -12 86 -2 86 119 0
77 -3 105 -12 105 -7 0 -22 2 -33 4 -11 2 -33 1 -50 -3z m75 -117 l0 -95 -42
3 -43 3 -1 65 c-3 110 1 120 47 120 l39 0 0 -96z"/>
<path d="M17141 5701 c-9 -6 -15 -40 -18 -106 -5 -87 -3 -100 13 -112 19 -14
82 -17 100 -5 7 4 13 51 16 114 4 86 2 108 -9 113 -22 8 -86 6 -102 -4z"/>
<path d="M16746 5267 c-15 -11 -17 -26 -13 -112 l4 -100 39 -5 c22 -3 51 -3
67 -1 l27 3 0 108 c0 89 -3 109 -16 114 -27 10 -89 7 -108 -7z m102 -114 l3
-93 -51 0 -50 0 0 89 c0 98 2 101 65 98 l30 -2 3 -92z"/>
<path d="M16937 5274 c-4 -4 -7 -56 -7 -115 0 -105 0 -107 25 -113 13 -3 43
-3 65 0 l41 7 -3 111 -3 111 -55 3 c-31 2 -59 0 -63 -4z m91 -26 c14 -19 15
-157 1 -174 -6 -8 -24 -14 -39 -14 l-28 0 -4 93 c-2 56 0 95 7 99 16 12 52 9
63 -4z"/>
<path d="M17153 5273 c-22 -4 -23 -8 -23 -114 l0 -109 60 0 60 0 0 109 c0 104
-1 109 -22 115 -24 6 -39 6 -75 -1z"/>
<path d="M16550 4740 c0 -101 2 -111 18 -108 14 3 17 15 18 84 0 93 7 117 31
112 16 -3 18 -14 15 -88 -2 -87 8 -124 28 -104 7 7 10 48 8 110 l-3 99 -57 3
-58 3 0 -111z"/>
<path d="M16742 4738 l3 -113 56 -3 c68 -4 69 -2 69 136 l0 92 -65 0 -66 0 3
-112z m77 86 l31 -6 0 -90 0 -89 -42 3 -43 3 -3 79 c-4 110 -3 112 57 100z"/>
<path d="M16958 4843 c-14 -3 -17 -20 -20 -91 -4 -127 -4 -128 42 -130 77 -3
81 2 86 113 3 72 1 101 -8 107 -14 8 -71 9 -100 1z"/>
<path d="M17140 4831 c-5 -11 -10 -60 -10 -109 l0 -90 28 -4 c15 -2 41 -1 57
2 l30 5 8 94 c5 51 6 99 3 107 -4 9 -22 14 -55 14 -39 0 -53 -4 -61 -19z m98
-98 l3 -93 -40 0 c-22 0 -41 4 -43 10 -1 5 -2 48 0 95 l4 86 36 -3 37 -3 3
-92z"/>
<path d="M16570 4444 c-12 -4 -15 -25 -15 -112 l1 -107 53 1 c28 1 54 3 55 5
2 2 6 52 9 112 l6 107 -47 -1 c-26 -1 -54 -3 -62 -5z"/>
<path d="M16757 4418 c-3 -18 -5 -69 -4 -113 l2 -80 39 -3 c83 -7 84 -6 82
115 l-2 108 -56 3 -56 3 -5 -33z"/>
<path d="M16946 4442 c-2 -4 -6 -55 -7 -112 -2 -97 0 -105 19 -113 14 -7 37
-5 67 3 l46 13 -3 106 -3 106 -57 3 c-31 2 -59 -1 -62 -6z m92 -114 l3 -98
-25 0 c-53 0 -56 6 -56 100 0 94 2 97 55 96 18 -1 20 -9 23 -98z"/>
<path d="M17188 4443 l-38 -4 0 -52 c0 -29 -3 -75 -6 -103 -6 -47 -4 -52 15
-59 12 -3 37 -1 56 5 l35 12 0 104 c0 77 -3 104 -12 102 -7 -1 -30 -3 -50 -5z"/>
<path d="M16577 4023 c-12 -11 -8 -221 4 -225 6 -2 32 -1 58 2 l46 5 -1 40
c-3 94 -17 156 -38 170 -21 16 -58 20 -69 8z"/>
<path d="M16783 4020 c-19 -8 -23 -17 -24 -57 0 -26 -1 -70 -2 -98 l-2 -50 43
-3 c63 -5 72 10 72 113 0 83 -1 86 -26 95 -30 12 -32 12 -61 0z"/>
<path d="M16962 4012 c-15 -15 -18 -35 -17 -112 l0 -95 51 -3 c33 -2 54 2 60
10 6 7 8 54 6 106 -4 88 -5 94 -29 103 -35 13 -51 11 -71 -9z"/>
<path d="M16978 3640 c-21 -5 -24 -12 -30 -95 -4 -50 -6 -95 -4 -101 6 -15 77
-26 92 -13 6 5 17 8 24 7 9 -2 12 22 10 90 0 52 -4 100 -7 107 -5 14 -37 16
-85 5z"/>
<path d="M16754 3631 c-2 -2 -4 -47 -4 -98 l0 -94 33 -14 c28 -12 35 -12 62 4
27 16 30 22 27 66 -2 41 0 46 13 35 9 -7 15 -8 15 -2 0 5 -8 13 -17 16 -11 4
-13 10 -6 17 10 10 6 68 -6 70 -24 3 -113 3 -117 0z"/>
<path d="M17145 3628 c-2 -7 -6 -52 -8 -100 l-5 -88 44 0 c23 0 46 5 49 10 4
6 11 8 16 5 5 -4 9 33 9 89 l0 96 -50 0 c-32 0 -52 -5 -55 -12z"/>
<path d="M4768 7968 c-2 -24 -7 -32 -18 -29 -49 14 -922 4 -884 -9 48 -17 680
-31 792 -17 52 6 62 5 62 -8 0 -8 -4 -15 -9 -15 -10 0 -153 -108 -217 -164
-23 -20 -46 -36 -52 -36 -6 0 -23 -18 -39 -39 l-28 -40 -210 5 c-247 6 -276 9
-268 29 7 19 -37 21 -55 3 -7 -7 -12 -8 -12 -2 0 5 -5 2 -10 -6 -8 -12 -12
-13 -19 -2 -11 18 -188 12 -200 -6 -4 -6 -29 -14 -57 -17 -42 -5 -46 -4 -30 7
10 7 37 27 60 43 23 17 96 68 162 113 123 83 152 107 141 119 -8 7 -102 -50
-308 -190 -92 -61 -175 -117 -185 -124 -17 -10 -16 -11 11 -10 28 2 30 -1 37
-43 4 -25 6 -166 5 -315 -1 -275 9 -760 19 -894 5 -73 5 -74 -18 -67 -13 3
-37 6 -55 6 -25 0 -41 10 -74 45 -23 25 -48 45 -54 45 -6 0 -25 -15 -42 -33
-29 -32 -36 -34 -113 -41 -46 -4 -85 -4 -88 -1 -10 10 -12 1185 -3 1185 5 0
12 -6 14 -12 7 -16 0 266 -8 342 -3 30 -3 72 1 92 5 34 9 37 42 40 81 8 -282
7 -594 -1 -311 -9 -333 -11 -370 -31 -21 -12 -50 -32 -64 -45 -14 -13 -61 -44
-104 -69 -59 -35 -81 -44 -87 -34 -6 9 -10 7 -15 -7 -5 -11 -13 -25 -19 -31
-13 -14 -96 -57 -99 -52 -2 2 -10 14 -19 28 l-17 24 0 -26 c0 -16 -9 -33 -20
-41 -18 -12 -18 -15 -5 -20 10 -4 15 -18 14 -39 -1 -18 1 -96 4 -173 26 -616
26 -1027 0 -1275 -4 -36 -5 -69 -4 -75 2 -5 5 -98 7 -205 2 -107 8 -303 15
-435 7 -157 9 -385 4 -660 -4 -231 -8 -456 -9 -500 0 -44 3 -109 7 -145 4 -36
12 -103 18 -150 5 -47 16 -116 25 -155 8 -38 17 -81 20 -94 17 -84 119 -300
193 -411 17 -24 28 -46 25 -49 -2 -3 -41 31 -86 75 -44 43 -73 68 -64 54 37
-56 370 -380 419 -408 78 -44 86 -57 89 -142 3 -72 2 -74 -22 -81 -14 -4 67
-8 180 -9 221 -2 248 -4 326 -18 69 -12 711 -15 718 -4 3 6 -33 12 -82 16
-157 12 -202 18 -202 27 0 12 97 12 102 0 2 -5 32 -4 73 3 39 6 90 10 115 8
25 -2 61 -4 80 -5 19 -1 38 -6 41 -10 3 -4 64 -10 135 -12 97 -4 142 -1 183
11 38 11 57 12 64 5 14 -14 47 -14 47 -1 0 6 15 17 33 25 17 8 28 14 23 15 -6
0 -2 6 9 13 10 8 15 19 11 26 -5 7 4 15 23 22 17 6 31 15 31 20 0 5 9 9 20 9
11 0 20 -4 20 -10 0 -5 -9 -10 -20 -10 -11 0 -20 -4 -20 -10 0 -5 30 -10 68
-12 95 -4 212 2 212 12 0 4 -23 10 -51 14 -77 10 -51 19 48 17 48 -1 85 0 82
3 -5 6 -68 16 -116 19 -26 2 -30 15 -8 23 8 4 12 10 9 15 -7 12 -74 11 -74 -1
0 -5 7 -10 15 -10 8 0 15 -4 15 -10 0 -5 -23 -10 -52 -10 -52 0 -60 7 -18 15
28 5 38 14 19 16 -56 6 -90 5 -95 -2 -3 -5 2 -9 10 -9 9 0 16 -4 16 -10 0 -16
-67 -12 -84 5 -21 22 -39 19 -31 -5 8 -26 1 -25 -29 5 -14 14 -29 25 -34 25
-6 0 -12 7 -16 15 -5 15 19 22 28 8 11 -19 596 1 596 19 0 5 -10 8 -22 7 -54
-5 -123 2 -109 10 13 8 181 6 254 -4 20 -3 37 -1 37 3 0 18 -327 32 -435 19
-33 -4 -54 -4 -47 -1 27 13 10 23 -33 20 -25 -2 -45 1 -45 5 0 9 47 15 85 10
11 -1 96 -3 188 -5 130 -2 167 0 163 10 -3 7 7 15 22 19 27 7 27 7 5 16 -13 4
-79 9 -148 10 -69 0 -127 5 -130 10 -3 4 -25 6 -48 3 -67 -9 -139 -10 -143 -2
-5 8 -60 5 -136 -7 -27 -4 -48 -4 -48 0 0 3 78 86 174 183 185 189 243 251
246 267 1 6 5 9 9 8 4 -1 8 7 8 18 1 10 10 32 21 47 43 61 148 322 136 335 -3
3 1 20 9 39 27 64 95 368 96 428 0 8 2 31 4 50 2 19 2 38 0 43 -6 10 -10 94
-29 612 -3 94 -8 174 -11 179 -3 4 0 11 6 15 8 5 8 21 2 54 -4 25 -6 49 -3 52
6 5 4 583 -2 820 -2 66 1 132 5 147 4 15 4 30 1 32 -4 2 -5 183 -3 403 5 545
5 580 -1 808 l-6 200 39 19 c21 11 39 23 39 28 0 11 -17 10 -25 -2 -3 -5 -17
-10 -30 -10 -17 0 -24 5 -23 18 3 40 -3 82 -11 82 -6 0 -11 -15 -13 -32z
m-1778 -60 c0 -7 -35 -35 -77 -63 -42 -27 -101 -71 -130 -97 -79 -71 -129
-101 -157 -96 -14 3 -31 1 -38 -3 -9 -6 -6 -9 10 -9 19 0 34 -19 15 -20 -137
-8 -473 -9 -469 -2 8 13 -206 26 -296 19 -37 -3 -68 -3 -68 1 1 8 150 106 225
148 28 15 65 43 84 61 l34 33 232 0 c128 0 289 5 358 10 70 6 149 12 177 14
28 2 54 6 57 10 11 11 43 6 43 -6z m-14 -165 c-9 -181 -18 -444 -18 -518 1
-38 3 -256 7 -483 3 -227 3 -418 0 -423 -4 -5 -14 -5 -26 1 -14 8 -19 21 -19
50 0 22 -5 40 -10 40 -7 0 -7 7 0 21 13 24 4 41 -10 19 -6 -8 -10 -10 -10 -4
0 6 6 17 13 23 9 7 14 34 14 73 1 61 -15 57 -16 -4 -1 -15 -6 -39 -13 -55 -6
-15 -10 -55 -9 -89 2 -47 -2 -69 -18 -95 -12 -19 -21 -41 -21 -51 0 -17 -86
-53 -94 -40 -2 4 -7 75 -11 157 -7 149 -15 203 -16 109 0 -27 0 -102 1 -166 1
-77 -3 -118 -9 -118 -12 0 -14 49 -10 235 6 288 5 351 -3 368 -5 9 -5 17 0 17
4 0 8 43 7 95 0 52 2 95 5 95 3 0 4 17 3 38 -3 37 -4 179 -2 217 1 11 0 36 0
55 -1 30 5 85 9 85 0 0 3 47 5 104 l5 104 37 33 c21 18 42 33 46 34 5 0 6 -17
2 -38 -3 -21 -2 -49 4 -62 l10 -25 1 25 c1 14 3 40 5 58 1 18 -2 35 -7 38 -5
3 20 35 56 70 36 36 66 70 66 77 0 12 19 37 28 37 1 0 1 -48 -2 -107z m1781
10 c-8 -112 -9 -1537 -1 -1953 3 -180 1 -351 -5 -400 -5 -47 -6 -87 -3 -90 4
-3 7 -48 7 -100 1 -121 14 -480 20 -542 3 -27 1 -48 -4 -48 -14 0 -21 -28 -36
-143 -12 -99 -20 -85 -15 31 1 27 -3 42 -11 42 -9 0 -11 -30 -7 -122 2 -68 1
-107 -2 -88 -8 39 -11 38 -14 -3 -1 -16 2 -31 6 -33 9 -6 8 -173 -2 -179 -4
-2 -6 -28 -5 -57 2 -29 -7 -89 -18 -133 -19 -80 -74 -211 -84 -202 -2 3 0 15
7 26 8 16 8 21 -2 21 -8 0 -6 5 5 11 9 5 17 15 17 22 0 7 -4 6 -11 -3 -8 -11
-9 -9 -3 10 4 14 10 26 15 28 4 2 5 10 2 19 -4 10 -2 14 4 10 6 -4 13 0 17 8
3 8 0 15 -7 15 -7 1 -5 6 6 14 16 13 25 42 9 32 -4 -2 -9 5 -9 17 -2 17 0 19
7 7 13 -20 13 -4 1 19 -7 12 -6 26 3 43 7 13 15 36 18 50 4 23 3 25 -13 15
-10 -6 -17 -13 -16 -16 1 -4 -4 -16 -11 -29 -7 -12 -11 -26 -8 -31 8 -12 -13
-81 -25 -81 -6 0 -7 -5 -4 -10 3 -6 -1 -17 -9 -26 -9 -8 -16 -24 -16 -34 0
-10 -4 -22 -10 -25 -6 -3 -7 1 -4 9 3 9 1 16 -5 16 -16 0 -14 16 4 34 8 8 12
22 9 30 -7 19 -28 22 -21 4 2 -7 -2 -25 -9 -40 -11 -21 -11 -27 -1 -31 9 -4 9
-7 0 -18 -10 -10 -13 -10 -13 0 0 7 -4 9 -10 6 -5 -3 -10 -2 -10 4 0 5 -3 17
-6 25 -4 12 -2 15 9 11 14 -6 33 22 22 33 -3 3 -5 0 -5 -6 0 -7 -4 -12 -10
-12 -15 0 -12 16 6 34 8 9 13 20 9 25 -3 5 -1 12 5 16 5 3 10 -1 10 -10 0 -9
5 -13 11 -9 6 3 15 0 20 -7 8 -12 11 -12 19 1 5 8 10 24 10 34 0 19 0 19 -13
1 -11 -14 -16 -15 -22 -5 -5 8 -1 18 9 26 11 7 15 18 10 25 -4 8 -3 10 4 5 7
-4 12 -1 12 8 0 9 4 16 9 16 13 0 42 77 35 95 -3 8 -1 15 6 15 6 0 9 4 6 9 -3
5 1 14 9 21 17 14 20 40 6 40 -5 0 -13 -9 -16 -21 -4 -11 -9 -18 -12 -16 -2 3
3 19 11 36 10 19 12 32 6 36 -6 3 -10 11 -10 18 0 8 3 8 12 -1 7 -7 16 -12 22
-12 5 0 -1 9 -14 20 -19 16 -21 24 -13 43 6 14 6 37 -1 67 l-11 45 -3 -63 c-2
-36 -7 -60 -12 -57 -6 4 -10 16 -10 28 0 17 -2 19 -9 7 -6 -8 -7 -18 -4 -23 3
-5 7 -47 8 -93 2 -70 0 -86 -14 -93 -11 -7 -16 -23 -15 -55 0 -25 -3 -43 -8
-40 -4 3 -8 12 -8 19 0 9 -7 12 -17 9 -16 -5 -16 -4 0 6 13 8 17 19 13 35 -3
13 -1 27 4 30 6 4 10 14 9 23 -1 10 1 25 5 34 12 26 2 53 -17 52 -18 -2 -16
20 4 56 7 12 8 10 9 -7 0 -13 4 -23 8 -23 5 0 7 13 4 29 -3 20 -8 28 -18 24
-9 -3 -14 1 -14 12 0 9 -4 14 -10 10 -5 -3 -7 -12 -4 -19 3 -8 -1 -27 -9 -43
-14 -25 -16 -26 -23 -9 -4 11 0 45 10 80 10 34 22 79 27 102 7 27 18 46 35 54
13 7 24 18 24 23 0 5 9 22 21 38 24 34 23 63 -6 188 -14 61 -15 78 -4 100 15
32 23 98 13 120 -6 13 -11 52 -16 119 -1 6 -6 12 -11 12 -8 0 -5 -24 9 -72 3
-12 0 -18 -9 -18 -16 0 -29 48 -32 115 -2 53 -25 145 -42 172 -8 12 -12 27 -9
32 4 6 2 18 -3 28 -16 30 -24 57 -22 72 1 7 -2 10 -8 6 -6 -3 -11 1 -11 9 0 9
5 16 10 16 6 0 10 8 9 18 0 10 -3 12 -6 4 -9 -22 -23 -2 -22 31 1 31 1 31 9 7
7 -22 8 -20 9 16 1 22 -4 45 -9 50 -6 6 -13 67 -15 135 -2 68 -7 203 -11 299
-4 96 -7 188 -8 203 -1 16 2 31 7 34 4 2 4 9 0 16 -4 6 -8 99 -10 207 -4 208
-4 208 -3 687 l2 312 51 38 c74 53 130 111 123 128 -3 9 0 12 8 9 8 -3 16 5
20 20 3 14 10 26 15 26 5 0 31 20 57 45 27 25 51 45 53 45 2 0 1 -39 -2 -87z
m-2732 -142 c72 -2 103 -5 90 -11 -11 -5 -36 -9 -55 -10 -19 0 -48 -6 -63 -13
-24 -10 -10 -12 90 -10 65 2 209 4 321 5 l202 3 2 -435 c1 -406 1 -472 -2
-590 -1 -25 0 -108 2 -186 4 -147 3 -168 -13 -158 -34 21 -89 -37 -89 -93 0
-24 -10 -36 -60 -71 -59 -40 -63 -41 -119 -36 -55 6 -59 5 -80 -22 -18 -23
-22 -37 -18 -68 5 -38 2 -43 -81 -135 -74 -82 -92 -97 -127 -103 -22 -4 -46
-15 -52 -25 -16 -21 -17 -85 -2 -100 9 -9 2 -34 -25 -96 -20 -47 -42 -102 -50
-123 -10 -30 -20 -40 -44 -46 -36 -9 -62 -42 -62 -76 0 -26 25 -79 40 -84 6
-2 4 -41 -7 -111 -17 -104 -18 -108 -51 -127 -18 -11 -34 -20 -35 -20 -1 0 -2
87 -2 193 0 185 -12 539 -21 622 -2 22 -3 198 -2 390 4 597 3 888 -2 1214 l-5
315 24 6 c14 3 61 5 105 4 45 -1 131 -2 191 -3z m1928 -27 c9 -3 17 -8 17 -12
0 -4 41 -5 92 -3 101 3 288 -7 305 -17 8 -5 13 -203 17 -632 11 -1102 19
-1365 46 -1436 6 -15 8 -29 6 -31 -3 -3 -25 36 -50 86 -25 50 -64 116 -86 147
-23 30 -39 58 -36 61 10 10 52 -36 71 -77 10 -22 22 -37 27 -34 14 9 2 60 -23
100 -17 29 -26 34 -57 34 -33 0 -45 8 -117 85 -62 66 -80 92 -81 116 -1 17
-10 43 -21 57 -18 23 -28 27 -72 27 -42 0 -68 9 -156 55 -84 44 -107 61 -115
85 -11 31 -57 85 -73 85 -5 0 -20 -9 -34 -20 -29 -23 -101 -28 -108 -7 -2 6
-6 147 -9 312 -3 165 -7 354 -10 420 -3 66 -8 203 -11 305 -3 102 -7 194 -9
205 -2 11 -6 37 -10 57 l-7 37 158 4 c163 4 315 0 346 -9z m-516 -1385 c20 -7
22 -15 21 -73 -1 -64 -1 -65 -27 -60 -14 2 -62 8 -106 13 -79 8 -94 8 -247 -4
-43 -3 -78 -2 -78 3 0 14 29 48 30 35 0 -24 40 -13 78 22 88 82 95 84 192 65
35 -6 54 -18 83 -51 20 -23 40 -39 43 -36 3 3 -3 14 -13 25 -48 52 -63 70 -63
76 0 6 54 -3 87 -15z m128 -35 c23 -9 35 -20 32 -29 -3 -7 2 -15 13 -18 13 -3
17 0 13 9 -3 8 1 14 10 14 33 0 220 -88 221 -104 1 -5 -53 -17 -118 -27 l-119
-17 -51 24 c-42 19 -51 28 -52 51 -1 15 -4 47 -7 71 -7 48 -1 51 58 26z m-999
-120 c-3 -9 -9 -34 -12 -57 -4 -31 -3 -38 5 -27 6 8 11 22 11 31 0 14 39 49
55 49 3 0 5 -21 5 -47 0 -46 -2 -49 -41 -71 -40 -23 -41 -23 -34 -3 4 12 2 21
-4 21 -10 0 -14 -10 -13 -35 0 -5 -38 -44 -85 -85 -47 -41 -105 -96 -130 -122
-30 -31 -51 -45 -62 -41 -9 4 -13 3 -9 -2 7 -7 -45 -91 -65 -106 -4 -3 -9 -14
-11 -25 -2 -10 -16 -41 -30 -69 -14 -27 -35 -76 -46 -108 -12 -31 -26 -55 -31
-52 -5 4 -9 -4 -9 -16 0 -12 -8 -28 -17 -35 -11 -8 -13 -13 -5 -14 13 0 11
-28 -8 -100 -5 -19 -12 -63 -16 -97 -4 -35 -10 -63 -14 -63 -5 0 -25 26 -46
58 -46 71 -43 67 -51 59 -3 -4 1 -15 9 -24 8 -10 28 -42 44 -70 16 -29 32 -53
37 -53 4 0 7 -4 7 -10 0 -5 -6 -10 -14 -10 -8 0 -17 -7 -20 -16 -4 -12 -14
-14 -36 -9 -19 4 -30 3 -30 -4 0 -6 11 -11 24 -11 27 0 45 -18 29 -29 -6 -3
-10 -13 -11 -21 -1 -8 -4 -28 -8 -45 -6 -28 -5 -29 8 -10 8 11 21 42 28 68 7
26 15 46 17 43 3 -2 6 -33 8 -68 2 -35 6 -91 10 -125 5 -35 4 -63 0 -63 -5 0
-31 18 -57 41 -72 60 -71 39 0 -28 52 -48 61 -60 56 -82 -4 -20 -3 -22 5 -11
5 8 12 12 14 10 4 -6 30 -109 33 -135 1 -11 16 -50 33 -87 32 -72 31 -81 -5
-47 -13 12 -32 19 -45 17 -20 -3 -18 -5 17 -24 21 -11 40 -27 40 -35 1 -7 2
-20 3 -27 0 -7 5 -11 11 -7 5 3 7 12 3 20 -11 30 22 4 36 -28 8 -17 27 -53 43
-80 l28 -47 -28 5 c-21 3 -19 2 6 -7 19 -6 48 -29 65 -51 18 -22 43 -49 56
-61 13 -12 47 -41 75 -67 98 -87 162 -131 253 -176 51 -24 99 -46 107 -47 27
-4 29 -15 11 -78 -28 -102 -25 -100 -95 -67 -59 29 -77 49 -42 49 22 0 59 26
50 35 -4 4 -20 -1 -36 -11 -51 -29 -75 -6 -87 87 -6 45 -28 90 -39 79 -3 -3 1
-24 9 -45 8 -22 14 -57 15 -77 0 -24 6 -40 17 -47 10 -5 16 -12 13 -14 -3 -3
-42 17 -88 44 -45 27 -87 49 -92 49 -6 0 -10 4 -10 9 0 5 -13 14 -29 21 -36
15 -82 65 -76 82 3 7 -5 18 -17 23 -13 6 -31 26 -40 45 -12 24 -18 29 -18 16
0 -18 -2 -18 -26 5 -31 29 -65 75 -68 92 -1 7 -14 31 -29 54 -15 24 -27 46
-27 49 0 4 -24 55 -54 114 -55 111 -58 138 -15 125 l24 -7 -25 18 c-48 35 -63
53 -57 69 6 14 -7 55 -35 108 -11 22 -13 95 -4 125 5 13 3 22 -3 22 -6 0 -11
-7 -11 -17 0 -9 -3 -13 -7 -9 -12 11 -11 80 0 88 7 4 7 11 -2 21 -8 10 -8 16
-1 19 6 2 12 20 14 41 2 21 6 40 9 44 3 3 0 12 -8 19 -8 8 -12 21 -9 28 3 8 0
17 -5 21 -6 3 -9 10 -7 14 3 4 8 34 11 66 3 33 8 69 10 80 2 11 4 31 4 45 1
22 3 23 12 7 9 -16 13 -16 47 10 20 14 50 41 66 60 26 30 26 33 7 30 -11 -2
-38 -23 -59 -46 -28 -31 -41 -40 -47 -31 -4 7 -3 15 2 19 15 10 32 67 27 93
-2 13 -1 16 2 8 10 -20 34 -43 40 -37 3 2 -6 21 -20 41 -27 41 -27 45 19 159
23 57 30 66 41 55 7 -7 15 -39 18 -71 5 -63 12 -79 25 -58 5 7 2 29 -5 49 -7
20 -13 49 -14 65 0 15 -4 27 -10 27 -5 0 -10 5 -10 11 0 6 8 8 19 4 23 -7 69
10 98 37 18 17 20 24 11 51 -6 18 -17 40 -25 49 -20 22 -18 26 52 106 81 93
99 106 118 88 16 -16 94 -19 103 -5 3 5 14 9 25 9 23 0 23 -3 -1 48 -11 22
-20 47 -20 55 0 13 145 117 164 117 4 0 5 -7 2 -16z m801 -15 c34 -6 68 -18
75 -27 10 -11 13 -75 13 -256 0 -238 0 -242 -28 -326 -16 -47 -35 -98 -42
-115 -16 -34 -100 -248 -122 -310 -24 -68 10 -21 40 55 14 36 37 90 50 120 13
30 38 98 56 150 18 52 37 99 41 103 4 4 8 -45 9 -111 l2 -118 -57 -80 c-31
-43 -64 -88 -74 -99 -10 -11 -23 -31 -29 -45 -11 -23 -10 -22 14 5 15 17 49
58 77 93 27 34 53 62 56 62 12 0 5 -109 -7 -124 -12 -14 -128 -96 -137 -96 -3
0 -14 9 -26 20 -12 11 -30 20 -39 20 -32 0 -32 -8 1 235 5 39 12 81 14 95 3
14 10 61 16 105 18 124 32 209 45 275 15 71 17 110 6 110 -6 0 -11 -10 -11
-23 0 -12 -11 -77 -25 -145 -33 -164 -83 -491 -87 -572 -3 -56 -6 -65 -23 -68
-19 -2 -22 12 -53 205 -58 360 -74 449 -87 461 -4 4 -5 -9 -2 -28 4 -19 16
-102 27 -185 11 -82 22 -157 25 -165 5 -15 55 -285 55 -295 0 -40 -107 146
-118 205 -11 62 -16 287 -9 405 4 72 5 203 1 291 -4 116 -2 164 6 169 38 23
221 25 347 4z m-387 -211 c0 -146 -3 -199 -11 -191 -10 10 -14 50 -23 238 -5
80 -5 83 -21 89 -14 5 -15 -3 -11 -52 2 -31 8 -97 11 -147 6 -82 12 -110 35
-156 5 -9 6 -83 3 -165 -7 -181 -7 -170 0 -271 4 -46 3 -83 -1 -83 -4 0 -21
21 -38 48 -18 26 -50 69 -73 97 -26 32 -41 60 -41 77 0 16 -4 28 -10 28 -5 0
-6 -8 -3 -17 7 -17 6 -17 -20 0 -15 9 -27 13 -27 9 0 -14 43 -73 94 -127 25
-27 46 -53 46 -57 0 -4 13 -22 28 -40 28 -32 57 -114 43 -122 -4 -3 -38 16
-76 42 -39 25 -95 60 -125 77 l-55 31 -3 118 c-2 103 -1 118 13 112 13 -5 13
-2 -1 26 -10 19 -19 74 -24 142 -21 286 -21 298 -8 294 7 -3 13 -20 14 -39 3
-69 4 -79 14 -79 5 0 7 6 5 13 -2 6 -7 45 -9 86 -5 71 -16 112 -16 58 0 -15
-4 -27 -10 -27 -5 0 -10 18 -10 41 0 32 3 40 15 35 8 -3 14 -1 12 5 -3 13 30
36 38 27 4 -3 8 -51 10 -105 3 -54 7 -123 11 -153 4 -30 7 -59 5 -63 -1 -5 3
-6 8 -3 5 4 11 -8 13 -26 3 -27 5 -30 12 -15 6 12 2 49 -8 95 -9 43 -18 115
-21 162 -2 47 -5 94 -7 105 -3 17 9 24 72 43 41 13 86 27 100 32 52 17 50 23
50 -192z m940 176 c31 -16 81 -69 73 -78 -13 -12 -41 -106 -32 -106 11 0 39
65 39 91 0 11 5 19 11 19 19 0 93 -56 137 -104 47 -51 54 -71 20 -56 -13 5
-71 16 -130 24 -105 15 -110 17 -195 74 -49 33 -112 72 -141 87 -28 16 -51 29
-50 31 2 1 23 5 48 8 25 4 65 10 90 15 61 11 100 10 130 -5z m-290 -57 c300
-153 432 -280 563 -542 58 -116 99 -242 101 -308 0 -28 4 -54 8 -57 17 -13 30
-162 25 -280 -4 -100 -12 -151 -40 -255 -69 -255 -157 -409 -316 -552 -124
-112 -307 -233 -353 -233 -18 0 -117 298 -126 380 -11 89 -4 153 14 146 11 -4
12 -1 6 12 -12 23 -24 225 -14 220 5 -1 62 -61 128 -133 155 -169 326 -343
322 -328 -2 7 -64 76 -138 154 -160 169 -275 295 -297 327 -15 22 -22 116 -10
128 3 4 18 -3 34 -13 63 -44 553 -282 553 -269 0 2 -66 36 -147 76 -165 81
-373 193 -415 222 -24 17 -28 26 -28 67 0 26 2 50 5 53 3 3 29 1 58 -4 79 -13
567 -58 612 -57 37 1 36 2 -15 10 -30 4 -167 20 -305 34 -137 14 -275 29 -305
33 l-54 7 -2 38 c-1 45 5 49 116 66 280 45 634 121 655 142 7 7 2 9 -15 5
-140 -31 -348 -76 -400 -85 -194 -36 -345 -59 -352 -55 -4 3 -8 29 -8 59 0 66
-18 52 282 218 125 70 246 138 268 152 22 14 58 37 81 51 22 14 39 28 36 30
-3 3 -58 -26 -124 -63 -65 -38 -167 -96 -228 -128 -60 -32 -151 -82 -202 -112
-51 -29 -97 -53 -102 -53 -13 0 -15 109 -2 142 5 13 57 79 115 148 184 219
306 370 297 370 -4 0 -19 -13 -32 -29 -13 -16 -105 -122 -204 -237 l-180 -208
-3 79 c-4 113 11 221 41 285 55 119 66 150 54 150 -7 0 -25 -34 -41 -75 -16
-41 -32 -75 -37 -75 -10 0 -12 383 -2 393 10 11 13 10 123 -46z m-1002 -307
c4 -310 10 -444 21 -448 6 -2 11 -7 11 -12 0 -12 -55 17 -125 65 -83 57 -256
162 -280 170 -11 4 -4 -3 15 -16 295 -191 402 -269 371 -269 -19 0 -5 -90 16
-106 20 -14 12 -31 -9 -18 -7 4 -19 9 -28 10 -8 1 -51 11 -95 22 -114 29 -280
62 -307 61 -13 0 27 -11 87 -23 156 -33 276 -65 303 -82 20 -13 22 -22 22
-119 l0 -104 -52 -10 c-29 -6 -82 -15 -118 -21 -150 -26 -366 -72 -374 -81
-13 -12 -4 -11 79 6 93 20 441 85 455 85 7 0 10 -27 8 -81 l-3 -82 -85 -37
c-120 -52 -360 -169 -360 -175 0 -6 89 29 133 52 97 50 312 142 317 136 7 -9
-2 -219 -10 -225 -38 -26 -278 -268 -266 -268 5 0 66 57 138 126 71 69 131
124 133 122 2 -2 7 -89 10 -193 6 -188 6 -189 40 -262 19 -40 43 -87 55 -103
28 -39 16 -38 -46 4 -29 19 -56 32 -60 28 -5 -4 -6 -3 -2 2 4 5 -19 25 -51 46
-122 79 -285 246 -366 375 -72 116 -129 290 -155 475 -16 109 -6 346 16 381 2
4 7 27 10 51 3 24 12 61 19 83 23 69 65 176 81 206 8 16 13 30 12 31 -2 2 7
17 20 35 12 17 22 35 22 40 0 13 52 75 133 156 37 38 67 70 67 73 0 7 84 84
92 84 3 0 13 6 20 13 7 7 27 22 43 34 l30 22 6 -57 c3 -31 6 -122 7 -202z
m1443 130 c106 -11 122 -17 115 -43 -8 -33 -10 -187 -2 -194 3 -3 7 5 7 18 1
13 2 29 4 34 1 6 3 44 4 85 l2 75 29 -34 c15 -18 31 -44 34 -57 4 -13 18 -36
32 -51 31 -34 108 -189 99 -202 -5 -9 -34 0 -152 43 -24 9 -49 39 -105 121
-40 61 -100 137 -133 169 -46 45 -54 57 -35 52 14 -5 59 -12 101 -16z m229
-366 c82 -26 99 -37 106 -68 4 -19 2 -32 -5 -34 -6 -2 -11 -13 -11 -23 0 -11
-4 -17 -10 -14 -5 3 -2 -7 7 -24 10 -16 21 -27 25 -25 5 3 8 -4 8 -15 0 -12
-4 -21 -10 -21 -5 0 -10 5 -10 12 0 29 -18 -11 -24 -52 l-6 -45 13 34 c15 39
37 53 38 24 0 -10 2 -37 5 -61 4 -32 1 -44 -10 -48 -13 -5 -13 -9 -2 -27 16
-25 14 -164 -2 -193 -6 -11 -7 -27 -1 -41 4 -12 6 -44 3 -70 -3 -26 -6 -88 -8
-138 -2 -49 -5 -97 -6 -105 -7 -36 1 -131 10 -125 41 25 -39 -172 -110 -274
-25 -35 -52 -73 -60 -85 -36 -53 -72 -96 -81 -96 -5 0 -9 18 -9 39 0 22 -4 42
-9 46 -6 3 -10 -12 -9 -34 0 -21 -2 -44 -6 -49 -3 -6 -1 -12 5 -14 6 -2 -9 -4
-33 -4 -72 -1 -122 -8 -135 -21 -16 -14 -17 -35 -3 -49 11 -11 -9 -62 -49
-129 -19 -32 -65 -64 -77 -52 -4 3 -9 40 -12 82 -3 44 -9 72 -14 69 -5 -4 -8
-38 -6 -78 l3 -71 -50 3 c-27 1 -54 7 -59 12 -16 16 -36 11 -36 -8 0 -14 9
-18 38 -20 60 -2 112 -9 117 -14 2 -2 -25 -22 -62 -43 -63 -37 -66 -38 -79
-20 -8 10 -14 27 -14 37 0 10 -9 36 -20 58 -11 22 -20 41 -20 43 0 3 15 10 33
18 17 7 59 30 91 51 32 22 72 46 88 54 16 8 58 39 93 69 35 30 69 55 75 55 5
0 10 3 10 8 0 4 19 27 43 52 65 70 102 120 138 185 18 33 38 64 46 68 7 5 11
12 8 17 -7 11 28 94 43 104 6 4 9 12 6 20 -3 7 6 48 20 92 32 103 56 207 56
246 0 17 8 40 17 50 16 18 16 18 0 12 -13 -5 -17 0 -18 17 0 13 -2 31 -3 39
-2 8 -7 59 -11 113 -7 95 -6 97 15 97 12 0 18 4 15 11 -4 6 -13 8 -21 5 -18
-7 -26 13 -55 131 -12 48 -37 121 -56 160 -38 84 -39 88 -15 78 9 -4 37 -14
62 -21z m168 -239 c12 -58 26 -178 25 -215 -1 -14 2 -29 7 -35 7 -10 6 -140
-4 -275 -6 -87 -22 -164 -35 -168 -5 -2 -8 -9 -5 -15 6 -17 -9 -67 -20 -67
-15 0 -10 77 7 103 8 13 12 29 8 35 -3 6 -6 42 -5 79 2 91 14 393 16 402 1 3
-2 38 -6 76 -14 147 -15 160 -7 145 5 -8 13 -38 19 -65z m-1721 -76 c147 -80
268 -186 186 -164 -15 4 -44 11 -63 15 -19 5 -48 13 -65 19 -16 6 -46 13 -67
16 l-36 6 -4 64 c-1 36 0 65 4 65 3 0 23 -9 45 -21z m83 -162 c123 -33 125
-34 128 -63 3 -29 1 -30 -55 -42 -32 -7 -68 -15 -80 -18 -22 -6 -23 -4 -23 57
0 39 -4 59 -9 51 -4 -8 -7 -36 -6 -63 3 -52 3 -51 -60 -63 l-30 -6 0 90 c0 49
2 90 5 90 3 0 61 -15 130 -33z m383 -16 c47 -20 57 -35 57 -83 0 -22 -11 -41
-39 -69 -35 -36 -42 -38 -66 -29 -15 6 -30 8 -33 6 -12 -13 -42 18 -52 54 -13
49 8 103 49 125 33 18 32 18 84 -4z m-258 -121 c9 -28 3 -34 -72 -70 -38 -18
-75 -36 -83 -40 -8 -4 -36 -19 -63 -33 l-47 -27 1 69 1 68 45 10 c43 10 45 9
54 -15 5 -14 7 -32 5 -39 -4 -8 -1 -11 5 -7 6 4 8 20 5 39 l-7 33 63 15 c84
20 86 20 93 -3z m453 -10 c40 -10 42 -12 42 -50 0 -22 -2 -40 -5 -40 -2 0 -25
14 -50 32 -24 17 -47 29 -50 26 -3 -2 18 -19 46 -37 28 -19 54 -43 58 -55 9
-22 8 -62 0 -71 -3 -2 -31 27 -63 65 -32 39 -63 70 -68 70 -6 0 -7 14 -3 33
10 43 14 49 33 43 10 -3 36 -10 60 -16z m-1611 -46 c2 0 6 -27 9 -60 3 -32 10
-85 15 -117 10 -56 9 -60 -15 -82 -35 -33 -37 -106 -4 -129 12 -9 32 -16 43
-16 16 0 28 -19 59 -87 42 -97 54 -143 37 -143 -13 0 -27 -25 -35 -67 -11 -48
20 -75 75 -67 36 6 44 3 75 -27 20 -19 49 -51 65 -71 29 -36 29 -38 14 -62
-22 -33 -16 -65 17 -89 24 -18 31 -19 72 -7 45 12 46 12 98 -26 75 -53 80 -62
73 -112 -6 -38 -3 -45 24 -72 21 -21 39 -30 63 -30 38 0 78 24 78 46 0 19 23
18 73 -5 23 -10 50 -21 60 -24 21 -8 21 -17 3 -82 -19 -65 -105 -365 -112
-387 -4 -14 -17 -18 -62 -18 -64 0 -76 -6 -86 -37 -4 -13 -12 -23 -17 -23 -14
0 -67 38 -118 85 -24 22 -41 34 -37 28 19 -33 -21 -5 -103 73 -50 47 -123 131
-163 187 -136 191 -187 326 -252 669 -19 101 -20 116 -7 102 8 -8 30 -82 62
-206 5 -20 20 -61 34 -90 14 -29 23 -46 21 -38 -3 8 -20 65 -39 125 -91 293
-102 367 -93 655 3 107 6 208 6 223 l0 28 33 -23 c17 -13 33 -23 34 -24z
m1155 -61 c-2 -13 -8 -23 -12 -23 -4 0 -40 -33 -79 -72 -62 -64 -71 -70 -67
-46 3 15 0 30 -5 33 -5 4 -9 -5 -9 -19 0 -14 -6 -26 -12 -26 -10 0 -9 -3 1 -9
11 -7 9 -15 -10 -40 -29 -39 -39 -39 -40 2 -1 17 -3 47 -5 66 -5 67 4 76 166
156 70 35 82 31 72 -22z m418 -28 c33 -41 68 -87 75 -102 16 -31 20 -139 6
-148 -6 -3 -6 -18 0 -38 12 -43 12 -167 -1 -167 -5 0 -10 5 -10 11 0 7 -26 87
-59 178 -32 91 -66 189 -75 216 l-16 50 20 -25 c11 -14 43 -69 70 -122 49 -94
70 -125 50 -74 -13 36 -74 156 -109 215 -31 52 -39 81 -22 81 6 0 37 -34 71
-75z m-129 0 c4 -22 28 -98 54 -170 26 -71 63 -177 82 -235 20 -58 60 -175 90
-260 30 -85 66 -189 79 -230 101 -313 206 -612 240 -688 13 -29 24 -55 24 -58
0 -3 -14 -4 -32 -2 l-32 3 -97 288 c-53 158 -101 305 -107 325 -6 20 -26 82
-45 137 -19 55 -55 163 -80 240 -25 77 -61 187 -80 245 -20 58 -54 164 -77
235 -23 72 -48 145 -56 163 -17 36 -11 55 14 50 10 -2 19 -18 23 -43z m-101
30 c0 -23 -80 -327 -117 -445 -25 -80 -60 -203 -79 -275 -34 -130 -54 -191
-80 -252 -8 -17 -13 -35 -12 -40 1 -4 -3 -26 -10 -48 -6 -22 -18 -69 -27 -105
-9 -36 -20 -74 -24 -85 -12 -27 -83 -340 -89 -386 -4 -35 -6 -37 -50 -42 -26
-3 -48 -4 -49 -3 -2 1 8 30 21 64 13 33 29 83 34 109 6 26 32 107 57 178 58
164 78 227 160 505 37 124 84 281 105 350 58 194 70 236 70 251 0 33 66 229
78 229 6 0 12 -2 12 -5z m-185 -116 c-1 -60 -5 -84 -16 -93 -8 -6 -18 -18 -22
-26 -4 -8 -34 -58 -67 -110 -34 -52 -64 -103 -67 -112 -9 -29 -23 -20 -24 15
0 26 -2 28 -8 12 -5 -11 -4 -30 0 -43 11 -30 11 -35 -1 -27 -6 4 -10 -7 -10
-27 -1 -32 -1 -32 -16 -13 -14 19 -14 17 -8 -24 5 -32 4 -42 -4 -37 -8 5 -10
2 -6 -8 3 -9 2 -16 -4 -16 -14 0 -18 82 -12 210 3 66 8 99 14 88 4 -10 6 -56
3 -104 -5 -79 -4 -84 9 -58 8 15 12 34 9 42 -3 8 0 20 6 28 7 8 7 19 1 31 -5
10 -12 35 -16 56 -5 29 -3 39 9 43 8 3 15 11 15 16 0 11 49 66 118 132 24 22
52 56 64 74 11 17 23 32 26 32 4 0 7 -37 7 -81z m235 26 c0 -20 57 -198 146
-453 41 -118 72 -217 69 -222 -15 -25 -198 -40 -220 -18 -3 3 -8 139 -12 302
-3 163 -10 296 -14 296 -9 0 -10 -319 -1 -463 4 -60 4 -111 1 -113 -14 -9 -88
69 -107 114 -23 54 -21 73 23 217 34 110 76 261 88 317 10 43 27 57 27 23z
m-254 -221 c-5 -38 -4 -44 7 -35 11 8 13 6 11 -12 -1 -12 -3 -31 -4 -42 l-1
-20 -9 20 c-8 19 -9 19 -9 -2 -1 -12 3 -24 8 -27 11 -7 -3 -84 -33 -181 -67
-214 -92 -292 -103 -309 -9 -17 -12 -15 -23 20 -8 21 -14 46 -15 54 -1 8 -7
26 -12 40 -12 28 -6 90 8 90 5 0 9 6 9 13 0 6 12 36 27 65 27 52 28 52 35 25
4 -15 5 -29 3 -32 -3 -2 -5 1 -5 8 0 28 -19 -2 -26 -42 -4 -23 -9 -51 -11 -62
-8 -37 -9 -117 -2 -121 4 -2 10 10 14 28 7 34 32 118 46 153 19 49 20 65 5 81
-21 20 -10 59 61 222 3 6 0 12 -6 12 -6 0 -11 -7 -11 -15 0 -18 -48 -113 -61
-121 -5 -3 -9 0 -9 5 0 6 -5 11 -12 11 -9 0 -9 -3 0 -12 7 -7 12 -18 12 -26 0
-12 -3 -12 -15 -2 -13 11 -14 8 -10 -21 5 -29 4 -31 -4 -11 -15 33 -19 27 -19
-23 1 -44 -10 -72 -19 -47 -3 6 -9 10 -14 6 -14 -8 -11 2 21 71 17 35 30 66
30 68 0 4 57 104 106 184 27 46 38 41 30 -13z m1480 -242 c-3 -10 -8 -67 -11
-127 -5 -134 -35 -254 -106 -431 -81 -204 -167 -336 -288 -444 -87 -77 -155
-123 -159 -107 -2 7 -12 32 -22 57 -25 61 -130 384 -130 402 0 8 16 20 36 27
32 12 38 11 57 -7 52 -46 128 -58 147 -23 15 29 12 61 -5 61 -8 0 -15 7 -15
15 0 9 8 14 21 12 12 -1 24 3 26 10 3 8 -5 11 -26 8 -45 -5 -45 7 2 52 82 78
159 134 176 127 34 -14 101 -16 116 -4 22 18 19 28 -14 44 -27 15 -29 14 -24
-3 6 -25 -10 -33 -42 -21 l-26 10 33 34 33 33 27 -25 c25 -23 28 -24 34 -7 5
12 0 23 -16 35 -20 15 -21 20 -10 41 7 13 37 52 68 87 44 51 58 61 76 56 20
-6 20 -5 2 8 -18 14 -18 16 9 56 30 45 40 53 31 24z m-1390 -124 c5 -18 9 -38
9 -43 0 -6 11 -25 23 -43 13 -18 23 -42 22 -55 -3 -36 -1 -49 9 -43 5 3 7 15
4 26 -3 11 -1 20 5 20 17 0 25 -21 13 -33 -6 -6 -11 -21 -11 -33 0 -13 -12
-32 -27 -43 -14 -12 -23 -24 -20 -28 4 -3 13 0 22 7 23 19 18 3 -12 -38 -15
-20 -28 -38 -29 -40 -4 -7 -80 18 -101 33 -21 15 -21 17 -7 53 8 20 19 46 25
57 5 11 10 32 11 45 1 14 5 30 10 36 5 7 8 16 7 20 -4 16 25 134 32 134 4 0
11 -15 15 -32z m368 -184 c-43 -79 -161 -190 -181 -171 -8 8 28 57 38 52 4 -3
16 7 26 22 10 15 35 45 56 67 43 45 47 59 12 46 -47 -18 -85 -40 -85 -50 0 -6
-6 -10 -14 -10 -14 0 -30 -29 -21 -38 3 -3 5 0 5 6 0 7 4 12 8 12 4 0 8 -9 8
-20 0 -10 -2 -17 -5 -14 -2 2 -15 -6 -28 -18 l-24 -22 4 34 c6 43 16 70 28 70
5 0 9 6 9 14 0 8 -9 13 -24 12 -21 -1 -25 -7 -29 -44 -6 -51 -12 -59 -31 -43
-11 9 -15 7 -20 -14 -9 -36 -24 -22 -23 20 1 23 4 32 11 25 15 -15 53 -12 53
5 0 10 -4 12 -12 5 -8 -7 -15 -3 -22 13 -13 27 1 72 19 61 19 -12 128 -16 141
-6 7 6 29 13 49 17 21 4 43 14 49 21 26 32 28 -5 3 -52z m126 -245 c14 -39 25
-76 25 -81 0 -13 -127 -47 -172 -48 -40 0 -40 4 -8 34 13 13 22 26 19 29 -3 3
-15 -3 -27 -14 -11 -10 -26 -19 -33 -19 -15 0 -155 92 -149 98 3 4 167 33 259
47 16 2 34 9 39 14 18 18 22 13 47 -60z m-292 -60 c39 -30 71 -60 71 -66 2
-25 -276 -23 -335 2 l-39 16 50 44 c28 24 55 44 61 45 5 0 25 -16 44 -35 19
-19 39 -35 46 -35 6 0 17 -7 24 -15 7 -8 16 -15 21 -15 19 0 7 16 -29 39 -49
33 -82 62 -82 74 0 5 21 8 49 5 39 -4 61 -15 119 -59z m-278 -103 c42 -10 45
-14 51 -50 10 -64 68 -97 138 -80 32 8 38 15 53 59 l16 50 54 6 c57 7 221 20
251 20 9 0 17 4 17 10 0 20 31 7 40 -17 17 -44 13 -54 -23 -54 -18 0 -37 4
-43 9 -5 5 -19 12 -31 16 -32 9 -30 -18 3 -44 31 -25 49 -26 86 -7 35 18 32
23 91 -154 25 -74 48 -142 51 -150 6 -13 -53 -15 -484 -18 -269 -1 -490 0
-490 2 0 9 62 264 83 342 l22 82 35 -6 c19 -3 55 -10 80 -16z m903 -448 c-2
-5 -8 -8 -14 -8 -5 0 -37 -13 -71 -29 -81 -37 -209 -77 -273 -86 -134 -17
-301 -48 -312 -57 -13 -11 -194 0 -413 24 -93 10 -116 17 -201 59 -126 62
-148 91 -79 101 52 7 1368 3 1363 -4z m128 -5 c0 -5 2 -45 4 -89 l3 -82 -193
2 c-185 1 -227 7 -148 22 20 4 44 15 54 25 11 11 25 19 32 20 6 0 62 24 122
54 115 56 124 60 126 48z m-1546 -83 c28 -16 83 -39 121 -51 38 -11 73 -24 77
-29 5 -4 -53 -6 -129 -5 l-137 3 -3 56 c-1 33 2 56 8 56 6 0 34 -13 63 -30z"/>
<path d="M13261 7957 c-1 -33 -3 -36 -18 -29 -10 5 -62 12 -115 16 l-98 6 0
-24 0 -25 122 -3 c113 -3 123 -5 128 -23 7 -27 102 -172 117 -179 8 -3 9 4 1
27 -5 18 -10 37 -12 43 -1 6 -14 26 -30 45 -16 18 -35 49 -43 69 -9 19 -24 53
-34 75 l-18 40 0 -38z"/>
<path d="M5370 7929 c-25 -17 -62 -47 -83 -67 -29 -28 -40 -34 -46 -23 -6 9
-11 10 -15 2 -4 -6 -5 -15 -2 -19 6 -10 -102 -118 -150 -150 -16 -11 -43 -24
-58 -28 -22 -5 -25 -9 -14 -15 12 -7 13 -18 6 -61 -14 -73 -15 -807 -3 -1588
15 -968 11 -1685 -11 -2173 -3 -81 -1 -117 6 -112 6 4 10 -4 10 -19 0 -14 -4
-28 -10 -31 -6 -3 -10 -32 -10 -63 0 -41 3 -53 10 -42 8 12 10 11 10 -7 0 -13
-6 -23 -12 -23 -9 0 -8 -4 2 -10 13 -8 15 -55 11 -348 -2 -248 0 -341 8 -347
7 -4 9 -15 6 -26 -4 -13 -2 -19 8 -19 11 0 13 7 10 21 -6 20 -4 21 23 14 16
-5 94 -9 174 -10 80 -1 152 -5 160 -8 9 -4 45 -6 80 -4 36 2 126 0 200 -4 74
-3 140 -4 145 0 42 25 188 41 200 21 5 -8 12 -7 23 2 16 14 19 14 91 17 24 0
41 4 38 7 -3 4 -29 6 -57 5 -47 -1 -64 9 -39 24 5 4 47 57 93 118 45 62 101
130 123 153 30 31 38 45 32 60 -7 17 -8 17 -8 2 -2 -37 -21 -16 -21 22 0 23 5
40 11 40 8 0 8 5 -1 15 -9 11 -10 18 -1 29 12 14 4 186 -8 186 -3 0 -6 169 -7
375 0 206 3 375 6 375 10 0 86 -169 100 -221 7 -24 29 -96 50 -159 36 -107
102 -313 222 -695 28 -88 61 -188 74 -222 13 -34 24 -68 24 -76 0 -8 7 -20 15
-27 27 -22 16 -30 -42 -30 -41 0 -54 -3 -46 -11 11 -11 601 -6 718 5 28 3 149
8 270 10 238 6 246 4 259 -50 4 -13 10 -24 14 -24 10 0 9 94 -2 101 -8 6 78
129 90 129 7 0 -23 -51 -48 -82 -12 -15 -19 -30 -16 -34 3 -3 14 8 24 25 9 16
27 34 38 41 12 6 22 22 22 36 2 32 12 43 23 25 7 -10 13 -11 27 -2 18 10 18
10 -3 11 -13 0 -23 2 -23 5 0 26 88 161 102 157 11 -3 1 52 -13 78 -17 29 -99
223 -99 232 0 5 -11 33 -24 61 -32 69 -48 108 -80 192 -15 39 -40 102 -56 140
-50 120 -111 277 -141 365 -33 94 -59 164 -94 255 -13 33 -33 94 -45 135 -13
41 -26 79 -31 84 -4 5 -5 14 -3 21 5 11 -52 154 -111 280 -13 27 -27 62 -30
78 -4 15 -11 30 -16 32 -4 3 -7 11 -5 18 1 7 1 9 -1 5 -8 -13 -21 -9 -27 8 -7
19 20 54 41 54 7 0 13 4 13 9 0 10 61 79 176 201 79 83 140 163 146 191 2 8 7
17 11 20 5 3 9 12 10 20 2 8 7 21 12 29 5 8 10 20 11 25 2 10 31 113 57 200
25 83 33 142 42 325 4 74 10 176 15 225 7 86 4 270 -5 285 -3 4 -7 25 -11 46
-3 22 -17 72 -30 113 -13 40 -24 78 -24 83 0 5 -13 37 -29 72 -36 75 -49 122
-32 112 6 -4 11 -2 11 3 0 6 -4 11 -10 11 -5 0 -10 7 -10 15 0 24 -93 174
-156 253 -22 26 -23 31 -8 25 46 -17 -56 89 -156 164 -100 74 -356 205 -452
231 -20 6 -54 23 -75 38 -30 23 -34 24 -19 6 11 -12 16 -22 13 -22 -4 0 -69
15 -145 34 -180 44 -315 60 -492 58 -411 -5 -909 -7 -900 -4 12 4 14 22 3 22
-5 0 -28 -14 -53 -31z m365 -29 c106 -5 292 -6 420 -1 234 7 423 -4 505 -31
19 -6 47 -11 62 -10 16 0 26 -3 23 -8 -3 -4 2 -10 10 -14 8 -3 15 -1 15 4 0 6
8 10 18 9 11 0 12 -2 4 -6 -18 -7 4 -33 27 -33 21 0 153 -45 194 -66 15 -9 33
-14 39 -12 5 2 -11 14 -36 26 -45 23 -67 42 -47 42 26 0 235 -87 311 -131 117
-66 151 -87 182 -113 21 -17 53 -44 72 -59 30 -24 116 -139 116 -154 0 -3 15
-26 34 -52 49 -68 69 -140 27 -98 -10 10 -11 9 -6 -5 4 -9 13 -19 20 -22 8 -3
22 -31 31 -63 9 -32 21 -64 28 -72 6 -8 10 -16 9 -17 -4 -6 7 -38 28 -77 11
-20 26 -72 34 -115 25 -130 26 -136 35 -172 15 -65 19 -283 6 -382 -5 -42 -12
-58 -22 -58 -10 0 -13 6 -10 18 11 40 22 180 17 217 -1 3 -1 8 0 11 0 4 -5 11
-13 15 -10 7 -10 9 0 9 6 0 12 7 12 15 0 9 -6 12 -15 8 -10 -3 -15 -1 -13 7 2
7 -3 15 -11 18 -8 3 -11 0 -7 -7 4 -6 1 -11 -7 -11 -15 0 -27 -19 -34 -54 -3
-16 -1 -17 12 -6 8 7 15 21 15 32 0 11 5 18 13 15 13 -4 15 -175 2 -196 -3 -6
-4 -15 -1 -20 3 -5 -1 -11 -9 -15 -8 -3 -15 -12 -15 -21 0 -18 16 -20 23 -2 3
6 4 2 4 -10 -1 -13 -7 -23 -14 -23 -8 0 -12 -12 -12 -32 1 -24 3 -27 6 -10 5
26 23 30 23 5 0 -33 -12 -63 -25 -63 -7 0 -12 -15 -13 -37 -2 -38 -20 -59 -36
-43 -7 7 -6 14 2 22 16 16 15 31 0 22 -10 -6 -10 -4 0 8 7 9 9 18 4 20 -5 1
-6 26 -2 56 3 28 4 52 1 52 -3 0 -6 29 -7 65 0 40 4 65 10 65 6 0 5 4 -3 9
-10 6 -12 21 -8 50 3 23 1 39 -4 35 -9 -5 -11 5 -11 46 0 44 3 51 19 48 26 -5
35 43 11 62 -10 9 -20 29 -22 45 -2 17 -5 32 -6 35 -2 3 -3 13 -4 22 -1 10 -5
18 -11 18 -6 0 -10 -46 -10 -119 0 -66 -2 -118 -6 -116 -10 7 -27 78 -43 180
-8 56 -22 123 -31 150 -25 74 -99 221 -149 295 -44 65 -95 129 -80 100 5 -8
-32 22 -81 68 -183 169 -355 263 -585 320 -180 44 -218 52 -310 62 -167 18
-477 23 -635 11 -171 -13 -705 -34 -711 -28 -2 2 14 17 35 33 62 46 161 131
223 190 l57 54 68 0 c37 0 154 -4 258 -10z m588 -286 c400 -43 644 -119 844
-263 100 -71 214 -186 246 -246 8 -16 32 -47 52 -67 20 -21 34 -42 31 -47 -4
-5 0 -13 7 -18 28 -16 81 -154 102 -263 3 -19 12 -57 20 -85 15 -55 36 -158
41 -192 1 -13 -3 -23 -10 -23 -12 0 -14 -66 -2 -77 3 -4 6 -1 6 5 0 7 5 12 10
12 13 0 11 -419 -1 -435 -4 -6 -6 -25 -5 -43 1 -17 -1 -32 -5 -32 -3 0 -5 -12
-3 -27 1 -15 -3 -36 -9 -47 -7 -12 -12 -25 -13 -31 -6 -93 -98 -319 -183 -451
-41 -64 -159 -167 -290 -253 l-65 -43 -18 24 -19 23 14 -30 c18 -39 13 -51
-31 -72 l-37 -18 33 -5 c31 -5 36 -12 78 -105 60 -132 145 -341 179 -440 14
-44 69 -180 122 -303 52 -123 93 -226 90 -228 -7 -7 -30 34 -165 286 -60 113
-141 265 -181 338 -39 73 -100 191 -136 262 -36 72 -118 224 -182 338 -198
352 -253 452 -253 460 0 4 -14 27 -30 52 -33 50 -36 60 -17 60 18 0 103 129
126 191 41 110 54 196 53 367 -1 179 -12 237 -65 352 -16 36 -46 85 -67 110
-20 25 -35 52 -33 60 4 12 3 13 -5 1 -8 -11 -19 -6 -56 25 -25 21 -46 40 -46
42 0 2 17 -6 37 -18 26 -15 33 -17 23 -5 -8 9 -32 26 -54 37 -23 11 -43 24
-46 28 -3 4 -32 17 -65 29 -54 20 -72 22 -178 17 -65 -3 -127 -10 -137 -16
-10 -5 -36 -11 -57 -12 -34 -1 -35 -2 -7 -5 l31 -4 -1 -602 c-1 -331 1 -627 3
-657 2 -30 0 -63 -4 -72 -11 -27 36 -33 168 -20 127 13 209 39 301 95 l48 30
19 -24 c10 -13 50 -87 90 -164 40 -77 100 -189 134 -250 35 -60 104 -191 155
-290 103 -199 238 -447 310 -570 26 -44 102 -183 170 -310 68 -126 131 -242
141 -256 10 -14 49 -106 88 -205 38 -98 83 -210 99 -249 30 -74 46 -125 37
-125 -2 0 -99 188 -213 418 -188 374 -363 715 -412 797 -10 17 -93 176 -185
355 -92 179 -172 330 -177 335 -15 16 144 -306 267 -540 26 -49 74 -142 107
-205 33 -63 64 -119 68 -125 4 -5 146 -287 316 -625 169 -338 320 -636 335
-662 50 -86 71 -79 -261 -83 -162 -1 -342 -6 -400 -9 -58 -3 -164 -8 -235 -11
l-130 -6 -24 78 c-13 43 -66 204 -117 358 -191 574 -272 845 -293 975 l-10 65
5 -68 c5 -76 -2 -79 -35 -17 -64 124 -71 153 -75 311 -2 82 -1 149 3 149 4 0
13 -6 20 -12 10 -11 12 -9 9 7 -2 14 -13 21 -32 23 l-29 4 6 -127 c8 -150 2
-154 -58 -44 -40 73 -165 212 -165 183 0 -8 -11 -19 -25 -24 -27 -10 -31 -20
-14 -37 8 -8 11 -266 11 -899 l-1 -889 -478 0 -478 0 3 428 2 428 114 227 c63
125 141 277 174 337 32 61 93 174 135 252 74 136 101 197 55 123 -42 -69 -290
-528 -378 -700 -114 -224 -112 -221 -104 -135 8 78 28 125 132 300 36 61 86
148 112 195 111 200 331 578 425 730 45 72 94 158 237 410 l20 35 -25 -29
c-13 -15 -40 -53 -58 -83 -269 -436 -571 -946 -744 -1256 -48 -87 -92 -160
-97 -163 -6 -4 -10 26 -10 72 -1 313 11 1978 15 2104 1 41 -1 89 -4 107 -4 18
-4 35 -1 38 3 3 5 24 4 48 -3 95 -14 741 -16 997 -2 151 -5 281 -7 289 -6 22
39 29 126 19 75 -9 286 -4 540 12 206 13 472 10 618 -6z m7 -819 c59 -12 102
-40 171 -112 145 -149 184 -258 184 -513 0 -143 -4 -176 -24 -250 -16 -56 -33
-94 -50 -110 -36 -36 -176 -72 -262 -68 l-64 3 -2 155 c-6 529 -12 840 -19
874 -6 34 -5 38 12 33 10 -3 35 -9 54 -12z m-249 -482 c1 -21 -2 -53 -5 -71
-5 -28 -3 -34 16 -41 20 -8 21 -10 6 -16 -20 -8 -26 -75 -7 -75 6 0 9 9 6 20
-3 11 -1 23 4 26 5 3 7 10 4 15 -4 5 -1 9 6 9 21 0 38 -34 32 -64 -4 -18 -1
-31 8 -37 10 -6 10 -9 2 -9 -20 0 -15 -17 7 -23 16 -4 20 0 20 18 0 12 -7 28
-15 35 -11 9 -12 16 -2 31 10 17 9 23 -7 35 -18 13 -18 15 1 13 11 -1 22 32
22 68 1 30 2 31 26 20 20 -10 22 -13 7 -17 -19 -6 -21 -15 -25 -125 -4 -90
-13 -119 -34 -111 -13 5 -14 -6 -9 -75 3 -45 10 -87 16 -94 5 -6 7 -15 3 -19
-4 -4 -1 -11 7 -16 8 -6 10 -10 4 -10 -14 0 -17 -66 -4 -90 8 -14 -3 -31 -53
-88 -66 -74 -77 -75 -71 -2 2 36 3 55 5 330 2 264 4 300 11 300 4 0 4 9 0 20
-11 28 -2 118 9 98 5 -9 10 -34 10 -55z m1187 -1431 c31 -54 119 -232 187
-377 25 -55 59 -125 74 -156 21 -40 26 -60 19 -72 -6 -11 -5 -17 2 -17 5 0 10
6 10 14 0 8 4 16 9 18 5 2 -15 52 -44 112 -29 60 -55 121 -58 135 -2 14 -8 34
-12 45 -6 13 -4 17 5 14 13 -4 32 -37 75 -130 14 -32 30 -60 35 -63 5 -3 17
-22 27 -42 9 -20 19 -31 21 -25 2 6 -2 21 -9 34 -11 21 -11 22 4 9 10 -7 17
-21 17 -30 1 -20 45 -93 52 -86 6 6 68 -120 68 -138 0 -7 5 -18 12 -25 9 -9 9
-12 0 -12 -6 0 -14 11 -18 25 -6 26 -34 56 -34 37 0 -6 4 -13 10 -17 5 -3 7
-11 5 -18 -3 -7 5 -23 16 -37 11 -14 17 -19 13 -11 -4 9 -2 12 7 9 7 -2 25
-36 39 -76 14 -39 29 -74 33 -78 10 -10 9 -34 -1 -34 -5 0 -19 23 -31 51 -13
27 -25 48 -27 46 -9 -8 47 -107 60 -107 8 0 18 -10 22 -22 3 -13 22 -56 40
-96 19 -40 34 -74 34 -76 0 -3 15 -37 33 -78 32 -70 61 -138 63 -148 0 -3 4
-14 9 -25 36 -89 36 -88 20 -75 -19 16 -19 9 -1 -35 17 -39 31 -47 21 -12 -5
17 -4 19 4 7 6 -8 8 -24 5 -36 -4 -15 2 -26 19 -37 16 -10 25 -25 25 -42 0
-20 -3 -23 -14 -14 -7 6 -10 18 -7 27 4 13 3 14 -5 4 -7 -10 -14 -4 -30 27
-29 54 -71 121 -77 121 -18 0 103 -198 125 -205 24 -8 24 -7 -92 -163 -43 -57
-78 -110 -78 -118 0 -49 -42 6 -54 72 -3 12 -14 44 -26 71 -11 26 -17 49 -13
50 5 2 -15 53 -44 113 -29 60 -52 113 -51 117 1 5 -8 28 -19 53 -12 25 -25 59
-29 75 -4 17 -11 35 -16 42 -5 7 -7 17 -4 22 4 5 2 12 -3 15 -5 3 -12 17 -15
30 -3 14 -21 58 -40 99 -38 81 -100 236 -101 252 0 6 -9 28 -19 50 -10 22 -42
101 -72 175 -30 74 -58 144 -63 155 -15 31 -71 184 -71 191 0 3 7 4 15 0 20
-7 19 0 -4 21 -23 22 -64 93 -57 100 2 3 12 -9 21 -27 9 -18 19 -30 21 -27 3
3 -9 31 -27 63 -17 33 -41 77 -52 99 -11 22 -24 43 -30 46 -5 4 -7 11 -3 17 3
5 0 12 -8 15 -14 6 -66 126 -66 153 0 9 7 14 16 12 16 -3 45 -85 47 -130 1 -9
3 -15 6 -12 6 5 27 -33 89 -162 58 -121 69 -146 75 -169 3 -11 8 -29 13 -39 5
-14 4 -17 -4 -12 -18 11 -14 -5 4 -19 9 -6 17 -27 19 -46 1 -19 11 -54 22 -79
11 -25 28 -69 38 -99 10 -30 27 -70 37 -88 11 -18 17 -33 12 -33 -4 0 0 -8 9
-17 8 -10 15 -20 15 -23 -2 -9 13 -54 27 -85 7 -16 23 -61 35 -100 20 -66 53
-142 105 -245 13 -25 26 -61 30 -80 4 -19 11 -41 16 -50 8 -16 20 -48 24 -65
6 -25 67 -146 71 -142 3 3 -6 33 -20 67 -14 34 -28 78 -32 96 -3 19 -10 37
-15 40 -5 3 -9 12 -9 21 0 10 4 13 13 7 7 -5 3 0 -8 11 -26 24 -135 256 -160
340 -10 33 -29 86 -42 119 -13 32 -22 60 -19 63 5 5 56 -101 56 -118 0 -17 41
-91 47 -85 3 3 1 11 -4 18 -5 7 -20 40 -33 73 -13 33 -30 71 -37 84 -6 14 -9
29 -6 34 3 6 1 7 -4 4 -16 -10 -44 27 -41 54 2 15 -2 23 -9 22 -7 -2 -16 9
-19 24 -4 15 -13 38 -20 52 -8 14 -14 33 -14 41 0 9 -6 24 -13 35 -8 12 -11
32 -7 50 l6 30 13 -40 c7 -22 17 -44 22 -49 5 -6 9 -20 9 -33 0 -13 4 -23 9
-23 15 0 -31 141 -55 170 -19 23 -74 144 -80 176 -3 15 -10 37 -16 48 -11 20
-10 20 9 4 18 -17 53 -25 53 -13 0 9 -32 71 -99 194 -35 63 -64 120 -65 126
-1 7 -10 25 -20 40 -17 26 -17 28 -1 21 15 -5 16 -4 6 8 -7 8 -9 21 -5 28 5 8
11 2 16 -20 5 -18 21 -53 36 -80z m-1093 -999 c0 -38 4 -99 8 -138 5 -38 10
-97 12 -129 2 -32 9 -64 15 -70 7 -7 9 4 5 39 -3 28 -7 88 -9 135 -2 47 -7 93
-11 102 -4 9 -1 25 5 35 9 14 10 14 7 2 -3 -9 -2 -20 3 -25 10 -10 44 -354 35
-362 -3 -3 -5 4 -5 16 0 11 -4 23 -9 27 -11 6 -5 -52 11 -103 5 -18 8 -36 5
-39 -12 -11 -39 62 -39 106 -1 38 -2 42 -8 19 -12 -40 -7 -103 7 -101 7 2 15
-13 19 -33 7 -36 -1 -60 -11 -30 -3 9 -7 23 -10 32 -11 35 -13 6 -5 -66 5 -41
9 -106 10 -144 0 -68 0 -68 19 -45 14 17 16 31 11 58 -4 20 -10 61 -13 91 -5
49 -5 52 6 28 11 -24 14 -25 24 -10 9 14 12 0 12 -68 l1 -86 -41 -39 c-22 -22
-49 -55 -60 -72 -12 -18 -24 -33 -28 -33 -9 0 -8 71 2 86 4 7 0 17 -8 24 -8 7
-15 9 -15 4 0 -5 -3 -33 -6 -63 -4 -34 -3 -56 4 -60 7 -4 0 -23 -21 -54 -34
-50 -53 -61 -41 -24 4 12 7 31 6 42 -1 16 1 17 8 5 8 -13 10 -13 14 0 9 28 17
165 15 270 -2 137 -2 137 1 335 3 154 4 162 10 85 4 -47 9 -159 11 -250 3
-154 13 -300 18 -255 4 44 1 395 -5 475 -5 65 -4 82 5 74 8 -7 14 -69 17 -175
3 -90 7 -195 8 -234 2 -38 4 -104 5 -145 1 -59 4 -71 12 -56 7 11 9 48 5 100
-4 44 -9 193 -11 329 -3 137 -7 252 -10 257 -4 7 -5 69 -4 183 0 9 3 17 7 17
4 0 7 -30 7 -67z"/>
<path d="M6419 5221 c-32 -32 -38 -75 -19 -142 13 -48 34 -66 55 -49 12 10 19
10 27 2 15 -15 32 -16 23 -2 -3 6 1 10 10 10 9 0 13 -4 10 -10 -4 -6 5 -10 19
-10 14 0 26 4 26 9 0 17 43 20 55 4 18 -25 43 -9 51 32 7 40 -13 96 -54 153
-24 31 -26 32 -99 32 -69 0 -77 -2 -104 -29z m226 -93 c-1 -16 3 -28 8 -28 5
0 7 -5 5 -11 -5 -14 -229 -19 -233 -4 -2 5 -6 25 -9 43 l-6 33 118 -3 117 -3
0 -27z"/>
<path d="M5901 5111 c-38 -5 -49 -12 -76 -51 -58 -84 -69 -174 -28 -216 16
-15 18 -15 35 6 13 16 18 18 18 7 0 -18 61 -28 87 -13 11 6 18 6 21 -2 5 -17
22 -15 22 2 0 8 -8 17 -17 19 -12 3 -9 5 8 6 16 1 29 -5 33 -15 4 -10 15 -14
33 -12 21 2 27 9 30 33 2 17 8 34 14 40 5 5 9 32 9 60 0 42 -6 60 -30 93 -17
23 -36 42 -44 42 -7 0 -26 2 -42 4 -16 2 -49 1 -73 -3z m164 -130 c-15 -58
-29 -76 -65 -79 -26 -2 -31 0 -20 8 11 7 -11 10 -74 10 -102 0 -107 -12 -8
-21 l67 -6 -83 -1 c-93 -2 -97 1 -84 63 l8 40 104 5 c176 9 162 11 155 -19z"/>
<path d="M6737 4190 c-54 -7 -61 -11 -119 -70 l-62 -63 0 -111 c-1 -99 3 -123
32 -216 46 -149 50 -154 99 -158 37 -3 42 -1 51 27 10 27 14 29 44 25 18 -3
69 -9 113 -13 l80 -8 -87 -2 c-55 -1 -88 -5 -88 -12 0 -6 12 -10 28 -9 49 4
48 -3 -3 -10 l-50 -7 65 -1 c38 -1 60 2 52 7 -8 5 17 10 65 14 43 3 79 11 81
16 7 21 49 11 66 -14 16 -24 50 -33 71 -17 6 4 18 30 28 57 46 125 45 173 -5
251 l-30 48 26 18 c33 25 24 48 -19 48 -31 0 -34 4 -55 58 -52 133 -155 171
-383 142z m286 -43 c24 -15 64 -74 55 -82 -2 -1 -37 2 -78 7 -41 5 -126 8
-188 6 l-112 -3 -6 33 c-4 19 -3 37 2 42 15 14 62 18 184 16 92 -1 121 -5 143
-19z m25 -103 c19 -6 72 -85 72 -109 0 -7 -340 -5 -387 2 -30 5 -33 8 -33 40
0 72 3 73 173 73 84 0 162 -3 175 -6z m-437 -66 c7 -13 5 -18 -6 -18 -28 0
-15 -29 17 -38 22 -5 35 -16 39 -33 7 -23 7 -23 8 5 1 26 3 28 29 22 49 -12
355 -18 400 -8 43 10 43 10 66 -26 53 -82 55 -168 6 -203 -23 -15 -48 -16
-258 -12 -259 6 -254 5 -272 76 -6 23 -15 51 -20 62 -18 36 -39 105 -33 105 3
0 1 6 -4 13 -12 14 -16 94 -6 110 4 6 10 1 16 -14 5 -13 13 -32 18 -41z"/>
<path d="M5420 3761 c-101 -14 -155 -57 -192 -153 -20 -51 -26 -57 -58 -63
-47 -9 -53 -14 -39 -31 16 -19 39 -18 39 3 0 12 3 14 11 6 7 -7 -5 -36 -42
-98 -49 -82 -53 -92 -57 -166 -3 -57 -1 -79 7 -79 7 0 23 -25 37 -55 26 -60
60 -83 94 -65 11 6 105 10 219 10 127 0 201 4 201 10 0 10 -183 17 -322 11
-66 -2 -78 0 -78 13 0 14 18 16 133 15 87 0 125 -3 112 -9 -19 -9 78 -8 144 2
20 2 26 -3 33 -29 7 -29 13 -33 41 -33 44 0 59 12 62 49 2 33 35 80 35 51 0
-9 7 -7 23 8 13 12 30 22 39 22 16 0 48 31 48 46 0 5 -6 2 -13 -7 -15 -19 -73
-49 -107 -55 l-25 -5 24 25 c14 14 19 26 12 26 -8 0 -9 5 -2 18 5 9 9 19 8 22
-1 3 7 15 18 27 16 19 19 40 19 155 l1 132 -32 39 c-18 21 -42 56 -55 78 -31
55 -81 76 -193 83 -49 2 -115 1 -145 -3z m263 -40 c6 -6 12 -29 13 -50 2 -37
1 -38 -16 -21 -12 12 -41 20 -89 25 -84 8 -281 -3 -298 -17 -25 -20 -13 9 15
35 16 15 48 32 73 37 58 12 288 5 302 -9z m-23 -91 c20 -11 54 -105 44 -121
-3 -5 -108 -9 -235 -9 -261 0 -248 -6 -204 88 l24 52 176 0 c100 0 184 -4 195
-10z m69 -215 c-9 -93 -20 -115 -60 -115 -10 0 -21 -5 -25 -12 -5 -8 5 -9 34
-5 23 3 42 1 42 -4 0 -14 -46 -29 -90 -29 -21 0 -42 -5 -46 -11 -4 -8 16 -10
67 -7 l74 3 12 55 c6 30 13 88 15 130 3 72 4 75 28 75 22 0 25 -5 28 -37 2
-25 -5 -52 -22 -85 -14 -26 -26 -62 -26 -79 0 -17 -7 -51 -16 -77 -16 -47 -34
-62 -34 -29 -1 16 -1 16 -11 0 -9 -16 -33 -18 -270 -18 -159 0 -268 4 -280 10
-24 14 -49 61 -49 96 l0 27 28 -28 c38 -38 102 -60 102 -35 0 6 -5 10 -11 10
-18 0 -109 62 -108 74 0 6 9 25 20 41 10 17 28 48 40 70 l21 40 259 0 c242 0
261 1 271 18 5 10 11 17 12 15 2 -2 -1 -43 -5 -93z"/>
<path d="M5185 3320 c16 -16 39 -30 51 -30 35 0 54 -11 54 -30 0 -15 14 -18
107 -24 l106 -7 29 31 c15 17 28 33 28 36 0 2 -74 4 -164 4 -161 0 -165 1
-194 25 -41 35 -52 31 -17 -5z"/>
<path d="M8404 7949 c-2 -3 33 -9 77 -12 44 -3 83 -8 87 -11 3 -4 -39 -52 -94
-109 -55 -56 -114 -119 -132 -140 -21 -24 -39 -37 -48 -33 -13 5 -14 -82 -10
-717 3 -397 7 -742 10 -767 11 -91 14 -177 7 -189 -4 -6 -21 -15 -37 -20 -16
-4 -36 -19 -44 -34 -14 -26 -13 -28 28 -70 l43 -44 -50 -48 c-66 -63 -66 -81
3 -140 61 -53 65 -67 71 -258 3 -108 3 -108 -27 -142 -19 -23 -28 -43 -26 -59
1 -14 -6 -33 -17 -46 -25 -28 -10 -53 36 -60 l34 -5 0 -140 c-2 -532 -17
-1736 -22 -1765 -3 -19 -6 -39 -5 -43 2 -4 4 -71 7 -148 l4 -139 -35 0 c-21 0
-33 -4 -29 -10 3 -5 19 -10 36 -10 16 0 29 -5 29 -11 0 -7 -14 -9 -40 -5 -21
3 -42 1 -45 -4 -4 -6 14 -10 44 -10 34 0 51 -4 52 -12 1 -7 2 -20 3 -28 2 -8
3 -27 4 -42 1 -16 7 -28 13 -28 8 0 10 17 6 53 -3 30 -2 58 1 63 4 5 99 10
212 10 478 3 941 2 1020 -1 298 -13 454 -17 450 -13 -5 5 -166 17 -250 19 -39
0 -42 1 -21 10 14 6 144 9 305 9 296 -2 656 7 664 15 3 2 -1 11 -7 19 -10 12
-5 16 32 21 25 4 53 5 63 2 11 -3 5 -5 -14 -6 -18 0 -31 -5 -28 -10 4 -5 -3
-7 -14 -4 -22 6 -28 -12 -7 -20 8 -3 35 -1 60 5 33 7 44 13 40 24 -4 11 5 14
38 16 24 0 58 2 74 3 17 2 36 -2 43 -8 10 -8 16 -7 21 2 4 6 12 11 17 10 19
-3 34 1 34 10 0 6 -19 11 -42 13 -41 4 -42 4 -18 15 25 12 25 12 -7 12 -32 1
-165 20 -192 27 -33 10 5 15 120 15 74 1 114 4 98 9 -23 7 -142 19 -193 20
-11 0 -16 3 -12 7 3 4 57 9 119 11 61 2 119 7 127 12 10 6 7 8 -10 8 -135 -3
-430 6 -430 12 0 12 43 20 69 13 13 -3 26 -1 30 5 8 14 80 22 87 11 3 -5 -2
-9 -10 -9 -9 0 -16 -5 -16 -11 0 -7 9 -9 23 -6 12 4 51 9 87 12 36 4 79 8 95
10 17 1 43 3 59 4 44 2 28 8 -34 15 -30 4 -77 10 -105 14 -27 4 -87 7 -132 6
-46 0 -83 3 -83 7 0 5 14 19 31 31 56 41 146 164 193 262 100 208 138 336 200
661 15 77 33 160 41 185 24 81 10 333 -32 550 -14 74 -27 145 -28 157 -5 41
-27 95 -66 164 -22 38 -39 73 -39 78 0 37 -202 291 -231 291 -5 0 -9 5 -9 10
0 14 28 12 32 -2 3 -9 11 -8 29 4 39 26 74 62 77 78 5 20 22 40 34 40 6 0 5
-8 -2 -17 -7 -10 4 -1 24 20 40 41 51 45 60 21 8 -22 9 -20 -25 -34 -17 -7
-26 -16 -20 -19 15 -10 0 -25 -43 -45 -29 -14 -35 -20 -25 -27 15 -9 7 -12
-28 -9 -13 1 -23 -3 -23 -9 0 -6 6 -8 13 -5 8 3 20 -2 27 -11 7 -8 8 -15 3
-15 -5 0 -15 -11 -21 -25 -8 -17 -8 -25 -1 -25 18 0 139 133 161 177 l21 43
-62 65 c-69 72 -68 66 -25 162 27 59 30 95 10 112 -14 12 -9 62 9 91 4 7 9 38
11 69 1 31 5 74 8 96 3 22 10 81 16 130 6 50 14 115 18 145 9 60 7 234 -3 290
-3 19 -13 54 -22 78 -12 32 -13 46 -5 54 9 9 12 9 12 0 0 -7 4 -12 10 -12 5 0
7 7 4 15 -4 8 -12 15 -20 15 -8 0 -14 7 -14 15 0 9 6 12 16 8 12 -4 8 10 -15
54 -16 33 -38 90 -47 126 -10 37 -22 67 -27 67 -4 0 -6 4 -3 9 3 5 -3 20 -14
34 -11 14 -20 29 -19 34 4 16 -20 59 -70 126 -28 37 -46 67 -41 67 5 0 25 -9
44 -21 20 -12 36 -18 36 -15 0 3 -33 24 -72 47 -40 23 -96 66 -124 96 -51 55
-77 71 -251 159 -51 25 -91 50 -88 54 6 10 7 10 -165 50 -74 18 -151 38 -170
45 -47 18 -265 49 -279 40 -7 -4 -19 -1 -28 7 -9 7 -14 8 -10 2 4 -7 -40 -9
-151 -6 -259 6 -1114 7 -1118 1z m296 -33 c19 -3 177 -6 350 -7 173 -2 376 -6
450 -10 74 -5 178 -9 230 -10 52 -1 100 -4 105 -8 13 -7 28 -10 98 -20 32 -4
62 -13 66 -19 3 -6 20 -10 37 -10 16 1 88 -16 159 -37 207 -60 339 -138 473
-280 45 -47 94 -107 109 -133 15 -26 43 -72 63 -102 31 -48 55 -110 99 -260
18 -59 29 -130 21 -135 -4 -2 -13 15 -19 38 -7 23 -17 50 -22 59 -12 24 -11
31 3 22 7 -4 8 -3 4 5 -4 6 -12 9 -17 6 -8 -6 -13 8 -6 20 1 2 -7 11 -18 19
-11 9 -16 16 -11 16 5 0 -6 10 -25 23 -23 16 -33 30 -32 45 2 12 -2 22 -7 22
-6 0 -10 5 -10 11 0 26 -249 238 -286 243 -7 1 -18 7 -25 12 -16 13 -49 25
-49 19 0 -2 20 -18 45 -35 25 -17 65 -49 88 -71 23 -21 48 -37 55 -34 7 3 10
0 7 -5 -3 -6 0 -10 9 -10 16 0 81 -64 82 -83 2 -21 22 -65 34 -72 25 -16 150
-299 137 -312 -2 -2 -20 34 -41 80 -40 91 -149 263 -199 316 -50 52 -164 142
-252 197 -241 154 -415 214 -655 228 -148 9 -136 9 -750 -4 -305 -7 -574 -12
-597 -12 -24 0 -43 -3 -43 -8 0 -14 56 -22 104 -15 24 4 50 4 56 0 7 -4 281
-8 609 -9 495 -2 616 -5 712 -19 64 -9 127 -21 140 -26 13 -6 53 -18 89 -26
197 -48 405 -169 546 -317 78 -82 154 -217 204 -362 16 -44 38 -105 49 -135
11 -30 23 -79 26 -110 4 -31 8 -71 10 -88 2 -18 7 -78 11 -133 l6 -100 -57 26
c-39 18 -65 24 -83 19 -72 -17 -82 -18 -82 -1 0 9 -12 21 -26 26 -17 7 -24 15
-20 25 4 11 -2 15 -19 15 -29 0 -95 -30 -95 -43 0 -5 -7 -6 -16 -3 -15 6 -31
-4 -94 -55 -23 -19 -22 -19 12 1 21 12 42 19 47 15 16 -9 61 6 61 21 0 17 47
41 57 30 4 -4 1 -11 -7 -16 -8 -5 -12 -10 -10 -12 40 -26 53 -29 61 -17 4 8
11 10 15 6 4 -3 1 -13 -6 -22 -15 -18 -7 -31 12 -19 7 5 24 10 38 11 14 1 45
4 70 8 38 6 51 3 80 -17 42 -28 50 -60 20 -81 -18 -13 -20 -19 -11 -36 8 -13
8 -27 3 -38 -5 -10 -7 -24 -5 -30 3 -8 -4 -13 -17 -13 -12 0 -19 -4 -16 -9 7
-11 -30 -44 -79 -70 -44 -23 -55 -26 -55 -11 0 6 7 10 15 10 8 0 15 4 15 8 0
5 21 19 47 32 26 13 42 25 35 28 -10 3 -10 7 0 20 10 14 10 15 -2 5 -21 -19
-35 -16 -19 4 8 9 0 6 -19 -7 -18 -13 -31 -29 -29 -34 4 -13 -24 -46 -35 -40
-4 3 -8 0 -8 -5 0 -20 -31 -11 -55 17 -13 15 -24 23 -24 17 0 -17 58 -75 76
-75 15 0 14 -2 -3 -15 -39 -29 3 -14 53 20 29 19 55 35 59 35 15 0 84 -34 84
-42 0 -15 -59 -184 -83 -238 -25 -55 -104 -170 -117 -170 -14 0 -32 29 -25 40
3 6 9 8 13 6 4 -2 13 2 20 10 10 11 10 14 1 14 -7 0 -2 12 12 26 23 26 23 26
2 20 -16 -5 -23 -2 -28 15 -5 16 1 30 27 57 31 34 30 34 -20 -7 -28 -24 -50
-47 -47 -52 6 -9 -36 -72 -43 -64 -3 2 3 17 13 32 17 27 16 26 -17 -5 -28 -26
-39 -31 -57 -24 -22 8 -22 9 16 38 21 16 41 28 44 27 10 -3 91 69 85 75 -3 3
-15 -3 -26 -13 -12 -11 -28 -20 -37 -21 -8 -2 -25 -11 -37 -22 -11 -10 -36
-29 -54 -41 l-32 -22 -37 30 c-21 17 -43 31 -49 31 -6 0 -17 6 -24 14 -13 17
-40 10 -40 -10 0 -10 7 -13 23 -9 16 5 31 -2 53 -22 16 -15 44 -41 63 -56 27
-22 32 -33 28 -54 -4 -19 2 -36 18 -55 13 -16 23 -38 21 -52 -2 -18 -46 -67
-85 -93 -2 -1 1 -9 8 -17 9 -11 7 -15 -11 -19 -12 -4 -24 -4 -27 -2 -2 3 1 5
7 5 7 0 12 5 12 12 0 9 -3 9 -12 -1 -7 -6 -13 -17 -13 -24 0 -7 -12 -12 -28
-11 -15 1 -27 0 -27 -2 0 -1 44 -32 98 -68 106 -70 244 -201 293 -276 17 -27
31 -52 30 -57 -1 -11 -41 -13 -41 -2 0 5 -7 9 -15 9 -8 0 -15 5 -15 12 0 6 -6
3 -14 -7 -12 -17 -18 -18 -54 -7 -39 12 -72 8 -72 -8 0 -11 37 -23 48 -16 4 2
14 1 22 -4 13 -8 12 -14 -3 -43 -10 -18 -15 -41 -11 -50 3 -10 1 -17 -5 -17
-6 0 -11 -4 -11 -10 0 -5 -22 -30 -50 -56 -27 -26 -50 -53 -50 -61 0 -11 -37
-33 -56 -33 -13 0 -1 31 16 40 11 6 18 15 15 20 -4 6 1 7 11 3 14 -5 16 -3 11
11 -5 12 1 22 23 34 16 9 30 23 30 30 0 6 6 12 14 12 8 0 16 7 20 15 3 8 1 15
-5 15 -5 0 -1 12 8 27 16 24 8 21 -52 -21 -38 -28 -73 -54 -77 -60 -4 -6 -10
-7 -14 -3 -4 4 -13 2 -21 -5 -7 -6 -16 -8 -20 -5 -3 4 9 13 28 21 19 8 61 40
94 71 l60 57 -74 -56 c-41 -31 -79 -56 -84 -56 -6 0 -24 -11 -41 -23 -33 -26
-76 -50 -76 -44 0 2 22 19 49 38 27 18 47 37 45 41 -3 4 2 8 11 8 10 0 13 5 9
12 -4 6 -3 8 3 5 13 -8 53 20 53 37 0 8 10 21 23 30 20 15 20 17 2 11 -13 -3
-5 7 20 29 22 20 35 35 28 36 -13 0 -102 -69 -168 -130 -22 -20 -55 -47 -73
-60 -18 -12 -31 -25 -27 -28 3 -3 27 9 53 27 43 30 42 28 -18 -28 -66 -61 -83
-70 -96 -49 -7 11 54 73 110 111 15 10 25 24 23 30 -2 6 13 20 32 30 53 29
200 150 155 128 -11 -5 -26 -17 -34 -25 -7 -9 -17 -16 -22 -16 -6 0 -22 -8
-36 -19 -22 -15 -29 -16 -39 -6 -6 7 -9 16 -5 20 4 4 -3 3 -15 -4 -31 -16 -36
-14 -30 10 5 19 4 20 -12 5 -10 -9 -25 -14 -35 -10 -27 10 -27 10 84 100 79
64 119 104 105 104 -11 0 -72 -45 -112 -83 -32 -30 -58 -32 -33 -2 8 10 9 15
1 15 -6 0 -11 5 -11 11 0 6 10 8 23 5 12 -3 16 -3 10 0 -16 7 2 44 21 44 8 0
19 7 26 15 11 13 7 13 -26 -1 -21 -9 -45 -25 -52 -35 -7 -10 -20 -19 -28 -19
-8 0 -14 -4 -14 -10 0 -5 5 -10 11 -10 7 0 9 -10 5 -27 -16 -66 -29 -84 -95
-122 -36 -22 -68 -38 -70 -36 -2 2 9 18 23 36 15 17 25 34 22 36 -6 6 -47 -16
-73 -40 -25 -22 -29 -17 -12 15 16 30 21 80 6 71 -29 -18 -47 -39 -47 -55 0
-9 -9 -22 -20 -28 -24 -13 -26 -3 -3 22 20 22 5 24 -25 2 -13 -9 -25 -14 -28
-11 -3 3 10 14 29 26 19 12 42 33 51 46 19 29 15 32 -9 8 -12 -11 -19 -13 -24
-5 -5 8 -18 4 -43 -13 -21 -14 -41 -25 -47 -25 -5 0 -11 -6 -14 -12 -2 -7 -8
-10 -12 -5 -9 7 12 26 55 49 13 7 42 31 65 53 22 22 62 53 88 68 49 27 57 27
136 6 7 -2 16 2 18 9 3 7 -5 12 -21 12 -14 0 -26 5 -26 11 0 6 -9 8 -21 4 -19
-6 -20 -5 -8 8 10 10 18 12 26 5 8 -7 20 -4 37 9 14 10 26 21 26 24 0 9 -82
29 -119 29 -17 0 -31 5 -31 10 0 6 -10 10 -22 10 -22 1 -23 1 -4 15 19 15 19
15 -5 15 -24 1 -23 1 9 31 19 17 32 31 30 33 -1 1 -19 -3 -38 -10 -19 -7 -29
-13 -21 -13 19 -1 -69 -72 -131 -105 -46 -25 -50 -26 -34 -7 11 11 23 21 28
21 5 0 28 15 51 33 23 19 51 37 62 41 16 6 17 9 5 16 -12 7 -10 11 10 19 14 5
18 10 10 10 -8 1 -23 -8 -35 -19 -30 -29 -77 -70 -81 -70 -8 0 -3 9 12 25 33
32 3 28 -33 -6 -39 -36 -26 -11 15 30 18 18 26 20 32 11 5 -9 9 -9 14 -1 4 6
2 11 -3 11 -6 0 -11 5 -11 11 0 5 8 9 18 8 32 -3 42 1 42 15 0 8 12 29 27 46
l27 32 -47 -33 -46 -32 -36 19 c-19 10 -35 21 -35 25 0 6 37 57 50 69 35 33
23 34 -18 2 -51 -40 -97 -61 -108 -49 -5 5 7 22 72 96 17 20 37 47 43 61 12
24 11 24 -4 5 -82 -104 -102 -124 -117 -121 -10 2 -15 -1 -12 -9 3 -7 1 -16
-5 -20 -6 -3 -11 2 -11 12 0 15 -2 16 -10 3 -5 -8 -12 -11 -16 -8 -3 4 12 45
35 92 49 101 52 117 9 50 -17 -27 -39 -58 -49 -69 -10 -11 -18 -23 -18 -27 -1
-5 -4 -7 -8 -5 -5 1 -7 4 -6 7 1 3 5 14 9 24 5 14 4 17 -4 12 -7 -4 -12 -13
-12 -20 0 -8 -7 -20 -16 -27 -15 -12 -16 -11 -10 11 4 14 20 51 35 83 22 45
24 53 9 40 -10 -9 -33 -45 -50 -81 -31 -62 -32 -63 -44 -40 -10 17 -13 19 -14
6 0 -23 -18 -32 -36 -17 -17 14 -13 31 33 123 18 38 32 70 30 72 -2 2 -25 -34
-52 -81 -26 -47 -51 -82 -56 -80 -4 3 -6 12 -2 20 6 17 -12 21 -22 5 -9 -15
-18 -12 -45 13 -14 13 -34 26 -45 29 -11 3 -28 9 -37 13 -38 15 -16 -15 32
-44 65 -40 66 -65 8 -126 -48 -50 -58 -54 -58 -24 0 19 -2 19 -22 5 -20 -14
-23 -14 -36 5 -8 12 -11 31 -7 52 l6 32 -18 -23 c-10 -13 -31 -38 -47 -55
l-28 -32 20 37 c18 32 19 37 5 42 -9 4 -18 4 -21 1 -3 -3 0 -5 6 -5 7 0 12 -5
12 -11 0 -6 -10 -8 -22 -5 -13 3 -17 3 -10 0 19 -9 15 -22 -20 -60 -28 -31
-33 -33 -47 -20 -8 9 -11 19 -7 23 4 4 11 1 16 -7 6 -8 10 -12 10 -8 0 3 3 14
7 24 4 12 3 15 -5 10 -8 -5 -10 -1 -5 11 4 10 9 20 13 23 3 3 22 28 40 55 19
28 26 44 16 36 -9 -8 -24 -27 -32 -42 -8 -16 -35 -43 -62 -60 -26 -18 -48 -36
-50 -41 -7 -15 -30 -8 -62 18 -38 32 -49 25 -23 -13 11 -15 23 -33 26 -40 11
-18 -41 -73 -68 -73 -13 0 -27 -5 -30 -10 -9 -14 -27 -1 -18 13 3 7 -3 4 -14
-6 -23 -20 -39 -11 -21 12 7 9 1 6 -13 -6 -15 -14 -29 -19 -35 -14 -5 6 -19 1
-36 -14 -15 -13 -22 -25 -16 -27 8 -3 7 -11 -2 -28 l-13 -25 24 21 c17 16 36
22 67 21 l43 -2 -42 -37 c-59 -52 -41 -48 31 9 33 25 63 43 68 38 4 -4 1 -10
-5 -12 -7 -3 -13 -10 -13 -16 0 -8 4 -7 12 1 7 7 20 12 31 12 10 0 25 7 33 15
18 18 11 19 -19 4 l-22 -10 22 19 c12 11 35 31 51 44 16 13 31 29 33 36 3 7 9
8 19 2 12 -8 11 -13 -8 -33 -12 -13 -20 -26 -16 -29 3 -4 -16 -26 -41 -50 -26
-23 -70 -64 -98 -90 -48 -46 -67 -57 -67 -40 0 4 6 14 13 21 10 11 9 12 -1 6
-7 -4 -17 -18 -22 -31 -13 -32 -29 -30 -83 11 -38 29 -47 32 -57 20 -16 -19
-59 -10 -83 17 -10 12 -20 18 -23 15 -10 -10 7 -47 22 -47 8 0 14 -3 14 -8 0
-4 19 -7 43 -7 35 0 42 -3 40 -19 -1 -13 2 -15 10 -7 15 15 22 14 54 -12 29
-24 68 -43 59 -29 -3 4 4 13 15 20 23 14 24 5 3 -23 -17 -22 -65 -29 -57 -8 3
7 -2 13 -11 13 -9 0 -15 -3 -15 -7 3 -21 -3 -33 -17 -33 -9 0 -34 -14 -55 -31
-54 -43 -49 -27 11 34 27 28 48 52 45 55 -4 4 -144 -133 -228 -223 -66 -71
-86 -89 -93 -82 -4 4 2 21 15 37 12 17 17 30 11 30 -22 0 -7 19 55 69 36 28
63 56 60 61 -3 5 22 32 55 61 33 29 58 54 56 57 -3 2 -36 -22 -73 -55 -37 -32
-87 -71 -111 -86 -23 -15 -40 -32 -37 -36 2 -5 -2 -14 -10 -21 -9 -8 -15 -8
-15 -2 0 6 6 13 13 16 6 3 2 3 -10 0 -26 -6 -31 14 -10 35 10 10 8 11 -8 5
-18 -6 -18 -5 -5 8 20 20 70 40 70 28 0 -5 -8 -14 -17 -19 -10 -6 -13 -11 -7
-11 6 0 19 9 28 19 17 18 17 21 1 45 -10 14 -21 26 -26 26 -20 0 -7 18 26 36
19 10 37 24 40 31 4 11 0 11 -18 1 -12 -6 -45 -12 -74 -13 -34 0 -58 -7 -71
-19 -16 -13 -31 -16 -66 -12 -58 6 -62 9 -70 48 -3 18 -8 44 -11 58 -11 57 11
86 97 130 44 22 83 38 87 35 3 -3 1 -9 -5 -13 -6 -4 -17 -18 -23 -32 -8 -16 1
-9 24 18 21 23 43 42 51 42 27 0 25 -22 -5 -51 -17 -16 -31 -35 -31 -41 0 -7
17 4 38 24 20 20 49 41 65 47 15 6 27 16 27 22 0 6 -7 8 -15 5 -9 -3 -24 0
-35 6 -14 9 -16 16 -9 31 6 10 13 42 15 70 4 41 12 59 37 86 l32 34 -35 -23
c-19 -13 -45 -32 -57 -43 -40 -35 -25 -5 19 40 23 24 38 43 32 43 -6 0 -33
-25 -59 -55 -27 -30 -56 -55 -64 -55 -11 0 -10 5 4 21 19 20 19 20 -8 10 -18
-7 -28 -7 -33 0 -11 19 84 139 110 139 7 0 27 16 46 35 19 19 30 35 26 35 -15
0 -69 -45 -145 -121 -45 -45 -91 -82 -113 -89 -33 -12 -35 -15 -25 -37 9 -20
15 -23 41 -17 17 3 35 10 41 15 11 11 25 12 25 1 0 -4 -13 -13 -29 -19 -34
-12 -34 -26 -4 -69 l22 -30 -35 -28 c-21 -17 -43 -26 -54 -23 -11 3 -21 -1
-24 -9 -3 -8 -10 -14 -16 -14 -6 0 -10 43 -10 118 1 114 1 117 26 136 21 15
28 16 34 6 7 -11 13 -10 34 3 31 21 55 60 31 51 -28 -11 -15 21 29 69 26 27
53 47 65 47 24 0 28 18 6 26 -9 4 -30 -7 -50 -25 -20 -17 -40 -31 -46 -31 -6
0 -8 -4 -4 -9 3 -5 -6 -22 -21 -38 -14 -15 -23 -22 -19 -15 9 17 -3 15 -21 -3
-17 -16 -44 -20 -44 -6 0 4 34 34 75 66 42 32 73 60 70 63 -3 3 -19 -4 -35
-16 -42 -32 -48 -27 -14 11 l29 32 -30 -26 c-16 -14 -42 -33 -57 -42 -16 -10
-28 -23 -28 -29 0 -6 10 -2 23 10 13 12 27 22 31 22 4 0 -14 -20 -40 -45 -25
-25 -48 -45 -50 -45 -3 0 -2 12 0 28 3 15 24 44 46 64 23 21 39 42 35 48 -7
11 -34 -12 -60 -52 -9 -16 -21 -28 -26 -28 -5 0 -3 12 4 28 8 15 11 38 8 52
-4 14 -6 63 -6 110 0 75 2 85 18 82 10 -2 17 3 17 12 0 8 6 16 13 19 9 3 8 8
-3 22 -14 17 -13 18 18 12 32 -6 40 0 23 19 -5 5 -11 22 -13 39 -3 26 1 31 29
40 17 6 40 18 50 27 14 13 29 16 55 12 44 -8 57 10 19 26 -36 15 -56 53 -35
70 8 7 14 18 14 25 0 17 44 45 70 45 11 0 29 -9 41 -21 18 -18 24 -19 49 -9
16 7 40 26 53 44 13 17 49 57 80 88 32 33 51 61 45 64 -6 4 -48 -33 -93 -81
l-83 -89 -25 17 -26 17 51 48 51 49 -33 -5 c-28 -4 -32 -2 -27 12 4 10 3 15
-3 11 -20 -12 -9 7 18 32 l27 25 -30 -17 c-16 -10 -36 -25 -44 -34 -9 -11 -15
-12 -18 -4 -3 9 -12 9 -31 2 l-27 -10 30 32 30 32 -39 -26 c-22 -14 -43 -24
-48 -21 -19 12 -5 34 37 62 41 27 48 42 20 42 -17 0 -105 -79 -105 -94 0 -7 9
-21 21 -32 26 -23 108 -26 126 -4 6 9 15 11 20 6 4 -5 2 -11 -4 -13 -7 -3 -13
-11 -13 -18 0 -38 -25 -64 -85 -90 -82 -35 -98 -52 -91 -101 6 -32 2 -42 -20
-65 -15 -16 -43 -34 -61 -40 -32 -10 -34 -14 -32 -51 3 -36 -9 -57 -32 -58 -4
0 -10 327 -13 728 -4 400 -9 759 -11 797 l-5 70 88 90 c48 50 107 107 130 128
23 21 42 46 42 56 0 28 38 62 63 57 12 -3 38 -7 57 -10z m659 -2642 c5 -6 25
-36 46 -67 43 -64 55 -67 31 -8 -17 45 -12 79 9 61 10 -8 15 -8 18 2 2 7 3 4
1 -6 -2 -11 6 -51 17 -90 12 -39 23 -85 25 -103 2 -17 11 -50 19 -74 17 -48
15 -57 -9 -34 -9 10 -16 12 -16 5 0 -11 10 -38 72 -197 11 -29 24 -51 28 -48
10 6 -1 48 -25 99 -10 20 -15 39 -12 42 6 6 47 -81 47 -100 0 -6 10 9 21 34
13 30 18 53 13 70 -4 14 -7 28 -6 32 1 4 -5 5 -13 2 -9 -4 -15 0 -15 10 0 9
-4 16 -9 16 -5 0 -11 6 -14 14 -4 10 4 13 33 12 37 -1 38 -2 23 -18 -19 -21
-8 -25 12 -4 21 20 109 193 145 285 18 45 36 81 40 81 21 0 17 -89 -6 -145 -4
-11 22 12 59 50 37 39 67 65 67 59 0 -6 -9 -19 -20 -29 -11 -10 -20 -23 -20
-30 0 -6 -6 -17 -12 -23 -7 -7 -13 -16 -13 -20 0 -4 -12 -23 -27 -43 -29 -37
-158 -284 -158 -301 0 -5 -6 -16 -14 -23 -7 -8 -25 -58 -39 -112 -34 -126 -36
-142 -42 -238 -3 -44 -8 -111 -11 -150 -18 -193 1 -575 28 -575 5 0 7 8 4 18
-14 47 -17 90 -7 96 7 5 11 -4 11 -23 0 -16 4 -41 9 -55 7 -18 6 -28 -4 -36
-17 -14 -12 -53 25 -187 55 -196 107 -267 193 -262 56 3 98 -7 153 -38 25 -14
48 -22 51 -19 6 6 -55 66 -67 66 -4 0 -20 12 -36 26 -18 16 -22 22 -9 16 100
-47 136 -66 140 -72 3 -5 14 -6 25 -3 14 4 20 0 20 -11 0 -17 25 -22 34 -7 3
4 18 6 33 3 16 -2 25 -2 22 2 -3 3 -19 7 -36 9 -17 2 -42 12 -56 23 -14 10
-42 30 -61 44 -19 14 -38 31 -40 38 -6 14 21 29 32 17 4 -4 1 -10 -6 -12 -26
-10 2 -23 49 -23 33 0 48 -4 47 -12 -3 -13 12 -16 106 -23 32 -3 77 -10 100
-17 22 -6 50 -13 61 -14 29 -3 80 -12 80 -14 0 -1 21 -3 48 -5 98 -5 32 20
-77 30 -77 6 -132 28 -120 47 7 11 66 0 75 -14 4 -7 9 -6 13 1 4 6 20 11 37
11 16 0 29 5 29 10 0 11 -10 12 -160 10 l-85 -1 30 21 c28 20 28 21 5 14 -14
-3 -37 -13 -52 -20 -15 -8 -29 -14 -33 -14 -11 0 -4 28 10 40 30 25 6 21 -39
-5 -50 -29 -59 -21 -25 27 29 40 14 50 -17 10 -26 -32 -58 -44 -48 -18 3 8 1
23 -5 33 -10 17 -11 16 -17 -4 -4 -15 -14 -23 -28 -23 -12 0 -26 -4 -32 -10
-16 -16 -82 8 -117 44 -57 58 -150 278 -106 250 17 -10 136 120 160 174 11 26
24 56 29 67 17 38 41 199 42 275 1 96 -29 254 -68 349 -33 81 -33 86 -17 103
16 15 24 15 61 5 42 -11 57 -27 26 -27 -14 0 -14 -3 -3 -16 26 -32 83 -52 141
-50 66 2 98 24 98 68 0 33 9 35 43 8 29 -23 48 -25 65 -8 9 9 18 6 37 -12 21
-19 35 -24 72 -22 53 2 67 12 94 64 12 24 26 38 39 38 32 0 70 60 66 104 -4
53 17 74 87 87 73 13 81 7 130 -99 51 -109 128 -384 127 -451 -1 -32 -28 48
-40 117 -6 40 -16 74 -21 78 -5 3 -9 1 -9 -4 0 -13 48 -265 60 -319 15 -62 12
-232 -5 -320 -8 -43 -24 -124 -35 -181 -22 -116 -54 -197 -73 -185 -7 4 -7 1
2 -10 11 -14 11 -18 -3 -23 -9 -3 -13 -10 -10 -15 3 -5 1 -9 -5 -9 -5 0 -13
-10 -16 -22 -27 -91 -207 -309 -269 -327 -19 -5 -43 -18 -55 -30 -25 -25 -28
-40 -3 -19 9 8 26 18 37 22 17 6 16 4 -5 -19 -17 -18 -31 -24 -46 -21 -14 4
-35 -5 -65 -28 -76 -59 -359 -139 -584 -166 -96 -11 -406 -30 -415 -25 -3 1
-104 6 -225 10 -121 3 -250 8 -287 10 -124 8 -407 9 -414 2 -4 -4 27 -7 69 -7
45 0 77 -4 77 -10 0 -6 -62 -10 -165 -10 -179 0 -182 0 -176 15 1 6 5 327 7
715 2 388 3 711 4 718 0 7 5 10 10 7 6 -3 10 -1 10 4 0 6 -6 11 -13 11 -10 0
-13 18 -13 65 0 36 2 65 5 65 3 0 4 136 3 301 -4 290 -3 302 15 294 10 -4 30
-9 44 -10 44 -4 69 -16 69 -31 0 -8 7 -14 16 -14 14 0 14 -3 4 -15 -8 -10 -9
-15 -1 -15 6 0 8 -11 5 -29 -5 -22 -1 -35 15 -52 25 -27 26 -37 6 -59 -15 -17
-11 -50 6 -50 5 0 9 -7 9 -15 0 -8 6 -15 13 -15 39 0 209 40 228 54 32 22 76
21 83 -2 11 -33 63 -75 83 -67 10 5 24 7 32 6 8 -2 12 3 8 12 -3 8 20 41 59
82 36 37 63 70 60 73 -3 3 -1 11 4 17 15 18 -45 14 -62 -3 -17 -17 10 -36 29
-20 26 21 12 -9 -14 -33 -16 -13 -22 -17 -15 -9 14 17 16 34 2 25 -5 -3 -10
-1 -10 4 0 6 -5 11 -11 11 -6 0 -8 -7 -5 -17 4 -10 -3 -27 -21 -47 -15 -17
-20 -24 -10 -17 11 9 17 10 17 2 0 -6 -5 -11 -10 -11 -6 0 -22 -11 -36 -25
-21 -21 -29 -23 -40 -14 -15 12 -19 49 -6 49 5 0 50 41 102 90 87 85 109 116
62 91 -29 -16 -36 -14 -17 5 9 9 14 19 11 21 -7 7 -66 -29 -61 -37 7 -11 -83
-93 -94 -86 -6 4 -19 2 -28 -4 -17 -11 -17 -11 0 -6 9 3 17 1 17 -4 0 -6 -2
-10 -4 -10 -2 0 -11 -3 -20 -6 -25 -10 -19 20 9 44 29 26 39 28 31 7 -10 -26
8 -17 49 25 43 44 37 56 -7 13 -15 -14 -31 -24 -34 -20 -10 10 41 54 88 76 38
17 50 18 82 9 l37 -12 -33 -33 c-17 -18 -28 -36 -24 -40 4 -4 20 7 34 25 19
23 33 31 45 26 21 -8 21 -11 2 -31 -21 -20 -32 -9 -14 14 11 15 10 15 -9 -1
-22 -19 -31 -43 -12 -31 33 20 -25 -67 -88 -132 -47 -49 -49 -53 -26 -53 32 0
32 -27 -1 -42 -14 -6 -24 -16 -22 -22 7 -21 28 -17 55 11 22 25 33 29 63 25
30 -3 38 0 52 22 11 17 27 26 43 26 17 0 28 7 31 20 3 11 10 20 17 20 8 0 10
-69 8 -252 -4 -294 -4 -612 0 -818 l3 -145 33 -3 c17 -2 32 -7 32 -11 0 -29
-124 -170 -182 -207 -42 -27 -48 -29 -48 -14 0 6 6 10 14 10 8 0 19 14 25 31
6 17 26 52 44 78 18 25 37 53 41 61 15 28 -64 -65 -96 -113 l-32 -49 -11 30
c-5 16 -18 40 -27 53 l-18 24 7 -30 c3 -16 15 -49 26 -73 10 -24 17 -45 15
-46 -46 -33 -78 -52 -116 -67 -55 -21 -26 -25 33 -5 184 65 334 206 384 359
11 34 22 76 25 92 2 17 14 86 26 154 18 105 21 159 19 340 -1 119 -6 221 -11
227 -5 8 -3 14 7 18 8 3 15 10 15 16 0 6 -5 8 -11 5 -6 -4 -9 -1 -8 6 9 54
-41 278 -76 342 -29 50 -127 145 -209 199 -48 32 -108 98 -89 98 5 0 37 -18
72 -41 35 -22 78 -47 96 -55 39 -16 156 -139 179 -189 9 -19 19 -35 21 -35 14
0 0 34 -35 89 -22 34 -38 66 -35 71 2 4 -2 13 -10 20 -8 7 -15 21 -15 32 0 17
-3 18 -15 8 -12 -10 -20 -9 -39 3 l-24 16 41 43 c23 24 45 42 50 40 4 -2 5 -8
2 -13 -4 -5 -2 -9 2 -9 11 0 40 -90 48 -146 3 -22 15 -53 25 -70 l20 -29 0 30
c0 17 -9 66 -20 110 -11 44 -22 99 -25 123 -3 24 -10 54 -15 68 -6 14 -8 30
-5 35 4 5 -2 6 -11 2 -12 -4 -15 -3 -10 5 4 7 3 12 -2 12 -6 0 -8 9 -5 20 4
14 0 20 -13 20 -9 0 -14 3 -11 6 4 4 -7 24 -23 44 -17 21 -30 42 -30 46 1 8
39 -33 69 -72z m360 59 c-7 -10 -22 -28 -33 -41 -16 -18 -18 -25 -7 -31 10 -7
10 -11 -1 -22 -7 -8 -14 -21 -16 -29 -6 -25 -33 -49 -49 -43 -12 5 -14 1 -8
-15 3 -12 3 -22 -2 -22 -4 0 -14 -9 -21 -20 -12 -20 -12 -21 18 -5 17 9 39 13
50 10 12 -4 22 0 29 12 6 10 10 14 11 8 0 -5 -4 -17 -10 -25 -5 -8 -5 -19 0
-25 12 -15 -24 -91 -50 -105 -12 -6 -28 -9 -36 -6 -20 8 -46 73 -39 97 4 11 2
19 -4 19 -6 0 -11 11 -11 24 0 22 55 76 77 76 11 0 49 59 45 71 -2 10 55 89
65 89 3 0 -1 -8 -8 -17z m491 -118 c0 -3 -16 -11 -35 -19 -19 -8 -35 -19 -35
-25 0 -5 -30 -29 -67 -53 -83 -53 -88 -55 -80 -34 6 15 5 15 -18 0 -14 -9 -22
-21 -18 -27 3 -6 1 -7 -6 -3 -13 9 -43 -12 -36 -24 3 -5 -6 -22 -20 -38 -17
-21 -21 -32 -13 -34 9 -3 8 -9 -5 -22 -20 -21 -21 -23 -5 -32 7 -4 8 -3 4 4
-4 7 8 21 28 34 20 13 36 29 36 37 0 11 -5 10 -20 -4 -11 -10 -23 -16 -25 -13
-8 7 82 79 127 102 20 10 45 26 55 35 10 9 34 27 53 41 19 13 37 27 40 30 14
15 70 38 75 30 3 -5 -3 -11 -14 -15 -10 -3 -55 -31 -100 -63 -44 -31 -101 -69
-126 -84 -25 -16 -44 -32 -41 -37 3 -4 -1 -17 -9 -27 -8 -10 -15 -28 -15 -39
0 -12 -6 -27 -12 -35 -11 -12 -10 -12 2 -3 11 9 20 8 33 -2 18 -13 18 -15 -2
-53 -25 -50 -118 -152 -138 -152 -9 0 -13 6 -10 14 3 8 -1 22 -8 33 -8 10 -15
29 -15 42 0 37 32 131 43 124 6 -4 7 -1 3 6 -14 23 29 117 78 170 50 54 296
167 296 136z m-1302 -237 c-3 -7 -19 -23 -38 -35 -26 -18 -29 -23 -13 -23 10
0 25 6 33 13 12 10 12 9 1 -5 -19 -25 -2 -22 26 4 13 12 23 17 23 12 0 -5 -12
-18 -27 -29 -15 -11 -61 -45 -102 -76 -95 -71 -149 -90 -82 -30 25 22 47 38
50 37 3 -2 28 12 56 30 27 19 43 34 34 34 -9 0 -24 -9 -34 -20 -10 -11 -23
-20 -28 -20 -6 0 0 11 13 25 13 14 18 25 12 25 -6 0 -14 -5 -17 -10 -4 -6 -10
-8 -15 -5 -8 5 -42 -26 -124 -113 -21 -23 -43 -42 -49 -42 -6 0 7 19 28 42 22
23 30 34 18 24 -13 -11 -23 -15 -23 -11 0 14 43 55 57 55 8 0 12 4 9 8 -3 5 9
22 27 38 18 16 24 19 13 7 -32 -39 -7 -25 52 27 34 30 65 50 80 50 14 0 22 -5
20 -12z m2152 -93 c0 -13 4 -26 8 -29 5 -3 9 -18 10 -33 1 -26 7 -62 18 -123
16 -87 28 -363 14 -355 -5 3 -10 1 -10 -5 0 -6 -5 -8 -11 -4 -8 4 -8 9 0 17 6
6 11 18 11 26 0 14 -1 14 -10 1 -8 -13 -10 -12 -10 3 0 9 5 17 11 17 8 0 9 13
5 38 -20 119 -27 183 -27 236 1 32 -3 64 -7 70 -16 20 -21 60 -10 73 5 7 7 21
3 30 -3 10 -5 19 -3 19 2 1 -6 12 -16 23 -19 21 -19 21 -1 15 14 -6 16 -4 10
6 -5 9 -4 11 3 6 7 -4 12 -18 12 -31z m-974 -22 c-8 -16 -78 -93 -156 -173
-78 -80 -147 -157 -152 -172 -5 -16 -14 -28 -19 -28 -4 0 -6 8 -2 18 3 9 -6 4
-21 -13 -32 -35 -86 -141 -86 -170 0 -31 -11 -65 -20 -60 -4 2 -4 24 0 47 5
24 6 45 4 47 -2 2 1 10 7 18 9 9 8 13 0 13 -6 0 -11 4 -11 10 0 5 7 7 15 4 8
-4 15 -1 15 5 0 7 -6 14 -14 17 -40 15 26 105 124 167 53 34 114 93 194 187
38 45 114 109 129 110 4 0 1 -12 -7 -27z m-173 -345 c41 -86 58 -157 64 -261
8 -136 -7 -197 -61 -244 -23 -19 -71 -50 -108 -68 -61 -31 -69 -32 -77 -17
-11 22 -12 275 -1 327 18 88 41 159 66 203 33 59 72 112 84 112 5 0 20 -24 33
-52z"/>
<path d="M9725 7275 c-16 -8 -45 -14 -64 -15 -54 0 -132 -58 -161 -119 -22
-49 -42 -63 -55 -41 -11 17 -61 11 -80 -10 -15 -17 -26 -19 -67 -14 -48 7 -48
6 -98 -46 -27 -29 -50 -56 -50 -59 0 -12 45 -51 58 -51 7 0 12 -11 12 -25 0
-14 -4 -25 -8 -25 -5 0 -16 -18 -26 -40 -13 -30 -23 -40 -40 -40 -24 0 -66
-38 -66 -58 0 -9 6 -9 23 2 13 8 41 12 69 11 53 -4 68 7 44 31 -16 15 -17 15
-20 -6 -1 -11 -11 -14 -29 -7 -8 3 -6 10 7 23 19 18 22 18 52 4 30 -15 31 -18
38 -95 8 -105 6 -306 -3 -373 -4 -29 -4 -55 1 -58 12 -8 10 -192 -2 -199 -6
-4 -24 -3 -41 0 -27 6 -30 10 -25 33 l7 27 -20 -25 -19 -24 -5 29 c-4 28 -5
29 -12 8 -8 -26 -25 -31 -25 -8 0 22 -17 18 -23 -5 -6 -25 -36 -37 -47 -20 -5
8 -3 25 4 39 17 33 28 94 17 87 -5 -3 -12 -18 -16 -33 -3 -16 -18 -45 -32 -66
-21 -30 -32 -37 -52 -35 -21 2 -26 8 -25 28 1 14 4 34 8 45 7 17 5 17 -13 -4
-29 -32 -26 -60 9 -96 l29 -30 -25 -32 c-30 -39 -83 -68 -98 -53 -17 17 -26
11 -26 -15 0 -21 5 -25 30 -25 35 0 38 -10 10 -35 -17 -16 -24 -16 -44 -6 -40
22 -49 51 -31 93 24 58 17 68 -11 16 -27 -53 -27 -53 -55 -37 -36 19 -39 50
-12 97 14 24 23 45 20 48 -8 9 -57 -84 -57 -110 0 -19 19 -41 78 -90 42 -36
82 -66 87 -66 12 0 28 18 64 68 14 20 29 31 37 28 9 -3 14 1 14 13 0 22 23 44
35 33 5 -4 5 -2 2 4 -8 14 28 48 42 39 7 -3 8 0 5 9 -4 11 0 16 11 16 10 0 13
-5 9 -12 -4 -7 -3 -8 4 -4 6 4 8 14 5 22 -4 12 -1 15 12 13 30 -6 27 -23 -5
-43 -17 -9 -55 -41 -85 -70 -30 -30 -56 -49 -57 -45 -2 5 -9 -1 -17 -13 -13
-21 -13 -22 2 -9 22 18 21 9 -3 -36 -20 -38 -20 -50 0 -38 6 4 9 13 6 21 -3 8
8 23 27 36 18 12 35 27 39 32 4 6 10 7 14 4 3 -4 -2 -15 -11 -25 -14 -13 -15
-18 -4 -22 7 -2 15 1 17 8 2 6 10 17 17 25 10 10 11 16 2 25 -8 8 -7 11 6 11
12 0 17 -8 17 -26 0 -16 4 -23 11 -18 7 4 9 0 5 -13 -5 -15 -1 -18 20 -18 15
1 31 9 36 19 5 9 13 14 18 11 5 -3 18 0 28 6 17 11 25 7 60 -27 26 -25 42 -50
44 -69 3 -27 7 -30 45 -33 23 -2 78 4 123 12 45 9 86 13 91 10 12 -7 103 39
136 71 15 14 31 25 36 25 4 0 28 19 52 41 25 23 48 39 52 36 3 -4 1 -13 -6
-20 -16 -20 -3 -51 15 -36 8 6 12 15 9 19 -3 5 -1 11 4 15 6 3 8 12 5 19 -10
25 17 28 37 5 28 -32 35 -16 14 29 -19 38 -20 38 -47 25 -15 -8 -32 -22 -38
-31 -5 -9 -10 -12 -10 -6 0 6 9 23 20 37 11 14 20 30 20 36 0 15 17 14 23 -1
3 -7 3 5 0 27 -4 37 -2 35 27 -30 17 -38 32 -80 32 -93 0 -13 6 -21 12 -19 14
6 15 2 -28 121 -39 109 -44 141 -21 150 18 7 19 2 3 -24 -9 -14 -9 -25 -1 -42
54 -119 52 -115 53 -83 0 22 3 26 9 16 8 -12 12 -12 25 -2 14 12 16 10 16 -8
0 -12 -8 -34 -17 -48 -10 -15 -13 -24 -6 -20 7 5 9 1 6 -13 -3 -11 -3 -27 1
-35 3 -8 5 -18 5 -21 0 -4 5 -10 11 -14 9 -5 6 -19 -9 -49 -22 -43 -11 -59 11
-17 7 13 28 42 47 64 l35 41 20 -22 c45 -49 65 -56 135 -51 50 4 79 1 120 -14
53 -19 53 -19 30 -35 -12 -9 -20 -19 -17 -22 12 -13 66 -16 73 -4 5 8 1 9 -14
4 -28 -9 -27 -2 10 40 28 32 29 51 1 23 -16 -16 -26 -3 -17 19 5 10 7 22 6 27
-1 5 5 6 13 3 9 -4 18 -2 21 3 9 15 -13 22 -35 10 -31 -17 -24 -3 22 42 23 22
33 36 22 31 -10 -6 -26 -8 -34 -5 -8 2 -12 1 -8 -3 5 -5 -1 -13 -11 -19 -11
-6 -41 -23 -67 -38 -48 -29 -74 -35 -74 -18 0 6 5 10 11 10 6 0 32 18 57 40
25 23 71 55 103 71 53 29 124 89 103 89 -5 0 -26 -14 -48 -30 -37 -28 -39 -29
-62 -12 -13 9 -24 20 -24 25 0 10 -40 9 -40 -1 0 -5 -26 -26 -57 -48 -67 -45
-138 -112 -129 -121 9 -9 -14 -33 -33 -33 -13 1 -13 3 3 15 11 8 17 18 13 21
-4 4 -13 1 -21 -6 -13 -10 -18 -9 -31 4 -13 13 -14 19 -3 36 7 11 16 20 20 20
11 0 10 -18 -2 -25 -13 -8 -13 -25 1 -25 6 0 13 9 16 20 3 11 9 20 14 20 5 0
9 7 9 15 0 7 8 18 17 24 10 5 15 13 11 16 -4 4 -18 -6 -32 -21 -32 -37 -34
-19 -2 21 22 28 24 28 41 11 17 -16 16 -18 -10 -46 -15 -16 -25 -34 -22 -42 3
-8 9 -4 17 12 13 27 98 102 145 128 17 10 32 18 34 19 2 2 -4 12 -13 22 -10
11 -15 25 -11 30 3 6 1 11 -5 11 -6 0 -20 -15 -30 -33 -26 -44 -60 -60 -100
-46 -16 6 -30 14 -30 18 0 5 14 27 31 50 17 24 28 45 26 47 -6 6 -67 -64 -67
-76 0 -6 -9 -5 -20 2 -31 20 -35 62 -10 103 12 19 20 40 18 47 -2 6 -14 -5
-27 -25 -14 -24 -27 -34 -37 -30 -10 4 -17 -2 -21 -16 -3 -11 -9 -21 -14 -21
-14 0 -11 11 16 60 24 43 24 44 3 20 -13 -14 -33 -39 -44 -55 -19 -25 -24 -27
-38 -16 -9 7 -16 22 -16 32 0 11 -4 19 -10 19 -5 0 -10 -4 -10 -10 0 -5 -4
-10 -10 -10 -5 0 -8 15 -6 33 2 19 9 31 16 29 7 -2 10 3 7 11 -3 7 4 24 14 38
10 13 19 27 19 31 0 10 -53 -44 -84 -84 -16 -21 -31 -36 -35 -33 -4 2 -4 32 0
67 11 91 -10 209 -47 266 -8 13 -13 26 -11 29 7 7 54 -76 63 -110 5 -21 9 -25
15 -16 4 8 5 25 2 39 -10 44 -53 121 -71 127 -20 7 -92 62 -142 109 -52 48
-144 75 -271 79 -58 2 -110 5 -115 6 -5 1 -21 -4 -37 -11 -30 -14 -44 -9 -31
12 5 7 9 28 11 45 1 18 9 43 17 55 24 33 19 45 -7 20 l-23 -22 -23 24 -22 24
22 21 c13 12 29 21 36 21 8 0 13 8 11 18 -4 23 63 30 82 8 18 -22 34 -20 45 7
12 26 58 35 81 16 12 -10 20 -6 44 22 16 19 29 38 30 42 1 21 46 67 66 67 12
0 24 6 27 14 6 14 68 31 100 27 9 -1 20 5 23 13 9 24 63 20 91 -6 13 -12 23
-16 23 -10 0 6 -10 20 -22 32 -25 23 -69 25 -113 5z m-178 -518 c87 -23 191
-114 234 -204 37 -79 38 -131 4 -190 -14 -23 -21 -43 -15 -43 5 0 18 18 26 41
12 28 19 37 25 28 12 -20 -2 -142 -19 -158 -12 -13 -12 -16 2 -26 30 -23 13
-130 -26 -162 -13 -11 -80 -24 -203 -38 -27 -3 -63 -15 -78 -26 -15 -11 -33
-19 -40 -16 -8 2 -12 60 -14 198 -3 301 -12 575 -19 593 -5 13 1 16 33 16 21
0 62 -6 90 -13z"/>
<path d="M9820 7208 c30 -25 49 -62 44 -84 -4 -17 0 -23 19 -28 16 -4 29 -19
40 -47 12 -31 20 -39 34 -35 10 3 34 7 53 10 19 2 57 16 84 30 59 31 85 33
120 5 31 -24 34 -59 6 -66 -26 -7 -25 -15 5 -43 14 -13 32 -36 39 -51 13 -25
12 -29 -10 -50 -28 -26 -32 -44 -8 -35 15 6 15 4 -1 -20 -16 -25 -16 -26 3
-20 33 11 47 -17 33 -65 -7 -23 -9 -44 -6 -47 9 -9 29 28 30 53 0 10 11 25 23
31 15 7 20 14 13 18 -17 11 -13 26 8 26 22 0 52 -30 30 -30 -10 -1 -8 -5 5
-15 21 -16 57 -11 95 12 16 11 37 13 70 9 91 -13 127 -41 96 -76 -21 -24 -19
-38 12 -64 l26 -23 -31 -11 c-37 -13 -42 -40 -14 -65 26 -23 32 -21 32 11 0
15 7 36 15 46 21 27 19 51 -6 67 -18 12 -19 18 -9 43 28 75 -91 124 -199 82
l-44 -17 -28 27 c-24 23 -33 26 -68 20 -38 -6 -55 4 -31 19 19 12 10 57 -19
94 -25 32 -28 42 -24 84 5 41 2 49 -18 67 -13 10 -39 24 -57 31 -28 9 -37 8
-60 -8 -43 -29 -80 -43 -84 -31 -2 5 -17 2 -37 -9 -32 -18 -33 -18 -44 1 -7
11 -25 35 -42 54 -16 19 -35 51 -40 71 -9 30 -16 36 -40 39 -26 2 -28 1 -15
-10z"/>
<path d="M9131 6873 c-30 -24 -37 -25 -65 -15 -53 19 -68 14 -124 -39 -49 -49
-53 -51 -70 -35 -24 21 -44 20 -122 -7 -64 -23 -65 -23 -68 -62 -3 -46 16 -88
41 -93 21 -4 23 21 2 38 -8 7 -15 27 -15 46 0 31 3 34 52 49 70 20 97 19 125
-7 21 -20 24 -20 41 -5 10 10 28 17 40 17 25 0 26 3 10 30 -10 15 -9 23 6 39
24 26 54 26 86 1 32 -25 36 -25 43 1 3 11 19 25 36 32 31 11 38 21 23 31 -4 2
-23 -7 -41 -21z"/>
<path d="M10622 6480 c-39 -24 -46 -25 -38 -5 10 28 -15 15 -62 -31 -26 -25
-63 -54 -82 -64 -19 -10 -51 -32 -70 -49 -28 -24 -31 -30 -16 -31 20 0 140 80
169 114 10 12 16 16 13 9 -4 -6 2 -13 11 -15 15 -3 13 -6 -9 -18 -64 -36 -138
-82 -143 -91 -10 -15 48 13 87 43 20 15 43 28 51 28 8 0 26 9 40 20 14 11 32
20 41 20 10 0 16 9 16 24 0 17 7 26 25 30 14 4 25 13 25 21 0 20 -19 19 -58
-5z"/>
<path d="M9551 3676 c0 -37 -8 -94 -16 -125 -8 -31 -17 -71 -20 -90 -3 -19 -9
-39 -13 -45 -4 -6 -7 -13 -8 -16 -4 -23 -19 -40 -30 -36 -13 5 -84 -66 -84
-84 0 -18 12 -11 51 32 35 39 39 41 39 20 0 -15 -21 -44 -59 -82 -52 -52 -63
-70 -41 -70 4 0 33 20 64 45 32 25 67 45 77 45 10 0 20 4 23 9 3 5 18 12 33
16 15 3 31 12 35 18 5 8 11 8 16 2 4 -5 23 -18 42 -27 19 -10 59 -31 89 -48
53 -30 101 -39 101 -20 0 6 -12 10 -27 10 -15 0 -48 17 -79 40 -29 22 -60 40
-69 40 -9 0 -18 8 -21 18 -3 9 -12 31 -19 47 -12 26 -14 27 -14 8 -1 -30 -21
-40 -28 -14 -5 20 -6 21 -20 4 -12 -16 -13 -14 -9 22 10 71 8 269 -2 310 -9
39 -10 38 -11 -29z"/>
<path d="M12478 7931 c-91 -3 -169 -9 -173 -12 -17 -18 133 -30 315 -26 186 4
230 9 230 27 0 21 -46 22 -372 11z"/>
<path d="M12648 7224 c-58 -14 -253 -102 -244 -111 2 -3 15 0 28 6 20 10 20
10 4 -1 -10 -7 -47 -34 -81 -60 -62 -45 -79 -38 -26 10 19 18 21 21 6 14 -23
-12 -35 -24 -110 -112 -53 -63 -121 -177 -158 -270 -63 -155 -81 -437 -38
-580 13 -41 24 -86 25 -100 2 -24 56 -138 128 -267 17 -32 52 -98 78 -148 44
-87 61 -117 175 -325 29 -52 76 -139 105 -193 l52 -98 -17 -102 c-9 -56 -23
-109 -32 -119 -10 -12 -11 -18 -3 -23 12 -7 11 -17 -9 -125 -7 -35 -7 -58 -1
-64 6 -6 10 -21 11 -35 0 -26 1 -26 11 -4 10 20 18 22 102 21 50 0 113 3 140
7 42 5 48 4 42 -10 -6 -16 13 -55 27 -55 5 0 6 9 2 20 -6 17 -3 19 17 11 13
-5 22 -14 20 -20 -1 -6 11 -11 27 -11 16 0 36 -3 45 -6 9 -3 16 -1 16 6 0 6
-4 8 -10 5 -5 -3 -10 -2 -10 2 0 16 98 14 114 -2 21 -21 29 -19 16 6 -7 11
-10 23 -7 25 6 6 97 -8 97 -15 0 -7 81 -5 248 5 109 7 155 23 70 25 -24 0 -65
2 -93 5 -27 2 -64 4 -82 4 -18 0 -35 5 -38 11 -5 6 10 10 42 9 26 -1 87 1 135
5 77 7 85 10 72 23 -13 12 -33 13 -122 7 -190 -14 -193 -12 -211 103 -14 84
-39 233 -47 270 -3 15 24 77 82 190 119 228 172 338 279 570 36 78 65 145 65
148 0 3 8 24 18 47 58 134 96 258 113 375 36 242 -86 556 -288 742 -37 34 -81
68 -98 75 -103 45 -124 55 -136 68 -8 7 -52 23 -99 35 -71 18 -112 22 -240 21
-95 0 -177 -6 -212 -15z m467 -63 c134 -38 265 -104 265 -134 0 -7 -21 -17
-47 -23 -41 -10 -51 -9 -86 10 -22 12 -66 45 -99 74 -32 28 -62 52 -66 52 -11
-1 98 -97 147 -130 28 -19 39 -31 30 -34 -8 -3 -102 -31 -209 -61 -230 -67
-291 -87 -385 -127 l-70 -29 -20 27 c-41 56 -179 214 -187 214 -14 0 -9 -8 45
-69 103 -115 137 -165 130 -191 -3 -14 -11 -32 -18 -40 -46 -57 -96 -186 -151
-383 -15 -56 -18 -59 -152 -167 -76 -62 -139 -107 -144 -102 -5 5 -10 24 -11
43 -2 19 -9 45 -17 59 -24 41 -24 256 -1 328 11 31 27 84 36 117 23 83 60 167
112 258 35 61 50 77 68 77 12 0 28 -7 35 -15 6 -8 58 -46 113 -85 59 -40 85
-55 62 -34 -22 20 -75 60 -117 90 -43 30 -80 59 -83 64 -8 13 117 103 208 150
200 101 401 122 612 61z m350 -217 c25 -25 42 -50 39 -56 -3 -5 7 -24 23 -41
16 -18 36 -41 44 -52 13 -18 13 -19 -3 -6 -10 7 -18 10 -18 5 1 -14 26 -44 32
-39 3 3 11 -2 19 -11 13 -16 12 -17 -9 -12 -15 4 -20 3 -15 -5 4 -7 8 -14 8
-17 1 -3 5 -16 9 -29 6 -16 11 -20 16 -12 11 19 40 -62 50 -143 4 -39 6 -109
4 -156 -12 -244 -16 -258 -63 -202 -35 41 -131 233 -170 338 -26 70 -91 237
-124 318 -7 17 -22 49 -33 73 l-22 44 22 11 c24 13 103 36 129 37 9 1 37 -20
62 -45z m-245 -18 c0 -8 -7 -88 -15 -178 -8 -90 -16 -185 -17 -213 l-3 -50
-43 63 c-52 76 -124 134 -193 157 -101 34 -250 3 -347 -72 -53 -40 -106 -160
-110 -250 -4 -72 16 -181 43 -234 28 -53 105 -126 157 -149 44 -19 65 -22 143
-18 77 3 98 8 137 31 71 41 77 34 22 -28 -36 -41 -121 -181 -104 -170 6 4 35
43 65 88 30 45 88 122 129 171 83 98 116 172 116 258 0 26 4 48 9 48 10 0 123
-67 186 -110 22 -15 73 -48 113 -74 39 -25 72 -51 72 -58 0 -7 -98 -62 -217
-122 -120 -60 -288 -151 -374 -203 -86 -51 -161 -93 -167 -93 -6 0 -31 31 -56
69 -24 38 -78 106 -120 151 -76 83 -87 100 -63 100 7 1 3 8 -8 18 -43 37 -148
188 -117 168 6 -3 13 -2 17 4 3 5 1 10 -6 10 -7 0 -9 10 -7 25 4 19 1 25 -11
23 -9 -2 -19 -7 -23 -13 -4 -6 -8 -2 -8 8 0 11 8 17 23 17 21 0 23 5 25 54 0
30 8 71 17 92 8 20 15 43 15 51 0 23 58 162 81 194 29 41 68 59 301 138 112
38 228 78 258 89 67 25 80 26 80 8z m94 -199 c30 -73 73 -181 96 -242 22 -60
61 -147 85 -192 25 -46 41 -83 36 -83 -6 0 -66 38 -135 84 -69 47 -142 90
-162 98 -34 12 -35 14 -30 53 2 22 10 131 17 243 11 163 16 200 25 187 7 -9
37 -76 68 -148z m-333 -95 c98 -51 169 -168 169 -278 0 -144 -148 -304 -280
-304 -89 0 -200 72 -241 158 -18 37 -23 65 -23 132 -1 77 2 92 32 152 75 152
212 208 343 140z m-545 -454 c42 -67 162 -226 229 -303 33 -38 71 -85 84 -104
21 -30 22 -33 5 -27 -10 5 -41 16 -69 26 -27 10 -108 46 -180 80 -71 34 -146
68 -165 75 -53 20 -202 84 -207 89 -4 4 77 68 191 151 30 22 55 43 56 48 1 22
33 2 56 -35z m1174 -102 c0 -5 -55 -135 -92 -216 -47 -105 -199 -404 -214
-421 -8 -8 -14 -21 -14 -28 0 -7 -6 -25 -14 -39 -8 -15 -53 -107 -100 -205
-48 -98 -99 -190 -114 -204 -15 -15 -20 -22 -13 -18 9 5 7 -3 -6 -21 -11 -16
-18 -35 -15 -43 3 -8 0 -11 -6 -7 -10 6 -72 -108 -72 -132 0 -5 -9 -21 -21
-36 -11 -15 -18 -33 -15 -41 3 -8 -3 -23 -12 -35 -16 -20 -17 -8 -17 227 0
216 3 252 18 280 9 18 17 36 17 40 -1 4 -8 -5 -16 -20 -8 -15 -19 -25 -25 -22
-11 7 -10 105 1 105 4 0 16 17 25 38 10 20 23 44 30 52 21 25 65 110 57 110
-4 0 -15 -12 -24 -28 -32 -51 -43 -66 -57 -81 -7 -8 -18 -28 -23 -44 -16 -45
-29 -14 -27 68 0 39 0 72 -1 75 -2 3 -4 58 -5 123 -3 98 0 122 13 138 9 10 20
19 23 19 4 0 43 22 86 48 43 27 117 70 165 95 47 25 103 56 123 67 21 12 40
19 42 16 3 -3 12 1 20 9 7 8 33 19 56 25 23 6 61 25 84 41 23 16 45 29 50 29
15 0 63 25 63 33 0 4 7 7 15 7 8 0 15 -2 15 -4z m-1427 -107 c47 -24 334 -151
472 -209 170 -71 160 -62 161 -133 0 -34 8 -204 18 -377 9 -173 18 -376 19
-450 2 -75 7 -141 11 -148 4 -7 4 -12 -1 -12 -15 0 -57 74 -44 78 6 2 -1 21
-19 47 -17 24 -30 46 -30 50 0 3 -17 32 -38 63 -21 31 -42 64 -45 72 -4 8 -11
22 -17 30 -5 8 -45 78 -88 155 -44 77 -102 180 -130 229 -29 49 -52 90 -52 92
0 2 -20 35 -45 74 -25 39 -45 73 -45 75 0 7 -92 191 -149 298 -22 43 -41 80
-41 82 0 10 23 4 63 -16z"/>
<path d="M11887 5808 c-3 -13 -17 -65 -31 -117 -14 -52 -32 -124 -40 -160 -8
-36 -32 -151 -54 -256 -23 -104 -52 -233 -66 -285 -15 -52 -31 -119 -37 -147
-7 -29 -16 -53 -20 -53 -5 0 -9 5 -9 10 0 24 -19 7 -20 -17 -2 -57 -4 -73 -12
-73 -4 0 -8 -5 -8 -11 0 -6 7 -9 14 -6 10 4 13 1 9 -9 -3 -7 -9 -14 -13 -14
-14 0 -20 -44 -7 -52 8 -5 8 -11 2 -15 -5 -5 -11 -26 -13 -48 -2 -22 -19 -103
-38 -180 -18 -77 -38 -160 -43 -185 -5 -25 -21 -97 -36 -160 -14 -63 -35 -155
-46 -205 -10 -49 -24 -94 -30 -100 -9 -7 -10 -3 -5 15 4 14 14 58 22 99 7 41
20 95 28 120 13 43 23 91 60 281 8 41 18 114 21 162 6 73 9 86 22 81 11 -4 14
-2 9 5 -11 19 -45 14 -44 -5 2 -52 -15 -177 -38 -280 -15 -65 -30 -136 -35
-158 -13 -63 -58 -193 -55 -160 2 17 5 37 9 45 6 17 27 113 32 148 2 13 8 28
14 35 5 7 12 35 15 62 4 28 13 82 21 120 8 39 16 116 18 173 3 86 1 104 -12
112 -10 6 -11 10 -3 10 6 0 12 12 12 28 0 15 7 56 16 92 14 64 21 97 23 113 1
4 9 7 19 8 10 0 12 3 5 6 -7 2 -13 9 -13 14 0 6 5 7 10 4 6 -3 15 6 20 21 16
42 19 88 6 96 -7 5 -3 8 9 8 16 0 17 2 6 9 -12 8 -12 21 -2 88 7 43 23 121 36
173 13 52 33 151 44 220 12 69 28 152 36 185 24 104 27 145 11 145 -19 0 -30
-32 -75 -235 -52 -238 -68 -321 -81 -434 -6 -52 -13 -98 -15 -102 -3 -4 -11
-35 -19 -70 -17 -81 -93 -384 -106 -424 -5 -16 -18 -77 -30 -135 -11 -58 -40
-186 -64 -285 -24 -99 -54 -227 -66 -285 -12 -58 -37 -163 -55 -235 -56 -214
-89 -407 -81 -470 7 -58 -16 -155 -36 -155 -6 0 -5 -6 2 -15 17 -21 26 -12 34
34 9 55 23 59 31 9 4 -24 14 -55 21 -70 8 -15 14 -37 14 -49 0 -35 33 -95 60
-111 20 -11 41 -13 95 -7 39 4 108 8 155 9 59 0 80 3 70 10 -10 7 17 10 87 10
57 0 105 -4 108 -10 4 -6 85 -8 229 -4 211 6 223 5 231 -12 6 -18 8 -17 16 4
7 20 13 22 43 17 20 -4 36 -2 40 4 5 7 -4 11 -24 11 -30 0 -31 1 -24 38 4 20
11 45 15 54 5 9 9 26 9 37 0 18 5 19 98 15 53 -2 123 -9 154 -15 66 -13 296
-7 343 10 23 8 1 10 -97 7 -69 -2 -132 0 -140 5 -8 5 9 9 45 9 31 0 57 4 57
10 0 6 -31 7 -77 5 -94 -6 -159 -7 -275 -6 l-88 1 0 31 c0 24 3 30 16 25 53
-20 172 -28 329 -21 183 8 260 13 315 19 19 2 91 7 160 12 l125 9 -80 5 c-44
3 -111 1 -150 -3 -97 -11 -563 -16 -600 -7 -25 6 305 15 473 12 23 0 42 4 42
9 0 5 -109 9 -267 9 -177 0 -263 4 -253 10 8 5 65 10 125 11 61 1 99 4 85 7
-42 8 6 19 54 13 23 -3 120 -4 216 -1 174 5 174 5 80 13 -135 10 -562 18 -556
9 7 -12 -22 -45 -33 -37 -7 3 -8 0 -5 -9 6 -17 -4 -20 -30 -10 -19 7 -22 44
-3 44 9 0 9 2 0 8 -13 8 -3 105 17 158 6 14 8 30 5 34 -3 5 1 24 8 42 8 18 14
36 15 41 0 4 3 46 7 95 4 48 11 92 15 97 4 6 15 49 25 97 l18 88 51 -4 c28 -2
180 -4 337 -5 l286 -1 8 -42 c4 -24 9 -59 11 -78 5 -44 22 -110 23 -90 1 13 2
13 11 0 13 -20 13 -53 0 -45 -5 3 -10 2 -10 -4 0 -5 6 -12 13 -14 9 -4 9 -8
-2 -15 -9 -6 -11 -17 -6 -28 10 -27 43 -186 51 -252 9 -75 16 -93 64 -153 32
-40 38 -54 29 -65 -7 -9 -8 -14 -1 -14 6 0 34 -24 62 -52 48 -48 52 -50 46
-25 -4 16 -2 27 4 27 5 0 10 -3 11 -7 6 -95 7 -93 -22 -93 -42 0 -43 -16 -1
-17 20 -1 270 -3 555 -6 285 -2 522 -8 526 -13 4 -5 19 -49 35 -97 15 -49 29
-87 31 -85 5 5 -19 105 -28 114 -4 4 -7 28 -7 52 0 25 -5 59 -10 76 -6 17 -26
94 -45 171 -18 77 -45 185 -60 240 -14 55 -30 131 -36 170 -6 38 -24 122 -40
185 -48 192 -72 312 -77 378 -2 34 -8 62 -14 62 -6 0 -8 13 -4 33 4 20 3 27
-3 18 -11 -17 -19 -3 -25 45 -3 21 -12 64 -20 95 -19 73 -30 172 -16 144 8
-16 9 -13 4 15 -10 62 -15 74 -25 59 -6 -10 -9 -8 -9 9 0 12 4 22 9 22 5 0 7
9 4 20 -3 11 -8 20 -12 20 -3 0 -7 19 -8 42 0 22 -6 50 -11 62 -14 29 -24 74
-27 121 -1 21 -7 41 -12 42 -6 2 -8 15 -5 28 3 16 0 25 -8 25 -7 0 -10 6 -7
14 3 7 1 18 -3 22 -5 5 -12 25 -14 44 -3 19 -10 55 -16 80 -6 25 -13 59 -16
75 -5 38 -6 43 -43 203 -17 73 -44 179 -62 235 -17 56 -34 113 -38 126 -11 38
-28 36 -33 -4 -2 -19 0 -35 5 -35 5 0 6 -13 2 -29 -3 -17 -2 -32 5 -36 5 -3 8
-10 5 -15 -3 -5 0 -21 7 -37 6 -15 12 -36 13 -46 2 -10 9 -42 18 -70 30 -103
89 -357 90 -387 0 -32 -3 -41 -13 -35 -5 3 -10 1 -10 -5 0 -7 7 -10 15 -7 16
7 20 3 29 -35 3 -16 2 -28 -3 -28 -5 0 -14 12 -20 28 l-11 27 5 -30 c2 -16 20
-100 39 -185 20 -85 36 -161 36 -168 0 -7 7 -20 16 -29 10 -11 13 -25 8 -45
-4 -21 -3 -28 5 -24 7 5 11 -3 11 -22 0 -16 3 -32 7 -36 7 -6 11 -21 17 -56 1
-8 15 -69 30 -135 15 -66 36 -163 48 -215 11 -52 33 -149 48 -215 16 -66 40
-172 54 -235 14 -64 51 -223 81 -355 49 -213 67 -278 90 -337 7 -17 -17 -18
-381 -18 -214 -1 -398 -2 -409 -2 -11 -1 -59 -1 -106 0 l-87 2 -11 68 c-6 37
-16 87 -21 112 -26 122 -40 201 -45 265 -4 38 -8 72 -10 75 -2 3 -6 28 -10 55
-11 82 -13 92 -30 188 -9 51 -21 105 -26 121 -5 16 -9 48 -9 72 0 46 -13 63
-34 45 -9 -8 -57 -8 -167 -1 -84 6 -173 10 -196 8 -24 -1 -48 3 -54 9 -9 9
-15 8 -26 -3 -16 -16 -43 -19 -43 -5 0 15 -66 22 -130 15 -67 -7 -84 -22 -19
-16 22 3 46 -1 52 -7 8 -8 -4 -11 -44 -11 -30 0 -60 5 -66 11 -9 9 -20 9 -40
1 -44 -16 -133 -23 -133 -10 0 7 -6 3 -14 -7 -8 -11 -12 -24 -9 -29 3 -4 1
-11 -4 -15 -5 -3 -22 -51 -38 -106 -15 -55 -37 -122 -47 -150 -11 -27 -40
-131 -64 -230 -25 -99 -47 -188 -50 -197 -3 -10 -1 -18 3 -18 5 0 19 39 31 87
12 48 25 89 27 92 13 13 13 -11 0 -55 -8 -27 -15 -59 -15 -71 0 -13 -9 -50
-21 -83 -11 -33 -17 -64 -14 -70 4 -6 1 -42 -6 -80 l-12 -70 -66 0 c-92 0
-242 18 -258 32 -10 8 -13 7 -13 -2 0 -8 -4 -9 -12 -3 -7 5 -145 8 -310 7
-164 -1 -298 0 -298 3 0 3 32 136 85 358 9 39 25 106 35 150 10 44 23 98 29
119 5 22 9 42 9 45 -1 3 1 13 5 21 11 29 39 155 42 190 2 19 8 62 14 95 5 33
15 89 21 125 6 36 15 81 20 100 27 100 52 220 55 255 1 22 3 45 4 52 0 6 10 9
21 6 13 -3 20 0 21 8 1 8 3 23 5 34 13 83 13 99 3 111 -9 12 -9 13 3 9 11 -4
17 6 25 40 7 29 7 48 1 51 -6 4 -6 9 1 13 13 8 31 98 24 118 -3 7 -1 13 5 13
5 0 8 14 7 30 -1 17 2 30 7 30 6 0 7 7 4 16 -4 10 1 22 11 30 15 11 15 13 3
14 -12 0 -13 2 -1 9 7 5 15 25 17 46 2 20 8 43 15 51 6 7 9 19 6 26 -2 7 2 33
9 58 8 25 14 57 14 73 0 15 4 35 9 45 8 14 45 177 57 247 2 11 13 60 23 110
11 49 23 112 26 140 4 27 10 66 15 85 5 19 6 38 1 43 -5 5 -11 -2 -14 -15z
m1483 -2522 c0 -13 7 -51 15 -83 8 -32 16 -76 18 -99 2 -23 6 -45 9 -50 11
-21 30 -104 26 -116 -3 -8 -11 0 -21 19 -9 17 -36 52 -59 78 -48 52 -94 125
-80 125 6 0 12 -7 16 -15 3 -8 12 -15 19 -15 11 0 13 12 11 45 -2 25 1 45 6
45 6 0 11 -8 11 -17 5 -62 22 -138 35 -158 17 -23 18 -12 4 35 -6 19 -11 61
-11 92 0 32 -3 60 -7 62 -12 7 -14 76 -2 76 5 0 10 -11 10 -24z"/>
<path d="M6324 3109 c-20 -7 -60 -50 -119 -129 -27 -36 -32 -47 -22 -59 10
-12 9 -14 -4 -9 -19 7 -40 -9 -33 -26 2 -6 24 -10 52 -9 43 2 44 2 14 -6 -19
-5 -39 -14 -45 -21 -9 -9 1 -11 48 -6 33 3 93 8 133 12 73 6 106 20 52 22 -39
1 -57 12 -39 23 11 7 11 9 1 9 -7 0 -15 -7 -18 -15 -4 -8 -17 -15 -29 -15 -13
0 -27 -4 -30 -10 -8 -12 -25 -13 -25 -2 0 10 51 37 63 33 5 -1 6 3 2 9 -4 6 8
10 30 10 22 0 34 -4 30 -10 -10 -16 12 -12 29 5 8 8 30 15 48 16 27 0 29 2 13
8 -11 5 -24 6 -29 3 -14 -8 -226 -9 -231 -1 -9 13 42 18 264 25 232 7 285 24
77 24 -66 0 -116 3 -112 7 8 8 30 10 151 12 66 1 86 4 78 12 -11 11 -37 11
-298 -5 -38 -3 -60 -2 -47 0 12 3 22 10 22 16 0 6 6 5 15 -2 12 -10 21 -10 38
-1 12 6 36 11 52 10 17 -1 44 2 60 6 17 4 49 8 72 8 23 1 45 5 49 10 7 7 -6 8
-153 11 -100 1 -122 16 -27 17 38 1 83 5 99 9 23 6 13 8 -45 11 -148 6 -167 6
-186 -2z"/>
<path d="M15928 2882 c-31 -13 -4 -31 62 -41 74 -12 576 -15 583 -3 3 4 -18 8
-46 9 -28 2 -53 7 -57 13 -3 5 -17 7 -30 3 -42 -11 -264 -12 -277 -1 -7 6 -24
8 -37 6 -17 -4 -23 -1 -19 9 4 10 -12 13 -78 12 -46 0 -92 -3 -101 -7z"/>
<path d="M12515 2869 c-16 -5 -69 -9 -117 -10 -49 0 -88 -5 -88 -10 0 -5 14
-9 30 -9 17 0 30 -5 30 -11 0 -9 64 -10 248 -5 210 7 264 9 324 15 4 1 5 8 1
16 -4 12 -14 14 -37 9 -17 -3 -78 -8 -136 -11 -95 -5 -103 -4 -91 11 11 14 11
16 -3 16 -9 0 -16 -7 -16 -16 0 -11 -5 -14 -17 -9 -10 4 -31 8 -48 9 -16 0
-34 4 -40 7 -5 3 -23 2 -40 -2z"/>
</g>
</svg>
