<?xml version="1.0" standalone="no"?>
<!DOCTYPE svg PUBLIC "-//W3C//DTD SVG 20010904//EN"
 "http://www.w3.org/TR/2001/REC-SVG-20010904/DTD/svg10.dtd">
<svg version="1.0" xmlns="http://www.w3.org/2000/svg"
 width="1928.000000pt" height="1074.000000pt" viewBox="0 0 1928.000000 1074.000000"
 preserveAspectRatio="xMidYMid meet">
<metadata>
Created by potrace 1.16, written by Peter Selinger 2001-2019
</metadata>
<g transform="translate(0.000000,1074.000000) scale(0.100000,-0.100000)"
fill="#000000" stroke="none">
<path d="M14560 8014 c0 -5 9 -20 20 -34 28 -36 25 -50 -12 -51 l-33 -2 35 -6
c23 -4 34 -11 32 -21 -2 -8 -3 -192 -3 -410 0 -217 -4 -492 -8 -610 -6 -178
-5 -218 7 -232 9 -11 12 -27 7 -48 -4 -17 -9 -44 -12 -58 -2 -15 -5 -463 -6
-997 -1 -537 -6 -976 -11 -984 -5 -8 -5 -16 1 -20 5 -3 11 -71 12 -151 1 -79
5 -149 8 -154 4 -5 -1 -7 -10 -3 -13 5 -15 2 -8 -16 5 -12 9 -116 9 -232 0
-115 1 -349 2 -519 2 -295 1 -310 -16 -317 -12 -4 -26 0 -36 9 -16 13 -18 13
-18 0 0 -21 37 -53 42 -37 5 14 48 -5 48 -22 0 -6 -6 -7 -12 -3 -8 4 -10 3 -5
-2 5 -5 14 -9 20 -9 5 0 12 -6 15 -12 2 -8 -6 -13 -20 -13 -20 -1 -21 -2 -5
-11 9 -5 17 -17 17 -25 0 -8 8 -18 18 -21 30 -12 103 -87 97 -101 -3 -9 0 -12
9 -9 18 7 49 -26 80 -89 21 -42 26 -66 26 -130 0 -42 2 -75 5 -72 4 4 24 131
28 173 0 12 301 7 305 -5 4 -10 360 -1 382 10 14 7 56 8 335 10 75 0 105 3 95
10 -8 5 -38 10 -67 10 -61 0 -83 7 -83 26 0 8 -7 14 -15 14 -8 0 -15 -7 -15
-15 0 -9 -9 -15 -22 -15 -17 0 -19 3 -10 12 7 7 12 42 12 85 0 86 -22 79 195
58 83 -8 151 -15 153 -15 1 0 2 4 2 10 0 5 -3 9 -7 9 -39 -6 -134 4 -145 15
-10 9 -40 13 -103 12 -88 -1 -90 0 -93 23 -4 22 -1 23 35 18 21 -3 66 -9 101
-13 34 -4 62 -11 62 -15 0 -5 17 -9 38 -8 20 0 31 3 25 6 -26 10 -12 23 24 23
20 0 33 -3 29 -7 -4 -5 -13 -8 -19 -8 -5 0 -12 -4 -14 -10 -2 -6 25 -10 69
-10 103 1 290 -11 319 -20 21 -7 22 -6 11 7 -10 13 -10 17 3 22 9 3 32 -12 62
-40 26 -26 73 -69 105 -97 32 -27 58 -54 58 -58 0 -5 -27 -9 -59 -9 -61 0 -89
-14 -48 -23 12 -3 45 -4 73 -2 28 1 56 0 61 -4 5 -3 31 -48 58 -98 27 -51 50
-91 52 -89 3 2 -12 39 -31 81 -20 43 -36 84 -36 92 0 24 35 -2 75 -57 20 -27
41 -50 47 -50 5 0 -1 14 -14 31 -59 80 -70 72 96 65 81 -4 194 -7 252 -7 l104
0 0 -67 c0 -82 18 -72 22 13 l3 59 39 -1 c22 0 46 6 54 13 9 9 37 14 83 14
l69 0 0 -82 c0 -46 5 -90 10 -98 7 -10 10 14 10 77 0 58 4 94 11 99 7 4 46 6
88 6 85 -2 134 5 126 18 -3 5 -18 5 -33 1 -22 -7 -101 -2 -134 7 -5 1 -18 2
-29 2 -21 0 -21 3 -14 73 4 39 8 213 9 384 1 242 -2 314 -11 318 -7 2 -13 10
-13 17 0 10 2 10 9 -1 5 -8 11 -9 15 -3 4 6 -2 16 -11 22 -13 8 -14 13 -5 16
7 4 12 25 12 55 0 28 -4 48 -9 45 -15 -10 -24 157 -16 293 7 131 7 253 -2 331
-2 25 -6 241 -8 480 -4 454 -14 723 -25 680 -4 -18 -13 -25 -30 -25 -25 0 -25
1 -23 85 1 47 2 89 2 94 1 4 13 5 27 2 19 -5 25 -3 22 6 -3 7 -14 14 -26 16
-12 2 -20 7 -17 12 3 4 14 6 25 3 17 -5 20 0 21 33 0 22 4 57 8 79 5 27 10
-34 15 -185 5 -124 10 -256 12 -295 1 -38 3 -267 3 -507 1 -406 8 -521 25
-381 11 94 7 963 -4 1024 -6 29 -10 101 -8 159 3 101 2 276 -2 521 -1 64 -6
138 -11 165 -5 27 -5 50 0 53 13 9 16 227 12 754 -3 426 -2 477 12 472 8 -4
18 -2 22 4 3 6 2 11 -4 11 -6 0 -18 9 -28 19 -10 11 -33 30 -50 43 -17 13 -79
64 -136 113 -147 127 -198 166 -209 159 -5 -3 -2 -14 7 -24 9 -10 14 -24 10
-29 -3 -6 -1 -11 5 -11 13 0 118 -84 216 -173 36 -32 69 -55 75 -52 5 4 16 1
24 -5 19 -15 21 -37 3 -23 -23 18 -340 22 -714 10 l-242 -8 -43 53 c-24 29
-80 87 -124 127 -44 41 -81 77 -83 81 -1 3 174 5 390 3 378 -3 458 2 458 27 0
5 -33 10 -72 12 -133 5 -642 -1 -732 -9 l-88 -8 -4 -80 c-1 -44 -8 -152 -15
-241 -9 -120 -10 -197 -2 -305 11 -147 9 -810 -2 -829 -3 -5 -1 -10 4 -10 6 0
11 -7 11 -16 0 -11 -5 -14 -16 -10 -14 5 -16 -1 -11 -46 7 -67 -1 -52 -51 88
-22 60 -51 133 -66 161 -14 29 -53 130 -85 225 -32 95 -80 220 -105 278 -26
58 -74 175 -107 260 -33 85 -69 169 -80 186 -21 35 -16 48 12 33 11 -6 19 -6
19 0 0 10 -30 25 -46 22 -12 -1 -139 158 -131 165 2 2 -18 26 -45 54 -28 27
-47 54 -43 59 3 6 2 11 -2 11 -5 0 -21 12 -36 26 l-28 26 7 -29 c11 -44 62
-123 119 -183 29 -30 62 -70 74 -87 12 -18 27 -32 33 -30 6 1 12 -3 15 -9 2
-7 -14 -10 -44 -9 -27 1 -224 3 -439 4 l-391 2 -31 32 c-16 18 -50 64 -75 102
-25 39 -55 81 -66 95 -35 43 -29 46 87 38 148 -9 722 -15 722 -6 0 19 -108 26
-540 34 -205 4 -327 10 -331 17 -4 5 -9 1 -11 -9 -3 -15 -11 -9 -41 30 -20 27
-37 45 -37 40z m2040 -406 c0 -9 5 -20 10 -23 11 -7 14 -48 4 -58 -4 -3 -8
-50 -9 -104 -2 -54 -4 -100 -4 -103 -1 -3 -1 -94 -1 -203 1 -188 0 -199 -18
-204 -13 -3 -22 -17 -26 -41 -9 -58 -7 -142 4 -142 6 0 10 35 10 85 0 66 3 85
14 85 24 0 26 -25 19 -215 -5 -145 -9 -185 -20 -185 -14 0 -16 11 -13 76 1 23
-2 44 -7 47 -4 3 -9 -11 -10 -31 -1 -21 -3 -53 -5 -72 -2 -29 1 -35 22 -40 23
-5 25 -10 28 -80 2 -48 -2 -89 -12 -115 -8 -22 -17 -51 -19 -65 -3 -19 -5 -17
-6 10 -1 23 -4 30 -10 22 -4 -7 -6 -25 -4 -40 3 -22 2 -24 -6 -10 -6 9 -13 43
-15 75 -9 124 -19 203 -27 203 -5 0 -9 16 -9 36 0 20 -4 33 -10 29 -10 -6 -5
-68 10 -94 5 -10 7 -27 4 -38 -3 -11 -1 -38 5 -59 8 -28 7 -40 -1 -45 -9 -6
-8 -11 1 -23 8 -9 9 -16 4 -16 -5 0 -15 12 -21 26 -7 14 -8 23 -2 19 17 -11
11 7 -7 20 -14 11 -15 16 -5 28 10 12 10 17 1 23 -8 4 -9 3 -5 -4 4 -7 2 -12
-3 -12 -6 0 -12 19 -12 43 -2 63 -5 90 -14 112 -6 17 -5 17 5 5 9 -12 10 -4 5
35 -3 28 -9 58 -12 69 -3 11 -1 16 5 12 9 -5 10 35 1 54 -1 3 -2 16 -3 29 -2
42 -26 37 -27 -6 -3 -69 4 -249 11 -278 1 -5 2 -21 1 -35 -2 -25 -2 -25 -15 5
-7 17 -11 36 -8 44 4 9 1 12 -6 7 -7 -4 -12 -2 -12 3 0 6 5 11 11 11 15 0 3
61 -13 71 -9 6 -9 14 1 33 11 19 12 46 6 113 -4 48 -9 239 -11 423 -1 184 -3
421 -4 525 -1 105 -1 194 -1 199 2 17 231 -218 231 -236z m-1740 -9 c0 -10 -5
-19 -12 -21 -6 -2 -8 -10 -4 -16 4 -7 7 -158 7 -335 -1 -177 -3 -968 -5 -1757
-3 -789 -8 -1464 -12 -1500 -3 -36 -11 -70 -16 -77 -6 -7 -4 -20 4 -34 11 -18
11 -22 -1 -27 -10 -3 -10 -6 -1 -12 10 -6 9 -16 -1 -45 -11 -30 -11 -39 -1
-42 6 -3 12 -11 12 -19 0 -9 -4 -13 -9 -9 -5 3 -12 -5 -14 -17 -2 -13 -5 10
-7 50 -1 39 -4 77 -5 82 -1 6 -3 17 -4 25 0 8 -4 15 -8 15 -5 0 -8 -115 -8
-255 0 -180 -3 -255 -11 -255 -6 0 -10 12 -8 27 1 15 0 31 -3 36 -3 5 -6 80
-8 166 -1 87 -6 164 -10 171 -4 7 -2 16 6 22 11 7 11 11 2 14 -7 3 -15 21 -19
40 -11 61 -20 36 -16 -48 10 -210 10 -322 2 -288 -20 83 -43 677 -29 732 4 15
4 30 0 32 -3 3 -5 23 -3 46 3 32 7 38 17 30 11 -9 12 -6 8 12 -3 13 -10 29
-16 36 -6 8 -6 12 2 12 6 0 11 7 11 15 0 8 5 15 11 15 7 0 0 11 -14 24 -17 16
-22 26 -14 29 9 4 9 8 -1 15 -7 5 -15 26 -16 47 -2 20 -7 40 -12 44 -13 9 -18
55 -5 47 6 -4 11 -15 11 -25 0 -10 6 -24 14 -30 11 -9 14 -6 18 18 2 16 2 30
-1 29 -19 -2 -24 4 -11 12 8 5 10 10 4 10 -7 0 -10 20 -7 59 3 36 1 61 -6 65
-7 5 -9 1 -5 -11 6 -15 4 -15 -9 2 -28 35 -18 61 12 32 11 -10 13 -9 8 5 -3
10 -2 20 3 23 15 10 12 35 -5 35 -22 0 -31 28 -34 108 -2 54 1 72 11 72 11 0
11 2 0 9 -10 6 -15 71 -19 282 -9 413 -9 1386 0 1449 4 30 8 99 7 153 0 64 3
97 10 97 6 0 8 5 5 11 -4 5 -8 148 -10 317 -1 169 -6 340 -10 380 -5 47 -4 72
3 72 5 0 39 -41 75 -90 74 -102 76 -112 76 -315 -1 -169 0 -195 9 -195 4 0 7
96 7 213 l0 214 -29 39 c-16 21 -54 68 -84 104 -43 51 -31 41 56 -45 62 -60
112 -117 112 -126z m902 9 c14 -11 38 -75 38 -101 0 -16 -21 5 -46 45 -14 22
-28 37 -31 35 -3 -3 18 -44 47 -91 54 -91 113 -213 162 -336 16 -41 38 -93 48
-115 10 -22 32 -76 48 -120 17 -44 48 -123 71 -175 22 -52 42 -105 44 -117 1
-11 9 -28 15 -36 7 -8 12 -19 11 -23 -1 -5 8 -31 20 -58 12 -27 29 -72 38
-100 62 -197 107 -328 136 -399 19 -45 53 -138 75 -207 34 -106 129 -331 199
-472 15 -32 48 -58 57 -46 2 1 -8 35 -21 73 -20 59 -25 95 -29 225 -9 306 -10
608 -1 603 5 -3 4 4 -2 15 -6 11 -8 35 -6 54 7 41 14 376 19 903 2 220 5 409
5 420 1 20 9 20 325 22 l324 2 6 -42 c8 -57 12 -1756 8 -3532 -1 -429 1 -802
4 -830 3 -27 7 -97 9 -155 1 -58 3 -115 4 -128 1 -13 6 -20 11 -17 6 3 10 -1
10 -9 0 -10 -6 -13 -15 -10 -12 5 -14 -1 -9 -37 l6 -44 -218 3 c-305 3 -361 8
-367 33 -3 12 0 22 9 26 11 4 7 13 -16 39 -37 43 -39 58 -5 50 14 -4 25 -2 25
4 0 5 -15 13 -32 18 -22 6 -33 15 -32 25 1 9 -2 15 -6 12 -4 -2 -17 24 -28 58
-68 200 -100 287 -109 299 -16 19 -39 76 -84 208 -22 63 -44 124 -49 135 -5
11 -19 51 -31 88 -25 81 -88 230 -123 292 -16 29 -20 45 -13 48 8 3 7 13 -5
35 -10 16 -18 38 -18 47 0 9 -6 29 -14 43 -21 42 -34 74 -41 107 -4 17 -22 62
-40 100 -19 39 -45 99 -58 135 -13 36 -43 113 -66 172 -22 59 -41 110 -41 115
0 4 -28 78 -61 163 -82 211 -99 258 -105 305 -5 40 -14 61 -14 32 0 -10 -4
-17 -8 -17 -14 0 -32 23 -32 40 0 9 -13 26 -30 38 -36 27 -39 15 -5 -22 13
-14 21 -26 17 -26 -4 -1 3 -9 16 -20 13 -11 21 -24 17 -30 -5 -8 -11 -7 -21 1
-22 18 -27 4 -9 -25 14 -22 16 -41 11 -118 -4 -51 -7 -100 -7 -108 -1 -8 0
-332 0 -720 1 -556 -4 -1340 -10 -1405 -1 -10 7 -70 17 -134 5 -33 5 -34 -27
-27 -17 3 -213 6 -434 6 l-402 0 -7 50 c-4 28 -6 594 -4 1258 2 664 3 1703 3
2309 0 606 3 1105 7 1109 4 4 88 13 185 20 98 7 196 15 218 18 22 3 128 8 235
12 107 3 197 8 199 10 7 7 17 4 33 -8z m1784 -1067 c11 9 14 8 14 -8 0 -10 6
-25 13 -31 15 -16 21 -208 7 -217 -6 -3 -10 -14 -10 -23 0 -11 -8 -18 -20 -18
-17 0 -25 13 -21 38 0 3 1 60 2 124 1 79 -3 120 -10 122 -6 2 -8 9 -4 15 5 8
8 7 11 -1 3 -10 7 -10 18 -1z m-32 -353 c0 -18 4 -44 8 -57 5 -15 4 -28 -3
-37 -8 -10 -9 -44 -4 -114 6 -87 5 -101 -9 -106 -9 -3 -16 -14 -16 -23 0 -13
2 -13 9 -2 6 10 10 10 16 1 10 -16 -8 -32 -28 -24 -21 8 -31 88 -23 206 3 51
8 102 10 113 3 11 5 24 5 28 1 5 6 5 13 1 7 -4 8 -3 4 5 -9 13 -1 41 11 41 4
0 8 -15 7 -32z m-23 -455 l1 -28 7 30 c6 25 8 27 12 10 8 -28 0 -45 -19 -45
-14 0 -13 -2 2 -13 16 -12 18 -34 20 -211 1 -181 -4 -234 -20 -191 -4 9 -2 21
3 26 12 12 5 59 -8 59 -5 0 -9 -14 -9 -31 0 -18 -4 -28 -10 -24 -6 4 -2 -11 9
-32 16 -32 20 -67 24 -217 4 -133 9 -181 19 -187 21 -13 29 -11 35 11 8 29 23
25 23 -6 0 -23 -3 -25 -34 -23 -19 2 -38 0 -42 -4 -4 -4 -3 -7 2 -7 5 0 9 -46
9 -102 l0 -103 33 3 c24 3 32 -1 32 -13 0 -13 -6 -16 -24 -11 -20 5 -25 2 -29
-16 -4 -23 -4 -23 -15 2 l-11 25 -1 -30 c0 -23 -3 -26 -10 -15 -7 12 -11 10
-19 -10 -8 -20 -10 -12 -10 45 -1 115 10 205 25 205 8 0 14 5 14 11 0 6 -9 8
-21 4 -19 -6 -20 -3 -17 42 2 32 7 47 16 46 15 -4 16 33 0 43 -8 5 -9 1 -5
-12 7 -18 6 -18 -8 1 -14 18 -14 20 0 23 12 3 14 14 10 55 -3 29 -7 90 -8 137
-3 70 -7 86 -20 88 -20 4 -21 6 -4 32 10 17 9 22 -2 29 -9 6 -10 11 -2 15 6 4
11 2 11 -5 0 -10 3 -10 12 -1 10 10 10 15 1 20 -7 5 -9 13 -4 21 5 7 14 10 20
7 6 -4 11 0 11 9 0 10 -7 15 -17 13 -12 -2 -18 3 -17 15 1 9 -2 17 -7 17 -5 0
-9 5 -9 10 0 18 22 10 27 -10 6 -22 19 -26 25 -8 3 7 -5 20 -16 30 -13 11 -16
17 -8 18 7 0 11 4 8 8 -5 8 -8 207 -4 255 2 28 18 20 19 -10z m-1658 -1113
c13 -41 45 -123 71 -183 25 -59 52 -124 60 -145 8 -20 28 -75 46 -122 17 -47
46 -128 65 -180 19 -53 59 -163 91 -245 83 -220 85 -227 79 -243 -3 -8 1 -25
10 -38 29 -45 129 -304 120 -312 -3 -3 -23 15 -46 39 -41 43 -45 36 -5 -9 16
-18 18 -25 7 -31 -9 -6 -10 -11 -2 -15 6 -4 15 -5 20 -2 16 11 38 -5 81 -55
45 -53 47 -72 6 -45 -32 20 -47 20 -39 0 4 -12 2 -15 -8 -12 -8 3 -14 10 -14
15 0 6 -2 13 -5 16 -3 3 -117 8 -255 11 -137 4 -264 10 -282 13 l-32 5 0 527
c0 289 -3 659 -6 821 -4 190 -3 290 3 280 6 -8 21 -49 35 -90z m387 -530 c12
-25 33 -76 47 -115 14 -38 38 -97 54 -129 16 -32 27 -61 24 -64 -3 -3 -5 1 -5
8 0 7 -2 11 -5 8 -9 -9 7 -38 17 -32 6 4 8 -2 3 -15 -4 -14 -2 -23 8 -27 15
-5 60 -123 56 -146 -1 -7 2 -24 8 -38 26 -63 26 -76 0 -38 -25 36 -52 110 -50
135 0 7 -2 11 -6 9 -8 -6 -45 73 -77 165 -13 37 -35 92 -48 121 -29 65 -39 90
-41 103 -2 14 -14 44 -30 80 -21 48 -26 66 -19 77 7 11 19 -9 64 -102z m1302
-48 c1 -30 3 -31 35 -27 l33 4 0 -72 c0 -77 -10 -98 -41 -90 -16 5 -19 15 -19
74 0 66 -12 90 -25 50 -6 -21 -5 -95 2 -123 2 -10 14 -18 26 -19 12 0 16 -3
10 -6 -7 -2 -13 -11 -13 -19 0 -8 -4 -14 -10 -14 -5 0 -10 5 -10 10 0 6 -8 10
-19 10 -17 0 -19 10 -20 115 -2 96 1 116 14 121 8 3 15 13 15 22 0 31 21 -4
22 -36z m-2871 -174 c1 -13 3 -35 5 -51 1 -15 0 -25 -4 -23 -4 2 -5 -22 -2
-54 3 -33 2 -56 -3 -53 -5 3 -6 -5 -1 -18 4 -13 7 -33 6 -44 -8 -112 0 -399
14 -485 5 -33 5 -34 -12 -18 -15 15 -19 42 -25 155 -5 105 -5 496 0 601 1 22
21 13 22 -10z m2855 -218 c3 0 2 5 -1 10 -3 6 -1 10 5 10 6 0 13 -7 16 -15 4
-8 18 -15 32 -15 22 0 24 2 11 13 -8 6 -12 11 -10 10 2 -2 10 2 18 8 11 9 13
-3 13 -69 0 -45 -4 -84 -10 -87 -5 -3 -10 -17 -10 -31 0 -18 -5 -24 -21 -24
-20 0 -21 4 -18 85 3 63 1 85 -8 85 -9 0 -13 -19 -14 -62 0 -78 -11 -140 -24
-145 -6 -2 -10 48 -10 137 0 119 2 135 13 114 7 -13 15 -24 18 -24z"/>
<path d="M16742 6388 l3 -113 46 -3 c72 -5 80 9 77 127 l-3 96 -63 3 -63 3 3
-113z m101 80 c-2 -5 -3 -46 -3 -93 l0 -85 -40 0 -40 0 0 96 0 95 43 -3 c23
-2 41 -6 40 -10z"/>
<path d="M16762 5700 c-22 -9 -23 -13 -20 -117 l3 -108 54 1 c33 1 56 6 62 15
4 8 7 56 6 108 -2 83 -5 95 -22 102 -27 10 -55 10 -83 -1z"/>
<path d="M16957 5703 l-28 -4 3 -107 3 -106 34 -9 c22 -5 43 -4 62 4 l29 11 0
104 c0 92 -2 104 -17 104 -10 0 -27 2 -38 4 -11 2 -33 1 -48 -1z m83 -118 l0
-95 -40 0 -40 0 -1 48 c-1 26 -3 63 -5 82 -6 51 1 60 46 60 l40 0 0 -95z"/>
<path d="M17154 5700 c-16 -6 -22 -20 -27 -62 -16 -131 -4 -168 54 -168 64 0
69 10 69 124 l0 104 -31 6 c-37 7 -38 7 -65 -4z m60 -16 c13 -5 16 -24 16
-101 l0 -94 -37 3 -38 3 -3 89 c-3 102 8 121 62 100z"/>
<path d="M16744 5263 c-10 -11 -12 -35 -8 -101 3 -48 7 -93 9 -99 3 -9 24 -13
60 -13 l55 0 0 110 0 109 -32 5 c-48 7 -68 4 -84 -11z m96 -108 l0 -95 -40 0
c-25 0 -40 5 -41 13 -3 29 3 163 8 170 2 4 20 7 39 7 l34 0 0 -95z"/>
<path d="M16943 5273 c-9 -3 -13 -36 -13 -113 l0 -108 31 -4 c18 -3 46 -2 63
1 l31 7 2 99 c2 84 0 102 -14 113 -17 12 -76 15 -100 5z"/>
<path d="M17164 5273 c-28 -5 -34 -28 -34 -136 l0 -88 58 3 57 3 3 103 c3 102
3 102 -23 112 -15 6 -29 9 -33 9 -4 -1 -17 -4 -28 -6z"/>
<path d="M16743 4832 c-7 -16 2 -191 10 -198 11 -11 82 -15 97 -5 21 14 28
199 9 212 -22 14 -110 7 -116 -9z m105 -99 l3 -93 -41 0 -40 0 0 96 0 95 38
-3 37 -3 3 -92z"/>
<path d="M16958 4843 c-16 -4 -18 -18 -18 -108 l0 -103 38 -3 c89 -9 87 -11
87 103 -1 91 -3 102 -20 109 -22 8 -60 9 -87 2z m82 -108 l0 -95 -40 0 -40 0
0 88 c0 49 3 92 7 95 3 4 21 7 40 7 l33 0 0 -95z"/>
<path d="M16759 4423 c-5 -14 -8 -63 -7 -107 3 -77 4 -81 29 -90 14 -5 41 -6
60 -2 l35 6 -1 105 c0 115 0 115 -73 115 -26 0 -34 -5 -43 -27z"/>
<path d="M17188 4443 l-38 -4 0 -82 c0 -45 -3 -92 -6 -104 -6 -21 -3 -23 37
-23 69 0 71 4 67 115 -2 55 -7 99 -13 100 -5 1 -27 0 -47 -2z"/>
<path d="M16973 4023 c-25 -5 -25 -3 -27 -125 -1 -52 3 -88 9 -89 6 0 23 -3
39 -5 17 -3 40 -3 52 0 22 6 22 9 17 103 -3 54 -8 101 -12 105 -9 10 -53 16
-78 11z"/>
<path d="M16998 3642 l-47 -3 -3 -82 c-2 -45 -1 -90 1 -100 5 -23 58 -36 95
-23 l28 11 -4 93 c-3 51 -9 96 -14 100 -5 4 -30 6 -56 4z"/>
<path d="M16755 3622 c-8 -21 -6 -165 3 -178 19 -29 110 -21 113 10 9 103 8
176 -3 177 -7 0 -34 1 -60 2 -33 2 -49 -1 -53 -11z"/>
<path d="M4773 7970 c-8 -30 -13 -34 -34 -30 -41 8 -1066 4 -1058 -4 2 -2 96
-7 209 -10 113 -4 270 -12 349 -18 136 -10 342 -6 439 8 35 6 42 4 42 -10 0
-9 -7 -16 -15 -16 -8 0 -22 -8 -32 -19 -10 -10 -52 -43 -93 -73 -41 -31 -90
-72 -109 -92 -19 -19 -37 -33 -41 -31 -4 3 -18 -10 -30 -28 l-22 -32 -242 3
c-276 5 -356 21 -111 23 208 1 307 7 319 19 5 5 -24 7 -75 4 -46 -2 -157 -5
-247 -6 -123 0 -167 -4 -177 -14 -18 -19 -41 -18 -49 2 -5 13 -15 15 -54 9
-26 -4 -50 -11 -53 -17 -3 -5 -18 -11 -32 -12 -15 -2 -24 1 -21 6 3 5 12 7 20
4 7 -3 16 0 20 5 4 7 -4 9 -22 7 -16 -1 -32 -9 -35 -17 -3 -9 -26 -15 -63 -17
-33 -1 -55 1 -50 6 5 4 74 52 154 105 157 106 234 164 226 172 -9 10 -88 -37
-263 -156 -95 -64 -189 -125 -210 -136 -37 -20 -37 -20 -11 -23 34 -4 36 -17
36 -357 0 -148 3 -422 7 -607 l8 -338 -69 0 c-98 1 -141 13 -183 54 l-36 36
-32 -20 c-17 -10 -37 -28 -43 -39 -9 -18 -66 -43 -80 -35 -3 1 -5 269 -5 596
0 444 3 592 12 591 12 -3 8 292 -5 357 -4 19 -3 49 3 67 8 27 15 33 38 33 16
0 26 4 22 10 -3 6 -17 8 -29 6 -13 -2 -214 -7 -447 -11 -233 -4 -441 -11 -461
-16 -20 -5 -58 -27 -85 -48 -27 -21 -71 -50 -98 -65 -28 -16 -62 -37 -77 -47
-14 -11 -29 -19 -33 -19 -3 0 -21 -11 -38 -24 -28 -20 -94 -56 -104 -56 -1 0
-3 5 -3 11 0 6 -7 17 -15 25 -13 14 -15 13 -15 -10 0 -14 -9 -31 -22 -40 l-22
-16 22 0 c20 0 22 -4 16 -22 -4 -13 -7 -36 -7 -53 16 -386 28 -772 27 -885 -2
-193 -16 -515 -24 -546 -4 -18 -4 -51 0 -75 6 -35 11 -213 10 -411 0 -26 0
-33 9 -148 10 -119 6 -1105 -4 -1192 -7 -67 27 -379 57 -518 26 -118 96 -283
176 -415 33 -55 58 -102 56 -104 -3 -3 -41 31 -86 75 -136 132 -47 30 123
-143 94 -95 189 -181 231 -210 40 -26 76 -51 80 -54 5 -3 11 -40 14 -82 6 -74
5 -77 -18 -86 -15 -7 49 -10 197 -11 122 0 238 -5 260 -11 53 -15 682 -22 690
-9 4 6 -15 10 -50 10 -31 0 -54 4 -51 9 3 5 0 9 -7 8 -54 -2 -107 5 -107 13 0
7 32 10 88 8 48 -1 121 0 162 1 41 2 83 0 92 -4 10 -4 23 -5 30 -2 8 4 6 6 -4
6 -10 1 -18 5 -18 10 0 9 44 16 165 26 124 10 165 17 160 25 -3 5 -22 6 -42 3
-31 -5 -35 -4 -30 10 4 11 1 17 -8 17 -9 0 -12 -6 -8 -16 5 -14 3 -15 -12 -7
-13 8 -28 7 -51 -3 -41 -17 -82 -18 -44 -1 14 6 76 35 138 65 63 30 116 51
120 48 3 -4 6 -44 7 -90 l2 -83 -163 2 c-89 0 -161 -2 -158 -6 2 -4 -4 -10
-13 -12 -10 -3 5 -6 32 -7 137 -8 206 -6 270 6 46 9 73 10 79 4 14 -14 37 -12
55 5 9 8 28 26 44 40 15 14 27 32 27 40 0 7 10 15 23 17 15 2 21 9 19 22 -2
12 1 16 10 10 7 -4 31 -7 53 -7 l40 2 -38 -8 c-39 -8 -54 -17 -45 -26 3 -3 47
-5 99 -5 52 0 106 1 121 0 15 0 30 5 34 11 4 7 3 9 -3 6 -13 -8 -94 14 -87 24
3 5 17 6 31 3 18 -5 24 -3 19 5 -11 18 5 13 21 -6 13 -16 13 -16 7 7 -9 34
-12 36 -34 22 -10 -6 -22 -8 -25 -3 -6 10 50 32 59 24 3 -4 6 -2 6 4 0 15 -38
20 -95 13 -48 -7 -53 -14 -7 -10 14 1 22 -4 22 -15 0 -9 -4 -13 -10 -10 -5 3
-19 1 -30 -5 -16 -8 -18 -8 -14 4 4 11 -2 15 -28 14 -18 0 -37 -3 -43 -7 -5
-3 -22 -6 -37 -6 -20 0 -24 3 -16 13 6 6 32 12 59 12 33 0 49 4 49 13 0 8 19
13 58 14 151 5 262 16 262 25 0 6 -11 7 -26 4 -22 -6 -25 -4 -20 12 11 35 -14
42 -84 26 -98 -22 -170 -28 -170 -14 0 6 5 8 11 5 6 -4 31 -4 57 1 l47 8 -45
7 c-25 4 -67 8 -95 10 l-50 1 55 9 c55 8 119 7 136 -3 5 -3 41 -2 79 2 39 5
75 5 80 1 18 -12 115 -14 115 -2 0 6 -4 11 -10 11 -5 0 -10 3 -10 8 0 4 25 8
55 9 41 2 55 -1 55 -12 0 -21 15 -27 86 -32 42 -3 64 -1 64 6 0 6 -21 11 -49
11 -30 0 -51 5 -54 13 -4 9 -6 9 -6 0 -1 -7 -8 -13 -16 -13 -18 0 -20 20 -2
20 6 1 1 7 -12 14 -14 8 -61 14 -110 16 -77 1 -142 5 -251 14 -19 1 -45 -1
-58 -6 -12 -4 -44 -3 -70 2 -30 7 -76 7 -127 2 -44 -5 -82 -7 -85 -5 -2 2 41
48 95 102 160 158 373 384 326 346 l-25 -20 24 40 c28 48 40 63 40 49 0 -5 -6
-16 -12 -24 -11 -12 -10 -12 5 -1 10 8 16 19 14 25 -3 6 8 34 23 61 15 28 42
91 60 140 18 50 35 97 38 105 3 8 6 22 8 30 1 8 16 68 33 132 28 104 52 220
67 313 8 53 7 202 -2 216 -3 5 -7 93 -10 196 -2 104 -7 280 -10 393 -3 113 -5
212 -4 220 0 8 -1 164 -1 345 -1 373 1 1380 3 1555 1 63 0 158 -1 210 -1 52
-2 142 -2 200 l1 105 31 18 c17 9 43 17 57 18 l27 1 -28 8 c-19 6 -36 4 -55
-6 -36 -18 -44 -18 -38 4 2 9 1 35 -3 57 l-8 40 -10 -35z m-1783 -59 c0 -5
-19 -23 -42 -40 -58 -42 -162 -121 -226 -172 -45 -36 -60 -42 -100 -42 -26 0
-37 -2 -24 -4 22 -4 29 -17 13 -27 -5 -3 -107 -8 -227 -12 -121 -3 -239 -9
-264 -14 -25 -5 -71 -12 -102 -16 -105 -12 -60 -19 99 -17 87 2 233 4 326 5
l167 3 1 -390 c0 -214 1 -433 1 -485 1 -52 1 -144 0 -205 -1 -60 1 -162 4
-225 l7 -116 -26 -17 c-31 -20 -56 -21 -91 -6 -13 6 -36 9 -51 5 -31 -8 -67
-63 -60 -93 4 -17 -10 -34 -76 -88 -80 -66 -97 -73 -151 -60 -19 5 -31 2 -47
-14 -25 -25 -28 -79 -6 -87 26 -10 17 -40 -37 -115 -29 -41 -61 -86 -70 -101
-12 -17 -30 -29 -52 -34 -63 -11 -91 -72 -55 -118 l22 -27 -26 -82 c-15 -45
-30 -98 -35 -117 -6 -29 -16 -39 -55 -58 -26 -12 -47 -29 -47 -37 0 -20 25
-19 55 1 29 19 32 7 10 -36 -11 -21 -23 -30 -40 -30 -31 0 -31 -7 0 -40 l25
-26 -7 -193 c-5 -154 -9 -191 -20 -187 -16 6 -17 -17 -3 -44 6 -11 16 -17 24
-14 7 3 16 -2 20 -11 4 -12 0 -19 -14 -22 -26 -7 -22 -38 4 -38 12 0 22 -10
27 -25 4 -14 16 -54 27 -90 11 -36 29 -81 40 -100 21 -34 21 -35 2 -55 -22
-24 -35 -93 -21 -115 6 -8 32 -17 62 -20 52 -5 52 -5 93 -72 23 -37 49 -77 59
-88 18 -21 23 -50 8 -50 -13 0 -41 -64 -41 -95 0 -21 8 -29 38 -42 34 -14 41
-14 84 1 55 19 55 20 166 -58 52 -36 71 -55 67 -66 -19 -47 -17 -69 8 -94 33
-33 97 -36 127 -6 24 24 56 25 112 3 24 -9 45 -17 46 -19 2 -1 -12 -51 -31
-111 -19 -59 -49 -162 -67 -228 -17 -66 -34 -126 -36 -132 -2 -9 -24 -13 -63
-13 -74 0 -90 -6 -84 -31 3 -11 -1 -21 -10 -25 -18 -6 -62 22 -126 81 -35 32
-41 35 -31 15 13 -25 -111 82 -176 152 -106 112 -221 309 -272 463 -36 111
-39 122 -63 265 -10 63 -21 125 -23 137 -3 13 -1 25 5 28 5 4 9 -2 9 -11 0
-10 2 -15 5 -12 3 3 -2 36 -11 74 -20 83 -23 296 -10 679 5 143 8 269 8 280
-6 208 -25 622 -29 627 -2 5 -3 167 -1 360 4 593 3 899 -4 1220 -6 234 -5 309
4 314 7 4 105 7 219 6 115 -1 210 2 213 7 8 12 -250 25 -314 17 -28 -4 -50 -3
-50 2 0 10 170 121 238 156 26 13 60 38 76 55 l30 31 240 0 c212 0 294 4 525
25 30 3 56 7 59 10 9 9 42 6 42 -4z m-15 -228 c-3 -93 -8 -217 -11 -278 -3
-60 -5 -139 -5 -175 1 -36 4 -254 7 -485 4 -248 3 -434 -3 -455 -9 -33 -12
-35 -56 -38 -35 -2 -55 2 -75 16 -44 32 -72 32 -103 1 -11 -11 -23 -19 -25
-16 -4 3 -5 247 -2 315 1 9 6 20 12 25 8 5 8 9 -1 15 -9 6 -11 88 -7 339 2
182 7 357 10 389 7 74 9 122 12 204 l2 65 62 50 c78 62 158 143 158 159 0 10
19 36 27 36 1 0 0 -75 -2 -167z m1780 -850 c0 -555 1 -1091 2 -1193 2 -188 -1
-248 -12 -308 -3 -19 -2 -31 2 -29 5 3 8 -38 9 -91 0 -54 3 -152 7 -219 6 -96
5 -123 -5 -124 -10 0 -10 -2 0 -6 6 -2 12 -16 12 -29 0 -14 -4 -22 -10 -19 -6
4 -9 -12 -9 -42 l2 -48 6 40 c6 40 7 40 13 -20 4 -33 3 -64 -2 -69 -5 -5 -7 0
-3 13 3 12 1 21 -6 21 -8 0 -10 -19 -8 -57 2 -32 0 -74 -4 -94 -5 -20 -11 -64
-13 -99 -6 -75 -16 -92 -16 -26 0 29 -4 45 -10 41 -5 -3 -10 -22 -10 -41 0
-20 -5 -45 -12 -57 -10 -20 -10 -21 5 -8 10 8 17 9 17 3 0 -6 -4 -13 -9 -16
-5 -4 -6 -17 -3 -31 4 -14 5 -58 1 -98 -3 -39 -5 -102 -5 -139 1 -36 -2 -64
-6 -62 -3 2 -4 -6 0 -18 4 -16 2 -19 -8 -13 -10 6 -12 4 -7 -8 6 -16 -24 -121
-58 -201 -18 -42 -32 -45 -16 -3 7 18 7 27 -2 31 -8 3 -6 10 7 20 11 9 17 19
13 22 -4 4 -2 12 3 19 19 22 40 95 27 92 -6 -1 -13 8 -15 21 -2 12 2 22 8 22
6 0 10 8 8 18 -2 9 3 16 10 15 6 -2 12 2 12 7 0 6 -5 10 -10 10 -6 0 -8 11 -4
25 5 19 3 25 -7 23 -14 -3 -25 -34 -35 -98 -2 -19 -12 -45 -20 -58 -9 -13 -13
-26 -11 -29 8 -7 -14 -63 -25 -63 -5 0 -7 -9 -3 -19 3 -11 0 -23 -6 -27 -9 -5
-10 -2 -6 9 3 9 3 19 -2 21 -17 11 2 82 30 109 20 19 26 57 9 57 -5 0 -10 -9
-10 -19 0 -22 -17 -37 -28 -26 -4 4 -1 10 6 12 6 3 12 12 12 21 0 10 7 25 15
35 7 11 11 26 8 35 -4 13 -2 13 9 -2 11 -14 17 -16 23 -6 4 7 2 16 -5 20 -10
6 -10 12 2 29 8 11 18 18 22 13 4 -4 5 5 1 20 -9 36 6 63 16 28 6 -23 7 -23 8
-3 1 12 -6 28 -14 37 -17 17 -20 36 -5 36 6 0 10 -4 10 -10 0 -5 5 -10 11 -10
6 0 8 9 3 23 -9 31 -14 34 -24 17 -11 -17 -13 -9 -4 14 3 9 9 14 13 12 4 -3 8
13 8 35 1 23 -2 37 -8 34 -5 -4 -9 1 -9 9 0 9 4 16 8 16 5 0 8 22 8 49 -1 27
-4 47 -7 45 -13 -7 -41 -183 -40 -249 0 -66 -10 -118 -21 -107 -6 6 -6 17 2
31 6 12 9 27 7 34 -3 8 -6 7 -10 -3 -3 -8 -8 -24 -13 -35 -4 -11 -6 -23 -6
-27 1 -5 -2 -8 -7 -8 -5 0 -16 -19 -25 -41 -9 -23 -19 -40 -21 -37 -8 8 15 76
30 88 8 7 15 25 15 39 0 15 9 37 20 49 12 12 16 22 10 22 -7 0 -8 6 -2 18 12
21 21 121 13 127 -4 2 -8 -11 -10 -28 -6 -61 -8 -72 -16 -107 -7 -28 -9 -31
-15 -15 -4 11 -3 26 2 32 6 7 7 20 4 30 -4 9 -1 20 6 25 8 5 9 11 3 16 -5 4
-11 18 -12 32 -1 14 -4 36 -6 50 -2 14 3 40 11 59 9 24 10 37 3 44 -15 15 -14
27 2 27 7 0 28 14 47 31 29 27 32 32 17 41 -21 11 -23 42 -2 34 9 -3 15 0 15
10 0 11 -6 14 -16 10 -8 -3 -12 -2 -9 4 3 5 -4 17 -15 27 -43 36 -67 115 -37
126 10 4 10 7 0 18 -15 15 -17 39 -4 39 5 0 12 -8 14 -17 4 -14 5 -12 6 5 1
13 -5 22 -14 22 -18 0 -20 17 -2 23 9 3 9 9 0 25 -10 16 -9 23 7 37 23 21 34
6 32 -44 -1 -30 1 -33 9 -18 9 16 8 54 -6 157 -2 16 -9 34 -33 90 -8 19 -16
40 -17 45 0 6 -5 19 -10 30 -29 71 -34 90 -28 113 4 17 2 23 -5 18 -8 -5 -10
3 -7 26 4 27 4 29 -3 8 -9 -27 -9 -70 0 -86 3 -5 9 -25 13 -44 4 -19 11 -39
15 -45 14 -20 17 -51 5 -62 -10 -9 -13 -6 -13 15 0 15 -8 47 -17 72 -21 57
-25 73 -32 134 -4 36 -3 47 6 42 14 -9 10 59 -4 71 -4 5 -5 3 -1 -4 3 -6 2
-14 -4 -18 -5 -3 -10 3 -10 14 0 10 4 21 8 23 5 2 7 31 4 65 -2 35 -8 60 -13
57 -5 -3 -9 28 -10 68 0 40 -2 93 -4 118 -16 222 -28 869 -26 1396 l1 312 85
62 c57 42 85 69 85 82 0 18 -4 16 -42 -13 -24 -17 -52 -42 -63 -54 -11 -13
-31 -26 -45 -29 -24 -7 -24 -6 6 21 36 32 145 116 158 122 5 2 6 -1 2 -8 -4
-6 -3 -11 2 -11 5 0 15 14 22 30 7 17 15 28 18 26 3 -4 97 78 97 84 0 0 0
-453 0 -1007z m-800 749 c5 -4 -12 -10 -40 -13 -27 -3 9 -4 80 -1 136 5 354
-5 373 -17 8 -5 13 -178 17 -606 7 -807 13 -1152 20 -1262 3 -51 2 -93 -2 -93
-15 0 -87 82 -126 142 -20 32 -59 81 -87 110 -27 29 -50 57 -50 61 0 16 38
-13 65 -50 51 -67 65 -67 36 0 -23 52 -60 82 -91 72 -43 -14 -160 85 -196 165
-34 76 -54 95 -91 85 -84 -23 -208 16 -241 76 -9 17 -24 40 -33 51 -15 20 -16
20 -48 4 -18 -10 -34 -16 -36 -14 -2 2 -6 131 -9 288 -13 631 -25 934 -41 987
-7 22 -7 22 136 26 165 4 349 -1 364 -11z m-871 -1368 c3 -9 -1 -14 -14 -14
-10 0 -21 -8 -25 -19 -12 -38 -46 -66 -82 -67 -19 -1 -39 -7 -44 -15 -7 -11
-9 -11 -9 3 0 10 -9 22 -20 28 -26 14 -26 46 1 60 11 7 23 9 26 7 2 -3 16 1
31 9 24 12 28 12 40 -3 6 -9 12 -12 12 -5 0 13 51 40 67 34 6 -2 14 -10 17
-18z m91 -14 c11 0 42 -20 69 -44 55 -50 54 -50 145 3 29 18 55 31 56 29 1 -2
5 -31 8 -66 5 -55 3 -62 -11 -58 -19 6 -249 29 -272 28 -39 -3 -128 -11 -136
-13 -5 -1 -17 -1 -27 0 -20 1 -18 26 2 26 7 0 18 8 25 17 7 10 16 15 19 12 8
-8 29 35 22 46 -3 5 0 7 8 5 7 -3 22 4 32 15 13 14 22 17 29 10 5 -5 19 -10
31 -10z m365 -40 c0 -20 0 -20 19 -1 19 19 20 19 87 -4 95 -31 120 -44 158
-80 l33 -31 -17 -57 c-10 -31 -14 -59 -9 -62 7 -5 29 55 29 81 0 6 7 17 15 24
12 10 25 7 69 -20 30 -18 78 -54 108 -79 l54 -46 -126 1 c-119 0 -127 2 -170
29 -25 15 -47 31 -50 34 -3 3 -9 6 -15 6 -14 0 -198 76 -209 86 -5 5 6 8 25 8
19 0 49 4 67 10 18 5 40 7 49 4 8 -3 18 -1 22 4 3 5 15 15 26 21 23 13 8 11
-120 -13 -81 -16 -85 -14 -85 58 0 40 3 47 20 47 13 0 20 -7 20 -20z m-830
-45 c0 -14 -4 -25 -10 -25 -5 0 -10 7 -10 16 0 8 -4 12 -10 9 -5 -3 -10 -17
-10 -30 0 -36 -31 -95 -50 -95 -9 0 -16 -8 -16 -19 0 -11 4 -17 8 -15 4 3 8 0
8 -5 0 -6 -3 -11 -8 -11 -4 0 -52 -34 -107 -75 -61 -46 -110 -75 -125 -75 -20
0 -22 -2 -10 -10 13 -9 13 -12 0 -23 -29 -23 -158 -194 -180 -238 -12 -24 -30
-53 -40 -64 -10 -11 -27 -55 -39 -98 -12 -43 -32 -105 -46 -137 -14 -33 -25
-67 -25 -77 0 -20 -105 -123 -126 -123 -19 0 -18 38 2 58 15 14 15 17 0 27
-20 15 -21 46 -3 115 20 73 26 87 42 94 10 3 16 -5 20 -28 8 -40 65 -130 65
-103 0 10 -11 33 -25 51 -14 18 -28 47 -31 65 -4 17 -11 34 -15 37 -5 3 -9 14
-9 25 0 21 20 25 37 8 8 -8 22 -5 51 10 55 28 65 49 20 42 -15 -2 -8 28 8 31
12 2 9 11 -15 43 -31 41 -38 61 -23 67 5 2 27 31 50 65 23 34 47 65 53 69 17
10 29 -16 27 -57 -1 -24 5 -43 17 -55 17 -18 18 -17 11 16 -3 19 -6 52 -6 73
1 20 -4 37 -10 37 -5 0 -10 7 -10 15 0 9 10 15 26 15 14 0 23 -4 19 -10 -4 -6
8 -10 30 -10 22 0 38 6 41 15 4 8 12 15 19 15 7 0 15 7 19 15 4 10 -1 15 -14
15 -22 0 -60 29 -60 45 0 13 80 90 132 128 43 32 62 35 49 10 -13 -26 -33
-144 -26 -151 11 -11 23 19 30 75 8 63 27 87 64 78 49 -12 63 -10 75 9 8 14 8
20 -3 23 -9 4 -10 8 -2 12 6 4 12 18 13 31 4 31 17 46 71 75 54 30 57 30 57 0z
m130 15 c0 -5 6 -10 14 -10 8 0 23 -10 33 -23 10 -13 26 -21 37 -19 11 2 16 0
12 -6 -4 -6 -53 -25 -109 -43 -56 -17 -105 -33 -109 -36 -5 -2 -8 3 -8 11 0 9
6 16 14 16 17 0 38 24 29 33 -3 4 -12 -1 -19 -11 -17 -22 -19 0 -3 30 9 17 13
18 21 7 7 -11 9 -9 7 6 -3 36 1 44 24 48 41 8 57 7 57 -3z m545 -101 c27 -5
54 -14 59 -19 5 -5 10 -152 10 -352 l1 -343 -69 -120 c-106 -184 -128 -226
-124 -230 6 -6 100 141 144 225 l39 75 3 -84 3 -83 -48 -52 c-26 -28 -65 -65
-87 -82 -37 -30 -40 -31 -69 -16 -36 18 -112 19 -133 1 -12 -10 -20 -7 -43 15
-38 36 -63 104 -59 158 l3 43 48 -99 c26 -55 49 -97 52 -95 7 8 -43 137 -72
187 l-28 47 -2 413 c-3 388 -2 412 14 413 75 6 96 9 102 14 7 8 190 -4 256
-16z m-409 -253 c-3 -132 -7 -257 -9 -276 -2 -19 -4 -71 -5 -115 -2 -60 -5
-76 -13 -65 -9 12 -10 11 -4 -5 7 -21 24 -143 25 -182 0 -13 -3 -23 -7 -22
-10 0 -61 69 -127 169 -27 41 -64 93 -81 115 -17 22 -42 69 -55 105 -21 58
-23 85 -25 242 l-2 178 61 29 c34 16 88 34 121 41 33 7 71 19 85 26 14 7 29
10 34 7 5 -3 6 -111 2 -247z m639 178 c50 -21 108 -49 130 -63 22 -14 54 -32
71 -41 49 -26 148 -116 233 -212 168 -188 271 -473 270 -743 0 -78 -18 -240
-39 -358 -12 -65 -63 -212 -83 -236 -7 -9 -23 -36 -37 -61 -89 -168 -271 -378
-387 -445 -26 -16 -54 -35 -62 -42 -21 -22 -91 -54 -101 -48 -5 3 -35 85 -66
183 -55 172 -56 178 -50 257 8 92 8 75 2 233 -3 67 -4 122 -2 122 2 0 54 -62
117 -137 162 -197 310 -365 316 -359 3 3 -37 54 -88 113 -146 170 -302 361
-326 401 -24 38 -32 122 -13 122 6 0 29 -13 52 -30 22 -16 44 -30 48 -30 5 0
63 -32 131 -71 147 -85 377 -201 389 -197 5 2 -48 32 -117 68 -192 99 -486
268 -501 288 -7 9 -12 28 -10 42 4 30 13 30 123 1 106 -29 575 -123 588 -118
6 2 -50 16 -124 31 -217 44 -439 94 -509 114 -63 18 -65 20 -68 53 l-3 35 153
12 c84 7 195 15 246 18 50 4 92 10 92 13 0 4 -80 1 -177 -6 -98 -6 -208 -12
-244 -12 l-67 -1 -5 33 c-6 41 0 55 26 63 193 57 728 276 713 291 -2 2 -17 -2
-33 -10 -41 -21 -246 -102 -418 -164 -82 -30 -178 -65 -213 -79 -34 -14 -66
-22 -71 -19 -5 3 -8 35 -7 72 l2 67 111 106 c60 58 152 144 204 190 159 141
220 200 209 200 -5 0 -23 -11 -38 -24 -15 -13 -79 -68 -142 -123 -63 -54 -165
-146 -226 -205 -61 -60 -115 -108 -119 -108 -4 0 -5 42 -3 93 l3 92 81 150
c45 83 96 176 113 208 18 32 31 63 28 70 -2 7 -14 -8 -26 -33 -12 -25 -36 -67
-53 -95 -17 -27 -53 -92 -80 -143 -50 -93 -65 -106 -62 -55 1 15 2 151 3 302
1 214 4 272 14 268 6 -3 53 -22 102 -43z m-986 -224 c1 -77 -2 -140 -6 -140
-4 0 -36 30 -70 67 -34 38 -62 65 -63 61 0 -3 27 -39 61 -79 34 -41 66 -85 71
-99 5 -14 11 -88 12 -165 1 -77 6 -147 11 -154 18 -30 -35 -1 -196 106 -195
130 -194 130 -185 115 8 -14 204 -151 292 -205 61 -38 125 -104 87 -90 -16 6
-17 5 -3 -12 9 -11 10 -16 3 -11 -18 10 -16 -9 2 -24 8 -7 15 -17 15 -22 0 -7
-5 -6 -13 0 -10 9 -13 3 -14 -26 -1 -20 1 -29 4 -19 5 20 23 13 23 -9 0 -17
-48 -19 -100 -4 -33 10 -291 68 -392 88 -27 5 -48 7 -48 3 0 -3 60 -19 133
-35 169 -36 333 -74 375 -87 37 -12 43 -29 10 -29 -22 -1 -22 -1 5 -18 32 -20
34 -28 8 -35 -13 -3 -21 1 -24 12 -2 9 -4 -4 -3 -29 l1 -45 -225 -17 c-124 -9
-247 -17 -275 -17 -27 -1 -45 -5 -38 -9 6 -4 128 0 270 10 142 9 262 13 266 9
4 -4 7 -43 5 -86 l-3 -78 -125 -39 c-176 -54 -336 -111 -323 -115 8 -3 248 71
407 126 16 6 33 8 37 5 5 -3 9 -39 9 -79 0 -67 -2 -76 -22 -86 -43 -23 -359
-251 -354 -256 5 -6 25 7 208 134 81 57 154 103 161 103 11 0 13 -21 10 -107
-2 -60 -6 -118 -9 -130 -2 -12 -28 -50 -57 -84 -91 -108 -117 -142 -113 -146
5 -5 70 64 128 137 l43 54 12 -94 c27 -214 45 -277 101 -343 29 -33 6 -26 -48
16 -30 24 -75 55 -100 69 -40 24 -80 58 -209 181 -70 66 -146 160 -189 232
-58 98 -72 136 -113 295 -17 70 -39 241 -32 253 4 7 6 44 5 82 -3 80 22 235
39 246 7 4 9 15 5 24 -11 31 102 325 125 325 5 0 9 6 9 14 0 16 81 140 116
177 13 14 24 30 24 35 0 6 13 20 29 32 16 12 53 43 81 69 67 62 133 105 140
93 4 -6 7 -73 9 -150z m1447 94 c6 -45 1 -120 -10 -131 -3 -4 -36 23 -73 58
-38 35 -83 75 -101 89 l-34 25 106 3 105 2 7 -46z m119 -60 c39 -47 80 -104
92 -127 12 -23 26 -47 31 -53 22 -25 42 -75 42 -103 0 -16 4 -32 9 -35 8 -5
24 -68 26 -101 0 -5 3 -14 6 -20 3 -5 7 -30 8 -55 1 -25 4 -53 7 -63 3 -10 -1
-19 -9 -23 -12 -4 -13 -10 -3 -28 7 -15 11 -65 9 -142 -2 -122 -2 -293 1 -353
1 -45 -24 -63 -53 -37 -21 19 -21 42 -5 171 8 64 11 208 4 215 -5 5 -47 186
-57 249 -7 42 -113 247 -174 337 l-28 42 32 -8 c62 -16 100 -29 124 -45 13 -9
29 -13 35 -9 19 12 -21 29 -172 72 -24 7 -25 11 -28 97 -3 142 1 143 103 19z
m-1433 -416 c14 -25 52 -81 84 -123 109 -142 113 -149 118 -197 3 -27 4 -48 1
-48 -5 0 -234 154 -252 170 -9 8 -13 51 -13 152 0 157 1 158 62 46z m-25 -241
c40 -33 122 -87 133 -87 4 0 10 -3 12 -7 2 -5 20 -21 41 -36 20 -15 37 -35 37
-44 0 -17 9 -19 -154 30 l-109 32 -2 68 c-2 37 0 67 5 67 5 0 21 -10 37 -23z
m1748 -62 c4 -38 9 -90 12 -115 8 -78 4 -215 -6 -218 -5 -2 -7 -10 -4 -18 3
-8 2 -22 -2 -31 -5 -10 -7 -31 -7 -48 1 -35 -19 -115 -29 -115 -4 0 -10 16
-14 36 -7 40 2 114 14 114 4 0 5 21 0 48 -4 26 -3 52 1 57 5 6 5 17 0 25 -5 8
-7 25 -4 36 3 12 7 87 8 166 4 162 3 155 15 143 5 -6 12 -41 16 -80z m-2459 8
c-4 -16 -9 -72 -13 -125 -6 -107 -13 -116 -54 -72 -13 14 -33 30 -44 36 -11 6
0 -10 24 -35 34 -35 44 -53 43 -77 0 -17 3 -28 7 -26 4 3 13 -27 20 -67 7 -40
17 -96 23 -125 6 -28 8 -55 5 -58 -7 -7 -66 32 -84 56 -6 8 -9 29 -7 45 l5 30
-15 -33 c-9 -19 -21 -32 -28 -30 -15 5 -43 80 -51 137 -5 37 -2 43 16 51 l22
9 -22 0 c-22 1 -23 5 -23 76 0 57 3 75 14 75 7 0 16 9 19 20 3 13 10 18 21 14
12 -4 16 0 16 16 0 21 84 110 104 110 4 0 5 -12 2 -27z m750 -104 c153 -46
179 -56 182 -71 2 -12 -18 -16 -124 -21 -70 -4 -128 -6 -129 -4 -7 8 -12 117
-6 117 4 0 39 -9 77 -21z m256 -31 c0 -7 2 -35 3 -63 2 -85 15 -145 30 -145
26 0 26 -19 1 -102 -44 -146 -76 -218 -61 -136 4 21 8 64 9 95 1 32 8 68 14
80 17 31 15 39 -7 19 -18 -16 -18 -15 -18 49 0 49 4 68 16 75 14 8 14 9 -1 10
-13 0 -17 8 -15 33 1 17 8 39 16 47 9 10 10 15 2 18 -14 5 -15 32 -1 32 6 0
11 -6 12 -12z m187 -18 c41 -20 51 -36 51 -78 0 -31 -37 -88 -65 -100 -22 -9
-55 -5 -55 7 0 5 -10 6 -22 4 -17 -3 -28 3 -41 27 -38 63 9 156 81 159 7 1 30
-8 51 -19z m241 -19 c0 -36 -7 -41 -67 -47 -66 -6 -66 -14 0 -14 61 0 68 -5
57 -35 -4 -11 -4 -32 1 -47 10 -36 -6 -46 -34 -20 -22 19 -60 42 -71 42 -16 0
-3 -19 17 -24 44 -11 86 -58 93 -103 9 -58 -6 -55 -54 10 -42 56 -72 85 -72
69 0 -5 7 -16 16 -23 9 -7 37 -40 62 -74 l47 -60 1 -160 c1 -88 4 -182 8 -210
5 -46 5 -48 -8 -25 -15 26 -126 351 -132 385 -2 11 -15 52 -29 90 -29 81 -28
75 -15 75 6 0 10 -8 10 -19 0 -10 32 -63 71 -117 111 -153 121 -156 20 -6 -31
46 -64 97 -74 115 -16 30 -16 33 0 45 9 6 13 12 9 12 -5 0 -4 6 2 13 5 6 8 38
6 70 -3 53 -2 57 19 57 12 1 36 7 52 15 50 22 65 19 65 -14z m-502 -69 c2 -14
-3 -24 -15 -28 -57 -19 -172 -65 -198 -78 -38 -20 -55 -20 -55 0 0 9 5 12 12
8 6 -4 8 -3 5 3 -4 6 -8 33 -10 61 l-4 51 56 4 c31 2 90 3 131 3 70 -1 75 -3
78 -24z m-2 -68 c-3 -9 -6 -21 -6 -28 0 -7 -37 -39 -82 -71 -46 -32 -104 -74
-130 -93 l-48 -34 0 70 c0 69 0 70 33 85 186 86 246 105 233 71z m1 -103 c-3
-23 -17 -52 -33 -72 -74 -85 -129 -145 -141 -154 -17 -13 -37 -78 -21 -69 7 5
9 -2 4 -20 -4 -18 -2 -26 6 -26 9 0 13 -20 12 -70 0 -38 -3 -73 -7 -76 -4 -4
-7 12 -7 35 0 29 -4 40 -12 35 -8 -5 -9 4 -4 34 5 33 3 42 -8 42 -22 0 -28 17
-16 40 7 12 7 26 2 36 -7 13 -10 8 -15 -21 -3 -21 -1 -45 5 -55 9 -14 7 -27
-10 -61 l-22 -44 0 148 c0 82 4 146 8 143 4 -2 9 -22 10 -42 2 -21 5 -41 8
-44 4 -3 4 22 3 54 l-4 60 55 39 c30 21 71 49 90 62 19 12 46 32 59 44 35 31
44 26 38 -18z m283 17 c0 -30 47 -178 110 -348 27 -74 67 -191 89 -260 22 -69
53 -161 71 -205 17 -44 44 -125 59 -180 16 -55 46 -145 66 -200 20 -55 61
-165 89 -245 29 -80 60 -162 69 -184 22 -49 22 -48 -14 -44 -34 3 -36 7 -131
298 -13 41 -65 197 -115 345 -174 523 -255 771 -283 868 -16 54 -36 110 -45
124 -20 30 -13 53 15 53 14 0 20 -7 20 -22z m-100 2 c0 -5 -14 -60 -30 -122
-17 -62 -35 -136 -40 -164 -4 -27 -26 -104 -48 -170 -50 -152 -75 -240 -98
-334 -10 -41 -21 -79 -25 -85 -4 -5 -10 -25 -14 -44 -4 -19 -13 -41 -20 -47
-7 -7 -16 -35 -19 -61 -4 -26 -22 -104 -41 -173 -48 -183 -105 -424 -105 -447
0 -17 -8 -21 -47 -26 -27 -3 -49 -4 -50 -3 -2 1 8 30 21 64 13 34 27 76 31 94
4 18 45 148 91 288 120 364 128 390 169 544 20 76 45 158 55 182 11 24 42 130
69 236 70 268 74 278 88 278 7 0 13 -4 13 -10z m1222 -54 c34 -34 48 -62 48
-94 0 -33 -33 -72 -60 -72 -11 0 -20 -7 -20 -15 0 -23 21 -18 53 13 l29 27 -6
-35 c-4 -19 -8 -51 -10 -70 -1 -19 -3 -43 -4 -52 -1 -10 -8 -18 -16 -18 -8 0
-16 -7 -20 -15 -3 -8 -1 -15 4 -15 29 0 -66 -189 -115 -230 -9 -7 -24 -31 -34
-54 -20 -43 -218 -256 -237 -256 -6 0 -15 23 -18 52 -6 43 -4 56 14 80 22 29
9 38 -21 15 -12 -9 -15 -27 -13 -75 l2 -63 -77 2 c-43 1 -83 -1 -89 -5 -12 -7
-46 -146 -37 -154 9 -9 15 3 25 59 12 66 30 80 95 79 27 -1 60 2 71 5 41 13
34 -14 -16 -57 -28 -25 -92 -66 -142 -92 l-92 -47 -12 22 c-6 13 -10 29 -7 36
3 8 -1 21 -9 31 -35 40 -29 57 31 89 31 17 62 28 70 25 8 -3 11 0 7 7 -4 6 2
15 16 21 13 5 57 39 98 75 41 35 80 65 85 65 6 0 26 24 45 52 19 29 50 68 68
86 18 19 56 78 84 131 29 53 61 106 73 117 33 35 46 64 50 109 2 23 12 58 23
77 12 20 23 63 25 99 3 35 6 65 6 67 2 6 12 0 33 -22z m-1152 -101 c12 -44 52
-165 87 -270 86 -252 103 -307 103 -326 0 -36 -185 -52 -224 -20 -11 9 -14 75
-15 310 -2 287 4 411 19 394 4 -4 17 -44 30 -88z m-250 -2 c0 -38 -5 -75 -10
-83 -7 -12 -9 -9 -8 10 3 48 -2 81 -11 75 -5 -3 -7 -29 -4 -58 4 -42 1 -62
-16 -95 -21 -41 -12 -62 9 -21 7 11 14 18 17 16 2 -3 0 -15 -7 -26 -13 -25 -2
-28 16 -3 11 15 12 12 8 -23 -18 -145 -77 -368 -106 -399 -4 -6 -8 -19 -8 -31
0 -11 -9 -45 -20 -75 -11 -30 -20 -57 -20 -60 -2 -15 -39 68 -40 87 0 12 -4
25 -10 28 -20 12 -9 66 25 131 49 91 61 109 69 92 3 -7 4 -1 1 13 -3 16 9 59
31 114 19 48 33 92 30 99 -2 6 -12 -8 -22 -31 -18 -44 -42 -60 -30 -20 11 35
17 63 10 50 -11 -24 -24 -13 -25 20 0 17 -4 41 -9 52 -13 30 -12 9 5 -82 12
-73 12 -87 -1 -119 -21 -50 -41 -32 -24 21 10 30 10 39 0 45 -7 4 -10 12 -6
18 3 6 3 13 -2 16 -5 3 -8 23 -8 46 1 22 -3 41 -8 43 -12 4 6 30 62 91 47 50
49 52 55 34 2 -7 3 -5 1 5 -2 18 35 86 49 87 4 0 7 -30 7 -67z m-980 12 c14
-15 35 -31 48 -36 12 -5 22 -15 22 -22 0 -8 9 -35 20 -59 11 -25 21 -54 23
-64 1 -11 13 -36 26 -57 28 -45 16 -68 -33 -66 -74 3 -91 15 -127 92 -18 39
-34 75 -34 79 0 3 -3 10 -7 14 -5 4 -8 11 -8 15 0 10 61 -23 105 -57 40 -30
51 -31 31 -2 -9 12 -41 35 -73 52 -48 26 -59 37 -66 66 -6 22 -5 45 2 63 12
32 28 28 71 -18z m1165 -315 c0 -160 -3 -290 -7 -290 -14 0 -78 85 -93 124
-14 39 -14 46 10 131 14 50 40 143 57 208 18 64 32 117 33 117 0 0 0 -131 0
-290z m-985 -7 c0 -8 13 -32 29 -52 27 -35 61 -93 61 -106 0 -4 -14 -4 -31 0
-22 5 -29 4 -25 -4 4 -6 23 -11 42 -11 21 0 37 -6 40 -14 3 -8 23 -26 44 -40
48 -31 170 -145 170 -158 0 -5 -34 -8 -77 -6 l-78 3 -8 73 c-5 39 -13 72 -19
72 -6 0 -8 -10 -4 -22 4 -13 9 -46 13 -74 5 -47 4 -52 -17 -59 -25 -8 -67 26
-91 73 -8 15 -24 35 -37 45 -12 10 -30 33 -39 50 -9 18 -19 34 -22 37 -4 3
-15 18 -24 33 -18 28 -18 28 0 27 34 -4 40 0 41 30 1 37 -5 38 -18 5 -18 -47
-46 -28 -76 50 -6 17 -15 38 -19 47 -6 15 -1 17 47 11 29 -3 58 -12 64 -19 6
-8 15 -14 19 -14 5 0 0 9 -9 19 -13 15 -14 20 -4 24 18 6 28 -1 28 -20z m2254
-169 c-24 -210 -48 -307 -123 -493 -91 -224 -215 -388 -388 -509 -42 -29 -48
-28 -60 11 -6 17 -34 97 -62 176 -28 79 -51 148 -51 153 0 5 8 8 17 6 12 -2
18 4 19 20 1 13 6 28 13 35 19 19 12 44 -14 51 -14 4 -25 10 -25 14 0 13 50
47 119 81 l62 32 30 -26 c30 -24 72 -32 95 -17 16 10 40 72 40 102 -1 18 -7
25 -20 25 -39 0 -26 27 55 116 64 70 87 89 103 85 12 -2 42 -8 68 -11 51 -8
51 -8 63 71 6 37 4 42 -15 47 -19 5 -21 10 -15 38 10 42 85 153 96 142 5 -5 2
-69 -7 -149z m-1378 -63 c4 -19 15 -49 25 -66 11 -19 16 -42 13 -58 -3 -17 1
-34 11 -43 22 -22 19 -33 -15 -52 -30 -17 -42 -39 -16 -29 23 9 -4 -50 -30
-64 -18 -9 -30 -7 -68 12 -34 17 -45 27 -40 38 3 9 10 29 15 44 4 16 13 35 20
43 6 8 8 14 5 14 -4 0 -2 9 3 19 6 10 13 34 15 52 3 19 11 62 18 96 10 52 14
59 25 45 7 -10 15 -32 19 -51z m376 -103 c5 -15 -37 -94 -71 -132 -39 -43
-101 -86 -125 -86 -18 0 -16 5 16 38 21 20 44 45 53 55 9 9 21 14 27 11 7 -5
8 -2 3 5 -4 8 5 23 26 41 19 15 31 31 28 34 -3 3 -31 -4 -62 -17 -39 -16 -54
-26 -48 -35 6 -10 11 -10 21 3 7 8 17 15 22 15 10 0 -26 -43 -77 -91 -19 -19
-33 -25 -39 -19 -7 7 -3 15 10 25 16 12 16 14 2 9 -26 -9 -22 12 7 44 30 32
31 42 7 42 -11 0 -24 -12 -31 -27 -9 -20 -14 -24 -21 -13 -4 7 -6 19 -3 27 3
7 0 13 -6 13 -6 0 -11 7 -11 16 0 13 7 14 43 8 23 -5 56 -8 72 -8 44 2 119 25
128 41 10 16 24 17 29 1z m-720 -158 c4 0 19 -5 35 -12 15 -6 32 -10 36 -10
18 5 18 -33 -2 -98 -12 -38 -23 -70 -25 -70 -9 0 -133 54 -144 63 -7 5 -11 16
-8 24 3 7 1 13 -4 13 -15 0 -37 51 -44 105 -4 28 -9 58 -12 67 -3 12 20 2 78
-33 46 -27 86 -49 90 -49z m-187 80 c8 -13 28 -150 23 -156 -10 -9 -122 56
-149 87 -16 18 -28 26 -31 19 -2 -8 -14 -4 -33 13 l-30 25 35 6 c90 15 178 18
185 6z m1002 -192 c11 -24 25 -58 31 -77 11 -32 10 -33 -14 -28 -14 2 -28 -1
-32 -9 -12 -21 -143 -44 -249 -44 -53 0 -94 3 -90 6 3 3 -21 20 -54 37 -33 17
-72 42 -86 55 -14 13 -28 21 -30 18 -8 -8 17 -29 69 -60 56 -32 66 -45 47 -57
-18 -11 -173 -2 -217 12 -31 10 -32 13 -27 50 3 21 13 55 21 75 12 27 19 34
32 29 55 -23 181 -34 275 -24 54 6 107 9 117 6 11 -3 20 -1 22 3 2 5 17 10 33
13 17 3 49 8 73 12 23 4 45 12 48 16 8 14 9 12 31 -33z m125 -358 c37 -113 71
-212 74 -220 4 -13 -55 -15 -486 -18 l-492 -3 7 33 c4 18 24 100 46 181 21 82
39 156 39 165 1 40 15 45 61 23 24 -11 37 -19 29 -18 -17 2 -60 -32 -60 -47 0
-5 7 -18 17 -28 21 -24 99 -25 125 -1 20 18 24 48 8 58 -41 26 40 39 176 30
103 -7 104 -7 98 -31 -5 -18 1 -31 24 -54 38 -37 80 -40 118 -7 23 20 26 29
20 58 -3 19 -6 39 -7 44 -1 13 77 42 109 41 24 -1 29 -14 94 -206z m-75 -276
c166 -4 290 -10 287 -15 -3 -5 -12 -9 -20 -9 -8 0 -39 -11 -67 -24 -109 -51
-275 -90 -474 -112 -43 -4 -63 -11 -63 -20 0 -17 -30 -18 -211 -4 -261 21
-349 35 -414 68 -33 16 -69 33 -81 36 -11 4 -31 18 -44 31 -25 26 -20 40 14
47 39 6 787 8 1073 2z m-1099 -103 c42 -21 98 -44 125 -51 26 -7 49 -16 52
-19 2 -4 -57 -6 -131 -6 l-135 1 -4 57 c-2 31 1 57 6 57 5 0 44 -17 87 -39z"/>
<path d="M3094 5860 c3 -91 9 -232 12 -315 3 -82 10 -188 15 -235 5 -47 14
-137 20 -200 6 -63 15 -119 20 -125 13 -13 11 37 -5 195 -8 74 -17 182 -20
240 -4 58 -9 134 -11 170 -3 36 -8 124 -10 195 -6 144 -14 227 -22 235 -3 3
-3 -69 1 -160z"/>
<path d="M3404 5863 c-4 -21 -10 -45 -15 -54 -5 -9 -12 -41 -17 -70 -5 -30
-22 -101 -37 -158 -38 -147 -61 -252 -95 -436 -35 -186 -32 -165 -21 -165 5 0
17 33 25 73 70 332 176 815 181 830 4 9 3 17 -3 17 -6 0 -14 -17 -18 -37z"/>
<path d="M13260 7950 c0 -27 -2 -29 -18 -21 -16 9 -166 17 -230 12 -19 -1 -21
-4 -12 -21 10 -18 21 -20 141 -20 l129 0 12 -27 c23 -51 129 -203 139 -198 5
3 -3 24 -16 45 -14 22 -25 44 -25 50 0 6 -16 32 -36 58 -19 26 -38 59 -41 75
-3 15 -10 30 -14 33 -5 3 -9 14 -9 25 0 10 -4 19 -10 19 -5 0 -10 -14 -10 -30z"/>
<path d="M5365 7923 c-27 -20 -63 -49 -80 -65 -32 -30 -45 -35 -45 -17 0 5 -4
8 -10 4 -5 -3 -7 -12 -4 -19 5 -14 -118 -135 -169 -167 -18 -10 -41 -19 -52
-19 -17 -1 -18 -2 -4 -10 13 -8 14 -18 8 -57 -5 -26 -11 -220 -15 -430 -6
-303 -4 -386 6 -398 7 -8 8 -15 3 -15 -9 0 -9 -39 2 -510 14 -661 9 -2021 -10
-2432 -3 -66 -1 -98 7 -100 12 -4 15 -225 10 -647 -1 -123 1 -228 5 -232 15
-15 194 -31 274 -25 56 5 79 3 74 -4 -5 -7 57 -10 204 -10 116 1 216 -2 222
-5 6 -4 21 -3 32 2 74 34 181 45 205 21 10 -10 15 -10 20 -1 4 6 36 15 72 19
58 7 61 9 30 14 -19 3 -45 3 -57 -2 -34 -11 -35 6 -3 37 17 16 30 33 30 37 0
5 5 14 10 21 6 7 37 47 71 90 33 43 67 81 75 84 8 3 14 11 14 19 0 7 11 21 24
30 15 9 23 21 19 30 -4 10 -9 12 -18 4 -10 -8 -14 -2 -17 25 -2 19 1 40 7 46
7 9 6 10 -2 5 -9 -5 -13 0 -13 16 0 17 2 20 9 9 16 -26 23 69 12 159 -6 46
-11 199 -12 340 -1 140 -4 301 -8 358 -4 65 -2 101 4 99 18 -6 75 -137 119
-275 83 -255 207 -646 258 -807 28 -88 61 -189 75 -223 13 -35 22 -66 19 -69
-3 -3 4 -14 15 -26 29 -32 24 -37 -38 -37 -43 0 -54 -3 -46 -11 13 -13 727 -6
793 7 19 4 123 8 230 8 l195 1 18 -37 c10 -21 22 -38 25 -38 9 0 7 84 -2 99
-6 9 79 131 91 131 7 0 -19 -44 -43 -73 -13 -16 -24 -33 -24 -39 0 -5 12 5 27
24 39 47 51 59 58 58 4 -1 10 2 13 6 4 4 1 4 -7 -1 -10 -6 -12 -2 -6 16 4 13
13 31 20 39 8 8 19 26 25 40 20 46 67 115 78 113 17 -4 -4 67 -56 184 -28 60
-53 121 -57 134 -4 13 -15 42 -25 64 -35 76 -217 539 -281 713 -49 134 -59
162 -84 232 -14 41 -34 98 -45 125 -19 52 -31 95 -35 130 -2 12 -35 93 -73
180 -39 88 -73 171 -77 183 -5 17 -12 22 -25 19 -14 -3 -17 -1 -13 11 4 10 2
13 -5 8 -23 -14 -12 11 18 39 32 31 42 25 13 -8 -17 -19 -17 -19 2 -16 14 3
21 14 23 34 3 19 21 47 53 80 27 27 59 64 71 80 13 17 55 62 93 100 63 64 149
195 128 195 -5 0 -30 -33 -55 -72 -56 -88 -100 -147 -111 -148 -4 0 15 33 42
73 27 39 66 102 86 140 39 71 51 84 41 42 -10 -39 8 -29 22 13 17 51 64 224
67 242 1 8 4 29 8 45 10 48 16 103 22 215 3 58 10 166 15 240 13 194 3 311
-37 425 -14 39 -31 94 -37 123 -6 29 -15 50 -18 47 -3 -4 -15 18 -26 47 -11
29 -24 62 -28 73 -7 18 -6 18 9 6 25 -20 21 1 -8 43 -14 20 -25 39 -25 43 0
14 -78 131 -124 187 -39 48 -44 57 -23 43 28 -18 28 -18 19 0 -16 29 -110 114
-182 164 -86 60 -254 148 -360 189 -47 17 -98 38 -113 46 -16 8 -33 12 -37 9
-5 -3 -64 8 -132 26 -193 49 -374 69 -558 62 -85 -4 -311 -7 -501 -7 -273 -1
-345 2 -342 12 8 20 -10 13 -62 -25z m480 -29 c33 -2 169 -1 303 4 316 12 494
-7 627 -67 22 -10 74 -28 115 -41 41 -13 88 -30 103 -37 16 -8 33 -13 40 -10
6 2 -10 14 -36 26 -26 13 -49 26 -52 31 -7 11 61 -8 98 -27 16 -8 35 -12 42
-9 8 3 15 2 17 -2 5 -11 106 -62 123 -62 8 0 15 -4 15 -10 0 -5 6 -10 14 -10
17 0 112 -55 199 -117 84 -59 141 -120 187 -202 19 -34 42 -71 51 -82 19 -22
29 -47 54 -134 9 -33 26 -79 36 -103 11 -23 17 -47 14 -52 -3 -6 -1 -10 4 -10
6 0 11 -7 11 -15 0 -9 7 -26 15 -39 9 -13 22 -59 31 -102 8 -44 19 -99 25
-124 28 -126 34 -450 9 -465 -5 -3 -6 -13 -3 -22 6 -15 5 -16 -9 -3 -14 14
-15 51 -2 94 3 10 5 46 4 80 -1 33 -2 71 -2 83 0 20 -2 21 -16 7 -17 -17 -24
-84 -9 -84 5 0 4 -6 -2 -14 -7 -8 -10 -28 -8 -45 3 -17 0 -32 -6 -34 -5 -1
-12 -10 -13 -18 -2 -7 -6 -25 -9 -39 -6 -24 -6 -24 9 -6 9 11 16 15 16 9 0 -7
-7 -18 -15 -27 -8 -8 -15 -22 -15 -32 0 -14 2 -15 16 -3 15 12 16 10 10 -26
-3 -22 -7 -46 -8 -53 -1 -7 -8 -10 -16 -7 -11 4 -13 0 -9 -15 3 -11 -1 -27 -9
-34 -11 -12 -11 -15 1 -20 22 -8 18 -33 -5 -39 -23 -6 -28 -29 -6 -25 8 2 14
-1 13 -7 -1 -5 -5 -9 -9 -7 -5 1 -8 -2 -8 -8 0 -5 -4 -10 -9 -10 -13 0 -11 53
3 69 9 12 8 13 -3 6 -11 -6 -13 -4 -8 8 4 10 2 28 -3 42 -8 20 -6 25 6 25 14
0 14 3 3 16 -10 12 -10 20 -1 35 10 15 9 19 0 19 -9 0 -8 3 2 10 9 6 11 13 5
18 -11 8 -12 15 -20 221 -3 79 -8 148 -11 155 -3 6 1 3 10 -8 16 -19 36 -14
36 10 0 8 9 23 21 35 14 14 18 26 13 37 -6 14 -8 14 -11 -6 -3 -12 -13 -26
-23 -32 -15 -8 -20 -5 -28 19 -6 16 -8 32 -5 35 3 3 0 12 -6 20 -7 8 -11 20
-10 28 3 18 -11 48 -23 48 -5 0 -6 -10 -2 -22 3 -11 6 -62 6 -112 0 -58 4 -94
11 -98 7 -4 8 -8 2 -8 -28 0 -39 24 -51 116 -8 55 -21 120 -29 146 -8 26 -15
52 -15 58 0 33 -140 289 -183 335 -11 11 -26 30 -34 43 -9 12 -21 22 -28 22
-7 0 -15 4 -17 9 -8 25 -171 152 -299 234 -108 69 -428 163 -644 188 -134 16
-539 17 -810 2 -121 -7 -292 -15 -380 -18 l-160 -6 29 23 c44 34 199 168 216
186 8 10 31 30 50 46 l34 28 186 -6 c102 -4 212 -9 245 -12z m540 -283 c39 -7
99 -16 135 -22 66 -11 157 -30 240 -51 48 -12 205 -72 280 -107 77 -35 233
-155 285 -218 28 -34 56 -62 63 -62 6 -1 12 -8 12 -16 0 -8 4 -15 9 -15 5 0
12 -8 15 -18 3 -10 22 -35 41 -55 19 -20 35 -41 35 -45 0 -5 13 -33 29 -63 28
-52 94 -279 111 -384 5 -27 13 -63 18 -80 9 -32 9 -74 0 -91 -17 -30 -17 -45
0 -42 16 3 17 -13 16 -207 0 -115 -4 -228 -8 -250 -3 -22 -8 -60 -11 -85 -3
-25 -9 -46 -15 -48 -5 -2 -10 -14 -10 -27 0 -62 -84 -277 -157 -403 -44 -75
-68 -104 -130 -155 -82 -67 -240 -177 -255 -177 -5 0 -7 -3 -4 -8 8 -13 -17
-37 -54 -52 l-35 -15 39 -5 c38 -5 39 -7 78 -95 86 -193 131 -305 174 -429 25
-71 66 -174 90 -230 73 -163 136 -318 131 -323 -3 -2 -22 27 -42 64 -101 183
-340 630 -431 808 -85 167 -355 658 -473 863 l-30 54 28 24 c34 28 90 120 113
184 44 123 56 217 51 391 -3 116 -9 156 -30 223 -45 142 -90 211 -188 288 -56
43 -67 65 -18 33 20 -13 24 -14 16 -3 -7 8 -32 23 -55 34 l-42 19 29 6 30 7
-31 1 c-17 0 -57 10 -89 21 -64 22 -158 25 -260 9 -33 -5 -77 -12 -97 -15 -21
-4 -38 -10 -38 -16 0 -5 5 -6 10 -3 6 3 18 4 28 1 16 -5 16 -22 7 -258 -10
-255 -4 -985 9 -1024 5 -15 -4 -36 -30 -74 -121 -177 -614 -1002 -827 -1385
-31 -55 -65 -116 -76 -135 l-20 -35 -1 115 c-3 254 2 1622 5 1650 8 60 8 548
0 1010 -4 256 -9 557 -10 670 -2 113 -5 214 -7 225 -2 13 3 20 14 20 9 0 19 3
22 6 3 2 47 1 98 -4 89 -8 280 -4 528 13 155 11 598 4 685 -9z m-2 -833 c69
-30 197 -167 241 -261 51 -108 61 -162 61 -337 0 -161 -4 -193 -36 -296 -14
-44 -28 -69 -47 -82 -86 -59 -360 -86 -327 -32 13 20 4 925 -10 992 -10 54 18
58 118 16z m-305 -446 c4 -44 5 -79 1 -76 -9 5 -5 -43 4 -53 4 -3 18 0 32 7
l25 13 -20 19 c-11 11 -18 23 -15 29 8 12 14 44 17 86 1 18 7 34 13 37 7 2 11
-5 10 -17 -1 -12 2 -28 7 -34 6 -7 7 -33 3 -60 -13 -93 -14 -128 -5 -143 7
-12 12 -12 22 -2 6 6 16 12 22 12 5 0 1 -6 -9 -14 -16 -12 -17 -16 -6 -30 12
-14 10 -16 -14 -16 -25 0 -26 -2 -14 -17 8 -10 9 -14 2 -10 -6 4 -15 2 -19 -5
-13 -20 -24 41 -13 69 5 14 7 28 4 31 -10 10 -25 -13 -25 -38 0 -14 -1 -52 -1
-85 -1 -75 -3 -103 -12 -111 -3 -4 -3 -14 2 -23 4 -9 7 -73 6 -143 -1 -71 2
-128 7 -128 21 0 26 59 21 229 l-6 180 26 7 c15 3 27 14 28 23 0 9 3 11 5 4 3
-7 12 -9 20 -6 8 3 14 0 14 -6 0 -6 -6 -11 -14 -11 -7 0 -16 -10 -20 -22 -5
-19 -8 -20 -15 -8 -9 12 -11 12 -16 -2 -9 -23 -1 -54 13 -50 7 1 12 -2 12 -8
0 -5 -7 -10 -15 -10 -11 0 -14 -8 -10 -32 8 -56 11 -67 18 -74 11 -11 8 -26
-3 -19 -5 3 -10 1 -10 -4 0 -6 4 -11 10 -11 5 0 7 -21 4 -51 -5 -44 -3 -51 10
-46 35 14 21 -12 -39 -72 -35 -34 -66 -68 -69 -74 -9 -23 -26 18 -21 53 7 57
9 125 4 135 -5 9 -4 116 1 245 2 30 8 61 14 69 8 11 8 13 -1 7 -10 -5 -13 3
-13 30 0 31 3 36 20 31 11 -3 18 -1 15 3 -3 5 -1 11 4 15 14 8 2 35 -15 35
-16 0 -16 -3 -16 125 1 116 1 110 7 103 3 -3 9 -41 13 -86z m493 -819 c29 -54
97 -181 151 -282 55 -101 140 -263 190 -360 93 -180 133 -253 293 -541 50 -91
121 -219 157 -285 36 -66 97 -178 136 -250 38 -71 89 -179 113 -240 23 -60 66
-170 96 -244 30 -73 52 -138 50 -145 -2 -6 -93 167 -201 384 -204 407 -293
581 -401 780 -35 63 -138 261 -230 440 -92 179 -172 330 -177 335 -14 13 471
-941 492 -970 4 -5 139 -273 301 -595 161 -322 305 -606 321 -631 53 -88 61
-84 -209 -83 -131 1 -301 -2 -378 -6 -384 -21 -445 -22 -445 -6 0 8 -42 142
-94 298 -52 156 -122 371 -156 478 -34 107 -72 227 -85 265 -42 128 -84 289
-99 380 -14 84 -14 85 -9 22 3 -38 6 -75 7 -82 0 -8 -3 -15 -9 -16 -5 -1 -29
41 -53 94 l-43 96 -4 150 c-2 83 0 151 4 151 4 0 13 -6 20 -12 10 -11 12 -9 9
7 -2 14 -13 21 -32 23 l-29 4 7 -126 c3 -69 3 -126 -1 -126 -9 0 -50 63 -78
119 -10 19 -42 57 -72 84 -30 28 -52 56 -49 63 7 17 -19 25 -34 11 -10 -10
-10 -7 -1 11 7 14 8 28 3 40 -5 9 -7 22 -5 29 6 16 -44 100 -70 118 -34 24
-226 13 -235 -13 -9 -27 -49 -77 -62 -77 -8 0 -16 -4 -17 -10 -1 -5 5 -9 13
-7 14 3 20 -14 7 -20 -5 -1 -16 -26 -26 -53 -16 -46 -16 -55 -3 -99 8 -27 21
-53 27 -57 16 -10 49 7 45 24 -1 6 -1 10 1 7 1 -3 35 -3 74 -2 49 3 69 0 65
-7 -4 -6 -35 -11 -69 -11 -44 0 -58 -3 -47 -10 32 -21 233 -5 266 21 15 12 23
-479 17 -1181 l-4 -565 -480 0 -480 0 6 428 6 429 124 246 c69 136 150 294
181 352 97 183 196 364 213 390 9 13 11 21 5 17 -21 -13 -283 -488 -433 -785
-51 -101 -95 -181 -97 -179 -3 3 -1 38 5 78 10 79 8 76 165 349 42 74 80 142
85 150 10 18 154 266 396 680 98 168 203 347 232 398 l54 92 38 -6 c54 -9 237
12 301 34 30 11 84 38 120 60 36 22 66 41 67 41 1 1 25 -43 54 -96z m662 -529
c-8 -4 21 -71 82 -192 51 -103 107 -216 123 -252 16 -36 48 -105 71 -154 22
-48 38 -93 34 -99 -4 -6 0 -8 10 -4 11 4 18 -1 22 -14 4 -11 9 -18 12 -15 3 2
-11 38 -30 78 -68 142 -97 217 -97 247 0 17 -7 34 -16 39 -9 5 -18 20 -19 33
-4 39 -5 40 -15 34 -6 -3 -7 1 -4 10 8 20 17 11 34 -35 8 -19 24 -51 37 -70
13 -19 23 -40 23 -45 0 -16 45 -106 73 -148 18 -27 27 -33 36 -24 8 8 14 8 23
-1 7 -7 8 -12 3 -12 -5 0 0 -7 11 -16 10 -8 13 -13 7 -9 -17 8 -16 -1 3 -30 9
-14 14 -31 11 -39 -3 -8 0 -20 8 -26 11 -9 12 -7 8 9 -3 12 -1 21 3 21 10 0
19 -18 64 -135 17 -44 34 -89 39 -100 21 -50 34 -83 48 -123 8 -24 30 -77 49
-118 19 -41 34 -78 34 -83 0 -5 21 -54 47 -108 29 -60 47 -112 47 -135 0 -20
4 -32 7 -26 6 9 39 -50 39 -68 0 -2 10 -25 21 -49 12 -25 19 -48 17 -51 -3 -3
-15 16 -27 42 -12 25 -24 44 -27 41 -9 -8 47 -107 57 -101 10 6 33 -45 24 -54
-2 -3 0 -11 6 -18 7 -9 4 -25 -12 -56 -12 -24 -25 -45 -30 -48 -14 -10 -111
-144 -130 -183 -11 -21 -24 -35 -29 -32 -5 3 -17 32 -26 63 -9 31 -20 62 -24
67 -8 11 -22 60 -26 90 -2 19 -34 94 -53 125 -5 8 -17 35 -26 60 -10 25 -23
59 -30 75 -17 40 -50 137 -51 150 0 6 -13 36 -28 69 -33 69 -104 255 -131 341
-11 33 -27 71 -35 85 -9 14 -27 52 -40 85 -13 33 -31 78 -41 101 -10 22 -24
58 -32 80 -8 21 -29 79 -47 127 -17 49 -30 91 -27 93 6 6 50 -72 65 -115 6
-18 7 -29 2 -26 -6 3 -7 -1 -4 -9 3 -9 10 -14 15 -11 4 3 13 -5 20 -17 11 -21
11 -22 -4 -9 -22 17 -21 12 2 -36 10 -21 34 -74 52 -118 18 -44 36 -82 39 -85
4 -3 9 -14 13 -25 12 -40 33 -95 40 -101 14 -14 6 32 -13 74 -10 23 -17 42
-14 42 2 0 -7 18 -21 40 -14 22 -25 44 -25 50 0 6 -12 37 -26 68 -14 31 -27
73 -29 92 l-3 35 19 -24 c10 -13 19 -21 19 -18 0 19 -34 93 -55 121 -14 19
-28 43 -30 55 -2 12 -7 26 -10 32 -4 5 -8 20 -10 32 -1 12 -6 30 -10 40 -7 17
-6 18 14 6 12 -8 19 -19 17 -25 -2 -6 -1 -15 4 -20 8 -10 41 -106 38 -114 -1
-3 13 -21 31 -40 17 -19 34 -45 38 -58 9 -36 52 -119 52 -102 1 22 -21 82 -42
113 -9 14 -17 29 -17 33 0 4 -8 13 -17 20 -12 9 -13 13 -5 14 10 0 9 7 -3 30
-9 17 -20 30 -25 30 -6 0 -10 9 -10 20 0 12 -6 31 -14 43 -7 12 -13 33 -11 47
2 24 -32 98 -61 131 -8 9 -14 20 -13 25 4 17 -107 235 -115 227 -5 -4 -7 -3
-4 2 3 6 8 18 11 28 4 9 12 17 19 16 9 0 10 -2 1 -5z m-1284 -155 c6 -17 8
-35 5 -40 -7 -11 -241 -12 -248 -1 -3 5 3 22 13 38 18 30 19 30 118 32 l101 3
11 -32z m43 -99 c-2 -19 -10 -49 -17 -66 -12 -30 -14 -31 -98 -37 -47 -3 -118
-3 -157 0 -63 5 -71 8 -76 29 -7 27 1 44 19 40 7 -1 9 -1 5 1 -11 6 -10 31 1
51 8 15 29 17 168 17 l158 0 -3 -35z m192 -952 c4 -29 9 -152 11 -273 2 -121
7 -261 11 -312 6 -90 7 -92 24 -71 13 17 15 29 9 52 -12 40 -11 49 1 41 6 -3
10 -1 10 4 0 6 -6 11 -14 11 -9 0 -12 7 -9 19 3 10 0 22 -6 25 -16 10 -13 26
4 26 9 0 15 -9 15 -23 0 -13 5 -28 11 -34 6 -6 12 -21 13 -34 2 -13 6 -34 10
-45 5 -17 -2 -31 -29 -59 -19 -21 -52 -60 -72 -87 l-38 -50 -3 34 c-1 18 -9
76 -18 128 -15 92 -23 524 -10 538 4 3 7 -19 7 -49 1 -30 3 -124 5 -209 2 -85
8 -186 13 -225 5 -47 7 42 5 268 -2 211 0 337 6 337 6 0 10 -37 10 -85 0 -56
4 -85 11 -85 8 0 9 32 4 111 -5 72 -4 109 2 106 6 -4 13 -30 17 -59z"/>
<path d="M6454 5088 c-12 -7 -33 -27 -48 -44 -32 -39 -34 -96 -8 -194 14 -54
21 -66 40 -68 17 -3 25 2 29 17 5 21 43 30 43 11 0 -5 -4 -10 -10 -10 -5 0
-10 -4 -10 -10 0 -5 7 -10 16 -10 8 0 13 4 9 9 -7 13 12 24 26 15 8 -4 7 -9
-2 -15 -10 -6 -4 -9 19 -9 19 0 31 5 30 12 -2 6 5 14 15 16 10 2 17 -3 17 -13
0 -12 9 -15 38 -14 20 1 44 6 53 10 24 12 29 75 11 134 -9 28 -15 53 -14 57 1
4 -7 17 -18 30 -10 13 -30 36 -43 53 -23 27 -31 30 -98 32 -47 2 -82 -1 -95
-9z m245 -156 c25 -70 17 -75 -137 -77 l-131 -1 -10 25 c-5 15 -12 40 -15 57
l-5 32 127 1 c69 1 128 4 131 7 11 11 26 -5 40 -44z"/>
<path d="M6880 3940 c-47 -4 -97 -13 -113 -20 -43 -21 -67 -69 -67 -135 0 -50
-2 -56 -15 -45 -11 9 -14 22 -9 46 4 21 2 34 -4 34 -17 0 -26 -21 -29 -64 -3
-35 -1 -37 14 -25 15 13 16 11 9 -16 -10 -38 -15 -43 -26 -25 -18 28 -11 -80
11 -175 51 -224 56 -234 112 -235 17 0 35 9 49 25 23 27 47 32 65 14 7 -7 44
-10 102 -8 69 3 92 1 96 -9 8 -20 7 -22 -17 -32 -17 -7 -8 -8 32 -4 30 3 59
10 65 15 5 5 25 9 44 9 19 0 42 6 50 14 9 8 36 19 61 25 l45 10 -42 -2 c-24
-1 -43 -2 -43 -1 0 2 21 68 27 84 19 50 12 107 -19 173 -27 56 -30 71 -20 85
31 44 24 74 -8 35 -22 -28 -26 -28 -33 -3 -3 11 0 20 5 20 6 0 4 8 -4 18 -9 9
-30 45 -47 78 -37 75 -68 101 -129 109 -26 4 -54 8 -62 9 -8 1 -53 0 -100 -4z
m204 -40 c23 -9 63 -56 55 -64 -2 -3 -29 0 -59 6 -30 5 -112 8 -183 6 -117 -3
-128 -1 -133 16 -3 10 -1 23 5 30 25 24 255 29 315 6z m5 -88 c36 -6 48 -13
62 -37 25 -43 33 -91 17 -97 -20 -6 -392 12 -400 20 -6 6 4 74 17 110 5 13
222 16 304 4z m-224 -152 c115 -13 250 -13 295 0 30 9 37 7 61 -16 30 -29 66
-141 50 -157 -7 -7 -5 -14 7 -23 16 -12 14 -16 -15 -45 l-32 -33 -68 13 c-91
18 -244 26 -252 14 -3 -6 -38 -13 -78 -16 -59 -5 -75 -3 -90 11 -20 18 -41 66
-41 92 0 8 -8 40 -16 70 -9 30 -16 66 -16 79 0 21 3 23 35 18 21 -3 35 -2 35
4 0 6 8 8 18 5 9 -3 58 -10 107 -16z"/>
<path d="M5453 3840 c-53 -12 -80 -36 -123 -110 -22 -38 -45 -70 -51 -70 -5 0
-7 -11 -3 -24 6 -27 -12 -44 -28 -28 -8 8 -7 16 2 27 10 13 9 15 -9 15 -28 0
-28 -33 1 -52 l22 -15 -42 -66 c-23 -37 -47 -89 -53 -116 -9 -44 -8 -54 16
-103 14 -29 32 -64 38 -78 11 -22 20 -25 67 -26 30 -1 45 0 33 3 -22 4 -32 36
-15 47 7 4 119 -2 332 -17 37 -3 46 -7 48 -24 3 -22 33 -35 67 -28 11 2 23 4
27 4 4 1 8 16 10 34 2 26 8 33 28 35 14 2 34 7 45 12 11 5 27 11 35 13 11 4
10 6 -3 6 -10 1 -27 -4 -38 -9 -13 -8 -25 -7 -41 1 l-23 12 23 10 c12 6 22 14
22 19 0 5 -4 6 -10 3 -5 -3 -10 3 -10 14 0 13 7 21 16 21 11 0 14 5 10 17 -4
9 -2 19 3 23 6 3 13 55 17 115 3 61 11 116 16 123 8 9 6 19 -9 35 -11 12 -34
47 -51 78 -41 73 -58 87 -122 99 -60 11 -199 12 -247 0z m267 -30 c18 -5 25
-13 25 -31 l0 -24 -180 4 c-99 2 -182 5 -184 7 -3 3 4 14 16 25 33 33 227 45
323 19z m-107 -77 c110 -7 109 -6 121 -93 l6 -45 -193 3 c-105 2 -198 5 -204
7 -7 3 -13 14 -13 25 0 26 35 97 52 103 19 8 119 8 231 0z m-69 -160 c132 -1
204 1 213 9 31 26 1 -150 -32 -190 -20 -23 -49 -29 -60 -12 -9 14 -25 12 -25
-3 0 -8 12 -19 26 -26 21 -9 31 -9 49 3 24 16 37 12 29 -9 -4 -10 1 -12 16 -8
18 5 21 2 18 -13 -3 -18 -16 -19 -283 -19 l-280 0 -20 37 -19 36 32 64 c17 35
45 85 62 111 28 44 32 47 53 35 15 -9 84 -13 221 -15z"/>
<path d="M8400 7949 c0 -4 41 -10 90 -13 l90 -8 -136 -141 c-75 -78 -142 -141
-150 -139 -12 3 -14 -95 -10 -690 3 -381 10 -783 15 -893 14 -269 17 -1103 8
-2035 -9 -874 -11 -1179 -6 -1200 3 -11 -6 -16 -31 -19 l-35 -4 29 -6 c41 -8
33 -26 -9 -24 -19 1 -35 -3 -35 -7 0 -5 21 -10 48 -12 l47 -3 2 -49 c1 -27 7
-54 14 -60 9 -8 10 4 6 50 -3 34 -2 65 2 70 3 5 101 9 216 10 728 2 939 2
1015 -1 233 -10 450 -13 380 -6 -41 5 -111 9 -155 11 -62 1 -73 4 -50 10 17 5
228 11 470 14 487 6 495 7 495 21 0 6 -4 10 -9 10 -5 0 -13 3 -17 8 -4 4 9 7
29 7 20 0 37 5 37 10 0 6 16 10 36 10 24 0 34 -4 31 -12 -2 -7 -12 -12 -22
-10 -24 5 -65 -6 -65 -17 0 -5 14 -11 31 -15 32 -6 63 6 89 33 10 11 31 16 60
16 25 0 51 4 57 9 8 5 15 3 19 -8 7 -19 23 -20 56 -3 25 13 27 37 2 37 -8 0
-11 -6 -8 -15 4 -8 1 -15 -5 -15 -6 0 -11 5 -11 10 0 6 -9 10 -20 10 -11 0
-20 5 -20 11 0 6 7 9 15 6 8 -4 17 -2 19 2 3 5 -26 11 -64 15 -38 3 -93 11
-122 18 -51 11 -52 11 -24 19 17 5 35 4 41 -1 7 -6 14 -8 17 -5 2 2 37 5 76 6
40 1 72 5 72 10 0 8 -72 21 -100 17 -8 0 -31 0 -50 2 l-35 2 45 9 c25 5 73 8
108 6 65 -3 92 6 44 16 -27 5 -119 8 -305 7 -65 -1 -96 3 -92 10 3 5 18 10 33
10 35 0 73 11 68 19 -4 5 14 6 74 2 14 -1 18 -6 13 -18 -5 -13 -2 -15 18 -10
13 4 67 10 119 13 52 4 102 10 110 15 13 7 13 9 0 9 -25 2 -69 6 -203 19 -70
6 -132 9 -137 6 -5 -3 -11 -1 -15 4 -3 6 9 20 26 33 54 40 147 165 193 261 48
98 80 185 116 307 12 41 26 84 31 95 5 11 11 36 13 55 2 19 9 55 14 80 41 181
62 292 65 337 1 18 5 33 10 33 4 0 7 26 7 58 0 63 -27 359 -34 370 -2 4 -7 25
-10 47 -5 33 -15 86 -31 160 -9 48 -32 110 -61 167 -19 37 -34 69 -34 72 0 2
9 6 20 9 11 3 20 12 20 20 0 17 -27 30 -42 21 -12 -7 -48 24 -48 43 0 7 -4 13
-8 13 -5 0 -23 19 -40 43 -30 41 -62 78 -127 147 l-33 35 42 30 c27 19 35 22
24 9 -20 -23 -24 -39 -6 -28 7 5 8 3 4 -5 -5 -7 -14 -10 -22 -7 -8 3 -11 0 -7
-10 7 -18 5 -18 62 12 48 24 57 34 95 99 15 25 12 23 -20 -11 -40 -42 -94 -82
-94 -69 0 4 30 39 68 77 69 72 96 111 89 131 -2 7 -12 -4 -22 -23 -26 -53 -66
-91 -87 -84 -16 5 -23 -5 -19 -28 0 -4 -6 -5 -14 -2 -8 4 -17 -1 -21 -9 -3 -9
-13 -18 -22 -22 -9 -3 -1 10 18 31 21 22 28 34 18 31 -10 -4 -18 -5 -18 -3 0
6 82 192 89 201 6 8 32 84 36 105 2 13 38 60 45 60 5 0 12 -9 15 -20 4 -14 15
-20 34 -20 38 0 81 -35 81 -66 0 -18 -5 -24 -22 -24 -17 0 -19 -3 -10 -12 20
-20 14 -45 -19 -77 l-31 -31 33 -41 c17 -22 28 -44 23 -48 -5 -4 -36 -29 -70
-54 -66 -51 -107 -101 -109 -131 -2 -17 1 -16 21 7 13 15 27 27 31 27 4 0 21
18 37 40 41 54 94 105 103 97 4 -4 -14 -26 -40 -48 -26 -23 -47 -46 -47 -52 0
-6 22 10 48 36 26 26 51 47 55 47 4 0 20 -11 34 -24 l27 -25 -30 -11 c-16 -7
-37 -16 -46 -21 -28 -14 -32 -11 -13 11 10 11 21 18 24 15 4 -2 7 5 7 16 0 10
-1 19 -3 19 -1 0 -23 -21 -49 -46 -29 -28 -50 -41 -54 -34 -6 10 -100 -80
-100 -95 0 -8 53 30 70 50 7 8 17 15 22 15 6 0 24 10 41 22 26 19 30 19 24 4
-6 -15 -3 -15 19 3 15 12 36 21 48 21 21 -1 21 -1 2 -15 -11 -8 -16 -15 -12
-15 5 0 3 -7 -4 -15 -7 -8 -21 -15 -31 -15 -13 0 -19 -7 -19 -21 0 -19 -4 -21
-35 -16 -19 3 -35 3 -35 -1 0 -4 -20 -20 -45 -35 -25 -16 -45 -33 -45 -38 0
-11 32 4 75 36 50 37 78 9 29 -30 -24 -20 -25 -21 -10 -57 15 -34 15 -38 -2
-48 -15 -10 -15 -10 3 -8 16 3 21 12 23 45 2 29 11 49 27 65 14 13 25 28 25
35 0 6 14 20 30 30 17 9 30 22 30 28 0 5 9 16 21 23 11 7 18 19 15 27 -2 7 2
19 10 25 25 22 15 47 -36 90 -28 23 -53 54 -57 68 -3 15 -11 30 -17 35 -8 5
-8 9 0 15 15 9 64 118 64 140 0 30 -28 60 -75 78 -35 13 -43 20 -34 30 6 7 8
17 5 23 -3 5 1 11 9 15 13 5 13 10 -2 41 -16 33 -16 37 5 79 31 61 29 83 -13
107 -27 16 -34 26 -30 42 2 12 7 47 10 77 3 30 8 75 11 100 15 115 5 350 -17
376 -4 5 -11 29 -14 53 -3 23 -8 53 -11 67 -8 32 4 31 17 -2 5 -15 12 -24 15
-21 7 6 -22 64 -34 69 -8 3 -62 180 -62 201 0 5 -9 20 -20 35 -15 18 -17 27
-9 33 8 5 5 11 -10 20 -11 8 -21 21 -21 30 0 8 -25 44 -55 79 -30 35 -53 65
-50 68 2 2 21 -6 41 -19 21 -12 34 -18 31 -12 -4 6 -31 24 -60 41 -29 16 -77
54 -107 84 -55 55 -85 74 -235 155 -98 52 -85 56 25 7 80 -35 123 -42 61 -10
-88 46 -237 91 -181 56 8 -6 10 -10 4 -10 -6 0 -18 8 -25 19 -9 12 -47 26
-109 40 -126 29 -169 40 -205 53 -16 6 -52 13 -80 17 -27 4 -55 10 -61 14 -7
4 -46 9 -88 11 -42 3 -81 8 -88 12 -6 4 -13 3 -15 -2 -2 -6 -59 -9 -146 -6
-271 6 -1127 7 -1127 1z m389 -34 c75 -3 282 -8 461 -11 179 -4 354 -8 390
-10 36 -2 93 -4 128 -5 34 0 60 -4 57 -9 -3 -5 -1 -11 5 -15 5 -3 10 -1 10 6
0 8 4 8 13 2 6 -6 36 -10 65 -9 28 1 52 -2 52 -6 0 -9 40 -22 70 -23 49 -1
255 -67 340 -108 147 -71 305 -205 384 -327 16 -25 41 -63 56 -85 42 -61 65
-112 94 -205 39 -126 55 -206 45 -221 -7 -11 -9 -9 -9 6 0 11 -6 32 -14 47
-10 20 -11 28 -3 31 7 2 2 9 -11 16 -12 6 -22 19 -22 29 0 15 2 15 10 2 7 -11
10 -12 10 -2 0 8 -9 16 -19 19 -23 6 -36 34 -21 43 7 5 6 11 -5 20 -13 11 -14
10 -9 -5 6 -14 4 -16 -6 -10 -10 6 -11 4 -5 -11 5 -10 18 -46 30 -79 12 -33
26 -68 30 -78 4 -10 5 -20 3 -23 -3 -3 -15 21 -27 53 -13 32 -30 73 -39 91 -9
18 -16 42 -17 54 -1 11 -7 23 -14 27 -7 4 -11 12 -10 17 3 14 -13 48 -33 67
-10 10 -18 15 -18 11 0 -4 -14 5 -30 21 -21 20 -28 35 -24 48 4 13 2 17 -5 13
-6 -4 -39 16 -75 44 -61 48 -84 61 -71 40 13 -21 -13 -8 -40 20 -16 17 -33 30
-38 30 -6 0 -37 17 -71 38 -61 38 -158 82 -180 82 -6 0 48 -31 119 -68 72 -37
166 -95 210 -130 45 -34 85 -62 91 -62 20 0 112 -120 103 -132 -1 -2 9 -21 22
-43 23 -38 56 -104 93 -187 34 -78 13 -68 -27 12 -62 124 -146 248 -208 306
-141 132 -384 280 -558 339 -145 49 -219 58 -481 59 -344 1 -835 -6 -1029 -14
-91 -5 -174 -5 -184 -1 -18 7 -6 22 90 117 61 60 114 119 117 131 10 32 36 55
54 48 8 -3 76 -8 151 -10z m-390 -310 c42 -11 58 -11 69 -3 10 9 19 9 34 -1
11 -7 17 -8 13 -2 -3 6 -1 11 4 11 6 0 11 -3 11 -7 0 -5 237 -6 527 -5 722 5
883 -12 1162 -124 182 -72 376 -215 460 -338 95 -138 217 -457 226 -590 12
-165 13 -236 5 -236 -18 0 -82 69 -74 81 5 9 2 10 -10 6 -10 -4 -24 -7 -31 -7
-10 0 -13 -10 -12 -30 1 -16 8 -30 15 -30 6 0 12 -5 12 -11 0 -6 9 -9 20 -6
22 6 29 -18 8 -27 -7 -3 7 -5 32 -3 42 1 45 0 43 -23 -1 -14 -3 -52 -3 -85 -1
-73 -18 -162 -32 -171 -5 -3 -25 9 -44 27 -46 45 -43 27 5 -27 33 -37 38 -50
34 -77 -3 -18 -10 -38 -16 -45 -6 -7 -12 -24 -13 -36 -1 -13 -14 -49 -28 -80
-14 -31 -26 -59 -26 -61 0 -16 -74 -105 -84 -100 -6 3 -19 8 -28 11 -23 8 -23
16 3 32 25 16 37 8 19 -13 -7 -8 -9 -15 -4 -14 5 0 20 14 33 31 l25 31 -25
-13 c-22 -12 -23 -12 -11 3 8 9 23 19 34 23 11 3 17 12 15 19 -3 7 0 18 6 24
8 8 8 11 -1 11 -7 0 -17 -11 -24 -25 -11 -25 -78 -75 -100 -75 -6 0 1 13 17
30 31 33 28 39 -9 15 -22 -15 -27 -14 -61 7 -34 19 -36 23 -21 32 46 28 96 67
96 76 0 6 -22 -6 -49 -25 -35 -25 -51 -32 -54 -23 -4 9 -12 6 -26 -11 -22 -24
-20 -41 5 -41 16 0 144 -128 144 -144 0 -36 -191 -203 -269 -235 -19 -8 -30
-19 -27 -27 3 -7 2 -15 -2 -17 -4 -2 -1 -2 6 0 21 5 62 -8 62 -19 0 -6 -8 -17
-17 -25 -16 -12 -15 -12 9 -2 23 10 33 8 72 -17 25 -16 46 -35 46 -41 0 -7 4
-13 9 -13 6 0 38 -24 72 -54 58 -51 154 -173 204 -261 22 -39 45 -115 27 -87
-5 8 -21 15 -35 15 -14 1 -23 6 -19 11 3 5 -2 6 -12 3 -9 -4 -30 0 -46 8 -28
14 -90 21 -90 10 0 -15 27 -31 44 -27 15 4 18 1 13 -12 -6 -14 -3 -16 15 -10
18 5 20 3 13 -12 -4 -11 -10 -27 -12 -36 -3 -10 -9 -18 -14 -18 -5 0 -8 -10
-6 -22 1 -17 -7 -27 -31 -39 -18 -10 -41 -24 -51 -33 -10 -9 -22 -16 -27 -16
-5 0 -14 -10 -19 -22 -15 -34 -60 -36 -92 -4 -25 25 -25 26 -5 26 12 0 40 19
64 41 24 23 68 58 98 77 30 20 49 37 42 40 -7 2 -21 -3 -31 -12 -10 -9 -22
-16 -27 -14 -5 2 -18 -6 -30 -17 -11 -11 -34 -31 -50 -44 -16 -13 -37 -31 -47
-39 -16 -15 -17 -14 -11 2 6 14 2 16 -22 10 -16 -3 -36 -15 -46 -25 -9 -10
-20 -19 -24 -19 -4 0 3 11 16 25 13 14 31 25 39 25 16 0 93 57 160 118 l36 32
-30 -6 c-42 -10 -84 -31 -130 -69 -22 -18 -51 -35 -65 -39 -22 -6 -23 -5 -9 6
9 7 14 19 12 26 -3 6 0 12 6 12 6 0 11 6 11 13 -1 6 -11 0 -23 -14 -12 -15
-36 -34 -54 -43 -17 -9 -35 -22 -39 -28 -6 -10 -4 -11 7 0 7 6 18 12 23 12 6
-1 0 -9 -13 -20 -12 -11 -27 -18 -32 -15 -15 10 2 33 44 61 23 15 55 41 71 57
17 18 27 23 23 13 -7 -17 78 45 113 83 8 9 31 27 50 41 35 24 61 52 55 58 -2
2 -33 -17 -70 -42 -70 -48 -81 -52 -105 -36 -13 9 -11 13 10 31 l25 21 -36
-21 c-40 -23 -54 -26 -44 -11 10 16 -18 12 -45 -7 -26 -19 -91 -53 -99 -53 -3
0 11 16 30 36 36 38 122 97 157 108 23 8 126 106 118 113 -3 3 -26 -13 -53
-35 -57 -47 -90 -65 -103 -57 -18 11 -10 23 35 56 25 18 43 34 41 36 -5 5 -66
-31 -66 -39 0 -5 -5 -8 -11 -8 -5 0 -7 5 -4 10 3 6 0 10 -7 10 -8 0 -20 9 -28
20 -15 21 -40 27 -40 10 0 -5 5 -10 11 -10 5 0 7 -4 4 -10 -3 -5 -1 -10 5 -10
24 0 40 -28 31 -53 -6 -14 -14 -28 -19 -31 -6 -3 -8 -14 -6 -24 3 -13 -11 -24
-57 -47 -33 -16 -65 -36 -71 -42 -10 -13 -38 -18 -38 -7 0 3 12 21 26 40 24
31 24 34 8 34 -11 0 -30 -6 -44 -13 -58 -30 -62 -30 -44 5 12 23 13 33 5 36
-9 3 -9 7 0 18 8 10 8 14 1 14 -6 0 -17 -7 -24 -15 -39 -47 -58 -58 -58 -35 0
6 -7 10 -15 10 -22 0 -18 16 8 36 22 16 22 16 -8 9 -37 -8 -34 -5 31 33 125
73 151 86 188 88 21 1 41 6 45 11 3 5 18 14 34 20 15 7 27 18 27 26 0 21 -54
47 -94 43 -27 -2 -35 1 -32 11 3 7 -1 13 -8 13 -8 0 -19 13 -24 30 l-11 29
-38 -15 c-21 -8 -54 -24 -74 -34 -40 -22 -53 -25 -45 -11 3 5 31 20 62 35 56
27 71 46 20 26 -18 -6 -25 -6 -21 0 3 6 13 10 21 10 8 0 14 5 14 12 0 21 31
46 51 41 16 -4 17 -8 8 -20 -11 -12 -8 -12 16 -1 21 10 24 14 12 16 -21 4 -22
38 -2 46 8 3 15 11 15 17 0 7 -9 6 -25 -5 -48 -31 -97 -13 -62 23 10 11 8 11
-13 0 -22 -11 -48 -13 -58 -4 -2 1 8 15 22 30 39 42 31 50 -18 21 -47 -28 -96
-34 -96 -13 0 7 7 23 16 35 21 30 3 28 -26 -3 -22 -24 -48 -25 -33 -2 4 7 9
21 10 31 2 11 7 24 12 30 5 6 18 34 30 61 l21 50 -25 -30 c-14 -16 -23 -35
-21 -41 2 -6 -4 -15 -14 -21 -9 -6 -20 -25 -23 -42 -8 -40 -31 -41 -25 -1 4
24 2 27 -9 19 -7 -7 -13 -20 -13 -30 0 -11 -5 -19 -11 -19 -6 0 -9 6 -6 14 3
8 9 31 13 50 3 20 10 39 15 42 5 3 9 13 9 22 0 14 -2 13 -14 -3 -7 -11 -18
-33 -24 -50 -6 -17 -11 -23 -11 -12 -1 9 -5 17 -11 17 -6 0 -6 -9 -1 -23 6
-15 4 -26 -6 -35 -12 -12 -13 -10 -7 12 4 16 2 26 -5 26 -6 0 -11 -9 -11 -20
0 -26 -27 -37 -46 -19 -12 12 -11 18 1 42 8 16 14 31 13 35 -1 4 6 25 15 46
29 67 10 52 -22 -17 -34 -72 -51 -91 -51 -55 -1 22 -1 22 -15 5 -13 -18 -15
-18 -44 4 -17 13 -31 26 -31 31 0 4 -6 5 -14 2 -8 -3 -17 -1 -21 5 -8 14 -35
14 -35 1 0 -6 8 -14 18 -17 9 -4 22 -12 28 -17 7 -6 21 -19 33 -28 11 -10 21
-25 21 -33 0 -21 -60 -82 -93 -94 -23 -9 -27 -8 -27 8 0 14 -5 18 -20 14 -11
-3 -20 -11 -20 -19 0 -19 -20 -28 -33 -14 -9 9 -8 14 4 23 9 7 19 30 23 52 l7
40 -23 -27 c-13 -15 -31 -38 -41 -52 -26 -37 -41 -32 -21 7 21 39 26 87 9 81
-6 -3 -22 -23 -33 -46 -17 -31 -19 -39 -7 -34 13 4 14 2 5 -14 -11 -20 -20
-24 -52 -21 -12 2 -18 -5 -18 -18 0 -14 -5 -19 -15 -15 -12 5 -12 9 1 29 9 13
13 29 9 35 -3 5 -2 10 3 10 5 0 12 9 15 20 7 25 3 25 -25 -3 -13 -12 -35 -30
-49 -39 -25 -16 -28 -16 -63 9 -42 28 -59 24 -30 -8 17 -18 17 -23 4 -46 -8
-14 -22 -29 -30 -33 -8 -4 -25 -12 -37 -18 -26 -14 -41 1 -23 23 7 8 7 15 1
19 -5 4 -16 -6 -23 -21 -7 -14 -20 -29 -28 -31 -11 -4 -10 1 4 17 11 11 17 23
14 26 -3 3 -13 -4 -23 -15 -22 -24 -35 -26 -35 -5 0 8 -4 15 -10 15 -5 0 -10
-7 -10 -15 0 -9 -9 -19 -20 -23 -19 -7 -18 -9 10 -25 45 -27 157 -14 209 23
20 15 47 31 59 34 12 4 22 12 22 19 0 8 3 8 12 -1 9 -9 6 -18 -15 -40 -15 -15
-27 -33 -27 -39 0 -10 -102 -93 -115 -93 -12 0 -3 30 13 40 15 9 14 10 -5 5
-14 -4 -23 -2 -23 5 0 6 -14 -2 -31 -18 -22 -21 -30 -35 -25 -47 6 -17 7 -17
26 0 11 10 23 15 28 11 9 -10 -44 -56 -64 -56 -25 0 -71 28 -93 57 -15 18 -25
23 -32 16 -11 -11 63 -89 94 -99 21 -6 23 -24 3 -24 -8 0 -18 -9 -21 -20 -4
-11 -38 -48 -77 -81 -39 -34 -83 -76 -97 -93 -14 -17 8 -2 49 34 41 36 81 73
88 83 17 22 32 13 32 -20 0 -20 -27 -52 -112 -135 -62 -60 -121 -114 -131
-120 -37 -19 -3 19 106 122 59 57 105 105 103 108 -10 9 -182 -147 -244 -221
-17 -21 -30 -27 -50 -24 -15 2 -28 10 -30 18 -3 17 75 104 93 104 7 0 56 42
108 93 93 89 118 120 55 67 -33 -28 -49 -26 -27 2 11 15 10 15 -9 -1 -13 -11
-18 -22 -12 -26 5 -3 -20 -35 -55 -70 -68 -67 -87 -76 -34 -15 17 19 29 35 27
35 -10 0 -188 -178 -188 -188 0 -6 6 -15 13 -19 6 -4 17 -17 24 -28 6 -11 17
-18 25 -16 7 2 24 5 37 7 13 1 28 7 34 13 6 6 27 11 47 11 19 0 50 9 69 21 18
11 36 18 38 15 3 -3 13 -1 23 4 12 6 27 2 53 -15 20 -14 42 -25 49 -25 7 1 30
23 51 50 21 28 43 50 49 50 18 0 84 66 80 79 -3 8 -19 -1 -46 -26 l-41 -38 35
40 c41 47 52 55 61 49 4 -2 9 3 12 10 7 18 56 51 64 43 3 -4 -9 -18 -26 -33
-17 -14 -29 -29 -26 -34 3 -4 -24 -32 -59 -61 -67 -57 -98 -93 -71 -83 24 9
18 -24 -6 -37 -15 -8 -18 -14 -10 -22 7 -7 21 -3 47 15 27 19 42 24 62 19 l26
-7 -4 -300 c-3 -164 -4 -339 -3 -389 1 -49 2 -181 3 -292 l1 -203 35 0 c39 0
41 -5 17 -40 -62 -92 -193 -213 -211 -195 -4 3 -1 9 5 13 7 4 35 46 63 92 44
75 46 80 16 45 -19 -22 -45 -57 -58 -77 -13 -21 -26 -38 -30 -38 -3 0 -11 12
-16 28 -6 15 -17 36 -26 47 -16 19 -16 19 -10 -10 4 -16 12 -41 19 -55 29 -58
27 -66 -13 -94 -21 -14 -58 -32 -83 -40 -24 -8 -37 -14 -29 -15 29 -2 105 27
168 63 35 20 68 36 72 36 12 0 126 119 156 164 35 51 71 144 78 203 4 26 11
71 16 98 22 114 28 178 35 372 3 79 10 164 15 190 25 124 38 406 21 476 -14
59 -55 110 -151 186 -91 73 -126 114 -114 133 4 6 3 8 -4 4 -6 -3 -13 -3 -16
2 -3 5 3 9 12 9 9 0 36 -17 59 -38 23 -21 65 -52 92 -69 53 -33 115 -97 144
-150 34 -62 29 -21 -6 52 -34 68 -35 75 -21 102 19 39 18 43 -6 21 -11 -10
-20 -24 -20 -32 0 -17 -24 -17 -40 2 -13 15 -6 35 13 35 7 0 21 14 32 30 19
28 39 35 41 14 0 -5 6 -29 13 -54 13 -42 24 -142 22 -202 0 -35 16 -36 25 -3
7 29 -13 270 -27 317 -4 17 -6 35 -3 39 3 5 1 9 -5 9 -6 0 -8 6 -5 14 3 7 -5
22 -18 33 -25 21 -52 62 -45 70 7 6 69 -74 102 -129 34 -61 47 -61 27 -2 -11
34 -12 48 -3 57 20 20 31 -6 34 -82 2 -44 8 -75 15 -80 7 -4 11 -19 9 -32 -3
-13 -1 -50 4 -83 8 -49 7 -62 -6 -76 -12 -13 -13 -20 -5 -25 7 -4 16 -1 21 6
6 9 9 10 9 2 0 -6 -4 -15 -10 -18 -5 -3 -10 -17 -10 -31 0 -36 21 -114 31
-114 4 0 14 18 20 40 7 22 18 45 26 51 7 6 13 20 13 31 0 11 30 61 66 111 60
85 144 241 144 270 0 6 9 25 19 41 11 17 18 33 15 38 -3 4 -1 8 4 8 12 0 6
-134 -8 -162 -7 -14 2 -8 22 15 37 42 53 48 43 16 -7 -20 -4 -21 20 -15 24 6
26 5 12 -8 -8 -8 -21 -17 -28 -18 -7 -2 -20 -10 -28 -18 -25 -24 -103 -139
-128 -190 -7 -14 -31 -52 -53 -85 -22 -33 -48 -73 -58 -89 -9 -16 -27 -41 -39
-56 -13 -15 -23 -32 -23 -36 0 -5 5 -2 10 6 17 26 12 -17 -5 -50 -20 -38 -26
-38 -15 0 5 17 5 28 1 25 -5 -2 -14 -26 -21 -52 -7 -27 -18 -54 -23 -61 -5 -7
-7 -15 -4 -18 3 -4 0 -13 -8 -20 -8 -8 -11 -22 -8 -31 4 -9 2 -14 -3 -11 -5 4
-10 -10 -12 -30 -1 -21 -9 -70 -17 -110 -9 -40 -13 -77 -10 -82 3 -4 -1 -10
-7 -12 -10 -4 -13 -43 -11 -161 1 -86 -2 -159 -7 -162 -6 -4 -6 -13 0 -23 5
-9 12 -43 15 -74 4 -32 10 -58 15 -58 5 0 6 16 3 35 -3 20 -1 35 4 35 13 0 26
-120 14 -134 -14 -17 3 -96 48 -235 40 -122 61 -161 87 -161 7 0 18 -9 24 -21
10 -18 17 -20 65 -14 49 7 61 4 114 -24 33 -17 70 -31 83 -30 15 0 18 3 8 6
-8 3 -17 9 -20 13 -3 3 -27 21 -53 39 -27 18 -46 35 -44 38 3 2 37 -12 77 -31
40 -20 81 -36 91 -36 10 0 19 -4 19 -10 0 -5 12 -10 28 -9 l27 1 -27 10 c-16
5 -28 13 -28 17 0 4 -25 25 -55 46 -55 38 -64 57 -31 63 14 3 16 -1 12 -16 -6
-17 -2 -19 34 -18 23 0 44 -4 48 -10 7 -11 40 -17 145 -29 26 -3 59 -10 73
-15 34 -13 39 -13 24 5 -7 8 -21 15 -31 15 -10 0 -20 4 -23 9 -9 14 47 23 75
13 29 -11 111 -1 91 11 -10 7 -113 10 -211 6 -13 -1 -27 4 -31 11 -6 9 -12 9
-28 -1 -28 -18 -40 -4 -17 21 27 30 14 33 -28 5 -20 -14 -38 -25 -41 -25 -12
0 -5 26 14 50 31 40 23 47 -13 12 -35 -34 -49 -40 -46 -19 3 17 -11 47 -22 47
-5 0 -9 -9 -9 -20 0 -13 -9 -22 -27 -26 -16 -3 -34 -7 -41 -10 -21 -6 -75 20
-108 53 -32 33 -59 83 -96 177 -19 49 -21 60 -9 64 26 9 100 83 134 135 75
114 107 295 88 493 -7 66 -22 147 -35 186 -24 71 -22 77 20 101 15 9 71 -19
106 -51 26 -23 61 -31 162 -33 30 0 56 31 56 67 l0 34 50 -31 c42 -26 53 -29
66 -18 12 10 20 7 49 -21 30 -29 38 -32 76 -27 30 4 52 16 78 41 20 20 42 36
48 36 43 0 93 57 80 92 -2 7 2 25 9 39 11 22 22 27 70 33 47 5 59 4 69 -11 23
-31 105 -349 105 -405 0 -45 -18 0 -33 82 -16 87 -32 140 -42 140 -4 0 -4 -4
-1 -9 4 -5 10 -35 15 -68 5 -32 21 -119 36 -193 24 -121 27 -148 21 -265 -3
-71 -13 -161 -21 -200 -8 -38 -20 -95 -25 -125 -16 -84 -39 -140 -58 -140 -15
0 -15 -2 -2 -11 11 -8 12 -12 3 -16 -7 -2 -13 -11 -13 -19 0 -8 -5 -14 -11
-14 -6 0 -9 -6 -6 -14 3 -8 3 -16 -1 -18 -4 -2 -22 -32 -40 -67 -59 -112 -209
-281 -251 -281 -10 0 -22 -7 -25 -16 -4 -11 -2 -15 8 -11 22 9 10 -16 -16 -32
-17 -10 -22 -11 -29 0 -6 10 -17 6 -46 -17 -21 -17 -51 -38 -68 -46 -38 -19
-241 -83 -326 -102 -213 -49 -531 -65 -954 -47 -324 13 -593 16 -602 7 -3 -3
28 -6 70 -6 45 0 77 -4 77 -10 0 -6 -59 -11 -155 -12 -85 -1 -162 -2 -171 -2
-14 -1 -15 23 -14 204 1 113 4 246 5 295 6 153 5 606 -1 784 -4 117 -2 171 5
175 7 5 11 -10 11 -46 1 -29 3 -87 5 -128 3 -41 6 -132 7 -202 2 -74 6 -118
11 -106 7 21 2 292 -9 426 -4 53 -10 72 -20 72 -8 0 -14 5 -14 11 0 6 7 9 15
5 9 -3 15 0 15 9 0 8 -6 12 -12 10 -9 -4 -14 10 -15 45 -1 27 1 50 5 50 8 0 7
695 -2 1121 -4 162 -3 298 0 302 4 3 19 -4 34 -16 15 -12 36 -27 46 -33 18
-11 17 -14 -14 -58 -24 -33 -32 -54 -28 -70 8 -32 94 -98 118 -90 17 5 74 52
127 105 42 41 81 119 60 119 -5 0 -9 -6 -9 -13 0 -7 -13 -26 -29 -41 -16 -16
-27 -34 -25 -41 3 -7 -2 -15 -11 -19 -9 -3 -13 -2 -10 4 3 6 1 10 -6 10 -7 0
-3 10 9 23 12 13 22 27 22 33 -1 5 -10 -2 -21 -15 -11 -13 -22 -21 -26 -17 -4
3 4 18 18 34 13 15 4 9 -21 -13 -50 -45 -61 -57 -54 -64 2 -2 15 6 29 19 14
13 25 19 25 13 0 -5 -9 -18 -20 -28 -11 -10 -20 -23 -20 -28 0 -6 11 0 25 13
14 13 25 18 25 12 0 -13 -62 -62 -78 -62 -7 0 -12 5 -12 10 0 6 -7 10 -15 10
-19 0 -19 2 6 47 13 23 15 30 4 18 -9 -11 -23 -19 -31 -17 -8 2 -14 -2 -14 -8
0 -6 5 -8 10 -5 14 9 12 -11 -3 -23 -14 -12 -47 7 -47 28 0 13 35 64 63 92 20
20 39 59 33 66 -4 3 -12 0 -18 -6 -23 -23 -41 -14 -34 16 6 24 5 25 -8 9 -11
-14 -19 -16 -41 -7 -14 5 -25 16 -23 23 6 17 80 58 95 52 7 -2 25 7 40 21 25
23 25 25 8 38 -11 8 -15 18 -10 26 4 7 2 16 -6 21 -20 13 6 29 47 29 25 0 33
5 38 24 7 29 48 46 99 41 46 -4 47 17 1 25 -37 7 -41 28 -14 80 29 57 58 68
109 43 l40 -20 16 34 c18 38 11 59 -9 30 -7 -9 -21 -17 -30 -17 -26 0 -18 14
17 29 45 19 146 119 156 156 5 16 12 37 15 46 6 13 2 15 -19 12 -20 -4 -23 -8
-14 -19 9 -11 8 -21 -1 -43 -12 -31 -60 -81 -60 -64 0 6 7 16 15 23 8 7 15 17
15 23 0 18 -51 -40 -55 -64 -3 -12 -10 -27 -16 -33 -8 -8 -8 -5 0 12 6 12 8
22 2 22 -9 0 -25 -29 -23 -42 2 -10 -28 -31 -35 -24 -4 3 3 16 15 29 28 30 29
57 2 50 -27 -7 -25 6 6 38 l26 27 -38 -13 c-21 -7 -40 -18 -42 -25 -3 -8 0
-10 7 -6 6 4 11 2 11 -4 0 -7 -7 -9 -15 -6 -8 3 -21 9 -29 12 -7 3 -20 -2 -29
-10 -20 -20 -31 -20 -23 -1 3 8 1 15 -3 15 -5 0 -11 -5 -13 -12 -3 -7 -12 -9
-23 -4 -16 6 -13 13 30 56 44 45 47 50 26 50 -27 0 -101 -73 -101 -100 0 -10
15 -27 34 -38 32 -19 37 -19 77 -6 37 13 44 13 57 0 13 -12 13 -17 -1 -36 -17
-25 -95 -80 -113 -80 -6 0 -21 -11 -33 -24 -20 -21 -21 -29 -13 -60 8 -29 8
-36 -3 -36 -8 0 -26 -15 -40 -34 -20 -26 -36 -35 -70 -40 -53 -8 -59 -15 -47
-60 9 -30 7 -37 -12 -56 -28 -25 -93 -59 -101 -52 -3 3 -5 295 -5 650 0 354
-5 732 -11 838 -9 153 -9 198 1 209 7 8 13 15 14 15 0 0 26 -7 55 -15z m1911
-2416 c0 -5 5 -7 11 -4 13 9 66 -13 73 -30 3 -9 -5 -13 -29 -13 -19 0 -38 -3
-44 -7 -6 -3 -19 -8 -28 -10 -10 -2 -54 -23 -98 -47 -56 -31 -91 -58 -123 -96
l-43 -54 33 -31 c20 -19 31 -39 29 -51 -7 -45 -81 -134 -159 -194 l-34 -26
-19 23 c-24 29 -24 42 1 91 11 22 20 46 20 55 0 44 100 182 139 192 14 3 33
14 41 23 33 36 128 104 178 127 56 26 73 42 20 20 -75 -32 -128 -60 -139 -73
-6 -8 -18 -14 -27 -14 -26 0 -78 -39 -107 -80 -15 -22 -32 -40 -38 -40 -5 0
-2 10 7 23 9 12 20 31 25 42 19 41 116 123 176 148 89 37 135 46 135 26z
m-560 -56 c0 -20 3 -23 13 -14 8 6 17 8 20 4 4 -3 14 0 24 8 15 12 16 12 10
-4 -3 -9 -2 -29 4 -44 7 -19 7 -29 0 -31 -6 -2 -9 -7 -6 -12 7 -12 -50 -70
-69 -70 -19 0 -56 56 -56 86 0 11 5 25 12 32 9 9 8 12 -5 12 -33 0 -17 54 18
62 28 6 35 1 35 -29z m460 -302 c0 -4 -24 -29 -52 -55 -29 -25 -73 -66 -98
-89 -25 -24 -67 -59 -93 -78 -71 -50 -187 -149 -187 -158 0 -15 -33 -22 -41
-9 -6 9 -10 7 -15 -7 -4 -11 -17 -33 -29 -50 -28 -39 -49 -91 -41 -104 4 -5 2
-12 -2 -15 -5 -3 -9 -29 -10 -58 0 -29 -5 -64 -10 -78 -7 -20 -9 -13 -6 30 5
98 17 185 26 197 5 6 10 31 12 55 2 23 11 57 20 73 9 17 16 36 16 43 0 6 5 12
10 12 6 0 8 -11 4 -26 l-6 -25 33 30 c18 17 42 31 52 31 48 0 239 132 287 200
12 17 43 45 69 61 49 30 61 34 61 20z m-733 -69 c3 -13 0 -91 -6 -173 -7 -82
-9 -164 -6 -182 5 -29 -8 -68 -18 -57 -3 3 -8 55 -11 115 -13 196 -23 310 -30
327 -7 15 -4 15 28 6 25 -8 38 -19 43 -36z m805 -42 c-12 -5 -25 -17 -28 -25
-4 -9 -16 -21 -28 -27 -21 -11 -21 -11 -2 11 11 11 17 24 14 27 -8 7 -88 -46
-88 -57 0 -5 -11 -9 -24 -9 -13 0 -30 -8 -37 -17 -11 -15 -11 -16 1 -5 8 6 21
12 30 12 10 0 8 -6 -10 -20 -19 -15 -21 -20 -9 -20 9 0 34 15 55 34 24 21 44
31 57 28 14 -4 16 -7 5 -13 -7 -5 -20 -9 -29 -9 -9 0 -24 -11 -33 -24 l-16
-25 33 11 c33 12 84 44 102 65 13 14 106 73 117 73 4 0 -13 -20 -38 -45 -24
-25 -48 -45 -53 -45 -4 0 -18 -11 -31 -25 -22 -23 -22 -25 -4 -25 26 0 29 -47
3 -55 -42 -14 -156 16 -174 46 -4 5 -19 9 -36 9 -16 0 -29 3 -29 8 0 9 88 85
118 101 12 6 28 9 34 5 6 -4 8 -3 4 4 -6 10 21 15 99 20 18 1 17 0 -3 -8z
m-326 -318 c23 -83 30 -232 14 -299 -11 -43 -22 -62 -54 -90 -46 -40 -162 -97
-182 -89 -22 8 -13 309 11 361 41 90 53 109 110 172 l59 66 13 -32 c8 -18 21
-58 29 -89z"/>
<path d="M9860 7285 c-19 -7 -54 -14 -76 -14 -25 -1 -47 -7 -55 -17 -7 -8 -25
-22 -40 -29 -15 -8 -42 -39 -59 -70 -33 -58 -41 -63 -59 -41 -14 17 -55 9 -77
-15 -14 -15 -26 -17 -74 -12 -56 5 -57 5 -84 -30 -15 -20 -36 -39 -47 -42 -11
-4 -19 -15 -19 -28 0 -38 15 -51 62 -56 13 -2 -14 -61 -27 -61 -7 0 -12 -7
-11 -16 1 -17 -53 -55 -66 -47 -5 2 -8 -3 -8 -11 0 -8 -9 -18 -20 -21 -11 -3
-20 -13 -20 -21 0 -19 6 -18 40 8 16 12 33 19 37 15 12 -13 13 -457 0 -485 -9
-20 -9 -26 1 -30 8 -2 12 -27 12 -73 0 -65 -1 -69 -19 -60 -14 8 -20 7 -25 -4
-3 -8 -12 -15 -21 -15 -8 0 -15 -4 -15 -10 0 -5 -7 -10 -15 -10 -15 0 -21 26
-7 32 9 4 44 100 38 105 -4 5 -62 -99 -71 -128 -8 -23 -38 -25 -55 -4 -11 13
-10 22 4 52 9 19 14 38 11 41 -8 9 -33 -30 -41 -63 -6 -25 -2 -33 26 -56 l32
-27 -21 -31 c-13 -17 -29 -31 -37 -31 -8 0 -14 -5 -14 -11 0 -7 -11 -8 -30 -4
-31 7 -36 0 -21 -24 6 -9 18 -11 35 -7 30 7 35 -8 10 -35 -16 -17 -18 -17 -56
2 -30 16 -38 24 -32 37 4 9 9 32 12 51 7 48 -15 31 -23 -19 -4 -22 -11 -40
-17 -40 -6 0 -8 13 -5 33 5 28 5 29 -5 10 -13 -26 -21 -28 -37 -9 -9 10 -7 25
9 61 11 26 19 50 17 52 -9 8 -40 -52 -44 -87 -5 -35 -3 -38 47 -74 28 -20 64
-42 78 -49 15 -6 29 -12 31 -14 3 -2 -6 -15 -20 -30 -25 -27 -17 -25 38 13 18
12 29 25 25 29 -4 5 -1 5 6 1 7 -4 20 -2 28 5 13 10 17 10 24 0 4 -8 13 -10
20 -6 10 6 11 1 6 -21 -7 -28 -7 -28 13 -10 11 10 22 28 24 40 4 20 4 20 6 -2
2 -33 28 -38 57 -11 21 20 27 21 34 9 8 -13 13 -47 13 -85 0 -5 -3 -21 -8 -34
l-7 -23 133 5 c146 6 199 22 273 83 19 16 49 40 66 53 17 13 46 49 63 80 26
46 33 52 35 34 2 -13 8 -23 13 -23 16 0 -35 -62 -58 -71 -13 -5 -23 -13 -23
-19 0 -13 49 -8 58 7 4 5 12 12 17 14 19 8 145 146 145 160 1 8 7 3 15 -11 18
-32 18 -28 -1 65 -11 51 -13 80 -6 87 7 7 10 6 9 -3 -6 -58 63 -279 87 -279 4
0 5 8 1 18 -13 35 -17 70 -7 76 6 3 8 15 5 26 -6 21 12 29 19 8 3 -7 7 -5 11
6 4 10 3 15 -3 11 -14 -9 -12 7 5 28 7 11 11 25 9 31 -3 7 2 19 10 26 9 7 13
16 10 21 -3 5 4 9 15 9 25 0 26 -8 5 -38 -8 -12 -12 -22 -8 -22 3 0 0 -10 -8
-22 -8 -13 -18 -43 -22 -68 -4 -24 -12 -50 -18 -57 -7 -8 -7 -13 0 -13 18 0
21 -64 3 -85 -15 -18 -15 -19 2 -6 15 12 17 11 17 -3 0 -9 -7 -28 -16 -42 -24
-36 -10 -40 17 -4 61 79 72 90 77 86 3 -3 -1 -12 -8 -21 -17 -20 -4 -33 18
-17 33 23 40 23 65 -2 22 -22 29 -24 55 -15 33 11 74 3 172 -32 52 -20 55 -20
68 -2 36 48 37 69 1 37 -11 -10 -25 -13 -39 -9 -21 7 -21 7 6 24 16 10 35 25
43 35 12 15 12 16 -5 10 -15 -4 -13 0 7 18 51 46 41 59 -16 23 -30 -19 -58
-35 -62 -35 -4 0 -19 -9 -33 -20 -25 -20 -60 -27 -60 -12 0 4 12 13 28 19 15
7 54 35 87 62 33 27 68 50 77 50 20 1 98 68 98 84 0 6 -12 -1 -27 -15 -39 -35
-61 -41 -68 -18 -15 46 -30 43 -116 -19 -45 -34 -86 -61 -91 -61 -12 0 -10
-30 2 -31 25 -4 30 -3 32 6 1 6 20 22 42 36 23 14 48 32 56 40 34 32 48 40 54
30 7 -10 -123 -121 -141 -121 -5 0 -18 -9 -29 -21 -10 -11 -28 -25 -39 -31
-14 -6 -12 -2 8 16 15 14 27 28 27 31 0 8 -32 -10 -55 -32 -35 -33 -54 -35
-80 -9 l-23 23 29 22 c16 12 29 26 29 32 0 6 -7 3 -16 -5 -18 -18 -34 -21 -34
-5 0 5 -5 7 -11 3 -8 -4 -7 -9 2 -15 7 -4 10 -11 7 -15 -4 -3 -14 1 -22 9 -14
14 -11 21 30 76 25 34 50 61 55 61 15 0 11 -10 -22 -52 -41 -51 -31 -60 14
-12 20 22 39 34 46 30 15 -10 5 -25 -27 -38 -16 -6 -22 -12 -14 -15 18 -7 15
-18 -14 -52 -14 -17 -21 -31 -16 -31 6 0 20 12 32 28 12 15 34 34 50 42 15 8
55 38 87 65 33 28 69 55 79 62 18 12 18 12 -3 19 -13 3 -23 13 -23 20 0 8 -4
14 -10 14 -5 0 -10 -4 -10 -9 0 -5 -12 -23 -26 -40 -26 -31 -52 -35 -96 -16
-24 10 -23 14 17 60 19 21 32 41 29 44 -3 4 -18 -8 -34 -26 -30 -33 -70 -52
-70 -33 0 7 8 24 18 38 35 51 36 55 13 40 -12 -7 -24 -21 -27 -30 -3 -10 -10
-18 -15 -18 -16 0 -10 37 12 74 12 20 16 36 11 36 -6 0 -19 -13 -28 -29 -11
-19 -23 -27 -32 -23 -11 4 -14 1 -10 -9 4 -10 -1 -15 -13 -15 -22 0 -22 -2 -9
30 6 17 6 26 0 26 -6 0 -10 -3 -10 -7 0 -5 -9 -19 -19 -32 -15 -20 -21 -22
-39 -12 -12 7 -22 18 -22 26 0 10 -10 15 -30 15 -29 0 -40 13 -20 25 6 3 10
13 10 22 0 8 9 29 21 46 l21 32 -26 -28 c-14 -15 -26 -36 -26 -45 0 -12 -3
-13 -12 -4 -9 9 -9 15 0 24 7 7 12 21 12 32 0 15 -10 4 -32 -32 -19 -30 -40
-52 -50 -52 -9 0 -19 -4 -22 -9 -3 -5 -15 -7 -26 -4 -26 7 -27 52 -1 84 10 14
31 47 46 74 l26 50 -31 -35 c-36 -41 -110 -150 -110 -163 0 -4 6 -5 13 -1 6 4
8 3 4 -1 -4 -5 -18 -11 -31 -12 -22 -3 -23 -1 -16 31 4 18 11 39 15 46 5 8 4
11 -2 7 -6 -4 -14 25 -21 74 -10 67 -23 112 -49 162 -2 4 -2 7 1 7 15 0 57
-109 58 -148 1 -23 3 -41 4 -39 2 2 17 30 34 63 l31 59 -29 -33 -29 -32 5 28
c6 44 -52 151 -89 165 -16 6 -29 17 -29 24 0 7 -5 13 -11 13 -6 0 -37 22 -68
48 -62 54 -112 77 -186 87 -119 15 -116 14 -105 38 11 22 11 22 -5 2 -9 -12
-28 -20 -45 -20 -35 -1 -34 7 5 90 26 54 24 73 -4 36 l-18 -24 -23 21 c-27 25
-22 45 19 63 18 8 30 20 28 29 -3 22 65 26 83 6 14 -18 55 -22 45 -6 -19 30
65 56 92 29 9 -9 19 -3 42 22 17 18 31 37 31 42 0 5 10 22 21 39 16 22 28 29
45 25 18 -3 24 0 24 13 0 18 36 30 92 30 16 0 37 7 45 16 20 19 70 12 89 -14
12 -15 13 -15 14 -1 0 39 -71 58 -130 34z m-308 -530 c49 -14 133 -72 180
-121 39 -42 78 -135 78 -186 0 -30 -8 -55 -25 -80 -14 -21 -21 -39 -15 -43 5
-3 17 13 26 35 12 30 19 38 25 28 12 -17 -1 -141 -15 -150 -8 -5 -7 -13 2 -28
31 -51 -2 -164 -51 -175 -94 -19 -134 -25 -171 -25 -30 0 -55 -8 -80 -25 -47
-32 -56 -31 -56 3 -1 15 -3 90 -5 167 -2 77 -5 237 -6 355 -1 118 -6 223 -10
232 -16 30 46 37 123 13z"/>
<path d="M9975 7198 c16 -19 25 -39 22 -50 -4 -13 2 -23 20 -31 14 -6 31 -28
40 -50 13 -32 20 -38 37 -33 12 4 41 9 66 13 25 3 50 10 56 14 6 5 30 15 53
24 42 15 43 14 82 -17 43 -34 50 -58 19 -58 -26 0 -25 -13 3 -44 65 -72 71
-85 44 -106 -25 -20 -16 -52 19 -70 23 -13 24 -18 18 -54 -3 -23 -11 -47 -16
-53 -15 -18 2 -16 23 3 13 12 16 25 12 51 -6 34 -5 35 18 27 13 -4 31 -8 39
-9 8 -1 23 -6 32 -10 10 -4 38 0 64 9 54 18 118 8 153 -25 20 -19 20 -22 6
-50 -15 -28 -15 -30 10 -41 33 -15 33 -46 0 -54 l-25 -6 23 -29 c23 -29 57
-39 57 -16 0 7 -5 18 -11 24 -9 9 -8 18 4 37 19 28 14 52 -15 67 -15 8 -18 17
-13 38 5 23 0 33 -25 55 -39 32 -70 41 -118 31 -20 -4 -49 -9 -63 -12 -19 -4
-33 2 -52 21 -30 30 -53 33 -79 9 -20 -18 -25 -5 -5 16 10 11 8 13 -10 8 -26
-6 -30 5 -8 23 22 18 19 32 -20 81 -30 38 -33 48 -28 84 5 41 4 42 -44 73 -56
36 -88 40 -115 15 -10 -9 -33 -17 -51 -18 -17 0 -42 -6 -54 -13 -35 -19 -50
-14 -73 25 -12 21 -30 43 -40 50 -10 7 -21 25 -25 40 -7 29 -21 43 -43 43 -9
0 -4 -12 13 -32z"/>
<path d="M9236 6881 c-37 -29 -39 -30 -73 -16 -54 23 -69 19 -119 -30 -25 -25
-49 -45 -55 -45 -5 0 -9 -7 -9 -17 0 -15 -2 -14 -20 2 -23 21 -47 18 -140 -18
-56 -21 -65 -29 -68 -52 -2 -14 1 -39 6 -55 10 -27 9 -28 -34 -35 -24 -3 -46
-11 -50 -16 -8 -14 23 -59 41 -59 20 0 19 10 -2 27 -16 13 -15 14 15 10 17 -2
32 0 32 5 0 4 -5 8 -11 8 -5 0 -7 5 -3 11 4 6 20 8 38 5 44 -8 50 2 21 36 -27
32 -32 62 -12 75 19 13 120 43 143 43 11 0 29 -9 39 -20 10 -11 22 -20 26 -20
4 0 11 9 14 20 4 12 15 20 29 20 30 0 37 9 26 30 -6 11 -4 24 6 38 19 28 67
29 101 2 l26 -20 11 22 c6 12 25 29 41 38 17 8 32 16 34 18 3 1 0 7 -5 12 -7
7 -23 1 -48 -19z"/>
<path d="M10701 6490 c-63 -35 -81 -38 -56 -10 10 11 14 20 8 20 -5 0 -18 -8
-27 -19 -15 -17 -15 -19 -1 -25 10 -3 13 -11 9 -18 -5 -7 4 -5 19 5 14 9 31
17 36 17 13 0 -41 -52 -71 -68 -39 -21 -84 -60 -77 -66 8 -8 52 -9 99 -4 47 6
78 24 116 65 17 18 38 33 48 33 14 0 15 4 6 20 -9 17 -8 20 10 20 24 0 38 26
22 42 -9 9 -17 7 -32 -7 -11 -10 -23 -15 -27 -12 -3 4 -3 7 1 7 4 0 1 7 -8 15
-18 19 -11 20 -75 -15z"/>
<path d="M8887 5743 c-64 -77 -126 -140 -132 -135 -3 4 -3 -1 0 -9 3 -9 -1
-22 -10 -29 -11 -9 -13 -15 -4 -20 17 -11 -5 -46 -53 -80 -23 -17 -34 -30 -26
-30 9 0 21 7 28 15 14 17 35 21 25 5 -4 -6 1 -7 12 -3 16 6 16 5 4 -11 -8 -9
-19 -15 -26 -12 -6 2 -17 -5 -24 -16 -11 -17 -15 -18 -22 -7 -10 15 -10 15
-13 -22 -1 -20 2 -25 14 -21 13 5 13 3 1 -11 -21 -26 3 -21 51 12 44 30 58 31
58 5 0 -16 26 -19 35 -3 4 5 -1 19 -10 29 -21 24 -22 89 -1 149 6 16 4 26 -5
32 -10 6 -3 20 27 56 66 80 106 133 100 133 -3 0 -16 -12 -29 -27z"/>
<path d="M8794 5698 c-28 -29 -68 -75 -89 -101 -39 -50 -72 -74 -83 -62 -4 4
1 12 10 19 22 16 12 29 -13 16 -33 -18 -29 7 9 51 40 48 78 119 62 119 -6 0
-10 -6 -10 -14 0 -20 -130 -166 -147 -166 -16 0 -17 -19 -2 -40 8 -11 12 -12
16 -2 5 14 32 16 52 3 11 -7 10 -13 -4 -35 -12 -17 -15 -36 -12 -56 5 -25 1
-33 -32 -59 -52 -41 -94 -105 -95 -145 -1 -19 -7 -41 -15 -49 -23 -29 -10 -52
33 -55 27 -2 45 -11 58 -28 11 -13 27 -24 36 -24 19 0 80 21 100 34 16 10 27
2 17 -14 -11 -18 -88 -63 -109 -64 -11 -1 -21 -7 -23 -13 -3 -9 5 -12 24 -9
38 4 67 21 90 50 15 21 21 23 35 13 37 -29 20 -77 -38 -106 -43 -22 -44 -24
-38 -59 4 -21 13 -44 20 -53 8 -8 14 -21 14 -27 0 -7 4 -12 9 -12 14 0 33 28
27 39 -8 12 13 40 80 106 76 74 128 135 121 141 -3 3 -23 -13 -44 -37 -80 -90
-167 -169 -184 -169 -8 0 -8 4 1 15 9 10 9 15 1 15 -6 0 -11 7 -11 15 0 8 7
15 15 15 8 0 15 3 15 8 0 4 16 18 35 31 34 23 45 53 24 66 -6 4 -8 13 -5 20 2
7 -2 16 -10 19 -21 8 -17 23 7 29 12 3 18 10 14 16 -9 16 -47 13 -91 -5 -21
-9 -49 -18 -62 -20 -26 -5 -55 13 -46 28 3 5 -5 19 -18 31 -26 25 -58 68 -58
79 0 16 64 79 101 100 26 15 38 27 34 37 -3 8 0 18 7 23 10 6 10 10 -2 18 -13
8 -12 11 5 24 15 12 16 15 5 16 -13 0 -13 1 0 10 9 6 17 5 21 -2 8 -13 69 27
69 45 0 8 -3 8 -12 -1 -26 -26 -27 -10 -3 38 14 27 58 81 98 119 40 39 65 71
57 71 -9 0 -38 -24 -66 -52z"/>
<path d="M9547 3660 c-7 -115 -18 -172 -41 -225 -27 -60 -32 -70 -42 -70 -12
-1 -84 -67 -84 -77 0 -16 26 -7 49 17 13 14 27 25 32 25 18 0 -14 -46 -65 -92
-66 -61 -38 -65 40 -6 31 23 63 42 72 43 9 1 30 7 45 14 16 6 32 11 37 11 5 0
10 5 12 10 2 6 44 -12 93 -39 93 -52 155 -73 155 -52 0 6 -11 11 -23 11 -13 0
-48 17 -78 39 -30 21 -63 40 -73 42 -13 3 -23 17 -29 39 -5 19 -13 40 -19 45
-8 7 -9 5 -5 -7 3 -9 -1 -22 -9 -29 -12 -10 -17 -8 -29 7 -9 10 -15 15 -14 9
3 -19 -1 -38 -6 -33 -3 2 -1 69 4 149 7 106 6 160 -4 204 l-12 60 -6 -95z"/>
<path d="M12430 7930 c-75 -3 -126 -8 -115 -12 28 -11 224 -24 325 -23 173 2
180 3 180 25 0 19 -6 20 -127 18 -71 -1 -189 -5 -263 -8z"/>
<path d="M12159 7893 c-9 -2 -19 -14 -22 -26 -3 -12 -17 -67 -32 -121 -14 -55
-24 -110 -20 -123 3 -13 2 -23 -3 -23 -4 0 -9 -17 -9 -37 -1 -21 -4 -67 -8
-103 -8 -74 4 -72 24 5 26 104 71 340 71 375 0 20 5 41 12 48 7 7 10 11 8 11
-3 -1 -12 -3 -21 -6z"/>
<path d="M12732 7239 c-85 -11 -155 -32 -246 -75 -96 -46 -101 -54 -16 -26 8
2 -12 -12 -45 -32 -33 -21 -78 -51 -100 -68 -22 -17 -34 -25 -27 -18 6 8 12
18 12 22 0 40 -97 -67 -168 -185 -94 -157 -137 -322 -136 -522 0 -103 5 -149
24 -220 13 -49 23 -99 22 -110 -1 -11 3 -22 7 -25 4 -3 19 -27 33 -55 14 -27
49 -95 78 -150 29 -55 72 -136 95 -180 23 -44 97 -181 165 -305 68 -124 132
-242 143 -262 18 -36 18 -41 2 -140 -10 -57 -23 -110 -31 -119 -10 -11 -11
-18 -3 -26 9 -9 7 -33 -5 -94 -11 -57 -13 -86 -6 -93 5 -5 10 -21 11 -35 0
-26 0 -26 11 -4 10 21 18 23 97 23 47 0 103 3 123 6 47 8 75 -1 60 -19 -8 -9
-6 -16 9 -25 16 -10 19 -10 19 4 0 11 5 14 16 10 9 -3 18 -6 20 -6 2 0 4 -7 4
-16 0 -13 7 -15 33 -10 79 15 125 18 145 7 18 -10 21 -9 16 4 -6 15 -17 17
-116 19 -32 1 -57 6 -55 11 1 6 29 8 67 5 36 -2 85 -4 110 -3 25 0 47 -2 50
-6 15 -19 52 -25 120 -20 73 5 66 11 -15 13 -25 1 -51 9 -68 22 -35 28 -34 36
6 32 19 -2 31 -8 30 -15 -3 -12 14 -18 72 -28 11 -2 29 1 40 5 16 7 12 9 -18
9 -23 1 -36 5 -32 11 4 6 26 8 56 4 42 -6 49 -4 49 11 0 15 7 16 53 9 28 -4
59 -6 67 -5 8 1 23 1 33 2 9 0 17 4 17 8 0 9 -41 12 -185 11 -105 -1 -123 1
-137 17 -15 17 -26 68 -48 223 -27 187 -39 142 127 471 169 335 228 463 310
664 84 209 116 383 94 521 -15 92 -59 230 -97 306 -78 155 -222 302 -345 351
-41 16 -76 32 -79 36 -10 13 -72 43 -77 37 -3 -3 -14 -1 -23 4 -37 20 -267 31
-368 19z m382 -78 c59 -17 130 -43 159 -57 57 -29 117 -71 117 -83 0 -4 -23
-12 -51 -18 -46 -9 -56 -8 -99 14 -27 13 -69 42 -95 65 -25 22 -48 39 -50 36
-6 -5 66 -66 123 -103 23 -15 42 -30 42 -34 0 -3 -71 -26 -158 -50 -212 -60
-376 -113 -442 -145 -29 -14 -59 -26 -64 -25 -6 0 -35 32 -64 72 -64 86 -140
173 -146 166 -3 -2 38 -58 90 -123 52 -65 94 -121 94 -125 0 -3 -9 -19 -21
-36 -55 -82 -121 -250 -152 -390 l-13 -60 -140 -112 c-76 -61 -142 -108 -147
-104 -4 4 -9 22 -10 39 -1 18 -6 32 -11 32 -4 0 -6 6 -3 14 3 7 0 19 -6 25
-18 18 -20 301 -2 321 8 8 19 36 24 61 15 64 58 183 92 250 33 67 87 149 98
149 4 0 39 -25 77 -55 89 -72 190 -142 180 -127 -11 17 -224 182 -236 182 -24
0 -5 23 58 70 238 176 493 227 756 151z m360 -232 c52 -56 77 -99 39 -68 -9 8
-1 -7 17 -33 36 -51 53 -59 25 -11 l-17 28 21 -24 c22 -25 28 -51 10 -51 -6 0
-5 -11 4 -27 8 -16 20 -41 26 -56 6 -15 15 -26 19 -23 12 7 31 -53 41 -130 10
-80 3 -337 -10 -371 -5 -13 -13 -23 -18 -23 -27 0 -132 191 -194 355 -19 50
-67 170 -106 268 -40 98 -71 180 -69 181 8 7 124 44 139 45 9 1 42 -26 73 -60z
m-258 -61 c-4 -40 -11 -116 -16 -168 -5 -52 -10 -124 -10 -160 l0 -65 -41 64
c-72 109 -189 181 -295 181 -105 0 -255 -70 -298 -139 -44 -69 -68 -164 -63
-243 8 -124 24 -169 83 -242 73 -88 140 -121 239 -119 74 1 138 19 185 53 37
26 47 10 14 -21 -26 -25 -71 -90 -120 -173 -41 -72 -13 -48 43 37 26 39 85
119 132 176 93 116 130 192 134 277 2 44 5 54 17 51 9 -2 61 -33 115 -69 55
-36 133 -86 173 -111 39 -26 72 -52 72 -59 0 -7 -105 -66 -233 -130 -127 -64
-296 -155 -375 -202 -78 -47 -146 -86 -152 -86 -5 0 -32 35 -59 78 -28 42 -75
102 -105 132 -31 30 -56 59 -56 64 0 5 -7 18 -17 28 -11 13 -12 18 -3 18 7 0
-1 15 -19 33 -42 44 -111 139 -111 154 0 8 7 10 18 6 14 -6 15 -4 4 9 -7 8 -9
24 -6 34 6 16 5 17 -7 7 -18 -18 -25 -16 -25 7 0 11 7 20 14 20 9 0 12 6 8 16
-3 8 -2 13 3 10 4 -3 8 9 9 27 4 93 73 286 121 341 9 10 29 25 46 34 33 17
551 199 574 201 11 1 12 -13 7 -71z m97 -138 c31 -74 75 -184 97 -245 23 -60
62 -148 86 -194 25 -46 44 -84 42 -86 -2 -2 -57 33 -123 77 -66 43 -142 90
-169 104 l-48 25 6 52 c14 113 25 266 26 347 0 108 8 100 83 -80z m-343 -91
c55 -25 125 -90 152 -144 32 -61 36 -174 9 -246 -62 -163 -253 -257 -375 -185
-123 72 -183 202 -157 341 11 61 57 147 101 192 62 63 182 82 270 42z m-523
-476 c51 -79 144 -203 217 -290 34 -40 72 -87 86 -105 22 -29 23 -31 5 -24
-11 4 -43 16 -71 26 -27 10 -108 46 -180 80 -71 34 -163 75 -204 92 -41 16
-93 38 -116 49 -22 10 -46 19 -53 19 -11 0 51 52 138 115 16 11 50 37 77 57
27 21 52 38 56 38 4 0 25 -26 45 -57z m1166 -79 c3 -3 -3 -22 -13 -42 -10 -21
-39 -84 -65 -142 -44 -97 -79 -168 -229 -465 -30 -60 -91 -185 -136 -277 -44
-93 -85 -168 -90 -168 -6 0 -10 -5 -10 -11 0 -7 -22 -48 -48 -93 -27 -45 -57
-103 -67 -129 -10 -26 -22 -50 -26 -53 -4 -2 -6 -11 -2 -19 3 -10 -1 -15 -12
-15 -14 0 -15 -3 -6 -14 9 -10 9 -16 1 -21 -6 -4 -14 -4 -18 0 -4 3 -8 108
-10 233 -2 125 -5 264 -7 309 -2 45 0 81 3 80 4 -1 8 2 9 6 1 4 9 15 18 23 17
18 20 34 5 34 -6 0 -15 -12 -20 -26 -17 -44 -31 -15 -30 64 0 43 0 88 -1 102
-3 47 1 69 14 82 21 22 47 67 47 80 -1 7 -12 -6 -26 -29 -14 -24 -30 -41 -35
-38 -4 3 -8 25 -7 49 0 24 -2 48 -5 53 -9 14 52 59 195 144 66 39 291 154 303
155 6 0 27 8 49 17 21 9 40 17 41 17 2 0 26 16 55 35 29 19 58 35 65 35 7 0
18 7 25 15 13 16 23 19 33 9z m-1090 -268 c82 -37 172 -76 201 -86 84 -32 86
-35 91 -125 20 -351 26 -469 31 -670 3 -126 10 -245 14 -262 11 -41 -4 -43
-19 -3 -5 17 -15 30 -20 30 -6 0 -8 7 -5 14 5 12 -59 130 -116 216 -9 14 -84
145 -152 268 -17 30 -57 99 -89 154 -32 55 -59 101 -59 104 0 2 -22 41 -49 86
-48 83 -231 439 -231 450 0 3 57 -20 128 -52 70 -32 194 -88 275 -124z"/>
<path d="M11896 5841 c-8 -12 -78 -306 -120 -506 -43 -199 -125 -534 -136
-554 -5 -9 -7 -5 -7 13 0 14 3 29 8 32 13 8 11 54 -3 54 -6 0 -8 -3 -5 -6 3
-4 2 -15 -3 -24 -5 -10 -12 -37 -15 -60 -3 -23 -8 -46 -11 -51 -3 -5 -1 -9 4
-9 11 0 3 -58 -9 -66 -5 -3 -9 -13 -9 -22 0 -15 2 -15 11 -2 9 12 10 12 5 -3
-3 -10 -6 -23 -6 -28 0 -6 -4 -8 -9 -5 -4 3 -8 -14 -8 -37 0 -40 -9 -78 -53
-242 -11 -38 -24 -100 -30 -137 -6 -37 -12 -73 -15 -80 -2 -7 -6 -24 -9 -38
-2 -14 -20 -90 -39 -170 -19 -80 -38 -160 -42 -178 -4 -18 -9 -32 -11 -30 -6
6 34 221 50 264 7 22 17 59 20 84 4 25 11 59 16 75 5 17 11 46 14 65 2 19 11
80 20 135 20 136 27 237 16 230 -6 -4 -8 8 -6 27 2 18 4 42 5 53 1 17 3 18 12
5 9 -12 10 -12 7 -1 -6 20 -28 26 -28 8 0 -8 -6 -17 -14 -20 -16 -6 -14 42 4
118 5 22 11 52 15 68 3 15 9 27 13 27 6 0 1 -87 -10 -144 -1 -10 2 -21 8 -23
7 -2 10 6 9 22 -2 14 0 27 5 30 4 3 8 28 8 56 1 28 3 54 6 56 3 3 1 14 -5 24
-7 15 -6 19 5 19 9 0 13 6 10 14 -3 8 -1 17 4 20 6 3 8 15 5 27 -4 12 0 25 8
30 12 7 12 9 0 9 -19 0 -9 98 25 245 14 61 27 121 30 135 3 14 12 61 20 105
23 113 34 175 39 210 3 17 10 54 15 82 8 35 8 58 1 70 -8 16 -12 13 -25 -19
-9 -21 -16 -43 -16 -50 0 -17 -79 -369 -85 -378 -2 -4 -13 -76 -25 -161 -22
-162 -41 -251 -110 -514 -45 -171 -46 -177 -85 -360 -15 -66 -37 -163 -51
-215 -14 -52 -34 -142 -44 -201 -11 -58 -34 -159 -51 -225 -34 -129 -42 -161
-64 -274 -8 -41 -21 -109 -30 -150 -11 -48 -15 -99 -11 -140 5 -65 -16 -160
-35 -160 -5 0 -6 -7 -3 -15 10 -26 34 -17 34 13 1 15 7 38 14 52 l14 25 7 -40
c4 -22 13 -54 21 -72 8 -17 14 -38 14 -48 0 -34 41 -105 69 -119 16 -9 31 -13
33 -10 3 3 61 7 129 9 159 6 160 6 124 15 -18 4 36 8 130 8 102 0 153 -3 140
-8 -12 -6 63 -7 189 -3 191 6 210 5 222 -11 11 -16 13 -16 19 3 5 18 12 20 46
15 26 -4 39 -3 39 5 0 6 -14 11 -30 11 -30 0 -31 1 -24 35 3 19 12 51 19 72
l13 37 63 -1 c175 -4 249 -9 249 -17 0 -10 230 -1 267 10 13 3 20 10 17 15 -3
5 -9 7 -12 5 -12 -7 -211 -16 -227 -10 -7 3 -11 12 -8 20 7 18 -1 18 -37 -1
-16 -8 -31 -11 -34 -7 -2 4 -49 9 -103 10 -54 2 -113 4 -130 6 -18 1 -35 -3
-37 -8 -3 -6 -3 3 1 19 3 17 7 32 9 34 2 2 38 -2 81 -9 69 -11 216 -9 418 5
17 1 86 6 155 10 69 4 130 12 135 17 7 7 -18 8 -75 3 -150 -12 -618 -16 -625
-5 -4 7 60 11 187 12 268 2 307 4 314 11 4 4 -96 7 -222 7 -250 0 -266 1 -272
18 -2 7 -8 12 -13 12 -6 0 -8 -4 -4 -9 9 -16 -26 -30 -45 -19 -19 12 -15 62 4
51 6 -4 5 0 -2 9 -11 13 -11 29 -2 80 6 35 16 71 21 81 6 11 8 21 6 24 -3 2 1
30 8 61 7 31 16 89 20 127 3 39 10 79 15 90 16 36 39 157 33 173 -6 13 1 14
48 9 30 -4 185 -7 346 -7 l292 0 7 -46 c3 -25 12 -51 19 -57 10 -9 9 -14 -2
-22 -12 -9 -12 -15 -1 -40 7 -17 18 -35 24 -42 12 -13 28 -112 19 -121 -3 -3
-5 4 -5 16 0 12 -5 22 -11 22 -6 0 -8 -8 -5 -17 13 -41 57 -277 59 -313 0 -16
12 -37 60 -109 16 -24 26 -49 23 -57 -3 -8 -1 -14 4 -14 4 0 29 -21 54 -46 45
-44 46 -45 46 -19 0 36 -35 101 -65 121 -13 9 -27 25 -31 36 -3 11 -15 29 -27
41 l-20 20 22 9 c19 7 21 11 11 22 -8 10 -8 20 -2 33 6 10 10 22 10 26 1 18
12 19 13 1 4 -93 36 -200 54 -182 4 3 0 19 -8 35 -18 35 -28 101 -18 108 10 5
2 55 -9 55 -4 0 -8 26 -8 58 -2 46 0 53 9 38 7 -11 13 -38 15 -60 3 -43 50
-271 58 -284 3 -5 8 -31 11 -58 3 -27 8 -61 11 -76 5 -24 2 -27 -28 -31 l-33
-4 37 -1 c20 -1 40 -7 44 -13 5 -9 64 -10 221 -5 275 9 814 -3 818 -18 16 -58
60 -188 66 -192 4 -2 -2 29 -12 69 -11 39 -22 88 -24 107 -7 41 -26 127 -61
262 -13 54 -23 101 -22 105 0 4 -4 22 -11 38 -16 38 -61 223 -61 250 0 11 -14
79 -30 150 -78 338 -91 401 -93 441 -1 23 -5 41 -8 38 -4 -2 -9 6 -12 19 -44
187 -57 242 -62 283 -4 27 -10 58 -12 69 -3 11 -7 34 -10 50 -4 24 -2 27 7 15
10 -12 11 -10 6 10 -4 14 -12 50 -18 80 -6 30 -14 60 -18 65 -4 6 -11 33 -15
60 -4 28 -10 55 -13 60 -18 28 -31 80 -21 86 8 4 7 9 -1 14 -6 4 -9 13 -6 21
3 8 1 14 -5 14 -6 0 -9 6 -6 13 5 13 -16 107 -28 127 -3 5 -8 29 -11 52 -2 24
-8 61 -14 83 -5 22 -17 74 -26 115 -9 41 -25 107 -36 145 -21 74 -83 300 -96
349 -4 16 -13 31 -19 33 -9 3 -11 -11 -8 -54 3 -32 5 -70 5 -85 1 -16 5 -28
10 -28 5 0 9 -8 9 -17 0 -34 12 -105 23 -131 6 -15 12 -34 13 -42 1 -8 12 -44
23 -80 12 -36 21 -74 20 -85 -1 -21 17 -95 31 -130 9 -21 51 -225 59 -284 3
-23 1 -32 -7 -27 -6 4 -11 1 -11 -8 0 -8 8 -20 18 -25 9 -6 11 -11 5 -11 -21
0 -15 -26 10 -43 18 -13 19 -16 5 -16 -14 -1 -16 -7 -11 -33 13 -65 20 -83 34
-80 11 3 12 1 2 -9 -15 -15 -18 -33 -4 -25 4 3 6 -6 3 -19 -2 -14 5 -38 17
-59 16 -25 18 -35 9 -39 -11 -4 -11 -7 0 -14 7 -5 14 -18 16 -29 3 -10 8 -28
12 -38 5 -13 4 -17 -3 -13 -7 5 -9 0 -6 -13 3 -11 9 -20 13 -20 4 0 8 -12 8
-27 2 -36 6 -56 14 -68 3 -5 18 -66 33 -135 29 -135 79 -361 100 -450 7 -30
29 -129 49 -220 69 -311 106 -465 131 -541 14 -42 25 -78 25 -80 0 -2 -181 -3
-403 -2 -221 1 -443 2 -494 3 l-92 0 -6 48 c-4 26 -11 63 -16 83 -12 47 -46
249 -54 319 -3 30 -10 75 -15 100 -5 25 -12 68 -14 95 -3 28 -17 103 -31 168
-14 64 -25 133 -25 151 0 39 -11 51 -37 38 -10 -5 -81 -6 -163 -1 -188 10
-268 11 -305 5 -80 -14 -194 -17 -215 -6 -16 8 -29 9 -48 1 -15 -6 -53 -12
-85 -14 -32 -2 -62 -8 -66 -13 -5 -5 -23 -61 -41 -124 -17 -63 -38 -128 -46
-145 -27 -60 -114 -397 -114 -443 0 -17 13 -8 16 11 4 24 55 242 60 256 2 8 6
12 9 9 2 -2 -5 -46 -15 -98 -11 -52 -23 -111 -26 -130 -3 -19 -12 -56 -20 -81
-9 -28 -12 -58 -8 -74 4 -18 3 -26 -3 -22 -6 4 -8 -4 -5 -20 4 -19 2 -24 -8
-18 -9 5 -11 4 -6 -3 4 -7 4 -33 0 -58 l-7 -47 -120 7 c-66 4 -123 8 -127 11
-3 2 -26 5 -51 6 -24 1 -48 5 -53 7 -6 3 -142 5 -303 5 -162 0 -296 3 -298 7
-2 4 11 67 29 141 18 74 45 188 61 254 15 66 35 152 45 190 10 39 18 77 18 85
0 18 36 157 47 183 4 10 3 17 -4 17 -11 0 -9 39 3 59 4 5 8 22 10 38 6 54 30
163 65 298 5 22 13 56 16 75 3 19 10 51 15 70 5 19 9 42 8 50 -3 34 3 60 12
60 6 0 6 -9 0 -25 -5 -14 -6 -25 -1 -25 11 0 42 80 35 91 -3 5 -2 15 2 21 5 7
9 19 10 28 5 39 14 88 21 115 5 17 8 44 8 62 0 17 3 29 7 27 8 -5 10 8 12 69
0 15 4 27 7 27 4 0 9 11 11 25 3 13 1 22 -3 19 -5 -3 -9 0 -9 5 0 6 7 11 15
11 13 0 14 4 5 20 -7 13 -7 20 -1 20 6 0 8 7 5 15 -4 8 -1 15 6 15 7 0 10 6 7
14 -3 8 -2 16 3 18 4 2 11 17 13 33 3 17 11 55 17 85 7 30 16 75 20 100 5 25
15 72 24 105 9 33 28 112 42 175 14 63 27 124 30 135 3 11 6 31 8 45 4 32 16
118 22 150 3 14 7 40 11 58 5 31 0 42 -11 23z"/>
<path d="M12440 3131 c13 -9 13 -11 -2 -11 -10 0 -18 -7 -18 -15 0 -17 65 -22
75 -5 3 6 11 10 16 10 6 0 8 -4 5 -9 -6 -9 48 -19 77 -13 9 2 15 8 12 13 -7
11 -19 10 245 10 135 0 205 3 187 9 -15 4 -89 9 -165 9 -75 1 -207 4 -292 6
-107 4 -150 3 -140 -4z"/>
<path d="M6300 3107 c0 -8 -9 -22 -20 -32 -11 -10 -20 -22 -20 -27 0 -4 -18
-27 -40 -50 -32 -34 -39 -48 -35 -70 5 -25 2 -28 -20 -28 -14 0 -25 -4 -25
-10 0 -10 77 -12 95 -2 5 4 -1 9 -15 13 -20 6 -17 7 18 8 24 1 42 -4 42 -10 0
-6 9 -8 23 -3 12 4 31 8 42 10 11 1 22 3 25 3 3 1 -2 6 -10 12 -13 9 -12 10 2
5 10 -3 20 -1 23 4 8 13 -81 13 -105 0 -21 -11 -75 4 -66 19 3 5 52 9 108 10
56 1 105 4 109 6 4 3 63 6 133 6 69 1 123 6 120 10 -3 5 -58 9 -122 10 -86 0
-111 3 -93 10 14 5 30 8 37 5 7 -3 15 -2 18 1 3 3 40 5 82 4 52 -2 74 1 69 8
-3 6 -40 11 -86 11 -43 0 -79 4 -79 9 0 9 53 20 105 22 24 1 22 3 -15 10 -25
5 -72 8 -105 6 -33 -2 -71 -1 -85 3 -16 4 12 9 78 14 57 4 102 10 99 12 -2 2
-61 7 -130 10 -115 4 -126 3 -130 -13 -4 -17 -5 -17 -6 0 -1 20 -21 24 -21 4z"/>
<path d="M15975 2940 c3 -5 -1 -10 -9 -10 -9 0 -16 -4 -16 -10 0 -6 28 -10 65
-10 37 0 65 -4 65 -10 0 -5 -26 -10 -57 -11 -60 -1 -103 -6 -111 -14 -3 -3 12
-12 34 -22 50 -22 350 -31 337 -10 -5 9 -2 8 9 -1 11 -9 46 -12 119 -10 89 3
101 5 82 16 -20 11 -40 14 -83 11 -8 0 -25 3 -37 6 -18 6 -23 3 -23 -10 0 -16
-2 -16 -17 -4 -22 18 -78 26 -69 10 4 -7 -1 -11 -13 -11 -12 0 -21 6 -21 13 0
9 -2 9 -8 -1 -7 -9 -16 -10 -40 -1 -18 6 -43 8 -56 5 -17 -4 -26 -1 -30 10 -9
24 -9 24 28 24 44 0 96 11 96 20 0 4 -11 12 -24 18 -30 13 -67 5 -59 -14 3 -9
-2 -14 -16 -14 -14 0 -19 5 -15 15 4 8 1 15 -5 15 -6 0 -11 -4 -11 -9 0 -6
-12 -6 -27 -2 -16 4 -33 6 -40 4 -6 -2 -14 1 -18 6 -3 6 -13 11 -21 11 -8 0
-12 -4 -9 -10z"/>
<path d="M12514 2870 c-5 -5 -45 -10 -89 -11 -82 -2 -154 -17 -87 -18 17 -1
32 -5 32 -10 0 -25 541 -5 565 21 7 8 6 9 -2 4 -6 -3 -14 0 -16 6 -4 10 -8 10
-14 1 -5 -7 -48 -11 -126 -12 -99 0 -118 3 -113 15 7 19 -4 18 -18 -2 -9 -12
-17 -13 -38 -5 -14 5 -35 7 -47 4 -12 -3 -21 -1 -21 6 0 14 -13 14 -26 1z"/>
</g>
</svg>
