<?xml version="1.0" standalone="no"?>
<!DOCTYPE svg PUBLIC "-//W3C//DTD SVG 20010904//EN"
 "http://www.w3.org/TR/2001/REC-SVG-20010904/DTD/svg10.dtd">
<svg version="1.0" xmlns="http://www.w3.org/2000/svg"
 width="1928.000000pt" height="1074.000000pt" viewBox="0 0 1928.000000 1074.000000"
 preserveAspectRatio="xMidYMid meet">
<metadata>
Created by potrace 1.16, written by Peter Selinger 2001-2019
</metadata>
<g transform="translate(0.000000,1074.000000) scale(0.100000,-0.100000)"
fill="#000000" stroke="none">
<path d="M14564 8003 c9 -17 20 -35 26 -38 21 -13 9 -34 -22 -38 -32 -4 -31
-4 6 -5 37 -2 38 -3 33 -34 -9 -64 -19 -1179 -19 -2238 -1 -740 -4 -1077 -11
-1082 -8 -4 -8 -14 -1 -30 15 -32 17 -427 3 -444 -7 -9 -7 -19 -1 -31 6 -11
11 -111 11 -228 0 -116 2 -317 3 -448 3 -226 2 -238 -16 -243 -19 -6 -19 -7 0
-17 35 -19 58 -48 44 -57 -9 -5 -9 -9 -1 -14 18 -11 13 -26 -6 -20 -12 4 -10
-1 6 -13 54 -42 116 -107 113 -119 -2 -9 6 -14 22 -14 21 0 30 -12 60 -71 29
-58 36 -83 36 -130 0 -33 4 -59 9 -59 6 0 10 17 9 38 0 57 21 125 37 118 8 -3
75 -6 150 -7 118 -1 134 -3 124 -16 -11 -12 -9 -13 12 -8 38 9 445 30 652 34
31 1 57 6 57 11 0 6 -7 10 -15 10 -8 0 -23 9 -32 20 -21 24 -33 26 -33 5 0 -9
-9 -15 -22 -15 -17 0 -19 3 -10 12 7 7 12 42 12 85 l0 73 28 0 c26 -1 166 -13
282 -25 40 -5 51 -4 40 4 -8 6 -36 11 -62 11 -26 0 -59 5 -75 12 -15 6 -68 12
-118 12 -87 1 -90 2 -93 24 -3 22 -1 23 25 18 15 -4 64 -7 108 -8 44 -1 72 -4
63 -6 -26 -5 -22 -22 5 -23 12 -1 47 -3 77 -5 30 -1 116 -4 190 -4 74 -1 153
-5 176 -9 40 -7 40 -7 30 15 -6 12 -13 21 -15 18 -2 -2 -14 2 -26 10 -30 20
-75 24 -330 31 -121 3 -239 8 -262 11 l-42 5 0 527 c0 290 -3 659 -7 820 -4
160 -4 292 -1 292 3 0 15 -30 27 -68 13 -37 47 -124 76 -194 30 -70 54 -131
54 -137 0 -6 12 -36 26 -68 14 -32 52 -132 85 -223 111 -307 152 -415 166
-444 8 -16 16 -45 18 -65 1 -20 16 -65 32 -101 41 -87 105 -261 99 -267 -2 -3
-21 14 -42 36 -20 23 -39 39 -42 36 -3 -3 9 -20 27 -39 23 -24 29 -35 19 -39
-7 -2 4 -8 25 -12 27 -5 42 -15 52 -35 8 -16 28 -38 45 -50 17 -12 28 -26 24
-31 -3 -5 -1 -8 4 -7 11 3 222 -182 222 -194 0 -5 -27 -8 -60 -8 -33 0 -60 -4
-60 -10 0 -12 7 -13 90 -14 l64 -1 42 -83 c44 -89 76 -133 48 -67 -9 22 -25
57 -35 77 -40 78 -6 80 52 3 23 -30 46 -55 51 -55 11 0 -23 50 -47 70 -34 28
-14 32 138 25 83 -4 196 -7 250 -8 l97 0 0 -59 c0 -32 4 -58 10 -58 6 0 10 27
10 60 l0 60 41 0 c23 0 47 7 55 15 11 10 36 15 85 15 l69 0 1 -67 c1 -38 1
-75 0 -85 -1 -9 3 -19 9 -23 7 -4 10 24 10 84 l0 91 38 2 c20 1 51 1 69 -1 17
-1 34 3 38 9 3 5 0 10 -7 11 -34 1 -104 10 -116 14 -10 4 -12 17 -7 53 10 74
14 1032 4 1032 -5 0 -10 -39 -10 -87 l-2 -88 -8 70 c-5 39 -6 115 -3 170 3 55
7 168 9 250 2 83 8 175 15 205 14 69 20 721 8 955 -4 94 -9 635 -11 1202 l-3
1032 22 -5 c12 -3 24 -1 28 4 3 5 -8 12 -24 16 -17 3 -30 12 -30 20 0 8 -9 18
-20 21 -12 4 -66 47 -122 97 -117 105 -116 104 -187 157 -30 22 -57 39 -59 37
-18 -19 72 -118 165 -181 50 -34 140 -122 132 -129 -2 -2 -60 1 -129 6 -85 7
-230 7 -455 -1 l-330 -12 -30 34 c-16 18 -39 44 -51 58 -11 13 -55 57 -97 96
-42 40 -77 74 -77 76 0 1 64 2 143 1 482 -5 633 -3 669 8 57 17 46 28 -29 30
-38 0 -81 3 -98 4 -99 10 -682 -7 -724 -21 -7 -3 -10 -12 -7 -20 3 -9 -1 -93
-10 -188 -11 -126 -14 -226 -9 -372 7 -238 8 -835 1 -842 -2 -3 -2 -11 1 -19
3 -8 -1 -14 -8 -14 -8 0 -5 -6 7 -16 16 -13 16 -15 2 -10 -15 5 -18 -1 -18
-36 0 -57 -12 -41 -48 67 -17 50 -50 135 -72 190 -23 55 -55 141 -71 192 -16
51 -57 154 -90 230 -33 76 -76 176 -94 223 -71 181 -103 258 -121 285 l-18 28
29 -7 c29 -7 29 -7 11 13 -10 11 -24 17 -30 15 -16 -6 -139 153 -131 167 4 5
3 8 -2 7 -10 -4 -93 85 -93 99 0 5 -14 22 -31 39 l-31 29 8 -30 c11 -43 61
-122 114 -180 25 -27 58 -67 74 -87 16 -21 35 -38 42 -38 8 0 14 -4 14 -8 0
-11 -708 -3 -742 8 -17 6 -28 5 -28 -1 0 -5 -25 -9 -54 -9 -49 0 -58 4 -85 32
-17 18 -47 61 -67 95 -32 55 -86 123 -99 123 -2 0 14 -27 36 -61 22 -33 39
-65 37 -71 -2 -6 -15 6 -28 28 -13 21 -41 58 -63 81 -38 40 -47 72 -12 43 10
-8 19 -10 25 -4 6 6 58 6 127 2 220 -13 712 -14 702 -2 -12 15 -143 22 -539
30 -173 3 -318 8 -322 11 -5 2 -8 -2 -8 -9 -1 -12 -8 -5 -67 67 l-24 30 15
-32z m2043 -407 c7 -39 7 -61 -1 -151 -4 -49 -7 -186 -7 -303 l1 -213 -26 -9
c-14 -6 -29 -8 -33 -6 -3 2 -8 -40 -9 -95 -3 -95 -3 -99 17 -99 20 0 21 6 21
91 0 68 3 90 13 86 9 -3 12 -51 12 -195 0 -104 -3 -194 -7 -198 -15 -14 -21 6
-20 58 1 29 -3 71 -8 93 -8 35 -9 32 -5 -24 2 -38 0 -59 -5 -51 -5 8 -6 -4 -3
-29 5 -35 3 -43 -8 -39 -8 3 -17 20 -20 39 -3 19 -12 48 -18 64 -12 29 -18
305 -7 323 3 4 3 17 1 28 -2 10 -4 24 -4 30 -1 7 -8 15 -17 18 -9 3 -12 2 -9
-5 4 -5 8 -115 9 -244 1 -129 -2 -229 -6 -222 -4 6 -8 20 -8 29 0 9 -4 18 -10
20 -5 2 -6 17 -1 40 5 20 6 40 3 43 -7 7 -8 20 -15 183 -3 62 -7 116 -10 119
-3 3 -2 16 3 29 6 14 6 26 0 29 -10 6 -7 56 5 86 4 10 0 16 -10 16 -13 0 -15
-18 -16 -111 -3 -264 -4 -296 -11 -296 -5 0 -9 21 -9 48 -1 26 -3 61 -5 77 -5
36 -7 81 -4 115 2 26 -9 804 -12 830 -5 55 4 50 119 -65 64 -65 119 -127 120
-139z m-1752 -3 c-5 -10 -7 -22 -6 -27 2 -10 2 -35 -5 -2061 -6 -1717 -4
-1603 -27 -1609 -17 -4 -17 -6 -2 -30 24 -36 15 -52 -14 -27 -13 12 -25 21
-27 21 -1 0 -1 -35 2 -78 2 -43 0 -109 -5 -147 -5 -44 -5 -75 1 -82 5 -7 7
-17 3 -22 -6 -11 -7 -77 -2 -218 1 -47 -2 -78 -7 -73 -4 4 -10 46 -11 92 -2
45 -6 143 -9 216 -4 92 -2 132 5 132 8 0 8 4 1 13 -5 6 -9 32 -7 56 2 27 -3
50 -11 58 -7 8 -11 20 -8 28 4 8 1 15 -5 15 -16 0 -16 -8 -7 -239 4 -85 4
-152 1 -149 -4 3 -13 109 -21 234 -17 245 -17 256 -16 439 1 66 1 128 1 138 0
9 -5 15 -11 11 -7 -4 -7 0 1 13 6 11 8 23 5 26 -3 3 -1 8 5 12 6 3 11 1 11 -4
0 -6 5 -11 10 -11 6 0 3 11 -6 25 -9 14 -14 28 -10 32 3 3 6 1 6 -5 0 -7 4
-12 10 -12 6 0 6 9 0 25 -8 21 -6 25 8 26 10 0 12 3 5 6 -7 2 -13 11 -13 18 0
8 -8 19 -17 24 -16 9 -16 12 -3 21 9 5 10 10 3 10 -7 0 -10 13 -9 33 4 47 4
47 24 40 14 -5 15 -3 5 7 -10 11 -16 10 -34 -6 -13 -10 -19 -13 -15 -6 4 6 4
17 0 24 -4 7 -9 24 -10 37 -2 20 -1 22 6 11 5 -8 10 -23 10 -33 0 -11 5 -17
13 -14 6 2 11 15 9 28 -1 13 -4 40 -6 60 -2 20 -7 43 -12 50 -7 12 -5 12 9 0
26 -21 20 3 -8 33 -24 26 -31 76 -12 76 5 0 7 -11 5 -25 -3 -16 1 -30 13 -41
21 -19 27 -6 7 14 -9 9 -9 12 1 12 11 0 11 3 1 15 -10 12 -10 15 0 15 10 0 10
3 0 15 -9 10 -9 15 -1 15 6 0 11 13 11 29 0 23 -5 30 -22 33 -21 3 -23 9 -25
68 l-1 65 8 -48 c5 -27 12 -52 16 -55 4 -4 4 4 1 18 -4 14 -7 52 -7 85 0 42
-3 56 -10 45 -5 -8 -10 -13 -11 -10 -6 21 -3 190 3 190 4 0 8 -7 8 -15 0 -8 9
-24 20 -35 11 -11 20 -16 20 -11 0 5 -7 14 -15 21 -8 7 -15 21 -15 31 0 11 -7
19 -15 19 -9 0 -15 9 -15 25 0 14 6 25 13 25 9 0 9 2 0 8 -8 5 -12 40 -12 107
0 55 -1 109 -1 120 -8 189 -12 957 -6 1040 2 28 7 131 11 230 5 99 12 182 17
183 5 2 4 10 -3 18 -9 11 -9 18 1 29 7 8 9 15 4 15 -5 0 -9 114 -9 253 -1 138
-4 298 -8 355 -8 121 0 128 53 50 19 -29 45 -63 58 -77 34 -37 42 -85 41 -252
-2 -188 -1 -209 9 -209 4 0 8 90 7 200 0 110 4 200 8 200 10 0 -18 40 -101
145 l-64 80 107 -107 c87 -85 106 -110 100 -125z m345 19 c20 -8 -77 -20 -172
-21 -45 -1 -80 -6 -84 -12 -7 -12 118 -8 321 10 61 5 187 12 280 16 94 3 180
7 192 9 12 3 26 -1 31 -7 11 -14 33 -100 27 -105 -2 -2 -18 16 -36 42 -46 65
-50 48 -5 -21 49 -77 128 -238 166 -342 17 -46 44 -113 60 -147 30 -66 60
-147 60 -165 0 -6 11 -34 24 -62 13 -29 26 -63 30 -77 8 -27 13 -41 46 -115
26 -58 43 -98 45 -105 0 -3 6 -15 13 -27 6 -12 41 -109 76 -215 36 -107 78
-223 94 -259 16 -36 33 -81 37 -100 3 -19 16 -59 27 -89 11 -30 21 -62 23 -70
3 -16 53 -135 86 -208 11 -24 27 -62 36 -85 21 -52 80 -152 99 -168 26 -22 26
-1 -1 77 -26 76 -27 85 -31 363 -3 157 -6 332 -7 389 -2 86 0 102 13 103 12 1
11 2 -2 6 -14 3 -16 11 -11 36 3 18 10 34 15 35 4 2 5 9 1 15 -12 19 -13 40
-2 53 6 7 6 15 1 18 -5 3 -8 18 -6 33 2 16 6 278 8 583 2 305 5 565 5 577 1
23 2 23 164 21 89 -1 235 2 323 6 l161 8 6 -33 c8 -55 13 -1870 9 -3542 -1
-416 2 -812 7 -880 5 -67 8 -138 6 -157 -2 -19 1 -53 6 -75 4 -22 5 -41 1 -43
-4 -1 -6 -21 -4 -44 l4 -41 -38 6 c-22 4 -139 7 -260 7 l-221 0 0 25 c0 24 0
24 34 10 20 -8 39 -15 44 -15 13 0 4 43 -9 48 -8 2 -10 -3 -5 -14 5 -13 3 -15
-8 -9 -7 5 -20 10 -29 11 -8 1 -23 5 -34 9 -16 7 -17 5 -11 -23 6 -29 4 -32
-18 -32 -18 0 -26 6 -29 25 -4 17 -1 25 8 25 21 0 17 9 -16 37 -16 13 -30 33
-30 44 0 18 5 18 48 2 9 -3 27 -8 40 -9 20 -2 22 -1 11 12 -6 8 -14 12 -16 10
-3 -2 -22 2 -43 9 -21 7 -41 11 -44 8 -6 -6 -38 60 -42 87 -3 17 -68 202 -76
216 -3 5 -9 24 -13 41 -3 18 -11 35 -16 38 -14 9 -53 101 -83 195 -26 82 -31
95 -54 150 -6 14 -22 59 -36 100 -21 66 -59 162 -99 253 -6 15 -15 27 -18 27
-12 0 -16 49 -5 53 8 3 8 8 0 18 -6 8 -24 46 -39 84 -15 39 -33 80 -41 93 -8
12 -13 26 -10 31 3 4 -5 30 -18 57 -43 89 -68 149 -126 312 -12 34 -27 65 -31
68 -5 3 -9 12 -9 20 0 13 -97 279 -155 424 -14 36 -28 85 -31 109 -5 45 -14
69 -14 38 0 -10 -4 -17 -8 -17 -13 0 -32 23 -32 39 0 9 -11 21 -25 28 l-25 11
22 -39 c12 -21 25 -39 30 -39 4 0 8 -7 8 -16 0 -14 -3 -14 -15 -4 -23 19 -29
5 -9 -25 15 -22 16 -40 10 -128 -4 -56 -7 -151 -6 -212 4 -429 -3 -1901 -11
-2015 -1 -8 1 -24 4 -35 3 -11 6 -42 8 -68 l4 -49 -177 1 c-98 0 -292 0 -432
0 l-253 1 -7 41 c-9 58 -8 2463 1 2466 5 2 6 90 3 195 -3 106 -5 604 -5 1107
0 708 3 915 12 918 9 3 10 9 1 22 -6 10 -8 25 -5 34 5 13 26 14 149 10 79 -2
150 -7 158 -11z m2320 -1443 c0 -5 -5 -9 -11 -9 -8 0 -7 -6 2 -17 10 -11 10
-14 2 -9 -7 4 -13 3 -13 -3 0 -5 4 -12 10 -16 6 -3 6 -15 0 -30 -5 -13 -7 -34
-4 -47 9 -47 11 -174 3 -195 -6 -16 -13 -21 -25 -16 -15 5 -15 7 0 15 20 11
12 30 -9 21 -12 -4 -15 8 -14 68 0 41 4 95 8 121 4 25 4 53 0 61 -12 20 11 63
33 64 10 1 18 -2 18 -8z m-1337 -2005 c-3 -8 -1 -14 4 -14 10 0 29 -39 67
-140 13 -36 40 -101 60 -144 20 -44 34 -86 32 -93 -3 -7 -1 -13 5 -13 6 0 7
-5 3 -12 -4 -6 0 -16 8 -22 8 -6 16 -14 17 -18 1 -4 8 -22 16 -40 7 -18 11
-36 9 -39 -2 -4 3 -12 11 -19 11 -9 12 -17 4 -32 -7 -13 -7 -23 -2 -27 11 -7
35 -72 30 -78 -8 -7 -123 246 -155 342 -12 33 -37 97 -56 142 -19 45 -38 98
-42 117 -3 20 -10 36 -14 36 -4 0 -11 11 -14 24 -3 13 -9 31 -12 39 -4 12 0
14 15 10 12 -3 17 -11 14 -19z m1334 -86 c5 -7 10 -26 11 -42 3 -37 8 -42 27
-26 24 20 30 4 28 -72 -3 -80 -10 -95 -38 -74 -15 11 -20 26 -20 67 0 34 -5
54 -13 57 -10 3 -13 -13 -11 -72 1 -57 5 -76 14 -72 8 3 11 -2 8 -15 -3 -11
-10 -16 -17 -12 -6 4 -5 -1 2 -10 12 -14 11 -16 -7 -14 -11 1 -22 6 -25 12 -2
6 -4 73 -3 148 0 123 2 137 17 137 10 0 22 -6 27 -12z m-2866 -205 c1 -21 0
-87 0 -148 -5 -334 -1 -513 14 -582 6 -25 -9 -31 -22 -10 -4 6 -9 23 -10 37
-5 56 -9 682 -5 710 6 42 22 37 23 -7z"/>
<path d="M16747 7323 c-4 -3 -7 -55 -7 -115 l0 -108 45 0 c50 0 62 17 15 22
l-31 3 -2 88 c-2 48 -1 87 2 88 3 1 22 2 41 2 l35 2 -4 -99 c-2 -79 0 -97 10
-94 20 6 25 198 7 210 -16 9 -102 11 -111 1z"/>
<path d="M16938 7324 c-5 -4 -8 -53 -8 -110 0 -97 1 -102 23 -108 34 -9 67 -7
67 4 0 6 -13 10 -30 10 l-30 0 0 89 0 89 28 5 c15 3 31 2 36 -3 5 -5 8 -49 7
-99 -2 -86 6 -110 26 -79 8 14 7 187 -2 196 -9 9 -110 14 -117 6z"/>
<path d="M17135 7319 c-4 -5 -4 -38 -1 -72 4 -41 3 -55 -3 -42 -7 15 -9 6 -6
-30 3 -46 5 -51 34 -59 19 -5 44 -5 64 0 26 8 32 15 31 37 0 15 -1 61 -2 102
l-2 75 -54 0 c-30 0 -58 -5 -61 -11z"/>
<path d="M16744 6917 c-2 -7 -3 -60 -2 -118 l3 -104 52 0 c29 1 54 3 57 6 8 7
9 206 2 218 -10 16 -105 14 -112 -2z"/>
<path d="M17137 6923 c-3 -5 -7 -55 -8 -113 l-4 -105 47 -3 c75 -5 79 0 83
114 3 68 0 101 -8 106 -16 10 -104 10 -110 1z"/>
<path d="M16740 6385 l0 -115 49 0 c82 0 81 -2 81 121 l0 109 -65 0 -65 0 0
-115z"/>
<path d="M17134 6086 c-3 -7 -6 -55 -7 -106 -2 -108 4 -117 76 -106 l47 7 0
110 0 109 -55 0 c-38 0 -57 -4 -61 -14z"/>
<path d="M16768 5703 c-20 -5 -31 -77 -26 -168 3 -68 9 -72 84 -60 l44 6 0
108 0 109 -31 6 c-33 6 -44 6 -71 -1z"/>
<path d="M16965 5700 l-30 -5 -3 -107 -3 -107 45 -6 c78 -12 86 -1 86 119 l0
104 -32 4 c-18 2 -46 1 -63 -2z m75 -115 l0 -95 -40 0 -40 0 -1 53 c-3 145 -6
137 41 137 l40 0 0 -95z"/>
<path d="M17148 5703 c-10 -2 -18 -5 -18 -6 0 -1 -3 -47 -7 -101 -5 -89 -4
-101 12 -113 20 -14 83 -18 101 -5 7 4 13 51 16 114 4 101 4 107 -16 112 -24
6 -62 6 -88 -1z"/>
<path d="M16748 5269 c-15 -8 -18 -24 -17 -92 2 -134 9 -143 97 -132 l42 6 0
108 c0 104 -1 109 -22 115 -34 9 -81 7 -100 -5z m100 -116 l3 -93 -51 0 -51 0
2 85 c2 94 10 107 64 102 l30 -2 3 -92z"/>
<path d="M16937 5274 c-4 -4 -7 -56 -7 -115 l0 -107 29 -7 c16 -3 46 -3 65 1
l37 6 -3 112 -3 111 -55 3 c-31 2 -59 0 -63 -4z m91 -26 c7 -7 12 -42 12 -88
0 -83 -9 -100 -51 -100 l-28 0 -3 91 c-2 73 0 93 12 100 21 12 44 11 58 -3z"/>
<path d="M17158 5273 l-28 -4 0 -109 c0 -123 2 -126 79 -112 l44 7 -2 105 c-1
57 -3 105 -4 106 -7 6 -67 10 -89 7z"/>
<path d="M16557 4844 c-11 -12 -8 -202 4 -209 6 -4 12 -5 14 -3 2 2 5 45 6 96
2 67 6 92 16 94 7 0 19 1 26 2 9 1 12 -23 12 -91 0 -50 3 -94 7 -98 17 -18 24
12 24 107 l-1 103 -50 3 c-28 2 -54 0 -58 -4z"/>
<path d="M16742 4738 l3 -112 56 -4 c68 -4 69 -3 69 136 l0 92 -65 0 -66 0 3
-112z"/>
<path d="M16940 4825 c-11 -28 -8 -180 3 -191 11 -11 72 -15 96 -6 19 7 22 17
26 107 3 71 1 102 -8 107 -7 4 -33 8 -60 8 -42 0 -49 -3 -57 -25z"/>
<path d="M17136 4834 c-3 -9 -6 -57 -6 -109 l0 -92 40 -7 c69 -11 77 -1 82
111 3 54 3 101 1 106 -2 4 -28 7 -58 7 -39 0 -54 -4 -59 -16z"/>
<path d="M16571 4441 c-11 -7 -14 -34 -14 -113 l1 -103 41 -3 c74 -6 80 3 80
123 l0 105 -47 0 c-26 0 -53 -4 -61 -9z"/>
<path d="M16758 4428 c-2 -13 -4 -63 -3 -113 l0 -90 40 -5 c22 -3 51 -1 64 4
22 10 23 14 18 71 -3 33 -2 79 2 102 9 49 4 53 -69 53 -42 0 -48 -3 -52 -22z"/>
<path d="M16946 4442 c-2 -4 -6 -54 -7 -111 -3 -99 -2 -105 19 -114 14 -7 36
-6 67 3 l45 13 0 108 0 109 -59 0 c-33 0 -62 -3 -65 -8z m94 -118 c0 -93 0
-94 -24 -94 -53 0 -56 6 -56 100 l0 89 33 3 c17 2 35 2 40 0 4 -2 7 -46 7 -98z"/>
<path d="M17178 4442 c-28 -3 -28 -4 -29 -85 0 -45 -2 -92 -5 -104 -3 -17 2
-24 19 -28 26 -6 93 8 90 18 -2 4 -3 52 -3 107 0 111 8 101 -72 92z"/>
<path d="M16569 3973 c-2 -100 3 -168 13 -174 6 -4 26 -3 46 2 20 4 39 6 43 3
11 -7 17 20 12 57 -3 18 -8 59 -11 89 -7 58 -29 80 -79 80 -21 0 -23 -5 -24
-57z"/>
<path d="M16770 4015 c-9 -10 -14 -49 -14 -108 l-1 -92 43 -3 c63 -5 72 10 72
112 0 74 -3 87 -19 96 -29 15 -67 12 -81 -5z"/>
<path d="M16962 4012 c-17 -17 -20 -33 -18 -113 l1 -94 48 -3 c71 -5 75 3 70
111 -3 50 -8 95 -12 98 -3 4 -20 10 -38 14 -24 5 -36 2 -51 -13z"/>
<path d="M16973 3640 c-20 -8 -23 -17 -25 -75 -4 -140 -7 -128 36 -137 25 -5
43 -5 50 2 5 5 17 10 26 10 13 0 14 14 12 92 -2 51 -8 98 -14 105 -12 15 -53
16 -85 3z"/>
<path d="M16754 3631 c-2 -2 -4 -46 -4 -98 0 -92 0 -94 28 -106 15 -6 30 -16
34 -22 5 -6 8 -6 8 1 0 6 13 17 30 24 28 12 29 15 29 74 0 33 1 73 4 89 2 15
0 30 -6 34 -11 7 -116 11 -123 4z"/>
<path d="M17145 3628 c-2 -7 -6 -52 -8 -100 l-5 -88 42 0 c67 1 76 14 76 114
l0 86 -50 0 c-32 0 -52 -5 -55 -12z"/>
<path d="M4768 7968 c-2 -24 -7 -32 -18 -29 -48 13 -921 4 -884 -9 48 -17 680
-31 792 -17 50 6 62 5 62 -6 0 -8 -11 -19 -25 -25 -14 -6 -25 -16 -25 -22 0
-5 -6 -10 -13 -10 -7 0 -20 -8 -29 -17 -8 -10 -42 -37 -74 -60 -33 -23 -72
-55 -88 -72 -16 -17 -32 -28 -36 -26 -4 3 -18 -11 -31 -29 l-23 -34 -226 5
c-257 6 -330 22 -110 24 191 1 293 8 304 19 5 5 -26 7 -80 5 -49 -2 -160 -5
-247 -6 -86 -1 -160 -5 -163 -10 -3 -5 -10 -6 -16 -3 -6 4 -14 0 -19 -7 -8
-12 -10 -12 -18 0 -11 18 -101 16 -113 -2 -6 -9 -8 -9 -8 1 0 6 -11 12 -25 12
-14 0 -25 -4 -25 -9 0 -5 -10 -7 -22 -4 -17 3 -19 2 -9 -5 10 -7 -1 -12 -38
-17 -29 -4 -54 -5 -57 -3 -2 3 16 18 40 34 117 77 315 215 326 229 27 32 -2
26 -67 -14 -37 -23 -143 -92 -234 -154 -92 -61 -175 -117 -185 -124 -17 -10
-16 -11 11 -10 28 2 30 -1 37 -43 3 -25 6 -166 6 -315 -1 -148 3 -409 7 -579
7 -293 7 -309 -10 -303 -11 5 -28 -3 -51 -23 -33 -29 -38 -30 -131 -30 l-96 0
-43 40 c-24 22 -48 40 -55 40 -6 0 -18 -18 -27 -40 -9 -22 -19 -40 -22 -40 -3
0 -6 266 -8 590 -2 538 1 628 21 578 7 -16 0 267 -8 342 -3 30 -3 72 1 92 5
34 9 37 42 40 81 8 -282 7 -594 -1 -311 -9 -333 -11 -370 -31 -21 -12 -50 -32
-64 -45 -14 -13 -61 -44 -104 -69 -59 -35 -81 -44 -87 -34 -6 9 -10 7 -15 -7
-4 -11 -15 -26 -23 -33 -21 -16 -92 -54 -95 -50 -2 2 -10 14 -19 28 l-17 24 0
-26 c0 -16 -9 -33 -20 -41 -17 -12 -18 -16 -6 -20 10 -4 15 -21 14 -54 0 -26
3 -104 5 -173 26 -601 26 -1013 0 -1260 -4 -36 -5 -69 -4 -75 2 -5 5 -98 7
-205 2 -107 8 -305 15 -440 10 -215 9 -513 -4 -1155 -1 -44 1 -107 6 -140 4
-33 10 -87 13 -120 7 -73 34 -226 42 -240 3 -5 7 -22 9 -38 7 -66 113 -298
183 -402 60 -89 51 -87 -53 12 -137 133 -56 37 127 -148 111 -113 193 -187
228 -207 78 -45 85 -56 92 -140 5 -68 4 -74 -17 -82 -17 -7 311 -17 402 -12 8
0 42 -5 75 -12 75 -16 731 -22 740 -8 3 6 -31 12 -82 15 -48 3 -96 8 -107 10
-11 3 -37 6 -57 6 -57 1 -45 21 12 21 28 0 50 -4 50 -8 0 -5 35 -4 78 2 87 13
143 13 162 1 8 -5 16 -2 22 9 5 9 27 19 48 22 22 4 40 11 40 16 0 4 10 12 23
17 12 5 76 34 141 65 65 31 121 55 124 52 2 -3 6 -44 7 -90 l3 -85 -177 3
c-256 6 -267 -17 -15 -30 88 -5 123 -3 169 10 41 12 61 14 68 7 16 -16 35 -13
57 9 11 11 27 20 35 20 8 0 15 7 15 15 0 8 5 15 11 15 6 0 9 7 5 15 -4 10 5
22 27 35 34 21 67 26 67 10 0 -5 -9 -10 -20 -10 -11 0 -20 -4 -20 -10 0 -6 53
-10 140 -10 87 0 140 4 140 10 0 6 -12 10 -27 10 -36 0 -73 10 -73 20 0 4 23
5 50 2 33 -3 50 -1 50 7 0 6 -7 12 -15 12 -8 1 -20 2 -27 3 -18 2 -21 26 -3
26 9 0 13 5 10 10 -8 13 -65 13 -65 0 0 -5 8 -14 18 -19 13 -8 5 -10 -35 -11
-29 0 -53 5 -53 10 0 6 10 10 22 10 49 0 4 13 -61 17 -51 3 -71 1 -71 -7 0 -8
13 -10 40 -6 32 4 38 2 33 -9 -7 -19 -57 -19 -77 0 -16 17 -46 20 -46 6 0 -5
6 -12 13 -14 6 -3 2 -6 -11 -6 -15 -1 -21 3 -16 11 5 7 2 9 -9 5 -11 -4 -14
-2 -10 9 3 8 -1 14 -10 14 -8 0 -17 7 -21 15 -5 15 19 22 28 8 5 -10 214 -9
485 1 146 5 218 4 253 -4 52 -13 77 -7 37 9 -20 7 -181 19 -286 21 -13 0 -23
4 -23 9 0 8 192 6 253 -3 15 -2 39 -1 55 4 21 6 12 9 -43 10 -38 2 -81 4 -95
6 -75 10 -252 9 -302 -1 -60 -12 -69 -10 -42 9 11 9 -4 11 -68 8 -45 -2 -80 0
-77 3 16 15 61 17 294 11 154 -4 209 -1 200 14 -7 11 22 21 40 14 8 -4 15 -1
15 4 0 14 -59 21 -196 25 -61 2 -115 6 -120 9 -8 4 -31 3 -119 -6 -16 -2 -34
-1 -40 2 -18 11 -79 11 -143 0 -35 -6 -66 -7 -70 -3 -4 3 20 32 53 64 122 116
390 400 365 386 -13 -8 -13 -7 0 11 8 10 20 22 25 26 6 4 6 8 2 8 -5 0 1 13
12 29 12 16 21 36 21 45 0 9 4 16 9 16 12 0 75 159 101 252 53 193 80 300 85
339 3 24 10 59 15 79 10 38 11 60 11 160 -1 53 -6 105 -11 105 0 0 -2 77 -5
170 -2 94 -7 244 -11 335 -4 91 -6 174 -5 185 1 11 1 36 0 55 -1 19 -1 42 -1
50 1 20 2 592 2 1950 0 135 -1 296 -4 358 l-4 112 39 22 c22 12 39 25 39 30 0
11 -14 10 -25 -1 -20 -19 -50 -17 -51 4 -1 11 -2 35 -3 53 0 17 -5 32 -10 32
-6 0 -11 -15 -13 -32z m-1778 -60 c0 -7 -12 -20 -28 -30 -53 -32 -148 -101
-188 -138 -67 -62 -121 -93 -149 -88 -25 5 -35 -7 -12 -15 37 -13 -24 -19
-234 -23 -178 -4 -234 -2 -240 7 -5 9 -55 13 -183 13 -97 1 -176 3 -175 6 0 8
88 66 184 121 50 29 105 67 124 86 l34 33 236 0 c209 0 286 4 525 25 33 3 62
7 64 10 11 10 42 5 42 -7z m-14 -160 c-14 -259 -19 -467 -15 -623 2 -93 4
-325 4 -514 l0 -343 -68 -24 c-38 -12 -86 -25 -107 -29 -47 -8 -46 -9 -56 178
-4 76 -9 139 -13 141 -7 4 -4 -278 3 -306 2 -10 1 -18 -4 -18 -14 0 -19 42
-20 160 -2 183 -1 192 12 184 7 -5 8 -3 2 7 -9 15 -13 439 -4 439 3 0 4 17 3
38 -7 89 -2 357 7 357 0 0 3 47 5 104 l5 104 37 33 c21 18 42 33 46 34 5 0 6
-18 2 -40 -4 -21 -3 -45 2 -52 5 -8 10 3 14 32 4 25 3 49 -2 54 -5 6 18 36 56
73 36 35 65 69 65 76 0 12 19 37 28 37 2 0 1 -46 -2 -102z m1780 -19 c-7 -116
-8 -1395 -1 -1789 8 -412 3 -583 -15 -605 -7 -9 -7 -14 -1 -17 6 -2 13 -68 16
-158 9 -274 15 -414 19 -452 3 -29 1 -38 -10 -38 -11 0 -14 -11 -12 -47 1 -27
0 -52 -4 -58 -3 -5 -9 -41 -13 -80 -8 -84 -15 -96 -16 -29 -1 66 -4 93 -12
101 -6 5 -12 -121 -8 -149 0 -4 -4 -19 -9 -32 -6 -16 -6 -27 0 -31 6 -4 10 1
10 9 0 9 4 16 9 16 4 0 6 -11 3 -25 -2 -14 -8 -22 -12 -20 -5 3 -11 1 -14 -4
-3 -5 1 -12 10 -15 8 -3 13 -9 11 -13 -4 -7 -19 -182 -20 -233 0 -8 4 -24 8
-34 7 -15 5 -18 -7 -13 -11 4 -14 1 -11 -12 6 -22 -29 -146 -56 -199 -12 -23
-23 -42 -24 -42 -2 0 -2 16 -2 36 1 22 -4 38 -12 41 -7 3 -10 10 -7 15 4 6 9
6 14 -2 10 -16 31 -4 24 14 -3 7 2 19 10 26 9 7 13 17 10 22 -4 6 0 14 7 19
11 6 11 11 1 21 -15 15 -16 32 -1 22 7 -4 7 1 -1 15 -9 18 -8 27 3 44 19 29
27 76 14 84 -6 3 -7 1 -3 -5 4 -7 3 -12 -1 -12 -11 0 -45 -63 -41 -76 6 -18
-25 -112 -36 -108 -6 2 -12 -6 -13 -18 -6 -64 -19 -83 -25 -38 -3 21 3 41 18
64 13 18 25 46 29 62 3 16 2 23 -1 17 -9 -19 -21 -16 -27 8 -4 15 -2 19 10 15
9 -4 13 -1 11 6 -3 7 6 23 19 36 24 24 31 38 13 27 -5 -3 -10 -1 -10 4 0 6 7
11 15 11 9 0 12 6 9 15 -4 8 -1 15 6 15 7 0 10 8 7 19 -3 12 4 29 15 41 11 12
17 24 13 28 -4 4 -10 1 -12 -5 -9 -24 -19 -13 -19 21 0 33 0 33 18 12 14 -17
17 -17 12 -3 -3 9 0 25 7 34 8 9 9 14 3 10 -22 -13 -45 19 -58 83 -13 64 -13
62 -10 -85 2 -86 0 -139 -5 -125 -8 24 -8 24 -19 -12 -5 -21 -8 -48 -6 -60 4
-21 4 -21 -7 2 -7 15 -13 20 -16 13 -3 -7 -10 -13 -16 -13 -6 0 -1 10 11 23
14 14 19 30 16 44 -4 14 1 25 16 36 12 8 17 18 12 21 -6 3 -8 16 -5 29 4 21 4
21 -10 4 -14 -16 -15 -15 -19 20 -3 21 -1 44 5 51 7 9 7 16 -1 24 -21 21 -12
46 34 91 11 12 7 47 -5 47 -4 0 -15 13 -24 30 -17 28 -16 85 2 115 3 6 6 15 7
20 0 6 2 16 2 23 3 22 32 13 33 -10 0 -22 1 -22 8 -3 5 12 4 25 -2 33 -7 9 -7
20 1 36 23 51 25 111 4 147 -21 38 -28 74 -37 188 -3 40 -8 78 -12 84 -4 7 -6
26 -4 44 1 17 -5 45 -13 62 -9 16 -12 32 -7 35 5 4 7 15 4 26 -3 11 -9 17 -14
15 -4 -3 -5 -13 -2 -22 4 -11 3 -14 -5 -9 -7 4 -12 18 -12 31 0 13 -4 26 -9
30 -6 3 -13 26 -17 50 -3 25 -10 45 -15 45 -5 0 -9 5 -9 11 0 5 5 7 10 4 6 -4
10 8 10 30 0 20 -4 34 -9 31 -5 -3 -12 1 -15 10 -3 8 -2 12 4 9 13 -8 13 58 0
71 -6 6 -12 73 -15 150 -2 76 -7 209 -11 294 -8 215 -8 229 -1 236 4 4 3 12
-1 18 -4 6 -7 65 -8 131 -1 66 -3 192 -4 280 -1 88 -1 303 0 477 l2 318 51 37
c83 59 117 94 117 122 0 20 2 23 10 11 7 -12 12 -8 21 18 6 17 14 32 19 32 4
0 27 18 51 40 24 22 48 40 53 40 5 0 6 -43 2 -101z m-2731 -118 c72 -2 103 -5
90 -11 -11 -5 -36 -9 -55 -10 -19 -1 -44 -5 -55 -10 -12 -5 111 -8 288 -8 169
0 310 -2 312 -4 3 -3 7 -940 4 -1018 0 -8 0 -82 1 -165 1 -118 -2 -158 -15
-188 -8 -21 -14 -45 -13 -54 2 -11 -18 -30 -58 -55 -53 -33 -65 -37 -88 -28
-77 29 -140 -9 -135 -80 3 -39 -1 -44 -91 -135 -62 -63 -102 -95 -115 -94 -48
3 -66 -2 -81 -26 -14 -21 -14 -31 -4 -72 12 -48 12 -48 -45 -155 -47 -90 -60
-108 -80 -108 -62 0 -87 -73 -48 -138 20 -32 20 -33 0 -132 -18 -90 -23 -102
-48 -117 -33 -20 -39 -44 -9 -36 17 5 20 0 20 -30 0 -47 -14 -54 -39 -19 -17
25 -20 45 -21 143 -1 122 -16 470 -27 634 -3 55 -5 242 -2 415 5 434 5 808 -1
1179 l-5 315 24 6 c14 3 61 5 105 4 45 -1 131 -2 191 -3z m1937 -34 c4 -7 53
-10 140 -9 112 3 263 -9 273 -20 1 -2 6 -295 9 -653 7 -752 14 -1100 22 -1205
l5 -74 -21 27 c-12 15 -34 30 -49 34 -36 10 -173 180 -165 205 8 25 -21 84
-50 103 -18 12 -36 15 -57 11 -26 -5 -47 4 -128 54 -83 51 -98 64 -94 83 2 12
-5 37 -16 55 -23 36 -54 42 -102 17 -27 -14 -36 -14 -111 7 -84 23 -118 44
-118 76 -1 9 -2 145 -4 302 -2 157 -7 337 -10 400 -3 63 -8 198 -11 300 -3
102 -7 194 -9 205 -2 11 -6 37 -10 57 l-7 37 158 4 c200 4 346 -2 355 -16z
m-794 -1409 c31 -23 60 -46 64 -52 8 -12 11 -11 88 52 54 44 76 53 66 27 -3
-8 -4 -15 -3 -15 1 0 16 4 33 9 l31 9 7 -65 c4 -36 6 -67 4 -68 -2 -1 -55 4
-118 12 -89 11 -139 11 -220 3 -139 -13 -133 -14 -120 9 5 11 10 29 10 40 0
28 50 79 78 80 13 1 49 -18 80 -41z m393 6 c75 -21 179 -65 179 -76 0 -4 8 -8
19 -8 10 0 24 -7 31 -15 7 -8 18 -15 24 -15 14 0 126 -57 157 -80 13 -10 21
-21 18 -25 -8 -8 -268 -14 -267 -6 2 17 -3 31 -12 31 -5 0 -7 -7 -4 -15 8 -19
2 -19 -38 3 -18 10 -59 29 -90 41 -66 26 -81 40 -68 61 6 8 10 12 10 7 0 -4
11 0 26 9 17 11 22 20 15 27 -7 7 -15 6 -26 -3 -14 -12 -18 -11 -26 1 -8 13
-13 79 -6 79 2 0 28 -7 58 -16z m-801 -44 c-22 -5 -23 -7 -6 -13 10 -4 25 -2
32 4 11 9 22 5 49 -15 19 -15 35 -33 35 -41 0 -8 7 -11 20 -8 11 3 20 10 20
15 0 6 7 8 14 5 10 -4 13 -1 10 7 -5 14 31 64 40 55 3 -3 3 -21 -1 -42 -5 -35
-7 -36 -72 -51 -36 -9 -96 -27 -133 -40 l-66 -23 -6 30 c-6 30 3 53 11 30 7
-21 21 -15 25 10 3 21 4 21 19 -7 11 -19 18 -25 24 -17 4 7 0 20 -9 30 -9 10
-14 25 -11 33 8 21 -22 31 -33 12 -5 -9 -15 -12 -25 -8 -9 3 -14 11 -11 16 4
7 9 6 13 -1 5 -7 15 -3 30 13 15 16 29 22 40 18 13 -5 11 -7 -9 -12z m-145
-122 c0 -60 -3 -73 -16 -73 -9 0 -24 -6 -33 -14 -9 -8 -26 -11 -42 -7 -17 5
-23 3 -19 -4 3 -5 14 -10 23 -10 13 0 12 -5 -8 -23 -66 -60 -161 -137 -171
-137 -10 0 -5 50 12 107 10 30 47 51 69 38 5 -3 21 -3 35 1 19 5 24 11 20 25
-4 11 -2 19 4 19 6 0 4 14 -5 35 l-14 35 61 40 c34 22 67 40 73 40 7 0 11 -26
11 -72z m760 21 c27 -5 56 -15 63 -23 11 -11 14 -86 15 -382 l2 -369 -59 -95
c-32 -52 -72 -114 -88 -138 -17 -24 -28 -46 -25 -49 6 -6 51 54 114 154 26 40
48 72 49 70 1 -1 5 -26 7 -54 6 -65 -9 -90 -95 -166 l-66 -57 -38 19 c-22 11
-47 22 -56 25 -16 5 -18 21 -19 138 0 73 -2 142 -4 153 -1 11 -6 103 -9 205
-4 102 -8 199 -10 215 -2 17 -7 73 -11 125 -11 148 -18 121 -11 -40 3 -80 11
-273 16 -430 5 -157 12 -304 16 -328 5 -41 4 -43 -17 -40 -19 2 -27 16 -47 78
-13 41 -25 82 -28 90 -2 8 -16 49 -31 90 l-28 75 -3 367 -3 366 63 10 c67 11
220 6 303 -9z m-398 -196 c-4 -104 -7 -197 -7 -207 0 -11 -3 -16 -7 -12 -4 3
-8 39 -9 79 -5 144 -15 251 -23 257 -4 3 -11 12 -14 20 -7 15 0 -160 7 -215 3
-16 8 -56 11 -87 4 -38 12 -61 23 -68 13 -9 14 -13 4 -17 -10 -4 -10 -8 -1
-19 8 -10 10 -38 5 -92 -3 -42 -6 -97 -5 -122 2 -56 2 -112 0 -220 l-1 -85
-127 128 -126 127 -5 82 c-2 46 -9 89 -14 96 -7 8 -7 12 2 12 10 0 10 3 1 14
-7 9 -8 17 -3 20 6 4 6 21 1 46 -5 22 -10 108 -12 191 l-2 150 27 17 c15 9 30
14 33 11 3 -3 10 -91 15 -195 6 -104 16 -214 22 -244 7 -30 12 -58 12 -62 1
-3 5 -10 10 -15 5 -5 6 -3 2 5 -4 6 -3 12 2 12 6 0 13 -7 16 -16 4 -9 9 -14
12 -11 3 3 2 12 -2 19 -5 7 -10 22 -11 33 0 11 -8 47 -16 80 -14 57 -24 140
-32 285 -2 36 -8 78 -14 92 -10 26 -8 27 42 45 72 24 159 50 176 52 11 1 12
-31 8 -186z m673 92 c198 -99 391 -248 435 -336 10 -19 25 -43 35 -54 54 -63
115 -198 159 -350 58 -203 65 -465 17 -653 -51 -200 -98 -302 -198 -437 -85
-113 -135 -164 -244 -246 -76 -56 -239 -148 -247 -139 -2 3 -29 80 -60 172
l-57 167 0 140 c0 139 8 172 31 129 28 -53 259 -396 275 -409 23 -18 27 -24
-124 206 -166 253 -172 265 -175 353 -1 40 2 72 6 72 4 0 56 -40 115 -88 141
-116 402 -309 402 -298 0 3 -71 59 -157 126 -374 287 -363 277 -363 348 0 47
2 54 18 49 9 -3 123 -42 252 -87 237 -82 370 -123 377 -116 3 2 -33 16 -79 31
-94 30 -423 145 -510 178 -58 21 -58 22 -58 62 l0 41 374 1 c235 1 381 5 393
11 12 8 -100 11 -370 11 -213 0 -391 3 -395 5 -4 2 -5 28 -2 57 l5 52 295 103
c295 103 433 155 427 160 -4 5 -223 -67 -474 -155 -127 -44 -239 -81 -247 -81
-12 0 -16 11 -16 43 0 23 3 52 6 64 4 14 64 65 153 131 160 120 324 249 386
307 l40 36 -35 -23 c-20 -13 -81 -58 -135 -100 -169 -132 -395 -298 -405 -298
-15 0 -12 127 4 163 8 18 44 73 80 122 65 90 112 165 102 165 -3 0 -44 -54
-93 -120 -48 -66 -90 -116 -93 -112 -3 4 -4 155 -2 335 l3 328 22 -7 c12 -4
69 -30 127 -59z m338 -75 c2 -41 8 -79 13 -85 7 -7 9 18 5 78 -3 48 -3 87 0
87 16 0 65 -36 70 -52 3 -9 14 -20 24 -23 37 -12 194 -204 179 -220 -5 -4
-121 31 -167 51 -18 8 -40 14 -48 14 -8 0 -36 18 -62 39 -26 22 -94 72 -152
113 l-105 73 120 0 120 0 3 -75z m-1618 43 c0 -3 -7 -11 -16 -17 -11 -8 -17
-34 -21 -85 -5 -72 -5 -72 -76 -162 -80 -101 -77 -96 -143 -234 -27 -55 -52
-102 -57 -104 -5 -2 -5 -6 1 -10 7 -4 1 -44 -18 -116 -45 -179 -55 -293 -39
-440 9 -73 9 -100 0 -103 -7 -2 -6 -9 4 -19 8 -8 16 -26 16 -41 1 -15 2 -31 3
-37 2 -18 39 -120 46 -130 4 -5 11 -28 14 -49 4 -22 18 -55 32 -75 13 -20 24
-45 24 -57 0 -12 7 -24 15 -28 8 -3 36 -39 62 -80 55 -85 193 -233 271 -290
57 -41 256 -146 278 -146 19 0 17 -26 -7 -99 -17 -50 -24 -61 -38 -55 -9 4
-33 13 -54 21 -46 16 -145 66 -171 85 -17 14 -16 15 15 15 19 0 51 5 71 10 28
8 41 7 56 -3 17 -12 21 -11 26 3 4 9 0 23 -9 32 -11 11 -15 12 -15 3 0 -8 -8
-12 -17 -10 -10 1 -24 -2 -32 -6 -20 -13 -166 -17 -154 -5 7 7 5 30 -3 67 -8
31 -14 71 -14 89 0 41 -21 53 -108 59 -114 9 -185 49 -185 104 0 8 -17 33 -38
54 -20 22 -56 78 -80 125 -23 47 -48 98 -56 113 -8 15 -11 38 -7 53 5 20 3 25
-12 25 -21 0 -22 5 -26 122 -2 38 -6 68 -10 68 -5 0 -8 4 -8 10 0 5 8 7 18 3
9 -3 5 4 -11 16 -24 20 -27 28 -21 58 5 26 4 34 -5 29 -8 -5 -10 0 -7 18 3 14
0 28 -5 32 -6 3 -5 11 2 21 9 10 9 17 2 21 -13 8 -14 90 -1 98 4 3 6 10 3 15
-4 5 1 9 9 9 25 0 29 38 9 78 -12 22 -18 51 -16 72 2 19 4 43 4 53 0 9 4 17
10 17 5 0 8 8 7 18 -3 35 3 77 11 91 8 12 12 12 25 2 11 -9 16 -10 16 -2 0 6
6 11 13 11 20 1 94 72 79 77 -7 3 -25 30 -41 61 l-29 57 42 79 c23 44 47 81
53 83 6 2 13 -21 16 -55 4 -32 10 -67 14 -78 6 -17 8 -17 13 6 4 14 3 30 -2
37 -5 6 -11 30 -14 54 -3 24 -7 46 -10 50 -7 12 37 79 52 79 8 0 11 6 8 15 -4
9 0 15 9 15 17 0 33 -33 18 -38 -12 -4 -71 -58 -71 -65 0 -4 81 3 87 8 2 1 7
22 12 48 7 39 5 48 -11 65 -19 19 -19 21 -3 45 27 41 166 156 181 150 8 -3 14
-8 14 -10z m258 -249 c4 -216 2 -245 -11 -238 -8 5 -49 48 -91 97 -42 48 -82
87 -87 87 -11 0 85 -113 136 -160 15 -14 33 -36 40 -50 14 -29 29 -110 27
-157 0 -18 4 -33 9 -33 6 0 7 -5 4 -10 -4 -6 -10 -8 -14 -5 -5 2 -6 -7 -3 -20
6 -33 -12 -32 -69 3 -68 42 -150 84 -154 80 -3 -2 37 -28 88 -57 109 -62 156
-99 138 -110 -9 -6 -9 -15 -1 -35 12 -34 13 -39 0 -31 -5 3 -10 -22 -12 -62
l-3 -68 -265 -3 c-145 -1 -268 -6 -272 -10 -4 -4 104 -6 240 -5 136 1 260 -1
275 -4 l28 -5 -3 -76 -3 -76 -60 -17 c-33 -10 -145 -41 -250 -70 -104 -28
-194 -56 -200 -61 -13 -12 -2 -9 265 64 118 32 222 60 230 61 12 2 15 -13 15
-83 0 -83 0 -85 -30 -103 -16 -10 -79 -49 -140 -87 -60 -38 -126 -78 -145 -89
-47 -27 -88 -61 -74 -61 6 0 65 34 130 76 129 82 249 154 258 154 3 0 6 -57 6
-127 0 -147 5 -135 -113 -286 -43 -54 -77 -101 -77 -104 0 -13 38 29 109 121
l76 99 7 -79 c14 -150 29 -223 60 -286 16 -35 37 -71 46 -80 8 -10 12 -18 8
-18 -10 0 -83 48 -90 59 -3 5 -25 19 -49 30 -77 37 -264 211 -352 325 -182
239 -260 618 -191 926 35 153 67 260 89 290 9 13 17 30 17 36 0 7 12 36 27 66
26 50 33 60 58 91 6 7 21 29 35 49 14 21 31 38 38 38 6 0 12 4 12 9 0 16 143
152 202 192 31 21 60 43 63 49 3 5 9 10 13 10 4 0 9 -111 10 -246z m1485 22
c18 -7 53 -16 79 -20 92 -14 128 -56 183 -215 32 -91 36 -139 39 -550 l2 -324
-25 -30 c-24 -29 -24 -29 -3 -23 21 7 28 -5 23 -36 0 -5 3 -8 8 -8 6 0 12 21
16 48 3 26 10 62 14 80 6 21 6 32 -1 32 -7 0 -7 5 -1 13 5 6 8 38 7 70 -1 32
2 57 7 57 6 0 7 5 3 12 -4 6 -9 27 -11 47 -2 20 -5 46 -8 58 -3 12 -2 24 2 26
5 3 8 65 7 139 0 73 4 136 9 139 5 4 5 15 -2 27 -6 11 -11 33 -11 49 1 26 1
27 12 8 6 -11 13 -54 15 -95 1 -41 7 -111 11 -155 5 -44 8 -123 8 -177 -1 -53
2 -91 6 -85 4 7 8 -2 8 -19 0 -49 -20 -147 -36 -171 -8 -13 -12 -23 -9 -23 3
0 1 -9 -6 -21 -6 -12 -13 -37 -15 -57 -3 -20 -10 -42 -16 -49 -6 -7 -7 -13 -4
-13 4 0 4 -6 -1 -12 -4 -7 -6 -20 -5 -29 3 -20 -43 -159 -70 -213 -54 -105
-180 -275 -251 -338 -30 -27 -54 -37 -43 -19 3 5 7 53 7 106 l2 97 58 74 c33
41 64 74 70 74 5 0 8 4 5 9 -3 5 14 51 38 102 24 52 49 111 55 131 7 21 17 40
22 44 5 3 7 10 4 15 -4 5 -3 15 2 22 4 6 9 21 10 32 1 11 8 49 16 85 8 36 18
120 21 187 4 67 9 129 12 138 3 8 2 15 -3 15 -10 0 -30 96 -37 175 -7 74 -91
296 -145 382 -28 46 -51 85 -51 89 0 3 -15 24 -33 47 -58 72 -57 80 6 53z
m-1250 -554 c71 -70 97 -101 97 -120 0 -24 -1 -24 -25 -8 -52 34 -34 7 22 -32
34 -23 -27 -2 -91 32 -44 23 -60 37 -63 55 -4 29 -13 41 -13 18 0 -23 -11 -21
-51 6 l-34 23 -2 99 -2 100 32 -39 c18 -22 76 -82 130 -134z m-78 -98 c17 -12
63 -39 102 -60 57 -31 73 -44 73 -61 0 -22 -4 -23 -80 -23 l-80 0 0 59 c0 33
-4 63 -10 66 -6 4 -9 -17 -7 -57 l2 -63 -40 0 -40 0 -3 98 -3 98 28 -18 c15
-9 42 -27 58 -39z m425 -110 c61 -25 78 -76 44 -134 -27 -44 -64 -62 -105 -48
-19 6 -39 12 -46 14 -7 2 -17 21 -22 42 -14 52 2 98 43 123 38 23 36 23 86 3z
m-1409 -93 c4 -15 7 -66 8 -115 1 -82 -1 -89 -23 -107 -17 -13 -27 -34 -32
-64 -7 -53 4 -71 49 -83 29 -8 33 -15 64 -115 l34 -108 -21 -26 c-40 -51 -18
-91 55 -101 48 -7 50 -9 86 -72 38 -64 38 -65 18 -86 -26 -27 -25 -78 2 -105
18 -18 29 -21 73 -15 51 6 52 5 109 -47 36 -34 57 -61 57 -75 0 -12 5 -22 10
-22 6 0 10 7 10 15 0 13 4 14 20 5 11 -6 20 -16 20 -24 0 -7 19 -23 42 -36
l41 -23 -22 -19 c-37 -29 -65 -22 -99 23 -11 14 -10 17 4 15 9 0 19 4 21 9 2
6 -9 11 -24 10 -22 0 -29 -5 -31 -24 -5 -29 43 -81 74 -81 32 0 77 18 91 36
10 14 17 13 64 -7 29 -13 73 -38 97 -57 42 -32 58 -39 90 -41 20 -1 25 -28 9
-51 -15 -21 -15 -21 -50 15 -40 42 -60 31 -27 -15 14 -19 30 -30 46 -30 13 0
24 -3 24 -6 0 -4 -76 -271 -107 -376 -4 -15 -17 -18 -67 -18 -63 0 -80 -6 -82
-27 -2 -28 -4 -33 -14 -33 -15 0 -67 37 -119 85 -24 22 -41 34 -37 28 19 -34
-22 -4 -107 77 -102 98 -233 277 -284 390 -28 62 -39 95 -78 230 -14 49 -47
214 -61 310 -10 66 17 4 48 -113 16 -61 41 -133 54 -161 27 -58 28 -60 -20 89
-19 61 -48 157 -63 215 l-28 105 2 348 c2 192 6 353 9 359 8 13 57 -47 65 -81z
m1234 48 c0 -19 -3 -40 -8 -46 -7 -9 -5 -13 6 -13 11 0 15 -10 14 -34 -1 -25
6 -40 23 -54 l23 -19 -43 -133 c-24 -73 -45 -129 -47 -124 -2 5 3 46 10 92 8
50 10 85 4 89 -5 3 -4 10 2 16 16 16 13 27 -4 21 -13 -5 -14 -2 -6 19 5 14 8
27 5 30 -2 2 -6 34 -9 71 -3 45 0 66 8 66 8 0 8 3 0 11 -13 13 -5 51 11 46 6
-2 11 -19 11 -38z m-80 -39 c0 -22 -7 -27 -55 -42 -116 -35 -194 -58 -199 -58
-3 0 -6 29 -6 65 l0 66 130 -3 130 -3 0 -25z m452 -27 c41 -5 43 -7 43 -39 0
-19 -2 -34 -5 -34 -3 0 -24 9 -46 21 -22 11 -46 18 -52 16 -6 -2 14 -15 45
-29 53 -25 56 -28 60 -68 2 -23 1 -43 -2 -45 -3 -2 -36 25 -75 60 -60 55 -68
65 -56 79 7 9 11 22 8 30 -7 18 3 28 22 21 8 -3 34 -9 58 -12z m-454 -35 c9
-26 -13 -57 -65 -87 -81 -48 -90 -54 -125 -78 -17 -13 -35 -23 -39 -23 -4 0
-13 -8 -20 -17 -12 -16 -13 -9 -12 47 1 38 3 50 5 30 3 -19 9 -39 15 -45 7 -7
8 4 3 35 -4 25 -11 47 -16 48 -29 11 4 28 141 71 112 35 107 34 113 19z m-27
-164 c-46 -53 -150 -182 -183 -227 -25 -33 -33 -54 -33 -85 0 -22 -4 -43 -8
-46 -5 -3 -9 52 -10 121 -2 69 -5 129 -7 134 -8 12 43 54 140 116 50 32 97 64
105 72 13 13 15 11 18 -20 2 -26 -4 -43 -22 -65z m188 -35 c-15 -57 -32 -131
-39 -164 -6 -33 -33 -123 -58 -201 -25 -77 -55 -179 -67 -225 -22 -89 -65
-231 -81 -264 -5 -11 -11 -32 -13 -47 -3 -15 -7 -32 -10 -37 -4 -5 -10 -29
-15 -53 -8 -41 -101 -415 -121 -489 -6 -20 -10 -48 -10 -61 0 -23 -5 -26 -47
-31 -27 -3 -49 -4 -50 -3 -2 1 8 30 21 64 13 33 29 85 35 114 7 29 36 121 66
203 59 164 112 332 175 555 22 80 50 172 61 205 11 33 38 128 60 210 34 129
78 286 95 334 3 10 8 11 15 4 8 -8 3 -41 -17 -114z m126 94 c0 -30 44 -166
106 -330 20 -54 49 -138 64 -188 15 -49 49 -148 75 -220 26 -71 54 -150 62
-175 78 -246 207 -616 239 -688 13 -29 24 -55 24 -58 0 -3 -14 -4 -32 -2 l-32
3 -93 275 c-51 151 -99 298 -107 325 -8 28 -30 97 -50 155 -52 153 -187 564
-237 720 -24 74 -49 145 -57 157 -18 28 -9 53 18 53 15 0 20 -7 20 -27z m138
-116 c40 -59 74 -118 77 -130 3 -12 4 -74 3 -137 l-3 -114 -58 164 c-74 211
-73 205 -59 196 8 -5 10 -2 6 8 -3 9 -11 13 -17 9 -5 -3 -7 -1 -3 5 3 6 -3 34
-14 62 -36 91 -30 85 68 -63z m-421 1 c3 -46 -1 -62 -30 -118 -110 -209 -116
-218 -129 -198 -6 9 -8 7 -6 -7 0 -11 0 -31 -1 -45 -1 -23 -3 -23 -12 -7 -6
10 -8 21 -5 24 3 3 1 14 -5 24 -7 13 -5 29 6 55 18 43 19 54 5 54 -5 0 -13
-18 -16 -40 -4 -22 -10 -40 -15 -40 -16 0 -10 -28 7 -34 11 -4 13 -10 7 -19
-15 -19 -24 -49 -13 -42 13 8 13 2 -1 -29 -7 -14 -15 -23 -19 -21 -5 3 -8 -5
-7 -18 0 -12 -3 -30 -7 -39 -12 -26 11 -22 25 3 9 18 13 19 21 8 7 -11 8 -9 4
5 -7 20 13 86 26 86 11 0 10 -9 -3 -70 -7 -35 -15 -50 -24 -46 -8 3 -11 -2 -8
-14 7 -26 -11 -53 -36 -55 -24 -2 -27 5 -9 23 9 9 9 17 0 34 -7 13 -14 42 -16
65 -2 23 -6 45 -9 50 -2 4 -1 17 4 28 7 19 8 19 8 -2 1 -13 5 -23 10 -23 10 0
2 48 -10 56 -5 3 -9 13 -9 22 0 13 2 14 9 4 6 -10 13 -2 25 27 9 23 16 51 16
62 0 13 4 18 12 13 7 -4 8 -3 4 4 -10 16 11 52 30 52 8 0 13 4 10 9 -3 5 22
44 57 88 34 43 69 90 76 105 18 36 23 31 28 -34z m233 35 c0 -24 63 -223 142
-448 39 -110 71 -206 72 -214 3 -32 -151 -55 -206 -31 -59 26 -114 77 -141
133 l-28 57 20 72 c10 40 31 114 46 163 15 50 39 136 53 192 14 56 30 100 34
97 4 -3 8 -12 8 -21z m1346 -205 c5 -8 2 -9 -9 -5 -10 3 -17 2 -17 -3 0 -6 5
-10 11 -10 6 0 9 -14 6 -36 -4 -27 -2 -34 9 -30 8 3 14 1 14 -4 0 -6 -7 -10
-15 -10 -9 0 -14 -10 -14 -27 1 -16 -2 -44 -6 -63 -4 -19 -8 -48 -10 -65 -1
-16 -3 -36 -4 -43 0 -7 -6 -10 -11 -7 -6 4 -8 11 -5 16 3 5 -2 6 -11 2 -14 -5
-16 -2 -10 20 4 16 2 27 -4 27 -16 0 -12 68 9 148 24 91 47 123 67 90z m-1581
-75 c-15 -125 -35 -203 -102 -403 -42 -125 -61 -172 -63 -160 -5 20 -11 43
-29 98 -11 35 -18 71 -16 80 7 39 11 47 23 60 6 7 12 20 12 27 0 8 14 29 31
47 22 23 28 26 20 11 -6 -13 -9 -35 -5 -50 4 -21 3 -24 -5 -13 -12 18 -16 9
-26 -65 -19 -137 -10 -142 31 -19 32 95 48 220 24 184 -8 -11 -9 -7 -4 15 4
17 10 35 14 40 4 6 13 28 20 50 7 22 20 54 28 70 l16 30 8 -25 c5 -18 6 -14 2
13 -3 26 -2 37 5 32 6 -3 11 -1 11 4 0 6 2 11 5 11 2 0 2 -17 0 -37z m75 -320
c7 -27 22 -60 32 -75 10 -14 18 -31 18 -37 0 -6 6 -11 14 -11 8 0 17 -4 20 -8
8 -13 -12 -80 -42 -144 -27 -57 -28 -58 -62 -52 -19 3 -49 14 -67 25 -32 20
-32 20 -17 57 8 20 19 44 24 53 7 14 29 111 47 212 8 40 19 33 33 -20z m1351
-25 c4 -6 9 -3 12 8 2 10 5 -5 6 -35 2 -119 -118 -453 -220 -611 -66 -102
-183 -224 -270 -283 l-53 -35 -14 36 c-61 160 -127 381 -109 363 30 -30 97 12
82 52 -4 8 -2 18 4 22 21 12 11 25 -19 25 -16 0 -30 4 -30 10 0 10 75 62 177
124 l62 37 38 -25 c21 -15 49 -26 62 -26 29 0 61 26 61 50 0 23 -36 67 -46 58
-4 -5 0 -16 9 -26 15 -16 15 -21 3 -37 -13 -19 -15 -19 -55 -1 -49 23 -51 33
-11 47 17 6 30 14 30 17 0 4 4 13 9 21 7 11 13 9 30 -8 25 -25 41 -27 41 -5 0
9 -9 18 -20 21 -31 8 -24 28 37 100 103 125 104 125 143 118 19 -4 38 -12 41
-17z m-337 -56 c-3 -116 7 -104 -86 -100 -87 3 -108 -3 -108 -29 0 -12 3 -13
14 -4 8 7 46 10 98 9 95 -3 99 -9 40 -55 -50 -39 -196 -132 -200 -128 -2 2 6
21 17 42 27 54 31 96 9 101 -15 3 -17 -2 -12 -25 10 -48 -35 -130 -85 -159
-50 -28 -61 -30 -61 -9 0 8 -9 34 -19 58 -35 79 -37 74 42 113 83 42 246 156
296 208 19 20 40 36 45 36 7 0 10 -23 10 -58z m-1764 -29 c30 -2 64 -6 75 -8
25 -5 51 -48 58 -95 3 -19 9 -45 13 -57 3 -13 3 -23 0 -23 -16 0 -193 141
-215 171 -21 28 -22 31 -5 24 10 -4 44 -10 74 -12z m1114 -59 c-44 -81 -161
-190 -182 -170 -3 3 13 25 36 48 152 158 158 178 30 100 -41 -24 -55 -38 -51
-50 5 -12 11 -10 30 13 13 15 27 25 30 22 3 -3 -2 -13 -11 -22 -9 -9 -21 -25
-26 -36 -6 -10 -17 -19 -25 -19 -8 0 -19 -8 -24 -17 -9 -14 -10 -7 -8 28 3 30
12 55 25 69 12 13 19 27 16 32 -6 9 8 11 44 8 12 -1 22 3 22 8 0 11 56 27 76
24 7 -1 15 5 18 14 4 12 10 14 17 7 6 -6 1 -26 -17 -59z m129 -249 c14 -41 22
-76 19 -78 -4 -2 -29 -10 -57 -17 -27 -7 -55 -17 -61 -21 -6 -5 -48 -12 -95
-15 -92 -7 -95 -6 -247 94 -29 19 -55 33 -58 30 -4 -5 100 -88 111 -88 3 0 18
-8 32 -17 l26 -17 -24 -6 c-24 -6 -212 15 -239 26 -8 4 -26 8 -39 10 -13 2
-28 7 -32 11 -7 7 13 108 24 119 2 3 34 -2 71 -9 98 -20 270 -15 396 12 58 13
112 27 120 32 25 14 26 12 53 -66z m109 -330 c37 -110 70 -207 73 -215 4 -13
-55 -15 -485 -18 -270 -1 -490 1 -490 5 0 15 71 293 85 333 8 23 15 53 15 66
0 27 21 32 40 9 7 -8 16 -12 21 -10 4 3 12 -2 17 -11 5 -9 12 -12 15 -7 8 12
67 4 67 -9 0 -6 -11 -7 -25 -4 -14 4 -25 2 -25 -4 0 -18 -39 -11 -61 11 -24
24 -34 19 -26 -13 14 -55 80 -59 136 -8 27 25 41 30 82 30 42 0 49 -3 49 -19
0 -39 97 -38 107 0 5 18 14 19 105 17 104 -2 136 -16 122 -52 -14 -36 -104 -8
-104 33 0 12 -3 12 -12 3 -19 -19 17 -79 52 -87 69 -15 134 65 85 105 -23 19
-18 28 18 39 68 20 66 23 139 -194z m221 -277 c-2 -5 -8 -8 -14 -8 -5 0 -37
-13 -71 -29 -102 -48 -193 -72 -382 -101 -103 -16 -182 -33 -186 -41 -9 -13
-84 -10 -370 18 -164 15 -165 16 -261 63 -126 64 -148 92 -79 102 52 7 1368 3
1363 -4z m-1418 -88 c28 -16 83 -39 121 -51 38 -11 73 -24 77 -29 5 -4 -53 -7
-129 -5 l-137 2 -2 57 c-2 33 1 56 7 56 6 0 34 -13 63 -30z"/>
<path d="M3415 5768 c-3 -7 -7 -24 -9 -38 -3 -14 -5 -25 -6 -25 -1 0 -3 -9 -5
-20 -8 -49 -59 -258 -87 -354 -44 -152 -90 -376 -73 -360 6 6 93 328 106 389
5 25 18 81 28 125 22 87 47 210 55 263 4 32 -1 43 -9 20z"/>
<path d="M13261 7958 c-1 -36 -2 -37 -27 -28 -14 6 -48 10 -75 10 -43 0 -50
-3 -47 -17 3 -15 16 -18 80 -21 77 -3 90 -9 98 -47 4 -19 123 -195 131 -195
15 0 10 22 -16 67 -14 23 -23 43 -19 43 3 0 -8 16 -25 35 -27 31 -69 101 -69
115 0 3 -7 21 -15 40 l-15 35 -1 -37z"/>
<path d="M5370 7929 c-25 -17 -62 -47 -83 -67 -29 -28 -40 -34 -46 -23 -6 9
-11 10 -15 2 -4 -6 -5 -15 -2 -20 6 -9 -99 -113 -150 -148 -16 -12 -43 -25
-58 -29 -18 -4 -24 -9 -16 -14 8 -5 10 -23 6 -56 -11 -87 -11 -920 -1 -1594
15 -976 11 -1695 -11 -2174 -5 -102 -3 -127 7 -121 9 6 10 2 4 -16 -14 -46
-18 -101 -6 -109 9 -5 12 -106 12 -376 -1 -203 3 -374 7 -379 9 -13 30 -15
215 -17 82 0 142 -5 135 -9 -13 -8 440 -17 457 -9 52 26 188 39 200 20 5 -8
12 -7 22 2 9 7 28 13 42 14 14 0 42 1 61 3 29 2 31 4 15 10 -11 5 -37 6 -57 3
-37 -4 -52 8 -27 24 6 3 48 56 94 118 45 61 99 128 119 148 22 23 36 46 35 60
-1 17 -3 18 -6 6 -2 -10 -9 -18 -14 -18 -11 0 -7 118 4 136 4 7 3 54 -2 106
-5 52 -11 258 -14 457 -4 300 -3 360 8 351 14 -11 95 -189 95 -208 0 -6 20
-70 44 -144 25 -73 75 -227 111 -343 37 -115 84 -264 105 -330 21 -66 46 -142
54 -170 31 -98 64 -187 75 -198 21 -21 11 -27 -46 -27 -41 0 -54 -3 -46 -11
12 -12 592 -7 738 7 44 4 170 7 280 8 l200 1 20 -37 c25 -47 32 -48 27 -3 -2
19 1 42 8 50 10 12 9 15 -5 15 -9 0 -15 3 -13 8 9 21 84 121 91 122 10 0 -10
-38 -33 -65 -9 -11 -20 -29 -24 -40 -5 -16 -2 -15 14 5 11 14 20 28 20 31 0 3
11 12 25 19 13 7 22 16 20 20 -5 8 40 96 85 167 25 40 36 50 46 42 19 -15 -5
56 -64 186 -27 61 -55 128 -62 150 -7 22 -21 56 -31 75 -10 19 -38 89 -64 155
-26 66 -57 145 -70 175 -37 86 -94 237 -127 330 -33 97 -60 169 -93 255 -28
72 -75 223 -75 242 0 13 -107 271 -120 288 -14 18 -42 114 -36 124 3 5 -1 11
-9 14 -9 4 -12 1 -8 -9 3 -7 1 -14 -5 -14 -5 0 -13 7 -16 17 -7 18 31 66 45
57 5 -3 9 -1 9 4 0 11 53 72 176 202 80 85 126 145 158 208 31 60 -2 32 -48
-40 -55 -89 -107 -160 -113 -154 -2 2 11 25 29 52 18 27 54 85 80 129 65 111
69 116 62 83 -4 -18 -2 -28 5 -28 6 0 12 5 12 10 2 11 2 12 13 51 4 14 8 32
10 40 1 8 14 52 28 99 32 104 45 195 54 365 3 72 9 168 13 215 8 94 6 236 -4
290 -4 19 -9 46 -11 60 -8 41 -65 211 -90 265 -31 68 -41 111 -24 100 14 -9
15 -9 -23 65 -34 69 -39 77 -110 172 -34 46 -50 75 -40 71 20 -7 12 4 -47 71
-84 95 -391 272 -565 326 -22 7 -47 19 -56 27 -12 10 -18 11 -21 3 -2 -8 -49
0 -143 23 -183 45 -318 61 -495 59 -346 -4 -909 -7 -900 -4 12 4 14 22 3 22
-5 0 -28 -14 -53 -31z m494 -34 c39 -2 176 0 305 4 128 4 263 4 300 -1 36 -4
86 -10 111 -12 25 -3 78 -16 118 -29 39 -14 72 -20 72 -16 0 5 8 9 18 8 11 0
12 -2 4 -6 -18 -7 4 -33 27 -33 21 0 153 -45 194 -66 15 -9 33 -14 39 -12 5 2
-11 14 -36 26 -40 20 -67 42 -52 42 24 0 204 -74 293 -121 153 -80 178 -97
280 -183 30 -26 113 -138 113 -153 0 -3 15 -26 34 -52 27 -38 56 -99 56 -119
0 -3 -10 3 -22 14 -18 16 -18 13 3 -13 15 -17 32 -53 38 -79 7 -27 16 -53 20
-59 5 -5 14 -28 21 -50 7 -22 17 -46 23 -53 11 -13 40 -130 59 -232 14 -81 19
-150 19 -295 1 -128 -7 -185 -27 -192 -11 -4 -11 18 1 97 8 49 8 83 2 143 -1
9 -5 17 -9 17 -4 0 -8 5 -8 11 0 5 5 7 10 4 6 -3 10 0 10 8 0 8 -7 17 -15 21
-8 3 -15 13 -15 21 0 9 -4 14 -10 10 -5 -3 -6 -13 -3 -22 4 -10 2 -14 -4 -10
-5 3 -16 -6 -24 -21 -7 -15 -20 -35 -28 -44 -18 -23 -4 -23 21 -1 10 9 18 25
18 35 0 11 5 18 12 16 9 -3 13 -33 13 -99 1 -90 -7 -125 -26 -113 -5 3 -9 -9
-9 -26 0 -25 4 -31 15 -26 9 3 15 0 15 -10 0 -10 -6 -14 -15 -10 -11 4 -15 -1
-15 -19 0 -16 4 -23 14 -19 9 4 12 -3 11 -23 -3 -41 -4 -43 -18 -43 -8 0 -13
-14 -14 -36 -1 -41 -12 -57 -32 -45 -11 7 -11 12 1 30 11 18 11 23 0 30 -11 7
-11 14 1 44 13 30 13 35 1 30 -8 -3 -14 0 -14 6 0 7 7 14 15 17 8 4 12 10 9
15 -3 5 -9 7 -13 5 -4 -3 -7 29 -8 70 0 65 2 74 16 69 12 -4 11 -1 -3 9 -10 8
-16 20 -14 27 2 7 -1 36 -7 64 -14 61 -9 85 16 85 27 0 30 48 4 63 -12 6 -24
43 -30 87 -5 34 -18 70 -26 70 -5 0 -5 -10 -1 -22 4 -13 7 -44 7 -70 -1 -27 1
-48 4 -48 4 0 6 -11 6 -25 0 -14 -4 -25 -8 -25 -4 0 -7 -18 -5 -40 1 -22 -2
-43 -7 -47 -4 -5 -5 0 -2 9 3 9 0 21 -7 27 -8 6 -16 45 -20 89 -17 194 -83
349 -246 582 -9 14 -21 25 -27 25 -5 0 -46 34 -92 75 -146 133 -272 209 -446
270 -71 25 -112 36 -260 70 -220 51 -489 59 -1000 31 -99 -5 -259 -12 -355
-16 -159 -5 -173 -4 -155 10 63 49 179 148 235 203 l65 63 194 -6 c107 -4 227
-8 265 -10z m456 -280 c183 -20 257 -32 379 -61 126 -30 361 -122 410 -161 20
-16 62 -46 93 -67 60 -39 184 -169 211 -221 8 -16 32 -47 52 -67 20 -21 34
-42 31 -47 -4 -5 -1 -13 6 -18 27 -17 59 -95 94 -229 20 -76 40 -161 45 -187
4 -26 11 -56 14 -66 10 -34 14 -81 5 -81 -11 0 -18 -70 -8 -76 4 -3 8 0 8 5 0
6 5 11 11 11 7 0 9 -66 5 -212 -6 -258 -15 -357 -33 -380 -6 -7 -10 -20 -10
-28 1 -42 -71 -246 -119 -336 -68 -131 -101 -172 -205 -254 -56 -45 -113 -88
-128 -97 -14 -9 -39 -25 -55 -36 l-29 -20 -20 24 -19 24 16 -27 c21 -35 12
-54 -33 -76 l-36 -17 34 -5 c31 -5 36 -11 78 -105 68 -152 147 -350 181 -450
17 -49 45 -121 62 -160 18 -38 45 -101 60 -140 16 -38 43 -103 60 -144 17 -41
28 -76 26 -78 -6 -6 -33 41 -164 287 -60 113 -141 265 -181 338 -39 73 -100
190 -135 260 -35 70 -117 222 -181 337 -226 402 -255 455 -255 462 0 3 -13 28
-30 55 -34 54 -35 58 -19 58 14 0 27 16 73 85 39 60 71 142 93 239 21 97 20
371 -2 458 -24 89 -68 182 -114 237 -22 27 -37 52 -33 56 4 5 1 5 -6 1 -7 -5
-26 4 -45 21 -18 15 -44 36 -57 46 -14 10 -3 6 24 -8 40 -21 46 -22 33 -7 -10
11 -36 28 -59 38 l-42 19 29 6 30 7 -31 1 c-17 0 -57 10 -89 21 -82 28 -165
26 -360 -8 -38 -7 -43 -10 -19 -11 l31 -1 -3 -592 c-2 -326 0 -621 4 -656 4
-34 4 -69 -1 -78 -16 -28 13 -36 117 -29 155 9 236 32 348 98 26 16 52 26 57
23 6 -4 38 -59 72 -124 34 -64 101 -189 149 -277 48 -88 125 -232 170 -320 88
-170 240 -450 292 -538 17 -28 59 -104 93 -167 34 -63 97 -180 140 -260 43
-80 86 -157 97 -172 10 -15 45 -96 78 -182 33 -85 80 -205 105 -266 26 -61 44
-117 42 -123 -2 -7 -94 168 -204 388 -180 361 -367 723 -428 830 -13 22 -94
177 -180 345 -86 168 -162 310 -167 315 -17 17 261 -530 449 -885 34 -63 188
-367 343 -675 155 -308 291 -577 301 -597 34 -66 43 -63 -218 -63 -225 0 -493
-8 -719 -21 l-101 -6 -7 28 c-6 26 -153 482 -256 794 -35 107 -72 222 -135
428 -14 46 -25 97 -26 115 0 43 -27 169 -28 136 -1 -14 4 -51 10 -83 14 -78 8
-88 -23 -35 -67 114 -78 159 -82 320 -2 82 -1 149 3 149 4 0 13 -6 20 -12 10
-11 12 -9 9 7 -2 14 -13 21 -32 23 l-29 4 6 -134 7 -133 -21 25 c-12 14 -36
55 -54 91 -41 80 -143 181 -157 155 -5 -9 -16 -16 -25 -16 -12 0 -14 -7 -8
-37 4 -21 7 -432 6 -913 l0 -875 -131 -2 c-82 -2 -130 1 -130 7 0 5 9 10 20
10 11 0 20 5 20 10 0 6 -4 10 -10 10 -5 0 -6 7 -3 17 4 11 3 14 -5 9 -7 -4
-12 -4 -12 1 0 4 30 21 67 38 36 16 61 31 55 33 -6 2 -25 -4 -43 -13 -39 -21
-83 -30 -74 -16 3 6 20 17 38 26 18 8 43 24 57 35 l25 20 -37 -15 c-52 -21
-58 -19 -23 10 25 20 26 23 9 19 -22 -6 -22 -3 -23 122 l-2 128 -37 42 c-20
23 -49 60 -64 82 -41 62 -74 74 -214 80 -155 6 -212 -7 -270 -60 -23 -21 -52
-62 -64 -91 -12 -28 -33 -65 -46 -82 -13 -18 -21 -39 -19 -50 3 -11 -4 -31
-16 -45 -20 -24 -21 -25 -16 -2 3 12 1 22 -4 22 -5 0 -7 105 -3 258 l7 257
123 245 c68 135 145 286 172 335 120 221 202 376 202 383 0 20 -212 -363 -363
-658 -61 -118 -119 -228 -129 -245 l-19 -30 7 70 c8 78 28 126 132 300 36 61
86 148 112 195 85 153 171 301 330 570 87 146 192 326 235 400 42 74 86 150
97 168 11 17 17 32 15 32 -8 0 -68 -87 -109 -155 -19 -33 -93 -154 -163 -270
-190 -313 -271 -450 -456 -775 -92 -162 -175 -304 -183 -315 -15 -19 -16 -15
-17 60 -2 122 0 507 6 1305 7 1014 7 1017 0 1390 -4 184 -8 457 -9 605 -2 149
-5 276 -7 284 -6 22 39 29 126 19 75 -9 286 -4 540 12 201 12 476 10 615 -5z
m10 -820 c59 -12 102 -40 171 -112 145 -151 192 -283 188 -535 -2 -149 -38
-306 -77 -341 -45 -40 -247 -80 -316 -63 -21 5 -24 10 -20 39 9 61 0 928 -11
995 -4 28 -2 33 13 28 9 -2 33 -8 52 -11z m-198 -627 c11 -11 17 -26 14 -34
-4 -10 0 -15 12 -13 30 3 33 0 22 -21 -6 -11 -17 -20 -25 -20 -8 0 -15 -7 -15
-15 0 -8 7 -15 15 -15 8 0 15 -9 15 -20 0 -12 -7 -20 -16 -20 -14 0 -15 -10
-10 -73 3 -40 10 -95 15 -122 5 -27 7 -53 5 -57 -3 -4 -2 -19 2 -33 5 -20 9
-23 20 -14 22 18 16 2 -8 -23 -13 -13 -47 -50 -75 -81 -38 -42 -53 -53 -54
-40 -3 91 1 525 6 574 7 70 12 81 25 59 8 -12 10 -11 10 5 1 19 1 19 11 1 6
-10 20 -27 31 -38z m1034 -1284 c7 -28 26 -77 43 -110 17 -32 51 -102 76 -154
25 -52 49 -102 54 -110 15 -28 23 -80 12 -80 -6 0 -8 -7 -5 -15 4 -8 12 -15
20 -15 7 0 18 -9 24 -20 7 -14 7 -20 0 -20 -10 0 -3 -50 9 -60 3 -3 6 -9 6
-15 0 -12 72 -198 91 -234 8 -14 14 -33 14 -42 0 -8 7 -24 15 -35 17 -23 19
-16 5 23 l-10 28 20 -24 c11 -13 20 -18 20 -12 0 7 -11 22 -25 35 -27 25 -35
47 -10 26 24 -20 17 5 -10 34 -14 15 -25 29 -25 32 0 2 -8 23 -19 47 -36 82
-41 98 -41 128 0 37 15 30 23 -10 8 -40 36 -105 42 -99 7 7 -44 148 -60 168
-22 26 -56 100 -79 170 l-22 68 23 -15 c13 -8 20 -19 17 -25 -3 -5 0 -16 7
-24 6 -8 12 -22 13 -32 2 -29 37 -122 46 -122 18 0 17 28 -2 45 -17 14 -18 19
-7 26 12 8 11 12 -3 23 -10 7 -15 16 -11 19 3 4 -2 18 -11 32 -10 15 -15 33
-12 41 5 13 -91 212 -146 302 -11 17 -16 32 -12 32 4 0 -1 8 -10 19 -14 15
-14 20 -3 24 7 3 19 -4 26 -15 24 -38 146 -284 196 -393 27 -61 64 -137 81
-171 21 -39 29 -65 24 -75 -6 -9 -1 -23 11 -39 19 -23 19 -23 9 -2 -7 14 -7
28 -2 38 8 14 16 10 51 -25 23 -23 46 -53 51 -66 5 -14 16 -25 25 -25 9 0 18
-12 22 -30 3 -16 10 -30 15 -30 5 0 6 -5 2 -12 -4 -7 -3 -8 5 -4 26 17 -12 74
-129 195 -54 55 -71 82 -102 156 -32 80 -45 118 -48 150 -1 6 -8 17 -15 25
-14 15 -15 19 -15 45 0 8 -5 14 -11 12 -15 -3 -29 47 -18 64 6 11 9 9 9 -7 0
-12 6 -27 14 -33 8 -7 17 -23 20 -37 4 -14 18 -43 31 -65 14 -21 25 -45 25
-53 0 -7 7 -19 15 -26 8 -7 15 -19 15 -26 0 -17 18 -51 44 -81 10 -12 15 -26
11 -32 -3 -6 1 -11 10 -11 9 0 13 5 10 10 -3 6 -3 10 2 10 9 0 53 -80 57 -103
1 -9 6 -20 11 -24 4 -4 5 -1 0 7 -4 8 1 6 12 -5 21 -22 42 -68 98 -215 20 -52
42 -108 50 -125 7 -16 18 -47 25 -68 7 -22 29 -76 50 -120 20 -45 47 -104 60
-132 12 -27 29 -64 37 -82 8 -17 16 -37 17 -45 2 -7 8 -24 14 -38 5 -14 15
-38 21 -55 l11 -30 -25 30 -26 30 25 -55 c14 -30 33 -61 43 -67 13 -10 14 -13
2 -13 -8 -1 -3 -9 14 -21 18 -14 27 -30 27 -47 l-1 -27 -22 27 c-12 15 -35 48
-51 75 -53 88 -58 95 -62 90 -7 -6 75 -148 104 -179 14 -15 29 -25 34 -22 4 3
8 3 8 -1 0 -7 -51 -89 -60 -95 -16 -12 -121 -162 -130 -186 -14 -36 -22 -25
-58 76 -16 47 -33 93 -37 103 -4 9 -3 17 3 17 5 0 -12 44 -39 98 -27 53 -50
106 -52 117 -1 11 -12 39 -24 62 -12 23 -25 57 -28 77 -4 20 -11 36 -16 36 -5
0 -6 6 -3 13 2 7 -2 27 -11 43 -8 16 -15 32 -15 36 0 3 -15 40 -34 81 -38 81
-100 236 -101 252 0 6 -9 28 -18 50 -10 22 -41 96 -69 165 -28 69 -56 139 -63
155 -18 41 -75 193 -75 199 0 3 7 3 16 -1 14 -5 15 -3 4 16 -6 12 -20 31 -31
42 -10 10 -19 24 -19 31 0 6 7 3 15 -8 25 -33 16 -1 -16 56 -17 30 -45 82 -62
115 -17 33 -34 62 -37 65 -11 9 -51 101 -57 132 -5 25 -3 29 12 27 12 -3 22
-21 31 -55z m-978 -1197 c5 -80 13 -132 21 -140 10 -10 11 -5 6 23 -3 19 -8
80 -10 135 -2 55 -5 107 -6 115 -4 26 1 54 8 46 8 -8 7 -3 22 -166 6 -69 14
-152 18 -184 4 -44 3 -57 -5 -52 -13 8 -17 -16 -5 -27 10 -11 14 -67 4 -67
-14 0 -39 93 -34 126 3 18 1 34 -4 37 -10 7 -9 -176 3 -345 6 -96 7 -97 24
-75 10 12 15 24 11 27 -4 3 -7 16 -7 30 0 14 -4 52 -7 85 -5 41 -4 55 3 45 5
-8 10 -27 10 -42 0 -29 14 -38 23 -15 3 6 6 -17 6 -53 0 -64 0 -66 -47 -115
-26 -28 -55 -62 -64 -75 l-17 -25 0 45 c0 25 -2 181 -3 348 -2 166 0 302 3
302 12 0 21 -227 24 -547 0 -40 3 -73 7 -73 14 0 21 52 14 108 -4 31 -9 170
-12 308 -2 138 -8 280 -12 315 -4 35 -5 78 -3 94 4 27 5 26 12 -15 5 -25 12
-102 17 -173z m-69 -292 c7 -357 2 -438 -30 -487 -27 -42 -44 -49 -36 -15 3
12 7 77 8 145 1 68 6 125 11 128 6 4 8 -41 6 -110 -2 -64 -1 -116 3 -116 10 0
20 140 18 255 -1 55 -2 116 -3 135 0 19 2 112 4 205 4 209 14 139 19 -140z
m-500 56 c30 -8 97 -132 86 -159 -6 -13 -10 -6 -17 26 -5 23 -13 42 -18 42 -4
0 -6 -10 -3 -22 4 -20 3 -21 -7 -5 -6 9 -9 26 -5 36 5 17 -5 18 -188 20 -113
1 -204 -2 -220 -8 -21 -8 -27 -8 -27 3 0 22 48 59 87 66 47 10 280 10 312 1z
m-20 -100 c19 -5 28 -20 44 -74 11 -37 18 -69 16 -71 -2 -2 -109 -6 -237 -8
-284 -6 -280 -7 -237 82 16 34 36 65 45 70 17 11 333 11 369 1z m95 -172 c-3
-6 -7 -42 -9 -80 -3 -87 -22 -116 -93 -144 -53 -20 -76 -45 -42 -45 10 0 22 5
25 10 3 6 17 10 29 10 13 0 29 7 36 15 19 22 28 18 22 -10 -2 -15 0 -25 7 -25
6 0 11 10 11 23 0 12 7 33 16 45 14 20 14 23 -1 28 -12 5 -13 9 -4 20 6 8 14
47 17 87 5 74 12 87 47 87 14 0 21 -7 23 -22 2 -26 -27 -108 -38 -108 -4 0
-13 -37 -20 -82 -12 -82 -29 -112 -57 -101 -17 7 -17 -33 0 -41 6 -3 -31 -3
-83 0 -52 3 -171 7 -265 7 -141 2 -177 5 -212 20 -47 21 -51 32 -52 133 -1 60
14 100 61 164 15 20 20 22 45 11 66 -26 487 -19 517 10 12 11 28 1 20 -12z"/>
<path d="M6480 5183 c-14 -2 -37 -16 -52 -31 -33 -31 -37 -83 -13 -167 17 -56
42 -77 61 -51 6 9 20 16 30 16 16 0 17 -2 4 -10 -12 -8 -11 -10 6 -10 12 0 36
-3 53 -6 24 -5 31 -3 31 10 0 20 36 21 56 1 20 -20 31 -19 43 3 23 43 16 97
-22 165 -21 36 -41 69 -46 72 -14 8 -122 14 -151 8z m202 -141 c5 -19 8 -38 6
-44 -5 -14 -238 -17 -246 -3 -9 14 -14 55 -9 69 3 8 43 12 123 11 l118 0 8
-33z"/>
<path d="M5802 5003 c-17 -16 -29 -36 -77 -133 -23 -47 -26 -78 -9 -119 17
-44 43 -60 59 -37 8 10 36 15 102 18 50 2 89 0 86 -4 -2 -5 -40 -8 -84 -8 -44
0 -78 -4 -75 -8 5 -9 119 -7 183 3 37 6 42 10 48 42 3 19 15 45 26 56 13 14
16 24 9 31 -5 5 -10 25 -10 44 0 36 -47 115 -75 126 -9 3 -50 6 -90 6 -55 0
-78 -4 -93 -17z m221 -163 c-11 -32 -26 -55 -38 -60 -11 -4 -71 -10 -133 -12
-112 -6 -114 -5 -124 18 -15 33 -7 37 35 19 51 -21 155 -20 180 3 15 13 21 14
24 4 4 -10 8 -10 19 -1 24 20 16 28 -18 18 -18 -5 -72 -9 -119 -9 -96 0 -120
12 -103 51 9 20 18 21 136 23 70 0 130 4 134 9 20 20 24 -15 7 -63z"/>
<path d="M6824 3960 c-65 -9 -78 -17 -143 -84 l-55 -55 1 -108 c0 -92 5 -125
33 -223 56 -196 73 -222 139 -212 16 2 31 13 37 25 6 15 17 21 34 20 141 -13
206 -14 270 -5 41 6 77 9 80 6 12 -13 -37 -26 -113 -31 -100 -7 -106 -7 -136
3 -15 4 -22 3 -18 -2 3 -6 -9 -11 -29 -11 -20 -1 -31 3 -28 9 4 6 -2 7 -17 3
-67 -21 -28 -30 109 -27 145 3 163 5 180 16 7 4 12 2 12 -4 0 -7 7 -5 16 4 20
20 30 20 38 0 5 -14 16 -16 65 -11 72 8 83 12 100 40 13 21 13 21 -5 6 -23
-19 -64 -31 -64 -18 0 5 9 17 20 26 14 13 16 19 7 25 -9 5 -7 16 8 45 11 20
19 41 17 46 -2 5 5 18 15 29 16 17 16 18 0 12 -14 -5 -17 0 -17 27 0 23 -13
54 -40 94 -22 33 -40 66 -40 73 0 6 -4 12 -10 12 -5 0 -9 8 -7 18 3 25 -73
170 -109 207 -19 19 -50 37 -77 44 -50 12 -192 13 -273 1z m318 -47 c13 -12
31 -35 40 -51 l18 -29 -158 4 c-88 3 -176 1 -200 -5 -41 -10 -44 -9 -53 15 -5
13 -9 37 -9 53 0 26 4 29 38 33 20 2 96 4 169 3 121 -1 133 -3 155 -23z m-474
-135 c2 -18 13 -43 25 -56 21 -23 21 -24 2 -20 -12 2 -21 -3 -23 -14 -3 -14 3
-18 27 -18 18 0 34 -7 40 -17 10 -17 10 -17 11 0 0 15 6 17 28 13 132 -26 386
-32 472 -11 21 5 30 -1 57 -42 18 -26 35 -63 39 -80 7 -34 4 -36 -40 -36 -11
1 -28 -9 -37 -21 -13 -16 -20 -18 -29 -10 -9 9 -8 19 4 42 9 17 16 39 15 49 0
10 -8 1 -19 -22 -23 -50 -26 -105 -5 -105 20 0 65 22 65 32 0 4 8 8 18 8 10 0
23 5 30 12 23 23 12 -16 -16 -57 -36 -51 -67 -63 -131 -46 -31 8 -111 12 -222
11 -96 -1 -186 -1 -200 -1 -19 1 -30 10 -42 36 -16 34 -22 65 -12 65 2 0 21
-11 41 -25 43 -29 86 -32 105 -8 10 12 10 15 1 9 -7 -4 -35 0 -63 9 -39 13
-50 21 -46 34 2 10 -2 26 -9 36 -13 18 -14 17 -14 -9 0 -17 -5 -26 -12 -24
-21 7 -57 82 -58 120 0 20 -4 39 -9 42 -14 9 -20 56 -7 57 7 0 6 3 -1 6 -14 5
-18 55 -6 66 13 14 19 6 21 -25z m480 25 c44 -5 55 -10 66 -32 19 -38 27 -89
15 -97 -6 -3 -107 -3 -225 1 l-214 8 0 28 c0 34 17 81 33 91 15 9 251 10 325
1z"/>
<path d="M5216 2961 c28 -11 32 -16 23 -27 -6 -8 -16 -11 -21 -8 -6 4 -8 -2
-6 -12 3 -17 15 -19 126 -22 98 -2 122 0 122 11 0 8 9 25 21 38 l21 24 -29 2
c-15 1 -87 4 -160 5 -119 3 -128 2 -97 -11z"/>
<path d="M8404 7949 c-2 -3 33 -9 77 -12 44 -3 83 -8 87 -11 3 -4 -39 -52 -94
-109 -55 -56 -114 -119 -132 -140 -20 -24 -39 -37 -47 -33 -13 4 -14 -91 -11
-702 3 -389 8 -750 12 -803 6 -86 5 -97 -11 -102 -14 -6 -16 -15 -10 -56 6
-48 6 -49 -26 -65 -18 -9 -47 -16 -65 -16 -23 0 -38 -7 -48 -22 -24 -34 -20
-50 24 -93 l39 -39 -44 -47 c-25 -27 -45 -57 -45 -68 0 -18 35 -53 95 -94 21
-15 25 -24 20 -47 -8 -35 37 -94 65 -85 26 8 29 -11 23 -120 l-6 -96 -39 -31
c-27 -23 -38 -39 -38 -58 0 -15 -7 -33 -15 -40 -18 -15 -20 -54 -2 -68 7 -6
30 -12 52 -14 37 -3 40 -5 48 -43 5 -22 6 -78 3 -124 -4 -47 -9 -434 -11 -860
-3 -427 -8 -792 -12 -811 -3 -19 -6 -39 -5 -43 2 -4 4 -71 7 -148 l4 -139 -35
0 c-21 0 -33 -4 -29 -10 3 -5 19 -10 36 -10 16 0 29 -5 29 -11 0 -6 -16 -9
-40 -8 -21 2 -42 0 -46 -4 -4 -4 16 -7 44 -7 34 0 52 -4 53 -12 1 -7 2 -20 3
-28 2 -8 3 -27 4 -42 1 -16 7 -28 13 -28 8 0 10 17 6 53 -3 30 -2 58 1 63 4 5
99 9 212 10 675 4 897 3 1000 -1 277 -12 475 -17 470 -13 -5 5 -166 17 -250
19 -40 0 -42 1 -20 10 15 6 126 9 275 8 252 -2 685 8 694 16 2 3 -2 11 -8 19
-10 12 -5 16 33 21 24 4 51 5 58 2 7 -3 3 -6 -10 -6 -15 -1 -21 -5 -16 -12 5
-9 -1 -10 -20 -5 -14 3 -26 2 -26 -3 0 -19 40 -21 109 -5 34 7 34 7 10 17 -20
9 -13 12 49 18 48 6 81 5 93 -2 11 -5 25 -6 32 -2 12 8 17 9 37 12 6 0 10 5
10 10 0 6 -19 11 -42 13 -40 3 -41 4 -19 14 21 9 16 12 -45 18 -88 8 -131 15
-158 26 -21 9 34 12 194 11 113 0 7 19 -158 28 -7 1 -11 4 -9 9 3 4 56 8 119
10 62 2 117 7 121 11 7 7 -224 15 -375 13 -38 -1 -68 3 -68 8 0 10 56 24 69
16 5 -3 24 0 42 8 21 8 44 10 59 5 20 -5 21 -7 6 -8 -12 -1 -16 -4 -10 -10 5
-5 39 -5 79 0 39 5 101 11 138 15 38 3 67 8 64 10 -2 2 -28 6 -58 9 -30 3 -67
8 -82 11 -16 3 -74 7 -130 9 -56 2 -104 4 -107 4 -3 1 16 20 41 44 77 70 135
149 182 248 45 96 90 204 102 249 4 14 17 61 30 105 27 91 44 170 75 340 12
66 28 134 35 151 9 20 10 36 3 47 -6 11 -5 17 2 17 7 0 9 39 5 123 -7 165 -11
199 -42 362 -14 77 -27 150 -28 162 -5 39 -27 96 -56 145 -15 26 -39 71 -53
100 -42 88 -160 241 -216 282 l-25 18 34 26 c19 15 61 55 95 90 41 43 67 62
81 60 30 -4 30 -33 0 -46 -14 -7 -23 -16 -20 -22 12 -19 -20 -49 -58 -55 -33
-6 -36 -9 -25 -23 11 -13 10 -15 -12 -9 -15 3 -33 0 -44 -9 -11 -8 -15 -14
-10 -14 6 0 15 5 22 12 19 19 44 -9 31 -34 -19 -35 -1 -31 38 9 21 21 51 47
66 58 15 11 29 27 30 35 1 8 10 26 20 40 9 13 17 29 17 35 0 5 -28 36 -61 67
-45 41 -60 62 -56 75 3 10 17 49 31 87 14 38 30 95 37 125 6 31 13 59 16 64 2
4 6 35 8 70 2 34 13 136 25 227 29 220 29 448 0 485 -4 6 -11 25 -15 43 -6 31
-5 33 14 27 13 -4 21 -2 21 5 0 7 -9 14 -20 17 -21 6 -27 29 -9 35 6 2 -3 30
-21 69 -17 37 -32 75 -34 85 -11 57 -28 104 -46 127 -11 14 -19 29 -18 34 3
13 -31 74 -78 136 -48 62 -45 68 13 36 25 -14 31 -15 18 -4 -11 9 -41 27 -66
40 -25 13 -74 52 -108 86 -61 62 -84 77 -255 163 -48 25 -93 52 -100 59 -6 8
-74 28 -151 47 -77 18 -160 38 -185 46 -98 28 -185 37 -430 41 -399 8 -1141 9
-1146 2z m666 -41 c162 -1 351 -5 420 -9 69 -4 173 -8 233 -10 59 -1 107 -6
107 -11 0 -5 6 -8 13 -5 6 2 30 -2 51 -10 28 -9 42 -10 46 -3 5 8 19 5 43 -9
19 -11 48 -20 64 -19 38 0 242 -63 323 -99 36 -17 97 -50 135 -75 76 -50 216
-189 261 -259 15 -24 46 -73 70 -109 40 -62 76 -157 107 -285 22 -89 27 -125
19 -125 -9 0 -37 70 -34 83 1 4 -4 15 -13 23 -8 9 -15 26 -15 40 0 14 -7 27
-16 31 -9 3 -11 8 -6 12 6 3 0 11 -14 18 -13 6 -24 7 -24 2 0 -5 4 -9 8 -9 5
0 19 -33 32 -72 13 -40 26 -82 31 -93 16 -43 18 -55 9 -55 -6 0 -10 5 -10 11
0 8 -55 158 -86 233 -6 15 -4 17 6 11 8 -5 4 5 -8 22 -12 17 -22 33 -22 36 0
12 -170 169 -217 200 -113 76 -338 186 -351 172 -3 -3 46 -30 109 -60 141 -68
204 -103 204 -114 0 -12 85 -81 99 -81 15 0 88 -74 85 -86 -3 -13 18 -61 31
-69 24 -15 138 -270 126 -283 -3 -2 -21 30 -41 72 -56 121 -157 267 -233 336
-84 76 -237 181 -362 247 -102 54 -210 92 -330 117 -99 21 -326 32 -475 25
-66 -4 -250 -7 -410 -9 -159 -1 -360 -5 -445 -8 -85 -4 -173 -5 -194 -2 l-39
5 112 111 c61 61 111 117 111 123 0 7 5 22 11 33 10 19 17 20 98 14 47 -3 219
-7 381 -8z m-615 -304 c39 0 75 -2 80 -3 6 -2 247 -2 536 -1 563 1 792 -11
909 -49 30 -10 80 -24 110 -31 79 -18 257 -99 342 -156 40 -27 114 -89 164
-139 76 -76 99 -106 142 -191 87 -170 149 -364 168 -520 9 -73 8 -425 -1 -453
-5 -17 -12 -20 -33 -15 -40 10 -48 21 -29 42 10 11 17 35 17 60 0 23 9 66 21
96 25 69 19 83 -56 121 -51 25 -60 27 -89 17 -44 -16 -66 -15 -66 4 0 8 -13
20 -30 25 -20 7 -30 18 -30 31 0 16 -5 19 -22 14 -13 -3 -28 -6 -35 -6 -7 0
-17 -9 -23 -20 -9 -16 -8 -18 5 -14 10 4 15 0 15 -10 0 -9 5 -16 11 -16 7 0
17 -8 24 -17 12 -16 14 -16 30 1 24 24 31 12 11 -19 -9 -14 -12 -25 -7 -25 5
0 13 5 17 11 3 6 16 8 28 5 11 -3 35 0 53 6 37 13 92 0 133 -32 25 -19 25 -20
8 -50 -10 -18 -18 -42 -18 -55 0 -13 -4 -26 -10 -30 -5 -3 -7 -12 -3 -20 3 -8
0 -15 -6 -15 -6 0 -11 -5 -11 -11 0 -6 7 -8 16 -5 14 6 15 4 4 -9 -11 -13 -15
-13 -21 -3 -7 10 -14 7 -31 -13 -32 -36 -113 -86 -105 -65 4 11 1 16 -12 16
-10 0 -26 9 -36 20 -32 36 -37 21 -6 -17 17 -21 31 -44 31 -51 0 -13 18 -5
113 52 14 9 21 7 31 -7 7 -9 31 -23 52 -31 22 -7 41 -21 42 -30 6 -27 -55
-212 -95 -293 -20 -39 -53 -89 -75 -110 -22 -21 -47 -51 -57 -66 -26 -39 -82
-80 -95 -67 -6 6 -2 18 12 33 26 28 27 31 6 52 -15 15 -14 18 12 45 16 16 34
30 40 30 19 0 26 30 7 30 -10 0 10 28 52 75 37 42 64 79 60 83 -4 4 -10 1 -13
-6 -8 -24 -64 -82 -78 -82 -8 0 -14 9 -14 20 0 11 -7 20 -16 20 -8 0 -12 5 -9
10 4 6 10 8 14 6 4 -3 7 4 8 15 2 17 -1 16 -25 -6 -21 -20 -24 -27 -13 -34 11
-7 10 -14 -5 -40 -10 -17 -22 -31 -26 -31 -13 0 -9 17 7 30 8 7 15 17 15 23 0
6 -12 -1 -27 -15 -51 -46 -63 -49 -100 -19 -18 14 -33 29 -33 33 0 3 16 16 34
28 21 12 33 27 30 35 -3 8 3 16 16 20 12 4 19 9 16 12 -5 6 -96 -34 -96 -42 0
-2 8 -2 18 2 12 4 10 -1 -8 -20 l-25 -27 -49 25 c-27 13 -53 22 -59 18 -6 -4
1 -10 15 -14 25 -7 81 -47 134 -96 20 -18 22 -26 14 -53 -8 -27 -5 -34 23 -61
29 -28 30 -32 14 -43 -14 -11 -15 -18 -6 -47 6 -19 19 -40 27 -46 9 -7 11 -13
5 -13 -7 0 -15 5 -18 11 -9 14 -45 -19 -39 -35 3 -7 -20 -24 -56 -41 -63 -30
-78 -55 -34 -55 14 0 43 -13 63 -29 20 -15 50 -36 68 -45 66 -33 243 -225 243
-263 0 -8 -45 2 -51 11 -4 4 -14 4 -24 -2 -12 -6 -25 -5 -41 3 -28 14 -68 9
-85 -11 -9 -12 -5 -14 28 -14 56 0 67 -15 42 -57 -12 -18 -18 -40 -15 -48 3
-9 -14 -30 -49 -57 -30 -24 -55 -48 -55 -54 0 -16 -37 -47 -44 -36 -3 5 -17 7
-31 4 -42 -7 -30 22 34 88 32 33 61 60 64 60 2 0 22 16 43 35 21 19 35 35 31
35 -14 0 -62 -34 -106 -74 -30 -28 -42 -35 -37 -21 6 16 1 14 -23 -9 -18 -17
-34 -25 -42 -21 -8 5 -10 4 -5 -3 4 -8 0 -12 -11 -12 -25 -1 -54 -25 -51 -41
4 -16 -45 -14 -50 2 -3 6 -9 6 -18 -2 -27 -22 -14 5 19 39 18 19 25 30 15 27
-24 -9 -23 7 2 28 11 9 20 22 20 28 0 6 -31 -19 -70 -57 -38 -37 -70 -73 -70
-80 0 -7 -15 -24 -32 -38 -18 -14 -28 -26 -22 -26 5 0 20 10 33 21 16 15 26
18 34 10 17 -17 -8 -61 -35 -62 -13 0 -36 -2 -53 -4 -33 -4 -71 18 -60 35 4 6
13 9 21 6 7 -3 11 0 8 7 -7 18 51 58 72 50 14 -5 16 -2 12 15 -4 12 -2 20 2
17 5 -3 28 15 52 40 39 43 89 78 113 79 6 1 25 12 43 26 19 14 37 25 40 26 23
2 156 93 148 101 -3 3 -22 -8 -43 -24 -46 -35 -90 -63 -99 -63 -15 0 42 52 93
86 55 36 65 48 36 38 -11 -4 -6 5 12 21 l30 27 -30 -17 c-16 -9 -37 -24 -45
-34 -8 -9 -36 -33 -61 -54 -50 -40 -83 -49 -72 -19 5 14 3 15 -8 5 -18 -18
-29 -16 -29 4 0 15 -1 15 -18 0 -22 -20 -36 -22 -27 -4 4 6 -7 -3 -24 -21 -31
-32 -39 -52 -23 -52 5 0 17 9 27 20 15 16 19 17 31 5 8 -7 14 -16 14 -19 0 -9
-69 -28 -80 -21 -5 3 -19 1 -31 -5 -37 -20 -33 -2 10 45 37 41 47 55 37 55 -2
0 -23 -16 -47 -35 -24 -19 -47 -35 -52 -35 -8 0 11 37 31 58 6 7 12 18 12 23
0 11 -49 -21 -70 -46 -18 -21 -33 -19 -21 4 6 10 8 21 5 24 -3 3 0 15 6 27 22
42 -1 33 -44 -16 -24 -27 -47 -46 -52 -41 -4 4 8 24 27 43 l34 37 -44 -32
c-24 -17 -46 -29 -49 -26 -7 7 18 35 32 35 6 0 20 15 31 33 29 47 30 55 6 30
-23 -25 -37 -30 -25 -11 5 7 2 9 -9 5 -32 -12 -5 18 56 63 52 38 69 45 113 47
60 2 96 -5 88 -18 -6 -10 9 -12 19 -3 4 4 -6 17 -20 30 -22 19 -25 26 -15 36
14 14 16 28 3 28 -5 0 -22 5 -38 12 -15 6 -32 10 -36 9 -5 -1 -26 3 -48 9 -35
10 -39 13 -27 27 11 14 10 15 -10 9 -27 -9 -29 5 -2 29 11 10 18 21 15 23 -3
3 -17 -5 -32 -19 -18 -16 -24 -19 -20 -8 4 13 1 16 -14 12 -15 -4 -17 -9 -8
-25 6 -11 9 -21 7 -22 -2 -1 -36 -24 -76 -51 -76 -51 -100 -74 -66 -62 19 7
19 7 0 -8 -10 -8 -23 -12 -29 -8 -5 3 21 34 59 69 38 35 63 63 57 64 -7 0 -13
-4 -13 -10 0 -5 -5 -10 -12 -10 -6 0 -2 10 10 23 26 28 28 39 6 30 -11 -4 -15
-2 -12 7 2 7 15 15 29 17 37 5 51 12 45 22 -4 5 3 27 15 48 11 21 15 31 7 23
-7 -9 -25 -25 -41 -37 -25 -20 -30 -20 -57 -6 -17 8 -28 19 -25 24 4 5 -1 6
-11 2 -14 -5 -15 -3 -4 18 7 13 22 34 33 47 30 32 14 27 -28 -9 -19 -17 -35
-28 -35 -24 0 4 -7 2 -15 -5 -19 -16 -32 -5 -17 13 7 8 8 17 4 21 -4 4 -2 6 4
4 12 -3 144 144 144 159 -1 4 -10 -3 -21 -17 -48 -58 -101 -110 -109 -105 -11
7 -45 -42 -45 -64 0 -9 -8 -17 -17 -19 -16 -3 -16 -1 -2 35 l15 38 -31 -35
-32 -35 6 47 c3 26 19 75 36 109 17 34 29 64 26 67 -6 5 -86 -158 -86 -176 0
-6 -5 -14 -11 -17 -7 -5 -8 6 -4 32 l5 38 -17 -32 c-35 -67 -39 -26 -7 60 8
21 10 36 4 32 -9 -6 -38 -63 -53 -107 -9 -27 -29 -22 -23 5 l6 22 -11 -22
c-13 -26 -37 -30 -45 -9 -5 14 10 67 40 138 25 58 19 67 -9 12 -14 -27 -25
-55 -25 -61 0 -7 -4 -13 -9 -13 -5 0 -7 -10 -3 -22 4 -17 2 -20 -11 -15 -11 4
-17 1 -17 -9 0 -8 -5 -12 -11 -9 -6 4 -7 19 -4 36 8 36 -2 38 -15 4 l-10 -26
-30 23 c-16 12 -30 28 -30 36 0 12 -3 12 -15 2 -10 -8 -19 -9 -27 -3 -21 16
-48 23 -48 13 0 -5 25 -25 55 -45 38 -24 55 -41 55 -56 0 -25 -84 -114 -99
-104 -6 3 -8 12 -4 18 4 7 0 6 -10 -2 -29 -23 -47 -6 -47 46 l-1 48 -27 -47
c-29 -51 -58 -74 -49 -38 7 28 -8 25 -21 -5 -6 -14 -19 -25 -28 -25 -13 0 -14
-3 -5 -14 7 -8 8 -17 3 -20 -6 -3 -15 1 -22 10 -11 12 -10 21 3 49 l17 35 -23
-13 c-12 -6 -37 -25 -54 -41 -31 -28 -34 -29 -51 -13 -33 30 -46 20 -23 -16
18 -29 19 -38 9 -59 -15 -32 -50 -56 -56 -39 -2 6 -8 9 -12 6 -5 -3 -7 -13 -4
-23 5 -13 4 -14 -4 -3 -7 9 -12 10 -16 2 -4 -6 -12 -11 -17 -11 -5 0 -2 12 8
28 l17 27 -30 -28 c-27 -24 -34 -26 -58 -17 -33 12 -46 13 -27 1 12 -8 12 -12
2 -25 -8 -9 -20 -16 -28 -16 -12 0 -13 -3 -4 -14 7 -9 8 -17 2 -20 -5 -3 -11
0 -14 6 -3 7 -4 3 -4 -8 1 -23 22 -22 31 1 3 10 19 13 53 10 29 -2 59 3 77 12
22 12 27 12 24 1 -3 -7 -15 -19 -29 -25 -13 -7 -18 -13 -11 -13 6 0 12 -5 12
-11 0 -6 -6 -9 -14 -6 -8 3 -22 -3 -32 -14 -16 -18 -16 -19 -1 -13 21 8 22 -3
2 -23 -9 -8 -14 -18 -11 -20 6 -7 27 14 50 49 10 15 23 25 29 21 6 -4 7 -1 3
6 -5 7 0 21 9 31 9 10 14 24 10 29 -4 8 2 8 19 1 14 -5 28 -5 31 0 3 4 1 10
-5 12 -5 1 7 23 28 47 22 26 41 40 45 34 4 -6 -5 -23 -18 -38 -14 -14 -24 -32
-23 -39 2 -7 -37 -58 -87 -113 -102 -113 -111 -116 -190 -62 -34 22 -44 25
-57 15 -10 -7 -15 -21 -12 -32 6 -27 -127 -167 -152 -157 -11 4 -15 3 -10 -5
13 -21 -74 -75 -93 -56 -10 9 20 54 36 54 19 1 40 15 61 42 11 14 11 16 -7 11
-22 -6 -29 12 -8 21 6 3 0 3 -15 0 -43 -9 -33 8 27 45 30 19 53 37 50 39 -2 3
-17 -4 -32 -14 -18 -11 -50 -19 -87 -21 -33 -2 -69 -9 -81 -17 -13 -8 -41 -14
-63 -13 l-39 1 -7 88 c-7 100 1 121 49 139 16 6 38 15 47 20 28 14 31 11 14
-16 -9 -13 -16 -27 -16 -31 0 -12 44 49 46 64 4 22 14 27 14 6 1 -19 1 -19 15
0 21 27 42 8 26 -23 -17 -32 7 -27 49 10 27 24 30 29 13 24 -25 -7 -51 28 -35
48 5 7 8 31 7 55 -2 23 1 45 6 48 5 3 9 12 9 20 0 23 -32 2 -60 -40 -21 -30
-67 -66 -85 -66 -3 0 10 21 30 46 19 26 35 51 35 57 0 5 7 7 15 3 10 -4 15 1
15 15 0 15 5 19 15 15 8 -3 14 -2 13 2 -4 13 27 52 41 52 10 0 11 3 2 13 -8
11 -6 18 10 33 11 10 25 28 30 39 6 11 -6 3 -25 -18 -19 -22 -39 -36 -44 -33
-5 3 -15 -6 -22 -19 -16 -29 -23 -31 -45 -9 -14 15 -17 14 -35 -7 -11 -13 -30
-35 -42 -48 -23 -23 -23 -23 -1 -12 12 6 31 23 42 37 12 15 24 24 28 20 6 -6
-63 -76 -76 -76 -3 0 -12 4 -20 9 -13 8 -13 12 0 27 10 14 6 13 -18 -4 -35
-25 -51 -29 -34 -9 6 8 8 17 4 20 -6 7 74 105 117 144 14 12 33 23 43 23 33 0
17 16 -30 29 l-48 12 -47 -53 c-34 -37 -48 -47 -48 -34 0 10 11 27 25 38 14
11 25 24 25 30 0 7 -11 1 -25 -12 -14 -13 -25 -18 -25 -11 0 6 10 22 23 34 13
12 15 16 5 8 -10 -8 -21 -12 -24 -9 -3 4 -6 84 -7 180 -2 171 -2 173 20 176
12 2 25 13 29 24 5 18 12 20 50 15 49 -5 68 8 32 22 -45 17 -64 63 -38 93 8 9
21 24 28 32 18 22 58 20 94 -5 22 -16 32 -19 41 -10 16 16 23 14 24 -9 1 -11
-3 -20 -8 -20 -5 0 -13 -8 -16 -17 -4 -10 -24 -39 -44 -66 -37 -46 -55 -84
-46 -93 2 -2 21 22 42 53 21 32 53 77 72 101 20 24 29 42 21 42 -10 0 -9 3 2
10 8 5 11 10 5 10 -7 0 -7 3 0 8 6 4 19 18 30 31 18 23 17 22 -20 -4 l-40 -29
25 29 c36 42 50 57 98 108 25 27 38 47 30 47 -14 0 -52 -36 -123 -117 -42 -48
-67 -58 -40 -15 l18 27 -32 -29 c-23 -22 -34 -27 -42 -19 -14 14 17 62 57 88
24 15 25 19 11 27 -10 5 -24 5 -35 -1 -12 -6 -23 -5 -35 4 -19 14 -8 28 15 20
7 -2 21 7 32 21 l18 26 -33 -17 c-19 -9 -42 -20 -52 -26 -25 -14 -33 -4 -16
18 13 17 13 17 -11 0 -38 -27 -50 -31 -62 -19 -14 14 -1 34 45 70 27 22 33 31
23 35 -17 7 -116 -78 -116 -98 0 -24 43 -45 90 -45 25 0 51 -5 57 -11 20 -20
-20 -67 -87 -101 -80 -41 -91 -57 -66 -100 l19 -32 -34 -28 -34 -29 -6 678
c-4 373 -10 717 -14 765 -9 98 1 125 39 111 12 -5 53 -8 91 -9z m-149 -1749
c3 -12 4 -75 2 -140 -4 -108 -6 -119 -27 -136 -30 -25 -39 -24 -47 4 -4 19
-11 23 -30 19 -14 -2 -24 0 -24 7 0 6 -7 11 -15 11 -27 0 -16 31 25 72 22 22
40 44 40 48 0 5 5 10 11 12 12 4 -21 39 -70 77 l-25 18 30 16 c16 9 50 16 77
15 40 -1 48 -4 53 -23z m1494 -628 c0 -32 -5 -68 -11 -80 -7 -15 -2 -12 15 8
14 17 25 33 26 36 0 3 12 12 28 19 15 8 38 23 52 34 15 13 12 7 -9 -16 -18
-20 -30 -41 -27 -47 5 -7 1 -8 -11 -4 -10 3 -15 3 -12 -1 4 -4 -13 -37 -37
-74 -24 -37 -62 -114 -85 -172 -23 -58 -45 -110 -51 -117 -10 -12 -13 -27 -24
-121 -5 -39 -11 -52 -20 -48 -10 4 -14 -3 -14 -20 0 -14 4 -22 10 -19 6 4 9
-7 9 -27 -1 -23 -3 -26 -6 -10 -2 12 -9 22 -14 22 -5 0 -8 -10 -8 -22 0 -13
-3 -95 -7 -183 -15 -330 -1 -675 28 -675 6 0 7 10 4 23 -11 34 -17 207 -6 177
4 -14 9 -54 9 -90 1 -36 5 -71 10 -79 11 -17 -8 -53 -24 -43 -6 3 -5 0 1 -9 7
-8 14 -32 17 -54 11 -90 87 -313 110 -323 4 -2 21 -15 37 -28 23 -20 39 -24
82 -24 60 2 94 -5 112 -19 7 -6 29 -18 49 -26 37 -15 37 -15 25 5 -7 12 -29
31 -48 43 -36 22 -78 57 -69 57 3 0 40 -18 83 -40 42 -22 86 -40 96 -40 10 0
23 -7 28 -16 7 -13 13 -14 28 -6 10 6 16 12 12 13 -5 1 -11 2 -15 3 -13 2 -63
39 -107 78 -35 32 -38 38 -23 44 22 8 36 -4 18 -15 -18 -12 21 -25 48 -16 10
3 25 0 32 -8 22 -21 78 -37 133 -37 28 0 67 -5 86 -10 31 -10 54 -14 125 -25
11 -2 20 -4 20 -5 0 -1 21 -3 48 -5 94 -5 34 20 -70 29 -77 7 -141 32 -125 48
6 6 22 6 43 0 39 -10 109 -4 109 9 0 6 -17 9 -38 8 -21 -2 -42 0 -47 3 -6 3
-43 3 -82 -1 -40 -4 -73 -4 -73 -1 0 3 12 13 28 22 38 24 10 22 -39 -2 -49
-26 -69 -17 -38 16 29 31 18 30 -37 -2 -49 -29 -56 -19 -23 28 31 43 13 48
-22 5 -33 -40 -49 -42 -42 -3 6 30 -16 46 -24 17 -4 -18 -24 -28 -36 -18 -2 1
-11 -4 -20 -11 -38 -32 -132 33 -174 119 -53 108 -77 189 -52 173 17 -10 136
120 160 174 35 82 37 87 44 112 7 27 26 179 27 220 4 129 -45 345 -97 423 -15
24 -15 27 25 79 22 30 53 61 68 69 15 7 44 24 65 38 20 13 40 21 43 18 3 -3
-4 -8 -15 -12 -12 -3 -21 -11 -21 -16 0 -13 14 -11 28 3 6 6 14 9 17 6 3 -3
-25 -26 -61 -51 -49 -34 -63 -48 -51 -53 16 -6 25 0 70 41 12 11 35 32 51 45
26 22 28 23 18 4 -10 -19 -44 -51 -115 -111 -15 -13 -34 -23 -42 -23 -34 0
-12 -30 35 -49 39 -16 59 -16 167 -3 24 3 44 47 34 75 -13 35 -6 38 45 19 37
-14 48 -14 65 -4 18 12 24 11 43 -6 21 -21 39 -25 89 -23 21 1 35 12 59 46 18
25 38 45 46 45 7 0 27 13 43 29 23 23 29 39 29 70 0 45 26 81 60 81 10 0 31 5
44 12 23 10 29 8 51 -18 44 -49 113 -203 149 -329 33 -116 56 -222 56 -254 -1
-36 -22 22 -37 102 -15 82 -32 131 -33 95 0 -9 16 -97 35 -195 37 -190 45
-321 24 -424 -6 -30 -14 -79 -19 -109 -28 -165 -57 -263 -83 -281 -5 -4 -7
-11 -4 -16 4 -6 -2 -19 -13 -30 -10 -12 -25 -37 -34 -56 -40 -97 -202 -290
-255 -304 -27 -8 -64 -35 -134 -96 -22 -19 -79 -43 -187 -77 -253 -81 -483
-112 -830 -111 -107 1 -208 3 -225 5 -16 2 -140 7 -274 11 -134 4 -282 8 -328
10 -46 1 -86 -1 -89 -6 -3 -5 29 -9 71 -9 48 0 74 -4 70 -10 -4 -6 -74 -10
-176 -10 -119 0 -168 3 -164 11 4 6 9 328 11 717 2 389 3 713 4 720 0 7 5 10
10 7 6 -3 10 -2 10 4 0 5 -6 11 -12 13 -13 5 -21 128 -9 128 3 0 6 118 6 262
0 228 2 263 15 262 8 0 35 -4 60 -8 30 -4 40 -3 30 3 -18 12 -13 17 26 25 25
6 33 3 38 -10 8 -20 -9 -34 -41 -34 -13 0 -23 -5 -23 -11 0 -11 24 -9 80 6 24
6 24 6 6 -9 -11 -9 -30 -16 -42 -16 -12 0 -24 -6 -27 -14 -10 -26 3 -70 26
-88 19 -15 20 -20 9 -38 -11 -18 -9 -24 18 -52 29 -29 34 -30 68 -20 20 6 63
18 94 27 32 9 60 21 64 26 12 19 66 9 86 -16 31 -40 51 -47 91 -30 20 8 38 19
42 25 4 6 11 5 21 -4 21 -21 17 -35 -11 -42 -14 -3 -25 -12 -25 -20 0 -22 26
-16 61 13 23 20 41 26 65 24 20 -1 34 2 34 9 0 6 15 17 33 25 18 7 45 25 60
39 52 48 52 47 49 -221 -5 -315 -5 -615 0 -813 l3 -155 33 -3 c17 -2 32 -7 32
-11 0 -4 -14 -28 -31 -52 -73 -103 -199 -210 -199 -169 0 6 6 10 14 10 8 0 18
10 22 23 4 12 23 47 43 77 20 30 40 62 44 70 17 30 -64 -66 -95 -113 l-32 -49
-11 30 c-5 16 -18 40 -27 53 l-18 24 7 -30 c3 -16 15 -49 26 -73 10 -24 17
-45 15 -46 -46 -33 -78 -52 -116 -67 -26 -10 -38 -18 -27 -18 31 -1 83 20 181
72 90 48 153 106 218 201 25 38 63 141 71 192 2 16 13 83 24 149 24 137 29
395 8 395 -9 0 -9 2 0 8 7 5 10 26 6 62 -2 30 -6 80 -8 110 -6 103 -49 270
-89 349 -29 55 -85 109 -185 178 -127 88 -133 93 -120 109 8 10 18 7 47 -13
20 -14 63 -38 94 -54 31 -16 73 -43 92 -60 35 -31 120 -137 129 -161 2 -7 7
-10 11 -7 4 4 -13 38 -37 75 -24 38 -48 79 -51 92 -4 12 -11 22 -16 22 -14 0
-5 50 13 67 15 15 17 14 27 -12 6 -15 13 -44 16 -63 7 -45 20 -78 40 -105 15
-21 16 -20 10 23 -3 25 -17 81 -31 124 -14 43 -25 88 -25 100 0 12 -9 40 -19
63 -11 23 -17 44 -13 47 3 3 0 6 -6 6 -7 0 -12 7 -12 15 0 36 31 8 75 -68 15
-26 29 -46 32 -43 2 2 0 12 -6 23 -6 10 -20 42 -31 71 -17 45 -18 55 -6 67 11
12 16 8 30 -23 10 -21 18 -44 20 -52 7 -37 19 -76 27 -85 4 -6 10 -26 12 -45
7 -53 51 -172 85 -232 l31 -53 15 37 c20 47 20 54 -1 76 -10 10 -27 29 -38 41
l-20 23 25 -3 c14 -2 31 0 38 4 7 5 12 3 12 -3 0 -25 19 3 46 67 15 38 33 75
40 83 11 14 32 70 64 178 17 55 30 37 30 -41z m403 2 c5 -3 -4 -10 -18 -13
-15 -4 -62 -33 -103 -64 -103 -77 -101 -76 -94 -50 l5 22 -39 -24 c-21 -13
-53 -38 -69 -55 -17 -16 -26 -27 -21 -22 16 11 28 8 20 -5 -5 -7 13 5 39 26
26 21 47 34 47 29 0 -13 -80 -87 -87 -80 -3 3 -11 1 -17 -6 -20 -21 -48 -69
-43 -73 5 -5 43 40 50 59 2 7 7 9 11 6 3 -3 -5 -23 -19 -45 l-26 -39 25 27
c13 15 31 37 40 49 19 27 33 19 15 -9 -10 -16 -9 -24 9 -49 l21 -30 -31 -49
c-31 -49 -95 -126 -110 -132 -4 -2 -8 5 -8 16 0 11 -6 25 -14 31 -23 19 -27
58 -11 103 9 24 18 52 20 63 18 92 53 157 108 199 18 14 68 43 110 65 42 22
89 49 103 60 21 17 30 18 52 9 15 -7 31 -15 35 -19z m-646 -95 c4 -10 -1 -22
-10 -29 -23 -17 -21 -28 2 -15 33 17 72 12 78 -10 3 -11 9 -20 14 -20 5 0 -1
-18 -13 -41 -19 -38 -59 -66 -78 -54 -16 10 -41 76 -35 95 4 11 2 20 -4 20
-19 0 -13 58 7 63 30 8 32 7 39 -9z m-715 -108 c4 -6 8 -7 8 -3 0 5 5 5 11 1
7 -4 -7 -25 -36 -54 -45 -45 -46 -48 -25 -55 20 -6 21 -8 4 -26 -19 -21 -43
-27 -26 -6 14 17 -1 42 -19 31 -8 -4 5 14 29 40 43 50 56 80 25 55 -32 -25
-84 -83 -145 -164 -34 -44 -66 -84 -73 -90 -6 -5 -14 -18 -18 -27 -4 -11 -12
-15 -22 -12 -17 7 -20 20 -5 29 6 3 10 13 10 21 0 16 59 90 168 212 53 58 70
71 86 66 12 -4 24 -12 28 -18z m248 -75 c14 -9 36 -22 50 -29 42 -22 62 -40
55 -51 -10 -17 -25 -13 -19 4 11 27 -3 16 -44 -37 -53 -70 -90 -108 -105 -108
-6 0 10 21 36 47 47 46 57 63 36 63 -12 0 17 44 31 46 23 3 24 5 10 14 -10 6
-21 4 -34 -8 -18 -16 -18 -16 -7 6 7 13 10 26 8 29 -7 6 -128 -121 -147 -155
-44 -77 -60 -88 -79 -55 -8 14 4 31 60 87 38 38 69 73 69 77 0 5 5 9 11 9 8 0
8 -5 -1 -15 -8 -9 -9 -15 -2 -15 12 0 42 39 42 53 0 5 -7 4 -15 -3 -8 -7 -15
-9 -15 -6 0 4 7 14 15 22 8 9 15 20 15 25 0 16 -19 10 -32 -10 -6 -10 -17 -17
-23 -15 -6 3 -24 -7 -41 -21 -16 -14 -36 -25 -44 -24 -10 0 -7 6 10 17 13 9
35 29 49 45 25 28 53 39 31 12 -10 -12 -10 -15 0 -15 6 0 14 9 17 19 5 21 20
19 63 -8z m960 -59 c0 -15 -51 -86 -80 -112 -3 -3 -23 -27 -45 -55 -22 -27
-70 -83 -107 -124 -37 -41 -65 -79 -61 -84 3 -6 1 -7 -4 -4 -12 8 -51 -39 -81
-99 -17 -33 -26 -73 -31 -136 -1 -5 -5 -8 -11 -8 -5 0 -7 7 -4 15 9 22 10 104
2 98 -5 -2 -8 1 -8 6 0 6 6 11 13 11 14 0 43 78 33 88 -3 3 -6 -1 -6 -9 0 -8
-9 -25 -20 -39 l-20 -25 2 28 c1 15 5 27 8 27 4 0 5 15 3 33 -3 26 -1 28 6 12
8 -18 10 -17 16 12 4 18 11 30 16 27 26 -16 189 133 258 236 27 39 102 119
114 120 4 0 7 -8 7 -18z m-142 -364 c45 -93 63 -162 69 -271 11 -182 -19 -238
-167 -311 -63 -31 -71 -33 -78 -18 -5 9 -9 81 -10 159 -1 213 29 334 116 465
13 21 28 38 32 38 4 0 21 -28 38 -62z"/>
<path d="M9590 7290 c-30 -11 -66 -20 -81 -20 -15 0 -32 -7 -40 -16 -7 -8 -25
-22 -41 -30 -18 -9 -39 -37 -59 -77 -38 -75 -37 -73 -51 -59 -19 19 -53 14
-77 -12 -20 -22 -29 -24 -71 -19 -37 4 -50 2 -61 -12 -8 -9 -29 -31 -46 -48
-42 -39 -41 -59 3 -95 l35 -29 -22 -44 c-13 -24 -27 -45 -31 -47 -15 -7 -8
-24 7 -18 19 7 19 -8 0 -24 -12 -10 -16 -9 -21 4 -8 22 -24 20 -56 -9 -35 -31
-37 -51 -2 -28 21 13 30 14 45 5 17 -11 23 -9 43 13 13 14 28 25 35 25 6 0 11
5 11 10 0 6 -7 10 -15 10 -17 0 -20 16 -5 25 5 3 14 25 20 48 6 23 18 55 26
70 20 37 10 47 -15 16 l-20 -24 -22 22 c-27 27 -20 51 21 66 18 7 29 18 27 27
-3 18 60 27 76 11 16 -16 50 -14 44 3 -3 7 0 19 6 25 14 14 64 15 72 1 3 -5
10 -10 14 -10 7 0 55 78 56 90 1 19 45 63 66 64 13 0 24 7 24 15 0 15 55 39
93 40 13 1 30 8 38 16 21 21 46 19 78 -6 14 -11 26 -16 26 -10 0 12 -49 51
-64 51 -6 -1 -36 -10 -66 -20z"/>
<path d="M9699 7210 c22 -23 31 -40 29 -58 -2 -21 2 -28 20 -30 15 -2 27 -15
37 -38 18 -43 34 -49 82 -33 21 7 43 14 50 15 7 1 26 12 42 23 16 12 49 24 74
27 39 6 46 4 65 -21 27 -34 28 -52 2 -60 -27 -9 -26 -14 20 -60 21 -22 39 -44
40 -49 0 -6 -10 -20 -22 -33 -18 -19 -20 -26 -9 -32 10 -7 8 -13 -11 -30 l-23
-22 25 6 c15 3 33 0 44 -8 16 -12 17 -19 9 -59 -10 -44 -9 -46 8 -35 11 7 17
18 14 25 -2 7 0 24 6 38 9 25 12 26 60 21 41 -5 63 -1 108 18 54 22 60 23 119
10 35 -7 66 -16 69 -19 4 -4 1 -22 -6 -41 -14 -40 -9 -52 27 -66 l27 -10 -33
-28 -33 -27 21 -27 c22 -28 46 -27 35 1 -3 9 2 30 11 48 19 35 13 63 -14 71
-14 3 -18 14 -18 45 1 32 -4 44 -25 60 -42 32 -111 35 -168 8 l-47 -22 -39 26
c-45 31 -46 31 -78 6 -33 -26 -38 -25 -27 6 17 43 11 65 -25 110 -31 37 -35
48 -33 90 3 46 2 49 -37 71 -47 27 -87 29 -106 7 -22 -26 -70 -47 -82 -35 -7
7 -17 3 -34 -15 -27 -29 -43 -27 -60 7 -7 13 -23 33 -37 44 -14 11 -32 38 -39
60 -11 32 -19 41 -42 43 l-28 4 32 -32z"/>
<path d="M9000 6844 c-29 -25 -34 -26 -69 -15 -21 6 -44 11 -50 11 -15 0 -107
-99 -103 -111 3 -14 -7 -11 -36 11 l-28 21 -79 -28 -80 -28 2 -46 c1 -57 17
-89 43 -89 25 0 25 6 0 37 -23 30 -26 66 -6 82 7 6 37 18 66 27 51 15 54 15
82 -6 33 -24 58 -20 58 9 0 11 4 23 10 26 6 3 7 -1 4 -9 -5 -12 0 -16 20 -16
26 0 35 13 16 25 -15 9 -12 31 6 49 19 19 60 20 94 2 22 -13 25 -12 35 8 6 11
23 27 38 34 15 7 27 17 27 23 0 16 -17 10 -50 -17z"/>
<path d="M9266 6543 c1 -158 3 -321 4 -362 1 -40 -2 -76 -8 -80 -5 -3 -11 -15
-13 -26 -3 -13 -14 -21 -33 -23 -31 -4 -30 -8 -9 68 6 22 5 24 -10 12 -9 -8
-20 -32 -24 -55 -7 -35 -13 -42 -35 -45 -17 -2 -34 4 -47 17 -12 12 -23 16
-26 10 -9 -13 -25 -2 -35 25 -8 21 -8 20 -20 -5 -12 -26 -57 -55 -68 -45 -2 3
0 18 6 33 6 15 14 46 17 68 l6 40 -17 -45 c-9 -25 -25 -53 -35 -63 -11 -10
-17 -22 -14 -28 4 -5 -8 -9 -25 -9 -37 0 -46 18 -31 61 15 43 7 49 -13 10 -23
-44 -20 -67 14 -91 17 -12 30 -25 30 -29 0 -5 -14 -26 -31 -47 -30 -38 -63
-51 -85 -33 -8 6 -14 4 -18 -7 -9 -23 2 -34 35 -34 34 0 36 -9 10 -41 -19 -24
-19 -24 -54 -5 -43 23 -50 44 -30 102 8 25 13 48 10 50 -3 3 -14 -17 -24 -45
-16 -46 -33 -67 -33 -41 0 5 -6 7 -13 4 -20 -7 -40 22 -35 51 4 20 3 23 -8 14
-38 -31 2 -87 108 -154 27 -17 48 -34 48 -39 0 -4 -14 -21 -32 -36 -30 -27
-31 -28 -11 -39 18 -9 23 -7 38 17 10 15 12 21 4 15 -7 -7 -18 -13 -23 -13 -6
0 11 22 37 48 26 27 44 51 41 55 -4 4 0 7 8 7 9 0 22 8 29 17 12 15 12 16 -4
10 -25 -10 -13 10 49 76 56 59 114 96 114 72 0 -8 -5 -17 -10 -20 -6 -4 -8
-11 -5 -16 4 -5 0 -9 -7 -9 -15 0 -113 -95 -131 -128 -7 -11 -18 -29 -24 -40
-10 -16 -10 -21 3 -26 8 -3 12 -2 9 4 -9 15 15 52 30 47 7 -3 25 10 40 29 15
19 30 32 32 30 3 -3 -4 -17 -16 -32 -12 -15 -19 -30 -15 -33 3 -3 15 6 26 21
17 25 21 26 35 13 8 -9 12 -22 9 -31 -5 -12 -1 -14 17 -8 12 4 24 10 27 13 3
4 19 13 35 21 17 8 33 16 38 18 4 2 30 -20 57 -49 28 -28 53 -49 56 -46 4 3
-8 32 -25 63 -18 31 -30 63 -27 71 4 10 2 13 -8 10 -10 -4 -12 0 -9 14 3 10
12 19 19 19 8 0 13 3 12 8 -8 38 43 92 88 92 13 0 14 -3 4 -15 -8 -10 -9 -15
-1 -15 7 0 9 -18 7 -52 -3 -29 -5 -59 -5 -65 -1 -7 -6 -13 -12 -13 -7 0 -9 10
-4 27 5 22 4 25 -8 15 -17 -15 -27 -6 -27 25 0 22 -1 23 -16 9 -20 -20 -13
-41 31 -91 26 -31 33 -35 28 -17 -3 12 -1 22 5 22 7 0 10 -23 9 -62 l-2 -61
76 2 c132 4 222 20 267 48 39 25 123 94 153 126 23 25 27 26 39 12 18 -22 29
-19 22 7 -3 13 -1 19 5 15 7 -4 7 6 0 32 -9 34 -8 41 11 62 12 12 32 45 44 71
12 26 27 48 34 48 8 0 6 -13 -8 -42 -11 -23 -21 -51 -23 -63 -1 -12 -5 -27 -9
-34 -4 -6 -9 -38 -11 -71 -3 -47 -1 -58 10 -53 16 6 14 -22 -5 -57 -6 -12 -9
-24 -6 -28 7 -6 4 -10 46 58 19 30 40 61 47 68 7 8 18 23 24 34 6 11 13 18 15
15 3 -3 -4 -22 -15 -43 -31 -56 -25 -76 7 -27 15 24 33 43 40 43 6 0 12 7 12
15 0 8 5 15 10 15 6 0 10 6 10 14 0 8 14 28 31 45 30 30 59 41 59 21 0 -5 -7
-10 -15 -10 -18 0 -67 -49 -60 -60 2 -4 -5 -16 -15 -28 -11 -12 -20 -26 -20
-31 0 -6 -7 -8 -15 -5 -19 8 -19 -6 1 -34 25 -37 50 -45 79 -26 24 16 84 16
194 1 30 -4 37 -20 16 -37 -8 -7 -15 -16 -15 -21 0 -19 28 -7 60 26 26 27 30
35 16 35 -9 0 -24 6 -31 14 -12 12 -12 18 5 39 11 14 20 29 20 34 0 5 9 17 21
26 11 10 18 21 15 24 -3 4 -14 -1 -24 -10 -10 -10 -22 -17 -26 -17 -5 0 -26
-14 -48 -31 -40 -32 -128 -53 -128 -31 0 16 23 27 28 14 3 -9 7 -9 17 1 7 6
25 21 40 32 130 94 215 164 215 177 0 5 -18 -4 -39 -21 -46 -36 -56 -38 -73
-11 -7 11 -20 20 -29 20 -21 0 -151 -112 -216 -186 -38 -43 -55 -56 -63 -48
-8 8 -6 21 7 47 19 39 39 50 28 17 -8 -24 10 -27 19 -3 4 10 1 20 -9 25 -13 8
-13 12 2 34 9 14 22 23 29 20 7 -3 16 -1 19 5 4 5 12 8 19 7 6 -2 29 16 50 40
24 26 47 42 62 42 33 0 40 18 9 26 -16 4 -25 13 -25 25 0 31 -15 22 -46 -27
-27 -43 -31 -45 -64 -39 -19 4 -37 9 -39 11 -2 2 8 27 22 56 l26 52 -35 -38
c-19 -20 -32 -42 -29 -47 8 -12 -6 -11 -24 0 -12 8 -13 15 -3 38 11 26 11 27
-3 9 -11 -14 -18 -17 -26 -9 -8 8 -5 22 10 51 34 66 25 69 -29 11 -50 -54 -62
-52 -40 7 9 23 9 25 -4 15 -8 -7 -22 -27 -31 -46 -9 -19 -22 -35 -28 -35 -19
0 -37 21 -38 45 -1 16 -2 17 -6 3 -2 -10 -9 -18 -14 -18 -5 0 -8 29 -5 68 5
90 -12 196 -40 256 -13 27 -22 51 -20 53 9 9 50 -74 66 -135 l18 -67 -3 67
c-2 50 -10 79 -31 120 -16 29 -36 53 -44 53 -8 0 -19 5 -25 11 -5 7 -42 39
-81 72 -98 83 -159 103 -324 109 l-125 4 1 -288z m328 197 c73 -36 156 -118
187 -186 37 -79 38 -132 4 -191 -14 -23 -21 -43 -15 -43 5 0 18 18 26 41 12
28 19 37 25 28 11 -18 -1 -142 -15 -151 -8 -5 -7 -13 2 -28 20 -33 15 -103
-11 -141 -20 -30 -31 -36 -87 -46 -36 -7 -84 -12 -108 -13 -41 0 -88 -16 -124
-42 -9 -7 -20 -10 -23 -6 -3 3 -8 97 -11 209 -11 499 -13 565 -20 583 -7 18
-3 19 61 13 37 -4 86 -16 109 -27z"/>
<path d="M10560 6550 c-30 -23 -44 -25 -36 -5 7 19 -40 -12 -122 -80 -33 -27
-75 -62 -93 -76 -19 -15 -31 -30 -27 -34 9 -10 56 18 108 64 49 45 49 44 68
32 11 -7 9 -13 -9 -30 -23 -22 -45 -29 -34 -11 10 16 0 12 -29 -14 -24 -20
-25 -24 -11 -30 14 -5 68 23 85 44 3 4 19 11 35 15 22 6 25 9 12 12 -15 4 -14
7 8 25 14 11 32 17 40 14 18 -7 20 15 3 32 -9 9 -9 12 3 12 19 0 52 34 42 43
-10 10 -16 8 -43 -13z"/>
<path d="M9551 3676 c-1 -37 -8 -94 -16 -127 -8 -32 -14 -62 -13 -66 1 -4 -4
-19 -12 -33 -7 -14 -16 -38 -20 -55 -4 -20 -12 -30 -23 -29 -22 2 -95 -78 -77
-84 7 -3 28 13 46 34 18 22 33 33 34 26 0 -23 -20 -52 -71 -102 -38 -37 -45
-49 -33 -54 10 -4 36 11 71 39 30 25 63 45 73 45 10 0 21 4 25 9 3 5 19 12 35
16 17 4 30 10 30 15 0 8 70 -25 159 -75 44 -25 91 -33 91 -16 0 5 -18 11 -40
15 -21 3 -43 12 -47 19 -13 19 -71 57 -88 57 -9 0 -18 8 -21 18 -3 9 -11 30
-17 47 -11 29 -11 29 -17 5 -7 -28 -30 -39 -30 -15 0 15 -3 15 -15 5 -14 -11
-15 -6 -11 41 14 148 14 227 1 279 l-13 55 -1 -69z"/>
<path d="M12515 7933 c-145 -4 -174 -9 -135 -25 33 -14 353 -20 386 -8 14 6
24 16 22 23 -5 13 -56 15 -273 10z"/>
<path d="M12646 7224 c-59 -14 -251 -102 -242 -111 2 -3 15 0 28 6 20 10 20
10 4 -1 -10 -7 -47 -34 -81 -60 -62 -45 -79 -38 -26 11 l26 23 -33 -18 c-19
-11 -38 -27 -43 -36 -5 -9 -31 -42 -57 -72 -57 -65 -134 -203 -167 -301 -58
-171 -67 -402 -23 -557 11 -40 22 -82 22 -93 2 -18 56 -130 121 -250 15 -27
53 -99 85 -160 64 -123 113 -214 175 -325 23 -41 68 -124 99 -183 l58 -109
-17 -101 c-9 -56 -23 -109 -32 -119 -10 -12 -11 -18 -3 -23 12 -7 11 -17 -9
-125 -7 -35 -7 -58 -1 -64 6 -6 10 -21 11 -35 0 -26 1 -26 11 -4 10 20 18 22
102 22 50 1 111 4 136 7 38 5 49 2 64 -15 11 -12 25 -21 33 -21 7 0 16 -7 19
-15 7 -16 49 -21 58 -6 3 5 15 11 26 14 11 3 18 2 15 -2 -2 -4 15 -7 38 -7 39
1 78 22 70 38 -2 4 3 5 11 2 9 -3 16 -10 16 -15 0 -5 5 -9 11 -9 5 0 7 5 4 10
-9 15 6 12 25 -5 20 -18 174 -26 156 -8 -3 4 -34 8 -67 9 -51 1 -66 6 -87 28
l-27 26 33 0 c29 0 48 -19 20 -21 -7 0 -4 -4 7 -9 11 -5 50 -9 88 -9 59 -1 88
-12 55 -23 -6 -2 33 -2 88 0 54 2 101 6 103 8 11 10 -13 15 -88 16 -46 2 -85
6 -87 10 -6 10 40 21 93 22 24 1 43 3 43 6 0 3 26 3 57 2 32 -2 55 -1 51 4 -5
4 -24 7 -43 6 -19 -1 -37 3 -40 8 -3 4 -70 7 -149 5 -177 -5 -157 -28 -195
230 -11 72 -22 137 -26 147 -4 10 21 68 66 155 142 274 269 537 354 738 25 61
50 119 55 130 29 70 65 202 80 294 31 190 -36 430 -176 627 -53 75 -166 181
-214 201 -86 35 -130 57 -130 64 0 10 -23 18 -110 40 -94 24 -352 25 -444 3z
m471 -64 c138 -40 263 -103 263 -133 0 -7 -21 -17 -47 -23 -41 -10 -51 -9 -86
10 -22 12 -66 45 -99 74 -32 28 -62 52 -66 52 -11 -1 98 -97 147 -130 28 -19
39 -31 30 -35 -8 -2 -115 -34 -239 -69 -124 -35 -270 -83 -325 -106 l-100 -41
-20 27 c-56 77 -180 214 -183 204 -3 -7 12 -28 31 -48 47 -50 147 -175 147
-186 0 -4 -7 -5 -16 -2 -14 5 -15 4 -5 -8 10 -12 4 -30 -32 -93 -40 -69 -97
-227 -127 -350 -9 -37 -23 -52 -113 -124 -56 -45 -117 -96 -135 -113 -38 -35
-49 -29 -57 33 -3 24 -11 51 -18 59 -14 18 -20 299 -6 308 5 3 7 10 4 15 -4 5
-1 9 4 9 6 0 11 7 11 16 0 41 76 238 126 327 45 79 59 97 78 97 13 0 29 -7 37
-16 7 -8 35 -31 63 -50 28 -19 74 -51 101 -71 28 -21 43 -29 35 -19 -8 10 -63
54 -122 98 -59 44 -105 84 -103 89 13 21 172 123 237 153 198 91 380 105 585
46z m343 -210 c19 -22 35 -44 35 -48 2 -20 18 -52 26 -52 6 0 7 -5 3 -12 -4
-6 -3 -8 4 -4 6 3 21 -8 33 -26 15 -22 17 -28 6 -19 -19 15 -22 9 -6 -20 5
-11 14 -17 19 -14 5 3 14 -4 20 -15 7 -13 7 -20 0 -20 -5 0 -10 5 -10 10 0 6
-5 10 -12 10 -9 0 -9 -3 0 -12 7 -7 12 -20 12 -30 0 -11 11 -29 24 -41 38 -36
48 -95 47 -282 -1 -236 -14 -272 -69 -196 -39 53 -124 227 -161 327 -33 89
-107 279 -121 309 -23 51 -50 118 -50 125 0 13 102 47 145 49 12 1 35 -16 55
-39z m-243 -67 c-3 -32 -11 -131 -18 -220 -7 -90 -16 -163 -20 -163 -4 0 -19
20 -33 44 -37 62 -117 131 -184 157 -86 32 -190 23 -289 -26 -80 -39 -116 -78
-150 -160 -10 -25 -22 -45 -26 -45 -4 0 -3 9 3 20 6 11 8 20 5 20 -9 0 46 135
71 173 31 48 88 75 309 147 88 29 194 65 235 81 105 39 104 40 97 -28z m97
-156 c30 -73 73 -181 96 -242 22 -60 61 -147 86 -193 25 -46 43 -86 41 -88 -2
-2 -49 27 -104 66 -56 38 -131 86 -168 106 l-67 37 6 56 c12 95 25 282 26 356
1 89 9 80 84 -98z m-337 -93 c185 -91 231 -342 90 -487 -58 -59 -137 -97 -201
-97 -94 1 -196 70 -240 165 -49 102 -30 250 43 343 78 99 202 129 308 76z
m-485 -242 c-5 -71 16 -190 42 -241 28 -54 97 -120 153 -147 51 -24 65 -26
147 -22 76 3 99 8 140 31 27 15 51 25 54 22 3 -2 -14 -29 -38 -59 -43 -57
-126 -190 -90 -146 12 14 48 62 81 108 32 45 85 113 117 151 61 74 97 152 108
239 4 28 8 52 10 52 4 0 107 -64 269 -168 49 -31 91 -64 93 -72 1 -10 -64 -48
-215 -124 -120 -60 -288 -151 -374 -203 -85 -51 -161 -93 -167 -93 -6 0 -32
33 -58 73 -26 39 -80 107 -120 150 -72 77 -85 97 -63 97 6 0 -9 22 -33 48 -23
27 -56 68 -72 91 -25 35 -27 44 -15 52 12 8 12 10 -1 19 -13 8 -13 11 -1 19 7
5 11 13 7 19 -3 6 0 13 6 16 9 4 9 8 2 11 -15 8 4 145 20 145 2 0 1 -31 -2
-68z m-31 -249 c69 -103 130 -183 203 -268 34 -38 71 -84 83 -102 l23 -32 -68
24 c-37 12 -134 54 -217 93 -82 38 -196 89 -252 113 -57 23 -103 45 -102 48 0
3 32 29 70 56 95 67 173 128 177 137 10 22 37 0 83 -69z m1149 -67 c0 -5 -41
-99 -100 -233 -17 -37 -27 -50 -39 -46 -13 4 -14 3 -2 -5 12 -9 4 -32 -50
-139 -35 -70 -67 -130 -71 -133 -4 -3 -14 -21 -23 -40 -8 -19 -20 -42 -25 -50
-5 -8 -21 -42 -36 -75 -31 -70 -159 -331 -177 -360 -7 -11 -23 -36 -36 -55
-14 -18 -18 -30 -10 -25 7 4 3 -4 -11 -20 -14 -16 -19 -25 -12 -21 6 4 12 2
12 -3 0 -6 -6 -11 -14 -11 -7 0 -23 -21 -36 -47 -12 -27 -29 -60 -36 -76 -7
-15 -11 -34 -8 -42 4 -8 1 -15 -6 -15 -6 0 -9 4 -6 9 3 5 0 11 -7 14 -10 4
-13 -2 -9 -19 2 -13 9 -21 15 -17 6 3 2 -5 -9 -19 l-19 -26 -5 32 c-3 17 -5
128 -5 247 0 197 2 219 19 237 10 12 16 27 13 34 -3 8 -9 2 -16 -15 -15 -39
-33 -24 -30 27 3 42 17 71 74 161 43 68 57 95 48 95 -8 -1 -73 -95 -101 -147
-7 -13 -17 -21 -23 -18 -14 9 -11 139 4 154 10 10 9 12 -3 9 -17 -3 -22 42 -9
80 6 14 5 22 -2 22 -7 0 -9 14 -7 38 3 20 1 52 -3 70 -5 23 -3 32 6 32 7 0 15
7 19 15 3 8 10 15 15 15 6 0 36 16 66 36 31 19 104 61 163 93 59 32 123 67
144 79 20 11 39 18 42 15 3 -3 12 2 21 10 14 15 75 37 101 37 6 0 21 11 34 25
16 17 30 23 44 19 17 -4 18 -3 6 5 -8 6 -12 11 -7 11 4 0 8 -1 10 -2 1 -1 13
5 27 12 14 8 28 13 33 12 4 -1 7 3 7 8 0 6 7 10 15 10 8 0 15 -2 15 -4z
m-1218 -202 c95 -42 222 -96 281 -120 147 -60 142 -56 142 -117 0 -29 8 -203
18 -387 22 -410 26 -550 14 -550 -4 0 -1 -10 7 -22 9 -12 16 -26 16 -30 0 -18
-16 -6 -38 28 -16 25 -20 40 -13 47 7 7 1 21 -20 46 -16 19 -29 39 -29 44 0 5
-17 34 -37 65 -39 58 -57 87 -69 110 -12 24 -159 283 -212 376 -29 49 -52 90
-52 92 0 2 -20 35 -45 74 -25 39 -45 72 -45 75 0 7 -79 166 -138 277 -29 53
-52 102 -52 108 0 6 22 -1 49 -15 28 -14 128 -59 223 -101z"/>
<path d="M11880 5786 c0 -2 -18 -75 -40 -162 -21 -88 -57 -244 -79 -349 -22
-104 -52 -235 -66 -290 -15 -55 -32 -121 -37 -147 -6 -27 -15 -48 -19 -48 -5
0 -9 5 -9 11 0 5 -5 7 -11 4 -6 -4 -8 -14 -5 -22 4 -9 1 -22 -5 -29 -6 -8 -8
-14 -5 -14 4 0 2 -9 -5 -21 -7 -15 -8 -24 -1 -31 7 -7 6 -15 -4 -25 -16 -16
-19 -48 -4 -38 6 3 10 -1 10 -10 0 -9 -4 -14 -8 -11 -4 2 -9 -14 -9 -36 -1
-22 -7 -64 -14 -94 -10 -43 -15 -52 -26 -43 -10 9 -13 8 -13 -5 0 -9 5 -16 10
-16 6 0 10 -7 10 -16 0 -9 -5 -12 -12 -8 -7 4 -8 3 -4 -5 7 -10 -18 -141 -46
-246 -6 -22 -19 -78 -28 -125 -21 -98 -47 -215 -55 -247 -3 -13 -10 -23 -16
-23 -6 0 -6 6 -1 18 5 9 12 40 16 67 4 28 15 82 26 120 61 232 108 555 81 555
-6 0 -11 -20 -12 -47 -1 -84 -22 -213 -47 -298 -5 -18 -6 -18 -12 5 -4 14 -4
30 0 35 15 22 39 176 43 273 3 84 1 105 -10 109 -9 4 -11 8 -4 12 5 4 12 29
15 56 12 96 38 185 55 186 10 0 12 2 4 6 -7 2 -13 9 -13 14 0 6 4 8 9 4 5 -3
12 -1 16 5 3 5 1 10 -6 10 -8 0 -5 5 5 13 13 10 18 27 17 72 0 76 14 173 45
300 13 54 29 126 34 160 5 33 12 69 14 80 8 44 19 111 21 128 2 24 -20 21 -33
-5 -25 -49 -85 -333 -98 -458 -7 -72 -27 -166 -81 -375 -54 -212 -97 -397
-108 -465 -2 -14 -24 -106 -49 -205 -26 -99 -46 -189 -46 -200 0 -11 -18 -90
-40 -175 -23 -85 -59 -243 -81 -350 -32 -157 -39 -208 -34 -260 4 -51 1 -77
-14 -119 -11 -30 -18 -58 -15 -63 10 -16 21 1 28 41 9 55 23 59 31 9 4 -24 14
-55 21 -70 8 -15 14 -40 14 -56 0 -16 7 -35 15 -42 8 -7 15 -20 15 -29 0 -29
57 -47 125 -40 33 4 101 7 150 8 62 1 85 4 75 11 -10 7 18 10 87 9 57 0 105
-5 109 -10 3 -5 99 -6 228 -3 211 6 223 5 231 -12 6 -18 8 -17 16 4 7 20 13
22 43 17 20 -4 36 -2 40 4 5 7 -4 11 -24 11 -30 0 -31 1 -24 38 4 20 11 45 15
54 5 9 9 25 9 36 0 18 6 19 88 16 48 -2 107 -6 132 -10 104 -14 272 -16 337
-4 51 10 63 15 48 21 -27 10 -6 15 85 18 42 1 51 4 38 12 -23 13 -237 4 -252
-11 -8 -8 5 -9 47 -4 40 5 57 3 57 -5 0 -7 -23 -11 -62 -12 -35 0 -79 -2 -98
-3 -19 -1 -44 1 -55 5 -13 5 -3 8 32 8 28 1 55 5 58 11 4 6 -21 7 -67 4 -72
-6 -112 -6 -280 -5 l-88 1 0 31 c0 23 4 30 14 26 86 -33 442 -30 736 7 14 1
36 4 49 4 13 1 22 5 18 8 -9 10 -85 8 -175 -5 -46 -7 -106 -11 -135 -11 -29 1
-115 1 -192 1 -129 -1 -193 4 -204 15 -2 2 92 5 210 5 262 2 297 3 305 12 4 4
-106 7 -244 7 -156 0 -253 4 -257 10 -4 6 34 10 107 11 62 1 102 4 88 7 -42 8
6 19 54 13 23 -3 122 -4 221 -1 l180 5 -125 7 c-239 15 -542 19 -535 8 3 -6
11 -7 17 -4 7 4 8 2 4 -5 -4 -6 -12 -9 -17 -6 -5 4 -9 1 -9 -4 0 -6 -9 -11
-20 -11 -13 0 -18 -5 -14 -14 4 -11 -2 -14 -25 -14 -35 1 -43 30 -13 47 11 7
12 11 4 11 -10 0 -12 8 -8 28 4 15 8 43 10 62 2 19 9 48 15 63 6 16 9 32 6 37
-2 4 2 29 9 56 8 27 18 85 21 129 4 44 11 85 15 90 5 6 16 49 25 97 l18 88 51
-4 c28 -2 180 -4 339 -5 l287 -1 0 -24 c0 -31 20 -86 31 -86 5 0 9 -5 9 -11 0
-5 -4 -8 -9 -5 -25 16 -11 -63 17 -92 6 -7 12 -21 12 -30 0 -15 -2 -15 -10 -2
-8 13 -10 12 -10 -2 0 -10 5 -18 10 -18 6 0 10 -7 10 -16 0 -9 -5 -12 -12 -8
-8 5 -9 2 -5 -10 4 -10 7 -21 7 -24 0 -4 5 0 11 8 7 11 8 6 4 -20 -3 -19 -1
-57 5 -85 6 -27 17 -90 25 -139 8 -49 21 -98 29 -110 9 -11 29 -40 45 -62 21
-31 26 -45 18 -53 -8 -8 -8 -11 2 -11 6 0 35 -24 63 -52 l50 -53 -7 35 c-10
46 -32 85 -78 134 -21 23 -45 54 -53 70 -15 28 -15 29 5 23 16 -4 21 0 21 13
0 11 -4 21 -9 24 -10 7 -2 56 10 56 5 0 9 -6 10 -12 0 -7 2 -22 5 -33 2 -11 7
-40 11 -65 3 -25 13 -54 21 -65 13 -19 14 -17 7 15 -4 19 -11 53 -15 74 -8 39
1 89 12 70 3 -5 13 -49 22 -97 9 -48 21 -99 27 -114 5 -14 11 -51 14 -82 2
-31 7 -64 10 -73 6 -15 2 -18 -23 -18 -44 0 -48 -16 -4 -17 20 -1 270 -4 555
-6 285 -2 522 -8 526 -13 5 -5 16 -37 27 -71 19 -67 39 -89 22 -25 -5 20 -13
60 -17 87 -4 28 -23 111 -41 185 -18 74 -34 144 -35 155 -1 11 -7 32 -13 46
-17 42 -30 96 -67 275 -19 93 -41 198 -50 234 -43 181 -59 260 -62 310 -2 30
-12 71 -22 90 -25 48 -34 90 -20 90 8 0 8 4 -1 15 -22 27 -55 186 -40 195 7 5
7 23 -1 58 -6 29 -15 50 -20 46 -5 -3 -9 0 -9 5 0 6 4 11 8 11 5 0 0 33 -10
73 -33 123 -37 141 -42 185 -3 23 -8 48 -13 55 -4 6 -6 20 -5 30 2 9 -2 17 -8
17 -7 0 -10 6 -7 14 3 7 2 17 -3 22 -4 5 -10 25 -13 44 -3 19 -10 50 -16 68
-5 18 -13 56 -16 85 -18 147 -138 592 -168 622 -19 20 -19 20 -12 -30 4 -27 9
-72 10 -100 2 -27 9 -63 16 -80 7 -16 14 -40 15 -52 2 -12 8 -32 14 -43 6 -12
9 -24 6 -27 -3 -4 -1 -11 4 -18 5 -6 12 -33 15 -59 3 -26 10 -58 15 -72 6 -13
9 -28 9 -32 -1 -4 0 -10 1 -14 1 -5 3 -11 5 -15 1 -5 4 -15 7 -23 7 -18 30
-126 33 -157 2 -11 6 -30 9 -42 3 -12 9 -30 12 -41 8 -30 -13 -24 -24 8 -16
42 -14 2 2 -54 8 -27 22 -88 32 -136 9 -49 19 -88 23 -88 3 0 6 -15 7 -33 0
-18 4 -42 9 -53 4 -10 7 -28 6 -39 -2 -17 0 -17 8 -5 8 11 9 4 4 -24 -5 -31
-3 -37 7 -31 10 6 12 2 8 -18 -3 -17 0 -28 9 -31 8 -3 11 -11 8 -16 -4 -6 -3
-16 2 -23 9 -11 11 -20 16 -77 1 -14 5 -27 8 -30 5 -5 16 -50 61 -260 11 -52
31 -140 44 -195 13 -55 51 -221 85 -370 101 -447 116 -507 144 -577 7 -17 -17
-18 -382 -18 -213 -1 -397 -2 -408 -2 -11 -1 -59 -1 -106 0 l-86 2 -22 118
c-46 244 -51 268 -55 312 -7 61 -15 120 -21 150 -2 14 -7 43 -10 65 -9 63 -35
196 -46 238 -6 21 -11 56 -11 78 0 42 -12 57 -31 40 -9 -7 -79 -6 -226 2 -117
7 -215 9 -218 4 -2 -4 -11 -3 -19 4 -8 6 -14 9 -14 6 0 -3 -15 -1 -32 4 -37
11 -168 2 -168 -12 0 -5 20 -6 45 -2 31 4 45 2 45 -6 0 -15 -97 -15 -102 1 -4
10 -13 10 -44 1 -64 -19 -134 -25 -134 -10 -1 10 -22 -18 -26 -33 0 -3 -4 -12
-7 -20 -4 -8 -20 -62 -37 -120 -16 -58 -39 -128 -50 -157 -11 -28 -38 -127
-60 -220 -23 -92 -43 -176 -46 -185 -3 -10 -1 -18 3 -18 5 0 19 39 31 87 12
48 25 89 27 92 13 12 13 -10 1 -60 -8 -30 -20 -76 -26 -104 -7 -27 -14 -68
-16 -90 -2 -22 -9 -70 -15 -107 l-12 -68 -64 0 c-94 0 -257 21 -265 34 -5 7
-8 7 -8 -3 0 -9 -4 -10 -12 -4 -8 5 -140 8 -310 7 -164 -1 -298 0 -298 3 0 3
31 135 85 358 9 39 25 106 36 150 16 72 72 305 86 364 4 14 0 26 -8 32 -12 7
-11 9 1 9 9 0 15 10 16 28 1 52 26 178 83 431 11 46 17 89 15 95 -3 7 0 23 5
37 10 24 10 24 12 -6 1 -22 3 -25 6 -10 3 11 9 25 14 31 5 6 11 21 13 35 3 13
5 24 6 24 1 0 3 19 6 43 2 24 0 42 -6 42 -6 0 -10 4 -10 10 0 5 6 7 13 4 17
-6 38 77 25 100 -6 10 -5 16 1 16 11 0 31 87 24 107 -3 7 0 13 5 13 6 0 9 10
7 22 -3 12 0 27 6 35 6 7 9 20 5 28 -3 9 0 15 9 15 8 0 15 5 15 10 0 6 -6 10
-12 10 -10 0 -9 3 1 9 7 5 10 14 7 20 -4 6 -3 11 1 11 5 0 10 12 11 27 1 15 7
32 12 37 6 6 10 25 10 42 0 36 18 128 31 159 4 11 14 52 22 90 8 39 31 146 51
239 20 93 36 185 36 206 0 20 5 41 12 48 9 9 8 12 -5 12 -9 0 -17 -2 -17 -4z"/>
<path d="M6293 3088 c-17 -18 -52 -60 -76 -93 l-45 -60 25 -14 c16 -8 42 -11
65 -8 44 6 49 1 13 -13 -16 -6 -38 -5 -68 4 -35 10 -45 10 -55 0 -19 -21 -14
-26 21 -21 17 2 41 1 52 -4 18 -7 17 -8 -6 -8 -14 -1 -34 -8 -45 -16 -17 -13
-10 -14 71 -8 131 9 178 16 182 30 3 9 -4 10 -25 4 -22 -7 -34 -5 -46 7 -10
11 -16 12 -16 4 0 -7 -11 -12 -24 -12 -14 0 -28 -4 -31 -10 -3 -5 -10 -10 -16
-10 -5 0 -9 5 -9 10 0 6 7 10 15 10 8 0 24 9 35 20 11 11 29 20 41 20 11 0 17
5 14 10 -8 13 -95 13 -95 1 0 -5 -14 -4 -30 2 -28 11 -29 12 -10 19 12 4 122
11 246 14 231 7 290 24 85 24 -63 0 -111 3 -108 6 8 8 34 10 145 12 109 2 100
22 -11 22 -99 0 -94 18 6 21 37 1 66 4 64 6 -9 9 -59 13 -164 15 -119 1 -148
17 -35 19 37 1 81 5 97 9 25 6 20 8 -30 10 -33 1 -92 4 -130 6 -69 4 -71 4
-102 -28z"/>
<path d="M15937 2883 c-45 -7 -26 -27 39 -40 39 -8 142 -12 307 -10 246 2 248
2 232 22 -12 16 -14 17 -9 3 8 -22 -9 -23 -26 -3 -7 9 -20 13 -28 10 -8 -3
-41 -8 -73 -11 -46 -4 -63 -2 -75 10 -8 9 -20 16 -27 16 -6 0 -2 -6 9 -14 17
-13 12 -14 -46 -12 -36 1 -70 5 -76 8 -6 4 -23 5 -39 2 -22 -4 -26 -2 -22 11
5 13 -5 15 -66 14 -40 -1 -85 -4 -100 -6z"/>
<path d="M12499 2866 c-3 -3 -46 -6 -97 -8 -51 -2 -92 -6 -92 -10 0 -7 32 -12
53 -9 4 0 7 -4 7 -10 0 -9 63 -10 243 -5 278 7 341 14 328 35 -6 10 -17 11
-37 6 -37 -11 -249 -12 -335 -2 -36 4 -68 5 -70 3z"/>
</g>
</svg>
