<?xml version="1.0" standalone="no"?>
<!DOCTYPE svg PUBLIC "-//W3C//DTD SVG 20010904//EN"
 "http://www.w3.org/TR/2001/REC-SVG-20010904/DTD/svg10.dtd">
<svg version="1.0" xmlns="http://www.w3.org/2000/svg"
 width="1928.000000pt" height="1074.000000pt" viewBox="0 0 1928.000000 1074.000000"
 preserveAspectRatio="xMidYMid meet">
<metadata>
Created by potrace 1.16, written by Peter Selinger 2001-2019
</metadata>
<g transform="translate(0.000000,1074.000000) scale(0.100000,-0.100000)"
fill="#000000" stroke="none">
<path d="M14550 8025 c0 -4 11 -23 25 -41 33 -43 32 -52 -7 -57 -31 -4 -31 -4
6 -5 36 -2 38 -3 33 -29 -9 -48 -18 -1062 -20 -2213 -1 -608 -5 -1110 -10
-1117 -4 -6 -4 -14 1 -17 4 -2 9 -69 11 -147 2 -109 -1 -144 -11 -150 -8 -5
-8 -9 -2 -9 15 0 18 -128 3 -146 -8 -10 -8 -18 -1 -27 7 -8 11 -67 11 -153 0
-76 0 -278 1 -448 2 -247 -1 -310 -11 -317 -10 -6 -5 -16 21 -39 28 -25 32
-33 20 -40 -8 -5 -22 -10 -30 -11 -8 0 -3 -6 11 -12 14 -7 24 -18 22 -24 -3
-7 -1 -13 4 -13 19 0 114 -94 109 -107 -4 -8 3 -13 17 -13 17 0 30 -12 48 -42
38 -67 47 -99 48 -160 1 -32 5 -58 10 -58 5 0 9 20 9 45 0 50 19 118 31 110 5
-2 72 -5 150 -6 77 0 141 -5 141 -10 0 -9 344 -2 370 8 16 6 163 12 345 13 77
0 106 3 95 10 -8 6 -33 10 -55 9 -66 -2 -75 0 -92 21 -21 24 -33 26 -33 5 0
-8 -9 -15 -20 -15 -11 0 -20 5 -20 10 0 6 5 10 10 10 6 0 10 32 10 76 l0 77
63 -6 c34 -3 118 -11 187 -17 73 -7 138 -8 158 -3 25 6 13 8 -56 9 -48 1 -107
7 -132 14 -25 7 -83 13 -130 14 -81 1 -85 2 -88 24 -3 21 -1 23 30 17 19 -4
66 -7 106 -8 61 -2 70 -4 55 -14 -9 -7 -15 -13 -12 -14 2 0 67 -2 144 -5 248
-7 330 -12 350 -20 19 -7 19 -7 2 13 -34 39 2 36 46 -4 23 -21 75 -67 115
-103 39 -36 72 -68 72 -72 0 -5 -27 -8 -60 -8 -33 0 -60 -4 -60 -10 0 -12 5
-13 90 -14 l64 -1 37 -76 c21 -43 42 -80 48 -84 13 -7 2 24 -29 84 -24 48 -25
61 -5 61 8 0 33 -25 56 -55 23 -30 46 -55 51 -55 11 0 -23 50 -47 70 -34 29
-13 31 178 23 105 -4 218 -7 250 -6 l57 2 0 -59 c0 -80 18 -77 22 3 l3 62 37
-3 c23 -2 43 2 52 11 9 9 40 15 85 16 l71 2 1 -68 c1 -37 1 -75 0 -85 -1 -9 3
-19 9 -23 7 -4 10 24 10 84 l0 91 38 2 c20 0 51 1 69 2 38 1 56 15 22 17 -13
1 -33 3 -44 4 -11 1 -33 2 -48 3 l-29 2 7 70 c11 119 11 1265 0 1281 -13 18
-11 200 3 261 15 61 22 738 10 973 -9 196 -19 883 -15 1060 1 61 1 345 -1 632
l-2 523 30 -6 c17 -4 30 -2 30 4 0 5 -13 12 -30 16 -17 3 -30 12 -30 20 0 8
-10 18 -21 21 -12 4 -62 44 -113 90 -153 138 -249 212 -254 196 -5 -16 18 -52
56 -85 20 -17 43 -38 51 -47 9 -9 36 -30 61 -46 25 -17 65 -52 89 -77 25 -25
48 -41 51 -36 4 6 14 1 26 -11 11 -13 13 -19 4 -14 -8 5 -42 11 -75 13 -109 7
-527 7 -707 -1 l-176 -8 -41 51 c-22 28 -78 85 -123 127 -46 41 -84 78 -86 82
-1 3 170 5 380 3 277 -3 394 0 425 9 24 6 43 15 43 19 0 10 -184 21 -340 21
-151 -1 -543 -20 -549 -27 -3 -3 -5 -24 -6 -47 -1 -23 -6 -98 -11 -167 -5 -69
-8 -231 -6 -360 7 -511 7 -910 0 -910 -3 0 -9 6 -12 13 -3 6 -4 -17 -2 -52 4
-75 -4 -67 -40 44 -15 44 -50 134 -79 200 -29 66 -64 156 -78 200 -33 106 -64
186 -124 325 -28 63 -56 133 -63 155 -7 22 -23 61 -36 87 -13 26 -24 52 -24
59 0 6 -16 42 -35 81 l-34 70 26 -7 c23 -5 25 -4 14 9 -8 9 -21 16 -30 16 -9
0 -32 21 -51 46 -19 25 -48 61 -63 79 -16 19 -26 39 -22 45 3 5 1 10 -6 10
-13 0 -88 80 -89 94 0 14 -52 66 -64 66 -6 0 -5 -5 2 -12 7 -7 12 -19 13 -27
1 -39 198 -291 227 -291 6 0 12 -4 12 -8 0 -11 -708 -3 -743 8 -17 6 -26 6
-22 0 4 -6 -19 -10 -57 -10 l-64 0 -36 48 c-20 26 -47 65 -60 88 -25 44 -66
95 -85 107 -7 5 4 -18 25 -50 37 -55 56 -93 48 -93 -2 0 -15 19 -29 43 -14 23
-41 58 -61 76 -20 19 -36 41 -36 49 0 12 3 12 15 2 10 -8 19 -10 25 -4 6 6 58
6 127 2 220 -13 712 -14 702 -2 -13 16 -153 23 -553 30 l-328 5 -35 42 c-45
53 -43 52 -43 42z m2058 -429 c2 -11 4 -30 4 -41 2 -28 -13 -229 -17 -234 -11
-10 -25 15 -25 44 0 19 -4 36 -9 39 -5 3 -8 -13 -7 -37 1 -34 -2 -42 -16 -41
-11 1 -18 -5 -18 -17 0 -11 6 -18 13 -17 9 2 12 -20 12 -85 0 -115 19 -109 23
7 2 63 6 86 15 83 9 -3 13 -54 14 -189 2 -184 2 -186 -20 -190 -21 -4 -22 -2
-18 76 2 45 0 78 -3 75 -4 -4 -7 -36 -8 -73 0 -36 -4 -66 -8 -66 -4 0 -8 -47
-9 -105 -2 -100 -1 -105 19 -105 19 0 20 6 20 91 0 68 3 90 13 86 9 -3 12 -51
12 -195 0 -168 -5 -216 -19 -201 -3 2 -7 42 -11 89 -3 46 -8 86 -11 89 -2 2
-5 -30 -5 -72 -1 -43 -3 -81 -4 -87 -1 -5 -3 -13 -4 -17 -1 -5 -6 -1 -11 7 -8
12 -10 11 -10 -7 0 -24 -14 -31 -25 -13 -3 6 -1 10 4 10 6 0 11 9 11 21 0 11
5 17 10 14 6 -3 10 3 10 13 0 11 -7 22 -15 26 -8 3 -15 16 -15 28 0 32 -11 68
-20 68 -9 0 -7 -59 4 -125 5 -30 4 -36 -3 -24 -6 9 -12 27 -14 39 -2 12 -8 25
-13 28 -9 7 -17 120 -18 263 -1 45 -5 66 -13 66 -7 0 -14 -7 -15 -16 -1 -9 -2
-23 -4 -31 -1 -8 -2 -23 -3 -32 -1 -10 -4 -18 -8 -18 -12 0 -17 64 -13 160 4
87 -9 811 -15 820 -3 6 -3 19 0 30 6 18 23 5 123 -96 64 -64 118 -126 120
-138z m-1753 -3 c-5 -10 -7 -22 -6 -27 2 -11 2 -235 -5 -2066 -5 -1525 -6
-1599 -24 -1610 -9 -6 -9 -13 -1 -28 19 -35 14 -46 -14 -28 -13 9 -26 16 -29
16 -3 0 -3 -35 0 -77 2 -43 0 -109 -4 -146 -5 -38 -5 -70 0 -73 5 -3 6 -13 3
-23 -6 -21 -7 -88 -2 -221 3 -74 1 -96 -5 -75 -5 17 -11 59 -12 95 -11 225
-18 355 -22 359 -2 2 1 12 7 23 7 14 7 23 -1 33 -8 10 -8 15 1 20 7 5 8 10 1
14 -18 11 -25 73 -10 82 10 7 10 9 1 9 -7 0 -13 5 -13 11 0 5 5 7 10 4 6 -3
10 1 10 9 0 9 -6 16 -12 16 -10 0 -10 2 -1 8 10 6 9 17 0 50 -7 24 -15 41 -18
38 -6 -6 -3 -229 5 -411 4 -76 4 -136 0 -133 -19 19 -45 708 -29 759 4 11 1
27 -7 36 -11 13 -11 17 0 21 10 3 8 8 -5 19 -10 8 -12 12 -5 8 12 -6 17 11 14
48 -1 10 2 16 7 13 4 -3 7 6 5 19 -1 17 3 25 13 25 14 0 13 3 -2 20 -10 11
-15 20 -11 20 4 0 0 7 -8 16 -9 8 -14 20 -11 25 4 5 2 9 -4 9 -10 0 -10 6 4
45 11 30 13 85 4 85 -5 0 -7 14 -5 31 5 41 -8 85 -23 81 -7 -1 -9 2 -6 8 4 6
12 9 19 7 7 -3 11 8 12 27 2 42 13 106 21 119 4 6 1 7 -7 2 -10 -6 -12 -4 -7
7 4 12 1 14 -14 11 -24 -7 -24 -19 -1 -28 16 -7 15 -8 -3 -15 -11 -5 -14 -9
-7 -9 6 -1 12 -6 12 -12 0 -8 -4 -8 -14 1 -16 13 -25 154 -11 168 4 5 9 -41 8
-75 -1 -7 4 -13 9 -13 12 0 0 77 -17 105 -9 14 -12 71 -11 192 0 95 -1 173 -4
173 -9 0 -4 1342 4 1380 11 47 13 802 3 913 -10 109 0 112 62 22 24 -36 47
-65 51 -65 4 0 13 -12 20 -27 10 -20 14 -82 16 -208 3 -232 3 -225 12 -225 4
0 8 95 9 210 l1 210 -56 73 c-30 39 -67 86 -81 102 -14 17 23 -18 83 -77 88
-86 107 -110 101 -125z m348 17 c8 -7 -113 -20 -206 -22 -26 0 -50 -5 -54 -11
-6 -10 136 -5 332 12 104 9 428 25 469 23 10 -1 22 -5 26 -9 9 -10 30 -96 25
-101 -2 -2 -18 16 -36 42 -44 62 -50 49 -9 -16 59 -93 107 -190 165 -333 32
-77 61 -144 65 -150 4 -5 20 -44 35 -85 59 -160 69 -187 96 -247 16 -34 31
-75 35 -90 4 -15 11 -34 17 -40 5 -7 7 -13 3 -13 -4 0 3 -19 15 -41 11 -23 48
-123 81 -223 33 -100 80 -231 104 -293 24 -62 44 -118 44 -124 0 -27 77 -230
131 -346 16 -35 29 -65 29 -68 0 -4 14 -34 30 -69 32 -65 84 -135 94 -125 3 3
-6 39 -20 80 -25 72 -26 82 -30 394 -2 176 -6 337 -7 358 -2 20 0 37 5 37 4 0
3 12 -2 26 -14 36 -13 44 8 45 15 1 15 2 -1 6 -13 3 -16 10 -12 21 11 28 15
185 19 757 3 303 5 560 5 573 l1 22 163 -2 c89 -1 235 1 323 6 l161 8 6 -33
c6 -39 12 -1449 10 -2309 -3 -1382 -2 -2033 2 -2040 2 -3 6 -102 9 -219 l5
-213 -37 5 c-20 4 -145 7 -277 8 -132 1 -246 4 -252 6 -15 6 -18 53 -3 53 18
0 10 16 -14 30 -22 11 -44 56 -33 66 2 2 23 -3 47 -11 44 -16 57 -14 46 4 -4
6 -13 8 -21 4 -8 -3 -15 0 -15 6 0 6 -7 8 -15 5 -8 -4 -15 -1 -15 5 0 6 -7 8
-16 4 -10 -4 -17 1 -21 16 -3 11 -9 19 -13 16 -7 -4 -18 19 -26 55 -3 15 -63
183 -83 233 -6 16 -11 33 -11 38 0 5 -11 27 -25 49 -14 22 -25 46 -25 53 0 7
-4 17 -8 22 -5 6 -26 60 -46 120 -20 61 -41 119 -46 130 -5 11 -18 47 -28 80
-26 76 -77 205 -108 269 -13 27 -21 53 -18 57 3 5 -2 9 -10 9 -9 0 -16 4 -16
10 0 5 7 7 15 4 13 -5 13 -1 -1 32 -9 22 -21 45 -26 52 -6 7 -8 15 -4 19 3 3
-1 15 -11 25 -9 10 -13 18 -9 18 3 0 -1 15 -11 33 -10 17 -18 41 -20 52 -1 11
-18 56 -38 100 -52 116 -51 112 -85 210 -18 50 -38 99 -45 110 -6 11 -15 34
-19 50 -7 28 -22 67 -133 354 -24 63 -41 121 -39 128 3 7 1 13 -5 13 -5 0 -9
6 -8 13 1 6 0 23 -1 37 -2 18 -4 20 -7 8 -2 -10 -8 -18 -12 -18 -12 0 -31 23
-31 39 0 9 -12 21 -25 28 l-26 11 23 -36 c12 -20 26 -38 30 -40 4 -2 8 -11 8
-19 0 -13 -3 -13 -15 -3 -23 19 -29 5 -10 -24 14 -22 16 -42 11 -128 -4 -57
-7 -107 -7 -113 0 -5 0 -314 1 -685 1 -861 -4 -1402 -14 -1418 -4 -6 -3 -20 2
-29 6 -10 12 -44 13 -77 l4 -58 -180 1 c-99 0 -293 1 -431 1 l-251 0 -7 43
c-4 23 -6 587 -4 1252 2 666 1 1631 -1 2145 -2 515 0 1015 4 1112 7 166 8 177
29 187 13 7 14 10 3 6 -19 -5 -33 16 -24 39 5 11 33 13 154 9 81 -3 152 -9
156 -13z m2354 -1085 c-4 -8 -2 -17 4 -21 6 -3 8 -11 6 -17 -2 -7 2 -18 10
-25 16 -16 18 -168 3 -177 -8 -5 -7 -11 1 -21 7 -9 8 -14 1 -14 -6 0 -14 -10
-18 -22 -6 -20 -7 -20 -16 -3 -7 12 -7 20 2 25 8 5 5 9 -10 13 -24 6 -35 -12
-27 -43 3 -11 1 -20 -4 -20 -16 0 -10 70 6 76 12 5 15 26 15 105 0 70 3 99 12
99 9 0 9 3 1 11 -12 12 -6 49 9 49 6 0 8 -7 5 -15z m-42 -128 c-2 -84 -5 -98
-29 -133 -17 -23 -25 -30 -21 -17 3 12 1 24 -5 28 -10 6 -14 -7 -11 -32 1 -7
-3 -13 -10 -13 -7 0 -9 10 -7 25 4 17 1 25 -8 25 -19 0 -26 34 -22 115 3 62 5
70 23 70 18 0 20 -7 20 -88 0 -106 16 -111 20 -5 2 56 8 83 21 101 11 14 22
23 25 21 4 -2 6 -46 4 -97z m0 -280 c-4 -29 -5 -74 -4 -102 8 -152 1 -199 -26
-189 -19 8 -20 24 0 24 9 0 12 6 9 15 -5 12 -10 13 -20 4 -12 -10 -14 1 -14
62 0 41 4 91 9 112 5 21 5 37 0 37 -15 0 0 74 17 87 27 20 35 5 29 -50z m-35
-1218 c0 -4 7 -6 15 -3 8 4 15 1 15 -6 0 -7 8 -19 18 -27 16 -14 16 -14 0 -9
-16 5 -18 -2 -19 -47 0 -29 -1 -80 -2 -114 -1 -33 2 -59 6 -56 5 3 11 -4 14
-16 3 -12 9 -21 13 -21 4 0 7 -12 6 -26 -1 -25 -1 -25 -15 -5 -7 12 -22 21
-32 21 -23 0 -25 -16 -2 -28 13 -8 12 -9 -8 -9 -25 0 -25 0 -24 86 4 196 4
201 20 201 17 0 20 16 5 25 -5 3 -10 1 -10 -4 0 -27 -18 -7 -22 23 -3 24 0 32
9 29 7 -3 13 -9 13 -14z m-1590 -424 c32 -77 62 -153 66 -170 4 -16 15 -46 24
-65 20 -39 123 -317 147 -395 8 -27 38 -106 66 -175 28 -69 51 -139 52 -156 1
-17 16 -60 32 -95 39 -82 106 -260 100 -266 -3 -2 -23 15 -46 39 -22 24 -41
38 -41 32 0 -5 13 -23 30 -39 16 -15 27 -32 24 -37 -3 -4 9 -11 26 -14 17 -4
36 -16 42 -28 6 -11 22 -33 35 -47 28 -31 14 -52 -16 -25 -20 18 -229 35 -441
36 -63 0 -132 3 -152 6 l-37 6 -1 632 c-1 347 -4 647 -5 666 -4 33 -7 313 -5
335 1 6 10 -15 21 -45 12 -30 47 -118 79 -195z m276 -285 c17 0 19 -17 2 -22
-8 -3 -4 -9 9 -17 23 -12 64 -90 77 -146 4 -16 25 -67 47 -113 22 -45 37 -87
34 -92 -3 -6 -1 -10 5 -10 7 0 10 -7 6 -15 -3 -8 -1 -15 4 -15 6 0 9 -3 9 -7
-3 -20 2 -34 11 -28 6 3 7 -1 4 -9 -3 -9 -2 -16 3 -16 13 0 47 -105 40 -124
-3 -8 1 -20 9 -26 8 -7 14 -24 14 -38 l0 -25 -20 26 c-11 14 -20 30 -20 36 0
10 -12 39 -61 146 -10 22 -31 76 -47 120 -17 44 -48 124 -70 177 -22 53 -37
99 -34 103 4 3 2 9 -4 13 -10 7 -45 86 -43 100 0 4 3 1 6 -5 2 -7 11 -13 19
-13z m1327 -129 c-4 -17 -2 -22 8 -19 8 3 13 16 11 32 -2 20 2 26 15 25 10 0
13 -3 7 -5 -10 -4 -9 -50 2 -84 4 -12 7 -12 13 -1 18 29 31 -2 31 -74 0 -54
-4 -74 -14 -78 -25 -10 -41 23 -39 79 1 40 -2 54 -12 54 -10 0 -14 -21 -17
-81 -2 -44 1 -87 5 -95 9 -16 6 -17 -17 -8 -13 5 -16 24 -16 106 0 63 4 97 10
93 16 -10 12 12 -6 29 -8 9 -11 16 -6 16 5 0 8 24 6 53 l-3 52 13 -35 c8 -19
12 -46 9 -59z m-2842 -188 c1 -21 0 -42 -1 -48 -1 -5 -1 -55 0 -110 1 -55 2
-109 1 -120 -2 -141 1 -367 4 -390 3 -17 8 -46 11 -65 6 -34 6 -35 -14 -16
-12 10 -21 25 -21 34 -6 399 -7 695 -3 720 6 44 22 40 23 -5z"/>
<path d="M16747 7316 c-10 -11 -13 -38 -12 -113 2 -111 3 -112 92 -98 l44 6
-3 107 -3 107 -52 3 c-34 2 -56 -2 -66 -12z"/>
<path d="M16942 7322 c-9 -6 -12 -36 -10 -113 l3 -104 58 1 c32 1 60 4 64 7 7
7 6 197 -1 205 -10 9 -101 13 -114 4z"/>
<path d="M16747 6923 c-4 -3 -7 -55 -7 -114 0 -123 3 -127 86 -114 l44 6 0
103 c0 66 -4 106 -12 114 -13 13 -100 17 -111 5z"/>
<path d="M16937 6924 c-4 -4 -7 -56 -7 -115 0 -123 3 -127 86 -114 l45 6 -3
112 -3 112 -55 3 c-31 2 -59 0 -63 -4z"/>
<path d="M17132 6913 c-5 -10 -9 -61 -10 -114 l-1 -97 37 -4 c20 -3 51 0 67 5
l31 9 1 101 c2 70 -1 104 -10 109 -7 4 -33 8 -59 8 -35 0 -50 -5 -56 -17z"/>
<path d="M16738 6393 c-3 -60 -3 -111 -1 -115 2 -5 33 -8 69 -8 l64 0 0 115 0
115 -64 0 -64 0 -4 -107z"/>
<path d="M16948 6103 c-16 -4 -18 -18 -18 -113 l0 -109 43 -8 c23 -5 44 -5 45
-1 2 4 12 8 23 8 18 0 19 8 19 109 l0 109 -31 6 c-34 6 -54 6 -81 -1z"/>
<path d="M17133 6083 c-4 -10 -8 -60 -8 -112 l0 -94 30 -8 c17 -5 45 -4 66 3
l37 11 -2 106 -1 106 -58 3 c-48 2 -58 0 -64 -15z"/>
<path d="M16744 5686 c-3 -12 -4 -64 -2 -116 l3 -95 60 0 60 0 3 112 3 112
-43 5 c-64 8 -78 5 -84 -18z"/>
<path d="M16958 5703 l-28 -4 0 -109 0 -108 36 -6 c60 -12 91 0 97 37 5 33 2
176 -5 181 -7 7 -75 13 -100 9z m82 -118 l0 -95 -45 0 -45 0 0 88 c0 49 3 92
7 95 3 4 24 7 45 7 l38 0 0 -95z"/>
<path d="M17131 5692 c-5 -10 -11 -60 -13 -111 -2 -73 0 -94 12 -101 22 -14
110 -12 115 3 2 6 6 58 8 114 3 114 4 113 -68 113 -33 0 -47 -5 -54 -18z"/>
<path d="M16642 5283 c-1 -8 -19 -13 -46 -13 -54 0 -59 -13 -50 -135 l7 -85
44 0 c27 0 46 5 49 13 2 7 3 62 1 123 -1 60 -4 103 -5 97z"/>
<path d="M16760 5271 c-25 -7 -25 -8 -25 -116 l0 -110 68 -3 67 -3 0 114 c0
96 -3 116 -16 121 -19 7 -61 6 -94 -3z"/>
<path d="M16937 5274 c-4 -4 -7 -56 -7 -115 l0 -107 29 -7 c16 -3 46 -3 65 1
l37 6 -3 112 -3 111 -55 3 c-31 2 -59 0 -63 -4z"/>
<path d="M17148 5274 c-16 -5 -18 -19 -18 -115 0 -125 1 -126 76 -113 l47 9
-2 105 c-1 57 -4 106 -6 108 -6 7 -80 11 -97 6z"/>
<path d="M16740 4740 l0 -109 33 -6 c17 -3 43 -4 57 -1 14 2 28 5 33 5 4 1 7
51 7 111 l0 110 -65 0 -65 0 0 -110z m108 -8 l3 -93 -42 3 -42 3 -4 84 c-1 46
0 87 3 92 3 5 22 8 42 6 l37 -2 3 -93z"/>
<path d="M16945 4840 c-8 -13 -7 -201 0 -209 10 -9 74 -11 98 -2 24 9 25 11
23 113 l-1 103 -57 3 c-34 2 -59 -2 -63 -8z"/>
<path d="M17137 4844 c-4 -4 -7 -54 -7 -111 l0 -103 48 0 c26 0 52 4 58 8 7 4
13 48 15 107 l4 100 -55 3 c-31 2 -59 0 -63 -4z"/>
<path d="M16570 4441 c-12 -7 -15 -31 -14 -113 l1 -103 44 0 c78 1 78 1 78
119 l1 106 -48 0 c-26 0 -54 -5 -62 -9z"/>
<path d="M16756 4344 c-8 -120 -7 -124 59 -124 62 0 64 5 63 112 0 52 2 100 6
107 5 8 -12 11 -57 11 l-64 0 -7 -106z"/>
<path d="M16947 4443 c-4 -3 -7 -55 -7 -113 l0 -107 29 -6 c16 -3 45 -2 65 4
l36 10 0 109 0 110 -58 0 c-32 0 -62 -3 -65 -7z m91 -115 c1 -55 -1 -98 -6
-98 -5 0 -24 3 -41 6 l-31 7 0 87 c0 47 2 89 4 91 2 2 19 4 38 4 l33 0 3 -97z"/>
<path d="M17149 4348 c-1 -54 -2 -104 -3 -110 -1 -13 13 -13 79 -3 l30 5 -3
104 -3 105 -50 -1 -49 -1 -1 -99z"/>
<path d="M16568 3925 c-2 -59 0 -111 3 -117 3 -5 30 -8 60 -6 l54 5 -1 39 c-3
71 -17 154 -28 163 -6 5 -28 12 -48 16 l-37 7 -3 -107z"/>
<path d="M16968 4023 c-21 -5 -25 -28 -24 -133 l1 -85 51 -3 c33 -2 54 2 61
10 6 8 8 51 5 106 -4 88 -6 94 -29 103 -25 9 -36 10 -65 2z"/>
<path d="M16969 3642 c-13 -2 -17 -23 -23 -98 -3 -52 -4 -99 -1 -103 8 -14 78
-21 92 -10 7 6 18 9 25 6 10 -3 12 16 10 82 -4 126 -5 128 -50 127 -20 0 -45
-2 -53 -4z"/>
<path d="M16765 3632 c-6 -4 -10 -49 -10 -102 l0 -95 35 -8 c22 -6 46 -5 64 2
28 11 29 13 23 64 -6 47 -5 50 8 33 15 -19 15 -19 15 2 0 12 -4 22 -10 22 -5
0 -7 16 -5 35 4 27 0 37 -14 45 -23 12 -91 13 -106 2z"/>
<path d="M17147 3632 c-3 -4 -7 -48 -8 -97 -3 -88 -3 -90 20 -93 13 -2 39 -1
57 3 l34 6 0 94 0 95 -49 0 c-28 0 -52 -3 -54 -8z"/>
<path d="M4768 7968 c-3 -30 -5 -33 -33 -29 -79 12 -896 4 -875 -8 28 -16 630
-32 798 -21 54 3 77 -5 52 -20 -8 -4 -24 -15 -35 -24 -11 -9 -56 -44 -100 -77
-44 -33 -91 -71 -106 -85 -14 -13 -30 -24 -36 -24 -6 0 -21 -15 -34 -34 l-23
-35 -226 6 c-264 7 -327 22 -100 24 209 2 281 6 291 16 4 4 -101 6 -234 5
-187 -3 -246 -7 -261 -18 -24 -16 -56 -19 -56 -4 0 6 -30 10 -69 10 -78 0
-133 -9 -126 -20 5 -8 -84 -25 -91 -17 -2 2 16 17 40 33 117 77 315 215 326
229 27 32 -2 26 -67 -14 -37 -23 -143 -93 -234 -154 -92 -62 -175 -117 -185
-124 -17 -10 -16 -11 11 -10 29 2 30 0 36 -48 4 -27 7 -169 6 -315 0 -285 11
-853 19 -909 l4 -34 -102 5 -103 5 -41 41 c-23 23 -49 42 -58 42 -9 0 -28 -18
-42 -40 -15 -22 -32 -40 -39 -40 -7 0 -26 -3 -42 -6 l-29 -6 -1 596 c-1 331 2
596 7 596 4 0 11 -6 13 -12 10 -24 -3 344 -14 399 -1 4 2 22 6 40 5 24 14 33
34 37 34 6 -708 -3 -824 -10 -98 -6 -144 -22 -190 -64 -43 -40 -189 -124 -193
-111 -6 17 -22 13 -22 -5 0 -19 -19 -36 -73 -65 -37 -20 -39 -20 -53 -2 -7 10
-14 22 -14 26 0 5 -4 6 -9 3 -5 -3 -7 -14 -4 -25 3 -12 -3 -24 -18 -35 -18
-13 -20 -16 -7 -16 14 0 17 -10 17 -52 0 -55 3 -169 21 -658 5 -157 8 -303 6
-325 -3 -22 -7 -119 -10 -215 -4 -96 -9 -204 -13 -240 -4 -36 -5 -69 -3 -75 1
-5 5 -111 7 -235 2 -124 9 -308 14 -410 9 -156 7 -533 -4 -1135 -1 -49 2 -121
6 -160 4 -38 12 -106 17 -150 12 -109 36 -224 68 -320 29 -87 112 -258 167
-338 18 -29 32 -54 29 -56 -2 -3 -41 31 -86 75 -44 43 -73 68 -64 54 38 -58
368 -380 419 -409 77 -44 85 -56 91 -139 5 -68 4 -73 -17 -82 -17 -7 310 -17
402 -12 8 0 44 -6 80 -13 79 -17 746 -21 736 -5 -4 6 -34 11 -68 11 -56 1
-130 13 -117 19 3 1 41 8 84 14 64 10 97 10 165 -1 159 -24 310 -28 375 -9 42
12 62 14 69 7 16 -16 34 -13 56 6 10 10 32 29 50 43 17 14 29 30 27 37 -3 6 2
17 11 24 13 11 17 10 28 -4 11 -15 36 -17 238 -17 135 1 229 5 232 10 7 12 -3
13 -128 11 -98 -2 -157 4 -157 17 0 4 39 6 87 4 66 -2 84 0 70 8 -9 6 -21 9
-26 5 -12 -7 -101 17 -101 27 0 4 10 8 22 8 16 0 19 3 11 11 -7 7 -23 9 -38 5
-21 -5 -24 -10 -15 -21 9 -10 7 -14 -7 -17 -25 -5 -63 3 -63 13 0 5 12 9 26 9
14 0 23 4 20 9 -9 14 -62 6 -92 -14 -21 -14 -33 -15 -58 -7 l-31 10 37 1 c44
1 63 21 20 21 -54 0 -91 -11 -85 -26 3 -8 0 -14 -6 -14 -6 0 -11 8 -12 18 0
10 -3 12 -6 5 -2 -7 -9 -13 -14 -13 -6 0 -7 5 -4 10 4 6 -4 20 -17 31 l-23 20
24 -7 c13 -3 112 -5 220 -4 408 5 507 5 556 -3 47 -7 48 -7 25 7 -17 10 -69
16 -168 19 -78 3 -142 9 -142 13 0 8 175 8 242 0 14 -2 32 1 40 5 8 5 -10 9
-47 10 -33 1 -73 4 -90 5 -80 9 -283 5 -308 -5 -35 -14 -47 -14 -47 -1 0 6 10
10 23 11 21 0 21 1 -3 10 -14 6 -51 7 -85 4 -33 -4 -57 -4 -52 1 4 4 24 9 45
11 20 1 49 5 64 8 15 2 29 1 32 -3 3 -5 82 -8 176 -7 151 0 173 2 181 17 5 10
16 15 24 12 8 -4 15 -1 15 4 0 6 -15 13 -32 16 -40 7 -257 18 -318 17 -25 -1
-58 -2 -75 -2 -16 0 -52 1 -80 2 -27 2 -78 0 -112 -5 -35 -4 -63 -4 -63 -1 0
4 78 86 174 183 190 194 269 280 246 268 -8 -4 -3 4 13 18 28 26 36 43 15 30
-10 -6 -10 -5 -2 7 71 88 167 370 225 654 28 137 41 249 31 260 -3 2 -6 35 -8
72 -1 38 -5 142 -8 233 -4 91 -9 235 -12 319 -3 85 -8 159 -10 163 -3 5 -1 15
5 22 8 10 9 27 2 54 -5 23 -6 43 -3 46 3 3 4 167 3 363 -1 197 -2 599 -1 893
2 294 3 582 3 640 0 58 -1 186 -3 285 -1 99 -2 191 -1 205 1 29 47 59 89 61
l27 1 -30 9 c-18 5 -33 5 -39 -1 -17 -17 -56 -12 -54 8 3 40 -3 82 -11 82 -6
0 -11 -15 -13 -32z m-1778 -60 c0 -7 -41 -40 -90 -72 -49 -33 -98 -68 -107
-79 -31 -35 -135 -107 -154 -107 -10 0 -19 -7 -19 -15 0 -10 -10 -15 -27 -16
-16 0 -124 -2 -242 -5 -136 -4 -211 -2 -207 4 8 13 -247 27 -314 18 -28 -4
-50 -3 -50 1 1 9 149 107 230 152 31 17 69 44 85 61 l29 30 235 0 c241 0 574
20 589 35 11 10 42 5 42 -7z m-22 -348 c-12 -342 -12 -317 -4 -760 4 -195 4
-398 -1 -450 -8 -92 -9 -95 -33 -96 -14 -1 -32 -4 -40 -7 -29 -11 -85 -26
-111 -31 -22 -4 -26 -1 -22 15 3 10 0 19 -6 19 -6 0 -11 17 -11 38 0 64 -13
172 -20 172 -4 0 -5 -47 -2 -105 3 -74 1 -105 -7 -105 -6 0 -11 12 -12 28 -2
55 2 238 6 284 2 26 -1 50 -6 54 -5 3 -6 11 -2 17 4 6 8 77 10 157 1 80 4 193
5 253 2 59 0 107 -3 107 -6 0 -1 127 6 148 2 6 0 12 -5 12 -5 0 -5 14 1 33 5
17 12 84 15 147 l6 115 36 32 c21 18 41 32 45 33 5 0 6 -22 2 -50 -4 -30 -3
-50 3 -50 13 0 23 83 12 94 -6 6 16 34 55 73 36 35 65 69 65 76 0 12 21 39 26
34 1 -1 -2 -130 -8 -287z m1785 -973 c-1 -683 -3 -1250 -4 -1259 -1 -10 -7
-18 -13 -18 -6 0 -5 -4 2 -9 9 -5 14 -42 17 -117 14 -408 18 -500 22 -507 2
-4 -2 -9 -9 -12 -8 -3 -15 -22 -15 -43 -1 -20 -5 -55 -9 -77 -3 -22 -7 -54 -8
-72 -2 -58 -16 -47 -16 13 0 32 -5 66 -10 74 -6 10 -9 -51 -9 -175 0 -174 -7
-310 -17 -327 -2 -4 0 -9 6 -13 5 -3 10 -11 10 -16 0 -6 -4 -8 -9 -5 -5 3 -9
-4 -9 -17 0 -39 -43 -181 -68 -222 -17 -28 -23 -33 -21 -18 2 12 6 26 10 29
10 11 8 26 -2 20 -5 -4 -4 7 2 24 6 16 15 30 19 30 4 0 8 10 8 23 0 13 3 27 7
30 11 12 13 61 2 68 -10 6 8 59 20 59 3 0 7 14 8 30 1 17 -1 30 -5 30 -13 0
-39 -54 -46 -95 -9 -56 -27 -98 -47 -112 -11 -8 -15 -21 -12 -38 4 -16 1 -25
-7 -25 -7 0 -10 6 -7 14 3 8 1 17 -6 19 -8 3 -4 15 12 37 13 18 19 30 13 27
-5 -4 -12 2 -15 13 -3 11 -1 23 4 26 6 3 7 14 4 24 -4 12 4 26 27 45 18 15 27
24 21 20 -8 -4 -13 0 -13 9 0 9 5 16 10 16 6 0 10 7 10 15 0 8 5 15 10 15 6 0
10 9 10 21 0 13 4 18 13 13 9 -6 9 -4 -1 8 -9 11 -10 18 -2 23 6 4 8 16 4 28
-6 19 -5 20 8 9 13 -10 16 -9 21 9 4 15 2 19 -9 15 -7 -3 -13 -2 -13 2 3 19
-2 25 -11 12 -6 -9 -10 -10 -10 -3 0 6 7 18 15 27 18 17 19 26 4 26 -29 0 -37
27 -32 106 3 43 1 75 -3 71 -5 -4 -9 -20 -10 -35 -1 -15 -4 -51 -6 -79 -3 -29
-1 -54 4 -55 11 -4 18 -128 6 -128 -4 0 -8 7 -8 15 0 8 -4 15 -10 15 -6 0 -6
-9 0 -24 6 -16 5 -26 -1 -28 -6 -2 -11 -20 -12 -41 -1 -26 -4 -33 -9 -22 -5 8
-8 39 -7 67 2 29 -1 75 -5 102 -6 32 -5 47 1 43 6 -4 9 5 7 21 -2 15 -1 21 2
15 3 -7 9 -13 13 -13 5 0 0 26 -10 57 -21 62 -18 91 9 89 9 0 18 6 18 14 1 8
2 20 3 27 0 7 7 10 15 7 11 -4 13 5 11 43 -2 26 -4 75 -5 108 -2 53 -3 56 -9
25 -4 -20 -11 -42 -16 -49 -6 -10 -4 -12 5 -6 10 6 12 1 7 -25 -4 -18 -7 -41
-7 -51 0 -11 -4 -19 -8 -19 -5 0 -8 10 -7 23 1 12 -3 25 -9 30 -8 5 -6 10 4
17 14 9 7 15 -15 10 -5 -1 -5 4 2 11 6 6 9 18 6 27 -4 9 -2 13 4 9 7 -4 9 16
5 61 -2 37 -1 64 3 60 8 -8 45 27 45 43 0 6 7 8 16 5 10 -4 13 -2 8 6 -4 6 -8
28 -8 47 -1 20 -10 50 -22 66 -11 17 -28 71 -38 120 -10 50 -23 93 -28 96 -7
4 -7 9 0 13 6 4 9 35 7 77 -3 57 -8 76 -26 95 -17 18 -25 21 -31 12 -9 -15 -9
-17 -14 51 -2 30 -10 58 -16 63 -10 6 -10 8 0 8 10 0 11 13 6 53 -4 28 -10 54
-15 57 -4 3 -10 82 -13 175 -4 94 -9 220 -12 280 -6 119 -16 607 -15 745 0 47
0 225 1 396 l1 312 84 63 c50 39 84 71 85 82 0 15 -11 9 -52 -25 -72 -59 -119
-91 -125 -85 -8 9 180 142 196 139 8 -2 12 2 9 10 -4 11 24 48 37 48 3 0 10 0
15 0 6 0 10 6 10 13 0 8 56 57 65 57 0 0 -1 -559 -2 -1243z m-2624 1017 c1 -1
-14 -5 -35 -9 -121 -19 -80 -23 204 -23 167 0 305 -2 307 -4 3 -3 9 -1281 6
-1380 -1 -34 -6 -39 -60 -72 -57 -35 -59 -36 -94 -21 -26 11 -43 12 -62 5 -32
-12 -67 -68 -62 -98 5 -27 -5 -40 -96 -120 -62 -56 -71 -60 -111 -59 -66 3
-80 -14 -72 -88 6 -60 6 -60 -52 -155 -50 -81 -63 -95 -91 -101 -43 -9 -60
-27 -68 -73 -4 -29 -1 -44 15 -66 l21 -28 -31 -124 c-28 -110 -35 -125 -62
-143 -35 -24 -50 -53 -18 -36 33 18 42 13 42 -24 0 -33 -1 -34 -27 -24 -19 7
-28 6 -33 -1 -4 -7 -10 105 -15 247 -4 142 -8 278 -10 303 -14 187 -18 356
-15 615 6 398 6 781 0 1164 l-5 315 25 7 c24 6 391 0 399 -7z m1833 -26 c10
-4 100 -10 200 -12 101 -2 191 -7 201 -11 16 -7 17 -35 18 -394 0 -212 2 -420
4 -461 2 -41 6 -271 9 -510 4 -239 9 -465 12 -502 4 -38 4 -68 0 -68 -3 0 -12
14 -21 30 -12 23 -22 30 -44 30 -24 0 -38 11 -79 68 -39 52 -49 73 -45 93 5
26 -20 87 -41 101 -6 4 -29 8 -51 8 -32 1 -54 11 -107 50 -49 36 -65 54 -62
67 8 29 -37 87 -70 91 -16 2 -33 -1 -39 -7 -17 -17 -34 -14 -137 26 -106 40
-120 49 -120 71 0 20 -39 62 -57 62 -21 0 -15 -17 14 -44 33 -31 28 -37 -14
-20 l-33 14 -2 263 c0 144 -3 273 -4 287 -2 14 -6 124 -9 245 -7 240 -21 477
-31 512 -6 22 -6 22 152 26 189 4 332 -2 356 -15z m-586 -1358 c53 0 74 -26
79 -97 l5 -63 -48 6 c-26 3 -63 10 -82 14 -38 9 -143 7 -257 -5 -91 -9 -93 -1
-17 70 41 38 62 51 77 47 12 -3 23 1 29 12 6 11 14 14 25 7 9 -4 25 -6 35 -3
15 3 34 -10 74 -51 l53 -57 36 21 c43 26 41 33 -4 16 -32 -12 -34 -11 -67 28
-63 71 -62 68 -13 61 24 -4 58 -6 75 -6z m-402 -45 c-1 -5 -5 -22 -8 -37 -8
-35 -32 -36 -40 -3 -4 14 -11 23 -17 20 -7 -5 -6 -11 2 -21 6 -8 8 -25 5 -39
-7 -28 5 -33 24 -10 17 21 30 19 30 -4 0 -15 -11 -21 -52 -29 -29 -5 -96 -25
-149 -45 l-96 -34 0 24 c0 16 2 21 7 13 6 -9 11 -7 19 9 10 17 9 21 -4 21 -8
0 -15 5 -15 10 0 14 23 12 39 -2 11 -11 13 -10 7 0 -9 16 3 54 15 46 5 -3 7
-9 5 -13 -3 -4 0 -13 5 -21 9 -13 10 -13 8 0 -3 30 1 40 17 40 23 0 45 -26 38
-47 -4 -11 -3 -14 3 -7 4 6 18 10 30 9 19 -1 18 3 -15 42 -20 24 -40 43 -44
43 -4 0 -8 4 -8 9 0 16 117 50 129 38 8 -8 11 -8 11 1 0 7 10 16 23 21 16 6
24 4 28 -8 3 -9 5 -20 3 -26z m687 -35 c69 -21 123 -55 114 -71 -4 -5 -1 -9 4
-9 6 0 11 4 11 10 0 6 9 5 24 -1 16 -8 22 -17 19 -30 -6 -21 13 -27 20 -6 3 8
8 9 16 1 8 -7 1 -22 -28 -54 -25 -28 -37 -49 -33 -59 5 -13 7 -12 10 4 5 29
31 46 60 38 21 -5 23 -3 17 16 -5 17 -2 21 17 21 29 -1 130 -69 143 -98 5 -11
17 -23 27 -25 19 -5 26 -57 8 -57 -8 0 -50 -82 -50 -98 0 -9 47 45 53 62 15
39 69 11 132 -69 56 -72 58 -75 47 -92 -6 -9 -16 -10 -38 -3 -16 5 -60 17 -97
27 -63 17 -76 25 -159 103 -50 47 -101 92 -114 100 -35 21 -29 30 12 18 20 -5
58 -7 85 -3 41 6 49 4 49 -9 0 -9 5 -16 10 -16 6 0 9 6 8 13 -2 7 6 11 22 10
22 -2 23 -2 7 8 -11 6 -67 12 -125 13 l-107 2 -95 50 c-52 27 -122 62 -155 76
l-60 27 -3 67 -3 67 43 -7 c24 -4 73 -16 109 -26z m-1031 -99 c-7 -33 -21 -69
-31 -80 -11 -11 -19 -25 -19 -31 0 -5 -4 -10 -8 -10 -5 0 -55 -41 -112 -91
-58 -50 -106 -85 -108 -79 -9 27 10 119 30 140 18 19 29 22 69 18 35 -4 49 -2
49 8 0 7 9 10 23 7 21 -4 21 -4 3 11 -10 8 -15 19 -12 25 4 5 3 12 -2 15 -4 2
-7 17 -7 33 1 24 11 33 66 64 35 19 66 34 68 32 2 -1 -2 -29 -9 -62z m730 -13
c36 -6 71 -16 78 -23 9 -8 13 -65 12 -231 0 -120 -2 -229 -4 -241 -3 -13 -1
-23 5 -23 5 0 9 -4 9 -10 0 -5 -6 -7 -13 -5 -8 4 -22 -20 -40 -68 -15 -41 -27
-79 -27 -85 0 -7 -4 -20 -10 -30 -14 -25 -120 -321 -120 -334 0 -26 20 12 65
122 50 121 125 341 125 366 0 8 5 14 10 14 6 0 10 -56 10 -148 0 -168 9 -144
-119 -315 -40 -54 -69 -83 -77 -80 -8 3 -14 9 -14 15 0 5 -4 7 -9 4 -5 -4 -17
-3 -26 0 -14 6 -16 16 -11 58 3 28 8 148 11 266 4 176 11 395 19 618 1 19 -1
35 -5 38 -9 5 -18 -81 -24 -251 -4 -82 -8 -159 -10 -170 -2 -12 -5 -126 -6
-255 -1 -273 -4 -300 -30 -300 -23 0 -27 7 -33 61 -6 48 -44 185 -71 260 -38
100 -44 168 -45 457 0 235 2 284 14 288 59 22 216 24 336 2z m-381 -150 c-1
-155 -14 -303 -19 -235 -6 72 -8 93 -15 202 -3 61 -11 112 -16 113 -5 2 -7 8
-3 13 3 5 0 9 -5 9 -10 0 -16 -31 -11 -55 2 -10 4 -41 14 -179 6 -81 24 -158
35 -152 10 6 12 -316 2 -349 l-8 -30 -13 30 c-6 17 -13 35 -14 40 -1 6 -5 16
-10 23 -4 7 -5 19 -2 27 3 8 0 14 -7 12 -8 -1 -11 10 -10 32 1 22 -2 30 -7 21
-9 -15 -22 10 -66 130 -39 103 -54 173 -55 249 -1 40 -6 71 -11 71 -17 0 -4
-219 16 -270 10 -25 19 -68 20 -97 0 -28 5 -55 10 -60 5 -4 6 11 3 37 -5 41
-4 43 9 26 8 -11 14 -28 14 -37 0 -10 4 -20 8 -23 5 -3 21 -38 37 -78 16 -40
41 -91 56 -114 22 -32 29 -58 35 -119 4 -45 3 -76 -2 -74 -5 2 -66 63 -136
135 l-128 131 0 67 c0 45 -4 66 -12 66 -9 0 -9 3 0 12 7 7 12 17 12 22 0 6 -5
4 -10 -4 -8 -13 -10 -12 -10 3 0 9 5 17 10 17 6 0 10 7 10 15 0 8 -4 15 -8 15
-5 0 -9 44 -10 98 -1 53 -5 121 -8 150 -4 35 -3 52 5 52 6 0 11 -15 11 -33 0
-29 33 -117 45 -117 4 0 -11 55 -20 69 -3 6 -8 41 -10 78 -3 37 -9 71 -13 75
-4 4 -6 -8 -4 -27 3 -21 0 -35 -7 -35 -6 0 -11 18 -11 44 l0 44 74 31 c67 28
193 67 224 70 10 1 12 -30 11 -141z m640 67 c51 -25 125 -64 165 -87 206 -119
430 -434 502 -704 35 -132 38 -160 39 -359 0 -167 -1 -172 -38 -304 -91 -317
-235 -523 -475 -679 -79 -52 -176 -102 -195 -102 -22 0 -119 291 -124 373 -5
67 8 92 23 45 10 -36 67 -158 71 -155 2 2 -18 51 -43 108 l-46 104 -1 128 c-1
79 2 127 8 126 6 0 45 -42 87 -92 188 -224 348 -400 329 -362 -5 11 -40 54
-78 95 -37 41 -91 102 -118 135 -27 33 -89 104 -137 158 -50 56 -88 108 -89
120 -1 36 2 122 6 125 1 2 19 -8 40 -22 40 -27 548 -286 562 -286 16 0 -38 30
-242 135 -115 59 -245 128 -287 152 l-78 45 0 49 c0 55 -3 53 85 39 88 -14
453 -48 575 -54 92 -4 97 -4 35 4 -38 5 -164 18 -280 30 -209 21 -390 46 -406
56 -5 3 -9 20 -9 38 l0 33 118 18 c310 45 587 98 653 124 32 13 3 13 -41 1
-113 -30 -714 -125 -731 -114 -5 3 -9 27 -9 55 l0 49 138 70 c269 136 561 302
542 308 -5 2 -45 -16 -88 -41 -149 -86 -571 -307 -587 -307 -7 0 -4 131 3 156
4 12 51 68 104 126 54 58 108 118 120 134 13 16 32 37 43 46 11 10 15 17 10
18 -6 0 -66 -58 -134 -130 -68 -71 -130 -130 -139 -130 -13 0 -14 21 -7 168 5
92 7 265 6 385 -3 182 -1 217 11 217 8 0 56 -20 107 -45z m-1244 -33 c-15 -10
-35 -74 -42 -132 -4 -32 -14 -61 -27 -75 -12 -13 -50 -68 -86 -123 -36 -56
-68 -101 -72 -101 -22 -2 -53 120 -35 138 8 8 5 11 -8 11 -16 0 -17 2 -5 10 9
6 17 5 21 -2 8 -12 47 -2 69 17 8 8 28 18 43 24 28 11 28 11 9 31 -10 11 -25
32 -33 46 -13 26 -12 28 70 106 61 58 87 76 95 68 7 -7 7 -13 1 -18z m254
-254 c1 -134 5 -246 7 -250 3 -5 2 -8 -3 -8 -4 0 -59 54 -121 120 -63 66 -118
120 -124 120 -6 0 36 -50 93 -110 161 -171 160 -170 160 -275 0 -55 4 -94 12
-103 26 -32 -68 10 -275 122 -60 32 -108 54 -108 49 0 -4 73 -46 161 -93 201
-107 201 -107 201 -153 0 -26 6 -40 19 -48 21 -11 25 -34 7 -45 -6 -4 -8 -3
-5 3 4 6 0 13 -8 17 -11 4 -15 -2 -15 -24 0 -16 -3 -31 -7 -33 -5 -2 -57 4
-118 14 -96 16 -237 36 -385 55 -30 3 -40 2 -30 -4 8 -5 101 -22 205 -36 105
-15 219 -33 255 -39 l65 -12 8 -68 c5 -38 6 -75 4 -82 -3 -7 -36 -18 -74 -25
-112 -21 -416 -90 -446 -102 -54 -21 -18 -18 89 7 159 38 388 85 413 85 20 0
21 -5 21 -84 0 -55 -4 -87 -12 -93 -7 -6 -77 -43 -156 -83 -150 -76 -283 -150
-268 -150 5 0 45 20 90 44 178 97 337 173 342 164 3 -5 4 -47 3 -93 -2 -46 -1
-86 1 -89 3 -2 3 -67 0 -143 l-5 -138 -54 -73 c-30 -40 -52 -75 -49 -77 2 -3
26 27 52 65 27 39 52 70 57 70 5 0 9 -22 9 -49 0 -64 31 -162 73 -233 24 -38
29 -54 18 -50 -31 14 -106 55 -111 62 -3 3 -25 20 -50 37 -69 47 -269 248
-333 335 -34 46 -73 116 -96 172 -37 90 -80 239 -82 281 -7 207 -9 370 -3 383
4 10 8 24 10 32 1 8 4 35 8 60 6 49 10 67 19 90 3 8 15 47 26 86 11 39 28 77
36 84 8 7 15 20 15 30 0 24 25 70 91 167 16 23 29 44 29 47 0 16 55 66 67 61
8 -3 11 0 7 6 -6 11 85 106 99 101 4 -1 7 6 7 15 0 9 3 14 6 10 3 -3 23 9 43
27 59 55 96 85 101 86 3 0 7 -109 9 -242z m1551 -49 c57 -15 75 -17 86 -8 19
15 21 12 77 -86 43 -75 87 -208 74 -222 -4 -3 -12 -1 -19 4 -7 6 -40 20 -73
31 -69 25 -70 26 -176 190 -56 87 -74 122 -60 117 11 -3 52 -15 91 -26z
m-2087 -25 c-1 -10 10 -43 24 -73 24 -50 25 -56 10 -80 -22 -39 -73 -197 -87
-271 -7 -36 -14 -69 -17 -74 -8 -13 -83 122 -83 150 0 13 -4 24 -10 24 -5 0
-10 7 -10 15 0 8 5 15 10 15 6 0 10 14 10 30 0 35 22 49 46 30 13 -12 11 -17
-16 -41 -35 -32 -37 -39 -12 -39 9 1 41 23 70 49 l53 48 -26 17 c-14 9 -25 23
-25 30 0 7 -7 19 -15 26 -26 22 -16 58 42 146 18 28 39 27 36 -2z m2256 -284
c48 0 86 -61 61 -100 -5 -9 -5 -19 1 -26 7 -8 6 -14 -1 -19 -14 -9 -13 -26 3
-22 9 1 11 -19 9 -83 -4 -95 -4 -90 2 -180 3 -43 0 -74 -9 -92 -7 -15 -9 -30
-5 -33 5 -3 7 -25 5 -48 -3 -23 -8 -95 -11 -160 -7 -114 -8 -119 -36 -142 -16
-14 -33 -25 -38 -25 -4 0 -10 -7 -14 -15 -4 -11 6 -7 31 9 40 28 54 26 46 -4
-3 -11 -1 -20 4 -20 11 0 34 86 38 139 2 20 6 81 9 136 4 55 9 117 11 138 5
38 32 86 49 87 29 1 -31 -391 -74 -485 -16 -35 -41 -98 -56 -142 -23 -67 -95
-194 -108 -190 -15 5 -20 57 -7 70 8 8 7 15 -3 26 -8 9 -16 25 -19 36 -3 12
-6 3 -7 -20 -1 -22 -1 -44 0 -50 20 -80 20 -105 0 -127 -11 -12 -20 -26 -20
-32 0 -11 -200 -216 -210 -216 -4 0 -7 43 -8 95 -1 59 2 95 8 95 5 0 10 5 10
11 0 7 19 33 43 58 23 25 52 58 64 74 11 15 28 27 36 27 9 0 19 4 22 10 3 6
-1 7 -9 4 -21 -8 -20 -2 10 57 18 37 29 49 41 45 11 -5 14 -2 9 10 -3 8 -1 25
6 37 7 12 13 31 15 42 2 10 12 29 23 40 11 12 17 24 14 28 -3 3 10 56 30 118
20 62 36 119 36 126 0 17 16 17 24 1 4 -7 4 -2 0 12 -3 14 -7 95 -8 181 -2 86
-6 161 -10 167 -3 6 -2 13 3 16 6 4 6 18 1 35 -4 16 -6 32 -3 35 3 3 -1 12
-10 20 -8 8 -20 46 -26 83 -7 37 -23 92 -37 122 -34 77 -32 88 12 62 19 -12
43 -21 53 -21z m-1259 -208 c16 -62 32 -117 35 -122 3 -5 -6 -17 -20 -26 -26
-17 -27 -17 -55 12 -22 22 -29 39 -30 74 -3 68 -2 68 26 23 38 -64 39 -52 1
25 -29 60 -33 77 -35 162 l-2 95 25 -65 c15 -36 39 -116 55 -178z m-350 151
c11 -16 65 -73 120 -128 57 -58 102 -112 106 -127 8 -35 -9 -37 -56 -5 -19 13
-74 45 -122 71 l-88 48 0 84 c0 46 4 84 9 84 5 0 19 -12 31 -27z m-807 -40 c3
-16 22 -54 41 -87 20 -32 36 -65 36 -72 0 -19 -22 -56 -42 -71 -9 -7 -26 -33
-38 -58 -12 -25 -28 -45 -36 -45 -8 0 -14 -10 -14 -25 0 -14 4 -25 9 -25 14 0
109 -135 117 -164 7 -30 -5 -33 -41 -10 -13 9 -32 14 -42 11 -14 -3 -11 -6 12
-15 17 -7 37 -16 45 -21 15 -9 16 -51 1 -61 -4 -3 -11 -22 -15 -43 -10 -51 10
-40 24 13 6 22 15 40 20 40 5 0 16 -26 25 -57 9 -32 27 -88 40 -124 l24 -67
-70 45 c-38 25 -69 50 -69 55 0 4 -16 24 -36 43 -19 19 -33 39 -29 45 3 5 1
18 -5 29 -7 14 -7 22 1 27 8 4 8 9 0 17 -6 6 -11 20 -11 32 0 12 -5 26 -11 32
-14 14 -13 116 1 144 7 13 8 25 2 32 -5 7 -13 22 -16 35 -6 16 -3 22 8 22 12
0 16 10 16 34 0 19 8 48 17 65 17 29 17 30 -6 55 -23 24 -24 28 -12 79 29 131
41 151 54 90z m1513 -219 c-3 -7 -32 -27 -65 -44 -116 -58 -119 -35 -13 90
l77 92 3 -62 c2 -35 1 -69 -2 -76z m-651 42 c47 -25 94 -51 102 -58 8 -7 25
-17 36 -23 12 -6 23 -19 25 -29 4 -17 -1 -18 -60 -11 -34 4 -94 12 -132 19
l-68 11 -2 68 c0 37 2 67 5 67 4 0 46 -20 94 -44z m-787 -197 l3 -133 -51 67
c-27 36 -50 71 -50 77 0 15 82 130 89 125 4 -2 8 -63 9 -136z m-209 74 c3 -2
4 -51 3 -110 -1 -103 -2 -108 -26 -126 -19 -13 -26 -28 -25 -50 l0 -32 16 23
c25 35 43 28 43 -18 0 -43 -16 -52 -44 -25 -22 23 -31 -1 -11 -31 9 -13 28
-27 43 -30 26 -5 30 -14 65 -135 36 -129 36 -130 17 -149 -24 -24 -27 -92 -5
-110 8 -7 37 -15 65 -19 l50 -6 61 -94 c59 -92 60 -95 41 -110 -11 -9 -23 -32
-26 -52 -5 -31 -2 -42 20 -68 28 -34 56 -39 109 -20 30 11 35 9 111 -49 43
-33 90 -71 104 -83 14 -13 37 -30 50 -37 84 -44 87 -47 57 -67 -28 -18 -77
-11 -77 11 0 8 -4 14 -9 14 -5 0 -13 14 -16 31 -5 23 -9 28 -16 18 -16 -25
-10 -57 17 -88 20 -24 34 -31 63 -31 44 0 85 25 76 47 -7 21 32 13 107 -22 48
-22 56 -29 49 -43 -5 -9 -32 -98 -60 -197 -80 -285 -65 -255 -130 -255 -66 0
-80 -7 -83 -42 -2 -20 -6 -24 -22 -20 -21 6 -25 9 -105 79 -30 27 -51 42 -47
36 40 -69 -166 123 -239 222 -128 174 -162 243 -229 465 -15 50 -50 232 -62
320 l-4 35 20 -40 c25 -51 25 -45 -2 51 -21 74 -22 98 -21 396 0 174 4 346 7
382 l8 65 26 -16 c15 -9 29 -18 31 -20z m1411 1 c66 -27 81 -88 34 -143 -39
-46 -54 -52 -105 -37 -38 11 -46 18 -58 53 -18 51 -3 93 43 123 38 24 36 24
86 4z m-360 -12 c100 -16 105 -18 105 -42 0 -23 -5 -25 -74 -37 -41 -7 -76
-11 -78 -10 -1 2 -3 19 -5 40 -1 20 -5 37 -9 37 -4 0 -5 -17 -2 -39 5 -38 5
-38 -40 -54 -25 -8 -47 -14 -49 -12 -2 2 -1 33 0 69 4 77 -8 73 152 48z m184
-35 c-3 -23 -8 -45 -10 -48 -2 -4 0 -9 5 -11 5 -1 11 -18 14 -36 3 -18 15 -40
27 -50 l21 -17 -25 -85 c-35 -117 -58 -181 -63 -177 -3 4 8 95 22 181 4 24 3
27 -10 16 -18 -15 -20 1 -3 18 9 9 9 15 3 20 -6 4 -10 52 -9 117 2 133 1 126
19 118 12 -4 14 -15 9 -46z m-77 -76 c2 -25 -17 -41 -107 -89 -112 -59 -140
-76 -140 -84 0 -5 -4 -8 -10 -8 -5 0 -10 25 -10 56 0 30 4 53 9 50 5 -3 12 1
15 10 3 8 2 12 -4 9 -6 -3 -10 3 -10 14 0 12 5 21 10 21 6 0 10 -5 10 -12 0
-7 5 -5 13 4 6 9 28 18 47 21 19 3 53 10 75 15 69 17 101 14 102 -7z m-3 -77
c4 -9 1 -23 -6 -31 -10 -13 -13 -12 -19 4 -7 16 -8 15 -8 -5 -1 -13 -21 -42
-50 -70 -77 -74 -82 -77 -92 -61 -8 11 -9 11 -7 -2 3 -16 -54 -113 -73 -124
-5 -4 -8 25 -7 72 1 62 2 67 5 26 2 -29 8 -53 13 -53 9 0 5 75 -5 107 -3 7 17
25 43 39 26 15 54 33 63 41 15 13 117 69 130 72 4 0 10 -6 13 -15z m406 -76
c97 -127 100 -134 100 -220 0 -46 -4 -78 -10 -78 -5 0 -10 4 -10 9 0 5 -23 58
-51 118 -28 59 -62 132 -75 162 -13 30 -32 60 -42 67 -15 12 -15 13 8 14 20 0
37 -16 80 -72z m-250 -89 c-18 -68 -38 -151 -45 -184 -7 -33 -32 -118 -55
-190 -23 -71 -52 -168 -65 -215 -32 -125 -69 -244 -76 -250 -3 -3 -9 -18 -12
-35 -6 -35 -22 -97 -45 -175 -20 -68 -13 -40 -67 -268 -25 -106 -45 -202 -45
-211 0 -14 -11 -20 -47 -25 -25 -3 -48 -5 -49 -3 -2 2 6 28 17 58 12 30 28 81
36 114 7 33 36 121 62 195 68 189 116 341 206 655 25 88 52 176 60 195 7 19
26 85 40 145 22 91 71 265 91 324 3 10 8 11 15 4 8 -8 2 -47 -21 -134z m132
96 c3 -22 24 -92 46 -155 22 -63 76 -218 120 -345 44 -126 97 -282 119 -345
23 -63 63 -185 91 -270 60 -184 146 -421 189 -518 4 -10 -3 -13 -27 -10 l-33
3 -138 410 c-76 226 -149 446 -163 490 -13 44 -51 161 -84 260 -34 99 -80 239
-102 310 -23 72 -49 143 -57 158 -17 34 -10 60 14 55 12 -2 20 -16 25 -43z
m-288 -17 c-1 -13 -3 -33 -3 -45 -1 -13 -7 -23 -16 -23 -8 0 -15 -4 -15 -9 0
-9 -81 -114 -92 -119 -4 -2 -17 -19 -29 -39 -14 -23 -24 -31 -29 -23 -5 9 -9
9 -14 1 -4 -6 -2 -11 3 -11 17 0 13 -13 -14 -45 l-25 -30 1 65 c1 36 6 73 11
84 12 23 55 72 87 100 13 12 47 42 75 68 28 26 54 48 57 48 3 0 5 -10 3 -22z
m236 -48 c0 -11 4 -29 9 -42 6 -13 40 -117 77 -233 37 -115 82 -250 101 -299
18 -49 30 -92 26 -96 -17 -16 -79 -30 -127 -30 -97 0 -185 60 -224 151 -23 52
-27 21 44 279 13 47 36 133 51 192 25 96 43 129 43 78z m-235 -97 c-5 -70 -13
-92 -77 -230 -21 -45 -38 -85 -38 -88 0 -4 -9 -18 -20 -32 -11 -14 -20 -20
-20 -14 0 7 -5 9 -10 6 -8 -5 -8 -11 -1 -19 6 -7 8 -29 4 -49 -6 -42 11 -52
21 -12 6 24 26 36 26 15 0 -5 -5 -10 -11 -10 -7 0 -9 -10 -5 -25 5 -19 3 -23
-9 -19 -12 5 -15 -2 -16 -32 0 -22 -3 -48 -6 -59 -9 -37 -11 -95 -3 -95 4 0
17 33 29 73 11 39 25 84 30 99 6 17 5 31 -3 39 -8 9 -8 10 2 5 15 -9 16 17 2
45 -8 13 -7 19 0 19 6 0 9 4 6 8 -5 9 57 196 72 215 5 7 12 21 16 32 3 14 4
12 2 -5 -2 -14 -7 -34 -11 -45 -5 -16 -5 -17 4 -5 5 8 12 12 14 10 10 -11 -50
-286 -73 -335 -5 -11 -23 -63 -40 -115 -17 -52 -33 -102 -36 -110 -4 -11 -9
-9 -19 10 -7 14 -11 28 -8 33 3 5 -3 17 -13 28 -11 12 -13 19 -5 19 7 0 9 5 6
10 -4 6 -10 8 -14 5 -5 -2 -7 21 -5 52 3 31 8 60 13 63 19 11 23 56 7 69 -10
9 -14 22 -10 38 5 18 0 30 -17 46 -21 20 -22 20 -14 2 4 -11 8 -32 7 -47 -1
-16 3 -28 8 -28 13 0 22 -37 15 -60 -11 -35 -22 -22 -45 52 -21 69 -21 73 -4
117 29 79 92 194 129 236 20 22 43 52 52 68 27 43 41 34 38 -25 -2 -40 -1 -47
6 -29 5 13 7 40 5 60 -5 42 2 81 16 81 5 0 7 -28 3 -67z m-1030 -54 c4 -10 12
-19 19 -19 23 0 130 -79 159 -117 29 -39 35 -59 15 -46 -7 4 -15 8 -18 9 -3 0
-25 6 -49 13 -23 7 -46 10 -49 7 -8 -9 0 -14 33 -18 58 -8 101 -31 125 -67 13
-20 34 -47 46 -61 46 -51 74 -119 81 -196 4 -48 2 -78 -5 -87 -9 -10 -8 -18 3
-33 17 -22 19 -34 6 -34 -13 0 -63 69 -76 106 -6 19 -30 48 -56 67 -43 34
-118 142 -106 154 4 3 29 -2 56 -11 56 -18 103 -22 61 -4 -14 6 -36 15 -50 21
-14 6 -35 12 -48 13 -25 3 -52 21 -52 35 0 4 -11 24 -24 44 -14 20 -22 43 -19
51 3 8 1 14 -4 14 -12 0 -40 59 -64 134 -11 32 -19 61 -19 64 0 11 30 -21 35
-39z m2484 -399 c-4 -69 -10 -132 -12 -140 -2 -8 -7 -37 -12 -65 -4 -27 -10
-54 -13 -60 -4 -5 -8 -18 -9 -28 -2 -9 -30 -86 -63 -170 -72 -184 -151 -311
-259 -417 -69 -68 -161 -140 -179 -140 -10 0 -44 87 -88 219 -32 100 -35 118
-25 146 15 43 13 54 -5 30 -13 -17 -16 -18 -24 -5 -21 32 -22 61 -5 80 10 11
63 43 118 71 l99 51 48 -26 c56 -30 81 -33 102 -8 17 18 33 102 21 102 -5 0
-17 3 -28 6 -17 4 -21 1 -20 -20 0 -25 15 -50 15 -26 0 10 3 11 11 3 8 -8 6
-17 -7 -32 -22 -25 -30 -26 -80 -5 -37 15 -37 17 -19 31 11 7 28 12 38 9 9 -2
15 0 12 5 -8 13 85 128 145 178 51 43 52 44 91 31 34 -12 41 -11 57 3 17 16
42 23 42 13 0 -3 -9 -40 -19 -83 -23 -92 -43 -151 -66 -190 l-17 -28 26 30
c27 31 57 115 78 216 11 56 11 60 -10 79 -12 12 -22 25 -22 31 0 6 -5 7 -10 4
-6 -4 -8 -15 -5 -26 5 -16 1 -19 -29 -19 -19 0 -37 4 -40 9 -3 5 12 25 33 44
22 20 37 38 33 41 -3 3 0 6 6 6 7 0 12 9 12 20 0 30 75 169 85 158 1 -2 -1
-59 -6 -128z m-1383 -32 c5 -18 9 -38 9 -43 0 -6 11 -27 23 -47 13 -20 22 -43
21 -50 -3 -24 1 -38 10 -38 5 0 7 9 4 20 -3 11 -1 20 5 20 13 0 24 -28 13 -34
-5 -3 -11 -23 -15 -45 -5 -31 -11 -40 -30 -43 -14 -3 -31 0 -38 6 -7 6 -4 1 6
-11 16 -19 22 -21 34 -10 8 6 13 8 10 2 -2 -5 -10 -25 -17 -43 -13 -32 -15
-33 -54 -26 -23 3 -53 14 -67 22 -14 9 -26 17 -28 17 -2 2 23 67 39 100 5 11
12 34 14 50 13 79 39 185 46 185 4 0 11 -15 15 -32z m-686 -26 c92 -99 214
-193 315 -242 57 -28 108 -50 114 -50 17 0 12 -39 -13 -105 -15 -40 -27 -59
-37 -57 -36 8 -129 56 -129 67 0 6 28 20 63 31 59 17 118 54 87 54 -7 0 -21
-6 -29 -14 -9 -7 -26 -17 -39 -21 -17 -5 -24 -1 -31 17 -9 22 -10 22 -10 2 -1
-36 -26 -49 -70 -35 -38 11 -39 13 -52 79 -7 37 -13 74 -14 82 -4 44 -49 59
-150 50 -17 -2 -16 -3 5 -10 14 -4 41 -5 62 -3 31 5 39 2 54 -22 10 -16 21
-51 25 -79 3 -28 10 -59 14 -69 6 -15 -4 -12 -51 14 -72 41 -155 104 -147 113
10 9 12 49 4 61 -4 6 -9 44 -10 85 -1 41 -5 78 -7 82 -14 22 16 3 46 -30z
m2186 -34 c-8 -51 -25 -76 -37 -56 -6 9 -9 7 -9 -8 0 -11 -3 -24 -7 -28 -11
-10 -12 -36 -2 -36 5 0 9 6 9 13 1 18 38 63 46 55 4 -4 2 -14 -5 -21 -6 -8 -8
-23 -4 -32 5 -14 3 -17 -9 -12 -12 4 -19 -3 -27 -24 -6 -19 -6 -29 0 -29 5 0
4 -6 -3 -14 -7 -8 -16 -12 -21 -9 -4 2 -7 1 -6 -4 4 -16 -13 -63 -21 -58 -4 2
-7 -7 -7 -21 0 -13 -7 -32 -15 -42 -15 -17 -41 -82 -52 -132 -4 -14 -25 -45
-48 -70 -32 -34 -38 -38 -24 -15 10 17 27 38 38 47 11 10 21 34 24 54 2 19 11
49 20 66 19 36 47 123 64 198 7 30 18 71 25 90 7 19 16 44 20 55 5 15 8 16 14
6 7 -11 11 -9 21 9 13 24 4 43 -10 20 -8 -13 -10 -12 -10 3 0 10 7 17 18 17
14 0 15 2 2 10 -13 8 -12 10 4 10 16 0 18 -5 12 -42z m-551 -126 c0 -48 4 -90
10 -94 6 -5 5 -12 -3 -20 -11 -11 -15 -10 -22 3 -7 11 -26 16 -66 18 -32 1
-63 6 -68 10 -15 12 -66 2 -66 -14 0 -11 37 -15 158 -18 48 -1 40 -22 -24 -63
-59 -38 -192 -104 -209 -104 -5 0 -22 34 -36 76 l-26 76 56 25 c78 35 166 89
234 145 32 26 59 48 60 48 1 0 2 -39 2 -88z m-583 -1 c-43 -80 -155 -183 -181
-167 -4 3 30 44 76 92 45 48 83 91 83 96 0 4 -15 2 -32 -5 -19 -8 -32 -21 -32
-30 1 -13 -5 -15 -29 -10 -22 4 -28 3 -23 -6 4 -6 12 -9 17 -6 14 10 11 -5
-11 -40 -24 -38 -66 -61 -74 -40 -3 8 -1 17 5 21 6 3 8 12 5 19 -2 7 4 23 15
36 21 24 24 39 10 39 -13 0 -51 -54 -51 -72 0 -8 -5 -19 -12 -26 -9 -9 -7 -17
10 -35 23 -24 20 -37 -7 -37 -18 0 -27 71 -12 99 6 10 4 28 -5 50 -18 43 -9
52 41 41 51 -12 115 -13 115 -1 0 5 20 14 44 20 25 6 48 16 52 22 5 8 9 8 14
-1 4 -7 -4 -33 -18 -59z m108 -182 c0 -6 6 -25 14 -42 8 -18 19 -49 25 -70 10
-41 10 -41 -39 -50 -14 -3 -45 -13 -70 -22 -47 -18 -241 -27 -256 -12 -4 4 10
23 31 42 21 20 35 38 32 41 -3 4 -17 -6 -31 -20 -13 -15 -33 -28 -43 -29 -10
0 -45 17 -78 39 -80 54 -97 62 -57 26 18 -16 45 -35 60 -43 15 -8 38 -24 51
-36 23 -20 23 -23 7 -29 -27 -10 -236 6 -272 21 -26 10 -31 18 -27 34 3 13 13
21 27 21 12 0 31 7 42 15 17 13 16 14 -14 4 -18 -6 -35 -9 -38 -7 -2 3 -1 23
4 44 9 45 9 45 135 23 64 -10 99 -10 195 0 128 14 245 36 271 51 21 13 31 12
31 -1z m137 -409 c40 -118 72 -215 73 -215 0 0 -221 -1 -490 -3 -270 -1 -490
1 -490 6 0 12 58 248 75 307 8 28 17 62 20 77 l5 26 41 -16 c23 -9 43 -22 46
-29 4 -11 8 -11 21 -1 12 10 16 10 19 1 3 -7 11 -13 19 -13 19 0 18 -36 -1
-44 -20 -7 -75 13 -75 29 0 7 -7 15 -15 19 -25 9 -18 -32 10 -59 44 -45 125
-24 125 32 0 12 -5 23 -11 23 -24 0 2 16 33 20 41 6 225 6 293 1 97 -7 129
-33 83 -65 -33 -23 -53 -20 -83 15 -32 39 -44 31 -18 -13 25 -43 67 -55 116
-34 33 13 37 19 37 51 0 28 -5 38 -20 42 -25 7 -26 22 -2 29 9 3 31 12 47 19
63 29 64 29 142 -205z m215 -261 c-16 -13 -201 -86 -257 -102 -33 -9 -136 -28
-230 -42 -93 -15 -173 -31 -176 -37 -8 -12 -255 3 -434 27 -84 10 -114 20
-191 58 -123 62 -143 91 -69 99 54 6 1364 3 1357 -3z m129 -6 c0 -5 2 -45 4
-90 l3 -82 -194 1 c-107 1 -194 5 -194 10 0 4 8 9 18 9 53 4 66 8 74 23 5 9
13 16 18 16 10 0 187 81 230 105 28 16 40 18 41 8z m-1547 -82 c28 -16 83 -39
121 -51 39 -12 74 -26 78 -30 4 -3 -54 -6 -129 -6 l-137 2 -2 57 c-2 34 1 57
7 57 6 0 34 -13 62 -29z"/>
<path d="M13260 7957 c0 -33 -2 -36 -17 -29 -10 5 -68 13 -129 17 l-112 7 5
-26 5 -26 129 0 c132 0 141 -3 149 -45 1 -5 22 -40 46 -76 24 -37 44 -70 44
-74 0 -4 10 -21 22 -37 l21 -30 -99 3 c-139 5 -214 1 -214 -11 0 -6 59 -10
156 -10 l156 0 11 -30 c15 -38 38 -40 33 -2 -3 27 -24 75 -64 145 -12 20 -19
37 -17 37 3 0 -13 23 -35 51 -22 27 -44 67 -50 87 -6 20 -17 48 -25 62 l-14
25 -1 -38z"/>
<path d="M5400 7951 c-8 -6 -19 -7 -25 -4 -5 4 -7 3 -3 -2 5 -5 -2 -15 -13
-23 -16 -11 -23 -12 -28 -3 -5 8 -14 4 -26 -11 -11 -13 -13 -17 -5 -10 34 30
30 8 -5 -28 -41 -42 -62 -51 -51 -24 5 14 4 15 -9 4 -9 -7 -14 -19 -11 -26 5
-12 -94 -112 -150 -151 -16 -12 -43 -25 -58 -29 -22 -5 -25 -9 -14 -15 12 -6
13 -18 5 -61 -11 -66 -13 -937 -3 -1463 11 -570 12 -1466 3 -1805 -4 -162 -10
-366 -12 -452 -2 -95 0 -158 6 -158 12 0 12 -37 -1 -45 -6 -3 -9 -27 -8 -53
l1 -47 7 50 c4 28 8 46 10 40 1 -5 3 -196 4 -424 l1 -414 60 -6 c33 -3 118 -5
190 -4 71 1 123 -2 116 -7 -8 -4 78 -8 189 -9 111 0 211 -3 222 -7 10 -3 24
-1 31 4 27 22 181 39 201 23 10 -8 17 -6 31 9 10 11 14 20 10 20 -5 0 5 15 22
33 16 17 62 75 101 128 39 53 89 114 110 135 31 30 37 43 31 59 -6 17 -8 17
-8 3 -1 -10 -6 -18 -12 -18 -8 0 -9 21 -3 73 9 78 6 229 -4 237 -4 3 -8 173
-9 378 -2 314 0 372 12 362 14 -12 95 -189 95 -208 0 -7 13 -51 29 -99 34 -99
158 -484 189 -583 83 -270 107 -343 128 -397 13 -34 24 -68 24 -76 0 -8 7 -20
15 -27 26 -22 16 -30 -35 -30 -27 0 -50 -4 -50 -10 0 -16 593 -13 735 5 73 8
191 13 300 12 l180 -2 20 -37 c11 -21 22 -38 25 -38 3 0 4 20 2 45 -3 33 0 45
9 46 8 0 6 3 -4 7 -16 7 -16 11 10 46 15 21 41 52 56 69 l28 32 -17 -30 c-10
-16 -27 -40 -38 -52 -10 -13 -16 -26 -11 -30 4 -5 10 -2 13 6 3 8 15 24 27 35
12 12 26 32 30 46 4 14 13 32 20 40 8 8 19 26 25 40 21 50 68 115 80 112 19
-4 4 47 -54 176 -29 64 -57 129 -61 142 -7 22 -17 47 -56 135 -17 39 -122 301
-144 360 -13 33 -33 85 -45 115 -12 30 -37 98 -55 150 -19 52 -48 133 -66 180
-41 111 -70 191 -74 210 -2 8 -4 15 -5 15 -1 0 -4 11 -6 25 -3 13 -9 29 -14
34 -4 4 -6 14 -4 20 4 11 -67 193 -105 266 -10 19 -24 53 -31 75 -7 22 -24 52
-38 67 -25 27 -25 28 -7 48 10 11 24 20 32 20 7 0 13 4 13 9 0 10 61 79 176
201 100 105 160 192 162 234 0 5 6 12 12 16 7 4 10 14 8 21 -3 8 -14 -5 -28
-31 -12 -25 -26 -47 -29 -50 -4 -3 -18 -23 -31 -45 -36 -62 -92 -136 -97 -131
-3 3 14 33 38 68 23 35 50 74 59 88 10 15 29 49 44 78 17 34 31 50 40 46 15
-6 22 9 32 71 3 22 12 52 20 67 8 15 14 29 13 30 -1 2 3 19 9 38 16 51 30 169
37 305 3 66 10 170 15 230 9 103 7 233 -5 281 -2 12 -7 37 -10 57 -4 20 -21
82 -40 137 -18 55 -31 100 -27 100 4 0 2 4 -5 8 -18 11 -56 116 -44 120 16 5
13 22 -4 22 -8 0 -12 6 -9 14 4 11 -29 80 -64 132 -51 77 -63 93 -72 99 -5 3
-10 11 -10 17 0 6 7 5 17 -3 14 -12 16 -12 11 1 -2 8 -11 15 -19 15 -24 1 -43
16 -29 25 24 15 -99 128 -221 206 -68 43 -310 160 -369 179 -30 10 -62 23 -70
30 -8 6 -22 16 -30 20 -13 8 -13 7 -1 -8 18 -23 16 -22 -140 17 -171 44 -308
60 -484 58 -740 -8 -902 -7 -898 6 6 14 -6 15 -27 3z m325 -51 c107 -5 295 -6
430 -2 321 10 465 -4 605 -62 30 -13 89 -33 130 -46 41 -13 92 -32 113 -42 57
-28 65 -17 10 12 -27 14 -50 26 -52 28 -2 1 -2 4 1 7 6 7 169 -50 217 -76 20
-10 41 -19 48 -19 7 0 13 -4 13 -10 0 -5 9 -10 19 -10 11 0 22 -4 25 -9 4 -5
37 -26 74 -47 87 -49 197 -137 229 -183 121 -177 171 -270 138 -257 -8 3 -15
1 -15 -5 0 -5 7 -12 14 -15 8 -3 23 -29 32 -57 9 -29 20 -56 24 -62 6 -8 20
-55 25 -85 0 -3 8 -17 18 -31 10 -15 22 -55 28 -90 5 -34 12 -66 15 -71 7 -12
26 -117 29 -168 12 -183 13 -234 3 -300 -6 -41 -12 -85 -12 -97 -1 -13 -4 -23
-7 -23 -14 0 -16 27 -8 85 15 106 14 181 -1 200 -11 14 -11 18 0 25 11 7 10
11 -3 25 -10 9 -17 21 -17 26 0 18 -16 8 -17 -11 -1 -11 1 -18 5 -16 4 2 6
-46 6 -107 -2 -136 -1 -127 -17 -121 -10 3 -14 -4 -14 -26 0 -22 4 -29 14 -26
7 3 13 -1 13 -9 0 -8 -7 -15 -15 -15 -9 0 -15 -9 -15 -21 0 -18 2 -19 15 -9
13 11 15 9 15 -13 0 -13 -7 -38 -15 -53 -11 -21 -15 -24 -15 -11 0 10 -5 15
-10 12 -7 -4 -6 -13 1 -26 10 -20 4 -58 -8 -46 -3 4 -12 2 -20 -4 -10 -9 -13
-8 -13 4 0 9 8 17 17 19 16 3 16 4 1 18 -12 11 -13 21 -6 39 6 17 5 27 -4 33
-11 6 -10 8 0 8 9 0 11 7 7 21 -5 16 -4 20 6 15 8 -4 6 -1 -3 6 -12 10 -16 25
-13 47 2 17 0 42 -5 55 -5 15 -5 27 3 35 8 8 7 11 -3 11 -9 0 -8 5 6 16 10 8
13 12 5 8 -11 -5 -13 0 -9 25 3 20 -1 37 -12 49 -22 23 -6 85 20 77 13 -4 19
2 23 22 8 42 -26 75 -36 36 -3 -10 -3 3 -1 30 2 29 0 47 -7 47 -6 0 -9 12 -7
27 2 14 -2 28 -8 30 -7 2 -10 -35 -9 -112 0 -63 -3 -115 -6 -115 -10 0 -29 58
-29 86 0 26 -28 181 -37 204 -4 8 -7 17 -8 20 -20 76 -81 195 -157 307 -38 56
-73 102 -77 100 -4 -1 -44 31 -89 72 -175 159 -352 255 -572 309 -184 45 -220
52 -326 64 -147 15 -520 16 -789 1 -121 -7 -294 -15 -385 -18 -150 -5 -163 -4
-145 10 52 41 176 146 237 203 l67 62 63 0 c35 0 149 -5 253 -10z m591 -285
c181 -20 308 -41 416 -70 122 -31 332 -117 377 -153 20 -15 62 -45 93 -66 57
-37 183 -168 208 -216 22 -41 64 -90 78 -90 8 0 11 -7 7 -19 -3 -11 1 -24 11
-31 8 -8 24 -31 35 -53 20 -38 83 -267 99 -358 5 -26 13 -64 19 -85 7 -24 7
-42 1 -49 -6 -7 -9 -31 -8 -53 1 -35 4 -40 15 -30 12 10 14 -19 10 -203 -3
-196 -7 -238 -23 -293 -5 -13 -3 -16 6 -11 9 6 11 4 5 -6 -5 -7 -10 -24 -11
-38 -2 -13 -8 -29 -13 -34 -6 -6 -11 -24 -11 -39 0 -15 -6 -45 -13 -65 -8 -21
-22 -63 -32 -93 -24 -73 -85 -201 -134 -276 -42 -66 -126 -141 -269 -237 l-86
-59 -18 24 -19 23 15 -30 c18 -38 8 -57 -36 -76 l-33 -14 34 -5 c31 -5 36 -11
73 -95 90 -204 198 -476 198 -497 0 -5 16 -46 36 -91 68 -153 164 -390 160
-394 -6 -7 -13 5 -346 627 -37 69 -93 177 -125 240 -70 138 -263 491 -315 575
-29 48 -174 314 -188 347 -2 5 2 8 10 8 21 0 114 149 137 220 36 114 49 217
44 366 -8 255 -71 402 -221 515 -79 60 -84 66 -28 36 29 -16 43 -21 35 -11 -7
8 -33 26 -58 39 -39 20 -42 24 -21 24 14 0 44 -8 68 -19 23 -10 42 -17 42 -14
0 12 -88 44 -121 44 -20 0 -51 8 -70 17 -61 31 -159 29 -378 -7 -77 -12 -97
-25 -26 -16 l50 6 -2 -672 c-1 -501 2 -675 10 -680 17 -11 103 -10 194 2 91
12 179 41 242 81 48 29 61 29 61 -1 0 -10 5 -22 10 -25 6 -4 24 -32 40 -63 17
-31 28 -46 24 -33 -4 14 -22 54 -40 90 -18 36 -31 67 -29 69 10 11 31 -19 85
-128 32 -65 92 -176 133 -246 40 -71 118 -214 172 -319 116 -226 201 -382 305
-565 42 -74 130 -234 195 -355 65 -121 125 -231 135 -245 9 -14 62 -140 117
-280 107 -270 118 -300 109 -300 -3 0 -95 179 -205 398 -184 368 -250 496
-479 927 -46 88 -136 261 -199 385 -64 124 -120 230 -125 235 -20 21 159 -334
357 -710 58 -110 189 -366 291 -570 103 -203 247 -489 322 -635 74 -146 143
-281 153 -301 33 -66 44 -62 -181 -60 -113 1 -270 -3 -350 -8 -80 -6 -227 -13
-327 -16 l-181 -5 -8 33 c-3 17 -56 181 -116 362 -197 590 -292 907 -303 1003
-4 34 -10 64 -14 67 -4 2 -4 -17 0 -43 14 -86 7 -95 -27 -34 -63 109 -75 155
-78 309 -4 140 -3 145 16 140 14 -4 18 -1 16 11 -2 11 -13 17 -28 17 l-25 0 2
-130 3 -130 -21 25 c-12 14 -34 50 -50 81 -15 31 -57 87 -92 124 -57 60 -66
65 -71 47 -4 -11 -16 -22 -27 -25 -18 -5 -19 -9 -9 -27 9 -17 12 -248 11 -909
l0 -886 -478 0 -479 0 2 425 2 426 112 224 c62 124 161 314 221 422 120 218
176 328 161 313 -17 -16 -236 -414 -355 -645 -61 -118 -119 -228 -129 -245
l-19 -30 7 70 c8 78 28 125 132 300 36 61 84 144 107 185 85 153 182 321 308
535 72 121 145 245 162 275 18 30 63 107 99 170 37 63 79 135 92 160 l25 45
-27 -33 c-51 -62 -469 -757 -705 -1172 -92 -162 -175 -304 -183 -315 -15 -19
-16 -15 -17 60 -1 190 6 1574 12 2090 1 33 0 83 0 110 -1 28 -1 68 0 90 0 22
-3 198 -6 390 -4 193 -8 472 -9 620 -2 149 -5 276 -7 284 -6 22 39 29 126 19
76 -9 294 -4 540 11 198 13 475 11 611 -4z m54 -832 c94 -33 242 -210 285
-338 25 -77 38 -209 32 -335 -8 -173 -46 -293 -100 -318 -84 -40 -269 -67
-303 -44 -7 4 -8 36 -4 92 7 102 6 162 -3 177 -4 6 -3 14 2 18 6 3 8 11 6 18
-3 7 -6 165 -9 352 -2 187 -7 355 -11 373 -7 32 -7 32 26 26 19 -3 54 -13 79
-21z m-216 -466 c0 -39 -6 -82 -12 -94 -11 -19 -9 -24 8 -33 15 -8 20 -8 21 2
1 7 3 20 4 28 1 8 3 26 4 40 1 23 3 23 12 7 8 -13 8 -32 0 -63 -6 -25 -9 -50
-6 -57 4 -7 0 -4 -8 6 -26 31 -35 19 -34 -48 0 -36 5 -65 9 -65 5 0 6 5 3 10
-3 6 -1 10 4 10 6 0 11 -7 11 -16 0 -10 6 -14 15 -10 22 8 18 -7 -5 -22 -12
-7 -20 -8 -20 -2 0 5 -5 10 -10 10 -16 0 -9 -130 8 -146 7 -8 9 -14 4 -14 -5
0 -7 -11 -4 -25 2 -14 9 -25 16 -25 7 0 6 -3 -2 -9 -20 -12 -12 -85 10 -89 9
-2 19 5 22 15 7 24 9 93 3 118 -10 40 -19 170 -12 163 4 -4 9 -24 12 -45 2
-21 10 -64 18 -96 26 -102 23 -114 -51 -187 -60 -59 -65 -62 -58 -35 4 17 7
100 7 185 -2 201 0 185 -17 171 -8 -6 -12 -26 -10 -46 1 -19 -1 -37 -5 -39 -4
-3 -4 -33 0 -68 12 -102 3 -242 -17 -273 -16 -25 -18 -25 -25 -9 -3 11 -5 35
-4 54 3 36 4 85 5 270 0 181 7 356 13 366 3 6 3 15 -1 21 -4 6 -6 33 -4 59 6
71 22 32 21 -49 -1 -37 1 -70 5 -74 10 -10 56 19 56 36 -1 13 -3 12 -15 -3
-19 -25 -28 -16 -19 18 6 25 24 37 24 16 0 -5 5 -10 10 -10 11 0 3 47 -10 65
-9 11 5 55 17 55 4 0 8 -33 7 -73z m1080 -1348 c-3 -5 6 -32 20 -59 160 -305
307 -621 301 -644 -5 -17 -3 -16 9 4 12 21 12 28 2 45 -19 30 -86 184 -101
233 -10 33 -10 42 -1 42 13 0 15 -4 62 -105 36 -78 74 -135 89 -135 12 0 40
-48 37 -62 -1 -5 2 -8 8 -8 6 0 10 -8 10 -17 0 -14 2 -15 9 -5 5 9 17 -6 38
-50 32 -66 34 -79 8 -58 -9 8 -15 8 -15 2 0 -6 4 -13 10 -17 5 -3 7 -12 3 -20
-3 -8 0 -15 6 -15 6 0 11 8 11 18 1 15 2 15 11 -2 9 -14 8 -20 -2 -27 -11 -6
-11 -11 -1 -21 9 -9 12 -9 12 2 0 23 15 -1 38 -60 11 -30 34 -91 51 -135 16
-44 48 -120 71 -170 22 -49 45 -99 49 -110 5 -11 18 -41 30 -67 12 -26 21 -51
21 -56 0 -5 8 -26 19 -48 10 -21 22 -50 25 -64 7 -25 7 -25 -10 -5 -16 19 -16
19 -10 -10 4 -16 14 -37 23 -45 14 -13 14 -12 8 10 -9 32 -3 25 20 -20 16 -31
16 -33 2 -21 -11 8 -17 9 -17 3 0 -6 8 -16 19 -21 27 -15 33 -38 9 -36 -13 1
-32 25 -60 76 -47 85 -46 84 -53 77 -9 -9 85 -166 112 -188 33 -26 29 -35 -71
-167 -41 -55 -80 -112 -86 -127 -9 -26 -30 -28 -30 -3 -1 7 -16 53 -35 102
-19 50 -30 91 -26 93 5 1 -9 36 -30 76 -21 41 -36 76 -33 78 2 3 -2 11 -11 18
-8 7 -15 23 -15 36 0 14 -13 50 -30 81 -16 31 -30 66 -30 79 0 12 -5 26 -10
29 -6 4 -8 11 -4 16 3 5 -1 20 -8 32 -8 12 -22 45 -32 72 -11 28 -22 55 -27
60 -11 15 -89 214 -87 223 1 4 -13 38 -30 77 -18 38 -39 87 -46 110 -8 22 -24
63 -36 90 -34 79 -120 306 -120 317 0 6 6 5 15 -2 13 -11 13 -7 -1 26 -16 40
-43 75 -31 41 4 -11 3 -16 -4 -12 -6 4 -8 13 -5 21 3 8 -1 17 -9 20 -8 4 -15
11 -15 16 0 6 6 5 15 -2 8 -7 15 -9 15 -5 0 12 -63 120 -72 123 -4 2 -8 15 -8
28 0 17 -4 23 -12 18 -6 -4 -8 -3 -5 3 4 6 0 16 -8 23 -24 20 -70 149 -58 161
17 17 30 3 37 -38 3 -21 13 -51 21 -67 18 -34 19 -39 3 -31 -7 4 -6 0 2 -7 19
-17 40 -54 85 -148 75 -157 95 -209 95 -248 0 -11 4 -23 10 -27 5 -3 6 -13 3
-22 -4 -11 -3 -14 5 -9 8 4 10 2 6 -8 -3 -8 6 -39 20 -70 14 -30 28 -68 32
-83 3 -16 18 -53 32 -83 14 -30 27 -59 28 -65 1 -5 8 -23 15 -40 7 -16 13 -32
14 -35 0 -3 9 -19 18 -37 9 -18 17 -40 17 -50 0 -23 37 -129 63 -178 5 -11 13
-27 18 -35 4 -8 21 -43 39 -77 17 -35 28 -63 24 -63 -3 0 -1 -6 5 -14 6 -8 11
-18 10 -22 -2 -9 3 -23 26 -79 6 -16 18 -46 25 -65 16 -42 41 -82 47 -76 2 2
-5 22 -16 44 -11 21 -25 61 -32 88 -7 27 -17 55 -23 63 -8 11 -8 15 2 18 17 6
15 23 -3 23 -8 0 -22 17 -31 38 -9 20 -39 81 -65 136 -27 54 -49 105 -49 113
0 21 -39 131 -62 177 l-21 41 23 -20 23 -20 -11 21 c-6 11 -18 26 -26 34 -9 7
-16 19 -16 27 0 13 2 13 17 2 15 -13 15 -12 4 9 -7 13 -17 20 -23 16 -7 -5 -9
-1 -5 9 4 11 1 17 -8 17 -8 0 -15 5 -15 10 0 6 5 10 10 10 14 0 12 13 -6 36
-14 18 -15 18 -4 -3 7 -15 7 -23 1 -23 -12 0 -35 39 -28 47 3 2 -2 21 -10 41
-26 60 -32 110 -16 116 8 3 11 10 8 16 -4 6 -10 8 -15 5 -5 -3 -3 8 3 24 8 23
14 28 24 19 18 -15 16 0 -2 18 -9 9 -15 11 -15 4 0 -6 -5 -8 -11 -4 -8 4 -9 0
-4 -15 14 -46 -8 -17 -40 52 -40 88 -51 153 -20 127 8 -7 12 -16 9 -21 -3 -5
2 -19 10 -31 9 -12 16 -34 16 -49 0 -15 7 -33 17 -40 15 -13 16 -11 8 16 -4
17 -8 37 -8 45 0 8 -4 18 -10 21 -5 4 -9 20 -9 35 1 26 -23 90 -38 104 -3 3
-20 32 -36 65 -17 33 -45 86 -62 118 -18 31 -29 57 -27 57 3 0 0 10 -7 23 -15
27 -19 57 -6 57 5 0 6 5 2 12 -4 7 -3 8 5 4 6 -4 9 -12 5 -17z m-1058 -1126
c10 -107 15 -210 16 -318 0 -103 3 -122 19 -138 14 -13 19 -31 18 -70 0 -38
-3 -47 -9 -32 -5 11 -9 31 -9 45 -1 14 -5 31 -10 39 -6 9 -7 -7 -4 -40 2 -30
7 -96 10 -147 3 -51 8 -91 10 -88 12 12 20 79 13 116 -4 22 -3 43 1 46 5 3 9
-2 9 -10 0 -9 5 -16 11 -16 7 0 9 10 5 25 -4 14 -2 25 3 25 5 0 11 -32 13 -72
l3 -71 -52 -59 c-29 -32 -57 -67 -63 -78 -17 -31 -25 -24 -26 25 -1 26 3 45 9
45 7 0 7 4 -1 12 -19 19 -27 0 -27 -68 -1 -50 -6 -72 -25 -104 -14 -21 -28
-40 -33 -40 -11 0 4 53 19 65 7 6 15 46 18 95 8 115 8 93 6 380 -2 294 -2 295
5 288 6 -6 13 -161 16 -373 2 -88 6 -176 10 -195 8 -45 9 355 0 523 -3 71 -3
134 1 140 5 7 8 2 9 -13 10 -200 21 -310 31 -310 7 0 9 22 5 63 -11 111 -20
362 -12 355 4 -4 9 -24 11 -45z"/>
<path d="M6394 5375 c-23 -57 6 -144 40 -116 7 6 29 8 49 4 23 -3 42 -1 52 7
12 10 19 10 27 2 40 -40 54 45 17 104 -20 34 -21 34 -95 34 l-75 0 -15 -35z
m134 19 c12 -4 22 -10 22 -15 0 -5 9 -18 20 -29 39 -39 27 -48 -62 -52 -46 -2
-89 1 -95 5 -14 10 -12 45 3 55 6 4 13 15 17 25 7 18 50 23 95 11z"/>
<path d="M5972 5310 c-37 -40 -56 -97 -46 -138 10 -39 10 -39 74 -26 40 8 93
7 113 -1 24 -10 35 3 38 45 5 63 -1 87 -26 114 -20 22 -32 26 -79 26 -43 0
-60 -5 -74 -20z"/>
<path d="M6612 4771 c-34 -6 -52 -17 -83 -52 l-40 -44 5 -80 c2 -44 11 -98 20
-120 8 -22 17 -52 21 -67 4 -23 11 -28 35 -28 20 0 30 5 30 15 0 16 24 19 55
5 19 -8 19 -9 1 -9 -11 -1 -16 -4 -12 -8 10 -10 46 -11 40 -1 -3 4 0 8 5 8 6
0 11 -8 11 -17 1 -16 2 -16 16 2 12 16 18 18 34 7 27 -17 38 -15 36 6 -1 13 8
18 37 20 32 3 37 0 37 -17 0 -14 6 -21 19 -21 34 0 51 12 51 34 0 12 6 30 13
41 17 23 8 80 -21 129 -12 20 -19 43 -16 51 4 8 1 15 -5 15 -6 0 -24 24 -41
53 -16 30 -40 59 -53 65 -29 14 -141 22 -195 13z m227 -100 c12 -16 21 -34 21
-40 0 -7 -44 -11 -135 -11 -147 0 -154 3 -141 55 6 25 7 25 121 25 l114 0 20
-29z m-306 -47 c-3 -7 2 -21 11 -29 12 -12 16 -13 16 -3 0 10 33 13 162 11
l162 -2 18 -33 c30 -57 21 -77 -35 -79 l-22 0 23 -9 c12 -5 29 -7 38 -3 12 4
15 2 12 -8 -5 -17 -88 -26 -88 -10 0 7 -33 11 -90 11 -53 0 -90 -4 -90 -10 0
-11 -42 -13 -76 -4 -16 4 -23 16 -28 47 -4 22 -11 46 -15 52 -5 5 -12 25 -16
43 -5 23 -3 32 7 32 8 0 6 4 -5 11 -9 6 -14 15 -11 21 10 15 34 -20 27 -38z"/>
<path d="M5617 4501 c-48 -10 -80 -41 -102 -97 -12 -31 -22 -44 -36 -44 -20 0
-26 -16 -8 -22 7 -2 -1 -26 -20 -61 -17 -32 -31 -72 -31 -89 0 -33 25 -112 43
-135 15 -20 45 -15 52 7 6 20 13 20 153 18 144 -3 147 -3 150 -25 2 -16 10
-23 25 -23 37 0 49 16 58 69 4 28 17 63 28 77 18 23 20 35 14 103 -5 63 -12
86 -40 134 -19 32 -45 65 -58 73 -27 17 -171 27 -228 15z m190 -77 c22 -6 49
-67 37 -86 -7 -11 -311 -10 -319 2 -3 5 4 27 15 50 l20 40 113 0 c61 0 122 -3
134 -6z m113 -110 c0 -8 -9 -33 -19 -57 -11 -23 -22 -58 -25 -77 -11 -64 -6
-62 -209 -63 -200 0 -211 2 -222 52 -6 27 0 45 34 109 l17 34 192 0 c152 0
193 3 203 14 13 16 29 10 29 -12z"/>
<path d="M8404 7949 c-2 -3 33 -9 77 -12 44 -3 83 -8 87 -11 3 -4 -39 -52 -94
-109 -55 -56 -114 -119 -132 -140 -21 -25 -38 -37 -48 -33 -14 5 -15 -54 -10
-569 5 -565 5 -575 -15 -588 -17 -13 -18 -18 -8 -41 7 -14 16 -26 20 -26 5 0
-14 -21 -41 -46 -28 -26 -50 -55 -50 -65 0 -23 35 -43 62 -36 39 10 48 -2 48
-63 l0 -57 -42 -17 c-24 -9 -56 -26 -72 -39 l-29 -24 29 -42 30 -43 -31 -33
c-16 -18 -45 -40 -62 -49 -33 -17 -43 -45 -24 -75 14 -22 -36 -88 -72 -95 -71
-14 -87 -66 -34 -113 49 -43 51 -50 24 -86 -45 -60 -50 -76 -33 -102 8 -12 36
-33 61 -45 50 -24 67 -46 58 -78 -6 -25 28 -78 57 -87 11 -4 32 1 49 11 33 20
66 12 57 -12 -4 -9 -1 -22 5 -30 6 -7 9 -21 7 -31 -2 -10 2 -23 9 -28 8 -6 16
-26 19 -46 7 -43 -18 -89 -47 -89 -11 0 -19 -5 -19 -12 0 -7 -19 -39 -41 -71
-37 -52 -40 -61 -30 -84 10 -21 9 -29 -5 -45 -14 -14 -16 -25 -8 -46 11 -32
39 -40 64 -17 17 16 19 15 30 -5 6 -11 22 -25 35 -30 l24 -9 -5 -768 c-4 -449
-10 -775 -16 -786 -5 -9 -6 -21 -3 -26 3 -5 7 -73 10 -150 l4 -141 -30 0 c-18
0 -28 -4 -24 -10 3 -5 20 -10 38 -10 46 0 20 -18 -33 -23 l-45 -4 53 -1 c33
-1 52 -6 53 -14 1 -7 2 -20 3 -28 2 -8 3 -27 4 -42 1 -16 7 -28 13 -28 8 0 10
17 6 53 -3 30 -2 58 1 63 4 5 99 9 212 10 113 0 354 1 535 2 182 1 386 0 455
-3 69 -3 206 -7 305 -9 l180 -5 -145 12 c-93 8 -136 15 -119 19 14 4 176 8
360 8 183 1 370 3 414 4 44 2 104 4 133 5 37 1 52 5 52 15 0 8 -6 16 -12 19
-7 2 13 8 44 12 46 6 60 4 73 -9 9 -9 21 -16 26 -16 13 0 11 18 -3 23 -7 3 7
6 32 7 25 1 58 4 75 6 16 2 35 -2 42 -8 10 -8 17 -8 25 0 7 7 23 12 36 12 14
0 21 4 16 11 -4 7 -21 9 -40 6 -37 -6 -54 7 -28 21 12 7 -12 13 -81 22 -88 11
-157 27 -130 30 6 1 68 1 139 1 71 -1 127 1 124 4 -2 3 -45 8 -94 11 -49 4
-93 10 -97 14 -12 10 42 22 90 20 21 -1 49 -1 63 -1 21 1 22 3 8 11 -9 6 -102
10 -207 10 -105 1 -191 5 -191 9 0 13 47 22 75 15 14 -3 25 -2 25 4 0 12 79
21 86 10 3 -4 -2 -8 -10 -8 -9 0 -16 -3 -16 -8 0 -7 269 13 277 21 7 8 -214
31 -289 31 -43 0 -78 3 -78 7 0 4 13 17 30 29 82 59 206 260 268 435 38 110
80 250 86 290 4 22 11 56 16 75 5 19 18 87 30 150 12 63 26 132 32 152 6 20 8
44 4 53 -3 10 -2 14 5 10 23 -15 -4 317 -41 510 -12 61 -23 121 -25 135 -2 14
-4 26 -6 28 -1 1 -2 5 -4 10 -1 4 -5 20 -10 36 -4 16 -25 60 -47 96 -21 37
-38 72 -38 78 0 22 -124 186 -192 255 -37 38 -68 73 -68 78 0 4 6 14 13 21 44
45 144 216 150 257 2 11 8 25 14 33 16 21 62 195 72 278 6 41 15 116 22 165 6
50 13 113 15 140 5 57 12 128 14 135 1 3 1 52 1 110 -1 107 -8 167 -21 185 -4
6 -10 25 -13 43 -6 30 -5 33 13 27 25 -8 25 -1 1 22 -21 21 -40 70 -22 59 17
-11 13 10 -4 24 -9 7 -13 15 -10 18 3 3 1 10 -4 16 -4 6 -18 49 -31 96 -12 47
-30 94 -39 105 -27 30 -37 50 -21 40 24 -15 -59 112 -109 168 -22 24 -23 27
-6 21 11 -4 35 -16 53 -27 17 -10 32 -16 32 -13 0 3 -32 24 -70 46 -39 22 -95
66 -126 97 -59 58 -99 83 -251 158 -50 25 -93 50 -95 56 -4 13 -312 95 -406
109 -35 5 -68 12 -73 16 -22 13 -1427 26 -1435 13z m851 -45 c171 -3 330 -7
355 -9 25 -2 83 -5 130 -6 47 0 90 -4 95 -8 22 -14 100 -29 106 -20 5 9 59
-11 59 -22 0 -3 17 -6 38 -7 51 -2 254 -63 335 -100 37 -17 100 -53 140 -80
84 -57 225 -202 268 -276 17 -28 43 -72 60 -97 50 -79 127 -318 117 -366 -2
-14 -7 -12 -21 11 -14 21 -16 30 -6 42 10 13 6 18 -13 15 -4 0 -10 16 -14 36
-7 36 -30 71 -40 61 -2 -3 5 -31 16 -63 11 -32 20 -63 20 -69 -1 -19 -28 37
-50 101 -12 35 -26 65 -31 69 -5 3 -7 14 -4 25 4 11 2 19 -4 19 -6 0 -11 5
-11 10 0 12 -132 138 -192 183 -43 33 -163 104 -247 147 -42 21 -131 52 -131
45 0 -2 60 -33 133 -69 73 -36 149 -81 168 -99 41 -40 104 -87 116 -87 13 0
84 -75 82 -86 -3 -14 17 -58 32 -71 30 -25 169 -347 155 -360 -3 -3 -8 3 -12
13 -42 121 -141 303 -221 402 -40 49 -174 162 -253 214 -190 123 -380 203
-540 227 -120 18 -315 27 -450 19 -69 -3 -255 -7 -415 -8 -159 -1 -357 -5
-440 -9 -82 -3 -167 -4 -189 -1 l-39 5 112 111 c61 61 111 117 111 123 0 7 5
21 10 32 10 18 20 18 183 14 95 -3 312 -8 482 -11z m-810 -300 c39 0 75 -2 80
-4 6 -1 249 -1 540 0 549 1 784 -10 895 -45 25 -7 74 -21 110 -30 138 -34 290
-107 406 -193 128 -96 202 -182 266 -308 52 -101 140 -340 151 -409 15 -89 18
-119 21 -210 8 -194 -26 -506 -58 -551 -11 -15 -18 -12 -73 29 -79 60 -87 71
-74 94 21 35 51 115 51 133 0 25 -36 49 -82 57 -37 5 -52 27 -25 36 7 2 12 23
13 53 0 27 4 79 9 116 l8 67 -34 21 c-62 38 -105 46 -145 27 -37 -18 -54 -15
-54 9 0 15 -46 38 -60 29 -4 -3 -10 5 -13 16 -5 17 -9 19 -26 9 -12 -6 -25 -8
-30 -5 -5 3 -39 -21 -75 -52 -64 -55 -82 -78 -51 -67 8 4 15 10 15 16 0 5 5 6
11 3 6 -5 4 -12 -8 -21 -10 -7 -13 -14 -7 -14 15 0 36 25 27 34 -4 3 13 25 37
48 39 38 44 40 50 22 4 -10 6 -22 3 -26 -2 -5 5 -8 16 -8 12 0 21 -4 21 -10 0
-17 38 -11 49 8 13 22 14 7 1 -18 -9 -17 -7 -18 27 -14 21 3 50 10 65 16 20 7
42 7 75 -2 81 -20 102 -53 61 -97 -12 -13 -16 -23 -10 -23 7 0 12 -9 12 -20 0
-30 -33 -91 -46 -86 -7 3 -20 -4 -30 -15 -17 -19 -17 -20 2 -14 17 6 -1 -13
-53 -55 -17 -14 -26 -13 -17 2 4 7 3 8 -4 4 -6 -4 -9 -13 -6 -21 5 -11 13 -9
45 10 44 28 57 30 82 11 10 -8 26 -12 36 -9 27 7 81 -24 81 -47 0 -10 -10 -26
-22 -34 -12 -9 -17 -16 -10 -16 17 0 7 -35 -20 -73 l-20 -29 43 -36 c23 -20
48 -41 56 -45 10 -6 7 -16 -14 -45 -20 -26 -22 -33 -8 -22 11 8 27 24 36 34
17 20 44 14 35 -9 -3 -9 2 -11 15 -8 17 5 18 2 10 -18 -31 -78 -57 -111 -71
-89 -6 9 -11 7 -19 -8 -9 -17 -7 -21 10 -25 26 -7 19 -33 -7 -29 -48 6 -76 4
-86 -6 -16 -16 -3 -26 19 -14 13 7 24 6 37 -4 21 -15 19 -20 -44 -85 l-34 -36
-38 19 c-21 11 -38 24 -38 29 0 5 -11 9 -24 9 -13 0 -26 5 -28 11 -2 6 -14 5
-33 -5 -30 -16 -50 -12 -25 5 11 7 7 8 -12 3 -26 -6 -27 -4 -24 24 5 33 33 93
50 104 6 4 11 11 11 15 0 5 10 19 23 33 12 13 22 27 22 32 0 4 14 27 31 52 30
42 50 114 29 101 -6 -4 -9 -13 -8 -21 4 -17 -29 -67 -55 -83 -16 -10 -22 -9
-37 7 -10 11 -15 23 -11 28 4 5 13 22 20 38 l12 29 -26 -24 c-14 -13 -33 -37
-42 -54 -19 -35 -104 -127 -111 -120 -3 3 5 17 19 31 23 26 23 26 2 15 -25
-13 -67 3 -93 34 -8 9 -31 25 -51 36 -50 25 -55 36 -30 63 21 23 27 37 14 35
-32 -5 -33 4 -7 38 22 29 24 35 9 29 -17 -6 -18 -5 -3 11 19 23 31 43 24 43
-3 0 -29 -19 -58 -43 -117 -95 -105 -68 32 73 61 62 110 118 110 124 0 6 -16
-6 -35 -26 -41 -44 -50 -46 -82 -16 l-23 21 -74 -79 c-41 -43 -78 -76 -82 -72
-11 11 79 121 112 137 l29 15 -32 13 c-22 9 -31 18 -27 28 12 29 -14 15 -26
-15 -19 -46 -49 -80 -71 -80 -10 0 -19 5 -19 11 0 8 -5 8 -15 -1 -8 -7 -15
-10 -15 -6 0 4 7 23 15 43 17 41 18 46 6 39 -5 -3 -16 -22 -26 -42 -12 -27
-20 -33 -28 -25 -8 8 -8 19 0 39 6 15 14 36 17 47 8 22 10 24 -31 -33 -9 -13
-11 5 -11 85 0 107 -12 178 -43 251 -10 24 -15 41 -10 38 13 -8 43 -75 57
-126 l13 -45 0 51 c1 70 -43 160 -77 157 -13 -2 -21 1 -18 5 3 5 -30 38 -73
75 -108 91 -163 110 -336 111 -111 1 -129 -1 -126 -14 2 -8 6 -134 7 -280 2
-146 6 -296 9 -334 7 -70 1 -85 -33 -86 -10 0 -12 8 -7 30 7 34 -2 90 -15 90
-5 0 -12 -28 -16 -62 -6 -56 -8 -60 -22 -42 -10 13 -16 15 -19 7 -7 -20 -31
-15 -38 7 -4 13 3 37 20 67 23 42 23 45 4 27 -11 -10 -27 -32 -35 -49 -8 -16
-12 -22 -9 -12 2 9 0 17 -4 17 -5 0 -9 -24 -8 -52 0 -32 -3 -52 -10 -51 -5 1
-9 -9 -7 -22 1 -14 -2 -25 -7 -25 -5 0 -9 10 -10 23 0 20 -1 21 -8 2 -7 -18
-8 -18 -18 -1 -7 13 -9 5 -9 -33 1 -56 -1 -60 -35 -63 -22 -3 -24 1 -29 47
l-5 50 -13 -32 c-9 -19 -11 -44 -7 -63 7 -30 6 -31 -27 -27 -51 7 -67 17 -70
45 l-4 27 -12 -29 c-14 -32 -28 -26 -34 14 -4 24 -5 23 -21 -11 -26 -57 -79
-61 -57 -4 14 38 21 97 10 90 -5 -3 -10 -16 -10 -28 -1 -36 -44 -112 -67 -115
-32 -5 -44 18 -32 62 12 43 4 62 -9 25 -26 -68 -26 -69 18 -109 41 -38 41 -38
26 -69 -9 -17 -29 -42 -44 -56 -27 -25 -27 -25 -44 -5 -20 24 -24 25 -32 4
-12 -31 52 -66 79 -44 11 9 15 9 15 1 0 -6 -4 -11 -8 -11 -5 0 -15 -11 -22
-25 -17 -32 -27 -31 -67 3 -37 31 -40 52 -18 106 8 20 11 36 6 36 -5 0 -16
-18 -24 -39 -9 -22 -21 -42 -27 -46 -13 -8 -68 51 -73 79 -3 17 -5 15 -6 -6
-1 -35 66 -114 143 -169 48 -35 56 -44 44 -53 -8 -6 -13 -17 -11 -24 3 -7 -1
-10 -9 -7 -16 6 -41 -13 -57 -44 -11 -19 -11 -22 1 -15 7 4 19 16 26 25 7 10
19 16 26 13 12 -5 32 31 34 59 0 5 12 21 27 37 14 15 27 37 28 49 1 11 5 21 9
21 4 0 8 7 8 16 0 9 5 12 12 8 7 -5 9 -2 5 9 -4 11 12 35 50 74 31 32 50 50
42 40 -11 -16 -10 -20 2 -28 14 -8 12 -10 -13 -13 -7 0 -13 -6 -13 -13 0 -7
-18 -36 -40 -65 -40 -53 -69 -108 -58 -108 4 0 -4 -11 -17 -25 -28 -30 -19
-34 10 -5 11 11 19 25 18 31 -2 6 8 18 21 27 23 16 23 16 17 -6 -6 -17 -4 -21
8 -16 9 3 16 11 16 17 0 6 3 7 7 4 11 -11 32 13 26 30 -5 13 -2 13 20 -2 29
-19 36 -31 13 -22 -8 3 -17 -1 -20 -9 -7 -18 -1 -18 45 4 21 9 39 22 39 29 0
6 14 16 31 22 29 10 34 8 78 -34 25 -24 47 -40 49 -35 9 24 -63 115 -129 162
l-24 18 29 -10 c32 -12 48 -4 26 11 -12 9 -12 10 3 5 12 -4 17 0 17 15 0 11
-4 17 -10 14 -5 -3 -10 -2 -10 2 0 5 9 14 20 21 23 14 31 15 28 5 -2 -5 -7 -7
-12 -5 -5 2 -6 -7 -3 -19 3 -12 -1 -32 -10 -46 -21 -31 -9 -42 15 -13 l18 22
39 -56 c39 -56 55 -69 55 -41 0 8 -4 15 -10 15 -5 0 -10 5 -10 11 0 5 5 7 10
4 6 -3 10 0 10 9 0 8 3 23 6 33 3 10 2 14 -3 8 -16 -20 -47 -41 -39 -27 5 9 1
19 -13 29 -16 11 -20 21 -15 36 6 19 5 20 -10 8 -14 -12 -16 -11 -16 5 0 29
12 42 53 59 44 18 61 10 103 -46 24 -33 33 -89 14 -89 -5 0 -10 -5 -10 -11 0
-21 61 34 76 69 28 68 65 184 60 189 -3 3 -8 -3 -12 -13 -19 -58 -77 -165 -87
-161 -7 2 -12 23 -13 48 -1 49 6 71 16 45 4 -13 15 -2 47 48 42 66 62 81 64
49 3 -44 -4 -77 -27 -133 -28 -70 -29 -74 -9 -66 8 3 15 1 15 -5 0 -6 4 -7 10
-4 14 9 23 -40 16 -85 l-6 -39 45 -6 c54 -9 202 11 270 36 35 13 71 39 119 86
52 51 67 62 61 43 -7 -24 -7 -24 11 -8 19 16 51 94 73 173 12 42 37 82 46 73
3 -3 -5 -26 -19 -52 -13 -25 -21 -46 -17 -46 4 0 17 20 29 45 12 25 26 45 32
45 15 0 13 -6 -16 -51 -14 -23 -27 -50 -29 -61 -2 -11 -18 -34 -35 -51 -18
-19 -26 -33 -19 -36 6 -2 15 3 20 10 6 10 8 7 7 -11 -4 -33 24 -37 64 -8 36
25 119 33 176 16 24 -7 37 -6 47 2 19 16 19 1 0 -24 -21 -28 -19 -46 6 -46 12
0 38 -15 58 -33 20 -18 47 -40 60 -49 18 -13 22 -23 19 -47 -4 -27 -1 -31 24
-36 26 -6 34 -17 28 -40 -13 -53 -16 -85 -7 -88 6 -2 1 -14 -11 -27 -12 -13
-22 -29 -22 -35 0 -7 -22 -24 -48 -38 -27 -14 -54 -38 -62 -52 -7 -14 -17 -25
-22 -25 -4 0 -8 -5 -8 -11 0 -6 12 -2 28 8 49 33 67 43 89 53 12 5 41 21 63
35 38 24 40 28 24 39 -16 13 -15 15 14 30 30 15 34 15 48 1 10 -10 20 -12 28
-7 18 15 66 23 66 12 0 -5 6 -10 13 -10 8 0 27 -11 43 -25 16 -14 35 -25 42
-25 10 0 10 -4 0 -20 -7 -11 -20 -20 -29 -20 -9 0 -19 -7 -23 -15 -3 -8 -12
-15 -20 -15 -8 0 -16 -3 -18 -7 -7 -17 -97 -83 -112 -83 -21 0 -10 -28 23 -57
16 -14 22 -26 16 -30 -5 -5 -11 -15 -13 -23 -2 -11 1 -11 11 3 18 22 29 21 75
-2 37 -19 162 -137 162 -153 0 -5 -12 -6 -27 -4 -15 3 -32 1 -39 -5 -8 -6 -21
-6 -38 1 -38 14 -51 13 -77 -10 l-24 -20 48 7 c54 7 73 -7 56 -39 -6 -10 -7
-23 -4 -28 3 -6 2 -10 -4 -10 -6 0 -8 -6 -5 -14 3 -7 -1 -20 -8 -27 -28 -29
-74 -95 -86 -123 -9 -21 -18 -27 -32 -23 -11 3 -23 1 -26 -4 -3 -5 -10 -9 -15
-9 -6 0 -7 4 -4 10 4 6 -1 7 -11 3 -13 -5 -16 -2 -12 8 17 45 20 61 9 55 -6
-4 -11 -13 -11 -21 0 -8 -4 -16 -9 -20 -13 -8 -10 38 4 47 6 5 5 8 -4 8 -11 0
-11 3 -1 15 7 8 9 15 5 15 -11 0 -61 -57 -58 -66 6 -19 -15 -36 -36 -29 -22 7
-24 32 -2 28 6 -2 11 2 11 7 0 17 -26 11 -44 -9 -21 -23 -64 -18 -45 5 6 8 7
14 2 14 -14 0 -45 -59 -37 -71 3 -6 0 -16 -7 -21 -10 -7 -8 -8 7 -3 26 7 39
-17 24 -45 -15 -28 -96 -44 -134 -27 -17 8 -16 11 11 40 16 18 49 59 74 92 65
88 91 115 102 108 6 -3 7 -1 3 6 -4 6 4 25 18 42 14 17 26 34 26 38 0 4 11 13
25 19 14 6 25 16 25 22 0 5 -11 12 -25 16 -14 3 -25 10 -25 16 0 5 -10 6 -21
3 -19 -6 -21 -4 -16 15 4 17 3 20 -6 11 -16 -16 -32 -14 -17 4 10 11 9 18 -3
30 -14 13 -18 12 -36 -12 -12 -14 -19 -29 -15 -32 3 -3 14 5 24 19 11 14 20
20 20 13 0 -7 -14 -28 -30 -47 l-31 -35 32 -3 31 -3 -23 -20 c-19 -17 -22 -18
-16 -2 4 9 2 17 -3 17 -6 0 -10 -4 -10 -8 0 -10 -60 -45 -67 -39 -8 8 17 48
45 72 21 18 22 23 10 28 -16 6 -72 -46 -61 -57 3 -3 -2 -17 -11 -32 -10 -14
-20 -23 -23 -20 -3 3 2 17 11 31 9 14 12 25 7 25 -6 0 -15 -8 -20 -17 -6 -10
-11 -13 -11 -7 0 6 9 19 21 30 25 23 52 71 47 86 -2 5 -24 -17 -48 -51 -25
-34 -48 -61 -51 -61 -13 0 -20 33 -9 44 5 5 10 21 10 35 l0 25 -35 -34 c-19
-18 -33 -36 -30 -39 2 -4 -3 -17 -12 -31 l-14 -25 5 25 c4 22 4 23 -8 8 -17
-23 -37 -23 -30 0 2 9 -1 7 -8 -6 -9 -19 -9 -25 2 -32 19 -12 8 -22 -14 -14
-9 4 -15 13 -12 20 3 8 9 21 12 29 5 11 2 14 -12 8 -11 -4 -15 -3 -11 4 4 6
17 11 30 11 28 0 73 27 81 48 5 12 2 12 -16 3 l-22 -12 18 29 19 29 -26 -24
c-19 -17 -25 -19 -23 -7 1 8 5 19 9 22 17 18 5 23 -18 8 -47 -31 -25 2 43 65
66 60 150 107 138 76 -3 -9 5 -12 28 -10 24 2 48 18 90 60 32 31 56 58 53 61
-2 3 -28 -20 -56 -49 -36 -38 -59 -54 -75 -53 -15 0 -22 6 -18 14 2 7 1 12 -4
10 -5 -1 -19 2 -32 6 -28 9 -92 -35 -128 -88 -15 -21 -30 -33 -38 -30 -8 3
-17 0 -22 -7 -5 -9 -2 -10 10 -6 22 9 11 -10 -14 -23 -16 -9 -18 -8 -13 7 5
12 1 11 -16 -6 -12 -12 -19 -26 -16 -31 3 -5 0 -7 -8 -4 -8 3 -27 -6 -42 -20
-15 -14 -32 -26 -38 -26 -5 0 -7 -6 -4 -14 3 -8 1 -17 -6 -20 -9 -5 -9 -7 1
-12 9 -4 10 -10 2 -19 -6 -8 -7 -21 -2 -36 l9 -23 18 27 c9 15 21 25 25 22 4
-3 10 2 13 10 4 9 1 12 -7 9 -14 -5 -26 15 -22 38 2 17 46 66 46 52 0 -5 -9
-24 -20 -41 -25 -42 -19 -41 30 3 22 20 40 32 40 26 0 -6 -11 -19 -24 -30 -17
-12 -26 -33 -31 -65 -7 -43 -5 -47 19 -58 20 -10 25 -17 20 -33 -12 -39 -57
-126 -73 -140 -14 -13 -20 -11 -48 14 -39 35 -52 59 -46 85 2 11 6 47 9 80 2
33 7 67 11 75 3 8 7 17 8 20 19 56 89 124 159 155 33 14 124 96 145 130 11 18
12 18 7 1 -5 -16 -4 -17 8 -7 11 9 20 9 34 2 14 -7 29 -7 51 2 30 11 42 27 21
27 -7 0 -7 6 0 20 12 23 -2 27 -20 6 -8 -11 -18 -12 -35 -6 -12 5 -32 6 -44 3
-13 -3 -21 -1 -21 7 0 10 -3 10 -15 0 -9 -7 -19 -9 -23 -5 -4 4 -1 10 6 12 6
3 12 9 12 15 0 7 -5 6 -14 -1 -16 -14 -46 -4 -46 15 0 7 11 21 25 30 14 9 23
19 20 22 -3 3 -19 -7 -35 -23 -17 -16 -37 -30 -45 -31 -20 -3 -30 15 -16 29 6
6 11 15 11 21 0 6 -5 5 -12 -2 -20 -20 -28 -13 -16 13 6 14 15 25 20 25 4 0 8
6 8 13 0 6 -16 -5 -35 -27 l-34 -39 -36 17 c-19 9 -35 21 -35 27 0 15 -32 7
-54 -13 -22 -20 -26 -21 -44 -10 -10 7 -10 15 -2 37 6 15 8 30 6 33 -6 6 -26
-43 -26 -64 0 -8 -4 -14 -10 -14 -13 0 -13 36 1 63 9 20 8 20 -11 -2 -11 -13
-19 -30 -16 -37 3 -7 1 -16 -4 -19 -24 -15 -21 48 6 139 7 27 14 54 13 60 0
16 -49 -116 -49 -135 0 -9 -7 -16 -15 -16 -11 0 -13 6 -9 20 4 13 2 17 -5 13
-6 -4 -11 -22 -12 -39 0 -26 -2 -28 -8 -12 -4 11 -6 40 -4 65 l3 45 -15 -45
c-8 -25 -12 -53 -9 -62 4 -13 1 -16 -10 -12 -9 3 -16 1 -16 -5 0 -15 -37 -14
-46 1 -4 6 -7 40 -7 75 1 35 -4 63 -9 63 -5 0 -8 -6 -5 -12 2 -7 0 -21 -5 -32
-7 -12 -6 -22 0 -28 16 -16 -7 -46 -30 -40 -15 4 -18 11 -14 33 14 73 16 94 7
74 -5 -11 -13 -38 -17 -60 -5 -33 -8 -37 -14 -20 -5 11 -9 14 -9 8 -1 -18 -41
-16 -48 3 -3 8 -12 13 -20 10 -8 -4 -20 -3 -26 1 -15 9 -47 11 -47 3 0 -3 24
-17 53 -31 50 -23 52 -26 51 -61 -1 -45 -16 -64 -62 -84 -41 -17 -49 -12 -57
36 -7 42 -13 49 -21 24 -17 -53 -27 -74 -36 -74 -6 0 -8 7 -5 15 4 8 1 17 -5
21 -7 5 -9 -2 -6 -19 4 -19 -1 -32 -18 -46 -13 -12 -24 -18 -24 -13 0 4 -7 -1
-14 -11 -10 -13 -16 -15 -21 -6 -4 6 -3 14 2 18 6 3 14 22 18 41 7 33 7 34
-11 20 -10 -8 -30 -28 -45 -45 -22 -24 -30 -28 -40 -17 -7 6 -22 12 -33 12
-18 0 -17 -3 7 -28 23 -24 26 -33 18 -54 -20 -54 -141 -113 -141 -70 0 7 -4
10 -10 7 -14 -9 -44 -75 -36 -82 14 -14 51 -9 86 10 l35 21 -25 -29 -25 -28
25 13 c20 10 17 4 -15 -31 -60 -65 -92 -105 -73 -91 12 10 22 11 37 2 17 -9
20 -8 15 5 -3 8 -10 12 -15 9 -5 -3 -9 0 -9 5 0 10 14 15 33 12 5 -1 6 3 3 8
-4 5 12 27 34 49 23 22 39 44 38 48 -2 5 0 9 3 9 3 0 13 6 23 14 9 8 20 10 24
6 4 -4 2 -10 -4 -12 -7 -2 -10 -12 -8 -21 3 -10 -9 -31 -26 -49 -16 -18 -30
-36 -30 -40 0 -4 -16 -25 -35 -46 -19 -20 -38 -45 -44 -55 -9 -16 -11 -16 -43
1 -18 9 -52 19 -74 21 -51 4 -65 12 -57 33 4 11 3 14 -5 9 -16 -9 -15 -39 1
-55 10 -11 9 -15 -3 -19 -8 -3 -34 -25 -57 -50 -24 -25 -46 -43 -49 -39 -11
11 -77 -22 -112 -56 l-32 -31 2 154 c3 137 5 158 23 182 11 15 24 26 29 25 13
-4 27 -57 15 -57 -9 0 -30 -41 -24 -48 1 -1 20 16 43 37 l42 40 -31 30 c-24
24 -29 38 -28 68 1 21 5 42 8 47 2 6 5 19 6 30 1 12 6 30 10 41 6 16 2 14 -23
-9 -17 -15 -28 -34 -26 -40 3 -7 -7 -23 -22 -36 -25 -23 -26 -24 -15 -3 14 27
14 36 1 28 -5 -3 -8 23 -6 67 2 61 8 84 34 131 18 32 32 61 32 64 0 11 -40
-30 -40 -41 0 -6 -6 -19 -14 -28 -11 -14 -12 -8 -11 40 3 74 3 72 20 72 8 0
15 5 15 11 0 6 -7 9 -15 6 -8 -4 -17 -1 -21 4 -9 16 -13 355 -4 395 5 19 21
51 37 70 15 20 38 54 51 76 13 23 37 60 53 82 25 33 20 30 -20 -13 -59 -64
-67 -53 -15 22 46 66 94 117 111 117 7 0 13 5 13 10 0 19 -29 10 -62 -19 -18
-16 -53 -57 -78 -90 -27 -37 -52 -61 -64 -61 -18 0 -18 1 -1 20 20 22 8 28
-15 8 -12 -11 -12 -10 -1 5 7 9 19 17 25 17 6 0 20 14 29 30 10 17 22 30 26
30 14 0 59 72 74 118 14 39 14 43 -1 40 -10 -2 -17 -13 -18 -28 -1 -38 -34
-101 -59 -110 -12 -4 -36 -26 -53 -47 -21 -25 -31 -33 -32 -21 0 9 13 27 29
40 16 13 32 34 36 48 l7 25 -25 -24 c-38 -35 -66 -8 -31 30 15 16 14 17 -5 12
-20 -5 -21 -2 -21 71 0 68 2 77 18 75 33 -3 35 1 15 24 -12 12 -23 38 -25 57
-3 34 -1 35 52 57 68 28 91 28 121 4 23 -19 24 -19 46 5 14 15 28 21 39 17 14
-5 15 -1 9 25 -3 18 -1 40 5 52 10 18 19 21 48 18 21 -3 44 -8 52 -12 10 -4
18 1 25 16 6 13 22 29 38 36 15 7 27 17 27 23 0 17 -22 9 -57 -21 -27 -24 -38
-28 -53 -20 -38 20 -68 12 -94 -26 -13 -20 -33 -42 -45 -50 -12 -9 -21 -22
-21 -31 0 -14 -3 -14 -25 1 -32 21 -58 20 -105 -4 -74 -38 -70 -53 -70 266 0
158 -5 374 -11 480 -9 155 -9 197 2 210 7 9 18 12 28 7 9 -4 48 -8 86 -9z
m1126 -854 c20 -5 67 -36 105 -68 122 -102 164 -225 109 -319 -14 -23 -21 -43
-15 -43 5 0 18 18 27 41 12 31 18 38 24 26 13 -22 6 -147 -7 -147 -19 0 -25
-30 -9 -36 24 -10 20 -94 -7 -134 -27 -40 -52 -48 -171 -57 -70 -5 -96 -11
-123 -30 -45 -30 -54 -29 -54 5 -1 15 -3 101 -5 192 -3 91 -7 261 -10 379 l-4
214 52 -6 c29 -3 68 -11 88 -17z m-1264 -912 l3 -285 -25 -23 c-14 -13 -25
-29 -25 -35 0 -14 -99 -124 -100 -110 0 6 10 21 23 35 50 57 47 62 -6 10 -31
-30 -57 -48 -57 -41 0 8 10 24 23 36 12 12 40 42 62 66 l40 44 -38 -28 c-20
-16 -41 -26 -46 -23 -5 4 -7 -3 -4 -15 5 -18 3 -20 -18 -14 -18 5 -20 4 -9 -4
13 -9 13 -12 -2 -27 -17 -17 -18 -17 -36 4 -14 16 -21 19 -30 10 -9 -9 -17 -7
-33 9 l-22 21 29 46 c16 25 34 44 41 41 6 -2 19 3 30 11 17 14 17 15 -5 9 -20
-6 -22 -4 -17 18 6 21 3 26 -17 29 -14 2 -22 9 -21 18 2 11 -5 16 -24 15 -46
0 -40 30 9 50 42 18 50 20 75 23 7 1 17 11 23 22 9 17 7 22 -12 30 -21 8 -20
9 11 9 33 1 33 1 17 26 -28 42 -15 85 25 85 9 0 24 11 33 24 9 14 27 26 43 28
33 4 41 24 13 33 -20 6 -47 49 -46 72 1 16 68 74 80 70 7 -2 12 -100 13 -289z
m6 -407 c-2 -74 -6 -125 -12 -160 -1 -2 -10 4 -21 14 -23 21 -25 52 -5 79 8
11 15 29 15 40 -1 21 -1 21 -16 1 -8 -11 -18 -32 -21 -46 -5 -26 -65 -99 -80
-99 -4 0 -16 7 -27 15 -22 17 -15 45 11 44 10 0 13 -3 6 -5 -7 -3 -9 -12 -6
-20 5 -13 8 -12 23 3 23 24 15 52 -13 45 -16 -4 -2 16 46 67 37 39 67 77 67
84 0 16 21 38 30 32 3 -2 5 -45 3 -94z m2574 -145 c39 -62 133 -250 133 -267
0 -9 3 -19 7 -23 7 -7 15 -46 9 -46 -2 0 -16 26 -31 58 -88 184 -115 228 -208
340 -85 103 -81 135 6 41 33 -35 71 -81 84 -103z m-1383 39 c3 -8 0 -14 -6
-12 -7 1 -12 -5 -13 -13 0 -8 -10 -34 -23 -57 -24 -46 -27 -57 -12 -48 13 8
13 4 -6 -40 -17 -42 -30 -43 -14 -1 7 19 7 25 -1 21 -18 -12 -30 -56 -19 -70
6 -7 7 -20 4 -30 -6 -15 -4 -16 15 -6 17 10 27 9 50 -5 28 -17 31 -25 22 -76
-3 -16 -34 -38 -56 -38 -25 0 -65 45 -65 74 0 9 -4 16 -10 16 -16 0 -12 57 5
74 8 8 15 18 15 22 0 4 15 39 34 78 18 39 39 83 45 99 12 30 26 35 35 12z
m221 -35 c-1 -11 -4 -23 -8 -26 -14 -14 -7 -26 8 -14 21 18 19 7 -14 -58 -44
-85 -75 -172 -75 -209 0 -20 -3 -28 -8 -20 -4 6 -8 9 -8 5 0 -3 -3 -14 -7 -24
-4 -11 -3 -15 5 -10 6 4 5 -5 -3 -21 -8 -16 -15 -41 -17 -58 -2 -16 -10 -35
-18 -41 -12 -10 -13 -16 -1 -38 8 -14 11 -29 8 -33 -4 -3 -7 2 -8 13 -1 10 -5
3 -9 -16 -6 -23 -5 -37 2 -41 6 -4 13 -22 15 -41 8 -82 10 -128 5 -123 -3 3
-7 20 -9 38 -8 88 -11 108 -17 114 -3 3 -6 -42 -6 -100 0 -60 4 -107 9 -107 6
0 10 -8 9 -17 0 -10 3 -61 6 -113 4 -52 9 -178 11 -280 3 -102 9 -219 14 -260
6 -41 11 -81 11 -87 0 -7 5 -13 11 -13 6 0 8 7 5 16 -10 27 -16 202 -6 179 5
-11 9 -49 9 -85 1 -37 6 -71 12 -77 8 -8 8 -17 -3 -32 -18 -25 -11 -77 27
-211 34 -118 57 -165 104 -207 33 -30 42 -33 101 -33 53 0 75 -6 120 -30 60
-32 78 -37 61 -17 -6 8 -8 17 -4 20 3 4 1 7 -6 7 -13 0 -63 33 -96 64 -20 19
-20 19 10 4 87 -44 144 -68 158 -68 10 0 17 -4 17 -10 0 -16 17 -12 24 6 3 8
2 12 -4 9 -6 -3 -10 -2 -10 2 0 5 -16 17 -35 28 -44 23 -87 64 -79 76 3 5 14
9 25 9 11 0 17 -5 14 -10 -4 -6 -11 -8 -16 -5 -5 4 -9 1 -9 -4 0 -6 6 -12 13
-12 6 -1 21 -3 32 -4 11 -1 28 -2 38 -3 10 -1 16 -6 13 -11 -7 -11 37 -20 119
-26 33 -3 83 -11 110 -19 82 -24 128 -29 123 -14 -3 8 -24 14 -53 16 -26 2
-58 10 -72 19 -33 22 -16 37 28 26 39 -11 119 -5 119 8 0 5 -19 9 -42 9 -24 0
-52 1 -63 2 -11 0 -40 0 -65 -1 -25 -2 -56 -2 -70 -2 -24 1 -23 2 9 18 19 9
29 19 23 21 -6 2 -29 -6 -52 -18 -50 -25 -70 -17 -39 16 29 31 18 30 -37 -2
-49 -29 -56 -19 -23 28 31 43 13 48 -22 5 -37 -45 -47 -46 -45 -7 0 16 -3 29
-9 27 -5 -1 -9 -8 -9 -14 2 -11 -28 -19 -39 -10 -2 1 -11 -3 -19 -10 -22 -18
-79 1 -119 40 -35 34 -61 80 -101 181 -19 50 -21 60 -8 64 8 2 43 33 77 68 88
91 127 181 145 339 12 110 12 114 4 195 -18 172 -59 298 -121 374 -40 49 -42
83 -4 71 28 -9 119 -12 119 -4 0 9 -27 19 -53 19 -22 1 -22 1 -2 12 11 7 26
18 33 25 7 7 18 13 23 13 5 0 9 5 9 10 0 7 -6 7 -20 0 -32 -17 -23 5 16 39 23
21 42 30 54 26 10 -3 21 -1 25 5 3 5 10 10 16 10 18 0 8 -15 -22 -32 -16 -10
-27 -13 -24 -8 3 6 1 10 -5 10 -7 0 -9 -7 -6 -16 3 -8 -3 -25 -14 -36 -22 -24
-27 -43 -8 -32 7 5 24 21 38 38 13 16 38 42 55 57 16 16 24 29 17 29 -7 0 -10
4 -7 10 4 6 -1 7 -11 3 -15 -6 -14 -2 4 25 13 17 28 35 35 38 7 4 3 -2 -7 -14
-11 -12 -17 -25 -14 -28 3 -3 21 13 39 34 19 22 49 52 67 67 l33 27 -13 -28
c-13 -31 -109 -161 -151 -206 -13 -15 -40 -47 -58 -72 -18 -25 -37 -46 -42
-46 -6 0 -7 -3 -4 -7 4 -3 -2 -12 -13 -20 -28 -20 -25 -33 10 -33 16 0 40 -5
54 -11 20 -10 30 -9 51 5 14 9 30 14 35 11 17 -10 47 4 64 30 15 22 15 27 -1
60 -21 45 -13 53 30 26 36 -22 67 -19 67 5 0 20 10 17 41 -12 24 -23 33 -25
68 -19 47 8 91 47 91 81 0 17 6 24 19 24 22 0 85 85 75 101 -26 43 3 96 61
109 34 8 43 6 63 -13 40 -37 156 -218 184 -287 51 -128 119 -392 104 -407 -9
-9 -22 36 -35 112 -12 68 -30 120 -31 85 0 -8 16 -98 36 -200 33 -170 36 -195
31 -310 -3 -77 -15 -171 -31 -245 -14 -66 -26 -129 -26 -139 0 -11 -12 -44
-27 -75 -15 -31 -27 -59 -28 -62 0 -3 -8 -17 -17 -30 -10 -13 -32 -51 -49 -84
-56 -107 -189 -260 -237 -272 -27 -6 -97 -57 -138 -100 -14 -13 -81 -41 -180
-73 -253 -81 -486 -111 -847 -111 -120 0 -221 2 -225 5 -8 5 -506 20 -605 19
-85 -1 -102 -13 -21 -14 32 0 68 -4 79 -9 12 -5 -49 -9 -157 -9 l-176 -1 4 38
c10 96 15 830 9 1267 -1 121 3 158 16 149 5 -3 9 0 9 5 0 6 -7 11 -15 11 -21
0 -19 20 3 21 15 1 15 2 1 6 -13 3 -16 14 -14 51 2 26 4 49 5 52 1 3 1 69 0
148 -2 122 0 142 14 142 8 0 27 11 42 25 14 13 30 22 35 19 11 -7 12 -34 1
-34 -16 0 -54 -62 -45 -71 6 -6 20 5 37 31 28 43 40 47 70 25 18 -14 18 -16
-13 -51 -52 -59 -57 -82 -24 -117 27 -28 69 -52 86 -48 4 1 5 -13 2 -31 -6
-29 -2 -36 25 -56 l31 -23 33 21 c19 11 37 27 40 35 3 8 16 15 30 15 16 0 35
13 55 37 l31 37 46 -12 c43 -12 48 -11 66 8 10 11 23 20 28 20 6 0 10 8 10 18
0 9 7 26 15 36 15 19 15 19 15 -4 0 -19 3 -21 12 -12 21 21 27 13 17 -18 -6
-16 -17 -30 -25 -30 -8 0 -14 -7 -14 -15 0 -8 5 -15 12 -15 18 0 58 41 58 61
0 18 19 29 49 29 9 0 30 17 45 38 16 20 44 45 63 55 50 26 63 11 62 -72 -3
-305 -1 -697 3 -926 l3 -120 33 -3 c17 -2 32 -7 32 -12 0 -13 -85 -124 -126
-164 -22 -21 -52 -44 -67 -52 -15 -8 -55 -32 -88 -54 -33 -21 -73 -42 -89 -45
-17 -4 -30 -11 -30 -16 0 -5 1 -9 3 -9 15 0 120 45 192 83 162 84 262 227 296
421 43 254 50 350 31 461 -6 33 -11 78 -11 100 -1 82 -40 213 -93 317 -64 124
-99 156 -261 241 -158 82 -217 118 -217 131 0 5 7 3 15 -4 8 -6 18 -9 23 -6 5
3 32 -6 58 -20 27 -15 85 -38 128 -51 72 -23 89 -34 175 -112 61 -55 87 -74
71 -52 -13 19 -35 46 -50 60 -14 14 -37 43 -50 63 -14 21 -33 38 -42 38 -10 0
-18 4 -18 9 0 4 -11 6 -24 4 -13 -3 -26 0 -30 5 -7 12 44 104 61 109 6 2 36
-47 68 -111 31 -64 61 -116 66 -116 11 0 12 15 0 38 -32 64 -84 181 -81 184 2
2 -6 21 -17 43 -12 22 -21 45 -22 50 -2 18 -86 114 -100 115 -8 0 -11 3 -8 7
4 4 -5 20 -20 36 -25 27 -26 28 -5 18 27 -14 146 -131 185 -181 24 -30 23 -26
-8 33 -31 58 -34 69 -22 81 11 11 17 12 26 3 15 -15 14 -30 -1 -21 -7 4 -4 -4
7 -17 12 -13 26 -35 32 -49 30 -71 55 -127 66 -145 6 -11 22 -40 36 -65 13
-25 39 -63 57 -85 32 -41 58 -85 50 -85 -2 0 -28 30 -57 68 -30 37 -58 70 -64
74 -5 4 -6 8 -1 8 6 0 1 6 -10 14 -10 8 -20 13 -22 11 -5 -5 39 -83 55 -97 9
-7 34 -37 55 -66 22 -30 42 -52 44 -49 2 2 6 28 9 58 3 30 10 56 15 57 12 4
14 32 2 32 -10 0 -82 63 -82 73 0 4 9 7 20 7 11 0 20 -5 20 -12 0 -30 50 40
61 86 6 28 20 67 30 87 10 19 21 64 25 98 4 35 14 72 24 84 17 21 18 19 16
-60 -1 -75 0 -80 12 -55 8 15 26 38 40 51 15 13 21 20 13 16 -10 -6 -11 -2 -6
16 4 13 12 26 16 27 5 2 7 8 3 13 -3 5 -2 14 1 19 9 15 12 12 10 -10z m-1415
-402 c-2 -148 -3 -153 -20 -153 -9 0 -14 7 -12 18 3 18 -13 23 -23 7 -9 -14
-26 -12 -24 3 4 30 -2 47 -16 47 -22 0 -28 22 -15 55 12 32 100 139 107 131 3
-3 4 -51 3 -108z m1638 46 c-12 -32 -31 -73 -42 -90 -19 -28 -74 -114 -101
-156 -5 -9 -38 -56 -71 -106 -62 -91 -100 -178 -95 -219 1 -13 -2 -23 -8 -23
-6 0 -11 11 -11 24 0 13 -6 27 -12 29 -8 4 -7 6 3 6 22 1 32 71 11 71 -7 0
-10 -5 -7 -10 3 -6 3 -20 -1 -33 -6 -18 -9 -13 -16 28 -4 30 -3 51 2 53 6 2
10 10 10 17 0 16 54 74 91 97 24 15 118 147 154 218 10 18 23 39 29 45 6 7 27
34 46 62 19 28 36 50 37 49 1 -1 -7 -29 -19 -62z m-1259 -30 c3 -3 -1 -15 -9
-27 -17 -26 -80 -145 -80 -151 0 -2 6 -6 14 -9 10 -4 14 0 13 11 -1 20 51 129
73 154 10 11 24 15 37 12 21 -6 20 -9 -21 -68 -28 -41 -55 -101 -79 -175 -47
-145 -53 -156 -72 -137 -12 12 -13 20 -3 43 10 26 13 33 17 58 1 6 5 4 9 -2 5
-8 8 1 8 22 0 19 -1 35 -2 35 -1 0 -15 -12 -31 -27 -33 -33 -77 -96 -50 -75 9
8 19 22 22 33 4 10 10 19 15 19 5 0 0 -16 -11 -35 -24 -41 -29 -42 -52 -14
-18 20 -17 22 10 57 15 20 31 40 35 46 4 6 10 7 14 3 4 -3 1 -13 -6 -22 -8
-10 -9 -15 -2 -15 15 0 31 31 25 48 -3 7 1 19 7 28 7 8 10 18 6 21 -4 4 -11 1
-16 -7 -8 -12 -14 -12 -44 3 -49 23 -40 44 58 139 43 41 54 47 80 42 17 -3 33
-7 35 -10z m282 -92 c-11 -17 -21 -33 -21 -36 0 -7 -33 -85 -53 -125 -7 -13
-21 -29 -32 -35 -11 -6 -23 -15 -28 -21 -11 -15 2 94 14 117 19 35 3 29 -28
-10 -26 -32 -83 -141 -83 -159 0 -3 7 0 15 7 10 8 15 9 15 2 0 -6 -6 -15 -13
-19 -7 -4 -20 -18 -29 -31 -12 -17 -17 -20 -26 -10 -7 9 -3 27 14 61 12 27 28
65 35 85 15 47 27 62 45 55 8 -3 14 -1 14 5 0 6 -5 12 -12 14 -6 2 5 20 25 41
35 35 48 55 27 42 -5 -3 -10 -4 -10 -1 0 2 -3 11 -6 20 -4 10 -1 16 7 16 7 0
9 -3 6 -7 -4 -3 1 -12 11 -19 16 -11 16 -13 -2 -33 -11 -12 -14 -21 -9 -21 6
0 16 7 23 15 7 8 16 15 20 15 3 0 7 -7 7 -15 0 -8 -7 -15 -15 -15 -9 0 -13 -3
-9 -6 3 -3 -3 -26 -13 -50 -11 -24 -15 -44 -10 -44 5 0 6 -7 3 -17 -4 -11 -3
-14 5 -9 7 4 12 16 12 27 0 11 4 18 9 14 5 -3 13 0 17 6 4 8 3 9 -4 5 -16 -10
-15 9 1 26 13 15 62 111 72 142 4 14 9 16 17 8 7 -7 5 -19 -11 -40z m906 -234
c70 -111 103 -229 103 -364 0 -108 -17 -160 -65 -201 -39 -34 -147 -93 -170
-93 -30 0 -30 442 0 540 19 61 76 180 86 180 4 0 25 -28 46 -62z"/>
<path d="M9317 7290 c-31 -16 -67 -30 -80 -30 -42 0 -123 -100 -141 -174 -6
-23 -11 -27 -29 -21 -39 12 -61 7 -86 -21 -20 -24 -30 -27 -72 -25 -47 2 -50
0 -70 -34 -12 -19 -30 -40 -40 -46 -11 -5 -19 -20 -19 -34 0 -25 35 -65 57
-65 7 0 13 -5 13 -11 0 -24 -33 -109 -42 -109 -6 0 -6 -6 1 -14 19 -22 -5 -29
-34 -10 -21 14 -24 14 -20 1 4 -9 -4 -23 -19 -35 -26 -20 -34 -42 -17 -42 5 0
14 7 22 16 8 10 22 14 40 10 21 -4 28 0 37 20 16 34 36 30 61 -11 11 -19 25
-35 31 -35 13 0 13 13 -2 28 -9 9 -9 17 -1 34 6 13 14 41 17 63 l5 40 -22 -40
c-12 -22 -28 -40 -35 -39 -7 1 -22 2 -33 3 -21 1 -21 2 5 26 26 24 30 33 27
71 -1 12 5 38 13 58 8 19 11 38 7 41 -12 7 -21 -5 -21 -27 0 -25 -22 -23 -49
6 l-22 24 28 26 c15 14 33 26 39 26 7 0 10 8 7 20 -5 17 0 20 28 20 19 0 40
-4 48 -9 18 -12 51 -2 45 13 -9 23 24 39 64 32 37 -5 39 -4 57 32 11 20 20 42
20 48 0 6 5 18 11 25 6 8 14 22 17 32 4 10 17 17 32 17 17 0 25 5 25 18 0 18
33 36 88 47 17 4 32 12 32 20 0 21 49 28 76 10 30 -20 32 -2 2 19 -30 21 -37
21 -101 -14z"/>
<path d="M9415 7250 c-29 -6 -29 -6 -7 -14 30 -10 55 -50 48 -74 -5 -15 -1
-21 21 -25 19 -4 34 -17 47 -41 11 -20 22 -36 26 -36 15 0 120 52 126 62 4 5
26 22 50 38 53 33 88 30 110 -11 14 -28 13 -31 -11 -53 l-26 -24 33 -20 c42
-26 61 -57 52 -85 -5 -18 -4 -20 7 -9 27 25 32 11 6 -16 -32 -33 -29 -50 14
-74 29 -17 30 -19 23 -68 -6 -43 -4 -50 9 -44 11 4 15 15 12 36 -4 34 11 72
25 63 5 -3 11 -1 15 4 3 5 -3 14 -12 20 -25 13 -3 35 26 26 21 -6 29 -25 11
-25 -20 0 -9 -18 14 -22 27 -5 47 3 89 39 23 19 40 23 92 23 94 0 112 -13 83
-59 -15 -24 -4 -51 21 -51 32 0 35 -20 7 -49 -33 -34 -33 -46 0 -68 l26 -17
-26 -23 c-14 -12 -32 -20 -39 -17 -7 2 -34 -17 -59 -43 -26 -26 -74 -74 -107
-107 -34 -32 -61 -62 -61 -67 0 -17 22 -9 64 23 22 18 35 25 27 15 -7 -9 -10
-17 -6 -17 4 0 2 -7 -5 -15 -26 -31 0 -13 40 27 35 36 38 43 24 51 -10 6 -20
5 -27 -2 -8 -8 -8 -11 2 -11 7 0 9 -5 5 -11 -4 -8 -9 -7 -15 2 -6 11 -12 9
-31 -5 -21 -18 16 18 86 82 31 28 27 12 -6 -24 -18 -21 -18 -22 -1 -28 13 -6
27 3 54 33 27 30 41 39 57 34 26 -6 28 4 6 28 -15 17 -15 19 10 30 30 14 32
32 11 73 -13 25 -13 31 -2 45 17 20 27 56 18 68 -3 5 -15 14 -25 20 -14 8 -20
22 -20 49 -1 30 -6 41 -26 51 -39 20 -133 17 -161 -6 -53 -40 -67 -44 -96 -22
-33 27 -53 26 -88 -1 l-28 -22 5 25 c3 13 9 32 13 41 5 13 -7 32 -43 70 -50
53 -51 54 -41 96 11 51 10 55 -35 76 -52 25 -77 20 -126 -24 -29 -26 -46 -36
-51 -28 -5 7 -18 1 -39 -20 -39 -40 -58 -40 -71 -2 -6 16 -20 32 -30 35 -11 4
-30 28 -42 54 -21 44 -24 47 -52 41z"/>
<path d="M9551 3674 c-1 -39 -8 -94 -16 -122 -9 -29 -15 -58 -14 -65 1 -6 -4
-25 -11 -42 -7 -16 -14 -34 -14 -40 -1 -5 -6 -19 -12 -30 -6 -11 -14 -33 -18
-49 -4 -16 -32 -53 -61 -83 -41 -40 -51 -55 -40 -59 9 -4 37 12 71 40 31 25
63 46 70 46 8 0 22 4 32 9 44 24 81 38 84 32 2 -3 19 -14 38 -23 19 -10 59
-31 89 -48 30 -16 65 -30 78 -30 33 0 21 16 -17 24 -17 3 -50 21 -73 40 -23
19 -51 35 -62 37 -13 3 -22 16 -28 42 -10 41 -22 48 -30 17 -3 -11 -10 -20
-16 -20 -6 0 -11 9 -11 20 0 22 -16 27 -23 8 -3 -7 -4 10 -1 37 12 157 12 215
-1 270 l-13 60 -1 -71z"/>
<path d="M9460 3512 c0 -11 -5 -24 -11 -27 -6 -4 -8 -13 -5 -21 3 -7 0 -11 -7
-9 -7 2 -23 -11 -37 -29 -14 -19 -40 -45 -57 -60 -40 -34 -235 -130 -324 -160
-70 -24 -94 -36 -68 -36 19 1 121 35 145 49 45 27 163 65 203 66 36 1 45 5 52
24 5 12 30 50 56 84 27 34 48 64 49 67 0 3 4 18 9 33 4 15 5 31 1 34 -3 4 -6
-3 -6 -15z"/>
<path d="M12500 7933 c-74 -2 -146 -6 -160 -9 l-25 -6 25 -10 c28 -11 345 -19
433 -11 47 5 57 9 57 24 0 17 -8 19 -97 17 -54 -1 -159 -4 -233 -5z"/>
<path d="M12640 7221 c-36 -10 -90 -29 -120 -43 -59 -27 -138 -74 -105 -63 25
8 18 2 -65 -60 -61 -46 -64 -43 -15 14 l20 25 -32 -20 c-17 -10 -44 -36 -60
-56 -102 -131 -124 -165 -162 -242 -97 -198 -126 -480 -69 -666 11 -36 21 -76
22 -90 2 -22 51 -122 201 -408 49 -95 108 -202 215 -397 134 -243 124 -211
105 -329 -9 -55 -23 -108 -31 -117 -10 -11 -11 -18 -3 -26 9 -9 7 -33 -5 -94
-11 -57 -13 -86 -6 -93 5 -5 10 -21 11 -35 0 -26 1 -26 11 -4 10 20 18 22 102
22 50 0 113 3 139 6 46 6 48 5 38 -13 -8 -16 -7 -21 5 -26 23 -9 27 -7 21 8
-5 11 -1 11 24 -1 16 -8 26 -19 23 -25 -5 -7 4 -8 27 -4 19 4 46 7 62 7 15 0
27 4 27 9 0 6 -5 10 -11 10 -5 0 -7 5 -4 10 4 6 12 5 21 -4 17 -18 18 -33 2
-39 -22 -7 -1 -19 22 -12 17 5 19 10 9 21 -9 11 -7 14 10 14 11 0 21 4 21 9 0
14 43 21 57 9 7 -5 11 -13 8 -17 -5 -9 174 -6 182 3 4 3 -1 6 -11 6 -9 0 -14
5 -11 10 3 6 21 10 38 10 30 -1 31 -1 13 -15 -19 -14 -18 -15 15 -11 18 2 69
4 112 5 46 1 77 5 77 11 0 6 -21 11 -47 11 -76 -1 -96 0 -133 6 -57 8 -9 25
79 28 104 4 101 3 95 20 -5 12 -26 14 -127 9 -216 -11 -208 -15 -232 136 -9
58 -22 141 -29 185 l-13 80 69 135 c127 245 198 389 279 570 28 63 64 142 79
175 15 33 31 71 35 85 4 14 11 30 15 35 15 19 68 210 80 287 32 195 -35 436
-176 634 -50 71 -165 180 -209 199 -110 48 -132 59 -146 71 -35 32 -122 46
-304 50 -153 3 -190 1 -245 -15z m477 -61 c139 -40 269 -106 260 -133 -1 -5
-22 -16 -46 -23 -38 -11 -46 -10 -83 9 -23 12 -67 46 -100 75 -32 28 -62 52
-66 52 -11 -1 99 -99 147 -131 29 -18 39 -30 30 -33 -8 -3 -84 -25 -169 -50
-295 -85 -325 -94 -410 -131 l-84 -36 -21 28 c-49 67 -180 213 -183 204 -2 -6
25 -43 60 -83 109 -125 137 -167 103 -154 -12 4 -13 2 -3 -14 10 -15 9 -22 -5
-38 -42 -46 -114 -230 -157 -400 -9 -36 -23 -52 -82 -100 -39 -31 -100 -81
-136 -111 -67 -56 -79 -56 -86 -6 -2 17 -9 44 -17 60 -17 39 -24 285 -8 285 8
0 8 4 0 14 -8 10 -9 16 -1 21 6 3 8 11 5 16 -4 5 -2 9 4 9 5 0 14 23 20 51 18
83 73 219 125 307 38 65 53 82 71 82 12 0 28 -7 35 -15 6 -8 58 -46 113 -85
74 -51 89 -59 57 -30 -25 22 -80 64 -122 93 -43 29 -77 55 -78 58 0 4 35 32
78 64 234 173 485 221 749 145z m345 -211 c21 -22 38 -49 38 -58 0 -10 11 -28
25 -41 13 -12 22 -27 19 -32 -3 -5 0 -7 7 -6 6 2 14 -3 17 -11 3 -8 0 -11 -7
-7 -6 4 -11 3 -11 -2 0 -12 35 -43 42 -37 3 3 8 -1 11 -9 4 -10 1 -13 -9 -9
-29 11 -6 -60 27 -84 27 -20 42 -108 41 -243 -3 -270 -11 -302 -62 -240 -37
44 -130 229 -168 335 -50 135 -161 407 -173 421 -12 15 13 31 81 50 70 19 81
17 122 -27z m-245 -71 c-4 -35 -12 -130 -18 -213 -6 -82 -13 -157 -16 -165 -2
-9 -18 8 -42 45 -42 67 -91 114 -154 147 -35 19 -58 23 -137 23 -87 0 -101 -3
-165 -33 -80 -38 -99 -53 -131 -103 -73 -115 -83 -276 -27 -409 22 -50 89
-127 137 -155 90 -53 222 -52 314 2 24 13 46 23 48 20 3 -3 -8 -20 -24 -38
-34 -40 -59 -77 -96 -143 -43 -74 -15 -46 50 49 31 47 80 112 108 144 29 31
61 70 72 87 32 46 64 132 70 191 4 29 8 53 10 53 4 0 149 -89 194 -120 14 -9
58 -38 98 -63 39 -26 72 -53 72 -60 0 -7 -98 -61 -217 -121 -120 -60 -288
-151 -374 -202 -86 -52 -161 -94 -167 -94 -6 0 -32 33 -57 73 -26 39 -73 99
-104 132 -66 69 -98 115 -79 115 7 0 -4 17 -24 38 -38 40 -108 139 -108 153 0
5 8 5 18 2 15 -6 15 -5 3 10 -7 9 -11 24 -7 32 3 9 2 13 -4 10 -6 -3 -10 -1
-10 6 0 8 -4 8 -15 -1 -13 -11 -14 -10 -9 4 4 10 13 14 24 11 14 -5 17 3 19
50 2 56 55 234 91 305 34 67 74 88 325 170 88 29 192 65 230 80 106 43 109 42
102 -32z m97 -151 c30 -73 73 -181 96 -242 22 -60 61 -147 86 -193 25 -46 44
-86 42 -88 -2 -1 -57 33 -123 78 -66 44 -142 91 -168 105 -49 24 -49 25 -44
66 4 23 12 131 18 240 10 161 15 196 25 182 7 -9 37 -76 68 -148z m-337 -86
c56 -26 121 -94 152 -161 70 -152 -6 -344 -166 -417 -97 -44 -192 -24 -274 58
-66 66 -84 111 -84 214 0 76 4 98 26 146 34 71 92 137 144 160 53 25 147 24
202 0z m-516 -499 c29 -42 55 -79 58 -82 4 -3 24 -30 45 -60 22 -30 65 -84 96
-120 55 -63 100 -123 100 -133 0 -9 -141 48 -285 115 -77 36 -165 75 -195 87
-30 13 -76 33 -103 45 l-47 21 57 45 c32 24 63 48 68 52 6 4 39 31 75 61 36
30 68 52 72 50 4 -2 31 -39 59 -81z m1149 -68 c0 -28 -257 -562 -301 -625 -10
-14 -21 -37 -24 -52 -4 -15 -12 -24 -18 -20 -6 3 -7 1 -3 -5 4 -6 2 -19 -3
-29 -6 -10 -40 -81 -76 -158 -36 -77 -70 -147 -75 -155 -5 -8 -29 -46 -52 -85
-23 -38 -52 -83 -64 -100 -12 -16 -26 -43 -30 -60 -4 -16 -15 -45 -25 -64 -10
-19 -16 -38 -13 -43 3 -4 0 -8 -6 -8 -7 0 -10 -6 -7 -13 2 -6 -2 -18 -9 -25
-16 -15 -15 -37 -19 258 -3 187 -1 208 16 236 10 17 19 38 19 45 0 8 -6 3 -13
-10 -6 -14 -18 -26 -25 -29 -20 -6 -13 94 8 121 23 30 34 67 20 67 -6 0 -16
-14 -22 -31 -15 -45 -28 -18 -28 60 0 42 5 70 14 80 8 9 16 23 18 31 2 8 9 21
16 28 7 8 9 19 5 25 -6 10 -22 -19 -37 -66 -10 -30 -27 -8 -21 26 4 18 7 39 8
48 2 9 11 24 20 34 10 9 25 31 34 48 15 30 15 31 -1 18 -9 -7 -22 -25 -29 -39
-23 -49 -36 -38 -36 32 l0 66 56 36 c118 75 393 227 393 217 0 -3 7 1 16 8 19
15 81 39 105 39 9 0 24 9 34 20 10 11 30 20 44 21 14 0 20 3 13 6 -15 6 30 33
54 33 8 0 14 4 14 8 0 5 7 9 15 9 8 0 15 -1 15 -3z m-1231 -193 c135 -60 260
-115 276 -121 17 -6 59 -24 95 -41 l65 -30 1 -57 c0 -31 8 -203 18 -382 25
-482 26 -562 6 -555 -8 4 -5 -3 8 -15 22 -21 29 -40 15 -40 -14 0 -55 69 -48
80 4 6 -5 29 -19 50 -14 22 -26 42 -26 46 0 3 -15 29 -33 57 -58 90 -86 137
-196 332 -59 105 -128 224 -153 265 -40 66 -268 505 -268 516 0 9 24 -1 259
-105z"/>
<path d="M13805 5912 c6 -4 11 -29 12 -57 2 -74 17 -167 32 -193 7 -13 10 -26
7 -29 -3 -4 -1 -12 5 -19 6 -8 9 -20 6 -29 -4 -8 1 -36 9 -62 9 -27 17 -61 20
-78 2 -16 8 -41 13 -55 10 -28 43 -167 46 -190 0 -9 4 -20 7 -26 4 -6 19 -66
33 -135 14 -68 28 -132 31 -141 3 -10 1 -18 -5 -18 -6 0 -13 11 -17 25 -4 14
-9 24 -11 21 -4 -4 30 -171 57 -276 5 -19 14 -59 21 -87 6 -29 15 -53 19 -53
5 0 6 -17 4 -37 -4 -26 -3 -34 4 -24 7 10 11 6 15 -15 3 -16 8 -40 12 -54 4
-14 8 -32 9 -40 1 -8 14 -67 29 -130 14 -63 36 -160 48 -215 11 -55 32 -145
45 -200 13 -55 39 -170 58 -255 82 -365 128 -560 151 -632 28 -86 29 -92 16
-83 -8 4 -536 7 -741 4 -36 -1 -104 -1 -151 0 l-86 1 -18 93 c-42 226 -56 306
-61 367 -3 36 -8 68 -10 71 -2 4 -6 28 -9 55 -6 52 -27 168 -51 274 -8 36 -15
82 -16 103 -1 42 -12 54 -32 38 -10 -8 -53 -8 -152 -1 -77 5 -169 10 -206 10
-48 0 -68 4 -68 13 0 8 -4 7 -10 -3 -7 -10 -12 -12 -17 -4 -10 15 -182 10
-243 -6 -51 -13 -162 -30 -170 -25 -3 1 -11 -3 -18 -11 -7 -8 -10 -14 -6 -14
3 0 2 -6 -3 -12 -6 -7 -23 -58 -38 -113 -15 -55 -38 -127 -51 -161 -12 -33
-41 -136 -64 -230 -52 -216 -51 -209 -40 -198 5 5 18 45 29 88 11 43 22 80 25
84 14 14 15 -9 1 -54 -8 -27 -15 -61 -15 -75 0 -15 -7 -43 -15 -63 -9 -20 -15
-47 -13 -59 1 -12 -4 -57 -11 -99 l-14 -78 -66 0 c-88 0 -243 19 -258 32 -9 7
-13 7 -13 -2 0 -8 -4 -9 -12 -3 -8 6 -135 9 -310 7 -164 -1 -298 2 -298 6 0 4
15 70 34 146 19 77 55 229 81 339 25 110 53 229 61 265 9 36 20 76 24 90 5 14
11 54 13 90 3 36 10 90 17 120 6 30 18 87 26 125 8 39 24 104 34 145 11 42 22
100 25 130 5 54 15 81 15 41 0 -13 4 -20 11 -16 6 4 8 9 5 12 -3 3 0 15 6 27
6 11 13 30 14 41 2 11 6 38 9 60 3 22 12 63 19 90 7 28 12 62 11 78 -1 15 1
27 5 27 7 0 11 24 12 78 0 12 5 22 11 22 6 0 7 3 4 7 -4 3 -1 13 6 21 9 13 9
14 0 8 -7 -4 -13 -3 -13 3 0 5 5 13 10 16 6 3 10 15 10 26 0 10 4 19 8 19 4 0
13 28 19 63 6 34 18 98 28 142 9 44 17 87 19 95 1 8 5 22 9 30 3 8 15 60 26
115 12 55 35 163 51 240 16 77 30 152 30 166 0 15 6 42 14 60 7 19 11 40 9 47
-3 7 0 18 5 25 6 7 7 18 3 25 -15 24 -68 -179 -161 -613 -41 -195 -114 -475
-123 -475 -9 0 -5 29 10 66 4 11 3 15 -5 10 -14 -9 -32 -72 -31 -111 l1 -30
13 30 c10 22 14 25 14 10 -1 -24 -17 -75 -18 -57 -1 6 -9 12 -18 12 -14 0 -15
-2 -4 -9 10 -6 10 -10 1 -16 -6 -4 -9 -13 -6 -21 3 -7 1 -16 -4 -19 -15 -10
-12 -23 7 -27 15 -3 15 -4 0 -19 -9 -9 -14 -18 -13 -20 5 -5 -11 -105 -23
-149 -5 -19 -22 -87 -36 -150 -14 -63 -30 -128 -35 -145 -5 -16 -18 -73 -29
-125 -38 -180 -51 -233 -57 -239 -10 -9 5 86 23 149 54 192 113 584 85 566 -6
-4 -10 -14 -10 -24 2 -61 -41 -324 -56 -339 -15 -16 -17 10 -3 59 13 45 29
132 41 216 2 14 -2 26 -10 29 -11 4 -12 9 -4 18 15 18 23 112 10 120 -15 9
-12 25 5 25 11 0 15 -12 15 -46 0 -29 4 -43 10 -39 6 4 8 16 5 26 -4 11 -1 27
7 36 11 14 11 16 -2 8 -13 -8 -13 -7 -1 8 7 9 10 17 6 17 -4 0 -2 6 4 13 6 8
8 17 4 20 -11 12 -21 7 -26 -13 -3 -11 -11 -20 -17 -20 -14 0 -7 69 15 140 7
25 17 60 20 78 4 18 10 30 15 27 5 -3 11 -1 15 5 3 5 0 10 -7 10 -11 0 -11 2
0 9 16 10 35 85 23 89 -10 3 12 146 43 282 21 90 65 319 97 507 5 29 13 63 18
77 8 18 6 26 -5 30 -10 4 -18 -4 -25 -22 -9 -21 -89 -364 -115 -487 -2 -11 -6
-31 -9 -45 -3 -14 -12 -78 -20 -142 -12 -97 -92 -447 -150 -653 -14 -51 -32
-136 -40 -190 -4 -33 -30 -143 -45 -190 -9 -33 -37 -154 -70 -310 -12 -55 -33
-138 -46 -185 -13 -47 -40 -168 -60 -270 -28 -144 -34 -198 -30 -245 5 -47 2
-72 -14 -115 -12 -34 -16 -58 -10 -64 6 -6 11 -4 13 5 3 8 11 34 18 58 l13 45
11 -55 c6 -30 17 -64 23 -76 7 -12 12 -32 12 -45 0 -13 7 -33 15 -44 8 -10 15
-26 15 -35 0 -27 59 -45 120 -38 30 4 98 8 150 8 60 1 90 5 81 10 -9 6 24 9
87 9 56 1 104 -4 107 -9 4 -5 96 -7 229 -3 211 6 223 5 231 -12 6 -18 8 -17
16 4 7 20 13 22 49 16 27 -4 40 -3 40 5 0 6 -13 11 -30 11 -35 0 -34 -6 -14
80 l17 68 100 -5 c55 -2 121 -8 146 -13 66 -13 332 -7 356 8 16 9 -5 11 -107
9 -70 -2 -133 0 -140 5 -8 4 6 8 34 8 26 0 50 4 53 10 4 7 -26 8 -87 3 -94 -6
-109 -6 -255 -4 -80 1 -83 2 -83 24 0 13 2 26 5 29 3 2 40 -2 82 -9 56 -10
129 -12 257 -8 98 3 181 7 185 9 3 2 62 7 131 11 69 3 130 11 135 17 7 7 -14
8 -65 4 -146 -13 -566 -18 -601 -8 -25 8 22 11 186 12 254 3 314 5 322 13 5 6
-271 10 -439 7 -37 0 -69 4 -73 9 -4 8 31 11 107 12 62 1 102 4 88 8 -43 12
-7 20 53 12 31 -4 67 -7 80 -5 12 1 90 3 172 5 146 2 148 2 65 10 -130 12
-581 19 -575 8 4 -5 -5 -14 -19 -20 -14 -7 -23 -15 -21 -20 8 -12 -13 -21 -35
-14 -24 8 -25 18 -6 38 8 8 11 18 6 23 -5 5 -2 42 6 84 8 41 16 86 17 100 2
14 9 41 15 60 6 19 14 73 17 120 4 47 11 90 15 95 4 6 15 49 25 96 l18 86 46
-2 c25 -1 178 -3 339 -4 l292 -1 0 -22 c0 -36 11 -68 21 -62 5 3 6 -2 3 -10
-4 -10 -1 -16 7 -16 8 0 6 -5 -5 -13 -15 -11 -16 -17 -7 -35 6 -11 11 -31 11
-44 0 -16 3 -19 9 -10 7 11 9 11 14 -2 3 -8 2 -18 -3 -21 -14 -9 -12 -45 3
-45 9 0 9 -2 -1 -8 -8 -5 -10 -16 -6 -27 7 -18 8 -18 14 -1 3 10 6 -11 6 -45
0 -35 8 -100 17 -144 9 -44 19 -96 22 -116 3 -21 24 -59 51 -94 33 -44 42 -60
32 -67 -10 -6 -9 -11 6 -19 28 -17 126 -122 126 -136 0 -8 -12 -13 -29 -13
-17 0 -33 -5 -36 -10 -4 -6 7 -10 27 -10 278 2 1082 -10 1087 -16 7 -8 17 -41
36 -111 4 -13 10 -23 15 -23 9 0 4 33 -10 65 -5 11 -11 43 -13 70 -3 43 -29
156 -68 298 -6 22 -8 41 -5 45 3 3 2 10 -3 16 -13 16 -47 139 -61 221 -18 102
-49 243 -116 530 -9 39 -17 89 -17 113 -1 23 -5 42 -10 42 -5 0 -7 11 -5 25 3
14 1 23 -6 22 -5 -1 -16 27 -23 63 -7 36 -19 95 -28 131 -18 80 -20 122 -4 99
8 -12 9 -11 5 5 -2 11 -8 36 -12 55 -6 30 -8 32 -15 15 -7 -19 -8 -19 -8 2 -1
12 3 23 8 25 5 2 4 14 -1 28 -6 14 -12 40 -14 59 -2 18 -8 39 -14 46 -5 7 -11
38 -13 69 -1 31 -6 56 -11 56 -5 0 -6 3 -3 7 4 3 0 17 -8 29 -8 13 -12 30 -8
39 3 10 1 20 -4 24 -9 5 -50 176 -59 246 -2 17 -11 59 -20 95 -9 36 -18 76
-21 90 -2 14 -11 50 -19 80 -8 30 -17 66 -20 80 -2 14 -9 36 -14 50 -15 37
-90 340 -90 361 0 30 -22 69 -39 69 -9 0 -12 -3 -6 -8z"/>
<path d="M6327 3112 c-26 -5 -147 -160 -147 -188 0 -18 -6 -24 -21 -24 -40 0
-7 -20 34 -21 l42 -1 -32 -9 c-37 -11 -53 -29 -25 -29 43 0 80 12 76 25 -4 8
6 16 25 20 16 3 31 14 33 23 3 14 6 13 16 -5 12 -22 11 -23 -18 -23 -21 0 -30
-4 -27 -12 5 -15 135 -12 153 3 8 6 13 6 16 -1 4 -12 58 -4 58 9 0 8 -87 7
-95 -1 -9 -9 -46 3 -39 13 3 5 -4 9 -15 9 -12 0 -21 5 -21 10 0 14 47 13 52
-1 2 -7 9 -10 16 -8 7 3 8 9 2 18 -6 11 -33 15 -102 17 -109 2 -108 2 -87 14
9 5 121 13 248 16 242 7 294 23 86 25 -94 1 -110 3 -75 10 25 4 80 8 123 8
118 1 85 21 -36 22 l-102 1 60 13 c32 7 75 11 95 8 27 -4 32 -3 24 6 -8 9 -56
13 -155 13 -87 0 -134 3 -119 8 14 4 52 9 85 10 33 0 78 5 100 9 36 8 32 9
-40 12 -136 5 -169 5 -188 1z"/>
<path d="M15938 2881 c-44 -10 -20 -29 52 -40 88 -15 543 -15 535 0 -4 6 -10
8 -13 5 -3 -3 -11 -1 -19 5 -7 6 -13 8 -13 4 0 -4 -6 -2 -14 4 -9 8 -22 8 -38
2 -34 -13 -249 -12 -265 1 -7 5 -25 7 -39 4 -21 -6 -25 -4 -21 8 5 14 -4 16
-66 15 -40 -1 -84 -4 -99 -8z"/>
<path d="M12511 2868 c-11 -4 -42 -8 -68 -8 -27 -1 -67 -1 -90 -2 -24 0 -43
-4 -43 -7 0 -4 21 -13 46 -20 37 -11 94 -12 278 -6 307 10 301 9 303 20 2 6
-48 9 -133 6 -113 -2 -135 -1 -128 10 6 11 5 12 -7 2 -12 -9 -28 -9 -76 1 -33
7 -70 9 -82 4z"/>
</g>
</svg>
