<?xml version="1.0" standalone="no"?>
<!DOCTYPE svg PUBLIC "-//W3C//DTD SVG 20010904//EN"
 "http://www.w3.org/TR/2001/REC-SVG-20010904/DTD/svg10.dtd">
<svg version="1.0" xmlns="http://www.w3.org/2000/svg"
 width="1928.000000pt" height="1074.000000pt" viewBox="0 0 1928.000000 1074.000000"
 preserveAspectRatio="xMidYMid meet">
<metadata>
Created by potrace 1.16, written by Peter Selinger 2001-2019
</metadata>
<g transform="translate(0.000000,1074.000000) scale(0.100000,-0.100000)"
fill="#000000" stroke="none">
<path d="M14560 8016 c0 -5 10 -22 22 -38 13 -19 21 -46 21 -72 1 -22 -3 -304
-7 -626 -5 -322 -8 -601 -9 -620 0 -19 2 -55 5 -80 3 -25 7 -63 7 -85 1 -29 4
-36 11 -24 5 8 12 84 15 169 3 84 8 157 11 161 2 5 5 64 7 134 1 69 5 125 10
125 4 0 5 4 2 10 -3 5 -7 144 -9 307 -2 164 -7 324 -11 356 -10 73 7 76 52 9
18 -26 41 -57 51 -68 44 -47 47 -61 47 -271 0 -133 3 -203 10 -203 7 0 10 69
10 200 0 110 4 200 8 200 10 0 -18 40 -101 145 l-64 80 108 -107 c100 -99 108
-110 96 -128 -7 -12 -10 -25 -7 -30 3 -6 6 -153 5 -327 -1 -175 -3 -964 -5
-1753 -2 -789 -7 -1469 -11 -1510 -4 -41 -11 -78 -17 -82 -8 -4 -7 -11 0 -20
14 -17 11 -94 -5 -110 -9 -9 -12 -3 -13 27 -2 61 -3 68 -14 72 -9 3 -13 -136
-15 -526 0 -19 -3 -31 -6 -28 -9 8 -12 58 -18 229 -2 75 -7 141 -11 147 -3 6
-2 11 3 11 9 0 7 51 -3 78 -2 6 0 12 5 12 6 0 10 4 10 10 0 5 -5 9 -12 7 -6
-1 -13 11 -14 27 -2 15 -5 31 -8 34 -10 9 -10 -37 -3 -258 4 -102 3 -138 -3
-105 -5 28 -11 91 -13 140 -2 50 -8 137 -12 195 -7 106 -8 187 -4 403 2 107 9
138 22 105 3 -8 6 -6 6 5 1 9 -4 17 -10 17 -5 0 -7 5 -4 10 4 6 1 17 -5 25
-10 12 -9 15 4 15 11 0 14 4 9 13 -4 6 -8 19 -8 27 0 8 -5 14 -12 13 -7 -2
-10 4 -7 12 4 9 1 22 -5 29 -8 10 -9 16 -1 21 5 3 10 18 9 33 -1 15 1 44 4 65
4 20 2 37 -2 37 -4 0 -9 29 -9 65 -1 36 3 63 7 61 11 -7 9 59 -2 70 -10 10 -9
26 2 20 15 -10 10 67 -6 82 -8 9 -13 26 -10 39 2 13 0 26 -4 29 -5 3 -8 -15
-7 -40 1 -31 6 -46 15 -46 7 0 13 -4 13 -10 0 -5 -9 -10 -20 -10 -16 0 -20 7
-21 38 -2 53 1 76 12 86 5 6 9 15 9 20 0 6 -5 4 -10 -4 -12 -19 -11 -34 -17
245 -2 121 -5 279 -7 350 -1 72 -3 273 -4 448 -2 297 -9 375 -27 275 -4 -24
-8 -439 -9 -923 0 -486 -5 -886 -10 -894 -5 -8 -5 -16 2 -20 15 -9 14 -283 -1
-294 -9 -7 -9 -10 1 -14 6 -2 12 -11 12 -19 0 -9 -5 -12 -12 -8 -10 6 -10 4 0
-7 15 -16 16 -91 1 -106 -7 -7 -8 -17 -1 -29 6 -11 10 -124 11 -264 0 -135 2
-336 3 -448 2 -156 0 -202 -9 -202 -20 0 -15 -11 19 -42 36 -32 32 -42 -17
-42 -19 0 -35 -4 -35 -8 0 -4 15 -8 34 -8 35 0 57 -15 34 -22 -7 -3 5 -16 27
-30 56 -36 99 -84 89 -99 -5 -9 -2 -11 8 -6 20 7 50 -24 82 -88 18 -38 25 -69
27 -122 2 -80 18 -92 17 -13 0 27 5 64 11 82 l11 33 156 -3 c143 -3 155 -4
142 -19 -7 -9 -8 -14 -2 -11 5 4 91 10 190 14 98 3 181 9 184 13 5 6 119 10
345 12 76 0 113 4 100 9 -11 5 -43 9 -72 9 -61 1 -83 8 -83 27 0 8 -7 14 -15
14 -8 0 -15 -7 -15 -15 0 -8 -7 -15 -16 -15 -11 0 -14 5 -10 16 3 8 6 60 7
115 l1 101 61 -8 c34 -5 79 -8 100 -7 31 1 36 -1 26 -13 -6 -8 -8 -14 -3 -15
5 0 72 -2 149 -4 77 -3 188 -7 247 -10 103 -5 106 -5 101 15 -3 13 -14 20 -29
20 -12 0 -26 5 -29 10 -11 17 -23 11 -18 -9 3 -14 0 -19 -11 -17 -19 3 -34 16
-18 16 7 0 12 4 12 10 0 15 -50 19 -315 28 -137 4 -255 11 -261 15 -8 5 -12
150 -12 514 -1 280 -4 648 -8 818 -4 171 -4 308 -1 305 3 -3 18 -41 32 -85 15
-44 49 -129 75 -190 62 -143 86 -206 261 -690 22 -60 49 -131 60 -156 12 -25
22 -61 24 -81 2 -20 11 -50 20 -67 24 -47 117 -293 112 -297 -2 -3 -23 15 -47
38 -24 24 -38 34 -32 22 6 -11 18 -26 26 -34 25 -20 19 -30 -16 -30 -42 0 -32
-9 13 -11 48 -2 87 -18 94 -39 3 -10 67 -71 141 -136 74 -64 139 -126 145
-136 9 -17 5 -18 -51 -18 -56 0 -78 -11 -46 -23 14 -6 104 1 116 8 11 7 28
-17 65 -92 18 -37 40 -77 49 -88 15 -18 15 -17 0 20 -9 22 -25 57 -35 77 -40
78 -6 80 52 3 23 -30 46 -55 51 -55 5 0 -1 14 -14 31 -60 80 -76 73 132 64
102 -4 215 -7 253 -6 l67 1 0 -60 c0 -33 4 -60 10 -60 6 0 10 27 10 60 l0 60
34 0 c18 0 47 7 62 15 17 9 56 15 92 15 l62 0 1 -67 c1 -38 1 -74 0 -81 -1 -6
3 -20 8 -30 8 -12 10 8 11 75 0 54 4 95 11 98 6 4 37 7 70 8 84 0 83 14 -2 22
l-71 7 6 57 c4 31 8 217 11 414 3 311 2 357 -11 346 -8 -6 -14 -8 -14 -4 0 4
6 13 13 19 10 7 12 27 9 60 -2 29 -7 44 -12 36 -15 -24 -22 139 -14 305 5 91
6 203 1 248 -4 45 -9 285 -12 532 -2 248 -7 506 -11 574 -5 111 -8 122 -19
100 -13 -24 -20 -25 -40 -9 -5 5 -9 46 -9 92 2 83 2 83 28 83 31 -1 35 21 6
30 -11 4 -18 10 -15 15 3 5 12 7 20 3 12 -4 15 4 16 38 0 24 4 67 8 94 5 34 8
-7 9 -125 1 -96 6 -209 11 -250 5 -41 10 -298 11 -569 0 -272 3 -497 5 -500 3
-2 8 -1 13 3 14 15 2 1802 -13 1901 -5 28 -7 57 -6 65 18 136 22 1138 5 1219
-4 20 -2 23 14 19 11 -3 26 -2 33 3 10 6 8 9 -7 9 -12 0 -29 11 -38 25 -9 14
-21 25 -27 25 -9 0 -173 143 -214 186 -5 5 -28 22 -50 37 -22 14 -52 36 -67
47 -24 18 -28 19 -28 5 0 -18 90 -110 152 -155 24 -18 64 -51 90 -76 26 -24
55 -44 65 -44 20 0 43 -18 43 -33 0 -4 -5 -5 -12 -1 -28 18 -405 24 -699 12
l-247 -10 -131 132 c-72 73 -131 134 -131 134 0 1 174 2 388 1 213 0 404 4
425 8 44 9 40 28 -6 27 -18 -1 -99 2 -181 6 -86 4 -258 1 -410 -6 l-261 -13 0
-46 c0 -25 -4 -98 -10 -161 -5 -63 -9 -180 -8 -260 5 -600 1 -1005 -9 -1011
-7 -4 -9 -26 -6 -59 7 -68 -3 -54 -42 60 -17 52 -52 139 -76 192 -24 54 -44
102 -44 108 0 6 -4 18 -9 28 -5 9 -22 55 -36 101 -15 46 -52 143 -82 215 -31
72 -70 169 -88 216 -61 156 -106 262 -123 288 l-16 25 29 -7 c25 -6 27 -5 16
8 -8 9 -21 16 -31 16 -9 0 -33 21 -53 48 -95 125 -175 227 -204 260 l-33 37 7
-35 c3 -19 9 -37 13 -40 3 -3 16 -22 29 -42 32 -53 170 -212 187 -216 56 -13
-34 -17 -353 -14 -354 3 -369 4 -398 24 -16 11 -24 15 -17 7 21 -23 13 -29
-42 -29 -52 0 -56 2 -91 43 -20 23 -45 58 -55 78 -10 19 -39 60 -64 91 -25 31
-43 57 -41 60 2 2 52 0 112 -4 200 -13 722 -14 712 -2 -12 15 -144 22 -539 30
-179 3 -332 7 -340 10 -8 3 -27 21 -42 41 -16 20 -28 33 -28 29z m2053 -425
c3 -13 1 -62 -4 -108 -6 -47 -11 -191 -12 -321 -2 -217 -3 -237 -19 -240 -16
-3 -18 6 -19 85 -1 84 -2 86 -9 33 -13 -90 -7 -313 8 -317 9 -4 12 18 12 87 0
69 3 91 13 88 16 -6 22 -338 7 -382 -7 -20 -7 -33 0 -40 17 -17 12 -153 -6
-189 l-17 -32 -9 25 c-5 14 -7 39 -4 55 4 27 4 28 -6 8 -8 -17 -7 -42 4 -100
9 -43 14 -80 12 -82 -9 -10 -28 66 -45 184 -27 184 -30 195 -45 195 -8 0 -14
9 -14 20 0 11 -4 20 -10 20 -5 0 -8 10 -6 23 2 12 -2 28 -8 36 -9 12 -8 13 7
8 15 -6 16 -4 5 16 -6 12 -11 34 -9 49 2 25 -8 68 -29 123 -5 11 -7 -14 -5
-57 2 -43 -1 -78 -6 -78 -5 0 -10 8 -11 18 -8 97 -13 218 -9 262 3 24 -10 803
-13 830 -2 14 -1 28 1 32 7 13 240 -225 246 -251z m-1414 23 c13 -11 -19 -16
-129 -21 -66 -3 -123 -10 -126 -14 -4 -8 7 -12 26 -11 87 5 204 13 311 22 195
16 457 26 478 19 11 -5 22 -26 29 -59 7 -29 11 -54 9 -56 -1 -2 -18 19 -36 47
-43 67 -54 54 -11 -13 63 -100 96 -163 143 -275 26 -62 47 -115 47 -118 0 -3
16 -40 35 -81 19 -41 35 -81 35 -89 0 -7 4 -17 10 -20 5 -3 14 -25 21 -48 6
-23 21 -64 34 -92 43 -94 53 -120 65 -165 7 -25 15 -49 19 -55 14 -18 69 -167
116 -315 26 -80 66 -194 90 -255 24 -60 57 -153 73 -205 37 -120 87 -240 174
-418 34 -70 73 -120 85 -109 1 2 -8 37 -22 79 -22 67 -25 97 -30 284 -2 115
-5 211 -6 214 -1 8 1 334 3 433 1 48 6 87 11 87 5 0 4 7 -3 15 -6 8 -9 19 -5
25 4 6 9 266 10 578 2 312 4 577 4 590 1 18 5 22 20 17 27 -8 244 -8 453 0
l175 7 6 -33 c6 -38 12 -1446 11 -2314 -3 -1579 -3 -2028 0 -2034 2 -3 7 -102
10 -220 l7 -214 -38 6 c-21 4 -143 7 -271 8 -128 0 -241 3 -251 6 -23 6 -35
53 -15 53 21 0 17 9 -16 40 -16 15 -30 35 -30 44 0 20 1 20 36 1 16 -8 40 -15
53 -15 20 0 21 2 11 15 -7 8 -19 15 -26 15 -43 0 -92 26 -104 54 -7 17 -12 34
-11 38 0 4 -13 41 -29 82 -17 41 -30 79 -30 85 0 11 -14 44 -67 160 -19 40
-65 162 -102 270 -37 108 -84 232 -103 276 -20 44 -38 94 -42 112 -4 17 -14
37 -22 43 -7 7 -12 16 -9 20 3 4 -2 13 -11 20 -11 10 -12 15 -3 21 9 5 7 19
-9 53 -12 25 -22 48 -22 50 0 2 -10 26 -22 53 -12 26 -23 57 -24 68 -1 11 -17
51 -34 89 -17 39 -37 84 -45 100 -7 17 -23 60 -35 96 -13 36 -32 85 -43 110
-11 25 -26 63 -32 85 -12 38 -29 83 -136 360 -21 55 -41 123 -45 150 -4 28 -9
42 -11 33 -3 -10 -8 -18 -12 -18 -13 0 -31 24 -31 40 0 9 -14 27 -32 40 l-32
24 29 -50 c16 -27 36 -54 44 -61 9 -6 13 -15 9 -19 -4 -4 -14 -1 -23 6 -23 19
-29 5 -10 -24 14 -21 16 -42 11 -118 -6 -105 -6 -127 -5 -883 1 -720 -5 -1328
-14 -1342 -4 -6 -3 -22 2 -35 5 -13 10 -47 12 -76 l4 -53 -432 -2 -433 -2 -2
35 c0 19 -2 46 -4 60 -1 14 -2 563 -1 1220 0 657 1 1694 1 2304 1 861 4 1110
13 1113 9 3 10 9 1 22 -6 10 -8 26 -5 35 6 14 23 15 154 10 81 -4 150 -8 152
-10z m2283 -1089 c-4 -31 -1 -35 18 -35 21 0 21 -2 15 -102 -5 -72 -4 -100 4
-93 5 6 12 57 13 114 2 65 7 106 14 108 18 6 44 -79 43 -142 0 -54 -36 -194
-38 -152 -1 9 -5 17 -9 17 -5 0 -13 9 -18 20 -8 18 -11 19 -36 6 -16 -8 -28
-12 -28 -8 0 4 -14 13 -30 19 l-31 12 3 88 c3 80 5 88 23 88 18 0 20 -7 20
-88 0 -48 3 -87 6 -87 9 0 19 182 11 194 -13 22 2 69 23 76 1 0 -1 -16 -3 -35z
m26 -307 c-3 -24 1 -54 8 -69 7 -14 9 -31 4 -39 -4 -7 -6 -19 -3 -26 2 -6 0
-14 -4 -17 -6 -4 -5 -34 1 -72 6 -43 6 -84 -1 -120 -6 -37 -6 -58 1 -65 5 -5
7 -10 3 -10 -15 0 -47 41 -41 52 4 7 3 8 -4 4 -12 -7 -14 2 -14 59 0 24 -1 25
-5 7 -3 -17 -10 -22 -26 -20 -21 3 -22 8 -22 83 0 73 2 80 20 80 17 0 21 -9
26 -60 l6 -60 3 60 c2 33 5 75 5 93 1 19 6 37 11 40 5 4 9 12 9 17 2 27 18
105 22 105 3 0 3 -19 1 -42z m-27 -902 c-7 -9 -6 -19 4 -33 11 -15 14 -54 14
-159 0 -100 3 -138 11 -136 7 1 8 -3 4 -9 -15 -25 -7 -100 12 -115 18 -15 18
-15 -1 -11 -19 4 -20 0 -15 -102 l5 -106 33 3 c31 2 44 -11 20 -21 -10 -4 -9
-8 2 -16 9 -7 10 -11 3 -11 -6 0 -14 4 -18 9 -8 14 -45 9 -45 -6 0 -7 -7 -13
-15 -13 -8 0 -15 5 -15 10 0 6 -6 9 -12 8 -7 -2 -12 3 -10 10 1 8 -3 12 -10
10 -14 -5 -18 -55 -8 -103 8 -34 3 -55 -12 -55 -7 0 -8 14 -5 35 3 21 0 50 -9
70 -19 47 -18 52 16 60 22 5 30 12 30 28 1 74 12 163 20 171 6 6 10 17 9 25 0
11 -2 12 -6 4 -2 -7 -10 -13 -17 -13 -12 0 -13 17 -7 88 1 6 8 12 16 12 17 0
20 16 6 24 -5 4 -11 0 -14 -6 -2 -7 -8 -9 -13 -5 -5 5 -1 13 8 18 12 6 15 17
11 37 -3 15 -6 74 -7 132 -1 79 -5 108 -16 116 -11 10 -12 15 -2 27 7 8 10 22
6 31 -4 9 -1 16 6 16 7 0 10 7 6 16 -3 9 -3 21 1 27 4 7 11 -3 15 -22 6 -20 5
-37 -1 -45z m-1301 -1145 c0 -11 4 -23 10 -26 14 -8 56 -102 70 -156 7 -24 30
-77 51 -117 22 -40 41 -85 42 -100 2 -15 15 -52 30 -82 15 -32 22 -56 16 -59
-5 -1 -2 -9 7 -16 9 -6 18 -25 19 -41 2 -16 6 -39 10 -51 4 -14 3 -23 -2 -23
-10 0 -116 233 -128 283 -4 15 -11 30 -16 33 -5 3 -9 15 -9 27 0 12 -14 49
-30 82 -17 33 -30 67 -30 77 0 9 -4 19 -9 22 -8 5 -25 64 -22 79 0 4 -3 7 -8
7 -5 0 -11 10 -14 23 -2 12 -8 30 -12 40 -5 12 -3 17 9 17 9 0 16 -8 16 -19z
m1351 -113 c1 -7 1 -21 0 -30 -3 -21 10 -23 26 -7 18 18 29 -38 25 -123 -2
-33 -5 -38 -27 -38 -23 0 -24 3 -27 68 -4 90 -23 78 -24 -15 -1 -56 2 -73 12
-73 16 0 16 -6 4 -35 -5 -11 -9 -14 -9 -6 -1 10 -4 11 -15 2 -20 -17 -27 7
-33 112 -4 58 -2 87 5 87 6 0 12 10 14 23 2 14 9 21 20 19 12 -2 16 2 12 13
-3 8 -1 15 5 15 6 0 12 -6 12 -12z m-2880 -315 c-3 -436 0 -559 15 -607 4 -12
2 -17 -7 -14 -19 6 -26 44 -30 154 -3 110 1 542 5 589 5 47 6 49 12 42 4 -3 6
-77 5 -164z m2873 -69 c6 2 7 1 3 -2 -9 -5 11 -32 24 -32 5 0 5 8 2 18 -6 14
-4 15 9 4 14 -11 17 -10 21 5 2 10 3 -18 2 -62 -4 -110 -13 -145 -37 -145 -18
0 -20 7 -18 78 3 97 2 102 -10 102 -6 0 -10 -26 -10 -59 0 -81 -10 -149 -24
-154 -8 -3 -10 30 -9 115 2 130 7 158 25 140 6 -6 16 -9 22 -8z"/>
<path d="M16740 7310 c-6 -11 -10 -60 -8 -113 l3 -92 63 1 c43 1 67 6 73 15
14 20 2 191 -13 201 -7 4 -34 8 -60 8 -37 0 -50 -4 -58 -20z"/>
<path d="M16942 7322 c-9 -6 -12 -36 -10 -113 l3 -104 59 1 c37 1 61 6 67 15
11 18 11 170 0 188 -10 16 -100 26 -119 13z"/>
<path d="M17124 7295 c-16 -39 -17 -55 -7 -82 6 -14 9 -8 14 22 l6 40 2 -48
c0 -27 -3 -46 -8 -42 -11 6 -19 -22 -13 -48 6 -23 41 -31 97 -22 l46 6 -7 92
c-3 51 -7 98 -9 105 -3 7 -23 12 -55 12 -49 0 -52 -2 -66 -35z"/>
<path d="M16744 6917 c-2 -7 -3 -60 -2 -118 l3 -104 29 -3 c16 -2 44 -1 63 3
l33 6 0 102 c0 67 -4 107 -12 115 -17 17 -107 16 -114 -1z"/>
<path d="M16934 6917 c-2 -7 -3 -58 -2 -112 3 -114 9 -122 81 -111 l47 7 0
109 c0 121 1 120 -76 120 -28 0 -47 -5 -50 -13z"/>
<path d="M17135 6921 c-3 -5 -6 -47 -6 -93 -2 -136 -5 -128 44 -128 88 0 87
-1 87 115 0 85 -3 104 -16 109 -24 9 -102 7 -109 -3z"/>
<path d="M16744 6487 c-2 -7 -3 -58 -2 -113 l3 -99 46 -3 c72 -5 80 10 77 127
l-3 96 -58 3 c-41 2 -59 -1 -63 -11z m99 -102 l0 -90 -42 -3 -41 -3 0 96 0 96
41 -3 42 -3 0 -90z"/>
<path d="M16778 5703 c-25 -4 -27 -9 -33 -66 -4 -34 -5 -84 -3 -112 l3 -50 54
2 c30 2 57 5 60 9 3 3 6 51 6 106 0 96 -1 101 -23 109 -13 5 -26 8 -30 8 -4
-1 -19 -4 -34 -6z"/>
<path d="M16970 5700 l-35 -5 -3 -106 -3 -106 46 -6 c77 -11 85 0 85 119 l0
102 -27 3 c-16 3 -44 2 -63 -1z m70 -116 l0 -95 -42 3 -43 3 -3 79 c-2 44 -1
85 2 93 3 8 21 13 46 13 l40 0 0 -96z"/>
<path d="M17149 5703 c-20 -5 -25 -35 -25 -139 1 -75 2 -79 27 -88 14 -5 42
-6 62 -2 l37 7 0 108 0 109 -31 6 c-33 6 -44 6 -70 -1z m79 -116 l3 -98 -38 3
-38 3 -3 84 c-4 105 -1 113 40 109 l33 -3 3 -98z"/>
<path d="M16746 5265 c-10 -10 -12 -36 -9 -102 2 -48 6 -94 8 -100 3 -8 24
-13 59 -13 l55 0 3 106 c2 65 -1 108 -7 110 -34 12 -97 11 -109 -1z m94 -110
l0 -95 -40 0 -40 0 0 95 0 95 40 0 40 0 0 -95z"/>
<path d="M16943 5273 c-9 -3 -13 -36 -13 -113 l0 -108 26 -5 c15 -2 44 -2 65
0 l38 6 0 103 c0 92 -2 105 -19 114 -19 10 -75 12 -97 3z"/>
<path d="M17160 5270 c-24 -6 -25 -8 -28 -113 l-3 -108 58 3 58 3 3 99 c1 55
-1 103 -5 107 -12 12 -55 17 -83 9z"/>
<path d="M16758 4843 c-15 -4 -17 -17 -15 -111 l2 -107 57 -3 56 -3 7 53 c3
29 5 80 3 113 l-3 60 -45 2 c-25 0 -53 -1 -62 -4z m90 -110 l3 -93 -41 0 -40
0 0 96 0 95 38 -3 37 -3 3 -92z"/>
<path d="M16954 4842 c-8 -4 -13 -47 -15 -109 l-4 -102 33 -6 c17 -3 47 -3 65
0 l32 6 2 104 2 103 -31 6 c-40 8 -70 7 -84 -2z m86 -107 l0 -95 -40 0 -40 0
0 95 0 95 40 0 40 0 0 -95z"/>
<path d="M17140 4825 c-6 -15 -10 -64 -10 -111 l0 -85 58 3 57 3 0 105 0 105
-48 3 c-43 3 -48 1 -57 -23z m98 -93 l3 -93 -43 3 c-24 2 -42 6 -40 11 1 4 2
46 2 93 l0 85 38 -3 37 -3 3 -93z"/>
<path d="M16571 4441 c-10 -7 -13 -34 -13 -107 l0 -99 29 -8 c16 -5 39 -4 56
2 l27 11 0 105 0 105 -42 0 c-24 0 -49 -4 -57 -9z"/>
<path d="M16763 4434 c-4 -10 -7 -61 -7 -114 l-1 -95 39 -3 c82 -7 82 -6 80
115 l-3 108 -50 3 c-42 3 -52 0 -58 -14z"/>
<path d="M16946 4442 c-2 -4 -6 -55 -7 -113 l-2 -104 33 -3 c19 -2 49 -1 67 3
l34 6 -3 107 -3 107 -57 3 c-31 2 -59 -1 -62 -6z m89 -112 l0 -95 -35 0 -35 0
-3 89 c-3 96 2 108 48 104 25 -3 25 -4 25 -98z"/>
<path d="M16577 4023 c-4 -3 -7 -55 -7 -115 l0 -109 55 3 c48 3 57 6 62 26 3
12 0 42 -6 67 -6 24 -11 57 -11 74 0 20 -8 35 -22 45 -23 16 -60 21 -71 9z"/>
<path d="M16985 4022 c-11 -2 -24 -8 -30 -13 -14 -13 -14 -192 -1 -201 18 -12
93 -9 104 5 6 7 7 49 3 106 -6 90 -7 95 -31 101 -14 3 -34 4 -45 2z"/>
<path d="M16995 3641 l-40 -6 -7 -80 c-10 -110 -6 -122 39 -128 21 -2 42 0 48
4 5 5 16 9 25 9 13 0 14 13 10 92 -5 88 -12 120 -28 117 -4 -1 -25 -5 -47 -8z"/>
<path d="M16756 3591 c-10 -71 -7 -146 6 -159 16 -16 69 -15 92 3 16 12 20 30
22 104 l4 89 -59 4 -59 3 -6 -44z"/>
<path d="M4770 7972 l0 -28 -277 1 c-346 1 -661 -8 -613 -17 89 -18 639 -29
768 -15 59 6 72 5 72 -7 0 -8 -7 -16 -15 -20 -13 -5 -174 -123 -185 -136 -3
-3 -26 -22 -52 -42 -26 -19 -59 -49 -74 -65 l-26 -30 -221 5 c-230 5 -339 21
-144 22 66 0 107 4 107 10 0 13 -247 12 -255 0 -3 -5 -13 -6 -22 -3 -11 4 -14
3 -9 -5 4 -7 1 -12 -8 -12 -8 0 -16 5 -18 12 -3 9 -30 11 -89 10 -100 -3 -128
-10 -108 -24 10 -7 8 -7 -8 -3 -13 3 -23 3 -23 -2 0 -4 -16 -9 -36 -10 -20 -1
-33 2 -28 6 9 8 266 186 347 240 36 24 47 41 26 41 -18 0 -95 -48 -279 -173
-96 -66 -185 -124 -197 -130 -29 -13 -29 -24 -1 -23 33 1 37 -38 36 -349 0
-148 3 -424 7 -611 l8 -342 -114 6 c-111 5 -115 6 -152 37 -55 48 -74 50 -98
12 -10 -18 -20 -35 -21 -39 -2 -4 -17 -10 -33 -14 l-31 -6 -1 619 c-1 520 1
613 12 588 11 -26 12 -10 8 120 -3 83 -6 188 -6 235 l-2 85 45 7 c54 8 -704 0
-838 -8 -98 -7 -137 -21 -185 -66 -41 -38 -189 -120 -197 -109 -3 6 -11 6 -19
2 -7 -5 -11 -14 -7 -19 6 -9 -86 -72 -105 -72 -3 0 -12 11 -19 25 -15 27 -31
25 -23 -4 3 -12 -3 -24 -18 -35 -23 -16 -23 -16 -2 -16 19 0 21 -3 13 -31 -5
-18 -7 -36 -3 -42 3 -6 8 -92 9 -191 2 -100 8 -305 13 -456 5 -151 8 -291 6
-310 -21 -254 -23 -761 -4 -1135 12 -237 7 -1054 -7 -1155 -5 -42 -1 -95 27
-340 15 -129 14 -124 39 -220 39 -150 105 -294 195 -431 19 -29 32 -55 29 -58
-3 -3 -39 29 -81 72 -42 43 -78 75 -81 73 -4 -5 216 -235 326 -340 35 -33 84
-72 110 -87 71 -41 80 -54 85 -137 5 -68 4 -74 -16 -82 -14 -5 61 -9 198 -10
121 0 238 -5 260 -11 49 -13 626 -23 710 -12 l60 8 -70 6 c-38 4 -105 11 -147
15 -43 3 -78 11 -78 17 0 6 22 7 58 3 31 -3 62 -7 67 -7 33 -3 198 15 240 26
28 8 97 16 155 20 58 3 117 8 133 11 43 9 32 27 -13 22 -22 -2 -40 0 -40 4 0
8 40 12 95 10 29 -2 29 -1 7 10 -17 8 -36 8 -80 -2 -31 -8 -61 -13 -66 -12 -4
2 -13 -1 -20 -6 -19 -15 -46 -22 -46 -11 0 5 8 12 18 15 21 8 156 69 196 90
16 8 31 12 34 10 2 -3 6 -43 7 -89 l2 -84 -178 3 c-99 1 -179 -1 -179 -5 0
-17 73 -26 195 -26 103 0 137 4 164 18 31 15 36 16 43 2 11 -19 33 -19 55 0
10 9 30 26 44 38 14 12 28 30 32 39 6 18 76 52 86 43 3 -3 -5 -8 -17 -12 -64
-16 0 -23 213 -23 140 1 235 5 235 11 0 8 -102 15 -125 8 -29 -8 -122 -2 -134
9 -20 19 -12 21 47 11 35 -7 63 -7 80 0 25 9 24 9 -15 10 -23 1 -45 6 -49 12
-3 6 -15 9 -25 6 -23 -6 -36 11 -15 19 32 12 15 25 -30 23 l-45 -3 23 -18 c23
-17 22 -18 -42 -17 -50 0 -61 2 -47 10 10 6 24 8 32 6 7 -3 16 -3 20 1 4 4
-10 12 -32 18 -35 10 -30 12 82 20 151 11 437 12 490 1 37 -8 39 -8 20 7 -11
8 -28 16 -37 16 -26 0 -22 20 5 21 12 1 -30 7 -95 14 -144 15 -337 13 -346 -3
-5 -7 -13 -8 -22 -2 -8 6 -10 10 -5 11 6 0 -1 5 -15 9 -36 12 -98 12 -120 0
-16 -8 -18 -8 -14 5 6 14 47 20 124 17 93 -4 185 -1 189 5 3 5 13 9 21 10 8 1
26 4 40 7 22 6 22 5 -3 -5 -15 -6 -25 -15 -22 -19 7 -11 205 -11 205 0 0 4
-21 7 -46 8 -25 0 -50 4 -55 9 -5 5 20 8 59 7 52 -2 63 0 48 8 -28 16 -285 32
-431 27 -16 0 -50 1 -75 4 -25 2 -76 1 -115 -3 -38 -4 -72 -6 -73 -4 -2 1 62
69 143 151 152 153 299 313 277 299 -7 -4 1 12 17 36 74 112 137 281 205 553
32 129 57 270 52 291 -4 13 -2 25 4 29 12 7 1 67 -14 77 -7 5 -4 8 7 8 10 0
16 4 13 9 -8 13 -15 103 -21 276 -3 88 -7 207 -10 265 -5 121 -5 112 -5 575 0
193 -1 596 -3 898 -1 301 1 547 5 547 3 0 9 -8 11 -17 3 -10 5 -2 6 17 0 19
-3 30 -7 23 -4 -6 -8 93 -9 220 -1 128 -4 270 -7 317 -8 130 -1 163 40 185 19
10 34 22 34 27 0 11 -13 10 -25 -1 -6 -5 -20 -12 -33 -16 -20 -6 -23 -3 -21
17 4 46 -1 88 -11 88 -5 0 -10 -13 -10 -28z m-1780 -64 c0 -7 -12 -20 -28 -30
-53 -32 -148 -101 -188 -138 -70 -64 -120 -93 -149 -86 -25 6 -36 -8 -12 -17
34 -12 -20 -18 -233 -23 -177 -4 -235 -3 -240 7 -6 8 -57 12 -184 13 -97 0
-176 3 -176 6 1 8 119 86 200 131 41 23 90 57 109 75 l34 34 236 0 c215 0 596
22 609 35 10 9 22 5 22 -7z m-22 -348 c-11 -319 -11 -319 -3 -805 4 -192 3
-384 -2 -425 l-8 -75 -52 -8 c-47 -7 -55 -6 -92 19 -22 14 -47 24 -55 21 -11
-5 -15 11 -20 76 -4 45 -8 102 -10 127 -2 25 -3 -29 -3 -120 0 -114 -4 -165
-12 -168 -12 -4 -15 35 -13 208 2 121 4 143 15 151 5 3 5 21 0 40 -5 19 -7 97
-6 174 1 77 2 151 2 165 -2 37 -1 52 3 80 3 14 2 54 -2 90 -3 36 -3 82 1 104
4 21 3 50 0 65 -4 14 -3 44 2 66 10 40 11 61 15 191 2 70 2 70 42 100 62 44
171 155 167 167 -3 9 34 50 39 44 1 -1 -3 -130 -8 -287z m1788 198 c-10 -183
-6 -1849 5 -2068 1 -14 1 -60 0 -102 -1 -64 -4 -76 -16 -72 -11 5 -15 -1 -15
-26 0 -17 4 -29 10 -25 5 3 7 12 3 20 -3 8 -1 15 4 15 4 0 8 -93 8 -207 0
-212 12 -515 21 -544 2 -9 -2 -24 -11 -32 -19 -20 -19 -28 0 -21 9 4 15 0 15
-9 0 -8 -7 -17 -15 -21 -9 -3 -15 -18 -15 -38 0 -50 -24 -238 -30 -238 -3 0
-4 45 -4 100 1 55 -2 100 -7 100 -7 0 -16 -185 -11 -240 5 -56 5 -87 -2 -185
-4 -60 -10 -113 -12 -117 -2 -3 0 -9 5 -12 6 -4 4 -23 -4 -49 -7 -23 -21 -67
-30 -97 -20 -66 -47 -130 -54 -130 -11 0 -6 59 7 71 6 7 12 20 12 29 0 9 5 21
12 28 7 7 9 12 5 12 -4 0 -3 9 3 21 9 15 8 24 -1 35 -6 8 -8 14 -3 14 5 0 9
20 9 45 0 27 5 47 12 49 7 3 13 14 13 25 0 14 -5 19 -15 15 -8 -4 -15 -12 -15
-20 0 -27 -28 -14 -32 16 -3 17 -1 30 4 30 4 0 8 -5 8 -12 0 -25 12 3 15 34 2
18 8 32 14 31 17 -4 13 18 -6 34 -17 13 -16 13 5 8 21 -6 23 -4 17 15 -5 15
-1 25 12 35 10 7 15 17 10 21 -4 4 -7 2 -7 -4 0 -7 -4 -12 -10 -12 -5 0 -10
15 -9 33 2 59 -14 159 -22 145 -5 -7 -6 -22 -4 -33 2 -11 6 -40 9 -65 l5 -45
-18 39 c-12 24 -21 34 -26 26 -4 -6 -3 -16 3 -22 14 -14 2 -160 -13 -173 -7
-5 -16 -27 -19 -47 -4 -21 -11 -38 -16 -38 -12 0 -13 17 -1 24 4 3 7 18 5 33
-1 15 4 42 12 61 8 19 14 46 14 61 0 15 5 32 12 39 9 9 9 12 0 12 -6 0 -17
-20 -23 -45 -10 -41 -29 -71 -29 -46 0 14 23 115 27 121 2 2 9 -2 14 -10 9
-12 9 -11 4 5 -4 11 -9 34 -11 50 -1 17 -8 41 -14 55 -9 22 -10 19 -5 -17 4
-33 2 -41 -9 -37 -16 6 -30 -46 -15 -61 12 -12 12 -25 -1 -25 -5 0 -10 7 -10
15 0 8 -5 15 -11 15 -13 0 -7 109 7 132 5 7 9 18 9 23 1 6 5 24 10 40 12 43
55 74 55 39 0 -8 5 -12 10 -9 6 3 10 16 10 28 0 13 7 32 15 44 13 18 13 26 0
64 -8 24 -21 82 -30 129 -8 47 -19 86 -25 88 -16 6 -12 42 5 48 10 4 14 14 10
28 -6 21 -6 21 10 1 16 -19 17 -16 13 46 -3 45 -9 72 -21 83 -9 10 -17 25 -17
34 0 22 -19 79 -41 125 -20 42 -24 58 -11 56 20 -3 31 2 27 14 -2 6 -6 41 -9
76 -3 35 -8 66 -11 69 -4 5 -9 -13 -7 -29 9 -65 10 -121 3 -114 -13 15 -39
112 -50 190 l-10 70 4 -65 c3 -47 2 -56 -4 -32 -5 18 -12 137 -16 265 -4 127
-9 279 -11 337 -5 135 -17 577 -17 610 0 14 1 199 3 411 l2 386 36 19 c20 10
44 26 52 34 9 8 33 28 52 44 20 16 34 35 31 43 -4 9 -24 -3 -67 -39 -33 -29
-69 -59 -79 -67 -9 -8 -20 -11 -24 -7 -4 3 6 16 22 29 16 12 52 41 82 65 29
23 62 42 73 42 12 0 22 9 25 23 3 12 19 28 36 36 16 7 29 18 29 24 0 9 47 55
58 57 1 0 0 -37 -2 -82z m-2717 -147 c52 0 92 -4 89 -7 -3 -3 -36 -9 -73 -15
-87 -12 -121 -30 -45 -23 30 3 178 6 328 7 l272 2 1 -385 c0 -212 1 -533 1
-714 l1 -330 -45 -25 c-43 -24 -45 -25 -80 -8 -42 20 -62 21 -89 7 -28 -16
-52 -68 -45 -101 6 -31 -10 -51 -118 -147 -54 -47 -64 -52 -108 -52 -40 0 -50
-4 -64 -25 -11 -17 -14 -34 -10 -53 18 -70 17 -77 -8 -112 -14 -19 -42 -63
-62 -98 -20 -35 -42 -65 -48 -67 -6 -2 -23 -6 -38 -9 -36 -8 -51 -51 -31 -97
15 -37 14 -50 -11 -149 -10 -36 -22 -82 -27 -102 -7 -25 -18 -41 -37 -50 -22
-11 -28 -21 -30 -56 -3 -34 1 -46 22 -65 24 -22 24 -27 25 -170 1 -146 1 -147
-24 -163 -21 -14 -25 -24 -25 -65 0 -38 4 -51 22 -63 12 -9 30 -16 39 -16 18
0 24 -13 79 -178 l31 -92 -20 -27 c-25 -31 -27 -85 -5 -107 10 -10 33 -16 64
-16 47 0 50 -2 81 -47 18 -27 55 -79 82 -116 l50 -68 -23 -21 c-17 -16 -21
-27 -16 -51 3 -16 11 -36 17 -44 14 -16 73 -17 98 -1 16 10 32 4 103 -41 95
-60 158 -114 158 -136 0 -8 5 -15 10 -15 6 0 10 6 10 14 0 12 4 12 30 0 25
-13 28 -18 20 -35 -20 -35 -112 -14 -98 23 4 8 2 21 -3 29 -13 21 -31 -9 -24
-41 10 -42 43 -63 90 -55 22 3 47 6 55 6 37 1 42 9 19 28 -34 27 -19 35 33 17
39 -13 43 -17 41 -44 -2 -25 -50 -203 -100 -372 -9 -30 -17 -61 -19 -67 -2 -9
-23 -13 -61 -13 -62 0 -86 -9 -81 -29 2 -7 -4 -17 -12 -23 -18 -12 -84 28
-134 80 -15 17 -34 28 -41 26 -7 -3 -53 33 -102 79 -88 84 -197 230 -262 349
-34 64 -93 234 -110 318 -24 123 -51 269 -51 281 0 35 21 -16 45 -111 27 -103
70 -226 86 -244 4 -4 -8 38 -27 95 -55 163 -92 306 -105 403 -11 88 -9 344 7
686 6 132 -11 718 -23 793 -3 18 -3 190 -2 382 5 547 4 874 -1 1214 l-5 315
25 7 c14 3 68 5 120 4 52 -1 137 -3 189 -4z m1915 -31 c6 -6 73 -10 156 -11
137 -1 254 -9 264 -20 2 -2 7 -276 10 -609 8 -916 21 -1357 44 -1442 16 -61
-4 -44 -26 22 -11 32 -35 77 -53 100 -18 22 -29 43 -25 47 7 8 20 -5 59 -58
l18 -24 -6 34 c-8 53 -30 79 -67 83 -26 2 -42 15 -79 61 -28 35 -49 72 -52 94
-4 19 -16 51 -29 69 -20 29 -29 34 -64 34 -34 0 -52 8 -100 46 -41 31 -60 53
-61 70 -1 14 -10 40 -20 57 -22 37 -73 49 -102 23 -15 -13 -24 -12 -91 19 -41
19 -88 39 -103 44 -16 6 -26 15 -22 20 3 6 -1 21 -10 34 -16 26 -61 51 -69 39
-6 -10 16 -37 37 -45 9 -3 17 -11 17 -17 0 -13 -4 -13 -44 4 l-34 14 -2 254
c-1 139 -4 269 -7 288 -2 19 -6 134 -9 255 -4 180 -15 387 -27 500 -2 19 6 20
143 25 187 7 341 3 354 -10z m-550 -1360 c17 -6 24 -14 20 -25 -4 -10 -2 -13
8 -10 12 5 16 -7 21 -57 3 -34 5 -63 4 -64 -1 -1 -36 3 -77 8 -84 11 -226 12
-312 3 -51 -6 -58 -5 -58 10 0 20 67 85 87 85 7 0 13 7 13 16 0 13 3 14 14 5
10 -8 16 -9 21 -1 12 20 41 9 92 -35 28 -25 59 -45 69 -45 19 0 104 51 104 63
0 12 -13 8 -55 -18 -22 -14 -47 -25 -55 -25 -8 0 -35 19 -58 42 -34 31 -41 43
-30 49 18 12 161 11 192 -1z m136 -52 c0 -5 9 -7 19 -3 38 12 221 -64 221 -91
0 -11 6 -13 19 -9 11 3 22 1 26 -5 3 -5 -1 -10 -11 -10 -15 0 -15 -2 0 -25 9
-13 16 -41 16 -60 0 -20 5 -45 11 -57 17 -31 3 -33 -38 -6 -69 45 -144 88
-154 88 -6 0 -24 8 -42 17 -18 9 -45 19 -62 23 -23 4 -30 12 -32 30 -1 14 -4
45 -6 70 -2 25 -3 48 0 52 5 10 33 -2 33 -14z m-736 -15 c4 -5 26 -12 49 -18
30 -7 45 -18 55 -37 16 -34 26 -35 46 -6 18 25 31 19 22 -10 -4 -13 -22 -24
-54 -32 -53 -13 -130 -36 -154 -45 -11 -4 -18 0 -21 12 -4 15 -5 15 -6 -3 0
-12 -7 -24 -15 -27 -11 -4 -14 2 -14 23 1 16 5 27 10 24 4 -3 8 6 8 20 0 33
18 34 26 1 3 -14 10 -25 14 -25 5 0 4 15 -1 32 -13 46 -11 58 7 58 11 0 14 6
9 20 -6 20 5 27 19 13z m-175 -100 c-1 -60 -12 -99 -27 -95 -7 1 -12 -5 -12
-12 0 -8 -17 -28 -37 -43 -21 -15 -62 -47 -90 -70 -32 -25 -59 -40 -68 -37 -9
4 -15 0 -15 -8 0 -8 -16 -30 -36 -49 -19 -18 -45 -50 -57 -69 -12 -19 -40 -60
-63 -90 -48 -65 -112 -194 -130 -265 -32 -125 -50 -179 -61 -182 -7 -3 -23 17
-37 44 -16 31 -25 41 -25 28 -1 -11 10 -40 24 -64 28 -47 32 -71 13 -71 -9 0
-10 -2 -2 -8 9 -5 9 -30 0 -97 -13 -91 -13 -140 -1 -230 4 -27 9 -74 11 -104
2 -30 6 -65 8 -78 6 -28 -14 -30 -50 -7 -13 9 -27 14 -30 11 -3 -3 5 -11 18
-18 34 -18 37 -28 21 -60 -8 -16 -13 -35 -10 -42 2 -6 14 9 26 36 22 48 41 61
41 30 1 -10 18 -58 40 -108 21 -49 37 -91 36 -93 -2 -1 -35 12 -75 29 -53 24
-73 38 -77 56 -6 24 -34 33 -34 11 0 -9 -3 -8 -9 2 -6 8 -8 17 -5 21 2 4 0 19
-6 33 -6 17 -6 27 1 32 7 4 7 10 1 16 -6 6 -8 17 -5 24 3 8 1 20 -5 27 -19 25
-23 85 -7 117 8 16 19 30 24 30 5 0 11 14 15 30 3 17 17 47 30 66 25 37 25 64
-1 64 -8 0 -12 -4 -9 -9 9 -13 -63 -163 -79 -165 -6 -1 -10 43 -11 112 -1 61
1 112 3 112 3 0 11 -7 19 -15 34 -33 46 -12 14 23 -19 20 -21 31 -16 140 2 64
9 131 14 147 6 17 13 42 16 58 7 30 27 35 46 12 19 -23 33 -18 28 10 -5 22 -2
25 14 19 14 -4 30 3 53 26 l32 31 -29 32 c-52 56 -58 64 -58 72 0 4 19 39 42
76 40 65 68 87 68 54 0 -31 25 -95 37 -95 16 0 16 2 -2 36 -8 16 -15 43 -15
61 0 28 4 33 48 49 26 9 58 27 71 40 22 21 23 24 7 39 -9 9 -16 23 -16 31 0 8
-4 14 -10 14 -26 0 -3 33 73 107 59 58 88 79 97 73 11 -7 12 -14 3 -32 -22
-47 -29 -73 -25 -90 7 -34 20 -18 27 31 4 28 14 56 22 63 8 7 43 13 77 14 77
2 79 2 70 15 -3 6 -17 8 -30 5 -14 -4 -24 -2 -24 4 0 5 7 10 15 10 11 0 12 5
5 26 -16 42 -12 54 24 69 19 8 37 19 41 25 14 23 25 7 24 -37z m797 -31 c30
-16 32 -41 30 -317 -1 -273 11 -218 -120 -535 -75 -182 -86 -214 -67 -195 10
10 123 270 156 358 27 71 38 46 33 -75 l-4 -103 -80 -108 c-75 -101 -81 -107
-109 -102 -16 3 -33 9 -36 13 -4 4 1 63 11 132 25 168 77 493 90 555 23 116
35 239 23 232 -6 -4 -13 -30 -16 -59 -7 -56 -8 -66 -27 -168 -7 -36 -14 -77
-15 -92 -2 -15 -8 -44 -14 -65 -5 -21 -13 -63 -16 -93 -4 -30 -8 -57 -10 -60
-7 -12 -45 -304 -45 -348 0 -33 -2 -34 -29 -29 -15 3 -33 1 -39 -5 -9 -9 -20
6 -42 58 -17 38 -43 94 -58 124 l-27 55 0 415 0 415 40 7 c65 10 347 3 371
-10z m474 -13 c32 -17 85 -52 117 -78 49 -40 57 -51 55 -75 -3 -24 -1 -27 16
-22 22 7 108 -70 155 -141 35 -51 30 -64 -20 -53 -21 4 -59 11 -85 15 -42 5
-48 9 -48 31 0 13 -4 24 -10 24 -5 0 -7 -7 -4 -15 13 -33 -24 -11 -95 58 -42
40 -89 83 -105 95 -28 21 -31 43 -4 26 18 -12 139 -7 151 5 13 13 -7 15 -100
12 l-61 -3 -7 49 c-3 26 -10 58 -16 71 -17 41 -14 41 61 1z m-924 -191 c-3
-112 -7 -274 -9 -360 -1 -87 -4 -158 -7 -158 -3 0 -11 21 -19 48 -7 26 -17 57
-22 70 -5 14 -5 22 1 22 6 0 1 9 -10 20 -21 21 -27 55 -10 65 5 3 9 21 8 39
-1 18 2 39 7 47 6 11 5 12 -5 2 -8 -7 -14 -28 -14 -48 -1 -46 -14 -40 -36 15
-35 89 -61 143 -66 137 -3 -3 1 -18 9 -34 8 -15 31 -82 51 -148 20 -66 52
-154 71 -195 25 -57 35 -95 40 -157 4 -46 3 -83 -1 -83 -5 0 -40 39 -79 87
-38 47 -90 104 -113 127 -57 54 -72 84 -72 146 0 27 -4 50 -9 50 -5 0 -9 21
-9 48 0 26 -2 117 -5 203 l-5 157 37 15 c87 37 149 57 189 63 23 4 45 11 48
15 3 5 12 9 21 9 14 0 15 -21 9 -202z m684 117 c144 -72 196 -109 303 -214
106 -103 210 -241 250 -332 38 -87 73 -203 97 -328 20 -102 22 -134 17 -290
-5 -142 -10 -193 -30 -266 -53 -197 -107 -314 -198 -430 -55 -70 -244 -245
-265 -245 -7 0 -19 -6 -26 -13 -36 -33 -166 -107 -191 -107 -8 0 -24 32 -39
78 -15 42 -40 116 -57 164 -31 83 -32 91 -29 227 3 133 9 166 23 122 3 -11 42
-77 86 -147 44 -71 87 -141 96 -157 28 -55 85 -139 90 -133 3 2 -4 17 -14 33
-11 15 -37 60 -58 98 -21 39 -50 88 -65 110 -15 22 -55 88 -89 147 l-62 108
-6 100 c-7 117 -3 121 66 58 119 -110 485 -397 506 -398 11 0 -34 38 -145 123
-179 138 -410 334 -415 352 -13 53 -13 76 1 82 8 3 20 1 27 -5 6 -6 35 -19 62
-30 28 -11 90 -38 138 -61 49 -23 90 -41 92 -41 3 0 30 -12 60 -26 31 -14 61
-24 67 -22 6 2 -78 43 -185 91 -263 117 -262 116 -262 158 0 25 4 33 15 30 25
-6 715 -14 710 -8 -3 4 -105 9 -225 11 -121 3 -284 9 -362 12 l-143 6 0 39 c0
34 3 39 28 45 267 62 654 174 676 195 5 5 -22 0 -60 -12 -217 -63 -309 -89
-320 -89 -6 0 -34 -6 -60 -14 -109 -32 -256 -67 -261 -62 -9 9 -11 110 -2 127
4 9 36 33 70 53 78 46 377 255 386 269 4 6 1 7 -8 2 -22 -13 -202 -130 -331
-216 -64 -42 -119 -75 -122 -71 -3 3 -6 24 -6 47 0 50 26 102 117 234 150 217
233 343 233 354 0 15 -8 5 -58 -70 -23 -35 -42 -67 -42 -72 0 -5 -4 -11 -8
-13 -12 -4 -115 -145 -177 -241 -27 -42 -53 -77 -57 -77 -11 0 -9 162 2 245 9
61 62 222 92 279 6 12 6 22 0 28 -13 13 -44 -55 -36 -77 4 -8 2 -15 -4 -15 -6
0 -13 -18 -17 -39 -3 -22 -13 -47 -20 -58 -12 -16 -14 10 -15 193 0 116 3 213
6 216 9 10 54 -7 154 -57z m-1031 -237 l2 -202 -97 100 c-99 101 -100 97 -4
-11 94 -106 110 -138 110 -225 0 -43 -5 -81 -11 -87 -7 -7 -8 -19 -4 -30 13
-30 12 -193 -2 -193 -6 0 -49 13 -95 29 -110 38 -360 112 -365 107 -5 -4 104
-42 292 -101 83 -26 156 -52 163 -57 7 -7 12 -37 12 -81 l0 -70 -87 6 c-200
14 -453 20 -453 10 0 -6 52 -11 133 -12 168 -2 388 -18 399 -29 5 -5 8 -37 6
-72 l-3 -63 -200 -52 c-247 -64 -313 -84 -320 -95 -3 -5 43 4 102 20 341 91
414 108 419 96 3 -7 4 -46 2 -87 -3 -67 -5 -74 -28 -86 -111 -58 -358 -198
-370 -210 -14 -15 25 5 274 139 59 32 113 58 120 58 8 0 10 -40 6 -144 l-5
-144 -45 -48 c-59 -63 -134 -163 -128 -170 3 -2 41 39 85 93 43 54 83 96 89
93 5 -3 8 -7 7 -10 0 -3 3 -59 7 -126 10 -130 28 -196 80 -277 16 -26 27 -47
24 -47 -3 0 -22 11 -42 25 -20 14 -40 25 -44 25 -59 0 -412 367 -462 480 -6
14 -13 27 -17 30 -25 20 -102 234 -96 267 2 13 1 23 -3 23 -8 0 -15 36 -31
160 -9 75 -1 196 22 320 11 58 71 253 93 305 35 79 72 152 88 169 10 11 18 23
18 28 0 7 7 16 53 70 9 12 17 25 17 29 0 13 53 59 67 59 7 0 13 4 13 10 0 15
55 67 133 126 40 30 72 54 73 54 1 0 2 -91 3 -202z m1520 -69 c19 -4 39 -5 43
-3 5 3 22 3 38 -1 l30 -6 -7 -62 c-4 -44 -2 -59 5 -52 6 6 12 31 14 58 2 26 8
48 13 49 27 5 90 -125 110 -229 8 -40 -5 -42 -70 -12 -63 30 -69 16 -7 -15 28
-14 53 -30 57 -36 3 -5 -2 -24 -11 -42 -26 -51 -35 -98 -18 -98 10 0 14 10 12
32 -1 18 3 33 10 36 6 2 12 11 12 20 1 10 7 28 15 42 13 24 14 24 20 5 4 -11
11 -28 16 -37 5 -10 5 -18 0 -18 -4 0 -9 -42 -10 -92 -1 -51 -6 -94 -11 -96
-5 -2 -2 -14 6 -28 11 -16 14 -33 9 -51 -4 -16 -9 -66 -10 -113 -2 -47 -6
-164 -10 -260 -7 -187 -12 -254 -21 -282 -3 -10 -7 -30 -10 -44 -3 -15 -9 -35
-15 -45 -10 -20 -59 -49 -82 -49 -8 0 -20 -7 -27 -15 -19 -23 13 -20 58 6 43
25 72 60 76 92 5 34 18 81 26 92 15 19 28 132 34 287 1 26 5 50 9 54 3 4 3 14
-2 23 -5 9 -4 63 1 121 11 112 11 115 4 258 -2 50 -1 90 4 87 7 -4 13 -37 26
-149 3 -22 9 -47 13 -55 8 -16 7 -89 -4 -231 -3 -41 -8 -106 -10 -145 -2 -38
-6 -77 -8 -85 -2 -8 -8 -34 -12 -58 -4 -23 -11 -45 -16 -48 -4 -2 -6 -11 -3
-18 3 -7 -2 -20 -10 -29 -8 -8 -12 -17 -9 -21 3 -3 1 -11 -4 -18 -6 -7 -14
-32 -18 -55 -4 -24 -11 -43 -16 -43 -5 0 -9 -7 -9 -15 0 -20 -86 -184 -111
-211 -10 -11 -19 -24 -19 -27 0 -9 -77 -109 -129 -168 -40 -46 -66 -53 -51
-13 6 14 10 54 10 89 l0 64 46 7 c25 3 48 13 51 20 3 8 13 14 22 14 22 1 68
37 58 47 -5 4 -14 1 -20 -8 -7 -8 -22 -18 -34 -21 -18 -5 -23 -2 -23 13 0 10
-4 19 -10 19 -14 0 -13 -23 2 -38 9 -9 8 -12 -3 -16 -8 -2 -29 -9 -48 -15 -19
-6 -36 -9 -39 -7 -5 6 57 86 66 86 4 0 15 18 25 40 9 22 24 40 32 40 9 0 12 6
9 15 -4 9 5 32 19 53 14 20 29 51 33 67 3 17 12 35 18 40 7 6 12 19 13 30 1
27 35 139 44 145 4 3 7 16 7 30 1 14 5 68 11 120 6 52 11 122 10 155 -1 100
-37 362 -53 387 -19 30 -70 188 -62 195 3 3 -6 20 -19 38 -14 17 -25 35 -25
39 0 8 -33 56 -81 116 -51 64 -57 75 -33 66 10 -5 35 -12 53 -17z m-1402 -316
c15 -20 51 -62 78 -92 94 -105 132 -156 138 -189 l7 -33 -58 51 c-31 29 -67
57 -79 63 -13 5 -23 14 -23 18 0 4 -20 17 -43 28 -24 12 -49 33 -55 47 -14 30
-16 144 -2 144 5 0 22 -17 37 -37z m12 -171 c25 -21 62 -49 81 -62 57 -38 120
-103 120 -123 0 -11 -5 -17 -12 -15 -7 3 -38 13 -68 22 -30 9 -62 21 -70 25
-9 5 -31 12 -50 16 -55 12 -60 20 -60 101 0 41 3 74 6 74 3 0 27 -17 53 -38z
m448 -234 c48 -20 63 -39 63 -76 0 -43 -36 -100 -68 -109 -13 -3 -42 -2 -65 3
-37 8 -44 14 -56 49 -12 37 -12 45 4 78 16 35 54 66 82 67 7 0 25 -5 40 -12z
m240 -200 c2 -43 0 -78 -4 -78 -4 0 -30 21 -58 47 -49 47 -48 46 6 -12 56 -60
57 -60 62 -132 2 -40 1 -70 -4 -67 -5 2 -24 33 -43 67 -20 34 -36 58 -36 53 0
-5 18 -42 41 -82 39 -71 40 -77 45 -186 2 -62 7 -129 9 -148 l5 -35 -15 27
c-20 36 -167 479 -161 486 3 2 10 -6 15 -19 25 -63 60 -132 60 -119 1 8 -17
54 -38 103 -29 65 -36 87 -25 87 8 0 14 6 13 13 -2 6 1 27 5 45 l8 33 56 -3
57 -3 2 -77z m-499 10 c-12 -25 -26 -22 -31 5 -3 17 -5 16 -6 -8 -1 -23 -8
-33 -29 -42 -15 -7 -61 -33 -102 -58 -41 -24 -78 -45 -82 -45 -5 0 -8 25 -8
56 0 34 4 53 10 49 6 -3 10 -1 10 4 0 6 -4 11 -10 11 -5 0 -10 4 -10 9 0 5 51
21 113 36 61 15 119 31 127 35 19 11 31 -26 18 -52z m-68 -189 c-39 -40 -87
-100 -107 -131 -20 -32 -39 -58 -42 -58 -3 0 -7 39 -9 87 -2 48 -6 91 -9 96
-6 10 36 57 52 57 7 0 31 14 53 30 23 17 45 30 49 31 5 0 24 11 43 23 l35 23
3 -41 c3 -40 -1 -46 -68 -117z m360 120 c0 -28 47 -173 115 -354 15 -38 35
-99 46 -135 10 -36 42 -128 70 -205 28 -77 67 -189 86 -250 19 -60 60 -180 90
-265 30 -85 68 -195 85 -245 16 -49 41 -114 54 -143 13 -29 24 -55 24 -58 0
-3 -14 -4 -31 -2 -36 3 -26 -20 -177 438 -97 295 -145 438 -209 625 -30 88
-63 189 -74 225 -64 205 -104 328 -116 353 -16 32 -10 47 18 47 15 0 19 -7 19
-31z m-100 13 c0 -5 -7 -32 -16 -62 -9 -29 -17 -61 -19 -69 -33 -161 -51 -223
-126 -453 -11 -32 -28 -97 -39 -145 -20 -83 -53 -190 -69 -223 -4 -8 -16 -49
-25 -90 -9 -41 -28 -111 -41 -155 -14 -44 -39 -143 -55 -220 -17 -77 -35 -154
-41 -171 -5 -17 -9 -42 -9 -56 0 -23 -5 -26 -42 -30 -56 -6 -61 -3 -42 33 8
17 23 63 34 102 10 40 52 173 94 297 87 257 115 349 201 660 13 47 30 104 39
125 8 22 36 121 61 220 26 99 51 188 56 197 5 10 9 25 9 33 0 8 7 15 15 15 8
0 15 -4 15 -8z m50 -92 c0 -10 13 -56 29 -102 15 -46 47 -139 69 -208 23 -69
59 -177 82 -239 22 -62 38 -116 35 -121 -10 -16 -97 -32 -155 -28 -44 3 -66
10 -83 26 -13 12 -28 22 -33 22 -18 0 -62 54 -84 102 l-20 46 19 79 c11 43 43
155 70 248 28 94 51 178 51 188 0 10 5 15 10 12 6 -3 10 -15 10 -25z m-238
-97 c-2 -24 -8 -43 -13 -43 -5 0 -9 -5 -9 -11 0 -5 5 -7 10 -4 6 3 10 1 10 -4
0 -6 -4 -11 -10 -11 -5 0 -10 -7 -10 -15 0 -8 -22 -58 -49 -112 -27 -54 -52
-107 -56 -118 -5 -16 -8 -17 -15 -5 -11 17 -6 35 21 97 20 45 27 101 9 73 -9
-13 -14 -7 -11 13 0 4 -4 7 -9 7 -13 0 -13 -13 1 -27 15 -15 1 -73 -17 -73 -9
0 -14 -11 -14 -30 0 -16 -4 -30 -10 -30 -5 0 -10 15 -10 33 -1 25 -3 29 -10
15 -6 -9 -9 -25 -8 -35 4 -49 -3 -83 -17 -83 -17 0 -20 -16 -5 -25 6 -4 8 -10
5 -15 -3 -5 -1 -11 5 -15 6 -4 13 7 16 25 4 17 11 33 15 36 5 3 9 14 9 25 0
12 4 17 11 13 15 -9 5 -55 -28 -131 -30 -69 -43 -79 -43 -34 0 17 -6 31 -16
35 -12 5 -14 10 -5 20 6 7 8 16 5 19 -4 4 -8 23 -10 44 -2 21 -6 58 -9 83 -7
43 1 53 10 14 17 -74 25 -75 20 -1 -4 50 -2 77 5 77 5 0 9 -3 9 -7 -3 -19 2
-33 12 -33 7 0 9 12 5 35 -6 29 -3 41 16 64 13 15 34 43 48 61 14 18 49 63 78
98 28 36 53 70 53 76 1 6 4 -5 8 -24 4 -19 5 -54 3 -77z m-916 -158 c61 -29
78 -43 94 -75 15 -29 17 -40 7 -40 -9 0 -11 -12 -9 -40 5 -45 22 -44 22 1 0
39 9 32 64 -47 46 -64 54 -84 37 -84 -11 0 -80 27 -104 41 -10 5 -26 8 -35 5
-9 -3 -22 -2 -27 2 -23 16 -85 97 -85 110 0 8 -9 26 -19 41 -20 27 -39 121
-26 121 4 0 41 -16 81 -35z m913 -42 c1 -13 -4 -23 -9 -23 -6 0 -8 12 -5 28 5
27 5 27 -6 -2 -9 -23 -9 -31 0 -34 6 -2 11 -16 11 -30 0 -38 -44 -205 -75
-281 -14 -36 -25 -73 -25 -83 0 -10 -4 -26 -9 -36 -5 -9 -15 -33 -23 -52 l-15
-34 -17 59 c-10 33 -22 68 -27 77 -15 29 -10 53 24 123 36 72 59 75 39 6 -30
-103 -33 -126 -21 -156 l12 -30 7 40 c4 22 19 77 34 123 26 78 26 84 10 110
-15 27 -15 32 11 103 14 41 36 94 48 118 20 40 22 42 28 20 4 -13 7 -34 8 -46z
m1477 -122 c-3 -5 -10 -67 -16 -137 -14 -180 -40 -295 -96 -419 -7 -16 -24
-60 -38 -97 -29 -80 -86 -180 -151 -266 -46 -61 -184 -192 -202 -192 -5 0 -18
-9 -28 -20 -23 -25 -45 -26 -45 -1 0 11 -4 22 -9 25 -8 5 -141 392 -141 409 0
4 17 11 37 16 33 9 39 8 61 -14 32 -32 23 -60 -16 -50 -15 3 -35 14 -46 23
-18 16 -18 16 -11 -8 10 -34 23 -41 70 -38 33 3 41 7 50 31 8 23 6 30 -8 38
-24 14 -21 28 4 22 16 -4 20 -2 17 8 -3 9 -16 13 -36 11 -59 -6 -35 25 75 99
103 69 108 71 137 60 63 -25 94 -29 115 -14 21 14 29 53 11 53 -5 0 -10 5 -10
10 0 6 7 10 15 10 20 0 19 14 -1 31 -14 11 -18 10 -30 -6 -12 -17 -14 -17 -14
-2 0 9 4 17 8 17 5 0 12 11 18 25 13 34 142 175 160 175 9 0 12 5 9 11 -5 7 4
8 28 4 43 -8 57 15 25 44 -18 17 -19 24 -9 53 13 38 52 98 64 98 5 0 6 -4 3
-9z m-2237 -117 c18 -8 45 -14 60 -14 20 0 47 -21 111 -85 47 -47 118 -108
158 -136 79 -55 209 -119 241 -119 13 0 21 -6 21 -16 0 -32 -35 -147 -47 -151
-6 -3 -42 12 -80 32 -80 43 -93 63 -110 170 -8 55 -25 64 -102 58 -88 -6 -128
2 -137 30 -4 12 -7 59 -8 104 -1 45 -6 87 -12 93 -7 7 -9 -22 -6 -102 5 -107
4 -112 -13 -98 -10 8 -29 33 -43 55 -14 22 -33 46 -43 52 -19 14 -99 130 -99
144 0 10 66 0 109 -17z m841 -56 c8 -24 22 -60 32 -80 10 -21 18 -51 18 -68 0
-16 5 -30 10 -30 6 0 10 -11 10 -25 0 -14 4 -25 8 -25 14 0 8 -45 -11 -73 -18
-27 -11 -37 11 -15 9 9 12 8 12 -4 0 -18 -23 -30 -44 -22 -11 4 -11 10 -2 30
6 13 14 24 19 24 4 0 7 14 7 30 0 30 0 30 -25 14 -20 -13 -28 -14 -40 -4 -20
16 -19 3 0 -17 13 -12 18 -13 31 -2 13 11 14 9 3 -17 -22 -50 -30 -56 -67 -49
-19 4 -46 14 -59 22 -26 17 -27 36 -5 93 5 14 9 28 8 31 0 3 5 13 12 22 8 9
11 21 7 27 -4 6 -3 16 3 23 5 7 15 45 22 85 7 39 16 72 20 72 4 0 13 -19 20
-42z m1030 -80 c0 -78 -7 -106 -29 -110 -16 -3 -142 12 -150 19 -2 1 18 22 44
45 27 24 65 58 85 75 19 18 38 33 43 33 4 0 7 -28 7 -62z m-647 -67 c-6 -3
-20 -24 -31 -46 -33 -65 -148 -165 -173 -149 -4 2 19 30 52 61 32 31 59 62 59
70 0 7 8 17 18 20 17 7 32 22 32 35 0 10 -52 -10 -72 -29 -9 -8 -22 -12 -29
-7 -8 4 -10 3 -5 -4 4 -6 0 -23 -9 -36 -9 -14 -16 -28 -15 -31 1 -4 -11 -18
-26 -33 l-27 -27 7 28 c4 19 3 26 -4 22 -18 -11 -11 10 15 45 14 19 25 40 25
47 0 7 10 13 23 13 29 1 125 34 140 49 8 8 13 7 20 -5 6 -10 6 -19 0 -23z
m445 -53 c-8 -13 -18 -44 -21 -70 -4 -27 -10 -60 -13 -75 -6 -26 -5 -27 10
-13 9 9 18 37 20 67 3 28 10 61 16 73 11 20 17 22 63 15 29 -3 64 -7 80 -7 15
-1 27 -4 27 -7 0 -22 -189 -161 -217 -161 -7 0 -13 -4 -13 -8 0 -13 -122 -74
-130 -65 -10 9 -50 122 -50 139 0 6 28 23 63 38 34 15 82 42 107 61 54 41 80
46 58 13z m-1354 -37 c9 -8 23 -39 32 -70 9 -31 21 -62 26 -68 34 -42 -112 33
-204 105 -32 25 -58 46 -58 48 0 1 42 2 94 0 61 -1 99 -6 110 -15z m1002 -138
c13 -31 43 -121 44 -130 0 -2 -9 -3 -20 -3 -11 0 -52 -11 -92 -24 -113 -38
-248 -47 -248 -16 0 5 10 12 23 15 12 4 33 17 47 30 14 12 36 28 50 35 16 9
20 15 12 18 -8 2 -26 -7 -40 -21 -15 -14 -44 -35 -65 -46 -38 -21 -40 -21 -68
-4 -64 40 -148 98 -149 103 0 3 55 5 123 6 131 1 319 34 347 60 19 18 17 19
36 -23z m-577 -25 c20 -6 68 -35 106 -64 39 -28 83 -59 98 -69 17 -11 24 -22
19 -27 -15 -15 -235 2 -284 21 -33 12 -32 8 -12 74 9 29 18 58 20 65 4 15 9
15 53 0z m707 -363 c41 -121 74 -220 74 -220 0 0 -221 -1 -490 -3 -270 -1
-490 0 -490 3 0 15 63 267 80 323 11 34 20 69 20 78 0 11 6 14 20 10 11 -3 30
-9 43 -12 12 -4 28 -15 35 -25 8 -12 25 -19 47 -19 39 0 52 -14 35 -35 -24
-29 -90 -8 -90 29 0 10 -8 16 -21 16 -16 0 -19 -4 -14 -22 19 -65 118 -93 151
-43 9 14 13 32 9 45 -11 34 33 42 190 37 164 -6 154 -5 135 -17 -10 -6 -4 -8
21 -4 44 7 58 -9 33 -37 -24 -27 -77 -18 -110 19 -23 27 -23 27 -24 4 0 -39
43 -72 93 -72 53 0 75 15 83 57 6 29 3 34 -22 44 l-29 11 30 16 c43 24 88 40
104 38 9 -1 40 -79 87 -221z m44 -263 c165 -2 168 -7 40 -60 -111 -45 -170
-60 -325 -82 -159 -23 -175 -27 -175 -42 0 -13 -170 -5 -395 18 -144 15 -154
18 -250 64 -133 63 -157 93 -80 102 34 3 964 4 1185 0z m-1235 -98 c22 -12 72
-32 110 -45 39 -12 74 -25 78 -29 4 -4 -53 -6 -128 -6 l-135 1 0 26 c0 15 -3
41 -6 59 -7 30 -6 32 17 25 13 -4 42 -18 64 -31z"/>
<path d="M3054 5720 c21 -235 54 -511 78 -650 13 -81 32 -117 23 -45 -3 28
-13 108 -21 180 -8 71 -21 174 -29 230 -7 55 -17 129 -21 165 -8 85 -11 108
-19 150 -11 63 -18 46 -11 -30z"/>
<path d="M5370 7929 c-25 -17 -62 -47 -84 -68 -25 -23 -40 -32 -43 -23 -8 20
-25 14 -18 -7 9 -28 -154 -177 -203 -186 -28 -5 -33 -9 -21 -16 14 -7 15 -17
6 -66 -12 -68 -14 -934 -4 -1383 16 -675 12 -1881 -8 -2372 -3 -75 -1 -118 5
-118 6 0 10 -5 10 -11 0 -5 -4 -7 -10 -4 -6 4 -9 -17 -8 -57 1 -42 3 -51 5
-25 2 20 8 35 13 32 4 -3 6 -184 4 -404 -2 -219 -2 -405 1 -413 7 -17 5 -17
200 -21 77 -2 146 -6 153 -11 6 -4 103 -6 214 -6 112 1 211 -2 222 -6 10 -4
21 -2 25 3 13 21 174 41 195 24 10 -8 17 -6 31 9 10 11 15 20 11 20 -4 0 11
21 33 46 22 26 57 70 76 100 20 29 62 81 95 116 43 45 60 70 59 88 -1 17 -3
19 -6 8 -9 -36 -23 -17 -22 30 1 38 2 42 9 22 7 -23 8 -23 9 -3 1 12 -3 24 -9
28 -6 4 -5 15 2 30 7 17 8 50 1 112 -6 48 -11 174 -12 278 0 105 -4 272 -7
373 -4 100 -4 182 0 182 4 0 25 -39 47 -86 37 -77 61 -146 164 -474 19 -58 55
-170 80 -250 26 -80 68 -212 95 -295 71 -224 97 -296 109 -308 21 -21 11 -27
-46 -27 -45 -1 -54 -3 -40 -11 20 -12 599 -6 732 7 44 5 170 9 280 9 l200 0
20 -37 c11 -21 22 -38 25 -38 8 0 4 86 -5 99 -4 7 12 36 36 67 50 65 67 78 45
35 -9 -17 -20 -31 -24 -31 -4 0 -12 -11 -19 -25 -6 -14 -9 -25 -6 -25 13 0
103 123 104 143 0 7 9 26 20 42 10 17 28 49 40 72 15 28 27 39 37 35 22 -8 10
32 -54 176 -30 68 -54 128 -54 133 0 6 -12 36 -26 67 -48 106 -54 120 -54 134
0 8 -4 18 -9 23 -11 13 -177 428 -202 507 -11 35 -24 72 -28 83 -5 11 -18 45
-29 75 -69 183 -92 251 -92 268 0 10 -4 22 -9 27 -6 6 -12 26 -15 45 -5 39
-22 85 -91 240 -26 58 -51 119 -57 135 -6 17 -15 35 -19 41 -5 6 -3 16 3 22 9
9 9 12 0 12 -7 0 -12 -4 -12 -10 0 -16 -17 -12 -24 5 -4 10 12 34 45 68 29 29
72 77 98 107 25 30 70 78 100 105 49 45 109 124 140 183 9 17 9 22 -1 22 -7 0
-29 -26 -47 -57 -42 -71 -93 -142 -104 -143 -4 0 17 36 47 80 29 43 66 104 82
135 30 57 51 75 33 29 -5 -15 -7 -29 -4 -33 8 -7 24 18 31 49 3 14 19 69 35
122 46 152 53 197 64 403 3 66 8 143 12 170 21 188 7 356 -42 502 -13 40 -27
88 -31 108 -3 19 -10 35 -14 35 -14 0 -53 114 -41 118 6 2 8 9 4 15 -4 7 -8
17 -9 22 -1 6 -14 30 -28 55 -14 25 -30 54 -35 66 -5 11 -32 49 -60 84 -34 42
-47 66 -40 71 18 11 -116 138 -211 201 -96 63 -282 156 -380 189 -36 12 -72
28 -81 36 -12 10 -18 11 -21 3 -2 -7 -49 0 -143 24 -183 45 -362 65 -535 59
-157 -6 -875 -10 -860 -5 12 4 14 22 3 22 -5 0 -28 -14 -53 -31z m504 -34 c43
-1 178 1 300 5 248 7 406 -5 519 -40 37 -12 78 -18 90 -15 16 5 18 4 8 -3 -11
-8 -10 -12 7 -21 11 -6 28 -11 37 -11 15 0 49 -12 158 -58 48 -20 59 -10 13
12 -35 17 -55 36 -37 36 5 0 51 -16 102 -35 141 -54 361 -174 405 -222 13 -14
24 -22 24 -17 0 4 18 -10 41 -31 38 -37 64 -76 162 -238 42 -70 49 -101 17
-72 -28 26 -25 11 5 -21 14 -15 30 -45 36 -68 5 -23 17 -55 25 -73 8 -17 14
-36 14 -42 0 -6 10 -29 21 -51 12 -22 28 -75 36 -118 8 -42 19 -97 24 -122 33
-152 30 -470 -4 -457 -7 3 -11 10 -9 17 19 84 18 207 -3 222 -6 5 -5 8 3 8 6
0 12 11 12 25 0 14 -5 25 -11 25 -5 0 -7 -4 -4 -10 3 -5 1 -10 -4 -10 -6 0
-11 10 -12 23 l0 22 -9 -22 c-5 -12 -16 -30 -25 -40 -9 -10 -24 -28 -33 -41
l-17 -23 -22 21 c-13 11 -20 27 -17 35 9 21 25 19 17 -2 -3 -10 -3 -15 1 -11
7 5 13 26 15 51 1 4 8 7 16 7 8 0 15 9 15 19 0 11 6 26 13 33 18 18 28 46 18
53 -5 2 -12 -6 -15 -20 -11 -45 -45 -25 -52 30 -5 41 -11 59 -20 62 -6 2 -10
-37 -10 -92 0 -101 -17 -149 -27 -78 -23 159 -23 154 -27 166 -4 11 -5 18 -14
64 -4 24 -12 45 -17 49 -5 3 -9 14 -9 26 0 24 -73 174 -99 203 -10 11 -26 34
-34 50 -9 17 -32 47 -51 68 -20 21 -36 42 -36 48 0 5 -6 9 -14 9 -8 0 -16 3
-18 8 -7 16 -157 141 -218 182 -214 144 -496 226 -861 251 -175 12 -278 10
-709 -10 -129 -6 -295 -14 -368 -17 -77 -4 -130 -10 -125 -15 15 -15 292 -22
433 -10 224 19 611 25 745 12 218 -22 414 -57 531 -97 126 -42 265 -102 302
-131 21 -15 63 -45 94 -66 62 -41 171 -159 233 -249 21 -32 44 -58 52 -58 12
0 18 -13 14 -34 -1 -5 2 -12 6 -15 17 -13 55 -93 70 -148 22 -85 53 -211 63
-264 4 -25 13 -63 19 -86 9 -31 8 -49 -3 -80 -9 -25 -11 -45 -5 -54 7 -11 9
-11 9 4 0 9 5 17 10 17 13 0 11 -399 -3 -450 -5 -19 -9 -52 -9 -74 1 -21 -4
-50 -10 -65 -6 -14 -12 -39 -14 -54 -12 -93 -105 -312 -186 -438 -37 -58 -161
-165 -286 -247 -62 -41 -82 -45 -82 -16 0 8 -5 14 -10 14 -7 0 -7 -7 0 -21 18
-32 4 -65 -32 -80 l-33 -14 33 -5 c32 -5 36 -11 83 -115 60 -133 175 -418 185
-460 4 -17 49 -128 100 -248 52 -119 96 -229 100 -245 6 -26 5 -26 -8 -7 -8
11 -63 112 -123 225 -59 113 -145 273 -191 357 -46 84 -116 217 -155 295 -66
130 -300 559 -319 583 -10 13 -180 325 -180 331 0 2 5 4 11 4 22 0 97 113 127
190 41 105 54 194 53 367 0 181 -12 242 -65 359 -35 74 -121 173 -186 213 -41
25 -33 28 12 5 16 -9 27 -11 23 -5 -3 6 -25 21 -48 32 -23 12 -45 27 -49 33
-4 6 -13 11 -20 11 -7 1 -26 7 -43 15 -42 19 -156 24 -245 10 -41 -6 -101 -15
-133 -19 -73 -11 -89 -24 -21 -16 l51 6 -3 -593 c-2 -326 0 -621 4 -654 4 -34
5 -70 1 -80 -3 -11 -1 -22 5 -26 32 -22 280 7 356 41 25 11 64 32 88 46 39 24
43 25 48 8 3 -10 18 -43 35 -74 16 -31 29 -65 29 -75 0 -11 15 -32 32 -49 l31
-30 -27 42 c-14 24 -26 46 -26 49 0 7 -46 118 -61 146 -5 10 -5 19 0 23 5 2
30 -37 56 -88 27 -50 93 -173 148 -272 55 -99 138 -254 185 -345 97 -188 240
-453 317 -585 28 -49 96 -173 150 -275 54 -102 119 -221 145 -265 25 -44 73
-147 105 -230 31 -82 74 -190 95 -240 38 -91 55 -145 45 -145 -3 0 -103 197
-224 438 -120 240 -253 502 -296 582 -149 279 -268 507 -367 700 -55 107 -105
200 -110 205 -7 7 -9 7 -7 0 9 -23 222 -439 354 -690 78 -148 276 -535 439
-860 163 -324 310 -615 326 -644 16 -30 27 -57 24 -60 -6 -6 -436 -2 -442 3
-1 2 2 15 7 30 7 16 18 26 31 26 11 0 20 4 20 9 0 4 -12 6 -27 3 -27 -4 -27
-3 12 32 22 20 32 33 23 30 -10 -3 -18 -10 -18 -16 0 -5 -5 -6 -10 -3 -7 4 -6
14 2 28 6 12 11 48 11 80 -1 48 -7 68 -37 118 -43 72 -44 82 -11 97 37 17 30
38 -18 55 -14 5 -16 2 -11 -18 9 -37 -14 -31 -30 8 -68 157 -85 186 -125 212
-24 16 -61 30 -93 34 -72 8 -259 -4 -289 -19 -13 -7 -49 -39 -80 -73 -56 -59
-57 -61 -64 -133 -11 -119 3 -215 51 -359 24 -71 44 -131 44 -131 0 -1 13 -7
30 -14 34 -14 114 -5 89 10 -8 5 -15 18 -15 30 -1 16 5 20 29 20 17 0 27 -3
23 -7 -3 -4 6 -12 21 -19 26 -11 26 -12 6 -13 -13 -1 -23 -4 -23 -8 0 -5 70
-7 156 -5 86 2 154 5 152 7 -2 3 -22 9 -44 14 l-39 9 56 1 c49 1 59 -2 72 -22
l15 -23 -167 -3 c-91 -1 -195 -6 -231 -11 -36 -5 -81 -10 -101 -10 -34 0 -36
2 -46 43 -13 48 -51 164 -129 392 -52 152 -79 233 -110 335 -7 25 -49 162 -94
305 -44 143 -80 273 -81 290 0 16 -7 59 -14 95 l-15 65 6 -60 c2 -33 7 -72 10
-87 10 -53 -14 -28 -54 55 -22 45 -43 93 -46 107 -8 35 -15 297 -9 304 4 3 13
0 21 -6 12 -10 14 -9 11 7 -3 14 -12 20 -29 20 l-25 0 2 -123 c3 -147 -3 -151
-62 -39 -38 70 -144 197 -166 197 -5 0 -9 -6 -9 -14 0 -8 -5 -16 -11 -18 -8
-3 -10 -76 -8 -243 2 -132 3 -543 3 -912 l1 -673 -45 -1 c-25 0 -79 -3 -120
-5 -41 -2 -80 -2 -87 0 -17 7 6 53 32 64 11 5 36 16 55 25 22 10 28 16 17 16
-10 1 -26 -3 -36 -9 -18 -9 -19 -2 -17 132 1 140 1 142 -25 168 -15 14 -36 44
-47 67 -24 46 -71 90 -110 101 -15 4 -88 7 -162 7 -146 0 -185 -11 -237 -67
-29 -31 -66 -115 -57 -130 4 -6 3 -8 -3 -5 -6 4 -18 -2 -28 -13 -10 -11 -29
-20 -42 -20 -28 0 -32 -34 -6 -49 16 -9 16 -12 -5 -54 -12 -24 -23 -50 -23
-58 -1 -8 -5 20 -9 61 -4 41 -5 198 -3 348 l4 274 124 246 c69 136 146 288
173 337 101 186 155 281 169 297 8 9 13 22 11 29 -7 21 -218 -353 -379 -671
-113 -224 -111 -221 -103 -135 9 92 46 165 304 600 26 44 101 172 165 285 65
113 160 276 211 362 83 139 163 277 226 388 l20 35 -27 -30 c-14 -16 -52 -73
-84 -125 -171 -281 -301 -498 -361 -600 -36 -63 -118 -203 -182 -310 -63 -107
-147 -255 -187 -328 -40 -72 -77 -135 -83 -138 -5 -3 -9 28 -9 78 -1 418 2
940 7 1433 3 325 5 626 5 670 0 44 0 103 0 130 0 28 0 61 1 75 0 14 -3 192 -7
395 -4 204 -8 478 -9 610 -1 132 -6 247 -10 256 -9 21 11 36 27 20 17 -17 25
-13 20 12 -3 16 1 26 16 33 24 11 146 112 244 203 l69 63 191 -7 c106 -4 228
-8 271 -10z m456 -1100 c59 -12 102 -40 171 -112 141 -145 179 -245 184 -488
3 -145 1 -169 -22 -260 -14 -56 -33 -109 -45 -121 -32 -35 -141 -67 -248 -72
l-95 -4 5 93 c3 52 5 130 4 174 -1 44 -5 235 -7 425 -3 190 -8 353 -13 364 -6
15 -3 17 12 13 10 -3 35 -9 54 -12z m1514 -396 c-1 -82 -5 -104 -18 -111 -9
-5 -16 -22 -16 -38 0 -23 4 -28 16 -23 11 4 15 2 13 -6 -3 -7 -9 -12 -14 -11
-11 2 -25 -31 -18 -43 3 -5 11 0 18 10 11 15 13 13 10 -17 -4 -51 -4 -50 -18
-50 -8 0 -13 -11 -12 -27 1 -16 -4 -34 -9 -42 -8 -10 -8 -15 1 -18 17 -6 -2
-43 -21 -43 -20 0 -27 27 -10 41 12 10 12 13 -3 25 -17 13 -17 13 0 14 18 0
25 30 6 30 -7 0 -8 7 -4 18 4 9 8 23 8 30 0 6 5 12 10 12 5 0 4 7 -4 16 -7 8
-14 41 -15 72 -1 31 -3 57 -4 57 -2 0 -3 71 -1 103 1 15 9 26 21 29 11 3 27
21 36 39 9 19 19 34 23 34 4 0 6 -46 5 -101z m-1767 -127 c-4 -35 -1 -46 14
-55 21 -13 26 -49 7 -44 -6 1 -14 -7 -16 -18 -4 -17 -2 -18 12 -6 14 12 16 10
16 -12 0 -13 -7 -30 -15 -37 -8 -7 -15 -18 -14 -24 0 -7 2 -6 6 2 2 6 9 12 14
12 15 0 10 -32 -8 -52 -16 -18 -16 -18 0 -12 18 6 21 -3 11 -30 -3 -9 -10 -13
-15 -10 -5 3 -4 -7 1 -22 7 -19 7 -30 -1 -40 -8 -9 -8 -18 -2 -26 6 -8 9 -69
8 -145 -2 -126 4 -161 21 -110 10 30 11 508 1 514 -4 3 -3 11 4 19 13 16 23
87 11 80 -5 -3 -13 4 -20 15 -7 10 -8 19 -3 19 5 0 11 -6 14 -12 10 -30 16 2
8 50 -5 32 -4 52 2 52 5 0 7 7 3 15 -3 8 -1 15 4 15 6 0 10 -6 10 -12 1 -7 3
-39 5 -70 3 -37 0 -58 -7 -58 -7 0 -7 -4 0 -13 6 -7 9 -23 5 -35 -3 -13 -1
-22 5 -22 6 0 14 16 18 35 3 19 11 38 17 42 7 4 8 -5 2 -28 -6 -31 -12 -62
-14 -81 -2 -15 -21 -8 -21 8 0 8 -4 13 -9 9 -11 -6 -2 -78 10 -83 5 -2 1 -11
-8 -20 -16 -16 -15 -17 6 -20 14 -2 21 -9 17 -18 -3 -7 3 -18 12 -23 16 -10
16 -10 -1 -11 -10 0 -20 7 -23 15 -14 35 -22 10 -18 -52 3 -38 5 -78 5 -91 -1
-13 4 -32 9 -42 7 -13 6 -20 -3 -24 -9 -5 -9 -7 0 -12 7 -3 9 -12 6 -20 -3 -8
-2 -30 1 -49 5 -26 11 -33 23 -28 8 3 -10 -20 -42 -53 -32 -32 -64 -69 -73
-82 -8 -12 -17 -20 -20 -18 -8 9 -2 526 8 601 1 6 1 66 0 135 -1 163 1 180 12
95 5 -38 7 -89 5 -113z m1150 -1298 c-3 -3 4 -22 15 -42 51 -90 140 -268 198
-397 35 -77 76 -165 92 -194 18 -37 24 -57 17 -62 -8 -5 -8 -8 0 -13 6 -4 11
-2 11 3 0 6 7 11 16 11 18 0 94 -78 94 -96 0 -6 9 -19 20 -29 11 -10 20 -24
20 -31 0 -7 14 -24 32 -39 18 -15 37 -37 43 -48 29 -60 56 -137 50 -147 -3 -5
-2 -10 4 -10 5 0 15 -17 21 -37 7 -21 21 -54 31 -73 10 -19 30 -64 45 -100 15
-36 40 -94 56 -129 16 -35 26 -66 23 -69 -3 -4 -10 0 -15 8 -7 10 -10 11 -10
3 0 -7 9 -18 21 -25 11 -7 27 -28 35 -47 16 -39 18 -55 4 -46 -5 3 -10 4 -10
2 0 -16 51 -110 74 -137 18 -22 24 -36 17 -43 -14 -14 -39 19 -88 111 -21 39
-39 68 -41 64 -8 -24 81 -175 113 -192 l24 -13 -21 -31 c-12 -17 -52 -72 -89
-121 -37 -50 -73 -103 -78 -118 -10 -27 -31 -29 -31 -4 -1 7 -16 51 -34 99
-18 48 -29 89 -24 90 5 2 -8 37 -28 78 -20 41 -40 84 -45 95 -4 11 -16 40 -27
65 -11 25 -23 56 -27 69 -4 13 -14 40 -23 60 -9 20 -15 40 -13 46 2 9 -7 32
-74 180 -29 62 -74 183 -79 210 -1 6 -7 19 -13 30 -6 11 -24 54 -41 95 -17 41
-49 122 -72 180 -24 58 -55 139 -70 180 -15 41 -31 84 -36 95 -7 18 -6 18 9 6
9 -7 17 -10 17 -6 0 13 -92 200 -122 247 -16 26 -27 52 -23 58 3 5 2 10 -4 10
-10 0 -28 35 -64 122 -10 24 -12 40 -6 44 18 10 39 -5 39 -28 0 -13 12 -50 26
-83 14 -33 26 -65 28 -72 1 -7 9 -20 18 -30 15 -17 118 -242 133 -290 4 -15 2
-23 -6 -23 -6 0 0 -15 15 -34 14 -19 26 -38 26 -43 0 -4 -4 -1 -10 7 -5 8 -11
12 -14 9 -3 -3 6 -27 20 -54 14 -28 34 -76 45 -109 30 -87 60 -146 74 -146 7
0 23 -26 36 -57 12 -31 24 -52 26 -46 2 6 -8 36 -22 66 -14 31 -25 61 -25 66
0 6 -5 11 -11 11 -6 0 -8 -7 -4 -17 4 -13 3 -15 -5 -7 -6 6 -12 29 -13 51 -1
29 -5 39 -14 36 -8 -3 -13 3 -13 14 0 11 -11 41 -25 67 -13 25 -20 46 -14 46
6 0 6 7 -1 19 -6 13 -6 22 -1 26 13 7 26 -18 41 -82 6 -29 16 -53 20 -53 5 0
5 12 0 28 -5 15 -15 50 -24 77 -9 28 -16 59 -16 70 0 18 2 18 20 -5 11 -14 20
-30 20 -36 0 -9 16 -46 48 -114 12 -24 12 -23 7 10 -3 18 -9 36 -13 40 -4 3
-8 14 -10 24 -2 11 -10 29 -19 42 -8 13 -12 28 -8 34 4 6 3 9 -2 8 -13 -4 -53
26 -53 39 0 7 -4 13 -10 13 -13 0 -13 -23 1 -37 8 -8 8 -13 0 -17 -6 -4 -11
-2 -11 4 0 5 -10 31 -22 57 -12 26 -32 76 -43 110 l-22 63 21 -14 c12 -8 20
-20 18 -26 -1 -7 2 -18 8 -25 6 -7 13 -26 16 -41 6 -31 24 -68 30 -61 3 2 0
16 -6 31 -5 15 -8 32 -5 37 3 4 -1 19 -10 32 -8 13 -13 31 -9 40 3 9 -1 26
-10 39 -9 12 -16 30 -16 40 0 10 -4 18 -9 18 -4 0 -27 37 -50 83 -24 45 -52
97 -63 115 -11 17 -17 32 -14 32 3 0 -2 16 -10 35 -17 42 -18 55 -2 55 6 0 9
-3 5 -6z m260 -406 c10 -18 29 -58 43 -88 38 -83 63 -120 80 -120 8 0 28 -25
45 -55 16 -30 32 -55 35 -55 4 0 19 -28 34 -62 16 -35 32 -71 37 -80 11 -22
11 -28 0 -28 -5 0 -13 10 -17 22 -17 53 -91 146 -146 182 -13 8 -31 30 -40 48
-42 82 -79 166 -89 201 -5 21 -13 45 -16 53 -11 28 17 13 34 -18z m-1272 -719
c3 -13 8 -62 10 -109 5 -85 11 -140 22 -194 4 -24 3 -28 -12 -22 -15 5 -16 1
-10 -34 4 -22 8 -50 10 -63 1 -12 6 -31 10 -42 6 -17 4 -17 -14 4 -12 13 -21
34 -21 47 0 14 -6 24 -14 24 -18 0 -9 -50 15 -72 12 -12 20 -40 25 -88 4 -40
12 -74 19 -78 7 -4 15 -24 16 -45 3 -33 -3 -46 -61 -117 -36 -44 -68 -80 -71
-80 -3 0 -5 23 -5 52 1 28 -4 53 -9 55 -7 2 -11 -23 -10 -69 0 -60 -4 -78 -25
-110 -27 -42 -46 -50 -36 -15 3 12 6 28 6 35 0 6 7 12 15 12 12 0 15 15 15 73
-1 69 -1 71 -15 42 -13 -29 -14 -28 -11 32 2 67 16 100 16 40 0 -39 14 -50 23
-18 2 10 2 63 -2 117 -4 55 -6 113 -5 129 1 17 3 102 5 190 2 152 2 156 9 70
4 -49 9 -184 11 -298 2 -115 8 -211 13 -215 6 -3 7 140 2 358 -3 200 -4 361 0
357 4 -3 8 -37 10 -74 4 -88 13 -350 19 -533 2 -80 5 -149 5 -153 0 -5 5 -5
11 -1 10 6 10 25 -6 318 -3 43 -2 83 2 89 4 6 6 30 4 53 -1 23 2 45 8 49 6 3
11 -1 11 -9 0 -9 5 -16 11 -16 8 0 9 17 4 58 -5 31 -9 91 -9 132 -1 41 -5 80
-9 87 -8 12 2 68 10 60 2 -2 6 -15 8 -28z m1028 -336 c17 -11 42 -38 55 -60
l23 -42 -33 17 c-27 14 -63 17 -210 17 l-178 0 0 37 c0 40 -4 38 95 52 70 10
215 -2 248 -21z m55 -116 c26 -23 65 -114 56 -129 -5 -8 -70 -9 -232 -5 -124
4 -226 8 -228 10 -5 4 16 128 23 140 3 5 84 7 183 5 155 -3 181 -5 198 -21z
m-1634 -51 c36 -46 69 -114 62 -128 -28 -54 -33 -60 -39 -41 -3 10 -10 33 -16
51 -12 39 5 34 21 -6 6 -15 12 -22 15 -15 2 6 -5 28 -16 49 -12 21 -21 44 -21
51 0 7 -4 13 -10 13 -5 0 -10 -9 -10 -21 0 -16 -4 -19 -17 -14 -32 13 -185 21
-293 15 -58 -3 -106 -5 -108 -4 -2 1 7 14 20 28 40 46 87 56 246 54 l142 -3
24 -29z m-43 -90 c18 -8 52 -123 42 -139 -7 -12 -463 -1 -476 12 -10 10 25 95
52 125 15 17 30 18 191 14 96 -3 182 -8 191 -12z m1215 -10 c17 -13 19 -26 17
-105 -2 -77 0 -91 13 -91 12 0 14 5 9 18 -5 9 -8 24 -7 32 4 87 3 122 -3 140
-6 20 -5 21 17 9 17 -10 80 -14 243 -14 121 0 232 3 246 7 23 7 28 3 58 -57
27 -53 33 -76 35 -134 1 -61 -2 -72 -24 -96 -39 -42 -50 -45 -120 -28 -53 12
-102 14 -257 9 l-192 -7 -15 23 c-8 13 -22 59 -31 103 -9 43 -23 92 -31 107
-8 15 -14 43 -14 63 0 39 20 47 56 21z m-1056 -169 c0 -30 -7 -53 -24 -75 -14
-20 -26 -53 -30 -86 -10 -89 -6 -86 -115 -86 -53 0 -101 4 -107 10 -12 12
-254 23 -268 11 -6 -5 -50 -11 -97 -13 l-86 -4 2 30 c2 17 3 51 4 75 1 24 4
41 8 38 3 -4 17 15 29 41 13 26 32 58 43 71 18 23 20 24 52 10 46 -19 453 -20
487 -1 20 12 22 11 22 -12 0 -57 -23 -183 -37 -204 -16 -26 -12 -38 12 -28 22
8 35 49 35 113 0 60 17 133 35 145 24 18 35 7 35 -35z"/>
<path d="M5996 5353 c-26 -38 -35 -100 -17 -118 6 -6 50 -9 99 -7 l90 3 5 42
c3 28 -1 54 -13 77 -16 34 -19 35 -78 38 -60 3 -61 3 -86 -35z"/>
<path d="M6493 4933 c-23 -3 -43 -17 -68 -47 -40 -49 -41 -53 -17 -59 15 -4
15 -5 -2 -6 -17 -1 -18 -7 -13 -68 3 -38 13 -92 22 -120 14 -46 19 -53 41 -53
17 0 28 7 31 20 3 11 12 20 20 20 13 0 13 -3 2 -16 -19 -23 0 -31 82 -33 79
-2 120 6 98 20 -11 7 -11 11 -1 21 10 10 14 8 18 -10 5 -16 14 -22 35 -22 23
0 30 5 34 28 4 15 10 35 16 44 14 28 11 60 -11 93 -11 17 -20 40 -20 53 0 12
-4 22 -8 22 -5 0 -18 17 -30 38 -35 63 -54 74 -129 77 -38 2 -83 1 -100 -2z
m193 -71 c11 -7 34 -45 34 -56 0 -10 -234 -6 -249 3 -12 8 -13 14 -3 35 11 25
14 26 109 26 54 0 103 -4 109 -8z m65 -112 c18 -47 20 -78 6 -87 -18 -11 -308
-10 -315 2 -10 15 -31 109 -26 115 3 2 9 -1 13 -9 7 -10 9 -10 13 1 4 10 39
13 151 13 l145 0 13 -35z"/>
<path d="M5663 4700 c-12 -5 -36 -34 -54 -65 -17 -31 -38 -55 -47 -55 -12 0
-13 -3 -5 -11 9 -9 4 -27 -18 -72 -29 -56 -30 -63 -19 -105 23 -93 56 -126 80
-82 10 18 21 20 135 20 106 0 125 -2 125 -15 0 -22 22 -28 53 -16 21 8 27 17
27 41 0 17 9 48 20 70 42 82 15 213 -56 278 -23 20 -35 22 -122 21 -53 0 -107
-4 -119 -9z m200 -63 c10 -6 19 -26 20 -42 l2 -30 -129 -3 c-72 -1 -136 0
-143 2 -11 5 -9 14 7 46 l20 40 103 0 c67 0 109 -4 120 -13z m91 -110 c-3 -18
-12 -39 -19 -47 -7 -8 -17 -32 -20 -53 -10 -54 -33 -61 -202 -61 -120 -1 -145
2 -159 16 -22 22 -21 58 5 113 l21 45 144 0 c80 0 151 3 159 6 16 6 25 -24 19
-62 -4 -28 -43 -36 -192 -38 -63 0 -118 -5 -122 -11 -12 -16 -9 -25 8 -25 8 0
12 5 9 10 -3 6 -2 10 4 10 5 0 11 -5 13 -12 5 -13 160 -12 189 3 11 5 28 14
39 19 11 6 29 10 39 10 15 0 22 9 26 38 9 53 23 84 36 77 6 -4 7 -20 3 -38z"/>
<path d="M8404 7949 c-2 -3 33 -9 77 -12 44 -3 83 -8 86 -11 4 -3 -43 -57
-104 -118 -60 -62 -118 -125 -128 -141 -12 -19 -23 -26 -36 -22 -19 6 -19 -13
-15 -697 2 -387 9 -779 15 -873 22 -326 13 -2923 -10 -2951 -5 -6 -6 -13 -4
-16 3 -3 8 -67 10 -142 3 -76 7 -141 10 -147 4 -5 -12 -9 -37 -9 -31 0 -39 -3
-28 -10 8 -5 25 -10 38 -10 12 0 22 -5 22 -11 0 -6 -15 -9 -34 -8 -19 2 -38 0
-42 -4 -4 -4 13 -7 38 -7 l46 0 7 -55 c8 -71 28 -72 25 -2 -2 28 -2 57 -1 62
1 6 78 10 208 10 115 1 363 2 553 3 190 1 395 -1 455 -4 205 -10 485 -13 405
-4 -41 4 -108 8 -148 9 -43 0 -71 5 -67 10 3 6 152 10 363 11 196 1 402 3 457
6 55 2 112 4 128 4 33 0 35 13 5 28 l-23 11 25 0 c14 1 33 -8 43 -19 19 -23
62 -27 70 -6 4 9 15 13 29 10 20 -4 20 -3 4 4 -29 13 -7 21 69 28 54 5 70 3
86 -12 18 -16 19 -16 26 2 5 11 14 19 21 19 6 0 12 5 12 10 -1 6 -22 9 -48 8
-26 -1 -38 1 -27 4 42 11 34 20 -22 27 -32 4 -85 12 -118 18 -33 6 -92 11
-132 12 -39 0 -75 5 -80 9 -4 5 -3 8 2 6 6 -1 18 1 29 6 10 4 55 3 100 -3 44
-7 128 -11 186 -11 90 1 100 3 70 12 -19 6 -70 10 -112 9 -43 -1 -78 2 -78 7
0 9 90 18 184 19 21 1 42 4 47 9 10 10 0 10 -248 13 -106 1 -193 3 -193 5 0 2
18 12 39 22 31 16 38 17 33 5 -4 -12 0 -14 19 -7 40 13 116 18 99 6 -25 -17
-7 -19 85 -10 79 9 108 12 164 18 31 3 0 13 -56 17 -32 2 -79 9 -105 15 -26 6
-52 7 -59 3 -8 -4 -9 -3 -5 4 4 7 2 12 -3 12 -6 0 -11 -4 -11 -9 0 -8 -108 -6
-116 2 -3 2 10 16 29 30 111 84 243 324 302 547 9 36 24 81 32 102 8 20 16 49
17 65 1 15 7 46 13 68 14 48 44 205 51 260 2 22 7 45 11 50 26 36 18 342 -13
498 -8 39 -18 92 -21 117 -4 25 -9 54 -12 65 -2 11 -6 33 -9 49 -6 44 -25 95
-54 146 -36 63 -42 80 -26 80 7 0 21 9 31 20 16 17 16 20 2 26 -8 3 -25 1 -36
-5 -17 -9 -23 -7 -38 15 -38 54 -167 210 -191 230 l-25 20 34 32 c18 17 36 29
39 26 3 -3 -7 -15 -23 -26 -32 -23 -33 -29 -8 -45 16 -10 27 -7 65 17 40 26
106 100 106 121 0 4 -27 -19 -59 -52 -88 -88 -95 -71 -9 24 79 87 98 115 98
144 0 11 -11 -1 -26 -27 -24 -43 -58 -78 -96 -100 -16 -10 -16 -8 -1 27 8 21
22 52 30 68 13 26 9 24 -26 -14 -23 -25 -40 -50 -37 -57 4 -11 -52 -74 -66
-74 -8 0 19 56 43 91 10 14 27 50 39 79 12 29 30 66 41 81 10 15 19 37 19 48
0 61 74 141 102 113 7 -7 24 -12 39 -12 14 0 38 -9 53 -21 31 -25 35 -59 6
-59 -11 0 -20 -4 -20 -10 0 -5 4 -10 9 -10 18 0 1 -54 -25 -81 l-28 -29 32
-33 c18 -18 32 -38 32 -43 0 -6 -17 -20 -37 -32 -21 -11 -69 -53 -108 -91 -58
-60 -66 -71 -47 -71 22 0 22 -1 6 -31 l-16 -32 29 21 c62 46 108 91 100 98 -4
4 -20 -1 -35 -12 -57 -42 -55 -35 13 37 96 101 99 103 129 84 36 -24 40 -44
12 -66 -15 -12 -22 -26 -19 -37 3 -14 -4 -22 -27 -32 -26 -11 -31 -18 -27 -38
4 -22 2 -24 -28 -19 -22 4 -42 -1 -61 -13 -51 -32 -89 -68 -82 -76 5 -4 30 12
57 34 27 23 54 42 60 42 25 0 21 -25 -10 -56 -18 -19 -27 -34 -21 -34 7 0 17
-11 22 -25 5 -14 14 -25 20 -25 6 0 6 9 0 26 -9 21 -6 30 20 57 16 18 30 34
30 37 0 3 23 30 50 59 28 30 49 60 46 67 -3 7 -1 14 4 16 5 2 11 15 15 29 6
22 -1 33 -44 74 -28 27 -51 54 -51 61 0 7 -5 14 -11 16 -6 2 4 34 25 78 20 41
36 82 36 90 0 24 -41 59 -78 66 -31 6 -42 26 -22 39 6 4 10 28 9 53 -1 26 6
69 16 96 22 58 15 73 -43 100 -30 14 -44 28 -50 48 -8 33 1 181 18 258 17 84
13 205 -10 285 -11 38 -20 71 -20 73 0 2 8 1 19 -3 15 -4 18 -1 14 19 -3 13
-14 26 -24 29 -10 3 -19 13 -18 24 0 10 3 13 6 6 2 -7 9 -13 14 -13 5 0 -4 27
-21 60 -17 33 -32 73 -33 90 -2 16 -7 33 -10 37 -4 3 -7 14 -7 23 0 9 -13 37
-30 61 -16 24 -30 53 -30 64 -1 20 -24 55 -88 134 -35 42 -26 46 28 12 13 -9
21 -11 17 -4 -4 6 -32 25 -63 43 -30 17 -79 55 -107 85 -53 55 -90 78 -254
161 -51 25 -91 50 -88 55 6 9 -8 13 -205 60 -74 17 -139 36 -145 40 -5 5 -25
9 -45 9 -19 0 -53 5 -74 11 -22 6 -67 12 -100 13 -34 1 -68 6 -76 11 -8 5 -15
5 -17 -2 -3 -7 -59 -9 -171 -6 -258 8 -1083 9 -1088 2z m341 -34 c44 -3 244
-7 445 -11 201 -3 381 -7 400 -9 19 -2 78 -5 130 -6 81 -2 99 -5 119 -23 13
-12 21 -15 16 -7 -6 11 -1 12 29 7 20 -4 53 -9 73 -12 20 -2 42 -9 50 -15 7
-6 22 -9 34 -6 11 3 44 -3 72 -13 29 -10 81 -26 117 -36 87 -24 190 -72 275
-127 73 -47 211 -183 256 -252 14 -22 46 -71 71 -110 55 -86 134 -315 108
-315 -5 0 -10 7 -10 15 0 8 -9 19 -20 25 -11 6 -20 17 -20 24 0 7 -10 21 -22
32 -13 11 -18 12 -12 4 5 -8 18 -42 28 -75 10 -33 24 -75 32 -92 7 -18 10 -33
5 -33 -5 0 -14 15 -21 33 -7 17 -16 41 -20 52 -5 11 -16 45 -26 75 -10 30 -22
59 -26 65 -4 5 -8 17 -8 27 0 9 -42 61 -92 114 -88 92 -146 136 -233 178 -22
11 -61 32 -86 48 -51 31 -170 81 -177 73 -2 -2 45 -27 104 -56 60 -28 130 -66
157 -85 26 -19 47 -29 47 -23 0 5 5 7 10 4 6 -4 8 -10 5 -15 -6 -10 73 -80 90
-80 14 0 87 -74 84 -86 -3 -13 12 -46 31 -69 23 -27 90 -157 90 -176 0 -8 4
-19 9 -24 12 -13 73 -187 67 -193 -5 -4 -36 63 -36 78 0 4 -14 41 -32 81 -40
93 -162 282 -214 333 -124 122 -407 296 -564 349 -200 66 -304 72 -1030 56
-311 -7 -593 -13 -628 -13 -60 0 -61 -1 -36 -14 19 -10 43 -12 86 -7 34 4 58
3 55 -1 -3 -5 230 -7 526 -6 593 4 806 -7 947 -52 30 -9 91 -28 134 -42 213
-66 431 -210 534 -353 47 -64 124 -220 157 -316 15 -44 31 -84 36 -90 5 -5 9
-15 9 -22 0 -8 -14 -3 -37 13 -38 26 -62 27 -135 9 -22 -6 -35 -1 -65 24 -43
35 -60 38 -79 14 -12 -17 -13 -16 -14 5 0 14 -6 22 -17 23 -14 0 -15 2 -3 6
37 14 34 46 -8 103 -20 26 -27 47 -27 83 l0 49 -57 31 c-49 27 -60 30 -75 19
-36 -25 -78 -40 -89 -31 -6 5 -18 3 -30 -6 -29 -22 -52 -18 -68 13 -8 15 -26
38 -40 51 -14 14 -26 30 -26 37 0 30 -20 63 -35 58 -13 -5 -12 -10 6 -36 12
-17 19 -37 16 -49 -4 -15 1 -23 18 -29 13 -5 31 -25 41 -45 9 -19 19 -37 23
-39 10 -7 121 19 163 38 50 22 65 20 105 -10 36 -28 42 -48 16 -62 -15 -9 -14
-13 10 -41 39 -47 43 -69 16 -97 -12 -13 -18 -24 -12 -24 6 0 17 10 26 23 8
12 19 18 23 14 5 -5 0 -16 -11 -25 -11 -9 -29 -27 -40 -40 l-19 -23 24 5 c36
8 75 -26 61 -53 -6 -11 -8 -26 -5 -34 3 -8 1 -18 -5 -22 -6 -3 -11 -11 -11
-16 0 -5 11 -2 26 7 17 12 22 20 15 27 -16 16 -13 47 3 53 8 3 29 -2 48 -12
39 -21 59 -22 114 -5 36 12 45 11 87 -9 49 -23 57 -42 37 -80 -8 -15 -5 -24
17 -45 27 -25 27 -26 9 -40 -10 -8 -24 -16 -29 -18 -17 -5 32 -67 54 -67 17 0
19 -8 19 -67 0 -38 3 -79 6 -93 l6 -25 -21 25 c-11 14 -21 31 -21 37 0 9 -10
11 -30 6 -25 -5 -29 -3 -24 11 3 9 16 16 27 16 16 0 18 3 9 12 -16 16 -15 28
2 28 7 0 19 7 26 15 10 12 9 16 -4 21 -18 7 -30 3 -64 -22 -20 -15 -22 -15
-16 -1 8 21 -69 -17 -150 -76 -61 -43 -80 -67 -52 -67 25 0 72 22 58 27 -10 4
-8 9 5 19 41 31 46 3 6 -38 -15 -15 -22 -28 -15 -28 6 0 14 4 17 10 3 5 16 15
28 22 20 10 21 10 8 -5 -9 -12 -10 -17 -2 -17 7 0 9 -5 6 -10 -4 -6 -10 -8
-14 -6 -10 7 -37 -12 -29 -20 11 -10 68 17 68 32 0 8 2 14 4 14 2 0 13 3 23 6
16 5 16 4 -2 -11 -20 -17 -20 -17 3 -10 36 11 25 -12 -12 -25 -19 -6 -40 -18
-46 -26 -17 -19 -7 -18 47 7 25 11 47 18 49 16 3 -2 -11 -12 -31 -21 -19 -9
-35 -21 -35 -26 0 -16 13 -12 50 14 32 22 37 23 53 8 9 -8 20 -13 23 -10 9 10
-83 98 -102 98 -16 0 -16 1 2 15 24 18 84 21 66 3 -17 -17 -15 -28 4 -28 8 0
13 -4 10 -9 -7 -11 22 -23 37 -14 7 4 8 0 4 -11 -5 -13 -1 -19 13 -23 14 -4
20 -14 20 -32 -1 -43 -27 -232 -34 -238 -3 -4 -20 7 -37 23 -23 21 -29 23 -21
9 5 -11 19 -28 30 -38 16 -14 18 -24 12 -55 -17 -81 -101 -274 -138 -315 -17
-20 -50 -14 -69 12 -14 19 0 38 61 82 21 16 33 29 25 29 -8 0 -1 11 16 25 26
22 27 23 5 12 -14 -6 -41 -23 -59 -36 -31 -22 -34 -23 -27 -6 5 15 0 13 -23
-9 -30 -29 -36 -51 -7 -26 9 6 21 10 27 8 6 -2 0 -12 -15 -21 -26 -17 -28 -17
-61 3 -19 12 -35 25 -35 30 0 9 53 50 66 50 4 0 -1 -10 -12 -23 -10 -13 -2 -5
19 16 41 43 44 49 22 41 -8 -4 -15 -11 -15 -17 0 -6 -3 -7 -6 -4 -4 3 -16 0
-28 -8 -48 -34 -48 -9 0 45 36 40 35 53 -2 25 -21 -16 -44 -20 -44 -7 0 4 13
16 30 27 20 13 25 22 17 27 -9 6 -8 11 5 18 9 6 23 24 32 40 l14 30 -46 -27
c-26 -14 -54 -32 -63 -40 -8 -7 -19 -13 -23 -13 -4 0 -20 -10 -36 -22 -23 -17
-33 -19 -42 -10 -8 8 -5 14 14 21 14 5 41 23 59 39 50 43 112 82 129 82 18 0
90 57 90 71 0 5 -18 -3 -41 -18 -34 -22 -42 -24 -50 -12 -5 8 -9 20 -9 27 0
25 -38 10 -125 -51 -49 -34 -108 -74 -130 -87 -22 -13 -46 -30 -53 -37 -21
-20 -29 -16 -30 15 0 24 6 32 36 46 25 12 32 20 23 25 -7 5 -9 11 -5 14 5 3
14 -1 21 -8 10 -11 7 -17 -12 -29 -13 -9 -28 -16 -34 -16 -5 0 -11 -7 -15 -15
-8 -23 10 -18 57 15 23 17 53 38 67 48 13 9 43 34 66 55 24 21 55 40 71 41 15
2 30 4 33 5 3 1 -6 7 -20 14 -15 8 -24 20 -22 30 5 26 -8 20 -48 -23 -34 -37
-70 -53 -70 -30 0 5 -6 7 -14 4 -29 -11 -27 19 3 62 17 24 26 44 21 44 -6 0
-10 -3 -10 -7 0 -5 -14 -23 -31 -42 -28 -30 -32 -32 -46 -18 -14 14 -13 19 7
49 l24 33 -27 -24 c-39 -36 -46 -17 -14 40 34 59 24 63 -22 9 -19 -22 -38 -40
-42 -40 -16 0 -17 33 -2 58 l17 27 -27 -24 c-14 -13 -24 -27 -22 -31 3 -4 -2
-13 -10 -20 -13 -10 -19 -9 -35 5 -11 10 -20 24 -20 32 0 9 -7 12 -25 7 -31
-8 -31 0 0 51 14 22 25 44 25 48 0 17 -20 -5 -36 -39 -22 -46 -30 -37 -10 11
19 44 19 45 7 45 -4 0 -21 -20 -37 -45 -15 -25 -36 -45 -45 -45 -10 0 -21 -5
-24 -10 -5 -8 -11 -7 -21 1 -10 8 -14 8 -14 0 0 -6 -4 -11 -10 -11 -20 0 0 73
30 108 40 48 102 143 96 149 -3 3 -20 -18 -38 -46 -18 -28 -37 -51 -43 -51 -8
-1 -81 -97 -104 -138 -5 -7 -19 -14 -32 -16 -14 -1 -30 -6 -37 -10 -8 -5 -12
0 -12 16 -3 125 -12 204 -29 254 -12 31 -19 59 -17 62 8 8 34 -53 46 -110 17
-75 33 -75 26 0 -9 99 -63 197 -97 176 -5 -3 -8 -2 -7 3 2 4 -1 9 -5 10 -4 1
-14 8 -21 15 -118 114 -143 130 -238 150 -48 11 -58 24 -36 46 9 9 9 12 0 12
-6 0 -16 -9 -22 -19 -8 -15 -20 -20 -49 -18 l-39 1 24 23 c13 12 24 32 24 44
0 12 9 37 21 55 23 38 14 46 -14 13 -18 -20 -19 -20 -38 -3 -30 27 -24 51 16
65 22 8 34 18 31 26 -3 7 4 18 15 24 16 8 29 6 60 -10 48 -25 57 -26 55 -4 0
9 12 21 32 30 29 12 34 11 49 -7 17 -20 18 -19 50 12 18 18 33 36 33 40 0 20
45 68 63 68 11 0 25 7 32 16 7 10 32 19 66 22 30 3 63 11 75 19 23 14 48 9 77
-15 24 -21 22 1 -3 23 -16 14 -29 16 -67 11 -27 -4 -70 -11 -98 -14 -72 -10
-131 -45 -165 -99 -16 -25 -31 -51 -33 -57 -3 -8 -10 -7 -26 2 -29 17 -67 15
-87 -5 -13 -14 -34 -18 -83 -18 -59 0 -66 -2 -69 -21 -2 -12 -17 -27 -37 -37
-24 -12 -35 -23 -35 -39 0 -25 27 -58 47 -58 19 0 17 -49 -3 -57 -8 -3 -20
-16 -25 -29 -7 -20 -16 -24 -48 -24 -22 0 -42 4 -45 9 -8 13 29 43 63 50 23 4
28 9 21 20 -7 12 -16 10 -51 -13 -41 -27 -43 -28 -70 -12 -43 25 -75 20 -101
-15 -13 -17 -36 -38 -51 -46 -18 -9 -27 -20 -23 -29 8 -21 -8 -17 -30 7 -21
23 -35 22 -131 -12 -34 -12 -64 -28 -67 -36 -11 -27 14 -112 35 -118 34 -11
41 5 14 37 -27 32 -32 62 -12 75 19 12 110 42 128 43 9 0 28 -9 43 -21 l26
-20 26 20 c15 12 33 21 42 21 10 0 13 7 9 22 -9 34 9 58 46 58 41 -1 85 -33
71 -52 -11 -15 -11 -577 0 -643 6 -37 4 -42 -23 -63 l-30 -22 14 48 c19 59 19
101 1 50 -7 -20 -21 -44 -30 -53 -9 -9 -16 -23 -16 -31 0 -20 -30 -14 -44 8
-8 13 -6 26 7 52 19 41 7 49 -17 11 -23 -35 -20 -65 9 -95 21 -22 24 -31 16
-51 -13 -36 -38 -53 -77 -53 -19 0 -34 -5 -34 -11 0 -17 40 -36 63 -29 21 6
20 4 -4 -21 l-27 -27 -31 18 c-31 18 -32 20 -26 74 5 54 5 54 -10 25 -8 -16
-14 -38 -15 -47 0 -32 -20 -19 -21 15 0 17 -3 25 -6 17 -2 -8 -7 -21 -9 -29
-4 -12 -7 -12 -21 2 -15 15 -15 20 6 73 12 31 19 59 16 62 -6 6 -55 -98 -55
-119 0 -21 34 -50 102 -89 71 -39 76 -47 44 -62 -14 -6 -26 -15 -26 -20 0 -19
21 -5 67 45 40 45 51 52 61 40 11 -11 9 -15 -11 -22 -12 -5 -42 -34 -66 -64
-23 -31 -48 -58 -54 -61 -8 -3 -8 -5 -1 -5 6 -1 30 22 53 49 46 54 88 87 98
76 3 -3 -6 -16 -20 -29 -15 -12 -27 -26 -27 -31 0 -9 73 43 78 56 8 18 23 6
17 -13 -6 -18 -4 -20 17 -14 12 4 26 12 29 17 4 6 9 6 11 2 5 -10 3 -80 -3
-104 -3 -13 17 -15 139 -15 79 0 146 3 148 7 3 4 24 16 47 26 23 11 55 33 71
51 17 17 35 31 41 31 31 0 135 157 135 205 0 12 3 12 20 -2 25 -21 26 -35 3
-26 -10 3 -15 3 -11 -2 4 -4 -2 -25 -13 -47 -11 -22 -18 -42 -15 -45 6 -7 66
58 66 72 0 6 11 27 25 48 17 24 21 37 13 37 -16 0 30 37 55 44 25 6 21 -2 -22
-50 -22 -23 -50 -65 -63 -93 -13 -28 -27 -49 -33 -48 -5 2 -19 -10 -30 -27
-12 -17 -30 -31 -40 -31 -11 0 -21 -8 -23 -19 -3 -15 0 -18 19 -13 13 4 30 7
38 7 7 0 11 6 8 14 -4 10 0 12 13 9 15 -4 18 -11 13 -34 -3 -17 -1 -29 5 -29
15 0 22 27 16 59 -5 25 1 33 61 81 37 29 70 62 74 73 6 17 13 10 39 -45 18
-35 32 -70 32 -76 0 -7 5 -12 11 -12 6 0 7 8 2 23 -11 33 -6 87 10 100 8 7 22
28 31 47 23 49 53 86 62 77 5 -4 3 -16 -4 -25 -23 -32 -50 -98 -57 -140 -4
-23 -10 -44 -15 -47 -9 -6 -3 -39 13 -73 9 -18 7 -29 -7 -53 -31 -52 -10 -43
35 15 24 31 47 56 51 56 4 0 5 8 2 18 -5 14 -4 15 5 2 10 -13 12 -13 20 0 6 8
13 11 17 8 3 -4 -1 -14 -10 -23 -18 -18 -21 -29 -6 -20 6 4 24 -8 40 -25 25
-27 32 -30 50 -20 24 13 86 6 135 -15 17 -7 43 -17 58 -24 l29 -11 -26 -31
c-14 -17 -26 -35 -26 -40 0 -5 16 -15 35 -23 19 -8 35 -20 35 -25 0 -6 18 -30
40 -53 22 -24 40 -49 40 -56 0 -34 -197 -206 -265 -232 -23 -9 -25 -12 -11
-25 8 -8 21 -15 28 -15 7 0 19 -4 27 -9 12 -8 12 -13 3 -24 -10 -12 -8 -13 12
-10 26 5 105 -43 106 -64 0 -7 6 -13 14 -13 25 0 123 -93 181 -171 59 -80 122
-195 111 -206 -3 -3 -6 -1 -6 5 0 7 -9 12 -20 12 -11 0 -20 5 -20 11 0 8 -4 8
-15 -1 -11 -9 -19 -8 -37 4 -12 9 -32 16 -44 16 -28 0 -153 -67 -176 -94 -14
-17 -19 -18 -27 -7 -6 9 -11 10 -15 2 -4 -6 -13 -11 -20 -11 -20 0 -130 -74
-117 -78 6 -2 11 -11 11 -19 0 -12 -3 -13 -15 -3 -8 6 -19 9 -25 5 -5 -3 -10
-2 -10 4 0 10 14 22 140 114 47 35 103 80 125 100 22 21 52 44 66 52 21 11 48
55 34 55 -2 0 -34 -22 -70 -50 -38 -29 -77 -50 -91 -50 -26 0 -26 7 5 44 13
16 10 16 -18 -4 -20 -13 -36 -19 -40 -13 -10 16 -49 8 -74 -14 -12 -11 -35
-28 -52 -38 -20 -11 -10 2 28 38 32 31 73 62 91 71 42 20 142 102 150 123 11
28 -3 27 -31 -3 -39 -41 -103 -87 -110 -80 -4 3 18 29 47 56 29 28 49 50 42
50 -6 0 -14 -4 -17 -10 -11 -17 -28 -11 -20 7 4 11 -6 7 -25 -12 -17 -16 -26
-31 -20 -33 11 -4 4 -22 -10 -22 -4 0 -11 7 -14 16 -4 11 6 28 30 50 46 44 68
56 90 47 16 -6 17 -5 4 9 -18 19 -46 8 -101 -44 -20 -18 -47 -41 -60 -50 -13
-10 -17 -15 -8 -12 9 3 21 -2 28 -9 9 -12 8 -18 -4 -31 -9 -9 -14 -19 -12 -23
12 -21 -16 -54 -62 -74 -28 -11 -56 -27 -62 -35 -6 -8 -20 -14 -31 -14 -17 0
-17 3 8 35 15 20 25 38 22 40 -2 2 -23 -5 -46 -17 -49 -24 -57 -21 -41 16 7
14 10 28 7 31 -11 11 -39 -8 -54 -36 -17 -34 -29 -37 -31 -9 -1 13 6 24 20 29
23 9 56 41 42 41 -5 0 -23 -11 -41 -25 -37 -29 -49 -31 -40 -10 3 9 0 15 -9
15 -7 0 -17 -9 -20 -20 -6 -20 -25 -28 -25 -11 0 15 133 121 194 155 50 27 57
29 83 16 15 -7 34 -12 41 -11 6 1 12 -3 12 -9 0 -5 5 -10 11 -10 11 0 77 45
119 81 l25 21 -30 -17 c-16 -10 -44 -28 -62 -41 -17 -13 -38 -24 -47 -24 -21
0 -16 42 6 58 26 19 23 26 -20 45 -47 21 -61 21 -86 2 -25 -19 -14 -30 14 -15
18 10 21 9 18 -1 -3 -8 -20 -17 -39 -20 -44 -7 -128 -46 -155 -71 -12 -11 -33
-21 -47 -22 -30 -4 -87 -49 -112 -89 -9 -16 -19 -26 -22 -23 -8 8 73 121 108
150 42 36 112 70 182 91 57 17 70 28 42 39 -22 8 -18 26 12 60 16 17 21 25 13
19 -21 -19 -35 -16 -19 4 12 15 12 16 -1 8 -8 -5 -34 -24 -58 -42 -49 -37 -81
-45 -42 -10 14 13 31 30 39 40 20 25 -4 21 -29 -5 -11 -12 -20 -18 -20 -13 0
5 7 17 17 27 25 27 10 31 -23 6 -25 -19 -27 -20 -14 -3 23 30 32 34 61 28 21
-4 30 0 39 18 7 13 24 38 39 54 l26 30 -30 -26 c-54 -48 -72 -53 -104 -29 -16
11 -34 20 -40 20 -16 0 -14 8 9 40 27 38 15 43 -31 14 -37 -23 -40 -24 -79 -8
-48 19 -50 35 -15 105 32 61 51 115 32 85 -6 -10 -22 -34 -34 -53 -13 -18 -30
-47 -38 -63 -21 -41 -39 -39 -31 3 5 30 5 31 -9 13 -8 -11 -15 -26 -15 -33 0
-7 -4 -13 -9 -13 -12 0 6 66 26 97 8 12 13 28 10 35 -3 7 -21 -21 -41 -62 -19
-41 -35 -67 -36 -57 0 20 -4 21 -30 5 -47 -29 -42 40 10 142 12 23 19 44 17
46 -7 7 -31 -35 -57 -98 -23 -57 -40 -74 -40 -42 0 14 -3 14 -16 4 -13 -11
-19 -9 -41 12 -24 25 -24 26 -9 57 9 17 12 31 7 31 -5 0 -14 -13 -20 -30 -11
-34 -14 -35 -41 -18 -32 20 -37 -2 -5 -25 54 -39 75 -65 68 -84 -10 -29 -35
-54 -72 -69 -41 -17 -41 -17 -41 0 0 21 -37 8 -43 -15 -7 -25 -27 -24 -27 1 0
11 4 20 9 20 5 0 11 16 13 35 5 46 -6 44 -37 -5 -14 -22 -32 -40 -41 -40 -13
0 -12 5 5 29 23 32 27 46 10 35 -6 -3 -15 0 -20 7 -7 11 -9 9 -9 -7 0 -12 -7
-24 -15 -28 -8 -3 -15 -11 -15 -18 0 -9 3 -8 10 2 8 13 10 13 10 -1 0 -10 -11
-20 -27 -24 -15 -3 -31 -12 -35 -18 -4 -6 -10 -8 -15 -4 -4 5 -3 11 3 15 13 8
36 73 29 80 -3 3 -18 -5 -33 -19 -56 -49 -67 -52 -118 -23 -41 23 -46 24 -39
8 15 -36 10 -56 -19 -78 -21 -16 -30 -18 -33 -8 -4 10 -8 8 -18 -5 -7 -10 -17
-15 -21 -10 -4 4 -2 13 4 19 18 18 15 28 -7 25 -22 -3 -54 -27 -46 -35 2 -3
12 1 21 9 15 12 17 12 12 -1 -5 -18 -46 -26 -60 -12 -6 6 -6 17 2 31 10 20 10
21 -9 9 -12 -7 -21 -16 -21 -20 0 -5 -9 -17 -20 -28 -16 -16 -17 -20 -5 -20
21 0 19 -8 -12 -35 -16 -13 -23 -25 -17 -25 6 0 19 9 29 20 14 15 30 19 76 19
31 -1 62 2 67 5 6 3 18 -2 28 -11 13 -14 14 -18 3 -22 -22 -7 -90 -63 -84 -69
3 -3 19 4 35 16 16 12 34 22 40 22 5 0 10 5 10 10 0 6 7 10 15 10 8 0 15 5 15
10 0 6 -4 10 -10 10 -25 0 -5 28 39 55 32 19 47 35 44 45 -4 12 -3 13 5 1 7
-9 19 -11 38 -7 l28 7 -35 -41 c-19 -23 -37 -42 -41 -42 -4 1 -29 -19 -55 -43
-26 -25 -55 -45 -63 -45 -8 0 -20 -10 -25 -22 -19 -42 -73 -29 -141 34 l-31
29 -16 -24 c-15 -23 -15 -25 1 -21 10 3 37 -13 67 -40 60 -54 77 -60 109 -35
18 14 27 16 32 8 4 -7 3 -9 -3 -6 -6 4 -13 -2 -16 -12 -4 -17 -2 -18 19 -9 13
6 27 8 31 4 9 -9 -14 -25 -47 -31 -14 -3 -38 -13 -54 -21 -36 -19 -42 -14 -16
16 23 27 20 36 -8 21 -30 -16 -57 -62 -42 -71 14 -9 5 -30 -13 -30 -25 0 -213
-149 -259 -206 -10 -12 -27 -24 -39 -27 -21 -6 -21 -5 2 20 l24 27 -33 -23
c-24 -17 -37 -20 -44 -13 -8 8 -2 20 22 42 45 42 31 49 -24 10 -49 -33 -56
-47 -30 -57 8 -3 20 -17 25 -30 6 -15 13 -21 21 -17 7 5 25 7 40 6 15 -1 28 2
28 8 0 5 21 10 48 10 26 0 56 6 67 14 11 7 31 15 45 18 14 3 33 9 43 13 11 5
17 3 17 -7 0 -8 14 -24 30 -37 29 -21 31 -21 55 -4 13 10 27 25 30 34 5 16 55
56 75 61 6 2 44 37 85 77 l73 75 36 -36 36 -36 -46 -37 c-55 -46 -67 -41 -20
9 39 39 25 50 -22 18 -52 -36 -57 -33 -15 7 23 23 37 41 32 41 -6 0 -41 -29
-78 -65 -37 -36 -72 -65 -77 -65 -5 0 -22 -14 -38 -30 -22 -22 -25 -30 -13
-30 28 0 29 -19 3 -32 -14 -6 -26 -15 -26 -20 0 -13 26 -9 57 9 18 10 39 14
54 10 l24 -6 -3 -213 c-4 -344 -5 -652 -1 -818 l4 -155 33 -3 c17 -2 32 -7 32
-12 0 -4 -20 -35 -45 -69 -51 -67 -126 -138 -171 -161 -16 -8 -48 -30 -72 -47
-24 -18 -51 -33 -60 -33 -9 0 -24 -5 -32 -11 -11 -8 -5 -9 25 -4 66 11 222
103 283 167 118 123 143 188 190 490 13 85 14 185 2 193 -5 3 -10 14 -10 23 0
15 2 15 10 2 10 -15 11 -10 15 67 0 12 4 25 8 29 4 4 7 23 7 43 0 20 11 81 24
136 34 140 60 345 51 403 -11 79 -50 134 -177 253 -117 109 -162 163 -120 140
11 -6 22 -8 24 -5 3 2 20 -10 39 -28 19 -17 65 -56 104 -85 61 -47 150 -156
168 -205 2 -7 8 -9 13 -5 17 16 0 339 -21 390 -4 9 -3 17 2 17 9 0 23 -23 39
-65 12 -33 17 8 6 49 -8 27 -7 38 3 46 24 20 31 4 33 -67 1 -37 7 -83 13 -100
6 -18 8 -36 6 -40 -3 -5 -1 -28 3 -53 9 -48 5 -64 -10 -40 -17 27 -19 4 -5
-49 7 -28 19 -59 26 -67 10 -12 10 -17 1 -23 -9 -5 -10 -25 -3 -77 4 -38 9
-55 10 -39 1 23 4 26 11 15 11 -17 13 -15 27 30 26 81 41 110 91 177 63 85
103 157 154 278 30 72 38 84 38 60 1 -16 3 -43 5 -60 3 -17 -4 -47 -16 -70
l-20 -40 28 30 c15 17 38 44 51 60 21 26 23 27 19 8 -3 -14 0 -23 6 -23 7 0 4
-7 -5 -14 -10 -7 -18 -16 -18 -20 0 -4 -10 -17 -21 -29 -12 -12 -37 -47 -57
-77 -19 -30 -68 -105 -108 -167 -41 -61 -83 -135 -95 -165 -23 -59 -35 -77
-25 -38 6 25 6 25 -5 3 -7 -13 -16 -23 -20 -23 -4 0 -15 -26 -24 -57 -9 -32
-25 -74 -36 -94 -25 -50 -76 -265 -86 -364 -17 -159 2 -435 29 -435 6 0 7 8 3
18 -4 9 -9 46 -11 82 -2 36 -6 75 -9 88 -3 12 -1 22 5 22 11 0 13 -13 15 -98
1 -29 8 -64 16 -79 9 -16 10 -28 4 -30 -30 -11 -40 -22 -27 -35 6 -6 12 -23
12 -36 0 -13 7 -47 16 -75 41 -136 57 -183 65 -192 5 -5 9 -15 9 -23 0 -16 11
-27 62 -65 32 -25 42 -27 85 -22 42 6 56 2 106 -25 79 -42 108 -36 42 9 -63
43 -59 40 -53 47 3 3 36 -8 72 -25 36 -17 72 -31 81 -31 8 0 15 -4 15 -10 0
-5 12 -10 26 -10 14 0 23 4 19 10 -3 6 -15 10 -26 10 -10 0 -19 4 -19 10 0 5
-12 16 -28 24 -36 19 -83 66 -76 77 3 5 12 9 21 9 12 0 13 -3 4 -14 -15 -18
10 -29 46 -19 21 5 25 3 20 -9 -6 -17 28 -25 146 -33 37 -3 76 -9 87 -15 24
-13 40 -13 40 0 0 5 -19 15 -42 22 l-41 12 29 8 c16 4 41 4 56 -1 32 -11 110
-2 102 11 -4 6 -22 8 -40 5 -19 -3 -36 -2 -39 2 -2 5 -42 7 -87 5 l-83 -4 35
19 c45 26 16 27 -31 2 -39 -21 -72 -14 -44 9 32 27 13 30 -30 4 -49 -29 -57
-20 -24 28 29 40 16 48 -16 9 -27 -32 -59 -43 -49 -17 3 8 1 23 -5 33 -10 17
-11 16 -17 -4 -3 -13 -11 -23 -18 -24 -10 0 -22 -3 -51 -9 -32 -7 -60 4 -99
40 -43 40 -66 79 -105 177 -24 60 -26 73 -8 73 17 0 109 95 140 146 52 84 88
235 89 379 1 61 -18 181 -49 311 -3 16 4 27 27 44 39 27 59 23 129 -30 36 -27
60 -39 70 -34 18 8 29 7 81 -2 29 -5 39 -1 58 19 13 13 24 34 25 46 2 26 -1
26 49 0 33 -17 46 -19 60 -10 15 10 25 6 57 -19 35 -28 41 -30 79 -22 36 9 91
52 92 75 0 4 11 7 24 7 31 0 66 43 66 81 0 51 17 79 48 79 15 0 33 5 38 10 21
21 45 -18 79 -130 36 -120 70 -281 63 -301 -2 -7 -12 24 -22 67 -11 43 -23 96
-28 118 -5 21 -12 36 -15 33 -5 -5 5 -60 48 -281 25 -129 25 -269 -1 -399 -11
-56 -27 -138 -35 -182 -17 -84 -42 -155 -57 -155 -4 0 -8 -9 -8 -19 0 -11 -6
-26 -13 -33 -7 -7 -28 -42 -46 -77 -36 -71 -74 -123 -148 -205 -51 -55 -73
-69 -126 -81 -15 -3 -25 -9 -23 -14 3 -5 -6 -17 -20 -27 -14 -11 -35 -27 -47
-37 -36 -31 -86 -52 -207 -91 -179 -56 -334 -84 -550 -101 -85 -7 -467 -8
-478 -1 -4 2 -133 7 -287 11 -154 4 -282 8 -285 10 -3 1 -36 -1 -75 -5 l-70
-7 80 -2 c56 -1 75 -4 65 -11 -8 -5 -89 -10 -179 -10 -151 0 -163 1 -156 18 4
9 8 336 11 726 2 390 6 712 9 714 3 3 6 -18 6 -46 1 -29 2 -73 3 -99 2 -27 4
-119 6 -205 2 -86 7 -155 12 -152 8 5 3 347 -8 451 -4 36 -12 64 -19 67 -13 5
-19 126 -6 126 3 0 5 150 4 333 -7 1515 -16 2469 -24 2616 -5 95 -9 186 -9
201 0 22 25 52 121 149 67 66 125 121 130 121 5 0 9 11 9 25 0 34 36 69 63 61
12 -3 58 -8 102 -11z m797 -1156 c90 -20 198 -114 242 -211 34 -73 34 -128 1
-185 -14 -23 -21 -43 -16 -43 6 0 18 16 26 37 8 20 19 33 23 29 4 -4 7 -40 7
-81 0 -54 -3 -71 -12 -68 -15 6 -18 -23 -3 -32 19 -12 11 -100 -13 -136 -25
-37 -47 -44 -185 -58 -65 -7 -91 -14 -120 -35 -20 -14 -37 -24 -39 -22 -3 2
-11 306 -17 634 l-4 182 29 0 c15 0 52 -5 81 -11z m292 -1552 c-15 -27 -33
-47 -43 -47 -11 0 -17 -9 -19 -29 -2 -29 -1 -29 30 -21 17 6 32 9 33 7 20 -55
21 -66 10 -93 -16 -38 -39 -56 -65 -52 -25 3 -45 52 -56 129 -6 45 -5 47 26
57 17 6 29 16 26 21 -3 5 6 16 20 25 13 10 30 28 36 42 6 13 15 21 20 16 5 -5
-3 -29 -18 -55z m311 -197 c-4 -6 -24 -19 -46 -30 -38 -20 -55 -38 -24 -26 22
8 18 -3 -7 -25 -13 -10 -17 -18 -10 -19 6 0 12 -5 12 -11 0 -6 13 -24 30 -40
29 -30 29 -31 14 -61 -31 -61 -156 -178 -189 -178 -7 0 -20 11 -29 24 -17 26
-17 26 30 134 10 20 18 42 19 47 4 18 39 71 71 107 38 43 149 111 129 78z m44
-249 c-24 -28 -47 -51 -50 -51 -3 0 -34 -25 -70 -56 -68 -59 -203 -154 -219
-154 -6 0 -10 -4 -10 -10 0 -5 -20 -30 -45 -54 -49 -49 -61 -47 -19 3 14 17
23 31 20 31 -8 0 -68 -60 -98 -100 -15 -19 -30 -31 -34 -27 -4 3 -1 13 6 22 7
8 10 22 6 30 -3 8 6 36 20 63 26 50 52 81 41 50 -5 -14 0 -13 31 5 20 12 45
23 57 24 62 9 181 87 268 177 53 55 127 110 136 101 2 -2 -16 -27 -40 -54z
m-690 27 c23 -8 24 -10 18 -96 -4 -48 -8 -96 -11 -107 -2 -11 -9 -58 -16 -105
-17 -115 -24 -143 -36 -147 -10 -3 -24 174 -29 362 -1 39 -5 80 -9 92 -7 21
-5 22 26 16 18 -3 44 -10 57 -15z m1257 -3 c22 -9 34 -20 30 -27 -2 -7 -12
-37 -21 -66 -16 -50 -43 -78 -68 -69 -7 2 2 11 18 20 17 9 23 16 15 17 -8 0
-28 -11 -45 -25 -25 -20 -27 -24 -11 -25 17 0 16 -3 -8 -25 -14 -13 -26 -28
-26 -33 0 -13 -35 -21 -60 -15 -11 3 -20 12 -20 19 0 8 -10 14 -22 14 -25 0
-17 13 10 15 9 1 40 24 67 51 28 27 74 67 103 88 28 22 50 42 48 44 -6 5 -108
-61 -125 -81 -7 -10 -19 -17 -26 -17 -6 0 -20 -9 -31 -21 -10 -11 -26 -25 -36
-30 -13 -7 -16 -5 -15 12 1 13 17 32 39 47 35 23 54 42 26 26 -18 -10 -10 -2
51 50 30 25 59 46 63 46 5 0 25 -7 44 -15z m-276 -45 c-19 -16 -40 -29 -47
-30 -6 0 -28 -15 -48 -34 -47 -44 -134 -110 -160 -120 -11 -5 -15 -10 -9 -13
7 -2 29 8 49 22 47 31 51 31 59 -1 5 -19 2 -30 -11 -40 -26 -20 -114 -9 -168
22 -24 13 -53 24 -65 24 -29 0 -23 11 29 55 54 45 101 68 165 84 66 16 68 8 2
-12 -30 -10 -59 -24 -66 -32 -7 -8 -16 -12 -21 -9 -5 3 -8 0 -7 -8 2 -7 -3
-12 -9 -11 -7 2 -12 -2 -10 -9 1 -7 -4 -13 -10 -14 -7 -1 -18 -2 -24 -3 -5 0
-7 -5 -4 -11 3 -5 -2 -10 -12 -10 -17 -1 -17 -1 0 -11 10 -6 25 -8 33 -5 8 3
14 0 14 -6 0 -5 15 1 34 16 41 31 47 32 40 9 -4 -12 2 -9 19 8 13 15 34 30 45
33 13 4 19 13 15 22 -3 9 1 14 13 14 11 1 55 23 99 50 44 27 82 50 85 50 2 0
-11 -13 -30 -30z m-528 -321 c26 -88 35 -245 18 -315 -11 -44 -22 -63 -54 -91
-48 -41 -160 -98 -179 -90 -10 4 -14 33 -16 112 -2 125 10 197 51 280 28 59
134 178 152 172 5 -2 18 -32 28 -68z"/>
<path d="M8732 6519 c-23 -23 -42 -49 -42 -59 0 -25 67 -67 83 -51 13 13 66
14 87 1 22 -14 -20 -54 -103 -97 -71 -37 -85 -59 -73 -108 4 -14 3 -25 -1 -24
-22 4 -35 -3 -45 -26 -7 -16 -27 -30 -59 -40 -39 -13 -49 -21 -49 -38 0 -40
12 -66 32 -73 16 -5 18 -8 7 -15 -11 -7 -11 -9 3 -9 23 0 32 18 18 35 -6 8 -9
19 -5 25 4 6 1 18 -6 26 -17 21 5 35 42 27 23 -4 28 -1 31 18 4 30 54 56 77
42 19 -12 54 -11 61 1 3 5 -11 14 -30 20 -31 10 -35 15 -34 43 2 44 54 93 97
93 36 -1 66 -19 60 -37 -6 -18 12 -16 27 2 7 8 18 15 24 15 6 0 25 20 43 43
17 23 54 66 82 96 28 30 49 56 47 59 -10 9 -47 -21 -86 -70 -62 -76 -110 -115
-110 -90 0 5 34 48 75 96 41 48 75 92 75 97 0 20 -18 7 -48 -35 -30 -42 -85
-76 -100 -62 -4 4 1 13 11 20 24 18 21 29 -4 16 -31 -17 -58 -20 -86 -9 -18 7
-30 6 -37 -1 -23 -23 -26 -8 -6 28 l22 37 -32 -33 c-19 -20 -37 -31 -46 -28
-22 8 -1 43 42 68 37 22 44 38 16 38 -9 0 -36 -19 -60 -41z"/>
<path d="M8505 5990 c-10 -11 -28 -20 -39 -20 -32 0 -66 -28 -66 -55 0 -15 16
-36 47 -63 l47 -39 -37 -54 c-20 -30 -37 -61 -37 -70 0 -9 25 -36 55 -59 53
-41 56 -42 79 -26 29 18 86 74 137 132 20 22 44 44 54 47 14 6 15 10 4 23 -12
14 -14 14 -20 -4 -8 -22 -163 -162 -179 -162 -18 0 -10 28 18 61 15 18 20 29
12 24 -8 -5 -25 -22 -38 -37 -13 -15 -30 -28 -38 -28 -21 0 -17 9 15 36 33 28
47 64 24 64 -9 0 -13 -6 -9 -15 3 -8 0 -15 -6 -15 -7 0 -22 -12 -34 -27 -18
-22 -25 -25 -35 -16 -14 14 6 49 55 98 43 42 77 117 37 81 -23 -21 -43 -13
-34 12 5 13 3 14 -7 5 -8 -7 -19 -8 -29 -3 -9 5 -24 11 -33 14 -10 3 -18 10
-18 15 0 15 91 52 112 45 21 -6 21 -4 8 30 -11 31 -21 32 -45 6z"/>
<path d="M8775 5738 c-22 -22 -53 -47 -70 -55 -16 -9 -46 -30 -66 -47 -19 -17
-49 -41 -65 -53 -28 -20 -28 -22 -12 -39 17 -17 18 -17 31 0 11 14 21 17 47
11 l33 -7 -43 -41 c-34 -34 -41 -46 -36 -68 4 -24 -2 -34 -49 -74 -61 -52 -89
-111 -65 -140 10 -12 10 -15 -3 -15 -21 0 -32 -37 -16 -56 8 -10 22 -12 43 -8
27 5 34 2 46 -21 13 -25 18 -26 59 -20 25 4 58 13 73 21 25 13 28 13 28 -2 0
-10 7 -25 16 -35 21 -24 13 -34 -45 -55 -28 -10 -47 -22 -44 -27 3 -5 8 -30
10 -55 4 -53 47 -108 63 -82 5 9 5 17 0 20 -5 3 14 24 43 47 29 23 69 60 90
81 36 36 37 40 18 45 -12 3 -19 1 -15 -5 12 -20 -146 -141 -163 -124 -9 8 8
46 20 46 22 0 88 61 80 73 -4 7 -8 14 -9 17 -11 37 -18 50 -25 50 -18 0 -8 21
16 32 13 6 22 15 19 19 -8 14 -63 10 -95 -7 -17 -8 -49 -16 -72 -17 -40 -2
-42 -1 -40 26 2 30 -17 36 -37 12 -18 -21 -52 -20 -48 3 2 9 12 16 22 15 9 0
15 2 12 5 -4 3 1 17 11 31 16 25 16 25 -1 12 -15 -13 -19 -13 -27 0 -5 8 -9
17 -9 21 0 20 70 83 121 109 67 33 77 35 58 13 -10 -13 -10 -17 0 -24 8 -5 10
-13 5 -21 -4 -8 12 4 37 25 24 22 46 43 47 48 2 4 8 8 13 8 15 0 10 -37 -6
-44 -8 -3 -15 -10 -15 -15 0 -5 16 -1 36 9 20 10 41 17 48 14 6 -2 25 8 42 23
16 16 23 22 13 15 -9 -7 -29 -14 -45 -15 -35 -3 -57 33 -43 70 5 13 11 36 14
51 2 15 19 40 37 55 27 23 28 25 6 12 -59 -36 -47 -5 30 80 45 49 79 91 76 94
-6 6 -159 -151 -173 -178 -6 -11 -11 -28 -11 -39 0 -10 -10 -27 -22 -38 l-22
-19 17 28 c10 15 13 27 8 27 -5 0 -13 -5 -16 -10 -4 -6 -11 -8 -16 -5 -15 10
44 86 117 154 37 34 64 65 60 68 -4 4 -48 -34 -99 -85 -96 -97 -134 -128 -144
-118 -3 3 2 8 11 12 25 9 19 22 -11 26 l-28 3 44 44 c24 23 51 46 60 49 30 13
110 67 111 75 1 20 -50 -1 -85 -35z"/>
<path d="M9551 3685 c-1 -44 -8 -104 -16 -134 -8 -30 -12 -58 -9 -63 3 -4 0
-8 -6 -8 -7 0 -9 -7 -6 -16 8 -20 -33 -106 -46 -98 -10 7 -64 -40 -79 -68 -16
-29 8 -21 42 13 17 17 33 29 35 26 11 -10 -19 -53 -70 -99 -68 -62 -37 -65 44
-4 33 24 76 47 97 51 21 4 45 13 54 21 14 12 27 8 105 -36 89 -50 154 -72 154
-52 0 5 -15 13 -34 16 -18 4 -46 17 -61 30 -28 24 -55 39 -86 49 -9 3 -19 21
-23 41 -7 35 -26 51 -26 22 0 -8 -7 -16 -15 -20 -11 -4 -15 1 -15 17 -1 22 -1
21 -16 -3 -14 -25 -15 -24 -9 15 9 69 7 267 -3 325 l-10 55 -1 -80z"/>
<path d="M9451 3495 c0 -6 -32 -43 -69 -81 -54 -56 -90 -81 -168 -121 -84 -43
-183 -84 -258 -108 -10 -3 -16 -8 -12 -12 8 -8 80 13 141 43 77 37 200 75 231
72 25 -3 30 2 40 31 6 18 32 60 58 92 29 36 46 65 43 76 -3 10 -5 13 -6 8z"/>
<path d="M12650 7226 c-69 -18 -256 -106 -243 -115 6 -3 -18 -27 -53 -53 -36
-27 -60 -39 -57 -30 3 10 15 25 27 34 12 10 16 18 10 18 -12 0 -34 -22 -92
-90 -103 -120 -182 -279 -213 -425 -32 -150 -30 -341 4 -455 14 -47 25 -92 24
-100 -2 -14 49 -118 118 -245 15 -27 52 -97 82 -155 31 -58 59 -109 63 -115 4
-5 66 -121 139 -257 l132 -247 -17 -103 c-9 -58 -23 -111 -32 -120 -11 -13
-11 -18 -2 -18 13 0 11 -23 -9 -130 -7 -35 -7 -58 -1 -64 6 -6 10 -21 10 -35
l0 -25 16 23 c15 21 23 23 98 21 44 -2 83 -2 86 0 15 6 59 8 83 3 26 -5 27 -6
10 -19 -17 -12 -17 -13 0 -14 9 0 17 -7 17 -16 0 -8 4 -13 10 -9 5 3 7 12 4
20 -4 10 0 12 15 8 12 -3 21 -11 21 -19 0 -10 13 -13 45 -12 25 1 45 5 45 8 0
13 79 8 90 -6 7 -8 18 -14 24 -14 7 0 7 3 1 8 -5 4 -19 18 -30 32 -15 18 -16
21 -3 11 14 -10 25 -11 49 -2 40 14 62 14 54 1 -4 -6 -11 -8 -16 -5 -5 4 -9 2
-9 -3 0 -14 37 -18 115 -12 54 4 64 7 43 12 -14 5 -39 5 -55 2 -24 -5 -36 0
-64 25 l-33 31 26 0 c26 0 53 -22 41 -33 -3 -4 27 -7 68 -7 43 0 80 -5 86 -11
8 -8 43 -11 95 -10 93 3 128 17 46 19 -86 3 -158 14 -152 23 3 5 23 9 45 9 28
0 39 4 39 15 0 8 5 15 11 15 5 0 8 -4 4 -9 -7 -12 59 -26 81 -17 13 5 14 9 4
21 -10 12 -33 14 -124 10 -61 -3 -112 -9 -114 -15 -2 -5 -11 -10 -20 -10 -8 0
-12 3 -9 6 4 4 -8 14 -25 23 -37 18 -38 23 -63 196 -10 66 -21 137 -26 159 -7
36 0 54 122 295 72 140 134 260 138 266 5 5 18 35 29 65 11 30 39 96 62 145
23 50 48 104 55 120 25 59 45 106 60 140 30 67 73 221 85 303 16 108 7 206
-31 333 -33 112 -62 174 -122 264 -49 73 -194 220 -228 230 -51 15 -149 65
-149 75 0 6 -6 10 -12 9 -14 -2 -20 0 -78 21 -53 19 -380 23 -450 6z m445 -61
c115 -29 227 -79 270 -121 l30 -28 -35 -6 c-19 -4 -44 -10 -56 -13 -23 -8
-124 51 -181 106 -18 17 -33 26 -33 20 0 -12 156 -133 172 -133 25 0 -7 -19
-49 -29 -129 -32 -435 -127 -521 -162 l-97 -40 -20 27 c-17 24 -135 163 -171
203 -8 8 -16 12 -19 9 -3 -3 37 -56 90 -119 52 -62 95 -117 95 -121 0 -17 -21
-6 -77 40 -32 26 -89 70 -128 97 -38 27 -72 51 -75 53 -11 9 134 113 210 152
82 41 213 81 293 90 103 12 188 5 302 -25z m338 -189 c19 -15 24 -31 5 -20 -7
4 -8 3 -4 -5 4 -6 11 -9 16 -6 12 8 50 -35 50 -56 0 -24 21 -69 32 -69 5 0 6
6 2 13 -4 6 -4 9 0 5 4 -3 7 -9 6 -13 -1 -4 7 -13 17 -21 14 -10 15 -13 3 -14
-8 0 0 -13 20 -31 19 -17 27 -26 17 -19 -9 7 -21 10 -24 6 -4 -4 -3 -10 2 -14
6 -4 10 -13 11 -19 2 -29 5 -33 18 -33 8 0 18 -5 22 -12 5 -8 1 -9 -12 -5 -17
6 -17 6 -3 -5 9 -7 21 -22 27 -33 19 -37 30 -168 25 -304 -5 -133 -13 -181
-32 -181 -28 0 -143 212 -200 366 -32 89 -107 278 -121 309 -23 52 -50 118
-50 125 0 10 106 45 145 49 6 0 18 -6 28 -13z m-216 -93 c-19 -188 -30 -361
-22 -379 12 -28 22 40 31 224 4 83 10 152 14 152 13 0 94 -189 165 -385 20
-55 59 -142 86 -194 28 -51 48 -95 47 -97 -2 -1 -58 33 -123 77 -66 45 -142
92 -170 105 -57 27 -61 24 -69 -52 -6 -61 -26 -111 -70 -172 -33 -46 -86 -92
-104 -92 -5 0 -15 -7 -22 -15 -7 -8 -16 -13 -20 -10 -4 3 -29 -2 -56 -9 -92
-27 -145 -28 -204 -8 -35 13 -54 25 -52 33 2 8 0 11 -4 6 -4 -4 -16 0 -26 10
-36 32 -28 5 9 -31 50 -48 122 -70 212 -63 85 6 103 11 156 41 25 13 45 20 47
14 2 -6 31 22 65 61 66 78 103 166 103 242 0 51 -4 52 142 -44 62 -40 136 -88
165 -106 43 -27 71 -57 61 -66 -2 -2 -100 -51 -218 -110 -118 -59 -285 -150
-372 -201 -86 -52 -161 -94 -167 -94 -6 0 -18 12 -28 28 -57 93 -88 134 -142
187 -34 33 -61 65 -61 72 0 7 -5 13 -10 13 -6 0 -10 6 -8 13 2 7 -23 49 -56
92 -64 87 -74 105 -56 105 6 0 8 5 5 10 -4 6 -11 8 -16 5 -5 -4 -9 3 -9 14 0
11 -5 23 -10 26 -16 10 0 27 21 22 22 -6 26 11 5 19 -12 5 -12 9 -1 31 8 15
12 30 9 35 -7 12 52 191 82 248 49 93 52 95 334 189 102 33 214 72 250 85 94
36 94 36 87 -31z m-877 15 c20 -18 78 -62 128 -98 50 -36 92 -69 92 -73 0 -5
-11 -23 -24 -40 -13 -18 -32 -48 -41 -67 -22 -43 -91 -254 -101 -306 -8 -47
-21 -63 -99 -122 -33 -25 -88 -70 -122 -99 -35 -30 -67 -52 -72 -49 -7 4 -21
65 -20 86 0 3 -7 21 -15 42 -25 58 -15 240 18 353 42 141 75 223 128 318 57
100 70 105 128 55z m111 -740 c61 -90 155 -214 214 -283 28 -33 64 -78 80 -99
24 -33 25 -38 9 -32 -10 5 -41 16 -69 26 -27 10 -108 45 -179 79 -71 34 -184
85 -252 113 -68 28 -122 54 -119 58 2 4 34 29 70 56 36 27 94 70 128 96 34 26
65 48 69 48 4 0 26 -28 49 -62z m1160 -92 c-5 -6 -21 -40 -36 -76 -60 -142
-234 -499 -260 -530 -6 -8 -35 -67 -62 -130 -45 -101 -98 -208 -179 -359 -13
-24 -32 -50 -41 -57 -15 -11 -15 -13 -3 -14 12 0 12 -2 2 -9 -16 -9 -34 -40
-57 -91 -29 -66 -50 -105 -60 -112 -7 -5 -6 -11 2 -16 8 -5 8 -12 -3 -26 -7
-11 -17 -17 -20 -13 -4 4 -8 111 -10 239 -2 210 -1 235 16 258 20 28 60 114
60 127 -1 4 -17 -23 -36 -60 -38 -74 -57 -79 -51 -14 3 43 33 109 71 162 12
17 32 48 44 70 l23 40 -23 -27 c-55 -64 -98 -127 -98 -141 0 -9 -4 -19 -10
-22 -15 -9 -23 39 -18 110 2 36 0 65 -4 65 -8 0 -2 76 7 91 3 4 1 10 -4 13 -5
3 -9 35 -9 70 -1 69 3 75 58 105 16 9 76 44 132 77 113 68 247 138 263 139 6
0 15 6 21 14 6 8 16 11 22 7 7 -4 22 0 34 8 12 9 30 16 39 16 9 0 24 9 33 19
10 11 29 22 42 25 13 4 33 15 44 26 11 11 26 17 35 14 9 -4 15 -3 14 2 -3 18
1 23 16 18 10 -4 12 -10 6 -18z m-1400 -110 c115 -53 408 -182 465 -205 28
-11 71 -29 95 -40 l44 -21 0 -57 c1 -32 8 -209 18 -393 24 -486 25 -552 9
-545 -8 3 -18 5 -23 5 -4 0 -6 6 -3 14 6 15 -24 73 -88 168 -21 31 -38 59 -38
63 0 3 -18 35 -40 71 -22 36 -40 68 -40 70 0 5 -231 407 -250 434 -9 14 -52
95 -95 180 -43 85 -81 160 -85 165 -17 24 -58 125 -50 125 4 0 41 -15 81 -34z"/>
<path d="M13825 5790 c0 -16 3 -30 6 -30 3 0 4 -11 1 -25 -2 -14 1 -32 8 -40
7 -8 10 -22 6 -30 -3 -8 -1 -15 5 -15 6 0 7 -5 4 -10 -4 -6 -2 -17 4 -24 6 -6
10 -23 9 -37 -3 -53 3 -88 18 -103 8 -9 13 -20 9 -25 -3 -6 1 -26 9 -45 8 -19
12 -37 9 -40 -3 -3 -1 -11 5 -19 6 -7 13 -26 16 -42 10 -54 28 -130 37 -150 9
-24 28 -114 35 -169 3 -22 7 -43 9 -46 2 -4 6 -29 9 -56 6 -48 5 -49 -9 -19
-8 17 -14 39 -15 49 0 11 -3 16 -6 13 -6 -6 9 -77 24 -117 3 -8 6 -17 7 -20 1
-3 5 -33 10 -68 4 -35 13 -69 19 -75 6 -7 12 -34 14 -61 1 -28 9 -60 18 -73 8
-13 12 -28 8 -34 -4 -6 -1 -15 5 -19 7 -4 13 -21 13 -38 1 -18 4 -32 7 -32 4
0 7 -12 6 -27 0 -16 6 -41 13 -56 8 -15 11 -34 8 -42 -3 -8 -2 -15 3 -15 4 0
15 -35 24 -77 9 -43 26 -123 38 -178 18 -88 42 -192 94 -410 8 -33 31 -132 50
-220 20 -88 45 -200 56 -250 21 -94 54 -214 70 -253 5 -13 9 -25 9 -27 0 -3
-174 -5 -387 -6 -214 0 -397 -1 -408 -1 -11 -1 -58 -1 -105 0 l-86 2 -37 198
c-20 108 -39 224 -43 257 -3 33 -10 78 -15 100 -5 22 -10 60 -13 85 -2 25 -15
99 -30 165 -14 66 -26 137 -26 157 0 40 -14 56 -34 39 -10 -8 -51 -9 -147 -1
-74 5 -164 10 -201 10 -38 0 -68 3 -68 8 0 4 -26 8 -58 9 -72 4 -202 -7 -202
-15 0 -4 39 -6 87 -5 60 1 80 -1 63 -6 -38 -13 -144 -13 -158 1 -9 9 -20 9
-49 -1 -21 -6 -61 -13 -89 -14 -30 -1 -57 -8 -65 -17 -8 -8 -13 -16 -12 -17 1
-2 1 -8 -2 -15 -2 -7 -15 -52 -28 -99 -14 -47 -36 -117 -50 -156 -14 -39 -44
-147 -67 -239 -51 -213 -50 -204 -40 -204 4 0 22 61 40 136 18 74 35 133 37
130 3 -3 1 -27 -5 -53 -6 -26 -18 -88 -28 -138 -9 -49 -20 -97 -25 -106 -5 -9
-11 -48 -13 -85 -3 -38 -9 -82 -14 -99 -8 -29 -10 -30 -78 -31 -81 -1 -230 12
-247 23 -6 4 -152 6 -324 6 -172 0 -313 2 -313 6 0 3 16 71 35 151 97 398 125
517 127 547 1 15 5 33 10 39 5 6 9 29 11 50 1 22 5 41 8 44 12 10 22 53 10 46
-14 -9 -14 -10 3 50 14 48 20 79 35 179 4 28 12 66 18 85 10 32 27 103 37 155
11 57 30 112 44 128 18 20 9 35 -12 18 -12 -10 -14 -9 -9 7 3 14 11 18 24 15
13 -4 19 0 20 13 3 27 6 48 8 54 2 3 5 25 7 50 3 25 9 49 14 55 12 14 16 87 6
103 -4 7 -3 12 3 12 9 0 24 48 26 85 2 35 17 85 26 85 5 0 6 7 3 15 -4 8 -2
21 4 28 6 7 13 35 17 62 3 26 9 53 14 59 5 6 11 31 15 56 7 58 19 116 44 215
11 44 22 96 26 115 3 19 8 44 11 55 42 175 48 222 33 231 -12 8 -34 -50 -53
-141 -48 -237 -98 -461 -121 -545 -14 -52 -30 -116 -36 -142 -6 -27 -14 -48
-18 -48 -5 0 -7 8 -5 18 2 9 4 17 5 17 3 0 8 30 15 90 3 33 22 119 41 191 38
146 38 148 24 139 -5 -3 -10 -15 -10 -25 0 -11 -13 -62 -30 -113 -16 -51 -32
-122 -35 -157 -4 -36 -10 -78 -15 -95 -15 -48 -22 -133 -10 -115 8 13 10 13
10 -2 0 -30 -11 -47 -28 -41 -9 4 -14 3 -11 -1 4 -4 3 -23 -1 -42 -7 -31 -6
-33 8 -22 13 11 15 11 7 -2 -4 -8 -17 -25 -28 -37 -11 -13 -16 -23 -10 -23 6
0 14 6 16 13 14 35 -9 -85 -40 -208 -19 -77 -39 -163 -43 -192 -5 -28 -11 -56
-14 -61 -3 -5 -19 -74 -35 -153 -16 -79 -34 -155 -39 -169 l-11 -25 0 25 c-1
14 10 70 23 125 41 167 55 236 71 340 9 55 20 108 26 118 5 9 5 17 1 17 -5 0
-7 26 -5 58 2 46 1 52 -7 28 -5 -16 -12 -56 -15 -90 -9 -101 -16 -144 -31
-183 -18 -52 -18 -14 0 74 8 37 17 106 20 153 3 47 5 86 5 87 1 1 7 0 15 -3
11 -4 13 4 9 41 -3 32 -1 45 6 40 6 -3 11 -1 11 5 0 6 -8 10 -17 8 -14 -3 -18
-13 -17 -43 1 -22 0 -32 -3 -22 -2 9 -11 17 -19 17 -10 0 -12 5 -7 13 4 6 9
21 10 32 7 46 35 181 40 195 7 16 10 26 12 38 1 4 6 0 12 -8 8 -12 9 -10 7 10
-2 14 2 30 9 35 7 6 15 27 17 48 3 21 8 43 12 49 4 7 3 8 -4 4 -22 -13 -7 100
38 289 19 82 60 297 60 319 0 5 -8 1 -19 -8 -34 -30 -89 -246 -106 -416 -6
-61 -38 -217 -70 -340 -51 -198 -81 -322 -106 -440 -16 -74 -45 -196 -63 -270
-19 -75 -37 -153 -40 -175 -7 -44 -38 -178 -84 -360 -55 -220 -85 -397 -78
-459 8 -57 -5 -115 -31 -147 -11 -13 -11 -18 0 -27 17 -14 27 -6 27 22 1 12 7
32 14 45 13 24 14 24 21 -20 4 -24 14 -56 21 -71 8 -15 14 -40 14 -56 0 -16 7
-35 15 -42 8 -7 15 -19 15 -26 0 -8 13 -22 29 -32 24 -15 41 -17 88 -11 32 4
101 8 153 9 71 2 86 5 60 10 -22 5 11 8 93 8 78 0 127 -4 127 -10 0 -6 77 -7
225 -2 211 6 225 6 231 -11 7 -17 8 -16 16 4 7 19 13 21 42 16 20 -4 36 -2 40
4 5 7 -4 11 -24 11 -35 0 -35 -1 -8 97 11 38 15 42 54 48 23 3 93 -1 156 -11
83 -12 148 -15 248 -11 191 8 229 27 50 25 -105 -1 -134 1 -132 11 2 10 -12
12 -55 11 -32 -2 -111 -2 -175 -2 l-118 2 0 29 c0 35 21 54 52 48 20 -4 20 -4
-4 -6 -52 -2 -28 -18 45 -30 63 -10 292 -8 412 3 17 2 77 7 135 11 284 20 306
23 130 18 -96 -3 -206 -7 -245 -9 -137 -7 -387 -4 -403 6 -12 6 45 9 171 10
118 0 187 4 187 10 0 6 -67 10 -182 10 -130 0 -179 3 -171 11 6 6 54 10 119
10 71 0 104 3 94 9 -23 14 -9 17 60 11 36 -3 137 -4 225 -1 88 3 142 7 120 8
-22 2 -58 5 -80 7 -62 6 -562 14 -547 8 6 -3 12 -8 12 -13 0 -11 -40 -25 -59
-21 -12 2 -13 0 -2 -13 11 -13 9 -15 -16 -13 -23 2 -29 6 -27 22 1 11 3 20 4
20 1 0 3 16 5 35 6 79 16 135 25 144 6 6 10 24 10 41 0 16 5 46 10 65 6 19 13
67 16 105 3 39 9 75 14 80 4 6 15 52 25 103 l18 92 36 -4 c20 -3 172 -5 337
-5 l302 -1 7 -45 c3 -25 12 -51 19 -58 11 -10 11 -14 -1 -22 -12 -9 -12 -15
-1 -40 7 -17 19 -35 27 -41 10 -8 11 -13 3 -18 -7 -4 -12 -19 -11 -34 l1 -27
8 25 8 25 1 -27 c1 -14 -3 -28 -9 -30 -5 -1 -6 -14 -3 -28 l7 -25 7 25 c5 16
6 8 3 -20 -3 -25 0 -65 6 -90 6 -25 17 -84 25 -132 14 -95 14 -95 62 -155 19
-23 33 -48 31 -55 -3 -12 91 -118 104 -118 2 0 2 15 0 33 -3 18 -25 57 -51 90
-67 84 -111 150 -105 156 3 3 10 -2 15 -12 19 -33 34 -19 32 30 l-2 47 19 -29
c16 -25 20 -26 26 -12 14 38 28 9 38 -86 2 -12 10 -47 19 -77 8 -30 18 -77 22
-105 3 -27 8 -60 11 -72 4 -19 0 -23 -20 -23 -14 0 -28 -5 -31 -10 -4 -6 7
-10 27 -11 18 0 80 -2 138 -5 58 -3 112 -5 120 -5 8 0 85 3 170 6 85 3 267 2
404 -2 l249 -8 14 -50 c20 -70 45 -136 50 -131 4 4 -11 68 -25 106 -3 8 -7 32
-8 54 -3 33 -38 182 -75 318 -5 20 -9 40 -8 45 1 4 -3 20 -9 36 -16 38 -49
172 -57 232 -3 28 -19 104 -35 170 -16 66 -38 163 -50 215 -12 52 -27 121 -35
152 -7 31 -11 65 -8 76 2 10 -4 34 -15 53 -10 19 -24 66 -31 104 -6 39 -16 84
-21 100 -18 60 -23 118 -10 110 9 -6 10 3 5 36 -8 49 -25 77 -19 32 3 -25 3
-25 -8 5 -8 23 -8 36 -1 40 7 5 7 15 1 32 -6 14 -12 43 -14 64 -2 22 -9 45
-15 52 -5 7 -12 36 -14 65 -2 28 -7 54 -12 58 -4 3 -9 24 -11 46 -1 21 -7 42
-13 46 -7 4 -9 11 -5 17 3 6 2 13 -3 16 -5 3 -12 27 -17 53 -4 27 -9 55 -11
63 -1 8 -9 49 -17 90 -8 41 -19 93 -25 115 -5 22 -17 72 -25 110 -8 39 -24 99
-35 135 -18 58 -86 309 -95 350 -6 30 -31 22 -31 -10z"/>
<path d="M6313 3105 c-20 -14 -158 -183 -158 -194 0 -3 -4 -12 -8 -19 -7 -10
8 -12 72 -10 45 2 81 0 81 -4 0 -5 -5 -8 -11 -8 -5 0 -7 -5 -3 -11 7 -12 123
-3 138 11 5 5 -1 6 -13 3 -11 -3 -27 0 -35 6 -8 7 -25 9 -42 5 -19 -5 -25 -4
-20 5 4 6 2 11 -4 11 -6 0 -8 5 -5 10 3 6 17 7 30 4 12 -3 26 -1 30 5 3 6 11
9 16 5 5 -3 6 -10 3 -16 -4 -7 13 -8 52 -4 33 3 66 5 74 6 13 0 13 1 0 10 -8
5 -23 7 -34 4 -12 -4 -16 -2 -11 5 5 9 -24 11 -113 8 -110 -4 -158 2 -136 16
5 3 114 8 241 12 236 8 313 25 111 25 -61 0 -108 3 -104 7 9 10 10 10 131 12
117 2 115 21 -2 21 -42 0 -73 4 -73 10 0 6 31 10 72 10 39 0 69 3 65 6 -10 11
-201 22 -249 14 -26 -4 -52 -4 -58 0 -15 9 48 19 125 21 33 1 74 5 90 9 26 7
22 8 -25 10 -30 1 -89 4 -131 6 -54 3 -81 0 -96 -11z"/>
<path d="M15920 2875 c0 -33 50 -39 333 -42 152 -2 277 0 277 5 0 15 -84 29
-114 19 -21 -7 -31 -6 -37 4 -8 12 -11 12 -18 -1 -8 -12 -15 -12 -44 -2 -38
14 -63 15 -32 2 16 -7 12 -9 -18 -9 -25 -1 -36 3 -31 10 4 7 -3 6 -17 -2 -13
-7 -26 -11 -29 -9 -23 15 -70 28 -70 20 0 -5 -5 -10 -11 -10 -6 0 -9 7 -5 15
4 13 -9 15 -89 15 -78 0 -95 -3 -95 -15z"/>
<path d="M12653 2866 c-6 -10 -22 -12 -73 -5 -35 4 -67 6 -71 4 -3 -2 -49 -5
-102 -6 -54 -2 -97 -6 -97 -11 0 -4 14 -8 30 -8 17 0 30 -5 30 -11 0 -13 319
-11 435 3 44 5 93 9 108 8 18 0 27 4 25 11 -5 16 -47 22 -63 9 -7 -6 -46 -10
-86 -10 -102 0 -124 4 -121 18 3 16 -5 15 -15 -2z"/>
</g>
</svg>
