<?xml version="1.0" standalone="no"?>
<!DOCTYPE svg PUBLIC "-//W3C//DTD SVG 20010904//EN"
 "http://www.w3.org/TR/2001/REC-SVG-20010904/DTD/svg10.dtd">
<svg version="1.0" xmlns="http://www.w3.org/2000/svg"
 width="1928.000000pt" height="1074.000000pt" viewBox="0 0 1928.000000 1074.000000"
 preserveAspectRatio="xMidYMid meet">
<metadata>
Created by potrace 1.16, written by Peter Selinger 2001-2019
</metadata>
<g transform="translate(0.000000,1074.000000) scale(0.100000,-0.100000)"
fill="#000000" stroke="none">
<path d="M14550 8025 c0 -4 11 -23 25 -41 33 -43 32 -52 -7 -57 -31 -4 -31 -4
6 -5 36 -2 38 -3 33 -29 -9 -47 -18 -1058 -20 -2213 -1 -614 -6 -1111 -11
-1119 -5 -8 -4 -16 2 -20 14 -8 14 -431 1 -448 -7 -7 -7 -18 -1 -30 5 -10 10
-112 11 -228 0 -115 2 -317 3 -447 3 -230 2 -237 -17 -243 -14 -4 -28 4 -48
27 l-28 33 22 -50 c23 -55 46 -85 34 -47 -9 31 16 29 52 -4 21 -19 24 -27 14
-33 -9 -6 -10 -11 -2 -15 18 -11 13 -26 -6 -20 -11 3 -8 -2 7 -13 55 -40 120
-108 116 -120 -4 -8 3 -13 19 -13 19 0 30 -13 59 -71 29 -58 36 -83 36 -130 0
-33 4 -59 9 -59 6 0 10 17 9 38 0 46 20 124 31 118 4 -3 71 -6 149 -7 78 0
142 -5 144 -10 2 -6 85 -5 218 2 214 12 323 17 433 18 31 1 57 6 57 11 0 6 -9
10 -20 10 -10 0 -24 9 -30 20 -13 24 -30 26 -30 5 0 -9 -9 -15 -22 -15 -17 0
-19 3 -10 12 7 7 12 42 12 85 0 86 -19 81 195 58 159 -17 179 -17 150 -5 -11
5 -38 9 -60 9 -22 1 -58 6 -80 13 -22 7 -76 12 -120 13 -76 0 -80 1 -83 23 -3
21 -1 23 25 18 15 -4 63 -7 105 -9 54 -1 72 -5 60 -11 -28 -16 19 -22 178 -24
169 -3 261 -7 310 -16 28 -5 31 -5 13 3 -13 6 -23 14 -23 18 0 11 -68 40 -109
47 -18 3 -133 8 -255 11 -121 3 -240 8 -263 11 l-42 5 0 537 c0 295 -4 665 -7
822 -4 157 -4 283 -1 280 3 -3 18 -43 35 -90 16 -47 51 -132 76 -190 25 -57
46 -110 46 -117 0 -7 12 -38 26 -70 24 -56 134 -352 149 -403 4 -14 32 -88 62
-165 31 -77 57 -153 58 -170 2 -16 17 -59 33 -95 41 -89 104 -261 99 -267 -3
-2 -22 14 -43 36 -20 23 -39 39 -42 37 -8 -9 73 -95 90 -96 10 0 24 -12 32
-27 8 -16 41 -51 73 -79 144 -128 218 -196 221 -205 2 -5 -24 -9 -57 -9 -34 0
-61 -4 -61 -10 0 -12 5 -13 90 -14 l65 -1 41 -83 c55 -111 75 -128 28 -24 -20
45 -34 85 -31 88 12 13 37 -6 73 -56 20 -27 40 -50 46 -50 5 0 -1 14 -14 31
-59 79 -70 72 93 64 79 -3 192 -7 252 -8 l107 -1 0 -58 c0 -78 18 -74 22 5 l3
62 32 -3 c18 -2 42 3 55 12 15 11 45 16 90 16 l68 0 1 -67 c1 -38 1 -75 0 -85
-1 -9 3 -19 9 -23 7 -4 10 24 10 84 l0 91 38 2 c20 1 48 1 62 0 60 -4 49 12
-15 22 l-70 11 1 45 c10 299 12 770 3 770 -6 0 -7 5 -3 11 11 19 15 269 4 269
-6 0 -10 -35 -10 -87 0 -47 -3 -83 -7 -79 -4 4 -6 97 -5 208 2 148 5 204 15
210 6 4 8 8 2 8 -13 0 -10 190 4 253 13 59 19 733 9 947 -9 167 -19 881 -15
1045 1 55 1 346 0 648 l-2 547 24 -6 c12 -3 25 -1 29 4 3 5 -8 12 -24 16 -17
3 -30 12 -30 20 0 8 -10 18 -21 21 -20 7 -67 46 -189 160 -25 23 -66 55 -91
72 -25 17 -51 38 -58 47 -8 9 -17 16 -22 16 -39 0 60 -118 150 -180 57 -38
148 -126 140 -134 -2 -2 -53 1 -114 6 -104 9 -396 5 -676 -8 l-126 -7 -44 54
c-24 30 -80 88 -124 129 -44 41 -81 77 -83 80 -1 3 170 4 380 2 373 -3 468 3
468 29 0 5 -30 10 -67 11 -38 0 -81 3 -98 5 -53 6 -334 2 -516 -7 -96 -5 -184
-8 -195 -7 -17 2 -19 -5 -21 -58 -1 -33 -7 -130 -14 -215 -7 -96 -9 -218 -5
-320 9 -205 9 -856 1 -870 -3 -6 -1 -10 4 -10 6 0 11 -4 11 -10 0 -5 -7 -7
-15 -4 -12 5 -15 -3 -15 -37 0 -56 -12 -42 -40 46 -13 39 -43 117 -67 175 -25
58 -63 159 -85 225 -23 66 -66 176 -96 245 -53 120 -107 253 -158 390 -14 35
-31 74 -39 87 -22 32 -19 46 8 37 22 -7 22 -6 4 14 -11 11 -25 18 -31 16 -7
-3 -28 16 -47 41 -19 26 -47 62 -62 81 -16 18 -26 38 -22 44 3 5 2 10 -4 10
-13 0 -90 82 -91 96 0 5 -14 23 -31 40 l-31 29 8 -30 c11 -43 61 -122 114
-180 25 -27 58 -67 74 -87 16 -21 35 -38 42 -38 8 0 14 -4 14 -8 0 -11 -708
-3 -743 8 -17 6 -26 6 -22 0 4 -6 -19 -10 -57 -10 -72 0 -73 1 -163 140 -40
63 -79 110 -91 110 -2 0 14 -26 35 -57 37 -57 55 -93 46 -93 -3 0 -17 19 -31
43 -14 23 -45 61 -67 84 -22 24 -38 46 -34 49 4 4 14 1 22 -6 10 -8 19 -10 25
-4 6 6 58 6 127 2 219 -13 712 -14 702 -2 -13 16 -150 23 -548 30 l-334 5 -34
42 c-45 53 -43 52 -43 42z m2056 -424 c-4 -5 -2 -13 4 -16 7 -4 9 -24 6 -48
-14 -105 -17 -177 -17 -389 0 -225 -1 -227 -22 -231 l-22 -4 23 -8 c23 -7 23
-9 22 -184 -1 -97 -4 -186 -7 -198 -10 -44 -23 -23 -24 40 -2 102 -16 136 -17
40 0 -86 -8 -116 -23 -92 -5 8 -9 24 -9 36 0 12 -4 23 -9 25 -5 2 -12 20 -15
42 -4 21 -11 46 -16 55 -12 17 -8 -55 5 -116 4 -18 5 -33 2 -33 -12 0 -45 88
-42 115 1 17 -2 57 -7 90 -6 33 -11 80 -13 105 -1 24 -7 46 -13 48 -9 3 -11
-20 -7 -77 2 -48 0 -81 -5 -81 -6 0 -11 8 -11 18 -10 109 -12 213 -6 252 3 14
2 29 0 33 -3 4 -6 180 -8 390 -2 210 -4 387 -5 392 -11 51 7 40 121 -73 67
-66 118 -125 115 -131z m-1746 -3 c0 -10 -5 -18 -11 -18 -7 0 -8 -7 -4 -17 3
-10 6 -124 5 -253 0 -129 -3 -905 -6 -1725 -6 -1768 -5 -1689 -28 -1693 -14
-3 -15 -6 -4 -19 18 -22 20 -110 2 -117 -10 -4 -15 3 -16 22 -1 15 -2 35 -2
44 -1 10 -7 23 -13 29 -8 8 -10 -11 -7 -68 2 -43 0 -109 -5 -148 -5 -38 -6
-74 -4 -78 8 -14 8 -326 0 -318 -10 10 -22 248 -22 426 0 72 -3 133 -8 136
-14 10 -22 93 -8 85 6 -4 11 0 11 8 0 9 -6 16 -12 16 -10 0 -9 3 1 9 10 6 11
13 2 29 -6 11 -11 30 -11 42 0 12 -4 19 -8 16 -9 -5 -8 -113 1 -401 6 -180 -8
-120 -18 80 -4 76 -9 148 -12 160 -6 27 -4 365 3 376 2 5 0 17 -5 27 -7 13 -6
23 2 32 10 10 8 12 -6 7 -14 -5 -16 -3 -9 11 5 9 7 23 5 30 -3 8 1 10 11 6 9
-3 16 -1 16 5 0 6 -4 11 -10 11 -5 0 -10 7 -10 15 0 8 5 15 11 15 6 0 8 7 5
16 -4 12 -2 15 9 10 8 -3 15 -1 15 4 0 6 -4 10 -9 10 -5 0 -11 9 -14 21 -3 12
-10 18 -16 14 -6 -3 -11 1 -11 9 0 9 6 16 13 16 8 0 9 3 1 8 -12 8 -15 38 -7
62 10 28 11 70 2 76 -5 3 -7 10 -3 15 3 5 0 17 -7 25 -7 8 -8 14 -3 13 21 -4
24 2 10 17 -21 20 -21 41 -1 24 13 -11 14 -8 11 17 -1 17 -6 35 -10 42 -4 6
-2 11 5 11 8 0 8 4 -1 15 -10 12 -10 15 1 15 10 0 10 3 1 12 -9 9 -9 15 1 26
10 13 9 15 -10 10 -13 -4 -26 -1 -30 4 -3 7 -1 8 5 4 7 -4 12 -1 12 9 0 9 -4
14 -8 11 -5 -3 -9 29 -11 70 -1 55 1 74 11 74 10 0 9 3 -2 10 -11 7 -14 33
-15 114 -1 98 8 137 18 84 4 -20 4 -19 6 5 1 17 -4 27 -13 27 -11 0 -15 18
-18 73 -5 125 -1 1401 5 1432 3 17 7 85 8 153 1 67 6 122 11 122 5 0 6 5 3 11
-4 6 -8 140 -10 297 -1 158 -6 317 -10 355 -5 46 -4 67 4 67 5 0 29 -26 52
-57 23 -32 47 -62 54 -68 34 -29 40 -60 41 -240 3 -229 2 -225 13 -225 5 0 8
88 7 199 0 110 3 197 7 194 21 -13 -21 49 -96 142 l-81 100 112 -110 c61 -60
112 -118 112 -127z m248 22 c50 0 92 -4 92 -9 0 -8 -77 -17 -207 -24 -23 -2
-46 -6 -50 -11 -9 -9 150 -3 322 13 94 8 420 24 479 22 10 0 22 -4 26 -8 9
-10 30 -96 25 -101 -2 -2 -18 16 -36 42 -44 62 -50 49 -9 -16 57 -90 106 -187
164 -328 30 -74 71 -171 90 -215 20 -44 36 -86 36 -93 0 -10 16 -55 75 -207 5
-11 9 -24 9 -30 1 -5 11 -31 23 -58 12 -26 21 -49 20 -51 -1 -1 4 -10 12 -19
7 -10 10 -17 6 -17 -5 0 -1 -8 7 -17 8 -10 40 -94 70 -188 31 -93 76 -222 102
-287 25 -64 46 -125 46 -135 0 -11 4 -23 8 -29 5 -5 14 -29 21 -54 14 -50 58
-162 102 -258 16 -35 29 -65 29 -68 0 -11 47 -104 73 -141 55 -83 67 -71 32
31 -26 75 -27 86 -31 364 -3 158 -6 333 -8 390 -2 87 0 102 13 103 12 1 12 2
-2 6 -12 3 -16 10 -12 21 11 28 15 202 20 767 2 297 4 550 4 562 1 22 2 22
164 21 89 -1 235 2 323 6 l161 8 5 -33 c9 -58 14 -1811 10 -3563 -1 -428 1
-782 3 -786 3 -4 7 -101 10 -216 l5 -209 -227 3 c-126 1 -256 5 -289 8 -56 5
-62 8 -67 30 -6 32 26 33 47 2 13 -19 16 -19 16 -5 0 16 3 16 37 2 42 -18 60
-8 38 21 -13 17 -14 17 -15 1 0 -16 -3 -16 -32 -4 -18 8 -38 12 -44 10 -16 -5
-84 60 -84 80 0 16 5 16 48 1 9 -4 28 -8 41 -10 18 -2 21 0 13 8 -7 7 -17 13
-24 14 -7 2 -27 7 -45 12 -17 6 -34 8 -36 5 -3 -2 -11 5 -17 17 -10 18 -10 21
2 15 7 -5 3 3 -8 16 -12 13 -22 31 -22 39 -1 13 -51 160 -81 233 -6 16 -11 35
-11 43 0 8 -4 14 -8 14 -11 0 -47 85 -93 220 -22 63 -44 124 -49 135 -5 11
-16 45 -25 75 -10 30 -35 98 -57 150 -22 52 -46 107 -52 123 -6 15 -14 27 -18
27 -5 0 -8 9 -8 19 0 11 -6 22 -12 24 -8 3 -6 6 5 6 21 1 22 -3 -8 59 -14 29
-25 54 -25 57 0 4 -10 27 -22 53 -12 26 -22 57 -24 68 -1 12 -19 57 -39 100
-46 98 -47 100 -85 209 -18 50 -38 99 -44 110 -7 11 -18 40 -25 65 -12 41 -31
93 -139 370 -20 52 -38 115 -39 139 -3 45 -13 71 -13 33 0 -12 -4 -22 -8 -22
-13 0 -32 23 -32 39 0 9 -11 21 -25 27 -23 11 -24 11 -13 -10 6 -11 19 -33 29
-48 23 -32 25 -45 4 -28 -23 19 -29 5 -10 -24 14 -20 16 -43 13 -114 -2 -48
-7 -92 -10 -97 -3 -6 -4 -19 -2 -30 5 -26 6 -1272 1 -1735 -1 -195 -6 -361
-10 -367 -5 -7 -4 -21 1 -30 6 -10 12 -44 13 -76 l4 -59 -177 1 c-98 0 -292 0
-432 0 l-253 1 -7 41 c-4 22 -6 518 -4 1102 1 584 0 1553 -1 2152 -1 600 1
1167 4 1261 7 162 8 173 29 183 13 7 14 10 3 6 -20 -5 -32 16 -23 41 5 13 16
15 64 11 31 -4 99 -6 150 -7z m1424 -1142 c19 -19 20 -29 15 -109 -3 -54 -2
-91 4 -95 7 -4 9 31 8 98 -1 88 1 103 15 106 18 4 18 5 16 -101 -1 -72 -19
-135 -33 -120 -4 3 -7 -8 -7 -25 0 -17 7 -38 16 -46 16 -16 8 -22 -12 -8 -15
10 -24 53 -30 135 -4 59 -13 119 -24 162 -1 6 -1 24 0 40 2 26 3 27 7 7 3 -13
14 -33 25 -44z m980 -73 c-2 -22 -4 -55 -4 -72 0 -18 -5 -33 -12 -33 -6 0 -4
-6 6 -13 11 -9 15 -24 13 -47 -2 -19 -4 -38 -4 -42 -1 -5 -4 -8 -9 -8 -4 0 -5
21 -3 47 3 41 1 46 -11 35 -8 -6 -18 -9 -21 -5 -4 3 -7 -1 -7 -11 0 -9 -5 -14
-10 -11 -6 4 -7 12 -3 18 4 7 -2 5 -12 -3 -14 -11 -17 -11 -11 -1 5 8 4 16 -4
21 -9 5 -13 37 -14 96 -1 78 1 89 17 92 17 3 18 -4 15 -87 -2 -71 0 -92 11
-96 8 -3 15 -4 17 -3 1 2 4 41 5 88 1 63 6 89 18 101 15 15 16 14 22 -5 3 -12
4 -39 1 -61z m-2 -1086 c0 -6 7 -17 15 -25 8 -9 15 -21 14 -27 0 -9 -2 -8 -6
1 -2 6 -11 12 -19 12 -16 0 -15 5 -16 -115 0 -131 -1 -128 23 -122 13 3 19 1
16 -6 -2 -7 -12 -11 -22 -9 -15 3 -16 -1 -10 -25 8 -30 8 -77 -1 -104 -3 -11
3 -18 16 -22 11 -3 20 -11 20 -17 0 -7 -7 -10 -16 -6 -14 6 -16 -7 -13 -114 2
-66 1 -120 -3 -120 -4 0 -5 -6 -3 -12 3 -7 -4 -24 -15 -38 -15 -19 -20 -21
-20 -9 0 9 7 20 16 23 16 6 11 26 -7 26 -6 0 -7 -4 -4 -10 3 -5 1 -10 -4 -10
-6 0 -11 9 -11 20 0 11 5 20 12 20 9 0 9 3 1 11 -18 18 -5 181 15 198 16 13
16 13 0 8 -10 -3 -19 -3 -22 1 -9 15 -10 72 -1 72 6 0 10 -4 10 -9 0 -28 13
-17 17 14 2 20 0 38 -4 41 -4 3 -8 0 -8 -5 0 -6 -3 -11 -7 -11 -5 0 -8 70 -7
156 1 122 -2 157 -13 161 -21 8 -15 33 8 33 14 0 19 -5 16 -14 -4 -10 -1 -13
8 -9 10 3 13 13 9 29 -4 15 -2 24 5 24 6 0 11 -5 11 -11z m13 -1122 c3 -25 -1
-43 -10 -53 -8 -7 -11 -19 -7 -26 6 -9 3 -9 -9 1 -15 12 -17 11 -17 -8 0 -11
5 -21 11 -21 15 0 37 -25 37 -41 -2 -40 2 -53 14 -41 30 30 39 14 37 -68 -1
-70 -4 -80 -20 -80 -26 0 -32 15 -30 76 1 42 -2 54 -14 54 -13 0 -15 -13 -13
-72 2 -52 7 -72 16 -70 19 3 14 -11 -12 -36 -31 -29 -33 -22 -34 106 -1 91 1
104 19 115 22 14 25 37 5 37 -18 0 -26 22 -26 68 0 32 1 34 13 17 10 -12 16
-15 21 -6 4 6 0 18 -8 27 -17 16 -22 39 -7 30 5 -3 11 4 14 16 8 30 15 20 20
-25z m-1349 -29 c-3 -5 3 -16 14 -26 11 -9 37 -60 57 -112 20 -52 52 -128 71
-169 19 -40 33 -80 30 -87 -3 -8 -1 -14 4 -14 6 0 10 -7 10 -16 0 -9 9 -31 20
-49 11 -17 21 -40 23 -51 1 -10 6 -24 9 -30 4 -5 5 -19 4 -30 -2 -10 3 -27 11
-36 8 -9 13 -27 11 -39 -3 -21 -5 -20 -20 12 -39 79 -98 211 -98 218 0 10 -26
76 -81 207 -20 50 -41 108 -44 128 -4 20 -11 36 -16 36 -5 0 -9 8 -9 18 0 10
-4 22 -9 28 -5 5 -12 20 -16 34 -8 25 -7 25 13 6 12 -10 19 -23 16 -28z
m-1523 -290 c0 -18 2 -45 4 -61 2 -17 0 -25 -7 -21 -7 4 -6 0 1 -13 6 -11 8
-23 5 -25 -6 -7 -5 -459 1 -528 3 -30 8 -71 11 -90 6 -34 5 -34 -14 -17 -17
16 -20 33 -23 135 -4 183 -4 594 0 625 5 38 21 34 22 -5z"/>
<path d="M16744 7318 c-10 -16 -12 -195 -2 -210 7 -12 116 -4 129 9 5 5 5 53
1 108 l-7 100 -57 3 c-38 2 -59 -1 -64 -10z"/>
<path d="M16935 7318 c-3 -8 -4 -59 -3 -114 l3 -99 50 0 c84 1 85 2 85 102 0
48 -4 94 -9 102 -13 21 -119 28 -126 9z"/>
<path d="M17140 7320 c-11 -7 -16 -33 -18 -104 -4 -94 -4 -95 21 -101 14 -4
45 -5 68 -3 l44 4 -1 74 c-3 156 2 140 -51 140 -27 0 -55 -5 -63 -10z"/>
<path d="M16745 6917 c-3 -7 -4 -60 -3 -118 3 -101 4 -104 27 -107 13 -2 39
-1 58 3 l34 6 -3 112 -3 112 -53 3 c-37 2 -54 -1 -57 -11z"/>
<path d="M17135 6920 c-3 -5 -7 -55 -8 -112 l-2 -103 47 -3 c75 -5 79 0 83
114 3 68 0 101 -8 106 -17 11 -105 10 -112 -2z"/>
<path d="M16738 6398 c-3 -57 -3 -109 -1 -115 3 -8 24 -13 53 -13 81 0 80 -2
80 121 l0 109 -64 0 -63 0 -5 -102z"/>
<path d="M16960 6101 c-24 -7 -25 -9 -28 -113 l-3 -106 34 -6 c18 -3 48 -3 65
0 26 5 32 12 33 33 2 30 -2 185 -4 188 -8 7 -77 10 -97 4z"/>
<path d="M17130 6074 c-6 -15 -9 -66 -8 -113 l3 -86 35 -5 c19 -3 49 -1 67 5
l32 9 -2 106 -2 105 -58 3 c-54 3 -58 2 -67 -24z"/>
<path d="M16745 5701 c-3 -2 -5 -56 -5 -118 l0 -114 63 3 62 3 3 112 3 111
-29 6 c-29 7 -90 5 -97 -3z"/>
<path d="M16940 5700 c-5 -3 -9 -53 -9 -112 l-1 -106 36 -7 c20 -3 49 -3 65 0
28 6 29 8 30 73 0 37 2 84 4 105 4 33 1 39 -22 48 -26 10 -86 9 -103 -1z"/>
<path d="M17142 5702 c-8 -5 -14 -47 -18 -115 l-6 -106 24 -6 c14 -4 42 -5 64
-3 l39 3 6 105 c3 58 2 109 -2 114 -10 12 -92 19 -107 8z"/>
<path d="M16747 5273 c-16 -4 -17 -16 -15 -116 l3 -112 65 0 65 0 3 111 c3
109 2 112 -20 118 -26 6 -74 6 -101 -1z m98 -118 l0 -90 -48 -3 -48 -3 4 93
c3 51 6 94 6 96 1 2 20 2 44 0 l42 -3 0 -90z"/>
<path d="M16937 5274 c-4 -4 -7 -56 -7 -115 0 -123 3 -127 86 -114 l45 6 -3
112 -3 112 -55 3 c-31 2 -59 0 -63 -4z"/>
<path d="M17153 5273 c-22 -4 -23 -8 -23 -113 0 -65 4 -111 10 -115 6 -4 33
-4 60 0 l50 7 0 108 c0 103 -1 108 -22 114 -24 6 -39 6 -75 -1z"/>
<path d="M16548 5252 c-3 -9 -3 -58 0 -108 l4 -92 47 2 46 1 3 105 3 106 -50
2 c-39 1 -50 -2 -53 -16z"/>
<path d="M16742 4738 l3 -113 60 0 60 0 8 60 c4 33 6 83 5 110 l-3 50 -68 3
-68 3 3 -113z m92 86 c13 -5 16 -23 16 -95 l0 -89 -45 0 -45 0 0 95 0 95 29 0
c16 0 36 -3 45 -6z"/>
<path d="M16944 4837 c-2 -7 -3 -58 -2 -113 l3 -99 35 -3 c20 -2 46 1 59 6 22
8 23 13 24 113 l2 104 -58 3 c-41 2 -59 -1 -63 -11z"/>
<path d="M17137 4843 c-4 -3 -7 -52 -7 -109 l0 -102 28 -4 c15 -2 41 -1 57 2
l30 5 8 94 c5 51 6 99 3 107 -6 15 -106 21 -119 7z"/>
<path d="M16572 4442 c-9 -6 -13 -40 -14 -113 l-2 -104 45 -1 c69 -2 74 6 75
118 0 89 -1 97 -20 102 -30 8 -69 7 -84 -2z"/>
<path d="M16755 4418 c-3 -18 -5 -69 -3 -113 l3 -80 39 -3 c22 -2 50 -1 62 2
23 6 24 10 22 94 0 48 2 97 6 108 6 20 3 21 -58 23 l-65 1 -6 -32z m96 -1 c1
-7 2 -49 3 -95 l1 -83 -40 3 -40 3 -3 79 c-2 44 -1 84 1 91 6 15 77 16 78 2z"/>
<path d="M16946 4442 c-2 -4 -6 -54 -7 -112 l-3 -105 27 -9 c18 -7 39 -5 67 4
l40 13 0 109 0 108 -59 0 c-33 0 -62 -3 -65 -8z"/>
<path d="M17188 4443 l-37 -4 -3 -102 c-2 -56 0 -106 4 -111 8 -10 103 5 100
17 -1 4 -2 52 -2 107 0 74 -3 100 -12 98 -7 -1 -30 -3 -50 -5z"/>
<path d="M16569 3972 c-1 -132 -1 -148 0 -160 1 -9 17 -12 56 -11 49 2 56 5
61 26 4 13 3 33 -1 46 -4 12 -9 45 -12 72 -5 59 -16 72 -65 79 l-38 6 -1 -58z"/>
<path d="M16961 4011 c-15 -15 -19 -35 -20 -107 -1 -61 3 -90 11 -96 20 -12
95 -9 105 5 6 7 8 52 5 105 -4 88 -6 94 -29 103 -36 13 -51 11 -72 -10z"/>
<path d="M16969 3642 c-13 -2 -17 -22 -23 -98 -3 -52 -4 -99 -1 -103 9 -16 68
-21 100 -10 l31 12 -4 96 c-2 53 -6 98 -8 100 -5 5 -73 7 -95 3z"/>
<path d="M16760 3632 c-6 -2 -10 -44 -10 -98 l0 -95 32 -13 c28 -12 37 -12 66
2 33 16 34 18 29 63 -3 26 -1 64 3 86 5 22 5 42 0 47 -9 9 -99 15 -120 8z"/>
<path d="M17140 3593 c0 -27 -3 -72 -6 -100 l-7 -53 46 0 c77 0 77 0 77 106
l0 94 -55 0 -55 0 0 -47z"/>
<path d="M4768 7968 c-2 -24 -7 -32 -18 -29 -48 13 -921 4 -884 -9 44 -16 661
-30 787 -19 50 5 67 4 67 -6 0 -6 -11 -17 -25 -23 -14 -6 -25 -16 -25 -22 0
-5 -5 -10 -12 -10 -6 0 -18 -7 -27 -15 -9 -9 -50 -42 -91 -74 -41 -32 -81 -65
-89 -74 -7 -9 -17 -15 -21 -12 -4 3 -18 -11 -31 -29 l-23 -34 -226 5 c-124 3
-232 9 -240 14 -9 5 52 9 145 11 88 1 174 3 190 4 17 1 47 3 68 3 20 1 37 5
37 10 0 5 -34 8 -77 6 -43 -2 -153 -4 -245 -4 -103 -1 -169 -5 -173 -11 -4 -6
-11 -7 -17 -4 -6 4 -15 0 -20 -7 -7 -11 -11 -11 -15 -1 -3 7 -25 12 -58 12
-33 0 -55 -5 -58 -12 -4 -10 -6 -10 -6 0 -1 16 -38 15 -48 -2 -5 -8 -34 -16
-73 -20 -54 -5 -62 -4 -46 6 10 7 37 27 60 43 23 17 96 68 162 113 123 83 152
107 141 119 -8 7 -98 -48 -308 -190 -92 -62 -175 -117 -185 -124 -17 -10 -16
-11 11 -10 28 2 30 -1 36 -43 4 -25 7 -209 8 -410 1 -201 5 -473 9 -605 5
-132 6 -243 3 -246 -3 -3 -21 -2 -40 3 -18 5 -30 12 -27 15 10 10 -56 73 -75
73 -10 0 -30 -15 -44 -34 -28 -36 -37 -39 -185 -52 l-75 -6 -2 596 c-2 535 1
633 20 584 6 -16 0 269 -8 342 -3 30 -3 72 1 92 5 34 9 37 42 40 81 8 -282 7
-594 -1 -311 -9 -333 -11 -370 -31 -21 -12 -50 -32 -64 -45 -40 -37 -184 -118
-188 -106 -6 17 -22 13 -22 -5 0 -19 -19 -36 -74 -65 l-38 -20 -15 20 c-18 26
-33 27 -26 2 3 -12 -3 -24 -18 -35 -18 -13 -20 -16 -7 -16 14 0 17 -10 17 -52
0 -60 6 -260 21 -658 6 -151 8 -300 6 -330 -3 -30 -7 -129 -11 -220 -3 -91 -8
-194 -12 -230 -4 -36 -5 -69 -4 -75 2 -5 5 -86 6 -180 2 -93 9 -296 15 -450 9
-191 10 -407 5 -680 -4 -220 -8 -436 -9 -480 0 -44 3 -111 7 -150 4 -38 12
-110 18 -159 9 -88 24 -167 36 -196 3 -8 7 -28 9 -44 9 -69 114 -295 190 -411
18 -27 31 -52 28 -54 -2 -3 -41 31 -86 75 -44 43 -73 68 -64 54 38 -58 368
-380 419 -409 77 -44 85 -56 91 -139 5 -68 4 -73 -17 -82 -14 -6 49 -9 178
-10 220 -2 233 -3 320 -18 75 -13 725 -17 725 -4 0 5 -39 12 -87 16 -147 10
-203 18 -203 27 0 12 67 12 88 0 10 -5 46 -4 92 3 80 12 146 13 157 2 11 -11
23 -7 23 8 0 10 16 17 45 22 25 3 45 10 45 16 0 5 17 16 38 25 20 8 84 37 141
64 57 28 106 48 109 45 2 -3 6 -44 7 -91 l3 -86 -184 4 c-101 3 -184 1 -184
-3 0 -26 269 -37 347 -15 40 12 59 13 66 6 16 -16 35 -13 57 9 11 11 29 20 40
20 13 0 18 5 14 15 -4 10 0 15 11 15 14 0 15 3 6 14 -10 12 -8 18 11 30 32 21
78 31 78 17 0 -6 -9 -11 -20 -11 -11 0 -20 -5 -20 -10 0 -7 88 -10 255 -9 140
1 255 6 255 10 0 10 -34 12 -127 10 -34 -1 -64 3 -68 9 -3 6 4 10 17 10 17 0
20 2 9 9 -18 12 -41 3 -41 -15 0 -14 -4 -14 -120 -5 -12 1 -12 3 -2 10 7 4 37
6 65 3 42 -3 50 -2 40 9 -13 12 -51 17 -147 18 -49 1 -58 11 -14 16 39 4 41 5
36 11 -3 3 -40 8 -82 11 -55 3 -76 2 -76 -7 0 -8 13 -10 43 -5 39 7 41 6 26
-10 -12 -13 -25 -15 -48 -10 -17 4 -31 11 -31 16 0 16 -48 10 -66 -8 -17 -17
-18 -17 -11 0 4 11 1 20 -7 23 -8 3 -17 12 -20 21 -5 11 -2 13 11 8 10 -4 113
-6 228 -5 363 5 488 5 545 -3 52 -6 53 -6 25 7 -18 9 -88 17 -180 21 -143 6
-197 14 -124 16 72 3 225 -1 252 -7 16 -3 27 -1 27 5 0 6 -21 12 -47 12 -27 1
-59 3 -73 5 -51 6 -256 8 -305 2 -27 -3 -42 -3 -32 -1 9 2 17 10 17 16 0 9 47
12 185 11 102 -1 185 3 185 7 0 5 -15 9 -32 9 -25 0 -29 3 -18 10 8 5 31 7 50
5 32 -5 33 -5 10 6 -31 13 -78 18 -208 20 -56 1 -105 5 -107 9 -2 4 -24 5 -47
2 -64 -6 -88 -6 -142 0 -27 4 -78 2 -113 -4 -36 -5 -67 -7 -70 -4 -3 3 69 81
160 173 173 175 244 253 246 266 0 4 16 32 36 62 19 31 35 62 35 70 0 8 3 15
8 15 8 0 37 62 54 115 6 17 16 44 24 62 14 31 47 150 64 228 5 22 13 52 19 67
9 23 40 181 45 228 1 9 5 21 10 28 4 7 2 12 -4 12 -7 0 -8 6 -1 19 6 10 8 34
6 52 -8 57 -14 167 -20 344 -3 94 -8 213 -10 265 -4 87 -5 177 -3 240 0 14 -1
39 -2 55 -1 17 -1 172 -1 345 3 1419 2 1904 -4 1965 -2 28 -2 68 1 91 5 33 12
44 40 59 19 10 34 22 34 27 0 11 -17 10 -25 -2 -3 -5 -17 -10 -30 -10 -17 0
-24 5 -23 18 3 40 -3 82 -11 82 -6 0 -11 -15 -13 -32z m-1778 -60 c0 -7 -41
-40 -90 -72 -49 -33 -98 -68 -107 -79 -10 -11 -44 -40 -77 -64 -45 -33 -68
-43 -100 -44 -22 -1 -31 -4 -18 -6 52 -10 14 -21 -95 -27 -151 -9 -364 -6
-358 4 7 11 -254 24 -315 16 -28 -4 -50 -3 -50 1 1 10 99 76 200 134 44 25 95
60 113 77 l33 32 234 0 c208 0 285 4 524 25 33 3 62 7 64 10 11 10 42 5 42 -7z
m-14 -165 c-20 -389 -21 -470 -11 -913 5 -184 5 -379 1 -432 -7 -92 -9 -96
-27 -85 -14 9 -19 23 -19 54 0 29 -5 45 -17 52 -15 9 -15 10 -2 11 12 0 16 13
16 70 0 39 -3 70 -7 70 -4 0 -13 -33 -20 -72 -17 -92 -17 -86 -9 -133 5 -28 3
-45 -7 -56 -7 -8 -17 -30 -20 -47 -6 -28 -13 -34 -57 -47 -28 -8 -52 -13 -55
-11 -4 4 -7 88 -10 255 -1 41 -5 71 -9 68 -3 -4 -6 -81 -4 -172 1 -107 -2
-165 -9 -165 -6 0 -10 45 -11 118 0 64 -1 134 -1 154 0 20 3 61 6 91 5 35 3
57 -3 62 -7 4 -8 13 -3 23 5 9 10 159 11 332 0 173 3 338 6 365 2 28 6 99 9
159 l6 109 37 33 c21 18 42 33 46 34 5 0 6 -18 2 -40 -4 -21 -3 -45 2 -52 5
-8 10 3 14 32 4 25 3 49 -2 54 -5 6 18 36 56 73 36 35 65 69 65 76 0 12 19 37
28 37 1 0 1 -48 -2 -107z m1780 -5 c-7 -119 -8 -1417 -1 -1778 6 -304 6 -493
-2 -556 -3 -27 -5 -57 -5 -66 1 -10 -4 -18 -9 -18 -6 0 -7 -5 -4 -10 4 -6 9
-8 13 -6 4 2 7 -46 8 -107 0 -62 3 -163 5 -224 4 -68 2 -113 -4 -113 -6 0 -5
-5 1 -12 12 -16 21 -158 10 -158 -4 0 -8 6 -9 13 0 9 -2 9 -6 -1 -3 -7 3 -20
13 -27 16 -12 17 -14 3 -15 -13 0 -17 -17 -23 -90 -4 -50 -11 -100 -16 -113
-10 -25 -11 -20 -12 46 0 26 -4 47 -9 47 -5 0 -9 -35 -9 -79 0 -43 -3 -93 -7
-111 -5 -26 -3 -31 7 -25 8 5 11 3 8 -6 -3 -8 -11 -13 -17 -12 -6 2 -11 -2
-11 -7 0 -6 5 -10 12 -10 8 0 9 -26 4 -97 -4 -54 -9 -114 -9 -133 -1 -19 -6
-41 -11 -49 -6 -10 -5 -12 2 -7 7 4 12 5 12 3 0 -20 -64 -213 -79 -237 l-18
-31 2 41 c1 28 -2 43 -11 47 -8 3 -11 10 -8 15 4 6 9 6 14 -2 4 -7 13 -9 19
-6 6 4 9 11 6 16 -3 4 2 13 10 20 8 7 12 16 9 21 -3 5 0 17 6 28 8 16 6 22 -7
31 -17 11 -17 11 0 6 9 -3 17 -1 17 4 0 6 -6 10 -12 11 -10 0 -10 2 0 6 6 2
12 9 12 14 0 6 -4 7 -10 4 -16 -10 -12 12 5 29 8 8 18 29 21 46 6 25 4 29 -10
24 -9 -3 -16 -12 -16 -20 0 -8 -5 -14 -11 -14 -5 0 -8 -4 -4 -9 3 -5 1 -12 -5
-16 -5 -3 -10 -21 -10 -40 0 -38 -17 -82 -40 -105 -8 -8 -14 -30 -14 -50 2
-53 -5 -75 -29 -89 l-22 -14 20 23 c21 23 28 89 10 102 -6 4 0 20 14 39 13 17
18 28 11 24 -7 -4 -2 6 10 23 13 18 20 35 15 39 -4 5 -10 3 -12 -3 -2 -7 -13
-9 -25 -6 -19 5 -21 2 -15 -30 3 -20 2 -40 -3 -44 -14 -15 -23 -57 -11 -50 6
4 11 3 11 -3 0 -5 -4 -13 -10 -16 -6 -3 -10 -1 -10 5 0 6 -5 8 -10 5 -6 -4 -9
-1 -8 6 2 7 -3 13 -9 14 -14 0 -17 9 -10 28 4 9 8 9 15 -2 8 -11 12 -9 22 9 6
12 10 31 7 41 -7 24 36 74 54 63 8 -5 10 -2 6 8 -3 9 3 25 14 36 21 23 25 42
9 42 -5 0 -10 4 -10 10 0 5 6 7 14 4 14 -6 40 28 30 39 -7 6 15 49 29 58 5 4
5 9 -2 13 -6 4 -11 2 -11 -3 0 -6 -4 -11 -9 -11 -5 0 -7 8 -4 19 3 13 11 17
26 14 16 -3 18 -2 8 5 -9 7 -10 12 -2 16 6 4 11 13 11 19 0 8 -3 7 -9 -2 -5
-7 -14 -10 -21 -6 -9 6 -9 9 0 15 15 9 2 60 -16 60 -8 0 -14 9 -14 20 0 11 -4
20 -10 20 -13 0 -13 -23 1 -37 7 -7 7 -13 1 -17 -12 -7 -32 46 -32 85 0 15 -5
31 -10 34 -7 4 -9 -7 -6 -31 6 -45 -1 -59 -21 -43 -9 8 -5 -9 11 -45 14 -32
26 -65 26 -72 0 -17 -20 -19 -20 -1 -1 6 -10 30 -21 52 l-20 40 6 -37 c4 -27
2 -39 -9 -45 -14 -8 -14 -12 0 -37 10 -20 11 -33 4 -40 -7 -7 -10 -4 -10 9 0
10 -9 28 -19 39 -19 21 -19 22 2 109 21 84 38 110 45 67 2 -11 8 -18 13 -15 5
4 2 19 -6 36 -14 26 -14 31 -1 44 8 8 19 15 25 15 6 0 14 18 17 40 6 37 8 39
21 23 13 -17 14 -16 9 9 -3 15 -2 39 4 55 l10 28 -21 -25 -22 -25 6 26 c5 19
1 35 -15 55 -13 15 -18 25 -12 21 8 -4 11 9 10 42 0 27 -4 47 -8 44 -5 -2 -8
5 -8 17 0 12 4 18 10 15 6 -4 8 14 6 45 -3 40 -1 50 10 46 8 -3 11 0 8 8 -3 8
0 17 6 21 25 15 30 57 18 141 -8 53 -15 79 -20 70 -4 -8 -4 -26 2 -41 12 -32
13 -38 1 -31 -16 10 -51 86 -40 86 7 0 8 12 4 33 -23 115 -29 137 -37 125 -6
-10 -8 -10 -8 1 0 8 -2 12 -5 9 -3 -3 1 -23 9 -46 11 -30 12 -42 3 -45 -9 -3
-8 -8 2 -20 7 -10 10 -17 6 -17 -4 0 -2 -7 5 -14 8 -11 9 -20 1 -33 -8 -15
-10 -15 -14 -3 -9 25 -21 74 -22 90 -1 8 -5 29 -9 47 -6 25 -3 34 13 45 12 8
19 17 16 20 -5 5 -10 21 -22 78 -3 14 -11 32 -18 40 -7 8 -15 33 -19 55 -5 29
-4 36 3 25 8 -12 11 -7 11 21 0 19 -4 39 -9 45 -5 5 -12 79 -15 164 -9 229
-17 409 -21 462 -2 26 1 50 6 54 5 3 6 11 2 17 -4 7 -8 82 -9 167 -2 85 -3
211 -4 280 -1 69 -1 269 0 446 l1 321 26 12 c45 21 142 105 142 124 1 15 -13
7 -58 -32 -32 -28 -62 -51 -67 -51 -4 0 -16 -7 -26 -17 -10 -9 -21 -14 -24
-11 -3 3 37 37 88 76 52 39 96 65 99 60 4 -7 9 -6 14 2 4 6 5 14 1 17 -5 5 18
33 28 34 3 0 27 20 53 44 26 25 50 45 52 45 2 0 1 -46 -3 -102z m-2637 -133
c2 -2 -7 -6 -20 -9 -114 -23 -104 -24 194 -24 169 0 310 -1 312 -4 3 -3 7
-934 4 -1018 0 -8 0 -100 1 -204 1 -188 1 -190 -22 -202 -18 -10 -28 -9 -50 2
-66 34 -148 -7 -148 -76 0 -18 4 -29 10 -25 6 3 10 3 9 -2 0 -4 -39 -41 -86
-81 -78 -67 -89 -73 -118 -68 -75 14 -116 -34 -95 -110 12 -41 11 -43 -44
-128 -52 -80 -58 -86 -89 -86 -58 0 -85 -49 -61 -110 16 -39 16 -41 -17 -121
-28 -68 -39 -84 -66 -95 -40 -17 -55 -45 -55 -98 1 -29 7 -44 23 -57 21 -15
22 -21 15 -95 -11 -127 -15 -143 -46 -159 -35 -18 -41 -12 -34 39 6 40 -13
731 -22 811 -2 22 -3 198 -2 390 4 597 3 888 -2 1214 l-5 315 25 6 c26 6 382
1 389 -5z m1844 -30 c5 -10 29 -12 96 -8 94 6 290 -4 308 -15 7 -5 13 -201 17
-602 7 -741 15 -1198 21 -1270 3 -30 8 -84 11 -120 4 -36 4 -63 1 -60 -3 3
-23 40 -45 83 -22 42 -64 104 -92 137 -30 34 -46 60 -38 60 17 0 56 -39 72
-71 18 -37 35 -35 27 3 -16 70 -44 98 -98 98 -39 0 -190 149 -185 183 2 13 -8
38 -21 57 -22 33 -26 35 -82 35 -39 0 -73 7 -95 19 -78 41 -120 72 -120 88 0
26 -59 88 -83 88 -11 0 -31 -10 -43 -21 -19 -18 -30 -20 -68 -15 l-46 7 -2
267 c0 147 -2 278 -4 292 -3 25 -9 188 -19 501 -3 92 -7 175 -9 185 -2 11 -6
36 -10 56 l-7 37 158 4 c216 5 346 -2 356 -18z m-704 -1351 c7 -6 -83 -83 -98
-84 -7 0 -31 14 -52 31 -21 17 -44 29 -51 27 -6 -2 7 -19 30 -38 33 -26 39
-36 31 -47 -9 -9 -8 -13 0 -13 6 0 11 -5 11 -11 0 -7 -10 -9 -25 -7 -14 3 -28
1 -31 -3 -3 -5 -21 -9 -41 -9 -32 0 -35 2 -29 23 3 12 6 36 6 53 0 53 27 76
101 84 57 6 137 3 148 -6z m201 -55 c0 -11 -5 -30 -11 -42 -9 -16 -9 -22 0
-25 6 -2 11 -13 11 -24 0 -15 -4 -18 -17 -13 -10 4 -80 10 -155 12 -94 4 -138
9 -138 17 0 7 26 33 57 60 45 38 63 47 86 43 15 -2 30 0 33 5 10 15 48 8 72
-14 l25 -23 -12 22 c-16 31 -14 33 19 17 18 -10 30 -23 30 -35z m116 -5 c27
-15 64 -28 82 -29 46 -5 190 -74 212 -102 10 -13 25 -23 34 -23 9 0 21 -9 28
-21 7 -11 37 -34 65 -50 63 -36 159 -121 166 -148 4 -16 -1 -18 -42 -14 -71 6
-163 24 -197 38 -22 9 -33 23 -43 54 -6 23 -9 51 -6 61 3 11 1 28 -5 37 -8 14
-10 2 -8 -50 2 -37 2 -67 1 -67 -2 0 -26 18 -54 39 -56 42 -163 99 -244 130
-41 15 -50 23 -51 43 -1 14 -4 48 -8 76 -8 62 -2 64 70 26z m-696 10 c0 -14
-63 -124 -71 -124 -18 0 -24 -2 -36 -12 -10 -8 -13 -5 -13 10 0 26 -10 52 -20
52 -12 0 -19 -39 -7 -43 14 -4 16 -60 3 -69 -16 -11 -36 -10 -36 2 0 6 7 10
16 10 9 0 14 6 11 13 -2 6 -12 11 -21 11 -18 -2 -22 12 -4 18 6 2 11 24 11 51
-1 26 3 47 8 47 5 0 9 -8 10 -17 0 -14 2 -13 9 4 6 15 25 27 57 37 52 16 83
20 83 10z m531 -154 c30 -8 38 -16 43 -43 8 -40 0 -535 -10 -562 -3 -11 -49
-116 -101 -233 -52 -117 -92 -216 -89 -219 6 -7 145 272 171 345 10 28 23 52
27 52 5 0 7 -57 6 -127 l-3 -128 -84 -87 c-77 -80 -111 -104 -111 -78 0 6 -8
10 -18 10 -28 0 -30 6 -20 58 9 51 33 206 43 287 10 82 15 119 20 140 2 11 7
58 11 105 3 47 8 87 9 90 4 7 15 150 19 253 2 42 0 77 -5 77 -5 0 -10 -26 -10
-57 -1 -32 -3 -71 -4 -88 -2 -16 -6 -59 -9 -95 -3 -36 -8 -76 -10 -90 -2 -14
-7 -47 -11 -75 -8 -60 -10 -78 -29 -215 -8 -58 -20 -148 -26 -200 -23 -200
-19 -183 -46 -177 -13 2 -27 0 -30 -4 -13 -22 -35 -4 -59 49 -14 31 -36 75
-48 97 -22 39 -22 46 -22 479 0 301 3 440 10 442 54 21 306 17 386 -6z m-906
-12 c-19 -17 -28 -38 -35 -80 -15 -96 -17 -98 -113 -94 -87 4 -94 10 -59 50
20 21 129 106 138 106 3 0 17 9 31 20 14 11 34 20 45 20 17 0 16 -3 -7 -22z
m475 -190 c0 -214 -14 -262 -25 -83 -12 200 -14 220 -24 223 -6 2 -9 8 -5 13
3 5 0 9 -6 9 -9 0 -10 -26 -5 -97 4 -54 8 -123 11 -154 2 -30 10 -72 18 -91
19 -45 30 -178 14 -178 -6 0 -7 -5 -2 -12 5 -7 7 -57 4 -112 l-5 -98 -71 148
c-98 205 -109 245 -119 425 -2 48 -7 98 -10 111 -5 21 -2 27 22 36 57 22 124
42 143 42 10 0 22 5 25 10 3 6 13 10 21 10 12 0 14 -33 14 -202z m665 117
c237 -112 456 -317 554 -520 28 -58 51 -114 51 -125 0 -11 7 -31 15 -44 34
-52 57 -221 59 -426 l1 -195 -37 -117 c-63 -197 -80 -232 -193 -395 -83 -119
-183 -223 -281 -293 -86 -61 -173 -110 -196 -110 -8 0 -35 61 -68 153 -44 125
-54 166 -58 234 -6 132 1 130 108 -28 52 -77 98 -143 104 -146 11 -8 6 1 -64
107 -31 47 -76 118 -99 157 -42 71 -43 75 -47 178 -2 71 0 105 7 105 6 0 43
-31 83 -68 39 -37 116 -108 171 -157 55 -49 115 -103 133 -119 17 -16 32 -27
32 -24 0 5 -265 253 -399 374 -16 14 -32 112 -20 120 4 2 49 -24 101 -58 100
-66 397 -247 438 -267 52 -25 -13 20 -170 116 -85 53 -203 127 -262 166 l-108
70 0 43 c0 24 2 44 4 44 2 0 46 -14 96 -30 89 -29 550 -150 572 -150 6 0 9 2
7 5 -5 5 -228 68 -389 110 -86 22 -187 52 -277 80 -8 3 -13 23 -13 53 l0 49
73 7 c39 3 142 15 227 26 85 10 225 27 310 37 85 10 142 20 125 22 -16 2 -77
-2 -135 -8 -58 -6 -168 -18 -245 -26 -77 -8 -178 -19 -225 -25 -145 -17 -142
-18 -138 36 l3 45 200 80 c256 102 530 222 516 227 -5 2 -77 -24 -158 -58
-266 -112 -537 -220 -550 -220 -9 0 -13 18 -13 59 l0 60 117 98 c189 158 388
334 392 346 2 7 -5 5 -15 -4 -10 -9 -91 -76 -179 -150 -198 -166 -300 -249
-309 -249 -14 0 -5 147 13 197 13 38 14 50 5 42 -19 -16 -28 12 -19 59 4 20 7
151 6 290 -1 139 1 257 4 263 9 13 31 6 140 -46z m-901 -62 c3 -38 5 -93 5
-123 0 -30 7 -89 16 -130 9 -41 18 -94 21 -117 2 -23 8 -52 14 -65 9 -22 9
-22 9 5 1 24 21 41 21 17 0 -5 18 -46 40 -92 22 -46 40 -88 40 -94 0 -6 7 -18
16 -25 9 -7 21 -25 26 -39 13 -34 22 -150 12 -149 -5 0 -22 16 -38 36 -24 28
-27 36 -15 44 12 8 11 9 -2 7 -17 -3 -180 144 -197 178 -6 12 -13 63 -16 115
-2 52 -5 94 -6 94 -5 0 -10 71 -14 218 -5 146 -4 158 12 152 9 -3 13 -3 9 1
-9 9 12 34 28 34 9 0 15 -22 19 -67z m-116 -229 c1 -136 5 -251 9 -257 4 -6 1
-7 -7 -2 -9 6 -10 0 -5 -26 11 -47 12 -169 3 -169 -13 0 -103 47 -161 84 -86
55 -215 126 -229 126 -7 0 30 -25 82 -56 52 -31 106 -64 120 -74 14 -9 57 -34
95 -55 86 -45 93 -52 96 -90 2 -16 7 -35 12 -42 4 -6 3 -14 -3 -18 -15 -9 -12
-45 4 -45 8 0 18 -5 21 -10 8 -12 -82 -5 -121 10 -30 12 -363 99 -419 110 -36
7 -38 7 -20 -6 10 -8 25 -14 32 -14 13 0 93 -21 353 -92 63 -17 120 -35 126
-40 7 -5 12 -41 13 -82 l1 -74 -72 -6 c-40 -3 -163 -11 -272 -16 -182 -9 -217
-13 -205 -23 2 -2 121 2 264 10 143 7 266 11 273 8 9 -3 12 -24 10 -72 l-3
-68 -60 -18 c-204 -61 -441 -144 -433 -152 2 -2 100 27 218 66 118 38 230 72
248 75 l32 6 0 -96 c0 -88 -2 -96 -22 -107 -28 -15 -190 -134 -281 -207 -119
-94 -64 -68 80 39 162 120 193 143 211 153 11 7 13 -25 10 -172 l-3 -180 -30
-39 c-38 -47 -70 -97 -58 -90 4 3 26 30 48 61 22 31 43 56 46 56 3 0 9 -29 12
-64 7 -70 45 -176 83 -227 13 -18 22 -35 19 -37 -2 -3 -24 8 -47 24 -24 16
-47 29 -53 29 -5 1 -9 7 -7 15 2 8 0 12 -4 8 -27 -28 -282 209 -400 374 -61
83 -143 275 -128 299 2 4 0 10 -5 13 -22 14 -68 286 -49 286 5 0 6 5 2 12 -11
17 -6 219 6 276 14 64 48 166 76 230 13 29 24 56 24 61 0 5 8 19 18 32 10 13
24 42 30 65 7 22 21 52 33 65 11 13 28 36 37 52 9 15 20 27 24 27 4 0 8 6 8
14 0 7 27 41 60 74 33 34 60 65 60 69 0 5 19 22 41 38 90 66 144 104 149 105
3 0 6 -111 8 -246z m-368 145 c-6 -20 -6 -39 1 -50 5 -11 8 -23 5 -28 -3 -5 1
-14 9 -21 12 -10 13 -1 10 59 l-3 71 47 -1 c25 -1 56 -4 68 -7 21 -7 19 -11
-37 -67 -33 -33 -81 -91 -107 -130 -26 -38 -57 -81 -69 -95 -12 -14 -31 -50
-42 -80 -11 -30 -34 -85 -51 -122 -17 -37 -31 -74 -31 -82 0 -23 -38 -106 -49
-106 -14 0 -28 28 -34 68 -3 19 -8 36 -11 40 -9 9 -7 -72 3 -86 10 -17 -20
-100 -41 -116 -8 -6 -18 -24 -22 -39 -5 -23 0 -36 27 -70 51 -63 72 -108 55
-118 -7 -5 -16 -9 -20 -9 -4 0 -5 -6 -2 -14 3 -7 -4 -30 -16 -50 -19 -35 -19
-56 -1 -56 4 0 13 18 20 40 16 53 28 51 36 -7 3 -27 10 -66 15 -88 5 -21 7
-41 5 -43 -5 -6 -85 60 -85 70 0 4 -7 8 -15 8 -8 0 -15 -4 -15 -9 0 -5 -3 -16
-6 -25 -5 -13 -1 -15 22 -10 41 8 97 -45 118 -110 l16 -49 -51 7 c-34 5 -49 4
-44 -4 3 -5 19 -10 35 -10 33 0 77 -51 99 -115 8 -22 27 -60 42 -85 15 -24 27
-46 26 -47 -6 -5 -133 61 -140 73 -4 8 -22 14 -39 14 -25 0 -29 3 -25 20 3 11
1 23 -5 26 -5 3 -7 15 -5 26 3 12 -4 28 -19 43 -28 28 -31 50 -7 59 15 6 14 9
-7 19 -20 10 -26 21 -28 57 -2 25 -7 47 -11 50 -4 3 -12 30 -17 61 -8 46 -7
60 7 86 15 26 15 32 4 37 -15 6 -16 13 -16 106 0 96 11 163 32 183 11 10 19
24 19 33 0 8 7 17 15 20 8 4 12 11 8 18 -9 14 -14 31 -20 79 -6 45 8 67 31 48
8 -7 17 -8 20 -3 3 6 -4 12 -15 15 -16 4 -20 10 -14 24 4 10 10 30 13 45 2 15
11 33 19 39 11 10 15 8 20 -9 3 -12 10 -22 15 -22 5 0 6 4 3 10 -3 5 17 21 45
35 58 30 62 44 25 110 l-26 45 57 86 c31 47 62 88 70 91 8 3 11 9 8 14 -3 5 0
9 5 9 6 0 11 5 11 11 0 13 47 59 60 59 5 0 5 -13 0 -31z m1829 -28 c35 -1 68
-4 74 -8 6 -3 7 -42 4 -94 -3 -49 -2 -91 3 -94 10 -6 18 54 15 133 -1 34 1 62
4 62 8 -1 71 -85 71 -95 0 -4 14 -23 30 -42 57 -64 113 -204 83 -203 -5 0 -35
14 -68 30 -33 16 -64 30 -70 30 -12 0 36 -39 48 -40 7 0 99 -39 103 -44 1 0 5
-11 8 -23 5 -16 2 -23 -14 -28 -11 -4 -17 -11 -14 -17 4 -6 9 -5 15 3 4 7 12
10 16 5 10 -10 11 -126 1 -126 -5 0 -8 5 -8 11 0 5 -4 7 -10 4 -18 -11 -11
-33 9 -28 16 4 20 -2 24 -44 7 -59 4 -260 -5 -268 -3 -3 -2 -21 2 -40 10 -43
2 -162 -12 -189 -8 -15 -8 -21 1 -24 14 -5 16 -212 1 -212 -6 0 -15 11 -20 24
-5 13 -18 31 -30 39 -18 13 -20 19 -11 56 5 24 17 51 27 62 15 16 16 22 5 28
-11 7 -12 35 -6 137 9 164 -20 365 -71 494 -104 266 -131 310 -287 462 l-80
77 49 -18 c27 -10 78 -19 113 -20z m-1252 -595 c104 -111 144 -168 128 -184
-1 -2 -48 26 -104 62 -56 36 -105 66 -109 66 -5 0 -18 9 -30 20 -19 18 -22 31
-22 96 0 42 4 74 8 72 4 -1 62 -61 129 -132z m1621 57 c28 -108 47 -403 34
-498 -21 -146 -35 -215 -42 -215 -12 0 -18 112 -8 139 18 48 11 532 -8 604 -3
9 -1 17 3 17 5 0 15 -21 21 -47z m-1613 -194 c90 -49 152 -120 93 -106 -13 3
-49 11 -80 18 -45 9 -58 16 -58 31 0 10 -5 18 -11 18 -6 0 -9 -7 -5 -15 6 -18
3 -18 -46 -4 l-38 10 0 70 0 70 53 -35 c28 -20 70 -45 92 -57z m-89 -84 c27
-8 83 -23 124 -33 68 -16 75 -20 78 -43 3 -23 -1 -27 -35 -32 -21 -4 -57 -7
-80 -7 -39 0 -43 2 -43 26 0 15 -4 23 -10 19 -6 -4 -8 -15 -5 -25 6 -18 -17
-30 -62 -30 -21 0 -23 5 -23 54 0 30 -3 61 -6 70 -8 20 1 20 62 1z m461 -45
c59 -28 70 -75 33 -135 -28 -45 -57 -56 -110 -42 -35 10 -46 18 -58 46 -20 49
-2 105 41 131 40 25 44 25 94 0z m-261 -107 c3 -18 -7 -25 -74 -48 -42 -14
-95 -35 -117 -46 -62 -30 -73 -26 -73 24 -2 69 4 77 54 77 44 0 44 0 44 -35 0
-19 5 -35 11 -35 7 0 9 12 5 35 -7 38 -3 41 79 48 61 6 68 4 71 -20z m440 -44
c43 -18 53 -27 56 -50 3 -16 1 -29 -4 -29 -4 0 -31 16 -58 36 -28 20 -53 34
-56 32 -2 -3 20 -22 50 -43 53 -36 76 -72 76 -116 0 -28 -15 -23 -42 14 -14
17 -44 51 -67 74 -37 37 -42 46 -36 73 8 36 14 36 81 9z m-446 -34 c0 -24 -5
-35 -15 -35 -7 0 -18 -6 -22 -14 -4 -8 -39 -36 -78 -62 -38 -26 -78 -56 -87
-67 -9 -10 -22 -16 -27 -12 -6 3 -11 -1 -11 -9 0 -9 -4 -16 -10 -16 -6 0 -9
32 -9 78 1 77 1 77 9 24 11 -75 23 -80 15 -6 -7 60 -7 61 21 72 16 6 60 22 97
37 38 14 71 24 74 21 3 -3 12 1 20 9 21 21 23 19 23 -20z m441 -115 l69 -85 0
-90 0 -90 -90 180 c-49 99 -89 176 -89 172 -1 -5 -6 -5 -13 -1 -8 5 -6 10 8
14 25 10 33 2 115 -100z m-1585 20 c3 -19 12 -67 20 -107 14 -69 14 -75 -6
-112 -25 -50 -15 -87 27 -97 15 -3 34 -7 41 -10 17 -5 55 -91 56 -126 1 -16 6
-28 11 -28 13 0 35 -49 25 -55 -13 -8 -38 5 -44 23 -2 10 -4 4 -3 -13 2 -26 6
-30 34 -33 23 -2 39 -12 54 -33 l21 -30 -26 -28 c-18 -19 -26 -38 -26 -63 0
-50 20 -63 95 -61 l62 3 93 -94 c51 -52 97 -101 102 -110 5 -9 15 -16 22 -16
7 0 26 -12 41 -26 28 -25 28 -27 10 -40 -41 -30 -89 -2 -100 59 -10 49 -25 47
-25 -4 0 -31 6 -47 29 -70 31 -31 61 -36 106 -19 20 8 26 15 22 30 -3 12 0 20
6 20 18 0 210 -100 215 -112 2 -4 9 -5 16 -2 17 7 30 -26 16 -40 -7 -7 -17 -3
-31 13 -16 17 -24 20 -32 12 -17 -17 6 -47 32 -44 13 2 21 -3 21 -13 0 -12
-55 -212 -107 -386 -4 -15 -17 -18 -70 -18 -62 0 -64 -1 -74 -30 -6 -16 -15
-30 -20 -30 -15 0 -68 39 -123 90 -28 25 -44 37 -37 28 8 -11 9 -18 3 -18 -23
0 -195 177 -261 268 -101 142 -155 250 -192 390 -5 17 -14 49 -19 70 -13 45
-49 242 -56 297 l-4 40 20 -40 c22 -43 21 -29 -6 65 -17 58 -33 503 -20 554
l6 25 35 -22 c25 -16 36 -32 41 -57z m1308 -61 c-15 -57 -32 -131 -39 -164 -7
-33 -37 -139 -68 -235 -30 -96 -58 -191 -62 -210 -7 -37 -60 -211 -75 -245
-11 -24 -31 -103 -56 -212 -11 -46 -23 -83 -27 -83 -5 0 -6 -4 -3 -8 2 -4 -15
-88 -40 -186 -24 -98 -44 -189 -44 -201 0 -19 -7 -23 -47 -29 -25 -3 -48 -5
-50 -3 -1 2 8 31 21 65 13 34 27 76 31 94 3 18 44 146 90 283 74 220 128 397
181 585 8 30 26 89 40 130 14 41 40 134 58 205 28 108 72 263 92 324 3 10 8
11 15 4 8 -8 3 -41 -17 -114z m126 93 c0 -16 22 -91 49 -168 86 -247 100 -287
142 -414 22 -69 60 -179 84 -245 24 -66 58 -167 75 -225 39 -127 163 -474 196
-548 13 -29 24 -55 24 -58 0 -3 -14 -4 -31 -2 l-32 3 -68 200 c-38 110 -75
223 -83 250 -8 28 -41 129 -74 225 -33 96 -80 238 -106 315 -25 77 -63 194
-85 260 -22 66 -54 167 -71 225 -18 58 -41 124 -52 148 -20 46 -17 62 13 62
14 0 19 -7 19 -28z m-287 -61 c-3 -19 -26 -62 -54 -100 -27 -36 -66 -92 -86
-123 -42 -64 -55 -73 -47 -29 4 18 1 32 -6 36 -10 6 -11 1 -6 -18 3 -14 1 -29
-4 -32 -8 -5 -7 -11 1 -21 8 -10 8 -14 0 -14 -6 0 -11 -9 -11 -20 0 -11 -4
-20 -9 -20 -6 0 -10 35 -10 78 1 103 0 112 -8 112 -5 0 -6 -46 -3 -102 5 -93
-4 -168 -19 -168 -3 0 -5 46 -4 102 1 57 2 121 2 144 1 29 8 49 26 68 30 33
33 32 38 -1 4 -27 4 -27 6 4 1 26 12 40 59 77 31 25 59 41 60 36 2 -6 8 -10
13 -10 6 0 7 5 3 12 -4 6 5 21 22 34 26 22 29 22 35 6 3 -9 4 -32 2 -51z m237
-24 c0 -12 50 -167 110 -345 l109 -323 -27 -11 c-39 -16 -153 -22 -182 -9 -61
27 -116 78 -142 132 l-27 56 19 79 c10 43 31 113 45 154 28 81 47 152 65 243
11 55 30 70 30 24z m-235 -90 c-3 -54 -5 -58 -15 -27 -7 21 -8 21 -9 5 0 -11
3 -26 8 -33 9 -15 -15 -94 -52 -167 -69 -138 -70 -139 -78 -119 -4 10 -8 29
-8 42 -1 12 -5 22 -10 22 -5 0 -9 21 -8 46 0 39 2 44 12 30 7 -9 10 -27 7 -41
-6 -35 4 -31 21 8 8 17 22 49 32 70 26 59 11 55 -17 -4 -22 -44 -26 -48 -31
-29 -5 21 9 49 61 120 39 53 72 107 72 119 0 7 4 10 9 7 5 -4 8 -25 6 -49z
m1409 -37 c15 -24 20 -50 18 -89 l-2 -56 18 35 c15 32 17 33 20 12 2 -13 -1
-28 -6 -35 -5 -7 -12 -25 -16 -40 -4 -17 -12 -27 -19 -24 -8 3 -12 -8 -12 -33
-1 -48 -107 -226 -187 -313 -31 -34 -57 -65 -58 -68 0 -8 -186 -169 -239 -207
-24 -17 -47 -30 -51 -27 -4 2 -5 46 -4 96 3 92 3 93 36 118 37 28 170 160 208
207 39 49 90 122 90 129 0 4 16 30 36 58 20 27 42 66 49 86 7 20 20 50 29 66
9 17 16 35 16 41 0 25 32 85 43 81 6 -2 21 -19 31 -37z m-1418 -125 c-4 -14
-2 -25 2 -25 10 0 -7 -102 -32 -200 -19 -72 -104 -327 -116 -349 -14 -26 -63
143 -54 189 8 37 -1 39 -19 4 l-14 -27 -7 28 c-4 15 -5 30 -1 33 3 3 5 0 5 -6
0 -7 5 -12 10 -12 6 0 10 7 10 15 0 8 -4 15 -9 15 -5 0 -9 10 -10 23 -2 47 -6
67 -13 67 -15 0 -8 40 13 83 27 53 28 54 39 37 12 -19 13 -33 1 -25 -6 3 -8
-10 -5 -32 l5 -38 -16 25 c-19 29 -16 12 10 -59 9 -25 14 -55 11 -67 -10 -38
9 -35 23 3 8 22 10 38 3 42 -18 12 -22 46 -9 84 8 20 17 34 20 30 10 -9 9 -65
-1 -59 -5 3 -6 -8 -4 -25 5 -33 16 -38 27 -11 6 15 8 14 16 -7 5 -13 7 -26 4
-29 -3 -3 -5 0 -5 7 0 25 -18 0 -26 -36 -7 -38 -9 -49 -17 -131 -5 -52 9 -66
19 -17 3 19 10 37 14 40 5 3 11 24 15 47 4 22 12 55 19 72 12 34 13 57 2 96
-5 19 5 50 39 121 25 53 45 101 45 108 0 6 3 11 6 11 3 0 3 -11 0 -25z m-861
-89 c67 -33 85 -49 135 -126 23 -36 97 -119 164 -185 103 -102 136 -127 216
-169 51 -27 112 -55 134 -61 38 -12 41 -15 38 -46 -5 -52 -32 -129 -46 -129
-40 0 -206 83 -206 103 0 12 28 8 33 -5 3 -10 7 -10 19 0 9 7 32 13 52 14 23
1 43 9 58 25 l21 23 -21 0 c-12 0 -22 -4 -22 -10 0 -5 -7 -7 -15 -4 -8 4 -15
2 -15 -4 0 -16 -76 -32 -90 -18 -8 8 -13 7 -19 -3 -10 -16 -23 -10 -114 53
-111 78 -227 201 -227 240 0 9 -9 20 -20 26 -18 10 -84 103 -98 138 -4 12 1
14 29 8 19 -4 45 -10 58 -12 37 -8 42 -13 36 -42 -5 -23 -4 -22 9 7 9 18 14
37 11 41 -4 7 -95 23 -137 25 -18 0 -64 52 -54 62 3 3 1 14 -4 24 -11 20 -3
49 14 49 6 0 34 -11 61 -24z m2325 -188 c0 -212 -102 -529 -235 -734 -63 -98
-180 -219 -265 -276 l-54 -36 -14 36 c-7 20 -44 128 -82 238 l-68 202 25 11
c36 16 61 13 73 -9 13 -24 60 -50 91 -50 12 0 31 7 41 17 23 20 25 73 2 73 -8
0 -13 4 -9 10 3 5 12 7 20 3 10 -3 15 1 15 12 0 14 -6 16 -30 12 -22 -5 -30
-3 -30 8 0 16 106 112 185 166 54 38 54 38 91 23 41 -17 104 -11 104 9 0 7 3
28 6 47 5 32 3 37 -21 48 l-26 12 22 38 c13 20 37 56 53 78 17 23 43 63 58 88
15 25 32 46 38 46 6 0 10 -30 10 -72z m-1374 -95 c-3 -3 6 -21 21 -39 14 -19
23 -41 19 -49 -7 -18 2 -45 15 -45 6 0 5 9 -1 20 -9 16 -8 20 6 20 13 0 15 -7
9 -37 -4 -21 -10 -39 -13 -41 -21 -8 -36 -22 -29 -28 3 -4 13 -1 22 6 10 8 15
9 15 1 0 -6 -3 -11 -8 -11 -7 0 -25 -37 -37 -77 -3 -13 -12 -23 -18 -23 -22 0
-79 19 -103 35 -22 14 -23 16 -8 52 8 21 19 47 25 58 5 11 11 34 14 50 5 34
34 163 42 185 3 9 10 -2 20 -28 8 -24 12 -46 9 -49z m358 -139 c-42 -78 -162
-190 -181 -170 -5 5 64 86 134 154 13 13 23 27 23 31 0 13 -36 2 -57 -18 -10
-10 -25 -15 -33 -13 -12 4 -13 3 -2 -10 11 -13 9 -15 -14 -15 -18 0 -28 6 -31
18 -10 36 -33 19 -63 -44 -21 -44 -21 -49 -6 -66 22 -24 20 -40 -4 -38 -22 1
-27 13 -8 19 8 3 6 9 -4 19 -11 10 -13 20 -7 37 5 12 7 35 4 50 -2 15 -5 36
-7 47 -3 22 -5 22 74 11 45 -7 65 -5 92 8 18 9 43 17 55 19 12 2 27 9 33 15
26 26 28 -8 2 -54z m416 -111 l-5 -78 -45 0 c-25 0 -57 4 -72 8 -21 5 -28 4
-28 -7 0 -13 65 -28 123 -27 15 0 27 -3 27 -7 0 -13 -121 -75 -130 -66 -8 9
-50 132 -50 146 0 4 26 21 58 37 31 17 71 39 87 50 17 12 32 21 35 21 3 0 3
-35 0 -77z m-287 -140 c15 -42 26 -77 25 -79 -7 -6 -161 -34 -223 -39 -38 -4
-88 -10 -110 -14 -34 -6 -86 -6 -193 -2 -14 1 -26 10 -32 26 -5 14 -14 25 -20
25 -6 0 -26 11 -44 25 -18 14 -38 25 -45 25 -14 0 -11 61 4 66 6 3 44 -2 84
-11 105 -22 213 -19 349 10 64 14 128 29 142 34 14 5 27 9 30 10 3 1 18 -33
33 -76z m62 -194 c19 -59 113 -331 121 -354 3 -7 -164 -11 -486 -13 -269 -1
-490 1 -490 5 0 5 19 80 41 168 23 88 43 175 46 193 3 18 9 34 13 37 13 8 40
-6 33 -18 -3 -5 -1 -7 5 -3 6 3 18 -1 26 -10 9 -8 16 -11 16 -5 0 16 29 13 46
-3 24 -25 17 -46 -16 -46 -33 0 -40 -14 -12 -28 37 -20 90 27 77 68 -5 16 1
20 40 25 61 10 142 -5 137 -24 -2 -9 3 -9 17 -1 16 8 22 6 31 -9 8 -16 6 -22
-7 -30 -20 -11 -73 15 -73 36 0 7 -4 13 -10 13 -30 0 7 -71 43 -84 53 -18 105
37 71 75 -10 11 -15 21 -12 24 2 3 54 12 114 20 60 9 127 20 149 24 22 5 44 8
49 7 6 -1 19 -31 31 -67z m268 -411 c-2 -5 -8 -8 -13 -8 -5 0 -37 -13 -72 -29
-98 -45 -212 -78 -338 -96 -171 -24 -230 -36 -230 -48 0 -11 -116 -5 -370 20
-164 16 -166 17 -261 64 -129 64 -149 93 -74 101 63 7 1363 3 1358 -4z m-1418
-88 c28 -16 83 -39 121 -51 38 -11 73 -24 77 -29 5 -4 -53 -7 -129 -5 l-137 2
-2 57 c-2 33 1 56 7 56 6 0 34 -13 63 -30z"/>
<path d="M13260 7958 c0 -36 -1 -37 -27 -28 -16 4 -72 11 -125 14 l-98 5 0
-24 0 -25 131 0 130 0 16 -37 c8 -21 28 -54 44 -74 16 -20 29 -41 29 -45 1
-15 38 -59 45 -52 3 3 -1 22 -9 42 -8 20 -13 36 -10 36 2 0 -14 23 -36 51 -22
28 -43 62 -46 76 -4 14 -15 41 -25 61 l-18 37 -1 -37z"/>
<path d="M5376 7934 c-26 -18 -41 -23 -45 -15 -5 8 -14 4 -26 -11 -11 -13 -13
-17 -5 -10 8 6 18 12 24 12 12 0 -43 -58 -68 -72 -16 -9 -18 -8 -12 7 5 15 4
16 -9 5 -9 -7 -14 -19 -11 -26 5 -12 -94 -112 -150 -151 -16 -12 -43 -25 -58
-29 -22 -5 -25 -9 -14 -15 12 -7 13 -18 5 -61 -12 -66 -14 -811 -5 -1308 5
-206 9 -665 10 -1020 3 -572 0 -827 -17 -1400 -3 -115 -1 -156 8 -162 9 -6 9
-12 0 -28 -16 -25 -17 -101 -2 -97 8 1 12 -108 14 -378 1 -209 3 -388 4 -397
3 -25 21 -23 21 2 0 17 4 19 28 13 15 -5 91 -8 170 -7 79 0 137 -3 130 -7 -7
-4 91 -9 217 -11 127 -2 235 0 240 3 31 20 181 34 199 20 10 -8 17 -7 26 4 7
9 20 13 29 10 9 -2 36 -1 61 4 l45 9 -64 1 -65 1 31 33 c16 17 62 75 101 128
39 53 90 115 112 137 34 34 40 44 31 59 -10 17 -10 17 -11 1 0 -10 -5 -18 -11
-18 -7 0 -10 17 -7 45 2 25 -1 45 -6 45 -4 0 -3 6 3 14 8 10 9 16 1 21 -5 3
-10 12 -9 18 0 9 2 9 6 0 2 -7 9 -13 15 -13 8 0 5 90 -8 190 -1 14 -3 27 -3
30 0 3 -2 164 -5 358 -3 247 -1 350 6 346 14 -9 84 -160 98 -215 7 -24 45
-145 85 -269 41 -124 97 -299 126 -390 87 -280 166 -511 178 -523 21 -21 11
-27 -45 -27 -34 0 -53 -4 -49 -10 9 -14 561 -13 710 2 66 7 208 12 315 12
l195 1 20 -37 c25 -47 32 -48 27 -3 -2 19 1 42 8 50 10 12 9 15 -4 15 -23 0
-20 13 10 41 25 23 26 23 15 2 -19 -38 -12 -35 34 14 25 25 43 49 40 51 -3 3
2 13 11 23 12 13 25 16 51 12 26 -5 34 -3 29 6 -4 6 -12 9 -17 6 -5 -4 -18 -4
-29 0 -17 5 -18 9 -7 33 6 15 20 41 32 57 11 17 25 39 32 50 6 11 16 19 23 17
19 -4 3 48 -54 176 -29 64 -57 129 -61 142 -4 14 -16 45 -27 70 -26 56 -26 56
-94 225 -31 77 -69 174 -84 215 -16 41 -36 93 -45 115 -10 22 -32 83 -51 135
-18 52 -47 133 -64 180 -58 154 -88 244 -96 285 -4 22 -29 92 -57 155 -27 63
-60 142 -74 175 -13 33 -28 67 -33 76 -5 10 -4 21 3 28 8 8 8 11 -1 11 -7 0
-12 -4 -12 -10 0 -16 -20 -12 -27 6 -6 17 35 67 48 58 5 -3 9 -1 9 4 0 11 52
71 175 202 89 94 111 122 149 193 39 75 6 49 -44 -34 -50 -83 -101 -152 -107
-146 -2 3 17 35 42 73 26 38 63 99 83 136 37 67 55 87 45 48 -3 -11 0 -20 5
-20 11 0 32 61 38 114 2 15 15 58 28 95 26 74 43 184 51 341 3 58 8 143 12
190 12 172 9 265 -12 380 -8 46 -27 113 -35 125 -4 6 -13 33 -20 60 -7 28 -16
55 -20 60 -4 6 -17 34 -29 64 -17 40 -20 56 -11 61 7 4 9 13 6 19 -4 6 -12 8
-18 5 -7 -5 -8 -2 -4 5 8 13 -40 114 -78 163 -12 15 -31 41 -43 57 -27 35 -29
43 -6 34 11 -4 14 -3 9 6 -5 7 -14 10 -21 7 -8 -3 -19 3 -27 11 -11 15 -11 16
5 10 46 -17 -51 84 -153 160 -96 72 -364 208 -456 232 -23 6 -47 18 -54 27 -9
10 -15 11 -20 4 -4 -7 -46 -1 -131 21 -182 46 -392 69 -564 62 -153 -6 -861
-10 -845 -5 12 4 14 22 2 22 -4 0 -25 -12 -46 -26z m349 -34 c110 -5 307 -6
439 -1 131 4 268 4 305 -1 36 -4 86 -10 111 -12 25 -3 78 -16 118 -29 39 -14
72 -20 72 -16 0 5 8 9 18 8 11 0 12 -2 4 -6 -18 -7 4 -33 27 -33 21 0 153 -45
194 -66 15 -9 33 -14 39 -12 5 2 -11 14 -36 26 -42 21 -67 42 -50 42 14 0 131
-43 192 -71 35 -16 64 -29 66 -29 6 0 202 -115 229 -135 71 -51 130 -112 173
-183 26 -42 58 -90 69 -107 26 -35 48 -95 35 -95 -4 0 -10 6 -13 13 -2 6 -7 9
-11 6 -4 -4 5 -17 19 -30 13 -13 25 -30 25 -37 0 -24 25 -92 34 -92 4 0 6 -6
3 -14 -3 -8 -2 -16 3 -18 5 -2 10 -15 12 -29 2 -15 10 -34 18 -43 13 -16 38
-112 62 -236 29 -154 28 -480 -1 -480 -15 0 -20 29 -11 57 17 50 19 146 4 176
-9 16 -10 27 -4 27 21 0 9 30 -12 31 -13 0 -18 3 -11 5 7 3 9 12 6 21 -4 10
-17 -3 -45 -46 -21 -34 -42 -61 -47 -61 -13 0 -18 67 -6 83 5 7 16 12 23 10
18 -7 16 63 -2 70 -9 4 -16 -1 -19 -11 -3 -15 -5 6 -9 103 0 16 -7 35 -14 42
-11 11 -12 0 -9 -67 2 -45 7 -86 11 -92 4 -6 3 -8 -4 -4 -7 4 -12 -7 -14 -31
l-4 -38 -12 29 c-7 16 -14 60 -15 98 -1 37 -5 68 -8 68 -4 0 -12 27 -19 60 -7
33 -17 63 -21 66 -5 3 -9 12 -9 20 0 27 -67 158 -124 244 -31 47 -56 90 -56
98 0 7 -4 11 -9 7 -6 -3 -14 3 -20 12 -6 10 -11 14 -11 10 0 -5 -34 23 -77 63
-138 129 -288 221 -458 280 -71 25 -112 36 -260 70 -220 51 -498 60 -995 31
-96 -5 -256 -12 -355 -16 -163 -5 -178 -4 -160 10 59 45 178 148 235 202 76
73 47 69 385 53z m630 -289 c275 -32 399 -61 594 -140 68 -28 140 -63 160 -79
20 -15 62 -45 93 -66 60 -39 184 -169 211 -221 8 -16 32 -47 52 -67 20 -21 34
-42 31 -47 -4 -5 0 -13 7 -18 26 -15 58 -94 94 -231 19 -75 39 -159 43 -185 5
-26 12 -56 15 -66 10 -32 14 -81 6 -81 -4 0 -8 -19 -9 -42 0 -24 1 -37 4 -30
3 6 10 12 15 12 6 0 8 -84 5 -222 -6 -255 -8 -288 -18 -288 -3 0 -4 -8 -1 -18
2 -10 -1 -31 -8 -47 -7 -17 -14 -37 -15 -45 -5 -40 -13 -70 -23 -88 -6 -12
-11 -28 -11 -38 0 -29 -80 -205 -132 -292 -55 -92 -123 -155 -282 -263 l-89
-61 -20 24 -19 23 16 -27 c21 -35 12 -54 -33 -76 l-36 -17 34 -5 c31 -5 36
-11 73 -95 65 -146 157 -373 188 -465 16 -47 54 -143 86 -215 79 -182 125
-297 120 -302 -5 -6 -29 36 -169 297 -63 118 -141 262 -172 320 -31 58 -88
167 -126 243 -66 131 -234 439 -304 557 -43 73 -205 369 -205 375 0 3 5 5 11
5 26 0 102 121 133 212 40 112 53 215 49 373 -4 154 -18 224 -65 325 -38 81
-83 136 -156 191 -79 60 -84 66 -28 36 29 -16 43 -21 35 -11 -7 8 -33 26 -58
39 -39 20 -42 24 -21 24 14 0 44 -8 68 -19 23 -10 42 -17 42 -14 0 11 -87 44
-115 44 -16 0 -54 9 -83 20 -75 29 -161 27 -357 -8 -36 -7 -42 -10 -20 -11
l30 -1 -2 -675 -1 -675 26 -7 c37 -9 249 13 303 32 24 9 77 34 117 56 40 22
77 37 81 34 5 -3 48 -78 94 -168 47 -90 100 -187 117 -217 18 -30 102 -188
187 -350 86 -162 201 -376 257 -475 57 -99 156 -279 221 -400 65 -121 126
-231 135 -245 10 -14 35 -68 55 -120 20 -52 65 -167 100 -255 35 -88 66 -171
70 -185 6 -25 6 -25 -11 -5 -9 11 -23 35 -31 54 -41 96 -461 924 -556 1098
-30 54 -120 225 -201 381 -81 155 -150 282 -152 282 -5 0 13 -46 29 -72 8 -13
70 -131 137 -263 68 -132 150 -289 182 -350 32 -60 161 -315 287 -565 126
-250 271 -536 321 -635 133 -258 130 -253 130 -268 0 -12 -28 -14 -159 -12
-88 2 -164 6 -170 9 -5 4 -7 14 -4 24 9 22 35 42 47 35 5 -4 6 -1 2 5 -4 7 3
17 18 24 14 6 26 15 26 19 0 13 -52 -10 -66 -29 -11 -14 -12 -12 -2 13 7 20
24 36 51 49 23 11 36 21 29 24 -7 2 -24 -3 -37 -12 -22 -14 -25 -14 -25 -1 0
8 11 22 25 31 28 18 33 34 10 34 -8 0 -15 -5 -15 -11 0 -5 -5 -7 -10 -4 -6 4
-8 15 -5 24 3 11 -13 53 -40 104 -25 47 -45 88 -45 90 0 3 14 10 30 17 18 8
30 20 30 31 0 25 -18 24 -46 -2 -25 -23 -44 -18 -44 11 0 10 -4 21 -8 24 -5 3
-21 36 -36 75 -31 80 -78 128 -148 156 -38 14 -72 16 -199 13 -186 -4 -217
-15 -257 -93 -14 -26 -28 -43 -30 -37 -2 7 -10 12 -18 12 -28 0 -36 -51 -31
-180 5 -113 10 -138 52 -270 49 -153 66 -190 90 -190 7 0 17 -5 20 -10 4 -6
-13 -10 -43 -10 -46 0 -50 2 -56 28 -11 44 -153 475 -171 518 -9 21 -32 91
-50 154 -19 63 -53 174 -76 245 -77 244 -117 390 -123 450 -4 33 -10 63 -15
68 -4 4 -4 -14 0 -40 14 -87 7 -96 -27 -35 -63 110 -74 155 -78 313 -2 82 -1
149 3 149 4 0 13 -6 20 -12 10 -11 12 -9 9 7 -2 14 -13 21 -32 23 l-29 4 6
-127 c8 -150 2 -154 -58 -44 -40 73 -147 199 -170 199 -6 0 -17 17 -23 38 -7
21 -27 56 -46 78 l-34 39 -96 -1 c-107 -1 -120 -7 -158 -76 -12 -21 -26 -38
-31 -38 -5 0 -7 -7 -3 -15 3 -9 -3 -30 -14 -48 -31 -51 -23 -144 16 -174 19
-14 44 -6 44 13 0 12 21 15 115 13 93 -1 115 -4 115 -16 0 -10 9 -13 27 -11
25 3 29 9 37 51 4 26 12 47 17 47 10 0 12 -161 10 -1085 l-2 -680 -145 -3
c-108 -2 -150 1 -162 10 -12 10 -16 10 -19 1 -8 -24 -23 -13 -23 15 0 40 -47
106 -89 128 -45 22 -287 33 -357 15 -53 -14 -144 -76 -144 -99 0 -15 2 -15 10
-2 6 9 10 10 10 3 0 -6 -5 -15 -10 -18 -6 -4 -10 -16 -8 -27 2 -12 -1 -23 -7
-25 -7 -2 -9 143 -8 425 l1 429 126 249 c69 137 153 299 186 359 33 61 79 146
101 190 23 44 50 93 61 108 11 16 18 30 15 33 -10 10 -236 -395 -391 -703
-109 -216 -108 -214 -100 -128 8 78 28 125 132 300 36 61 86 148 112 195 86
155 203 357 395 680 51 85 126 214 167 285 42 72 86 147 98 168 33 56 18 45
-27 -20 -47 -67 -74 -111 -275 -448 -83 -137 -171 -284 -196 -325 -25 -41
-121 -208 -213 -370 -92 -162 -175 -304 -183 -315 -15 -19 -16 -15 -17 60 -2
124 0 515 6 1305 3 399 6 763 6 810 0 47 0 110 0 140 0 30 0 66 0 80 1 14 -2
174 -6 355 -4 182 -8 454 -9 605 -2 151 -5 281 -7 289 -6 22 39 29 126 19 76
-9 294 -4 540 11 226 15 474 12 650 -8z m-25 -816 c59 -12 102 -40 171 -112
151 -156 199 -304 186 -573 -9 -175 -46 -292 -102 -319 -59 -29 -161 -51 -232
-51 -71 0 -80 4 -73 35 9 38 -5 954 -16 1004 -6 29 -5 33 12 28 10 -3 35 -9
54 -12z m1515 -401 l1 -93 -23 15 c-20 13 -23 13 -23 -1 0 -8 3 -15 8 -15 4 0
6 -30 4 -66 -2 -41 0 -64 6 -60 6 3 13 -1 16 -10 10 -25 7 -34 -9 -34 -15 0
-23 -24 -23 -68 -1 -13 -9 -30 -19 -37 -10 -7 -14 -17 -10 -21 4 -5 12 -2 17
6 12 20 23 6 15 -19 -4 -13 -15 -21 -28 -21 -16 0 -18 3 -8 9 7 5 9 11 4 14
-13 8 -15 67 -2 67 5 0 9 7 9 16 0 8 -3 13 -7 11 -12 -8 -10 97 2 106 7 4 7
10 0 15 -5 4 -11 53 -13 108 -2 99 -2 102 23 118 14 9 31 28 37 42 18 38 23
19 23 -82z m-1770 -33 c3 -11 5 -66 3 -122 -2 -80 0 -103 11 -107 8 -3 11 0 7
6 -3 6 -1 14 5 17 7 5 10 -3 9 -21 -3 -44 -1 -64 8 -64 4 0 8 20 9 43 3 38 0
45 -23 55 -14 7 -23 16 -20 21 11 17 55 -13 62 -41 3 -16 9 -28 14 -28 12 0 8
43 -5 53 -6 4 -5 10 4 16 8 5 18 29 21 53 l7 43 2 -47 c1 -28 -4 -49 -11 -52
-10 -5 -10 -7 0 -12 10 -5 10 -9 0 -22 -11 -14 -10 -15 6 -9 15 6 17 5 7 -7
-9 -10 -9 -15 -1 -18 7 -2 3 -12 -10 -23 -13 -12 -20 -14 -18 -6 2 7 -2 15 -8
18 -6 2 -11 -12 -12 -37 -1 -22 0 -40 3 -40 13 0 43 35 38 44 -3 6 0 6 7 -1
10 -9 10 -15 -4 -28 -9 -9 -16 -21 -16 -27 0 -5 -7 -8 -15 -4 -12 4 -15 -4
-15 -39 0 -27 5 -45 11 -45 7 0 8 -4 2 -12 -5 -7 -6 -29 -3 -48 5 -31 7 -33
16 -16 11 17 11 17 17 -3 3 -15 0 -21 -10 -21 -12 0 -14 -8 -10 -35 3 -19 2
-37 -3 -40 -13 -8 13 -53 28 -47 8 3 3 -6 -10 -19 -12 -13 -47 -51 -75 -82
-38 -42 -53 -53 -54 -40 -5 139 4 661 12 693 1 3 0 10 -1 15 -1 6 -3 31 -3 58
-2 48 7 62 18 28z m1091 -1477 c7 -28 26 -77 43 -110 95 -184 165 -343 156
-353 -3 -2 -7 4 -11 13 -3 9 -10 16 -14 16 -5 0 -3 -11 3 -25 7 -14 17 -25 24
-25 6 0 15 -5 19 -12 4 -7 3 -8 -4 -4 -7 4 -12 2 -12 -3 0 -6 8 -11 18 -12 11
0 12 -2 4 -6 -10 -4 -10 -8 -1 -19 9 -11 9 -14 -1 -14 -9 0 -7 -7 5 -20 12
-13 14 -20 5 -20 -9 0 -9 -4 -2 -12 6 -7 25 -49 42 -93 18 -44 37 -91 43 -105
6 -14 11 -27 12 -30 7 -22 20 -53 40 -100 13 -30 33 -86 45 -125 21 -68 61
-161 101 -238 11 -20 33 -77 49 -125 15 -48 41 -116 58 -152 16 -36 35 -80 42
-97 7 -18 16 -33 21 -33 4 0 -3 24 -15 53 -13 28 -35 86 -49 127 -14 41 -29
84 -33 95 -7 18 -6 19 11 5 17 -14 18 -14 6 8 -6 12 -16 22 -22 22 -5 0 -23
30 -40 68 -17 37 -46 99 -64 137 -19 39 -37 81 -39 95 -6 30 -49 149 -66 180
-7 13 -16 36 -21 52 -7 26 -6 29 9 24 14 -5 14 -4 -2 8 -24 19 -47 64 -36 71
4 3 11 0 13 -5 3 -6 4 -5 3 2 -2 7 -11 12 -21 10 -10 -2 -14 1 -10 8 4 6 0 21
-7 33 -23 36 -52 147 -38 147 6 0 29 -58 56 -139 2 -8 7 -12 10 -9 8 9 -26 99
-76 198 -26 52 -55 119 -64 148 -14 50 -14 53 2 50 9 -2 16 -10 14 -17 -1 -7
2 -19 8 -26 6 -8 13 -26 15 -42 4 -33 41 -123 51 -123 3 0 4 7 0 15 -3 8 -1
15 4 15 6 0 10 5 10 10 0 6 -7 10 -16 10 -12 0 -15 6 -10 26 5 18 3 24 -5 18
-8 -4 -9 -3 -5 5 4 6 1 23 -8 36 -9 13 -16 36 -16 49 0 23 -27 94 -41 106 -3
3 -33 61 -67 130 -34 69 -67 130 -72 137 -6 7 -4 13 4 16 9 4 24 -13 40 -43
52 -95 96 -185 96 -197 0 -6 4 -13 9 -15 4 -1 27 -44 49 -95 23 -50 65 -139
94 -198 43 -88 50 -108 38 -115 -10 -6 -11 -10 -3 -10 20 0 36 39 24 54 -20
24 -91 176 -100 214 -5 20 -10 42 -12 47 -2 6 0 12 5 15 8 5 28 -27 71 -121
24 -54 77 -131 89 -130 3 1 5 -2 4 -5 -2 -3 5 -10 15 -15 9 -6 17 -15 17 -21
0 -7 9 -22 21 -34 24 -26 72 -124 60 -124 -13 0 -51 40 -51 54 0 12 -82 87
-104 95 -6 2 10 -18 37 -44 26 -26 47 -53 47 -60 0 -8 14 -23 31 -35 17 -13
28 -28 25 -36 -3 -8 -1 -14 5 -14 6 0 8 -4 5 -9 -3 -5 1 -14 9 -21 12 -10 13
-8 10 9 -2 12 -7 26 -11 33 -4 6 -3 8 3 5 6 -4 25 -44 43 -89 17 -46 36 -92
40 -103 5 -11 18 -45 28 -75 11 -30 37 -91 57 -135 20 -44 46 -100 57 -125 11
-25 26 -58 34 -74 17 -36 19 -70 2 -60 -7 4 -8 3 -4 -5 4 -6 11 -9 16 -6 10 6
40 -57 40 -83 0 -13 -3 -12 -15 4 -12 16 -12 13 1 -21 16 -40 43 -78 31 -42
-4 10 -3 16 2 13 5 -3 11 -15 14 -26 3 -12 1 -18 -5 -14 -6 4 -8 1 -6 -7 3 -8
11 -13 17 -11 7 1 10 -2 7 -7 -3 -5 1 -14 9 -21 8 -7 15 -22 15 -33 0 -21 0
-21 -18 -1 -10 10 -40 56 -67 101 -27 45 -51 80 -53 78 -6 -6 78 -156 101
-182 11 -13 26 -23 34 -23 7 0 13 -2 13 -5 0 -8 -52 -87 -68 -104 -17 -17 -91
-123 -119 -169 l-21 -35 -16 38 c-9 21 -18 47 -20 59 -2 11 -14 43 -25 70 -16
36 -19 51 -10 57 8 4 6 10 -7 17 -10 6 -16 14 -12 17 4 4 -10 39 -30 79 -20
39 -38 79 -40 89 -2 9 -14 39 -27 66 -14 27 -30 73 -36 102 -7 30 -20 72 -30
95 -11 22 -19 46 -19 52 0 7 -4 12 -10 12 -5 0 -10 8 -10 18 0 10 -4 22 -9 27
-12 13 -92 214 -96 240 -1 11 -14 45 -28 75 -14 30 -38 84 -52 120 -14 36 -33
79 -41 97 -8 17 -14 34 -14 38 0 4 -6 21 -14 38 -24 55 -76 196 -76 208 0 8 4
8 14 0 11 -9 10 0 -4 36 -12 32 -24 48 -35 47 -12 -2 -13 1 -5 11 9 11 -1 36
-39 106 -28 50 -51 95 -51 100 0 5 -3 9 -8 9 -14 0 -65 128 -58 147 11 27 29
8 42 -43z m-1241 -115 c9 -17 15 -32 13 -34 -5 -4 -258 -15 -258 -11 0 2 7 20
15 40 l15 36 100 0 99 0 16 -31z m65 -56 c0 -9 -4 -30 -10 -47 -5 -17 -12 -43
-15 -58 -3 -18 -14 -29 -36 -37 -44 -15 -271 -15 -287 1 -14 14 -16 70 -3 84
5 5 11 18 13 28 3 17 15 19 152 22 87 2 153 7 159 13 16 16 27 13 27 -6z m185
-860 c1 -21 5 -63 9 -93 3 -30 8 -88 11 -129 2 -41 10 -79 16 -85 8 -8 9 4 4
44 -4 30 -7 86 -7 123 1 38 -3 79 -8 93 -6 14 -6 33 0 46 5 13 9 21 10 18 4
-11 8 -49 14 -120 4 -41 12 -122 18 -178 9 -86 9 -105 -2 -112 -11 -7 -12 -14
-2 -35 16 -35 15 -58 -1 -52 -10 4 -13 -2 -9 -19 2 -14 0 -24 -7 -24 -6 0 -11
9 -11 20 0 11 -4 20 -8 20 -5 0 -7 -19 -5 -42 2 -24 6 -87 9 -140 l6 -98 19
24 c11 13 19 28 19 33 0 4 -4 2 -8 -5 -6 -8 -9 0 -8 20 0 37 -9 97 -19 127 -3
11 -1 22 5 26 6 3 10 -3 10 -17 0 -35 11 -68 22 -68 6 0 7 11 4 25 -4 14 -2
25 3 25 5 0 11 -32 13 -71 l3 -71 -64 -76 c-64 -78 -90 -100 -77 -66 9 23 9
383 0 613 -5 131 -4 172 5 167 6 -4 11 -30 10 -59 0 -29 2 -124 5 -212 3 -88
8 -227 10 -308 3 -82 7 -151 9 -154 15 -14 17 56 7 217 -6 99 -8 200 -5 223 4
23 2 61 -3 85 -6 23 -7 42 -3 42 5 0 0 116 -10 215 -4 34 1 79 7 72 3 -3 7
-23 9 -44z m-56 -438 c5 -171 6 -312 2 -315 -4 -3 -7 -41 -6 -84 0 -69 -3 -83
-25 -112 -26 -35 -46 -45 -36 -18 3 9 6 22 6 30 0 8 6 14 14 14 11 0 16 20 20
83 3 45 6 98 8 117 1 19 1 73 -1 120 -5 115 -2 485 4 479 2 -3 9 -144 14 -314z
m1226 95 c36 -34 65 -79 65 -99 0 -5 -13 -3 -30 5 -39 20 -390 25 -413 6 -12
-10 -15 -6 -20 25 -4 21 -9 50 -13 65 -8 35 -2 37 203 35 l172 -2 36 -35z m29
-120 c27 -10 35 -22 65 -98 l20 -51 -245 4 c-134 2 -249 7 -255 11 -8 4 -9 25
-5 59 10 92 -5 85 206 85 104 0 200 -4 214 -10z m-509 -151 c17 -7 33 -18 38
-24 4 -6 10 -5 15 3 7 10 29 11 111 3 157 -17 374 -14 418 4 20 8 37 14 37 13
1 -2 14 -20 29 -40 45 -60 73 -158 46 -158 -6 0 -20 -12 -32 -26 -16 -21 -27
-25 -53 -22 -38 4 -48 -16 -14 -27 24 -8 58 9 87 43 l23 27 0 -28 c0 -39 -14
-62 -54 -86 -39 -24 -83 -27 -130 -7 -38 16 -240 13 -317 -5 -77 -17 -149 5
-172 54 -8 18 -22 59 -32 92 -9 33 -23 70 -31 83 -19 30 -27 121 -11 118 7 -2
26 -9 42 -17z m-1325 -268 c24 -7 25 -10 21 -66 -1 -33 -4 -62 -6 -63 -2 -2
-12 5 -23 16 -15 15 -40 22 -94 27 -108 10 -294 3 -310 -12 -10 -10 17 -13
133 -14 79 0 164 -4 189 -8 31 -6 -13 -9 -140 -10 -102 0 -190 3 -197 7 -17
11 -4 58 24 86 14 14 44 29 66 35 49 10 300 12 337 2z"/>
<path d="M6465 5018 c-48 -57 -52 -94 -19 -206 17 -59 40 -77 61 -45 9 14 21
19 38 15 14 -2 25 -8 25 -12 0 -5 -9 -6 -20 -3 -11 3 -20 1 -20 -5 0 -7 41
-11 114 -11 108 -1 115 0 129 22 24 37 14 103 -28 177 -52 95 -61 100 -165
100 -87 0 -89 0 -115 -32z m225 -18 c16 -19 29 -38 30 -42 0 -5 -49 -8 -109
-8 -61 0 -112 3 -114 8 -3 4 -1 16 3 27 6 17 19 21 91 26 l84 5 -90 3 c-64 2
-84 5 -70 12 11 5 48 7 83 6 57 -3 65 -6 92 -37z m-230 -66 c0 -8 5 -14 10
-14 6 0 10 3 10 8 0 4 58 6 130 4 l130 -3 10 -40 c14 -51 -1 -85 -33 -73 -19
7 -120 9 -216 5 -31 -1 -32 0 -42 46 -4 21 -11 51 -15 67 -5 21 -4 27 5 22 6
-4 11 -14 11 -22z"/>
<path d="M8404 7949 c-2 -3 33 -9 77 -12 44 -3 83 -8 87 -11 3 -4 -39 -52 -94
-109 -55 -56 -114 -119 -132 -140 -21 -25 -38 -37 -48 -33 -13 5 -15 -62 -11
-591 3 -329 1 -626 -4 -661 -5 -36 -5 -70 0 -80 4 -9 11 -45 15 -79 6 -56 5
-63 -19 -89 -29 -31 -30 -37 -10 -54 29 -24 27 -47 -9 -86 -19 -21 -50 -45
-68 -53 -34 -17 -48 -51 -30 -74 15 -18 -36 -73 -76 -82 -73 -15 -80 -56 -20
-113 l42 -40 -37 -48 c-20 -26 -37 -55 -37 -65 0 -10 19 -33 41 -51 73 -58 90
-79 78 -94 -14 -17 8 -55 45 -79 22 -14 27 -14 60 2 55 26 63 11 41 -82 -15
-62 -16 -78 -5 -85 16 -10 7 -26 -47 -73 -43 -39 -53 -63 -32 -84 7 -7 3 -16
-15 -31 -32 -24 -33 -46 -4 -66 15 -11 26 -12 39 -6 26 15 36 12 59 -12 20
-22 20 -24 15 -858 -3 -459 -8 -851 -12 -870 -3 -19 -6 -39 -5 -43 2 -4 4 -71
7 -148 l4 -139 -37 0 c-28 0 -33 -3 -22 -10 8 -5 25 -10 38 -10 12 0 22 -5 22
-11 0 -6 -16 -9 -40 -8 -21 2 -42 0 -46 -4 -4 -4 16 -7 44 -7 34 0 52 -4 53
-12 1 -7 2 -20 3 -28 2 -8 3 -27 4 -42 1 -16 7 -28 13 -28 8 0 10 17 6 53 -3
30 -2 58 1 63 4 5 97 9 207 10 714 4 893 4 1000 -1 66 -3 203 -7 305 -10 l185
-3 -155 10 c-232 16 -157 30 150 27 259 -2 680 8 688 16 3 3 -1 11 -8 20 -9
11 -10 15 0 15 6 0 20 -10 29 -22 10 -12 23 -18 30 -14 8 5 5 13 -11 26 l-23
19 45 -1 c38 -1 40 -2 11 -5 l-33 -4 23 -17 c23 -16 37 -16 32 0 -2 4 12 5 30
2 30 -6 31 -6 12 9 l-20 16 20 -1 c11 0 41 3 67 6 28 4 56 2 68 -4 11 -6 26
-7 33 -3 12 8 17 9 37 12 6 0 10 6 10 11 0 6 -16 10 -35 10 -35 0 -50 19 -17
21 17 2 -39 10 -147 23 -30 3 -59 10 -66 16 -6 5 -43 7 -83 5 -60 -4 -72 -2
-72 11 0 13 9 15 53 10 95 -11 365 -16 320 -6 -39 8 -174 21 -217 21 -10 0
-15 3 -11 7 4 4 25 7 48 8 178 2 227 5 227 12 0 8 -190 16 -359 14 -70 -1 -91
2 -82 11 6 6 29 11 51 12 21 0 42 4 46 8 4 4 28 7 53 7 32 0 42 -3 31 -10 -26
-16 -6 -19 65 -10 39 5 101 12 138 16 38 3 67 7 65 9 -2 2 -28 6 -58 9 -30 3
-69 9 -86 12 -18 3 -75 7 -128 8 -52 1 -98 5 -101 8 -4 3 7 15 24 27 105 75
245 328 311 561 12 41 25 86 30 100 5 14 12 43 15 65 3 22 10 56 15 75 5 19
19 89 31 155 12 66 26 130 31 142 6 11 7 26 4 32 -4 6 -2 11 5 11 8 0 8 4 -1
15 -10 12 -10 15 0 15 23 0 -1 305 -40 507 -12 59 -23 120 -25 136 -6 47 -26
98 -61 156 -19 31 -34 61 -34 67 0 20 -94 157 -160 233 l-62 73 26 27 c14 15
26 30 26 35 0 4 20 27 45 52 25 24 45 49 45 54 0 6 7 22 16 35 19 29 11 60
-22 81 -28 19 -29 25 -10 67 51 117 73 233 112 592 3 22 7 58 10 80 11 99 2
327 -16 350 -4 6 -10 25 -13 43 -6 30 -5 33 13 27 11 -4 20 -2 20 4 0 5 -9 12
-19 16 -10 3 -22 16 -25 28 -10 37 -6 43 9 17 10 -17 14 -20 15 -9 0 9 -9 28
-21 43 -11 14 -18 26 -15 26 3 0 -2 17 -10 37 -9 20 -17 44 -19 52 -11 56 -29
109 -44 126 -27 30 -37 50 -21 40 18 -11 -21 54 -77 128 -47 62 -44 68 14 36
25 -14 31 -15 18 -4 -11 9 -41 27 -66 40 -26 13 -74 52 -108 85 -62 63 -83 76
-249 161 -52 26 -99 54 -105 62 -7 7 -75 28 -152 47 -77 18 -160 38 -185 46
-97 28 -185 37 -425 41 -388 8 -1146 9 -1151 2z m828 -43 c180 -3 331 -7 336
-10 5 -3 63 -6 128 -7 66 -1 124 -5 129 -9 11 -8 14 -8 85 -14 25 -2 62 -11
84 -20 21 -9 41 -14 45 -11 12 7 267 -72 335 -104 35 -16 95 -50 133 -75 79
-51 229 -203 270 -274 15 -26 42 -69 61 -96 34 -49 74 -156 110 -300 21 -80
16 -104 -13 -60 -13 20 -14 28 -4 40 11 13 6 18 -14 15 -5 -1 -6 3 -3 8 4 5 2
12 -4 16 -5 3 -10 17 -10 30 0 12 -7 25 -15 29 -8 3 -15 13 -15 21 0 9 -4 13
-10 10 -6 -4 -6 -12 -1 -23 17 -31 72 -214 67 -220 -3 -2 -8 4 -12 14 -16 51
-77 212 -89 234 -7 14 -10 30 -8 37 7 19 -163 189 -236 237 -91 59 -210 123
-283 152 -104 40 -77 18 53 -45 87 -42 147 -79 202 -125 43 -36 84 -66 90 -66
16 0 89 -73 86 -86 -3 -14 17 -58 33 -71 16 -14 88 -163 125 -263 15 -41 30
-78 31 -82 2 -5 -1 -8 -7 -8 -6 0 -11 6 -11 13 0 6 -19 55 -43 107 -62 136
-164 287 -245 360 -134 122 -377 270 -525 319 -167 57 -403 82 -642 70 -66 -4
-250 -7 -410 -9 -159 -1 -360 -5 -445 -8 -85 -4 -172 -5 -192 -2 l-37 5 67 70
c37 39 86 87 110 108 23 21 42 45 42 53 0 8 6 23 12 34 12 19 21 20 163 15 82
-3 297 -7 477 -9z m-782 -299 c36 2 72 0 80 -3 8 -3 290 -7 625 -8 512 -2 625
-6 705 -19 52 -9 106 -21 120 -26 14 -6 54 -17 90 -26 199 -49 410 -172 552
-323 106 -112 227 -381 274 -607 22 -107 22 -462 0 -585 -25 -145 -56 -208
-71 -147 -4 16 5 49 29 101 20 43 33 83 30 89 -20 36 -51 57 -90 63 -24 3 -44
8 -44 11 0 3 9 16 19 29 14 18 18 34 14 63 -3 24 2 62 12 95 17 53 17 57 1 75
-10 11 -41 32 -69 46 -51 27 -53 27 -97 12 -50 -17 -57 -15 -70 18 -5 14 -20
26 -39 30 -22 5 -31 13 -31 26 0 21 -15 26 -26 8 -3 -6 -16 -8 -27 -5 -25 6
-97 -32 -97 -51 0 -7 -5 -13 -10 -13 -6 0 -25 -10 -43 -22 -18 -13 -34 -24
-36 -25 -2 -2 -1 -6 3 -10 4 -4 10 -3 14 2 11 15 49 35 55 28 3 -3 -5 -16 -19
-30 -14 -14 -22 -28 -19 -31 3 -3 16 6 28 20 12 14 35 34 50 43 15 10 25 20
22 23 -3 3 -11 0 -17 -6 -7 -7 -16 -12 -22 -12 -5 0 5 16 24 35 19 19 39 35
46 35 13 0 27 -28 19 -40 -3 -4 4 -6 15 -3 14 4 20 0 20 -12 0 -11 5 -15 15
-11 8 3 21 9 29 12 7 3 16 -2 19 -10 4 -10 1 -13 -9 -9 -10 3 -12 0 -8 -10 6
-16 21 -16 119 -2 45 6 56 4 98 -21 57 -35 64 -50 36 -80 -16 -18 -19 -26 -10
-42 8 -16 7 -21 -4 -26 -8 -3 -15 -14 -15 -25 0 -13 -13 -26 -37 -37 -20 -10
-31 -20 -24 -22 14 -5 -15 -42 -33 -42 -7 0 -19 -9 -29 -20 -9 -11 -21 -20
-27 -20 -14 0 -12 27 3 33 6 3 0 6 -14 6 -14 1 -34 10 -44 21 -10 11 -23 20
-29 20 -5 0 7 -17 27 -38 20 -21 37 -44 37 -51 0 -7 3 -11 8 -9 4 3 22 10 40
17 17 7 32 17 32 22 0 4 9 13 20 19 17 9 26 7 50 -14 16 -13 37 -22 47 -20 10
3 33 -5 51 -16 29 -18 33 -25 27 -48 -4 -15 -10 -29 -13 -32 -4 -3 -8 -20 -9
-39 -1 -19 -12 -44 -23 -56 -26 -27 -25 -33 9 -72 l27 -33 -37 -79 c-43 -90
-121 -183 -147 -174 -15 4 -15 3 -2 -6 13 -9 13 -12 -3 -28 -14 -15 -21 -16
-37 -5 -25 15 -27 15 -33 -2 -4 -10 -1 -13 7 -10 34 13 22 -17 -19 -47 -25
-19 -57 -44 -71 -56 -14 -13 -30 -23 -37 -23 -7 -1 -25 -12 -42 -25 l-30 -25
40 -35 c22 -19 44 -34 49 -35 36 -1 256 -204 256 -235 0 -23 -14 -25 -35 -5
-20 19 -23 19 -29 4 -6 -15 -8 -15 -31 0 -29 19 -64 20 -87 2 -25 -19 -23 -21
24 -23 57 -4 66 -16 46 -56 -9 -17 -19 -41 -22 -52 -3 -11 -19 -29 -36 -40
-16 -11 -30 -23 -30 -27 0 -5 -6 -8 -12 -8 -7 0 -21 -14 -30 -30 -17 -29 -48
-41 -48 -19 0 8 -5 7 -15 -1 -12 -10 -19 -10 -27 -2 -11 11 40 78 117 151 50
48 52 34 2 -19 -23 -25 -50 -60 -60 -78 -27 -49 -1 -40 58 19 29 28 41 47 30
42 -18 -6 -19 -5 -5 13 8 10 24 25 34 33 19 14 19 15 -3 23 -27 9 -61 -12
-110 -67 -17 -19 -35 -35 -41 -35 -6 0 -9 -4 -6 -9 3 -5 -3 -11 -14 -14 -25
-6 -25 0 -2 27 17 20 16 20 -3 6 -11 -8 -26 -22 -33 -30 -8 -8 -11 -9 -7 -2 3
6 2 12 -4 12 -13 0 -33 -35 -24 -43 3 -3 -7 -9 -21 -13 -15 -3 -30 -4 -33 0
-7 7 67 75 82 76 12 0 116 88 129 108 6 11 10 11 16 3 5 -9 10 -8 18 1 9 11 6
14 -12 13 -19 0 -75 -38 -122 -83 -8 -7 -14 -9 -14 -4 0 6 26 33 57 61 31 28
53 51 47 51 -5 0 -39 -27 -75 -60 -37 -32 -69 -57 -71 -55 -3 3 -13 -5 -24
-17 -17 -21 -18 -21 -1 -8 11 8 28 15 40 17 14 2 9 -5 -20 -26 -22 -16 -49
-42 -61 -57 -29 -40 -40 -23 -11 18 20 28 20 31 4 18 -11 -8 -27 -24 -37 -35
-9 -11 -19 -17 -23 -13 -9 8 161 178 197 197 17 9 24 19 20 29 -4 12 -1 14 13
8 11 -4 16 -4 12 0 -4 4 16 32 45 61 28 29 50 55 47 57 -2 3 -40 -26 -83 -65
-44 -38 -83 -69 -88 -69 -11 0 -10 17 2 25 6 4 8 11 4 16 -4 6 -14 3 -26 -8
-15 -13 -22 -15 -25 -5 -3 6 -9 10 -14 6 -5 -3 -9 2 -9 10 0 9 -7 16 -15 16
-8 0 -15 -6 -15 -12 0 -7 -7 -26 -15 -42 -16 -31 -12 -47 7 -28 20 20 32 13
14 -7 -10 -11 -24 -17 -32 -14 -8 3 -21 0 -28 -6 -9 -7 -17 -8 -20 -2 -3 5 8
21 25 35 17 15 29 29 26 32 -2 3 -26 -16 -52 -41 -26 -26 -50 -44 -53 -40 -5
5 127 137 148 148 3 1 19 18 35 37 17 19 21 28 10 19 -40 -31 -48 -33 -40 -9
5 15 2 25 -6 31 -7 4 -11 9 -9 11 3 2 23 19 44 38 24 21 37 28 33 18 -8 -23
-4 -23 18 2 17 18 17 20 2 14 -20 -7 -21 -1 -6 28 12 22 0 19 -33 -10 -9 -7
-22 -11 -29 -6 -7 4 -10 3 -6 -3 9 -14 -38 -44 -56 -37 -8 3 -18 1 -22 -5 -11
-19 38 -12 75 9 l35 21 -28 -26 c-15 -14 -35 -25 -44 -25 -10 0 -13 -6 -9 -16
19 -49 16 -89 -7 -115 -13 -15 -34 -30 -47 -34 -13 -4 -36 -21 -52 -38 -26
-30 -28 -30 -28 -9 0 12 3 22 8 22 9 0 52 62 52 75 0 5 -27 -17 -60 -50 -33
-33 -60 -55 -60 -49 0 6 3 14 7 18 4 3 8 17 10 29 2 12 5 32 8 45 3 12 2 22
-2 22 -15 0 -53 -44 -53 -62 0 -18 -59 -62 -69 -52 -3 3 2 10 11 15 9 5 26 28
38 51 16 31 17 38 6 28 -27 -22 -30 -3 -5 37 l22 38 -24 -22 c-39 -35 -58 -28
-23 8 53 56 120 100 151 98 40 -3 75 10 69 26 -10 26 78 93 153 115 39 12 74
26 77 32 3 5 17 13 30 18 24 10 33 30 13 30 -6 0 -9 6 -6 14 12 30 -27 28 -53
-2 -14 -16 -45 -40 -70 -52 -25 -13 -56 -34 -70 -48 -42 -42 -68 -56 -83 -44
-7 6 -35 13 -63 16 -71 6 -88 14 -72 34 11 13 10 14 -10 8 -18 -6 -21 -4 -15
11 6 16 5 16 -10 4 -15 -12 -20 -11 -38 5 -17 16 -18 19 -4 27 20 11 10 28
-12 20 -11 -5 -14 -3 -8 6 4 8 -4 6 -19 -4 -22 -15 -27 -15 -32 -2 -3 9 -13
13 -25 10 -22 -6 -36 20 -22 40 5 6 15 26 21 42 13 30 13 30 -20 -7 -31 -34
-60 -49 -100 -53 -9 -1 -15 2 -12 7 8 13 -11 9 -25 -4 -10 -11 -11 -9 -5 7 4
11 12 26 17 33 5 7 7 15 4 18 -3 3 -13 -8 -23 -25 -10 -17 -22 -31 -26 -31
-11 0 -10 28 3 52 8 15 8 19 0 14 -15 -10 -14 1 5 29 9 13 14 30 11 37 -3 8
-9 3 -15 -12 -6 -14 -19 -45 -30 -70 l-21 -45 -1 35 -1 35 -18 -34 -18 -35 5
55 c2 30 9 60 14 67 7 8 7 12 0 12 -6 0 -19 -27 -28 -61 -16 -58 -18 -60 -30
-38 l-13 24 -1 -27 c0 -20 -5 -28 -18 -28 -33 0 -42 19 -27 60 7 21 12 40 9
43 -2 2 3 23 11 47 8 24 13 45 11 47 -8 8 -45 -86 -48 -122 -2 -19 -7 -35 -11
-35 -4 0 -14 0 -23 0 -13 0 -15 8 -12 34 2 19 0 32 -4 30 -4 -3 -8 -12 -8 -20
0 -8 -6 -17 -14 -20 -19 -7 -68 25 -59 40 4 6 0 5 -9 -2 -13 -10 -22 -11 -37
-3 -25 14 -31 14 -31 0 0 -5 20 -19 44 -29 24 -11 49 -27 56 -35 32 -38 -34
-125 -93 -122 -30 2 -32 4 -35 45 -4 51 -14 54 -30 9 -14 -38 -58 -84 -69 -72
-5 4 -2 10 5 12 6 3 12 10 12 16 0 7 -11 0 -25 -15 -14 -15 -25 -32 -25 -38 0
-5 -7 -10 -15 -10 -20 0 -19 12 4 54 l20 35 -35 -21 c-19 -11 -41 -30 -49 -41
-12 -18 -18 -19 -40 -9 -41 19 -48 14 -26 -14 26 -34 27 -66 1 -89 -11 -10
-20 -15 -20 -11 0 4 -10 -2 -22 -14 -27 -25 -39 -26 -35 -2 1 9 -2 18 -8 20
-5 1 -11 -2 -11 -8 -1 -5 -2 -14 -3 -19 -2 -14 -38 -20 -50 -8 -7 7 -12 5 -17
-9 -4 -10 -14 -27 -21 -36 -8 -9 -12 -21 -8 -27 3 -7 0 -8 -9 -5 -18 7 -22
-11 -5 -21 6 -4 21 2 33 14 27 25 76 30 56 6 -19 -23 -7 -18 26 10 41 35 55
31 17 -4 -37 -33 -33 -48 6 -23 15 9 1 -10 -31 -45 -58 -62 -69 -78 -45 -70 6
2 12 8 12 13 0 5 29 38 65 73 49 48 59 61 40 56 -24 -7 -24 -6 5 16 16 13 33
25 37 25 5 1 13 2 18 3 6 0 10 6 10 12 0 5 -5 7 -12 3 -12 -8 -7 4 24 49 23
32 44 37 28 7 -6 -11 -8 -25 -5 -30 3 -6 -1 -10 -10 -10 -9 0 -13 -5 -10 -11
4 -6 -3 -18 -15 -26 -14 -10 -18 -18 -11 -22 6 -4 -9 -28 -39 -61 -27 -30 -57
-72 -66 -93 -23 -50 -50 -56 -117 -24 -46 22 -118 37 -91 19 6 -4 14 -16 18
-27 4 -11 4 -16 0 -13 -8 8 -94 -71 -94 -86 0 -7 -13 -20 -30 -29 -27 -16 -33
-15 -32 3 0 3 -11 6 -24 6 -34 2 -43 13 -20 26 10 5 25 19 34 29 9 10 21 19
27 19 14 0 60 48 54 55 -3 2 -21 -9 -41 -25 -23 -19 -56 -34 -89 -40 -28 -6
-66 -18 -83 -29 -22 -13 -37 -16 -53 -11 -20 8 -21 14 -18 112 2 57 4 106 4
111 1 4 8 7 17 7 9 0 25 11 36 25 20 25 45 35 32 13 -4 -8 -3 -10 2 -5 5 5 9
14 9 19 0 19 20 19 31 0 10 -15 6 -26 -17 -60 -16 -23 -24 -42 -19 -42 6 0 10
4 10 10 0 5 20 23 45 40 25 17 45 36 45 42 0 6 -3 8 -7 5 -11 -12 -33 14 -33
39 0 13 -5 24 -11 24 -6 0 -8 9 -3 23 4 12 9 34 10 50 1 15 9 39 18 52 21 32
6 32 -24 0 -13 -14 -24 -39 -26 -61 -3 -37 -37 -84 -51 -70 -4 4 -3 10 3 14 6
4 14 16 17 26 7 17 6 17 -10 5 -10 -8 -21 -18 -25 -24 -4 -5 -10 -7 -13 -3 -7
7 62 109 83 122 12 7 12 10 1 18 -11 8 -11 9 2 5 11 -4 29 8 50 31 19 20 25
29 13 19 -40 -33 -38 -16 4 26 40 41 45 57 17 57 -7 0 -22 -9 -35 -20 -13 -11
-18 -20 -13 -20 6 0 16 7 23 15 7 8 18 15 24 15 6 0 -14 -24 -44 -54 -68 -65
-87 -89 -83 -101 1 -6 -6 -21 -17 -35 -15 -19 -20 -21 -20 -9 0 9 7 22 15 29
9 7 13 15 11 18 -3 2 -1 13 5 24 6 10 7 28 4 39 -5 16 -10 18 -21 8 -20 -17
-17 -34 3 -18 17 13 17 12 0 -13 -10 -16 -15 -28 -11 -28 4 0 1 -7 -6 -15 -7
-8 -19 -15 -26 -15 -8 0 -11 6 -8 15 4 8 1 15 -6 15 -7 0 -9 8 -5 20 3 11 8
52 10 92 2 40 4 77 4 81 1 10 44 26 54 20 5 -3 0 -14 -10 -25 -18 -20 -18 -20
15 -1 17 10 32 21 32 24 0 3 -17 11 -37 17 -32 10 -39 9 -47 -6 -17 -29 -24
28 -25 224 -1 180 -1 182 22 188 l22 7 -22 16 c-31 21 -34 117 -4 133 28 14
57 12 71 -6 8 -8 25 -14 39 -12 37 4 39 -26 3 -71 -37 -46 -74 -118 -64 -125
4 -2 20 19 36 49 15 29 43 71 62 93 19 22 34 46 34 54 0 7 9 29 20 48 l21 35
-32 -37 c-17 -21 -35 -38 -40 -38 -10 0 55 96 105 155 29 34 36 38 50 26 10
-9 16 -9 16 -2 0 6 -11 14 -26 17 -30 8 -59 -16 -109 -91 -50 -75 -107 -116
-74 -53 12 22 11 23 -8 6 -20 -18 -43 -24 -43 -10 0 4 9 21 21 37 11 17 24 40
29 53 5 12 14 22 19 22 13 0 2 -41 -17 -62 -17 -21 -8 -24 14 -5 41 34 66 67
90 117 15 30 30 63 35 73 10 18 2 22 -19 9 -7 -5 -10 -15 -8 -23 6 -15 -58
-109 -74 -109 -7 0 -7 8 1 23 10 19 7 18 -19 -6 -22 -22 -36 -27 -52 -22 -22
7 -22 7 6 36 34 36 17 38 -24 4 -31 -26 -52 -32 -52 -15 0 5 -7 7 -15 4 -24
-10 -20 48 5 64 11 7 20 17 20 23 0 6 -9 8 -20 4 -17 -5 -20 -2 -20 21 0 27 0
27 21 8 22 -19 22 -19 15 9 -5 20 -3 27 8 27 8 0 16 7 20 15 4 12 -3 15 -29
15 l-35 0 0 335 c0 184 -5 425 -11 535 -12 217 -8 239 35 223 12 -5 50 -7 86
-6z m-145 -1840 l0 -217 -60 -54 c-33 -30 -64 -52 -68 -49 -4 3 -3 11 4 19 10
12 9 13 -5 8 -11 -4 -16 -1 -16 10 0 12 -7 14 -30 10 -19 -4 -30 -2 -30 5 0 6
3 11 8 11 4 1 25 17 47 37 l40 36 -30 -7 -30 -7 30 21 c24 16 26 20 11 20 -20
0 -20 0 0 15 10 8 15 14 9 14 -5 0 -19 -6 -29 -14 -13 -10 -15 -15 -6 -15 10
0 9 -4 -3 -18 -10 -10 -17 -25 -17 -34 0 -8 -9 -23 -20 -33 -18 -16 -22 -17
-35 -4 -13 13 -9 22 30 72 51 64 54 78 23 92 -13 6 -22 15 -21 21 1 6 -8 10
-20 10 -12 -1 -23 6 -25 16 -4 21 52 52 91 50 17 -2 26 2 22 8 -3 5 2 10 12
10 15 0 14 4 -7 21 l-25 20 33 -6 c31 -6 41 2 23 21 -5 5 -12 23 -16 41 -6 29
-4 33 22 39 15 4 36 18 46 31 38 48 42 27 42 -200z m1413 -555 c-3 -61 5 -81
17 -43 5 17 75 79 75 67 0 -3 -13 -27 -28 -53 -58 -100 -157 -379 -156 -441 1
-18 -2 -28 -6 -22 -16 26 -35 -137 -31 -262 1 -41 18 -34 26 10 10 57 28 82
91 127 45 31 76 66 130 145 40 58 88 123 109 145 20 22 40 47 45 55 7 11 10 8
10 -14 0 -20 -17 -52 -53 -100 -29 -39 -80 -109 -113 -155 -32 -46 -69 -95
-82 -108 -13 -14 -21 -32 -18 -39 3 -8 1 -27 -5 -42 -6 -15 -13 -22 -16 -15
-2 7 1 22 7 35 9 19 7 19 -15 -6 -14 -15 -29 -41 -32 -57 -3 -16 -9 -29 -13
-29 -5 0 -11 -22 -15 -50 -4 -27 -11 -50 -17 -50 -6 0 -8 14 -5 33 4 31 -9 77
-23 77 -11 0 -3 -537 9 -615 6 -38 11 -76 11 -82 0 -7 5 -13 11 -13 7 0 9 10
5 26 -17 64 -18 84 -7 84 6 0 11 -14 11 -31 0 -17 4 -38 10 -48 7 -14 4 -24
-11 -40 -11 -11 -16 -21 -10 -21 5 0 11 -19 14 -42 6 -62 55 -225 82 -278 13
-25 39 -57 59 -73 31 -24 43 -27 98 -25 53 1 71 -3 109 -25 50 -30 69 -34 69
-14 0 7 -20 23 -44 36 -80 44 -71 62 10 20 41 -22 87 -39 102 -39 l27 1 -25
19 c-14 10 -38 29 -53 41 -32 24 -30 37 3 19 16 -9 25 -8 37 1 12 11 17 11 27
-2 17 -23 72 -39 137 -39 32 0 76 -6 96 -14 49 -18 113 -27 113 -16 0 5 -17
12 -37 15 -57 9 -108 34 -96 46 7 7 22 7 44 1 38 -10 109 -4 109 9 0 13 -82
15 -222 5 -36 -3 -35 0 5 24 42 26 17 26 -34 0 -49 -26 -69 -17 -38 16 29 31
18 30 -35 -1 -24 -14 -45 -22 -49 -19 -3 4 6 22 20 41 36 47 20 56 -18 9 -33
-39 -43 -40 -44 -3 0 12 -4 22 -10 22 -5 0 -9 -6 -9 -12 2 -11 -28 -19 -39
-10 -2 1 -11 -3 -19 -10 -38 -32 -133 33 -175 118 -53 108 -77 189 -52 173 11
-7 149 129 149 147 0 5 11 32 24 61 28 60 42 122 51 223 9 88 9 87 1 165 -16
155 -50 269 -104 352 -35 53 -26 66 41 60 30 -2 57 0 60 5 5 8 -8 11 -65 13
-16 1 -28 5 -28 8 0 19 67 85 109 107 25 13 61 34 79 46 25 17 31 18 26 5 -8
-22 0 -20 44 7 20 13 48 30 62 37 23 12 24 12 11 -3 -8 -11 -9 -17 -2 -17 6 0
18 11 26 24 14 21 45 43 45 32 0 -2 -34 -38 -74 -80 -41 -42 -82 -91 -90 -108
-20 -39 -20 -44 0 -27 15 12 16 11 10 -9 -6 -17 -4 -21 8 -16 19 7 21 -15 4
-39 -9 -11 -32 -19 -68 -22 -61 -6 -93 6 -72 27 15 15 16 28 0 28 -6 0 -8 -3
-5 -6 8 -8 -36 -44 -53 -44 -6 0 -10 -5 -8 -11 7 -20 108 -41 138 -30 14 6 38
11 54 13 18 2 37 14 49 30 20 27 20 29 4 63 -17 35 -11 43 21 26 42 -21 72
-22 89 -1 17 20 17 20 44 -6 24 -23 32 -25 71 -19 32 6 52 17 79 46 20 22 43
39 51 39 22 0 70 66 67 93 -4 39 18 77 45 77 13 0 37 3 52 6 27 5 34 0 73 -53
62 -82 115 -198 155 -338 48 -168 73 -311 42 -239 -8 17 -19 63 -26 102 -6 40
-16 74 -21 78 -13 8 -12 3 26 -193 38 -191 44 -315 24 -428 -6 -33 -15 -80
-19 -105 -26 -146 -44 -213 -75 -275 -66 -130 -106 -200 -146 -251 -55 -71
-154 -164 -176 -164 -16 -1 -73 -42 -73 -54 0 -3 17 4 38 16 l37 21 -26 -28
c-17 -17 -37 -27 -55 -27 -17 0 -38 -10 -50 -24 -15 -15 -74 -39 -180 -74
-271 -87 -602 -124 -969 -109 -151 6 -398 15 -672 24 -50 1 -97 -1 -105 -6 -8
-5 14 -9 57 -9 39 0 77 -5 85 -10 10 -6 -46 -10 -168 -10 -128 0 -181 3 -177
11 4 6 9 329 11 717 2 389 3 713 4 720 0 7 5 10 10 7 6 -3 10 -2 10 4 0 5 -6
11 -12 13 -12 4 -20 118 -8 118 3 0 4 100 2 221 l-4 222 23 -7 c59 -16 74 -18
59 -7 -13 9 -12 12 5 24 22 17 49 11 41 -9 -3 -7 3 -15 12 -17 13 -3 11 -7
-10 -17 -16 -7 -28 -19 -28 -27 0 -18 7 -17 41 8 18 12 37 18 48 14 12 -3 23
0 28 8 4 8 24 24 43 36 19 11 31 21 27 21 -5 0 1 14 13 30 12 17 29 30 38 30
12 0 9 -7 -13 -24 -16 -13 -27 -27 -24 -31 4 -3 20 8 37 25 17 16 26 30 21 30
-5 0 -9 5 -9 10 0 6 7 10 15 10 8 0 15 5 15 10 0 14 23 12 44 -3 11 -8 15 -19
10 -31 -5 -14 -9 -15 -15 -4 -9 14 -14 9 -66 -67 -15 -22 -42 -58 -60 -81 -18
-23 -33 -46 -33 -52 0 -14 -59 -82 -71 -82 -6 0 -6 8 0 19 6 10 8 21 5 24 -3
3 12 29 33 58 21 29 32 50 25 46 -7 -5 -12 -3 -12 7 0 21 -21 11 -44 -20 -18
-26 -18 -26 3 -15 33 18 24 6 -17 -23 -42 -29 -61 -34 -42 -11 10 12 10 15 -1
15 -8 0 0 11 16 25 l30 25 -42 -18 c-35 -14 -43 -22 -43 -44 0 -18 9 -33 31
-49 22 -15 29 -27 25 -42 -3 -13 4 -30 22 -48 27 -29 50 -36 67 -20 6 5 35 17
65 26 30 10 68 28 83 39 31 23 23 25 119 -32 23 -14 31 -14 53 -2 14 7 25 20
25 28 0 11 3 12 13 3 11 -8 17 -5 26 15 6 15 14 24 17 21 3 -3 1 -15 -6 -26
-9 -17 -8 -21 5 -21 23 0 14 -23 -13 -35 -12 -5 -21 -14 -19 -19 7 -21 29 -16
56 13 21 22 38 31 61 31 23 0 33 5 37 20 3 10 13 22 22 25 10 3 35 21 57 40
40 36 64 44 64 23 0 -7 0 -130 -1 -273 -3 -286 -2 -499 3 -735 l3 -155 33 -3
c17 -2 32 -7 32 -12 0 -16 -89 -127 -137 -170 -59 -53 -179 -128 -228 -143
-19 -6 -35 -14 -35 -19 0 -4 1 -8 3 -8 17 0 123 45 195 84 73 39 101 61 152
119 106 124 119 160 166 457 8 52 14 122 14 155 0 118 -5 193 -12 201 -4 4 -3
13 3 21 6 7 7 13 2 13 -4 0 -9 19 -10 43 -6 132 -37 255 -96 376 -54 108 -68
120 -344 288 -12 7 -27 22 -33 32 -9 17 -7 18 13 12 12 -4 74 -33 137 -63 114
-56 178 -108 248 -202 12 -16 22 -23 22 -17 0 7 -18 36 -40 66 -22 30 -40 59
-40 65 0 5 -3 10 -7 10 -5 0 -16 12 -26 25 -15 20 -16 29 -6 47 12 22 11 22
-8 6 -21 -19 -50 -23 -72 -9 -11 7 -7 18 18 54 17 25 35 48 40 51 14 9 34 -22
28 -44 -3 -11 0 -18 6 -17 6 1 23 -31 38 -71 27 -72 57 -127 65 -120 6 7 -25
107 -52 166 -13 29 -26 68 -28 87 -3 19 -11 49 -20 66 -9 17 -13 36 -9 42 3 6
1 7 -5 3 -7 -4 -12 -2 -12 4 0 7 -24 36 -52 67 -59 61 -71 81 -40 64 19 -10
126 -127 180 -197 16 -21 13 -10 -12 42 -22 44 -33 79 -29 92 3 12 10 19 15
16 5 -3 7 -13 4 -21 -3 -8 -2 -11 4 -8 11 7 53 -84 46 -101 -2 -6 4 -24 15
-40 10 -16 19 -38 19 -49 0 -11 14 -47 30 -79 17 -32 30 -63 30 -67 0 -19 -16
-7 -31 23 -8 17 -21 34 -27 36 -15 5 23 -86 44 -108 9 -8 29 -39 46 -69 21
-38 32 -50 38 -40 5 8 2 23 -9 38 -40 59 -62 101 -52 101 5 0 22 -22 38 -50
29 -52 45 -65 36 -30 -3 11 0 20 6 20 26 0 10 56 -24 89 -37 35 -39 53 -4 44
13 -4 18 -11 14 -21 -4 -12 -3 -13 10 -2 8 7 15 19 15 26 0 8 4 14 10 14 5 0
18 28 29 63 11 34 28 82 39 107 11 25 23 67 27 95 3 27 11 55 16 61 5 7 9 16
8 20 -4 24 3 26 12 4 6 -14 9 -53 7 -88z m337 58 c-38 -39 -20 -39 20 0 21 20
37 28 48 24 24 -9 21 -19 -8 -32 -21 -10 -23 -9 -18 6 7 20 -156 -141 -203
-201 -18 -22 -30 -46 -27 -54 4 -10 -2 -11 -25 -7 -19 4 -32 1 -37 -7 -6 -9
-3 -11 8 -6 14 5 15 3 4 -21 -6 -15 -18 -37 -25 -49 -8 -13 -12 -23 -9 -23 4
0 18 20 33 45 29 51 39 57 32 20 -3 -13 -1 -22 4 -19 5 3 17 -1 28 -11 15 -13
16 -22 8 -49 -12 -37 -78 -138 -94 -143 -7 -2 -26 14 -43 36 -30 38 -31 40
-20 93 6 29 14 60 16 68 3 8 7 30 9 49 2 18 10 41 19 51 8 9 15 22 15 28 0 14
91 102 105 102 15 0 146 98 164 123 7 10 16 16 19 13 3 -4 -7 -20 -23 -36z
m-570 -150 c3 -5 1 -19 -5 -30 -9 -17 -8 -19 7 -13 10 3 24 11 31 16 10 8 20
4 37 -15 22 -24 23 -28 10 -64 -7 -22 -23 -45 -36 -52 -22 -11 -27 -9 -52 19
-21 22 -27 39 -24 56 3 15 -1 27 -9 30 -8 3 -14 13 -14 22 0 32 40 55 55 31z
m422 -600 c49 -97 73 -198 73 -306 0 -108 -17 -160 -65 -201 -39 -34 -147 -93
-170 -93 -29 0 -32 298 -4 435 10 50 25 108 34 130 24 58 68 125 80 122 6 -1
29 -41 52 -87z"/>
<path d="M9466 7322 c-10 -2 -33 -13 -50 -23 -17 -10 -44 -19 -61 -19 -47 -1
-120 -72 -144 -140 -20 -55 -24 -58 -68 -44 -18 5 -29 -1 -51 -24 -25 -27 -33
-29 -74 -25 -35 4 -48 1 -59 -12 -8 -9 -29 -33 -47 -53 -40 -43 -38 -70 5 -97
35 -22 42 -45 18 -65 -8 -7 -15 -23 -15 -36 0 -12 -4 -26 -10 -29 -17 -10 -11
-23 8 -19 10 3 23 -4 32 -17 42 -60 53 -70 63 -60 8 8 6 15 -8 24 -17 13 -17
15 4 36 16 16 20 26 13 33 -8 8 -6 20 4 40 9 17 13 32 10 35 -2 3 -16 -18 -31
-47 -23 -46 -28 -50 -43 -39 -9 8 -19 14 -21 16 -2 1 7 16 20 34 13 18 18 29
11 25 -13 -8 -8 39 10 87 14 36 5 44 -12 12 -17 -31 -21 -31 -49 -1 l-23 25
27 25 c15 14 34 26 41 26 7 0 10 8 7 20 -5 18 0 20 35 20 23 0 44 -4 47 -10 9
-15 35 -12 35 5 0 8 11 22 25 31 22 14 30 15 50 4 14 -7 26 -11 28 -9 16 21
47 83 47 95 0 8 5 14 10 14 6 0 10 6 10 14 0 20 39 46 57 39 10 -4 13 0 11 12
-3 20 46 43 95 44 17 1 27 7 27 16 0 23 46 30 75 11 14 -9 25 -12 25 -7 0 21
-49 40 -84 33z"/>
<path d="M9518 7247 c31 -18 54 -53 50 -79 -2 -16 3 -23 20 -27 12 -4 31 -21
42 -38 11 -18 25 -33 32 -33 25 0 104 36 161 74 54 35 61 37 88 25 52 -21 64
-63 24 -81 l-26 -12 53 -47 52 -48 -24 -26 c-13 -14 -21 -28 -17 -31 4 -4 15
4 26 17 11 13 20 19 21 13 0 -6 -16 -29 -35 -51 -38 -45 -47 -67 -15 -38 18
17 21 17 46 0 22 -14 25 -22 22 -53 -3 -21 -9 -46 -13 -57 -8 -20 -8 -20 14
-1 16 14 20 27 16 45 -8 40 4 48 76 53 54 3 72 9 98 31 29 24 38 26 89 21 94
-9 102 -12 102 -39 0 -13 -4 -27 -10 -30 -20 -12 -9 -36 20 -46 37 -13 38 -31
5 -56 -24 -17 -24 -19 -10 -41 9 -12 25 -22 36 -22 21 0 23 7 10 29 -6 10 -5
22 5 35 21 30 17 53 -12 72 -17 12 -25 25 -24 43 3 46 1 52 -35 67 -56 23
-134 18 -177 -11 -44 -30 -43 -30 -75 -5 -33 25 -65 25 -88 0 -25 -28 -34 -17
-22 30 11 40 11 41 -35 88 -45 45 -47 48 -38 86 11 49 7 59 -36 79 -48 23 -79
21 -106 -6 -37 -38 -76 -59 -81 -44 -3 8 -12 5 -26 -10 -30 -32 -67 -30 -75 2
-4 14 -17 30 -29 36 -12 5 -30 30 -41 55 -16 39 -22 44 -49 44 -31 -1 -31 -1
-9 -13z"/>
<path d="M8848 6818 c-34 -28 -39 -29 -73 -18 -30 10 -40 9 -60 -4 -14 -9 -25
-20 -25 -24 0 -4 -18 -26 -39 -48 -38 -40 -40 -40 -64 -26 -28 17 -60 11 -147
-31 -43 -21 -45 -24 -43 -60 3 -53 24 -91 51 -95 26 -4 29 10 6 29 -21 18 -36
57 -29 79 6 18 105 60 142 60 11 0 28 -9 38 -20 l18 -20 22 20 c12 11 31 20
43 20 25 0 26 3 10 29 -19 31 13 71 57 71 18 0 37 -4 40 -10 11 -18 32 -11 43
15 8 16 23 28 42 31 16 4 30 13 30 20 0 22 -22 16 -62 -18z"/>
<path d="M9257 6822 c-2 -4 0 -56 5 -117 11 -126 4 -374 -11 -423 -5 -18 -6
-30 -1 -27 11 7 20 -20 20 -66 0 -26 -4 -39 -14 -39 -16 0 -38 24 -30 33 11
10 -6 58 -17 51 -6 -3 -8 -16 -5 -27 3 -12 0 -27 -6 -34 -8 -9 -7 -18 3 -30 8
-9 9 -14 3 -10 -7 4 -11 0 -10 -11 0 -9 -5 -16 -11 -14 -7 1 -13 -5 -13 -14 0
-14 -3 -14 -15 -4 -13 11 -15 7 -15 -24 0 -27 -6 -39 -25 -52 -39 -25 -59 -12
-52 37 3 27 2 39 -6 36 -16 -5 -28 -57 -17 -77 5 -10 6 -20 3 -24 -10 -10 -51
-7 -58 4 -4 6 -14 9 -23 8 -12 -2 -19 7 -23 32 -5 30 -7 31 -8 8 -1 -34 -21
-47 -28 -19 -7 29 -15 26 -36 -11 -16 -28 -20 -30 -33 -16 -13 12 -14 25 -6
67 12 67 -1 66 -17 -1 -9 -39 -9 -53 0 -59 7 -4 8 -12 4 -20 -6 -9 -10 -7 -16
9 -10 27 -25 28 -32 2 -6 -24 -29 -26 -47 -5 -12 14 -11 29 5 68 4 9 3 17 -2
17 -6 0 -16 -19 -23 -42 l-14 -41 42 -37 42 -37 -36 -47 c-35 -46 -36 -47 -60
-31 -13 8 -24 11 -24 6 0 -5 -3 -16 -6 -24 -4 -10 5 -16 30 -21 37 -7 41 -12
30 -40 -9 -22 -32 -20 -71 7 -37 25 -40 39 -18 90 17 42 18 47 7 47 -9 0 -26
-29 -42 -73 -9 -27 -10 -27 -35 -11 -31 20 -31 40 0 107 25 52 15 45 -31 -26
-13 -22 -22 -46 -19 -56 6 -19 88 -86 142 -117 35 -19 89 -22 77 -3 -3 5 7 21
21 35 21 21 24 29 13 35 -9 7 -10 11 -2 17 6 4 29 30 50 57 62 83 58 81 109
33 45 -42 54 -58 35 -58 -5 0 -10 8 -10 17 0 12 -9 8 -31 -17 -17 -19 -28 -27
-25 -18 3 12 1 15 -10 11 -7 -3 -14 -2 -14 2 0 10 27 35 39 35 16 0 13 16 -5
34 -21 21 -37 20 -30 -2 4 -12 -9 -35 -39 -71 -25 -29 -45 -56 -45 -61 0 -5
-7 -15 -15 -24 -8 -8 -12 -22 -9 -30 7 -18 24 -22 24 -6 0 6 -5 10 -11 10 -8
0 -8 5 1 15 14 17 35 21 25 5 -15 -25 16 -7 35 20 12 17 27 30 33 29 9 0 8 -2
0 -6 -16 -6 -17 -33 -2 -33 6 0 9 -9 6 -20 -3 -12 0 -20 7 -20 6 0 12 10 13
21 2 26 14 39 20 22 7 -20 25 -16 57 12 16 14 35 25 41 25 7 0 31 -20 54 -45
23 -25 44 -45 46 -45 14 0 1 30 -35 81 -39 55 -39 57 -22 77 18 21 19 21 66
-33 46 -54 74 -71 62 -39 -5 14 14 63 37 92 8 10 13 10 25 0 13 -11 14 -10 3
10 -10 18 -9 22 4 22 11 0 15 11 15 44 0 25 4 47 9 51 13 8 18 -54 7 -89 -6
-18 -5 -46 2 -77 7 -27 9 -62 6 -79 -6 -29 -5 -30 32 -32 50 -2 48 -2 143 6
101 7 190 47 261 116 27 26 51 45 54 43 3 -3 -1 -21 -10 -41 -27 -67 -5 -50
37 27 13 25 36 57 52 72 15 14 27 29 27 33 0 4 20 36 44 71 24 36 46 70 48 77
2 6 9 8 16 4 11 -7 -30 -72 -77 -123 -12 -12 -21 -28 -21 -35 0 -7 -9 -28 -20
-46 -29 -47 -24 -62 9 -24 19 22 33 30 44 26 10 -3 17 -10 17 -15 0 -5 11 -14
25 -21 20 -9 29 -7 52 8 33 22 131 29 196 14 33 -7 45 -6 57 6 12 12 12 16 2
23 -10 6 -7 12 13 25 32 21 27 33 -7 15 -16 -8 -12 -1 15 26 35 36 45 55 31
55 -4 0 -35 -25 -69 -55 -62 -54 -91 -72 -64 -38 14 17 12 16 -33 -6 -15 -8
-35 -11 -44 -7 -15 6 -13 9 12 22 16 9 37 23 46 31 14 13 18 13 18 2 0 -7 19
5 43 27 23 22 72 64 110 93 37 29 67 57 67 62 0 13 -30 -4 -54 -30 -24 -26
-41 -27 -59 -1 -10 15 -20 18 -35 13 -29 -11 -196 -177 -183 -181 14 -5 -5
-32 -22 -32 -6 0 -19 -8 -29 -17 -24 -21 -42 -5 -33 29 7 29 61 88 79 88 6 0
4 -6 -5 -13 -19 -15 -72 -97 -66 -103 2 -3 12 7 21 21 9 14 22 23 28 19 7 -5
8 -3 3 5 -4 8 6 27 27 49 19 21 52 58 72 84 21 26 47 48 58 50 34 5 32 25 -3
32 -22 4 -30 10 -25 21 13 34 -15 12 -35 -27 -31 -61 -55 -72 -93 -43 -18 13
-18 16 -2 49 25 54 19 55 -15 3 -24 -36 -35 -45 -45 -37 -10 9 -9 18 8 48 l20
37 -24 -27 c-13 -16 -27 -28 -31 -28 -12 0 -8 36 9 69 8 17 14 37 11 44 -3 7
-9 1 -15 -13 -5 -14 -25 -38 -43 -55 l-33 -30 17 28 c10 15 14 27 10 27 -5 0
-16 -12 -26 -27 -17 -28 -17 -27 -15 57 2 94 -14 184 -43 244 -10 22 -17 41
-15 43 8 9 46 -67 59 -118 l14 -54 5 40 c7 56 -46 170 -79 169 -12 0 -20 2
-18 6 2 3 -31 36 -74 73 -106 89 -163 109 -333 113 -70 2 -129 0 -131 -4z
m289 -67 c92 -24 191 -109 235 -201 37 -80 38 -131 3 -190 -14 -24 -21 -44
-15 -44 6 0 19 18 27 41 12 28 19 37 25 27 12 -18 -1 -129 -18 -155 -13 -19
-12 -22 3 -31 23 -13 15 -103 -13 -140 -21 -29 -80 -44 -207 -55 -37 -3 -69
-13 -87 -26 -29 -22 -49 -27 -50 -13 -1 15 -9 375 -13 567 -2 110 -5 205 -6
210 -7 30 27 33 116 10z"/>
<path d="M10435 6625 c-19 -22 -35 -43 -35 -47 0 -4 -5 -8 -12 -8 -6 0 -1 11
12 25 l23 25 -21 0 c-12 0 -22 -5 -22 -11 0 -5 -4 -8 -8 -5 -9 5 -212 -185
-212 -199 0 -4 8 -4 18 0 9 4 26 8 37 9 25 1 95 47 95 62 0 6 20 21 44 34 25
12 47 28 50 35 2 8 15 11 30 8 28 -6 34 5 14 25 -10 10 -6 18 17 37 24 18 27
26 18 36 -10 10 -20 4 -48 -26z"/>
<path d="M10554 5855 c-31 -28 -39 -31 -31 -11 3 8 -1 17 -10 20 -10 4 -37
-11 -75 -45 -49 -43 -61 -49 -74 -38 -8 7 -13 18 -10 25 3 8 0 11 -9 8 -7 -3
-26 3 -41 13 l-29 18 20 -26 c10 -14 38 -40 62 -58 39 -31 42 -35 37 -71 -5
-31 -2 -40 14 -49 23 -12 38 -61 22 -71 -14 -9 -3 -55 16 -71 21 -17 90 -21
103 -5 9 11 6 12 -13 9 -27 -6 -45 15 -25 28 11 7 10 9 -4 9 -25 0 -51 26 -36
36 6 3 15 1 19 -6 4 -7 13 -9 19 -6 6 4 9 11 6 16 -2 4 9 23 25 41 39 45 39
62 -1 21 -17 -18 -35 -29 -40 -26 -14 8 53 65 71 59 19 -6 62 67 54 90 -4 8
-1 15 5 15 6 0 11 5 11 12 0 9 -3 9 -12 0 -23 -23 -41 -14 -36 18 4 29 4 29
-16 16 -12 -8 -20 -20 -18 -27 2 -6 -6 -22 -18 -34 -11 -12 -18 -25 -15 -28 3
-4 -1 -3 -7 3 -10 8 -10 15 0 30 16 26 9 25 -36 -5 -40 -27 -50 -29 -72 -15
-12 8 -6 18 35 55 46 42 73 54 45 20 -7 -9 -8 -15 -2 -15 6 0 13 6 15 13 4 9
8 9 15 -2 8 -11 18 -6 48 23 22 19 34 36 27 36 -7 0 -24 -11 -39 -25z"/>
<path d="M9551 3676 c-1 -37 -8 -94 -16 -127 -8 -32 -14 -62 -13 -66 1 -4 -6
-22 -15 -40 -9 -18 -17 -41 -17 -52 0 -22 -22 -41 -28 -23 -4 12 -82 -72 -82
-89 0 -17 12 -9 52 34 40 42 40 42 33 12 -4 -18 -29 -51 -61 -81 -42 -40 -51
-53 -39 -58 10 -3 36 11 71 39 30 25 63 45 74 45 10 0 22 5 25 10 3 6 17 10
30 10 13 0 29 8 34 18 7 10 14 13 18 7 5 -5 24 -18 43 -27 19 -10 59 -31 89
-48 52 -29 101 -39 101 -21 0 4 -16 11 -35 14 -20 3 -54 22 -77 41 -23 20 -50
36 -60 36 -10 0 -21 8 -24 18 -3 9 -12 31 -19 47 -12 26 -14 27 -14 8 -1 -30
-21 -40 -28 -13 -4 16 -8 18 -14 9 -15 -25 -17 -3 -9 126 6 97 5 144 -5 185
l-13 55 -1 -69z"/>
<path d="M12478 7930 c-91 -3 -170 -8 -174 -12 -4 -5 4 -8 17 -9 13 0 33 -3
44 -5 36 -9 389 -13 425 -6 21 5 36 15 38 25 4 19 -1 19 -350 7z"/>
<path d="M12649 7225 c-58 -14 -253 -104 -245 -112 2 -3 15 0 28 6 20 10 20
10 4 -1 -10 -7 -48 -35 -85 -62 -62 -46 -65 -44 -16 13 l20 24 -33 -19 c-19
-10 -38 -27 -44 -37 -5 -10 -31 -42 -57 -71 -61 -67 -153 -248 -180 -352 -46
-181 -50 -371 -9 -504 11 -36 21 -76 22 -90 2 -22 55 -134 131 -275 15 -27 46
-86 69 -130 44 -83 74 -139 211 -390 141 -258 129 -221 110 -339 -10 -55 -23
-108 -31 -117 -11 -12 -11 -18 -2 -27 9 -9 9 -23 1 -59 -20 -84 -24 -121 -13
-128 5 -3 10 -18 11 -33 0 -26 1 -26 11 -5 10 20 18 22 102 22 50 1 108 4 128
7 44 7 80 -2 59 -15 -19 -12 7 -51 34 -51 18 1 19 1 3 11 -10 5 -18 14 -18 19
0 13 41 -1 47 -16 6 -16 49 -19 58 -5 3 6 32 9 65 8 33 -1 60 1 60 4 0 12 49
28 55 19 4 -6 11 -10 16 -10 6 0 7 4 4 10 -3 6 1 7 10 4 9 -4 14 -12 12 -18
-3 -7 18 -11 66 -10 45 0 72 5 75 12 2 8 -3 10 -14 5 -12 -4 -15 -3 -10 5 4 7
23 12 42 12 21 0 33 -4 29 -10 -4 -6 -11 -8 -16 -5 -5 4 -9 2 -9 -3 0 -6 27
-8 63 -6 34 3 77 5 95 5 48 1 39 19 -10 20 -24 1 -47 1 -53 -1 -5 -1 -25 2
-44 5 -66 13 15 33 139 35 l35 0 -30 16 c-23 12 -48 14 -105 10 -151 -11 -198
-8 -209 13 -5 9 -15 52 -21 96 -7 44 -21 127 -30 185 l-17 105 70 135 c81 156
154 303 204 410 19 41 47 102 63 135 125 260 198 467 221 623 28 188 -39 423
-177 618 -53 75 -166 181 -214 201 -90 37 -129 57 -125 63 2 4 -30 18 -73 31
-66 20 -101 24 -252 26 -124 1 -191 -2 -231 -12z m468 -65 c130 -38 263 -103
263 -130 0 -5 -22 -16 -50 -25 l-49 -16 -58 39 c-32 22 -69 52 -83 67 -14 15
-34 31 -45 36 -31 15 84 -90 134 -122 27 -18 39 -30 30 -33 -33 -10 -165 -48
-309 -90 -85 -25 -200 -64 -255 -86 l-100 -41 -20 27 c-21 30 -136 166 -166
199 -14 15 -19 16 -19 5 0 -8 17 -33 38 -55 61 -65 142 -166 142 -177 0 -6 -7
-8 -15 -4 -12 4 -13 2 -3 -14 10 -15 9 -22 -4 -37 -43 -49 -119 -240 -158
-401 -9 -36 -22 -52 -82 -100 -39 -31 -100 -81 -136 -111 -36 -30 -68 -49 -73
-44 -4 4 -10 26 -13 49 -3 22 -13 57 -21 79 -13 29 -16 66 -14 159 1 67 5 126
8 131 3 6 6 12 7 15 0 3 5 16 11 30 5 14 24 70 42 125 18 55 57 144 87 198 61
108 74 115 128 71 17 -14 69 -53 116 -86 72 -50 78 -53 40 -18 -25 22 -80 64
-122 93 -43 29 -77 55 -78 59 0 13 157 121 225 155 199 96 394 113 602 53z
m344 -210 c21 -23 36 -46 33 -53 -2 -7 14 -30 36 -52 39 -38 56 -71 23 -44
-14 12 -14 9 2 -18 11 -18 25 -33 32 -33 7 0 13 -8 13 -17 0 -15 -2 -16 -10
-3 -5 8 -12 12 -15 8 -9 -9 24 -70 45 -85 37 -26 52 -171 40 -371 -8 -146 -18
-163 -60 -112 -37 44 -130 230 -168 335 -48 131 -161 406 -172 420 -13 16 11
32 80 51 70 19 81 17 121 -26z m-246 -87 c-4 -43 -13 -145 -19 -228 l-11 -150
-36 55 c-99 153 -244 212 -403 166 -60 -18 -118 -48 -154 -80 -24 -22 -72
-101 -72 -120 0 -7 -7 -21 -15 -32 -34 -44 40 164 78 219 24 36 48 47 229 111
84 30 205 72 268 94 63 23 121 41 129 41 11 1 12 -14 6 -76z m99 -136 c30 -73
73 -181 96 -242 22 -60 61 -147 86 -193 25 -46 44 -86 42 -88 -2 -1 -57 33
-123 78 -66 44 -142 91 -168 105 l-49 24 6 47 c3 26 11 134 17 241 10 156 15
190 25 176 7 -9 37 -76 68 -148z m-339 -88 c58 -27 132 -101 158 -159 16 -33
21 -66 21 -125 1 -71 -3 -87 -31 -141 -37 -72 -86 -117 -163 -152 -98 -45
-193 -25 -279 59 -51 49 -69 85 -79 156 -20 152 49 307 161 362 57 29 151 29
212 0z m-479 -207 c-12 -20 -5 -144 12 -209 27 -104 97 -188 192 -230 22 -9
66 -15 117 -16 73 0 90 4 146 32 36 17 68 31 72 31 3 0 -13 -22 -37 -50 -24
-27 -52 -66 -63 -87 -10 -21 -28 -51 -39 -67 -11 -16 -14 -26 -8 -22 7 4 39
47 71 94 32 48 88 121 125 162 36 41 73 89 81 106 24 50 47 154 41 180 -4 13
-4 24 -1 24 18 0 70 -32 303 -183 39 -26 72 -53 72 -60 0 -7 -98 -61 -217
-121 -120 -60 -288 -151 -374 -202 -86 -52 -161 -94 -167 -94 -6 0 -34 35 -61
78 -28 42 -75 102 -105 132 -31 30 -56 60 -56 67 0 6 -10 19 -22 27 -21 15
-21 16 -3 16 16 0 13 6 -16 38 -51 53 -95 113 -103 139 -6 19 -4 22 11 16 15
-6 16 -4 5 9 -7 8 -10 23 -6 32 3 9 1 16 -5 16 -6 0 -11 -5 -11 -10 0 -6 -6
-5 -14 2 -15 14 -2 30 19 22 8 -3 12 10 13 38 2 59 12 98 23 98 6 0 8 -4 5 -8z
m-40 -283 c24 -37 50 -74 57 -81 7 -7 30 -38 51 -68 22 -30 65 -84 96 -120 31
-36 69 -83 85 -104 24 -33 25 -38 9 -32 -10 5 -41 16 -69 26 -27 10 -108 45
-180 79 -71 34 -164 76 -205 93 -41 16 -97 40 -123 52 l-49 22 71 54 c39 30
95 73 124 95 28 22 56 45 60 52 12 19 24 8 73 -68z m1146 -101 c-13 -27 -70
-153 -98 -218 -23 -55 -163 -329 -202 -395 -6 -11 -32 -65 -56 -120 -93 -211
-148 -315 -190 -362 -10 -13 -17 -26 -13 -29 4 -4 -5 -20 -19 -37 -29 -35 -64
-100 -64 -120 0 -8 -9 -26 -20 -40 -13 -17 -16 -27 -8 -29 7 -3 2 -18 -15 -44
-25 -36 -27 -37 -27 -14 0 14 -1 43 -3 65 -2 22 0 57 4 78 3 20 3 37 -2 37 -4
0 -7 67 -6 149 2 126 5 152 20 168 9 11 17 26 17 34 -1 8 -8 1 -16 -14 -8 -15
-20 -25 -25 -21 -16 10 -7 86 13 116 10 14 18 29 18 34 0 4 15 30 33 58 19 28
37 60 41 71 10 29 -40 -33 -55 -67 -6 -16 -16 -28 -21 -28 -5 0 -14 -13 -19
-30 -6 -16 -15 -27 -20 -24 -14 8 -11 148 4 163 10 10 9 12 -3 9 -20 -4 -25
44 -8 74 7 13 12 27 13 31 0 4 5 11 11 15 5 4 21 25 34 47 17 28 19 36 7 26
-9 -7 -26 -28 -38 -47 -26 -43 -43 -44 -37 -2 3 17 2 47 -2 65 -6 24 -4 33 5
33 7 0 15 4 17 8 4 11 123 84 241 149 56 30 120 65 142 77 22 13 46 21 53 19
6 -3 12 0 12 6 0 5 26 18 58 27 31 10 68 27 80 38 13 12 33 20 45 18 18 -2 19
-1 7 7 -8 6 -12 11 -7 11 4 0 8 -1 10 -2 1 -1 13 5 27 12 14 8 31 13 38 12 7
-2 12 1 11 5 -3 20 2 26 13 15 9 -9 9 -17 0 -34z m-1222 -167 c135 -60 270
-119 300 -131 30 -12 73 -30 95 -41 l40 -20 1 -62 c0 -34 8 -201 18 -372 9
-170 17 -368 18 -440 1 -71 5 -138 10 -148 13 -26 -1 -37 -15 -12 -6 11 -10
22 -8 23 1 2 -6 10 -16 17 -14 11 -15 16 -6 26 9 9 5 20 -18 48 -16 19 -29 39
-29 44 0 5 -17 34 -37 65 -40 60 -46 69 -80 130 -12 22 -68 122 -126 223 -58
101 -115 202 -127 224 -12 22 -30 51 -40 65 -16 23 -240 459 -240 467 0 8 29
-4 260 -106z"/>
<path d="M11892 5823 c-24 -79 -95 -371 -112 -458 -21 -110 -60 -281 -86 -381
-14 -55 -31 -120 -36 -146 -6 -27 -15 -48 -19 -48 -5 0 -9 5 -9 11 0 5 -4 7
-10 4 -16 -10 -12 -38 5 -31 8 3 15 1 15 -4 0 -5 -10 -11 -22 -13 l-23 -4 23
-2 c12 0 22 -5 22 -11 0 -5 -6 -7 -14 -4 -17 7 -29 -11 -31 -45 -1 -14 -5 -36
-9 -48 -5 -14 -3 -23 3 -23 6 0 11 -5 11 -11 0 -5 -4 -8 -9 -4 -5 3 -12 1 -16
-5 -3 -5 -2 -10 4 -10 6 0 8 -16 4 -37 -4 -35 -64 -297 -98 -433 -7 -30 -19
-82 -25 -115 -6 -33 -15 -71 -19 -85 -8 -24 -22 -86 -36 -158 -4 -18 -9 -31
-11 -29 -7 6 24 180 37 215 6 15 15 54 20 87 6 33 14 74 19 90 28 90 64 391
44 372 -9 -9 -11 -16 -17 -103 -7 -83 -37 -224 -48 -224 -12 0 -12 -3 10 98
21 94 33 299 19 308 -5 3 -4 12 3 20 7 8 7 14 1 14 -10 0 -5 28 21 130 14 53
14 56 16 75 0 8 5 15 10 15 9 0 4 -76 -9 -127 -12 -46 5 -50 17 -5 15 51 17
142 3 142 -5 0 -10 5 -10 11 0 5 4 8 9 4 5 -3 12 -1 16 5 3 5 1 10 -6 10 -8 0
-5 5 5 13 13 10 18 27 17 72 0 75 14 171 45 300 20 87 29 131 51 255 2 14 14
81 27 148 13 73 20 139 17 160 l-6 37 -12 -30 c-6 -16 -18 -61 -27 -100 -8
-38 -30 -133 -47 -210 -39 -174 -56 -267 -64 -353 -6 -59 -118 -546 -145 -627
-5 -16 -16 -66 -24 -110 -9 -44 -17 -91 -20 -105 -3 -14 -23 -95 -44 -180 -22
-85 -47 -195 -56 -245 -9 -49 -32 -146 -51 -215 -60 -220 -107 -476 -101 -550
4 -51 1 -78 -14 -119 -11 -30 -17 -58 -14 -63 10 -16 21 1 28 41 9 55 23 59
31 9 4 -24 14 -55 21 -70 8 -15 14 -38 14 -51 0 -13 7 -32 15 -43 8 -10 15
-26 15 -35 0 -27 59 -45 125 -38 33 4 100 7 148 8 60 1 86 4 81 12 -4 7 23 9
92 4 55 -4 201 -6 325 -5 211 1 227 0 234 -17 6 -16 8 -16 16 5 7 20 13 22 49
16 27 -4 40 -3 40 5 0 6 -14 11 -30 11 -30 0 -31 1 -24 38 4 20 11 45 15 54 5
9 9 25 9 36 0 18 6 19 93 16 50 -2 115 -8 142 -13 65 -13 333 -8 365 7 20 9 6
11 -73 8 -54 -1 -100 1 -103 6 -3 4 2 8 10 8 8 0 18 4 21 10 4 6 -19 8 -62 5
-92 -5 -192 -7 -290 -6 l-83 1 0 30 c0 26 3 30 23 25 12 -3 42 -9 67 -15 43
-9 325 -6 470 6 36 3 83 6 105 8 22 2 76 7 120 11 69 8 75 10 43 15 -20 4 -86
1 -145 -6 -128 -15 -541 -18 -563 -4 -10 6 57 10 200 11 263 2 298 3 306 12 4
4 -106 7 -244 7 -161 0 -252 4 -252 10 0 6 43 10 108 11 59 1 96 4 82 8 -41
11 -2 19 60 12 30 -4 62 -6 70 -5 8 0 82 2 164 2 82 1 147 4 145 6 -13 13
-639 30 -639 17 0 -21 -44 -56 -71 -56 -33 -1 -41 27 -11 44 11 7 13 10 3 11
-11 0 -12 9 -6 43 4 23 9 51 10 62 1 11 7 33 14 48 6 16 9 32 6 37 -2 4 2 29
9 56 8 27 18 85 21 129 4 44 11 85 15 90 5 6 16 49 25 96 l17 86 47 -2 c25 -1
178 -3 339 -4 l292 -1 0 -24 c0 -32 20 -86 32 -86 5 0 2 -7 -6 -16 -12 -11
-13 -20 -6 -34 6 -10 10 -29 10 -42 0 -16 3 -19 9 -10 7 11 9 11 14 -2 3 -8 2
-18 -3 -21 -14 -9 -12 -45 3 -45 9 0 9 -2 -1 -8 -7 -5 -10 -16 -6 -26 5 -13 9
-15 15 -5 4 7 5 -5 2 -27 -3 -22 2 -67 10 -100 8 -32 19 -81 23 -109 4 -27 9
-54 9 -60 1 -5 3 -17 3 -26 1 -8 22 -42 47 -74 34 -44 43 -60 33 -67 -10 -6
-8 -11 7 -20 11 -6 40 -32 64 -57 40 -43 43 -44 37 -18 -4 16 -2 27 4 27 5 0
10 -3 11 -7 0 -5 2 -27 4 -50 3 -39 1 -43 -18 -43 -12 0 -28 -4 -34 -8 -16
-10 -34 -10 580 -15 285 -2 522 -8 526 -13 5 -5 16 -37 27 -71 10 -35 21 -63
25 -63 8 0 2 34 -11 65 -5 11 -11 40 -13 65 -2 25 -18 106 -37 180 -18 74 -34
144 -35 155 -1 11 -7 32 -14 48 -16 41 -39 134 -71 297 -16 80 -40 195 -54
255 -14 61 -33 139 -41 175 -8 36 -15 86 -15 112 0 26 -5 50 -11 54 -6 3 -8
15 -6 26 4 14 2 18 -9 14 -9 -3 -14 1 -14 12 0 9 -3 28 -7 42 -6 23 -5 24 13
10 19 -14 19 -14 0 7 -10 13 -22 39 -27 60 -28 128 -29 138 -19 141 15 5 12
32 -5 38 -8 4 -15 14 -15 23 0 14 2 14 11 1 8 -11 9 -8 4 15 -4 16 -11 33 -17
36 -7 4 -7 8 1 10 7 3 6 12 -3 31 -8 15 -12 29 -9 32 3 3 -3 31 -13 63 -10 32
-18 75 -19 95 0 21 -4 38 -9 38 -5 0 -7 3 -3 6 3 4 -1 20 -9 36 -8 16 -12 33
-8 39 4 6 2 14 -4 18 -6 4 -14 22 -16 41 -6 40 -8 49 -24 105 -10 36 -16 72
-27 145 -6 40 -69 292 -114 455 -23 83 -46 169 -52 193 -7 23 -16 42 -20 42
-18 0 -13 -107 6 -160 7 -19 16 -61 18 -93 3 -31 13 -71 21 -88 9 -17 13 -35
10 -40 -3 -5 2 -23 10 -41 16 -36 26 -75 32 -127 3 -19 7 -37 9 -41 3 -4 7
-25 11 -46 3 -22 9 -43 14 -49 4 -5 11 -35 15 -65 4 -30 11 -65 16 -77 9 -26
2 -56 -12 -47 -5 3 -9 0 -9 -6 0 -7 7 -10 15 -7 16 7 20 3 29 -35 3 -16 2 -28
-3 -28 -5 0 -14 12 -20 28 -11 26 -11 26 -8 2 6 -36 77 -352 84 -370 3 -8 5
-21 4 -29 -1 -7 2 -10 8 -7 6 4 8 -6 4 -29 -3 -21 -2 -35 5 -35 8 0 15 -16 28
-65 1 -5 5 -23 8 -40 3 -16 13 -57 21 -90 9 -33 27 -114 41 -180 63 -300 235
-1042 267 -1150 8 -27 18 -58 22 -67 7 -17 -17 -18 -382 -18 -213 -1 -397 -2
-408 -2 -11 -1 -59 -1 -107 0 l-86 2 -12 73 c-6 39 -16 88 -20 107 -11 43 -38
199 -45 260 -3 25 -8 56 -10 70 -2 14 -6 48 -10 75 -6 58 -41 244 -55 296 -6
20 -10 55 -10 77 0 44 -13 60 -34 43 -9 -8 -55 -8 -157 -1 -79 5 -179 10 -221
11 -43 1 -78 4 -78 8 0 8 -60 10 -148 4 -39 -3 -70 -8 -67 -13 3 -4 23 -6 45
-3 26 4 40 2 40 -6 0 -7 -19 -11 -50 -11 -30 0 -50 4 -50 11 0 7 -10 9 -27 5
-72 -18 -148 -24 -155 -13 -5 8 -8 6 -8 -5 0 -10 -5 -18 -12 -18 -6 0 -8 -3
-5 -7 4 -3 3 -11 -2 -17 -4 -6 -21 -56 -36 -111 -15 -55 -38 -128 -51 -162
-30 -80 -106 -391 -102 -418 2 -11 12 17 23 62 10 46 22 88 26 95 14 22 19 2
9 -33 -6 -19 -13 -50 -16 -69 -3 -19 -12 -57 -19 -85 -7 -27 -13 -57 -12 -66
0 -9 -6 -50 -13 -93 l-13 -76 -63 0 c-77 0 -264 20 -264 29 0 3 -142 5 -315 5
-173 -1 -315 1 -315 4 0 6 48 206 90 377 11 44 27 109 35 145 7 36 19 85 25
110 6 25 13 56 15 70 2 14 11 52 20 85 28 98 29 107 14 116 -11 7 -11 9 3 9 9
0 20 5 24 12 5 7 3 8 -6 3 -9 -6 -11 0 -6 21 3 16 8 45 10 64 2 19 7 42 10 50
3 8 7 31 10 50 3 19 19 96 37 170 17 74 32 153 34 175 1 22 3 46 4 53 1 6 5
12 10 12 4 0 7 -12 5 -27 l-4 -28 15 30 c8 17 14 40 15 52 0 12 4 24 9 27 5 3
8 26 7 51 -1 25 1 45 5 45 3 0 11 21 16 47 9 36 8 50 0 55 -9 6 -9 10 -1 16
15 9 32 71 28 100 -2 12 1 22 6 22 6 0 8 13 5 30 -3 19 -1 30 6 30 6 0 9 9 6
20 -3 13 0 20 9 20 9 0 13 9 10 30 -2 17 0 30 3 30 4 0 8 12 9 26 1 15 6 32
10 38 5 6 9 22 10 36 1 36 22 141 32 165 5 11 18 65 29 120 12 55 32 150 46
210 14 61 28 139 31 175 3 36 12 79 19 95 19 43 28 95 17 95 -6 0 -19 -30 -30
-67z m1451 -2623 c3 -11 12 -20 21 -20 10 0 13 5 9 17 -4 10 -2 14 5 9 6 -3
14 -28 17 -54 4 -26 15 -80 26 -120 25 -95 25 -115 -1 -82 -11 14 -20 31 -20
38 0 6 -3 12 -7 12 -9 0 -103 114 -103 125 0 4 9 5 21 2 18 -5 20 -2 14 26 -4
18 -9 40 -11 50 -3 10 0 17 9 17 8 0 17 -9 20 -20z"/>
<path d="M6288 3081 c-45 -48 -116 -142 -120 -161 -2 -8 -10 -21 -18 -28 -13
-11 -9 -12 21 -9 20 3 43 1 50 -4 11 -7 9 -9 -6 -9 -24 0 -52 -16 -43 -25 9
-9 98 6 98 16 0 5 -8 9 -17 10 -10 1 -1 6 20 11 47 13 49 29 1 18 -38 -9 -94
4 -94 22 0 7 5 7 13 -1 14 -11 132 -9 222 4 42 7 47 6 42 -9 -7 -18 1 -20 23
-6 11 7 11 10 2 10 -7 0 -10 5 -7 10 6 10 -9 15 -30 10 -28 -6 -226 -6 -230 0
-9 15 43 20 263 27 232 6 283 22 82 24 -134 2 -107 16 33 18 56 1 86 5 82 11
-3 6 -40 10 -81 10 -43 0 -74 4 -74 10 0 6 29 10 67 10 47 0 64 3 56 11 -6 6
-66 10 -152 11 -153 0 -191 11 -58 16 45 2 100 7 122 12 35 7 31 8 -40 11
-205 7 -189 9 -227 -30z"/>
<path d="M15942 2882 c-13 -4 -24 -11 -25 -17 -4 -22 115 -33 360 -34 226 -1
252 1 246 15 -4 12 -8 13 -14 3 -6 -10 -12 -9 -28 5 -14 12 -26 16 -43 10 -36
-11 -161 -13 -182 -2 -12 7 -16 7 -12 0 7 -12 -63 -10 -82 2 -7 4 -25 5 -39 1
-20 -5 -24 -3 -20 9 5 14 -4 16 -66 15 -40 -1 -82 -4 -95 -7z"/>
<path d="M12663 2868 c1 -8 -6 -12 -18 -10 -65 10 -335 3 -335 -9 0 -5 13 -9
29 -9 17 0 33 -5 37 -11 5 -9 71 -10 248 -5 133 4 257 9 276 11 19 2 38 4 42
4 4 1 5 8 2 16 -6 15 -34 21 -34 7 0 -4 -54 -8 -120 -9 -101 -2 -118 0 -114
12 4 8 1 15 -5 15 -6 0 -10 -6 -8 -12z"/>
</g>
</svg>
