<?xml version="1.0" standalone="no"?>
<!DOCTYPE svg PUBLIC "-//W3C//DTD SVG 20010904//EN"
 "http://www.w3.org/TR/2001/REC-SVG-20010904/DTD/svg10.dtd">
<svg version="1.0" xmlns="http://www.w3.org/2000/svg"
 width="1928.000000pt" height="1074.000000pt" viewBox="0 0 1928.000000 1074.000000"
 preserveAspectRatio="xMidYMid meet">
<metadata>
Created by potrace 1.16, written by Peter Selinger 2001-2019
</metadata>
<g transform="translate(0.000000,1074.000000) scale(0.100000,-0.100000)"
fill="#000000" stroke="none">
<path d="M14550 8025 c0 -4 12 -24 27 -43 18 -24 26 -47 26 -76 1 -43 -15
-1170 -17 -1266 0 -30 2 -67 6 -82 4 -16 4 -28 0 -28 -4 0 -7 -442 -6 -982 1
-662 -3 -985 -9 -990 -7 -4 -7 -11 0 -20 7 -9 11 -222 12 -658 1 -355 3 -664
6 -686 4 -37 1 -43 -18 -48 -22 -6 -34 4 -79 66 -9 13 -3 -4 13 -37 16 -33 29
-66 29 -72 0 -7 5 -13 11 -13 6 0 8 9 4 21 -6 18 -4 20 17 14 12 -4 31 -17 40
-29 16 -20 16 -22 -5 -33 l-22 -12 23 -1 c12 0 22 -4 22 -10 0 -5 -6 -10 -12
-10 -7 0 -1 -8 12 -17 49 -33 110 -98 105 -112 -3 -9 0 -11 10 -7 37 14 97
-99 103 -196 4 -71 21 -96 20 -30 0 20 5 55 11 77 l10 40 153 -3 c84 -2 158
-8 165 -13 11 -9 227 -5 363 7 30 2 87 6 125 7 l70 2 3 -72 c2 -40 7 -73 13
-73 6 0 8 30 7 73 l-3 72 58 3 c31 2 57 7 57 12 0 6 -7 10 -15 10 -8 0 -23 9
-32 20 -21 24 -33 26 -33 5 0 -9 -9 -15 -22 -15 -17 0 -19 3 -10 12 7 7 12 42
12 86 l0 75 92 -8 c50 -4 98 -8 107 -10 52 -9 181 -16 181 -9 0 5 -30 10 -68
12 -37 2 -85 8 -107 14 -22 6 -76 11 -120 12 -76 1 -80 2 -83 24 -3 22 -1 23
28 17 17 -4 62 -7 100 -8 39 -1 64 -4 58 -8 -26 -16 6 -23 126 -27 115 -4 124
-3 123 14 -1 11 6 19 18 21 17 2 17 2 3 -5 -11 -4 -14 -12 -9 -20 5 -9 32 -13
82 -13 41 0 91 -4 112 -9 35 -7 50 1 27 15 -6 4 -7 12 -4 18 4 7 3 9 -1 4 -5
-4 -18 -1 -29 6 -33 22 -76 26 -321 32 -126 3 -249 8 -272 11 l-42 5 0 557
c-1 306 -4 675 -8 820 -3 144 -3 262 0 262 3 0 15 -30 28 -68 12 -37 46 -124
75 -193 30 -69 54 -131 54 -138 0 -7 11 -37 25 -68 14 -30 53 -130 86 -222
107 -296 151 -415 166 -444 7 -15 15 -44 18 -65 2 -20 17 -66 33 -102 40 -88
104 -261 99 -267 -3 -2 -24 15 -47 39 -41 42 -47 35 -7 -9 10 -12 16 -26 13
-32 -4 -6 9 -13 29 -17 25 -4 40 -15 51 -35 8 -16 28 -38 44 -50 16 -12 26
-27 23 -32 -3 -6 -1 -7 5 -3 6 3 17 -2 24 -12 7 -10 22 -25 34 -33 36 -24 164
-143 164 -151 0 -4 -27 -8 -60 -8 -33 0 -60 -4 -60 -10 0 -11 10 -13 94 -14
l59 -1 42 -83 c73 -144 76 -122 5 31 -7 15 -10 30 -7 33 12 13 37 -6 73 -56
20 -27 40 -50 46 -50 10 0 -22 50 -47 70 -35 29 -14 32 178 24 105 -5 218 -7
250 -6 l57 2 0 -60 c0 -33 4 -60 10 -60 6 0 10 27 10 60 l0 60 38 0 c20 0 46
7 56 15 13 10 44 15 88 15 l68 0 0 -84 c0 -118 18 -121 22 -4 l3 93 73 -2 c39
-1 72 3 72 8 0 5 -10 10 -22 11 -13 1 -32 2 -43 3 -11 1 -33 3 -48 4 l-28 1 6
57 c11 96 14 1033 4 1033 -5 0 -10 -37 -10 -82 l-2 -83 -7 60 c-10 80 0 348
12 356 6 4 7 12 2 20 -11 17 -14 210 -4 204 4 -3 11 28 14 68 11 115 14 756 4
937 -5 91 -10 622 -12 1180 -2 558 -5 1022 -7 1030 -3 11 4 15 29 14 17 -1 32
3 32 7 0 5 -12 9 -26 9 -17 0 -28 6 -31 20 -3 10 -14 22 -24 25 -10 4 -25 12
-32 18 -25 23 -172 154 -197 175 -47 41 -134 102 -138 98 -17 -18 74 -120 155
-174 38 -25 143 -122 143 -132 0 -3 -57 -1 -127 3 -78 5 -256 4 -458 -2 l-330
-12 -23 28 c-47 56 -89 99 -160 167 -39 37 -72 69 -72 70 0 1 174 0 388 -2
288 -3 397 0 425 9 20 7 37 16 37 21 0 4 -30 9 -67 10 -64 2 -95 4 -118 8 -27
5 -379 -2 -519 -10 -87 -5 -163 -7 -168 -4 -16 10 -38 -17 -29 -35 5 -9 4 -49
-2 -91 -8 -61 -11 -1009 -4 -1298 2 -44 -2 -62 -10 -62 -17 0 -17 -82 -1 -98
8 -8 9 -12 1 -12 -11 0 -34 53 -63 145 -13 41 -81 216 -105 270 -7 17 -25 68
-40 115 -30 93 -28 89 -110 273 -31 71 -65 152 -75 180 -34 94 -100 251 -110
261 -19 19 -11 38 12 30 20 -6 21 -5 9 10 -7 9 -21 16 -31 16 -10 0 -33 20
-51 46 -19 25 -49 64 -67 87 -18 23 -49 64 -70 90 -20 27 -52 65 -70 85 l-32
37 6 -30 c10 -43 60 -122 114 -180 25 -27 58 -67 74 -87 16 -21 35 -38 42 -38
8 0 14 -4 14 -8 0 -11 -708 -3 -742 8 -17 6 -28 5 -28 -1 0 -11 -100 -12 -116
-1 -17 11 -85 104 -94 127 -10 26 -90 128 -96 122 -3 -2 13 -31 34 -63 38 -58
56 -94 47 -94 -3 0 -20 24 -39 53 -19 28 -46 63 -60 76 -29 27 -38 64 -11 41
10 -8 19 -10 25 -4 6 6 58 6 127 2 219 -13 712 -14 702 -2 -13 16 -155 23
-549 29 l-335 5 -33 43 c-41 52 -42 52 -42 42z m2063 -456 c0 -24 -4 -81 -8
-126 -4 -45 -8 -180 -9 -300 -1 -203 -2 -218 -20 -221 -16 -3 -18 2 -13 50 2
29 1 62 -4 73 -12 31 -15 -69 -3 -122 3 -16 0 -23 -11 -23 -12 0 -15 -16 -15
-90 0 -83 1 -90 20 -90 19 0 20 7 20 91 0 68 3 90 13 86 9 -3 12 -51 12 -195
0 -169 -5 -216 -19 -201 -3 2 -6 36 -7 74 -1 39 -6 81 -10 95 -6 16 -8 -4 -6
-57 2 -64 0 -77 -9 -62 -9 17 -10 11 -6 -28 2 -26 6 -104 7 -173 2 -132 9
-175 27 -164 6 4 9 1 6 -6 -9 -29 -26 -19 -36 22 -13 51 -25 193 -25 301 0 42
-3 80 -8 83 -5 3 -9 15 -9 28 0 13 -10 31 -22 42 -12 10 -18 13 -14 6 4 -7 10
-33 12 -57 3 -25 12 -58 20 -73 16 -31 18 -56 4 -47 -5 3 -10 17 -10 31 0 15
-4 23 -11 19 -11 -7 -6 -65 10 -122 11 -38 0 -43 -21 -10 -22 34 -31 77 -16
77 9 0 10 3 2 8 -13 8 -25 62 -13 62 4 0 9 -6 12 -12 2 -7 7 -11 10 -8 8 7 -4
61 -12 56 -4 -3 -6 23 -6 57 1 34 -4 92 -10 128 -6 36 -8 77 -4 90 8 33 0 162
-12 174 -9 9 -10 0 -14 -190 -4 -126 -4 -127 -15 -120 -7 4 -8 24 -4 50 3 24
2 50 -2 57 -12 18 -11 41 1 51 7 6 6 10 -1 13 -7 3 -8 20 -5 47 4 23 6 60 4
82 -1 22 -4 204 -7 405 -2 201 -5 370 -6 375 -10 50 7 39 121 -73 118 -116
121 -121 122 -163z m-1758 24 c-5 -10 -7 -22 -6 -28 1 -5 2 -154 1 -330 -1
-176 -3 -970 -6 -1765 -2 -795 -6 -1473 -8 -1508 -3 -35 -10 -70 -17 -78 -10
-13 -10 -17 1 -24 11 -7 12 -18 3 -54 -5 -25 -7 -47 -3 -48 5 -2 2 -9 -6 -16
-12 -11 -14 -6 -15 30 -1 24 -1 48 0 54 1 6 -4 16 -11 22 -10 8 -13 -49 -14
-289 -1 -165 -5 -303 -8 -306 -3 -4 -6 5 -7 18 -1 13 -3 49 -5 79 -1 30 -5
132 -7 226 -2 94 -7 176 -11 182 -3 6 0 13 6 15 7 3 4 6 -6 6 -20 1 -20 1 0
17 10 8 14 13 8 10 -15 -7 -26 21 -19 45 4 12 1 19 -7 19 -10 0 -14 -13 -12
-47 9 -178 11 -354 5 -333 -5 14 -11 88 -15 165 -4 77 -10 167 -13 200 -4 33
-6 103 -6 155 1 79 -2 96 -16 102 -15 6 -15 7 0 7 15 1 21 32 20 106 -1 148 0
165 12 158 6 -4 8 1 4 11 -5 14 -3 17 7 13 13 -5 13 -2 4 18 -6 14 -16 25 -22
25 -13 0 -20 85 -10 102 11 18 15 70 5 64 -5 -3 -8 6 -8 19 0 14 5 25 11 25 7
0 7 3 -1 8 -15 9 -13 152 2 152 5 0 4 5 -3 12 -7 7 -8 17 -2 28 8 14 5 19 -13
24 -21 5 -23 12 -26 82 -2 52 1 74 8 69 7 -4 11 4 11 19 0 13 -5 26 -12 28 -9
3 -13 63 -17 214 -7 338 -7 1413 1 1489 4 39 9 116 10 172 2 57 7 103 11 103
5 0 6 4 2 9 -3 6 -7 144 -9 308 -2 164 -7 324 -11 356 -5 39 -4 57 3 57 19 0
134 -161 143 -199 4 -20 7 -106 5 -191 -2 -157 1 -200 13 -200 4 0 7 93 8 208
1 234 9 206 -94 334 l-66 83 108 -107 c87 -86 106 -110 100 -125z m344 21 c12
-11 -18 -15 -128 -21 -67 -3 -124 -10 -128 -16 -6 -10 133 -5 322 12 61 6 189
13 285 17 96 3 177 8 180 9 3 1 15 -1 26 -5 14 -6 24 -21 28 -45 4 -20 10 -43
13 -51 12 -31 -14 -11 -41 31 -15 25 -31 44 -34 41 -3 -3 10 -29 28 -58 58
-90 116 -208 165 -333 26 -66 55 -138 64 -160 18 -40 36 -87 87 -225 15 -41
34 -91 42 -110 8 -19 14 -38 13 -43 0 -4 15 -40 35 -80 50 -98 47 -91 110
-282 30 -93 73 -215 94 -270 21 -55 53 -145 70 -199 30 -95 56 -164 105 -271
12 -27 35 -79 51 -115 44 -101 94 -173 109 -158 3 2 -7 40 -21 83 -25 77 -26
89 -30 385 -2 168 -6 315 -9 327 -3 12 -1 32 4 44 4 14 4 38 -1 58 -7 25 -6
36 4 42 10 7 10 9 1 9 -7 0 -13 5 -13 11 0 5 3 8 8 6 9 -6 10 39 16 748 2 308
5 570 5 583 l1 22 163 -2 c89 -2 234 1 323 6 l161 8 6 -68 c6 -76 12 -1386 10
-2279 -2 -1234 -2 -2039 2 -2044 2 -4 6 -100 10 -215 l6 -209 -38 6 c-21 4
-138 7 -260 7 l-223 0 0 25 c0 25 0 25 36 10 47 -20 54 -19 54 5 0 11 -4 20
-10 20 -5 0 -10 -4 -10 -9 0 -5 -21 -3 -46 5 l-45 13 6 -29 c6 -27 4 -30 -19
-30 -21 0 -26 5 -26 25 0 14 5 25 10 25 19 0 10 20 -14 31 -14 7 -27 23 -31
36 -7 29 2 44 14 24 5 -7 13 -11 19 -7 6 3 13 2 17 -4 3 -5 18 -10 33 -10 20
0 23 3 14 12 -7 7 -12 25 -12 40 0 15 -2 28 -4 28 -2 0 -11 3 -20 6 -13 5 -16
-1 -16 -26 0 -27 -3 -31 -17 -25 -10 4 -25 8 -33 9 -16 3 -28 31 -90 211 -23
66 -59 156 -80 200 -21 44 -53 125 -70 180 -18 55 -38 114 -45 130 -7 17 -23
59 -35 95 -19 54 -49 133 -95 245 -5 11 -9 24 -9 28 -1 4 -6 11 -12 15 -6 4
-15 18 -19 31 -6 20 -5 23 10 17 14 -5 15 -4 7 7 -6 7 -25 49 -43 92 -17 44
-36 89 -42 100 -6 11 -12 29 -13 40 -2 12 -18 54 -38 95 -19 41 -55 131 -81
199 -25 69 -49 130 -54 135 -4 6 -13 31 -20 56 -7 25 -32 95 -55 155 -24 61
-57 146 -73 190 -17 44 -34 89 -39 100 -4 11 -9 29 -10 40 -6 67 -6 70 -11 53
-2 -10 -8 -18 -12 -18 -13 0 -31 24 -31 42 0 10 -7 18 -15 18 -8 0 -15 5 -15
10 0 6 -5 10 -11 10 -5 0 0 -18 12 -40 13 -22 26 -40 31 -40 4 0 8 -7 8 -16 0
-14 -3 -14 -15 -4 -23 19 -29 5 -9 -25 14 -22 16 -40 10 -118 -9 -112 -8 -15
-7 -827 2 -839 -3 -1382 -12 -1396 -3 -6 -2 -26 3 -45 5 -19 10 -53 12 -77 l3
-44 -175 1 c-96 0 -290 0 -431 0 l-256 1 -7 41 c-4 22 -6 446 -5 942 0 496 0
1467 0 2157 -1 690 1 1330 5 1421 6 157 7 168 28 178 13 7 14 10 3 6 -20 -5
-33 16 -23 40 4 12 28 13 153 8 81 -3 150 -7 152 -9z m2295 -1135 c18 28 23 3
19 -91 -4 -90 -7 -105 -26 -121 -13 -12 -23 -15 -25 -8 -5 15 -20 14 -25 -1
-2 -7 -3 -5 -1 5 1 9 -6 22 -17 27 -16 9 -19 22 -19 95 0 77 2 85 19 85 25 0
30 -19 27 -108 -1 -47 2 -71 8 -69 6 2 11 21 11 43 2 116 6 158 14 145 6 -9
11 -10 15 -2z m17 -255 c-1 -19 3 -42 9 -50 8 -8 8 -14 2 -14 -6 0 -12 6 -15
13 -2 6 -6 -1 -9 -16 -4 -18 0 -34 10 -43 10 -10 12 -18 5 -22 -11 -7 -10 -51
2 -123 4 -22 4 -61 0 -88 -6 -41 -10 -48 -28 -48 -21 0 -22 5 -25 87 -2 48 2
106 8 129 9 33 8 46 -1 58 -10 12 -10 16 2 24 8 5 10 9 6 9 -4 0 -2 10 5 23
15 27 15 28 17 74 0 20 4 33 8 29 4 -4 6 -23 4 -42z m-10 -892 c-8 -3 -3 -15
16 -34 26 -28 26 -30 6 -24 -22 7 -23 4 -24 -41 0 -26 -1 -87 -2 -136 -1 -48
2 -87 6 -87 4 0 7 -28 6 -62 -1 -35 1 -72 5 -83 5 -18 2 -20 -21 -19 -22 1
-29 7 -34 32 -8 38 -1 48 17 24 12 -15 13 -15 13 8 0 14 2 38 5 55 6 35 -1 50
-17 36 -9 -7 -12 23 -11 122 0 117 -2 133 -18 145 -16 12 -17 15 -3 28 8 9 15
20 15 25 0 13 -18 11 -23 -3 -2 -7 -8 -9 -13 -5 -13 12 18 27 42 21 15 -4 24
0 29 13 6 14 8 15 13 4 3 -8 -1 -17 -7 -19z m-1332 -1138 c11 -10 17 -23 14
-29 -2 -7 0 -16 6 -20 14 -8 56 -101 66 -143 4 -19 23 -63 42 -98 19 -35 31
-68 28 -74 -3 -5 -1 -10 5 -10 7 0 10 -7 6 -15 -3 -8 -1 -15 5 -15 6 0 9 -7 5
-15 -3 -8 -1 -15 4 -15 6 0 10 -9 10 -20 0 -11 5 -20 10 -20 6 0 9 -3 8 -7 -1
-5 4 -19 11 -32 11 -20 11 -25 0 -32 -13 -8 -5 -13 14 -10 5 1 6 -3 3 -8 -4
-5 -2 -12 4 -16 6 -3 10 -18 9 -33 -1 -15 6 -44 15 -66 10 -21 15 -40 13 -42
-8 -8 -108 209 -148 321 -15 44 -44 118 -63 164 -20 47 -39 100 -42 118 -3 18
-10 33 -15 33 -5 0 -9 9 -9 19 0 11 -4 22 -9 25 -8 6 -22 56 -15 56 2 0 12 -7
23 -16z m1358 -146 c-3 -9 1 -25 9 -35 8 -11 13 -13 14 -5 0 6 7 12 15 12 12
0 15 -15 14 -80 -1 -77 -2 -80 -25 -80 -23 0 -24 3 -24 65 0 62 -9 80 -27 53
-8 -14 -6 -126 3 -140 3 -5 10 -6 15 -3 5 4 9 -1 9 -9 0 -22 -17 -29 -24 -10
-3 9 -13 14 -21 11 -12 -5 -14 12 -13 103 1 92 4 107 16 102 12 -4 14 -1 9 13
-6 15 -5 16 8 5 20 -17 21 7 0 36 -8 12 -12 24 -8 28 9 9 35 -46 30 -66z
m-2875 -170 c0 -18 0 -82 -1 -143 -5 -369 0 -562 18 -608 12 -31 36 -27 26 4
-4 10 -4 19 -2 19 8 0 47 -70 47 -85 0 -7 3 -15 8 -17 11 -5 42 -88 32 -88 -7
0 -31 34 -70 98 -8 14 -29 38 -45 53 -30 27 -31 29 -34 146 -4 111 -5 405 -2
576 0 44 5 77 11 77 6 0 11 -15 12 -32z m2844 -83 c-4 -14 -2 -25 4 -25 5 0 7
-14 5 -32 -3 -18 -3 -27 1 -20 3 6 10 12 15 12 6 0 7 -5 3 -11 -3 -6 0 -16 7
-21 11 -8 10 -9 -3 -5 -9 3 -22 -1 -28 -9 -12 -13 -7 -18 14 -15 5 1 6 -5 2
-14 -3 -9 -2 -13 3 -10 5 3 12 1 16 -4 9 -15 36 -1 45 23 5 12 6 -11 4 -59 -6
-118 -13 -145 -35 -145 -17 0 -19 8 -19 85 0 47 -4 85 -9 85 -12 0 -25 -56
-17 -69 4 -5 2 -12 -4 -16 -6 -3 -11 4 -11 17 -1 13 -3 34 -5 48 -3 23 -4 40
-4 93 0 9 0 34 -1 56 -2 36 6 61 18 61 3 0 2 -11 -1 -25z"/>
<path d="M14795 4528 c1 -35 0 -67 -3 -73 -9 -14 -11 -55 -4 -55 4 0 8 -18 10
-40 2 -34 -1 -41 -25 -54 -16 -8 -22 -15 -15 -16 6 0 12 -5 12 -11 0 -5 -4 -8
-10 -4 -13 8 -6 -83 8 -97 15 -15 15 -28 2 -28 -5 0 -10 7 -10 16 0 8 -4 13
-9 10 -12 -8 -1 -56 13 -56 8 0 8 -2 -1 -8 -14 -9 -28 -92 -15 -92 5 0 14 11
20 25 6 14 18 25 26 25 9 0 13 10 10 33 -1 17 -4 34 -4 37 -1 3 -2 14 -1 26 1
11 -3 33 -9 49 -8 22 -8 30 2 37 7 4 9 8 3 8 -5 0 -3 5 5 10 13 9 13 11 0 20
-11 8 -12 12 -3 18 13 8 25 202 15 255 -9 50 -20 28 -17 -35z"/>
<path d="M16746 7322 c-2 -4 -5 -54 -7 -112 l-3 -105 63 1 c38 1 66 6 71 13
11 19 -1 195 -14 203 -15 10 -104 10 -110 0z"/>
<path d="M16938 7324 c-5 -4 -8 -54 -8 -110 0 -102 0 -104 25 -110 32 -8 98 4
107 19 11 17 9 169 -1 186 -10 15 -111 28 -123 15z"/>
<path d="M17130 7311 c-5 -11 -10 -56 -10 -101 0 -75 1 -81 24 -91 15 -7 43
-9 72 -4 l47 7 -7 75 c-3 42 -6 89 -6 105 0 27 -1 28 -55 28 -43 0 -56 -4 -65
-19z"/>
<path d="M16744 6917 c-2 -7 -3 -60 -2 -118 l3 -104 29 -3 c16 -2 43 -1 60 2
l31 6 0 102 c0 57 -4 109 -8 116 -11 17 -106 16 -113 -1z"/>
<path d="M16942 6922 c-9 -6 -12 -36 -10 -112 3 -119 9 -127 81 -116 l47 7 0
109 c0 89 -3 109 -16 114 -23 9 -87 7 -102 -2z"/>
<path d="M17133 6914 c-3 -8 -6 -58 -7 -111 l-1 -96 30 -8 c16 -5 46 -4 65 1
l35 10 2 102 c1 70 -2 105 -10 110 -23 15 -107 9 -114 -8z"/>
<path d="M16738 6403 c-5 -134 -5 -133 52 -133 81 0 80 -2 80 121 l0 109 -64
0 -64 0 -4 -97z"/>
<path d="M16751 5696 c-8 -9 -11 -50 -9 -117 l3 -104 60 0 60 0 3 111 3 111
-32 7 c-49 10 -76 7 -88 -8z"/>
<path d="M16963 5702 l-33 -3 0 -109 0 -109 44 -6 c78 -12 86 -1 86 119 l0
104 -32 3 c-18 2 -48 3 -65 1z m77 -118 l0 -95 -42 3 -42 3 -3 75 c-3 102 0
110 48 110 l39 0 0 -96z"/>
<path d="M17143 5702 c-7 -4 -14 -49 -18 -109 -7 -95 -6 -102 13 -112 23 -12
81 -14 98 -3 7 4 13 47 15 111 4 96 3 105 -16 112 -26 10 -77 11 -92 1z m71
-18 c13 -5 16 -24 16 -100 l0 -94 -40 0 -40 0 0 93 c0 52 3 97 7 100 8 9 36 9
57 1z"/>
<path d="M16748 5269 c-15 -8 -18 -25 -18 -110 0 -99 0 -100 27 -110 14 -5 45
-7 68 -4 l41 7 1 108 c0 102 -1 109 -21 114 -32 9 -79 6 -98 -5z m95 -51 c2
-18 3 -60 2 -93 l-2 -60 -47 -3 -47 -3 2 79 c2 84 5 96 29 105 40 15 58 7 63
-25z"/>
<path d="M16937 5274 c-4 -4 -7 -56 -7 -115 l0 -107 29 -7 c16 -3 46 -3 65 1
l37 6 -3 112 -3 111 -55 3 c-31 2 -59 0 -63 -4z"/>
<path d="M17150 5268 c-18 -7 -20 -16 -20 -112 0 -91 2 -105 18 -110 21 -7
104 6 103 17 -1 4 -1 52 -1 106 l0 99 -40 4 c-22 2 -49 0 -60 -4z"/>
<path d="M16548 5253 c-2 -10 -2 -58 1 -108 4 -63 10 -90 19 -89 6 1 28 2 47
3 l35 1 0 99 0 99 -31 6 c-50 10 -66 7 -71 -11z"/>
<path d="M16742 4738 l3 -112 54 -4 c38 -2 56 0 62 10 5 7 9 59 9 116 l0 102
-65 0 -66 0 3 -112z"/>
<path d="M16953 4844 c-9 -4 -13 -37 -13 -115 l0 -109 43 0 c85 0 83 -2 82
118 l0 107 -50 2 c-27 1 -56 0 -62 -3z"/>
<path d="M17141 4832 c-5 -10 -11 -58 -12 -108 l-2 -89 59 0 59 0 7 95 c5 52
6 101 3 108 -3 7 -24 12 -54 12 -38 0 -53 -4 -60 -18z"/>
<path d="M16571 4441 c-10 -6 -14 -36 -15 -110 -1 -99 0 -102 23 -108 13 -3
40 -2 60 3 l36 9 0 105 0 105 -45 3 c-25 1 -51 -2 -59 -7z"/>
<path d="M16755 4418 c-3 -18 -5 -69 -3 -112 3 -79 3 -80 33 -88 18 -4 43 -3
63 3 l33 11 -5 74 c-2 41 -1 88 4 104 10 34 0 40 -70 40 -47 0 -49 -1 -55 -32z"/>
<path d="M16947 4443 c-4 -3 -7 -55 -7 -114 l0 -107 26 -5 c14 -2 43 0 65 5
l39 10 0 109 0 109 -58 0 c-32 0 -62 -3 -65 -7z"/>
<path d="M17168 4442 c-15 -3 -18 -15 -18 -70 0 -37 -3 -84 -7 -106 l-6 -39
56 5 c32 3 58 7 59 9 2 2 2 50 0 106 l-3 101 -32 -1 c-18 -1 -40 -3 -49 -5z"/>
<path d="M16577 4023 c-4 -3 -7 -55 -7 -114 0 -118 2 -121 59 -108 19 4 38 6
43 3 14 -9 20 47 9 91 -6 24 -11 57 -11 74 0 20 -8 35 -22 45 -23 16 -60 21
-71 9z"/>
<path d="M16960 4010 c-17 -17 -19 -31 -17 -112 l2 -93 51 -3 c33 -2 54 2 60
10 6 7 8 54 6 106 -4 88 -5 94 -29 103 -36 13 -51 11 -73 -11z"/>
<path d="M16980 3641 c-24 -6 -25 -12 -32 -96 -4 -50 -6 -95 -4 -101 6 -15 77
-26 92 -13 6 5 17 8 24 7 9 -2 12 23 10 96 -1 55 -3 104 -6 108 -6 9 -48 9
-84 -1z"/>
<path d="M16755 3622 c-11 -29 -5 -180 8 -189 24 -20 56 -20 85 -3 30 18 30
20 31 109 0 50 -3 91 -7 92 -53 7 -113 2 -117 -9z"/>
<path d="M17145 3628 c-2 -7 -6 -52 -10 -100 l-6 -88 40 0 c22 0 50 4 63 9 22
8 23 12 20 100 l-3 91 -50 0 c-31 0 -51 -5 -54 -12z"/>
<path d="M4768 7968 c-2 -24 -7 -32 -18 -29 -49 14 -922 4 -884 -9 48 -17 680
-31 792 -17 52 6 62 5 62 -8 0 -8 -4 -15 -9 -15 -6 0 -21 -10 -35 -22 -15 -13
-51 -41 -82 -63 -31 -22 -75 -57 -99 -77 -23 -21 -46 -38 -51 -38 -11 0 -64
-58 -64 -70 0 -10 -434 -1 -475 10 -21 6 6 9 85 10 98 1 222 4 333 9 15 0 27
5 27 10 0 6 -36 8 -87 6 -49 -2 -159 -4 -245 -5 -137 -1 -159 -3 -168 -18 -7
-14 -9 -14 -10 -2 0 13 -2 13 -9 1 -7 -11 -13 -12 -23 -4 -16 13 -35 16 -115
14 -49 -1 -63 -4 -63 -16 0 -8 -5 -15 -11 -15 -5 0 -7 5 -4 10 3 6 -1 10 -10
10 -9 0 -14 -4 -10 -9 5 -10 -82 -28 -91 -19 -2 3 16 18 40 34 89 59 282 193
311 217 52 43 19 42 -52 -2 -37 -23 -143 -92 -234 -154 -91 -61 -174 -117
-185 -124 -17 -10 -16 -11 11 -10 28 2 30 -1 36 -43 4 -25 7 -180 7 -345 -1
-165 3 -406 7 -535 4 -129 8 -253 9 -274 1 -29 -6 -47 -24 -68 -24 -28 -25
-28 -151 -28 l-127 0 -41 41 c-22 22 -46 39 -52 37 -6 -2 -17 -18 -24 -35
l-13 -31 28 11 c22 8 32 8 44 -2 28 -23 18 -31 -36 -28 l-53 2 -3 593 c-3 546
0 632 21 580 10 -25 -4 359 -15 399 -1 4 2 22 6 40 6 28 12 32 44 35 81 8
-282 7 -594 -1 -311 -9 -333 -11 -370 -31 -21 -12 -50 -32 -64 -45 -40 -37
-184 -118 -188 -106 -6 17 -22 13 -22 -5 0 -9 -8 -23 -18 -31 -22 -17 -93 -55
-96 -51 -2 2 -10 14 -19 28 l-17 24 0 -26 c0 -16 -9 -33 -22 -42 -19 -13 -20
-16 -5 -16 13 0 17 -8 17 -32 -1 -18 1 -96 4 -173 13 -371 21 -660 20 -755 0
-145 -13 -451 -21 -530 -4 -36 -5 -69 -3 -75 1 -5 4 -86 6 -180 1 -93 8 -294
14 -445 11 -241 10 -601 -3 -1165 -1 -44 2 -111 6 -150 4 -38 12 -108 17 -155
6 -47 17 -116 26 -155 8 -38 17 -81 20 -95 16 -79 120 -300 190 -404 18 -28
31 -52 28 -55 -2 -3 -41 31 -86 75 -44 43 -73 68 -64 54 38 -57 355 -366 416
-405 36 -23 71 -49 78 -57 7 -8 14 -48 15 -88 3 -65 1 -73 -17 -80 -13 -5 61
-9 179 -10 215 -2 243 -4 321 -17 77 -14 710 -17 719 -4 4 8 -18 11 -67 12
-40 0 -82 3 -93 6 -11 3 -44 8 -72 10 -29 3 -53 9 -53 14 0 13 98 11 102 -1 2
-7 27 -6 75 3 49 9 92 11 139 5 37 -4 70 -6 72 -3 3 3 10 1 17 -5 6 -5 74 -12
150 -15 115 -4 147 -2 183 12 32 12 46 13 54 5 15 -15 48 -16 48 -2 0 6 15 17
33 25 17 8 28 14 23 15 -6 0 -2 6 9 13 10 8 15 18 12 24 -10 16 42 36 58 23 9
-7 87 -10 232 -9 120 1 234 1 253 1 27 -1 31 1 19 8 -17 10 -85 14 -209 11
-71 -2 -134 10 -114 21 5 3 36 2 70 -1 34 -4 72 -3 85 0 13 4 17 8 9 9 -8 1
-31 4 -50 7 -19 4 -72 7 -118 7 -50 1 -81 5 -79 11 2 6 9 11 15 11 7 1 22 2
35 4 20 1 19 3 -6 10 -29 9 -55 2 -88 -22 -13 -8 -26 -9 -50 -1 l-34 11 35 1
c19 1 42 6 50 12 11 8 1 9 -38 6 -36 -3 -58 -10 -68 -23 -9 -10 -13 -14 -10
-9 2 6 -8 16 -24 23 -31 14 -48 42 -25 42 7 0 16 -3 18 -7 3 -5 97 -6 209 -4
362 7 512 6 551 -3 24 -5 37 -5 37 2 0 16 -77 23 -313 31 -10 1 -16 5 -12 10
5 9 187 6 252 -4 17 -3 34 -1 38 5 4 6 -8 10 -32 10 -21 0 -105 5 -187 10 -98
6 -162 6 -190 0 -22 -6 -70 -12 -106 -15 -70 -4 -65 0 15 11 41 6 46 8 25 13
-27 8 -78 7 -138 -3 -20 -3 -30 -3 -22 1 8 3 17 10 20 14 7 10 96 12 299 6 91
-3 174 -1 185 3 19 8 19 9 -6 9 -15 1 -30 6 -34 12 -5 9 1 10 20 5 15 -4 37
-4 49 0 l22 7 -22 8 c-13 5 -79 9 -148 10 -69 0 -127 5 -130 10 -3 4 -25 6
-48 3 -72 -9 -137 -9 -137 -1 0 7 -61 4 -143 -8 -26 -4 -47 -4 -47 0 0 4 78
87 174 184 218 222 250 257 240 272 -5 9 -2 10 9 6 11 -4 14 -2 10 9 -3 7 1
14 8 14 7 0 10 3 6 6 -3 3 10 32 29 65 33 56 108 241 118 291 3 13 19 77 36
143 43 161 58 244 74 390 2 17 0 35 -6 42 -5 7 -5 14 1 17 7 5 7 15 1 32 -5
13 -9 28 -9 32 1 4 1 12 0 17 0 6 -3 89 -6 185 -8 317 -16 494 -21 502 -3 5
-1 15 6 23 8 10 8 24 2 49 -6 19 -8 37 -5 40 3 3 5 169 4 368 -3 310 -1 1208
1 1548 1 58 -1 195 -5 305 l-5 200 39 19 c21 11 39 23 39 28 0 11 -17 10 -24
-1 -3 -5 -17 -11 -31 -13 -21 -4 -25 -2 -24 16 4 44 -1 86 -10 86 -6 0 -11
-15 -13 -32z m-1778 -60 c0 -7 -34 -35 -76 -63 -42 -27 -101 -72 -132 -98 -83
-73 -128 -100 -156 -95 -14 3 -31 1 -38 -3 -9 -6 -6 -9 10 -9 26 0 28 -6 7
-26 -8 -9 -15 -11 -15 -5 0 7 -72 9 -221 5 -173 -4 -224 -3 -230 7 -5 9 -53
13 -183 13 -97 1 -176 3 -175 6 0 8 89 66 190 125 52 30 108 68 124 85 l29 30
225 0 c124 0 289 5 366 11 77 5 159 12 183 13 24 2 46 6 49 10 11 11 43 6 43
-6z m-22 -338 c-11 -319 -11 -283 -3 -815 4 -225 3 -430 -2 -455 -8 -41 -11
-45 -38 -46 -17 0 -39 -5 -50 -11 -11 -6 -35 -13 -54 -17 -28 -5 -38 -2 -57
19 -21 22 -24 38 -30 150 -4 69 -9 123 -12 120 -3 -3 -5 -66 -4 -140 2 -82 -1
-135 -7 -135 -14 0 -17 48 -10 215 3 83 5 234 5 337 -1 108 3 184 8 180 5 -3
6 1 1 8 -6 11 -9 140 -4 273 0 21 -1 41 -4 43 -2 3 -1 22 4 42 5 20 11 89 15
152 l5 115 37 32 c20 18 40 32 44 33 4 0 6 -22 3 -50 -2 -27 0 -50 4 -50 12 0
21 83 11 95 -6 7 15 34 56 73 35 35 64 69 64 75 0 12 21 39 26 34 1 -1 -2
-126 -8 -277z m1789 183 c-10 -160 -7 -2026 3 -2078 6 -27 -1 -167 -7 -161
-10 9 -10 9 -11 139 -1 59 -6 107 -11 107 -6 0 -8 -49 -6 -122 3 -96 7 -125
19 -134 22 -15 22 -89 1 -80 -8 3 -15 1 -15 -4 0 -6 4 -10 9 -10 5 0 8 -19 6
-42 -1 -24 -1 -47 2 -51 3 -5 6 -61 8 -125 2 -115 12 -348 19 -487 2 -38 2
-62 -1 -52 -11 39 -21 12 -27 -75 -4 -51 -11 -109 -16 -128 -8 -34 -8 -34 -10
15 -1 28 -5 59 -10 70 -10 23 -10 24 -16 -265 -5 -246 -8 -283 -34 -365 -21
-66 -56 -145 -64 -145 -2 0 -7 7 -10 16 -3 8 -2 12 4 9 6 -3 9 2 8 12 -3 37 2
54 14 47 8 -5 9 -2 5 9 -3 10 -2 17 3 17 6 0 10 11 10 24 0 14 5 28 10 31 6 3
10 11 10 16 0 6 -4 7 -10 4 -5 -3 -10 -2 -10 4 0 5 6 11 13 14 9 3 9 7 0 18
-15 18 -6 62 11 52 6 -3 8 -3 4 2 -4 4 -3 14 2 20 6 8 7 21 1 36 -8 23 -9 23
-26 -16 -10 -22 -19 -47 -20 -55 -6 -43 -18 -80 -26 -80 -5 0 -9 -6 -9 -13 0
-18 -24 -67 -32 -67 -9 0 -5 36 5 46 10 11 -2 24 -23 24 -21 0 -32 -21 -19
-41 7 -11 9 -9 9 9 0 12 4 22 8 22 14 0 0 -62 -24 -107 -12 -24 -25 -57 -29
-73 -4 -17 -10 -28 -14 -26 -4 3 -13 -12 -20 -32 -16 -45 -54 -125 -62 -132
-4 -3 -10 -20 -14 -38 -3 -17 -11 -32 -16 -32 -12 0 -14 -7 27 95 19 50 39
108 44 130 16 77 19 87 30 100 8 10 7 14 -2 18 -8 4 -7 6 5 6 10 1 17 -6 18
-16 0 -14 2 -15 6 -3 4 8 12 21 20 28 15 16 18 36 3 27 -5 -3 -10 2 -10 11 0
14 -3 15 -12 6 -23 -23 -29 -12 -6 13 50 53 52 56 37 66 -8 5 -9 9 -4 9 6 0
19 -10 29 -22 l19 -22 18 23 c22 26 27 73 7 53 -21 -21 -36 -14 -30 16 3 15 7
21 9 15 6 -16 29 -17 39 -1 5 7 2 9 -9 5 -11 -4 -14 -2 -10 9 3 7 9 14 14 14
9 0 37 55 42 85 2 11 8 29 12 39 6 13 3 22 -7 30 -13 10 -13 13 -1 25 12 11
14 10 11 -4 -2 -10 2 -20 8 -22 6 -2 10 7 9 19 -1 13 -9 24 -18 26 -9 2 -17
11 -16 20 0 11 2 12 6 5 9 -23 20 -14 20 17 0 30 -12 41 -19 18 -3 -7 -5 2 -5
20 0 22 4 29 11 22 15 -15 30 -12 18 3 -6 7 -13 30 -15 50 -6 52 -17 59 -17
11 0 -21 -5 -55 -10 -74 -6 -19 -11 -79 -12 -134 -2 -72 -5 -93 -12 -77 -11
24 -31 29 -22 5 4 -10 -3 -26 -18 -41 -23 -22 -24 -23 -19 -4 3 12 10 21 15
21 7 0 8 20 3 55 -7 59 0 95 18 95 8 0 8 -3 -1 -12 -11 -11 -18 -78 -8 -78 2
0 11 -3 20 -6 9 -3 16 -1 16 6 0 6 -4 9 -9 5 -5 -3 -12 -1 -15 4 -4 5 -2 12 3
15 5 3 7 28 6 56 -2 32 1 50 9 50 7 0 6 4 -3 9 -11 7 -18 37 -20 92 -1 9 -8
20 -17 23 -9 4 -13 2 -8 -5 4 -6 8 -30 10 -53 2 -33 -2 -45 -17 -54 -15 -10
-20 -9 -29 7 -14 27 -13 107 3 123 6 7 13 28 15 46 5 69 42 95 42 29 0 -20 3
-28 10 -21 6 6 6 21 0 42 -7 27 -6 34 8 39 9 4 29 15 44 25 16 11 32 16 38 13
5 -3 10 -1 10 4 0 6 -6 11 -14 11 -8 0 -17 15 -20 36 -4 19 -16 44 -26 54 -10
10 -17 27 -16 37 2 10 1 12 -1 6 -5 -16 -43 -17 -43 -2 0 5 4 8 9 5 9 -6 6
169 -4 184 -2 4 3 14 12 21 9 8 14 9 11 4 -4 -6 -3 -17 1 -24 6 -9 10 -5 15
13 4 15 10 24 15 22 5 -3 8 8 6 24 -2 33 -15 54 -15 27 0 -31 -16 -17 -27 23
-11 44 -8 48 19 23 17 -15 18 -15 18 8 -1 13 -14 40 -30 59 -17 19 -30 28 -30
21 0 -7 -6 -11 -12 -8 -7 2 -12 12 -10 22 2 10 -1 21 -6 24 -6 3 -14 19 -18
35 -5 21 -4 27 5 22 6 -4 11 -13 11 -21 0 -7 7 -16 16 -19 14 -5 15 1 10 41
-8 64 -13 183 -15 326 0 66 -5 117 -11 117 -9 0 -4 -319 6 -352 3 -10 1 -18
-4 -18 -11 0 -3 -48 9 -56 12 -7 12 -24 0 -24 -5 0 -11 10 -15 23 -5 17 -8 19
-15 9 -6 -10 -11 -5 -20 19 -11 31 -15 78 -4 51 2 -6 8 -10 13 -7 4 3 2 25 -6
50 -7 25 -11 52 -7 60 3 9 -1 23 -8 32 -10 12 -10 15 -1 9 10 -6 11 1 7 31 -4
21 -7 45 -8 53 -2 8 -5 20 -9 25 -4 6 -9 87 -13 180 -3 94 -8 224 -11 290 -4
96 -15 532 -16 645 0 14 1 199 2 411 2 385 2 387 23 398 69 35 147 108 147
138 0 15 5 21 14 17 8 -3 16 4 20 20 3 14 11 26 16 26 6 0 31 20 58 45 26 25
49 45 51 45 2 0 1 -39 -2 -87z m-2627 -144 c0 -9 -38 -19 -75 -20 -16 0 -46
-7 -65 -14 l-35 -14 40 5 c22 3 169 6 328 7 l287 2 1 -425 c0 -234 1 -553 0
-708 0 -317 6 -290 -75 -333 -31 -17 -44 -19 -63 -10 -13 6 -37 11 -53 11 -39
0 -82 -51 -79 -94 4 -39 -2 -48 -79 -119 -60 -56 -64 -58 -102 -52 -34 6 -43
3 -66 -20 -27 -27 -27 -33 -9 -106 5 -20 -5 -43 -50 -112 -48 -74 -61 -87 -90
-93 -60 -11 -85 -63 -57 -120 16 -34 15 -38 -16 -134 -30 -91 -35 -99 -63
-105 -20 -5 -35 -18 -48 -43 l-19 -36 -6 164 c-9 217 -15 343 -23 465 -4 55
-5 240 -2 410 5 427 5 803 -1 1174 l-5 315 25 6 c33 8 400 7 400 -1z m1838
-32 c8 -7 52 -10 112 -8 106 3 271 -7 288 -18 7 -4 12 -226 16 -651 6 -637 10
-883 21 -1173 6 -146 6 -148 -14 -138 -11 6 -37 32 -58 58 -41 51 -52 65 -107
131 -28 35 -34 48 -30 75 4 23 -1 41 -18 67 -21 31 -29 35 -70 36 -37 1 -58
10 -114 49 -38 27 -82 61 -99 76 -16 14 -49 38 -72 53 -48 29 -55 46 -20 46
23 0 57 -31 70 -63 6 -15 27 -25 27 -12 0 20 -32 75 -50 88 -22 16 -35 15 -78
-6 -17 -8 -35 -8 -70 1 -84 22 -182 63 -191 80 -5 10 -12 148 -15 307 -13 635
-25 936 -42 992 -6 22 -6 22 147 26 198 5 350 -2 367 -16z m-816 -1386 c71
-58 73 -60 58 -71 -13 -8 -13 -10 2 -10 10 0 42 16 72 35 30 19 62 35 71 35 8
0 15 4 15 9 0 9 66 8 74 0 2 -2 6 -33 10 -67 7 -59 6 -63 -11 -58 -53 16 -258
25 -344 16 -117 -12 -111 -12 -103 1 3 6 7 26 9 45 2 38 22 67 42 60 7 -3 13
1 13 11 0 12 8 15 39 10 22 -3 46 -10 53 -16z m456 -28 c79 -26 98 -38 68 -45
-12 -3 -12 -7 -1 -33 14 -30 14 -30 9 -3 -8 38 14 44 65 18 37 -19 40 -22 26
-36 -19 -20 -19 -34 0 -34 8 0 15 7 15 15 0 27 38 16 110 -32 38 -27 70 -51
70 -54 0 -4 -18 -3 -40 1 -29 5 -40 4 -37 -4 2 -6 24 -11 48 -11 48 0 94 -28
84 -53 -3 -10 0 -12 10 -8 8 3 15 1 15 -4 0 -6 7 -10 15 -10 8 0 15 -4 15 -9
0 -5 41 -50 90 -99 95 -94 109 -119 63 -108 -16 4 -46 9 -68 12 -22 3 -54 12
-72 20 -17 8 -40 14 -51 14 -12 0 -41 24 -74 61 -80 92 -215 180 -364 239 -96
38 -112 51 -88 71 12 9 15 10 10 2 -10 -18 22 -17 58 2 15 8 34 15 42 15 7 0
15 4 19 9 6 11 -60 3 -85 -9 -8 -4 -24 -4 -36 0 -16 6 -21 18 -23 54 -1 32 2
46 11 46 7 0 50 -12 96 -27z m-286 -128 c36 -3 80 -10 96 -16 l30 -10 7 -102
c4 -56 5 -203 3 -327 -4 -183 -8 -234 -23 -273 -9 -26 -14 -51 -11 -55 4 -3 9
4 13 16 11 45 25 22 21 -36 -4 -57 -6 -61 -87 -153 -46 -52 -88 -104 -94 -117
-7 -15 -16 -21 -26 -16 -9 3 -30 10 -47 15 l-31 9 -16 172 c-9 95 -27 287 -39
425 -13 139 -26 253 -30 253 -9 0 2 -226 17 -360 2 -19 9 -94 15 -165 6 -72
17 -176 24 -230 9 -72 10 -102 2 -107 -18 -13 -28 -9 -33 13 -3 11 -24 58 -45
102 -22 45 -42 93 -45 107 -3 14 -7 211 -10 438 -4 393 -4 412 14 412 32 1
128 12 132 16 3 2 25 2 50 -1 25 -2 76 -7 113 -10z m-342 -215 c-1 -116 -5
-200 -11 -200 -5 0 -9 12 -10 28 -3 80 -15 242 -19 252 -1 3 -1 16 0 29 1 14
-2 21 -9 17 -6 -4 -9 -1 -5 7 3 8 0 18 -7 22 -11 8 -10 -43 6 -225 7 -75 26
-150 37 -150 4 0 8 -5 8 -11 0 -5 -4 -8 -9 -5 -5 4 -5 -6 1 -22 7 -18 8 -66 3
-137 -7 -104 -8 -108 -22 -81 -8 15 -17 26 -20 23 -7 -8 28 -57 41 -57 8 0 8
-3 0 -8 -7 -5 -8 -36 -3 -97 12 -141 8 -142 -82 -20 -43 59 -77 111 -74 115 3
5 -1 11 -7 14 -9 4 -10 8 -2 11 6 3 10 18 9 33 -2 15 -6 56 -9 92 -3 36 -10
117 -15 180 -6 63 -13 153 -16 199 -3 47 -9 89 -15 95 -15 15 -5 -168 26 -449
11 -104 12 -145 4 -145 -14 0 -67 74 -79 111 -6 19 -12 58 -12 87 -1 28 -4 50
-8 48 -3 -2 -7 74 -9 169 l-3 172 76 32 c41 17 103 38 136 45 34 8 64 17 67
20 3 3 11 6 19 6 11 0 13 -37 13 -200z m617 136 c196 -86 244 -116 331 -205
96 -98 178 -204 215 -276 14 -28 41 -76 60 -108 88 -145 144 -452 118 -650
-41 -308 -146 -539 -340 -749 -107 -115 -308 -258 -364 -258 -7 0 -35 61 -67
153 l-55 152 0 147 c0 82 3 148 7 148 3 0 24 -33 46 -72 58 -109 201 -336 229
-366 25 -27 25 -27 11 -2 -8 14 -60 99 -115 190 -152 250 -176 301 -181 376
-3 39 0 64 6 64 5 0 114 -101 241 -225 127 -124 234 -225 239 -225 4 0 -98
104 -225 231 -128 126 -237 238 -242 247 -10 20 -18 109 -10 117 3 3 98 -45
210 -106 249 -136 399 -212 406 -205 3 2 -15 15 -39 27 -97 51 -133 70 -350
188 l-228 124 0 43 c0 24 3 44 8 44 4 0 35 -5 69 -10 149 -24 581 -80 613 -79
l35 1 -40 9 c-44 10 -511 75 -613 85 -34 4 -65 11 -69 17 -12 19 -12 76 0 85
7 5 53 17 102 26 249 47 636 137 617 144 -12 4 -127 -19 -512 -102 -113 -24
-209 -41 -213 -36 -5 4 -7 27 -5 51 l3 44 140 77 c274 151 519 297 511 305 -5
5 -115 -55 -261 -142 -107 -64 -372 -205 -384 -205 -7 0 -11 27 -11 70 l0 69
93 110 c50 60 119 144 152 186 33 42 90 115 128 161 37 47 67 87 67 89 0 18
-42 -27 -145 -157 -161 -203 -276 -338 -288 -338 -15 0 -2 170 17 214 14 33
14 37 1 26 -13 -11 -15 19 -15 259 0 156 4 271 9 271 5 0 45 -15 88 -34z
m-1187 -23 c0 -3 -7 -14 -15 -23 -10 -11 -16 -42 -18 -89 -3 -60 -7 -74 -25
-87 -12 -8 -30 -30 -40 -48 -21 -40 -115 -166 -124 -166 -10 0 -28 60 -28 97
0 23 5 35 18 39 9 3 24 9 32 13 9 5 30 12 47 15 36 8 35 20 -4 73 -30 41 -25
52 59 127 55 48 98 70 98 49z m218 -213 c2 -94 0 -170 -5 -170 -4 0 -27 26
-50 58 -23 32 -54 69 -69 82 -15 14 0 -11 33 -55 91 -121 90 -119 95 -298 5
-138 3 -157 -10 -152 -8 3 -95 55 -192 115 -97 61 -180 110 -184 110 -20 0 18
-27 162 -115 216 -134 222 -139 222 -181 0 -20 5 -34 13 -35 10 0 10 -2 0 -6
-7 -2 -13 -14 -13 -24 0 -11 4 -18 9 -15 5 3 14 -1 21 -10 10 -12 11 -17 1
-27 -10 -9 -11 -9 -6 4 4 10 0 16 -10 16 -10 0 -15 -10 -15 -29 0 -31 -1 -32
-50 -18 -19 6 -136 31 -260 56 -124 24 -231 46 -237 49 -9 3 -5 27 17 89 16
46 31 92 33 102 2 11 11 37 21 59 10 22 19 45 20 52 1 7 9 20 18 30 9 10 19
29 23 43 7 23 50 89 66 100 4 3 9 12 11 20 2 7 18 29 36 47 17 19 32 38 32 43
0 6 7 10 15 10 8 0 15 4 15 9 0 18 209 211 228 211 4 0 8 -77 10 -170z m1450
-49 c9 -5 42 -12 72 -16 93 -11 128 -24 149 -54 12 -16 21 -33 21 -39 0 -5 6
-15 14 -21 7 -6 19 -33 26 -59 7 -26 16 -51 20 -57 19 -25 27 -104 15 -139 -7
-20 -9 -33 -4 -31 4 3 10 1 14 -5 10 -17 14 -199 4 -206 -5 -3 -4 -14 2 -26 8
-14 9 -51 3 -117 -5 -53 -7 -103 -5 -111 5 -32 4 -146 -3 -173 -4 -18 -11 -25
-19 -20 -7 4 -7 1 2 -10 9 -11 12 -32 9 -62 -3 -25 -2 -42 3 -39 13 8 11 -53
-2 -79 -19 -36 -51 -67 -71 -67 -10 0 -29 -7 -42 -16 -36 -23 -41 -1 -11 46
14 22 23 45 19 51 -3 5 -1 15 4 22 5 7 13 28 17 47 4 19 11 40 15 45 5 6 10
26 12 45 2 19 8 34 14 33 8 -2 9 8 4 32 -5 23 -3 49 7 76 7 23 11 49 7 58 -4
9 -9 41 -11 71 -2 30 -8 87 -12 125 -6 49 -5 72 3 77 8 5 7 8 -1 8 -8 0 -13
15 -13 39 0 22 -4 42 -8 45 -5 3 -19 40 -32 83 -15 50 -44 111 -81 170 -33 51
-59 99 -59 107 0 8 -10 27 -23 43 -33 41 -87 120 -87 127 0 8 9 7 28 -3z
m-1931 -28 c-6 -33 11 -125 25 -134 6 -4 -5 -36 -25 -75 -19 -38 -49 -116 -67
-174 -17 -58 -36 -113 -41 -122 -5 -10 -9 -25 -9 -33 0 -8 -7 -15 -15 -15 -8
0 -15 -7 -15 -15 0 -15 -13 -19 -60 -17 -16 0 -18 -1 -7 -5 22 -6 22 -10 -9
-50 -24 -31 -64 -45 -64 -22 0 6 6 9 14 6 11 -4 13 1 10 18 -2 13 2 30 9 37 8
7 12 20 9 30 -2 10 1 18 8 18 9 0 8 7 -4 25 -21 32 -20 46 5 119 11 34 22 67
25 75 4 11 7 11 21 0 14 -12 15 -11 9 8 -7 21 -5 22 21 17 21 -4 38 2 70 27
l42 32 -20 25 c-10 14 -19 30 -19 37 0 7 -7 15 -15 19 -25 9 -17 38 35 119 51
80 77 99 67 50z m609 -326 c20 -34 40 -64 44 -67 10 -6 136 -174 149 -197 8
-16 15 -57 12 -76 -1 -4 -40 19 -88 51 -49 33 -104 67 -123 77 -19 10 -38 23
-42 29 -12 17 -10 258 2 251 5 -3 26 -34 46 -68z m1712 -145 c11 -51 19 -115
19 -142 -1 -28 2 -51 6 -53 10 -3 11 -136 1 -232 -4 -38 -7 -81 -8 -95 0 -14
-5 -29 -11 -33 -7 -6 -6 -10 1 -13 13 -5 9 -28 -21 -122 -9 -30 -18 -52 -21
-49 -5 5 14 228 20 234 3 3 1 15 -4 28 -5 14 -5 26 3 34 8 8 8 11 -1 11 -8 0
-10 16 -7 53 15 172 13 294 -11 447 -12 81 13 31 34 -68z m-1018 -104 c0 -35
-4 -68 -8 -74 -4 -5 -35 -27 -70 -48 -60 -36 -92 -41 -92 -14 0 19 147 198
162 198 4 0 8 -28 8 -62z m-678 0 c127 -79 188 -127 188 -149 0 -18 -4 -20
-43 -14 -105 16 -112 19 -115 50 -2 17 -7 34 -11 38 -4 4 -6 -6 -3 -23 4 -29
3 -30 -37 -30 -27 0 -44 5 -47 15 -7 16 -11 155 -5 155 2 0 35 -19 73 -42z
m-1014 -17 c-2 -11 9 -33 25 -49 l29 -30 -8 -118 c-6 -108 -9 -120 -32 -141
-14 -13 -29 -23 -34 -23 -10 0 -1 356 9 373 8 14 14 7 11 -12z m255 -113 c-3
-68 -7 -125 -9 -127 -2 -2 -28 22 -58 55 -40 43 -52 63 -45 75 12 24 100 119
109 119 5 0 6 -55 3 -122z m204 93 c128 -26 328 -69 376 -82 l37 -10 0 -69 c0
-39 -3 -70 -7 -70 -78 0 -517 -52 -528 -62 -6 -5 6 -7 30 -3 52 7 305 32 418
41 l87 7 0 -92 0 -91 -67 -32 c-219 -101 -415 -199 -411 -204 3 -3 82 30 174
74 250 117 294 136 301 128 4 -4 6 -48 4 -99 l-2 -92 -129 -130 c-71 -71 -133
-134 -137 -140 -15 -19 62 50 155 140 51 50 97 92 102 93 6 2 11 -45 12 -115
1 -65 3 -147 4 -183 2 -99 39 -211 96 -292 24 -35 14 -35 -34 -3 -20 14 -40
25 -43 25 -11 0 -125 90 -204 159 -115 102 -244 266 -292 371 -17 36 -34 73
-39 82 -5 9 -22 63 -37 120 -26 97 -28 114 -28 313 0 116 4 218 8 229 5 13 14
17 31 12 13 -3 69 -15 123 -25z m-337 -99 c0 -11 25 -45 56 -78 64 -67 76 -92
67 -134 -5 -28 -7 -29 -19 -13 -13 17 -13 17 -14 0 0 -9 9 -25 20 -34 11 -10
20 -26 20 -37 0 -11 12 -64 26 -118 14 -55 24 -101 22 -104 -7 -6 -99 45 -125
70 -12 12 -29 27 -38 34 -8 7 -13 17 -10 22 3 5 2 18 -4 27 -14 28 10 56 43
47 28 -7 34 -31 15 -66 -6 -11 -8 -22 -5 -25 3 -3 10 7 16 22 6 15 19 40 30
56 23 31 12 47 -20 27 -16 -10 -24 -10 -40 -1 -10 7 -27 10 -37 6 -15 -5 -16
-3 -6 7 9 10 10 17 2 27 -7 7 -8 13 -4 13 4 0 2 7 -6 16 -12 15 -23 228 -12
247 8 14 23 7 23 -11z m961 -36 c100 -19 114 -24 117 -43 3 -23 -10 -26 -178
-38 l-85 -6 3 60 c3 44 7 58 17 55 7 -3 64 -15 126 -28z m199 -21 c-5 -6 -7
-14 -4 -18 3 -3 1 -15 -6 -26 -8 -16 -8 -21 1 -21 9 0 9 -3 0 -14 -9 -11 -9
-15 0 -18 7 -2 14 -15 16 -29 2 -13 13 -31 24 -39 l20 -16 -25 -84 c-14 -47
-34 -107 -46 -135 l-21 -50 7 50 c19 145 20 170 12 176 -5 3 -8 10 -7 15 1 5
0 11 -1 14 -4 10 -7 225 -2 233 2 5 13 1 23 -9 13 -12 16 -21 9 -29z m170 29
c22 -9 45 -25 50 -35 35 -65 -34 -172 -96 -149 -12 5 -24 6 -27 4 -13 -13 -47
20 -58 55 -9 32 -8 44 6 75 15 32 54 64 77 66 4 0 26 -7 48 -16z m-255 -104
c16 -25 -9 -50 -81 -80 -41 -17 -97 -44 -125 -60 -27 -17 -51 -30 -53 -30 -2
0 -2 35 -1 78 l2 77 45 3 45 3 10 -43 11 -43 -2 45 -1 45 60 6 c33 3 65 6 72
7 6 1 15 -3 18 -8z m-1 -85 c9 -24 -4 -47 -53 -93 -26 -24 -61 -58 -78 -75
-32 -30 -58 -32 -33 -2 11 13 11 18 0 28 -10 9 -11 9 -6 -1 4 -7 2 -19 -4 -27
-6 -8 -9 -18 -6 -23 6 -11 -30 -62 -44 -62 -5 0 -11 17 -13 38 -3 34 -4 33 -5
-10 -3 -82 -22 -54 -22 32 l0 79 68 39 c37 21 87 47 112 57 25 10 49 22 55 27
14 12 22 10 29 -7z m429 -80 l77 -86 0 -62 -1 -62 -22 27 c-47 58 -149 238
-144 253 4 8 8 15 10 15 2 0 38 -38 80 -85z m-143 17 c0 -16 25 -100 56 -188
31 -87 69 -199 86 -249 16 -49 63 -184 103 -300 40 -115 97 -286 128 -380 58
-179 166 -476 186 -512 16 -32 14 -35 -21 -31 l-32 3 -101 300 c-114 341 -104
312 -169 510 -26 83 -64 195 -83 250 -39 113 -108 325 -148 460 -15 50 -34
103 -42 118 -16 32 -10 47 18 47 14 0 19 -7 19 -28z m-105 -14 c-4 -18 -18
-73 -31 -122 -14 -48 -29 -111 -35 -140 -5 -28 -34 -130 -64 -226 -31 -97 -57
-184 -59 -195 -11 -56 -39 -154 -52 -182 -7 -17 -14 -40 -14 -51 0 -12 -4 -23
-8 -26 -5 -3 -17 -36 -26 -73 -32 -129 -48 -188 -56 -208 -11 -29 -82 -344
-88 -386 -4 -35 -6 -37 -50 -43 -25 -3 -47 -5 -49 -3 -1 2 8 32 22 67 13 34
28 79 31 99 4 20 42 137 84 261 43 124 105 322 139 440 34 118 77 262 96 320
19 58 41 134 50 170 42 178 90 330 103 330 10 0 12 -8 7 -32z m-181 -83 c0
-52 -5 -90 -12 -97 -7 -7 -12 -19 -12 -27 0 -11 4 -10 15 5 8 10 15 14 15 8 0
-6 -6 -17 -14 -24 -9 -7 -13 -23 -11 -41 2 -16 0 -43 -5 -59 -5 -18 -5 -32 1
-35 5 -4 9 8 9 24 0 17 5 31 10 31 6 0 8 -10 6 -22 -3 -13 -8 -50 -11 -83 -3
-33 -15 -94 -26 -135 -22 -81 -96 -311 -112 -348 -13 -27 -26 -17 -30 23 -4
37 -15 64 -36 89 -12 14 -12 17 -2 11 11 -6 13 -4 8 8 -4 10 -2 28 3 41 7 20
5 27 -16 41 -13 9 -22 20 -18 26 3 5 1 16 -6 24 -13 16 -25 288 -15 354 6 40
8 43 16 24 12 -32 20 -29 13 5 -4 24 3 35 63 87 37 33 88 81 113 108 25 26 47
47 50 47 3 0 5 -38 4 -85z m435 -65 l71 -114 0 -96 c0 -52 3 -106 7 -120 9
-36 -8 -16 -24 28 -31 83 -143 418 -143 427 0 16 15 -5 89 -125z m-199 81 c0
-17 94 -307 179 -551 22 -63 36 -118 33 -121 -19 -18 -89 -30 -151 -27 -38 2
-69 6 -68 9 1 4 -20 22 -48 40 -38 26 -57 48 -78 91 l-28 58 16 62 c9 35 26
97 39 138 38 120 86 297 86 315 0 9 5 13 10 10 6 -3 10 -14 10 -24z m-1393
-22 c14 -8 26 -28 30 -49 3 -19 17 -66 30 -105 22 -64 22 -71 8 -80 -41 -25
-46 -33 -48 -73 -2 -54 16 -72 83 -80 l53 -7 34 -64 c18 -35 42 -76 53 -91 26
-37 25 -47 -4 -54 -14 -3 -28 -15 -31 -27 -11 -33 4 -88 26 -99 24 -13 86 -16
117 -6 19 6 34 -4 98 -66 l76 -74 -18 -31 c-23 -39 -12 -80 27 -102 34 -19 99
-7 106 20 3 10 13 19 23 19 30 0 164 -67 189 -95 16 -17 30 -24 42 -20 12 4
19 1 19 -8 0 -23 -10 -26 -41 -10 -36 18 -40 16 -28 -14 5 -14 17 -23 29 -23
11 0 20 -6 20 -13 0 -13 -77 -295 -101 -369 -12 -38 -13 -38 -68 -38 -63 0
-75 -6 -85 -37 -4 -13 -12 -23 -17 -23 -14 0 -67 38 -118 85 -24 22 -40 34
-36 27 16 -30 -41 12 -114 82 -106 102 -223 265 -278 385 -38 83 -96 277 -108
361 -3 25 -13 77 -21 115 -16 82 -17 85 -6 85 5 0 23 -55 41 -122 18 -68 44
-145 57 -173 13 -27 22 -43 20 -35 -3 8 -20 65 -39 125 -57 181 -75 256 -86
345 -12 91 -15 321 -5 358 6 21 8 21 28 9 11 -8 31 -20 43 -28z m207 -129 c37
-19 72 -43 78 -54 9 -16 8 -18 -6 -13 -19 7 -19 5 -6 -25 7 -16 6 -46 -2 -98
-11 -65 -16 -75 -32 -72 -27 5 -49 30 -42 47 3 8 -6 32 -20 53 -14 20 -28 49
-31 64 -3 15 -12 33 -19 39 -17 14 -19 33 -3 23 8 -5 9 6 4 36 -4 24 -3 41 2
39 5 -2 39 -20 77 -39z m2388 -106 c-4 -57 -32 -141 -53 -160 -18 -16 -19 -16
-19 6 0 13 -6 31 -14 39 -8 9 -19 34 -25 55 -12 44 0 60 52 70 15 3 30 13 33
21 12 30 29 9 26 -31z m-2261 -55 c40 -81 115 -194 160 -244 62 -68 92 -106
87 -111 -3 -2 -29 -1 -59 3 -62 9 -79 30 -79 99 0 23 -6 46 -12 52 -18 15 -93
28 -85 15 4 -6 23 -14 42 -17 40 -8 42 -11 48 -78 4 -46 3 -48 -22 -48 -33 0
-81 38 -83 66 -1 12 -8 21 -16 20 -8 -1 -25 20 -39 47 -14 26 -29 47 -34 47
-5 0 -9 7 -9 15 0 20 9 19 33 -2 19 -17 20 -17 15 10 -3 15 1 53 8 84 7 32 11
68 8 80 -11 41 5 24 37 -38z m2119 19 c0 -6 16 -45 35 -86 l36 -75 -28 -40
c-15 -22 -33 -47 -38 -56 -53 -85 -152 -201 -171 -201 -4 0 -4 13 -1 30 6 30
-5 46 -23 35 -7 -4 -7 -12 0 -25 7 -13 7 -21 0 -25 -15 -10 -12 -23 7 -27 14
-3 11 -10 -19 -43 -51 -57 -200 -157 -221 -149 -12 4 -17 1 -17 -10 0 -9 -8
-20 -17 -23 -10 -4 -36 -19 -57 -35 -21 -15 -44 -28 -51 -28 -6 0 -23 34 -37
75 l-26 76 62 28 c110 50 242 150 331 252 56 64 80 89 71 72 -5 -9 -2 -11 8
-7 18 7 22 24 6 24 -5 0 13 34 40 75 27 42 59 98 72 125 22 47 38 63 38 38z
m156 -325 c-10 -103 -22 -161 -56 -263 -50 -150 -117 -298 -176 -388 -61 -94
-181 -218 -266 -276 -52 -34 -53 -35 -56 -13 -2 12 -8 27 -13 34 -6 6 -41 104
-78 216 l-68 205 24 11 c32 15 43 14 43 -4 0 -8 3 -15 8 -15 4 0 20 -11 36
-25 26 -22 32 -24 50 -12 32 21 51 66 38 88 -8 13 -8 19 1 22 7 2 0 4 -15 4
-29 1 -47 -34 -22 -44 8 -3 14 -11 14 -18 0 -16 -53 -31 -58 -16 -2 6 -10 11
-17 11 -8 0 -17 5 -20 10 -10 16 16 42 37 37 10 -3 18 0 18 6 0 17 78 84 159
138 67 45 76 48 95 35 36 -23 81 -29 95 -12 21 25 4 36 -44 29 -57 -7 -59 7
-8 53 38 35 48 34 55 -1 6 -33 33 -24 33 10 0 23 -5 31 -22 33 -13 2 -23 6
-23 8 0 10 60 90 98 132 32 34 46 42 75 42 26 0 39 6 47 20 19 36 23 22 16
-57z m-1380 35 c5 -18 9 -38 9 -43 0 -6 10 -25 23 -42 12 -17 22 -36 22 -42 0
-6 6 -11 14 -11 19 0 29 -17 20 -32 -5 -7 -11 -5 -21 7 -12 17 -13 17 -13 2 0
-9 5 -17 10 -17 14 0 12 -49 -2 -64 -18 -17 -48 -27 -48 -16 0 6 -5 10 -11 10
-8 0 -7 -5 2 -16 7 -8 21 -13 31 -11 21 6 22 3 6 -23 -7 -10 -8 -23 -4 -27 5
-4 11 -2 13 5 7 19 23 14 17 -5 -5 -17 -5 -17 9 0 20 24 28 21 18 -5 -8 -22
-51 -35 -51 -16 0 5 -9 7 -20 3 -23 -7 -87 9 -116 30 -21 14 -21 16 -5 62 9
27 19 50 23 53 4 3 9 21 12 40 10 69 40 190 47 190 4 0 11 -15 15 -32z m-783
-84 c3 -4 36 -8 73 -10 40 -1 70 -8 75 -15 11 -18 40 -180 34 -190 -3 -4 4
-13 16 -19 16 -9 20 -9 14 -1 -9 15 -36 183 -30 189 2 3 37 -18 77 -45 88 -61
238 -143 261 -143 10 0 17 -8 17 -18 0 -22 -29 -113 -40 -125 -10 -12 -136 34
-205 75 -31 18 -68 40 -83 48 -15 8 -29 17 -32 20 -3 3 -35 32 -73 64 -40 35
-71 71 -77 90 -9 28 -10 29 -6 4 4 -37 -6 -35 -43 7 -30 35 -38 55 -24 68 8 9
38 9 46 1z m1151 -100 c-31 -57 -94 -126 -142 -156 -52 -32 -50 -13 5 44 89
94 113 121 113 130 0 5 -3 8 -7 6 -47 -23 -63 -33 -63 -42 0 -19 -86 -116
-102 -116 -12 0 -10 14 5 29 10 10 9 11 -5 6 -17 -7 -17 -5 -4 26 19 46 40 52
31 9 -7 -31 -7 -32 11 -13 52 54 58 63 41 63 -10 0 -17 -7 -17 -16 0 -23 -24
-11 -28 14 -3 18 2 22 26 22 16 0 43 7 61 16 17 9 38 13 46 10 9 -3 19 3 26
15 7 13 14 18 20 12 6 -6 -1 -28 -17 -59z m125 -241 c13 -38 26 -73 28 -79 10
-29 -296 -80 -313 -53 -4 6 17 33 45 60 62 59 53 66 -12 9 -25 -22 -48 -40
-52 -40 -11 0 -165 93 -165 99 0 3 40 7 88 8 48 1 128 9 177 18 50 9 105 19
123 22 18 3 35 10 38 14 11 19 20 7 43 -58z m-428 -49 c38 -27 78 -53 89 -59
35 -17 24 -35 -22 -35 -70 0 -290 39 -305 53 -3 3 -2 11 2 17 5 8 11 8 20 0 9
-7 16 -6 24 4 10 12 9 13 -8 9 -28 -7 -35 15 -17 59 l15 36 66 -18 c44 -12 90
-35 136 -66z m-126 -115 c5 -5 17 -9 27 -9 20 0 24 -15 6 -26 -6 -4 -14 -2
-16 4 -9 27 -24 10 -18 -20 14 -70 88 -101 145 -62 19 14 22 23 18 50 -4 24
-1 34 11 40 9 4 81 9 160 11 155 3 183 7 225 29 34 19 45 13 53 -34 4 -20 12
-48 19 -62 7 -14 33 -86 58 -160 25 -74 48 -142 51 -150 6 -13 -53 -15 -484
-18 -269 -1 -490 1 -490 4 0 10 102 418 106 425 5 9 117 -10 129 -22z m887
-450 c-14 -12 -179 -77 -247 -97 -38 -12 -146 -33 -239 -47 -93 -14 -175 -30
-183 -36 -9 -8 -52 -8 -160 0 -317 24 -339 28 -448 81 -131 62 -156 92 -85
102 45 6 1369 3 1362 -3z m129 -6 c1 -5 2 -45 4 -90 l2 -81 -193 1 c-190 2
-238 9 -149 23 25 3 45 10 45 16 0 5 17 16 38 25 51 21 204 92 222 103 19 11
30 12 31 3z m-1547 -82 c28 -16 83 -39 121 -51 39 -13 74 -26 78 -30 4 -4 -54
-6 -130 -6 l-138 1 -1 58 c0 31 4 57 9 57 5 0 33 -13 61 -29z"/>
<path d="M3375 5748 c-5 -24 -9 -52 -9 -63 -1 -11 -5 -26 -9 -32 -5 -7 -6 -17
-3 -21 3 -5 1 -25 -5 -45 -5 -21 -12 -49 -13 -65 -2 -15 -9 -45 -15 -67 -11
-42 -20 -90 -27 -139 -2 -16 -10 -52 -18 -80 -36 -125 -62 -291 -43 -265 5 7
86 341 92 379 3 19 12 71 20 115 14 75 25 136 41 230 10 61 12 95 4 95 -4 0
-11 -19 -15 -42z"/>
<path d="M2916 4475 c-27 -65 -56 -116 -105 -185 -25 -35 -49 -71 -52 -79 -10
-27 -31 26 -24 59 10 45 29 51 22 7 -3 -21 -2 -37 4 -37 5 0 9 7 9 15 0 8 4
15 8 15 4 0 12 13 18 28 9 23 8 33 -3 48 -14 18 -14 17 -8 -13 3 -18 2 -34 -4
-38 -6 -3 -11 1 -11 9 0 9 -4 16 -9 16 -5 0 -12 12 -14 28 -3 22 -4 20 -6 -10
-1 -39 -16 -52 -24 -20 -2 9 -4 -15 -3 -54 1 -56 4 -70 14 -62 9 8 12 6 12 -6
0 -9 -5 -16 -10 -16 -7 0 -7 -7 0 -20 6 -11 8 -25 5 -30 -3 -5 -1 -19 5 -31
14 -24 4 -40 -11 -19 -16 23 0 -30 16 -56 8 -12 11 -31 8 -43 -3 -12 -1 -21 6
-21 6 0 11 4 11 9 0 9 58 101 63 101 1 0 2 -11 2 -24 0 -13 -3 -22 -6 -20 -10
6 -32 -52 -31 -84 0 -15 -3 -31 -7 -37 -3 -5 -6 -19 -5 -30 1 -11 2 -31 3 -44
1 -28 13 -21 18 12 2 12 7 31 12 42 33 72 53 188 37 213 -6 11 18 69 35 82 4
3 9 21 13 40 l6 35 -16 -37 c-9 -21 -20 -38 -25 -38 -5 0 -9 -7 -9 -15 0 -8
-4 -15 -10 -15 -5 0 -10 16 -10 35 0 19 5 35 10 35 6 0 10 11 10 25 0 14 4 25
9 25 5 0 11 14 15 31 3 17 10 28 15 25 5 -4 12 8 16 25 8 36 0 51 -10 18 -4
-12 -22 -47 -40 -78 -37 -64 -52 -126 -35 -146 8 -9 8 -20 2 -31 -8 -14 -11
-10 -16 19 -4 20 -4 48 -1 64 4 23 2 21 -15 -12 -11 -22 -20 -35 -21 -30 0 6
-7 -3 -15 -20 -13 -26 -14 -27 -10 -5 3 14 6 31 6 38 0 7 5 10 10 7 6 -3 10 1
10 9 0 9 8 24 18 34 9 10 27 36 39 57 56 103 83 156 81 163 -1 4 3 17 11 30 7
13 10 28 8 35 -3 7 -12 -6 -21 -28z"/>
<path d="M5370 7929 c-25 -17 -62 -47 -83 -67 -29 -28 -40 -34 -46 -23 -6 9
-11 10 -15 2 -4 -6 -5 -15 -2 -20 6 -9 -99 -113 -150 -148 -16 -12 -43 -25
-58 -29 -22 -5 -25 -9 -14 -15 12 -7 13 -18 6 -56 -13 -68 -14 -824 -3 -1593
12 -778 13 -1297 3 -1625 -11 -362 -12 -590 -3 -605 5 -9 4 -11 -3 -6 -9 5
-12 -6 -12 -38 0 -24 4 -46 9 -48 13 -4 23 -98 11 -98 -5 0 -11 19 -13 43 -3
40 -4 40 -5 -10 -1 -37 2 -52 10 -50 9 1 12 -81 9 -364 -2 -261 1 -369 9 -374
6 -4 8 -15 5 -26 -4 -11 -2 -19 4 -19 6 0 11 9 11 20 0 18 4 20 43 13 23 -5
102 -7 176 -7 73 1 127 -2 120 -7 -7 -4 77 -8 187 -8 110 0 208 -3 218 -7 9
-4 27 -2 39 4 65 30 182 43 203 22 11 -11 26 1 49 40 25 43 186 249 222 285
32 32 39 44 33 60 -7 17 -9 17 -9 3 -1 -10 -5 -18 -11 -18 -14 0 -12 63 3 79
10 11 10 13 0 7 -16 -9 -18 30 -3 39 11 7 3 175 -9 185 -3 3 -6 173 -7 377 -1
300 1 371 12 362 12 -10 94 -188 94 -206 0 -5 25 -85 55 -177 49 -148 165
-513 246 -771 46 -146 75 -225 87 -237 22 -22 12 -28 -44 -28 -34 0 -53 -4
-49 -10 9 -14 491 -13 675 2 80 6 235 11 345 12 l200 1 20 -37 c11 -21 22 -38
25 -38 9 0 5 95 -4 101 -8 6 78 129 90 129 8 0 -17 -43 -42 -73 -13 -16 -24
-33 -24 -40 0 -6 16 8 36 31 20 24 45 43 57 43 17 1 18 2 5 6 -21 5 -21 8 -8
32 7 13 17 17 36 13 18 -3 25 -1 20 6 -4 6 -13 9 -21 5 -8 -3 -15 -3 -15 0 0
12 25 63 45 92 11 17 25 39 32 50 6 11 16 19 23 17 13 -3 5 48 -11 78 -19 33
-99 221 -99 231 0 6 -12 36 -26 67 -34 74 -30 63 -124 302 -45 113 -90 226
-101 253 -11 26 -33 86 -50 135 -33 96 -59 166 -94 257 -13 33 -35 103 -50
155 -28 97 -85 246 -136 356 -15 33 -31 73 -34 87 -4 15 -11 30 -16 32 -4 3
-7 11 -5 18 1 7 1 9 -1 5 -8 -13 -21 -9 -27 8 -7 19 20 54 41 54 7 0 13 5 13
10 0 6 10 21 23 33 13 12 45 49 71 81 26 33 71 80 98 105 52 47 131 155 131
178 0 7 4 13 8 13 4 0 9 7 13 15 3 8 2 15 -3 15 -4 0 -28 -32 -52 -71 -24 -39
-61 -90 -82 -113 l-39 -41 34 50 c45 68 128 208 128 217 0 5 4 8 9 8 5 0 7 -9
4 -20 -3 -11 -1 -20 4 -20 7 0 26 55 38 110 1 3 11 37 24 75 39 123 41 138 63
470 21 312 15 398 -38 570 -13 44 -24 84 -24 88 0 5 -13 36 -29 70 -35 73 -50
123 -32 113 6 -4 11 -2 11 3 0 6 -7 11 -15 11 -8 0 -12 6 -9 14 8 20 -72 153
-153 254 -21 26 -22 31 -7 25 16 -6 16 -4 -3 23 -60 83 -197 182 -377 273 -78
38 -169 79 -204 90 -34 11 -79 33 -100 48 -30 22 -33 23 -18 5 11 -12 17 -22
14 -22 -3 0 -70 15 -149 34 -192 46 -304 59 -484 58 -541 -5 -914 -7 -905 -4
12 4 14 22 3 22 -5 0 -28 -14 -53 -31z m490 -34 c30 -3 163 -1 295 4 251 8
410 -2 519 -34 27 -8 53 -12 58 -9 5 3 16 -2 23 -12 9 -11 14 -14 15 -6 0 6 4
12 10 12 5 0 9 -5 7 -11 -3 -14 12 -21 103 -50 41 -13 94 -32 118 -42 58 -25
63 -16 7 12 -55 27 -70 47 -29 37 44 -11 174 -64 223 -92 24 -13 49 -24 55
-24 7 0 17 -5 24 -12 6 -6 41 -28 76 -47 36 -20 81 -49 101 -66 20 -16 52 -43
72 -60 19 -16 56 -61 80 -100 25 -38 58 -88 73 -110 23 -34 50 -95 50 -113 0
-3 -10 3 -21 14 -22 19 -22 19 -10 -3 6 -13 16 -23 21 -23 5 0 18 -28 29 -62
32 -101 50 -148 66 -172 8 -12 22 -58 30 -102 9 -43 20 -101 26 -129 15 -71
29 -279 23 -350 -6 -85 -14 -115 -30 -115 -10 0 -13 7 -9 23 16 67 22 118 14
123 -5 3 -6 11 -2 17 12 18 11 29 -5 61 -7 15 -9 26 -4 22 5 -3 9 7 9 22 0 15
-2 21 -4 15 -6 -16 -24 -17 -21 -2 2 6 -3 14 -11 17 -8 2 -11 0 -7 -6 3 -5 0
-12 -8 -15 -15 -6 -49 -67 -37 -67 13 0 31 24 31 43 0 10 5 17 11 15 7 -2 12
-39 13 -100 2 -76 0 -95 -11 -91 -7 3 -13 9 -13 14 0 5 -4 9 -10 9 -5 0 -10
-7 -10 -15 0 -8 4 -15 9 -15 5 0 7 -18 5 -40 -2 -27 0 -40 9 -40 8 0 9 -3 1
-8 -14 -9 -25 -52 -13 -52 5 0 9 7 9 15 0 22 17 19 23 -4 4 -19 -25 -76 -34
-66 -3 2 -5 -35 -6 -83 -2 -121 -1 -120 -12 -103 -5 8 -8 25 -6 38 2 17 -2 23
-11 19 -20 -7 -17 4 4 20 12 10 12 12 2 9 -11 -4 -15 2 -16 20 -1 14 1 25 5
25 11 0 10 34 -1 41 -5 3 -5 17 1 32 7 18 7 27 -2 31 -9 3 -9 7 2 14 10 7 10
11 1 17 -9 6 -9 10 1 16 8 5 9 9 4 9 -7 0 -11 34 -11 88 0 49 -4 94 -8 100 -3
6 -1 14 5 18 8 5 8 8 -1 14 -6 4 -13 23 -15 43 -1 21 1 34 6 31 5 -3 6 2 2 12
-5 13 -2 15 14 10 12 -4 20 -2 20 6 0 7 3 23 7 36 5 16 3 22 -7 22 -9 0 -17
-6 -19 -12 -3 -7 -5 7 -6 31 -1 24 -7 50 -13 57 -6 8 -8 21 -5 30 4 10 1 14
-6 12 -8 -3 -13 -34 -13 -96 -2 -87 -7 -113 -21 -99 -4 3 -7 27 -8 52 0 24 -4
45 -8 45 -5 0 -8 13 -8 29 0 39 -29 163 -41 176 -5 5 -9 15 -9 23 0 34 -119
249 -173 312 -7 9 -16 24 -20 34 -4 9 -11 15 -16 12 -5 -3 -22 9 -38 27 -120
134 -353 282 -528 336 -194 60 -340 87 -560 102 -167 12 -311 9 -680 -10 -99
-5 -259 -12 -355 -15 -158 -6 -173 -5 -155 9 49 37 175 145 238 204 l69 64
196 -7 c109 -4 222 -9 252 -11z m468 -281 c278 -31 415 -62 605 -136 71 -28
147 -65 170 -82 23 -18 68 -49 99 -70 60 -39 184 -170 211 -221 8 -16 33 -48
55 -70 22 -22 38 -43 36 -47 -2 -3 6 -22 19 -41 32 -47 93 -249 117 -388 5
-26 13 -64 19 -84 6 -21 8 -42 4 -48 -12 -20 -20 -76 -12 -88 6 -10 9 -11 9
-1 0 6 5 12 11 12 7 0 9 -67 5 -217 -7 -263 -9 -292 -18 -287 -4 3 -5 -10 -3
-27 2 -18 -1 -42 -8 -53 -6 -12 -12 -30 -13 -41 -2 -11 -9 -40 -18 -65 -9 -25
-16 -51 -16 -58 0 -26 -84 -209 -132 -290 -55 -92 -123 -155 -282 -263 l-89
-61 -19 24 -19 23 15 -31 c14 -29 14 -33 -4 -52 -11 -11 -30 -24 -42 -28 -21
-8 -20 -9 11 -14 31 -5 36 -11 78 -105 63 -141 146 -346 178 -440 15 -44 70
-180 122 -303 52 -123 92 -226 90 -229 -7 -6 -29 33 -168 292 -61 116 -143
267 -180 338 -38 70 -98 186 -134 257 -36 72 -118 224 -182 338 -187 333 -254
454 -263 476 -5 12 -18 35 -29 51 -24 35 -26 45 -7 45 21 0 112 148 134 220
37 118 45 181 44 343 -2 178 -13 236 -68 353 -36 77 -110 161 -186 212 -53 34
-47 39 8 8 27 -15 41 -20 33 -10 -7 8 -31 25 -53 36 -23 11 -43 24 -46 28 -3
4 -32 17 -65 29 -54 20 -72 22 -178 17 -65 -3 -127 -10 -137 -16 -10 -5 -36
-11 -57 -12 -35 -1 -35 -2 -7 -5 l31 -4 -4 -592 c-2 -326 1 -620 5 -654 5 -37
4 -69 -1 -79 -16 -28 12 -36 114 -30 146 9 196 21 303 76 80 41 102 48 112 38
6 -7 42 -71 79 -143 37 -71 100 -188 140 -260 40 -71 110 -202 155 -290 106
-206 203 -386 300 -555 43 -74 130 -234 195 -355 65 -121 126 -231 135 -245 9
-14 38 -79 64 -145 166 -418 172 -435 162 -435 -3 0 -104 197 -225 438 -120
240 -253 502 -296 582 -153 287 -254 478 -360 685 -95 185 -144 272 -118 210
16 -38 215 -430 300 -590 47 -88 105 -196 128 -241 24 -44 179 -352 346 -685
167 -332 315 -626 331 -652 50 -86 61 -82 -209 -82 -223 0 -465 -7 -714 -21
l-107 -6 -7 33 c-4 19 -58 187 -120 374 -62 187 -134 408 -160 490 -25 83 -52
168 -60 190 -32 94 -75 267 -89 355 -11 73 -14 80 -10 30 3 -36 8 -77 11 -92
12 -59 -20 -25 -63 68 l-44 96 -4 154 c-3 85 -1 154 3 154 4 0 13 -6 20 -12
10 -11 12 -9 9 7 -2 14 -13 21 -32 23 l-29 4 6 -127 c8 -150 2 -155 -58 -42
-24 45 -66 100 -102 137 -55 56 -62 60 -68 41 -3 -12 -13 -21 -20 -21 -21 0
-28 -19 -15 -35 10 -12 12 -224 12 -902 l-1 -888 -478 0 -479 0 3 426 2 426
119 239 c66 132 144 284 174 339 161 295 208 384 208 391 0 5 -10 -7 -22 -26
-44 -73 -312 -569 -378 -701 -38 -76 -79 -152 -90 -171 l-21 -33 7 70 c8 78
28 126 132 300 36 61 86 148 112 195 89 160 236 415 379 655 150 251 237 399
278 475 l24 45 -23 -28 c-25 -28 -63 -90 -280 -447 -214 -354 -281 -467 -438
-745 -84 -148 -161 -283 -172 -300 l-19 -30 0 85 c-2 237 9 1970 14 2110 1 41
-1 89 -4 107 -4 18 -4 35 -1 38 3 3 5 24 4 48 -3 95 -14 740 -16 997 -2 151
-5 281 -7 289 -6 22 39 29 126 19 76 -9 307 -4 535 11 197 14 486 12 628 -5z
m2 -819 c59 -12 102 -40 171 -112 113 -117 160 -212 180 -365 26 -186 -11
-450 -70 -509 -37 -36 -175 -71 -266 -67 -56 2 -69 6 -66 18 10 43 -3 964 -15
1019 -6 29 -5 33 12 28 10 -3 35 -9 54 -12z m-249 -487 c1 -31 -2 -66 -6 -78
-6 -19 -4 -21 15 -15 14 5 20 3 16 -3 -10 -16 4 -41 20 -35 15 6 17 -3 16 -79
-1 -36 3 -47 17 -51 10 -2 18 -12 18 -21 0 -12 -6 -16 -20 -12 -18 4 -18 0
-13 -77 3 -45 10 -83 15 -85 6 -2 7 -12 1 -27 -7 -19 -6 -23 5 -18 8 3 15 0
15 -6 0 -6 -4 -11 -10 -11 -12 0 -13 -50 -2 -68 12 -18 40 -4 44 21 2 12 0 49
-4 82 -4 33 -10 87 -14 120 -3 33 -7 66 -9 73 -3 6 0 12 5 12 6 0 10 -3 10 -7
0 -10 19 -129 26 -163 20 -102 18 -111 -28 -154 -24 -23 -67 -67 -96 -99 -37
-42 -52 -53 -53 -40 -4 76 2 525 7 593 7 84 8 116 4 135 -1 6 -2 28 -1 50 2
61 22 28 22 -37z m1155 -1351 c1 -13 15 -45 31 -73 30 -51 117 -226 176 -354
19 -41 51 -110 71 -152 20 -43 36 -86 36 -96 0 -10 7 -27 16 -38 15 -19 15
-19 5 2 -6 12 -6 26 -1 34 7 11 19 4 54 -35 26 -27 46 -54 46 -60 0 -6 14 -21
30 -33 17 -13 30 -30 30 -40 1 -21 30 -63 30 -42 0 24 16 -2 39 -65 13 -33 28
-70 34 -82 12 -26 1 -45 -13 -23 -8 12 -10 12 -10 2 0 -8 9 -16 20 -19 12 -3
27 -24 39 -59 12 -29 25 -62 31 -71 11 -21 121 -273 124 -288 2 -5 8 -22 14
-37 32 -76 34 -82 17 -68 -19 16 -19 9 -1 -35 17 -39 31 -47 21 -12 -5 17 -4
19 4 7 6 -8 8 -24 5 -34 -4 -13 1 -25 15 -36 12 -9 23 -23 24 -30 2 -8 6 -21
10 -27 5 -7 4 -13 -1 -13 -9 0 -47 39 -53 55 -10 27 -72 125 -76 121 -9 -9 92
-179 110 -184 31 -8 20 -33 -57 -132 -72 -92 -95 -126 -106 -156 -6 -15 -14
-24 -17 -20 -4 4 -21 46 -39 94 -17 48 -35 96 -39 106 -6 14 -5 17 3 12 8 -5
10 -2 6 8 -3 9 -10 16 -16 16 -5 0 -8 6 -7 13 2 6 -12 44 -31 82 -19 39 -35
79 -36 91 -2 11 -11 36 -22 55 -10 19 -24 52 -31 74 -7 22 -15 47 -18 55 -4 8
-6 18 -5 22 1 4 -10 30 -24 57 -29 60 -136 319 -139 341 -2 15 -9 34 -40 105
-9 22 -37 90 -61 150 -24 61 -48 119 -53 130 -18 39 -71 187 -71 197 0 6 6 5
15 -2 23 -19 18 -3 -7 21 -13 12 -16 19 -8 15 8 -4 7 -1 -4 8 -21 17 -49 66
-37 66 4 0 13 -12 20 -26 6 -15 14 -24 17 -21 4 3 -8 32 -26 64 -78 142 -94
171 -121 225 -16 31 -32 71 -36 88 -5 27 -3 31 12 29 17 -4 46 -83 48 -131 1
-9 4 -15 6 -12 3 3 15 -12 26 -34 38 -73 92 -187 113 -237 44 -110 43 -105 24
-98 -13 5 -12 1 6 -19 12 -13 22 -36 22 -51 0 -15 6 -27 13 -28 8 0 8 -2 1 -5
-8 -3 -5 -20 11 -52 12 -26 28 -65 35 -87 14 -43 45 -119 60 -147 6 -10 10
-22 10 -28 0 -5 14 -39 30 -73 17 -35 30 -73 30 -83 0 -10 7 -32 15 -48 8 -15
15 -35 15 -42 0 -8 24 -64 54 -124 30 -60 58 -125 62 -145 3 -19 10 -38 15
-41 5 -3 9 -12 9 -21 0 -21 73 -182 82 -183 4 0 -2 24 -13 53 -36 90 -48 127
-42 127 4 0 2 5 -5 12 -18 18 -15 31 6 24 9 -3 5 4 -10 17 -16 12 -28 26 -28
31 0 4 -22 52 -50 106 -27 54 -59 129 -70 167 -12 37 -34 100 -50 138 -15 39
-33 86 -39 105 -10 32 -9 33 4 16 8 -11 15 -26 15 -34 0 -8 7 -26 14 -40 8
-15 22 -44 32 -65 9 -21 18 -36 21 -34 2 3 -8 29 -22 60 -15 30 -28 61 -29 69
-1 7 -8 24 -16 38 -14 25 -16 31 -19 50 0 6 -7 10 -15 10 -7 0 -24 26 -36 58
-12 31 -26 68 -32 82 -13 31 -18 80 -8 80 4 0 17 -30 30 -67 22 -66 50 -116
35 -63 -15 56 -57 160 -65 160 -4 0 -23 39 -42 88 -37 91 -58 152 -54 152 9 0
45 -38 40 -43 -3 -3 1 -16 10 -29 9 -12 16 -28 16 -35 0 -6 5 -24 12 -40 6
-15 10 -38 9 -50 -1 -11 3 -24 9 -28 7 -4 9 2 5 22 -5 26 -5 27 6 6 7 -13 16
-23 22 -23 5 0 4 7 -3 15 -7 8 -9 15 -4 15 5 0 2 6 -7 13 -17 14 -35 52 -19
42 6 -3 10 -1 10 4 0 6 -7 11 -16 11 -8 0 -12 5 -9 10 4 6 2 16 -3 23 -6 7
-13 26 -16 42 -2 17 -5 30 -6 30 -1 0 -3 10 -6 23 -2 12 -15 40 -29 62 -24 38
-106 197 -119 230 -3 8 -14 26 -23 40 -18 23 -17 24 2 16 15 -5 17 -4 8 5 -6
6 -9 18 -6 26 7 18 16 9 19 -20z m264 -417 c0 -13 62 -130 94 -177 14 -21 26
-32 26 -25 0 6 5 12 10 12 6 0 10 -7 10 -15 0 -9 5 -21 10 -28 47 -56 108
-167 92 -167 -14 1 -42 27 -42 40 0 6 -33 44 -74 83 -65 64 -78 83 -113 167
-49 116 -61 152 -55 169 4 13 42 -40 42 -59z m-1325 -677 c13 -184 28 -310 36
-318 8 -7 9 3 4 35 -5 25 -9 86 -10 135 -2 50 -5 100 -8 113 -7 25 8 30 17 6
4 -9 11 -71 16 -138 6 -66 12 -146 15 -176 3 -45 2 -50 -6 -28 -10 25 -39 47
-39 29 0 -5 7 -11 15 -15 9 -3 15 -18 15 -40 0 -19 5 -38 10 -41 6 -3 10 -18
10 -32 0 -18 -4 -24 -15 -19 -12 4 -14 0 -9 -21 4 -14 8 -39 9 -55 3 -60 5
-68 15 -68 6 0 8 10 4 24 -3 13 -1 27 5 30 6 4 10 -17 10 -59 0 -36 2 -69 5
-74 5 -7 -38 -63 -92 -119 -6 -8 -17 -22 -22 -33 -6 -10 -14 -19 -18 -19 -4 0
-8 192 -9 426 -1 234 1 424 3 421 3 -3 7 -43 9 -89 2 -45 7 -117 11 -158 3
-41 6 -88 6 -105 0 -16 -1 -57 -2 -90 -2 -119 13 -336 22 -327 6 6 5 78 -1
187 -6 97 -8 182 -5 187 9 15 6 107 -5 146 -5 17 -6 32 -3 32 4 0 4 37 0 83
-9 107 -10 222 -2 214 4 -3 8 -23 9 -44z m-60 -324 c3 -96 7 -231 10 -301 3
-71 1 -128 -3 -128 -4 0 -8 -37 -7 -82 0 -73 -3 -87 -25 -120 -14 -21 -28 -37
-32 -38 -14 0 -8 27 11 51 14 18 20 45 23 104 2 44 6 85 9 90 3 6 3 59 0 118
-4 60 -6 121 -5 135 1 15 2 101 3 191 0 90 3 162 6 159 3 -3 8 -84 10 -179z"/>
<path d="M6410 5303 c-19 -24 -21 -37 -17 -91 6 -75 18 -93 49 -73 16 10 23
10 26 2 2 -6 8 -11 13 -11 6 0 7 5 4 10 -3 6 3 10 15 10 12 0 18 -4 15 -10 -4
-6 5 -10 19 -10 14 0 26 5 26 10 0 13 37 13 45 0 3 -5 12 -7 20 -3 28 10 19
85 -17 139 l-33 49 -71 3 c-68 3 -73 1 -94 -25z"/>
<path d="M5905 5193 c-48 -67 -57 -125 -25 -173 8 -12 13 -13 30 -2 24 15 44
16 35 2 -4 -6 13 -10 44 -10 28 0 51 5 51 10 0 6 7 10 15 10 8 0 15 -4 15 -10
0 -25 31 -6 46 28 29 66 15 140 -35 179 -9 7 -44 13 -78 13 l-63 0 -35 -47z
m200 -70 c-8 -46 -21 -63 -46 -63 -26 0 -24 16 3 23 12 4 19 9 16 12 -3 4 -15
2 -26 -4 -12 -6 -43 -11 -71 -11 -30 0 -51 -5 -51 -11 0 -6 -12 -9 -27 -7 -24
3 -28 7 -26 32 1 16 7 34 13 40 6 6 55 14 108 17 53 3 101 6 106 7 4 1 5 -15
1 -35z"/>
<path d="M6591 4492 c-13 -4 -45 -29 -71 -56 -47 -47 -49 -53 -55 -120 -4 -48
-2 -94 8 -141 18 -83 54 -182 70 -192 6 -3 36 -9 66 -12 86 -7 404 0 421 10
12 6 12 8 1 9 -10 0 -12 9 -6 38 4 20 10 42 15 47 17 21 7 89 -21 149 -28 60
-29 61 -9 70 31 14 25 38 -7 34 -25 -3 -31 4 -61 59 -50 96 -73 108 -212 110
-63 1 -126 -1 -139 -5z m267 -31 c12 -6 29 -25 37 -42 l16 -30 -28 7 c-15 4
-90 8 -166 8 l-138 1 3 30 c2 21 10 31 28 37 36 11 223 2 248 -11z m34 -90
c23 -9 53 -73 40 -85 -9 -9 -336 -6 -350 3 -11 6 -11 17 -2 50 l11 41 139 0
c76 0 149 -4 162 -9z m-118 -107 l200 -2 23 -40 c21 -35 22 -43 11 -62 -15
-25 -60 -39 -66 -21 -3 8 -8 6 -18 -6 -7 -10 -14 -21 -14 -25 0 -10 74 3 78
14 6 13 32 9 32 -5 0 -8 -9 -22 -21 -32 -18 -17 -41 -19 -217 -21 -210 -3
-233 2 -245 46 -4 14 -2 20 6 17 7 -3 28 -12 49 -21 31 -13 38 -14 48 -1 10
12 6 22 -20 55 -18 23 -35 38 -38 35 -3 -3 7 -19 23 -35 16 -16 26 -32 23 -35
-3 -3 -27 2 -54 11 -52 16 -66 34 -78 102 -5 28 -3 32 15 32 12 0 23 -8 26
-20 3 -11 9 -20 15 -20 5 0 4 8 -2 19 -14 28 -13 34 8 25 9 -5 107 -9 216 -10z"/>
<path d="M5510 4141 c-74 -10 -111 -38 -150 -114 -30 -58 -39 -67 -62 -67 -33
0 -35 -6 -8 -28 20 -17 20 -18 -20 -77 -35 -52 -40 -67 -40 -116 0 -77 52
-182 92 -187 21 -3 27 1 30 19 3 23 4 23 168 21 91 0 175 -1 187 -2 15 0 23
-7 25 -22 2 -17 11 -24 31 -26 35 -4 57 13 57 44 0 17 6 24 19 24 10 0 24 7
31 16 12 13 10 14 -13 3 -31 -14 -50 -3 -25 14 9 7 25 18 35 25 16 11 15 12
-9 7 -32 -6 -39 14 -8 22 27 7 31 27 33 153 l1 110 -48 74 c-32 49 -59 80 -80
89 -36 17 -180 27 -246 18z m203 -27 c30 -5 44 -16 72 -54 19 -26 35 -55 35
-64 0 -10 4 -15 9 -12 11 7 36 -22 27 -32 -8 -7 -42 28 -82 84 l-21 29 -167 2
c-93 1 -170 3 -172 6 -8 8 26 29 59 37 40 10 189 12 240 4z m30 -96 c9 -11 17
-36 17 -57 l0 -36 -194 0 c-107 0 -197 3 -201 7 -12 12 33 98 57 108 14 6 80
8 163 5 125 -5 142 -8 158 -27z m105 -131 c2 -15 -4 -42 -13 -60 -9 -17 -19
-43 -21 -57 -9 -54 -29 -110 -39 -111 -5 0 -118 -1 -249 -2 -226 -2 -241 -1
-258 17 -27 30 -23 64 8 72 18 5 22 9 13 14 -7 5 -18 6 -25 3 -19 -7 -5 34 31
91 l31 48 230 2 230 1 2 -67 c2 -55 0 -68 -12 -68 -8 0 -19 -7 -23 -15 -5 -8
-24 -16 -43 -18 -47 -3 -46 -29 0 -39 75 -17 90 1 90 109 0 69 14 117 33 111
6 -3 13 -17 15 -31z"/>
<path d="M5400 3746 c0 -6 -3 -21 -6 -33 -6 -23 -6 -23 104 -23 115 0 138 8
130 47 -3 16 -16 18 -116 19 -74 0 -112 -3 -112 -10z"/>
<path d="M8404 7949 c-2 -3 33 -9 77 -12 44 -3 83 -8 87 -11 3 -4 -39 -52 -94
-109 -55 -56 -114 -119 -132 -140 -21 -24 -39 -37 -48 -33 -13 5 -14 -81 -10
-702 3 -389 10 -783 15 -877 15 -226 18 -1122 8 -2000 -5 -390 -9 -833 -10
-982 l-1 -273 -36 0 c-26 0 -31 -3 -20 -10 8 -5 25 -10 38 -10 12 0 22 -5 22
-11 0 -8 -14 -10 -40 -6 -22 3 -43 1 -46 -4 -3 -5 18 -9 45 -9 34 0 51 -4 52
-12 1 -7 2 -20 3 -28 2 -8 3 -27 4 -42 1 -16 7 -28 13 -28 8 0 10 17 6 55 -3
30 -2 57 2 59 21 13 955 21 1221 10 292 -12 464 -16 460 -12 -5 5 -165 17
-255 19 -46 1 -48 1 -20 10 17 5 167 9 335 9 168 0 359 2 425 4 66 3 142 5
168 5 34 1 47 5 45 14 -5 14 -7 14 -85 16 -91 2 -58 8 77 14 124 5 131 4 56
-8 -33 -5 -37 -8 -25 -20 19 -19 111 -1 102 21 -4 11 5 14 38 16 24 0 57 2 74
3 16 1 38 -3 49 -9 14 -8 20 -8 23 2 3 6 11 12 18 12 8 0 17 5 21 12 5 8 -3 9
-29 5 -42 -7 -60 9 -25 22 20 7 18 9 -19 12 -32 3 -43 1 -47 -11 -3 -12 -4
-11 -5 3 -1 10 -9 17 -23 18 -39 1 -113 10 -117 15 -12 11 17 15 130 16 94 1
115 3 89 10 -19 5 -61 8 -92 8 -32 0 -58 4 -58 9 0 13 27 20 80 20 84 -1 103
1 96 9 -10 9 -8 9 -138 11 -124 2 -123 14 2 27 40 4 82 8 94 9 12 1 32 3 45 4
41 2 16 12 -41 17 -30 3 -77 8 -104 12 -27 4 -84 7 -126 7 -43 0 -78 3 -78 7
0 4 14 18 31 30 83 61 213 268 259 413 7 22 16 44 21 50 5 5 9 16 9 25 0 9 13
56 29 105 16 50 32 108 35 130 4 22 10 54 15 70 5 17 19 84 31 150 11 66 26
138 33 160 15 50 14 258 -2 385 -7 52 -23 151 -37 220 -14 69 -27 133 -29 143
-8 38 -18 60 -56 126 -21 37 -39 73 -39 79 0 7 -16 36 -35 66 -19 30 -35 60
-35 66 0 5 -4 10 -10 10 -20 0 76 128 109 146 34 19 69 65 70 93 1 8 8 19 16
25 18 13 9 26 -59 81 -40 33 -44 55 -18 93 25 37 52 97 52 116 0 19 -33 38
-80 46 l-35 6 3 54 c2 30 9 61 14 68 6 7 8 32 4 60 -3 28 -2 41 3 33 14 -22
22 4 11 34 -7 18 -7 54 0 109 5 44 12 140 16 211 3 72 8 134 11 138 12 20 2
134 -17 203 -12 42 -18 79 -14 82 4 4 9 1 11 -5 3 -7 8 -13 13 -13 12 0 -6 67
-26 98 -10 15 -19 32 -20 37 -1 6 -9 26 -17 45 -8 19 -18 54 -22 78 -4 23 -11
42 -16 42 -6 0 -7 5 -4 11 4 6 -3 21 -15 34 -12 13 -19 28 -16 33 6 10 -67
126 -107 170 -26 28 -9 28 37 1 20 -12 36 -18 36 -15 0 3 -33 24 -72 47 -40
23 -95 65 -122 93 -51 54 -108 90 -246 158 -111 54 -87 61 31 9 95 -43 134
-49 58 -10 -71 36 -179 70 -179 56 0 -8 -4 -7 -9 2 -9 14 -297 94 -401 111
-30 5 -84 14 -119 20 -36 6 -74 10 -85 8 -12 -1 -27 2 -35 6 -9 6 -12 5 -8 -1
4 -6 -51 -8 -156 -5 -267 6 -1109 7 -1113 1z m296 -33 c19 -3 179 -6 355 -7
176 -2 379 -6 450 -10 72 -5 173 -9 225 -10 52 -1 100 -4 105 -8 13 -7 28 -10
97 -20 31 -4 62 -12 70 -18 7 -6 27 -11 43 -11 46 -1 258 -67 333 -103 147
-71 314 -213 388 -331 15 -23 46 -72 69 -108 59 -92 148 -381 125 -404 -7 -7
-10 -2 -10 12 0 12 -4 22 -10 22 -5 0 -10 14 -10 30 0 17 -4 30 -10 30 -12 0
-14 26 -2 33 4 2 1 2 -5 1 -11 -3 -18 9 -11 19 4 4 -50 57 -58 57 -16 0 -37
42 -25 49 15 10 -170 189 -252 245 -38 25 -78 57 -89 71 -11 14 -25 25 -31 24
-7 0 -2 -7 11 -16 12 -8 22 -20 22 -25 0 -5 -10 -4 -22 2 -17 8 -15 4 6 -12
16 -13 57 -46 91 -75 35 -29 65 -50 68 -47 10 11 101 -77 103 -99 2 -21 22
-65 34 -72 24 -15 138 -270 126 -282 -2 -2 -19 29 -38 69 -43 89 -135 234
-185 289 -116 128 -399 308 -580 370 -184 62 -208 64 -668 62 -231 -1 -550 -5
-710 -9 -159 -4 -302 -6 -317 -5 -16 1 -28 -3 -28 -8 0 -13 51 -22 110 -20
123 4 1278 -8 1295 -13 11 -3 49 -9 85 -13 62 -6 95 -14 270 -65 179 -52 368
-167 496 -302 85 -90 154 -217 221 -411 52 -149 70 -238 72 -370 1 -50 4 -95
7 -99 3 -5 3 -27 -1 -48 -6 -35 -10 -40 -34 -40 -16 0 -42 -5 -60 -11 -28 -10
-33 -8 -51 12 -11 13 -19 30 -20 37 0 16 -49 15 -80 -3 -14 -8 -35 -14 -47
-15 -13 0 -23 -4 -23 -8 0 -5 -16 -17 -35 -28 -19 -10 -35 -22 -35 -27 0 -4
14 -1 30 8 17 9 30 11 30 5 0 -5 22 6 49 25 54 39 63 42 55 20 -4 -8 -1 -15 6
-15 6 0 8 -4 5 -10 -3 -5 -1 -10 4 -10 6 0 11 -9 11 -20 0 -22 12 -21 90 3 38
12 90 11 102 -1 18 -18 -4 -70 -38 -88 -38 -21 -39 -29 -1 -15 15 6 29 6 32 2
9 -15 -20 -86 -33 -83 -16 3 -56 -18 -48 -25 3 -3 13 0 21 7 26 22 43 -4 20
-30 -12 -13 -14 -20 -6 -20 7 0 -13 -14 -45 -30 l-57 -31 -39 38 c-46 45 -50
32 -6 -25 l31 -41 31 16 c17 9 33 19 36 23 8 12 51 32 57 26 12 -12 -45 -157
-111 -283 -18 -33 -33 -46 -22 -18 8 21 -8 18 -30 -6 -14 -16 -15 -22 -5 -28
9 -6 10 -11 2 -15 -6 -4 -11 -2 -11 5 0 9 -3 9 -14 0 -31 -25 -24 8 7 36 52
47 81 83 68 83 -6 0 -39 -27 -72 -60 -33 -33 -68 -60 -77 -59 -11 0 -2 12 28
37 57 47 130 122 130 134 0 5 -21 -11 -47 -36 -26 -25 -51 -46 -55 -46 -4 0
-25 -16 -45 -35 -36 -34 -63 -42 -69 -20 -4 11 40 46 60 49 7 1 28 14 47 30
19 15 28 25 20 21 -8 -5 -30 -9 -49 -11 -19 -1 -39 -9 -43 -16 -7 -10 -11 -11
-17 0 -6 9 -13 7 -28 -10 -16 -19 -16 -21 -1 -9 11 9 21 10 27 5 5 -5 -1 -16
-14 -25 -20 -16 -24 -16 -61 2 -40 20 -65 19 -65 -1 0 -7 8 -9 19 -5 14 4 38
-8 83 -45 75 -60 81 -69 68 -106 -11 -29 -104 -105 -186 -151 -60 -34 -63 -49
-8 -48 34 2 42 -1 34 -10 -8 -9 -4 -14 12 -19 13 -3 37 -17 53 -30 l30 -25
-45 -40 c-25 -22 -40 -40 -34 -41 6 0 26 14 44 30 18 17 39 30 45 30 74 0 362
-341 313 -371 -7 -4 -16 -5 -21 -2 -5 3 -3 9 4 14 9 5 -1 7 -23 4 -25 -3 -38
-1 -38 7 0 6 -8 4 -18 -6 -17 -15 -22 -15 -55 -1 -46 19 -67 19 -67 0 0 -8 14
-17 35 -21 19 -3 35 -11 35 -16 0 -17 -41 -68 -54 -68 -21 0 -141 -117 -126
-122 9 -3 4 -13 -16 -31 -16 -15 -32 -27 -36 -27 -13 0 -9 17 7 30 8 7 13 16
10 20 -3 5 38 52 91 104 52 53 90 96 84 96 -14 0 -84 -46 -141 -92 -66 -53
-82 -47 -23 8 27 25 42 42 34 38 -8 -4 4 11 28 33 23 23 42 46 42 51 0 25
-267 -148 -279 -181 -3 -9 54 26 69 43 14 15 89 67 120 82 l35 17 -25 -21
c-14 -11 -24 -24 -23 -29 2 -5 -3 -6 -11 -3 -7 3 -39 -15 -72 -39 -54 -41
-128 -87 -139 -87 -3 0 -5 5 -5 10 0 6 7 10 15 10 8 0 15 4 15 9 0 9 -48 0
-70 -14 -12 -7 -14 -26 -2 -24 19 3 35 -2 28 -8 -10 -10 -30 -11 -37 -1 -3 5
-16 -3 -29 -17 -13 -14 -18 -25 -12 -25 7 0 15 0 20 0 4 0 7 5 7 12 0 19 62
17 62 -2 1 -31 -18 -41 -66 -35 -25 3 -47 10 -49 15 -2 6 -8 10 -14 10 -5 0
-22 10 -36 21 -25 20 -25 21 -4 15 15 -5 24 -3 28 8 3 8 16 18 27 22 12 4 35
17 50 30 16 13 33 24 39 24 6 0 33 14 59 31 30 19 55 28 67 25 22 -7 107 53
164 116 21 23 41 38 45 34 5 -4 -5 -19 -20 -32 -34 -29 -26 -30 30 -3 40 20
61 38 28 25 -21 -8 -19 0 7 24 26 24 17 26 -17 4 -34 -22 -32 -1 3 25 15 11
22 21 16 21 -5 0 -23 -14 -40 -31 -40 -42 -96 -70 -115 -58 -12 8 -11 12 5 22
11 7 39 30 63 51 24 21 46 37 48 34 3 -3 -1 -11 -10 -18 -8 -7 -15 -17 -15
-23 0 -6 11 0 25 13 19 18 22 26 13 31 -10 6 -8 13 6 26 18 17 19 17 12 -1 -5
-16 -4 -17 9 -6 14 12 12 30 -4 30 -4 0 -37 -27 -72 -60 -75 -69 -110 -91
-116 -73 -4 10 -13 8 -36 -5 -18 -9 -37 -17 -44 -17 -13 0 -53 -34 -53 -45 0
-4 12 -7 26 -7 19 0 24 3 19 15 -3 9 -3 13 1 10 4 -4 16 -1 27 7 18 13 22 12
33 -3 10 -14 9 -19 -6 -29 -22 -16 -87 -23 -114 -14 -17 7 -16 11 15 46 19 21
28 36 22 31 -19 -11 -15 5 5 21 23 19 -45 -14 -80 -38 -38 -28 -42 -23 -14 18
29 42 28 50 -6 32 -12 -7 -30 -13 -39 -14 -10 -1 -25 -9 -34 -19 -10 -9 -20
-14 -24 -11 -3 4 3 13 14 20 36 25 55 48 55 67 0 22 -10 23 -36 2 -19 -15 -19
-16 1 -10 15 5 11 -2 -13 -24 -18 -16 -38 -30 -45 -30 -8 0 -8 3 2 9 7 5 10
14 6 21 -4 6 1 20 11 31 21 24 10 25 -20 1 -13 -9 -21 -23 -18 -30 5 -16 -6
-15 -24 3 -14 13 -13 16 8 24 13 5 30 16 37 25 12 14 12 16 -3 10 -9 -3 -16
-10 -16 -15 0 -5 -6 -9 -14 -9 -8 0 -22 -9 -30 -21 -8 -12 -20 -19 -26 -17 -7
2 -1 14 15 31 15 15 31 24 36 22 4 -3 11 0 16 7 11 18 71 62 124 91 31 18 58
25 91 24 25 -1 44 -5 41 -10 -11 -19 30 -18 48 1 23 25 25 40 3 21 -13 -10
-20 -10 -45 5 -16 9 -33 14 -39 11 -6 -3 -7 1 -4 9 7 19 16 20 31 5 9 -9 19
-6 39 10 15 11 24 21 20 21 -3 0 -7 -1 -8 -2 -2 -1 -14 5 -28 12 -49 26 -86
29 -117 8 l-28 -19 33 6 c62 13 42 -1 -93 -64 -5 -2 -4 3 4 13 12 14 12 16 -3
10 -10 -4 -15 -12 -12 -19 5 -13 -40 -42 -50 -33 -3 4 4 9 15 13 12 3 21 11
21 16 0 5 -11 2 -24 -7 -14 -8 -23 -21 -20 -27 2 -7 -13 -23 -33 -37 -24 -16
-38 -21 -40 -13 -5 15 -33 5 -33 -12 0 -6 -9 -20 -21 -31 -11 -10 -26 -28 -31
-39 -11 -19 -10 -19 9 -2 15 13 26 15 43 9 14 -5 19 -11 13 -15 -13 -8 -6 -42
12 -57 8 -6 11 -19 8 -28 -6 -15 -5 -15 10 -3 32 25 19 -9 -22 -63 -46 -58
-127 -130 -140 -122 -4 3 -14 26 -21 50 -12 44 -11 49 40 175 64 160 98 202
209 260 45 23 81 37 83 30 6 -17 63 18 64 40 1 12 -4 17 -12 14 -17 -6 -18 9
-3 24 9 9 8 16 -4 27 -13 14 -17 13 -38 -5 -13 -11 -39 -27 -59 -36 -54 -25
-64 -34 -48 -46 9 -6 8 -7 -5 -3 -11 4 -32 -3 -50 -15 -19 -13 -11 -3 18 24
28 25 57 46 66 47 16 0 69 50 53 50 -5 0 -21 -8 -34 -17 l-25 -16 24 26 c24
26 17 39 -7 15 -19 -19 -23 -4 -6 20 14 20 52 33 40 14 -5 -9 41 -8 51 1 3 4
1 7 -5 7 -20 0 -13 27 16 62 l27 33 -44 -33 c-44 -32 -71 -40 -71 -23 0 5 -9
11 -20 14 -30 8 -24 32 16 77 45 49 38 51 -22 5 -52 -40 -103 -49 -82 -15 7
11 17 20 22 20 4 0 3 -7 -4 -15 -7 -8 -9 -15 -5 -15 5 0 39 29 76 65 75 73 79
84 10 28 l-46 -37 38 42 c56 64 43 65 -16 1 -55 -59 -97 -89 -97 -68 0 6 -9 1
-21 -12 l-20 -24 6 29 c3 16 21 52 39 81 19 28 37 62 41 76 4 13 -19 -15 -51
-64 -39 -58 -60 -83 -66 -75 -4 7 -5 21 -2 32 4 12 2 16 -5 12 -6 -4 -11 -14
-11 -22 0 -8 -5 -14 -11 -14 -14 0 -4 33 32 100 l30 55 -31 -35 c-17 -19 -41
-56 -53 -82 -17 -38 -24 -45 -38 -37 -12 6 -19 5 -21 -3 -3 -7 -10 -8 -17 -4
-18 11 -7 61 29 131 17 32 30 61 30 64 -1 10 -62 -92 -77 -126 -16 -40 -33
-43 -34 -5 0 26 -1 26 -9 4 l-10 -23 -30 22 c-16 13 -30 27 -30 31 0 5 -4 7
-9 4 -5 -4 -22 -1 -37 4 -45 17 -39 3 12 -30 27 -16 52 -37 57 -46 14 -25 -11
-70 -55 -100 -39 -28 -40 -28 -54 -9 -13 17 -16 18 -24 5 -13 -22 -24 -4 -25
40 0 22 -4 40 -8 40 -4 0 -20 -20 -35 -44 -33 -54 -66 -70 -50 -25 5 16 17 29
26 29 13 0 14 2 4 8 -8 5 -10 16 -5 28 6 17 5 17 -10 5 -10 -7 -16 -19 -15
-25 2 -9 -19 -48 -40 -76 -1 -2 -8 2 -13 10 -9 13 -10 12 -6 -2 7 -21 -3 -31
-19 -17 -11 9 -8 19 12 51 30 47 26 58 -9 26 -41 -38 -98 -69 -117 -63 -9 3
-25 14 -35 25 -27 30 -38 24 -20 -11 14 -27 15 -33 2 -53 -17 -25 -87 -50
-101 -36 -6 6 -4 15 4 25 18 22 5 19 -39 -10 -35 -22 -41 -23 -52 -8 -11 13
-10 17 6 29 10 8 14 14 9 14 -12 0 -52 -29 -41 -30 15 0 -14 -40 -31 -41 -17
-1 28 -15 81 -26 34 -7 34 -12 0 -40 -32 -28 -24 -30 19 -3 18 11 29 20 24 20
-6 0 -1 6 10 14 10 8 28 13 39 10 21 -5 115 50 115 67 0 5 12 9 27 9 l27 0
-38 -39 c-21 -22 -35 -44 -32 -50 4 -6 3 -11 -3 -11 -5 0 -30 -17 -54 -37
-107 -91 -123 -102 -145 -103 -14 0 -38 14 -58 35 -37 38 -58 44 -72 19 -8
-14 -15 -15 -43 -5 -36 12 -66 46 -49 56 15 9 12 25 -5 25 -11 0 -15 -11 -15
-38 0 -34 -4 -41 -39 -60 -24 -14 -56 -22 -84 -22 -31 0 -53 -7 -73 -22 -31
-25 -98 -33 -90 -11 7 16 -6 17 -22 1 -9 -9 -12 -7 -12 10 0 19 -9 26 -30 24
-3 0 -13 -4 -22 -7 -11 -4 -18 -3 -18 4 0 6 6 11 14 11 8 0 18 5 22 12 5 8 2
9 -9 5 -10 -4 -24 -10 -32 -13 -8 -3 -15 -1 -15 5 0 6 8 11 19 11 10 0 24 7
31 15 10 12 10 15 -3 15 -25 0 -31 39 -10 62 29 33 88 66 137 79 26 6 49 15
52 20 3 5 10 9 16 9 6 0 3 -10 -8 -22 -13 -15 -5 -12 29 11 45 31 50 32 80 20
18 -7 38 -21 45 -31 7 -10 19 -18 26 -18 9 0 12 -9 8 -27 l-5 -28 29 30 c16
17 36 39 44 50 13 17 11 16 -18 -4 l-32 -22 -29 23 c-19 15 -28 29 -25 41 6
20 0 21 -27 7 -15 -8 -23 -7 -35 5 -15 14 -14 18 1 41 9 14 14 28 11 31 -3 3
0 15 6 27 7 11 11 24 10 28 -1 3 5 12 13 18 20 16 19 28 -2 32 -13 2 -4 17 38
63 30 33 63 71 74 85 16 21 14 20 -14 -5 -44 -39 -111 -108 -111 -116 0 -3
-17 -19 -38 -36 -30 -24 -40 -28 -49 -17 -10 9 -9 15 3 25 12 10 13 9 8 -5 -9
-24 -1 -20 37 21 22 24 24 29 7 14 -16 -14 -30 -22 -33 -19 -7 7 106 129 114
124 9 -6 46 22 39 29 -13 14 -61 -19 -119 -84 -35 -38 -67 -67 -72 -64 -4 2
-3 11 3 18 8 9 6 14 -7 19 -14 6 -7 17 42 61 40 37 66 53 78 49 11 -4 17 0 17
10 0 11 -9 16 -30 16 -16 0 -30 -3 -30 -7 0 -17 -99 -115 -109 -108 -16 9 -14
25 3 25 20 0 28 27 10 34 -8 3 -13 2 -10 -3 6 -9 -18 -33 -52 -51 -29 -14 -39
-6 -21 17 11 15 11 16 -1 6 -21 -20 -32 -15 -18 7 14 22 34 26 40 8 3 -8 9 -8
24 0 10 6 13 12 6 12 -7 0 0 13 17 29 16 15 34 39 40 52 l12 24 -20 -22 c-21
-25 -37 -31 -25 -10 6 10 4 10 -7 0 -7 -7 -20 -13 -29 -13 -12 1 -11 4 4 15
11 8 15 15 9 15 -6 0 -21 -9 -34 -21 -13 -11 -18 -18 -11 -14 21 11 13 -14
-15 -46 -21 -23 -33 -29 -51 -24 -25 6 -71 35 -72 45 0 3 24 30 53 61 56 58
79 96 53 86 -8 -3 -22 5 -32 19 -11 13 -24 24 -30 24 -6 0 -17 6 -23 14 -14
17 4 33 47 42 18 4 32 11 32 16 0 5 7 5 17 -1 13 -7 23 -5 36 6 16 15 16 17 1
35 -15 16 -16 18 -1 18 9 0 19 -4 22 -10 12 -20 26 -10 15 11 -7 11 -9 23 -6
26 3 4 1 12 -5 19 -19 23 -2 44 36 44 23 0 35 5 35 13 0 21 45 37 84 30 43 -7
46 6 7 28 -27 16 -49 59 -30 59 5 0 9 5 9 11 0 12 13 24 56 55 18 12 26 12 48
3 14 -7 26 -18 26 -26 0 -7 7 -13 15 -13 8 0 15 5 15 10 0 6 7 10 16 10 8 0
13 -4 10 -9 -4 -5 0 -12 6 -15 10 -5 10 -7 1 -12 -7 -3 -13 -9 -13 -12 0 -4
-26 -35 -59 -69 -32 -34 -61 -73 -63 -87 -7 -37 7 -32 23 7 7 17 72 92 145
165 73 73 119 123 101 110 -17 -12 -49 -40 -69 -60 -21 -21 -40 -38 -43 -38
-6 0 15 38 34 63 8 9 10 17 5 17 -5 0 18 25 51 55 33 30 64 55 69 55 6 0 5 5
-1 11 -17 17 -45 -3 -109 -79 -31 -37 -61 -68 -65 -70 -16 -7 -9 13 21 51 17
23 26 45 23 55 -5 11 -2 14 9 9 20 -7 44 19 59 64 7 19 19 42 28 53 15 17 15
18 -4 15 -11 -3 -19 -8 -17 -12 4 -12 -28 -67 -39 -67 -6 0 -8 -7 -5 -16 3 -9
2 -12 -4 -9 -6 4 -19 -4 -29 -17 -23 -27 -38 -19 -21 12 11 21 11 21 -14 5
-15 -10 -26 -13 -26 -6 0 7 -8 8 -26 1 -31 -12 -34 -12 -34 -1 0 5 14 11 32
15 33 7 58 23 58 37 0 5 -17 1 -37 -9 -70 -35 -129 -36 -88 -2 9 7 13 15 10
18 -2 3 -13 -6 -23 -18 -12 -15 -25 -21 -35 -17 -26 10 -20 23 21 53 55 41 55
41 38 47 -17 7 -116 -68 -116 -87 0 -7 13 -25 29 -40 23 -22 33 -26 48 -18 13
7 30 7 54 -1 l36 -11 -24 -35 c-17 -25 -47 -47 -96 -71 l-72 -35 2 -47 c2 -37
-1 -48 -12 -48 -8 0 -22 -11 -30 -24 -9 -13 -36 -31 -61 -41 -44 -17 -46 -19
-42 -52 3 -28 -2 -41 -23 -64 -16 -17 -37 -29 -52 -29 -13 0 -36 -9 -49 -20
-14 -10 -28 -17 -31 -13 -3 3 -7 283 -7 622 0 339 -5 684 -10 766 -15 235 -22
207 78 310 48 50 107 107 130 128 23 21 42 46 42 56 0 28 38 62 63 57 12 -3
38 -7 57 -10z m2318 -1997 c17 -6 33 -17 36 -25 7 -18 -10 -64 -23 -64 -6 0
-8 -6 -5 -14 3 -8 -9 -30 -27 -51 l-32 -37 33 -28 34 -29 -30 -23 c-16 -12
-64 -56 -107 -97 -78 -75 -78 -76 -52 -84 17 -6 24 -14 21 -23 -6 -16 3 -18
23 -5 8 5 10 14 6 21 -4 7 -2 16 5 20 16 10 80 63 135 113 23 20 45 37 49 37
15 0 4 -24 -20 -42 -19 -15 -22 -23 -13 -29 9 -5 -3 -15 -34 -30 -29 -14 -46
-28 -43 -36 3 -8 -3 -13 -16 -13 -16 0 -18 -3 -9 -14 9 -11 9 -16 -2 -23 -21
-12 -38 -49 -31 -67 12 -31 -16 -15 -73 43 -32 32 -73 66 -91 75 -32 17 -35
36 -6 36 8 0 12 -4 9 -10 -3 -5 -2 -10 4 -10 16 0 36 43 22 48 -6 2 -9 8 -6
12 3 5 13 7 23 4 12 -4 14 -3 4 3 -10 8 -5 26 25 84 21 41 54 110 73 153 31
72 62 116 80 116 4 0 21 -5 38 -11z m-2608 -265 c28 -20 47 -40 44 -45 -3 -5
0 -9 6 -9 6 0 13 6 16 14 4 11 14 12 47 3 59 -14 64 -22 43 -58 -13 -23 -15
-34 -7 -42 6 -6 11 -24 11 -39 0 -21 5 -28 19 -28 24 0 47 25 30 35 -7 5 -4
14 10 29 12 11 28 30 36 41 20 30 29 12 15 -31 -10 -30 -10 -39 -1 -42 8 -3 5
-12 -10 -28 -27 -29 -50 -33 -24 -4 10 11 16 22 13 25 -3 3 -13 -4 -23 -15
-10 -11 -24 -20 -31 -20 -7 0 -16 -9 -19 -21 -14 -44 -67 -78 -91 -58 -20 16
-17 31 11 73 30 44 17 48 -20 5 -17 -21 -25 -41 -23 -59 2 -23 -6 -35 -49 -69
-28 -22 -53 -51 -56 -63 -2 -13 -5 82 -6 210 0 127 1 232 4 232 3 0 27 -16 55
-36z m1387 -356 c-9 -13 -26 -41 -38 -63 -29 -54 -48 -75 -65 -68 -9 3 -14 -2
-14 -14 0 -11 -9 -29 -20 -41 -25 -26 -23 -26 23 -7 20 8 41 15 47 15 5 0 10
-7 10 -15 0 -8 4 -15 9 -15 23 0 -19 -94 -50 -110 -47 -26 -77 14 -81 110 l-3
55 45 23 c28 15 63 47 95 88 48 62 74 88 42 42z m133 -63 c0 -33 -7 -61 -21
-84 -29 -48 -17 -49 18 -2 27 37 98 101 111 101 3 0 -6 -12 -19 -27 -38 -42
-157 -225 -170 -261 -6 -18 -15 -32 -21 -32 -6 0 -7 -7 -4 -16 3 -8 2 -13 -3
-10 -5 3 -18 -14 -30 -38 -11 -25 -25 -47 -30 -50 -5 -4 -12 -19 -16 -35 -3
-16 -15 -39 -26 -52 -10 -12 -19 -27 -19 -33 0 -6 5 -4 10 4 7 10 10 11 10 2
0 -7 -7 -15 -14 -18 -14 -6 -38 -66 -50 -129 -4 -16 -8 -39 -11 -50 -7 -27
-22 -129 -38 -249 -17 -129 -13 -387 9 -491 9 -44 20 -100 24 -125 16 -99 92
-320 112 -328 5 -2 22 -15 39 -29 27 -23 36 -25 83 -19 48 5 60 2 121 -30 37
-19 69 -33 72 -30 6 6 -56 66 -68 66 -3 0 -19 11 -35 25 l-28 24 64 -25 c36
-15 72 -33 81 -40 8 -8 26 -14 39 -14 12 0 28 -6 34 -14 7 -9 18 -11 31 -6 11
5 14 9 6 9 -16 1 -106 59 -140 92 -21 20 -22 23 -6 31 20 12 35 1 16 -11 -17
-11 1 -23 32 -21 12 1 33 1 47 0 23 -1 23 -2 5 -10 -19 -8 -18 -9 5 -11 40 -3
44 -4 55 -11 6 -3 38 -6 73 -7 35 -1 79 -8 99 -16 19 -8 38 -13 42 -10 4 2 30
-3 59 -11 28 -8 68 -14 89 -12 l38 4 -29 12 c-15 7 -62 14 -103 16 -40 1 -79
8 -85 14 -7 7 -18 12 -26 12 -7 0 -12 6 -9 13 4 12 78 17 87 6 7 -9 70 2 70
12 0 5 -17 9 -37 9 -21 0 -78 0 -128 0 l-90 -1 34 18 c19 9 29 19 23 21 -6 2
-29 -6 -52 -18 -50 -25 -70 -17 -39 16 29 31 18 30 -37 -2 -49 -29 -56 -19
-23 28 29 40 14 50 -17 10 -26 -32 -58 -44 -48 -18 3 8 1 23 -5 33 -10 17 -11
16 -17 -4 -3 -13 -11 -23 -18 -24 -6 0 -20 -3 -31 -6 -92 -22 -157 40 -227
221 -20 50 -21 60 -8 64 17 5 150 140 150 153 0 5 11 32 24 61 28 60 42 122
51 223 9 88 9 87 1 165 -13 122 -25 178 -52 246 l-27 68 24 18 c13 11 31 24
39 31 38 30 128 85 150 92 21 7 23 6 13 -7 -7 -8 -10 -18 -6 -22 4 -4 -1 -4
-10 0 -10 3 -17 3 -16 -2 4 -23 -3 -33 -23 -36 -12 -2 -24 -10 -26 -18 -4 -12
-3 -13 10 -3 8 7 18 10 21 7 3 -3 19 3 35 15 17 12 35 21 41 21 6 0 11 4 11 8
0 5 19 16 42 25 48 19 41 9 -17 -24 -108 -62 -129 -70 -167 -64 -43 8 -50 -5
-14 -25 13 -7 26 -20 29 -30 7 -28 92 -74 114 -62 11 7 24 7 36 0 30 -16 67
-1 79 32 l10 30 40 -31 c36 -29 41 -31 56 -16 15 16 18 15 44 -10 52 -50 127
-27 158 48 7 15 21 31 31 34 30 10 73 72 64 92 -12 28 -5 56 21 80 30 28 59
37 81 24 13 -6 24 -5 38 5 10 8 22 14 26 14 32 0 149 -377 148 -475 -1 -32
-28 51 -40 121 -6 35 -15 67 -20 70 -12 7 -11 -3 6 -88 46 -226 55 -287 54
-377 -1 -119 -6 -157 -59 -411 -15 -68 -41 -130 -57 -130 -6 0 -9 -9 -6 -20 3
-12 0 -20 -6 -20 -7 0 -10 -4 -7 -9 4 -5 3 -11 -2 -13 -4 -1 -21 -30 -37 -63
-58 -115 -192 -268 -250 -284 -18 -5 -42 -17 -52 -27 -89 -84 -109 -95 -278
-149 -228 -74 -479 -107 -810 -105 -104 0 -206 2 -227 4 -51 5 -538 20 -621
19 -38 -1 -71 -4 -74 -7 -4 -3 26 -6 65 -6 41 0 72 -4 72 -10 0 -6 -60 -10
-160 -10 -174 0 -177 0 -172 15 2 6 6 327 8 715 2 388 4 711 4 718 0 7 5 10
10 7 6 -3 10 -2 10 4 0 5 -6 11 -12 13 -13 5 -21 128 -9 128 3 0 5 155 3 345
l-3 345 30 0 c21 0 34 -7 42 -22 16 -31 28 -38 71 -38 20 0 40 -4 43 -10 9
-14 16 -12 45 10 l25 19 -25 -6 c-30 -7 -16 11 15 21 14 4 24 -1 33 -14 17
-28 7 -40 -34 -40 -30 0 -34 -3 -35 -27 -2 -56 3 -88 17 -104 18 -20 18 -28
-2 -50 -15 -17 -15 -21 1 -54 11 -25 21 -35 32 -31 8 4 58 9 111 12 72 4 102
10 123 25 42 30 64 24 100 -26 18 -25 35 -45 38 -45 24 1 51 15 51 27 0 8 4
12 8 9 4 -2 14 5 22 17 12 20 12 21 -3 8 -11 -9 -17 -10 -17 -2 0 6 5 11 10
11 27 0 52 22 48 42 -2 6 2 12 7 13 11 0 35 19 101 78 24 21 48 36 54 32 15
-9 12 -26 -4 -23 -15 3 -140 -101 -131 -110 3 -3 20 8 38 25 17 17 38 28 46
25 8 -3 11 0 7 7 -4 6 2 21 13 33 12 13 21 16 21 9 0 -18 -40 -72 -49 -66 -5
2 -27 -12 -49 -31 -23 -19 -46 -33 -51 -29 -6 3 -17 -8 -26 -25 -9 -17 -11
-30 -5 -30 21 0 9 -31 -16 -40 -14 -6 -22 -14 -19 -20 10 -15 21 -12 54 15 22
19 36 24 56 19 17 -4 32 -1 43 8 9 9 29 18 45 22 15 3 27 11 27 16 0 6 4 10 9
10 5 0 5 -16 0 -37 -11 -47 -14 -562 -7 -1018 l3 -160 33 -3 c17 -2 32 -7 32
-12 0 -13 -84 -121 -122 -156 -50 -48 -197 -145 -243 -160 l-40 -14 39 5 c22
2 82 26 134 52 98 50 184 125 243 213 28 41 64 138 73 195 2 17 14 84 25 150
22 129 28 250 11 240 -5 -3 -10 -2 -10 4 0 5 4 11 9 13 6 2 12 53 15 113 3 61
8 164 12 230 8 149 -8 284 -42 371 -26 65 -74 117 -189 207 -40 31 -122 118
-97 103 15 -9 16 6 0 22 -7 7 -10 12 -7 12 3 0 24 -17 46 -39 23 -21 68 -53
100 -72 66 -37 107 -78 165 -162 22 -32 42 -57 44 -54 2 2 -14 39 -37 82 -35
67 -39 82 -30 102 16 35 14 39 -8 14 -19 -21 -21 -22 -50 -6 -17 8 -31 19 -31
22 0 4 19 24 42 46 39 36 43 38 55 21 16 -22 17 -41 1 -47 -8 -3 -6 -6 4 -6
17 -1 23 -20 32 -101 5 -43 23 -90 34 -90 13 0 12 27 -3 95 -7 33 -16 88 -19
123 -3 34 -10 81 -16 103 -6 23 -8 44 -4 48 4 3 8 2 10 -4 8 -21 45 -77 49
-73 6 6 -17 91 -28 106 -8 10 -7 16 4 23 21 13 33 11 20 -5 -8 -10 -9 -16 -1
-21 5 -3 10 -1 10 6 0 19 10 5 16 -22 2 -13 7 -49 10 -78 3 -30 8 -60 12 -65
9 -14 31 -139 26 -145 -3 -3 -11 4 -19 15 -20 27 -19 3 4 -65 10 -31 27 -84
37 -118 20 -66 28 -76 37 -43 3 11 2 18 -2 16 -9 -6 -36 83 -28 90 3 4 11 -12
17 -35 6 -23 15 -41 20 -41 11 0 34 67 35 101 0 17 -5 26 -15 25 -8 -1 -15 4
-15 11 0 6 -3 15 -7 19 -13 12 -9 24 6 24 8 0 17 -6 20 -12 5 -10 7 -10 12 0
3 6 10 12 15 12 6 0 5 -8 -1 -20 -22 -40 0 -18 40 40 47 70 120 212 146 287
21 62 34 53 34 -22z m-1101 -71 c2 -2 -2 -11 -10 -20 -13 -16 -12 -16 11 -4
42 23 82 21 120 -8 60 -45 63 -50 38 -58 -13 -4 -34 -18 -48 -32 -14 -13 -35
-31 -47 -39 -13 -9 -23 -20 -23 -25 0 -5 23 9 50 32 28 23 50 36 49 28 0 -17
-97 -91 -109 -83 -11 7 -54 -14 -46 -22 3 -3 12 0 21 7 9 7 18 11 20 8 3 -3
-20 -25 -52 -49 -32 -23 -75 -59 -95 -78 -21 -19 -38 -31 -38 -25 0 5 5 15 12
22 7 7 9 12 6 12 -4 0 -14 -7 -22 -16 -9 -8 -16 -11 -16 -6 0 13 110 112 124
112 5 0 1 -10 -10 -22 -18 -20 -17 -20 14 2 36 27 40 32 15 23 -19 -6 -1 12
106 106 34 30 59 56 57 59 -7 6 -228 -171 -304 -245 -33 -32 -62 -43 -62 -23
0 6 9 18 19 27 11 9 18 20 16 24 -3 4 14 24 38 45 23 21 41 42 40 46 -2 5 0 7
5 6 4 -2 20 7 36 20 16 12 24 22 19 22 -6 0 -16 -7 -23 -15 -7 -9 -18 -14 -25
-11 -6 2 -31 -9 -55 -25 -48 -32 -82 -40 -60 -14 9 11 9 15 1 15 -8 0 -9 5 -2
19 9 16 8 18 -9 14 -11 -3 -20 -2 -20 1 0 8 63 36 80 36 18 0 11 -17 -12 -28
-13 -6 -17 -11 -10 -11 8 -1 27 8 43 20 29 20 29 20 9 41 -11 12 -17 25 -14
30 3 4 0 8 -7 8 -6 0 17 20 52 45 48 33 70 43 89 39 14 -3 27 -7 29 -10z
m1321 -333 c0 -10 -64 -69 -181 -166 -95 -79 -166 -148 -192 -185 l-18 -25 7
25 c6 25 5 25 -23 -5 -16 -16 -32 -37 -36 -45 -4 -8 -16 -28 -26 -45 -11 -16
-20 -42 -20 -57 -1 -15 -6 -30 -12 -34 -8 -5 -9 6 -4 37 3 24 7 54 8 66 1 11
5 20 8 18 3 -2 13 13 22 33 16 36 16 37 -3 15 -25 -31 -32 -29 -17 5 17 39 53
70 122 104 68 34 121 75 215 164 82 78 150 121 150 95z m-220 -348 c48 -128
64 -291 38 -389 -16 -57 -63 -101 -160 -149 -62 -31 -69 -32 -77 -17 -5 10 -8
85 -7 167 2 126 7 161 26 220 32 97 115 225 145 225 8 0 23 -26 35 -57z"/>
<path d="M9935 7265 c-22 -7 -53 -10 -70 -8 -45 7 -116 -37 -156 -97 -36 -53
-49 -59 -70 -34 -15 18 -54 11 -82 -14 -15 -13 -23 -14 -51 -4 -46 17 -51 16
-90 -20 -18 -18 -44 -40 -57 -49 -21 -14 -22 -19 -12 -42 7 -14 21 -28 32 -32
30 -9 26 -37 -11 -90 -22 -31 -37 -43 -48 -40 -17 5 -80 -21 -80 -34 0 -4 5
-12 12 -19 15 -15 22 -408 8 -467 -5 -23 -5 -42 0 -45 11 -7 17 -146 7 -156
-4 -4 -7 2 -7 14 0 12 -4 22 -10 22 -5 0 -10 -4 -10 -10 0 -5 -6 -10 -14 -10
-8 0 -17 -8 -21 -17 -6 -17 -7 -17 -20 0 -10 15 -10 23 6 54 11 21 19 44 19
53 -1 8 -10 -3 -22 -24 -11 -22 -27 -46 -34 -54 -8 -7 -14 -18 -14 -23 0 -5
-11 -9 -25 -9 -21 0 -25 5 -25 28 0 15 7 38 16 50 9 13 14 26 11 28 -6 7 -42
-45 -51 -72 -4 -14 1 -27 19 -44 35 -33 31 -53 -17 -94 -44 -38 -53 -42 -63
-26 -8 13 -25 13 -25 1 0 -17 32 -42 46 -37 20 8 17 -18 -4 -37 -25 -22 -34
-21 -60 6 -26 28 -27 43 -6 86 8 17 13 37 11 44 -3 6 -17 -13 -31 -43 -20 -40
-25 -47 -22 -25 5 28 5 28 -6 8 -6 -13 -17 -23 -24 -23 -16 0 -34 31 -34 59 0
12 -4 21 -10 21 -5 0 -10 -13 -10 -29 0 -31 48 -81 136 -141 l41 -29 46 43
c26 24 47 49 47 56 0 10 -3 10 -15 0 -8 -7 -15 -8 -15 -2 0 13 71 73 80 67 4
-3 7 3 6 13 0 9 5 16 12 14 7 -1 20 4 28 13 14 14 34 20 34 11 0 -2 -29 -33
-64 -70 -36 -37 -68 -76 -71 -86 -4 -11 -11 -20 -16 -20 -6 0 -8 -4 -4 -9 3
-5 -12 -23 -32 -40 -21 -17 -33 -31 -26 -31 6 0 27 18 47 40 40 45 50 50 41
19 -6 -18 -4 -19 13 -10 11 6 23 7 27 3 4 -4 5 2 1 13 -4 14 0 24 14 33 22 13
27 3 8 -16 -9 -9 -9 -12 1 -12 7 0 11 -6 8 -14 -6 -15 8 -15 75 0 23 5 27 3
30 -22 2 -16 0 -44 -3 -62 -9 -43 0 -46 112 -39 81 6 88 5 82 -11 -5 -16 -5
-16 8 0 8 9 42 26 77 38 62 20 138 70 195 127 15 15 33 27 38 25 6 -1 8 2 4 8
-3 5 3 23 14 39 12 16 21 37 21 46 0 19 118 137 125 125 2 -4 -5 -16 -17 -26
-11 -11 -41 -50 -66 -89 -24 -38 -49 -71 -53 -73 -5 -2 -9 -13 -9 -24 0 -14
-5 -18 -15 -14 -9 3 -15 0 -15 -9 0 -8 5 -15 11 -15 5 0 7 -4 4 -10 -3 -5 -2
-17 2 -25 7 -12 18 -1 51 47 54 82 94 130 85 103 -6 -20 -6 -20 15 -2 11 11
25 16 31 12 7 -3 8 0 5 9 -3 9 -2 16 2 16 17 0 66 -112 54 -124 -7 -7 -10 -6
-10 3 0 21 -43 86 -48 73 -2 -7 -12 -12 -22 -12 -11 0 -32 -19 -51 -47 -20
-29 -25 -41 -12 -30 11 9 23 17 28 17 4 0 1 -8 -6 -17 -11 -16 -11 -16 1 -5 8
7 15 18 15 25 0 17 53 17 66 1 9 -11 8 -18 -1 -29 -7 -9 -10 -18 -6 -22 3 -4
12 2 19 12 12 16 15 16 20 2 7 -18 -17 -42 -32 -33 -5 4 -12 2 -15 -3 -4 -6 7
-8 24 -6 18 2 30 -1 30 -7 0 -6 3 -8 7 -5 14 15 9 104 -8 150 -11 26 -19 53
-18 60 0 7 5 1 10 -13 6 -14 13 -20 17 -14 4 6 15 13 24 17 13 4 16 2 12 -11
-4 -10 2 -7 15 8 29 35 25 12 -12 -68 -7 -15 -8 -26 -1 -30 16 -12 10 -95 -10
-124 -36 -54 0 -27 43 31 34 47 46 57 56 48 7 -7 10 -18 8 -24 -3 -7 1 -13 8
-13 8 0 25 -9 39 -20 18 -14 41 -20 85 -20 43 0 69 -6 90 -20 17 -11 38 -20
48 -20 23 0 22 -12 -3 -28 -25 -16 -26 -32 -1 -32 12 0 26 12 34 29 13 26 13
30 0 35 -12 5 -13 9 -3 21 11 13 7 15 -21 16 -21 1 -26 3 -13 6 12 2 34 18 50
35 16 17 23 28 17 24 -21 -12 -15 4 10 26 28 24 20 22 -76 -25 -42 -21 -85
-37 -95 -34 -12 2 -4 9 26 21 23 10 42 22 42 26 0 10 85 50 107 50 20 1 88 58
79 67 -3 4 -23 -6 -43 -20 -34 -25 -38 -25 -55 -10 -26 24 -22 38 17 58 19 11
33 21 30 23 -2 2 -21 -7 -43 -19 -40 -23 -41 -23 -61 -5 -12 11 -21 30 -21 43
0 32 -8 29 -47 -17 -33 -38 -60 -49 -77 -32 -4 4 -12 7 -17 7 -18 0 -6 35 28
85 18 25 11 21 -22 -15 -37 -41 -47 -47 -55 -35 -12 18 -13 50 -2 50 4 0 16
13 26 28 l19 27 -29 -27 c-50 -47 -60 -32 -19 28 31 46 32 64 3 38 -30 -27
-79 -57 -84 -52 -2 3 10 24 27 49 l31 44 -46 -49 c-39 -41 -49 -46 -62 -35
-10 8 -13 21 -9 36 5 22 4 23 -16 13 -33 -18 -34 -5 -1 53 30 53 30 54 7 50
-12 -3 -37 -25 -56 -49 -24 -32 -36 -41 -45 -33 -7 5 -14 6 -16 1 -1 -5 -14
-13 -27 -17 -23 -7 -24 -6 -17 25 3 18 22 55 41 81 19 27 35 52 35 56 0 3 7
15 17 25 9 10 11 18 5 18 -11 0 -61 -64 -115 -147 -15 -24 -29 -43 -32 -43 -2
0 -3 39 -2 88 2 113 -14 197 -48 249 -9 14 -14 27 -12 30 10 9 57 -84 68 -136
7 -35 14 -49 19 -40 5 7 6 17 3 22 -3 6 -6 23 -5 40 0 17 -12 56 -28 87 -28
55 -51 76 -71 64 -5 -3 -8 -1 -7 3 2 5 -19 29 -47 53 -27 23 -60 53 -72 65
-13 12 -63 34 -113 49 -85 25 -103 37 -80 51 6 3 10 11 10 17 0 7 -13 0 -28
-15 -27 -26 -60 -38 -47 -17 3 6 1 10 -4 10 -6 0 -11 -4 -11 -10 0 -5 -7 -10
-15 -10 -21 0 -19 15 6 32 12 7 23 26 24 42 2 15 15 45 29 67 29 44 24 50 -12
17 l-24 -23 -19 24 c-26 32 -24 39 16 58 19 9 35 22 35 29 0 28 76 24 95 -5 9
-16 35 -13 29 3 -6 16 0 21 38 30 21 5 33 1 48 -14 l20 -20 31 34 c16 19 29
37 27 38 -2 2 11 18 29 35 22 22 38 30 53 26 13 -4 20 -1 20 10 0 17 67 31
104 21 16 -4 25 -1 29 10 9 22 53 20 77 -4 27 -27 25 -43 -5 -38 l-25 5 31
-35 c23 -26 29 -41 25 -58 -5 -19 -1 -26 18 -33 14 -6 26 -21 31 -38 12 -49
23 -55 84 -47 31 3 65 11 76 17 11 5 35 14 53 18 29 6 38 3 68 -23 38 -34 44
-57 14 -65 -11 -3 -20 -7 -20 -9 0 -1 14 -26 32 -54 l31 -50 -29 -32 -29 -32
28 18 c38 23 48 12 14 -14 l-27 -21 25 -23 c28 -26 29 -36 11 -88 l-13 -37 23
15 c13 9 20 22 17 30 -3 8 0 21 6 28 10 12 19 12 58 -1 38 -13 53 -14 98 -3
44 10 60 10 95 -2 59 -19 71 -40 42 -71 -29 -30 -28 -41 6 -67 25 -21 26 -23
8 -34 -10 -6 -27 -18 -38 -26 -19 -15 -19 -16 1 -42 22 -28 20 -33 -28 -58
-19 -10 -25 -10 -31 0 -6 9 -33 -2 -101 -40 -133 -75 -139 -79 -139 -91 0 -11
41 -2 50 11 3 4 21 15 40 24 19 9 50 26 68 37 35 23 42 20 15 -7 -16 -15 -15
-16 18 -9 19 4 39 11 45 16 5 4 21 5 35 2 21 -6 22 -4 12 9 -11 12 -8 18 21
33 31 17 33 20 28 62 -4 38 -1 46 22 64 31 25 33 45 5 68 -17 14 -19 20 -10
44 21 54 15 66 -44 93 -54 25 -57 25 -102 10 l-47 -16 -37 30 c-37 29 -79 40
-79 20 0 -5 8 -10 18 -10 10 0 27 -7 38 -15 19 -14 19 -14 -3 -15 -12 0 -25 5
-28 11 -4 6 -13 8 -21 5 -8 -3 -15 -1 -15 4 -3 20 -4 25 -12 36 -4 7 0 17 8
24 22 18 19 41 -14 92 -27 43 -29 49 -19 89 11 41 10 43 -23 70 -49 41 -81 45
-135 18 -38 -18 -48 -19 -55 -8 -6 11 -11 11 -21 1 -22 -22 -58 -14 -69 16 -6
15 -19 36 -29 47 -11 11 -26 50 -34 85 -22 96 -52 114 -141 85z m-364 -515
c20 -6 67 -36 105 -68 122 -102 164 -225 109 -319 -14 -23 -21 -43 -15 -43 5
0 18 18 26 41 12 28 19 37 25 28 12 -20 -2 -142 -19 -158 -12 -13 -12 -16 3
-27 14 -11 17 -23 13 -64 -8 -77 -32 -102 -109 -117 -35 -7 -83 -12 -107 -13
-41 0 -88 -16 -124 -42 -9 -7 -19 -10 -22 -7 -6 5 -11 156 -21 608 l-5 204 53
-7 c28 -4 68 -11 88 -16z"/>
<path d="M9305 6919 c-26 -21 -28 -21 -61 -5 -51 24 -64 20 -122 -34 l-53 -50
-29 22 c-29 21 -31 21 -81 5 -28 -10 -59 -17 -69 -17 -35 0 -51 -28 -47 -84 4
-42 9 -54 30 -66 36 -20 43 -7 17 34 -40 66 -20 90 91 110 31 5 42 2 68 -19
29 -25 32 -25 53 -11 12 9 33 16 45 16 21 0 22 2 11 20 -30 48 41 79 93 41 35
-26 35 -26 42 0 3 11 19 25 36 32 17 6 31 15 31 19 0 15 -27 8 -55 -13z"/>
<path d="M9548 3655 c-3 -49 -13 -112 -22 -138 -10 -27 -18 -62 -18 -78 -1
-16 -5 -29 -10 -29 -5 0 -7 -4 -4 -8 2 -4 -4 -19 -15 -32 -16 -22 -19 -23 -19
-6 0 15 -4 14 -22 -10 -13 -16 -35 -41 -51 -56 -15 -16 -25 -28 -22 -28 15 0
52 25 72 49 11 14 24 23 28 19 12 -11 -15 -52 -67 -99 -69 -64 -41 -74 37 -13
32 24 66 44 76 44 10 0 21 5 24 10 3 6 15 10 25 10 11 0 25 6 32 13 10 11 27
6 98 -30 47 -25 89 -49 95 -54 12 -12 65 -12 65 1 0 6 -9 10 -21 10 -25 0 -53
14 -100 51 -20 16 -44 29 -53 29 -9 0 -19 8 -22 18 -3 9 -10 28 -16 42 l-10
25 -9 -22 c-10 -27 -29 -31 -29 -6 0 15 -2 14 -15 -3 -14 -17 -15 -13 -10 56
9 132 9 234 -1 280 -10 44 -11 43 -16 -45z"/>
<path d="M9450 3492 c0 -5 -30 -40 -67 -79 -55 -57 -88 -80 -172 -123 -57 -29
-140 -65 -183 -80 -80 -28 -103 -40 -77 -40 22 0 111 29 133 43 44 28 198 79
226 75 23 -3 31 1 41 21 7 14 32 53 55 86 39 57 62 105 50 105 -3 0 -6 -4 -6
-8z"/>
<path d="M12645 7221 c-38 -10 -108 -37 -155 -60 -91 -45 -110 -58 -70 -46 16
5 7 -5 -25 -28 -27 -19 -62 -45 -77 -57 -25 -19 -27 -19 -21 -3 4 10 16 26 28
36 19 18 19 18 -12 1 -18 -10 -33 -21 -33 -25 0 -3 -28 -40 -62 -82 -189 -227
-264 -580 -183 -859 13 -45 22 -85 19 -90 -3 -4 2 -18 9 -30 8 -13 45 -81 82
-153 38 -71 87 -166 110 -210 55 -106 122 -230 150 -280 12 -22 42 -76 65
-120 23 -44 61 -113 82 -153 l40 -73 -17 -102 c-9 -56 -23 -109 -31 -118 -10
-12 -11 -18 -2 -27 9 -9 9 -23 1 -59 -20 -84 -24 -121 -13 -128 5 -3 10 -18
11 -33 0 -26 1 -26 11 -5 10 20 18 22 102 22 50 0 113 3 140 7 38 5 47 4 41
-5 -8 -13 13 -61 26 -61 4 0 5 9 2 20 -5 19 -3 20 20 9 15 -7 24 -16 21 -20
-3 -5 8 -9 25 -9 16 0 32 4 35 9 10 16 104 11 121 -6 9 -8 18 -13 21 -10 3 2
-2 11 -10 20 -13 13 -13 16 -1 20 7 3 28 2 45 -3 21 -6 28 -5 24 2 -4 6 -1 8
7 6 8 -3 13 -10 12 -14 -2 -13 140 -9 144 3 2 6 -13 9 -39 6 -31 -3 -55 2 -85
19 -50 27 -54 38 -14 38 31 0 50 -15 29 -23 -7 -2 2 -8 19 -13 39 -11 145 -6
138 6 -3 5 -29 7 -57 5 -36 -3 -48 -1 -38 6 8 5 38 9 65 8 28 0 87 3 132 7 69
6 80 9 68 20 -17 17 -47 18 -64 2 -11 -11 -12 -10 -6 1 7 12 -4 13 -66 6 -109
-12 -150 -9 -170 12 -13 13 -25 64 -44 185 -14 92 -28 174 -31 182 -3 7 58
138 136 291 78 152 154 307 170 343 15 37 62 142 103 234 92 202 122 293 147
447 31 190 -36 430 -176 627 -53 75 -166 182 -214 201 -69 28 -105 46 -133 65
-80 57 -394 79 -552 39z m469 -60 c142 -41 272 -107 263 -134 -1 -5 -22 -16
-46 -23 -38 -11 -46 -10 -83 9 -23 12 -67 46 -100 75 -32 28 -62 52 -66 52
-11 -1 98 -97 147 -130 28 -19 39 -31 30 -35 -8 -2 -86 -25 -174 -50 -260 -75
-325 -96 -410 -132 l-80 -34 -20 27 c-43 59 -179 214 -187 214 -14 0 -9 -10
32 -54 53 -57 150 -179 150 -188 0 -17 -21 -6 -72 38 -29 25 -88 69 -130 97
-43 29 -76 56 -74 62 5 18 137 106 225 150 199 100 383 117 595 56z m346 -210
c18 -22 35 -48 36 -57 2 -9 16 -31 31 -48 16 -17 36 -40 44 -51 13 -18 13 -19
-3 -6 -11 8 -18 9 -18 3 0 -6 5 -14 10 -17 6 -3 10 -15 10 -26 0 -10 5 -19 11
-19 6 0 8 7 5 16 -5 14 -4 15 8 5 15 -13 11 -45 -5 -35 -12 7 -11 0 3 -31 12
-27 31 -35 21 -8 -4 11 -3 14 6 9 6 -4 11 -13 10 -19 -1 -7 3 -25 10 -42 19
-47 30 -171 25 -286 -9 -201 -18 -225 -65 -168 -37 45 -131 233 -168 334 -15
44 -61 160 -101 258 -39 98 -69 181 -67 184 9 8 121 42 142 42 12 1 35 -16 55
-38z m-240 -28 c0 -10 -7 -85 -15 -168 -8 -82 -15 -182 -15 -222 0 -39 -4 -75
-10 -78 -5 -3 -10 3 -10 15 0 36 -46 114 -93 157 -78 72 -118 87 -227 88 -85
0 -101 -3 -154 -29 -106 -52 -147 -104 -182 -231 -14 -53 -19 -179 -6 -172 4
3 8 -14 8 -38 1 -42 54 -159 62 -136 2 7 -3 22 -11 34 -38 59 -39 246 -2 331
14 31 31 56 38 56 14 0 67 54 67 68 0 14 56 51 102 67 60 20 118 19 180 -6
124 -49 187 -138 215 -305 3 -20 0 -34 -11 -43 -9 -8 -16 -22 -16 -32 0 -11
-4 -19 -10 -19 -5 0 -10 -5 -10 -10 0 -6 -7 -27 -16 -48 -10 -20 -16 -45 -15
-54 1 -10 -1 -18 -6 -18 -4 0 -26 -16 -47 -35 -22 -19 -46 -35 -53 -35 -8 0
-28 -7 -46 -16 -17 -9 -65 -20 -106 -25 -103 -12 -150 2 -201 57 -30 33 -40
39 -40 25 0 -24 83 -94 129 -109 70 -24 217 -7 277 33 44 29 38 8 -18 -67 -51
-68 -123 -186 -100 -163 5 6 43 57 83 115 40 58 101 140 136 183 82 101 106
161 104 260 0 15 5 27 12 27 7 0 60 -31 117 -68 58 -38 138 -90 178 -115 39
-26 72 -52 72 -60 0 -7 -98 -62 -217 -122 -120 -59 -288 -150 -374 -202 -86
-51 -161 -93 -167 -93 -6 0 -32 33 -58 72 -26 40 -82 111 -126 157 -56 61 -75
87 -66 93 10 6 10 10 1 16 -20 13 -123 154 -123 168 0 8 7 11 18 8 16 -5 16
-5 0 9 -21 17 -23 33 -5 41 6 3 3 4 -8 3 -11 -1 -23 -6 -27 -12 -11 -15 -10 7
1 24 5 8 15 11 23 8 11 -4 14 5 13 40 0 25 5 61 11 81 7 21 20 64 30 97 9 33
20 65 24 70 4 6 13 27 19 47 14 43 74 99 123 115 18 6 80 28 138 48 58 20 139
47 180 60 41 13 104 35 140 49 78 30 90 31 90 9z m-885 -20 c17 -16 75 -59
128 -97 54 -39 97 -74 97 -80 0 -5 -6 -17 -14 -25 -40 -45 -92 -177 -158 -400
-12 -40 -27 -56 -147 -153 -74 -59 -138 -108 -143 -108 -4 0 -9 12 -10 28 -1
31 -3 41 -10 62 -26 77 -29 101 -27 215 2 69 6 125 11 125 4 0 12 19 18 43 36
140 86 261 151 366 37 59 57 64 104 24z m926 -54 c28 -57 91 -211 141 -344 22
-60 62 -152 90 -203 27 -52 48 -95 46 -98 -3 -2 -52 29 -109 69 -58 39 -133
86 -166 102 -34 17 -64 35 -66 40 -3 6 1 42 8 80 7 39 16 143 20 233 4 89 9
162 11 162 2 0 13 -19 25 -41z m-809 -692 c60 -91 144 -202 213 -284 33 -39
71 -87 85 -104 22 -30 23 -32 5 -25 -11 4 -42 16 -70 26 -27 10 -108 46 -180
80 -71 34 -178 82 -238 106 -59 24 -115 47 -123 52 -17 9 -14 12 111 104 74
55 122 94 128 105 12 19 21 10 69 -60z m1153 -104 c-8 -16 -25 -53 -39 -83
-65 -150 -87 -194 -275 -565 -17 -33 -65 -132 -107 -220 -41 -88 -86 -173 -98
-190 -20 -27 -53 -90 -56 -107 0 -4 -13 -20 -28 -36 -15 -16 -33 -51 -41 -77
-8 -26 -23 -57 -33 -67 -10 -10 -17 -27 -14 -36 3 -9 -2 -27 -12 -39 -16 -22
-17 -11 -17 225 0 219 2 250 18 272 9 13 17 31 16 40 0 8 -5 2 -11 -13 -13
-36 -32 -30 -36 11 -3 31 35 129 63 162 21 24 55 90 47 90 -8 0 -68 -86 -93
-133 -16 -30 -17 -30 -23 -9 -4 12 -7 50 -6 85 1 34 1 64 0 67 -1 3 -3 56 -5
118 -1 62 -5 116 -9 119 -4 5 119 93 130 93 1 0 35 19 76 43 40 24 107 60 148
81 41 21 80 43 87 48 7 5 17 7 22 4 5 -4 12 -2 16 4 8 13 72 40 95 40 9 0 25
9 34 19 18 20 105 66 119 63 4 -1 7 3 7 8 0 6 9 10 20 10 18 0 18 -2 5 -27z
m-1426 -83 c46 -23 346 -155 476 -210 169 -70 160 -63 161 -128 0 -31 8 -199
17 -372 10 -173 18 -371 19 -440 2 -119 2 -125 -17 -125 -15 0 -20 7 -20 26
-1 14 -11 39 -23 56 -12 17 -22 34 -22 38 0 3 -17 32 -38 63 -21 31 -42 64
-45 72 -4 8 -11 22 -17 30 -5 8 -47 80 -91 160 -84 149 -174 308 -225 394 -27
45 -234 447 -234 453 0 8 25 1 59 -17z"/>
<path d="M11877 5773 c-32 -117 -96 -398 -137 -603 -5 -25 -23 -99 -40 -165
-18 -66 -37 -141 -42 -167 -6 -27 -15 -48 -19 -48 -5 0 -9 5 -9 10 0 6 -4 10
-9 10 -5 0 -9 -14 -9 -30 1 -22 5 -29 15 -26 7 3 13 1 13 -4 0 -6 -9 -10 -19
-10 -11 0 -22 -4 -26 -9 -3 -6 4 -8 15 -6 11 2 20 0 20 -6 0 -5 -9 -9 -19 -9
-13 0 -19 -6 -19 -17 1 -10 -2 -31 -6 -47 -6 -24 -4 -28 10 -22 14 6 15 4 4
-10 -8 -8 -15 -34 -18 -57 -2 -23 -17 -98 -33 -167 -17 -69 -37 -152 -44 -185
-17 -75 -60 -263 -85 -375 -11 -47 -24 -98 -30 -115 l-10 -30 4 35 c7 55 34
190 46 226 6 18 13 45 16 61 3 15 9 45 15 65 16 63 50 261 53 313 2 28 4 58 5
67 0 9 7 18 15 20 10 2 8 8 -9 20 -22 17 -23 17 -22 -5 2 -55 -14 -172 -39
-282 -14 -66 -30 -138 -35 -160 -14 -68 -58 -192 -56 -160 0 17 4 35 8 40 4 6
12 44 19 85 7 41 19 85 26 97 8 12 14 37 16 55 1 18 5 38 10 44 5 7 8 16 6 20
-1 5 3 43 9 84 7 41 14 117 17 168 4 77 2 94 -10 99 -11 4 -12 8 -4 13 6 4 13
25 15 46 5 60 16 117 26 136 5 9 8 21 7 25 -4 18 15 62 24 57 6 -4 9 -1 6 7
-3 8 1 19 8 24 8 6 16 26 18 45 3 19 8 44 12 54 5 14 4 17 -4 12 -17 -10 -15
33 7 134 16 76 39 191 101 506 21 108 26 174 11 174 -13 0 -14 -3 -71 -255
-41 -178 -50 -233 -41 -246 7 -12 7 -20 1 -24 -6 -3 -10 -1 -10 6 0 7 -2 10
-5 8 -2 -3 -11 -63 -20 -134 -9 -71 -18 -132 -20 -136 -3 -4 -11 -35 -19 -70
-17 -80 -93 -384 -106 -424 -5 -16 -21 -88 -35 -160 -15 -71 -42 -188 -60
-260 -18 -71 -41 -170 -50 -220 -9 -49 -30 -139 -46 -200 -17 -60 -39 -153
-49 -205 -11 -52 -27 -129 -37 -170 -10 -41 -18 -120 -19 -175 -1 -99 -14
-162 -34 -175 -7 -5 -6 -11 4 -20 13 -10 16 -10 20 1 2 8 9 34 16 59 l13 45
12 -55 c6 -30 17 -65 23 -77 7 -12 12 -31 12 -42 0 -33 40 -101 69 -114 17 -9
42 -11 76 -6 28 4 95 8 150 8 68 1 95 4 85 11 -10 6 21 9 93 8 60 0 107 -5
107 -10 0 -6 85 -7 225 -2 211 6 225 6 231 -11 7 -17 8 -16 16 4 7 19 13 21
42 16 20 -4 36 -2 40 4 5 7 -4 11 -24 11 -30 0 -31 1 -24 38 4 20 11 45 15 54
5 9 9 26 9 36 0 19 6 20 102 16 56 -2 125 -9 154 -15 61 -14 306 -7 344 9 19
9 -5 10 -102 7 -72 -2 -130 1 -133 6 -4 5 16 9 44 9 28 0 51 4 51 10 0 5 -33
7 -82 3 -46 -3 -145 -6 -220 -7 l-138 -1 0 33 c0 27 3 32 18 28 86 -26 300
-31 497 -12 28 3 91 8 140 11 272 20 293 23 125 19 -464 -13 -598 -14 -635 -5
-30 7 16 10 180 12 121 1 230 1 243 0 12 -1 30 3 40 9 13 8 0 10 -53 9 -241
-3 -435 2 -435 11 0 6 45 10 113 11 61 0 103 4 93 8 -31 12 2 20 54 12 25 -3
122 -4 215 -1 l170 5 -105 7 c-167 12 -551 18 -546 9 9 -14 -49 -62 -67 -55
-20 7 -23 44 -4 44 8 0 8 3 -2 9 -13 8 -12 20 3 88 10 43 19 92 21 108 2 17 8
41 13 55 5 14 13 66 17 115 4 50 11 95 15 100 5 6 16 49 25 97 l18 88 41 -4
c22 -2 174 -4 337 -5 l297 -1 6 -45 c4 -25 13 -51 20 -58 11 -10 11 -15 -1
-25 -9 -9 -10 -18 -3 -32 5 -10 10 -29 10 -42 0 -16 3 -19 9 -10 7 11 10 10
15 -3 9 -25 7 -47 -4 -40 -5 3 -10 2 -10 -4 0 -5 6 -12 13 -14 9 -4 9 -7 -1
-15 -8 -5 -10 -16 -6 -27 7 -18 8 -18 15 1 4 10 5 -1 2 -27 -3 -26 1 -70 10
-105 8 -32 19 -81 23 -109 4 -27 9 -54 9 -60 1 -5 3 -17 3 -26 1 -8 22 -42 47
-74 35 -45 43 -61 34 -71 -7 -9 -8 -14 -1 -14 6 0 33 -23 61 -52 l51 -52 -6
34 c-10 50 -28 82 -76 135 -45 49 -92 125 -78 125 4 0 10 -7 14 -15 3 -8 12
-15 19 -15 11 0 13 12 11 45 -2 25 1 45 6 45 6 0 11 -10 12 -22 0 -13 2 -27 3
-33 1 -5 5 -31 9 -57 8 -47 36 -100 35 -68 0 8 -6 37 -13 64 -13 49 -11 96 4
96 8 0 19 -52 25 -110 1 -14 5 -32 8 -40 15 -41 27 -90 32 -135 3 -27 8 -60
11 -72 4 -19 0 -23 -23 -24 -26 -1 -26 -2 7 -10 19 -6 266 -11 548 -13 282 -2
516 -6 519 -10 4 -3 19 -43 34 -89 24 -68 27 -74 23 -37 -3 25 -10 49 -15 55
-5 5 -9 29 -9 54 0 24 -5 58 -10 75 -10 30 -70 267 -115 456 -12 52 -29 131
-38 175 -14 75 -70 328 -101 456 -8 31 -12 67 -9 81 3 15 -2 37 -12 51 -12 20
-13 26 -3 30 8 4 7 6 -4 6 -10 1 -18 7 -18 15 0 8 -3 22 -6 30 -5 12 -2 15 10
10 20 -8 21 5 0 20 -21 16 -59 187 -43 196 14 9 7 46 -9 42 -14 -2 -16 15 -2
20 5 2 7 13 4 25 -4 13 -10 20 -15 17 -5 -3 -9 0 -9 5 0 6 4 11 9 11 8 0 -2
45 -32 148 -9 28 -13 52 -9 52 3 0 1 5 -6 12 -8 8 -8 17 -1 31 7 11 7 17 1 13
-5 -3 -9 6 -9 21 0 15 -5 29 -11 31 -6 2 -8 14 -6 28 3 14 0 24 -7 24 -6 0 -9
7 -6 15 4 8 2 17 -3 20 -5 3 -9 13 -8 23 0 9 -3 26 -6 37 -14 50 -27 109 -31
145 -3 22 -12 68 -21 103 -8 34 -22 91 -29 127 -32 149 -82 300 -100 300 -9 0
-12 -6 -9 -15 4 -8 2 -21 -4 -28 -8 -9 -4 -37 14 -97 37 -126 47 -162 49 -190
1 -14 5 -32 8 -40 17 -43 56 -217 59 -265 1 -17 5 -34 8 -40 13 -19 20 -65 10
-65 -5 0 -12 11 -16 25 -13 51 -16 15 -3 -39 8 -39 17 -56 28 -56 12 0 13 -2
3 -8 -10 -7 -10 -20 -2 -63 28 -134 53 -229 62 -229 6 0 8 -13 4 -30 -3 -17
-2 -29 2 -26 7 4 15 -26 37 -129 2 -6 14 -56 28 -110 14 -55 28 -118 31 -140
7 -41 18 -95 60 -275 14 -58 34 -148 46 -200 11 -52 26 -115 31 -140 115 -496
126 -541 154 -612 7 -17 -14 -18 -336 -18 -189 0 -373 -1 -409 -2 -36 0 -104
0 -152 1 l-87 1 -6 48 c-4 26 -13 74 -20 107 -22 98 -45 228 -47 265 -1 19 -4
40 -7 45 -3 6 -6 19 -6 30 -2 45 -18 148 -46 286 -16 81 -29 162 -29 182 0 39
-14 55 -33 38 -16 -13 -409 8 -419 22 -4 6 -13 4 -23 -6 -9 -10 -24 -16 -33
-16 -15 1 -15 2 1 6 38 10 13 18 -56 18 -110 -1 -147 -4 -147 -13 0 -4 18 -6
41 -4 24 3 46 -1 52 -8 9 -9 -1 -10 -48 -6 -84 8 -92 8 -165 -3 -48 -7 -67 -6
-72 2 -5 8 -8 6 -8 -5 0 -10 -5 -18 -11 -18 -5 0 -7 -5 -3 -11 3 -6 2 -14 -3
-18 -5 -3 -22 -51 -37 -105 -16 -55 -38 -127 -51 -160 -13 -34 -41 -137 -64
-231 -52 -214 -51 -205 -41 -205 4 0 16 36 26 80 10 44 21 85 25 92 14 22 19
2 9 -33 -6 -19 -13 -50 -16 -69 -3 -19 -11 -55 -19 -80 -7 -25 -13 -57 -13
-71 0 -14 -5 -58 -12 -97 l-13 -72 -66 0 c-92 0 -242 18 -258 32 -10 8 -13 7
-13 -2 0 -8 -4 -9 -12 -3 -8 5 -138 8 -310 7 -164 -1 -298 0 -298 3 0 2 16 70
35 151 76 314 84 348 91 387 4 22 10 47 15 56 4 9 10 31 12 50 2 19 7 41 11
50 4 9 6 20 5 25 -1 5 1 16 4 24 13 31 29 107 33 157 2 28 10 80 18 115 8 35
17 83 21 108 3 25 10 61 15 80 5 19 16 67 25 105 9 39 19 77 22 85 3 8 7 35 9
60 1 25 3 50 3 57 1 7 7 10 15 7 21 -8 28 11 42 106 3 19 12 59 20 88 13 44
14 56 3 62 -9 6 -9 12 4 25 17 16 20 32 19 88 0 15 3 27 7 27 5 0 7 14 5 30
-3 22 1 30 12 30 14 0 14 3 3 16 -10 13 -10 17 2 25 8 5 10 9 4 9 -5 0 -4 4 3
8 7 5 15 26 17 48 3 21 9 48 14 59 5 11 15 58 21 105 7 47 16 92 21 100 4 8
17 60 29 115 12 55 31 141 41 190 25 109 27 124 35 200 3 33 9 64 14 69 5 5 6
15 3 23 -3 8 0 19 8 24 12 7 11 9 -2 9 -11 0 -21 -18 -32 -57z"/>
<path d="M6320 3109 c-14 -5 -38 -27 -53 -47 -15 -20 -43 -57 -62 -82 -22 -28
-30 -47 -23 -51 6 -4 0 -14 -16 -24 -34 -23 -27 -29 32 -28 44 2 45 1 14 -6
-42 -11 -65 -31 -35 -31 42 0 83 13 83 26 0 19 16 18 24 -2 5 -13 16 -15 69
-9 34 4 66 11 71 15 8 8 -4 10 -86 10 -38 0 -46 3 -41 15 4 12 0 14 -18 7 -20
-7 -105 1 -89 8 16 7 108 5 124 -3 13 -6 16 -6 12 2 -5 7 1 11 14 11 12 0 18
-4 15 -10 -3 -5 -1 -10 4 -10 6 0 11 5 11 10 0 6 10 10 23 9 21 0 21 -1 2 -9
-18 -8 -17 -9 7 -9 20 -1 26 3 22 14 -5 11 1 15 21 15 21 0 25 -3 17 -12 -8
-10 10 -13 84 -13 52 -1 94 3 94 7 0 4 -36 8 -80 8 -44 0 -80 4 -80 9 0 5 -56
8 -130 7 -72 -2 -133 1 -136 5 -3 5 5 11 18 13 30 6 292 18 394 17 54 0 74 3
64 9 -8 5 -69 10 -135 11 -91 1 -110 3 -80 10 22 4 81 8 130 9 62 0 85 3 75
10 -8 5 -48 10 -87 10 -42 0 -73 4 -73 10 0 10 42 15 88 11 12 -1 22 3 22 9 0
11 -20 13 -172 12 -124 -1 -147 12 -30 17 42 2 97 7 122 11 l45 7 -51 2 c-28
0 -84 3 -125 6 -41 3 -85 0 -99 -6z"/>
<path d="M15928 2882 c-31 -13 -4 -31 62 -41 86 -14 543 -15 535 -1 -4 6 -11
8 -16 4 -5 -3 -15 -1 -22 4 -20 15 -53 20 -70 10 -11 -5 -24 -5 -37 2 -13 7
-20 7 -20 0 0 -16 -39 -12 -57 5 -8 9 -18 13 -21 10 -4 -3 0 -10 7 -15 9 -5 1
-8 -24 -8 -27 0 -34 3 -24 10 10 6 6 7 -11 2 -14 -4 -33 -7 -42 -5 -10 1 -33
3 -52 4 -22 1 -32 6 -29 15 4 9 -15 12 -78 11 -46 0 -92 -3 -101 -7z"/>
<path d="M12520 2869 c-14 -4 -67 -7 -117 -8 -55 -1 -93 -5 -93 -11 0 -9 29
-15 53 -11 4 0 7 -4 7 -10 0 -13 309 -11 467 4 94 8 110 12 105 25 -4 11 -7
12 -10 4 -3 -10 -7 -10 -17 -2 -10 8 -19 8 -35 0 -22 -12 -248 -12 -255 0 -3
4 -16 5 -30 2 -14 -2 -31 0 -38 5 -6 6 -23 6 -37 2z"/>
</g>
</svg>
