<?xml version="1.0" standalone="no"?>
<!DOCTYPE svg PUBLIC "-//W3C//DTD SVG 20010904//EN"
 "http://www.w3.org/TR/2001/REC-SVG-20010904/DTD/svg10.dtd">
<svg version="1.0" xmlns="http://www.w3.org/2000/svg"
 width="1928.000000pt" height="1074.000000pt" viewBox="0 0 1928.000000 1074.000000"
 preserveAspectRatio="xMidYMid meet">
<metadata>
Created by potrace 1.16, written by Peter Selinger 2001-2019
</metadata>
<g transform="translate(0.000000,1074.000000) scale(0.100000,-0.100000)"
fill="#000000" stroke="none">
<path d="M14556 8018 c4 -7 16 -25 26 -40 26 -37 23 -48 -14 -49 l-33 -2 35
-6 c34 -6 35 -7 33 -51 -8 -152 -15 -1351 -15 -2404 1 -775 -3 -1236 -9 -1248
-5 -10 -6 -18 -1 -18 5 0 9 -219 11 -487 1 -269 4 -503 7 -520 5 -28 3 -34
-17 -42 -18 -6 -29 -5 -41 7 -16 14 -18 14 -18 -1 0 -9 5 -19 10 -22 6 -3 10
-15 10 -26 0 -10 5 -19 11 -19 6 0 8 9 4 21 -10 30 26 22 41 -9 6 -13 15 -23
20 -22 5 1 10 -3 12 -8 1 -5 -16 -8 -39 -8 -22 1 -43 -3 -46 -7 -3 -5 11 -7
30 -6 20 2 39 0 43 -4 4 -4 2 -7 -4 -7 -21 0 -13 -15 16 -27 34 -16 123 -103
116 -114 -3 -5 4 -9 14 -9 12 0 27 -13 38 -36 11 -20 27 -50 36 -68 12 -21 17
-57 18 -111 1 -82 18 -82 19 0 1 22 6 56 11 77 10 34 12 36 48 33 20 -2 93 -5
162 -6 69 -1 119 -4 113 -6 -30 -11 -9 -19 32 -13 25 4 102 8 172 9 70 1 131
5 136 8 10 6 178 13 362 14 76 0 113 4 100 9 -11 5 -43 9 -72 9 -61 1 -83 8
-83 27 0 8 -7 14 -15 14 -8 0 -15 -7 -15 -15 0 -9 -9 -15 -22 -15 -17 0 -19 3
-10 12 7 7 12 42 12 85 0 52 4 73 13 73 6 0 85 -7 175 -15 109 -10 169 -12
180 -5 12 7 -2 10 -53 11 -38 1 -74 1 -78 0 -4 -1 -18 4 -30 11 -13 7 -60 13
-112 13 -86 0 -90 1 -93 24 -3 22 -1 23 36 16 21 -3 74 -7 116 -7 42 0 76 -4
76 -8 0 -4 -6 -7 -14 -6 -8 0 -14 -3 -13 -7 1 -5 74 -10 162 -12 88 -2 197 -6
242 -10 80 -7 82 -7 76 14 -6 23 14 30 23 7 3 -8 50 -53 105 -101 54 -48 99
-91 99 -97 0 -5 -25 -8 -55 -7 -30 1 -58 -1 -62 -4 -14 -15 11 -21 80 -22 l71
0 49 -98 c28 -54 52 -96 54 -93 2 2 -12 40 -32 84 -43 94 -43 121 1 77 16 -17
42 -46 56 -65 15 -19 29 -32 33 -29 3 3 -10 26 -29 50 -19 24 -34 45 -32 46 1
1 113 0 249 -4 l247 -6 0 -66 c0 -82 18 -71 22 14 3 58 4 60 28 57 15 -2 39 4
55 12 18 10 56 16 98 16 l67 0 0 -101 c0 -64 4 -98 10 -94 6 3 10 47 10 96 0
104 -3 101 98 104 109 3 136 5 130 10 -3 3 -49 7 -103 9 -110 4 -118 9 -109
70 9 61 11 746 2 746 -4 0 -5 -6 -2 -14 3 -8 1 -17 -5 -21 -7 -4 -11 7 -11 32
0 28 3 34 10 23 7 -11 10 2 10 43 0 32 -4 56 -9 53 -15 -10 -23 190 -14 339 5
77 6 170 3 208 -3 37 -2 67 3 67 4 0 5 6 0 13 -15 24 -16 48 -19 497 -2 250
-6 496 -9 545 l-6 90 -32 0 -32 0 2 85 c1 47 2 89 2 94 1 4 12 5 26 2 33 -9
32 9 -2 29 l-28 16 28 -6 c15 -3 27 -1 27 5 0 5 4 10 9 10 7 0 20 -174 26
-385 2 -44 3 -277 4 -518 1 -405 8 -513 25 -372 12 107 6 975 -7 1045 -7 36
-11 97 -9 135 9 191 4 622 -9 690 -7 35 -6 52 4 63 9 12 12 149 10 619 -2 491
0 604 11 600 7 -3 19 -1 27 4 12 7 12 9 -1 9 -15 0 -29 11 -184 146 -130 113
-240 196 -244 184 -2 -6 1 -17 8 -25 6 -8 9 -19 5 -25 -3 -5 -1 -10 5 -10 10
0 55 -35 191 -151 75 -64 93 -76 105 -72 6 2 16 -3 23 -11 11 -13 6 -14 -36
-11 -166 13 -345 14 -612 5 -334 -12 -313 -15 -362 53 -15 21 -65 73 -111 115
-46 42 -84 79 -86 82 -1 4 172 6 385 6 373 -1 463 4 463 24 0 6 -31 10 -69 10
-39 0 -72 3 -74 8 -6 8 -539 -4 -665 -15 l-83 -8 -4 -80 c-2 -44 -10 -153 -16
-242 -9 -120 -10 -196 -2 -300 9 -107 9 -724 1 -813 -1 -8 2 -25 6 -37 4 -14
3 -23 -3 -23 -5 0 -12 8 -15 18 -3 9 -4 -12 -1 -48 4 -78 -2 -69 -50 68 -19
54 -50 133 -70 175 -19 43 -35 80 -35 83 0 3 -6 20 -14 37 -7 18 -27 75 -44
127 -17 52 -60 163 -95 246 -35 83 -70 168 -77 190 -7 21 -16 44 -20 49 -4 6
-20 44 -34 85 -15 41 -38 94 -51 117 -25 46 -23 58 9 41 21 -11 21 -11 2 11
-11 11 -26 21 -35 22 -24 0 -134 151 -118 161 11 7 3 12 -15 9 -4 0 -24 20
-45 46 -21 25 -53 63 -71 82 l-32 36 6 -30 c4 -16 18 -46 31 -65 12 -19 23
-39 23 -44 0 -5 30 -41 66 -80 36 -39 78 -85 95 -103 l29 -32 -38 3 c-20 2
-218 5 -440 6 l-402 2 -35 41 c-20 23 -48 64 -64 92 -16 27 -43 66 -60 85 -17
19 -31 38 -31 41 0 9 733 -1 792 -10 43 -7 46 -7 38 9 -8 15 -29 19 -132 24
-125 6 -508 16 -674 17 l-92 1 -33 44 c-31 42 -48 58 -33 32z m2056 -439 c0
-59 -9 -246 -13 -255 -2 -5 -2 -96 1 -201 4 -165 3 -194 -10 -199 -8 -4 -18
-7 -22 -6 -3 1 -9 -27 -11 -61 -8 -95 -8 -115 3 -122 6 -4 10 26 10 80 0 77 2
86 18 83 19 -4 20 -26 13 -280 -3 -93 -6 -118 -17 -118 -9 0 -14 12 -15 38 0
20 -4 55 -8 77 -8 39 -8 38 -9 -20 -1 -33 -4 -73 -7 -88 -5 -24 -3 -28 12 -23
37 12 45 -6 40 -95 -6 -109 -9 -123 -30 -131 -13 -6 -16 -14 -11 -33 3 -14 2
-25 -4 -25 -14 0 -22 25 -23 68 0 20 -4 46 -9 57 -8 19 -9 18 -9 -4 -1 -20 -3
-21 -16 -11 -17 14 -19 7 -6 -18 4 -9 11 -30 15 -47 5 -27 4 -26 -14 10 -11
22 -19 46 -18 55 1 8 -1 20 -5 27 -4 7 -10 36 -13 65 -3 29 -9 70 -14 90 -4
22 -4 36 1 32 12 -7 11 63 -1 106 -6 21 -6 38 -1 43 6 6 6 20 0 36 -6 14 -10
27 -10 29 4 14 -1 32 -9 32 -5 0 -10 -19 -10 -42 0 -31 -3 -39 -11 -31 -17 17
-21 87 -24 468 -1 193 -3 422 -5 510 -1 88 -1 164 -1 170 1 5 55 -44 122 -111
106 -106 120 -124 121 -155z m-1781 66 c31 -33 35 -45 18 -62 -6 -6 -8 -16 -4
-22 3 -7 6 -157 6 -334 -1 -177 -3 -972 -6 -1767 -2 -795 -7 -1458 -10 -1475
-3 -16 -6 -42 -5 -57 0 -16 -4 -28 -10 -28 -5 0 -10 -9 -10 -20 0 -11 3 -20 8
-20 4 0 7 -29 7 -65 0 -76 -22 -93 -23 -19 -1 50 -9 84 -20 84 -7 0 -17 -433
-11 -480 5 -34 -1 -163 -7 -157 -4 3 -8 59 -10 124 -9 319 -13 404 -20 414 -5
8 -3 9 6 4 9 -6 10 -2 5 16 -4 13 -11 26 -16 29 -4 3 -7 21 -6 40 2 28 7 35
27 40 24 6 43 50 22 50 -6 0 -8 -9 -5 -20 4 -17 1 -20 -18 -17 -24 4 -27 11
-29 90 -1 15 -5 27 -9 27 -4 0 -7 -58 -6 -130 1 -71 -1 -130 -5 -130 -12 0
-21 125 -10 128 7 3 7 9 -1 19 -9 10 -13 71 -13 201 -1 112 -5 190 -11 194 -6
5 -5 8 3 8 6 0 12 7 12 15 0 9 6 12 15 9 11 -5 14 -2 8 12 -3 11 -11 22 -16
25 -6 4 -6 15 -2 25 5 11 7 26 6 33 -2 13 -1 13 15 0 16 -13 16 -12 0 14 -10
15 -23 27 -28 27 -5 0 -6 5 -2 11 3 6 -4 24 -16 41 -12 16 -19 32 -16 35 3 4
6 2 6 -4 0 -6 6 -13 14 -16 10 -4 12 0 9 14 -3 10 0 19 6 19 6 0 8 7 4 17 -4
11 -3 14 5 9 7 -4 12 -3 12 3 0 5 -4 13 -10 16 -5 3 -10 11 -10 16 0 6 5 7 12
3 7 -4 8 -3 4 5 -4 6 -12 9 -17 6 -5 -4 -9 3 -9 15 0 12 5 18 10 15 6 -3 10
-1 10 4 0 6 -4 11 -10 11 -5 0 -8 13 -6 30 2 16 -1 27 -5 24 -5 -3 -9 2 -9 10
0 9 -4 16 -9 16 -5 0 -9 16 -9 35 0 28 3 33 13 25 7 -5 10 -21 7 -35 -2 -14 0
-25 6 -25 5 0 10 10 9 23 0 12 3 29 7 37 3 9 -1 24 -10 35 -8 11 -13 15 -10 8
4 -6 2 -14 -4 -18 -5 -3 -11 -3 -11 2 -3 15 -9 206 -13 443 -3 129 -7 312 -10
405 -6 199 -6 864 -1 915 18 170 26 855 12 1068 -4 65 -4 112 2 112 5 0 30
-31 56 -70 26 -38 51 -70 55 -70 24 0 34 -65 36 -235 3 -234 3 -225 12 -225
12 0 12 411 0 435 -6 11 -33 47 -61 80 -28 33 -60 71 -71 85 -20 24 106 -94
165 -155z m946 -55 c6 -14 15 -43 18 -65 l7 -40 -25 35 c-51 70 -58 74 -26 15
18 -33 49 -91 70 -130 20 -38 56 -115 79 -170 23 -55 61 -145 85 -200 23 -55
60 -147 81 -205 21 -58 42 -106 46 -108 5 -2 8 -9 8 -15 0 -7 7 -24 14 -39 8
-16 17 -42 20 -60 3 -17 12 -45 20 -62 28 -59 56 -126 56 -135 0 -17 117 -355
143 -413 14 -31 41 -108 60 -171 70 -227 235 -573 261 -546 2 2 -7 38 -21 79
-21 65 -25 97 -28 235 -6 277 -6 579 -1 613 3 19 1 32 -6 32 -6 0 -8 9 -3 23
7 25 13 301 19 897 2 223 5 414 5 425 1 20 9 20 325 22 l324 2 6 -32 c8 -44
12 -1914 8 -3547 -1 -421 0 -796 3 -835 3 -38 7 -142 9 -230 l4 -160 -207 2
c-113 2 -243 5 -288 9 -78 5 -83 7 -83 29 0 13 5 25 11 27 7 2 -2 18 -20 35
-36 37 -41 57 -10 48 15 -5 20 -3 17 6 -2 7 -15 16 -29 19 -16 4 -23 12 -21
24 2 10 -1 15 -6 12 -7 -4 -38 70 -33 81 0 2 -9 24 -20 50 -12 27 -32 82 -45
123 -14 41 -38 100 -54 130 -16 30 -40 89 -53 130 -65 199 -173 483 -209 548
-10 18 -18 48 -18 67 0 18 -4 36 -9 40 -5 3 -15 22 -22 43 -7 20 -19 53 -27
72 -9 19 -17 45 -19 58 -3 20 -70 173 -93 214 -6 10 -10 25 -10 33 0 8 -4 23
-10 33 -11 21 -61 150 -134 352 -31 85 -68 180 -81 211 -14 31 -25 59 -25 62
0 3 -5 18 -11 34 -6 15 -13 48 -15 72 -4 43 -14 71 -14 38 0 -25 -29 -20 -36
6 -3 12 -22 36 -42 52 l-36 30 20 -34 c10 -18 25 -35 32 -38 6 -3 12 -11 12
-19 0 -7 7 -17 16 -22 10 -5 14 -15 10 -21 -6 -9 -11 -9 -22 0 -22 18 -30 2
-9 -20 15 -18 16 -32 10 -118 -3 -54 -6 -111 -7 -128 -1 -90 0 -369 3 -570 4
-345 3 -563 -3 -1075 -3 -256 -2 -499 2 -540 4 -41 6 -76 5 -78 -4 -5 -858 -2
-864 3 -8 9 -11 249 -10 860 0 314 0 579 0 590 0 11 0 108 1 215 0 107 1 837
2 1622 0 784 4 1430 8 1434 8 7 33 10 197 19 58 3 115 8 128 11 23 6 490 33
528 30 11 0 25 -12 32 -26z m1703 -1070 c0 -19 5 -30 14 -30 23 0 27 -27 20
-142 -7 -109 -7 -110 -25 -87 -10 13 -19 19 -19 12 0 -17 -41 -53 -52 -47 -6
4 -6 10 0 16 6 6 5 19 -4 36 -16 32 -19 188 -4 197 6 4 18 1 26 -6 12 -9 15
-31 13 -93 -1 -45 2 -80 7 -78 12 3 13 192 1 192 -5 0 -4 6 2 14 6 7 9 21 5
30 -3 9 -1 16 5 16 6 0 11 -13 11 -30z m79 17 c13 4 13 2 -2 -10 -17 -14 -16
-15 4 -20 14 -4 20 -11 16 -21 -3 -8 -2 -18 3 -21 12 -8 13 -185 1 -185 -5 0
-11 -10 -15 -22 -5 -19 -8 -21 -16 -8 -8 13 -10 13 -10 -2 0 -9 -4 -19 -9 -22
-9 -6 -5 224 4 252 3 6 1 12 -3 12 -4 0 -7 14 -8 31 -1 20 2 27 9 20 5 -5 17
-7 26 -4z m-59 -373 c0 -8 7 -22 15 -30 11 -11 12 -21 5 -40 -6 -14 -8 -78 -6
-142 3 -63 3 -119 0 -123 -2 -4 -13 -5 -23 -2 -14 3 -21 18 -26 51 -4 26 -10
41 -12 35 -3 -7 -16 -13 -29 -13 -25 0 -25 1 -22 83 3 74 5 82 23 82 18 0 21
-8 25 -70 l5 -70 8 90 c5 50 9 97 9 105 -1 29 9 60 18 60 6 0 10 -7 10 -16z
m-16 -871 c13 -70 38 -474 28 -445 -5 15 -32 16 -32 1 0 -8 -5 -8 -15 1 -8 7
-13 15 -11 19 3 4 7 31 11 61 3 30 8 56 10 58 2 2 -1 17 -5 33 -5 16 -5 31 -1
34 4 2 5 24 1 49 -4 25 -6 72 -5 105 2 53 -1 61 -17 61 -22 0 -24 16 -2 24 9
3 14 12 11 20 -3 8 -3 17 0 20 11 11 21 -4 27 -41z m26 -548 c0 -89 6 -102 49
-96 16 2 22 -1 19 -11 -3 -7 -15 -13 -27 -12 -12 0 -21 -5 -21 -14 0 -12 -3
-12 -15 -2 -13 11 -14 10 -10 -3 4 -8 2 -18 -4 -21 -12 -8 -25 30 -15 45 4 8
0 8 -15 0 -11 -7 -21 -8 -21 -4 0 4 -4 2 -9 -6 -5 -8 -7 -24 -5 -35 11 -52 8
-130 -5 -134 -10 -3 -12 8 -11 44 4 74 2 87 -14 81 -9 -4 -13 4 -14 24 -1 23
4 29 21 29 41 0 47 13 53 105 4 83 15 112 36 99 4 -3 8 -43 8 -89z m-1680
-120 c18 -49 49 -130 70 -179 34 -81 66 -161 145 -371 13 -33 42 -112 65 -175
23 -63 64 -176 91 -249 27 -74 48 -140 45 -147 -3 -7 5 -29 16 -50 23 -44 118
-282 118 -298 0 -5 -21 10 -46 34 -26 25 -42 36 -36 24 6 -11 18 -26 26 -34
22 -18 20 -30 -6 -31 -22 0 -22 -1 -3 -8 11 -5 25 -6 32 -4 16 6 52 -14 79
-46 27 -30 48 -81 33 -81 -5 0 -9 5 -9 10 0 6 -7 10 -15 10 -8 0 -15 4 -15 9
0 16 -65 22 -302 26 -128 3 -252 7 -275 11 l-43 5 1 462 c0 254 -3 624 -6 822
-4 198 -4 358 -1 355 3 -3 19 -46 36 -95z m345 -445 c-3 -5 3 -18 15 -30 11
-11 20 -22 20 -25 0 -16 88 -231 122 -299 10 -21 17 -44 14 -51 -2 -7 -2 -16
2 -20 7 -7 8 -12 11 -40 0 -8 7 -15 15 -15 12 0 28 -39 30 -73 1 -4 6 -11 11
-15 13 -9 16 -42 4 -42 -5 0 -3 -13 6 -30 17 -33 18 -40 7 -40 -8 0 -42 64
-42 79 0 5 -17 47 -39 93 -21 45 -48 110 -59 143 -12 33 -36 96 -55 140 -19
44 -35 83 -36 87 -3 16 -14 45 -32 90 -23 56 -23 58 -3 58 8 0 13 -4 9 -10z
m-1525 -326 c0 -16 0 -58 1 -93 0 -36 2 -68 5 -72 2 -4 0 -10 -5 -13 -6 -4 -4
-17 4 -33 10 -20 11 -31 3 -40 -17 -21 -11 -364 8 -455 3 -17 1 -28 -5 -28
-28 0 -33 63 -35 398 0 188 2 342 7 342 4 0 5 12 2 28 -5 21 -4 23 4 11 6 -9
11 -29 11 -45z m2848 -117 c3 -23 6 -25 22 -17 13 7 21 6 26 -2 4 -7 3 -10 -1
-5 -12 10 -45 -23 -45 -45 0 -11 5 -16 10 -13 6 3 16 3 23 -2 6 -4 17 -8 22
-9 6 0 16 -2 24 -2 10 -2 12 -16 8 -64 -3 -35 -8 -72 -10 -83 -3 -11 -6 -23
-6 -27 -1 -5 -11 -8 -22 -8 -21 0 -21 4 -17 90 3 70 1 90 -9 90 -15 0 -15 0
-19 -107 -1 -53 -7 -87 -15 -96 -13 -13 -15 50 -7 253 1 14 -2 38 -6 54 -5 21
-4 27 6 24 7 -3 14 -17 16 -31z"/>
<path d="M16740 6392 c0 -121 1 -122 72 -122 50 0 59 22 56 129 l-3 96 -62 3
-63 3 0 -109z m103 76 c-2 -5 -3 -46 -3 -93 l0 -85 -40 0 -40 0 0 96 0 95 43
-3 c23 -2 41 -6 40 -10z"/>
<path d="M16763 5703 c-22 -4 -23 -8 -23 -113 0 -102 1 -108 21 -113 26 -7 79
2 96 15 18 14 12 196 -7 208 -15 10 -47 11 -87 3z"/>
<path d="M16939 5699 c-6 -3 -9 -48 -7 -109 l3 -104 35 -8 c21 -4 46 -3 63 4
l27 10 0 104 c0 101 -1 104 -22 106 -55 4 -90 3 -99 -3z m94 -18 c4 -1 6 -43
5 -93 l-3 -93 -36 -3 -37 -3 -5 48 c-14 122 -5 154 41 148 15 -2 31 -4 35 -4z"/>
<path d="M17147 5698 c-13 -10 -19 -35 -24 -110 l-6 -97 27 -10 c15 -6 42 -7
64 -3 l37 8 3 104 c2 76 -1 106 -10 112 -20 12 -72 10 -91 -4z m78 -107 l0
-95 -35 0 -35 -1 -3 84 c-4 105 -1 113 40 109 l33 -3 0 -94z"/>
<path d="M16760 5271 c-25 -7 -25 -8 -22 -107 3 -60 9 -102 15 -106 7 -4 35
-8 62 -8 l50 0 -3 107 c-2 69 -8 110 -15 115 -14 9 -53 9 -87 -1z m78 -113
l-3 -93 -37 -3 c-26 -2 -38 1 -39 10 -1 13 0 171 1 176 0 1 18 2 40 2 l41 0
-3 -92z"/>
<path d="M16937 5273 c-4 -3 -7 -55 -7 -115 l0 -108 66 0 65 0 -2 103 c-1 56
-6 108 -12 115 -10 12 -99 17 -110 5z"/>
<path d="M17152 5270 c-22 -9 -23 -13 -20 -112 l3 -103 34 -3 c19 -2 44 -1 57
2 23 6 24 10 24 106 0 99 0 101 -26 110 -30 12 -42 12 -72 0z"/>
<path d="M16745 4841 c-3 -2 -5 -50 -5 -107 l0 -102 34 -6 c82 -16 96 5 96
140 0 63 -3 73 -19 79 -21 6 -99 4 -106 -4z m103 -108 l3 -93 -41 0 c-45 0
-40 -11 -42 115 0 79 -2 77 40 73 l37 -3 3 -92z"/>
<path d="M16953 4843 c-9 -3 -13 -35 -13 -109 l0 -105 63 2 62 2 1 101 c0 61
-4 104 -10 108 -12 9 -84 9 -103 1z m87 -109 l0 -95 -37 3 -38 3 -3 93 -3 92
41 0 40 0 0 -96z"/>
<path d="M16947 4444 c-4 -4 -7 -56 -7 -116 l0 -108 39 0 c71 0 98 9 94 33 -2
12 -4 60 -6 107 l-2 85 -55 3 c-31 2 -59 0 -63 -4z m93 -108 c0 -86 -2 -95
-20 -101 -11 -3 -29 -3 -40 0 -18 6 -20 15 -20 101 l0 94 40 0 40 0 0 -94z"/>
<path d="M16962 4015 c-21 -15 -22 -23 -21 -111 1 -79 4 -94 18 -95 9 0 28 -3
44 -5 15 -3 35 0 46 5 17 9 18 20 14 103 -3 51 -8 96 -12 100 -15 17 -67 19
-89 3z"/>
<path d="M16968 3642 c-14 -3 -18 -14 -18 -56 0 -29 -3 -74 -6 -99 -6 -40 -4
-46 16 -52 12 -4 42 -4 66 0 l44 6 0 87 c0 48 -5 94 -10 102 -9 14 -55 20 -92
12z"/>
<path d="M16757 3633 c-12 -12 -8 -178 5 -191 13 -13 76 -16 94 -4 18 11 28
183 12 193 -16 10 -102 12 -111 2z"/>
<path d="M17144 3627 c-3 -8 -4 -52 -2 -98 l3 -84 29 -3 c16 -2 40 2 53 9 21
12 23 18 23 101 l0 88 -50 0 c-33 0 -52 -5 -56 -13z"/>
<path d="M4770 7971 c0 -20 -6 -30 -20 -34 -11 -3 -22 -1 -25 4 -5 8 -1045 2
-1053 -6 -2 -1 95 -6 215 -9 120 -4 279 -12 353 -17 128 -10 312 -7 428 7 57
6 71 -8 27 -28 -14 -6 -25 -14 -25 -18 0 -4 -19 -20 -42 -36 -66 -44 -155
-117 -234 -192 -29 -27 -41 -32 -67 -28 -18 3 -119 6 -225 7 -105 0 -195 5
-198 10 -3 5 23 9 58 9 35 1 124 2 198 5 74 2 145 4 158 4 12 1 22 5 22 10 0
5 -35 7 -77 5 -43 -2 -149 -4 -236 -4 -161 -1 -191 -5 -181 -21 3 -5 -4 -9
-14 -9 -11 0 -22 6 -25 14 -5 11 -23 14 -83 10 -74 -4 -117 -14 -60 -14 15 0
25 -4 22 -9 -7 -10 -44 -3 -63 11 -7 5 -14 5 -18 -2 -3 -5 -1 -10 4 -10 6 0
11 -3 11 -7 0 -5 -27 -8 -60 -9 -33 -1 -60 0 -60 2 0 2 69 49 153 105 165 111
237 166 237 181 0 16 -101 -45 -288 -173 -95 -65 -189 -126 -208 -135 -43 -20
-43 -24 0 -17 l34 5 7 -110 c4 -61 6 -215 4 -344 -1 -128 1 -360 6 -515 6
-224 5 -283 -4 -283 -7 0 -26 -9 -42 -21 -26 -18 -43 -21 -132 -20 l-101 1
-36 35 c-20 19 -43 35 -51 35 -20 0 -44 -27 -58 -63 -6 -16 -16 -25 -21 -22
-7 5 -8 11 -1 19 6 8 8 206 5 570 -3 308 -3 570 1 583 3 13 10 21 15 18 15 -9
12 49 -2 63 -9 9 -10 15 -2 20 12 7 11 83 0 215 -4 44 -4 96 -1 118 6 34 10
39 33 39 15 0 33 4 41 9 8 5 -53 7 -150 4 -90 -2 -308 -8 -484 -12 -304 -7
-322 -8 -363 -29 -23 -12 -42 -26 -42 -30 0 -9 -200 -132 -213 -132 -5 0 -5 5
-2 10 3 6 1 10 -5 10 -7 0 -10 -6 -7 -14 5 -13 -26 -39 -90 -74 -27 -15 -46
-16 -38 -2 3 6 -1 17 -9 26 -15 14 -16 13 -16 -10 0 -14 -9 -31 -22 -40 l-22
-16 21 0 c19 0 21 -3 13 -30 -5 -16 -7 -42 -4 -57 2 -15 6 -111 9 -213 3 -102
10 -281 14 -398 5 -117 7 -245 6 -285 -2 -40 -6 -166 -10 -282 -3 -115 -11
-227 -16 -248 -6 -23 -6 -50 -1 -71 5 -18 10 -125 11 -237 0 -112 6 -280 12
-374 10 -164 6 -999 -6 -1125 -8 -82 34 -448 65 -565 34 -130 116 -310 196
-429 18 -28 31 -52 28 -55 -4 -4 -47 37 -97 89 -49 52 -84 84 -77 70 13 -24
278 -301 355 -370 22 -20 63 -51 90 -68 88 -57 86 -53 91 -136 5 -72 4 -77
-18 -86 -15 -6 53 -9 197 -10 122 0 238 -5 260 -11 45 -12 676 -19 740 -9 28
5 10 8 -62 9 -61 0 -103 5 -103 11 0 6 -22 10 -50 10 -27 0 -50 5 -50 10 0 13
91 11 108 -3 6 -5 12 -6 12 -1 0 14 215 18 239 5 12 -7 21 -8 21 -2 0 5 -6 11
-12 14 -21 7 -2 18 41 24 23 3 41 10 41 14 0 5 17 17 38 26 20 9 85 40 145 69
122 60 108 68 110 -63 l1 -68 -178 1 c-160 2 -175 0 -150 -13 20 -10 66 -14
159 -15 124 -1 148 2 187 22 11 6 20 4 28 -5 18 -22 44 -18 70 10 13 14 30 23
37 21 8 -3 13 2 13 14 0 10 5 22 11 26 8 4 7 9 -2 16 -11 7 -11 9 1 7 8 -1 23
-1 34 0 15 1 16 4 6 15 -6 8 -18 12 -26 9 -8 -3 -14 0 -14 7 0 8 8 10 23 6 12
-3 31 -6 42 -6 16 0 17 -2 5 -10 -26 -16 1 -29 65 -30 33 -1 152 -1 264 0 195
1 247 7 144 16 -26 2 -56 6 -67 7 -10 2 -38 0 -62 -3 -53 -8 -69 5 -22 19 32
9 32 9 -17 11 -27 1 -56 2 -62 1 -7 -1 -13 5 -13 14 0 8 -8 15 -17 15 -15 0
-14 2 3 14 20 15 16 20 -31 29 -11 2 46 7 127 11 149 8 322 4 368 -9 l25 -7
-25 18 c-24 18 -117 24 -356 24 -24 0 -44 4 -44 9 0 5 61 9 136 9 75 1 139 3
142 6 3 3 -19 6 -49 6 -30 1 -98 4 -151 7 -58 3 -110 1 -127 -5 -17 -6 -33 -7
-36 -2 -3 4 0 10 7 12 7 3 -26 5 -72 7 -63 1 -89 6 -100 18 -9 10 -10 13 -2 8
7 -4 56 -8 108 -8 52 -1 94 -5 94 -8 0 -9 105 3 108 12 5 12 30 11 34 -1 5
-15 148 -25 148 -11 0 6 -12 11 -27 11 -43 0 -18 12 31 15 25 1 46 -1 46 -6 0
-5 -8 -9 -17 -9 -33 0 -5 -10 43 -16 91 -11 144 -10 141 0 -2 6 -19 10 -38 9
-49 -3 -109 7 -109 19 0 6 8 7 18 3 13 -4 14 -3 6 5 -13 13 -60 18 -234 25
-193 8 -405 8 -439 0 -22 -5 -31 -3 -31 6 0 7 58 72 129 143 196 199 271 279
266 286 -2 3 0 12 6 20 7 13 9 13 9 0 0 -13 1 -13 10 0 13 20 12 33 -2 24 -7
-4 -8 -3 -4 5 4 6 11 9 16 6 11 -7 33 22 26 34 -6 9 22 71 37 82 10 8 87 216
92 249 2 14 11 48 19 75 21 65 63 247 71 305 4 25 8 56 11 70 10 54 6 122 -7
131 -10 6 -11 9 -1 9 6 0 12 10 12 23 0 13 -6 29 -12 36 -10 11 -10 13 0 7 11
-7 17 5 8 15 -3 2 -8 97 -11 209 -4 113 -8 241 -10 285 -2 44 -4 107 -6 141
-1 33 0 65 3 70 3 5 3 25 1 44 -2 19 -4 42 -3 50 0 33 -1 624 -4 1143 -2 301
0 547 5 547 4 0 10 -6 12 -12 3 -8 6 -6 6 5 1 9 -6 17 -13 17 -12 0 -14 10
-10 43 7 52 8 217 5 452 -2 99 -3 189 -2 200 1 23 52 55 87 55 13 0 24 4 24 8
0 12 -62 7 -87 -6 -30 -16 -32 -15 -31 11 3 48 -2 87 -12 87 -5 0 -10 -13 -10
-29z m-1782 -63 c-3 -7 -42 -39 -88 -71 -47 -32 -100 -72 -120 -90 -93 -85
-97 -87 -231 -91 -73 -3 -126 -10 -133 -17 -8 -8 -3 -10 19 -6 72 13 185 18
185 8 0 -5 -3 -12 -8 -15 -4 -2 -101 -8 -216 -12 -172 -6 -210 -4 -217 7 -6
10 -9 10 -9 2 0 -7 -7 -13 -16 -13 -8 0 -13 4 -10 9 7 11 -198 25 -293 19 -39
-2 -71 -1 -71 2 0 8 141 101 215 141 33 18 75 48 93 66 24 24 42 33 65 33 95
-1 619 11 657 15 25 3 62 7 83 9 22 3 41 7 45 10 11 12 54 6 50 -6z m-13 -205
c-3 -82 -8 -213 -12 -293 -4 -80 -6 -179 -4 -220 8 -320 11 -853 4 -889 l-8
-45 -67 -11 c-69 -11 -88 -10 -88 7 0 17 -28 38 -43 32 -13 -5 -16 8 -19 73
-2 43 0 99 3 126 3 26 2 47 -3 47 -4 0 -9 -6 -9 -12 -1 -7 -3 -20 -4 -28 -1
-8 -3 -63 -4 -122 0 -67 -5 -108 -11 -108 -7 0 -10 61 -8 178 1 97 -1 183 -5
190 -5 6 -5 12 0 12 4 0 9 134 11 298 2 308 5 411 17 572 7 93 8 96 43 128 20
17 39 32 43 32 4 0 7 -37 7 -82 0 -118 1 -128 10 -128 10 0 9 192 -2 208 -5 9
0 19 15 30 33 23 109 105 109 118 0 9 20 34 27 34 2 0 1 -66 -2 -147z m1779
-100 c-4 -227 -4 -1391 0 -1538 1 -38 -1 -99 -5 -135 -3 -36 -3 -67 1 -70 8
-6 9 -8 9 -190 1 -244 -2 -304 -19 -317 -12 -10 -12 -12 -1 -13 8 0 11 -7 8
-20 -3 -11 -2 -18 2 -16 3 3 6 -94 6 -215 0 -120 3 -219 8 -219 4 0 7 -11 7
-25 0 -14 -4 -25 -10 -25 -5 0 -10 -24 -9 -52 0 -35 3 -46 8 -34 7 18 8 18 14
2 10 -25 9 -66 -2 -66 -5 0 -7 9 -4 20 3 12 0 20 -6 20 -8 0 -11 -17 -10 -47
1 -59 -10 -170 -21 -197 -8 -20 -9 -19 -11 4 -1 14 -2 34 -3 44 -1 11 -7 21
-14 23 -8 3 -10 -1 -6 -12 4 -9 0 -21 -8 -28 -19 -15 -31 -47 -18 -47 6 0 10
9 10 21 0 11 5 17 10 14 6 -3 10 -14 10 -25 0 -10 7 -20 15 -24 8 -3 14 -16
14 -28 l-2 -23 -4 23 c-2 12 -9 22 -14 22 -10 0 -11 -14 -10 -112 1 -48 -3
-68 -12 -68 -9 0 -8 -3 2 -9 9 -6 11 -20 6 -48 -11 -67 -8 -125 6 -134 11 -7
11 -9 1 -9 -7 0 -12 -6 -10 -12 5 -28 -13 -70 -27 -64 -8 3 -15 4 -15 2 0 -3
-3 -13 -6 -23 -5 -15 -4 -15 5 -3 36 51 13 -65 -31 -152 -31 -63 -43 -76 -25
-28 10 25 9 33 -3 40 -10 7 -11 13 -5 18 32 22 50 70 50 127 0 48 3 59 15 57
11 -2 10 1 -3 12 -12 9 -14 16 -7 21 5 3 8 11 5 16 -4 5 1 12 9 15 9 3 16 13
16 21 0 9 -6 13 -15 9 -8 -3 -15 -1 -15 5 0 6 -5 7 -10 4 -6 -4 -10 -12 -9
-18 5 -25 -14 -113 -27 -135 -8 -12 -12 -27 -9 -32 3 -6 2 -10 -4 -10 -19 0
-34 -40 -20 -56 9 -11 8 -14 -4 -14 -19 0 -29 26 -18 48 41 82 49 107 40 124
-9 17 -5 22 13 19 5 0 7 2 6 7 -4 16 14 71 28 83 16 13 20 34 4 24 -6 -3 -7 1
-4 9 3 9 10 16 15 16 5 0 9 6 9 14 0 8 6 16 13 19 6 2 8 8 4 13 -4 5 -12 2
-17 -6 -5 -8 -12 -12 -15 -9 -9 9 6 40 16 33 5 -3 9 2 9 11 0 11 -5 15 -15 11
-9 -3 -15 0 -15 9 0 8 6 12 14 9 8 -3 16 3 19 15 5 21 -8 40 -15 20 -2 -6 -8
15 -14 46 -5 31 -6 58 -2 61 4 3 8 -7 8 -21 0 -15 4 -24 10 -20 6 4 4 19 -5
42 -8 19 -15 58 -15 86 0 28 -3 48 -6 45 -4 -5 -16 -291 -15 -375 1 -27 -19
-32 -20 -5 0 14 -2 14 -8 -3 -5 -12 -4 -23 3 -27 8 -6 7 -8 -1 -8 -7 0 -13 -6
-13 -14 0 -8 -7 -16 -15 -20 -16 -6 -21 15 -7 28 4 4 7 11 8 14 6 71 18 131
25 127 4 -3 6 -12 3 -19 -3 -8 -1 -16 3 -19 11 -7 11 138 1 149 -4 3 -6 -6 -4
-22 4 -33 -10 -78 -22 -70 -4 2 -9 24 -11 47 -1 23 -4 46 -7 50 -2 4 4 10 13
13 26 8 46 55 32 73 -8 9 -8 13 0 13 6 0 11 4 11 10 0 5 -6 7 -14 4 -23 -9
-49 51 -42 95 26 156 29 166 60 196 37 36 41 60 15 96 -10 15 -19 33 -19 39 0
10 -3 10 -15 0 -12 -10 -16 -10 -19 1 -13 41 -13 59 0 70 8 6 14 17 14 23 0 6
-4 5 -9 -3 -6 -9 -10 0 -13 28 -4 44 6 56 15 19 4 -12 9 -20 12 -16 3 3 0 18
-6 34 -7 16 -11 33 -10 37 1 5 -3 6 -9 2 -5 -3 -13 1 -16 10 -11 27 4 28 30 2
29 -29 30 -29 16 8 -5 14 -14 24 -19 20 -5 -3 -12 -1 -16 5 -3 6 2 14 12 18
18 7 28 42 12 42 -4 0 -11 16 -15 35 -3 19 -12 39 -20 46 -8 6 -11 16 -7 22 4
6 9 3 14 -9 7 -18 8 -18 8 2 1 12 -6 24 -14 28 -8 3 -15 12 -15 21 0 8 -4 15
-9 15 -5 0 -12 16 -15 35 -4 19 -11 35 -16 35 -16 0 -12 -22 14 -72 l23 -46
-22 10 c-29 13 -35 51 -30 193 3 70 1 103 -5 90 -10 -23 -10 -18 -15 150 -1
55 -6 183 -9 285 -14 342 -18 621 -16 1147 1 304 2 322 19 328 18 5 31 15 91
69 14 12 33 25 43 29 9 3 17 11 17 16 0 14 -21 25 -29 14 -10 -15 -131 -106
-135 -102 -6 6 141 124 150 121 5 -2 11 5 15 15 6 14 8 11 9 -12 1 -30 1 -30
17 10 19 44 61 87 81 80 7 -3 10 0 7 5 -5 8 28 46 41 50 1 0 0 -107 -2 -237z
m-2699 6 c87 -1 72 -11 -37 -24 -72 -8 -77 -25 -5 -19 28 3 175 6 324 7 l273
2 0 -448 c0 -246 2 -453 6 -459 4 -5 0 -14 -7 -19 -12 -7 -12 -9 0 -9 8 0 11
-6 6 -17 -8 -21 -8 -310 0 -323 3 -5 2 -41 -1 -80 l-7 -71 -44 -21 c-38 -18
-50 -19 -80 -10 -27 8 -43 8 -67 -2 -43 -18 -58 -39 -64 -91 -4 -41 -11 -51
-74 -107 -60 -53 -75 -62 -104 -60 -27 2 -42 -4 -64 -27 -32 -31 -37 -59 -18
-91 11 -16 3 -32 -58 -122 -50 -74 -80 -108 -105 -120 -50 -24 -63 -42 -54
-80 13 -60 8 -102 -22 -198 -25 -83 -32 -95 -53 -98 -14 -2 -31 -9 -37 -14
-22 -18 -14 -30 17 -26 30 5 30 4 24 -31 -9 -50 -17 -55 -42 -28 -20 21 -22
38 -32 322 -7 165 -15 363 -18 440 -4 77 -3 293 1 480 7 323 4 769 -9 1157
l-7 178 24 10 c14 5 73 8 139 5 63 -2 151 -5 195 -6z m1813 -15 c84 -7 114
-24 41 -24 -22 0 -38 -4 -34 -9 6 -10 78 -3 82 8 4 8 384 -5 406 -14 10 -4 17
-18 17 -34 -1 -58 11 -1178 15 -1496 3 -187 8 -351 11 -365 l6 -25 -24 21
c-13 11 -37 26 -54 33 -40 16 -147 156 -139 182 3 10 -6 40 -20 68 -27 54 -53
69 -101 57 -20 -5 -40 2 -90 35 -35 23 -64 45 -64 50 0 4 -10 11 -22 15 -13 4
-37 17 -54 30 -17 13 -45 29 -62 35 -35 12 -41 24 -16 33 20 8 54 -2 54 -15 0
-5 6 -9 13 -9 6 0 24 -14 39 -32 39 -47 35 -18 -5 34 -37 48 -62 56 -119 37
-41 -13 -78 -6 -169 33 -75 32 -78 42 -84 348 -12 642 -24 922 -40 977 -7 22
-6 22 111 25 66 2 142 4 169 6 28 2 87 0 133 -4z m-902 -1410 c-4 -13 -2 -24
3 -24 4 0 11 14 15 30 4 24 11 30 31 30 32 0 32 -8 -2 -45 -40 -42 -53 -71
-40 -84 6 -6 7 -14 3 -18 -10 -10 -26 17 -26 44 0 12 -4 25 -10 28 -5 3 -10
-3 -10 -14 0 -10 -3 -27 -6 -35 -5 -12 -2 -15 11 -10 13 5 16 3 13 -7 -6 -19
-111 -50 -120 -35 -5 7 -8 6 -8 -4 0 -17 -97 -53 -106 -39 -2 4 0 10 6 14 14
8 13 26 -1 23 -21 -5 -21 20 0 39 63 58 80 61 122 23 30 -26 59 -39 59 -26 0
3 -20 24 -45 49 -45 43 -45 44 -23 54 13 6 38 16 56 22 30 9 34 8 42 -12 8
-21 9 -21 9 -1 1 25 10 36 23 28 5 -4 7 -17 4 -30z m197 6 c52 -24 77 -44 77
-59 0 -23 46 -10 81 25 28 28 47 37 81 40 l45 4 6 -62 c3 -35 3 -66 -1 -70 -4
-4 -29 -2 -57 3 -27 5 -110 10 -182 11 -121 1 -133 3 -133 20 0 25 -18 23 -22
-4 -2 -15 -11 -23 -30 -25 -23 -3 -28 0 -28 19 0 26 40 88 57 88 6 0 9 -8 6
-20 -3 -11 0 -20 6 -20 6 0 11 6 11 13 0 13 28 57 36 57 3 0 24 -9 47 -20z
m395 -10 c32 0 97 -22 171 -58 59 -29 71 -36 71 -44 0 -5 8 -8 19 -8 10 0 24
-7 31 -15 7 -8 17 -15 21 -15 14 0 139 -81 139 -90 0 -12 -56 -20 -147 -20
-66 0 -94 5 -131 22 -26 12 -50 21 -54 20 -4 -1 -46 16 -93 38 -79 36 -101 60
-56 60 9 0 26 7 37 15 29 22 64 19 64 -5 0 -25 29 -84 37 -76 3 3 -2 17 -11
31 -10 15 -15 32 -13 40 3 7 0 18 -6 24 -9 9 -6 13 11 17 12 4 22 10 22 15 0
4 -19 2 -41 -6 -23 -8 -48 -15 -57 -15 -8 0 -23 -7 -33 -16 -25 -22 -36 -12
-43 41 -8 50 -1 74 17 56 6 -6 26 -11 45 -11z m-896 -80 c-4 -31 -17 -40 -25
-17 -2 6 -7 -10 -11 -38 -10 -67 -24 -84 -65 -80 -18 1 -37 8 -41 15 -7 11
-14 11 -38 1 -31 -13 -52 -9 -52 10 0 6 9 7 20 4 14 -4 20 -2 20 8 0 8 15 26
33 40 31 24 145 86 158 87 3 0 4 -13 1 -30z m733 -74 l50 -11 7 -90 c3 -50 5
-208 2 -352 -3 -206 -7 -270 -19 -299 -19 -45 -19 -50 0 -34 10 8 15 9 15 2 0
-6 -9 -16 -19 -21 -19 -10 -171 -243 -171 -262 0 -19 16 -8 34 24 44 76 142
226 148 227 8 0 16 -120 8 -143 -5 -14 -60 -66 -148 -138 -10 -8 -18 -7 -30 4
-33 29 -133 40 -155 18 -6 -6 -15 -11 -19 -11 -17 0 -82 113 -88 155 -8 56 4
81 20 40 18 -49 74 -155 81 -155 8 0 -29 95 -69 180 l-27 55 -3 407 -3 407 38
4 c83 8 301 4 348 -7z m-419 -274 c-4 -153 -9 -292 -12 -308 -6 -46 -6 -273 1
-294 9 -27 -7 -25 -24 3 -22 35 -211 287 -216 287 -2 0 7 -24 20 -52 14 -29
25 -58 25 -65 0 -6 5 -15 12 -19 8 -5 9 -2 4 12 -9 24 -8 23 60 -71 95 -130
111 -158 117 -202 3 -24 2 -43 -2 -43 -20 0 -251 202 -256 223 -9 42 -10 185
-1 180 9 -6 4 27 -9 62 l-8 20 17 -20 c16 -18 17 -18 12 -2 -3 10 -6 32 -6 48
0 17 -5 28 -12 27 -19 -4 -28 82 -25 239 1 79 4 138 5 133 2 -6 8 -10 14 -10
6 0 8 6 5 14 -6 16 65 53 143 75 25 7 63 18 85 26 22 7 44 14 49 14 5 1 6
-115 2 -277z m648 194 c128 -60 170 -87 306 -197 114 -92 122 -101 194 -210
81 -125 156 -301 156 -369 0 -14 5 -31 11 -37 32 -32 51 -345 29 -493 -21
-142 -105 -359 -184 -475 -23 -33 -43 -65 -46 -72 -11 -26 -98 -121 -167 -183
-100 -89 -305 -224 -317 -209 -1 2 -27 78 -57 169 l-53 165 -2 200 -1 199 21
-29 c49 -68 218 -264 267 -310 57 -54 43 -31 -33 50 -64 69 -203 240 -227 278
-23 39 -39 127 -22 127 6 0 62 -42 125 -92 160 -132 377 -302 395 -311 31 -16
-67 68 -280 239 -119 95 -222 180 -229 189 -13 16 -21 103 -10 110 4 3 40 -6
81 -19 294 -94 441 -137 446 -132 3 2 -96 37 -219 76 -336 108 -310 96 -306
137 l3 35 140 -1 c77 0 214 -4 305 -7 91 -4 206 -3 255 2 86 8 81 9 -120 15
-115 3 -295 7 -398 8 l-188 1 3 51 3 52 115 34 c408 121 662 204 643 210 -5 2
-104 -25 -219 -61 -115 -35 -253 -76 -306 -91 -53 -14 -128 -37 -167 -50 -38
-13 -72 -21 -75 -17 -10 9 -7 102 4 122 8 14 165 134 303 230 45 31 232 172
242 182 38 39 -133 -78 -486 -331 -31 -23 -59 -41 -63 -41 -3 0 -6 44 -6 98
l0 97 67 90 c36 50 80 106 97 126 65 76 98 120 94 125 -3 2 -29 -24 -59 -58
-30 -35 -62 -72 -72 -83 -11 -11 -39 -48 -64 -82 -25 -35 -47 -63 -49 -63 -2
0 -4 149 -4 330 0 182 2 330 5 330 3 0 56 -24 119 -54z m-1237 -87 c-1 -77 -2
-81 -26 -91 -16 -6 -21 -12 -13 -15 9 -3 0 -19 -25 -48 -73 -82 -106 -127
-141 -193 -19 -37 -46 -84 -59 -104 -12 -21 -23 -44 -23 -52 0 -26 -51 -151
-67 -163 -8 -6 -12 -17 -8 -23 8 -13 -10 -37 -50 -63 -16 -10 -22 -17 -12 -13
11 3 17 0 17 -9 0 -8 -4 -15 -10 -15 -5 0 -24 -22 -42 -50 -32 -48 -48 -62
-48 -39 0 6 -7 9 -15 5 -17 -6 -21 9 -5 19 6 3 10 15 10 26 0 12 7 19 19 19
30 0 35 19 12 44 -25 27 -24 50 8 154 22 69 41 94 41 52 0 -11 5 -20 10 -20 6
0 10 4 10 8 0 5 19 17 42 28 23 10 50 27 59 38 17 18 17 20 0 55 -11 20 -28
45 -40 55 -12 11 -21 23 -21 29 0 13 109 177 118 177 5 0 14 -6 21 -12 11 -11
12 -8 7 13 -7 30 20 51 31 24 4 -12 14 -14 42 -9 39 7 65 30 56 52 -3 10 1 12
18 7 21 -6 21 -6 -3 11 -34 25 -60 57 -57 70 3 16 116 114 131 114 11 0 14
-18 13 -81z m1733 -8 c72 -72 160 -189 160 -213 0 -5 16 -37 35 -70 20 -34 32
-65 28 -71 -5 -7 -15 -43 -25 -82 -9 -38 -19 -80 -23 -92 -5 -15 -3 -23 4 -23
6 0 14 12 17 28 4 15 10 32 15 37 6 9 14 58 18 119 1 5 7 3 15 -3 17 -14 33
-76 42 -158 6 -64 4 -69 -33 -64 -7 1 -13 -3 -13 -9 0 -5 8 -10 19 -10 33 0
46 -33 35 -87 -3 -16 -10 -20 -26 -17 l-23 5 23 -10 c12 -6 23 -14 23 -18 7
-47 7 -73 -1 -107 -5 -22 -5 -45 -1 -51 5 -5 8 -83 7 -171 -1 -165 -8 -194
-43 -194 -9 0 -13 -6 -10 -14 3 -7 1 -18 -5 -24 -6 -6 -7 -15 -3 -22 4 -7 13
1 24 21 23 42 41 48 41 15 0 -17 -6 -26 -15 -26 -13 0 -14 -4 -5 -21 6 -11 17
-18 23 -16 15 5 20 74 6 83 -6 4 -3 14 8 26 17 19 18 42 16 302 -1 154 -5 289
-8 299 -4 9 -3 17 2 17 11 0 46 -112 49 -160 7 -98 4 -183 -7 -196 -9 -11 -8
-14 3 -14 11 0 14 -12 13 -50 -1 -27 -5 -53 -8 -57 -4 -3 -7 -11 -7 -17 0 -6
5 -4 10 4 29 45 -45 -261 -81 -332 -5 -10 -6 -24 -3 -32 7 -18 -23 -126 -35
-126 -5 0 -12 17 -16 38 -4 20 -11 42 -16 48 -5 7 -8 37 -5 68 4 45 1 58 -12
65 -14 8 -15 13 -4 31 7 11 10 25 7 30 -3 5 1 30 10 55 8 25 15 74 15 109 0
34 3 66 7 70 8 8 12 87 5 100 -3 5 -6 35 -6 65 -1 31 -4 61 -8 66 -3 6 -9 40
-13 78 -5 52 -4 67 7 68 7 0 3 4 -9 9 -20 8 -43 60 -43 98 0 7 -11 32 -24 55
-29 52 -40 105 -25 123 8 10 9 14 0 14 -6 0 -11 -5 -11 -11 0 -8 -5 -8 -15 1
-8 7 -15 18 -15 24 0 6 -32 58 -70 115 -39 58 -70 108 -70 112 0 8 20 6 114
-12 48 -9 80 -5 35 5 -109 23 -146 30 -158 29 -13 -1 -243 175 -256 196 -7 12
187 20 200 9 5 -5 11 -43 13 -86 2 -42 9 -81 14 -87 10 -10 4 123 -9 173 -9
39 15 25 97 -57z m-1491 -121 c1 -63 5 -125 8 -138 10 -40 -21 -15 -86 69 -34
43 -64 79 -68 79 -7 0 14 -32 77 -116 29 -38 56 -80 62 -94 5 -14 12 -74 14
-135 3 -60 7 -116 9 -122 7 -22 -11 -15 -58 21 -105 80 -267 185 -267 172 0
-2 41 -32 91 -67 50 -35 112 -78 137 -96 25 -18 61 -48 80 -68 28 -29 31 -36
18 -41 -10 -4 -16 -17 -15 -38 1 -17 3 -23 6 -13 2 9 9 17 14 17 10 0 1 -49
-13 -66 -5 -8 -2 -18 9 -29 16 -17 16 -17 -7 -10 -14 4 -112 38 -217 75 -183
65 -265 90 -252 76 3 -3 37 -16 75 -29 311 -107 422 -155 408 -179 -3 -4 -10
-6 -15 -3 -5 4 -9 -1 -9 -9 0 -9 7 -16 16 -16 8 0 12 -5 9 -10 -4 -6 -11 -8
-16 -5 -5 4 -10 -14 -10 -39 -3 -70 -3 -71 -19 -78 -8 -4 -91 -7 -185 -8 -93
0 -215 -5 -270 -9 -71 -6 -102 -5 -108 3 -18 25 17 308 42 340 4 6 20 48 35
94 30 92 95 232 108 232 4 0 8 5 8 10 0 24 143 207 199 254 14 12 41 35 60 52
20 17 54 43 76 58 l40 26 6 -22 c3 -13 6 -75 8 -138z m236 -689 c22 -16 52
-40 67 -53 30 -26 42 -65 18 -60 -27 6 -220 84 -234 96 -13 9 -22 98 -17 161
1 5 29 -19 64 -53 34 -34 80 -75 102 -91z m-113 -59 c19 -10 74 -34 122 -52
74 -29 86 -37 86 -57 0 -22 -3 -23 -80 -23 l-80 0 -1 28 -2 27 -4 -27 c-2 -16
-10 -29 -16 -29 -7 -1 -27 -3 -44 -5 l-33 -4 -1 63 c0 34 -2 70 -4 80 -4 22
12 22 57 -1z m-977 -8 c24 -16 25 -20 25 -135 l0 -119 -32 -30 c-25 -22 -29
-29 -16 -30 9 0 20 5 23 10 13 21 25 8 25 -28 0 -51 -8 -57 -38 -30 l-24 23 4
-25 c2 -15 18 -34 43 -51 38 -26 41 -32 64 -126 l24 -100 -21 -21 c-27 -27
-29 -87 -5 -114 10 -11 30 -18 52 -18 36 0 37 0 95 -115 l59 -114 -22 -18
c-16 -13 -22 -30 -24 -63 -2 -39 1 -46 25 -57 20 -10 38 -11 70 -4 50 12 53
10 141 -71 l59 -53 -16 -30 c-23 -43 -20 -60 15 -89 40 -34 83 -34 114 0 l24
26 68 -31 c109 -51 113 -55 100 -91 -17 -44 7 -84 52 -88 20 -2 31 -8 28 -15
-6 -17 -107 -366 -107 -372 0 -2 -30 -5 -67 -7 -59 -3 -68 -6 -68 -22 0 -10
-7 -23 -16 -29 -18 -12 -55 11 -133 83 -28 25 -44 37 -37 27 8 -9 11 -20 9
-23 -3 -3 -55 44 -115 103 -220 218 -335 442 -389 757 -14 78 -27 155 -30 171
-10 59 14 10 36 -73 12 -46 24 -81 26 -79 3 2 -12 67 -32 143 -36 137 -36 142
-38 344 -2 280 7 600 17 600 4 0 19 -7 32 -16z m105 -29 c0 -8 6 -15 14 -15 7
0 33 -26 58 -57 49 -63 54 -96 17 -123 -11 -9 -17 -19 -13 -23 12 -12 24 -8
24 8 0 27 20 16 21 -12 2 -48 9 -97 15 -113 4 -8 10 -33 15 -55 4 -22 11 -52
15 -67 l6 -28 -58 26 c-91 41 -89 36 -42 126 33 63 38 82 28 88 -18 11 -31 3
-23 -15 3 -9 -2 -26 -11 -40 -9 -13 -16 -31 -16 -38 0 -8 -7 -20 -15 -27 -8
-7 -18 -30 -21 -51 -4 -21 -11 -36 -16 -33 -5 3 -7 12 -4 20 3 7 1 16 -4 19
-17 10 -11 40 10 55 21 15 26 36 11 42 -5 2 -12 14 -16 28 -5 22 -2 28 22 37
l28 11 -32 1 c-17 1 -35 6 -39 12 -3 6 -6 48 -6 92 0 140 1 147 17 147 8 0 15
-7 15 -15z m1345 -48 c34 -19 40 -28 43 -61 4 -44 -36 -115 -66 -117 -27 -2
-47 2 -50 10 -1 5 -13 6 -26 4 -18 -4 -26 2 -40 32 -27 57 -5 124 49 146 32
13 47 10 90 -14z m233 -54 l-3 -38 -58 3 c-40 2 -57 0 -52 -7 3 -6 26 -11 49
-11 53 0 65 -12 57 -63 0 -4 -19 2 -41 13 -21 11 -45 20 -52 19 -7 0 12 -12
42 -27 48 -24 55 -31 58 -59 4 -37 -3 -41 -31 -15 -14 12 -12 6 7 -22 26 -39
32 -56 19 -56 -18 1 -144 150 -137 162 4 7 8 35 8 63 l1 50 50 11 c84 20 87
19 83 -23z m-500 -35 c-2 -16 -19 -27 -78 -48 -41 -14 -91 -33 -111 -42 -77
-34 -74 -35 -73 35 l2 62 46 3 c26 2 46 -1 45 -5 -4 -25 2 -63 10 -58 5 3 7
21 4 40 l-6 35 82 0 c79 0 82 -1 79 -22z m-333 -71 l0 -79 -180 -64 c-260 -93
-283 -102 -302 -113 -45 -26 27 -4 242 73 127 46 233 81 238 79 4 -2 7 -41 7
-86 -1 -81 -1 -82 -33 -105 -127 -88 -307 -225 -307 -233 0 -6 5 -5 13 1 19
16 175 131 251 184 49 35 70 45 76 36 4 -6 6 -58 4 -114 -7 -189 -9 -196 -69
-287 -30 -46 -55 -88 -55 -94 0 -15 45 43 80 103 17 28 35 52 40 52 6 0 10
-18 10 -39 0 -109 45 -252 98 -314 29 -33 6 -26 -68 23 -181 118 -299 223
-375 337 -21 32 -49 67 -60 78 -28 26 -74 97 -79 121 -3 10 -12 37 -22 59 -9
22 -18 49 -20 60 -6 37 -10 50 -21 70 -28 52 -61 278 -45 303 7 10 74 15 268
21 142 5 270 8 284 7 24 -1 25 -3 25 -79z m330 -9 c-7 -37 -13 -48 -26 -48 -5
0 -22 -11 -37 -24 -15 -14 -67 -52 -115 -86 l-88 -61 3 77 3 77 85 35 c47 19
99 40 115 47 52 24 66 20 60 -17z m342 -35 c8 -10 12 -12 8 -5 -21 41 52 -24
117 -105 25 -31 49 -135 35 -149 -3 -3 -15 14 -28 38 -30 60 -110 178 -120
178 -5 0 21 -46 57 -101 88 -135 92 -147 93 -261 0 -53 3 -109 7 -124 4 -17 3
-25 -3 -21 -6 4 -13 17 -16 29 -2 13 -32 104 -66 203 -73 215 -79 231 -85 269
-3 16 -10 34 -16 40 -11 11 -13 26 -4 26 4 0 13 -8 21 -17z m-57 -38 c0 -13 6
-42 14 -62 8 -21 25 -74 39 -118 14 -44 41 -125 62 -180 20 -55 41 -116 47
-135 40 -138 328 -971 377 -1089 17 -41 31 -76 31 -78 0 -2 -14 -3 -32 -1
l-32 3 -155 466 c-156 467 -274 827 -331 1014 -17 55 -40 119 -51 142 -22 46
-19 63 12 63 14 0 19 -7 19 -25z m-285 -56 c-2 -37 -9 -67 -19 -78 -9 -10 -16
-21 -16 -25 0 -4 -11 -24 -25 -44 -14 -20 -25 -45 -25 -55 0 -10 -8 -29 -17
-43 -19 -30 -34 -112 -21 -120 4 -3 8 6 8 20 0 14 12 51 26 83 14 32 29 68 33
80 10 35 25 27 28 -13 2 -37 -17 -95 -41 -124 -7 -8 -25 -44 -41 -80 -15 -36
-36 -72 -45 -80 -9 -8 -14 -23 -12 -33 4 -19 -14 -47 -30 -47 -5 0 -4 9 2 21
7 11 9 27 6 35 -3 7 4 20 15 28 17 12 21 28 25 107 4 71 2 91 -6 82 -7 -6 -15
-50 -17 -97 -3 -47 -9 -86 -13 -86 -9 0 -6 140 4 165 6 16 3 15 -14 -5 l-21
-25 16 33 c9 19 19 31 22 28 4 -3 14 11 24 32 10 20 38 64 63 97 25 33 45 67
45 76 1 8 8 24 16 35 8 10 15 28 15 39 0 20 -23 -13 -52 -75 -7 -14 -26 -43
-43 -65 -17 -22 -46 -64 -65 -92 -33 -52 -50 -65 -50 -40 -1 6 -3 48 -5 92
l-4 80 82 57 c45 32 95 69 111 83 16 13 32 22 37 20 4 -3 6 -33 4 -66z m181
45 c-4 -15 -9 -40 -12 -58 -3 -17 -14 -58 -24 -91 -10 -33 -24 -86 -30 -118
-6 -32 -31 -115 -55 -185 -23 -70 -46 -146 -50 -169 -4 -24 -11 -45 -16 -49
-5 -3 -7 -9 -4 -14 3 -5 0 -21 -6 -37 -7 -15 -13 -32 -13 -38 -3 -26 -30 -115
-35 -115 -3 0 -7 -14 -8 -30 -1 -17 -9 -38 -18 -46 -8 -9 -15 -30 -15 -47 0
-18 -9 -63 -20 -102 -17 -60 -87 -330 -120 -463 -5 -23 -10 -53 -10 -66 0 -22
-5 -24 -50 -28 -48 -3 -61 6 -41 28 8 9 28 69 66 199 9 33 23 74 30 90 6 17
38 111 70 210 32 99 68 212 80 250 13 39 38 124 55 190 18 66 43 152 57 190
13 39 39 131 58 205 55 215 89 320 104 320 9 0 11 -8 7 -26z m62 -94 c47 -159
89 -291 141 -442 34 -98 61 -186 61 -196 0 -39 -150 -57 -215 -26 -57 27 -111
81 -134 133 l-21 51 18 72 c24 92 66 240 98 341 13 43 24 88 24 100 0 29 16
11 28 -33z m-1201 -81 c30 -17 57 -39 61 -48 3 -9 9 -18 12 -21 11 -8 21 -60
12 -60 -5 0 -22 6 -38 14 -16 8 -46 17 -66 20 -31 6 -37 4 -32 -9 4 -9 18 -15
36 -15 50 0 71 -17 65 -53 -5 -29 -5 -30 5 -9 6 12 19 22 30 22 10 0 22 -10
27 -22 5 -13 21 -40 35 -62 40 -58 35 -58 -94 -3 -14 6 -30 10 -36 9 -13 -3
-34 28 -54 78 -8 19 -21 40 -29 46 -8 6 -11 16 -7 22 4 7 2 12 -3 12 -6 0 -11
9 -11 21 0 11 -4 29 -10 39 -13 25 -2 50 22 50 11 0 45 -14 75 -31z m2327 -81
c3 -13 7 -44 10 -70 l5 -47 -64 -32 c-36 -17 -65 -35 -65 -40 0 -13 18 -20 24
-10 13 20 100 61 118 56 20 -7 24 -20 8 -30 -6 -4 -8 -10 -5 -14 11 -18 -55
-89 -102 -111 -26 -12 -58 -26 -70 -32 -11 -6 -26 -8 -31 -4 -6 3 -13 -3 -17
-14 -4 -11 -10 -18 -15 -15 -13 8 -24 -15 -13 -26 6 -6 22 1 43 21 17 16 40
30 49 30 9 0 33 9 54 20 20 11 39 20 42 20 14 0 0 -27 -50 -91 -108 -140 -101
-134 -161 -132 -30 1 -62 6 -71 12 -11 6 -24 6 -35 0 -35 -19 -18 12 44 82 34
38 67 69 73 69 7 0 22 23 35 51 13 28 35 62 48 76 13 14 21 27 19 30 -3 2 13
40 34 84 21 44 39 85 39 91 0 14 30 48 41 48 5 0 11 -10 13 -22z m212 -35 c-3
-21 -2 -44 3 -52 10 -15 -4 -78 -22 -99 -6 -8 -11 -21 -12 -30 -1 -10 -5 -33
-8 -53 -4 -20 -3 -47 2 -60 l10 -24 0 28 c1 17 6 27 16 27 8 0 15 -4 15 -9 0
-15 -45 -75 -54 -72 -5 2 -13 -3 -17 -11 -5 -7 -8 29 -8 87 1 55 -1 110 -4
122 -7 29 21 150 40 168 28 28 44 19 39 -22z m-1575 -11 c-6 -2 -11 -23 -11
-47 0 -52 -55 -296 -76 -336 -8 -15 -14 -37 -14 -49 0 -11 -4 -20 -8 -20 -4 0
-14 -26 -21 -57 -7 -32 -18 -68 -25 -81 l-12 -23 -12 25 c-9 20 -9 26 1 26 9
0 9 2 1 8 -17 10 -47 83 -45 110 2 48 81 196 81 153 0 -5 3 -18 6 -28 4 -13 3
-15 -4 -4 -7 9 -11 -3 -16 -43 -4 -31 -11 -58 -16 -61 -12 -7 -6 -83 8 -97 13
-13 16 4 13 67 -2 23 0 27 8 15 8 -12 11 -8 11 18 0 18 6 45 14 60 7 15 17 43
21 62 6 29 5 33 -6 23 -25 -21 -21 50 7 113 50 117 99 206 103 187 2 -9 -2
-19 -8 -21z m-846 -166 c27 -13 53 -22 57 -20 5 3 8 -2 8 -11 0 -9 -4 -13 -10
-10 -5 3 -10 1 -10 -5 0 -7 8 -9 19 -5 14 4 25 -3 42 -27 58 -85 180 -220 240
-266 73 -57 236 -146 287 -157 38 -8 39 -15 11 -100 -20 -62 -28 -73 -42 -58
-4 3 -33 16 -65 27 -77 28 -182 86 -182 101 0 6 -16 20 -35 31 -37 20 -36 15
-40 145 -3 61 -8 65 -78 73 -36 3 -82 13 -101 21 -30 13 -36 20 -34 43 3 51
-2 145 -8 139 -3 -3 -6 -47 -6 -97 l0 -92 -44 68 c-25 37 -43 73 -40 80 2 6
-8 25 -22 41 -38 42 -72 90 -72 102 0 16 72 3 125 -23z m2278 -148 c12 0 17
-7 17 -26 0 -76 -55 -324 -84 -381 -8 -14 -30 -66 -49 -116 -61 -158 -155
-297 -270 -397 -77 -67 -131 -108 -144 -108 -10 0 -25 38 -101 260 -80 230
-77 216 -50 223 16 5 32 -3 60 -28 40 -37 81 -45 111 -22 21 15 40 74 26 82
-5 4 -9 1 -9 -5 0 -6 -5 -8 -11 -4 -8 4 -7 9 2 15 11 8 11 12 -3 23 -10 7 -18
16 -18 20 0 11 62 64 133 113 59 41 71 46 87 35 11 -7 38 -12 60 -12 37 0 42
3 56 35 19 47 18 64 -8 85 -17 13 -20 21 -12 31 124 162 149 189 169 182 11
-3 28 -6 38 -5z m-1367 -40 c4 -18 8 -35 9 -38 0 -3 11 -24 23 -47 12 -23 22
-59 22 -80 0 -39 16 -36 22 4 2 16 7 20 17 14 15 -9 13 -16 -19 -68 -11 -18
-16 -33 -11 -33 5 0 11 6 14 13 2 6 8 9 12 4 5 -4 0 -13 -10 -21 -17 -12 -21
-12 -31 2 -7 9 -16 12 -24 7 -10 -6 -9 -11 5 -21 17 -13 18 -15 1 -33 -16 -18
-16 -20 5 -35 27 -18 41 -12 38 17 -2 36 0 47 12 47 6 0 9 -7 5 -15 -3 -8 0
-15 6 -15 9 0 9 -3 0 -12 -7 -7 -12 -20 -12 -30 0 -19 -18 -22 -59 -11 -20 5
-22 10 -18 42 6 34 5 35 -9 16 -13 -17 -16 -18 -24 -5 -8 13 -10 13 -10 -1 0
-9 7 -19 15 -23 24 -9 18 -28 -6 -21 -43 14 -89 47 -81 58 4 7 12 28 18 47 6
19 15 34 20 33 5 -1 9 11 10 25 0 15 3 41 6 57 32 169 39 185 54 123z m-738
-108 c34 -4 68 -13 75 -18 7 -6 14 -41 15 -81 4 -80 -7 -90 -48 -46 -12 13
-26 22 -30 20 -4 -3 -14 3 -21 13 -13 15 -12 16 4 3 27 -21 20 -7 -10 20 -14
13 -23 17 -19 9 5 -8 -10 4 -33 28 -46 48 -55 78 -18 68 12 -4 50 -11 85 -16z
m1636 -58 c-9 -11 -19 -35 -21 -54 -1 -18 -8 -46 -14 -61 -7 -15 -8 -31 -5
-35 11 -11 36 29 36 57 0 44 18 92 42 113 18 15 30 18 58 12 19 -4 45 -7 58
-7 12 1 22 -3 22 -8 0 -18 -95 -111 -151 -150 -31 -21 -63 -44 -70 -51 -29
-28 -77 -57 -83 -51 -4 4 -26 7 -50 8 -29 0 -52 7 -65 19 -12 11 -24 16 -29
12 -12 -12 28 -35 74 -42 25 -3 46 -9 48 -13 2 -3 -18 -17 -45 -31 -55 -27
-63 -23 -75 30 -3 14 -9 34 -14 45 -14 33 -23 71 -15 62 5 -4 32 6 62 23 62
35 63 35 63 12 0 -10 3 -22 7 -25 9 -9 35 52 27 64 -3 5 -1 9 4 9 5 0 40 24
78 54 44 35 70 49 72 41 2 -7 -5 -22 -14 -33z m-424 -206 c0 -1 11 -33 24 -70
l24 -67 -24 -15 c-13 -9 -30 -14 -38 -11 -8 3 -39 -3 -70 -14 -59 -21 -103
-22 -98 -1 1 6 -7 12 -19 12 -12 0 -58 26 -102 58 l-82 57 35 3 c85 6 294 34
314 42 23 10 36 12 36 6z m-490 -47 c19 -5 47 -9 63 -9 18 0 57 -22 117 -67
83 -64 88 -69 65 -76 -22 -8 -301 5 -335 15 -8 3 -27 8 -42 13 -33 8 -33 11
-12 86 l16 58 47 -5 c25 -3 62 -10 81 -15z m627 -360 c40 -118 72 -214 73
-214 0 0 -221 -1 -490 -3 -270 -2 -490 0 -490 4 0 12 101 408 105 412 2 2 35
-3 74 -12 38 -9 81 -16 95 -16 27 0 35 -15 14 -23 -10 -4 -9 -8 2 -16 11 -8
16 -7 18 5 3 12 11 14 35 9 46 -10 53 -21 23 -40 -22 -15 -31 -15 -56 -5 -16
7 -32 21 -35 31 -7 22 -35 26 -35 5 0 -26 41 -66 81 -77 35 -11 43 -10 67 8
30 22 40 57 23 77 -15 18 50 28 163 25 46 -1 87 1 92 4 18 10 60 10 87 -1 39
-17 52 -15 37 3 -11 13 -10 18 6 30 10 8 23 13 28 12 6 -2 43 -100 83 -218z
m209 -261 c4 -5 2 -8 -4 -8 -6 0 -41 -14 -78 -30 -107 -50 -227 -80 -417 -106
-100 -14 -136 -22 -132 -31 6 -17 -25 -16 -245 2 -273 23 -311 29 -375 64 -31
17 -61 31 -68 31 -19 0 -87 52 -81 62 3 5 16 13 28 18 26 10 1362 8 1372 -2z
m-1386 -98 c30 -15 81 -36 113 -46 31 -10 57 -20 57 -23 0 -3 -58 -6 -130 -6
l-130 0 0 35 c0 19 -3 46 -7 59 -5 21 -4 23 18 16 13 -4 49 -20 79 -35z"/>
<path d="M3070 5927 c0 -45 14 -206 45 -532 31 -329 43 -420 53 -411 9 10 3
138 -13 259 -8 62 -17 144 -21 182 -3 39 -7 77 -9 86 -2 8 -6 55 -11 105 -4
49 -8 96 -9 104 -1 8 -5 47 -9 85 -12 124 -17 159 -22 164 -2 2 -4 -16 -4 -42z"/>
<path d="M13260 7962 c0 -30 -1 -31 -32 -24 -40 8 -359 8 -763 -1 -165 -4
-305 -7 -312 -7 -6 0 -9 -8 -6 -20 3 -12 0 -20 -6 -20 -7 0 -10 -4 -6 -10 3
-5 -3 -37 -13 -72 -36 -119 -50 -188 -40 -194 5 -3 1 -12 -9 -19 -15 -11 -15
-15 -3 -30 13 -15 12 -19 -5 -31 -14 -10 -18 -26 -18 -59 1 -25 -3 -45 -8 -45
-5 0 -6 -13 -2 -30 3 -19 1 -30 -6 -30 -6 0 -11 -12 -11 -26 0 -24 -10 -76
-81 -409 -41 -192 -67 -321 -89 -445 -22 -118 -68 -330 -75 -345 -3 -5 -3 9
-1 33 6 58 -10 53 -19 -5 -14 -98 -104 -536 -145 -708 -33 -138 -34 -146 -19
-156 11 -7 10 -9 -3 -9 -10 0 -18 -3 -18 -7 0 -26 -30 -241 -35 -255 -3 -8
-14 -53 -24 -99 -11 -46 -40 -165 -65 -264 -26 -99 -58 -234 -72 -300 -14 -66
-38 -169 -53 -230 -16 -60 -41 -173 -56 -250 -15 -77 -38 -176 -51 -220 -23
-79 -31 -110 -59 -255 -8 -41 -21 -109 -30 -150 -11 -48 -15 -97 -11 -136 5
-64 -14 -151 -37 -166 -8 -5 -9 -10 -1 -18 12 -12 47 -3 39 11 -8 11 5 59 16
59 5 0 11 -12 15 -27 3 -16 12 -42 20 -60 8 -17 14 -39 14 -50 1 -10 7 -29 15
-43 19 -32 19 -61 1 -54 -7 3 -16 -2 -19 -10 -5 -12 -2 -13 19 -6 18 7 33 6
52 -3 18 -9 45 -11 82 -6 30 4 96 8 145 8 62 1 85 4 75 11 -10 7 21 10 98 10
74 0 112 -4 112 -11 0 -8 65 -9 224 -3 209 6 224 6 234 -11 9 -17 10 -17 17 4
6 20 11 22 46 16 25 -4 39 -3 39 4 0 6 -14 11 -30 11 -30 0 -31 1 -24 38 4 20
11 48 17 62 6 14 9 30 8 37 -1 9 23 10 91 6 147 -8 168 -10 175 -17 3 -3 13
-6 22 -6 14 0 14 2 1 10 -13 8 -12 10 3 10 9 0 17 -5 17 -11 0 -8 38 -9 133
-4 72 3 140 6 150 6 9 0 17 5 17 10 0 6 -41 9 -107 6 -60 -2 -119 0 -133 4
-28 8 8 11 205 15 225 5 221 5 200 14 -23 9 -373 2 -425 -9 -19 -4 -53 -6 -75
-5 -115 6 -244 6 -254 -1 -8 -5 -10 2 -5 22 4 15 8 30 10 32 2 2 40 -2 85 -9
72 -11 198 -10 369 5 14 1 43 3 64 3 22 1 37 5 33 8 -3 3 -98 5 -210 5 -131
-1 -208 2 -212 9 -4 7 50 10 162 11 266 2 321 4 329 12 4 4 -107 7 -247 7
-147 0 -260 4 -269 10 -11 7 0 10 38 10 28 0 52 5 52 10 0 6 -11 10 -25 10
-14 0 -25 5 -25 10 0 14 53 0 63 -17 10 -16 88 -18 84 -1 -1 8 67 11 268 9
148 -1 267 0 265 2 -10 9 -190 18 -455 22 -240 4 -268 3 -251 -10 11 -8 18
-15 15 -16 -33 -6 -42 -10 -53 -24 -8 -12 -19 -15 -38 -10 -24 6 -26 10 -17
32 5 13 7 29 4 33 -7 11 33 230 44 245 4 6 8 24 9 40 5 73 22 176 41 245 12
41 20 82 18 90 -4 14 33 15 317 12 177 -1 332 -4 345 -5 20 -2 24 -8 27 -47 2
-25 11 -50 19 -56 14 -10 14 -12 1 -17 -12 -5 -13 -12 -3 -44 6 -21 17 -42 24
-46 7 -4 13 -18 12 -30 0 -21 -1 -21 -9 -2 -8 18 -9 17 -9 -8 -1 -16 3 -26 9
-22 6 3 10 2 10 -4 0 -5 -4 -11 -9 -13 -5 -1 -1 -41 10 -88 18 -83 37 -185 45
-244 2 -16 22 -53 45 -83 26 -35 38 -60 34 -72 -4 -13 3 -24 22 -36 16 -10 40
-32 56 -48 l27 -29 0 26 c0 36 -25 83 -66 121 -19 18 -34 38 -34 44 0 7 -9 21
-20 33 -24 26 -27 46 -3 27 15 -13 16 -11 10 19 -4 19 -2 32 4 32 6 0 8 9 4
20 -4 11 -2 20 4 20 6 0 11 -15 11 -32 0 -43 34 -151 49 -156 15 -5 14 9 -4
52 -15 35 -20 83 -15 131 2 23 15 -12 30 -85 42 -199 49 -236 55 -274 l6 -39
-30 6 c-17 4 -33 2 -36 -2 -9 -15 175 -34 275 -29 14 1 206 2 428 2 268 1 407
-2 412 -9 5 -6 14 -31 19 -55 14 -58 35 -118 46 -127 4 -5 4 6 0 22 -8 33 -44
194 -52 235 -2 14 -16 71 -29 128 -14 56 -26 113 -27 125 -2 12 -7 31 -14 42
-11 20 -40 144 -87 375 -14 69 -42 195 -62 280 -19 85 -36 174 -36 198 -1 23
-5 42 -10 42 -4 0 -7 3 -6 8 1 4 -3 16 -9 27 -6 11 -16 45 -22 75 -5 30 -17
87 -25 125 -8 39 -17 89 -20 112 -2 23 -8 47 -12 54 -5 8 -2 10 8 6 13 -5 14
0 5 36 -7 28 -12 36 -16 24 -4 -9 -7 10 -7 43 0 32 -6 65 -11 72 -6 7 -14 36
-18 63 -4 28 -12 55 -16 61 -5 6 -7 19 -3 28 4 9 1 16 -6 16 -8 0 -10 9 -6 26
5 18 3 24 -5 18 -9 -5 -10 0 -5 20 3 14 3 26 -2 26 -4 0 -8 16 -9 35 -1 20 -6
41 -12 49 -6 7 -8 16 -5 19 4 3 3 14 -1 24 -5 10 -9 21 -10 26 -2 4 -3 8 -5
10 -1 1 -3 11 -4 22 -9 70 -53 261 -82 360 -29 101 -68 254 -82 325 -51 254
-162 766 -203 935 -5 22 -11 60 -14 85 -2 25 -15 83 -29 130 -13 47 -27 105
-31 130 -3 25 -17 83 -29 130 -22 79 -40 162 -82 365 -20 99 -30 127 -69 190
-47 79 -49 81 -76 116 -15 19 -30 44 -34 57 -6 20 -3 22 27 22 27 1 30 2 16
11 -10 5 -26 9 -35 7 -10 -2 -22 7 -28 20 -19 36 -25 37 -25 4z m-900 -58 c63
-4 293 -6 511 -5 273 2 399 -1 404 -8 3 -6 0 -11 -7 -11 -9 -1 -9 -4 3 -13 16
-12 89 -112 89 -122 0 -3 12 -24 26 -46 14 -23 24 -43 22 -45 -3 -2 -245 -5
-540 -6 l-535 -3 -12 38 c-6 21 -9 43 -5 48 3 6 2 27 -2 47 -8 33 -9 28 -14
-43 l-5 -80 -19 40 c-10 22 -38 79 -62 127 -23 48 -39 89 -36 92 3 4 19 4 36
2 17 -3 83 -8 146 -12z m-170 -117 c0 -5 21 -52 46 -105 l46 -96 -22 -85 c-26
-100 -38 -154 -45 -197 -3 -17 -16 -73 -29 -125 -13 -52 -32 -130 -41 -174
-10 -44 -22 -85 -27 -91 -5 -7 -15 -43 -22 -80 -30 -149 -87 -424 -106 -509
-11 -49 -29 -142 -41 -205 -11 -63 -47 -227 -79 -365 -32 -137 -74 -326 -94
-420 -56 -260 -128 -545 -138 -545 -5 0 -7 8 -4 18 15 47 23 113 13 109 -6 -2
-11 -14 -12 -28 -1 -13 -5 -40 -10 -59 -4 -19 -8 -44 -10 -55 -1 -11 -3 -20
-5 -20 -1 0 -3 -10 -4 -23 -2 -16 2 -21 11 -18 7 3 13 -1 13 -10 0 -10 -6 -14
-14 -11 -16 7 -26 -13 -26 -51 0 -21 2 -24 10 -12 11 17 13 10 4 -14 -3 -9
-11 -13 -17 -9 -6 4 -8 0 -5 -9 8 -19 -22 -178 -33 -178 -5 0 -6 15 -4 33 4
28 4 29 -4 7 -5 -14 -9 -38 -9 -55 -1 -25 1 -27 8 -10 8 19 9 19 9 -2 1 -13
-3 -23 -7 -23 -7 0 -24 -72 -38 -165 -10 -61 -15 -75 -25 -75 -6 0 -8 4 -5 9
3 5 12 53 21 108 8 55 17 107 19 114 10 31 16 190 7 184 -5 -3 -10 -13 -9 -23
1 -55 -35 -283 -51 -322 -15 -39 -13 -4 9 120 17 91 18 115 8 121 -10 7 -10
11 0 21 6 6 12 27 12 44 0 18 7 40 16 48 8 9 10 16 4 16 -7 0 -5 11 5 29 8 17
12 37 9 45 -3 9 -2 16 3 16 5 0 9 8 10 18 1 9 5 45 9 80 4 40 3 62 -3 62 -6 0
-13 -26 -16 -57 -7 -76 -16 -134 -23 -144 -12 -20 -24 -7 -19 19 2 16 7 44 9
63 12 90 31 140 52 132 17 -6 18 2 4 28 -9 15 -7 19 6 19 10 0 14 5 10 15 -3
8 -1 15 4 15 9 0 8 46 -1 55 -8 7 17 166 46 294 15 64 31 139 35 166 5 28 12
64 15 80 3 17 15 80 26 140 11 61 28 135 36 165 9 30 17 68 18 84 2 16 7 31
11 35 5 3 10 24 12 46 1 22 6 56 12 75 5 19 16 69 25 110 9 41 25 109 35 150
21 88 41 178 75 350 31 159 91 440 116 550 11 47 24 103 29 125 5 22 16 69 25
105 17 68 18 70 42 190 8 41 16 82 18 92 2 9 7 38 11 64 6 43 8 46 20 29 8
-10 14 -23 14 -28z m1248 -247 c8 -41 38 -178 68 -305 57 -246 102 -454 165
-765 21 -107 48 -228 59 -268 34 -122 58 -242 48 -236 -9 6 -3 -30 13 -73 5
-13 6 -23 4 -23 -2 0 0 -12 6 -27 15 -38 22 -72 23 -108 1 -16 3 -32 6 -35 3
-3 16 -52 29 -110 13 -58 27 -110 32 -116 5 -6 7 -13 4 -15 -2 -3 5 -34 16
-69 11 -36 22 -81 25 -100 6 -51 25 -133 34 -145 4 -5 8 -17 8 -25 1 -30 8
-66 15 -76 3 -6 9 -33 13 -60 3 -27 8 -52 10 -55 2 -4 6 -23 10 -44 7 -45 -11
-40 -21 6 -4 17 -9 28 -11 26 -8 -8 18 -97 28 -97 5 0 6 5 3 10 -3 6 -2 10 3
10 5 0 12 -11 14 -25 4 -20 3 -23 -8 -14 -20 16 -19 -15 1 -34 8 -9 11 -17 6
-19 -5 -2 -3 -32 3 -68 7 -36 14 -59 17 -51 3 7 5 -6 6 -29 1 -23 8 -50 16
-59 21 -24 28 -49 15 -57 -7 -4 -7 -8 0 -13 6 -4 13 -19 16 -34 2 -14 7 -31
10 -36 4 -5 1 -11 -5 -13 -8 -3 -7 -8 3 -18 8 -8 15 -37 17 -65 1 -27 6 -52
10 -55 10 -6 36 -117 76 -320 15 -74 33 -155 40 -180 13 -46 25 -96 89 -385
83 -370 110 -477 137 -527 7 -13 7 -18 1 -14 -6 3 -230 6 -499 6 l-489 0 -18
93 c-30 152 -54 293 -60 346 -3 27 -10 69 -15 93 -5 24 -13 72 -16 108 -4 36
-17 116 -31 177 -13 62 -24 128 -24 147 0 39 -11 51 -37 38 -10 -5 -78 -6
-158 -1 -176 10 -276 12 -295 8 -8 -2 -14 2 -12 9 2 9 -2 11 -10 5 -7 -4 -22
-6 -33 -5 -15 2 -17 1 -6 -7 21 -14 -134 -26 -162 -13 -20 10 -18 11 18 12 22
2 31 5 21 7 -11 3 -43 0 -70 -6 -28 -6 -80 -17 -116 -24 -38 -8 -64 -19 -63
-26 2 -6 -1 -11 -6 -11 -5 0 -11 -18 -15 -39 -3 -22 -30 -113 -60 -203 -55
-167 -121 -427 -114 -450 3 -7 22 56 42 140 21 83 42 152 47 152 4 0 1 -22 -7
-49 -15 -51 -32 -132 -40 -191 -2 -19 -10 -55 -18 -80 -8 -25 -14 -62 -14 -84
0 -21 -4 -41 -9 -45 -4 -3 -8 -14 -9 -23 0 -10 -1 -34 -2 -53 l-2 -35 -69 0
c-38 0 -103 4 -143 10 -129 17 -197 21 -470 23 -147 2 -270 6 -273 9 -3 3 5
48 19 99 13 52 43 177 66 279 23 102 44 192 47 200 10 25 13 44 15 78 1 17 5
32 8 32 7 0 32 124 35 176 1 22 5 45 8 51 4 6 9 28 12 49 5 44 36 186 60 284
9 36 18 76 20 90 1 14 8 45 15 69 6 24 9 49 6 57 -7 18 4 45 15 39 4 -3 5 -13
2 -22 -4 -10 -2 -14 4 -10 9 6 21 44 27 87 3 17 14 74 21 110 3 14 10 49 15
79 5 30 14 68 19 85 6 17 10 42 10 56 -1 40 5 64 18 72 6 5 9 17 6 29 -3 12
-1 24 5 28 6 4 16 33 22 66 6 33 15 81 21 108 5 26 13 68 18 95 5 26 23 106
41 177 17 72 44 193 60 270 17 77 43 196 60 265 16 69 46 210 65 313 19 103
40 207 46 230 6 23 13 53 15 67 2 14 8 40 13 58 5 18 10 36 10 40 3 56 16 111
51 222 10 30 22 78 28 105 31 142 156 632 164 642 5 7 7 17 3 22 -3 6 -1 19 5
30 13 26 10 26 600 26 l495 0 13 -75z"/>
<path d="M12691 6829 c-49 -8 -241 -85 -241 -96 0 -2 9 -1 20 2 31 10 24 -1
-17 -26 -21 -12 -56 -36 -78 -53 -22 -17 -33 -22 -24 -11 28 35 30 43 9 38
-11 -3 -20 -9 -20 -13 0 -4 -17 -26 -37 -50 -51 -57 -138 -199 -164 -269 -57
-151 -69 -354 -30 -514 11 -49 19 -93 16 -97 -3 -5 -1 -11 4 -14 5 -3 22 -32
39 -63 123 -236 306 -577 366 -680 l47 -82 -10 -57 c-6 -32 -18 -66 -28 -76
-11 -13 -12 -18 -3 -18 13 0 12 -24 -9 -135 -5 -30 -5 -54 0 -59 5 -6 9 -21
10 -35 0 -26 0 -26 11 -4 9 18 20 23 67 25 31 2 68 -1 83 -5 19 -6 37 -4 58 6
29 15 30 15 60 -21 18 -22 33 -33 38 -27 4 6 41 11 82 12 97 1 168 7 176 16 4
3 21 0 39 -7 20 -9 60 -13 106 -11 41 2 121 4 179 5 124 3 179 18 80 21 -129
5 -172 4 -176 -3 -3 -4 -12 -4 -21 -1 -11 4 -1 11 31 20 26 8 44 18 41 23 -4
6 1 10 10 10 9 0 14 -4 11 -8 -3 -5 18 -5 47 -1 29 3 63 5 77 3 22 -4 23 -3 6
7 -19 12 -107 15 -219 9 -103 -6 -102 -9 -137 245 -5 39 -12 89 -16 112 -5 37
0 52 42 130 69 128 94 181 98 203 1 3 34 71 74 152 39 80 72 149 72 153 0 3 9
25 19 48 11 23 31 76 46 117 15 41 36 100 47 130 16 43 21 82 22 185 1 113 -2
139 -23 200 -56 164 -132 294 -228 390 -38 38 -128 95 -151 95 -7 0 -30 12
-51 26 -21 14 -62 31 -91 39 -68 18 -289 27 -359 14z m351 -60 c87 -22 131
-42 218 -97 l55 -35 -52 -15 -52 -14 -50 31 c-27 18 -55 39 -62 47 -7 8 -26
25 -43 36 l-31 22 20 -23 c11 -13 48 -43 83 -68 34 -25 62 -48 62 -52 0 -5
-80 -31 -178 -58 -97 -28 -220 -67 -272 -88 -52 -20 -102 -38 -110 -41 -10 -3
-35 21 -73 68 -86 109 -116 142 -122 136 -3 -3 33 -54 81 -113 52 -63 83 -109
77 -113 -34 -21 -153 -313 -153 -373 0 -36 -18 -56 -112 -125 -51 -37 -109
-81 -128 -98 l-35 -30 -7 40 c-4 21 -12 62 -18 89 -17 73 -14 249 4 277 8 13
17 39 21 58 23 109 137 330 171 330 9 0 28 -9 42 -21 82 -63 145 -109 151
-109 11 1 -83 81 -136 116 -29 19 -53 37 -53 39 0 9 146 103 205 132 33 16 87
38 120 47 33 10 65 19 70 21 6 2 59 4 118 4 79 1 131 -5 189 -20z m306 -184
c74 -85 143 -214 178 -330 18 -61 27 -256 12 -271 -4 -4 -14 -1 -23 6 -12 10
-15 10 -15 -3 0 -8 6 -20 14 -26 22 -18 27 -56 12 -86 l-14 -26 -28 35 c-16
19 -51 86 -77 148 -68 156 -216 532 -213 536 5 5 111 41 122 42 6 0 20 -11 32
-25z m-184 -42 c4 -9 2 -19 -3 -22 -5 -3 -15 -84 -22 -178 -7 -95 -16 -173
-19 -173 -4 0 -12 11 -18 25 -20 43 -104 126 -154 151 -112 57 -319 0 -374
-101 -10 -19 -22 -35 -27 -35 -10 0 0 37 19 67 8 12 14 28 14 36 0 45 113 103
334 171 61 19 136 44 166 55 69 25 76 25 84 4z m34 -70 c18 -36 67 -158 141
-353 18 -47 46 -109 62 -139 16 -30 27 -56 25 -58 -2 -2 -53 30 -114 71 -60
42 -126 83 -145 92 -30 14 -35 21 -31 43 16 95 22 150 29 259 4 67 9 122 11
122 2 0 12 -17 22 -37z m-273 -164 c27 -7 57 -29 92 -64 67 -69 88 -131 74
-227 -15 -105 -59 -172 -142 -213 -82 -42 -155 -28 -226 42 -47 48 -63 94 -64
185 0 67 4 88 29 141 32 70 75 125 106 137 30 12 84 12 131 -1z m-403 -255
c-7 -29 -6 -46 3 -58 7 -9 16 -38 20 -64 4 -26 12 -56 17 -66 17 -32 90 -107
118 -121 68 -35 203 -26 278 18 l37 22 -36 -50 c-43 -58 -107 -171 -93 -163 5
3 40 51 78 107 37 55 85 118 105 139 44 46 91 155 91 212 0 22 4 40 10 40 18
0 315 -200 315 -213 0 -6 -95 -59 -211 -117 -115 -58 -262 -135 -326 -172 -63
-38 -118 -68 -121 -68 -4 0 -28 33 -55 73 -27 39 -77 101 -111 137 -34 36 -57
66 -51 68 6 2 2 14 -10 25 -24 25 -63 80 -82 116 -10 20 -10 25 0 29 8 2 10 8
4 15 -5 7 -12 24 -16 39 -5 21 -3 26 7 22 9 -3 14 4 15 23 0 15 3 37 6 48 2
11 5 27 7 35 1 8 4 3 6 -11 2 -14 0 -43 -5 -65z m17 -249 c36 -49 102 -136
148 -192 46 -57 82 -103 80 -103 -5 0 -215 91 -392 170 -77 34 -148 64 -159
66 -28 5 -30 11 -6 24 12 7 52 35 90 63 37 29 77 59 90 67 12 8 29 20 38 27
14 10 20 9 32 -10 8 -12 44 -62 79 -112z m952 -12 c-5 -16 -18 -46 -29 -68
-11 -22 -41 -89 -66 -150 -25 -60 -71 -155 -102 -210 -30 -55 -68 -129 -83
-165 -49 -113 -170 -335 -182 -332 -6 1 -8 -2 -5 -7 6 -9 -11 -41 -79 -151
-19 -30 -34 -60 -35 -65 0 -18 -37 -84 -43 -78 -3 3 -7 82 -7 177 -1 94 -4
216 -7 271 -3 55 -7 150 -9 210 -2 61 -5 137 -7 171 l-3 60 40 30 c101 72 432
244 471 244 10 0 16 3 12 6 -7 7 63 45 72 40 3 -2 20 7 36 20 17 13 31 24 32
24 1 0 -2 -12 -6 -27z m-1266 -72 c3 -5 22 -15 43 -22 20 -6 82 -32 137 -57
55 -24 158 -69 229 -98 147 -61 177 -79 170 -98 -3 -7 2 -155 11 -327 8 -173
15 -350 14 -394 0 -44 2 -98 6 -120 6 -37 6 -38 -8 -20 -8 11 -32 52 -52 90
-21 39 -70 124 -110 190 -40 66 -109 185 -155 265 -46 80 -93 161 -105 180
-22 34 -215 408 -215 416 0 8 29 4 35 -5z"/>
<path d="M5375 7933 c-27 -19 -61 -45 -75 -57 -14 -12 -34 -29 -44 -37 -18
-13 -19 -12 -13 3 4 12 2 15 -9 11 -9 -3 -12 -13 -9 -23 8 -24 -139 -159 -197
-182 -24 -9 -35 -17 -24 -17 13 -1 16 -6 11 -18 -16 -44 -25 -405 -20 -828 3
-253 7 -487 10 -520 8 -117 10 -1684 2 -1990 -4 -170 -9 -369 -11 -442 -1 -77
1 -136 7 -142 10 -10 13 -220 9 -640 -2 -129 1 -238 5 -242 14 -14 195 -32
259 -26 36 4 65 2 71 -4 12 -12 494 -7 533 6 49 16 142 18 151 3 7 -10 11 -10
17 -1 4 6 36 15 72 19 54 7 60 9 35 14 -16 4 -42 5 -57 2 -16 -2 -28 -2 -28 2
0 8 70 99 82 107 5 3 9 9 9 13 -2 9 72 107 98 130 22 20 22 20 15 0 -4 -10
-10 -21 -13 -24 -23 -20 -82 -102 -77 -107 3 -3 2 -11 -4 -18 -6 -7 -1 -17 16
-30 l25 -18 -32 -14 c-18 -7 -30 -15 -28 -18 3 -2 61 1 129 7 69 6 137 11 153
11 15 0 27 4 27 8 0 9 -17 13 -35 9 -15 -4 -117 -1 -121 3 -7 7 37 47 47 42 5
-3 17 -1 26 5 14 8 -4 10 -74 8 -58 -2 -92 1 -90 7 1 6 7 10 12 11 93 7 372
18 410 16 36 -2 47 0 39 8 -6 6 -58 11 -133 11 -69 0 -119 4 -116 9 3 5 13 9
23 9 213 2 235 3 222 12 -24 15 -300 8 -300 -8 0 -17 -27 -17 -33 0 -3 9 -7 9
-19 -1 -13 -10 -17 -10 -21 1 -6 16 46 26 137 28 28 0 85 6 126 13 l75 12 -45
6 c-25 4 -73 5 -108 3 -95 -5 -84 12 14 20 47 4 83 9 81 11 -5 5 -93 10 -205
13 -36 1 -52 5 -51 14 1 6 1 20 0 31 -1 15 -4 16 -16 6 -8 -7 -15 -11 -15 -9
-9 64 -9 151 -1 139 20 -29 24 2 13 102 -9 88 -22 828 -14 828 11 0 89 -189
126 -305 231 -732 348 -1088 363 -1106 21 -25 16 -29 -44 -29 -36 0 -53 -4
-47 -9 5 -6 163 -11 369 -13 198 -2 342 -1 320 2 -25 4 14 9 105 14 80 5 156
10 170 12 50 6 239 6 249 -1 6 -3 20 -23 31 -43 10 -20 20 -32 20 -27 6 47 5
82 -3 92 -10 14 2 36 52 93 16 19 30 30 31 23 0 -7 -13 -28 -30 -46 -16 -19
-30 -41 -30 -48 0 -18 59 54 85 103 19 36 104 178 111 187 2 2 14 -4 26 -15
l22 -19 -17 27 c-9 15 -17 35 -17 44 0 9 -24 73 -54 143 -30 69 -57 137 -61
151 -4 14 -15 41 -25 60 -10 19 -25 55 -35 80 -9 25 -25 63 -35 85 -10 22 -25
58 -33 80 -17 47 -66 172 -107 270 -15 39 -34 88 -41 110 -6 22 -15 49 -19 60
-5 11 -11 29 -15 40 -4 11 -21 56 -37 100 -78 211 -109 308 -104 321 3 8 1 14
-4 14 -6 0 -10 9 -10 20 0 11 -4 28 -10 38 -5 9 -16 33 -24 52 -8 19 -33 78
-56 130 -23 52 -48 114 -57 138 -8 24 -20 41 -27 39 -6 -2 -16 3 -23 12 -9 13
-7 20 9 38 12 13 26 23 31 23 6 0 2 -9 -8 -20 -10 -11 -16 -23 -13 -26 11 -10
46 37 41 55 -3 11 5 26 19 37 13 11 45 45 70 76 26 31 73 83 106 115 58 57
103 116 136 181 23 44 3 41 -29 -5 -35 -52 -31 -27 6 38 17 30 28 46 25 37 -3
-10 -1 -20 4 -23 13 -8 37 52 56 139 9 39 20 79 25 88 5 10 11 34 14 53 2 20
6 39 9 43 5 9 14 99 21 222 3 52 10 156 16 231 14 195 3 301 -47 454 -19 58
-34 114 -34 125 0 12 -4 19 -8 16 -4 -2 -13 7 -19 22 -37 86 -42 103 -31 100
6 -2 17 -20 24 -39 7 -19 13 -27 13 -18 1 19 -30 87 -65 144 -13 22 -27 47
-31 55 -8 19 -48 73 -90 124 -38 46 -45 75 -7 32 14 -15 27 -26 29 -24 2 2
-27 38 -65 79 -111 122 -318 249 -535 330 -49 18 -97 39 -106 47 -11 8 -18 9
-20 3 -3 -7 -55 2 -139 23 -175 44 -319 60 -505 57 -82 -1 -315 -3 -517 -4
-331 -2 -368 0 -370 14 -2 13 -13 10 -53 -18z m567 -37 c92 -1 227 2 300 6
192 10 480 -28 530 -70 8 -6 30 -15 49 -18 33 -5 65 -17 101 -35 10 -5 25 -9
33 -9 9 0 27 -7 40 -16 13 -9 30 -14 37 -11 7 2 -11 16 -39 31 -85 42 -61 47
32 6 22 -10 58 -23 80 -30 71 -23 310 -151 353 -189 13 -11 27 -21 32 -21 16
0 119 -121 150 -177 18 -32 43 -72 56 -89 13 -17 26 -43 30 -58 5 -21 3 -25
-10 -20 -12 5 -15 2 -10 -10 3 -9 10 -14 14 -11 5 3 11 1 15 -5 3 -5 0 -10 -7
-10 -9 -1 -9 -4 3 -13 8 -7 25 -39 38 -72 12 -33 35 -91 51 -130 16 -38 31
-95 35 -125 3 -30 10 -59 14 -65 31 -40 48 -523 19 -541 -4 -3 -8 4 -8 15 0
12 -5 21 -11 21 -6 0 -7 5 -2 13 11 18 13 35 14 107 0 86 -4 137 -13 146 -5 4
-8 2 -8 -4 0 -7 -5 -12 -11 -12 -6 0 -8 9 -3 23 6 20 4 20 -20 -6 -14 -15 -26
-34 -26 -41 0 -8 -7 -19 -15 -26 -8 -7 -12 -16 -9 -21 10 -17 20 -9 34 26 15
37 18 39 39 26 8 -5 9 -11 3 -15 -6 -3 -10 -38 -9 -77 2 -74 -4 -89 -29 -68
-8 6 -17 9 -21 6 -3 -4 1 -9 9 -12 11 -4 15 -19 13 -50 -1 -38 1 -43 13 -33
12 10 14 9 10 -7 -2 -11 -9 -19 -15 -18 -6 1 -13 -7 -16 -17 -6 -23 3 -26 21
-8 9 9 12 8 12 -5 0 -30 -1 -32 -18 -29 -13 2 -14 1 -3 -6 11 -8 10 -14 -5
-37 -11 -17 -17 -42 -16 -66 2 -28 -3 -44 -19 -60 -17 -17 -19 -23 -8 -30 11
-6 11 -11 1 -21 -9 -9 -12 -9 -13 3 0 7 -2 24 -3 37 -2 12 2 22 7 22 5 0 4 6
-2 14 -9 11 -8 17 4 29 11 12 12 17 2 20 -8 4 -9 8 -2 14 12 9 13 23 2 40 -8
13 1 43 14 43 5 0 9 5 9 10 0 6 -7 10 -15 10 -18 0 -20 16 -2 23 8 4 9 8 1 14
-12 9 -13 14 -15 105 0 38 3 64 10 66 6 2 11 8 11 13 0 4 -7 6 -15 3 -8 -4
-15 -2 -15 4 0 6 6 12 13 15 6 2 8 8 4 13 -16 17 -42 -13 -39 -45 2 -17 -1
-31 -7 -31 -6 0 -11 8 -11 18 0 9 -3 27 -6 40 -5 18 -3 21 10 16 12 -4 16 0
16 15 0 23 16 29 23 9 2 -7 2 11 -1 40 -3 32 -1 52 6 52 6 0 12 -6 14 -12 3
-7 10 2 16 21 10 28 9 32 -3 27 -10 -4 -16 5 -20 32 -3 20 -11 45 -16 55 -6
11 -8 21 -5 25 3 3 -4 20 -15 39 -12 18 -18 40 -15 48 3 9 0 12 -10 8 -8 -3
-15 1 -15 8 -5 53 -10 79 -25 111 -9 21 -21 38 -26 38 -5 0 -5 -8 1 -17 5 -10
11 -31 14 -48 3 -16 10 -42 16 -57 6 -16 8 -28 5 -28 -3 0 3 -12 14 -27 11
-16 23 -39 27 -53 11 -36 14 -236 3 -252 -5 -8 -6 -2 -2 16 4 18 2 31 -6 36
-7 4 -18 51 -26 106 -23 171 -77 313 -175 463 -27 41 -49 77 -49 81 0 5 -17
23 -37 41 -21 18 -38 37 -38 42 0 6 -8 11 -18 13 -9 1 -40 23 -69 49 -68 61
-216 160 -292 195 -140 65 -387 130 -576 152 -138 16 -512 16 -830 1 -140 -7
-313 -15 -385 -18 l-130 -5 35 27 c83 67 250 215 250 222 0 25 51 31 225 24
99 -4 255 -7 347 -7z m476 -290 c223 -32 358 -65 512 -127 124 -50 125 -51
236 -127 83 -57 207 -176 251 -242 9 -14 29 -39 44 -55 46 -49 96 -165 135
-312 49 -185 78 -353 58 -340 -5 3 -10 -10 -11 -29 -2 -19 2 -34 8 -34 5 0 7
6 3 13 -5 8 -2 7 10 -2 15 -13 16 -33 12 -220 -6 -221 -9 -271 -18 -286 -3 -6
-6 -28 -6 -50 0 -21 -5 -41 -11 -43 -6 -2 -11 -14 -11 -27 0 -78 -108 -338
-192 -462 -39 -58 -302 -263 -337 -263 -5 0 -13 9 -16 20 -4 11 -11 18 -16 14
-6 -4 -5 -14 3 -27 21 -33 11 -54 -34 -74 l-41 -18 38 -5 c21 -3 41 -12 45
-20 49 -98 175 -410 225 -555 21 -60 55 -148 77 -195 67 -146 131 -301 125
-306 -4 -4 -28 37 -127 221 -9 17 -56 104 -105 195 -48 91 -116 217 -150 280
-34 63 -91 171 -125 240 -34 69 -135 256 -224 415 -236 421 -248 445 -234 445
17 0 91 110 121 180 30 68 59 212 62 305 7 261 -43 445 -153 558 -26 26 -64
59 -85 74 -48 33 -42 41 9 12 59 -34 26 -4 -39 35 -141 85 -219 93 -477 48
l-35 -6 30 -6 c20 -4 29 -11 26 -21 -9 -32 -11 -1158 -3 -1219 6 -42 6 -72 0
-84 -16 -31 9 -38 116 -32 142 9 219 29 319 86 86 48 87 48 99 27 37 -71 225
-419 246 -457 13 -25 61 -115 105 -200 125 -243 245 -467 302 -565 29 -49 68
-119 87 -155 51 -97 174 -322 234 -430 29 -52 66 -129 82 -170 166 -418 178
-450 168 -450 -3 0 -106 201 -229 448 -123 246 -279 551 -347 677 -67 127
-190 361 -272 520 -83 160 -155 295 -161 300 -9 9 250 -503 410 -810 40 -77
175 -342 299 -590 264 -525 401 -792 420 -820 8 -11 14 -27 14 -37 0 -18 -9
-20 -75 -20 -135 0 -141 1 -153 27 -17 37 -15 59 8 80 11 10 20 24 20 32 0 24
-34 10 -48 -20 -11 -23 -16 -26 -28 -16 -8 6 -14 18 -14 25 0 8 -4 14 -10 14
-5 0 -10 5 -10 12 0 6 11 1 25 -12 32 -30 33 -9 1 33 -14 18 -34 57 -46 87
-31 80 -65 119 -129 149 -53 24 -65 26 -211 26 -171 -1 -219 -11 -240 -50 -7
-14 -35 -39 -61 -56 l-47 -30 -3 -72 c-7 -163 -4 -205 14 -225 24 -27 21 -32
-17 -32 -29 0 -34 4 -39 28 -2 15 -10 41 -16 57 -22 61 -181 545 -235 715 -30
96 -70 225 -90 285 -19 61 -42 137 -51 170 -10 33 -27 71 -39 85 -12 14 -41
66 -64 116 l-42 90 -4 152 c-4 150 -4 153 16 146 15 -4 19 -2 16 7 -3 8 -17
15 -33 17 l-28 4 6 -127 c5 -94 4 -126 -5 -123 -6 2 -30 38 -54 79 -37 67
-177 228 -161 187 4 -11 2 -15 -6 -12 -27 10 -32 -32 -27 -196 3 -91 5 -498 3
-904 l-3 -740 -85 0 c-83 -1 -103 5 -67 19 15 6 14 8 -6 16 -21 8 -23 15 -22
66 1 32 -2 70 -5 85 -4 14 -3 34 2 43 12 21 -104 203 -144 224 -38 20 -259 27
-336 11 -82 -17 -133 -59 -176 -146 -20 -39 -43 -79 -50 -88 -27 -33 -51 -117
-45 -158 8 -45 24 -61 24 -24 0 14 5 26 10 26 6 0 10 5 10 11 0 6 -7 9 -15 5
-10 -4 -15 1 -15 16 0 17 2 18 15 8 13 -11 15 -8 15 18 0 38 17 50 35 26 26
-36 477 -30 521 7 8 7 15 6 19 -2 6 -8 10 -8 16 3 12 22 83 18 87 -4 2 -10 -3
-18 -10 -18 -11 0 -15 -15 -16 -56 -2 -68 -10 -96 -25 -91 -7 2 -14 35 -17 83
-5 82 -20 73 -20 -12 0 -70 5 -69 -345 -69 l-312 0 3 280 c2 154 4 287 5 295
0 8 0 74 -1 147 l-1 132 99 198 c55 109 120 236 144 283 89 169 219 411 238
442 11 18 20 38 20 43 0 13 -55 -79 -116 -192 -26 -48 -64 -117 -84 -153 -21
-36 -97 -180 -169 -320 -73 -140 -134 -257 -137 -259 -3 -3 -2 27 1 67 6 66
14 86 72 190 36 64 69 122 73 127 4 6 41 71 83 145 85 154 176 310 402 695 87
149 180 308 208 355 27 47 58 101 69 120 l21 35 -21 -20 c-26 -25 -102 -148
-397 -640 -138 -231 -313 -531 -400 -690 -49 -88 -94 -167 -102 -175 -11 -12
-13 0 -14 75 -3 196 3 1651 7 1670 7 35 7 669 -1 1045 -4 201 -9 471 -11 600
-1 129 -4 244 -6 255 -2 12 3 20 12 20 8 0 20 3 25 6 6 4 48 2 95 -3 81 -9
281 -4 525 12 178 12 595 4 723 -14z m-48 -822 c98 -35 243 -208 284 -337 40
-128 47 -326 17 -472 -26 -127 -42 -160 -88 -183 -60 -30 -172 -53 -243 -50
-58 3 -65 5 -62 23 10 66 -1 912 -13 1006 -5 37 -4 38 24 35 16 -2 52 -12 81
-22z m-285 -666 c12 -35 12 -472 0 -480 -6 -4 -2 -8 8 -8 10 0 21 10 26 23 7
19 6 415 -1 447 -2 7 3 15 10 17 6 3 12 -2 12 -11 0 -9 5 -16 11 -16 6 0 8 9
4 20 -4 11 -2 20 4 20 6 0 11 -4 11 -9 0 -5 8 -12 18 -14 14 -4 14 -6 -5 -12
-23 -7 -33 -45 -12 -45 6 0 9 -8 7 -17 -2 -10 -12 -18 -23 -18 -13 0 -19 -5
-16 -15 2 -8 4 -27 4 -42 0 -16 5 -28 11 -28 8 0 8 -2 0 -8 -17 -11 -13 -42 5
-42 14 0 14 -2 1 -10 -16 -10 -15 -11 15 -29 14 -9 15 -11 3 -7 -20 6 -35 -10
-16 -17 10 -3 10 -7 -1 -20 -7 -10 -9 -17 -4 -17 5 0 9 -16 8 -35 0 -25 3 -34
12 -31 29 12 9 -21 -46 -74 -32 -32 -60 -63 -63 -70 -2 -8 -9 -10 -17 -6 -10
6 -11 26 -5 80 4 39 7 80 6 91 -4 59 -1 389 4 396 9 15 21 10 29 -13z m1142
-1144 c-3 -3 8 -31 25 -63 17 -31 51 -96 75 -146 24 -49 51 -102 59 -117 7
-14 14 -33 14 -42 0 -9 3 -16 8 -16 4 0 14 -15 21 -32 8 -18 39 -84 68 -146
57 -123 59 -127 41 -116 -7 5 -8 3 -4 -5 5 -7 14 -10 22 -7 7 3 18 -3 23 -12
10 -16 10 -16 11 0 0 10 -8 27 -17 38 -18 21 -95 189 -108 237 -5 15 -7 34 -6
41 1 6 -3 12 -9 12 -5 0 -10 3 -9 8 2 15 -14 52 -22 52 -5 0 -9 7 -9 15 0 8 3
15 8 15 6 0 127 -238 127 -251 0 -4 12 -24 28 -45 17 -25 27 -33 27 -21 0 9 5
17 10 17 6 0 10 -6 10 -14 0 -8 7 -17 16 -20 10 -4 13 -13 9 -27 -5 -14 -3
-19 3 -15 6 3 13 -8 17 -25 4 -19 10 -27 14 -20 5 7 11 4 19 -11 14 -29 73
-171 74 -178 0 -3 8 -23 18 -45 28 -64 60 -155 54 -155 -3 0 -14 20 -25 45
-11 25 -24 45 -30 45 -12 0 36 -89 62 -113 10 -10 22 -30 25 -45 4 -15 11 -32
15 -38 5 -6 15 -28 23 -50 7 -21 27 -68 44 -104 49 -103 123 -292 118 -298 -3
-2 -10 8 -16 23 -6 15 -13 25 -16 22 -8 -8 39 -106 51 -107 13 0 38 -40 26
-40 -5 0 -11 6 -14 13 -2 6 -8 9 -12 5 -4 -4 7 -20 24 -35 l31 -29 -25 -36
c-14 -20 -25 -42 -25 -47 0 -6 -4 -11 -8 -11 -9 0 -49 -54 -118 -158 -23 -35
-45 -58 -49 -53 -3 6 -13 34 -21 63 -8 29 -22 68 -30 86 -9 18 -17 43 -18 55
-2 12 -19 56 -39 99 -21 42 -37 83 -37 91 0 9 -4 19 -10 22 -5 3 -10 14 -10
23 0 9 -7 31 -16 47 -9 17 -28 66 -44 110 -33 95 -45 125 -131 330 -13 32 -54
159 -54 170 0 6 -3 12 -6 15 -21 18 -129 286 -204 505 -6 17 -3 16 15 -5 16
-19 19 -20 12 -5 -57 122 -85 176 -93 180 -5 4 -9 15 -9 26 0 10 -4 19 -10 19
-5 0 -10 9 -10 19 0 11 -3 21 -8 23 -14 6 -84 168 -78 183 11 31 33 15 39 -27
11 -73 26 -115 62 -167 19 -28 35 -53 35 -55 0 -3 20 -49 45 -101 26 -55 43
-104 40 -114 -3 -10 6 -43 19 -73 14 -31 23 -58 20 -61 -3 -3 -1 -13 4 -24 6
-10 18 -36 27 -58 9 -22 20 -48 25 -57 6 -10 10 -23 10 -29 0 -17 71 -163 81
-167 5 -2 9 -17 9 -34 0 -23 4 -29 15 -24 8 3 15 1 15 -5 0 -15 71 -159 82
-165 11 -7 2 11 -65 146 -31 63 -57 119 -57 125 0 6 -8 20 -19 31 -18 20 -28
43 -36 84 -2 12 -15 43 -27 69 -21 43 -34 101 -23 101 6 0 45 -85 49 -105 4
-20 39 -86 43 -81 3 2 -2 19 -10 38 -8 18 -25 60 -37 93 -27 74 -44 110 -71
155 -12 19 -28 58 -36 85 -8 28 -17 59 -20 70 -5 19 -4 18 16 -3 12 -12 19
-26 16 -31 -3 -5 -1 -12 5 -16 5 -3 10 -13 10 -22 0 -28 43 -113 57 -113 7 0
13 -6 13 -13 0 -7 8 -28 18 -47 9 -19 28 -61 41 -93 13 -31 26 -55 28 -53 7 6
-29 109 -47 136 -9 14 -22 40 -29 58 -8 17 -18 32 -23 32 -6 0 -7 7 -4 16 3 8
2 13 -3 10 -8 -5 -20 18 -26 49 -1 6 -5 18 -9 27 -4 9 -9 29 -10 45 -2 32 -37
113 -48 113 -5 0 -8 5 -8 11 0 12 -63 151 -80 179 -42 66 -57 120 -33 120 4 0
4 -3 0 -6z m-1118 -1346 c6 -257 12 -400 19 -458 6 -42 7 38 5 228 -3 211 -1
292 7 292 7 0 10 -19 9 -52 -3 -53 5 -131 21 -218 6 -32 7 -16 4 58 -3 82 -1
102 10 102 7 0 16 -9 19 -20 3 -11 2 -20 -1 -20 -4 0 -6 -38 -4 -85 3 -59 0
-85 -8 -85 -7 0 -9 -8 -5 -21 11 -34 16 -68 22 -163 5 -79 7 -87 19 -71 9 13
12 36 9 74 -4 40 -3 50 4 36 5 -11 10 -14 10 -7 1 7 5 11 10 8 4 -3 7 -17 6
-31 -2 -14 1 -25 6 -25 20 0 5 -25 -63 -107 l-73 -87 -3 59 c-2 33 -7 64 -12
70 -17 21 -28 190 -25 385 4 228 4 220 9 220 2 0 4 -37 5 -82z m-461 -354 c18
-4 22 -11 22 -43 l0 -39 -32 8 c-98 25 -370 17 -404 -11 -27 -22 -14 8 17 39
34 35 42 38 134 51 56 9 213 6 263 -5z m1790 -64 c37 -21 92 -90 92 -116 0 -9
-10 -8 -37 2 -26 9 -95 13 -222 14 -162 0 -185 -2 -196 -17 -11 -14 -14 -10
-20 35 -4 29 -11 54 -16 58 -5 3 -9 14 -9 24 0 25 31 29 217 25 134 -3 157 -6
191 -25z m-406 -67 c13 -27 4 -152 -13 -167 -9 -8 -10 4 -6 49 l5 60 -13 -40
c-7 -22 -11 -50 -8 -62 6 -27 -16 -32 -77 -19 -18 4 -33 70 -25 113 6 33 49
93 66 93 6 0 7 -5 4 -10 -11 -19 -25 -140 -19 -166 11 -44 29 -28 25 23 -4 52
15 150 33 172 9 12 11 11 14 -5 2 -10 8 -29 14 -41z m-1416 29 c13 -7 27 -32
37 -64 28 -93 28 -92 -28 -100 -83 -11 -443 -9 -450 2 -8 12 41 144 58 158 20
17 65 20 217 18 86 -1 154 -7 166 -14z m1899 -124 c24 -28 63 -133 53 -143 -8
-8 -505 9 -514 18 -7 7 12 131 24 151 2 4 97 6 209 5 l205 -4 23 -27z m-575
-130 c0 -4 15 -10 34 -14 19 -3 37 -13 41 -22 4 -11 8 -13 13 -5 5 8 76 8 265
1 258 -10 258 -10 281 11 l23 22 27 -31 c14 -17 26 -35 26 -39 0 -4 -87 -11
-192 -14 -106 -4 -264 -10 -350 -13 -157 -7 -158 -7 -158 14 0 12 -4 22 -10
22 -5 0 -14 18 -20 40 -6 22 -15 40 -20 40 -6 0 -10 4 -10 9 0 5 11 4 25 -2
14 -7 25 -15 25 -19z"/>
<path d="M5899 5143 c-45 -72 -54 -110 -35 -155 16 -37 46 -52 46 -23 0 8 9
15 21 15 11 0 18 -4 14 -9 -9 -15 15 -25 28 -12 9 9 7 10 -7 5 -13 -5 -17 -4
-12 4 10 17 45 15 63 -3 8 -8 19 -12 25 -9 6 4 5 10 -3 15 -11 7 -11 9 -1 9 7
0 20 -7 28 -15 24 -24 33 -18 54 31 15 33 18 57 14 87 -14 89 -35 107 -130
107 l-74 0 -31 -47z m180 12 c2 -11 8 -23 13 -26 5 -3 11 -19 14 -35 4 -24 -1
-32 -23 -46 -19 -12 -23 -18 -11 -18 9 0 18 6 21 13 2 6 7 9 11 6 4 -3 -1 -16
-11 -28 -13 -15 -25 -19 -40 -15 -13 4 -20 10 -17 15 3 5 -25 9 -63 8 -45 0
-61 -3 -48 -9 18 -7 18 -8 -7 -15 -15 -4 -32 -4 -38 0 -13 8 -2 76 14 88 6 4
52 7 101 6 50 -1 90 2 90 6 0 4 -39 7 -87 6 -71 -2 -88 1 -88 12 0 29 28 40
90 35 33 -2 57 -1 53 3 -5 4 -30 10 -58 12 -39 3 -36 4 15 3 56 -1 65 -4 69
-21z"/>
<path d="M6429 5148 c-36 -41 -42 -84 -19 -166 12 -45 40 -57 58 -26 5 9 15
14 21 10 6 -4 9 -12 6 -17 -4 -5 3 -9 15 -9 12 0 19 4 16 9 -3 5 16 11 42 14
34 4 49 1 55 -9 20 -35 58 0 59 55 1 34 -34 109 -67 145 -21 23 -32 26 -90 26
-62 0 -68 -2 -96 -32z m226 -99 c4 -17 3 -35 -1 -39 -12 -11 -206 -17 -221 -7
-7 5 -13 24 -13 43 l0 34 114 0 114 0 7 -31z"/>
<path d="M6640 4520 c-19 -5 -42 -18 -50 -30 -8 -12 -29 -38 -46 -56 -30 -33
-31 -37 -30 -117 2 -79 35 -230 55 -250 6 -6 33 -12 62 -14 29 -2 60 -8 70
-13 24 -13 79 -13 79 1 0 6 8 8 20 4 10 -3 47 -1 82 5 97 16 109 20 103 30 -3
5 2 36 11 69 17 59 16 62 -5 122 -17 44 -20 64 -12 72 17 17 13 29 -6 23 -14
-4 -28 11 -58 62 -50 83 -83 102 -175 101 -36 -1 -81 -5 -100 -9z m253 -115
c9 -20 17 -40 17 -45 0 -6 -61 -10 -151 -10 l-151 0 7 37 c4 21 9 41 11 45 3
5 60 8 128 8 l122 0 17 -35z m-303 -79 c8 8 27 8 63 1 51 -9 222 -4 264 9 18
5 24 -1 42 -41 23 -51 27 -80 11 -70 -5 3 -10 -1 -10 -9 0 -16 -34 -31 -50
-21 -5 3 -10 1 -10 -4 0 -6 2 -11 4 -11 2 0 11 -3 19 -6 8 -3 24 5 36 17 15
17 21 19 21 8 0 -8 -6 -23 -13 -33 -11 -16 -34 -18 -196 -21 -208 -3 -186 -12
-211 95 -7 30 -16 62 -20 71 -12 23 -2 30 21 16 13 -8 22 -8 29 -1z"/>
<path d="M5605 4487 c-34 -16 -79 -70 -101 -122 -8 -19 -19 -35 -25 -35 -5 0
-7 4 -4 10 3 6 -1 7 -9 4 -18 -7 -22 -24 -6 -24 17 0 11 -22 -17 -62 -34 -50
-35 -106 -2 -173 26 -53 57 -71 66 -37 6 26 17 29 75 22 35 -4 45 -8 39 -18
-5 -9 -15 -10 -32 -4 -26 10 -49 6 -49 -9 0 -5 28 -9 63 -9 44 0 58 3 47 10
-12 8 -9 10 13 10 16 0 26 -4 22 -10 -3 -5 1 -10 9 -10 9 0 16 5 16 10 0 6 8
10 19 10 10 0 24 7 31 15 19 22 39 18 46 -10 4 -17 13 -25 28 -25 34 0 49 16
48 50 0 17 11 52 24 78 21 38 25 58 22 107 -1 33 1 65 5 72 7 11 -17 49 -82
133 -18 23 -26 25 -118 28 -66 1 -108 -2 -128 -11z m215 -93 c6 -14 10 -34 10
-45 0 -18 -8 -19 -150 -19 -90 0 -150 4 -150 10 0 5 8 25 17 45 l17 35 123 0
c123 0 124 0 133 -26z m80 -96 c0 -9 -5 -29 -12 -45 -6 -15 -16 -50 -22 -78
l-11 -50 -193 -3 c-139 -2 -197 0 -208 9 -21 17 -17 76 8 118 41 70 28 66 242
66 177 0 196 -2 196 -17z"/>
<path d="M9615 7961 c30 -12 -44 -21 -118 -15 -98 9 -1097 10 -1097 2 0 -7
105 -13 158 -8 12 1 22 -1 22 -5 0 -15 -274 -290 -286 -287 -12 2 -14 -89 -10
-620 l4 -623 -25 -43 -25 -44 31 -32 c26 -27 31 -40 31 -79 0 -39 -5 -51 -30
-74 -36 -31 -38 -62 -9 -109 16 -26 17 -34 7 -34 -8 0 -25 -11 -38 -25 -12
-13 -38 -29 -56 -35 -19 -7 -34 -17 -35 -23 -1 -7 -2 -30 -3 -52 -3 -65 -23
-95 -63 -95 -84 0 -98 -50 -31 -112 36 -33 41 -41 30 -56 -40 -55 -52 -80 -52
-109 0 -40 23 -64 83 -91 40 -18 44 -22 40 -49 -6 -35 18 -88 45 -102 13 -7
27 -6 46 5 16 8 37 14 48 14 16 0 19 -7 17 -47 -1 -27 -6 -54 -12 -60 -5 -7
-7 -32 -5 -55 4 -39 0 -48 -39 -96 -35 -44 -41 -57 -33 -73 8 -14 6 -25 -5
-43 -9 -14 -15 -35 -13 -48 2 -19 10 -24 41 -26 21 -2 47 -12 57 -22 17 -17
18 -51 13 -771 -2 -415 -4 -856 -4 -981 l-1 -227 -36 -4 -37 -4 38 -1 c53 -3
46 -22 -9 -22 -27 0 -43 -4 -39 -10 3 -5 26 -10 51 -10 28 0 44 -5 45 -12 1
-7 2 -20 3 -28 2 -8 3 -27 4 -42 1 -16 7 -28 13 -28 7 0 10 20 7 58 l-3 57
250 7 c365 11 854 10 1055 -2 175 -10 397 -13 389 -6 -5 5 -163 15 -249 16
-45 1 -59 4 -44 10 11 4 233 10 493 13 260 3 476 8 479 12 4 4 7 12 7 17 0 6
6 13 13 16 7 2 10 -2 6 -12 -5 -12 1 -16 20 -17 14 -1 32 -2 39 -3 6 -1 11 5
9 12 -1 9 6 11 25 6 16 -4 25 -3 21 1 -13 14 21 36 49 31 15 -3 31 0 36 7 7 9
10 9 14 -1 2 -6 9 -9 14 -6 6 3 16 0 24 -6 12 -10 22 -10 45 0 38 16 42 44 4
30 -32 -12 -65 -13 -46 -2 25 17 -21 39 -93 46 -38 3 -79 8 -90 10 -11 3 -26
5 -34 5 -8 1 -12 4 -9 7 4 3 61 6 127 5 69 0 121 4 121 10 0 5 -10 10 -22 10
-13 1 -41 3 -63 5 -22 1 -56 3 -75 4 l-35 2 40 9 c22 5 63 8 90 8 28 -1 68 0
90 1 l40 2 -43 9 c-24 4 -80 7 -124 6 -44 -1 -81 0 -83 4 -3 3 -50 5 -106 4
-64 -2 -97 1 -91 7 5 5 29 9 53 10 24 0 56 7 70 15 20 12 33 13 55 5 29 -10
29 -10 4 -12 l-25 -1 23 -10 c14 -5 39 -5 65 1 23 5 67 10 97 11 30 0 66 5 80
9 26 8 19 11 -35 15 -16 2 -86 8 -154 14 -67 7 -132 9 -142 6 -27 -9 -24 12 5
30 74 48 210 260 256 397 11 31 24 67 29 80 5 12 19 57 31 98 12 41 26 83 31
92 5 10 9 26 9 36 0 10 7 44 15 76 9 33 17 73 20 90 2 17 11 65 20 106 9 41
18 84 20 95 2 11 8 35 14 54 18 58 4 334 -25 486 -5 28 -31 164 -38 200 -3 17
-10 45 -15 63 -5 17 -7 32 -4 32 3 0 -1 8 -9 18 -34 39 -82 136 -69 140 8 3 5
9 -9 19 -11 8 -33 33 -47 56 -42 68 -187 246 -200 246 -7 1 -13 6 -13 12 0 6
7 8 15 5 19 -7 78 43 71 60 -2 6 17 29 44 50 28 23 49 46 47 55 -1 9 6 26 16
37 18 20 18 21 -3 42 l-22 22 22 72 c36 113 47 160 44 184 -5 28 1 28 55 -3
55 -32 65 -32 20 0 -58 42 -61 45 -54 74 4 14 9 52 10 83 4 69 13 147 27 248
24 167 15 336 -22 438 -15 39 -6 54 15 26 14 -18 15 -17 9 11 -11 58 -16 70
-37 93 -11 12 -17 22 -13 22 3 0 0 13 -8 28 -8 16 -16 40 -18 53 -2 13 -6 29
-10 34 -3 6 -9 29 -13 52 -3 23 -13 44 -20 47 -8 3 -19 15 -26 27 -10 19 -9
21 4 16 19 -7 -29 67 -90 140 -27 32 -37 50 -26 46 29 -11 112 -61 183 -110
35 -25 58 -38 51 -29 -17 20 -155 111 -228 151 -29 15 -76 52 -105 82 -55 55
-95 81 -258 166 -62 32 -83 47 -60 42 19 -4 41 -11 50 -16 35 -20 133 -59 138
-55 18 19 -307 130 -438 149 -14 2 -32 6 -40 10 -69 25 -262 63 -368 71 -30 3
-56 7 -60 10 -3 3 -15 6 -26 5 -20 0 -20 -1 -1 -8z m-861 -46 c55 -3 263 -8
461 -11 198 -3 378 -8 400 -9 22 -2 64 -5 93 -6 30 -1 52 -7 52 -13 0 -6 4 -5
9 3 10 16 80 9 91 -9 4 -6 14 -8 23 -4 11 4 17 1 17 -7 0 -11 2 -11 9 -1 6 10
18 9 62 -6 30 -11 63 -20 75 -20 11 0 49 -8 85 -17 229 -59 390 -145 515 -276
65 -69 154 -179 154 -191 0 -3 15 -29 34 -57 42 -62 69 -131 108 -280 21 -81
26 -117 19 -124 -8 -8 -11 -5 -12 11 -1 22 -4 35 -9 50 -4 11 -8 26 -9 40 0 7
-6 10 -13 6 -8 -5 -9 -2 -5 10 4 10 3 15 -3 11 -6 -3 -10 -4 -10 -1 0 2 -3 12
-7 22 -4 12 -3 15 5 10 7 -4 12 -2 12 3 0 13 -10 14 -28 3 -13 -9 -4 -53 19
-96 8 -13 7 -17 -1 -14 -13 4 -63 129 -55 136 2 2 -5 21 -16 40 -10 20 -19 42
-19 49 0 7 -4 13 -9 13 -5 0 -24 14 -43 31 -18 17 -41 38 -50 47 -10 8 -18 20
-18 25 0 6 14 -4 30 -22 17 -17 36 -31 43 -31 6 1 3 9 -9 18 -12 10 -27 28
-33 41 -8 14 -18 20 -28 17 -8 -4 -31 6 -51 23 -21 16 -55 39 -77 51 -22 13
-78 45 -125 72 -102 58 -174 93 -215 102 -16 3 33 -26 110 -66 77 -40 175
-100 217 -132 42 -33 85 -61 94 -62 10 -2 21 -9 25 -16 4 -7 17 -24 29 -38 19
-21 41 -62 44 -80 1 -3 10 -18 22 -35 30 -44 71 -123 89 -175 32 -92 24 -92
-23 0 -26 52 -62 116 -80 142 -17 26 -32 50 -32 55 0 21 -185 185 -275 245
-233 154 -427 229 -650 249 -128 12 -1365 -3 -1387 -17 -4 -3 -19 -2 -33 2
-24 6 -20 12 89 118 63 61 117 121 121 133 9 32 35 55 53 48 8 -3 60 -7 116
-10z m-325 -315 c66 -12 70 -12 51 0 -12 8 -11 10 8 10 12 0 22 -3 22 -7 0 -5
260 -8 577 -8 318 0 623 -3 678 -8 114 -8 213 -26 221 -38 3 -5 16 -9 29 -9
30 0 178 -52 272 -95 155 -71 320 -205 404 -327 21 -31 39 -59 39 -62 0 -3 20
-47 44 -98 48 -101 114 -289 121 -343 2 -19 -1 -37 -7 -41 -7 -4 -6 -9 2 -14
15 -9 21 -107 20 -335 0 -153 -8 -233 -32 -320 -16 -56 -21 -59 -52 -26 l-27
29 27 52 c15 28 29 74 32 100 4 46 3 49 -26 64 -17 9 -42 16 -56 16 -33 0 -42
17 -20 41 14 16 15 25 7 53 -8 26 -7 39 8 67 25 47 24 91 -3 116 -54 49 -123
67 -165 44 -31 -16 -54 -14 -47 4 4 9 0 15 -8 15 -9 0 -27 11 -42 25 -36 33
-49 32 -80 -10 -26 -34 -22 -51 4 -20 14 17 25 12 25 -12 0 -23 20 -27 38 -8
21 21 30 19 22 -5 -9 -28 12 -33 68 -16 31 9 59 11 82 6 36 -8 105 -49 105
-62 0 -4 -9 -24 -20 -44 -12 -20 -18 -44 -15 -53 6 -20 -5 -32 -104 -107 -40
-31 -76 -53 -80 -48 -7 11 -68 54 -75 54 -3 0 17 -22 43 -50 53 -55 62 -60 54
-30 -3 11 -1 20 4 20 5 0 18 8 29 18 33 30 115 84 121 79 2 -3 -5 -11 -17 -17
-12 -6 -29 -19 -38 -28 -10 -9 -33 -29 -52 -44 -19 -15 -32 -29 -29 -32 3 -4
27 11 53 31 46 36 49 36 62 19 7 -11 27 -20 45 -21 73 -6 108 -53 61 -81 -15
-8 -19 -13 -10 -10 20 6 34 -9 18 -19 -5 -3 -10 -16 -10 -28 0 -11 -12 -34
-27 -49 l-27 -28 42 -43 43 -43 -95 -97 c-86 -87 -139 -157 -119 -157 11 0 80
74 128 135 36 45 85 98 85 91 0 -2 -8 -18 -17 -37 -10 -19 -18 -40 -19 -47 -2
-8 -9 -21 -18 -30 -8 -10 -15 -21 -15 -27 -1 -20 -32 -45 -55 -45 -14 0 -28
-4 -31 -10 -3 -5 1 -10 9 -10 9 0 16 -4 16 -9 0 -18 -27 -30 -58 -26 -39 4
-41 -2 -4 -16 l27 -10 -35 -30 c-74 -62 -195 -151 -217 -160 -13 -5 -23 -17
-23 -28 0 -11 -6 -22 -12 -25 -7 -4 -2 -4 11 -2 28 6 78 -24 176 -105 194
-159 313 -338 385 -579 30 -98 60 -232 60 -263 0 -38 -18 -5 -29 55 -15 80
-32 140 -42 152 -5 5 -4 -6 1 -25 5 -19 11 -52 14 -74 2 -22 14 -83 26 -135
33 -140 37 -296 11 -445 -41 -240 -62 -315 -90 -316 -14 0 -14 -1 -1 -7 13 -6
13 -11 -2 -42 -10 -19 -18 -31 -18 -26 0 5 -18 -25 -40 -68 -65 -129 -198
-279 -262 -296 -22 -6 -36 -15 -32 -21 3 -6 13 -8 23 -4 9 3 5 -5 -11 -21 -15
-16 -31 -25 -35 -20 -4 4 -1 11 7 16 8 6 10 10 5 10 -12 0 -51 -26 -75 -50
-20 -20 -119 -60 -230 -94 -279 -84 -562 -109 -1036 -89 -346 14 -662 18 -671
9 -3 -3 29 -6 72 -6 147 0 65 -14 -104 -18 l-169 -3 4 43 c12 132 17 1025 8
1246 -5 102 -3 142 5 142 7 0 11 -23 12 -60 1 -33 2 -72 4 -87 1 -16 3 -76 5
-135 2 -60 7 -108 11 -108 8 0 5 151 -7 358 -4 74 -9 102 -19 102 -17 0 -13
92 4 98 8 3 9 8 2 15 -5 7 -8 86 -7 177 l1 164 37 1 c31 2 36 -1 27 -12 -9
-10 -8 -13 5 -13 9 0 16 5 16 10 0 6 7 10 15 10 9 0 18 7 21 15 8 20 16 19 48
-6 l27 -22 -46 -41 c-41 -36 -46 -44 -40 -69 8 -30 68 -82 84 -73 6 4 6 -6 0
-28 -8 -30 -6 -37 20 -65 16 -17 33 -31 38 -31 17 0 127 60 153 83 57 52 55
52 114 21 l55 -29 26 25 c17 16 24 31 21 44 -3 10 1 25 9 32 19 19 27 17 20
-5 -4 -14 1 -20 17 -25 l23 -6 -24 -19 c-18 -14 -21 -20 -11 -26 9 -5 23 3 41
23 16 18 38 32 48 32 22 0 131 97 131 117 0 7 7 13 15 13 13 0 15 -29 16 -197
0 -109 -1 -241 -3 -293 -1 -52 -2 -135 -1 -185 2 -49 4 -180 5 -290 l3 -200
33 -3 c17 -2 32 -7 32 -12 0 -27 -127 -171 -183 -207 -38 -24 -65 -25 -35 0 8
6 33 44 56 84 23 40 47 75 52 78 6 3 10 11 10 17 0 13 -83 -90 -113 -141 l-21
-34 -13 39 c-8 21 -20 45 -28 53 -12 12 -12 9 -5 -20 4 -19 15 -51 24 -73 10
-21 16 -39 14 -40 -2 -2 -19 -14 -38 -28 -19 -14 -54 -32 -77 -39 -24 -7 -43
-16 -43 -21 0 -10 -2 -11 55 9 74 25 211 101 247 136 106 106 169 217 183 322
3 22 10 67 15 100 49 293 37 540 -36 762 -58 178 -105 231 -292 328 -73 38
-179 124 -154 125 7 0 48 -18 90 -40 42 -22 97 -48 122 -58 25 -11 71 -42 101
-70 63 -57 84 -59 39 -3 -34 41 -36 47 -15 55 11 4 23 -10 43 -51 15 -31 32
-58 39 -60 15 -5 8 21 -41 144 -20 51 -36 99 -36 107 0 7 -9 34 -21 60 -11 25
-18 50 -15 55 3 4 -6 19 -19 32 -72 70 -87 85 -96 102 -17 30 -3 19 74 -55 85
-83 121 -133 111 -149 -4 -8 -3 -9 4 -5 6 4 23 4 37 0 19 -5 25 -13 25 -33 0
-15 7 -36 15 -47 8 -10 15 -26 15 -35 0 -9 17 -42 38 -75 69 -107 57 -101 -25
13 -37 51 -53 64 -53 43 0 -14 47 -88 76 -119 13 -14 24 -29 24 -33 0 -5 14
-23 31 -41 l31 -32 -7 53 -7 52 33 0 33 0 -38 39 -38 39 41 68 c23 37 41 73
41 78 0 6 7 24 15 39 21 40 55 154 55 183 0 27 24 33 34 8 3 -9 6 -34 6 -56 0
-35 2 -39 15 -28 8 7 15 18 15 26 0 7 14 22 30 34 31 22 34 22 24 -4 -3 -9
-10 -13 -15 -10 -5 3 -6 -2 -3 -10 3 -8 -6 -32 -20 -55 -28 -44 -48 -93 -76
-188 -10 -35 -22 -67 -25 -73 -6 -9 -35 -171 -52 -284 -4 -28 -8 -35 -15 -25
-6 9 -7 -22 -2 -86 4 -55 6 -167 6 -250 0 -104 3 -152 11 -158 8 -5 8 -10 2
-13 -20 -8 -4 -317 17 -330 8 -5 9 5 5 29 -3 20 -1 39 4 42 5 4 9 -15 9 -44 0
-30 -5 -51 -12 -54 -10 -4 -10 -8 -2 -14 7 -4 12 -19 13 -33 2 -63 37 -198 78
-304 15 -37 44 -76 57 -76 3 0 15 -8 26 -17 13 -11 40 -17 82 -19 47 -1 76 -8
112 -28 50 -27 96 -34 96 -15 0 6 -9 8 -20 4 -21 -7 -28 10 -7 18 6 3 3 5 -8
4 -23 0 -95 40 -95 54 0 13 5 12 45 -11 20 -11 42 -20 51 -20 8 0 17 -7 20
-15 6 -16 64 -22 64 -6 0 5 -16 19 -35 32 -41 28 -40 44 1 44 44 1 64 -8 34
-15 -17 -4 -1 -9 50 -14 124 -12 148 -16 175 -26 35 -13 40 -13 26 4 -7 8 -24
17 -39 21 -48 13 4 23 86 17 50 -3 72 -1 72 7 0 12 -47 16 -175 13 l-80 -2 33
17 c17 9 32 20 32 25 0 8 -8 5 -77 -30 -39 -19 -53 -10 -28 18 26 29 11 36
-21 11 -27 -22 -54 -28 -54 -12 0 4 10 20 21 35 30 38 18 42 -16 6 -32 -34
-50 -39 -43 -12 7 24 -21 50 -32 31 -5 -7 -7 -16 -4 -20 2 -4 -15 -11 -38 -17
-43 -11 -81 -1 -119 30 -27 23 -85 116 -89 143 -1 3 -10 24 -20 47 -21 46 -26
83 -10 73 14 -9 94 68 133 128 47 71 75 158 88 274 14 115 14 110 -1 238 -16
141 -51 248 -105 319 -33 44 -32 50 13 43 l37 -6 -24 20 -23 19 37 45 c20 25
46 50 58 56 16 9 14 3 -10 -23 -44 -46 -42 -61 2 -18 19 19 35 38 35 43 0 12
31 36 45 36 6 0 2 -6 -9 -14 -10 -7 -15 -19 -11 -24 3 -6 -1 -14 -9 -17 -18
-7 -22 -24 -6 -24 17 0 50 34 39 40 -5 4 6 18 25 31 20 13 36 30 36 37 0 6 2
12 4 12 2 0 12 3 21 7 14 5 16 2 10 -15 -3 -12 -3 -22 0 -22 13 0 54 37 48 44
-3 3 -1 6 5 6 21 0 13 -26 -11 -39 -13 -7 -52 -41 -87 -77 -35 -35 -66 -62
-69 -59 -3 3 21 31 52 62 32 30 55 58 52 61 -3 3 -34 -21 -68 -55 -34 -33 -70
-63 -79 -66 -10 -4 -18 -12 -18 -18 0 -8 5 -7 17 2 15 12 16 12 11 -7 -4 -17
-2 -21 14 -16 10 2 31 16 46 31 15 14 39 36 52 47 14 12 32 30 40 41 8 11 35
33 60 50 25 17 60 48 79 69 73 83 156 168 162 167 3 -1 6 5 6 13 0 24 -13 16
-69 -38 -40 -41 -61 -53 -85 -54 l-32 -1 15 36 c8 19 22 43 31 53 9 10 12 18
7 18 -5 0 -22 -21 -37 -46 -34 -56 -58 -49 -31 9 17 35 17 37 -1 57 -18 20
-18 21 15 55 36 37 34 49 -2 15 -24 -22 -38 -26 -38 -10 0 12 26 39 60 63 13
9 22 19 19 22 -3 2 -21 -9 -40 -25 -19 -16 -40 -29 -46 -30 -7 0 -13 -4 -13
-10 0 -5 -7 -10 -15 -10 -8 0 -15 -4 -15 -10 0 -5 6 -10 14 -10 16 0 28 -24
20 -44 -3 -8 -1 -17 5 -21 21 -12 11 -49 -21 -82 -18 -18 -37 -33 -42 -33 -6
0 -22 -9 -36 -20 -39 -31 -43 -24 -10 22 17 22 28 44 25 46 -5 5 -78 -58 -96
-82 -4 -5 -12 -6 -18 -2 -7 5 -4 17 9 39 18 29 27 67 15 67 -11 0 -47 -37 -66
-67 -12 -19 -29 -33 -40 -33 -24 0 -24 1 1 45 25 45 25 48 -2 40 -15 -4 -19
-3 -10 3 7 5 10 16 6 25 -3 10 0 25 7 34 12 14 12 16 -1 8 -13 -8 -13 -6 -1 8
7 9 16 15 20 12 4 -2 23 9 42 24 42 35 73 45 96 33 10 -5 27 -6 38 -1 11 4 14
8 6 8 -8 1 3 16 25 36 21 19 33 34 25 35 -7 0 -22 11 -33 25 -11 14 -28 25
-39 25 -22 0 -23 3 -8 33 9 20 8 20 -11 -2 -12 -14 -40 -33 -63 -43 -24 -10
-34 -12 -24 -4 21 16 22 36 2 36 -21 0 -19 30 3 31 11 0 12 2 4 6 -7 3 -19 -1
-28 -8 -11 -9 -18 -9 -26 -1 -6 6 -17 8 -24 5 -8 -3 -14 0 -14 6 0 6 -3 10 -7
10 -22 -4 -22 4 1 38 14 20 23 39 20 42 -3 3 -8 1 -12 -4 -4 -6 -22 -23 -40
-40 -31 -28 -34 -29 -47 -12 -7 10 -17 17 -21 16 -21 -4 -25 2 -13 19 13 15
12 16 -4 3 -29 -23 -30 -5 -3 49 36 72 33 74 -13 9 -60 -83 -126 -104 -115
-36 l5 32 -18 -27 c-21 -33 -33 -36 -33 -8 0 25 -20 27 -21 3 0 -10 -6 -2 -13
17 -8 19 -11 50 -8 69 4 24 2 32 -6 27 -7 -4 -12 -33 -12 -69 0 -44 -3 -58
-10 -47 -5 8 -10 33 -10 55 0 30 -3 36 -10 25 -6 -8 -9 -32 -8 -52 1 -21 -1
-41 -5 -44 -4 -4 -7 1 -7 12 0 17 -3 16 -20 -6 -17 -22 -21 -23 -34 -10 -11
12 -13 25 -6 60 5 25 12 53 15 63 4 9 3 17 -3 17 -5 0 -15 -19 -21 -42 -18
-71 -31 -80 -31 -23 0 36 -3 46 -10 35 -5 -8 -10 -25 -10 -37 0 -29 -18 -29
-63 1 -38 26 -97 43 -97 28 0 -5 18 -17 40 -27 72 -32 82 -64 38 -115 -30 -35
-47 -43 -63 -30 -12 10 -15 10 -15 -4 0 -9 -4 -16 -10 -16 -14 0 -30 35 -30
64 0 14 -4 26 -10 26 -5 0 -10 -7 -10 -16 0 -8 -5 -25 -12 -37 -7 -12 -13 -28
-14 -35 -5 -29 -14 -43 -24 -37 -8 5 -8 11 0 19 5 7 12 33 14 57 4 40 3 42
-10 25 -8 -11 -14 -30 -14 -43 0 -14 -6 -23 -15 -23 -8 0 -15 -9 -15 -20 0
-11 -7 -20 -15 -20 -13 0 -15 8 -9 38 l6 37 -26 -27 c-14 -15 -26 -32 -26 -37
0 -20 -47 -23 -74 -5 -15 9 -30 13 -34 9 -4 -4 -1 -10 6 -12 8 -3 22 -18 31
-34 17 -27 17 -33 3 -63 -10 -22 -28 -38 -54 -50 -22 -9 -43 -15 -46 -12 -3 3
3 8 12 12 9 3 16 16 16 27 0 20 0 20 -15 1 -15 -18 -15 -18 -8 0 4 12 3 17 -4
13 -6 -4 -13 -21 -17 -38 -3 -19 -11 -29 -18 -26 -7 2 -12 10 -10 16 1 6 -5
11 -13 11 -8 0 -15 -9 -15 -21 0 -13 -11 -25 -35 -35 -19 -8 -35 -16 -35 -19
0 -9 146 3 173 14 16 6 31 11 35 11 14 0 83 70 78 79 -3 5 1 11 9 15 12 4 11
-3 -5 -32 -39 -71 -62 -107 -71 -110 -5 -2 -7 -7 -4 -11 6 -11 -22 -47 -31
-39 -4 4 -1 16 7 25 11 15 10 15 -9 -1 -12 -11 -25 -16 -29 -12 -5 4 0 12 10
17 9 6 17 18 17 27 -1 12 -11 5 -35 -22 -33 -37 -41 -62 -12 -38 8 7 18 7 27
2 12 -8 11 -14 -8 -39 -12 -17 -22 -35 -22 -40 0 -15 -42 -41 -66 -41 -12 0
-33 9 -48 21 -28 22 -56 20 -56 -4 0 -8 -7 -20 -15 -27 -8 -7 -15 -17 -15 -23
0 -5 9 0 20 13 18 21 22 22 64 10 25 -7 47 -18 50 -26 3 -8 0 -11 -9 -8 -7 3
-21 -7 -31 -25 -10 -17 -23 -31 -29 -31 -13 0 -61 -61 -57 -73 1 -5 -2 -6 -7
-2 -6 3 -27 -27 -47 -67 -20 -40 -39 -68 -41 -61 -2 7 1 22 7 33 27 50 -16 14
-45 -37 -5 -9 -44 13 -48 27 -5 20 59 87 79 82 6 -1 14 7 17 18 3 11 2 18 -2
15 -5 -2 -19 7 -31 20 -13 14 -29 25 -37 25 -7 0 -13 3 -13 6 0 15 112 116
136 123 34 9 42 27 14 34 -15 4 -19 12 -17 34 4 39 28 84 57 109 22 20 23 23
8 38 -10 10 -19 12 -23 6 -3 -5 -1 -10 4 -10 22 0 10 -19 -25 -39 -42 -25 -48
-26 -40 -5 5 14 4 15 -9 4 -12 -10 -15 -10 -15 1 0 9 -3 10 -11 2 -14 -14 -3
-33 18 -33 13 0 15 -10 9 -67 -4 -38 -12 -73 -19 -78 -7 -6 -17 -19 -23 -29
-5 -11 -28 -25 -49 -33 -21 -7 -46 -20 -55 -28 -9 -8 -23 -15 -31 -15 -8 0
-19 -4 -24 -9 -6 -4 -22 -11 -37 -15 l-27 -6 -3 112 c-3 97 -1 116 15 133 10
11 24 29 32 40 19 28 27 15 10 -18 -8 -15 -11 -27 -7 -27 11 0 41 61 46 94 3
16 7 30 10 33 8 8 18 -56 10 -68 -4 -8 -3 -9 5 -5 6 4 19 2 27 -5 10 -8 18 -9
25 -2 7 7 2 22 -15 48 -14 20 -23 42 -20 47 3 5 -2 15 -11 22 -16 11 -16 15 4
47 23 37 26 49 12 49 -5 0 -13 -9 -16 -20 -7 -23 -21 -26 -28 -6 -4 9 21 51
59 101 62 84 89 140 38 80 -14 -16 -37 -42 -50 -57 -13 -14 -24 -29 -24 -33 0
-4 -8 -19 -18 -33 -10 -15 -24 -44 -31 -66 -11 -32 -11 -40 0 -48 11 -8 10 -9
-3 -4 -10 3 -18 1 -18 -5 0 -11 -25 -39 -34 -39 -11 0 -6 19 10 34 8 9 11 16
5 16 -17 0 -13 18 9 48 11 15 30 46 42 69 13 24 40 70 62 103 21 34 36 64 33
67 -3 2 -25 -26 -48 -63 -47 -74 -64 -75 -24 0 30 56 31 62 7 39 -11 -10 -17
-21 -15 -26 2 -4 -5 -20 -17 -37 -14 -20 -19 -37 -14 -54 4 -16 2 -26 -5 -26
-6 0 -11 5 -11 11 0 8 -5 8 -15 -1 -8 -7 -15 -18 -15 -24 0 -6 4 -4 10 4 5 8
12 11 15 8 8 -7 -25 -68 -36 -68 -4 0 -7 29 -6 65 1 46 7 68 18 77 19 15 90
120 85 125 -6 6 -36 -9 -36 -17 0 -15 -54 -99 -64 -100 -5 0 -6 18 -3 40 3 22
2 40 -2 40 -13 0 -14 440 -1 455 8 10 8 19 1 34 -12 21 -15 109 -5 135 8 21
22 20 66 -4 l37 -19 20 26 c27 33 27 8 1 -35 -11 -18 -20 -38 -20 -45 0 -7
-16 -36 -35 -64 -33 -50 -46 -103 -25 -103 6 0 10 10 10 21 0 22 57 124 97
172 13 16 23 38 23 50 0 20 103 167 122 175 13 6 9 22 -6 22 -18 0 -106 -68
-106 -82 0 -7 12 -1 28 13 53 49 66 53 27 9 -58 -64 -95 -100 -95 -93 0 4 -5
2 -12 -5 -14 -14 -64 -16 -72 -3 -7 11 40 55 52 47 6 -3 23 8 39 25 15 17 36
39 46 47 18 17 25 78 7 67 -5 -3 -10 -16 -10 -27 0 -21 -36 -68 -51 -68 -5 0
-6 8 -2 18 5 14 3 13 -10 -3 -16 -20 -16 -20 -30 0 -13 17 -13 22 -1 39 21 30
17 40 -9 23 -13 -8 -39 -19 -59 -25 l-35 -10 1 42 c1 22 5 46 9 53 4 6 1 14
-5 16 -10 4 -9 8 2 16 12 8 12 13 2 23 -6 6 -12 19 -12 27 0 12 3 12 12 3 14
-14 32 -16 24 -3 -10 16 21 32 48 25 32 -8 32 -4 1 42 -14 21 -24 45 -23 53 3
18 77 56 127 66 27 5 38 2 58 -17 24 -23 25 -23 39 -4 10 14 11 22 3 27 -8 5
-8 8 0 13 6 4 11 2 11 -3 0 -6 11 -11 25 -11 22 0 24 3 19 28 -4 19 0 34 11
45 21 21 69 22 89 1 17 -17 36 -11 36 11 0 20 28 45 52 45 13 0 24 -10 31 -30
6 -16 17 -30 23 -30 14 0 26 38 14 45 -8 5 11 79 30 114 15 28 -4 27 -23 -1
l-15 -23 -27 26 c-16 16 -24 32 -20 39 7 12 55 34 68 32 4 -1 7 3 7 8 0 6 -4
10 -10 10 -23 0 -7 20 23 28 23 7 36 5 48 -4 24 -21 52 -18 44 5 -5 15 1 22
29 31 19 6 45 8 57 5 22 -5 28 2 59 67 30 62 39 73 63 76 16 2 27 9 27 18 0
18 58 44 99 44 20 0 30 6 34 20 6 25 58 28 77 5 7 -9 15 -13 18 -10 10 10 -32
45 -55 45 -13 0 -46 -11 -73 -25 -27 -14 -60 -25 -74 -25 -39 0 -101 -59 -136
-127 -30 -61 -31 -62 -65 -56 -30 5 -38 1 -61 -25 -23 -26 -32 -29 -64 -25
-39 6 -80 -10 -80 -30 0 -7 -17 -26 -37 -43 -35 -29 -37 -33 -25 -59 7 -15 26
-32 42 -38 24 -9 29 -16 24 -32 -9 -28 -27 -37 -40 -20 -16 21 -27 19 -59 -15
-22 -23 -32 -27 -46 -20 -31 17 -78 12 -97 -12 -9 -12 -34 -39 -56 -60 -36
-37 -39 -38 -57 -22 -21 19 -39 16 -124 -20 l-60 -25 0 -43 c1 -24 3 -52 5
-63 4 -16 -1 -21 -22 -23 l-28 -3 0 347 c0 190 -5 434 -11 540 -12 204 -8 231
30 219 9 -2 40 -9 70 -15z m-120 -1902 c-3 -291 -3 -293 -57 -381 -25 -39 -51
-47 -72 -22 -10 13 -10 19 4 33 9 10 16 24 16 31 0 7 19 44 41 82 23 38 39 72
36 75 -2 3 -15 -12 -28 -33 -36 -61 -50 -74 -65 -62 -7 6 -18 8 -23 4 -6 -3
-22 2 -36 11 -14 9 -25 13 -25 8 0 -4 -11 3 -25 16 -27 26 -33 67 -11 76 26
10 66 78 60 101 -4 13 -10 20 -15 17 -12 -7 -81 46 -76 60 4 11 58 27 90 27 9
0 17 7 17 15 0 8 3 13 8 13 18 -3 22 2 13 20 -9 16 -8 18 9 14 15 -4 20 0 20
15 0 12 -4 23 -8 26 -4 2 -8 17 -7 33 0 23 5 28 24 28 14 0 27 8 31 19 6 19
45 45 68 46 10 0 13 -55 11 -272z m2432 -235 c13 -16 17 -22 9 -15 -20 17 -35
15 -20 -3 7 -8 18 -15 25 -15 12 0 72 -67 126 -140 60 -81 170 -313 155 -327
-3 -3 -10 5 -15 18 -21 58 -105 216 -127 240 -8 8 -14 19 -14 23 0 11 -58 82
-133 162 -63 66 -68 79 -36 83 3 1 16 -11 30 -26z m-681 -177 c0 -9 -152 -157
-173 -168 -29 -16 -112 -107 -104 -114 3 -3 21 11 41 30 19 20 40 36 46 36 6
0 -17 -27 -51 -61 -41 -40 -58 -63 -50 -68 7 -4 9 -16 5 -27 -6 -18 -6 -18 9
1 10 13 12 22 5 26 -12 8 -2 29 14 29 6 0 20 8 31 18 20 17 20 16 14 -15 -5
-26 -3 -31 8 -26 11 4 13 1 9 -11 -4 -12 -2 -15 9 -10 35 13 -12 -101 -79
-195 -2 -2 -19 13 -39 33 -32 34 -45 73 -28 90 4 3 6 27 6 52 -1 48 20 114 37
114 6 0 10 5 10 11 0 6 -7 9 -15 5 -45 -17 74 112 133 144 20 11 62 40 92 65
50 40 70 52 70 41z m-571 -189 c16 4 28 -2 46 -23 24 -28 24 -37 9 -96 -7 -24
-32 -30 -62 -14 -40 21 -56 55 -42 90 9 25 9 27 -4 17 -12 -10 -16 -8 -21 8
-3 12 -1 27 7 35 11 11 15 11 29 -5 10 -12 23 -16 38 -12z m501 -188 c0 -12
-49 -84 -77 -114 -10 -11 -30 -38 -43 -61 -14 -23 -51 -80 -82 -127 -32 -47
-58 -93 -58 -104 0 -15 -2 -15 -10 -3 -5 8 -10 12 -12 10 -12 -18 -34 -60 -49
-90 -21 -44 -32 -113 -17 -104 6 4 9 1 6 -6 -2 -8 -10 -16 -16 -18 -9 -3 -12
14 -11 57 1 34 5 61 9 61 4 0 7 16 8 35 1 19 -3 35 -9 35 -6 0 -9 -7 -5 -15 7
-19 -3 -45 -16 -45 -6 0 -5 6 2 15 7 8 8 15 3 15 -5 0 -9 12 -7 28 3 36 22 92
23 70 1 -25 15 -22 31 6 7 14 25 30 40 36 39 16 79 61 155 175 86 129 135 181
135 144z m-1190 -45 c0 -8 -12 -26 -27 -39 -32 -26 -113 -170 -92 -163 7 2 23
23 35 45 53 100 115 164 81 84 -7 -17 -17 -28 -22 -24 -4 5 -5 2 -1 -5 8 -13
-42 -108 -51 -98 -3 3 4 21 15 41 12 19 19 35 17 35 -9 0 -56 -82 -51 -88 3
-3 -5 -20 -19 -38 -14 -18 -25 -36 -25 -41 0 -4 -13 -23 -29 -42 -46 -56 -54
-29 -15 50 41 83 39 104 -3 30 -15 -28 -30 -51 -33 -51 -3 0 -6 14 -7 31 -2
22 1 29 11 26 8 -3 22 10 35 31 12 21 44 64 71 97 27 33 60 77 72 97 24 40 38
48 38 22z m1097 -311 c45 -82 83 -234 83 -334 0 -114 -16 -164 -68 -209 -44
-39 -167 -98 -179 -86 -8 8 -10 306 -3 383 3 29 9 53 14 53 4 0 6 7 2 15 -3 8
-1 15 5 15 6 0 9 8 6 18 -8 37 74 217 96 209 6 -2 26 -31 44 -64z"/>
<path d="M9515 7226 c25 -25 29 -36 26 -68 -2 -12 5 -18 18 -18 21 0 26 -4 61
-52 l20 -27 58 25 c31 14 66 34 77 44 33 29 87 44 121 33 34 -11 44 -41 19
-60 -17 -11 -15 -16 25 -60 24 -26 48 -51 53 -54 6 -4 3 -20 -7 -39 -8 -18
-14 -36 -11 -40 2 -4 -4 -15 -15 -25 -11 -10 -20 -23 -20 -28 0 -6 9 -2 19 7
16 15 22 15 40 4 27 -17 35 -41 26 -86 l-6 -37 21 21 c19 18 20 25 10 44 -19
36 -7 47 52 45 40 -1 64 4 97 23 34 19 58 25 108 25 81 0 101 -16 85 -63 -10
-26 -9 -32 6 -37 47 -17 49 -47 5 -64 l-25 -9 34 -32 c30 -29 31 -32 13 -36
-11 -2 -26 -9 -32 -14 -10 -8 -13 -6 -13 6 0 12 -15 4 -53 -26 -30 -24 -62
-48 -73 -54 -10 -7 -16 -15 -12 -19 4 -4 14 -2 23 5 10 8 15 9 15 1 0 -6 -28
-38 -62 -71 -62 -60 -73 -92 -18 -52 16 12 36 19 45 16 8 -4 22 -1 30 6 9 7
15 8 15 2 0 -5 -7 -13 -16 -16 -9 -4 -14 -9 -11 -13 4 -3 13 0 22 7 27 22 28
2 1 -26 -42 -46 -20 -41 30 7 86 81 95 89 103 89 5 0 11 9 14 20 3 11 2 20 -3
20 -8 0 -81 -56 -90 -69 -7 -11 -40 -22 -40 -13 0 4 25 31 56 61 49 47 59 53
75 43 10 -7 27 -12 36 -12 16 1 16 2 -2 12 -38 22 -44 43 -15 51 19 5 29 37
11 37 -16 0 -19 64 -5 92 16 31 10 54 -17 69 -13 7 -19 21 -19 44 0 29 -6 39
-32 55 -52 32 -88 28 -178 -19 -35 -19 -35 -19 -76 5 -42 25 -68 24 -78 -2 -4
-12 -2 -12 15 -4 21 12 59 5 59 -11 0 -10 0 -10 -55 -14 -53 -3 -72 11 -48 38
17 20 17 20 -2 13 -16 -6 -18 -5 -7 5 22 24 13 59 -29 104 -38 41 -40 47 -34
84 6 39 6 40 -34 60 -55 29 -95 27 -115 -4 -9 -14 -22 -25 -28 -25 -6 0 -20
-7 -30 -17 -17 -15 -18 -15 -18 1 0 15 -7 12 -36 -13 l-35 -31 -51 52 c-28 29
-54 64 -58 78 -4 18 -14 26 -33 28 l-27 3 25 -25z"/>
<path d="M9264 6578 c1 -236 -1 -266 -16 -288 -23 -32 -23 -39 2 -33 16 4 20
0 20 -20 0 -28 -30 -87 -44 -87 -5 0 -15 8 -22 18 -9 12 -16 14 -24 6 -12 -11
-4 -44 11 -44 12 0 12 -37 0 -45 -5 -3 -12 -19 -16 -36 -10 -43 -20 -27 -16
25 1 24 -2 47 -8 51 -6 3 -11 -1 -11 -9 0 -22 -32 -89 -50 -103 -23 -19 -30
-15 -25 15 13 82 15 116 5 101 -5 -9 -13 -44 -17 -79 -5 -39 -13 -65 -22 -68
-10 -3 -12 4 -7 29 6 31 5 32 -5 9 -21 -47 -26 -55 -35 -53 -5 2 -9 23 -9 47
0 60 -12 69 -13 10 -1 -53 -11 -68 -35 -58 -12 4 -15 13 -11 30 4 15 2 24 -5
24 -6 0 -11 -7 -11 -16 0 -9 -6 -14 -12 -11 -7 2 -12 10 -11 16 5 21 -22 11
-32 -11 -6 -13 -18 -22 -27 -22 -10 1 -16 -2 -13 -6 3 -4 -6 -15 -18 -23 -20
-13 -24 -13 -24 -1 0 8 5 14 10 14 5 0 7 6 4 14 -3 7 -2 17 3 22 4 5 11 32 14
59 5 36 4 46 -3 35 -6 -8 -11 -22 -11 -30 0 -8 -9 -32 -20 -53 -11 -20 -20
-44 -20 -52 0 -20 -49 -20 -57 1 -3 8 1 33 10 55 19 48 2 53 -19 4 -21 -52
-17 -71 20 -100 31 -24 34 -29 25 -53 -10 -26 -53 -72 -69 -72 -5 0 -15 7 -24
15 -19 19 -26 7 -15 -24 8 -20 14 -22 39 -17 34 6 37 0 15 -31 -15 -21 -16
-21 -56 -5 -36 14 -40 19 -35 41 3 14 9 42 12 61 l5 35 -15 -25 c-8 -14 -15
-37 -16 -52 0 -32 -9 -35 -31 -10 -9 9 -24 22 -34 27 -18 11 -23 49 -11 95 3
14 -3 5 -15 -18 l-21 -44 28 -39 c34 -49 77 -86 124 -107 19 -9 36 -17 38 -18
9 -4 -13 -34 -25 -34 -8 0 -12 -4 -8 -9 3 -5 1 -12 -5 -16 -5 -3 -15 -15 -20
-25 -8 -15 -7 -18 3 -14 8 3 18 -5 24 -17 8 -20 10 -21 16 -5 4 9 3 15 -2 11
-5 -3 -11 1 -14 7 -4 13 39 83 81 130 17 18 22 33 17 47 -4 13 -2 21 5 21 6 0
8 -4 5 -10 -3 -5 -4 -10 -1 -10 3 0 10 10 17 21 9 17 8 20 -2 14 -8 -5 -10 -4
-5 3 4 7 14 12 22 12 11 0 13 6 9 20 -4 12 -2 20 5 20 6 0 8 -5 4 -11 -3 -6 5
-4 18 5 42 27 38 7 -6 -40 -47 -49 -73 -90 -63 -101 4 -3 15 1 25 10 10 10 22
14 26 10 4 -4 4 1 0 11 -5 14 -4 17 4 12 7 -4 12 -1 12 7 0 8 8 21 17 28 15
12 16 12 9 -6 -16 -40 -24 -85 -14 -85 5 0 16 16 24 35 14 34 34 40 34 10 0
-31 24 -25 65 15 49 48 64 46 111 -15 31 -40 44 -44 44 -12 -1 13 -26 49 -60
87 -32 35 -58 66 -56 67 5 6 92 -40 114 -60 12 -11 22 -29 22 -39 0 -29 19
-21 34 15 22 52 55 169 61 212 8 64 20 98 35 103 9 3 11 0 5 -14 -4 -11 -10
-30 -12 -44 l-5 -25 21 25 c11 14 21 30 21 37 0 6 5 15 11 19 8 5 10 -12 7
-60 -2 -36 -1 -66 2 -66 4 0 4 -19 1 -42 -4 -30 -11 -42 -24 -44 -25 -3 -31
-10 -24 -28 4 -9 14 -12 25 -9 27 7 34 -9 33 -73 l0 -54 52 0 c76 0 220 26
269 48 24 11 54 30 68 43 14 13 35 32 47 43 l22 18 -6 -36 c-7 -46 2 -46 22 0
8 20 27 50 41 67 l27 32 -7 -27 c-4 -17 -2 -28 4 -28 5 0 10 7 10 16 0 10 5
14 15 10 12 -4 14 0 10 17 -4 14 1 30 15 44 11 12 20 26 20 30 0 5 16 32 36
61 28 42 31 51 15 43 -11 -7 -26 -21 -32 -32 -6 -11 -13 -18 -17 -15 -8 9 59
76 76 76 9 0 13 -7 9 -20 -3 -11 -1 -20 4 -20 5 0 9 5 9 10 0 6 7 10 15 10 20
0 19 -5 -10 -36 -15 -16 -23 -20 -19 -11 14 38 -14 13 -58 -52 -48 -69 -57
-88 -38 -76 12 7 33 -12 43 -37 9 -25 38 -22 80 6 35 24 69 30 165 27 44 -1
52 -4 52 -20 0 -10 -7 -24 -15 -31 -24 -20 -18 -27 25 -34 28 -4 46 -15 62
-37 13 -17 38 -37 56 -44 37 -16 39 -22 13 -76 -15 -31 -16 -38 -5 -28 13 11
19 9 35 -11 23 -31 23 -36 -1 -62 -11 -12 -20 -27 -20 -32 0 -6 12 2 26 17 25
29 59 31 48 3 -3 -8 -12 -12 -21 -9 -12 5 -13 -1 -8 -29 6 -31 3 -38 -30 -67
-21 -18 -54 -40 -74 -49 -41 -19 -54 -33 -41 -46 17 -17 124 46 189 111 35 35
62 66 59 69 -3 3 -13 -2 -21 -11 -23 -22 -27 -19 -17 15 9 32 27 51 98 101 41
29 58 57 27 45 -8 -3 -15 -1 -15 4 0 17 24 65 47 94 13 15 30 42 39 60 8 17 9
22 2 11 -22 -32 -99 -111 -92 -94 3 11 -3 23 -16 32 -12 8 -17 18 -12 21 16
10 52 76 42 76 -17 0 -100 -114 -89 -121 8 -4 8 -9 1 -13 -6 -3 -13 0 -16 6
-3 10 -9 8 -19 -4 -15 -19 -32 -25 -22 -8 8 13 -1 13 -26 -1 -15 -7 -24 -7
-34 1 -12 10 -10 16 14 36 30 25 47 31 36 14 -3 -5 -2 -10 3 -10 15 0 56 49
59 71 3 21 3 21 -24 4 -16 -10 -49 -35 -74 -57 -30 -24 -53 -36 -63 -32 -14 5
-11 12 14 40 16 19 30 39 30 45 0 16 -38 -9 -51 -34 -6 -12 -13 -23 -14 -25
-4 -4 -95 52 -95 58 0 3 14 20 30 38 17 18 30 35 30 38 0 10 -29 3 -33 -8 -4
-10 -7 -10 -17 -1 -11 10 -8 17 14 38 15 14 29 31 30 38 1 7 5 18 10 25 18 30
-6 21 -57 -21 -31 -25 -54 -47 -52 -49 2 -2 -22 -5 -53 -6 -55 -3 -56 -2 -34
13 12 9 25 14 30 12 4 -3 41 24 82 59 41 35 80 64 87 64 14 0 95 91 88 98 -3
3 -22 -13 -43 -36 -22 -23 -42 -42 -46 -42 -10 0 -39 30 -29 30 4 0 0 5 -11
11 -15 9 -26 4 -64 -32 -70 -67 -122 -123 -122 -131 0 -5 -7 -8 -15 -8 -21 0
-19 14 5 35 12 10 18 25 15 33 -3 8 0 12 7 10 7 -3 29 16 48 41 20 25 49 52
63 60 25 13 37 33 20 30 -27 -4 -42 4 -45 24 -3 20 -5 19 -22 -13 -25 -48 -66
-90 -88 -90 -10 0 -18 5 -18 10 0 6 -6 10 -12 9 -43 -5 -49 12 -18 51 11 14
20 31 20 39 0 8 6 22 13 31 6 9 -3 1 -20 -19 -18 -19 -33 -40 -33 -48 0 -7 -5
-13 -11 -13 -5 0 -7 -6 -3 -12 5 -8 -2 -6 -16 3 -33 21 -36 48 -11 93 11 20
17 36 13 36 -9 0 -72 -72 -72 -82 0 -5 -5 -8 -10 -8 -6 0 -10 39 -10 98 0 128
-1 135 -13 150 -5 6 -7 12 -3 12 3 0 -5 22 -19 50 -38 75 -29 84 10 10 21 -38
35 -78 35 -99 0 -45 12 -32 17 18 3 30 -4 55 -27 101 -17 33 -38 64 -48 67
-20 7 -92 62 -147 113 -52 48 -134 71 -274 76 -58 2 -113 7 -122 9 -15 5 -17
-18 -15 -257z m331 162 c22 -11 67 -43 98 -71 107 -95 145 -227 88 -307 -12
-17 -17 -33 -13 -36 5 -3 17 12 27 34 10 22 22 37 26 34 14 -9 6 -154 -8 -154
-7 0 -13 -7 -13 -15 0 -8 5 -15 11 -15 20 0 6 -113 -18 -146 -22 -31 -38 -35
-226 -60 -26 -3 -58 -15 -71 -25 -34 -27 -46 -24 -46 14 -1 17 -3 102 -6 187
-2 85 -6 243 -7 350 -2 108 -7 201 -11 208 -4 7 -4 17 0 23 10 17 119 3 169
-21z"/>
<path d="M10550 5053 c-22 -8 -101 -66 -96 -70 2 -2 19 5 37 16 34 20 55 24
97 22 31 -1 22 -13 -41 -56 -52 -35 -134 -122 -124 -131 3 -3 44 33 92 80 47
47 93 86 102 86 15 0 15 -2 0 -18 -10 -10 -14 -27 -11 -39 4 -13 -1 -27 -13
-37 -56 -50 -77 -66 -84 -66 -5 0 -9 -6 -9 -13 0 -20 -33 -47 -65 -53 -24 -4
-27 -2 -22 17 4 16 3 19 -6 10 -16 -16 -27 -14 -27 5 0 8 5 12 10 9 6 -3 10
-2 10 3 0 23 -42 20 -63 -4 -20 -23 -44 -34 -32 -14 3 6 0 17 -8 25 -13 12
-16 12 -20 0 -3 -7 -1 -16 6 -18 9 -3 9 -8 0 -18 -10 -10 -13 -10 -13 0 0 7
-5 9 -12 4 -7 -4 -30 -8 -51 -8 -38 -1 -71 -27 -43 -33 18 -4 38 -50 31 -73
-8 -25 -93 -48 -119 -31 -6 3 -18 8 -26 9 -71 14 -76 -4 -11 -36 42 -20 52
-21 72 -10 13 7 36 12 51 10 17 -1 35 6 48 19 19 19 21 29 16 72 -6 45 -5 49
11 45 63 -18 85 -19 97 -1 12 16 14 16 36 -4 13 -12 33 -22 45 -22 40 0 100
37 120 74 11 20 25 36 32 36 6 0 24 10 39 23 20 17 28 34 30 63 1 21 2 42 3
45 1 4 17 14 37 24 36 17 42 41 8 38 -10 -1 -38 5 -62 13 -46 15 -49 15 -72 7z"/>
<path d="M9550 3684 c0 -130 -66 -351 -96 -321 -5 5 -84 -78 -84 -88 0 -9 42
10 53 24 7 9 20 17 29 17 15 1 15 -1 3 -20 -8 -11 -35 -37 -59 -56 -25 -19
-45 -38 -46 -42 -1 -20 39 -4 91 37 32 25 61 45 66 43 16 -4 93 23 93 33 0 5
48 -15 106 -46 100 -52 144 -66 144 -45 0 5 -15 12 -33 15 -17 4 -55 23 -82
43 -28 20 -56 36 -63 37 -8 0 -20 17 -27 38 -16 47 -25 57 -25 29 0 -26 -19
-39 -32 -21 -7 11 -11 11 -15 2 -12 -30 -20 -9 -12 32 10 54 14 280 6 314 -11
43 -17 35 -17 -25z"/>
<path d="M9435 3481 c-63 -91 -123 -140 -243 -199 -66 -32 -148 -68 -181 -78
-60 -19 -87 -43 -33 -29 29 7 205 76 260 102 21 10 47 14 72 10 37 -5 41 -3
46 21 4 15 25 54 48 87 44 64 70 115 58 115 -4 0 -16 -13 -27 -29z"/>
<path d="M15915 2929 c-49 -3 -88 -6 -85 -8 3 -1 59 -4 125 -7 66 -3 122 -8
124 -10 10 -9 -9 -13 -82 -15 -81 -2 -101 -11 -67 -29 11 -6 20 -8 20 -4 0 3
7 1 15 -6 9 -8 64 -14 154 -17 116 -3 141 -1 154 12 20 19 27 19 27 0 0 -12
18 -15 100 -15 84 0 100 3 100 16 0 8 -4 13 -9 10 -4 -3 -22 -1 -40 4 -22 6
-31 5 -31 -3 0 -8 -3 -8 -12 1 -17 17 -62 16 -52 0 5 -9 2 -9 -9 1 -9 7 -17
11 -17 8 0 -3 -16 -1 -35 3 -34 8 -59 -3 -33 -13 25 -10 -125 8 -161 19 -10 3
-11 7 -2 18 9 11 9 15 -1 19 -9 4 -9 6 -1 6 6 1 15 -3 18 -9 3 -5 20 -10 36
-10 18 0 28 4 24 10 -3 6 -17 7 -31 4 -18 -5 -24 -2 -24 9 0 17 -25 18 -205 6z"/>
<path d="M12499 2871 c-2 -5 -43 -11 -91 -14 -48 -2 -90 -6 -93 -9 -3 -2 19
-11 48 -18 61 -14 459 -8 513 9 18 5 36 5 41 0 4 -4 15 -4 23 1 22 14 5 23
-42 23 -24 -1 -50 4 -58 11 -13 9 -13 9 -2 -6 12 -15 4 -16 -110 -13 -68 1
-123 4 -123 5 0 1 -16 3 -35 4 -19 1 -42 6 -51 10 -9 4 -18 3 -20 -3z"/>
</g>
</svg>
