<?xml version="1.0" standalone="no"?>
<!DOCTYPE svg PUBLIC "-//W3C//DTD SVG 20010904//EN"
 "http://www.w3.org/TR/2001/REC-SVG-20010904/DTD/svg10.dtd">
<svg version="1.0" xmlns="http://www.w3.org/2000/svg"
 width="1928.000000pt" height="1074.000000pt" viewBox="0 0 1928.000000 1074.000000"
 preserveAspectRatio="xMidYMid meet">
<metadata>
Created by potrace 1.16, written by Peter Selinger 2001-2019
</metadata>
<g transform="translate(0.000000,1074.000000) scale(0.100000,-0.100000)"
fill="#000000" stroke="none">
<path d="M4771 8020 l-1 -75 -393 0 c-433 0 -860 -9 -657 -13 146 -4 268 -9
500 -23 179 -10 308 -9 438 7 67 7 85 -6 37 -28 -14 -6 -25 -15 -25 -20 0 -4
-5 -8 -11 -8 -7 0 -22 -10 -35 -22 -12 -13 -53 -45 -90 -73 -37 -27 -90 -72
-117 -98 l-49 -49 -170 2 c-165 1 -289 8 -297 16 -2 2 63 5 145 6 82 1 167 3
189 4 22 2 57 3 78 3 20 1 37 5 37 10 0 6 -98 7 -242 4 -198 -4 -245 -8 -255
-20 -13 -17 -49 -13 -45 5 1 9 -23 11 -96 8 -108 -6 -142 -13 -120 -27 9 -6 3
-9 -17 -8 -16 0 -41 -3 -55 -7 -40 -11 -33 -6 180 138 122 83 190 136 190 150
0 14 -121 -55 -215 -122 -100 -72 -217 -150 -257 -172 -50 -27 -57 -39 -20
-32 l32 7 2 -64 c1 -35 3 -224 4 -419 2 -195 6 -460 11 -588 4 -129 5 -236 2
-238 -4 -2 -37 0 -74 5 -59 7 -70 12 -100 44 -19 20 -42 37 -52 37 -9 0 -33
-16 -53 -35 -30 -29 -44 -35 -100 -41 l-65 -6 -3 543 c-3 537 0 655 19 643 5
-3 9 -15 8 -27 -1 -12 -1 -98 1 -192 l4 -170 5 115 c7 137 -4 327 -20 346 -9
11 -8 14 0 14 12 0 10 110 -4 240 -3 30 -3 72 1 93 5 35 8 37 44 37 21 0 42 5
45 11 5 7 -25 9 -97 5 -56 -3 -276 -8 -487 -12 -427 -8 -403 -4 -495 -81 -22
-18 -43 -33 -47 -33 -5 0 -36 -18 -71 -40 -54 -34 -64 -37 -69 -23 -5 14 -9
12 -20 -12 -17 -36 -119 -96 -119 -71 0 9 -4 16 -9 16 -5 0 -12 8 -14 18 -3 9
-5 3 -6 -15 -1 -21 -9 -37 -23 -47 l-22 -16 22 0 c19 0 20 -3 11 -27 -5 -15
-7 -50 -4 -77 10 -81 14 -240 18 -721 3 -374 -3 -700 -11 -647 -1 6 -7 12 -13
12 -6 0 -7 -5 -2 -12 9 -15 10 -35 17 -333 3 -126 8 -243 12 -260 7 -26 7
-916 1 -1265 -1 -63 2 -149 6 -190 15 -141 38 -295 54 -360 30 -120 118 -313
199 -434 19 -28 31 -52 28 -55 -3 -4 -46 37 -96 89 -49 52 -85 85 -79 73 13
-26 274 -301 346 -365 28 -24 80 -63 116 -88 l66 -44 6 -68 c7 -77 3 -95 -21
-101 -10 -3 84 -5 208 -6 133 -1 239 -6 260 -12 44 -14 694 -22 805 -10 l80 8
-110 3 c-60 1 -129 2 -152 2 -24 1 -43 5 -43 9 0 5 -22 9 -49 9 -28 0 -53 5
-57 11 -6 10 18 10 121 -1 6 -1 51 2 102 6 50 4 99 3 110 -1 46 -18 354 -23
407 -5 28 9 41 9 49 1 16 -16 38 -13 61 8 17 16 37 20 111 21 101 2 157 9 151
19 -3 4 -44 6 -93 4 -60 -3 -83 -1 -73 6 8 5 11 14 6 18 -4 4 -16 -3 -27 -16
-11 -13 -23 -20 -27 -16 -4 4 -1 10 6 12 6 3 12 11 12 19 0 8 6 14 13 14 6 0
144 1 306 1 161 0 290 3 287 6 -8 9 -63 13 -159 14 -48 0 -75 4 -71 10 3 6 14
9 24 7 11 -2 18 1 17 6 -1 5 -27 10 -57 10 -47 1 -55 -2 -52 -16 2 -14 -4 -18
-28 -18 -16 0 -30 5 -30 11 0 6 6 9 14 6 17 -7 40 18 31 33 -3 5 -14 10 -23
11 -14 0 -13 2 3 9 30 13 38 12 31 -6 -5 -14 1 -15 48 -10 30 4 67 11 82 16
28 8 27 8 -11 9 -22 1 -51 4 -65 6 -22 5 -22 4 -5 -4 17 -8 18 -10 3 -10 -28
-1 -33 0 -31 9 2 5 -16 11 -40 14 -23 3 -53 7 -67 9 -14 2 56 7 155 11 172 8
332 4 385 -10 l25 -6 -25 18 c-21 16 -47 19 -170 21 -171 4 -212 20 -54 22
111 2 159 10 63 12 -30 0 -67 2 -84 4 -16 2 -84 4 -150 5 -72 0 -129 6 -142
13 -18 10 2 11 105 9 70 -1 157 -5 195 -8 44 -4 67 -2 67 5 0 6 -6 11 -12 12
-7 1 -2 4 12 9 14 4 38 5 54 2 22 -4 28 -2 24 9 -3 10 -35 16 -124 21 -193 12
-455 16 -511 8 -33 -4 -53 -3 -53 3 0 5 46 55 103 111 56 56 147 150 202 209
120 130 113 122 96 112 -9 -5 -12 -3 -9 6 3 8 13 13 23 11 14 -3 16 1 12 18
-3 12 -3 19 0 16 10 -10 33 15 33 37 0 11 9 34 20 52 26 42 99 235 115 305 7
30 25 100 40 155 25 93 33 132 50 260 13 94 12 116 -1 130 -9 8 -10 16 -4 20
9 5 8 38 -5 280 -6 96 -16 1201 -18 1820 -1 393 2 509 11 508 7 -2 12 4 12 13
0 8 -4 13 -9 9 -5 -3 -12 -1 -16 5 -3 5 -1 10 4 10 7 0 9 101 4 323 l-6 324
33 16 c18 10 46 17 62 17 15 0 28 5 28 11 0 11 -45 8 -100 -6 -25 -6 -25 -6
-28 64 -5 107 -20 144 -21 51z m-1783 -112 c-3 -7 -43 -40 -91 -73 -47 -33
-117 -85 -154 -116 l-68 -56 -144 -6 c-79 -3 -146 -8 -149 -12 -14 -14 14 -15
112 -5 102 10 138 7 119 -10 -4 -4 -102 -11 -217 -15 -171 -6 -210 -5 -217 6
-6 10 -9 11 -9 2 0 -7 -7 -13 -16 -13 -8 0 -12 5 -9 10 7 12 19 11 -193 19
l-173 6 78 51 c43 28 105 66 138 84 33 18 76 48 95 65 l35 33 325 5 c312 5
376 9 465 27 61 12 77 11 73 -2z m-12 -155 c-12 -202 -20 -471 -18 -558 1 -49
5 -278 8 -507 6 -363 5 -418 -8 -418 -18 0 -61 44 -51 53 4 4 8 67 10 140 3
158 -8 224 -17 98 -4 -54 -10 -86 -18 -89 -10 -3 -11 -22 -6 -73 6 -62 5 -69
-12 -74 -47 -15 -70 -33 -80 -65 -12 -38 -44 -54 -44 -23 -2 72 1 251 6 438 4
121 4 218 1 215 -3 -3 -8 -86 -11 -185 -3 -99 -8 -196 -11 -215 -4 -31 -5
-160 -1 -249 0 -19 -4 -36 -11 -38 -14 -5 -15 361 -1 389 4 10 4 19 -1 23 -6
3 -8 61 -6 138 2 72 5 227 6 344 1 117 6 210 10 207 5 -3 5 6 0 19 -6 14 -7
27 -5 30 5 5 10 74 13 185 1 59 3 65 39 97 20 19 40 35 44 35 4 0 6 -27 4 -60
-2 -33 0 -62 4 -65 9 -5 8 -23 -1 -40 -8 -14 1 -105 11 -105 13 0 9 264 -4
272 -7 5 -3 13 13 24 39 28 111 104 111 117 0 12 19 37 28 37 2 0 1 -44 -2
-97z m1780 5 c-4 -46 -7 -103 -7 -128 -1 -197 0 -671 1 -1050 3 -678 3 -680
-9 -680 -5 0 -11 8 -14 18 -2 9 -4 1 -4 -18 0 -19 2 -29 4 -22 3 6 9 12 14 12
4 0 5 -7 2 -17 -4 -9 -2 -14 3 -11 11 7 13 -36 14 -253 0 -92 -4 -189 -9 -216
-6 -27 -8 -62 -6 -78 2 -17 7 -102 10 -190 3 -88 8 -172 11 -187 3 -17 1 -28
-5 -28 -14 0 -15 -107 -1 -115 6 -3 10 -16 9 -28 -1 -20 -2 -20 -9 3 -8 25 -8
25 -10 -5 -1 -16 -3 -75 -5 -130 -2 -55 -7 -122 -11 -150 -6 -43 -9 -46 -15
-25 -4 14 -7 46 -8 72 -1 26 -5 49 -10 52 -4 3 -7 -11 -5 -32 1 -20 -2 -42 -7
-48 -6 -8 -6 -14 -1 -18 8 -4 8 -232 1 -386 0 -8 3 -27 7 -43 4 -18 -1 -43
-15 -76 -11 -28 -21 -57 -21 -65 0 -26 -41 -126 -52 -126 -6 0 -8 9 -5 19 4
15 1 18 -12 13 -14 -5 -14 -3 -3 11 8 9 19 15 24 14 11 -2 19 29 18 71 0 13 6
22 15 22 8 0 15 5 15 11 0 5 -4 8 -9 5 -5 -3 -14 1 -20 8 -9 11 -9 16 0 21 6
4 15 2 20 -6 5 -8 7 -2 7 19 -1 21 -4 28 -9 20 -13 -20 -21 -2 -10 21 6 12 15
29 20 39 4 9 5 26 0 37 -6 17 -8 17 -8 3 -1 -10 -4 -17 -9 -15 -4 1 -9 -2 -10
-8 -2 -5 -7 -14 -11 -20 -4 -5 -9 -28 -10 -50 -1 -22 -9 -50 -17 -62 -8 -13
-11 -23 -7 -23 3 0 -4 -11 -16 -24 -16 -17 -21 -31 -17 -48 3 -12 3 -17 0 -10
-3 6 -12 12 -21 12 -12 0 -10 8 8 37 16 25 19 38 11 41 -7 2 -12 8 -12 13 0 4
6 6 14 3 16 -6 24 4 36 46 11 39 -4 39 -20 0 -7 -17 -16 -30 -21 -30 -12 0
-11 8 1 23 48 59 60 77 60 90 0 8 5 17 11 19 5 2 13 23 16 46 4 33 8 40 19 32
10 -9 11 -7 7 9 -3 12 -9 21 -14 21 -5 0 -9 9 -9 20 0 11 4 20 9 20 5 0 12 12
15 26 5 18 2 30 -10 38 -17 13 -17 59 1 100 6 13 5 17 -3 12 -17 -10 -20 2
-27 109 -7 100 -14 134 -16 79 -1 -16 -1 -32 0 -37 0 -4 3 -73 6 -155 5 -154
-1 -252 -17 -252 -5 0 -6 9 -3 20 4 11 2 20 -4 20 -6 0 -11 -15 -12 -32 0 -39
-32 -122 -42 -112 -4 4 -7 0 -7 -8 0 -8 -15 -31 -33 -50 l-33 -35 0 126 c1 69
6 133 11 142 6 9 21 20 34 24 23 7 24 6 17 -33 -3 -23 -11 -53 -18 -69 -15
-37 -20 -139 -6 -125 5 5 10 27 11 49 0 21 2 30 4 21 7 -30 19 -20 32 25 20
68 33 97 42 91 5 -3 10 5 10 18 3 48 0 110 -5 116 -3 3 -6 -20 -6 -51 0 -31
-4 -59 -10 -62 -6 -4 -10 6 -10 24 0 16 -3 37 -7 47 -5 13 -3 15 8 9 12 -7 12
-6 1 7 -9 11 -10 23 -3 41 10 26 -2 48 -13 25 -3 -7 -4 -1 -1 15 3 15 1 27 -5
27 -5 0 -10 -7 -10 -15 0 -8 -4 -15 -10 -15 -5 0 -10 -9 -10 -20 0 -11 -4 -20
-10 -20 -12 0 -12 14 1 65 14 57 20 87 20 107 0 10 4 20 10 23 5 4 9 17 9 30
0 13 11 32 25 43 14 11 25 24 25 30 0 18 29 22 33 4 2 -9 2 -6 0 8 -2 14 -5
39 -6 57 -3 35 -34 76 -50 66 -6 -4 -8 0 -4 10 3 9 2 19 -3 22 -4 3 -7 24 -5
48 2 23 4 50 4 61 1 14 4 16 14 7 11 -8 13 -6 12 9 -1 21 -15 41 -15 22 0 -7
-4 -12 -10 -12 -5 0 -9 12 -8 28 2 28 19 52 37 52 25 0 4 80 -31 117 -11 12
-17 26 -14 31 3 5 -4 35 -15 67 -23 65 -30 99 -34 163 -1 24 -7 48 -13 54 -6
6 -8 16 -6 23 3 7 1 15 -3 18 -5 3 -6 31 -3 62 5 43 3 55 -7 51 -10 -4 -13 18
-14 102 0 59 -2 120 -4 135 -9 68 -17 496 -20 1053 l-4 601 26 12 c32 15 39 8
25 -23 -6 -14 -8 -41 -5 -61 3 -21 1 -46 -6 -59 -7 -13 -11 -34 -9 -47 5 -25
6 -24 24 29 4 9 7 53 8 97 1 55 6 87 17 102 9 13 18 20 22 17 3 -3 12 3 19 15
7 12 18 21 24 21 6 0 17 6 23 14 17 20 -15 30 -37 11 -60 -52 -93 -77 -98 -72
-9 8 119 102 136 99 9 -1 23 9 30 24 19 35 69 76 83 67 7 -3 9 -2 4 2 -6 7 29
55 41 55 3 0 2 -37 -2 -82z m-2727 -149 c110 -1 102 -9 -21 -24 -32 -3 -58 -9
-58 -13 0 -6 122 -6 517 1 l143 2 0 -453 c-1 -249 2 -457 5 -462 3 -6 0 -10
-7 -10 -10 0 -10 -2 1 -9 7 -5 10 -14 6 -21 -9 -14 -8 -183 1 -333 l7 -108
-38 18 -37 18 -30 -34 c-20 -23 -28 -41 -26 -61 3 -29 -16 -49 -96 -103 -29
-19 -44 -24 -57 -17 -31 17 -60 11 -90 -19 -22 -23 -29 -39 -29 -70 0 -33 -8
-50 -49 -98 -71 -85 -112 -120 -148 -128 -32 -6 -63 -41 -63 -71 0 -10 5 -32
11 -49 10 -28 7 -40 -39 -136 -42 -88 -56 -108 -82 -119 -53 -22 -66 -79 -30
-130 20 -28 20 -28 0 -135 -10 -60 -23 -111 -27 -115 -17 -16 -53 -22 -53 -8
3 101 -12 623 -17 631 -5 7 -9 422 -9 922 -1 501 -5 958 -9 1017 -7 107 -7
108 16 118 14 6 63 8 113 5 49 -3 137 -5 195 -6z m1843 -15 c78 -8 81 -24 5
-25 -29 0 -70 -4 -92 -9 -26 -6 -4 -7 65 -2 137 9 468 9 501 0 l26 -8 7 -712
c7 -738 12 -1040 21 -1191 7 -108 0 -109 -66 -14 -38 54 -46 74 -47 114 -1 56
-24 118 -47 127 -9 3 -34 6 -55 6 -33 0 -48 9 -108 63 -94 85 -162 137 -178
137 -7 0 -16 5 -19 10 -4 6 5 10 20 10 18 0 40 -15 71 -46 48 -50 65 -53 40
-7 -38 68 -70 88 -121 74 -30 -8 -44 -5 -115 30 -44 21 -83 46 -87 56 -11 31
-63 92 -83 98 -11 4 -34 -1 -52 -9 -17 -9 -37 -16 -43 -16 -10 0 -14 76 -19
318 -12 647 -24 913 -41 969 -7 22 -7 22 136 26 79 1 160 4 179 5 19 1 65 -1
102 -4z m-436 -1388 c7 -6 15 -42 19 -80 6 -64 6 -68 -11 -62 -19 7 -59 12
-163 21 -35 2 -65 6 -67 7 -1 2 -4 30 -5 63 l-3 60 37 3 c33 3 43 -2 93 -53
41 -41 61 -54 75 -50 10 4 19 11 19 17 0 5 -7 7 -15 4 -11 -4 -32 10 -60 40
-25 25 -45 47 -45 49 0 9 116 -9 126 -19z m-244 -47 c1 -34 -1 -63 -6 -66 -5
-3 -51 -8 -102 -11 -66 -3 -94 -1 -94 7 0 18 -18 13 -23 -6 -3 -11 -5 -7 -6
10 -1 17 -5 26 -12 21 -6 -3 -8 -17 -5 -30 5 -18 2 -24 -9 -24 -9 0 -41 -9
-72 -20 -64 -22 -83 -25 -83 -10 0 6 9 10 20 10 15 0 20 7 20 28 0 30 47 86
82 98 16 5 27 1 40 -16 14 -17 18 -19 18 -6 0 9 2 16 5 16 12 0 51 -26 63 -43
13 -17 18 -14 77 42 35 34 68 61 73 61 6 0 12 -27 14 -61z m349 15 c17 -8 37
-13 45 -10 9 3 14 -1 14 -12 0 -14 2 -14 9 -3 7 11 26 7 100 -24 51 -21 88
-42 84 -46 -4 -4 -55 -17 -113 -29 -58 -12 -108 -24 -111 -26 -4 -2 -20 3 -36
11 -29 14 -30 18 -32 85 -1 38 1 70 4 70 3 0 20 -7 36 -16z m371 -188 c-1 -15
2 -26 9 -26 6 0 8 7 5 16 -5 13 -1 15 21 9 26 -6 157 -109 167 -132 4 -9 -24
-11 -108 -10 -63 1 -112 5 -109 10 2 4 -5 7 -16 7 -14 0 -21 6 -21 18 0 10 -3
22 -7 26 -10 9 -31 145 -24 151 2 3 23 -6 45 -19 33 -20 40 -30 38 -50z
m-1380 33 c-1 -13 -5 -31 -8 -39 -4 -8 -8 -28 -10 -45 -2 -16 -5 -37 -6 -46
-1 -9 -8 -15 -15 -12 -7 3 -13 -2 -13 -10 0 -8 -29 -40 -64 -71 -36 -31 -81
-79 -102 -107 -31 -42 -39 -48 -46 -35 -5 9 -6 47 -3 84 3 37 6 75 6 85 0 14
4 15 21 6 26 -14 113 -3 142 17 20 15 20 15 -9 12 -24 -2 -30 1 -31 17 -2 46
-4 55 -12 55 -4 0 -12 -14 -17 -32 -7 -22 -18 -34 -37 -39 -33 -8 -32 -9 -14
26 17 32 193 168 210 162 6 -2 10 -15 8 -28z m856 9 c29 -6 55 -15 58 -20 3
-5 6 -91 6 -191 0 -134 -4 -192 -15 -222 -8 -22 -29 -78 -46 -125 -50 -130
-163 -491 -157 -498 3 -3 8 -3 10 -1 6 6 88 245 146 426 29 90 56 161 60 158
4 -3 7 -77 6 -165 l-2 -161 -92 -134 c-51 -74 -92 -138 -92 -143 0 -6 -18 -4
-40 4 -21 8 -52 11 -68 8 -27 -6 -29 -4 -45 58 -10 34 -26 92 -36 128 -44 151
-51 180 -61 285 -6 61 -10 220 -8 355 l3 245 55 6 c74 8 253 1 318 -13z m427
-25 c3 -27 10 -64 15 -82 5 -19 8 -37 6 -39 -2 -2 -21 8 -43 21 -36 23 -130
68 -182 88 -34 13 -20 21 67 40 129 27 130 27 137 -28z m-836 -38 c1 -36 -4
-168 -9 -293 -6 -125 -10 -258 -10 -297 1 -38 2 -112 3 -162 1 -51 -1 -93 -4
-93 -3 0 -15 19 -25 42 -10 23 -43 83 -73 133 -29 49 -54 100 -55 112 0 12 -3
20 -5 18 -6 -7 -72 96 -86 134 -7 21 -11 50 -8 64 3 17 1 27 -7 27 -7 0 -9 -8
-5 -20 3 -11 2 -20 -3 -20 -11 0 -22 128 -20 237 2 63 3 70 16 55 12 -16 13
-15 9 4 -3 15 2 25 17 32 82 39 118 53 157 60 25 5 54 14 64 20 37 21 42 14
44 -53z m576 11 c121 -53 246 -119 288 -153 175 -138 280 -261 360 -419 30
-59 97 -248 97 -273 0 -14 -37 -27 -202 -69 -112 -28 -286 -74 -388 -102 -102
-27 -190 -50 -197 -50 -6 0 -13 21 -15 53 -4 64 -7 61 185 192 169 117 427
305 427 312 0 8 -91 -48 -165 -102 -38 -28 -142 -100 -230 -160 -88 -60 -171
-117 -184 -127 -36 -28 -44 -14 -39 77 4 80 5 84 61 167 31 47 76 112 100 144
184 250 217 296 205 292 -16 -5 -228 -282 -300 -390 -28 -43 -54 -78 -58 -78
-9 0 -1 323 9 410 5 36 5 67 2 70 -10 7 -14 233 -4 228 4 -2 26 -12 48 -22z
m-928 -196 c0 -55 -3 -100 -8 -100 -5 0 -9 5 -9 12 0 6 -3 8 -6 5 -4 -4 -1
-13 6 -22 12 -15 36 -382 25 -393 -2 -2 -40 26 -83 64 -43 38 -120 104 -170
147 -51 43 -92 83 -92 87 0 8 50 65 160 181 38 40 147 119 164 119 7 0 12 -36
13 -100z m1456 39 l74 -11 42 -61 c23 -34 57 -82 76 -107 41 -53 89 -140 81
-147 -3 -3 1 -15 9 -27 8 -11 15 -35 15 -53 0 -40 -10 -41 -95 -10 -53 20 -63
27 -87 72 -15 27 -25 51 -23 53 2 2 38 -6 79 -17 87 -24 89 -24 81 -12 -3 5
-31 17 -63 26 -31 9 -64 19 -72 22 -8 3 -20 5 -26 5 -6 -1 -43 36 -83 83 -39
46 -96 106 -126 132 -30 26 -55 50 -55 55 0 11 86 10 173 -3z m-1838 -105 c0
-99 -2 -108 -22 -121 -13 -9 -23 -21 -23 -27 0 -6 -14 -31 -30 -55 -17 -24
-35 -62 -42 -83 -6 -21 -15 -38 -20 -38 -4 0 -8 -7 -8 -15 0 -34 -50 -165 -64
-165 -4 0 -3 -6 3 -14 6 -7 9 -20 6 -28 -4 -9 -14 -55 -24 -104 l-17 -89 -30
41 c-16 23 -36 51 -44 63 -8 11 -18 21 -23 21 -11 0 21 -57 56 -98 30 -36 36
-82 13 -102 -8 -6 -12 -18 -9 -26 3 -8 1 -14 -4 -14 -5 0 -20 -25 -33 -55 -13
-30 -26 -55 -30 -55 -3 0 -14 17 -24 37 -17 37 -17 38 4 55 17 14 19 18 6 18
-9 0 -16 7 -16 15 0 9 6 12 15 9 24 -10 17 14 -9 32 -20 12 -24 23 -22 50 2
19 6 37 10 41 3 3 6 26 6 50 0 28 5 46 14 49 8 3 12 13 9 24 -3 10 0 21 5 24
16 10 43 -5 40 -22 -2 -8 3 -17 10 -19 6 -3 12 0 12 6 0 6 14 26 31 46 35 39
36 34 -29 113 -19 25 -28 43 -22 47 6 3 8 10 5 15 -6 9 35 104 63 148 14 21
16 21 32 7 15 -14 18 -14 23 -1 3 8 22 18 41 21 37 7 76 38 76 60 0 7 -16 35
-36 60 l-35 47 23 27 c46 53 102 111 108 111 3 0 5 -48 5 -106z m129 -231 c45
-43 124 -115 174 -161 82 -74 91 -86 86 -109 -6 -21 -4 -24 7 -18 11 7 12 6 3
-6 -6 -8 -10 -39 -9 -69 3 -68 5 -73 15 -35 l8 30 1 -32 c1 -27 -3 -33 -19
-33 -22 0 -187 63 -365 140 -111 47 -171 66 -115 36 25 -14 328 -144 424 -182
l49 -20 -2 -69 c-1 -39 -4 -72 -6 -74 -3 -2 -107 4 -232 13 -125 9 -254 16
-285 16 -31 0 -59 4 -62 9 -6 10 40 252 56 294 6 15 14 27 19 27 5 0 9 13 9
28 0 16 16 62 37 103 20 41 36 82 35 91 0 10 4 17 11 15 6 -1 20 17 32 40 11
24 26 43 33 43 8 0 51 -35 96 -77z m383 -53 c15 -36 37 -78 49 -95 12 -16 35
-55 50 -85 15 -30 44 -80 65 -112 34 -53 59 -131 46 -145 -7 -6 -119 84 -204
164 l-62 58 -3 162 c-3 156 -2 162 14 140 10 -12 30 -51 45 -87z m1596 -67
c11 -7 8 -53 -8 -113 -18 -68 -19 -78 -2 -60 8 8 22 50 32 93 11 42 23 77 27
77 4 0 7 -60 7 -134 l-1 -135 -34 17 c-21 11 -34 24 -34 38 0 11 -5 25 -12 32
-6 6 -26 51 -44 99 -17 49 -35 96 -39 105 -7 16 -4 17 47 2 29 -9 56 -18 61
-21z m-1607 -218 c15 -20 64 -65 111 -101 87 -68 123 -109 107 -123 -5 -5 -66
16 -136 46 l-128 55 0 79 c0 43 4 79 9 79 6 0 22 -16 37 -35z m709 -47 c-6
-80 -10 -86 -104 -149 -49 -32 -71 -37 -71 -15 0 16 158 236 170 236 5 0 7
-32 5 -72z m857 -39 c15 -70 21 -304 9 -394 -13 -102 -49 -255 -62 -269 -5 -6
-9 -17 -9 -26 0 -9 -27 -68 -61 -130 -97 -181 -175 -277 -314 -385 -88 -69
-253 -161 -265 -148 -4 4 -32 80 -61 168 l-54 160 0 217 c0 120 3 218 6 218 6
0 170 -179 337 -369 56 -64 108 -118 114 -120 20 -7 -63 92 -348 411 -90 100
-102 118 -108 161 -6 38 -4 47 8 47 8 0 17 -4 21 -9 10 -18 480 -331 553 -370
59 -31 5 8 -170 125 -360 238 -437 299 -412 324 6 6 65 -12 154 -49 236 -94
514 -201 525 -201 24 1 -86 48 -445 187 -36 14 -102 41 -148 60 l-83 36 3 41
3 41 70 -3 c39 -1 187 -7 330 -12 143 -5 287 -12 320 -15 43 -3 52 -2 33 4
-33 11 -297 28 -566 37 l-193 7 3 40 c2 26 8 41 18 43 30 4 754 205 759 210
11 11 26 -5 33 -37z m74 33 c33 -22 45 -94 25 -153 -7 -24 -9 -50 -3 -75 4
-22 7 -46 6 -54 0 -8 -2 -33 -2 -55 -2 -36 -3 -38 -18 -23 -9 9 -20 35 -24 57
-6 33 -4 43 9 51 14 8 14 9 1 10 -12 0 -16 15 -18 63 -2 34 -8 84 -13 111 -5
27 -9 55 -9 62 0 15 28 19 46 6z m116 -154 c2 -77 -1 -110 -11 -122 -8 -9 -9
-16 -3 -16 7 0 9 -23 6 -62 -2 -35 -4 -73 -4 -85 0 -13 -5 -23 -11 -23 -6 0
-8 -9 -4 -21 9 -27 -14 -149 -27 -149 -7 0 -8 17 -3 48 4 26 8 63 9 84 0 20 4
40 8 44 4 4 3 12 -2 19 -13 16 -19 253 -7 290 6 17 15 34 21 38 8 6 7 10 -1
14 -7 2 -13 15 -13 28 0 23 19 38 32 26 4 -4 9 -54 10 -113z m-1759 41 c41
-20 165 -71 200 -83 9 -3 17 -13 17 -22 0 -15 -10 -16 -102 -10 -126 9 -147
11 -151 17 -7 7 -17 119 -12 119 3 0 25 -9 48 -21z m487 -84 c35 -22 40 -30
40 -63 0 -51 -49 -112 -91 -112 -16 0 -29 4 -29 9 0 5 -8 7 -18 4 -10 -2 -25
4 -34 14 -44 50 -21 138 42 160 47 16 45 16 90 -12z m-890 -15 c102 -6 209
-13 238 -16 l53 -6 -3 -86 -3 -87 -55 -18 c-51 -17 -96 -29 -372 -103 -73 -19
-111 -25 -118 -18 -22 22 -51 330 -32 348 4 5 30 6 57 3 28 -4 133 -11 235
-17z m578 -46 c32 -4 42 -9 40 -21 -4 -21 -15 -26 -138 -64 -58 -18 -111 -34
-117 -37 -10 -3 -13 13 -13 60 0 36 3 68 7 72 7 7 129 2 221 -10z m530 -50 c8
-2 10 -13 6 -31 -4 -16 -8 -29 -9 -31 -1 -1 -22 9 -46 23 -49 27 -59 30 -59
14 0 -5 24 -21 54 -34 47 -21 75 -49 62 -63 -3 -2 -22 6 -43 19 l-38 23 43
-43 c31 -31 42 -51 42 -73 0 -16 -4 -28 -9 -26 -23 9 -131 148 -131 169 0 61
8 68 64 63 28 -3 57 -7 64 -10z m-1678 -16 c23 -16 31 -32 35 -67 3 -25 10
-79 16 -119 10 -69 9 -75 -10 -93 -14 -14 -21 -32 -21 -58 0 -42 13 -58 56
-70 31 -8 31 -8 74 -117 l33 -81 -22 -22 c-26 -26 -29 -92 -4 -116 12 -13 27
-16 59 -11 41 5 42 5 78 -47 19 -29 49 -71 66 -95 27 -37 29 -44 17 -57 -24
-24 -31 -84 -12 -105 25 -28 90 -36 121 -15 25 16 27 15 77 -22 29 -21 71 -51
93 -66 l42 -28 -20 -40 c-18 -37 -18 -43 -4 -64 22 -34 88 -53 121 -35 14 8
28 24 31 37 7 27 5 26 58 11 67 -19 67 -19 35 -121 -16 -51 -45 -148 -65 -217
-19 -69 -37 -133 -40 -142 -4 -14 -19 -18 -72 -20 -61 -3 -67 -5 -70 -26 -2
-13 -10 -26 -17 -28 -14 -6 -105 56 -138 94 -11 11 -25 18 -31 16 -19 -7 -183
159 -255 259 -125 174 -191 337 -236 585 -36 199 -33 216 10 66 37 -126 106
-297 170 -422 53 -104 224 -374 245 -387 5 -3 -31 56 -81 132 -98 149 -216
379 -274 537 -20 54 -51 160 -71 235 -30 118 -35 158 -41 301 -5 152 3 440 13
440 3 0 18 -10 34 -22z m1182 -43 c-3 -21 -11 -39 -20 -43 -8 -3 -59 -34 -111
-69 l-96 -64 -8 33 c-5 17 -7 42 -4 55 2 13 0 26 -5 29 -6 4 -8 -19 -7 -55 1
-33 -1 -64 -4 -68 -4 -3 -7 23 -7 59 0 44 5 69 14 77 15 12 237 89 247 85 3
-2 3 -19 1 -39z m1452 -35 c9 -22 16 -66 16 -98 0 -56 -1 -59 -50 -107 -27
-27 -52 -46 -55 -43 -6 5 10 84 22 118 4 8 5 19 4 24 -1 5 1 16 5 25 8 16 9
27 12 89 3 45 26 41 46 -8z m-986 -122 l42 -48 -1 -87 0 -88 -34 69 c-19 37
-39 74 -44 80 -20 24 -110 209 -106 217 5 7 39 -27 143 -143z m-1416 34 c35
-52 19 -75 -60 -88 -35 -5 -42 -3 -52 17 -7 12 -15 39 -17 58 -3 20 -10 42
-17 50 -9 11 -8 13 4 9 10 -3 19 6 27 25 l13 29 42 -36 c23 -20 50 -48 60 -64z
m1238 54 c0 -13 25 -98 56 -188 30 -89 80 -237 110 -328 30 -91 77 -228 104
-305 26 -77 62 -185 80 -240 17 -55 46 -140 64 -190 19 -49 46 -124 61 -165
14 -41 42 -112 60 -158 35 -85 34 -99 -10 -90 -16 3 -84 193 -256 718 -39 118
-97 294 -128 390 -32 96 -71 216 -85 265 -52 173 -68 220 -87 258 -22 41 -18
57 12 57 13 0 19 -7 19 -24z m-285 -33 c-7 -47 -34 -90 -97 -158 -53 -57 -150
-178 -158 -199 -6 -13 -9 26 -9 107 -1 72 3 127 8 127 5 0 12 -10 14 -22 4
-16 5 -14 4 6 -2 24 5 35 38 58 47 32 55 34 55 11 0 -10 5 -25 11 -33 8 -11 9
-5 5 25 -5 40 -5 40 57 82 34 23 66 42 71 42 4 1 5 -20 1 -46z m185 40 c0 -5
-12 -51 -26 -103 -13 -52 -31 -126 -39 -164 -8 -38 -28 -110 -45 -160 -75
-230 -90 -282 -90 -306 0 -15 -3 -30 -7 -34 -4 -4 -9 -19 -11 -34 -2 -15 -7
-31 -13 -37 -5 -5 -9 -17 -9 -27 0 -10 -4 -18 -8 -18 -5 0 -9 -14 -10 -31 0
-17 -8 -39 -16 -48 -9 -9 -18 -35 -21 -57 -10 -86 -17 -120 -26 -139 -15 -33
-119 -455 -119 -486 0 -28 -2 -29 -50 -29 -27 0 -50 2 -50 3 0 2 6 17 14 33 8
16 28 74 45 129 28 95 44 143 131 400 53 157 107 340 141 476 4 19 22 73 38
120 28 80 51 156 57 189 25 130 86 330 102 330 6 0 12 -3 12 -7z m-512 -89
l-3 -87 -108 -66 c-59 -36 -150 -92 -201 -123 -51 -32 -99 -58 -108 -58 -32 0
-135 258 -112 279 5 5 32 13 59 18 61 13 343 87 405 107 74 23 71 26 68 -70z
m594 -101 c21 -65 38 -122 38 -127 0 -5 29 -93 65 -196 82 -237 84 -244 54
-261 -33 -18 -167 -22 -191 -5 -18 13 -19 31 -19 335 0 176 1 335 1 353 0 47
9 30 52 -99z m-267 10 c-2 -61 -8 -80 -64 -189 -33 -67 -61 -129 -61 -137 0
-22 -19 -31 -26 -13 -3 9 3 35 14 58 11 24 23 56 27 72 4 21 9 26 15 17 6 -11
9 -9 13 5 12 41 28 146 23 152 -3 3 -6 -2 -6 -11 0 -9 -4 -17 -9 -17 -5 0 -9
-14 -9 -30 1 -31 -19 -80 -33 -80 -4 0 -9 8 -11 18 -2 9 -4 -7 -5 -36 -1 -52
-21 -99 -25 -56 -9 112 -13 100 75 211 45 56 82 103 83 103 0 0 0 -30 -1 -67z
m193 -429 l-3 -147 -32 27 c-18 15 -44 51 -58 81 l-27 53 26 94 c14 51 38 134
52 183 14 50 29 104 33 120 7 36 13 -206 9 -411z m1272 401 c0 -20 -4 -41 -10
-48 -67 -83 -71 -91 -25 -61 14 9 25 25 25 36 0 10 5 16 10 13 7 -4 7 -12 0
-25 -5 -10 -10 -29 -10 -42 0 -28 -42 -148 -52 -148 -10 0 -7 63 4 76 5 8 1
13 -13 17 -15 4 -20 12 -17 30 1 14 -5 34 -15 45 -24 26 -14 63 21 84 15 9 36
26 46 37 27 30 36 26 36 -14z m-1784 -72 c-3 -42 -6 -105 -6 -139 0 -62 -1
-65 -53 -126 -82 -98 -120 -149 -115 -153 4 -5 66 65 127 143 18 23 36 42 40
42 3 0 8 -33 9 -72 5 -117 37 -253 72 -305 17 -25 29 -47 27 -49 -8 -8 -166
102 -237 165 -97 86 -107 98 -191 214 -38 53 -72 97 -75 97 -8 0 89 -148 148
-224 21 -29 21 -29 0 -17 -33 18 -182 222 -182 250 0 6 7 11 15 11 8 0 15 4
15 9 0 5 10 11 23 15 13 3 63 31 112 62 158 100 250 154 264 154 11 0 13 -15
7 -77z m325 -41 c-6 -2 -11 -24 -11 -49 0 -82 -88 -405 -107 -393 -13 8 -7 65
9 102 20 44 30 98 18 98 -10 0 -14 -14 -11 -37 1 -6 -3 -14 -9 -18 -16 -10
-12 49 6 97 49 129 108 245 113 221 2 -10 -2 -19 -8 -21z m-969 -25 c38 -10
153 -91 153 -108 0 -8 4 -17 10 -21 19 -14 -2 -17 -40 -7 -21 6 -57 9 -81 7
-23 -1 -40 0 -38 3 2 3 -6 23 -16 45 -11 21 -20 45 -20 54 0 8 -7 24 -15 34
-21 28 -18 45 3 20 10 -11 30 -24 44 -27z m2308 2 c0 -11 8 -36 19 -57 25 -51
21 -116 -11 -179 -34 -65 -109 -171 -142 -202 l-26 -24 0 35 c0 32 5 39 46 63
53 31 53 43 -1 21 -21 -9 -39 -16 -40 -16 -2 0 -5 24 -7 53 -5 71 25 100 102
99 3 0 16 -3 29 -7 15 -5 21 -4 17 3 -3 6 3 13 14 17 11 3 20 11 20 16 0 6 -9
7 -22 2 -13 -4 -44 -6 -70 -5 -28 2 -48 -2 -48 -8 0 -5 -4 -10 -8 -10 -5 0 18
52 50 115 55 107 78 132 78 84z m-2182 -160 c52 -13 84 -38 132 -106 l33 -46
-49 7 c-126 17 -137 23 -174 84 -19 31 -36 60 -38 64 -5 12 42 10 96 -3z
m2006 -146 c-9 -59 -11 -63 -43 -63 -16 0 -33 -4 -36 -10 -4 -6 6 -7 26 -3 40
8 59 -14 59 -67 0 -27 -7 -43 -28 -63 -15 -15 -33 -27 -38 -27 -6 0 -17 19
-24 43 -18 61 -18 60 -8 81 7 13 6 21 -3 27 -10 6 -10 9 -2 9 7 0 28 25 48 55
21 30 41 55 45 55 5 0 6 -17 4 -37z m-1093 -40 c2 -22 4 -27 27 -70 12 -23 22
-58 22 -78 0 -42 17 -47 22 -5 2 22 6 27 17 21 14 -9 12 -19 -11 -56 -30 -45
-54 -60 -43 -25 8 25 -6 26 -27 1 -14 -17 -14 -19 3 -32 20 -14 26 -39 9 -39
-5 0 -12 -11 -16 -25 -7 -29 -5 -29 -51 -10 -29 12 -33 18 -23 30 10 12 15 11
33 -6 20 -19 22 -19 34 -3 16 21 17 34 3 34 -5 0 -10 -4 -10 -10 0 -5 -7 -10
-15 -10 -18 0 -20 16 -2 24 6 4 2 4 -11 2 -22 -4 -23 -4 -8 19 18 27 21 45 7
45 -5 0 -15 -13 -22 -29 -7 -16 -17 -27 -22 -24 -4 3 -8 -1 -6 -8 1 -8 1 -22
0 -33 -1 -15 -4 -16 -15 -7 -12 10 -9 24 15 89 16 42 37 117 46 165 15 77 19
86 30 71 7 -10 14 -24 14 -31z m-756 17 c22 -8 39 -68 51 -178 8 -72 20 -83
73 -71 20 5 51 9 69 9 28 0 35 -5 47 -34 8 -19 17 -52 21 -75 l7 -41 -30 15
c-16 8 -38 24 -48 35 -20 22 -41 28 -29 8 4 -7 -8 -1 -27 12 -44 32 -143 131
-166 167 -10 15 -26 34 -36 41 -30 23 -97 113 -91 123 6 10 125 1 159 -11z
m2124 -72 c-1 -29 -6 -64 -10 -78 -4 -14 -17 -63 -30 -110 -12 -47 -25 -89
-29 -95 -4 -5 -22 -48 -39 -95 -62 -163 -144 -292 -257 -402 -61 -59 -173
-145 -178 -136 -2 4 -22 57 -67 183 -97 265 -102 285 -75 285 8 0 16 6 19 13
2 7 8 8 13 3 5 -5 4 -11 -3 -13 -7 -3 -13 -11 -13 -19 0 -11 4 -12 19 -3 10 7
18 19 17 27 -2 31 23 21 34 -14 14 -41 0 -60 -31 -43 -26 14 -31 11 -27 -13 2
-18 11 -24 34 -26 40 -4 63 18 57 52 -3 16 -1 26 6 26 22 0 11 40 -14 50 -29
11 -32 25 -7 34 9 3 31 14 47 23 17 10 56 33 87 51 l57 33 29 -21 c42 -31 102
-25 120 12 10 21 10 33 2 48 -8 16 -8 20 2 18 7 -2 13 4 13 12 0 8 -10 16 -22
18 -13 2 -23 6 -23 10 0 12 32 56 95 130 59 70 61 72 107 72 26 0 50 5 53 10
13 20 16 9 14 -42z m-1976 -37 c45 -43 93 -84 105 -90 13 -7 21 -15 18 -18 -7
-7 198 -103 219 -103 8 0 15 -8 15 -18 0 -21 -36 -122 -48 -134 -9 -9 -125 36
-130 52 -3 7 10 32 28 56 17 24 30 50 27 57 -2 6 -18 -11 -36 -40 -41 -66 -78
-82 -66 -29 3 12 -4 53 -14 91 l-19 70 -53 -4 c-121 -10 -110 -17 -129 79 -8
47 -19 91 -23 98 -5 7 -2 12 8 12 8 0 52 -35 98 -79z m1589 26 c-12 -14 -9
-48 8 -92 18 -47 16 -48 -78 -41 -103 8 -115 1 -126 -74 -4 -24 -13 -51 -21
-60 -9 -10 -11 -21 -5 -30 13 -21 22 -7 40 68 l16 67 85 1 c46 1 93 5 104 9
11 4 -4 -16 -33 -44 -54 -52 -214 -147 -231 -137 -5 3 -11 0 -14 -7 -8 -19
-76 -52 -87 -41 -15 15 -25 68 -11 60 6 -4 11 -4 10 1 -3 18 2 32 22 57 18 22
23 24 42 15 22 -12 22 -12 3 10 l-19 21 -29 -27 c-15 -15 -28 -35 -28 -45 0
-10 -4 -18 -9 -18 -10 0 -34 60 -27 67 2 3 28 14 58 26 69 29 154 85 247 164
68 57 110 83 83 50z m-505 -314 c7 -16 19 -49 27 -75 18 -61 8 -62 -78 -8 -82
52 -109 52 -31 0 33 -22 65 -42 70 -44 25 -9 -19 -29 -91 -42 -76 -13 -264
-20 -264 -9 0 6 104 104 142 134 14 12 31 21 37 21 6 0 11 4 11 9 0 5 28 12
63 16 34 4 69 11 77 16 22 12 24 12 37 -18z m-540 -18 c42 -18 154 -20 237 -4
32 6 61 7 64 4 7 -7 -127 -134 -142 -135 -4 0 -42 23 -83 50 -41 28 -79 50
-85 50 -13 0 43 -45 105 -84 82 -52 66 -54 -118 -19 -44 8 -83 18 -87 22 -4 4
-4 20 2 36 5 17 12 42 15 58 6 31 20 34 49 10 12 -10 15 -11 9 -3 -13 14 -17
30 -8 30 3 0 22 -7 42 -15z m604 -166 c5 -8 35 -97 68 -199 33 -102 62 -192
65 -200 5 -13 -52 -15 -484 -15 -269 0 -490 2 -490 5 0 3 8 37 18 75 10 39 34
130 52 203 33 127 44 148 68 120 6 -7 31 -22 56 -33 47 -20 52 -31 24 -48 -11
-7 -26 -6 -47 3 -25 10 -30 17 -25 33 4 14 2 18 -7 15 -8 -3 -15 -16 -17 -30
-5 -45 61 -82 113 -62 24 10 45 56 34 76 -5 9 -6 19 -1 22 4 2 68 2 140 -1
106 -5 132 -9 128 -20 -9 -23 16 -61 52 -79 44 -21 91 -9 111 28 14 25 14 28
-9 48 -24 21 -24 21 -3 17 15 -3 23 1 26 13 3 11 23 24 53 33 56 17 65 16 75
-4z m44 -456 c132 -3 231 -9 220 -11 -11 -2 -24 -7 -30 -11 -24 -18 -177 -71
-255 -90 -47 -11 -144 -28 -217 -37 -102 -14 -130 -21 -122 -30 8 -10 -7 -11
-68 -8 -371 19 -560 49 -537 85 3 5 -1 6 -9 3 -8 -3 -45 9 -81 26 -73 35 -85
61 -31 70 49 9 872 11 1130 3z m366 -20 c0 -10 1 -49 2 -87 l2 -69 -197 -1
c-108 -1 -194 2 -192 5 6 11 65 20 164 25 119 6 160 12 160 24 0 6 6 10 14 10
8 0 18 4 21 10 4 6 -27 8 -86 5 -50 -2 -88 -1 -85 2 8 8 179 92 189 92 4 1 7
-7 8 -16z"/>
<path d="M3189 5918 c0 -62 -2 -129 -3 -148 -11 -162 -19 -409 -18 -579 1
-182 4 -224 16 -210 2 2 6 175 10 384 4 209 9 444 13 523 4 102 2 142 -6 142
-7 0 -11 -36 -12 -112z"/>
<path d="M14556 8018 c4 -7 16 -25 26 -40 21 -30 23 -50 6 -47 -34 4 -49 -4
-18 -10 22 -4 34 -12 32 -20 -2 -7 -4 -253 -7 -545 -2 -292 -6 -576 -9 -631
-3 -55 -6 -172 -6 -260 0 -88 0 -551 0 -1030 -1 -478 -1 -877 -1 -885 0 -8 1
-80 4 -160 3 -85 0 -153 -5 -164 -6 -10 -6 -21 -2 -25 5 -3 11 -241 12 -528 4
-499 3 -521 -15 -525 -10 -3 -26 2 -35 10 -16 13 -18 13 -18 -1 0 -9 5 -19 10
-22 6 -3 10 -15 10 -26 0 -10 5 -19 11 -19 6 0 8 9 4 22 -6 17 -4 20 10 15 9
-4 21 -7 26 -7 5 0 9 -9 9 -21 0 -11 4 -18 9 -14 5 3 12 1 16 -5 6 -10 -11
-14 -57 -11 -16 0 -28 -3 -28 -8 0 -15 31 -21 52 -10 18 9 19 8 13 -10 -5 -15
-2 -21 9 -21 22 0 147 -122 193 -189 36 -51 38 -60 41 -143 4 -95 17 -112 21
-26 2 64 19 131 30 124 5 -3 67 -6 139 -7 102 -1 132 -4 136 -15 3 -7 11 -12
18 -9 7 3 108 10 223 16 116 6 243 13 283 16 l72 5 0 -81 c0 -54 4 -81 11 -81
8 0 10 25 7 81 l-5 81 161 -4 c148 -4 156 -3 101 9 -33 7 -80 12 -105 13 -63
0 -87 9 -93 31 -7 25 -27 24 -27 -1 0 -14 -7 -20 -22 -20 -17 0 -19 3 -10 12
7 7 12 42 12 85 0 63 2 73 18 73 9 0 67 -5 127 -10 181 -16 199 -17 220 -9 13
5 -4 8 -46 8 -36 1 -88 8 -115 16 -27 8 -84 15 -127 15 -76 0 -78 1 -75 23 2
14 9 20 18 18 8 -2 57 -6 109 -9 85 -4 92 -6 70 -18 -22 -12 -19 -13 39 -14
43 0 61 3 56 11 -3 6 -15 9 -25 6 -11 -3 -17 -1 -14 4 8 13 55 7 55 -7 0 -7 6
-14 13 -17 14 -5 80 -1 117 9 18 4 21 3 11 -4 -10 -7 15 -12 80 -15 52 -3 113
-7 136 -9 33 -3 39 -1 31 10 -6 7 -8 15 -6 18 3 3 30 -18 59 -47 30 -28 73
-67 97 -87 24 -19 48 -44 53 -55 10 -18 7 -19 -43 -17 -29 1 -55 2 -58 1 -3
-2 -49 -3 -102 -4 -54 -1 -98 -5 -98 -9 0 -7 144 -12 282 -9 l57 1 46 -88 c25
-49 52 -97 60 -108 14 -18 15 -17 6 8 -6 14 -24 54 -40 87 -17 33 -31 65 -31
71 0 26 33 5 72 -45 23 -30 47 -55 52 -55 8 0 4 7 -43 71 l-25 32 124 -6 c68
-4 181 -7 252 -7 l128 0 0 -66 c0 -41 4 -63 10 -59 6 3 10 35 10 71 0 64 0 64
25 58 14 -3 42 1 65 10 22 9 67 16 100 16 l60 0 1 -102 c0 -57 4 -112 9 -123
6 -13 9 19 9 90 1 61 5 116 10 123 6 10 41 14 130 14 153 2 149 22 -5 25 -59
1 -109 4 -111 7 -3 3 -5 20 -5 38 7 459 7 778 1 758 -7 -26 -9 -23 -15 25 -2
21 0 25 6 15 5 -8 12 -12 15 -8 9 9 -6 99 -15 93 -11 -7 -24 211 -16 281 10
91 11 338 1 353 -6 10 -4 12 6 6 11 -7 11 -5 -1 10 -13 15 -15 86 -17 474 -3
528 -9 671 -27 645 -7 -9 -21 -15 -31 -13 -17 4 -19 13 -18 89 1 47 2 89 2 94
1 4 12 5 26 2 27 -7 36 11 10 20 -8 4 -15 14 -15 23 0 14 2 14 10 1 13 -21 19
-9 21 43 4 88 13 37 16 -86 2 -67 7 -167 12 -222 5 -55 10 -314 11 -575 1
-261 3 -477 6 -479 16 -16 19 66 22 522 2 400 0 526 -11 577 -9 48 -11 97 -5
185 8 128 3 514 -9 605 -8 63 -7 83 3 125 4 17 6 293 6 613 -1 476 1 583 12
579 7 -3 19 -1 27 4 12 7 12 9 -1 9 -9 0 -33 15 -54 33 -54 46 -154 134 -201
176 -22 20 -56 47 -75 60 -19 14 -47 35 -62 49 -31 28 -59 21 -33 -8 9 -10 14
-24 10 -29 -3 -6 0 -11 7 -11 7 0 36 -22 65 -48 28 -26 78 -68 110 -94 32 -25
68 -55 81 -66 13 -12 29 -19 36 -16 7 3 19 -3 27 -12 12 -15 12 -16 -6 -11
-48 14 -403 18 -665 7 l-285 -11 -35 43 c-41 51 -165 173 -197 195 -13 8 -23
19 -23 23 0 5 168 6 374 3 277 -4 387 -2 425 7 28 6 51 16 51 21 0 5 -29 9
-64 9 -36 0 -67 4 -70 8 -6 11 -612 -3 -756 -17 -3 -1 -6 -20 -6 -43 0 -24 -4
-88 -9 -143 -9 -103 -10 -144 -7 -834 1 -222 0 -406 -2 -408 -2 -3 0 -18 4
-34 5 -16 5 -31 0 -34 -5 -3 -11 3 -13 12 -3 10 -6 -7 -7 -37 -2 -63 -1 -64
-54 80 -19 52 -55 142 -80 200 -24 58 -59 150 -77 205 -17 55 -62 172 -99 260
-37 88 -86 210 -110 270 -23 61 -52 129 -65 152 -13 24 -20 45 -15 48 5 3 11
1 15 -5 7 -12 25 -13 25 -2 0 5 -17 17 -37 28 -21 11 -53 40 -71 64 -18 25
-40 53 -48 63 -9 11 -13 21 -11 23 2 3 27 -21 56 -51 28 -31 51 -52 51 -47 0
16 -101 122 -116 122 -13 0 -90 86 -88 98 1 4 -14 20 -32 35 l-34 29 7 -33 6
-32 -94 6 c-52 4 -245 9 -429 13 l-335 6 -27 31 c-31 35 -37 30 -12 -8 9 -14
14 -25 11 -25 -11 0 -67 65 -67 78 0 6 -5 12 -11 12 -5 0 -7 -6 -3 -12z m852
-122 c64 -3 112 0 112 5 0 21 18 7 30 -23 8 -18 39 -60 69 -93 108 -117 129
-145 112 -145 -9 -1 -167 0 -351 2 -184 1 -371 2 -416 3 -51 0 -87 5 -97 13
-8 7 -43 54 -78 104 -34 51 -70 101 -80 112 -11 11 -19 23 -19 27 0 7 473 4
718 -5z m1084 -165 c66 -66 118 -124 114 -129 -3 -6 -2 -13 4 -17 5 -3 7 -17
4 -31 -6 -24 -9 -75 -13 -186 -1 -37 -4 -46 -15 -42 -10 4 -16 30 -21 82 -3
42 -12 88 -19 102 -8 15 -10 35 -6 50 7 23 7 23 12 -10 l5 -35 1 38 c1 21 -3
37 -9 37 -7 0 -9 9 -5 24 3 15 0 28 -8 35 -12 10 -14 0 -15 -64 -1 -58 3 -77
14 -81 8 -4 15 -10 15 -16 0 -5 -4 -6 -10 -3 -5 3 -10 -3 -10 -15 0 -12 4 -19
9 -15 6 3 10 -63 10 -171 0 -97 3 -179 6 -182 3 -3 5 38 5 91 0 106 5 128 26
120 11 -4 14 -40 14 -193 0 -104 -4 -191 -9 -194 -5 -4 -4 -18 4 -34 8 -16 12
-52 11 -87 -2 -33 -4 -109 -5 -170 -1 -103 -11 -149 -27 -133 -4 4 -8 33 -9
65 -4 102 -8 110 -15 28 -3 -44 -10 -89 -15 -99 -7 -17 -5 -18 17 -13 42 11
52 -12 45 -101 -7 -85 -21 -138 -31 -112 -3 8 -10 31 -15 50 -9 30 -10 27 -5
-24 3 -33 8 -65 11 -73 8 -20 -14 -16 -22 5 -4 9 -11 51 -16 92 -9 89 -13 107
-22 116 -12 12 -8 26 5 18 8 -5 9 0 4 17 -4 13 -10 36 -13 51 -3 16 -10 25
-18 22 -9 -4 -11 -14 -5 -37 5 -18 11 -57 15 -87 6 -51 6 -54 -9 -35 -15 19
-15 18 -11 -15 l5 -35 -10 30 c-8 25 -14 116 -10 175 3 52 -15 219 -25 228
-11 11 -24 -22 -18 -47 4 -15 2 -22 -4 -18 -14 8 -26 110 -27 229 -1 59 2 94
8 91 6 -4 6 1 2 13 -4 10 -9 176 -11 369 -3 192 -7 371 -11 398 -3 26 -3 47 1
47 3 0 61 -54 127 -119z m-1806 13 c21 -30 51 -71 67 -91 25 -34 27 -42 28
-147 1 -61 2 -156 3 -210 0 -59 5 -101 11 -103 7 -2 11 64 10 202 0 113 3 205
8 205 12 0 -41 81 -82 125 -78 85 -60 76 34 -17 77 -75 96 -100 91 -115 -4
-10 -9 -801 -12 -1757 -2 -956 -7 -1769 -10 -1805 -4 -36 -6 -79 -5 -96 0 -16
-5 -32 -11 -36 -6 -4 -8 -15 -3 -25 10 -26 12 -73 4 -111 -4 -18 -3 -33 2 -33
5 0 9 -5 9 -11 0 -5 -5 -7 -11 -3 -8 5 -10 -1 -7 -20 3 -14 1 -26 -3 -26 -5 0
-8 28 -7 63 1 79 -9 127 -28 127 -11 0 -13 -6 -9 -21 4 -12 6 -67 5 -123 -1
-56 -2 -174 -2 -263 0 -90 -3 -163 -7 -163 -4 0 -7 21 -8 48 -3 171 -12 529
-14 537 -1 6 -5 -8 -9 -30 l-7 -40 -2 37 c-1 37 15 60 28 39 5 -7 11 -3 18 11
21 44 22 56 5 54 -22 -1 -26 28 -12 80 12 41 14 43 27 27 13 -17 14 -17 9 -1
-3 10 -2 19 2 22 5 3 5 37 1 77 -3 40 -2 88 3 106 7 26 6 37 -6 49 -9 8 -16
22 -16 30 0 8 -5 14 -11 14 -7 0 -9 -9 -5 -24 3 -13 2 -26 -4 -28 -5 -2 -10
-48 -11 -105 0 -57 -4 -105 -7 -107 -4 -2 -7 -34 -7 -70 1 -45 -2 -63 -10 -55
-5 5 -11 23 -11 40 -5 100 -5 104 -14 84 -4 -11 -6 -29 -4 -40 9 -38 10 -315
2 -315 -4 0 -9 30 -10 68 0 37 -2 78 -3 92 -3 28 -6 280 -5 385 0 66 1 69 15
45 13 -22 14 -23 15 -5 0 11 2 38 5 60 l5 40 -10 -33 c-7 -21 -15 -30 -22 -26
-9 6 -9 9 0 12 7 2 12 8 12 13 0 6 -4 7 -10 4 -5 -3 -10 1 -10 10 0 9 5 13 10
10 6 -4 10 5 10 19 0 14 -5 26 -11 26 -7 0 -9 9 -6 22 4 14 0 26 -11 34 -9 8
-12 14 -5 14 6 0 9 9 6 21 -4 13 2 27 17 41 13 12 19 23 13 25 -6 2 -9 12 -6
22 3 11 -2 21 -10 24 -10 4 -13 13 -10 27 3 11 -1 28 -9 38 -16 18 -33 72 -23
72 3 0 11 -14 17 -30 11 -33 32 -35 35 -4 2 16 1 16 -3 1 -8 -25 -24 -11 -24
21 0 21 2 24 10 12 9 -13 10 -13 10 1 0 8 -5 20 -12 27 -9 9 -9 12 0 12 17 0
15 23 -4 46 -14 17 -15 17 -10 1 4 -12 2 -17 -6 -15 -16 6 -16 13 -21 379 -2
168 -6 310 -9 315 -5 9 -1 1167 4 1217 2 15 5 27 8 27 3 0 4 45 2 99 -2 54 1
115 6 135 6 20 7 36 4 36 -4 0 -7 107 -7 237 0 131 -4 295 -8 366 -4 71 -4
127 1 127 5 0 26 -25 48 -56z m1097 -183 c26 -78 15 -85 -23 -17 -19 33 -36
54 -38 47 -2 -6 19 -50 46 -96 78 -130 130 -246 259 -575 24 -63 58 -143 74
-177 17 -34 33 -79 36 -100 3 -21 11 -44 17 -52 13 -16 49 -109 76 -196 36
-116 122 -360 137 -390 9 -16 35 -88 58 -160 39 -120 72 -207 112 -294 8 -19
28 -65 44 -103 15 -38 38 -82 49 -98 14 -20 19 -38 15 -52 -5 -17 -4 -19 4 -9
8 12 12 13 25 1 28 -22 28 -6 0 76 -26 78 -26 82 -30 424 -2 190 -4 347 -5
350 -1 3 0 10 1 15 2 10 7 365 14 1045 3 201 5 376 5 389 1 18 5 22 18 17 22
-9 226 -9 454 0 l177 7 6 -39 c8 -54 12 -2012 7 -3509 -1 -423 1 -824 4 -890
3 -66 7 -175 10 -243 l4 -123 -257 4 c-141 3 -271 5 -288 6 -26 0 -33 5 -36
26 -4 19 -1 25 13 25 27 0 34 -4 33 -17 -1 -8 8 -10 27 -6 16 3 35 0 43 -6 15
-13 49 -4 40 10 -3 5 -10 7 -15 4 -5 -3 -6 0 -3 8 3 8 1 18 -5 22 -6 3 -11 1
-11 -4 0 -14 -57 -14 -65 0 -4 6 -14 8 -22 5 -15 -6 -57 29 -66 56 -5 15 -1
17 23 15 17 -2 33 -7 37 -10 3 -4 16 -7 28 -7 12 0 30 -9 40 -20 22 -24 35
-26 35 -5 0 8 -4 15 -9 15 -5 0 -6 15 -1 34 4 19 3 39 -2 44 -5 5 -10 40 -13
78 -3 60 -15 132 -29 184 -3 8 -5 27 -5 43 -1 15 -5 27 -11 27 -12 0 -7 -54
15 -148 9 -41 15 -85 12 -98 -2 -13 -1 -24 2 -24 3 0 7 -29 8 -65 1 -66 -5
-77 -27 -50 -7 8 -25 15 -41 15 -35 0 -79 19 -79 35 0 6 -5 16 -12 23 -7 7
-22 40 -34 75 -12 34 -34 98 -49 142 -39 113 -49 135 -57 135 -5 0 -8 7 -8 16
0 9 -9 31 -19 48 -11 17 -29 63 -40 101 -11 39 -34 108 -51 155 -78 208 -112
295 -140 355 -17 36 -30 78 -30 93 0 15 -7 36 -15 46 -8 11 -15 26 -15 34 0 8
-11 38 -24 66 -13 28 -26 65 -29 82 -3 17 -25 71 -49 120 -24 49 -54 121 -67
159 -13 39 -30 85 -38 104 -8 18 -32 81 -53 140 -57 159 -86 234 -109 286 -12
26 -21 53 -21 59 0 6 -6 23 -14 37 -7 14 -17 53 -22 85 -4 32 -9 49 -12 37 -5
-31 -20 -29 -35 4 -12 27 -68 85 -75 78 -2 -2 15 -28 37 -59 47 -63 49 -70 21
-61 -24 8 -25 2 -5 -29 12 -18 14 -43 10 -117 -7 -122 -10 -548 -7 -1074 2
-437 -5 -1143 -12 -1154 -4 -6 0 -33 18 -133 l6 -28 -430 0 c-236 0 -431 4
-434 8 -14 23 -18 448 -17 1749 1 506 5 754 12 758 7 5 6 11 -1 20 -6 7 -7 15
-3 18 4 3 6 166 3 364 -8 522 -6 1800 2 1808 4 4 35 9 70 12 35 2 113 8 173
14 61 5 215 14 344 19 129 6 237 12 240 15 3 3 14 5 26 3 14 -2 25 -18 38 -57z
m1697 -1061 c0 -5 7 -10 15 -10 18 0 18 1 15 -125 -1 -55 -6 -104 -11 -109 -6
-6 -9 -4 -9 5 0 21 -44 17 -48 -4 -2 -9 -7 -17 -12 -17 -5 0 -7 7 -4 15 4 8 1
15 -6 15 -6 0 -9 4 -5 9 3 5 1 12 -5 16 -5 3 -10 44 -10 91 0 83 1 85 23 82
21 -3 22 -7 22 -91 0 -56 4 -87 11 -87 7 0 11 35 10 100 0 55 -4 100 -9 100
-4 0 -5 5 -2 10 3 6 10 10 16 10 5 0 9 -4 9 -10z m34 -327 c4 -27 6 -55 5 -63
-1 -8 -2 -71 -3 -140 -1 -126 -9 -161 -29 -141 -16 16 -21 57 -20 170 1 102
19 221 33 221 4 0 10 -21 14 -47z m-4 -1429 c0 -56 4 -94 10 -94 6 0 10 -9 10
-21 0 -14 -5 -19 -14 -16 -11 4 -13 1 -9 -10 5 -12 1 -14 -15 -9 -17 6 -19 3
-15 -15 4 -15 3 -20 -5 -15 -7 4 -12 18 -12 31 0 12 -7 26 -16 29 -13 5 -14
-3 -9 -57 3 -34 8 -75 11 -91 4 -25 3 -26 -10 -14 -18 19 -22 38 -11 61 4 11
3 23 -3 29 -6 6 -8 17 -5 24 3 8 1 14 -5 14 -6 0 -12 -6 -15 -12 -2 -7 -4 1
-5 19 -1 28 3 32 34 37 19 4 34 10 35 14 0 4 1 48 1 98 1 89 2 92 25 92 22 0
23 -3 23 -94z m-1690 -91 c25 -76 71 -192 105 -268 13 -28 27 -64 31 -80 4
-17 18 -53 31 -82 12 -28 23 -54 23 -58 0 -3 13 -41 30 -83 16 -42 59 -158 95
-257 36 -99 77 -208 91 -243 29 -74 29 -79 7 -61 -10 8 -4 -10 16 -46 32 -59
133 -316 127 -323 -2 -1 -25 19 -51 45 -36 37 -42 41 -26 16 12 -18 26 -35 31
-38 19 -12 9 -24 -22 -28 -25 -3 -21 -4 16 -5 42 -2 53 -7 83 -38 38 -41 69
-94 53 -94 -5 0 -10 5 -10 10 0 6 -7 10 -15 10 -8 0 -15 6 -15 14 0 18 -51 22
-310 25 -113 1 -228 4 -257 8 l-52 6 0 421 c1 309 -8 1123 -13 1196 -3 40 10
22 32 -47z m374 -513 c7 -8 28 -53 46 -100 18 -47 44 -110 58 -140 13 -30 26
-67 28 -83 3 -24 18 -60 46 -107 22 -38 39 -85 48 -128 5 -26 12 -56 16 -67 7
-18 6 -18 -9 -7 -9 8 -21 30 -28 50 -7 20 -29 73 -49 117 -21 44 -41 91 -45
105 -8 27 -78 206 -101 257 -8 17 -14 36 -14 42 0 6 -7 26 -16 45 -11 21 -14
41 -9 53 8 17 8 17 13 -2 2 -11 10 -27 16 -35z m-1548 -346 c4 -14 4 -57 2
-96 -4 -46 -2 -65 4 -57 7 10 7 4 3 -16 -9 -37 -8 -335 1 -427 7 -77 -9 -96
-22 -25 -9 55 -11 647 -2 647 4 0 11 -12 14 -26z"/>
<path d="M16740 6392 c0 -121 1 -122 65 -122 57 0 66 19 63 129 l-3 96 -62 3
-63 3 0 -109z m103 76 c-2 -5 -3 -47 -3 -94 l0 -85 -37 3 -38 3 -3 93 -3 93
43 -3 c24 -2 42 -6 41 -10z"/>
<path d="M17133 6088 c-4 -7 -9 -55 -11 -107 -5 -103 -1 -111 53 -111 75 0 75
1 75 121 l0 109 -54 0 c-33 0 -58 -5 -63 -12z"/>
<path d="M16745 5702 c-3 -3 -5 -54 -5 -113 0 -101 1 -107 21 -112 26 -7 79 2
96 15 13 11 13 184 -1 206 -7 12 -99 15 -111 4z"/>
<path d="M16935 5702 c-3 -3 -5 -53 -5 -112 l0 -107 41 -6 c23 -3 52 -1 65 5
23 11 24 16 24 114 l0 102 -27 6 c-33 7 -90 5 -98 -2z m103 -114 l-3 -93 -36
-3 c-35 -3 -36 -2 -42 35 -9 50 -9 138 0 146 3 4 24 7 45 7 l39 0 -3 -92z"/>
<path d="M17136 5695 c-12 -13 -16 -37 -16 -111 0 -92 1 -95 25 -104 14 -5 42
-6 63 -2 l37 8 0 109 0 110 -46 3 c-33 2 -51 -2 -63 -13z m89 -104 l0 -95 -35
0 -35 -1 -3 84 c-4 105 -1 113 40 109 l33 -3 0 -94z"/>
<path d="M16747 5269 c-17 -10 -18 -20 -12 -107 4 -54 13 -100 19 -104 6 -4
32 -8 59 -8 l47 0 0 105 c0 58 1 108 3 113 4 12 -96 13 -116 1z m86 -18 c4 -1
7 -41 7 -91 0 -89 0 -90 -27 -96 -25 -7 -55 4 -54 19 1 4 1 43 1 86 0 83 6 92
50 85 8 -1 18 -3 23 -3z"/>
<path d="M16937 5273 c-4 -3 -7 -53 -7 -110 0 -101 1 -104 25 -113 14 -5 42
-6 63 -2 l37 8 3 98 c2 64 -1 103 -9 112 -12 14 -100 20 -112 7z"/>
<path d="M17152 5270 c-22 -9 -23 -13 -20 -112 l3 -103 34 -3 c19 -2 44 -1 57
2 23 6 24 10 24 106 0 88 -2 100 -19 110 -23 12 -48 12 -79 0z"/>
<path d="M16747 4843 c-4 -3 -7 -53 -7 -109 l0 -103 28 -3 c15 -2 41 -1 59 0
38 5 43 18 43 135 l0 87 -58 0 c-32 0 -62 -3 -65 -7z"/>
<path d="M16941 4828 c-7 -21 -7 -186 1 -193 4 -4 47 -7 88 -6 l35 1 0 98 c0
53 -4 103 -8 110 -5 7 -29 12 -58 12 -42 0 -51 -3 -58 -22z m99 -94 l0 -95
-37 3 -38 3 -3 93 -3 92 41 0 40 0 0 -96z"/>
<path d="M17141 4831 c-6 -11 -11 -61 -11 -111 l0 -91 58 3 57 3 0 105 0 105
-47 3 c-38 2 -49 -1 -57 -17z"/>
<path d="M16571 4441 c-19 -12 -22 -210 -3 -212 30 -3 39 -3 70 4 30 6 32 9
33 49 1 24 3 71 5 106 l3 62 -47 0 c-26 0 -53 -4 -61 -9z"/>
<path d="M16760 4425 c-14 -37 -13 -178 2 -193 12 -12 75 -16 101 -6 12 4 14
26 11 112 l-4 107 -50 3 c-46 3 -51 1 -60 -23z"/>
<path d="M16951 4436 c-8 -9 -11 -47 -9 -112 3 -112 4 -113 92 -100 l41 6 -5
108 -5 107 -51 3 c-35 2 -54 -2 -63 -12z m89 -101 l0 -95 -40 0 -40 0 0 88 c0
49 3 92 7 95 3 4 21 7 40 7 l33 0 0 -95z"/>
<path d="M17178 4443 c-26 -4 -28 -7 -28 -56 0 -29 -3 -76 -6 -104 l-7 -53 34
0 c80 0 80 1 78 116 -1 115 4 108 -71 97z"/>
<path d="M16962 4020 c-22 -9 -23 -14 -21 -110 1 -55 2 -100 3 -100 59 -10
104 -10 112 2 6 7 8 52 6 106 -4 88 -5 94 -29 103 -29 11 -41 11 -71 -1z"/>
<path d="M16983 3643 c-29 -4 -33 -8 -33 -36 0 -18 -3 -62 -6 -99 l-7 -67 36
-6 c19 -4 49 -4 66 0 l31 7 -1 76 c-2 127 -7 135 -86 125z"/>
<path d="M16757 3633 c-13 -12 -8 -180 6 -191 40 -32 122 -16 113 23 -2 11 -1
51 3 88 7 66 6 69 -17 78 -27 10 -96 12 -105 2z"/>
<path d="M17147 3633 c-4 -3 -7 -46 -7 -94 0 -87 0 -89 26 -95 15 -4 39 -3 53
2 25 9 26 12 29 102 l3 92 -49 0 c-27 0 -52 -3 -55 -7z"/>
<path d="M13260 7961 c0 -26 -3 -31 -17 -27 -75 21 -314 23 -593 7 -107 -7
-260 -11 -340 -11 -80 1 -151 1 -158 1 -9 -1 -11 -8 -7 -21 4 -12 2 -20 -5
-20 -6 0 -9 -3 -6 -8 2 -4 -7 -46 -20 -92 -33 -113 -56 -221 -50 -237 3 -7 0
-13 -5 -13 -7 0 -9 -11 -7 -25 3 -14 1 -25 -4 -25 -5 0 -6 -9 -3 -20 4 -12 2
-27 -5 -35 -6 -7 -10 -19 -9 -27 1 -7 -3 -26 -10 -42 -6 -16 -9 -38 -6 -50 5
-15 4 -17 -3 -7 -7 9 -10 -1 -10 -34 -1 -25 -12 -92 -26 -148 -14 -56 -30
-131 -35 -167 -12 -75 -50 -250 -56 -260 -3 -4 -7 -29 -10 -56 -7 -61 -71
-372 -90 -439 l-14 -50 5 65 c3 36 4 63 1 60 -3 -3 -15 -59 -27 -125 -37 -205
-51 -278 -65 -340 -8 -33 -26 -116 -40 -185 -15 -69 -37 -170 -51 -225 -13
-55 -26 -125 -30 -155 -9 -77 -32 -217 -43 -265 -23 -100 -103 -415 -116 -460
-8 -27 -21 -88 -30 -135 -9 -47 -32 -146 -51 -220 -19 -74 -45 -191 -59 -260
-25 -127 -40 -188 -75 -315 -10 -38 -24 -101 -30 -140 -6 -38 -20 -108 -31
-154 -15 -58 -20 -108 -18 -165 2 -75 -5 -114 -31 -159 -15 -25 -5 -35 26 -29
15 3 21 8 15 12 -8 4 -9 19 -3 45 l8 39 11 -29 c28 -78 43 -132 43 -152 0 -12
5 -25 11 -28 5 -4 14 -18 19 -30 16 -41 48 -54 110 -45 30 5 109 9 175 10 77
1 113 4 100 10 -13 6 12 9 73 8 54 0 92 -4 92 -10 0 -6 78 -7 224 -2 213 6
224 6 235 -12 10 -18 11 -18 17 2 5 19 12 21 55 18 27 -1 49 1 49 7 0 5 -18 9
-41 9 l-41 0 7 32 c14 63 39 108 60 109 56 2 116 0 175 -7 91 -11 336 -8 390
4 38 9 23 10 -93 10 -75 -1 -140 2 -144 6 -7 7 22 9 197 12 69 1 146 3 173 3
27 1 47 6 47 12 0 8 -49 9 -177 4 -98 -4 -271 -9 -384 -10 l-206 -3 5 25 c5
25 6 25 61 17 102 -16 308 -10 641 16 63 6 144 10 179 10 106 0 62 11 -60 15
-66 2 -144 -2 -184 -10 -85 -15 -473 -19 -495 -5 -10 7 39 10 155 11 212 2
336 6 343 14 5 4 -472 10 -505 6 -7 -1 -13 2 -13 7 0 7 54 15 90 13 61 -3 125
0 134 8 6 5 36 9 66 9 332 2 431 5 375 13 -116 15 -659 28 -672 16 -3 -4 -1
-7 5 -7 7 0 12 -4 12 -10 0 -5 -5 -10 -10 -10 -6 0 -24 -10 -41 -22 -26 -19
-31 -20 -39 -8 -13 20 -12 40 1 40 8 0 8 4 1 13 -11 13 -1 94 19 154 6 19 9
37 6 39 -3 3 2 26 10 52 7 26 16 83 19 127 4 44 10 85 14 90 4 6 16 50 26 99
l19 88 44 -6 c24 -3 176 -6 337 -6 l293 0 6 -55 c4 -30 12 -55 19 -55 6 0 5
-4 -3 -9 -9 -6 -11 -16 -7 -27 4 -11 14 -57 21 -104 8 -47 23 -126 33 -175 11
-50 23 -115 27 -145 10 -73 20 -96 61 -147 24 -30 33 -49 29 -62 -4 -15 3 -26
30 -44 20 -14 43 -34 51 -46 20 -28 37 -27 29 2 -17 59 -42 108 -57 112 -21 7
-51 52 -43 65 3 6 1 10 -6 10 -12 0 -38 29 -39 44 0 5 8 2 17 -5 15 -13 16
-11 10 20 -6 29 -5 32 8 21 13 -11 32 -62 41 -109 5 -25 24 -37 34 -21 5 8 11
12 13 10 5 -7 35 -151 36 -170 0 -8 1 -24 3 -35 3 -17 -2 -20 -29 -17 -17 2
-34 -1 -37 -6 -3 -5 10 -9 29 -10 20 -1 44 -6 55 -12 11 -6 39 -10 63 -10 23
1 80 0 127 -2 47 -1 91 1 98 6 14 8 740 -1 754 -10 4 -3 8 -12 8 -19 0 -24 61
-209 72 -220 8 -7 9 -4 4 9 -4 11 -11 40 -16 65 -6 25 -17 75 -26 111 -9 36
-20 83 -24 105 -5 22 -21 89 -35 148 -15 59 -27 118 -27 130 -1 12 -5 27 -9
32 -12 17 -46 152 -64 253 -8 50 -40 198 -70 328 -30 130 -55 255 -55 279 0
25 -5 45 -12 48 -9 4 -9 6 1 6 12 1 11 4 -3 14 -18 13 -40 87 -25 87 4 0 11
-16 15 -35 9 -49 16 -37 8 13 -4 29 -10 39 -20 35 -8 -3 -14 -1 -14 5 0 6 5
12 12 14 8 3 5 35 -12 115 -16 77 -27 110 -35 107 -7 -3 -15 7 -19 27 -9 44
-8 51 6 43 8 -5 9 -2 4 12 -4 10 -12 44 -18 74 -6 30 -14 60 -18 65 -4 6 -11
34 -15 62 -4 29 -11 56 -16 59 -5 3 -6 16 -3 29 3 12 1 26 -5 30 -6 3 -9 10
-6 15 3 5 0 21 -7 37 -6 15 -12 35 -13 43 -2 28 -17 105 -23 115 -4 6 -7 25
-8 43 -2 18 -10 59 -19 90 -9 31 -20 71 -25 87 -4 17 -11 48 -15 70 -3 22 -21
92 -40 155 -39 136 -60 231 -191 850 -21 99 -49 222 -84 375 -6 22 -12 58 -14
81 -2 22 -15 83 -29 135 -14 52 -31 123 -37 159 -6 36 -19 92 -30 125 -10 33
-35 141 -55 240 -36 179 -56 240 -95 294 -11 16 -20 35 -20 43 0 8 -12 25 -26
39 -23 21 -64 88 -64 104 0 3 17 5 37 5 44 0 37 11 -9 15 -22 1 -37 9 -44 24
-18 35 -24 36 -24 2z m-860 -60 c36 -5 247 -6 470 -4 256 3 400 1 391 -5 -11
-8 -11 -11 1 -18 18 -11 120 -162 146 -217 2 -4 -223 -7 -500 -6 -288 0 -523
-3 -551 -9 -27 -5 -50 -6 -53 -1 -3 5 2 9 10 9 18 0 22 35 5 45 -5 4 -7 19 -4
35 3 15 2 40 -2 56 -6 23 -9 14 -13 -46 l-5 -75 -62 122 c-33 67 -60 123 -58
125 6 5 152 -2 225 -11z m-185 -176 c21 -49 45 -98 53 -107 13 -15 12 -27 -9
-107 -15 -57 -26 -86 -32 -78 -5 7 -6 3 -2 -10 3 -13 0 -53 -8 -90 -9 -38 -20
-90 -25 -118 -23 -113 -45 -194 -52 -190 -8 5 -20 -18 -20 -38 0 -7 5 -6 11 3
8 11 9 9 3 -10 -4 -13 -13 -30 -20 -38 -16 -16 -18 -26 -4 -17 6 3 10 1 10 -4
0 -6 -4 -11 -10 -11 -5 0 -10 -14 -10 -30 0 -17 -11 -81 -24 -143 -61 -282
-117 -553 -141 -677 -15 -74 -44 -207 -65 -295 -21 -88 -66 -286 -100 -440
-33 -154 -70 -314 -81 -355 -11 -41 -25 -99 -30 -127 -6 -29 -15 -53 -21 -53
-5 0 -7 8 -4 18 8 26 15 63 21 107 6 47 19 105 51 233 23 90 33 176 13 107
-52 -177 -77 -286 -84 -355 -2 -19 -10 -62 -19 -94 -8 -33 -13 -63 -10 -67 2
-4 0 -10 -5 -14 -7 -4 -7 -15 -1 -30 5 -14 6 -25 1 -25 -15 0 -22 -33 -9 -42
10 -6 10 -8 1 -8 -9 0 -13 -16 -13 -45 0 -46 -24 -163 -41 -200 -10 -21 -26
-95 -40 -180 -4 -27 -12 -70 -18 -95 -6 -25 -14 -56 -17 -70 -3 -13 -7 -27
-10 -29 -9 -9 -3 27 21 144 14 66 28 139 30 162 2 23 8 50 13 60 5 10 7 25 5
33 -4 13 -3 13 6 0 9 -13 11 -13 11 1 0 9 3 38 7 64 4 35 3 46 -5 41 -8 -5
-12 4 -12 28 0 20 -4 36 -10 36 -5 0 -7 13 -3 30 3 18 1 30 -5 30 -5 0 -15
-13 -21 -30 -5 -16 -13 -30 -16 -30 -3 0 -4 4 -1 9 5 7 9 33 21 121 12 82 19
111 32 121 10 9 12 9 9 -2 -3 -8 -7 -34 -10 -59 -3 -25 -7 -58 -10 -75 -2 -16
2 -38 8 -47 11 -15 13 -13 13 20 0 20 5 71 10 112 6 43 6 85 2 98 -6 14 -5 21
1 17 15 -9 28 27 25 68 -2 21 1 35 6 31 5 -3 9 -1 9 5 0 5 3 18 6 28 5 15 4
15 -5 3 -5 -8 -12 -12 -15 -9 -8 7 12 131 38 244 24 103 45 204 76 381 10 55
27 136 38 180 11 43 30 122 41 174 42 195 73 337 92 415 11 44 24 103 28 130
11 61 50 252 91 440 16 77 36 172 45 210 20 93 33 144 61 240 13 44 26 100 29
123 3 24 14 87 25 140 11 52 20 107 20 121 0 37 13 18 55 -84z m1210 -115 c2
-4 9 -40 15 -81 13 -88 19 -116 70 -324 42 -171 101 -444 156 -720 19 -93 52
-243 75 -333 23 -89 39 -171 36 -181 -2 -10 4 -52 15 -92 11 -41 23 -90 28
-109 5 -19 7 -43 4 -53 -3 -10 -1 -24 5 -31 6 -7 19 -53 30 -102 10 -49 27
-114 36 -144 9 -30 17 -63 19 -72 1 -10 5 -21 9 -24 4 -4 7 -16 7 -28 0 -19
26 -137 37 -166 3 -8 7 -24 9 -35 1 -11 8 -42 14 -70 13 -56 14 -63 24 -120 4
-22 9 -48 12 -57 3 -10 1 -18 -3 -18 -10 0 -20 38 -49 175 -9 44 -22 96 -29
115 -8 19 -23 69 -33 110 -11 41 -21 68 -21 60 0 -8 4 -31 9 -50 5 -19 25
-100 44 -180 20 -80 45 -176 56 -215 17 -60 51 -217 67 -308 3 -15 9 -27 13
-27 5 0 6 -10 3 -22 -4 -19 -3 -20 7 -8 9 13 11 12 9 -5 -1 -11 0 -27 4 -35 3
-8 8 -28 11 -45 5 -24 4 -27 -5 -15 -9 12 -10 11 -4 -5 4 -11 10 -31 13 -45 3
-14 9 -28 14 -31 5 -3 9 -22 10 -42 1 -20 4 -37 8 -37 4 0 14 -37 24 -82 43
-207 59 -280 81 -373 24 -101 142 -611 175 -760 10 -44 27 -105 38 -136 l20
-57 -492 0 -492 -1 -31 172 c-29 156 -47 266 -73 459 -5 37 -21 124 -35 192
-14 69 -25 137 -25 151 0 29 -23 43 -44 26 -7 -6 -15 -9 -17 -7 -4 3 -281 17
-386 19 -29 1 -47 5 -40 9 16 10 -191 8 -223 -2 -14 -5 17 -6 73 -3 63 4 97 2
97 -4 0 -14 -100 -22 -158 -12 -42 7 -163 -4 -183 -17 -4 -2 -12 4 -18 13 -10
17 -10 17 -11 1 0 -10 -4 -18 -9 -18 -9 0 -19 -27 -26 -65 -5 -26 -48 -164
-75 -240 -12 -33 -39 -134 -61 -225 -57 -237 -53 -216 -35 -201 9 8 16 22 16
31 0 25 41 202 46 197 5 -5 -26 -187 -36 -212 -15 -36 -25 -92 -35 -200 -3
-38 -8 -71 -10 -74 -3 -2 -64 2 -137 8 -73 7 -149 13 -168 14 -19 1 -40 6 -46
9 -6 4 -143 7 -304 7 -161 0 -294 1 -295 3 -2 2 28 134 66 293 38 160 81 344
95 410 14 66 30 128 35 137 11 21 12 31 1 24 -8 -5 24 180 49 284 16 65 40
172 45 195 2 11 8 38 13 60 6 22 11 55 11 73 0 17 5 32 11 32 6 0 8 -9 4 -20
-3 -11 -2 -20 4 -20 11 0 22 42 36 140 3 19 9 55 14 80 13 62 31 155 42 215 5
27 12 51 17 53 5 1 6 16 4 32 -3 19 0 30 7 30 7 0 9 5 5 11 -3 6 -2 14 3 18
10 7 33 113 33 152 0 14 4 29 10 35 5 5 10 27 11 49 1 22 5 45 9 50 4 6 13 39
19 75 11 56 26 121 71 297 4 18 6 34 3 36 -4 5 26 139 68 301 18 70 32 138 44
216 3 24 63 318 70 350 10 42 37 168 40 185 3 21 20 82 55 200 12 39 23 79 24
90 1 11 5 27 9 35 3 8 8 33 12 55 11 70 117 490 127 502 5 6 10 24 11 40 2 26
6 28 52 33 78 8 1035 8 1040 0z"/>
<path d="M12673 6825 c-59 -13 -233 -87 -233 -100 0 -3 9 -1 21 5 11 7 23 10
25 7 3 -2 -23 -21 -57 -41 -34 -20 -59 -30 -56 -22 4 10 0 12 -14 9 -10 -3
-19 -11 -19 -18 0 -7 -4 -15 -9 -17 -6 -1 -33 -32 -62 -68 -66 -82 -144 -243
-166 -340 -24 -106 -21 -300 5 -404 11 -44 18 -85 16 -91 -3 -7 2 -18 11 -25
8 -7 15 -17 15 -22 0 -5 26 -58 59 -116 32 -59 102 -190 156 -292 54 -102 125
-231 157 -287 53 -94 58 -106 52 -145 -3 -24 -14 -57 -24 -74 -12 -22 -15 -35
-8 -42 7 -7 7 -26 0 -59 -20 -89 -23 -121 -12 -128 5 -3 10 -16 10 -28 1 -21
1 -21 14 -4 12 16 27 18 103 16 48 -1 100 2 114 5 22 6 31 2 53 -26 18 -23 28
-29 34 -21 5 9 24 11 55 8 33 -3 47 -1 47 8 0 7 3 8 8 2 8 -11 64 -17 57 -6
-2 4 33 5 78 3 133 -6 438 -1 461 8 17 7 12 9 -24 11 -25 1 -49 3 -55 4 -5 2
-37 4 -70 5 -39 1 -52 4 -37 8 13 4 22 12 20 17 -2 6 8 11 22 12 23 2 23 2 5
-7 -14 -7 -2 -8 40 -4 33 3 89 6 125 6 61 0 63 1 30 10 -19 6 -110 11 -202 12
-134 1 -170 4 -182 16 -15 15 -52 227 -42 238 3 3 2 10 -3 16 -5 6 -11 36 -14
66 -6 58 -2 69 112 285 17 33 31 63 31 68 0 5 31 71 69 146 37 75 76 159 86
186 10 28 21 55 25 60 4 6 15 35 24 65 9 30 21 64 26 75 44 100 61 255 41 370
-7 37 -32 116 -55 175 -71 177 -186 317 -306 373 -36 17 -67 34 -70 37 -41 55
-336 88 -487 55z m388 -63 c91 -27 239 -102 239 -122 0 -4 -21 -13 -47 -18
-44 -10 -50 -8 -99 23 -28 18 -55 38 -58 44 -4 5 -21 20 -39 32 l-32 22 30
-32 c17 -18 54 -48 83 -67 28 -19 52 -38 52 -42 0 -4 -39 -18 -87 -31 -147
-40 -365 -111 -427 -139 -56 -25 -59 -25 -72 -8 -42 58 -151 186 -162 190 -20
9 -6 -10 136 -185 22 -27 22 -30 7 -45 -38 -38 -120 -242 -146 -362 -10 -51
-13 -53 -132 -143 -67 -50 -128 -94 -134 -96 -9 -3 -13 5 -13 23 0 16 -7 52
-16 79 -19 62 -21 250 -2 280 3 6 16 43 28 84 26 87 79 207 122 274 33 51 40
52 87 17 146 -112 179 -133 106 -65 -27 25 -69 58 -92 73 -24 15 -43 32 -43
38 0 27 211 148 310 177 83 24 87 25 200 26 88 1 121 -4 201 -27z m322 -225
c74 -99 140 -240 151 -327 13 -102 16 -180 6 -180 -5 0 -10 10 -10 22 0 20 -2
20 -14 8 -24 -25 -27 -67 -5 -94 22 -28 25 -65 6 -91 -13 -17 -16 -15 -45 28
-18 25 -32 50 -32 56 0 6 -18 48 -39 93 -22 46 -46 101 -55 123 -53 141 -108
278 -131 329 -14 32 -24 60 -22 62 6 7 111 43 124 44 6 0 36 -33 66 -73z
m-227 -14 c-11 -69 -26 -244 -27 -302 0 -56 0 -56 -17 -31 -33 49 -117 132
-158 156 -30 18 -57 25 -100 25 -139 2 -264 -65 -303 -161 -9 -22 -10 -23 -10
-5 -1 12 8 38 19 60 11 22 20 44 20 50 1 22 41 57 97 82 59 27 447 161 471
162 10 1 12 -9 8 -36z m54 -77 c16 -36 52 -127 81 -203 28 -76 70 -178 94
-228 24 -49 42 -91 41 -92 -1 -1 -58 35 -127 80 -69 45 -134 87 -144 92 -17
10 -17 18 -7 100 6 50 15 141 18 203 4 61 9 112 11 112 2 0 17 -29 33 -64z
m-286 -137 c49 -13 119 -78 146 -134 26 -54 28 -154 5 -225 -27 -80 -138 -170
-210 -170 -65 0 -149 60 -187 134 -17 32 -19 54 -16 130 3 76 8 100 31 146 31
60 71 107 102 120 28 12 84 12 129 -1z m-399 -244 c-5 -40 -3 -70 3 -78 5 -6
13 -32 17 -57 4 -25 12 -54 17 -65 15 -30 89 -105 119 -120 62 -33 208 -26
266 12 38 25 37 8 -2 -43 -35 -45 -90 -144 -81 -144 3 0 35 44 72 98 37 53 84
115 105 137 49 52 91 144 98 217 l6 58 160 -104 c88 -58 160 -111 160 -118 0
-6 -108 -66 -240 -133 -132 -66 -278 -144 -325 -172 -47 -28 -90 -48 -96 -45
-7 4 -32 36 -56 72 -25 36 -70 92 -101 125 -30 32 -53 63 -50 68 3 5 -6 21
-19 35 -13 15 -32 38 -41 52 -9 14 -24 35 -33 48 -12 16 -14 26 -6 34 7 7 7
17 0 34 -8 17 -8 27 1 38 7 8 10 20 7 25 -6 9 14 91 22 91 2 0 0 -29 -3 -65z
m-54 -162 c30 -49 172 -239 244 -326 33 -40 47 -63 35 -57 -12 7 -45 20 -73
30 -29 10 -128 53 -222 96 -93 42 -188 82 -209 89 -50 15 -54 25 -18 47 15 9
70 48 122 87 52 38 96 70 97 71 1 0 12 -17 24 -37z m1029 -97 c0 -9 -59 -127
-70 -141 -7 -8 -9 -15 -6 -15 4 0 2 -9 -4 -20 -6 -10 -16 -17 -23 -15 -13 5
-82 -77 -82 -98 0 -6 -5 -16 -12 -22 -7 -5 -15 -23 -19 -40 -7 -30 -7 -30 14
-12 12 11 18 25 15 35 -4 10 -2 13 5 8 7 -4 12 -2 12 4 0 6 7 18 15 26 8 8 12
21 9 29 -4 9 0 15 10 15 9 0 16 8 16 20 0 11 5 20 10 20 6 0 10 -5 10 -11 0
-14 -83 -182 -120 -244 -17 -27 -40 -72 -52 -100 -40 -90 -184 -369 -228 -440
-24 -39 -54 -90 -68 -115 -14 -25 -31 -48 -36 -52 -6 -4 -11 -13 -12 -20 0 -7
-2 -21 -2 -30 -1 -10 -6 -18 -11 -18 -6 0 -11 85 -12 208 -1 114 -4 234 -6
267 -3 58 -12 287 -15 372 -1 39 2 45 38 71 93 66 437 245 470 245 8 0 14 3
14 6 0 4 17 15 38 25 20 10 48 24 62 32 25 14 40 17 40 10z m-1200 -120 c179
-74 393 -166 448 -191 44 -21 52 -29 52 -52 0 -16 7 -164 15 -330 8 -166 15
-344 14 -395 0 -51 3 -101 6 -110 4 -10 3 -18 -3 -18 -6 0 -34 44 -63 98 -28
53 -60 108 -69 122 -10 14 -27 41 -38 60 -57 100 -168 290 -189 322 -12 21
-23 40 -23 42 0 2 -20 37 -43 78 -24 40 -69 123 -99 183 -31 61 -64 126 -75
145 -21 39 -44 90 -40 90 1 0 49 -20 107 -44z"/>
<path d="M5373 7931 c-29 -20 -71 -51 -93 -69 -31 -27 -40 -30 -40 -17 0 15
-3 15 -15 5 -12 -10 -13 -15 -4 -20 25 -16 -155 -175 -209 -185 -32 -6 -34 -8
-16 -15 19 -8 20 -12 11 -57 -12 -60 -12 -1043 -1 -1743 11 -632 11 -1117 2
-1395 -4 -115 -9 -412 -11 -660 -2 -247 -1 -378 2 -290 7 173 14 123 13 -95
-1 -74 -2 -233 -2 -354 -1 -120 2 -222 7 -227 14 -14 193 -31 264 -25 43 4 69
3 69 -3 0 -13 493 -9 530 3 14 5 49 11 79 13 44 4 57 2 68 -13 11 -15 13 -15
19 -1 4 11 26 18 72 23 55 6 62 9 37 14 -16 4 -43 5 -59 2 -33 -6 -33 -3 13
60 19 26 39 44 44 41 6 -4 3 -11 -6 -18 -10 -7 -17 -14 -17 -17 0 -7 94 -3
107 5 6 4 21 3 34 -1 19 -8 15 -10 -27 -16 -27 -4 -60 -13 -74 -21 -30 -17
-32 -17 110 -4 63 5 137 12 164 14 26 2 51 6 54 9 6 7 -24 9 -120 8 l-67 0 15
23 c11 17 23 23 42 20 15 -1 26 -8 24 -15 -3 -14 40 -3 50 14 5 7 9 5 13 -4 4
-12 19 -14 65 -12 39 3 60 0 60 -7 0 -6 -5 -10 -12 -8 -6 1 -14 -7 -16 -18 -4
-18 -2 -18 23 5 23 22 34 25 88 23 46 -2 56 0 40 7 -12 5 -67 10 -123 12 -55
2 -100 6 -100 11 0 4 -61 7 -136 7 -75 0 -133 4 -130 9 3 5 52 9 108 10 56 1
105 4 109 6 4 3 66 6 139 7 117 1 129 3 106 15 -15 8 -49 12 -83 11 -33 -2
-59 1 -60 7 -2 6 26 9 72 8 43 -1 75 2 75 7 0 9 -100 16 -152 12 -10 -1 -18 2
-18 7 0 13 69 21 115 14 32 -4 38 -3 28 7 -7 8 -50 14 -114 16 -56 2 -104 6
-106 8 -3 2 34 7 82 11 135 12 87 26 -74 23 -108 -2 -141 0 -141 10 0 6 9 12
20 12 17 0 18 3 10 26 -6 14 -10 36 -10 49 0 12 -7 36 -15 51 -8 16 -14 38
-14 49 1 16 2 15 9 -5 14 -49 21 4 12 96 -5 49 -10 202 -11 339 -1 138 -4 303
-7 368 -3 64 -3 117 1 117 13 0 87 -172 121 -283 20 -61 73 -229 119 -372 46
-143 108 -340 139 -437 30 -97 62 -193 71 -213 8 -21 15 -45 15 -55 0 -9 9
-29 20 -43 11 -14 20 -28 20 -31 0 -3 -28 -6 -62 -6 -51 -1 -59 -3 -44 -12 19
-10 702 -5 791 7 22 3 126 8 232 11 190 5 191 5 207 -18 9 -12 16 -31 16 -41
0 -10 5 -17 12 -15 15 5 18 77 5 95 -10 14 3 37 53 93 l31 35 -16 -32 c-8 -17
-19 -35 -25 -38 -14 -9 -32 -45 -22 -45 10 0 69 79 93 124 30 58 70 124 106
175 2 2 12 -4 24 -15 l21 -19 -15 35 c-8 19 -19 49 -25 65 -5 17 -59 149 -120
295 -60 146 -133 326 -162 400 -29 74 -58 149 -65 165 -7 17 -29 75 -48 130
-19 55 -49 138 -67 185 -67 179 -101 284 -96 297 3 8 -1 16 -9 19 -7 3 -11 12
-9 19 3 7 -3 33 -14 57 -93 205 -135 307 -136 330 -1 28 -11 38 -18 17 -2 -5
-11 -7 -20 -4 -16 6 -15 9 4 36 12 16 26 29 31 29 5 0 4 -7 -3 -15 -7 -9 -10
-19 -6 -23 12 -11 34 27 29 47 -3 11 4 25 19 37 13 11 46 46 73 79 26 33 80
92 119 130 102 100 134 166 204 420 32 114 38 160 47 330 3 55 10 159 15 230
16 217 8 298 -50 472 -16 51 -30 102 -30 113 0 11 -4 20 -10 20 -5 0 -6 7 -3
17 4 11 3 14 -5 9 -12 -7 -19 6 -36 62 -5 13 -3 22 3 22 6 0 15 -15 20 -32 5
-18 10 -25 10 -15 1 11 -17 54 -39 98 -58 115 -59 117 -130 201 -17 20 -30 43
-29 50 1 7 1 18 0 24 -2 21 -115 124 -196 178 -93 63 -296 167 -375 192 -30 9
-80 32 -110 50 -30 18 -66 35 -80 38 -14 3 -4 -4 23 -15 26 -12 47 -26 47 -31
0 -6 -6 -8 -13 -5 -47 18 -248 62 -349 76 -147 21 -364 26 -518 11 -153 -14
-648 -2 -652 15 -2 8 -22 -1 -55 -24z m552 -35 c99 -1 241 1 315 4 78 3 188 1
260 -6 107 -11 149 -21 290 -69 91 -31 179 -62 195 -70 17 -7 44 -16 60 -20
27 -6 25 -4 -14 19 -23 14 -47 26 -51 26 -5 0 -11 4 -14 9 -6 9 44 2 59 -9 6
-4 28 -13 50 -20 34 -11 219 -100 295 -141 47 -26 177 -127 201 -157 13 -16
39 -53 58 -83 18 -30 49 -79 68 -109 27 -44 33 -62 30 -92 -3 -25 -1 -38 8
-42 8 -3 19 -24 26 -48 7 -24 16 -47 19 -53 4 -5 15 -34 24 -62 10 -29 21 -55
26 -58 7 -4 21 -82 22 -120 0 -5 4 -18 10 -28 31 -59 54 -355 36 -475 -10 -67
-12 -73 -20 -50 -6 16 -6 40 0 60 5 18 8 44 6 58 -1 14 -3 61 -4 106 -1 44 -6
87 -11 95 -6 10 -9 6 -10 -16 0 -16 -3 -24 -6 -17 -7 17 -23 15 -23 -3 0 -8
-7 -15 -15 -15 -8 0 -15 -8 -15 -17 -1 -25 -26 -56 -39 -48 -6 3 -11 -1 -11
-9 0 -9 -4 -16 -10 -16 -13 0 -13 37 0 45 5 3 7 12 3 20 -3 8 0 15 6 15 6 0 8
7 4 16 -4 10 1 17 15 20 12 4 22 17 26 35 3 17 12 29 21 29 19 0 19 20 0 46
-13 18 -14 18 -8 -4 7 -28 -26 -70 -39 -50 -4 7 -8 27 -8 43 0 17 -10 48 -23
70 -12 22 -22 49 -22 60 0 11 -6 28 -14 37 -8 9 -16 31 -18 49 -2 18 -7 37
-12 43 -9 11 -29 78 -38 125 -5 32 -20 59 -49 90 -13 14 -24 30 -24 35 0 13
-102 128 -108 121 -3 -3 6 -18 20 -33 33 -35 103 -152 124 -208 9 -24 21 -44
25 -44 5 0 9 -10 9 -23 0 -12 7 -32 15 -44 8 -12 13 -28 10 -35 -3 -8 0 -28 6
-44 7 -16 13 -37 14 -46 1 -10 9 -26 18 -35 22 -25 45 -133 28 -133 -3 0 -5
-28 -3 -62 2 -58 1 -61 -13 -44 -8 11 -15 34 -15 52 0 17 -5 56 -11 85 -6 30
-12 63 -13 74 -9 63 -78 233 -127 312 -32 51 -57 93 -71 121 -6 12 -17 22 -24
22 -7 0 -15 9 -19 19 -3 10 -15 21 -26 24 -13 4 -18 10 -13 18 4 7 3 10 -4 5
-6 -3 -37 18 -69 47 -67 62 -202 156 -285 198 -88 44 -244 95 -396 128 -246
54 -464 60 -1077 33 -324 -15 -455 -19 -455 -12 0 3 16 15 34 28 19 13 50 38
68 55 19 18 74 68 123 111 l89 79 166 -8 c91 -4 246 -8 345 -9z m520 -295
c462 -70 700 -183 928 -439 20 -24 37 -46 37 -51 0 -5 19 -28 43 -52 23 -24
34 -38 24 -30 -15 12 -17 12 -11 -3 3 -9 13 -16 21 -16 8 0 11 -5 8 -11 -4 -6
1 -20 12 -32 32 -37 61 -115 97 -262 63 -261 62 -250 40 -347 -5 -24 -4 -26
16 -21 l22 6 -5 -216 c-3 -118 -8 -221 -12 -227 -4 -7 -9 -39 -11 -72 -2 -33
-7 -65 -12 -71 -5 -7 -12 -29 -16 -50 -20 -109 -144 -394 -199 -457 -53 -60
-301 -250 -327 -250 -5 0 -12 9 -15 20 -3 11 -11 20 -17 20 -6 0 -7 -7 -3 -17
22 -53 14 -71 -42 -95 l-28 -12 39 -5 c38 -6 39 -8 78 -96 60 -139 132 -316
188 -470 29 -77 68 -174 87 -215 94 -204 161 -393 87 -248 -15 29 -64 121
-109 203 -134 244 -308 572 -370 695 -32 63 -130 246 -219 405 -230 412 -248
445 -235 445 23 0 96 111 126 190 47 121 58 195 56 373 -3 187 -13 245 -69
362 -30 66 -62 103 -159 190 l-30 27 39 -22 c62 -34 23 4 -42 42 -132 76 -169
85 -301 76 -58 -5 -119 -13 -135 -18 -16 -6 -47 -10 -70 -11 -23 0 -50 -5 -61
-10 -14 -6 -1 -8 44 -6 l63 2 -1 -109 c-1 -61 -4 -113 -7 -118 -8 -12 -4 -937
5 -1010 4 -38 3 -75 -2 -84 -16 -29 12 -36 123 -29 137 8 207 26 310 83 105
58 100 56 100 42 0 -11 74 -151 259 -495 48 -88 93 -173 101 -190 27 -56 217
-410 285 -530 38 -66 96 -172 130 -235 34 -63 75 -140 92 -170 133 -241 173
-324 256 -535 99 -251 117 -301 97 -275 -6 8 -106 206 -223 440 -117 234 -260
513 -316 620 -57 107 -143 269 -191 360 -48 91 -127 242 -175 335 -77 151
-122 228 -98 170 15 -38 226 -450 268 -525 60 -107 303 -585 591 -1160 136
-272 256 -507 266 -522 34 -50 27 -55 -74 -59 -51 -1 -131 -2 -178 0 -47 1
-236 -5 -420 -14 -184 -8 -343 -15 -352 -15 -13 0 -18 8 -18 28 0 15 -4 32 -9
37 -5 6 -14 28 -21 50 -6 22 -54 168 -105 325 -127 386 -250 772 -269 846 -9
34 -22 117 -30 184 -8 67 -18 125 -21 128 -4 4 -5 -6 -2 -23 5 -24 20 -170 22
-207 0 -5 -4 -8 -9 -9 -5 0 -28 43 -53 96 l-44 97 -3 149 c-2 106 0 149 8 146
6 -2 13 -42 16 -98 4 -71 7 -87 13 -65 4 16 5 64 1 107 l-7 79 -30 0 -29 0 4
-120 c3 -82 1 -119 -6 -117 -19 6 -96 151 -97 182 -1 24 -3 25 -6 8 -2 -13 -7
-23 -10 -23 -4 0 -28 23 -54 52 l-46 51 -18 -21 c-17 -19 -18 -43 -15 -309 2
-158 4 -568 4 -910 l1 -621 -98 -7 c-54 -4 -210 -4 -345 1 -282 9 -262 9 -407
4 l-110 -4 1 225 c1 123 2 317 3 430 l1 206 76 149 c156 306 248 481 290 555
24 42 44 79 44 83 0 5 8 20 19 34 19 27 53 102 46 102 -1 0 -43 -71 -92 -157
-88 -155 -148 -267 -293 -548 -100 -194 -101 -195 -93 -109 6 74 13 88 175
367 37 65 68 120 68 123 0 3 15 28 33 57 18 29 57 95 87 147 59 106 167 289
335 575 170 287 227 387 222 391 -2 2 -12 -9 -24 -24 -68 -93 -604 -992 -808
-1357 -43 -77 -82 -144 -87 -150 -5 -5 -8 27 -7 75 0 47 1 423 1 835 0 413 3
845 7 960 8 217 7 403 -5 1000 -3 193 -7 445 -8 560 -1 116 -4 217 -6 225 -3
9 2 15 12 15 9 0 19 3 22 6 3 3 43 1 88 -4 80 -8 315 -3 543 13 194 14 594 3
740 -19z m-38 -835 c17 -8 64 -51 106 -96 80 -84 126 -164 153 -260 21 -79 30
-301 14 -386 -22 -122 -49 -203 -74 -219 -40 -27 -157 -56 -242 -60 l-81 -5
-1 378 c-1 207 -4 445 -8 529 -5 141 -4 152 13 155 20 5 74 -11 120 -36z
m1436 -362 c-3 -82 -12 -105 -33 -79 -8 10 -9 15 -1 15 6 0 11 9 11 20 0 32
-17 23 -24 -12 -4 -20 -2 -34 6 -39 6 -4 13 -14 14 -22 1 -8 5 -29 9 -47 6
-26 4 -32 -7 -28 -17 7 -17 -47 0 -78 9 -18 7 -25 -13 -44 -27 -25 -46 -21
-25 5 11 13 10 15 -2 10 -12 -5 -14 3 -12 37 1 24 4 48 5 53 2 6 -1 30 -5 54
-13 70 -12 123 2 128 13 5 17 24 5 22 -20 -3 -24 2 -13 15 6 8 17 13 24 10 7
-3 20 11 29 31 9 20 21 34 25 31 4 -3 7 -40 5 -82z m-1768 -254 c-8 -25 3 -26
21 -2 12 16 13 15 14 -5 0 -14 -6 -23 -15 -23 -8 0 -15 -4 -15 -10 0 -5 5 -10
10 -10 15 0 12 -29 -5 -46 -20 -21 -20 -40 1 -23 14 12 15 8 12 -37 -2 -27 -7
-55 -11 -61 -5 -7 -6 -17 -3 -21 3 -5 6 -70 7 -145 0 -76 5 -137 10 -137 21 0
27 56 23 209 -3 105 -1 161 6 161 5 0 11 -10 11 -22 1 -13 3 -39 4 -58 1 -19
3 -45 4 -58 0 -13 5 -21 10 -17 5 3 13 0 17 -6 4 -8 3 -9 -4 -5 -12 7 -14 -3
-14 -74 0 -47 1 -50 17 -44 31 12 13 -16 -55 -86 -61 -63 -70 -69 -71 -49 -1
13 -1 28 0 32 1 4 2 110 2 235 0 241 6 322 21 322 5 0 6 -9 3 -20z m1245
-1375 c46 -93 86 -177 90 -185 4 -8 12 -24 18 -35 5 -11 31 -65 57 -119 41
-87 51 -116 54 -161 1 -5 6 -3 12 5 8 11 12 12 16 3 2 -7 9 -13 14 -13 15 0
10 22 -10 44 -24 27 -108 224 -116 273 -9 51 3 35 66 -92 64 -130 78 -154 80
-135 1 8 1 19 0 23 -1 5 4 7 11 4 7 -2 12 -12 10 -22 -2 -10 1 -14 7 -10 10 6
15 -6 12 -31 -1 -6 6 -17 14 -24 8 -7 15 -19 15 -27 0 -8 5 -11 11 -7 8 4 9 0
4 -15 -4 -14 -2 -21 7 -21 13 0 58 -78 58 -100 0 -6 8 -29 19 -53 38 -87 60
-143 67 -167 6 -22 5 -23 -10 -11 -15 13 -15 11 1 -17 10 -17 21 -28 25 -26 4
3 5 -2 2 -10 -3 -9 -1 -16 5 -16 6 0 11 -8 11 -18 0 -10 4 -22 9 -27 9 -10
141 -300 141 -310 0 -17 -18 0 -28 27 -6 17 -14 29 -17 26 -3 -3 4 -26 16 -53
14 -31 24 -43 29 -35 5 9 9 9 14 1 4 -6 2 -11 -3 -11 -6 0 -11 -10 -11 -22 0
-18 2 -20 10 -8 11 18 12 16 39 -44 28 -65 26 -82 -4 -26 -34 64 -31 45 10
-49 19 -45 31 -81 27 -81 -9 0 -77 132 -97 190 -9 25 -33 74 -54 110 -21 36
-51 92 -67 125 -17 33 -61 121 -100 195 -38 74 -91 182 -117 239 -26 57 -50
102 -52 99 -11 -11 275 -593 353 -719 12 -20 30 -61 40 -90 19 -59 74 -160 97
-179 12 -10 15 -9 15 9 0 11 5 21 10 21 16 0 12 -32 -8 -65 -10 -16 -49 -70
-86 -119 -37 -49 -74 -102 -82 -117 -8 -16 -19 -29 -24 -29 -5 0 -17 26 -25
58 -9 31 -20 66 -24 77 -33 80 -32 77 -14 73 10 -2 19 -12 21 -23 5 -30 12
-48 17 -43 10 9 -17 78 -30 78 -13 0 -77 117 -81 145 0 6 -9 28 -18 50 -10 22
-26 60 -37 84 -10 24 -19 48 -19 53 0 6 -6 24 -14 41 -7 18 -17 44 -22 58 -5
15 -28 71 -51 125 -23 55 -56 140 -73 189 -17 50 -40 109 -50 133 -24 50 -24
52 -7 52 14 0 37 -53 37 -84 0 -10 7 -34 16 -54 9 -21 22 -52 30 -70 8 -18 14
-37 14 -43 0 -6 23 -62 50 -124 28 -62 50 -118 50 -124 0 -6 4 -19 9 -29 25
-47 52 -115 47 -120 -3 -3 -1 -11 5 -18 5 -7 21 -34 34 -61 33 -67 31 -36 -4
50 -16 40 -37 94 -47 120 -9 26 -21 50 -25 53 -5 3 -9 14 -9 25 0 11 -15 50
-33 87 -19 37 -39 83 -46 102 -16 44 -23 61 -55 134 -15 32 -24 61 -21 64 7 7
6 9 60 -101 26 -54 49 -96 52 -94 5 6 -89 202 -117 242 -11 17 -20 40 -20 51
0 12 -9 33 -20 46 -10 14 -17 28 -13 31 3 4 1 12 -4 19 -19 23 -74 171 -70
187 3 10 10 1 21 -24 51 -117 69 -155 72 -152 5 4 -61 180 -83 222 -9 17 -25
46 -36 65 -29 52 -55 140 -40 140 10 0 33 -48 33 -67 0 -8 11 -35 25 -61 14
-26 25 -42 25 -37 0 6 11 -12 25 -40 42 -88 65 -141 65 -153 0 -6 5 -14 11
-18 16 -10 5 32 -26 99 -13 28 -31 68 -39 87 -9 19 -28 51 -41 69 -14 19 -23
42 -20 50 3 8 1 17 -5 21 -6 4 -12 22 -12 41 -1 21 -30 90 -79 185 -42 83 -79
159 -81 170 -2 10 -9 18 -14 17 -5 -1 -11 13 -12 30 -2 30 -2 31 11 12 7 -11
51 -96 97 -190z m-1174 -1147 c5 -87 20 -187 41 -283 9 -38 18 -110 22 -160 5
-77 8 -87 18 -69 8 14 10 37 4 71 -5 37 -4 52 6 62 11 10 13 8 7 -16 -6 -25
-5 -26 8 -15 14 11 16 7 20 -29 4 -43 -4 -59 -58 -119 -17 -19 -44 -48 -59
-65 l-26 -30 6 80 c3 44 6 85 6 90 -4 234 -13 510 -17 517 -6 10 6 32 13 24 3
-3 7 -29 9 -58z"/>
<path d="M5996 5270 c-71 -13 -120 -105 -97 -180 12 -41 36 -53 47 -25 4 8 10
15 15 15 5 0 9 -7 9 -15 0 -18 17 -20 22 -3 2 6 23 13 47 15 32 3 46 0 56 -13
6 -9 18 -15 26 -12 17 7 41 85 35 113 -3 11 -5 28 -5 37 -1 9 -11 29 -23 43
-26 29 -69 37 -132 25z m134 -114 c0 -18 -5 -37 -12 -44 -15 -15 -58 -16 -58
-2 0 6 -25 10 -55 10 -30 0 -55 -4 -55 -10 0 -5 -9 -10 -21 -10 -19 0 -20 4
-15 43 3 23 5 43 5 44 1 2 48 2 106 2 l105 -1 0 -32z"/>
<path d="M6438 5258 c-46 -38 -59 -94 -37 -170 10 -40 41 -53 52 -23 5 12 10
12 34 0 20 -10 30 -11 40 -3 8 7 34 8 67 4 l54 -6 6 34 c7 38 -22 116 -56 154
-18 18 -32 22 -83 22 -34 0 -68 -6 -77 -12z m180 -81 c19 -22 26 -67 11 -68
-92 -3 -200 -1 -206 5 -4 4 -8 20 -9 36 l-2 29 92 4 c50 1 94 4 97 5 4 1 11
-4 17 -11z"/>
<path d="M6613 4703 c-21 -3 -40 -15 -55 -34 -13 -17 -34 -42 -47 -56 -20 -22
-23 -37 -24 -97 -1 -44 6 -92 17 -126 35 -104 32 -100 76 -100 22 0 40 5 40
10 0 6 9 10 20 10 25 0 27 -20 3 -21 -15 0 -14 -2 3 -9 33 -13 238 4 261 22
10 8 26 74 27 118 1 8 -10 40 -22 70 -15 35 -20 56 -13 58 15 5 14 22 -1 22
-7 0 -29 25 -48 55 -20 32 -48 61 -67 70 -29 14 -95 17 -170 8z m217 -105 c11
-18 20 -36 20 -40 0 -5 -61 -8 -135 -8 l-135 0 0 33 c0 19 3 37 7 40 3 4 55 7
115 7 l108 0 20 -32z m51 -79 c5 -8 14 -38 20 -68 16 -76 3 -86 -88 -76 -57 7
-63 10 -38 16 19 4 -3 7 -60 7 -64 0 -81 -2 -57 -8 18 -4 36 -10 39 -14 6 -5
-14 -7 -119 -10 -19 -1 -26 9 -45 64 -27 83 -28 77 4 92 40 19 332 16 344 -3z"/>
<path d="M5705 4673 c-57 -7 -85 -25 -117 -77 -18 -28 -31 -55 -30 -60 2 -5
-1 -12 -6 -15 -23 -15 -62 -89 -62 -116 0 -41 22 -112 41 -130 19 -19 49 -10
49 16 0 15 8 18 47 17 45 -1 45 -1 22 -15 -22 -13 -20 -13 28 -8 30 4 59 2 70
-4 14 -8 1 -10 -54 -11 -39 0 -75 -4 -78 -10 -8 -12 161 -12 190 0 17 7 16 9
-9 9 -16 1 -26 4 -22 9 7 7 11 8 37 11 5 0 7 6 4 11 -3 6 -2 10 4 10 6 0 13
-11 17 -25 11 -46 76 -28 79 22 4 43 13 76 25 83 12 7 14 42 10 124 -2 38 -11
61 -38 99 -19 27 -46 53 -59 58 -24 9 -89 10 -148 2z m113 -69 c22 -4 34 -14
41 -34 5 -16 7 -31 4 -34 -4 -3 -67 -6 -140 -6 l-134 0 7 23 c14 48 32 57 114
57 43 0 91 -3 108 -6z m62 -112 c0 -37 -30 -92 -50 -92 -10 0 -20 5 -22 12 -3
8 -9 8 -24 0 -12 -8 -14 -11 -5 -12 8 0 23 -7 32 -16 17 -15 21 -15 42 -1 18
11 28 33 38 76 7 34 17 61 22 61 11 0 5 -44 -16 -115 -13 -47 -17 -50 -53 -57
-21 -3 -100 -5 -174 -3 -115 3 -136 7 -148 22 -17 23 -10 61 20 109 l25 39
157 0 156 0 0 -23z"/>
<path d="M5405 3659 c-47 -13 -93 -59 -129 -129 -31 -61 -35 -65 -65 -62 -40
4 -53 -22 -22 -44 28 -20 27 -30 -10 -98 -23 -41 -33 -76 -37 -122 -4 -57 -2
-68 21 -103 15 -22 29 -51 33 -65 9 -37 38 -51 75 -36 16 7 29 18 29 24 0 8
59 11 206 10 l205 -1 12 -24 c17 -33 51 -36 80 -6 14 13 40 30 58 37 19 7 39
17 44 22 6 5 -9 2 -32 -7 -65 -26 -75 -11 -13 19 30 15 46 24 35 21 -72 -22
-100 -16 -42 10 29 13 29 14 5 9 -34 -7 -38 13 -5 25 12 5 33 14 47 20 l25 11
-27 -5 c-14 -3 -33 -8 -42 -11 -11 -4 -16 -1 -16 10 0 10 8 16 21 16 16 0 19
3 11 13 -7 8 -6 18 4 32 11 15 15 46 13 120 -1 55 2 107 5 116 5 10 -2 27 -17
45 -13 16 -41 55 -61 87 -21 32 -48 62 -62 67 -31 12 -308 11 -349 -1z m334
-23 c15 -8 20 -16 13 -20 -7 -4 -9 -19 -5 -38 l6 -31 -20 20 c-28 28 -135 38
-286 28 -100 -6 -110 -5 -98 9 26 32 88 43 246 44 82 1 127 -3 144 -12z m-44
-76 c28 -11 39 -32 49 -98 l6 -43 -230 2 c-168 2 -230 6 -230 15 0 18 43 118
55 126 15 11 320 9 350 -2z m79 -205 c-8 -44 -15 -94 -14 -112 1 -44 -39 -75
-80 -63 -23 7 -30 5 -30 -5 0 -23 57 -29 87 -10 21 14 27 15 34 4 6 -9 9 0 10
26 3 141 33 243 72 245 15 0 6 -80 -12 -112 -18 -31 -51 -164 -51 -207 0 -11
-5 -23 -12 -27 -8 -5 -9 0 -6 14 7 27 7 27 -34 3 -34 -20 -175 -42 -258 -40
-67 1 -12 17 65 18 55 1 58 2 43 18 -14 13 -40 17 -128 18 -60 2 -110 -1 -110
-6 0 -5 39 -9 87 -9 47 0 84 -2 82 -5 -8 -8 -283 -9 -307 -1 -28 10 -52 55
-52 101 l0 35 25 -16 c28 -18 35 -8 8 11 -15 11 -15 18 -5 51 7 22 26 60 42
87 26 41 33 46 50 37 11 -6 111 -10 249 -10 223 0 231 1 241 21 19 34 20 17 4
-66z"/>
<path d="M5700 3318 c-24 -29 -47 -63 -53 -75 -10 -23 -14 -23 -176 -23 -178
0 -206 6 -228 50 l-13 25 0 -26 c0 -33 35 -65 67 -61 31 4 52 -13 46 -38 -5
-19 1 -20 86 -22 50 -1 103 -2 119 -2 22 -1 28 4 30 27 3 23 8 27 36 27 28 0
35 5 53 44 12 24 36 60 54 80 17 20 29 39 26 42 -3 3 -24 -18 -47 -48z"/>
<path d="M7030 3649 c-69 -3 -132 -9 -142 -13 -9 -4 -28 -24 -42 -44 -14 -21
-39 -45 -55 -55 -28 -17 -30 -20 -32 -95 -4 -176 -2 -195 29 -277 16 -44 38
-107 48 -140 17 -52 23 -61 51 -69 41 -11 83 -1 83 22 0 31 16 45 44 38 17 -4
26 -13 26 -26 0 -21 24 -28 35 -10 3 6 25 9 48 9 40 -1 40 -2 12 -9 -81 -21
128 -6 223 15 15 4 22 1 22 -9 0 -10 -18 -16 -67 -21 -115 -11 -104 -14 27 -9
111 5 127 8 141 27 10 11 15 26 13 31 -2 6 5 47 16 91 l20 80 -43 84 -42 83
28 22 c21 17 24 25 15 34 -7 7 -21 12 -32 12 -16 0 -18 -2 -7 -9 13 -9 8 -31
-8 -31 -5 0 -27 39 -50 86 -22 47 -50 99 -62 115 -44 62 -111 77 -299 68z
m242 -47 c16 -9 38 -33 48 -52 l18 -35 -204 3 c-164 3 -204 1 -204 -10 0 -11
-2 -11 -9 0 -5 9 -13 -9 -22 -55 -7 -37 -15 -59 -17 -49 -3 15 -6 16 -13 5 -6
-11 -11 -11 -20 -2 -9 9 -8 30 7 92 30 129 43 94 19 -49 -3 -14 2 -5 10 19 8
24 19 49 24 55 7 8 7 24 1 46 -5 19 -7 36 -4 39 10 10 135 17 238 14 71 -2
106 -8 128 -21z m56 -124 c8 -10 52 -116 52 -125 0 -6 -416 -2 -437 3 -25 7
-28 27 -17 97 l7 37 192 0 c142 0 195 -3 203 -12z m-494 -134 c45 -25 46 -25
46 -5 0 23 15 28 23 8 7 -18 61 -22 286 -22 147 0 195 3 199 13 7 22 19 13 50
-35 37 -60 56 -132 48 -176 -11 -60 -56 -82 -128 -65 -54 13 -229 11 -331 -3
-121 -18 -153 4 -172 119 -4 24 -13 46 -20 48 -7 3 -18 17 -24 32 -11 28 -31
112 -26 112 1 0 23 -12 49 -26z"/>
<path d="M9648 7960 c-2 -8 -44 -11 -143 -9 -337 6 -1115 3 -1115 -3 0 -7 60
-11 158 -12 12 0 22 -3 22 -7 0 -4 -46 -54 -102 -112 -57 -58 -113 -119 -126
-136 -13 -17 -32 -31 -43 -31 -20 0 -20 -9 -15 -727 3 -401 8 -771 12 -823 l6
-95 -47 -28 c-45 -27 -47 -30 -42 -64 8 -45 -22 -93 -58 -93 -37 0 -73 -17
-85 -40 -10 -19 -6 -27 35 -67 47 -45 47 -45 28 -66 -60 -68 -69 -123 -26
-163 14 -13 38 -27 52 -30 14 -3 33 -8 41 -11 8 -4 22 -5 30 -4 11 1 11 -1 -2
-9 -23 -14 -23 -37 2 -77 16 -27 26 -33 55 -33 l35 0 -7 -112 c-6 -112 -6
-113 -40 -145 -24 -23 -33 -40 -33 -65 0 -18 -7 -41 -15 -52 -22 -28 -3 -54
43 -58 l37 -3 -5 -875 c-3 -481 -4 -947 -2 -1036 l3 -161 -42 -1 c-58 -3 -63
-12 -6 -12 28 0 47 -5 47 -11 0 -8 -24 -10 -75 -7 -99 5 -96 -9 4 -18 l79 -6
6 -59 c9 -76 29 -68 24 10 l-3 56 255 7 c306 9 787 10 960 2 336 -14 508 -18
501 -11 -5 5 -80 11 -167 14 -87 4 -149 9 -138 13 10 4 224 10 474 14 250 3
493 10 540 16 47 5 89 9 93 9 5 1 5 6 1 12 -10 18 14 27 62 24 25 -2 42 1 39
6 -4 5 0 9 8 9 8 0 17 -7 21 -15 7 -20 40 -19 60 1 9 8 20 13 25 9 5 -3 12 -1
16 5 3 5 0 10 -7 11 -71 6 -93 10 -102 20 -8 9 -7 11 4 7 8 -3 24 -2 35 3 15
5 8 8 -25 9 -68 1 -184 11 -189 16 -10 10 10 13 94 15 50 1 96 4 103 7 30 11
-15 22 -98 23 -74 1 -80 2 -45 10 22 5 67 8 100 8 94 -1 105 0 105 11 0 5 -8
9 -17 8 -10 -1 -65 0 -123 2 l-105 2 65 14 c36 7 91 13 122 14 63 0 87 16 36
24 -98 15 -139 19 -193 22 -33 2 -67 4 -75 5 -9 1 -28 -1 -43 -5 -35 -8 -34 5
1 35 25 22 81 84 127 140 23 28 130 243 140 279 0 3 6 21 12 40 46 143 72 229
76 255 5 26 63 314 73 355 1 8 7 29 12 47 6 17 8 101 6 185 -3 147 -6 183 -21
253 -3 17 -7 39 -9 50 -22 148 -56 289 -76 320 -17 27 -68 124 -68 130 0 3 5
3 10 0 6 -3 10 -2 10 3 0 6 -7 12 -15 16 -8 3 -31 31 -51 62 -20 31 -50 73
-68 93 -18 20 -42 50 -54 68 l-22 31 70 71 c38 39 74 71 80 71 5 0 10 11 10
23 0 13 9 32 20 42 11 10 20 22 20 26 0 5 -25 27 -55 50 -30 23 -53 45 -50 49
13 21 75 256 71 267 -8 19 3 16 53 -12 59 -34 62 -26 5 10 -40 25 -44 32 -38
54 3 14 8 49 10 76 1 28 6 77 9 110 4 33 8 74 10 90 1 17 4 30 5 30 2 0 9 60
13 118 2 26 7 50 10 54 10 9 9 25 0 20 -5 -3 -7 23 -5 58 4 61 -20 199 -40
238 -12 22 -1 37 12 17 5 -8 12 -12 15 -8 9 8 -7 37 -20 37 -5 0 -13 10 -17
23 -8 22 -7 22 7 4 25 -33 27 -11 2 25 -22 33 -54 125 -49 143 2 4 -1 13 -6
20 -10 12 -24 63 -20 70 2 2 -8 16 -21 30 -14 14 -20 26 -13 26 11 0 -35 73
-89 142 -17 21 -29 41 -26 44 6 6 87 -41 171 -100 74 -51 100 -65 66 -36 -35
30 -178 123 -228 149 -24 12 -76 53 -116 91 -40 39 -77 70 -81 70 -4 0 -21 10
-37 22 -17 11 -69 40 -117 64 -123 62 -86 57 57 -8 61 -27 65 -15 5 15 -70 36
-208 80 -368 117 -77 19 -142 36 -145 39 -3 3 -21 7 -40 9 -19 1 -51 6 -70 11
-19 5 -69 14 -110 20 -41 6 -85 13 -96 17 -13 3 -23 1 -26 -6z m-463 -55 c392
-5 506 -10 563 -25 17 -4 32 -5 32 -1 0 3 11 8 24 9 16 1 25 -5 29 -18 4 -17
9 -19 29 -11 12 4 39 6 58 3 29 -4 32 -6 15 -13 -16 -6 -17 -8 -3 -8 9 -1 20
3 23 9 4 6 16 5 33 -4 15 -7 51 -16 80 -20 73 -9 250 -68 336 -112 107 -55
153 -89 246 -183 166 -168 283 -399 306 -602 6 -55 -3 -66 -10 -13 -3 16 -7
36 -9 44 -3 8 -8 27 -11 43 -4 16 -13 27 -23 27 -13 0 -14 3 -6 11 12 12 -3
59 -19 59 -4 0 -8 15 -8 34 0 18 -7 39 -15 46 -8 7 -15 18 -15 24 0 6 -9 22
-20 36 -32 41 -25 -4 9 -53 15 -23 28 -49 28 -57 0 -8 4 -23 8 -32 11 -26 -12
-22 -27 5 -7 12 -11 25 -10 29 1 3 -20 30 -45 60 -26 29 -37 44 -25 34 42 -36
31 -10 -21 51 -62 73 -79 81 -36 17 17 -25 29 -48 26 -50 -3 -3 -11 5 -18 17
-6 13 -21 31 -33 41 -34 29 -114 88 -120 88 -2 0 -53 28 -113 62 -119 68 -210
111 -225 106 -5 -2 26 -21 69 -43 122 -62 218 -120 276 -168 30 -24 65 -47 79
-50 13 -4 30 -18 36 -32 6 -14 15 -25 20 -25 5 0 17 -19 27 -42 11 -24 31 -61
46 -83 14 -22 33 -56 42 -75 36 -79 65 -155 61 -159 -5 -5 -4 -8 -43 74 -122
251 -295 411 -626 578 -75 38 -203 79 -300 97 -94 17 -326 26 -490 19 -82 -4
-296 -8 -475 -9 -179 -1 -376 -5 -438 -8 -62 -4 -119 -5 -127 -2 -10 4 19 40
95 115 60 60 110 113 110 118 0 4 8 19 17 33 16 26 17 26 112 20 53 -4 267 -9
476 -11z m-789 -299 c33 -9 57 -10 68 -4 9 5 22 6 29 1 6 -4 266 -7 577 -6
627 1 786 -7 920 -48 244 -75 335 -114 459 -199 174 -119 275 -253 360 -478
76 -199 82 -225 86 -327 3 -55 7 -111 10 -125 7 -29 7 -341 1 -348 -4 -3 -30
3 -95 24 -11 4 -10 9 6 27 15 16 19 28 13 42 -5 13 1 49 17 99 23 74 23 79 7
97 -28 31 -123 62 -164 53 -49 -11 -55 -11 -55 4 0 7 -15 21 -32 32 -22 13
-33 28 -33 42 0 12 -12 33 -27 46 -16 13 -23 25 -18 28 30 14 37 23 30 40 -12
31 -16 92 -5 99 16 10 11 41 -10 60 -12 11 -20 31 -20 49 0 41 -9 52 -53 71
-43 18 -87 13 -144 -16 -47 -24 -68 -24 -93 1 -23 23 -70 27 -70 6 0 -19 -27
-39 -40 -31 -8 5 -6 13 6 26 17 19 17 20 0 13 -16 -6 -17 -5 -6 15 16 31 7 59
-34 107 -30 35 -34 46 -27 70 11 40 5 52 -40 74 -46 24 -82 26 -99 5 -18 -21
-71 -46 -83 -38 -5 3 -15 -1 -21 -9 -6 -8 -21 -20 -33 -27 -20 -10 -25 -8 -40
10 -10 12 -32 38 -49 58 -18 20 -33 45 -35 55 -5 22 -35 44 -45 33 -4 -4 2
-17 14 -30 12 -13 22 -35 22 -49 0 -17 8 -28 25 -36 14 -7 35 -27 46 -46 l20
-35 37 16 c20 8 45 17 55 19 11 2 34 15 52 29 19 14 40 25 47 25 8 0 19 5 25
11 8 8 20 6 42 -6 40 -20 48 -40 26 -65 -17 -19 -16 -21 29 -71 42 -47 45 -53
31 -69 -12 -13 -12 -19 -2 -30 10 -10 9 -11 -2 -5 -11 6 -13 4 -8 -7 3 -9 -3
-24 -14 -34 -10 -9 -19 -22 -19 -27 0 -6 9 -2 20 8 19 17 21 17 40 0 11 -10
20 -24 20 -32 0 -21 17 -15 23 9 5 16 9 19 19 11 20 -16 88 -8 142 17 80 36
208 20 192 -25 -18 -51 -17 -55 8 -65 14 -5 26 -11 26 -14 0 -16 -14 -36 -25
-36 -25 0 -25 -19 -1 -43 21 -21 23 -29 14 -49 -11 -23 -67 -58 -93 -58 -13 0
-51 -31 -144 -120 -29 -27 -33 -35 -19 -38 11 -2 38 18 70 51 51 51 98 87 115
87 4 0 -1 -7 -12 -16 -39 -29 -116 -107 -111 -112 3 -3 12 1 21 8 8 7 15 8 15
2 0 -5 -7 -15 -15 -22 -8 -7 -15 -17 -15 -22 0 -5 16 4 36 20 24 20 43 28 57
24 20 -5 20 -6 -3 -16 -45 -20 -77 -56 -50 -56 5 0 30 14 54 32 34 23 43 35
35 44 -8 9 -4 16 12 25 18 9 24 9 27 0 3 -8 8 -9 17 -1 10 8 14 4 19 -15 7
-29 18 -31 51 -9 14 9 25 12 25 6 0 -6 -4 -14 -10 -17 -5 -3 -10 -11 -10 -17
0 -7 26 -8 78 -4 68 6 82 4 122 -17 47 -25 65 -62 36 -73 -9 -3 -13 -10 -10
-15 3 -6 0 -16 -6 -24 -6 -8 -9 -19 -5 -25 4 -6 -1 -20 -10 -30 -10 -11 -15
-26 -11 -35 3 -10 2 -13 -4 -10 -9 6 -140 -91 -140 -102 0 -12 48 13 74 38 37
34 53 37 58 7 2 -16 16 -25 56 -38 66 -22 68 -24 52 -57 -7 -16 -12 -39 -11
-53 1 -14 -9 -40 -24 -59 -17 -24 -22 -38 -15 -45 16 -16 12 -43 -19 -104 -55
-109 -151 -218 -151 -172 0 6 -4 10 -10 10 -5 0 -10 -7 -10 -15 0 -8 7 -15 15
-15 31 0 13 -28 -55 -83 -70 -57 -112 -77 -72 -34 12 13 19 26 16 30 -9 9 24
39 36 32 16 -10 12 21 -5 35 -22 19 -18 34 14 53 48 28 144 129 169 177 l23
45 -23 -30 c-46 -60 -91 -105 -103 -105 -7 0 -15 -6 -18 -14 -6 -15 -97 -79
-104 -73 -2 3 22 26 54 52 74 60 132 141 83 115 -14 -7 -20 -7 -20 0 0 5 -7
10 -15 10 -21 0 -20 5 22 79 l37 66 -35 -35 c-19 -20 -50 -49 -69 -65 -20 -17
-30 -26 -23 -22 7 5 18 7 25 5 8 -3 -9 -26 -41 -59 -30 -30 -45 -42 -33 -28
23 27 29 49 12 49 -5 0 -13 -7 -18 -16 -10 -18 -43 -16 -49 3 -2 6 17 24 44
39 26 16 49 31 51 35 2 4 12 17 23 30 10 12 19 24 19 26 0 9 -44 -21 -96 -67
-31 -28 -63 -50 -70 -50 -26 0 -23 19 11 54 19 21 35 33 35 28 0 -5 -9 -17
-20 -27 -11 -10 -18 -20 -15 -23 2 -3 22 10 43 29 21 19 47 40 58 47 10 7 14
10 7 7 -6 -3 -13 0 -15 6 -3 9 -9 9 -26 0 -21 -10 -38 -19 -89 -46 -13 -7 -20
-15 -17 -18 3 -3 3 -11 -1 -17 -8 -13 -85 27 -85 45 0 6 7 21 16 33 9 13 13
26 10 29 -3 4 2 15 11 26 17 20 17 20 -2 12 -11 -4 -31 -10 -45 -13 -22 -4
-21 0 20 42 27 28 38 46 30 47 -11 0 -10 2 2 7 10 4 14 12 10 19 -6 9 -28 -6
-75 -48 -37 -33 -67 -56 -67 -49 0 7 -6 8 -19 0 -11 -5 -24 -10 -30 -10 -22 0
-9 18 37 50 26 19 68 51 93 72 25 21 50 38 57 38 17 0 82 60 82 76 0 9 -15 0
-35 -21 -20 -19 -39 -35 -44 -35 -4 0 -14 11 -21 25 -19 36 -39 31 -89 -20
-25 -25 -55 -48 -68 -51 -17 -5 -22 -11 -18 -24 4 -12 -3 -25 -18 -37 -13 -10
-29 -28 -36 -41 -13 -25 -31 -29 -31 -7 0 8 4 15 8 15 4 0 21 20 36 45 31 48
138 155 155 155 6 0 11 5 11 10 0 6 -12 10 -26 10 -21 0 -25 4 -21 20 8 32 -9
23 -27 -14 -24 -51 -96 -101 -96 -66 0 5 -7 7 -15 4 -10 -4 -18 2 -23 17 -7
17 -2 32 20 65 28 42 39 75 13 40 -8 -10 -28 -34 -46 -53 -29 -32 -33 -34 -47
-19 -15 15 -15 20 1 67 10 28 16 53 14 56 -3 2 -20 -19 -38 -46 -45 -71 -56
-70 -39 4 10 44 10 44 -47 -31 -21 -29 -21 -29 -37 -9 -13 15 -16 36 -13 85 5
87 -8 166 -39 235 -14 31 -24 58 -21 61 2 3 12 -12 22 -33 9 -21 23 -51 31
-67 8 -16 14 -42 14 -58 0 -15 5 -28 10 -28 21 0 10 87 -19 146 -24 49 -74
104 -96 104 -6 0 -62 49 -104 90 -36 35 -138 62 -251 66 -52 2 -110 6 -129 9
l-34 7 6 -204 c3 -112 2 -241 -3 -288 -5 -49 -4 -89 1 -94 13 -14 11 -70 -3
-84 -10 -10 -10 -15 2 -22 12 -8 11 -11 -7 -16 -14 -4 -28 -21 -38 -49 -15
-38 -27 -50 -79 -73 -5 -3 -7 7 -4 22 8 40 -9 41 -22 2 -10 -32 -14 -34 -54
-34 -41 0 -43 1 -42 29 1 16 4 29 9 29 4 0 7 4 7 10 0 21 -29 -4 -32 -28 -3
-25 -4 -25 -21 -8 -17 17 -18 17 -38 -8 -11 -14 -25 -24 -30 -21 -5 4 -9 1 -9
-4 0 -6 -7 -11 -15 -11 -19 0 -19 12 0 74 21 68 18 91 -4 36 -24 -59 -50 -108
-61 -115 -4 -3 -16 -2 -25 1 -17 7 -17 27 0 82 14 42 -11 22 -28 -24 l-17 -46
36 -33 c41 -38 40 -52 -6 -103 -25 -27 -34 -31 -49 -22 -27 14 -41 13 -41 -4
0 -15 21 -26 51 -26 24 0 24 -12 -1 -35 -18 -17 -21 -17 -52 2 -19 12 -31 26
-29 34 2 8 6 32 7 54 3 39 3 39 -13 -12 -15 -49 -33 -71 -33 -40 0 7 -10 17
-22 22 -29 13 -34 47 -13 92 26 55 12 48 -17 -9 -26 -50 -26 -53 -10 -81 20
-33 64 -69 116 -93 38 -19 43 -27 26 -47 -40 -47 -50 -61 -50 -71 1 -11 15 5
93 98 43 51 71 63 37 16 -24 -34 -11 -41 20 -10 11 11 23 20 27 20 3 0 19 15
34 33 l28 32 -14 -50 -15 -50 25 30 c14 17 25 33 25 38 0 18 20 4 26 -18 3
-14 12 -25 18 -25 13 0 51 32 57 48 2 5 16 12 31 15 23 6 32 0 72 -45 45 -52
46 -52 46 -24 0 27 -28 66 -103 144 -29 30 -15 28 47 -8 60 -34 91 -64 81 -79
-3 -6 -1 -11 5 -11 16 0 25 31 11 40 -9 5 -6 9 8 13 14 3 21 13 20 29 l0 23
-11 -22 c-12 -25 -27 -30 -32 -10 -2 6 -11 35 -20 62 -20 63 -21 60 9 79 20
13 30 14 46 5 19 -10 21 -18 17 -62 l-5 -52 18 40 18 40 0 -38 c1 -21 -8 -55
-19 -77 -11 -22 -20 -50 -19 -62 0 -15 7 -6 18 26 20 58 31 45 27 -32 l-3 -51
43 -7 c54 -8 226 19 286 45 25 10 61 33 80 50 20 17 40 31 44 31 5 0 21 14 37
32 l27 33 19 -23 c13 -15 22 -19 27 -11 3 6 1 15 -6 19 -8 5 -10 15 -5 26 6
17 9 15 16 -9 8 -31 7 -47 -10 -89 -19 -49 6 -30 35 27 16 30 33 55 37 55 5 0
6 -4 3 -8 -2 -4 -1 -14 3 -21 6 -9 10 -5 15 13 7 29 26 35 26 9 1 -17 2 -16
15 1 12 16 17 17 30 6 8 -7 15 -18 15 -25 0 -23 26 -24 71 -3 38 17 56 19 136
13 51 -4 96 -11 99 -16 3 -5 -4 -21 -15 -35 -29 -37 -26 -44 13 -44 27 0 41
-7 63 -34 15 -18 43 -41 61 -50 l32 -17 -16 -32 c-9 -18 -26 -43 -38 -56 l-21
-25 27 17 c33 20 48 22 48 4 0 -8 11 -24 25 -37 l25 -23 -22 -19 c-12 -10 -19
-20 -16 -23 3 -3 11 1 18 10 14 17 40 20 40 5 0 -6 -11 -16 -25 -22 -28 -13
-30 -19 -14 -35 20 -20 -17 -61 -86 -95 -36 -18 -65 -38 -65 -45 0 -17 14 -16
51 3 17 8 33 13 37 10 3 -3 0 -6 -6 -6 -23 0 -12 -28 22 -56 19 -16 63 -50 99
-77 113 -84 249 -242 310 -362 50 -99 76 -161 86 -206 6 -26 15 -59 21 -74 12
-31 50 -202 50 -224 0 -24 -16 0 -28 45 -7 23 -12 54 -12 70 0 16 -9 47 -20
69 -11 22 -17 29 -14 16 3 -12 10 -46 14 -75 8 -47 15 -80 50 -246 18 -83 7
-282 -25 -425 -14 -66 -29 -133 -32 -150 -9 -43 -32 -87 -43 -80 -6 4 -10 2
-10 -4 0 -5 6 -12 13 -15 10 -5 10 -7 0 -12 -7 -3 -13 -14 -13 -24 0 -10 -4
-21 -10 -25 -5 -3 -23 -35 -41 -70 -37 -75 -175 -247 -222 -275 -18 -11 -42
-20 -54 -20 -30 0 -39 -18 -11 -22 l23 -3 -23 -23 c-13 -13 -27 -21 -30 -17
-4 3 0 10 8 15 13 8 12 10 -2 10 -10 0 -18 -4 -18 -10 0 -5 -6 -10 -14 -10 -7
0 -19 -7 -27 -16 -21 -25 -96 -59 -219 -97 -303 -95 -545 -117 -1085 -98 -588
20 -635 21 -635 11 0 -6 32 -10 72 -10 123 0 70 -7 -106 -14 l-169 -7 7 308
c7 323 7 819 0 1011 -2 70 0 112 6 112 6 0 10 -17 10 -37 0 -21 2 -76 5 -123
2 -47 5 -138 6 -202 1 -71 5 -115 11 -112 9 6 3 410 -7 460 -2 11 -4 38 -4 61
-1 25 -5 42 -12 40 -6 -1 -12 16 -13 41 -2 31 1 42 12 42 10 0 12 4 4 13 -5 7
-10 100 -11 220 l-2 207 54 0 c37 0 59 5 67 15 12 14 16 13 37 -6 29 -28 29
-33 0 -46 -36 -17 -52 -56 -37 -92 7 -17 16 -31 21 -31 4 0 17 -10 28 -22 15
-16 18 -25 10 -34 -8 -10 -4 -22 16 -49 15 -19 33 -35 40 -35 30 0 142 43 183
70 25 17 49 30 54 30 5 0 26 -12 48 -26 39 -26 40 -26 75 -10 19 9 35 23 35
31 0 20 -29 19 -36 0 -9 -21 -31 -19 -44 5 -6 11 -7 20 -2 20 5 0 35 34 68 76
32 42 68 86 80 99 15 16 18 28 12 39 -10 18 -2 39 12 31 4 -3 6 -15 3 -28 -5
-18 -3 -20 8 -9 7 6 18 12 23 12 6 0 -10 -21 -36 -47 -49 -52 -134 -173 -120
-173 11 0 91 85 127 135 38 52 51 65 65 65 11 0 -46 -78 -85 -115 -12 -11 -31
-35 -44 -53 l-23 -33 27 -23 c27 -23 23 -35 -15 -48 -13 -5 -12 -7 2 -13 11
-4 28 1 47 14 16 12 43 21 60 21 24 0 34 6 43 25 6 14 16 25 23 25 13 0 54 43
72 76 9 16 9 24 0 33 -6 6 -8 11 -4 11 4 0 10 0 14 0 3 0 4 -147 2 -328 -2
-180 -3 -394 -1 -477 1 -82 4 -213 5 -290 l2 -140 33 -3 c17 -2 32 -6 32 -10
0 -4 -24 -39 -53 -77 -54 -70 -161 -164 -174 -152 -4 4 0 13 9 20 8 6 27 35
43 62 15 28 39 65 52 83 14 18 23 35 22 37 -2 2 -33 -34 -69 -80 l-65 -84 -24
52 c-33 70 -38 45 -7 -37 l25 -66 -41 -30 c-23 -17 -58 -35 -80 -40 -21 -6
-38 -15 -38 -20 0 -13 -3 -13 55 8 86 31 211 99 245 134 69 69 128 148 146
195 9 26 21 53 25 58 4 6 10 33 14 60 3 28 10 70 16 95 19 94 22 131 25 335 4
219 -5 313 -45 480 -40 167 -78 219 -215 300 -50 30 -113 77 -140 104 -52 55
-48 65 12 28 20 -13 70 -41 111 -63 41 -21 100 -62 132 -91 31 -29 59 -53 63
-53 3 0 -7 19 -24 41 -23 32 -27 45 -19 55 9 11 7 14 -10 14 -14 0 -21 6 -21
19 0 11 -5 23 -12 27 -8 5 -9 0 -6 -14 7 -27 7 -27 -37 -1 -34 20 -35 22 -20
43 9 11 23 33 33 48 18 30 35 38 26 13 -4 -10 -2 -13 7 -10 16 6 55 -71 62
-120 5 -36 41 -120 56 -129 19 -12 12 25 -24 128 -19 55 -35 110 -35 123 0 27
-67 173 -79 173 -5 0 -21 19 -37 43 -16 23 -33 45 -39 49 -5 4 -7 8 -2 8 13 0
148 -148 180 -197 43 -68 46 -35 4 36 -21 36 -32 64 -27 71 18 30 69 -60 70
-121 0 -15 7 -29 15 -33 9 -3 15 -19 15 -38 1 -18 7 -50 14 -71 14 -39 5 -61
-13 -30 -5 10 -13 15 -16 11 -4 -4 5 -28 21 -54 16 -25 44 -71 62 -102 18 -32
40 -64 48 -72 12 -12 14 -11 14 9 0 13 -8 35 -18 49 -33 48 -34 58 -2 22 25
-29 30 -31 25 -12 -5 19 -2 22 19 22 33 0 33 8 -4 47 -33 35 -31 53 6 84 9 7
38 59 65 115 42 89 58 135 86 251 11 45 20 12 18 -67 l-1 -80 37 40 c20 22 42
40 48 40 15 0 14 -37 -1 -47 -7 -4 -19 -19 -27 -33 -8 -14 -29 -48 -46 -77
-34 -55 -99 -227 -97 -255 0 -10 -4 -17 -10 -15 -5 1 -12 -18 -14 -43 -3 -25
-6 -54 -9 -65 -2 -11 -4 -30 -4 -42 -1 -13 -6 -23 -12 -23 -11 0 -6 70 8 109
4 9 2 12 -3 8 -21 -19 -44 -154 -24 -142 11 7 14 -34 3 -61 -6 -16 -7 -16 -14
2 -5 10 -8 -44 -7 -121 0 -77 -3 -183 -8 -235 -4 -52 -7 -108 -5 -125 1 -16 4
-64 5 -105 4 -133 16 -210 32 -210 8 0 14 -4 14 -10 0 -5 -4 -10 -10 -10 -5 0
-10 -9 -10 -20 0 -11 3 -20 8 -20 4 0 8 -19 10 -43 1 -23 22 -103 47 -177 25
-74 46 -141 47 -147 1 -7 7 -13 14 -13 7 0 14 -3 16 -7 2 -5 15 -19 30 -32 23
-20 31 -22 57 -13 33 12 62 5 146 -34 54 -26 85 -30 85 -13 0 6 -7 9 -15 5 -9
-3 -15 0 -15 9 0 8 -5 15 -10 15 -13 0 -80 43 -80 52 0 3 12 1 28 -7 15 -7 42
-19 60 -26 17 -8 32 -17 32 -21 0 -5 14 -8 30 -8 17 0 30 -5 30 -11 0 -14 221
-2 235 13 7 7 7 9 0 5 -6 -3 -60 -7 -120 -9 -82 -2 -109 1 -108 9 2 7 -15 23
-37 35 -47 27 -51 41 -12 36 15 -2 26 -8 25 -13 -1 -6 20 -10 45 -11 71 0 164
-12 196 -23 39 -15 51 -14 37 3 -7 8 -27 18 -44 22 -30 6 -31 7 -10 15 12 4
32 6 45 3 26 -6 110 -5 117 2 13 13 -22 18 -129 17 -66 0 -117 4 -114 8 3 5
11 9 18 9 8 0 19 7 26 15 18 22 1 18 -46 -9 -28 -16 -46 -21 -55 -15 -11 8
-10 12 5 24 32 24 11 27 -28 4 -46 -27 -57 -18 -27 22 29 39 17 53 -14 17 -25
-29 -51 -38 -42 -15 3 7 -1 21 -8 30 -11 15 -14 15 -25 3 -6 -9 -9 -19 -6 -25
8 -13 -66 -24 -104 -16 -44 10 -103 84 -144 182 -36 85 -44 119 -26 108 14 -8
92 66 134 128 45 67 73 152 87 269 15 117 14 131 -7 298 -11 85 -57 212 -91
252 -16 18 -10 38 12 38 7 0 15 10 18 23 7 26 83 104 93 94 4 -3 -1 -13 -10
-22 -26 -27 -18 -31 9 -5 18 17 22 26 13 31 -7 4 -10 10 -8 12 10 9 50 18 50
12 0 -13 -82 -110 -98 -117 -10 -3 4 -6 30 -5 25 1 44 5 42 9 -6 10 73 86 97
93 10 4 19 10 19 15 0 13 88 63 99 56 5 -3 14 1 21 10 7 8 27 25 44 36 l31 22
-24 -27 c-14 -15 -22 -29 -20 -32 3 -2 50 38 104 90 54 52 105 95 113 95 7 0
10 4 7 10 -3 5 -1 20 6 32 6 13 -23 -11 -65 -52 -55 -54 -79 -71 -85 -62 -4 8
-15 10 -26 6 -15 -6 -17 -4 -12 9 6 15 4 16 -16 6 -20 -11 -21 -11 -8 4 22 27
-4 19 -33 -9 -27 -28 -33 -44 -16 -44 19 0 10 -17 -15 -28 -35 -16 -37 -15
-26 7 6 10 8 21 6 23 -3 3 15 27 40 54 26 27 49 52 53 57 4 4 22 17 41 30 19
12 41 33 50 47 12 19 3 14 -35 -17 -57 -47 -64 -50 -64 -27 0 17 23 44 38 44
5 0 17 9 27 20 25 28 6 25 -35 -5 -18 -14 -36 -22 -39 -19 -3 3 5 13 18 23 13
9 33 25 45 36 12 11 30 19 39 17 9 -2 17 1 17 7 0 6 -7 8 -15 5 -8 -4 -15 -1
-15 7 0 7 -16 -4 -36 -24 -36 -36 -70 -54 -81 -44 -3 3 24 33 59 66 34 33 59
60 53 60 -12 1 -165 -144 -165 -155 0 -4 5 -3 12 4 16 16 34 15 36 0 9 -102 3
-115 -74 -164 -24 -15 -44 -32 -44 -36 0 -4 -6 -8 -14 -8 -11 0 -10 8 5 39 10
22 23 43 29 46 5 3 10 10 10 16 0 20 -22 7 -65 -38 -25 -25 -47 -44 -51 -41
-3 3 0 25 7 47 7 23 10 44 7 47 -10 10 -45 -18 -62 -50 -15 -29 -66 -64 -66
-46 0 5 3 10 8 12 4 2 17 21 29 43 20 38 21 42 5 51 -15 10 -15 13 -3 28 20
24 5 33 -19 11 -11 -10 -20 -14 -20 -9 0 5 19 27 43 49 23 21 36 33 30 25 -7
-8 -13 -21 -13 -29 1 -14 2 -14 13 -1 31 38 79 62 115 57 26 -3 47 2 70 15 38
23 38 25 9 60 -24 29 -87 51 -108 37 -20 -12 -29 -11 -29 4 0 16 -57 67 -75
67 -23 0 -27 33 -7 59 35 49 36 55 4 33 -17 -13 -34 -27 -37 -32 -10 -16 -40
-11 -54 9 -8 11 -20 17 -27 14 -24 -9 -23 15 1 52 l26 37 -43 -35 c-45 -37
-98 -58 -98 -38 0 6 5 11 10 11 6 0 10 7 10 16 0 8 13 29 29 45 16 16 24 29
18 29 -9 0 -9 2 -1 8 11 7 38 52 31 52 -2 0 -17 -19 -33 -42 -44 -67 -74 -101
-74 -86 -1 8 -8 4 -20 -10 -11 -14 -21 -18 -25 -12 -4 6 -2 16 3 23 5 7 20 45
32 86 32 109 32 110 6 56 -14 -27 -25 -57 -25 -66 -1 -9 -7 -19 -15 -22 -9 -4
-13 -14 -9 -29 4 -18 3 -20 -6 -8 -7 10 -11 11 -11 3 0 -7 -4 -13 -10 -13 -6
0 -6 9 0 26 6 14 10 35 9 47 -1 14 -5 9 -11 -15 -6 -21 -14 -38 -19 -38 -12 0
-11 42 1 74 5 14 6 26 2 26 -15 0 -28 -56 -21 -90 10 -46 3 -50 -15 -9 l-14
34 -1 -30 c-1 -22 -8 -33 -26 -41 -13 -7 -26 -9 -30 -6 -11 11 -4 71 15 127
11 33 19 64 17 70 -2 5 -10 -8 -17 -30 -7 -22 -23 -61 -35 -88 -25 -53 -39
-43 -29 21 3 27 2 33 -5 22 -6 -8 -11 -22 -11 -30 -1 -35 -16 -43 -49 -26 -17
9 -31 20 -31 25 0 10 -78 36 -86 28 -3 -3 16 -20 44 -37 28 -17 53 -37 56 -45
12 -33 -59 -115 -100 -115 -24 0 -50 33 -39 50 3 6 3 15 0 20 -6 10 -55 -52
-55 -69 0 -5 -7 -15 -16 -22 -15 -12 -16 -11 -10 9 3 12 9 32 12 45 4 12 16
33 28 47 20 24 20 24 0 7 -11 -9 -29 -17 -38 -17 -14 0 -17 -5 -12 -25 5 -18
3 -23 -7 -19 -9 3 -20 -8 -31 -30 -9 -20 -22 -36 -28 -36 -11 0 -7 40 7 75 6
13 0 10 -18 -10 -25 -28 -28 -29 -41 -12 -7 9 -16 17 -20 17 -13 0 -5 -23 12
-36 14 -10 15 -15 4 -26 -11 -11 -20 -9 -52 10 -46 26 -50 22 -15 -20 28 -33
31 -49 13 -80 -20 -35 -37 -50 -48 -43 -6 3 -17 -1 -26 -9 -8 -9 -20 -16 -25
-16 -13 0 -11 18 2 22 6 2 9 13 7 23 -4 16 -8 13 -22 -17 -16 -38 -36 -51 -36
-23 0 8 -7 15 -15 15 -8 0 -15 -9 -15 -19 0 -20 -25 -35 -52 -32 -11 1 -18 -4
-18 -13 0 -12 5 -14 24 -6 14 5 37 5 55 0 32 -9 75 -2 135 24 47 20 45 20 39
-4 -3 -11 -10 -20 -15 -20 -5 0 -6 5 -2 12 4 7 3 8 -4 4 -6 -4 -9 -13 -5 -21
6 -16 -25 -71 -34 -61 -4 3 -17 -11 -31 -32 -44 -66 -63 -82 -99 -82 -23 0
-42 8 -59 25 l-25 25 -47 -51 c-26 -28 -51 -58 -56 -67 -16 -32 -59 -71 -69
-65 -6 3 -7 1 -4 -4 4 -6 0 -17 -9 -24 -13 -10 -17 -10 -25 2 -6 9 -3 19 9 29
10 8 24 24 32 35 9 12 2 9 -16 -7 -35 -33 -42 -34 -60 -10 -18 24 -17 30 7 43
16 8 23 8 29 -1 5 -8 10 -9 14 -1 14 23 -67 26 -131 6 -18 -6 -23 -3 -23 9 0
10 -5 14 -10 11 -6 -4 -8 -15 -5 -25 5 -14 0 -17 -24 -16 -46 2 -52 15 -49
106 l3 83 34 18 c34 18 97 80 117 114 10 17 12 16 27 -15 9 -18 17 -38 17 -44
0 -6 11 -11 25 -11 30 0 30 -1 3 35 -16 22 -22 45 -22 90 -1 33 -2 60 -4 60
-2 0 -12 -5 -23 -10 -25 -14 -25 -1 3 47 24 41 26 43 64 88 40 48 56 83 41 91
-6 4 -9 4 -6 0 4 -4 -4 -19 -18 -34 -14 -15 -48 -62 -76 -104 -29 -43 -55 -78
-59 -78 -4 0 -5 -6 -2 -14 3 -7 -2 -16 -11 -20 -11 -4 -14 -12 -10 -26 4 -14
2 -20 -8 -20 -8 0 -18 -7 -21 -16 -3 -8 -10 -13 -15 -9 -6 3 -5 16 3 33 7 15
24 49 36 75 14 28 26 43 30 37 10 -17 20 13 13 42 -3 15 -2 19 4 10 10 -14 35
16 78 92 37 67 30 67 -16 0 -50 -72 -51 -72 -57 -56 -5 15 -21 -9 -42 -59 -6
-14 -25 -36 -41 -48 -31 -23 -31 -23 -24 -2 5 16 3 20 -9 15 -9 -3 -16 -2 -16
4 0 11 83 134 127 190 20 25 22 32 10 32 -9 0 -21 -10 -28 -22 -6 -13 -28 -43
-49 -68 -20 -25 -46 -63 -58 -85 l-21 -40 -1 38 c0 29 10 55 42 102 23 35 50
66 60 68 24 7 23 27 -2 27 -11 0 -24 -8 -28 -17 -10 -24 -65 -102 -73 -103
-11 0 3 49 17 61 8 6 14 16 14 21 0 6 -7 5 -15 -2 -13 -10 -15 -9 -15 11 0 13
-3 111 -6 216 l-6 193 26 10 c15 5 35 9 46 7 24 -3 27 17 3 22 -28 5 -53 32
-53 56 0 12 10 37 23 56 27 40 66 49 103 24 14 -9 35 -15 47 -15 12 1 25 2 28
1 7 -1 -29 -72 -74 -145 -16 -25 -27 -56 -25 -68 2 -18 10 -9 35 42 17 36 47
83 66 105 19 22 42 56 52 75 10 19 40 61 67 94 27 32 46 61 43 65 -7 6 -36
-24 -87 -89 l-27 -35 11 35 c15 47 77 112 100 104 10 -3 18 -1 18 5 0 6 -11
11 -25 11 -26 0 -95 -58 -95 -80 0 -16 -49 -90 -60 -90 -5 0 -6 8 -3 17 5 13
3 15 -13 9 -41 -17 -54 -18 -54 -5 0 15 43 69 54 69 4 0 -1 -12 -11 -27 -16
-26 -16 -27 -1 -15 10 8 23 12 30 10 12 -4 48 31 48 47 0 3 7 13 15 21 8 9 17
27 20 42 3 15 13 40 21 56 8 16 12 31 10 34 -9 9 -35 -19 -34 -36 2 -34 -31
-91 -61 -106 -38 -20 -46 -8 -27 39 8 19 14 35 12 35 -1 0 -20 -9 -43 -19 -22
-11 -49 -20 -59 -19 -10 0 -27 -3 -36 -7 -25 -10 -23 17 2 40 11 10 20 23 20
29 0 6 -14 -4 -30 -21 -28 -31 -50 -42 -50 -26 0 4 19 27 43 51 40 42 41 44
23 58 -15 11 -22 11 -27 2 -4 -7 -3 -18 3 -25 7 -9 7 -13 -2 -13 -6 0 -25 -14
-41 -31 l-29 -31 -1 461 c-1 254 -2 473 -3 489 -17 246 -18 273 -6 287 7 8 13
15 14 15 0 0 24 -6 52 -14z m1150 -851 c94 -24 190 -107 235 -202 36 -76 37
-124 4 -182 -28 -48 -29 -51 -17 -51 5 0 17 18 27 40 13 29 21 37 27 28 10
-16 1 -101 -15 -142 -8 -23 -8 -31 1 -34 32 -10 2 -151 -37 -171 -16 -9 -118
-26 -205 -35 -30 -3 -57 -13 -71 -26 -31 -29 -45 -25 -45 13 0 17 -2 79 -5
137 -2 58 -5 213 -6 345 -1 132 -5 250 -10 262 -13 34 29 41 117 18z m-1101
-450 c52 0 60 -3 63 -20 3 -21 -15 -34 -115 -85 l-53 -27 0 79 0 79 23 -13
c12 -7 49 -13 82 -13z m-141 -382 c3 -21 6 -113 6 -204 0 -127 -4 -175 -15
-203 -16 -37 -46 -59 -53 -38 -2 6 -9 9 -17 6 -7 -3 -24 0 -37 7 -13 7 -26 13
-30 14 -20 1 -14 19 27 80 26 37 44 69 41 72 -8 9 -60 -57 -72 -91 -13 -37
-44 -48 -44 -16 0 12 13 34 28 50 16 15 36 40 46 54 19 30 13 68 -9 59 -8 -3
-17 2 -21 10 -3 8 -16 18 -30 21 -13 4 -24 13 -24 21 0 14 56 35 95 35 27 0
55 20 38 27 -21 8 -15 25 6 18 25 -8 33 15 19 53 -9 24 -9 34 1 46 22 26 38
18 45 -21z m2646 -203 l25 -20 -27 -24 c-15 -14 -23 -26 -18 -28 5 -2 2 -12
-5 -22 -15 -19 -50 -24 -95 -12 -21 5 -21 5 3 -5 29 -12 27 -34 -3 -24 -10 3
-21 2 -24 -3 -3 -6 3 -12 14 -15 13 -3 18 -10 14 -21 -3 -9 -10 -16 -15 -16
-4 0 -6 -6 -3 -13 3 -8 -1 -19 -9 -25 -11 -9 -19 -8 -37 8 -12 11 -20 25 -16
32 11 24 31 53 40 60 5 3 11 15 12 25 2 9 8 19 13 21 6 2 11 10 11 19 0 8 8
27 19 41 10 15 21 40 25 55 l7 28 22 -20 c12 -11 33 -29 47 -41z m-810 -464
c0 -7 -110 -86 -116 -84 -4 2 -11 -8 -15 -21 -7 -16 -14 -21 -26 -17 -10 4
-14 4 -10 0 4 -4 -14 -18 -40 -31 -27 -12 -44 -23 -39 -23 5 0 -1 -11 -13 -24
-12 -13 -19 -26 -14 -28 4 -3 2 -3 -4 -2 -15 4 -36 -30 -25 -41 4 -3 1 -5 -7
-3 -7 2 -16 -3 -19 -11 -3 -8 0 -11 7 -7 15 10 14 1 -8 -44 -11 -22 -15 -40
-10 -40 5 0 9 4 9 9 0 22 106 161 124 161 5 0 0 -10 -11 -22 -25 -28 -56 -88
-49 -95 3 -3 -6 -17 -20 -31 -37 -40 -29 -44 12 -6 19 19 39 34 44 34 15 0 19
-43 6 -75 -13 -29 -84 -135 -91 -135 -2 0 -17 12 -33 28 -23 21 -29 34 -27 62
9 103 40 207 68 222 15 8 17 12 7 18 -17 11 47 72 110 105 25 13 74 42 110 64
61 38 80 47 80 37z m-625 -146 c-5 -17 -2 -18 30 -13 28 4 39 2 50 -13 8 -11
14 -14 15 -6 0 6 5 12 11 12 8 0 8 -4 0 -14 -6 -7 -9 -20 -5 -29 3 -8 1 -18
-5 -22 -6 -3 -11 -14 -11 -24 0 -34 -26 -45 -64 -27 -40 19 -45 29 -38 74 4
25 1 32 -12 32 -20 0 -21 24 0 44 19 20 37 11 29 -14z m-505 -120 c12 -8 11
-10 -7 -10 -12 0 -37 -8 -55 -18 -18 -10 -38 -17 -44 -15 -13 4 -66 -43 -89
-82 l-19 -30 34 30 c19 17 28 21 20 10 -23 -31 -34 -41 -53 -48 -10 -4 -16
-10 -13 -15 2 -4 0 -14 -6 -22 -8 -12 -9 -12 -4 3 3 9 4 17 1 17 -2 0 -33 -42
-68 -93 -36 -51 -72 -99 -80 -105 -14 -12 -51 -12 -62 0 -13 12 36 87 120 187
50 59 83 107 78 112 -5 5 -25 -14 -48 -45 -51 -69 -145 -169 -153 -162 -3 3 2
14 11 24 26 29 20 38 -8 12 -34 -32 -32 -17 4 23 114 129 141 161 141 173 0 8
5 14 11 14 6 0 8 -7 5 -17 -5 -13 0 -11 18 6 15 14 26 30 26 38 0 7 6 13 13
13 18 0 67 -23 67 -32 0 -4 -16 -22 -36 -40 -20 -18 -63 -71 -97 -118 -33 -47
-76 -102 -94 -123 -18 -20 -33 -45 -33 -55 0 -20 44 27 105 115 80 115 172
210 227 236 61 29 67 30 88 17z m1030 -108 c0 -4 -17 -25 -37 -47 -21 -22 -56
-63 -78 -90 -22 -28 -62 -77 -90 -110 -28 -33 -56 -71 -63 -85 -19 -37 -35
-55 -53 -62 -23 -9 -71 -97 -72 -130 0 -16 -4 -28 -9 -28 -12 0 -10 20 7 96
18 73 13 101 -5 33 -9 -31 -14 -39 -20 -28 -5 8 -5 18 0 23 5 5 6 22 3 37 -3
18 -1 29 6 29 6 0 11 8 11 18 0 15 2 15 10 2 9 -13 14 -11 35 13 13 15 29 27
34 27 29 0 187 174 249 274 19 32 72 52 72 28z m-130 -349 c54 -115 80 -297
59 -413 -11 -63 -17 -75 -50 -103 -20 -18 -52 -40 -71 -49 -68 -34 -109 -50
-114 -45 -11 10 -14 276 -4 323 6 27 12 63 14 79 7 49 60 187 89 233 33 51 43
47 77 -25z"/>
<path d="M9510 7285 c-25 -13 -58 -24 -73 -25 -41 0 -110 -61 -143 -125 -28
-53 -30 -55 -62 -49 -28 6 -38 2 -67 -26 -26 -25 -37 -30 -51 -22 -25 12 -83
-4 -91 -26 -3 -9 -22 -31 -42 -49 l-36 -31 21 -29 c12 -15 31 -29 43 -31 17
-3 21 -8 15 -25 -10 -36 -22 -42 -43 -23 -18 16 -20 16 -46 -8 -25 -23 -33
-25 -81 -20 l-53 7 -56 -58 c-54 -57 -56 -58 -76 -39 -18 16 -24 17 -52 5 -18
-7 -54 -21 -80 -30 -59 -20 -67 -32 -56 -80 13 -56 12 -59 -32 -66 -34 -6 -61
-28 -48 -39 12 -11 69 -16 69 -7 0 6 -8 11 -17 11 -11 1 -6 6 13 14 17 8 43
12 58 9 31 -6 32 -1 7 35 -25 34 -33 64 -23 80 5 7 40 21 78 32 l69 20 28 -20
c30 -23 51 -18 42 10 -3 10 -1 21 5 25 5 3 10 -1 10 -9 0 -10 9 -16 24 -16 20
0 23 4 22 37 -1 32 3 39 29 52 26 12 32 12 58 -2 35 -21 47 -21 47 -4 0 19 33
47 54 47 9 0 21 -12 27 -27 6 -15 16 -31 22 -36 8 -6 7 -7 -4 -4 -9 3 -25 -1
-36 -8 -12 -9 -24 -10 -34 -4 -19 12 -32 11 -23 -2 3 -6 -6 -22 -22 -34 -35
-28 -27 -44 10 -20 18 12 30 14 43 7 13 -8 19 -5 28 11 16 32 43 33 56 3 14
-29 17 -30 41 -12 17 13 33 106 19 106 -5 0 -16 -16 -27 -35 -18 -34 -42 -50
-30 -20 3 8 2 25 -3 37 -8 22 6 86 29 127 12 24 -2 28 -20 6 -16 -20 -22 -19
-51 6 l-24 21 30 24 c17 13 39 24 49 24 19 0 19 0 1 13 -20 16 -14 22 33 32
24 5 33 3 38 -9 9 -23 44 -20 44 4 0 26 35 43 75 36 28 -6 35 -2 51 21 28 43
44 74 44 89 0 17 37 37 51 28 6 -3 13 3 16 14 5 21 102 56 129 45 10 -3 12 0
8 10 -12 33 57 31 83 -2 11 -14 12 -14 13 1 0 21 -37 48 -65 48 -11 -1 -40
-12 -65 -25z"/>
<path d="M10563 4988 c-13 -6 -23 -14 -23 -19 0 -4 -19 -22 -41 -40 -33 -26
-39 -28 -30 -11 6 11 21 28 33 36 30 21 20 20 -28 -3 -47 -23 -195 -172 -176
-178 24 -9 12 -19 -23 -20 -19 -1 -35 3 -35 8 0 5 6 9 13 10 16 1 82 78 74 86
-4 3 -19 -8 -35 -24 -25 -28 -69 -61 -142 -110 -59 -40 -73 -53 -56 -53 9 0
24 8 34 18 26 26 68 28 75 2 5 -21 -14 -49 -36 -51 -49 -6 -74 -5 -83 3 -6 5
-32 10 -57 12 -25 2 -50 6 -55 10 -6 3 -13 2 -17 -4 -3 -5 1 -10 9 -10 9 0 16
-4 16 -10 0 -5 6 -10 13 -10 7 0 30 -9 51 -21 30 -16 44 -18 65 -11 15 6 39 8
52 5 16 -3 35 4 53 18 25 19 28 27 23 61 l-5 39 31 -7 c17 -3 39 -11 49 -17
13 -9 21 -7 37 7 19 17 20 17 40 -3 41 -41 116 -23 157 39 15 22 34 40 43 40
37 1 78 62 66 100 -6 20 18 44 60 57 32 10 48 43 21 43 -9 0 -16 -4 -16 -9 0
-4 -25 0 -57 10 -64 21 -69 22 -100 7z"/>
<path d="M9550 3684 c0 -67 -25 -194 -46 -235 -7 -15 -11 -29 -8 -32 9 -9 -16
-47 -31 -47 -23 0 -99 -84 -80 -88 8 -2 30 9 50 23 55 43 41 14 -25 -49 -33
-32 -60 -59 -60 -62 0 -15 39 2 87 38 31 24 61 43 67 43 22 1 91 28 99 39 4 7
10 8 15 1 11 -16 195 -106 215 -105 32 0 13 23 -31 36 -24 6 -57 23 -75 37
-18 13 -42 27 -54 31 -13 4 -23 14 -23 22 0 9 -5 25 -11 37 l-12 21 -8 -22
c-9 -25 -29 -30 -29 -7 0 23 -18 18 -23 -7 -3 -13 -3 15 1 62 9 138 7 284 -6
305 -9 17 -11 10 -12 -41z"/>
<path d="M9453 3513 c-8 -21 -47 -69 -87 -108 -55 -55 -92 -81 -166 -117 -119
-59 -179 -84 -219 -93 -27 -6 -45 -25 -23 -25 14 0 109 35 217 80 77 32 108
41 137 37 35 -5 39 -3 44 21 6 27 53 104 67 110 4 2 7 10 7 18 0 8 4 14 9 14
5 0 11 8 14 18 3 9 10 32 15 50 14 44 5 41 -15 -5z"/>
<path d="M15988 2890 c-82 -5 -101 -13 -71 -28 38 -20 128 -32 243 -32 104 0
119 2 123 18 4 16 5 16 6 0 1 -16 14 -18 121 -18 114 0 147 8 98 25 -13 5 -57
9 -98 10 -41 1 -95 6 -119 10 -39 6 -43 5 -37 -10 6 -16 5 -16 -19 -1 -21 14
-23 14 -19 1 5 -13 1 -13 -37 0 -23 8 -44 13 -47 10 -2 -2 -14 1 -26 7 -26 15
-24 15 -118 8z"/>
<path d="M12660 2875 c0 -12 -10 -15 -42 -14 -24 1 -47 5 -53 8 -15 8 -65 10
-65 2 0 -4 -41 -8 -92 -9 -50 -2 -96 -6 -102 -10 -38 -24 336 -39 504 -20 47
5 99 10 115 9 l30 0 -30 14 c-16 8 -38 11 -49 8 -10 -3 -23 1 -27 8 -8 12 -11
11 -19 -2 -10 -18 -115 -25 -125 -9 -3 6 2 10 12 10 15 0 16 2 3 10 -24 15
-60 12 -60 -5z"/>
</g>
</svg>
