<?xml version="1.0" standalone="no"?>
<!DOCTYPE svg PUBLIC "-//W3C//DTD SVG 20010904//EN"
 "http://www.w3.org/TR/2001/REC-SVG-20010904/DTD/svg10.dtd">
<svg version="1.0" xmlns="http://www.w3.org/2000/svg"
 width="1928.000000pt" height="1074.000000pt" viewBox="0 0 1928.000000 1074.000000"
 preserveAspectRatio="xMidYMid meet">
<metadata>
Created by potrace 1.16, written by Peter Selinger 2001-2019
</metadata>
<g transform="translate(0.000000,1074.000000) scale(0.100000,-0.100000)"
fill="#000000" stroke="none">
<path d="M14550 8025 c0 -4 11 -23 25 -41 33 -43 32 -52 -7 -57 -31 -4 -31 -4
6 -5 36 -2 38 -3 33 -29 -9 -46 -17 -1040 -19 -2213 -1 -736 -5 -1107 -12
-1112 -7 -4 -6 -14 1 -30 14 -32 16 -428 2 -445 -7 -7 -7 -18 -1 -30 5 -10 10
-112 11 -228 0 -115 2 -317 3 -447 3 -230 2 -237 -17 -243 -14 -4 -28 4 -48
27 l-28 33 22 -50 c23 -55 46 -85 34 -47 -9 31 16 29 52 -4 21 -19 24 -27 14
-33 -9 -6 -10 -11 -2 -15 18 -11 13 -26 -6 -20 -11 3 -8 -2 7 -13 55 -40 120
-108 116 -120 -4 -8 3 -13 19 -13 19 0 30 -13 59 -71 29 -58 36 -83 36 -130 0
-33 4 -59 9 -59 6 0 10 17 9 38 0 46 20 124 31 118 4 -3 71 -6 149 -7 78 0
142 -5 144 -10 2 -6 85 -5 218 2 202 12 294 16 433 18 31 1 57 6 57 11 0 6 -9
10 -20 10 -10 0 -24 9 -30 20 -13 24 -30 26 -30 5 0 -9 -9 -15 -22 -15 -17 0
-19 3 -10 12 7 7 12 42 12 85 l0 73 28 0 c15 0 63 -4 107 -9 139 -16 232 -21
210 -11 -11 5 -38 9 -60 9 -22 1 -58 6 -80 13 -22 7 -76 12 -120 13 -76 0 -80
1 -83 23 -3 21 -1 23 25 18 15 -3 60 -7 100 -8 53 -2 69 -5 62 -14 -14 -17 13
-20 181 -22 170 -3 262 -7 310 -16 28 -5 31 -5 13 3 -13 6 -23 14 -23 18 0 11
-68 40 -109 47 -18 3 -133 8 -255 11 -121 3 -240 8 -263 11 l-42 5 0 537 c0
295 -4 664 -7 820 -4 155 -4 282 -1 282 3 0 18 -37 33 -82 15 -46 49 -132 76
-193 26 -60 48 -115 48 -122 0 -7 12 -38 26 -70 24 -56 134 -352 149 -403 4
-14 32 -88 62 -165 31 -77 57 -153 58 -170 2 -16 17 -59 33 -95 41 -89 104
-261 99 -267 -3 -2 -22 14 -43 36 -20 23 -39 39 -42 37 -8 -9 73 -95 90 -96
10 0 24 -12 32 -27 8 -16 41 -51 73 -79 144 -128 218 -196 221 -205 2 -5 -24
-9 -57 -9 -34 0 -61 -4 -61 -10 0 -12 5 -13 90 -14 l65 -1 41 -83 c55 -111 75
-128 28 -24 -20 45 -34 85 -31 88 12 13 37 -6 73 -56 20 -27 40 -50 46 -50 5
0 -1 14 -14 31 -59 79 -70 72 93 64 79 -3 192 -7 252 -8 l107 -1 0 -58 c0 -78
18 -74 22 5 l3 62 32 -3 c18 -2 42 3 55 12 15 11 45 16 90 16 l68 0 1 -67 c1
-38 1 -75 0 -85 -1 -9 3 -19 9 -23 7 -4 10 24 10 84 l0 91 38 2 c20 1 48 1 62
0 60 -4 49 12 -15 22 l-70 11 1 45 c10 314 12 770 3 770 -6 0 -7 5 -3 11 11
19 15 269 4 269 -6 0 -11 -36 -11 -87 -2 -87 -2 -87 -9 -28 -4 33 -5 92 -3
130 2 39 5 156 8 260 2 105 8 212 14 238 13 59 19 734 9 957 -8 173 -19 925
-15 1020 1 30 1 315 0 633 l-2 577 23 -6 c13 -3 26 -1 30 4 3 5 -8 12 -24 16
-17 3 -30 12 -30 20 0 8 -10 18 -21 21 -20 7 -67 46 -189 160 -25 23 -66 55
-91 72 -25 17 -51 38 -58 47 -8 9 -17 16 -22 16 -39 0 60 -118 150 -180 57
-38 148 -126 140 -134 -2 -2 -53 1 -114 6 -104 9 -396 5 -676 -8 l-126 -7 -44
54 c-24 30 -80 88 -124 129 -44 41 -81 77 -83 80 -1 3 172 4 385 2 289 -3 398
0 426 9 20 7 37 16 37 21 0 4 -30 9 -67 10 -66 2 -97 4 -118 8 -23 5 -343 -2
-500 -10 -93 -5 -179 -8 -190 -7 -18 2 -20 -4 -21 -56 -1 -32 -7 -129 -14
-215 -8 -99 -10 -218 -6 -322 9 -205 9 -856 1 -870 -3 -6 -1 -10 4 -10 6 0 11
-4 11 -10 0 -5 -7 -7 -15 -4 -12 5 -15 -3 -15 -37 0 -56 -12 -42 -40 46 -13
39 -42 115 -65 171 -24 55 -59 149 -80 210 -20 60 -71 192 -114 294 -42 102
-88 210 -100 240 -13 30 -32 79 -42 109 -11 30 -28 70 -39 88 -26 44 -25 56 3
47 22 -7 22 -6 4 14 -11 11 -25 18 -31 16 -7 -3 -28 16 -47 41 -19 26 -47 62
-62 81 -16 18 -26 38 -22 44 3 5 2 10 -4 10 -13 0 -90 82 -91 96 0 5 -14 23
-31 40 l-31 29 8 -30 c11 -43 61 -122 114 -180 25 -27 58 -67 74 -87 16 -21
35 -38 42 -38 8 0 14 -4 14 -8 0 -11 -708 -3 -743 8 -17 6 -26 6 -22 0 4 -6
-19 -10 -57 -10 -72 0 -73 1 -163 140 -40 63 -79 110 -91 110 -2 0 14 -26 35
-57 37 -57 55 -93 46 -93 -3 0 -17 19 -31 43 -14 23 -45 61 -67 84 -22 24 -38
46 -34 49 4 4 14 1 22 -6 10 -8 19 -10 25 -4 6 6 58 6 127 2 219 -13 712 -14
702 -2 -13 16 -150 23 -548 30 l-334 5 -34 42 c-45 53 -43 52 -43 42z m2056
-424 c-4 -5 -2 -13 4 -16 7 -4 9 -24 6 -48 -14 -109 -17 -168 -17 -380 1 -214
-1 -229 -18 -234 -27 -7 -44 -73 -35 -139 10 -87 24 -73 24 26 0 69 3 91 13
87 9 -3 12 -51 12 -195 0 -104 -3 -194 -7 -198 -15 -14 -21 6 -20 58 1 29 -3
71 -7 93 -7 33 -9 24 -9 -49 0 -94 -15 -133 -27 -74 -4 18 -11 36 -16 39 -5 3
-11 21 -13 40 -2 19 -4 37 -5 42 0 4 -6 7 -12 7 -7 0 -9 -13 -5 -37 11 -64 15
-103 11 -103 -14 0 -40 81 -38 118 1 23 -1 41 -5 38 -4 -2 -7 24 -6 57 0 34
-4 73 -8 86 -5 14 -5 36 1 51 11 34 -2 61 -21 42 -10 -10 -10 -15 2 -22 10 -6
11 -10 3 -10 -10 0 -12 -21 -8 -82 3 -59 1 -78 -7 -70 -14 14 -21 119 -17 257
1 32 -11 798 -13 815 -5 55 5 49 123 -68 67 -66 118 -125 115 -131z m-1746 -3
c0 -10 -5 -18 -11 -18 -7 0 -8 -7 -4 -17 3 -10 6 -124 5 -253 0 -129 -3 -905
-6 -1725 -6 -1760 -5 -1689 -27 -1693 -15 -3 -15 -5 -1 -27 23 -36 13 -50 -17
-26 l-26 20 3 -77 c2 -42 0 -108 -5 -147 -5 -44 -5 -75 1 -82 5 -7 7 -17 3
-22 -10 -17 -3 -284 9 -316 4 -11 0 -7 -9 8 -18 32 -30 211 -30 445 0 72 -2
132 -6 132 -4 0 -9 14 -12 30 -10 47 -24 35 -21 -17 1 -27 4 -118 7 -203 6
-183 -7 -129 -18 75 -4 76 -9 148 -12 160 -7 29 -5 352 2 375 3 11 -1 29 -9
42 -10 15 -12 28 -7 37 5 8 7 20 4 28 -4 9 0 11 11 7 9 -3 16 -1 16 5 0 6 -4
11 -10 11 -14 0 -12 27 3 33 9 4 8 8 -3 17 -12 10 -11 11 8 7 12 -3 22 -1 22
4 0 5 -4 9 -9 9 -5 0 -11 9 -14 21 -3 12 -10 18 -16 14 -15 -9 -14 8 1 23 8 8
8 12 1 12 -11 0 -15 48 -5 64 9 15 10 66 2 71 -4 2 -6 18 -4 35 2 17 0 29 -4
26 -4 -2 -8 7 -8 20 -2 20 1 23 12 13 11 -9 13 -6 10 18 -1 17 -6 35 -10 42
-4 6 -2 11 5 11 8 0 8 4 -1 15 -10 12 -10 15 1 15 10 0 10 3 1 12 -9 9 -9 15
1 26 10 13 9 15 -10 10 -13 -4 -26 -1 -30 4 -3 7 -1 8 5 4 7 -4 12 -1 12 9 0
9 -4 14 -8 11 -5 -3 -9 29 -11 70 -1 55 1 74 11 74 10 0 9 3 -2 10 -11 7 -14
33 -15 114 -1 98 8 137 18 84 4 -20 4 -19 6 5 1 17 -4 27 -13 27 -11 0 -15 18
-18 73 -6 138 -1 1402 6 1437 10 50 13 808 3 913 -5 58 -5 87 2 87 6 0 29 -26
52 -57 23 -32 47 -62 54 -68 34 -29 40 -60 41 -240 3 -229 2 -225 13 -225 5 0
8 88 7 199 0 110 3 197 7 194 21 -13 -21 49 -96 142 l-81 100 112 -110 c61
-60 112 -118 112 -127z m248 22 c50 0 92 -4 92 -9 0 -8 -77 -17 -207 -24 -23
-2 -46 -6 -50 -11 -9 -9 150 -3 322 13 94 8 420 24 479 22 10 0 22 -4 26 -8 9
-10 30 -96 25 -101 -2 -2 -18 16 -36 42 -44 62 -50 49 -9 -16 93 -147 215
-425 330 -753 23 -66 53 -144 66 -173 13 -28 23 -54 21 -56 -1 -1 4 -10 12
-19 7 -10 10 -17 6 -17 -5 0 -1 -8 7 -17 8 -10 40 -95 71 -190 31 -94 76 -224
101 -287 25 -63 46 -120 46 -125 0 -28 75 -228 131 -349 16 -35 29 -65 29 -68
0 -11 47 -104 73 -141 55 -83 67 -71 31 33 -26 77 -27 83 -30 379 -2 165 -4
300 -4 300 -1 0 -2 39 -4 88 -2 73 0 87 13 88 12 1 11 3 -2 6 -12 3 -16 10
-12 21 11 28 15 202 20 767 2 297 4 550 4 562 1 22 2 22 164 21 89 -1 235 2
323 6 l161 8 5 -33 c9 -58 14 -1809 10 -3563 -1 -428 1 -782 3 -786 3 -4 7
-101 10 -216 l5 -209 -227 3 c-126 1 -256 5 -289 8 -56 5 -62 8 -67 30 -3 19
0 24 16 24 18 0 15 5 -16 34 -20 18 -37 41 -37 50 0 15 5 15 48 0 9 -4 28 -8
41 -10 18 -2 21 0 13 8 -7 7 -17 13 -24 14 -7 2 -27 7 -45 12 -17 6 -34 8 -36
5 -3 -2 -11 5 -17 17 -10 18 -10 21 2 15 7 -5 3 3 -8 16 -12 13 -22 31 -22 39
-1 13 -51 160 -81 233 -6 16 -11 35 -11 43 0 8 -4 14 -8 14 -11 0 -47 85 -93
220 -22 63 -44 124 -49 135 -5 11 -16 45 -25 75 -10 30 -35 98 -57 150 -22 52
-46 107 -52 123 -6 15 -14 27 -18 27 -5 0 -8 9 -8 19 0 11 -6 22 -12 25 -7 4
-3 4 8 2 21 -3 21 -2 -7 55 -16 32 -29 61 -29 64 0 3 -10 27 -22 53 -12 26
-22 57 -24 68 -1 12 -19 57 -39 100 -46 98 -47 100 -85 209 -18 50 -38 99 -44
110 -7 11 -18 40 -25 65 -12 41 -31 93 -139 370 -20 52 -38 115 -39 139 -3 45
-13 71 -13 33 0 -12 -4 -22 -8 -22 -13 0 -32 23 -32 39 0 9 -11 21 -25 27 -23
11 -24 11 -13 -10 6 -11 19 -33 29 -48 23 -32 25 -45 4 -28 -23 19 -29 5 -10
-24 14 -20 16 -43 13 -114 -2 -48 -7 -92 -10 -97 -3 -6 -4 -19 -2 -30 5 -26 6
-1272 1 -1735 -1 -195 -6 -361 -10 -367 -5 -7 -4 -21 1 -30 6 -10 12 -44 13
-76 l4 -59 -177 1 c-98 0 -292 0 -432 0 l-253 1 -7 41 c-4 22 -6 518 -4 1102
1 584 0 1553 -1 2152 -1 600 1 1167 4 1261 7 162 8 173 29 183 13 7 14 10 3 6
-20 -5 -32 16 -23 41 5 13 16 15 64 11 31 -4 99 -6 150 -7z m1423 -1141 c18
-18 20 -32 17 -109 -1 -49 1 -92 5 -97 5 -4 7 40 6 97 -1 90 1 105 15 108 18
4 18 4 16 -96 -1 -71 -19 -139 -33 -125 -4 3 -7 -8 -7 -25 0 -17 7 -37 15 -45
13 -13 13 -16 0 -21 -8 -3 -14 -2 -13 2 1 4 -4 20 -11 36 -6 16 -14 62 -17
104 -4 63 -13 123 -24 167 -1 6 -1 24 0 40 2 26 3 27 7 7 3 -13 13 -32 24 -43z
m976 -4 c-4 -8 -2 -17 2 -20 5 -2 7 -22 5 -42 -10 -89 -11 -133 -3 -133 4 0 6
-17 4 -37 -2 -21 -4 -44 -4 -52 -1 -8 -4 -11 -8 -7 -4 4 -6 25 -4 46 2 35 0
40 -18 40 -13 0 -21 -6 -21 -16 0 -13 -3 -14 -13 -5 -8 6 -18 7 -22 3 -5 -4
-5 -1 0 7 4 8 2 16 -5 21 -9 5 -13 37 -14 96 -1 78 1 89 17 92 17 3 18 -4 15
-87 -3 -81 -1 -91 15 -91 14 0 17 11 19 73 1 80 2 85 13 110 9 21 30 23 22 2z
m3 -721 c0 -37 -3 -45 -15 -40 -9 3 -15 0 -15 -9 0 -8 4 -15 9 -15 13 0 20
-42 23 -145 1 -49 6 -96 11 -102 6 -9 5 -13 -2 -13 -6 0 -11 -11 -11 -25 0
-28 -15 -34 -24 -9 -3 8 -10 12 -16 9 -6 -4 -10 11 -8 39 1 33 5 46 16 46 11
0 12 3 4 13 -6 7 -10 49 -9 100 2 48 -1 87 -5 87 -5 0 -6 12 -3 28 6 26 6 26
-9 8 -16 -19 -16 -19 -16 2 0 24 34 32 43 10 3 -8 6 -4 7 7 1 11 3 25 5 30 1
6 3 13 3 18 1 4 4 7 7 7 3 0 5 -21 5 -46z m-7 -480 c4 -4 4 -11 0 -17 -3 -6
-6 -47 -6 -91 2 -134 1 -129 24 -123 13 3 19 1 16 -6 -2 -7 -10 -11 -18 -10
-12 2 -14 -24 -12 -150 1 -83 5 -176 7 -204 3 -31 1 -53 -5 -53 -6 0 -8 -4 -5
-9 6 -10 -16 -61 -26 -61 -13 0 -9 22 7 34 10 8 12 15 5 26 -8 13 -10 12 -10
-2 0 -10 -4 -18 -10 -18 -14 0 -12 17 3 32 11 10 11 15 2 24 -19 20 -8 175 13
193 16 13 16 13 0 8 -10 -3 -19 -3 -22 1 -9 15 -10 72 -1 72 6 0 11 -4 11 -10
3 -26 7 -22 14 15 7 38 2 64 -7 38 -3 -7 -8 -13 -11 -13 -9 0 -7 304 2 318 8
13 19 15 29 6z m-4 -753 c20 -20 24 -71 5 -64 -6 2 -14 -3 -17 -11 -4 -10 3
-17 26 -21 49 -11 52 -18 49 -94 -3 -53 -7 -71 -18 -71 -10 0 -14 16 -15 63
l-2 62 -8 -65 c-4 -36 -6 -72 -3 -80 9 -34 11 -79 3 -92 -7 -10 -9 -9 -9 5 0
9 -4 17 -8 17 -19 0 -20 -14 -4 -39 16 -25 16 -25 -1 -12 -15 12 -17 11 -17
-8 0 -12 6 -21 15 -21 8 0 15 -4 15 -10 0 -16 -27 -11 -34 6 -9 23 -7 84 2 84
5 0 14 16 20 37 8 27 8 33 0 25 -15 -15 -31 -15 -22 -1 10 17 13 163 3 175
-13 15 -6 72 8 67 13 -5 6 34 -8 43 -10 6 -12 24 -4 24 3 0 14 -9 24 -19z
m-1324 -352 c-3 -4 1 -11 9 -16 8 -4 34 -55 56 -113 23 -58 57 -138 77 -179
19 -40 32 -80 29 -87 -3 -8 -1 -14 4 -14 6 0 10 -9 10 -19 0 -11 6 -26 13 -33
16 -16 40 -83 42 -118 1 -14 7 -38 14 -54 21 -52 4 -53 -19 -1 -12 28 -37 83
-56 123 -19 40 -34 76 -34 81 0 9 -26 75 -81 207 -20 50 -41 108 -44 128 -4
20 -10 36 -14 36 -6 0 -13 17 -39 90 -4 11 0 10 16 -4 12 -10 19 -22 17 -27z
m1351 -114 c-7 -20 8 -62 18 -47 4 7 14 12 22 12 12 0 14 -16 13 -80 -1 -70
-4 -80 -20 -80 -25 0 -32 16 -31 76 0 40 -4 53 -16 57 -15 3 -17 -4 -14 -52 4
-74 10 -103 22 -96 12 7 12 -3 0 -30 -6 -13 -9 -15 -9 -5 -1 12 -3 13 -10 1
-19 -30 -28 3 -29 101 -1 98 1 104 26 130 31 31 36 34 28 13z m-2875 -177 c0
-18 2 -45 4 -61 2 -17 0 -25 -7 -21 -7 4 -6 0 1 -13 6 -11 8 -23 5 -25 -6 -7
-5 -459 1 -528 3 -30 8 -71 11 -90 6 -34 5 -34 -14 -17 -17 16 -20 33 -23 135
-4 184 -4 594 0 625 5 38 21 34 22 -5z"/>
<path d="M16745 7318 c-7 -19 -8 -45 -7 -135 l2 -83 39 0 c21 0 52 5 69 11
l32 11 -6 91 c-3 51 -7 98 -10 105 -2 8 -23 12 -59 12 -35 0 -57 -5 -60 -12z"/>
<path d="M16938 7324 c-5 -4 -8 -54 -8 -110 0 -117 4 -122 86 -109 36 5 45 11
50 31 8 31 1 170 -9 180 -10 10 -111 17 -119 8z"/>
<path d="M17140 7320 c-21 -13 -28 -189 -9 -201 16 -10 74 -11 107 -3 22 6 23
10 18 78 -3 39 -5 86 -5 104 -1 32 -2 32 -48 32 -27 0 -55 -5 -63 -10z"/>
<path d="M16745 6917 c-3 -7 -4 -60 -3 -118 3 -101 4 -104 27 -107 13 -2 39
-1 58 3 l34 6 -3 112 -3 112 -53 3 c-37 2 -54 -1 -57 -11z"/>
<path d="M17137 6923 c-3 -4 -6 -55 -8 -113 l-4 -104 33 -7 c19 -4 49 -3 68 3
l35 9 -3 107 -3 107 -57 3 c-31 2 -58 -1 -61 -5z"/>
<path d="M16738 6403 c-5 -134 -5 -133 52 -133 81 0 80 -2 80 121 l0 109 -64
0 -64 0 -4 -97z"/>
<path d="M17133 6083 c-4 -9 -7 -60 -7 -113 -1 -93 0 -95 23 -98 13 -2 44 -1
68 3 l43 6 -2 107 -3 107 -58 3 c-47 2 -58 0 -64 -15z"/>
<path d="M16757 5703 c-16 -4 -17 -16 -15 -116 l3 -112 60 0 60 0 3 111 c3
109 2 112 -20 118 -25 6 -64 6 -91 -1z"/>
<path d="M16943 5702 c-7 -5 -12 -44 -12 -114 l-1 -107 44 -6 c67 -10 86 -1
87 43 1 20 3 68 4 105 3 65 2 69 -21 78 -30 11 -84 12 -101 1z"/>
<path d="M17142 5702 c-8 -6 -15 -44 -18 -109 -6 -95 -5 -102 14 -112 23 -12
81 -14 98 -3 7 4 13 51 16 114 4 86 2 108 -9 113 -22 8 -86 6 -101 -3z"/>
<path d="M16748 5269 c-15 -8 -18 -25 -18 -109 0 -119 7 -127 98 -115 l42 6 0
108 c0 104 -1 109 -22 115 -34 9 -81 7 -100 -5z m97 -114 l0 -90 -49 -3 -49
-3 6 85 c3 47 9 91 12 96 4 6 23 10 43 8 l37 -3 0 -90z"/>
<path d="M16937 5274 c-4 -4 -7 -56 -7 -115 0 -123 3 -127 86 -114 l45 6 -3
112 -3 112 -55 3 c-31 2 -59 0 -63 -4z"/>
<path d="M17153 5273 c-22 -4 -23 -8 -23 -113 0 -122 1 -124 75 -113 l45 6 0
107 c0 103 -1 108 -22 114 -24 6 -39 6 -75 -1z"/>
<path d="M16742 4739 l3 -113 50 -3 c28 -2 55 0 62 5 8 5 13 44 15 112 l3 105
-68 3 -68 3 3 -112z m106 -6 l3 -93 -46 0 -45 0 0 88 c0 49 3 92 7 96 4 4 23
6 43 4 l35 -3 3 -92z"/>
<path d="M16944 4837 c-2 -7 -3 -58 -2 -113 3 -111 3 -110 88 -97 l35 5 0 106
0 107 -58 3 c-41 2 -59 -1 -63 -11z"/>
<path d="M17136 4828 c-3 -13 -6 -63 -6 -111 l0 -88 58 3 57 3 7 95 c4 52 5
101 3 108 -3 7 -24 12 -59 12 -47 0 -54 -3 -60 -22z"/>
<path d="M16571 4441 c-10 -6 -13 -36 -13 -112 l-1 -104 39 -3 c72 -6 79 5 79
121 l0 102 -45 3 c-25 1 -51 -2 -59 -7z"/>
<path d="M16758 4428 c-10 -57 -9 -196 2 -203 14 -9 71 -9 99 0 19 6 20 13 19
93 -1 48 1 96 5 107 7 19 3 21 -57 23 -59 2 -64 1 -68 -20z"/>
<path d="M16946 4442 c-2 -4 -6 -54 -7 -112 l-3 -105 27 -9 c18 -7 39 -5 67 4
l40 13 0 109 0 108 -59 0 c-33 0 -62 -3 -65 -8z"/>
<path d="M17188 4443 l-36 -4 -4 -102 c-2 -56 -1 -106 3 -111 9 -10 104 5 101
17 -1 4 -2 52 -2 107 0 74 -3 100 -12 98 -7 -1 -29 -3 -50 -5z"/>
<path d="M16568 3972 c-4 -48 -4 -102 1 -160 1 -17 108 -14 115 4 2 6 3 25 0
40 -2 16 -7 54 -10 84 -7 65 -18 79 -66 85 l-35 5 -5 -58z"/>
<path d="M16775 4016 c-16 -12 -19 -27 -20 -107 l0 -94 43 -3 c65 -5 72 6 72
109 0 77 -2 90 -19 99 -27 14 -54 13 -76 -4z"/>
<path d="M16963 4013 c-16 -16 -19 -34 -19 -114 l1 -94 48 -3 c71 -5 75 3 70
111 -3 50 -8 95 -12 98 -3 4 -20 10 -38 14 -24 5 -36 2 -50 -12z"/>
<path d="M17150 4001 c-5 -11 -10 -58 -10 -105 l0 -86 35 0 c19 0 46 5 60 12
24 11 25 15 24 87 -2 109 -3 111 -54 111 -34 0 -47 -5 -55 -19z"/>
<path d="M16989 3642 l-36 -3 -6 -97 c-4 -53 -3 -99 1 -103 14 -14 80 -21 86
-10 4 6 15 11 24 11 15 0 17 11 14 100 -2 55 -6 100 -10 101 -4 0 -14 1 -22 2
-8 1 -31 1 -51 -1z"/>
<path d="M16761 3632 c-7 -2 -11 -37 -11 -99 l0 -95 30 -11 c17 -6 30 -16 30
-22 0 -7 3 -7 8 0 4 6 20 19 35 29 27 16 28 21 23 65 -3 26 -3 51 1 54 11 11
11 67 0 74 -11 7 -98 11 -116 5z"/>
<path d="M17140 3586 c0 -29 -3 -74 -6 -100 l-7 -46 47 0 c78 0 81 4 78 109
l-3 91 -55 0 -54 0 0 -54z"/>
<path d="M4770 7972 l0 -29 -192 3 c-264 3 -736 -8 -712 -16 44 -16 661 -30
787 -19 50 5 67 4 67 -6 0 -6 -11 -17 -25 -23 -14 -6 -25 -16 -25 -22 0 -5 -5
-10 -12 -10 -6 0 -18 -7 -27 -15 -9 -9 -50 -42 -91 -74 -41 -32 -81 -65 -89
-74 -7 -9 -17 -15 -21 -12 -4 3 -18 -11 -31 -29 l-23 -34 -226 5 c-124 3 -232
9 -240 14 -9 5 52 9 145 11 88 1 174 3 190 4 17 1 47 3 68 3 20 1 37 5 37 10
0 5 -34 8 -77 6 -43 -2 -153 -4 -245 -4 -103 -1 -169 -5 -173 -11 -4 -6 -11
-7 -17 -4 -6 4 -15 0 -20 -7 -7 -11 -11 -11 -15 -1 -3 7 -25 12 -58 12 -33 0
-55 -5 -58 -12 -4 -10 -6 -10 -6 0 -1 14 -51 17 -51 2 0 -5 -7 -6 -17 -3 -10
4 -14 2 -10 -4 7 -11 -89 -30 -99 -21 -2 3 16 18 40 34 117 77 315 215 326
229 27 32 -2 26 -67 -14 -37 -23 -143 -92 -234 -154 -92 -62 -175 -117 -185
-124 -17 -10 -16 -11 11 -10 28 2 30 -1 36 -43 4 -25 7 -166 7 -315 -1 -312
10 -853 18 -907 l6 -38 -40 0 c-68 0 -103 11 -112 35 -9 25 -56 65 -75 65 -6
0 -26 -18 -43 -40 -33 -40 -38 -42 -142 -55 l-45 -5 -3 595 c-2 539 1 634 21
583 6 -16 0 269 -8 342 -3 30 -3 72 1 92 5 34 9 37 42 40 81 8 -282 7 -594 -1
-311 -9 -333 -11 -370 -31 -21 -12 -50 -32 -64 -45 -40 -37 -184 -118 -188
-106 -6 17 -22 13 -22 -5 0 -19 -19 -36 -74 -65 l-38 -20 -15 20 c-18 26 -33
27 -26 2 3 -12 -3 -24 -18 -35 -18 -13 -20 -16 -7 -16 14 0 17 -10 17 -52 0
-60 6 -260 21 -658 6 -151 8 -300 6 -330 -3 -30 -7 -129 -11 -220 -3 -91 -8
-194 -12 -230 -4 -36 -5 -69 -4 -75 2 -5 5 -86 6 -180 2 -93 9 -296 15 -450
11 -253 11 -429 -3 -1160 -1 -44 2 -111 6 -150 4 -38 12 -110 18 -159 9 -88
24 -167 36 -196 3 -8 7 -28 9 -44 9 -69 114 -295 190 -411 18 -27 31 -52 28
-54 -2 -3 -41 31 -86 75 -44 43 -73 68 -64 54 38 -58 368 -380 419 -409 76
-43 84 -56 92 -138 7 -70 7 -73 -16 -82 -17 -7 38 -10 176 -11 220 -2 233 -3
320 -18 75 -13 711 -17 719 -4 3 5 -33 12 -82 16 -146 10 -202 18 -202 27 0
12 67 12 88 0 10 -5 46 -4 92 3 84 12 141 13 160 1 8 -5 16 -2 22 9 5 9 27 19
48 22 22 4 40 11 40 16 0 4 10 12 23 17 12 5 76 34 141 65 65 31 121 55 124
52 2 -3 6 -44 7 -91 l3 -85 -184 3 c-110 2 -184 0 -184 -6 0 -5 6 -7 14 -4 7
3 18 1 24 -5 5 -5 65 -12 132 -14 93 -4 134 -1 177 11 39 12 59 13 66 6 16
-16 35 -13 57 9 11 11 29 20 40 20 13 0 18 5 14 15 -4 10 0 15 10 15 9 0 19
-7 22 -15 7 -16 76 -19 124 -6 25 7 25 7 3 13 -13 3 -25 3 -27 0 -11 -17 -106
4 -120 27 -8 12 28 37 67 46 17 5 27 3 27 -4 0 -6 -9 -11 -20 -11 -11 0 -20
-5 -20 -10 0 -7 88 -10 255 -9 140 1 255 6 255 10 0 10 -36 13 -127 10 -34 -1
-64 3 -68 9 -3 6 4 10 16 10 12 0 20 3 16 6 -6 7 -33 10 -167 22 -52 5 -88 10
-80 12 8 1 20 3 25 5 6 1 16 3 24 3 35 4 -3 14 -73 19 -55 3 -76 2 -76 -7 0
-8 13 -10 43 -5 39 7 41 6 26 -10 -12 -13 -25 -15 -48 -10 -17 4 -31 11 -31
16 0 12 -37 11 -62 -2 -15 -8 -19 -8 -14 0 4 6 1 14 -8 17 -8 3 -17 12 -20 21
-5 11 -2 14 10 9 23 -9 248 -10 531 -3 136 3 235 1 239 -4 3 -5 17 -9 32 -8
l27 1 -30 13 c-17 7 -94 16 -180 20 -143 6 -197 14 -124 16 72 3 225 -1 252
-7 16 -3 27 -1 27 5 0 6 -21 12 -47 12 -27 1 -59 3 -73 5 -54 6 -258 8 -310 2
-30 -4 -46 -4 -35 -1 11 3 23 10 27 16 5 8 66 11 187 11 100 -1 181 3 181 8 0
4 -15 8 -32 8 -25 0 -29 3 -18 10 8 5 31 7 50 5 32 -5 33 -5 10 6 -31 13 -78
18 -208 20 -56 1 -105 5 -107 9 -2 4 -24 5 -47 2 -64 -6 -88 -6 -142 0 -27 4
-78 2 -113 -4 -36 -5 -67 -7 -70 -4 -4 3 38 50 93 105 172 172 348 359 325
346 -7 -4 3 18 23 49 20 31 36 63 36 70 0 8 4 16 8 18 10 4 49 87 58 124 4 16
10 34 15 39 8 11 54 170 69 240 5 22 13 52 19 67 9 23 40 181 45 228 1 9 5 21
10 28 4 7 2 12 -4 12 -7 0 -8 6 -1 19 6 10 8 34 6 52 -2 19 -5 54 -6 79 -1 25
-4 48 -6 52 -2 3 -5 80 -7 170 -3 89 -8 237 -12 328 -4 91 -6 173 -5 183 3 30
3 61 1 92 -1 17 -1 172 -1 345 0 173 1 554 1 845 0 292 1 647 1 790 0 143 -3
287 -6 320 -9 98 1 138 41 160 19 10 34 22 34 27 0 11 -17 10 -25 -2 -3 -5
-17 -10 -30 -10 -17 0 -24 5 -23 18 3 41 -3 82 -12 82 -5 0 -10 -13 -10 -28z
m-1780 -64 c0 -7 -37 -38 -83 -68 -45 -30 -100 -71 -122 -91 -78 -70 -126 -99
-169 -100 -23 -1 -31 -4 -18 -6 52 -10 14 -21 -95 -27 -151 -9 -364 -6 -358 4
7 11 -254 24 -315 16 -28 -4 -50 -3 -50 1 1 10 99 76 200 134 44 25 95 60 113
77 l33 32 234 0 c208 0 285 4 524 25 33 3 62 7 64 10 11 10 42 5 42 -7z m-14
-165 c-14 -279 -19 -462 -15 -613 7 -279 4 -858 -4 -867 -4 -4 -17 -2 -27 5
-11 7 -27 12 -35 12 -8 0 -15 5 -15 10 0 6 -13 10 -29 10 -32 0 -61 -30 -61
-63 0 -17 -25 -31 -47 -28 -4 1 -8 36 -8 79 -1 159 -5 235 -12 228 -4 -3 -6
-78 -5 -166 2 -105 -1 -160 -8 -160 -6 0 -10 44 -11 118 0 64 -1 134 -1 154 0
20 3 61 6 91 5 35 3 57 -3 62 -7 4 -8 13 -3 23 5 9 10 159 11 332 0 173 3 338
6 365 2 28 6 99 9 159 l6 109 37 33 c21 18 42 33 46 34 5 0 6 -18 2 -40 -4
-21 -3 -45 2 -52 5 -8 10 3 14 32 4 25 3 49 -2 54 -5 6 18 36 56 73 36 35 65
69 65 76 0 12 19 37 28 37 1 0 1 -48 -2 -107z m1780 -5 c-7 -122 -8 -1417 -1
-1798 8 -434 4 -592 -17 -617 -9 -11 -8 -13 0 -11 8 2 13 -45 17 -162 2 -91 7
-193 10 -227 4 -44 2 -63 -6 -63 -8 0 -8 -4 -1 -12 12 -16 21 -158 10 -158 -4
0 -8 6 -9 13 0 9 -2 9 -6 -1 -3 -7 3 -20 13 -27 16 -12 17 -14 3 -15 -13 0
-18 -18 -25 -92 -4 -51 -8 -99 -7 -105 0 -7 -3 -13 -8 -13 -10 0 -13 41 -10
103 2 20 -2 37 -7 37 -6 0 -10 -36 -10 -89 0 -50 -3 -109 -7 -132 -5 -29 -4
-40 4 -35 6 4 11 2 11 -3 0 -6 -7 -11 -15 -11 -8 0 -15 -4 -15 -10 0 -5 5 -10
11 -10 8 0 9 -29 5 -97 -8 -122 -13 -177 -16 -183 -1 -3 -2 -13 -1 -22 3 -25
-47 -184 -68 -219 l-18 -29 2 38 c1 20 -3 43 -8 50 -5 7 -7 15 -3 19 3 3 6 1
6 -5 0 -7 5 -12 10 -12 6 0 10 6 10 14 0 7 7 19 15 26 8 7 12 16 9 22 -3 5 0
15 6 23 6 8 9 19 5 25 -3 5 -1 10 5 10 6 0 8 5 5 10 -4 6 -11 8 -16 5 -5 -4
-9 -1 -9 4 0 6 5 11 12 11 9 0 9 3 1 11 -12 12 -7 37 14 57 18 19 17 53 -2 46
-8 -4 -15 -12 -15 -19 0 -7 -5 -15 -10 -17 -6 -2 -13 -21 -15 -43 -7 -56 -25
-107 -44 -125 -19 -18 -23 -61 -7 -73 7 -6 6 -7 -4 -4 -8 2 -15 14 -14 26 0
11 -4 21 -9 21 -5 0 -6 7 -3 15 3 8 9 22 12 30 3 8 2 15 -4 15 -6 0 -15 -14
-21 -31 -13 -39 -14 -42 -1 -34 6 3 10 2 10 -4 0 -5 -5 -13 -11 -16 -6 -4 -8
-13 -5 -21 3 -7 -4 -18 -14 -24 -11 -6 -20 -17 -20 -24 0 -8 -7 -19 -15 -26
-8 -7 -15 -23 -15 -36 0 -12 -5 -26 -11 -30 -6 -3 -9 -19 -7 -35 3 -16 2 -27
0 -24 -14 13 -88 -142 -77 -159 3 -3 0 -3 -5 2 -6 5 2 40 21 92 33 89 44 127
54 173 3 15 10 25 15 22 6 -3 7 1 4 10 -8 20 4 65 17 65 6 0 9 -7 5 -15 -3 -8
-1 -15 4 -15 5 0 12 9 15 20 3 11 11 20 16 20 5 0 9 5 9 11 0 5 -5 7 -12 3 -7
-4 -8 -3 -4 5 4 6 -1 14 -13 19 -15 5 -18 11 -11 22 8 13 11 13 19 1 7 -11 11
-10 20 7 15 29 14 37 -4 22 -12 -10 -15 -10 -15 4 0 9 8 16 18 16 14 0 15 2 2
10 -10 7 -11 10 -2 10 7 0 15 -6 18 -14 3 -8 15 -16 26 -19 11 -3 17 -3 14 0
-3 3 1 15 9 27 19 26 20 53 3 39 -7 -6 -23 -13 -36 -16 -22 -5 -22 -4 5 22 51
51 61 68 56 95 -3 15 -1 26 6 26 5 0 8 -8 5 -17 -3 -10 2 -5 11 10 9 15 16 50
17 78 0 42 3 49 16 44 13 -3 17 2 18 20 2 20 -1 23 -10 15 -13 -10 -26 -4 -26
12 0 5 4 7 9 4 5 -3 11 6 14 20 3 20 0 28 -14 31 -26 7 -33 36 -31 133 0 47
-3 77 -6 67 -13 -30 -5 -184 13 -268 6 -27 5 -32 -5 -22 -7 6 -14 35 -17 64
-2 29 -6 55 -8 58 -11 11 -12 -7 -4 -54 19 -101 20 -142 4 -155 -8 -7 -12 -16
-9 -21 3 -5 -2 -16 -10 -24 -14 -14 -14 -10 -9 35 4 34 2 50 -6 50 -6 0 -11
-7 -11 -15 0 -8 -4 -15 -9 -15 -5 0 -4 14 2 31 l12 30 17 -21 c16 -20 17 -20
10 17 -3 21 -6 52 -7 68 0 17 -4 33 -8 36 -5 4 -2 20 7 37 14 26 14 31 1 42
-13 11 -15 8 -15 -16 -1 -28 -1 -29 -17 -9 -14 17 -15 18 -9 2 3 -10 2 -26 -4
-36 -6 -12 -5 -24 4 -37 7 -10 16 -28 19 -39 l7 -20 -15 20 c-8 11 -19 26 -25
33 -6 6 -7 12 -3 12 4 0 1 5 -7 10 -13 8 -12 18 4 82 29 120 38 140 58 135 12
-4 18 1 18 13 0 10 7 31 15 46 22 42 18 194 -6 194 -4 0 -3 -15 2 -32 11 -41
11 -58 0 -58 -9 0 -26 67 -22 84 1 6 -3 21 -10 34 -9 17 -10 28 -2 40 6 10 7
38 3 70 -5 40 -3 52 7 52 7 0 13 5 13 10 0 20 19 10 23 -12 6 -30 6 56 0 105
-3 21 -10 37 -18 37 -18 0 -36 53 -41 120 -3 32 -11 61 -21 70 -14 14 -15 12
-10 -17 5 -23 3 -33 -6 -33 -9 0 -9 -2 0 -8 6 -4 15 -21 18 -37 7 -26 6 -28
-7 -15 -24 25 -40 70 -25 70 9 0 9 2 0 8 -16 10 -28 82 -14 82 6 0 11 -4 11
-10 0 -5 5 -10 11 -10 8 0 8 4 0 13 -6 8 -11 37 -12 66 -1 28 -6 54 -10 57 -5
2 -6 11 -2 19 3 10 -1 15 -13 16 -11 0 -14 3 -6 6 15 6 16 67 2 94 -6 11 -13
77 -15 147 -7 194 -16 432 -20 479 -2 24 1 45 6 49 5 3 6 11 2 17 -4 7 -8 82
-9 167 -1 85 -3 211 -4 280 -1 69 -1 268 0 443 l1 317 27 18 c39 25 62 43 99
78 18 17 35 29 38 26 3 -3 5 5 5 17 0 21 -6 18 -59 -28 -32 -28 -62 -51 -67
-51 -4 0 -16 -7 -26 -17 -10 -9 -21 -14 -24 -11 -3 3 37 37 88 76 56 42 96 66
100 59 3 -6 13 7 22 28 9 21 19 36 21 33 3 -3 27 14 53 38 26 24 49 44 51 44
2 0 1 -46 -3 -102z m-2637 -133 c2 -2 -7 -6 -20 -9 -114 -23 -104 -24 194 -24
169 0 310 -1 312 -4 3 -3 7 -932 4 -1018 0 -8 0 -102 1 -209 1 -106 0 -194 -2
-196 -2 -2 -19 -10 -39 -18 -31 -13 -40 -13 -68 -1 -19 8 -43 14 -56 14 -50 0
-108 -78 -86 -118 9 -17 -1 -29 -76 -95 -82 -74 -87 -77 -124 -71 -33 6 -42 3
-69 -24 -34 -34 -37 -54 -15 -96 15 -29 14 -32 -41 -123 -50 -83 -59 -93 -86
-93 -34 0 -78 -39 -78 -70 0 -12 7 -35 16 -52 17 -32 15 -46 -23 -176 -12 -43
-20 -56 -43 -63 -53 -19 -68 -104 -25 -149 24 -25 24 -27 16 -129 -7 -91 -11
-107 -31 -123 -48 -39 -51 -30 -46 125 5 143 -8 664 -20 812 -4 44 -5 226 -3
405 5 461 5 827 -1 1189 l-5 315 25 6 c26 6 382 1 389 -5z m1843 -29 c5 -7 40
-10 104 -8 106 4 285 -6 301 -16 7 -5 13 -209 17 -602 9 -926 18 -1344 32
-1392 13 -44 -20 -11 -63 64 -26 45 -75 113 -110 152 -35 39 -59 72 -53 74 14
5 70 -47 70 -63 0 -7 9 -20 20 -30 26 -24 26 -5 1 52 -23 49 -61 78 -94 69
-32 -8 -181 120 -184 159 -3 38 -41 94 -69 101 -13 3 -37 1 -54 -5 -35 -12
-51 -7 -147 42 -44 22 -63 37 -63 50 0 11 -16 35 -35 54 -39 39 -74 42 -90 6
-11 -25 -33 -31 -40 -10 -2 6 -6 145 -9 307 -3 162 -7 342 -10 400 -3 58 -7
193 -10 300 -3 107 -8 204 -10 215 -2 11 -6 37 -10 57 l-7 37 158 4 c203 4
346 -2 355 -17z m-521 -1371 c6 -4 9 -24 8 -46 -2 -21 0 -41 4 -45 4 -4 7 -18
7 -32 0 -18 -4 -23 -16 -18 -52 20 -276 26 -405 12 -57 -7 -59 -6 -57 17 1 13
-4 37 -11 55 -13 32 -10 62 8 62 5 0 11 -10 15 -22 3 -13 20 -31 37 -41 20
-11 29 -23 25 -32 -13 -34 18 -22 71 29 61 59 94 77 101 56 4 -10 6 -9 13 1 4
7 23 13 42 12 28 -1 43 -10 74 -44 21 -23 36 -49 35 -58 -3 -13 -1 -13 12 -2
19 16 21 31 4 31 -7 1 -27 20 -45 44 l-31 43 49 -8 c27 -4 54 -11 60 -14z
m-501 -45 c0 -5 -6 -10 -12 -13 -7 -2 -2 -2 12 0 14 3 22 1 18 -3 -4 -4 -4
-12 1 -18 5 -6 7 -23 4 -38 -4 -21 -13 -28 -51 -38 -26 -6 -71 -20 -100 -31
-61 -22 -62 -22 -62 -9 0 5 11 12 25 16 13 3 24 9 23 13 0 3 0 16 1 29 1 24
21 31 21 7 0 -8 4 -15 10 -15 5 0 7 13 4 30 -6 26 -4 30 15 30 14 0 25 -9 31
-25 10 -27 20 -33 20 -12 0 8 -9 24 -20 37 -26 30 -25 38 5 46 14 3 25 11 25
16 0 6 6 5 15 -2 8 -7 15 -16 15 -20z m670 -2 c96 -25 220 -84 220 -104 0 -8
5 -12 11 -8 6 3 23 -5 37 -18 15 -13 47 -34 72 -48 52 -27 147 -105 161 -132
9 -17 6 -18 -48 -12 -180 18 -241 33 -227 55 3 5 -2 6 -10 3 -9 -4 -37 7 -63
24 -27 17 -95 53 -152 81 l-104 49 -4 73 c-4 67 -3 71 14 64 10 -4 52 -16 93
-27z m-211 -132 l46 -11 8 -95 c9 -121 -1 -357 -18 -418 -11 -42 -25 -77 -71
-187 -7 -16 -22 -58 -33 -92 -11 -34 -30 -86 -42 -115 -12 -29 -28 -73 -36
-98 -23 -75 9 -28 45 65 39 101 80 204 92 230 5 11 13 37 19 58 13 51 34 97
44 97 5 0 7 -69 6 -152 -4 -176 0 -167 -113 -292 -62 -70 -96 -93 -96 -65 0 5
-5 7 -10 4 -12 -8 -42 14 -35 25 4 6 16 161 40 505 13 194 15 315 5 315 -5 0
-11 -10 -11 -22 -1 -13 -2 -45 -4 -73 -7 -142 -17 -311 -20 -315 -3 -5 -6 -52
-21 -318 -6 -114 -6 -114 -30 -109 -14 2 -27 0 -30 -4 -14 -24 -37 -2 -74 71
-46 91 -50 115 -50 294 0 126 4 162 14 115 6 -32 64 -287 83 -369 20 -86 36
-111 28 -45 -4 39 -57 267 -89 385 -23 84 -28 139 -33 362 l-6 256 54 6 c30 3
68 7 84 9 52 5 205 -5 254 -17z m-422 -207 c-3 -111 -8 -204 -11 -207 -4 -3
-7 10 -7 29 -2 33 -4 79 -13 226 -3 46 -11 81 -21 95 -16 22 -16 18 -10 -77 4
-55 8 -123 10 -152 2 -29 12 -80 22 -115 18 -64 24 -239 13 -372 l-5 -60 -28
50 c-16 27 -48 82 -73 123 -25 40 -43 76 -40 79 3 3 2 10 -3 16 -14 18 -37
196 -46 360 -8 153 -24 150 -19 -4 2 -74 6 -146 9 -160 3 -14 7 -71 10 -127 3
-65 10 -113 19 -130 l15 -28 1 25 c1 25 13 7 94 -142 15 -27 30 -48 35 -48 5
0 12 -8 17 -17 9 -23 21 -143 14 -143 -3 0 -24 19 -45 41 -22 23 -73 66 -113
96 -39 29 -79 64 -87 77 -10 15 -16 58 -19 132 -3 60 -6 111 -7 114 -3 10 -8
109 -11 259 l-3 154 45 23 c25 13 77 33 115 44 39 11 81 24 95 29 55 19 53 27
47 -190z m-487 186 c0 -3 -11 -16 -25 -28 -17 -15 -26 -36 -30 -66 -3 -25 -7
-47 -9 -49 -3 -2 -1 -15 4 -28 7 -18 6 -22 -5 -17 -8 3 -15 0 -15 -6 0 -8 -23
-10 -70 -8 -39 2 -73 0 -76 -5 -5 -7 50 -13 84 -9 6 1 19 -2 26 -6 11 -6 -2
-26 -55 -82 -38 -40 -69 -76 -69 -78 0 -3 -24 -42 -53 -86 -53 -81 -87 -146
-87 -165 0 -5 -9 -29 -19 -53 -11 -24 -29 -78 -40 -120 -11 -41 -26 -89 -32
-105 -7 -16 -13 -86 -15 -159 -1 -71 -3 -132 -3 -134 -1 -2 -17 17 -36 43 -31
39 -35 51 -29 81 3 19 10 38 15 41 5 3 9 15 9 28 0 12 9 32 20 44 11 11 16 23
11 26 -5 3 -14 28 -21 56 -7 27 -15 48 -20 45 -8 -5 2 -66 15 -97 4 -11 3 -18
-3 -18 -6 0 -14 -17 -18 -37 -4 -21 -12 -45 -19 -53 -17 -19 -37 -92 -24 -84
14 8 38 -14 69 -63 15 -23 31 -39 35 -35 5 4 4 0 -1 -8 -4 -8 -9 -22 -9 -30 0
-10 -9 -14 -30 -13 -27 2 -28 2 -7 -7 26 -11 27 -21 8 -63 -8 -18 -17 -39 -20
-47 -4 -8 -13 -26 -21 -40 -18 -31 -14 -34 18 -17 18 10 23 17 16 24 -7 7 -7
16 0 29 6 11 15 31 21 47 13 38 28 34 35 -10 4 -21 11 -54 16 -73 13 -51 12
-54 -18 -35 -26 17 -26 16 4 -14 17 -18 35 -46 38 -64 4 -18 12 -38 18 -45 17
-22 1 -24 -73 -12 -76 13 -90 26 -90 85 0 13 -5 25 -12 27 -20 7 -37 102 -23
135 8 18 9 34 3 46 -5 9 -6 22 -2 28 4 6 2 14 -4 18 -13 8 -19 72 -8 89 4 7 3
19 -3 26 -6 7 -8 15 -6 18 3 3 6 26 7 52 0 25 6 50 13 54 30 18 47 83 32 122
-12 28 -14 75 -5 86 5 7 17 10 27 7 10 -3 22 0 25 6 5 7 -3 11 -19 11 -22 0
-25 3 -20 20 4 12 9 37 11 58 6 43 21 63 33 44 7 -11 19 -8 60 13 29 14 55 33
58 41 6 17 -12 58 -40 90 -20 23 -18 28 26 99 6 11 27 44 45 73 23 38 36 51
45 44 24 -19 57 -21 67 -4 9 16 9 16 10 1 0 -9 6 -21 13 -27 11 -9 13 2 11 60
-2 39 -7 75 -13 81 -15 15 11 48 82 103 108 85 167 120 167 99z m80 -14 c0 -5
11 -12 25 -15 14 -4 25 -12 25 -19 0 -13 -153 -127 -170 -127 -23 0 8 127 34
142 9 5 31 6 49 2 28 -6 30 -5 18 10 -11 14 -11 16 3 16 9 0 16 -4 16 -9z
m1041 -40 c87 -38 230 -126 291 -178 87 -75 174 -164 214 -219 38 -54 61 -97
135 -259 46 -101 79 -301 79 -480 0 -395 -230 -818 -557 -1023 -91 -57 -159
-90 -167 -81 -2 2 -28 72 -57 154 -53 147 -54 152 -55 268 0 64 2 117 6 117 3
0 52 -73 108 -162 86 -138 156 -239 139 -203 -7 17 -121 205 -180 299 -31 49
-59 103 -61 120 -11 72 -15 186 -7 186 5 0 58 -44 118 -97 156 -139 293 -258
328 -283 52 -39 -75 80 -245 229 -91 79 -173 153 -182 164 -12 13 -18 36 -18
68 0 27 2 49 6 49 3 0 53 -28 111 -61 132 -76 474 -252 479 -246 3 2 -58 37
-133 77 -76 40 -211 113 -300 163 l-163 90 0 45 c0 41 2 44 23 39 371 -83 707
-144 686 -123 -2 2 -101 22 -220 45 -236 44 -478 97 -487 105 -12 12 -5 90 9
98 8 4 88 19 179 33 255 40 595 105 515 99 -38 -4 -204 -28 -367 -55 -163 -27
-308 -49 -322 -49 -24 0 -26 3 -26 44 0 25 6 48 13 53 6 4 71 35 142 69 281
132 555 268 550 272 -7 8 -134 -50 -612 -279 -44 -21 -84 -39 -87 -39 -3 0 -6
31 -6 69 l0 69 185 178 c102 98 185 182 185 187 0 8 -272 -236 -324 -292 -17
-17 -33 -31 -38 -31 -10 0 -9 119 1 183 4 26 5 49 2 52 -4 2 -6 32 -4 67 1 35
3 163 3 286 0 171 3 222 13 222 6 0 51 -18 98 -39z m-983 -339 c2 -152 6 -285
9 -296 4 -13 2 -16 -8 -11 -9 6 -11 3 -6 -9 4 -10 7 -37 7 -60 0 -35 4 -45 23
-54 l22 -11 -22 0 c-16 -1 -21 -6 -17 -16 4 -8 2 -15 -4 -15 -5 0 -94 41 -197
90 -103 50 -190 88 -193 86 -4 -5 341 -175 357 -176 3 -1 20 -12 36 -26 17
-15 22 -24 13 -20 -21 6 -24 -13 -5 -33 10 -11 10 -13 0 -7 -16 9 -17 -6 -1
-22 9 -9 9 -12 0 -12 -7 0 -12 -8 -12 -17 0 -14 2 -15 9 -4 7 11 11 9 20 -8
11 -21 10 -21 -36 -16 -26 3 -149 26 -271 50 -123 25 -231 45 -240 45 -33 0
-1 -12 70 -26 235 -48 415 -87 431 -95 14 -8 17 -23 17 -84 0 -86 14 -77 -145
-95 -55 -6 -134 -15 -175 -20 -41 -5 -108 -12 -148 -16 -40 -4 -75 -10 -78
-15 -3 -5 14 -7 38 -4 147 17 457 49 478 49 24 1 25 -1 28 -72 2 -62 0 -73
-15 -79 -64 -22 -450 -177 -457 -184 -16 -14 76 17 259 89 99 39 189 72 200
74 19 3 20 -2 17 -92 l-3 -95 -38 -35 c-20 -19 -92 -84 -159 -144 -67 -60
-120 -111 -118 -114 6 -5 32 16 185 151 67 59 125 107 129 107 4 0 7 -80 7
-178 l0 -178 -32 -62 c-40 -76 -36 -82 6 -10 31 55 35 54 45 -16 6 -42 58
-161 83 -188 9 -10 12 -18 7 -18 -12 0 -77 40 -85 52 -3 5 -24 19 -47 31 -107
58 -336 288 -411 413 -37 63 -83 176 -79 192 1 4 -5 21 -13 37 -49 93 -82 405
-58 547 6 38 15 70 19 73 5 3 7 12 4 20 -5 12 7 54 34 125 3 8 7 20 7 25 4 25
18 71 25 80 5 6 17 33 28 61 10 29 40 83 66 121 25 38 46 74 46 80 0 6 33 44
73 84 39 41 82 87 95 103 12 16 22 25 22 22 0 -4 19 9 42 28 23 20 47 36 53
36 7 0 20 9 30 20 10 11 21 20 24 20 3 0 7 -125 9 -278z m1387 209 l100 -6 3
-52 c2 -29 8 -53 14 -53 6 0 8 23 5 62 l-5 62 35 -39 c18 -22 40 -52 48 -66 8
-15 21 -29 29 -32 17 -7 116 -165 116 -187 0 -8 6 -33 14 -55 8 -22 16 -72 19
-112 3 -39 8 -76 11 -81 10 -17 14 -485 5 -510 -5 -13 -6 -29 -2 -35 3 -6 8
-58 11 -116 l4 -106 -40 41 -40 42 11 48 c6 27 17 53 24 57 7 4 13 15 13 23 0
8 -4 12 -10 9 -6 -4 -10 16 -10 52 -1 201 -41 434 -92 543 -107 226 -127 261
-196 337 -39 43 -102 103 -141 133 -69 54 -92 82 -48 58 12 -6 67 -14 122 -17z
m459 -674 c3 -29 9 -70 13 -92 9 -45 9 -277 0 -345 -4 -25 -8 -81 -11 -125 -4
-69 -31 -179 -36 -150 -6 28 2 120 11 136 5 11 8 23 5 28 -6 9 -7 64 -5 346 0
125 -4 236 -11 275 -22 119 -21 136 5 57 13 -43 26 -102 29 -130z m-1664 1
c48 -35 143 -134 152 -158 11 -30 -9 -24 -87 25 -38 24 -94 55 -122 69 l-53
25 0 67 0 68 38 -35 c20 -19 53 -47 72 -61z m38 -141 c144 -83 152 -108 27
-87 -65 11 -75 16 -76 34 -1 18 -2 18 -6 3 -4 -16 -11 -18 -41 -12 -20 4 -40
9 -44 11 -5 3 -8 34 -8 70 0 75 -17 78 148 -19z m-95 -81 c15 -4 27 -13 27
-21 0 -17 17 -20 22 -5 2 7 23 7 63 0 90 -16 95 -19 95 -45 0 -27 -7 -30 -102
-40 l-58 -6 0 35 c0 20 -4 36 -9 36 -4 0 -7 -14 -5 -32 5 -37 -8 -48 -53 -48
l-33 0 0 70 c0 51 3 68 13 66 6 -3 24 -7 40 -10z m457 -22 c63 -25 78 -77 40
-139 -28 -45 -57 -56 -110 -42 -35 10 -46 18 -58 46 -20 49 -2 105 41 131 39
24 37 24 87 4z m-171 -8 c8 -10 9 -16 1 -21 -6 -3 -8 -10 -5 -14 2 -5 0 -22
-4 -39 -7 -23 -6 -30 3 -26 8 3 11 -5 10 -26 -1 -22 5 -38 23 -54 l25 -24 -36
-108 c-20 -60 -40 -122 -45 -139 -17 -57 -9 36 14 178 3 19 0 27 -10 27 -13 0
-13 4 1 25 12 19 13 25 4 23 -9 -2 -13 11 -14 42 -1 25 -5 50 -9 57 -4 6 -3
14 2 18 6 3 8 12 4 20 -3 9 0 22 6 29 8 10 9 16 1 21 -5 3 -10 10 -10 16 0 14
26 11 39 -5z m-81 -114 c3 -18 -7 -26 -50 -46 -29 -13 -64 -27 -77 -31 -14 -4
-45 -18 -69 -31 -67 -36 -72 -33 -72 36 0 33 1 60 3 61 1 0 23 3 50 6 l47 5 0
-36 c0 -20 4 -36 10 -36 5 0 8 17 7 38 l-2 37 65 11 c79 14 84 13 88 -14z
m437 -21 c44 -16 50 -23 53 -50 2 -17 1 -31 -2 -31 -3 0 -28 16 -56 36 -27 20
-50 31 -50 25 0 -5 20 -22 44 -36 24 -14 49 -32 55 -38 13 -17 27 -101 15 -96
-5 2 -40 36 -78 76 -53 56 -67 76 -61 90 8 16 10 24 14 38 2 8 14 6 66 -14z
m-442 -52 c6 -23 -28 -59 -139 -146 -27 -22 -55 -47 -63 -56 -7 -10 -18 -17
-24 -17 -5 0 -15 -8 -22 -17 -11 -15 -13 -4 -14 65 l-1 82 43 18 c23 11 74 32
112 47 39 16 74 32 80 37 15 13 22 9 28 -13z m430 -89 l77 -91 0 -87 c0 -98
-4 -97 -55 18 -15 36 -37 81 -48 100 -11 19 -33 59 -49 89 -15 29 -28 47 -28
40 0 -7 -3 -10 -6 -6 -8 8 5 27 19 27 7 0 47 -41 90 -90z m-278 -106 c-20 -82
-54 -210 -77 -284 -22 -74 -49 -166 -60 -205 -36 -128 -89 -300 -98 -320 -5
-11 -11 -31 -14 -45 -10 -46 -34 -144 -95 -383 -34 -130 -61 -248 -61 -261 0
-20 -6 -24 -47 -30 -25 -3 -48 -5 -50 -3 -1 2 8 32 22 67 13 34 28 79 31 99 4
20 31 106 61 191 60 169 141 426 193 615 18 66 44 150 57 188 14 37 40 127 58
200 27 109 69 259 91 326 3 10 8 11 15 4 7 -7 0 -56 -26 -159z m135 138 c0
-15 22 -90 49 -167 26 -77 63 -183 81 -235 18 -52 55 -160 82 -240 27 -80 65
-190 83 -245 146 -435 221 -648 251 -713 13 -29 24 -55 24 -58 0 -3 -14 -4
-32 -2 l-31 3 -146 436 c-80 239 -159 478 -175 530 -16 52 -33 99 -36 104 -4
6 -28 78 -54 160 -92 290 -118 370 -133 403 -16 36 -11 52 18 52 14 0 19 -7
19 -28z m-287 -77 c-4 -22 -14 -51 -23 -65 -9 -14 -30 -45 -46 -70 -16 -25
-32 -49 -37 -55 -14 -19 -76 -110 -94 -137 -10 -16 -20 -28 -23 -28 -8 0 -5
124 3 137 4 7 3 14 -2 17 -14 9 -22 -43 -17 -112 3 -41 0 -74 -9 -95 -13 -29
-14 -20 -15 112 0 144 0 145 27 173 34 35 43 35 44 1 1 -23 3 -22 9 9 5 27 19
48 51 75 24 21 62 55 84 75 34 31 41 34 47 20 3 -9 4 -35 1 -57z m-1133 -38
c6 -23 19 -71 29 -107 l18 -65 -23 -28 c-13 -16 -24 -35 -24 -43 0 -24 47 -64
74 -64 29 0 46 -23 66 -87 11 -36 10 -47 -4 -84 -16 -39 -16 -43 0 -60 12 -14
31 -19 65 -19 45 0 50 -3 74 -37 14 -21 25 -45 25 -55 0 -9 9 -22 19 -28 18
-9 51 -62 51 -82 0 -4 -11 -8 -25 -8 -29 0 -59 48 -48 77 6 16 5 16 -10 4 -25
-20 -21 -68 8 -96 27 -28 46 -30 94 -14 28 10 36 8 69 -14 20 -13 68 -54 107
-91 38 -36 74 -66 80 -66 5 0 20 -11 33 -24 20 -22 21 -26 6 -40 -20 -20 -43
-20 -72 0 -16 11 -21 22 -16 36 4 14 2 18 -5 14 -6 -4 -11 0 -12 11 0 14 -3
12 -10 -6 -12 -29 -4 -55 24 -81 24 -23 50 -25 96 -9 23 8 31 17 31 35 0 31
15 30 86 -6 32 -16 65 -30 72 -30 22 0 20 -6 -91 -377 l-30 -103 -64 0 c-62 0
-64 -1 -74 -30 -6 -16 -15 -30 -20 -30 -15 0 -68 39 -123 90 -28 25 -44 37
-37 28 8 -11 9 -18 3 -18 -23 0 -195 177 -261 268 -102 143 -156 251 -193 392
-5 19 -13 51 -19 70 -12 43 -49 241 -55 295 l-4 40 20 -40 c22 -43 21 -28 -6
65 -12 41 -17 110 -20 266 -1 116 0 221 3 232 5 21 6 21 44 -9 27 -21 42 -42
49 -72z m1582 -107 c52 -108 56 -120 60 -203 3 -48 1 -84 -2 -80 -12 13 -133
367 -157 458 -8 31 37 -48 99 -175z m-212 144 c0 -9 18 -75 40 -147 39 -130
59 -191 139 -415 l40 -113 -27 -11 c-15 -6 -61 -13 -102 -15 -66 -4 -79 -2
-107 19 l-33 23 -6 210 c-3 115 -8 212 -11 215 -3 3 -3 -88 -1 -202 2 -115 1
-208 -2 -208 -14 0 -50 48 -69 92 -20 46 -20 48 -1 125 10 43 32 116 49 163
24 67 71 257 71 285 0 4 5 3 10 0 6 -3 10 -13 10 -21z m1190 -56 c14 -23 19
-49 19 -87 -1 -33 3 -56 11 -61 7 -4 10 -15 7 -25 -4 -9 -10 -14 -14 -12 -5 3
-9 -14 -10 -38 -1 -40 -21 -94 -56 -155 -8 -14 -23 -44 -33 -68 -29 -70 -67
-87 -45 -19 10 28 9 43 -5 78 -23 59 -38 74 -30 29 4 -19 11 -64 15 -100 8
-65 8 -65 -35 -131 -23 -36 -57 -78 -76 -94 -18 -15 -68 -61 -111 -101 -43
-41 -84 -74 -91 -74 -10 0 -13 21 -12 80 1 44 -2 80 -6 80 -8 0 -9 -8 -12
-100 l-1 -55 -60 4 c-32 1 -69 7 -81 11 -14 6 -28 4 -40 -5 -11 -7 -27 -14
-36 -16 -12 -3 -15 -8 -8 -18 6 -11 12 -12 22 -4 22 17 90 23 130 11 28 -8 44
-8 63 0 14 6 25 8 25 4 0 -11 -111 -83 -178 -116 l-52 -26 -9 22 c-5 13 -18
49 -29 81 l-20 59 56 25 c152 69 344 234 439 378 25 38 57 86 70 106 12 19 23
41 23 48 0 7 8 11 18 9 9 -2 24 5 33 16 16 19 22 22 79 33 31 5 40 18 18 25
-20 7 -71 -15 -97 -40 -32 -32 -36 -22 -12 27 12 22 21 45 21 52 0 6 7 25 15
42 21 47 45 120 45 140 0 28 29 19 50 -15z m-1424 -42 c0 -19 -4 -32 -10 -30
-7 3 -11 -16 -11 -48 -1 -52 -14 -84 -101 -248 l-18 -35 -9 32 c-7 25 -5 41 8
70 10 21 21 40 24 43 5 4 24 39 40 75 2 6 -3 4 -12 -4 -10 -7 -17 -20 -17 -27
0 -8 -5 -14 -11 -14 -5 0 -8 -4 -5 -8 3 -5 -4 -15 -15 -22 -10 -8 -19 -24 -19
-37 0 -12 -4 -25 -10 -28 -6 -4 -10 6 -10 24 0 16 4 31 8 33 17 6 152 224 152
244 0 8 4 14 8 14 4 0 8 -15 8 -34z m-890 -111 c11 -7 33 -39 48 -71 15 -31
41 -76 57 -100 34 -50 36 -58 10 -44 -11 5 -26 10 -33 10 -7 0 2 -8 20 -17 19
-9 40 -26 48 -37 73 -102 107 -141 177 -204 45 -41 107 -91 137 -111 57 -40
218 -121 238 -121 16 0 15 -22 -3 -83 -24 -83 -24 -83 -90 -58 -32 12 -70 30
-84 39 -14 9 -34 22 -45 27 -13 7 -20 25 -22 55 -2 25 -10 67 -17 95 -14 58
-29 65 -123 58 -42 -3 -64 0 -71 9 -6 7 -16 49 -21 93 l-11 80 3 -83 c2 -46
-1 -85 -5 -87 -14 -9 -39 7 -39 26 0 10 -9 23 -20 29 -18 10 -110 140 -110
156 0 4 10 3 23 -1 12 -4 40 -10 62 -14 38 -6 40 -8 37 -41 -1 -26 0 -31 8
-20 5 8 10 25 10 38 0 16 4 21 13 16 9 -6 9 -4 -1 8 -11 13 -88 31 -144 33
-25 1 -56 33 -63 66 -4 16 -11 27 -16 23 -5 -3 -14 7 -19 23 -6 15 -14 37 -19
48 -20 44 -30 85 -20 85 5 0 9 5 9 10 0 6 -5 10 -11 10 -17 0 -38 32 -39 58 0
23 2 24 53 17 28 -4 61 -13 73 -20z m880 -130 c-10 -91 -126 -478 -150 -502
-3 -3 -8 3 -12 13 -3 10 -10 31 -15 45 -6 14 -9 30 -8 35 1 5 -3 20 -8 35 -6
14 -9 37 -6 52 6 33 -23 69 -38 46 -11 -17 -11 -1 0 26 5 11 4 29 -2 40 -17
34 -9 78 28 145 20 36 33 54 29 40 -4 -14 -7 -35 -6 -48 1 -13 -2 -21 -7 -18
-4 3 -6 -6 -3 -19 4 -26 -12 -35 -22 -12 -3 6 -4 0 -1 -16 3 -15 1 -36 -5 -47
-6 -12 -7 -20 -1 -20 5 0 12 6 14 13 9 22 28 -16 23 -45 -7 -39 7 -42 24 -5
10 23 10 32 2 35 -7 2 -12 10 -12 17 0 7 -3 15 -7 17 -5 2 0 26 9 53 9 28 18
48 19 45 6 -15 5 -79 -1 -75 -3 2 -4 -9 -2 -26 5 -32 16 -38 26 -12 6 15 8 15
16 3 6 -8 10 -19 10 -25 0 -5 -4 -3 -10 5 -8 13 -9 13 -14 0 -2 -8 -7 -24 -11
-35 -6 -18 -11 -55 -19 -143 -4 -45 11 -51 20 -7 3 19 10 37 14 40 5 3 11 24
15 48 4 23 12 50 17 60 13 25 16 68 6 95 -8 25 19 122 34 122 5 0 8 6 8 13 0
25 31 77 42 71 6 -4 8 -27 4 -59z m1480 -80 c-3 -9 -11 -77 -17 -152 -6 -78
-21 -177 -35 -232 -35 -134 -124 -348 -186 -450 -60 -95 -194 -238 -278 -293
l-54 -37 -11 28 c-25 67 -145 434 -145 445 0 11 138 86 159 86 6 0 15 -8 20
-18 5 -10 28 -27 50 -37 33 -14 46 -16 66 -7 29 13 43 57 26 84 -9 14 -8 18 4
18 8 0 15 7 15 15 0 9 -9 15 -25 15 -14 0 -25 6 -25 13 0 15 112 126 173 171
33 25 41 27 61 17 12 -7 40 -11 62 -9 34 3 39 6 38 28 -1 13 5 30 12 38 20 20
17 50 -6 62 -11 6 -20 17 -20 26 0 21 101 204 113 204 5 0 6 -7 3 -15z m-1390
-212 c-3 -3 6 -20 19 -38 14 -17 25 -37 25 -43 0 -7 6 -12 14 -12 17 0 29 -27
16 -35 -5 -3 -7 -12 -4 -20 4 -9 -4 -19 -20 -26 -14 -7 -26 -16 -26 -21 0 -13
18 -9 23 5 2 6 8 8 13 4 5 -4 4 -11 -2 -15 -6 -4 -19 -28 -30 -54 -10 -27 -24
-48 -29 -48 -20 0 -78 20 -101 35 -22 14 -23 16 -8 52 8 21 19 47 25 58 5 11
11 34 14 50 5 34 34 163 42 185 3 9 10 -2 20 -28 8 -24 12 -46 9 -49z m379
-82 c9 -15 -43 -101 -89 -149 -45 -47 -104 -88 -113 -78 -5 5 64 86 134 154
13 13 23 27 23 31 0 13 -36 2 -57 -18 -10 -10 -25 -15 -33 -13 -13 5 -13 3 0
-13 14 -17 13 -18 -17 -13 -36 5 -51 -13 -27 -32 21 -18 18 -27 -15 -43 -26
-13 -30 -13 -36 1 -3 8 -1 18 5 22 6 4 8 13 5 21 -3 9 3 24 15 34 11 10 20 24
20 32 0 7 10 13 23 13 13 0 37 7 54 15 16 8 40 16 53 18 13 2 26 9 28 15 4 14
19 16 27 3z m-978 -76 c35 -5 43 -11 53 -38 20 -55 28 -127 15 -127 -15 0
-120 74 -177 125 l-45 40 56 3 c31 1 75 0 98 -3z m1082 -222 c13 -38 26 -73
28 -79 2 -6 -34 -17 -94 -28 -54 -9 -117 -21 -140 -27 -23 -5 -85 -9 -137 -9
-80 0 -96 3 -96 15 0 9 -8 19 -17 22 -10 4 -42 22 -72 40 -29 19 -56 31 -60
28 -8 -9 44 -50 91 -71 54 -24 51 -48 -4 -39 -47 7 -160 34 -165 39 -3 3 27
128 32 134 1 2 45 -4 96 -14 65 -11 120 -14 179 -10 82 6 305 48 317 60 13 13
19 4 42 -61z m115 -341 c37 -114 70 -211 72 -217 3 -7 -165 -11 -486 -13 -270
-1 -490 1 -490 5 0 7 40 168 92 371 11 40 29 54 43 32 3 -5 15 -10 26 -10 11
0 30 -5 42 -12 12 -7 42 -13 66 -13 30 0 47 -5 55 -17 14 -23 -3 -40 -38 -40
-31 0 -34 -14 -5 -23 49 -16 89 21 81 75 -2 12 11 16 59 18 62 3 119 -12 119
-31 0 -5 9 -2 19 7 18 17 20 17 30 -2 7 -13 7 -22 -1 -30 -19 -19 -47 -14 -75
14 -33 33 -48 18 -23 -24 19 -31 24 -33 67 -30 42 3 49 6 57 31 7 20 7 34 -2
47 -7 11 -12 22 -12 24 0 8 150 38 220 44 11 1 33 -54 84 -206z m219 -274 c-2
-5 -8 -8 -13 -8 -5 0 -37 -13 -72 -29 -98 -45 -212 -78 -338 -96 -171 -24
-230 -36 -230 -48 0 -11 -111 -5 -369 19 -164 16 -165 17 -261 65 -130 64
-151 92 -75 101 63 7 1363 3 1358 -4z m-1418 -88 c28 -16 83 -39 121 -51 38
-11 73 -24 77 -29 5 -4 -53 -7 -128 -5 l-136 2 -4 56 c-2 35 1 57 7 57 6 0 34
-13 63 -30z"/>
<path d="M13260 7957 c0 -33 -2 -36 -17 -29 -10 5 -67 12 -126 15 -107 6 -108
6 -105 -16 3 -21 8 -22 131 -25 l128 -3 19 -42 c18 -37 70 -118 101 -155 18
-22 21 -6 5 32 -8 20 -13 36 -10 36 2 0 -14 23 -36 51 -22 28 -43 62 -46 76
-4 14 -15 41 -25 61 l-18 37 -1 -38z"/>
<path d="M5376 7934 c-26 -18 -41 -23 -45 -15 -5 8 -14 4 -26 -11 -11 -13 -13
-17 -5 -10 8 6 18 12 24 12 12 0 -43 -58 -68 -72 -16 -9 -18 -8 -12 7 5 15 4
16 -9 5 -9 -7 -14 -19 -11 -26 5 -12 -94 -112 -150 -151 -16 -12 -43 -25 -58
-29 -22 -5 -25 -9 -14 -15 12 -7 13 -18 5 -61 -12 -66 -14 -811 -5 -1308 5
-206 9 -665 10 -1020 3 -572 0 -817 -17 -1400 -3 -115 -1 -156 8 -162 9 -6 9
-12 0 -28 -16 -24 -18 -104 -3 -95 12 7 12 -27 10 -440 -1 -159 1 -297 5 -305
7 -19 67 -25 237 -25 64 0 114 -3 112 -7 -6 -9 447 -15 461 -7 41 25 188 38
200 18 5 -7 13 -5 25 6 9 8 23 13 31 10 8 -3 34 -1 59 4 l45 9 -64 1 -65 1 31
33 c16 17 62 75 101 128 39 53 90 115 112 137 34 34 40 44 31 59 -10 17 -10
17 -11 1 0 -10 -5 -18 -11 -18 -7 0 -10 17 -7 45 2 25 -1 45 -6 45 -4 0 -3 6
3 14 8 10 9 16 1 21 -5 3 -10 12 -9 18 0 9 2 9 6 0 2 -7 9 -13 15 -13 8 0 5
90 -8 190 -1 14 -3 27 -3 30 0 3 -2 164 -5 358 -3 243 -1 350 6 346 11 -7 80
-152 93 -194 4 -14 43 -137 87 -275 125 -392 153 -480 198 -625 23 -74 53
-163 66 -197 13 -34 24 -68 24 -76 0 -8 7 -20 15 -27 27 -22 16 -30 -42 -30
-42 0 -54 -3 -46 -11 12 -12 622 -7 748 6 39 4 160 8 270 9 l200 1 20 -37 c25
-47 32 -48 27 -3 -2 19 1 42 8 50 10 12 9 15 -4 15 -9 0 -16 2 -16 5 0 7 91
125 96 125 2 0 -2 -13 -11 -30 -9 -17 -19 -30 -24 -30 -4 0 -13 -11 -19 -25
-6 -14 -10 -25 -8 -25 9 0 86 83 81 88 -3 3 2 13 11 23 12 13 25 16 51 12 26
-5 34 -3 29 6 -4 6 -12 9 -17 6 -5 -4 -18 -4 -29 0 -17 5 -18 9 -7 33 20 46
79 127 89 124 17 -5 -2 54 -56 176 -29 64 -57 129 -61 142 -4 14 -16 45 -27
70 -26 56 -26 56 -94 225 -31 77 -69 174 -84 215 -16 41 -37 96 -48 122 -11
25 -25 61 -30 80 -9 30 -22 67 -94 258 -49 132 -77 218 -83 255 -4 22 -15 58
-25 80 -10 22 -34 81 -55 130 -20 50 -40 95 -45 100 -4 6 -13 28 -20 50 -7 22
-16 45 -21 51 -5 6 -3 16 3 22 9 9 9 12 0 12 -7 0 -12 -4 -12 -10 0 -16 -17
-11 -24 7 -7 18 31 66 45 57 5 -3 9 -1 9 4 0 11 52 71 175 202 89 94 111 122
149 194 19 36 22 46 10 42 -9 -3 -18 -6 -20 -6 -2 0 -4 -4 -4 -9 0 -13 -70
-130 -104 -174 -47 -61 -41 -35 9 39 26 38 63 99 83 136 37 67 55 87 45 48 -3
-11 0 -20 5 -20 11 0 32 61 38 114 2 15 15 58 28 95 26 74 43 184 51 341 3 58
8 143 12 190 12 172 9 265 -12 380 -8 48 -27 113 -36 125 -3 6 -10 26 -14 45
-4 19 -18 60 -32 90 -42 91 -45 103 -32 111 6 4 8 12 5 18 -4 6 -12 9 -17 6
-5 -3 -6 0 -4 7 6 15 -44 115 -79 160 -76 98 -78 102 -49 91 11 -4 14 -3 9 6
-5 7 -14 10 -21 7 -8 -3 -19 3 -27 11 -11 15 -11 16 5 10 46 -17 -51 84 -153
160 -95 71 -346 199 -455 233 -22 7 -47 19 -56 27 -11 9 -18 11 -21 3 -2 -7
-45 0 -128 21 -183 46 -393 69 -565 62 -153 -6 -861 -10 -845 -5 12 4 14 22 2
22 -4 0 -25 -12 -46 -26z m349 -34 c110 -5 307 -6 439 -1 131 4 268 4 305 -1
36 -4 86 -10 111 -12 25 -3 78 -16 118 -29 39 -14 72 -20 72 -16 0 5 8 9 18 8
11 0 12 -2 4 -6 -18 -7 4 -33 27 -33 21 0 153 -45 194 -66 15 -9 33 -14 39
-12 5 2 -11 14 -36 26 -42 21 -67 42 -50 42 16 0 133 -44 190 -71 33 -16 63
-29 66 -29 7 0 197 -111 231 -135 71 -51 130 -112 173 -183 26 -42 58 -90 69
-107 26 -35 48 -95 35 -95 -4 0 -10 6 -13 13 -2 6 -7 9 -11 6 -3 -3 4 -17 17
-30 13 -13 29 -44 36 -69 7 -25 19 -59 27 -76 7 -17 15 -41 17 -52 2 -11 9
-27 17 -37 19 -23 69 -245 75 -335 15 -222 13 -290 -9 -385 -2 -11 -5 -30 -5
-43 -1 -13 -5 -21 -11 -17 -6 4 -6 15 0 30 5 14 6 25 2 25 -9 0 -9 30 1 80 15
70 15 135 1 163 -9 16 -10 27 -4 27 21 0 9 30 -12 31 -13 0 -18 3 -11 5 7 3 9
12 6 21 -4 10 -17 -3 -45 -46 -21 -34 -42 -61 -47 -61 -13 0 -18 67 -6 83 5 7
16 12 23 10 18 -7 16 63 -2 70 -9 4 -16 -1 -19 -11 -3 -15 -5 6 -9 103 0 16
-7 35 -14 42 -11 12 -13 0 -9 -66 2 -45 7 -86 11 -92 4 -7 3 -9 -4 -5 -7 4
-12 -7 -14 -31 l-4 -38 -12 29 c-7 16 -14 60 -15 98 -1 37 -5 68 -8 68 -4 0
-12 27 -19 60 -7 33 -17 63 -21 66 -5 3 -9 12 -9 20 0 27 -67 158 -124 244
-31 47 -56 90 -56 98 0 7 -5 10 -10 7 -6 -3 -14 4 -19 17 -6 13 -10 17 -10 10
-1 -8 -35 18 -78 58 -138 129 -288 221 -458 280 -71 25 -112 36 -260 70 -220
51 -498 60 -995 31 -96 -5 -256 -12 -355 -16 -163 -5 -178 -4 -160 10 59 45
178 148 235 202 76 73 47 69 385 53z m630 -289 c275 -32 399 -61 594 -140 68
-28 140 -63 160 -79 20 -15 62 -45 93 -66 60 -39 184 -169 211 -221 8 -16 32
-47 52 -67 20 -21 34 -42 31 -47 -4 -5 0 -13 7 -18 26 -15 58 -94 94 -231 19
-75 39 -159 43 -185 5 -26 12 -56 15 -66 10 -32 14 -81 6 -81 -4 0 -8 -19 -9
-42 0 -24 1 -37 4 -30 3 6 10 12 15 12 6 0 8 -84 5 -222 -6 -255 -8 -288 -18
-288 -3 0 -4 -8 -1 -18 2 -10 -1 -31 -8 -47 -7 -17 -14 -37 -15 -45 -5 -40
-13 -70 -23 -88 -6 -12 -11 -28 -11 -38 0 -29 -80 -205 -132 -292 -55 -92
-123 -155 -282 -263 l-89 -61 -20 24 -19 23 16 -27 c21 -35 12 -54 -33 -76
l-36 -17 34 -5 c31 -5 36 -11 73 -95 63 -141 153 -365 183 -451 15 -44 58
-153 97 -244 91 -213 119 -283 114 -288 -5 -5 -30 39 -169 298 -63 118 -141
262 -172 320 -31 58 -88 166 -125 240 -37 74 -123 234 -190 355 -269 483 -320
576 -320 580 0 3 5 5 11 5 23 0 98 114 128 194 42 113 54 191 53 363 -1 180
-13 243 -64 353 -38 81 -83 136 -156 191 -79 60 -84 66 -28 36 29 -16 43 -21
35 -11 -7 8 -33 26 -58 39 -39 20 -42 24 -21 24 14 0 44 -8 68 -19 23 -10 42
-17 42 -14 0 11 -87 44 -115 44 -16 0 -54 9 -83 20 -75 29 -161 27 -357 -8
-36 -7 -42 -10 -20 -11 l30 -1 -2 -675 -1 -675 25 -6 c34 -9 184 4 263 22 36
8 102 35 148 60 46 24 87 42 93 39 5 -4 28 -43 50 -88 23 -45 74 -141 115
-213 40 -73 143 -266 230 -430 86 -165 202 -380 258 -479 57 -99 156 -279 221
-400 65 -121 126 -232 137 -247 10 -15 49 -107 87 -205 38 -98 83 -209 99
-248 30 -74 46 -125 37 -125 -2 0 -94 179 -204 398 -109 218 -242 479 -295
580 -206 390 -286 544 -376 717 -50 99 -97 185 -102 190 -12 12 198 -406 332
-660 55 -104 163 -316 241 -470 78 -154 223 -440 322 -635 99 -195 188 -372
198 -392 35 -68 43 -65 -203 -64 -210 1 -455 -6 -719 -20 l-117 -7 -7 33 c-4
18 -58 186 -120 374 -62 187 -131 402 -154 476 -23 74 -49 155 -57 180 -40
118 -82 281 -88 335 -4 33 -10 63 -15 68 -4 4 -4 -14 0 -40 14 -87 7 -96 -27
-35 -63 110 -74 155 -78 313 -2 82 -1 149 3 149 4 0 13 -6 20 -12 10 -11 12
-9 9 7 -2 14 -13 21 -32 23 l-29 4 6 -127 c8 -150 2 -155 -58 -43 -22 41 -64
101 -92 132 -29 32 -53 64 -53 72 0 8 -4 14 -10 14 -5 0 -10 -4 -10 -10 0 -5
-5 -10 -11 -10 -8 0 -8 4 -1 13 28 34 -43 180 -94 193 -38 10 -165 -4 -190
-21 -12 -8 -29 -27 -36 -42 -8 -15 -19 -37 -25 -48 -28 -54 -43 -99 -43 -135
0 -71 59 -134 73 -79 4 15 11 20 22 15 9 -3 24 -6 33 -6 15 0 15 -2 2 -10 -23
-15 45 -12 107 4 50 13 53 13 59 -6 10 -32 46 -19 56 21 5 18 12 31 15 28 3
-3 5 -407 5 -898 l-1 -893 -126 -2 -125 -1 6 36 c4 20 8 38 10 40 6 6 -26 61
-36 61 -5 0 -32 34 -61 75 -70 101 -87 107 -258 109 -162 1 -193 -4 -256 -46
-46 -31 -85 -93 -85 -138 0 -9 -6 -23 -14 -29 -12 -10 -13 43 -10 369 l4 381
125 247 c117 232 161 316 247 472 78 143 128 244 110 221 -24 -30 -305 -546
-401 -736 -93 -185 -93 -185 -85 -100 8 78 28 125 132 300 36 61 86 148 112
195 98 177 287 502 430 740 31 52 91 154 132 225 42 72 86 147 98 168 34 57
15 44 -28 -20 -90 -134 -481 -787 -683 -1143 -92 -162 -175 -304 -183 -315
-15 -19 -16 -15 -17 60 -2 124 0 515 6 1305 3 399 6 763 6 810 0 47 0 110 0
140 1 75 1 64 -6 425 -3 176 -7 448 -9 605 -2 157 -5 291 -7 299 -6 22 39 29
126 19 76 -9 294 -4 540 11 226 15 474 12 650 -8z m-25 -816 c59 -12 102 -40
171 -112 151 -156 199 -304 186 -573 -9 -175 -46 -292 -102 -319 -59 -29 -161
-51 -232 -51 -71 0 -80 4 -73 35 8 37 -6 959 -16 1004 -6 30 -5 33 12 28 10
-3 35 -9 54 -12z m1515 -401 l1 -93 -23 15 c-20 13 -23 13 -23 -1 0 -8 4 -15
8 -15 5 0 7 -29 5 -65 -4 -53 -2 -64 10 -59 10 4 14 -3 13 -23 -1 -19 -6 -27
-15 -25 -12 3 -12 0 -1 -12 10 -13 10 -16 -4 -16 -10 0 -15 -4 -11 -10 9 -14
-5 -58 -21 -64 -8 -3 -18 2 -21 11 -4 9 -1 19 5 21 7 2 12 10 12 18 0 9 -4 13
-9 9 -12 -6 -4 40 10 66 7 15 6 17 -6 13 -8 -4 -15 -1 -15 5 0 7 7 14 15 17 8
4 12 10 9 15 -3 5 -9 7 -13 5 -4 -3 -8 44 -9 104 -1 105 -1 109 24 125 14 9
30 27 36 41 18 38 23 19 23 -82z m-1771 -29 c7 -10 9 -42 6 -86 -5 -64 -3 -71
17 -84 12 -8 26 -15 32 -15 12 0 23 -47 16 -71 -4 -12 -2 -19 7 -19 15 0 19
62 5 76 -12 12 -8 34 6 32 7 -2 14 13 17 39 5 40 6 41 25 26 15 -12 16 -14 3
-10 -13 5 -16 0 -16 -23 1 -16 -5 -36 -12 -45 -10 -12 -10 -15 0 -15 9 0 9 -4
2 -13 -7 -8 -7 -18 -2 -27 11 -18 -5 -50 -25 -50 -10 0 -15 -10 -14 -27 0 -16
3 -22 6 -15 7 19 20 14 26 -9 5 -17 2 -20 -14 -16 -17 5 -19 0 -19 -39 0 -35
4 -44 18 -45 15 -1 15 -2 -1 -6 -12 -3 -16 -10 -12 -21 3 -9 8 -36 11 -61 3
-26 7 -53 10 -63 3 -9 1 -19 -5 -22 -14 -9 11 -55 27 -48 8 3 3 -6 -10 -19
-12 -13 -47 -51 -75 -82 -38 -42 -53 -53 -54 -40 -4 110 3 568 9 579 5 9 6 36
2 60 -4 25 -3 47 2 50 4 3 6 10 2 15 -7 11 -11 109 -5 109 2 0 9 -7 15 -15z
m1092 -1481 c7 -28 26 -77 43 -110 102 -198 165 -344 150 -344 -5 0 -9 -7 -9
-15 0 -8 7 -15 15 -15 8 0 19 -9 25 -20 7 -13 7 -20 0 -20 -13 0 -8 -34 9 -54
10 -12 11 -16 1 -16 -9 0 -9 -4 -2 -12 6 -7 25 -49 42 -93 18 -44 37 -91 43
-105 6 -14 11 -27 12 -30 9 -27 20 -53 39 -95 13 -27 27 -66 31 -85 4 -19 11
-39 15 -45 4 -5 10 -23 14 -40 8 -31 52 -130 87 -198 11 -20 33 -77 49 -125
15 -48 41 -116 58 -152 16 -36 35 -80 42 -97 7 -18 16 -33 21 -33 5 0 3 13 -5
28 -14 27 -45 109 -70 187 -8 22 -17 49 -22 60 -7 18 -6 19 11 5 17 -14 18
-14 6 8 -6 12 -16 22 -22 22 -6 0 -21 26 -35 58 -14 31 -43 93 -65 137 -21 44
-40 89 -42 100 -5 34 -49 159 -64 181 -7 12 -18 36 -23 54 -8 28 -7 31 8 26
10 -3 8 1 -5 10 -13 9 -23 21 -23 26 0 6 8 5 18 -3 9 -7 2 2 -16 19 -18 18
-30 36 -27 42 3 5 0 20 -7 32 -21 39 -38 92 -38 123 0 39 11 22 36 -56 10 -32
22 -59 26 -59 14 0 -18 86 -77 200 -23 47 -50 109 -59 138 -14 49 -14 53 1 50
9 -2 18 -9 21 -17 3 -9 0 -11 -9 -6 -8 5 -6 -1 4 -12 10 -11 19 -29 21 -39 11
-52 43 -128 56 -132 13 -5 13 -3 0 13 -14 17 -13 17 10 10 22 -7 23 -6 11 9
-7 9 -19 16 -26 16 -7 0 -15 7 -19 15 -3 8 -1 15 4 15 6 0 10 5 10 11 0 5 -4
7 -10 4 -6 -3 -10 4 -10 17 0 13 -4 28 -9 34 -5 5 -11 25 -14 44 -4 33 -25 89
-37 100 -3 3 -34 61 -68 130 -34 69 -67 130 -72 137 -6 7 -4 13 4 16 9 4 24
-13 40 -43 52 -95 96 -185 96 -197 0 -6 4 -13 8 -15 5 -1 26 -41 47 -88 21
-47 61 -133 90 -191 36 -71 50 -111 44 -121 -6 -10 -4 -15 6 -15 8 0 15 6 15
14 0 7 2 13 5 13 8 0 75 -70 92 -98 10 -15 28 -35 41 -46 13 -10 21 -25 18
-32 -3 -8 -1 -14 5 -14 6 0 8 -4 5 -9 -3 -5 1 -14 9 -21 12 -10 13 -8 10 9 -2
12 -7 26 -11 33 -4 6 -3 8 3 5 6 -4 25 -44 43 -89 17 -46 36 -92 40 -103 5
-11 18 -45 28 -75 11 -30 37 -91 57 -135 20 -44 46 -100 57 -125 11 -25 26
-58 34 -74 8 -16 14 -34 14 -41 0 -6 9 -30 20 -53 11 -22 20 -49 20 -58 0 -16
-2 -16 -15 2 -12 16 -12 13 1 -21 16 -40 43 -78 31 -42 -4 10 -3 16 2 13 5 -3
11 -15 14 -26 3 -12 1 -18 -5 -14 -6 4 -8 1 -6 -7 3 -8 11 -13 17 -11 7 1 10
-2 7 -7 -3 -5 1 -14 9 -21 8 -7 15 -22 15 -33 0 -21 0 -21 -18 -1 -9 10 -39
56 -67 101 -27 45 -51 80 -53 78 -6 -6 78 -156 101 -182 11 -13 26 -23 34 -23
7 0 13 -2 13 -5 0 -6 -52 -87 -61 -95 -13 -12 -118 -159 -132 -186 l-15 -29
-12 30 c-7 17 -22 59 -35 95 -12 36 -26 73 -30 83 -5 11 -3 17 5 17 9 0 8 6
-3 18 -10 10 -14 21 -11 25 3 3 -3 19 -15 36 -24 33 -56 102 -53 113 1 4 -11
34 -27 65 -16 32 -34 83 -41 113 -13 57 -25 88 -78 200 -39 84 -97 233 -94
242 1 5 -11 36 -27 70 -16 35 -41 92 -56 128 -14 36 -33 79 -41 97 -8 17 -14
34 -14 38 0 4 -6 21 -14 38 -24 55 -76 196 -76 208 0 8 4 8 14 0 11 -9 10 0
-4 36 -12 32 -24 48 -35 47 -12 -2 -13 1 -5 11 9 11 -1 36 -39 106 -28 50 -51
95 -51 100 0 5 -3 9 -8 9 -14 0 -65 128 -58 147 11 27 29 8 42 -43z m-1226
-50 c6 -14 10 -29 10 -33 0 -8 -231 -23 -239 -16 -2 3 4 20 13 40 l17 35 95 0
c92 0 95 -1 104 -26z m51 -117 c-6 -6 -11 -19 -11 -29 0 -10 -9 -27 -20 -38
-18 -18 -33 -20 -155 -20 -123 0 -135 2 -145 19 -14 28 3 35 39 16 34 -17 176
-21 186 -5 3 6 21 10 39 10 27 0 35 5 39 23 6 22 6 22 -10 2 -10 -14 -17 -16
-20 -8 -3 10 -10 10 -25 2 -22 -12 -231 -9 -244 3 -4 4 -2 13 3 20 6 7 12 21
14 31 4 17 18 19 124 24 150 5 173 8 182 17 5 4 9 -7 11 -24 2 -18 -1 -37 -7
-43z m1521 -197 c42 -95 60 -127 84 -156 14 -16 28 -28 30 -26 2 1 3 -1 2 -4
-2 -3 5 -10 15 -15 9 -6 17 -15 17 -21 0 -7 9 -22 21 -34 24 -26 72 -124 60
-124 -11 0 -51 39 -51 51 0 5 -33 42 -72 82 -63 62 -78 84 -110 162 -46 114
-58 152 -50 160 9 8 29 -20 54 -75z m-1337 -667 c1 -21 5 -63 9 -93 3 -30 8
-88 10 -128 2 -41 9 -79 16 -85 9 -9 10 0 5 43 -4 30 -7 86 -7 123 1 38 -3 79
-8 93 -9 24 -4 54 9 54 4 0 7 -8 8 -17 1 -10 4 -54 7 -98 3 -44 11 -124 17
-178 10 -82 10 -100 -1 -107 -11 -7 -12 -14 -2 -35 16 -35 15 -58 -1 -52 -10
4 -13 -2 -9 -19 2 -13 0 -24 -6 -24 -11 0 -20 37 -14 63 3 15 6 16 20 5 12 -9
11 -6 -2 10 -14 16 -19 36 -18 72 0 27 -3 52 -8 55 -8 5 -6 -169 6 -347 6 -97
6 -98 25 -74 15 19 16 29 8 60 -5 20 -12 49 -14 66 -2 16 -6 38 -10 49 -3 11
-1 22 5 26 6 3 10 -3 10 -17 0 -35 11 -68 22 -68 6 0 7 11 4 25 -4 14 -2 25 3
25 5 0 11 -33 13 -72 l3 -73 -64 -75 c-67 -77 -89 -96 -77 -64 9 23 9 383 0
613 -5 132 -4 172 5 167 6 -4 11 -29 10 -59 0 -29 2 -124 5 -212 3 -88 8 -227
10 -308 3 -82 7 -151 9 -154 15 -14 17 56 7 214 -6 98 -8 200 -5 229 4 28 2
67 -3 87 -7 24 -7 37 -1 37 6 0 8 4 5 8 -3 5 -7 54 -10 109 -3 56 -6 105 -7
110 -1 4 -1 21 0 37 1 40 12 26 16 -21z m-55 -454 c4 -162 5 -296 1 -299 -4
-3 -7 -41 -6 -84 0 -69 -3 -83 -25 -112 -26 -35 -46 -45 -36 -18 3 9 6 43 6
75 0 42 3 58 11 53 7 -4 9 -22 6 -45 -3 -22 -1 -39 3 -39 11 0 20 137 18 260
-1 52 -2 113 -2 135 -1 124 5 378 9 373 3 -3 10 -137 15 -299z m-534 -293 c7
-6 10 -24 7 -41 l-5 -30 -203 4 c-135 2 -209 -1 -223 -8 -29 -15 -39 5 -16 31
37 40 76 52 189 57 138 7 237 2 251 -13z m-77 -107 c27 -6 54 -16 59 -22 6 -7
12 -43 15 -81 l6 -68 -42 8 c-48 10 -396 10 -458 0 -31 -5 -40 -3 -37 6 3 7
14 14 25 16 15 2 22 13 27 40 10 63 39 100 83 105 84 8 275 6 322 -4z"/>
<path d="M6508 5093 c-17 -3 -39 -20 -58 -43 -26 -33 -31 -49 -31 -92 0 -99
60 -206 78 -138 4 15 10 19 22 14 9 -4 31 -9 49 -12 18 -2 35 -8 38 -13 10
-16 32 -9 37 11 7 26 55 29 53 3 -2 -28 38 -28 56 -1 25 38 15 98 -29 180 -33
58 -47 75 -74 85 -33 12 -88 14 -141 6z m-58 -119 c0 -8 5 -12 10 -9 6 4 65 7
132 7 l121 1 14 -27 c8 -15 13 -37 11 -48 -3 -21 -8 -22 -142 -22 l-139 -1
-13 50 c-16 62 -16 65 -4 65 6 0 10 -7 10 -16z"/>
<path d="M6916 3690 c-40 -7 -59 -18 -100 -59 -29 -28 -57 -51 -63 -51 -25 0
-33 -42 -33 -161 0 -122 0 -124 53 -277 61 -180 80 -207 136 -198 21 3 50 12
65 20 20 10 53 12 129 9 76 -4 122 -1 181 12 76 17 80 17 93 0 7 -10 12 -20
10 -21 -2 -2 -86 -6 -187 -9 -102 -4 -191 -11 -200 -16 -10 -7 47 -8 165 -3
99 4 207 8 240 9 72 1 115 13 94 26 -12 8 -12 10 0 18 10 6 10 10 1 16 -13 8
23 43 73 71 16 8 27 17 24 20 -7 7 -57 -22 -73 -42 -13 -16 -13 -14 1 13 8 18
15 39 15 47 0 8 10 24 22 36 18 16 19 20 5 20 -11 0 -20 14 -28 43 -6 23 -27
68 -46 99 -35 56 -38 88 -10 88 8 0 20 7 28 16 10 13 10 17 -1 24 -8 5 -18 6
-23 3 -4 -3 -21 0 -37 7 -21 9 -38 31 -65 88 -44 92 -57 108 -110 135 -34 18
-60 21 -175 23 -74 2 -157 -1 -184 -6z m358 -43 c15 -10 40 -39 57 -64 29 -48
31 -66 4 -43 -15 13 -297 20 -379 10 -39 -5 -39 -4 -52 40 -8 25 -12 50 -9 57
6 17 45 21 205 19 123 -1 150 -4 174 -19z m-504 -121 c0 -35 23 -83 38 -79 6
3 12 -2 12 -11 0 -19 -21 -21 -38 -4 -8 8 -12 9 -12 1 0 -6 6 -13 13 -16 9 -3
9 -7 -2 -20 -12 -15 -11 -17 3 -17 27 0 74 -28 79 -47 3 -12 5 -9 6 8 1 26 2
26 49 16 26 -5 140 -10 253 -11 168 -1 209 2 224 14 16 13 20 11 47 -20 40
-46 58 -91 64 -156 10 -105 -46 -148 -162 -124 -64 13 -405 10 -396 -4 8 -15
-60 3 -79 20 -9 8 -27 47 -39 87 -12 40 -29 79 -36 88 -13 14 -28 88 -39 184
-3 22 -7 50 -10 62 -6 24 3 53 16 53 5 0 9 -11 9 -24z m556 -13 c15 -6 64 -95
64 -119 0 -20 -99 -26 -298 -18 l-193 7 7 46 c11 78 19 89 61 94 50 7 337 -1
359 -10z"/>
<path d="M8404 7949 c-2 -3 33 -9 77 -12 44 -3 83 -8 87 -11 3 -4 -39 -52 -94
-109 -55 -56 -114 -119 -132 -140 -21 -24 -39 -37 -48 -33 -13 5 -14 -81 -10
-712 2 -394 7 -725 11 -734 4 -9 1 -26 -5 -38 -9 -17 -9 -32 0 -67 12 -42 12
-45 -16 -74 -16 -17 -44 -37 -62 -44 -39 -17 -49 -38 -30 -66 12 -19 11 -24
-12 -49 -15 -16 -43 -31 -64 -35 -23 -5 -43 -17 -53 -31 -14 -22 -14 -26 1
-49 9 -14 27 -32 41 -41 33 -22 32 -37 -10 -83 -44 -49 -44 -72 0 -108 80 -63
87 -72 80 -101 -4 -22 1 -34 30 -62 l35 -34 35 17 c35 17 36 17 44 -5 4 -12 4
-38 -2 -58 -6 -19 -11 -59 -11 -88 -1 -50 -4 -56 -45 -91 -36 -31 -43 -42 -38
-62 4 -16 0 -30 -15 -46 -18 -19 -20 -28 -12 -51 9 -25 14 -27 56 -24 44 3 48
1 64 -29 12 -23 15 -45 10 -78 -3 -25 -9 -401 -11 -836 -3 -434 -8 -806 -12
-825 -3 -19 -6 -39 -5 -43 2 -4 4 -71 7 -148 l4 -139 -37 0 c-28 0 -33 -3 -22
-10 8 -5 25 -10 38 -10 12 0 22 -5 22 -11 0 -6 -16 -9 -40 -8 -21 2 -42 0 -46
-4 -4 -4 16 -7 44 -7 34 0 52 -4 53 -12 1 -7 2 -20 3 -28 2 -8 3 -27 4 -42 1
-16 7 -28 13 -28 8 0 10 17 6 53 -3 30 -2 58 1 63 4 5 97 10 207 10 730 4 883
4 995 -1 69 -3 208 -7 310 -10 l185 -3 -155 10 c-232 16 -157 30 150 27 259
-2 680 8 688 16 3 3 -1 11 -8 20 -9 11 -10 15 0 15 6 0 20 -10 29 -22 10 -12
23 -18 30 -14 8 5 5 13 -11 26 l-23 19 45 -1 c38 -1 40 -2 11 -5 l-33 -4 23
-17 c23 -16 37 -16 32 0 -2 4 12 5 30 2 30 -6 31 -6 12 9 l-20 16 20 -1 c11 0
41 3 67 6 28 4 56 2 68 -4 11 -6 26 -7 33 -3 12 8 17 9 37 12 6 0 10 6 10 11
0 6 -16 10 -35 10 -35 0 -50 19 -17 21 17 2 -39 10 -147 23 -30 3 -59 10 -66
16 -6 5 -43 7 -83 5 -60 -4 -72 -2 -72 11 0 13 9 15 53 10 95 -11 365 -16 320
-6 -39 8 -174 21 -217 21 -10 0 -15 3 -11 7 4 4 25 7 48 8 178 2 227 5 227 12
0 8 -190 16 -359 14 -70 -1 -91 2 -82 11 6 6 29 11 51 12 21 0 42 4 46 8 4 4
28 7 53 7 30 0 41 -3 32 -9 -23 -15 2 -19 69 -10 36 5 96 11 133 15 38 3 67 7
65 9 -2 2 -28 6 -58 9 -30 3 -69 9 -85 12 -17 3 -74 6 -127 7 -53 2 -100 5
-103 9 -3 3 7 15 24 27 106 76 242 322 311 561 12 41 25 86 30 100 5 14 12 43
15 65 3 22 10 56 15 75 5 19 19 89 31 155 12 66 26 130 31 142 6 11 7 26 4 32
-4 6 -2 11 5 11 8 0 8 4 -1 15 -9 11 -9 15 -1 15 23 0 -2 322 -39 510 -12 58
-23 117 -25 133 -6 46 -26 98 -61 158 -19 32 -34 62 -34 67 0 16 -93 152 -153
226 l-57 68 32 37 c17 20 51 53 75 75 24 21 42 44 39 51 -2 7 4 21 15 31 28
25 24 43 -21 85 -40 38 -41 43 -20 94 20 51 40 114 50 160 6 28 13 57 16 65 3
8 7 40 9 70 5 79 20 196 30 240 4 17 18 197 20 255 3 77 -11 202 -24 219 -4 6
-11 26 -14 44 -6 30 -5 33 13 27 11 -4 20 -2 20 4 0 5 -9 13 -20 16 -11 3 -20
10 -20 15 0 5 -3 17 -6 27 -4 13 0 11 15 -7 l21 -25 -11 30 c-6 16 -18 38 -26
47 -9 10 -13 18 -10 18 3 0 -1 17 -9 37 -9 20 -17 44 -19 52 -11 58 -30 109
-46 127 -11 11 -21 30 -24 42 -5 30 -22 60 -71 125 -48 62 -45 68 13 36 25
-14 31 -15 18 -4 -11 9 -41 27 -66 40 -26 13 -74 52 -108 85 -62 63 -83 76
-249 161 -52 26 -99 54 -105 62 -7 7 -75 28 -152 47 -77 18 -160 38 -185 46
-98 28 -185 37 -420 41 -392 7 -1152 9 -1156 2z m828 -43 c180 -3 331 -7 337
-10 5 -3 64 -7 131 -8 106 -1 123 -4 133 -20 14 -22 29 -24 21 -3 -5 13 -1 13
33 1 22 -8 46 -11 52 -6 7 4 30 -1 52 -12 22 -10 43 -17 48 -14 12 8 265 -70
335 -103 35 -16 95 -50 132 -74 75 -49 215 -188 260 -258 15 -24 47 -73 70
-109 23 -36 52 -96 64 -135 39 -125 68 -245 60 -250 -14 -9 -39 41 -33 65 5
17 3 21 -7 15 -8 -5 -11 -4 -6 3 3 6 2 13 -4 17 -5 3 -10 15 -10 26 0 11 -7
22 -16 26 -9 3 -14 13 -11 24 3 11 0 16 -8 13 -9 -4 -2 -35 26 -117 21 -62 37
-116 35 -122 -2 -5 -7 -1 -11 10 -4 11 -28 74 -53 140 -26 66 -45 126 -44 132
4 20 -166 190 -237 237 -91 59 -210 123 -283 152 -104 40 -77 18 53 -45 87
-42 147 -79 202 -125 43 -36 83 -66 90 -66 13 0 87 -70 87 -83 0 -4 -6 -5 -12
-1 -7 4 -5 -2 5 -13 9 -11 17 -24 17 -30 0 -6 7 -16 16 -24 21 -17 87 -149
118 -235 13 -38 33 -93 44 -121 11 -29 17 -53 12 -53 -4 0 -20 35 -35 78 -59
166 -178 357 -283 452 -134 122 -377 269 -526 320 -166 56 -401 81 -641 69
-66 -4 -250 -7 -410 -9 -159 -1 -360 -5 -445 -8 -85 -4 -172 -5 -192 -2 l-37
5 67 70 c37 39 86 87 110 108 23 21 42 45 42 53 0 8 6 23 12 34 12 19 21 20
163 15 82 -3 297 -7 477 -9z m-782 -299 c36 2 72 0 80 -3 8 -3 285 -7 615 -9
330 -1 609 -5 620 -7 11 -3 52 -8 90 -13 39 -4 88 -13 110 -21 22 -7 69 -20
105 -29 200 -50 410 -173 552 -323 80 -85 156 -229 221 -422 66 -194 75 -262
70 -529 -2 -102 -5 -187 -8 -189 -3 -3 -14 3 -24 12 -11 10 -38 20 -60 23 -51
7 -58 16 -31 43 16 16 21 33 20 68 0 26 5 70 12 99 14 63 5 77 -72 113 -45 21
-53 22 -90 10 -41 -14 -70 -4 -70 25 0 7 -11 16 -25 19 -15 4 -30 18 -36 33
-7 20 -13 23 -21 15 -18 -18 -68 -15 -68 4 0 13 7 15 30 11 29 -6 29 -6 17 20
-10 23 -9 28 11 41 23 15 30 42 10 42 -6 0 -23 -10 -36 -22 -17 -16 -26 -19
-29 -10 -4 9 -12 8 -34 -5 -16 -10 -29 -22 -29 -28 0 -5 -30 -35 -67 -65 -78
-65 -113 -99 -113 -112 0 -6 15 -1 33 10 17 10 31 24 30 30 -2 7 4 9 13 5 14
-5 13 -9 -7 -24 -13 -10 -21 -20 -18 -23 3 -3 20 8 38 25 18 16 36 27 39 24 4
-3 0 -10 -8 -15 -8 -6 -10 -10 -5 -10 6 0 1 -7 -9 -15 -11 -8 -15 -15 -9 -15
5 0 18 9 28 20 10 11 22 20 27 20 15 0 8 -19 -14 -40 -12 -11 -19 -22 -17 -25
3 -2 27 16 55 42 27 25 41 43 32 40 -10 -4 -18 -3 -18 2 0 16 41 44 68 47 19
2 23 1 12 -6 -11 -7 -9 -13 12 -35 22 -22 30 -25 47 -16 30 17 36 13 16 -9
-19 -21 -7 -28 13 -8 7 7 12 8 12 2 0 -5 -4 -14 -10 -20 -6 -6 19 -7 74 -1 81
9 85 8 130 -18 48 -28 58 -53 30 -76 -9 -8 -13 -21 -10 -35 4 -13 2 -26 -4
-29 -5 -3 -10 -15 -10 -26 0 -12 -14 -28 -35 -40 -19 -12 -33 -25 -30 -29 5
-8 -72 -70 -87 -70 -4 0 -8 9 -8 20 0 11 -6 20 -14 20 -7 0 -25 10 -40 21 -43
33 -40 17 4 -25 22 -20 39 -40 37 -44 -5 -15 10 -14 46 2 20 10 37 21 37 25 0
3 9 12 20 18 16 11 23 9 46 -12 15 -14 39 -25 54 -25 15 0 36 -10 50 -25 21
-22 22 -28 10 -52 -7 -16 -14 -40 -15 -55 -1 -14 -12 -40 -24 -56 -26 -37 -26
-44 -1 -67 25 -23 25 -32 -2 -75 -12 -19 -22 -42 -23 -51 -1 -13 -37 -69 -80
-123 -8 -11 -18 -17 -21 -13 -4 4 6 23 22 43 85 106 84 132 -1 39 -35 -38 -69
-75 -74 -81 -5 -7 -16 -14 -23 -17 -7 -2 -9 -8 -5 -13 4 -5 11 -4 15 2 10 16
52 28 52 15 0 -6 -5 -11 -11 -11 -5 0 -7 -4 -4 -10 3 -5 1 -10 -4 -10 -6 0
-11 -7 -11 -15 0 -17 -25 -20 -35 -5 -8 13 -25 13 -25 1 0 -5 8 -11 17 -13 11
-2 -2 -17 -43 -48 -32 -25 -61 -48 -64 -52 -3 -4 -21 -14 -40 -22 -19 -8 -31
-15 -25 -16 5 0 0 -7 -13 -15 -18 -14 -20 -19 -9 -35 6 -11 15 -20 19 -20 9 0
59 -34 135 -92 68 -53 173 -164 173 -184 0 -20 -16 -24 -36 -10 -13 10 -23 11
-31 5 -8 -7 -20 -5 -37 6 -21 14 -31 15 -60 5 -52 -17 -53 -29 -2 -28 71 1 83
-16 41 -57 -13 -14 -20 -25 -15 -25 23 0 6 -26 -62 -96 -40 -40 -76 -74 -80
-74 -5 0 -8 8 -8 18 0 14 -2 14 -9 3 -9 -14 -41 -9 -41 6 1 15 56 69 93 91 47
27 55 28 32 2 -10 -11 -23 -20 -29 -20 -15 0 -49 -57 -38 -64 8 -5 38 24 106
103 20 22 20 22 0 15 -16 -6 -16 -4 5 19 37 41 18 43 -27 3 -21 -20 -43 -32
-47 -28 -5 4 -5 1 -1 -5 4 -7 2 -13 -4 -13 -7 0 -30 -14 -51 -31 -21 -17 -39
-26 -39 -21 0 18 -55 -3 -65 -25 -9 -22 -39 -36 -50 -25 -7 7 55 72 70 72 6 0
37 22 69 49 32 27 72 55 89 62 26 11 28 14 11 20 -14 5 -33 -6 -71 -38 -29
-25 -53 -40 -53 -35 0 5 21 28 47 51 58 50 47 55 -13 5 -24 -19 -44 -32 -44
-28 0 3 -7 1 -15 -6 -8 -7 -12 -17 -9 -22 7 -11 -112 -129 -121 -120 -3 3 5
16 17 29 12 13 17 23 11 23 -5 0 -20 -11 -33 -25 -12 -13 -26 -22 -30 -20 -7
5 190 203 290 293 25 22 42 43 39 46 -6 6 -45 -24 -118 -91 -48 -43 -71 -41
-30 4 l24 25 -37 -22 c-29 -17 -41 -19 -57 -10 -24 12 -26 21 -8 40 10 12 9
12 -6 0 -25 -19 -78 -96 -70 -103 3 -4 13 3 22 13 10 13 21 17 29 11 10 -6 8
-11 -10 -23 -30 -19 -68 -29 -68 -17 0 28 47 93 102 144 46 42 54 52 28 37
l-35 -21 0 31 c0 24 10 40 48 73 27 24 45 45 40 48 -5 3 -29 -14 -52 -39 -40
-41 -61 -54 -61 -37 0 3 21 26 46 50 26 24 44 46 41 49 -2 3 -30 -19 -62 -49
-31 -30 -52 -56 -46 -58 6 -2 13 -21 16 -42 9 -53 -29 -114 -67 -108 -4 0 -23
-14 -42 -33 -48 -45 -53 -34 -10 22 19 25 32 48 29 50 -3 3 -30 -19 -60 -48
-56 -55 -68 -54 -39 2 15 28 15 30 0 25 -15 -6 -15 -4 0 19 26 38 11 38 -26
-1 -19 -19 -29 -35 -22 -35 7 0 12 -5 12 -11 0 -6 -8 -8 -19 -4 -11 3 -22 1
-26 -4 -4 -7 1 -9 12 -5 16 5 15 3 -2 -11 -19 -15 -20 -15 -23 1 -2 9 1 21 7
27 6 6 11 16 11 22 -1 5 -9 0 -20 -13 -13 -16 -26 -22 -39 -17 -13 4 -24 -1
-35 -17 -9 -12 -16 -18 -16 -11 0 13 63 83 75 83 4 0 0 -9 -10 -20 -25 -27
-14 -35 13 -9 12 11 27 17 33 13 6 -4 15 0 20 7 14 22 10 33 -6 19 -21 -18
-32 -4 -13 17 18 22 31 43 25 43 -2 0 -14 -9 -27 -20 -13 -11 -25 -18 -27 -16
-8 8 20 44 46 59 14 9 37 25 49 37 25 24 92 44 92 29 0 -6 7 -6 18 -1 20 11
45 5 36 -9 -3 -5 5 -9 16 -9 15 0 20 5 17 14 -4 9 3 16 19 20 13 4 24 10 24
15 0 5 -14 3 -31 -6 -24 -12 -33 -13 -42 -3 -23 23 109 120 163 120 10 0 36
15 59 33 30 24 39 37 36 53 -5 24 35 50 52 33 5 -5 17 -3 29 6 14 11 15 15 4
14 -32 -3 -42 1 -36 16 4 10 -1 15 -14 15 -11 0 -20 5 -20 10 0 6 9 10 20 10
14 0 20 7 20 23 0 13 15 37 35 57 36 35 79 115 70 130 -3 5 3 13 12 19 10 6
13 11 6 11 -6 0 -15 -4 -18 -10 -3 -5 -13 -10 -22 -10 -11 0 -14 8 -11 30 3
17 2 30 -2 30 -11 0 -41 -37 -38 -46 3 -12 -32 -64 -44 -64 -6 0 -3 12 7 26 9
14 14 29 10 32 -4 4 -11 -1 -16 -10 -5 -9 -23 -23 -39 -32 -29 -14 -33 -13
-70 11 -22 15 -40 30 -40 34 0 5 17 21 38 36 20 15 40 32 44 38 5 6 8 6 8 -2
0 -6 -12 -26 -26 -43 -32 -37 -26 -51 8 -18 32 31 68 51 76 42 4 -4 1 -9 -5
-11 -7 -3 -13 -9 -13 -14 0 -5 11 -2 25 7 24 16 25 16 18 -2 -5 -13 3 -10 30
12 20 16 32 31 26 33 -5 1 -18 -3 -27 -11 -18 -16 -52 -13 -52 4 0 6 -11 3
-25 -6 -14 -9 -25 -12 -25 -6 0 6 7 13 15 16 19 8 20 34 2 34 -16 0 -84 -48
-111 -79 -18 -20 -21 -20 -43 -5 -46 30 -34 6 23 -44 52 -47 56 -53 52 -87 -3
-30 0 -40 19 -52 12 -8 20 -19 17 -24 -3 -5 3 -9 12 -9 15 0 14 -4 -6 -26 -19
-20 -22 -27 -11 -33 7 -5 11 -13 7 -19 -3 -6 0 -12 6 -15 9 -3 6 -12 -9 -29
-13 -13 -23 -29 -23 -34 0 -6 -24 -21 -52 -34 -29 -13 -75 -43 -102 -67 -31
-28 -53 -40 -60 -35 -15 13 -98 32 -108 26 -15 -9 -38 24 -31 43 6 16 5 16
-10 4 -9 -7 -17 -10 -17 -5 0 23 -48 10 -66 -17 -10 -16 -23 -29 -29 -30 -5 0
-27 -23 -49 -51 -27 -35 -35 -53 -26 -58 8 -5 7 -9 -4 -13 -27 -11 -29 14 -3
41 38 41 67 94 67 124 0 15 5 30 11 33 17 11 24 -4 11 -25 -7 -11 -10 -20 -7
-20 9 0 45 39 45 49 0 5 10 16 23 24 21 16 21 16 -10 7 -35 -9 -36 -2 -5 50 9
14 1 8 -17 -12 -31 -36 -61 -50 -61 -28 0 6 -9 10 -19 10 -30 0 -33 16 -11 52
11 18 20 40 20 48 0 8 -9 1 -19 -16 -19 -31 -36 -47 -56 -50 -5 -1 -19 -6 -29
-10 -22 -8 -19 -3 23 56 14 19 19 29 11 23 -28 -26 -30 -12 -4 32 14 25 24 49
20 52 -3 3 -13 -9 -21 -28 -8 -19 -27 -49 -41 -67 -20 -24 -22 -31 -9 -26 15
6 16 5 4 -14 -8 -13 -16 -17 -20 -11 -4 6 -9 4 -13 -7 -3 -9 -9 -15 -11 -12
-3 3 2 22 10 42 18 43 2 39 -20 -5 -9 -16 -20 -27 -25 -24 -6 4 -6 14 1 26 19
36 3 43 -19 8 -21 -33 -22 -33 -22 -9 -1 23 -2 24 -14 7 -14 -18 -14 -18 -18
0 -2 10 1 42 8 70 14 66 2 60 -20 -9 -16 -51 -36 -92 -36 -75 0 4 -10 3 -21
-4 -33 -17 -52 7 -39 50 5 19 7 37 5 41 -3 4 5 29 16 55 11 26 18 49 15 52 -9
9 -47 -84 -50 -120 -4 -46 -5 -47 -18 -47 -30 1 -39 16 -28 45 6 15 8 30 5 33
-3 3 -10 -9 -16 -26 -6 -18 -13 -32 -15 -32 -14 0 -64 32 -64 41 0 6 -4 8 -9
5 -5 -4 -21 -2 -36 4 -43 16 -26 -10 26 -40 57 -34 62 -64 18 -114 -23 -27
-37 -35 -52 -30 -13 4 -17 2 -13 -5 5 -8 0 -8 -18 -1 -23 8 -27 6 -32 -15 -3
-14 -10 -25 -15 -25 -14 0 -10 26 6 40 15 13 22 90 8 90 -5 -1 -18 -23 -31
-50 -22 -47 -42 -65 -42 -37 0 6 -9 -1 -20 -18 -11 -16 -20 -26 -20 -21 0 5
-7 3 -15 -4 -26 -22 -29 -3 -6 41 l22 42 -28 -18 c-15 -10 -40 -29 -55 -42
-25 -24 -28 -24 -49 -9 -37 25 -41 19 -17 -23 l23 -40 -21 -27 c-23 -32 -81
-67 -95 -59 -12 8 -11 25 2 25 5 0 7 -4 4 -10 -3 -5 -4 -10 -1 -10 3 0 10 9
16 19 14 27 -17 22 -40 -7 -11 -13 -24 -19 -37 -16 -14 4 -22 0 -27 -13 -8
-22 -27 -56 -45 -77 -18 -22 -10 -20 45 9 37 20 49 22 56 13 6 -9 10 -10 16
-2 4 6 18 17 31 24 20 10 18 4 -15 -36 -21 -27 -31 -43 -21 -35 10 8 27 15 38
16 11 1 27 12 36 24 8 13 29 31 47 42 22 13 26 19 13 19 -17 0 -16 3 4 33 31
43 45 57 52 50 4 -3 0 -15 -8 -25 -7 -11 -11 -26 -9 -32 3 -7 -7 -23 -20 -35
-14 -13 -23 -27 -21 -31 2 -4 -10 -22 -28 -41 -18 -19 -45 -52 -62 -74 -59
-81 -64 -84 -98 -73 -18 6 -45 20 -60 30 -31 23 -62 17 -55 -10 5 -19 -6 -34
-35 -45 -10 -4 -16 -11 -12 -16 3 -5 1 -12 -5 -16 -5 -3 -15 -16 -21 -28 -8
-15 2 -9 28 16 22 20 43 34 47 30 4 -4 4 0 1 9 -10 25 28 42 55 26 22 -14 22
-33 -1 -33 -25 -1 -39 -16 -136 -146 -52 -71 -102 -129 -110 -129 -12 0 -13 3
-3 15 6 8 10 20 8 27 -4 12 4 25 59 86 18 20 30 38 27 41 -2 2 -11 -4 -19 -15
-12 -15 -16 -16 -24 -5 -11 17 -32 6 -25 -13 3 -8 -7 -23 -22 -35 -27 -22 -60
-29 -49 -11 3 6 0 10 -7 10 -7 1 0 12 17 25 l29 24 -39 -14 c-35 -12 -40 -17
-38 -42 1 -16 13 -37 29 -49 15 -13 24 -29 22 -41 -1 -10 9 -34 25 -52 l27
-33 68 26 c37 14 72 26 77 26 6 0 21 9 35 20 34 26 40 25 97 -13 53 -36 81
-36 102 0 7 13 10 14 11 4 0 -10 8 -7 27 10 20 18 25 20 20 7 -4 -10 -2 -18 3
-18 15 0 12 -17 -6 -35 -9 -9 -23 -14 -31 -11 -9 4 -13 1 -11 -6 8 -23 43 -19
68 7 16 17 34 25 58 25 25 0 35 5 39 20 3 11 11 20 18 20 6 0 33 16 58 36 25
20 51 34 57 32 9 -3 11 -81 9 -278 -2 -307 -2 -520 3 -750 l3 -155 33 -3 c17
-2 32 -7 32 -12 0 -16 -89 -127 -137 -170 -59 -53 -179 -128 -228 -143 -19 -6
-35 -14 -35 -19 0 -4 1 -8 3 -8 17 0 123 45 195 84 73 39 101 61 152 119 106
124 119 160 166 457 8 52 14 122 14 155 0 118 -5 193 -12 201 -4 4 -3 13 3 21
6 7 7 13 3 13 -5 0 -10 21 -10 48 -3 166 -72 388 -148 479 -24 28 -117 95
-248 177 -32 20 -58 40 -58 45 0 19 30 19 54 0 14 -11 63 -38 109 -59 65 -31
97 -54 148 -107 36 -37 72 -79 79 -93 7 -14 15 -20 17 -13 3 7 -14 36 -36 66
-23 30 -41 58 -41 63 0 5 -9 20 -19 33 -10 14 -17 30 -14 37 2 7 0 15 -6 19
-6 3 -11 1 -11 -4 0 -14 -36 -14 -61 -1 -18 10 -18 12 -4 26 8 9 27 31 42 50
26 34 26 34 41 13 8 -11 30 -64 48 -117 37 -104 70 -156 58 -92 -7 41 -26 100
-48 152 -9 20 -18 52 -20 72 -4 36 -45 128 -58 134 -5 2 -8 8 -8 14 0 5 -21
29 -47 53 -26 24 -44 47 -40 51 9 9 83 -62 140 -135 75 -95 78 -97 44 -27 -31
61 -38 106 -18 106 4 0 13 -12 21 -27 7 -16 19 -40 26 -55 8 -14 14 -38 14
-51 0 -14 4 -28 9 -31 5 -3 14 -30 21 -58 14 -62 42 -123 88 -193 17 -27 32
-55 32 -62 0 -7 5 -13 11 -13 6 0 8 7 5 17 -4 9 -1 20 5 24 21 13 12 56 -20
89 -17 18 -31 37 -31 41 0 11 -2 11 37 0 31 -9 31 -8 57 49 14 31 26 63 26 70
0 7 9 29 20 49 11 20 29 71 39 114 29 117 43 119 45 8 1 -55 3 -65 11 -50 13
23 85 84 85 72 0 -5 -7 -18 -15 -30 -27 -38 -115 -217 -115 -234 0 -8 -4 -19
-8 -25 -5 -5 -14 -29 -21 -54 -7 -25 -21 -61 -31 -82 -11 -23 -18 -64 -19
-115 -1 -43 -5 -89 -8 -102 -4 -18 -3 -22 7 -16 9 6 10 3 2 -11 -5 -11 -12
-26 -16 -34 -3 -8 -3 23 0 70 5 69 4 83 -7 73 -10 -10 -13 -99 -14 -400 0
-214 2 -404 6 -423 4 -19 10 -61 14 -92 3 -32 11 -58 17 -58 6 0 8 11 4 26
-17 64 -18 84 -7 84 6 0 11 -14 11 -31 0 -17 4 -38 10 -48 7 -14 4 -24 -11
-40 -11 -11 -16 -21 -10 -21 5 0 11 -19 14 -42 6 -62 55 -225 82 -278 13 -25
39 -57 59 -73 31 -24 43 -27 98 -25 53 1 71 -3 109 -25 50 -30 69 -34 69 -14
0 7 -20 23 -44 36 -80 44 -71 62 10 20 41 -22 86 -39 100 -39 15 0 24 -6 24
-15 0 -17 2 -18 24 -9 9 3 16 10 16 16 0 5 -5 6 -10 3 -10 -6 -21 2 -101 64
-33 26 -33 39 1 21 16 -9 25 -8 37 1 12 11 17 11 27 -2 17 -23 72 -39 137 -39
32 0 76 -6 96 -14 49 -18 113 -27 113 -16 0 5 -17 12 -37 15 -57 9 -108 34
-96 46 7 7 22 7 44 1 38 -10 109 -4 109 9 0 13 -82 15 -222 5 -36 -3 -35 0 5
24 42 26 17 26 -34 0 -49 -26 -69 -17 -38 16 29 31 18 30 -35 -1 -24 -14 -45
-22 -49 -19 -3 4 6 22 20 41 36 47 20 56 -18 9 -33 -39 -43 -40 -44 -3 0 12
-4 22 -10 22 -5 0 -9 -6 -9 -12 2 -11 -28 -19 -39 -10 -2 1 -11 -3 -19 -10
-37 -32 -135 35 -176 120 -52 107 -76 187 -51 171 11 -7 149 129 149 147 0 5
11 32 24 61 28 60 42 122 51 223 10 98 10 80 -11 265 -8 66 -55 200 -88 250
-33 51 -21 70 36 59 24 -4 46 -8 51 -9 14 0 7 -20 -8 -20 -26 0 -16 -29 13
-36 15 -3 39 -10 54 -16 18 -7 33 -6 46 1 12 6 34 11 49 11 34 0 73 32 73 60
0 10 -4 30 -10 44 -5 14 -8 26 -7 26 2 0 25 -7 51 -16 44 -15 48 -15 67 2 18
17 20 16 44 -6 20 -19 31 -22 72 -17 39 4 54 12 78 40 16 19 40 37 52 41 34
11 68 65 69 109 0 48 17 63 76 70 46 6 48 5 83 -36 54 -62 120 -206 159 -342
48 -168 73 -311 42 -239 -8 17 -19 63 -26 102 -6 40 -16 74 -21 78 -13 8 -12
3 26 -193 38 -191 44 -315 24 -428 -6 -33 -15 -80 -19 -105 -26 -146 -44 -213
-75 -275 -66 -130 -106 -200 -146 -251 -55 -71 -154 -164 -176 -164 -16 -1
-73 -42 -73 -54 0 -3 17 4 38 16 l37 21 -26 -28 c-17 -17 -37 -27 -55 -27 -17
0 -38 -10 -50 -24 -15 -15 -74 -39 -180 -74 -271 -87 -602 -124 -969 -109
-151 6 -398 15 -672 24 -50 1 -97 -1 -105 -6 -8 -5 18 -9 65 -9 44 0 77 -4 77
-10 0 -6 -65 -10 -176 -10 -122 0 -173 3 -169 11 4 6 9 329 11 717 2 389 3
713 4 720 0 7 5 10 10 7 6 -3 10 -2 10 4 0 5 -6 11 -12 13 -13 5 -21 128 -9
128 4 0 5 104 3 231 l-4 232 38 -8 c22 -4 45 -11 52 -17 8 -7 12 -7 12 1 0 6
-5 11 -10 11 -6 0 -5 8 2 20 16 25 22 25 48 -2 l21 -23 -30 -13 c-17 -6 -31
-17 -31 -22 0 -14 16 -12 51 6 17 8 37 13 44 10 8 -3 25 10 40 30 27 35 28 45
2 19 -13 -13 -20 -13 -47 -1 l-33 13 32 19 c17 10 31 22 31 26 0 4 7 8 16 8
16 0 27 9 54 44 13 18 13 19 0 11 -8 -4 -30 -19 -48 -32 -19 -15 -55 -28 -85
-32 -29 -4 -66 -15 -84 -24 -22 -12 -39 -14 -55 -8 -22 8 -23 13 -21 107 3
109 6 126 26 118 8 -3 20 2 27 11 7 8 17 15 23 15 7 0 7 -4 -1 -12 -21 -21
-13 -32 8 -13 12 10 18 25 15 32 -2 8 0 11 5 8 6 -3 13 1 16 9 9 22 21 20 29
-5 5 -14 0 -31 -12 -48 -28 -38 -38 -59 -16 -36 10 11 35 31 56 44 20 12 37
27 37 32 0 6 -4 8 -9 5 -35 -22 -51 132 -20 184 34 55 -10 24 -60 -43 -12 -15
-12 -17 0 -12 10 4 14 -3 14 -24 1 -17 -1 -28 -4 -26 -2 3 -14 -1 -26 -9 -12
-8 -27 -11 -34 -6 -9 5 -10 10 -2 14 6 4 11 2 11 -4 0 -6 5 -8 11 -4 17 10
-12 25 -36 18 -18 -6 -17 -3 6 22 47 54 54 69 15 36 -21 -18 -41 -31 -44 -27
-3 3 5 13 17 22 17 11 20 18 11 23 -9 6 -4 18 18 46 17 22 39 53 49 70 10 18
28 46 41 63 13 17 20 31 15 31 -9 0 -62 -72 -82 -112 -7 -16 -17 -28 -22 -28
-15 0 -10 13 16 53 14 20 24 37 21 37 -6 0 -66 -86 -66 -95 0 -3 5 -3 10 0 14
9 12 -7 -4 -27 -21 -28 -39 -22 -32 10 3 15 3 21 0 15 -13 -29 -20 -9 -19 52
0 63 2 67 42 107 30 30 46 39 55 32 12 -8 26 -10 53 -4 10 1 -112 40 -127 40
-5 0 -8 -5 -8 -11 0 -5 6 -7 13 -3 8 5 8 2 -2 -9 -31 -39 -35 -18 -36 228 l0
170 28 3 c34 4 35 19 2 32 -21 8 -25 16 -25 49 0 56 7 69 46 81 29 10 39 9 62
-6 15 -10 39 -17 55 -15 15 1 27 -2 27 -8 0 -6 -5 -11 -11 -11 -5 0 -8 -4 -4
-9 3 -6 -8 -25 -24 -43 -28 -32 -71 -105 -71 -120 0 -19 18 -5 32 25 8 17 36
59 60 92 25 33 53 76 62 95 l17 35 -20 -22 c-10 -13 -24 -23 -31 -23 -13 0 53
97 105 154 20 21 34 40 31 43 -10 11 -45 -19 -87 -74 -69 -93 -134 -140 -88
-65 13 20 34 45 47 56 13 10 21 25 18 33 -3 8 -2 12 3 9 5 -3 14 1 21 9 7 8 9
15 6 15 -4 0 0 10 8 22 9 12 16 29 15 38 0 10 -6 7 -17 -10 -9 -14 -39 -49
-66 -77 -27 -29 -44 -53 -37 -53 8 0 7 -9 -4 -30 -9 -18 -23 -30 -36 -30 -17
0 -18 3 -8 22 6 12 16 27 20 32 5 6 20 25 34 42 33 42 32 54 -1 23 -19 -16
-28 -20 -31 -11 -3 6 -9 10 -14 6 -19 -11 -8 14 16 36 35 33 22 38 -19 6 -40
-30 -56 -33 -56 -9 0 13 -3 14 -12 5 -19 -19 -48 -15 -48 8 0 21 36 60 57 60
7 0 13 5 13 10 0 15 -36 12 -50 -5 -7 -8 -16 -15 -21 -15 -5 0 -9 171 -9 385
0 212 -5 475 -11 585 -12 217 -8 239 35 223 12 -5 50 -7 86 -6z m-140 -1804
c-1 -184 -2 -198 -20 -210 -11 -8 -20 -19 -20 -25 0 -7 6 -3 14 8 15 20 30 16
21 -7 -6 -15 -87 -81 -107 -88 -7 -2 -9 3 -5 13 4 10 1 16 -8 16 -8 0 -15 5
-15 10 0 6 -11 10 -24 10 -13 0 -34 9 -47 19 l-24 19 53 60 c46 54 51 62 37
74 -9 7 -22 19 -30 26 -7 6 -20 12 -29 12 -22 0 -30 19 -15 36 16 19 54 35 91
38 38 3 45 13 22 32 -18 15 -18 15 10 9 26 -6 28 -4 21 17 -15 47 -11 82 10
86 11 3 26 13 33 23 7 11 17 19 23 19 5 0 9 -80 9 -197z m1750 -564 c-30 -28
-80 -69 -110 -91 -57 -43 -140 -121 -140 -133 0 -12 62 31 92 64 16 18 31 31
34 28 6 -6 -65 -81 -91 -95 -11 -6 -14 -12 -8 -12 7 0 -1 -19 -19 -45 -17 -25
-29 -47 -26 -51 7 -6 68 79 68 94 0 5 16 22 35 36 43 33 45 25 5 -16 -35 -35
-38 -58 -10 -78 11 -8 20 -22 20 -31 0 -26 -49 -111 -91 -156 -32 -35 -39 -39
-39 -22 0 11 -12 36 -26 54 -24 32 -25 37 -14 72 7 21 18 44 24 52 9 12 8 13
-3 6 -11 -6 -13 -4 -7 11 5 10 10 32 12 47 4 34 21 67 34 67 5 0 7 6 4 13 -5
15 80 104 110 113 33 11 153 93 160 109 3 8 13 15 23 15 12 0 1 -16 -37 -51z
m-37 -300 c-6 -6 -9 -17 -7 -23 3 -7 -12 -35 -33 -64 -72 -99 -217 -287 -237
-309 -36 -37 -63 -77 -71 -103 -4 -14 -11 -29 -15 -35 -4 -5 -11 -29 -15 -52
-4 -24 -10 -43 -14 -43 -11 0 -7 85 5 95 16 14 27 65 14 65 -5 0 -10 -6 -10
-12 0 -7 -8 -22 -16 -33 -15 -19 -15 -17 -9 25 10 64 31 95 96 140 57 40 118
110 197 227 23 33 52 69 65 80 13 10 26 26 30 36 3 9 12 17 19 17 9 0 9 -3 1
-11z m-120 -401 c50 -103 67 -169 74 -281 8 -136 -7 -197 -61 -244 -50 -42
-173 -105 -181 -92 -4 5 -9 71 -12 147 -9 217 26 386 104 503 14 22 29 39 33
39 4 0 24 -33 43 -72z"/>
<path d="M9460 7300 c-19 -11 -48 -19 -63 -20 -56 0 -130 -85 -161 -183 -5
-14 -10 -16 -25 -7 -32 17 -56 12 -85 -19 -22 -23 -33 -28 -50 -22 -33 12 -79
-2 -92 -26 -6 -12 -23 -32 -37 -43 -39 -31 -36 -66 8 -91 38 -23 44 -39 20
-59 -8 -7 -15 -23 -15 -36 0 -12 -4 -26 -10 -29 -17 -11 -11 -22 11 -21 15 1
28 -10 41 -34 28 -49 36 -56 50 -42 9 9 7 13 -5 18 -9 3 -17 12 -17 20 0 17
17 18 23 2 3 -7 5 11 4 41 -1 41 -4 50 -12 36 -26 -43 -29 -45 -49 -30 -15 11
-16 17 -7 28 6 8 14 36 18 63 3 27 13 59 21 72 8 12 10 22 4 22 -5 0 -16 -10
-25 -22 -14 -23 -15 -23 -36 -4 -29 26 -26 43 11 66 18 11 33 28 33 37 0 24
37 28 77 9 38 -19 38 -19 38 -3 0 36 63 60 88 35 6 -6 13 -10 15 -7 13 16 47
82 47 90 0 5 6 17 13 25 34 43 48 53 62 48 10 -4 15 0 15 15 0 17 10 22 60 33
33 6 60 17 60 24 0 19 42 24 72 9 29 -14 37 -8 16 13 -18 18 -78 14 -118 -8z"/>
<path d="M9555 7248 c33 -19 55 -52 52 -78 -1 -19 3 -26 20 -28 14 -2 31 -19
45 -43 12 -21 24 -39 27 -39 18 0 118 44 140 62 69 53 129 54 153 2 11 -23 10
-29 -12 -46 l-23 -19 36 -30 c48 -39 55 -64 26 -95 -12 -13 -19 -24 -15 -24 4
0 16 10 26 23 10 12 21 19 25 15 4 -4 -9 -27 -29 -51 -39 -47 -48 -71 -17 -43
16 15 22 15 40 4 28 -17 33 -36 21 -78 -11 -39 -7 -48 15 -30 9 7 13 21 10 31
-4 11 -3 28 0 39 6 18 14 21 64 19 55 -2 89 8 123 38 12 11 32 13 86 8 92 -10
100 -15 84 -58 -16 -46 -16 -47 18 -58 37 -13 37 -22 5 -47 -27 -22 -25 -46 6
-62 27 -15 32 -12 25 15 -4 16 -1 34 9 48 21 31 19 45 -12 65 -24 14 -28 23
-25 54 3 33 -1 39 -28 53 -17 9 -53 19 -80 22 -43 5 -54 2 -95 -25 l-46 -31
-36 25 c-20 13 -43 24 -52 24 -22 -1 -51 -24 -51 -41 0 -8 -3 -9 -9 -4 -6 6
-5 26 2 53 11 42 11 42 -34 90 -40 41 -45 51 -38 77 13 56 10 64 -31 85 -49
25 -84 25 -107 1 -27 -27 -83 -54 -83 -39 0 6 -13 0 -28 -15 -36 -35 -60 -34
-73 2 -5 15 -20 34 -33 40 -12 7 -29 31 -37 54 -12 37 -18 42 -49 44 -31 2
-33 1 -15 -9z"/>
<path d="M8886 6824 c-23 -20 -34 -24 -60 -18 -17 4 -40 7 -50 6 -18 -1 -111
-92 -119 -117 -3 -6 -13 -2 -24 8 -11 9 -28 17 -38 17 -30 0 -154 -53 -160
-68 -10 -27 23 -119 45 -125 30 -8 32 6 5 43 -44 60 -34 77 58 106 56 17 59
17 92 0 28 -16 37 -17 50 -6 11 9 12 16 5 25 -8 9 -8 15 0 20 5 3 10 -1 10 -9
0 -10 9 -16 25 -16 25 0 33 14 15 25 -16 10 -12 40 8 58 22 20 51 22 86 6 22
-11 28 -8 51 20 15 17 35 31 46 31 10 0 19 5 19 10 0 18 -35 10 -64 -16z"/>
<path d="M9267 6588 c2 -140 -2 -262 -8 -288 -7 -31 -7 -46 0 -48 13 -4 15
-92 2 -92 -10 0 -23 31 -20 46 3 20 -2 35 -10 29 -6 -3 -8 -27 -6 -53 3 -51
-8 -82 -29 -82 -7 0 -16 -13 -19 -30 -7 -31 -49 -66 -67 -55 -6 4 -10 24 -9
46 2 21 0 41 -3 44 -9 10 -29 -60 -22 -78 10 -28 -3 -35 -51 -24 -43 10 -45
12 -46 46 l-1 36 -8 -33 c-10 -43 -19 -51 -27 -24 -7 28 -13 28 -38 -5 -33
-41 -48 -23 -41 51 l5 61 -15 -45 c-8 -25 -12 -58 -10 -75 5 -29 5 -29 -10
-10 -15 19 -16 19 -29 2 -7 -10 -22 -17 -32 -15 -15 3 -18 13 -17 53 l2 50
-21 -45 -20 -44 42 -38 43 -37 -32 -46 c-34 -50 -37 -51 -67 -30 -19 13 -22
13 -27 -1 -10 -27 -7 -32 29 -38 39 -8 42 -13 21 -41 -12 -16 -18 -17 -39 -8
-52 24 -65 42 -54 77 5 17 13 39 18 48 5 9 5 19 0 22 -8 6 -23 -19 -41 -67 -9
-27 -11 -27 -34 -12 -29 19 -40 45 -26 59 19 19 10 29 -10 11 -11 -10 -20 -26
-20 -35 0 -22 52 -70 125 -115 33 -21 61 -39 63 -41 2 -1 -1 -12 -8 -23 -7
-14 -7 -21 0 -21 6 0 15 12 21 27 6 16 17 36 26 45 8 9 12 21 9 26 -3 5 2 9
11 8 9 0 25 14 36 34 l19 35 -21 -24 c-36 -41 -34 -15 3 33 58 76 106 114 106
84 0 -6 3 -8 6 -5 4 3 15 -5 26 -18 14 -18 17 -29 9 -43 -16 -29 -35 -42 -50
-32 -12 7 -12 11 2 24 8 9 20 16 26 16 16 0 13 16 -5 34 -23 23 -28 21 -54
-26 -31 -55 -59 -96 -89 -130 -14 -15 -21 -31 -18 -35 4 -3 7 -1 7 5 0 7 5 12
11 12 6 0 8 -7 5 -16 -6 -14 -4 -15 9 -4 13 11 13 15 3 22 -11 8 -11 10 0 15
7 3 24 17 38 31 13 15 24 23 24 18 0 -5 -7 -18 -17 -28 -9 -10 -13 -21 -9 -25
4 -4 11 -1 16 7 13 20 50 23 50 4 0 -13 3 -14 14 -5 7 6 21 9 29 5 9 -3 31 6
52 22 l36 27 47 -52 c74 -81 79 -62 11 40 l-38 56 22 18 c23 20 14 26 90 -67
26 -33 41 -36 34 -7 -3 13 7 42 30 79 31 52 50 120 34 120 -8 0 -6 78 2 86 8
8 9 -15 12 -216 l2 -135 73 -3 c92 -4 200 13 249 38 91 46 201 130 172 130 -7
0 -9 5 -6 10 4 6 12 4 22 -5 14 -15 14 -20 0 -56 -18 -44 -6 -53 16 -11 33 62
43 78 64 99 12 12 33 44 47 70 30 59 86 137 93 130 3 -3 -16 -35 -41 -71 -25
-36 -46 -69 -46 -73 -1 -5 -11 -30 -24 -58 -13 -27 -22 -52 -20 -54 7 -7 45
39 40 47 -2 4 4 19 15 32 15 20 21 22 28 11 5 -7 14 -10 21 -6 9 6 9 9 -1 16
-10 6 -9 12 5 28 11 12 25 21 33 21 8 0 11 5 8 10 -3 6 -3 15 1 21 4 8 9 7 15
-2 4 -7 3 -19 -2 -26 -29 -34 -48 -87 -38 -100 16 -19 -5 -17 -25 2 -17 18
-42 20 -52 4 -4 -7 -1 -10 6 -7 8 2 26 -10 41 -26 l27 -31 30 22 c23 17 43 21
99 22 38 0 84 -4 102 -9 38 -11 64 -3 57 16 -3 8 7 26 22 40 27 26 27 26 3 19
l-24 -7 21 22 c12 13 19 27 16 32 -6 10 -48 -18 -83 -56 -28 -30 -43 -34 -34
-9 7 17 6 17 -20 0 -27 -18 -57 -23 -57 -9 0 12 68 54 79 48 5 -4 23 8 40 26
16 18 64 58 105 88 42 30 76 58 76 63 0 15 -20 6 -56 -25 l-36 -32 -25 28
c-22 26 -25 27 -46 13 -37 -26 -167 -153 -167 -165 0 -6 3 -12 8 -15 4 -2 1
-2 -5 -1 -7 2 -16 -2 -20 -9 -5 -7 -18 -21 -31 -32 -19 -16 -25 -17 -32 -6 -5
8 -3 25 3 40 13 30 101 125 91 99 -3 -10 -1 -18 5 -18 6 0 11 4 11 8 0 16 85
101 104 104 28 4 31 26 4 30 -14 2 -24 12 -28 28 l-6 25 -17 -27 c-9 -16 -24
-39 -33 -54 -20 -32 -34 -37 -69 -24 -21 8 -25 14 -17 22 15 15 16 32 2 23
-18 -11 -10 10 10 28 11 9 20 22 20 29 0 15 -47 -39 -55 -64 -4 -10 -11 -18
-16 -18 -18 0 -20 28 -4 62 l16 33 -25 -30 c-30 -35 -45 -26 -27 18 21 52 24
67 13 67 -5 0 -15 -12 -21 -27 -7 -16 -24 -37 -38 -47 l-26 -19 7 28 c6 23 5
25 -7 14 -7 -8 -16 -22 -20 -31 -7 -21 -23 -23 -30 -5 -2 6 -1 38 4 71 9 68
-10 184 -41 248 -11 23 -18 43 -16 45 8 9 46 -67 59 -117 l14 -53 6 37 c9 53
-47 171 -80 170 -12 0 -20 3 -18 7 3 4 -10 18 -28 32 -17 14 -52 43 -76 65
-66 60 -147 84 -301 89 l-125 4 2 -243z m304 162 c20 -5 67 -36 105 -68 122
-102 164 -225 109 -319 -14 -23 -21 -43 -15 -43 5 0 17 18 26 40 9 23 19 38
23 35 3 -4 6 -40 6 -81 0 -52 -4 -74 -12 -74 -7 0 -13 -9 -13 -20 0 -11 5 -20
10 -20 20 0 11 -96 -13 -131 -20 -30 -31 -35 -87 -45 -36 -7 -91 -14 -124 -17
-37 -3 -69 -13 -87 -26 -29 -21 -49 -27 -49 -13 -1 8 -8 316 -15 616 l-4 189
52 -6 c29 -3 68 -11 88 -17z"/>
<path d="M9551 3676 c-1 -37 -8 -94 -16 -127 -8 -32 -14 -62 -13 -66 1 -4 -6
-22 -15 -40 -9 -18 -17 -41 -17 -52 0 -22 -22 -41 -28 -23 -4 12 -82 -72 -82
-89 0 -17 12 -9 52 34 40 42 40 42 33 12 -4 -18 -29 -51 -61 -81 -42 -40 -51
-53 -39 -58 10 -3 36 11 71 39 30 25 63 45 74 45 10 0 22 5 25 10 3 6 17 10
30 10 13 0 29 8 34 18 7 10 14 13 18 7 5 -5 24 -18 43 -27 19 -10 59 -31 89
-48 52 -29 101 -39 101 -21 0 4 -16 11 -35 14 -20 3 -54 22 -77 41 -23 20 -50
36 -60 36 -10 0 -21 8 -24 18 -3 9 -11 30 -17 47 -11 29 -11 29 -17 5 -7 -31
-30 -38 -30 -9 0 22 0 22 -15 3 -13 -17 -14 -13 -10 46 13 192 13 218 0 270
l-13 55 -1 -69z"/>
<path d="M12465 7930 c-93 -3 -165 -8 -160 -11 24 -16 242 -31 369 -26 142 6
156 9 156 33 0 15 -16 15 -365 4z"/>
<path d="M12649 7225 c-58 -14 -253 -104 -245 -112 2 -3 15 0 28 6 20 10 20
10 4 -1 -10 -7 -48 -35 -85 -62 -62 -46 -65 -44 -16 13 l20 24 -33 -19 c-19
-10 -38 -27 -43 -36 -5 -9 -32 -43 -59 -74 -64 -73 -152 -246 -179 -350 -46
-181 -50 -371 -9 -504 11 -36 21 -76 22 -90 2 -22 55 -134 131 -275 15 -27 46
-86 69 -130 44 -83 74 -139 211 -390 141 -258 129 -221 110 -339 -10 -55 -23
-108 -31 -117 -11 -12 -11 -18 -2 -27 9 -9 9 -23 1 -59 -20 -84 -24 -121 -13
-128 5 -3 10 -18 11 -33 0 -26 1 -26 11 -5 10 20 18 22 102 22 50 1 108 4 128
7 44 7 80 -2 59 -15 -19 -12 7 -51 34 -51 18 1 19 1 3 11 -10 5 -18 14 -18 19
0 12 32 1 45 -15 15 -17 77 -25 71 -9 -4 10 10 12 55 11 32 -1 59 1 59 4 0 3
11 11 25 17 15 7 25 8 25 2 0 -6 7 -10 16 -10 9 0 12 5 8 13 -5 8 -3 8 9 -2 9
-7 15 -16 13 -20 -2 -3 28 -6 67 -5 45 0 72 5 75 12 2 8 -3 10 -14 5 -12 -4
-15 -3 -10 5 4 7 23 12 42 12 21 0 33 -4 29 -10 -4 -6 -11 -8 -16 -5 -5 4 -9
2 -9 -3 0 -6 27 -8 63 -6 34 3 80 5 101 5 66 0 25 19 -44 20 -35 1 -73 5 -85
9 -18 7 -17 9 10 16 16 4 48 8 72 8 24 1 43 4 43 7 0 3 15 4 33 2 l32 -4 -25
14 c-23 13 -55 14 -215 7 -63 -2 -96 4 -104 19 -5 9 -15 52 -21 96 -7 44 -21
127 -30 185 l-17 105 70 135 c68 130 137 270 197 395 65 136 120 255 120 259
0 3 14 35 31 72 17 37 32 72 33 78 1 6 10 27 19 46 29 60 75 228 88 320 35
244 -86 553 -288 740 -37 35 -84 69 -103 77 -90 37 -129 57 -125 63 2 4 -30
18 -73 31 -66 20 -101 24 -252 26 -124 1 -191 -2 -231 -12z m468 -65 c150 -44
283 -114 258 -138 -5 -6 -28 -15 -50 -21 -35 -9 -44 -8 -83 15 -24 14 -68 48
-98 75 -30 27 -58 49 -62 49 -12 -1 121 -118 156 -137 36 -20 41 -33 12 -33
-10 0 -29 -4 -42 -10 -13 -5 -106 -32 -208 -61 -102 -28 -234 -71 -295 -95
l-110 -45 -20 27 c-22 30 -136 166 -166 199 -14 15 -19 16 -19 5 0 -8 17 -33
38 -55 61 -65 142 -166 142 -177 0 -6 -7 -8 -15 -4 -12 4 -13 2 -3 -14 10 -15
9 -22 -3 -37 -47 -55 -105 -196 -144 -348 -22 -89 -24 -91 -82 -140 -163 -136
-216 -176 -224 -168 -4 4 -10 26 -13 49 -3 22 -13 57 -21 79 -13 29 -16 66
-14 159 1 67 5 126 8 131 3 6 6 12 7 15 0 3 5 16 11 30 5 14 24 70 42 125 18
55 57 144 87 198 61 108 74 115 128 71 17 -14 69 -53 116 -86 72 -50 78 -53
40 -18 -25 22 -80 64 -122 93 -43 29 -77 55 -78 59 0 13 157 121 225 155 199
96 394 113 602 53z m344 -210 c21 -23 36 -46 33 -53 -2 -7 14 -30 36 -52 39
-38 56 -71 23 -44 -14 12 -14 9 2 -18 11 -18 25 -33 32 -33 7 0 13 -8 13 -17
0 -15 -2 -16 -10 -3 -5 8 -12 12 -15 8 -9 -9 24 -70 45 -85 37 -26 52 -171 40
-371 -8 -145 -18 -163 -60 -113 -36 42 -130 230 -168 336 -48 131 -161 406
-172 420 -13 16 11 32 80 51 70 19 81 17 121 -26z m-246 -87 c-4 -43 -13 -145
-19 -228 l-11 -150 -36 55 c-70 108 -179 177 -288 184 -77 4 -207 -43 -269
-98 -24 -22 -72 -101 -72 -120 0 -7 -7 -21 -15 -32 -12 -16 -12 -11 1 36 37
127 78 201 125 225 35 19 290 111 374 135 33 10 89 30 125 44 96 37 94 39 85
-51z m99 -136 c30 -73 73 -181 96 -242 22 -60 61 -147 86 -193 25 -46 43 -86
41 -88 -2 -2 -49 27 -104 66 -56 38 -131 86 -168 106 l-67 37 6 46 c3 25 11
133 17 240 10 156 15 190 25 176 7 -9 37 -76 68 -148z m-338 -88 c105 -50 176
-162 178 -279 0 -59 -5 -78 -37 -143 -23 -46 -50 -85 -72 -101 -57 -44 -136
-76 -185 -76 -84 1 -176 61 -228 149 -24 42 -27 55 -27 146 0 91 3 105 29 158
32 63 86 122 138 150 47 25 146 23 204 -4z m-480 -207 c-11 -18 -6 -141 9
-201 18 -73 56 -133 117 -186 50 -43 73 -53 146 -65 67 -11 153 3 209 36 63
36 69 29 21 -26 -24 -27 -52 -66 -63 -87 -10 -21 -28 -51 -39 -67 -11 -16 -14
-26 -8 -22 7 4 39 47 71 94 32 48 86 119 120 157 34 39 73 94 87 123 26 56 49
155 40 178 -3 8 0 14 7 14 20 0 362 -225 365 -241 2 -9 -68 -49 -215 -123
-120 -60 -288 -151 -374 -202 -86 -52 -161 -94 -167 -94 -6 0 -34 35 -61 78
-28 42 -75 102 -105 132 -31 30 -56 60 -56 66 0 6 -10 19 -22 27 -21 15 -22
16 -3 16 16 1 14 6 -16 39 -52 55 -95 114 -103 140 -6 18 -4 21 11 15 15 -6
16 -4 5 9 -7 8 -9 24 -5 33 5 14 3 17 -10 12 -11 -4 -17 -1 -17 8 0 8 6 12 13
9 10 -3 14 7 15 38 2 59 12 98 23 98 6 0 8 -4 5 -8z m-34 -290 c28 -42 54 -79
57 -82 4 -3 24 -30 45 -60 22 -30 67 -87 100 -127 34 -39 72 -87 86 -104 22
-30 23 -32 5 -25 -11 4 -42 16 -70 26 -27 10 -108 45 -180 79 -71 34 -164 76
-205 93 -41 16 -97 40 -123 52 l-49 22 71 54 c39 30 95 73 124 95 28 22 56 45
60 52 12 19 22 10 79 -75z m1140 -94 c-13 -26 -69 -151 -98 -218 -24 -58 -162
-326 -202 -395 -6 -11 -32 -65 -56 -120 -93 -211 -148 -315 -190 -362 -10 -13
-17 -26 -13 -29 4 -4 -5 -20 -19 -37 -29 -35 -64 -100 -64 -120 0 -8 -9 -26
-20 -40 -13 -17 -16 -27 -8 -29 7 -3 2 -18 -15 -44 -25 -36 -27 -37 -27 -14 0
14 -1 43 -3 65 -2 22 0 57 4 78 3 20 3 37 -1 37 -4 0 -7 67 -6 149 1 130 3
152 20 169 10 12 16 27 13 34 -3 8 -9 2 -16 -15 -15 -39 -33 -24 -30 27 3 41
16 70 74 161 17 28 35 59 39 70 10 29 -40 -33 -55 -67 -6 -16 -16 -28 -21 -28
-5 0 -14 -13 -19 -30 -6 -16 -15 -27 -20 -24 -14 8 -11 148 4 163 10 10 9 12
-3 9 -20 -4 -25 44 -8 74 7 13 12 27 13 31 0 4 5 11 10 15 17 12 57 73 51 79
-2 3 -19 -16 -37 -41 -38 -54 -53 -58 -47 -14 3 17 2 47 -2 65 -6 24 -4 33 5
33 7 0 15 4 17 8 4 11 123 84 241 149 56 30 120 65 142 77 22 13 46 21 53 19
6 -3 12 0 12 6 0 5 26 18 58 27 31 10 68 27 80 38 13 12 33 20 45 18 18 -2 19
-1 7 7 -8 6 -12 11 -7 11 4 0 8 -1 10 -2 1 -1 13 5 27 12 14 8 31 13 38 12 7
-2 12 1 11 5 -3 20 2 26 13 15 9 -9 9 -17 0 -34z m-1222 -167 c135 -60 270
-119 300 -131 30 -12 73 -30 95 -41 l40 -20 1 -62 c0 -34 8 -201 18 -372 9
-170 17 -368 18 -440 1 -71 5 -138 10 -148 13 -26 -1 -37 -15 -12 -6 11 -10
22 -8 23 1 2 -6 10 -16 17 -14 11 -15 16 -6 26 9 9 5 20 -18 48 -16 19 -29 39
-29 44 0 5 -17 34 -37 65 -40 60 -46 69 -80 130 -12 22 -68 122 -126 223 -58
101 -115 202 -127 224 -12 22 -30 51 -40 65 -16 23 -240 459 -240 467 0 8 29
-4 260 -106z"/>
<path d="M11893 5820 c-22 -65 -91 -344 -113 -455 -21 -110 -60 -281 -86 -381
-14 -55 -31 -120 -36 -146 -6 -27 -15 -48 -19 -48 -5 0 -9 5 -9 11 0 5 -4 7
-10 4 -16 -10 -12 -38 5 -31 8 3 15 1 15 -4 0 -6 -8 -10 -18 -10 -11 0 -18 -7
-18 -20 0 -11 6 -20 13 -20 7 0 13 -4 13 -9 0 -5 -9 -7 -20 -4 -25 7 -26 -12
-2 -26 15 -9 15 -10 1 -11 -18 0 -34 -43 -19 -48 6 -2 10 -8 10 -13 0 -6 -4
-8 -9 -4 -5 3 -12 1 -16 -5 -3 -5 -2 -10 4 -10 6 0 8 -16 4 -37 -4 -35 -64
-297 -98 -433 -7 -30 -19 -82 -25 -115 -6 -33 -15 -71 -19 -85 -8 -24 -22 -86
-36 -158 -4 -18 -9 -31 -11 -29 -7 6 24 180 37 215 6 15 15 54 20 87 6 33 14
74 19 90 28 90 64 391 44 372 -9 -9 -11 -16 -17 -103 -7 -83 -37 -224 -48
-224 -12 0 -12 -3 10 98 20 93 33 299 19 308 -5 3 -5 11 -1 17 4 6 8 34 10 62
2 27 8 65 14 83 12 35 17 59 18 80 1 6 5 12 10 12 9 0 3 -92 -9 -132 -13 -42
2 -42 17 -1 15 45 17 143 3 143 -5 0 -10 5 -10 11 0 5 4 8 9 4 5 -3 12 -1 16
5 3 5 1 10 -6 10 -7 0 -5 6 6 13 14 11 18 26 17 73 -1 73 13 169 44 299 13 55
28 127 34 160 5 33 12 71 15 85 43 219 54 305 41 318 -12 12 -20 -14 -67 -220
-55 -237 -75 -341 -84 -438 -6 -57 -119 -547 -145 -625 -5 -16 -16 -66 -24
-110 -9 -44 -17 -91 -20 -105 -3 -14 -23 -95 -44 -180 -22 -85 -47 -195 -56
-245 -9 -49 -32 -146 -51 -215 -60 -220 -107 -476 -101 -550 4 -51 1 -78 -14
-119 -11 -30 -17 -58 -14 -63 10 -16 21 1 28 41 9 55 23 59 31 9 4 -24 14 -55
21 -70 8 -15 14 -38 14 -51 0 -13 7 -32 15 -43 8 -10 15 -26 15 -35 0 -27 59
-45 125 -38 33 4 100 7 148 8 60 1 86 4 81 12 -4 7 23 9 92 4 55 -4 201 -6
325 -5 211 1 227 0 234 -17 6 -16 8 -16 16 5 7 20 13 22 49 16 27 -4 40 -3 40
5 0 6 -14 11 -30 11 -30 0 -31 1 -24 38 4 20 11 45 15 54 5 9 9 25 9 36 0 18
6 19 93 16 50 -2 115 -8 142 -13 65 -13 333 -8 365 7 20 9 6 11 -73 8 -54 -1
-100 1 -103 6 -3 4 2 8 10 8 8 0 18 4 21 10 4 6 -19 8 -62 5 -92 -5 -192 -7
-290 -6 l-83 1 0 30 c0 26 3 30 23 25 12 -3 42 -9 67 -15 42 -9 343 -6 470 5
30 3 84 7 120 10 98 7 146 16 129 25 -8 4 -63 2 -124 -6 -129 -15 -543 -18
-565 -4 -10 6 57 10 200 11 263 2 298 3 306 12 4 4 -106 7 -244 7 -161 0 -252
4 -252 10 0 6 43 10 108 11 59 1 96 4 82 8 -42 12 -2 18 70 12 36 -3 137 -4
225 -1 88 4 133 7 100 9 -33 2 -71 5 -85 6 -70 8 -510 13 -510 6 0 -21 -44
-56 -71 -56 -33 -1 -41 27 -11 44 11 7 13 10 3 11 -11 0 -12 9 -6 43 4 23 9
51 10 62 1 11 7 33 14 48 6 16 9 32 6 37 -2 4 2 29 9 56 8 27 18 85 21 129 4
44 11 85 15 90 5 6 16 49 25 96 l17 86 47 -2 c25 -1 178 -3 339 -4 l292 -1 0
-24 c0 -32 20 -86 32 -86 5 0 2 -7 -6 -16 -12 -11 -13 -20 -6 -34 6 -10 10
-29 10 -42 0 -16 3 -19 9 -10 7 11 9 11 14 -2 3 -8 2 -18 -3 -21 -14 -9 -12
-45 3 -45 9 0 9 -2 -1 -8 -7 -5 -10 -16 -6 -26 5 -13 9 -15 15 -5 4 7 5 -5 2
-27 -3 -22 2 -67 10 -100 8 -32 19 -81 23 -109 4 -27 9 -54 9 -60 1 -5 3 -17
3 -26 1 -8 22 -42 47 -74 34 -44 43 -60 33 -67 -10 -6 -8 -11 7 -20 11 -6 40
-32 64 -57 40 -43 43 -44 37 -18 -4 16 -2 27 4 27 5 0 10 -3 11 -7 0 -5 2 -27
4 -50 3 -39 1 -43 -18 -43 -12 0 -28 -4 -34 -8 -16 -10 -34 -10 580 -15 285
-2 522 -8 526 -13 5 -5 16 -37 27 -71 10 -35 21 -63 25 -63 8 0 2 34 -11 65
-5 11 -11 40 -13 65 -2 25 -18 106 -37 180 -18 74 -34 144 -35 155 -1 11 -7
32 -14 48 -16 41 -39 134 -71 297 -16 80 -40 195 -54 255 -14 61 -33 139 -41
175 -8 36 -15 86 -15 112 0 26 -5 50 -11 54 -6 3 -8 15 -6 26 4 14 2 18 -9 14
-9 -3 -14 1 -14 12 0 9 -3 28 -7 42 -6 23 -5 24 13 10 19 -14 19 -14 0 7 -10
13 -22 39 -27 60 -28 128 -29 138 -19 141 15 5 12 32 -5 38 -8 4 -15 14 -15
23 0 14 2 14 11 1 8 -11 9 -8 4 15 -4 16 -11 33 -17 36 -7 4 -7 8 1 10 7 3 6
12 -3 31 -8 15 -12 29 -9 32 3 3 -3 31 -13 63 -10 32 -18 75 -19 95 0 21 -4
38 -9 38 -5 0 -7 3 -3 6 3 4 0 19 -8 35 -8 15 -12 35 -9 43 4 9 1 16 -6 16 -7
0 -10 7 -7 15 4 8 2 17 -3 20 -5 3 -9 13 -9 23 0 9 -1 24 -4 32 -2 8 -9 33
-15 55 -10 36 -16 70 -27 145 -7 45 -65 283 -90 365 -13 44 -38 134 -55 200
-43 165 -57 175 -50 35 1 -30 7 -58 12 -61 5 -3 12 -30 14 -60 6 -64 22 -129
36 -146 5 -7 7 -17 3 -22 -3 -6 1 -25 9 -43 16 -36 26 -75 32 -127 3 -19 7
-37 9 -41 3 -4 7 -25 11 -46 3 -22 9 -43 14 -49 4 -5 11 -35 15 -65 4 -30 11
-65 16 -77 9 -26 2 -56 -12 -47 -5 3 -9 0 -9 -6 0 -7 7 -10 15 -7 16 7 20 3
29 -35 3 -16 2 -28 -3 -28 -5 0 -14 12 -20 28 -11 26 -11 26 -8 2 6 -36 77
-352 84 -370 3 -8 5 -21 4 -29 -1 -7 2 -10 8 -7 6 4 8 -6 4 -29 -3 -21 -2 -35
5 -35 8 0 15 -16 28 -65 1 -5 5 -23 8 -40 3 -16 13 -57 21 -90 9 -33 27 -114
41 -180 63 -300 235 -1042 267 -1150 8 -27 18 -58 22 -67 7 -17 -17 -18 -382
-18 -213 -1 -397 -2 -408 -2 -11 -1 -59 -1 -107 0 l-86 2 -12 73 c-6 39 -16
88 -20 107 -11 44 -38 200 -45 260 -3 25 -8 61 -11 80 -6 39 -10 68 -18 120
-7 56 -36 201 -46 241 -6 20 -10 55 -10 77 0 44 -13 60 -34 43 -9 -8 -55 -8
-157 -1 -79 5 -179 10 -221 11 -43 1 -78 4 -78 8 0 8 -60 10 -148 4 -39 -3
-70 -8 -67 -13 3 -4 23 -6 45 -3 26 4 40 2 40 -6 0 -7 -19 -11 -50 -11 -30 0
-50 4 -50 11 0 7 -10 9 -27 5 -72 -18 -148 -24 -155 -13 -5 8 -8 6 -8 -5 0
-10 -5 -18 -12 -18 -6 0 -8 -3 -5 -7 4 -3 3 -11 -2 -17 -4 -6 -21 -56 -36
-111 -15 -55 -38 -128 -51 -162 -30 -80 -106 -391 -102 -418 2 -11 12 17 23
62 10 46 22 88 26 95 14 22 19 2 9 -33 -6 -19 -13 -50 -16 -69 -3 -19 -12 -57
-19 -85 -7 -27 -13 -57 -12 -66 0 -9 -6 -50 -13 -93 l-13 -76 -66 0 c-88 0
-243 19 -258 32 -9 7 -13 7 -13 -2 0 -8 -4 -9 -12 -3 -8 5 -140 8 -310 7 -164
-1 -298 1 -298 4 0 4 16 72 35 152 68 278 84 345 91 385 4 22 10 47 15 56 4 9
10 34 13 55 2 21 5 39 7 39 1 0 3 9 4 20 2 11 11 47 20 80 28 98 29 107 14
116 -11 7 -11 9 3 9 9 0 20 5 24 12 5 7 3 8 -6 3 -9 -6 -11 0 -6 21 3 16 8 45
10 64 2 19 7 42 10 50 3 8 7 31 10 50 3 19 19 96 37 170 17 74 32 153 34 175
1 22 3 46 4 53 1 6 5 12 10 12 4 0 7 -12 5 -27 l-4 -28 15 30 c8 17 14 40 15
52 0 12 3 24 8 27 4 2 7 25 7 50 0 25 3 46 6 46 3 0 11 21 16 47 9 36 8 50 0
55 -9 6 -9 10 -1 16 17 11 33 69 28 97 -2 14 0 25 4 25 5 0 8 14 6 30 -2 17 1
30 7 30 6 0 9 9 6 20 -3 13 0 20 9 20 9 0 13 9 10 30 -2 17 0 30 3 30 4 0 8
12 9 26 1 15 6 32 10 38 5 6 9 22 10 36 1 29 21 138 30 160 3 8 15 60 28 115
12 55 34 154 49 220 14 66 28 145 31 175 3 30 12 70 20 88 8 18 14 47 12 65
-3 29 -5 26 -25 -33z m1450 -2620 c3 -11 12 -20 21 -20 10 0 13 5 9 17 -4 10
-2 14 5 9 6 -3 14 -28 17 -54 4 -26 15 -80 26 -120 25 -95 25 -115 -1 -82 -11
14 -20 31 -20 38 0 6 -3 12 -7 12 -9 0 -103 114 -103 125 0 4 9 5 21 2 18 -5
20 -2 14 26 -4 18 -9 40 -11 50 -3 10 0 17 9 17 8 0 17 -9 20 -20z"/>
<path d="M6312 3112 c-6 -2 -12 -10 -12 -18 0 -8 -4 -14 -9 -14 -12 0 -118
-140 -123 -160 -2 -8 -10 -21 -18 -28 -13 -11 -9 -12 21 -9 20 3 43 1 50 -4
11 -7 9 -9 -6 -9 -24 0 -52 -16 -43 -25 9 -9 98 6 98 16 0 5 -8 9 -17 10 -10
1 -1 6 20 11 47 13 49 29 1 18 -38 -9 -94 4 -94 22 0 7 5 7 13 -1 14 -11 132
-9 220 4 39 6 47 5 47 -9 0 -10 5 -13 17 -9 11 4 13 8 5 11 -7 2 -10 8 -6 13
5 9 -11 14 -31 9 -28 -6 -226 -6 -230 0 -9 15 43 20 263 27 232 6 283 22 82
24 -134 2 -107 16 33 18 56 1 86 5 82 11 -3 6 -40 10 -81 10 -43 0 -74 4 -74
10 0 6 31 10 72 10 39 0 69 2 66 5 -12 12 -59 17 -180 17 -138 0 -174 11 -54
16 41 2 96 7 123 12 47 7 46 8 -32 11 -154 5 -190 6 -203 1z"/>
<path d="M15937 2883 c-16 -3 -26 -10 -24 -16 8 -25 115 -35 364 -36 226 -1
252 1 246 15 -4 12 -8 13 -14 3 -6 -10 -12 -9 -28 5 -14 12 -26 16 -43 10 -36
-11 -161 -13 -182 -2 -12 7 -16 7 -12 0 7 -12 -63 -10 -82 2 -7 4 -25 5 -39 1
-20 -5 -24 -3 -20 9 5 14 -4 16 -66 15 -40 -1 -85 -4 -100 -6z"/>
<path d="M12660 2864 c0 -11 -5 -14 -17 -9 -33 14 -333 8 -333 -6 0 -5 13 -9
29 -9 17 0 33 -5 37 -11 5 -9 71 -10 248 -5 133 4 257 9 276 11 19 2 38 4 42
4 4 1 5 8 2 16 -6 15 -34 21 -34 7 0 -4 -54 -8 -120 -9 -101 -2 -118 0 -114
12 4 8 1 15 -5 15 -6 0 -11 -7 -11 -16z"/>
</g>
</svg>
