<?xml version="1.0" standalone="no"?>
<!DOCTYPE svg PUBLIC "-//W3C//DTD SVG 20010904//EN"
 "http://www.w3.org/TR/2001/REC-SVG-20010904/DTD/svg10.dtd">
<svg version="1.0" xmlns="http://www.w3.org/2000/svg"
 width="1928.000000pt" height="1074.000000pt" viewBox="0 0 1928.000000 1074.000000"
 preserveAspectRatio="xMidYMid meet">
<metadata>
Created by potrace 1.16, written by Peter Selinger 2001-2019
</metadata>
<g transform="translate(0.000000,1074.000000) scale(0.100000,-0.100000)"
fill="#000000" stroke="none">
<path d="M14560 8014 c0 -5 9 -20 20 -34 28 -35 25 -48 -12 -53 -31 -4 -31 -4
6 -5 36 -2 38 -3 33 -29 -3 -16 -8 -291 -12 -613 -4 -322 -8 -632 -10 -690 -4
-149 -4 -142 0 -1128 2 -585 -1 -894 -7 -898 -7 -4 -6 -9 0 -13 16 -10 18
-321 2 -331 -7 -4 -8 -10 -3 -13 5 -3 10 -140 11 -304 1 -164 3 -400 4 -525 3
-218 2 -227 -17 -232 -10 -3 -27 2 -37 11 -16 14 -18 14 -18 1 0 -18 24 -41
33 -32 11 12 47 -8 47 -26 0 -10 7 -17 16 -16 9 0 19 -5 22 -13 3 -10 0 -12
-12 -8 -14 6 -16 3 -11 -14 5 -14 4 -19 -4 -15 -6 4 -19 2 -28 -4 -16 -10 -15
-10 3 -5 13 3 28 -1 37 -10 9 -8 20 -15 26 -15 17 0 92 -84 87 -97 -3 -8 2
-12 16 -10 16 1 29 -12 57 -58 32 -54 36 -69 40 -145 4 -83 19 -90 20 -10 1
19 5 51 11 70 l10 35 147 -3 c82 -2 149 -8 151 -13 4 -9 327 -2 352 8 16 6
184 12 365 13 75 0 105 3 95 10 -8 5 -38 10 -67 10 -61 0 -83 7 -83 26 0 8 -7
14 -15 14 -8 0 -14 -6 -12 -12 1 -7 -9 -14 -23 -16 -20 -3 -23 -1 -12 9 7 8
12 41 12 86 0 63 2 73 18 73 9 0 62 -5 117 -10 186 -19 225 -21 225 -12 0 5
-32 10 -71 11 -40 1 -81 7 -93 13 -12 7 -55 11 -104 10 -67 -2 -83 0 -88 13
-11 27 3 47 25 36 10 -6 55 -12 100 -13 60 -2 80 -6 78 -16 -1 -10 33 -14 158
-18 88 -2 180 -4 204 -4 24 1 47 -4 51 -10 4 -6 22 -10 41 -8 31 4 32 5 12 14
-12 5 -22 14 -23 19 0 6 -18 10 -40 9 -21 0 -37 3 -34 8 3 4 15 8 26 8 33 0
13 12 -24 15 -18 2 -139 6 -268 9 -129 4 -252 9 -272 12 l-37 6 0 466 c0 257
-3 627 -6 822 -3 213 -2 349 4 340 5 -8 21 -50 35 -94 15 -43 46 -124 70 -180
56 -134 128 -322 211 -551 41 -114 70 -190 121 -325 7 -19 13 -49 14 -67 0
-17 4 -34 9 -37 14 -9 125 -295 118 -303 -2 -2 -23 16 -47 39 -42 41 -39 30 4
-19 18 -21 18 -23 2 -23 -10 0 -14 -5 -10 -11 3 -6 17 -8 30 -5 16 4 29 0 39
-11 50 -58 80 -97 77 -102 -2 -3 2 -7 9 -10 8 -2 9 1 3 10 -4 8 44 -33 109
-90 64 -57 117 -108 117 -113 0 -4 -19 -8 -42 -9 -83 -1 -233 -10 -237 -15 -5
-5 156 -9 246 -6 l61 2 53 -100 c29 -55 54 -98 56 -96 2 2 -12 40 -32 84 -43
94 -43 121 1 77 16 -17 42 -46 56 -65 15 -19 29 -32 32 -29 3 2 -10 24 -29 48
-19 24 -32 47 -29 52 3 5 8 7 12 5 11 -6 223 -16 359 -17 l123 0 0 -65 c0 -41
4 -63 10 -59 6 3 10 33 10 66 0 59 0 59 30 61 51 2 55 3 61 12 4 4 41 10 83
13 l76 5 0 -84 c0 -45 5 -90 10 -98 7 -10 10 11 10 70 0 47 4 91 9 98 5 9 41
14 123 15 91 1 112 4 99 13 -9 7 -20 10 -24 7 -7 -4 -86 -4 -155 0 -33 3 -43
25 -36 82 11 85 10 704 -1 698 -5 -3 -4 0 3 8 16 18 15 29 -3 29 -8 0 -15 5
-15 11 0 5 4 8 9 5 5 -3 11 0 13 7 7 19 -3 97 -12 92 -16 -10 -22 127 -15 288
8 166 8 271 -1 342 -3 22 -7 234 -9 470 -4 487 -13 713 -26 677 -6 -17 -15
-22 -31 -20 -22 3 -23 7 -23 86 0 87 9 108 40 96 13 -5 16 -3 13 7 -3 8 -12
14 -21 14 -20 0 -35 15 -16 16 8 1 20 1 27 0 8 -1 12 13 12 44 0 25 4 45 9 45
4 0 12 -84 16 -187 4 -104 9 -222 10 -263 2 -41 4 -274 4 -518 1 -409 8 -513
25 -383 12 93 6 981 -7 1051 -7 36 -11 81 -9 100 5 56 3 642 -3 675 -11 60
-11 100 -1 107 8 5 10 194 9 619 -2 527 0 610 12 605 8 -3 17 -1 20 4 4 6 -1
10 -9 10 -8 0 -21 9 -29 20 -7 11 -28 30 -45 42 -17 13 -80 66 -141 118 -155
133 -195 164 -199 151 -2 -7 1 -18 8 -26 6 -8 9 -19 5 -25 -3 -5 -1 -10 6 -10
6 0 37 -22 68 -48 31 -27 66 -55 77 -63 12 -8 47 -38 78 -67 32 -29 62 -50 67
-46 6 3 16 0 24 -6 19 -15 20 -37 3 -23 -25 18 -339 23 -720 10 l-236 -8 -44
53 c-23 29 -80 87 -125 128 -45 41 -82 78 -83 81 0 4 170 5 378 2 362 -4 472
3 472 27 0 4 -37 10 -82 13 -105 6 -580 1 -713 -9 l-100 -7 -2 -96 c-2 -53 -8
-154 -14 -226 -7 -83 -8 -175 -3 -255 11 -174 11 -869 0 -862 -6 3 -6 -3 -2
-14 16 -38 18 -54 8 -54 -6 0 -13 6 -16 13 -3 6 -4 -12 -2 -42 4 -66 -2 -56
-53 85 -21 60 -53 139 -70 176 -17 38 -47 116 -67 175 -38 113 -124 334 -148
381 -8 15 -42 99 -76 187 -34 88 -70 174 -81 191 -20 33 -15 52 8 32 7 -6 17
-8 21 -4 8 8 -25 30 -46 31 -21 0 -134 158 -119 167 11 7 3 12 -15 9 -10 -1
-87 82 -88 95 0 5 -14 23 -31 40 l-31 29 8 -29 c11 -44 70 -136 123 -191 26
-27 58 -65 70 -83 12 -18 26 -30 31 -27 5 3 11 1 15 -4 6 -11 -58 -26 -73 -17
-5 3 -187 6 -404 6 l-395 1 -31 32 c-16 18 -50 64 -75 102 -25 39 -55 81 -66
95 -11 14 -21 30 -21 35 0 7 42 8 123 3 237 -13 705 -15 700 -2 -5 15 -134 22
-538 30 -170 3 -314 9 -319 11 -4 3 -11 1 -15 -5 -4 -7 -22 8 -44 35 -20 25
-37 42 -37 37z m2043 -407 c-2 -4 0 -14 7 -22 7 -8 9 -27 5 -47 -3 -18 -9
-161 -12 -318 -5 -270 -6 -286 -25 -301 -16 -13 -21 -31 -25 -102 -4 -62 -2
-87 6 -87 7 0 11 28 11 85 0 67 3 85 14 85 8 0 17 -4 21 -10 3 -5 2 -95 -1
-200 -6 -149 -10 -190 -21 -190 -9 0 -13 15 -13 52 0 73 -13 56 -19 -24 -2
-32 -20 -19 -31 22 -6 21 -14 41 -19 44 -5 3 -6 16 -4 30 3 13 0 27 -6 30 -13
8 -14 1 -11 -81 1 -47 -2 -63 -12 -63 -11 0 -11 -2 1 -9 8 -5 13 -25 13 -51
-1 -23 3 -50 7 -59 10 -20 31 -84 31 -95 0 -5 -7 -3 -15 4 -8 7 -15 10 -15 6
0 -16 3 -21 11 -19 11 3 11 0 3 -22 -6 -14 -8 -13 -21 5 -8 11 -11 24 -8 30 3
5 1 19 -5 30 -8 14 -8 26 0 40 6 12 7 20 1 20 -5 0 -11 -6 -14 -12 -3 -7 -5
-4 -5 7 -3 127 -11 244 -17 259 -5 12 -5 17 2 13 11 -7 10 11 -1 61 -4 17 -13
32 -19 32 -13 0 -15 -148 -3 -168 3 -6 2 -21 -3 -33 -4 -13 -4 -37 0 -54 14
-50 19 -105 9 -105 -16 0 -21 18 -27 97 -3 43 -11 81 -17 86 -8 5 -7 9 2 16
14 9 14 18 -2 231 -4 47 -6 92 -6 100 4 107 -1 860 -5 881 -14 63 9 51 126
-67 64 -65 115 -122 112 -127z m-1805 68 c59 -54 77 -88 50 -97 -6 -2 -8 -10
-4 -16 4 -7 7 -158 7 -335 -1 -177 -3 -970 -5 -1762 -3 -792 -8 -1469 -12
-1503 -4 -40 -12 -66 -21 -69 -12 -5 -11 -8 1 -22 16 -17 16 -69 1 -103 -4
-10 -3 -18 1 -18 5 0 10 -14 11 -32 2 -28 1 -30 -13 -17 -9 10 -15 36 -15 72
-1 31 -6 63 -13 72 -10 14 -13 -93 -16 -554 0 -35 -3 -62 -6 -59 -6 7 -14 168
-18 370 -2 101 -6 141 -17 154 -12 16 -12 17 4 11 11 -4 17 -1 17 9 0 9 -5 12
-12 8 -8 -5 -9 -2 -5 9 3 9 2 19 -3 22 -6 4 -10 16 -11 28 l0 22 -9 -22 c-5
-13 -7 -42 -5 -65 9 -82 14 -334 5 -293 -4 22 -10 106 -14 187 -3 81 -8 153
-11 160 -9 25 -12 283 -3 301 5 10 5 17 0 17 -6 0 -12 9 -15 20 -3 11 -1 20 4
20 5 0 8 26 8 59 -1 32 4 69 11 81 8 15 8 20 1 16 -7 -4 -11 1 -11 13 0 21 19
24 32 6 4 -5 8 1 8 14 0 19 -3 21 -14 12 -10 -9 -16 -8 -26 4 -10 12 -10 15 4
15 18 0 22 26 5 32 -12 4 -20 48 -19 102 0 20 -4 27 -13 23 -10 -4 -14 7 -15
44 0 30 3 47 9 43 5 -3 9 -11 8 -17 -4 -32 3 -53 20 -64 16 -10 18 -8 17 18
-1 16 -7 29 -13 29 -7 0 -13 5 -13 11 0 5 5 7 10 4 6 -3 10 -2 10 4 0 5 -5 13
-10 16 -6 4 -8 36 -5 83 3 48 2 72 -4 63 -5 -8 -7 -21 -3 -29 3 -10 0 -13 -9
-10 -7 2 -15 19 -16 37 -2 26 0 32 12 27 8 -3 15 -1 15 5 0 6 5 7 10 4 6 -3
10 -2 10 4 0 18 -12 41 -22 41 -6 0 -8 -7 -4 -15 3 -8 1 -15 -4 -15 -6 0 -11
6 -12 13 -5 47 -9 190 -22 797 -9 440 -5 962 9 1110 3 25 5 91 5 148 0 63 4
102 11 102 6 0 7 5 4 11 -4 6 -8 144 -10 307 -2 163 -6 334 -10 380 -4 47 -3
82 2 82 9 0 83 -92 83 -104 0 -4 11 -19 25 -34 37 -39 45 -83 44 -233 -2 -185
0 -229 9 -229 5 0 9 93 9 208 1 224 0 229 -59 293 -44 48 -108 127 -108 133 0
4 21 -17 48 -47 26 -30 75 -80 110 -112z m969 -67 c12 -16 37 -107 31 -113 -2
-3 -17 16 -33 41 -16 25 -32 47 -37 50 -11 7 2 -26 22 -56 55 -81 122 -219
176 -360 14 -36 35 -85 46 -110 30 -65 41 -92 92 -220 24 -63 54 -137 65 -165
20 -50 31 -81 37 -100 2 -5 16 -44 33 -85 16 -41 53 -147 81 -235 28 -88 66
-196 85 -240 18 -44 49 -130 68 -191 76 -240 234 -570 261 -543 2 2 -7 38 -20
79 -24 72 -32 180 -36 475 0 46 0 235 1 280 1 47 1 62 0 85 -1 44 -1 91 6 320
3 124 7 410 9 635 2 226 4 419 5 430 1 20 9 20 325 22 l324 2 6 -42 c9 -60 13
-1860 8 -3545 -1 -431 0 -787 3 -792 3 -4 7 -102 8 -217 l4 -209 -111 3 c-61
1 -189 4 -283 6 -95 2 -174 5 -177 8 -2 2 -7 14 -10 27 -6 16 -3 22 8 22 23 0
20 18 -5 25 -16 6 -39 40 -39 61 0 6 39 0 83 -11 16 -4 27 -3 27 3 0 12 -16
18 -78 27 -34 6 -45 12 -54 33 -19 48 -69 185 -94 261 -13 40 -35 92 -49 115
-13 22 -44 100 -69 171 -39 113 -85 243 -139 391 -9 23 -29 70 -46 104 -17 34
-31 73 -31 86 0 13 -9 41 -20 61 -11 21 -20 43 -20 50 0 8 -4 21 -9 31 -23 46
-33 70 -35 93 -2 13 -23 69 -49 124 -25 55 -54 125 -65 155 -12 30 -34 91 -51
135 -17 44 -53 143 -81 220 -28 77 -62 165 -75 195 -13 30 -32 83 -42 117 -13
44 -24 65 -40 72 -13 6 -23 20 -23 31 0 11 -7 20 -15 20 -17 0 -21 16 -5 22 6
2 6 8 0 18 -8 13 -10 12 -10 -2 0 -21 -16 -24 -23 -5 -3 7 -6 7 -6 1 -1 -6 10
-23 24 -38 13 -14 21 -26 17 -26 -4 -1 3 -9 16 -20 13 -11 21 -24 17 -30 -5
-8 -11 -7 -21 1 -22 18 -30 2 -9 -21 15 -17 17 -32 11 -122 -3 -57 -5 -157 -5
-223 1 -66 1 -129 1 -140 0 -11 0 -141 1 -290 2 -493 1 -616 -4 -1091 -3 -259
-9 -476 -13 -482 -4 -6 -3 -20 2 -29 6 -10 12 -44 13 -76 l4 -58 -230 0 c-126
0 -321 1 -431 1 l-201 0 -7 51 c-4 28 -6 593 -4 1257 1 664 3 1703 3 2309 0
606 3 1105 7 1108 4 4 31 9 60 11 29 2 112 9 183 15 72 6 236 17 365 24 129 6
240 13 246 14 6 0 16 -5 21 -11z m1794 -1013 c1 -5 0 -25 -1 -43 -1 -18 4 -40
11 -48 19 -23 24 -203 7 -236 -10 -18 -13 -52 -12 -102 2 -42 -1 -76 -6 -76
-10 0 -17 82 -9 113 3 12 3 29 0 37 -8 19 -41 25 -41 8 0 -10 -2 -10 -9 0 -11
18 -46 11 -45 -9 1 -8 -7 -16 -17 -16 -12 -1 -16 3 -12 14 3 8 0 19 -8 24 -10
6 -15 36 -17 107 -3 87 -2 100 14 106 27 10 35 -12 33 -98 -1 -47 2 -81 8 -83
7 -3 10 32 9 97 0 55 -5 100 -9 100 -4 0 -3 9 3 20 6 11 8 25 5 30 -3 6 -1 10
4 10 6 0 11 -5 11 -11 0 -5 5 -7 10 -4 16 10 12 -5 -7 -23 -15 -15 -14 -17 8
-22 24 -6 24 -8 22 -116 -1 -82 1 -103 9 -84 6 14 8 77 6 145 -2 66 -2 110 0
98 6 -38 19 -26 18 16 0 27 -4 37 -13 34 -7 -3 -13 1 -13 9 0 16 39 19 41 3z
m-1056 -43 c3 -37 26 -59 78 -76 14 -4 17 -18 17 -78 0 -89 -20 -164 -38 -146
-9 9 -12 5 -12 -19 0 -17 7 -36 15 -43 14 -12 12 -30 -3 -30 -15 0 -32 57 -36
120 -5 77 -11 107 -28 139 -10 19 -10 25 0 28 13 5 17 33 4 33 -5 0 -9 21 -10
46 0 25 3 43 6 39 4 -4 7 -10 7 -13z m1005 -346 c0 -8 3 -23 6 -33 5 -15 4
-15 -5 -3 -9 12 -11 11 -11 -8 0 -13 4 -21 9 -18 13 9 20 -31 8 -43 -6 -6 -7
-11 -1 -11 5 0 4 -4 -2 -8 -8 -5 -9 -25 -3 -68 5 -34 7 -87 6 -118 -5 -89 -41
-104 -51 -22 -5 37 -16 63 -16 38 0 -7 -11 -12 -25 -12 -25 0 -25 1 -25 86 0
83 1 85 23 82 20 -3 22 -10 27 -73 l5 -70 9 85 c5 47 8 98 7 114 0 16 4 35 10
43 6 7 9 19 6 27 -6 15 1 26 15 26 4 0 8 -6 8 -14z m-2 -1291 c-11 -41 -10
-45 8 -38 14 5 15 2 8 -18 -11 -30 -12 -194 -1 -233 7 -23 5 -27 -7 -23 -10 4
-13 1 -9 -9 3 -7 0 -14 -7 -14 -8 0 -11 9 -8 25 3 14 1 25 -3 25 -5 0 -9 -13
-9 -30 0 -16 -4 -30 -10 -30 -10 0 -5 244 6 261 3 6 -1 18 -9 27 -13 14 -14
25 -4 67 14 62 39 87 48 47 3 -15 2 -40 -3 -57z m-1332 -741 c-3 -8 3 -20 14
-26 11 -7 20 -19 20 -26 0 -7 4 -20 9 -30 6 -9 22 -48 36 -87 27 -70 46 -116
71 -169 7 -16 12 -32 9 -36 -7 -12 23 -78 45 -100 17 -17 26 -46 21 -73 -1 -4
5 -10 13 -13 11 -4 13 -15 9 -35 -3 -16 -1 -35 4 -41 6 -7 13 -26 17 -43 6
-28 5 -28 -19 10 -14 22 -28 51 -32 65 -3 14 -17 48 -31 75 -14 28 -42 97 -64
154 -22 58 -48 122 -58 143 -10 21 -22 53 -25 70 -4 17 -20 62 -36 99 -33 78
-35 91 -13 82 8 -3 13 -12 10 -19z m-1525 -309 c4 -71 4 -83 -1 -80 -3 2 -5
-21 -5 -51 0 -30 3 -54 7 -54 4 0 5 -26 3 -57 -10 -117 -4 -395 10 -470 7 -41
-11 -44 -26 -5 -11 27 -21 629 -11 705 5 42 21 50 23 12z"/>
<path d="M16742 6388 l3 -113 46 -3 c72 -5 80 10 77 127 l-3 96 -63 3 -63 3 3
-113z m101 80 c-2 -5 -3 -46 -3 -93 l0 -85 -40 0 -40 0 0 96 0 95 43 -3 c23
-2 41 -6 40 -10z"/>
<path d="M16763 5703 c-22 -4 -23 -8 -23 -113 l0 -109 33 -6 c43 -8 85 9 91
37 3 13 4 59 3 102 -2 68 -5 80 -22 87 -22 8 -47 9 -82 2z"/>
<path d="M16958 5703 l-28 -4 0 -108 0 -108 41 -6 c23 -3 52 -1 65 5 23 11 24
15 24 115 0 91 -2 103 -17 103 -10 0 -27 2 -38 4 -11 2 -32 1 -47 -1z m82
-119 l0 -94 -40 0 c-38 0 -40 2 -42 33 -9 153 -4 167 52 159 l30 -4 0 -94z"/>
<path d="M17165 5703 c-32 -8 -34 -13 -41 -109 -7 -104 3 -126 59 -122 64 3
67 8 67 123 0 77 -3 105 -12 105 -7 0 -22 2 -33 4 -11 2 -29 2 -40 -1z m53
-23 c9 0 12 -26 12 -96 l0 -95 -37 3 -38 3 -3 84 c-3 101 1 115 31 107 12 -3
28 -6 35 -6z"/>
<path d="M16948 5273 c-16 -4 -18 -18 -18 -113 l0 -108 29 -4 c16 -2 45 -2 65
0 l36 4 0 104 c0 92 -2 104 -19 114 -20 10 -61 12 -93 3z"/>
<path d="M17165 5273 c-31 -8 -35 -21 -35 -125 l0 -98 44 0 c76 0 76 0 76 111
0 98 0 100 -26 109 -27 11 -27 11 -59 3z"/>
<path d="M16757 4843 c-16 -4 -18 -16 -16 -108 l1 -104 39 -6 c77 -13 89 5 89
140 0 57 -3 74 -16 79 -17 7 -69 6 -97 -1z m77 -19 c13 -5 16 -23 16 -96 l0
-89 -42 3 c-24 2 -42 6 -40 11 1 4 2 45 2 92 0 83 1 85 24 85 13 0 31 -3 40
-6z"/>
<path d="M16764 4438 c-4 -7 -10 -53 -12 -102 -5 -101 3 -116 64 -116 59 0 59
1 58 118 l0 107 -51 3 c-34 2 -54 -1 -59 -10z"/>
<path d="M16947 4436 c-3 -8 -7 -59 -8 -113 l-2 -98 28 -3 c40 -5 116 8 110
18 -3 4 -5 51 -6 103 l-1 95 -30 6 c-50 10 -86 7 -91 -8z m93 -106 l0 -100
-40 0 -40 0 0 94 c0 101 0 102 58 105 21 1 22 -2 22 -99z"/>
<path d="M17197 4443 c-21 -2 -40 -10 -42 -16 -2 -7 -6 -54 -8 -104 l-4 -93
31 0 c76 0 77 1 75 116 -1 57 -4 103 -8 102 -3 -1 -23 -3 -44 -5z"/>
<path d="M16973 4020 c-13 -5 -23 -13 -24 -17 -1 -4 -2 -49 -4 -100 -3 -86 -2
-91 18 -97 37 -10 84 -7 94 7 6 7 8 52 5 105 -4 88 -6 94 -29 103 -29 11 -31
11 -60 -1z"/>
<path d="M16993 3643 l-43 -4 -2 -70 c-1 -38 -2 -81 -2 -96 -1 -23 5 -30 36
-40 28 -9 42 -9 62 0 26 12 27 14 25 102 -1 81 -10 118 -28 113 -3 -1 -25 -3
-48 -5z"/>
<path d="M16754 3625 c-3 -6 -4 -49 -2 -96 3 -81 4 -84 31 -97 19 -9 36 -11
55 -4 25 8 27 13 34 87 4 44 10 85 13 92 6 17 -7 22 -73 27 -36 2 -55 -1 -58
-9z"/>
<path d="M17146 3623 c-2 -10 -5 -49 -5 -87 -1 -37 -3 -72 -6 -76 -12 -19 63
-27 96 -10 17 9 19 22 19 100 l0 90 -49 0 c-39 0 -51 -4 -55 -17z"/>
<path d="M4776 7989 c-3 -8 -6 -23 -9 -34 -2 -12 -9 -18 -18 -16 -31 8 -381 9
-724 3 l-360 -7 220 -8 c121 -4 265 -12 320 -16 113 -10 367 -7 465 4 l65 8
-19 -22 c-11 -11 -25 -21 -33 -21 -7 0 -13 -4 -13 -9 0 -4 -28 -28 -62 -51
-71 -51 -145 -112 -205 -171 -41 -40 -44 -41 -90 -36 -26 4 -130 7 -230 8
-104 0 -183 5 -183 10 0 5 47 9 105 9 66 0 105 4 105 10 0 7 -45 10 -126 9
-97 -1 -127 -4 -131 -15 -6 -15 -43 -20 -43 -5 0 5 -9 12 -19 16 -24 7 -73 -4
-65 -16 3 -5 0 -9 -5 -9 -6 0 -11 4 -11 9 0 5 -11 9 -25 9 -14 0 -25 -4 -25
-9 0 -5 -5 -9 -11 -9 -5 0 -7 5 -4 10 3 6 1 10 -4 10 -6 0 -11 -5 -11 -11 0
-6 -6 -9 -14 -6 -8 3 -16 0 -19 -6 -4 -11 -97 -23 -97 -12 0 2 73 53 163 113
179 122 249 178 208 166 -33 -9 -116 -60 -296 -184 -82 -56 -161 -107 -175
-113 l-25 -11 27 -3 c34 -5 36 -17 36 -368 0 -154 3 -428 8 -609 l7 -329 -114
5 -113 6 -31 36 c-39 47 -64 46 -107 -3 -19 -22 -46 -43 -59 -46 l-24 -6 -3
591 c-2 325 0 595 4 601 4 8 9 7 15 -2 6 -10 9 -5 9 16 0 17 -7 40 -15 52 -9
14 -11 23 -4 25 13 4 16 107 6 213 -5 43 -5 96 -2 117 6 32 11 38 31 38 13 0
24 4 24 8 0 5 -55 7 -122 5 -68 -3 -278 -8 -468 -12 -336 -7 -346 -8 -385 -30
-22 -13 -52 -33 -66 -45 -22 -19 -80 -55 -277 -173 -42 -25 -52 -28 -52 -12 0
6 -7 17 -15 25 -13 14 -15 13 -15 -10 0 -14 -9 -31 -22 -40 l-22 -16 21 0 c19
0 21 -3 12 -33 -5 -18 -6 -44 -3 -57 3 -14 7 -92 9 -175 3 -82 9 -285 15 -450
6 -165 8 -313 6 -330 -3 -16 -7 -120 -11 -230 -4 -110 -10 -216 -14 -235 -5
-20 -4 -45 0 -57 4 -12 7 -93 7 -180 -1 -144 7 -362 17 -488 12 -151 6 -740
-10 -1065 -3 -52 -1 -129 4 -170 6 -41 15 -122 21 -180 28 -257 102 -463 242
-672 21 -32 36 -58 32 -58 -3 0 -45 37 -92 83 -133 128 -58 40 116 -137 89
-90 189 -181 232 -210 41 -28 78 -54 82 -57 4 -3 11 -40 14 -82 6 -74 5 -77
-18 -86 -15 -7 49 -10 197 -11 125 0 237 -5 260 -11 48 -13 737 -20 757 -8 7
5 -24 9 -74 9 -64 0 -88 3 -88 13 0 8 -4 7 -11 -3 -8 -11 -12 -12 -16 -2 -3 7
-23 12 -49 12 -24 0 -44 4 -44 9 0 5 68 9 156 9 85 0 158 2 161 5 3 3 16 2 29
-3 18 -7 22 -6 18 4 -6 17 27 23 156 32 103 6 170 20 170 34 0 5 8 10 18 12
10 3 4 6 -14 9 -22 4 -31 2 -27 -7 6 -15 -54 -24 -85 -13 -16 6 -33 4 -53 -7
-17 -8 -39 -14 -49 -12 -11 2 39 30 116 66 75 35 138 62 140 59 3 -3 7 -43 9
-90 l3 -84 -159 1 c-87 1 -159 -2 -159 -6 0 -3 -8 -9 -17 -11 -21 -5 39 -9
182 -12 64 -1 115 4 143 13 32 11 47 11 55 3 17 -17 41 -13 60 9 9 11 24 20
32 20 8 0 15 7 15 15 0 8 5 15 10 15 6 0 10 9 10 20 0 13 7 20 19 20 11 0 23
5 26 10 4 6 -7 10 -26 10 -19 0 -29 4 -23 9 5 4 28 6 51 3 l43 -4 -23 -19
c-22 -18 -20 -18 111 -19 138 0 173 12 75 26 -32 4 -48 9 -35 12 12 2 22 9 22
15 0 8 3 7 9 -2 7 -12 13 -12 40 0 34 15 42 30 12 22 -10 -3 -22 0 -25 6 -7
11 4 14 41 12 11 -1 24 2 27 7 6 9 -6 11 -113 12 -41 0 -70 -5 -80 -14 -9 -7
-23 -13 -31 -13 -8 0 -19 -2 -25 -3 -5 -1 -19 -2 -30 -1 -18 1 -18 3 -3 12 9
5 31 7 48 4 17 -3 30 -1 30 5 0 12 -93 12 -130 0 l-25 -8 28 -1 c40 -1 33 -21
-9 -21 -19 0 -33 4 -30 9 3 5 -6 21 -21 36 l-27 27 39 -8 c48 -10 302 -9 475
3 123 8 246 3 305 -12 l30 -7 -23 17 c-20 14 -49 17 -173 19 -82 0 -149 4
-149 8 0 8 -21 5 -39 -6 -11 -7 -13 -5 -8 8 4 10 7 19 7 21 0 2 8 2 18 0 30
-6 284 -14 279 -8 -3 2 -82 9 -176 14 -141 7 -178 7 -206 -5 -37 -16 -120 -24
-131 -13 -7 7 41 11 78 8 9 -1 19 2 22 8 8 12 -94 25 -134 18 -16 -4 -32 -3
-34 2 -8 12 130 24 151 13 22 -11 157 -4 161 9 2 5 13 9 25 8 12 0 16 -3 10
-6 -34 -13 -5 -22 70 -22 67 1 77 3 57 12 -24 10 -24 10 19 20 40 10 45 9 62
-14 15 -21 26 -24 83 -25 36 0 66 3 66 8 0 4 -29 8 -64 8 -58 0 -90 11 -69 23
5 2 3 2 -4 1 -6 -2 -13 3 -16 10 -3 8 -34 13 -93 14 -49 1 -123 4 -164 8 -41
3 -84 6 -95 6 -11 -1 -49 -1 -85 0 -123 1 -195 -3 -228 -12 l-32 -8 19 26 c10
15 57 64 103 108 115 113 219 222 252 266 16 21 32 35 37 32 5 -3 6 2 3 10 -4
10 6 27 25 45 33 31 43 53 14 30 -17 -13 -17 -13 -3 6 8 11 17 22 20 25 25 23
97 190 129 300 8 25 19 65 27 90 29 101 71 299 79 375 3 22 7 50 10 62 3 12 0
25 -5 28 -6 4 -8 11 -4 16 3 5 0 16 -6 24 -7 8 -8 15 -3 15 5 0 10 16 11 35 1
19 -3 35 -8 35 -6 0 -10 5 -10 11 0 5 5 7 12 3 6 -4 8 -3 4 4 -3 6 -8 88 -11
184 -7 291 -16 491 -21 499 -2 4 0 10 6 14 8 5 8 39 -1 92 -1 4 -1 13 1 18 2
11 1 328 -4 1118 -2 448 -1 537 11 533 9 -4 13 3 13 22 0 20 -3 23 -10 12 -8
-13 -10 -12 -15 1 -7 19 -3 59 9 77 4 7 5 81 2 165 -6 134 -9 334 -7 437 1 28
7 38 32 53 17 9 42 17 55 17 13 0 24 4 24 8 0 12 -62 7 -87 -7 -13 -6 -23 -10
-24 -9 0 2 -2 25 -5 53 -5 53 -11 66 -18 44z m-1786 -78 c0 -9 -92 -82 -128
-100 -12 -7 -44 -31 -70 -55 -98 -86 -120 -99 -170 -99 -26 0 -37 -2 -24 -4
12 -3 22 -10 22 -17 0 -22 -435 -37 -457 -15 -7 7 -78 11 -197 12 -102 1 -186
4 -186 8 0 7 144 101 215 140 33 18 76 47 95 65 l35 33 305 5 c168 2 319 7
335 9 17 3 61 8 100 12 38 3 72 8 74 11 8 8 51 4 51 -5z m-21 -351 c-13 -364
-13 -373 -22 -387 -4 -6 -2 -13 5 -15 10 -4 13 -101 15 -419 1 -228 -1 -429
-4 -446 -4 -27 -10 -33 -30 -33 -24 0 -24 1 -20 79 3 50 1 83 -6 90 -8 8 -8
11 1 11 15 0 16 26 2 35 -10 6 -40 -17 -40 -31 0 -4 8 -13 18 -21 12 -9 13
-13 3 -11 -11 2 -14 -7 -12 -41 2 -24 7 -54 11 -67 12 -31 4 -34 -38 -13 -20
11 -44 19 -54 19 -25 0 -68 -47 -68 -75 0 -16 -6 -25 -15 -25 -14 0 -15 62
-11 570 2 313 7 573 10 578 3 5 8 62 11 128 4 80 10 122 19 129 90 70 206 182
206 201 0 10 21 36 26 31 1 -1 -2 -130 -7 -287z m1793 243 c2 -16 -1 -48 -5
-73 -4 -25 -7 -81 -6 -125 1 -86 1 -212 -1 -505 -1 -102 1 -532 4 -957 4 -669
2 -774 -10 -784 -11 -9 -12 -14 -3 -20 8 -5 13 -52 15 -146 2 -76 5 -191 8
-255 3 -68 1 -118 -4 -118 -6 0 -5 -12 1 -27 15 -40 23 -112 10 -93 -5 8 -14
11 -18 6 -4 -4 1 -15 12 -23 15 -12 16 -14 3 -10 -12 4 -16 0 -15 -16 0 -12 6
-25 12 -29 7 -6 6 -11 -3 -17 -8 -4 -12 -14 -11 -22 3 -21 -24 -139 -31 -134
-3 2 -5 45 -4 94 1 50 -2 89 -7 86 -4 -3 -9 -119 -10 -258 -2 -139 -3 -277 -3
-309 -1 -31 -5 -60 -10 -65 -5 -5 -7 -1 -3 10 4 11 3 16 -4 12 -6 -4 -8 -13
-5 -21 10 -25 -21 -132 -58 -207 -20 -40 -33 -63 -30 -52 15 46 16 75 3 75 -9
0 -10 3 -4 8 23 16 54 64 49 77 -3 7 -1 16 5 20 6 3 11 11 11 16 0 6 -4 8 -8
5 -4 -2 -9 8 -10 24 -2 24 1 28 15 24 12 -4 14 -3 6 3 -14 10 -10 49 4 46 5
-1 10 11 10 28 0 29 -12 39 -19 17 -5 -13 -58 -20 -58 -8 0 3 9 16 20 28 11
12 20 28 20 37 0 14 18 53 30 65 6 6 10 70 4 70 -2 0 -8 -15 -13 -33 l-10 -32
2 35 c1 21 9 42 22 53 19 18 19 19 0 15 -12 -2 -21 3 -23 15 -2 10 3 17 12 17
9 0 16 -5 16 -12 0 -6 3 -8 7 -4 5 4 0 13 -9 20 -11 8 -18 30 -20 68 -2 31 -6
54 -10 52 -3 -2 -8 1 -10 8 -2 6 -2 -19 0 -55 3 -49 0 -76 -13 -103 -11 -23
-15 -47 -11 -68 5 -26 3 -32 -11 -33 -15 -1 -18 8 -20 49 0 28 -7 61 -14 74
-13 25 -4 48 10 25 6 -9 10 -6 13 12 3 17 1 24 -7 21 -8 -4 -12 9 -10 41 1 36
-1 43 -11 33 -7 -7 -15 -32 -17 -56 -5 -50 -10 -58 -26 -38 -9 11 -8 28 5 75
10 34 21 61 26 61 4 0 8 -5 8 -10 0 -6 6 -5 14 2 11 11 10 15 -6 27 -15 10
-18 20 -13 40 8 31 41 65 55 56 6 -3 10 2 10 11 0 10 8 26 17 36 27 30 22 84
-10 116 -23 23 -29 25 -37 12 -7 -11 -8 -5 -4 17 4 21 2 39 -7 50 -8 9 -9 14
-3 10 13 -8 25 37 14 50 -13 14 -20 72 -10 78 6 3 10 -1 10 -9 0 -9 5 -16 11
-16 7 0 9 10 5 25 -5 19 -2 25 10 25 13 0 15 7 9 38 -3 20 -15 52 -25 70 -11
17 -17 39 -14 47 5 11 2 13 -10 9 -11 -4 -16 -1 -16 11 0 9 4 14 10 10 12 -7
6 45 -8 71 -25 45 -42 88 -42 106 0 10 -5 18 -11 18 -6 0 -9 12 -7 28 2 17 -2
26 -10 24 -6 -1 -12 5 -12 13 0 8 4 15 9 15 11 0 2 142 -9 150 -4 3 -11 82
-14 175 -4 94 -9 216 -12 271 -6 140 -16 598 -15 714 1 52 1 238 1 412 -1 303
0 317 19 323 17 5 38 21 97 74 11 10 26 20 34 23 7 2 14 14 15 26 2 21 1 21
-24 2 -14 -10 -42 -34 -62 -53 -21 -19 -48 -38 -60 -41 l-24 -7 23 18 c13 10
54 44 93 76 38 33 69 54 69 48 0 -6 5 -11 11 -11 6 0 9 7 5 15 -3 8 -2 15 3
15 4 0 32 23 61 50 29 28 57 50 61 50 4 0 9 -12 11 -27z m-2610 -195 c-4 -4
-45 -12 -92 -18 -47 -6 -89 -16 -95 -22 -7 -8 -5 -9 7 -5 32 11 643 9 641 -2
-3 -10 -3 -617 -2 -851 1 -58 2 -170 2 -250 0 -80 1 -181 1 -225 1 -80 1 -80
-26 -83 -15 -2 -40 4 -57 12 -42 22 -65 20 -100 -10 -24 -19 -31 -34 -31 -60
0 -19 5 -34 11 -34 5 0 -32 -37 -84 -83 -92 -80 -96 -82 -139 -79 -39 3 -48 0
-67 -23 -22 -29 -28 -70 -11 -80 22 -14 7 -54 -51 -132 -47 -64 -67 -83 -85
-83 -54 0 -79 -61 -49 -120 13 -26 13 -33 0 -62 -8 -18 -28 -70 -45 -115 -23
-61 -36 -83 -49 -83 -24 0 -47 -28 -54 -67 -5 -24 0 -40 19 -68 23 -35 24 -43
19 -124 -8 -114 -12 -131 -32 -131 -9 0 -24 -6 -32 -14 -15 -13 -16 13 -17
287 -1 166 -6 399 -13 517 -7 118 -11 352 -9 520 4 431 4 805 -2 1170 l-5 314
23 6 c34 7 432 6 424 -2z m1731 -15 c69 -6 88 -19 40 -25 -16 -2 28 -2 97 0
131 5 328 -5 348 -17 7 -4 13 -184 17 -606 11 -1075 15 -1256 31 -1420 l4 -50
-45 90 c-25 49 -41 91 -35 93 5 2 10 18 10 36 0 39 -27 67 -88 91 -53 22 -113
89 -130 147 -7 25 -26 59 -42 76 -25 27 -36 32 -76 32 -63 0 -117 37 -150 102
-30 59 -53 72 -111 63 -71 -10 -155 25 -194 81 -16 24 -36 44 -44 44 -13 0
-15 32 -16 203 0 111 -2 227 -5 257 -2 30 -6 152 -9 270 -8 302 -21 488 -35
505 -18 21 -3 24 130 28 63 1 142 4 175 5 33 1 90 -1 128 -5z m-520 -1373 c42
1 77 -3 78 -7 0 -4 2 -21 3 -38 2 -16 7 -50 11 -74 8 -43 8 -44 -16 -37 -13 4
-49 9 -79 12 -93 9 -121 15 -115 25 9 14 -13 11 -39 -6 -34 -23 -53 -10 -61
40 -9 63 7 88 48 80 18 -4 39 -13 48 -21 8 -8 19 -14 23 -14 4 0 15 -7 24 -16
14 -15 14 -18 -9 -35 -29 -22 -13 -26 19 -4 16 12 27 13 41 5 26 -13 34 -13
57 5 18 14 17 14 -15 8 -25 -4 -36 -2 -43 10 -5 10 -14 17 -21 17 -7 0 -28 14
-47 31 -32 28 -33 30 -10 24 14 -3 60 -6 103 -5z m-427 -18 c16 -10 26 -60 14
-67 -5 -3 -10 -15 -10 -26 0 -12 4 -17 11 -13 7 4 10 0 7 -11 -4 -24 -208 -90
-220 -72 -14 22 -8 46 17 73 14 15 25 31 25 35 0 5 9 9 19 9 11 0 22 4 26 9 6
10 77 7 95 -4 5 -3 10 -1 10 5 0 6 -11 15 -25 20 -40 15 -32 39 15 49 3 0 10
-3 16 -7z m724 -139 c3 -28 8 -55 12 -58 3 -4 32 -2 64 4 41 8 61 8 71 0 9 -9
13 -8 13 0 0 22 30 23 76 1 25 -13 48 -29 51 -36 3 -8 14 -14 25 -14 10 0 16
-4 13 -10 -3 -5 -1 -10 6 -10 8 0 8 -4 1 -12 -7 -9 -7 -29 -2 -58 5 -25 10
-49 10 -55 1 -5 6 1 11 14 5 14 7 37 4 52 -7 31 7 45 27 27 7 -7 34 -30 61
-51 58 -47 103 -105 91 -117 -5 -5 -48 1 -104 16 -52 13 -102 24 -110 24 -25
1 -145 105 -142 123 3 20 -14 23 -21 5 -2 -9 -20 -3 -56 20 -29 17 -54 32 -56
32 -2 0 -42 18 -89 40 -47 22 -89 40 -95 40 -15 0 -22 16 -15 35 5 11 15 15
31 12 13 -2 26 0 29 5 9 14 46 27 69 25 16 -2 21 -11 25 -54z m-286 -33 c33
-5 64 -14 69 -19 18 -18 11 -352 -9 -404 -4 -11 -1 -17 8 -17 18 0 25 -309 7
-343 -6 -12 -50 -79 -96 -150 -47 -70 -83 -131 -81 -136 2 -5 41 45 87 110 47
65 88 119 93 119 15 0 -4 -144 -21 -164 -9 -10 -44 -38 -78 -63 l-63 -45 -26
21 c-15 12 -38 21 -52 21 l-25 0 7 323 c4 177 10 352 12 390 4 44 2 67 -5 67
-6 0 -11 -19 -12 -42 -1 -24 -4 -63 -7 -88 -3 -25 -6 -181 -6 -347 l-1 -301
-25 -5 c-14 -2 -32 -7 -40 -11 -19 -8 -92 90 -102 137 -5 26 -4 29 5 15 7 -9
18 -25 25 -35 12 -16 12 -16 7 7 -27 107 -34 144 -39 209 -3 43 -2 71 3 65 9
-10 85 -268 97 -328 3 -20 11 -39 16 -42 16 -10 1 66 -39 201 -65 218 -65 218
-70 547 l-5 306 23 5 c47 9 285 7 343 -3z m-400 -244 c-4 -127 -8 -333 -8
-458 -1 -126 -3 -228 -6 -228 -3 0 -24 28 -48 63 -23 34 -64 91 -89 126 -29
40 -42 66 -35 69 7 2 12 11 12 20 0 13 -2 12 -14 -3 -14 -19 -15 -19 -35 5
-39 46 -95 170 -69 154 8 -5 9 -1 3 12 -11 26 -16 274 -6 274 11 0 24 -142 15
-163 -3 -10 -1 -17 6 -17 6 0 8 5 5 10 -3 6 -3 10 2 10 11 0 4 183 -8 195 -7
7 -8 4 -4 -7 4 -11 2 -18 -4 -18 -6 0 -11 11 -11 24 0 13 -3 33 -6 43 -5 15
-4 15 5 3 9 -13 11 -12 11 5 0 14 17 28 59 48 64 31 150 59 160 53 3 -2 17 2
31 9 14 7 29 11 34 8 5 -4 5 -101 0 -237z m-539 192 c-4 -13 -8 -55 -9 -93
l-1 -70 -66 0 c-77 0 -104 17 -85 53 15 28 137 132 155 132 9 0 11 -6 6 -22z
m139 16 c9 -3 16 -15 16 -26 0 -11 4 -16 11 -12 8 4 8 1 1 -12 -11 -21 -142
-114 -161 -114 -7 0 -9 9 -7 23 3 12 8 43 11 70 5 37 12 50 33 62 29 15 70 19
96 9z m1001 -21 c144 -52 352 -189 435 -286 81 -96 170 -227 207 -307 36 -77
78 -192 86 -237 6 -28 4 -33 -13 -33 -20 0 -79 -16 -225 -60 -107 -32 -534
-140 -554 -140 -15 0 -17 8 -16 58 2 31 3 60 4 64 2 13 196 149 615 430 6 4 7
10 4 13 -7 7 -451 -283 -558 -364 -30 -22 -58 -41 -62 -41 -15 0 -9 169 7 200
8 16 54 89 102 162 49 73 90 138 92 143 2 6 15 24 28 41 12 17 23 34 23 38 0
4 12 23 26 42 15 19 24 37 21 40 -6 7 -85 -105 -199 -280 -112 -171 -108 -169
-108 -56 0 52 5 156 11 230 13 152 13 161 4 284 -7 84 -6 89 11 81 11 -4 37
-14 59 -22z m-946 -265 c1 -82 -1 -148 -6 -148 -4 1 -37 41 -73 90 -36 48 -67
87 -68 85 -2 -2 20 -38 50 -80 100 -145 96 -134 103 -294 3 -79 8 -147 11
-152 17 -28 -46 8 -271 153 -84 53 -115 71 -115 63 0 -3 75 -55 168 -115 230
-149 212 -134 205 -173 -3 -24 0 -39 12 -50 9 -9 12 -17 6 -17 -6 0 -14 -18
-17 -40 -4 -22 -10 -42 -14 -45 -4 -2 -78 14 -164 35 -87 22 -170 40 -184 40
-26 -1 166 -53 292 -79 43 -10 60 -18 63 -32 3 -10 9 -19 14 -19 5 0 9 -9 9
-21 0 -11 -5 -17 -10 -14 -6 4 -8 11 -5 16 4 5 2 9 -3 9 -5 0 -7 -22 -4 -50 4
-45 2 -50 -19 -59 -13 -6 -127 -19 -254 -31 -126 -11 -244 -22 -261 -24 -56
-8 -58 -2 -46 137 7 69 16 137 22 152 l10 28 83 -8 c100 -8 98 2 -2 14 -40 5
-75 12 -78 14 -4 4 5 46 24 107 2 8 4 16 4 17 -2 23 98 233 111 233 5 0 7 4 4
9 -3 5 5 24 17 43 13 18 33 54 46 78 26 53 133 170 155 170 9 0 16 6 16 14 0
7 35 39 77 70 67 49 78 54 83 39 4 -10 8 -84 9 -165z m-234 92 c3 -5 -21 -37
-53 -70 -33 -33 -77 -87 -99 -119 l-40 -59 -11 26 -12 27 6 -29 c7 -40 -14
-96 -39 -105 -18 -7 -27 -1 -50 30 -16 22 -33 39 -38 39 -14 0 -11 28 8 58 9
15 37 53 62 84 34 43 48 54 58 46 24 -20 86 1 126 43 36 38 69 49 82 29z
m1707 -71 c60 -15 83 -17 88 -9 6 9 10 8 19 -2 39 -45 51 -62 56 -79 4 -11 10
-19 14 -19 19 0 97 -140 104 -187 l5 -32 -51 20 c-29 12 -68 27 -87 34 -19 7
-43 23 -53 36 -18 22 -18 24 -3 27 11 2 16 12 15 25 -1 12 3 40 9 62 14 48 15
55 3 55 -5 0 -15 -29 -22 -65 -7 -36 -16 -65 -20 -65 -3 0 -48 52 -99 117 -51
64 -85 113 -75 110 9 -4 53 -16 97 -28z m-1955 -291 c-73 -174 -97 -236 -97
-251 0 -29 -29 -77 -46 -77 -25 0 -71 38 -88 71 -14 29 -14 35 5 83 39 98 49
116 59 116 13 0 13 -23 -1 -37 -8 -8 -7 -17 5 -34 9 -13 16 -31 16 -41 0 -18
18 -34 28 -24 3 4 -3 21 -13 39 -21 36 -29 147 -10 147 6 0 12 -12 13 -27 1
-14 3 -28 5 -29 1 -2 25 15 52 36 50 39 82 51 72 28z m2116 -2 c77 -35 113
-49 122 -47 6 1 4 -3 -2 -10 -7 -7 -13 -21 -13 -31 0 -10 -4 -18 -10 -18 -5 0
-10 -7 -10 -16 0 -22 19 -7 32 24 9 25 11 26 18 7 4 -11 4 -44 0 -72 -3 -29
-3 -58 2 -65 13 -21 10 -88 -4 -88 -39 1 -56 13 -62 46 -4 18 -21 63 -37 99
-17 35 -32 70 -33 77 -1 7 -12 32 -24 55 -31 60 -30 62 21 39z m-1519 -78 c60
-88 105 -151 173 -239 29 -38 43 -68 48 -102 l7 -48 -136 93 -136 92 0 124 c0
68 -5 132 -10 143 -24 44 2 13 54 -63z m-2 -256 c18 -15 58 -43 88 -62 84 -52
130 -92 130 -111 0 -15 -5 -17 -27 -10 -16 5 -73 19 -128 31 -55 13 -101 24
-103 25 -9 7 -12 155 -3 155 6 0 25 -13 43 -28z m1648 0 c19 -16 22 -28 23
-97 1 -44 0 -93 -1 -110 -1 -16 0 -106 2 -200 4 -160 3 -171 -17 -192 -11 -12
-23 -20 -27 -18 -4 3 -13 -2 -20 -10 -10 -12 -9 -15 8 -15 11 0 25 7 32 15 7
8 19 15 27 15 11 0 13 -12 9 -57 -6 -70 -4 -63 -16 -63 -5 0 -10 10 -11 23 0
21 -1 21 -10 -3 -15 -37 -38 -58 -69 -65 -28 -6 -63 -35 -42 -35 18 0 99 38
106 49 10 16 26 13 26 -5 0 -9 -6 -30 -14 -47 -8 -18 -22 -53 -31 -79 -10 -26
-24 -53 -31 -59 -8 -6 -14 -17 -14 -24 0 -16 -60 -105 -70 -105 -5 0 -12 9
-15 21 -5 15 -10 18 -18 10 -6 -6 -31 -11 -56 -11 -26 0 -53 -5 -61 -10 -10
-7 9 -10 63 -10 95 0 99 -12 30 -88 -76 -81 -272 -260 -339 -308 -74 -53 -173
-106 -185 -99 -4 3 -11 22 -15 43 -4 20 -10 42 -14 47 -5 6 -10 20 -12 33 -2
19 7 29 59 58 36 20 64 30 68 24 3 -6 21 -10 40 -10 19 0 46 -5 61 -10 42 -17
55 6 13 23 -24 10 -42 11 -62 4 -15 -5 -31 -6 -35 -2 -7 7 20 33 113 107 65
52 165 147 165 157 0 4 10 16 21 27 42 37 131 155 150 199 11 24 24 47 30 51
6 3 8 12 5 20 -3 7 1 26 9 41 8 15 15 33 15 40 0 6 12 25 26 42 14 17 23 35
20 40 -3 5 1 27 9 50 14 40 26 110 28 158 1 12 4 20 8 17 11 -7 0 257 -16 379
-8 62 -2 69 35 39z m-76 -19 c10 -33 26 -217 25 -293 -2 -170 -73 -421 -162
-567 -60 -98 -197 -253 -303 -342 -92 -78 -234 -171 -260 -171 -6 0 -36 76
-67 169 -52 153 -57 177 -57 255 0 47 4 86 9 86 5 0 28 -37 51 -82 61 -122
173 -318 178 -313 3 2 -46 100 -108 217 -96 181 -114 223 -121 278 -8 63 -12
180 -6 180 2 0 43 -39 93 -87 98 -97 371 -344 393 -358 26 -16 -1 18 -53 65
-94 84 -341 318 -383 362 -37 38 -42 50 -47 105 -6 65 1 80 31 64 40 -23 211
-95 384 -162 238 -93 260 -100 270 -97 5 2 -93 44 -218 95 -297 120 -444 181
-457 193 -6 5 -10 29 -8 55 l4 47 72 -6 c39 -3 139 -8 221 -11 83 -2 233 -7
335 -11 102 -3 183 -4 180 -1 -9 10 -90 16 -285 23 -104 3 -264 9 -355 13
l-165 6 -6 38 c-3 22 -2 40 5 45 6 5 54 19 106 31 159 38 459 119 570 155 124
41 127 41 134 19z m-2290 -22 c-1 -16 -5 -51 -8 -78 -4 -26 -7 -69 -8 -95 -1
-27 -4 -48 -7 -48 -6 0 -80 102 -91 125 -3 5 -14 23 -24 38 -13 20 -16 31 -8
39 7 7 14 4 21 -11 16 -29 22 -27 67 19 47 47 61 50 58 11z m2465 -33 c10 -57
10 -55 11 -168 0 -186 -27 -389 -51 -374 -5 3 -7 14 -4 23 3 10 6 70 7 135 0
69 5 116 11 116 5 0 5 6 -2 14 -19 22 -16 152 4 182 9 14 14 28 11 32 -3 3 -6
0 -6 -7 0 -7 -4 -10 -9 -6 -5 3 -9 28 -8 55 1 67 23 66 36 -2z m-1717 -94 c5
-3 19 -7 31 -9 12 -2 53 -11 90 -21 59 -15 68 -20 65 -38 -3 -19 -11 -21 -80
-24 l-78 -3 0 36 c0 20 -4 34 -9 31 -4 -3 -7 -21 -5 -39 4 -33 3 -35 -37 -41
-23 -4 -43 -5 -44 -4 -1 2 -5 31 -8 66 l-5 63 35 -6 c19 -3 40 -8 45 -11z
m-824 -56 c49 -64 57 -107 25 -123 -17 -9 -20 -14 -11 -23 9 -9 6 -22 -10 -55
-12 -25 -22 -49 -22 -56 0 -17 -21 -13 -40 6 -14 15 -15 26 -7 63 5 25 15 48
21 52 7 5 5 8 -6 8 -23 0 -48 39 -48 75 0 36 36 119 48 111 5 -3 27 -29 50
-58z m1278 19 c45 -23 58 -72 32 -120 -27 -51 -60 -66 -116 -55 -68 15 -92 81
-52 146 31 51 75 61 136 29z m-272 -86 c14 -21 -10 -42 -77 -67 -40 -15 -76
-31 -82 -35 -5 -3 -30 -15 -55 -26 l-45 -20 1 64 c1 35 4 67 8 70 16 16 241
29 250 14z m484 -27 c19 -4 23 -10 21 -37 -2 -18 -4 -35 -6 -39 -2 -4 -28 6
-57 22 -56 32 -66 35 -66 22 0 -5 23 -19 51 -33 62 -28 81 -54 76 -103 -5 -46
-12 -53 -27 -24 -7 12 -36 48 -66 78 -50 51 -53 58 -48 92 l6 37 47 -5 c25 -3
56 -7 69 -10z m-810 -75 l3 -76 -88 -36 c-48 -19 -160 -65 -248 -101 -88 -36
-152 -65 -143 -66 21 0 119 36 322 119 82 34 151 59 153 57 7 -6 5 -135 -2
-154 -3 -10 -38 -39 -77 -66 -109 -75 -288 -209 -284 -214 3 -2 73 45 158 105
190 136 201 143 210 143 4 0 5 -60 1 -132 -6 -148 -3 -141 -95 -257 -32 -40
-58 -79 -58 -85 1 -14 49 42 102 118 45 65 58 62 58 -11 0 -107 52 -277 94
-312 9 -8 16 -18 16 -23 0 -10 -142 86 -214 146 -93 76 -179 161 -217 213 -22
29 -56 70 -77 90 -62 61 -130 201 -119 244 3 12 0 19 -9 19 -19 0 -30 32 -48
137 -18 106 -22 160 -14 168 3 4 98 13 209 21 112 8 229 19 259 23 105 17 105
17 108 -70z m324 23 c8 -30 -5 -49 -67 -96 -33 -24 -82 -61 -108 -82 -26 -20
-49 -35 -51 -33 -2 2 -8 29 -13 59 l-11 55 5 -67 c4 -49 2 -68 -6 -68 -8 0
-11 21 -9 68 l3 67 75 37 c41 21 92 43 113 49 20 7 37 16 37 21 0 16 28 8 32
-10z m427 -103 l81 -91 0 -90 c0 -53 -4 -87 -9 -83 -6 3 -6 -7 0 -27 5 -18 9
-69 9 -113 l-1 -80 -48 140 c-27 77 -61 174 -76 215 -15 41 -29 84 -32 95 l-4
20 16 -20 c9 -11 39 -64 66 -119 28 -54 52 -96 55 -93 12 11 -110 247 -155
300 -13 16 -13 19 -1 27 8 6 16 10 17 10 1 0 38 -41 82 -91z m-1570 -29 c6
-19 19 -70 28 -114 l17 -78 -22 -17 c-27 -20 -39 -79 -23 -109 8 -15 23 -22
53 -24 46 -3 42 1 97 -118 l39 -85 -23 -12 c-25 -14 -39 -75 -24 -105 11 -20
59 -32 97 -23 25 5 33 -1 82 -61 30 -36 63 -70 73 -75 17 -10 17 -11 -3 -27
-11 -9 -23 -31 -26 -49 -13 -66 82 -111 134 -63 12 11 25 20 31 20 9 0 134
-73 159 -93 9 -7 9 -13 1 -23 -6 -7 -8 -18 -4 -25 4 -6 1 -15 -6 -20 -12 -7
-11 -13 3 -36 32 -54 106 -56 136 -4 15 26 18 28 51 19 20 -6 37 -11 39 -13 2
-2 -19 -74 -47 -161 -28 -88 -59 -193 -69 -234 l-19 -75 -69 -5 c-63 -5 -69
-7 -72 -28 -7 -49 -48 -33 -140 53 -29 27 -41 34 -36 20 7 -21 -11 -7 -125
100 -75 70 -188 224 -243 330 -62 121 -113 283 -139 440 -11 72 -20 136 -19
143 4 37 2 77 -8 164 -13 104 -16 340 -6 425 l7 53 33 -28 c18 -15 38 -43 43
-62z m1431 53 c0 -16 24 -98 54 -183 30 -85 68 -198 86 -250 17 -52 64 -189
104 -305 40 -115 87 -255 105 -310 36 -115 168 -479 216 -598 7 -16 3 -18 -25
-15 -36 3 -32 -6 -132 298 -14 41 -61 183 -105 315 -192 577 -233 703 -277
850 -20 66 -46 140 -57 164 -16 35 -18 46 -7 52 24 16 38 9 38 -18z m-100 8
c0 -17 -29 -133 -50 -201 -11 -36 -20 -76 -20 -89 0 -13 -20 -85 -45 -160 -25
-75 -61 -194 -80 -265 -48 -177 -68 -239 -81 -253 -6 -6 -16 -44 -23 -85 -7
-40 -25 -118 -41 -173 -36 -127 -100 -397 -100 -423 0 -17 -8 -21 -47 -24 -27
-3 -49 -4 -50 -4 -1 1 11 39 27 86 21 65 174 536 240 740 4 14 13 43 18 65 35
127 67 238 87 295 12 36 35 112 50 170 60 234 90 330 102 330 7 0 13 -4 13 -9z
m-186 -43 c-4 -26 -21 -61 -45 -94 -45 -61 -58 -71 -69 -54 -5 9 -9 9 -14 1
-4 -6 -2 -11 3 -11 23 0 8 -30 -64 -129 l-75 -104 -1 49 c-2 108 3 179 12 188
10 11 13 -17 10 -94 -1 -25 3 -52 10 -60 8 -11 9 10 5 81 -5 84 -3 99 13 113
10 9 21 16 25 16 4 0 12 5 19 10 50 43 163 130 169 130 4 0 5 -19 2 -42z
m-1064 -11 c0 -8 24 -30 53 -50 29 -20 62 -49 73 -64 30 -40 56 -94 50 -101
-3 -3 -6 0 -6 6 0 7 -4 12 -8 12 -4 0 -9 -17 -9 -37 -2 -51 -14 -113 -22 -113
-30 0 -87 79 -77 106 3 8 2 14 -3 14 -4 0 -13 12 -20 26 -9 20 -9 30 1 41 10
12 9 14 -7 11 -20 -3 -20 -4 -23 80 -1 26 -6 41 -12 37 -6 -4 -10 5 -10 19 0
14 5 26 10 26 6 0 10 -6 10 -13z m1300 -35 c0 -10 13 -54 29 -98 15 -45 31
-97 35 -116 3 -19 40 -128 81 -242 42 -114 73 -211 71 -215 -11 -17 -97 -33
-150 -29 -81 7 -152 57 -195 137 -28 53 -31 66 -23 94 9 31 59 197 86 287 8
25 22 82 31 127 10 45 22 80 26 77 5 -3 9 -13 9 -22z m-244 -121 c-21 -23 -20
-32 2 -25 10 4 13 2 7 -3 -5 -4 -18 -33 -29 -63 -10 -30 -23 -66 -29 -80 l-10
-25 -8 25 c-8 23 -8 23 -5 -4 4 -28 -30 -112 -100 -249 -13 -26 -24 -54 -24
-63 0 -27 -23 -10 -26 19 -2 18 1 25 8 21 12 -7 4 9 -15 34 -8 11 -12 11 -18
0 -6 -8 -9 -3 -9 17 0 23 3 27 10 15 7 -11 10 -4 10 26 0 23 3 56 7 74 4 24 3
31 -5 26 -7 -4 -12 -16 -12 -27 0 -10 -4 -19 -10 -19 -5 0 -10 3 -10 6 0 9 22
48 36 61 10 10 14 7 19 -17 4 -16 3 -35 -1 -41 -4 -7 -3 -9 3 -6 6 4 9 -17 7
-58 -2 -35 1 -67 6 -70 6 -3 11 2 11 12 1 10 2 23 4 28 1 6 3 26 4 45 2 34 2
35 13 10 11 -24 12 -23 18 20 4 25 17 68 29 95 52 117 66 145 72 145 4 0 5 9
2 21 -3 12 0 25 7 29 7 4 10 14 8 21 -3 9 -11 2 -22 -19 -9 -18 -14 -36 -12
-41 3 -5 -1 -14 -9 -21 -8 -7 -15 -19 -15 -26 0 -8 -4 -14 -8 -14 -5 0 -17
-27 -27 -60 -20 -65 -29 -70 -27 -15 1 19 -3 35 -8 35 -6 0 -10 -24 -11 -52 0
-29 -4 -62 -8 -73 -6 -15 -9 -11 -14 22 -4 23 -9 47 -12 55 -3 8 4 23 15 35
11 12 28 35 37 52 10 16 50 73 88 126 l70 96 3 -41 c2 -28 -2 -48 -12 -59z
m16 -107 c-6 -22 -10 -53 -10 -70 -1 -34 -53 -252 -80 -329 -9 -27 -22 -50
-27 -50 -13 0 -11 60 3 88 6 12 12 39 15 61 3 38 3 38 -14 17 -10 -12 -15 -29
-12 -38 5 -12 2 -15 -10 -10 -12 4 -17 1 -17 -11 0 -10 -7 -43 -15 -75 -14
-54 -11 -117 5 -117 4 0 8 6 7 13 0 6 1 30 1 52 2 39 2 39 18 16 14 -19 14
-29 4 -69 -7 -26 -19 -58 -26 -72 -11 -22 -13 -23 -19 -7 -4 9 -5 24 -1 32 3
8 1 15 -3 15 -29 0 -45 135 -18 155 12 8 33 54 29 62 -1 2 9 14 21 27 13 13
31 51 40 83 20 63 48 135 57 143 5 4 31 72 46 119 10 31 15 0 6 -35z m-858
-37 c16 -39 36 -81 45 -91 12 -15 13 -20 3 -23 -8 -3 -1 -18 23 -44 19 -21 35
-44 35 -49 0 -12 -17 -13 -24 -1 -3 4 -28 11 -55 13 -67 7 -101 30 -101 69 0
34 -20 31 -21 -4 0 -17 -5 -13 -19 18 -10 21 -16 43 -14 47 5 8 36 -1 45 -15
4 -6 13 -6 24 0 12 7 14 12 6 17 -7 5 -8 13 -2 24 11 20 11 21 11 72 0 22 3
40 8 40 4 0 20 -33 36 -73z m2421 -77 c4 -6 0 -22 -9 -35 -9 -13 -13 -31 -10
-39 3 -8 2 -21 -3 -28 -4 -7 -8 -35 -8 -61 l0 -49 13 33 c9 21 10 35 4 37 -11
3 -4 42 8 42 5 0 6 -9 3 -20 -3 -12 0 -20 6 -20 7 0 9 5 6 10 -3 6 0 13 8 16
21 8 30 53 15 72 -7 9 -8 13 -2 9 7 -4 17 0 24 8 7 8 16 12 21 9 11 -6 8 -73
-2 -80 -4 -2 -6 7 -3 22 3 17 1 23 -7 19 -6 -4 -9 -22 -7 -40 3 -25 0 -32 -12
-30 -17 2 -39 -22 -40 -44 0 -22 -51 -92 -61 -85 -5 3 -9 54 -9 114 0 99 2
111 22 130 25 23 34 25 43 10z m-102 -67 c-3 -21 -9 -55 -13 -75 -4 -20 -4
-38 1 -40 8 -3 -12 -170 -30 -243 -34 -143 -112 -345 -171 -445 -58 -98 -130
-188 -203 -252 -112 -98 -157 -126 -157 -97 0 6 -7 25 -15 42 -8 18 -39 109
-70 202 -30 94 -59 183 -65 199 -5 16 -9 30 -7 31 1 1 42 23 90 49 l89 47 22
-24 c25 -27 75 -42 103 -32 22 8 58 52 68 85 7 22 6 23 -8 12 -20 -17 -37 -8
-37 19 0 20 24 26 35 9 10 -17 25 -11 25 10 0 16 -7 20 -30 20 -34 0 -38 12
-12 38 10 9 55 52 99 95 l81 79 27 -18 c22 -14 32 -15 65 -5 36 10 40 15 40
43 0 18 -9 41 -21 54 -20 22 -20 23 -2 55 52 94 83 155 83 167 0 6 4 12 9 12
6 0 7 -17 4 -37z m-2275 -71 c69 -14 75 -18 112 -65 22 -27 40 -52 40 -56 0
-3 17 -17 38 -31 20 -13 62 -45 92 -71 30 -25 73 -58 95 -72 22 -15 59 -40 83
-57 23 -16 46 -30 51 -30 5 0 29 -9 55 -21 25 -11 51 -17 56 -14 16 10 11 -37
-11 -103 -11 -34 -23 -62 -25 -62 -15 0 -84 34 -84 41 0 5 -12 14 -27 20 -82
33 -111 52 -106 68 4 14 3 14 -6 1 -9 -13 -18 -11 -66 15 -31 17 -62 37 -70
45 -14 16 -14 16 149 24 27 1 31 -4 48 -49 10 -27 18 -58 18 -67 0 -10 5 -18
11 -18 7 0 9 8 4 23 -4 12 -13 47 -19 77 -12 54 -13 55 -47 54 -19 0 -55 -4
-82 -8 -61 -11 -73 0 -82 72 -4 31 -12 71 -19 87 -12 28 -12 26 -9 -30 3 -33
8 -75 13 -92 11 -45 -4 -50 -44 -16 -52 44 -66 74 -66 142 0 50 3 61 17 61 9
0 13 3 9 7 -4 4 -40 6 -79 4 l-73 -2 -28 55 c-15 30 -34 57 -42 60 -8 3 -14
13 -14 22 0 12 5 14 18 8 9 -4 50 -14 90 -22z m885 -122 c9 -25 23 -62 32 -83
8 -21 15 -43 14 -50 -3 -24 1 -37 12 -37 6 0 9 9 6 20 -6 22 8 37 18 19 9 -13
-23 -99 -37 -99 -6 0 -7 11 -4 28 7 25 6 26 -7 7 -23 -33 -27 -53 -12 -57 12
-2 11 -9 -2 -38 -9 -19 -18 -37 -19 -38 -4 -6 -77 19 -101 34 l-22 14 25 62
c14 35 35 111 47 170 12 59 25 104 28 100 4 -4 14 -27 22 -52z m322 -139 c-3
-5 -21 -15 -40 -21 -19 -6 -35 -16 -35 -21 0 -6 9 -7 21 -4 20 7 20 6 4 -19
-18 -28 -29 -34 -23 -14 3 7 -1 19 -9 26 -11 11 -16 11 -29 -2 -8 -9 -13 -24
-11 -34 4 -14 6 -14 12 6 6 19 25 32 25 16 0 -23 -61 -93 -82 -94 -13 0 -9 28
5 33 9 4 9 7 0 14 -10 7 -7 17 12 43 27 36 27 45 -2 36 -21 -7 -56 -63 -43
-71 15 -10 -14 -95 -33 -95 -6 0 -6 5 0 13 6 6 13 29 17 50 6 30 4 37 -9 37
-10 0 -15 -7 -14 -17 1 -10 -1 -26 -4 -35 -4 -10 -9 -25 -12 -33 -2 -8 -9 -15
-15 -15 -6 0 -5 11 4 29 10 18 12 31 5 38 -6 6 -4 20 6 39 8 16 15 23 15 17 0
-7 5 -13 10 -13 18 0 23 30 10 56 -8 13 -11 27 -7 30 3 4 34 1 69 -5 52 -9 70
-9 103 3 47 18 58 19 50 7z m179 -304 c7 -25 11 -48 8 -51 -8 -9 -62 -7 -62 2
0 4 -11 8 -23 8 -13 1 -45 18 -70 37 -26 20 -56 38 -67 42 -11 3 -20 13 -20
21 0 8 5 12 10 9 13 -8 151 15 164 27 13 11 42 -36 60 -95z m-620 64 c12 -19
196 -31 302 -19 57 6 66 5 105 -21 24 -15 50 -35 58 -44 7 -9 19 -17 26 -17 7
0 18 -6 24 -14 7 -8 21 -12 31 -9 11 3 20 0 20 -6 0 -6 -19 -10 -47 -10 -27 1
-77 -4 -113 -10 -80 -13 -190 -14 -190 -2 0 6 -40 9 -93 9 -90 -2 -123 5 -112
21 2 5 -7 13 -20 19 -15 7 -25 8 -25 2 0 -6 5 -10 10 -10 6 0 10 -4 10 -10 0
-12 -37 -13 -44 -1 -5 8 19 104 31 124 6 10 21 9 27 -2z m663 -206 c6 -22 37
-112 68 -200 31 -88 58 -167 61 -175 4 -13 -55 -15 -485 -18 -270 -2 -491 0
-491 3 0 3 23 100 51 216 44 176 54 209 70 209 10 0 21 -4 24 -10 3 -5 20 -10
37 -10 l31 0 -27 -21 c-32 -26 -33 -43 -1 -74 31 -32 96 -34 125 -5 26 26 25
37 -2 62 l-23 20 22 -5 c12 -3 24 0 26 6 2 7 25 12 53 12 107 -1 210 -9 222
-18 8 -6 12 -6 12 2 0 16 25 14 40 -4 19 -23 43 -19 35 5 -7 22 9 28 21 8 5
-8 10 -6 14 8 4 10 20 22 36 25 54 13 67 7 81 -36z m137 -433 c77 -1 136 -5
132 -9 -3 -4 -12 -8 -19 -9 -7 -2 -50 -18 -97 -37 -119 -49 -182 -64 -365 -91
-88 -12 -153 -25 -145 -28 70 -25 -206 -15 -458 16 -64 8 -123 21 -137 30 -13
9 -47 25 -75 36 -95 38 -134 84 -77 92 26 4 1036 4 1241 0z m-1254 -102 c30
-15 81 -36 113 -46 31 -10 57 -20 57 -23 0 -3 -58 -6 -130 -6 l-130 0 0 35 c0
19 -3 46 -7 59 -5 21 -4 23 18 16 13 -4 49 -20 79 -35z"/>
<path d="M13260 7950 c0 -29 -1 -30 -22 -19 -16 9 -89 13 -238 13 -264 0 -841
-13 -852 -20 -5 -3 -6 -9 -3 -14 3 -4 -4 -35 -14 -68 -22 -68 -48 -171 -55
-217 -2 -16 -8 -39 -12 -49 -5 -14 -4 -17 4 -12 8 5 12 0 12 -13 0 -13 -7 -21
-16 -21 -14 0 -16 -7 -11 -40 3 -22 1 -38 -4 -34 -5 3 -6 -2 -3 -10 4 -9 1
-16 -6 -16 -9 0 -11 -11 -7 -35 3 -21 2 -33 -4 -30 -9 6 -11 1 -14 -50 -2 -36
-7 -59 -45 -240 -17 -77 -35 -162 -41 -190 -6 -27 -17 -79 -25 -115 -8 -36
-19 -87 -24 -115 -5 -27 -18 -99 -29 -160 -20 -109 -67 -321 -76 -340 -2 -5
-2 22 0 60 5 84 1 71 -31 -105 -22 -118 -43 -225 -75 -375 -4 -22 -25 -112
-45 -200 -20 -88 -37 -179 -38 -202 0 -22 -4 -39 -8 -36 -5 2 -8 1 -8 -4 0 -4
-7 -57 -14 -118 -15 -116 -32 -194 -114 -520 -28 -110 -60 -245 -72 -300 -22
-105 -38 -171 -65 -269 -13 -48 -40 -186 -50 -256 -1 -8 -5 -22 -7 -30 -13
-37 -68 -251 -78 -305 -6 -33 -21 -103 -33 -155 -14 -59 -22 -131 -22 -190 -1
-93 -17 -168 -39 -182 -8 -5 -8 -10 0 -18 15 -15 43 -2 37 18 -2 10 2 33 11
52 l14 35 7 -49 c4 -27 14 -61 21 -75 8 -14 14 -34 14 -44 0 -11 7 -34 16 -53
16 -33 16 -35 -7 -55 l-24 -21 26 15 c23 14 27 13 50 -4 14 -10 32 -16 43 -13
10 4 64 8 120 9 179 6 175 6 146 15 -15 5 32 8 120 9 101 0 140 -2 130 -9 -10
-7 52 -8 194 -4 191 6 210 6 222 -10 11 -16 13 -16 19 4 6 17 12 20 41 14 22
-4 34 -2 34 5 0 6 -11 11 -25 11 -24 0 -26 2 -19 38 4 20 11 48 17 62 6 14 10
30 9 35 -2 12 69 12 213 -1 199 -18 398 -8 392 19 -3 16 190 22 220 6 22 -12
43 -6 29 8 -12 12 -116 20 -231 18 -153 -4 -157 -4 -150 -14 3 -5 28 -8 55 -5
27 2 52 -1 55 -6 4 -6 -15 -11 -47 -12 -119 -5 -180 -3 -184 4 -3 5 17 8 45 8
27 0 52 4 56 9 9 16 -126 6 -136 -10 -7 -10 -11 -11 -16 -3 -5 8 -47 13 -113
14 -58 1 -116 3 -130 4 -14 1 -31 -3 -39 -8 -12 -9 -13 -7 -8 7 4 10 7 27 7
37 0 17 4 17 78 3 59 -12 111 -14 222 -8 80 3 155 6 168 6 12 -1 22 4 22 9 0
6 -67 10 -177 10 -98 0 -185 5 -193 10 -10 6 61 10 210 11 124 1 232 1 242 0
9 -1 19 3 22 8 4 7 -69 10 -211 10 -120 0 -228 0 -240 1 -13 0 -23 5 -23 10 0
6 21 10 46 10 27 0 43 4 39 10 -3 6 -1 10 4 10 6 0 11 -4 11 -10 0 -13 77 -13
82 1 2 7 79 10 233 10 127 0 221 4 210 8 -11 4 -67 9 -125 10 -58 1 -194 4
-302 6 -124 3 -198 1 -198 -5 0 -6 16 -10 36 -10 19 0 33 -4 30 -9 -3 -5 -15
-7 -26 -4 -11 3 -28 2 -37 -2 -10 -5 -22 -7 -26 -6 -5 1 -6 -3 -2 -9 7 -11 5
-12 -43 -16 -30 -2 -32 0 -26 19 4 12 8 38 9 57 2 50 16 133 25 145 4 6 10 28
13 50 2 22 7 51 11 64 3 13 8 58 12 100 4 42 10 81 14 86 13 16 41 166 33 178
-4 7 15 8 63 4 38 -4 194 -7 346 -7 l277 0 7 -45 c3 -26 13 -52 20 -60 18 -17
18 -25 0 -25 -11 0 -12 -8 -4 -40 6 -22 14 -37 18 -35 13 8 17 -5 23 -70 3
-33 3 -50 0 -37 -2 12 -9 22 -15 22 -5 0 -7 -7 -4 -16 3 -8 14 -59 25 -112 29
-150 34 -175 36 -199 1 -13 21 -52 44 -89 23 -36 40 -72 37 -79 -2 -7 7 -21
20 -30 14 -9 39 -31 55 -48 l28 -32 1 28 c0 36 -24 82 -64 122 -38 39 -45 49
-75 100 -12 22 -16 32 -8 21 20 -24 39 -12 31 21 -6 21 -3 24 12 21 12 -2 19
-13 21 -33 6 -73 49 -164 49 -105 0 11 -3 20 -7 20 -10 0 -27 81 -23 111 1 13
3 31 4 39 4 34 63 -221 84 -359 l7 -44 -30 6 c-17 4 -33 2 -36 -3 -4 -6 11
-10 34 -10 22 0 43 -4 46 -10 3 -6 78 -7 193 -4 276 7 843 -6 847 -20 25 -89
50 -163 57 -171 13 -14 10 16 -8 71 -8 27 -19 72 -24 99 -10 60 -33 161 -60
269 -11 44 -18 81 -16 83 2 3 -2 16 -10 31 -14 28 -44 154 -89 372 -14 69 -40
193 -59 276 -19 84 -37 170 -39 192 -3 22 -10 49 -16 61 -11 19 -70 294 -87
396 -3 22 -8 43 -11 48 -2 4 1 7 6 7 6 0 11 5 11 11 0 5 -3 8 -7 6 -5 -3 -9
17 -10 45 -1 28 -8 56 -14 64 -6 8 -13 33 -15 56 -1 23 -7 51 -12 62 -27 60
-31 75 -19 79 9 3 9 8 -1 20 -8 9 -11 21 -7 27 3 5 1 10 -5 10 -7 0 -10 7 -6
15 3 8 0 28 -6 43 -6 15 -10 33 -9 40 1 8 -2 19 -8 25 -5 7 -12 33 -15 57 -3
25 -9 56 -12 70 -3 14 -10 43 -14 65 -5 22 -11 54 -14 70 -4 17 -29 111 -56
211 -50 179 -56 208 -89 379 -16 82 -46 221 -133 610 -46 206 -47 213 -62 295
-7 41 -23 111 -34 155 -40 155 -133 566 -157 693 -2 13 -22 55 -45 94 -22 38
-40 73 -40 77 0 4 -12 18 -26 32 -26 25 -54 70 -54 89 0 5 9 10 20 10 11 0 20
5 20 11 0 7 -10 9 -25 5 -20 -5 -26 -2 -31 19 -9 35 -24 31 -24 -5z m-910 -46
c47 -3 272 -5 501 -5 422 2 423 2 428 -32 0 -4 19 -32 41 -62 22 -30 40 -57
40 -60 0 -3 12 -24 26 -46 14 -23 23 -43 21 -45 -3 -3 -247 -5 -543 -5 l-538
-1 -3 24 c-2 13 -5 44 -6 70 -5 77 -17 68 -18 -13 l0 -74 -65 129 c-35 70 -64
130 -64 132 0 3 21 2 48 0 26 -3 85 -8 132 -12z m-160 -117 c0 -5 21 -52 46
-105 l46 -95 -35 -141 c-20 -78 -40 -166 -45 -196 -23 -131 -75 -329 -88 -338
-6 -4 -11 -20 -12 -37 -1 -16 -13 -86 -28 -155 -34 -164 -92 -434 -104 -485
-6 -22 -17 -81 -24 -132 -8 -50 -40 -196 -70 -325 -31 -128 -76 -330 -101
-448 -25 -118 -61 -276 -80 -350 -18 -74 -36 -150 -40 -167 -7 -37 -23 -53
-19 -20 1 12 3 22 4 22 1 0 3 14 5 30 4 28 3 29 -11 11 -8 -11 -15 -27 -15
-35 -1 -9 -3 -27 -5 -41 -2 -14 -4 -40 -5 -58 0 -17 -5 -35 -10 -38 -13 -8
-11 -44 2 -44 8 0 9 -4 0 -13 -6 -8 -8 -17 -4 -20 3 -4 -1 -7 -10 -7 -10 0
-17 -5 -17 -11 0 -5 5 -7 11 -3 7 4 9 0 6 -12 -3 -11 -9 -39 -12 -64 -4 -25
-15 -76 -26 -115 -21 -78 -42 -170 -60 -260 -33 -174 -89 -394 -100 -401 -5
-3 -5 5 0 18 5 13 11 46 15 73 3 28 12 73 20 100 17 56 40 156 66 288 31 158
4 101 -45 -96 -54 -215 -73 -277 -74 -238 -1 13 6 47 14 75 8 28 20 79 27 114
7 34 15 62 18 62 12 0 34 112 46 230 8 74 -1 75 -21 3 -7 -26 -14 -38 -14 -27
-1 12 5 40 13 62 8 22 12 43 9 46 -3 3 2 12 11 21 9 9 16 30 16 46 0 16 5 29
10 29 6 0 10 13 10 29 0 17 5 33 10 36 6 4 10 14 9 23 -1 10 0 19 1 22 11 28
21 170 12 170 -5 0 -12 -28 -15 -62 -10 -99 -15 -126 -26 -147 -6 -11 -11 -29
-11 -40 0 -11 -3 -22 -7 -24 -5 -3 -8 10 -8 29 0 19 4 34 9 34 4 0 6 6 3 13
-3 8 2 54 11 103 14 72 21 90 40 100 12 6 19 13 16 16 -3 3 -1 23 5 45 6 21
13 77 15 125 3 47 21 155 40 239 18 85 42 201 51 259 9 58 20 112 23 120 3 8
6 22 7 30 1 8 8 42 15 74 7 33 13 69 15 80 1 12 8 34 14 49 6 15 10 31 9 35
-2 4 3 30 10 57 8 28 17 68 22 90 5 22 16 74 25 115 9 41 32 140 50 220 19 80
51 228 71 330 68 338 128 617 154 710 23 86 79 364 80 405 1 12 30 -25 30 -38z
m1248 -242 c22 -127 33 -178 78 -360 24 -99 57 -249 74 -332 17 -84 34 -163
39 -176 5 -13 23 -97 40 -187 18 -91 45 -217 61 -280 47 -188 57 -240 47 -240
-8 0 0 -55 11 -75 3 -5 7 -16 8 -25 0 -8 9 -41 18 -73 10 -32 15 -69 12 -82
-3 -13 -2 -25 4 -27 5 -2 11 -19 13 -38 2 -19 9 -53 15 -75 6 -22 18 -69 27
-105 10 -36 21 -70 26 -76 6 -7 9 -16 8 -20 -1 -5 1 -22 5 -39 3 -16 11 -52
17 -80 6 -27 16 -68 24 -90 7 -22 16 -56 18 -76 3 -20 7 -41 10 -46 3 -4 8
-27 11 -49 4 -22 9 -51 12 -64 21 -98 16 -115 -11 -44 -9 21 -13 28 -10 14 3
-14 8 -40 12 -58 4 -22 10 -31 19 -28 8 3 14 1 14 -4 0 -6 -4 -10 -10 -10 -18
0 -10 -27 13 -44 15 -12 17 -16 5 -12 -22 7 -22 15 3 -101 12 -55 28 -102 36
-109 10 -7 14 -20 11 -37 -3 -15 -2 -27 2 -27 4 0 11 -12 14 -27 4 -16 9 -36
13 -47 3 -13 1 -16 -7 -11 -7 4 -5 -3 4 -17 9 -13 16 -45 17 -71 1 -26 5 -47
9 -47 6 0 27 -88 70 -295 12 -55 32 -145 45 -200 13 -55 30 -131 39 -170 8
-38 33 -151 56 -250 23 -99 51 -220 62 -270 12 -49 31 -122 44 -161 13 -39 24
-72 24 -75 0 -3 -248 -3 -896 0 l-91 1 -21 113 c-32 167 -64 347 -67 387 -9
93 -27 205 -49 315 -14 66 -26 136 -28 155 -2 29 -7 34 -23 32 -30 -6 -41 -5
-297 2 -145 4 -238 4 -238 -2 0 -14 -162 -15 -171 -1 -5 9 -14 9 -36 1 -15 -6
-54 -13 -86 -15 -32 -2 -62 -8 -66 -13 -5 -5 -23 -60 -40 -121 -18 -62 -42
-141 -55 -175 -24 -65 -49 -156 -86 -313 -12 -49 -23 -98 -27 -109 -3 -10 -1
-16 4 -13 5 4 25 67 43 142 19 74 38 135 43 135 5 0 6 -7 3 -16 -7 -19 -19
-71 -36 -159 -6 -33 -18 -85 -27 -115 -8 -31 -14 -62 -12 -70 2 -8 -1 -33 -6
-55 -12 -56 -12 -57 -13 -89 l-2 -29 -122 8 c-68 4 -150 9 -183 11 -33 1 -71
6 -85 11 -14 4 -148 8 -297 8 -150 0 -273 3 -273 7 0 3 12 50 26 105 15 54 28
107 30 118 4 27 80 355 129 555 15 65 20 99 13 108 -7 8 -7 16 0 25 5 6 13 35
17 62 4 28 10 64 15 80 4 17 15 64 24 105 9 41 21 93 26 115 5 22 16 69 24
105 8 36 15 72 14 80 -2 31 2 51 11 46 5 -3 7 -16 5 -29 -2 -12 3 -4 11 18 9
22 18 49 20 60 2 11 4 20 5 20 1 0 3 9 4 20 11 83 18 118 26 139 5 13 6 26 3
29 -3 3 3 28 12 56 9 28 14 60 10 71 -4 12 -2 20 6 20 7 0 9 10 6 30 -5 23 -3
30 9 30 12 0 13 4 4 20 -7 13 -7 20 -1 20 6 0 7 7 4 17 -4 11 -3 14 5 9 7 -4
12 -6 12 -4 0 2 5 30 11 63 6 33 12 72 14 86 2 14 9 38 15 53 5 15 10 42 10
60 0 18 3 36 7 40 4 4 15 42 24 84 9 42 26 120 39 172 12 52 24 106 26 120 4
25 15 87 19 105 14 62 40 169 51 205 15 53 43 185 50 244 2 22 16 93 29 156
14 63 37 176 51 250 15 74 40 180 57 235 17 55 32 105 32 110 1 6 5 21 9 33 4
13 10 35 12 48 2 13 6 34 8 47 2 12 9 40 15 62 6 22 34 135 62 250 28 116 55
215 60 221 5 6 7 18 4 25 -9 26 14 43 67 49 29 3 274 6 543 6 l490 -1 13 -70z"/>
<path d="M12675 6982 c-80 -18 -227 -80 -190 -81 12 -1 -10 -19 -55 -47 -41
-25 -77 -49 -80 -52 -3 -4 -13 -13 -23 -21 -15 -12 -17 -12 -11 3 3 9 9 16 13
16 3 0 12 9 19 21 26 41 -16 6 -73 -61 -96 -114 -170 -260 -201 -401 -25 -111
-23 -301 4 -412 12 -49 22 -97 22 -108 0 -10 4 -19 9 -19 5 0 12 -11 15 -25 3
-13 20 -48 37 -77 17 -29 66 -118 109 -198 87 -164 180 -334 234 -430 82 -146
81 -142 69 -225 -6 -43 -18 -84 -27 -94 -13 -14 -14 -20 -4 -23 10 -4 9 -23
-5 -93 -12 -60 -14 -92 -7 -99 5 -5 10 -21 11 -35 l0 -26 11 23 c11 22 17 23
97 21 47 -1 96 1 109 5 36 12 66 0 80 -34 8 -16 18 -28 23 -24 5 3 7 10 4 15
-4 5 0 9 8 9 8 0 17 -7 21 -15 6 -16 82 -19 92 -3 3 4 10 8 15 8 6 0 7 -5 4
-11 -5 -7 -1 -8 11 -1 18 9 82 28 134 38 18 4 21 3 11 -4 -21 -15 -2 -20 84
-20 48 0 83 5 88 12 5 8 9 8 15 0 5 -7 32 -8 82 -4 41 4 80 6 86 3 5 -2 21 1
35 6 20 8 14 10 -36 12 -33 1 -88 1 -122 0 -34 0 -73 5 -88 13 l-26 14 26 4
c19 4 25 2 21 -8 -4 -11 3 -13 37 -8 48 8 56 12 40 22 -6 4 20 6 58 5 39 -1
69 2 69 7 0 9 -47 15 -95 12 -182 -11 -209 -2 -219 70 -4 24 -11 75 -17 113
-5 39 -15 100 -21 137 l-11 68 51 102 c28 57 67 132 86 168 19 35 32 68 30 72
-3 4 -1 8 5 8 6 0 7 8 4 17 -5 12 -2 15 10 10 9 -3 17 -2 17 3 0 6 -3 10 -8
10 -4 0 22 60 58 133 74 150 150 324 192 442 38 109 50 295 24 400 -40 161
-93 271 -190 393 -62 78 -131 131 -218 167 -38 15 -68 31 -68 35 0 7 -45 22
-115 39 -22 6 -96 13 -165 15 -98 5 -142 2 -205 -12z m370 -52 c117 -27 295
-111 295 -139 0 -5 -23 -14 -50 -20 -57 -12 -61 -11 -150 54 -71 53 -85 61
-76 47 4 -6 40 -35 81 -64 41 -28 75 -55 75 -58 0 -4 -84 -31 -186 -60 -103
-29 -232 -70 -288 -92 -150 -59 -131 -62 -213 39 -76 94 -110 129 -118 122 -4
-4 39 -57 163 -201 13 -15 11 -23 -20 -70 -48 -73 -102 -215 -138 -365 -9 -37
-23 -51 -131 -135 -144 -111 -149 -114 -149 -93 0 9 -9 43 -21 77 -15 45 -21
90 -22 162 -1 91 3 112 37 220 46 144 83 228 132 302 39 59 45 60 93 24 61
-48 167 -126 179 -133 60 -38 -101 98 -177 148 -48 33 -47 37 39 95 211 143
429 190 645 140z m353 -205 c85 -96 153 -228 187 -365 14 -52 16 -93 11 -208
-3 -79 -11 -153 -17 -164 -11 -20 -11 -20 -35 3 -32 30 -101 167 -164 329 -29
74 -77 193 -107 264 -29 71 -51 132 -47 135 9 10 98 39 120 40 13 1 34 -13 52
-34z m-213 -57 c-4 -24 -12 -119 -18 -212 l-12 -169 -32 50 c-43 66 -113 129
-171 154 -37 17 -61 20 -117 16 -109 -7 -179 -38 -249 -110 -64 -67 -66 -58
-12 46 31 61 32 62 121 100 87 38 456 164 484 166 11 1 12 -8 6 -41z m73 -115
c23 -54 66 -163 97 -243 31 -80 72 -173 91 -207 18 -35 31 -63 27 -63 -4 0
-61 36 -127 79 -67 44 -134 85 -150 92 -27 13 -28 15 -22 69 3 30 11 128 18
217 6 89 15 160 19 158 4 -3 25 -49 47 -102z m-282 -121 c46 -24 114 -93 140
-142 14 -25 19 -56 19 -111 0 -65 -5 -85 -33 -142 -88 -178 -273 -220 -406
-91 -90 88 -107 226 -44 361 28 60 96 129 140 142 48 15 138 6 184 -17z m-464
-249 c-2 -27 -12 -56 -21 -67 -15 -18 -15 -18 7 -12 16 5 22 3 23 -8 1 -9 2
-19 3 -23 1 -5 6 -27 10 -51 9 -50 65 -125 123 -165 56 -39 138 -51 220 -32
35 8 75 22 89 31 39 26 40 9 2 -38 -19 -24 -44 -59 -55 -79 -11 -20 -28 -48
-38 -62 -9 -15 -15 -27 -12 -27 4 0 38 45 77 100 39 54 93 125 122 157 61 70
97 143 104 215 3 29 7 59 10 65 4 14 70 -22 154 -81 25 -18 68 -45 95 -61 54
-31 95 -64 95 -76 0 -5 -93 -56 -207 -113 -115 -58 -270 -141 -345 -185 -76
-45 -144 -81 -152 -81 -7 0 -32 28 -54 63 -23 34 -71 93 -107 131 -59 62 -67
73 -64 92 1 3 -10 18 -23 32 -24 27 -98 137 -98 147 0 3 7 5 16 5 8 0 12 5 9
11 -4 6 -14 8 -22 5 -8 -4 -11 -2 -7 5 4 6 1 14 -5 18 -13 8 -4 41 11 41 5 0
6 -5 2 -12 -4 -7 -3 -8 5 -4 6 4 10 19 9 34 -2 32 10 72 21 72 4 0 6 -21 3
-47z m-57 -163 c27 -52 153 -225 215 -295 19 -22 50 -59 68 -82 l32 -42 -62
23 c-35 13 -112 47 -173 76 -144 67 -323 140 -346 140 -10 0 -21 5 -24 10 -3
6 -2 10 3 10 5 0 65 43 133 95 68 52 127 95 131 95 4 0 14 -13 23 -30z m1076
-147 c-16 -32 -35 -74 -44 -93 -47 -110 -87 -196 -131 -280 -99 -192 -122
-236 -140 -280 -10 -25 -51 -106 -91 -180 -95 -178 -113 -209 -139 -245 -29
-39 -87 -147 -75 -139 5 3 1 -11 -8 -31 l-18 -37 -6 32 c-4 18 -8 125 -9 239
-1 113 -4 222 -5 241 -4 39 -14 242 -19 367 l-3 83 61 39 c114 73 428 241 449
241 7 0 117 54 172 84 17 9 31 16 32 16 2 0 -10 -26 -26 -57z m-1319 -58 c41
-18 475 -205 544 -234 l51 -22 12 -247 c7 -136 15 -328 17 -427 2 -99 6 -204
9 -232 2 -29 3 -53 0 -53 -2 0 -20 34 -39 75 -19 41 -59 112 -89 157 -29 46
-71 115 -92 153 -21 39 -93 165 -160 280 -67 116 -147 260 -177 320 -31 61
-72 138 -91 172 -30 52 -36 73 -21 73 2 0 18 -7 36 -15z"/>
<path d="M5396 7947 c-32 -19 -45 -30 -93 -74 -47 -44 -63 -52 -63 -32 0 5 -5
7 -10 4 -6 -4 -7 -11 -4 -17 14 -23 -177 -188 -220 -188 -18 -1 -19 -2 -5 -10
14 -8 15 -18 6 -67 -12 -69 -14 -891 -3 -1343 10 -457 12 -1575 3 -1935 -4
-170 -10 -379 -12 -463 -2 -84 0 -150 5 -147 14 9 17 -72 13 -345 -4 -362 -3
-514 5 -522 14 -13 187 -29 266 -24 44 3 82 2 86 -3 6 -10 450 -20 450 -10 0
9 107 29 155 29 22 0 47 -6 53 -12 9 -9 15 -10 20 -2 4 7 36 15 72 20 54 6 60
9 35 14 -16 3 -42 3 -57 -1 -16 -4 -28 -4 -28 2 0 18 204 279 247 315 16 13
23 27 18 34 -6 9 -9 9 -16 -1 -11 -19 -17 -10 -21 36 -2 25 1 39 8 38 11 -2
11 188 0 225 -7 20 -15 762 -9 762 12 0 96 -202 131 -315 22 -71 76 -245 121
-385 45 -140 102 -320 128 -400 25 -80 56 -173 69 -207 13 -34 24 -68 24 -76
0 -8 7 -20 15 -27 27 -22 16 -30 -41 -30 -34 0 -53 -4 -49 -10 8 -13 488 -13
660 1 223 17 537 25 556 14 5 -4 18 -23 29 -43 10 -20 20 -31 20 -24 4 39 2
80 -4 90 -9 16 3 36 67 106 25 27 27 28 16 6 -6 -14 -25 -40 -41 -59 -16 -18
-27 -35 -24 -38 8 -9 91 86 94 108 1 11 11 32 22 46 11 14 20 31 20 38 0 7 6
18 14 24 8 7 22 28 31 47 11 23 22 34 31 30 8 -3 14 -2 14 2 0 21 -26 95 -52
152 -17 36 -41 94 -55 130 -13 36 -33 83 -43 105 -31 65 -240 595 -261 660
-11 33 -24 69 -29 80 -4 11 -27 72 -50 135 -23 63 -52 142 -64 175 -13 34 -22
73 -22 88 1 14 -4 29 -12 32 -7 3 -11 9 -8 14 6 10 -20 78 -98 253 -31 70 -56
131 -56 137 0 5 -9 13 -20 16 -23 7 -26 25 -8 43 20 20 31 14 24 -13 -4 -14
-2 -25 3 -25 5 0 11 11 13 25 3 14 1 25 -3 25 -5 0 -9 5 -9 11 0 5 5 7 10 4 6
-3 10 0 10 7 0 7 19 31 41 53 23 22 60 64 82 93 22 28 43 52 48 52 5 0 9 5 9
11 0 5 -5 7 -12 3 -7 -4 -2 7 10 24 13 17 27 34 33 37 5 4 18 24 29 46 11 21
25 39 31 39 14 0 -26 -66 -65 -107 -16 -18 -25 -33 -20 -33 25 0 149 163 138
182 -3 4 -1 8 4 8 6 0 12 7 16 15 10 28 -11 15 -35 -20 -38 -55 -42 -41 -6 25
31 58 55 81 42 40 -3 -11 -3 -20 2 -20 7 0 46 108 49 135 0 6 4 17 7 25 31 81
53 222 63 405 3 66 10 154 14 195 7 71 6 267 -3 320 -8 51 -82 285 -93 295
-14 12 -56 136 -49 143 3 3 5 0 5 -6 0 -7 5 -12 10 -12 15 0 12 14 -9 36 -10
11 -22 31 -26 45 -4 13 -13 31 -19 39 -6 8 -20 31 -30 50 -11 19 -22 37 -25
40 -4 3 -23 25 -44 49 -38 46 -50 74 -20 50 39 -33 -7 28 -59 77 -110 104
-319 227 -488 289 -41 15 -86 32 -100 38 -14 6 -36 11 -50 13 -14 1 -74 14
-135 28 -177 43 -313 59 -490 57 -661 -7 -902 -6 -898 7 6 15 -6 15 -31 -1z
m634 -49 c107 2 227 5 265 7 95 6 274 -12 363 -37 40 -11 80 -17 88 -14 8 3
14 1 14 -5 0 -6 10 -8 23 -4 16 4 18 4 8 -3 -11 -8 -10 -12 7 -21 11 -6 28
-11 37 -11 15 0 49 -12 158 -58 54 -22 56 -8 3 18 -55 26 -70 44 -29 34 15 -4
35 -11 44 -15 9 -5 39 -16 65 -24 50 -16 135 -55 144 -66 6 -7 45 -22 45 -17
0 2 14 -7 32 -20 17 -12 34 -22 37 -22 18 0 126 -74 126 -86 0 -8 5 -12 11 -8
17 10 130 -113 180 -195 74 -125 79 -135 79 -163 0 -15 4 -29 9 -33 5 -3 15
-30 22 -60 7 -30 16 -55 21 -55 4 0 8 -6 8 -14 0 -8 13 -45 29 -82 16 -38 32
-94 36 -124 4 -30 11 -59 15 -65 25 -33 44 -379 29 -513 -6 -54 -19 -83 -19
-43 0 15 -4 20 -12 15 -10 -6 -10 -4 0 8 9 11 10 18 2 23 -7 4 -7 12 0 26 8
14 7 19 -2 19 -10 0 -10 2 1 9 9 6 13 28 11 70 -2 89 -3 101 -12 101 -4 0 -8
5 -8 11 0 5 5 7 10 4 6 -3 10 0 10 8 0 7 -11 19 -25 25 -21 10 -23 9 -18 -5 4
-10 2 -14 -4 -10 -6 4 -16 0 -23 -8 -7 -8 -9 -15 -6 -15 4 0 0 -7 -8 -16 -18
-18 -20 -30 -7 -39 5 -3 15 11 22 30 20 55 34 36 34 -46 1 -84 -4 -111 -15
-104 -5 3 -11 1 -15 -5 -3 -5 -1 -10 5 -10 7 0 9 -7 6 -15 -3 -8 -9 -22 -12
-30 -4 -10 0 -15 11 -15 9 0 15 -6 12 -12 -2 -7 -11 -12 -19 -10 -11 2 -14 -4
-11 -22 3 -15 10 -23 18 -20 7 3 15 -2 18 -10 4 -9 1 -15 -6 -13 -7 1 -11 -5
-9 -13 2 -8 -4 -20 -14 -27 -9 -6 -16 -25 -16 -40 0 -15 -5 -34 -12 -42 -8
-12 -8 -13 2 -7 8 5 12 0 12 -15 0 -12 -3 -19 -7 -16 -3 4 -13 1 -21 -6 -13
-10 -15 -9 -9 5 3 9 2 18 -3 20 -6 2 -4 15 4 30 10 20 11 29 2 38 -8 10 -8 14
3 17 11 5 11 7 0 14 -12 7 -11 14 3 38 9 17 13 31 8 33 -18 6 -33 227 -18 261
5 10 5 17 -1 17 -5 0 -9 20 -9 45 0 31 4 45 13 45 22 0 25 14 9 45 -8 16 -17
40 -19 54 -7 50 -21 85 -36 89 -11 4 -11 2 -2 -8 6 -7 9 -18 7 -25 -3 -6 -1
-30 5 -53 5 -23 6 -42 2 -42 -4 0 -7 -18 -8 -41 -2 -88 -29 -60 -38 39 -4 41
-11 87 -16 104 -4 17 -8 33 -7 37 1 3 -4 19 -10 34 -7 16 -12 35 -12 43 0 8
-4 22 -10 32 -5 9 -24 51 -43 92 -37 82 -113 200 -129 200 -6 0 -8 7 -4 15 3
8 -3 19 -14 25 -10 5 -21 19 -25 29 -4 12 -12 18 -21 14 -7 -3 -14 -1 -14 4 0
11 -128 118 -212 177 -132 91 -284 155 -466 197 -319 72 -516 81 -1107 50
-104 -5 -262 -12 -350 -15 l-160 -6 35 28 c54 42 180 151 238 205 l53 49 212
-8 c117 -5 300 -8 407 -6z m355 -287 c39 -6 102 -16 140 -22 174 -28 350 -80
500 -150 130 -60 298 -203 394 -336 17 -23 40 -47 51 -53 21 -11 29 -36 8 -25
-7 4 -6 0 3 -7 44 -36 133 -294 160 -463 4 -27 12 -66 18 -85 7 -21 7 -38 1
-44 -6 -6 -5 -17 2 -30 9 -18 9 -19 -3 -9 -11 9 -14 6 -15 -18 -1 -25 2 -28
18 -23 19 6 20 0 14 -223 -6 -237 -8 -267 -20 -295 -4 -9 -5 -22 -1 -27 7 -13
-12 -51 -26 -51 -7 0 -8 8 -4 18 5 14 4 15 -7 4 -11 -11 -10 -16 4 -26 16 -11
15 -18 -6 -92 -34 -114 -87 -239 -146 -338 -40 -68 -67 -100 -127 -149 -80
-66 -240 -177 -254 -177 -5 0 -9 -9 -9 -20 0 -15 -13 -26 -42 -40 l-43 -19 42
0 c38 -1 43 -4 49 -28 4 -16 23 -62 42 -103 49 -108 134 -320 172 -429 17 -52
58 -153 90 -225 88 -199 123 -287 117 -292 -2 -3 -20 23 -40 58 -82 149 -338
628 -430 808 -56 107 -150 283 -210 390 -60 107 -145 260 -189 340 -44 80 -86
155 -94 167 -17 27 -17 33 -1 33 15 1 67 71 100 136 62 123 80 226 78 438 -1
153 -2 162 -36 263 -47 140 -79 184 -205 286 l-35 28 35 -16 c34 -16 34 -15
13 2 -43 35 -109 71 -162 88 -79 26 -286 12 -386 -25 -14 -5 -8 -7 19 -6 l39
1 -2 -110 c-2 -60 -4 -128 -6 -150 -4 -52 -4 -845 0 -910 8 -116 8 -141 1
-157 -12 -27 30 -32 157 -20 138 14 190 29 289 86 l78 44 56 -106 c31 -59 91
-170 134 -247 43 -77 121 -225 175 -330 104 -203 174 -334 320 -595 51 -91
121 -219 157 -285 36 -66 95 -174 131 -240 36 -66 74 -142 85 -170 51 -126
171 -432 177 -452 18 -61 -17 -1 -134 234 -239 481 -408 812 -513 1003 -14 25
-67 126 -118 225 -177 344 -232 446 -237 442 -2 -3 9 -29 25 -58 16 -30 72
-137 125 -239 52 -102 155 -302 229 -445 74 -143 262 -514 418 -825 156 -311
297 -587 312 -614 49 -82 62 -78 -277 -82 -165 -2 -311 -5 -325 -7 -14 -3
-117 -6 -230 -8 l-204 -4 -8 40 c-3 22 -47 162 -96 310 -122 366 -179 545
-248 770 -40 134 -65 199 -84 221 -14 16 -43 70 -64 118 -37 86 -37 90 -41
237 -5 149 -4 150 16 144 15 -5 20 -3 17 6 -3 8 -17 15 -33 17 l-28 4 6 -126
c3 -69 3 -126 -1 -126 -8 0 -51 67 -77 120 -10 19 -44 60 -76 91 -33 30 -59
60 -59 67 0 18 -18 15 -22 -4 -2 -10 -16 4 -38 38 l-35 53 -109 0 -108 0 -29
-35 c-16 -19 -35 -47 -42 -62 -6 -16 -18 -26 -24 -23 -7 2 -13 0 -13 -4 0 -5
5 -11 11 -13 7 -2 2 -22 -15 -56 -14 -28 -26 -62 -26 -74 0 -24 19 -83 33
-105 12 -19 38 -15 44 6 4 16 9 18 29 11 32 -13 166 -16 183 -5 9 5 18 2 27
-9 7 -10 22 -16 35 -14 19 2 26 14 40 68 l17 65 2 -100 c2 -55 2 -437 2 -850
l-1 -750 -480 0 -480 0 6 430 6 430 123 245 c159 315 346 666 392 738 8 12 12
22 8 22 -15 0 -202 -336 -403 -725 -68 -131 -126 -242 -129 -245 -3 -3 -2 29
2 70 7 80 9 84 151 330 33 58 71 125 85 150 41 74 176 307 243 420 34 58 104
177 155 265 51 88 117 199 146 247 30 48 54 91 54 94 0 3 8 18 18 32 10 15 31
50 46 77 l27 50 -26 -30 c-14 -16 -53 -75 -87 -130 -271 -441 -589 -979 -722
-1223 -43 -78 -83 -145 -87 -148 -5 -3 -10 34 -10 83 -3 211 3 1669 7 1688 7
34 7 620 -1 980 -3 187 -8 459 -11 605 -2 146 -5 276 -7 290 -1 17 3 25 13 25
8 0 20 3 25 6 6 4 48 2 95 -3 80 -9 281 -4 525 12 152 10 605 4 690 -9z m-40
-816 c77 -20 213 -151 272 -261 47 -89 63 -163 69 -319 5 -116 3 -156 -14
-235 -27 -133 -43 -165 -89 -188 -66 -33 -164 -53 -238 -50 -63 3 -70 5 -67
23 8 66 -4 961 -14 1012 -6 32 -5 33 22 29 16 -2 43 -7 59 -11z m-270 -642
c-3 -16 -2 -22 1 -15 8 17 24 15 24 -3 0 -8 5 -15 10 -15 6 0 10 5 10 10 0 6
7 10 15 10 8 0 15 9 15 19 0 14 6 19 20 18 24 -2 25 -6 4 -21 -18 -14 -9 -46
13 -46 8 0 11 -5 8 -10 -4 -6 -1 -18 6 -26 6 -8 8 -18 4 -22 -4 -4 -10 -1 -12
6 -6 17 -23 15 -23 -3 0 -8 5 -15 12 -15 6 0 9 -3 5 -6 -3 -4 0 -12 7 -19 7
-8 16 -43 20 -80 4 -36 9 -79 13 -95 3 -17 1 -30 -4 -30 -11 0 -21 42 -30 130
-6 59 -37 106 -53 80 -5 -7 -4 -24 1 -37 5 -12 6 -23 3 -23 -3 0 -2 -5 1 -10
5 -8 11 -8 20 0 11 9 12 7 8 -9 -3 -11 -11 -17 -18 -15 -8 3 -12 -4 -12 -20 0
-15 5 -26 13 -26 7 0 16 -5 20 -12 5 -8 2 -9 -9 -5 -10 3 -17 2 -17 -2 0 -5 8
-12 17 -15 12 -5 13 -10 5 -18 -6 -6 -8 -17 -5 -24 3 -8 1 -14 -4 -14 -6 0 -7
-16 -4 -37 5 -29 11 -37 24 -35 9 2 17 0 17 -3 0 -4 -29 -36 -65 -72 -35 -37
-66 -71 -69 -77 -3 -7 -9 -5 -16 4 -7 10 -8 37 -4 80 4 36 7 81 5 100 -3 58 0
354 4 375 2 11 4 28 4 38 1 9 6 17 11 17 6 0 8 -12 5 -27z m1172 -1228 c45
-85 113 -225 113 -233 0 -5 7 -15 15 -22 8 -6 14 -15 13 -18 -1 -4 12 -36 29
-72 101 -211 133 -285 134 -308 2 -24 2 -24 6 -4 2 12 8 22 12 22 18 0 62 -43
92 -90 18 -28 36 -50 41 -50 5 0 18 -20 29 -45 11 -25 24 -45 29 -45 5 0 2 12
-6 28 -7 15 -14 32 -14 38 0 6 -9 19 -20 29 -11 10 -20 23 -20 30 0 10 -34 44
-130 130 -15 14 -104 219 -113 262 -9 39 8 33 30 -10 52 -105 63 -130 63 -143
0 -8 4 -14 8 -14 5 0 15 -11 22 -25 7 -13 17 -22 22 -19 4 3 6 10 3 15 -4 5
-1 9 5 9 11 0 60 -95 60 -118 0 -7 4 -11 9 -7 13 7 28 -20 67 -120 18 -44 46
-115 63 -158 17 -43 31 -84 30 -90 0 -9 -2 -8 -6 1 -2 6 -10 12 -16 12 -7 -1
0 -11 14 -23 15 -12 32 -40 39 -62 7 -22 16 -44 20 -50 4 -5 24 -50 45 -100
20 -49 40 -94 44 -100 5 -5 25 -55 47 -110 21 -55 41 -104 43 -110 2 -5 -3 -4
-12 4 -22 18 -21 9 3 -41 11 -23 20 -48 20 -55 0 -8 7 -13 16 -11 12 2 22 -10
32 -39 15 -41 15 -44 -8 -85 -13 -24 -26 -45 -29 -48 -17 -15 -83 -103 -120
-159 l-41 -64 -15 36 c-8 20 -15 41 -15 47 0 6 -9 32 -21 57 -11 25 -22 60
-23 77 -2 17 -8 42 -15 54 -9 17 -9 27 -1 37 12 15 3 65 -12 65 -5 0 -7 -14
-3 -32 l6 -33 -20 25 c-14 18 -17 28 -9 37 8 10 6 13 -6 13 -14 0 -21 18 -17
43 0 4 -3 7 -9 7 -5 0 -12 16 -16 35 -3 19 -10 38 -15 41 -5 2 -18 37 -30 76
-11 39 -32 95 -45 124 -13 29 -24 56 -24 61 0 4 -6 20 -14 34 -7 14 -30 71
-51 125 -20 54 -42 113 -48 129 -6 17 -12 35 -12 40 0 6 -9 25 -19 44 -28 51
-90 206 -181 451 -22 58 -22 62 -5 40 23 -29 27 -15 5 17 -8 12 -17 32 -19 45
-2 12 -9 22 -15 21 -6 -2 -10 1 -8 5 3 10 -45 116 -55 120 -4 2 -4 10 -1 18 3
8 1 14 -4 14 -10 0 -75 124 -88 168 -4 13 -2 29 5 37 19 22 30 18 30 -11 0
-45 23 -118 52 -164 66 -106 164 -333 152 -352 -5 -8 21 -101 35 -123 3 -5 6
-12 7 -15 1 -6 17 -47 47 -119 24 -59 42 -74 44 -39 2 18 0 20 -7 8 -8 -12
-10 -11 -10 6 0 11 -3 24 -7 28 -5 4 -8 11 -9 14 0 4 -4 14 -7 22 -21 49 -30
78 -33 105 -3 28 -3 29 11 10 8 -10 25 -50 37 -87 22 -70 33 -83 35 -48 1 11
-2 20 -6 20 -5 0 -11 10 -14 23 -11 45 -60 172 -69 178 -22 14 -88 183 -75
195 6 6 48 -79 64 -129 8 -27 18 -45 24 -41 6 3 9 0 7 -7 -3 -14 3 -19 24 -19
7 0 5 6 -4 18 -24 26 -48 79 -40 86 3 4 2 10 -3 14 -20 14 -35 50 -23 54 13 5
-10 68 -24 68 -5 0 -8 5 -8 11 0 16 -119 251 -138 273 -13 15 -14 18 -2 11 12
-6 13 -5 3 6 -15 15 -17 29 -4 29 5 0 18 -16 28 -35z m-1317 -211 c5 -5 12
-21 15 -36 l7 -28 -131 0 c-75 0 -131 4 -131 9 0 34 21 60 52 64 50 7 178 1
188 -9z m48 -93 c2 -7 1 -26 -2 -44 -7 -35 -50 -63 -80 -51 -9 3 -16 1 -16 -5
0 -17 48 -25 65 -11 12 10 15 9 15 -3 0 -9 -8 -20 -17 -25 -21 -11 -295 -8
-312 3 -16 10 4 106 30 140 11 15 312 11 317 -4z m197 -733 c3 -91 13 -155 31
-188 12 -23 13 -19 7 35 -3 33 -9 69 -13 81 -8 20 3 54 14 43 4 -3 10 -68 15
-145 6 -76 13 -159 17 -184 6 -42 5 -44 -9 -25 -15 19 -16 18 -10 -20 3 -22
10 -46 16 -52 6 -9 6 -13 -2 -13 -6 0 -11 -7 -11 -15 0 -8 5 -15 10 -15 6 0
10 -4 10 -10 0 -5 -7 -10 -15 -10 -12 0 -13 -5 -4 -26 11 -31 5 -44 -9 -17 -5
10 -9 54 -9 98 1 44 -3 88 -9 97 -6 11 -9 -31 -9 -124 0 -121 2 -141 18 -152
9 -7 17 -19 17 -27 0 -12 2 -12 9 0 5 8 5 27 0 45 -8 29 -7 30 6 12 14 -19 17
-33 18 -83 0 -13 4 -23 8 -23 17 0 9 -25 -17 -55 -42 -49 -93 -110 -109 -131
-13 -17 -14 -14 -16 36 -2 64 -1 58 -19 135 -9 38 -13 114 -13 210 1 224 2
249 10 242 3 -4 7 -80 9 -169 2 -189 13 -308 27 -308 5 0 6 8 2 17 -3 10 -8
127 -10 260 -3 133 -5 245 -6 250 -1 4 -1 10 0 13 1 3 3 31 5 63 2 32 7 61 10
65 4 4 5 -40 3 -98 -2 -58 0 -130 4 -161 5 -31 10 -75 11 -97 1 -23 5 -47 10
-54 9 -14 4 125 -8 205 -4 32 -3 47 4 47 8 0 9 8 2 24 -5 15 -5 27 3 35 8 8 8
11 -1 11 -9 0 -12 36 -12 132 0 137 11 172 15 46z"/>
<path d="M6430 5394 c-20 -6 -50 -59 -50 -89 0 -75 29 -117 56 -80 8 10 14 15
14 9 0 -5 36 -9 79 -9 75 -1 80 1 84 22 5 27 -26 99 -55 131 -17 17 -32 22
-67 21 -25 -1 -53 -3 -61 -5z"/>
<path d="M5949 5273 c-39 -63 -43 -83 -25 -127 16 -38 33 -46 43 -20 4 12 8
13 14 3 9 -15 100 -19 111 -5 4 6 12 5 21 -2 25 -21 44 -4 50 45 6 56 -5 99
-35 130 -18 19 -31 23 -85 23 l-63 0 -31 -47z"/>
<path d="M6530 4841 c-14 -4 -38 -26 -53 -49 -16 -23 -33 -42 -38 -42 -5 0 -9
-26 -9 -58 0 -49 10 -93 46 -209 2 -7 15 -13 29 -13 20 0 25 5 25 24 0 29 11
38 30 25 12 -7 12 -9 -3 -9 -10 0 -15 -5 -12 -10 4 -6 10 -8 14 -6 4 3 13 0
21 -6 12 -8 12 -9 -2 -4 -10 3 -20 1 -23 -4 -10 -16 43 -23 123 -14 50 5 66
10 44 12 -29 3 -32 5 -20 19 11 14 10 15 -11 8 -16 -5 -21 -4 -17 4 4 6 25 11
47 11 32 0 39 -3 37 -17 -2 -13 5 -19 25 -21 15 -2 27 1 27 7 0 6 9 20 20 31
16 16 17 20 5 20 -13 0 -14 4 -4 21 12 23 8 57 -12 107 -12 28 -12 34 1 42 13
8 12 10 -2 10 -9 0 -31 20 -47 44 -51 73 -74 86 -150 85 -36 -1 -77 -4 -91 -8z
m223 -99 l19 -33 -128 3 -129 3 -2 27 c-2 33 10 36 131 34 l90 -1 19 -33z
m-124 -50 c170 0 165 2 182 -70 10 -46 -19 -77 -65 -68 -17 4 -32 11 -34 16
-2 6 -33 10 -68 10 -36 0 -63 -4 -60 -9 8 -12 -18 -21 -57 -21 -38 0 -51 18
-62 78 -4 23 -11 44 -16 48 -5 3 -9 12 -9 20 0 11 5 12 18 5 9 -5 86 -9 171
-9z"/>
<path d="M6897 3689 c-50 -12 -169 -129 -165 -162 1 -12 -1 -54 -5 -92 -9 -84
3 -153 44 -238 15 -33 31 -84 35 -113 9 -76 28 -93 111 -94 103 -2 123 -4 123
-14 0 -8 119 -2 171 10 13 3 61 8 107 11 70 5 85 9 94 27 6 11 20 28 32 38 16
14 17 17 4 12 -21 -7 -23 8 -6 39 16 30 19 44 21 98 1 38 -7 59 -41 117 -23
39 -42 75 -42 80 0 5 12 14 26 21 30 13 27 35 -4 39 -23 4 -30 -13 -9 -21 6
-3 3 -6 -8 -6 -16 -1 -29 18 -60 85 -43 93 -85 142 -137 160 -38 14 -235 16
-291 3z m331 -53 c20 -19 34 -37 32 -40 -3 -3 -37 -2 -75 2 -39 4 -121 5 -184
2 -112 -5 -114 -5 -122 18 -5 13 -9 25 -9 28 0 15 61 23 183 23 l137 1 38 -34z
m22 -70 c20 -8 48 -61 56 -104 l7 -32 -214 2 -214 3 2 25 c1 14 3 46 4 71 l3
45 171 -1 c93 -1 177 -5 185 -9z m-343 -159 c68 -12 408 -8 420 4 16 16 68
-68 94 -153 20 -66 20 -68 2 -105 -25 -52 -58 -62 -126 -39 -43 14 -73 17
-158 13 -105 -6 -182 -13 -230 -21 -38 -7 -57 19 -79 105 -11 40 -26 76 -34
81 -8 5 -18 24 -22 43 -3 20 -10 38 -15 41 -5 3 -9 19 -9 36 0 29 1 30 18 15
10 -10 23 -17 28 -17 28 0 45 -28 50 -80 8 -110 15 -137 37 -157 28 -26 63
-37 72 -23 3 5 3 10 -2 11 -49 4 -76 17 -70 33 3 7 0 19 -6 25 -13 13 -13 10
-20 136 -4 62 -3 92 2 79 6 -14 22 -23 48 -27z"/>
<path d="M5406 3649 c-73 -12 -123 -52 -163 -129 -26 -51 -37 -64 -53 -62 -26
4 -26 -14 0 -21 21 -5 28 -27 9 -27 -23 0 -48 21 -43 35 4 8 1 15 -5 15 -23 0
-25 -33 -3 -51 12 -9 22 -20 22 -23 0 -4 -19 -34 -42 -68 -43 -62 -43 -63 -45
-159 -1 -81 1 -96 14 -95 10 1 20 -15 29 -43 14 -48 27 -61 61 -61 21 0 43 24
40 45 -1 5 6 11 16 13 9 2 17 -1 17 -7 0 -6 -6 -12 -12 -12 -7 -1 10 -5 37 -9
73 -12 343 -12 350 0 4 6 -58 9 -166 9 -94 -1 -175 3 -179 7 -5 5 74 9 176 9
l184 0 0 -27 c0 -57 71 -58 135 -2 29 25 29 26 3 10 -26 -15 -28 -15 -28 1 0
13 19 27 62 46 63 28 78 48 17 23 -58 -24 -79 -28 -79 -17 0 6 6 11 13 11 7 0
22 7 33 15 18 14 17 15 -10 9 -26 -6 -28 -5 -21 16 9 29 36 60 47 54 4 -3 18
2 30 11 23 16 23 16 -7 10 -29 -6 -29 -6 -10 10 11 8 25 13 32 11 7 -3 15 0
19 6 5 7 -2 9 -20 6 l-28 -6 5 130 c4 122 3 132 -18 157 -12 14 -34 47 -48 72
-15 25 -35 53 -45 62 -34 31 -211 46 -326 26z m271 -25 c16 -4 22 -13 21 -33
0 -14 2 -42 5 -61 l7 -35 -11 32 c-9 26 -18 33 -48 37 -80 12 -229 16 -283 8
-32 -5 -58 -6 -58 -2 0 14 41 43 72 50 39 9 264 12 295 4z m-38 -88 c38 -12
55 -50 49 -110 l-3 -31 -200 -2 c-210 -2 -245 1 -245 17 0 6 14 39 31 75 29
59 34 64 68 67 69 6 266 -5 300 -16z m169 -185 c-3 -27 -16 -73 -31 -103 -14
-29 -28 -73 -32 -98 -10 -69 -14 -77 -38 -80 -38 -4 -155 -5 -360 -2 -195 2
-198 2 -222 27 -22 21 -35 75 -19 75 3 0 20 -11 38 -25 37 -28 56 -32 56 -10
0 8 -7 15 -16 15 -27 0 -84 31 -84 46 0 8 6 11 16 7 14 -5 15 -3 5 15 -12 23
-12 24 40 112 35 60 39 62 98 49 34 -7 130 -10 262 -7 l209 3 0 -40 c0 -22 -6
-52 -14 -67 -8 -14 -12 -42 -9 -60 6 -46 -23 -72 -77 -70 -32 2 -38 -1 -33
-14 5 -13 15 -15 52 -9 57 8 81 29 81 70 0 18 5 57 11 86 7 30 12 65 13 79 2
35 14 50 38 50 19 0 20 -5 16 -49z"/>
<path d="M8408 7948 c4 -4 44 -8 89 -10 46 -2 83 -4 83 -6 0 -13 -275 -286
-286 -284 -13 3 -14 -98 -10 -726 3 -401 8 -758 12 -794 l6 -65 -31 -13 c-30
-12 -32 -16 -29 -54 3 -36 6 -41 30 -44 37 -4 42 -34 36 -219 -4 -129 -7 -148
-24 -160 -26 -20 -100 -8 -131 21 -21 20 -23 26 -12 49 7 15 16 27 20 27 4 0
22 18 40 41 29 36 30 43 19 65 -8 13 -22 24 -33 24 -12 0 -17 5 -14 14 4 9 0
12 -13 9 -22 -6 -35 13 -21 31 11 13 67 31 85 27 5 -1 19 8 32 20 l24 22 -21
15 c-19 13 -23 12 -43 -11 -11 -13 -36 -28 -55 -31 -76 -14 -82 -56 -16 -114
l44 -39 -28 -27 c-42 -40 -67 -101 -55 -134 13 -37 69 -72 115 -72 22 0 39 -4
39 -10 0 -5 -6 -7 -14 -4 -24 9 -32 -60 -11 -92 14 -21 23 -25 51 -22 l35 4
-6 -40 c-3 -23 -11 -53 -16 -68 -6 -14 -9 -37 -6 -50 3 -18 5 -16 6 10 1 43
21 41 21 -2 0 -21 -6 -36 -15 -40 -8 -3 -15 -11 -15 -17 0 -7 -18 -28 -40 -47
-30 -25 -39 -39 -35 -54 4 -10 0 -30 -9 -43 -9 -13 -16 -31 -16 -39 0 -20 32
-36 58 -29 15 4 28 -2 41 -18 20 -24 20 -41 15 -854 -7 -1012 -7 -1246 -2
-1265 2 -10 -9 -17 -37 -21 -34 -5 -36 -6 -10 -8 17 -1 37 -5 45 -11 12 -8 12
-10 -3 -16 -9 -3 -31 -4 -47 -2 -17 3 -30 1 -30 -3 0 -4 21 -9 48 -11 42 -3
47 -5 48 -28 1 -14 2 -37 3 -52 0 -16 6 -28 12 -28 7 0 10 21 7 58 l-3 57 250
7 c279 8 804 10 965 3 245 -11 485 -14 400 -5 -47 4 -119 9 -160 10 -63 2 -69
3 -40 10 19 4 233 11 475 14 506 7 466 6 484 12 11 3 11 7 1 19 -10 12 -9 15
4 15 9 0 16 -7 16 -16 0 -9 7 -14 18 -13 9 1 24 -1 33 -5 8 -4 29 0 45 9 16 8
22 15 14 15 -10 0 -9 4 5 14 11 7 31 13 45 13 14 0 47 6 73 13 42 11 46 14 30
25 -23 15 -52 22 -127 30 -32 4 -68 10 -80 15 -19 8 -18 9 9 10 17 1 74 2 129
2 74 -1 96 2 87 11 -10 10 -48 13 -175 16 -16 1 -26 4 -23 8 4 3 51 8 105 9
138 4 136 3 129 11 -4 3 -57 8 -118 9 -61 1 -113 5 -116 7 -8 8 122 27 185 27
33 0 64 5 67 10 3 6 -2 10 -12 11 -10 0 -31 2 -48 4 -72 8 -223 19 -262 18
-50 -1 -53 7 -16 37 15 11 53 51 85 88 86 99 159 253 227 482 13 41 27 86 31
100 5 14 25 106 44 205 20 99 41 203 47 232 7 28 9 58 6 67 -4 9 -2 16 3 16
14 0 3 224 -17 360 -8 54 -8 55 -27 150 -8 41 -17 91 -21 110 -9 50 -27 101
-46 130 -30 46 -60 111 -54 119 2 5 -3 15 -12 22 -9 8 -31 38 -50 66 -18 29
-71 97 -117 152 -77 90 -83 101 -71 118 8 10 15 13 15 8 0 -6 -5 -16 -12 -23
-9 -9 -9 -12 3 -12 8 0 30 16 49 35 19 19 30 35 26 35 -5 0 3 9 18 21 14 11
26 26 26 32 0 7 9 18 20 25 11 6 17 18 14 25 -3 8 2 20 11 27 20 16 19 26 -5
50 -18 18 -19 23 -6 52 31 71 66 204 60 226 -8 27 -4 27 47 1 23 -11 38 -16
34 -10 -3 6 -20 18 -36 27 -28 14 -30 18 -23 52 4 20 8 57 9 82 1 25 5 77 10
115 4 39 9 79 10 90 1 11 5 49 9 85 17 157 10 306 -18 380 -7 19 -17 58 -20
85 -7 46 -6 49 8 30 8 -11 16 -32 16 -47 0 -16 4 -28 9 -28 13 0 -4 66 -25 98
-10 15 -19 29 -20 32 0 3 -3 12 -7 20 -14 35 -36 108 -42 142 -4 20 -16 44
-26 54 -21 19 -26 49 -6 39 6 -4 5 -1 -3 7 -8 7 -24 29 -34 49 -11 20 -39 58
-62 85 -24 26 -41 50 -39 52 2 2 21 -6 41 -19 21 -12 34 -18 31 -12 -4 6 -31
25 -60 41 -28 17 -80 57 -115 90 -63 59 -77 68 -227 148 -44 24 -72 44 -63 44
14 0 149 -57 182 -78 5 -3 6 0 2 7 -10 16 -92 56 -146 72 -25 7 -49 16 -54 21
-17 14 -29 9 -16 -7 8 -10 9 -15 2 -15 -6 0 -16 8 -21 19 -6 11 -27 22 -48 25
-21 4 -58 13 -83 21 -25 8 -57 16 -72 18 -15 1 -30 6 -34 10 -4 4 -21 7 -38 7
-18 0 -40 6 -51 14 -11 7 -42 16 -70 19 -27 3 -61 8 -75 10 -25 5 -105 17
-150 23 -13 1 -28 -3 -33 -9 -6 -9 -10 -9 -13 -1 -3 8 -19 9 -52 2 -26 -5 -80
-6 -121 -2 -100 9 -1082 11 -1073 2z m422 -33 c96 -3 303 -8 460 -11 157 -4
317 -8 355 -9 39 -2 83 -4 98 -4 16 -1 26 -5 23 -10 -4 -5 8 -4 24 2 24 9 33
9 39 -1 4 -6 29 -15 57 -18 79 -9 88 -11 109 -19 11 -5 23 -13 28 -19 5 -8 9
-7 15 1 15 24 284 -63 410 -134 168 -93 376 -336 445 -518 37 -99 66 -209 71
-275 1 -14 5 -43 10 -65 17 -93 17 -91 6 -73 -6 10 -13 34 -15 53 -3 19 -10
54 -16 77 -6 24 -13 58 -16 76 -3 17 -11 32 -18 32 -7 0 -18 14 -25 30 -7 17
-16 30 -21 30 -12 0 -12 -2 7 -40 9 -18 20 -46 25 -64 4 -17 10 -42 14 -56 3
-14 -5 -2 -19 25 -14 28 -25 57 -25 65 -1 8 -10 32 -21 52 -11 21 -17 44 -14
51 3 8 -2 17 -11 21 -10 3 -15 12 -11 21 3 8 1 15 -5 15 -5 0 -9 8 -7 17 2 10
-3 18 -12 18 -8 0 -16 7 -16 15 -3 32 -5 35 -13 22 -6 -10 -17 -2 -45 31 -42
52 -156 144 -156 126 0 -8 -6 -7 -17 3 -57 51 -325 189 -339 175 -2 -2 35 -23
83 -46 146 -71 186 -94 263 -154 40 -31 79 -57 86 -57 14 0 84 -75 84 -90 0
-6 10 -20 22 -32 15 -15 16 -20 5 -15 -10 4 -4 -10 16 -36 18 -23 45 -71 60
-107 15 -36 32 -72 36 -80 16 -29 24 -83 12 -76 -6 4 -11 12 -11 17 0 18 -53
123 -97 192 -24 37 -43 69 -43 72 0 3 -28 35 -62 71 -131 138 -409 311 -598
372 -178 58 -161 57 -745 54 -297 -2 -628 -6 -735 -11 -107 -4 -203 -5 -212
-3 -13 3 12 33 97 116 63 62 115 119 115 127 0 24 40 61 58 54 9 -3 95 -8 192
-10z m-423 -310 c21 -3 49 -8 63 -11 19 -4 22 -2 10 6 -13 8 -13 10 1 10 9 0
19 -3 23 -7 4 -5 251 -6 549 -5 438 3 575 0 712 -12 94 -9 179 -21 190 -26 11
-6 54 -19 95 -29 221 -55 415 -165 561 -317 88 -92 150 -199 205 -357 14 -40
31 -85 39 -102 30 -67 38 -114 51 -295 8 -108 4 -375 -5 -445 -13 -86 -40
-175 -55 -175 -7 0 -21 9 -30 19 -13 15 -15 23 -7 38 6 10 18 36 28 58 9 22
20 48 25 58 12 27 -24 57 -68 57 l-36 0 22 36 c15 24 20 44 17 63 -4 18 1 43
13 67 29 55 26 86 -9 107 -46 27 -112 32 -151 12 -30 -16 -34 -16 -42 -1 -5 9
-18 16 -29 16 -12 0 -23 8 -26 20 -6 21 -47 28 -58 10 -7 -11 -80 -60 -90 -60
-3 0 -5 5 -5 10 0 6 5 10 11 10 5 0 24 14 42 31 18 17 43 35 57 40 20 8 22 12
10 20 -13 8 -11 12 9 28 18 14 21 20 11 26 -10 6 -9 11 4 21 15 10 15 15 5 33
-11 17 -10 23 4 39 22 24 22 50 0 74 -11 12 -16 32 -15 52 4 44 -24 68 -88 74
-37 3 -55 0 -68 -11 -9 -8 -33 -18 -53 -22 -31 -6 -38 -3 -53 19 -19 29 -56
35 -76 11 -11 -13 -8 -14 16 -10 36 7 64 -9 47 -26 -7 -7 -17 -8 -29 -1 -11 5
-25 7 -31 5 -7 -3 -20 3 -30 12 -16 16 -16 18 0 30 9 7 17 16 17 21 0 4 -5 3
-12 -4 -19 -19 -33 -14 -15 6 10 10 17 30 17 43 0 23 -37 85 -60 99 -6 4 -5
20 2 44 12 38 11 40 -21 67 -19 15 -48 31 -65 35 -24 5 -34 2 -50 -18 -23 -27
-73 -42 -79 -24 -3 7 -14 2 -29 -11 -30 -28 -55 -29 -63 -3 -4 11 -18 34 -33
52 -15 17 -32 48 -37 67 -8 26 -17 37 -34 39 l-23 4 22 -30 c13 -17 23 -42 23
-57 0 -18 7 -30 22 -37 13 -6 31 -28 41 -50 11 -26 22 -37 32 -33 7 3 32 8 55
11 23 4 53 15 67 24 50 34 89 41 121 23 39 -23 45 -44 17 -65 l-23 -17 36 -38
c20 -21 40 -48 44 -60 7 -25 -17 -76 -50 -105 -11 -9 -15 -17 -9 -18 5 0 16 6
23 13 10 10 16 8 31 -10 10 -13 23 -23 29 -23 12 0 4 -58 -12 -78 -14 -18 0
-27 18 -12 10 8 15 25 13 44 l-3 31 65 0 c44 0 76 6 99 19 27 14 47 17 89 13
69 -7 90 -26 74 -62 -17 -37 -15 -52 9 -58 31 -8 21 -41 -14 -45 -32 -4 -34
-13 -7 -37 21 -19 27 -45 10 -45 -5 0 -10 -9 -10 -21 0 -12 -5 -19 -12 -16
-14 5 -70 -25 -104 -55 -13 -11 -24 -15 -28 -10 -3 6 18 24 47 40 48 27 89 62
73 62 -13 0 -146 -83 -146 -91 0 -4 8 -12 17 -18 14 -8 15 -12 4 -25 -7 -9
-19 -16 -27 -16 -13 0 -74 -53 -74 -65 0 -12 30 -3 64 20 39 27 46 23 19 -9
-16 -19 -16 -19 -1 -7 9 7 22 10 28 6 6 -3 40 10 76 30 36 20 68 34 71 31 10
-10 -41 -45 -73 -52 -30 -5 -110 -74 -87 -74 6 0 16 7 24 16 18 22 68 46 79
39 15 -9 12 -25 -4 -19 -8 3 -29 -9 -48 -26 -21 -20 -26 -30 -14 -26 13 5 17
2 12 -9 -5 -14 -2 -14 24 0 16 8 36 25 44 36 14 21 16 21 41 5 38 -25 41 -13
5 22 -16 17 -30 35 -30 41 0 19 20 22 36 6 12 -12 20 -13 27 -6 17 17 31 13
17 -4 -20 -24 -10 -24 55 -4 74 23 103 24 155 3 46 -19 58 -55 17 -52 -20 2
-127 -56 -127 -68 0 -3 27 10 60 27 59 31 84 33 62 6 -6 -7 -11 -22 -12 -32
-1 -56 -5 -66 -27 -71 -13 -4 -23 -11 -23 -16 0 -6 7 -7 16 -4 8 3 12 2 9 -4
-3 -6 -13 -10 -21 -10 -7 0 -35 -16 -60 -35 -25 -20 -55 -40 -66 -46 -17 -9
-18 -8 -9 8 14 25 81 95 111 115 14 9 19 17 12 17 -18 1 -98 -75 -124 -118
-12 -20 -23 -38 -24 -40 -2 -2 -20 11 -40 28 -21 17 -40 29 -42 26 -3 -2 9
-15 25 -29 16 -13 35 -36 42 -50 18 -33 35 -34 27 -1 -5 20 -3 25 13 25 11 0
42 18 70 40 28 22 52 40 55 40 2 0 6 -10 9 -21 5 -18 11 -20 33 -15 24 6 84
-9 84 -21 0 -14 -41 -44 -52 -38 -7 3 -5 0 5 -8 23 -19 22 -27 -8 -67 -28 -38
-32 -60 -10 -60 17 0 55 -35 55 -50 0 -5 -7 -10 -15 -10 -8 0 -20 -10 -26 -22
-12 -22 -11 -22 8 -5 11 9 22 17 24 17 13 0 -72 -158 -87 -164 -28 -11 -26 -2
7 60 19 35 26 53 16 45 -10 -8 -17 -9 -17 -3 0 6 5 14 10 17 6 3 10 12 10 18
-1 7 -14 -4 -30 -23 -19 -21 -28 -41 -24 -52 3 -10 1 -18 -5 -18 -5 0 -19 -15
-30 -33 -11 -19 -32 -39 -46 -45 -14 -6 -25 -17 -25 -24 0 -9 3 -9 12 0 18 18
32 14 17 -5 -12 -15 -12 -16 2 -11 20 8 39 -9 32 -28 -7 -19 -20 -18 -50 6
-24 19 -28 19 -50 4 -28 -17 -42 -14 -19 5 8 7 12 19 9 27 -3 9 2 14 17 14 12
0 18 4 15 10 -4 6 8 28 25 50 37 47 27 54 -15 10 -16 -16 -33 -30 -39 -30 -5
0 6 17 26 38 40 41 74 101 83 147 5 30 5 30 -6 5 -7 -14 -19 -40 -27 -57 -15
-36 -19 -38 -42 -23 -13 8 -13 15 2 57 l17 48 -34 -39 c-19 -21 -32 -43 -29
-47 3 -5 -17 -32 -44 -61 -40 -42 -52 -49 -63 -39 -8 6 -29 23 -48 36 -19 14
-30 25 -25 25 6 0 29 16 52 36 23 19 42 31 42 25 0 -6 4 -11 10 -11 11 0 50
40 50 52 0 10 -134 -57 -161 -79 -16 -14 -49 -8 -49 8 0 5 -9 9 -19 9 -29 0
-35 17 -11 32 11 7 20 18 20 25 0 7 6 16 13 20 6 4 18 16 26 26 12 16 12 17
-5 10 -10 -3 -28 -13 -40 -20 -18 -12 -23 -11 -35 3 -11 13 -11 15 2 13 7 -2
35 17 61 41 40 38 44 47 32 58 -8 7 -15 10 -15 7 -1 -3 -3 -9 -4 -15 -1 -5 -3
-14 -4 -20 0 -5 -6 -10 -12 -10 -8 0 -8 5 1 15 17 21 13 20 -63 -20 -37 -19
-72 -35 -79 -35 -31 0 83 87 173 132 39 20 100 78 81 78 -6 0 -22 -11 -36 -25
-14 -14 -32 -25 -39 -25 -8 0 -18 11 -21 25 -4 14 -13 25 -21 25 -29 0 -225
-155 -225 -178 0 -5 -7 -16 -17 -23 -13 -11 -17 -11 -20 -1 -3 6 -10 12 -16
12 -6 0 -19 8 -29 17 -18 16 -18 17 9 45 15 15 32 28 39 28 6 0 14 6 17 14 3
7 19 18 37 24 l31 11 -21 -29 c-23 -32 -36 -39 -26 -15 8 22 3 19 -34 -22 -19
-20 -27 -34 -18 -30 10 3 19 0 22 -8 3 -9 0 -12 -10 -8 -10 4 -12 0 -8 -11 8
-22 21 -20 35 6 15 28 28 44 58 71 14 12 43 39 66 59 23 20 54 42 71 49 l29
12 -28 11 c-16 6 -26 15 -23 23 10 24 -6 13 -50 -34 -36 -38 -46 -44 -58 -34
-8 7 -20 10 -25 7 -20 -13 -23 17 -4 42 41 56 43 76 2 29 -33 -38 -44 -45 -55
-36 -8 6 -14 17 -14 24 0 8 -6 15 -12 18 -10 3 -9 13 5 42 25 52 15 55 -19 6
-16 -22 -32 -41 -36 -41 -14 0 -9 31 7 46 17 17 20 44 6 44 -5 0 -23 -18 -41
-40 -32 -41 -60 -45 -60 -9 0 11 -7 22 -15 25 -22 9 -18 37 11 90 14 25 21 43
14 39 -7 -4 -18 -21 -25 -39 -13 -29 -13 -27 -13 44 0 84 -14 148 -43 199 -11
18 -18 35 -16 38 6 6 43 -59 56 -98 6 -19 15 -47 20 -64 9 -28 9 -26 10 21 1
57 -47 170 -77 181 -22 9 -147 108 -164 131 -19 26 -146 54 -259 58 -55 2
-108 6 -119 9 -19 6 -19 0 -15 -256 2 -185 0 -269 -8 -287 -9 -20 -9 -26 1
-30 14 -4 18 -122 4 -122 -5 0 -16 -16 -25 -35 -19 -40 -53 -49 -44 -12 3 12
8 32 11 45 7 31 -1 28 -20 -9 -8 -17 -14 -40 -11 -50 3 -11 1 -16 -4 -13 -6 3
-16 1 -24 -6 -9 -8 -15 -8 -20 0 -3 6 -11 8 -16 4 -6 -3 -22 -3 -36 0 -21 6
-24 11 -19 31 4 14 2 25 -4 25 -5 0 -10 -8 -11 -17 0 -14 -3 -13 -11 5 -14 28
-24 28 -31 1 -4 -15 -11 -20 -21 -16 -9 4 -16 2 -16 -4 0 -6 -7 -8 -16 -5 -10
4 -22 -1 -30 -11 -13 -17 -14 -17 -20 5 -8 29 -18 28 -32 -3 -13 -29 -21 -31
-48 -10 -19 14 -19 15 4 55 30 54 22 63 -12 13 -34 -49 -33 -67 4 -95 17 -12
30 -28 30 -36 0 -7 -19 -32 -41 -54 -35 -35 -44 -40 -60 -30 -25 16 -29 15
-29 -8 0 -15 7 -20 25 -20 28 0 32 -12 11 -29 -15 -13 -42 -6 -68 17 -16 13
-16 17 -3 35 17 24 21 72 5 62 -5 -3 -12 -21 -16 -40 -4 -22 -12 -35 -21 -35
-15 0 -15 7 2 67 3 10 -2 3 -10 -14 -8 -18 -17 -33 -20 -33 -3 0 -17 11 -30
25 -27 26 -31 46 -15 76 15 27 4 24 -15 -5 -15 -23 -15 -28 10 -76 14 -28 34
-54 43 -57 9 -4 35 -19 56 -35 21 -15 48 -28 59 -28 21 0 174 157 169 173 -2
5 4 7 12 4 9 -4 22 3 30 15 9 12 19 19 23 15 3 -4 -9 -24 -28 -44 -19 -21 -26
-31 -16 -24 34 26 27 4 -12 -38 -21 -23 -41 -37 -43 -31 -1 5 -30 -15 -63 -46
-33 -31 -73 -64 -90 -75 -16 -10 -24 -19 -17 -19 7 0 10 -5 7 -10 -4 -6 -11
-8 -16 -4 -13 8 -207 -202 -196 -212 7 -8 34 19 77 76 50 65 103 118 116 113
6 -2 31 19 54 47 23 28 47 50 54 49 15 -3 48 11 69 30 18 15 18 14 12 -22 -9
-48 9 -50 26 -2 7 19 15 35 19 35 3 0 12 -17 20 -37 l15 -36 40 37 c56 51 81
46 122 -22 33 -56 47 -65 49 -32 1 23 -60 110 -78 110 -5 0 -7 7 -4 16 4 10
-1 25 -10 36 -10 10 -15 20 -12 23 8 8 140 -124 134 -134 -4 -5 -2 -12 3 -15
5 -3 14 6 19 22 5 15 14 36 18 47 7 18 6 18 -9 6 -9 -7 -14 -17 -11 -22 3 -5
1 -9 -4 -9 -6 0 -8 23 -5 54 3 37 0 63 -11 84 -22 43 -20 49 15 57 18 4 35 16
41 31 6 13 15 24 20 24 13 0 9 -27 -7 -44 -8 -8 -15 -19 -15 -25 0 -15 17 -14
22 1 3 7 5 -18 6 -55 2 -55 -2 -74 -23 -112 -29 -52 -27 -61 3 -13 l20 32 6
-45 c2 -24 4 -57 3 -74 l-2 -30 65 0 c150 1 258 29 322 83 49 44 103 82 113
82 4 0 4 -12 1 -27 -5 -23 -4 -25 5 -10 6 10 8 25 5 32 -5 15 50 135 68 147 6
4 11 13 11 20 2 31 18 89 27 94 5 4 14 2 19 -3 6 -6 0 -28 -16 -60 -14 -28
-25 -58 -25 -67 0 -9 -6 -16 -12 -17 -7 0 -8 -2 -3 -5 12 -5 7 -94 -5 -94 -12
0 -20 28 -14 48 5 14 4 15 -5 2 -6 -8 -11 -21 -11 -28 0 -21 27 -43 44 -36 19
7 21 -20 6 -61 -15 -39 9 -27 33 16 10 19 32 48 49 64 l31 30 -21 -29 c-12
-16 -22 -34 -22 -40 0 -6 7 0 16 12 20 29 30 28 60 -5 22 -23 34 -27 92 -29
37 -1 80 -9 97 -18 17 -9 35 -16 42 -16 23 0 24 -20 4 -46 -29 -36 -27 -42 14
-41 27 1 44 -7 73 -34 20 -20 49 -43 64 -52 25 -15 26 -20 17 -45 -6 -15 -29
-49 -51 -77 l-41 -50 39 38 c22 20 44 37 49 37 13 0 65 -55 65 -69 0 -6 5 -11
10 -11 16 0 12 -30 -5 -36 -12 -5 -13 -10 -4 -20 15 -18 -36 -65 -108 -101
-29 -14 -53 -32 -53 -39 0 -18 4 -18 42 2 33 17 84 11 72 -8 -6 -9 -9 -9 -12
0 -4 14 -52 -14 -52 -31 0 -5 8 -3 18 5 25 23 90 16 138 -14 53 -34 244 -221
244 -240 0 -8 13 -27 30 -43 41 -39 127 -219 162 -340 48 -166 71 -293 49
-270 -5 6 -16 44 -24 85 -16 74 -35 136 -36 113 -1 -6 15 -92 34 -190 41 -210
44 -305 15 -473 -47 -267 -59 -310 -89 -310 -14 0 -14 -2 -1 -10 12 -7 12 -12
2 -22 -6 -6 -12 -21 -12 -32 0 -10 -3 -16 -7 -13 -3 4 -24 -27 -45 -70 -60
-119 -196 -276 -253 -291 -16 -5 -31 -14 -33 -22 -3 -9 1 -11 14 -6 14 5 12 0
-8 -20 -28 -29 -51 -27 -27 2 7 9 -8 2 -34 -15 -25 -18 -49 -36 -52 -40 -7
-13 -118 -56 -230 -90 -101 -30 -189 -48 -365 -73 -108 -15 -546 -18 -865 -5
-261 10 -404 11 -412 3 -3 -3 17 -6 46 -6 29 0 50 -4 47 -9 -3 -5 -70 -9 -148
-11 -79 -1 -154 -2 -167 -3 l-24 -2 4 230 c2 127 4 454 4 728 0 273 3 497 7
497 5 0 9 -24 9 -52 1 -29 3 -71 3 -93 1 -22 3 -76 4 -119 1 -44 5 -76 8 -73
8 8 7 189 -2 285 -4 51 -10 72 -20 72 -16 0 -18 19 -4 54 6 16 6 27 0 31 -12
7 -13 45 -2 45 4 0 5 114 4 252 l-4 253 26 2 c58 6 66 8 66 20 0 7 7 13 15 13
8 0 15 -5 15 -11 0 -7 7 -17 17 -24 22 -16 10 -32 -37 -46 -22 -7 -40 -16 -40
-21 0 -10 30 -3 70 17 14 7 30 10 36 8 6 -2 16 3 23 11 10 12 6 20 -20 45 -31
30 -32 32 -13 46 10 8 26 15 34 15 12 0 12 3 -2 16 -14 15 -20 14 -63 -5 -26
-12 -56 -21 -66 -21 -10 0 -21 -4 -24 -10 -3 -5 -13 -10 -21 -10 -11 0 -14 21
-14 110 0 67 4 110 10 110 16 0 64 51 80 85 23 49 32 58 41 44 4 -8 -2 -25
-17 -42 -23 -28 -32 -57 -16 -57 4 0 15 14 24 31 10 17 23 27 28 24 7 -4 4
-19 -9 -41 -11 -19 -19 -34 -17 -34 2 0 22 11 45 23 41 24 41 24 21 42 -11 10
-20 30 -20 45 0 14 -4 30 -10 36 -10 10 23 93 43 106 8 5 7 8 -5 8 -9 0 -19 6
-22 13 -2 6 -4 1 -3 -13 1 -16 -3 -25 -13 -26 -8 -1 -20 -2 -25 -3 -6 0 -16
-10 -23 -22 -10 -16 -10 -24 -1 -35 9 -11 8 -14 -7 -15 -11 -1 -26 -1 -34 0
-12 1 -12 0 -2 -7 10 -7 10 -11 -2 -22 -13 -10 -17 -9 -23 5 -4 12 1 24 15 36
12 9 22 21 22 27 0 5 31 42 69 83 93 100 125 139 114 139 -5 0 -44 -36 -86
-80 -42 -44 -77 -77 -77 -73 0 3 7 15 17 25 9 10 13 21 10 24 -3 4 -19 -14
-34 -39 -27 -45 -53 -61 -53 -33 0 7 7 19 15 26 8 7 15 17 15 23 0 6 -16 -5
-36 -24 l-37 -34 7 27 c3 15 41 62 85 105 76 76 111 123 93 123 -5 0 -32 -26
-59 -57 -123 -141 -157 -168 -118 -93 24 47 114 150 131 150 8 0 12 5 9 10
-14 22 -35 6 -86 -65 -29 -41 -57 -75 -62 -75 -10 0 0 37 19 67 17 27 18 41 2
25 -7 -7 -14 -12 -18 -12 -11 0 -10 143 1 156 9 11 9 14 0 14 -9 0 -11 37 -9
137 l3 136 30 18 c18 10 41 15 58 12 37 -7 35 12 -3 26 -42 14 -52 47 -28 90
37 65 72 76 132 41 l34 -21 44 33 c23 18 65 59 91 91 27 32 58 62 70 67 21 8
21 9 1 9 -28 1 -80 -39 -117 -91 -38 -52 -47 -59 -69 -52 -10 3 -18 1 -18 -5
0 -14 -27 -14 -35 0 -10 16 36 60 56 54 20 -7 119 83 119 109 0 28 -18 17 -30
-19 -6 -19 -16 -33 -21 -30 -5 3 -19 -3 -31 -14 -28 -27 -34 -26 -33 2 0 12
13 35 28 51 15 16 27 33 27 39 0 12 -35 -15 -67 -52 -23 -26 -45 -23 -23 4 8
9 8 15 2 15 -6 0 -13 -4 -17 -9 -3 -6 -13 -10 -23 -10 -9 0 -30 -3 -47 -7
l-30 -7 33 35 c44 46 41 57 -4 14 -20 -20 -41 -33 -47 -29 -6 3 13 28 43 56
48 44 52 51 37 62 -21 15 -22 45 -2 45 9 0 12 -6 9 -15 -4 -10 0 -15 11 -15
11 0 15 6 10 19 -7 23 19 35 45 21 10 -6 21 -10 24 -10 11 0 6 24 -9 40 -8 9
-16 31 -17 49 -3 32 -1 35 47 52 72 25 119 24 138 -3 13 -19 18 -20 26 -9 5 8
20 15 33 16 19 1 23 7 23 34 0 55 62 70 109 26 28 -26 42 -33 31 -15 -10 17
23 60 45 60 11 0 20 7 20 15 0 21 -24 19 -45 -5 -19 -21 -60 -27 -70 -10 -12
20 -73 11 -92 -13 -10 -12 -33 -33 -52 -46 -27 -20 -37 -22 -52 -13 -26 17
-45 15 -119 -12 l-65 -24 0 -58 0 -59 -45 -5 c-34 -4 -44 -9 -41 -20 2 -8 4
-24 4 -35 1 -11 6 -23 11 -27 7 -5 5 -8 -5 -8 -19 0 -89 -74 -89 -93 0 -6 16
-22 34 -34 29 -19 39 -20 71 -12 30 9 41 8 52 -4 13 -13 11 -19 -17 -46 -18
-17 -37 -31 -42 -31 -25 0 -116 -53 -125 -72 -9 -22 -4 -62 12 -100 5 -14 2
-18 -14 -18 l-21 0 0 536 c0 295 -5 624 -11 730 -9 155 -9 197 2 210 6 8 18
13 25 10 7 -3 30 -8 51 -11z m1147 -850 c127 -39 243 -176 261 -310 14 -104 9
-191 -13 -214 -12 -12 -11 -16 2 -23 18 -10 22 -73 6 -110 -25 -60 -51 -71
-206 -87 -65 -7 -91 -14 -108 -30 -30 -29 -46 -26 -46 7 0 15 -2 96 -5 180 -3
84 -6 244 -7 355 -1 119 -5 205 -11 208 -6 4 -7 14 -4 23 8 21 65 21 131 1z
m1187 -1299 c83 -83 155 -180 212 -286 48 -91 101 -220 89 -220 -4 1 -35 58
-70 128 -34 70 -81 152 -105 183 -23 31 -51 69 -62 84 -11 15 -45 51 -75 81
-45 44 -51 54 -34 54 12 0 32 -11 45 -24z"/>
<path d="M9590 7274 c-19 -7 -49 -13 -66 -13 -43 -1 -114 -58 -153 -122 -30
-48 -33 -50 -50 -35 -24 22 -35 20 -74 -13 -23 -21 -37 -27 -48 -20 -33 21
-109 3 -109 -26 0 -8 -13 -21 -30 -30 -16 -9 -30 -23 -30 -33 0 -27 29 -62 51
-62 10 0 19 -3 19 -6 0 -10 -23 -49 -33 -55 -14 -9 1 -61 16 -56 7 2 16 21 20
43 5 21 17 56 28 76 25 49 24 56 -5 29 l-25 -23 -22 20 c-26 25 -20 48 19 65
18 8 26 18 24 30 -3 13 4 17 31 17 19 0 40 -7 47 -15 17 -21 52 -20 48 2 -2
10 8 21 29 29 27 12 34 11 47 -1 8 -8 18 -15 22 -15 10 0 33 31 50 68 8 17 18
32 23 32 5 0 11 9 14 20 4 15 14 20 36 20 22 0 29 4 25 14 -4 10 12 17 61 26
36 7 68 16 71 21 9 15 62 10 79 -7 22 -22 28 -13 9 14 -18 25 -67 28 -124 6z"/>
<path d="M9609 5646 c-24 -47 -46 -86 -51 -86 -14 0 -9 59 7 90 9 17 13 30 11
30 -5 0 -38 -57 -41 -70 -9 -31 -17 -37 -41 -26 -13 6 -24 14 -24 19 0 4 -6 7
-13 7 -7 0 -18 5 -25 12 -6 6 -26 13 -44 14 -31 4 -29 1 30 -36 75 -49 78 -65
22 -122 -38 -39 -41 -40 -85 -34 -40 7 -45 5 -45 -12 0 -21 -27 -49 -37 -38
-4 3 3 24 15 45 12 21 22 49 22 62 0 21 -2 20 -26 -12 -14 -19 -31 -45 -36
-59 -9 -20 -12 -22 -15 -8 -5 19 22 83 45 111 8 9 11 17 6 17 -5 0 -15 -9 -22
-20 -7 -12 -18 -19 -25 -18 -7 2 -13 -1 -14 -5 -2 -4 -9 -20 -16 -35 -8 -15
-12 -32 -10 -38 4 -11 -45 -29 -54 -20 -3 2 1 14 7 26 11 20 10 21 -12 15 -12
-4 -31 -18 -41 -31 -23 -29 -31 -30 -68 -3 -34 24 -37 18 -8 -22 14 -21 19
-38 15 -55 -8 -31 -55 -77 -72 -70 -6 2 -15 1 -20 -4 -5 -4 -26 -11 -48 -14
-36 -7 -38 -6 -33 13 7 28 0 26 -34 -10 -21 -22 -34 -29 -49 -24 -11 4 -20 2
-20 -4 0 -6 1 -11 3 -12 1 0 39 -2 85 -5 65 -4 89 -2 107 10 14 9 29 16 36 16
16 0 61 38 73 62 6 12 16 23 22 25 20 6 23 -24 6 -43 -9 -11 -30 -38 -45 -61
-18 -26 -34 -40 -43 -36 -9 3 -12 0 -9 -9 7 -18 -20 -42 -36 -32 -7 4 -9 3 -5
-4 10 -16 -15 -27 -25 -11 -7 11 -9 9 -7 -6 3 -43 -3 -54 -38 -65 -44 -15
-101 -5 -117 20 -15 25 -37 26 -37 1 0 -11 13 -25 33 -34 44 -21 120 -38 127
-28 14 22 49 31 74 19 35 -15 33 -28 -4 -28 -17 0 -42 -8 -56 -17 -22 -14 -27
-14 -35 -2 -7 11 -11 10 -23 -7 -8 -11 -36 -43 -62 -70 -25 -27 -58 -65 -72
-84 -65 -86 -164 -185 -188 -187 -28 -2 -28 -2 -10 42 10 22 11 35 4 37 -6 2
3 19 20 38 17 18 30 37 29 41 -1 4 25 35 58 70 75 79 129 148 122 155 -3 3
-15 -8 -28 -25 -13 -17 -26 -27 -29 -21 -4 6 -38 -22 -76 -61 -38 -40 -80 -75
-94 -79 -14 -3 -25 -13 -25 -21 -1 -40 -39 -53 -51 -17 -4 15 -1 25 12 35 21
16 1 18 -27 3 -33 -18 -25 -64 17 -98 34 -28 36 -32 26 -62 -9 -25 -9 -32 3
-37 8 -3 15 -11 15 -18 0 -26 24 -35 63 -21 21 7 43 18 49 24 7 7 22 12 33 12
12 0 44 16 71 35 27 19 57 35 68 35 10 0 34 -14 53 -31 27 -23 38 -28 47 -19
8 9 8 14 -1 17 -18 6 -16 28 2 43 12 10 15 10 15 -1 0 -8 5 -6 12 6 12 21 47
50 61 50 4 0 16 14 27 30 11 17 20 26 20 21 0 -6 16 5 35 24 19 19 35 30 35
24 0 -18 -118 -125 -123 -112 -3 9 -7 6 -12 -7 -4 -11 -19 -32 -33 -47 -29
-32 -23 -36 14 -11 22 14 27 14 35 2 13 -21 11 -27 -12 -34 -11 -4 -18 -12
-16 -18 7 -21 27 -18 52 8 22 21 33 24 60 19 20 -3 35 -1 40 5 3 6 28 23 55
36 27 14 60 37 74 52 19 20 29 24 37 16 7 -7 10 -106 8 -324 -2 -173 -3 -354
-2 -404 1 -49 3 -180 5 -290 l3 -200 33 -3 c37 -4 38 -8 15 -42 -63 -93 -194
-213 -211 -195 -4 4 -1 10 6 12 7 3 22 24 33 46 12 23 37 64 56 91 54 76 20
44 -46 -44 -54 -73 -60 -77 -65 -54 -4 13 -16 39 -27 57 l-20 32 6 -34 c4 -18
16 -53 27 -77 l19 -44 -28 -25 c-15 -13 -50 -32 -78 -41 -27 -10 -44 -19 -38
-21 32 -11 231 87 282 138 109 109 175 224 187 328 3 25 13 93 23 151 21 119
26 354 11 470 -5 41 -12 93 -14 115 -9 72 -53 231 -79 282 -34 66 -99 132
-188 190 -83 53 -149 110 -149 127 0 7 -9 22 -21 35 -31 33 -18 35 22 2 19
-15 65 -47 104 -71 98 -60 154 -105 198 -157 42 -52 50 -42 11 16 -14 21 -26
48 -27 59 0 11 -4 19 -8 16 -7 -4 -109 44 -109 51 0 6 93 96 95 93 14 -17 37
-78 45 -116 5 -26 21 -74 36 -107 38 -81 44 -44 10 58 -14 41 -37 120 -51 176
-25 101 -37 122 -106 190 -9 9 -20 27 -24 41 -5 20 4 14 42 -28 78 -85 106
-120 121 -152 8 -17 18 -30 23 -30 14 0 5 32 -19 72 -21 34 -22 40 -9 64 l14
26 11 -31 c7 -17 17 -44 23 -60 5 -15 9 -41 7 -57 -2 -20 1 -29 12 -29 10 0
16 -13 18 -40 2 -22 7 -45 12 -50 5 -6 6 -22 3 -35 -4 -15 -2 -21 4 -17 15 9
26 -24 13 -37 -7 -7 -10 -5 -10 6 0 17 -27 44 -36 36 -5 -6 40 -93 62 -119 8
-9 12 -19 9 -22 -3 -4 -2 -5 2 -2 3 3 20 -19 37 -48 26 -44 31 -49 34 -29 3
19 -36 92 -81 150 -6 8 -6 12 1 12 6 0 13 -8 16 -17 10 -29 54 -75 61 -63 3 6
11 8 16 5 5 -4 16 -2 24 2 12 7 9 15 -20 43 -19 19 -35 38 -35 44 0 5 3 6 6 3
19 -18 164 246 178 323 4 19 13 43 21 53 12 17 14 15 20 -27 4 -25 4 -58 1
-73 -7 -27 -6 -27 26 10 25 28 36 35 48 27 13 -9 13 -11 0 -19 -8 -6 -11 -13
-7 -17 4 -4 17 2 30 14 17 16 26 18 37 11 13 -9 13 -10 -1 -6 -10 3 -26 -5
-40 -19 -12 -13 -27 -24 -33 -24 -40 -2 -175 -319 -191 -448 -6 -59 -14 -82
-25 -82 -4 0 -1 23 6 52 17 66 17 95 -1 47 -28 -76 -46 -319 -23 -319 4 0 8
11 8 24 0 14 5 28 10 31 6 3 10 11 10 16 0 6 -4 7 -10 4 -5 -3 -10 1 -10 10 0
11 5 15 16 11 11 -4 14 -1 9 13 -3 10 -1 30 4 45 7 16 7 26 1 26 -5 0 -7 7 -4
15 4 8 10 15 14 15 7 0 7 -24 -1 -78 -4 -22 3 -24 17 -4 8 12 31 29 49 36 46
20 115 85 197 188 39 48 74 85 79 82 5 -3 18 0 30 6 11 7 23 9 26 6 8 -7 -88
-106 -103 -106 -8 0 -14 -5 -14 -11 0 -6 -26 -37 -57 -70 -31 -32 -76 -85
-100 -116 -24 -32 -48 -57 -55 -55 -8 2 -8 -1 1 -11 9 -12 9 -15 -4 -13 -15 1
-33 -25 -67 -97 -5 -10 -6 -22 -3 -27 3 -5 1 -11 -5 -15 -5 -3 -11 -3 -11 2
-6 35 -5 59 1 63 4 3 10 23 13 45 6 34 5 36 -4 15 -6 -14 -10 -27 -10 -30 0
-3 -7 -12 -14 -20 -8 -8 -14 -33 -13 -55 0 -22 -3 -85 -6 -140 -3 -55 -6 -113
-5 -130 1 -16 3 -73 5 -125 2 -52 5 -110 7 -127 2 -18 4 -42 5 -53 1 -11 7
-20 13 -20 6 0 8 9 4 20 -3 11 -2 28 4 37 8 14 10 6 11 -35 0 -33 -4 -51 -10
-47 -5 3 -10 -1 -10 -9 0 -8 5 -18 10 -21 6 -3 10 -26 10 -51 0 -51 82 -308
107 -336 9 -10 21 -18 27 -18 7 0 19 -9 29 -20 18 -21 30 -23 62 -11 23 9 81
-7 149 -42 26 -14 55 -23 62 -20 23 8 16 22 -8 15 -14 -3 -19 -2 -14 6 4 7 2
12 -4 12 -16 0 -88 50 -94 66 -3 8 26 -3 70 -26 71 -38 120 -51 112 -31 -1 5
-23 24 -48 43 -46 34 -64 68 -37 68 8 0 14 -8 13 -17 -1 -15 7 -18 44 -17 25
1 37 -1 28 -3 -40 -10 -13 -21 65 -28 80 -7 144 -18 183 -31 17 -6 17 -5 4 9
-8 9 -25 18 -37 20 -35 5 -37 14 -5 21 15 4 40 2 54 -3 31 -12 113 -2 100 11
-10 10 -151 12 -209 4 -41 -6 -43 8 -3 24 17 7 30 16 30 21 0 5 -25 -3 -55
-18 -61 -30 -80 -25 -45 12 30 32 11 32 -36 0 -48 -32 -62 -22 -28 22 33 44
25 55 -12 14 -34 -38 -40 -39 -47 -1 -4 17 -11 30 -16 30 -14 0 -22 -30 -8
-31 7 -1 -10 -7 -38 -14 -56 -13 -82 -7 -130 29 -51 40 -161 289 -114 260 15
-9 122 104 149 157 38 74 60 150 71 249 14 114 14 91 0 225 -13 124 -51 256
-87 298 -28 33 -30 43 -9 51 8 3 15 2 15 -3 0 -13 39 -21 46 -9 3 5 -3 12 -15
15 -27 7 -26 14 2 41 23 22 97 57 97 46 0 -4 7 -1 15 6 8 7 15 8 15 3 0 -5
-15 -17 -32 -27 -18 -9 -24 -14 -13 -11 18 5 18 3 -2 -14 -13 -11 -23 -21 -23
-24 0 -3 10 -3 23 1 20 5 21 4 7 -14 -14 -18 -14 -18 2 -5 10 7 15 17 12 22
-5 8 3 10 47 14 9 0 38 17 65 38 27 21 52 36 55 35 3 -2 13 3 22 11 11 8 17 9
17 2 0 -6 -11 -13 -25 -17 -14 -3 -25 -10 -25 -15 0 -5 -18 -21 -40 -35 -52
-35 -43 -45 13 -14 58 33 199 165 297 279 79 91 74 98 -11 14 -40 -40 -77 -73
-82 -73 -6 0 0 11 13 25 13 14 19 25 13 25 -5 0 -18 -9 -28 -20 -23 -25 -47
-27 -38 -2 6 16 5 16 -14 0 -26 -24 -36 -23 -28 3 6 18 5 19 -14 7 -12 -7 -21
-17 -21 -21 0 -15 -37 -57 -44 -49 -4 3 -4 -1 0 -11 3 -10 1 -17 -5 -17 -6 0
-11 -6 -11 -13 0 -15 -54 -17 -56 -2 -1 10 29 59 66 108 22 28 13 39 -10 12
-7 -8 -18 -15 -25 -15 -8 0 -27 -17 -44 -37 -17 -21 -31 -33 -31 -27 0 5 5 15
12 22 7 7 8 12 2 12 -6 0 -15 -5 -22 -12 -22 -22 -24 0 -2 30 38 51 18 54 -40
7 -29 -24 -56 -42 -59 -39 -3 3 1 9 9 14 8 6 12 10 8 10 -10 0 12 60 23 60 5
0 9 5 9 11 0 6 -9 8 -21 4 -23 -8 -21 1 10 40 15 19 15 19 -3 5 -11 -8 -32
-28 -48 -44 -16 -16 -32 -25 -36 -21 -4 3 2 13 13 20 25 17 32 25 48 48 7 10
20 19 30 21 9 1 30 15 47 31 24 23 38 28 72 27 53 -2 66 6 74 45 8 43 -28 67
-105 69 -74 1 -75 2 -61 19 10 12 10 15 -4 15 -19 0 -21 11 -3 29 6 7 -9 3
-35 -8 -27 -11 -48 -16 -48 -10 0 5 10 14 23 19 12 5 18 9 12 9 -5 1 6 14 25
31 26 22 29 28 13 22 -12 -4 -32 -16 -45 -28 -13 -11 -30 -19 -38 -16 -12 3
-13 2 -1 -6 10 -8 8 -13 -10 -26 -29 -20 -51 -21 -24 0 11 8 20 18 20 23 0 4
21 29 48 55 55 56 61 76 12 46 -22 -14 -42 -19 -56 -15 -19 6 -20 8 -4 25 17
18 16 19 -13 8 -17 -7 -34 -9 -37 -6 -8 8 17 57 44 85 12 12 21 28 21 35 0 6
-12 -2 -26 -20 -29 -35 -112 -87 -122 -77 -4 3 16 27 44 53 28 26 43 41 34 35
-26 -20 -35 -15 -15 7 10 11 16 23 12 26 -3 3 -21 -19 -40 -49 -34 -52 -57
-77 -57 -60 0 4 7 17 15 27 25 34 16 40 -12 9 -16 -16 -33 -28 -40 -26 -13 5
-9 18 28 100 26 57 50 123 44 123 -2 0 -24 -43 -50 -95 -25 -52 -51 -95 -58
-95 -8 0 -9 2 -1 8 7 4 8 15 3 27 -7 18 -8 18 -8 2 -1 -10 -5 -16 -10 -13 -5
3 -7 25 -5 49 4 39 3 40 -6 12 -6 -16 -8 -42 -6 -57 3 -16 1 -28 -4 -28 -6 0
-10 15 -10 34 0 19 -4 38 -10 41 -6 4 -10 -8 -10 -29 0 -35 -14 -49 -23 -23
-3 8 -9 6 -20 -8 -13 -16 -18 -18 -28 -7 -11 10 -9 23 6 70 11 31 28 74 38 95
10 22 16 41 13 44 -2 3 -24 -34 -47 -81z m589 -445 c12 -6 22 -16 22 -21 0
-15 -21 -23 -33 -11 -8 8 -7 11 3 11 7 0 11 2 8 5 -8 8 -121 -57 -167 -97 -24
-21 -48 -38 -54 -38 -15 0 63 66 126 107 31 20 57 40 57 45 0 11 -31 -2 -62
-26 -71 -57 -93 -71 -105 -70 -7 1 -10 -3 -7 -8 4 -6 1 -8 -7 -6 -8 3 -34 -9
-59 -27 -66 -47 -80 -51 -36 -11 43 40 37 49 -8 14 -74 -59 -73 -57 -52 -58
19 0 19 0 0 -22 -10 -12 7 -2 39 22 32 23 60 41 62 38 3 -3 -20 -28 -50 -56
-50 -47 -67 -73 -47 -72 12 1 39 24 40 35 0 5 6 11 13 14 7 2 9 -1 5 -8 -4 -6
-3 -11 2 -11 12 0 12 -32 -1 -47 -6 -9 -6 -13 1 -13 6 0 12 6 15 13 3 9 9 8
21 -3 15 -15 14 -20 -9 -65 -14 -28 -41 -67 -59 -88 l-34 -38 -36 34 c-26 26
-35 42 -34 66 1 17 5 34 10 37 4 3 6 9 3 14 -3 5 0 29 6 52 7 24 12 48 10 55
-1 6 3 14 9 18 5 3 10 15 10 26 0 39 70 99 182 154 114 56 164 64 216 36z
m-688 -91 c0 -17 4 -18 24 -10 18 7 29 5 44 -9 23 -19 40 -71 24 -71 -5 0 -12
-13 -15 -30 -8 -37 -41 -41 -81 -9 -28 22 -33 48 -15 81 9 18 8 19 -10 13 -17
-5 -21 -2 -21 18 0 28 7 37 32 37 11 0 18 -7 18 -20z m389 -556 c60 -102 97
-339 71 -450 -18 -75 -64 -114 -207 -177 -13 -6 -26 -7 -30 -3 -17 17 -7 405
11 434 3 5 15 38 25 71 20 65 78 160 98 161 6 0 21 -16 32 -36z"/>
<path d="M10505 4820 c-33 -32 -67 -59 -75 -60 -10 0 -11 -3 -3 -8 8 -5 8 -12
-3 -27 -12 -16 -17 -17 -23 -6 -6 10 -15 6 -38 -16 -16 -16 -28 -34 -25 -41 5
-15 -14 -16 -23 -1 -4 6 4 22 16 36 22 24 22 26 4 19 -16 -6 -14 -1 9 23 17
17 34 31 39 31 5 0 -1 -9 -14 -19 -13 -11 -21 -22 -17 -26 8 -8 98 62 98 76 0
13 -18 11 -24 -3 -5 -10 -7 -10 -12 -1 -3 7 -12 9 -21 6 -11 -4 -14 -3 -9 6 4
6 16 9 25 6 11 -3 24 2 32 11 11 14 11 18 1 21 -6 3 -9 9 -6 15 10 16 -30 -8
-46 -28 -8 -9 -39 -33 -70 -54 -58 -40 -110 -90 -93 -90 5 0 18 9 28 20 25 28
115 84 122 76 4 -3 2 -6 -3 -6 -5 0 -22 -12 -39 -26 -16 -14 -37 -31 -45 -38
-8 -6 -22 -20 -30 -31 -15 -19 -15 -19 12 -2 36 23 43 22 19 -4 -17 -18 -23
-19 -59 -9 -36 11 -42 10 -61 -9 -20 -20 -19 -51 1 -51 6 0 8 6 5 14 -6 16 22
31 34 19 4 -4 9 -17 11 -28 3 -19 -2 -20 -62 -17 -36 1 -66 7 -68 12 -4 12
-72 14 -72 3 0 -5 21 -20 46 -36 42 -25 48 -26 73 -14 24 12 31 12 46 0 11 -7
22 -13 27 -13 16 0 47 40 42 54 -11 28 6 37 38 20 17 -9 40 -13 51 -10 12 3
32 -3 48 -15 51 -36 110 -19 134 38 9 21 31 54 49 73 43 45 56 71 49 98 -7 27
-23 29 -23 4 0 -10 -14 -31 -31 -48 -17 -16 -35 -39 -40 -51 -5 -13 -13 -23
-19 -23 -8 0 -8 6 0 20 9 16 8 19 -6 13 -10 -4 1 17 25 47 24 31 40 59 36 68
-3 8 0 21 6 28 6 8 8 14 3 14 -5 0 -36 -27 -69 -60z"/>
<path d="M9551 3680 c-1 -73 -19 -168 -47 -250 -21 -62 -44 -94 -44 -63 -1 17
-1 17 -15 -1 -8 -11 -26 -32 -40 -48 -31 -34 -24 -59 9 -31 43 38 56 46 56 34
0 -6 -28 -38 -62 -71 -75 -73 -55 -82 32 -15 33 25 63 44 67 43 12 -3 87 24
94 34 3 4 25 -3 50 -17 130 -74 199 -100 199 -75 0 10 -2 11 -36 15 -12 1 -43
17 -70 36 -27 19 -58 36 -69 39 -12 4 -23 19 -28 43 -10 41 -22 48 -30 17 -6
-23 -27 -27 -27 -5 0 8 -4 15 -10 15 -5 0 -10 -8 -10 -17 0 -9 -2 -14 -5 -12
-2 3 0 68 5 145 7 108 6 151 -5 194 l-13 55 -1 -65z"/>
<path d="M6324 3113 c-12 -2 -36 -25 -54 -51 -18 -26 -46 -61 -62 -78 -16 -17
-28 -35 -26 -40 2 -5 0 -10 -4 -11 -5 -2 -17 -12 -28 -23 -26 -26 -25 -30 6
-30 19 0 25 4 20 15 -3 8 -1 15 4 15 6 0 10 -4 10 -9 0 -11 31 -24 39 -16 3 3
-1 10 -9 15 -11 7 -8 10 13 10 15 0 27 -4 27 -10 0 -5 7 -10 16 -10 8 0 12 -5
9 -11 -4 -5 -17 -9 -28 -8 -32 4 -87 -11 -87 -23 0 -6 16 -8 43 -4 40 6 176
18 225 20 12 1 20 6 18 11 -2 6 -9 9 -16 7 -12 -3 -118 -5 -132 -3 -14 2 26
41 42 41 8 0 22 5 30 11 11 7 -12 8 -77 4 -63 -5 -93 -4 -93 3 0 6 3 13 8 15
10 6 364 21 425 18 32 -1 47 1 42 8 -4 7 -54 11 -128 11 -91 1 -117 3 -104 11
10 6 29 8 42 5 13 -3 26 -2 29 2 3 5 40 7 82 4 56 -3 75 -2 70 7 -10 16 -171
14 -290 -4 -117 -18 -139 -18 -131 -5 3 6 17 10 31 10 13 0 24 3 24 8 0 4 42
8 94 10 52 2 127 9 168 16 l73 12 -45 6 c-25 3 -73 4 -107 3 -91 -4 -77 12 17
21 45 3 79 8 77 11 -6 5 -236 10 -263 6z"/>
<path d="M16004 2939 c-4 -7 -36 -10 -85 -8 -43 2 -81 0 -85 -4 -4 -4 6 -7 22
-7 79 -1 210 -13 219 -21 5 -5 -20 -9 -60 -9 -116 0 -130 -31 -23 -48 79 -13
271 -14 304 -2 17 7 23 7 19 0 -4 -6 30 -10 95 -10 90 0 100 2 86 15 -17 18
-150 30 -139 12 4 -7 0 -8 -13 -3 -39 16 -54 18 -54 7 0 -9 -18 -10 -62 -5
-35 3 -78 7 -96 8 -17 1 -32 5 -32 9 0 4 0 12 0 17 0 6 13 10 29 10 17 0 33 5
37 11 4 8 -1 9 -15 4 -16 -5 -26 -1 -36 12 -10 14 -16 15 -25 6 -9 -8 -20 -8
-46 3 -23 10 -35 11 -40 3z"/>
<path d="M12489 2866 c-2 -2 -42 -6 -88 -10 -81 -6 -118 -15 -73 -17 34 -2 40
-4 48 -11 11 -12 326 -9 429 3 50 6 102 10 118 10 15 -1 27 3 27 8 0 12 -56
20 -72 10 -16 -10 -224 -9 -258 1 -14 4 -34 4 -45 0 -11 -4 -24 -5 -30 -2 -13
8 -50 13 -56 8z"/>
</g>
</svg>
