<?xml version="1.0" standalone="no"?>
<!DOCTYPE svg PUBLIC "-//W3C//DTD SVG 20010904//EN"
 "http://www.w3.org/TR/2001/REC-SVG-20010904/DTD/svg10.dtd">
<svg version="1.0" xmlns="http://www.w3.org/2000/svg"
 width="1928.000000pt" height="1074.000000pt" viewBox="0 0 1928.000000 1074.000000"
 preserveAspectRatio="xMidYMid meet">
<metadata>
Created by potrace 1.16, written by Peter Selinger 2001-2019
</metadata>
<g transform="translate(0.000000,1074.000000) scale(0.100000,-0.100000)"
fill="#000000" stroke="none">
<path d="M14555 8020 c5 -8 17 -27 27 -42 25 -37 23 -46 -14 -51 -33 -4 -33
-4 4 -5 l38 -2 -5 -42 c-9 -83 -17 -1197 -17 -2413 0 -769 -3 -1236 -9 -1247
-5 -10 -6 -18 -1 -18 5 0 10 -210 11 -490 1 -270 4 -497 7 -505 4 -8 4 -26 0
-38 -6 -26 -34 -30 -60 -8 -13 11 -16 11 -16 -2 0 -9 5 -19 10 -22 6 -3 10
-15 10 -26 0 -10 5 -19 11 -19 6 0 8 9 4 20 -4 13 -2 20 7 20 21 -1 51 -28 43
-40 -3 -6 -1 -9 6 -8 6 2 14 -3 17 -11 2 -8 1 -11 -4 -8 -5 3 -25 1 -44 -4
l-35 -8 33 3 c18 1 35 -1 38 -6 3 -4 0 -8 -5 -8 -6 0 -11 -4 -11 -10 0 -5 6
-10 14 -10 19 0 126 -98 126 -116 0 -8 8 -14 18 -14 18 0 31 -17 69 -91 18
-37 23 -64 24 -125 0 -81 17 -80 18 1 1 22 6 56 11 77 10 34 12 36 48 33 20
-2 93 -5 162 -6 69 -1 119 -3 113 -6 -31 -11 -9 -19 35 -12 26 4 106 8 178 8
72 1 134 4 138 8 7 8 95 11 356 13 74 1 108 4 95 10 -11 5 -45 9 -75 9 -60 1
-73 7 -83 34 -8 20 -27 14 -27 -9 0 -8 -10 -14 -22 -14 -17 0 -19 3 -10 12 7
7 12 42 12 85 0 52 4 73 13 73 6 0 85 -7 175 -15 109 -10 169 -12 180 -5 12 7
-8 9 -69 10 -54 0 -90 5 -98 13 -8 8 -44 12 -104 12 -89 0 -92 1 -95 24 -3 22
-1 23 36 16 21 -3 74 -7 116 -7 42 0 76 -5 76 -9 0 -5 -3 -8 -7 -8 -18 3 -36
-1 -30 -7 3 -4 77 -8 164 -9 87 -1 197 -6 245 -10 85 -7 87 -7 83 14 -5 27 11
27 27 1 7 -11 54 -56 105 -101 51 -45 93 -85 93 -90 0 -5 -27 -9 -60 -9 -33 0
-60 -4 -60 -10 0 -11 7 -12 95 -14 l59 -1 49 -98 c27 -54 52 -96 54 -93 2 2
-12 40 -32 84 -43 94 -43 121 1 77 16 -17 42 -46 56 -65 15 -19 30 -32 33 -29
3 4 -10 26 -30 49 -20 23 -34 45 -31 47 2 2 115 1 250 -3 l246 -7 0 -66 c0
-82 18 -71 22 14 3 58 4 60 28 57 15 -2 39 4 55 12 18 10 56 16 98 16 l67 0 0
-89 c0 -50 5 -93 10 -96 6 -4 10 27 10 85 0 72 3 92 15 96 8 4 60 7 115 8 61
0 99 5 97 11 -2 5 -21 8 -42 7 -21 -2 -68 -1 -106 3 l-68 7 5 66 c6 76 11 748
6 732 -7 -21 -22 -9 -22 18 0 21 2 24 10 12 7 -11 10 2 10 43 0 32 -4 56 -9
53 -16 -10 -20 65 -14 264 6 207 5 300 -4 365 -3 22 -7 240 -8 485 -2 245 -7
490 -10 545 l-7 100 -31 0 -32 0 2 85 c1 47 2 89 2 94 1 4 12 5 26 2 29 -7 32
1 8 20 -17 13 -17 13 0 14 13 0 17 9 18 38 1 20 2 42 4 47 1 6 3 26 5 45 2 19
7 -62 12 -180 5 -118 10 -255 13 -305 2 -49 4 -287 4 -528 1 -404 8 -513 25
-372 12 103 6 974 -7 1045 -7 36 -11 90 -9 120 1 30 2 179 3 331 0 257 -3 335
-17 401 -3 14 -1 29 4 32 14 9 18 206 13 750 -3 419 -2 478 11 474 8 -4 21 -2
29 3 12 7 12 9 -1 9 -9 0 -31 13 -50 30 -19 16 -76 65 -126 108 -122 106 -246
203 -252 198 -13 -14 30 -68 95 -121 41 -33 105 -85 141 -116 36 -32 71 -55
77 -53 7 3 17 -2 24 -10 11 -13 5 -14 -41 -11 -181 13 -330 14 -602 5 -340
-12 -317 -15 -368 54 -16 22 -66 73 -111 114 -45 41 -83 77 -85 81 -1 4 165 6
370 5 387 -3 502 5 474 34 -11 10 -690 6 -801 -4 -72 -8 -89 -12 -86 -24 2 -8
3 -22 3 -30 -28 -321 -26 -265 -22 -956 2 -226 0 -416 -4 -422 -3 -6 -2 -22 4
-37 6 -15 7 -32 3 -38 -4 -8 -10 -3 -15 13 -5 15 -6 0 -4 -40 5 -76 -1 -69
-45 56 -17 49 -51 136 -76 194 -24 58 -48 114 -53 125 -4 11 -18 54 -31 95
-12 41 -49 138 -82 215 -32 77 -88 214 -124 305 -35 91 -73 179 -83 197 -21
35 -17 47 11 32 11 -5 19 -7 19 -3 0 10 -33 33 -47 34 -13 0 -63 46 -63 59 0
4 -16 27 -37 50 -29 34 -33 45 -22 52 13 8 6 13 -13 10 -4 0 -24 20 -45 46
-21 25 -53 63 -71 82 l-32 36 6 -29 c10 -43 67 -132 129 -200 31 -33 69 -75
85 -93 l30 -32 -38 3 c-20 2 -218 5 -439 6 l-403 2 -35 41 c-20 22 -48 64 -64
92 -16 27 -43 66 -60 85 -17 19 -31 40 -31 45 0 7 42 8 123 3 209 -12 707 -14
704 -3 -5 16 -131 23 -527 30 l-365 6 -33 42 c-39 48 -49 58 -37 37z m2059
-445 c2 -22 1 -44 -2 -49 -3 -5 -6 -52 -8 -105 -1 -53 -3 -96 -4 -96 -4 0 0
-426 4 -434 3 -5 3 -95 -1 -200 -5 -150 -9 -191 -20 -191 -9 0 -13 15 -13 49
0 56 -16 79 -18 27 -1 -19 -4 -48 -7 -66 -5 -28 -3 -31 13 -26 34 11 44 -16
39 -101 -3 -43 -7 -89 -10 -103 -3 -14 -6 -27 -6 -30 -1 -3 -6 2 -11 10 -8 13
-10 12 -11 -5 -1 -11 0 -30 1 -42 1 -13 -3 -23 -9 -23 -10 0 -15 23 -25 110
-3 25 -8 54 -10 65 -2 11 -5 32 -5 48 -1 15 -6 27 -12 27 -13 0 -7 -67 8 -96
16 -28 0 -54 -17 -28 -10 17 -11 16 -5 -6 4 -14 9 -36 12 -50 l5 -25 -15 26
c-7 14 -17 43 -20 65 -12 70 -15 88 -21 131 -3 23 -9 49 -13 59 -4 12 -3 15 5
10 15 -9 16 54 2 103 -6 22 -6 39 0 46 5 7 7 15 4 18 -4 4 -8 17 -9 29 -1 13
-3 29 -4 36 0 6 -5 12 -10 12 -6 0 -11 -21 -13 -47 -2 -27 -6 -41 -10 -33 -3
8 -10 24 -14 35 -4 11 -8 184 -10 385 -1 201 -3 446 -4 545 -1 99 -1 184 -1
190 1 5 55 -44 121 -110 108 -108 121 -125 124 -160z m-1783 70 c30 -31 38
-60 17 -67 -7 -3 -8 -10 -4 -17 5 -7 8 -158 7 -334 -1 -177 -3 -980 -5 -1783
-3 -972 -7 -1468 -14 -1480 -6 -11 -7 -25 -1 -35 6 -12 4 -21 -6 -29 -16 -13
-20 -40 -7 -40 5 0 8 -29 8 -65 -1 -45 -5 -65 -13 -65 -9 0 -13 15 -13 43 0
47 -9 87 -19 87 -6 0 -15 -433 -10 -480 5 -39 -2 -153 -8 -146 -4 3 -8 57 -9
119 -3 153 -14 377 -20 407 -3 19 -2 22 6 10 8 -12 10 -11 10 8 0 12 -6 25
-14 28 -23 9 -17 66 8 87 20 17 20 18 1 15 -14 -2 -20 3 -21 17 -1 11 -2 37
-3 58 0 20 -5 37 -9 37 -4 0 -6 -68 -5 -151 3 -97 0 -149 -6 -145 -5 4 -9 14
-9 24 1 9 -2 48 -6 86 -6 56 -5 67 6 60 9 -6 9 -3 -2 10 -12 15 -15 56 -15
207 0 106 -4 189 -9 189 -5 0 1 8 12 19 24 20 29 47 10 53 -7 3 -9 11 -3 24
10 24 6 68 -6 72 -6 2 -5 10 2 18 9 11 8 14 -3 14 -10 0 -14 9 -13 28 0 15 -5
33 -12 40 -15 16 -17 32 -3 32 6 0 10 -7 10 -15 0 -8 5 -15 10 -15 6 0 10 5
10 11 0 5 5 7 12 3 8 -5 9 -2 3 12 -30 72 -30 75 -15 84 10 6 11 10 3 10 -8 0
-11 11 -9 30 2 17 1 28 -2 25 -3 -2 -11 3 -17 13 -14 20 -18 85 -4 77 5 -4 9
-19 9 -36 0 -16 5 -29 11 -29 6 0 8 7 5 16 -3 8 -1 24 4 35 8 13 7 26 -1 41
-11 21 -13 22 -19 4 -17 -49 -21 36 -24 456 0 130 -3 235 -6 233 -3 -2 -6 63
-6 143 -3 300 -2 888 1 922 18 196 26 884 12 1078 -5 61 -4 102 1 102 5 0 31
-31 57 -70 26 -38 51 -70 55 -70 4 0 13 -12 21 -27 9 -20 14 -79 15 -208 3
-235 3 -225 12 -225 4 0 8 94 9 210 l1 209 -36 50 c-21 27 -57 73 -81 103 -40
47 -36 44 33 -22 43 -41 91 -88 107 -105z m937 -41 c10 -10 32 -84 32 -105 0
-8 -16 8 -35 35 -49 70 -53 70 -15 1 79 -142 111 -206 150 -300 23 -55 53
-127 66 -160 14 -33 29 -68 35 -78 5 -10 30 -73 54 -140 25 -67 52 -134 61
-150 8 -15 13 -31 10 -36 -3 -5 0 -11 8 -14 7 -3 17 -20 21 -39 4 -18 8 -35 9
-38 3 -11 29 -77 47 -117 11 -24 19 -47 19 -52 0 -16 116 -352 140 -406 12
-27 39 -104 60 -170 41 -128 86 -244 101 -259 5 -6 9 -16 9 -23 0 -7 26 -66
57 -131 32 -64 57 -124 55 -132 -1 -10 0 -11 4 -2 5 10 9 10 20 1 24 -20 24
-6 -3 71 -28 81 -26 44 -34 565 -2 110 1 207 6 214 5 8 4 12 -1 8 -10 -6 -9
67 1 83 3 6 1 10 -5 10 -8 0 -10 9 -5 28 9 33 15 352 16 867 0 209 2 400 5
425 l5 45 324 2 323 2 6 -32 c8 -45 13 -1961 8 -3537 -1 -415 0 -791 3 -835 3
-44 7 -152 9 -240 l4 -160 -207 2 c-113 2 -243 6 -288 9 -80 6 -83 7 -83 30 0
14 4 22 10 19 21 -13 8 15 -20 43 -35 36 -39 57 -9 49 12 -3 19 -1 16 6 -2 6
-14 14 -28 17 -14 4 -23 13 -23 23 1 9 -2 17 -6 17 -8 0 -30 55 -30 73 0 4 -6
20 -14 35 -8 15 -28 69 -45 120 -17 51 -45 118 -61 150 -16 31 -40 91 -53 132
-65 197 -173 482 -209 548 -10 18 -18 43 -18 56 0 13 -9 45 -21 72 -20 49 -26
63 -48 117 -6 15 -11 34 -11 42 0 12 -65 162 -90 207 -6 10 -10 25 -10 33 0 8
-4 23 -10 33 -11 21 -65 160 -115 297 -44 121 -85 231 -114 305 -12 30 -24 62
-27 70 -3 8 -7 34 -9 58 -3 42 -15 73 -15 39 0 -27 -29 -20 -36 8 -3 14 -11
25 -17 25 -6 0 -22 12 -35 28 l-23 27 18 -34 c10 -18 24 -35 31 -38 6 -3 12
-11 12 -19 0 -7 7 -17 16 -22 10 -5 14 -15 10 -21 -6 -9 -11 -9 -22 0 -22 18
-30 2 -10 -20 15 -16 17 -34 13 -118 -3 -54 -6 -100 -7 -103 -6 -18 3 -237 11
-246 7 -8 6 -13 -2 -16 -8 -3 -11 -77 -8 -283 4 -298 3 -366 -1 -1185 -1 -289
-1 -533 1 -543 4 -17 -18 -18 -425 -17 -236 0 -431 2 -434 5 -8 8 -12 277 -11
865 0 316 0 582 0 590 0 8 1 245 2 525 1 281 2 1010 2 1622 0 611 3 1115 7
1119 8 7 30 9 198 19 58 3 114 9 124 12 18 5 502 30 534 28 7 -1 16 -5 20 -11z
m1712 -1084 c0 -20 5 -30 15 -30 19 0 19 0 19 -143 1 -116 1 -117 -17 -95 -16
19 -21 21 -30 8 -7 -8 -20 -22 -30 -30 -17 -13 -19 -12 -16 5 1 11 -3 33 -9
48 -15 35 -16 184 -2 192 6 4 18 1 26 -6 12 -9 15 -31 13 -93 -1 -45 2 -80 7
-78 12 3 13 173 2 189 -5 6 -5 14 1 17 5 3 7 15 4 26 -3 11 0 20 6 20 6 0 11
-13 11 -30z m85 -14 c17 -12 20 -30 23 -120 3 -74 1 -106 -7 -106 -6 0 -11 -7
-11 -16 0 -10 -6 -14 -15 -10 -10 4 -15 -1 -15 -16 0 -12 -3 -18 -7 -14 -5 5
-7 158 -3 289 0 11 14 8 35 -7z m-55 -300 c0 -8 3 -23 6 -33 5 -15 4 -15 -5
-3 -9 13 -11 12 -11 -4 0 -10 7 -24 16 -30 12 -9 13 -17 5 -39 -6 -16 -9 -77
-6 -147 l4 -120 -24 0 c-21 0 -24 6 -30 55 -13 103 13 335 37 335 4 0 8 -6 8
-14z m-5 -526 c3 -6 7 -58 9 -118 2 -59 4 -111 6 -117 6 -23 -1 -56 -10 -50
-6 4 -16 -8 -24 -25 -14 -34 -10 -80 6 -80 6 0 8 9 5 20 -3 13 0 20 8 20 9 0
13 -10 11 -27 -1 -21 -7 -27 -20 -25 -13 2 -16 0 -10 -10 5 -7 12 -67 16 -133
9 -155 14 -298 10 -285 -5 14 -32 13 -32 -1 0 -8 -5 -8 -15 1 -8 7 -13 15 -11
19 6 9 19 110 18 136 -1 11 -6 21 -11 23 -7 2 -8 10 -1 22 5 9 8 62 6 116 -3
81 -7 100 -20 102 -20 4 -21 18 0 26 10 4 13 13 9 26 -4 12 -2 20 5 20 7 0 9
7 6 17 -4 10 1 23 14 35 22 21 28 62 8 55 -7 -2 -13 -11 -13 -20 0 -25 -13
-30 -20 -8 -3 12 -11 21 -16 21 -5 0 -9 7 -9 17 0 14 2 14 20 -2 11 -10 20
-13 20 -7 0 6 -5 14 -11 18 -8 4 -8 9 0 17 6 6 11 50 11 102 0 51 3 95 7 98 9
10 21 9 28 -3z m7 -945 c3 -89 3 -90 28 -87 38 4 55 -5 40 -23 -9 -11 -17 -12
-32 -4 -19 10 -20 8 -16 -25 2 -20 0 -36 -4 -36 -4 0 -8 10 -8 21 0 18 -3 19
-15 9 -12 -10 -15 -7 -21 14 -10 43 -56 25 -48 -19 11 -58 8 -128 -4 -133 -10
-3 -13 8 -12 44 3 77 1 87 -14 81 -9 -4 -13 4 -14 23 0 24 4 29 34 34 19 4 34
10 34 14 6 152 18 208 42 184 4 -4 8 -48 10 -97z m-1691 -82 c12 -37 40 -110
62 -162 72 -174 168 -425 201 -524 15 -45 87 -237 143 -379 14 -37 23 -73 20
-81 -3 -8 4 -32 15 -53 29 -54 119 -286 115 -297 -2 -6 -22 10 -46 34 -42 43
-48 36 -7 -9 17 -20 18 -24 6 -32 -16 -10 -8 -13 26 -11 25 2 89 -61 103 -101
12 -33 7 -35 -20 -9 -29 27 -53 29 -324 36 -132 3 -257 8 -277 11 l-38 6 1
461 c0 254 -3 623 -6 820 -4 196 -4 357 -1 357 2 0 14 -30 27 -67z m352 -479
c-2 -7 5 -19 16 -26 12 -7 21 -16 21 -21 0 -4 16 -49 35 -100 46 -119 48 -124
73 -175 12 -23 19 -50 16 -60 -5 -13 -4 -14 4 -4 7 11 10 11 15 -2 4 -9 1 -16
-6 -17 -9 0 -9 -2 1 -6 6 -2 9 -9 6 -14 -3 -6 6 -27 20 -47 14 -21 27 -48 29
-62 2 -13 8 -25 14 -27 6 -2 8 -14 6 -27 -3 -12 2 -40 11 -61 9 -20 16 -42 16
-48 0 -17 -49 62 -57 91 -3 15 -21 59 -39 97 -18 39 -46 106 -62 151 -17 44
-39 100 -50 125 -17 36 -30 70 -37 99 -3 8 -16 42 -36 92 -23 56 -23 55 -5 55
8 0 12 -6 9 -13z m-1519 -396 c1 -54 -3 -99 -7 -101 -5 -1 -1 -16 7 -32 11
-21 12 -32 4 -42 -17 -21 -10 -396 9 -458 3 -10 11 -25 18 -32 11 -10 14 -9
20 5 5 13 9 10 23 -18 9 -19 19 -37 23 -40 3 -3 9 -17 12 -32 4 -14 10 -34 13
-45 4 -12 -3 -8 -19 11 -14 16 -23 35 -20 43 4 9 0 11 -11 7 -10 -4 -16 -1
-16 8 0 7 -15 29 -34 48 -18 19 -37 46 -41 60 -11 33 -13 700 -3 700 5 0 6 12
3 28 -6 24 -5 25 6 8 7 -11 12 -60 13 -118z m2862 -80 c-18 -25 -21 -53 -6
-43 6 3 16 3 23 -2 6 -4 17 -8 22 -9 6 0 16 -2 23 -2 10 -2 12 -17 8 -64 -2
-35 -7 -72 -10 -83 -2 -11 -5 -23 -5 -27 -1 -5 -10 -8 -22 -8 -20 0 -21 5 -18
87 2 61 0 88 -9 91 -14 4 -14 4 -17 -104 -1 -50 -7 -89 -16 -101 -12 -18 -14
-5 -12 108 2 106 5 133 20 154 22 30 40 33 19 3z"/>
<path d="M16740 6392 c0 -121 1 -122 72 -122 50 0 59 22 56 129 l-3 96 -62 3
-63 3 0 -109z m103 76 c-2 -5 -3 -46 -3 -93 l0 -85 -40 0 -40 0 0 96 0 95 43
-3 c23 -2 41 -6 40 -10z"/>
<path d="M16763 5703 c-22 -4 -23 -8 -23 -113 0 -104 1 -108 23 -114 33 -8 95
11 101 32 2 9 4 55 3 101 -2 74 -4 85 -22 92 -22 8 -47 9 -82 2z"/>
<path d="M16939 5700 c-6 -4 -9 -49 -7 -110 l3 -104 34 -9 c22 -5 43 -4 62 4
l29 11 0 104 0 104 -27 2 c-71 4 -84 3 -94 -2z m94 -19 c4 -1 7 -44 7 -97 l0
-95 -42 3 -42 3 -4 83 c-4 93 4 113 46 107 15 -2 30 -4 35 -4z"/>
<path d="M17147 5698 c-13 -10 -19 -35 -23 -103 -6 -79 -4 -93 11 -109 14 -14
27 -16 59 -10 22 3 44 8 49 11 4 2 7 51 7 108 0 85 -3 104 -16 109 -26 10 -69
7 -87 -6z m78 -108 l0 -95 -35 0 -35 0 -3 84 c-4 105 -1 113 40 109 l33 -3 0
-95z"/>
<path d="M16760 5271 c-25 -7 -25 -8 -21 -102 1 -51 8 -100 13 -106 6 -8 33
-13 62 -13 l51 0 -3 109 c-3 102 -5 109 -25 115 -27 7 -44 6 -77 -3z m78 -113
l-3 -93 -37 -3 c-26 -2 -38 1 -39 10 -1 11 0 168 1 176 0 1 18 2 40 2 l41 0
-3 -92z"/>
<path d="M16943 5273 c-9 -3 -13 -36 -13 -113 l0 -108 33 -3 c17 -2 47 -3 65
-1 l32 3 0 104 c0 93 -2 105 -19 115 -20 10 -76 12 -98 3z"/>
<path d="M17163 5273 c-29 -6 -35 -28 -31 -133 l3 -85 34 -3 c19 -2 44 -1 57
2 23 6 24 10 24 106 0 99 0 101 -26 110 -14 6 -28 9 -32 9 -4 -1 -17 -4 -29
-6z"/>
<path d="M16758 4843 c-16 -4 -18 -18 -18 -108 l0 -103 38 -7 c21 -3 50 -2 64
4 26 10 26 10 25 113 l-2 103 -45 2 c-25 0 -53 -1 -62 -4z m90 -110 l3 -93
-41 0 c-45 0 -40 -11 -42 115 0 79 -2 77 40 73 l37 -3 3 -92z"/>
<path d="M16953 4843 c-9 -3 -13 -35 -13 -109 l0 -105 63 2 62 2 0 99 c0 77
-3 101 -15 108 -16 10 -76 12 -97 3z"/>
<path d="M16946 4435 c-3 -9 -6 -61 -6 -116 l0 -99 39 0 c71 0 98 9 94 33 -2
12 -4 60 -6 107 l-2 85 -56 3 c-45 2 -58 0 -63 -13z m94 -99 c0 -86 -2 -95
-20 -101 -11 -3 -29 -3 -40 0 -18 6 -20 15 -20 94 0 48 3 91 7 94 3 4 21 7 40
7 l33 0 0 -94z"/>
<path d="M16962 4015 c-21 -16 -23 -23 -21 -110 l2 -94 42 -7 c24 -3 51 -1 63
5 18 10 19 18 15 103 -3 51 -8 96 -12 100 -15 17 -67 19 -89 3z"/>
<path d="M16973 3642 c-21 -3 -23 -9 -24 -75 -1 -40 -2 -81 -3 -92 -1 -11 3
-26 8 -32 10 -15 72 -17 81 -3 3 5 12 7 20 3 13 -4 15 10 15 83 0 49 -5 96
-10 104 -9 14 -40 19 -87 12z"/>
<path d="M16755 3632 c-11 -11 -5 -178 7 -190 13 -13 76 -16 94 -4 6 4 14 48
18 99 7 84 6 92 -11 97 -22 7 -101 5 -108 -2z"/>
<path d="M4768 7968 c-2 -24 -7 -32 -18 -29 -29 8 -277 9 -680 3 -223 -4 -396
-8 -385 -9 24 -3 568 -26 715 -30 58 -1 151 2 208 9 102 11 134 6 99 -16 -10
-6 -35 -26 -55 -43 -20 -18 -40 -33 -43 -33 -13 0 -151 -115 -209 -173 -33
-33 -42 -38 -71 -33 -19 3 -121 6 -227 7 -105 0 -195 5 -198 10 -3 5 25 10 63
10 323 5 373 8 373 18 0 5 -39 7 -87 5 -49 -2 -153 -4 -233 -5 -152 -1 -194
-5 -184 -20 9 -15 -17 -10 -33 7 -11 11 -26 14 -46 10 -16 -3 -40 -6 -54 -6
-16 0 -22 -4 -17 -12 5 -8 -6 -10 -42 -5 -27 3 -43 3 -36 0 27 -11 9 -18 -48
-19 -33 -1 -60 0 -60 2 0 1 73 52 163 112 179 122 241 171 216 172 -19 0 -134
-72 -319 -199 -74 -51 -145 -97 -156 -102 -34 -12 -36 -26 -5 -21 l29 4 7
-110 c4 -60 6 -215 4 -343 -1 -129 1 -375 6 -546 7 -267 6 -313 -6 -313 -8 0
-53 4 -101 10 -83 8 -89 11 -119 44 -41 48 -67 46 -113 -5 -24 -26 -49 -42
-69 -46 l-32 -5 -3 574 c-3 559 0 654 19 642 14 -8 11 30 -3 44 -10 10 -10 15
-1 20 12 7 11 87 -2 220 -3 40 -4 91 0 112 6 37 9 40 38 40 16 0 27 3 23 7 -4
5 -71 6 -149 4 -78 -2 -288 -6 -467 -10 -306 -6 -327 -8 -366 -28 -22 -12 -46
-29 -53 -37 -14 -17 -192 -126 -205 -126 -4 0 -4 5 -1 10 3 6 1 10 -5 10 -7 0
-10 -6 -7 -14 5 -13 -26 -39 -90 -74 -25 -13 -47 -16 -39 -4 2 4 -2 16 -10 27
-13 18 -14 18 -14 -8 0 -15 -9 -32 -22 -41 l-22 -16 21 0 c19 0 21 -3 13 -30
-5 -16 -6 -42 -4 -57 2 -15 6 -98 9 -183 3 -85 9 -283 15 -440 5 -157 8 -301
6 -320 -2 -19 -7 -126 -11 -238 -9 -236 -10 -256 -18 -268 -3 -6 -2 -27 3 -47
4 -20 8 -128 9 -239 1 -112 6 -279 12 -373 11 -172 6 -1030 -6 -1135 -4 -30
-2 -95 4 -145 44 -365 54 -418 107 -550 35 -89 105 -223 156 -298 55 -80 23
-61 -82 50 -46 48 -77 77 -70 63 13 -24 209 -232 320 -338 30 -29 90 -76 133
-104 42 -29 77 -59 78 -68 1 -8 2 -44 2 -79 2 -61 1 -65 -23 -72 -14 -4 76 -8
200 -8 124 -1 243 -6 265 -12 44 -12 649 -18 780 -9 69 6 61 7 -62 8 -88 1
-143 6 -143 12 0 6 -22 10 -50 10 -27 0 -50 4 -50 9 0 5 68 9 156 10 86 0 158
2 161 5 3 3 18 -1 34 -10 16 -8 29 -10 29 -5 0 5 -6 11 -12 14 -21 7 -2 18 41
24 23 3 41 11 41 17 0 8 2 8 8 -1 5 -8 34 -9 102 -3 145 12 217 54 87 51 -62
-1 -77 -11 -17 -11 47 0 48 -10 3 -16 -15 -2 -38 1 -50 8 -17 8 -30 7 -58 -6
-20 -10 -41 -15 -48 -13 -7 2 2 10 18 17 17 8 78 37 138 66 101 49 107 51 108
31 0 -12 2 -54 3 -93 l2 -71 -180 2 c-100 2 -174 0 -166 -3 8 -3 18 -9 21 -14
6 -9 279 -16 294 -6 22 13 73 19 80 9 11 -19 41 -12 65 14 13 14 30 23 37 21
8 -3 13 2 13 14 0 10 5 22 11 26 8 4 7 9 -2 15 -9 5 8 7 41 5 140 -11 280 -9
280 3 0 6 -19 11 -42 13 -23 2 -43 9 -46 16 -3 9 2 10 22 2 14 -5 32 -7 40 -4
21 8 7 44 -18 45 -20 0 -20 1 2 10 13 5 20 14 17 20 -4 6 -13 8 -19 6 -7 -3
-19 -2 -26 3 -32 20 431 25 500 5 l25 -7 -24 18 c-25 18 -104 23 -388 24 -40
0 -73 4 -73 9 0 4 75 9 166 9 92 1 169 4 172 7 3 3 -28 5 -69 5 -41 0 -103 3
-139 6 -36 3 -83 1 -105 -3 -29 -7 -48 -5 -68 5 -19 9 -48 13 -83 10 -38 -3
-51 -1 -44 6 11 11 180 17 180 6 0 -10 104 1 108 11 2 5 11 9 20 9 15 0 15 -2
2 -10 -12 -8 -10 -10 10 -10 14 -1 54 -3 90 -5 62 -4 64 -4 35 10 -16 8 -28
15 -25 15 3 1 28 3 57 6 42 3 51 1 47 -10 -6 -16 27 -26 112 -31 40 -3 54 -1
51 8 -2 8 -26 11 -71 10 -61 -1 -68 1 -76 22 -8 21 -15 23 -92 25 -46 1 -119
4 -163 6 -87 5 -90 5 -185 6 -36 0 -83 1 -105 1 -22 1 -61 -2 -87 -6 -37 -5
-48 -3 -48 7 0 7 39 51 88 97 134 130 307 320 307 338 0 9 7 15 18 15 9 -1 17
2 17 7 0 5 -5 9 -11 9 -5 0 -7 5 -4 11 4 6 10 8 13 5 7 -8 32 14 32 28 0 6 -5
4 -10 -4 -5 -8 -10 -10 -10 -5 0 6 12 28 26 49 14 21 27 43 28 49 1 7 7 22 14
34 18 32 73 184 77 213 3 14 22 91 44 173 22 81 42 169 45 195 3 26 8 58 11
72 14 79 14 91 -2 97 -15 6 -15 7 1 13 17 6 17 7 2 23 -10 9 -13 17 -7 17 15
0 14 43 -1 59 -10 11 -10 13 0 7 11 -7 17 5 8 15 -3 2 -7 94 -11 204 -3 110
-8 238 -10 285 -5 104 -7 202 -5 215 1 6 1 168 0 360 -2 432 -1 1476 2 1605 1
52 1 187 -1 300 -2 113 -3 214 -2 225 1 23 52 55 87 55 13 0 24 4 24 8 0 12
-62 7 -87 -6 -30 -16 -32 -15 -31 11 3 47 -2 87 -11 87 -6 0 -11 -15 -13 -32z
m-1780 -60 c-3 -7 -42 -39 -88 -71 -47 -32 -100 -72 -120 -90 -92 -84 -96 -85
-231 -92 -69 -3 -128 -10 -134 -16 -7 -8 -2 -10 20 -5 72 13 185 18 185 8 0
-6 -4 -13 -8 -16 -5 -3 -100 -8 -213 -11 -200 -5 -439 -31 -439 -47 0 -4 19
-5 43 -2 23 3 169 6 324 7 l283 2 1 -450 c1 -247 1 -468 1 -490 -2 -141 -1
-281 3 -372 5 -93 3 -107 -12 -119 -21 -16 -59 -18 -68 -4 -11 17 -80 12 -97
-7 -25 -29 -48 -81 -42 -96 3 -9 -21 -37 -64 -76 -64 -56 -74 -61 -115 -61
-38 0 -49 -5 -67 -27 -17 -22 -20 -36 -16 -68 6 -38 2 -46 -69 -143 -61 -83
-80 -102 -100 -102 -28 0 -75 -40 -75 -64 0 -9 7 -31 16 -49 16 -33 15 -37
-21 -138 -21 -57 -39 -110 -41 -117 -2 -7 -18 -15 -35 -19 -59 -12 -74 -102
-24 -146 25 -22 25 -23 19 -135 -7 -110 -8 -114 -33 -124 -14 -5 -28 -10 -29
-11 -2 -1 -5 147 -7 328 -2 182 -8 413 -14 515 -15 257 -17 485 -7 830 5 187
4 454 -4 729 -9 325 -9 436 0 445 8 8 73 10 215 8 113 -2 210 0 217 5 18 11
-94 20 -240 19 -67 0 -122 1 -122 5 0 7 142 100 215 140 33 18 76 48 95 67
l35 33 305 4 c168 2 328 6 355 9 28 3 72 7 99 10 26 3 51 7 54 10 11 12 54 6
50 -6z m-13 -205 c-3 -82 -8 -213 -12 -293 -4 -80 -6 -179 -5 -220 9 -331 13
-822 7 -875 -6 -60 -8 -65 -30 -65 l-24 0 4 165 c2 91 0 178 -4 193 -6 20 -8
11 -10 -38 -1 -36 -3 -71 -3 -79 -1 -8 -10 -16 -20 -19 -11 -2 -17 -10 -14
-17 2 -6 7 -38 11 -71 3 -32 8 -74 11 -92 l5 -33 -20 20 c-12 12 -30 21 -41
21 -24 0 -70 -21 -70 -32 0 -4 -9 -8 -20 -8 -18 0 -19 -3 -9 -21 11 -21 0 -38
-24 -39 -5 0 -7 92 -6 204 1 111 -1 208 -5 215 -4 6 -4 15 -1 21 3 5 8 170 11
366 2 196 6 359 8 363 3 3 7 58 11 121 l7 115 36 33 c20 17 39 32 43 32 4 0 7
-29 7 -65 0 -35 3 -69 6 -74 4 -5 2 -12 -2 -15 -10 -6 -4 -56 7 -56 9 0 7 193
-3 208 -5 9 0 19 15 30 33 23 109 105 109 118 0 9 20 34 27 34 2 0 1 -66 -2
-147z m1782 17 c-5 -25 -8 -92 -7 -150 1 -58 2 -127 1 -155 0 -27 0 -329 1
-670 1 -762 0 -864 -7 -876 -4 -5 -2 -9 4 -9 5 0 10 -8 10 -17 -1 -10 0 -85 0
-168 1 -189 -6 -304 -19 -320 -8 -9 -8 -15 0 -20 6 -4 9 -14 6 -22 -3 -8 -2
-12 2 -9 4 2 8 -55 8 -127 1 -73 3 -166 4 -207 1 -41 -1 -84 -6 -94 -5 -14 -4
-17 4 -12 8 5 12 -2 12 -21 0 -22 -2 -25 -10 -13 -7 11 -10 7 -10 -17 0 -18 5
-33 10 -33 6 0 10 -5 10 -11 0 -5 -4 -7 -10 -4 -6 4 -10 -5 -9 -22 1 -17 3
-21 6 -10 8 30 19 18 21 -23 2 -22 -2 -40 -7 -40 -6 0 -8 6 -5 14 3 8 1 17 -4
20 -5 3 -12 -44 -16 -110 -7 -123 -24 -197 -26 -114 0 25 -7 54 -15 64 -15 19
-15 19 -15 -1 0 -12 5 -25 10 -28 15 -9 12 -25 -4 -19 -8 3 -17 1 -20 -4 -3
-6 1 -13 10 -16 9 -4 14 -13 10 -21 -3 -8 -1 -15 5 -15 6 0 7 -5 3 -11 -3 -6
-8 -92 -10 -190 -2 -135 0 -179 9 -179 8 0 8 -3 2 -8 -5 -4 -11 -14 -11 -22
-6 -61 -84 -273 -106 -286 -7 -4 -8 -3 -4 5 4 6 11 25 16 41 7 23 5 28 -6 23
-14 -5 -20 13 -6 19 4 2 17 19 29 38 17 29 20 46 15 94 -3 42 -2 57 7 52 6 -4
11 -2 11 3 0 6 -5 11 -12 11 -6 0 -8 3 -4 7 4 5 13 8 19 8 14 0 21 30 12 53
-5 14 -7 14 -15 2 -8 -13 -10 -13 -10 -1 0 14 -14 7 -16 -7 -6 -57 -19 -112
-30 -130 -8 -12 -12 -27 -9 -32 3 -6 2 -10 -4 -10 -19 0 -34 -40 -20 -56 9
-11 8 -14 -4 -14 -19 0 -28 35 -13 50 8 8 6 15 -9 26 -18 13 -18 16 -3 42 8
15 13 33 10 41 -3 8 0 11 7 7 6 -4 11 -2 11 4 0 6 4 8 10 5 6 -3 -1 -22 -15
-45 -18 -29 -21 -40 -11 -40 19 0 49 66 41 90 -4 11 -2 20 3 20 5 0 12 14 16
31 3 16 13 37 21 46 9 8 13 23 10 33 -3 10 -1 21 5 25 8 5 7 11 -2 22 -10 12
-9 17 5 28 18 13 23 35 8 35 -5 0 -12 -6 -14 -12 -3 -7 -6 -3 -6 10 -1 13 3
21 8 18 9 -6 21 16 21 37 0 8 -4 7 -9 -2 -11 -18 -23 48 -26 144 -1 39 -3 93
-5 120 -2 50 -2 50 -9 13 -4 -20 -5 -62 -1 -95 7 -60 5 -262 -3 -269 -2 -3 -2
-20 0 -39 2 -20 -1 -35 -7 -35 -5 0 -10 8 -11 18 0 14 -2 14 -8 -3 -5 -12 -4
-23 3 -27 8 -6 7 -8 -1 -8 -7 0 -13 -7 -13 -15 0 -8 5 -15 10 -15 6 0 10 -5
10 -11 0 -8 -5 -7 -15 1 -13 11 -18 10 -30 -6 -18 -23 -19 -44 -3 -44 6 0 9
-2 6 -5 -3 -3 -13 -3 -22 1 -20 7 -21 40 -2 47 12 5 40 90 41 122 0 13 18 34
26 29 3 -2 6 10 6 26 0 17 -4 30 -9 30 -4 0 -8 -9 -8 -19 0 -11 -5 -23 -11
-27 -8 -5 -10 1 -5 19 3 14 2 29 -4 32 -5 3 -10 12 -10 18 0 7 4 6 11 -3 8
-11 9 -5 4 23 -4 26 -3 37 4 33 6 -4 4 8 -4 26 -8 18 -21 32 -29 32 -22 -2
-28 27 -16 77 6 24 14 55 17 69 3 14 12 30 20 37 9 7 13 19 9 28 -5 15 20 49
43 56 7 3 14 24 16 49 3 35 0 48 -15 63 -11 10 -20 23 -20 30 0 8 -3 8 -9 -2
-13 -21 -24 5 -11 29 10 19 7 24 -13 21 -4 -1 -4 7 2 16 5 10 7 31 4 47 -5 24
-3 28 11 23 20 -8 21 1 2 22 -19 22 -30 61 -17 61 6 0 11 -9 11 -21 0 -11 5
-17 10 -14 6 3 7 17 4 30 -3 12 -1 26 4 29 5 3 13 -11 17 -31 5 -26 3 -39 -5
-41 -9 -3 -9 -7 1 -13 11 -7 12 -12 1 -29 -13 -22 -3 -93 18 -114 8 -8 10 -7
6 4 -3 8 -8 67 -11 130 -4 63 -7 131 -8 151 -1 22 -6 35 -13 32 -6 -2 -17 11
-23 29 -7 18 -17 41 -22 50 -5 10 -9 29 -9 42 0 14 -5 28 -11 32 -6 3 -9 15
-6 25 3 10 1 22 -4 25 -13 7 -11 44 2 44 5 0 7 5 3 11 -5 8 -9 8 -14 -1 -4 -7
-10 -8 -12 -4 -10 16 -21 108 -21 169 l0 60 -7 -50 -7 -50 -2 65 c-2 79 -8
275 -16 470 -7 187 -17 599 -17 715 1 50 1 234 1 411 l1 321 24 11 c26 11 55
33 92 68 12 12 29 24 38 27 9 4 16 11 16 16 0 25 -22 16 -85 -34 -38 -30 -73
-55 -79 -55 -12 0 -14 -2 91 84 45 37 85 67 88 67 18 -2 25 0 25 9 0 17 54 60
68 55 7 -3 10 0 7 5 -4 6 4 19 17 30 l23 18 5 -36 c3 -20 2 -57 -3 -82z m-797
-140 c10 -5 88 -10 172 -10 134 -1 231 -9 242 -21 2 -2 7 -274 11 -604 10
-983 14 -1206 20 -1282 5 -68 4 -73 -14 -73 -14 0 -40 31 -90 108 -39 59 -66
109 -61 110 16 6 12 30 -15 82 -25 50 -26 50 -73 50 -41 0 -57 6 -105 43 -37
27 -70 64 -96 107 -21 36 -50 73 -63 83 -23 17 -27 17 -66 2 -39 -16 -44 -16
-89 1 -57 21 -123 61 -123 73 0 5 -12 23 -26 40 -18 22 -35 31 -55 31 l-29 0
-2 208 c0 114 -2 221 -4 237 -1 17 -5 138 -9 270 -7 260 -20 497 -31 532 -6
22 -5 22 117 26 175 6 366 -1 389 -13z m-993 -1406 c-2 -20 -10 -40 -18 -45
-11 -7 -11 -11 5 -22 31 -23 13 -44 -51 -58 -32 -7 -62 -16 -68 -20 -9 -6 -85
-30 -85 -26 0 1 6 22 14 47 13 44 41 73 83 85 19 5 23 1 29 -29 3 -20 10 -33
15 -31 4 3 4 17 -2 32 -11 30 -5 41 15 24 8 -7 17 -8 20 -3 3 6 -1 15 -9 22
-29 24 -7 59 38 60 14 0 17 -7 14 -36z m289 15 c19 -11 42 -31 52 -43 31 -40
54 -40 100 0 23 19 42 34 43 32 5 -35 10 -118 6 -118 -3 0 -41 5 -84 11 -43 6
-107 12 -143 13 -64 1 -65 1 -68 30 -2 16 -1 44 3 63 5 27 10 33 32 33 14 0
41 -9 59 -21z m321 -17 c58 -3 146 -37 140 -55 -2 -6 -26 -18 -53 -25 -27 -7
-69 -20 -93 -28 -25 -8 -48 -11 -52 -7 -9 11 -20 119 -12 127 4 3 9 3 12 -1 3
-5 29 -9 58 -11z m-965 -119 c-2 -27 -8 -52 -13 -57 -5 -6 -4 -15 2 -22 15
-18 -6 -46 -67 -89 -65 -47 -73 -45 -67 13 7 65 18 73 106 81 4 1 7 7 7 15 0
16 -34 31 -50 21 -5 -3 -10 0 -10 7 1 22 60 72 90 77 3 1 4 -20 2 -46z m1200
20 c18 -16 35 -31 36 -35 2 -5 11 -8 19 -8 24 0 132 -63 178 -104 l40 -35
-120 -1 -120 0 -90 43 c-50 24 -112 52 -140 62 -92 34 -94 40 -18 60 38 9 77
19 88 22 15 3 24 -3 32 -24 l12 -28 -1 30 c0 44 0 45 26 45 14 0 39 -12 58
-27z m-452 -43 c41 -6 78 -14 83 -19 11 -11 9 -214 -2 -263 -6 -26 -5 -38 3
-41 7 -2 4 -10 -7 -21 -9 -10 -17 -23 -17 -29 0 -7 7 -4 14 6 7 9 15 17 17 17
2 0 4 -89 4 -198 0 -184 -2 -200 -22 -241 -22 -44 -25 -72 -3 -32 6 12 15 21
20 21 16 0 -10 -53 -44 -90 -45 -49 -136 -175 -136 -190 0 -6 -6 -10 -12 -7
-7 2 -12 15 -12 28 1 21 60 227 99 349 27 83 85 314 80 319 -9 8 -12 -1 -49
-129 -20 -69 -52 -179 -71 -245 -48 -162 -75 -265 -75 -286 0 -14 -8 -18 -41
-17 -22 0 -58 -8 -80 -17 l-39 -18 -29 27 c-20 19 -28 37 -29 63 l-2 37 30
-35 c37 -44 38 -30 1 35 -23 40 -29 64 -30 114 -1 34 -2 66 -2 70 -1 4 -1 12
0 17 2 12 61 -135 61 -151 0 -19 53 -129 57 -118 2 6 -22 84 -54 175 l-58 164
-3 349 c-2 262 0 351 9 357 19 11 256 11 339 -1z m-385 -228 c-3 -119 -8 -230
-10 -247 -4 -29 -6 -190 -3 -265 0 -19 0 -53 -1 -75 l-2 -40 -33 65 c-17 36
-49 91 -69 123 -20 31 -37 62 -37 68 0 5 -7 21 -16 34 -9 13 -12 30 -8 36 4 8
3 9 -4 5 -15 -9 -50 27 -68 71 -9 19 -17 33 -20 30 -6 -6 86 -189 102 -202 13
-12 84 -142 84 -156 0 -5 13 -28 30 -50 16 -23 32 -58 35 -78 3 -20 8 -48 10
-63 3 -16 1 -28 -3 -28 -5 0 -65 55 -134 123 l-125 123 -6 155 c-3 85 -8 165
-12 179 -4 14 -8 87 -10 163 -2 114 0 137 11 133 8 -3 14 1 14 9 0 12 40 42
48 36 1 -1 15 5 32 14 16 8 53 21 82 29 29 8 64 19 78 24 14 5 28 8 32 5 4 -2
5 -102 3 -221z m668 134 c137 -63 215 -118 338 -238 94 -91 192 -218 201 -259
2 -8 6 -16 9 -19 23 -19 131 -355 118 -363 -12 -8 -340 -82 -474 -107 -88 -17
-197 -37 -242 -46 -45 -9 -86 -13 -92 -10 -9 6 -10 111 0 120 2 2 51 29 109
61 200 109 553 325 545 333 -2 3 -37 -14 -77 -38 -449 -264 -570 -331 -582
-320 -4 5 -7 42 -5 82 l4 74 150 168 c178 200 235 266 235 274 0 11 -80 -71
-199 -202 -64 -71 -133 -148 -154 -170 l-38 -41 5 52 c3 28 17 73 31 100 14
26 38 71 53 98 39 71 53 105 44 105 -5 0 -23 -30 -40 -67 -37 -79 -81 -152
-82 -138 -4 38 2 600 6 606 3 5 13 4 22 -1 9 -5 61 -29 115 -54z m-1195 -32
c-2 -68 -4 -77 -25 -87 -12 -5 -20 -14 -17 -19 3 -4 -9 -20 -26 -34 -50 -43
-143 -163 -198 -257 -29 -48 -52 -92 -52 -97 0 -6 -5 -10 -11 -10 -6 0 -9 -5
-7 -12 5 -15 -47 -141 -60 -146 -5 -1 -21 13 -35 32 -23 29 -30 46 -36 86 -1
2 -6 -1 -13 -8 -9 -9 -3 -24 24 -64 19 -29 39 -59 43 -66 9 -17 -12 -42 -50
-58 -18 -8 -23 -13 -12 -14 22 0 21 -3 -3 -32 -10 -12 -29 -36 -42 -51 -20
-25 -25 -26 -42 -14 -29 21 -13 55 30 63 l34 6 -26 21 c-28 22 -29 43 -4 137
16 65 36 90 68 90 42 -1 91 11 99 24 4 6 9 19 10 29 3 17 2 17 -13 3 -8 -9
-21 -16 -27 -16 -7 0 -6 4 3 10 15 10 11 12 -24 14 -27 1 -43 30 -27 50 12 14
17 13 47 -11 19 -14 37 -24 39 -21 4 3 -16 37 -46 78 -13 18 16 66 97 168 25
30 27 31 40 15 24 -33 17 -69 -16 -83 -17 -7 -33 -17 -36 -21 -3 -5 7 -4 23 2
15 6 40 11 56 11 32 -1 31 -2 12 34 -8 16 -15 37 -15 46 0 9 -4 20 -10 23 -28
17 -5 25 56 19 60 -6 66 -5 71 14 3 11 12 23 22 25 15 4 2 2 -57 -8 -12 -2
-20 1 -16 6 7 12 -3 11 -26 -3 -23 -15 -38 -3 -24 19 21 34 43 39 59 15 9 -12
20 -22 26 -22 16 0 10 29 -12 51 -11 11 -18 23 -14 27 41 41 134 111 148 112
16 0 18 -9 15 -76z m175 -111 c3 -53 1 -93 -4 -95 -6 -2 -6 -15 0 -33 5 -17
12 -94 14 -173 5 -165 19 -160 -118 -42 -165 142 -127 92 63 -83 43 -40 62
-63 58 -74 -4 -8 -1 -22 5 -30 9 -10 9 -17 1 -25 -15 -15 -16 -32 -2 -23 6 4
10 -8 10 -30 0 -22 -4 -34 -10 -30 -15 10 -12 -5 5 -22 9 -8 13 -18 10 -21 -3
-4 -9 -2 -13 4 -7 10 -367 175 -412 189 -58 17 4 -17 163 -89 196 -90 237
-113 237 -132 0 -8 4 -14 9 -14 15 0 23 -37 15 -62 -8 -22 -8 -22 -15 7 -4 20
-7 5 -8 -47 -1 -74 -2 -78 -23 -78 -13 0 -104 7 -203 15 -182 15 -333 19 -323
10 3 -3 95 -12 204 -20 110 -8 232 -17 272 -21 l72 -6 0 -78 0 -78 -67 -20
c-38 -12 -104 -31 -148 -42 -44 -12 -133 -37 -197 -56 -65 -19 -121 -34 -126
-34 -28 0 -59 197 -46 288 4 31 6 80 5 107 -3 65 22 178 59 272 17 41 30 81
30 89 0 8 5 14 10 14 6 0 10 8 10 18 0 9 7 26 15 36 8 11 15 28 15 38 0 10 5
18 10 18 6 0 10 8 10 18 0 9 11 29 25 44 14 15 25 32 25 38 0 6 7 13 15 16 8
4 15 12 15 18 0 24 189 220 256 267 38 25 70 46 71 45 1 0 4 -42 6 -93z m1360
74 c58 -1 98 2 100 8 5 15 32 -10 96 -90 72 -87 131 -175 131 -193 0 -8 10
-35 23 -61 26 -51 40 -105 30 -115 -4 -4 -8 -12 -9 -19 -1 -7 -9 -41 -18 -77
-9 -36 -16 -73 -16 -82 0 -28 17 -21 23 10 23 118 31 145 44 149 12 4 26 -79
22 -137 -1 -19 -1 -39 0 -45 9 -29 -1 -64 -19 -70 -11 -3 -20 -11 -20 -17 0
-6 6 -5 16 3 13 10 17 10 25 -2 5 -8 7 -23 4 -34 -2 -11 -5 -26 -5 -33 0 -9
-7 -11 -22 -6 -21 6 -21 4 6 -25 29 -31 30 -32 19 -94 -6 -35 -7 -69 -2 -79 5
-9 5 -59 1 -112 -4 -52 -4 -105 0 -117 5 -12 4 -38 -2 -58 -13 -46 -13 -64 0
-56 6 4 8 -3 6 -17 -3 -13 -5 -29 -5 -35 -1 -7 -9 -13 -19 -13 -10 0 -23 -5
-30 -12 -9 -9 -12 -9 -12 0 0 7 4 12 9 12 16 0 21 31 8 45 -12 11 -16 5 -27
-36 -14 -49 -26 -67 -37 -55 -3 3 -2 13 2 23 8 19 11 28 21 81 3 17 9 32 13
32 4 0 8 24 9 52 1 36 6 56 17 64 9 7 12 15 6 18 -5 3 -7 18 -5 34 3 15 5 32
6 37 0 6 -3 62 -7 125 -5 63 -9 134 -9 158 -1 23 -4 42 -8 42 -4 0 -12 26 -18
58 -6 31 -15 66 -21 77 -5 11 -18 49 -30 85 -27 85 -68 169 -124 254 -24 39
-43 71 -41 73 3 3 80 -15 151 -34 15 -4 17 -2 9 6 -13 14 -145 51 -157 44 -5
-3 -41 26 -81 64 -39 38 -97 91 -128 117 -59 48 -72 68 -40 60 9 -3 61 -6 115
-7z m-1021 -900 c3 -15 1 -27 -4 -27 -19 0 -245 124 -258 141 -3 4 -4 43 -2
87 l3 81 128 -127 c84 -84 130 -136 133 -155z m1498 228 c18 -49 40 -205 40
-287 -1 -112 -1 -122 -13 -129 -5 -4 -5 -14 2 -27 10 -19 6 -75 -8 -97 -4 -5
-6 -34 -5 -62 0 -29 -3 -53 -7 -53 -4 0 -11 -20 -15 -45 -3 -25 -9 -45 -13
-45 -11 0 -13 80 -3 93 14 18 24 87 13 87 -6 0 -8 19 -6 48 5 49 6 107 6 232
-1 46 4 77 11 81 9 6 9 11 0 21 -10 13 -25 208 -16 208 3 0 9 -11 14 -25z
m-1010 -108 l0 -74 -52 -35 c-77 -52 -98 -62 -110 -50 -6 6 -6 16 -2 24 16 25
156 208 160 208 2 0 4 -33 4 -73z m-1560 -73 c0 -7 6 -17 14 -21 8 -4 31 -30
53 -58 35 -45 38 -53 31 -83 -5 -18 -15 -35 -23 -38 -10 -4 -13 -17 -10 -43 4
-31 -2 -47 -35 -96 -22 -33 -40 -66 -40 -74 0 -11 -3 -11 -15 -1 -20 17 -19
27 5 52 22 24 26 43 10 53 -5 3 -10 17 -10 30 0 18 7 25 30 30 17 4 30 10 30
15 0 4 -16 4 -35 0 -47 -11 -59 11 -50 88 9 69 16 141 16 165 0 15 3 16 15 7
8 -7 14 -18 14 -26z m975 -54 c65 -35 91 -54 93 -70 4 -21 3 -21 -125 -15 -70
4 -129 8 -130 9 -2 1 -5 144 -4 159 1 4 18 -2 39 -13 20 -12 78 -43 127 -70z
m1457 20 c11 -98 8 -263 -7 -355 -14 -90 -58 -233 -89 -290 -9 -16 -16 -33
-16 -37 0 -14 -104 -185 -143 -237 -58 -76 -151 -169 -219 -219 -58 -42 -225
-142 -238 -142 -4 0 -15 28 -25 63 -9 34 -32 107 -51 162 -32 93 -35 112 -40
260 -3 97 -2 156 4 150 5 -5 35 -53 67 -105 80 -129 194 -300 201 -300 7 0 8
-1 -132 220 -109 174 -124 202 -133 260 -13 78 -13 90 -3 90 4 0 43 -35 87
-77 123 -120 357 -332 390 -356 l30 -21 -20 23 c-11 13 -74 73 -140 134 -66
60 -171 160 -232 220 l-113 111 0 58 c0 32 1 58 3 58 2 0 73 -30 158 -66 381
-163 461 -196 466 -191 2 3 -11 11 -29 20 -72 33 -272 120 -428 186 l-165 69
-3 41 c-4 49 -14 47 173 26 232 -26 348 -35 475 -40 l125 -4 -130 14 c-71 7
-246 26 -387 41 l-258 27 0 46 0 46 178 33 c263 50 438 88 522 116 107 35 114
33 122 -34z m-1277 -94 c-8 -14 -12 -43 -10 -84 3 -54 8 -67 30 -86 25 -21 25
-23 12 -62 -8 -21 -18 -57 -21 -79 -4 -22 -16 -56 -26 -75 -18 -33 -19 -33
-20 -10 0 14 4 40 9 58 6 20 6 32 0 32 -5 0 -2 16 6 36 20 47 19 54 -3 26 -18
-23 -18 -22 -18 62 0 52 5 86 11 86 5 0 2 7 -8 14 -12 9 -14 16 -7 21 5 3 8
10 5 15 -3 5 -1 11 4 15 6 3 8 12 4 20 -3 10 1 15 13 15 18 1 18 1 2 14 -10 7
-18 21 -18 31 0 17 3 16 24 -4 22 -21 23 -26 11 -45z m165 18 c46 -19 60 -38
60 -85 0 -23 -10 -41 -38 -69 -37 -38 -38 -38 -84 -28 -37 9 -50 18 -64 43
-30 56 2 134 61 148 11 3 21 5 22 6 2 0 21 -6 43 -15z m-256 -65 c26 -24 -4
-37 -244 -106 -12 -3 -14 7 -12 61 l4 66 121 -6 c67 -4 126 -10 131 -15z m504
-25 l1 -37 -54 7 c-69 8 -74 -10 -5 -19 28 -4 51 -10 51 -13 6 -24 6 -172 0
-170 -3 2 -36 35 -73 73 -56 60 -65 74 -61 98 3 15 10 27 15 27 6 0 5 6 -2 15
-21 25 -5 40 56 51 32 6 62 9 65 8 3 -2 6 -20 7 -40z m-1461 -36 c-1 -41 12
-116 34 -201 6 -22 8 -42 4 -45 -7 -7 -135 59 -135 70 0 4 20 38 44 75 35 54
42 72 35 90 -9 24 -3 53 11 53 5 0 8 -19 7 -42z m953 -32 c0 -27 -5 -36 -22
-42 -13 -4 -25 -9 -28 -13 -3 -3 -14 -11 -25 -18 -120 -73 -173 -103 -178
-103 -4 0 -7 17 -6 38 0 30 2 33 10 17 6 -15 8 -7 6 30 l-2 50 85 28 c47 15
93 29 102 30 10 2 21 6 24 10 18 18 34 5 34 -27z m-318 -132 c2 -42 1 -79 -2
-83 -3 -4 -39 -27 -80 -51 -126 -73 -311 -192 -306 -197 3 -3 51 24 108 59
150 94 263 158 277 158 16 0 5 -258 -12 -281 -7 -9 -51 -66 -99 -125 -49 -60
-88 -113 -88 -119 1 -11 14 3 120 135 l75 94 8 -75 c25 -247 34 -287 83 -360
19 -28 33 -53 31 -56 -2 -2 -21 9 -43 24 -21 14 -66 44 -99 66 -178 119 -280
226 -411 434 -55 88 -122 268 -111 297 3 8 54 25 114 40 114 28 287 75 363
100 70 22 68 23 72 -60z m304 44 c-15 -42 -66 -121 -108 -167 l-33 -36 -6 38
c-3 20 -9 40 -12 43 -7 7 0 -63 7 -75 5 -8 -37 -84 -50 -88 -5 -2 -9 7 -10 20
0 12 -3 51 -7 87 l-6 66 72 44 c40 24 90 57 111 72 50 36 56 35 42 -4z m304 1
c0 -24 38 -146 110 -349 26 -74 66 -191 89 -260 119 -363 296 -873 340 -979
17 -41 31 -76 31 -78 0 -2 -14 -3 -32 -1 l-31 3 -146 435 c-143 427 -295 891
-347 1060 -14 47 -35 104 -45 128 -21 46 -18 62 12 62 13 0 19 -7 19 -21z
m-100 6 c0 -3 -12 -52 -26 -108 -14 -56 -32 -131 -40 -167 -8 -36 -25 -96 -38
-135 -45 -131 -76 -236 -76 -255 0 -10 -5 -22 -10 -25 -6 -4 -10 -12 -8 -18 4
-22 -38 -173 -52 -187 -3 -3 -6 -18 -8 -34 -2 -16 -10 -39 -18 -50 -8 -11 -14
-33 -14 -48 0 -15 -7 -53 -16 -85 -59 -211 -98 -362 -117 -455 -21 -102 -23
-108 -47 -109 -14 0 -36 -2 -48 -5 -16 -3 -22 0 -19 8 3 7 18 51 33 98 15 47
76 234 135 415 59 182 121 384 139 450 18 66 45 158 60 205 16 47 45 148 65
224 53 207 79 286 93 286 6 0 12 -2 12 -5z m-1369 -43 c34 -21 37 -28 58 -123
l23 -101 -21 -22 c-32 -34 -30 -110 3 -132 14 -8 35 -14 48 -12 20 3 30 -11
81 -112 54 -109 56 -115 37 -124 -22 -10 -31 -31 -32 -77 -2 -47 24 -62 93
-56 l57 5 66 -67 c41 -41 63 -70 57 -76 -5 -6 -12 -29 -16 -52 -6 -40 -5 -43
27 -63 43 -26 82 -25 108 2 l21 23 85 -45 c81 -43 119 -70 96 -70 -5 0 -15
-13 -22 -30 -10 -25 -10 -34 4 -55 25 -37 63 -49 93 -30 13 9 29 27 35 41 11
23 32 32 42 16 2 -4 -9 -48 -25 -97 -17 -50 -46 -146 -65 -215 -19 -69 -37
-133 -40 -142 -4 -14 -19 -18 -72 -20 -61 -3 -67 -5 -72 -28 -7 -30 -32 -37
-57 -15 -59 51 -93 75 -102 73 -20 -6 -197 170 -271 270 -135 181 -202 347
-250 614 -34 190 -33 181 -21 174 5 -3 17 -38 27 -78 9 -40 19 -68 21 -62 2 7
-7 52 -21 101 -14 50 -30 130 -36 179 -11 103 -14 437 -2 432 4 -2 23 -13 43
-26z m1608 -93 l79 -120 0 -103 c0 -56 2 -118 6 -137 l6 -34 -18 40 c-10 22
-44 119 -76 215 -79 239 -86 260 -80 260 2 0 40 -54 83 -121z m-438 1 c-12 -7
-44 -63 -79 -136 -11 -23 -25 -44 -30 -48 -9 -5 -8 -93 1 -102 2 -3 7 13 11
34 7 46 64 172 77 172 9 0 14 -28 11 -62 -3 -29 -44 -108 -53 -102 -5 3 -9 -3
-9 -13 0 -10 -18 -53 -39 -95 -21 -42 -41 -88 -45 -101 -3 -14 -13 -27 -21
-31 -13 -4 -14 -2 -5 14 5 10 10 28 10 39 0 11 7 24 16 29 13 7 17 29 20 101
2 52 -1 91 -7 91 -5 0 -9 -11 -9 -25 0 -14 -5 -25 -11 -25 -8 0 -10 -18 -6
-60 4 -32 3 -61 -2 -64 -5 -3 -12 25 -15 62 -4 37 -9 83 -12 102 -3 25 0 41
13 55 10 11 56 71 103 134 l85 113 3 -37 c2 -21 -1 -41 -7 -45z m284 -70 c42
-141 92 -290 141 -428 46 -125 45 -137 -8 -150 -46 -12 -68 -15 -109 -13 -25
1 -27 5 -33 64 -15 140 -36 447 -36 515 0 43 -4 72 -10 72 -20 0 13 -564 35
-622 11 -29 -15 -21 -70 20 -34 25 -59 55 -78 93 l-28 56 17 74 c9 41 20 81
25 90 5 10 25 77 44 150 19 74 40 142 45 151 6 10 10 30 10 45 0 47 16 13 55
-117z m-1322 109 c30 4 127 -60 141 -94 41 -95 41 -97 -3 -66 -14 10 -46 24
-70 31 -38 10 -44 9 -56 -7 -12 -16 -14 -12 -21 32 -4 27 -13 65 -21 83 -11
27 -11 32 -1 26 7 -5 21 -7 31 -5z m2512 -168 c4 -17 0 -44 -9 -66 -9 -21 -16
-47 -16 -59 0 -24 -54 -131 -66 -131 -5 0 -9 12 -11 27 -1 14 -8 49 -17 77 -8
28 -12 51 -9 51 3 0 0 6 -6 14 -15 18 2 66 23 66 9 0 20 9 26 19 9 17 26 25
67 30 6 0 14 -12 18 -28z m-2405 -1 c12 -12 17 -26 13 -36 -5 -15 -3 -15 21 1
15 10 30 14 34 10 4 -4 1 -10 -5 -12 -7 -3 -13 -9 -13 -14 0 -4 7 -6 15 -3 8
4 15 4 15 2 0 -2 9 -28 20 -58 11 -30 20 -55 20 -56 0 0 -30 14 -67 32 -38 18
-76 35 -86 38 -17 5 -56 77 -57 104 0 20 67 15 90 -8z m950 -60 c-7 -4 -12
-27 -12 -50 1 -52 -51 -288 -73 -330 -8 -16 -15 -37 -15 -48 0 -10 -4 -22 -9
-28 -4 -5 -14 -31 -21 -59 -7 -27 -19 -61 -25 -74 -12 -23 -13 -22 -34 35 -11
32 -25 66 -30 75 -5 9 -6 31 -1 50 12 52 58 149 71 149 5 0 8 -8 6 -17 -9 -33
-20 -98 -18 -107 1 -4 -3 -14 -8 -20 -14 -16 -8 -83 8 -99 7 -6 12 -7 11 -2
-2 6 -2 30 -1 55 1 33 4 41 11 30 7 -11 10 -7 10 18 0 18 6 45 14 60 7 15 16
40 20 55 6 25 5 28 -14 22 -11 -4 -20 -2 -20 4 0 6 4 11 9 11 4 0 6 11 3 25
-4 25 4 47 81 207 30 61 43 81 45 66 2 -11 -2 -24 -8 -28z m1575 -77 c-3 -25
-10 -52 -16 -59 -5 -7 -6 -14 -1 -16 5 -1 6 -22 4 -46 -3 -32 -8 -42 -18 -38
-16 6 -19 -21 -4 -44 6 -9 5 -20 -3 -29 -10 -12 -9 -13 2 -7 9 6 12 5 9 -5 -3
-8 -13 -13 -22 -13 -9 1 -16 -2 -16 -7 0 -5 -3 -9 -7 -9 -6 0 -1 288 5 298 8
10 22 -2 22 -19 0 -11 4 -18 9 -15 5 3 7 15 4 25 -3 13 1 21 14 24 10 3 19 5
21 6 1 0 0 -20 -3 -46z m-2462 -21 l38 -27 -3 -80 c-1 -44 1 -86 5 -92 4 -6 3
-15 -3 -18 -8 -5 -7 -12 2 -23 11 -15 11 -15 -3 -5 -8 7 -42 65 -74 128 -32
64 -62 118 -67 121 -18 11 -6 20 29 21 25 1 50 -7 76 -25z m113 -93 c27 -40
70 -99 96 -132 27 -33 47 -62 45 -63 -6 -6 -107 15 -152 30 -38 13 -40 17 -46
63 -5 36 -4 128 1 171 1 9 13 -7 56 -69z m2105 -67 c-32 -65 -27 -58 -109
-166 -41 -53 -78 -96 -83 -96 -24 0 -29 12 -32 85 -2 36 1 41 33 57 19 9 46
20 60 22 31 7 94 45 87 53 -3 3 -20 -2 -38 -11 -18 -9 -40 -16 -50 -16 -10 0
-21 -4 -24 -10 -3 -5 -15 -10 -26 -10 -11 0 -22 -7 -25 -15 -4 -8 -13 -15 -21
-15 -11 0 -8 12 13 49 34 64 59 87 136 126 62 32 63 32 83 14 20 -19 20 -19
-4 -67z m-1260 -109 c7 -27 21 -63 32 -81 11 -19 17 -41 13 -55 -6 -27 10 -61
18 -37 3 8 6 23 8 32 2 12 7 15 17 9 12 -8 12 -13 -3 -36 -13 -19 -14 -30 -7
-39 17 -21 -12 -41 -38 -26 -18 9 -22 6 -36 -26 -13 -31 -17 -34 -30 -24 -11
9 -15 9 -15 1 0 -6 7 -14 15 -17 14 -6 22 -34 10 -34 -11 0 -79 31 -92 42 -8
6 -10 15 -4 22 5 6 12 26 16 44 3 17 12 32 18 32 7 0 12 12 13 28 0 15 3 41 6
57 3 17 12 60 19 97 7 37 15 65 19 63 4 -3 13 -26 21 -52z m1326 18 c21 -6 35
-5 43 2 9 9 10 6 6 -13 -3 -14 -8 -52 -11 -85 -7 -69 -49 -235 -69 -274 -8
-14 -30 -66 -49 -116 -61 -158 -155 -297 -270 -397 -77 -68 -131 -108 -144
-108 -9 0 -31 55 -93 235 -23 66 -48 138 -56 160 -20 57 -14 81 20 77 24 -3
27 0 21 17 -10 32 11 25 25 -9 22 -53 -11 -81 -52 -43 -14 13 -18 13 -18 2 1
-43 74 -73 104 -43 11 10 13 20 7 28 -13 16 -18 55 -6 53 6 -1 9 -8 7 -15 -2
-8 2 -12 10 -10 7 3 14 14 16 25 2 16 -5 24 -30 33 l-33 11 32 26 c18 14 71
50 119 79 82 52 88 54 110 39 27 -18 100 -23 115 -8 5 5 12 26 15 45 5 28 2
40 -15 57 l-22 22 22 32 c52 74 145 187 154 187 6 0 24 -4 42 -9z m-2164 -36
c20 -8 49 -15 65 -15 49 0 59 -17 66 -108 6 -80 6 -82 -14 -72 -11 6 -24 19
-30 31 -6 11 -16 17 -21 13 -14 -8 -65 40 -100 95 -46 71 -37 86 34 56z m1854
-67 c6 -40 10 -75 8 -78 -2 -3 -35 -1 -74 4 -70 10 -71 9 -108 -21 -26 -20
-42 -44 -51 -74 -7 -24 -19 -57 -28 -73 -8 -16 -12 -31 -10 -34 11 -11 36 23
46 62 19 73 30 91 66 111 30 16 41 17 85 7 28 -7 55 -10 60 -6 14 8 11 -4 -7
-32 -16 -24 -204 -153 -273 -187 -26 -13 -38 -14 -55 -5 -19 10 -20 10 -7 -6
12 -14 12 -18 -5 -31 -17 -13 -20 -11 -31 13 -17 39 -16 65 2 58 12 -4 14 0
10 17 -9 32 52 106 128 155 73 47 180 137 202 170 9 12 19 22 23 22 4 0 13
-33 19 -72z m-1527 -93 c36 -24 77 -49 93 -56 15 -7 27 -19 28 -28 0 -9 3 -11
5 -4 4 8 17 6 47 -8 23 -10 50 -19 60 -19 27 0 31 -26 12 -88 -22 -71 -28 -79
-57 -65 -13 6 -45 19 -73 28 -88 31 -241 127 -230 145 3 4 -7 17 -22 28 -25
18 -29 30 -39 109 -6 48 -9 92 -7 96 3 4 30 -16 61 -44 31 -28 86 -71 122 -94z
m999 -230 c31 -83 30 -87 -39 -107 -32 -10 -68 -18 -78 -18 -10 0 -22 -3 -26
-7 -7 -7 -10 -8 -88 -19 -39 -5 -49 -4 -54 10 -3 9 -12 16 -19 16 -16 0 -157
93 -176 116 -12 15 -6 16 75 11 62 -4 102 -1 137 9 27 8 66 14 87 14 20 -1 60
5 87 13 73 21 72 22 94 -38z m-549 6 c25 -9 70 -36 100 -60 30 -24 70 -53 88
-64 17 -10 32 -23 32 -27 0 -13 -83 -20 -125 -10 -22 5 -64 10 -93 10 -51 0
-122 21 -122 36 0 4 7 32 16 63 9 31 18 62 20 70 3 8 10 10 22 6 9 -5 37 -15
62 -24z m660 -341 c37 -113 71 -212 74 -220 5 -13 -53 -15 -484 -18 -269 -2
-490 1 -490 5 0 16 100 406 105 411 3 3 21 -2 40 -11 20 -9 42 -17 50 -17 8 0
15 -4 15 -10 0 -5 -5 -10 -11 -10 -6 0 -9 -7 -5 -15 3 -8 1 -15 -4 -15 -6 0
-10 7 -10 16 0 9 -6 14 -12 11 -16 -5 -11 -37 10 -60 8 -9 32 -22 52 -28 64
-19 127 30 101 80 -10 18 -6 19 112 20 67 1 138 4 157 6 34 5 100 -13 100 -25
0 -4 -8 -14 -19 -24 -14 -13 -24 -14 -44 -7 -15 6 -25 16 -22 23 3 8 -4 14
-20 14 -16 1 -25 -3 -25 -13 0 -23 47 -63 74 -63 67 0 112 59 68 88 -26 17
-29 37 -5 28 9 -4 20 -1 24 6 8 12 76 37 93 34 5 -1 39 -94 76 -206z m-497
-275 c369 1 683 -2 697 -6 14 -4 18 -7 10 -8 -8 -1 -42 -14 -75 -30 -59 -28
-74 -33 -185 -65 -61 -18 -293 -56 -340 -56 -31 0 -40 -14 -17 -24 18 -9 -207
3 -388 20 -146 14 -166 18 -230 50 -39 19 -75 34 -80 34 -6 0 -28 12 -49 26
-26 18 -35 29 -28 36 6 6 9 16 8 22 -2 6 -1 9 1 6 1 -3 306 -5 676 -5z m-673
-105 c30 -15 81 -36 113 -46 31 -10 57 -20 57 -23 0 -4 -58 -6 -130 -6 l-130
0 0 35 c0 19 -3 46 -7 59 -5 21 -4 23 18 16 13 -4 49 -20 79 -35z"/>
<path d="M3150 5969 c-3 -361 18 -970 33 -986 6 -6 11 34 10 82 -2 80 -24 706
-29 815 -6 139 -14 186 -14 89z"/>
<path d="M13260 7955 c0 -25 -2 -26 -37 -18 -46 9 -342 9 -753 0 -168 -4 -311
-7 -319 -7 -11 0 -11 -3 -1 -15 10 -12 9 -16 -4 -21 -9 -3 -14 -10 -11 -15 3
-4 -3 -36 -14 -71 -27 -90 -44 -173 -39 -189 3 -8 -2 -20 -11 -27 -12 -10 -13
-15 -3 -18 17 -8 15 -30 -5 -49 -11 -12 -16 -31 -14 -56 1 -22 -2 -39 -7 -39
-5 0 -8 -12 -6 -27 1 -15 -1 -30 -7 -33 -5 -4 -11 -29 -14 -56 -3 -28 -16
-102 -30 -165 -14 -63 -34 -157 -45 -209 -10 -52 -26 -129 -35 -170 -9 -41
-30 -145 -46 -230 -30 -160 -76 -377 -84 -395 -2 -5 -2 24 0 65 l5 75 -16 -80
c-82 -419 -118 -588 -154 -740 -33 -138 -34 -146 -19 -156 11 -7 11 -9 -2 -9
-13 0 -19 -19 -29 -97 -12 -104 -61 -338 -80 -388 -11 -30 -45 -169 -110 -460
-21 -93 -47 -204 -58 -245 -11 -41 -27 -113 -36 -160 -22 -124 -43 -218 -65
-291 -22 -74 -52 -209 -92 -419 -6 -30 -9 -80 -5 -110 6 -59 -14 -148 -37
-162 -8 -5 -9 -10 -1 -18 12 -12 47 -3 39 11 -8 11 5 59 16 59 5 0 11 -12 15
-27 3 -16 12 -42 20 -60 8 -17 14 -39 14 -50 1 -10 7 -29 15 -43 19 -32 19
-61 1 -54 -7 3 -16 -2 -19 -10 -5 -12 -2 -13 19 -6 18 7 33 6 52 -3 18 -9 45
-11 82 -6 30 4 98 8 150 9 67 2 86 5 65 10 -19 5 14 8 93 9 82 1 122 -3 122
-10 0 -8 65 -9 224 -3 209 6 224 6 234 -11 9 -17 10 -17 17 4 6 20 11 22 46
16 25 -4 39 -3 39 4 0 6 -14 11 -30 11 -30 0 -31 1 -24 38 4 20 12 48 19 62 7
14 10 31 8 38 -4 9 17 11 94 6 54 -3 112 -7 130 -7 17 -1 35 -5 39 -10 11 -11
26 -9 19 3 -3 6 1 10 9 10 9 0 16 -5 16 -11 0 -8 38 -9 133 -4 72 3 140 6 150
6 9 0 17 5 17 10 0 6 -46 9 -125 6 -69 -2 -128 0 -131 5 -3 4 20 8 50 8 35 0
56 4 56 11 0 9 -19 10 -67 4 -76 -8 -103 -9 -254 -5 -59 1 -112 -1 -118 -5 -8
-5 -10 2 -5 22 4 15 8 30 10 32 2 2 42 -2 88 -9 58 -9 123 -11 203 -6 181 10
257 17 262 22 4 3 -81 8 -101 5 -15 -2 -304 0 -330 3 -16 1 -31 6 -35 9 -3 4
81 8 188 8 298 2 337 4 345 12 4 4 -107 7 -247 7 -147 0 -260 4 -269 10 -11 7
0 10 38 10 33 0 51 4 47 10 -11 18 -81 11 -99 -9 -11 -12 -28 -18 -44 -17 -32
4 -38 18 -17 39 10 10 12 18 5 22 -6 4 -9 22 -5 42 10 63 36 188 42 203 4 8 8
26 9 40 16 131 26 186 43 250 12 41 20 82 18 90 -4 14 33 15 317 12 177 -1
332 -4 345 -5 21 -2 25 -8 28 -47 2 -25 11 -50 19 -56 13 -10 13 -12 0 -17
-13 -5 -13 -12 -4 -39 6 -18 18 -39 25 -46 7 -7 13 -23 13 -35 0 -18 -2 -19
-10 -7 -8 12 -10 10 -10 -8 0 -13 4 -20 10 -17 6 3 10 1 10 -4 0 -6 -5 -11
-11 -11 -6 0 -8 -7 -5 -16 8 -21 54 -255 61 -310 4 -28 21 -60 58 -107 18 -23
27 -45 24 -57 -4 -14 4 -25 29 -40 18 -12 42 -33 53 -48 l20 -27 1 28 c0 37
-25 83 -66 122 -19 18 -34 37 -34 44 0 6 -9 20 -20 31 -24 24 -28 49 -4 29 14
-11 15 -9 9 23 -6 30 -4 36 14 41 17 4 20 1 16 -16 -6 -27 28 -140 44 -145 16
-5 14 19 -4 56 -9 17 -17 56 -18 86 -3 56 6 75 16 34 22 -99 66 -311 71 -347
l7 -44 -30 6 c-17 4 -33 2 -36 -2 -14 -23 178 -34 450 -25 83 2 267 1 410 -3
l260 -8 17 -65 c9 -36 22 -78 28 -94 19 -50 22 -21 4 45 -9 35 -18 78 -20 94
-2 17 -8 46 -13 65 -18 68 -65 273 -66 289 -1 9 -6 25 -12 36 -11 20 -40 144
-87 375 -15 69 -42 195 -62 280 -19 85 -36 173 -37 195 0 22 -7 46 -13 52 -14
14 -44 140 -69 283 -9 52 -19 98 -22 102 -2 5 0 14 5 21 6 7 8 25 5 42 -5 23
-8 26 -12 12 -4 -10 -7 6 -7 35 0 29 -6 64 -14 78 -7 13 -14 39 -16 57 -2 18
-10 53 -19 79 -8 25 -13 55 -9 66 4 15 3 18 -6 13 -10 -6 -11 -1 -6 19 3 14 3
26 -2 26 -4 0 -8 16 -9 35 -1 20 -6 41 -12 49 -6 7 -8 15 -5 19 3 3 1 14 -5
25 -6 12 -13 36 -15 54 -10 75 -60 289 -97 421 -42 145 -57 206 -89 372 -10
55 -35 172 -55 260 -19 88 -42 194 -50 235 -18 90 -63 283 -75 325 -5 17 -11
53 -13 80 -3 28 -14 81 -26 120 -12 38 -28 107 -36 152 -8 46 -23 114 -34 151
-19 65 -41 168 -76 342 -21 106 -31 132 -72 197 -18 29 -33 55 -33 58 0 4 -15
25 -34 47 -19 22 -37 52 -41 66 -9 40 -29 82 -37 82 -5 0 -8 -11 -8 -25z
m-905 -51 c61 -3 291 -5 512 -5 l402 2 16 -38 c9 -20 19 -40 23 -43 10 -7 52
-68 52 -75 0 -3 12 -24 26 -46 14 -23 24 -43 21 -45 -2 -2 -246 -4 -542 -5
l-539 -1 -3 23 c-3 13 -4 38 -4 54 0 17 -3 41 -7 55 -4 17 -8 2 -12 -50 l-5
-75 -19 40 c-10 22 -38 79 -62 127 -23 48 -39 89 -36 92 3 4 19 4 36 2 17 -3
81 -8 141 -12z m-165 -117 c0 -5 21 -52 46 -105 l46 -96 -22 -85 c-13 -48 -31
-126 -40 -176 -9 -49 -26 -124 -38 -165 -11 -41 -28 -111 -38 -155 -9 -44 -24
-88 -32 -97 -8 -10 -13 -18 -10 -18 3 0 -1 -28 -8 -62 -25 -128 -85 -416 -104
-503 -11 -49 -29 -142 -41 -205 -11 -63 -45 -217 -74 -341 -29 -124 -60 -261
-69 -305 -42 -220 -156 -684 -169 -684 -4 0 -6 9 -3 20 3 11 9 29 12 40 3 11
1 20 -5 20 -6 0 -11 -6 -12 -12 0 -7 -3 -22 -5 -33 -3 -11 -5 -30 -6 -43 0
-12 -4 -24 -8 -27 -3 -2 -6 -25 -5 -50 1 -25 -2 -45 -6 -45 -5 0 -9 -7 -9 -16
0 -8 5 -12 10 -9 12 7 12 3 4 -19 -3 -9 -10 -14 -14 -11 -4 3 -8 -12 -7 -33 0
-38 -19 -142 -28 -150 -3 -3 -5 8 -6 24 0 25 -2 26 -9 9 -5 -11 -9 -33 -9 -50
-1 -23 2 -26 9 -15 8 13 10 12 10 -2 0 -10 -4 -18 -10 -18 -5 0 -10 -9 -10
-21 0 -12 -7 -51 -14 -88 -8 -36 -22 -102 -31 -146 -23 -114 -74 -326 -84
-350 -18 -41 2 72 36 210 46 185 67 296 80 430 3 33 10 65 15 72 6 7 5 14 -2
18 -8 5 -6 14 7 28 10 11 12 17 6 13 -7 -4 -13 -2 -13 4 0 6 -4 9 -9 6 -5 -4
-12 -45 -16 -94 -4 -48 -11 -105 -17 -127 -5 -21 -11 -53 -13 -70 -4 -35 -23
-88 -24 -64 -1 8 8 67 20 130 12 71 16 115 10 117 -6 2 -7 11 -1 25 8 20 21
84 19 97 0 3 6 21 14 40 8 19 12 41 10 48 -3 6 -1 12 4 12 5 0 9 8 10 18 1 9
5 45 9 80 4 40 3 62 -3 62 -6 0 -13 -26 -16 -57 -7 -76 -16 -134 -23 -144 -12
-20 -24 -7 -19 19 2 16 7 44 9 63 11 85 32 143 49 132 6 -4 8 4 5 21 -4 17 -1
26 8 26 8 0 11 6 8 15 -4 8 -1 15 4 15 10 0 10 45 0 55 -7 8 17 158 51 312 16
76 37 179 46 228 22 123 30 163 60 291 14 61 25 118 25 128 0 9 3 15 8 13 4
-3 8 14 9 37 1 22 7 57 12 76 6 19 17 69 26 110 9 41 25 109 35 150 21 88 41
178 75 350 57 287 119 571 161 740 26 108 34 144 53 240 5 30 12 65 15 77 2
11 8 43 12 69 6 43 8 46 20 29 8 -10 14 -23 14 -28z m1248 -242 c28 -149 35
-184 69 -320 38 -155 104 -459 163 -750 21 -104 55 -253 75 -330 20 -77 34
-151 32 -164 -3 -14 1 -44 8 -68 7 -24 11 -43 9 -43 -2 0 1 -12 7 -27 15 -38
22 -72 23 -108 1 -16 6 -33 13 -38 7 -4 10 -14 7 -21 -3 -7 2 -40 10 -72 8
-33 17 -70 20 -84 2 -14 7 -32 10 -40 3 -8 8 -26 10 -40 3 -14 12 -45 21 -70
9 -25 18 -57 20 -72 7 -55 27 -143 35 -153 5 -6 10 -28 12 -50 2 -22 7 -46 12
-53 4 -6 9 -31 12 -54 2 -24 7 -49 10 -57 2 -8 7 -30 10 -49 7 -43 -12 -35
-21 9 -4 17 -9 28 -11 26 -8 -7 18 -97 29 -104 6 -4 8 0 4 10 -3 10 -3 17 2
17 5 0 11 -11 13 -24 4 -17 1 -23 -9 -19 -18 7 -17 -12 2 -31 17 -17 20 -30 4
-20 -7 4 -9 0 -6 -12 3 -11 9 -38 12 -62 4 -23 10 -40 14 -38 4 3 8 -16 9 -42
1 -26 6 -48 11 -50 6 -2 7 -10 4 -19 -4 -10 -2 -14 4 -10 6 4 13 0 17 -8 3 -8
0 -17 -6 -21 -7 -4 -7 -8 0 -13 12 -7 24 -53 24 -88 0 -13 3 -23 7 -23 5 0 9
-23 10 -52 1 -29 5 -55 10 -58 9 -5 36 -117 71 -295 12 -60 30 -141 40 -180
19 -73 23 -92 120 -525 59 -264 83 -353 106 -400 l12 -25 -412 2 c-226 1 -450
3 -498 3 l-86 0 -7 43 c-3 23 -12 71 -20 107 -8 36 -24 124 -35 195 -11 72
-25 157 -31 189 -6 33 -13 82 -15 110 -2 28 -15 105 -29 171 -13 66 -25 136
-27 155 -2 29 -7 34 -23 32 -11 -2 -74 -2 -140 0 -160 4 -349 2 -464 -5 -60
-4 -99 -3 -107 4 -8 6 -20 7 -31 2 -10 -5 -34 -10 -53 -12 -60 -4 -105 -17
-103 -29 2 -7 -1 -12 -6 -12 -5 0 -11 -18 -15 -40 -3 -22 -28 -106 -55 -187
-50 -150 -64 -200 -101 -355 -21 -92 -26 -142 -10 -100 5 12 22 74 37 137 14
63 31 115 36 115 5 0 6 -8 2 -17 -9 -23 -35 -147 -41 -193 -2 -19 -10 -55 -18
-80 -8 -25 -14 -62 -14 -84 0 -21 -4 -41 -9 -45 -4 -3 -8 -16 -9 -28 0 -13 -1
-36 -2 -53 l-2 -30 -69 0 c-38 0 -103 4 -143 10 -129 18 -198 21 -470 23 -146
1 -269 5 -272 8 -4 3 7 57 23 120 33 129 122 514 126 544 1 11 5 27 8 35 14
38 37 152 33 159 -3 4 -1 23 4 42 5 19 12 50 14 69 6 43 39 191 61 280 9 36
18 76 20 90 2 14 8 45 14 69 5 25 7 49 5 53 -8 12 6 49 16 43 5 -3 6 -13 3
-22 -4 -10 -2 -14 4 -10 9 6 21 44 27 87 3 18 14 74 21 110 3 14 10 51 16 82
5 32 14 69 19 82 5 13 10 47 12 75 2 30 8 53 16 56 10 3 10 10 2 24 -8 15 -7
22 5 29 9 4 17 26 20 48 2 21 4 39 5 39 4 0 19 72 34 165 4 19 11 51 16 70 14
51 77 325 90 395 16 79 21 103 63 280 19 83 47 215 61 295 25 137 45 235 67
325 11 47 16 70 28 147 6 31 15 66 21 77 6 12 8 21 5 21 -3 0 1 15 9 34 8 19
28 95 45 168 58 252 143 583 153 595 5 7 7 17 3 22 -3 6 -1 19 5 30 13 26 11
26 600 26 l495 0 13 -70z"/>
<path d="M12691 6829 c-49 -8 -241 -85 -241 -96 0 -2 9 -1 20 2 30 9 24 -2 -9
-19 -15 -8 -50 -32 -77 -52 -27 -21 -43 -30 -35 -20 8 9 11 19 7 23 -20 20
-165 -189 -212 -307 -62 -151 -75 -362 -35 -522 12 -49 20 -92 16 -97 -3 -5 0
-13 6 -16 6 -4 13 -14 17 -24 19 -45 330 -625 394 -733 39 -66 39 -67 29 -124
-6 -31 -18 -66 -28 -76 -9 -11 -11 -18 -5 -18 16 0 15 -31 -3 -115 -9 -45 -11
-73 -5 -79 6 -6 10 -21 11 -35 0 -26 0 -26 11 -4 9 18 20 23 67 25 31 2 68 -1
83 -5 19 -6 37 -4 58 6 29 15 30 15 61 -21 18 -21 33 -32 36 -25 3 8 26 10 79
6 51 -4 74 -2 74 5 0 8 14 9 39 6 22 -3 47 -1 57 4 11 6 32 5 63 -5 29 -8 71
-12 116 -8 38 2 113 5 165 6 115 2 166 17 70 20 -138 5 -165 5 -175 0 -17 -9
-75 -8 -81 1 -3 4 12 8 34 8 47 0 104 18 96 31 -3 5 2 9 11 9 9 0 14 -4 11 -9
-4 -5 2 -8 11 -6 63 13 93 13 87 2 -5 -9 -4 -9 6 0 7 6 20 9 29 6 12 -3 11 -1
-3 7 -19 13 -105 16 -219 10 -101 -6 -106 2 -141 265 -20 141 -24 121 56 271
40 77 72 142 70 146 -1 5 32 75 73 157 41 82 75 152 75 155 0 4 9 26 19 49 18
40 51 128 92 247 11 31 22 98 26 155 5 83 2 114 -15 183 -55 218 -189 424
-325 502 -29 16 -58 30 -65 30 -7 0 -30 12 -51 26 -21 14 -62 31 -91 39 -68
18 -289 27 -359 14z m333 -55 c97 -24 146 -45 221 -93 l70 -44 -48 -14 c-42
-12 -51 -12 -82 3 -19 9 -54 33 -77 53 -24 20 -52 43 -63 51 -19 14 -19 14 -6
-3 8 -10 45 -41 83 -69 37 -28 68 -54 68 -58 0 -4 -53 -22 -117 -40 -168 -46
-328 -98 -397 -128 -55 -24 -59 -25 -71 -9 -40 56 -161 197 -168 197 -12 0 -1
-15 87 -123 48 -59 75 -101 69 -105 -34 -21 -153 -312 -153 -373 0 -42 -6 -48
-262 -238 -16 -12 -18 -11 -18 17 0 16 -7 49 -16 73 -10 30 -15 78 -15 149 0
115 2 125 18 155 6 11 14 36 18 55 11 55 85 230 119 282 30 46 66 62 81 38 4
-6 21 -21 40 -33 18 -12 55 -37 81 -55 l49 -33 -45 41 c-25 23 -69 57 -97 76
-29 18 -53 36 -53 39 0 9 145 102 205 132 33 16 87 38 120 47 33 10 65 19 70
21 31 11 234 3 289 -11z m324 -189 c69 -79 123 -174 167 -295 23 -64 28 -92
29 -187 0 -61 -2 -115 -6 -119 -4 -4 -14 -1 -23 6 -12 10 -15 10 -15 -3 0 -8
6 -20 14 -26 22 -18 27 -56 12 -86 l-14 -26 -28 35 c-33 40 -85 157 -204 456
-45 113 -84 210 -86 216 -5 11 86 52 117 53 8 1 25 -10 37 -24z m-184 -42 c4
-9 2 -19 -3 -22 -5 -3 -15 -84 -22 -178 -7 -95 -16 -173 -19 -173 -4 0 -12 11
-18 25 -20 43 -104 126 -154 151 -112 57 -319 0 -374 -101 -10 -19 -22 -35
-27 -35 -10 0 0 37 19 67 8 12 14 28 14 36 0 45 113 103 334 171 61 19 136 44
166 55 69 25 76 25 84 4z m34 -70 c18 -36 67 -158 141 -353 18 -47 46 -109 62
-139 16 -30 27 -56 25 -58 -2 -2 -53 30 -114 71 -60 42 -126 83 -146 93 -22
10 -35 22 -32 30 11 28 35 262 36 346 0 26 2 47 5 47 2 0 13 -17 23 -37z
m-273 -164 c59 -16 140 -102 160 -172 18 -61 9 -161 -19 -214 -41 -80 -130
-143 -201 -143 -73 0 -159 61 -190 137 -16 39 -22 159 -9 208 16 65 93 173
134 188 25 9 83 7 125 -4z m-403 -255 c-7 -29 -6 -46 3 -58 7 -9 16 -38 20
-64 4 -26 12 -56 17 -66 17 -32 90 -107 118 -121 68 -35 203 -26 278 18 l37
22 -36 -50 c-43 -58 -107 -171 -93 -163 5 3 40 51 78 107 37 55 85 118 105
139 44 46 91 155 91 212 0 22 4 40 10 40 18 0 315 -200 315 -213 0 -6 -99 -61
-220 -122 -121 -60 -263 -136 -315 -167 -52 -31 -103 -60 -112 -63 -12 -5 -28
11 -66 67 -27 40 -77 102 -111 138 -34 36 -56 67 -50 69 7 2 3 12 -10 25 -51
50 -100 134 -85 144 7 5 6 15 -1 29 -7 13 -14 20 -18 17 -3 -3 -3 4 0 16 3 12
11 19 19 16 8 -3 12 3 10 21 -2 15 2 43 8 62 10 33 11 34 14 10 2 -14 -1 -43
-6 -65z m17 -249 c36 -49 103 -137 149 -194 47 -58 79 -102 71 -99 -99 41
-229 97 -289 125 -111 52 -232 104 -254 109 -28 5 -30 11 -6 24 17 9 110 77
175 128 55 43 59 44 75 20 8 -12 44 -63 79 -113z m956 -2 c-1 -10 -21 -57 -44
-105 -22 -48 -54 -120 -71 -160 -16 -40 -55 -118 -85 -173 -31 -55 -69 -129
-84 -165 -50 -114 -170 -335 -182 -332 -6 1 -8 -2 -5 -7 6 -9 -23 -68 -49
-101 -13 -16 -49 -85 -84 -159 -12 -27 -22 -39 -25 -30 -3 8 -8 133 -12 279
-10 391 -12 478 -17 546 l-3 60 40 30 c101 72 432 244 471 244 10 0 16 3 12 6
-7 7 63 45 72 40 3 -2 20 7 36 20 36 29 35 28 30 7z m-1271 -82 c4 -5 25 -16
49 -24 23 -8 114 -46 202 -84 88 -39 195 -85 238 -103 44 -19 81 -38 83 -44 5
-18 34 -665 33 -746 0 -41 2 -93 6 -115 10 -53 -2 -40 -55 60 -24 44 -75 134
-115 200 -75 125 -194 327 -239 405 -36 64 -187 354 -213 412 -18 38 -20 48
-8 48 7 0 16 -4 19 -9z"/>
<path d="M5373 7931 c-23 -15 -61 -45 -83 -65 -35 -32 -44 -35 -57 -24 -14 11
-15 10 -9 -7 11 -36 -166 -195 -218 -195 -18 -1 -18 -2 -5 -10 13 -8 14 -18 6
-72 -12 -75 -14 -903 -4 -1278 11 -384 13 -1622 4 -1995 -4 -176 -9 -379 -11
-452 -1 -76 1 -136 7 -142 10 -10 13 -224 9 -640 -2 -129 1 -238 5 -242 16
-16 180 -31 262 -24 56 5 81 4 77 -3 -7 -12 455 -22 464 -11 7 9 70 20 144 26
42 4 61 1 67 -9 7 -10 11 -10 17 -1 4 6 36 15 72 19 54 7 60 9 35 14 -16 4
-42 5 -57 2 -34 -5 -35 2 -5 38 12 15 48 64 80 108 62 85 107 133 107 114 0
-6 -11 -24 -25 -39 -55 -62 -76 -93 -71 -102 4 -5 2 -13 -4 -16 -7 -4 -1 -16
15 -30 l27 -22 -33 -12 c-18 -6 -30 -13 -28 -16 5 -4 244 14 309 25 3 0 -1 4
-9 9 -8 5 -24 6 -35 2 -29 -10 -99 -3 -108 12 -10 17 2 26 46 31 30 4 37 2 32
-9 -3 -9 1 -15 9 -15 8 0 15 7 15 15 0 8 7 15 15 15 8 0 15 -6 15 -13 0 -10
15 -12 59 -9 34 2 67 -1 81 -8 12 -7 20 -7 16 -2 -4 7 14 8 52 5 31 -3 54 -3
51 1 -9 9 -78 17 -161 17 -48 0 -78 4 -78 11 0 7 -40 9 -122 7 -76 -3 -125 0
-128 6 -6 11 355 34 428 28 25 -3 42 0 42 6 0 10 -48 13 -205 12 -53 0 -56 1
-30 10 17 5 77 10 135 10 71 0 100 3 90 10 -23 15 -291 7 -297 -8 -7 -17 -30
-17 -36 0 -3 9 -7 9 -20 -2 -11 -9 -17 -10 -17 -2 0 6 -5 11 -11 11 -5 0 -8
-4 -4 -9 3 -5 1 -12 -5 -16 -5 -3 -10 -1 -10 5 0 7 -8 9 -22 5 -19 -6 -21 -5
-11 6 7 7 21 14 30 15 10 1 74 7 143 13 69 7 148 15 175 19 l50 8 -45 6 c-25
4 -73 5 -108 3 -34 -1 -65 1 -68 6 -3 5 11 10 30 10 20 1 41 3 46 4 6 1 29 3
52 4 78 2 32 10 -100 16 -104 6 -136 4 -149 -6 -15 -12 -16 -12 -10 4 4 10 7
21 7 23 0 2 7 4 15 4 9 0 15 9 15 21 0 18 -2 19 -15 9 -8 -7 -15 -11 -15 -9
-5 34 -8 159 -4 147 8 -26 24 -22 24 5 0 12 -4 59 -10 105 -9 78 -21 812 -13
812 9 0 85 -170 99 -220 8 -30 24 -80 34 -110 20 -57 158 -489 237 -740 25
-80 59 -180 74 -222 16 -43 29 -84 29 -91 0 -8 7 -20 15 -27 27 -22 16 -30
-42 -30 -35 0 -53 -4 -47 -9 5 -5 171 -11 369 -13 198 -1 340 0 315 3 l-45 6
43 1 c23 1 120 7 215 12 207 13 209 13 273 11 49 -1 52 -2 69 -41 10 -22 20
-38 23 -36 8 8 6 81 -2 94 -8 14 5 38 53 92 16 19 30 30 31 23 0 -7 -13 -28
-30 -46 -16 -19 -30 -41 -30 -48 1 -9 6 -7 16 6 8 11 23 29 32 40 10 11 26 36
36 55 9 19 27 51 39 71 12 20 33 55 47 77 14 23 31 42 38 42 18 0 7 37 -54
180 -30 69 -54 130 -54 135 0 5 -11 32 -24 60 -13 27 -31 70 -41 95 -9 25 -25
63 -35 85 -10 22 -37 90 -60 150 -24 61 -60 151 -80 200 -21 50 -45 117 -55
150 -10 33 -21 65 -25 70 -4 6 -10 24 -14 40 -4 17 -13 44 -21 60 -49 112
-107 287 -102 306 3 11 2 19 -2 19 -3 0 -12 19 -19 43 -8 23 -20 56 -27 72
-56 122 -125 289 -125 303 0 12 -3 13 -12 4 -9 -9 -14 -7 -24 6 -11 14 -9 21
8 40 12 12 28 22 36 22 9 0 6 -7 -9 -20 -19 -15 -20 -19 -8 -20 18 0 33 26 30
51 -1 9 9 25 22 35 12 11 44 45 69 76 26 31 79 90 120 130 42 42 87 100 106
136 36 67 30 84 -9 27 -38 -55 -41 -41 -6 26 24 46 33 56 35 40 4 -28 18 -27
25 2 15 62 56 205 65 228 6 15 9 29 6 32 -2 2 0 15 5 29 10 28 18 96 26 238 3
52 10 156 16 230 14 196 5 288 -47 452 -19 60 -34 119 -34 129 0 11 -4 18 -9
15 -8 -5 -26 27 -42 77 -34 105 -33 115 5 35 14 -29 25 -48 25 -42 1 15 -33
88 -65 139 -13 22 -27 47 -31 55 -8 19 -48 73 -90 124 -38 45 -44 68 -11 40
37 -32 -38 60 -79 97 -103 93 -323 219 -488 280 -49 18 -97 39 -106 47 -11 9
-18 10 -21 2 -2 -7 -52 2 -143 24 -173 43 -301 58 -470 57 -71 0 -307 -2 -522
-3 -309 -2 -393 0 -393 10 0 17 -9 14 -57 -17z m627 -34 c91 1 211 5 267 8
162 8 459 -34 504 -72 8 -6 28 -14 44 -18 45 -10 99 -29 168 -59 21 -9 43 -16
50 -16 14 0 -33 39 -49 40 -5 0 -19 7 -30 16 -18 14 -18 15 6 9 48 -12 267
-102 280 -115 3 -3 30 -18 60 -33 83 -43 131 -72 158 -96 13 -11 27 -21 32
-21 18 0 128 -131 159 -190 19 -36 43 -77 53 -91 25 -33 41 -99 24 -99 -6 0
-1 -8 11 -18 11 -9 24 -32 28 -50 4 -18 13 -46 21 -62 9 -16 13 -34 9 -40 -3
-5 -3 -10 2 -10 8 0 47 -85 49 -105 3 -38 18 -112 24 -120 7 -9 14 -51 27
-155 5 -44 6 -339 1 -363 -4 -18 -23 -25 -23 -8 0 5 -3 12 -6 15 -3 4 -1 31 6
60 7 30 11 69 8 87 -2 19 -5 53 -5 77 -2 37 -4 41 -22 36 -14 -5 -18 -3 -13
10 3 8 2 18 -3 21 -6 4 -10 -1 -10 -10 0 -8 -7 -18 -15 -21 -8 -4 -15 -14 -15
-24 0 -18 -24 -43 -52 -53 -12 -4 -18 3 -23 31 -4 20 -11 42 -17 49 -5 7 -16
57 -24 111 -22 161 -82 320 -173 457 -28 43 -51 80 -51 83 0 12 -54 62 -67 62
-8 0 -13 7 -11 16 2 10 -5 18 -15 19 -9 2 -40 24 -69 50 -69 62 -216 160 -292
195 -140 64 -385 129 -561 150 -159 18 -463 24 -641 11 -188 -13 -706 -33
-711 -27 -2 2 14 17 35 32 51 38 156 128 211 182 25 24 52 48 60 53 10 6 92 7
226 2 116 -4 284 -7 375 -6z m390 -286 c36 -6 97 -16 135 -22 171 -27 408 -99
526 -161 116 -61 324 -243 363 -316 5 -9 24 -33 42 -52 18 -19 49 -67 68 -107
34 -70 100 -296 117 -398 4 -27 12 -63 16 -80 11 -38 11 -54 -2 -63 -14 -10
-14 -52 -1 -52 6 0 4 -5 -4 -11 -12 -8 -10 -9 8 -4 l24 7 -5 -214 c-3 -117 -8
-231 -11 -253 -3 -22 -8 -60 -10 -85 -2 -24 -9 -46 -15 -48 -6 -2 -11 -14 -11
-27 0 -45 -49 -188 -106 -310 -60 -128 -105 -187 -205 -266 -100 -80 -208
-153 -224 -154 -5 0 -11 -10 -13 -22 -2 -15 -17 -28 -44 -40 l-41 -18 38 -5
c37 -5 39 -7 75 -90 20 -47 44 -101 53 -120 35 -76 107 -261 142 -364 20 -60
51 -138 67 -175 56 -123 138 -315 138 -325 0 -24 -7 -12 -192 334 -61 113
-131 243 -158 290 -26 47 -85 162 -133 255 -47 94 -125 242 -174 330 -50 88
-121 216 -160 285 -136 243 -164 300 -151 300 7 0 32 28 55 63 96 141 127 270
125 506 -2 171 -13 228 -68 348 -34 76 -97 152 -164 198 -44 30 -48 47 -6 19
15 -9 29 -14 32 -12 7 8 -100 69 -166 95 -77 31 -171 30 -370 -5 l-35 -6 29
-5 28 -6 -1 -124 c-1 -69 -4 -128 -7 -132 -2 -4 -4 -198 -4 -431 0 -395 5
-565 15 -596 3 -7 0 -23 -6 -34 -18 -33 6 -40 116 -33 144 9 218 29 318 84
l86 49 163 -302 c89 -165 189 -353 221 -416 88 -172 222 -421 292 -545 35 -60
106 -189 158 -285 52 -96 120 -220 150 -275 30 -55 69 -134 85 -175 140 -349
172 -434 169 -444 -2 -6 -103 187 -224 429 -121 242 -272 537 -335 655 -63
118 -186 352 -273 520 -86 168 -162 310 -167 315 -18 18 132 -279 409 -810 40
-77 173 -338 294 -580 224 -445 403 -796 422 -826 16 -26 3 -44 -32 -43 -17 1
-65 2 -106 3 -62 1 -77 4 -82 19 -26 77 -89 204 -111 224 -58 54 -87 62 -241
66 -79 2 -169 1 -199 -3 -48 -6 -60 -12 -94 -50 -22 -24 -55 -51 -74 -60 -34
-16 -34 -16 -35 -88 -1 -40 -1 -87 0 -104 3 -32 2 -33 -38 -33 -26 0 -41 5
-41 13 0 6 -54 176 -120 377 -143 434 -167 507 -215 665 -20 66 -40 131 -45
145 -5 14 -14 45 -20 70 -7 25 -22 56 -35 70 -20 22 -69 116 -96 189 -5 13
-11 91 -13 173 -4 146 -4 149 16 142 15 -4 19 -2 16 7 -3 8 -17 15 -33 17
l-28 4 6 -127 c5 -94 4 -126 -5 -123 -6 2 -30 38 -54 79 -37 67 -177 228 -161
187 4 -11 2 -15 -6 -12 -29 11 -32 -35 -26 -346 3 -173 4 -580 2 -905 l-4
-589 -82 -2 c-51 -1 -85 3 -89 10 -5 8 -8 7 -8 -1 0 -7 -6 -13 -14 -13 -11 0
-13 16 -11 75 2 71 1 78 -27 113 -17 20 -45 60 -64 89 -43 68 -74 77 -257 75
-155 -2 -200 -12 -251 -54 -49 -41 -115 -163 -118 -221 -5 -82 15 -62 81 82
16 33 34 56 48 62 28 11 289 11 348 1 48 -9 65 -36 72 -124 l6 -59 -247 3
c-135 2 -246 0 -246 -4 0 -7 105 -10 418 -12 102 -1 97 -4 105 69 3 29 3 29
11 -8 5 -25 4 -47 -3 -63 l-11 -24 -157 7 c-171 9 -390 8 -433 -1 l-27 -5 2
287 c1 158 3 289 5 292 1 3 2 9 1 14 -1 5 -2 67 -2 137 l0 128 99 198 c55 109
116 230 137 268 21 39 79 149 130 245 51 96 102 191 114 210 11 19 21 40 21
45 0 13 -60 -86 -122 -204 -28 -53 -67 -123 -86 -156 -19 -33 -87 -161 -150
-285 -64 -124 -124 -238 -134 -255 l-19 -30 7 74 c7 82 4 75 174 371 45 80
119 208 163 285 44 77 115 199 157 270 43 72 148 252 235 400 86 149 167 286
178 305 32 54 -5 19 -41 -38 -235 -375 -620 -1024 -776 -1310 -43 -78 -83
-145 -87 -148 -5 -3 -10 34 -10 83 -4 216 2 1445 8 1698 5 229 7 416 3 525 0
8 0 42 0 75 0 33 -2 204 -6 380 -3 176 -7 442 -10 590 -2 149 -5 281 -7 295
-1 17 3 25 13 25 8 0 20 3 25 6 6 4 48 2 95 -3 81 -9 282 -4 525 12 153 11
616 4 695 -9z m-21 -827 c93 -33 233 -193 280 -320 71 -189 42 -600 -47 -663
-45 -32 -179 -62 -257 -59 -63 3 -70 5 -67 23 9 71 -2 942 -14 1006 -6 35 -5
36 23 34 16 -1 53 -10 82 -21z m1480 -303 c8 -5 9 -11 3 -15 -5 -3 -9 -39 -7
-81 1 -57 -1 -75 -12 -75 -7 0 -13 -3 -14 -7 -6 -83 -6 -83 9 -71 12 10 14 9
11 -5 -2 -10 -8 -17 -12 -15 -11 4 -31 -32 -22 -40 4 -4 10 -1 12 6 3 6 9 12
14 12 4 0 6 -7 3 -15 -4 -8 -1 -15 6 -15 6 0 8 -5 5 -10 -4 -6 -11 -7 -17 -4
-7 4 -8 2 -4 -5 4 -6 2 -18 -4 -26 -7 -8 -9 -15 -5 -15 4 0 1 -7 -6 -16 -7 -9
-12 -31 -10 -49 2 -24 -4 -40 -20 -56 -14 -14 -18 -24 -11 -27 6 -2 8 -11 5
-19 -6 -14 -7 -14 -13 3 -4 10 -4 29 1 40 4 12 3 26 -2 31 -7 7 -5 16 5 26 12
11 13 16 3 20 -9 3 -9 7 1 20 11 13 11 19 0 38 -10 17 -10 23 0 26 6 3 12 11
12 18 0 7 -6 16 -12 18 -10 4 -9 8 2 16 10 8 12 13 4 19 -6 4 -12 23 -12 42
-1 19 -3 52 -5 73 -2 22 3 43 10 49 18 14 16 29 -2 22 -19 -8 -20 10 -1 25 10
9 16 8 26 -4 7 -8 18 -15 24 -15 6 0 5 4 -3 9 -11 7 -11 15 0 45 14 38 17 40
38 27z m-1725 -298 c20 8 25 -2 16 -33 l-7 -25 -11 25 c-6 14 -11 21 -12 15
-1 -5 -4 -26 -7 -45 -3 -19 -6 -134 -6 -255 -1 -133 -6 -223 -12 -227 -6 -5
-3 -8 7 -8 9 0 20 6 25 13 11 17 10 446 -1 450 -12 4 2 27 16 27 7 0 9 -15 5
-38 -4 -36 -3 -39 19 -34 13 2 24 11 24 20 0 13 3 13 12 4 9 -9 10 -15 2 -20
-6 -4 -14 -16 -18 -27 -6 -13 -10 -16 -13 -7 -4 10 -8 10 -18 2 -10 -8 -11
-18 -5 -36 5 -13 7 -31 4 -39 -4 -10 0 -15 12 -16 16 -1 17 -2 2 -6 -21 -5
-19 -43 2 -44 10 0 11 -2 3 -6 -19 -7 -16 -21 8 -28 19 -7 20 -7 2 -21 -10 -7
-14 -14 -9 -14 5 0 3 -7 -4 -15 -8 -10 -9 -15 -1 -15 6 0 9 -13 7 -29 -2 -23
1 -31 18 -35 18 -5 13 -13 -45 -69 -37 -35 -69 -70 -72 -78 -5 -12 -7 -12 -16
1 -6 9 -8 41 -4 80 4 36 6 74 5 85 -4 50 -1 399 3 403 2 3 11 0 18 -6 10 -9
14 -9 14 1 0 6 4 20 8 30 4 10 3 17 -5 17 -6 0 -8 5 -4 11 5 8 9 7 14 -1 4 -7
15 -10 24 -7z m1103 -1205 c-2 -7 7 -33 21 -58 23 -41 89 -172 133 -263 11
-21 19 -44 19 -52 0 -8 3 -15 8 -15 4 0 14 -15 21 -32 8 -18 39 -83 68 -145
29 -62 50 -119 47 -127 -4 -11 0 -13 15 -9 13 3 21 1 21 -8 0 -7 3 -10 6 -6 4
3 -3 21 -14 39 -31 52 -112 244 -114 273 -1 14 -7 25 -12 25 -5 0 -7 2 -4 5 7
7 38 -5 38 -15 0 -5 16 -43 36 -86 42 -91 84 -157 84 -131 0 23 8 21 30 -5 11
-13 17 -31 14 -42 -4 -11 -2 -16 4 -12 7 4 14 -8 18 -31 5 -28 9 -33 13 -20 6
17 8 16 18 -5 15 -29 74 -171 75 -178 0 -3 8 -23 18 -45 30 -69 61 -157 52
-151 -5 3 -17 23 -27 46 -10 22 -22 40 -27 40 -12 0 27 -74 57 -106 14 -15 28
-39 32 -53 3 -14 10 -31 14 -37 5 -6 15 -28 23 -50 7 -21 27 -68 44 -104 76
-162 151 -372 98 -273 -8 15 -15 21 -15 13 -1 -17 38 -71 39 -55 0 13 20 -17
20 -30 0 -5 -5 -3 -10 5 -8 13 -10 13 -10 -1 0 -9 12 -24 26 -34 14 -9 23 -19
20 -22 -3 -3 -12 0 -20 6 -12 10 -14 8 -10 -11 6 -27 4 -24 -50 75 -21 38 -40
67 -42 64 -7 -6 55 -127 83 -162 15 -19 31 -31 35 -28 5 2 4 11 -2 18 -7 9 -8
15 -1 20 22 13 22 -42 0 -81 -13 -21 -26 -41 -29 -44 -21 -18 -112 -145 -130
-181 -20 -39 -24 -41 -35 -25 -7 9 -16 34 -20 54 -3 20 -12 46 -19 57 -13 20
-31 83 -28 97 1 3 -16 42 -38 85 -22 43 -40 86 -40 95 0 9 -4 20 -10 23 -5 3
-10 14 -10 23 0 9 -7 30 -15 46 -9 17 -27 62 -40 101 -24 74 -28 83 -89 221
-34 79 -101 269 -101 289 0 6 -3 12 -6 15 -17 15 -118 259 -174 420 -34 98
-37 119 -10 68 6 -13 17 -22 24 -20 7 1 9 -2 6 -8 -4 -6 -2 -23 3 -38 6 -15
14 -36 18 -47 4 -11 8 -22 9 -25 11 -41 38 -110 55 -142 6 -10 10 -23 10 -30
0 -7 20 -54 45 -103 25 -50 45 -98 45 -107 0 -10 5 -18 10 -18 6 0 10 4 10 8
0 17 -38 115 -51 131 -19 22 -41 72 -35 79 3 2 -7 28 -21 56 -24 47 -41 116
-28 116 6 0 46 -87 49 -107 1 -7 6 -16 10 -20 26 -24 -41 158 -77 211 -15 21
-36 69 -47 106 -23 77 -23 80 -10 80 6 0 10 -7 10 -15 0 -8 5 -15 11 -15 6 0
9 -7 6 -15 -4 -8 -2 -17 3 -20 6 -4 10 -17 10 -30 0 -13 5 -27 10 -30 6 -3 10
-14 10 -24 0 -10 11 -27 25 -37 14 -10 25 -26 25 -34 0 -9 4 -20 9 -26 5 -5
23 -44 41 -87 18 -43 34 -76 36 -75 10 11 -73 210 -95 228 -8 6 -35 62 -37 75
0 6 -4 18 -8 27 -4 9 -9 29 -10 45 -2 32 -37 113 -48 113 -5 0 -8 5 -8 11 0
22 -71 160 -80 154 -4 -3 -6 4 -3 15 3 11 0 20 -6 20 -6 0 -11 6 -11 13 0 7
-8 28 -18 47 -14 25 -16 37 -8 47 14 16 19 16 13 1z m-1051 -1126 c2 -44 8
-92 14 -107 6 -15 7 -31 4 -37 -4 -6 -1 -9 7 -6 16 5 14 89 -2 119 -6 11 -4
21 5 28 12 10 15 0 19 -61 3 -40 6 -86 6 -103 0 -16 6 -70 12 -118 8 -55 9
-91 3 -95 -11 -8 -11 -63 1 -81 4 -7 3 -16 -2 -20 -13 -8 -24 -81 -12 -81 5 0
9 -8 9 -17 0 -14 -2 -15 -12 -4 -9 8 -13 56 -14 159 -2 238 -3 262 -15 262
-11 0 -6 -121 6 -140 3 -6 3 -10 -2 -10 -9 0 -7 -208 3 -349 6 -83 8 -92 20
-76 9 13 12 36 9 74 -4 37 -2 49 3 36 8 -17 10 -13 14 20 3 22 2 49 -3 61 -4
11 -3 27 2 35 10 16 13 -17 11 -111 -1 -33 3 -57 11 -62 8 -5 9 -12 2 -21 -30
-42 -131 -166 -135 -166 -3 -1 -6 159 -6 354 -1 215 2 355 8 355 5 0 8 -24 7
-52 -2 -61 10 -198 21 -237 4 -15 7 19 6 81 0 58 -4 104 -8 101 -5 -2 -8 3 -8
11 0 9 4 16 10 16 5 0 7 6 5 13 -2 6 -6 34 -9 60 -4 46 -16 78 -16 44 0 -9 -4
-17 -10 -17 -5 0 -10 18 -10 40 0 43 16 55 23 18 2 -13 5 22 6 76 1 117 11
121 17 8z m-62 -373 c2 -118 8 -249 12 -291 5 -59 4 -78 -5 -78 -9 0 -12 -22
-10 -80 3 -70 0 -84 -21 -119 -27 -44 -46 -54 -36 -18 4 12 7 57 6 100 -1 55
2 77 10 72 6 -4 9 -14 6 -23 -3 -10 -2 -39 3 -67 8 -47 9 -45 10 37 0 50 6 90
12 93 7 5 8 28 3 69 -8 63 -12 491 -5 514 2 7 5 11 7 9 2 -2 6 -100 8 -218z
m-503 -325 c36 -6 36 -6 34 -55 -2 -60 -7 -67 -35 -39 -20 20 -28 21 -216 18
-165 -3 -194 -1 -192 11 4 22 67 55 118 62 60 8 246 10 291 3z m1893 -73 c28
-18 46 -40 67 -85 15 -34 24 -65 19 -70 -4 -4 0 -27 10 -49 11 -23 18 -42 17
-43 -1 -1 -121 -5 -266 -9 -193 -5 -262 -4 -257 4 4 6 9 30 11 53 9 88 -8 82
216 74 110 -4 213 -11 229 -16 17 -5 30 -6 30 -2 -1 38 -80 52 -302 52 -165 0
-167 0 -171 -22 -3 -16 -5 -12 -6 12 -1 19 -8 53 -16 75 -11 30 -11 41 -2 47
7 5 95 7 197 6 176 -3 187 -4 224 -27z"/>
<path d="M5954 5163 c-33 -4 -94 -67 -94 -97 0 -8 -4 -18 -10 -21 -11 -7 -12
-67 -1 -105 8 -28 41 -41 41 -16 0 11 9 16 28 16 22 0 24 -2 12 -11 -12 -9
-11 -9 5 -4 45 16 58 18 52 8 -4 -6 3 -13 15 -16 27 -7 45 2 27 14 -11 7 -10
9 3 9 9 0 20 -4 23 -10 15 -25 43 -9 59 34 20 51 14 114 -15 162 -25 42 -52
49 -145 37z m146 -130 c0 -46 -9 -62 -35 -64 -36 -4 -56 1 -50 11 4 6 -17 10
-57 10 -40 0 -58 -4 -49 -9 11 -7 9 -10 -9 -16 -35 -11 -52 12 -39 57 l10 37
102 4 c56 1 108 4 115 5 8 1 12 -11 12 -35z"/>
<path d="M6466 5148 c-49 -28 -64 -60 -62 -128 1 -36 8 -75 15 -87 12 -23 51
-32 51 -13 0 6 7 10 15 10 8 0 15 -4 15 -10 0 -5 12 -10 26 -10 14 0 23 4 19
10 -3 6 3 10 14 10 12 0 21 -4 21 -10 0 -14 27 -12 33 3 4 9 8 9 15 -1 5 -8
20 -12 33 -10 22 3 24 8 24 58 -1 55 -19 105 -53 146 -15 19 -24 20 -89 15
-40 -4 -73 -3 -73 1 0 5 30 8 66 8 41 0 63 4 59 10 -8 14 -105 12 -129 -2z
m199 -135 c4 -19 2 -34 -5 -38 -7 -4 -59 -8 -117 -9 -92 -2 -106 0 -114 17 -6
10 -9 28 -7 40 3 21 9 22 113 27 61 3 113 3 116 0 4 -3 10 -19 14 -37z"/>
<path d="M6700 4474 c-73 -13 -96 -24 -114 -58 -10 -20 -30 -43 -42 -51 -22
-14 -24 -23 -24 -93 0 -54 8 -105 28 -172 33 -116 36 -120 73 -120 24 0 29 4
29 25 0 24 3 25 55 25 30 0 55 -4 55 -9 0 -5 -8 -7 -19 -4 -12 3 -24 -3 -33
-16 -10 -14 -21 -19 -32 -15 -9 3 -16 1 -16 -4 0 -26 239 -27 264 -1 8 8 -2
10 -36 7 -36 -2 -48 1 -51 12 -2 9 3 16 12 17 9 0 31 4 48 8 29 7 34 5 43 -19
12 -33 47 -35 59 -3 43 107 46 151 11 221 -16 34 -20 51 -12 54 20 6 14 34 -5
28 -13 -4 -23 4 -35 29 -35 70 -70 116 -95 126 -31 11 -127 19 -163 13z m183
-93 c21 -8 41 -40 49 -79 2 -11 -28 -13 -147 -12 -82 0 -153 4 -157 8 -4 4 -5
24 -2 44 6 32 10 37 38 41 64 8 195 7 219 -2z m-317 -85 c-5 -26 -3 -35 10
-40 10 -4 20 -3 23 1 3 4 88 8 188 8 l182 0 16 -34 c9 -19 18 -55 21 -81 7
-71 -1 -74 -180 -77 -83 -2 -164 -4 -179 -4 -35 -2 -56 17 -67 62 -5 19 -17
60 -25 92 -12 41 -13 62 -6 71 7 9 7 16 -1 24 -9 9 -8 12 6 12 15 0 17 -6 12
-34z"/>
<path d="M5596 4430 c-40 -12 -69 -42 -96 -100 -20 -42 -27 -49 -46 -44 -29 8
-40 -13 -19 -36 17 -19 17 -22 -11 -62 -33 -51 -36 -99 -9 -171 20 -53 48 -76
70 -57 8 7 13 17 12 23 -1 8 29 12 98 14 93 1 96 0 45 -8 -30 -6 -66 -8 -80
-5 -14 3 -32 1 -40 -5 -18 -10 14 -13 103 -10 36 2 57 -1 57 -8 0 -7 -25 -11
-67 -11 -36 0 -64 -2 -61 -5 9 -10 200 -7 210 3 7 7 -4 9 -32 5 -31 -4 -41 -3
-36 5 4 7 19 12 33 12 18 0 24 4 19 15 -4 11 1 15 19 15 17 0 25 -6 27 -22 2
-15 11 -24 26 -26 33 -5 52 15 52 54 0 18 5 36 10 39 6 3 10 14 10 24 0 10 7
24 16 31 12 10 15 31 13 90 -1 43 1 83 6 89 4 7 -1 22 -12 34 -11 12 -31 41
-46 65 -16 23 -39 47 -53 52 -31 12 -178 12 -218 0z m194 -80 c11 -6 22 -26
26 -45 3 -19 13 -40 21 -46 10 -9 12 -24 8 -53 -10 -60 -27 -106 -41 -106 -7
0 -19 -3 -28 -6 -9 -3 -16 -1 -16 5 0 6 10 11 23 11 17 0 19 2 8 9 -9 6 -21 5
-33 -2 -24 -16 -23 -22 7 -35 20 -9 30 -9 45 0 18 12 44 80 52 137 4 32 28 40
28 10 0 -13 -6 -41 -14 -64 -8 -22 -18 -58 -22 -80 l-9 -40 -193 -3 c-166 -3
-197 -1 -218 13 -23 15 -25 21 -19 58 4 22 21 61 39 85 l31 45 167 -2 c108 -2
168 1 173 8 4 8 -44 11 -154 11 -89 0 -161 2 -161 4 0 10 24 73 33 84 12 15
219 17 247 2z"/>
<path d="M8408 7948 c4 -4 44 -8 90 -9 45 -2 82 -4 82 -7 0 -13 -275 -286
-286 -284 -12 2 -13 -99 -11 -618 l4 -621 -28 -37 c-37 -48 -36 -61 6 -95 30
-24 35 -34 35 -72 0 -39 -4 -47 -40 -76 -42 -34 -45 -56 -14 -106 18 -28 18
-43 1 -43 -8 0 -24 -11 -37 -25 -13 -14 -31 -25 -39 -25 -32 0 -45 -18 -46
-65 -2 -40 1 -48 22 -58 28 -12 41 -2 27 21 -6 9 -11 31 -10 47 1 24 6 30 22
30 12 0 30 10 40 22 11 13 34 26 52 29 l33 7 -2 -247 c-1 -136 1 -249 4 -252
15 -15 -35 -111 -86 -166 -30 -32 -39 -34 -58 -12 -10 13 -10 17 2 25 10 6 11
9 1 9 -8 0 -10 5 -5 13 4 6 8 14 8 17 0 3 14 25 31 50 80 118 97 164 24 65
-41 -56 -60 -68 -60 -39 0 13 -3 14 -14 4 -12 -9 -23 -8 -53 6 -70 33 -85 63
-48 100 14 14 32 35 40 48 17 26 17 76 -1 69 -6 -2 -27 10 -45 27 -39 35 -33
44 35 56 22 3 48 14 58 24 18 16 18 17 -2 35 -19 17 -20 17 -31 -9 -9 -20 -19
-26 -43 -26 -40 0 -76 -25 -76 -52 0 -12 18 -38 40 -59 43 -41 48 -53 27 -66
-27 -16 -50 -65 -49 -101 2 -42 16 -58 74 -87 41 -19 43 -22 48 -72 4 -36 13
-60 28 -75 21 -21 22 -21 57 -5 20 9 47 17 60 17 23 0 24 -2 18 -52 -3 -29
-13 -63 -21 -75 -10 -16 -12 -36 -7 -72 4 -33 3 -51 -5 -56 -6 -4 -24 -25 -40
-47 -23 -32 -27 -44 -19 -59 7 -14 6 -25 -6 -41 -32 -47 -11 -85 40 -72 17 4
26 0 35 -15 6 -12 17 -21 24 -21 12 0 13 -118 10 -712 -6 -1011 -7 -1191 -3
-1208 3 -10 -8 -17 -36 -21 l-40 -6 38 -2 c53 -2 46 -21 -9 -21 -27 0 -43 -4
-39 -10 3 -5 26 -10 51 -10 28 0 44 -5 45 -12 1 -7 2 -20 3 -28 2 -8 3 -27 4
-42 1 -16 7 -28 13 -28 7 0 10 20 7 57 l-3 58 250 7 c375 11 847 10 1050 -1
99 -6 230 -10 290 -9 l110 1 -85 8 c-47 4 -119 8 -160 9 -55 1 -68 4 -48 10
14 4 236 10 492 13 256 3 470 8 475 12 6 3 8 12 4 20 -3 9 1 15 11 15 10 0 13
-6 10 -15 -5 -11 1 -15 20 -16 14 -1 32 -2 39 -3 6 -1 11 5 9 12 -1 8 5 11 22
6 19 -4 26 -1 31 16 5 17 12 20 38 16 19 -3 35 0 39 7 6 9 11 8 18 -3 9 -13
12 -13 21 3 5 9 15 17 21 17 7 0 6 -5 -2 -15 -10 -12 -9 -16 6 -21 11 -4 23
-9 28 -12 5 -3 6 0 2 6 -3 6 3 13 14 17 11 3 20 13 20 20 0 9 -6 12 -15 9 -8
-4 -15 -11 -15 -17 0 -6 -9 -1 -21 12 -12 12 -27 20 -35 17 -8 -3 -11 0 -7 10
4 11 -5 14 -39 14 -48 0 -161 20 -154 27 2 3 57 5 120 4 67 0 116 4 116 10 0
5 -10 10 -22 10 -13 1 -41 3 -63 5 -22 1 -60 3 -84 3 -79 2 -36 12 66 16 54 3
113 4 132 5 19 0 31 3 28 6 -7 7 -248 18 -375 17 -82 0 -85 13 -4 20 29 3 58
9 65 15 7 7 25 7 47 2 l35 -8 -30 -2 -30 -2 29 -8 c18 -6 46 -5 70 0 23 5 70
10 106 10 36 0 72 5 80 10 13 8 12 10 -5 11 -11 1 -33 3 -50 4 -187 18 -264
23 -282 18 -33 -8 -28 12 10 41 114 87 228 298 307 566 12 41 26 83 31 92 5
10 9 25 9 34 0 9 7 46 15 83 8 36 24 111 36 166 11 55 23 111 26 125 2 14 6
46 6 72 1 25 5 44 8 42 13 -8 0 270 -17 366 -4 19 -8 44 -10 55 -2 11 -10 54
-18 95 -8 41 -17 89 -20 107 -3 18 -11 44 -16 59 -6 15 -8 29 -5 32 3 3 -2 13
-10 22 -28 31 -78 134 -66 138 6 2 0 13 -14 24 -14 11 -32 33 -40 48 -18 34
-180 239 -204 257 -14 11 -14 12 0 13 20 0 69 51 69 71 0 9 18 32 41 52 22 21
39 43 36 50 -2 6 5 22 16 35 16 17 18 25 9 34 -14 14 -16 50 -4 64 14 15 55
166 55 202 0 17 3 32 6 32 3 0 26 -11 50 -25 55 -32 65 -32 20 0 -58 42 -61
46 -54 74 4 14 9 58 11 96 2 39 11 126 20 195 28 215 23 372 -16 478 -15 39
-6 53 16 26 15 -18 15 -18 10 6 -3 14 -6 31 -6 39 0 11 -4 9 -15 -5 -12 -16
-14 -17 -15 -2 0 9 -3 25 -7 35 -6 16 -5 16 10 4 10 -8 17 -9 17 -3 0 6 -8 17
-18 24 -17 12 -72 179 -72 216 0 8 -10 23 -22 34 -15 12 -19 21 -11 24 13 6
-27 71 -94 151 -27 32 -37 50 -26 46 29 -11 112 -61 181 -109 35 -24 60 -40
57 -34 -8 14 -132 96 -222 149 -40 23 -95 65 -123 93 -51 51 -99 83 -234 153
-37 20 -66 39 -63 41 3 3 42 -10 88 -30 45 -20 84 -34 87 -32 12 12 -196 95
-278 111 -19 3 -55 13 -80 20 -25 8 -58 16 -75 18 -16 2 -37 6 -45 10 -33 12
-110 29 -215 48 -157 27 -178 29 -192 17 -8 -6 -13 -6 -13 -1 0 6 -19 7 -47 2
-27 -4 -79 -5 -118 -2 -111 8 -1085 9 -1077 1z m392 -33 c80 -3 285 -8 455
-11 469 -9 581 -16 577 -34 -3 -12 -1 -13 9 -2 15 14 33 16 24 3 -3 -5 7 -8
21 -7 15 2 48 -4 73 -12 25 -8 60 -16 78 -18 135 -14 369 -105 497 -193 53
-37 193 -182 231 -241 82 -124 108 -171 133 -239 39 -109 75 -262 62 -275 -7
-7 -10 -4 -12 9 -2 35 -3 40 -13 55 -5 8 -8 23 -6 34 2 12 -1 16 -9 11 -9 -5
-10 -1 -5 14 5 17 3 20 -11 14 -13 -5 -16 -2 -12 13 4 14 -2 23 -18 31 -13 6
-24 10 -24 9 0 -1 9 -19 20 -41 11 -22 20 -46 20 -55 0 -9 5 -21 12 -28 8 -8
9 -12 1 -12 -11 0 -53 95 -58 130 -1 8 -10 32 -19 52 -9 21 -16 41 -16 45 -1
4 -19 22 -41 38 -51 38 -79 66 -79 78 0 6 14 -5 31 -22 17 -18 33 -30 36 -27
10 9 -51 75 -65 70 -8 -2 -30 9 -50 25 -21 16 -55 39 -77 51 -22 13 -78 45
-125 72 -102 59 -174 93 -215 101 -16 4 11 -14 60 -39 147 -74 196 -103 273
-162 41 -31 81 -57 90 -58 8 -2 19 -9 23 -16 4 -7 19 -26 33 -43 14 -16 26
-35 26 -42 0 -7 8 -17 18 -22 9 -6 12 -11 5 -11 -7 0 0 -18 16 -42 42 -62 111
-217 111 -246 -1 -9 -22 26 -48 78 -128 258 -290 409 -608 569 -142 71 -270
108 -429 122 -127 12 -1298 -3 -1368 -17 -12 -2 -34 -2 -49 2 -27 5 -24 9 86
117 63 62 117 122 121 134 9 32 35 55 53 48 9 -3 82 -8 162 -10z m-393 -310
c21 -3 49 -8 63 -11 19 -4 22 -2 10 6 -12 8 -11 10 8 10 12 0 22 -3 22 -7 0
-5 267 -8 592 -8 606 0 739 -5 831 -31 29 -8 70 -19 93 -24 115 -25 292 -102
404 -176 94 -62 211 -172 259 -244 100 -149 236 -523 199 -546 -7 -4 -6 -9 3
-15 14 -8 17 -58 18 -314 1 -171 -3 -215 -25 -310 -23 -93 -20 -90 -63 -56
l-40 32 29 62 c54 119 45 160 -40 173 -41 7 -60 21 -43 33 22 14 31 44 20 63
-9 13 -8 26 2 50 8 18 16 51 18 74 4 35 1 44 -22 62 -14 11 -47 29 -72 38 -38
15 -50 16 -77 5 -56 -23 -67 -24 -61 -10 3 9 -7 19 -26 28 -17 8 -34 22 -36
32 -7 27 -20 24 -53 -13 -27 -30 -34 -56 -8 -30 19 19 28 14 28 -13 0 -28 12
-32 30 -10 18 21 33 19 25 -4 -9 -28 7 -32 61 -16 27 8 59 15 72 15 28 0 91
-31 115 -58 15 -17 16 -21 3 -32 -9 -6 -18 -28 -21 -49 -9 -52 -22 -81 -38
-81 -8 0 -22 -9 -32 -21 -11 -11 -40 -35 -65 -53 -47 -34 -47 -34 -71 -15 -51
41 -64 42 -29 2 19 -22 43 -45 53 -52 16 -11 18 -10 14 6 -4 13 12 30 63 68
38 27 75 51 82 54 17 5 -67 -68 -104 -91 -15 -10 -28 -20 -28 -23 0 -13 22 -2
60 30 49 41 56 42 63 14 4 -15 11 -20 22 -15 23 8 81 -18 95 -44 13 -24 6 -35
-25 -43 -19 -4 -19 -5 1 -6 18 -1 20 -6 16 -28 -3 -16 -18 -44 -33 -63 l-29
-34 47 -41 47 -42 -100 -99 c-69 -69 -102 -110 -110 -135 -8 -30 -8 -36 3 -32
7 3 13 0 13 -7 0 -7 7 -18 16 -24 14 -11 14 -14 1 -24 -11 -10 -19 -8 -40 8
-26 21 -47 26 -47 12 0 -4 14 -13 30 -19 35 -13 38 -28 10 -43 -11 -6 -50 -34
-88 -62 -37 -28 -82 -57 -99 -64 -30 -13 -46 -44 -24 -44 5 0 31 -15 57 -33
211 -142 347 -295 439 -492 67 -145 152 -473 116 -451 -4 3 -14 34 -20 68 -15
80 -32 140 -42 152 -5 5 -4 -6 1 -25 5 -19 11 -52 14 -74 3 -22 17 -96 31
-165 24 -111 26 -140 21 -255 -3 -71 -12 -164 -20 -205 -37 -179 -44 -212 -56
-240 -7 -16 -20 -30 -29 -31 -15 0 -15 -1 0 -7 15 -6 15 -10 -2 -42 -11 -19
-19 -31 -19 -26 0 6 -18 -25 -39 -68 -62 -121 -200 -279 -256 -294 -16 -5 -31
-14 -33 -22 -3 -9 1 -11 14 -6 14 5 12 -1 -9 -21 -21 -22 -29 -25 -36 -15 -7
12 -12 12 -30 1 -11 -8 -21 -17 -21 -22 0 -16 -132 -70 -265 -108 -270 -77
-554 -101 -1010 -82 -342 13 -663 18 -672 9 -4 -3 29 -6 72 -6 97 0 91 -14 -8
-16 -40 -1 -114 -3 -166 -5 l-93 -3 3 234 c1 129 3 262 5 295 5 120 4 624 -2
763 -5 102 -3 142 5 142 6 0 11 -8 11 -17 1 -103 15 -342 21 -358 8 -20 4 148
-7 343 -4 71 -10 102 -18 102 -8 0 -13 16 -14 45 0 25 3 45 7 45 4 0 5 72 3
160 -2 88 -2 166 1 174 4 9 15 12 32 8 17 -3 24 -9 21 -18 -9 -23 11 -16 47
16 19 17 37 30 40 30 3 0 18 -11 33 -25 l28 -26 -48 -48 c-46 -47 -48 -50 -35
-77 12 -24 60 -61 82 -63 4 -1 12 11 18 26 7 19 12 24 18 15 6 -10 12 -7 23
10 28 43 40 71 29 64 -19 -12 -12 5 17 39 15 18 49 65 77 104 27 39 51 71 52
71 11 0 -1 -33 -21 -57 -20 -24 -81 -124 -156 -259 -13 -22 -20 -29 -17 -16 3
12 3 22 0 22 -10 0 -33 -29 -42 -53 -8 -21 -5 -29 23 -56 37 -36 49 -37 91
-10 17 10 39 23 50 28 11 5 37 27 57 50 20 22 42 41 48 41 6 0 31 -11 54 -25
49 -29 64 -26 96 17 18 25 20 32 9 39 -10 6 -11 9 -1 9 6 0 12 6 12 14 0 8 5
18 11 22 7 4 9 0 5 -14 -5 -15 -1 -24 15 -33 21 -11 21 -13 6 -24 -9 -7 -17
-17 -17 -24 0 -20 19 -12 42 19 15 21 30 30 50 30 18 0 31 7 35 18 8 21 101
112 114 112 6 0 10 -155 9 -417 0 -230 1 -490 3 -578 l2 -160 33 -3 c17 -2 32
-7 32 -12 0 -27 -117 -159 -178 -202 -41 -28 -73 -32 -40 -5 8 6 33 44 56 84
23 40 47 75 52 78 6 3 10 11 10 17 0 12 -101 -115 -120 -152 l-13 -25 -14 40
c-7 22 -20 46 -28 54 -12 12 -12 9 -5 -20 4 -19 15 -51 24 -73 10 -21 16 -39
14 -40 -2 -2 -19 -14 -38 -28 -19 -14 -54 -32 -77 -39 -24 -7 -43 -16 -43 -21
0 -10 -2 -11 55 9 140 47 265 138 350 253 30 40 73 150 80 205 3 22 10 67 15
100 31 185 38 394 19 512 -6 32 -14 81 -18 108 -9 55 -50 172 -87 252 -33 70
-101 128 -223 193 -56 29 -120 69 -144 90 -23 20 -51 42 -62 49 -39 23 25 2
100 -34 39 -18 90 -41 115 -51 46 -18 134 -78 159 -107 7 -10 18 -17 23 -17 5
0 -2 13 -15 30 -14 16 -28 38 -32 47 -3 10 -30 29 -59 43 l-55 24 15 35 c16
39 42 71 57 71 5 0 7 -7 3 -15 -3 -9 0 -15 8 -15 8 0 22 -21 31 -47 24 -71 86
-193 97 -193 12 0 5 24 -37 125 -18 44 -46 122 -61 173 -16 50 -32 92 -36 92
-4 0 -8 6 -8 14 0 8 -8 17 -17 20 -20 7 -119 116 -106 116 5 0 27 -17 50 -37
22 -21 54 -49 69 -63 48 -42 85 -92 80 -107 -4 -8 -1 -11 5 -8 6 4 18 0 27 -8
9 -7 25 -17 35 -20 10 -4 17 -17 17 -30 0 -29 38 -118 72 -167 55 -81 50 -80
-17 5 -27 33 -50 62 -52 64 -1 2 -6 2 -9 -2 -4 -3 3 -22 15 -42 25 -42 129
-175 138 -175 6 0 -2 56 -12 83 -6 14 -1 17 31 17 l38 0 -38 38 -37 39 30 49
c36 58 111 252 111 288 0 34 10 56 25 56 15 0 29 -62 20 -90 -10 -32 11 -23
25 10 7 16 25 36 40 44 29 14 29 14 17 -13 -6 -14 -16 -33 -22 -41 -50 -68
-124 -304 -132 -423 -3 -48 -10 -90 -15 -93 -4 -3 -8 -14 -8 -25 0 -10 -5 -19
-10 -19 -7 0 -7 -7 0 -21 13 -24 4 -40 -11 -19 -12 18 -4 -103 11 -165 5 -22
7 -103 5 -179 -3 -103 -1 -142 8 -149 7 -5 8 -10 2 -13 -20 -8 -4 -317 17
-330 6 -4 7 7 4 29 -3 20 -1 39 4 42 6 4 10 -13 10 -44 0 -30 -5 -52 -12 -55
-10 -5 -10 -7 0 -12 7 -3 12 -25 12 -52 0 -26 13 -85 28 -132 16 -47 37 -113
48 -147 10 -35 25 -63 32 -63 6 0 12 -4 12 -10 0 -5 5 -10 10 -10 6 0 21 -9
33 -20 16 -15 29 -19 47 -14 41 11 70 6 137 -26 62 -29 110 -39 98 -20 -3 5
-12 7 -20 3 -8 -3 -15 0 -15 6 0 5 -20 22 -45 37 -25 14 -45 30 -45 35 0 11 6
11 28 0 51 -28 125 -61 138 -61 8 0 14 -4 14 -10 0 -5 21 -10 46 -10 25 0 43
4 40 8 -3 5 -18 7 -33 5 -20 -3 -36 2 -54 19 -13 13 -36 30 -49 40 -24 15 -24
17 -7 34 12 13 17 14 17 5 0 -9 8 -11 24 -7 14 3 28 2 31 -4 3 -5 -4 -11 -17
-11 -27 -2 58 -15 148 -23 34 -3 69 -9 78 -12 9 -3 16 -2 16 4 0 5 -12 13 -27
17 -49 13 3 23 85 17 50 -3 72 -1 72 7 0 15 -119 18 -227 6 -28 -3 -31 11 -4
20 11 3 25 13 32 21 8 10 -9 5 -44 -12 -60 -30 -82 -27 -52 6 26 29 11 36 -21
11 -27 -22 -54 -28 -54 -12 0 4 10 20 21 35 30 38 18 42 -16 6 -36 -37 -41
-37 -48 0 -7 33 -27 41 -27 11 0 -13 -11 -21 -42 -29 -50 -13 -89 0 -133 45
-56 56 -147 274 -104 247 6 -3 38 21 71 55 66 68 117 166 136 261 12 60 27
186 25 210 -18 205 -51 330 -109 418 -19 29 -32 56 -30 61 3 5 18 6 33 4 24
-4 25 -3 11 7 -19 12 -25 40 -8 40 6 0 10 6 10 13 0 7 15 27 33 44 26 26 34
29 44 18 6 -7 9 -16 6 -19 -4 -3 -1 -6 5 -6 6 0 14 5 17 10 3 6 1 10 -4 10 -6
0 -11 7 -11 15 0 19 14 19 29 1 9 -11 2 -22 -36 -56 -53 -47 -31 -40 31 9 51
41 58 39 16 -4 -18 -19 -31 -38 -27 -41 4 -4 1 -14 -6 -22 -11 -13 -9 -14 13
-2 14 7 32 19 40 26 8 8 27 24 41 36 14 13 38 40 53 61 16 20 33 37 39 37 12
0 135 125 192 194 22 27 55 65 73 84 73 79 16 38 -71 -52 -72 -73 -141 -70
-90 4 9 15 1 9 -21 -12 -44 -45 -60 -49 -40 -10 7 15 14 31 14 35 0 5 9 22 21
38 11 16 16 29 11 29 -6 0 -12 -5 -14 -12 -2 -6 -10 -8 -16 -4 -17 10 -15 26
2 26 8 0 18 4 21 10 3 6 -1 7 -9 4 -9 -3 -16 -1 -16 5 0 6 5 11 10 11 6 0 10
5 10 11 0 8 -5 7 -15 -1 -20 -17 -32 -5 -15 15 19 23 -12 20 -41 -5 -23 -18
-23 -19 -4 -20 11 -1 14 -4 8 -7 -20 -7 -15 -23 5 -16 14 6 15 4 4 -9 -10 -12
-10 -18 2 -27 9 -7 13 -23 10 -39 -6 -29 -50 -82 -69 -82 -7 0 -20 -9 -30 -20
-10 -11 -25 -20 -34 -20 -10 0 -12 3 -6 8 18 12 58 73 52 79 -3 3 -28 -17 -54
-45 -55 -57 -86 -59 -53 -4 11 18 20 39 20 47 0 17 -16 20 -25 5 -4 -6 -11 -8
-16 -4 -5 3 -8 2 -7 -3 6 -17 -44 -83 -63 -83 -24 0 -24 1 2 47 19 33 19 38 5
49 -9 6 -16 19 -16 29 0 14 -3 15 -15 5 -8 -7 -15 -8 -15 -3 0 11 52 53 61 50
3 -1 24 15 47 35 37 33 44 36 73 28 29 -9 35 -6 73 30 22 22 35 40 29 40 -7 0
-15 -4 -18 -10 -3 -5 -12 -10 -18 -10 -7 0 -4 5 6 11 9 5 17 15 17 21 0 14
-39 48 -56 48 -7 0 -14 6 -16 12 -3 9 -9 8 -22 -5 -10 -9 -25 -17 -35 -17 -9
0 -22 -5 -29 -12 -7 -7 -12 -8 -12 -4 0 5 8 15 18 22 11 9 12 13 4 14 -7 0
-22 9 -34 20 -12 11 -30 20 -39 20 -48 0 -55 22 -21 63 27 31 4 30 -30 -2 -33
-31 -58 -40 -58 -21 0 6 -10 10 -21 10 -17 0 -20 5 -16 21 5 17 3 18 -9 8 -26
-21 -25 -2 1 46 34 60 27 68 -11 13 -33 -49 -73 -87 -93 -88 -10 0 -11 3 -2
13 6 8 12 22 14 33 1 10 7 26 12 34 8 13 7 13 -8 1 -9 -7 -17 -19 -17 -25 0
-7 -7 -21 -16 -32 -14 -18 -15 -17 -11 16 4 29 2 32 -7 17 -6 -10 -16 -26 -23
-35 -11 -15 -12 -15 -13 5 0 12 5 25 10 28 6 3 10 16 10 28 -1 21 -1 21 -15
-3 l-14 -25 -1 34 c0 19 -3 32 -6 28 -4 -3 -6 -25 -6 -48 1 -61 -20 -34 -23
31 -2 28 -6 54 -9 57 -5 6 -11 -97 -7 -120 1 -5 -4 -7 -11 -5 -8 3 -11 21 -9
54 2 39 0 47 -10 37 -7 -7 -13 -33 -13 -57 -1 -27 -5 -41 -10 -36 -6 6 -14 2
-22 -8 -12 -15 -14 -16 -29 -1 -14 14 -14 22 0 89 17 81 13 107 -5 38 -24 -86
-27 -93 -36 -88 -5 3 -8 28 -7 55 1 38 -1 45 -7 28 -5 -13 -11 -35 -14 -50 -2
-16 -5 -29 -5 -31 -3 -7 -81 40 -81 49 0 6 -7 9 -15 6 -8 -4 -17 -2 -20 3 -6
10 -35 2 -35 -9 1 -3 23 -17 50 -30 27 -13 51 -30 55 -38 7 -19 -30 -85 -57
-102 -17 -11 -22 -10 -29 1 -8 11 -11 11 -18 -1 -14 -22 -41 4 -41 40 0 16 -4
29 -10 29 -5 0 -10 -8 -10 -18 0 -10 -7 -28 -16 -41 -13 -17 -19 -20 -25 -10
-4 7 -3 21 3 32 5 10 7 21 5 23 -3 3 -13 -15 -22 -40 -20 -52 -49 -84 -60 -66
-4 7 -2 17 4 23 6 6 11 20 11 31 0 17 -9 11 -44 -28 l-43 -50 -37 22 c-42 25
-47 13 -11 -26 26 -28 31 -43 18 -56 -5 -4 -9 -12 -9 -17 -1 -5 -2 -13 -3 -19
-1 -10 -41 -33 -79 -45 -21 -6 -22 -5 -11 13 7 12 17 18 21 16 4 -3 8 2 8 10
0 32 -39 4 -54 -39 -7 -19 -8 -19 -26 5 l-20 25 0 -27 c0 -21 -7 -29 -35 -39
-19 -7 -35 -16 -35 -19 0 -3 33 -4 73 -2 52 2 86 11 125 29 28 15 52 29 52 32
0 4 10 12 22 20 22 14 22 14 5 -10 -9 -13 -21 -34 -26 -46 -6 -11 -15 -24 -21
-28 -5 -3 -17 -22 -25 -42 -13 -30 -17 -33 -30 -23 -15 13 -19 8 -16 -21 1 -9
-5 -22 -14 -29 -8 -7 -15 -19 -15 -26 0 -22 -38 -54 -64 -54 -14 0 -38 11 -55
25 l-30 26 -12 -23 c-6 -13 -21 -33 -32 -46 -12 -12 -22 -30 -23 -40 -2 -15
-1 -15 9 2 37 58 38 59 97 44 29 -8 55 -20 58 -28 3 -13 2 -13 -7 0 -10 13
-14 11 -30 -10 -11 -14 -36 -42 -55 -64 -20 -21 -36 -45 -36 -53 0 -8 -4 -11
-10 -8 -5 3 -23 -21 -40 -54 -33 -66 -36 -76 -19 -65 7 4 7 -2 -1 -16 -11 -20
-14 -21 -21 -7 -6 11 -4 29 5 52 21 48 13 44 -23 -14 -24 -39 -34 -48 -50 -44
-33 8 -25 37 24 87 25 26 45 49 45 52 0 12 -56 53 -72 54 -24 0 -23 16 2 33
11 7 35 34 55 60 23 31 44 47 62 49 34 4 39 20 11 33 -18 8 -22 17 -20 40 2
17 10 37 18 46 8 8 14 21 14 27 0 6 12 20 27 31 14 12 23 24 20 28 -4 3 -16
-5 -28 -18 -11 -13 -24 -24 -29 -24 -5 0 -12 -3 -16 -7 -11 -12 -21 -10 -38 8
-9 8 -21 12 -26 9 -7 -4 -1 -16 16 -31 24 -23 26 -29 19 -80 -7 -55 -40 -123
-61 -124 -18 0 -71 -29 -84 -45 -7 -8 -18 -15 -25 -15 -6 0 -26 -7 -44 -16
-18 -9 -34 -14 -36 -13 -2 2 -5 56 -6 120 -2 107 -1 119 20 148 13 18 29 30
36 27 8 -3 18 7 24 25 5 16 15 29 20 29 15 0 14 -23 -1 -38 -17 -17 -2 -28 17
-12 10 8 15 9 15 1 0 -20 26 -12 51 17 13 15 17 21 9 15 -24 -22 -40 -15 -56
25 -8 20 -19 45 -24 54 -7 13 -4 27 11 53 21 35 21 53 0 40 -6 -3 -11 -13 -11
-21 0 -18 -19 -18 -26 0 -6 15 22 60 86 141 41 51 47 65 30 65 -5 0 -16 -13
-25 -30 -9 -16 -19 -30 -23 -30 -12 0 -94 -129 -88 -139 4 -5 1 -13 -5 -16 -5
-4 -8 -14 -5 -22 8 -19 -9 -50 -36 -64 -19 -10 -20 -9 -14 7 5 11 9 31 10 46
1 15 10 36 19 46 9 10 17 24 17 30 0 7 17 38 39 70 21 31 51 80 66 107 l28 50
-36 -40 c-20 -22 -36 -45 -37 -51 0 -14 -39 -63 -40 -51 0 5 4 17 10 27 7 13
6 19 -6 24 -8 3 -12 2 -9 -4 3 -5 1 -20 -6 -32 -9 -16 -9 -23 0 -26 7 -2 5
-13 -8 -30 -10 -15 -22 -37 -25 -49 -14 -43 -24 -23 -21 41 2 58 6 69 40 110
24 30 32 46 23 46 -8 0 -27 -17 -41 -37 l-27 -38 3 57 c1 31 5 51 9 45 5 -9
12 -7 25 6 16 16 16 17 -9 17 -14 0 -29 7 -32 16 -3 8 -6 141 -5 295 l0 279
22 0 c13 0 33 -8 46 -17 23 -16 25 -15 48 11 28 33 30 13 3 -32 -11 -18 -20
-37 -20 -42 0 -5 -16 -34 -35 -64 -19 -30 -35 -67 -35 -81 0 -20 10 -7 39 49
22 42 51 90 65 107 14 17 26 37 26 45 0 24 36 86 84 144 57 68 46 88 -18 34
-25 -21 -46 -43 -46 -48 0 -5 10 0 23 11 52 47 47 31 -8 -26 -61 -63 -107 -86
-136 -68 -15 9 -13 13 13 35 17 14 38 26 48 27 23 2 84 71 88 101 5 38 -14 28
-24 -13 -6 -25 -16 -39 -28 -41 -15 -3 -18 0 -13 17 3 13 1 19 -5 15 -5 -3 -8
-15 -5 -25 4 -15 0 -19 -20 -19 -14 0 -22 4 -18 10 4 6 -7 15 -24 21 -17 6
-31 15 -31 19 0 4 -9 6 -20 3 -19 -5 -20 -1 -17 80 1 68 5 83 16 79 8 -3 12
-1 8 5 -11 17 19 34 47 27 31 -7 32 -2 7 34 -47 66 -36 84 67 118 52 16 54 16
82 -4 24 -18 30 -19 40 -7 6 8 9 19 6 24 -4 5 -2 12 4 16 5 3 10 -1 10 -9 0
-18 35 -22 45 -6 4 6 2 17 -4 24 -6 7 -8 21 -5 30 14 35 81 49 104 21 18 -22
27 -19 38 15 7 19 20 32 36 36 14 3 26 12 26 20 0 22 -16 17 -54 -17 -29 -25
-39 -28 -55 -20 -31 17 -69 13 -88 -9 -10 -12 -35 -39 -56 -61 -37 -40 -39
-41 -58 -23 -18 16 -24 16 -52 5 -18 -7 -54 -21 -82 -31 -48 -18 -50 -20 -50
-57 1 -21 3 -49 5 -63 4 -21 1 -25 -18 -25 l-24 0 2 337 c0 185 -4 427 -11
538 -9 160 -9 203 2 216 7 8 18 13 25 10 7 -3 30 -8 51 -11z m2359 -2172 c27
-32 56 -65 65 -74 57 -58 214 -352 207 -387 -3 -10 -15 6 -32 43 -16 33 -33
69 -39 80 -6 11 -21 38 -32 60 -46 84 -136 204 -204 269 -36 35 -47 52 -38 58
20 13 22 11 73 -49z m-769 -188 c-26 -25 -47 -48 -47 -52 -1 -20 -49 -65 -60
-58 -9 5 -11 4 -6 -3 4 -7 2 -12 -5 -12 -17 0 -59 -40 -59 -56 0 -7 5 -14 12
-16 9 -3 9 -6 0 -12 -7 -4 -12 -2 -12 3 0 6 -4 11 -10 11 -5 0 -10 -7 -10 -15
0 -8 4 -15 10 -15 5 0 0 -16 -12 -35 -11 -20 -23 -34 -26 -31 -2 3 3 17 12 30
19 29 20 36 6 36 -11 0 -32 -44 -35 -72 -3 -24 -1 -23 45 18 42 38 59 40 40 5
-9 -17 -8 -21 5 -21 8 0 15 -5 15 -11 0 -5 5 -7 10 -4 24 15 7 -56 -26 -111
-53 -88 -56 -91 -93 -63 -34 25 -48 58 -36 86 4 10 8 44 9 76 1 50 5 62 27 80
15 12 34 36 45 52 l18 30 -37 -35 -37 -34 11 32 c6 17 15 29 20 26 5 -3 9 1 9
9 0 15 83 97 98 97 5 0 42 27 83 59 40 33 76 58 78 55 3 -2 -17 -24 -42 -49z
m-22 -355 c-9 -17 -31 -48 -49 -68 -18 -20 -45 -57 -60 -82 -15 -25 -45 -70
-66 -100 -36 -49 -72 -114 -74 -132 -1 -3 -5 -10 -10 -15 -5 -5 -6 -3 -2 5 4
7 2 12 -6 12 -15 0 -63 -109 -71 -163 -5 -32 -4 -37 8 -27 12 10 12 7 2 -19
-7 -20 -14 -26 -19 -18 -11 18 -10 111 3 143 10 28 10 28 -11 9 -21 -19 -21
-19 -15 12 3 18 1 35 -5 38 -5 3 -10 11 -10 17 0 7 4 7 13 -1 11 -8 13 -4 9
22 -4 26 -2 30 9 19 15 -14 12 -15 132 102 37 37 67 71 67 75 0 5 21 39 46 77
77 116 155 183 109 94z m-78 -337 c45 -82 83 -236 83 -338 0 -112 -17 -160
-71 -207 -46 -39 -164 -96 -176 -84 -8 7 -10 304 -4 381 3 28 8 52 13 55 4 3
10 24 12 45 12 88 70 218 95 213 8 -2 29 -31 48 -65z"/>
<path d="M9380 7295 c-25 -13 -56 -24 -70 -25 -36 0 -124 -88 -145 -145 -17
-44 -19 -45 -51 -39 -27 5 -38 1 -61 -22 -23 -23 -35 -27 -71 -25 -45 3 -82
-18 -82 -45 0 -8 -13 -20 -30 -29 -48 -25 -36 -82 21 -100 17 -6 19 -12 14
-33 -4 -15 -11 -29 -16 -33 -6 -4 -6 -15 0 -31 13 -35 -16 -63 -55 -54 -21 6
-25 4 -21 -7 3 -9 -4 -19 -19 -26 -13 -6 -24 -18 -24 -26 0 -17 12 -13 43 13
13 12 20 13 29 4 18 -18 25 -15 32 13 4 16 13 25 26 25 12 0 25 -10 32 -25 14
-30 18 -31 39 -2 17 23 32 107 20 107 -5 0 -16 -18 -26 -41 -18 -39 -19 -40
-28 -17 -17 42 -16 71 4 127 23 66 22 62 4 55 -8 -4 -15 -12 -15 -20 0 -8 -6
-14 -13 -14 -18 0 -47 32 -47 52 0 15 39 38 67 38 13 0 13 3 2 16 -10 13 -10
17 2 25 19 12 69 11 69 -1 0 -5 9 -10 20 -10 13 0 20 7 20 19 0 23 48 44 82
36 21 -5 28 -1 47 30 11 20 21 43 21 51 0 8 5 14 10 14 6 0 10 9 10 20 0 15 9
22 30 27 17 3 30 11 30 18 0 15 70 45 105 45 15 0 25 6 25 14 0 28 54 35 82 9
16 -15 18 -15 18 0 0 20 -30 37 -62 37 -13 -1 -43 -12 -68 -25z"/>
<path d="M9501 7221 c16 -17 29 -40 29 -54 0 -18 7 -27 24 -31 13 -3 34 -22
46 -41 12 -19 23 -35 25 -35 12 0 111 51 128 67 12 10 38 26 57 34 30 14 40
14 67 3 41 -17 49 -31 29 -53 -9 -10 -16 -21 -16 -25 0 -4 21 -28 46 -53 35
-36 44 -51 39 -67 -4 -12 -8 -31 -9 -43 -1 -12 -13 -31 -27 -42 -13 -10 -20
-23 -16 -28 5 -4 15 1 22 11 14 18 15 18 41 1 24 -16 26 -21 22 -73 l-5 -55
19 23 c12 15 16 30 12 44 -15 47 -12 50 47 52 38 0 71 8 100 24 31 16 62 23
105 24 78 1 96 -12 88 -64 -6 -34 -4 -38 20 -44 34 -9 33 -33 -3 -54 l-30 -17
32 -28 c21 -18 28 -30 20 -33 -7 -3 -13 -12 -13 -19 0 -8 -4 -16 -9 -19 -12
-8 -41 4 -41 16 0 6 7 8 15 5 8 -4 17 -2 20 2 6 11 -27 24 -34 13 -3 -4 -27
-25 -53 -46 -47 -37 -62 -61 -34 -50 8 3 -15 -23 -50 -59 -60 -59 -77 -87 -55
-87 17 0 131 131 132 151 0 22 53 59 69 49 11 -7 -3 -26 -58 -82 -72 -73 -125
-138 -89 -110 9 8 21 11 26 7 6 -3 23 2 38 12 30 20 26 6 -10 -34 -11 -13 -18
-25 -16 -28 3 -2 39 27 79 65 41 39 78 70 82 70 4 0 8 7 8 15 0 26 -25 16 -65
-25 -21 -22 -48 -40 -59 -40 -16 0 -9 11 34 55 30 30 63 55 73 55 14 0 17 5
12 19 -4 14 0 21 15 26 21 7 26 25 11 41 -18 19 -22 70 -6 84 22 18 18 46 -10
68 -17 13 -25 30 -25 50 0 72 -99 95 -190 45 l-50 -28 -40 23 c-25 14 -49 21
-61 17 -27 -9 -15 -23 15 -18 26 5 44 -13 29 -28 -6 -6 -19 -6 -35 0 -18 7
-29 6 -37 -2 -19 -19 -39 9 -23 33 14 23 16 33 4 26 -4 -2 -6 10 -4 27 3 26
-3 39 -35 72 -33 34 -38 46 -38 85 0 41 -3 46 -35 61 -66 31 -77 32 -102 7
-13 -13 -37 -33 -55 -45 -27 -19 -33 -20 -33 -7 0 11 -9 6 -29 -15 -16 -17
-32 -31 -36 -31 -14 0 -105 105 -105 120 0 23 -20 40 -46 40 -22 0 -21 -1 7
-29z"/>
<path d="M9264 6576 c1 -229 -1 -266 -15 -282 -30 -35 -34 -47 -12 -35 11 6
23 7 27 4 14 -15 3 -60 -23 -91 -24 -28 -30 -31 -41 -17 -7 8 -9 22 -5 32 15
33 14 49 0 28 -8 -11 -21 -27 -30 -36 -17 -18 -12 -44 11 -53 15 -6 19 -32 6
-38 -5 -1 -16 -21 -24 -43 l-17 -40 2 59 c1 40 -2 61 -10 63 -8 3 -13 -5 -13
-20 0 -35 -26 -93 -45 -101 -27 -10 -28 -8 -22 34 4 35 3 38 -10 24 -10 -10
-13 -25 -10 -44 4 -18 1 -32 -8 -40 -11 -9 -14 -5 -17 22 l-4 33 -10 -35 c-13
-44 -40 -48 -36 -5 2 23 0 26 -8 15 -5 -8 -10 -23 -10 -33 0 -13 -6 -17 -22
-15 -19 2 -22 8 -20 31 2 18 -1 26 -7 22 -6 -3 -11 -13 -11 -21 0 -22 -17 -17
-23 7 -3 12 -10 18 -17 14 -6 -4 -9 -10 -6 -13 8 -7 -24 -42 -39 -42 -7 0 -18
-7 -25 -15 -7 -8 -16 -12 -22 -9 -5 4 -5 11 1 18 6 7 8 16 4 20 -4 4 -3 10 3
14 6 4 14 30 17 57 l7 50 -15 -40 c-8 -22 -22 -52 -30 -67 -8 -14 -15 -33 -15
-42 0 -20 -33 -21 -50 -1 -9 11 -9 22 0 50 15 46 6 56 -14 16 -24 -45 -20 -67
19 -99 33 -26 35 -31 25 -57 -22 -58 -78 -87 -101 -52 -3 5 -9 2 -12 -6 -3 -8
0 -23 8 -33 11 -16 17 -16 39 -6 30 13 36 -1 13 -32 -12 -16 -18 -17 -50 -7
-20 7 -39 16 -42 21 -3 5 0 29 7 54 9 34 9 49 1 57 -8 8 -11 8 -10 -2 2 -17
-13 -99 -18 -99 -2 0 -22 19 -45 41 -43 43 -45 51 -25 114 3 11 -3 4 -14 -15
-11 -19 -20 -42 -21 -50 0 -25 105 -135 149 -155 28 -12 41 -24 38 -34 -2 -9
-9 -15 -16 -13 -7 1 -10 -2 -7 -7 4 -5 -1 -17 -10 -25 -14 -15 -14 -17 0 -32
9 -8 16 -20 16 -25 0 -6 5 -7 10 -4 6 4 4 12 -5 22 -14 14 -13 18 10 48 14 19
25 37 25 42 1 4 10 19 21 32 19 23 20 23 33 6 13 -17 14 -17 30 8 10 14 23 25
29 23 7 -1 9 -1 5 1 -10 6 10 43 23 43 6 0 8 -10 4 -22 -4 -13 -9 -31 -11 -40
-4 -12 0 -18 10 -18 9 0 18 11 22 25 8 32 18 32 33 -2 l12 -27 41 42 c22 23
47 42 56 42 8 0 35 -21 59 -47 43 -47 43 -47 43 -19 0 21 -17 47 -61 97 l-61
69 44 -20 c66 -30 107 -66 101 -90 -8 -30 20 -25 35 7 6 15 12 34 12 42 0 14
20 78 37 121 3 8 7 29 9 45 7 56 27 117 41 122 21 8 24 0 10 -27 -7 -14 -16
-34 -21 -45 -6 -17 -4 -17 18 4 14 13 26 33 28 45 2 11 8 21 13 21 6 0 11 -44
12 -106 l3 -107 -30 -6 c-43 -8 -41 -38 3 -34 l32 3 1 -64 1 -65 54 3 c176 8
288 41 343 100 36 38 49 39 40 6 -9 -38 3 -30 27 18 12 23 35 58 50 78 16 20
29 40 29 44 0 4 10 19 21 33 26 32 24 26 -19 -55 -36 -71 -41 -90 -12 -53 12
16 20 20 20 10 0 -11 3 -11 12 -2 10 10 10 14 0 20 -9 6 -4 21 19 58 18 27 42
66 55 86 13 21 19 40 14 43 -5 3 -19 -13 -30 -36 -12 -22 -24 -39 -26 -36 -3
3 2 17 10 31 9 14 23 37 31 51 13 21 19 24 36 15 11 -6 17 -15 14 -20 -3 -4 4
-6 15 -3 11 3 20 0 20 -6 0 -6 -4 -11 -8 -11 -5 0 -18 -18 -30 -40 -11 -22
-17 -40 -13 -40 11 0 34 28 51 63 15 29 30 36 30 12 0 -8 -4 -15 -8 -15 -8 0
-32 -43 -32 -55 0 -12 18 -2 49 26 26 25 31 33 20 40 -11 7 -11 9 3 9 9 0 31
18 48 40 18 22 46 48 63 56 22 12 26 18 17 24 -7 5 -19 6 -27 3 -11 -4 -12 1
-7 21 10 40 -2 32 -40 -28 -36 -57 -67 -76 -91 -56 -8 6 -18 9 -23 7 -4 -3
-14 -2 -21 2 -10 7 -8 18 13 54 26 43 21 54 -13 33 -9 -6 -10 -10 -2 -16 9 -5
7 -11 -5 -21 -12 -9 -15 -10 -10 -1 4 7 2 12 -5 12 -6 0 -9 -8 -6 -20 6 -23 3
-24 -22 -10 -23 12 -24 56 -3 88 27 42 4 35 -27 -9 l-31 -43 0 95 c0 123 -6
163 -39 227 -12 23 -21 47 -21 54 1 23 61 -103 70 -146 8 -40 8 -40 9 19 1 75
-40 160 -76 159 -12 0 -20 3 -18 7 3 4 -12 20 -33 35 -20 16 -57 47 -82 70
-57 52 -136 75 -279 80 -58 2 -113 7 -122 9 -15 5 -17 -18 -15 -259z m330 164
c73 -35 153 -115 186 -186 37 -77 38 -125 5 -183 -28 -48 -29 -51 -17 -51 5 0
17 18 27 40 10 22 22 37 26 34 13 -7 2 -160 -11 -156 -5 1 -10 -5 -10 -13 0
-8 5 -15 10 -15 29 0 1 -141 -33 -168 -7 -6 -66 -17 -132 -27 -82 -11 -129
-22 -147 -36 -37 -26 -48 -24 -49 9 -5 190 -9 353 -13 527 -3 116 -8 221 -12
234 l-7 24 68 -6 c37 -4 86 -16 109 -27z"/>
<path d="M10322 6180 c-32 -38 -62 -52 -62 -29 0 12 -25 39 -37 39 -4 0 -32
-25 -62 -55 -30 -30 -60 -55 -68 -55 -8 0 -11 -5 -8 -10 4 -6 -5 -24 -19 -41
-14 -17 -26 -34 -26 -38 0 -13 -94 -76 -109 -73 -8 2 -21 10 -29 18 -12 13
-11 19 12 52 27 40 31 52 18 52 -5 0 -15 -12 -23 -27 -8 -16 -22 -37 -31 -47
-23 -26 -23 -30 7 -46 14 -7 25 -19 25 -27 0 -21 34 -15 75 13 33 22 48 25
122 25 47 0 88 -2 91 -5 3 -3 -1 -18 -9 -33 -7 -16 -15 -31 -17 -35 -2 -5 10
-8 27 -8 22 0 44 -11 74 -39 23 -21 53 -42 65 -46 24 -7 25 -20 6 -69 -3 -9
-2 -16 4 -16 5 0 17 -12 27 -26 16 -25 16 -27 -6 -50 -30 -32 -16 -44 16 -14
20 19 28 21 37 12 10 -10 8 -14 -10 -18 -24 -7 -29 -23 -11 -41 16 -16 -40
-74 -101 -104 -31 -15 -49 -31 -50 -41 0 -10 3 -18 7 -18 22 0 135 64 154 88
13 16 41 41 62 57 41 31 43 48 2 21 -26 -17 -26 -17 -15 3 6 12 9 25 6 30 -5
7 59 71 70 71 10 0 64 44 64 52 0 4 -7 8 -15 8 -22 0 -19 9 30 90 52 87 60
117 12 46 -25 -38 -40 -49 -62 -51 -17 -2 -24 -1 -17 2 20 8 14 26 -8 20 -22
-6 -21 -5 17 52 13 19 23 38 23 44 0 16 -49 -34 -72 -73 -20 -34 -91 -102 -87
-84 1 5 1 16 0 24 -1 12 -5 11 -16 -4 -12 -16 -18 -17 -27 -8 -10 10 -6 18 15
40 21 20 30 24 36 14 6 -10 10 -10 21 3 11 13 10 14 -6 8 -11 -4 -5 7 16 27
60 57 15 45 -56 -15 -36 -31 -69 -53 -73 -49 -3 3 10 18 29 33 59 45 105 89
99 95 -3 4 -40 -21 -81 -54 -42 -33 -79 -60 -82 -60 -12 0 -6 20 7 20 16 1 71
49 64 57 -3 3 -22 -7 -41 -22 -30 -23 -40 -25 -63 -17 -15 5 -27 14 -26 20 2
6 -4 9 -12 6 -24 -10 -17 9 16 45 29 32 33 55 6 32 -8 -6 -21 -9 -30 -5 -12 4
-7 13 24 41 35 32 54 64 29 48 -5 -3 -10 -2 -10 4 0 5 6 12 13 14 6 3 8 6 2 6
-18 1 -36 -15 -39 -34 -2 -11 -9 -21 -17 -23 -11 -3 -11 -1 1 7 8 6 10 11 4
11 -6 0 -19 -9 -29 -20 -10 -11 -26 -20 -36 -20 -10 0 -20 -4 -24 -9 -3 -5
-18 -8 -33 -6 -15 2 -31 4 -37 5 -5 1 1 6 15 12 14 6 29 10 33 9 5 -1 39 25
75 57 37 31 84 70 104 85 37 27 86 87 71 87 -4 0 -23 -18 -41 -40z"/>
<path d="M10479 5097 c-19 -12 -34 -27 -34 -32 0 -12 -26 -42 -95 -110 -30
-30 -50 -55 -43 -55 6 0 15 5 18 10 4 6 15 8 24 5 12 -4 28 5 47 27 34 39 101
84 138 94 27 6 86 -12 86 -27 0 -4 -5 -11 -10 -14 -6 -3 -8 -18 -6 -32 5 -26
-7 -42 -72 -93 -18 -14 -32 -30 -32 -36 0 -14 -36 -38 -67 -46 -16 -4 -23 -2
-23 9 0 10 -6 12 -20 8 -22 -7 -26 5 -8 23 9 9 6 12 -14 12 -15 0 -32 -9 -41
-22 -18 -28 -36 -15 -18 14 8 13 9 24 3 30 -7 7 -10 4 -9 -7 1 -10 -4 -20 -12
-23 -9 -3 -11 0 -6 9 5 8 4 10 0 6 -13 -11 -15 -37 -4 -37 6 0 8 -4 4 -9 -3
-5 -26 -8 -50 -7 -44 2 -85 -14 -85 -35 0 -5 8 -9 18 -9 12 0 8 -8 -18 -29
-19 -16 -32 -32 -29 -36 4 -3 17 6 30 20 28 29 45 32 51 7 13 -50 -84 -86
-148 -56 -34 16 -71 13 -59 -5 3 -6 25 -20 49 -31 37 -19 46 -20 67 -9 13 7
36 12 51 10 54 -5 87 65 57 121 -11 20 -10 21 46 14 48 -5 60 -4 70 10 11 16
14 16 35 -4 28 -26 45 -27 93 -7 33 13 77 61 77 82 0 5 16 15 35 22 42 15 59
42 57 93 -2 35 2 40 33 55 46 22 46 52 1 44 -5 -1 -33 4 -62 10 l-54 12 -70
-48 c-39 -27 -73 -45 -77 -42 -3 4 13 25 38 48 25 23 35 37 24 34 -19 -6 -19
-5 1 12 12 10 30 23 40 30 11 6 16 12 13 12 -3 1 -21 -9 -40 -22z"/>
<path d="M9550 3684 c0 -132 -66 -352 -96 -321 -6 5 -84 -78 -84 -89 0 -12 23
-1 45 20 15 16 28 20 37 15 10 -7 1 -20 -35 -54 -27 -25 -52 -45 -58 -45 -5 0
-9 -4 -9 -10 0 -21 35 -8 89 33 31 23 61 42 66 43 29 2 95 26 95 34 0 11 53
-12 128 -57 55 -33 109 -50 120 -38 9 8 -18 25 -43 25 -11 0 -42 17 -70 37
-27 21 -56 37 -63 38 -8 0 -20 17 -27 38 -16 47 -25 57 -25 29 0 -26 -19 -39
-31 -21 -7 11 -11 10 -24 -6 -17 -20 -17 -20 -10 0 8 24 25 282 20 298 -2 7
-6 27 -9 45 -8 56 -16 49 -16 -14z"/>
<path d="M9431 3474 c-60 -87 -114 -130 -241 -192 -69 -34 -151 -70 -183 -80
-66 -22 -88 -38 -39 -29 32 6 199 71 270 104 20 10 47 14 72 10 39 -5 50 3 50
40 0 8 15 33 34 56 31 38 76 111 76 122 0 15 -18 0 -39 -31z"/>
<path d="M15925 2881 c-19 -8 -19 -8 3 -20 12 -6 22 -9 22 -5 0 3 7 1 15 -6 9
-8 64 -14 154 -16 115 -4 141 -2 154 11 20 19 27 19 27 0 0 -13 17 -16 115
-14 63 0 115 3 115 5 0 2 -19 8 -42 14 -24 6 -51 14 -62 17 -13 4 -16 2 -11
-8 6 -11 5 -12 -6 -1 -17 16 -63 16 -53 0 5 -8 2 -9 -12 -4 -37 16 -84 24 -89
16 -3 -5 1 -11 7 -13 22 -9 -75 1 -127 14 -64 15 -184 21 -210 10z"/>
<path d="M12499 2871 c-2 -5 -44 -12 -94 -14 -49 -3 -92 -6 -95 -7 -3 -1 15
-8 40 -16 85 -27 532 -12 551 18 7 10 9 10 9 1 0 -7 7 -13 15 -13 8 0 15 4 15
9 0 14 -40 21 -65 11 -18 -7 -270 -7 -270 -1 0 2 -16 4 -35 5 -19 1 -42 6 -51
10 -9 4 -18 3 -20 -3z"/>
</g>
</svg>
