<?xml version="1.0" standalone="no"?>
<!DOCTYPE svg PUBLIC "-//W3C//DTD SVG 20010904//EN"
 "http://www.w3.org/TR/2001/REC-SVG-20010904/DTD/svg10.dtd">
<svg version="1.0" xmlns="http://www.w3.org/2000/svg"
 width="1928.000000pt" height="1074.000000pt" viewBox="0 0 1928.000000 1074.000000"
 preserveAspectRatio="xMidYMid meet">
<metadata>
Created by potrace 1.16, written by Peter Selinger 2001-2019
</metadata>
<g transform="translate(0.000000,1074.000000) scale(0.100000,-0.100000)"
fill="#000000" stroke="none">
<path d="M14560 8014 c0 -5 9 -20 20 -34 28 -36 25 -50 -12 -51 l-33 -2 35 -6
c19 -4 34 -11 33 -17 -5 -30 -15 -1357 -16 -2269 -1 -588 -6 -1066 -11 -1074
-5 -8 -5 -16 1 -20 5 -3 10 -26 10 -51 0 -25 2 -94 3 -153 1 -59 1 -110 -1
-112 -2 -2 -3 -104 -2 -227 0 -122 2 -362 3 -533 2 -271 0 -311 -13 -319 -12
-7 -21 -5 -36 8 -17 16 -21 16 -21 4 0 -22 27 -41 50 -35 10 3 24 -1 31 -9 6
-8 8 -14 3 -14 -5 0 -1 -5 9 -11 24 -14 21 -29 -5 -29 -21 -1 -21 -2 -5 -11 9
-5 17 -17 17 -25 0 -8 8 -17 18 -21 9 -3 38 -26 64 -51 35 -34 44 -48 35 -55
-8 -6 -7 -7 4 -4 22 7 51 -24 83 -89 21 -42 26 -67 26 -125 0 -52 3 -69 10
-59 5 8 10 36 10 61 0 25 5 59 10 75 l10 29 155 -3 c90 -2 153 -7 150 -12 -7
-11 339 -2 370 10 19 7 66 8 340 10 75 0 105 3 95 10 -8 5 -38 10 -67 10 -61
0 -83 7 -83 26 0 8 -7 14 -15 14 -8 0 -15 -7 -15 -15 0 -9 -9 -15 -22 -15 -17
0 -19 3 -10 12 7 7 12 42 12 85 l0 73 28 0 c15 0 92 -7 172 -15 98 -9 148 -10
155 -3 7 6 5 9 -5 8 -50 -7 -140 2 -153 15 -11 11 -37 14 -103 12 -86 -2 -89
-1 -92 21 -3 22 -2 23 50 16 29 -4 74 -8 100 -8 31 -1 48 -5 48 -13 0 -8 14
-13 38 -12 20 0 31 3 25 6 -25 10 -12 23 22 23 19 0 35 -5 35 -11 0 -6 -7 -9
-15 -6 -8 4 -17 2 -20 -3 -4 -6 -3 -10 2 -11 4 0 78 -2 163 -5 85 -3 173 -9
195 -14 41 -9 59 -5 36 9 -10 6 -9 10 4 15 11 4 27 -5 48 -27 18 -18 66 -63
107 -99 41 -37 72 -69 70 -72 -3 -2 -63 -7 -134 -10 -72 -4 -132 -9 -135 -11
-2 -3 36 -6 85 -6 49 -1 117 -2 151 -3 34 -1 63 -3 66 -6 2 -3 26 -47 52 -97
27 -51 50 -91 52 -89 3 2 -12 39 -31 81 -20 43 -36 84 -36 92 0 24 35 -2 75
-57 20 -27 41 -50 47 -50 5 0 -1 14 -14 31 -59 80 -70 72 96 65 81 -4 194 -7
252 -7 l104 0 0 -67 c0 -82 18 -72 22 13 l3 59 39 -1 c22 0 46 6 54 13 9 9 37
14 83 14 l69 0 0 -82 c0 -46 5 -90 10 -98 7 -10 10 14 10 77 0 58 4 94 11 99
7 4 46 6 88 6 85 -2 134 5 126 18 -3 5 -18 5 -33 1 -22 -7 -101 -2 -134 7 -5
1 -18 2 -29 2 -21 0 -21 3 -14 73 4 39 8 213 9 384 1 242 -2 314 -11 318 -7 2
-13 10 -13 17 0 10 2 10 9 -1 5 -8 11 -9 15 -3 4 6 -2 16 -11 22 -13 8 -14 13
-5 16 7 4 12 25 12 55 0 28 -4 48 -9 45 -15 -10 -24 157 -16 293 7 131 7 253
-2 331 -2 25 -6 245 -8 490 -5 529 -11 679 -29 654 -7 -9 -21 -14 -32 -12 -17
3 -19 12 -19 87 0 97 5 112 36 93 18 -12 20 -11 17 5 -2 10 -13 19 -26 21 -12
2 -22 8 -22 14 0 6 10 8 25 4 23 -6 25 -4 26 31 0 21 4 56 8 78 5 27 10 -34
15 -185 5 -124 10 -256 12 -295 1 -38 3 -267 3 -507 1 -405 8 -521 25 -382 11
95 7 965 -5 1025 -5 30 -9 101 -7 159 2 102 2 280 -2 521 -1 64 -6 138 -11
165 -5 27 -5 50 0 53 13 9 16 227 12 754 -3 426 -2 477 12 472 8 -4 18 -2 22
4 3 6 2 11 -4 11 -6 0 -18 9 -28 19 -10 11 -33 30 -50 43 -17 13 -79 64 -136
113 -147 127 -198 166 -209 159 -5 -3 -2 -14 7 -24 9 -10 14 -24 10 -29 -3 -6
0 -11 7 -11 8 0 39 -22 69 -48 29 -27 64 -55 75 -63 12 -8 47 -38 78 -67 32
-29 62 -50 67 -46 6 3 16 0 24 -6 19 -15 21 -37 3 -23 -23 18 -350 23 -719 10
l-237 -8 -43 53 c-24 29 -80 87 -124 127 -44 41 -81 77 -83 81 -1 4 171 5 382
3 376 -4 466 1 466 28 0 5 -17 10 -37 9 -21 0 -118 2 -215 6 -190 7 -626 -11
-642 -27 -6 -6 -6 -13 1 -20 7 -7 8 -22 3 -42 -12 -47 -25 -275 -23 -412 5
-416 4 -965 -1 -974 -4 -6 -2 -11 3 -11 6 0 11 -7 11 -16 0 -10 -6 -14 -15
-10 -12 4 -15 -3 -15 -37 -1 -52 -9 -40 -45 68 -14 44 -46 123 -70 175 -23 52
-51 120 -60 150 -37 118 -85 249 -130 350 -25 58 -73 175 -106 260 -33 85 -69
169 -80 186 -21 35 -16 48 12 33 11 -6 19 -6 19 0 0 10 -30 25 -46 22 -12 -1
-139 158 -131 165 2 2 -18 26 -45 54 -28 27 -47 54 -43 59 3 6 2 11 -2 11 -5
0 -21 12 -36 26 l-28 26 7 -29 c11 -44 62 -123 119 -183 29 -30 62 -70 74 -87
12 -18 27 -32 33 -30 6 1 12 -3 15 -9 2 -7 -14 -10 -44 -9 -27 1 -224 3 -439
4 l-391 2 -31 32 c-16 18 -50 64 -75 102 -25 39 -55 81 -66 95 -35 43 -29 46
97 38 158 -9 712 -15 712 -7 0 4 -7 10 -16 13 -22 8 -508 25 -740 26 -108 0
-111 1 -124 25 -7 14 -18 25 -23 25 -6 0 -2 -9 7 -19 10 -11 16 -25 14 -31 -2
-7 -20 9 -41 36 -20 26 -37 43 -37 38z m2040 -406 c0 -9 5 -20 10 -23 11 -7
14 -48 4 -58 -4 -3 -8 -50 -9 -104 -2 -54 -4 -100 -4 -103 -1 -3 -1 -94 -1
-202 0 -131 -3 -198 -10 -198 -5 0 -13 1 -17 1 -5 1 -11 -16 -15 -37 -10 -59
-9 -154 2 -154 6 0 10 35 10 85 0 66 3 85 14 85 24 0 26 -25 19 -215 -5 -145
-9 -185 -20 -185 -14 0 -16 11 -13 76 1 23 -2 44 -7 47 -4 3 -8 -9 -9 -26 0
-18 -3 -48 -6 -68 -6 -43 -1 -54 27 -54 18 0 20 -6 19 -85 -1 -97 -5 -130 -16
-130 -4 0 -8 -8 -8 -17 0 -15 -2 -16 -10 -3 -7 12 -10 8 -10 -15 -1 -50 -20
-4 -24 57 -9 121 -19 198 -27 198 -5 0 -9 16 -9 36 0 20 -4 33 -10 29 -11 -7
-4 -68 10 -95 5 -10 7 -25 4 -33 -3 -8 0 -34 6 -58 9 -31 9 -44 1 -47 -6 -2
-11 -8 -11 -14 0 -6 6 -8 14 -5 10 4 12 0 9 -14 -8 -28 -19 -15 -41 44 -21 56
-34 157 -21 157 5 0 -1 17 -12 38 -14 25 -15 30 -4 17 16 -19 16 -18 11 30 -2
28 -8 59 -12 69 -5 13 -4 17 4 12 9 -5 10 29 2 54 -1 3 -3 16 -3 29 -1 13 -8
26 -14 28 -21 7 -21 -133 0 -334 2 -18 0 -33 -4 -33 -8 0 -23 50 -20 69 1 7
-2 10 -8 6 -6 -3 -11 -1 -11 4 0 6 5 11 11 11 15 0 3 61 -13 71 -9 6 -9 14 1
33 11 19 12 46 6 113 -4 48 -9 239 -11 423 -1 184 -3 421 -4 525 -1 105 -1
194 -1 199 2 17 231 -218 231 -236z m-1886 102 c72 -102 75 -115 74 -310 0
-161 1 -200 10 -200 4 0 7 96 7 213 l0 214 -44 59 c-24 32 -56 73 -70 89 -14
17 18 -13 72 -65 91 -89 113 -123 85 -132 -6 -2 -8 -10 -4 -16 4 -7 7 -158 7
-335 -1 -177 -3 -968 -6 -1758 -2 -790 -7 -1465 -11 -1500 -3 -35 -11 -69 -16
-76 -6 -7 -4 -20 4 -34 11 -18 11 -22 -1 -27 -10 -3 -10 -6 -1 -12 10 -6 9
-16 -1 -45 -11 -30 -11 -39 -1 -42 6 -3 12 -11 12 -19 0 -9 -4 -13 -9 -9 -5 3
-12 -5 -14 -17 -2 -13 -5 10 -7 50 -1 39 -4 77 -5 82 -1 6 -3 17 -4 25 0 8 -4
15 -8 15 -5 0 -9 -75 -10 -168 -1 -92 -3 -193 -4 -224 0 -31 2 -61 5 -66 3 -6
3 -45 -1 -88 -7 -77 -7 -78 -15 -35 -5 29 -4 49 3 58 6 7 8 13 3 13 -10 0 -10
-1 -17 227 -3 89 -8 167 -12 173 -4 7 -1 17 6 22 11 7 11 11 2 14 -7 3 -15 21
-19 40 -11 62 -21 35 -17 -48 12 -238 14 -322 7 -316 -6 7 -13 87 -30 368 -6
105 -8 273 -4 427 1 66 5 81 16 76 16 -6 10 20 -10 46 -9 12 -7 13 12 9 20 -6
21 -4 11 9 -10 12 -10 16 2 24 11 7 11 9 -4 9 -10 0 -15 4 -12 10 6 10 -10 47
-32 68 -15 15 -8 36 9 26 6 -4 5 3 -2 16 -10 18 -14 20 -21 9 -6 -9 -9 -10 -9
-2 0 18 19 26 34 14 10 -8 13 -3 14 25 1 20 -2 42 -5 48 -4 6 -8 36 -8 66 0
47 -3 55 -17 52 -15 -2 -18 4 -16 37 1 32 4 38 14 30 14 -11 34 -4 34 12 0 5
-7 9 -15 9 -21 0 -32 28 -33 90 0 50 1 52 11 28 6 -16 14 -28 19 -28 10 0 -10
53 -23 61 -20 12 -33 1572 -15 1769 4 52 7 127 7 167 -1 40 3 74 9 78 6 3 8
11 4 16 -3 6 -7 148 -9 317 -1 169 -6 340 -10 380 -5 49 -4 72 3 72 6 0 40
-41 76 -90z m486 -97 c35 -9 -58 -21 -172 -22 -59 -1 -88 -5 -88 -12 0 -12
136 -7 310 11 47 5 173 12 280 16 107 3 198 8 202 11 18 10 46 -20 57 -61 6
-25 11 -48 11 -51 0 -14 -22 9 -46 47 -14 22 -28 37 -31 35 -3 -3 18 -44 47
-91 54 -91 113 -212 162 -336 16 -41 40 -98 54 -127 13 -28 24 -55 24 -58 0
-11 92 -240 111 -276 10 -20 19 -42 19 -49 0 -7 6 -26 14 -43 27 -62 74 -194
116 -327 24 -74 62 -182 85 -240 23 -58 61 -161 83 -230 41 -127 151 -386 198
-467 15 -24 35 -48 45 -54 10 -5 19 -8 19 -7 0 2 -12 39 -26 83 -23 71 -27
101 -31 255 -9 342 -9 545 0 557 5 7 4 20 -1 30 -5 10 -8 34 -6 53 6 49 13
434 18 905 2 220 5 409 5 420 1 20 9 20 325 22 l324 2 6 -42 c8 -55 12 -1554
9 -3537 -1 -432 0 -801 3 -820 2 -19 4 -82 5 -140 2 -123 8 -172 20 -164 5 3
9 0 9 -5 0 -6 -7 -11 -15 -11 -11 0 -13 -9 -9 -42 l6 -43 -248 3 c-137 2 -255
5 -261 7 -7 2 -13 12 -13 21 0 17 22 16 63 -1 12 -5 17 -3 17 8 0 9 -12 17
-32 19 -18 3 -40 7 -48 9 -11 3 -14 -3 -12 -23 2 -24 -1 -28 -21 -28 -29 0
-44 35 -20 49 13 7 13 10 -4 22 -19 13 -43 50 -43 64 0 4 15 3 33 -1 61 -13
76 -13 70 2 -3 8 -15 14 -27 12 -53 -4 -83 13 -104 61 -26 59 -65 167 -94 256
-12 39 -30 81 -40 95 -10 14 -41 90 -69 170 -28 80 -55 154 -59 165 -5 11 -17
45 -26 75 -20 65 -77 207 -109 270 -30 60 -40 95 -26 86 6 -4 11 -3 11 3 0 5
-4 12 -9 15 -5 4 -22 39 -37 79 -15 39 -30 77 -34 82 -4 6 -10 25 -14 44 -3
19 -23 70 -44 115 -22 45 -51 115 -67 156 -41 111 -76 206 -146 390 -101 268
-110 293 -115 335 -5 40 -14 61 -14 32 0 -10 -4 -17 -8 -17 -14 0 -32 23 -32
40 0 9 -13 26 -30 38 -36 27 -39 15 -5 -22 13 -14 21 -26 17 -26 -4 -1 3 -9
16 -20 13 -11 21 -24 17 -30 -5 -8 -11 -7 -21 1 -22 18 -28 4 -9 -24 13 -20
16 -45 13 -121 -2 -53 -7 -96 -11 -96 -5 0 -6 -8 -2 -19 10 -32 5 -2020 -6
-2116 -1 -5 1 -26 5 -45 13 -86 12 -115 -6 -114 -10 0 -204 1 -432 2 l-413 2
-7 50 c-4 28 -5 592 -4 1253 2 661 2 1659 1 2217 -2 1071 0 1210 23 1210 7 0
16 4 19 10 3 6 -1 7 -9 4 -18 -7 -31 18 -22 41 4 12 27 14 143 9 76 -3 149 -8
163 -11z m2349 -1079 c7 4 11 -1 11 -13 0 -10 5 -21 12 -23 17 -6 25 -218 9
-218 -6 0 -11 -16 -11 -36 0 -20 -4 -33 -10 -29 -5 3 -6 13 -3 22 5 12 2 15
-10 10 -9 -3 -17 -2 -17 3 0 6 -4 10 -8 10 -14 0 -15 -122 -2 -130 9 -6 9 -13
0 -30 -8 -16 -10 -51 -5 -121 6 -86 5 -100 -9 -105 -9 -3 -16 -14 -16 -23 0
-13 2 -13 9 -2 6 9 11 10 15 2 11 -17 -2 -30 -23 -24 -13 3 -21 16 -24 41 -8
58 2 281 14 303 5 11 7 24 4 29 -3 6 -1 10 4 10 6 0 11 11 11 25 0 15 -5 24
-12 23 -7 -2 -12 3 -10 10 1 6 -2 12 -8 12 -5 0 -10 -9 -10 -20 0 -26 -5 -25
-32 2 -20 20 -24 36 -27 112 -2 66 0 91 10 97 28 17 39 -12 39 -97 0 -46 3
-84 8 -84 4 0 8 47 8 104 0 87 -2 103 -15 101 -9 -1 -11 0 -5 2 7 2 14 13 17
25 3 11 10 17 15 14 6 -3 8 -15 5 -26 -4 -16 0 -20 17 -20 21 0 21 -1 15 -112
-5 -79 -4 -110 3 -103 6 6 11 53 12 105 2 140 1 152 -10 145 -11 -7 -14 8 -3
18 4 4 10 2 14 -4 4 -6 12 -8 18 -5z m-43 -869 c12 -48 10 -313 -3 -326 -9 -9
-11 -7 -6 10 3 12 1 21 -6 21 -6 0 -11 -14 -11 -31 0 -18 -4 -28 -10 -24 -6 4
-5 -5 2 -19 6 -14 15 -26 19 -26 4 0 7 -60 8 -132 2 -175 10 -251 28 -261 12
-8 12 -11 -2 -27 -13 -14 -15 -36 -13 -111 l3 -94 33 3 c24 3 32 -1 32 -13 0
-13 -6 -16 -25 -11 -18 5 -25 2 -25 -8 0 -17 -34 -39 -44 -28 -4 3 -11 0 -16
-8 -10 -17 -12 54 -4 168 5 60 10 82 20 82 8 0 14 5 14 11 0 6 -9 8 -20 4 -17
-6 -20 -2 -20 29 0 42 9 68 21 60 5 -3 9 4 9 15 0 11 -5 23 -12 27 -7 5 -9 2
-5 -9 4 -10 2 -14 -7 -11 -17 7 -16 34 2 34 10 0 12 9 8 38 -3 20 -7 83 -8
140 -3 90 -5 102 -20 102 -21 0 -23 11 -6 28 8 8 8 15 -1 26 -9 11 -8 14 6 12
14 -1 17 5 15 27 -2 24 0 28 15 23 15 -5 18 0 18 33 1 36 -1 39 -18 29 -14 -7
-22 -6 -31 3 -8 9 -7 11 5 6 15 -5 17 7 18 105 1 61 4 115 7 120 10 15 24 8
30 -17z m-1681 -1025 c10 -30 39 -107 66 -170 62 -150 107 -263 129 -325 58
-167 95 -267 146 -400 83 -220 85 -227 79 -243 -3 -8 1 -25 10 -38 29 -45 129
-304 120 -312 -3 -3 -23 15 -46 39 -41 43 -45 36 -5 -9 16 -18 18 -25 7 -31
-17 -11 2 -23 24 -15 20 8 119 -96 105 -110 -6 -6 -16 -3 -28 7 -24 22 -50 24
-32 2 10 -13 9 -15 -9 -15 -18 0 -21 4 -16 20 6 19 2 20 -62 20 -120 0 -427
11 -470 16 l-42 5 0 527 c0 290 -3 660 -6 822 -6 303 -4 319 30 210z m1740
-231 c10 -10 12 -31 8 -80 -6 -66 -6 -66 -36 -65 -17 0 -32 -5 -35 -12 -2 -7
2 -11 9 -10 9 2 12 -13 12 -57 -2 -91 -2 -90 -14 -78 -6 6 -17 9 -24 7 -15 -6
-28 23 -15 31 6 4 10 -1 10 -9 0 -10 6 -13 15 -10 8 4 15 16 15 28 0 17 -2 18
-10 6 -12 -19 -12 -22 -14 130 -1 63 -4 120 -8 125 -10 16 71 10 87 -6z
m-1400 -219 c-3 -5 -2 -10 2 -10 5 0 13 -9 18 -19 33 -63 60 -124 82 -186 14
-38 38 -96 54 -129 29 -57 38 -85 19 -56 -6 9 -10 10 -10 3 0 -6 7 -18 15 -26
8 -8 11 -18 7 -22 -4 -3 1 -12 10 -19 17 -13 61 -125 57 -148 -1 -7 2 -24 8
-38 26 -63 26 -76 0 -38 -25 36 -52 110 -50 135 0 7 -2 11 -6 9 -8 -6 -45 73
-77 165 -22 63 -63 159 -85 202 -5 10 -7 22 -4 27 3 5 1 11 -5 15 -5 3 -10 17
-10 29 0 13 -7 29 -15 36 -9 7 -13 20 -10 28 3 9 0 19 -6 23 -10 6 -5 29 7 29
3 0 2 -4 -1 -10z m1354 -118 c1 -10 2 -27 2 -39 1 -20 5 -22 35 -17 l34 5 -1
-68 c-1 -80 -11 -103 -39 -96 -17 5 -20 14 -20 69 0 63 -13 92 -25 55 -6 -21
-5 -95 2 -123 2 -10 14 -18 26 -19 12 0 16 -3 10 -6 -7 -2 -13 -11 -13 -19 0
-8 -4 -14 -10 -14 -5 0 -10 5 -10 10 0 6 -9 10 -19 10 -18 0 -20 9 -20 139 l0
138 23 -4 c12 -3 24 -12 25 -21z m-2865 -213 c4 -20 1 -38 -6 -47 -7 -9 -8
-13 -3 -10 6 4 9 -30 7 -95 -7 -256 -2 -469 14 -567 5 -33 4 -34 -12 -18 -14
14 -18 44 -24 160 -6 109 -6 486 -1 596 2 24 19 11 25 -19z m2841 -117 c0 -15
-3 -30 -8 -33 -5 -4 -4 -10 2 -13 6 -4 15 2 19 15 6 16 11 19 17 10 4 -8 2
-17 -5 -21 -8 -5 -9 -13 -4 -21 5 -8 9 -18 9 -24 0 -5 14 -11 30 -12 21 -2 25
0 13 5 -17 7 -16 8 2 20 19 12 20 10 20 -67 0 -44 -4 -83 -10 -86 -5 -3 -10
-17 -10 -31 0 -18 -5 -24 -21 -24 -20 0 -21 4 -18 85 3 63 1 85 -8 85 -7 0
-13 -8 -13 -17 -1 -87 -10 -177 -19 -186 -8 -8 -11 19 -12 98 -1 61 -2 139 -3
175 -1 36 0 69 2 73 7 15 16 -3 17 -31z"/>
<path d="M16740 6392 c0 -121 1 -122 65 -122 57 0 66 19 63 129 l-3 96 -62 3
-63 3 0 -109z m103 76 c-2 -5 -3 -46 -3 -93 l0 -85 -40 0 -40 0 0 96 0 95 43
-3 c23 -2 41 -6 40 -10z"/>
<path d="M16763 5700 c-22 -9 -23 -15 -23 -114 0 -118 4 -124 80 -111 47 8 49
14 47 129 -2 78 -5 90 -22 97 -27 10 -55 10 -82 -1z"/>
<path d="M16957 5703 l-28 -4 3 -107 3 -106 34 -9 c22 -5 43 -4 62 4 l29 11 0
104 c0 92 -2 104 -17 104 -10 0 -27 2 -38 4 -11 2 -33 1 -48 -1z m83 -119 l0
-95 -42 3 -42 3 -4 79 c-2 43 -1 84 2 92 3 9 20 14 46 14 l40 0 0 -96z"/>
<path d="M17154 5700 c-22 -9 -34 -63 -34 -162 0 -55 18 -71 73 -65 55 6 57
10 57 121 l0 104 -31 6 c-37 7 -38 7 -65 -4z m74 -113 l3 -98 -38 3 -38 3 -3
89 c-3 96 2 108 48 104 25 -3 25 -5 28 -101z"/>
<path d="M16765 5273 c-11 -3 -23 -10 -27 -17 -7 -10 -1 -168 7 -193 3 -9 24
-13 60 -13 l55 0 0 109 c0 104 -1 109 -22 115 -25 6 -43 6 -73 -1z m75 -119
l0 -95 -42 3 -43 3 3 85 c2 47 6 88 9 93 2 4 20 7 39 7 l34 0 0 -96z"/>
<path d="M16943 5273 c-9 -3 -13 -36 -13 -113 l0 -108 31 -4 c18 -3 46 -2 63
1 l31 7 2 99 c2 84 0 102 -14 113 -17 12 -76 15 -100 5z"/>
<path d="M17164 5273 c-28 -5 -34 -28 -34 -136 l0 -88 58 3 57 3 3 103 c3 102
3 102 -23 112 -15 6 -29 9 -33 9 -4 -1 -17 -4 -28 -6z"/>
<path d="M16743 4834 c-6 -17 2 -192 10 -200 11 -11 82 -15 97 -5 21 14 28
199 9 212 -21 14 -110 8 -116 -7z m105 -101 l3 -93 -41 0 -40 0 0 96 0 95 38
-3 37 -3 3 -92z"/>
<path d="M16958 4843 c-16 -4 -18 -18 -18 -108 l0 -103 38 -3 c89 -9 87 -11
87 103 -1 91 -3 102 -20 109 -22 8 -60 9 -87 2z m82 -108 l0 -95 -40 0 -40 0
0 88 c0 49 3 92 7 95 3 4 21 7 40 7 l33 0 0 -95z"/>
<path d="M16760 4424 c-6 -14 -10 -61 -10 -104 0 -89 8 -100 72 -100 54 0 56
6 55 117 -2 112 -2 113 -75 113 -26 0 -35 -5 -42 -26z"/>
<path d="M17188 4443 l-38 -4 0 -82 c0 -45 -3 -92 -6 -104 -6 -21 -3 -23 37
-23 69 0 71 4 67 115 -2 55 -7 99 -13 100 -5 1 -27 0 -47 -2z"/>
<path d="M16973 4023 c-25 -5 -25 -3 -27 -125 -1 -52 3 -88 9 -89 6 0 23 -3
39 -5 17 -3 40 -3 52 0 22 6 22 9 17 103 -3 54 -8 101 -12 105 -9 10 -53 16
-78 11z"/>
<path d="M16978 3642 c-26 -3 -27 -5 -30 -85 -2 -45 -1 -90 1 -100 5 -23 58
-36 94 -23 26 10 27 13 26 81 -1 38 -4 83 -8 99 -6 30 -20 35 -83 28z"/>
<path d="M16755 3622 c-8 -21 -6 -165 3 -178 19 -29 110 -21 113 10 9 103 8
176 -3 177 -7 0 -34 1 -60 2 -33 2 -49 -1 -53 -11z"/>
<path d="M4773 7970 c-8 -30 -13 -34 -34 -30 -27 6 -406 6 -799 0 l-265 -3
185 -9 c102 -4 269 -13 371 -19 169 -11 310 -9 442 7 39 5 47 3 47 -10 0 -9
-11 -18 -25 -22 -14 -3 -25 -9 -25 -13 0 -4 -35 -33 -77 -64 -43 -30 -96 -74
-117 -96 -22 -22 -42 -38 -46 -36 -4 3 -18 -10 -30 -28 l-22 -32 -242 3 c-251
4 -368 21 -148 22 75 0 122 4 122 10 0 17 -261 10 -267 -7 -7 -18 -50 -16 -57
3 -5 13 -15 14 -49 9 -23 -4 -45 -12 -48 -17 -3 -5 -18 -11 -32 -12 -15 -2
-24 1 -21 6 3 5 12 7 20 4 7 -3 16 -1 19 4 4 6 -7 10 -24 10 -20 0 -31 -6 -33
-17 -2 -12 -16 -17 -60 -19 -32 -2 -58 -2 -58 0 0 1 80 58 178 124 99 67 187
132 198 143 19 22 19 22 -5 14 -34 -10 -100 -52 -276 -173 -82 -56 -166 -110
-185 -120 -35 -16 -35 -16 -8 -20 34 -4 36 -17 36 -357 0 -148 3 -424 7 -613
l8 -343 -44 7 c-33 5 -54 16 -83 45 -21 22 -44 39 -50 39 -6 0 -28 -16 -48
-35 -31 -31 -45 -36 -109 -45 -41 -5 -83 -10 -94 -10 -20 0 -20 8 -23 596 -3
524 -1 596 12 591 13 -5 14 16 10 161 -3 92 -8 183 -12 202 -4 19 -3 49 3 67
8 27 15 33 37 33 16 0 28 5 28 11 0 7 -14 9 -42 5 -24 -3 -227 -8 -453 -12
-225 -3 -427 -10 -447 -15 -20 -5 -58 -27 -85 -48 -27 -21 -68 -49 -93 -63
-25 -14 -67 -39 -95 -56 -152 -95 -165 -101 -165 -81 0 6 -7 17 -15 25 -13 14
-15 13 -15 -10 0 -14 -9 -31 -22 -40 l-22 -16 22 0 c20 0 22 -4 16 -22 -4 -13
-7 -36 -7 -53 16 -386 28 -772 27 -885 -2 -193 -16 -515 -24 -546 -4 -18 -4
-51 0 -75 4 -23 8 -123 8 -220 0 -97 2 -181 5 -186 3 -5 2 -15 -3 -23 -5 -9
-4 -20 3 -29 14 -16 17 -1026 5 -1241 -6 -98 -4 -161 12 -295 37 -315 83 -462
215 -684 35 -58 61 -108 59 -110 -3 -3 -41 31 -86 75 -137 133 -47 29 125
-145 99 -100 189 -182 232 -210 39 -25 73 -49 78 -52 4 -3 10 -40 13 -82 6
-74 5 -77 -18 -86 -15 -7 49 -10 197 -11 123 0 238 -5 260 -11 52 -14 682 -22
690 -9 4 6 -17 10 -54 10 -33 0 -63 5 -66 10 -3 6 -26 10 -51 10 -24 0 -44 5
-44 10 0 7 32 10 88 8 48 -1 123 -1 167 1 44 1 91 -1 105 -4 19 -5 21 -4 10 4
-8 5 -12 13 -8 16 5 5 252 32 311 35 5 0 6 4 2 9 -3 5 -22 7 -42 4 -31 -5 -35
-4 -30 10 4 11 1 17 -8 17 -8 0 -12 -6 -10 -12 4 -9 -6 -13 -27 -14 -18 0 -49
-4 -68 -8 -33 -6 -33 -6 -10 6 157 77 253 119 258 114 3 -4 6 -44 7 -90 l2
-83 -163 2 c-126 1 -165 -2 -168 -12 -6 -14 -1 -14 154 -18 80 -2 178 11 196
26 8 6 17 4 27 -6 20 -20 39 -19 58 3 9 9 25 24 37 32 12 7 26 26 31 40 9 26
36 35 56 19 20 -15 469 -13 459 3 -3 5 -51 8 -112 5 -108 -4 -187 7 -176 25 4
5 17 7 29 4 14 -4 25 -1 28 7 3 7 6 4 6 -6 1 -14 6 -17 21 -12 10 3 28 1 40
-5 13 -7 20 -7 20 0 0 5 14 10 32 10 57 0 24 9 -40 11 -47 2 -62 6 -62 17 0 9
-7 13 -20 9 -11 -3 -20 -1 -20 4 0 8 22 13 43 10 4 0 7 4 7 9 0 19 -117 15
-137 -5 -7 -7 -22 -11 -34 -8 -12 3 -24 1 -28 -5 -4 -6 -17 -9 -29 -5 -40 10
-23 23 33 23 39 0 53 3 50 13 -4 9 14 13 67 14 135 5 248 15 248 23 0 5 -41 7
-90 5 -50 -1 -92 1 -95 5 -7 12 39 21 72 14 20 -4 33 -1 42 10 21 25 11 26
-59 10 -91 -21 -170 -28 -170 -16 0 6 9 8 20 5 11 -3 37 -2 57 2 l38 8 -40 8
c-22 4 -65 9 -95 10 l-55 1 55 9 c30 5 73 6 95 3 22 -3 67 -5 100 -3 77 3 89
3 158 -6 55 -8 69 -1 47 21 -6 6 10 10 45 10 39 1 55 -3 55 -12 0 -20 16 -26
86 -31 42 -3 64 -1 64 6 0 11 -24 15 -69 11 -13 -1 -28 4 -32 12 -7 10 -9 10
-9 1 0 -7 -7 -13 -15 -13 -18 0 -20 20 -2 20 6 1 1 7 -12 14 -14 8 -62 15
-110 16 -82 2 -174 7 -251 13 -19 2 -45 0 -58 -5 -12 -4 -44 -3 -70 2 -30 7
-76 7 -127 2 -44 -5 -82 -8 -84 -6 -2 2 66 75 152 161 198 199 257 265 250
277 -3 5 -1 6 4 3 6 -4 17 1 24 10 10 12 10 14 2 9 -7 -4 -13 -4 -13 -1 0 10
30 65 36 65 2 0 -1 -10 -7 -22 -8 -17 -8 -20 0 -12 6 6 13 21 16 33 2 13 15
42 28 64 13 23 39 83 56 132 18 50 37 98 43 108 5 11 7 21 4 24 -2 3 2 22 9
43 30 84 76 294 91 410 2 19 6 45 9 57 3 12 1 24 -3 27 -5 3 -7 28 -5 57 2 28
1 59 -2 68 -13 32 -28 1172 -26 2036 1 303 1 694 1 870 l-1 320 31 18 c18 9
44 17 58 18 l27 1 -28 8 c-19 6 -36 4 -55 -6 -36 -18 -44 -18 -38 4 2 9 1 35
-3 57 l-8 40 -10 -35z m-1783 -59 c0 -10 -52 -51 -130 -102 -30 -20 -64 -46
-75 -58 -11 -13 -40 -38 -65 -56 -45 -33 -49 -34 -174 -40 -70 -3 -137 -10
-149 -16 -23 -10 -8 -9 156 7 44 4 67 3 67 -4 0 -6 -4 -13 -9 -17 -6 -3 -110
-8 -233 -11 -123 -3 -239 -9 -258 -14 -19 -4 -63 -11 -97 -15 -111 -12 -67
-20 94 -18 87 2 233 4 326 5 l167 3 0 -390 c1 -214 1 -433 2 -485 1 -52 1
-168 0 -258 -1 -90 -1 -166 -1 -170 1 -4 1 -23 0 -42 -1 -33 -3 -35 -37 -35
-42 0 -72 -31 -83 -86 -5 -28 -20 -43 -78 -83 -60 -41 -74 -46 -91 -37 -11 6
-36 11 -56 11 -59 0 -88 -48 -62 -101 18 -36 13 -45 -74 -148 -78 -93 -88
-101 -118 -101 -51 0 -76 -58 -46 -108 17 -29 17 -31 -13 -88 -17 -33 -38 -81
-48 -107 -15 -39 -24 -49 -47 -54 -54 -11 -75 -76 -43 -137 19 -36 19 -61 -1
-188 -17 -110 -18 -112 -50 -122 -21 -6 -21 -5 -28 316 -3 178 -11 388 -17
468 -5 80 -9 291 -7 470 4 555 3 874 -4 1192 -6 240 -5 309 5 315 6 4 105 6
218 5 127 -2 209 0 213 6 8 13 -246 27 -314 18 -28 -4 -50 -3 -50 2 0 10 164
118 235 155 28 15 63 40 79 57 l29 30 251 1 c138 0 258 2 266 3 8 2 60 6 115
10 137 10 187 15 193 21 9 9 42 6 42 -4z m-15 -208 c-3 -82 -8 -213 -11 -293
-4 -80 -6 -167 -5 -195 0 -27 4 -244 7 -481 6 -349 4 -433 -6 -439 -24 -15
-50 31 -45 81 2 26 0 42 -6 39 -5 -4 -9 -2 -9 4 0 5 5 11 12 13 8 3 8 10 -4
26 -8 12 -18 19 -22 15 -4 -4 -11 -1 -17 7 -7 11 -8 9 -5 -10 2 -14 9 -24 15
-23 12 3 15 -20 4 -31 -4 -4 -6 -26 -4 -50 2 -37 -1 -45 -18 -51 -21 -6 -51
-52 -51 -78 0 -7 -15 -18 -34 -24 -32 -10 -34 -9 -38 16 -2 14 -3 90 -3 168 0
85 -3 135 -9 126 -4 -8 -7 -85 -4 -169 3 -114 1 -154 -8 -154 -18 0 -20 386
-2 393 10 4 10 8 1 14 -15 11 -8 599 10 828 2 22 4 70 5 106 l2 66 61 48 c70
55 159 145 159 161 0 9 20 34 27 34 2 0 1 -66 -2 -147z m1781 20 c-8 -146 -8
-619 -2 -1423 6 -795 5 -965 -7 -977 -9 -9 -9 -25 1 -20 4 3 7 -34 6 -81 0
-48 3 -145 8 -217 5 -85 5 -131 -2 -133 -5 -2 -10 -8 -10 -13 0 -6 5 -7 10 -4
6 4 10 -16 10 -52 0 -32 3 -75 6 -95 4 -24 3 -38 -4 -38 -5 0 -8 9 -5 20 3 11
0 20 -6 20 -8 0 -10 -20 -8 -62 2 -35 0 -77 -5 -94 -7 -25 -12 -76 -17 -151
-1 -7 -4 -13 -9 -13 -4 0 -5 21 -3 46 2 32 0 44 -8 40 -6 -4 -11 0 -11 11 0
15 -2 16 -10 3 -5 -8 -5 -17 0 -20 5 -3 8 -27 6 -53 -1 -26 1 -47 6 -47 5 0 6
-15 3 -32 -4 -26 -10 -155 -15 -336 0 -8 -5 -10 -12 -6 -8 5 -9 2 -5 -9 7 -18
-30 -139 -64 -212 -25 -53 -36 -55 -14 -2 11 27 12 37 2 41 -8 3 -6 9 7 20 11
9 16 19 13 23 -4 3 -1 13 6 22 16 19 39 93 27 86 -5 -3 -12 4 -15 16 -5 13 -2
25 6 30 7 4 10 11 6 15 -4 4 1 16 10 27 10 11 12 17 5 13 -10 -6 -11 -1 -7 21
3 15 3 23 -1 16 -8 -17 -34 -4 -34 17 0 10 9 22 20 25 11 3 20 11 20 17 0 6
-6 6 -15 -2 -12 -10 -15 -9 -15 8 0 11 6 23 13 25 9 4 9 7 0 14 -7 5 -10 22
-8 38 2 17 4 34 4 38 1 5 5 6 9 3 5 -3 7 -19 4 -36 -3 -18 0 -30 7 -30 7 0 9
9 5 25 -4 16 -2 25 6 25 7 0 7 5 -3 14 -8 8 -13 25 -12 38 1 13 0 15 -2 6 -2
-10 -9 -18 -14 -18 -6 0 -8 8 -5 18 3 9 10 46 14 81 8 54 7 61 -4 46 -7 -10
-12 -31 -10 -46 2 -17 -1 -26 -6 -22 -6 3 -8 26 -5 52 5 47 -7 86 -24 76 -5
-4 -9 1 -9 10 0 9 5 13 10 10 6 -3 10 1 10 11 0 14 -2 14 -16 3 -14 -11 -18
-10 -31 6 -11 15 -13 36 -7 90 3 39 9 72 13 75 3 3 7 19 8 35 1 17 5 45 9 63
5 27 10 33 26 29 19 -5 20 -2 14 61 -3 37 -12 85 -20 107 -8 22 -19 67 -26
100 -6 33 -18 75 -26 92 -7 18 -11 40 -7 49 4 11 -6 27 -31 50 -20 18 -36 41
-36 50 0 13 3 14 15 4 8 -7 15 -19 15 -26 0 -8 5 -14 10 -14 12 0 12 2 1 34
-7 17 -7 26 1 28 7 3 5 13 -6 29 -9 14 -13 29 -9 33 4 4 2 10 -5 15 -13 8 -19
46 -21 129 -1 33 -5 51 -11 47 -6 -4 -10 21 -11 67 0 40 -2 93 -4 118 -4 55
-15 389 -21 645 -5 207 -5 273 -5 746 l1 317 51 38 c29 22 67 49 86 62 19 13
33 31 33 43 0 19 -3 18 -42 -12 -24 -17 -52 -42 -63 -54 -11 -13 -31 -26 -45
-29 -24 -7 -24 -6 6 21 36 32 145 116 158 122 5 2 6 -1 2 -8 -4 -6 -3 -11 2
-11 6 0 15 14 21 31 6 17 14 28 19 25 5 -3 28 15 51 40 24 24 46 44 49 44 3 0
2 -53 -2 -117z m-801 -141 c5 -4 -12 -10 -40 -13 -27 -3 13 -4 90 -1 144 5
343 -4 363 -17 8 -5 13 -172 17 -596 7 -805 15 -1241 23 -1341 5 -46 5 -84 1
-84 -15 0 -91 152 -81 162 13 13 -1 69 -27 111 -21 35 -56 52 -85 41 -9 -4
-39 17 -83 57 -81 75 -88 85 -97 126 -4 17 -18 43 -32 58 -23 25 -29 26 -75
20 -44 -6 -57 -3 -114 26 -50 25 -66 39 -70 60 -8 37 -42 79 -63 79 -9 0 -30
-7 -46 -15 -24 -13 -39 -14 -83 -5 l-53 11 -2 262 c0 144 -3 273 -5 287 -1 14
-6 124 -9 245 -7 318 -19 492 -34 510 -10 12 -10 16 1 20 39 14 481 11 504 -3z
m-748 -1355 c15 0 -65 -78 -99 -96 -23 -12 -34 -12 -67 -1 -31 10 -40 19 -45
43 -3 17 -3 34 2 39 11 11 142 27 172 21 14 -3 30 -6 37 -6z m240 -28 c8 -7 9
-20 2 -41 -5 -17 -5 -36 -1 -42 11 -16 9 -51 -3 -51 -52 2 -144 19 -140 26 7
10 -8 13 -17 3 -3 -3 -57 -7 -119 -10 -63 -2 -127 -5 -144 -7 -25 -2 -29 1
-27 18 5 29 9 30 45 18 48 -17 79 -6 141 49 36 32 60 47 68 41 7 -4 22 -6 34
-5 11 2 27 -4 34 -12 7 -9 17 -16 23 -16 5 0 3 8 -6 18 -10 10 -17 22 -17 26
0 11 112 -3 127 -15z m136 -23 c28 -5 37 -11 33 -22 -3 -8 1 -14 10 -14 8 0
17 -7 21 -16 4 -11 8 -12 13 -4 8 13 73 -5 143 -42 l42 -22 -45 -8 c-25 -4
-67 -12 -93 -18 -27 -5 -59 -10 -72 -10 -13 0 -25 -4 -27 -10 -1 -5 -25 1 -52
14 -45 22 -49 27 -49 58 0 19 3 42 6 51 4 10 2 17 -3 17 -11 0 -14 33 -4 43 4
3 14 3 23 -2 9 -5 33 -11 54 -15z m-1059 -161 c-4 -15 -2 -25 5 -25 6 0 11 4
11 8 0 12 49 34 60 27 4 -3 10 -21 12 -40 4 -38 -9 -56 -69 -91 -39 -21 -47
-16 -33 20 5 15 10 37 9 49 0 21 -1 21 -11 -3 -5 -14 -17 -41 -26 -60 -8 -19
-16 -39 -16 -45 -1 -5 -47 -56 -103 -113 -57 -57 -103 -107 -103 -111 0 -5
-14 -26 -31 -47 -17 -21 -40 -59 -51 -84 -11 -25 -35 -76 -54 -114 -19 -39
-34 -76 -34 -84 0 -30 -74 -117 -91 -106 -5 3 -9 0 -9 -5 0 -6 -15 -12 -32
-12 -18 -1 -25 -3 -15 -6 9 -2 17 -8 17 -12 0 -15 -39 -43 -49 -36 -16 9 -13
41 3 55 8 6 16 26 18 43 2 20 8 31 16 29 10 -2 10 2 2 17 -16 30 -13 45 26
128 40 85 71 124 91 116 20 -8 15 -23 -7 -23 -13 0 -20 -7 -20 -20 0 -11 -7
-23 -15 -26 -13 -5 -12 -10 1 -37 13 -24 14 -35 5 -49 -6 -10 -11 -20 -11 -23
0 -4 46 13 59 22 2 1 -8 16 -23 33 -32 39 -23 63 34 88 22 9 40 23 40 30 0 7
6 15 14 18 22 8 12 55 -17 86 l-26 26 26 39 c41 61 76 106 100 132 20 21 24
22 38 8 19 -20 19 -27 0 -27 -10 0 -15 -10 -15 -33 0 -18 -5 -38 -11 -44 -8
-8 -5 -14 11 -23 22 -12 23 -11 17 20 -11 52 33 109 84 110 14 0 38 11 52 24
23 21 24 25 9 31 -9 3 -18 1 -20 -4 -8 -24 -22 -9 -17 17 6 25 5 25 -8 10 -16
-20 -37 -24 -37 -7 0 16 44 56 115 106 70 50 88 54 79 18z m900 6 l28 -11 -4
-168 c-4 -141 -8 -176 -27 -227 -54 -145 -174 -534 -186 -603 -13 -76 4 -43
45 91 23 72 58 186 80 252 21 66 48 157 61 202 12 46 25 81 27 78 3 -3 7 -86
10 -186 5 -205 4 -207 -71 -314 -27 -38 -66 -96 -86 -128 -34 -53 -38 -57 -66
-51 -16 4 -34 8 -38 11 -4 3 -7 165 -5 361 2 440 -2 684 -11 597 -4 -33 -7
-264 -6 -512 0 -396 -2 -453 -15 -453 -8 0 -24 -3 -35 -6 -17 -4 -28 9 -67 73
-43 72 -46 83 -47 148 -1 39 -4 86 -7 105 -12 69 14 15 55 -115 23 -71 46
-137 52 -145 18 -26 0 46 -50 195 l-46 140 -3 337 -3 337 33 4 c62 9 353 0
382 -12z m469 -4 c28 -22 29 -24 19 -77 -6 -30 -14 -63 -17 -72 -4 -10 -3 -18
3 -18 17 0 32 48 32 108 0 12 5 22 11 22 27 0 91 -45 154 -107 91 -89 102
-103 170 -203 74 -111 110 -180 92 -180 -7 0 -17 4 -23 10 -5 5 -39 21 -74 35
-64 25 -103 33 -85 17 13 -11 168 -72 183 -72 19 0 46 -110 46 -192 1 -43 4
-78 7 -78 3 0 7 -39 8 -86 1 -77 0 -86 -15 -80 -14 5 -15 4 -4 -9 10 -12 15
-77 12 -160 0 -11 -1 -47 0 -80 0 -33 -1 -102 -2 -152 -1 -51 1 -97 4 -102 13
-21 -23 -73 -72 -105 -28 -19 -53 -32 -55 -29 -3 2 1 20 9 39 8 19 14 35 13
36 0 2 4 14 9 28 5 14 13 41 17 60 4 19 13 39 19 43 8 6 8 10 -1 13 -7 3 -10
18 -6 42 7 43 11 51 21 35 4 -6 7 22 7 63 0 40 -2 74 -5 74 -3 0 -5 21 -5 48
-1 68 -12 182 -19 189 -3 4 -6 18 -6 33 0 14 -4 30 -8 35 -5 6 -14 30 -21 55
-7 25 -21 69 -33 98 -11 29 -18 55 -15 58 11 11 77 -18 88 -38 9 -17 13 -18
20 -7 5 8 9 17 9 20 0 8 -77 37 -110 41 -20 2 -34 21 -77 107 -29 57 -68 122
-87 145 -44 54 -148 156 -158 156 -4 0 -8 5 -8 11 0 6 9 8 21 4 29 -10 199
-14 199 -5 0 11 -65 20 -102 14 -51 -8 -148 20 -208 60 -30 20 -92 56 -137 79
-46 23 -83 45 -83 48 0 4 17 9 38 12 20 3 59 10 85 15 55 10 61 5 70 -67 3
-24 13 -51 22 -60 16 -15 17 -15 7 4 -13 27 -25 121 -17 135 10 16 27 12 58
-13z m-914 -104 c-1 -60 -5 -155 -9 -213 -6 -94 -10 -93 -15 5 -1 17 -5 64 -9
105 -4 41 -8 95 -8 120 0 59 -7 68 -25 33 -9 -17 -10 -29 -4 -31 6 -2 7 -12 2
-25 -5 -13 -3 -48 5 -87 7 -36 14 -82 14 -102 0 -20 7 -65 14 -100 20 -86 26
-463 7 -443 -5 6 -30 50 -56 100 -25 49 -50 94 -54 100 -4 5 -16 32 -25 58
-10 26 -28 60 -41 75 -22 26 -65 115 -65 134 0 5 -6 16 -14 24 -20 19 -29 86
-21 152 5 44 9 52 17 38 5 -9 7 -24 4 -31 -3 -8 -1 -17 4 -20 21 -13 10 55
-12 75 -12 11 -18 23 -14 27 4 4 12 1 17 -7 8 -12 9 -10 5 6 -6 18 5 25 84 57
49 20 100 37 112 37 13 0 30 5 38 10 8 5 23 10 33 10 15 0 17 -11 16 -107z
m701 3 c126 -61 173 -94 292 -206 135 -127 233 -282 292 -467 38 -120 44 -158
24 -166 -8 -3 -7 -6 4 -6 24 -1 33 -68 31 -231 -3 -337 -111 -612 -333 -854
-84 -91 -246 -219 -338 -265 l-42 -22 -10 27 c-6 14 -17 49 -26 77 -9 29 -32
97 -50 152 -32 97 -33 105 -31 248 1 81 5 147 8 147 3 0 65 -101 138 -224 74
-124 143 -233 154 -243 l21 -18 -21 35 c-259 433 -290 493 -298 588 -5 60 -4
72 9 72 8 0 18 -4 21 -10 12 -19 358 -290 458 -359 73 -50 65 -32 -11 24 -37
28 -156 121 -264 207 -174 139 -199 163 -209 198 -7 22 -9 43 -6 47 4 3 48
-12 99 -35 51 -22 134 -57 183 -77 217 -89 408 -165 413 -165 18 0 -23 22 -90
49 -123 48 -384 158 -495 208 l-103 46 0 45 0 45 88 -7 c48 -3 170 -8 272 -11
102 -3 217 -7 255 -10 45 -3 61 -1 44 4 -14 5 -109 12 -210 16 -101 4 -202 8
-224 10 -22 2 -81 6 -132 10 l-91 7 -4 35 c-5 43 -6 42 157 78 129 28 325 73
470 107 50 12 104 28 120 35 l30 14 -35 -7 c-19 -3 -71 -14 -115 -25 -44 -10
-165 -37 -270 -59 -104 -22 -218 -47 -252 -55 -34 -8 -74 -15 -88 -15 -24 0
-25 3 -25 55 0 39 5 60 18 73 17 17 88 66 431 298 102 68 178 124 170 123 -8
0 -53 -26 -101 -57 -48 -31 -136 -88 -195 -127 -59 -38 -152 -100 -205 -137
-54 -37 -102 -68 -109 -68 -8 0 -10 25 -7 83 l3 82 139 208 c76 115 135 211
132 215 -4 3 -10 1 -14 -5 -61 -97 -248 -363 -255 -363 -5 0 -6 80 -2 188 3
103 8 261 10 352 2 91 4 166 4 168 1 2 13 -3 29 -11 15 -8 79 -40 142 -71z
m-1052 -341 c5 -148 8 -271 7 -272 0 -1 -22 15 -48 35 -26 20 -93 72 -150 115
-81 63 -92 69 -51 30 28 -27 94 -83 147 -126 90 -73 116 -104 102 -126 -3 -5
0 -13 5 -16 6 -4 10 -17 9 -28 0 -12 0 -24 1 -27 1 -3 4 -18 6 -34 4 -23 2
-27 -8 -19 -7 6 -26 13 -43 16 -30 5 -29 4 15 -34 24 -21 41 -41 37 -45 -4 -4
-7 -2 -7 4 0 7 -4 12 -8 12 -5 0 -9 -7 -9 -15 0 -8 3 -15 7 -15 4 0 7 -7 7
-15 0 -8 -4 -15 -9 -15 -4 0 -8 -18 -8 -40 0 -31 -4 -40 -17 -41 -54 -1 -265
4 -376 9 -70 4 -135 4 -145 1 -15 -5 63 -10 388 -25 69 -3 131 -7 138 -9 8 -3
12 -26 12 -70 0 -58 -2 -66 -22 -75 -21 -9 -94 -23 -403 -77 -49 -8 -94 -20
-100 -25 -7 -7 -3 -8 10 -4 19 5 394 71 478 83 l38 6 -3 -79 -3 -79 -145 -73
c-257 -130 -302 -154 -297 -159 3 -2 97 41 209 97 111 56 215 106 229 110 25
8 26 7 19 -29 -3 -20 -5 -65 -4 -101 3 -74 10 -64 -173 -224 -97 -84 -137
-130 -94 -107 10 6 24 18 32 27 20 24 219 194 227 194 4 0 8 -62 9 -138 2
-201 17 -294 59 -369 19 -34 39 -65 44 -68 6 -3 10 -10 10 -15 0 -17 -161 94
-239 165 -154 140 -284 286 -320 360 -18 39 -39 81 -46 95 -26 51 -73 207 -79
265 -4 33 -9 116 -13 184 -4 98 -2 125 8 132 10 6 11 11 3 17 -7 5 -7 27 3 77
7 39 15 83 18 99 8 44 44 161 59 190 7 14 16 23 20 19 4 -4 4 0 1 9 -10 27 50
153 97 203 15 17 28 35 28 41 0 6 15 26 33 45 17 19 61 67 97 108 36 40 94 92
130 115 60 39 65 41 68 22 1 -12 6 -142 10 -291z m106 -42 c20 -39 36 -74 36
-78 0 -8 111 -204 158 -280 29 -47 50 -143 35 -159 -4 -3 -32 18 -63 47 -30
28 -80 72 -110 97 -94 78 -90 70 -91 173 -1 121 -7 226 -16 257 -9 36 -10 44
-4 55 3 5 8 -2 12 -15 3 -14 23 -57 43 -97z m1730 -315 c25 -133 35 -242 24
-253 -3 -4 -2 -21 3 -39 11 -41 4 -289 -10 -335 -6 -19 -8 -37 -6 -42 3 -4 1
-10 -5 -14 -15 -9 -25 43 -24 120 6 278 6 469 -1 523 -5 42 -4 62 4 62 6 0 13
-10 15 -22z m-2431 -143 c-14 -72 -27 -132 -29 -134 -3 -3 -17 8 -32 22 -16
15 -31 27 -34 27 -6 0 43 -101 53 -110 3 -3 7 -12 7 -20 1 -8 3 -45 6 -83 3
-37 8 -92 11 -122 4 -30 5 -55 2 -55 -3 0 -31 24 -62 53 l-58 54 37 51 c40 57
45 82 19 82 -10 0 -27 7 -37 15 -11 8 -27 15 -35 15 -19 0 27 -39 46 -40 18 0
7 -38 -23 -82 -27 -39 -54 -50 -54 -23 0 8 4 15 9 15 5 0 4 21 -1 48 -9 46 -2
187 11 207 3 6 6 22 7 37 1 15 5 35 9 45 6 16 9 14 31 -12 l25 -30 -10 27 c-9
25 -6 31 32 67 48 44 91 80 94 77 1 -1 -10 -60 -24 -131z m742 70 c17 -16 55
-50 85 -75 106 -87 131 -120 94 -120 -9 0 -70 28 -135 61 l-119 62 0 70 0 70
23 -19 c12 -10 36 -32 52 -49z m648 -127 c-35 -36 -115 -88 -136 -88 -23 0
-12 23 43 95 26 33 62 83 81 110 l34 50 3 -69 c3 -64 1 -71 -25 -98z m-676 4
c26 -15 83 -43 127 -62 70 -31 97 -52 84 -65 -2 -3 -31 0 -64 5 -32 5 -88 10
-122 12 -35 2 -66 6 -68 10 -6 9 -13 128 -8 128 2 0 25 -13 51 -28z m472 -122
c21 -10 41 -26 45 -35 18 -48 -7 -116 -52 -138 -27 -14 -62 -12 -62 2 0 5 -10
6 -22 4 -26 -5 -58 38 -58 79 0 32 35 87 63 98 33 13 44 12 86 -10z m-409 -16
c41 -4 86 -8 100 -9 14 -1 31 -3 38 -3 8 -1 12 -12 10 -29 -3 -25 -9 -29 -63
-40 -92 -19 -95 -18 -95 22 0 19 -4 35 -8 35 -4 0 -6 -16 -4 -35 4 -32 1 -36
-32 -50 -19 -8 -40 -15 -46 -15 -6 0 -10 29 -10 71 0 62 2 70 18 65 9 -3 51
-8 92 -12z m228 -86 c-6 -33 13 -86 34 -91 14 -4 19 -11 15 -24 -3 -10 -15
-49 -26 -88 -37 -130 -71 -203 -56 -122 4 20 8 61 10 90 1 28 5 61 9 72 8 20
7 20 -8 1 -9 -11 -19 -17 -22 -13 -4 4 -2 12 3 19 6 7 9 43 8 81 -3 54 0 69
13 77 22 12 23 12 20 -2z m390 -14 c18 -4 22 -11 22 -45 l0 -40 -37 26 c-21
14 -47 25 -58 25 -12 -1 -1 -10 30 -25 54 -26 75 -48 75 -77 0 -29 -21 -20
-80 32 -30 27 -57 47 -60 44 -3 -3 9 -17 25 -31 117 -99 115 -96 115 -165 l-1
-63 -20 25 c-47 59 -122 167 -134 194 -8 19 -14 24 -17 15 -3 -8 -9 -10 -14
-5 -5 5 -4 10 2 13 28 10 45 31 48 58 2 17 4 31 5 32 1 2 66 -6 99 -13z m-474
-10 c3 -9 4 -20 1 -24 -3 -5 -56 -34 -118 -66 -61 -31 -116 -60 -121 -65 -21
-19 -27 -6 -24 54 2 47 7 62 18 63 8 0 22 4 30 7 8 3 26 8 40 11 14 3 52 12
85 19 79 20 82 20 89 1z m-1176 -74 c18 0 32 -35 32 -80 0 -40 41 -223 60
-267 8 -19 6 -23 -10 -23 -15 0 -20 -7 -20 -29 0 -16 -3 -36 -6 -44 -9 -24 31
-57 71 -57 34 0 35 -1 92 -117 32 -65 59 -121 61 -125 2 -5 -6 -8 -17 -8 -30
0 -58 -61 -45 -97 12 -36 62 -51 109 -34 34 12 35 11 129 -64 96 -78 115 -100
96 -119 -17 -17 -11 -54 12 -76 26 -24 90 -27 108 -5 7 8 17 15 22 15 12 0
198 -89 198 -94 0 -15 -14 -35 -21 -30 -5 3 -9 -9 -9 -26 0 -24 5 -33 21 -37
25 -7 25 -10 -26 -193 -20 -74 -40 -148 -44 -165 -6 -28 -10 -30 -61 -33 -84
-4 -99 -9 -93 -32 9 -35 -23 -33 -77 5 -29 21 -64 49 -77 64 -14 14 -22 20
-18 14 15 -29 -16 -8 -97 67 -152 141 -282 343 -346 535 -36 111 -39 122 -63
265 -10 63 -22 125 -25 138 -4 12 -2 22 4 22 6 0 13 -14 17 -31 4 -17 9 -28
12 -25 3 2 -5 42 -17 88 -19 70 -23 114 -25 283 -1 110 0 233 2 273 5 68 6 72
22 58 10 -9 23 -16 29 -16z m1173 -2 c2 -24 -3 -53 -11 -58 -43 -28 -222 -199
-239 -226 -8 -15 -10 2 -9 71 1 80 2 84 7 33 9 -84 24 -84 20 1 -3 58 -1 75
11 82 8 4 27 14 41 21 115 58 144 74 147 81 6 12 32 8 33 -5z m-1012 -50 c24
-26 41 -53 41 -67 0 -19 3 -21 15 -11 17 14 35 5 35 -18 1 -9 16 -62 35 -117
18 -55 32 -102 29 -104 -2 -2 -21 1 -43 7 -47 15 -64 15 -56 2 3 -5 17 -10 30
-10 13 0 27 -4 30 -10 3 -5 13 -10 21 -10 21 0 38 -18 75 -81 80 -135 80 -137
34 -119 -40 15 -43 4 -4 -13 57 -24 254 -234 244 -260 -4 -8 1 -43 10 -77 18
-69 11 -89 -24 -71 -12 7 -21 16 -21 21 0 6 -7 10 -15 10 -15 0 -145 99 -145
111 0 10 143 9 156 -2 8 -7 14 -7 19 1 12 19 -3 24 -60 21 -85 -4 -93 5 -87
90 4 58 2 71 -9 67 -10 -3 -13 -22 -11 -75 3 -58 1 -71 -13 -77 -18 -7 -45 19
-71 69 -9 17 -23 38 -31 47 -8 9 -12 21 -9 26 3 6 0 12 -7 15 -6 3 -23 27 -36
53 -13 27 -30 61 -38 77 -8 15 -11 27 -6 27 4 0 2 4 -6 9 -8 5 -15 17 -16 28
-1 10 -8 32 -17 48 -8 17 -15 41 -13 54 1 14 -7 33 -18 44 -15 15 -18 27 -13
60 4 23 11 46 15 52 10 13 24 85 16 85 -9 0 -28 -53 -26 -71 2 -20 -24 -43
-39 -34 -5 3 -10 21 -10 38 0 18 -7 54 -15 81 -22 72 -19 126 6 126 4 0 26
-19 48 -42z m1301 9 c0 -13 22 -88 49 -168 161 -474 212 -622 237 -689 14 -41
37 -111 50 -155 30 -105 151 -445 208 -584 14 -36 26 -66 26 -68 0 -3 -14 -3
-32 -1 l-32 3 -141 425 c-213 640 -293 881 -340 1035 -24 77 -51 155 -60 172
-18 36 -13 53 16 53 13 0 19 -7 19 -23z m-100 4 c0 -5 -16 -69 -35 -141 -19
-72 -35 -139 -35 -148 0 -9 -23 -87 -51 -172 -27 -85 -64 -209 -80 -275 -17
-66 -34 -127 -38 -135 -5 -9 -12 -31 -16 -50 -4 -19 -13 -40 -20 -47 -7 -7
-16 -36 -20 -65 -4 -29 -19 -93 -32 -143 -14 -49 -31 -115 -38 -145 -7 -30
-21 -89 -33 -130 -11 -41 -26 -107 -33 -146 l-13 -72 -45 -5 c-26 -3 -47 -4
-48 -3 -2 1 8 30 21 64 13 34 27 76 31 94 4 18 52 168 107 333 90 271 116 360
178 591 10 39 26 88 35 110 9 21 29 91 46 154 59 228 94 340 106 340 7 0 13
-4 13 -9z m231 -106 c36 -49 70 -103 76 -120 7 -16 12 -77 12 -134 0 -57 2
-118 5 -135 l6 -31 -16 35 c-20 43 -122 343 -128 376 -3 13 -8 29 -12 35 -10
17 -24 83 -15 73 4 -5 37 -49 72 -99z m-415 -9 c-1 -46 -5 -88 -10 -93 -5 -5
-7 -1 -3 10 4 9 2 17 -4 17 -6 0 -8 9 -4 20 4 12 2 20 -6 20 -8 0 -10 -14 -7
-44 4 -35 0 -53 -18 -83 -26 -41 -29 -53 -15 -53 5 0 21 20 35 45 59 100 29
13 -34 -100 -25 -44 -45 -83 -46 -87 -1 -5 -2 -12 -3 -18 0 -5 -13 -21 -27
-35 -14 -14 -27 -38 -28 -53 -3 -33 -28 -92 -38 -92 -4 0 -8 -9 -8 -20 0 -11
-4 -20 -10 -20 -5 0 -10 5 -10 11 0 5 -6 7 -12 3 -10 -6 -10 -4 0 7 13 14 16
45 5 52 -5 2 -2 2 6 0 8 -2 11 2 8 10 -3 8 -1 20 4 28 6 10 9 2 10 -26 1 -40
1 -40 14 15 6 30 24 77 38 104 15 27 27 55 27 62 0 8 4 14 9 14 15 0 53 81 46
98 -5 13 -9 11 -24 -11 -10 -15 -21 -24 -25 -20 -4 4 -4 0 -1 -10 5 -11 -2
-28 -19 -48 -14 -17 -26 -37 -26 -46 0 -8 -5 -13 -12 -11 -13 5 -21 38 -9 38
5 0 6 11 4 24 -3 15 6 47 22 80 28 58 47 80 58 69 4 -3 7 5 7 19 0 14 14 41
32 62 17 20 37 48 44 61 22 43 -10 18 -52 -41 -66 -94 -75 -104 -85 -98 -5 3
-6 10 -3 16 4 6 2 8 -4 5 -5 -4 -8 -17 -5 -28 5 -18 -18 -76 -45 -119 -2 -2
-7 2 -11 9 -11 18 -24 -126 -16 -172 4 -19 2 -43 -3 -53 -7 -13 -11 26 -11
131 -2 139 -1 148 14 130 16 -20 16 -20 10 3 -4 14 0 43 10 68 15 40 21 46 41
43 4 0 14 13 24 28 10 16 37 45 61 64 24 19 57 49 72 67 16 17 30 32 31 32 1
0 2 -38 2 -84z m234 32 c0 -15 64 -218 122 -388 66 -192 88 -262 88 -281 0
-31 -128 -50 -199 -30 -28 7 -25 -28 -29 374 -1 130 -6 207 -12 207 -11 0 -12
-321 -2 -462 5 -65 4 -88 -5 -88 -24 0 -73 53 -98 105 l-25 54 19 78 c11 43
36 132 56 198 19 65 35 126 35 135 0 13 1 13 10 0 8 -12 10 -10 9 10 -1 44 13
110 22 104 5 -3 9 -10 9 -16z m1270 -82 c0 -14 -5 -37 -11 -53 -10 -26 -12
-26 -19 -8 -4 13 -7 0 -7 -35 1 -39 -7 -72 -26 -113 -15 -32 -27 -60 -27 -64
0 -4 -8 -15 -17 -25 -9 -10 -18 -27 -20 -37 -3 -22 -60 -120 -105 -181 -30
-41 -33 -43 -36 -22 -2 13 4 35 13 48 15 23 15 27 1 43 -9 10 -16 32 -16 49 0
18 -5 32 -10 32 -20 0 -22 -30 -6 -70 16 -40 14 -82 -6 -107 -6 -7 -8 -20 -4
-28 5 -14 -48 -105 -62 -105 -4 0 -38 -30 -77 -66 -77 -71 -119 -98 -141 -90
-17 6 -20 121 -4 131 6 4 9 14 6 23 -3 11 12 30 44 57 27 22 64 59 82 82 17
24 33 41 35 39 5 -5 -17 -45 -39 -71 -17 -20 -16 -21 25 -22 23 0 55 -2 70 -3
16 -1 34 3 40 9 8 8 -2 11 -40 11 -60 0 -70 9 -49 47 8 16 17 39 20 53 3 14
25 45 48 70 42 44 61 70 73 100 31 76 60 128 68 123 5 -3 17 -22 26 -42 9 -20
24 -37 34 -39 18 -3 24 13 8 22 -5 3 -21 26 -35 51 -33 56 -25 76 41 105 26
11 56 30 66 41 10 11 23 16 29 13 7 -5 9 -1 5 9 -7 20 1 47 14 47 5 0 9 -11 9
-24z m-1498 -139 c-6 -7 -12 -43 -13 -81 -3 -85 -78 -368 -101 -383 -5 -2 -8
-15 -8 -28 0 -31 -39 -137 -49 -131 -4 3 -13 28 -21 56 -8 28 -18 53 -22 56
-18 12 -6 70 32 150 22 46 45 84 50 84 7 0 7 -7 1 -17 -8 -15 -19 -59 -46
-176 -5 -22 5 -77 14 -77 3 0 7 19 9 42 1 23 6 45 11 48 4 3 11 23 15 45 5 22
11 42 16 45 12 8 23 70 12 70 -5 0 -13 12 -16 26 -8 29 58 211 83 230 8 6 11
16 7 22 -4 7 -3 12 2 12 5 0 13 10 17 23 4 14 8 17 12 9 3 -7 0 -18 -5 -25z
m1575 -12 c1 -19 -3 -35 -9 -35 -6 0 -7 -12 -3 -30 4 -17 2 -36 -3 -43 -5 -7
-12 -37 -15 -67 -4 -30 -11 -56 -16 -58 -7 -2 -7 -12 0 -29 5 -14 7 -34 4 -44
-4 -12 -1 -19 7 -19 7 -1 2 -10 -12 -21 -21 -18 -26 -19 -28 -6 -4 20 13 136
23 161 6 12 5 17 -2 13 -5 -4 -15 5 -21 18 -9 20 -8 40 4 91 17 75 32 104 54
104 10 0 16 -11 17 -35z m-124 -275 c6 -23 -12 -188 -27 -250 -27 -108 -46
-170 -65 -212 -10 -24 -31 -74 -46 -113 -70 -182 -209 -359 -372 -473 -39 -27
-49 -27 -56 -4 -3 9 -29 82 -57 162 -50 140 -90 269 -90 290 0 13 138 82 150
75 6 -4 10 -12 10 -19 0 -21 61 -41 111 -37 8 0 23 17 32 36 21 44 21 55 2 55
-8 0 -15 7 -15 15 0 8 8 14 18 12 9 -1 17 3 17 8 0 6 -9 10 -20 11 -11 1 -24
2 -30 3 -13 2 114 129 146 146 16 9 30 10 40 4 16 -10 70 -12 93 -3 24 9 19
41 -9 66 -30 26 -33 43 -6 28 26 -13 31 -13 31 4 0 8 -7 17 -15 20 -14 5 -14
9 1 37 9 18 38 60 65 95 49 62 83 79 92 44z m-1373 -127 c0 -7 9 -27 20 -45
11 -18 20 -48 20 -67 0 -19 3 -31 8 -27 7 7 8 12 11 38 1 8 4 9 11 2 11 -11 2
-54 -12 -54 -6 0 -6 -6 1 -14 10 -11 8 -16 -8 -21 -12 -3 -21 -11 -21 -16 0
-5 -7 -9 -15 -9 -8 0 -15 -4 -15 -10 0 -16 29 -11 48 8 16 16 20 16 31 4 11
-11 11 -18 1 -37 -7 -13 -10 -31 -7 -39 8 -20 -37 -33 -57 -17 -7 6 -20 9 -29
6 -15 -6 -80 16 -102 35 -10 8 -9 20 2 53 8 23 19 48 25 54 6 7 7 13 4 13 -4
0 -2 9 3 19 6 10 13 34 15 52 3 19 11 63 18 97 l13 64 17 -39 c10 -21 18 -44
18 -50z m372 -85 c7 -20 -48 -111 -94 -155 -80 -78 -150 -96 -75 -19 99 102
130 136 125 141 -10 10 -108 -38 -108 -52 0 -9 -6 -13 -15 -9 -10 4 -15 -1
-15 -14 0 -27 9 -25 49 13 l34 32 -34 -46 c-19 -26 -37 -45 -40 -43 -3 1 -13
-6 -23 -18 -14 -16 -20 -18 -29 -8 -9 10 -9 14 0 17 7 2 9 11 6 19 -3 9 4 28
16 44 26 36 26 40 1 40 -11 0 -20 -6 -20 -13 0 -17 -38 -53 -46 -44 -4 4 -8
25 -10 47 -4 46 -5 45 78 28 44 -9 63 -9 77 -1 10 6 35 15 54 18 20 4 38 13
41 21 7 17 23 18 28 2z m-900 -57 c75 -47 201 -110 236 -117 22 -4 32 -12 32
-24 0 -27 -40 -150 -48 -150 -20 0 -172 64 -204 87 -47 32 -48 46 -3 41 19 -2
35 -1 35 3 0 3 36 10 81 13 44 4 79 10 76 13 -11 11 -105 14 -112 4 -12 -21
-45 -12 -46 12 -1 20 -2 20 -6 2 -6 -23 -21 -35 -45 -35 -23 0 -54 62 -62 128
-8 63 -1 65 66 23z m1350 7 c-7 -7 -12 -41 -12 -81 l0 -69 -52 7 c-29 4 -59
12 -66 18 -11 8 -17 6 -25 -8 -16 -27 -25 -89 -16 -111 8 -21 12 -11 9 23 0
12 7 34 16 48 16 25 21 26 63 20 25 -4 55 -8 65 -9 26 -1 32 -24 9 -33 -10 -3
-32 -17 -48 -29 -17 -12 -52 -32 -79 -44 -50 -21 -63 -18 -67 18 -3 22 -4 26
-18 59 -18 43 -11 56 41 82 40 19 138 85 163 110 6 6 14 10 20 11 5 0 4 -5 -3
-12z m-349 -230 c28 -60 41 -108 30 -109 -5 0 -16 -2 -25 -4 -96 -18 -100 -18
-89 3 6 12 16 24 21 27 6 3 10 12 10 18 -1 7 -12 -1 -25 -18 -28 -34 -19 -36
-133 35 -80 51 -71 31 13 -25 40 -28 70 -53 67 -57 -6 -6 -119 -28 -145 -28
-5 0 -5 5 -2 10 3 6 -1 10 -9 10 -9 0 -16 -5 -16 -12 0 -19 -196 -3 -217 18
-15 15 -15 17 0 26 29 16 73 57 61 58 -6 0 -27 -13 -45 -30 -39 -34 -44 -35
-83 -15 -15 8 -31 15 -34 15 -8 0 29 -33 53 -49 17 -11 15 -12 -20 -7 -22 3
-48 6 -59 6 -14 0 -17 5 -12 23 4 12 9 33 11 47 8 54 24 82 43 75 31 -13 155
-32 217 -33 33 -1 85 5 115 12 30 8 95 20 143 27 48 7 90 16 93 21 8 13 10 11
37 -44z m50 -155 c11 -19 18 -73 9 -73 -5 0 -19 9 -32 20 -26 23 -45 17 -30
-10 14 -25 28 -33 59 -32 25 0 29 -7 79 -151 29 -84 56 -159 58 -167 4 -13
-55 -15 -485 -18 -270 -2 -491 1 -491 5 0 12 67 274 75 295 4 9 18 24 31 33
14 9 24 25 24 38 -1 21 -1 21 -15 3 -19 -25 -25 -19 -18 17 6 31 -11 30 198 6
119 -14 135 -17 135 -30 0 -7 -10 -9 -24 -5 -36 9 -41 -19 -8 -54 15 -16 36
-30 47 -31 53 -4 75 2 91 26 16 24 16 27 -1 45 -10 11 -16 21 -14 23 55 33 98
42 242 52 21 1 41 5 44 9 9 8 21 8 26 -1z m-6 -469 c166 -4 290 -10 287 -15
-3 -5 -12 -9 -20 -9 -8 0 -39 -11 -67 -24 -93 -44 -187 -68 -366 -96 -116 -18
-175 -31 -173 -39 3 -15 -44 -14 -253 4 -265 23 -304 29 -371 64 -34 17 -66
31 -71 31 -6 0 -27 13 -47 29 -37 30 -35 44 8 52 38 7 785 9 1073 3z m-1099
-103 c42 -21 98 -44 125 -51 26 -7 49 -16 52 -19 2 -4 -57 -6 -131 -6 l-135 1
-4 57 c-2 31 1 57 6 57 5 0 44 -17 87 -39z"/>
<path d="M13260 7950 c0 -27 -2 -30 -20 -20 -18 10 -217 16 -226 7 -3 -2 -2
-12 2 -21 5 -14 24 -16 130 -16 l124 0 12 -27 c20 -45 128 -203 139 -203 6 0
-1 21 -15 46 -14 26 -26 51 -26 56 0 6 -13 27 -29 47 -17 21 -35 50 -42 67
-43 105 -49 113 -49 64z"/>
<path d="M5365 7923 c-27 -20 -59 -45 -70 -56 -29 -27 -55 -40 -55 -27 0 6 -4
9 -10 5 -5 -3 -7 -12 -4 -19 5 -14 -118 -135 -169 -167 -18 -10 -41 -19 -52
-19 -17 -1 -18 -2 -4 -10 13 -8 14 -18 8 -57 -5 -26 -11 -220 -15 -430 -6
-303 -4 -386 6 -398 7 -8 8 -15 3 -15 -9 0 -9 -39 2 -510 14 -662 9 -2051 -10
-2437 -3 -64 -1 -93 7 -95 12 -4 15 -214 10 -647 -1 -124 1 -228 5 -232 16
-15 180 -31 266 -25 60 4 86 3 82 -4 -5 -7 61 -10 204 -10 116 1 216 -2 222
-5 6 -4 21 -3 32 2 74 34 200 46 210 21 4 -10 8 -10 14 -1 4 6 37 15 73 19 58
7 61 9 30 14 -19 3 -45 3 -57 -2 -32 -11 -30 12 3 43 14 13 33 37 41 54 22 41
122 165 139 172 8 3 14 11 14 19 0 7 11 21 24 30 15 9 23 21 19 30 -4 10 -9
12 -18 4 -9 -8 -14 0 -19 32 -4 23 -3 44 2 47 16 11 22 73 16 152 -4 43 -10
77 -13 75 -3 -2 -5 109 -3 247 1 139 -1 309 -5 380 -6 82 -5 126 2 124 18 -6
75 -137 119 -275 83 -255 207 -646 258 -807 28 -88 61 -189 75 -223 13 -35 22
-66 19 -69 -3 -3 4 -14 15 -26 29 -32 24 -37 -38 -37 -43 0 -54 -3 -46 -11 9
-9 112 -10 385 -6 205 4 387 9 403 13 69 14 407 20 428 7 5 -3 15 -21 23 -39
8 -19 18 -34 22 -34 9 0 7 84 -2 99 -6 9 79 131 91 131 7 0 -19 -44 -43 -73
-13 -16 -24 -33 -24 -38 0 -10 35 24 59 60 8 11 18 18 22 15 4 -2 11 1 15 7 5
8 3 9 -6 4 -16 -10 -4 33 15 55 8 8 19 26 25 40 21 49 68 115 79 112 18 -4 4
40 -55 177 -30 68 -54 128 -54 133 0 5 -11 33 -24 61 -61 134 -263 648 -312
797 -8 25 -19 54 -23 65 -15 35 -59 159 -71 200 -7 22 -16 45 -20 50 -7 10
-16 44 -24 96 -3 14 -36 97 -74 185 -39 87 -73 170 -77 182 -5 17 -12 22 -26
19 -10 -3 -17 -1 -14 3 3 5 -1 10 -7 13 -9 3 -3 15 16 36 29 30 51 36 26 6
-14 -17 -8 -31 9 -20 6 3 11 18 11 33 0 19 12 39 37 62 20 19 54 57 75 83 21
27 60 69 87 93 50 45 124 147 124 171 0 7 4 13 8 13 4 0 9 7 13 15 11 29 -12
15 -34 -20 -36 -58 -43 -39 -8 23 39 71 53 87 44 50 -3 -16 -3 -28 1 -28 8 0
37 86 72 215 17 62 23 92 36 185 2 14 6 77 10 140 3 63 10 171 15 240 14 183
2 314 -37 425 -14 39 -31 94 -37 123 -6 29 -15 50 -18 47 -3 -4 -15 18 -26 47
-11 29 -24 62 -28 73 -7 18 -6 19 11 5 17 -14 18 -13 12 3 -4 10 -7 21 -7 23
0 3 -5 2 -12 -2 -7 -5 -9 -2 -5 9 3 8 -1 21 -9 27 -8 7 -14 17 -14 22 0 18
-72 129 -124 192 -39 48 -44 57 -23 43 28 -18 28 -18 19 0 -16 28 -109 113
-183 166 -90 64 -296 170 -394 202 -44 15 -84 31 -89 35 -5 5 -14 6 -21 4 -6
-3 -65 9 -131 26 -187 48 -389 71 -569 63 -82 -4 -306 -7 -496 -7 -273 -1
-345 2 -342 12 8 20 -10 13 -62 -25z m375 -23 c106 -6 269 -6 413 -1 260 9
404 -1 530 -37 40 -12 84 -18 106 -15 28 4 40 1 51 -13 12 -16 12 -17 0 -6 -8
6 -28 12 -45 12 l-30 -1 25 -14 c14 -8 32 -14 41 -15 15 0 70 -20 162 -58 54
-22 56 -8 3 18 -25 12 -48 25 -51 30 -6 10 50 -3 98 -24 21 -9 42 -14 47 -11
6 4 10 3 10 -2 0 -4 32 -21 70 -38 38 -16 70 -33 70 -37 0 -5 6 -8 14 -8 19 0
117 -58 205 -122 87 -63 134 -114 181 -197 19 -34 42 -71 51 -82 19 -22 29
-47 54 -134 9 -33 26 -79 36 -103 11 -23 17 -47 14 -52 -3 -6 -3 -10 2 -10 13
0 45 -87 60 -163 7 -40 18 -92 24 -117 21 -94 31 -311 19 -405 -6 -49 -12 -96
-12 -102 -1 -7 -5 -13 -10 -13 -5 0 -6 9 -3 20 3 11 2 20 -3 20 -9 0 -8 36 4
88 3 15 5 52 3 82 -1 30 -2 72 -2 92 0 21 -3 35 -7 33 -5 -3 -16 2 -24 11 -9
8 -16 11 -16 5 0 -5 -13 -30 -30 -54 -34 -51 -36 -57 -14 -57 8 0 12 -4 9 -10
-3 -5 -1 -10 5 -10 7 0 9 8 5 20 -6 19 20 70 36 70 5 0 7 -22 5 -50 -2 -27 0
-50 5 -50 5 0 4 -11 -1 -25 -6 -16 -6 -34 0 -50 7 -18 6 -23 -3 -19 -8 3 -18
-9 -25 -29 -16 -44 -15 -52 3 -37 13 11 14 10 9 -4 -3 -9 -10 -16 -15 -16 -5
0 -9 -10 -9 -21 0 -18 2 -19 15 -9 13 11 15 8 15 -13 0 -39 -18 -79 -32 -71
-7 5 -9 0 -6 -14 4 -12 0 -26 -8 -33 -11 -9 -11 -13 1 -26 20 -20 19 -30 -5
-38 -29 -9 -27 -38 3 -30 21 6 21 6 3 -9 -11 -9 -23 -16 -26 -16 -13 0 -10
144 2 153 10 7 10 10 1 14 -17 6 -16 22 1 55 8 15 10 27 4 25 -5 -1 -11 24
-13 58 -2 33 -4 60 -5 60 -1 0 -3 59 -5 130 -2 72 -1 124 2 118 7 -18 33 -16
33 1 0 8 3 21 6 29 7 18 -27 32 -37 15 -4 -7 -8 7 -8 32 -1 70 -4 90 -17 90
-15 0 -17 -192 -2 -201 5 -3 1 -12 -8 -20 -14 -11 -16 -11 -10 0 5 8 4 16 -4
21 -7 4 -19 51 -26 106 -16 118 -44 216 -86 304 -37 77 -115 207 -141 235 -11
11 -26 30 -34 43 -9 12 -22 22 -29 22 -8 0 -14 4 -14 8 0 11 -123 114 -206
172 -89 63 -138 89 -250 133 -82 32 -129 45 -329 92 -170 40 -534 50 -965 28
-129 -7 -305 -15 -390 -18 -142 -6 -153 -5 -135 10 51 39 173 144 209 178 91
87 91 87 174 87 42 0 156 -5 252 -10z m645 -289 c39 -7 99 -16 135 -22 66 -11
157 -30 240 -51 48 -12 205 -72 280 -107 77 -35 233 -155 285 -218 28 -34 56
-62 63 -62 6 -1 12 -8 12 -16 0 -8 5 -15 10 -15 6 0 10 -6 10 -13 0 -6 18 -31
40 -55 22 -23 40 -46 40 -50 0 -5 13 -33 29 -63 29 -52 95 -281 112 -384 4
-27 12 -65 18 -84 6 -19 8 -37 6 -42 -12 -18 -13 -88 -2 -86 13 2 15 -384 3
-458 -4 -22 -9 -58 -11 -79 -2 -22 -9 -44 -15 -50 -5 -5 -10 -20 -10 -32 0
-61 -84 -277 -157 -402 -44 -75 -68 -104 -130 -155 -80 -66 -240 -177 -254
-177 -5 0 -8 -3 -7 -7 4 -20 -17 -43 -50 -55 l-37 -13 39 -5 c38 -5 39 -6 83
-105 76 -171 122 -285 169 -419 25 -71 66 -174 90 -230 73 -163 136 -318 131
-323 -5 -5 -31 42 -225 402 -145 270 -183 342 -324 615 -42 80 -120 224 -175
320 -55 96 -124 220 -153 275 -29 55 -64 117 -78 137 l-25 38 27 21 c50 40
111 149 137 249 39 144 45 404 12 525 -38 143 -115 262 -212 330 -45 31 -48
49 -4 20 20 -13 24 -14 16 -3 -7 8 -32 23 -55 34 l-42 19 29 6 30 7 -31 1
c-17 0 -57 10 -89 21 -81 28 -157 26 -362 -7 -39 -6 -44 -19 -7 -18 l26 0 -1
-124 c-1 -69 -4 -128 -7 -133 -8 -13 -3 -834 5 -943 8 -97 8 -101 -18 -142
-14 -23 -74 -118 -132 -210 -58 -92 -166 -269 -239 -393 -73 -124 -166 -279
-205 -345 -79 -134 -175 -300 -258 -450 -31 -55 -65 -116 -76 -135 l-20 -35
-1 115 c-3 253 2 1622 5 1651 8 59 8 549 0 1009 -4 256 -9 557 -10 670 -2 113
-5 214 -7 225 -2 13 3 20 14 20 9 0 19 3 22 6 3 2 47 1 98 -4 89 -8 280 -4
528 13 155 11 598 4 685 -9z m-3 -833 c70 -30 193 -162 240 -258 20 -41 42
-100 49 -130 15 -62 19 -341 5 -404 -20 -100 -47 -165 -74 -184 -86 -59 -360
-86 -327 -32 14 23 5 897 -11 992 -8 54 19 58 118 16z m-304 -490 c-3 -33 0
-54 5 -51 5 3 6 -4 2 -16 -4 -15 -2 -21 8 -21 16 0 20 47 5 56 -6 4 -6 9 1 14
7 3 14 20 16 36 13 81 17 94 25 94 4 0 6 -9 3 -20 -3 -11 0 -27 7 -35 8 -9 10
-33 6 -70 -3 -33 -2 -55 4 -55 6 0 10 7 10 15 0 8 4 15 9 15 5 0 7 -13 5 -30
-4 -20 -1 -30 7 -30 7 0 3 -9 -9 -20 -22 -21 -37 -27 -27 -10 3 6 1 10 -4 10
-16 0 -13 -20 4 -26 8 -4 22 -1 30 6 9 7 15 8 15 2 0 -9 -24 -24 -42 -26 -19
-2 -11 -20 9 -21 13 -1 26 -5 30 -9 5 -4 1 -7 -7 -6 -8 1 -23 2 -34 1 -15 -1
-16 -4 -7 -15 9 -11 9 -15 -1 -19 -8 -4 -7 -6 5 -6 9 -1 17 5 17 13 0 9 7 12
20 9 11 -3 20 -10 20 -15 0 -5 -4 -7 -9 -3 -5 3 -12 1 -16 -5 -3 -6 0 -13 8
-16 7 -2 14 -10 14 -17 1 -43 15 -157 22 -184 6 -20 6 -35 0 -38 -5 -4 -11 0
-13 7 -9 26 -28 145 -26 159 6 41 0 57 -25 57 -21 0 -25 -5 -25 -30 0 -23 4
-29 15 -24 8 3 15 1 15 -4 0 -6 -7 -10 -16 -10 -14 0 -15 -6 -9 -37 4 -21 8
-50 10 -66 1 -15 5 -30 8 -34 4 -3 2 -12 -4 -20 -7 -8 -8 -13 -1 -13 5 0 9
-15 8 -32 0 -20 4 -33 12 -34 6 -1 15 -2 19 -3 3 0 -22 -29 -56 -63 -34 -35
-66 -70 -72 -78 -14 -24 -30 7 -24 50 7 57 9 125 4 135 -5 9 -5 43 1 230 2 39
8 76 14 84 8 11 8 13 -1 8 -9 -6 -12 11 -10 68 1 41 6 75 10 75 5 0 5 5 1 12
-6 10 -9 155 -4 183 6 30 21 -79 18 -127z m493 -775 c29 -54 98 -183 154 -288
56 -104 142 -266 190 -360 89 -173 127 -244 290 -535 51 -91 125 -226 165
-300 40 -74 99 -182 131 -240 59 -109 74 -142 182 -420 78 -200 78 -200 69
-200 -4 0 -77 140 -162 312 -85 171 -214 424 -286 562 -72 138 -224 431 -339
651 -114 220 -212 405 -217 410 -13 13 203 -415 367 -730 69 -132 223 -433
341 -670 278 -552 414 -818 425 -829 5 -6 9 -19 9 -31 0 -20 -4 -20 -237 -19
-131 1 -301 -2 -378 -6 -388 -21 -445 -22 -445 -6 0 9 -25 89 -55 178 -111
324 -334 1028 -355 1118 -5 25 -17 83 -25 130 -12 69 -13 74 -9 25 3 -33 7
-73 10 -89 12 -58 -21 -19 -64 77 l-43 96 -4 151 c-3 148 -3 151 17 144 15 -4
19 -2 16 7 -3 8 -17 15 -33 17 l-28 4 7 -126 c3 -69 3 -126 -1 -126 -8 0 -50
63 -76 115 -9 17 -46 62 -83 100 -59 60 -68 66 -79 52 -18 -26 -28 -20 -22 11
8 38 -51 129 -89 138 -39 10 -192 -2 -209 -16 -9 -7 -28 -35 -43 -61 -15 -27
-34 -49 -42 -49 -11 0 -12 -2 -2 -8 10 -7 9 -16 -5 -43 -32 -62 -16 -191 25
-197 16 -3 22 2 22 17 0 26 20 31 109 26 98 -5 104 -15 9 -15 -59 0 -77 -3
-82 -16 -3 -8 -2 -12 4 -9 5 3 45 7 89 8 53 2 85 7 93 16 10 11 10 12 1 7 -7
-4 -13 -2 -13 3 0 21 31 10 40 -14 19 -51 70 -24 70 36 0 21 6 50 12 66 18 40
25 -377 20 -1147 l-3 -605 -480 0 -481 0 6 428 6 428 130 257 c138 273 281
544 361 680 26 45 44 82 38 82 -5 0 -9 -4 -9 -9 0 -4 -11 -25 -25 -46 -40 -58
-302 -540 -404 -743 -51 -101 -95 -181 -97 -179 -3 3 -1 38 5 78 9 78 12 83
148 319 33 58 71 125 85 150 40 72 174 304 258 445 88 147 293 499 396 678
l39 68 118 4 c141 5 246 31 328 81 31 18 59 34 63 34 3 0 6 -11 6 -24 0 -13 7
-29 15 -36 8 -7 33 -49 56 -94 22 -44 45 -85 51 -91 11 -11 -30 77 -87 186
-29 55 -35 79 -19 79 1 0 26 -44 55 -97z m663 -536 c-3 -8 35 -94 85 -193 49
-98 99 -201 111 -229 13 -27 45 -97 71 -154 27 -57 47 -107 44 -111 -3 -5 0
-19 5 -32 10 -22 10 -22 5 5 -3 15 -1 27 5 27 5 0 10 -5 10 -12 0 -6 3 -8 6
-5 4 4 -10 40 -30 81 -20 41 -36 79 -36 85 0 6 -9 25 -20 43 -11 18 -20 43
-20 55 0 12 -7 28 -15 36 -11 12 -12 17 -2 20 8 3 5 12 -11 27 -13 12 -21 29
-18 36 3 8 -1 17 -9 20 -18 7 -20 24 -2 23 6 0 29 -37 50 -82 52 -112 88 -186
111 -225 15 -26 21 -30 33 -21 10 9 17 9 25 1 9 -9 8 -12 -2 -12 -9 0 -11 -3
-5 -8 6 -4 19 -24 30 -44 11 -21 24 -38 30 -38 11 0 19 -16 65 -135 17 -44 34
-89 39 -100 5 -11 15 -38 24 -60 8 -22 26 -67 38 -100 13 -33 24 -62 24 -65 1
-3 10 -23 22 -45 11 -22 24 -51 28 -65 4 -14 28 -67 52 -119 34 -72 43 -102
39 -125 -4 -22 -3 -26 3 -16 8 12 12 10 19 -10 5 -14 21 -54 36 -89 30 -75 28
-93 -3 -25 -12 25 -24 44 -27 41 -7 -7 46 -107 57 -107 14 0 29 -37 23 -54 -6
-16 -24 -12 -24 5 0 6 5 7 10 4 6 -3 10 -1 10 5 0 7 -6 10 -14 7 -14 -5 -55
55 -92 133 -7 14 -13 20 -13 14 -2 -19 21 -66 64 -132 30 -48 43 -61 57 -56
10 3 18 1 18 -5 0 -10 -40 -82 -50 -91 -18 -14 -113 -147 -131 -181 -11 -22
-24 -37 -29 -34 -5 3 -17 32 -26 63 -9 31 -19 62 -23 67 -18 29 -28 74 -17 79
8 3 8 7 0 13 -6 4 -14 20 -17 34 -4 14 -18 42 -32 63 -14 20 -25 41 -25 46 0
5 -7 26 -16 47 -37 85 -76 192 -79 219 -2 12 -10 32 -18 45 -18 27 -105 246
-132 329 -10 30 -20 60 -24 65 -3 6 -7 19 -8 29 -2 11 -8 25 -14 32 -6 7 -7
19 -3 25 4 7 3 9 -2 6 -6 -3 -16 9 -23 26 -14 35 -20 49 -50 117 -10 25 -28
70 -39 100 -11 30 -32 88 -47 128 -28 75 -28 106 -1 55 8 -15 15 -22 16 -15 0
18 -31 63 -40 57 -5 -3 -6 3 -3 13 2 11 -13 53 -36 96 -23 42 -41 83 -41 92 0
8 -4 13 -9 10 -5 -4 -7 3 -4 15 7 25 11 20 57 -76 59 -123 88 -197 83 -217 -3
-11 4 -35 15 -53 11 -19 17 -39 13 -45 -4 -6 1 -18 11 -26 11 -9 13 -13 7 -9
-18 9 -16 1 7 -40 11 -20 20 -40 20 -46 0 -6 25 -62 55 -125 30 -63 55 -123
55 -133 0 -10 7 -18 15 -18 19 0 19 0 -5 49 -22 45 -26 73 -10 63 6 -3 10 -1
10 5 0 6 -8 10 -17 8 -13 -2 -17 3 -15 16 2 10 -1 15 -7 12 -5 -4 -15 2 -20
13 -14 25 -14 34 -1 26 6 -3 10 -1 10 4 0 6 -4 11 -10 11 -14 0 -61 109 -65
150 l-3 35 19 -24 c10 -13 19 -21 19 -18 0 18 -34 96 -54 121 -21 29 -47 92
-52 126 -1 8 -5 24 -9 35 -8 20 -8 20 13 1 12 -11 20 -21 17 -24 -3 -3 -1 -10
4 -16 6 -7 12 -23 15 -38 7 -39 28 -76 34 -59 4 11 6 11 12 0 5 -8 3 -17 -5
-23 -11 -9 -7 -17 16 -41 23 -24 29 -26 29 -12 0 9 -7 17 -15 17 -8 0 -15 7
-15 16 0 14 2 15 17 3 9 -8 6 3 -9 26 -15 22 -31 39 -37 38 -6 -2 -8 4 -5 12
4 8 -1 30 -10 49 -9 19 -13 41 -10 49 5 13 -47 122 -65 137 -3 3 -6 10 -6 15
-1 18 -68 145 -77 145 -5 0 -7 4 -4 9 9 13 -14 69 -29 73 -15 4 -2 48 14 48 6
0 8 -6 5 -13z m-1314 -171 c0 -5 -42 -8 -94 -7 -65 2 -96 -2 -102 -10 -5 -9 9
-10 60 -5 95 10 130 1 143 -35 6 -16 8 -31 5 -33 -17 -10 -250 -17 -256 -8 -7
12 13 72 25 72 5 0 9 6 9 14 0 8 10 17 23 19 38 8 187 2 187 -7z m51 -116 c5
0 9 -5 9 -11 0 -5 -3 -8 -7 -6 -5 3 -8 -11 -9 -31 0 -21 -7 -50 -15 -67 l-14
-29 -152 -2 c-115 -2 -155 1 -163 11 -12 15 -5 66 15 105 l14 27 136 1 c75 0
139 3 143 6 3 4 12 4 20 1 7 -3 18 -5 23 -5z m205 -831 c3 -46 7 -95 9 -109 2
-14 4 -31 4 -37 1 -7 6 -13 11 -13 12 0 11 90 -1 105 -4 6 -6 20 -4 30 2 11 4
27 5 35 1 26 20 -14 19 -42 -1 -12 2 -50 5 -83 3 -33 8 -89 11 -125 3 -36 8
-78 10 -95 4 -24 3 -26 -4 -10 -8 16 -9 10 -9 -25 0 -25 4 -49 8 -55 11 -16
11 -67 0 -60 -6 4 -8 11 -5 16 4 5 1 9 -5 9 -7 0 -9 -16 -5 -47 4 -36 2 -44
-7 -35 -21 21 -18 119 4 106 6 -4 6 1 -1 14 -6 10 -9 28 -7 38 2 11 -1 32 -8
47 -9 23 -11 4 -10 -105 1 -73 5 -174 9 -224 7 -90 8 -91 26 -73 14 14 17 24
10 37 -7 14 -22 95 -22 127 0 5 4 11 9 13 5 1 9 -5 9 -15 0 -10 1 -31 2 -48 2
-26 3 -27 11 -10 9 20 11 17 15 -20 1 -11 5 -29 9 -41 5 -16 -5 -34 -41 -75
-27 -30 -60 -70 -75 -89 l-28 -35 0 41 c0 23 -7 79 -16 125 -17 89 -26 539
-11 539 4 0 7 -17 8 -37 1 -21 3 -114 5 -208 3 -93 8 -201 13 -240 5 -45 7 52
5 268 -2 217 0 337 6 337 6 0 10 -34 11 -77 2 -173 9 -471 13 -518 3 -27 5
-72 6 -100 1 -37 4 -45 10 -30 8 20 5 112 -9 253 -4 40 -4 75 -1 77 8 5 5 144
-3 193 -4 18 -3 31 1 28 4 -2 4 28 0 67 -8 86 -10 273 -3 265 3 -3 8 -43 11
-89z"/>
<path d="M6010 5380 c-22 -44 -26 -85 -9 -96 19 -12 163 -4 171 9 13 20 9 66
-7 97 -15 28 -19 30 -75 30 -59 0 -60 0 -80 -40z"/>
<path d="M6479 5034 c-47 -9 -116 -102 -88 -119 8 -6 8 -10 -2 -16 -10 -6 -10
-22 4 -84 9 -43 22 -84 28 -91 18 -21 38 -17 49 11 5 14 16 25 25 25 17 0 20
-11 5 -26 -7 -7 9 -9 50 -6 34 3 66 0 73 -6 8 -7 18 -7 27 -2 12 8 10 10 -7
10 -13 0 -23 5 -23 10 0 6 16 10 36 10 28 0 35 -3 30 -15 -4 -11 2 -15 24 -15
29 0 49 28 35 49 -3 5 0 13 5 16 24 15 -26 141 -83 208 -31 37 -36 39 -97 42
-36 2 -77 1 -91 -1z m239 -170 c26 -71 19 -75 -106 -68 -77 5 -111 4 -116 -5
-11 -18 -54 -13 -65 8 -15 27 -22 74 -13 88 6 10 172 21 271 18 8 0 21 -19 29
-41z"/>
<path d="M6905 3811 c-38 -4 -82 -14 -97 -22 -40 -21 -93 -99 -89 -131 1 -17
-2 -28 -9 -28 -8 0 -10 9 -6 26 5 19 3 25 -6 22 -15 -5 -26 -74 -27 -173 -1
-48 9 -107 29 -186 36 -141 54 -185 80 -199 26 -14 73 -2 66 17 -12 31 13 53
59 53 50 0 51 -1 29 -35 l-15 -23 83 4 c149 8 185 15 173 34 -3 5 4 12 16 15
22 7 39 -7 39 -32 0 -15 32 -33 58 -33 11 0 27 11 36 25 9 14 23 25 31 25 7 0
16 4 20 9 3 6 -6 8 -20 5 -22 -4 -24 -2 -16 13 5 10 16 46 25 81 19 72 12 115
-30 191 -29 53 -30 58 -2 80 13 11 18 23 14 30 -6 9 -12 8 -26 -4 -10 -9 -24
-14 -29 -10 -16 10 -13 23 7 28 13 4 13 5 -4 6 -17 1 -27 15 -45 58 -25 62
-68 117 -108 137 -34 18 -148 26 -236 17z m189 -30 c37 -6 57 -16 78 -40 15
-17 28 -38 28 -46 0 -12 -4 -12 -27 1 -37 18 -333 20 -351 2 -9 -9 -12 -3 -12
30 0 35 4 42 23 47 62 14 195 17 261 6z m95 -115 c10 -9 24 -35 31 -59 7 -23
20 -47 27 -54 10 -7 11 -13 4 -18 -6 -3 -11 -3 -11 2 0 4 -95 9 -212 10 -116
1 -215 6 -219 10 -10 11 10 116 24 126 7 5 86 6 175 3 130 -4 168 -8 181 -20z
m-444 -136 c19 0 24 -10 30 -66 4 -27 8 -50 10 -52 8 -8 2 84 -6 107 -8 20 -7
22 8 16 39 -16 319 -29 399 -18 70 9 81 8 96 -7 21 -23 48 -86 48 -114 0 -12
5 -27 10 -32 6 -6 8 -17 5 -25 -9 -23 -63 -51 -85 -44 -12 4 -20 2 -20 -5 0
-21 30 -22 65 -1 29 17 35 18 35 5 0 -8 -11 -26 -26 -40 -22 -23 -30 -25 -72
-19 -116 16 -272 16 -329 0 -63 -18 -112 -14 -135 13 -8 9 -21 46 -28 82 -6
36 -16 70 -20 75 -8 10 -40 135 -40 158 0 6 9 1 20 -11 12 -12 27 -22 35 -22z"/>
<path d="M5418 3681 c-20 -4 -48 -15 -62 -25 -34 -21 -82 -88 -96 -132 -6 -19
-16 -34 -21 -34 -5 0 -9 -11 -9 -24 0 -31 -16 -42 -36 -25 -14 11 -13 15 8 31
27 20 20 23 -17 6 -30 -14 -32 -29 -5 -46 27 -17 25 -28 -15 -91 -19 -29 -39
-78 -46 -109 -10 -52 -9 -58 21 -126 45 -102 44 -101 76 -101 24 0 30 4 32 29
3 27 6 28 40 22 20 -3 112 -6 205 -6 92 0 166 -3 165 -7 -5 -20 16 -54 37 -59
40 -10 64 4 71 41 5 28 12 35 37 41 18 4 41 13 53 20 11 8 23 11 26 8 8 -8 58
26 58 39 0 6 -11 0 -24 -12 -13 -12 -27 -21 -32 -20 -5 2 -27 -3 -49 -9 -48
-14 -55 -15 -55 -3 0 5 14 11 30 15 38 7 40 25 3 19 -26 -4 -26 -3 -10 10 21
17 22 28 2 21 -8 -4 -15 -1 -15 5 0 10 21 16 43 12 12 -2 49 20 44 26 -3 2
-14 0 -24 -5 -12 -7 -25 -7 -34 -1 -12 7 -12 9 1 9 9 0 16 8 17 18 1 9 3 63 5
119 3 63 9 107 17 117 11 13 10 21 -11 48 -13 18 -41 61 -61 95 -27 44 -46 64
-70 73 -39 14 -247 22 -299 11z m295 -39 c14 -12 14 -16 -1 -42 -13 -22 -20
-26 -30 -17 -9 7 -72 11 -182 11 -150 1 -167 3 -160 17 23 43 46 47 221 45 95
-1 141 -5 152 -14z m-30 -90 c16 -14 43 -119 34 -129 -3 -3 -103 -2 -221 2
-247 9 -237 4 -190 96 l25 51 168 -4 c119 -2 173 -7 184 -16z m57 -193 c-19
-118 -21 -122 -76 -141 -47 -16 -47 -16 -16 -17 18 -1 42 4 52 9 16 9 18 8 13
-6 -7 -20 -42 -33 -77 -30 -14 2 -26 0 -26 -5 0 -10 48 -19 80 -14 14 2 28 4
32 4 4 1 10 22 14 49 3 26 14 83 23 127 14 68 19 80 36 80 17 0 20 -6 19 -40
-1 -21 -7 -41 -13 -43 -6 -2 -9 -8 -5 -13 3 -5 1 -9 -5 -9 -5 0 -12 -19 -16
-42 -3 -24 -13 -66 -21 -94 -13 -48 -16 -52 -51 -57 -69 -10 -506 1 -530 14
-31 17 -50 66 -35 90 7 10 12 26 12 34 0 17 25 70 42 89 5 6 18 26 29 45 16
27 24 32 42 26 12 -4 121 -10 241 -12 198 -5 220 -4 228 12 17 29 19 10 8 -56z"/>
<path d="M8400 7948 c0 -5 17 -8 38 -8 20 0 60 -3 89 -6 l52 -7 -135 -141
c-75 -77 -142 -140 -150 -138 -12 3 -14 -96 -10 -690 3 -381 10 -783 15 -893
14 -269 17 -1114 8 -2040 -9 -861 -11 -1173 -6 -1195 3 -11 -6 -16 -31 -19
l-35 -4 29 -6 c41 -8 33 -26 -9 -24 -19 1 -35 -3 -35 -7 0 -5 21 -10 48 -12
42 -3 47 -5 48 -28 1 -14 2 -37 3 -52 0 -16 6 -28 12 -28 8 0 10 17 6 53 -3
30 -2 58 1 63 4 5 102 9 217 10 678 2 939 2 1015 -1 232 -10 450 -13 380 -6
-41 5 -113 9 -160 11 -69 2 -78 4 -50 10 26 6 740 21 942 20 15 0 29 4 33 10
3 5 -1 10 -9 10 -8 0 -18 5 -21 10 -4 6 6 10 24 10 22 0 29 -4 25 -14 -3 -9 5
-15 26 -19 32 -7 83 10 74 24 -3 5 2 9 10 9 9 0 16 3 16 8 0 4 21 7 48 7 26 0
50 5 55 10 4 6 12 3 21 -7 7 -10 23 -18 35 -18 22 0 29 16 9 22 -9 3 -9 6 0
12 7 4 12 2 12 -3 0 -6 7 -11 15 -11 9 0 12 6 8 16 -4 12 -14 14 -44 9 -26 -4
-39 -3 -39 4 0 6 10 12 23 12 27 2 -57 17 -137 24 -75 8 -102 20 -57 27 18 3
34 1 37 -4 3 -5 9 -6 13 -3 5 2 41 5 80 6 39 1 71 5 71 10 0 8 -65 18 -115 17
-60 -1 -98 2 -93 8 4 3 59 7 123 9 64 2 119 5 121 8 8 8 -50 15 -126 16 -41 0
-84 0 -95 1 -44 3 23 18 106 25 100 8 130 12 137 20 3 3 -1 5 -9 6 -19 1 -54
4 -202 18 -70 6 -132 9 -137 6 -5 -3 -11 -1 -15 4 -3 6 9 20 26 33 54 40 147
165 193 261 48 98 80 185 116 307 12 41 26 84 31 95 5 11 11 36 13 55 2 19 9
55 14 80 41 181 62 292 65 337 1 18 5 33 10 33 4 0 7 26 7 58 0 64 -27 359
-34 370 -2 4 -7 26 -11 49 -6 43 -33 180 -39 198 -1 6 -7 24 -11 40 -5 17 -23
57 -42 91 -18 33 -33 63 -33 66 0 3 11 9 25 12 14 4 25 13 25 21 0 18 -40 31
-50 15 -5 -8 -13 -4 -26 14 -11 15 -31 43 -46 63 -16 20 -28 39 -28 42 0 4 17
15 38 26 20 11 48 30 62 43 29 26 34 27 49 9 8 -10 4 -19 -20 -36 -20 -15 -27
-26 -21 -34 20 -26 23 -66 5 -76 -10 -6 -13 -11 -7 -11 27 0 47 27 41 57 -6
33 17 68 100 147 23 22 43 49 43 59 0 10 7 25 15 33 19 19 11 36 -36 73 -21
18 -48 50 -58 72 l-19 40 29 64 c47 103 38 137 -43 166 -28 10 -35 16 -27 25
6 7 8 17 5 23 -3 5 -1 11 6 13 10 4 10 13 0 44 -10 35 -9 45 8 79 31 61 27 80
-25 111 -36 21 -44 30 -40 47 3 12 7 42 10 67 3 25 8 68 11 95 15 127 5 353
-17 381 -4 5 -11 29 -14 53 -3 23 -8 54 -11 68 -5 18 -3 24 4 19 6 -4 14 -22
18 -41 3 -19 10 -35 14 -35 5 0 4 15 -1 32 -5 18 -9 34 -9 35 0 1 -8 10 -18
20 -18 18 -42 86 -62 177 -6 26 -22 63 -37 82 -21 29 -23 33 -7 28 17 -6 16
-4 -3 18 -13 13 -23 29 -23 34 0 6 -25 39 -55 74 -30 35 -53 65 -50 68 2 2 21
-6 41 -19 21 -12 34 -18 31 -12 -4 6 -31 24 -60 41 -29 16 -77 54 -107 84 -55
55 -85 74 -235 155 -98 52 -85 56 25 7 80 -35 123 -42 61 -10 -88 46 -237 91
-181 56 8 -6 10 -10 4 -10 -6 0 -18 8 -25 19 -9 12 -47 26 -109 40 -118 27
-165 39 -210 54 -64 20 -323 58 -328 48 -1 -4 -62 -5 -135 -3 -306 6 -1137 6
-1137 0z m780 -44 c217 -4 418 -6 447 -6 29 1 54 -2 57 -7 3 -4 37 -6 76 -5
39 2 68 -1 65 -5 -2 -5 2 -14 10 -21 13 -11 14 -10 9 3 -5 14 -1 15 31 6 20
-6 42 -8 48 -6 7 2 30 -3 52 -11 22 -8 51 -15 65 -17 25 -2 138 -32 220 -58
73 -23 170 -71 245 -119 75 -49 211 -185 259 -258 16 -25 47 -71 68 -102 38
-56 79 -165 113 -298 24 -91 24 -95 16 -109 -5 -8 -13 11 -22 48 -7 33 -16 58
-20 55 -5 -2 -13 5 -19 16 -7 13 -7 20 0 20 5 0 10 -5 10 -12 0 -6 3 -9 6 -5
4 3 -19 31 -50 62 -31 31 -56 62 -56 70 0 7 -7 21 -16 29 -8 9 -12 16 -8 16 3
0 1 7 -6 15 -7 8 -16 12 -20 10 -5 -3 -26 15 -47 41 -48 57 -182 163 -158 124
12 -20 -10 -9 -34 16 -13 14 -38 32 -55 40 -17 7 -51 27 -76 42 -50 31 -145
72 -167 72 -8 0 48 -31 124 -70 83 -42 168 -93 213 -130 41 -33 78 -60 83 -60
16 0 67 -54 87 -92 11 -21 17 -38 13 -38 -3 0 1 -8 9 -17 22 -26 88 -142 88
-156 1 -7 9 -30 20 -52 11 -22 19 -49 19 -60 0 -11 -15 13 -35 53 -53 111
-155 261 -215 318 -106 99 -246 193 -414 277 -154 77 -284 111 -470 122 -101
6 -1244 -11 -1308 -20 -15 -2 -39 0 -54 4 -26 7 -24 10 84 117 61 60 114 119
117 131 14 45 28 50 117 42 46 -4 262 -11 479 -15z m-745 -298 c33 -1 67 -6
74 -10 10 -6 12 -5 7 2 -4 7 -2 12 3 12 6 0 11 -3 11 -7 0 -5 238 -6 528 -5
720 5 875 -11 1149 -120 193 -76 385 -215 473 -342 104 -152 216 -457 226
-616 9 -141 10 -200 4 -200 -8 0 -45 44 -43 51 5 16 -60 18 -89 3 -34 -18 -32
-30 4 -18 28 8 34 5 30 -19 -2 -9 0 -17 5 -16 19 3 53 -14 53 -27 0 -8 11 -14
26 -14 l26 0 -6 -87 c-8 -107 -24 -193 -36 -193 -5 0 -13 6 -17 13 -4 6 -17
19 -28 27 -11 8 -5 -4 14 -28 26 -34 32 -49 28 -75 -11 -72 -98 -273 -137
-315 -17 -18 -24 -20 -45 -10 l-24 11 37 27 c43 31 79 70 66 70 -5 0 -23 -13
-39 -29 -17 -15 -41 -33 -53 -40 -40 -21 -26 17 18 47 21 15 39 33 40 40 0 6
5 12 11 12 5 0 7 -4 4 -10 -3 -5 -2 -10 4 -10 5 0 13 5 16 10 3 6 1 10 -4 10
-6 0 -11 5 -11 11 0 6 6 9 13 6 8 -3 14 1 14 8 0 11 -5 11 -28 -1 -15 -7 -31
-18 -34 -24 -4 -6 -11 -8 -16 -5 -10 7 -69 -25 -69 -37 0 -12 13 -10 40 8 21
14 20 11 -5 -12 -16 -16 -32 -28 -35 -26 -3 2 -20 12 -39 23 l-34 20 50 31
c27 17 55 39 62 49 7 12 -9 4 -41 -18 -35 -26 -53 -33 -56 -24 -3 9 -11 6 -28
-10 -13 -12 -24 -25 -24 -29 0 -3 16 -12 35 -19 19 -7 35 -16 35 -21 0 -4 18
-26 41 -47 66 -62 66 -64 6 -129 -59 -65 -182 -160 -228 -176 -33 -12 -34 -31
-1 -36 12 -2 22 -8 22 -13 0 -5 7 -9 15 -9 18 0 19 -12 3 -29 -11 -10 -8 -11
14 -6 20 5 35 1 55 -15 46 -35 146 -123 180 -158 40 -41 173 -238 173 -257 0
-7 3 -22 7 -32 6 -17 6 -17 -14 0 -11 9 -25 17 -31 17 -7 0 -12 5 -12 12 0 8
-3 9 -11 1 -7 -7 -20 -5 -44 7 -33 17 -85 16 -85 -1 0 -4 12 -9 28 -11 20 -2
26 -8 24 -22 -3 -17 -1 -18 11 -7 24 20 30 -4 8 -39 -10 -17 -17 -40 -14 -50
6 -24 -38 -54 -67 -45 -28 9 -25 19 18 55 49 42 30 35 -41 -15 -42 -29 -55
-45 -51 -57 5 -16 -5 -23 -28 -19 -4 0 -5 -6 -2 -14 8 -19 5 -20 49 15 58 46
65 36 9 -15 -51 -47 -74 -55 -94 -30 -10 12 -10 18 1 32 23 29 61 63 127 116
35 27 60 52 57 55 -3 3 -19 -4 -35 -16 -16 -12 -32 -22 -35 -22 -5 0 -46 -33
-76 -62 -10 -9 -27 -21 -38 -27 -18 -10 -20 -9 -14 6 5 15 3 16 -8 6 -7 -7
-20 -13 -28 -13 -8 0 7 14 34 32 27 18 74 56 104 85 51 48 54 51 26 44 -16 -5
-29 -13 -28 -19 2 -6 -3 -9 -10 -6 -7 2 -46 -18 -86 -46 -41 -28 -79 -49 -85
-47 -6 2 4 13 21 23 37 21 46 41 11 23 -33 -18 -128 -81 -128 -86 0 -2 13 3
30 12 39 20 42 19 17 -9 -20 -22 -23 -23 -49 -10 -25 13 -29 12 -53 -10 -26
-24 -27 -50 -2 -40 22 8 17 -35 -5 -47 -25 -14 -102 -4 -145 19 -32 16 -43 32
-23 32 5 0 27 16 47 36 21 19 52 45 68 56 l30 20 -30 -26 c-25 -22 -28 -28
-15 -37 12 -8 11 -9 -6 -5 -13 4 -27 -1 -39 -14 -16 -17 -16 -20 -2 -20 9 0
19 5 22 10 4 6 10 8 15 5 10 -6 50 17 86 50 60 54 109 84 123 76 8 -6 9 -11 3
-15 -6 -3 -12 -3 -14 2 -1 4 -19 -10 -38 -32 -19 -22 -28 -36 -20 -31 86 48
197 132 269 202 19 18 42 35 52 38 18 6 34 34 24 43 -3 3 -15 -4 -28 -15 -52
-48 -104 -74 -131 -67 -19 5 -25 11 -21 22 4 12 1 11 -16 -4 -20 -17 -22 -17
-16 -1 10 27 -25 22 -53 -8 -13 -14 -29 -25 -36 -25 -7 0 -26 -12 -43 -26 -17
-14 -31 -22 -31 -16 0 11 70 76 85 78 5 1 28 18 50 39 22 20 54 42 70 50 41
17 115 83 115 101 0 10 -17 1 -47 -24 -65 -54 -93 -68 -103 -52 -6 10 -14 8
-34 -7 -14 -11 -23 -23 -19 -26 10 -10 -7 -59 -20 -54 -6 2 -38 -11 -70 -30
-32 -18 -63 -33 -68 -33 -16 0 -10 16 16 40 33 31 22 43 -23 24 -20 -9 -43
-18 -50 -21 -10 -4 -10 1 -2 22 13 33 13 48 0 40 -5 -3 -10 -2 -10 4 0 5 6 11
13 14 6 2 8 8 4 13 -11 11 -57 -45 -51 -61 3 -6 -3 -18 -12 -26 -16 -13 -17
-12 -12 7 3 14 -1 25 -13 32 -25 16 -30 15 -23 -3 4 -10 0 -15 -15 -15 -31 0
-26 14 19 45 22 15 40 29 40 30 0 10 -85 -25 -102 -43 l-22 -21 28 -26 c15
-14 31 -25 36 -25 5 0 8 -13 8 -28 -1 -38 -70 -126 -142 -182 l-58 -45 -23 29
-23 28 34 77 c71 157 95 193 122 185 14 -5 15 -4 2 5 -13 9 -12 13 5 29 23 22
115 76 115 68 0 -3 -25 -22 -55 -42 -30 -21 -54 -39 -52 -40 2 -2 41 16 88 41
46 25 102 54 124 65 22 11 47 24 55 29 62 33 75 38 65 21 -3 -5 -1 -10 5 -10
6 0 18 -7 27 -15 8 -8 20 -12 26 -8 8 5 7 8 -1 11 -10 3 -10 7 0 19 11 14 10
15 -12 8 -22 -7 -23 -6 -11 9 7 9 22 16 32 16 11 0 19 5 19 10 0 6 1 13 1 17
3 17 -57 40 -88 35 -35 -5 -41 5 -20 28 10 12 9 12 -6 1 -22 -17 -34 -7 -17
14 11 13 10 14 -3 10 -26 -11 -28 13 -2 33 14 11 25 22 25 26 0 8 -33 -5 -45
-18 -5 -6 -28 -20 -50 -31 -67 -33 -87 -48 -76 -54 6 -4 1 -13 -12 -20 -20
-13 -21 -13 -8 2 12 15 11 17 -5 17 -16 0 -16 3 6 20 14 11 30 20 35 20 6 0
21 9 35 20 21 17 21 19 5 14 -17 -5 -16 -2 5 15 20 15 22 23 13 32 -10 10 -15
9 -27 -1 -9 -7 -13 -16 -10 -21 3 -5 -1 -9 -8 -9 -8 0 -20 -6 -26 -12 -7 -7
-17 -13 -21 -13 -15 0 -94 -99 -82 -103 6 -2 20 7 31 20 11 12 19 18 20 12 0
-16 -39 -54 -55 -54 -8 0 -15 -7 -15 -15 0 -8 -4 -15 -9 -15 -9 0 -121 -160
-121 -173 0 -8 -47 -80 -118 -182 -27 -39 -47 -75 -45 -82 2 -6 -3 -26 -12
-44 l-15 -34 5 33 c7 47 -1 39 -21 -20 -9 -29 -26 -72 -36 -95 -11 -23 -21
-52 -23 -65 -2 -13 -15 -72 -28 -133 -29 -132 -28 -117 -30 -292 -1 -85 2
-143 7 -143 6 0 6 -4 0 -10 -7 -7 -7 -28 -1 -65 11 -61 25 -76 19 -20 -2 19 0
35 6 35 14 0 26 -134 12 -138 -14 -5 -5 -51 36 -189 42 -140 62 -184 93 -199
13 -7 28 -20 34 -29 7 -13 18 -15 63 -9 47 5 61 3 118 -25 70 -34 82 -36 91
-21 3 6 -1 7 -9 4 -9 -3 -16 -2 -16 4 0 6 -17 21 -37 33 -71 43 -88 72 -20 34
23 -14 48 -25 55 -25 7 0 20 -7 28 -15 9 -8 26 -15 40 -15 13 0 24 -4 24 -10
0 -5 12 -10 28 -9 l27 0 -25 12 c-14 7 -32 19 -40 27 -9 8 -27 23 -40 32 -21
15 -23 19 -10 27 13 10 80 12 80 4 0 -2 -10 -8 -22 -13 -19 -7 -16 -9 22 -11
99 -6 170 -16 206 -29 34 -13 39 -13 24 5 -7 8 -21 15 -31 15 -10 0 -20 4 -23
9 -9 14 47 23 75 13 29 -11 111 -1 91 11 -10 7 -113 10 -211 6 -13 -1 -27 5
-32 12 -6 10 -11 10 -24 -1 -10 -9 -19 -10 -26 -3 -7 7 -5 14 6 23 32 27 13
30 -30 4 -51 -29 -61 -17 -24 30 30 38 18 42 -16 6 -31 -32 -51 -39 -42 -15 4
8 2 17 -4 21 -6 3 -8 12 -5 20 3 8 0 11 -10 7 -7 -3 -14 -13 -14 -23 0 -40
-94 -44 -148 -6 -35 24 -102 118 -102 143 0 6 -9 30 -20 54 -21 47 -26 84 -10
74 14 -9 94 68 133 128 74 113 107 296 88 491 -6 63 -20 143 -31 178 -20 65
-17 78 21 98 21 12 76 -9 102 -38 27 -30 71 -46 94 -34 12 7 25 7 34 1 45 -28
109 7 109 60 l0 30 46 -26 c39 -22 50 -24 66 -14 18 11 25 9 53 -19 30 -29 37
-31 73 -25 26 4 50 18 72 40 18 19 46 37 62 40 33 8 71 60 63 86 -10 29 15 67
47 73 53 10 83 7 95 -12 25 -41 103 -347 103 -407 0 -43 -18 4 -33 85 -16 87
-32 140 -42 140 -4 0 -4 -4 -1 -9 4 -5 10 -35 15 -68 5 -32 21 -119 36 -193
24 -121 27 -148 21 -265 -3 -71 -13 -161 -21 -200 -8 -38 -20 -95 -25 -125
-16 -84 -39 -140 -58 -140 -13 0 -14 -2 -4 -9 12 -7 12 -12 1 -30 -8 -11 -18
-21 -22 -21 -5 0 -7 -7 -3 -15 3 -8 1 -15 -4 -15 -5 0 -13 -12 -16 -26 -19
-77 -212 -310 -265 -321 -16 -3 -29 -9 -29 -14 0 -5 -8 -6 -17 -3 -17 5 -17 5
0 -6 9 -6 23 -8 30 -4 6 4 -1 -6 -16 -22 -23 -24 -29 -26 -37 -14 -7 12 -15 9
-47 -16 -53 -43 -82 -56 -214 -97 -151 -48 -217 -62 -374 -83 -152 -21 -499
-24 -940 -10 -306 10 -413 11 -422 2 -4 -3 32 -6 78 -6 53 0 79 -4 70 -9 -8
-5 -78 -10 -155 -11 -78 -1 -152 -3 -166 -3 -18 -2 -24 2 -21 13 1 8 4 336 6
728 2 392 6 716 9 719 3 4 6 -18 6 -48 1 -30 3 -88 5 -129 3 -41 6 -132 7
-202 2 -76 6 -119 10 -107 5 12 6 96 3 188 -7 234 -14 311 -29 311 -8 0 -12
20 -12 65 0 36 2 65 5 65 3 0 5 145 4 322 -1 178 -5 793 -8 1368 -3 575 -10
1143 -16 1263 -11 228 -8 258 30 241 9 -4 43 -8 76 -8z m2593 -1627 c8 -12 19
-18 28 -15 20 8 50 -9 69 -38 20 -30 11 -55 -18 -49 -21 4 -21 4 -4 -10 22
-18 10 -56 -28 -91 l-26 -24 36 -39 c39 -43 43 -58 18 -85 -10 -11 -12 -18 -4
-18 6 0 14 7 17 15 9 22 27 18 53 -9 26 -28 21 -46 -13 -46 -12 0 -33 -12 -47
-27 l-24 -27 25 17 c34 24 50 30 56 24 11 -10 -27 -55 -52 -61 -16 -4 -24 -13
-22 -24 2 -14 -5 -17 -35 -17 -30 0 -50 -10 -99 -49 l-61 -49 -29 34 c-16 19
-37 46 -48 60 l-19 26 42 24 c23 13 51 28 61 34 10 5 33 35 49 65 l31 55 -41
-45 c-53 -59 -145 -122 -167 -114 -9 3 -16 8 -16 11 0 6 40 40 63 54 25 14 21
3 -10 -26 -17 -15 -22 -25 -14 -25 15 0 157 142 186 186 9 14 15 32 13 41 -2
10 -14 -4 -31 -36 -19 -34 -34 -51 -43 -47 -8 3 -13 2 -13 -2 3 -18 -2 -26
-10 -14 -6 10 -19 3 -52 -27 -24 -23 -44 -41 -46 -41 -8 0 -1 11 22 36 16 17
21 30 15 34 -10 6 10 63 65 175 13 28 26 61 29 75 6 38 16 59 40 85 26 30 37
31 54 4z m-698 -788 c0 -5 -6 -12 -12 -14 -10 -4 -10 -6 -1 -6 6 -1 14 3 17 8
7 11 47 2 64 -15 17 -18 15 -24 -9 -24 -37 0 -101 -23 -171 -61 -38 -21 -68
-33 -68 -28 0 5 8 13 18 16 9 4 26 15 36 25 28 25 -3 25 -35 -1 -13 -10 -35
-22 -49 -26 -36 -11 -88 -55 -111 -94 -11 -18 -22 -31 -25 -28 -18 18 106 165
162 192 48 23 156 63 172 64 6 1 12 -3 12 -8z m-112 -370 c-5 -13 -87 -101
-95 -101 -3 0 -29 -21 -57 -47 -29 -27 -98 -81 -154 -122 -56 -40 -111 -84
-121 -97 -26 -33 -35 -30 -14 4 l18 27 -31 -25 c-17 -14 -40 -38 -50 -55 -53
-83 -84 -153 -48 -109 11 13 10 9 -3 -14 l-18 -34 -3 28 c-4 34 17 106 35 117
7 4 13 13 13 20 0 7 -4 6 -10 -3 -11 -17 -13 -6 -4 27 4 14 11 20 22 16 14 -4
14 -3 3 5 -12 9 -12 15 3 46 20 42 28 46 22 11 l-5 -24 41 29 c23 17 50 30 60
30 45 0 186 98 261 181 30 32 58 59 64 59 5 0 18 9 28 20 18 20 50 28 43 11z
m-268 -396 c28 -91 38 -246 20 -321 -11 -44 -22 -63 -54 -91 -46 -40 -162 -97
-182 -89 -10 4 -12 39 -10 158 2 157 6 178 59 274 21 37 131 154 138 146 4 -4
17 -38 29 -77z"/>
<path d="M9895 7285 c-16 -8 -47 -14 -69 -15 -56 0 -125 -49 -165 -116 -33
-54 -44 -63 -56 -44 -11 18 -53 11 -82 -14 -20 -17 -34 -22 -44 -15 -30 19
-76 10 -101 -20 -13 -15 -36 -36 -51 -46 -15 -9 -27 -25 -27 -35 0 -21 31 -50
54 -50 13 0 16 -5 11 -22 -4 -13 -13 -28 -21 -34 -8 -6 -14 -19 -14 -28 0 -9
-8 -16 -19 -16 -27 0 -68 -23 -64 -36 2 -6 -8 -16 -22 -22 -14 -6 -25 -16 -25
-22 0 -15 11 -12 32 7 10 9 21 13 25 10 12 -12 12 -447 0 -474 -8 -18 -8 -26
0 -31 10 -6 17 -80 14 -132 -1 -13 -2 -13 -12 0 -8 11 -12 12 -16 3 -2 -7 -11
-13 -19 -13 -8 0 -13 -5 -11 -11 1 -6 -4 -14 -10 -16 -18 -6 -16 22 6 85 10
28 15 52 12 52 -3 -1 -21 -32 -39 -70 -34 -72 -56 -87 -81 -56 -10 11 -9 21 3
45 9 16 16 35 16 42 0 22 -29 -11 -41 -49 -11 -35 -11 -37 21 -63 24 -20 30
-32 25 -48 -9 -30 -53 -61 -86 -61 -33 0 -35 -5 -14 -27 12 -12 19 -12 30 -3
22 18 33 -17 12 -37 -17 -17 -50 -12 -81 12 -17 13 -18 18 -7 38 7 13 11 35 9
48 -3 21 -5 19 -17 -16 -7 -22 -17 -44 -22 -49 -12 -14 -11 36 1 71 9 26 9 27
-5 9 -8 -11 -15 -25 -15 -32 0 -20 -19 -27 -35 -14 -12 10 -11 19 5 61 26 66
25 73 -5 24 -47 -76 -28 -111 95 -177 l49 -26 -36 -31 c-53 -45 -29 -38 34 10
29 23 56 39 60 35 3 -3 22 6 42 21 33 24 34 24 16 3 -15 -17 -17 -24 -7 -27
10 -4 10 -8 0 -21 -11 -13 -10 -15 5 -9 10 4 21 7 23 7 2 0 4 12 5 28 0 25 1
25 9 6 13 -32 29 -38 49 -20 35 32 45 17 45 -64 -1 -8 -4 -26 -8 -39 l-8 -23
134 5 c124 5 139 8 198 36 35 17 71 39 80 48 9 10 33 29 54 43 38 26 91 100
102 145 3 14 11 28 16 31 10 7 28 -13 28 -31 0 -5 -4 -4 -9 4 -6 9 -11 10 -15
2 -4 -6 -4 -16 -1 -21 3 -6 -1 -17 -10 -26 -9 -9 -13 -19 -10 -22 6 -6 65 57
65 70 0 5 12 25 26 44 15 19 21 34 16 34 -6 0 -16 -8 -21 -19 -6 -10 -17 -21
-26 -25 -12 -4 -14 -2 -5 13 12 24 110 106 110 93 0 -6 -18 -38 -40 -71 -22
-33 -40 -64 -40 -69 0 -4 -14 -24 -31 -43 -17 -19 -38 -44 -47 -57 -8 -13 -20
-21 -27 -18 -13 5 -35 -12 -35 -26 0 -4 14 -8 30 -8 18 0 30 5 30 13 0 7 9 13
20 14 16 1 18 -3 13 -28 -7 -37 11 -38 26 -1 14 32 72 73 79 54 5 -17 22 -15
22 2 0 26 21 29 46 5 29 -27 31 -46 4 -54 -11 -4 -20 -15 -20 -26 0 -11 5 -17
10 -14 6 3 10 11 10 16 0 6 9 18 20 27 l21 17 -21 43 c-12 24 -28 46 -36 49
-8 3 -32 -6 -54 -21 -22 -14 -44 -26 -49 -26 -5 0 -13 -9 -16 -20 -7 -23 -25
-27 -25 -6 0 17 70 82 99 91 12 4 21 15 22 28 0 12 3 16 6 10 8 -21 25 -14 18
7 -3 11 -3 20 2 20 9 0 53 -120 53 -144 0 -17 15 -22 24 -8 2 4 -6 34 -19 66
-21 52 -22 56 -4 40 18 -16 19 -16 19 4 0 11 4 23 10 27 5 3 7 11 4 18 -3 8 9
31 26 52 35 45 37 52 10 60 -11 3 -20 14 -20 23 0 13 4 12 20 -6 12 -12 27
-22 35 -22 23 0 18 -21 -19 -83 -19 -31 -30 -57 -25 -59 12 -4 -12 -68 -26
-68 -7 0 -7 -3 0 -8 6 -4 16 -29 23 -56 11 -42 10 -52 -3 -73 -30 -45 -9 -47
23 -2 59 82 76 99 92 89 12 -7 12 -12 2 -22 -6 -6 -12 -17 -12 -22 0 -6 5 -5
12 2 16 16 28 15 28 -2 0 -24 19 -29 106 -31 55 -2 91 -7 106 -17 13 -9 37
-18 54 -22 32 -7 58 12 84 64 l13 24 -32 -27 c-35 -29 -48 -32 -71 -16 -13 9
-13 10 0 6 8 -2 27 7 42 21 21 20 25 29 17 43 -7 14 -6 17 4 13 12 -4 47 34
47 51 0 5 -78 -42 -152 -92 -20 -14 -45 -23 -55 -21 -14 3 -11 8 17 26 19 12
64 45 99 72 35 28 70 50 77 50 17 0 94 68 94 82 0 6 -16 -4 -35 -21 -20 -17
-40 -31 -45 -31 -4 0 -14 14 -22 30 -7 17 -16 30 -19 30 -3 0 -26 -15 -50 -33
-24 -19 -78 -57 -119 -84 -70 -48 -133 -103 -116 -103 4 0 26 15 49 33 42 34
83 55 72 37 -9 -14 -110 -80 -124 -80 -12 0 -15 20 -3 36 4 5 25 23 47 39 22
16 72 58 111 92 40 35 79 63 88 63 23 0 20 17 -4 25 -11 3 -20 13 -20 21 0 21
-18 17 -25 -6 -8 -25 -68 -76 -73 -61 -2 6 -8 9 -12 6 -5 -3 -18 0 -29 7 -19
12 -19 14 16 56 43 53 39 64 -7 17 -33 -34 -70 -47 -70 -24 0 6 12 26 26 45
15 19 21 34 15 34 -6 0 -18 -14 -27 -31 -11 -23 -19 -28 -27 -20 -8 8 -5 23
11 57 26 52 24 67 -4 31 -11 -12 -28 -26 -39 -31 -16 -6 -17 -9 -5 -16 12 -8
10 -10 -8 -10 -21 0 -23 3 -17 30 4 17 2 30 -3 30 -5 0 -15 -13 -22 -30 -7
-16 -18 -30 -25 -30 -20 0 -46 30 -39 42 5 8 -3 9 -24 5 -31 -6 -44 8 -25 26
3 4 14 26 25 49 l18 43 -25 -30 c-14 -16 -25 -36 -25 -42 0 -7 -4 -13 -9 -13
-6 0 -3 16 5 36 21 51 12 52 -24 3 -34 -46 -78 -75 -85 -56 -3 9 -9 8 -21 -2
-52 -43 32 135 97 206 11 13 18 26 15 29 -3 3 -20 -15 -37 -39 -17 -25 -35
-47 -39 -49 -13 -5 -102 -135 -102 -148 0 -6 -4 -9 -9 -5 -5 3 -12 1 -16 -5
-3 -5 -13 -10 -21 -10 -17 0 -19 31 -1 49 10 11 9 12 -2 6 -11 -7 -13 -1 -8
33 9 52 -15 177 -43 226 -26 47 -20 60 7 14 26 -45 43 -95 43 -130 0 -17 4
-27 10 -23 6 3 10 26 10 49 0 77 -71 199 -103 179 -6 -3 -7 -1 -3 5 4 6 -5 18
-21 26 -15 8 -49 34 -74 58 -48 45 -103 69 -202 88 -47 10 -57 15 -52 28 5 14
4 14 -13 -1 -10 -9 -32 -17 -49 -17 l-31 0 19 37 c10 21 19 42 19 49 0 6 7 17
15 24 8 7 15 19 15 28 0 12 -6 10 -26 -9 l-26 -24 -19 24 c-25 31 -25 33 16
56 20 10 34 24 31 31 -10 26 63 33 88 9 21 -21 46 -19 46 4 0 30 63 44 89 19
10 -11 18 -6 42 22 16 19 29 40 29 47 0 7 3 13 8 13 4 0 12 10 17 23 7 15 18
22 38 22 19 -1 27 4 27 16 0 16 42 29 99 29 14 0 32 7 42 16 21 19 74 11 89
-14 8 -15 9 -15 10 -1 0 39 -73 59 -125 34z m-342 -530 c92 -28 190 -115 231
-207 32 -69 34 -130 5 -177 -11 -18 -18 -38 -16 -45 2 -6 12 7 21 28 9 22 20
36 24 32 13 -14 8 -146 -5 -146 -15 0 -17 -26 -3 -35 20 -12 11 -100 -13 -136
-20 -30 -30 -35 -92 -46 -39 -6 -91 -12 -116 -12 -32 -1 -58 -9 -83 -26 -47
-32 -56 -31 -56 3 -1 15 -3 119 -6 232 -2 113 -6 283 -8 378 l-4 172 37 0 c20
0 58 -7 84 -15z"/>
<path d="M10003 7200 c15 -17 27 -42 27 -54 0 -15 9 -27 25 -34 13 -6 31 -27
39 -47 8 -19 19 -35 23 -35 23 1 122 29 143 40 58 31 80 31 121 -2 43 -34 50
-58 19 -58 -28 0 -25 -18 10 -48 17 -15 30 -32 30 -39 0 -7 4 -13 9 -13 5 0
11 -10 14 -22 5 -16 -3 -30 -30 -54 -20 -19 -33 -37 -29 -41 4 -4 11 -2 15 5
6 10 15 9 39 -5 29 -16 31 -22 26 -53 -3 -19 -8 -43 -11 -54 -4 -15 -2 -16 13
-8 13 8 19 22 19 49 0 36 1 38 30 34 17 -1 33 -8 36 -13 4 -6 23 -8 45 -4 108
17 129 17 164 -1 38 -20 50 -54 29 -80 -11 -13 -10 -17 5 -29 10 -7 24 -15 29
-17 18 -6 -1 -37 -23 -37 -27 0 -25 -11 9 -44 35 -33 56 -28 39 10 -9 18 -9
27 0 36 19 19 14 56 -8 68 -15 8 -18 17 -14 40 8 37 -27 74 -86 90 -35 9 -50
8 -91 -6 l-49 -18 -30 32 c-32 35 -64 41 -79 15 -5 -10 -13 -15 -17 -11 -4 4
-1 15 7 24 12 15 11 16 -11 9 -25 -8 -25 -7 -7 13 23 25 16 52 -23 100 -23 28
-27 40 -23 76 5 42 4 43 -44 74 -53 34 -87 40 -112 19 -27 -22 -70 -37 -76
-27 -4 6 -15 4 -28 -5 -29 -21 -54 -19 -62 4 -3 11 -20 33 -37 50 -18 17 -37
46 -43 64 -7 22 -17 33 -34 35 l-24 4 26 -32z"/>
<path d="M9263 6873 c-32 -25 -33 -25 -74 -9 -52 21 -68 16 -130 -45 -37 -36
-55 -47 -62 -40 -18 18 -58 12 -132 -18 l-70 -28 1 -57 1 -56 -39 0 c-25 0
-41 -5 -44 -15 -8 -19 22 -65 41 -65 19 0 19 16 0 24 -28 11 -15 26 18 20 24
-4 28 -3 17 5 -21 15 -5 25 35 23 41 -3 42 0 14 37 -34 46 -23 71 41 92 74 24
109 23 137 -2 20 -20 23 -20 29 -5 3 9 1 22 -5 30 -11 13 -5 26 12 26 5 0 7
-7 3 -15 -4 -11 2 -15 25 -15 28 0 30 2 24 29 -12 54 47 80 101 44 25 -16 26
-15 47 9 12 15 32 29 45 33 12 3 22 11 22 16 0 16 -24 9 -57 -18z"/>
<path d="M8683 6495 c-24 -24 -43 -51 -43 -59 0 -8 14 -25 31 -37 28 -19 36
-21 63 -11 45 16 76 15 83 -4 8 -21 -14 -41 -100 -89 -71 -41 -72 -41 -72 -83
0 -32 -5 -44 -21 -53 -12 -6 -27 -22 -32 -34 -10 -22 -62 -45 -99 -45 -15 0
-17 -48 -4 -69 11 -16 -23 -47 -81 -74 -28 -12 -38 -23 -38 -40 0 -31 24 -62
60 -77 37 -15 37 -25 0 -74 -44 -57 -40 -86 17 -130 25 -20 52 -36 58 -36 21
0 130 91 127 105 -1 8 4 29 13 46 9 17 14 33 11 36 -2 3 -12 -10 -22 -29 -14
-26 -18 -29 -23 -16 -5 13 -11 8 -28 -22 -23 -43 -15 -55 11 -18 9 12 16 17
16 11 0 -11 -42 -47 -79 -68 -11 -6 -13 -3 -9 12 4 17 2 19 -15 15 -18 -4 -16
1 13 44 l33 49 -44 -49 c-44 -48 -44 -48 -67 -30 l-23 19 26 38 c14 20 30 37
35 37 6 0 10 7 10 15 0 8 4 15 9 15 9 0 34 60 27 67 -2 2 -9 -3 -16 -12 -22
-26 -43 -19 -36 13 6 26 6 26 -9 7 -10 -13 -18 -16 -23 -9 -4 6 -15 13 -24 17
-29 11 -21 25 28 48 32 14 49 17 53 10 5 -7 18 0 36 19 20 21 26 33 18 38 -6
4 -13 23 -15 42 -3 34 -2 35 34 38 28 2 37 8 42 26 7 28 47 46 98 43 46 -2 56
17 11 21 -25 2 -34 10 -42 33 -8 23 -7 29 3 29 8 0 19 13 26 29 17 42 58 56
105 37 26 -11 35 -20 31 -31 -8 -23 4 -18 26 10 11 14 25 24 31 22 6 -2 30 22
53 53 23 31 59 71 80 88 27 22 33 32 21 32 -22 0 -100 -71 -128 -116 -11 -19
-30 -39 -41 -45 -15 -8 -19 -8 -14 0 12 19 -3 31 -24 19 -30 -19 -36 -1 -9 25
13 12 31 31 39 42 14 17 13 18 -2 12 -12 -4 -15 -2 -11 9 4 10 0 15 -8 14 -28
-4 -49 0 -49 10 0 6 8 10 18 10 9 0 23 9 30 20 11 18 10 19 -16 8 -15 -7 -34
-17 -42 -24 -8 -6 -20 -10 -26 -7 -6 2 -17 -3 -24 -12 -22 -26 -33 -16 -15 13
l18 27 -26 -24 c-26 -23 -47 -22 -47 4 0 8 18 29 40 46 29 23 37 35 28 41 -19
12 -20 11 -65 -37z"/>
<path d="M10734 6491 c-52 -20 -91 -47 -83 -55 4 -4 24 5 44 19 21 14 41 22
44 19 3 -4 -3 -11 -13 -18 -11 -6 -31 -23 -45 -37 -14 -14 -43 -36 -64 -48
-44 -27 -69 -63 -40 -58 24 3 89 44 113 69 10 11 23 17 28 14 5 -3 15 1 21 8
9 11 9 15 -1 19 -7 2 -2 2 10 0 13 -2 21 0 18 5 -3 6 1 15 9 22 12 10 15 9 15
-7 0 -26 -64 -87 -84 -80 -8 3 -18 2 -21 -3 -4 -6 -1 -10 5 -10 6 0 8 -5 4
-11 -4 -8 -9 -7 -14 2 -6 9 -12 9 -25 -4 -9 -10 -21 -17 -26 -17 -5 0 -9 -5
-9 -11 0 -7 11 -4 26 6 17 11 29 13 33 7 4 -7 12 -8 21 -2 45 29 14 -9 -39
-47 -2 -2 -1 -6 2 -10 4 -3 15 0 24 8 27 22 72 43 79 36 3 -3 -7 -12 -23 -21
-16 -8 -36 -22 -44 -32 -13 -16 -12 -16 18 -1 17 9 35 21 38 27 8 12 25 13 25
1 0 -5 -13 -14 -29 -21 -26 -11 -48 -37 -38 -47 2 -2 22 10 44 26 l40 29 33
-19 c24 -15 29 -23 21 -33 -6 -7 -8 -16 -4 -19 3 -4 -3 -7 -15 -7 -12 0 -22
-4 -22 -10 0 -5 6 -10 13 -10 20 1 47 26 47 44 0 17 -97 116 -115 116 -6 0
-11 9 -12 20 -1 11 2 20 7 20 5 0 22 12 39 26 17 14 38 23 46 20 13 -5 13 -2
-1 19 -15 23 -14 24 12 27 34 4 43 24 15 33 -13 4 -27 0 -37 -10 -13 -13 -19
-14 -25 -4 -4 7 -5 17 -3 21 8 12 -16 8 -62 -11z"/>
<path d="M8915 5760 c-14 -16 -20 -17 -26 -8 -6 9 -17 4 -41 -18 -18 -18 -44
-42 -58 -55 -14 -13 -40 -42 -57 -64 -17 -22 -45 -48 -62 -58 -31 -18 -41 -12
-18 12 10 11 7 12 -16 7 -28 -7 -28 -7 -13 22 8 15 26 37 40 47 14 11 26 23
26 27 0 20 -25 4 -74 -47 -29 -30 -57 -55 -63 -55 -23 0 -33 -26 -18 -46 14
-19 14 -19 28 1 13 17 18 18 41 7 26 -12 26 -12 9 -39 -10 -14 -16 -38 -15
-52 2 -20 -8 -35 -46 -68 -28 -23 -59 -62 -72 -89 -20 -44 -21 -49 -5 -60 15
-11 15 -13 -4 -24 -24 -12 -27 -42 -7 -59 11 -9 20 -9 34 -2 16 8 24 5 48 -20
26 -27 33 -30 69 -24 22 3 47 13 57 22 10 9 20 14 22 12 6 -8 36 -72 36 -79 0
-12 -49 -30 -80 -30 -18 0 -30 -5 -30 -13 0 -25 13 -27 44 -8 39 23 76 35 76
24 0 -10 -56 -46 -85 -54 -16 -4 -19 -12 -17 -39 4 -36 30 -79 48 -80 6 0 17
6 23 14 9 11 9 15 -2 18 -9 2 20 34 74 82 49 43 86 82 84 87 -3 4 3 13 14 18
11 6 30 25 42 43 21 29 22 31 3 18 -11 -8 -49 -45 -84 -83 -35 -38 -70 -66
-79 -65 -10 2 -15 -3 -13 -13 1 -9 -12 -22 -32 -32 -31 -14 -35 -14 -40 -1 -7
19 1 34 18 34 7 0 27 13 44 28 31 28 42 65 22 77 -6 4 -8 10 -5 15 3 4 -2 14
-11 21 -14 11 -13 15 8 30 40 30 -4 35 -81 9 -76 -26 -101 -23 -101 15 0 16
-6 25 -15 25 -8 0 -15 -4 -15 -9 0 -10 -40 -22 -51 -15 -10 6 0 34 12 34 10 0
49 37 49 46 0 4 -7 1 -15 -6 -22 -18 -39 1 -31 33 8 33 61 86 103 103 22 10
31 19 27 29 -5 11 -2 13 9 9 10 -3 27 5 44 20 15 15 36 29 46 32 9 3 17 10 17
15 0 5 4 9 10 9 6 0 5 -10 -2 -25 -6 -14 -19 -25 -28 -25 -9 0 -29 -13 -45
-30 -16 -16 -24 -30 -19 -30 12 0 12 -29 0 -50 -5 -8 18 12 50 45 31 33 55 53
52 45 -9 -25 17 -53 42 -45 19 6 20 9 8 23 -29 34 -37 67 -22 87 8 10 12 27 9
36 -4 11 2 26 14 38 12 12 17 21 12 21 -6 0 -13 -4 -16 -10 -3 -5 -12 -10 -18
-10 -8 0 -7 3 2 9 8 5 11 16 8 25 -4 10 11 34 41 67 45 50 97 119 89 119 -2 0
-12 -9 -22 -20z"/>
<path d="M9736 5646 c-13 -32 -46 -51 -46 -27 0 5 -9 7 -20 4 -16 -4 -18 -8
-9 -19 6 -8 16 -14 21 -14 5 0 25 -15 45 -33 31 -30 34 -37 24 -56 -12 -21
-86 -81 -101 -81 -4 0 -10 10 -13 22 -5 18 -8 19 -21 8 -9 -7 -16 -19 -16 -26
0 -17 -26 -19 -36 -3 -3 6 -1 14 5 18 14 9 33 71 21 71 -7 0 -34 -32 -67 -79
-2 -2 -5 -2 -8 1 -3 3 2 22 11 44 15 35 15 37 0 25 -13 -11 -16 -11 -16 -1 0
7 8 19 18 27 15 13 15 13 -5 3 -22 -10 -28 -26 -23 -59 1 -7 -9 -24 -21 -37
-17 -18 -25 -21 -31 -12 -6 10 -11 9 -22 -4 -7 -10 -16 -18 -20 -18 -14 0 -5
24 16 41 11 11 16 19 9 19 -8 0 -9 5 -1 19 18 34 11 36 -22 5 -63 -58 -62 -58
-108 -29 -48 30 -59 28 -35 -8 16 -24 15 -26 -12 -55 -15 -17 -41 -33 -56 -36
-28 -7 -28 -6 -22 31 l6 38 -18 -37 c-10 -21 -24 -38 -32 -38 -11 0 -11 4 2
18 28 31 19 37 -12 8 -28 -27 -28 -27 -34 -6 -6 23 -27 19 -27 -5 0 -7 -10
-15 -22 -17 -21 -3 -20 -5 12 -22 46 -25 137 -23 188 4 54 28 75 47 67 59 -3
6 0 11 9 11 8 0 17 -6 19 -12 4 -10 8 -10 15 1 7 9 11 10 17 2 11 -19 -48 -97
-65 -86 -6 3 -10 3 -9 -2 3 -20 -2 -27 -11 -13 -9 13 -10 13 -10 0 0 -17 -40
-57 -60 -62 -7 -2 -25 -16 -40 -32 -23 -25 -31 -28 -63 -22 -25 5 -47 19 -71
48 -29 34 -37 38 -42 24 -6 -17 17 -44 83 -96 l32 -25 -59 -50 c-32 -27 -59
-54 -59 -59 -1 -6 12 2 27 17 31 30 42 33 42 14 0 -7 -33 -36 -72 -65 -62 -43
-136 -112 -213 -194 -17 -19 -33 -22 -59 -12 -24 9 -19 27 14 59 32 31 41 25
13 -9 -16 -19 33 23 114 95 17 16 36 29 42 29 6 0 11 5 11 11 0 6 30 40 68 75
37 35 64 64 59 64 -8 0 -20 -10 -173 -148 -56 -50 -104 -89 -107 -86 -8 8 -87
-44 -94 -62 -3 -8 1 -22 9 -32 8 -9 18 -25 22 -36 5 -15 9 -16 21 -6 8 7 22 9
31 6 9 -4 28 1 41 9 13 9 33 13 44 10 11 -4 38 2 62 13 74 35 95 36 132 7 44
-33 59 -32 86 8 13 17 28 35 34 40 6 4 5 10 -5 16 -17 11 -33 4 -24 -11 4 -6
-2 -8 -17 -4 -13 3 -19 3 -13 0 18 -8 4 -44 -16 -44 -10 0 -20 9 -23 20 -4 15
5 27 39 50 52 35 55 36 48 13 -3 -10 8 -2 26 17 31 34 32 23 2 -13 -19 -22 -8
-34 15 -16 17 13 17 13 3 -6 -8 -11 -23 -30 -34 -43 -16 -18 -17 -22 -4 -17
26 10 34 -16 9 -36 -33 -27 -5 -36 30 -10 18 13 41 21 56 19 l27 -3 -4 -305
c-3 -168 -4 -345 -3 -395 1 -49 2 -181 3 -292 l1 -203 35 0 c39 0 41 -5 17
-40 -62 -92 -193 -213 -211 -195 -4 3 -1 9 5 13 7 4 35 46 63 92 44 75 46 80
16 45 -19 -22 -45 -57 -58 -77 -13 -21 -26 -38 -30 -38 -3 0 -11 12 -16 28 -6
15 -17 36 -26 47 -14 18 -15 16 -2 -25 7 -25 19 -58 25 -73 6 -16 11 -30 11
-31 0 -10 -83 -59 -115 -67 -20 -6 -35 -13 -32 -15 10 -10 102 24 165 60 35
20 68 36 72 36 12 0 126 119 156 164 36 53 71 146 79 209 3 28 10 68 15 87 15
63 28 194 35 355 6 141 12 202 20 215 15 24 43 262 43 364 -1 148 -21 187
-157 299 -42 35 -87 80 -101 100 -14 20 -35 42 -47 48 -13 7 -23 17 -23 22 0
5 7 4 15 -3 8 -6 19 -9 25 -5 5 3 34 -16 62 -42 29 -27 71 -61 94 -76 22 -15
54 -42 71 -60 35 -36 103 -134 103 -148 0 -5 4 -9 9 -9 13 0 24 92 17 137 -3
21 -8 63 -11 93 -3 30 -8 75 -12 100 -4 25 -6 48 -5 53 1 4 -3 7 -9 7 -5 0 -7
4 -4 10 3 5 -12 34 -35 64 -22 30 -40 58 -40 63 0 16 68 -69 104 -131 21 -36
41 -65 43 -62 3 2 0 21 -6 41 -10 38 -1 75 19 75 8 0 14 -63 12 -145 0 -11 5
-23 11 -27 11 -7 20 -138 8 -138 -4 0 -13 6 -20 13 -11 10 -13 8 -7 -13 4 -14
14 -59 22 -100 24 -122 35 -152 51 -139 7 6 13 22 13 35 0 13 4 24 9 24 5 0
15 17 21 38 11 32 47 92 127 206 11 17 41 76 64 131 24 55 47 102 51 103 5 2
8 13 8 25 0 11 3 17 7 13 13 -12 2 -129 -13 -153 -27 -42 -2 -23 72 54 41 43
74 74 74 69 0 -5 17 8 39 30 29 31 46 39 72 39 19 0 34 5 34 11 0 7 11 22 25
33 25 22 25 22 -16 0 -40 -22 -42 -22 -77 -6 -19 9 -40 17 -46 17 -15 0 -13
11 4 34 25 33 17 37 -25 16 -43 -22 -70 -26 -70 -9 0 5 -4 7 -10 4 -13 -8 -13
1 0 26 15 26 -5 25 -23 -2 -31 -44 -27 4 8 82 20 45 34 84 31 86 -5 5 -31 -37
-31 -52 0 -5 -9 -20 -20 -33 -11 -12 -22 -32 -25 -43 -6 -26 -26 -21 -23 6 2
15 -1 14 -13 -7 -8 -16 -16 -28 -18 -28 -8 0 8 87 21 115 l14 30 -21 -24 c-11
-13 -21 -29 -21 -37 -3 -34 -19 -65 -30 -58 -5 3 -7 17 -4 32 4 21 2 19 -9 -8
-8 -19 -15 -30 -15 -25 -1 6 -5 4 -10 -4 -13 -20 -41 -5 -41 22 0 13 3 27 6
30 9 9 43 111 39 115 -2 2 -18 -28 -36 -67 -33 -72 -49 -88 -49 -49 0 20 -1
20 -12 5 -12 -16 -15 -15 -43 7 l-30 24 18 37 c10 21 16 40 13 42 -3 3 -12
-11 -20 -31z m32 -511 c-3 -14 -5 -25 -4 -25 1 0 16 4 34 9 28 8 32 7 32 -9 0
-10 7 -25 15 -33 13 -13 13 -16 0 -27 -8 -7 -15 -17 -15 -22 0 -5 -11 -20 -24
-35 -29 -31 -59 -25 -81 19 -18 37 -19 60 -3 76 9 9 8 12 -5 12 -20 0 -23 30
-5 48 7 7 23 12 36 12 21 0 24 -4 20 -25z m-305 -342 c38 -8 42 -34 27 -182
-7 -69 -16 -155 -19 -190 -3 -36 -11 -66 -17 -68 -10 -3 -22 128 -29 338 -2
42 -9 87 -15 99 -11 21 -10 22 6 16 11 -4 31 -10 47 -13z"/>
<path d="M9547 3660 c-7 -117 -18 -175 -40 -219 -9 -18 -15 -37 -12 -41 4 -7
-24 -37 -37 -40 -12 -2 -78 -63 -78 -72 0 -15 27 -8 45 12 10 11 21 17 25 15
5 -3 11 1 13 7 4 10 6 10 6 1 1 -7 -27 -39 -61 -73 -73 -70 -57 -83 26 -20 29
22 77 47 107 56 30 9 57 20 60 25 3 5 46 -13 96 -41 92 -51 153 -72 153 -51 0
6 -11 11 -23 11 -13 0 -49 18 -80 39 -30 22 -63 41 -73 43 -11 2 -21 17 -27
38 -5 19 -13 40 -19 45 -8 7 -9 5 -5 -6 3 -9 0 -22 -6 -28 -14 -14 -30 -15
-22 -1 3 6 2 10 -4 10 -5 0 -15 -8 -20 -17 -13 -22 -13 -29 -2 142 7 103 6
156 -4 200 l-12 60 -6 -95z"/>
<path d="M12430 7930 c-85 -3 -150 -8 -145 -12 15 -10 301 -28 385 -24 41 1
92 4 113 4 30 2 37 6 37 22 0 23 9 23 -390 10z"/>
<path d="M12123 7818 c-33 -112 -45 -175 -38 -197 3 -12 2 -21 -2 -21 -5 0 -9
-22 -8 -49 1 -28 -3 -48 -7 -45 -4 3 -8 -3 -9 -13 0 -10 -2 -37 -4 -60 -4 -58
11 -55 24 5 5 26 17 70 26 97 16 52 54 294 52 333 -2 39 -12 24 -34 -50z"/>
<path d="M12760 7239 c-103 -7 -169 -26 -275 -79 -69 -34 -74 -42 -15 -22 8 2
-11 -12 -43 -31 -32 -20 -77 -51 -100 -69 -40 -31 -39 -25 8 32 l20 25 -26
-22 c-14 -13 -28 -23 -32 -23 -14 0 -68 -66 -127 -153 -115 -173 -163 -335
-163 -557 -1 -110 4 -152 23 -225 13 -49 23 -99 22 -110 -1 -11 3 -22 7 -25 4
-3 19 -27 33 -55 14 -27 47 -90 73 -140 26 -49 69 -130 95 -180 26 -49 103
-191 170 -315 68 -124 132 -242 143 -262 18 -36 18 -41 2 -140 -10 -57 -23
-110 -31 -119 -10 -11 -11 -18 -3 -26 9 -9 7 -33 -5 -94 -11 -57 -13 -86 -6
-93 5 -5 10 -21 11 -35 0 -26 0 -26 11 -4 10 21 18 23 97 23 47 0 103 3 123 6
46 8 80 -2 58 -16 -13 -8 -12 -11 5 -24 18 -13 20 -13 23 0 2 9 10 13 19 10 8
-3 17 -6 19 -6 2 0 4 -7 4 -15 0 -13 7 -15 38 -9 20 4 39 11 40 15 2 5 7 7 11
4 4 -2 25 -5 47 -6 21 -1 44 -6 50 -11 6 -4 11 -2 11 6 0 16 -46 23 -130 21
-37 -1 -56 2 -54 9 2 7 32 9 83 6 43 -2 96 -4 116 -4 22 0 33 -3 25 -8 -7 -5
-2 -8 15 -8 15 0 29 -3 31 -8 3 -4 63 -4 134 0 70 5 152 9 181 9 85 2 71 19
-17 19 -43 0 -86 3 -95 6 -11 4 -16 1 -16 -10 0 -14 -10 -16 -72 -12 -77 4
-108 12 -108 27 0 5 -7 9 -15 9 -8 0 -15 5 -15 10 0 6 13 10 29 10 17 0 33 -4
36 -10 3 -5 1 -10 -6 -10 -7 0 -10 -2 -7 -5 11 -12 113 -22 133 -14 15 6 6 8
-30 9 -36 0 -46 3 -35 10 8 5 40 7 70 5 54 -5 55 -5 25 10 -29 14 -27 14 42
10 40 -3 76 -5 80 -6 28 -5 34 5 9 15 -20 9 -64 12 -141 10 -97 -4 -114 -2
-127 13 -15 18 -26 69 -48 223 -27 187 -39 142 127 471 148 293 179 359 249
519 190 438 206 620 82 917 -77 186 -230 352 -378 408 -38 15 -70 30 -70 34 0
6 -55 33 -75 36 -5 1 -21 5 -35 10 -38 12 -234 21 -330 14z m335 -73 c130 -34
295 -115 295 -145 0 -4 -23 -12 -51 -17 -44 -10 -56 -8 -99 12 -27 12 -69 41
-93 63 -24 23 -48 41 -53 41 -14 0 76 -77 124 -106 23 -14 42 -29 42 -32 0 -4
-71 -27 -158 -51 -212 -60 -376 -113 -442 -145 -29 -14 -59 -26 -64 -25 -6 0
-35 32 -64 72 -68 92 -142 175 -142 159 0 -6 41 -62 90 -123 50 -61 90 -114
90 -118 0 -5 -11 -25 -25 -45 -56 -82 -103 -203 -143 -366 l-19 -75 -139 -112
c-76 -61 -142 -108 -147 -104 -4 4 -9 22 -10 39 -1 18 -6 32 -11 32 -4 0 -6 6
-3 14 3 7 0 19 -6 25 -18 18 -20 301 -2 321 8 8 18 36 24 61 27 118 134 351
178 386 12 9 33 -2 111 -61 132 -98 170 -124 153 -103 -16 20 -215 173 -234
180 -16 6 9 29 93 89 164 116 354 173 540 163 36 -2 110 -15 165 -29z m369
-225 c32 -33 47 -55 43 -65 -4 -11 -1 -16 10 -16 9 0 13 -3 10 -6 -11 -12 13
-43 28 -38 17 7 17 6 20 -51 3 -44 24 -96 55 -135 28 -35 39 -140 33 -307 -5
-135 -13 -183 -32 -183 -23 0 -123 172 -173 300 -116 295 -163 411 -179 447
-10 23 -19 46 -19 51 0 8 112 49 140 51 9 1 38 -21 64 -48z m-248 -73 c-4 -40
-11 -116 -16 -168 -5 -52 -10 -122 -10 -155 l-1 -60 -27 35 c-15 19 -54 62
-87 96 -66 67 -142 104 -216 104 -88 0 -231 -53 -275 -102 -30 -32 -74 -111
-74 -131 0 -10 -4 -17 -9 -17 -12 0 12 87 41 150 30 65 55 98 91 117 35 18
553 200 576 202 11 1 12 -13 7 -71z m97 -138 c31 -74 74 -184 97 -245 22 -60
61 -147 86 -193 25 -46 44 -86 42 -87 -2 -2 -51 28 -108 66 -58 39 -134 86
-168 106 l-64 36 6 51 c14 112 25 265 26 346 0 108 8 100 83 -80z m-323 -106
c53 -29 113 -95 137 -152 11 -24 17 -66 17 -117 0 -72 -3 -86 -32 -141 -56
-102 -161 -173 -258 -174 -87 0 -195 84 -235 185 -6 17 -12 67 -12 111 -1 72
3 89 32 148 43 88 75 124 136 153 64 31 144 26 215 -13z m-500 -264 c0 -21 -5
-42 -11 -45 -7 -5 -5 -12 4 -23 8 -10 20 -43 27 -74 22 -108 129 -216 237
-238 69 -15 158 -1 227 35 27 14 51 23 53 21 3 -3 -13 -26 -34 -53 -22 -26
-57 -77 -78 -113 -51 -86 -50 -84 -37 -77 5 4 35 45 66 90 31 46 90 124 131
173 85 102 126 188 128 271 1 29 4 53 8 53 7 0 58 -31 274 -168 49 -32 91 -64
93 -72 2 -10 -68 -51 -230 -132 -128 -64 -298 -156 -377 -203 -79 -47 -147
-85 -152 -85 -4 0 -29 33 -55 73 -25 39 -74 101 -109 137 -65 68 -94 110 -75
110 6 0 -3 15 -20 33 -43 46 -110 139 -110 154 0 8 7 10 18 6 14 -6 15 -4 4 9
-7 8 -10 23 -6 32 4 12 2 15 -9 11 -8 -4 -17 1 -20 9 -5 11 0 16 13 16 17 0
20 7 20 51 0 31 4 48 10 44 6 -3 10 -24 10 -45z m-46 -194 c50 -78 134 -191
213 -285 111 -132 121 -146 98 -137 -11 4 -43 16 -71 26 -27 10 -106 45 -175
78 -68 32 -156 72 -194 87 -39 15 -93 38 -121 51 -28 13 -57 24 -63 24 -7 0
16 21 51 47 34 26 68 51 73 56 63 50 141 107 147 107 4 0 23 -25 42 -54z
m1169 -82 c3 -3 -3 -22 -13 -42 -10 -21 -41 -89 -70 -152 -49 -111 -72 -158
-219 -445 -36 -71 -95 -191 -129 -265 -35 -74 -81 -163 -103 -197 -21 -34 -39
-65 -39 -67 0 -3 -12 -22 -26 -43 -14 -21 -38 -63 -52 -93 -29 -63 -29 -63
-31 -90 0 -11 -7 -19 -13 -17 -8 1 -12 -7 -10 -20 2 -13 -2 -23 -7 -23 -14 0
-13 -14 -18 265 -3 132 -6 268 -7 302 -1 34 1 60 5 57 9 -5 43 55 35 63 -9 10
-26 -8 -26 -28 0 -12 -5 -19 -12 -16 -9 2 -14 30 -15 83 -2 43 -3 90 -4 104
-3 62 -3 63 59 141 17 21 20 29 10 29 -8 0 -23 -16 -34 -36 -23 -45 -39 -45
-40 0 -1 18 -4 45 -8 60 -5 19 -3 26 8 26 8 0 16 4 18 8 10 25 434 265 473
268 6 0 27 8 49 17 21 9 40 17 41 17 2 0 26 16 55 35 29 19 58 35 65 35 7 0
18 7 25 15 13 16 23 19 33 9z m-1091 -268 c81 -36 170 -74 198 -85 64 -25 102
-49 95 -61 -3 -5 -1 -74 4 -152 10 -147 28 -538 34 -755 2 -67 0 -120 -5 -117
-4 3 -8 12 -8 20 0 8 -4 22 -9 32 -5 9 -21 42 -36 72 -15 30 -46 84 -70 120
-23 36 -63 103 -88 150 -26 47 -53 96 -62 110 -50 84 -175 303 -175 307 0 2
-15 27 -33 56 -18 29 -69 122 -112 207 -43 85 -91 179 -107 208 -15 29 -28 56
-28 61 0 5 57 -17 128 -49 70 -32 193 -88 274 -124z"/>
<path d="M11887 5805 c-19 -60 -61 -237 -111 -470 -43 -199 -125 -534 -136
-554 -5 -9 -7 -5 -7 13 0 14 3 29 8 32 13 8 11 54 -3 54 -6 0 -8 -3 -5 -6 3
-4 2 -15 -3 -24 -5 -10 -12 -37 -15 -60 -3 -23 -8 -46 -11 -51 -3 -5 -1 -9 4
-9 11 0 3 -58 -9 -66 -5 -3 -9 -12 -9 -20 0 -8 4 -13 9 -10 5 4 7 -3 4 -14 -3
-11 -9 -17 -15 -14 -5 3 -7 -7 -5 -22 4 -30 -9 -94 -61 -299 -18 -72 -38 -168
-47 -220 -2 -11 -19 -85 -38 -165 -19 -80 -38 -160 -42 -178 -4 -18 -9 -32
-11 -30 -5 6 35 227 51 278 15 48 42 165 49 215 18 121 26 158 38 173 9 11 10
14 1 8 -7 -4 -13 -2 -13 3 0 6 3 11 8 11 12 0 8 153 -4 157 -6 2 -9 17 -6 33
2 16 8 27 14 24 5 -3 6 6 2 22 -4 16 -3 25 2 21 5 -3 9 11 8 31 0 20 3 42 7
48 4 5 7 42 6 82 -1 40 1 72 5 72 10 0 22 42 19 68 -1 13 3 22 11 22 10 0 10
2 -1 9 -18 11 -9 94 25 246 14 61 27 121 30 135 3 14 12 61 20 105 22 110 34
175 39 208 2 15 9 55 16 88 9 45 9 63 1 71 -7 7 -14 9 -17 6 -11 -10 -124
-536 -135 -628 -14 -112 -47 -266 -95 -452 -57 -215 -72 -277 -95 -388 -12
-58 -39 -177 -61 -264 -21 -88 -39 -169 -39 -181 0 -11 -19 -93 -41 -181 -46
-176 -52 -205 -74 -314 -8 -41 -21 -109 -30 -150 -11 -48 -15 -99 -11 -140 5
-65 -16 -160 -35 -160 -5 0 -6 -7 -3 -15 10 -26 34 -17 34 13 1 15 7 38 14 52
l14 25 7 -40 c4 -22 13 -54 21 -72 8 -17 14 -38 14 -48 0 -34 41 -105 69 -119
16 -9 31 -13 34 -10 3 3 61 7 129 9 162 5 169 6 128 15 -20 4 31 7 125 7 100
0 147 -3 125 -7 -19 -5 67 -6 191 -3 211 5 227 4 237 -12 9 -17 10 -17 17 4 5
18 12 21 40 15 19 -3 35 -1 39 5 5 7 -4 11 -24 11 -30 0 -31 1 -24 35 3 19 12
51 19 72 l13 37 63 -1 c175 -4 249 -9 249 -17 0 -10 230 -1 267 10 13 3 20 10
17 15 -3 5 -9 7 -12 5 -12 -7 -211 -16 -227 -10 -7 3 -11 12 -8 20 7 18 -1 18
-37 -1 -16 -8 -31 -11 -34 -7 -2 4 -49 9 -103 10 -54 2 -113 4 -130 6 -18 1
-35 -3 -37 -8 -3 -6 -3 3 1 19 3 17 7 32 9 34 2 2 38 -2 81 -9 69 -11 216 -9
418 5 17 1 86 6 155 10 69 4 130 12 135 17 7 7 -18 8 -75 3 -150 -12 -608 -16
-615 -5 -4 7 59 11 182 12 264 2 302 4 310 11 5 6 -450 13 -480 8 -4 -1 -10 6
-13 14 -4 8 -10 15 -16 15 -5 0 -7 -4 -3 -9 9 -16 -26 -30 -45 -19 -19 12 -15
62 4 51 6 -4 5 0 -2 9 -11 13 -11 29 -2 80 7 35 14 70 18 78 3 8 7 29 9 45 2
17 6 37 9 45 8 18 9 24 18 120 4 41 11 84 16 95 15 35 39 157 33 172 -5 11 3
13 38 9 24 -2 180 -5 346 -5 l302 -1 7 -46 c3 -25 12 -51 19 -57 10 -9 9 -14
-2 -22 -12 -9 -12 -15 -1 -40 7 -17 18 -35 24 -42 12 -13 28 -112 19 -121 -3
-3 -5 4 -5 16 0 12 -5 22 -11 22 -6 0 -8 -8 -5 -17 13 -41 57 -277 59 -313 0
-15 12 -37 59 -108 15 -23 25 -48 22 -57 -3 -8 -2 -15 4 -15 6 0 31 -21 56
-46 44 -44 46 -44 46 -20 0 34 -33 94 -70 129 -16 16 -30 35 -30 42 0 7 -7 15
-15 19 -20 7 -19 35 0 42 11 5 12 10 6 18 -12 14 0 67 13 63 5 -1 10 -20 11
-42 3 -64 31 -149 46 -139 5 3 5 13 -1 23 -17 33 -30 109 -22 132 12 30 17 18
37 -81 9 -47 20 -98 25 -115 5 -16 12 -48 15 -70 3 -22 8 -54 11 -72 4 -30 3
-32 -28 -36 l-33 -4 37 -1 c20 -1 40 -7 43 -13 5 -7 72 -8 214 -4 277 8 822
-4 826 -19 48 -169 92 -269 54 -123 -11 39 -22 88 -25 107 -6 43 -40 189 -65
287 -11 40 -18 76 -17 80 0 5 -4 22 -11 38 -16 38 -61 223 -61 250 0 11 -14
79 -30 150 -78 338 -91 401 -93 441 -1 23 -4 41 -7 39 -10 -6 -45 138 -84 341
-19 96 -19 97 -6 89 6 -3 10 -2 10 3 0 6 -8 13 -17 16 -12 5 -14 9 -6 14 13 8
1 92 -18 126 -6 10 -12 37 -15 60 -2 22 -8 50 -13 61 -29 65 -32 78 -20 85 8
6 8 9 -1 15 -6 4 -9 13 -6 21 3 8 1 14 -5 14 -5 0 -9 6 -8 13 4 18 -12 99 -23
120 -5 10 -11 37 -14 60 -8 76 -69 322 -174 700 -16 54 -31 36 -25 -31 5 -58
12 -107 15 -107 3 0 7 -27 15 -89 3 -26 11 -58 17 -70 6 -11 13 -34 15 -50 2
-16 7 -34 12 -40 10 -13 33 -107 28 -112 -2 -3 5 -35 15 -72 21 -73 66 -274
75 -336 4 -28 3 -37 -5 -32 -22 14 -12 -21 11 -38 14 -10 16 -14 5 -10 -26 9
-23 -20 5 -39 17 -12 18 -16 6 -16 -13 -1 -15 -8 -8 -48 11 -72 37 -164 50
-179 6 -8 8 -21 5 -30 -3 -8 1 -22 9 -31 8 -8 13 -19 9 -24 -3 -6 0 -16 6 -24
6 -8 9 -19 5 -25 -4 -6 -3 -16 2 -23 5 -7 10 -23 11 -37 3 -36 7 -54 14 -65 3
-5 18 -66 33 -135 29 -135 79 -361 100 -450 7 -30 29 -129 49 -220 69 -311
106 -465 131 -541 14 -42 25 -78 25 -80 0 -2 -181 -3 -403 -2 -221 1 -443 2
-494 3 l-92 0 -6 48 c-4 26 -11 63 -16 83 -12 46 -46 248 -54 319 -3 30 -10
78 -15 105 -5 28 -12 70 -14 95 -3 25 -15 88 -26 140 -12 52 -25 122 -28 155
-7 52 -10 60 -27 57 -28 -5 -199 -1 -333 6 -62 4 -120 3 -128 -1 -9 -5 -21 -4
-30 4 -8 6 -17 9 -21 5 -3 -3 0 -6 7 -6 7 0 11 -3 8 -6 -13 -12 -176 -16 -198
-4 -16 8 -29 9 -48 1 -15 -6 -53 -12 -85 -14 -32 -2 -62 -8 -66 -13 -5 -5 -23
-61 -41 -124 -18 -63 -38 -128 -46 -145 -27 -61 -114 -397 -114 -443 0 -17 13
-8 16 11 8 50 57 244 64 257 12 20 12 3 0 -40 -9 -31 -19 -84 -36 -185 -3 -16
-12 -51 -20 -77 -9 -26 -13 -57 -9 -68 3 -11 2 -20 -3 -20 -5 0 -7 -12 -4 -26
4 -20 2 -25 -8 -19 -9 5 -11 4 -6 -3 4 -7 4 -33 0 -58 l-7 -47 -120 7 c-66 4
-123 8 -127 11 -3 2 -26 5 -51 6 -24 1 -48 5 -53 7 -5 3 -141 6 -302 6 -161 1
-295 4 -298 7 -3 3 10 66 28 140 18 74 45 188 61 254 15 66 36 152 46 191 11
39 17 79 13 88 -3 9 -2 16 4 16 5 0 12 20 15 44 4 24 13 63 21 87 9 26 11 46
6 49 -9 6 -7 41 5 59 3 5 8 30 11 56 3 26 9 58 15 72 5 13 9 35 9 48 0 14 6
44 13 67 15 47 35 126 43 173 3 17 9 46 14 65 5 19 9 42 8 50 -3 34 3 60 12
60 6 0 6 -9 0 -25 -5 -14 -6 -25 -1 -25 11 0 42 81 35 92 -3 5 -1 14 4 21 5 7
9 19 10 27 0 23 10 82 19 115 5 17 8 44 8 62 0 17 3 29 7 27 8 -5 10 8 12 69
0 15 4 27 7 27 4 0 9 11 11 25 3 13 1 22 -3 19 -5 -3 -9 0 -9 5 0 6 7 11 15
11 13 0 14 4 5 20 -7 13 -7 20 -1 20 6 0 8 7 5 15 -4 8 -1 15 6 15 7 0 10 7 6
15 -3 8 -2 15 3 15 8 0 27 83 51 220 5 25 16 74 25 110 21 84 20 79 45 190 12
52 23 104 26 115 3 11 6 31 8 45 12 94 20 145 30 182 15 53 0 64 -17 13z"/>
<path d="M12440 3130 c13 -8 12 -10 -2 -10 -10 0 -18 -6 -18 -14 0 -12 21 -15
108 -15 72 0 102 3 92 9 -18 12 -35 11 235 11 124 0 202 3 190 8 -11 5 -63 9
-115 10 -52 0 -187 3 -300 6 -134 3 -200 1 -190 -5z"/>
<path d="M6300 3107 c0 -8 -9 -22 -20 -32 -11 -10 -17 -22 -14 -26 3 -5 -2 -9
-10 -9 -9 0 -16 -5 -16 -11 0 -5 -13 -24 -29 -41 -20 -22 -27 -38 -25 -59 2
-16 0 -28 -4 -28 -18 3 -32 -2 -32 -12 0 -6 10 -10 23 -9 12 1 33 1 47 0 22
-2 21 -3 -10 -12 -56 -16 -63 -32 -10 -24 51 7 200 19 243 19 25 0 27 2 14 14
-11 11 -20 12 -33 5 -10 -5 -29 -6 -45 -2 -15 5 -46 4 -69 -2 -33 -9 -44 -8
-58 5 -9 8 -26 17 -37 20 -11 2 -1 5 23 6 27 1 41 -3 37 -9 -3 -5 1 -10 9 -10
9 0 16 5 16 10 0 6 6 10 13 9 6 -1 28 6 47 15 35 17 35 17 -59 11 -75 -5 -92
-4 -89 7 3 7 9 13 14 14 114 7 399 17 428 15 26 -2 36 1 32 8 -5 7 -50 11
-123 11 -64 0 -114 3 -110 6 8 8 50 12 150 13 49 1 76 5 72 11 -3 6 -42 10
-86 10 -43 0 -79 4 -79 9 0 9 53 20 105 22 24 1 21 3 -15 10 -25 5 -72 7 -106
6 -33 -2 -69 0 -80 4 -13 5 -3 8 31 9 50 2 154 16 145 19 -3 1 -69 5 -147 7
-118 4 -143 3 -143 -9z"/>
<path d="M15978 2939 c-4 -12 -110 -15 -128 -4 -5 3 -11 1 -15 -5 -3 -5 2 -10
12 -10 51 -1 229 -13 232 -16 10 -9 -8 -13 -69 -15 -36 -1 -74 -5 -85 -9 -17
-7 -15 -10 20 -26 35 -16 74 -19 305 -21 242 -3 263 -2 245 12 -14 11 -36 15
-72 13 -28 -2 -50 0 -47 4 3 4 -2 8 -11 8 -10 0 -13 -5 -9 -12 5 -8 2 -9 -12
-4 -35 14 -77 18 -69 7 4 -7 -4 -11 -19 -11 -14 0 -26 6 -26 13 0 8 -3 8 -9
-2 -8 -12 -14 -12 -39 -2 -17 7 -43 11 -58 9 -20 -2 -30 2 -32 13 -2 13 9 17
58 22 67 6 82 13 60 27 -20 13 -133 13 -125 0 3 -5 0 -8 -7 -5 -7 2 -24 6 -38
9 -14 2 -32 7 -41 11 -10 3 -19 1 -21 -6z"/>
<path d="M12508 2870 c-1 -5 -39 -10 -83 -11 -81 -2 -154 -17 -87 -18 17 -1
32 -5 32 -10 0 -25 541 -5 565 21 7 8 6 9 -2 4 -6 -3 -14 0 -16 6 -4 10 -8 10
-14 1 -5 -7 -48 -11 -126 -12 -99 0 -118 3 -113 15 7 19 -4 18 -18 -2 -9 -12
-17 -13 -37 -6 -14 6 -38 8 -53 5 -20 -4 -27 -2 -22 6 4 6 1 11 -8 11 -8 0
-16 -4 -18 -10z"/>
</g>
</svg>
