<?xml version="1.0" standalone="no"?>
<!DOCTYPE svg PUBLIC "-//W3C//DTD SVG 20010904//EN"
 "http://www.w3.org/TR/2001/REC-SVG-20010904/DTD/svg10.dtd">
<svg version="1.0" xmlns="http://www.w3.org/2000/svg"
 width="1928.000000pt" height="1074.000000pt" viewBox="0 0 1928.000000 1074.000000"
 preserveAspectRatio="xMidYMid meet">
<metadata>
Created by potrace 1.16, written by Peter Selinger 2001-2019
</metadata>
<g transform="translate(0.000000,1074.000000) scale(0.100000,-0.100000)"
fill="#000000" stroke="none">
<path d="M14560 8014 c0 -5 9 -20 20 -34 28 -36 25 -50 -12 -51 l-33 -2 35 -6
c30 -5 35 -10 34 -31 -1 -14 -4 -286 -8 -605 -3 -319 -8 -654 -11 -745 -3 -91
-5 -169 -5 -175 0 -5 2 -410 4 -900 3 -631 1 -894 -7 -903 -6 -8 -7 -16 -1
-20 12 -9 13 -20 14 -180 2 -92 -2 -137 -10 -147 -7 -8 -8 -15 -3 -15 7 0 11
-80 11 -212 0 -117 1 -352 2 -522 2 -280 1 -310 -15 -318 -12 -7 -22 -5 -36 8
-16 14 -19 15 -19 2 0 -9 7 -21 15 -28 9 -7 14 -19 11 -27 -3 -7 -1 -13 4 -13
6 0 10 9 10 20 0 11 3 20 8 20 15 -1 39 -25 35 -36 -2 -6 6 -15 19 -19 l23 -8
-23 -4 c-19 -4 -21 -7 -11 -19 6 -8 8 -14 5 -14 -4 0 -1 -7 8 -15 8 -8 18 -15
23 -15 5 0 16 -8 24 -18 9 -9 28 -27 43 -40 17 -14 25 -29 22 -39 -4 -10 -2
-13 8 -10 18 7 38 -15 75 -87 27 -50 31 -69 31 -134 0 -86 8 -91 16 -11 2 30
9 71 15 93 10 36 12 38 41 32 17 -3 82 -6 144 -6 97 0 114 -2 114 -16 0 -8 5
-12 10 -9 6 4 90 9 188 12 97 3 184 9 192 13 8 4 62 8 120 8 307 3 334 4 315
12 -11 5 -43 9 -72 9 -61 1 -83 8 -83 27 0 8 -7 14 -15 14 -8 0 -15 -7 -15
-15 0 -9 -9 -15 -22 -15 -17 0 -19 3 -10 12 7 7 12 42 12 85 0 63 2 73 18 73
9 0 62 -5 117 -10 186 -19 225 -21 225 -12 0 5 -29 10 -65 11 -35 1 -78 8 -95
15 -21 9 -59 11 -116 8 l-84 -4 0 26 0 27 63 -8 c34 -4 86 -7 115 -6 47 1 51
0 35 -13 -16 -12 -13 -13 27 -14 165 -3 376 -13 380 -19 3 -3 25 -7 50 -7 25
-1 35 0 23 3 -23 4 -33 23 -12 23 5 0 7 5 4 10 -12 19 2 10 41 -27 22 -21 73
-68 113 -106 41 -37 72 -69 70 -71 -2 -2 -62 -7 -134 -11 -206 -10 -175 -16
104 -19 l64 -1 50 -98 c27 -53 52 -95 54 -93 3 2 -12 39 -31 81 -20 43 -36 84
-36 92 0 24 35 -2 75 -57 20 -27 41 -50 47 -50 5 0 -1 14 -14 31 -59 80 -67
72 67 65 66 -3 180 -6 253 -7 l132 -1 0 -66 c0 -82 18 -72 22 13 l3 59 40 -1
c22 0 43 4 47 10 3 5 40 12 82 15 l76 4 2 -88 c0 -49 1 -95 1 -101 -1 -7 3
-13 8 -13 5 0 9 42 9 94 0 57 4 97 11 102 6 3 60 6 120 7 132 0 133 15 0 18
-108 3 -125 12 -115 65 3 19 7 187 8 374 1 264 -2 341 -11 345 -7 2 -13 10
-12 17 0 10 2 10 6 1 7 -18 23 -16 23 2 0 8 -7 15 -15 15 -8 0 -15 5 -15 10 0
6 5 10 10 10 15 0 13 97 -2 102 -13 5 -16 107 -11 438 2 80 0 163 -3 185 -3
22 -7 243 -9 490 -2 248 -7 496 -10 552 -6 94 -8 101 -25 91 -36 -23 -46 -5
-44 80 2 91 7 105 36 96 15 -4 19 -2 16 7 -3 8 -13 14 -24 14 -10 0 -17 4 -14
10 3 5 13 8 23 7 14 -3 17 4 18 35 0 44 10 126 15 132 2 2 3 -71 3 -162 1 -91
5 -207 11 -259 6 -51 10 -113 9 -138 -1 -25 -1 -244 0 -488 1 -411 8 -518 25
-375 11 94 7 963 -4 1024 -6 29 -10 104 -8 164 5 227 -1 590 -12 658 -6 41 -7
73 -2 76 14 9 17 222 13 755 -3 432 -2 478 13 473 8 -3 18 -2 21 3 4 6 1 10
-4 10 -6 0 -21 10 -33 23 -12 12 -34 31 -49 42 -15 11 -74 61 -132 110 -152
130 -198 165 -209 159 -5 -3 -2 -14 7 -24 9 -10 14 -24 10 -29 -3 -6 0 -11 7
-11 7 0 27 -13 43 -28 17 -15 52 -45 80 -67 27 -22 63 -52 80 -67 68 -60 77
-67 89 -62 7 3 21 -4 31 -16 16 -18 8 -30 -9 -13 -14 14 -67 15 -850 9 l-110
-1 -41 51 c-23 28 -77 84 -121 124 -43 40 -80 76 -82 80 -1 4 171 5 383 3 256
-3 398 0 425 7 109 29 4 39 -390 34 -146 -1 -309 -6 -363 -10 l-97 -7 0 -31
c0 -17 -5 -92 -11 -166 -13 -148 -13 -187 -8 -847 2 -249 1 -453 -3 -453 -3 0
-9 8 -12 18 -3 9 -4 -11 -2 -46 1 -34 -1 -59 -4 -55 -4 5 -21 51 -39 103 -18
52 -52 138 -76 190 -24 53 -53 127 -65 165 -44 139 -79 234 -129 346 -27 63
-75 179 -106 259 -31 80 -65 159 -76 176 -20 33 -15 52 8 32 7 -6 17 -8 21 -4
7 8 -23 29 -45 32 -24 4 -136 151 -127 166 3 5 2 7 -3 6 -10 -4 -93 85 -93 99
0 5 -14 22 -31 39 l-31 29 8 -29 c10 -42 69 -135 118 -186 24 -25 55 -62 71
-82 15 -21 35 -38 44 -39 10 0 6 -4 -9 -10 -14 -6 -37 -8 -53 -5 -15 3 -203 6
-417 6 l-390 1 -39 45 c-21 24 -46 60 -55 78 -9 18 -34 55 -56 82 -22 27 -40
53 -40 59 0 7 41 8 123 3 232 -12 708 -15 704 -4 -2 6 -39 14 -83 17 -78 6
-557 19 -726 19 l-86 0 -31 42 c-17 23 -31 38 -31 32z m2046 -411 c-3 -7 -1
-15 4 -18 5 -3 7 -27 4 -53 -3 -26 -7 -81 -9 -122 -1 -41 -3 -76 -4 -77 -5 -9
-1 -434 3 -454 11 -45 -8 -372 -21 -377 -9 -2 -13 11 -13 47 0 60 -14 76 -17
18 -1 -22 -4 -51 -7 -63 -5 -19 -2 -23 21 -26 l28 -3 -1 -85 c-1 -112 -5 -130
-26 -130 -16 0 -20 -7 -20 -30 0 -3 3 -16 7 -30 7 -24 6 -24 -8 -5 -13 18 -31
127 -41 245 -2 25 -6 57 -8 73 -6 31 8 37 17 7 4 -11 11 -18 16 -15 5 4 5 13
0 23 -22 44 -36 75 -37 86 0 6 -2 19 -2 29 -1 10 -6 16 -11 13 -5 -3 -7 -37
-4 -76 3 -54 1 -70 -9 -70 -10 0 -10 -2 -1 -8 7 -5 14 -20 15 -34 1 -15 6 -24
10 -22 4 3 8 -1 8 -10 0 -8 -5 -16 -10 -18 -7 -2 -5 -21 4 -53 17 -54 16 -58
-7 -49 -21 8 -31 36 -15 45 9 6 9 11 -2 24 -7 9 -15 26 -16 38 -2 12 -7 43
-12 70 -9 43 -2 64 12 35 3 -7 3 1 0 17 -3 17 -8 55 -10 85 -8 116 -16 149
-32 123 -8 -12 -7 -59 2 -248 5 -94 3 -116 -6 -100 -6 11 -13 49 -14 85 -3 80
-2 78 -15 60 -9 -12 -10 -12 -5 3 3 10 6 25 6 33 0 9 4 13 8 10 5 -3 4 23 0
57 -8 54 -11 260 -18 1002 -1 99 -1 184 -1 189 1 5 55 -44 121 -110 66 -65
118 -124 116 -131z m-1746 -5 c0 -9 -5 -20 -10 -23 -6 -4 -7 -11 -4 -17 4 -6
6 -155 5 -332 -1 -176 -4 -964 -6 -1751 -3 -786 -7 -1461 -10 -1500 -4 -50
-10 -74 -23 -83 -16 -12 -16 -14 1 -23 20 -11 23 -39 5 -39 -9 0 -9 -3 1 -9
12 -8 13 -14 2 -38 -10 -21 -10 -28 -1 -31 9 -3 9 -7 -1 -14 -11 -7 -11 -11
-1 -15 6 -2 12 -17 11 -31 0 -16 -3 -21 -6 -12 -3 8 -11 18 -16 22 -6 3 -10
33 -8 65 1 36 -3 65 -11 76 -12 16 -14 -6 -15 -150 -1 -92 -3 -196 -3 -229 -1
-34 1 -71 4 -82 4 -11 2 -23 -4 -27 -5 -3 -11 -3 -11 2 -4 20 -9 119 -13 233
-3 69 -9 154 -15 190 -13 81 -13 90 -1 90 6 0 11 -10 11 -22 1 -17 2 -19 6 -6
2 10 -3 32 -11 50 -20 38 -20 42 -1 34 8 -3 15 -1 15 3 0 5 -7 11 -15 15 -9 3
-15 19 -15 41 0 19 -4 35 -8 35 -8 0 -8 -98 1 -385 6 -184 -7 -196 -16 -15 -3
52 -8 138 -11 190 -4 52 -8 187 -9 300 -2 171 0 207 13 218 13 12 13 13 0 6
-13 -7 -13 -6 0 11 11 14 12 19 3 22 -19 7 -16 23 5 24 10 0 12 3 5 6 -7 2
-13 9 -13 15 0 6 8 7 17 4 14 -6 14 -3 -3 16 -10 13 -23 26 -28 29 -4 4 -3 10
3 13 17 11 13 26 -6 27 -13 0 -14 2 -4 6 11 5 11 7 0 14 -10 6 -10 9 -2 9 10
0 10 6 1 25 -6 14 -15 25 -19 25 -4 0 -7 9 -6 20 2 26 17 26 17 1 0 -31 16
-33 29 -5 8 19 8 23 0 18 -8 -5 -10 4 -7 29 2 20 1 34 -3 32 -3 -3 -6 9 -7 26
0 16 3 27 8 24 4 -3 3 6 -3 19 -16 33 -24 25 -21 -19 2 -20 0 -34 -4 -31 -5 3
-8 33 -8 68 1 59 2 63 24 60 23 -3 28 11 15 43 -5 15 -8 14 -19 -6 -9 -16 -14
-19 -15 -9 -5 59 -8 122 -14 415 -11 483 -11 1361 -1 1505 11 161 13 771 3
918 -5 71 -4 113 2 110 5 -1 41 -45 79 -97 l70 -94 0 -156 c0 -221 1 -251 10
-251 4 0 8 93 9 208 l1 207 -30 47 c-16 25 -36 52 -44 59 -8 6 -33 35 -56 63
-24 29 6 3 70 -59 62 -60 112 -118 112 -127z m916 -8 c7 -14 15 -43 18 -65 l7
-40 -37 52 c-21 29 -39 51 -42 49 -2 -2 22 -47 53 -100 62 -107 111 -208 160
-338 19 -47 38 -94 44 -105 10 -16 32 -69 36 -83 3 -14 48 -130 64 -165 10
-22 28 -63 41 -91 12 -29 19 -57 16 -63 -4 -6 -2 -11 5 -11 7 0 9 -3 6 -7 -4
-3 0 -15 10 -25 9 -10 13 -18 9 -18 -3 0 2 -17 13 -37 10 -21 48 -129 84 -240
36 -111 81 -239 100 -285 19 -46 49 -130 68 -188 65 -208 249 -607 249 -540 0
6 4 9 9 6 8 -6 -22 105 -35 126 -6 9 -9 104 -17 546 -2 81 1 142 6 142 5 0 4
7 -3 15 -9 10 -9 23 -2 43 6 17 6 35 1 44 -5 9 -7 31 -4 49 8 63 16 394 19
867 2 260 5 474 7 476 2 2 33 1 69 -3 36 -3 179 -2 318 3 139 4 256 5 260 1
12 -11 19 -1826 14 -3602 -1 -440 0 -807 3 -815 3 -7 6 -96 8 -198 l4 -185
-226 2 c-124 2 -254 6 -288 9 -58 5 -63 7 -63 30 0 32 35 33 45 2 6 -20 8 -20
12 -5 2 9 9 17 15 17 15 0 0 14 -15 16 -35 3 -44 6 -63 22 -12 10 -25 28 -28
40 -6 18 -3 22 14 22 12 0 18 5 15 10 -3 6 -14 10 -24 10 -21 0 -44 42 -72
130 -38 119 -87 247 -107 282 -12 21 -42 97 -67 170 -25 73 -50 142 -55 153
-5 11 -19 48 -30 83 -26 80 -73 197 -111 279 -16 35 -27 68 -24 72 4 8 -7 40
-50 136 -7 17 -19 50 -25 74 -6 25 -28 79 -47 120 -44 94 -67 153 -151 387
-39 108 -101 271 -119 314 -30 67 -63 173 -57 181 3 5 1 9 -4 9 -5 0 -8 10 -7
23 1 13 0 14 -2 4 -5 -22 -24 -18 -38 9 -12 23 -65 76 -65 65 0 -4 11 -20 25
-35 13 -14 21 -26 17 -26 -4 -1 3 -9 16 -20 13 -11 21 -24 17 -30 -5 -8 -11
-7 -21 1 -22 18 -27 4 -9 -25 14 -21 16 -42 11 -118 -3 -51 -5 -280 -4 -508 3
-660 2 -809 -13 -1730 0 -8 3 -37 6 -65 3 -27 7 -58 8 -68 2 -19 0 -19 -749
-17 l-111 0 -7 50 c-4 27 -6 449 -5 937 0 488 2 1528 2 2310 1 782 5 1425 9
1429 8 7 21 8 185 18 54 4 134 11 178 16 44 5 168 12 275 15 107 4 197 9 200
11 11 11 36 -3 46 -26z m1781 -977 c0 -32 -4 -61 -9 -64 -11 -7 6 -55 18 -51
15 5 22 -37 23 -130 1 -53 -3 -88 -9 -88 -5 0 -10 -10 -10 -21 0 -19 -2 -20
-17 -8 -15 12 -16 12 -10 -3 3 -10 2 -20 -3 -23 -6 -4 -10 3 -10 14 0 12 -4
21 -10 21 -5 0 -10 -13 -10 -29 0 -16 -3 -37 -7 -47 -4 -12 -3 -15 5 -10 17
10 15 -4 -4 -25 -10 -11 -12 -19 -5 -24 6 -3 11 2 11 12 0 13 2 15 9 5 10 -16
2 -62 -11 -62 -5 0 -6 -4 -3 -10 7 -12 16 -230 10 -240 -8 -13 -45 1 -45 16 0
17 17 18 23 2 3 -8 6 -6 6 5 1 10 -6 17 -18 17 -16 0 -18 9 -20 73 -1 39 4
108 10 152 6 44 12 88 13 97 1 10 5 21 9 24 4 4 7 16 7 26 0 20 -25 25 -36 7
-4 -8 -9 -7 -16 2 -6 10 -7 7 -3 -8 5 -17 2 -23 -10 -23 -11 0 -15 5 -12 15 4
8 0 27 -8 42 -10 18 -15 58 -15 111 0 81 1 83 23 80 21 -3 22 -8 23 -88 1 -47
6 -86 12 -88 6 -2 9 42 8 123 -2 118 4 156 18 120 3 -8 1 -15 -4 -15 -5 0 -7
-7 -3 -16 3 -10 13 -14 26 -10 19 5 19 1 13 -112 -3 -74 -2 -106 3 -87 8 24
21 229 23 348 1 53 14 26 15 -30z m-77 -1293 c-9 -6 -8 -15 3 -36 19 -38 29
-277 11 -270 -8 3 -10 -3 -6 -16 4 -15 7 -17 14 -6 5 8 8 -7 7 -42 -2 -66 8
-95 26 -80 6 5 15 6 20 2 4 -4 5 5 1 20 -7 32 9 47 18 15 10 -38 7 -47 -17
-47 -39 0 -47 -18 -47 -106 0 -105 4 -115 41 -107 22 4 29 2 29 -10 0 -18 -27
-30 -35 -17 -7 12 -26 13 -24 3 4 -25 -3 -35 -21 -30 -16 4 -20 0 -20 -19 0
-13 3 -24 8 -24 10 0 32 -50 32 -71 0 -10 -4 -20 -9 -23 -11 -7 -33 18 -24 27
3 4 1 12 -4 19 -18 22 -25 100 -11 110 10 5 8 8 -5 8 -10 0 -16 4 -12 9 8 15
16 182 9 214 -3 15 -13 27 -22 28 -15 1 -15 2 -1 6 9 2 19 18 23 34 3 17 10
28 15 25 5 -3 11 1 15 9 3 8 1 17 -4 20 -4 3 -10 -1 -13 -7 -5 -14 -6 6 -9
194 -2 109 -3 117 -22 122 -20 6 -20 7 -3 17 11 7 16 17 12 29 -5 15 -2 17 15
13 14 -4 18 -8 10 -13z m-1645 -705 c15 -44 45 -120 67 -170 22 -49 45 -108
50 -130 6 -22 15 -45 20 -52 9 -11 39 -90 98 -258 36 -104 124 -342 156 -423
14 -35 23 -70 20 -77 -2 -7 4 -29 15 -49 16 -31 49 -111 105 -260 8 -21 12
-41 10 -44 -3 -3 -24 15 -47 39 -42 44 -42 44 -14 5 20 -28 24 -40 15 -46 -17
-10 3 -22 25 -14 11 5 31 -9 66 -47 27 -29 49 -57 49 -61 0 -13 -27 -9 -42 5
-22 22 -90 29 -333 32 -126 3 -244 7 -262 10 l-32 6 -2 647 c-1 356 -3 670 -4
697 -2 71 -6 278 -5 290 1 17 16 -17 45 -100z m341 -440 c-3 -8 3 -23 12 -32
20 -19 72 -132 72 -154 0 -8 20 -56 45 -107 48 -100 50 -107 35 -97 -6 3 -7
-1 -4 -9 3 -9 10 -16 15 -16 4 0 6 -6 3 -13 -2 -7 4 -22 14 -33 11 -11 25 -37
31 -57 7 -20 16 -39 21 -42 5 -3 6 -15 1 -27 -5 -14 -2 -32 7 -50 8 -16 11
-32 8 -35 -9 -10 -34 28 -42 62 -3 17 -20 56 -36 88 -16 32 -40 90 -54 130
-14 40 -41 106 -60 148 -18 42 -35 84 -37 95 -5 23 -14 47 -38 100 -23 49 -24
64 -3 64 10 0 14 -6 10 -15z m1320 -101 c-3 -7 -1 -16 4 -19 6 -4 10 2 11 12
0 16 1 16 9 -2 13 -30 12 -35 -7 -28 -16 6 -17 5 -2 -9 10 -10 27 -14 47 -12
l32 4 0 -74 c0 -53 -4 -77 -15 -86 -28 -23 -45 5 -45 76 0 67 -13 86 -24 33
-15 -75 1 -142 31 -132 6 2 14 -1 18 -6 3 -6 -1 -11 -9 -11 -15 0 -21 -12 -16
-35 1 -5 -8 0 -20 13 -12 13 -26 19 -33 15 -7 -4 -5 2 3 12 8 10 10 16 4 12
-12 -7 -29 37 -20 52 3 4 6 53 8 108 1 80 5 100 16 96 7 -3 11 -12 8 -19z
m-2843 -227 c3 -26 1 -77 -2 -112 -4 -36 -4 -65 1 -65 4 0 5 -19 3 -42 -12
-95 -5 -391 11 -487 5 -30 4 -33 -10 -22 -8 7 -18 26 -22 43 -9 46 -12 708 -2
708 4 0 7 3 7 8 -2 13 1 25 6 21 2 -3 6 -26 8 -52z"/>
<path d="M16742 6388 l3 -113 46 -3 c72 -5 80 10 77 127 l-3 96 -63 3 -63 3 3
-113z m101 80 c-2 -5 -3 -46 -3 -93 l0 -85 -40 0 -40 0 0 96 0 95 43 -3 c23
-2 41 -6 40 -10z"/>
<path d="M16763 5703 c-22 -4 -23 -8 -23 -113 l0 -109 33 -6 c17 -3 46 -2 62
3 l30 8 0 103 c1 99 0 103 -23 112 -24 9 -40 10 -79 2z"/>
<path d="M16957 5703 l-28 -4 3 -107 3 -106 34 -9 c22 -5 43 -4 62 4 l29 11 0
104 c0 92 -2 104 -17 104 -10 0 -27 2 -38 4 -11 2 -33 1 -48 -1z m83 -118 l0
-95 -40 0 c-39 0 -40 1 -42 38 -5 101 -5 138 -1 145 2 4 22 7 44 7 l39 0 0
-95z"/>
<path d="M17154 5700 c-23 -9 -34 -59 -34 -151 0 -56 18 -79 61 -79 64 0 69
10 69 124 l0 104 -31 6 c-37 7 -38 7 -65 -4z m69 -19 c4 -1 7 -44 7 -97 l0
-95 -37 3 -38 3 -3 84 c-4 104 0 113 35 107 16 -2 31 -5 36 -5z"/>
<path d="M16764 5273 c-28 -5 -32 -22 -27 -108 6 -116 5 -115 68 -115 l55 0 0
109 c0 104 -1 109 -22 115 -24 6 -39 6 -74 -1z m76 -119 l0 -95 -42 3 -43 3 2
40 c1 22 2 64 2 93 l1 52 40 0 40 0 0 -96z"/>
<path d="M16943 5273 c-9 -3 -13 -36 -13 -113 l0 -108 31 -4 c18 -3 46 -2 63
1 l31 7 3 99 c2 85 0 102 -15 112 -17 13 -76 16 -100 6z"/>
<path d="M17164 5273 c-28 -5 -34 -28 -34 -136 l0 -88 58 3 57 3 3 103 c3 102
3 102 -23 112 -15 6 -29 9 -33 9 -4 -1 -17 -4 -28 -6z"/>
<path d="M16757 4843 c-16 -4 -18 -15 -15 -108 l3 -104 33 -6 c36 -7 73 1 84
19 4 6 8 52 8 102 0 75 -3 93 -16 98 -17 7 -69 6 -97 -1z"/>
<path d="M16771 4441 c-10 -6 -14 -36 -15 -107 -1 -97 -1 -98 25 -108 14 -5
42 -6 61 -2 l35 6 -1 109 -1 108 -45 1 c-25 1 -51 -2 -59 -7z"/>
<path d="M16956 4435 c-13 -13 -16 -37 -16 -116 l0 -99 43 0 c89 0 88 -1 85
118 l-3 105 -46 4 c-34 3 -51 0 -63 -12z m84 -105 l0 -100 -40 0 -40 0 0 94
c0 100 2 104 53 105 l27 1 0 -100z"/>
<path d="M16973 4020 c-13 -5 -23 -13 -24 -17 0 -4 -1 -50 -2 -101 l-2 -92 32
-6 c17 -3 45 -3 61 1 l30 6 -5 97 c-3 53 -8 100 -12 104 -12 13 -56 17 -78 8z"/>
<path d="M16990 3641 l-35 -6 -7 -90 c-5 -51 -4 -93 1 -98 16 -16 75 -23 98
-12 21 9 23 16 23 102 0 110 -5 115 -80 104z"/>
<path d="M16755 3631 c-8 -7 -5 -175 3 -187 14 -22 69 -26 96 -9 22 14 25 23
21 58 -2 23 0 58 4 78 5 20 5 42 1 48 -6 11 -116 22 -125 12z"/>
<path d="M17148 3628 c-2 -7 -4 -51 -4 -98 l1 -85 32 -3 c64 -6 73 8 73 108
l0 90 -49 0 c-30 0 -50 -5 -53 -12z"/>
<path d="M4773 7970 c-9 -31 -13 -35 -39 -31 -37 6 -449 6 -794 2 l-265 -4
175 -8 c96 -5 266 -14 376 -20 185 -11 300 -9 443 8 42 4 53 3 49 -7 -2 -8
-13 -18 -23 -24 -11 -6 -24 -16 -30 -22 -5 -6 -37 -31 -70 -54 -33 -24 -82
-63 -110 -88 -27 -25 -66 -59 -85 -76 l-35 -31 -238 3 c-138 2 -235 8 -231 13
3 5 52 9 110 9 68 0 104 4 104 11 0 17 -269 7 -280 -11 -7 -11 -11 -10 -24 3
-13 13 -31 15 -89 11 -85 -7 -100 -10 -92 -24 3 -5 0 -10 -7 -10 -7 -1 -37 -3
-65 -6 -29 -2 -53 -2 -53 0 0 2 69 50 153 106 174 117 245 172 229 178 -15 5
-88 -40 -293 -179 -90 -61 -175 -116 -189 -122 l-25 -11 27 -3 c34 -5 36 -18
36 -363 -1 -151 3 -413 7 -582 8 -303 7 -308 -12 -308 -11 0 -28 -8 -37 -19
-23 -26 -61 -32 -158 -24 -79 6 -85 8 -115 42 -29 31 -36 34 -59 25 -30 -10
-60 -49 -46 -58 5 -3 22 4 37 15 24 20 28 20 43 6 20 -21 17 -23 -40 -30 -35
-5 -48 -3 -48 6 0 6 -2 266 -6 577 -3 311 -2 573 1 583 4 9 11 15 15 12 9 -6
5 235 -5 324 -3 30 -3 71 0 93 6 34 10 38 36 38 16 0 29 5 29 11 0 8 -17 9
-52 5 -29 -3 -215 -8 -413 -11 -510 -8 -486 -5 -570 -71 -60 -46 -216 -135
-226 -128 -5 3 -8 0 -7 -6 3 -11 -101 -76 -106 -68 -2 2 -10 14 -19 28 l-17
24 0 -26 c0 -16 -9 -33 -22 -42 l-22 -16 21 0 c19 0 21 -3 12 -33 -5 -18 -6
-44 -3 -57 2 -14 7 -106 10 -205 3 -99 9 -281 14 -405 5 -124 7 -268 5 -320
-2 -52 -7 -167 -10 -255 -3 -88 -8 -185 -12 -215 -3 -30 -5 -59 -3 -65 1 -5 4
-107 7 -225 2 -118 7 -271 12 -340 9 -127 6 -1049 -4 -1195 -6 -91 25 -387 56
-530 29 -135 124 -349 211 -477 21 -32 36 -58 32 -58 -3 0 -45 37 -92 83 -135
129 -57 39 120 -140 93 -94 190 -182 231 -210 39 -26 76 -51 81 -55 5 -3 11
-40 13 -82 4 -72 2 -77 -19 -86 -15 -6 53 -9 197 -9 131 -1 234 -5 255 -12 47
-15 710 -24 710 -9 0 6 -29 10 -71 10 -44 0 -68 4 -64 10 4 6 -13 10 -44 10
-28 0 -51 4 -51 10 0 5 51 9 123 9 67 0 145 1 174 3 28 2 49 0 46 -4 -2 -5 0
-8 6 -8 5 0 18 -3 28 -7 17 -7 17 -6 0 11 -10 10 -16 21 -13 23 2 3 73 11 157
18 90 8 155 18 157 24 2 6 13 11 23 11 11 0 17 5 14 10 -9 15 -34 12 -51 -5
-17 -17 -44 -20 -44 -6 0 5 8 12 18 14 9 3 1 5 -18 6 -23 0 -30 -2 -21 -8 9
-6 10 -10 2 -16 -7 -4 -19 -1 -27 6 -12 9 -21 8 -47 -6 -18 -9 -40 -16 -49
-14 -9 2 44 33 118 67 75 35 138 61 141 58 4 -3 7 -44 8 -90 l3 -84 -163 1
c-127 2 -162 0 -158 -10 6 -14 23 -16 168 -18 63 -1 116 4 143 13 32 11 47 11
55 3 15 -15 35 -14 52 1 38 34 47 39 61 34 9 -3 12 -1 9 4 -18 29 33 82 58 62
7 -6 70 -11 141 -11 123 -1 153 4 90 15 -16 3 -36 12 -44 21 -16 17 -13 16 35
-3 9 -4 17 1 21 10 3 9 11 16 16 16 6 0 8 -6 5 -14 -8 -20 10 -24 60 -12 54
12 56 23 2 18 -22 -3 -46 1 -52 7 -6 6 -21 11 -33 11 -31 0 -39 16 -12 24 17
4 20 8 11 17 -8 8 -27 9 -60 4 -26 -5 -86 -9 -132 -9 -58 -1 -86 -5 -88 -14
-3 -7 1 -10 11 -6 9 3 16 1 16 -6 0 -6 -8 -10 -17 -8 -10 1 -24 -1 -30 -5 -8
-5 -13 -3 -13 6 0 8 -12 27 -27 42 l-28 28 35 -8 c44 -11 348 -10 415 0 28 4
62 7 78 6 15 -1 27 3 27 8 0 6 -33 9 -78 7 -86 -3 -140 7 -87 17 17 3 84 5
149 6 142 1 170 11 35 12 -52 1 -134 3 -184 6 -49 2 -116 5 -147 6 -32 0 -58
4 -58 7 0 4 32 10 72 14 53 5 74 3 80 -6 6 -10 8 -10 8 1 0 8 6 11 18 6 23 -9
121 -12 116 -4 -5 9 27 21 35 14 3 -3 0 -9 -6 -13 -6 -4 25 -8 68 -9 43 -1 79
3 79 8 0 5 -10 9 -22 9 -12 0 -18 3 -15 6 4 4 32 7 62 7 74 0 67 21 -8 23 -31
1 -107 5 -168 9 -172 10 -307 12 -384 5 -38 -4 -72 -5 -74 -4 -7 6 166 174
178 174 6 0 11 5 11 11 0 5 36 47 79 92 96 100 122 132 113 141 -3 4 2 4 13 0
15 -6 17 -4 12 10 -4 9 -3 15 2 12 11 -7 36 22 27 31 -3 3 -6 1 -6 -5 0 -7 -5
-12 -10 -12 -7 0 -7 7 0 20 6 11 15 18 21 15 5 -4 9 -3 8 2 -4 22 2 34 14 27
6 -4 9 -3 5 1 -5 5 3 28 17 51 34 57 91 207 116 303 38 145 77 306 85 356 4
28 9 57 10 65 14 83 13 89 -4 99 -9 6 -11 11 -4 11 16 0 16 27 0 33 -8 3 -5 6
5 6 12 1 16 5 10 13 -4 7 -6 25 -4 40 1 16 -1 28 -6 28 -4 0 -8 62 -9 137 -4
533 -14 1318 -18 1368 -2 33 0 68 5 77 6 12 6 18 0 18 -11 0 -8 200 3 219 4 6
3 11 -2 11 -4 0 -8 144 -8 320 -1 263 2 320 13 316 9 -4 13 3 13 19 0 26 -15
34 -23 13 -3 -7 -5 6 -5 30 1 24 5 45 9 48 6 4 4 295 -3 424 -1 8 0 60 0 115
l2 100 31 18 c17 9 43 17 57 18 l27 1 -28 8 c-19 6 -36 4 -55 -6 -36 -18 -44
-18 -38 4 2 9 1 35 -3 57 l-8 40 -10 -35z m-1783 -59 c0 -10 -53 -52 -115 -92
-22 -14 -67 -49 -100 -78 -93 -82 -89 -81 -227 -86 -69 -3 -136 -9 -149 -15
-25 -11 -14 -10 155 6 56 5 68 4 64 -7 -5 -16 -116 -26 -309 -28 -85 -1 -129
3 -137 11 -9 9 -12 9 -12 0 0 -14 -53 -28 -137 -37 -35 -4 -63 -12 -63 -17 0
-6 10 -8 23 -4 12 3 157 6 322 6 l300 2 2 -292 c0 -160 2 -380 3 -488 2 -108
2 -266 2 -351 -1 -84 1 -157 3 -162 3 -4 1 -26 -4 -48 -6 -29 -6 -41 3 -42 7
0 7 -2 -1 -6 -7 -2 -13 -11 -13 -18 0 -7 -26 -27 -57 -45 l-56 -32 -55 18 -54
19 -30 -34 c-27 -30 -30 -39 -25 -76 6 -42 5 -43 -62 -109 -65 -62 -72 -66
-115 -66 -58 0 -71 -20 -61 -95 6 -52 5 -54 -60 -154 -42 -65 -72 -101 -83
-101 -10 0 -28 -7 -40 -16 -26 -18 -30 -75 -7 -94 18 -15 19 -48 4 -87 -7 -15
-21 -61 -33 -102 -19 -67 -24 -75 -51 -83 -34 -9 -55 -32 -55 -62 0 -19 1 -19
23 2 35 33 47 28 47 -19 0 -38 -2 -41 -22 -36 -13 2 -31 8 -40 12 -30 12 -21
-15 17 -51 l35 -33 0 -125 c0 -113 -2 -125 -19 -131 -21 -6 -31 -33 -31 -82 0
-33 18 -58 49 -68 14 -4 23 -22 32 -63 6 -31 20 -83 30 -115 11 -31 19 -66 19
-78 0 -12 9 -34 21 -50 20 -28 20 -31 5 -48 -9 -10 -19 -41 -23 -69 -6 -50 -5
-52 23 -63 16 -6 43 -8 60 -6 17 3 35 2 40 -1 6 -4 36 -43 69 -87 32 -44 68
-88 79 -97 17 -14 18 -18 5 -18 -18 0 -44 -52 -41 -84 3 -50 82 -72 140 -39
29 17 29 17 91 -28 114 -80 114 -81 102 -112 -17 -43 -13 -62 15 -91 18 -17
38 -26 58 -26 36 0 76 24 76 46 0 8 6 14 13 14 25 0 87 -21 87 -30 0 -4 -22
-80 -50 -167 -27 -87 -58 -192 -68 -233 l-19 -75 -69 -5 c-59 -4 -69 -8 -69
-24 0 -10 -7 -23 -16 -29 -18 -11 -56 11 -128 78 -34 32 -41 35 -31 15 15 -29
-118 88 -184 161 -163 181 -281 435 -321 687 -8 53 -20 119 -26 145 -12 53 -6
74 11 36 10 -22 10 -22 5 6 -3 17 -10 55 -17 85 -12 57 -13 187 -8 910 2 236
-2 461 -9 560 -7 92 -11 306 -9 485 5 532 3 864 -4 1187 -6 240 -5 309 5 315
6 4 105 6 220 5 132 -2 207 0 207 6 0 13 -77 19 -233 18 -70 -1 -127 2 -127 5
0 7 142 99 218 141 31 17 73 46 92 64 l35 32 305 5 c168 3 323 8 345 11 22 3
69 8 104 10 35 3 66 8 69 11 9 8 42 6 42 -4z m-15 -208 c-3 -82 -8 -213 -12
-293 -4 -80 -7 -160 -6 -179 1 -19 -2 -42 -7 -52 -7 -12 -6 -19 2 -21 9 -3 12
-119 12 -449 l1 -444 -28 -3 -29 -4 7 82 c5 64 4 81 -6 75 -8 -6 -10 -4 -4 5
10 17 14 161 4 154 -4 -2 -7 -19 -7 -38 0 -19 -3 -44 -7 -55 -5 -18 -10 -20
-21 -10 -10 8 -14 9 -14 0 0 -6 7 -14 16 -18 10 -3 13 -11 8 -22 -10 -22 -5
-141 7 -163 8 -14 5 -18 -13 -22 -68 -14 -79 -13 -89 6 -6 10 -20 23 -32 27
-21 8 -22 15 -21 107 0 55 3 122 6 149 3 28 3 35 1 18 -2 -18 -8 -33 -14 -33
-5 0 -9 -52 -9 -120 0 -73 -4 -120 -10 -120 -14 0 -13 297 0 305 7 5 8 11 1
18 -15 19 -5 688 11 699 10 6 10 8 -1 8 -10 0 -12 10 -7 43 4 23 9 89 12 146
l5 104 37 34 c20 18 39 33 42 33 12 0 140 132 140 144 0 11 19 36 27 36 2 0 1
-66 -2 -147z m1789 85 c-1 -18 -6 -58 -10 -88 -4 -30 -7 -59 -5 -64 1 -4 1
-135 1 -290 -1 -154 -1 -299 -1 -321 2 -101 10 -1354 9 -1470 0 -71 0 -145 0
-163 0 -19 -6 -36 -14 -39 -20 -7 -17 -23 4 -23 14 0 15 -2 2 -10 -9 -6 -11
-13 -5 -17 6 -5 11 -61 12 -128 0 -66 4 -171 8 -234 5 -93 4 -112 -7 -106 -10
6 -11 5 0 -6 13 -14 17 -33 4 -25 -12 7 -12 -37 0 -52 16 -18 21 -82 8 -82 -7
0 -9 8 -5 20 3 11 2 20 -3 20 -5 0 -12 -55 -15 -122 -3 -66 -11 -126 -17 -132
-7 -7 -10 1 -11 24 -1 19 -3 52 -4 73 -1 20 2 40 6 43 5 3 7 10 4 15 -15 24
-21 2 -23 -83 -1 -51 -4 -118 -6 -148 -2 -31 0 -46 4 -35 4 11 5 -9 3 -45 -3
-56 -12 -250 -13 -288 0 -8 -5 -10 -12 -6 -7 5 -9 2 -5 -8 12 -33 -64 -255
-94 -274 -13 -7 -11 -1 6 32 18 35 19 54 3 54 -6 0 -4 7 5 18 10 10 17 24 17
30 0 7 5 12 10 12 6 0 10 11 10 24 0 14 5 28 10 31 6 3 10 11 10 16 0 6 -4 7
-10 4 -6 -4 -6 3 0 21 6 15 8 29 5 32 -3 3 -5 1 -5 -4 0 -6 -7 -19 -16 -30
-15 -19 -16 -19 -9 1 11 30 26 88 27 103 1 6 6 12 11 12 5 0 7 -7 3 -15 -3 -8
-1 -15 4 -15 13 0 13 47 0 55 -5 3 -10 0 -10 -7 0 -7 -6 -3 -14 8 -15 21 -10
78 6 68 5 -3 8 0 7 7 -2 8 3 25 10 38 9 17 10 26 2 34 -8 8 -11 7 -11 -3 0 -7
-3 -10 -6 -7 -4 4 -2 12 3 19 13 17 23 58 14 58 -4 0 -12 -12 -17 -27 -10 -25
-10 -23 -7 17 1 25 6 66 9 91 4 30 2 49 -5 53 -6 4 -12 37 -12 74 -1 48 -3 58
-8 37 -4 -16 -3 -57 2 -90 6 -40 6 -75 -2 -105 -6 -25 -10 -67 -9 -93 2 -33
-2 -51 -12 -57 -10 -7 -11 -10 -2 -10 6 0 12 -7 12 -16 0 -8 -4 -12 -10 -9 -5
3 -10 0 -10 -9 0 -8 4 -16 10 -18 6 -2 6 -8 0 -18 -8 -13 -10 -12 -10 3 0 9
-4 17 -9 17 -6 0 -6 -12 0 -32 5 -17 6 -34 4 -37 -3 -2 -5 1 -5 7 0 7 -7 12
-16 12 -8 0 -13 -4 -10 -8 2 -4 1 -14 -3 -21 -15 -23 -20 4 -7 34 23 54 36
101 37 136 0 24 2 29 8 16 4 -11 7 4 7 36 0 30 5 61 12 70 9 10 10 25 3 53
l-9 39 -1 -41 c-1 -23 -8 -58 -16 -78 -9 -20 -13 -42 -9 -49 5 -9 4 -9 -5 -1
-7 6 -15 31 -18 54 -5 38 -4 42 10 37 22 -8 22 2 0 18 -16 12 -9 40 8 30 5 -4
9 -1 9 4 0 6 -4 11 -10 11 -17 0 -11 25 10 37 16 11 19 23 18 73 -1 49 -6 64
-25 82 -23 21 -32 72 -14 82 4 3 6 17 3 31 -2 14 0 25 7 25 6 0 8 7 4 17 -4
10 -2 14 4 10 7 -4 9 0 7 10 -2 10 0 25 6 33 9 13 11 13 20 0 8 -13 10 -12 11
5 1 11 0 25 -1 30 -1 6 -2 34 -1 63 1 39 -2 52 -13 52 -8 0 -17 15 -21 38 -7
36 -7 36 -17 12 -10 -24 -10 -24 -18 -5 -11 27 -12 37 -1 31 4 -3 0 25 -10 62
-11 37 -17 71 -15 77 2 5 6 3 9 -5 3 -8 14 -40 25 -70 19 -51 21 -53 21 -22 1
18 -4 43 -10 54 -6 12 -13 40 -14 62 -6 75 -38 190 -47 166 -8 -21 -29 0 -32
33 -2 17 1 24 10 20 9 -3 11 2 7 17 -4 16 -8 18 -14 8 -7 -10 -9 -9 -9 4 0 9
4 18 8 20 5 2 6 37 4 78 -4 54 -7 68 -13 50 -4 -15 -8 13 -9 75 -1 55 -3 114
-5 130 -7 88 -28 834 -27 975 0 52 1 237 2 411 l1 317 27 11 c15 7 50 32 77
56 28 25 52 45 55 45 3 0 6 9 7 21 2 16 -11 9 -63 -36 -35 -31 -64 -53 -64
-49 0 4 -10 -1 -21 -12 -15 -13 -20 -14 -17 -5 2 8 13 19 24 25 22 13 135 106
146 121 5 6 8 5 8 -2 0 -7 5 -13 11 -13 6 0 9 7 5 15 -3 8 -2 14 2 12 4 -1 8
2 9 7 1 5 20 18 41 29 22 11 38 25 36 32 -5 11 35 36 47 29 3 -1 4 -18 3 -36z
m-811 -205 c7 -5 -9 -11 -38 -14 -27 -4 4 -4 70 -1 128 5 364 -5 383 -17 8 -5
13 -177 17 -611 8 -967 15 -1292 31 -1430 l5 -45 -23 40 c-17 31 -22 58 -24
118 -1 87 -18 117 -64 117 -15 0 -39 9 -53 20 -37 30 -100 119 -103 147 -3 28
-35 82 -63 107 -16 15 -29 17 -63 12 -39 -6 -49 -3 -92 28 -32 23 -55 49 -71
82 -32 69 -66 99 -102 89 -95 -27 -198 1 -240 64 -22 33 -23 43 -25 265 0 127
-3 242 -5 256 -1 14 -5 131 -9 260 -7 307 -19 477 -34 495 -10 12 -9 16 1 20
38 14 480 12 502 -2z m-983 -1376 c0 -7 -7 -37 -16 -66 -12 -40 -19 -51 -31
-47 -8 4 -21 2 -28 -4 -8 -7 -26 0 -61 21 -62 39 -59 36 -45 53 17 20 79 30
97 15 11 -9 14 -8 14 3 0 15 33 36 58 37 6 1 12 -5 12 -12z m229 -56 c24 -22
49 -37 55 -34 6 3 25 16 42 29 51 37 103 64 109 55 2 -5 -2 -14 -10 -21 -8 -7
-15 -20 -14 -29 0 -11 3 -10 11 7 6 12 17 22 24 22 7 0 14 6 17 13 8 22 14 3
20 -67 l6 -68 -27 7 c-15 4 -52 8 -82 11 -45 3 -225 13 -252 14 -5 0 -8 16 -8
35 0 46 -15 46 -16 0 -1 -42 -1 -42 -44 -47 -31 -3 -35 0 -36 22 -1 69 41 116
77 84 17 -15 19 -15 19 -1 0 18 28 27 50 16 8 -4 35 -26 59 -48z m399 17 c47
-12 62 -26 41 -39 -8 -5 -11 -9 -6 -9 4 0 17 6 28 13 17 10 23 9 38 -9 9 -12
32 -25 51 -29 26 -6 170 -83 189 -101 10 -10 -13 -16 -115 -28 l-109 -14 -40
26 c-22 14 -51 26 -65 27 -36 3 -112 44 -107 58 2 7 14 13 28 15 25 3 89 30
89 37 0 8 -75 -9 -81 -18 -4 -5 -14 -7 -23 -4 -11 5 -16 19 -16 52 0 51 -6 49
98 23z m-978 -122 c0 -81 -13 -104 -86 -160 -32 -24 -72 -58 -88 -75 -17 -17
-34 -31 -39 -31 -25 0 -147 -151 -195 -242 -22 -41 -33 -53 -41 -45 -8 8 -11
3 -11 -19 0 -16 -7 -39 -15 -51 -15 -22 -85 -227 -85 -250 0 -20 -17 -15 -34
9 -9 12 -16 18 -16 13 0 -6 7 -19 15 -29 8 -11 15 -37 15 -58 0 -29 -5 -40
-22 -49 -13 -7 -27 -18 -31 -25 -4 -8 -17 -14 -27 -14 -10 0 -21 -4 -24 -9 -4
-5 3 -7 15 -4 20 6 20 5 5 -23 -8 -16 -29 -45 -45 -64 -27 -31 -30 -33 -31
-13 0 12 -3 29 -7 38 -5 14 -2 16 16 10 21 -6 22 -4 19 42 -3 41 0 48 14 47
10 -1 15 2 12 7 -3 5 -13 9 -22 10 -11 0 -12 3 -4 6 14 6 16 33 2 33 -5 0 -10
7 -10 16 0 16 49 185 56 193 2 2 9 -1 16 -6 20 -16 74 4 94 34 9 16 25 33 33
40 9 7 11 13 4 13 -10 0 -83 92 -83 105 0 2 18 34 40 70 22 36 40 70 40 75 0
6 7 10 15 10 11 0 15 -12 16 -47 1 -27 1 -53 0 -59 -1 -6 6 -17 14 -24 14 -12
15 -6 11 56 -3 38 -10 70 -16 72 -15 5 -12 20 8 42 14 16 20 16 35 5 12 -8 14
-16 8 -20 -19 -11 -12 -23 11 -17 13 3 36 21 52 39 16 18 36 33 45 33 11 0 9
6 -8 21 -16 15 -30 19 -49 15 -15 -3 -21 -3 -15 0 8 3 11 15 7 28 -4 17 8 35
61 85 59 57 80 68 80 40 0 -5 5 -8 10 -6 6 1 9 9 8 16 -1 8 6 21 15 28 23 17
33 16 26 -2 -4 -8 -1 -15 6 -15 6 0 8 -5 4 -11 -5 -9 1 -10 22 -5 31 8 65 13
102 15 12 0 22 6 22 11 0 7 -13 8 -34 5 -28 -6 -36 -3 -44 12 -7 12 -7 25 -1
34 12 19 11 29 -2 29 -6 0 -13 -9 -16 -19 -3 -10 -15 -21 -28 -23 -17 -4 -21
-1 -18 12 4 14 41 40 63 45 3 0 25 15 49 33 24 17 48 32 53 32 4 0 8 -29 8
-64z m763 -21 c33 -7 62 -17 65 -20 4 -4 7 -146 7 -316 l0 -309 -100 -196
c-113 -222 -110 -214 -98 -214 10 0 104 168 157 278 19 40 36 69 38 65 1 -4 3
-47 3 -94 0 -84 -1 -87 -37 -131 -21 -25 -61 -69 -89 -97 -44 -42 -57 -49 -78
-44 -41 9 -43 17 -27 74 9 30 25 108 36 174 11 66 32 181 45 255 54 291 62
341 55 345 -4 2 -19 -57 -34 -133 -15 -75 -34 -164 -41 -197 -18 -78 -33 -160
-40 -210 -8 -51 -32 -178 -44 -229 -5 -21 -7 -44 -5 -50 3 -7 -19 -16 -58 -23
-61 -12 -64 -12 -88 13 -16 16 -26 38 -28 62 -1 20 -4 57 -7 82 l-5 45 14 -30
c8 -16 28 -60 45 -97 16 -38 33 -68 37 -68 3 0 3 8 -1 18 -4 9 -27 73 -51 141
l-44 124 0 392 c0 215 3 395 7 398 12 13 306 7 366 -8z m-407 -234 c-4 -124
-10 -273 -13 -331 -8 -132 -8 -143 1 -267 4 -57 5 -103 3 -103 -3 0 -45 53
-93 118 -49 64 -108 141 -132 171 -35 45 -42 59 -37 82 4 17 2 29 -3 29 -5 0
-13 12 -17 28 -8 29 -16 416 -8 395 3 -7 9 -13 14 -13 4 0 6 7 3 15 -4 11 8
21 42 36 69 30 166 60 172 54 3 -3 7 -49 8 -103 4 -158 17 -298 29 -311 7 -7
4 187 -5 304 -7 94 -6 112 8 122 32 26 35 3 28 -226z m603 178 c218 -82 397
-226 525 -419 87 -131 137 -237 179 -380 57 -193 50 -501 -18 -734 -30 -102
-98 -258 -135 -306 -14 -19 -42 -55 -61 -80 -53 -70 -176 -182 -264 -242 -87
-58 -191 -115 -198 -108 -2 3 -30 86 -61 185 l-57 180 3 138 c1 75 6 137 9
137 4 0 20 -21 35 -47 41 -70 283 -433 289 -433 11 0 0 18 -221 356 -96 148
-101 160 -109 235 l-7 64 43 -40 c24 -23 78 -72 119 -110 76 -71 298 -259 335
-284 24 -16 -7 13 -161 149 -184 162 -308 279 -321 303 -17 31 -16 77 1 77 8
0 16 -3 18 -7 6 -16 548 -350 593 -367 38 -14 1 11 -190 129 -247 152 -375
234 -402 259 -17 15 -23 30 -23 64 0 38 2 43 18 37 41 -17 414 -110 561 -140
137 -28 83 -9 -106 38 -104 26 -252 64 -330 84 l-143 37 0 42 0 41 48 7 c26 3
137 13 247 21 295 23 489 45 500 56 7 7 -4 9 -35 5 -25 -3 -153 -15 -285 -26
-132 -11 -287 -25 -345 -30 -58 -6 -111 -10 -117 -10 -9 0 -13 17 -13 53 l0
53 88 39 c251 111 615 285 609 292 -6 5 -103 -36 -277 -117 -96 -45 -196 -91
-222 -101 -26 -10 -79 -35 -118 -54 -39 -20 -75 -33 -79 -30 -5 3 -7 37 -5 77
5 84 -7 67 243 323 182 186 113 135 -98 -72 -79 -79 -146 -143 -148 -143 -10
0 -1 194 12 236 8 27 53 127 100 222 78 158 100 211 76 187 -5 -6 -46 -83 -90
-172 -44 -88 -84 -164 -89 -167 -5 -3 -8 11 -6 32 1 20 3 137 3 260 1 170 4
222 14 222 6 0 36 -9 66 -21z m417 -24 c32 -24 32 -27 27 -82 -4 -36 -3 -54 4
-50 5 3 10 21 11 38 2 60 17 55 100 -28 44 -44 83 -90 87 -104 4 -13 22 -46
40 -74 52 -80 55 -88 40 -100 -8 -5 -16 -30 -20 -55 -15 -120 -33 -146 -62
-86 -13 28 -14 41 -6 58 11 23 33 119 33 142 0 8 -17 16 -42 19 -24 4 -56 9
-72 13 -20 5 -27 3 -22 -4 3 -6 31 -16 62 -22 43 -9 54 -15 50 -27 -3 -8 -9
-39 -12 -69 -4 -30 -10 -54 -13 -54 -8 1 -111 165 -111 177 0 6 -7 13 -15 17
-8 3 -23 21 -32 41 -9 19 -22 35 -29 35 -7 0 -14 4 -16 9 -5 14 -141 125 -192
157 -25 16 -46 32 -46 36 0 3 41 10 90 14 50 3 90 10 90 15 0 16 23 9 56 -16z
m-1375 -57 c8 -14 12 -368 5 -368 -6 0 -38 30 -74 68 -77 82 -71 62 10 -30 33
-37 63 -81 68 -99 5 -18 8 -78 5 -133 -3 -75 -1 -108 10 -129 7 -15 11 -27 8
-27 -3 0 -69 37 -147 83 -197 117 -257 150 -261 145 -4 -4 24 -21 244 -155
130 -79 171 -111 171 -135 0 -11 -5 -16 -10 -13 -6 4 -8 11 -5 16 4 5 1 9 -4
9 -16 0 -13 -26 4 -40 18 -15 20 -31 4 -27 -6 1 -14 -4 -16 -10 -3 -7 2 -13
10 -13 9 0 17 -12 19 -30 3 -20 0 -30 -9 -30 -7 0 -14 10 -14 23 l-2 22 -4
-22 c-2 -13 -6 -23 -8 -23 -3 0 -325 62 -464 89 -25 5 -39 5 -34 0 5 -5 96
-26 203 -48 107 -22 219 -45 248 -51 l53 -12 -3 -86 -3 -86 -145 -23 c-80 -12
-205 -33 -278 -47 -100 -18 -135 -21 -138 -12 -3 7 -3 80 -1 162 3 114 8 158
20 183 9 19 14 38 11 43 -6 10 3 52 37 173 24 81 58 155 76 162 7 3 11 9 8 14
-5 7 12 47 26 59 3 3 30 44 61 92 31 47 71 101 90 118 18 18 32 38 30 44 -2 6
0 8 4 3 4 -4 24 8 43 27 71 68 146 125 152 114z m100 -510 c11 -13 27 -36 36
-53 13 -25 96 -138 113 -155 39 -39 90 -125 94 -160 6 -53 7 -53 -146 48
l-117 77 -1 117 c0 64 -3 123 -6 132 -9 23 5 20 27 -6z m1675 -73 c13 -8 24
-25 24 -37 0 -19 -4 -20 -52 -14 -43 5 -49 4 -33 -6 10 -6 33 -14 50 -18 l30
-6 -2 -84 c-2 -46 -7 -88 -13 -94 -14 -14 -13 -27 2 -23 9 1 12 -17 11 -63 0
-44 -4 -64 -12 -62 -7 1 -6 -9 4 -29 12 -22 15 -48 11 -95 -3 -54 -9 -69 -30
-89 -14 -13 -26 -27 -26 -31 0 -4 8 1 19 10 17 15 19 15 25 1 7 -20 6 -110 -3
-147 l-6 -27 -27 24 c-30 26 -35 44 -16 63 10 10 10 14 0 21 -8 5 -10 23 -6
62 3 30 8 58 11 63 3 4 5 46 4 92 0 46 3 84 7 84 4 0 7 20 7 45 0 27 -5 45
-11 45 -6 0 -15 24 -18 53 -10 77 -54 229 -77 266 -7 10 -9 25 -6 34 5 14 11
14 57 -3 29 -11 63 -26 76 -35z m89 -235 c8 -52 11 -96 6 -98 -4 -1 -5 -22 0
-47 5 -24 6 -60 4 -80 -3 -23 -1 -35 8 -35 7 0 4 -5 -5 -11 -13 -7 -15 -15 -9
-32 10 -25 7 -109 -4 -127 -7 -11 -10 -24 -19 -95 -4 -27 -12 -66 -17 -85 -20
-68 -19 -67 -31 -47 -7 13 -7 22 0 29 6 6 8 26 5 44 -3 19 -1 40 6 47 13 16
17 70 8 110 -3 16 -1 41 5 55 6 17 10 119 10 267 0 252 6 271 33 105z m-1703
-16 c149 -94 178 -116 178 -135 0 -11 -3 -19 -7 -19 -5 0 -63 12 -130 27
l-123 27 0 57 c0 32 -3 64 -6 73 -10 26 11 19 88 -30z m-761 -152 c-1 -64 -5
-119 -7 -122 -3 -2 -27 19 -55 46 l-51 51 52 77 c29 43 55 75 58 71 4 -3 5
-59 3 -123z m1437 -18 l-3 -39 -52 -3 c-29 -2 -53 -8 -53 -13 0 -6 22 -9 53
-8 l52 3 3 -33 c3 -32 2 -33 -23 -27 -66 17 -88 19 -82 9 4 -6 24 -14 44 -18
47 -8 63 -21 63 -50 0 -36 -10 -36 -66 6 -54 40 -64 45 -64 32 0 -5 19 -20 43
-35 64 -41 89 -71 85 -104 -3 -29 -4 -28 -78 43 -63 61 -73 75 -65 90 6 10 10
48 8 86 -2 59 0 67 16 67 10 0 38 11 62 24 24 13 48 20 52 16 5 -4 7 -25 5
-46z m-648 20 c41 -9 90 -19 108 -21 31 -5 61 -36 44 -47 -4 -2 -57 -12 -117
-21 -61 -8 -117 -18 -127 -21 -14 -4 -17 5 -20 61 -3 73 -2 78 21 70 9 -2 50
-12 91 -21z m409 -4 c21 -10 41 -26 45 -35 18 -49 -12 -122 -59 -143 -24 -11
-55 -7 -55 8 0 4 -11 5 -25 2 -21 -4 -27 1 -41 34 -22 52 -6 107 39 134 40 25
49 25 96 0z m-1262 -94 c79 -99 79 -136 -1 -136 -75 0 -78 5 -79 97 0 121 11
126 80 39z m1003 -6 c0 -5 -6 -10 -12 -11 -10 0 -10 -2 0 -6 21 -8 13 -19 -30
-38 -24 -10 -85 -37 -135 -61 -85 -39 -93 -41 -93 -23 0 11 4 17 10 14 9 -5 6
36 -6 73 -4 14 35 32 72 32 21 0 24 -5 24 -35 0 -19 5 -35 10 -35 6 0 8 15 4
39 l-6 39 58 7 c33 4 64 8 69 10 20 7 35 5 35 -5z m-320 -65 c16 -19 31 -95
19 -95 -5 0 -10 10 -10 23 -1 12 -2 27 -4 32 -1 6 -3 17 -5 25 -2 8 -6 -14 -9
-49 l-6 -64 -155 -71 c-219 -102 -291 -138 -286 -144 3 -2 72 27 153 66 194
92 262 122 279 122 11 0 14 -23 14 -109 l0 -109 -107 -99 c-107 -97 -191 -183
-180 -183 3 0 68 56 143 125 76 69 140 125 143 125 4 0 6 -73 6 -163 l0 -164
-28 -39 -29 -39 31 33 c17 17 32 32 34 32 3 0 7 -19 10 -42 10 -68 35 -142 62
-182 13 -20 20 -36 15 -36 -11 0 -183 138 -328 263 -69 60 -117 112 -147 158
-50 75 -117 204 -113 216 1 4 -6 23 -16 41 -28 54 -68 244 -53 258 5 5 485 82
518 83 22 1 42 -5 49 -14z m315 -33 c2 -28 -5 -40 -54 -86 -31 -30 -74 -68
-95 -86 -22 -17 -57 -49 -78 -72 l-38 -41 1 104 2 104 7 -73 c11 -101 23 -105
19 -5 l-4 82 110 54 c60 29 114 53 119 52 5 0 10 -15 11 -33z m285 -44 c0 -24
31 -116 204 -623 59 -170 113 -332 121 -360 20 -72 176 -508 219 -615 14 -35
26 -65 26 -67 0 -3 -14 -3 -32 -1 l-32 3 -66 200 c-37 110 -106 319 -154 465
-48 146 -107 324 -131 395 -24 72 -74 225 -111 340 -36 116 -73 223 -81 239
-12 24 -13 30 -1 37 23 15 38 10 38 -13z m-100 5 c0 -5 -14 -60 -30 -123 -17
-63 -35 -137 -40 -165 -6 -27 -29 -106 -51 -175 -36 -109 -90 -303 -106 -380
-3 -14 -9 -29 -13 -35 -5 -5 -11 -27 -15 -47 -4 -20 -14 -39 -22 -42 -9 -4
-14 -17 -12 -33 1 -16 -1 -35 -4 -43 -3 -8 -12 -42 -20 -75 -22 -92 -106 -426
-117 -466 -6 -20 -10 -48 -10 -63 0 -23 -4 -26 -34 -26 -19 0 -42 -3 -52 -7
-14 -5 -16 -3 -10 13 18 42 219 662 216 666 -1 2 10 35 24 73 13 39 40 129 60
200 20 72 49 171 66 220 17 50 44 144 61 210 33 128 66 245 80 282 8 21 29 33
29 16z m248 -138 l67 -100 2 -140 3 -140 -78 231 c-44 127 -82 244 -85 260 -7
28 -6 28 9 9 8 -11 46 -65 82 -120z m-432 66 c-5 -52 -54 -142 -126 -231 -21
-25 -49 -67 -65 -95 -15 -27 -33 -54 -40 -60 -7 -5 -16 -23 -21 -40 -7 -23
-10 -4 -14 80 -6 122 -3 145 14 145 9 0 12 -26 11 -90 0 -62 2 -87 10 -79 5 5
10 50 10 99 0 48 -3 83 -7 77 -5 -8 -8 -6 -8 6 0 24 157 170 172 161 4 -3 8 0
8 7 0 11 48 69 57 69 2 0 1 -22 -1 -49z m241 -41 c6 -19 23 -75 38 -125 15
-49 56 -173 91 -274 35 -102 67 -201 70 -221 6 -35 5 -37 -34 -48 -52 -16
-131 -16 -137 1 -2 6 -12 111 -21 232 -9 121 -21 263 -25 315 -5 65 -6 35 -3
-95 3 -104 11 -248 18 -320 7 -71 12 -132 10 -133 -5 -7 -90 47 -112 70 -11
13 -30 44 -41 69 -19 42 -19 49 -5 109 8 36 25 99 38 140 13 41 34 113 46 160
12 47 26 95 31 108 5 13 9 33 9 44 0 28 13 13 27 -32z m-1183 -112 c40 -29 72
-62 84 -85 37 -73 125 -228 140 -245 14 -16 13 -18 -7 -18 -12 0 -46 11 -75
25 l-53 25 -1 91 c0 50 -3 93 -6 96 -5 5 -69 13 -125 16 l-35 2 -15 77 c-8 43
-18 75 -23 72 -4 -3 -8 2 -8 11 0 20 13 13 124 -67z m2343 70 c18 -25 36 -97
29 -122 -4 -15 -20 -33 -39 -42 -17 -10 -44 -26 -59 -37 -15 -11 -30 -18 -33
-15 -6 6 22 85 38 106 5 7 11 28 13 48 6 70 27 94 51 62z m-1390 -41 c2 -21 0
-38 -7 -42 -9 -5 -10 -1 -5 14 3 11 2 21 -3 21 -5 0 -12 -23 -15 -52 -4 -28
-11 -54 -16 -57 -5 -3 -23 -37 -41 -76 -17 -38 -36 -78 -41 -87 -5 -10 -9 -23
-9 -30 0 -7 -8 -22 -16 -33 -15 -19 -15 -16 -13 35 1 30 -1 62 -5 71 -10 24
28 87 139 234 8 10 15 26 15 34 0 26 12 3 17 -32z m-3 -115 c-4 -9 -6 -21 -5
-25 1 -5 -3 -6 -8 -2 -6 3 -8 -12 -5 -42 6 -48 -37 -241 -71 -323 -7 -19 -26
-73 -40 -120 -22 -73 -44 -128 -45 -110 0 3 -10 33 -21 65 -35 98 -34 109 7
190 21 41 40 72 42 70 6 -6 -18 -124 -30 -147 -10 -21 1 -98 14 -98 5 0 6 5 3
10 -3 6 -3 16 2 22 4 7 6 26 5 43 -2 23 -1 27 7 15 8 -12 11 -7 11 21 0 19 4
39 9 45 5 5 14 27 20 48 8 32 8 43 -4 56 -17 19 -19 43 -6 68 5 9 24 55 41
102 18 47 38 90 44 95 7 6 16 24 21 40 6 22 9 25 12 12 3 -10 1 -26 -3 -35z
m1466 14 c0 -8 -7 -21 -15 -30 -9 -8 -14 -19 -13 -23 9 -37 -39 -112 -62 -98
-7 4 -22 3 -33 -3 -93 -42 -110 -36 -78 27 21 40 34 50 45 32 3 -4 24 9 46 30
22 21 52 42 65 45 14 3 25 12 25 20 0 8 5 14 10 14 6 0 10 -6 10 -14z m-2357
-53 c3 -5 6 -44 8 -88 3 -67 2 -80 -12 -83 -11 -2 -25 11 -39 35 -13 21 -33
49 -46 63 -12 14 -26 37 -29 53 l-7 27 60 0 c34 0 63 -3 65 -7z m2287 -120 c0
-20 -68 -124 -93 -143 -47 -37 -62 -25 -65 53 l-3 67 40 0 c22 0 42 4 46 10 3
5 12 7 19 4 8 -3 17 -1 21 5 7 12 35 15 35 4z m-2234 -81 c5 -4 35 -16 66 -27
32 -10 66 -27 75 -38 18 -20 17 -20 -37 -14 -30 3 -71 9 -90 12 l-35 6 24 -17
c15 -12 38 -17 65 -15 64 3 77 -12 81 -98 2 -40 7 -76 10 -79 3 -3 5 -9 5 -14
0 -5 -7 -2 -16 6 -8 9 -19 16 -23 16 -4 0 -18 18 -31 40 -25 39 -45 54 -34 25
9 -23 -4 -18 -17 6 -8 15 -8 19 0 15 14 -9 14 4 1 24 -8 12 -10 12 -10 1 0
-11 -5 -10 -20 4 -22 20 -70 115 -70 139 0 17 38 22 56 8z m2287 -49 c13 -23
-37 -304 -68 -388 -45 -122 -101 -257 -117 -285 -92 -156 -208 -289 -320 -364
-45 -30 -54 -33 -57 -18 -2 9 -8 28 -14 42 -16 40 -87 240 -109 305 -35 107
-37 115 -28 110 5 -3 30 6 55 20 l47 25 19 -23 c22 -26 23 -39 7 -55 -16 -16
-50 -15 -74 3 -23 18 -34 19 -34 3 0 -27 34 -48 75 -48 49 0 59 9 74 65 14 53
13 60 -9 58 -10 -1 -23 4 -30 11 -9 12 7 26 82 75 51 34 98 61 104 61 6 0 17
-6 23 -14 17 -21 66 -29 90 -16 25 13 51 60 51 93 0 14 -9 31 -22 39 -23 15
-22 15 42 89 36 41 77 86 91 101 14 14 33 47 43 72 15 40 21 46 46 46 16 0 31
-3 33 -7z m-133 -31 c0 -12 -120 -159 -159 -196 -17 -16 -34 -27 -37 -23 -11
10 -16 98 -9 146 l7 43 67 -4 c59 -3 70 -1 91 19 25 24 40 29 40 15z m-1847
-132 c31 -30 57 -57 57 -61 0 -11 -76 -29 -123 -29 -36 0 -49 4 -57 20 -14 25
-28 144 -22 177 5 27 -1 32 145 -107z m592 97 c4 -13 7 -30 9 -38 1 -8 12 -33
24 -56 15 -28 20 -52 16 -68 -5 -19 -2 -25 11 -25 11 0 15 5 12 15 -8 20 14
31 27 14 6 -8 24 -15 40 -16 40 -3 41 -7 17 -49 -16 -27 -19 -40 -11 -48 13
-13 37 15 47 54 7 30 22 41 46 34 10 -3 23 -1 30 4 7 5 27 13 46 17 19 4 41
14 49 22 28 27 32 -8 6 -48 -13 -21 -24 -43 -24 -48 0 -17 -121 -121 -141
-121 -27 0 -24 15 7 35 14 9 32 31 39 48 8 18 14 27 15 20 0 -16 30 -5 30 11
0 7 11 22 25 34 21 19 33 42 21 42 -14 0 -66 -24 -66 -30 0 -5 -9 -12 -20 -15
-11 -4 -18 -11 -15 -16 4 -5 -4 -8 -17 -6 -17 1 -24 -4 -26 -20 -2 -13 -8 -23
-13 -23 -13 0 -33 -50 -30 -75 1 -16 0 -17 -8 -6 -8 12 -12 12 -25 2 -14 -12
-15 -10 -10 20 8 39 15 49 21 31 3 -6 9 -10 14 -6 15 9 10 21 -10 27 -22 5
-51 -20 -51 -45 0 -42 -66 -44 -76 -2 -3 13 -11 24 -16 24 -6 0 -8 -11 -4 -24
6 -23 5 -23 -27 -12 -73 26 -77 31 -60 78 8 24 20 49 26 57 7 8 11 16 10 17
-1 2 -1 9 1 16 2 7 12 55 22 106 18 93 29 112 39 69z m865 -185 c0 -5 -9 -17
-20 -27 -11 -10 -17 -21 -15 -25 3 -4 0 -32 -5 -61 -11 -58 -8 -68 15 -49 9 8
12 18 6 27 -8 14 -3 39 20 100 11 30 67 40 107 19 17 -9 38 -13 46 -10 9 3 16
2 16 -4 0 -14 -93 -98 -131 -117 -19 -10 -36 -22 -39 -26 -11 -17 -205 -128
-212 -121 -7 8 -60 145 -56 146 7 3 77 41 106 58 34 21 42 15 17 -12 -8 -9
-21 -34 -29 -56 -11 -33 -17 -39 -40 -37 -39 3 -27 -17 19 -33 54 -18 65 -17
37 4 l-23 18 38 70 c26 50 50 79 80 100 24 16 43 32 43 37 0 4 5 7 10 7 6 0
10 -4 10 -8z m-1355 -27 c16 -16 25 -36 25 -57 0 -18 5 -51 10 -73 5 -22 7
-42 4 -45 -3 -2 -35 11 -70 30 l-65 34 6 51 c4 33 13 56 27 68 27 22 34 22 63
-8z m73 -34 c9 -5 40 -20 67 -32 28 -13 52 -27 53 -31 2 -5 14 -8 27 -8 13 0
26 -3 28 -7 6 -10 -31 -134 -43 -147 -13 -13 -70 13 -102 46 -14 15 -31 28
-36 28 -6 0 -13 18 -16 40 -3 22 -9 58 -12 80 -6 42 1 48 34 31z m916 -201 c8
-25 17 -52 21 -61 4 -12 0 -18 -17 -22 -13 -3 -41 -11 -63 -17 -81 -22 -194
-35 -230 -26 l-27 7 57 54 c37 36 65 55 81 55 15 0 24 6 24 15 0 8 5 15 10 15
6 0 10 7 10 15 0 9 9 15 23 15 12 1 33 7 47 15 22 12 26 12 38 -3 7 -9 19 -37
26 -62z m-553 26 c54 -1 57 -3 132 -71 42 -38 77 -74 77 -78 0 -4 -31 -6 -70
-5 -38 2 -70 7 -70 11 0 5 -10 5 -21 2 -12 -4 -19 -3 -16 2 3 5 -21 9 -53 8
-45 0 -64 4 -77 19 -14 14 -15 20 -5 23 9 3 10 9 3 17 -15 18 10 88 29 80 8
-3 40 -7 71 -8z m399 4 c0 -5 -8 -10 -18 -10 -10 0 -42 -23 -72 -51 -83 -77
-80 -76 -149 -17 -34 28 -61 55 -61 60 0 4 24 6 54 4 29 -3 75 1 102 9 59 16
144 19 144 5z m265 -360 c36 -113 69 -209 71 -215 3 -7 -165 -11 -487 -13
-468 -3 -491 -2 -487 15 102 413 102 413 123 413 11 -1 31 -7 44 -14 13 -7 32
-11 43 -9 14 4 18 0 16 -21 -2 -26 -23 -36 -30 -14 -2 6 -10 8 -16 4 -36 -22
26 -96 80 -96 58 0 107 57 63 74 -8 3 -15 10 -15 17 0 6 6 9 14 6 7 -3 18 -1
23 4 11 11 307 13 310 2 2 -5 23 -7 48 -6 25 1 45 -2 45 -7 0 -6 -7 -10 -15
-10 -8 0 -15 -6 -15 -14 0 -8 -4 -17 -9 -20 -9 -6 -63 15 -93 36 -25 18 -32 4
-14 -30 18 -34 33 -42 87 -42 29 0 42 5 53 23 20 33 28 75 15 83 -7 4 3 16 27
30 21 13 41 20 45 16 3 -4 37 -99 74 -212z m225 -272 c0 -5 -4 -9 -10 -9 -5
-1 -13 -2 -17 -3 -5 0 -48 -17 -98 -37 -133 -54 -174 -65 -357 -90 -134 -19
-165 -26 -160 -38 4 -12 -13 -13 -114 -7 -65 4 -157 11 -204 16 -47 5 -119 12
-160 15 -58 5 -89 14 -138 41 -35 19 -69 34 -75 34 -6 0 -28 12 -49 26 -41 29
-39 50 5 56 47 7 1377 3 1377 -4z m-1406 -96 c44 -22 102 -45 129 -52 26 -7
47 -15 47 -19 0 -3 -59 -6 -130 -6 l-130 -1 0 36 c0 19 -3 45 -6 58 -4 12 -3
22 1 22 4 0 44 -17 89 -38z"/>
<path d="M3086 5812 c-22 -96 37 -842 66 -842 6 0 7 17 4 43 -20 136 -43 425
-52 652 -3 94 -8 171 -9 173 -2 2 -6 -10 -9 -26z"/>
<path d="M13260 7955 c0 -25 0 -26 -66 -19 -50 5 -68 4 -74 -7 -15 -23 -1 -29
69 -29 53 0 72 -4 84 -18 10 -10 17 -23 17 -29 0 -6 16 -31 35 -56 19 -25 35
-48 35 -52 0 -3 11 -23 25 -45 38 -61 36 -64 -54 -56 -82 7 -151 0 -151 -15 0
-5 54 -9 119 -9 111 0 121 -2 135 -21 l15 -22 6 26 c5 19 -5 46 -40 112 -26
47 -57 98 -70 113 -47 57 -57 92 -24 92 11 0 17 4 14 10 -4 6 -15 8 -26 5 -14
-5 -20 0 -25 19 -8 33 -24 34 -24 1z"/>
<path d="M5382 7937 c-19 -12 -55 -41 -80 -64 -48 -44 -62 -51 -62 -32 0 5 -4
8 -10 4 -5 -3 -7 -12 -4 -19 7 -17 -140 -154 -189 -176 -22 -10 -35 -20 -29
-23 5 -4 6 -26 1 -54 -14 -81 -23 -793 -11 -835 6 -21 7 -38 3 -38 -7 0 -4
-286 4 -460 8 -174 10 -1656 2 -1945 -14 -521 -15 -629 -7 -616 15 26 17 -74
12 -653 -2 -115 1 -213 5 -217 11 -11 169 -29 260 -30 43 0 182 -4 308 -7 127
-4 235 -4 240 -1 15 10 72 21 139 26 42 4 61 1 67 -9 7 -9 11 -10 17 -2 4 7
36 15 72 19 60 8 62 9 31 16 -19 4 -45 3 -58 -2 -33 -12 -29 3 15 61 20 27 52
69 69 93 47 63 126 152 138 154 13 2 24 36 15 48 -4 6 -10 19 -14 30 -3 12 -4
9 -2 -8 2 -15 -1 -30 -5 -33 -5 -3 -10 1 -10 8 -1 7 -3 25 -5 41 -2 20 2 27
14 27 16 1 16 2 0 14 -11 8 -18 25 -17 42 1 28 1 29 8 4 5 -18 9 -21 15 -12 7
12 -1 179 -10 193 -4 8 -11 749 -7 749 9 0 85 -171 99 -220 8 -30 24 -80 34
-110 21 -61 160 -494 240 -750 29 -91 61 -186 71 -212 10 -26 19 -58 19 -71 0
-13 9 -32 20 -42 31 -28 24 -35 -36 -35 -35 0 -53 -4 -49 -10 8 -13 551 -12
715 2 216 17 483 23 503 11 5 -3 16 -21 24 -40 8 -19 17 -33 20 -30 8 9 8 81
-1 95 -6 10 76 132 90 132 9 0 -24 -55 -45 -74 -12 -11 -21 -25 -21 -33 0 -28
87 81 95 117 0 3 8 16 16 30 9 14 31 50 50 80 18 30 37 57 41 58 16 7 7 49
-28 132 -19 47 -48 119 -65 160 -17 41 -36 89 -44 105 -8 17 -28 66 -46 110
-17 44 -63 159 -101 255 -70 178 -127 329 -154 410 -8 25 -19 54 -24 65 -17
40 -43 111 -62 170 -10 33 -23 69 -28 80 -12 27 -24 78 -21 89 1 6 -2 19 -8
30 -6 12 -31 69 -55 129 -25 59 -54 124 -65 145 -10 20 -19 39 -18 42 1 17
-16 50 -27 50 -6 0 -17 5 -24 12 -9 9 -7 17 10 35 26 28 42 30 28 3 -7 -13 -7
-20 -1 -20 6 0 15 17 21 38 5 20 26 53 46 72 20 19 50 54 67 78 17 23 34 42
39 42 4 0 8 7 8 16 0 8 4 13 9 10 18 -11 154 158 154 191 0 7 4 13 8 13 4 0 9
7 13 15 3 8 2 15 -3 15 -4 0 -40 -49 -80 -110 -39 -60 -76 -110 -82 -110 -12
0 -7 9 42 75 20 28 56 85 79 128 44 81 54 93 44 52 -3 -14 -2 -25 3 -25 7 0
41 94 49 136 1 6 10 38 19 70 10 33 19 68 21 79 16 99 24 166 29 260 3 61 8
135 10 165 21 234 10 380 -39 515 -14 39 -28 89 -32 112 -3 24 -10 41 -14 38
-9 -5 -46 83 -55 130 -5 23 0 18 19 -20 14 -27 26 -44 26 -37 0 14 -39 94 -50
102 -4 3 -18 30 -33 60 -25 53 -33 66 -84 130 -27 33 -29 44 -7 36 19 -7 -51
78 -103 125 -105 95 -360 239 -508 288 -39 12 -79 30 -89 39 -11 9 -16 11 -12
5 10 -18 1 -17 -132 16 -190 48 -326 65 -507 62 -610 -8 -902 -6 -898 7 7 17
-6 14 -45 -11z m658 -39 c124 1 245 5 270 8 65 7 263 -14 348 -37 39 -11 77
-17 82 -14 6 3 10 2 10 -3 0 -10 55 -35 115 -52 41 -12 48 -14 123 -45 58 -25
63 -14 7 16 -25 13 -45 27 -45 31 0 7 40 -1 55 -12 6 -3 33 -15 60 -24 45 -16
169 -72 220 -98 10 -6 39 -21 63 -34 65 -35 142 -96 135 -107 -4 -6 -1 -7 6
-2 18 10 83 -56 133 -135 22 -36 55 -85 72 -110 22 -32 31 -56 31 -86 0 -23 4
-42 9 -41 5 1 17 -21 26 -50 8 -29 19 -55 23 -59 4 -4 7 -14 7 -23 0 -9 12
-41 26 -71 14 -30 32 -89 40 -130 8 -41 19 -97 25 -125 27 -132 34 -411 11
-465 -7 -16 -11 -19 -11 -8 -1 9 -5 18 -10 20 -5 2 -3 24 4 51 7 28 8 47 2 47
-5 0 -3 7 4 17 8 9 10 18 4 20 -6 2 -9 39 -9 88 1 46 -3 82 -7 79 -5 -3 -10
-15 -10 -27 -1 -17 -2 -18 -6 -4 -2 9 -6 17 -9 17 -11 0 -44 -43 -50 -65 -7
-29 -26 -44 -32 -27 -2 7 -7 12 -12 12 -8 0 -23 -39 -20 -55 5 -27 4 -155 -1
-155 -3 0 -9 35 -12 78 -3 43 -9 86 -13 95 -5 13 -2 16 10 11 16 -6 22 7 9 20
-19 19 -10 34 21 31 17 -2 25 -1 19 2 -8 3 -13 21 -12 46 1 23 3 34 6 24 7
-27 27 -15 30 17 2 23 -2 27 -17 23 -15 -4 -18 1 -18 32 0 44 -11 92 -25 109
-6 8 -13 23 -14 35 -2 12 -13 30 -24 40 -21 20 -21 20 -14 -4 4 -13 11 -26 14
-29 22 -16 35 -83 36 -177 0 -96 -1 -102 -17 -85 -11 11 -19 41 -23 87 -6 73
-10 95 -44 210 -30 105 -153 334 -180 335 -7 0 -11 6 -7 15 3 9 0 15 -8 15 -7
0 -18 11 -24 25 -6 14 -18 25 -26 25 -8 0 -19 6 -23 14 -12 21 -139 125 -223
182 -168 114 -443 203 -725 235 -143 17 -510 17 -800 2 -126 -7 -300 -15 -385
-18 l-155 -6 29 23 c50 39 200 169 216 186 8 10 30 30 49 45 l35 29 200 -9
c111 -4 302 -7 426 -5z m290 -284 c245 -28 408 -62 541 -113 149 -56 203 -84
297 -150 93 -65 135 -103 178 -161 16 -22 34 -40 39 -40 6 0 16 -12 22 -27 7
-16 27 -44 45 -63 18 -19 31 -38 30 -42 -1 -5 2 -8 8 -8 16 0 69 -128 95 -230
77 -301 85 -341 74 -362 -6 -10 -7 -28 -4 -38 4 -12 2 -20 -4 -20 -6 0 -11 -5
-11 -11 0 -6 8 -8 20 -4 18 6 19 0 22 -67 3 -78 -7 -353 -14 -378 -2 -8 -7
-21 -11 -27 -5 -8 -3 -13 3 -13 8 0 9 -7 5 -17 -4 -10 -9 -34 -11 -53 -3 -19
-10 -38 -17 -42 -6 -4 -9 -10 -5 -13 8 -8 -34 -146 -75 -246 -20 -48 -59 -125
-87 -173 -57 -96 -123 -158 -288 -268 -50 -34 -95 -71 -98 -81 -3 -10 -24 -25
-47 -35 l-42 -17 39 -5 c38 -5 39 -6 83 -105 74 -165 122 -283 170 -420 25
-71 80 -209 123 -305 79 -179 103 -240 96 -247 -4 -4 -20 24 -226 407 -75 140
-152 282 -169 314 -18 33 -68 129 -112 215 -43 86 -89 174 -102 196 -13 22
-88 157 -166 300 -79 143 -157 282 -173 308 l-28 49 25 20 c40 31 89 111 117
188 43 122 57 221 51 389 -7 240 -65 385 -201 498 -80 66 -81 67 -44 48 55
-27 46 -11 -10 20 -44 24 -49 30 -32 36 15 6 13 8 -11 8 -16 1 -54 10 -83 21
-58 22 -153 25 -257 9 -33 -5 -77 -12 -98 -15 -20 -4 -40 -10 -43 -15 -3 -6 4
-7 18 -4 41 10 44 -1 36 -165 -13 -289 -8 -1071 7 -1118 3 -7 0 -23 -5 -37 -8
-20 -6 -25 12 -31 30 -9 210 5 276 22 59 16 212 92 212 106 0 31 30 -13 106
-154 47 -90 119 -224 159 -298 40 -74 110 -207 155 -295 92 -176 234 -439 285
-525 18 -30 63 -111 100 -180 278 -514 261 -479 359 -730 90 -229 101 -260 92
-260 -3 0 -100 188 -215 418 -114 229 -245 487 -291 572 -81 153 -242 460
-407 778 -46 89 -86 162 -88 162 -8 0 61 -140 215 -435 31 -60 103 -200 160
-310 56 -110 106 -204 110 -210 5 -5 141 -275 304 -600 163 -324 310 -615 326
-644 16 -30 28 -57 26 -59 -2 -1 -143 -5 -312 -7 -170 -2 -397 -8 -504 -14
-256 -13 -250 -14 -250 3 0 8 -47 156 -104 328 -111 335 -238 727 -281 872
-15 49 -36 144 -46 210 -10 67 -16 93 -14 59 3 -34 7 -81 11 -105 6 -40 5 -42
-10 -27 -9 8 -35 57 -57 108 -39 92 -39 93 -43 242 -4 147 -4 150 16 143 15
-4 19 -2 16 7 -3 8 -17 15 -33 17 l-28 4 7 -126 c3 -69 3 -126 -1 -126 -8 0
-50 63 -77 116 -8 18 -42 58 -75 91 -46 47 -63 58 -79 52 -10 -4 -21 -13 -23
-21 -3 -7 -2 -148 2 -313 3 -165 4 -572 2 -905 l-4 -605 -480 0 -479 0 5 280
c2 154 5 285 6 290 0 6 0 71 -1 146 l-2 136 131 259 c117 232 196 382 330 627
24 43 41 80 39 82 -7 7 -253 -439 -383 -695 -51 -102 -100 -194 -109 -205 -14
-18 -15 -14 -9 50 5 57 14 84 48 145 58 104 415 724 518 900 248 424 338 575
347 584 5 5 10 17 10 25 0 26 -66 -74 -256 -389 -216 -358 -343 -574 -482
-820 -83 -146 -159 -278 -169 -295 l-18 -30 -6 100 c-3 55 -4 222 -2 370 5
381 14 1577 14 1715 0 63 0 135 0 160 0 25 1 50 1 55 0 6 -3 192 -7 415 -5
223 -9 497 -11 610 -2 113 -4 216 -6 230 -2 17 2 25 12 25 8 0 20 3 25 6 6 4
48 2 95 -3 80 -9 270 -5 530 12 213 13 489 11 630 -6z m16 -822 c58 -18 89
-40 155 -109 86 -89 124 -149 155 -248 64 -200 29 -582 -58 -639 -39 -25 -174
-56 -247 -56 l-69 0 -2 378 c-2 440 -5 571 -15 641 l-7 51 29 -4 c15 -2 42 -9
59 -14z m1500 -379 c-1 -43 2 -87 7 -97 8 -16 6 -18 -12 -13 -25 6 -39 -10
-16 -19 9 -4 12 -10 7 -13 -5 -3 -13 -17 -17 -31 -7 -23 -6 -24 10 -10 16 13
17 12 13 -5 -2 -11 -11 -19 -19 -17 -10 1 -15 -5 -14 -18 2 -25 15 -39 15 -17
0 10 4 17 10 17 5 0 7 -7 4 -15 -4 -10 0 -15 11 -15 9 0 13 -5 10 -10 -4 -6
-16 -8 -28 -5 -12 2 -16 2 -9 -1 17 -8 15 -27 -7 -52 -15 -18 -17 -30 -11 -62
7 -39 5 -44 -14 -41 -5 1 -13 -4 -17 -11 -6 -9 -9 -6 -9 10 0 12 -5 22 -11 22
-6 0 -4 6 4 14 8 8 14 25 13 38 -1 13 3 26 9 30 6 5 6 8 -2 8 -7 0 -13 9 -13
20 0 11 7 20 15 20 8 0 15 5 15 10 0 6 -4 10 -8 10 -5 0 -9 6 -9 13 -1 6 -4
32 -8 57 -4 25 -8 79 -9 121 -1 73 -1 75 21 71 13 -2 24 1 24 7 4 33 20 61 34
61 10 0 13 -19 11 -77z m-1622 -140 c4 -9 1 -21 -5 -27 -9 -8 -10 -7 -6 6 3
10 2 20 -3 23 -11 7 -11 5 -15 -65 -2 -24 -8 -46 -14 -48 -6 -2 -11 -10 -11
-18 0 -9 -4 -12 -10 -9 -5 3 -13 -7 -16 -22 -5 -17 -3 -28 4 -31 13 -4 17 -23
5 -21 -24 3 -53 -16 -53 -35 0 -11 -2 -105 -4 -208 -1 -104 1 -188 6 -188 20
0 25 55 21 228 -3 119 -1 182 5 182 6 0 16 2 24 5 7 2 21 -2 31 -9 18 -14 29
-64 41 -192 3 -28 9 -59 12 -69 5 -13 4 -16 -5 -10 -10 5 -11 2 -7 -13 4 -11
2 -23 -4 -27 -6 -4 -10 5 -11 22 -6 156 -19 243 -41 265 -26 26 -32 18 -29
-45 3 -74 6 -92 19 -92 19 0 26 -15 6 -16 -10 0 -13 -3 -6 -6 6 -2 12 -11 12
-19 0 -9 -4 -12 -10 -9 -5 3 -10 1 -10 -4 0 -6 4 -11 9 -11 6 0 8 -23 6 -51
-3 -41 -1 -50 10 -45 34 13 19 -15 -40 -71 -34 -34 -65 -68 -68 -75 -9 -23
-27 13 -22 47 6 55 9 134 4 140 -9 9 2 369 11 380 6 7 7 14 5 17 -3 3 6 3 20
0 20 -3 24 -9 20 -23 -9 -26 3 -24 31 6 12 13 18 27 13 30 -5 4 -9 1 -9 -4 0
-6 -5 -11 -11 -11 -6 0 -9 8 -7 18 2 12 11 16 31 14 15 -2 27 1 27 8 0 6 -4 8
-10 5 -15 -10 -12 18 6 43 8 12 12 22 8 22 -3 0 -1 7 6 15 16 19 26 19 34 -2z
m1132 -1224 c3 -6 1 -14 -5 -18 -7 -5 -2 -12 14 -21 14 -7 25 -21 25 -30 0 -9
14 -36 30 -58 18 -25 25 -42 18 -42 -7 -1 -3 -9 10 -19 23 -20 31 -37 10 -25
-7 5 -3 -5 10 -20 12 -16 22 -36 22 -46 0 -10 9 -29 20 -43 11 -14 20 -28 20
-32 0 -17 -50 59 -125 189 -44 77 -86 142 -92 144 -18 5 -16 -39 3 -66 8 -12
13 -22 10 -22 -3 0 -1 -12 4 -26 9 -23 8 -25 -7 -20 -17 6 -17 5 0 -8 10 -7
20 -24 22 -36 2 -12 9 -28 15 -35 7 -9 8 -15 1 -19 -6 -4 -24 20 -41 54 -18
36 -26 60 -18 60 6 0 2 9 -10 20 -23 22 -30 36 -11 24 7 -4 7 1 -1 16 -7 14
-15 18 -19 12 -4 -7 -12 -8 -21 -2 -8 6 -10 10 -5 10 6 0 28 16 50 35 42 36
59 42 71 24z m-17 -304 c83 -169 201 -422 201 -432 0 -14 33 -41 44 -37 13 5
58 -41 90 -91 11 -16 28 -36 38 -44 11 -7 17 -19 14 -27 -3 -7 4 -23 14 -36
l19 -23 -11 40 c-5 22 -20 52 -32 68 -18 25 -100 110 -146 152 -8 7 -34 58
-58 113 -41 94 -49 119 -51 150 -1 7 -5 11 -10 8 -5 -4 -7 3 -4 14 3 11 7 20
10 20 6 0 93 -187 93 -200 0 -5 4 -10 9 -10 5 0 15 -14 24 -32 l16 -32 6 27
c4 15 12 24 17 21 5 -4 8 -15 5 -25 -3 -11 -1 -19 4 -19 5 0 14 -12 20 -26 5
-15 23 -44 39 -64 17 -21 30 -42 30 -46 0 -5 18 -52 39 -104 79 -192 122 -307
118 -321 -2 -8 -2 -10 1 -5 4 9 42 -59 42 -76 0 -4 18 -45 40 -90 21 -46 60
-137 86 -203 25 -66 49 -126 52 -134 3 -9 1 -12 -6 -7 -7 4 -12 2 -12 -3 0 -6
6 -11 13 -11 16 0 35 -31 42 -69 4 -26 -22 -93 -45 -111 -17 -14 -122 -159
-136 -188 -8 -18 -19 -30 -24 -27 -6 3 -17 32 -26 63 -9 31 -20 62 -24 67 -7
10 -18 47 -26 94 -3 13 -14 41 -24 62 -11 22 -29 58 -41 80 -11 23 -22 52 -23
65 -1 12 -8 29 -14 36 -6 8 -25 56 -43 108 -17 52 -39 113 -49 135 -41 92
-140 351 -144 375 -1 9 -5 21 -10 28 -4 6 -4 17 -1 22 4 6 1 9 -6 8 -7 -2 -14
2 -14 7 -1 6 -13 36 -28 68 -14 31 -36 85 -48 120 -12 34 -30 82 -42 107 -23
54 -57 149 -57 163 0 6 7 2 15 -9 13 -17 14 -16 4 14 -8 24 -14 30 -20 21 -4
-8 -6 2 -5 24 2 20 0 35 -3 33 -3 -2 -22 28 -41 67 -19 40 -38 74 -41 77 -4 3
-3 14 1 25 5 15 16 -1 52 -75 48 -101 51 -108 78 -182 12 -34 13 -45 4 -37 -8
7 -6 -7 6 -38 21 -54 33 -86 34 -93 3 -12 70 -179 88 -218 11 -23 24 -40 29
-36 13 8 11 23 -6 40 -8 8 -12 22 -9 32 5 15 4 15 -6 2 -10 -13 -11 -12 -6 3
3 11 -2 30 -12 45 -24 35 -53 108 -45 116 3 3 0 12 -7 21 -8 10 -9 15 -1 15
13 0 34 -40 51 -97 7 -24 17 -43 21 -43 5 0 -8 44 -28 98 -20 53 -35 106 -35
117 1 14 -1 16 -7 6 -6 -9 -14 -1 -29 30 -25 54 -36 82 -34 91 1 4 -5 23 -13
42 -20 46 -19 56 1 27 13 -18 18 -20 25 -10 6 9 7 3 4 -18 -3 -17 -1 -35 5
-38 5 -3 10 -14 10 -24 0 -23 29 -81 40 -81 18 0 19 18 0 37 -10 12 -16 23
-14 26 3 3 -2 16 -10 30 -9 13 -14 32 -10 41 7 18 -53 146 -68 146 -4 0 -8 7
-8 16 0 9 -18 51 -40 95 -22 43 -36 79 -32 79 4 0 0 6 -9 13 -22 17 -37 49
-31 66 7 19 36 -31 131 -224z m-1162 -894 c3 -80 21 -150 36 -135 6 7 12 -23
28 -134 6 -46 9 -85 6 -88 -10 -10 -37 99 -37 150 0 29 -7 59 -15 70 -17 23
-19 9 -5 -30 8 -21 8 -30 -2 -36 -10 -8 -10 -11 0 -15 15 -6 17 -83 2 -83 -7
0 -7 -6 0 -19 5 -11 10 -47 10 -81 0 -34 4 -59 8 -56 10 6 7 104 -3 136 -5 15
-3 20 3 16 6 -3 13 -20 17 -36 4 -17 11 -30 16 -30 5 0 9 -5 9 -11 0 -5 -4 -7
-10 -4 -6 4 -10 -5 -10 -20 0 -18 4 -24 13 -19 8 6 8 3 -2 -9 -8 -10 -12 -33
-9 -57 2 -22 0 -40 -4 -40 -4 0 -5 -17 -2 -37 4 -34 3 -35 -6 -14 -6 14 -10
32 -9 40 3 31 -3 76 -8 59 -2 -10 -8 -18 -13 -18 -4 0 -2 -26 6 -57 7 -32 13
-89 14 -127 l0 -68 19 23 c17 21 17 27 5 63 -13 35 -13 41 0 48 9 5 13 15 9
25 -4 10 -2 14 4 10 6 -4 13 -26 16 -50 3 -23 9 -50 12 -58 3 -9 -4 -26 -17
-40 -13 -14 -43 -49 -67 -79 -62 -77 -65 -79 -58 -52 3 13 -1 49 -8 80 -26
111 -33 219 -29 411 2 107 6 196 9 199 5 6 6 -10 11 -263 2 -93 7 -197 12
-230 7 -42 8 27 6 228 -2 178 1 285 7 282 5 -4 9 -36 8 -73 0 -37 2 -78 5 -92
3 -14 8 -52 11 -85 4 -33 11 -64 17 -70 7 -7 8 -4 4 10 -7 24 -14 133 -21 323
-3 79 -6 147 -6 150 -4 26 2 82 9 82 4 0 8 -40 9 -89z"/>
<path d="M6448 5242 c-9 -4 -28 -24 -42 -45 -29 -43 -33 -85 -13 -162 15 -55
38 -70 57 -36 13 25 33 27 54 5 15 -14 16 -14 16 0 0 9 5 16 10 16 6 0 10 -8
10 -17 0 -12 3 -14 8 -6 13 20 57 26 71 9 26 -31 48 -19 55 29 6 38 2 55 -23
108 -41 85 -59 100 -129 104 -31 1 -65 -1 -74 -5z m195 -121 c9 -10 8 -16 -8
-28 -15 -11 -16 -14 -3 -10 22 8 31 -18 12 -34 -11 -9 -23 -9 -54 0 -36 10
-77 9 -122 -5 -34 -10 -55 5 -61 43 -4 20 -5 39 -3 42 8 12 226 5 239 -8z"/>
<path d="M5816 5048 c-14 -24 -35 -65 -47 -92 -21 -48 -21 -51 -5 -103 13 -40
22 -53 37 -53 11 0 19 7 19 16 0 13 7 15 36 11 19 -3 46 -2 60 3 15 6 24 6 24
0 0 -6 -9 -10 -19 -10 -11 0 -22 -4 -25 -8 -2 -4 22 -8 54 -9 53 -2 58 0 55
17 -4 23 10 27 19 5 6 -17 46 -21 46 -5 0 16 0 18 14 64 18 58 7 125 -28 170
l-27 36 -94 0 -94 0 -25 -42z m242 -83 c-1 -14 -6 -25 -10 -25 -5 0 -3 -9 4
-20 10 -16 10 -23 -4 -37 -26 -25 -247 -33 -267 -9 -9 10 -10 20 -4 29 5 6 8
24 7 40 l-3 27 117 1 c64 0 126 4 137 9 11 5 21 9 22 9 2 1 2 -10 1 -24z"/>
<path d="M6710 4341 c-74 -10 -84 -15 -116 -67 -15 -24 -33 -44 -40 -44 -18 0
-21 -17 -19 -135 1 -93 5 -123 30 -195 34 -100 40 -110 71 -110 24 0 38 15 39
40 0 16 36 25 60 16 24 -9 6 -46 -23 -46 -21 0 -23 -3 -14 -12 17 -17 190 -15
252 1 25 7 57 12 72 12 21 -1 31 6 45 31 17 33 19 38 21 70 1 9 9 24 18 32 8
9 11 16 5 16 -6 0 -11 14 -11 30 0 17 -12 54 -26 82 -24 47 -25 53 -10 63 9 7
16 18 16 26 0 10 -3 10 -12 1 -16 -16 -25 -15 -32 6 -13 40 -83 147 -109 166
-31 23 -119 30 -217 17z m209 -36 c25 -12 47 -42 39 -51 -2 -1 -28 2 -58 8
-30 6 -98 8 -151 4 -86 -5 -98 -4 -103 11 -13 32 21 43 136 43 76 0 118 -4
137 -15z m26 -71 c13 -6 55 -81 55 -100 0 -2 -82 -4 -181 -4 l-181 0 6 31 c3
17 6 42 6 55 l0 24 139 0 c77 0 147 -3 156 -6z m-348 -136 c13 -4 21 -2 20 5
-1 7 16 9 48 6 83 -7 298 -5 328 4 26 7 29 5 55 -50 31 -69 34 -129 5 -153
-16 -13 -46 -15 -177 -14 -93 1 -168 -2 -186 -9 -39 -15 -78 3 -85 40 -3 15
-17 63 -31 106 -27 87 -30 110 -11 86 7 -8 22 -18 34 -21z"/>
<path d="M5545 4251 c-37 -22 -54 -42 -89 -103 -22 -40 -32 -48 -56 -48 -37 0
-45 -13 -20 -35 26 -23 25 -33 -5 -77 -39 -58 -51 -116 -32 -158 8 -19 19 -48
24 -65 8 -24 16 -31 41 -33 24 -2 32 1 32 13 0 25 38 31 165 25 107 -5 115 -6
72 -14 -27 -5 -85 -6 -130 -3 -45 3 -73 3 -62 0 11 -3 25 -9 32 -15 11 -9 170
-10 205 0 10 2 18 11 18 18 0 23 26 16 38 -11 14 -31 53 -33 88 -6 18 14 21
20 10 24 -21 8 -8 44 17 52 19 6 20 8 5 12 -10 2 -18 8 -18 13 0 5 8 11 18 13
16 4 16 5 0 6 -23 1 -23 7 3 39 17 22 20 39 18 99 -1 41 3 78 9 86 16 19 -83
168 -118 178 -14 4 -72 7 -130 8 -86 1 -110 -2 -135 -18z m199 -77 c51 -7 59
-17 70 -76 l7 -38 -175 0 c-102 0 -177 4 -181 10 -6 11 32 91 49 102 14 9 167
10 230 2z m94 -161 c0 -27 -3 -52 -6 -58 -4 -5 -8 -18 -9 -28 -7 -41 -24 -59
-51 -54 -66 14 -86 17 -72 11 8 -3 30 -13 49 -21 56 -25 74 -9 94 84 9 43 17
86 17 96 0 9 7 17 15 17 17 0 22 -55 6 -64 -11 -7 -38 -115 -40 -158 -1 -18
-8 -20 -86 -18 -22 0 -116 1 -208 3 -154 2 -170 4 -183 21 -15 22 -19 56 -5
56 4 0 20 -9 34 -20 14 -11 28 -16 31 -11 3 5 -7 14 -23 21 -16 6 -32 17 -34
24 -3 7 10 39 28 71 l34 59 194 -3 c132 -2 197 1 201 8 12 19 15 12 14 -36z"/>
<path d="M8400 7948 c0 -5 17 -8 38 -8 20 0 60 -3 89 -6 l52 -7 -136 -141
c-75 -77 -142 -140 -150 -138 -11 3 -13 -106 -8 -705 3 -389 9 -778 14 -863 5
-85 8 -155 8 -156 -1 0 -14 -8 -29 -17 -37 -23 -36 -58 2 -90 34 -29 37 -51
15 -103 -15 -36 -12 -77 7 -101 12 -14 12 -462 3 -1563 -3 -437 -6 -895 -6
-1017 l-1 -223 -36 -1 -37 -1 44 -10 c35 -8 41 -12 29 -19 -9 -5 -30 -7 -47
-5 -17 2 -31 -1 -31 -5 0 -5 20 -9 45 -9 29 0 45 -5 46 -12 1 -7 2 -20 3 -28
2 -8 3 -27 4 -42 1 -16 7 -28 13 -28 7 0 10 20 7 57 l-3 58 250 7 c256 8 819
9 980 3 384 -15 449 -17 445 -13 -5 5 -162 17 -250 19 -42 1 -43 1 -15 9 22 6
743 22 937 20 15 0 29 4 32 9 3 5 21 5 42 1 40 -9 67 -3 58 12 -4 6 2 8 15 3
16 -5 20 -3 15 9 -6 15 15 21 66 18 8 0 17 3 20 8 3 4 24 1 48 -7 39 -13 46
-13 69 2 19 13 22 19 13 25 -15 9 -42 2 -35 -10 2 -4 -7 -5 -20 -2 -30 5 -44
22 -19 22 16 0 12 14 -4 16 -4 0 -20 3 -37 7 -16 3 -50 9 -75 12 -109 13 -107
23 5 25 61 1 124 2 140 1 28 -1 29 0 7 9 -12 5 -63 12 -114 15 -50 3 -93 7
-95 9 -7 7 144 18 163 12 11 -3 33 -2 49 3 29 9 29 9 5 12 -28 3 -141 7 -297
10 -57 1 -103 6 -103 11 0 4 3 8 8 9 4 0 18 2 32 5 14 2 55 6 93 10 62 6 67 5
60 -12 -5 -14 -3 -16 12 -10 10 4 62 9 114 13 90 5 155 20 106 24 -11 1 -33 3
-50 4 -16 2 -67 6 -113 9 -45 3 -87 8 -93 12 -6 3 -30 3 -55 -1 -52 -7 -57 4
-15 34 47 34 137 152 181 236 46 91 98 225 130 335 12 41 26 89 31 105 8 24
50 219 86 400 3 17 6 47 7 68 0 20 4 37 8 37 8 0 3 192 -6 265 -2 17 -7 57
-11 90 -4 32 -9 68 -12 80 -2 11 -6 31 -9 45 -37 200 -50 241 -97 323 -22 37
-37 71 -33 74 3 3 -8 24 -24 46 -17 23 -30 45 -30 50 0 6 -19 31 -42 58 -59
65 -68 77 -68 88 0 5 -6 11 -12 14 -8 2 -9 8 -4 13 5 5 11 4 13 -3 3 -7 9 -13
14 -13 16 0 88 62 86 73 -1 5 21 26 50 46 33 23 47 38 40 43 -19 12 21 10 44
-2 26 -14 24 -36 -3 -44 -33 -8 -40 -7 -32 6 5 7 3 8 -5 4 -7 -5 -10 -10 -7
-13 5 -6 -37 -43 -49 -43 -3 0 -13 -7 -21 -15 -21 -21 -16 -19 51 15 32 16 60
28 62 27 8 -9 -36 -46 -60 -52 -15 -4 -27 -11 -27 -16 0 -5 -10 -9 -22 -9 -22
-1 -22 -1 -5 -15 18 -13 17 -15 -12 -46 -34 -35 -37 -44 -20 -55 6 -4 39 24
76 65 36 39 72 71 79 71 14 0 18 12 15 38 -1 6 3 12 8 12 6 0 15 10 22 21 10
19 7 26 -20 51 -18 17 -43 48 -57 69 -22 36 -23 41 -10 62 8 12 15 25 15 30 0
4 10 29 21 55 34 75 19 97 -94 136 -17 6 -17 8 -2 31 9 13 16 36 16 50 0 28 3
29 31 15 12 -7 19 -7 19 -1 0 5 -9 12 -19 16 -27 8 -33 31 -21 76 6 21 10 53
9 71 -1 30 5 90 16 173 2 17 4 45 4 63 1 21 6 32 16 32 12 0 13 4 4 19 -9 14
-8 25 4 50 14 28 14 32 2 27 -8 -3 -15 -1 -15 4 0 6 5 10 10 10 6 0 10 9 10
21 0 11 -4 17 -10 14 -5 -3 -10 1 -10 9 0 9 4 16 8 16 16 0 -6 146 -34 225 -8
22 -14 49 -13 60 0 11 -2 31 -6 45 -6 24 -6 25 10 5 9 -11 15 -29 14 -40 -1
-11 0 -23 1 -27 1 -5 3 -11 4 -15 2 -14 36 -58 36 -47 0 5 -4 14 -8 19 -5 6
-14 36 -21 68 -7 32 -21 65 -31 75 -16 15 -70 173 -70 205 0 6 -10 21 -22 34
-17 18 -19 26 -10 32 10 6 10 11 -3 21 -8 7 -15 17 -15 23 0 6 -27 43 -60 83
-56 69 -57 81 0 45 15 -10 21 -11 16 -3 -4 7 -28 23 -54 36 -26 14 -74 51
-107 83 -59 58 -109 91 -239 158 -112 59 -74 55 62 -7 24 -11 46 -17 49 -14
17 16 -225 103 -392 140 -122 26 -159 36 -180 46 -11 5 -36 11 -55 14 -19 2
-71 9 -115 15 -44 6 -95 14 -113 17 -21 3 -32 2 -28 -5 4 -6 -52 -7 -156 -4
-267 8 -1108 9 -1108 1z m394 -33 c78 -3 285 -8 461 -11 176 -3 340 -7 365 -9
25 -2 69 -4 98 -6 28 -1 52 -7 52 -13 0 -6 5 -5 12 2 18 18 62 16 54 -3 -6
-17 9 -21 19 -5 4 7 11 8 18 1 7 -5 23 -9 37 -10 42 0 90 -13 90 -23 0 -6 7
-8 15 -4 8 3 15 0 15 -7 0 -9 2 -9 8 -1 7 11 24 8 202 -43 76 -22 185 -74 266
-126 74 -48 211 -184 258 -257 16 -25 41 -63 56 -85 15 -22 36 -58 47 -80 38
-75 108 -327 95 -340 -7 -6 -32 50 -32 73 0 8 -8 21 -17 29 -13 10 -15 16 -5
19 6 3 12 10 12 15 0 5 -6 8 -12 7 -7 -2 -12 3 -10 10 1 6 -2 11 -7 10 -5 -2
-16 6 -24 17 -9 11 -18 17 -21 14 -4 -3 3 -17 14 -32 11 -14 20 -31 20 -37 0
-19 -43 40 -45 60 -1 10 -9 29 -18 43 -9 15 -17 30 -17 34 0 4 5 1 10 -7 6 -9
10 -10 10 -3 0 6 -11 20 -25 30 -14 10 -27 29 -30 43 -5 26 -30 50 -52 50 -7
0 -13 4 -13 8 0 8 -125 102 -136 102 -3 0 -18 9 -34 20 -15 11 -40 24 -56 30
-29 10 -29 10 -8 -7 76 -63 164 -127 178 -129 8 -1 28 -17 43 -35 30 -35 68
-103 51 -93 -5 3 6 -14 24 -37 18 -24 46 -73 61 -109 16 -36 35 -79 43 -97 8
-17 14 -39 14 -50 -1 -10 -20 20 -43 67 -98 195 -181 297 -342 415 -127 93
-318 196 -432 233 -172 56 -186 57 -758 54 -291 -1 -617 -7 -724 -12 -107 -5
-201 -6 -209 -1 -11 6 10 33 95 117 61 60 114 119 117 131 10 32 36 55 54 48
9 -3 79 -8 156 -10z m-341 -308 c31 1 57 -1 57 -5 0 -4 267 -7 592 -7 641 0
737 -5 908 -52 364 -99 605 -269 729 -513 55 -108 59 -118 122 -295 43 -122
47 -159 22 -174 -17 -10 -17 -10 0 -11 13 0 18 -7 16 -22 -3 -25 9 -167 17
-211 5 -26 5 -27 -20 -16 -19 9 -35 9 -62 1 -30 -9 -36 -8 -41 6 -18 46 -84
82 -102 54 -6 -9 -65 -42 -74 -42 -3 0 -7 11 -9 25 -3 15 -1 25 7 25 6 0 20 9
30 20 14 16 26 19 47 15 23 -6 28 -3 28 13 0 11 9 22 19 25 17 4 20 13 19 63
0 33 3 69 7 81 5 16 1 28 -19 48 -19 19 -24 32 -20 54 5 22 1 32 -21 49 -37
29 -102 38 -140 18 -43 -23 -63 -20 -95 14 -28 30 -62 38 -90 20 -13 -8 -12
-10 4 -10 17 0 18 -2 7 -12 -11 -11 -14 -10 -18 0 -3 7 -11 19 -19 27 -9 8
-10 16 -4 20 5 3 10 1 10 -6 0 -22 13 0 16 28 2 18 -9 43 -33 76 -34 46 -36
52 -24 81 11 29 10 33 -25 63 -45 39 -97 52 -122 30 -23 -21 -68 -31 -77 -18
-4 8 -15 5 -32 -9 -34 -26 -51 -25 -62 3 -5 13 -22 38 -38 57 -15 18 -32 47
-38 64 -7 22 -17 32 -35 34 l-25 4 22 -21 c25 -23 39 -64 28 -80 -3 -6 5 -15
19 -21 14 -5 34 -27 46 -50 17 -33 25 -39 43 -35 74 17 107 26 149 41 47 16
55 16 93 -8 36 -23 48 -58 20 -58 -20 0 -19 -26 3 -48 9 -10 26 -32 38 -48
l21 -29 -24 -38 c-13 -20 -28 -37 -33 -37 -6 0 -10 -5 -10 -11 0 -8 4 -8 15 1
12 10 20 8 44 -12 32 -24 38 -55 20 -90 -13 -25 -5 -35 16 -18 11 9 14 22 9
47 l-6 34 43 -7 c24 -4 50 -11 56 -16 9 -7 26 -5 53 6 52 21 96 20 140 -2 35
-17 37 -22 24 -74 -5 -21 -3 -28 9 -28 8 0 21 -7 28 -16 11 -14 10 -18 -5 -30
-10 -7 -24 -15 -30 -18 -6 -2 1 -16 17 -31 26 -25 27 -28 13 -44 -9 -10 -16
-23 -16 -29 0 -7 -6 -12 -14 -12 -9 0 -12 7 -9 20 3 11 4 20 2 20 -2 0 -35
-11 -74 -25 -71 -26 -93 -40 -82 -51 7 -7 16 -3 65 26 17 11 32 16 32 11 0 -4
-16 -16 -35 -27 -19 -10 -35 -22 -35 -26 0 -4 -20 -19 -44 -33 -48 -28 -72
-52 -63 -61 9 -9 78 36 112 73 16 18 36 33 44 33 8 0 -5 -18 -30 -41 -35 -32
-41 -42 -29 -49 8 -6 21 -10 28 -10 15 0 16 16 2 23 -6 3 -5 4 2 3 27 -5 20
-36 -11 -49 -22 -9 -28 -16 -21 -27 9 -15 30 -1 80 51 19 20 60 42 67 36 2 -3
-8 -14 -24 -24 -40 -26 -98 -81 -92 -88 3 -3 19 6 34 20 16 13 31 22 33 20 2
-2 -9 -15 -24 -29 -16 -13 -26 -27 -23 -31 4 -3 20 6 37 20 36 30 51 31 85 5
35 -28 45 -25 17 5 -13 14 -28 25 -34 25 -12 0 -41 40 -29 40 5 0 19 3 32 7
18 5 22 3 16 -7 -6 -10 -2 -11 18 -6 22 5 25 3 20 -10 -5 -14 2 -15 59 -9 77
8 98 -4 90 -55 -3 -22 -12 -35 -31 -43 l-26 -11 28 -4 c21 -2 27 -9 27 -27 0
-35 -17 -74 -43 -97 l-22 -19 23 11 c15 7 22 7 22 0 0 -5 -4 -10 -9 -10 -5 0
-23 -12 -40 -26 l-30 -25 -28 26 c-55 52 -66 47 -19 -9 50 -57 49 -57 86 -28
3 3 -6 1 -20 -3 -30 -9 -26 -4 23 29 20 14 37 22 37 18 -2 -41 -26 -101 -48
-119 -16 -14 -20 -20 -9 -17 11 4 17 1 17 -7 0 -26 -82 -184 -116 -226 -19
-23 -34 -46 -34 -52 0 -6 -4 -11 -10 -11 -16 0 -12 19 10 42 15 17 17 24 8 30
-10 6 -9 8 3 8 8 0 23 17 33 37 l18 38 -23 -20 c-34 -28 -61 -51 -87 -75 -18
-16 -27 -18 -42 -10 -11 6 -20 14 -19 18 0 4 28 30 62 57 38 32 61 58 62 72
l2 23 -41 -23 c-79 -45 -90 -52 -107 -71 -14 -18 -19 -18 -48 -7 -17 8 -31 17
-31 21 0 11 30 21 41 15 5 -4 6 0 3 8 -3 8 -1 18 5 22 6 3 11 1 11 -5 0 -6 5
-8 10 -5 16 10 11 24 -7 20 -36 -7 -68 -23 -86 -43 -17 -19 -17 -20 6 -26 13
-3 43 -25 68 -48 24 -24 53 -48 63 -53 18 -10 18 -12 1 -45 -9 -19 -36 -55
-59 -80 l-41 -45 47 45 c35 32 51 41 59 33 21 -21 -2 -49 -96 -113 -53 -35
-103 -72 -112 -82 -15 -17 -15 -18 4 -18 10 0 28 -8 39 -18 11 -11 33 -25 49
-33 40 -19 41 -35 6 -54 -17 -8 -31 -20 -31 -25 0 -6 17 -2 38 9 36 18 38 18
72 0 78 -42 228 -217 290 -339 33 -65 22 -92 -21 -49 -15 15 -24 18 -32 10
-18 -18 27 -56 66 -56 31 0 33 -2 60 -85 57 -175 94 -348 68 -324 -6 5 -18 47
-26 92 -17 101 -38 144 -29 62 3 -30 10 -68 14 -85 5 -16 19 -79 31 -140 18
-94 21 -129 15 -240 -3 -71 -12 -159 -20 -195 -8 -36 -21 -99 -29 -140 -15
-73 -43 -148 -61 -161 -5 -4 -5 -12 -2 -18 4 -6 0 -11 -9 -11 -11 0 -15 -5
-11 -15 3 -8 1 -15 -4 -15 -5 0 -12 -10 -15 -22 -28 -92 -210 -313 -266 -325
-16 -3 -29 -10 -29 -15 0 -5 -6 -6 -12 -3 -7 4 -4 -1 7 -10 20 -16 20 -16 1
-31 -23 -16 -36 -18 -36 -4 0 6 -10 5 -25 -2 -14 -6 -25 -14 -25 -18 0 -15
-88 -54 -203 -91 -315 -101 -580 -120 -1332 -95 -374 12 -393 12 -412 4 -10
-3 19 -7 65 -7 143 -2 81 -17 -75 -20 -81 -1 -156 -3 -166 -4 -18 -2 -19 9
-15 208 1 116 3 445 3 733 -1 287 3 522 7 522 4 0 8 -24 9 -52 4 -196 11 -285
18 -258 4 14 6 50 4 80 -10 192 -17 273 -20 258 -9 -38 -18 -15 -19 47 -1 36
2 65 5 65 3 0 6 142 6 316 l0 317 40 1 c26 1 46 -5 58 -16 21 -22 43 -22 103
-2 36 12 49 13 58 4 8 -9 8 -14 -1 -17 -18 -7 -99 -83 -88 -83 6 0 30 16 54
35 24 19 47 35 51 35 12 0 30 -26 23 -34 -9 -9 -11 -46 -3 -46 7 0 44 40 85
90 15 20 13 19 -13 -4 -25 -23 -35 -27 -44 -18 -9 9 -3 20 28 48 l39 36 -37
-26 c-20 -14 -41 -26 -47 -26 -18 0 -12 26 10 46 l20 18 -22 8 c-15 6 -41 1
-83 -16 -76 -30 -112 -30 -109 2 3 28 -14 28 -43 1 -15 -14 -29 -19 -43 -14
l-21 6 22 32 c14 19 21 42 19 60 -1 17 5 37 16 49 32 36 95 78 118 78 13 0 30
10 38 23 13 17 18 19 25 9 7 -10 16 -5 40 22 17 20 34 36 37 36 3 0 10 -10 14
-22 6 -17 4 -28 -8 -42 -10 -11 1 -7 27 10 39 26 41 29 22 36 -11 4 -23 16
-26 25 -3 10 -12 30 -19 44 -12 22 -12 29 6 57 40 67 12 79 -37 15 -17 -22
-23 -38 -16 -42 15 -9 -55 -91 -79 -91 -28 0 -24 8 24 51 25 23 34 36 22 32
l-20 -6 20 24 c11 13 56 61 100 107 44 46 84 93 88 105 5 13 -23 -9 -64 -50
-39 -40 -73 -73 -75 -73 -2 0 -18 -15 -36 -34 -32 -32 -78 -63 -78 -51 0 6 87
103 169 189 37 39 50 57 37 55 -11 -2 -49 -38 -84 -79 -36 -41 -76 -82 -89
-90 -13 -8 -23 -21 -23 -28 0 -9 -6 -12 -16 -8 -9 3 -20 6 -25 6 -21 0 -4 22
81 110 50 51 90 94 90 96 0 26 -164 -119 -192 -169 -5 -10 -16 -17 -23 -17
-22 0 -18 -10 12 -42 23 -24 26 -32 15 -48 -6 -11 -9 -26 -6 -33 3 -8 -2 -17
-10 -20 -17 -7 -38 -71 -29 -93 3 -8 -9 -30 -26 -49 -35 -40 -63 -90 -55 -98
8 -8 -6 -47 -17 -47 -5 0 -9 95 -9 231 0 217 1 231 18 223 45 -21 82 -9 137
46 30 29 52 57 49 62 -3 5 6 22 20 39 14 17 26 35 26 40 0 22 -20 5 -58 -48
-56 -81 -95 -115 -123 -111 -18 2 -23 9 -22 26 3 24 -7 28 -25 10 -16 -16 -24
-5 -29 37 -3 31 2 41 32 70 37 36 48 72 19 61 -23 -9 -54 22 -54 53 0 33 14
56 29 46 7 -4 19 -4 29 0 14 5 14 7 2 16 -12 8 -12 12 -2 16 10 4 10 8 1 19
-9 11 -8 14 4 14 8 0 17 -6 20 -12 4 -10 7 -10 18 0 11 10 9 15 -9 28 -23 16
-31 41 -9 28 9 -6 9 -5 -1 8 -17 22 9 42 43 34 21 -5 27 -2 35 18 10 28 64 60
86 52 16 -6 44 3 44 14 0 4 -14 10 -30 14 -33 6 -46 26 -35 54 5 9 9 24 11 32
4 19 51 60 69 60 8 0 30 -8 49 -17 33 -15 37 -15 54 0 19 18 42 23 42 10 -1
-14 -27 -43 -39 -43 -6 0 -11 -7 -11 -16 0 -8 -18 -41 -39 -73 -40 -58 -61
-111 -45 -110 5 0 23 28 39 62 21 44 61 94 138 174 60 61 116 121 124 133 29
42 -18 6 -79 -59 -50 -54 -78 -74 -78 -55 0 17 78 110 114 136 40 30 40 30 11
24 -27 -6 -53 -30 -138 -124 -30 -34 -53 -42 -43 -17 7 19 -3 19 -25 -1 -10
-9 -23 -13 -30 -9 -8 6 -7 10 4 17 9 5 14 14 11 21 -2 7 4 22 16 32 34 31 23
52 -27 46 -6 -1 -14 8 -18 19 l-7 21 -35 -21 c-20 -11 -38 -19 -40 -16 -3 3 7
21 22 40 15 20 23 36 17 36 -6 0 -22 -15 -35 -34 -15 -24 -27 -32 -36 -27 -17
11 -2 41 35 70 23 18 24 22 9 27 -20 8 -95 -61 -95 -86 0 -22 70 -72 84 -61
23 19 73 22 86 6 19 -23 -9 -58 -90 -110 -64 -41 -70 -48 -70 -79 0 -18 7 -39
15 -46 19 -16 19 -31 0 -24 -8 4 -30 -11 -54 -35 -25 -25 -49 -41 -64 -41 -13
0 -31 -6 -42 -13 -16 -12 -16 -18 -7 -47 12 -34 0 -66 -19 -54 -5 3 -9 276 -9
626 0 341 -5 708 -11 814 -12 215 -10 230 40 216 14 -4 52 -6 84 -5z m2545
-1677 c58 -28 81 -80 36 -80 -16 0 -19 -16 -5 -25 16 -9 -8 -62 -35 -80 l-25
-16 36 -45 c20 -24 32 -44 28 -44 -5 0 -23 -14 -41 -31 -17 -17 -36 -28 -42
-24 -6 3 -39 -21 -74 -54 -34 -34 -68 -61 -74 -61 -6 0 -22 11 -36 25 l-25 25
38 62 c40 68 114 225 140 298 15 42 29 70 35 70 1 0 21 -9 44 -20z m-225 -503
c27 -29 70 -81 96 -116 58 -76 157 -273 166 -327 l5 -39 -17 35 c-9 19 -36 73
-58 120 -64 133 -126 221 -239 339 -43 45 -47 52 -26 46 14 -3 47 -30 73 -58z"/>
<path d="M9787 7279 c-10 -6 -38 -11 -63 -11 -63 0 -124 -36 -170 -103 -40
-60 -45 -63 -64 -40 -18 22 -57 18 -81 -6 -19 -19 -26 -21 -54 -10 -50 18 -61
14 -121 -44 -53 -51 -56 -57 -46 -80 8 -17 20 -25 37 -25 30 0 32 -18 5 -53
-24 -31 -25 -35 -3 -59 9 -10 11 -18 5 -18 -6 0 -13 4 -17 9 -3 6 -17 4 -33
-5 -15 -7 -31 -14 -37 -14 -15 -1 -55 -37 -55 -49 0 -16 15 -13 30 4 9 11 22
14 42 10 24 -6 28 -4 28 15 0 19 4 21 27 15 16 -4 30 -9 32 -11 19 -19 23
-448 5 -526 -4 -17 -2 -28 4 -28 5 0 10 -15 10 -32 0 -18 1 -37 2 -43 1 -5 2
-25 1 -42 -1 -43 -31 -44 -69 -5 l-27 28 -38 -30 c-52 -41 -64 -26 -38 45 29
76 25 84 -9 19 -16 -30 -40 -68 -53 -85 -21 -25 -27 -28 -41 -16 -20 17 -20
35 0 66 9 13 14 30 12 36 -6 17 -48 -53 -48 -79 0 -11 11 -29 25 -40 23 -18
24 -23 14 -46 -7 -14 -25 -31 -41 -38 -16 -8 -26 -18 -23 -26 3 -7 0 -10 -5
-7 -6 4 -24 10 -40 15 -37 10 -43 -13 -7 -25 12 -5 30 -11 40 -14 16 -5 16 -8
4 -25 -12 -17 -18 -17 -51 -6 -46 15 -55 34 -32 73 10 17 13 34 8 39 -5 5 -16
-9 -27 -32 -20 -45 -22 -46 -53 -24 -24 17 -27 61 -4 56 6 -1 12 5 12 13 0 9
7 30 16 48 l15 32 -20 -25 c-11 -14 -21 -29 -21 -33 0 -5 -4 -5 -10 -2 -5 3
-7 0 -4 -8 3 -8 -2 -17 -10 -20 -34 -13 -3 -97 35 -97 6 0 25 -12 43 -27 17
-14 46 -32 65 -40 31 -13 35 -13 57 8 30 28 31 17 2 -30 l-21 -36 39 35 c21
19 50 41 63 48 l24 14 -22 -31 c-29 -40 -17 -40 20 0 28 30 55 35 30 6 -8 -11
-6 -18 9 -32 11 -10 20 -13 20 -7 0 7 5 12 11 12 6 0 27 14 46 30 20 18 45 30
62 30 26 0 29 -4 42 -57 7 -32 13 -60 12 -63 0 -3 -4 -15 -8 -27 -6 -22 -3
-23 39 -23 43 0 59 -11 36 -25 -5 -3 -10 -12 -10 -18 1 -7 11 0 23 14 18 21
37 28 107 38 114 17 149 30 206 79 27 22 61 43 75 47 16 4 34 21 47 43 30 53
67 92 86 92 9 0 16 5 16 11 0 6 7 8 16 5 14 -5 15 -1 9 30 -7 40 9 40 19 1 11
-46 68 -157 77 -151 13 8 11 25 -4 43 -7 9 -19 29 -25 45 -11 24 -11 28 3 23
10 -5 15 0 15 14 0 11 7 22 15 25 9 4 15 19 15 35 0 20 5 29 16 29 10 0 14 5
10 15 -8 20 -14 42 -9 33 3 -5 13 -8 23 -8 10 0 22 -4 25 -10 3 -5 2 -10 -3
-10 -5 0 -14 -17 -20 -39 -8 -24 -20 -41 -32 -44 -11 -3 -20 -13 -20 -22 0
-14 3 -15 15 -5 13 11 14 8 9 -21 -4 -19 -10 -38 -14 -42 -4 -5 -1 -22 7 -38
8 -16 12 -36 9 -44 -3 -8 -1 -15 5 -15 5 0 2 -14 -6 -31 -20 -38 -9 -53 14
-19 26 39 113 130 125 130 5 0 -7 -18 -29 -40 -21 -22 -36 -43 -32 -46 4 -4 7
-2 7 4 0 7 5 12 11 12 5 0 7 -5 3 -12 -4 -7 -3 -8 5 -4 6 4 9 11 6 16 -3 5 -1
11 4 15 6 3 22 -8 36 -24 24 -26 33 -29 83 -28 60 0 140 -23 183 -54 l27 -19
26 40 c27 41 20 54 -12 22 -15 -15 -52 -19 -52 -5 0 3 22 27 48 52 26 25 44
43 38 39 -23 -18 -28 -6 -6 17 29 31 14 33 -20 3 -14 -13 -29 -23 -35 -23 -5
0 -36 -13 -68 -29 -47 -24 -60 -27 -70 -16 -8 9 -8 11 0 6 6 -3 24 4 40 17 15
12 73 52 128 89 102 67 133 93 121 105 -3 4 -21 -8 -39 -25 -33 -32 -57 -41
-57 -22 0 24 -20 50 -39 50 -6 0 -11 5 -11 10 0 6 -7 10 -15 10 -9 0 -19 10
-24 22 -8 21 -10 20 -36 -20 -27 -42 -41 -48 -95 -43 -34 3 -60 33 -49 54 5 9
15 14 22 11 7 -2 23 10 36 27 13 18 17 28 10 24 -8 -5 -20 -17 -27 -27 -7 -10
-17 -16 -22 -13 -5 3 -11 1 -15 -5 -8 -13 -35 -13 -35 -1 0 5 12 23 26 40 14
17 21 31 16 31 -6 0 -22 -14 -36 -32 -20 -26 -26 -29 -31 -16 -3 8 3 33 14 54
32 59 25 61 -24 7 -26 -29 -44 -42 -45 -33 0 9 5 21 12 28 9 9 9 12 -2 12 -11
0 -11 3 -2 12 7 7 12 17 12 23 -1 5 -18 -10 -39 -34 -40 -45 -67 -48 -59 -7 4
20 1 22 -29 19 -23 -1 -33 2 -33 12 0 8 5 15 10 15 6 0 10 6 10 14 0 7 11 31
25 52 l26 39 -41 -42 c-31 -33 -40 -38 -40 -23 0 10 5 22 10 25 6 3 10 10 10
16 0 5 -4 9 -10 9 -5 0 -10 -7 -10 -15 0 -8 -4 -15 -10 -15 -5 0 -10 -6 -10
-12 -1 -23 -37 -58 -54 -52 -9 3 -23 1 -31 -6 -32 -27 -48 19 -17 54 16 20 16
20 -1 6 -18 -13 -18 -11 -14 35 5 64 -19 181 -45 218 -11 15 -18 30 -15 33 6
6 52 -72 62 -106 4 -14 8 -37 7 -53 0 -15 4 -25 9 -21 16 9 -1 114 -26 164
-13 25 -34 51 -47 57 -12 6 -57 41 -98 77 -92 82 -157 105 -304 111 -54 2
-100 6 -103 9 -2 2 0 14 7 25 14 27 6 27 -18 1 -19 -21 -46 -19 -55 4 -3 6 8
38 24 70 28 57 31 90 5 53 -18 -23 -31 -21 -50 8 -16 24 -16 25 16 45 18 11
36 20 40 20 4 0 5 7 2 15 -5 12 2 15 34 15 23 0 45 -6 52 -15 16 -20 51 -20
44 -1 -12 31 58 41 94 13 16 -13 35 3 79 70 29 44 40 53 64 53 18 0 28 5 27
12 -2 9 18 16 57 21 33 5 68 13 77 18 30 16 66 10 82 -13 9 -12 19 -18 23 -14
5 4 -5 19 -20 32 -30 26 -78 31 -110 13z m-233 -524 c89 -27 184 -112 227
-202 37 -79 38 -135 4 -185 -28 -41 -30 -48 -15 -48 6 0 18 18 26 41 12 29 19
37 25 27 11 -16 2 -115 -13 -146 -9 -17 -9 -25 0 -34 21 -21 14 -100 -12 -139
-24 -34 -28 -36 -113 -48 -48 -7 -103 -13 -121 -15 -18 -2 -49 -15 -69 -29
-21 -15 -38 -25 -40 -23 -2 2 -6 131 -9 287 -3 156 -7 318 -8 359 -1 41 1 86
4 100 5 16 2 30 -7 38 -35 33 36 43 121 17z m934 -683 c-1 -5 -36 -37 -76 -71
-40 -35 -71 -65 -68 -68 3 -3 12 -1 20 6 8 6 24 14 36 16 21 4 32 11 84 58 25
22 43 22 25 0 -37 -46 -159 -143 -159 -126 0 4 12 20 28 37 l27 30 -28 -17
c-15 -10 -32 -15 -36 -12 -5 3 -29 -11 -52 -31 -24 -20 -45 -31 -47 -25 -2 6
-9 11 -17 11 -7 0 -18 6 -24 13 -8 11 -6 18 11 33 21 19 21 19 14 0 -5 -16 -4
-17 9 -6 18 15 2 32 -22 23 -25 -10 -3 24 25 38 15 7 35 20 45 28 12 10 17 11
17 2 0 -7 5 -9 13 -5 6 4 1 -5 -12 -19 -14 -15 -31 -27 -39 -27 -8 0 -12 -6
-8 -15 3 -8 1 -26 -4 -40 -11 -29 -1 -33 21 -7 8 9 32 32 54 49 21 18 36 35
33 38 -3 3 -20 -6 -37 -20 -17 -15 -31 -23 -31 -18 0 16 47 55 62 51 8 -2 36
16 62 40 43 37 83 56 74 34z"/>
<path d="M9150 6914 c-27 -31 -50 -36 -86 -19 -42 20 -69 13 -111 -29 -70 -68
-69 -67 -102 -49 -28 16 -31 16 -102 -12 -41 -16 -80 -33 -87 -39 -13 -10 -12
-46 3 -92 6 -19 2 -22 -44 -28 -68 -9 -67 -35 2 -43 25 -3 28 -1 18 11 -10 12
-6 15 18 21 17 3 35 4 41 0 25 -15 29 9 5 37 -43 51 -33 77 39 101 67 23 115
22 142 -4 18 -17 22 -18 27 -5 3 9 2 18 -3 21 -15 9 -12 22 6 29 11 4 15 2 11
-8 -4 -9 2 -16 15 -20 30 -7 39 1 32 30 -10 37 21 67 60 58 17 -3 39 -13 48
-21 16 -14 20 -12 51 21 19 20 39 36 46 36 6 0 11 5 11 10 0 15 -26 12 -40 -6z"/>
<path d="M9808 5688 c-8 -13 -20 -38 -27 -55 -8 -18 -17 -33 -21 -33 -4 0 -11
-10 -15 -22 -7 -21 -8 -20 -12 9 -2 18 1 41 7 53 6 11 7 20 2 20 -10 0 -34
-51 -31 -66 4 -25 -5 -23 -48 9 -44 31 -108 55 -101 37 2 -4 23 -23 48 -42 25
-19 46 -43 48 -55 4 -26 -37 -75 -80 -96 -31 -15 -34 -15 -51 4 -21 22 -37 17
-37 -11 0 -22 -16 -35 -25 -20 -4 6 0 21 7 33 21 33 38 87 28 87 -5 0 -19 -17
-30 -37 -25 -49 -48 -78 -55 -71 -3 3 2 21 11 39 33 64 33 65 13 77 -10 7 -19
8 -19 4 0 -5 -9 -19 -20 -32 -11 -13 -20 -28 -20 -35 0 -20 -44 -55 -58 -46
-10 6 -10 15 -3 34 12 31 7 34 -16 12 -18 -19 -39 -14 -37 9 2 20 -12 21 -20
1 -3 -8 -1 -15 4 -15 16 0 11 -30 -6 -37 -8 -3 -25 4 -39 17 -31 29 -41 21
-21 -18 13 -25 13 -32 0 -50 -15 -22 -74 -56 -82 -47 -3 2 1 11 8 19 6 9 10
21 8 27 -2 7 -15 -5 -28 -26 -14 -22 -26 -33 -28 -26 -2 7 2 17 9 22 7 4 10
11 6 16 -5 4 -17 -3 -28 -17 -16 -21 -20 -23 -29 -10 -9 13 -12 13 -24 -2 -7
-10 -23 -18 -34 -18 -33 0 -35 -17 -2 -18 16 0 39 -7 52 -15 42 -25 112 -9
177 42 41 32 69 44 82 35 5 -3 4 -11 -3 -18 -7 -7 -24 -27 -38 -45 -56 -74
-131 -124 -122 -83 3 17 -30 12 -36 -6 -2 -7 2 -10 12 -6 9 3 16 2 16 -4 0
-17 -57 -72 -74 -72 -26 0 -98 71 -91 89 4 10 -3 7 -17 -7 l-23 -24 25 -16
c14 -9 38 -29 53 -44 16 -16 33 -28 38 -28 6 0 -4 -20 -21 -44 -16 -25 -30
-51 -30 -59 0 -17 -54 -87 -123 -160 -25 -27 -61 -69 -79 -94 -43 -60 -78 -96
-84 -90 -12 11 72 124 156 211 50 51 90 98 90 103 0 6 7 16 15 23 8 7 15 17
15 23 0 6 -13 -2 -30 -18 -16 -15 -27 -33 -23 -38 4 -6 1 -7 -6 -3 -8 5 -25
-7 -46 -31 -111 -128 -136 -159 -161 -208 -16 -30 -35 -55 -41 -55 -18 0 -10
36 14 62 11 13 29 37 39 53 l19 30 -38 -32 c-21 -18 -41 -33 -45 -33 -4 0 -16
-14 -26 -32 -19 -31 -19 -32 2 -46 12 -8 22 -23 22 -33 0 -21 34 -27 45 -9 4
6 15 8 24 5 10 -3 24 1 31 10 7 8 24 15 38 15 14 0 39 11 56 23 47 36 92 41
133 16 36 -22 63 -20 63 6 0 8 5 15 10 15 6 0 10 7 10 15 0 8 9 19 19 25 26
13 31 13 31 -4 0 -8 6 -17 13 -20 8 -3 2 -13 -18 -30 -16 -14 -26 -28 -23 -31
7 -7 64 20 73 35 3 5 21 10 40 10 27 0 40 8 69 42 39 46 40 44 26 -31 -8 -44
-12 -478 -10 -1023 l1 -148 35 0 c20 0 34 -5 34 -12 0 -29 -143 -180 -210
-223 -37 -24 -71 -48 -74 -54 -3 -5 -29 -17 -56 -26 -65 -22 -75 -38 -11 -19
90 26 219 103 277 163 120 127 145 188 189 476 13 88 16 195 4 195 -8 0 -9 4
0 13 6 8 13 67 16 133 3 65 8 135 10 154 4 31 3 32 -5 11 -14 -32 -18 -26 -24
43 -5 56 -4 58 10 38 8 -12 13 -26 9 -31 -3 -5 0 -13 6 -17 14 -8 4 241 -13
331 -19 103 -65 170 -156 231 -92 61 -206 177 -156 157 13 -5 15 -3 9 8 -4 8
7 0 26 -17 19 -17 66 -50 104 -72 73 -42 122 -88 170 -160 36 -55 45 -46 11
12 -14 24 -26 50 -26 56 0 6 -9 20 -20 32 -12 13 -16 26 -11 32 5 6 12 27 16
46 l7 34 18 -34 c9 -19 20 -63 23 -98 4 -34 14 -75 22 -90 15 -26 16 -24 11
43 -3 39 -15 117 -26 175 -11 58 -21 112 -22 120 -1 14 -9 26 -39 58 -31 34
-72 93 -67 98 3 2 27 -21 54 -53 27 -32 51 -60 54 -63 3 -3 21 -29 39 -58 19
-29 36 -51 38 -48 3 2 0 13 -6 24 -6 11 -8 22 -5 24 2 3 -2 11 -11 18 -20 17
-19 37 5 67 l20 26 2 -24 c1 -13 2 -33 3 -44 1 -11 3 -44 4 -72 1 -40 5 -53
16 -53 10 0 15 -10 15 -30 0 -16 -4 -30 -9 -30 -5 0 -3 -12 4 -27 8 -16 17
-41 20 -58 6 -29 6 -29 -9 -11 -21 26 -20 8 3 -62 10 -31 24 -78 31 -104 12
-45 29 -64 31 -35 2 17 2 16 -21 77 -27 75 -24 76 11 5 24 -49 29 -55 29 -32
0 15 5 27 10 27 13 0 13 43 -1 57 -14 14 -2 53 16 53 34 0 121 140 175 280 17
47 35 87 39 90 3 3 6 13 7 23 2 52 5 65 18 83 22 30 29 10 10 -28 -12 -21 -18
-59 -20 -108 -1 -41 -5 -83 -9 -92 -11 -28 2 -21 46 22 41 40 78 57 44 20 -19
-21 -38 -51 -54 -86 -5 -11 -15 -27 -23 -35 -14 -15 -63 -95 -116 -190 -18
-31 -32 -66 -32 -78 0 -13 -4 -19 -11 -16 -6 4 -13 -2 -16 -14 -3 -11 -9 -18
-14 -15 -5 3 -6 -2 -3 -10 3 -8 1 -23 -5 -33 -6 -11 -11 -13 -11 -5 0 22 -20
2 -20 -20 0 -17 2 -18 15 -8 13 11 15 10 11 -1 -3 -8 -8 -27 -10 -43 -3 -16
-10 -34 -15 -39 -6 -6 -6 4 -1 27 4 20 4 36 -1 36 -5 0 -11 -12 -14 -27 -3
-16 -10 -41 -16 -58 -16 -45 -40 -138 -40 -155 0 -8 -7 -64 -15 -125 -16 -116
-27 -240 -24 -265 1 -8 4 -58 6 -110 2 -52 6 -110 7 -127 2 -18 4 -42 5 -54 1
-11 6 -18 11 -15 4 3 6 16 4 30 -3 13 0 27 6 30 7 5 11 -6 11 -33 0 -22 4 -51
10 -66 7 -19 7 -24 -2 -19 -8 5 -9 2 -5 -9 3 -10 2 -17 -2 -17 -5 0 -12 6 -14
13 -3 7 -6 6 -6 -5 -1 -9 3 -19 8 -22 5 -3 9 -16 9 -28 0 -24 26 -111 74 -245
22 -61 35 -84 51 -89 12 -3 30 -14 41 -23 12 -11 38 -16 80 -17 48 0 73 -7
120 -32 33 -17 63 -29 68 -26 9 6 -65 64 -81 64 -11 0 -35 29 -30 35 6 5 113
-47 117 -57 2 -5 17 -8 33 -8 16 0 29 -4 29 -10 0 -5 19 -9 43 -9 l42 1 -38 8
c-21 4 -43 14 -50 22 -7 8 -31 29 -54 47 -43 32 -56 61 -29 61 9 0 12 -7 9
-20 -5 -17 0 -19 41 -18 48 1 79 -11 35 -13 -13 -1 32 -9 101 -18 69 -10 134
-21 144 -26 14 -6 17 -5 12 4 -5 7 -20 17 -34 22 -24 9 -25 11 -10 20 11 6 30
7 50 1 39 -10 110 -4 102 9 -6 10 -16 11 -159 10 -90 0 -90 0 -57 16 17 9 32
20 32 25 0 4 -25 -4 -55 -19 -58 -29 -80 -26 -50 7 28 31 11 34 -31 5 -45 -31
-57 -18 -24 27 30 40 18 47 -16 9 -29 -33 -50 -41 -40 -16 3 8 1 15 -4 15 -6
0 -10 7 -10 15 0 8 -5 15 -11 15 -6 0 -9 -10 -7 -22 3 -18 -1 -23 -16 -25 -88
-7 -95 -6 -131 18 -40 27 -89 103 -123 192 -24 64 -28 92 -11 81 6 -3 37 20
69 54 91 93 131 187 150 352 19 161 -8 373 -60 470 -6 12 -9 29 -6 37 6 14 8
14 24 1 36 -33 105 -60 134 -54 16 3 37 1 47 -6 27 -16 70 -1 89 32 l17 29 48
-26 c35 -20 50 -24 59 -15 8 8 21 3 50 -23 21 -19 44 -35 51 -35 37 0 90 24
108 50 13 17 35 31 55 34 42 8 88 60 80 92 -5 17 1 28 20 43 15 12 35 21 44
21 10 0 23 7 30 15 14 17 3 40 -13 27 -19 -13 -52 -7 -85 17 -38 27 -52 26
-81 -4 -12 -14 -26 -23 -31 -20 -4 2 -21 -9 -39 -25 -17 -17 -34 -30 -39 -30
-11 0 -64 -51 -58 -57 3 -3 29 10 58 28 56 35 58 37 97 69 27 22 71 27 71 7 0
-16 -88 -69 -102 -61 -6 4 -8 3 -5 -3 4 -6 -4 -20 -17 -32 -18 -17 -25 -19
-29 -9 -4 11 -7 10 -18 -1 -9 -9 -9 -11 -1 -7 25 15 11 -10 -28 -46 -24 -23
-45 -35 -55 -32 -22 9 -19 27 4 19 10 -3 24 1 31 10 7 8 9 15 4 15 -5 0 0 8
11 16 20 16 20 16 -2 9 -14 -4 -23 -2 -23 4 0 19 -18 12 -55 -20 -20 -18 -38
-29 -42 -25 -8 7 44 56 60 56 7 0 26 15 42 32 22 22 25 29 11 24 -16 -6 -17
-4 -5 10 17 21 116 84 132 84 6 0 19 5 27 11 12 8 10 9 -9 4 -17 -5 -21 -4
-16 5 12 19 -96 -46 -144 -87 -40 -35 -119 -78 -127 -70 -2 2 15 14 38 28 22
13 59 40 82 59 77 67 151 107 159 87 3 -8 12 -5 27 9 l22 22 -29 -2 c-16 -2
-44 -10 -63 -19 -50 -25 -48 -13 2 17 24 14 55 38 69 52 26 29 22 27 -61 -27
-55 -36 -100 -54 -100 -40 0 12 23 37 50 55 35 23 50 20 20 -5 l-25 -21 33 18
c17 10 32 21 32 25 0 4 14 12 30 19 17 7 30 17 30 23 0 7 -4 7 -12 -1 -7 -7
-19 -12 -27 -12 -10 1 -4 11 19 30 21 18 28 30 19 30 -8 0 -28 -14 -45 -31
-16 -17 -54 -47 -84 -67 -30 -20 -57 -39 -60 -42 -3 -3 -18 -7 -35 -9 -33 -3
-58 -19 -50 -31 3 -5 -1 -11 -7 -13 -7 -3 2 -6 21 -6 29 -1 32 -3 21 -16 -14
-17 -50 -20 -50 -5 0 6 -10 4 -22 -4 -19 -12 -25 -12 -35 -1 -10 11 -7 19 19
42 17 15 50 45 72 67 23 21 57 49 76 61 19 12 44 32 54 44 11 11 23 21 29 21
15 0 79 74 67 78 -6 2 -26 -10 -44 -26 -48 -42 -126 -95 -132 -89 -8 7 19 47
31 47 15 0 92 70 77 70 -21 0 -13 19 16 34 16 9 21 15 11 16 -9 0 -24 -10 -35
-21 -10 -12 -28 -25 -39 -30 -16 -8 -14 -8 8 -4 19 4 26 2 22 -5 -3 -5 -19
-10 -34 -10 -15 0 -32 -5 -39 -12 -7 -7 -26 -12 -44 -13 -35 0 -50 -20 -17
-22 28 -2 34 -10 21 -26 -7 -8 -9 -17 -5 -20 3 -4 -1 -7 -9 -7 -11 0 -14 -8
-12 -29 3 -26 -5 -35 -71 -85 -41 -31 -76 -56 -78 -56 -13 0 5 56 24 76 12 13
21 26 18 28 -2 2 -34 -6 -72 -18 l-67 -22 20 21 c25 26 26 45 2 45 -15 0 -43
-31 -48 -52 -1 -5 -2 -11 -3 -15 -2 -10 -25 28 -26 42 -1 6 4 16 9 24 9 11 6
12 -14 6 -14 -4 -28 -13 -32 -19 -5 -8 -11 -7 -19 1 -16 16 7 47 28 38 9 -3
13 0 11 7 -8 24 -28 19 -65 -16 -21 -20 -30 -33 -20 -30 11 4 17 1 17 -9 0 -9
9 -22 20 -30 17 -12 18 -17 7 -52 -12 -39 -131 -175 -153 -175 -18 0 -46 68
-40 98 5 31 24 88 38 116 6 10 17 41 25 69 20 68 61 131 108 166 43 31 157 81
186 81 10 0 30 5 46 11 20 8 24 13 13 17 -8 3 -23 14 -32 25 -14 15 -15 23 -7
34 20 23 2 26 -28 5 -15 -10 -46 -27 -67 -37 -21 -10 -62 -36 -89 -57 -28 -20
-53 -35 -56 -32 -3 3 1 9 9 14 23 14 60 43 78 63 9 9 24 17 32 17 9 0 46 23
84 52 l67 52 -27 11 c-25 10 -26 12 -10 27 28 29 18 41 -16 20 -30 -17 -68
-20 -68 -4 0 3 10 17 23 30 l22 25 -42 -24 c-52 -30 -64 -20 -29 25 33 44 33
53 0 27 -15 -12 -35 -21 -45 -21 -10 0 -21 -4 -24 -10 -3 -5 -13 -10 -21 -10
-11 0 -9 7 8 31 12 16 24 25 26 19 2 -6 37 22 78 61 40 40 72 75 69 77 -2 2
-34 -26 -71 -63 -41 -41 -70 -63 -72 -55 -3 8 -18 -2 -39 -26 -28 -32 -31 -34
-16 -9 l18 30 -27 -17 c-15 -10 -30 -18 -33 -18 -11 0 -4 22 11 38 10 10 12
18 6 20 -6 2 3 29 24 66 44 80 44 100 0 23 -18 -32 -38 -63 -45 -70 -6 -6 -11
-19 -11 -29 0 -10 -4 -18 -10 -18 -5 0 -10 12 -10 28 l-1 27 -14 -30 c-14 -29
-14 -28 -10 30 3 41 2 55 -5 45 -5 -8 -10 -30 -10 -47 0 -18 -5 -33 -11 -33
-7 0 -8 11 -4 30 9 40 -2 39 -13 -1 -6 -25 -14 -32 -37 -35 -51 -5 -50 8 9
149 18 42 15 48 -6 15z m-34 -324 c-26 -36 -44 -68 -40 -71 3 -4 7 -4 9 -2 37
49 47 61 47 55 0 -14 -31 -66 -55 -92 -14 -15 -25 -32 -24 -38 0 -6 3 -6 6 2
2 6 9 12 14 12 18 0 -12 -41 -37 -50 -16 -6 -24 -17 -24 -33 0 -13 -5 -28 -12
-35 -17 -17 -1 -15 28 5 22 14 27 14 38 2 17 -18 29 -79 16 -79 -6 0 -10 -6
-10 -13 0 -8 -11 -24 -25 -37 -23 -22 -25 -22 -49 -6 -27 17 -42 56 -32 82 4
10 -1 22 -10 29 -27 19 -11 61 26 68 21 5 30 12 30 27 0 11 4 20 9 20 15 0 54
74 42 78 -6 2 -1 17 12 35 65 89 78 107 82 107 2 0 -16 -29 -41 -66z m-554
-372 l33 -29 -21 -21 c-16 -16 -18 -22 -8 -22 8 0 21 9 29 20 8 11 17 17 20
13 13 -12 7 -21 -21 -32 -16 -7 -46 -33 -67 -59 l-38 -47 44 43 c62 59 74 53
14 -8 -27 -27 -51 -47 -53 -45 -3 3 -13 -5 -23 -16 -10 -12 -20 -16 -24 -9 -3
5 -2 10 2 10 5 0 17 14 27 31 10 17 32 46 48 65 17 19 25 34 18 34 -7 0 -2 9
11 19 13 11 21 23 16 27 -7 7 -42 -32 -42 -48 0 -3 -36 -44 -80 -90 -44 -46
-85 -93 -91 -104 -9 -14 -15 -16 -24 -8 -9 9 -8 18 5 38 10 14 21 26 26 26 5
0 9 5 9 11 0 6 38 47 85 92 47 45 85 87 85 94 0 20 -31 3 -64 -36 -17 -19 -35
-38 -41 -42 -5 -4 -32 -27 -60 -51 -27 -23 -43 -34 -34 -23 44 55 54 65 63 65
11 0 49 42 83 93 14 20 29 37 32 37 4 0 22 -13 41 -28z m897 -195 c-20 -18
-70 -62 -109 -98 -40 -37 -98 -88 -129 -114 -30 -25 -73 -68 -94 -95 -22 -27
-41 -47 -44 -45 -2 3 6 16 19 30 13 14 19 25 14 25 -22 0 -94 -96 -94 -125 0
-17 -9 -19 -30 -5 -11 8 -12 12 -3 18 7 4 19 26 28 47 14 35 14 38 0 21 -8
-11 -15 -26 -15 -35 0 -19 -13 -6 -17 17 -3 18 26 111 39 127 5 5 5 -5 2 -23
-8 -40 3 -41 51 -2 21 17 44 30 52 30 27 0 100 54 185 138 76 75 163 135 178
124 3 -2 -12 -18 -33 -35z m-188 -310 c47 -128 64 -298 39 -393 -18 -65 -69
-107 -205 -167 -13 -6 -26 -7 -30 -4 -3 4 -9 68 -11 142 -4 109 -1 148 14 207
24 95 128 268 161 268 6 0 21 -24 32 -53z"/>
<path d="M10157 5141 c-10 -4 -17 -10 -15 -14 5 -11 -41 -39 -52 -32 -6 4 -9
1 -8 -6 2 -6 -3 -14 -9 -16 -7 -3 -13 0 -13 6 0 17 -70 -15 -102 -46 -47 -45
-31 -45 32 -2 34 23 63 39 66 36 3 -2 -11 -15 -30 -27 -46 -28 -46 -34 2 -15
l37 15 -25 -20 c-14 -11 -29 -20 -33 -20 -10 0 -42 -30 -32 -30 3 0 21 7 41
15 19 8 42 11 51 8 9 -4 14 -2 10 3 -6 11 180 109 226 120 33 8 36 24 3 24
-24 0 -101 -31 -191 -77 -38 -19 -45 -21 -30 -6 11 10 33 26 49 37 23 14 26
20 15 28 -10 7 -6 8 13 4 15 -3 30 -2 33 4 4 6 -1 7 -11 3 -12 -4 -15 -3 -10
5 8 13 8 13 -17 3z"/>
<path d="M9551 3685 c-1 -65 -22 -182 -40 -228 -6 -16 -9 -32 -6 -37 8 -13
-35 -59 -50 -53 -9 3 -15 -1 -15 -8 0 -7 -15 -25 -32 -40 -26 -23 -30 -30 -19
-38 10 -6 21 -1 37 18 21 23 23 24 24 7 0 -11 -23 -41 -52 -68 -66 -61 -39
-66 39 -7 29 23 61 43 71 44 17 1 65 19 92 33 9 5 30 0 55 -15 99 -56 156 -83
175 -83 23 0 28 19 5 21 -33 3 -62 18 -115 59 -19 15 -41 25 -47 23 -7 -3 -16
4 -19 14 -3 10 -10 29 -16 43 l-10 25 -9 -22 c-10 -27 -29 -30 -29 -5 -1 15
-2 15 -15 -2 -18 -23 -17 -33 -5 139 6 100 5 143 -5 185 l-13 55 -1 -60z"/>
<path d="M12548 7933 c-50 -3 -68 -8 -68 -18 0 -20 63 -27 215 -23 122 3 130
4 130 23 0 19 -7 20 -105 21 -58 0 -135 -1 -172 -3z"/>
<path d="M12730 7230 c-92 -11 -141 -26 -237 -70 -78 -36 -114 -61 -57 -39 39
14 41 3 3 -16 -18 -10 -62 -40 -98 -68 -36 -27 -56 -39 -43 -25 12 13 22 28
22 32 0 4 10 17 23 27 l22 20 -27 -17 c-16 -9 -28 -20 -28 -25 0 -5 -6 -9 -12
-9 -20 -1 -119 -131 -170 -225 -120 -221 -155 -492 -91 -721 9 -32 17 -71 18
-86 1 -15 6 -33 12 -40 5 -7 17 -26 25 -43 8 -16 48 -93 90 -170 41 -77 131
-243 198 -370 67 -126 143 -265 168 -308 l45 -79 -17 -101 c-9 -56 -23 -112
-31 -123 -10 -15 -11 -24 -3 -32 7 -7 6 -35 -6 -93 -11 -57 -13 -86 -6 -93 5
-5 10 -21 11 -35 0 -26 0 -26 11 -4 10 21 18 23 97 22 47 0 105 3 128 7 23 3
50 4 59 0 16 -6 16 -8 -2 -21 -17 -13 -17 -14 -1 -15 9 0 17 -4 17 -10 0 -5 4
-10 10 -10 5 0 7 7 4 15 -4 8 -2 15 2 15 13 0 35 -16 37 -26 2 -11 81 -8 85 4
3 11 60 4 89 -10 13 -6 26 -8 30 -5 3 4 -1 7 -10 7 -27 0 -20 14 15 29 24 11
33 11 36 3 2 -7 11 -12 20 -12 15 0 15 -2 2 -11 -12 -9 -12 -10 3 -5 10 3 31
6 45 7 25 0 26 1 5 9 -26 10 -63 41 -63 52 0 5 14 8 31 8 23 0 30 -4 26 -14
-6 -15 12 -26 44 -26 10 0 19 -4 19 -10 0 -5 -7 -7 -15 -4 -8 4 -15 1 -15 -6
0 -11 63 -10 273 5 69 4 52 15 -25 15 -112 0 -231 12 -216 21 7 5 30 6 51 2
20 -3 37 -2 37 3 0 5 35 10 78 11 42 1 88 2 102 3 l25 1 -24 12 c-19 9 -25 9
-29 -1 -2 -6 -8 -12 -13 -12 -6 0 -7 5 -3 12 5 8 -2 9 -25 5 -23 -5 -30 -3
-25 5 5 8 -5 9 -37 4 -80 -13 -171 -7 -185 12 -11 16 -47 217 -60 343 l-6 56
139 274 c76 151 145 290 152 309 8 19 33 76 57 125 125 263 187 439 205 587
13 110 8 170 -26 304 -59 230 -236 456 -414 528 -36 14 -73 33 -83 43 -10 9
-18 13 -18 9 0 -4 -12 0 -27 8 -16 8 -48 19 -73 25 -64 14 -273 21 -350 11z
m304 -56 c39 -9 100 -25 136 -36 73 -22 222 -107 217 -123 -2 -5 -26 -14 -54
-19 -46 -8 -56 -6 -102 19 -28 16 -70 44 -94 64 l-42 35 30 -33 c17 -18 56
-49 88 -68 31 -20 55 -38 53 -40 -2 -2 -89 -28 -192 -58 -259 -73 -359 -107
-435 -147 l-42 -22 -16 24 c-48 73 -180 224 -188 217 -3 -3 36 -56 86 -117
101 -124 100 -117 47 -204 -35 -58 -95 -219 -121 -327 -9 -36 -20 -70 -23 -75
-6 -9 -96 -84 -235 -195 -21 -17 -41 -29 -44 -25 -3 3 -9 22 -13 43 -5 21 -16
58 -25 83 -14 37 -16 68 -11 165 7 149 7 149 18 156 6 4 19 39 29 80 31 114
154 359 180 359 5 0 62 -40 126 -89 65 -49 120 -88 122 -86 2 3 -7 14 -20 25
-55 46 -173 136 -195 148 -13 7 -22 17 -19 22 10 16 159 117 212 144 165 83
374 114 527 80z m422 -227 c49 -51 105 -137 98 -149 -4 -6 -3 -8 4 -4 13 8 42
-48 42 -81 0 -12 5 -23 10 -23 6 0 10 -6 10 -13 0 -8 6 -27 14 -43 33 -67 44
-347 14 -328 -6 4 -7 -2 -3 -17 12 -36 9 -113 -5 -139 l-13 -24 -29 34 c-34
40 -104 183 -158 320 -82 209 -122 308 -152 377 -17 40 -28 76 -24 80 11 11
108 41 136 42 16 0 36 -11 56 -32z m-233 -47 c-1 -14 -9 -92 -17 -175 -9 -82
-17 -170 -18 -194 l-3 -44 -32 45 c-50 70 -111 125 -169 154 -113 55 -299 22
-398 -72 -28 -27 -58 -84 -70 -136 -7 -33 -4 -34 30 -11 17 11 21 18 13 23 -8
6 -4 16 14 35 30 33 51 26 37 -11 -16 -41 -11 -52 6 -16 26 52 91 119 137 141
65 31 206 25 254 -12 7 -5 18 -5 25 -1 7 4 10 4 6 -1 -4 -4 12 -29 36 -56 54
-60 76 -106 83 -173 18 -172 -151 -365 -315 -359 -33 1 -67 10 -88 22 -19 11
-34 16 -34 11 0 -5 9 -12 20 -15 23 -7 25 -18 7 -33 -16 -13 -50 -9 -55 6 -2
7 -14 12 -26 12 -12 0 -32 7 -44 16 -40 28 -22 0 21 -33 85 -64 222 -70 330
-13 31 16 60 30 62 30 3 0 -19 -32 -49 -71 -51 -68 -113 -169 -102 -169 2 0
29 35 59 78 30 43 87 118 127 167 83 102 127 189 136 269 4 31 10 56 14 56 8
0 177 -105 200 -124 8 -7 38 -25 65 -41 54 -30 95 -63 95 -77 0 -4 -98 -57
-217 -117 -120 -60 -289 -150 -376 -200 -86 -50 -162 -91 -167 -91 -6 0 -33
34 -60 76 -27 41 -81 109 -119 151 -39 41 -68 79 -65 84 3 5 -7 25 -23 43 -71
86 -124 170 -95 152 7 -4 12 -1 12 8 0 9 -7 16 -15 16 -11 0 -15 11 -15 36 0
24 4 33 12 28 7 -5 8 -3 3 6 -4 7 -3 15 2 19 5 3 14 34 21 68 27 133 76 254
119 294 31 29 158 82 328 136 60 19 144 48 185 63 92 35 116 35 113 0z m36
-47 c25 -54 123 -300 156 -388 18 -50 51 -127 74 -173 22 -45 41 -84 41 -86 0
-3 -70 40 -155 94 -86 54 -160 100 -166 102 -7 2 -6 52 5 158 9 85 16 192 17
238 1 45 5 82 9 82 4 0 12 -12 19 -27z m-813 -690 c53 -85 130 -189 194 -263
91 -107 132 -160 122 -160 -16 0 -175 66 -250 104 -100 50 -349 156 -368 156
-27 0 -12 16 91 93 55 42 114 87 130 101 17 14 33 25 37 26 4 0 24 -26 44 -57z
m1160 -109 c-9 -16 -41 -85 -72 -154 -83 -187 -193 -406 -220 -441 -6 -8 -37
-72 -69 -144 -73 -162 -145 -301 -184 -358 -37 -54 -131 -237 -131 -255 0 -8
-5 -10 -12 -6 -10 6 -10 4 0 -7 17 -18 15 -30 -4 -22 -13 5 -15 2 -10 -14 4
-12 1 -25 -7 -31 -10 -9 -13 36 -16 241 -2 139 -5 282 -8 320 -3 42 -1 67 5
67 10 0 42 55 42 72 0 20 -19 5 -29 -23 -14 -41 -31 -28 -30 24 0 23 -2 112
-5 197 l-6 155 78 52 c94 62 394 223 416 223 8 0 42 14 73 32 32 17 78 43 103
56 110 61 109 60 86 16z m-1229 -175 c137 -61 282 -125 323 -141 99 -40 122
-56 115 -79 -3 -10 -2 -73 4 -141 9 -114 26 -485 35 -760 2 -65 0 -116 -4
-113 -3 2 -12 23 -19 47 -15 51 -14 48 -116 218 -131 215 -380 660 -478 850
-49 96 -96 184 -103 195 -14 20 -18 35 -9 35 2 0 116 -50 252 -111z"/>
<path d="M13838 5794 c-12 -11 2 -144 24 -229 11 -44 23 -97 27 -117 5 -21 14
-44 20 -52 7 -8 10 -20 6 -25 -3 -6 -1 -20 5 -30 6 -11 12 -33 14 -48 9 -61
27 -137 35 -147 4 -6 11 -29 15 -51 3 -22 17 -88 30 -147 13 -60 20 -108 15
-108 -5 0 -9 6 -9 13 -1 6 -7 26 -15 42 l-15 30 6 -35 c4 -19 11 -46 17 -60 6
-14 9 -32 8 -39 -2 -8 5 -21 15 -28 11 -8 13 -13 5 -13 -8 0 -10 -7 -6 -20 4
-11 8 -35 11 -52 2 -17 9 -35 16 -40 10 -6 10 -8 -2 -8 -12 -1 -11 -3 3 -14
12 -10 14 -15 6 -18 -8 -3 -9 -9 -4 -19 5 -8 11 -25 13 -38 2 -14 11 -31 20
-38 13 -11 14 -16 5 -19 -7 -3 -13 -15 -13 -27 0 -18 2 -19 10 -7 9 13 10 13
11 0 1 -8 1 -20 0 -27 -1 -6 3 -14 9 -18 5 -3 10 -11 10 -16 0 -6 -6 -7 -12
-3 -10 6 -10 5 -1 -8 7 -8 10 -18 6 -21 -3 -4 -2 -7 4 -7 5 0 11 -21 12 -47 1
-26 5 -49 10 -53 9 -6 38 -125 71 -295 12 -60 30 -141 39 -180 10 -38 28 -113
40 -165 24 -111 105 -468 132 -587 11 -46 28 -106 39 -135 11 -29 20 -55 20
-58 0 -3 -181 -4 -403 -3 -221 1 -443 3 -494 3 l-92 0 -6 48 c-4 26 -11 65
-17 87 -6 22 -14 65 -19 95 -4 30 -15 96 -24 145 -8 50 -17 104 -19 120 -2 17
-7 50 -10 75 -4 25 -8 61 -10 80 -2 19 -16 91 -30 160 -14 69 -27 141 -28 160
-3 29 -7 34 -23 32 -11 -2 -74 -2 -140 0 -181 5 -350 3 -444 -6 -61 -6 -90 -5
-107 4 -17 10 -30 10 -51 2 -15 -7 -37 -11 -48 -11 -85 5 -125 -21 -131 -84
-2 -18 -17 -72 -34 -122 -66 -194 -147 -500 -138 -526 2 -6 21 58 42 142 22
85 43 159 48 164 10 10 4 -22 -13 -80 -5 -16 -11 -48 -14 -70 -3 -22 -8 -46
-11 -54 -2 -8 -7 -30 -10 -50 -3 -20 -12 -58 -20 -84 -9 -26 -13 -55 -10 -64
4 -9 1 -32 -5 -52 -12 -35 -15 -54 -18 -99 -1 -22 -4 -23 -78 -21 -43 1 -105
5 -138 10 -33 4 -82 9 -110 10 -27 1 -54 5 -59 7 -5 3 -135 5 -288 5 -153 0
-281 3 -283 7 -3 4 11 67 29 141 18 74 44 179 56 234 12 55 33 144 46 197 13
54 23 101 23 105 -1 4 0 15 3 23 16 42 30 111 25 124 -3 8 -1 16 4 18 5 2 12
23 14 48 3 25 9 70 14 100 5 30 15 87 21 125 7 39 15 75 20 80 4 6 10 24 13
40 3 17 15 72 26 124 12 51 19 96 16 100 -2 4 2 29 10 57 l14 49 -4 -48 c-3
-32 -1 -46 6 -41 6 3 8 12 5 19 -2 7 0 17 6 23 5 5 11 20 13 33 6 48 16 105
25 149 27 131 35 177 33 193 -2 9 1 17 6 17 6 0 8 11 5 24 -2 14 1 28 6 31 6
4 8 15 5 26 -4 10 -2 19 4 19 6 0 7 7 4 17 -5 12 -3 14 7 8 10 -6 12 -4 7 8
-3 10 -2 17 2 17 5 0 11 17 14 38 3 20 10 60 16 87 6 28 15 73 20 100 5 28 23
104 40 171 34 134 81 381 81 422 0 44 -17 13 -40 -73 -22 -82 -36 -146 -89
-395 -41 -197 -115 -488 -126 -497 -4 -4 -5 0 -2 9 3 10 2 20 -3 23 -6 4 -10
3 -11 -2 0 -4 -2 -17 -4 -28 -3 -11 -6 -41 -7 -67 -2 -27 -6 -48 -9 -48 -4 0
-9 -9 -12 -20 -3 -11 -1 -18 4 -14 5 3 9 -2 9 -10 0 -9 -7 -16 -15 -16 -11 0
-12 -6 -6 -22 10 -29 -29 -208 -45 -208 -13 0 -28 65 -19 80 12 19 17 90 6 90
-14 0 -8 55 9 74 11 14 9 16 -9 16 -11 0 -21 -5 -21 -11 0 -5 -4 -8 -9 -4 -10
6 -7 45 11 130 15 78 18 85 35 85 11 0 14 7 11 25 -4 16 -1 25 8 25 10 0 13
19 13 73 0 76 9 129 66 402 61 288 77 432 46 399 -9 -9 -83 -323 -106 -449 -7
-38 -16 -101 -20 -140 -4 -38 -11 -88 -17 -110 -6 -22 -18 -76 -28 -120 -10
-44 -36 -152 -59 -240 -24 -88 -53 -212 -67 -275 -13 -63 -42 -187 -63 -275
-34 -137 -59 -256 -66 -315 -2 -20 -12 -57 -41 -155 -23 -79 -31 -110 -59
-255 -8 -41 -21 -109 -30 -150 -11 -50 -15 -97 -11 -140 6 -67 -13 -147 -37
-162 -9 -5 -9 -10 0 -19 17 -17 30 -4 37 36 9 48 24 52 32 9 4 -21 13 -49 20
-63 8 -14 14 -34 14 -44 0 -54 73 -149 100 -132 6 4 65 8 133 10 153 5 158 5
127 15 -16 5 23 8 103 9 83 1 126 -3 122 -9 -3 -5 -1 -10 4 -10 6 0 11 5 11
10 0 6 10 10 23 9 21 0 21 -1 2 -9 -12 -6 63 -7 189 -3 191 6 210 5 222 -11
11 -16 13 -16 19 3 3 12 10 21 15 21 4 0 11 17 15 38 3 21 12 56 19 77 l14 39
63 -1 c35 -1 107 -5 159 -10 125 -11 338 -8 370 5 19 8 -5 10 -95 8 -66 -2
-129 0 -140 4 -16 7 -11 9 20 10 22 1 49 6 60 11 13 6 -16 7 -80 3 -109 -8
-130 -8 -252 -4 -44 1 -86 -1 -92 -5 -8 -5 -10 2 -5 22 4 15 8 30 10 32 2 2
42 -2 88 -9 58 -9 123 -11 212 -6 71 4 148 7 171 6 23 0 44 4 48 10 3 6 -3 9
-17 9 -102 -5 -428 4 -428 12 0 5 17 9 38 9 20 0 135 1 255 1 119 0 217 4 217
9 0 5 -107 9 -237 10 -131 1 -250 3 -265 5 -16 1 -36 3 -47 4 -23 1 -22 22 15
211 9 47 20 90 24 95 4 6 11 53 15 105 4 52 11 100 15 105 12 16 41 166 33
178 -4 7 9 8 42 4 26 -4 182 -7 346 -7 l298 0 7 -45 c3 -26 13 -53 22 -61 12
-13 13 -17 3 -24 -9 -5 -11 -18 -6 -39 4 -17 10 -29 15 -26 10 6 20 -19 20
-48 0 -18 -2 -19 -10 -7 -8 12 -10 11 -10 -8 0 -12 5 -21 13 -20 7 2 13 -9 14
-27 1 -20 0 -23 -4 -7 -2 12 -9 22 -14 22 -6 0 -8 -8 -4 -19 12 -38 55 -268
58 -306 0 -11 21 -51 45 -88 24 -38 41 -74 38 -82 -3 -8 7 -21 22 -31 15 -9
39 -31 54 -48 l27 -31 1 28 c0 37 -25 84 -61 114 -15 13 -31 33 -34 44 -4 12
-16 30 -26 40 -24 24 -24 39 0 39 14 0 17 6 13 25 -2 14 0 25 5 25 5 0 16 -32
26 -72 17 -72 30 -98 40 -81 3 5 -1 23 -9 39 -10 17 -16 54 -16 91 0 35 -4 65
-9 68 -5 4 -9 27 -9 53 0 36 3 43 12 34 7 -7 11 -29 11 -49 -1 -21 2 -42 5
-48 4 -5 7 -14 7 -20 0 -5 7 -36 14 -68 7 -32 10 -61 7 -64 -3 -4 -2 -11 3
-17 17 -23 56 -220 46 -236 -2 -4 7 -13 20 -20 19 -10 67 -11 219 -6 254 9
817 -3 821 -18 24 -86 50 -163 57 -170 12 -14 10 -4 -12 93 -11 47 -24 106
-29 131 -6 25 -24 100 -41 167 -16 68 -29 126 -28 130 1 5 -3 17 -9 28 -11 21
-45 165 -87 375 -14 69 -42 195 -61 280 -20 85 -36 173 -37 194 0 22 -7 46
-15 54 -10 10 -11 18 -4 25 14 14 14 47 1 47 -5 0 -7 -7 -4 -15 4 -8 1 -15 -4
-15 -6 0 -14 17 -17 38 -3 20 -13 66 -20 102 -16 69 -35 177 -41 223 -3 20 0
26 9 22 6 -4 4 0 -6 8 -10 8 -13 17 -8 18 7 3 2 40 -14 102 -14 54 -25 106
-25 117 0 11 -4 20 -10 20 -5 0 -10 9 -10 21 0 11 -5 30 -11 41 -9 16 -8 23 2
29 12 7 12 9 0 9 -8 0 -11 7 -8 20 3 11 1 20 -4 20 -5 0 -8 8 -7 18 4 26 -12
100 -28 130 -7 14 -11 29 -8 33 8 14 -125 548 -157 627 -5 13 -9 33 -9 46 0
26 -22 60 -32 50z"/>
<path d="M12427 3127 c-10 -30 4 -42 44 -39 21 2 39 8 39 14 0 5 -9 7 -20 3
-11 -3 -28 -2 -37 4 -15 9 -13 10 12 11 44 0 74 -10 69 -23 -3 -8 7 -12 26
-11 48 2 52 3 45 14 -7 12 -20 11 255 11 121 0 206 3 195 8 -11 4 -65 9 -120
10 -55 1 -191 3 -302 6 -151 3 -203 1 -206 -8z"/>
<path d="M6289 3087 c-16 -17 -29 -35 -29 -39 0 -4 -20 -29 -44 -55 -27 -28
-41 -52 -36 -58 9 -12 -8 -30 -29 -30 -8 0 -16 -5 -18 -12 -3 -8 12 -11 51
-10 31 1 56 5 56 10 0 4 -7 7 -15 7 -8 0 -15 4 -15 8 0 4 17 8 39 7 26 0 37
-4 34 -12 -5 -14 23 -18 29 -5 2 4 19 15 38 25 l35 17 -86 -6 c-53 -3 -89 -2
-93 4 -3 6 10 13 31 16 57 8 362 21 413 17 33 -2 42 0 34 8 -7 7 -55 12 -128
12 -65 0 -116 2 -113 5 9 9 89 16 166 14 50 -1 71 2 66 9 -12 20 -277 9 -357
-15 -13 -4 -18 0 -18 13 0 16 11 18 98 21 103 2 195 18 187 32 -3 5 -39 7 -80
5 -41 -1 -75 1 -75 6 0 5 18 10 40 10 22 1 45 3 50 4 6 1 24 3 42 4 17 0 29 3
26 6 -3 3 -65 8 -138 10 l-132 4 -29 -32z"/>
<path d="M16166 2943 c-4 -4 -25 -6 -48 -4 -29 2 -38 -1 -33 -9 6 -9 2 -9 -15
0 -12 6 -29 9 -38 5 -9 -4 -60 -7 -112 -7 -90 -1 -92 -1 -35 -8 33 -4 90 -8
128 -9 37 -1 67 -5 67 -11 0 -6 -30 -10 -67 -11 -82 -1 -112 -9 -91 -26 25
-22 102 -33 226 -33 102 0 122 2 122 15 0 8 5 15 10 15 6 0 13 -7 16 -15 5
-12 28 -15 116 -15 98 0 109 2 98 15 -7 9 -15 14 -17 11 -3 -2 -18 0 -34 4
-16 5 -31 5 -34 0 -3 -5 -17 -5 -32 1 -19 7 -28 6 -33 -2 -6 -8 -13 -8 -28 0
-26 14 -72 14 -72 1 0 -5 -12 -10 -26 -10 -14 0 -23 4 -20 8 3 5 -3 8 -12 8
-76 0 -102 5 -102 19 0 12 13 15 55 15 42 0 55 4 55 15 0 16 -34 38 -44 28z"/>
<path d="M12540 2873 c0 -4 -24 -9 -53 -10 -47 -2 -128 -8 -167 -13 -8 -1 1
-7 20 -13 66 -20 579 -12 601 10 4 4 -71 8 -167 8 -144 0 -176 3 -184 15 -5 8
-10 10 -10 4 0 -7 -7 -15 -16 -18 -8 -3 -12 -2 -9 3 3 5 1 12 -5 16 -5 3 -10
3 -10 -2z"/>
</g>
</svg>
