<?xml version="1.0" standalone="no"?>
<!DOCTYPE svg PUBLIC "-//W3C//DTD SVG 20010904//EN"
 "http://www.w3.org/TR/2001/REC-SVG-20010904/DTD/svg10.dtd">
<svg version="1.0" xmlns="http://www.w3.org/2000/svg"
 width="1928.000000pt" height="1074.000000pt" viewBox="0 0 1928.000000 1074.000000"
 preserveAspectRatio="xMidYMid meet">
<metadata>
Created by potrace 1.16, written by Peter Selinger 2001-2019
</metadata>
<g transform="translate(0.000000,1074.000000) scale(0.100000,-0.100000)"
fill="#000000" stroke="none">
<path d="M4770 8019 l0 -74 -398 -1 c-218 -1 -480 -3 -582 -4 l-185 -3 325
-15 c389 -17 631 -20 723 -8 49 6 67 6 67 -3 0 -6 -9 -15 -20 -19 -11 -4 -37
-22 -58 -40 -20 -18 -71 -57 -112 -88 -41 -31 -94 -77 -118 -101 l-43 -45
-157 1 c-157 2 -303 9 -311 17 -2 2 43 4 101 4 152 0 348 12 348 21 0 4 -33 6
-72 5 -40 -2 -153 -4 -250 -5 -151 -1 -178 -3 -178 -16 0 -8 -9 -15 -20 -15
-11 0 -20 7 -20 15 0 13 -16 14 -106 10 -112 -6 -141 -13 -108 -27 15 -6 13
-7 -11 -6 -16 1 -40 -2 -53 -6 -52 -17 -26 6 105 94 76 51 159 109 185 128
l46 35 184 2 c100 1 194 3 208 5 68 8 -59 17 -207 15 -89 -1 -164 2 -165 6 -5
13 -130 -62 -293 -176 -82 -58 -164 -112 -182 -120 -44 -20 -51 -36 -13 -29
l30 7 3 -64 c1 -35 2 -190 2 -344 0 -154 4 -421 9 -592 l9 -313 -22 0 c-12 0
-53 5 -91 11 -61 10 -73 16 -95 45 -34 44 -60 43 -106 -2 -30 -30 -47 -38 -86
-41 l-48 -5 0 591 c0 386 3 592 10 593 6 2 11 -60 13 -167 1 -93 4 -181 6
-195 2 -14 3 74 3 196 -2 170 -5 225 -16 238 -9 11 -10 16 -2 16 12 0 10 110
-4 240 -3 30 -3 72 1 93 5 32 9 37 32 37 15 0 34 5 42 10 10 7 -16 9 -85 6
-55 -3 -273 -8 -485 -12 -427 -8 -405 -4 -494 -80 -22 -19 -43 -34 -47 -34 -5
0 -36 -18 -71 -40 -54 -34 -64 -37 -69 -23 -5 14 -9 12 -20 -12 -17 -36 -119
-96 -119 -71 0 9 -4 16 -9 16 -5 0 -12 8 -14 18 -3 9 -5 3 -6 -15 -1 -21 -9
-37 -23 -47 l-22 -16 22 0 c19 0 20 -3 12 -25 -5 -13 -7 -47 -4 -74 14 -129
25 -1083 15 -1266 -4 -66 -8 -114 -9 -107 -1 6 -7 12 -13 12 -6 0 -7 -5 -2
-12 9 -15 11 -52 17 -343 3 -121 8 -269 12 -330 9 -127 11 -794 4 -1095 -5
-206 -2 -262 27 -465 8 -60 16 -119 17 -130 1 -11 5 -25 8 -30 3 -6 9 -25 13
-44 18 -82 126 -310 198 -415 48 -71 17 -53 -75 44 -49 52 -85 85 -79 73 13
-26 274 -301 346 -365 28 -24 80 -63 116 -88 l66 -44 6 -68 c7 -81 3 -95 -26
-101 -12 -2 82 -5 208 -6 136 0 244 -6 265 -12 44 -14 694 -22 805 -10 l80 8
-105 2 c-58 2 -116 4 -130 6 -14 2 -58 6 -98 11 -40 4 -75 11 -79 16 -3 6 17
8 53 4 33 -3 75 -4 94 -3 66 3 185 0 235 -7 90 -12 319 -9 359 4 28 9 41 9 49
1 17 -17 42 -13 62 9 10 11 24 20 32 20 7 0 13 7 13 15 0 8 5 15 10 15 6 0 10
7 10 15 0 8 3 15 8 15 4 0 140 1 302 1 205 0 289 4 277 11 -10 5 -25 7 -32 4
-8 -3 -17 -2 -19 3 -3 4 -41 6 -86 5 -53 -2 -78 1 -74 8 3 5 15 8 25 5 10 -3
22 -1 25 4 3 5 -5 9 -18 10 -13 0 -41 1 -63 2 -33 2 -39 -1 -37 -15 2 -14 -4
-18 -28 -18 -16 0 -30 5 -30 11 0 6 7 9 15 6 15 -6 31 8 18 16 -5 2 -3 2 4 1
7 -2 15 1 17 5 3 4 40 14 83 22 54 9 69 14 49 17 -16 2 -44 1 -62 -3 -40 -7
-50 -6 -47 5 2 5 -16 11 -40 14 -23 3 -53 7 -67 9 -14 2 56 7 155 11 172 8
332 4 385 -10 l25 -6 -25 18 c-21 16 -47 19 -170 21 -79 2 -148 7 -153 12 -4
4 42 9 104 10 118 1 165 10 63 12 -32 0 -70 2 -84 4 -14 2 -81 4 -150 5 -76 1
-134 6 -147 13 -18 10 0 12 95 9 64 -1 152 -5 195 -8 53 -4 77 -2 77 5 0 6 -6
11 -12 12 -7 1 -2 4 12 9 14 4 37 5 53 2 27 -5 40 15 15 23 -42 13 -533 25
-620 15 -35 -4 -58 -2 -58 3 0 5 46 55 103 111 56 56 147 150 202 209 120 129
113 122 96 112 -9 -5 -12 -3 -9 6 3 8 13 13 22 12 13 -1 16 4 13 18 -3 10 -2
17 3 14 10 -6 35 23 26 32 -3 3 6 26 20 50 32 55 102 240 119 313 7 30 25 100
40 155 15 55 29 120 32 145 2 25 8 60 13 79 5 19 7 37 5 41 -2 4 0 22 5 40 6
22 6 39 -1 52 -8 15 -8 19 0 14 14 -9 1 26 -13 36 -8 5 -7 8 1 8 12 0 12 10
-2 275 -6 99 -17 1183 -19 1805 -1 415 2 524 12 523 6 -2 12 4 12 13 0 8 -4
13 -9 9 -5 -3 -12 -1 -16 5 -3 5 -2 10 4 10 6 0 8 110 4 324 l-6 323 33 17
c18 9 43 16 56 16 13 0 26 5 30 11 7 11 -41 8 -96 -6 -21 -5 -25 -3 -26 17 -1
46 -14 162 -19 167 -3 2 -5 -29 -5 -70z m-1780 -109 c0 -6 -33 -32 -72 -57
-40 -26 -91 -63 -113 -83 -22 -20 -60 -52 -85 -71 l-45 -36 -144 -6 c-79 -3
-146 -8 -149 -12 -14 -14 14 -15 108 -6 90 10 150 4 124 -11 -5 -3 -100 -9
-212 -13 -152 -5 -207 -3 -218 5 -10 9 -14 9 -14 1 0 -6 -7 -11 -16 -11 -8 0
-12 5 -9 10 8 13 20 11 -189 19 l-178 6 96 63 c54 34 118 73 144 86 26 14 59
38 74 54 l27 29 328 6 c314 5 379 9 468 27 58 11 75 11 75 0z m-15 -152 c-15
-335 -19 -493 -15 -638 3 -91 5 -320 5 -510 l0 -345 -25 -2 -25 -1 1 131 c2
143 -6 340 -14 333 -2 -3 -4 -62 -4 -131 0 -103 -2 -125 -15 -125 -12 0 -13
-12 -7 -72 3 -40 11 -81 16 -90 5 -12 5 -18 -2 -18 -5 0 -10 4 -10 9 0 16 -52
23 -81 11 -15 -7 -34 -26 -43 -43 -9 -18 -16 -26 -16 -19 0 6 -5 12 -10 12 -7
0 -7 -7 1 -21 9 -17 8 -23 -2 -30 -8 -5 -17 -9 -21 -9 -10 0 -7 383 4 397 5 7
5 14 -1 17 -6 4 -8 69 -5 174 2 92 6 264 8 382 2 118 7 264 12 325 7 109 7
109 43 142 20 18 39 33 43 33 4 0 6 -27 4 -60 -2 -33 0 -63 5 -65 4 -3 5 -16
0 -28 -9 -26 -2 -117 9 -117 13 0 9 264 -4 272 -7 5 -3 13 13 25 42 29 111
101 111 115 0 12 18 38 27 38 1 0 1 -42 -2 -92z m1781 0 c-4 -46 -7 -114 -7
-153 -1 -464 0 -888 2 -1418 1 -259 0 -279 -18 -293 -16 -13 -16 -13 0 -8 13
5 16 2 10 -12 -4 -10 -2 -15 4 -11 11 7 12 -11 12 -262 1 -95 -1 -176 -3 -180
-9 -13 -16 -121 -8 -121 4 0 7 -83 7 -184 0 -101 3 -182 8 -179 4 2 7 -3 7
-12 0 -9 -4 -13 -10 -10 -12 8 -14 -107 -1 -121 12 -13 21 -84 10 -84 -5 0 -9
19 -9 42 0 23 -2 39 -5 36 -3 -3 -7 -63 -10 -134 -2 -71 -8 -149 -13 -174 l-8
-45 -6 37 c-4 20 -5 55 -4 77 2 23 -1 41 -5 41 -10 0 -13 -21 -10 -57 1 -12
-3 -24 -9 -28 -6 -3 -7 -12 -3 -18 12 -18 12 -197 0 -197 -5 0 -5 -6 2 -13 11
-14 8 -147 -3 -166 -3 -4 0 -22 6 -38 10 -26 8 -40 -10 -88 -12 -31 -22 -63
-22 -71 0 -25 -41 -124 -52 -124 -6 0 -8 9 -5 19 4 15 1 18 -12 13 -14 -5 -14
-3 -3 11 8 9 19 15 24 14 11 -2 19 29 18 70 0 11 8 24 18 28 15 6 14 8 -7 16
-19 8 -22 12 -12 22 9 9 14 9 21 -3 8 -13 10 -13 10 2 0 9 -7 21 -16 26 -12 7
-14 13 -6 28 11 20 24 56 23 64 -1 3 -7 5 -13 5 -7 0 -13 8 -12 18 3 69 5 78
14 72 6 -4 8 -16 5 -28 -5 -18 -4 -19 4 -6 11 17 4 59 -10 59 -5 0 -9 24 -9
53 0 36 3 47 10 37 5 -8 13 -11 17 -6 4 4 1 13 -8 20 -13 9 -17 29 -17 86 0
41 -5 88 -11 105 -7 16 -11 60 -9 97 3 71 -7 104 -12 41 -4 -51 -2 -86 6 -158
8 -76 8 -70 1 -199 -4 -60 -9 -111 -12 -114 -11 -11 -13 5 -6 48 4 25 4 56 0
70 -7 24 -7 24 -8 3 -1 -13 -5 -23 -11 -23 -5 0 -10 10 -10 23 0 16 -3 18 -9
8 -5 -8 -11 -9 -15 -3 -4 6 0 14 8 19 9 5 17 28 20 56 4 43 2 49 -22 64 -15 9
-28 18 -30 19 -2 1 4 44 14 96 16 83 22 97 55 132 21 21 39 50 41 65 5 34 -16
77 -41 84 -16 4 -20 13 -19 44 0 22 -3 71 -7 109 -6 61 -4 71 14 91 27 29 27
67 -1 112 -26 41 -71 162 -63 169 3 3 -2 16 -11 30 -11 16 -14 36 -11 58 3 19
1 36 -4 40 -5 3 -7 14 -4 25 4 10 2 19 -3 19 -6 0 -13 7 -16 16 -3 8 -2 13 3
10 5 -3 11 14 13 39 2 33 0 44 -9 40 -10 -3 -13 21 -14 103 0 59 -2 125 -4
147 -9 86 -17 476 -20 1046 l-4 596 26 12 c32 15 39 8 25 -25 -7 -14 -9 -37
-6 -50 4 -14 1 -43 -6 -63 -13 -40 -10 -94 3 -58 17 44 19 57 21 136 1 56 6
86 14 89 7 2 12 10 12 18 0 9 4 12 10 9 5 -3 15 3 22 15 7 11 18 20 24 20 6 0
17 6 23 14 9 11 8 15 -4 20 -15 5 -24 0 -92 -58 -18 -16 -36 -27 -38 -24 -6 6
121 108 134 108 5 0 12 -6 14 -12 4 -9 6 -7 6 3 1 22 80 101 93 93 7 -4 8 -2
4 5 -6 9 28 49 43 51 2 0 1 -37 -3 -82z m-2721 -149 c104 -1 95 -9 -27 -24
-81 -9 -73 -25 10 -19 37 3 185 6 329 7 l263 2 -1 -453 c0 -249 3 -457 6 -462
3 -6 0 -10 -7 -10 -9 0 -10 -2 -2 -8 8 -4 9 -23 5 -52 -4 -25 -3 -128 2 -229
4 -100 6 -185 3 -188 -2 -3 -18 3 -34 12 -55 33 -112 -8 -112 -80 0 -25 -31
-58 -102 -112 -25 -18 -35 -20 -59 -11 -61 21 -109 -23 -109 -100 0 -32 -12
-50 -81 -129 -61 -71 -86 -93 -105 -93 -31 0 -74 -45 -74 -77 0 -13 7 -35 16
-48 15 -23 13 -29 -38 -135 -29 -60 -58 -110 -64 -110 -6 0 -23 -9 -38 -21
-33 -26 -36 -84 -5 -123 23 -29 22 -34 -3 -183 -9 -54 -14 -65 -41 -81 l-32
-18 1 225 c1 124 -5 336 -12 471 -8 157 -12 514 -11 1005 1 418 -2 822 -7 897
l-8 138 24 10 c13 6 64 8 118 5 52 -3 140 -5 195 -6z m1873 -19 c20 0 31 -4
27 -10 -3 -5 -30 -10 -58 -11 -29 0 -70 -4 -92 -9 -26 -6 -4 -7 65 -2 137 9
468 9 501 0 l26 -8 7 -692 c8 -819 14 -1167 22 -1226 5 -41 4 -43 -18 -40 -15
2 -38 26 -70 72 -40 58 -48 78 -48 115 -1 25 -9 62 -18 81 -16 33 -21 35 -73
40 -43 4 -63 12 -95 38 -120 100 -175 143 -198 154 -31 14 -34 28 -5 28 11 0
45 -23 75 -51 62 -59 69 -53 20 17 l-33 49 -59 0 c-92 0 -177 38 -228 101 -22
28 -52 59 -65 69 -23 17 -26 17 -53 2 -22 -12 -30 -13 -33 -4 -2 6 -6 138 -9
292 -7 433 -24 896 -35 940 -6 22 -11 43 -11 47 0 8 261 17 360 11 36 -1 80
-3 98 -3z m-536 -1370 c32 -3 63 -11 69 -17 5 -5 13 -41 16 -78 l5 -68 -26 7
c-40 10 -142 21 -238 25 -15 1 -18 11 -18 65 0 47 4 65 15 70 25 9 100 -31
133 -74 18 -22 37 -40 42 -40 14 0 67 49 53 50 -6 0 -15 -4 -18 -10 -14 -23
-52 -6 -95 42 -39 44 -42 50 -20 43 13 -4 50 -11 82 -15z m-212 -69 c0 -70 -2
-71 -107 -71 -63 0 -74 2 -69 15 3 8 1 15 -4 15 -6 0 -10 -8 -10 -18 0 -14
-22 -25 -100 -49 -55 -16 -100 -27 -100 -22 0 4 4 10 10 14 5 3 7 11 4 18 -7
19 37 80 69 95 24 11 35 11 80 -4 29 -9 56 -23 60 -30 13 -23 25 -17 82 41 73
72 85 72 85 -4z m380 14 c10 -12 15 -13 21 -4 9 15 59 2 148 -38 47 -20 53
-26 38 -34 -16 -9 -103 -31 -184 -46 -42 -7 -69 3 -54 20 7 9 8 24 2 45 -8 25
-8 49 -2 70 3 7 20 0 31 -13z m335 -135 c3 -6 22 -17 40 -25 36 -14 175 -121
175 -133 0 -4 -53 -7 -119 -7 -91 0 -117 3 -114 13 3 7 -3 12 -15 12 -18 0
-32 24 -37 65 -6 42 -18 94 -25 113 l-10 22 49 -25 c27 -13 52 -29 56 -35z
m-111 32 c3 -5 9 -35 15 -68 5 -32 13 -68 17 -78 6 -16 -2 -14 -52 14 -32 19
-85 44 -117 55 -32 12 -58 26 -57 31 1 5 29 14 63 21 34 6 73 16 87 22 32 12
38 13 44 3z m-378 -35 l59 -12 0 -165 -1 -165 -57 -166 c-31 -91 -73 -221 -92
-290 -20 -68 -45 -150 -55 -182 -22 -64 -24 -77 -10 -77 5 0 13 15 19 33 5 17
26 84 46 147 20 63 56 180 80 260 57 190 67 220 74 220 3 0 6 -83 6 -184 l0
-183 -39 -62 c-21 -34 -61 -98 -89 -141 -29 -43 -57 -86 -62 -96 -10 -15 -16
-15 -48 -5 l-37 13 -1 186 c-1 103 0 341 0 530 1 220 -2 341 -8 338 -15 -10
-23 -960 -8 -1034 6 -27 4 -32 -14 -32 -11 0 -30 -7 -43 -15 -23 -15 -25 -14
-55 31 -17 26 -32 59 -32 73 -7 150 -6 213 2 181 32 -121 86 -267 96 -257 2 3
-9 49 -26 104 -78 256 -76 243 -76 618 l0 340 55 5 c78 8 246 0 316 -13z
m-876 -27 c0 -16 -5 -30 -10 -30 -6 0 -8 -10 -4 -24 3 -13 0 -35 -8 -48 -7
-12 -13 -28 -13 -34 0 -7 -36 -47 -80 -90 -45 -44 -94 -96 -110 -118 -29 -37
-29 -38 -36 -15 -3 13 -4 49 -1 79 2 30 4 62 5 70 1 12 15 15 63 15 34 0 73 6
87 14 34 18 35 34 2 19 -30 -13 -43 -4 -29 20 11 19 7 62 -6 62 -5 0 -11 -13
-15 -29 -7 -35 -19 -46 -60 -55 -28 -7 -29 -7 -12 12 9 10 17 24 17 30 0 7 4
12 8 12 5 0 29 19 53 41 58 55 119 99 136 99 8 0 13 -11 13 -30z m464 -166
c-1 -104 -4 -236 -8 -294 -8 -121 -8 -374 1 -407 5 -24 -11 -32 -21 -10 -3 6
-18 33 -33 58 -16 25 -48 79 -72 120 -24 41 -56 93 -72 115 -16 23 -44 76 -64
117 -34 76 -35 77 -32 207 1 71 5 130 9 130 7 0 14 -149 9 -187 -1 -6 3 -14 9
-18 7 -5 10 25 9 95 -1 87 -4 104 -21 120 -11 10 -18 24 -15 32 4 9 6 7 6 -4
1 -10 6 -18 12 -18 6 0 9 9 6 19 -3 13 3 22 17 29 82 39 118 53 157 60 25 5
54 14 64 20 11 6 25 10 30 8 6 -2 10 -74 9 -192z m610 127 c86 -33 191 -90
234 -126 17 -14 35 -25 41 -25 21 0 193 -174 251 -255 32 -44 73 -111 93 -150
41 -83 91 -235 80 -246 -4 -4 -96 -33 -203 -64 -107 -32 -240 -71 -295 -87
-55 -16 -140 -42 -189 -58 -50 -16 -91 -29 -92 -27 -1 1 -4 27 -5 57 -3 52 -1
57 35 91 20 20 62 54 92 75 133 94 437 334 450 355 11 18 -31 -8 -89 -54 -28
-24 -133 -103 -232 -177 -99 -74 -195 -147 -213 -162 -18 -16 -37 -26 -41 -24
-4 3 -7 44 -6 93 0 103 -15 72 192 386 80 120 142 221 139 225 -3 3 -8 3 -10
1 -12 -13 -249 -363 -276 -406 -17 -29 -35 -53 -40 -53 -4 0 -6 57 -4 128 2
70 5 218 6 329 2 112 4 203 5 203 1 0 36 -13 77 -29z m-958 -201 c1 -66 -2
-120 -6 -120 -4 0 -13 13 -20 30 -14 34 -45 66 -34 34 4 -10 15 -30 24 -44 10
-14 22 -41 28 -60 13 -43 26 -350 15 -350 -4 0 -37 25 -73 56 -36 31 -110 92
-165 137 -142 116 -133 99 -87 160 95 122 266 277 306 277 7 0 11 -41 12 -120z
m1472 74 c66 -14 252 -283 269 -392 5 -28 3 -34 -8 -30 -8 3 -44 13 -81 23
-62 16 -70 22 -93 61 -14 23 -25 47 -25 53 0 12 37 7 115 -15 44 -13 48 -13
35 0 -8 9 -53 23 -99 34 -57 12 -88 24 -95 36 -16 27 -156 168 -198 200 -21
16 -38 33 -38 38 0 11 156 5 218 -8z m-1870 -144 l3 -110 -27 -11 c-25 -9 -31
-6 -70 37 l-43 47 61 73 c33 41 63 74 67 74 3 0 7 -50 9 -110z m-102 -120 c14
-16 31 -27 38 -24 25 10 26 -13 1 -46 -14 -19 -25 -37 -25 -42 0 -4 -11 -31
-24 -60 -14 -29 -33 -80 -42 -113 -20 -73 -40 -105 -65 -105 -10 0 -22 -8 -28
-17 -9 -17 -11 -17 -45 0 -23 11 -36 24 -36 36 0 32 20 35 49 7 52 -50 56 -28
6 36 -19 25 -32 48 -29 50 2 3 7 15 9 27 7 37 64 151 76 151 6 0 19 -10 29
-22 l18 -23 -5 29 c-4 19 -2 27 5 22 6 -3 13 -2 17 4 3 5 13 10 22 10 18 0 53
28 53 43 0 5 -7 7 -14 4 -10 -4 -13 -1 -10 8 6 14 -19 15 -32 2 -11 -11 -44
-8 -44 4 0 20 21 49 36 49 8 0 26 -13 40 -30z m165 -57 c8 -9 68 -61 134 -117
163 -137 225 -196 225 -215 0 -14 -2 -14 -10 -1 -7 10 -9 -9 -9 -62 1 -43 5
-78 11 -78 5 0 6 9 3 20 -3 11 -2 20 3 20 5 0 12 -14 14 -30 4 -24 1 -29 -11
-26 -9 2 -29 7 -46 10 -16 4 -64 20 -105 36 -41 16 -124 47 -185 70 -216 82
-200 74 -197 106 2 16 20 65 41 109 21 44 36 86 33 93 -2 6 3 12 10 12 8 0 22
16 31 35 18 38 37 44 58 18z m460 -114 c28 -56 75 -133 164 -269 38 -57 69
-150 51 -150 -11 0 -150 108 -208 162 l-57 53 -3 142 c-3 159 1 164 53 62z
m-316 -323 c108 -41 198 -76 199 -78 1 -1 0 -34 -2 -71 l-4 -68 -281 6 c-155
4 -287 8 -294 10 -7 2 -11 16 -8 32 2 15 6 53 10 83 8 73 35 192 47 207 7 8
26 4 73 -18 35 -15 152 -62 260 -103z m1020 47 l3 -68 -53 -50 c-65 -62 -106
-87 -125 -75 -11 7 -1 27 49 99 34 50 74 109 88 131 15 22 28 38 31 36 2 -2 5
-35 7 -73z m-1415 40 c-1 -5 -7 -37 -15 -73 -8 -36 -14 -80 -15 -97 0 -18 -4
-33 -9 -33 -12 0 -71 71 -71 85 0 6 -9 16 -20 23 -12 7 -20 23 -20 38 0 23 3
25 25 20 14 -4 25 -2 25 4 0 5 5 10 12 10 6 0 4 -8 -6 -19 -10 -11 -16 -28
-14 -38 3 -15 7 -13 23 12 28 45 57 75 72 75 7 0 13 -3 13 -7z m702 -34 c13
-17 65 -62 116 -101 85 -64 121 -102 109 -115 -6 -5 -82 20 -199 64 l-67 26
-3 78 c-3 89 6 99 44 48z m1669 -25 c12 -31 9 -126 -5 -166 -8 -21 -9 -38 -4
-38 5 0 9 -42 10 -92 3 -285 7 -253 -31 -292 -19 -20 -31 -39 -27 -43 4 -5 18
4 30 20 31 38 40 34 32 -15 -9 -51 -15 -158 -9 -140 7 19 23 14 17 -5 -21 -63
-53 -111 -40 -60 4 16 -1 26 -14 35 -11 7 -20 20 -20 30 0 10 -9 28 -19 39
-20 21 -19 54 1 80 6 7 5 14 -2 18 -6 4 -8 14 -5 24 13 31 38 199 36 239 0 12
3 22 9 22 5 0 8 25 7 55 -1 30 -5 55 -9 55 -3 0 -7 19 -7 43 0 23 -7 83 -15
132 -7 50 -12 93 -10 97 7 12 68 -19 75 -38z m-112 13 c13 -33 31 -219 30
-317 0 -103 -22 -260 -51 -355 -70 -232 -230 -460 -428 -612 -70 -52 -230
-137 -240 -126 -4 4 -32 80 -61 168 l-54 160 0 227 c0 126 3 228 6 228 3 0 37
-33 75 -72 263 -275 404 -420 404 -413 0 13 -71 91 -351 382 -116 121 -127
136 -134 178 -3 26 -4 49 -2 51 3 3 24 -8 48 -24 120 -81 485 -304 559 -342
65 -33 -14 20 -206 138 -361 222 -421 267 -400 301 3 5 65 -14 138 -41 164
-62 483 -172 523 -181 61 -14 -2 12 -185 76 -245 87 -422 152 -448 166 -17 9
-22 21 -22 53 l0 41 393 -6 c229 -3 348 -2 287 3 -58 5 -233 11 -390 14 l-285
6 -3 38 -3 37 123 38 c68 21 218 67 333 102 116 35 235 73 265 83 72 26 69 26
79 -1z m186 -24 c9 -25 18 -109 17 -163 -3 -130 -4 -150 -13 -144 -5 3 -9 1
-9 -5 0 -5 5 -13 10 -16 14 -9 12 -68 -2 -84 -10 -11 -10 -14 0 -18 6 -3 12
-9 12 -14 0 -6 -4 -8 -9 -4 -5 3 -13 0 -17 -6 -3 -6 -2 -14 4 -18 12 -7 1 -77
-19 -126 -17 -41 -24 -10 -11 53 5 26 8 74 7 107 -9 345 -10 316 16 346 18 21
18 24 5 27 -9 2 -16 7 -16 11 0 5 -3 23 -6 40 -5 24 -3 31 9 31 8 0 18 -8 22
-17z m-2586 -42 c11 -11 35 -43 55 -73 41 -60 47 -107 16 -115 -21 -6 -27 -19
-10 -25 12 -4 -41 -117 -56 -117 -13 -1 -23 19 -30 59 -4 16 1 29 12 37 16 12
16 13 -4 13 -12 0 -22 5 -22 10 0 6 11 8 25 4 34 -8 31 7 -6 31 -29 19 -30 22
-23 65 6 41 11 85 13 118 1 17 8 15 30 -7z m956 -132 c138 -52 140 -69 7 -69
-55 0 -113 3 -130 6 -29 6 -30 9 -34 61 -1 30 -1 56 1 58 1 2 15 -1 30 -7 14
-6 71 -28 126 -49z m387 -30 c40 -29 38 -78 -3 -130 -23 -29 -38 -39 -60 -39
-16 0 -29 4 -29 8 0 4 -12 8 -27 7 -24 0 -30 6 -42 42 -14 38 -13 46 2 78 30
63 97 78 159 34z m-754 -45 l142 -6 0 -89 c0 -49 -2 -89 -5 -89 -3 0 -114 -34
-248 -75 -133 -41 -253 -76 -266 -77 -23 -3 -26 2 -38 52 -17 76 -35 257 -27
282 6 22 -37 21 442 2z m468 -27 c3 -3 1 -14 -4 -24 -7 -12 -51 -32 -124 -57
-62 -21 -118 -40 -125 -43 -9 -3 -11 10 -8 49 2 29 4 61 5 71 0 17 10 18 125
14 69 -2 128 -6 131 -10z m488 -23 c11 -4 14 -14 10 -33 -9 -35 -7 -35 -53
-12 -48 25 -69 28 -52 8 6 -8 29 -19 51 -26 37 -11 69 -45 55 -59 -3 -3 -16 0
-28 7 -12 8 -33 21 -47 29 -24 13 -24 13 -5 -2 66 -55 85 -79 85 -109 -1 -32
-1 -32 -70 42 -69 73 -77 91 -64 139 5 19 13 22 54 22 27 0 55 -3 64 -6z
m-1656 -64 c6 0 13 -15 16 -32 2 -18 12 -75 20 -127 15 -92 15 -95 -5 -109
-16 -11 -19 -23 -17 -65 3 -48 5 -52 33 -60 52 -16 56 -20 92 -106 l35 -85
-21 -37 c-25 -44 -27 -77 -5 -108 15 -21 22 -23 65 -18 l47 6 64 -86 64 -87
-18 -35 c-22 -44 -23 -69 -1 -93 19 -21 88 -25 127 -7 23 11 31 8 78 -28 29
-21 70 -49 91 -62 20 -12 37 -24 37 -26 0 -1 -7 -16 -15 -31 -8 -16 -15 -36
-15 -44 1 -35 52 -70 103 -70 24 0 67 37 67 58 0 10 8 12 33 7 58 -12 58 -17
6 -185 -26 -85 -57 -190 -70 -232 l-22 -77 -66 -3 c-59 -3 -66 -5 -69 -25 -2
-12 -10 -24 -18 -27 -15 -6 -102 52 -137 92 -11 11 -25 18 -31 16 -19 -7 -183
159 -255 259 -125 174 -191 336 -236 587 -25 140 -29 208 -6 120 39 -151 122
-360 206 -517 47 -89 208 -337 225 -348 6 -3 -31 56 -81 132 -157 238 -278
509 -345 773 -32 125 -35 150 -41 340 -3 113 -3 245 2 293 l7 89 22 -21 c12
-12 27 -21 34 -21z m1164 -14 c-3 -29 -13 -41 -62 -75 -32 -23 -61 -41 -64
-41 -3 0 -27 -16 -52 -35 -26 -20 -48 -34 -49 -33 -2 2 -5 34 -7 72 l-3 70
105 34 c58 18 109 37 114 42 16 15 22 3 18 -34z m504 -191 c3 -11 4 -54 2 -95
l-3 -75 -26 55 c-15 30 -56 108 -93 173 -36 65 -63 124 -59 130 8 13 170 -158
179 -188z m-216 133 c0 -27 44 -164 180 -558 56 -162 113 -331 127 -375 35
-108 104 -308 148 -430 20 -55 43 -119 51 -142 8 -23 25 -66 39 -95 26 -55 22
-72 -15 -66 -20 3 -31 28 -90 208 -37 113 -81 241 -97 285 -17 44 -43 121 -58
170 -16 50 -67 209 -115 355 -48 146 -99 306 -114 355 -50 167 -68 220 -88
257 -21 41 -17 58 13 58 13 0 19 -7 19 -22z m-100 6 c0 -9 -21 -98 -27 -114
-3 -8 -7 -20 -9 -27 -16 -77 -48 -193 -101 -363 -34 -113 -63 -217 -63 -231 0
-14 -3 -29 -7 -33 -5 -4 -8 -11 -8 -14 -1 -19 -30 -102 -36 -102 -3 0 -6 -14
-7 -31 0 -17 -7 -37 -14 -46 -7 -9 -21 -55 -30 -102 -9 -47 -44 -191 -77 -319
-34 -129 -61 -247 -61 -263 0 -28 -1 -29 -50 -29 -27 0 -50 2 -50 3 0 2 6 17
14 33 8 16 28 74 45 129 28 95 44 143 131 400 55 161 111 351 141 480 6 22 23
76 38 120 34 94 53 162 77 265 16 72 61 227 71 243 5 8 23 10 23 1z m-1167
-52 c27 -28 49 -60 53 -79 6 -31 5 -32 -47 -47 -44 -14 -55 -14 -67 -3 -17 18
-43 105 -33 112 5 2 11 18 14 35 4 16 12 30 20 30 7 0 34 -21 60 -48z m982 -9
c-5 -42 -17 -62 -82 -138 -98 -118 -163 -206 -163 -222 0 -7 -4 -13 -10 -13
-6 0 -10 48 -10 125 0 77 4 125 10 125 6 0 11 -8 11 -17 1 -10 4 -5 8 10 5 22
32 46 121 106 63 44 117 77 119 76 1 -2 0 -26 -4 -52z m-323 27 c2 -5 2 -45 0
-88 l-3 -78 -47 -28 c-138 -85 -342 -219 -338 -223 6 -7 61 23 166 91 152 99
194 124 210 128 13 3 14 -18 12 -147 -4 -168 3 -149 -102 -284 -28 -35 -48
-67 -45 -70 4 -3 9 -1 13 5 4 5 34 45 67 89 l59 80 7 -30 c4 -17 17 -81 28
-144 17 -88 28 -124 52 -159 16 -24 28 -46 26 -48 -2 -2 -44 22 -93 55 -117
77 -236 190 -324 306 -39 52 -73 95 -76 95 -7 0 70 -114 128 -187 26 -35 45
-63 40 -63 -14 0 -78 72 -136 154 -56 78 -67 106 -43 106 6 0 2 8 -9 18 -40
31 -124 214 -124 267 0 7 21 18 48 24 60 15 260 74 377 111 106 33 102 33 107
20z m578 -123 c16 -47 38 -116 49 -154 10 -37 46 -149 80 -247 34 -99 60 -187
59 -195 -4 -22 -63 -40 -133 -40 -100 -1 -94 -22 -95 350 -1 388 -1 384 5 377
3 -2 18 -43 35 -91z m-252 -1 c-1 -14 -6 -23 -10 -20 -4 2 -12 -12 -17 -33
-13 -47 -13 -53 -1 -53 6 0 10 13 10 29 0 17 5 33 10 36 14 9 12 -25 -3 -55
-7 -14 -21 -46 -31 -72 -10 -27 -22 -48 -26 -48 -5 0 -12 -16 -16 -35 -3 -19
-10 -38 -15 -41 -5 -2 -13 -23 -19 -44 -6 -22 -15 -40 -20 -40 -19 0 -10 51
15 88 14 20 25 45 25 54 0 10 4 18 8 18 14 0 29 63 21 90 -7 24 -7 24 -9 -5
-1 -16 -10 -43 -21 -60 -10 -16 -26 -48 -36 -69 l-17 -40 -12 35 -12 34 -1
-57 c-1 -31 -6 -60 -11 -63 -7 -4 -9 10 -6 41 3 30 1 43 -5 37 -5 -5 -11 -42
-13 -82 -3 -46 -10 -81 -22 -98 -16 -26 -18 -26 -25 -8 -14 36 -10 93 6 103 9
4 17 19 17 33 1 13 10 36 20 51 10 14 18 28 18 31 0 11 79 123 110 156 18 19
43 52 57 73 30 45 33 46 31 14z m197 -306 c0 -160 -3 -290 -7 -290 -19 0 -70
57 -93 105 l-27 53 26 94 c14 51 38 134 52 183 14 50 28 102 31 118 13 71 18
4 18 -263z m-194 147 c-6 -6 -11 -31 -11 -55 0 -68 -79 -374 -103 -398 -3 -4
-9 6 -13 21 -4 15 -2 31 4 37 6 6 8 17 5 24 -3 8 -1 14 5 14 11 0 34 91 26
100 -7 6 -24 -22 -18 -31 2 -4 0 -10 -6 -14 -24 -15 3 97 51 210 l12 30 8 -30
c7 -29 8 -29 6 6 -1 37 34 131 41 109 2 -6 -1 -17 -7 -23z m1372 -29 c15 -35
27 -69 27 -76 0 -7 -14 -26 -30 -42 -26 -25 -39 -30 -80 -30 -38 0 -50 -4 -50
-15 0 -8 -5 -15 -11 -15 -6 0 -9 3 -7 8 2 4 22 45 45 92 23 47 46 98 52 113 6
15 14 27 19 27 4 0 20 -28 35 -62z m-2359 -13 c3 -8 12 -15 21 -15 15 0 103
-47 136 -73 9 -6 21 -21 26 -32 11 -19 8 -20 -72 -20 -46 0 -81 3 -79 6 2 4
-5 24 -15 45 -10 21 -17 43 -14 49 2 7 -3 18 -12 25 -8 7 -15 16 -15 21 0 15
17 10 24 -6z m2554 -33 c2 -18 -6 -57 -17 -88 -21 -56 -27 -154 -8 -135 5 5
10 23 11 40 1 19 5 26 12 20 13 -10 57 123 48 146 -3 8 -2 15 4 15 12 0 5
-106 -9 -132 -5 -10 -7 -18 -4 -18 4 0 -1 -8 -10 -17 -10 -9 -21 -29 -26 -43
-5 -14 -22 -33 -37 -42 l-27 -16 0 133 c0 117 2 135 19 154 25 28 40 22 44
-17z m-138 -46 c0 -3 -6 -11 -12 -18 -7 -7 -31 -49 -53 -92 -38 -76 -42 -80
-86 -93 -46 -13 -87 -43 -58 -43 8 0 29 9 48 21 18 11 36 18 38 15 14 -13
-158 -216 -183 -216 -14 0 -29 94 -22 135 3 15 1 25 -6 25 -8 0 -8 3 0 8 6 4
25 30 43 57 42 63 97 114 125 117 68 6 106 16 106 28 0 11 43 60 53 60 4 0 7
-2 7 -4z m-1356 -270 c2 -12 14 -39 26 -60 12 -23 20 -51 18 -69 -2 -18 2 -32
10 -34 8 -3 12 6 12 26 0 23 4 29 15 25 8 -4 15 -12 15 -19 0 -8 -7 -20 -15
-29 -8 -8 -15 -17 -15 -21 0 -4 -7 -13 -15 -22 -19 -19 -33 -9 -16 11 20 24
-5 27 -26 2 -20 -22 -20 -23 -2 -35 20 -12 26 -41 9 -41 -5 0 -10 -8 -10 -17
1 -15 3 -15 19 5 11 12 22 22 25 22 12 0 6 -21 -12 -40 -19 -20 -64 -21 -102
0 -16 9 -18 13 -8 24 11 12 17 11 35 -6 l23 -21 9 24 c5 13 6 26 3 29 -2 3 -7
-1 -9 -7 -5 -15 -33 -18 -33 -4 0 5 6 12 13 15 6 4 2 4 -11 2 -22 -4 -22 -4
-5 25 9 15 14 31 11 35 -9 9 -45 -30 -40 -44 2 -7 -1 -12 -7 -12 -6 0 -10 -3
-10 -7 1 -5 1 -16 0 -27 -1 -15 -4 -16 -15 -7 -12 10 -11 20 5 64 11 29 23 59
28 68 5 8 17 61 27 117 16 95 18 100 31 75 7 -14 15 -35 17 -47z m1371 7 c-3
-38 -7 -75 -9 -83 -14 -79 -53 -219 -67 -243 -5 -10 -24 -55 -40 -100 -57
-156 -142 -288 -255 -399 -61 -59 -173 -145 -178 -136 -3 5 -26 69 -62 168
-18 52 -47 131 -64 175 -31 82 -37 120 -21 129 5 3 18 -10 30 -29 31 -52 90
-68 119 -32 6 7 13 33 17 58 6 41 5 47 -14 52 -41 10 -29 23 113 112 58 36 61
37 87 21 32 -19 100 -21 117 -4 15 15 16 60 1 75 -9 9 -7 10 10 6 30 -8 27 15
-4 29 -14 6 -25 15 -25 21 0 5 35 53 78 108 77 98 102 115 130 87 12 -12 12
-12 27 37 11 35 15 10 10 -52z m-2147 12 c28 -5 48 -14 57 -28 16 -25 48 -176
43 -203 -4 -23 33 -30 96 -16 66 14 81 3 99 -69 9 -35 14 -65 12 -67 -7 -7
-50 21 -90 57 -30 27 -34 29 -15 7 28 -33 16 -28 -50 20 -58 41 -170 166 -175
195 -5 28 -15 38 -15 16 0 -27 -13 -19 -54 34 -43 56 -38 74 19 65 17 -3 49
-8 73 -11z m1778 -62 c-2 -20 3 -52 11 -71 8 -19 12 -37 8 -40 -3 -3 -42 -5
-85 -4 -103 3 -116 -4 -123 -69 -4 -29 -13 -59 -21 -67 -11 -11 -12 -21 -5
-40 5 -14 8 -26 7 -27 -16 -12 -137 -75 -145 -75 -10 0 -33 43 -33 62 0 7 5 6
15 -2 12 -10 15 -10 15 3 0 18 49 107 59 107 4 0 12 -5 19 -12 7 -7 12 -8 12
-2 0 5 -9 15 -20 22 -18 11 -23 8 -50 -29 -16 -23 -30 -48 -30 -56 0 -26 -28
-13 -39 18 -6 18 -11 33 -11 35 0 2 17 10 38 19 20 9 45 21 54 26 10 5 22 9
27 9 18 0 157 101 226 165 39 35 71 64 73 65 1 0 1 -16 -2 -37z m-1620 -29
c91 -85 168 -143 231 -171 62 -28 65 -29 102 -36 33 -5 36 -18 15 -79 -29 -91
-27 -89 -79 -69 -61 23 -69 33 -47 57 23 25 62 80 62 88 0 20 -24 -2 -55 -50
-20 -30 -41 -53 -48 -51 -7 2 -11 9 -10 15 1 6 -5 36 -13 69 -9 32 -17 67 -18
78 -1 22 -6 22 -113 11 -62 -6 -63 -6 -63 18 0 22 -19 105 -36 158 -9 31 11
20 72 -38z m1636 -129 c-38 -50 -193 -158 -206 -144 -8 7 24 140 37 157 7 9
36 12 97 10 87 -2 88 -2 72 -23z m-540 -178 c32 -76 33 -103 7 -120 -37 -23
-144 -41 -251 -41 l-97 -1 67 68 c81 82 114 104 172 113 25 4 52 10 60 15 23
13 24 12 42 -34z m-556 3 c14 -6 35 -21 45 -35 11 -13 49 -45 84 -71 36 -27
61 -52 57 -56 -7 -7 -134 4 -192 16 -8 2 -34 7 -58 11 -38 7 -43 10 -37 29 10
34 13 50 14 66 1 8 5 21 10 29 8 12 13 12 36 -3 26 -17 26 -17 15 3 -12 24
-11 25 26 11z m344 -7 c0 -10 -131 -128 -141 -128 -12 0 -161 116 -156 121 2
3 30 1 61 -4 39 -6 74 -5 114 3 66 15 122 18 122 8z m271 -164 c5 -8 35 -97
68 -199 33 -102 62 -192 65 -200 5 -13 -52 -15 -484 -15 -269 0 -490 2 -490 5
0 3 10 41 21 85 11 44 27 107 35 140 34 144 47 185 61 185 8 0 41 -13 75 -30
33 -16 66 -30 74 -30 12 0 12 -4 4 -20 -11 -21 -70 -29 -70 -10 0 6 -7 10 -15
10 -18 0 -20 17 -3 22 6 2 8 10 4 17 -6 9 -11 9 -22 0 -39 -33 9 -99 72 -99
58 0 96 57 57 86 -15 10 10 12 141 13 139 2 157 0 147 -13 -28 -33 30 -86 95
-86 45 0 59 10 69 53 6 23 4 29 -13 34 -11 3 -23 11 -26 19 -7 18 8 18 24 -1
7 -8 16 -12 22 -9 5 3 4 11 -3 20 -9 11 -6 15 12 22 13 5 31 12 39 15 20 7 32
4 41 -14z m59 -455 c124 -4 218 -9 210 -11 -8 -3 -28 -11 -45 -18 -74 -33
-146 -58 -215 -77 -87 -23 -310 -57 -390 -60 -50 -1 -51 -2 -12 -5 63 -6 51
-20 -15 -17 -313 15 -502 36 -538 60 -14 9 -22 20 -19 25 3 5 -1 6 -9 4 -7 -3
-38 5 -68 19 -85 37 -101 69 -39 78 53 7 926 9 1140 2z m351 -21 c6 -147 5
-158 -18 -157 -13 0 -101 2 -195 3 -190 3 -204 17 -25 26 126 7 167 13 167 25
0 6 11 10 25 10 14 0 25 4 25 10 0 6 -35 8 -91 5 -50 -2 -88 -1 -85 2 8 8 179
92 189 92 4 1 7 -7 8 -16z"/>
<path d="M14556 8018 c4 -7 16 -25 26 -40 21 -30 23 -50 6 -47 -34 4 -49 -4
-18 -10 22 -4 34 -12 32 -20 -2 -8 -5 -253 -7 -545 -2 -292 -6 -576 -9 -631
-3 -55 -6 -172 -6 -260 0 -88 0 -549 0 -1025 0 -476 -1 -874 -1 -885 0 -11 2
-85 4 -165 3 -85 1 -153 -5 -164 -6 -10 -6 -21 -2 -25 5 -3 11 -241 12 -528 4
-500 3 -521 -15 -525 -10 -3 -28 4 -40 15 -22 19 -22 19 -16 -2 3 -12 9 -24
14 -27 5 -3 9 -14 9 -25 0 -10 4 -19 9 -19 5 0 7 10 3 22 -4 17 -2 20 12 15
10 -4 22 -7 27 -7 5 0 9 -9 9 -21 0 -11 4 -18 9 -14 5 3 12 1 16 -5 6 -10 -11
-14 -57 -11 -16 0 -28 -3 -28 -8 0 -15 31 -21 52 -10 18 9 19 8 13 -10 -5 -15
-2 -21 9 -21 9 0 16 -4 16 -10 0 -5 6 -10 13 -10 16 0 123 -110 168 -174 32
-45 34 -55 37 -137 4 -96 17 -113 21 -27 1 29 6 69 11 88 l9 35 108 -3 c121
-3 146 -8 123 -22 -8 -6 -26 -10 -39 -10 -13 0 -22 -3 -18 -6 3 -4 28 -3 54 1
26 4 42 10 36 12 -18 6 -16 23 2 23 8 0 15 -4 15 -10 0 -9 276 -5 395 7 33 3
93 8 133 10 l72 5 0 -81 c0 -52 4 -81 11 -81 7 0 10 26 8 78 l-4 77 155 0
c139 0 149 1 105 12 -28 6 -72 12 -100 12 -68 2 -92 9 -98 32 -7 25 -27 24
-27 -1 0 -14 -7 -20 -22 -20 -17 0 -19 3 -10 12 7 7 12 42 12 85 0 63 2 73 18
73 16 0 200 -16 284 -24 21 -3 50 -1 65 4 21 6 11 8 -43 9 -39 1 -93 8 -120
16 -27 8 -84 15 -126 15 -73 0 -78 1 -78 21 0 20 4 21 46 15 26 -3 77 -6 113
-6 62 -1 65 -2 41 -15 -24 -14 -22 -14 38 -15 37 0 61 4 57 9 -3 5 -1 12 5 16
5 3 10 0 10 -8 0 -8 6 -17 13 -20 15 -6 88 -1 119 8 17 5 19 4 9 -4 -11 -7 12
-11 75 -14 49 -3 110 -7 136 -9 44 -3 46 -2 31 14 -9 10 -14 21 -11 24 3 3 12
-2 19 -10 8 -9 55 -52 106 -97 117 -103 120 -111 45 -109 -103 3 -252 -5 -252
-12 0 -8 168 -12 282 -8 l56 2 46 -89 c25 -49 53 -98 61 -109 14 -18 15 -17 6
8 -6 14 -24 54 -40 87 -17 33 -31 65 -31 71 0 26 33 5 72 -45 23 -30 46 -55
51 -55 10 0 3 13 -31 58 -14 18 -23 34 -20 37 2 2 113 1 246 -2 l242 -6 0 -64
c0 -40 4 -62 10 -58 6 3 10 36 10 72 l0 65 26 -6 c15 -4 43 0 68 9 25 10 63
15 96 13 l55 -3 6 -115 c4 -63 8 -117 9 -120 2 -3 6 48 9 112 4 64 9 120 13
123 3 4 59 7 125 7 65 0 127 4 138 9 18 7 18 8 -5 8 -70 1 -244 12 -249 16 -2
3 -4 20 -4 38 6 318 9 821 6 849 -3 21 -9 36 -13 33 -11 -7 -23 203 -16 282
11 113 11 357 1 373 -6 9 -11 198 -12 470 -3 528 -9 670 -27 644 -7 -9 -21
-15 -31 -12 -18 3 -19 12 -18 88 1 47 2 89 2 94 1 4 12 5 26 2 27 -7 36 11 10
20 -8 4 -15 14 -15 23 0 14 2 14 10 1 14 -23 19 -10 23 68 2 40 6 74 8 77 3 2
6 -73 7 -168 1 -95 6 -208 11 -252 6 -44 10 -296 11 -560 0 -263 3 -481 5
-484 17 -16 20 65 23 521 3 413 0 523 -11 581 -11 53 -13 99 -7 177 10 129 2
565 -11 639 -5 32 -5 59 0 65 13 16 16 205 12 745 -3 421 -2 483 11 478 8 -3
21 -1 29 4 12 7 12 9 -1 9 -17 0 -27 8 -185 147 -55 49 -118 102 -140 118 -22
16 -52 40 -67 53 -31 28 -59 21 -33 -8 9 -10 14 -23 11 -29 -3 -5 0 -11 8 -13
7 -2 38 -24 67 -50 132 -116 211 -177 223 -172 7 3 19 -3 27 -12 13 -15 12
-16 -11 -9 -32 11 -644 11 -816 1 l-131 -8 -41 52 c-23 29 -79 86 -124 128
-46 42 -84 79 -86 82 -1 4 176 7 395 6 219 -1 410 2 426 7 49 14 28 27 -43 27
-38 0 -70 4 -70 8 0 4 -57 7 -127 6 -182 -3 -496 -15 -519 -19 -10 -2 -39 -4
-64 -4 l-46 -1 0 -42 c0 -24 -4 -95 -8 -158 -5 -63 -9 -180 -9 -260 0 -80 0
-327 1 -550 1 -414 0 -434 -11 -460 -3 -8 -8 -35 -9 -60 l-3 -45 -29 85 c-16
47 -54 141 -84 210 -30 69 -63 155 -73 191 -10 36 -46 133 -80 215 -34 82 -92
227 -130 323 -38 95 -77 188 -88 206 -22 37 -18 49 10 34 11 -5 19 -6 19 0 0
5 -16 16 -35 26 -22 10 -56 44 -89 88 -30 40 -52 73 -51 75 3 4 78 -75 102
-106 7 -9 13 -12 13 -5 0 16 -99 123 -116 123 -13 0 -90 86 -88 98 1 4 -14 20
-32 35 l-34 29 6 -32 7 -31 -159 6 c-88 3 -197 8 -244 10 -47 2 -168 4 -268 4
l-184 1 -29 31 c-32 34 -38 32 -13 -6 9 -14 14 -25 11 -25 -11 0 -67 65 -67
78 0 6 -5 12 -11 12 -5 0 -7 -6 -3 -12z m852 -122 c64 -3 112 0 112 5 0 21 18
7 30 -23 8 -18 39 -60 69 -93 108 -117 129 -145 112 -145 -9 -1 -167 0 -351 2
-184 1 -373 2 -418 3 l-84 0 -34 40 c-19 22 -42 54 -51 70 -9 17 -35 56 -59
88 -24 31 -44 59 -44 61 0 5 532 -2 718 -8z m1082 -163 c65 -64 116 -122 113
-129 -2 -6 0 -15 6 -19 6 -3 8 -17 5 -31 -6 -23 -9 -71 -13 -183 -1 -40 -3
-43 -25 -37 -31 8 -33 2 -26 -124 l6 -105 2 101 c1 55 5 103 8 107 3 3 12 3
20 0 11 -4 14 -41 14 -195 0 -178 -1 -190 -19 -195 -11 -3 -22 -15 -25 -26
-10 -36 -7 -155 4 -162 6 -4 10 27 10 84 0 56 4 91 10 91 16 0 26 -37 25 -93
0 -29 -2 -112 -3 -184 -2 -111 -5 -133 -17 -133 -8 0 -15 6 -16 13 -9 156 -19
199 -19 84 0 -36 -4 -77 -9 -90 -11 -29 -4 -42 16 -26 10 9 17 8 29 -2 14 -11
16 -27 11 -94 -3 -44 -10 -91 -15 -105 -11 -27 -12 -25 -31 40 -9 30 -10 27
-5 -24 3 -33 8 -65 11 -73 8 -20 -14 -16 -22 5 -4 9 -11 51 -15 92 -5 41 -11
86 -14 99 -3 14 0 31 6 38 8 10 7 17 -4 26 -9 7 -19 25 -22 40 -4 15 -11 25
-15 22 -6 -3 -6 -19 -1 -38 5 -17 11 -57 15 -87 l6 -55 -20 25 c-22 27 -22 25
-26 190 -3 122 -9 172 -21 191 -9 16 -26 -25 -18 -45 3 -8 0 -23 -6 -33 -7
-11 -10 -12 -7 -3 2 8 0 42 -5 75 -13 80 -17 265 -5 258 5 -3 6 3 3 13 -3 11
-8 179 -11 374 -2 195 -8 374 -11 398 -3 23 -3 42 0 42 4 0 61 -53 126 -117z
m-1804 11 c21 -30 51 -71 67 -91 30 -40 27 -5 31 -412 0 -93 5 -156 11 -158 6
-2 10 88 10 257 0 143 4 260 8 260 13 0 -25 59 -73 114 -83 94 -75 92 25 -6
77 -75 96 -100 91 -115 -4 -10 -9 -801 -12 -1758 -2 -957 -7 -1769 -10 -1805
-4 -36 -6 -78 -6 -95 1 -16 -4 -32 -10 -36 -6 -4 -8 -15 -3 -25 10 -26 12 -73
4 -111 -4 -18 -3 -33 2 -33 5 0 9 -5 9 -11 0 -5 -5 -7 -11 -3 -8 5 -10 -1 -7
-20 3 -14 1 -26 -3 -26 -5 0 -8 28 -7 63 2 79 -9 127 -29 127 -10 0 -13 -5 -8
-17 4 -10 6 -99 4 -198 -1 -99 -1 -219 -1 -267 1 -49 -2 -88 -6 -88 -4 0 -8
21 -9 48 -2 132 -12 528 -14 537 -1 6 -5 -6 -9 -25 l-7 -35 -2 38 c-1 27 3 37
14 37 8 0 15 -6 15 -12 0 -17 26 22 32 48 4 15 1 21 -10 20 -22 -1 -26 28 -12
80 12 41 14 43 27 27 13 -17 14 -17 9 -1 -3 10 -2 19 2 22 5 3 5 37 1 77 -3
40 -2 88 3 106 7 26 6 37 -6 49 -9 8 -16 22 -16 30 0 8 -5 14 -11 14 -7 0 -9
-9 -5 -24 3 -13 2 -26 -4 -28 -5 -2 -10 -48 -11 -105 0 -57 -4 -105 -7 -107
-4 -2 -7 -34 -7 -71 1 -58 -1 -64 -13 -48 -7 10 -10 28 -7 40 3 12 1 25 -5 28
-7 4 -9 -47 -7 -149 1 -86 -1 -156 -5 -156 -5 0 -9 30 -10 68 0 37 -2 78 -4
92 -2 28 -5 278 -4 385 0 64 2 68 14 46 13 -24 13 -24 18 12 2 22 0 37 -7 38
-5 0 -4 3 3 6 6 2 12 12 12 20 0 14 -3 14 -20 -2 -19 -17 -20 -17 -20 -1 0 9
5 14 10 11 6 -4 10 5 10 19 0 14 -5 26 -11 26 -7 0 -9 9 -6 22 4 14 0 26 -11
34 -9 8 -12 14 -5 14 6 0 9 9 6 21 -4 13 2 27 15 39 21 20 20 51 -3 70 -7 6
-11 20 -8 31 3 11 -1 27 -9 37 -16 18 -33 72 -23 72 3 0 11 -13 16 -30 6 -16
16 -30 22 -30 7 0 7 4 -1 12 -7 7 -12 23 -11 37 1 26 1 26 15 -4 l14 -30 -6
35 c-4 19 -12 38 -18 42 -8 6 -7 8 2 8 14 0 16 36 2 45 -15 9 -12 25 5 25 8 0
15 5 15 10 0 6 -6 10 -13 10 -8 0 -13 13 -13 34 0 19 4 32 8 30 4 -3 8 3 8 13
0 11 -8 19 -19 20 -14 1 -17 -4 -15 -25 2 -15 4 -45 5 -67 1 -22 7 -46 13 -54
8 -10 6 -12 -8 -10 -24 5 -25 20 -29 395 -2 160 -6 295 -9 300 -7 13 -1 1181
7 1234 10 65 11 733 2 883 -4 71 -4 127 1 127 5 0 26 -25 48 -56z m1097 -183
c26 -78 15 -85 -23 -17 -19 33 -36 54 -38 47 -2 -6 18 -49 45 -94 58 -95 110
-203 153 -314 17 -43 44 -107 60 -143 16 -36 45 -105 64 -155 19 -49 49 -123
66 -164 17 -40 29 -76 26 -79 -3 -3 -1 -11 5 -19 6 -7 9 -13 5 -13 -3 0 3 -16
15 -36 22 -39 40 -86 69 -179 39 -125 122 -360 136 -387 8 -16 34 -88 58 -161
41 -126 73 -208 117 -306 11 -24 29 -66 40 -94 11 -27 31 -69 45 -92 14 -25
22 -50 18 -61 -5 -15 -4 -16 4 -5 9 12 13 13 26 1 28 -22 28 -6 0 76 -26 78
-26 82 -30 424 -2 190 -4 347 -5 350 -1 3 -1 9 0 14 5 24 10 409 12 871 2 286
6 534 9 550 4 18 12 29 20 27 22 -5 255 -3 446 4 l181 7 6 -28 c8 -45 13
-2056 8 -3510 -1 -418 1 -818 4 -890 3 -71 7 -185 10 -253 l4 -123 -257 5
c-141 2 -271 4 -288 5 -26 0 -33 5 -36 26 -4 19 -1 25 13 25 27 0 34 -4 33
-16 -1 -6 11 -8 28 -6 15 2 34 -1 42 -7 15 -13 49 -4 40 10 -3 5 -10 6 -16 3
-7 -5 -9 -1 -5 9 5 13 0 15 -29 10 -20 -3 -40 -1 -48 7 -9 6 -20 9 -25 5 -12
-7 -55 31 -64 57 -5 15 -1 17 23 15 17 -2 33 -7 37 -10 3 -4 18 -7 32 -7 23 0
24 1 9 16 -8 9 -28 17 -44 18 -49 4 -85 18 -80 31 2 7 -1 18 -7 24 -6 6 -21
39 -33 74 -12 34 -34 98 -49 142 -39 113 -49 135 -57 135 -5 0 -8 8 -8 18 0
10 -7 28 -16 41 -9 13 -29 62 -44 110 -65 201 -168 470 -202 526 -10 17 -18
44 -18 62 0 17 -6 44 -14 60 -27 53 -66 154 -66 171 0 10 -16 51 -36 92 -36
74 -101 238 -174 440 -62 169 -87 235 -109 285 -12 26 -21 53 -21 59 0 6 -6
23 -14 37 -7 14 -17 53 -22 85 -4 32 -9 49 -12 37 -5 -31 -20 -29 -35 4 -12
27 -68 85 -75 78 -2 -2 15 -28 37 -59 47 -63 49 -70 21 -61 -24 8 -25 2 -6
-28 11 -16 14 -45 11 -112 -7 -129 -9 -592 -7 -1080 2 -458 -5 -1141 -12
-1153 -4 -6 0 -32 18 -134 l6 -28 -430 0 c-236 0 -431 4 -434 8 -7 13 -15 329
-16 677 -4 1019 1 1824 11 1830 7 5 6 11 -1 20 -6 7 -7 15 -3 18 4 3 6 166 3
364 -8 504 -6 1800 2 1808 4 4 35 9 70 12 35 2 113 8 173 14 61 5 215 14 344
19 129 6 237 12 240 15 3 3 14 5 26 3 14 -2 25 -18 38 -57z m1727 -1079 c6 -4
0 -215 -6 -222 -3 -2 -8 0 -12 5 -12 17 -47 11 -50 -8 -2 -9 -7 -17 -12 -17
-5 0 -7 7 -4 15 4 8 1 15 -6 15 -6 0 -9 4 -5 9 3 5 1 12 -5 16 -5 3 -10 44
-10 91 0 83 1 85 23 82 21 -3 22 -7 22 -91 0 -56 4 -87 11 -87 7 0 11 35 10
100 0 55 -4 100 -9 100 -4 0 -5 4 -2 10 5 8 23 2 55 -18z m4 -462 c1 -127 -2
-185 -11 -191 -26 -22 -36 27 -35 176 1 117 18 223 35 206 5 -5 10 -90 11
-191z m-1694 -1367 c25 -76 71 -192 105 -268 13 -28 27 -64 31 -80 4 -17 18
-53 31 -82 12 -28 23 -54 23 -58 0 -3 13 -41 30 -83 16 -42 59 -158 95 -257
36 -99 77 -208 91 -243 28 -74 29 -79 7 -61 -9 8 3 -22 25 -66 23 -44 57 -123
76 -175 19 -52 37 -103 41 -112 11 -28 0 -22 -45 25 -23 23 -37 33 -31 21 5
-11 17 -26 25 -34 23 -18 20 -28 -11 -33 -19 -3 -14 -4 16 -6 39 -1 49 -7 88
-48 48 -53 52 -63 23 -63 -11 0 -20 6 -20 14 0 18 -50 22 -320 25 -118 1 -233
6 -255 9 l-40 7 -1 410 c-1 301 -12 1135 -16 1205 -2 39 10 22 32 -47z m355
-474 c-4 -6 2 -20 12 -32 11 -12 35 -60 53 -107 18 -47 44 -109 56 -138 13
-29 24 -59 24 -68 0 -8 7 -31 16 -52 10 -20 18 -43 20 -51 1 -8 7 -17 13 -20
15 -9 40 -74 51 -129 5 -26 12 -56 16 -67 7 -18 6 -18 -9 -7 -9 8 -21 30 -28
50 -7 20 -29 73 -49 117 -21 44 -41 91 -45 105 -6 21 -64 171 -95 245 -43 106
-56 165 -34 165 3 0 2 -5 -1 -11z m-1529 -307 c-2 -4 -1 -14 4 -22 5 -8 5 -19
1 -25 -4 -5 -5 -50 -1 -100 4 -49 4 -117 1 -150 -4 -33 -3 -145 0 -250 4 -104
5 -192 3 -194 -21 -22 -34 201 -29 486 3 114 5 228 5 253 0 36 3 41 11 27 5
-9 8 -21 5 -25z"/>
<path d="M16740 6392 c0 -121 1 -122 65 -122 57 0 66 19 63 129 l-3 96 -62 3
-63 3 0 -109z m100 -7 l0 -95 -40 0 -40 0 0 95 0 95 40 0 40 0 0 -95z"/>
<path d="M16758 5703 c-16 -4 -18 -18 -18 -114 l0 -109 55 0 c42 0 56 4 63 18
10 19 8 185 -3 201 -6 11 -63 13 -97 4z"/>
<path d="M16935 5702 c-3 -3 -5 -54 -5 -113 l0 -107 43 -4 c23 -3 52 0 65 5
21 10 22 16 22 113 l0 102 -27 6 c-33 7 -90 5 -98 -2z m103 -114 l-3 -93 -34
-3 c-20 -2 -37 2 -42 10 -10 15 -12 162 -2 171 3 4 24 7 45 7 l39 0 -3 -92z"/>
<path d="M17140 5700 c-11 -7 -16 -34 -18 -110 -4 -100 -4 -100 22 -110 15 -5
42 -6 64 -2 l37 8 3 104 c2 76 -1 106 -10 112 -18 11 -80 10 -98 -2z m78 -18
c9 -6 12 -33 10 -97 l-3 -89 -35 0 -35 -1 -3 84 c-2 46 -1 90 2 98 6 14 44 17
64 5z"/>
<path d="M16970 5280 l-35 -5 0 -109 0 -110 27 -7 c14 -4 41 -4 60 0 l33 7 3
98 c3 123 -7 139 -88 126z"/>
<path d="M16747 5269 c-17 -10 -18 -20 -12 -107 4 -54 13 -100 19 -104 6 -4
32 -8 59 -8 l47 0 0 105 c0 58 1 108 3 113 4 12 -96 13 -116 1z m77 -15 c13
-5 16 -23 16 -94 0 -94 -3 -100 -55 -100 -30 0 -31 3 -27 104 3 69 7 86 20 89
27 7 29 7 46 1z"/>
<path d="M17152 5270 c-22 -9 -23 -13 -20 -112 3 -100 4 -103 27 -106 13 -2
39 -1 57 3 l34 6 0 100 c0 98 0 100 -26 109 -30 12 -42 12 -72 0z"/>
<path d="M16747 4843 c-4 -3 -7 -53 -7 -109 l0 -103 28 -3 c15 -2 41 -1 59 0
38 5 43 18 43 135 l0 87 -58 0 c-32 0 -62 -3 -65 -7z"/>
<path d="M16947 4843 c-4 -3 -7 -53 -7 -110 l0 -103 63 0 62 0 -1 99 c-1 54
-4 103 -8 110 -8 12 -98 16 -109 4z m93 -109 l0 -95 -37 3 -38 3 -3 93 -3 92
41 0 40 0 0 -96z"/>
<path d="M17141 4831 c-6 -11 -11 -61 -11 -111 l0 -91 58 3 57 3 0 105 0 105
-47 3 c-38 2 -49 -1 -57 -17z"/>
<path d="M16571 4441 c-17 -11 -22 -208 -5 -215 11 -4 92 8 99 16 2 2 6 49 7
104 l3 99 -45 3 c-25 1 -51 -2 -59 -7z"/>
<path d="M16760 4425 c-14 -37 -13 -178 2 -193 13 -13 59 -16 94 -6 20 5 21
11 18 112 l-4 107 -50 3 c-46 3 -51 1 -60 -23z"/>
<path d="M16945 4428 c-3 -13 -5 -63 -3 -113 3 -102 5 -104 93 -91 36 6 42 10
38 29 -2 12 -4 60 -6 107 l-2 85 -57 3 c-53 3 -58 1 -63 -20z m95 -92 c0 -101
-2 -105 -52 -98 l-28 4 0 87 c0 48 3 91 7 94 3 4 21 7 40 7 l33 0 0 -94z"/>
<path d="M17183 4443 c-31 -4 -33 -6 -33 -47 0 -24 -3 -71 -6 -105 l-7 -61 37
0 c72 0 77 9 75 121 -2 83 -5 99 -18 97 -9 0 -31 -3 -48 -5z"/>
<path d="M16962 4020 c-22 -9 -23 -14 -21 -110 1 -55 2 -100 3 -100 59 -10
105 -10 112 1 9 16 6 191 -5 201 -12 13 -65 18 -89 8z"/>
<path d="M16984 3643 l-31 -4 -7 -96 c-8 -106 -5 -113 49 -113 71 0 75 5 74
84 -2 131 -8 139 -85 129z"/>
<path d="M16757 3633 c-13 -12 -8 -180 6 -191 40 -32 122 -16 113 23 -2 11 -1
51 3 88 7 66 6 69 -17 78 -27 10 -96 12 -105 2z"/>
<path d="M17147 3633 c-4 -3 -7 -46 -7 -94 0 -87 0 -89 26 -95 15 -4 39 -3 53
2 25 9 26 12 29 102 l3 92 -49 0 c-27 0 -52 -3 -55 -7z"/>
<path d="M13260 7961 c0 -26 -3 -31 -17 -27 -75 21 -317 24 -593 7 -107 -6
-260 -11 -340 -11 -80 1 -150 1 -156 1 -6 -1 -11 -12 -11 -25 0 -13 -8 -45
-17 -72 -8 -27 -27 -98 -41 -158 -20 -83 -23 -112 -14 -122 9 -11 8 -14 -6
-14 -13 0 -16 -6 -13 -25 3 -13 1 -26 -4 -27 -4 -2 -10 -23 -12 -48 -2 -25 -9
-58 -15 -74 -6 -16 -9 -38 -6 -50 5 -15 4 -17 -3 -7 -7 9 -10 -1 -10 -32 -1
-25 -8 -76 -17 -114 -9 -37 -19 -77 -21 -88 -3 -11 -10 -47 -16 -80 -6 -33
-22 -112 -36 -175 -13 -63 -26 -124 -28 -135 -33 -179 -57 -303 -69 -360 -19
-88 -47 -182 -40 -137 2 17 1 32 -3 32 -5 0 -16 -44 -26 -97 -41 -213 -112
-558 -141 -673 -19 -79 -55 -286 -55 -319 0 -26 -21 -123 -57 -256 -37 -141
-82 -328 -114 -473 -16 -73 -38 -168 -49 -210 -11 -42 -36 -153 -55 -245 -19
-93 -37 -172 -40 -176 -2 -4 -7 -23 -10 -42 -3 -19 -17 -74 -30 -124 -13 -49
-29 -119 -35 -155 -6 -36 -20 -103 -32 -150 -13 -57 -19 -111 -17 -165 2 -81
0 -98 -27 -149 -17 -34 -8 -48 25 -39 13 3 18 9 12 13 -8 4 -9 20 -3 45 l8 39
11 -29 c27 -77 43 -132 43 -151 0 -12 7 -27 15 -34 8 -7 15 -20 15 -29 0 -30
49 -50 100 -41 25 5 98 9 163 10 76 0 116 4 112 10 -4 6 26 10 84 9 53 0 91
-5 91 -11 0 -6 76 -7 220 -3 209 7 222 7 235 -11 14 -18 15 -18 21 2 5 19 12
21 55 18 27 -1 49 1 49 7 0 5 -18 9 -41 9 l-41 0 7 32 c4 18 12 44 18 58 6 14
11 28 11 32 1 3 4 9 7 13 9 9 124 8 199 -1 87 -11 334 -9 390 4 38 9 24 10
-88 10 -72 -1 -135 1 -138 4 -8 9 92 17 211 17 179 -1 195 0 195 12 0 8 -49 9
-182 4 -101 -5 -273 -9 -384 -10 l-201 -2 5 25 c5 24 6 24 61 16 102 -16 348
-9 631 16 58 6 138 10 179 10 41 0 72 3 69 6 -12 12 -236 12 -303 -1 -85 -15
-473 -19 -495 -5 -10 7 39 10 155 11 212 2 336 6 343 14 5 4 -468 10 -508 6
-13 -2 -13 -1 0 9 8 6 40 10 70 9 88 -1 100 0 97 12 -1 6 8 12 21 14 21 2 30
-9 15 -18 -5 -2 -1 -2 7 1 22 7 113 11 320 13 136 1 169 4 125 9 -140 18 -658
30 -672 17 -3 -4 -1 -7 5 -7 23 0 11 -15 -29 -39 -34 -19 -43 -20 -50 -10 -12
20 -11 39 2 39 8 0 8 4 1 13 -11 13 -1 94 19 154 6 19 9 37 6 40 -3 3 -1 17 5
32 15 38 18 57 24 146 4 44 10 85 14 90 4 6 16 50 26 99 l19 88 44 -6 c24 -3
176 -6 337 -6 l293 0 6 -55 c4 -30 12 -55 19 -55 6 0 5 -4 -3 -9 -9 -6 -11
-16 -7 -27 4 -11 14 -57 21 -104 8 -47 23 -126 33 -175 11 -50 23 -115 27
-145 10 -73 20 -96 61 -147 24 -30 33 -49 29 -62 -4 -15 3 -26 30 -44 20 -14
43 -34 51 -46 20 -28 37 -27 29 2 -17 59 -42 108 -57 112 -21 7 -51 52 -43 65
3 6 1 10 -6 10 -12 0 -38 29 -39 44 0 5 8 2 17 -5 15 -13 16 -11 10 20 -6 29
-5 32 8 21 13 -11 32 -62 41 -109 5 -25 24 -37 34 -21 5 8 11 12 13 10 5 -6
28 -116 33 -155 2 -16 5 -39 6 -50 3 -17 -2 -19 -29 -17 -17 2 -34 -1 -37 -6
-3 -5 10 -9 29 -10 20 -1 44 -6 55 -12 11 -6 39 -10 63 -10 23 1 80 0 127 -2
47 -1 91 1 98 6 16 9 744 -2 753 -12 3 -4 13 -34 22 -67 39 -145 59 -155 27
-14 -28 124 -44 195 -70 303 -12 50 -23 99 -24 110 -1 12 -8 33 -14 48 -15 37
-49 177 -61 259 -6 36 -36 173 -66 303 -30 131 -55 258 -55 283 0 30 -7 53
-20 70 -21 28 -26 53 -10 53 6 0 10 -10 10 -22 0 -12 2 -19 5 -16 3 3 3 24 -1
47 -5 30 -11 41 -20 37 -8 -3 -14 1 -14 10 0 8 5 12 10 9 14 -9 13 9 -10 115
-25 113 -32 133 -25 65 7 -66 -11 -46 -19 23 -5 35 -3 52 4 52 6 0 8 5 5 10
-4 6 -11 8 -16 5 -5 -4 -9 1 -9 10 0 10 5 13 12 9 8 -5 9 -2 4 12 -4 10 -13
46 -21 79 -8 33 -19 79 -25 103 -6 24 -8 47 -5 52 2 4 -2 14 -11 21 -10 8 -13
21 -9 36 3 13 1 23 -5 23 -7 0 -9 8 -5 20 4 12 2 20 -5 20 -6 0 -9 4 -5 9 6
11 -14 100 -26 117 -5 6 -6 14 -3 17 4 3 3 14 -1 24 -5 10 -9 25 -11 33 -2 8
-6 31 -10 50 -4 19 -8 42 -10 50 -2 8 -7 33 -13 55 -5 22 -17 72 -25 110 -8
39 -23 95 -32 125 -34 115 -66 252 -109 460 -25 118 -57 267 -71 330 -79 354
-94 420 -104 473 -7 33 -13 73 -15 90 -2 18 -15 73 -28 122 -14 50 -30 117
-37 150 -6 33 -20 92 -30 130 -11 39 -29 115 -40 170 -51 248 -61 283 -95 340
-19 32 -35 63 -35 69 0 7 -12 23 -26 37 -23 21 -64 88 -64 104 0 3 17 5 37 5
44 0 37 11 -9 15 -22 1 -37 9 -44 24 -18 35 -24 36 -24 2z m-865 -60 c39 -5
252 -6 474 -3 364 4 404 3 398 -11 -3 -9 -2 -17 2 -19 12 -4 117 -165 139
-211 2 -4 -223 -7 -500 -6 -288 0 -523 -3 -551 -9 -45 -9 -74 -1 -41 12 11 4
14 12 9 24 -8 17 -11 38 -16 102 -1 19 -5 1 -8 -40 l-6 -75 -62 122 c-33 67
-60 123 -58 125 5 5 136 -2 220 -11z m-204 -119 c16 -48 63 -148 79 -167 12
-15 -5 -103 -51 -265 -5 -19 -16 -69 -23 -110 -23 -123 -48 -220 -56 -215 -12
7 -21 -25 -15 -46 4 -11 0 -26 -9 -35 -9 -9 -16 -32 -16 -54 0 -21 -22 -143
-49 -272 -74 -345 -87 -412 -111 -538 -12 -63 -41 -196 -65 -295 -24 -99 -58
-247 -75 -330 -17 -82 -40 -186 -50 -230 -11 -44 -29 -123 -40 -175 -12 -52
-28 -111 -35 -130 -7 -19 -15 -56 -19 -82 -4 -27 -12 -48 -17 -48 -6 0 -8 8
-6 18 10 34 16 68 22 117 3 28 10 64 15 80 5 17 11 44 14 60 3 17 14 64 25
105 11 41 18 76 16 79 -7 7 -9 3 -39 -114 -39 -153 -46 -185 -51 -230 -2 -16
-10 -59 -18 -94 -9 -36 -14 -68 -11 -72 2 -4 0 -10 -5 -14 -6 -3 -7 -15 -2
-28 6 -15 4 -26 -5 -35 -17 -16 -18 -32 -1 -32 8 0 7 -3 -3 -10 -9 -6 -13 -22
-12 -47 3 -38 -21 -160 -39 -198 -9 -21 -26 -95 -40 -180 -4 -27 -12 -70 -18
-95 -6 -25 -14 -56 -17 -70 -3 -13 -7 -27 -10 -29 -9 -10 -2 40 21 149 14 63
27 134 30 157 2 23 8 50 13 60 5 10 7 24 4 32 -2 8 0 11 5 8 6 -4 13 10 17 31
8 52 7 74 -3 68 -9 -6 -21 50 -21 97 0 35 -15 35 -29 0 -9 -24 -9 -20 -5 22
14 125 25 185 36 191 9 6 7 -44 -5 -131 -3 -16 1 -39 9 -49 12 -18 13 -17 9
12 -2 18 0 46 5 62 5 16 10 63 12 102 2 40 6 75 10 78 4 3 8 17 10 32 2 15 7
30 11 34 4 4 1 14 -6 22 -9 13 -9 14 1 8 6 -4 12 -3 12 3 0 5 3 18 6 28 5 15
4 15 -5 3 -5 -8 -12 -12 -15 -9 -8 8 12 135 38 244 13 55 38 179 56 275 18 96
41 211 52 255 11 44 22 94 24 110 2 17 9 44 14 60 5 17 23 95 39 175 16 80 38
179 49 220 21 81 27 110 72 335 34 172 67 329 105 500 44 194 52 228 68 270 8
22 17 63 21 92 3 28 8 57 11 65 5 15 11 46 27 145 6 40 15 70 19 67 4 -2 13
-21 20 -42z m1234 -172 c2 -4 12 -52 20 -106 22 -136 18 -118 69 -319 25 -99
61 -256 80 -350 20 -93 44 -210 55 -260 11 -49 31 -146 45 -215 14 -69 37
-168 51 -220 14 -52 27 -122 30 -155 2 -33 11 -87 20 -120 9 -33 20 -76 25
-95 5 -19 7 -43 4 -54 -4 -10 -2 -16 3 -13 5 3 9 -2 10 -11 2 -25 39 -188 58
-252 8 -30 17 -64 19 -76 1 -11 6 -26 10 -33 4 -6 10 -28 12 -49 3 -20 7 -45
10 -54 3 -10 8 -30 10 -45 3 -15 9 -32 15 -39 5 -6 7 -13 4 -16 -3 -2 0 -20 5
-39 6 -19 13 -50 16 -69 3 -19 10 -53 15 -75 12 -54 11 -71 -1 -59 -5 5 -14
32 -19 59 -19 92 -39 180 -50 210 -6 17 -18 56 -27 88 -9 32 -17 57 -19 55 -3
-3 71 -309 103 -425 11 -42 22 -63 32 -63 11 0 12 -2 2 -8 -10 -7 -9 -24 3
-88 15 -75 31 -141 43 -174 3 -8 4 -18 4 -22 -1 -5 3 -8 9 -8 6 0 9 -9 6 -20
-3 -11 -1 -23 5 -26 5 -4 7 -21 4 -39 -4 -19 -2 -36 4 -40 5 -3 10 -22 10 -41
0 -21 4 -33 10 -29 10 6 15 -20 12 -58 -1 -10 2 -16 7 -13 5 3 16 -34 26 -82
26 -134 63 -308 85 -397 11 -44 45 -190 75 -325 31 -135 69 -302 85 -372 16
-70 38 -151 49 -181 l19 -55 -492 2 -491 1 -17 85 c-27 132 -45 237 -58 335
-6 50 -15 110 -20 135 -5 25 -12 68 -15 95 -3 28 -17 105 -30 172 -14 67 -25
134 -25 148 0 29 -23 43 -44 26 -7 -6 -15 -9 -17 -7 -4 3 -281 17 -386 19 -29
1 -47 5 -40 9 21 14 -195 8 -252 -6 -125 -32 -151 -35 -161 -17 -8 14 -9 14
-10 -1 0 -10 -4 -18 -9 -18 -9 0 -20 -29 -26 -69 -2 -13 -27 -92 -54 -175 -28
-83 -66 -218 -86 -301 -52 -219 -49 -202 -32 -185 7 8 22 58 32 110 18 94 42
164 29 85 -7 -44 -30 -155 -45 -225 -14 -60 -17 -83 -24 -160 -4 -35 -8 -67
-11 -69 -2 -2 -64 1 -136 8 -73 7 -149 13 -168 14 -19 1 -40 5 -46 9 -6 4
-143 7 -305 7 l-294 0 3 22 c2 21 106 463 124 529 17 65 28 123 23 128 -3 3
-1 10 4 16 11 14 42 157 47 211 1 22 5 49 7 60 3 11 10 49 16 85 7 36 18 90
26 120 27 104 66 286 65 295 -5 23 1 46 10 40 5 -3 7 -12 3 -20 -3 -8 -1 -15
5 -15 9 0 17 26 27 100 3 19 12 61 20 93 8 32 15 73 15 91 0 18 3 36 7 40 4 3
8 14 10 24 18 111 21 137 16 145 -3 6 -1 7 5 3 8 -5 12 3 12 23 0 17 5 31 11
31 5 0 7 5 3 11 -3 6 -2 14 3 18 9 6 43 156 50 226 2 22 8 49 12 60 12 28 81
329 91 395 9 57 15 86 50 230 29 120 59 260 64 295 9 60 67 351 77 381 5 17
11 44 14 60 10 71 26 133 75 299 12 39 23 79 24 90 1 11 5 27 8 35 3 8 11 42
17 75 21 109 113 470 123 482 5 6 10 24 11 40 2 25 6 28 47 33 74 8 1040 8
1045 0z"/>
<path d="M12670 6824 c-60 -13 -230 -86 -230 -99 0 -3 9 -1 21 5 11 7 23 10
25 7 2 -2 -23 -20 -57 -40 -33 -20 -59 -30 -56 -23 4 10 0 12 -14 9 -10 -3
-19 -11 -19 -18 0 -7 -4 -15 -9 -17 -6 -1 -33 -32 -62 -68 -66 -82 -144 -243
-166 -340 -24 -110 -22 -291 6 -403 11 -49 19 -92 16 -97 -3 -4 2 -13 10 -20
8 -7 15 -17 15 -22 0 -5 26 -58 58 -116 33 -59 101 -186 152 -282 51 -96 122
-226 157 -288 59 -105 64 -117 58 -155 -4 -23 -15 -56 -25 -73 -12 -21 -15
-35 -8 -42 6 -6 3 -39 -8 -91 -12 -61 -13 -86 -5 -94 6 -6 11 -20 11 -31 1
-20 1 -20 14 -3 12 16 27 18 103 16 48 -1 100 2 114 5 22 6 31 2 53 -26 19
-24 28 -29 34 -20 5 8 24 11 55 8 32 -3 47 -1 47 7 0 8 3 8 8 2 8 -11 64 -17
58 -6 -6 9 123 6 156 -3 16 -5 36 -5 45 -1 10 3 86 6 168 6 166 0 231 11 126
22 -35 4 -87 7 -115 8 -34 1 -43 3 -28 7 13 4 22 12 20 17 -2 6 8 11 22 12 23
2 23 2 5 -7 -13 -6 3 -7 50 -3 39 3 95 5 125 5 l55 -1 -45 13 c-31 9 -91 12
-190 10 -186 -5 -191 -2 -207 91 -7 39 -14 95 -17 125 -3 30 -7 62 -10 70 -3
8 -8 35 -10 59 -5 46 4 68 113 276 17 33 31 63 31 68 0 5 27 63 60 129 60 118
118 251 146 338 8 25 19 54 24 65 44 101 61 255 41 370 -17 94 -91 273 -145
349 -84 117 -165 188 -248 215 -21 7 -38 16 -38 20 0 11 -47 32 -95 43 -127
30 -292 35 -395 12z m368 -55 c42 -11 97 -29 122 -40 56 -25 140 -78 140 -89
0 -5 -21 -13 -47 -18 -42 -9 -50 -8 -86 15 -22 14 -50 34 -61 45 -12 11 -34
29 -51 41 l-30 21 20 -23 c11 -13 48 -43 83 -68 34 -25 62 -48 62 -52 0 -3
-39 -17 -87 -30 -141 -39 -395 -122 -435 -142 -21 -10 -41 -19 -45 -19 -4 0
-46 47 -92 105 -46 58 -88 105 -93 105 -14 0 -3 -15 141 -192 15 -19 20 -32
14 -36 -36 -23 -153 -311 -153 -376 0 -13 -8 -33 -17 -44 -19 -22 -230 -181
-250 -189 -9 -3 -13 5 -13 23 0 16 -7 52 -16 79 -26 87 -20 219 17 338 55 178
146 354 176 342 8 -3 27 -14 42 -25 149 -115 179 -132 101 -60 -30 28 -72 60
-92 72 -21 12 -38 27 -38 33 0 14 114 93 187 129 55 27 152 62 193 69 77 13
234 6 308 -14z m335 -216 c47 -57 96 -148 138 -252 23 -58 43 -248 27 -265 -4
-6 -8 0 -8 14 0 21 -2 22 -14 10 -24 -24 -26 -65 -5 -96 22 -34 24 -63 6 -89
-13 -17 -16 -15 -45 28 -18 25 -32 50 -32 56 0 6 -18 48 -40 93 -21 46 -55
126 -74 178 -19 52 -57 149 -85 214 -28 66 -50 121 -48 123 6 6 111 42 123 43
6 0 32 -26 57 -57z m-217 -30 c-11 -69 -26 -244 -27 -302 0 -56 0 -56 -17 -31
-33 49 -117 132 -158 156 -54 32 -143 34 -232 6 -73 -23 -121 -57 -152 -107
-30 -49 -37 -37 -11 18 11 24 21 48 21 53 1 21 42 56 97 81 59 28 447 161 471
162 10 1 12 -9 8 -36z m54 -77 c16 -36 59 -142 94 -236 36 -94 79 -197 96
-228 16 -30 29 -57 27 -58 -1 -2 -59 34 -128 79 -69 45 -134 87 -144 92 -17
10 -17 18 -7 100 6 50 15 141 18 203 4 61 9 112 11 112 2 0 17 -29 33 -64z
m-286 -137 c49 -14 119 -78 147 -137 28 -56 29 -145 5 -220 -28 -82 -138 -172
-211 -172 -63 0 -149 60 -185 130 -14 27 -17 56 -16 130 1 83 5 102 29 150 31
60 71 108 102 120 28 12 84 12 129 -1z m-401 -259 c-3 -28 -1 -55 4 -62 6 -7
14 -33 18 -58 10 -59 19 -76 69 -128 48 -51 76 -67 134 -76 53 -8 166 9 198
31 39 25 38 9 -1 -43 -33 -43 -90 -144 -82 -144 2 0 35 44 72 98 38 53 85 115
106 137 49 52 91 144 98 217 l6 58 160 -104 c88 -58 160 -111 160 -118 0 -6
-108 -66 -240 -133 -132 -66 -275 -142 -318 -168 -43 -26 -86 -47 -96 -47 -10
0 -34 26 -58 63 -23 34 -68 91 -100 126 -32 35 -58 70 -58 78 0 7 -5 17 -11
21 -6 4 -23 25 -37 47 -15 22 -34 50 -44 63 -13 18 -14 25 -4 31 9 6 9 14 0
34 -9 21 -9 30 0 41 7 8 10 20 7 25 -8 13 4 61 15 61 4 0 5 -22 2 -50z m-52
-147 c30 -49 172 -239 242 -324 l54 -65 -91 36 c-50 20 -140 60 -201 87 -60
28 -147 65 -192 84 -45 19 -83 36 -83 39 0 3 12 13 28 22 15 9 70 48 122 87
52 38 96 70 97 70 1 1 12 -16 24 -36z m1005 -149 c-30 -62 -67 -144 -96 -214
-22 -55 -54 -115 -104 -200 -14 -25 -36 -67 -48 -95 -39 -88 -187 -373 -229
-443 -23 -37 -53 -87 -67 -112 -14 -25 -30 -48 -35 -52 -6 -3 -11 -18 -13 -33
-3 -27 -11 -42 -18 -34 -2 2 -7 139 -11 304 -8 327 -11 440 -16 527 -3 57 -2
58 37 86 63 45 151 94 279 157 66 32 137 67 158 77 20 11 37 16 37 11 0 -4 4
-3 8 4 7 11 134 74 140 69 1 -2 -8 -25 -22 -52z m-1201 -56 c28 -11 104 -43
170 -72 163 -72 233 -102 276 -117 81 -28 76 -5 93 -384 9 -187 16 -376 15
-420 0 -44 3 -88 6 -97 4 -10 3 -18 -3 -18 -8 0 -108 170 -146 247 -6 13 -14
23 -18 23 -5 0 -8 4 -8 10 0 5 -16 34 -35 64 -19 30 -35 58 -35 61 0 3 -31 57
-70 121 -38 63 -70 117 -70 119 0 2 -20 36 -43 77 -24 40 -69 123 -99 183 -31
61 -64 126 -75 145 -10 19 -24 48 -31 64 -12 26 -11 28 5 21 10 -4 41 -16 68
-27z"/>
<path d="M5373 7932 c-28 -20 -71 -53 -94 -72 -27 -22 -41 -29 -36 -17 8 20
-6 23 -22 3 -9 -11 -9 -15 1 -18 30 -11 -156 -173 -210 -183 -32 -6 -34 -8
-16 -15 19 -8 20 -12 11 -57 -11 -55 -13 -1103 -3 -1498 10 -383 12 -1438 4
-1675 -4 -113 -9 -398 -11 -635 -2 -236 -1 -374 2 -305 12 221 14 128 11 -429
-1 -117 2 -217 7 -222 15 -15 196 -30 272 -23 52 5 72 3 67 -4 -8 -14 485 -11
524 2 46 16 130 19 146 5 11 -9 17 -10 22 -2 4 6 36 15 72 19 54 7 60 9 35 14
-16 4 -43 5 -59 2 -33 -6 -33 -3 13 60 19 26 39 44 44 41 6 -4 3 -11 -6 -18
-10 -7 -17 -14 -17 -17 0 -7 94 -3 107 5 6 4 21 3 34 -1 19 -7 14 -10 -31 -16
-29 -4 -62 -14 -74 -22 -24 -17 -30 -17 114 -3 63 6 133 12 155 14 68 5 71 7
39 15 -18 4 -62 6 -98 4 -36 -1 -66 0 -66 2 0 3 8 13 18 23 19 20 69 21 64 2
-3 -15 39 -4 50 13 5 7 8 6 8 -4 0 -13 12 -15 68 -13 51 3 63 1 50 -7 -10 -6
-18 -17 -18 -25 0 -11 7 -9 26 8 21 18 36 22 87 20 46 -2 56 0 40 7 -12 5 -67
10 -123 12 -55 2 -100 6 -100 11 0 4 -61 7 -136 7 -75 0 -133 4 -130 9 3 5 52
9 108 10 56 1 105 4 109 6 4 3 66 6 139 7 117 1 129 3 106 15 -15 8 -49 12
-83 11 -33 -2 -59 1 -60 7 -2 6 26 9 72 8 43 -1 75 2 75 7 0 9 -100 16 -152
12 -10 -1 -18 2 -18 7 0 12 69 21 113 14 23 -3 37 -2 37 5 0 9 -91 21 -174 21
-68 1 -50 9 34 17 129 11 72 26 -85 22 -99 -2 -135 0 -135 9 0 6 9 13 19 15
18 3 18 5 5 33 -8 17 -12 22 -10 13 3 -10 1 -20 -4 -23 -6 -4 -11 0 -11 7 -1
7 -3 28 -5 46 -2 17 1 32 6 32 6 0 10 -5 10 -12 0 -6 3 -8 6 -5 4 4 1 14 -6
22 -10 12 -10 20 -1 38 9 16 9 46 3 112 -5 50 -10 187 -11 305 0 118 -4 284
-8 368 -3 83 -3 152 1 152 14 0 87 -170 122 -283 20 -61 73 -229 119 -372 46
-143 107 -334 135 -425 28 -91 60 -186 71 -212 10 -26 19 -55 19 -66 0 -11 9
-31 20 -45 11 -14 20 -28 20 -31 0 -3 -28 -6 -62 -6 -51 -1 -59 -3 -44 -12 18
-10 689 -5 781 7 56 7 265 17 355 16 64 -1 78 -4 93 -22 9 -12 17 -30 17 -40
0 -10 6 -19 13 -19 14 0 17 76 3 98 -9 14 6 39 54 92 33 37 31 24 -5 -25 -33
-47 -38 -55 -23 -50 15 6 65 73 89 119 30 57 92 160 105 175 2 2 14 -4 26 -15
l22 -19 -17 27 c-9 15 -17 36 -17 46 0 11 -11 44 -25 73 -32 71 -180 434 -257
629 -33 85 -66 169 -73 185 -7 17 -29 75 -48 130 -19 55 -49 138 -67 185 -60
160 -100 280 -100 300 0 11 -4 20 -10 20 -5 0 -7 6 -4 14 3 8 -3 34 -14 58
-53 117 -130 295 -136 315 -4 11 -18 24 -32 27 l-25 7 27 35 c15 19 29 32 32
30 3 -3 -1 -12 -8 -21 -14 -17 -8 -31 9 -20 6 3 11 18 11 32 0 27 71 112 191
232 37 36 75 80 86 96 32 48 84 145 88 163 1 9 21 78 43 152 41 140 48 184 57
360 3 58 9 164 14 235 5 72 10 145 10 163 2 59 -27 215 -59 309 -16 51 -30
102 -30 113 0 11 -4 20 -9 20 -10 0 -36 52 -47 94 -10 41 13 25 25 -17 5 -19
9 -24 10 -12 0 11 -10 39 -22 62 -12 23 -37 72 -55 108 -18 36 -37 65 -42 65
-6 0 -10 4 -10 10 0 9 -19 36 -49 67 -8 8 -15 27 -17 41 -3 34 -111 139 -209
204 -88 58 -291 160 -370 186 -33 10 -83 34 -110 51 -67 43 -193 80 -290 86
l-80 4 85 -13 c137 -22 280 -67 280 -88 0 -5 -8 -7 -17 -4 -97 30 -285 68
-403 82 -118 13 -180 15 -335 8 -104 -5 -323 -9 -486 -9 -277 0 -295 1 -291
18 6 22 6 22 -55 -21z m812 -37 l400 0 185 -63 c102 -34 199 -69 215 -76 17
-8 44 -17 60 -21 27 -6 25 -4 -14 19 -23 14 -47 26 -51 26 -5 0 -11 4 -14 9
-7 11 28 4 71 -15 17 -8 36 -14 42 -14 9 0 209 -97 291 -141 27 -15 107 -74
166 -123 30 -25 144 -183 144 -200 0 -3 12 -22 26 -43 19 -28 24 -47 22 -73
-3 -24 1 -41 13 -54 10 -10 21 -33 25 -50 3 -17 10 -35 14 -41 4 -5 15 -34 24
-62 10 -29 21 -55 26 -58 5 -3 11 -31 15 -63 3 -31 11 -68 17 -82 12 -30 27
-112 35 -195 9 -89 6 -296 -5 -330 l-9 -30 -7 35 c-4 19 -3 46 2 60 5 14 8 36
6 50 -1 14 -3 61 -4 106 -1 44 -6 87 -11 95 -6 10 -9 6 -10 -16 0 -16 -3 -24
-6 -17 -7 17 -23 15 -23 -3 0 -8 -4 -15 -9 -15 -11 0 -41 -57 -41 -79 -1 -13
-3 -12 -12 4 -11 19 -11 19 -19 0 -7 -20 -7 -20 -15 0 -4 11 -12 24 -18 28 -6
5 -1 5 12 2 18 -5 22 -2 23 17 1 13 1 28 0 35 -1 6 7 14 18 18 11 3 22 19 26
35 4 18 13 30 22 30 11 0 14 6 9 23 -3 12 -6 25 -6 30 0 4 -4 7 -9 7 -4 0 -6
-10 -4 -23 3 -14 -3 -29 -16 -41 -19 -18 -20 -17 -26 21 -6 37 -34 113 -45
123 -3 3 -6 14 -5 25 0 11 -6 28 -14 37 -8 9 -16 31 -18 49 -2 18 -7 37 -12
43 -5 6 -13 27 -19 46 -5 19 -13 44 -17 55 -6 14 2 10 28 -14 20 -19 34 -38
31 -42 -2 -4 0 -10 6 -14 6 -3 10 4 10 17 -1 15 -12 30 -33 43 -18 11 -40 38
-50 59 -10 21 -29 50 -43 64 -13 15 -24 31 -24 35 0 11 -102 128 -107 123 -2
-2 14 -28 37 -57 22 -30 60 -92 83 -139 23 -47 46 -88 51 -91 4 -4 6 -13 4
-20 -3 -8 3 -26 13 -41 11 -14 17 -33 14 -40 -3 -8 0 -28 6 -44 7 -16 13 -37
14 -46 1 -10 9 -26 18 -35 23 -26 44 -133 26 -133 -4 0 -4 -15 0 -32 4 -18 4
-46 1 -63 -9 -48 -22 -13 -36 98 -12 94 -50 225 -90 312 -22 49 -115 199 -126
203 -5 2 -8 12 -8 23 0 10 -5 19 -11 19 -14 0 -64 52 -61 63 1 4 -4 7 -11 7
-6 0 -41 25 -76 56 -137 119 -273 196 -450 254 -326 108 -565 125 -1296 92
-324 -15 -455 -19 -455 -12 0 3 16 15 34 28 19 13 50 38 68 55 19 18 74 67
123 111 l89 79 185 -9 c102 -4 366 -8 586 -9z m263 -295 c233 -34 395 -79 554
-152 148 -67 334 -222 417 -347 13 -20 30 -41 38 -48 8 -6 15 -15 16 -20 1 -4
6 -7 10 -5 5 1 6 -2 2 -8 -3 -5 -1 -10 5 -10 6 0 8 -5 5 -11 -4 -5 0 -18 8
-27 42 -48 86 -185 147 -464 12 -54 10 -101 -5 -141 -6 -14 -2 -20 15 -24 l22
-6 -5 -213 c-3 -117 -8 -218 -12 -225 -5 -6 -9 -37 -11 -67 -1 -30 -7 -64 -12
-76 -5 -11 -17 -50 -26 -86 -37 -146 -139 -364 -200 -429 -64 -68 -291 -241
-317 -241 -4 0 -11 9 -14 20 -3 11 -11 20 -17 20 -6 0 -7 -7 -3 -17 22 -53 14
-71 -42 -95 l-28 -12 39 -5 c38 -6 39 -8 78 -96 60 -138 131 -315 189 -470 28
-77 72 -185 96 -240 71 -157 115 -267 109 -272 -2 -3 -17 19 -32 49 -15 29
-64 121 -109 203 -133 242 -307 570 -378 710 -36 72 -153 288 -261 480 -139
249 -191 351 -181 355 42 15 125 175 157 302 28 109 29 392 2 491 -33 123 -77
199 -161 277 -43 40 -67 67 -55 60 13 -6 26 -10 28 -7 3 3 -21 20 -53 38 -133
77 -173 87 -301 77 -53 -4 -115 -12 -137 -18 -22 -6 -62 -12 -89 -15 -26 -2
-51 -7 -55 -11 -3 -4 23 -4 58 0 l64 6 -7 -197 c-9 -253 -7 -957 3 -1047 7
-67 7 -70 -25 -115 -95 -133 -614 -1000 -809 -1351 -97 -176 -106 -190 -111
-190 -2 0 -4 37 -3 83 0 45 1 432 0 861 0 428 1 782 4 786 8 13 9 660 1 1105
-4 220 -8 492 -10 605 -1 113 -5 212 -7 220 -2 8 3 15 11 15 8 0 20 3 25 6 6
4 48 2 95 -3 80 -9 272 -4 530 12 211 14 589 4 748 -20z m-63 -824 c33 -15 76
-51 127 -105 81 -85 127 -165 154 -261 21 -79 30 -301 14 -386 -17 -98 -48
-200 -64 -213 -32 -26 -164 -62 -247 -66 l-86 -5 -2 383 c0 210 -4 448 -7 530
l-6 147 34 0 c18 0 56 -11 83 -24z m1459 -367 c-4 -90 -9 -106 -29 -89 -9 7
-18 10 -22 6 -4 -3 0 -12 9 -19 20 -16 34 -102 16 -94 -9 3 -13 -6 -13 -29 0
-28 3 -33 18 -28 9 3 17 1 17 -5 0 -6 -5 -11 -11 -11 -6 0 -9 -6 -6 -12 2 -7
-7 -25 -21 -40 -14 -16 -20 -28 -14 -28 16 0 15 -32 0 -49 -10 -11 -10 -13 0
-7 6 4 12 2 12 -3 0 -6 -9 -11 -20 -11 -22 0 -26 20 -8 38 7 7 8 12 2 12 -5 0
-9 31 -8 73 2 52 6 71 15 69 9 -2 10 0 2 10 -24 28 -34 175 -14 187 9 6 8 10
-5 15 -16 6 -12 20 7 22 5 1 13 2 17 3 5 0 16 17 25 37 10 19 21 33 25 30 4
-2 7 -37 6 -77z m-1768 -170 c1 -17 7 -35 15 -40 10 -6 11 -11 3 -16 -14 -10
-24 -39 -17 -47 3 -3 12 2 19 12 7 9 14 12 14 5 0 -6 -8 -19 -17 -29 -13 -13
-14 -19 -5 -22 17 -5 15 -30 -3 -48 -8 -9 -15 -21 -14 -27 0 -9 2 -8 6 1 2 6
9 12 15 12 9 0 8 -84 -2 -105 -3 -5 -3 -76 0 -157 4 -128 7 -146 20 -138 13 8
15 38 13 185 -2 111 1 175 7 175 8 0 13 -21 9 -46 0 -4 5 -11 13 -15 10 -7 10
-9 0 -9 -10 0 -11 -11 -6 -42 4 -24 8 -68 10 -98 1 -30 3 -60 3 -67 1 -7 8
-10 16 -7 30 12 13 -14 -54 -84 -78 -81 -81 -79 -71 33 4 39 5 86 3 105 -3 34
-3 145 1 307 1 50 6 87 14 95 14 14 17 32 4 24 -5 -3 -9 13 -10 34 -1 22 1 40
6 40 4 0 8 -14 8 -31z m454 -639 c0 -10 223 -433 240 -455 4 -5 49 -91 100
-190 123 -240 196 -378 235 -445 30 -50 117 -208 265 -480 32 -58 87 -159 123
-225 54 -100 237 -537 261 -625 14 -49 -15 6 -250 474 -129 258 -238 474 -243
480 -4 6 -52 97 -106 201 -54 105 -102 195 -106 200 -4 6 -71 134 -149 285
-78 151 -146 280 -151 285 -20 19 55 -128 401 -795 73 -140 261 -511 418 -825
157 -313 294 -582 304 -597 38 -56 36 -56 -174 -57 -194 -1 -589 -15 -770 -27
-85 -5 -98 -4 -98 10 0 18 -62 214 -160 506 -68 202 -198 609 -239 745 -11 39
-26 121 -33 183 -6 61 -15 112 -18 112 -4 0 -1 -44 5 -97 13 -105 6 -137 -18
-82 -8 19 -29 65 -47 103 -30 66 -31 74 -34 218 -2 106 0 148 8 145 6 -2 13
-42 16 -98 4 -68 7 -86 13 -66 4 15 4 63 1 107 l-7 80 -30 0 -29 0 4 -120 c3
-82 1 -119 -6 -117 -19 6 -96 151 -97 182 -1 29 -1 29 -8 5 -7 -24 -8 -24 -58
29 -51 53 -51 53 -69 33 -16 -19 -17 -45 -14 -314 2 -161 4 -570 5 -909 l0
-617 -190 -7 c-114 -4 -228 -3 -285 4 -90 10 -405 7 -461 -5 l-27 -5 4 258 c2
142 3 337 3 433 l0 176 96 189 c178 348 304 586 341 646 23 37 56 109 50 109
-10 0 -235 -412 -381 -695 -116 -226 -116 -226 -108 -139 7 74 18 99 174 367
38 65 69 120 69 123 0 2 12 23 27 47 15 23 43 71 63 107 48 85 87 152 195 335
48 83 96 165 107 184 10 18 61 103 112 190 51 86 113 191 138 234 l45 78 114
3 c144 4 225 25 331 86 90 52 98 55 98 40z m779 -802 c48 -95 90 -182 94 -193
3 -11 12 -31 20 -45 34 -56 108 -227 111 -253 3 -28 16 -50 16 -27 0 10 3 10
14 1 24 -20 31 8 8 32 -11 12 -40 69 -64 127 -58 135 -69 168 -58 175 8 5 100
-173 100 -193 0 -5 9 -17 20 -27 11 -10 20 -24 20 -32 0 -7 4 -13 9 -13 6 0 8
9 6 19 -2 14 1 18 10 15 8 -3 11 -13 8 -21 -4 -11 -2 -14 5 -9 11 7 16 -4 13
-30 -1 -6 6 -17 14 -24 8 -7 15 -19 15 -27 0 -8 5 -11 11 -7 8 4 9 0 4 -15 -4
-14 -2 -21 7 -21 13 0 58 -78 58 -100 0 -6 10 -32 21 -58 45 -100 50 -113 54
-132 2 -11 7 -25 10 -30 3 -6 1 -10 -4 -10 -6 0 -11 5 -11 12 0 6 -2 9 -6 6
-3 -3 3 -20 14 -37 10 -17 22 -28 26 -24 4 4 4 0 0 -10 -3 -10 -1 -17 5 -17 6
0 11 -8 11 -18 0 -10 4 -22 9 -27 15 -17 142 -307 136 -313 -6 -7 -5 -8 -34
51 -13 27 -25 46 -27 44 -2 -2 12 -38 31 -80 19 -42 35 -82 36 -89 0 -7 4 -4
8 7 7 17 13 11 35 -39 33 -74 33 -97 0 -33 -13 26 -26 47 -29 47 -4 0 18 -57
40 -100 7 -14 15 -38 19 -55 8 -36 -69 104 -85 155 -6 19 -25 60 -42 90 -17
30 -52 96 -78 145 -25 50 -75 146 -110 215 -36 69 -86 172 -112 229 -26 57
-50 102 -52 99 -11 -11 316 -675 354 -722 5 -6 20 -38 32 -71 26 -71 84 -178
104 -195 12 -10 15 -9 15 9 0 11 5 21 10 21 17 0 11 -31 -12 -68 -12 -19 -50
-73 -85 -119 -34 -46 -70 -97 -78 -113 -9 -17 -20 -30 -25 -30 -5 0 -16 26
-24 58 -9 31 -20 64 -25 72 -5 9 -12 30 -16 48 -7 35 7 44 24 15 14 -24 14 -7
0 18 -5 11 -14 17 -19 14 -8 -5 -73 115 -76 140 0 6 -7 24 -14 40 -46 105 -59
136 -65 164 -3 17 -11 33 -16 36 -5 4 -9 14 -9 24 0 10 -15 51 -34 92 -39 84
-129 329 -124 335 5 4 68 -147 68 -160 0 -18 93 -216 101 -216 13 0 13 -2 -36
102 -25 53 -45 102 -45 110 0 8 -4 18 -8 23 -15 18 -65 146 -59 152 4 3 14
-12 23 -33 9 -22 23 -50 31 -64 8 -14 23 -44 34 -68 12 -24 23 -42 25 -39 6 6
-68 163 -102 218 -12 20 -27 54 -33 76 -6 23 -18 46 -26 53 -8 7 -12 16 -9 22
3 5 1 14 -4 21 -14 18 -72 166 -72 185 0 28 16 1 50 -83 18 -44 37 -84 43 -90
11 -12 12 -13 -33 105 -37 99 -53 134 -80 175 -27 42 -51 121 -42 138 5 10 32
-40 32 -59 0 -24 43 -103 53 -97 6 4 8 -3 5 -15 -4 -12 -1 -22 4 -22 6 0 17
-8 25 -17 13 -16 13 -16 7 7 -3 14 -13 36 -23 49 -44 63 -51 77 -46 90 3 8 1
17 -5 21 -6 4 -12 22 -12 40 -1 32 -170 385 -179 375 -3 -2 -6 10 -7 27 -2 18
0 29 3 26 4 -3 46 -84 94 -180z m-1163 -1185 c2 -37 6 -84 10 -103 3 -19 8
-49 10 -67 2 -18 11 -63 20 -100 9 -37 20 -108 23 -158 6 -76 9 -86 18 -65 6
15 8 44 3 73 -4 26 -3 47 2 47 4 0 8 -7 8 -16 0 -13 3 -14 14 -5 11 10 15 4
18 -30 4 -46 8 -40 -116 -184 l-25 -30 -1 58 c0 32 3 56 8 54 4 -3 6 14 4 36
-1 23 -5 152 -7 286 -3 134 -8 248 -11 253 -6 10 6 32 13 24 3 -3 7 -36 9 -73z"/>
<path d="M5998 5283 c-33 -5 -80 -59 -96 -109 -17 -57 16 -137 42 -101 14 18
42 25 31 7 -3 -5 1 -10 9 -10 9 0 16 5 16 10 0 6 20 10 45 10 25 0 45 -4 45
-9 0 -17 34 -22 49 -6 11 11 16 35 16 79 0 115 -38 147 -157 129z m132 -123
c0 -37 -2 -40 -28 -40 -16 0 -31 3 -35 6 -3 3 -30 8 -61 10 -46 3 -54 1 -50
-11 6 -16 -4 -19 -30 -9 -15 6 -15 24 0 72 2 8 32 12 104 12 l100 0 0 -40z"/>
<path d="M6418 5248 c-14 -20 -25 -50 -27 -74 -4 -74 44 -148 63 -97 6 14 9
15 15 4 7 -10 19 -12 47 -6 22 5 47 10 58 12 10 2 25 -2 32 -8 20 -17 41 -4
49 29 7 35 -36 134 -69 157 -12 9 -44 15 -82 15 -58 0 -63 -2 -86 -32z m206
-79 c9 -17 13 -35 10 -40 -3 -5 -40 -8 -82 -8 -42 1 -85 -2 -95 -6 -23 -9 -33
1 -42 42 l-6 32 93 4 c51 1 96 4 100 5 3 1 14 -12 22 -29z"/>
<path d="M6574 4716 c-18 -8 -36 -27 -44 -45 -7 -17 -19 -35 -28 -40 -22 -12
-27 -122 -9 -180 9 -25 20 -64 26 -87 l11 -41 61 -7 c91 -9 160 -7 239 6 l70
12 11 41 c16 56 13 105 -10 156 -19 41 -19 44 -3 51 16 6 16 7 0 7 -9 1 -34
28 -55 60 -21 33 -48 65 -61 70 -32 15 -171 13 -208 -3z m246 -88 c11 -18 20
-36 20 -40 0 -5 -61 -8 -135 -8 -74 0 -135 4 -135 9 0 5 3 23 6 40 l7 31 108
0 109 0 20 -32z m-295 -69 c4 -6 13 -8 20 -5 7 2 82 6 167 7 l153 2 19 -58
c26 -79 18 -90 -68 -92 -36 -1 -66 2 -66 7 0 4 -27 10 -60 12 -33 1 -60 0 -60
-4 0 -5 19 -8 43 -9 l42 -1 -35 -8 c-19 -4 -54 -10 -78 -13 -47 -6 -44 -8 -83
88 -15 38 -21 85 -10 85 5 0 13 -5 16 -11z"/>
<path d="M5675 4693 c-28 -7 -71 -50 -85 -84 -7 -16 -19 -29 -27 -29 -13 0
-13 -3 -3 -15 10 -12 10 -15 -4 -15 -9 0 -16 -8 -16 -17 0 -10 -9 -31 -20 -48
-28 -42 -26 -76 11 -172 12 -31 47 -30 55 1 6 24 7 24 129 24 119 0 124 -1
127 -22 4 -25 36 -33 60 -14 9 7 18 34 22 62 3 27 12 53 21 60 13 9 15 26 12
86 -3 68 -7 80 -41 127 -20 28 -43 54 -52 57 -18 7 -159 6 -189 -1z m178 -70
c2 -5 7 -20 11 -35 l6 -28 -135 0 c-74 0 -135 2 -135 5 0 4 7 19 15 35 l16 30
109 0 c60 0 111 -3 113 -7z m47 -118 c1 11 2 26 1 33 -1 6 6 12 15 12 22 0 17
-28 -27 -147 -8 -21 -13 -21 -174 -23 -114 0 -171 3 -181 11 -20 17 -17 48 10
99 l24 45 153 5 154 5 12 -30 c9 -24 12 -26 13 -10z"/>
<path d="M5446 3709 c-63 -10 -110 -48 -150 -124 -27 -49 -38 -61 -65 -66 -41
-9 -48 -16 -33 -37 25 -35 24 -45 -8 -109 -44 -89 -46 -166 -7 -237 15 -27 27
-55 27 -62 0 -19 37 -36 60 -29 11 4 20 13 20 20 0 12 38 15 210 17 208 3 209
3 221 -19 18 -34 81 -32 97 2 7 14 12 32 12 40 0 9 10 15 24 15 13 0 29 7 36
15 10 12 6 13 -24 8 -47 -7 -48 13 -1 21 32 6 50 26 24 26 -5 0 -7 6 -4 13 4
6 0 4 -8 -5 -17 -21 -37 -24 -37 -5 0 7 14 18 32 25 17 6 29 15 25 18 -4 4
-13 1 -22 -6 -26 -22 -30 -2 -5 25 22 23 24 33 25 153 l1 127 -42 60 c-76 107
-77 107 -129 116 -63 10 -215 9 -279 -2z m299 -27 c6 -4 10 -20 10 -37 1 -16
5 -41 9 -54 6 -16 5 -21 -3 -17 -6 4 -11 16 -11 27 0 33 -43 40 -222 37 -93
-2 -168 0 -168 4 0 9 35 28 69 39 33 9 303 11 316 1z m-70 -69 c52 -7 65 -24
79 -105 l7 -38 -231 0 c-136 0 -230 4 -230 9 0 25 54 130 69 134 26 7 254 8
306 0z m119 -170 c-3 -21 -12 -59 -19 -85 -8 -26 -10 -50 -5 -53 4 -3 5 -17 1
-33 -6 -23 -15 -28 -60 -37 -47 -9 -51 -12 -37 -24 13 -11 24 -12 54 -3 58 18
63 24 68 93 10 139 24 182 54 164 17 -10 12 -81 -7 -96 -15 -12 -16 -12 -10 4
4 10 3 16 -2 12 -6 -3 -10 -23 -9 -44 0 -37 -5 -74 -23 -141 -10 -40 6 -36
-199 -50 -160 -10 -340 -5 -382 12 -32 12 -52 62 -42 103 6 23 10 25 36 19 21
-4 28 -3 24 5 -4 6 -14 11 -23 11 -22 0 -12 56 19 102 12 20 28 44 34 54 10
15 14 17 25 7 10 -10 74 -13 251 -13 205 0 238 2 238 15 0 8 5 15 10 15 7 0 9
-14 4 -37z"/>
<path d="M5690 3341 l-52 -71 -152 0 c-169 0 -203 7 -229 48 -18 30 -23 13 -6
-21 16 -29 28 -37 61 -37 15 0 31 -8 37 -17 13 -25 231 -34 231 -10 0 9 13 17
33 20 83 14 140 27 145 32 12 12 -6 14 -42 4 -21 -6 -40 -8 -43 -5 -7 7 21 52
55 88 14 15 23 30 20 34 -4 3 -30 -26 -58 -65z"/>
<path d="M6922 3691 c-48 -6 -57 -12 -115 -74 l-62 -67 0 -133 c1 -125 2 -136
32 -207 17 -41 34 -94 38 -116 9 -55 36 -84 81 -84 22 0 37 6 40 15 4 8 13 15
21 15 8 0 11 5 8 10 -4 6 -11 8 -16 5 -5 -4 -9 -1 -9 4 0 14 48 14 103 2 23
-6 60 -13 82 -17 l40 -8 -40 -6 c-27 -4 -1 -8 82 -11 91 -3 122 -1 120 8 -1 6
3 11 8 10 6 -1 9 -5 8 -8 -1 -4 18 -9 43 -13 38 -5 51 -1 92 24 47 30 46 39
-2 20 -25 -9 -26 -8 -20 18 4 15 13 47 21 72 24 70 19 113 -21 185 l-36 63 27
20 c17 13 24 25 20 36 -9 23 -24 20 -30 -6 -5 -18 -8 -19 -21 -8 -9 7 -16 19
-16 26 0 8 -4 14 -9 14 -5 0 -21 26 -36 57 -34 74 -68 119 -108 140 -36 18
-230 27 -325 14z m327 -43 c22 -15 61 -65 61 -78 0 -3 -88 -4 -195 -2 -171 3
-195 2 -195 -12 0 -13 26 -16 192 -18 l193 -3 21 -45 c12 -25 24 -55 28 -67
l7 -23 -173 1 c-95 1 -198 4 -228 7 l-55 7 -1 90 c-1 50 -6 103 -12 118 -11
25 -9 29 11 37 12 5 90 9 172 7 122 -2 154 -5 174 -19z m-401 -262 c8 -5 13
-25 12 -50 -4 -101 -2 -107 45 -153 44 -42 65 -48 65 -18 0 9 -6 12 -15 9 -44
-17 -87 58 -84 148 1 23 0 48 -1 53 -6 24 0 37 13 27 22 -17 108 -24 290 -24
108 1 184 5 191 11 28 23 82 -68 91 -151 5 -43 2 -59 -14 -85 -24 -38 -75 -52
-112 -32 -28 15 -281 14 -309 -1 -21 -11 -111 -5 -139 9 -19 10 -28 33 -47
116 -4 17 -13 37 -21 47 -13 14 -43 98 -43 118 0 8 55 -9 78 -24z"/>
<path d="M9648 7960 c-2 -8 -46 -11 -143 -9 -337 6 -1115 3 -1115 -3 0 -7 60
-11 158 -12 12 0 22 -3 22 -7 0 -4 -46 -54 -102 -112 -57 -58 -113 -119 -126
-136 -13 -17 -32 -31 -43 -31 -20 0 -20 -9 -15 -717 3 -395 8 -766 12 -824 l7
-105 -38 -22 c-35 -21 -37 -25 -30 -58 5 -31 2 -39 -24 -65 -20 -18 -41 -29
-60 -29 -16 0 -39 -8 -51 -18 -33 -26 -20 -65 31 -99 33 -22 38 -29 27 -37
-28 -21 -68 -91 -68 -119 0 -39 48 -82 109 -98 41 -10 47 -14 36 -26 -28 -28
21 -103 67 -103 16 0 17 -10 12 -112 -6 -111 -7 -114 -40 -148 -24 -26 -32
-41 -28 -57 4 -12 -2 -35 -12 -52 -22 -37 -8 -58 39 -63 23 -2 32 -9 37 -28 3
-14 3 -142 -1 -285 -7 -282 -14 -1351 -10 -1611 l2 -161 -37 -1 c-21 -1 -41
-5 -45 -9 -5 -5 12 -6 36 -5 31 3 45 0 45 -8 0 -9 -21 -11 -75 -8 -99 5 -96
-9 4 -18 l79 -6 6 -59 c5 -39 11 -57 18 -53 6 4 8 27 5 59 -3 28 -2 56 1 61 4
5 102 9 217 10 116 0 359 1 540 2 182 2 384 0 450 -4 216 -10 514 -13 455 -4
-30 4 -100 8 -154 9 -61 1 -96 5 -90 10 5 5 213 12 469 14 253 3 468 9 477 12
10 4 15 11 12 16 -3 5 0 9 5 9 6 0 11 -4 11 -10 0 -11 51 -13 99 -4 17 4 28
11 25 16 -10 17 15 26 62 23 25 -2 42 1 39 6 -4 5 0 9 8 9 8 0 17 -7 21 -15 7
-20 40 -19 60 1 9 8 20 13 25 9 5 -3 12 -1 15 4 6 9 -23 23 -40 20 -34 -6 -48
16 -16 24 9 3 -10 6 -43 7 -33 1 -67 3 -75 4 -8 2 -37 3 -64 4 -85 3 -38 21
59 23 50 1 94 4 99 6 20 13 -25 23 -104 24 -74 1 -80 2 -45 10 22 5 67 8 100
8 94 -1 105 0 105 11 0 5 -8 9 -17 8 -10 -1 -65 0 -123 2 l-105 2 65 14 c36 7
91 13 122 14 63 0 87 16 36 24 -98 15 -139 19 -193 22 -33 2 -67 4 -75 5 -9 1
-28 -1 -43 -5 -15 -3 -27 -3 -27 1 0 3 30 38 68 77 37 39 76 83 87 96 25 31
128 239 141 285 1 6 19 62 39 125 21 63 55 201 76 305 22 105 42 201 45 215
18 75 24 167 19 260 -7 126 -15 212 -21 221 -2 3 -6 25 -9 47 -2 23 -9 60 -14
84 -5 24 -12 65 -16 92 -3 27 -13 65 -21 84 -8 19 -12 37 -9 40 3 3 -1 12 -9
21 -16 18 -76 125 -76 136 0 3 5 3 10 0 6 -3 10 -2 10 3 0 6 -7 12 -15 16 -8
3 -31 31 -51 62 -20 31 -50 73 -68 93 -57 64 -80 101 -62 101 8 0 28 16 43 35
15 19 47 49 71 67 23 17 42 39 42 49 0 9 9 28 21 43 l21 26 -58 54 -57 53 37
131 c21 72 35 136 31 142 -10 16 7 12 54 -15 27 -16 39 -19 31 -10 -8 9 -27
23 -43 31 -25 13 -28 19 -22 42 4 15 9 50 11 77 1 28 6 77 9 110 4 33 8 74 10
90 1 17 4 30 5 30 2 0 9 55 14 115 3 30 5 57 6 60 1 3 1 39 0 80 -2 78 -22
189 -42 227 -13 26 -2 46 12 23 5 -8 12 -12 15 -8 4 3 -2 14 -13 24 -22 23
-35 54 -22 54 6 0 10 -7 10 -15 0 -8 5 -15 11 -15 6 0 1 17 -11 37 -18 31 -48
106 -55 138 -1 6 -7 28 -13 50 -6 22 -10 43 -9 47 1 3 -9 18 -22 32 -14 14
-20 26 -13 26 11 0 -35 73 -89 142 -17 21 -29 41 -26 44 6 6 87 -41 171 -100
74 -51 100 -65 66 -36 -35 30 -178 123 -228 149 -24 12 -76 53 -116 91 -40 39
-77 70 -81 70 -4 0 -21 10 -37 22 -17 11 -69 40 -117 64 -123 62 -86 57 57 -8
61 -27 65 -15 5 15 -85 42 -203 79 -393 123 -63 15 -117 30 -120 33 -3 3 -21
7 -40 9 -19 1 -51 6 -70 11 -19 5 -73 15 -118 21 -46 6 -90 14 -97 16 -7 3
-15 0 -17 -6z m-468 -55 c397 -5 511 -10 568 -25 17 -4 32 -5 32 -1 0 3 11 8
25 9 16 1 25 -3 25 -13 0 -7 5 -17 12 -21 8 -5 9 -2 5 10 -5 12 -3 15 6 9 6
-4 26 -9 42 -9 53 -3 56 -4 49 -16 -5 -10 -4 -10 6 -1 10 9 19 9 39 -1 14 -7
50 -16 79 -20 73 -9 250 -68 336 -112 107 -55 153 -89 246 -183 166 -168 283
-399 306 -602 6 -55 -3 -66 -11 -13 -9 58 -24 107 -35 114 -6 4 -10 11 -9 16
5 15 -12 54 -22 54 -5 0 -9 7 -9 15 0 8 -5 15 -10 15 -7 0 -7 -7 0 -21 7 -11
9 -24 5 -27 -8 -8 -45 39 -39 49 2 4 -17 31 -43 60 -26 30 -37 45 -25 35 12
-11 24 -17 27 -14 6 6 -92 122 -108 127 -7 2 -3 -6 7 -18 11 -11 16 -24 12
-29 -4 -4 -13 0 -19 9 -11 14 -107 83 -117 84 -3 0 -16 7 -30 16 -135 84 -285
159 -315 159 -11 0 26 -23 81 -51 147 -76 211 -115 269 -165 29 -24 60 -44 69
-44 10 0 14 -4 11 -10 -3 -5 0 -7 8 -4 8 3 18 -6 25 -21 6 -14 15 -25 20 -25
5 0 17 -19 27 -42 11 -24 31 -61 46 -83 23 -35 54 -97 72 -145 3 -8 12 -32 21
-52 27 -63 8 -42 -29 32 -110 218 -231 349 -445 480 -179 110 -317 167 -480
199 -87 18 -321 27 -495 20 -88 -4 -304 -8 -480 -9 -176 -1 -371 -5 -433 -8
-62 -4 -119 -5 -127 -2 -10 4 19 40 95 115 60 60 110 113 110 118 0 4 8 19 17
33 16 26 18 26 107 20 50 -4 264 -9 476 -11z m-740 -302 c36 -2 319 -4 630 -4
607 -1 795 -11 917 -49 333 -102 448 -164 608 -324 116 -117 164 -205 269
-505 18 -49 28 -102 31 -160 2 -47 7 -122 11 -166 3 -44 6 -82 6 -85 0 -3 0
-61 -1 -129 l-1 -123 -25 6 c-13 3 -36 11 -51 16 -26 10 -26 11 -9 30 12 13
19 38 20 73 1 32 8 63 18 77 40 57 11 104 -84 135 -40 13 -55 14 -84 5 -35
-11 -60 -6 -50 10 3 5 -8 16 -25 25 -16 8 -30 23 -30 31 0 16 -7 16 -55 -1
-16 -6 -16 -3 4 13 14 11 31 18 38 15 26 -10 12 12 -18 30 l-31 17 26 21 c21
16 24 24 16 35 -7 7 -9 18 -5 23 3 6 1 19 -4 29 -7 14 -6 24 4 38 20 27 18 52
-5 66 -13 9 -20 24 -20 46 0 79 -100 110 -196 61 -48 -24 -65 -24 -92 1 -29
27 -58 25 -78 -6 -12 -17 -20 -22 -27 -15 -8 8 -7 15 1 23 7 7 12 17 12 22 0
6 -5 5 -12 -2 -7 -7 -19 -12 -27 -12 -11 0 -9 5 7 16 12 8 22 25 22 37 0 23
-47 97 -62 97 -6 0 -7 20 -3 49 l7 50 -51 25 c-61 31 -72 32 -97 5 -27 -30
-77 -55 -82 -40 -2 7 -15 2 -34 -14 -40 -34 -51 -32 -82 15 -14 22 -30 40 -35
40 -5 0 -15 17 -21 38 -16 47 -22 54 -44 46 -14 -6 -13 -9 10 -32 17 -18 24
-34 21 -50 -3 -18 1 -26 19 -33 14 -5 34 -25 45 -44 12 -19 23 -35 25 -35 3 0
21 7 41 15 19 8 42 15 51 15 8 0 30 11 48 25 18 14 39 25 46 25 8 0 19 5 25
11 9 9 20 9 43 -1 43 -18 53 -40 29 -66 -19 -21 -19 -21 4 -45 37 -38 67 -86
59 -93 -4 -4 -7 -13 -7 -18 0 -6 -7 -13 -15 -15 -13 -4 -13 -3 0 6 13 9 13 11
-2 11 -10 0 -18 -6 -18 -14 0 -7 -7 -19 -15 -26 -8 -7 -15 -18 -15 -24 1 -6 9
-1 20 12 11 13 24 20 30 17 8 -5 4 -16 -12 -33 -13 -15 -15 -20 -6 -13 22 17
42 9 63 -23 14 -21 15 -31 6 -57 -13 -38 -5 -52 15 -24 9 12 12 31 8 51 -6 31
8 54 21 34 8 -14 79 -3 138 21 91 37 208 18 193 -32 -3 -10 -9 -28 -12 -39 -4
-14 -2 -20 9 -20 26 0 40 -26 23 -43 -9 -8 -21 -17 -28 -20 -9 -3 -4 -14 15
-35 l29 -30 -34 -32 c-29 -28 -106 -65 -115 -56 -6 5 50 39 64 39 16 0 48 35
40 43 -7 7 -148 -73 -159 -90 -11 -16 -2 -19 23 -6 l22 13 -19 -25 c-10 -13
-38 -41 -61 -62 -45 -40 -53 -56 -29 -56 8 0 34 23 58 51 23 28 51 55 60 60
30 16 17 -10 -22 -47 -40 -37 -36 -55 7 -27 21 13 19 9 -11 -20 -22 -20 -36
-40 -33 -44 4 -3 21 9 39 26 26 26 34 29 36 16 3 -13 6 -14 20 -3 15 12 16 11
3 -4 -7 -10 -18 -15 -23 -12 -10 6 -48 -23 -48 -38 0 -15 25 -8 63 18 21 14
43 23 50 21 7 -2 1 -10 -13 -16 -32 -16 -67 -61 -47 -61 8 0 31 11 51 25 43
29 55 30 82 10 25 -19 35 -19 28 0 -4 8 -10 15 -15 15 -14 0 -59 42 -54 50 2
4 -7 5 -20 2 -32 -6 -31 8 2 32 25 19 26 19 39 1 8 -11 14 -25 14 -32 0 -16
14 -17 40 -1 10 7 23 8 27 4 4 -5 2 -11 -4 -13 -7 -3 -13 -9 -13 -15 0 -7 25
-9 75 -4 67 6 79 4 124 -18 62 -32 70 -44 43 -66 -12 -10 -18 -20 -15 -24 3
-3 0 -12 -6 -20 -7 -8 -10 -20 -6 -25 3 -6 1 -20 -5 -30 -15 -29 -151 -141
-169 -141 -12 0 -9 6 8 19 17 13 20 20 10 23 -16 5 9 34 62 73 18 14 26 25 18
25 -8 0 -37 -22 -64 -50 -27 -27 -43 -50 -35 -50 11 0 11 -3 2 -12 -9 -9 -21
-4 -52 21 -23 18 -43 31 -46 28 -3 -2 6 -11 20 -20 13 -9 33 -31 45 -50 l21
-35 35 18 c18 9 48 29 65 44 38 32 52 33 48 4 -3 -19 5 -24 52 -38 55 -16 72
-37 53 -63 -5 -7 -10 -27 -11 -46 -2 -18 -11 -45 -22 -58 -13 -17 -18 -34 -14
-49 8 -31 -39 -131 -100 -211 -43 -57 -76 -80 -76 -53 0 6 -4 10 -10 10 -16 0
-12 -27 5 -34 22 -8 9 -30 -43 -67 -26 -18 -53 -39 -61 -47 -7 -7 -16 -10 -19
-7 -3 3 4 12 16 21 12 8 20 20 17 25 -4 5 0 9 8 9 22 0 31 32 13 46 -25 17
-19 29 26 59 23 15 55 42 71 59 28 30 107 143 107 153 0 2 -25 -27 -56 -66
-31 -39 -63 -71 -70 -71 -8 0 -21 -11 -30 -25 -9 -14 -22 -25 -29 -25 -6 0
-20 -9 -30 -20 -10 -11 -22 -17 -27 -14 -5 3 4 15 19 27 15 12 35 29 44 38 9
9 21 18 26 20 16 7 58 83 42 77 -8 -3 -23 0 -33 8 -18 12 -17 15 8 60 14 26
25 48 24 50 -2 1 -28 -18 -58 -43 -33 -27 -46 -43 -32 -39 30 10 28 4 -13 -41
-30 -33 -34 -35 -28 -13 l7 25 -28 -18 c-27 -18 -56 -17 -56 2 0 6 20 22 44
36 42 25 107 95 88 95 -5 0 -15 -7 -22 -15 -7 -8 -18 -15 -24 -15 -6 0 -33
-20 -59 -45 -26 -26 -52 -43 -58 -40 -12 8 68 82 98 91 19 5 20 8 9 19 -11 11
-22 9 -63 -10 -50 -24 -81 -51 -71 -61 3 -2 21 7 39 22 l34 27 -31 -32 c-29
-30 -32 -31 -60 -19 -16 7 -39 19 -51 26 l-23 14 21 30 c12 16 18 32 15 35 -3
4 4 17 16 30 24 26 13 31 -18 8 -22 -17 -54 -20 -54 -5 0 6 6 10 13 11 15 1
83 79 68 79 -6 0 -8 7 -4 17 4 9 -20 -5 -53 -31 -32 -27 -58 -55 -56 -62 3
-17 -15 -19 -20 -3 -3 9 -10 9 -27 0 -42 -23 -45 4 -4 35 21 16 38 27 39 24 0
-3 24 16 53 43 29 26 59 47 67 47 20 0 84 60 84 79 -1 11 -6 8 -21 -12 -29
-38 -59 -53 -70 -36 -8 12 -11 11 -22 -1 -22 -28 -122 -98 -170 -120 -29 -14
-46 -28 -45 -37 2 -8 -14 -24 -34 -36 -35 -21 -37 -21 -57 -3 -19 17 -19 20
-4 42 8 13 22 24 31 24 13 0 13 -2 -2 -19 -16 -18 -12 -56 5 -45 5 3 7 10 4
15 -3 5 1 6 9 3 11 -4 19 2 25 18 5 13 16 30 25 37 9 7 16 19 16 26 0 7 36 47
81 89 61 58 76 76 60 76 -14 0 -21 6 -21 20 0 29 -16 24 -30 -9 -19 -47 -81
-93 -95 -71 -4 6 -15 10 -25 10 -31 0 -30 12 6 73 18 31 31 57 28 57 -9 0 -58
-61 -72 -89 -7 -14 -10 -18 -7 -7 4 14 1 17 -14 13 -34 -8 -32 20 4 106 11 25
-12 21 -26 -5 -7 -13 -18 -28 -25 -35 -7 -7 -14 -18 -16 -25 -2 -6 -9 -8 -15
-5 -8 5 -9 17 -2 39 13 46 4 46 -25 -1 -30 -47 -38 -49 -67 -20 -18 18 -20 29
-15 86 6 82 -8 161 -41 231 -14 29 -23 55 -20 58 8 8 67 -125 69 -156 3 -46
18 -35 18 13 0 60 -50 161 -92 187 -43 25 -74 50 -124 97 -51 49 -135 74 -264
79 -52 2 -110 6 -128 9 l-33 6 4 -247 c2 -136 0 -265 -5 -287 -6 -27 -5 -42 2
-47 11 -7 8 -155 -3 -167 -4 -3 -7 -1 -7 5 0 22 -20 12 -26 -13 -6 -23 -73
-84 -75 -68 -1 4 0 21 1 37 2 36 -16 26 -25 -14 -5 -21 -13 -30 -26 -30 -10 0
-19 6 -20 13 0 10 -2 10 -6 0 -2 -7 -14 -13 -25 -13 -14 0 -18 5 -14 18 3 9 1
24 -4 32 -8 12 -10 11 -10 -7 0 -27 -18 -30 -35 -7 -10 14 -13 13 -29 -11 -14
-21 -20 -24 -32 -14 -11 9 -14 8 -14 -5 0 -9 -4 -16 -9 -16 -16 0 -23 20 -13
33 11 14 35 108 29 113 -2 3 -12 -17 -22 -43 -39 -100 -68 -131 -94 -99 -8 10
-7 22 4 49 8 20 11 38 6 41 -9 6 -41 -63 -41 -89 0 -7 14 -22 30 -32 40 -23
38 -50 -6 -97 -32 -34 -39 -38 -56 -27 -23 14 -33 9 -25 -14 4 -8 18 -15 32
-15 28 0 33 -21 9 -41 -13 -10 -24 -8 -70 15 -30 15 -54 32 -54 37 0 5 -7 9
-15 9 -9 0 -21 11 -27 25 -10 22 -8 33 10 70 12 25 20 45 18 45 -8 0 -56 -89
-56 -105 0 -22 80 -100 130 -125 42 -21 42 -21 23 -43 -10 -12 -24 -26 -30
-30 -15 -9 -17 -37 -3 -37 5 0 15 11 22 24 20 36 106 127 112 118 3 -5 -6 -20
-20 -35 -13 -14 -24 -29 -24 -33 0 -3 -12 -23 -27 -43 -31 -40 -53 -77 -53
-88 0 -9 78 96 95 128 8 15 30 34 50 43 19 9 35 23 35 30 0 8 7 19 15 26 19
16 19 2 -1 -45 -19 -47 2 -44 25 3 19 38 24 39 41 7 17 -32 30 -32 64 4 15 16
37 32 49 35 20 5 26 0 91 -79 l25 -30 1 32 c0 17 -4 34 -9 37 -5 4 -32 36 -61
72 -51 64 -51 65 -18 48 55 -28 108 -75 108 -95 0 -10 5 -19 10 -19 10 0 14
13 11 37 -1 6 3 14 9 18 5 3 10 11 10 17 0 7 -4 7 -14 -1 -10 -9 -16 -8 -26 3
-6 9 -9 20 -5 25 3 6 -1 24 -10 40 -20 40 -19 64 5 79 15 9 26 10 40 2 11 -6
24 -9 28 -6 15 9 11 -98 -5 -147 -8 -27 -13 -50 -10 -53 2 -3 7 7 11 21 4 14
10 25 15 25 11 0 4 -81 -9 -94 -5 -5 -10 -12 -10 -15 0 -20 236 -1 322 26 26
8 73 34 104 59 32 24 63 44 70 44 7 0 15 9 19 19 7 23 33 46 42 38 3 -4 1 -12
-5 -20 -6 -7 -9 -23 -5 -35 8 -31 21 -18 15 14 -4 20 -1 25 9 22 8 -3 13 -11
11 -17 -1 -7 2 -10 7 -7 17 11 23 -15 11 -45 -22 -52 -3 -42 32 17 36 62 65
84 54 43 -5 -22 -5 -22 7 2 6 14 24 40 40 58 15 18 27 36 27 40 0 5 11 20 25
35 14 15 23 32 19 37 -7 12 -24 -5 -78 -79 -21 -29 -41 -51 -43 -48 -3 3 4 18
16 34 12 17 21 33 21 36 0 8 8 18 53 70 21 24 38 36 46 32 8 -5 9 -12 2 -20
-6 -7 -6 -17 -1 -26 7 -11 1 -23 -18 -44 -24 -25 -24 -27 -5 -17 12 6 25 16
28 21 3 6 11 10 16 10 6 0 -11 -20 -37 -45 -25 -25 -50 -45 -54 -45 -15 0 -41
-38 -31 -45 6 -3 11 -1 11 4 0 20 30 11 46 -14 19 -30 39 -31 76 -7 24 16 38
17 120 9 51 -5 97 -12 101 -16 4 -4 -2 -19 -13 -33 -28 -37 -25 -48 13 -48 26
0 41 -8 65 -35 18 -19 46 -42 62 -50 30 -16 30 -16 14 -48 -9 -18 -26 -43 -38
-56 l-21 -24 28 18 c16 10 31 14 35 9 4 -5 18 -21 31 -36 24 -27 24 -28 6 -48
-10 -11 -15 -23 -12 -26 4 -4 9 1 13 10 7 17 44 23 44 6 0 -6 -11 -15 -25 -20
-27 -10 -31 -20 -15 -36 22 -22 -3 -52 -76 -90 -43 -23 -74 -45 -74 -54 0 -9
-5 -21 -12 -28 -9 -9 -9 -12 0 -12 7 0 12 5 12 10 0 16 51 33 64 20 7 -7 1
-19 -19 -40 -16 -16 -25 -30 -21 -30 5 0 19 11 32 25 20 22 25 23 38 10 8 -8
19 -15 24 -15 17 0 156 -116 212 -176 164 -177 245 -345 311 -643 21 -94 23
-115 11 -107 -5 3 -14 31 -21 63 -25 120 -32 148 -43 158 -7 7 -8 3 -3 -14 4
-12 11 -46 15 -75 5 -28 16 -82 24 -121 36 -162 38 -182 33 -310 -3 -71 -10
-146 -16 -165 -6 -19 -12 -51 -15 -70 -5 -40 -40 -186 -51 -212 -4 -10 -13
-18 -21 -18 -17 0 -18 -16 -1 -24 10 -5 10 -7 0 -12 -7 -3 -13 -14 -13 -25 0
-10 -3 -19 -7 -19 -5 0 -23 -31 -41 -69 -38 -78 -176 -252 -225 -281 -18 -11
-42 -20 -54 -20 -30 0 -39 -18 -11 -22 l23 -3 -23 -23 c-13 -13 -27 -21 -30
-17 -4 3 0 10 8 15 13 8 12 10 -2 10 -10 0 -18 -4 -18 -10 0 -5 -6 -10 -14
-10 -7 0 -19 -7 -27 -16 -21 -26 -97 -59 -219 -97 -306 -95 -556 -118 -1085
-98 -524 19 -635 21 -635 11 0 -6 32 -10 72 -10 123 0 70 -7 -106 -14 l-169
-7 7 308 c6 286 7 762 1 1016 -1 59 1 110 6 113 5 3 9 -14 9 -38 0 -24 3 -90
5 -148 3 -58 6 -149 7 -203 1 -59 4 -93 10 -85 7 11 1 413 -7 457 -2 9 -4 35
-4 59 -1 26 -5 41 -11 37 -6 -4 -10 6 -10 24 0 16 -3 36 -6 45 -4 11 -1 16 10
16 13 0 15 4 8 18 -5 9 -8 112 -8 227 l1 210 53 -1 c28 0 52 3 52 7 0 18 34
18 52 0 24 -27 23 -31 -8 -31 -20 0 -25 -4 -20 -16 3 -8 -1 -26 -9 -38 -13
-19 -13 -28 -4 -50 7 -14 16 -26 20 -26 5 0 17 -10 28 -21 16 -18 18 -25 8
-41 -10 -16 -9 -21 4 -31 9 -7 21 -22 28 -35 9 -17 18 -21 29 -16 9 3 24 7 32
8 8 1 25 8 37 14 12 7 30 12 41 12 11 0 30 9 43 19 14 10 40 25 60 34 33 14
37 13 64 -9 17 -13 38 -24 48 -24 21 0 57 20 73 40 11 13 15 12 34 -5 l22 -20
-21 -16 c-12 -10 -21 -20 -21 -23 0 -13 28 -5 53 14 14 11 37 20 52 20 16 0
37 10 49 23 12 12 38 36 58 52 36 30 59 75 38 75 -6 0 -34 -24 -63 -54 -30
-30 -64 -55 -79 -58 -16 -3 -28 -2 -28 1 1 12 66 109 98 145 18 20 37 34 43
31 7 -5 4 -14 -7 -26 -19 -22 -13 -24 19 -7 20 10 21 10 7 -7 -14 -16 -13 -17
7 -11 25 8 34 -15 21 -52 -7 -21 -12 -974 -6 -1127 3 -60 3 -60 36 -63 17 -2
32 -6 32 -10 0 -4 -24 -39 -53 -77 -54 -70 -161 -164 -174 -152 -4 4 0 13 8
20 9 6 35 45 59 85 23 40 46 75 51 78 5 3 9 10 9 16 0 7 -30 -27 -67 -74 l-66
-86 -26 50 c-34 66 -38 47 -7 -36 l25 -66 -41 -30 c-23 -17 -58 -35 -80 -40
-21 -6 -38 -15 -38 -20 0 -6 1 -10 3 -10 15 0 127 46 155 63 20 13 51 29 69
36 61 25 190 171 219 248 9 26 21 53 25 58 4 6 11 35 14 65 4 30 11 69 15 85
18 59 25 174 25 380 -1 278 -10 355 -62 522 -32 105 -77 158 -187 221 -68 39
-193 148 -183 159 2 2 59 -28 126 -65 79 -44 143 -88 177 -122 53 -53 72 -58
34 -10 -11 14 -20 34 -20 45 -1 14 -17 28 -60 48 l-60 28 36 52 c44 63 48 68
40 40 -5 -17 -4 -22 6 -18 14 5 49 -58 53 -97 1 -13 4 -25 5 -28 1 -3 3 -9 4
-15 4 -20 47 -104 56 -110 18 -11 10 29 -25 130 -19 55 -35 110 -35 124 0 32
-66 170 -84 177 -9 3 -18 14 -21 23 -3 10 -14 27 -26 39 -11 12 -15 22 -10 22
13 0 140 -142 157 -176 9 -16 22 -36 30 -44 27 -27 16 19 -16 72 -20 32 -29
57 -25 69 4 11 11 17 16 13 5 -3 7 -10 4 -15 -4 -5 -1 -9 4 -9 14 0 41 -66 41
-100 0 -15 6 -33 14 -39 7 -6 16 -34 19 -62 4 -28 11 -57 18 -65 6 -7 7 -18 3
-25 -5 -8 -13 -4 -25 12 -13 16 -19 19 -19 9 0 -20 123 -223 138 -228 18 -6
14 27 -6 56 -31 45 -35 58 -8 29 18 -20 26 -23 26 -13 0 9 9 16 19 16 29 0 33
15 10 36 -43 39 -43 52 -1 107 48 63 106 184 127 262 17 66 19 70 36 60 8 -5
10 -27 6 -69 -5 -55 -4 -59 9 -41 8 11 24 31 36 44 19 22 21 23 30 6 6 -10 7
-20 1 -24 -34 -23 -173 -318 -173 -366 0 -8 -5 -14 -10 -13 -6 2 -13 -26 -15
-67 -3 -38 -12 -92 -20 -120 -8 -27 -16 -59 -18 -70 -3 -11 -5 -4 -6 16 0 20
2 39 7 43 4 4 8 20 9 34 0 15 4 47 7 72 5 43 5 44 -5 10 -5 -19 -15 -51 -22
-70 -11 -34 -15 -143 -20 -560 -3 -198 8 -340 26 -340 5 0 7 13 4 30 -4 17 -2
30 3 30 13 0 13 -77 0 -82 -15 -5 7 -104 57 -258 24 -74 44 -141 45 -147 1 -7
5 -13 10 -13 5 0 23 -14 41 -30 24 -23 38 -29 57 -24 13 3 27 6 30 6 18 4 92
-19 129 -39 51 -26 81 -30 81 -8 0 10 10 15 30 15 17 0 30 -5 30 -11 0 -13
219 -2 234 11 5 5 0 7 -10 5 -10 -3 -64 -6 -118 -8 -87 -3 -99 -1 -103 14 -3
9 -20 25 -39 35 -41 22 -44 36 -6 32 15 -2 26 -8 25 -13 -1 -6 20 -10 45 -11
110 -1 238 -25 254 -49 5 -6 8 -5 8 3 0 9 5 10 19 3 30 -17 109 -20 115 -6 3
8 -5 15 -20 18 -13 2 -24 0 -24 -6 0 -5 -6 -4 -14 3 -8 6 -30 10 -49 9 -18 -2
-49 4 -68 13 -18 8 -41 18 -49 21 -8 2 2 8 23 12 21 4 42 4 47 -1 11 -11 100
-5 100 6 0 11 -108 20 -182 13 -47 -3 -68 -2 -68 6 0 6 8 11 19 11 10 0 24 7
31 15 18 22 1 18 -46 -9 -50 -28 -80 -20 -50 13 24 27 16 26 -29 0 -20 -12
-38 -19 -42 -16 -3 3 5 22 17 41 25 41 11 49 -18 11 -21 -27 -48 -34 -39 -11
7 17 -18 40 -33 31 -5 -3 -10 -12 -10 -20 0 -17 -52 -29 -95 -21 -49 9 -106
80 -149 183 -41 97 -43 113 -17 113 20 0 94 74 134 136 38 57 65 149 78 261
14 116 14 102 0 233 -14 124 -30 183 -72 267 l-32 62 21 23 c11 13 37 42 57
66 40 45 43 47 65 32 12 -8 9 -16 -22 -44 -21 -19 -38 -37 -38 -39 0 -2 11 -3
25 -1 15 1 45 20 68 41 68 60 184 139 193 131 2 -3 -31 -28 -74 -56 -42 -29
-90 -64 -107 -78 l-30 -26 40 22 c22 11 58 34 80 51 70 52 86 62 91 56 9 -8
-45 -56 -71 -63 -14 -3 -25 -10 -25 -14 0 -11 -63 -50 -98 -60 l-27 -8 32 -1
c17 -1 35 4 38 9 4 6 11 7 17 4 7 -4 8 -2 4 4 -5 8 3 12 22 12 39 0 51 -28 22
-52 -25 -20 -90 -21 -136 -2 -18 8 -40 11 -49 7 -10 -3 -20 -1 -24 5 -4 7 -12
8 -21 2 -13 -8 -13 -10 1 -10 9 0 19 -7 23 -15 3 -8 14 -15 23 -15 10 0 29 -7
41 -16 15 -10 33 -14 50 -10 15 4 46 6 69 6 34 -1 45 4 59 25 11 17 14 35 10
56 -5 29 -4 30 23 26 15 -3 38 -10 50 -17 19 -10 26 -9 42 6 18 17 20 16 44
-6 20 -19 32 -22 66 -17 43 6 93 44 105 79 3 10 14 18 24 18 35 0 62 33 67 84
6 47 7 49 54 68 27 12 49 26 49 33 0 16 -27 28 -32 14 -2 -5 -28 -3 -63 6 -33
9 -70 13 -83 10 -13 -3 -46 -28 -73 -55 -28 -28 -53 -50 -55 -50 -3 0 12 21
33 46 l38 47 -51 -31 c-49 -31 -95 -72 -80 -72 5 0 -15 -19 -43 -42 -42 -35
-50 -47 -47 -68 3 -14 3 -19 0 -13 -4 10 -11 10 -26 2 -41 -22 -29 2 33 68 90
94 115 120 192 189 37 33 67 67 67 76 0 11 -27 -9 -72 -53 -40 -38 -76 -69
-80 -69 -23 0 0 35 62 93 70 65 84 84 55 73 -8 -3 -15 -1 -15 4 0 5 9 12 21
15 11 4 18 9 16 12 -11 10 -48 -19 -43 -33 3 -8 -3 -20 -14 -26 -11 -7 -20
-18 -20 -25 0 -7 -6 -13 -12 -13 -7 -1 -28 -21 -46 -46 -34 -45 -34 -45 -52
-24 l-18 20 -33 -31 c-32 -30 -33 -32 -14 -39 19 -7 19 -7 -2 -18 -33 -18 -48
-15 -32 5 8 10 0 7 -18 -7 -62 -45 -44 -12 23 41 67 55 105 106 86 118 -23 14
-6 57 36 89 23 18 42 37 42 43 0 5 -21 -6 -46 -26 -69 -52 -104 -47 -41 6 17
16 28 28 22 28 -5 0 -32 -20 -60 -45 -27 -25 -42 -43 -32 -40 26 8 41 -3 26
-20 -8 -10 -8 -14 0 -14 22 0 12 -70 -13 -93 -58 -53 -126 -96 -126 -81 0 3
14 25 30 49 17 24 30 47 30 50 0 10 -49 -22 -82 -53 -35 -33 -43 -24 -23 23 8
21 13 40 10 43 -10 10 -45 -14 -67 -47 -13 -19 -32 -37 -44 -42 -21 -7 -21 -7
-3 27 9 19 22 41 29 49 8 10 7 15 -5 22 -14 8 -14 12 -1 38 31 59 138 123 157
94 5 -8 8 -8 13 0 4 6 15 11 25 11 10 0 25 8 34 18 15 16 15 20 -6 44 -24 29
-84 50 -117 41 -20 -5 -28 11 -10 22 6 3 10 11 10 17 0 6 -6 6 -15 -2 -12 -10
-19 -10 -27 -2 -9 9 -9 12 1 12 6 0 29 11 49 25 38 26 58 32 47 15 -10 -16 8
-11 34 11 13 11 21 22 17 26 -3 4 -13 -2 -22 -13 -10 -12 -17 -15 -20 -8 -3 8
-23 2 -57 -17 -51 -28 -94 -38 -82 -20 9 16 -29 18 -47 3 -12 -10 -18 -11 -18
-4 0 7 4 12 9 12 5 0 11 8 14 18 3 9 16 33 29 52 l23 34 -49 -33 c-42 -29 -51
-32 -60 -19 -6 8 -21 18 -34 22 -27 9 -27 12 -2 54 23 38 14 42 -18 7 -25 -26
-82 -58 -90 -50 -6 6 26 72 38 80 6 3 10 12 10 18 -1 7 -9 2 -19 -10 -11 -13
-24 -23 -30 -23 -5 0 -13 -5 -17 -12 -5 -7 -3 -8 7 -3 8 5 5 -1 -5 -13 -19
-22 -46 -30 -46 -14 0 4 15 54 34 110 19 56 31 100 26 97 -5 -3 -14 -22 -21
-43 -13 -42 -59 -132 -66 -132 -3 0 -2 19 2 43 l6 42 -20 -40 -19 -40 -1 38
c-1 21 4 47 10 59 6 11 8 22 6 24 -9 10 -37 -59 -38 -95 -2 -31 -3 -32 -6 -8
-5 32 -23 27 -23 -7 0 -23 -32 -42 -51 -31 -12 8 3 85 28 149 24 62 24 93 0
35 -48 -115 -61 -139 -74 -139 -11 0 -12 8 -7 36 5 27 4 35 -5 30 -6 -4 -11
-18 -11 -31 0 -26 -18 -44 -29 -28 -3 5 -14 12 -23 16 -10 3 -18 17 -19 29 0
13 -3 17 -6 11 -5 -15 -33 -18 -33 -4 0 5 -11 9 -25 9 -33 0 -32 -11 3 -28 41
-21 72 -51 72 -71 0 -25 -57 -88 -86 -95 -32 -8 -54 12 -54 48 0 26 -2 29 -15
18 -8 -7 -15 -19 -15 -26 0 -8 -4 -14 -9 -14 -5 0 -14 -13 -20 -30 -5 -16 -15
-30 -20 -30 -14 0 -14 1 4 43 8 20 15 43 15 51 0 10 -6 13 -15 10 -8 -4 -15
-15 -15 -27 0 -11 -3 -17 -6 -14 -7 7 -37 -28 -47 -56 -4 -10 -12 -15 -18 -11
-11 6 -9 31 6 69 7 17 6 17 -11 -3 -22 -27 -60 -21 -49 7 5 13 3 13 -12 -2
-17 -17 -17 -19 0 -31 41 -31 5 -48 -43 -21 -41 23 -44 17 -11 -20 28 -32 29
-38 19 -63 -24 -55 -40 -73 -53 -62 -9 8 -15 8 -20 0 -11 -17 -25 -11 -25 11
0 11 -4 17 -10 14 -5 -3 -10 -15 -10 -25 0 -27 -21 -36 -36 -16 -13 19 -34 14
-34 -9 0 -13 -25 -28 -49 -29 -8 -1 -16 -7 -18 -13 -3 -9 4 -11 26 -7 30 6 39
-2 24 -22 -5 -5 -1 -2 7 7 11 10 29 15 55 14 23 -2 59 7 92 21 29 13 53 20 53
16 -1 -16 -19 -34 -29 -28 -7 5 -10 -1 -8 -16 5 -26 -12 -58 -30 -58 -7 0 -26
-20 -43 -45 -34 -49 -56 -65 -92 -65 -30 0 -71 28 -64 45 3 10 -1 10 -20 1
-13 -6 -24 -14 -24 -18 0 -4 -17 -26 -37 -49 -119 -133 -137 -149 -147 -139
-7 7 -2 18 17 36 23 21 64 84 54 84 -2 0 -18 -20 -37 -45 -33 -45 -60 -58 -60
-31 0 8 -6 17 -12 20 -9 3 -6 11 10 25 20 18 21 20 5 25 -17 5 -70 -4 -105
-19 -13 -5 -18 -2 -18 10 0 9 -5 13 -11 10 -6 -4 -8 -13 -5 -21 4 -10 -4 -14
-29 -14 -41 0 -45 10 -44 102 1 74 -6 63 88 136 20 15 28 29 25 40 -5 13 -4
14 4 3 8 -11 14 -9 33 13 12 14 25 26 28 26 9 0 33 -59 28 -67 -3 -5 8 -8 24
-9 30 -1 41 19 15 29 -27 10 -41 123 -20 159 4 7 -2 5 -14 -6 -19 -16 -22 -17
-28 -3 -6 17 30 85 72 132 30 35 58 85 47 85 -10 0 -113 -133 -113 -146 -1
-14 -37 -54 -48 -54 -6 0 -8 -9 -5 -20 3 -12 0 -20 -7 -20 -7 0 -19 -8 -26
-17 -23 -33 -26 -4 -4 42 14 28 27 44 35 41 16 -6 28 20 20 45 -3 9 1 34 9 53
22 54 12 44 -27 -26 -36 -64 -77 -108 -100 -108 -6 0 -4 5 6 11 21 12 23 33 2
25 -34 -13 -15 24 77 146 32 42 54 79 49 82 -8 6 -96 -104 -134 -168 -30 -50
-37 -53 -37 -18 0 39 81 168 111 177 25 8 25 25 -1 25 -10 0 -25 -10 -31 -22
-6 -12 -20 -31 -30 -42 -11 -11 -25 -32 -31 -48 -7 -15 -16 -28 -21 -28 -4 0
-3 10 4 21 6 12 9 32 6 45 -3 15 0 24 9 24 7 0 16 5 20 11 4 8 0 9 -15 4 -17
-5 -21 -2 -21 17 0 13 -3 104 -6 204 -6 204 -4 209 67 208 45 -2 51 12 12 27
-51 19 -57 63 -17 116 28 37 65 43 98 18 26 -20 55 -19 78 2 11 9 18 11 18 5
0 -7 -3 -12 -7 -12 -8 0 -33 -47 -33 -62 0 -4 -16 -30 -34 -56 -42 -57 -60
-102 -48 -114 5 -5 16 11 27 38 10 25 36 69 59 98 23 28 51 67 61 86 11 19 46
65 77 102 32 36 58 69 58 72 0 15 -49 -28 -84 -74 -41 -54 -57 -61 -32 -13 18
35 53 74 86 96 18 12 20 17 8 17 -26 0 -77 -48 -108 -103 -25 -45 -32 -50 -67
-52 -42 -3 -73 8 -60 22 5 4 12 1 16 -6 7 -10 10 -10 16 -1 4 7 1 17 -6 22
-11 7 -9 8 5 4 12 -4 28 1 45 16 l25 23 -17 -28 c-17 -27 -17 -27 0 -16 28 18
71 84 84 131 7 24 16 47 21 53 17 19 7 27 -12 10 -11 -10 -20 -28 -20 -39 0
-28 -34 -82 -61 -96 -31 -17 -46 1 -30 36 6 15 10 28 8 31 -3 2 -22 -3 -43
-11 -91 -34 -110 -29 -78 19 22 33 11 32 -20 -2 -14 -15 -29 -24 -32 -20 -4 4
5 21 21 37 26 27 27 30 9 30 -23 0 -59 -34 -68 -66 -5 -16 1 -24 31 -41 26
-14 45 -18 59 -13 55 21 102 -23 52 -48 -13 -6 -55 -29 -95 -51 l-72 -40 0
557 c0 306 -2 573 -5 592 -2 19 -7 88 -11 153 -7 124 0 156 34 141 9 -4 45 -9
81 -11z m1106 -848 c94 -24 190 -107 235 -202 36 -76 37 -124 4 -182 -28 -48
-29 -51 -17 -51 5 0 17 18 27 40 13 29 21 37 27 28 10 -15 1 -101 -14 -141 -9
-22 -8 -31 2 -37 20 -12 8 -111 -18 -147 -22 -31 -38 -35 -231 -58 -25 -3 -54
-14 -66 -25 -31 -29 -45 -25 -45 13 0 18 -2 84 -5 147 -2 63 -5 219 -6 345 -2
127 -6 240 -10 252 -13 34 29 41 117 18z m-1244 -847 c3 -29 4 -128 4 -219 -1
-146 -3 -169 -19 -187 -18 -20 -18 -20 -74 0 -77 28 -116 72 -83 93 6 4 29 29
50 56 41 52 44 85 7 73 -17 -5 -19 -3 -14 15 4 18 2 20 -17 15 -24 -6 -52 18
-42 34 6 10 56 23 93 24 23 0 66 38 44 38 -7 0 -10 4 -6 10 3 5 12 7 19 4 16
-6 30 22 16 31 -11 7 -13 48 -3 58 15 16 21 4 25 -45z m2577 -215 c-36 -38
-39 -42 -13 -25 17 12 37 28 44 37 16 19 31 19 56 1 19 -14 19 -15 -5 -40 -17
-18 -20 -26 -10 -26 10 -1 9 -4 -4 -11 -9 -6 -15 -14 -12 -19 3 -5 -11 -12
-31 -16 -19 -3 -38 -13 -41 -20 -3 -9 -13 -12 -27 -8 -14 3 -30 -2 -45 -15
-13 -12 -19 -21 -13 -21 6 0 14 5 17 10 8 12 45 13 45 1 0 -5 -10 -16 -22 -25
-20 -14 -21 -15 -3 -9 19 6 19 5 3 -12 -17 -18 -18 -18 -43 9 l-26 28 20 22
c12 13 19 24 17 27 -2 2 12 5 32 7 21 1 39 7 40 12 2 6 10 10 18 10 9 0 13 4
9 9 -3 6 10 22 29 37 19 16 33 31 30 36 -4 6 -31 -11 -119 -77 -27 -21 -41
-19 -22 3 10 10 17 22 17 25 0 4 11 25 25 47 14 22 25 48 25 58 0 30 12 34 33
11 19 -21 19 -21 -24 -66z m-713 -442 c8 7 17 10 19 7 3 -2 -10 -15 -28 -28
-18 -14 -26 -17 -18 -7 7 9 10 17 6 17 -9 0 -69 -42 -73 -52 -2 -4 -10 -8 -18
-8 -9 0 -12 -4 -9 -10 3 -6 -4 -10 -17 -10 -18 0 -20 -2 -8 -10 16 -10 17 -10
-26 -14 -6 -1 -25 -14 -44 -29 -18 -16 -39 -26 -46 -23 -7 3 -16 1 -19 -4 -4
-6 1 -10 10 -10 24 0 7 -20 -18 -21 -21 0 -21 -1 -2 -9 l20 -8 -20 -8 c-29
-12 -56 -47 -42 -56 7 -4 5 -15 -7 -33 -10 -15 -16 -29 -14 -31 3 -2 28 28 57
66 28 39 56 70 62 70 5 0 -2 -15 -16 -34 -17 -23 -22 -35 -14 -38 8 -3 9 -9 5
-17 -7 -11 -10 -11 -17 0 -7 11 -9 9 -9 -6 0 -11 -9 -31 -20 -45 -32 -41 -23
-45 12 -6 17 20 37 36 44 36 19 0 24 -40 9 -76 -14 -33 -85 -134 -95 -134 -3
1 -18 11 -34 24 -25 21 -28 29 -23 62 14 110 30 170 54 204 10 14 18 31 20 39
3 26 66 80 129 111 34 17 86 47 116 65 29 19 55 29 56 24 3 -6 9 -5 18 2z
m-1341 -261 c17 -8 31 -15 33 -16 8 -5 -20 -44 -31 -44 -17 0 -204 -227 -236
-288 -7 -12 -16 -20 -21 -17 -11 7 -7 29 9 49 7 9 10 16 7 16 -4 0 36 48 88
108 53 59 96 113 96 120 0 19 -18 14 -24 -6 -4 -10 -49 -63 -102 -118 -89 -91
-102 -99 -56 -34 l17 25 -28 -18 -28 -18 16 25 c9 14 36 41 59 60 24 19 58 58
76 86 33 51 52 62 30 18 -11 -22 -11 -22 10 2 11 14 25 35 30 48 6 13 13 22
17 20 5 -2 22 -10 38 -18z m1814 -44 l24 -13 -27 -19 c-15 -10 -50 -37 -78
-59 -89 -71 -128 -96 -128 -86 0 6 17 22 38 35 41 26 119 105 87 88 -11 -6
-39 -28 -62 -49 -51 -46 -110 -79 -121 -68 -4 4 -2 10 4 12 18 6 84 63 141
120 54 56 78 63 122 39z m-612 -96 c-12 -13 -29 -31 -37 -40 -14 -13 -57 -64
-187 -223 -24 -29 -43 -55 -43 -59 0 -4 -9 -22 -21 -40 -12 -18 -18 -24 -15
-14 7 19 6 19 -12 3 -24 -22 -62 -98 -62 -126 0 -11 -4 -21 -10 -21 -13 0 -13
8 4 63 14 48 11 67 -8 41 -9 -12 -12 -4 -12 35 0 28 3 48 8 45 4 -3 8 5 8 17
0 18 2 20 15 9 13 -11 18 -10 31 8 8 12 30 29 50 38 40 19 147 132 199 209 42
64 96 110 107 92 4 -6 -3 -23 -15 -37z m-122 -311 c58 -114 89 -319 64 -430
-18 -80 -52 -112 -192 -175 -21 -9 -40 -14 -43 -11 -3 2 -7 65 -10 139 -4 129
7 230 35 308 5 14 17 49 26 79 17 56 69 141 85 141 5 0 21 -23 35 -51z"/>
<path d="M9530 7280 c-19 -11 -50 -19 -68 -20 -26 0 -44 -11 -86 -54 -30 -30
-60 -70 -67 -90 -12 -34 -15 -35 -50 -30 -32 5 -42 2 -65 -21 -21 -21 -33 -26
-56 -21 -34 7 -98 -19 -98 -39 0 -8 -13 -23 -30 -35 -16 -12 -30 -29 -30 -39
0 -20 40 -61 59 -61 8 0 10 -8 6 -22 -11 -36 -25 -45 -36 -25 -14 24 -28 21
-61 -10 -24 -23 -31 -25 -53 -15 -45 21 -63 14 -123 -46 l-58 -58 -25 19 c-25
18 -26 18 -80 -7 -30 -14 -67 -28 -83 -31 -28 -6 -28 -6 -22 -64 l7 -58 -47
-12 c-35 -9 -44 -15 -40 -27 3 -9 6 -18 6 -20 0 -2 17 -4 38 -3 31 0 34 2 20
11 -15 11 -14 13 7 24 12 6 35 9 49 7 l27 -5 -21 35 c-12 20 -20 48 -18 62 2
22 12 30 58 45 69 24 98 25 122 3 18 -16 21 -16 47 0 16 9 31 14 34 11 3 -3
11 -3 17 1 8 5 8 11 -1 21 -9 11 -9 21 -1 39 14 31 55 42 90 24 15 -7 30 -15
35 -17 4 -2 7 3 7 11 0 18 32 47 54 47 9 0 22 -11 28 -25 10 -21 8 -28 -8 -40
-10 -8 -29 -13 -41 -10 -16 4 -23 1 -23 -9 0 -7 -11 -21 -25 -30 -14 -9 -23
-21 -20 -27 4 -5 18 -1 35 11 18 13 31 16 35 10 3 -5 13 -10 21 -10 8 0 13 4
10 9 -9 13 22 34 40 27 9 -3 18 -15 21 -26 7 -26 17 -25 41 5 12 15 20 41 20
65 1 47 -9 45 -32 -5 -9 -19 -21 -35 -25 -35 -14 0 -5 123 13 164 21 50 20 56
-5 27 -22 -27 -42 -23 -63 13 -9 13 -6 21 14 36 14 11 34 20 44 20 16 0 17 3
8 12 -19 19 -14 27 24 34 27 5 38 2 47 -10 13 -18 52 -12 41 6 -12 19 30 38
72 33 l41 -6 35 68 c28 54 40 69 60 71 15 2 28 11 31 21 3 13 23 22 67 32 34
7 65 19 67 26 7 18 59 16 78 -3 22 -22 28 -13 9 14 -19 28 -75 29 -124 2z"/>
<path d="M9550 3683 c0 -63 -10 -120 -37 -203 -8 -25 -15 -52 -17 -60 -5 -32
-19 -50 -37 -50 -17 0 -24 -11 -20 -33 1 -5 -2 -6 -7 -3 -5 3 -22 -8 -37 -24
-23 -24 -25 -30 -11 -30 9 0 33 12 52 26 55 42 39 12 -26 -50 -33 -32 -60 -59
-60 -62 0 -14 38 1 83 34 29 21 77 46 107 57 30 10 58 23 63 29 4 7 10 8 15 1
11 -16 195 -106 215 -105 32 0 13 23 -31 36 -24 6 -57 23 -75 37 -18 13 -42
27 -54 31 -13 4 -23 14 -23 22 0 9 -5 25 -11 37 l-12 21 -8 -22 c-9 -25 -29
-30 -29 -7 0 21 -17 19 -24 -2 -2 -10 -2 12 1 50 10 123 7 291 -5 312 -10 17
-11 10 -12 -42z"/>
<path d="M9442 3497 c-44 -78 -132 -154 -242 -209 -117 -58 -179 -84 -219 -93
-27 -6 -45 -25 -23 -25 14 0 109 35 217 80 77 32 108 41 137 37 35 -5 39 -3
44 21 6 24 68 129 84 142 9 8 42 100 36 100 -2 0 -18 -24 -34 -53z"/>
<path d="M12543 2888 c1 -7 -7 -13 -18 -14 -11 0 -27 -3 -35 -7 -8 -3 -22 -6
-30 -5 -48 4 -150 -3 -150 -11 0 -5 15 -12 33 -17 49 -11 361 -13 462 -2 50 5
103 9 120 8 22 0 27 2 18 11 -6 6 -28 11 -49 11 -22 0 -42 5 -47 11 -5 9 -10
7 -17 -4 -10 -17 -120 -26 -120 -9 0 6 6 10 13 10 8 0 7 4 -3 10 -23 15 -60
12 -60 -5 0 -11 -12 -14 -54 -12 -39 1 -52 5 -48 15 3 9 14 11 35 6 20 -4 27
-3 23 5 -10 16 -77 14 -73 -1z"/>
<path d="M15973 2890 c-68 -6 -84 -14 -56 -28 38 -20 128 -32 238 -32 98 0
115 2 124 18 10 16 10 16 11 -1 0 -16 11 -18 120 -16 66 0 120 5 120 9 0 14
-44 23 -120 25 -41 1 -95 6 -119 10 -36 6 -43 5 -39 -7 7 -17 -40 -16 -86 2
-16 6 -31 8 -34 6 -2 -3 -14 0 -26 6 -25 13 -49 15 -133 8z"/>
</g>
</svg>
