<?xml version="1.0" standalone="no"?>
<!DOCTYPE svg PUBLIC "-//W3C//DTD SVG 20010904//EN"
 "http://www.w3.org/TR/2001/REC-SVG-20010904/DTD/svg10.dtd">
<svg version="1.0" xmlns="http://www.w3.org/2000/svg"
 width="1928.000000pt" height="1074.000000pt" viewBox="0 0 1928.000000 1074.000000"
 preserveAspectRatio="xMidYMid meet">
<metadata>
Created by potrace 1.16, written by Peter Selinger 2001-2019
</metadata>
<g transform="translate(0.000000,1074.000000) scale(0.100000,-0.100000)"
fill="#000000" stroke="none">
<path d="M14560 8014 c0 -5 9 -20 20 -34 28 -36 25 -50 -12 -51 l-33 -2 35 -6
c30 -5 35 -10 34 -31 -7 -123 -16 -1400 -16 -2255 0 -750 -3 -1064 -11 -1073
-7 -9 -7 -16 -1 -20 15 -11 18 -310 4 -328 -7 -7 -8 -14 -4 -14 5 0 10 -138
11 -307 2 -170 4 -406 5 -526 3 -201 2 -217 -14 -217 -10 0 -18 -6 -18 -12 0
-7 -9 -2 -20 12 -15 19 -20 21 -20 9 0 -21 24 -41 42 -34 7 3 22 -1 33 -9 12
-10 15 -15 7 -16 -7 0 -11 -4 -7 -10 3 -5 12 -7 20 -3 10 3 15 -1 15 -12 0 -9
-4 -13 -10 -10 -6 4 -9 -3 -7 -16 1 -14 21 -38 47 -58 56 -43 81 -72 75 -89
-3 -7 1 -12 8 -11 31 4 40 -6 72 -73 30 -63 35 -83 35 -147 0 -85 8 -90 16 -9
3 30 8 68 13 84 l7 29 152 3 c95 1 152 -1 152 -7 0 -11 288 -6 345 6 32 6 187
12 375 13 74 1 108 4 95 10 -11 5 -43 9 -72 9 -61 1 -83 8 -83 27 0 8 -7 14
-15 14 -8 0 -15 -7 -15 -15 0 -9 -9 -15 -22 -15 -17 0 -19 3 -10 12 7 7 12 42
12 85 0 84 -13 77 130 63 173 -18 230 -21 230 -10 0 6 -29 10 -69 10 -40 0
-80 6 -96 14 -20 11 -51 13 -111 10 l-84 -5 0 26 c0 25 1 26 53 19 28 -4 78
-8 110 -8 32 0 53 -2 48 -4 -6 -2 -11 -8 -11 -13 0 -6 24 -9 53 -9 28 1 77 -1
107 -4 48 -5 57 -3 70 15 16 21 95 33 95 15 0 -6 -19 -9 -42 -7 -32 2 -43 -1
-43 -12 0 -11 18 -15 81 -16 45 -1 87 -5 93 -9 6 -3 31 -7 56 -8 32 -2 38 0
20 5 -17 5 -21 9 -12 15 7 4 9 13 5 19 -4 7 31 -22 76 -63 46 -41 100 -89 120
-107 20 -17 34 -33 31 -36 -3 -3 -66 -9 -140 -15 l-135 -9 90 -3 c50 -2 119
-4 154 -4 l64 -1 50 -98 c27 -53 52 -96 54 -93 2 2 -12 40 -32 84 -43 94 -43
121 1 77 16 -17 42 -46 56 -65 15 -19 30 -32 33 -29 3 4 -10 25 -30 49 -19 23
-35 44 -35 47 0 3 55 2 123 -1 67 -4 179 -7 250 -7 l127 -1 0 -65 c0 -40 4
-62 10 -58 6 3 10 33 10 66 l0 59 44 0 c24 0 46 4 48 9 2 6 38 13 81 17 l77 7
0 -86 c0 -47 5 -89 10 -92 6 -4 10 25 10 79 0 48 5 88 10 91 6 4 63 7 127 7
83 0 112 3 99 10 -9 5 -56 10 -104 10 -129 0 -125 -4 -117 84 4 41 8 223 9
404 1 258 -2 330 -11 330 -7 0 -13 5 -13 10 0 6 5 10 10 10 15 0 13 97 -2 102
-13 5 -16 101 -10 438 1 80 -1 163 -4 185 -3 22 -8 240 -9 485 -5 527 -11 679
-29 654 -7 -9 -21 -14 -32 -12 -17 3 -19 12 -19 83 0 87 8 109 36 100 14 -5
17 -2 13 10 -4 9 -13 14 -20 11 -7 -3 -16 -1 -19 4 -4 6 5 10 19 10 24 0 26 3
26 45 0 25 4 45 9 45 5 0 10 -60 10 -136 1 -74 6 -168 12 -207 5 -40 9 -97 8
-127 -5 -174 2 -940 10 -936 17 11 21 128 21 579 -1 337 -4 480 -14 529 -7 37
-11 93 -8 125 13 153 2 718 -14 744 -2 4 0 10 4 13 14 8 17 223 13 750 -3 432
-2 478 13 473 8 -3 18 -2 21 3 4 6 1 10 -4 10 -6 0 -21 10 -33 23 -12 12 -34
31 -49 42 -15 11 -71 58 -125 105 -145 125 -208 173 -212 160 -2 -6 1 -17 8
-25 6 -8 9 -19 5 -25 -3 -5 -1 -10 6 -10 6 0 37 -22 68 -48 31 -27 66 -55 77
-63 12 -8 47 -38 78 -67 32 -29 62 -50 67 -46 6 3 16 0 24 -6 19 -15 20 -37 3
-23 -24 18 -321 22 -700 10 l-256 -8 -44 53 c-23 29 -79 87 -123 127 -44 41
-81 77 -83 82 -2 4 160 5 358 2 199 -3 385 -2 413 1 56 7 86 20 74 32 -10 10
-586 11 -749 0 l-138 -8 1 -32 c0 -17 -5 -92 -12 -166 -13 -145 -13 -177 -9
-821 2 -234 0 -431 -4 -438 -4 -6 -2 -11 3 -11 6 0 11 -9 11 -20 0 -11 -5 -20
-11 -20 -5 0 -8 4 -4 9 3 5 0 13 -6 17 -9 5 -10 -9 -7 -50 6 -70 0 -61 -51 81
-22 59 -55 142 -74 183 -19 41 -45 107 -57 145 -44 139 -79 234 -129 346 -27
63 -75 179 -106 259 -31 80 -65 159 -76 176 -20 33 -15 52 8 32 7 -6 17 -8 21
-4 7 7 -23 30 -32 24 -8 -6 -59 47 -102 106 -32 44 -41 62 -31 68 11 7 3 12
-15 10 -10 -2 -89 88 -85 96 2 4 -11 20 -30 36 l-34 29 7 -28 c10 -42 70 -135
118 -185 24 -25 55 -62 71 -82 15 -21 35 -38 44 -39 10 0 6 -4 -9 -10 -14 -6
-38 -8 -55 -5 -16 3 -204 6 -417 7 l-386 1 -30 32 c-16 17 -50 63 -75 101 -25
39 -55 81 -66 95 -11 14 -21 30 -21 35 0 7 42 8 123 3 67 -3 253 -8 414 -10
225 -4 290 -2 286 8 -6 15 -151 23 -568 29 l-320 5 -32 42 c-18 22 -33 37 -33
32z m2046 -411 c-3 -7 -1 -15 4 -18 5 -3 7 -31 4 -63 -10 -137 -13 -230 -12
-427 2 -285 -3 -588 -9 -598 -12 -19 -26 15 -25 60 2 62 -14 39 -17 -26 -2
-45 0 -50 21 -53 21 -3 23 -9 26 -73 4 -84 -13 -153 -36 -151 -10 1 -19 -10
-23 -29 -7 -32 -7 -34 -14 75 -3 53 -5 60 -15 60 -7 0 -7 -6 0 -19 15 -29 12
-40 -10 -34 -16 4 -19 2 -14 -11 3 -9 10 -13 15 -10 5 3 9 0 9 -5 0 -6 -5 -11
-11 -11 -8 0 -7 -6 2 -17 12 -17 12 -17 -6 0 -11 9 -20 27 -21 40 -1 12 -4 30
-8 40 -14 40 -15 47 -4 47 6 0 3 10 -8 22 -10 12 -13 18 -5 13 11 -6 12 -2 6
21 -5 16 -9 43 -10 60 -1 17 -6 37 -10 44 -6 9 -4 11 5 5 10 -6 11 2 6 40 -4
26 -10 54 -13 61 -3 8 -1 14 5 14 6 0 7 13 2 37 -5 20 -7 40 -4 44 3 6 -12 6
-34 0 -1 -1 2 -10 8 -20 6 -12 6 -22 1 -26 -6 -3 -8 -20 -6 -38 3 -17 7 -86
10 -152 4 -107 3 -117 -9 -89 -7 17 -12 50 -10 73 2 23 0 40 -4 37 -4 -2 -6
20 -5 50 1 35 -3 54 -10 54 -8 0 -8 3 1 9 11 7 11 30 2 127 -7 65 -11 135 -10
154 3 39 3 455 0 735 -1 99 -1 184 -1 190 1 5 55 -44 121 -110 66 -66 118
-125 116 -132z m-1746 -5 c0 -9 -5 -18 -12 -20 -7 -3 -8 -10 -4 -17 5 -7 8
-160 7 -339 -1 -180 -4 -974 -6 -1764 -2 -790 -7 -1463 -11 -1495 -4 -34 -14
-63 -23 -70 -15 -12 -15 -14 1 -23 13 -8 16 -22 14 -66 -3 -61 -25 -100 -27
-49 -1 17 -1 39 0 50 1 11 -4 28 -12 39 -12 16 -13 3 -12 -90 0 -60 -2 -128
-6 -151 -3 -23 -2 -48 2 -55 4 -6 5 -16 2 -22 -4 -5 -6 -28 -5 -50 5 -158 5
-247 -1 -252 -3 -3 -6 2 -6 12 -1 11 -3 62 -6 114 -2 52 -6 154 -7 225 -2 72
-7 133 -13 137 -7 5 -7 8 0 8 15 0 12 79 -3 88 -6 5 -11 24 -10 45 1 20 5 34
9 32 15 -10 19 29 4 51 -8 13 -15 36 -15 51 0 15 -4 34 -9 42 -5 8 -8 -6 -7
-38 2 -37 7 -55 21 -64 12 -10 14 -16 7 -21 -7 -4 -12 -1 -12 6 0 10 -2 10 -8
0 -5 -7 -7 -47 -5 -90 10 -265 11 -383 4 -342 -5 25 -12 113 -15 195 -4 83 -9
157 -12 166 -9 31 -12 364 -3 386 4 12 4 25 0 28 -5 3 -5 21 -1 41 5 20 6 43
3 52 -5 11 -2 13 6 7 10 -6 11 -3 1 15 -10 19 -10 24 4 32 16 9 15 12 -3 44
-11 19 -18 41 -14 51 4 11 3 14 -5 9 -16 -10 -15 6 1 23 10 11 9 13 -5 8 -12
-4 -15 -2 -12 8 3 8 0 31 -6 51 -9 28 -9 38 0 47 9 9 11 8 10 -3 -5 -33 1 -50
20 -60 18 -10 19 -9 9 16 -5 15 -7 34 -5 41 4 8 1 11 -5 8 -6 -5 -8 7 -5 32 5
47 -8 77 -24 53 -8 -13 -10 -12 -10 3 0 9 7 17 16 17 14 0 14 2 3 16 -19 23
-24 68 -6 61 8 -3 20 -1 27 3 11 7 11 13 2 32 -7 13 -10 15 -7 5 3 -11 1 -16
-6 -11 -6 4 -15 1 -19 -6 -4 -7 -8 36 -9 96 0 107 -7 431 -15 729 -10 392 -4
1049 10 1118 2 12 5 67 5 122 0 64 4 102 11 106 9 6 8 12 -2 24 -12 14 -12 18
1 26 8 5 10 9 4 9 -6 0 -10 84 -10 233 0 127 -3 290 -7 360 -4 72 -4 127 1
125 11 -4 81 -96 81 -106 0 -5 11 -19 25 -32 38 -36 44 -77 43 -302 -1 -114 1
-211 5 -215 9 -9 9 -18 12 245 l3 232 -43 58 c-24 31 -63 80 -87 107 -23 28 8
1 70 -60 61 -60 112 -117 112 -127z m920 -13 c5 -13 12 -40 15 -61 l7 -39 -36
49 c-19 27 -38 51 -41 55 -11 10 8 -34 25 -59 40 -58 122 -222 160 -320 23
-58 55 -133 71 -167 16 -34 29 -66 29 -70 0 -8 40 -110 70 -178 51 -115 62
-144 56 -154 -4 -6 -3 -11 2 -11 5 0 12 -10 16 -22 3 -13 6 -25 7 -28 1 -3 9
-21 19 -40 10 -19 47 -126 83 -236 36 -111 84 -244 106 -296 22 -52 42 -105
44 -119 2 -13 7 -31 10 -39 4 -8 15 -43 26 -76 23 -71 49 -137 101 -250 21
-45 41 -92 45 -105 4 -13 11 -26 14 -29 13 -9 45 -85 43 -100 -1 -10 0 -11 4
-2 5 10 9 10 20 1 25 -21 25 -4 -2 72 -23 66 -26 94 -30 249 -2 96 -4 261 -4
365 0 105 0 200 0 213 -2 86 -1 124 4 257 4 83 8 368 10 635 2 267 5 494 5
505 1 20 9 20 325 22 l324 2 6 -42 c8 -59 13 -1862 8 -3540 -1 -428 0 -788 3
-800 3 -12 7 -89 9 -172 2 -107 6 -149 14 -148 7 2 12 -2 12 -8 0 -6 -7 -8
-15 -5 -13 5 -15 -2 -9 -43 l6 -48 -128 4 c-71 1 -200 4 -287 6 -86 2 -159 6
-161 8 -2 2 -7 14 -10 27 -6 18 -4 22 16 22 22 0 22 1 -7 20 -28 19 -43 41
-44 68 -1 9 4 10 17 4 28 -15 92 -24 92 -13 0 11 -27 21 -78 27 -20 3 -40 8
-45 13 -7 7 -53 132 -102 276 -13 39 -38 99 -56 135 -17 35 -46 107 -64 160
-91 266 -152 424 -201 524 -18 38 -21 52 -11 58 9 6 9 8 -1 8 -7 0 -10 4 -7
10 3 5 -1 20 -9 32 -9 12 -16 30 -16 39 0 9 -6 22 -14 28 -8 6 -16 24 -19 39
-13 67 -29 114 -51 154 -27 49 -106 244 -106 262 0 7 -11 35 -24 62 -13 27
-31 72 -39 99 -8 28 -29 86 -47 130 -18 44 -39 98 -46 120 -7 22 -27 73 -43
113 -17 41 -29 78 -26 82 3 5 1 11 -4 15 -6 3 -8 11 -6 18 3 7 1 26 -4 42 -8
25 -9 26 -10 7 -1 -20 -4 -21 -21 -12 -11 6 -20 20 -20 30 0 11 -7 20 -15 20
-17 0 -21 16 -5 22 6 2 6 8 0 18 -8 13 -10 12 -10 -2 0 -21 -16 -24 -23 -5 -3
7 -6 7 -6 1 -1 -6 10 -23 24 -38 13 -14 21 -26 18 -26 -4 0 3 -10 15 -23 23
-25 19 -45 -5 -25 -21 17 -28 0 -9 -21 14 -16 17 -35 14 -116 -1 -53 -6 -99
-10 -102 -5 -2 -6 -8 -3 -12 2 -5 5 -78 5 -162 0 -85 0 -264 2 -399 5 -582 -5
-1540 -16 -1558 -4 -6 -3 -20 2 -29 6 -10 12 -44 13 -76 l4 -59 -429 1 c-236
0 -431 3 -434 5 -2 3 -6 42 -7 88 -8 198 -2 4624 6 4632 7 7 59 13 194 21 55
3 113 8 130 12 40 8 515 30 538 24 10 -2 22 -14 27 -26z m1780 -1033 c0 -13
-4 -20 -10 -17 -5 3 -10 -1 -10 -9 0 -9 6 -13 14 -10 21 8 37 -62 35 -149 -3
-91 -16 -127 -44 -117 -11 4 -23 3 -27 -3 -4 -6 -13 -4 -23 7 -16 15 -19 15
-34 1 -10 -8 -21 -15 -25 -15 -32 0 -53 222 -22 233 26 10 37 -20 36 -95 -2
-94 -2 -98 8 -98 10 0 10 190 0 205 -4 6 -3 17 2 25 4 7 6 19 3 27 -3 7 0 13
7 13 9 0 11 -10 6 -31 -6 -29 -4 -31 19 -27 l25 5 -6 -116 c-3 -79 -2 -113 5
-106 11 11 17 242 8 252 -4 3 1 12 9 21 11 10 12 18 5 25 -6 6 -11 18 -11 26
0 11 4 10 15 -5 8 -10 15 -29 15 -42z m-54 -358 c-5 -17 -3 -23 4 -19 5 3 10
2 10 -4 0 -5 -6 -11 -12 -14 -9 -3 -7 -10 7 -21 14 -11 17 -18 9 -23 -8 -6
-11 -44 -9 -123 3 -107 -7 -170 -27 -170 -16 0 -19 22 -5 33 14 11 14 14 -1
27 -14 13 -15 12 -9 -3 4 -10 2 -17 -4 -17 -12 0 -7 177 5 234 6 26 5 28 -9
16 -18 -15 -20 1 -2 19 6 6 12 15 13 19 6 39 18 72 26 72 6 0 7 -11 4 -26z
m-1 -930 c-6 -2 -8 -49 -5 -126 4 -79 2 -126 -5 -130 -6 -5 -5 -8 3 -8 10 0
12 -15 8 -59 -3 -45 -1 -61 10 -65 22 -9 17 -28 -6 -21 -15 5 -20 2 -20 -12 0
-15 2 -16 10 -3 5 8 10 13 10 10 0 -3 2 -52 4 -110 2 -58 6 -116 10 -130 7
-24 7 -24 -8 -6 -16 19 -16 19 -16 -2 0 -12 -4 -22 -10 -22 -5 0 -10 5 -10 12
0 6 -3 9 -6 5 -5 -4 21 -71 33 -87 2 -2 8 2 13 10 8 12 10 10 10 -7 0 -13 -4
-23 -9 -23 -5 0 -7 -10 -3 -22 5 -20 3 -21 -10 -10 -14 11 -18 10 -27 -5 -10
-17 -10 -16 -11 4 0 12 5 25 10 28 6 4 7 13 1 23 -15 29 -25 116 -12 108 6 -4
11 -2 11 4 0 13 -32 9 -42 -5 -4 -5 -5 -26 -3 -45 14 -119 15 -132 2 -127 -11
3 -13 7 -16 43 0 8 -5 12 -11 9 -15 -9 -12 4 5 21 20 21 19 38 -2 29 -15 -5
-16 -4 -5 6 17 18 15 34 -3 19 -13 -10 -15 -9 -15 9 0 12 5 19 10 16 6 -3 10
-2 10 4 0 5 -4 13 -10 16 -5 3 -10 11 -10 16 0 6 4 8 10 4 5 -3 20 -3 33 0 23
6 25 13 33 108 9 91 8 103 -8 119 -10 10 -13 18 -8 18 6 0 10 11 10 24 0 14 5
28 10 31 6 3 10 -2 10 -11 0 -10 3 -15 6 -11 4 3 3 14 -1 24 -5 10 -9 35 -9
56 -1 22 -7 42 -16 47 -12 8 -12 10 -1 10 11 0 13 18 9 94 -5 98 2 127 30 125
9 0 13 -2 7 -5z m-1670 -648 c18 -53 49 -133 69 -178 30 -74 61 -151 126 -323
11 -27 39 -106 64 -175 24 -69 69 -192 100 -274 31 -82 55 -155 52 -162 -2 -6
4 -28 15 -48 10 -19 35 -77 54 -128 20 -51 42 -108 50 -126 18 -40 19 -50 3
-49 -31 1 -49 -4 -44 -12 3 -4 16 -7 28 -4 13 2 28 0 34 -4 15 -11 84 -104 84
-114 0 -4 -13 -2 -30 4 -16 6 -30 14 -30 18 0 13 -69 19 -310 24 -135 3 -257
8 -272 11 l-27 5 0 467 c0 257 -3 626 -6 821 -3 195 -3 352 0 349 3 -3 21 -49
40 -102z m1697 -191 c34 0 50 -41 40 -106 -6 -45 -11 -54 -27 -54 -12 0 -20 7
-20 17 0 9 -4 20 -8 24 -4 4 -7 -4 -7 -17 0 -14 -6 -31 -12 -38 -11 -11 -10
-13 5 -8 13 5 17 1 18 -16 0 -12 2 -32 3 -44 1 -12 -3 -34 -10 -50 -7 -15 -13
-22 -13 -14 -1 11 -4 11 -18 0 -11 -10 -14 -10 -9 -1 4 7 2 12 -4 12 -6 0 -8
5 -5 10 4 7 13 7 26 0 22 -13 24 -3 4 24 -11 15 -12 23 -3 33 8 10 8 17 1 21
-6 4 -10 43 -8 100 1 50 -2 92 -7 92 -4 0 -3 9 4 20 9 14 14 16 20 7 4 -7 18
-12 30 -12z m-1353 -252 c-3 -20 2 -33 14 -33 6 0 17 -15 24 -32 53 -148 73
-197 112 -282 17 -36 28 -71 25 -80 -3 -8 3 -23 13 -33 21 -21 55 -102 48
-114 -3 -4 4 -31 15 -60 11 -29 18 -54 16 -56 -7 -7 -45 53 -52 83 -4 16 -22
61 -40 99 -18 39 -46 106 -62 150 -16 44 -38 100 -50 125 -11 25 -27 70 -37
100 -9 30 -23 64 -30 76 -7 12 -17 38 -21 60 -7 36 -6 37 10 22 9 -9 16 -21
15 -25z m1338 -85 c-2 -7 3 -22 12 -32 9 -11 10 -16 4 -12 -9 5 -13 1 -13 -12
0 -15 6 -18 36 -16 l35 3 -2 -74 c-2 -77 -13 -100 -43 -89 -13 5 -16 21 -16
75 0 72 -13 92 -24 38 -9 -48 -7 -83 7 -120 9 -21 11 -44 6 -59 -4 -14 -7 -19
-8 -12 -1 7 -12 29 -25 50 -21 34 -23 43 -16 122 4 47 5 91 2 98 -2 6 0 12 6
12 6 0 13 -6 16 -12 4 -9 5 -8 5 2 -2 34 2 50 12 50 6 0 9 -6 6 -12z m-2866
-215 c0 -16 2 -43 3 -60 2 -18 1 -33 -3 -33 -3 0 -6 -27 -6 -59 0 -33 4 -57 9
-54 5 4 5 -15 1 -43 -8 -50 -8 -322 0 -391 11 -98 17 -122 30 -127 8 -3 15 -1
15 4 0 21 19 9 32 -20 7 -16 16 -30 19 -30 8 0 32 -90 26 -96 -2 -2 -21 22
-42 53 -21 32 -52 73 -69 90 -16 18 -31 41 -33 50 -8 41 -9 713 -2 713 5 0 6
7 3 15 -4 8 -1 15 5 15 6 0 11 -12 12 -27z"/>
<path d="M16742 6388 l3 -113 46 -3 c72 -5 80 10 77 127 l-3 96 -63 3 -63 3 3
-113z m98 -3 l0 -95 -40 0 -40 0 0 95 0 95 40 0 40 0 0 -95z"/>
<path d="M16763 5703 c-22 -4 -23 -8 -23 -113 0 -103 1 -108 23 -114 40 -11
67 -6 87 14 17 17 19 31 17 112 -2 89 -3 92 -27 99 -28 8 -45 8 -77 2z"/>
<path d="M16957 5703 l-28 -4 3 -107 3 -106 34 -9 c22 -5 43 -4 62 4 l29 11 0
104 c0 92 -2 104 -17 104 -10 0 -27 2 -38 4 -11 2 -33 1 -48 -1z m83 -118 l0
-95 -39 0 c-38 0 -38 0 -45 46 -8 61 -8 129 1 137 3 4 24 7 45 7 l38 0 0 -95z"/>
<path d="M17154 5700 c-18 -7 -23 -20 -28 -77 -8 -88 -3 -132 15 -144 14 -9
81 -5 100 6 5 4 9 53 9 109 0 99 -1 104 -22 110 -30 8 -48 7 -74 -4z m74 -113
l3 -98 -38 3 -38 3 -3 84 c-4 105 -1 113 40 109 l33 -3 3 -98z"/>
<path d="M16765 5273 c-32 -8 -36 -23 -30 -103 10 -124 7 -120 70 -120 l55 0
0 109 c0 104 -1 109 -22 115 -25 6 -43 6 -73 -1z m75 -119 l0 -95 -42 3 -43 3
1 40 c1 22 2 64 3 93 l1 52 40 0 40 0 0 -96z"/>
<path d="M16948 5273 c-16 -4 -18 -18 -18 -113 l0 -108 29 -4 c16 -2 45 -2 65
0 l36 4 0 104 c0 92 -2 104 -19 114 -20 10 -61 12 -93 3z"/>
<path d="M17164 5273 c-28 -5 -34 -28 -34 -135 l0 -88 44 0 c76 0 76 0 76 111
0 98 0 100 -26 109 -14 6 -28 9 -32 9 -4 -1 -17 -4 -28 -6z"/>
<path d="M16758 4843 c-16 -4 -18 -18 -18 -108 l0 -103 40 -7 c81 -14 94 7 88
145 l-3 75 -45 2 c-25 0 -53 -1 -62 -4z m76 -19 c13 -5 16 -23 16 -95 l0 -89
-39 0 -40 0 -3 85 c-2 47 -1 90 0 95 4 11 42 13 66 4z"/>
<path d="M16764 4438 c-4 -7 -10 -53 -12 -102 -5 -101 3 -116 64 -116 59 0 59
1 58 118 l-1 107 -51 3 c-33 2 -53 -1 -58 -10z"/>
<path d="M17188 4443 l-38 -4 0 -67 c0 -37 -3 -84 -6 -104 -7 -38 -6 -38 27
-38 80 0 80 1 78 116 -1 69 -6 103 -13 102 -6 -1 -28 -3 -48 -5z"/>
<path d="M16965 4016 c-16 -12 -19 -28 -20 -109 -1 -105 -1 -107 70 -107 50 0
53 6 47 113 -5 93 -6 99 -29 108 -33 12 -46 11 -68 -5z"/>
<path d="M16754 3625 c-3 -6 -4 -51 -2 -100 l3 -89 34 -9 c55 -14 81 6 81 62
0 25 5 64 10 86 5 22 6 43 2 46 -14 13 -124 16 -128 4z"/>
<path d="M4777 7990 c-3 -8 -7 -24 -9 -35 -3 -16 -10 -19 -33 -16 -77 11 -899
3 -870 -8 47 -19 660 -32 784 -17 59 7 73 6 69 -4 -2 -8 -13 -18 -23 -24 -11
-6 -24 -16 -30 -22 -5 -6 -37 -31 -70 -54 -77 -56 -215 -177 -215 -189 0 -10
-483 0 -500 10 -9 5 58 9 165 11 99 1 194 3 210 4 17 1 45 3 63 3 18 1 31 5
28 9 -3 5 -36 7 -73 6 -37 -2 -145 -4 -240 -5 -134 -2 -173 -5 -177 -15 -7
-18 -35 -18 -56 1 -12 11 -29 13 -63 9 -26 -4 -47 -11 -47 -15 0 -5 -12 -9
-27 -8 l-28 1 25 8 25 8 -24 1 c-13 1 -29 -6 -35 -14 -10 -13 -126 -32 -126
-21 0 2 69 50 153 106 163 110 241 169 233 177 -9 10 -88 -37 -263 -156 -95
-64 -189 -125 -210 -136 -37 -20 -37 -20 -11 -23 34 -4 35 -15 36 -362 0 -151
3 -428 7 -614 l8 -339 -71 6 c-91 9 -118 20 -126 51 -7 29 -32 56 -52 56 -10
0 -5 -13 16 -42 16 -22 30 -45 30 -50 0 -8 -109 -2 -117 6 -1 1 4 15 13 30 23
45 7 44 -34 -1 -26 -29 -46 -42 -69 -45 l-33 -3 -5 588 c-3 323 -3 592 1 598
4 8 9 7 15 -2 6 -9 9 -2 9 23 0 20 -4 40 -10 43 -5 3 -10 11 -10 16 0 6 4 8 9
5 8 -6 7 103 -3 233 -4 41 -4 89 0 107 5 29 10 34 35 34 16 0 29 4 29 9 0 5
-54 7 -122 4 -68 -2 -280 -8 -473 -12 -378 -8 -379 -9 -441 -66 -14 -13 -77
-55 -140 -92 -63 -37 -131 -78 -152 -90 -20 -13 -39 -23 -42 -23 -3 0 -13 12
-22 28 l-17 27 -1 -27 c0 -16 -9 -33 -22 -42 l-22 -16 22 0 c20 0 22 -4 16
-22 -4 -13 -7 -36 -6 -53 0 -16 4 -109 7 -205 3 -96 10 -281 15 -410 4 -129 7
-273 5 -320 -2 -47 -6 -170 -10 -275 -4 -104 -10 -206 -14 -225 -4 -19 -4 -53
0 -75 4 -22 7 -123 8 -225 0 -102 5 -241 10 -310 10 -130 7 -1046 -4 -1185 -3
-44 -1 -120 4 -170 33 -273 44 -354 57 -390 7 -22 14 -47 14 -56 0 -44 129
-311 198 -411 18 -27 30 -48 26 -48 -3 0 -45 37 -92 83 -136 131 -56 38 121
-141 91 -93 191 -183 231 -210 39 -26 74 -50 79 -53 4 -3 10 -40 13 -83 5 -72
4 -77 -18 -86 -15 -6 53 -9 197 -9 134 -1 234 -5 255 -12 43 -14 730 -22 751
-8 9 5 -18 9 -74 9 -68 0 -87 3 -81 12 6 11 4 11 -7 0 -7 -6 -18 -12 -23 -12
-6 0 -4 5 4 10 11 7 0 10 -37 10 -30 0 -53 5 -53 10 0 7 28 10 78 7 42 -2 118
-1 167 3 50 3 95 2 102 -3 7 -5 18 -7 25 -4 8 4 7 6 -4 6 -10 1 -18 5 -18 10
0 11 57 20 168 26 116 7 148 13 162 30 6 7 19 11 27 8 11 -4 14 -2 9 5 -10 16
-34 15 -52 -2 -15 -15 -38 -15 -86 -2 -19 6 -34 3 -50 -8 -12 -9 -36 -16 -53
-15 -29 1 -28 1 12 15 23 9 89 39 147 68 99 50 106 52 107 32 0 -11 2 -53 4
-92 l3 -72 -157 2 c-113 1 -160 -2 -169 -11 -15 -14 -18 -14 168 -18 79 -1
117 2 152 15 39 15 48 15 52 4 8 -21 37 -17 63 8 21 20 33 22 92 19 42 -1 71
2 75 8 5 7 -3 11 -21 11 -16 0 -34 5 -41 12 -9 9 -16 7 -32 -7 -11 -10 -23
-15 -28 -10 -4 4 -1 10 6 12 6 3 12 11 12 18 0 16 27 26 57 21 26 -5 106 -8
198 -7 49 1 66 4 55 11 -8 5 -28 10 -43 10 -17 0 -26 4 -22 11 4 6 14 8 22 5
11 -4 13 -2 9 9 -3 8 -1 15 4 15 6 0 10 -7 10 -15 0 -8 9 -15 19 -15 10 0 22
-7 25 -15 5 -13 22 -15 91 -14 47 1 85 5 85 10 0 5 -18 9 -40 9 -28 0 -43 5
-47 16 -4 11 -19 15 -57 14 -70 -2 -72 -2 -51 14 17 12 15 13 -23 11 -23 -1
-42 2 -42 6 0 5 9 9 21 9 12 0 19 5 16 13 -2 6 -16 11 -31 10 -14 -1 -24 2
-22 6 13 20 433 29 496 11 35 -10 39 -5 9 10 -18 10 -156 19 -301 20 -29 0
-48 5 -48 11 0 8 39 10 137 7 75 -3 128 -2 117 2 -29 11 -279 21 -324 14 -57
-9 -49 -24 10 -19 28 2 50 -1 50 -6 0 -5 -8 -10 -17 -11 -51 -4 -75 -3 -79 4
-3 4 -17 8 -32 9 l-27 0 25 11 25 11 -30 7 c-16 4 -46 9 -65 10 l-35 2 39 10
c26 7 49 7 72 0 23 -7 34 -7 34 0 0 7 4 7 13 1 15 -12 107 -5 107 8 0 14 27
11 33 -4 3 -8 27 -13 71 -14 70 -2 80 2 44 17 -19 7 -16 9 22 11 25 1 63 1 85
-1 38 -2 44 11 7 16 -92 11 -135 14 -252 20 -74 3 -142 5 -150 5 -8 -1 -37 0
-65 1 -67 3 -134 1 -189 -6 -41 -4 -45 -3 -37 12 14 25 142 146 169 161 13 7
21 15 18 18 -3 3 28 40 68 82 98 101 127 137 118 146 -4 5 -2 5 4 2 6 -4 22 5
35 20 18 20 20 25 7 20 -24 -9 -23 -6 17 44 19 24 35 52 35 62 0 9 4 17 9 17
5 0 21 33 36 73 15 39 33 86 40 102 43 104 126 453 127 533 0 12 3 22 7 22 6
0 7 52 1 75 -1 6 -1 18 0 29 1 12 -2 16 -12 11 -10 -6 -11 -5 0 6 13 14 17 89
5 89 -5 0 -8 60 -9 132 -4 546 -15 1333 -18 1378 -2 30 0 63 5 73 5 9 6 17 1
17 -4 0 -8 196 -8 435 0 357 2 435 13 431 9 -4 13 3 13 19 0 14 -5 25 -11 25
-5 0 -7 -4 -4 -10 3 -5 1 -10 -5 -10 -8 0 -9 16 -4 53 7 54 8 151 4 437 -3
246 -5 232 31 253 17 9 42 17 55 17 13 0 24 4 24 8 0 12 -62 7 -87 -6 -29 -16
-35 -15 -29 6 6 23 -9 101 -17 82z m-1787 -79 c0 -9 -92 -82 -127 -100 -13 -6
-53 -38 -90 -71 -77 -69 -119 -91 -159 -86 -16 2 -21 1 -11 -1 9 -2 17 -10 17
-17 0 -14 -229 -29 -380 -25 -41 1 -93 -3 -115 -9 -22 -6 -66 -13 -97 -17
-129 -15 -41 -20 258 -15 174 3 318 3 320 1 2 -3 4 -171 4 -375 1 -522 1 -624
3 -766 3 -305 6 -272 -27 -283 -22 -7 -35 -6 -56 7 -67 39 -122 8 -125 -70 -1
-25 -6 -49 -11 -53 -5 -4 -39 -33 -77 -65 -63 -52 -70 -56 -106 -50 -32 5 -43
2 -61 -16 -19 -19 -22 -30 -17 -76 5 -51 4 -56 -45 -126 -64 -93 -97 -128
-119 -128 -20 0 -59 -45 -59 -67 0 -8 7 -30 16 -48 15 -32 14 -35 -29 -136
-31 -73 -51 -108 -68 -116 -13 -7 -29 -20 -36 -29 -18 -24 -16 -79 3 -94 30
-25 35 -48 25 -112 -5 -35 -12 -93 -16 -130 -6 -62 -9 -68 -37 -83 -17 -8 -32
-15 -32 -15 -1 0 -1 159 -2 353 0 193 -6 429 -13 522 -7 97 -11 308 -9 490 5
531 3 864 -5 1187 -6 242 -5 308 5 315 7 4 106 6 219 4 127 -1 209 1 213 7 8
13 -226 27 -305 18 -33 -3 -59 -2 -59 2 0 10 134 99 215 143 33 18 76 47 95
65 l35 32 305 5 c168 3 323 8 345 11 22 3 66 7 98 10 32 2 61 7 65 10 9 9 52
7 52 -3z m-14 -188 c-3 -71 -9 -207 -13 -303 -3 -96 -5 -227 -2 -290 2 -63 4
-284 4 -490 l0 -375 -28 -3 -27 -3 5 75 c3 47 1 76 -5 76 -6 0 -10 5 -10 11 0
5 4 8 9 5 4 -3 8 28 7 69 -1 41 -4 75 -8 75 -5 0 -8 -15 -8 -32 0 -44 -10 -79
-21 -73 -8 6 -4 -77 7 -143 l5 -33 -25 17 c-16 9 -35 14 -49 10 -35 -8 -77
-45 -77 -67 0 -10 -4 -19 -10 -19 -5 0 -7 -7 -4 -15 4 -10 0 -15 -10 -15 -15
0 -16 21 -15 195 1 107 6 192 10 189 5 -3 9 -1 9 5 0 5 -4 12 -10 16 -15 9 -1
805 16 878 1 4 2 33 3 65 l1 57 62 50 c72 58 158 145 158 161 0 9 20 34 27 34
2 0 1 -57 -1 -127z m1786 80 c2 -16 0 -50 -4 -78 -5 -27 -8 -117 -7 -200 0
-82 0 -231 0 -330 -1 -99 -1 -299 -1 -445 0 -189 -3 -266 -11 -269 -8 -2 -8
-6 -1 -10 7 -4 13 -142 16 -396 8 -519 6 -741 -8 -763 -4 -7 -4 -12 1 -12 4 0
9 -55 10 -123 0 -67 4 -166 7 -220 4 -66 3 -96 -4 -92 -5 3 -10 2 -10 -4 0 -5
4 -11 9 -13 4 -1 11 -43 13 -93 3 -49 3 -80 1 -67 -2 12 -9 22 -14 22 -6 0 -8
-12 -4 -30 4 -16 1 -64 -6 -107 -7 -43 -12 -88 -12 -100 1 -27 -16 -31 -18 -5
-1 9 -3 26 -4 37 -1 11 -3 33 -3 48 -1 16 -6 26 -11 23 -5 -4 -7 -25 -5 -47 4
-27 2 -39 -5 -34 -6 3 -11 1 -11 -4 0 -6 5 -11 11 -11 8 0 10 -17 6 -55 -3
-31 -2 -55 4 -55 5 0 9 -8 9 -17 0 -16 -2 -16 -11 -3 -8 11 -9 9 -3 -9 9 -33
5 -162 -7 -249 -4 -22 2 -42 10 -38 6 4 6 -5 2 -21 -5 -16 -14 -27 -20 -25 -7
1 -10 -2 -6 -7 14 -23 -76 -284 -92 -267 -3 2 1 14 7 26 7 12 9 31 7 42 -3 11
5 34 19 56 14 19 22 42 20 49 -3 7 -1 15 4 18 6 4 10 11 10 16 0 6 -6 7 -12 3
-9 -5 -9 -2 1 9 9 11 10 17 2 17 -6 0 -11 5 -11 11 0 6 8 8 18 5 16 -6 16 -5
0 8 -30 22 -22 51 12 48 5 -1 5 46 1 58 -2 3 -6 -4 -11 -15 -7 -17 -9 -17 -9
-2 -1 9 -6 17 -12 17 -7 0 -9 -9 -5 -24 3 -12 2 -26 -1 -30 -4 -4 -8 -23 -9
-42 0 -20 -7 -39 -14 -44 -7 -4 -14 -22 -16 -40 -2 -17 -7 -37 -11 -43 -4 -6
-8 -20 -8 -30 -1 -10 -10 -26 -20 -35 -18 -16 -18 -16 -6 1 8 9 11 20 7 24 -3
4 -14 -3 -22 -16 -22 -30 -41 -13 -23 20 11 21 11 23 -3 11 -13 -10 -17 -10
-20 0 -3 7 -5 -2 -6 -19 0 -18 3 -33 8 -33 5 0 -9 -34 -30 -76 -45 -86 -45
-85 -25 -78 19 8 20 -5 1 -20 -8 -6 -28 -38 -45 -71 -18 -35 -31 -52 -31 -40
0 11 6 29 13 40 8 11 28 66 46 123 18 56 37 100 42 97 5 -4 9 1 9 10 0 9 -4
14 -9 10 -6 -3 -9 3 -8 14 0 11 4 19 7 19 18 -2 21 4 10 17 -9 10 -9 15 -1 15
6 0 11 7 11 15 0 8 5 25 12 38 6 12 14 29 18 37 4 8 19 16 34 17 l27 2 -21
-29 c-11 -15 -22 -50 -25 -76 -4 -44 -3 -46 11 -26 8 12 12 26 9 32 -6 10 19
65 43 93 14 15 13 17 -1 17 -10 0 -17 4 -17 10 0 5 -8 7 -17 3 -10 -4 1 12 25
33 29 28 41 45 37 56 -4 11 1 21 14 29 15 10 18 20 14 41 -3 17 -1 28 5 28 6
0 9 7 6 15 -4 8 -3 23 1 33 7 16 8 15 15 -3 6 -15 7 -11 7 17 -1 23 -5 34 -11
30 -6 -3 -3 7 8 22 10 16 13 26 8 22 -7 -4 -11 8 -11 31 0 21 -5 52 -10 68 -8
24 -9 18 -4 -31 3 -35 1 -64 -4 -67 -6 -4 -10 10 -11 31 -1 20 -6 51 -11 67
-7 24 -8 19 -7 -30 1 -71 -12 -257 -19 -264 -3 -2 -5 9 -6 25 l-1 29 -8 -27
c-4 -15 -17 -37 -29 -49 -12 -13 -21 -31 -21 -40 0 -10 -4 -21 -10 -24 -18
-11 -11 29 11 65 12 19 22 45 24 58 1 13 7 27 12 31 13 8 25 74 17 95 -5 13
-9 14 -20 5 -11 -9 -14 -7 -14 14 0 14 5 29 10 32 12 7 4 25 -11 25 -5 0 -9
-7 -9 -15 0 -8 -5 -15 -11 -15 -7 0 -8 -18 -4 -55 5 -36 3 -60 -4 -69 -13 -16
-24 -109 -12 -101 5 3 7 -5 3 -17 -3 -12 -7 -17 -10 -10 -2 6 -8 12 -14 12 -6
0 -6 -6 2 -15 6 -8 9 -23 5 -35 -4 -12 -2 -20 6 -20 9 0 8 -4 -1 -15 -7 -8
-17 -12 -22 -9 -5 3 -9 0 -7 -7 3 -24 -1 -39 -9 -39 -5 0 -6 22 -2 48 3 27 5
75 3 108 -9 155 -5 184 38 277 14 30 19 32 38 15 11 -11 12 -10 6 1 -6 11 -4
11 11 3 16 -9 20 -6 29 21 7 22 16 31 28 29 19 -3 23 13 6 24 -6 3 -8 17 -5
30 7 27 -12 74 -30 74 -16 0 -24 23 -24 66 0 22 4 33 10 29 7 -5 10 20 7 73
-3 77 6 112 30 112 5 0 10 6 11 13 0 6 5 30 11 52 7 28 7 41 -1 46 -6 4 -8 14
-5 23 7 18 -11 75 -29 93 -7 7 -15 30 -19 52 -4 22 -13 45 -21 52 -8 6 -14 16
-14 21 0 6 7 5 15 -2 13 -10 15 -9 15 9 0 11 -4 21 -9 21 -17 0 -40 87 -31
115 4 11 4 29 -1 40 -7 17 -8 16 -8 -7 -1 -16 -5 -28 -11 -28 -16 0 -32 41
-26 66 4 14 2 24 -4 24 -5 0 -10 14 -10 31 0 17 4 28 10 24 6 -3 10 1 10 10 0
11 -5 15 -15 11 -11 -4 -15 1 -15 17 0 18 2 19 10 7 7 -11 9 -2 9 30 -1 37 -2
41 -9 20 -6 -19 -8 -11 -9 33 -1 31 -3 117 -6 189 -13 345 -27 862 -26 988 1
52 1 238 1 412 l-1 316 23 8 c13 4 32 15 43 25 11 10 38 33 60 51 22 18 41 41
41 50 1 14 -7 11 -40 -14 -22 -17 -48 -40 -56 -50 -15 -18 -70 -51 -70 -42 0
14 177 154 195 154 8 0 15 7 15 15 0 8 7 15 15 15 8 0 15 5 15 10 0 6 7 10 16
10 8 0 12 5 8 11 -4 8 1 9 17 5 13 -3 18 -3 11 0 -10 5 -9 10 4 25 23 26 32
24 36 -8z m-904 -208 c96 -7 122 -21 50 -28 -24 -2 20 -1 97 1 144 5 343 -4
363 -17 8 -5 13 -176 17 -596 9 -937 14 -1191 25 -1334 5 -74 8 -136 6 -138
-2 -3 -12 17 -22 44 -9 26 -22 53 -29 58 -22 20 -68 86 -62 91 11 11 48 -22
59 -53 15 -41 41 -45 32 -5 -10 48 -27 72 -53 78 -14 3 -33 8 -42 10 -26 7
-132 160 -133 192 -1 38 -45 101 -75 109 -13 3 -32 1 -42 -5 -15 -10 -31 -3
-94 40 -60 41 -79 60 -95 96 -11 25 -28 51 -38 58 -20 16 -58 18 -67 4 -19
-30 -170 27 -202 76 -9 14 -22 23 -29 20 -20 -8 -23 29 -29 314 -15 737 -24
930 -45 955 -18 21 -4 24 130 27 63 2 131 4 150 6 19 2 77 0 128 -3z m-569
-1371 c29 -8 60 -13 69 -11 10 3 5 5 -10 6 -16 0 -28 6 -28 12 0 6 6 9 14 6 8
-3 30 -9 50 -12 25 -5 33 -11 29 -22 -5 -12 -1 -14 14 -9 19 6 21 1 26 -61 3
-38 4 -69 3 -71 -2 -1 -34 2 -72 8 -38 5 -90 10 -116 10 -27 0 -48 4 -48 10 0
12 34 30 58 30 11 0 32 6 47 14 19 10 36 12 58 5 39 -11 37 -11 37 1 0 6 -10
10 -21 10 -16 0 -20 5 -16 19 4 15 1 18 -12 14 -9 -3 -20 -9 -26 -13 -5 -4
-32 -15 -60 -25 -27 -10 -59 -26 -70 -36 -24 -21 -48 -27 -137 -33 -65 -5 -91
6 -50 21 9 4 39 26 66 50 39 35 55 43 88 43 25 0 37 4 33 10 -4 6 -1 17 5 25
15 18 6 18 69 -1z m-415 -81 c4 -4 15 -8 24 -8 9 0 21 -9 27 -20 6 -13 18 -19
33 -17 32 5 28 -23 -5 -35 -16 -6 -65 -22 -111 -36 l-83 -26 -8 22 c-9 23 18
78 53 110 20 17 57 23 70 10z m862 -31 c6 -4 13 -15 17 -24 3 -10 15 -18 27
-18 24 0 167 -74 194 -100 18 -18 17 -18 -35 -25 -130 -16 -181 -13 -239 16
-30 14 -73 32 -95 39 -72 23 -97 39 -93 63 2 17 9 21 28 19 14 -2 49 4 78 14
29 9 59 13 67 10 8 -3 17 -1 20 4 7 12 16 12 31 2z m-319 -93 c18 -8 33 -22
35 -34 3 -11 3 -147 1 -300 -3 -317 3 -288 -104 -505 -31 -63 -67 -141 -80
-172 -23 -55 -40 -70 -54 -48 -3 5 -1 19 5 31 7 12 20 71 30 133 11 61 24 138
30 171 21 117 38 231 44 295 4 36 9 80 12 98 4 18 2 32 -4 32 -9 0 -20 -45
-29 -125 -2 -22 -18 -119 -34 -215 -17 -96 -37 -215 -45 -265 -26 -167 -23
-157 -47 -153 -12 1 -28 -1 -35 -6 -16 -9 -25 -2 -28 22 -4 23 -54 141 -73
171 -8 13 -17 31 -19 40 -10 36 -14 372 -7 598 l7 242 32 5 c61 9 331 -2 363
-15z m-441 -236 c-3 -131 -9 -287 -13 -348 -8 -130 -8 -153 1 -265 l8 -85 -36
40 c-19 22 -54 66 -78 98 -24 33 -59 78 -79 100 -63 74 -79 103 -79 144 0 21
-5 44 -11 50 -15 15 -26 303 -11 312 6 4 7 21 2 49 -6 35 -5 42 6 38 8 -3 14
0 14 7 0 17 111 62 178 73 20 3 44 10 52 15 8 4 24 9 34 9 18 0 19 -8 12 -237z
m-510 200 c-11 -62 -18 -138 -11 -131 7 7 19 60 29 123 2 17 12 21 65 25 34 3
64 3 67 1 2 -2 4 -14 4 -25 0 -28 -170 -156 -208 -157 -23 0 -24 -1 -7 -8 17
-7 11 -16 -55 -84 -40 -42 -86 -101 -102 -129 -16 -29 -35 -59 -43 -67 -12
-13 -15 -12 -21 3 -4 9 -4 35 -1 56 3 22 1 43 -4 46 -28 17 9 84 46 84 7 0 17
5 20 10 4 6 11 8 16 5 9 -6 58 25 59 37 0 4 -15 2 -32 -3 l-33 -9 28 26 c22
20 31 23 42 14 10 -8 19 -8 34 0 33 17 25 23 -29 18 -46 -5 -67 4 -37 15 10 4
10 7 0 18 -7 7 -13 17 -13 21 0 12 162 138 178 138 9 0 12 -8 8 -27z m1145
-33 c210 -99 325 -190 456 -360 64 -84 115 -164 146 -232 40 -87 97 -275 101
-333 2 -29 8 -60 12 -67 17 -27 17 -216 -1 -320 -66 -396 -313 -746 -632 -899
-46 -22 -86 -39 -88 -37 -1 2 -25 75 -53 163 -53 165 -73 263 -53 251 6 -4 11
-13 11 -20 0 -7 29 -80 63 -162 35 -82 67 -158 71 -168 3 -10 9 -17 11 -14 6
5 -29 99 -92 247 -64 154 -65 157 -68 319 -2 83 0 152 4 152 4 0 39 -42 78
-92 39 -51 104 -132 145 -180 40 -47 102 -120 137 -162 35 -42 68 -76 74 -76
11 0 9 2 -78 104 -100 117 -326 399 -339 426 -18 34 -30 130 -16 130 6 0 43
-19 83 -43 130 -79 549 -309 553 -305 5 5 -211 134 -396 235 -242 134 -240
132 -240 175 0 21 3 38 6 38 3 0 52 -11 108 -24 160 -39 535 -113 601 -119 80
-8 64 -2 -85 28 -167 33 -580 122 -612 131 -14 4 -18 16 -18 54 0 27 4 51 8
54 4 2 48 10 98 16 348 43 654 89 674 101 22 12 4 11 -120 -6 -58 -9 -170 -24
-250 -35 -80 -10 -197 -26 -260 -34 -163 -22 -150 -26 -150 44 0 58 1 60 38
84 20 13 134 73 252 135 241 124 374 200 366 208 -2 3 -51 -20 -108 -50 -57
-30 -184 -96 -283 -147 -99 -52 -197 -104 -217 -117 -21 -12 -42 -23 -48 -23
-6 0 -10 27 -10 63 0 78 -6 69 232 330 101 110 193 213 206 228 39 48 10 32
-44 -23 -90 -95 -328 -352 -356 -386 -15 -17 -30 -32 -34 -32 -4 0 -4 53 -1
118 6 116 7 118 57 217 28 55 50 103 50 108 0 7 9 29 61 142 21 48 36 104 22
90 -9 -10 -35 -67 -98 -215 -58 -136 -70 -160 -77 -160 -5 0 -8 111 -8 246 l0
246 24 -6 c13 -3 52 -19 87 -36z m433 -47 c14 -14 26 -32 26 -40 0 -8 5 -11
11 -7 17 10 179 -161 179 -190 0 -10 -124 18 -215 49 l-40 13 3 65 c2 36 1 80
-4 99 l-7 33 -7 -27 c-4 -14 -6 -51 -5 -82 2 -31 -1 -56 -6 -56 -10 0 -199
150 -199 158 0 2 22 2 49 0 28 -3 54 -2 60 1 6 4 37 7 70 8 52 2 63 -1 85 -24z
m-1415 -199 c0 -96 3 -179 6 -185 4 -5 4 -9 0 -9 -7 0 -51 45 -92 95 -18 22
-33 36 -33 31 0 -4 20 -31 44 -59 75 -89 81 -107 85 -247 1 -76 7 -130 14
-139 14 -17 -87 36 -263 139 -69 40 -132 75 -140 78 -17 5 279 -182 322 -204
33 -17 100 -81 75 -71 -14 5 -17 1 -17 -22 0 -16 7 -31 15 -35 8 -3 15 -10 15
-15 0 -6 -7 -8 -15 -5 -21 9 -19 -23 2 -35 40 -22 -1 -19 -118 9 -68 16 -173
41 -234 55 -175 42 -195 47 -200 55 -7 12 60 189 105 280 24 46 60 109 82 140
21 30 38 57 38 60 0 3 37 44 83 90 110 113 200 185 219 174 3 -2 7 -83 7 -180z
m-449 17 c0 -5 -7 -14 -15 -21 -8 -7 -14 -24 -14 -39 1 -14 0 -30 -1 -36 -2
-5 2 -23 8 -38 22 -52 21 -90 -4 -142 -13 -27 -23 -55 -24 -61 0 -5 -9 -28
-19 -50 -11 -23 -26 -60 -33 -83 -8 -26 -18 -40 -27 -39 -18 4 -59 80 -63 118
-2 22 -7 27 -16 21 -11 -7 -11 -15 2 -46 9 -20 16 -45 16 -55 0 -10 11 -25 25
-34 30 -19 32 -50 6 -68 -10 -7 -21 -22 -24 -33 -10 -31 -42 -46 -72 -35 -30
11 -32 30 -5 53 24 20 26 35 5 43 -21 9 -19 41 10 120 14 38 25 70 25 72 0 2
14 1 30 -3 35 -8 112 31 130 65 11 20 -4 49 -53 107 -19 21 -19 22 19 85 51
85 94 130 94 99z m1897 -35 c96 -34 140 -45 158 -40 16 4 30 -10 73 -75 55
-82 84 -147 96 -215 7 -34 5 -38 -11 -33 -49 15 -139 57 -146 69 -6 8 0 34 16
68 27 60 39 110 26 110 -12 0 -29 -35 -29 -59 0 -27 -32 -92 -43 -88 -5 1 -22
27 -39 57 -28 51 -66 105 -133 188 -29 35 -24 39 32 18z m-1326 -361 c16 -27
41 -64 56 -82 16 -17 35 -40 43 -50 8 -10 36 -44 62 -75 33 -39 49 -68 54 -98
l7 -42 -34 17 c-18 10 -65 38 -105 64 -40 25 -86 54 -103 63 l-31 17 0 108 c0
59 -3 119 -7 133 -6 23 -5 24 11 10 10 -8 31 -37 47 -65z m1550 15 c59 -18
109 -55 109 -82 0 -9 5 -20 10 -23 11 -7 13 -113 3 -194 -5 -41 -11 -55 -25
-59 -18 -4 -18 -5 3 -20 20 -14 21 -20 15 -126 -3 -61 -6 -118 -6 -126 0 -8
-1 -42 -2 -75 -1 -33 -1 -86 0 -117 1 -32 -3 -58 -8 -58 -5 0 -7 -13 -4 -29 6
-26 2 -32 -39 -55 -25 -15 -51 -33 -57 -41 -11 -13 -8 -13 18 -4 17 6 36 17
43 25 17 20 29 17 30 -8 l2 -23 4 23 c2 12 9 22 14 22 14 0 11 -37 -5 -68 -8
-15 -18 -45 -21 -66 -9 -45 -51 -128 -71 -139 -8 -4 -14 -14 -14 -21 0 -6 -13
-33 -30 -59 -21 -33 -36 -47 -52 -47 -13 0 -45 -11 -72 -24 -27 -13 -55 -22
-61 -20 -6 3 -19 -3 -30 -11 -19 -14 -17 -15 20 -9 22 3 64 17 94 30 30 13 55
23 57 21 5 -4 -68 -92 -137 -164 -59 -62 -89 -80 -74 -45 5 9 7 25 6 35 -11
105 6 159 69 228 35 39 60 71 60 78 0 15 62 121 71 121 5 0 9 7 9 15 0 20 32
85 42 85 4 0 8 8 8 18 0 18 27 106 41 134 5 10 9 25 9 34 0 8 5 25 12 37 16
28 17 37 22 253 3 100 1 194 -4 210 -5 16 -23 81 -40 144 -17 63 -37 127 -45
141 -8 14 -19 38 -25 54 -9 24 -8 26 7 20 10 -4 30 -11 44 -15z m-845 -78 c6
-97 3 -104 -95 -222 -39 -46 -68 -87 -65 -89 3 -3 27 19 52 49 26 30 59 68 74
85 l27 30 1 -60 0 -61 -72 -43 c-61 -37 -72 -41 -80 -27 -5 9 -16 16 -23 16
-8 0 -15 2 -15 5 0 2 38 82 84 177 47 95 88 186 91 201 11 41 15 29 21 -61z
m1018 -119 c16 -95 23 -179 15 -187 -4 -5 -4 -16 1 -26 5 -9 8 -37 6 -63 -1
-28 1 -44 7 -40 15 9 1 -176 -18 -251 -9 -33 -20 -77 -26 -97 -5 -20 -9 -45
-9 -56 0 -11 -8 -27 -17 -34 -10 -8 -14 -9 -10 -2 8 12 16 128 21 273 1 54 8
97 18 118 9 17 13 32 8 32 -11 0 -19 113 -9 126 5 6 6 13 4 16 -9 9 -14 228
-5 228 4 0 11 -17 14 -37z m-2267 -52 c60 -16 169 -43 243 -60 141 -33 210
-57 210 -74 0 -5 -7 -4 -15 3 -13 11 -15 8 -15 -15 0 -23 2 -26 15 -15 16 13
20 3 9 -24 -3 -8 -12 -12 -21 -9 -13 5 -14 -2 -8 -45 6 -48 5 -51 -17 -56 -70
-13 -448 -55 -508 -56 -15 0 -20 -3 -13 -8 14 -9 175 2 374 26 81 10 152 16
158 14 16 -5 15 -138 -1 -149 -20 -12 -450 -194 -475 -200 -17 -4 -24 2 -36
29 -14 32 -30 90 -41 153 -12 66 -17 315 -8 385 10 72 26 130 37 130 2 0 53
-13 112 -29z m650 -73 c66 -41 103 -69 103 -80 0 -23 -5 -22 -93 3 -39 11 -90
25 -112 30 -22 6 -44 14 -48 18 -5 5 -11 37 -13 71 l-4 62 32 -21 c18 -11 79
-49 135 -83z m-905 -121 c53 -81 68 -144 33 -139 -11 2 -42 4 -70 5 l-50 2 -5
53 c-3 30 -3 55 1 58 4 2 10 21 14 41 13 72 18 70 77 -20z m893 26 c102 -26
110 -30 110 -53 0 -26 -24 -35 -110 -42 l-40 -3 -6 50 c-5 44 -6 46 -9 15 -1
-19 -2 -42 -1 -52 1 -12 -9 -18 -39 -23 -23 -4 -43 -5 -44 -3 -2 1 -6 36 -9
77 -6 72 -6 73 16 68 12 -3 72 -18 132 -34z m357 -13 c70 -20 88 -85 42 -152
-15 -21 -34 -39 -43 -39 -26 -2 -46 2 -49 10 -1 5 -13 6 -26 4 -19 -4 -26 2
-41 33 -24 50 -8 106 38 134 37 23 32 23 79 10z m256 -114 l3 -39 -33 8 c-18
4 -44 10 -57 13 -16 3 -22 1 -17 -6 4 -6 23 -14 44 -18 20 -4 43 -11 50 -17
14 -11 16 -67 2 -67 -6 0 -35 16 -65 37 -31 20 -58 34 -61 31 -3 -3 22 -22 55
-43 34 -20 66 -45 71 -55 12 -22 13 -70 3 -69 -5 0 -39 35 -76 76 -48 53 -66
80 -62 92 4 9 9 33 12 53 5 36 7 37 52 41 74 6 76 5 79 -37z m-501 2 c-2 -12
-10 -25 -18 -29 -8 -3 -30 -13 -49 -22 -19 -8 -60 -28 -90 -42 -30 -15 -66
-31 -80 -35 -25 -7 -25 -7 -25 54 l1 61 39 6 c51 9 55 6 56 -39 0 -29 2 -33 8
-17 5 11 7 30 5 42 -5 27 11 32 123 40 29 3 32 0 30 -19z m-3 -89 c-1 -47 -8
-54 -246 -227 -17 -12 -18 -8 -17 70 1 50 4 73 8 58 4 -15 10 -20 14 -13 4 6
4 18 1 27 -4 11 15 25 83 57 48 23 99 47 113 54 40 21 45 17 44 -26z m455
-118 l46 -54 2 -106 3 -106 -19 40 c-11 22 -34 74 -52 115 -42 95 -75 146 -83
128 -3 -7 -3 -3 0 10 8 30 -15 89 -27 70 -7 -10 -9 -9 -9 4 0 9 6 18 12 20 13
5 47 -28 127 -121z m-1391 42 c7 -43 15 -93 18 -111 6 -28 4 -32 -12 -26 -18
5 -18 5 -2 -6 22 -14 41 -47 33 -60 -3 -5 -20 -3 -40 6 -19 8 -48 14 -64 14
-34 0 -46 14 -43 51 2 19 -3 28 -18 32 -15 4 -19 12 -17 36 2 37 13 40 28 7 6
-13 27 -32 47 -42 55 -28 60 -28 25 -3 -46 34 -48 50 -13 108 16 29 30 56 30
61 0 6 4 10 8 10 4 0 13 -35 20 -77z m1223 25 c1 -38 -17 17 178 -553 46 -132
107 -312 136 -400 29 -88 65 -191 79 -230 13 -38 47 -133 74 -210 27 -77 61
-169 76 -204 14 -36 26 -66 26 -68 0 -3 -14 -3 -32 -1 -30 3 -33 7 -61 88 -16
47 -44 132 -62 190 -18 58 -74 227 -124 375 -134 397 -214 641 -266 809 -26
82 -53 162 -61 178 -17 33 -12 48 17 48 13 0 19 -7 20 -22z m-101 2 c0 -6 -9
-45 -21 -88 -11 -42 -34 -129 -50 -193 -16 -64 -42 -157 -58 -205 -40 -124
-59 -190 -82 -286 -11 -46 -24 -90 -28 -98 -5 -9 -12 -31 -16 -50 -4 -19 -13
-39 -20 -45 -7 -5 -17 -42 -23 -81 -7 -39 -18 -93 -27 -120 -22 -71 -71 -272
-97 -395 l-23 -107 -44 -6 c-24 -3 -45 -5 -47 -3 -1 1 10 40 26 87 94 284 225
696 260 820 23 80 61 208 85 285 23 77 59 203 80 280 51 194 58 215 72 215 7
0 13 -5 13 -10z m-184 -84 c-3 -45 -10 -70 -23 -83 -10 -10 -26 -30 -36 -43
l-18 -25 4 27 c2 16 0 25 -5 22 -6 -4 -8 -18 -5 -32 3 -18 -5 -41 -30 -79 -40
-59 -48 -64 -48 -30 -1 12 -4 57 -8 99 l-8 77 75 55 c41 30 77 59 81 65 16 27
24 6 21 -53z m-1180 24 c30 0 37 -13 61 -105 29 -110 37 -165 24 -165 -12 0
-31 -63 -31 -106 0 -39 22 -58 65 -57 20 1 39 -6 47 -16 20 -23 88 -138 88
-147 0 -4 21 -34 46 -66 40 -52 44 -61 31 -71 -9 -7 -21 -24 -26 -39 -15 -41
1 -75 45 -93 46 -19 68 -19 84 0 18 21 44 19 66 -6 10 -12 45 -39 76 -60 69
-48 73 -53 54 -81 -24 -34 -19 -66 14 -99 24 -25 37 -30 67 -27 33 3 41 8 56
40 l18 37 72 -25 c40 -15 76 -30 80 -34 5 -4 -16 -90 -47 -191 -30 -101 -63
-210 -71 -241 l-16 -58 -59 0 c-73 0 -89 -6 -83 -31 14 -51 -49 -24 -140 60
-28 26 -36 30 -31 16 14 -40 -161 128 -235 225 -152 200 -229 380 -270 636
-11 71 -23 139 -25 152 -9 43 12 21 23 -25 25 -100 32 -125 37 -121 2 3 -12
67 -32 144 -32 124 -36 157 -41 309 -6 184 1 275 20 256 6 -6 21 -11 33 -11z
m858 -23 c0 -9 -1 -48 -2 -87 l-2 -69 -122 -90 c-170 -125 -207 -155 -208
-163 0 -4 72 44 159 107 87 63 163 115 169 115 15 0 3 -355 -14 -395 -7 -18
-6 -18 9 -7 14 12 17 11 21 -10 29 -142 38 -166 83 -225 31 -43 21 -42 -33 2
-24 20 -60 46 -81 58 -59 35 -314 273 -336 313 -35 65 -120 195 -124 191 -2
-3 18 -41 46 -86 55 -88 62 -104 31 -76 -36 33 -83 115 -86 153 -2 20 -6 51
-10 68 -5 28 -3 32 23 37 28 6 397 156 430 176 25 15 48 9 47 -12z m595 -134
c24 -78 72 -226 107 -329 35 -102 64 -194 64 -204 0 -38 -184 -54 -225 -20
-13 10 -15 64 -15 330 0 305 5 391 20 373 4 -4 26 -72 49 -150z m-457 25 c0
-13 1 -29 1 -36 -1 -7 3 -43 7 -79 7 -54 6 -71 -7 -87 -14 -20 -15 -19 -10 13
3 29 2 32 -9 17 -18 -26 -26 -4 -27 75 -1 38 -4 64 -8 57 -4 -7 -6 -68 -6
-135 1 -84 -3 -127 -11 -135 -9 -9 -12 19 -12 131 l0 143 29 29 c35 35 50 37
53 7z m174 -20 c-9 -12 -16 -36 -16 -53 0 -16 -22 -75 -49 -130 -63 -128 -91
-191 -91 -209 0 -8 -6 -16 -13 -19 -6 -2 -21 -29 -31 -58 -27 -78 -33 -78 -32
-3 1 46 -3 69 -11 71 -29 10 -6 74 50 143 24 29 27 31 22 12 -4 -13 -4 -45 0
-70 7 -41 9 -44 15 -22 4 14 6 48 5 75 -3 50 1 59 62 156 12 19 27 39 32 46 6
7 16 24 23 38 6 14 15 25 19 25 4 0 11 10 15 23 4 12 9 16 11 10 3 -7 -3 -23
-11 -35z m-915 -35 c44 -15 72 -49 75 -93 1 -8 10 -35 22 -60 11 -25 19 -46
18 -48 -2 -1 -24 7 -49 18 -48 21 -62 51 -36 77 6 6 8 21 4 33 -5 17 -9 19
-21 9 -11 -9 -12 -14 -3 -19 16 -11 -7 -50 -29 -50 -26 0 -56 24 -50 40 2 8
-4 22 -14 32 -25 25 -34 68 -17 79 15 9 27 7 100 -18z m1114 -238 c0 -146 -2
-265 -6 -265 -14 0 -70 70 -89 112 -23 53 -22 61 35 253 13 44 29 99 35 123 6
23 14 42 18 42 4 0 7 -119 7 -265z m-179 188 c-4 -21 -9 -56 -11 -78 -6 -57
-53 -246 -85 -340 -15 -44 -35 -106 -45 -137 -9 -32 -21 -60 -26 -63 -11 -7
-33 46 -48 113 -10 47 -9 57 14 106 14 30 25 59 25 64 0 5 7 16 16 23 15 12
16 10 11 -16 -4 -17 -9 -48 -13 -70 -4 -22 -11 -48 -16 -58 -12 -24 0 -106 13
-86 5 8 9 26 9 41 0 14 4 28 10 30 5 2 11 26 12 54 2 33 7 50 14 47 15 -6 24
56 10 65 -27 17 -13 73 53 214 23 48 41 96 41 107 0 12 5 21 11 21 8 0 9 -12
5 -37z m-951 -114 c4 -13 16 -19 36 -19 41 0 79 -21 122 -69 42 -47 46 -66 16
-74 -28 -8 -121 3 -136 15 -7 6 -16 33 -19 62 -4 28 -9 45 -11 39 -3 -7 -9
-13 -14 -13 -11 0 -41 69 -34 81 9 13 34 -1 40 -22z m207 -224 c4 -22 7 -63 7
-90 1 -29 8 -60 17 -73 9 -13 13 -26 10 -29 -6 -7 -50 38 -95 97 -14 19 -34
41 -44 48 -18 14 -47 63 -47 81 0 5 31 9 72 8 l73 -2 7 -40z m147 -76 c84 -83
119 -124 111 -129 -9 -5 -5 -10 11 -15 44 -13 59 -35 59 -84 0 -33 3 -42 10
-31 5 8 7 22 5 30 -2 8 0 22 5 29 7 13 23 8 92 -27 46 -23 91 -42 101 -42 10
0 17 -7 17 -17 0 -20 -33 -129 -42 -138 -7 -7 -138 55 -138 66 0 5 6 9 13 9 6
1 0 8 -15 16 -16 8 -28 19 -28 24 0 6 -8 5 -19 -1 -14 -10 -26 -8 -57 8 -21
11 -56 29 -77 39 -45 22 -147 101 -147 113 0 4 19 5 42 1 24 -5 47 -6 52 -3 5
4 15 -2 23 -12 12 -17 13 -17 13 -2 0 13 7 17 26 15 15 -2 29 3 31 10 5 12
-45 17 -133 13 -40 -3 -42 -1 -55 36 -22 67 -40 214 -26 213 1 0 58 -55 126
-121z m661 10 c0 -15 4 -31 10 -34 14 -9 37 -66 38 -95 1 -13 -4 -30 -10 -37
-7 -9 -7 -13 1 -13 6 0 11 5 11 10 0 6 5 10 10 10 6 0 10 -11 10 -25 0 -14 -6
-25 -12 -25 -17 1 -43 21 -51 40 -4 10 -6 9 -6 -6 -1 -12 6 -25 15 -28 13 -5
14 -9 4 -21 -11 -13 -10 -14 3 -9 15 5 15 3 0 -27 -9 -18 -18 -28 -21 -21 -8
24 -24 12 -18 -13 4 -14 4 -25 2 -25 -8 0 -60 24 -83 38 -20 13 -21 15 -7 50
8 20 19 46 24 57 9 18 32 120 47 204 6 31 7 33 20 16 7 -11 13 -31 13 -46z
m1356 -124 c-25 -120 -34 -150 -90 -289 -100 -247 -221 -407 -397 -526 -38
-25 -44 -27 -47 -12 -2 9 -9 31 -17 47 -12 28 -105 294 -105 301 0 2 7 4 15 4
9 0 15 9 15 25 0 14 -4 25 -10 25 -5 0 -10 -4 -10 -10 0 -21 -18 -9 -30 20
-12 30 -6 55 8 35 7 -10 48 -35 57 -35 15 0 2 40 -17 53 l-23 16 24 19 c13 11
62 38 108 61 l84 42 30 -25 c34 -28 99 -36 117 -13 15 18 42 99 36 109 -3 5
-14 6 -24 3 -31 -10 -30 21 3 61 50 61 99 116 136 151 30 28 39 31 81 28 42
-3 49 -1 56 18 15 45 15 -35 0 -108z m-383 63 c-4 -7 -8 -47 -8 -88 0 -74 0
-75 -25 -74 -42 2 -114 12 -137 20 -25 7 -31 24 -9 24 8 0 49 29 93 64 76 63
103 79 86 54z m-590 -40 c2 -7 -7 -30 -20 -50 -12 -21 -23 -41 -23 -46 0 -11
-91 -98 -117 -111 -12 -6 -30 -11 -39 -11 -15 0 -13 5 9 28 15 15 27 35 27 43
0 8 6 21 12 27 10 10 10 15 -2 22 -8 5 -18 10 -22 10 -12 0 -10 -18 2 -25 16
-10 -28 -65 -52 -65 -16 0 -19 -5 -14 -23 4 -18 1 -23 -15 -23 -13 0 -18 5
-14 14 3 8 0 20 -6 28 -7 9 -7 18 1 33 15 28 22 26 14 -4 -4 -15 -2 -25 5 -25
6 0 11 5 11 10 0 6 7 10 15 10 18 0 20 17 3 22 -9 3 -9 8 0 19 44 53 62 69 78
69 11 1 30 7 44 15 14 8 35 14 46 15 12 0 24 7 28 15 7 18 23 20 29 3z m362
-138 c-8 -16 -15 -39 -15 -50 0 -12 -7 -37 -16 -56 -17 -35 -14 -52 5 -40 13
8 31 71 31 107 0 16 7 30 18 35 15 7 212 13 212 6 0 -1 -19 -19 -41 -40 -43
-38 -194 -123 -261 -146 l-37 -13 -11 36 c-6 20 -15 45 -20 56 -20 49 -20 52
23 65 23 7 44 15 47 19 5 6 72 50 78 51 1 0 -4 -13 -13 -30z m-266 -127 c19
-42 43 -114 39 -119 -2 -2 -24 -4 -48 -6 -30 -2 -44 1 -43 8 1 7 -6 10 -18 7
-11 -3 -27 1 -37 9 -38 34 -122 88 -122 79 0 -5 24 -26 53 -47 28 -21 54 -41
57 -45 3 -3 14 -10 24 -16 18 -10 17 -12 -16 -21 -43 -12 -88 -5 -88 14 0 7
-5 16 -10 19 -7 4 -9 -2 -5 -18 6 -23 4 -25 -47 -31 -29 -3 -85 0 -124 7 -78
13 -78 15 -8 60 21 13 51 36 66 50 28 26 67 37 218 61 47 8 88 14 91 15 3 1
11 -11 18 -26z m-426 -18 c59 0 107 -3 107 -7 0 -5 -4 -8 -9 -8 -5 0 -35 -20
-67 -45 -31 -25 -62 -45 -68 -45 -5 0 -31 18 -57 40 -70 59 -79 48 -12 -15 48
-46 54 -55 33 -51 -172 32 -160 27 -154 55 19 88 21 89 72 83 26 -4 95 -7 155
-7z m547 -342 c36 -111 68 -205 73 -209 27 -27 -7 -29 -483 -32 -270 -2 -490
1 -490 5 0 14 78 314 83 319 2 3 15 1 28 -4 48 -19 106 30 74 62 -8 8 -15 17
-15 19 0 12 74 15 155 7 50 -6 117 -13 150 -16 33 -4 65 -12 70 -19 6 -7 20
-15 33 -19 32 -11 30 -46 -4 -46 -29 0 -64 16 -64 30 0 6 7 10 16 10 8 0 12 5
9 10 -3 6 -15 10 -27 10 -18 0 -20 -4 -14 -32 13 -66 85 -90 131 -43 30 29 32
55 5 55 -11 0 -20 5 -20 10 0 6 7 10 16 10 10 0 14 6 10 15 -5 15 24 26 118
44 26 5 50 11 53 15 17 17 32 -15 93 -201z m84 -281 c77 -1 136 -5 132 -9 -4
-5 -11 -8 -14 -8 -4 0 -43 -15 -86 -34 -44 -18 -102 -39 -130 -47 -65 -18
-331 -64 -373 -64 -25 0 -31 -4 -27 -15 8 -19 -28 -19 -246 0 -312 27 -301 25
-365 60 -34 17 -72 35 -85 39 -14 3 -38 17 -54 30 -61 50 -53 51 553 51 306 0
619 -1 695 -3z m-1244 -107 c36 -17 86 -38 113 -45 26 -7 49 -16 51 -19 2 -3
-56 -6 -130 -6 l-134 0 0 26 c0 15 -3 41 -6 59 -7 31 -6 32 17 25 13 -4 53
-22 89 -40z"/>
<path d="M13260 7955 c0 -24 -2 -24 -47 -18 -84 13 -1043 0 -1066 -14 -4 -2
-5 -8 -2 -13 3 -5 -2 -29 -10 -54 -24 -70 -64 -239 -59 -247 2 -4 0 -10 -6
-14 -5 -3 -10 -13 -10 -21 0 -8 5 -12 10 -9 16 10 11 -21 -5 -35 -13 -11 -13
-15 -3 -21 10 -7 10 -9 -1 -9 -8 0 -11 -7 -8 -19 3 -11 -1 -28 -8 -38 -7 -10
-11 -30 -9 -46 1 -15 -2 -25 -7 -22 -5 4 -10 -3 -10 -14 -5 -71 -10 -101 -42
-246 -14 -60 -28 -130 -32 -155 -4 -25 -18 -91 -32 -148 -13 -56 -28 -126 -33
-155 -28 -167 -44 -246 -71 -367 -37 -167 -40 -173 -34 -80 5 86 2 77 -26 -75
-42 -225 -121 -603 -149 -715 -19 -74 -38 -181 -45 -255 -4 -38 -11 -88 -17
-110 -6 -22 -18 -76 -28 -120 -10 -44 -36 -152 -60 -240 -36 -138 -62 -249
-99 -430 -5 -22 -20 -84 -34 -137 -23 -82 -45 -189 -62 -298 -2 -14 -19 -81
-38 -150 -19 -69 -39 -150 -45 -180 -6 -30 -21 -100 -34 -155 -15 -66 -23
-134 -23 -200 -1 -55 -6 -113 -13 -128 -7 -16 -12 -32 -12 -37 0 -5 -6 -10
-12 -13 -10 -3 -10 -7 -1 -17 17 -18 30 -5 37 40 3 22 10 40 15 40 11 0 21
-25 21 -50 0 -10 7 -31 15 -46 8 -16 15 -37 15 -47 0 -36 40 -107 69 -121 16
-9 31 -13 33 -11 3 3 67 8 144 11 132 6 182 12 118 16 -20 1 -15 3 16 7 67 9
270 1 245 -10 -11 -5 69 -6 189 -2 191 6 210 5 222 -11 11 -16 13 -16 19 3 3
12 10 21 14 21 5 0 14 27 21 60 7 33 17 63 21 66 4 2 6 10 3 17 -5 15 66 15
231 1 186 -16 421 -6 385 16 -8 5 -18 6 -22 4 -16 -10 -208 -13 -231 -4 -17 7
-11 9 30 9 28 1 55 5 58 11 4 6 -28 8 -87 4 -51 -3 -152 -6 -225 -7 l-132 -2
6 25 c3 14 7 27 9 29 2 2 40 -2 84 -9 55 -8 124 -10 213 -6 73 4 153 7 179 6
25 0 49 3 52 9 4 6 -66 10 -191 11 -109 1 -211 3 -228 5 -16 1 -45 3 -64 4
-19 0 -32 4 -28 7 3 3 129 5 280 4 176 0 278 3 282 9 4 7 -72 11 -222 12 -348
2 -331 0 -336 26 -3 16 1 23 12 23 11 0 12 3 4 8 -7 4 -11 19 -9 32 9 78 20
131 27 136 5 3 7 9 5 13 -3 4 0 25 5 47 5 21 12 48 14 58 2 11 7 53 11 95 4
42 10 81 14 86 13 18 42 164 34 176 -5 9 3 10 32 6 21 -4 177 -7 346 -7 l307
0 7 -45 c3 -26 13 -52 20 -60 17 -17 18 -29 2 -19 -8 5 -9 -5 -5 -36 3 -24 13
-47 21 -52 9 -5 16 -18 16 -29 0 -11 -4 -17 -10 -14 -5 3 -10 -1 -10 -9 0 -9
6 -15 13 -13 7 1 13 -10 14 -28 1 -20 0 -23 -4 -7 -2 12 -9 22 -15 22 -6 0 -7
-8 -3 -17 4 -10 13 -52 21 -93 8 -41 19 -102 25 -135 7 -33 12 -69 12 -80 0
-11 20 -50 44 -88 24 -37 43 -75 41 -84 -2 -9 6 -22 17 -27 12 -6 35 -27 53
-46 29 -32 31 -33 32 -13 0 39 -31 102 -61 123 -15 11 -31 30 -34 41 -4 12
-16 30 -26 40 -21 21 -16 44 6 35 10 -4 11 2 5 25 -8 26 -6 30 8 27 10 -2 17
-14 19 -29 2 -35 20 -100 32 -119 18 -26 24 -1 9 32 -9 18 -18 47 -21 63 -5
34 6 75 16 58 16 -26 80 -361 71 -374 -14 -24 47 -29 303 -24 147 3 378 2 512
-3 l244 -7 17 -60 c39 -138 61 -156 30 -24 -11 46 -25 107 -31 134 -6 28 -24
103 -40 169 -17 65 -28 120 -26 123 3 2 -1 16 -9 31 -14 28 -44 155 -88 372
-14 69 -44 204 -66 300 -21 96 -38 185 -35 198 2 12 0 22 -5 22 -9 0 -30 54
-30 78 0 13 3 12 13 -3 13 -16 14 -15 9 14 -3 23 -7 29 -13 20 -4 -7 -10 -11
-12 -9 -2 3 -16 68 -31 145 -15 77 -29 150 -32 163 -2 12 0 22 4 22 5 0 7 11
4 25 -2 14 -7 23 -11 21 -3 -2 -7 18 -8 46 -2 27 -7 58 -13 68 -5 10 -12 37
-14 59 -2 22 -9 47 -16 55 -6 9 -13 34 -13 56 -1 22 -6 40 -10 40 -5 0 -5 9
-2 20 4 12 2 20 -5 20 -6 0 -10 6 -8 13 4 22 -13 106 -23 113 -6 3 -9 16 -8
27 2 12 0 31 -4 42 -3 11 -8 31 -11 45 -22 110 -52 236 -85 355 -21 77 -44
163 -50 190 -7 28 -16 66 -21 85 -4 19 -11 55 -15 80 -4 25 -31 153 -60 285
-103 460 -137 620 -145 670 -4 28 -17 86 -28 130 -11 44 -29 118 -40 165 -11
47 -29 121 -40 165 -11 44 -25 109 -31 145 -7 36 -19 94 -27 130 -8 36 -17 76
-19 88 -2 13 -17 45 -32 70 -15 26 -37 63 -48 83 -11 20 -35 56 -52 79 -38 49
-42 70 -13 70 11 0 20 5 20 11 0 7 -10 9 -25 5 -20 -5 -26 -2 -31 19 -8 32
-24 32 -24 0z m-905 -51 c61 -3 291 -6 512 -5 l401 2 8 -23 c4 -12 24 -46 45
-75 22 -29 39 -55 39 -58 0 -3 11 -23 25 -45 14 -22 25 -43 25 -47 0 -5 -244
-7 -542 -6 l-542 1 -3 24 c-2 12 -4 39 -3 59 0 20 -4 47 -9 60 -7 18 -9 6 -10
-50 0 -40 -2 -75 -4 -78 -3 -2 -12 13 -22 34 -10 21 -37 77 -61 125 -23 48
-39 89 -36 92 3 4 19 4 36 2 17 -3 81 -8 141 -12z m-165 -117 c0 -5 21 -52 46
-105 l46 -96 -35 -140 c-32 -128 -72 -301 -83 -366 -11 -58 -25 -100 -35 -100
-6 0 -8 -9 -4 -20 3 -10 1 -30 -6 -42 -7 -13 -14 -34 -15 -48 -2 -14 -10 -54
-18 -90 -25 -117 -35 -164 -46 -235 -7 -38 -21 -104 -32 -145 -10 -41 -35
-156 -53 -255 -19 -99 -57 -274 -84 -390 -28 -115 -68 -295 -91 -400 -45 -211
-70 -321 -102 -440 -30 -115 -39 -139 -32 -85 5 33 3 42 -5 34 -13 -12 -20
-40 -25 -95 -5 -52 -17 -102 -27 -114 -4 -6 -4 -17 1 -25 6 -8 10 -19 10 -25
0 -5 -5 -3 -10 5 -7 11 -9 1 -9 -35 1 -27 -11 -97 -26 -155 -15 -58 -33 -132
-40 -165 -7 -33 -19 -87 -26 -120 -7 -33 -14 -64 -14 -70 -2 -20 -67 -291 -81
-335 -25 -79 6 106 36 215 34 125 76 345 79 410 1 20 4 26 10 17 5 -9 12 5 19
40 5 29 9 54 7 56 -1 1 -12 -17 -23 -40 -12 -24 -21 -37 -22 -30 0 7 5 23 11
34 16 29 23 118 10 118 -6 0 -11 11 -11 25 0 14 5 25 11 25 5 0 7 5 3 11 -3 6
0 15 7 20 11 7 11 9 1 9 -8 0 -10 5 -6 12 9 15 12 31 20 111 3 35 1 57 -4 53
-8 -5 -18 -68 -26 -156 -2 -33 -16 -54 -27 -43 -6 6 -3 44 6 94 21 109 24 119
39 119 13 0 48 123 37 128 -11 4 15 179 42 292 14 58 31 134 37 170 6 36 15
86 21 112 6 27 12 60 14 75 3 31 10 64 26 134 6 26 11 53 13 60 1 8 7 30 13
49 6 19 11 42 11 50 0 8 8 47 17 85 9 39 20 88 25 110 5 22 23 99 40 170 17
72 42 184 55 250 13 66 40 199 61 295 20 96 42 204 50 240 13 61 36 165 69
305 8 33 17 74 20 90 4 17 10 39 15 50 4 11 13 52 19 90 7 39 16 90 21 115 5
25 12 65 16 89 6 41 8 43 20 26 8 -10 14 -23 14 -28z m1248 -242 c23 -129 34
-179 82 -380 26 -110 51 -218 55 -240 9 -57 54 -240 66 -271 15 -41 28 -104
19 -99 -4 2 -20 39 -35 82 -39 112 -99 207 -185 294 -71 72 -174 139 -215 139
-8 0 -23 8 -33 18 -17 17 -55 31 -140 52 -68 17 -316 15 -393 -3 -75 -18 -230
-87 -212 -94 7 -3 -17 -25 -55 -51 -37 -25 -68 -49 -70 -54 -2 -4 -8 -8 -14
-8 -6 0 2 16 16 35 l27 34 -30 -17 c-17 -9 -32 -24 -35 -32 -3 -8 -29 -42 -57
-75 -28 -33 -71 -102 -96 -153 -25 -50 -48 -94 -52 -97 -4 -2 10 53 32 123 45
146 37 116 123 467 36 149 72 285 80 303 7 18 11 38 9 45 -10 27 15 42 77 47
35 3 279 6 543 5 l480 0 13 -70z m-432 -450 c49 -8 116 -25 149 -36 65 -24
180 -82 208 -107 16 -14 16 -17 2 -24 -8 -5 -39 -10 -68 -11 -57 -2 -58 -2
-182 91 -27 20 -43 28 -35 18 8 -11 50 -44 93 -74 43 -30 76 -56 74 -59 -2 -2
-56 -17 -118 -34 -185 -49 -400 -119 -463 -151 -68 -34 -46 -48 -175 105 -46
53 -85 97 -87 97 -13 0 5 -26 86 -124 84 -102 107 -138 78 -120 -7 5 -8 3 -3
-5 4 -7 -1 -22 -13 -34 -40 -44 -101 -199 -137 -346 -14 -58 -25 -82 -49 -104
-49 -45 -234 -187 -245 -187 -5 0 -12 18 -16 40 -4 22 -10 42 -15 45 -14 8
-22 80 -21 178 1 103 4 121 18 157 6 14 20 61 32 105 24 87 105 262 144 310
l25 29 43 -28 c24 -16 64 -46 89 -66 54 -45 152 -106 108 -68 -63 55 -159 129
-192 149 -20 11 -36 24 -36 29 0 9 122 94 190 133 85 48 219 88 320 97 52 4
98 8 101 9 4 0 46 -6 95 -14z m404 -199 c0 -8 6 -16 14 -19 20 -8 98 -115 92
-126 -3 -5 1 -12 10 -15 13 -5 46 -65 49 -91 3 -26 26 -95 34 -99 20 -13 38
-179 32 -295 -1 -24 -1 -24 -17 -5 -14 18 -15 18 -8 -6 4 -14 12 -28 18 -32 7
-5 6 -8 -3 -8 -8 0 -20 8 -27 17 -7 10 -15 15 -19 11 -3 -3 6 -17 21 -31 31
-29 36 -84 8 -104 -38 -28 -99 91 -273 527 -27 69 -61 151 -75 182 -14 32 -22
59 -17 62 9 6 88 32 116 39 36 8 45 7 45 -7z m-210 -136 c-5 -47 -12 -143 -16
-213 l-6 -128 -33 48 c-43 63 -116 130 -168 153 -77 33 -136 35 -231 6 -158
-49 -232 -139 -244 -298 -2 -38 -9 -68 -15 -68 -13 0 0 125 18 165 8 16 19 49
24 71 6 23 18 47 25 54 8 6 13 17 10 24 -8 22 38 68 95 94 80 37 535 189 543
182 4 -3 3 -44 -2 -90z m107 -127 c35 -87 76 -189 90 -228 14 -38 45 -110 70
-159 24 -48 43 -90 40 -92 -2 -2 -54 29 -115 70 -62 40 -133 84 -158 97 -44
23 -45 25 -40 64 3 22 11 127 18 232 7 121 16 189 21 184 6 -6 39 -81 74 -168z
m-343 -55 c64 -19 169 -129 190 -198 21 -71 20 -108 -5 -183 -47 -139 -159
-227 -294 -229 -87 -2 -191 62 -243 150 -25 43 -27 56 -27 147 1 83 5 109 24
153 27 60 111 143 162 159 47 15 143 15 193 1z m-937 -340 c-1 -163 36 -291
134 -465 12 -21 59 -108 104 -193 46 -85 109 -202 140 -260 32 -58 87 -159
123 -224 l65 -119 -17 -96 c-10 -53 -24 -103 -32 -112 -10 -11 -11 -18 -3 -26
9 -9 7 -33 -5 -94 -11 -57 -13 -86 -6 -93 5 -5 10 -21 11 -35 0 -25 1 -25 11
-4 9 19 18 21 97 21 48 0 97 3 109 7 29 9 84 -4 79 -18 -2 -7 2 -17 9 -24 17
-17 25 -16 18 2 -7 17 -3 18 20 9 9 -3 16 -12 16 -20 0 -11 13 -13 63 -8 75 8
86 9 115 19 18 6 20 10 10 16 -10 7 -9 9 4 9 9 0 20 -4 23 -10 3 -5 12 -10 18
-10 7 0 6 4 -3 10 -8 5 -10 10 -5 10 6 0 16 -5 23 -12 16 -16 198 -25 188 -10
-4 7 -28 10 -59 8 -40 -3 -59 1 -84 18 -42 27 -42 38 0 34 19 -2 31 -8 29 -15
-1 -7 1 -14 5 -14 5 -1 24 -3 43 -5 19 -2 43 -6 52 -8 10 -2 21 0 24 5 3 5 -5
9 -18 9 -13 0 -30 5 -38 11 -11 8 -5 9 23 4 43 -7 106 3 88 14 -6 4 28 6 76 5
67 -3 83 -1 69 8 -10 5 -38 8 -62 5 -24 -2 -41 -1 -38 4 6 10 -21 12 -53 3
-13 -4 -20 -10 -17 -15 3 -5 0 -9 -5 -9 -6 0 -11 5 -11 10 0 6 -22 9 -54 8
-30 -2 -52 0 -50 4 3 5 -2 8 -10 8 -18 0 -22 11 -40 135 -9 55 -18 116 -21
135 -18 118 -18 113 16 185 18 39 34 76 35 83 1 7 10 25 20 40 27 41 92 169
121 237 13 33 32 71 41 85 9 14 17 30 18 35 1 6 37 87 79 180 107 233 165 406
175 518 8 99 16 117 25 61 4 -22 15 -75 25 -119 30 -124 44 -199 41 -210 -8
-27 -7 -42 2 -60 6 -11 10 -23 9 -27 -1 -4 3 -20 9 -35 14 -35 39 -148 43
-188 4 -46 57 -248 68 -263 6 -7 8 -15 5 -19 -4 -3 -2 -14 4 -24 5 -11 12 -36
14 -57 2 -20 9 -52 14 -69 5 -18 7 -33 4 -33 -3 0 1 -7 8 -17 8 -9 13 -18 12
-19 -1 -2 -1 -9 2 -16 5 -18 46 -225 52 -265 7 -46 -4 -41 -17 8 -6 23 -13 39
-16 36 -10 -9 19 -97 31 -97 7 0 15 -7 18 -14 4 -10 1 -13 -9 -9 -23 8 -17
-23 9 -41 17 -14 18 -16 3 -11 -14 4 -17 1 -12 -11 3 -8 6 -25 6 -35 0 -11 4
-18 9 -15 5 4 7 -4 3 -16 -3 -14 -2 -19 6 -14 7 4 12 3 12 -3 0 -5 -4 -11 -10
-13 -5 -1 -7 -13 -4 -25 4 -13 9 -21 13 -19 4 3 7 -3 8 -12 2 -45 8 -70 14
-66 4 2 9 -3 13 -11 3 -8 1 -17 -4 -20 -6 -4 -10 -16 -10 -28 0 -18 2 -19 10
-7 5 8 10 11 11 5 1 -16 6 -38 14 -60 6 -17 5 -17 -5 -5 -9 12 -10 10 -4 -10
4 -14 11 -27 15 -30 5 -4 9 -27 10 -53 1 -26 5 -47 9 -47 6 0 30 -99 66 -275
9 -44 29 -136 45 -205 52 -221 57 -244 75 -325 9 -44 29 -134 45 -200 15 -66
37 -162 49 -212 11 -51 29 -116 40 -145 11 -28 18 -53 17 -55 -4 -4 -978 -6
-982 -1 -5 5 -84 442 -89 498 -2 19 -6 46 -9 60 -3 14 -8 52 -12 85 -4 33 -16
101 -27 150 -10 50 -23 117 -26 150 -7 53 -10 60 -27 56 -29 -5 -46 -5 -302 3
-128 3 -233 3 -233 -2 0 -4 -38 -9 -85 -11 -60 -2 -85 1 -85 9 0 8 -8 10 -22
5 -13 -4 -39 -9 -58 -11 -19 -2 -48 -6 -65 -8 -16 -3 -32 -5 -35 -5 -9 -1 -28
-52 -53 -142 -14 -47 -36 -116 -50 -155 -26 -72 -52 -166 -87 -319 -11 -49
-23 -96 -25 -102 -2 -7 -1 -13 4 -13 4 0 25 69 46 153 20 83 41 156 45 160 8
9 -6 -78 -14 -91 -2 -4 -7 -27 -11 -52 -4 -25 -8 -47 -11 -51 -2 -4 -6 -27 -9
-52 -3 -26 -12 -65 -21 -89 -8 -24 -12 -56 -9 -73 5 -24 4 -27 -5 -15 -10 13
-11 13 -7 -2 3 -9 1 -47 -5 -84 l-11 -67 -116 7 c-205 13 -235 17 -243 29 -6
9 -8 9 -8 -1 0 -7 -5 -10 -11 -6 -6 3 -136 7 -289 8 -153 0 -281 4 -284 7 -4
3 9 69 29 145 30 119 94 385 111 464 3 14 14 64 25 112 11 48 17 93 13 99 -4
7 -3 9 3 6 14 -9 23 39 10 52 -7 7 -7 14 1 23 5 7 13 37 16 67 3 30 11 70 16
90 19 68 60 252 65 287 2 19 7 38 9 43 3 5 8 36 10 70 3 33 10 69 15 78 8 14
10 7 5 -27 -4 -33 -2 -41 5 -29 13 20 32 94 45 179 3 19 10 50 15 67 6 22 6
35 -1 39 -7 4 -7 9 1 13 13 8 31 98 24 118 -3 7 0 13 7 13 7 0 10 7 6 15 -3 8
0 15 6 15 7 0 6 5 -2 15 -10 12 -10 15 0 15 7 0 10 8 7 20 -3 11 -1 20 5 20 5
0 6 5 3 10 -3 6 -1 10 5 10 7 0 10 7 6 15 -3 8 -2 15 3 15 4 0 8 14 9 31 0 17
5 36 10 42 6 7 12 32 15 57 8 61 21 129 46 230 28 110 62 258 67 290 4 22 13
72 20 109 1 7 16 68 33 135 17 66 39 166 50 221 11 55 22 107 24 115 3 8 11
54 18 103 7 48 13 87 14 87 2 0 2 -46 2 -102z m1211 58 c15 -8 71 -43 124 -78
53 -34 118 -76 145 -93 26 -16 48 -36 48 -43 0 -8 -102 -66 -230 -131 -126
-64 -288 -152 -360 -194 -71 -42 -136 -77 -145 -77 -8 0 -37 34 -64 75 -27 42
-80 106 -118 142 -38 38 -66 73 -64 80 3 7 -3 23 -13 36 -44 51 -101 132 -101
143 0 7 6 15 13 17 8 4 8 8 2 14 -18 15 -41 47 -27 39 9 -6 12 -1 8 17 -2 13
-1 30 4 36 10 17 22 -31 14 -54 -5 -12 -2 -16 12 -13 12 2 19 -4 21 -17 19
-113 77 -196 175 -251 46 -25 63 -29 128 -28 51 0 91 7 125 21 97 39 93 39 63
7 -31 -34 -131 -194 -125 -200 2 -3 37 43 77 101 40 59 97 133 127 166 29 33
60 74 69 91 27 52 54 139 54 175 0 38 1 38 38 19z m-788 -184 c39 -64 153
-217 240 -322 43 -52 78 -96 76 -97 -12 -13 -398 166 -389 180 3 6 1 7 -5 3
-10 -6 -70 14 -158 55 -46 20 -64 24 -64 11 0 -10 45 -33 160 -81 52 -21 133
-57 180 -79 47 -22 132 -59 190 -82 58 -23 110 -48 117 -54 15 -14 70 -1016
56 -1016 -7 0 -41 78 -37 83 3 2 -6 20 -19 40 -13 19 -30 49 -37 66 -7 17 -16
31 -21 31 -5 0 -9 4 -9 10 0 5 -20 40 -44 77 -24 37 -75 124 -113 193 -69 123
-194 341 -213 370 -5 8 -26 49 -47 90 -22 41 -72 138 -112 215 l-73 140 28 22
c16 12 79 60 139 107 61 47 114 84 120 82 5 -1 21 -21 35 -44z m1124 -119 c-9
-21 -22 -55 -30 -76 -7 -21 -20 -50 -28 -65 -8 -15 -38 -79 -66 -143 -28 -64
-77 -161 -108 -215 -32 -55 -79 -148 -106 -209 -54 -119 -122 -254 -160 -313
-50 -77 -158 -283 -162 -307 -3 -24 -17 -55 -24 -55 -4 0 -8 93 -9 208 -2 242
-8 419 -15 430 -2 4 -7 88 -10 186 -4 99 -9 182 -11 186 -13 21 251 172 578
331 27 13 72 36 100 51 29 15 55 27 60 27 4 1 0 -16 -9 -36z"/>
<path d="M5377 7933 c-29 -20 -41 -24 -46 -14 -6 9 -11 8 -21 -4 -11 -13 -10
-15 4 -9 27 10 18 -7 -21 -43 -40 -34 -53 -40 -53 -22 0 5 -5 7 -10 4 -6 -4
-7 -11 -4 -17 14 -23 -177 -188 -220 -188 -18 -1 -19 -2 -5 -10 14 -8 15 -17
6 -67 -11 -58 -13 -1146 -3 -1323 9 -153 11 -1628 3 -1949 -4 -172 -9 -386
-11 -475 -3 -88 -1 -152 3 -141 6 15 9 7 12 -30 4 -47 4 -118 0 -639 -1 -109
0 -200 1 -202 11 -10 217 -25 275 -20 42 4 72 3 75 -3 3 -10 443 -17 468 -7
60 23 190 33 201 14 7 -9 11 -10 17 -2 4 7 36 15 72 20 58 7 61 9 30 14 -19 3
-45 3 -57 -2 -29 -10 -30 5 -3 40 12 15 42 55 68 89 77 100 89 116 136 167 25
27 43 53 40 58 -3 5 -12 4 -20 -3 -8 -6 -14 -10 -14 -8 -9 73 -8 120 0 102 5
-13 11 -23 13 -23 5 0 -2 223 -8 238 -5 14 -14 752 -9 752 12 0 81 -161 115
-268 117 -365 212 -661 249 -777 23 -71 48 -150 55 -175 25 -84 62 -181 73
-192 22 -22 12 -28 -45 -28 -37 0 -54 -3 -47 -10 13 -13 590 -20 628 -7 21 7
30 6 37 -4 6 -10 11 -11 17 -3 14 22 502 48 533 29 5 -4 18 -23 29 -43 10 -20
20 -31 20 -24 4 35 3 70 -3 86 -5 12 7 36 39 77 25 32 47 59 50 59 9 0 -18
-45 -44 -72 -14 -15 -23 -31 -19 -34 9 -9 55 45 78 91 11 22 36 65 55 95 19
30 39 66 44 79 7 14 16 21 25 17 24 -9 8 46 -51 183 -30 68 -54 128 -54 133 0
5 -11 33 -25 61 -35 74 -219 540 -270 682 -23 66 -70 196 -105 288 -34 93 -60
177 -57 188 3 10 1 17 -4 13 -5 -3 -9 -2 -10 3 -3 42 -11 71 -25 101 -35 74
-106 238 -120 278 -9 25 -23 44 -35 47 -25 7 -24 29 1 52 24 22 38 14 15 -9
-9 -9 -11 -16 -5 -16 19 0 37 24 32 42 -2 9 6 27 19 40 13 13 50 54 82 90 31
36 85 95 120 130 34 36 77 92 95 126 35 66 29 87 -8 27 -36 -58 -42 -39 -7 25
31 58 55 81 42 40 -3 -11 -3 -20 2 -20 7 0 40 93 49 135 1 6 11 42 22 80 29
100 37 156 47 340 3 66 8 131 11 145 2 14 6 80 9 147 5 141 -12 269 -50 383
-14 41 -28 92 -31 112 -4 20 -11 36 -17 35 -10 -2 -62 131 -54 139 3 3 14 -14
26 -38 11 -24 21 -38 21 -32 0 18 -28 80 -42 96 -7 7 -29 44 -48 82 -19 38
-39 74 -45 80 -6 6 -33 38 -60 71 -40 48 -44 56 -22 42 28 -18 28 -18 19 0
-16 28 -110 114 -182 165 -85 59 -316 178 -405 207 -38 12 -79 30 -89 39 -11
9 -16 11 -12 5 10 -18 1 -17 -132 16 -186 47 -326 64 -507 62 -640 -7 -902 -6
-898 7 8 18 -8 14 -50 -15z m633 -36 c96 2 215 5 265 8 111 6 286 -10 383 -36
39 -11 76 -18 81 -14 5 3 12 1 16 -5 3 -5 20 -7 38 -5 26 4 28 3 7 -3 -30 -9
-19 -18 47 -36 27 -8 79 -26 117 -40 38 -14 71 -25 73 -23 2 2 -19 16 -47 31
-27 15 -50 30 -50 32 0 7 37 -4 85 -26 22 -9 56 -21 75 -25 19 -4 40 -11 45
-15 6 -4 69 -38 140 -75 129 -67 153 -83 242 -160 71 -61 226 -309 206 -328
-2 -3 1 -15 7 -27 6 -12 14 -34 16 -48 3 -15 12 -37 20 -50 9 -13 13 -30 10
-38 -3 -8 -2 -14 3 -14 11 0 51 -98 57 -141 3 -19 10 -52 15 -74 32 -125 36
-160 45 -324 7 -135 -10 -277 -31 -258 -7 7 -9 14 -4 15 6 3 6 9 0 16 -7 8 -7
24 -1 45 13 47 9 191 -6 191 -16 0 -21 -24 -18 -102 1 -42 -2 -67 -8 -65 -6 1
-12 -7 -13 -18 -1 -11 -4 -24 -6 -30 -2 -5 2 -20 9 -32 11 -20 10 -23 -4 -23
-10 0 -14 5 -10 15 3 8 1 15 -4 15 -13 0 -13 -37 0 -45 5 -3 7 -13 4 -23 -5
-13 -4 -14 4 -3 5 7 15 10 21 7 15 -10 14 -27 -1 -24 -7 2 -13 -8 -13 -24 -1
-14 -6 -33 -13 -41 -7 -7 -12 -25 -12 -38 0 -13 0 -35 1 -49 0 -13 5 -27 11
-31 6 -4 0 -14 -16 -24 -31 -21 -46 -13 -22 10 20 20 21 29 1 21 -9 -3 -15 0
-15 9 0 9 6 12 15 9 8 -4 15 -1 15 5 0 6 -6 10 -12 9 -17 -4 -20 74 -5 84 9 6
9 10 0 16 -15 9 -6 52 11 52 8 0 8 2 -1 8 -11 7 -21 72 -27 170 -2 29 2 46 11
49 7 3 10 9 7 14 -3 5 -10 6 -16 3 -6 -4 -8 -2 -5 3 4 6 -5 23 -18 37 -24 26
-26 61 -2 37 18 -18 25 -13 19 14 -3 19 3 32 22 50 31 29 33 45 6 52 -18 5
-26 28 -21 57 1 4 -2 13 -7 20 -5 6 -12 23 -16 39 -3 15 -11 27 -17 27 -6 0
-7 -5 -2 -12 4 -7 8 -61 8 -119 1 -98 -1 -105 -16 -90 -11 11 -19 39 -22 86
-7 84 -17 134 -28 141 -4 2 -6 11 -2 19 3 9 1 21 -4 28 -5 6 -16 32 -23 57
-20 63 -74 171 -115 231 -19 28 -35 55 -35 60 0 5 -7 9 -16 9 -9 0 -14 6 -11
13 5 14 -48 72 -66 72 -5 0 -14 7 -20 15 -43 55 -250 206 -348 252 -149 72
-400 139 -596 160 -143 15 -522 16 -808 1 -126 -7 -297 -15 -380 -17 l-150 -6
29 23 c41 31 180 151 244 210 l53 49 212 -8 c117 -5 291 -8 387 -7z m405 -291
c223 -34 340 -60 458 -105 132 -51 217 -91 264 -128 21 -16 52 -37 68 -47 33
-21 195 -184 195 -197 0 -5 5 -9 10 -9 6 0 10 -6 10 -12 1 -18 36 -58 50 -58
7 0 10 -7 6 -15 -3 -8 1 -18 8 -22 25 -14 75 -130 100 -230 73 -287 86 -347
76 -357 -4 -4 -6 -15 -3 -22 3 -8 1 -14 -3 -14 -5 0 -10 -11 -10 -25 -2 -21 1
-25 18 -19 20 6 20 2 16 -223 -3 -198 -5 -233 -21 -256 -15 -24 -16 -26 0 -20
12 5 14 3 7 -8 -5 -8 -9 -21 -10 -29 -1 -8 -2 -25 -3 -37 0 -14 -8 -23 -17
-23 -11 0 -14 5 -9 18 5 14 4 15 -6 5 -10 -10 -10 -16 -1 -25 7 -7 12 -20 12
-29 0 -55 -96 -300 -160 -405 -34 -57 -68 -97 -121 -142 -75 -63 -244 -182
-260 -182 -5 0 -9 -9 -9 -20 0 -14 -12 -25 -42 -38 l-43 -17 39 -5 c21 -3 42
-12 46 -20 10 -20 63 -143 117 -270 24 -58 66 -168 94 -244 27 -76 74 -196
105 -265 73 -164 116 -272 110 -278 -2 -2 -19 24 -38 59 -200 367 -348 645
-426 798 -52 102 -111 214 -132 250 -20 36 -53 94 -72 130 -20 36 -86 155
-147 264 -61 110 -111 201 -111 203 0 2 -11 21 -25 43 -28 45 -30 50 -14 50
18 0 81 86 111 150 55 120 78 258 72 440 -8 233 -65 380 -187 484 -28 24 -63
54 -77 66 l-25 22 38 -22 c21 -12 40 -20 43 -18 2 3 -19 18 -48 33 -45 25 -49
29 -32 37 17 8 17 8 -3 4 -12 -2 -48 7 -80 20 -80 32 -156 32 -371 -3 -18 -3
-35 -10 -39 -16 -3 -6 -1 -7 6 -3 7 5 23 5 37 2 21 -6 24 -11 19 -44 -14 -110
-22 -938 -10 -1087 7 -92 7 -181 0 -197 -10 -25 30 -32 147 -24 117 8 234 42
299 86 51 34 59 36 59 14 0 -9 8 -28 19 -42 10 -15 37 -64 60 -109 23 -46 43
-83 46 -83 7 0 -33 88 -81 176 -24 45 -40 85 -35 88 5 3 51 -72 102 -166 51
-95 118 -220 149 -278 32 -58 102 -190 156 -295 53 -104 140 -266 192 -360
397 -715 448 -815 545 -1060 100 -252 112 -285 103 -285 -3 0 -97 183 -209
408 -181 360 -366 720 -439 852 -14 25 -98 187 -188 360 -89 173 -167 320
-172 325 -14 16 1 -17 86 -185 82 -161 132 -258 322 -622 63 -120 236 -462
385 -760 150 -299 289 -574 311 -611 58 -99 55 -102 -77 -100 -61 1 -112 3
-115 4 -3 1 -13 2 -23 3 -20 1 -26 12 -80 126 -30 63 -43 80 -79 100 -39 22
-57 25 -177 28 -73 2 -157 1 -187 -3 -50 -6 -59 -11 -129 -81 -53 -52 -76 -82
-75 -97 1 -12 2 -41 1 -64 l-1 -43 -40 0 c-26 0 -40 5 -40 13 0 7 -47 155
-104 327 -235 711 -304 943 -327 1085 -14 95 -17 105 -14 49 3 -39 8 -86 12
-105 12 -60 -21 -18 -66 86 l-42 94 -4 151 c-3 148 -3 151 17 144 15 -4 19 -2
16 7 -3 8 -17 15 -33 17 l-28 4 6 -126 c4 -78 3 -126 -3 -126 -5 0 -27 32 -47
71 -41 75 -155 201 -176 193 -29 -11 -33 -41 -26 -219 3 -99 5 -506 3 -905
l-4 -725 -140 -3 c-159 -4 -152 -7 -211 79 -25 37 -50 61 -71 69 -46 18 -321
25 -376 11 -70 -19 -151 -106 -136 -145 3 -9 2 -16 -4 -16 -18 0 -18 9 -14
669 1 84 -1 157 -3 161 -9 14 373 757 530 1033 15 26 25 47 22 47 -6 0 -110
-182 -207 -360 -40 -74 -96 -178 -125 -230 -29 -52 -80 -149 -113 -215 -33
-66 -72 -140 -86 -165 l-26 -45 6 70 c7 74 35 136 154 340 29 50 72 124 95
165 89 159 199 348 245 425 26 44 101 170 165 280 65 110 149 252 186 315 37
63 71 124 75 135 11 30 -46 -49 -111 -156 -210 -343 -483 -802 -609 -1024 -82
-143 -160 -280 -175 -305 l-26 -45 -6 100 c-3 55 -4 222 -2 370 4 322 14 1551
14 1715 0 63 0 135 1 160 0 25 0 50 0 55 0 6 -3 188 -7 405 -4 217 -9 492 -11
610 -2 118 -5 226 -6 240 -2 17 2 25 12 25 8 0 20 3 25 6 6 4 48 2 95 -3 80
-9 270 -4 530 12 179 12 600 4 715 -14z m-32 -829 c99 -46 233 -208 271 -330
65 -206 34 -584 -52 -646 -71 -50 -333 -83 -324 -41 4 17 1 715 -3 860 -2 52
-6 116 -9 142 l-6 48 36 -5 c20 -2 59 -15 87 -28z m-308 -411 c4 -30 5 -75 3
-100 -3 -25 -1 -46 4 -46 5 0 6 -5 2 -12 -5 -8 -2 -9 9 -5 12 4 17 1 17 -9 0
-11 -6 -15 -19 -11 -19 5 -20 -1 -12 -55 1 -8 41 -11 41 -4 0 2 3 11 6 20 3 9
1 16 -5 16 -6 0 -11 -7 -11 -15 0 -8 -4 -15 -10 -15 -17 0 -11 21 12 40 16 13
29 15 44 10 12 -5 25 -6 28 -3 3 4 6 1 6 -5 0 -18 -20 -25 -35 -12 -13 11 -15
7 -15 -19 0 -17 5 -31 10 -31 6 0 10 8 10 17 0 9 3 13 7 10 3 -4 12 -2 20 4 8
7 13 8 13 1 0 -5 -7 -12 -15 -16 -8 -3 -15 -12 -15 -21 0 -8 -7 -15 -15 -15
-14 0 -19 -12 -16 -32 0 -5 -4 -8 -10 -8 -7 0 -10 12 -7 30 3 19 1 29 -6 27
-12 -4 -13 -15 -19 -279 -3 -147 -2 -188 8 -188 19 0 22 33 18 203 -3 108 -1
157 6 157 6 0 11 -6 11 -14 0 -7 10 -16 22 -19 17 -5 19 -9 10 -20 -7 -8 -9
-17 -5 -21 4 -4 0 -4 -9 -1 -12 5 -15 0 -15 -19 0 -17 5 -26 16 -27 10 0 11
-2 4 -6 -7 -2 -13 -9 -13 -15 0 -6 6 -8 14 -5 8 3 17 0 20 -8 3 -10 0 -12 -11
-8 -11 4 -14 2 -9 -5 4 -7 2 -12 -6 -12 -11 0 -11 -2 0 -9 9 -6 12 -22 8 -55
-5 -45 -5 -47 15 -41 32 10 21 -6 -55 -85 -74 -76 -89 -78 -81 -10 2 19 4 53
5 75 0 41 2 298 4 572 1 157 9 195 21 99z m1249 -1589 c46 -95 93 -192 104
-217 11 -25 44 -94 73 -155 29 -60 52 -118 51 -128 -1 -10 3 -26 8 -35 8 -13
9 -11 4 11 -5 21 -2 27 10 27 21 0 20 9 -3 34 -18 20 -103 209 -113 252 -3 12
-2 28 3 35 6 10 11 5 19 -15 6 -16 24 -57 40 -90 17 -33 30 -66 30 -73 0 -7 4
-13 8 -13 5 0 19 -20 32 -45 13 -25 25 -43 28 -40 3 2 -1 12 -8 20 -9 11 -10
19 -2 27 14 14 35 0 28 -19 -3 -8 -2 -11 3 -8 5 3 12 1 16 -5 3 -5 2 -10 -4
-10 -5 0 -5 -12 2 -30 6 -16 15 -30 21 -30 10 0 46 -39 46 -52 0 -4 32 -88 70
-185 39 -97 68 -183 65 -191 -2 -7 0 -10 5 -7 6 3 10 0 10 -7 0 -7 7 -26 16
-43 9 -16 24 -51 35 -77 10 -26 31 -75 48 -110 45 -98 121 -291 117 -296 -3
-2 -14 13 -25 35 -11 21 -20 32 -21 25 0 -21 48 -104 52 -90 3 8 12 0 21 -19
23 -43 21 -53 -4 -23 -17 20 -19 21 -14 5 5 -11 8 -30 9 -42 1 -25 16 -44 16
-20 0 9 4 18 9 21 23 14 -13 -93 -38 -114 -16 -13 -82 -102 -120 -159 l-41
-64 -15 36 c-8 20 -15 42 -15 49 0 7 -6 25 -14 39 -13 25 -24 61 -33 109 -2
14 -22 61 -44 104 -23 43 -42 89 -43 102 -1 13 -7 29 -13 36 -12 14 -55 132
-58 158 -1 8 -8 29 -17 45 -25 48 -109 255 -129 320 -11 33 -22 67 -26 75 -3
8 -5 21 -4 28 1 6 -2 12 -7 12 -6 0 -24 37 -42 83 -18 45 -41 101 -52 125 -10
23 -21 56 -25 72 -3 17 -9 30 -13 30 -4 0 -10 10 -13 23 -3 12 -19 60 -36 107
-17 47 -29 91 -26 98 3 7 -15 54 -40 104 -25 50 -45 97 -45 105 0 7 -4 13 -9
13 -10 0 -77 132 -86 171 -4 17 -1 30 9 38 18 16 18 16 37 -78 7 -36 21 -73
31 -83 10 -10 16 -23 13 -27 -2 -5 2 -15 11 -22 27 -23 117 -221 119 -264 2
-43 30 -115 49 -127 8 -6 8 -8 0 -8 -13 0 92 -271 109 -281 5 -4 7 -11 4 -16
-3 -5 3 -22 14 -39 10 -16 19 -40 19 -53 0 -15 5 -21 13 -18 9 3 26 -21 52
-74 21 -44 42 -82 47 -85 5 -3 -2 16 -15 42 -13 27 -28 60 -32 74 -4 13 -23
47 -41 73 -37 53 -41 67 -21 67 7 1 5 6 -5 14 -10 7 -18 18 -18 25 0 6 -4 11
-10 11 -5 0 -10 12 -10 26 0 14 -4 23 -10 19 -5 -3 -10 3 -10 14 0 11 -9 37
-20 58 -27 52 -50 133 -38 133 8 0 19 -22 59 -119 5 -13 12 -21 15 -18 3 2 -6
31 -19 63 -13 33 -30 80 -38 106 -7 26 -16 45 -20 42 -10 -6 -38 50 -59 121
-10 33 -21 69 -25 80 l-8 20 17 -20 c16 -19 17 -19 12 -1 -5 16 -4 17 8 7 8
-7 13 -24 12 -39 -2 -15 3 -36 10 -47 7 -11 13 -22 12 -25 -3 -14 25 -80 32
-75 4 3 11 -6 14 -20 4 -14 11 -25 16 -25 15 0 12 26 -5 40 -8 7 -15 18 -15
25 0 8 -5 15 -12 17 -6 2 -12 13 -13 24 -1 10 -9 33 -18 51 -19 37 -21 47 -7
38 21 -13 -1 50 -23 66 -5 3 -8 8 -7 10 4 8 -24 59 -32 59 -5 0 -8 6 -6 13 3
16 -92 210 -109 220 -17 10 -7 28 12 21 8 -3 52 -83 99 -177z m-1148 -895 c1
-31 5 -79 9 -107 3 -27 8 -88 10 -134 2 -46 8 -88 14 -94 11 -11 5 223 -8 269
-5 18 -6 35 -3 38 11 12 20 5 21 -16 2 -80 12 -193 22 -256 6 -41 8 -76 5 -80
-3 -3 -6 2 -6 11 0 9 -5 17 -11 17 -6 0 -7 -8 -3 -22 5 -13 7 -35 6 -50 0 -16
4 -28 10 -28 9 0 9 -3 0 -12 -14 -14 -16 -42 -2 -33 6 3 10 2 10 -3 0 -6 -6
-12 -14 -15 -9 -4 -13 -14 -9 -29 4 -23 4 -23 -11 -3 -9 11 -14 26 -10 35 12
31 13 116 1 143 -10 24 -12 8 -10 -100 1 -70 5 -170 9 -222 6 -92 7 -94 24
-71 15 20 16 27 3 68 -7 26 -11 51 -9 57 2 5 5 2 5 -7 2 -29 21 -31 21 -3 0
18 -6 29 -20 32 -11 3 -20 13 -20 22 0 14 2 14 10 1 5 -8 10 -11 10 -7 0 5 7
2 14 -6 8 -8 16 -36 17 -61 2 -26 6 -49 11 -52 14 -9 9 -20 -24 -58 -18 -19
-51 -58 -73 -85 -22 -28 -44 -50 -48 -51 -5 0 -5 5 -1 11 9 15 6 119 -4 133
-19 25 -30 183 -27 381 2 116 4 212 5 215 0 3 6 -4 12 -14 8 -15 8 -21 0 -24
-7 -2 -10 -8 -6 -13 3 -5 7 -94 9 -197 3 -213 14 -350 26 -331 4 7 5 17 2 22
-11 19 -12 627 -1 627 7 0 9 -35 6 -102 -3 -57 -1 -116 3 -133 4 -16 10 -59
14 -95 9 -97 17 -87 14 18 -2 50 -6 92 -11 92 -12 0 -10 64 3 77 7 7 8 17 2
29 -12 23 -18 292 -7 281 5 -4 9 -34 10 -65z m1291 -845 c37 -20 58 -48 67
-92 l7 -30 -20 24 c-25 33 -96 40 -295 32 l-156 -6 0 42 c0 52 -2 52 205 49
130 -1 166 -5 192 -19z m-1977 -67 c41 -6 77 -15 78 -20 2 -6 8 -8 12 -5 5 3
5 -9 0 -26 -5 -18 -8 -35 -5 -38 2 -4 -4 -16 -13 -27 -16 -19 -27 -19 -239
-16 -186 3 -221 6 -216 18 4 12 37 13 192 9 102 -3 201 -7 220 -11 25 -4 32
-2 29 8 -7 20 -105 29 -276 26 -83 -2 -152 -1 -152 2 0 15 35 53 59 62 21 9
121 21 216 26 11 1 54 -3 95 -8z m1972 -34 c25 -4 51 -12 56 -19 9 -11 52 -85
52 -90 0 -1 -42 -2 -92 -2 -51 0 -163 -3 -249 -6 l-155 -7 8 60 c4 33 10 63
12 66 6 9 309 8 368 -2z"/>
<path d="M6407 5273 c-23 -32 -26 -44 -22 -101 2 -38 9 -70 17 -79 17 -17 48
-7 48 16 1 14 2 14 14 -1 14 -19 72 -26 61 -8 -3 6 4 10 17 10 18 0 20 -2 8
-10 -12 -8 -10 -10 8 -10 13 0 20 4 17 10 -3 6 1 10 9 10 9 0 16 -4 16 -10 0
-5 9 -10 20 -10 52 0 41 105 -18 178 -34 42 -35 42 -102 42 -66 0 -67 -1 -93
-37z m214 -60 c7 -47 7 -73 1 -74 -4 0 -51 -1 -105 -1 -107 -2 -117 3 -117 55
l0 27 110 0 c61 0 111 -3 111 -7z"/>
<path d="M5925 5190 c-21 -4 -36 -16 -52 -45 -12 -22 -23 -43 -23 -47 0 -5 56
-8 124 -8 l124 0 0 -35 c0 -53 -24 -65 -133 -65 -100 0 -118 6 -115 41 3 39 1
51 -10 44 -15 -9 -12 -60 4 -100 17 -39 35 -45 43 -15 3 11 12 18 22 16 82
-16 92 -19 79 -27 -9 -6 -3 -9 17 -9 20 0 26 3 17 9 -10 6 -8 10 10 14 12 4
25 2 26 -3 2 -6 14 -10 26 -10 18 0 24 9 34 53 6 29 12 61 12 70 0 22 -34 89
-53 105 -20 17 -112 29 -103 14 4 -7 3 -12 -3 -12 -5 0 -11 4 -13 8 -1 4 -16
5 -33 2z"/>
<path d="M6590 4557 c-13 -7 -37 -31 -53 -55 -16 -23 -35 -42 -43 -42 -20 0
-20 -179 0 -219 8 -15 18 -51 22 -80 4 -35 13 -55 25 -61 30 -17 49 -11 59 16
8 21 15 25 33 20 12 -3 26 -6 31 -6 15 0 -16 -30 -33 -31 -9 0 -3 -6 14 -14
34 -15 194 -12 225 5 10 5 25 8 32 5 22 -9 56 36 62 80 2 22 8 50 11 62 5 14
-1 43 -15 77 -14 32 -20 61 -16 73 9 21 6 28 -13 28 -8 0 -29 27 -46 60 -45
82 -69 95 -180 95 -52 0 -100 -6 -115 -13z m263 -99 c9 -7 19 -25 22 -39 6
-25 4 -27 -37 -31 -47 -5 -250 1 -256 7 -3 2 -1 20 2 40 l7 35 123 0 c82 0
128 -4 139 -12z m70 -114 c28 -59 33 -121 11 -145 -15 -16 -29 -20 -76 -18
-56 2 -76 13 -40 22 9 3 1 5 -19 6 -20 0 -65 3 -100 6 -44 3 -56 2 -39 -4 14
-5 43 -10 65 -10 22 -1 46 -5 54 -10 10 -6 -27 -10 -101 -10 -78 0 -120 4
-126 12 -13 17 -53 160 -46 166 3 3 85 5 182 3 107 -1 183 2 192 8 22 15 25
13 43 -26z"/>
<path d="M5646 4490 c-40 -12 -74 -46 -102 -103 -20 -39 -29 -47 -44 -42 -23
7 -25 2 -8 -24 13 -21 11 -27 -32 -101 -21 -36 -27 -95 -11 -104 5 -3 12 -22
15 -41 8 -41 39 -63 62 -44 8 6 14 17 14 23 0 8 43 11 140 11 135 0 139 -1
149 -22 13 -28 59 -32 68 -5 3 9 13 26 22 36 11 14 12 17 2 11 -20 -11 -7 48
17 83 15 22 19 44 18 112 -2 78 -5 91 -34 139 -22 35 -44 57 -67 67 -38 15
-162 18 -209 4z m172 -86 c23 -5 34 -14 41 -37 20 -57 24 -56 -136 -51 -82 3
-154 7 -161 9 -9 4 -8 14 8 45 l20 40 99 0 c54 0 112 -3 129 -6z m-142 -110
c63 -4 126 -2 172 6 40 6 76 9 80 6 3 -4 -2 -28 -12 -54 -10 -26 -23 -68 -28
-94 -9 -41 -14 -47 -41 -51 -45 -6 -353 4 -367 13 -17 10 -14 88 3 109 8 9 22
31 32 49 13 28 21 33 39 28 13 -3 68 -9 122 -12z"/>
<path d="M8409 7947 c4 -4 45 -9 89 -10 45 -1 82 -3 82 -5 0 -12 -275 -287
-287 -286 -11 2 -12 -114 -9 -680 3 -374 8 -745 12 -822 9 -180 7 -188 -51
-203 -25 -6 -48 -18 -51 -26 -11 -28 6 -65 41 -88 19 -12 35 -25 35 -29 0 -4
-16 -28 -35 -54 -19 -25 -35 -54 -35 -65 0 -35 27 -73 69 -99 48 -29 45 -10
42 -284 -1 -147 -5 -184 -18 -207 -16 -27 -16 -29 1 -48 22 -25 22 35 12 -991
-4 -437 -7 -895 -8 -1017 l0 -223 -32 0 c-17 0 -38 -5 -46 -10 -11 -8 -8 -9
13 -4 33 7 80 -3 72 -16 -3 -5 -21 -9 -40 -8 -19 1 -38 -2 -42 -5 -3 -4 15 -7
40 -7 30 0 48 -4 48 -12 1 -7 3 -20 4 -28 1 -8 3 -27 4 -42 0 -16 6 -28 12
-28 7 0 10 21 7 58 l-3 57 255 7 c288 9 787 10 960 3 277 -12 485 -17 480 -13
-5 5 -169 17 -265 19 -45 1 -47 2 -20 9 17 5 228 11 470 14 530 7 501 5 497
31 -2 18 -1 18 10 4 15 -19 60 -31 82 -23 20 8 9 34 -14 34 -11 0 -22 5 -25
10 -4 6 6 10 23 10 21 0 31 -6 35 -20 3 -11 10 -20 17 -20 6 0 9 4 6 9 -9 15
22 34 46 28 12 -4 28 -1 35 5 9 7 13 7 13 -1 0 -7 5 -9 11 -5 6 3 22 0 37 -7
19 -11 26 -11 29 -2 2 7 10 10 17 7 7 -3 19 2 26 11 11 13 9 15 -14 15 -15 0
-37 6 -49 14 -26 18 -150 40 -177 33 -11 -3 -20 -1 -20 4 0 5 -8 9 -17 9 -9 0
-14 3 -10 6 3 3 64 6 136 7 72 0 129 3 126 6 -8 7 -30 10 -120 17 -44 3 -81 7
-83 9 -7 7 109 17 136 12 15 -3 43 -2 62 3 l35 8 -30 3 c-46 4 -209 9 -320 9
-77 0 -96 3 -87 12 7 7 30 11 53 10 26 -2 38 1 34 8 -4 6 15 10 54 10 52 0 60
-2 54 -17 -5 -13 -3 -15 13 -9 10 4 65 10 122 13 56 3 105 10 108 14 3 5 -3
10 -13 10 -46 3 -87 7 -201 18 -67 6 -127 9 -132 6 -5 -3 -11 -1 -15 4 -3 6 6
18 20 27 49 32 151 168 197 264 93 192 170 452 213 715 12 74 23 122 33 146 6
16 7 31 1 42 -7 11 -6 17 1 17 8 0 9 33 6 108 -8 165 -15 226 -43 372 -14 74
-26 142 -27 150 -1 9 -5 20 -8 25 -3 6 -9 26 -13 45 -4 19 -11 40 -15 45 -13
16 -70 123 -70 130 0 4 8 1 18 -6 21 -16 17 -10 -26 38 -19 21 -54 66 -78 101
-48 68 -50 88 -10 119 12 10 30 32 40 48 10 17 31 38 47 47 16 10 29 26 29 36
0 11 7 25 15 32 8 7 15 17 15 22 0 6 -28 37 -62 70 -54 52 -60 61 -45 69 9 6
17 18 17 27 0 9 9 31 19 48 10 17 22 45 26 64 6 28 3 36 -21 55 -21 17 -26 26
-18 36 5 8 11 28 13 44 4 39 4 39 38 20 l28 -17 -28 22 c-23 19 -27 27 -21 53
3 16 8 53 9 81 5 78 22 243 31 291 18 107 9 310 -18 378 -6 15 -12 39 -13 52
-2 13 -6 38 -10 57 -6 31 -5 32 10 14 8 -11 15 -14 15 -8 0 7 -9 21 -20 32
-11 11 -19 23 -18 28 0 4 -2 14 -5 22 -14 36 -36 108 -42 142 -4 20 -16 44
-26 54 -21 19 -26 49 -6 39 6 -4 1 3 -12 14 -13 12 -20 21 -16 21 10 0 -21 47
-73 108 -46 54 -41 57 28 19 27 -15 30 -15 15 -2 -11 9 -40 27 -65 40 -25 13
-73 51 -107 84 -63 60 -91 79 -238 158 -97 52 -83 56 28 8 87 -38 116 -40 46
-4 -69 35 -183 71 -169 54 8 -10 9 -15 2 -15 -6 0 -16 8 -21 19 -6 11 -30 23
-63 30 -29 6 -82 18 -118 26 -36 8 -78 17 -95 20 -16 4 -43 12 -60 20 -31 14
-44 16 -212 38 -71 9 -104 10 -108 3 -3 -8 -7 -8 -10 0 -4 7 -22 8 -58 2 -29
-4 -81 -5 -117 -2 -98 9 -1080 10 -1071 1z m911 -43 c135 -4 282 -7 327 -9 46
-1 85 -4 88 -7 3 -3 28 -3 55 -1 41 3 49 1 44 -12 -7 -17 11 -21 21 -5 4 7 11
8 18 2 18 -14 87 -20 88 -7 0 5 3 4 6 -2 2 -7 13 -13 23 -13 10 0 21 -4 25 -9
3 -5 18 -9 33 -9 47 1 222 -53 325 -101 37 -17 72 -31 76 -31 5 0 11 -3 13 -8
2 -4 28 -24 59 -44 68 -45 218 -201 256 -266 15 -26 42 -68 60 -94 19 -25 41
-68 49 -95 9 -26 20 -57 24 -68 18 -40 50 -172 54 -222 4 -40 -10 -44 -17 -5
-14 67 -21 88 -36 99 -13 10 -14 14 -3 21 11 7 9 10 -7 15 -12 3 -21 10 -21
17 0 6 5 8 10 5 6 -3 10 -1 10 5 0 7 -6 10 -14 7 -8 -3 -17 1 -20 10 -4 9 -9
14 -11 11 -3 -3 2 -19 11 -37 9 -18 14 -35 11 -38 -3 -3 -21 27 -41 65 -19 39
-30 72 -25 74 6 2 1 13 -10 24 -10 12 -26 35 -35 51 -9 18 -29 35 -47 42 -22
8 -30 15 -25 26 3 9 2 13 -4 10 -5 -3 -34 12 -63 33 -29 22 -80 54 -114 70
-33 17 -80 44 -105 61 -43 29 -197 95 -204 88 -2 -2 49 -30 114 -61 136 -67
202 -107 251 -154 20 -18 47 -35 60 -39 26 -6 61 -37 61 -53 0 -5 4 -10 9 -10
7 0 44 -65 46 -80 0 -3 10 -18 21 -35 12 -16 36 -61 53 -100 18 -38 36 -77 40
-85 5 -9 12 -31 15 -50 5 -26 -3 -16 -31 40 -116 225 -214 338 -401 462 -258
170 -456 241 -707 253 -112 5 -1156 -10 -1301 -20 -28 -1 -57 0 -63 5 -9 5 22
41 94 111 64 62 113 119 122 141 l15 37 236 -4 c131 -3 347 -8 482 -11z m-872
-297 c28 0 52 -2 52 -5 0 -4 278 -7 617 -7 519 0 635 -3 723 -17 262 -40 495
-133 655 -262 77 -61 154 -137 184 -181 50 -73 131 -240 152 -315 7 -25 16
-49 20 -55 10 -15 42 -125 45 -160 2 -16 6 -82 9 -145 3 -63 8 -127 11 -142 7
-33 8 -33 -51 -7 -45 20 -49 20 -89 5 -51 -20 -56 -20 -56 -2 0 8 -9 17 -19
21 -11 3 -22 12 -25 20 -7 19 -57 19 -82 0 -10 -8 -14 -15 -8 -15 5 0 16 6 24
13 8 6 6 2 -4 -10 -19 -22 -53 -33 -41 -13 9 14 -1 12 -17 -3 -7 -7 -30 -25
-50 -41 -21 -16 -38 -32 -38 -37 0 -15 25 -10 46 9 10 10 26 21 34 25 8 4 32
18 53 32 20 14 37 21 37 15 0 -5 -4 -10 -10 -10 -5 0 -10 -5 -10 -11 0 -6 7
-9 15 -6 8 4 17 2 21 -4 3 -5 14 -7 25 -4 11 4 19 2 19 -6 0 -8 13 -10 48 -4
74 12 112 9 140 -12 28 -21 37 -59 19 -81 -5 -7 -11 -33 -12 -57 -1 -32 -8
-51 -26 -69 -13 -13 -29 -30 -35 -38 -6 -7 -26 -25 -45 -40 -19 -15 -29 -27
-22 -28 7 0 28 14 46 30 34 29 65 41 52 19 -4 -6 2 -17 13 -25 20 -14 20 -16
6 -62 -9 -26 -20 -64 -25 -85 -16 -65 -98 -217 -140 -259 -21 -22 -39 -45 -39
-52 0 -7 -3 -15 -6 -19 -9 -9 -34 4 -34 18 0 7 -6 15 -12 18 -8 2 -9 8 -4 13
5 5 11 4 13 -3 7 -21 20 -15 58 24 42 43 44 51 8 28 -22 -13 -20 -9 10 20 37
37 38 38 18 52 -20 13 -20 16 -5 41 9 16 -2 7 -28 -21 -56 -60 -111 -90 -134
-72 -13 9 -14 14 -5 19 7 5 15 6 18 3 5 -6 86 50 121 84 12 12 20 24 18 27 -3
2 -13 -4 -23 -13 -11 -11 -18 -14 -21 -6 -4 12 -118 -63 -132 -88 -7 -13 -11
-14 -22 -3 -11 11 -8 18 17 38 17 13 33 24 38 24 10 0 68 52 63 57 -7 7 -90
-38 -118 -64 -24 -23 -29 -24 -62 -13 -38 12 -46 24 -21 34 11 4 14 13 10 29
-5 17 3 33 29 62 38 41 41 62 3 27 -21 -20 -67 -42 -88 -42 -6 0 18 23 52 51
40 34 57 54 49 59 -8 5 -7 9 5 14 9 3 13 10 10 16 -4 6 -15 2 -27 -10 -12 -11
-26 -20 -30 -20 -5 0 -34 -16 -64 -35 -30 -19 -64 -35 -77 -35 -20 0 -19 2 8
19 17 11 61 44 99 74 39 30 75 53 81 51 13 -5 99 75 91 84 -3 3 -24 -12 -47
-33 l-41 -37 -19 31 c-23 38 -40 39 -80 4 -17 -16 -49 -40 -71 -55 -23 -16
-39 -28 -36 -28 3 0 -10 -16 -28 -36 -19 -19 -34 -39 -34 -44 0 -4 -8 -11 -17
-14 -16 -6 -16 -6 0 12 9 10 17 23 17 29 0 5 11 20 25 33 26 25 37 62 12 41
-8 -6 -17 -7 -21 -3 -4 4 -7 3 -5 -3 3 -13 -11 -45 -20 -45 -4 0 -8 7 -8 15 0
8 4 15 8 15 3 0 9 10 12 21 5 18 11 21 36 16 25 -5 38 0 73 29 23 20 53 40 65
45 28 11 30 26 3 34 -11 3 -20 13 -20 21 0 20 -17 18 -25 -3 -10 -31 -42 -62
-70 -69 -26 -6 -28 -5 -22 17 6 23 5 23 -9 4 -13 -18 -15 -18 -31 -2 -16 16
-15 19 13 49 16 18 38 44 49 57 18 22 16 21 -18 -5 -21 -16 -44 -39 -52 -51
-16 -24 -45 -21 -45 5 0 8 11 30 26 49 14 18 21 33 15 33 -5 0 -19 -14 -32
-31 -16 -22 -24 -28 -32 -20 -9 9 -8 17 1 31 19 31 14 42 -11 23 -16 -11 -22
-24 -19 -38 4 -16 2 -18 -8 -8 -11 10 -11 18 -2 38 21 46 12 51 -23 12 -37
-43 -68 -46 -73 -9 -3 16 -10 22 -28 22 -27 0 -31 12 -9 30 8 7 14 18 13 24
-2 6 8 26 20 43 16 22 18 31 8 27 -8 -3 -17 -12 -20 -21 -4 -8 -13 -13 -21 -9
-9 3 -25 -9 -42 -34 -16 -21 -36 -38 -45 -37 -15 1 -17 13 -16 97 1 99 -15
175 -48 224 -9 15 -14 29 -12 32 19 18 87 -172 71 -198 -2 -5 0 -8 5 -8 5 0
12 9 15 20 3 11 2 20 -3 20 -4 0 -6 19 -3 43 3 34 -3 54 -29 102 -22 40 -39
60 -51 59 -9 -1 -14 2 -12 7 3 4 -7 15 -22 23 -15 8 -51 36 -80 64 -40 38 -68
54 -122 72 -63 20 -96 24 -270 29 -31 1 -33 3 -27 29 l7 27 -26 -30 c-24 -27
-25 -28 -20 -7 6 21 5 23 -13 13 -12 -6 -23 -11 -25 -11 -10 0 12 71 32 106
24 41 21 56 -7 31 -18 -16 -20 -16 -35 1 -26 28 -21 41 24 61 24 11 36 22 30
26 -6 3 -9 11 -6 16 10 16 59 10 90 -11 36 -24 46 -25 38 -4 -3 9 0 20 8 24
15 10 71 1 80 -12 9 -14 45 11 61 42 32 62 52 82 79 76 21 -4 28 -1 32 14 4
17 14 20 65 20 34 0 64 5 67 10 12 19 63 11 80 -12 15 -22 14 -23 -4 -26 -19
-3 -18 -5 5 -40 16 -23 23 -44 20 -59 -5 -16 -1 -23 14 -28 12 -4 28 -24 37
-47 15 -39 17 -39 52 -32 20 3 48 8 63 9 14 1 38 9 52 18 39 26 86 21 126 -11
33 -28 35 -52 4 -52 -22 0 -17 -15 22 -61 27 -32 34 -48 29 -67 -4 -17 -2 -22
7 -16 10 5 10 4 0 -7 -11 -12 -15 -11 -26 4 -13 16 -14 16 -27 0 -12 -15 -12
-16 4 -10 10 4 17 2 18 -6 2 -34 9 -50 28 -64 23 -15 24 -51 2 -90 -13 -26 -9
-28 20 -12 16 8 18 17 13 43 -7 38 8 55 31 36 8 -6 22 -9 32 -6 10 3 24 2 32
-3 9 -6 27 -3 50 10 43 23 89 24 137 4 29 -12 35 -19 30 -35 -3 -11 -9 -28
-12 -39 -4 -14 1 -20 21 -25 31 -8 28 -26 -7 -44 l-26 -12 29 -32 c21 -22 33
-28 40 -21 8 8 8 17 1 28 -6 12 -5 26 4 43 13 25 6 53 -16 67 -6 3 -10 22 -10
40 0 26 -6 39 -25 51 -31 20 -101 30 -118 16 -7 -6 -25 -15 -39 -21 -23 -8
-32 -6 -64 20 -44 35 -51 36 -74 7 -10 -13 -22 -19 -27 -15 -4 5 0 14 10 21
23 18 22 29 -2 16 -31 -16 -37 -12 -13 10 32 30 30 37 -31 123 -15 20 -16 29
-6 50 15 34 7 51 -38 81 -56 36 -78 40 -100 18 -21 -22 -71 -34 -76 -19 -2 7
-13 4 -27 -6 -36 -25 -58 -21 -76 16 -9 17 -24 41 -34 52 -18 21 -31 64 -31
102 1 12 -11 31 -27 43 -22 18 -35 21 -72 16 -25 -4 -70 -10 -100 -13 -76 -8
-131 -44 -177 -116 -23 -36 -25 -37 -46 -22 -29 20 -49 19 -80 -6 -21 -16 -31
-18 -46 -10 -37 20 -68 12 -111 -29 -23 -22 -45 -40 -50 -40 -4 0 -11 -7 -14
-16 -9 -23 20 -64 45 -64 16 0 19 -4 14 -22 -4 -13 -13 -28 -21 -34 -22 -17
-16 -49 11 -64 13 -7 22 -17 19 -22 -3 -4 -12 -1 -20 7 -11 10 -27 13 -58 9
-36 -5 -44 -3 -50 12 -8 21 33 64 60 64 8 0 14 4 14 9 0 21 -18 19 -53 -6 -32
-23 -40 -25 -62 -15 -42 19 -92 15 -109 -9 -8 -12 -30 -32 -50 -45 -33 -22
-38 -23 -57 -11 -21 16 -49 12 -124 -17 -22 -8 -48 -15 -59 -16 -17 0 -18 -6
-14 -65 4 -46 2 -65 -6 -64 -6 1 -26 1 -44 0 -28 -1 -33 -4 -30 -22 2 -17 11
-23 41 -26 25 -2 36 0 32 7 -3 5 -14 10 -23 11 -9 0 -3 5 13 10 17 5 42 6 58
3 26 -5 38 8 17 21 -19 12 -39 62 -33 83 4 15 20 25 58 37 74 21 110 19 135
-7 20 -21 22 -22 31 -5 6 10 22 17 40 17 26 0 29 3 23 25 -15 60 66 77 118 25
l30 -30 -24 -19 c-12 -11 -20 -23 -16 -27 4 -4 14 -1 23 6 9 7 27 10 44 7 23
-5 30 -2 34 14 5 17 9 19 26 9 12 -6 21 -20 21 -30 0 -26 8 -25 30 3 10 12 20
20 23 17 11 -12 17 -353 8 -445 -6 -54 -6 -104 -2 -110 5 -5 11 -29 14 -52 4
-33 2 -43 -9 -43 -8 0 -14 -5 -14 -11 0 -5 5 -7 11 -3 7 4 9 -2 7 -17 -2 -18
-10 -25 -30 -27 -16 -2 -28 1 -28 6 0 6 -8 8 -17 6 -31 -7 -45 9 -33 40 6 17
6 25 0 21 -6 -3 -10 -13 -10 -21 0 -8 -4 -14 -10 -14 -5 0 -10 7 -10 15 0 20
-7 19 -33 -6 -12 -11 -34 -23 -49 -26 -16 -3 -28 -9 -28 -14 0 -5 -5 -9 -11
-9 -12 0 -3 37 15 60 15 19 39 90 33 96 -2 2 -18 -24 -35 -59 -17 -35 -40 -71
-50 -80 -41 -37 -70 13 -36 61 8 12 14 28 12 34 -5 13 -42 -36 -52 -68 -4 -14
2 -29 25 -51 36 -38 31 -54 -29 -102 -36 -28 -40 -29 -55 -14 -19 19 -33 12
-24 -12 4 -8 18 -15 31 -15 24 0 25 -2 14 -25 -9 -19 -16 -24 -32 -19 -36 11
-67 35 -62 47 3 7 9 20 12 30 4 9 10 17 15 17 5 0 6 7 3 15 -8 20 -34 1 -34
-24 0 -35 -14 -42 -49 -25 -47 24 -58 54 -36 101 10 21 20 43 22 48 3 6 -5 -1
-16 -15 -11 -14 -26 -40 -32 -58 -9 -27 -7 -37 11 -67 12 -19 28 -35 36 -35 8
0 36 -16 63 -35 26 -19 56 -35 65 -35 25 0 20 -11 -31 -62 -26 -26 -45 -50
-42 -52 7 -7 74 56 88 82 14 26 36 30 27 5 -5 -13 -1 -12 18 6 13 13 29 20 35
17 5 -4 12 -2 16 4 3 5 14 14 24 20 16 8 17 6 13 -18 l-5 -27 32 29 31 30 1
-25 c1 -13 1 -30 0 -38 -3 -15 5 -11 70 36 26 18 51 33 56 33 14 0 58 -50 79
-90 16 -30 19 -32 22 -14 7 44 -65 161 -92 151 -18 -7 -22 8 -5 18 6 4 28 -7
50 -24 21 -18 39 -28 39 -22 0 13 -121 157 -129 153 -3 -2 -7 1 -9 7 -2 6 10
5 30 -4 18 -8 32 -19 31 -25 -2 -5 2 -10 7 -10 6 0 10 4 10 10 0 11 32 1 42
-14 4 -6 8 -20 7 -31 0 -15 -3 -13 -14 10 -12 26 -13 27 -14 8 -1 -12 7 -28
17 -35 28 -20 42 -53 39 -90 -2 -18 3 -47 10 -65 13 -32 9 -62 -11 -75 -6 -4
-6 -11 2 -20 6 -8 9 -25 6 -39 l-5 -24 20 26 c19 24 27 26 97 27 41 1 79 4 83
6 4 3 28 7 54 10 53 6 132 43 161 75 11 12 24 21 29 21 5 0 32 20 58 45 50 47
90 63 49 20 -13 -14 -20 -28 -15 -32 4 -5 10 -2 12 5 3 7 10 18 17 25 7 7 15
18 17 25 3 10 12 8 32 -8 32 -25 34 -14 8 35 l-18 34 -33 -24 c-44 -32 -49
-25 -14 20 18 23 30 32 34 24 4 -6 10 -7 13 -2 3 5 2 15 -4 23 -5 8 -8 33 -8
55 0 35 1 37 10 17 5 -13 7 -28 4 -32 -3 -5 8 -39 24 -77 16 -37 32 -77 35
-87 5 -14 10 -16 17 -9 8 8 2 33 -20 84 -20 48 -27 77 -21 83 7 7 10 1 10 -16
0 -32 25 -56 34 -33 3 8 0 15 -7 15 -8 0 -9 3 -1 8 6 4 23 28 38 55 28 46 40
56 50 38 6 -10 -22 -71 -38 -82 -5 -4 -5 -12 -2 -18 4 -6 4 -17 -1 -23 -4 -7
-8 -34 -8 -59 -1 -26 -7 -54 -14 -63 -12 -14 -12 -16 1 -11 8 3 20 -1 27 -9
10 -12 9 -21 -4 -45 -8 -17 -12 -31 -9 -31 12 0 44 32 44 44 0 12 55 76 65 76
3 0 4 -4 1 -9 -4 -5 0 -11 6 -14 10 -3 10 -8 -1 -21 -13 -16 -12 -17 11 -11
19 5 29 2 36 -10 6 -11 24 -18 48 -20 64 -4 156 -28 161 -42 3 -7 13 -13 23
-13 10 0 23 -6 29 -13 8 -11 5 -19 -14 -37 -29 -27 -24 -40 14 -40 16 0 36 -9
47 -21 10 -12 36 -32 57 -46 l38 -24 -24 -44 c-22 -39 -23 -43 -5 -32 16 10
21 9 29 -5 5 -9 17 -25 26 -34 16 -15 14 -19 -28 -56 -24 -21 -60 -47 -79 -57
-19 -11 -46 -30 -60 -43 l-24 -23 24 -5 c28 -6 90 -42 90 -52 0 -3 -25 -23
-56 -43 -30 -20 -53 -40 -50 -43 3 -3 -2 -15 -11 -26 l-18 -20 30 19 c17 10
37 26 45 35 35 38 109 49 96 14 -4 -10 0 -11 20 -4 22 9 32 2 100 -63 175
-166 286 -381 350 -680 16 -78 17 -97 6 -97 -5 0 -18 46 -30 102 -12 56 -26
106 -31 111 -6 6 -6 -5 0 -30 4 -22 11 -55 14 -74 2 -19 14 -79 26 -134 11
-55 23 -152 26 -215 5 -115 -2 -169 -52 -420 -16 -79 -67 -195 -80 -182 -5 4
-5 -1 -2 -10 4 -10 2 -18 -3 -18 -4 0 -14 -17 -21 -37 -28 -87 -196 -288 -258
-309 -19 -6 -37 -18 -40 -25 -2 -8 2 -10 14 -5 16 6 16 4 4 -11 -27 -34 -56
-46 -45 -18 3 8 1 15 -3 15 -5 0 -11 -4 -13 -8 -6 -16 -104 -78 -149 -94 -161
-59 -290 -89 -509 -120 -107 -15 -551 -18 -845 -6 -229 10 -475 12 -482 4 -4
-3 29 -6 72 -6 49 0 75 -4 69 -9 -13 -13 -334 -19 -335 -6 -1 6 0 15 1 20 1 6
4 325 6 710 4 809 3 730 9 723 3 -2 8 -90 11 -194 4 -104 10 -198 14 -209 9
-22 5 173 -6 350 -5 73 -10 102 -15 85 -9 -33 -11 -27 -14 48 -2 49 1 62 13
62 10 0 12 4 4 13 -13 16 -17 583 -4 591 5 3 17 -3 27 -14 22 -24 82 -22 140
5 40 19 55 12 55 -27 0 -10 5 -18 10 -18 6 0 10 -6 9 -12 -3 -26 1 -38 15 -38
21 0 28 31 11 50 -14 16 -12 19 25 44 22 14 40 30 40 35 0 5 6 16 13 23 6 8
21 25 32 38 19 23 19 24 1 10 -11 -8 -40 -36 -64 -62 -25 -27 -50 -48 -57 -48
-25 0 -24 28 1 45 14 9 22 20 19 25 -10 17 -45 11 -96 -15 -49 -24 -72 -29
-119 -27 -19 2 -21 5 -12 14 7 7 12 21 12 31 0 17 -3 16 -21 -7 -11 -14 -28
-26 -37 -25 -9 0 -12 3 -7 5 7 3 9 29 7 67 l-4 64 43 36 c23 20 49 37 56 37
14 0 98 83 115 114 8 16 7 18 -6 13 -9 -4 -16 -2 -16 3 0 6 2 10 4 10 2 0 11
3 19 6 26 10 28 -26 3 -59 -38 -52 -40 -65 -3 -24 39 42 42 43 51 21 4 -10 -3
-24 -18 -38 -13 -11 -31 -34 -41 -51 -12 -22 -5 -17 26 18 24 26 51 47 60 47
9 0 19 8 23 18 3 9 9 24 12 32 3 8 -2 6 -10 -4 -20 -24 -30 -16 -49 42 -9 27
-11 44 -5 48 6 4 6 9 -2 14 -8 5 -4 15 14 35 15 16 24 31 21 34 -4 3 -10 -1
-15 -9 -13 -21 -24 -5 -12 17 16 29 96 101 88 79 -6 -16 -4 -17 9 -6 12 10 13
15 4 20 -6 4 -8 13 -5 19 19 30 -17 5 -63 -44 -29 -30 -54 -55 -57 -55 -9 0
-3 29 9 42 19 21 38 58 30 58 -11 -1 -69 -83 -65 -94 1 -4 -2 -24 -9 -43 -8
-25 -14 -31 -23 -24 -7 6 -22 8 -34 4 -33 -8 -27 6 31 72 84 98 119 144 115
156 -2 6 -42 -38 -90 -98 -70 -88 -93 -110 -124 -120 -22 -6 -40 -10 -42 -8
-2 2 11 20 29 39 19 19 63 69 99 110 36 42 68 76 72 76 5 0 8 5 8 10 0 22 -24
8 -64 -37 -96 -109 -150 -163 -163 -163 -22 0 -15 13 40 71 72 77 105 116 84
100 -29 -23 -32 -3 -3 24 15 14 24 25 20 25 -12 0 -109 -81 -117 -98 -8 -15
-7 -15 5 -1 13 15 51 39 63 39 3 0 -20 -24 -52 -54 -32 -30 -61 -51 -65 -48
-4 4 -10 83 -13 176 -5 131 -4 171 6 177 10 6 10 11 -1 24 -12 15 -11 16 13
10 31 -8 32 -7 12 31 -24 46 -20 57 20 52 31 -3 35 -1 35 18 0 26 75 66 109
57 33 -8 26 19 -10 40 -29 16 -31 20 -24 54 8 42 46 83 77 83 11 0 36 -10 55
-21 33 -20 35 -21 54 -4 23 22 37 12 18 -12 -8 -10 -18 -22 -22 -28 -68 -85
-117 -161 -117 -181 0 -33 7 -30 24 11 24 56 76 118 200 236 64 61 116 116
116 122 0 6 -30 -19 -68 -56 -37 -37 -71 -67 -75 -67 -23 0 1 40 58 97 36 36
65 67 65 69 0 17 -69 -38 -120 -96 -35 -38 -67 -70 -71 -70 -22 0 -4 29 51 85
42 43 61 70 65 95 3 19 13 46 22 60 17 25 16 25 -6 10 -12 -8 -21 -17 -19 -20
2 -3 -5 -18 -14 -32 -10 -15 -15 -33 -12 -41 3 -8 1 -18 -5 -22 -6 -3 -11 -1
-11 5 0 6 -17 -2 -37 -19 -21 -18 -40 -26 -42 -20 -2 6 2 16 8 22 16 16 13 31
-4 17 -8 -6 -22 -10 -32 -7 -15 3 -13 6 8 15 15 6 29 17 32 26 5 13 2 13 -20
5 -15 -5 -32 -17 -39 -27 -12 -14 -15 -15 -23 -3 -8 12 -13 12 -35 -2 -15 -10
-27 -13 -31 -7 -3 6 -15 10 -26 10 -29 0 -23 25 16 59 40 35 42 41 16 41 -23
0 -102 -77 -95 -93 3 -7 21 -22 41 -35 29 -18 41 -21 58 -14 24 11 72 5 81
-10 10 -16 -39 -60 -96 -85 -30 -14 -63 -32 -72 -40 -20 -18 -24 -73 -8 -104
8 -13 7 -19 0 -19 -6 0 -30 -18 -54 -40 -81 -75 -76 -111 -76 516 0 306 -5
644 -11 750 -12 215 -10 230 40 216 14 -4 50 -6 79 -5z m1106 -852 c89 -27
184 -112 227 -202 29 -62 39 -128 24 -153 -5 -9 -4 -11 3 -6 14 9 16 1 16 -86
1 -45 -3 -68 -10 -68 -7 0 -14 -7 -18 -15 -3 -9 0 -15 9 -15 25 0 20 -100 -8
-141 -19 -28 -31 -35 -87 -45 -36 -7 -88 -13 -116 -13 -39 -1 -61 -8 -95 -30
-24 -17 -45 -29 -46 -28 -4 4 -14 403 -15 587 0 96 -4 185 -9 196 -4 12 -5 25
-2 28 11 11 77 6 127 -9z m1420 -822 c4 -9 2 -21 -4 -27 -5 -5 -10 -18 -10
-28 0 -10 -5 -18 -11 -18 -5 0 -8 -4 -5 -9 6 -8 -31 -63 -46 -69 -10 -4 8 -40
33 -67 18 -20 17 -21 -29 -61 -26 -22 -56 -44 -67 -48 -13 -5 -16 -10 -7 -13
6 -3 10 -9 7 -13 -3 -5 -11 -7 -18 -4 -16 6 -55 -37 -49 -54 4 -13 -14 -17
-22 -4 -3 4 14 35 37 68 23 33 52 83 64 110 40 89 83 206 83 224 0 32 33 43
44 13z m26 -280 c18 -17 18 -19 0 -40 -10 -13 -23 -23 -29 -23 -6 0 -8 -7 -5
-15 4 -8 1 -15 -6 -15 -19 0 -57 -34 -52 -48 2 -7 -6 -12 -24 -12 -20 0 -25
-3 -17 -11 13 -13 5 -56 -12 -63 -7 -2 -27 11 -45 29 l-33 34 24 20 c13 11 27
20 32 21 4 0 7 6 7 14 0 8 11 23 25 34 14 11 21 22 15 24 -13 4 69 67 88 68 7
0 21 -8 32 -17z m-247 -205 c14 -18 42 -51 63 -73 79 -86 207 -316 219 -396
l6 -34 -18 35 c-9 19 -27 55 -39 80 -75 157 -159 277 -266 380 -41 39 -41 40
-16 40 17 0 34 -11 51 -32z m345 -758 c7 -49 12 -93 11 -97 -1 -4 -1 -10 0
-13 1 -3 4 -39 7 -80 3 -41 6 -77 6 -80 0 -3 0 -34 -1 -70 -1 -63 -1 -64 -17
-41 -22 31 -36 91 -20 88 13 -2 14 53 2 128 -14 88 -17 119 -21 170 -1 28 -4
51 -5 53 -1 1 -3 11 -4 21 0 11 -4 23 -8 27 -20 19 -5 25 15 6 19 -18 26 -40
35 -112z"/>
<path d="M9766 5711 c-3 -5 -22 -40 -42 -77 -44 -83 -54 -95 -54 -66 0 23 -16
30 -22 11 -3 -8 -10 -8 -26 2 -19 12 -22 20 -18 49 5 31 5 32 -5 10 -14 -34
-17 -35 -36 -18 -10 8 -34 18 -53 22 l-34 6 44 -32 c46 -33 79 -67 80 -80 0
-4 -19 -28 -43 -53 -46 -48 -84 -58 -107 -30 -10 12 -16 13 -27 4 -11 -10 -11
-14 -1 -20 9 -6 9 -12 3 -18 -6 -6 -16 -7 -25 -1 -13 8 -13 14 3 43 10 19 17
45 15 58 -2 20 -8 15 -33 -33 -16 -32 -33 -58 -37 -58 -11 0 -11 -1 11 63 16
47 17 56 5 61 -16 6 -48 -37 -41 -56 3 -8 9 -1 16 16 6 16 14 26 17 23 3 -3
-4 -23 -16 -46 -21 -42 -34 -54 -24 -23 4 13 1 12 -14 -6 -12 -13 -26 -20 -36
-16 -19 7 -20 18 -5 47 11 21 10 21 -15 -2 -14 -14 -26 -20 -26 -16 0 5 -7 -1
-16 -13 -19 -27 -38 -28 -72 -1 -31 24 -43 8 -16 -22 24 -27 9 -67 -33 -92
-40 -23 -62 -14 -36 16 9 12 11 16 3 10 -20 -18 -30 -16 -23 5 6 15 4 15 -15
-2 -23 -20 -29 -46 -11 -46 6 0 9 7 5 15 -3 8 -1 15 5 15 6 0 9 -8 7 -17 -2
-12 -14 -18 -36 -19 -28 -1 -32 1 -27 17 9 27 -10 23 -29 -6 -9 -14 -25 -25
-36 -25 -38 0 -20 -19 20 -22 22 -2 40 -7 40 -13 -1 -5 -9 -9 -18 -7 -14 2
-14 1 -3 -7 13 -8 13 -12 0 -27 -13 -16 -12 -16 11 -4 13 7 31 21 40 31 10 13
31 19 66 21 29 2 50 6 48 10 -3 4 11 18 30 30 20 13 36 30 36 39 0 16 19 39
32 39 4 0 8 -4 8 -10 0 -5 -7 -10 -15 -10 -8 0 -15 -5 -15 -11 0 -5 5 -7 10
-4 6 3 16 0 24 -8 12 -12 4 -24 -57 -85 -39 -40 -76 -72 -83 -72 -7 0 -18 -9
-24 -20 -6 -11 -17 -20 -25 -20 -8 0 -19 -9 -25 -20 -16 -30 -80 -27 -119 6
-24 20 -34 23 -48 15 -16 -8 -13 -12 20 -26 20 -8 37 -19 37 -23 0 -8 -41 -46
-52 -48 -5 -1 -11 -2 -15 -3 -4 0 -2 -6 5 -13 9 -9 19 -5 41 22 29 35 30 35
59 19 27 -15 31 -15 62 1 30 15 36 16 63 2 l31 -15 -53 -18 c-29 -9 -60 -15
-70 -12 -11 3 -22 -5 -31 -24 -19 -37 -102 -140 -118 -147 -7 -3 -4 6 7 20 12
15 21 31 21 37 0 6 8 19 18 30 17 20 17 20 -11 2 -15 -10 -37 -32 -49 -49 -12
-17 -53 -72 -91 -123 -43 -57 -66 -96 -61 -104 5 -8 2 -11 -8 -6 -10 3 -15 0
-14 -11 0 -9 -6 -17 -14 -17 -22 0 -13 34 21 73 39 44 37 53 -4 14 -38 -37
-53 -41 -36 -11 8 15 8 19 0 15 -6 -4 -11 0 -11 8 0 8 8 20 19 25 25 14 38 46
15 37 -14 -5 -15 -4 -4 9 7 8 18 15 26 15 7 0 16 5 20 12 4 7 3 8 -4 4 -14 -8
-16 15 -4 30 4 5 -10 -9 -33 -31 -22 -22 -37 -42 -33 -43 5 -2 6 -8 3 -12 -3
-5 -17 0 -30 12 -24 21 -24 22 -7 41 16 19 16 20 -5 8 -30 -15 -39 3 -11 23
28 20 19 30 -16 17 -18 -7 -26 -18 -26 -34 0 -42 20 -83 50 -106 30 -21 39
-54 20 -66 -16 -10 -11 -28 20 -65 23 -27 33 -31 42 -22 7 7 21 12 33 12 11 0
29 7 39 15 11 8 31 15 44 15 14 0 41 12 61 28 53 41 62 42 113 15 l47 -26 31
29 c16 16 30 34 30 40 0 7 7 15 16 18 11 4 15 2 11 -8 -4 -10 -1 -13 9 -9 22
8 17 -25 -6 -39 -11 -7 -20 -16 -20 -20 0 -16 30 -8 51 13 14 14 29 19 46 16
21 -4 37 7 86 54 33 33 64 56 67 52 4 -5 4 -44 -1 -88 -7 -69 -10 -490 -8
-1012 l1 -153 34 0 c19 0 34 -3 34 -8 0 -25 -121 -165 -176 -202 -46 -32 -63
-38 -45 -16 6 7 34 51 61 97 38 63 42 75 20 49 -17 -19 -45 -57 -62 -83 l-32
-49 -10 29 c-5 15 -18 41 -28 58 l-19 30 6 -34 c4 -18 16 -53 27 -77 l19 -44
-28 -25 c-15 -14 -52 -32 -80 -42 -29 -9 -53 -21 -53 -26 0 -5 7 -6 16 -3 9 3
28 9 42 13 15 3 68 28 119 55 90 48 149 99 222 191 34 44 78 153 86 212 4 35
16 110 20 125 15 55 25 209 15 215 -6 3 -10 12 -10 18 0 7 4 6 10 -3 8 -13 10
-12 10 3 0 9 -4 17 -10 17 -5 0 -10 8 -10 18 0 14 2 15 10 2 24 -38 11 505
-15 614 -30 127 -69 181 -184 258 -70 47 -201 172 -201 191 0 5 15 -2 32 -15
18 -13 40 -27 49 -33 132 -80 213 -143 256 -195 52 -65 71 -72 29 -12 -14 21
-26 43 -26 50 0 7 -9 21 -19 31 -16 16 -18 26 -11 51 7 23 6 30 -3 27 -7 -2
-13 -13 -15 -25 -4 -24 -24 -29 -40 -9 -8 9 0 23 29 55 43 46 49 49 49 29 0
-8 7 -28 15 -44 9 -17 17 -49 20 -72 2 -22 15 -65 28 -93 24 -51 25 -52 26
-22 1 18 -8 60 -18 95 -11 35 -23 89 -27 119 -3 30 -14 74 -24 97 -26 59 -2
65 45 11 38 -45 50 -30 13 17 -20 25 -20 30 -7 53 19 35 34 25 36 -23 3 -77
10 -114 27 -131 10 -9 15 -23 11 -32 -3 -8 4 -48 16 -89 22 -80 22 -106 -1
-48 -8 19 -17 35 -22 35 -10 0 -10 -3 3 -37 6 -15 10 -29 9 -31 0 -1 8 -19 19
-40 12 -20 31 -59 43 -87 17 -40 22 -46 25 -28 2 12 -5 40 -16 62 -27 52 -27
61 1 25 35 -47 41 -51 33 -25 -5 15 -4 21 3 17 6 -3 14 -1 17 5 8 12 -14 60
-33 72 -10 6 -6 14 15 30 15 12 31 22 35 22 21 0 142 224 155 287 3 15 12 33
19 39 8 6 14 25 14 42 0 17 3 28 6 24 10 -10 5 -144 -7 -174 -9 -24 -4 -22 37
20 34 34 51 44 58 37 8 -8 7 -13 -1 -18 -25 -15 -105 -146 -165 -268 -35 -71
-66 -131 -71 -132 -4 -2 -5 -7 -2 -12 2 -4 -4 -18 -15 -31 -12 -12 -23 -34
-26 -48 -3 -14 -10 -41 -16 -58 -5 -18 -6 -37 -3 -43 4 -6 -1 -22 -9 -35 -9
-14 -12 -25 -6 -25 6 0 3 -11 -6 -25 -10 -16 -18 -52 -19 -98 -5 -109 -26
-360 -31 -368 -2 -4 0 -10 6 -14 6 -4 10 -46 9 -103 -2 -103 8 -195 21 -187 4
2 5 15 3 29 -3 13 0 27 6 30 7 5 11 -6 11 -33 0 -22 4 -51 10 -66 7 -17 7 -24
0 -20 -19 12 -10 -95 15 -172 61 -186 76 -222 98 -229 12 -3 30 -15 41 -26 13
-15 26 -18 45 -13 47 12 71 7 143 -28 41 -21 77 -33 87 -29 14 6 14 7 -1 10
-10 2 -18 8 -18 13 0 5 -4 9 -9 9 -14 0 -91 52 -91 62 0 12 3 11 77 -27 67
-34 103 -44 103 -26 0 5 -16 19 -35 32 -42 29 -43 35 -8 42 35 7 65 -4 37 -13
-11 -4 10 -10 56 -14 109 -11 152 -17 178 -27 30 -12 35 -11 27 2 -4 5 -18 15
-33 20 -42 16 -12 34 36 22 45 -12 126 -3 104 11 -16 10 -215 11 -231 2 -6 -4
-11 -3 -11 2 0 5 14 15 30 22 17 7 30 17 30 22 0 5 -7 5 -17 0 -91 -47 -124
-51 -88 -12 28 31 10 35 -28 6 -19 -14 -37 -26 -40 -26 -14 0 -6 28 14 54 30
38 16 44 -17 7 -28 -32 -50 -41 -41 -18 3 7 -2 22 -10 32 -12 17 -15 18 -23 5
-6 -9 -6 -16 0 -18 18 -6 10 -17 -12 -19 -13 -1 -39 -3 -60 -4 -63 -5 -111 38
-163 145 -48 97 -68 165 -46 151 17 -10 124 101 153 158 36 72 58 149 69 247
14 114 14 90 -1 228 -12 114 -34 199 -69 257 l-18 32 31 30 c41 39 91 73 113
77 10 2 35 6 56 10 23 4 37 3 37 -3 0 -6 -7 -8 -15 -5 -11 5 -14 1 -9 -12 4
-14 3 -16 -4 -5 -8 11 -21 7 -72 -22 -35 -20 -57 -38 -51 -41 6 -4 23 1 39 12
31 22 82 49 67 36 -5 -5 -26 -24 -47 -43 -23 -21 -41 -30 -49 -25 -18 11 -59
14 -59 5 0 -21 91 -71 128 -71 11 0 25 7 32 15 13 15 10 17 -25 19 -11 1 -19
6 -18 13 2 7 -4 10 -12 7 -8 -4 -15 -1 -15 5 0 6 4 11 9 11 5 0 17 3 27 7 13
5 15 3 9 -7 -9 -15 17 0 115 68 34 23 60 37 58 30 -2 -6 -27 -27 -54 -45 -84
-56 -94 -64 -94 -73 0 -15 17 -12 34 5 17 17 32 19 40 6 11 -18 -6 -41 -31
-41 -15 0 -23 -5 -20 -12 2 -7 19 -13 38 -13 26 0 36 5 44 23 12 27 19 27 63
0 27 -17 38 -19 52 -10 14 9 22 7 36 -9 29 -32 50 -40 92 -33 28 4 44 14 62
41 13 19 37 41 54 50 46 23 66 52 66 100 0 40 2 43 53 70 38 21 52 34 53 51 2
33 -11 36 -30 7 l-16 -25 -52 20 c-49 18 -77 16 -98 -9 -10 -12 -52 -32 -57
-28 -2 3 12 18 32 34 81 63 81 62 63 63 -15 0 -179 -141 -186 -161 -2 -5 1 -9
8 -9 6 0 8 -5 5 -11 -5 -6 -12 -4 -20 8 -7 10 -10 20 -7 23 4 3 16 16 27 30
11 13 -5 4 -35 -20 -30 -25 -57 -48 -60 -51 -5 -7 -78 -39 -88 -39 -10 0 61
50 80 56 10 3 18 10 18 16 0 6 -6 6 -15 -2 -9 -7 -18 -11 -21 -8 -2 3 7 13 22
23 15 9 23 12 20 6 -12 -19 5 -12 36 14 17 14 49 35 72 47 22 11 52 32 66 46
23 23 23 24 3 13 -12 -6 -25 -11 -30 -11 -10 0 49 49 60 50 11 0 28 19 51 55
19 29 19 30 0 14 -10 -9 -32 -27 -48 -40 -15 -13 -42 -36 -60 -51 -17 -15 -38
-28 -46 -28 -16 1 0 16 95 97 80 67 38 49 -50 -22 -44 -36 -84 -64 -90 -64 -5
0 -4 3 3 6 6 2 12 9 12 14 0 6 -7 6 -19 0 -10 -6 -21 -8 -23 -5 -9 8 -67 -58
-62 -70 2 -6 -10 -17 -27 -23 -30 -12 -31 -11 -15 6 9 10 15 24 13 32 -2 8 -2
11 0 6 4 -6 73 58 73 68 0 13 -28 3 -50 -18 -35 -32 -96 -77 -103 -77 -16 0
-4 31 28 71 42 53 29 60 -39 24 -27 -14 -51 -24 -53 -21 -2 2 3 18 12 36 25
49 7 50 -35 3 -29 -33 -40 -40 -48 -30 -7 8 -7 18 -2 27 6 8 10 21 10 29 0 11
-3 11 -16 0 -13 -10 -17 -10 -24 0 -5 9 -16 11 -31 6 -16 -5 -8 4 21 26 25 18
71 52 103 76 40 29 69 43 90 43 52 0 71 9 90 42 18 32 18 32 -10 58 -23 22
-33 26 -55 19 -39 -11 -66 -1 -82 31 -12 25 -12 29 1 34 8 3 11 11 8 17 -5 7
-14 4 -27 -8 -15 -13 -22 -15 -25 -6 -3 9 -17 6 -48 -11 -32 -18 -45 -21 -48
-12 -6 16 61 92 88 100 11 3 29 21 40 38 31 52 30 54 -5 25 -35 -30 -80 -34
-88 -8 -3 8 0 11 6 7 6 -3 14 -1 17 5 12 18 -2 21 -27 5 -44 -29 -52 6 -12 54
l27 31 -42 -21 c-22 -12 -44 -26 -47 -31 -3 -5 -15 -9 -27 -9 -19 0 -16 6 21
40 24 22 39 40 32 40 -6 0 -8 5 -4 12 4 7 3 8 -5 4 -6 -4 -9 -11 -6 -15 6 -11
-33 -46 -42 -37 -4 3 -1 12 5 18 7 7 12 16 12 21 0 4 -20 -8 -45 -29 -46 -37
-56 -33 -30 14 25 46 65 145 61 150 -3 2 -24 -34 -47 -81 -24 -47 -46 -84 -51
-81 -4 3 -1 20 7 37 16 34 17 34 -29 -28 -13 -18 -13 -16 -6 20 4 22 13 53 19
68 15 39 14 45 -5 19 -8 -12 -21 -41 -29 -65 l-13 -42 -1 39 c-1 41 -12 43
-16 4 -1 -13 -3 -27 -4 -32 0 -5 -8 -3 -16 4 -9 7 -15 8 -15 2 0 -15 -32 -24
-41 -11 -6 10 10 58 55 162 15 33 16 51 2 28z m494 -536 c6 -4 9 -14 6 -22 -5
-11 -1 -13 17 -8 16 5 13 0 -12 -19 -19 -14 -37 -26 -40 -26 -3 0 3 7 13 15
11 8 16 18 12 22 -7 8 -136 -57 -167 -83 -18 -16 -29 -18 -29 -6 0 4 26 23 58
42 31 18 67 39 80 47 12 8 20 19 16 25 -4 5 -9 6 -13 1 -8 -11 -58 -43 -67
-43 -4 0 1 10 12 21 19 22 19 22 -3 8 -12 -7 -24 -22 -27 -32 -3 -14 -10 -17
-28 -12 -14 4 -18 3 -11 -2 9 -6 2 -17 -22 -36 -41 -33 -45 -33 -38 -6 4 14
-21 -5 -70 -54 -43 -42 -77 -78 -77 -81 0 -14 45 11 63 36 12 16 27 26 35 23
10 -4 12 0 8 11 -4 12 -2 15 9 11 8 -4 17 -2 20 3 3 6 15 15 25 20 16 8 18 8
14 -5 -4 -8 -10 -15 -14 -15 -4 0 -29 -21 -56 -47 -27 -26 -42 -41 -32 -34 12
9 18 9 23 0 5 -6 -6 -24 -26 -41 -21 -18 -25 -26 -12 -19 12 6 25 15 28 21 9
15 45 -12 45 -33 0 -24 -48 -92 -100 -142 l-41 -40 -19 25 c-11 14 -20 31 -20
38 0 6 -4 12 -10 12 -16 0 -12 35 11 87 11 26 23 63 25 82 3 19 8 39 11 45 4
6 8 17 9 23 4 25 47 84 79 109 19 14 69 40 112 58 63 27 89 33 135 31 31 -2
62 -6 68 -10z m-185 -355 c38 14 40 8 8 -23 -95 -88 -284 -260 -319 -288 -47
-39 -94 -100 -94 -123 0 -9 -4 -16 -9 -16 -5 0 -12 -22 -16 -49 -4 -28 -13
-55 -21 -62 -11 -9 -12 -7 -5 17 5 16 12 50 16 77 3 26 10 47 16 47 5 0 9 7 9
15 0 18 -16 20 -24 3 -3 -7 -4 6 -1 29 5 45 24 93 35 93 4 0 6 -12 4 -27 -2
-16 -1 -22 2 -15 12 25 52 57 105 85 64 32 257 215 251 237 -3 12 -1 12 6 2 6
-10 15 -10 37 -2z m541 -36 c-4 -12 -1 -14 14 -9 24 8 25 3 5 -35 -9 -17 -15
-32 -15 -35 0 -3 0 -11 0 -19 0 -16 -89 -80 -98 -71 -3 3 7 17 22 30 16 14 26
31 23 39 -3 7 6 23 19 35 20 18 23 25 14 36 -10 12 -17 12 -34 3 -13 -7 -16
-13 -8 -16 6 -2 9 -8 6 -14 -4 -6 -10 -5 -15 3 -6 11 -20 2 -58 -35 -29 -28
-54 -45 -61 -41 -6 4 -20 -1 -31 -11 -14 -13 -19 -14 -19 -3 0 7 -14 -2 -31
-21 -16 -19 -28 -28 -25 -20 3 8 9 23 12 32 3 10 15 20 25 23 10 4 19 12 19
18 0 8 3 8 9 -1 6 -11 22 -4 69 30 34 23 64 50 67 59 7 19 41 37 74 38 17 1
22 -3 17 -15z m-685 -302 c46 -123 62 -293 37 -388 -18 -65 -71 -108 -205
-167 -11 -5 -25 -7 -30 -4 -17 11 -16 296 1 352 8 27 13 51 11 53 -7 8 68 147
103 190 41 51 51 46 83 -36z"/>
<path d="M9550 3680 c-1 -69 -22 -195 -30 -186 -3 2 -6 -5 -7 -17 -3 -33 -8
-48 -27 -92 -13 -31 -19 -37 -27 -25 -8 13 -11 12 -20 -3 -6 -11 -22 -28 -35
-40 -13 -11 -24 -24 -24 -29 0 -16 25 -7 52 19 24 23 28 24 28 9 0 -10 -25
-43 -56 -72 -68 -65 -48 -73 32 -12 31 23 63 42 72 43 19 2 69 20 91 33 15 8
52 -7 107 -44 65 -44 144 -68 144 -44 0 9 -15 14 -33 11 -5 -1 -35 17 -68 39
-32 22 -66 40 -74 40 -9 0 -18 8 -21 18 -3 9 -11 30 -17 47 -11 29 -11 29 -17
5 -6 -27 -30 -40 -30 -16 0 9 -4 16 -10 16 -5 0 -6 -7 -3 -17 4 -10 2 -14 -4
-10 -6 4 -13 4 -16 0 -2 -5 -2 -1 0 7 2 8 8 73 13 145 7 101 6 142 -4 185
l-14 55 -2 -65z"/>
<path d="M6291 3088 c-9 -15 -19 -28 -23 -28 -5 0 -8 -4 -8 -10 0 -5 -18 -28
-40 -52 -22 -24 -40 -51 -40 -61 0 -10 -11 -22 -25 -27 -40 -15 -29 -29 20
-28 55 1 68 -8 26 -17 -46 -10 -39 -29 7 -21 20 4 73 9 117 12 113 7 128 9
133 22 4 12 -48 10 -68 -3 -5 -3 -20 -1 -32 6 -16 9 -23 9 -26 0 -6 -18 -18
-13 -18 9 0 13 9 21 28 25 15 4 31 11 34 17 5 7 -19 9 -72 7 -47 -3 -80 0 -82
6 -1 6 8 11 20 11 126 8 345 17 392 16 37 -1 56 2 50 8 -5 5 -44 10 -87 11
-104 2 -99 19 6 19 56 0 77 3 67 10 -18 12 -139 12 -240 0 -41 -4 -79 -5 -85
-2 -15 9 33 20 100 22 33 1 94 7 135 14 l75 12 -55 7 c-30 3 -75 4 -100 2 -25
-3 -58 -1 -75 4 -28 9 -27 9 20 11 63 2 157 16 130 20 -11 1 -76 3 -144 5
l-124 2 -16 -29z"/>
<path d="M15930 2929 c-127 -6 -89 -15 83 -18 37 0 67 -5 67 -11 0 -6 -30 -10
-67 -11 -120 -1 -133 -28 -23 -49 69 -13 277 -13 285 0 3 6 -2 11 -12 11 -10
1 -29 3 -43 6 -14 2 -47 6 -73 8 -54 3 -69 11 -47 26 13 8 13 10 0 19 -13 8
-12 10 3 10 9 0 17 4 17 9 0 10 -17 10 -190 0z"/>
<path d="M12517 2870 c-24 -7 -66 -11 -139 -12 -66 0 -85 -17 -30 -26 45 -7
411 -7 502 0 47 4 89 7 93 7 5 1 7 6 5 13 -5 13 -58 18 -58 6 0 -7 -247 -4
-305 3 -5 1 -17 0 -25 -2 -8 -2 -14 2 -12 9 1 6 1 12 0 11 -2 0 -15 -4 -31 -9z"/>
</g>
</svg>
