<?xml version="1.0" standalone="no"?>
<!DOCTYPE svg PUBLIC "-//W3C//DTD SVG 20010904//EN"
 "http://www.w3.org/TR/2001/REC-SVG-20010904/DTD/svg10.dtd">
<svg version="1.0" xmlns="http://www.w3.org/2000/svg"
 width="1928.000000pt" height="1074.000000pt" viewBox="0 0 1928.000000 1074.000000"
 preserveAspectRatio="xMidYMid meet">
<metadata>
Created by potrace 1.16, written by Peter Selinger 2001-2019
</metadata>
<g transform="translate(0.000000,1074.000000) scale(0.100000,-0.100000)"
fill="#000000" stroke="none">
<path d="M14575 7984 c34 -44 32 19 22 -699 -5 -319 -9 -1061 -9 -1650 0 -779
-4 -1072 -12 -1077 -8 -6 -8 -10 0 -15 8 -6 12 -145 13 -488 0 -264 2 -575 3
-692 3 -205 2 -212 -17 -217 -20 -6 -34 6 -77 66 -9 13 -1 -10 18 -49 33 -69
53 -96 39 -53 -9 30 21 26 51 -7 l25 -27 -22 -11 -21 -12 23 -7 c19 -5 21 -8
10 -15 -11 -7 -8 -12 15 -24 44 -23 108 -93 99 -108 -6 -9 -3 -11 8 -6 40 15
107 -111 107 -203 0 -33 4 -60 9 -60 6 0 10 17 9 38 0 60 20 125 38 118 9 -3
79 -6 156 -6 131 0 139 -1 127 -17 -8 -9 -9 -14 -2 -10 6 4 91 10 190 13 98 3
180 9 183 13 3 3 50 6 105 6 l100 0 3 -72 c2 -41 7 -73 13 -73 6 0 9 28 7 73
l-3 72 115 5 c113 5 131 21 20 19 -45 -1 -56 2 -68 20 -17 24 -32 28 -32 6 0
-9 -9 -15 -22 -15 -17 0 -19 3 -10 12 7 7 12 42 12 85 l0 73 39 0 c22 0 73 -4
113 -9 141 -18 214 -23 198 -12 -8 6 -33 11 -55 11 -22 0 -58 5 -80 11 -22 6
-78 12 -125 13 -81 1 -85 2 -88 24 -3 22 -1 23 26 17 16 -3 61 -7 101 -7 39
-1 66 -5 59 -9 -24 -15 2 -20 126 -25 84 -3 126 -1 126 6 0 5 -4 10 -10 10 -5
0 -10 5 -10 11 0 8 4 8 14 0 11 -9 15 -9 20 1 3 7 3 3 0 -9 -5 -22 -3 -23 68
-24 40 0 81 -2 90 -4 37 -7 102 -14 85 -9 -11 4 -16 12 -13 20 5 12 2 15 -19
14 -3 0 -19 7 -36 16 -17 8 -33 13 -37 10 -3 -3 0 -6 6 -6 7 0 12 -7 12 -15 0
-22 -21 -18 -27 4 -3 11 -11 22 -19 25 -7 3 -116 8 -241 11 -125 4 -248 8
-273 10 l-45 3 -2 425 c-1 234 -5 604 -8 823 -3 219 -3 396 -1 393 3 -3 19
-45 37 -94 17 -50 49 -130 71 -180 22 -49 44 -106 49 -125 6 -19 19 -54 30
-78 20 -44 112 -293 150 -404 11 -35 41 -115 66 -178 26 -63 47 -128 48 -145
1 -16 16 -59 32 -95 39 -84 105 -261 100 -267 -3 -2 -24 15 -47 39 -42 42 -47
35 -6 -10 16 -19 18 -25 7 -31 -9 -6 0 -11 28 -16 31 -5 45 -14 55 -33 8 -15
54 -62 103 -104 48 -42 113 -101 143 -130 l55 -53 -62 -3 c-35 -2 -63 -7 -63
-12 0 -11 7 -12 95 -14 l60 -1 35 -72 c37 -76 71 -123 51 -71 -6 15 -19 45
-31 67 -24 48 -25 61 -5 61 8 0 33 -25 56 -55 23 -30 46 -55 51 -55 6 0 -6 20
-26 44 -20 24 -36 48 -36 51 0 4 89 4 198 -1 108 -4 221 -7 250 -6 l52 2 0
-60 c0 -33 4 -60 10 -60 6 0 10 27 10 60 l0 60 38 0 c20 0 46 7 56 15 13 10
44 15 88 15 l68 0 0 -84 c0 -47 5 -88 10 -91 6 -4 10 27 10 84 l0 91 38 2 c20
1 54 0 75 -1 21 -1 37 2 37 8 0 6 -10 11 -22 12 -13 1 -32 2 -43 3 -11 1 -33
3 -48 4 l-28 2 6 57 c10 93 14 1008 4 1024 -5 9 -9 -17 -10 -71 -2 -68 -3 -77
-9 -45 -10 55 -1 369 11 373 5 2 6 9 2 15 -10 16 -12 176 -3 202 4 11 11 49
15 85 11 102 13 757 3 940 -4 91 -10 627 -11 1192 l-3 1027 28 -6 c17 -3 28
-1 28 6 0 6 -12 11 -26 11 -16 0 -28 7 -31 18 -2 9 -23 29 -46 44 -23 15 -83
64 -133 110 -95 87 -205 171 -213 163 -16 -17 76 -118 155 -171 39 -26 144
-123 144 -134 0 -3 -51 -2 -112 3 -109 8 -398 4 -674 -9 l-131 -7 -44 54 c-24
30 -80 88 -124 129 -44 41 -81 77 -83 80 -1 3 172 4 385 2 288 -3 398 0 426 9
20 7 37 16 37 20 0 16 -324 18 -855 5 -44 -1 -50 -3 -47 -21 4 -33 4 -47 -3
-110 -8 -81 -11 -399 -7 -908 1 -230 0 -422 -3 -427 -4 -6 -1 -10 4 -10 6 0
11 -4 11 -10 0 -5 -7 -7 -17 -3 -14 6 -15 0 -10 -53 7 -74 -2 -59 -48 74 -19
53 -53 142 -75 197 -23 55 -57 146 -76 201 -18 56 -63 170 -99 253 -36 83 -76
180 -89 214 -55 144 -89 224 -108 256 l-22 34 29 -7 c29 -7 29 -7 11 13 -10
11 -24 17 -30 15 -17 -6 -139 153 -130 169 4 7 4 9 0 6 -8 -8 -96 82 -96 98 0
5 -14 22 -31 39 l-31 29 8 -30 c4 -16 23 -55 43 -86 46 -73 172 -219 189 -219
6 0 12 -4 12 -8 0 -11 -708 -3 -742 8 -17 6 -28 5 -28 -1 0 -5 -25 -9 -54 -9
-49 0 -58 4 -85 32 -17 18 -47 61 -67 96 -21 35 -52 79 -70 99 -18 20 -32 39
-29 42 2 4 57 3 122 -1 219 -13 712 -14 702 -2 -13 16 -157 23 -549 29 l-335
5 -30 39 c-16 22 -34 40 -39 41 -4 0 4 -16 19 -36z m2034 -392 c2 -15 3 -34 2
-42 -6 -127 -14 -226 -17 -230 -11 -10 -22 26 -28 91 -4 38 -14 81 -22 97
l-14 27 0 -42 c0 -24 4 -43 9 -43 12 0 26 -105 16 -120 -13 -20 -25 11 -21 52
2 21 1 38 -4 38 -4 0 -11 -46 -14 -102 -4 -57 -10 -124 -13 -150 -3 -30 -1
-48 5 -48 14 0 26 82 18 120 -6 33 1 60 16 60 6 0 9 -35 7 -90 -3 -55 0 -90 6
-90 6 0 11 37 11 88 1 66 5 87 15 87 11 0 14 -36 16 -183 2 -160 0 -184 -14
-189 -14 -6 -14 -7 1 -19 15 -11 17 -33 14 -202 -3 -168 -8 -216 -22 -201 -2
2 -7 36 -10 74 -7 98 -9 100 -15 15 -6 -73 -22 -101 -29 -50 -2 14 -8 29 -13
35 -5 5 -9 21 -9 35 0 14 -7 35 -15 46 -14 17 -15 13 -10 -48 3 -43 2 -68 -5
-68 -5 0 -11 7 -11 15 -2 17 -5 34 -9 38 -1 1 -4 36 -6 77 -2 41 -10 98 -18
125 -10 30 -12 51 -6 53 6 2 10 16 9 30 0 24 -1 25 -9 7 -5 -11 -9 -15 -10
-10 -2 6 -6 -3 -9 -20 -4 -16 -4 -34 0 -40 8 -12 5 -82 -4 -92 -4 -3 -7 0 -8
8 0 8 -3 46 -6 84 -7 81 -7 122 0 187 2 26 2 49 0 52 -3 2 -6 169 -8 370 -2
201 -7 370 -10 376 -3 6 -3 19 0 30 5 17 23 4 124 -95 83 -82 118 -123 120
-143z m-1749 6 c0 -10 -5 -18 -11 -18 -5 0 -7 -5 -4 -10 4 -6 6 -158 5 -338 0
-180 -3 -975 -6 -1767 -2 -792 -6 -1469 -8 -1504 -3 -35 -10 -67 -17 -71 -7
-5 -8 -13 -3 -21 11 -17 12 -119 2 -113 -5 3 -8 -6 -8 -20 0 -13 6 -26 13 -29
6 -2 8 -8 4 -13 -19 -20 -35 59 -29 138 1 9 -5 18 -12 21 -12 5 -14 -9 -10
-76 3 -45 1 -111 -5 -147 -5 -36 -6 -69 -4 -73 8 -14 9 -307 1 -307 -5 0 -8
12 -9 28 0 15 -2 41 -4 57 -2 17 -6 115 -8 218 -3 103 -7 190 -10 193 -3 3 -3
12 0 20 3 8 1 14 -4 14 -14 0 -12 103 1 113 8 5 7 9 -2 15 -7 5 -12 17 -11 28
1 10 1 33 0 49 -1 23 -3 27 -11 15 -9 -15 -8 -100 5 -395 4 -82 4 -147 1 -144
-6 5 -10 50 -21 204 -3 44 -8 121 -12 170 -6 87 -7 265 -2 390 2 34 0 66 -4
72 -9 15 23 54 36 46 6 -3 7 -1 3 6 -6 9 -11 9 -22 0 -11 -9 -14 -7 -14 10 0
12 5 19 10 16 6 -3 10 0 10 9 0 8 -6 17 -12 19 -8 3 -6 6 4 6 19 1 15 28 -7
46 -13 11 -15 83 -2 103 5 7 4 12 -3 12 -6 0 -8 5 -5 10 5 8 11 7 21 -1 9 -8
9 -1 -3 22 -11 22 -18 60 -18 103 -1 44 -6 71 -13 74 -8 2 -10 -3 -6 -15 4
-13 3 -14 -3 -5 -6 7 -10 32 -10 55 l-1 42 10 -32 c6 -17 17 -34 25 -37 11 -4
11 -1 3 14 -8 15 -8 20 1 20 8 0 8 4 -1 15 -7 8 -8 15 -3 15 13 0 15 57 2 65
-17 11 -23 -3 -9 -20 10 -12 10 -15 -4 -15 -11 0 -15 -5 -10 -12 4 -8 3 -10
-2 -5 -13 13 -11 60 4 72 10 8 10 20 3 50 l-10 40 2 -37 c1 -20 -2 -40 -6 -44
-4 -4 -7 4 -8 17 -2 45 3 74 13 78 6 2 5 7 -2 11 -10 6 -14 59 -17 197 -9 355
-8 1468 0 1538 5 39 9 107 9 153 0 46 4 82 9 82 6 0 7 5 3 11 -3 6 -8 151 -9
323 -1 171 -6 339 -10 374 -10 78 6 82 52 14 18 -26 41 -57 51 -68 43 -46 46
-63 48 -249 2 -226 2 -225 12 -225 4 0 8 95 9 211 l1 210 -80 102 -80 102 106
-105 c58 -57 106 -113 106 -122z m248 22 c50 0 92 -4 92 -9 0 -9 -99 -20 -198
-23 -29 -1 -55 -5 -59 -11 -6 -10 144 -5 332 12 100 9 297 19 433 23 29 1 57
-3 61 -8 9 -10 34 -105 29 -110 -2 -1 -19 19 -37 47 -45 65 -54 54 -11 -13 88
-137 172 -328 321 -728 17 -47 36 -96 42 -110 6 -14 10 -28 9 -32 -1 -5 3 -8
9 -8 5 0 8 -4 4 -9 -3 -6 9 -38 26 -73 43 -86 40 -79 113 -296 36 -106 81
-232 101 -281 19 -49 35 -98 35 -109 0 -12 4 -23 8 -26 5 -3 14 -31 21 -63 7
-32 17 -62 21 -68 4 -5 20 -41 35 -79 15 -38 31 -77 36 -85 4 -9 30 -63 57
-121 46 -100 95 -170 108 -157 4 4 -5 39 -19 80 -25 69 -27 87 -33 342 -7 305
-7 280 -1 323 2 17 1 32 -4 32 -8 0 -5 68 4 76 3 3 1 22 -4 42 -5 25 -4 39 4
44 9 6 9 8 0 8 -7 0 -13 5 -13 11 0 5 3 8 8 6 9 -6 10 45 16 743 3 311 5 575
5 587 1 22 2 22 159 21 86 -1 232 2 323 6 l166 8 6 -33 c8 -55 13 -1735 9
-3619 0 -399 1 -734 3 -745 2 -11 7 -109 10 -219 l5 -199 -38 6 c-20 4 -142 7
-270 8 -128 0 -241 3 -251 6 -23 6 -35 53 -15 53 21 0 17 9 -16 40 -16 15 -30
35 -30 44 0 15 6 15 48 -1 9 -3 27 -8 39 -10 19 -3 20 -1 10 21 -7 14 -13 21
-15 16 -5 -13 -49 -13 -57 0 -4 6 -14 9 -23 8 -11 -2 -17 3 -16 14 1 10 -2 16
-6 13 -4 -2 -16 24 -28 58 -50 151 -93 273 -102 287 -32 49 -54 107 -155 401
-35 103 -109 284 -117 287 -5 2 -8 10 -8 18 0 17 -21 56 -35 66 -6 4 -2 8 8 8
21 0 21 -2 -3 48 -22 45 -37 82 -39 95 0 4 -8 22 -18 40 -9 17 -18 41 -19 52
-1 11 -19 56 -39 100 -20 44 -41 89 -46 100 -5 11 -23 61 -40 110 -17 50 -36
99 -43 110 -7 11 -16 33 -20 50 -10 38 -159 433 -177 467 -5 10 -7 23 -4 30 3
7 1 27 -4 43 -5 17 -10 22 -10 13 -2 -33 -41 -10 -41 24 0 10 -7 18 -15 18 -8
0 -15 5 -15 10 0 6 -5 10 -11 10 -11 0 29 -72 43 -78 11 -5 10 -32 -1 -32 -5
0 -11 6 -14 13 -2 6 -7 9 -11 5 -4 -3 0 -18 10 -33 15 -22 16 -40 10 -128 -4
-56 -7 -150 -6 -208 5 -465 -3 -1834 -11 -2019 -1 -8 1 -24 4 -35 3 -11 6 -42
8 -69 l4 -49 -180 1 c-99 1 -293 1 -431 2 l-252 0 -6 43 c-6 38 -8 651 -6
1970 0 342 3 497 11 497 5 0 8 4 5 9 -9 14 -19 1864 -11 2042 7 157 8 168 29
178 13 7 14 10 3 6 -20 -5 -32 16 -23 41 5 13 16 15 64 11 31 -4 99 -6 150 -7z
m2368 -1105 c-3 -8 -1 -16 4 -16 6 -1 15 -2 22 -3 15 -1 19 -336 4 -336 -5 0
-3 -6 4 -14 9 -12 8 -15 -9 -13 -29 2 -35 26 -9 36 13 4 17 10 11 14 -7 4 -9
23 -6 47 6 42 -8 54 -26 23 -9 -16 -10 -16 -11 -1 0 9 -13 22 -30 30 l-30 13
0 88 c0 86 1 88 23 85 21 -3 22 -7 21 -91 0 -59 3 -86 10 -84 7 2 11 45 11
120 0 65 4 117 8 117 5 0 7 -7 3 -15z m0 -1191 c-4 -9 0 -27 9 -40 11 -18 15
-50 13 -136 0 -62 2 -124 6 -138 5 -17 4 -21 -2 -11 -7 9 -12 10 -16 2 -4 -6
0 -14 8 -17 12 -5 16 -21 16 -65 0 -38 4 -59 12 -59 6 0 9 -3 6 -6 -4 -3 -16
-1 -27 6 -12 6 -20 7 -19 3 3 -8 -5 -13 -20 -13 -5 0 -8 17 -6 38 4 50 4 50
16 22 10 -22 12 -23 15 -6 3 10 0 23 -6 29 -17 17 -13 27 7 21 14 -5 14 -3 -2
10 -20 16 -30 56 -14 56 5 0 6 5 2 11 -3 6 -6 62 -7 125 0 104 -2 114 -19 114
-10 0 -18 5 -18 10 0 6 7 10 15 10 9 0 15 9 15 25 0 14 5 25 11 25 6 0 8 -7 5
-16z m-1291 -1144 c3 -5 1 -10 -6 -10 -8 0 -5 -9 8 -22 27 -31 64 -115 77
-178 1 -3 21 -44 45 -92 23 -48 40 -91 37 -97 -4 -5 7 -35 24 -67 25 -45 29
-59 18 -65 -11 -8 -6 -12 12 -11 3 0 10 -10 17 -24 6 -13 7 -24 3 -24 -10 0
-7 -15 8 -53 14 -34 15 -37 4 -37 -5 0 -17 19 -26 43 -10 23 -33 76 -52 117
-18 41 -44 107 -58 145 -14 39 -43 114 -65 168 -23 53 -41 106 -41 117 0 11
-4 20 -8 20 -7 0 -32 57 -32 73 0 11 28 8 35 -3z m1300 -52 c-1 -13 2 -29 8
-35 6 -9 6 -13 -2 -13 -6 0 -11 -4 -11 -10 0 -5 8 -7 18 -3 15 5 14 4 -2 -9
-17 -13 -17 -15 -2 -21 9 -4 16 -2 16 3 0 6 5 10 10 10 6 0 10 -9 10 -20 0
-15 6 -19 23 -17 21 2 22 -2 24 -75 2 -76 1 -78 -23 -78 -23 0 -24 3 -24 65 0
49 -3 65 -14 65 -19 0 -23 -24 -18 -98 3 -48 8 -62 18 -58 16 6 20 -29 4 -39
-5 -3 -10 1 -10 9 0 9 -8 16 -17 15 -11 0 -13 -3 -5 -6 6 -2 10 -9 7 -14 -3
-5 -1 -17 5 -28 6 -13 6 -22 0 -26 -14 -8 -1 -33 21 -40 30 -10 22 -22 -10
-17 -36 5 -38 20 -37 209 1 73 -1 133 -4 133 -3 0 -4 24 -3 52 2 71 2 68 11
68 5 0 8 -10 7 -22z m-2833 -284 c0 -32 0 -90 0 -129 -2 -85 -2 -69 -1 -290 0
-99 3 -207 8 -240 9 -65 7 -75 -11 -57 -16 16 -24 210 -21 517 3 282 3 279 15
267 5 -5 9 -35 10 -68z m2868 -184 c0 -5 -6 -10 -12 -12 -7 -3 6 -5 29 -6 36
-2 42 1 46 21 2 12 3 -14 1 -58 -4 -96 -15 -139 -37 -143 -15 -3 -17 7 -17 82
0 47 -4 86 -9 86 -14 0 -21 -39 -21 -113 0 -45 -5 -73 -14 -82 -19 -20 -26 -8
-12 20 11 21 13 63 6 161 -4 55 -1 62 20 57 11 -3 20 -9 20 -13z"/>
<path d="M16740 7310 c-6 -11 -8 -58 -6 -112 l4 -93 62 1 c38 1 65 6 70 14 7
12 3 171 -5 198 -3 8 -24 12 -59 12 -45 0 -57 -4 -66 -20z"/>
<path d="M16935 7318 c-3 -8 -4 -59 -3 -114 l3 -99 59 1 c37 1 62 6 67 15 11
16 8 184 -4 195 -4 4 -32 9 -62 12 -42 3 -56 1 -60 -10z"/>
<path d="M17130 7304 c-6 -14 -10 -61 -10 -104 0 -77 1 -80 26 -86 25 -6 101
0 111 9 2 3 2 51 -2 106 l-8 101 -54 0 c-48 0 -54 -2 -63 -26z"/>
<path d="M16747 6923 c-4 -3 -7 -57 -7 -120 l0 -113 43 0 c86 0 84 -2 85 118
1 72 -3 109 -11 114 -15 9 -101 10 -110 1z"/>
<path d="M16937 6923 c-4 -3 -7 -55 -7 -114 0 -123 3 -127 86 -114 l44 6 0
109 c0 89 -3 109 -16 114 -21 8 -99 8 -107 -1z"/>
<path d="M17132 6913 c-4 -10 -7 -60 -7 -112 l0 -95 29 -7 c16 -5 45 -5 65 -1
l36 8 0 109 0 110 -58 3 c-47 2 -58 0 -65 -15z"/>
<path d="M16768 6502 l-28 -3 0 -115 0 -115 63 3 62 3 0 110 0 110 -35 5 c-19
3 -47 4 -62 2z"/>
<path d="M16959 6504 c-21 -6 -29 -46 -29 -140 0 -72 1 -75 27 -85 15 -5 44
-7 64 -4 31 5 38 11 43 37 9 45 7 176 -2 182 -14 8 -85 15 -103 10z"/>
<path d="M16750 6095 c-14 -16 -15 -39 -12 -152 2 -61 4 -71 18 -66 13 5 15
22 12 102 l-3 96 33 3 32 3 0 -54 c0 -86 11 -147 26 -147 11 0 14 23 14 105 0
104 0 106 -26 115 -37 15 -80 12 -94 -5z"/>
<path d="M16958 6103 c-25 -4 -28 -9 -28 -41 0 -20 -3 -67 -6 -103 -4 -39 -2
-69 3 -72 6 -4 29 -9 53 -13 31 -5 41 -4 36 4 -4 7 -16 12 -27 12 -17 0 -19 8
-19 85 0 47 0 88 0 93 0 4 12 7 27 7 25 0 27 -3 28 -45 3 -139 5 -150 20 -150
10 0 15 10 15 28 0 15 2 62 4 105 1 43 0 79 -3 81 -12 8 -77 13 -103 9z"/>
<path d="M17125 6058 c-3 -24 -5 -74 -3 -113 l3 -70 35 -5 c19 -3 49 -1 67 5
l31 9 -4 101 c-2 55 -4 103 -4 108 0 4 -27 7 -59 7 l-60 0 -6 -42z"/>
<path d="M16751 5696 c-8 -9 -11 -50 -9 -117 l3 -104 63 -3 62 -3 0 114 c0
110 -1 115 -22 121 -39 10 -85 7 -97 -8z"/>
<path d="M16958 5703 l-28 -4 0 -109 0 -108 45 -6 c68 -11 85 3 87 72 2 64 0
144 -4 148 -7 6 -76 11 -100 7z m82 -119 l0 -95 -42 3 -43 3 -3 79 c-2 43 -1
85 2 92 3 9 21 14 46 14 l40 0 0 -96z"/>
<path d="M17148 5703 c-10 -2 -18 -5 -18 -6 -1 -1 -4 -47 -7 -101 -5 -89 -4
-101 13 -113 19 -14 82 -17 100 -5 7 4 13 51 16 114 4 101 4 107 -16 112 -24
6 -62 6 -88 -1z"/>
<path d="M16748 5269 c-15 -8 -18 -26 -18 -113 0 -114 1 -116 63 -116 78 0 78
0 75 124 l-3 111 -50 2 c-27 2 -58 -2 -67 -8z"/>
<path d="M16937 5274 c-4 -4 -7 -56 -7 -115 l0 -107 33 -6 c18 -3 48 -3 66 0
l32 7 -3 111 -3 111 -55 3 c-31 2 -59 0 -63 -4z"/>
<path d="M17148 5270 c-15 -9 -18 -27 -18 -115 0 -118 2 -120 79 -107 l44 7
-2 105 c-1 57 -4 106 -6 108 -10 10 -82 11 -97 2z"/>
<path d="M16545 5260 c-4 -6 -3 -55 1 -110 l7 -100 49 0 49 0 -3 108 -3 107
-47 3 c-26 2 -49 -2 -53 -8z"/>
<path d="M16557 4843 c-4 -3 -7 -53 -7 -110 0 -92 2 -103 18 -103 16 0 18 9
14 95 -4 82 -2 95 12 97 9 0 21 1 27 2 6 1 11 -33 12 -91 2 -91 9 -115 27 -97
7 7 14 137 11 202 -1 13 -102 18 -114 5z"/>
<path d="M16744 4837 c-2 -7 -3 -58 -2 -113 l3 -99 39 -3 c78 -7 83 -2 91 91
3 45 3 95 0 110 -7 26 -10 27 -66 27 -40 0 -61 -4 -65 -13z m104 -104 l3 -93
-46 0 -45 0 0 88 c0 49 3 92 7 96 4 4 23 6 43 4 l35 -3 3 -92z"/>
<path d="M16947 4842 c-9 -13 -11 -198 -3 -211 9 -13 65 -15 98 -2 22 8 23 13
23 112 l0 104 -57 3 c-31 2 -59 -1 -61 -6z"/>
<path d="M17140 4831 c-5 -11 -10 -60 -10 -109 l0 -90 32 -4 c18 -3 44 -2 58
2 24 6 25 11 33 100 4 52 5 100 3 107 -4 8 -23 13 -55 13 -39 0 -53 -4 -61
-19z"/>
<path d="M16571 4441 c-11 -7 -14 -33 -14 -103 0 -52 3 -100 7 -107 9 -13 70
-13 98 1 14 7 16 23 14 110 l-2 103 -45 3 c-24 1 -50 -2 -58 -7z"/>
<path d="M16756 4428 c-3 -13 -6 -62 -6 -109 0 -96 2 -99 68 -99 57 0 61 6 59
95 -1 44 1 92 6 108 l7 27 -64 0 c-58 0 -64 -2 -70 -22z"/>
<path d="M16947 4443 c-3 -5 -7 -55 -8 -112 l-4 -105 33 -8 c22 -6 46 -5 68 2
l34 12 0 109 0 109 -59 0 c-33 0 -62 -3 -64 -7z m91 -111 c3 -101 -2 -111 -53
-98 -24 6 -25 9 -25 95 0 48 3 91 7 95 4 4 21 6 38 4 l30 -3 3 -93z"/>
<path d="M17189 4443 l-36 -4 -6 -102 c-2 -56 -1 -106 4 -111 5 -5 25 -5 51 0
l43 9 3 108 c2 82 0 107 -10 105 -7 -1 -29 -3 -49 -5z"/>
<path d="M16566 3983 c-3 -27 -5 -74 -5 -106 1 -69 16 -90 62 -81 18 3 39 7
47 8 16 3 16 23 4 139 -6 63 -27 87 -75 87 -25 0 -28 -4 -33 -47z"/>
<path d="M16770 4015 c-8 -10 -13 -50 -14 -108 l-1 -92 43 -3 c33 -2 47 1 58
15 16 22 19 155 4 184 -13 23 -72 26 -90 4z"/>
<path d="M16956 4014 c-23 -23 -23 -199 0 -208 27 -11 91 -6 101 7 6 7 8 54 5
108 l-4 97 -30 6 c-45 9 -55 8 -72 -10z"/>
<path d="M17167 4016 c-20 -11 -22 -20 -25 -109 l-3 -97 34 0 c18 0 45 6 59
12 27 13 28 20 19 184 -1 17 -57 23 -84 10z"/>
<path d="M16951 3625 c-3 -11 -6 -58 -6 -105 l0 -84 39 -8 c25 -5 43 -5 50 2
5 5 17 10 26 10 13 0 15 14 12 92 -2 51 -5 99 -7 106 -3 8 -22 11 -56 10 -41
-2 -52 -6 -58 -23z"/>
<path d="M16756 3592 c-10 -74 -7 -149 7 -160 18 -15 48 -16 85 -2 31 11 38
27 32 69 -1 9 4 12 14 8 12 -5 16 0 16 18 0 14 -4 25 -8 25 -5 0 -9 14 -10 31
-1 47 -17 59 -77 58 l-53 -2 -6 -45z"/>
<path d="M17140 3601 c0 -21 -3 -66 -6 -100 l-7 -61 42 0 c75 0 81 8 81 110
l0 90 -55 0 -55 0 0 -39z"/>
<path d="M4768 7968 c-2 -24 -7 -32 -18 -29 -49 14 -923 5 -884 -9 49 -18 674
-30 787 -16 55 7 67 6 67 -5 0 -8 -8 -19 -19 -24 -31 -17 -205 -151 -230 -179
-14 -14 -30 -26 -36 -26 -7 0 -23 -15 -36 -34 l-23 -34 -231 5 c-254 6 -349
21 -139 22 175 1 344 12 344 22 0 5 -51 6 -112 3 -62 -3 -173 -5 -245 -5 -113
-1 -134 -3 -143 -17 -8 -14 -9 -14 -10 -2 0 12 -2 13 -9 1 -7 -12 -12 -11 -30
1 -14 10 -38 14 -74 11 -95 -7 -137 -14 -132 -23 5 -8 -83 -25 -91 -17 -3 3
15 18 39 33 83 54 282 192 312 217 17 14 27 28 23 32 -8 8 -78 -31 -178 -100
-73 -51 -279 -188 -316 -212 -17 -10 -16 -11 11 -10 28 2 30 -1 36 -43 4 -25
7 -216 8 -425 1 -209 5 -450 9 -535 4 -85 6 -189 4 -231 l-3 -75 -29 4 c-20 3
-37 16 -54 42 -37 57 -63 61 -101 17 -31 -36 -32 -36 -141 -45 -60 -5 -111 -6
-114 -2 -3 5 -5 271 -5 592 0 459 3 582 12 581 10 -2 12 29 8 140 -4 130 -11
233 -17 254 -1 4 2 22 6 40 6 27 12 32 44 36 53 6 -725 -2 -833 -9 -98 -6
-144 -21 -190 -64 -43 -40 -189 -124 -193 -111 -6 17 -22 13 -22 -5 0 -19 -19
-36 -73 -65 -37 -20 -39 -20 -53 -2 -7 10 -14 22 -14 26 0 5 -4 6 -9 3 -5 -3
-7 -14 -4 -25 3 -12 -3 -24 -18 -35 -19 -13 -20 -16 -6 -16 13 0 17 -8 16 -32
0 -18 2 -112 5 -208 20 -589 25 -759 22 -792 -20 -186 -24 -819 -7 -1078 7
-110 6 -904 -2 -1245 -3 -126 40 -478 62 -510 4 -5 8 -23 10 -40 6 -68 110
-294 187 -409 18 -28 31 -52 28 -55 -2 -3 -41 31 -86 75 -44 43 -73 68 -64 54
37 -56 355 -365 416 -405 36 -23 70 -48 77 -57 7 -8 14 -47 17 -87 4 -67 2
-73 -18 -81 -13 -5 65 -9 199 -9 135 -1 234 -5 255 -12 47 -16 756 -24 765 -9
5 8 -115 17 -162 11 -6 -1 -14 3 -18 9 -3 5 -28 10 -56 10 -27 0 -49 5 -49 10
0 13 97 13 102 0 2 -7 21 -7 58 0 74 15 223 12 250 -5 7 -4 76 -9 153 -10 106
-2 149 1 176 12 27 11 40 12 53 4 25 -15 35 -14 58 9 11 11 27 20 35 20 8 0
15 7 15 15 0 8 5 15 11 15 6 0 9 9 6 20 -3 11 -1 20 5 20 5 0 25 7 44 16 19 9
38 14 41 10 4 -4 -3 -9 -15 -13 -42 -11 -22 -23 41 -25 34 0 69 0 77 0 8 1 86
2 173 2 97 0 157 4 157 10 0 11 -23 13 -155 10 -49 -1 -101 3 -115 9 -28 11
-23 13 34 15 47 1 63 26 17 26 -17 0 -31 5 -31 10 0 6 7 10 16 10 8 0 12 5 9
10 -7 11 -75 14 -75 4 0 -4 8 -13 18 -20 17 -13 14 -14 -73 -14 -3 0 -6 3 -7
8 -1 4 11 9 28 12 l29 6 -30 6 c-20 4 -38 1 -55 -10 -30 -20 -110 -24 -103 -4
6 15 -21 16 -47 2 -15 -8 -18 -7 -14 3 3 9 -3 17 -15 20 -12 3 -21 10 -21 16
0 13 26 15 34 3 3 -5 39 -7 81 -4 51 3 75 1 75 -7 0 -6 -17 -11 -40 -11 -23 0
-40 -5 -40 -11 0 -13 81 -4 90 10 16 25 516 37 603 16 16 -5 27 -3 27 3 0 16
-87 25 -309 31 -13 1 -21 4 -17 8 8 9 202 6 259 -3 20 -3 37 -2 37 4 0 5 -43
12 -96 15 -54 4 -99 9 -102 12 -9 9 3 14 36 17 21 1 31 7 28 15 -3 8 8 15 32
19 l37 8 -35 7 c-19 4 -90 10 -158 13 -67 3 -126 7 -131 10 -4 3 -28 3 -52 0
-74 -10 -130 -10 -136 -1 -5 8 -55 5 -145 -10 -50 -7 -48 5 5 53 75 67 396
407 392 415 -3 4 13 38 34 76 41 73 94 193 84 193 -3 0 -1 6 4 13 5 6 15 32
22 57 7 25 21 72 32 105 10 33 19 68 19 77 0 10 7 38 16 63 15 46 42 177 50
250 12 100 11 116 -5 125 -14 8 -14 9 2 10 10 0 16 4 12 9 -5 10 -13 100 -21
271 -11 237 -19 1862 -12 2525 1 61 -1 197 -4 303 l-5 192 38 22 c22 12 39 25
39 30 0 11 -14 10 -25 -1 -20 -19 -50 -17 -51 4 -1 11 -2 35 -3 53 0 17 -5 32
-10 32 -6 0 -11 -15 -13 -32z m-1778 -60 c0 -7 -12 -20 -28 -30 -53 -32 -148
-101 -188 -138 -67 -62 -121 -93 -149 -88 -25 5 -35 -7 -12 -15 34 -12 -20
-18 -233 -23 -182 -4 -235 -3 -241 7 -5 9 -53 13 -183 13 -97 1 -176 3 -175 6
0 8 88 66 184 121 50 29 105 67 124 86 l34 33 236 0 c209 0 316 5 536 25 32 3
61 8 64 10 9 10 31 4 31 -7z m-22 -348 c-12 -358 -12 -343 -3 -720 4 -173 4
-368 0 -433 -7 -115 -8 -118 -26 -101 -14 13 -19 31 -19 75 0 36 -5 59 -12 63
-10 5 -10 7 0 12 10 5 9 10 -5 21 -17 13 -17 14 0 9 14 -5 17 1 17 39 0 26 -5
45 -11 45 -6 0 -8 -7 -5 -16 3 -8 -2 -34 -13 -57 -14 -33 -17 -55 -12 -104 5
-50 3 -65 -11 -83 -10 -12 -18 -35 -18 -50 0 -23 -6 -29 -39 -38 -61 -19 -68
-16 -69 26 -3 103 -15 212 -24 212 -6 0 -7 -16 -4 -37 12 -83 11 -226 -1 -230
-10 -4 -13 25 -15 119 0 68 -1 130 0 138 1 8 2 39 3 68 1 29 6 55 10 58 5 3 5
13 1 22 -5 9 -7 114 -5 232 2 202 2 283 -2 355 -1 17 2 39 5 50 4 11 4 31 0
45 -3 14 -2 43 3 65 8 37 12 88 15 210 2 49 4 51 64 100 72 58 160 146 153
153 -3 3 2 14 12 24 9 10 17 17 19 16 1 -2 -2 -131 -8 -288z m1787 -884 c0
-640 -2 -1162 -5 -1159 -6 6 -7 12 -8 126 -1 53 -5 97 -9 97 -5 0 -8 -30 -7
-68 3 -167 3 -172 20 -172 14 0 15 -11 8 -82 -4 -46 -7 -92 -7 -103 1 -24 10
-252 18 -425 3 -69 8 -154 10 -190 2 -36 2 -59 -1 -52 -13 29 -22 7 -29 -70
-8 -94 -22 -173 -25 -143 -1 11 -2 56 -2 100 -1 105 -15 68 -20 -51 -3 -71 0
-91 12 -101 12 -9 13 -17 3 -45 -6 -18 -12 -67 -13 -108 0 -41 -4 -77 -8 -80
-10 -7 -8 -91 2 -113 5 -10 4 -23 -2 -30 -8 -10 -24 -62 -21 -69 2 -7 -55
-155 -66 -172 -12 -16 -13 -12 -9 25 2 24 9 46 14 47 6 2 10 8 10 13 0 6 -4 7
-10 4 -14 -9 -12 1 3 17 19 20 38 68 27 68 -6 0 -10 5 -10 10 0 6 7 10 16 10
8 0 12 5 9 10 -4 6 -12 7 -18 3 -9 -5 -9 -3 -1 8 5 8 9 25 8 39 -1 14 2 27 6
30 9 6 22 60 14 60 -11 0 -34 -29 -34 -43 0 -7 -3 -17 -6 -20 -4 -4 -8 -19 -9
-34 -3 -32 -40 -119 -55 -128 -6 -4 -8 -11 -5 -16 4 -5 1 -17 -5 -26 -10 -16
-11 -16 -7 4 3 12 0 24 -5 25 -7 3 -6 12 3 26 12 20 12 24 -1 32 -11 7 -20 3
-32 -13 -9 -12 -15 -24 -12 -26 2 -3 11 4 19 15 13 17 14 17 15 2 0 -9 -5 -20
-11 -24 -8 -4 -7 -9 2 -14 10 -7 10 -12 1 -23 -7 -8 -9 -22 -6 -32 5 -13 3
-16 -7 -13 -14 5 -65 -70 -54 -80 2 -3 -4 -19 -15 -37 -11 -18 -17 -35 -14
-38 4 -3 -3 -19 -15 -35 -12 -17 -21 -34 -21 -39 0 -12 -39 -93 -45 -93 -3 0
5 24 16 53 29 72 49 132 64 191 8 28 18 62 23 76 5 14 10 29 10 33 1 4 11 17
24 27 17 14 19 19 7 20 -8 0 -20 -5 -27 -12 -7 -7 -12 -9 -12 -5 0 3 12 18 26
32 17 17 23 32 19 45 -4 11 -2 20 4 20 6 0 11 -6 12 -12 0 -7 4 -4 9 7 7 17 9
17 9 3 1 -10 3 -18 5 -18 2 0 11 -2 19 -6 9 -3 19 6 27 26 13 31 6 55 -9 31
-5 -7 -14 -10 -20 -6 -9 5 -9 10 -1 20 7 8 8 20 4 27 -4 7 3 4 16 -7 l23 -20
-7 21 c-5 15 -2 24 10 28 9 4 14 9 11 13 -4 3 0 18 7 32 8 14 19 45 25 69 7
23 16 42 22 42 6 0 8 18 4 48 -3 26 -8 68 -11 93 -2 26 -11 65 -19 89 -8 23
-15 73 -15 111 0 44 -4 69 -11 69 -7 0 -10 -12 -7 -30 6 -37 -4 -38 -27 -3
-16 24 -17 38 -8 135 10 110 17 134 33 108 12 -19 15 -14 28 40 7 28 8 59 3
83 -5 20 -5 37 -1 37 4 0 5 11 2 25 -2 14 -8 25 -12 25 -5 0 -6 -9 -3 -20 3
-11 1 -20 -5 -20 -5 0 -12 12 -15 28 -6 27 -29 109 -42 147 -6 17 -5 18 5 5
10 -12 11 -10 5 10 -11 45 -13 90 -4 90 5 0 4 11 -1 24 -5 13 -9 33 -10 43 -9
213 -10 336 -2 328 6 -5 15 -71 20 -145 8 -126 9 -129 10 -45 0 89 -13 285
-16 233 -2 -29 -22 -40 -22 -13 0 8 -4 15 -10 15 -6 0 -8 -56 -5 -155 3 -106
1 -155 -6 -155 -6 0 -9 7 -6 14 4 10 1 13 -8 10 -7 -3 -18 4 -24 15 -14 25
-14 44 -1 36 6 -4 10 7 10 25 0 17 -3 29 -8 26 -4 -2 -6 13 -4 35 2 22 -1 45
-7 53 -6 7 -13 72 -16 147 -2 74 -7 208 -11 299 -7 198 -15 608 -15 740 1 742
1 727 24 739 37 18 59 34 101 73 22 20 42 35 46 33 3 -2 6 5 6 16 0 10 -2 19
-4 19 -2 0 -27 -19 -55 -43 -74 -60 -117 -89 -117 -78 0 6 15 21 33 34 17 13
56 41 85 63 30 21 60 38 69 36 9 -2 13 2 11 10 -6 16 18 41 32 33 5 -3 10 1
10 10 0 12 5 15 16 11 10 -4 14 -1 12 6 -2 6 10 24 26 40 17 15 31 28 31 28 0
0 0 -524 0 -1164z m-2730 934 c112 -2 113 -6 5 -28 -32 -7 46 -10 265 -10
l310 0 3 -294 c1 -161 3 -466 4 -678 l2 -385 -26 2 c-41 3 -79 -38 -76 -81 1
-20 0 -37 -2 -39 -3 -3 -34 -28 -70 -57 -64 -51 -66 -51 -116 -45 -46 5 -54 3
-84 -21 -30 -26 -32 -31 -27 -77 4 -47 2 -51 -46 -105 -27 -32 -56 -67 -64
-79 -11 -17 -25 -23 -53 -23 -30 0 -43 -6 -59 -26 -24 -31 -27 -72 -7 -99 12
-16 8 -30 -35 -119 -41 -86 -53 -102 -80 -111 -17 -6 -37 -19 -45 -30 -19 -26
-18 -84 2 -106 15 -17 15 -27 -1 -129 -16 -100 -21 -113 -46 -130 -15 -11 -30
-20 -33 -20 -3 0 -6 69 -6 153 0 138 -7 301 -26 612 -4 61 -6 252 -3 425 5
441 5 813 -1 1179 l-5 315 25 6 c14 4 61 6 105 5 44 -1 130 -3 190 -5z m1936
-33 c5 -6 59 -9 145 -8 118 1 259 -10 269 -21 2 -2 6 -289 9 -638 8 -903 20
-1328 37 -1394 17 -64 2 -52 -35 29 -19 42 -49 93 -66 115 -16 21 -30 44 -30
51 0 19 46 -28 60 -62 16 -37 32 -28 25 14 -8 48 -37 81 -76 87 -27 4 -53 25
-123 98 -49 50 -84 92 -78 92 16 0 -9 59 -41 93 -25 27 -32 29 -71 24 -39 -6
-51 -1 -131 46 -80 47 -88 55 -90 85 -3 36 -48 92 -74 92 -8 0 -27 -11 -41
-25 -25 -24 -29 -25 -80 -15 -30 6 -57 14 -61 18 -4 4 -10 142 -13 307 -12
624 -25 945 -42 1002 -6 22 -6 22 152 26 199 4 347 -2 355 -16z m-723 -1354
c8 -13 24 -17 70 -17 45 -1 66 -6 83 -21 l23 -20 -18 29 c-18 28 -18 29 0 21
11 -4 29 -10 42 -12 19 -5 22 -11 20 -40 -1 -19 -9 -38 -18 -43 -13 -8 -13 -9
3 -15 9 -4 17 -16 17 -27 0 -14 -5 -18 -17 -14 -10 3 -40 8 -68 11 -89 11 -95
13 -95 40 0 14 -5 25 -11 25 -7 0 -9 -10 -5 -25 4 -17 2 -25 -6 -26 -7 0 -49
-2 -93 -5 -44 -2 -99 -6 -121 -8 -39 -5 -41 -4 -41 19 0 15 5 25 13 25 8 0 14
-4 14 -10 0 -5 4 -10 9 -10 13 0 71 28 106 50 17 11 43 26 58 35 15 9 25 20
22 26 -4 5 -17 2 -33 -9 -15 -10 -34 -22 -42 -25 -8 -4 -28 -16 -45 -27 -16
-11 -36 -23 -43 -26 -19 -9 -49 24 -56 62 l-7 31 63 10 c105 17 166 16 176 -4z
m317 -43 c4 -6 10 -8 15 -5 5 3 17 2 27 -4 10 -5 41 -19 68 -31 91 -40 149
-73 227 -129 79 -57 88 -70 65 -90 -15 -12 -22 -101 -8 -101 5 0 12 22 16 50
8 56 17 67 38 45 9 -8 21 -15 27 -15 31 0 172 -127 201 -181 7 -14 0 -16 -64
-12 -109 7 -172 21 -193 45 -11 11 -65 56 -121 100 -56 43 -103 82 -105 86 -3
8 -130 66 -194 88 l-40 15 -2 56 c-1 30 -4 64 -7 74 -5 15 -1 19 19 19 14 0
28 -5 31 -10z m-995 -136 c0 -3 -7 -21 -16 -40 -23 -47 -11 -54 18 -10 29 46
52 46 65 2 9 -29 8 -37 -6 -49 -30 -25 -70 -47 -86 -47 -22 0 -306 -292 -311
-320 -2 -11 -45 -98 -72 -145 -16 -28 -35 -68 -42 -90 -7 -22 -18 -50 -26 -62
-8 -12 -16 -30 -18 -40 -1 -10 -6 -25 -9 -33 -3 -8 -13 -58 -22 -110 -9 -52
-19 -106 -23 -120 -3 -14 -6 -34 -6 -45 -1 -11 -7 -19 -13 -18 -15 3 -18 -33
-4 -41 5 -3 9 -35 10 -71 0 -36 6 -96 11 -132 6 -36 9 -67 8 -68 -2 -2 -27 19
-57 45 l-55 48 13 43 c7 23 25 55 40 69 35 35 30 52 -10 38 -20 -7 -28 -15
-25 -25 3 -7 1 -21 -4 -31 -5 -9 -17 -34 -26 -54 -9 -21 -21 -38 -27 -38 -6 0
-8 3 -5 6 4 3 2 20 -3 37 -6 22 -5 33 4 39 9 6 9 10 -3 18 -8 5 -10 10 -4 10
6 0 10 10 10 23 -1 16 4 21 19 20 18 -2 17 -1 -3 9 -12 6 -22 18 -20 27 1 9
-2 31 -6 48 -4 18 -4 38 1 45 4 7 8 24 9 38 3 45 25 150 31 150 2 0 13 -5 23
-10 16 -8 18 -15 10 -36 -8 -20 -4 -38 19 -88 16 -35 34 -66 40 -70 17 -11 13
5 -15 54 -18 30 -27 62 -28 97 -1 28 1 51 4 51 17 -1 30 5 51 25 27 25 30 40
12 58 -10 10 -17 9 -33 -8 -12 -13 -15 -23 -8 -25 6 -2 -1 -12 -16 -21 -30
-20 -32 -14 -12 34 7 19 11 40 9 47 -6 15 19 16 35 0 18 -18 14 -3 -9 37 -17
29 -20 41 -11 58 6 12 21 45 33 74 11 29 28 58 37 65 9 7 13 8 10 3 -4 -6 0
-19 8 -30 14 -18 14 -18 14 2 0 14 8 23 27 28 15 3 40 17 56 31 16 13 33 24
38 24 5 0 -7 23 -27 51 l-35 51 25 31 c53 67 104 117 119 117 21 0 21 -4 1
-35 -13 -20 -14 -32 -6 -62 l10 -38 2 35 c4 73 12 85 60 90 35 4 44 9 42 21
-1 9 4 19 13 23 8 3 15 10 15 15 0 15 -44 9 -57 -9 -11 -13 -13 -13 -28 1 -16
15 -15 18 13 38 l31 21 6 -21 c5 -15 10 -18 18 -10 7 7 6 15 -3 26 -11 14 -10
19 6 35 57 57 164 118 164 94z m832 -18 l53 -11 8 -60 c4 -33 6 -179 5 -325
l-3 -265 -49 -95 c-27 -52 -71 -137 -98 -189 -50 -95 -59 -134 -15 -64 20 31
87 155 143 262 19 36 25 10 21 -87 -4 -91 -1 -85 -102 -191 -33 -35 -51 -59
-40 -53 11 6 42 33 70 61 27 28 53 51 57 51 4 0 8 -21 8 -47 l0 -48 -71 -34
c-66 -32 -72 -34 -84 -18 -7 9 -16 17 -20 17 -5 0 -16 7 -26 16 -11 9 -36 16
-64 16 -26 0 -48 5 -51 11 -2 7 -20 86 -39 177 -20 91 -42 197 -51 235 -27
126 -31 177 -33 407 -1 155 1 228 9 233 39 24 265 25 372 1z m-482 -73 c1 -46
2 -66 15 -208 9 -94 16 -125 34 -135 14 -8 14 -11 1 -20 -12 -8 -12 -12 -3
-18 10 -6 12 -51 8 -193 -3 -101 -6 -191 -6 -199 -1 -8 2 -50 6 -92 3 -43 3
-78 -1 -78 -4 0 -26 17 -49 38 -84 73 -130 109 -162 126 -18 9 -37 25 -43 35
-5 11 -10 72 -10 135 0 86 -3 116 -12 117 -9 0 -9 2 1 6 11 5 11 7 0 14 -11 7
-11 9 -1 9 7 0 10 5 6 11 -7 12 -7 19 -19 256 l-7 151 25 17 c27 17 182 74
205 75 8 0 12 -16 12 -47z m702 1 c184 -82 349 -219 506 -424 57 -74 122 -192
122 -221 0 -11 9 -36 19 -57 27 -53 60 -223 66 -342 13 -236 -58 -516 -185
-736 -85 -146 -247 -311 -390 -396 -151 -90 -135 -98 -202 99 -52 150 -75 264
-49 237 8 -8 78 -161 102 -223 5 -13 12 -22 14 -19 6 6 -44 135 -84 217 -30
62 -31 69 -33 218 -2 84 -1 153 1 153 2 0 101 -100 221 -222 120 -123 220
-221 223 -218 3 3 -84 97 -194 210 -251 258 -246 251 -251 323 -3 31 -1 57 3
57 4 0 93 -55 198 -122 105 -68 216 -139 247 -158 32 -19 73 -45 92 -58 19
-13 36 -21 38 -19 3 2 -115 82 -262 177 -146 96 -277 182 -290 192 -19 16 -24
29 -24 65 0 42 1 45 23 38 68 -21 611 -155 625 -154 23 1 -169 54 -430 120
l-218 54 0 41 0 41 111 7 c61 4 134 9 162 12 29 2 133 11 232 19 189 16 304
32 250 34 -16 0 -79 -3 -140 -9 -60 -5 -150 -11 -200 -14 -49 -2 -161 -10
-247 -17 -87 -7 -159 -11 -162 -8 -2 2 -6 26 -7 53 l-4 48 222 98 c281 124
498 229 491 236 -4 3 -14 1 -25 -5 -10 -6 -76 -36 -148 -67 -71 -32 -195 -86
-275 -121 -80 -35 -163 -71 -185 -80 -22 -9 -44 -20 -49 -25 -26 -22 -36 -7
-36 51 l0 59 78 73 c173 165 431 423 427 427 -3 3 -42 -31 -87 -74 -92 -88
-229 -218 -330 -312 -36 -34 -72 -62 -78 -62 -10 0 -11 27 -7 108 l5 107 82
160 c82 158 124 255 112 255 -4 0 -12 -10 -18 -23 -67 -138 -156 -307 -164
-312 -7 -4 -10 84 -10 269 1 231 3 276 15 276 8 0 51 -16 97 -36z m-984 -352
c1 -158 5 -295 8 -304 3 -10 3 -18 1 -18 -3 0 -67 52 -144 116 -126 105 -173
141 -173 131 0 -2 35 -33 78 -69 42 -35 114 -100 160 -142 71 -67 82 -83 82
-111 0 -23 5 -35 17 -37 15 -3 15 -4 -1 -20 -22 -22 -34 -88 -16 -88 7 0 10 7
6 16 -3 8 -2 12 4 9 6 -3 10 -13 10 -21 0 -30 -35 -21 -335 91 -82 30 -154 53
-160 51 -5 -2 -1 -7 10 -11 11 -4 61 -23 110 -42 210 -80 301 -114 323 -123
20 -9 22 -16 22 -93 l0 -84 -267 -7 c-148 -4 -272 -11 -276 -15 -4 -4 116 -6
268 -3 l275 5 0 -71 0 -70 -47 -15 c-27 -9 -141 -44 -255 -78 -115 -34 -208
-65 -208 -69 0 -4 111 26 248 65 136 40 250 70 255 68 4 -2 7 -48 7 -102 l0
-97 -77 -54 c-145 -101 -316 -239 -296 -240 6 0 31 16 55 36 87 73 296 224
310 224 12 0 10 -318 -2 -341 -8 -14 -7 -19 3 -19 10 0 16 -20 20 -72 6 -82
32 -161 77 -231 16 -26 26 -47 22 -47 -4 0 -27 14 -51 30 -24 17 -48 30 -53
30 -4 0 -7 6 -6 13 2 6 -3 11 -10 9 -8 -1 -32 12 -55 30 -77 59 -278 262 -324
328 -73 103 -130 228 -153 335 -5 22 -13 58 -19 80 -22 84 -30 205 -21 313 6
59 12 116 14 127 32 148 41 181 51 190 6 6 15 25 18 43 4 18 19 58 34 90 15
31 26 60 25 65 -1 4 2 7 6 7 10 0 35 51 28 57 -3 3 6 17 20 31 13 15 24 30 24
35 0 4 11 20 24 34 13 14 22 32 19 39 -3 8 1 14 11 14 8 0 18 11 22 25 3 14
10 23 14 20 4 -3 39 29 76 71 58 63 166 154 184 154 3 0 6 -129 8 -288z m1492
89 l75 -6 6 -80 c3 -44 7 -73 8 -65 1 8 5 24 8 35 2 11 5 38 6 60 3 57 27 57
55 2 12 -24 22 -49 22 -55 0 -6 6 -15 13 -19 27 -18 84 -137 93 -197 6 -46 5
-49 -12 -41 -124 51 -154 54 -49 4 62 -30 78 -50 54 -65 -8 -4 -7 -9 2 -15 11
-7 14 -66 13 -314 -1 -204 -5 -310 -13 -318 -7 -9 -8 -24 -1 -48 6 -18 11 -56
11 -84 1 -27 3 -41 6 -30 8 34 23 41 23 11 0 -41 -30 -165 -42 -172 -7 -4 -7
2 -2 17 4 13 8 41 10 61 1 20 5 41 9 47 3 6 2 11 -4 11 -5 0 -11 -5 -13 -12
-2 -6 -15 5 -27 26 -31 50 -38 39 -12 -19 25 -56 27 -83 6 -91 -8 -4 -15 -10
-15 -15 0 -4 7 -6 16 -2 26 10 13 -88 -22 -157 -54 -109 -171 -268 -272 -370
l-74 -75 7 43 c4 26 3 42 -3 42 -6 0 -12 -12 -14 -27 -3 -28 -4 -28 -68 -25
-35 1 -68 6 -73 11 -23 23 -82 -35 -92 -90 -5 -23 -14 -51 -39 -112 -19 -47
-45 -31 -67 38 -10 33 -19 65 -19 70 0 6 25 23 56 39 83 40 183 108 248 166
60 55 62 55 57 -19 -2 -22 1 -31 8 -27 6 4 11 20 11 35 0 42 19 53 71 42 27
-6 49 -6 61 0 25 14 22 19 -9 17 -60 -4 -123 3 -123 13 0 5 19 31 42 55 36 38
47 45 70 40 15 -3 30 -1 33 4 3 6 26 15 50 21 25 6 50 17 56 25 15 18 -1 18
-37 -1 -16 -8 -40 -15 -54 -15 -15 0 -31 -5 -38 -12 -24 -24 -25 3 -2 45 47
86 92 147 108 147 10 0 37 16 61 35 24 19 41 35 37 35 -14 0 -63 -29 -75 -44
-36 -43 -37 16 -1 78 10 17 25 56 34 87 9 31 22 59 29 62 9 3 14 26 15 71 0
36 6 83 13 104 19 56 16 304 -4 368 -8 29 -19 78 -23 110 -4 34 -19 82 -35
113 -16 30 -29 64 -29 77 0 12 -6 35 -14 51 -31 61 -38 81 -33 90 2 4 1 17 -4
28 -6 17 -8 17 -8 3 -2 -35 -7 -29 -156 156 -28 35 -34 47 -20 41 11 -5 54
-11 95 -14z m-1085 -336 c4 -27 13 -75 20 -105 8 -30 23 -99 34 -153 11 -53
25 -107 32 -118 9 -17 8 -23 -2 -30 -33 -20 -126 164 -99 196 5 6 5 27 0 50
-13 53 -13 245 -1 225 6 -8 13 -37 16 -65z m1429 -152 c15 -48 23 -122 32
-283 3 -47 5 -92 6 -100 3 -33 -13 -162 -24 -188 -6 -15 -12 -45 -14 -67 -5
-51 -11 -68 -23 -61 -9 6 -8 32 5 176 9 99 6 483 -5 529 -12 57 4 52 23 -6z
m-1696 -63 c26 -22 76 -63 112 -93 58 -47 99 -101 88 -113 -3 -2 -63 15 -134
38 l-129 43 -3 83 c-2 56 1 82 9 82 6 0 32 -18 57 -40z m92 -200 c85 -26 100
-35 100 -60 0 -16 -14 -18 -122 -22 -68 -3 -126 -3 -130 -1 -5 2 -8 35 -8 73
l0 69 43 -18 c23 -9 76 -28 117 -41z m357 -40 c44 -21 53 -35 53 -82 0 -22
-11 -41 -38 -68 l-38 -38 -49 13 c-39 9 -52 18 -62 41 -22 52 2 117 52 140 38
17 34 17 82 -6z m-424 -109 c4 -36 4 -36 5 7 l2 42 80 0 c77 0 80 -1 80 -23 0
-20 -11 -26 -88 -50 -49 -15 -103 -30 -121 -33 -17 -4 -34 -11 -37 -15 -12
-20 -19 -6 -22 46 -3 49 0 56 19 63 11 5 34 6 50 4 24 -4 28 -9 32 -41z m655
-1 c3 -30 2 -32 -20 -26 -58 16 -80 15 -33 -2 45 -17 51 -22 56 -55 3 -21 4
-37 2 -37 -2 0 -25 16 -50 35 -25 19 -51 35 -57 34 -6 0 2 -10 18 -22 76 -57
89 -73 91 -113 1 -21 0 -42 -2 -46 -3 -6 -88 91 -137 157 -6 7 -3 24 6 43 11
21 12 32 5 35 -6 2 -8 10 -5 18 5 12 20 15 65 14 58 -2 58 -2 61 -35z m-1674
-30 c24 -9 26 -15 26 -64 0 -31 5 -89 11 -130 11 -70 10 -77 -10 -102 -24 -30
-28 -91 -8 -117 6 -9 27 -17 45 -19 31 -3 35 -8 72 -93 45 -100 46 -107 25
-125 -16 -13 -20 -86 -6 -108 5 -8 30 -14 62 -15 53 -2 53 -2 106 -67 76 -94
80 -103 54 -129 -27 -27 -28 -82 -1 -106 26 -23 76 -22 111 4 l27 20 77 -50
77 -50 -6 -50 c-12 -88 34 -134 109 -109 28 9 37 19 42 41 6 33 11 33 92 -2
34 -15 42 -23 36 -36 -3 -10 -22 -72 -42 -138 -19 -66 -49 -166 -65 -222 l-31
-102 -66 -3 c-60 -3 -66 -5 -69 -26 -7 -48 -47 -33 -135 48 -21 19 -40 34 -42
33 -15 -8 -33 5 -107 75 -134 128 -251 300 -313 460 -28 74 -74 250 -91 347
-9 55 -19 113 -22 129 -7 40 14 25 22 -15 3 -18 9 -30 12 -26 3 3 -1 31 -10
61 -31 105 -37 204 -30 454 4 133 10 242 15 242 4 0 19 -4 33 -10z m1176 -51
c-6 -10 -17 -19 -24 -19 -8 0 -16 -7 -20 -15 -6 -16 -31 -21 -39 -7 -2 4 -2 2
-1 -5 2 -6 -9 -19 -23 -29 -15 -9 -46 -35 -70 -57 -24 -22 -45 -38 -48 -36 -2
3 -5 26 -6 52 -2 26 -6 53 -11 59 -4 7 -5 -20 -2 -59 5 -52 4 -73 -5 -73 -16
0 -15 156 1 167 7 4 65 24 128 44 110 34 115 35 122 17 5 -11 3 -28 -2 -39z
m420 -87 c93 -124 91 -119 88 -230 -2 -64 -6 -90 -11 -77 -5 11 -18 43 -29 70
-58 144 -129 290 -145 299 -13 7 -13 10 -2 17 25 16 33 9 99 -79z m-1422 24
c50 -36 66 -59 82 -114 l9 -32 -26 20 c-14 11 -33 20 -42 19 -12 0 -11 -2 4
-9 22 -9 63 -50 65 -65 2 -11 49 -115 85 -188 20 -41 21 -48 7 -42 -9 4 -41
16 -70 27 -28 11 -57 28 -62 39 -6 10 -14 18 -18 18 -20 -3 -32 3 -32 16 0 9
-9 33 -20 54 l-19 39 26 7 c21 5 24 8 13 15 -9 5 -19 5 -26 -1 -9 -7 -16 -1
-27 23 -29 68 -35 100 -32 156 2 31 1 51 -2 45 -7 -18 -23 -16 -23 3 0 25 50
11 108 -30z m1005 -27 c-2 -48 -8 -67 -28 -91 -14 -16 -25 -33 -25 -36 0 -4
-19 -27 -41 -52 -28 -31 -38 -38 -34 -23 3 12 2 24 -3 27 -4 2 -8 -11 -8 -29
1 -19 -3 -36 -9 -37 -14 -4 -15 75 -1 84 6 4 7 10 4 14 -11 11 -38 -23 -32
-40 3 -8 -2 -31 -12 -51 -9 -20 -18 -53 -19 -73 -2 -31 -54 -143 -55 -119 -4
70 1 280 7 290 4 7 28 28 53 47 25 19 54 43 65 52 27 23 129 96 135 97 3 1 4
-26 3 -60z m287 34 c0 -25 44 -172 78 -258 21 -55 179 -514 311 -905 72 -214
135 -388 161 -447 11 -25 20 -48 20 -50 0 -2 -14 -3 -32 -1 l-31 3 -72 215
c-39 118 -82 244 -94 280 -12 36 -28 85 -36 110 -8 25 -64 194 -126 375 -61
182 -117 350 -124 375 -39 136 -78 257 -91 282 -17 33 -12 48 17 48 14 0 19
-7 19 -27z m-100 10 c0 -5 -5 -26 -11 -48 -17 -66 -38 -156 -55 -230 -8 -38
-28 -106 -43 -150 -42 -118 -91 -278 -91 -298 0 -18 -55 -199 -70 -232 -6 -11
-11 -29 -13 -40 -2 -11 -9 -38 -15 -60 -13 -46 -52 -200 -57 -224 -2 -9 -22
-90 -44 -180 -23 -90 -41 -174 -41 -186 0 -19 -7 -23 -47 -29 -25 -3 -48 -5
-50 -3 -1 2 8 31 21 65 13 34 27 76 31 94 4 18 44 146 90 283 96 293 101 309
155 502 23 82 54 186 70 233 24 71 120 412 137 488 5 20 33 33 33 15z m52
-100 c10 -56 70 -279 85 -313 8 -19 19 -48 23 -65 8 -28 40 -112 89 -233 l21
-53 -28 -11 c-15 -7 -63 -13 -108 -13 -81 0 -81 0 -139 45 -42 33 -65 59 -82
97 -23 51 -24 53 -8 120 16 69 54 183 62 183 2 0 1 -70 -3 -155 -5 -114 -4
-155 4 -155 9 0 12 51 12 182 0 163 3 194 27 295 27 112 36 128 45 76z m-244
-70 c-9 -12 -9 -15 0 -9 6 4 12 2 12 -3 0 -6 -7 -11 -15 -11 -10 0 -15 -9 -14
-27 1 -17 3 -21 6 -10 7 27 18 20 18 -12 0 -16 -3 -27 -7 -25 -4 3 -10 -7 -14
-21 -10 -41 -114 -239 -130 -248 -8 -4 -14 -21 -14 -37 0 -16 -6 -35 -14 -42
-17 -18 -31 -78 -18 -78 5 0 17 15 26 33 52 101 73 120 56 47 -4 -19 -8 -26
-9 -16 -2 44 -20 -3 -31 -79 -6 -44 -13 -89 -14 -100 -4 -26 4 -46 15 -39 5 3
7 9 4 14 -3 4 3 32 14 62 10 29 23 69 29 88 13 40 13 118 1 125 -8 6 30 108
43 113 4 2 8 13 8 25 0 25 40 110 48 102 26 -26 -14 -212 -98 -465 -51 -152
-56 -162 -65 -135 -3 11 -16 43 -27 70 -22 52 -24 73 -13 116 5 19 2 28 -9 32
-10 4 -13 1 -9 -9 3 -7 2 -22 -2 -31 -7 -16 -9 -14 -15 7 -3 14 -3 38 1 54 6
19 3 38 -7 57 -22 43 -21 95 3 127 11 15 31 48 43 72 13 26 25 39 28 32 2 -8
-1 -19 -6 -24 -6 -6 -8 -23 -5 -38 3 -17 0 -31 -8 -35 -9 -6 -11 -2 -6 15 4
14 2 19 -3 14 -5 -5 -11 -40 -12 -78 -2 -52 0 -70 11 -74 11 -4 13 3 9 29 -4
19 0 48 7 64 12 27 13 27 14 8 1 -13 6 -23 12 -23 6 0 8 11 4 28 -9 45 -13
142 -4 142 4 0 10 -19 14 -41 4 -24 10 -37 15 -30 8 15 1 59 -11 67 -17 10 -9
29 31 74 22 24 40 48 40 52 0 4 5 8 10 8 6 0 10 -12 10 -27 0 -21 3 -24 9 -14
6 9 6 22 0 32 -6 13 -1 32 19 70 18 35 28 47 30 36 2 -10 -2 -25 -10 -34z
m1656 9 c-8 -13 -8 -20 1 -29 7 -7 16 -36 20 -65 4 -29 12 -59 17 -65 13 -16
-4 -17 -20 -1 -8 8 -11 -9 -12 -73 0 -124 -1 -130 -23 -123 -11 3 -17 2 -14
-3 3 -5 2 -15 -2 -22 -6 -9 -10 -3 -13 17 -2 17 0 30 5 29 5 -1 12 4 15 12 3
10 0 11 -9 5 -11 -6 -10 -3 1 10 8 11 13 31 12 45 -2 20 -1 23 7 11 17 -24 13
-7 -8 36 l-20 39 3 -48 c2 -27 0 -45 -5 -40 -11 11 -18 153 -7 159 5 3 6 14 3
23 -3 10 1 24 10 31 13 10 15 9 15 -8 0 -11 7 -25 15 -32 17 -14 19 -8 6 18
-21 42 -27 78 -17 95 7 11 14 13 21 6 6 -6 6 -15 -1 -27z m-72 -102 c-1 -14
-2 -81 -2 -150 -1 -117 -12 -180 -33 -180 -5 0 -5 5 -2 10 3 6 1 10 -4 10 -6
0 -11 5 -11 10 0 6 8 10 18 8 11 -2 18 5 20 21 3 17 0 21 -10 16 -7 -5 -10 -5
-6 0 10 11 -10 45 -27 45 -7 0 -17 5 -20 11 -8 12 23 149 36 164 5 5 9 22 9
38 0 22 4 28 18 25 11 -2 16 -11 14 -28z m-2524 -136 c73 -15 139 -56 166
-103 66 -114 221 -273 349 -360 79 -53 211 -121 235 -121 7 0 15 -6 18 -14 7
-17 -34 -159 -44 -153 -4 2 -35 16 -69 32 -41 19 -62 35 -60 45 1 10 -5 14
-18 13 -11 -2 -57 16 -102 40 -83 42 -113 76 -100 111 3 8 0 19 -6 24 -7 6
-13 34 -15 63 -4 59 -16 82 -41 75 -9 -2 -32 -7 -52 -10 -25 -5 -38 -13 -42
-26 -7 -26 -19 -25 -36 3 -24 37 -29 96 -16 185 6 37 4 52 -4 52 -6 0 -12 -8
-13 -17 -4 -49 -5 -61 -7 -102 l-1 -44 -23 22 c-13 12 -30 34 -38 49 -8 15
-34 56 -57 91 -33 48 -41 66 -31 72 11 6 10 9 -4 15 -9 3 -26 26 -37 51 -25
57 -25 62 0 35 11 -12 33 -24 48 -28z m2372 -224 c0 -5 6 -9 13 -7 9 1 11 -17
9 -73 -4 -131 -30 -227 -120 -450 -51 -126 -130 -254 -211 -342 -52 -56 -191
-168 -209 -168 -5 0 -12 8 -15 18 -4 9 -30 86 -60 170 -48 136 -52 154 -40
172 8 11 12 30 10 43 l-4 22 -8 -22 c-10 -30 -19 -29 -33 2 -26 56 -14 71 117
145 84 48 96 52 115 40 67 -43 100 -50 128 -27 24 18 26 44 3 61 -11 8 -17 18
-13 22 4 4 14 1 22 -5 12 -10 17 -8 25 8 15 26 14 28 -9 34 -11 3 -18 1 -14
-4 3 -5 -2 -9 -10 -9 -24 0 -28 17 -9 42 10 12 52 58 93 101 74 78 75 79 116
73 27 -3 48 0 59 8 18 13 18 14 -3 25 -14 7 -23 8 -27 1 -8 -13 -55 -13 -55 0
0 6 4 10 10 10 5 0 23 21 41 48 42 62 79 91 79 62z m-1351 -56 c7 -19 10 -38
7 -41 -3 -3 6 -21 21 -39 18 -24 23 -41 19 -58 -4 -17 -1 -28 10 -34 23 -13
14 -64 -14 -78 -33 -16 -41 -28 -14 -21 13 3 21 2 19 -1 -2 -4 -9 -22 -16 -39
-7 -18 -18 -33 -25 -33 -21 0 -78 19 -102 35 -22 14 -23 16 -8 52 8 21 19 47
24 58 9 17 50 206 50 228 0 20 17 3 29 -29z m383 -126 c11 -33 -91 -167 -160
-210 -50 -31 -50 -14 0 39 132 139 140 151 91 132 -34 -13 -54 -29 -48 -39 2
-4 -20 -33 -50 -66 -31 -33 -55 -52 -55 -43 0 8 6 21 13 28 10 10 8 11 -8 5
-16 -6 -18 -5 -7 7 6 7 12 21 12 31 0 10 7 21 15 24 8 4 15 15 15 25 0 14 7
19 29 19 16 0 42 7 57 15 16 8 37 15 47 15 10 0 20 7 23 15 7 18 21 20 26 3z
m533 -134 c22 -1 42 -3 44 -3 2 -1 -4 -11 -15 -22 -22 -25 -102 -79 -188 -129
-49 -27 -58 -30 -51 -14 5 10 18 47 30 82 30 90 47 106 98 97 23 -4 60 -9 82
-11z m-422 -171 c15 -42 25 -78 23 -80 -2 -2 -21 -6 -42 -8 -21 -3 -64 -12
-94 -21 -58 -17 -301 -26 -316 -11 -4 4 -1 13 7 20 8 6 21 20 29 30 12 17 11
17 -21 -2 l-34 -20 -56 44 c-31 23 -67 48 -80 55 -20 10 -19 7 7 -17 17 -16
54 -46 82 -67 29 -21 52 -40 52 -43 0 -5 -24 -3 -145 12 -40 5 -86 18 -91 26
-3 5 5 13 18 18 13 6 17 10 11 10 -17 1 -16 36 2 71 15 28 15 28 59 15 88 -27
220 -29 353 -6 68 12 140 28 160 35 21 8 41 14 44 15 3 0 18 -34 32 -76z m52
-160 c3 -21 11 -46 16 -57 6 -10 33 -85 60 -166 26 -81 51 -153 54 -161 4 -12
-69 -14 -485 -17 -269 -1 -490 1 -490 5 0 17 79 325 84 330 3 4 14 -1 24 -10
38 -35 124 -4 108 39 -7 17 -9 17 -19 3 -18 -23 -46 -30 -70 -17 -12 7 -25 11
-29 10 -3 -1 -6 13 -5 31 1 18 5 31 10 30 4 -2 14 -3 22 -3 8 0 15 -6 15 -12
0 -10 37 -13 148 -14 81 0 161 -4 177 -8 17 -4 42 -9 56 -10 62 -8 89 -45 50
-66 -25 -13 -58 -1 -93 35 -26 25 -28 26 -28 8 0 -31 36 -71 71 -78 62 -14
124 42 95 87 -17 27 1 37 105 57 124 25 117 26 124 -16z m278 -445 c-2 -5 -8
-8 -13 -8 -5 0 -37 -13 -72 -29 -81 -37 -209 -78 -273 -86 -155 -21 -300 -47
-312 -56 -14 -12 -248 2 -428 26 -83 11 -115 21 -191 58 -121 60 -143 89 -74
99 52 7 1368 3 1363 -4z m128 -5 c1 -5 2 -45 4 -89 l2 -81 -193 1 c-107 0
-194 4 -194 7 0 4 17 10 37 14 20 4 48 15 61 26 14 10 29 19 33 19 9 0 191 83
219 100 19 11 30 12 31 3z m-1547 -82 c28 -16 83 -39 121 -51 39 -12 74 -26
78 -30 4 -3 -54 -6 -129 -5 l-137 2 -2 56 c-2 34 1 57 7 57 6 0 34 -13 62 -29z"/>
<path d="M2746 5808 c2 -73 9 -157 14 -187 5 -29 7 -57 5 -62 -3 -4 1 -23 8
-42 8 -18 15 -57 15 -86 1 -29 4 -57 7 -62 4 -5 2 -9 -2 -9 -5 0 -8 -17 -7
-37 2 -51 3 -53 13 -53 5 0 7 41 6 92 -4 105 -6 106 72 -52 31 -63 58 -109 61
-102 2 7 -30 82 -72 166 -77 154 -84 172 -66 161 7 -4 7 2 0 19 -13 35 -30
175 -34 279 -1 48 -7 92 -13 98 -8 8 -10 -29 -7 -123z"/>
<path d="M13261 7958 c-1 -36 -2 -37 -27 -28 -31 12 -104 13 -123 1 -29 -19 2
-31 79 -31 65 0 81 -3 89 -17 5 -10 9 -22 9 -27 -1 -4 15 -29 34 -55 18 -25
42 -63 51 -83 18 -37 37 -50 37 -25 0 6 -7 25 -15 41 -8 15 -13 32 -10 36 2 4
-5 16 -16 26 -22 20 -69 95 -73 116 -1 7 -10 29 -18 48 l-16 35 -1 -37z"/>
<path d="M5370 7929 c-25 -17 -62 -47 -83 -67 -29 -28 -40 -34 -46 -23 -6 9
-11 10 -15 2 -4 -6 -5 -15 -2 -20 6 -9 -99 -113 -150 -148 -16 -12 -43 -25
-58 -29 -22 -5 -25 -9 -14 -15 12 -7 13 -18 6 -61 -14 -74 -15 -815 -3 -1553
12 -748 13 -1316 2 -1725 -4 -168 -9 -371 -11 -452 -2 -83 0 -148 5 -148 10 0
7 -36 -4 -46 -4 -4 -7 -30 -7 -57 0 -28 3 -47 7 -43 4 4 6 28 4 54 -1 26 1 43
6 39 4 -5 8 -196 9 -425 0 -230 2 -425 3 -434 3 -25 21 -23 21 2 0 17 4 19 28
13 15 -4 91 -8 169 -8 77 0 139 -3 136 -7 -2 -5 90 -8 206 -7 116 0 215 -2
221 -6 5 -3 16 -3 23 2 42 27 189 43 202 22 7 -11 45 16 45 33 0 4 19 32 43
62 23 29 61 79 84 112 23 32 63 80 88 106 28 30 45 56 44 70 -1 17 -3 18 -6 6
-2 -10 -9 -18 -14 -18 -12 0 -11 76 1 121 7 23 7 68 1 125 -12 119 -22 816
-11 809 12 -8 87 -168 99 -213 6 -21 33 -106 60 -188 44 -133 162 -502 242
-759 46 -146 75 -225 87 -237 22 -22 12 -28 -44 -28 -34 0 -53 -4 -49 -10 8
-13 534 -13 715 1 74 5 172 12 217 15 47 4 95 2 111 -4 19 -6 33 -7 39 -1 6 6
39 9 74 7 63 -3 64 -4 84 -40 11 -21 22 -38 25 -38 7 0 4 86 -4 99 -6 9 77
131 90 131 2 0 -2 -13 -11 -30 -9 -17 -19 -30 -24 -30 -5 0 -11 -8 -15 -17 -3
-10 -9 -25 -12 -33 -4 -8 4 -1 17 15 13 17 31 36 40 43 10 6 20 24 23 40 6 26
9 27 66 25 34 -1 62 3 66 9 5 7 -5 9 -30 4 -20 -4 -45 -4 -56 -1 -17 5 -18 9
-7 33 6 15 20 41 32 57 11 17 25 39 32 50 6 11 16 19 23 17 14 -3 6 43 -15 86
-30 60 -95 214 -95 223 0 6 -12 36 -26 67 -37 83 -37 81 -113 272 -122 308
-148 374 -160 415 -7 22 -16 49 -21 60 -4 11 -18 47 -30 80 -12 33 -32 87 -45
120 -27 70 -64 188 -70 226 -5 28 -61 167 -114 281 -17 37 -33 79 -37 93 -3
14 -10 28 -16 31 -5 3 -4 12 3 20 7 9 8 14 1 14 -6 0 -13 -6 -16 -12 -5 -10
-7 -10 -12 0 -3 6 -11 9 -17 5 -7 -4 -5 4 4 17 9 14 26 29 37 35 12 5 22 13
22 18 0 4 10 18 23 30 13 12 43 47 68 77 24 30 69 78 98 105 58 54 131 154
131 179 0 9 4 16 9 16 5 0 11 7 15 15 9 24 -18 17 -30 -8 -30 -59 -89 -148
-116 -173 l-31 -29 34 50 c44 65 129 208 129 217 0 5 4 8 9 8 5 0 7 -9 4 -20
-3 -11 -1 -20 5 -20 8 0 21 39 38 113 1 4 2 8 4 10 1 1 3 11 5 22 2 11 11 40
20 64 20 56 35 129 40 206 34 454 37 573 16 585 -12 7 -13 9 -2 10 10 0 12 10
7 43 -12 79 -16 98 -41 174 -14 42 -25 80 -25 85 0 5 -13 37 -29 71 -35 73
-50 123 -32 113 6 -4 11 -2 11 3 0 6 -7 11 -15 11 -8 0 -12 6 -9 14 3 7 -9 38
-26 67 -17 30 -35 59 -38 66 -4 6 -30 43 -59 82 -29 38 -45 67 -35 64 21 -9
-12 38 -60 84 -102 97 -374 254 -526 302 -34 11 -77 32 -96 46 -39 29 -59 34
-25 5 13 -10 21 -19 16 -20 -4 0 -69 15 -145 34 -179 44 -314 60 -492 58 -408
-5 -909 -7 -900 -4 12 4 14 22 3 22 -5 0 -28 -14 -53 -31z m485 -34 c33 -3
168 -1 300 4 251 8 410 -2 519 -34 27 -8 53 -12 58 -9 5 3 16 -2 23 -12 9 -11
14 -14 15 -6 0 6 5 12 11 12 5 0 8 -4 5 -9 -8 -12 15 -29 47 -35 15 -2 37 -8
50 -11 23 -6 31 -9 105 -40 51 -22 67 -14 18 9 -31 14 -56 36 -42 36 17 0 191
-67 235 -91 30 -16 60 -29 66 -29 6 0 16 -5 23 -12 6 -6 41 -28 76 -47 61 -34
90 -55 173 -126 20 -16 56 -61 80 -100 25 -38 53 -81 63 -95 22 -33 46 -79 55
-110 7 -22 6 -23 -9 -11 -11 9 -16 10 -16 2 0 -6 7 -14 14 -17 8 -3 22 -29 31
-57 9 -29 19 -59 22 -67 4 -8 7 -17 8 -20 12 -34 19 -51 36 -83 11 -20 26 -70
34 -110 7 -39 19 -94 25 -122 16 -74 22 -155 22 -300 -1 -137 -9 -196 -30
-203 -6 -2 -12 1 -12 8 0 6 5 8 10 5 6 -3 10 -2 10 4 0 5 -4 12 -8 15 -5 3 -3
35 3 71 7 38 9 68 4 71 -5 3 -6 11 -2 17 10 16 11 47 2 47 -4 0 -6 21 -4 48 2
34 1 40 -5 22 -8 -24 -8 -24 -9 -2 -1 12 -5 22 -9 22 -4 0 -7 -52 -7 -116 0
-64 -4 -121 -8 -127 -6 -8 -7 -7 -4 4 3 8 -3 21 -14 27 -16 10 -19 9 -19 -3 0
-8 4 -15 8 -15 7 0 7 -42 -1 -108 -4 -29 -2 -32 16 -26 16 5 19 3 14 -11 -4
-9 -7 -25 -7 -36 0 -10 -6 -19 -13 -19 -7 0 -14 -12 -15 -27 -1 -16 -7 -29
-12 -31 -6 -2 -10 -8 -10 -13 0 -6 4 -8 9 -5 12 8 21 -28 11 -44 -5 -9 -9 -9
-14 -1 -4 6 -11 9 -16 6 -4 -3 -10 2 -14 10 -3 8 -1 17 5 20 5 4 7 10 4 15 -3
5 -1 19 6 31 8 16 8 23 0 29 -8 5 -9 14 -2 33 7 18 7 27 -2 31 -9 3 -8 7 3 15
8 6 10 11 4 11 -6 0 -10 31 -9 83 0 45 -3 87 -8 94 -4 6 -4 14 1 17 14 8 2 56
-14 56 -8 0 -14 8 -14 18 0 13 2 14 9 3 6 -9 10 -4 13 17 2 17 1 29 -4 26 -13
-8 -9 9 7 30 8 11 15 14 15 8 0 -7 5 -12 10 -12 6 0 9 3 8 8 0 4 2 15 7 26 6
14 2 23 -14 35 -12 9 -23 28 -25 41 -1 14 -6 32 -10 41 -4 9 -6 20 -5 25 3 14
-12 44 -23 44 -7 0 -7 -4 -1 -12 5 -7 9 -38 8 -68 -1 -30 2 -65 7 -77 5 -15 4
-23 -3 -23 -7 0 -9 -16 -6 -45 3 -25 4 -45 1 -45 -10 0 -26 58 -40 145 -21
134 -33 188 -44 199 -6 6 -10 16 -10 23 0 27 -71 165 -125 244 -30 44 -55 84
-55 90 0 5 -6 9 -13 9 -8 0 -32 19 -55 43 -192 200 -394 309 -712 386 -229 55
-556 74 -870 51 -161 -12 -701 -32 -706 -27 -2 2 14 17 35 33 62 47 161 132
224 191 l58 56 192 -7 c106 -4 219 -9 252 -11z m472 -280 c277 -31 432 -66
622 -144 68 -28 140 -63 160 -79 20 -15 62 -45 94 -66 53 -35 207 -195 207
-215 0 -9 25 -39 72 -88 19 -20 25 -33 17 -33 -11 -1 -11 -3 2 -13 25 -19 66
-116 89 -208 11 -46 27 -107 35 -135 8 -28 15 -62 15 -75 0 -13 7 -46 15 -72
15 -49 16 -68 3 -77 -13 -10 -13 -63 0 -67 7 -3 10 1 6 11 -3 9 -1 16 5 16 14
0 13 -415 -1 -469 -5 -20 -11 -57 -12 -82 -3 -56 -11 -70 -34 -62 -16 6 -16 6
0 -10 15 -15 15 -21 1 -64 -8 -27 -19 -64 -24 -83 -22 -92 -137 -318 -193
-378 -28 -32 -166 -138 -245 -191 l-65 -43 -18 24 -19 23 15 -31 c14 -30 14
-32 -7 -51 -12 -11 -31 -24 -42 -28 -17 -7 -15 -9 14 -14 31 -6 36 -12 78
-106 63 -141 146 -346 178 -440 15 -44 67 -174 116 -288 80 -189 111 -271 96
-257 -5 5 -76 135 -167 305 -29 55 -94 177 -145 270 -51 94 -123 231 -160 305
-66 132 -232 437 -325 595 -52 88 -180 324 -180 331 0 2 6 4 14 4 21 0 112
148 134 220 37 116 45 181 44 343 -2 174 -13 235 -63 345 -17 36 -48 87 -68
112 -21 25 -36 51 -34 58 3 6 0 12 -7 12 -6 0 -8 -4 -5 -10 14 -22 -12 -7 -55
32 l-45 41 39 -22 c29 -17 36 -18 26 -6 -8 9 -32 26 -54 37 -23 11 -44 26 -48
32 -4 6 -13 11 -20 11 -7 1 -26 7 -43 15 -57 26 -193 22 -365 -9 -38 -7 -40
-9 -14 -10 l31 -1 -4 -592 c-1 -326 1 -621 5 -655 5 -36 4 -69 -1 -79 -16 -28
12 -35 113 -29 156 10 207 22 308 76 51 27 98 47 103 43 5 -3 39 -63 74 -132
36 -70 97 -183 136 -252 39 -69 114 -208 167 -310 118 -230 202 -386 302 -560
43 -74 130 -234 195 -355 65 -121 126 -231 135 -245 9 -14 38 -79 64 -145 166
-417 172 -435 162 -435 -3 0 -104 197 -224 438 -121 240 -268 527 -327 637
-114 212 -173 325 -342 655 -109 213 -157 292 -81 135 89 -183 339 -668 423
-820 18 -33 167 -328 331 -655 164 -327 311 -617 326 -643 47 -81 45 -82 -85
-80 -61 1 -203 3 -315 5 -140 2 -205 0 -210 -8 -4 -7 -80 -13 -213 -17 l-207
-5 -17 61 c-9 34 -63 202 -120 372 -185 555 -278 859 -294 965 l-10 65 4 -57
c2 -34 -1 -58 -6 -58 -6 0 -31 44 -55 98 l-46 97 -3 145 c-2 79 -1 148 2 153
3 4 12 2 20 -5 13 -10 15 -9 12 7 -3 13 -14 21 -33 23 l-29 4 6 -127 c8 -150
2 -155 -58 -43 -24 45 -66 101 -103 139 -58 59 -63 62 -68 41 -4 -12 -12 -22
-20 -22 -19 0 -27 -19 -14 -35 8 -10 11 -250 11 -902 l0 -888 -253 0 c-139 0
-344 1 -456 3 -112 1 -213 0 -225 -3 l-22 -6 1 429 2 429 90 179 c93 184 188
367 330 631 45 83 82 155 82 160 0 11 -62 -96 -150 -257 -40 -74 -101 -187
-135 -250 -35 -63 -90 -170 -124 -237 -33 -67 -70 -137 -81 -155 l-21 -33 7
70 c7 75 37 140 154 340 30 50 72 124 95 165 110 196 254 445 475 815 163 275
210 360 181 326 -54 -61 -549 -886 -781 -1301 -57 -102 -110 -192 -117 -200
-12 -13 -14 -4 -15 65 -1 134 10 1851 13 2090 1 33 -2 283 -6 555 -4 272 -8
592 -9 710 -1 118 -4 221 -6 229 -8 22 38 29 125 19 76 -9 287 -5 530 11 203
14 488 12 632 -4z m43 -832 c93 -33 242 -210 285 -337 43 -132 46 -376 5 -526
-30 -109 -50 -130 -156 -158 -107 -29 -246 -29 -228 -1 12 20 1 958 -11 1017
-7 32 -7 32 26 26 19 -3 54 -13 79 -21z m-287 -469 c-2 -22 -4 -51 -4 -65 -1
-15 7 -35 20 -48 24 -24 37 -27 44 -8 2 7 8 8 13 3 5 -5 4 -11 -3 -13 -16 -6
-17 -39 -3 -48 7 -4 7 -11 2 -18 -12 -17 -9 -80 5 -84 7 -3 15 7 19 22 5 19 9
24 18 15 8 -8 8 -13 0 -18 -6 -4 -13 -15 -17 -24 -4 -11 -12 -15 -22 -12 -12
5 -15 -3 -15 -40 0 -30 4 -46 13 -46 9 0 9 -2 0 -8 -14 -9 -6 -52 9 -52 6 0 5
-7 -2 -15 -10 -12 -10 -15 3 -15 9 0 19 -4 22 -10 3 -5 0 -7 -8 -4 -8 3 -18 1
-22 -5 -3 -6 1 -11 9 -11 9 0 16 -4 16 -10 0 -5 -8 -10 -17 -10 -15 0 -15 -2
-4 -9 13 -8 13 -12 0 -27 -8 -10 -9 -15 -3 -11 7 4 14 -5 18 -24 5 -28 0 -37
-44 -83 -27 -28 -57 -60 -65 -71 l-14 -20 -2 20 c-3 63 2 555 7 575 3 14 5 75
5 135 0 90 2 107 12 94 7 -9 11 -34 10 -55z m1143 -1356 c-3 -17 -3 -29 0 -25
4 4 13 -1 19 -11 23 -32 140 -266 209 -417 38 -82 75 -159 83 -170 7 -11 13
-33 13 -50 1 -28 2 -29 15 -12 13 18 17 16 63 -33 28 -29 48 -58 45 -65 -7
-19 10 -25 25 -9 11 12 1 26 -62 87 -58 55 -84 90 -112 147 -43 88 -76 188
-64 195 8 5 40 -38 40 -54 0 -16 72 -149 92 -171 10 -10 18 -25 19 -32 0 -9 2
-10 5 -1 3 7 0 22 -6 34 -10 17 -9 20 1 17 8 -3 19 -20 25 -39 21 -65 38 -99
54 -104 12 -4 34 -43 59 -110 2 -5 -6 -1 -18 9 -11 11 -21 14 -21 8 0 -6 4
-13 10 -17 5 -3 7 -12 3 -20 -3 -8 -1 -15 5 -15 5 0 12 -10 16 -22 5 -18 8
-20 15 -9 7 11 13 6 24 -21 8 -19 18 -46 22 -59 4 -13 14 -39 22 -57 16 -33
10 -59 -7 -32 -8 12 -10 12 -10 2 0 -8 9 -16 19 -19 11 -3 25 -19 31 -36 7
-18 23 -54 35 -82 49 -108 127 -291 129 -301 1 -7 8 -19 15 -28 11 -13 11 -16
0 -16 -10 0 -11 -2 -2 -8 20 -13 51 -106 46 -137 -5 -23 -3 -27 11 -22 9 4 16
5 16 3 0 -3 3 -12 7 -22 5 -13 3 -15 -7 -9 -8 5 -11 3 -8 -6 3 -8 11 -13 17
-11 6 1 11 -5 11 -15 0 -29 -36 13 -80 93 -22 40 -45 76 -51 80 -18 11 70
-147 99 -178 14 -15 29 -25 34 -22 18 12 5 -12 -49 -88 -114 -158 -125 -173
-134 -197 -12 -31 -22 -20 -44 49 -10 30 -21 60 -25 65 -4 6 -10 19 -12 30 -3
11 -9 28 -13 38 -6 14 -4 16 11 10 18 -6 18 -5 3 13 -22 27 -93 175 -96 200
-1 11 -13 41 -27 67 -14 25 -26 50 -26 56 0 5 -5 22 -12 38 -6 15 -10 32 -9
36 0 4 -11 33 -25 65 -32 69 -134 321 -139 342 -2 8 -17 49 -35 90 -17 41 -40
99 -52 128 -11 30 -26 66 -34 80 -8 15 -14 31 -14 35 0 5 -6 23 -14 40 -15 35
-76 196 -76 203 0 2 7 1 15 -2 21 -9 19 2 -7 27 -13 12 -17 18 -9 14 10 -6 12
-2 6 16 -4 13 -12 29 -17 34 -7 7 -8 2 -3 -14 5 -17 4 -21 -5 -16 -7 4 -9 17
-6 31 5 19 3 22 -11 18 -14 -5 -15 -4 -4 4 12 9 8 23 -24 87 -22 42 -43 79
-47 81 -5 3 -6 9 -3 14 3 5 -3 13 -12 19 -10 6 -14 11 -9 11 5 0 2 8 -6 18
-17 20 -48 95 -48 118 0 9 7 14 16 12 11 -2 22 -22 30 -53 13 -54 49 -134 77
-177 31 -45 131 -288 123 -296 -3 -2 4 -20 15 -39 11 -19 15 -32 9 -28 -5 3
-10 2 -10 -4 0 -5 6 -12 13 -14 9 -4 8 -8 -3 -16 -8 -6 -10 -11 -5 -11 11 0
23 -24 56 -120 12 -36 29 -74 36 -85 7 -11 13 -27 13 -37 0 -10 5 -18 10 -18
6 0 10 -9 10 -21 0 -20 53 -136 71 -154 11 -11 -7 34 -40 102 -23 47 -28 78
-9 67 8 -5 9 -2 5 10 -4 10 -7 25 -8 34 -1 10 -4 8 -8 -7 -5 -20 -9 -16 -30
35 -13 33 -29 73 -36 89 -24 56 -38 125 -26 125 5 0 19 -30 31 -67 20 -60 40
-100 40 -80 0 26 -57 163 -76 184 -13 14 -24 31 -24 38 0 7 -10 34 -22 61 -11
27 -25 64 -29 82 -6 28 -4 33 9 30 10 -2 17 -10 18 -18 0 -8 5 -28 12 -43 7
-16 12 -37 12 -47 0 -23 12 -31 29 -21 10 6 8 16 -8 43 -10 20 -22 51 -25 71
-6 38 -18 68 -44 112 -49 81 -150 285 -142 285 6 0 9 3 9 8 -3 15 1 32 7 32 4
0 4 -14 0 -32z m-1050 -1123 c4 -39 8 -81 9 -95 4 -38 4 -40 15 -40 8 0 8 78
0 115 -1 6 -2 18 -1 28 1 19 17 24 18 5 6 -97 16 -215 23 -263 5 -36 4 -65 -2
-72 -9 -12 -5 -76 8 -120 3 -13 2 -23 -3 -23 -11 0 -30 55 -32 94 -2 41 -11
46 -11 7 0 -18 -4 -30 -8 -27 -5 3 -6 -9 -4 -26 3 -20 7 -26 13 -17 11 19 25
-21 33 -100 3 -38 12 -68 21 -75 8 -6 15 -30 17 -54 2 -37 -3 -47 -38 -84 -59
-63 -63 -68 -74 -89 -6 -10 -14 -19 -18 -19 -4 0 -7 190 -8 423 0 232 3 406 7
387 4 -19 8 -72 8 -118 1 -97 19 -214 32 -206 5 3 7 9 4 13 -9 15 -31 439 -22
431 3 -3 9 -37 13 -75z m-61 -271 c6 -198 8 -446 3 -539 -4 -63 -10 -88 -29
-117 -28 -45 -43 -49 -35 -10 3 15 7 94 8 175 2 82 7 151 11 154 5 3 7 -61 5
-141 -2 -80 0 -146 4 -146 4 0 9 33 10 73 1 87 2 89 11 105 5 7 5 22 2 33 -4
12 -7 130 -6 262 0 310 0 301 6 295 3 -2 7 -67 10 -144z"/>
<path d="M6411 5344 c-15 -19 -21 -41 -20 -73 1 -80 6 -84 87 -86 40 -1 72 2
72 7 0 13 28 9 32 -4 7 -21 35 0 41 32 7 35 -7 69 -49 119 -23 28 -31 31 -84
31 -51 0 -61 -3 -79 -26z"/>
<path d="M5974 5292 c-21 -13 -74 -106 -74 -128 0 -51 37 -93 55 -63 4 6 14 7
24 4 34 -14 74 -16 81 -5 6 9 13 9 28 -1 32 -20 50 3 58 73 7 56 6 58 -29 93
-30 30 -41 35 -83 35 -27 0 -54 -4 -60 -8z"/>
<path d="M6610 4653 c-77 -6 -88 -11 -136 -70 l-46 -58 5 -90 c5 -93 44 -230
69 -247 20 -13 42 -5 53 20 10 23 20 25 70 12 29 -7 29 -8 -10 -9 -36 -1 -38
-2 -20 -14 34 -23 55 -28 48 -11 -3 7 0 14 6 14 7 0 14 -6 16 -12 7 -18 75
-19 75 -2 0 8 7 14 15 14 8 0 15 -4 15 -10 0 -5 10 -9 23 -9 16 1 18 2 5 6
-22 6 -23 29 -2 37 29 11 43 6 46 -16 7 -50 88 -26 88 26 0 12 7 31 15 42 13
16 16 17 25 4 6 -9 10 -10 10 -3 0 6 -4 15 -10 18 -5 3 -10 17 -10 29 0 13
-13 49 -28 80 -16 31 -25 56 -20 56 4 0 8 9 8 21 0 15 -5 19 -15 15 -11 -4
-23 11 -44 52 -39 77 -58 92 -132 102 -35 5 -66 9 -69 8 -3 -1 -25 -3 -50 -5z
m189 -47 c39 -36 27 -43 -56 -33 -43 4 -105 6 -137 3 -35 -4 -64 -2 -72 4 -9
8 -14 1 -19 -30 -7 -39 -25 -57 -25 -24 0 25 41 93 59 98 9 2 64 4 122 3 90
-2 110 -5 128 -21z m16 -62 c17 -7 50 -62 42 -71 -7 -6 -317 -4 -327 2 -5 3
-3 21 3 40 l10 35 128 0 c70 0 135 -3 144 -6z m-332 -96 c3 -10 7 -10 18 -2
10 9 31 9 74 2 33 -5 115 -8 182 -5 l122 4 20 -28 c24 -33 31 -110 11 -134
-11 -13 -41 -15 -208 -13 l-196 3 -18 50 c-10 28 -19 63 -20 78 -1 15 -5 30
-10 33 -4 3 -8 9 -8 15 0 14 28 11 33 -3z"/>
<path d="M5547 4341 c-48 -10 -93 -53 -119 -113 -16 -37 -26 -48 -43 -48 -30
0 -38 -11 -17 -26 16 -12 15 -17 -15 -73 -42 -76 -43 -129 -6 -206 15 -30 35
-58 46 -61 19 -6 47 11 47 30 0 8 48 12 160 13 l161 2 9 -25 c7 -18 17 -24 39
-24 34 0 46 14 43 51 -3 33 24 98 43 106 12 4 15 27 15 110 l0 104 -44 69
c-25 38 -54 74 -65 80 -27 14 -204 22 -254 11z m228 -102 c9 -8 18 -32 22 -52
l6 -37 -187 0 c-102 0 -186 2 -186 5 0 3 11 28 26 56 l25 50 139 -3 c110 -2
143 -6 155 -19z m-185 -116 c80 -3 164 0 188 5 l42 10 0 -42 c0 -30 3 -37 10
-26 5 8 10 25 10 38 0 22 25 41 38 28 3 -4 -4 -37 -16 -74 -12 -37 -27 -86
-33 -109 -15 -52 -18 -53 -259 -53 -199 0 -205 2 -223 52 -9 26 3 28 44 8 21
-11 40 -16 44 -11 6 11 -1 16 -40 25 -49 12 -55 22 -40 60 30 70 57 107 74
100 9 -4 81 -9 161 -11z"/>
<path d="M8404 7949 c-2 -4 32 -9 76 -11 44 -3 83 -8 87 -11 4 -4 -38 -53 -93
-110 -55 -56 -114 -119 -132 -140 -20 -24 -39 -37 -47 -33 -13 5 -14 -86 -11
-702 3 -389 10 -786 16 -882 18 -299 16 -1570 -4 -2974 -2 -114 0 -223 4 -242
8 -34 7 -34 -27 -34 -20 0 -32 -4 -28 -10 3 -5 20 -10 36 -10 20 0 28 -4 23
-11 -4 -7 -22 -9 -45 -6 -22 3 -39 1 -39 -4 0 -5 20 -9 45 -9 41 0 45 -2 45
-24 0 -40 12 -86 22 -86 6 0 9 22 6 55 -3 31 -2 58 1 60 21 12 975 20 1221 9
243 -10 476 -13 390 -4 -47 4 -119 9 -160 10 -61 1 -69 3 -45 11 16 4 194 9
395 10 201 1 390 3 420 4 30 2 79 3 108 4 39 1 52 5 52 16 0 12 -16 15 -82 16
-71 2 -64 3 52 10 74 5 136 6 139 4 2 -3 -11 -5 -30 -5 -40 0 -64 -13 -55 -29
9 -14 53 -15 61 -1 3 5 15 10 25 10 14 0 18 5 13 17 -4 11 -3 14 5 9 7 -4 12
-4 12 1 0 11 120 10 144 -1 14 -7 21 -6 24 2 2 7 12 12 23 12 10 0 19 5 19 11
0 6 -15 10 -32 9 -50 -3 -55 -1 -34 15 19 14 18 15 -10 16 -16 0 -38 2 -49 5
-11 2 -45 6 -75 10 -30 3 -62 10 -71 15 -9 4 -49 7 -89 6 -54 -1 -74 2 -78 11
-3 11 9 13 59 8 135 -12 365 -16 334 -5 -16 5 -59 11 -95 13 -36 2 -78 4 -94
4 -64 4 -9 17 77 19 143 3 134 2 117 13 -8 5 -64 10 -125 10 -121 1 -118 14 5
26 40 4 82 8 94 9 12 1 32 3 45 4 40 2 19 10 -44 17 -33 3 -80 9 -105 13 -25
4 -80 7 -123 6 -42 -1 -77 0 -77 3 0 3 24 28 53 56 29 28 66 69 83 90 16 21
35 45 42 52 6 7 12 16 12 19 0 4 15 39 34 78 18 40 41 90 50 112 10 22 24 55
32 73 8 18 14 38 14 45 0 7 13 53 29 102 16 50 32 108 35 130 4 22 11 56 16
75 5 19 18 82 29 140 25 133 30 157 38 200 13 63 5 338 -11 405 -7 26 -48 244
-52 270 -1 11 -3 20 -4 20 -1 0 -4 11 -6 25 -2 13 -25 64 -49 112 -25 48 -45
94 -45 103 0 8 -7 18 -15 21 -18 7 -20 21 -2 27 6 2 5 3 -5 2 -10 -2 -28 15
-46 44 -17 25 -58 75 -91 111 l-61 65 58 60 c70 72 102 113 102 131 0 24 -15
15 -34 -20 -10 -18 -32 -44 -49 -56 -27 -21 -31 -21 -42 -7 -11 15 -16 10 -43
-33 -17 -28 -36 -50 -42 -50 -18 0 -8 16 68 110 12 15 22 34 22 41 0 11 3 11
10 -1 8 -12 10 -11 8 5 -2 11 18 61 44 111 26 51 45 93 43 95 -2 3 5 15 15 29
16 21 22 23 39 13 11 -7 34 -10 55 -6 24 4 44 0 61 -11 30 -20 31 -35 7 -62
-10 -11 -17 -25 -15 -31 2 -6 -10 -28 -28 -48 l-32 -36 32 -33 c29 -30 31 -35
17 -43 -33 -19 -176 -157 -176 -170 0 -8 5 -11 10 -8 6 3 10 -1 10 -9 0 -11 6
-13 18 -9 16 6 28 16 98 81 14 12 29 20 35 17 5 -4 17 -1 26 5 15 9 14 10 -7
5 -22 -5 -23 -4 -8 7 9 7 25 18 35 24 10 7 15 15 11 19 -4 4 -37 -15 -74 -41
-100 -74 -113 -81 -69 -38 22 21 53 56 69 77 16 20 35 37 43 37 8 0 11 -5 7
-12 -5 -7 -3 -8 5 -4 12 8 51 -19 51 -35 0 -4 -9 -11 -20 -14 -11 -3 -20 -13
-20 -21 0 -20 -24 -44 -44 -44 -15 0 -42 -37 -38 -52 1 -4 -8 -10 -19 -13 -14
-5 -19 -13 -16 -26 4 -13 -7 -29 -36 -54 -22 -19 -36 -35 -29 -35 6 0 14 5 17
10 3 6 18 7 32 4 14 -4 24 -3 21 2 -3 5 3 23 13 39 11 17 22 38 25 48 4 9 12
17 18 17 18 0 86 60 86 76 0 8 5 14 10 14 6 0 10 7 10 15 0 7 8 18 18 24 15 9
8 18 -51 75 l-67 64 34 59 c48 80 52 104 26 128 -16 14 -35 19 -66 18 -46 -2
-63 9 -46 30 6 7 10 28 10 48 0 20 9 54 21 77 35 68 29 91 -32 134 -15 11 -16
20 -7 68 5 30 12 89 14 130 3 41 8 86 11 100 3 14 6 80 6 147 1 98 -3 136 -22
198 -12 41 -18 79 -14 83 4 4 10 1 12 -5 3 -7 10 -13 16 -13 8 0 8 3 0 11 -6
6 -10 17 -9 23 2 6 1 8 -1 4 -3 -5 -9 -8 -14 -8 -14 0 -11 28 4 33 9 3 6 12
-8 33 -18 25 -46 96 -51 129 -6 41 -18 75 -26 75 -5 0 -6 4 -3 10 3 5 -5 25
-19 43 -14 19 -23 36 -21 39 8 8 -32 75 -78 131 -21 26 -36 47 -33 47 4 0 26
-9 49 -20 59 -29 17 4 -48 37 -27 14 -74 52 -105 84 -56 59 -98 86 -250 161
-111 54 -87 61 31 9 95 -43 134 -49 58 -10 -68 34 -179 70 -179 56 0 -6 -6 -4
-12 4 -7 9 -75 30 -153 48 -77 18 -156 39 -175 46 -19 8 -55 16 -80 19 -25 2
-74 10 -110 16 -35 6 -75 9 -87 5 -13 -3 -23 -1 -23 5 0 5 -5 10 -11 10 -5 0
-8 -4 -5 -9 3 -5 -76 -6 -182 -4 -292 8 -1083 9 -1088 2z m696 -40 c245 -4
459 -10 475 -13 17 -3 80 -6 140 -8 61 -1 113 -6 116 -10 3 -5 37 -12 75 -15
41 -3 79 -13 94 -23 15 -11 36 -16 50 -14 33 6 236 -54 325 -97 39 -18 100
-52 136 -75 76 -49 226 -202 266 -272 15 -26 43 -72 63 -102 34 -51 68 -145
104 -280 24 -95 27 -110 17 -110 -11 0 -37 60 -33 78 2 6 -1 12 -7 12 -5 0
-13 15 -17 32 -7 33 -33 82 -40 75 -5 -5 39 -150 61 -202 13 -31 14 -37 2 -25
-8 8 -31 60 -51 115 -21 55 -44 112 -52 127 -17 32 -18 42 -2 32 51 -32 -167
193 -227 233 -67 46 -260 149 -314 168 -84 29 -53 5 70 -54 82 -39 146 -78
189 -115 36 -31 73 -56 83 -56 10 0 15 -4 12 -10 -3 -5 0 -10 9 -10 16 0 81
-64 82 -83 2 -21 22 -65 34 -72 13 -8 103 -185 94 -185 -4 0 -2 -6 3 -12 12
-15 44 -110 40 -115 -4 -3 -14 16 -55 107 -33 74 -125 220 -172 274 -113 128
-409 318 -590 379 -200 66 -297 71 -1040 56 -322 -6 -606 -11 -632 -10 -27 1
-48 -2 -48 -8 0 -15 56 -23 110 -16 28 4 50 3 50 -2 0 -4 271 -8 602 -8 589 0
698 -5 818 -34 316 -78 483 -164 656 -336 79 -78 98 -104 146 -200 64 -126
141 -348 157 -450 6 -38 13 -132 15 -208 l5 -138 -26 -12 c-21 -9 -27 -8 -38
7 -10 12 -20 16 -37 11 -16 -4 -19 -4 -9 3 8 6 11 17 8 26 -7 17 -16 15 -84
-15 -56 -25 -61 -24 -29 6 15 13 33 22 41 19 11 -5 13 -2 8 11 -5 16 -2 17 26
12 29 -6 31 -5 21 13 -9 17 -6 22 27 35 28 12 34 18 25 27 -9 9 -19 8 -41 -5
-32 -19 -56 -22 -46 -7 4 6 -6 10 -23 10 -19 0 -45 -12 -71 -32 -22 -18 -65
-49 -95 -68 -79 -50 -73 -70 9 -30 22 11 31 18 20 15 -16 -5 -17 -4 -8 6 10
10 16 9 28 -1 14 -12 13 -15 -12 -33 -17 -12 -20 -16 -8 -12 44 16 58 16 30 0
-64 -35 -59 -48 5 -15 22 11 40 16 40 10 0 -5 -15 -17 -32 -26 -18 -9 -35 -18
-37 -20 -1 -1 6 -13 18 -25 17 -19 23 -21 34 -9 10 10 9 12 -6 7 -11 -4 -16
-3 -12 3 3 6 17 7 31 4 17 -4 26 -1 30 10 9 23 33 20 55 -6 10 -13 18 -18 18
-13 0 15 -57 75 -71 75 -21 0 5 18 37 25 29 6 29 6 11 -9 -19 -16 -19 -16 1
-16 13 0 24 -8 28 -21 5 -16 12 -19 28 -15 12 3 40 9 61 13 l39 6 -7 -54 c-11
-85 -12 -89 -36 -171 -13 -43 -28 -78 -34 -78 -7 0 -7 -3 1 -8 17 -11 -6 -83
-53 -170 -74 -134 -121 -179 -159 -149 -5 4 -19 14 -30 22 -20 15 -20 15 -1
30 11 8 15 15 10 15 -6 0 -15 -5 -22 -12 -9 -9 -22 -6 -57 12 -35 18 -48 21
-57 12 -9 -9 -7 -12 11 -12 12 0 43 -18 69 -40 26 -21 58 -48 72 -60 l25 -20
-71 -68 c-39 -37 -98 -83 -132 -102 -58 -33 -78 -58 -49 -62 6 0 17 -2 22 -3
6 -2 16 -3 24 -4 7 0 11 -7 8 -15 -4 -10 0 -12 15 -8 13 3 24 -1 30 -12 5 -9
15 -16 23 -16 7 0 22 -10 32 -23 10 -13 32 -32 48 -43 49 -31 95 -75 153 -148
66 -82 135 -193 127 -205 -6 -11 -45 -2 -45 10 0 5 -7 9 -15 9 -8 0 -15 -5
-15 -10 0 -12 -53 -5 -82 11 -23 12 -68 4 -68 -12 0 -6 7 -9 15 -6 27 11 28
-15 2 -39 -15 -13 -28 -24 -31 -24 -5 0 -44 -32 -106 -87 -53 -49 -68 -54 -44
-18 25 39 4 29 -47 -21 -39 -39 -50 -44 -65 -35 -11 6 -13 11 -6 11 12 0 168
113 227 164 l30 27 -39 -16 c-45 -18 -46 -18 -46 -6 0 5 16 15 35 21 19 6 34
15 32 19 -1 5 9 18 23 29 17 15 20 22 10 22 -9 0 -5 6 10 15 16 9 19 14 9 15
-17 0 -54 -24 -54 -37 -1 -18 -27 -53 -35 -48 -11 7 -51 -26 -44 -36 2 -5 -6
-15 -18 -22 -13 -8 -43 -27 -66 -42 -52 -31 -49 -47 3 -17 19 12 35 18 35 13
0 -10 -48 -33 -77 -36 -13 -2 -23 0 -23 4 0 12 43 48 67 55 11 4 27 14 34 22
8 10 -4 7 -33 -8 -26 -13 -63 -45 -88 -76 -23 -30 -44 -51 -47 -48 -4 3 2 15
12 26 10 11 14 20 8 20 -5 0 -18 -10 -29 -21 -10 -12 -43 -37 -71 -55 -60 -38
-73 -57 -16 -24 26 15 38 18 43 10 5 -9 9 -9 14 -1 4 6 1 11 -6 11 -9 0 -9 3
2 10 8 5 18 10 21 10 12 0 4 -35 -11 -48 -13 -11 -12 -12 8 -7 24 7 29 -4 10
-23 -15 -15 -48 -16 -48 -1 0 5 -5 7 -10 4 -15 -9 -71 12 -102 38 l-27 23 22
14 c20 12 21 12 8 -3 -18 -23 -3 -21 34 3 20 13 32 16 36 8 4 -6 12 -7 19 -3
9 6 9 9 0 15 -8 5 -7 9 5 13 10 5 14 3 9 -4 -4 -7 -1 -10 7 -7 8 3 13 11 11
17 -1 7 2 10 7 7 5 -3 20 3 34 14 14 11 30 20 37 20 6 0 22 11 35 24 13 13 53
40 89 60 37 21 73 47 81 60 8 12 42 40 75 62 33 21 55 41 49 43 -5 1 -36 -14
-67 -35 -31 -21 -64 -39 -72 -40 -8 -1 -22 -5 -32 -9 -11 -4 -18 0 -22 12 -9
28 -45 23 -77 -10 -20 -20 -27 -23 -22 -10 4 11 -7 6 -30 -16 -54 -51 -55 -32
-1 28 25 28 42 51 37 51 -5 0 -14 -5 -21 -12 -6 -6 -22 -13 -34 -15 -12 -2
-33 -13 -45 -25 -26 -24 -43 -18 -22 8 7 9 14 25 16 35 3 19 2 19 -35 0 -20
-10 -48 -22 -62 -25 -20 -6 -19 -4 9 14 18 11 31 24 27 27 -3 3 -1 14 5 24 16
30 -5 22 -45 -17 -49 -48 -55 -39 -10 14 47 55 36 53 -22 -4 -25 -25 -49 -43
-52 -40 -2 3 6 14 19 25 29 24 6 29 -27 6 -21 -14 -34 -11 -34 8 0 5 7 7 15 4
8 -4 17 -1 21 5 4 7 3 8 -4 4 -21 -13 -13 9 9 24 11 8 44 33 72 54 51 38 108
67 157 81 19 5 21 4 10 -4 -12 -8 -8 -11 17 -11 26 0 31 -3 26 -17 -5 -12 -2
-15 10 -10 18 7 167 116 167 122 0 8 -52 -15 -67 -30 -8 -9 -30 -27 -48 -41
l-33 -25 -38 26 c-43 29 -54 28 -136 -20 -60 -35 -110 -55 -93 -37 19 20 188
111 197 106 5 -3 6 -8 4 -12 -7 -12 63 -7 75 5 10 10 6 15 -17 24 -16 6 -47
14 -69 17 -48 6 -76 29 -54 44 10 7 8 8 -8 3 -14 -4 -23 -2 -23 4 0 6 3 11 8
11 4 0 18 9 32 20 l25 20 -37 -15 c-58 -23 -58 -17 2 20 79 50 53 43 -53 -14
-221 -118 -222 -120 -354 -341 -97 -163 -114 -196 -107 -203 3 -3 1 -14 -5
-24 -10 -17 -10 -17 -11 2 0 16 -2 17 -10 5 -6 -9 -6 -18 0 -24 13 -13 13 -26
-1 -26 -5 0 -7 6 -3 13 5 8 4 9 -3 2 -15 -15 -79 -239 -93 -325 -7 -41 -17
-93 -22 -114 -13 -53 -12 -365 1 -446 6 -36 11 -68 11 -72 0 -5 5 -8 11 -8 7
0 8 7 4 17 -12 33 -17 93 -7 93 8 0 16 -31 23 -100 1 -8 7 -19 13 -23 7 -5 3
-7 -9 -5 -17 3 -19 -2 -17 -37 4 -51 54 -221 86 -290 13 -30 35 -59 48 -66 12
-6 27 -19 32 -27 6 -11 21 -13 65 -8 51 6 63 3 115 -24 76 -41 106 -36 46 8
-25 17 -55 39 -68 48 -33 25 -21 27 23 4 22 -11 44 -20 50 -20 6 0 21 -9 33
-20 12 -11 31 -20 42 -20 12 0 28 -7 36 -15 15 -14 48 -10 39 6 -3 4 -12 6
-19 3 -7 -3 -21 6 -30 20 -9 15 -22 26 -29 26 -8 0 -24 11 -36 24 l-22 23 47
-3 c26 -2 51 -9 55 -16 9 -15 17 -16 111 -24 37 -2 89 -11 115 -19 26 -8 48
-13 50 -12 3 3 -54 32 -82 42 -19 7 -19 7 4 16 15 6 35 6 52 0 30 -10 109 -3
109 10 0 9 -43 12 -175 10 l-80 -1 35 19 c19 11 28 20 20 21 -8 0 -30 -9 -49
-21 -41 -25 -73 -19 -47 9 28 32 18 34 -29 6 -49 -29 -57 -20 -24 28 29 40 14
50 -17 10 -23 -28 -65 -48 -49 -22 9 15 -5 51 -16 44 -6 -3 -8 -12 -6 -19 7
-17 -70 -33 -110 -23 -59 15 -109 82 -162 215 -25 61 -26 73 -7 73 14 0 146
137 146 152 0 5 12 32 26 61 28 57 29 60 45 192 13 106 14 124 6 190 -4 28
-10 75 -13 105 -3 30 -17 84 -31 118 l-25 64 23 16 c13 9 44 31 69 49 58 41
141 86 147 79 3 -2 25 4 50 15 54 23 63 24 37 4 -23 -18 -2 -20 29 -3 20 10
21 10 8 -5 -7 -10 -22 -17 -33 -17 -10 0 -21 -7 -25 -15 -6 -18 -93 -80 -93
-68 0 4 17 24 37 43 21 19 32 27 24 18 -7 -10 -9 -18 -3 -18 5 0 17 12 27 26
l17 27 -28 -7 c-16 -4 -32 -13 -36 -19 -6 -9 -8 -9 -8 1 0 6 -4 12 -10 12 -5
0 -9 -10 -7 -22 1 -15 -5 -24 -23 -29 -14 -4 -21 -7 -16 -8 25 -3 -33 -30 -64
-31 -31 -1 -33 -2 -15 -12 11 -7 41 -34 67 -60 41 -42 52 -48 85 -48 21 1 52
-2 69 -5 40 -9 68 16 62 56 l-4 28 50 -36 c47 -33 50 -34 63 -17 12 17 14 17
35 -4 61 -56 121 -48 158 21 15 29 34 50 48 53 32 9 55 57 47 103 -5 32 -2 41
22 65 21 22 34 26 56 22 16 -3 38 -1 48 5 37 20 49 -2 105 -186 25 -84 54
-221 53 -255 0 -26 -26 45 -34 91 -8 54 -25 112 -32 106 -2 -3 12 -90 32 -193
35 -176 37 -198 32 -319 -3 -71 -10 -143 -16 -160 -5 -16 -12 -46 -14 -65 -3
-19 -10 -57 -16 -84 -7 -27 -13 -62 -15 -78 -5 -39 -38 -108 -53 -108 -6 0 -9
-9 -6 -20 3 -12 0 -20 -6 -20 -7 0 -9 -4 -6 -10 3 -5 2 -10 -4 -10 -5 0 -13
-10 -17 -22 -27 -89 -209 -313 -263 -324 -27 -6 -104 -64 -84 -64 6 0 16 6 22
14 6 8 21 16 33 19 20 6 20 4 -4 -20 -16 -15 -37 -25 -54 -25 -16 0 -44 -13
-64 -28 -46 -37 -291 -114 -440 -139 -63 -11 -173 -25 -245 -31 -124 -11 -455
-14 -540 -6 -22 2 -155 7 -295 11 -140 4 -257 9 -260 10 -3 2 -39 0 -80 -4
l-75 -8 78 -2 c44 0 77 -5 77 -11 0 -6 -64 -10 -171 -10 -101 0 -168 4 -164 9
4 7 18 1156 15 1266 0 6 3 6 9 0 6 -6 11 -74 12 -152 2 -79 6 -143 11 -143 10
0 -2 404 -13 439 -5 18 -7 2 -6 -48 1 -54 -2 -76 -11 -79 -12 -4 -13 51 -3
161 1 5 6 5 11 2 6 -3 10 -1 10 4 0 6 -6 11 -13 11 -10 0 -14 17 -14 65 1 36
3 65 6 65 3 0 5 147 4 328 -1 180 -5 793 -8 1362 -3 569 -10 1135 -16 1258
l-11 224 68 71 c37 40 79 83 93 96 83 75 101 94 101 110 0 27 39 64 59 55 9
-4 216 -11 461 -15z m1188 -2735 c12 -4 22 -10 22 -14 0 -9 -80 -45 -97 -43
-7 0 -11 -4 -10 -10 1 -6 -7 -12 -18 -14 -11 -1 -14 0 -7 3 17 8 15 25 -3 18
-8 -4 -15 -12 -15 -19 0 -17 -37 -48 -49 -40 -6 3 -9 0 -5 -8 5 -15 -41 -41
-56 -32 -11 7 -50 -16 -50 -28 0 -4 5 -5 12 -1 6 4 -10 -14 -35 -41 -26 -26
-50 -45 -54 -42 -3 4 0 14 8 23 7 9 14 25 16 36 5 29 59 104 96 132 49 36 118
69 157 73 19 2 36 6 39 8 6 7 21 6 49 -1z m-208 -183 c-25 -15 -54 -39 -65
-52 l-20 -23 28 17 c15 10 27 13 27 7 0 -6 -6 -13 -13 -16 -19 -7 -15 -39 7
-63 16 -18 17 -23 5 -37 -12 -15 -11 -16 11 -9 14 4 28 13 32 19 4 6 9 8 12 5
13 -12 -186 -199 -212 -199 -17 0 -43 56 -38 82 14 77 41 130 90 177 52 51
120 103 146 114 36 14 32 4 -10 -22z m94 -196 c-7 -17 -149 -136 -271 -228
-45 -34 -84 -70 -87 -80 -3 -13 -10 -17 -24 -13 -30 10 -100 -74 -129 -154
-19 -53 -22 -58 -17 -25 3 22 6 48 7 58 1 9 5 17 10 17 5 0 7 14 4 30 -4 18
-2 30 4 30 6 0 7 -4 4 -10 -3 -5 -2 -10 3 -10 5 0 12 9 15 19 3 13 1 18 -8 15
-10 -4 -9 6 3 40 9 25 22 48 29 50 8 3 10 -1 5 -12 -5 -16 -4 -16 18 1 14 9
32 20 40 23 87 32 175 90 270 179 81 76 138 108 124 70z m561 -15 c3 -5 -1
-20 -10 -33 -8 -13 -17 -43 -19 -67 -4 -44 -20 -64 -45 -55 -7 3 -20 0 -28 -6
-19 -16 -29 -3 -13 16 8 9 22 14 32 12 10 -3 18 -1 18 4 0 5 -8 9 -17 9 -14 0
-9 8 16 30 18 17 28 30 21 30 -8 0 -32 -20 -56 -45 -23 -25 -46 -45 -52 -45
-6 0 -14 -4 -17 -10 -3 -6 1 -7 9 -4 22 8 20 -2 -4 -24 l-20 -19 22 -19 c20
-18 21 -18 15 -1 -7 19 3 33 41 55 26 15 32 15 32 2 0 -6 -11 -15 -23 -21 -18
-8 -23 -17 -20 -34 5 -26 -34 -62 -50 -46 -5 5 -15 7 -21 5 -7 -3 -21 5 -32
17 -19 21 -19 21 10 45 15 14 25 28 22 31 -3 4 -12 1 -18 -5 -7 -7 -16 -12
-20 -12 -5 0 28 33 73 73 46 39 94 84 108 99 28 30 37 33 46 18z m-784 -360
c27 -85 36 -243 19 -315 -16 -67 -48 -99 -154 -155 -58 -31 -81 -39 -86 -29
-13 20 -10 253 4 310 25 100 66 176 145 262 24 26 26 27 39 10 7 -10 22 -47
33 -83z"/>
<path d="M10000 7265 c-25 -6 -54 -9 -65 -5 -32 12 -118 -43 -160 -102 -34
-46 -38 -49 -54 -34 -24 21 -64 20 -92 -3 -21 -16 -26 -17 -56 -5 -44 19 -50
18 -79 -11 -14 -14 -38 -32 -54 -40 -48 -25 -35 -78 23 -98 17 -6 16 -11 -12
-61 -31 -57 -31 -67 -1 -59 11 3 22 18 25 37 4 17 18 53 31 80 25 49 26 75 2
37 -16 -26 -30 -27 -53 -1 -22 25 -13 49 25 63 17 6 30 17 30 24 0 21 52 19
84 -3 26 -18 47 -18 40 1 -4 9 3 17 23 22 36 9 54 5 69 -15 11 -15 15 -14 43
12 17 17 31 33 31 38 0 20 55 69 72 65 10 -3 22 2 27 11 7 13 24 17 70 17 39
0 62 4 66 13 7 19 53 14 76 -9 26 -26 35 -19 12 10 -23 27 -66 33 -123 16z"/>
<path d="M10106 7175 c29 -28 35 -39 30 -60 -5 -20 -2 -27 18 -36 14 -7 28
-26 35 -50 l12 -39 55 0 c30 0 67 6 82 14 15 7 43 16 63 20 31 5 41 2 68 -23
28 -27 42 -61 24 -61 -5 0 -14 -4 -22 -9 -12 -8 -9 -15 12 -41 30 -35 46 -82
30 -87 -6 -2 -19 -11 -29 -19 -18 -15 -18 -15 1 -9 51 18 58 16 26 -6 -35 -25
-51 -49 -32 -49 6 0 11 5 11 10 0 6 5 10 12 10 6 0 8 -3 5 -7 -4 -3 2 -16 13
-28 l21 -22 -20 -46 c-11 -26 -17 -47 -12 -47 12 0 42 36 35 42 -3 4 -1 15 5
27 10 19 13 19 46 5 41 -17 81 -18 123 -3 25 9 39 7 76 -10 53 -23 65 -44 42
-70 -22 -24 -20 -48 4 -63 25 -16 26 -35 1 -43 -36 -11 -45 -32 -27 -60 22
-33 40 -33 32 1 -5 20 -2 30 13 41 37 25 43 48 20 77 -14 17 -18 33 -13 44 30
71 -54 129 -150 102 -45 -12 -46 -12 -82 20 -28 24 -44 31 -65 28 -17 -3 -30
1 -33 9 -3 7 -2 13 3 13 4 0 13 11 19 25 10 21 7 31 -23 76 -33 48 -35 53 -23
90 11 37 10 41 -17 69 -39 41 -89 56 -118 37 -31 -20 -77 -30 -77 -17 0 7 -9
5 -22 -4 -34 -24 -46 -20 -67 22 -10 20 -28 46 -40 56 -12 11 -21 31 -21 45 0
36 -10 47 -48 54 l-33 7 37 -35z"/>
<path d="M9363 6929 c-30 -19 -34 -19 -62 -5 -45 24 -70 20 -112 -19 -22 -19
-44 -35 -49 -35 -6 0 -10 -7 -10 -15 0 -21 -13 -19 -35 5 -22 24 -32 25 -104
4 -105 -31 -101 -27 -101 -92 0 -53 2 -60 25 -70 14 -7 28 -12 30 -12 11 0 4
29 -10 40 -18 15 -20 74 -2 87 11 8 105 33 127 33 5 0 22 -12 39 -26 l31 -26
25 20 c16 13 33 18 48 14 19 -5 20 -4 9 11 -8 9 -11 25 -7 37 14 43 75 49 111
9 20 -22 34 -25 34 -6 0 19 33 47 53 47 9 0 17 5 17 10 0 16 -22 11 -57 -11z"/>
<path d="M9526 6858 c-22 -28 -28 -31 -37 -18 -8 11 -12 12 -16 3 -2 -7 -17
-13 -33 -13 -16 0 -30 6 -33 13 -3 9 -7 9 -18 0 -8 -7 -42 -13 -74 -15 -54 -3
-60 -5 -56 -23 2 -11 4 -155 6 -320 1 -165 5 -310 9 -321 4 -15 1 -28 -10 -39
-26 -25 -39 -3 -20 33 9 17 16 39 16 49 -1 11 -8 4 -21 -19 -11 -21 -24 -38
-29 -38 -5 0 -12 -9 -15 -20 -8 -24 -40 -27 -49 -4 -3 9 4 34 16 55 29 51 17
61 -16 12 -32 -47 -32 -54 -1 -91 31 -37 31 -43 -1 -82 -22 -25 -33 -31 -60
-28 -18 2 -33 0 -34 -4 0 -5 0 -16 1 -25 0 -15 2 -15 9 2 7 17 9 17 9 3 1 -13
9 -18 30 -18 21 0 43 13 77 45 26 25 50 45 54 45 13 0 2 -54 -12 -59 -14 -4
-98 -87 -98 -97 0 -3 12 3 28 14 45 31 59 35 27 7 -55 -48 -115 -86 -126 -80
-12 8 -62 -23 -55 -34 9 -14 45 -6 68 15 56 50 107 70 88 35 -8 -17 -7 -20 9
-18 11 0 18 4 15 8 -2 4 0 10 6 14 5 3 10 1 10 -6 0 -8 4 -8 13 -1 7 6 23 9
35 5 13 -3 22 -1 22 6 0 7 5 9 11 5 7 -4 10 -29 7 -66 l-4 -60 100 5 c203 10
245 28 384 160 34 32 85 110 88 135 2 8 10 22 19 32 9 10 14 23 11 29 -4 5 3
16 15 24 13 9 16 17 10 22 -8 4 -8 12 0 27 9 17 13 18 20 7 5 -8 9 -9 9 -4 0
6 12 11 27 12 l27 1 -24 -19 c-14 -10 -31 -17 -38 -14 -7 3 -12 -2 -10 -10 2
-7 -6 -21 -17 -29 -11 -9 -15 -16 -8 -16 7 0 10 -7 6 -17 -4 -11 -3 -14 5 -9
8 5 10 1 5 -11 -6 -16 -5 -16 11 -4 9 8 15 20 12 28 -3 8 10 23 32 37 67 43
60 18 -19 -63 -9 -9 -28 -36 -43 -61 -38 -65 -62 -91 -79 -85 -8 4 -21 -4 -31
-19 -9 -15 -12 -26 -6 -26 5 0 10 5 10 11 0 5 5 7 10 4 6 -4 8 -10 5 -15 -3
-4 4 -6 15 -3 14 4 20 0 20 -11 0 -9 5 -16 10 -16 6 0 10 9 10 21 0 12 27 48
65 86 36 36 65 62 65 57 0 -4 7 1 15 12 8 10 15 14 15 7 0 -6 3 -18 6 -27 4
-11 0 -16 -14 -16 -22 0 -64 -44 -88 -94 l-16 -31 24 26 c32 37 72 61 91 53
18 -7 32 -40 28 -66 -1 -10 3 -18 9 -18 6 0 9 4 6 9 -4 5 -2 19 2 32 9 23 -13
79 -31 79 -5 0 -6 4 -3 9 3 5 1 23 -5 40 -6 18 -9 35 -6 38 7 6 57 -102 57
-123 0 -8 5 -14 10 -14 11 0 4 42 -12 73 -5 10 -7 21 -4 24 3 3 8 -2 12 -11 9
-22 27 -20 20 2 -5 13 1 22 18 30 16 7 29 24 34 43 4 18 13 34 20 37 18 6 15
-17 -8 -53 -11 -19 -20 -37 -18 -42 4 -18 -14 -73 -25 -73 -8 0 -7 -3 2 -9 9
-6 10 -11 2 -15 -6 -4 -8 -12 -5 -18 4 -6 0 -14 -7 -19 -11 -7 -10 -9 4 -9 24
0 22 -41 -4 -74 -41 -52 -12 -36 35 19 50 58 65 66 73 38 8 -32 52 -55 110
-59 49 -3 163 -46 163 -62 0 -3 -8 -11 -17 -18 -14 -10 -15 -15 -6 -25 10 -10
16 -9 31 4 27 25 38 21 16 -5 l-19 -23 22 19 c13 10 20 23 17 27 -3 5 0 9 5 9
6 0 11 4 11 9 0 5 -10 7 -22 3 -21 -5 -22 -4 -9 11 9 11 10 17 2 17 -22 0 -11
18 19 30 17 7 30 16 30 21 0 5 -17 0 -37 -11 -48 -26 -78 -26 -38 -1 53 34 81
61 66 61 -11 0 -9 4 5 14 41 31 5 23 -50 -10 -32 -19 -61 -33 -64 -30 -2 3
-13 1 -24 -5 -11 -6 -37 -8 -60 -4 l-40 7 34 20 c18 11 40 27 48 34 20 20 103
74 113 74 22 0 -1 -20 -68 -59 -71 -42 -90 -61 -62 -61 6 0 47 18 90 40 42 22
85 40 95 40 22 0 90 55 80 65 -4 4 -21 -4 -38 -19 -17 -14 -35 -26 -39 -26
-15 0 -43 39 -36 49 3 6 -1 11 -9 11 -26 0 -58 38 -51 61 10 30 -4 23 -50 -27
l-43 -46 -31 18 c-17 10 -31 21 -31 25 0 3 19 31 42 60 44 56 28 50 -27 -10
-19 -20 -37 -31 -43 -27 -19 11 -14 32 16 67 28 34 14 32 -25 -4 -31 -27 -29
-5 2 41 31 46 32 62 3 35 -13 -11 -31 -23 -40 -26 -10 -4 -18 -11 -18 -17 0
-5 -5 -10 -11 -10 -6 0 -8 9 -3 23 6 21 6 21 -13 5 -25 -23 -42 -23 -58 -1 -9
12 -10 23 -4 35 6 11 6 18 0 18 -5 0 -11 -5 -13 -12 -3 -9 -8 -8 -20 2 -13 13
-11 19 18 60 l33 46 -25 -1 c-14 0 -31 -7 -37 -16 -47 -62 -56 -69 -96 -74
-23 -3 -41 -3 -41 0 0 20 36 84 65 116 19 22 35 44 35 51 0 7 12 26 27 42 15
17 0 4 -34 -29 -35 -33 -63 -64 -63 -68 0 -5 -15 -27 -34 -50 -18 -23 -31 -49
-29 -57 3 -10 2 -11 -4 -3 -6 8 -14 9 -23 3 -23 -14 -30 -12 -23 8 5 14 3 13
-11 -3 -15 -19 -16 -14 -13 73 4 99 -17 211 -48 258 -9 14 -15 28 -12 30 12
13 67 -110 67 -151 0 -13 5 -27 10 -30 25 -15 3 137 -25 173 -28 37 -48 53
-61 48 -7 -3 -13 -2 -11 3 1 4 -34 39 -78 77 -57 48 -98 75 -137 88 l-56 19
21 29 c30 40 14 46 -17 6z m3 -99 c49 -7 74 -18 110 -46 87 -69 113 -98 140
-158 45 -95 46 -120 11 -182 -17 -29 -26 -53 -20 -53 6 0 18 19 27 42 16 40
17 41 23 17 9 -32 0 -139 -11 -139 -5 0 -9 -9 -9 -20 0 -11 5 -20 10 -20 20 0
11 -96 -13 -131 -20 -30 -31 -36 -87 -46 -36 -7 -86 -12 -111 -13 -29 0 -63
-9 -94 -25 -26 -14 -50 -24 -53 -21 -2 3 -6 90 -8 193 -1 103 -6 284 -9 401
-7 242 -18 220 94 201z"/>
<path d="M9027 6544 c-16 -19 -33 -32 -37 -29 -4 3 -13 -2 -20 -10 -14 -17
-35 -21 -25 -5 10 16 -31 11 -45 -5 -9 -10 -9 -15 -1 -15 6 0 3 -8 -7 -18 -10
-10 -25 -28 -33 -40 -8 -11 -49 -38 -90 -59 l-74 -38 1 -47 c0 -32 -4 -48 -12
-48 -7 0 -22 -12 -34 -27 -12 -15 -40 -35 -63 -43 -36 -13 -42 -20 -45 -47 -3
-27 2 -36 30 -54 31 -20 27 -21 -13 -4 -11 4 -25 -2 -38 -17 -12 -12 -41 -27
-64 -33 -32 -8 -44 -16 -51 -38 -9 -24 -6 -32 32 -70 23 -24 42 -45 42 -48 0
-4 -16 -26 -35 -50 -51 -64 -45 -99 22 -140 21 -13 42 -29 46 -36 5 -7 13 -10
20 -6 21 13 62 12 83 -2 26 -17 36 -51 19 -65 -11 -9 -10 -18 2 -50 9 -22 22
-40 29 -40 18 0 -49 -66 -86 -85 -55 -29 -67 11 -25 80 36 58 31 65 -10 14
-23 -29 -35 -55 -35 -76 0 -25 -9 -39 -46 -70 -46 -40 -75 -105 -52 -119 5 -3
0 -13 -11 -21 -12 -8 -21 -22 -21 -32 0 -25 26 -45 46 -37 12 5 28 -5 50 -30
24 -25 40 -35 53 -31 11 3 29 -2 40 -9 18 -13 24 -13 46 2 31 20 19 42 -13 25
-25 -13 -45 -14 -38 -2 4 5 26 16 51 24 43 15 45 15 45 -4 0 -10 5 -19 10 -19
6 0 10 -6 10 -14 0 -15 -21 -26 -50 -26 -10 0 -22 -5 -25 -11 -12 -19 2 -21
34 -5 36 19 65 21 55 4 -4 -6 4 -3 18 8 25 18 25 19 7 32 -19 13 -17 38 2 27
5 -4 9 -4 9 0 0 3 -10 9 -22 14 -20 7 -18 11 35 46 31 21 57 39 57 41 0 5 -34
-8 -48 -19 -7 -6 -36 -12 -63 -13 -32 -2 -61 -11 -82 -26 -30 -22 -67 -32 -65
-19 3 27 -4 30 -21 10 l-19 -24 -7 28 c-8 31 -9 31 -36 17 -14 -8 -25 -7 -40
4 -26 18 -9 29 34 22 21 -4 26 -3 13 2 -13 6 -16 11 -8 16 8 5 5 13 -8 26 -11
11 -20 25 -20 30 0 22 84 90 130 105 28 9 52 21 55 26 4 5 11 9 17 9 6 0 1
-11 -12 -25 -37 -40 -12 -29 36 15 72 66 89 45 29 -34 -20 -25 -33 -46 -30
-46 8 0 85 81 85 91 0 4 9 11 20 14 11 3 20 11 20 16 0 12 -17 12 -25 -1 -4
-6 -11 -8 -16 -5 -12 8 -12 45 1 45 6 0 10 5 10 11 0 8 -4 8 -15 -1 -12 -10
-18 -9 -31 5 -11 11 -13 20 -6 27 6 6 12 6 16 -1 4 -6 11 -11 15 -11 8 0 33
45 37 70 2 8 11 20 20 27 16 12 17 13 1 13 -9 0 -17 4 -17 10 0 10 76 88 138
141 l37 31 -33 -18 c-19 -11 -67 -50 -108 -88 -41 -38 -78 -66 -81 -62 -5 5
103 136 113 136 2 0 1 -8 -3 -17 -5 -15 -3 -14 10 2 15 19 14 20 -5 23 -21 4
-69 -39 -104 -93 -15 -24 -74 -63 -74 -50 0 3 7 21 14 40 14 31 6 50 -9 25 -3
-5 -16 -10 -28 -10 -19 1 -20 2 -7 13 8 7 31 30 50 51 47 52 10 31 -59 -34
-30 -27 -59 -50 -63 -50 -15 0 -8 20 13 38 32 26 59 54 82 87 20 28 20 29 2
16 -11 -8 -38 -34 -60 -58 -35 -38 -45 -43 -68 -38 -35 9 -34 17 8 49 27 21
35 23 35 12 0 -9 -5 -16 -12 -16 -6 0 -8 -3 -5 -6 10 -10 39 17 33 31 -2 7 1
18 7 25 7 7 -10 -2 -38 -20 -27 -19 -55 -41 -62 -49 -10 -14 -14 -13 -33 7
l-22 23 38 49 c25 32 44 48 54 45 11 -3 16 3 17 24 2 24 -1 28 -17 24 -15 -4
-20 0 -20 16 0 14 -5 19 -15 15 -8 -4 -15 -2 -15 4 0 5 -9 12 -20 15 -22 6
-28 37 -7 37 6 0 24 6 39 14 15 8 36 12 46 9 24 -6 40 16 21 28 -21 13 -3 22
20 9 30 -15 36 6 16 53 -19 46 -14 57 31 57 22 0 34 5 34 14 0 26 31 40 81 38
27 -1 49 2 49 8 0 5 -5 10 -10 10 -6 0 -22 11 -36 25 -21 21 -23 29 -14 40 7
8 10 15 7 15 -11 0 48 57 66 63 19 7 67 -11 67 -26 0 -5 13 -7 28 -4 15 3 34
2 42 -4 10 -6 11 -9 3 -9 -7 0 -12 -4 -10 -8 1 -4 -20 -32 -48 -60 -61 -65
-85 -101 -85 -127 0 -13 13 1 39 40 33 52 128 153 226 240 25 22 26 24 6 14
-13 -6 -43 -29 -67 -51 -75 -69 -48 -23 42 71 76 81 83 91 61 91 -13 0 -31 -7
-38 -17 -13 -15 -12 -15 8 -5 37 20 39 13 2 -13 -19 -14 -57 -51 -86 -82 -29
-32 -55 -54 -59 -50 -6 6 59 90 91 117 8 7 15 17 15 23 0 7 -30 -19 -68 -56
-62 -62 -102 -84 -102 -56 0 19 82 91 110 97 18 4 90 77 90 91 0 19 -14 11
-43 -25z"/>
<path d="M9879 5684 c-7 -8 -27 -43 -45 -77 -35 -67 -53 -82 -55 -45 -1 17 -3
18 -6 6 -6 -24 -13 -23 -46 8 l-28 25 22 35 c12 19 19 38 16 40 -3 3 -15 -12
-27 -35 -19 -38 -40 -54 -40 -31 0 6 -7 10 -15 10 -26 0 -17 -15 30 -50 25
-18 47 -42 51 -52 8 -27 -18 -62 -65 -85 -35 -18 -43 -18 -49 -6 -7 12 -10 12
-21 -1 -25 -30 -34 -18 -28 34 4 29 2 50 -3 50 -6 0 -10 -6 -10 -13 0 -21 -79
-87 -104 -87 -3 0 -6 9 -6 21 0 11 -4 17 -10 14 -5 -3 -10 -17 -10 -31 0 -13
-4 -24 -9 -24 -21 0 -21 21 -1 62 24 50 24 49 5 42 -8 -4 -15 -12 -15 -18 0
-7 -24 -25 -54 -41 l-54 -28 -43 34 c-33 26 -41 29 -34 14 16 -40 11 -67 -19
-89 -21 -16 -30 -18 -33 -8 -4 10 -8 9 -17 -3 -12 -16 -46 -12 -46 6 0 4 6 6
14 3 8 -3 17 0 21 6 13 21 -3 21 -45 0 -23 -12 -49 -19 -58 -15 -12 5 -10 11
14 37 l29 31 -32 -19 c-18 -10 -33 -24 -33 -31 0 -8 -11 -19 -25 -25 -26 -12
-36 -31 -10 -22 32 13 36 -8 8 -39 l-28 -30 27 19 c15 10 28 22 28 27 0 11 22
8 52 -7 15 -8 30 -11 33 -6 8 13 58 22 65 11 6 -11 40 11 87 57 13 12 29 22
36 22 7 0 6 -4 -3 -10 -8 -5 -10 -10 -4 -10 5 0 15 5 22 12 6 6 15 9 19 5 9
-10 -146 -157 -165 -157 -5 0 -19 -12 -33 -26 -13 -14 -36 -32 -50 -39 -22
-12 -29 -11 -54 5 -16 10 -33 26 -38 35 -5 9 -20 20 -33 26 -21 7 -29 5 -49
-19 -28 -32 -26 -37 8 -21 27 12 37 9 88 -35 l33 -28 -22 -18 c-12 -10 -22
-21 -22 -25 0 -4 7 -2 15 5 9 7 18 10 22 6 4 -3 -2 -12 -12 -20 -10 -7 -15
-18 -12 -24 8 -12 -60 -55 -77 -49 -6 2 3 11 21 20 17 9 35 22 39 28 13 22
-50 -22 -102 -69 -27 -26 -42 -41 -32 -33 10 8 21 12 24 9 3 -4 -16 -26 -43
-50 -26 -23 -59 -55 -73 -70 -27 -31 -46 -37 -36 -13 4 13 2 13 -14 5 -23 -12
-41 -13 -60 0 -13 8 -12 11 5 24 14 11 16 15 6 16 -12 0 -12 3 -3 12 7 7 12
19 12 28 0 9 12 23 28 32 15 9 43 33 62 54 35 38 35 38 5 19 -16 -10 -46 -29
-65 -42 -42 -28 -83 -31 -73 -5 4 9 14 22 22 29 13 9 9 10 -19 4 -30 -6 -35
-11 -35 -35 -1 -15 6 -33 15 -39 29 -21 32 -47 8 -66 l-21 -18 22 -30 c21 -28
26 -30 79 -26 32 2 80 3 108 3 29 0 59 6 70 15 10 8 27 15 37 15 9 0 17 5 17
12 0 7 20 -7 44 -31 50 -50 73 -49 95 1 8 18 16 27 18 21 3 -7 12 -10 21 -7
15 5 15 4 0 -9 -22 -18 -23 -27 -2 -27 23 0 11 -24 -14 -28 -26 -4 -30 -32 -5
-32 9 0 25 8 35 17 11 10 37 18 61 18 23 1 51 5 62 8 20 7 20 3 17 -211 -4
-224 -3 -566 1 -827 l2 -150 33 -3 c17 -2 32 -7 32 -11 0 -13 -59 -93 -104
-139 -44 -47 -177 -140 -248 -172 -43 -20 -43 -20 -8 -15 35 5 170 71 226 109
42 29 127 125 157 177 38 68 55 127 82 299 3 19 10 59 15 89 6 30 10 102 11
160 0 97 6 167 24 321 4 30 9 62 12 70 10 28 5 295 -6 335 -17 65 -63 128
-142 192 -90 74 -227 215 -164 168 l40 -30 -19 30 c-14 22 -4 16 37 -23 31
-29 72 -59 90 -67 39 -16 117 -98 171 -179 56 -84 60 -67 5 24 -15 25 -30 55
-34 68 -3 12 -10 22 -15 22 -5 0 -2 12 5 28 8 15 12 34 9 44 -2 9 0 19 6 23 5
3 11 1 11 -4 3 -26 4 -30 12 -37 4 -4 7 -28 7 -53 0 -25 9 -64 19 -86 l19 -40
1 47 c1 26 -3 69 -9 95 -5 26 -11 80 -14 118 -4 75 -12 105 -28 105 -5 0 -7 4
-3 9 3 5 -8 33 -25 61 -16 28 -30 54 -30 58 1 13 41 -43 70 -98 50 -94 78
-119 53 -48 -12 36 -12 45 1 71 l14 31 6 -37 c3 -20 9 -54 13 -74 4 -21 7 -54
8 -73 1 -20 5 -41 9 -48 4 -7 5 -12 3 -12 -3 0 -1 -17 4 -37 5 -21 11 -54 13
-73 2 -19 1 -27 -1 -18 -2 9 -11 22 -20 30 -15 11 -16 10 -9 -12 26 -86 53
-206 49 -216 -2 -7 0 -15 6 -19 7 -3 8 0 5 10 -4 10 -2 14 7 10 10 -4 21 14
37 57 26 75 28 100 7 92 -10 -4 -15 0 -15 14 0 11 -5 22 -12 24 -6 2 -8 10 -4
16 12 19 26 14 27 -10 0 -13 3 -17 6 -10 7 19 26 14 19 -5 -3 -10 12 2 34 27
37 41 129 213 179 335 l20 50 1 -80 c0 -57 -5 -87 -15 -103 -13 -17 -13 -21
-2 -16 8 3 20 16 27 29 7 13 39 42 71 65 60 42 80 51 59 25 -7 -8 -18 -15 -24
-15 -7 0 -25 -13 -41 -30 -43 -45 -16 -36 70 23 42 28 92 60 112 70 49 25 36
31 -15 7 -22 -11 -48 -17 -56 -14 -9 3 -16 1 -16 -5 0 -6 -4 -11 -10 -11 -5 0
0 16 11 35 20 33 23 35 62 29 35 -5 40 -4 29 7 -10 11 -6 19 20 46 40 41 33
42 -16 4 -30 -24 -42 -28 -59 -20 -12 5 -30 12 -39 15 -26 9 -22 21 19 73 29
35 32 42 13 28 -29 -21 -103 -57 -107 -53 -7 7 10 36 21 36 6 1 47 35 91 76
l80 75 -73 -58 c-41 -32 -78 -57 -84 -55 -5 1 -7 -2 -3 -8 3 -5 -5 -14 -19
-19 -13 -6 -29 -18 -34 -28 -6 -10 -13 -15 -17 -11 -4 3 1 19 11 35 l18 28
-25 -22 c-14 -13 -29 -23 -33 -23 -11 0 3 41 29 81 29 44 64 126 40 94 -36
-50 -58 -83 -78 -115 -19 -32 -22 -33 -25 -13 -2 12 2 32 8 45 11 22 10 21 -9
-2 -11 -14 -23 -33 -27 -42 -3 -10 -10 -18 -17 -18 -8 0 -8 3 1 12 7 7 12 21
12 32 0 10 12 34 26 53 14 19 24 36 21 39 -7 7 -56 -62 -73 -103 -12 -29 -18
-33 -26 -22 -7 11 -11 11 -15 2 -6 -17 -28 -16 -42 1 -9 10 -8 16 4 26 8 7 15
20 15 29 0 9 13 42 29 74 30 60 32 67 10 41z m-162 -539 c2 -6 -7 -22 -19 -35
-20 -22 -20 -23 -3 -16 11 5 38 10 60 11 39 2 41 1 39 -25 -2 -35 -30 -87 -52
-99 -31 -16 -60 -2 -73 36 -6 19 -9 43 -6 53 3 11 -1 21 -9 24 -20 8 -17 23 7
47 21 21 49 23 56 4z m-262 -357 c14 -13 12 -425 -2 -439 -8 -8 -13 27 -17
118 -9 167 -22 303 -31 327 -7 16 -5 17 16 11 13 -4 29 -12 34 -17z"/>
<path d="M9551 3680 c0 -42 -10 -107 -20 -145 -11 -38 -17 -73 -15 -77 3 -4 0
-8 -6 -8 -7 0 -10 -7 -6 -15 3 -8 1 -15 -4 -15 -6 0 -10 -9 -10 -19 0 -11 -4
-22 -9 -25 -5 -3 -12 -23 -15 -43 -5 -29 -20 -50 -63 -89 -74 -67 -51 -80 32
-18 32 24 66 44 76 44 10 0 21 5 24 10 3 6 15 10 25 10 10 0 26 7 35 17 10 9
20 12 23 7 4 -5 48 -31 99 -57 89 -45 133 -58 133 -37 0 6 -9 10 -21 10 -25 0
-53 14 -100 51 -20 16 -44 29 -53 29 -9 0 -19 8 -22 18 -3 9 -10 28 -16 42
l-10 25 -9 -24 c-7 -18 -13 -21 -21 -13 -6 6 -17 8 -25 5 -13 -5 -14 1 -9 33
10 66 9 256 -2 309 l-10 50 -1 -75z"/>
<path d="M9450 3496 c-5 -15 -10 -32 -10 -37 0 -6 -4 -8 -9 -5 -5 3 -29 -18
-54 -47 -36 -42 -69 -65 -157 -111 -61 -32 -147 -70 -191 -86 -44 -15 -83 -31
-86 -34 -19 -19 106 14 141 38 46 29 198 78 227 72 16 -3 29 -1 29 4 0 5 25
46 56 91 56 83 79 127 70 137 -3 3 -10 -7 -16 -22z"/>
<path d="M12520 7933 c-80 -2 -156 -6 -170 -9 l-25 -7 30 -9 c17 -5 107 -12
200 -15 153 -5 172 -4 188 11 25 25 12 36 -36 34 -23 -1 -107 -4 -187 -5z"/>
<path d="M12645 7221 c-71 -18 -165 -59 -220 -94 -16 -10 -22 -17 -12 -13 29
9 19 -1 -30 -35 -27 -18 -61 -44 -77 -58 l-29 -26 14 24 c8 14 25 35 39 48 20
19 21 22 5 14 -23 -11 -35 -23 -110 -111 -57 -67 -123 -183 -162 -281 -60
-156 -77 -437 -33 -574 13 -38 23 -81 24 -95 2 -24 27 -77 111 -235 21 -38 59
-110 85 -160 66 -127 129 -243 155 -290 12 -22 42 -76 65 -120 23 -44 61 -113
82 -153 l40 -73 -17 -102 c-9 -56 -23 -109 -31 -118 -10 -11 -11 -18 -3 -26 9
-9 7 -33 -5 -94 -11 -57 -13 -86 -6 -93 5 -5 10 -21 11 -35 0 -25 1 -26 11 -4
9 19 18 21 102 22 50 0 113 4 140 7 48 7 48 7 36 -15 -10 -21 -9 -22 12 -20
32 4 70 -10 62 -23 -5 -8 4 -9 28 -5 21 3 41 1 48 -6 10 -9 12 -8 7 4 -4 13 3
16 37 16 23 1 60 8 81 17 35 15 40 15 47 1 5 -8 14 -15 21 -15 8 0 8 3 -2 9
-8 5 -9 11 -3 15 6 3 13 -2 17 -13 3 -11 13 -18 23 -16 19 4 234 15 300 15 26
0 41 4 37 10 -3 6 -39 10 -78 10 -78 0 -117 13 -82 26 11 5 44 8 72 9 29 0 53
2 53 5 0 3 24 5 52 4 35 -1 40 0 16 3 -21 2 -38 8 -38 12 0 10 -115 13 -155 4
l-30 -7 35 -7 35 -6 -32 -2 c-17 0 -34 3 -38 9 -3 5 -26 9 -51 8 -69 -1 -79
14 -99 150 -10 64 -24 146 -31 182 l-13 65 141 280 c77 154 153 309 168 345
15 36 51 117 80 180 29 63 60 133 70 155 40 90 88 255 100 348 28 202 -34 421
-176 623 -52 75 -166 181 -214 201 -72 30 -118 52 -131 66 -8 7 -52 23 -99 35
-113 29 -347 30 -455 3z m469 -60 c141 -41 266 -104 266 -134 0 -7 -21 -17
-47 -23 -41 -10 -51 -9 -86 10 -22 12 -61 39 -86 61 -77 67 -90 71 -21 7 36
-34 80 -69 98 -79 17 -10 32 -20 32 -23 0 -3 -97 -32 -216 -64 -118 -33 -270
-81 -337 -108 l-122 -49 -20 27 c-21 28 -147 178 -171 204 -12 13 -14 13 -14
0 0 -8 17 -33 38 -55 53 -56 142 -168 142 -178 0 -5 -7 -6 -16 -3 -14 5 -15 4
-5 -8 10 -12 5 -27 -26 -79 -35 -57 -106 -252 -133 -364 -10 -38 -24 -53 -147
-153 -79 -63 -140 -107 -145 -102 -5 5 -10 26 -11 46 -1 20 -5 36 -8 36 -14 0
-30 106 -28 195 3 153 75 379 171 538 45 74 60 81 105 44 15 -13 53 -40 83
-62 131 -92 128 -90 80 -46 -25 23 -79 65 -120 93 -41 28 -77 53 -80 56 -13
11 154 126 242 166 201 91 378 106 582 47z m346 -211 c19 -22 35 -44 35 -48 2
-22 18 -51 31 -56 9 -3 12 -11 8 -17 -4 -7 -3 -9 3 -6 12 7 48 -41 39 -51 -3
-3 -6 0 -6 6 0 7 -6 12 -12 12 -7 0 2 -13 20 -29 33 -31 39 -41 22 -41 -5 0
-10 7 -10 15 0 8 -4 15 -10 15 -13 0 -13 -3 6 -50 9 -22 25 -45 34 -50 26 -14
43 -105 42 -220 -2 -289 -10 -323 -62 -261 -25 30 -150 268 -150 286 0 4 -43
115 -96 247 -52 132 -93 242 -91 245 9 8 121 42 142 42 12 1 35 -16 55 -39z
m-240 -27 c0 -10 -7 -85 -15 -168 -8 -82 -15 -176 -15 -207 0 -32 -3 -58 -7
-58 -5 0 -21 21 -37 48 -55 90 -105 132 -189 163 -139 51 -339 -16 -408 -135
-16 -28 -29 -59 -29 -68 0 -9 -5 -20 -11 -24 -12 -7 -11 -5 7 86 3 16 12 35
20 41 8 6 14 19 14 28 0 34 50 89 102 115 52 25 530 193 556 195 6 1 12 -7 12
-16z m41 -74 c30 -60 94 -216 140 -344 22 -60 63 -152 90 -203 28 -52 49 -95
47 -98 -2 -2 -58 33 -124 77 -65 44 -140 90 -167 102 l-48 22 5 50 c3 28 10
137 17 243 7 105 14 192 16 192 1 0 12 -19 24 -41z m-274 -217 c90 -47 154
-151 161 -263 4 -70 2 -82 -27 -142 -47 -99 -164 -187 -248 -187 -86 0 -204
75 -242 153 -76 159 10 398 164 455 44 17 144 8 192 -16z m-495 -251 c-5 -81
19 -197 54 -252 35 -56 85 -100 142 -127 46 -21 64 -23 140 -20 69 3 98 9 142
30 30 15 56 25 58 23 2 -2 -6 -14 -18 -27 -32 -33 -148 -218 -137 -218 3 0 37
47 76 103 39 57 98 135 131 173 87 99 140 227 123 292 -10 40 -3 36 282 -146
49 -31 91 -64 93 -72 1 -10 -64 -49 -215 -125 -120 -60 -289 -151 -375 -202
-86 -51 -161 -93 -167 -93 -5 0 -31 33 -57 73 -25 39 -74 102 -108 138 -89 97
-93 102 -77 107 8 3 1 16 -22 41 -81 84 -132 170 -92 155 15 -6 22 12 7 18
-16 6 6 198 22 198 2 0 1 -31 -2 -69z m-38 -228 c82 -120 124 -176 198 -265
117 -141 126 -153 103 -144 -11 4 -42 16 -70 26 -27 10 -112 47 -189 84 -76
36 -140 66 -142 66 -5 0 -218 91 -222 95 -2 1 29 27 68 56 39 30 99 75 133
101 34 26 65 48 68 48 3 0 27 -30 53 -67z m1158 -85 c-5 -7 -25 -49 -44 -93
-79 -181 -80 -183 -97 -178 -13 4 -13 3 -2 -5 14 -10 6 -26 -173 -377 -14 -27
-59 -122 -101 -210 -73 -152 -128 -252 -148 -266 -5 -4 -7 -11 -3 -17 3 -5 -9
-29 -27 -52 -42 -56 -42 -56 -65 -115 -14 -38 -24 -49 -38 -48 -10 1 -14 0 -7
-3 7 -3 9 -12 6 -21 -5 -11 -3 -14 6 -9 8 6 7 -2 -3 -22 -9 -17 -19 -33 -23
-35 -5 -3 -8 109 -8 249 0 177 3 257 11 262 6 4 14 18 18 32 6 24 6 24 -9 -3
-9 -15 -20 -25 -25 -22 -28 17 7 133 63 208 14 17 32 48 41 67 l17 35 -30 -35
c-17 -19 -36 -47 -43 -62 -7 -16 -18 -28 -24 -28 -6 0 -14 -15 -18 -32 -11
-55 -27 -12 -25 68 1 39 -1 75 -4 80 -5 8 -2 63 4 89 1 6 -1 18 -6 28 -4 9 -5
26 -2 37 3 11 1 35 -3 55 -6 26 -5 35 5 35 7 0 15 7 19 15 3 8 10 15 15 15 5
0 45 22 88 48 168 105 369 206 432 218 16 4 38 15 47 25 9 11 23 19 31 19 7 0
13 3 13 8 0 8 49 32 67 32 7 0 13 5 13 10 0 6 10 10 21 10 16 0 19 -3 11 -12z
m-1230 -189 c90 -40 213 -93 273 -119 176 -75 160 -62 161 -133 1 -34 9 -201
18 -372 19 -355 24 -551 14 -561 -4 -3 -1 -13 7 -21 16 -15 20 -33 8 -33 -13
0 -54 70 -47 81 3 6 -6 28 -20 49 -14 22 -26 42 -26 45 0 4 -17 32 -38 63 -21
31 -42 64 -45 72 -4 8 -11 22 -17 30 -5 8 -47 80 -91 160 -93 165 -180 318
-231 405 -44 76 -228 436 -228 447 0 5 22 -3 50 -17 27 -14 123 -57 212 -96z"/>
<path d="M11913 5868 c-25 -32 -76 -231 -154 -608 -12 -58 -37 -166 -56 -240
-19 -74 -40 -159 -48 -188 -14 -59 -25 -77 -25 -43 0 12 -4 20 -9 16 -5 -3 -9
-19 -9 -36 1 -17 -5 -35 -13 -41 -11 -7 -8 -9 9 -5 12 3 22 1 22 -4 0 -5 -8
-9 -18 -9 -15 0 -19 -8 -20 -35 -1 -20 -5 -41 -8 -47 -5 -8 -1 -9 9 -5 10 3
17 2 17 -2 0 -5 -7 -11 -15 -15 -8 -3 -12 -12 -9 -21 3 -8 2 -15 -4 -15 -6 0
-8 -9 -5 -19 6 -25 -16 -131 -27 -131 -5 0 -7 20 -5 45 3 26 1 45 -5 45 -6 0
-10 -5 -10 -11 0 -5 -4 -8 -9 -5 -9 6 -1 161 9 161 3 0 11 50 17 109 4 42 2
57 -6 52 -6 -4 -11 -26 -11 -49 0 -23 -7 -73 -15 -111 -8 -38 -14 -103 -14
-145 1 -91 -6 -157 -26 -254 -8 -39 -15 -76 -15 -80 0 -5 -4 -6 -9 -3 -5 3 0
46 10 95 25 123 30 289 9 301 -11 7 -12 9 -1 10 7 0 11 6 7 15 -3 8 -2 15 2
15 4 0 7 10 8 23 2 76 41 230 57 220 5 -3 7 0 5 8 -3 8 2 19 11 25 11 8 15 28
14 70 -2 73 12 169 43 299 21 91 38 178 51 260 2 17 13 75 24 129 14 69 17
102 9 110 -21 21 -21 21 -96 -312 -24 -106 -26 -125 -14 -133 13 -7 12 -9 -2
-9 -10 0 -18 -3 -18 -7 -1 -58 -37 -271 -65 -383 -20 -80 -48 -190 -61 -245
-13 -55 -28 -113 -33 -130 -6 -16 -20 -77 -31 -135 -12 -58 -41 -188 -65 -290
-24 -102 -55 -234 -68 -295 -14 -60 -38 -166 -55 -235 -60 -242 -76 -333 -77
-430 -1 -98 -18 -180 -37 -180 -7 0 -6 -5 2 -15 16 -19 30 -10 30 18 1 12 7
33 14 46 13 24 14 24 21 -20 4 -24 14 -56 21 -71 8 -15 14 -36 14 -47 0 -33
41 -101 69 -114 17 -9 46 -11 86 -6 33 4 101 7 150 8 63 1 85 4 75 11 -10 7
19 10 93 9 59 0 107 -5 107 -10 0 -5 92 -6 225 -3 209 6 225 5 232 -11 6 -16
7 -16 15 4 7 19 13 21 42 16 20 -4 36 -2 40 4 5 7 -4 11 -24 11 -30 0 -31 1
-24 38 4 20 11 45 15 54 5 9 9 25 9 36 0 18 7 19 98 16 53 -2 123 -9 155 -15
69 -14 315 -7 343 10 15 9 -10 10 -108 7 -76 -3 -128 -1 -128 5 0 5 22 9 49 9
28 0 53 5 56 10 4 7 -23 8 -77 4 -84 -6 -135 -7 -285 -5 -80 1 -83 2 -83 24 0
13 2 26 5 29 3 3 38 -1 78 -9 53 -11 119 -13 254 -9 100 4 188 8 195 10 7 3
60 8 118 12 247 15 297 22 125 17 -93 -3 -204 -7 -245 -8 -107 -5 -350 -5
-383 0 -77 10 -21 15 174 16 262 2 297 3 305 12 6 6 -480 13 -509 8 -5 -1 -6
3 -2 9 4 6 50 10 111 10 78 0 103 3 102 13 -2 7 6 11 17 10 47 -4 90 -5 259
-4 99 1 177 3 175 6 -6 5 -177 13 -457 20 -163 4 -212 3 -206 -6 9 -15 -21
-38 -44 -34 -9 1 -11 0 -4 -2 22 -8 13 -26 -10 -19 -13 3 -27 6 -31 6 -5 0 -6
4 -3 9 4 5 8 31 11 58 9 92 18 138 28 151 5 7 7 15 4 18 -3 3 1 27 8 52 8 26
17 85 21 132 3 47 10 90 14 95 5 6 16 49 25 96 l17 87 42 -3 c22 -2 175 -4
339 -4 l297 -1 0 -24 c0 -32 20 -86 32 -86 5 0 3 -7 -6 -15 -13 -13 -13 -20
-3 -43 6 -15 17 -33 24 -40 17 -17 17 -39 1 -45 -10 -3 -10 -7 0 -19 9 -11 9
-17 2 -20 -7 -2 -8 -11 -4 -22 7 -19 8 -19 16 0 4 11 5 0 2 -27 -3 -27 1 -71
10 -110 9 -35 20 -94 25 -131 10 -75 11 -76 59 -135 24 -30 32 -48 27 -63 -3
-11 -2 -20 4 -20 5 0 29 -20 53 -45 24 -24 46 -45 49 -45 4 0 3 15 -1 34 -8
38 -36 83 -85 136 -39 43 -80 110 -67 110 5 0 12 -7 16 -15 11 -29 33 -17 28
16 -4 24 -1 30 9 27 8 -3 15 -13 17 -24 10 -74 16 -101 28 -119 18 -25 18 -10
0 59 -14 53 -12 96 5 96 4 0 11 -21 14 -47 4 -27 15 -81 26 -121 10 -40 19
-83 19 -95 0 -13 3 -26 6 -30 4 -3 7 -25 8 -47 2 -39 1 -41 -21 -37 -13 2 -26
0 -29 -4 -3 -5 11 -9 30 -9 19 0 38 -4 41 -10 4 -6 78 -8 203 -5 281 8 833 -5
837 -19 2 -6 14 -44 26 -84 12 -40 25 -75 29 -77 9 -6 -13 91 -23 101 -4 4 -7
28 -7 52 0 25 -5 59 -10 76 -10 30 -70 267 -115 456 -12 52 -29 131 -37 175
-13 69 -55 256 -102 455 -7 30 -10 56 -6 58 10 4 0 53 -17 79 -11 17 -12 22
-1 26 9 4 8 6 -3 6 -16 1 -35 58 -24 69 3 3 5 0 5 -6 0 -7 5 -12 12 -12 6 0 4
7 -6 18 -28 32 -65 200 -46 212 6 4 8 14 4 23 -3 9 -10 15 -14 12 -4 -3 -11
12 -15 32 -4 23 -2 38 5 43 9 6 9 13 -1 31 -7 13 -12 28 -11 33 2 5 -5 34 -15
65 -9 30 -17 73 -18 93 0 21 -4 38 -8 38 -5 0 -6 4 -2 9 3 5 1 12 -4 16 -6 3
-8 12 -4 20 3 8 0 15 -7 15 -6 0 -8 5 -5 10 4 6 1 17 -5 25 -7 8 -10 21 -7 29
3 8 2 16 -3 18 -7 3 -11 20 -24 98 -1 9 -5 20 -8 25 -3 6 -9 33 -12 60 -11 85
-46 231 -126 520 -42 152 -55 182 -65 152 -3 -9 -7 -23 -9 -31 -3 -8 0 -16 5
-18 5 -2 11 -22 12 -46 0 -23 4 -42 8 -42 4 0 7 -22 7 -48 0 -27 7 -62 15 -79
9 -17 14 -33 11 -36 -3 -3 2 -21 10 -41 8 -20 13 -36 10 -36 -3 0 0 -8 5 -18
5 -10 12 -36 15 -57 4 -22 13 -65 22 -95 20 -71 44 -177 49 -215 2 -16 8 -46
14 -65 13 -42 13 -40 2 -40 -5 0 -14 12 -20 28 -10 25 -11 24 -5 -12 8 -54 21
-86 36 -86 10 0 10 -2 1 -8 -10 -6 -10 -23 1 -78 27 -132 39 -179 53 -200 9
-14 11 -32 7 -50 -4 -16 -3 -25 2 -21 8 8 30 -59 39 -123 3 -19 14 -66 25
-105 11 -38 28 -115 39 -170 33 -162 62 -298 66 -305 2 -3 15 -59 29 -125 15
-66 40 -176 56 -245 16 -69 44 -186 60 -260 28 -123 57 -226 75 -272 7 -17
-14 -18 -336 -18 -189 -1 -373 -1 -409 -2 -36 0 -104 0 -151 1 l-86 1 -22 118
c-12 64 -29 150 -37 191 -7 40 -14 90 -14 111 0 22 -5 42 -10 45 -6 4 -8 11
-4 16 6 11 0 49 -47 296 -16 84 -29 168 -29 187 0 39 -14 53 -34 37 -10 -8
-53 -8 -152 -1 -77 5 -170 10 -207 10 -43 0 -66 4 -62 10 3 6 2 10 -4 10 -5 0
-13 -5 -16 -10 -5 -8 -12 -7 -23 2 -13 11 -15 10 -9 -4 3 -10 2 -18 -3 -18 -6
0 -10 4 -10 9 0 15 -66 22 -130 15 -69 -8 -82 -21 -15 -16 28 3 45 0 45 -7 0
-15 -93 -14 -107 0 -9 9 -20 9 -40 1 -45 -17 -131 -23 -137 -9 -2 7 -5 4 -5
-5 -1 -10 -6 -18 -11 -18 -6 0 -9 -3 -8 -7 0 -5 -2 -15 -5 -23 -3 -8 -18 -58
-33 -110 -15 -52 -37 -123 -50 -157 -13 -34 -42 -138 -65 -230 -22 -92 -43
-176 -45 -185 -3 -10 -2 -18 3 -18 5 0 21 53 37 118 16 64 34 122 39 127 6 6
7 3 3 -10 -3 -11 -8 -40 -11 -64 -3 -24 -8 -48 -12 -54 -3 -6 -8 -26 -10 -46
-2 -20 -10 -58 -18 -86 -7 -27 -13 -57 -12 -66 0 -9 -6 -50 -13 -93 l-13 -76
-66 0 c-81 0 -241 18 -255 28 -6 4 -152 7 -323 6 -172 -1 -313 0 -313 2 0 1
14 60 31 131 17 70 37 155 44 188 7 33 19 87 28 120 29 118 58 241 61 265 2
14 6 32 9 40 16 42 36 142 31 155 -4 9 -1 15 7 15 9 0 10 3 2 11 -7 7 -8 22
-2 42 4 18 13 59 19 92 16 79 70 316 78 335 3 8 6 37 8 63 2 51 13 78 15 36 1
-21 2 -20 16 11 8 19 17 44 19 55 1 11 5 31 8 45 3 14 7 36 9 50 2 14 10 44
16 68 9 34 9 47 0 58 -9 11 -9 14 0 14 7 0 10 4 7 9 -4 5 -1 11 5 13 6 2 12
25 13 51 0 26 4 47 7 47 4 0 5 14 3 30 -3 22 1 30 12 30 13 0 14 3 4 15 -10
11 -9 18 4 30 9 9 17 22 17 28 5 48 9 72 15 86 4 9 8 23 9 32 5 44 27 156 35
174 4 11 16 56 25 100 10 44 28 127 41 185 29 129 31 138 39 225 3 39 10 72
16 73 5 2 9 18 9 36 0 18 5 37 12 44 6 6 9 14 6 17 -3 3 -10 0 -15 -7z"/>
<path d="M6322 3110 c-31 -13 -114 -112 -128 -152 -4 -10 -10 -18 -14 -18 -5
0 -6 -9 -3 -20 4 -16 0 -20 -17 -20 -13 0 -20 -5 -18 -12 3 -8 21 -12 49 -11
43 2 43 2 12 -8 -54 -16 -53 -33 2 -26 54 8 66 14 46 26 -8 6 -3 10 18 14 18
4 31 13 31 22 0 8 5 15 10 15 6 0 10 -6 10 -12 0 -10 2 -10 8 -1 9 15 125 18
168 5 17 -5 43 -8 58 -5 14 3 26 1 26 -3 0 -5 33 -7 72 -5 95 5 47 17 -79 20
-48 1 -90 6 -93 12 -4 5 -59 8 -133 5 -70 -2 -130 0 -132 5 -3 4 9 10 27 13
48 7 248 17 363 17 67 0 95 3 83 10 -9 5 -65 10 -125 11 -128 2 -95 15 42 17
62 1 85 4 75 11 -8 5 -48 10 -87 10 -42 0 -73 4 -73 10 0 10 35 14 105 11 35
-1 37 0 21 10 -13 8 -67 12 -158 11 -142 -1 -187 13 -56 18 40 1 93 5 118 10
l45 7 -51 2 c-28 0 -84 3 -125 6 -41 3 -84 1 -97 -5z"/>
<path d="M15927 2883 c-26 -7 -16 -25 19 -36 43 -14 588 -22 580 -8 -4 5 -13
8 -21 4 -8 -3 -15 -1 -15 5 0 12 -55 21 -72 11 -6 -4 -21 -3 -31 3 -12 6 -22
6 -26 1 -3 -6 -26 -10 -51 -11 -33 0 -40 2 -25 8 19 8 19 9 -2 9 -13 1 -23 -3
-23 -9 0 -5 -5 -10 -11 -10 -5 0 -7 5 -4 10 8 13 -1 13 -24 -2 -15 -9 -25 -9
-46 0 -14 7 -35 12 -45 12 -11 0 -20 5 -20 10 0 10 -147 12 -183 3z"/>
<path d="M12617 2873 c-5 -9 -28 -12 -65 -11 -100 4 -242 -4 -242 -13 0 -5 14
-9 30 -9 17 0 30 -5 30 -11 0 -9 62 -10 233 -5 272 7 337 13 337 32 0 7 -6 11
-14 8 -8 -3 -17 -1 -21 5 -4 8 -11 6 -22 -4 -21 -22 -220 -20 -202 1 9 11 8
14 -4 14 -8 0 -17 -7 -21 -15 -7 -20 -24 -19 -28 3 -3 12 -6 14 -11 5z"/>
</g>
</svg>
