<?xml version="1.0" standalone="no"?>
<!DOCTYPE svg PUBLIC "-//W3C//DTD SVG 20010904//EN"
 "http://www.w3.org/TR/2001/REC-SVG-20010904/DTD/svg10.dtd">
<svg version="1.0" xmlns="http://www.w3.org/2000/svg"
 width="1928.000000pt" height="1074.000000pt" viewBox="0 0 1928.000000 1074.000000"
 preserveAspectRatio="xMidYMid meet">
<metadata>
Created by potrace 1.16, written by Peter Selinger 2001-2019
</metadata>
<g transform="translate(0.000000,1074.000000) scale(0.100000,-0.100000)"
fill="#000000" stroke="none">
<path d="M14575 7984 c34 -44 32 18 21 -699 -4 -319 -8 -1061 -8 -1650 0 -787
-3 -1072 -12 -1077 -8 -6 -8 -10 0 -15 8 -6 12 -145 13 -488 0 -264 2 -575 3
-692 3 -205 2 -212 -17 -217 -20 -6 -34 6 -77 66 -9 13 -1 -10 18 -49 33 -69
53 -96 39 -53 -9 30 21 26 50 -6 23 -24 23 -28 9 -39 -15 -11 -15 -12 2 -19
15 -6 16 -9 5 -16 -11 -6 -7 -12 15 -23 44 -23 108 -93 99 -108 -6 -9 -3 -11
8 -6 40 15 107 -111 107 -203 0 -33 4 -60 9 -60 6 0 10 17 9 38 0 58 21 125
37 118 8 -3 79 -6 157 -7 79 -1 137 -4 131 -6 -7 -3 -13 -9 -13 -15 0 -6 7 -7
17 -4 9 4 93 9 187 12 94 3 173 9 176 13 3 3 50 6 105 6 l100 0 3 -72 c2 -41
7 -73 13 -73 6 0 9 28 7 73 l-3 72 115 5 c77 3 108 8 92 13 -12 5 -37 8 -55 7
-55 -3 -67 -1 -84 20 -21 24 -33 26 -33 5 0 -9 -9 -15 -22 -15 -17 0 -19 3
-10 12 7 7 12 42 12 85 0 63 2 73 18 73 9 0 88 -7 176 -15 87 -9 161 -13 164
-11 6 6 -28 13 -102 21 -32 3 -64 9 -70 13 -6 4 -49 7 -96 7 -81 0 -85 1 -88
23 -3 22 -2 23 50 16 29 -4 74 -8 100 -8 37 0 44 -3 36 -13 -8 -10 -6 -13 8
-14 199 -8 244 -8 244 1 0 5 -4 10 -10 10 -5 0 -10 5 -10 11 0 8 4 8 14 0 11
-9 15 -9 20 1 3 7 3 3 0 -9 -5 -22 -3 -23 68 -24 40 0 81 -2 90 -4 37 -7 102
-14 85 -9 -11 4 -16 12 -13 20 5 12 2 15 -19 14 -3 0 -19 7 -36 16 -17 8 -33
13 -37 10 -3 -3 0 -6 6 -6 7 0 12 -7 12 -15 0 -22 -21 -18 -27 4 -3 11 -11 22
-19 25 -7 3 -116 8 -241 11 -125 4 -248 8 -273 10 l-45 3 -2 43 c-1 49 -3 675
-1 754 0 28 -2 229 -6 448 -4 218 -4 397 -2 397 2 0 14 -30 27 -68 12 -37 45
-123 74 -192 29 -69 56 -136 60 -150 4 -14 15 -44 26 -67 10 -23 46 -118 79
-210 34 -92 90 -246 126 -342 36 -96 63 -180 60 -188 -3 -7 3 -28 14 -45 18
-32 100 -237 115 -288 6 -22 1 -19 -40 20 -46 44 -53 39 -11 -8 16 -19 18 -25
7 -31 -9 -6 0 -11 28 -16 31 -5 45 -14 53 -30 6 -13 73 -78 149 -145 75 -67
140 -128 143 -136 4 -11 -7 -14 -54 -14 -33 0 -60 -4 -60 -10 0 -5 8 -11 18
-11 46 -4 69 -3 94 3 33 8 46 -6 83 -89 28 -64 66 -113 46 -60 -6 15 -19 44
-31 66 -42 84 -9 84 55 0 26 -33 50 -58 52 -55 3 3 -11 25 -31 50 -20 24 -36
48 -36 51 0 4 89 4 198 -1 108 -4 221 -7 250 -6 l52 2 0 -60 c0 -33 4 -60 10
-60 6 0 10 27 10 60 l0 60 38 0 c20 0 46 7 56 15 13 10 44 15 88 15 l68 0 1
-67 c1 -38 1 -75 0 -85 -1 -9 3 -19 9 -23 7 -4 10 24 10 84 l0 91 38 2 c20 1
54 0 75 -1 21 -1 37 2 37 8 0 6 -10 11 -22 12 -13 1 -32 2 -43 3 -11 1 -33 3
-48 4 -28 2 -28 2 -22 55 10 91 16 1232 6 1258 -7 17 -9 -11 -9 -96 0 -66 -1
-160 -3 -210 -2 -75 -3 -82 -9 -45 -10 67 -1 373 12 381 7 4 7 9 0 13 -11 6
-10 188 1 216 3 8 9 40 12 70 11 87 13 759 3 935 -8 158 -18 872 -15 1075 1
58 1 340 -1 627 l-2 523 30 -6 c17 -4 30 -2 30 4 0 5 -13 12 -30 16 -18 3 -30
12 -30 21 0 8 -4 15 -10 15 -11 0 -111 82 -201 164 -61 56 -171 137 -177 131
-2 -2 2 -16 9 -32 13 -29 79 -90 184 -170 56 -43 112 -101 104 -107 -2 -1 -58
1 -124 7 -77 5 -240 5 -455 -3 l-335 -11 -28 33 c-16 18 -73 78 -128 133
l-100 100 388 -3 c289 -3 398 0 426 9 20 7 37 16 37 21 0 4 -33 9 -72 10 -40
0 -84 2 -98 4 -39 5 -432 4 -440 -1 -4 -2 -71 -5 -149 -7 -78 -1 -144 -5 -147
-10 -3 -4 -1 -16 4 -25 5 -11 3 -85 -5 -188 -9 -113 -12 -233 -8 -360 7 -243
7 -873 0 -886 -4 -5 -1 -9 4 -9 6 0 11 -4 11 -10 0 -5 -7 -7 -17 -3 -14 6 -15
0 -10 -53 7 -74 -2 -59 -48 74 -19 53 -53 142 -75 197 -23 55 -57 146 -76 201
-18 56 -63 170 -99 253 -36 83 -76 180 -89 214 -55 144 -89 224 -108 256 l-22
34 29 -7 c29 -7 29 -7 11 13 -10 11 -24 17 -30 15 -17 -6 -139 153 -130 169 4
7 4 9 0 6 -8 -8 -96 82 -96 98 0 5 -14 22 -31 39 l-31 29 8 -30 c4 -16 23 -55
43 -86 46 -73 172 -219 189 -219 6 0 12 -4 12 -8 0 -11 -708 -3 -742 8 -17 6
-28 5 -28 -1 0 -5 -25 -9 -54 -9 -49 0 -58 4 -85 32 -17 18 -47 61 -67 96 -21
35 -52 79 -70 99 -18 20 -32 39 -29 42 2 4 57 3 122 -1 219 -13 712 -14 702
-2 -13 16 -157 23 -549 29 l-335 5 -30 39 c-16 22 -34 40 -39 41 -4 0 4 -16
19 -36z m2034 -392 c2 -15 3 -34 2 -42 -6 -119 -14 -226 -17 -229 -2 -2 -10 2
-18 8 -10 8 -16 9 -21 1 -16 -26 -26 -7 -21 40 3 28 2 50 -3 50 -5 0 -11 -29
-13 -64 -2 -46 0 -62 8 -55 19 16 24 -3 24 -98 0 -66 3 -92 11 -87 7 4 10 38
8 98 -3 76 -1 91 11 91 23 0 27 -365 4 -382 -14 -10 -14 -12 1 -20 15 -9 16
-32 13 -201 -3 -168 -8 -216 -22 -201 -2 2 -7 36 -10 74 -7 98 -9 100 -15 15
-6 -73 -22 -101 -29 -50 -2 14 -8 29 -13 35 -5 5 -9 21 -9 35 0 14 -7 35 -15
46 -14 17 -15 13 -11 -48 3 -40 1 -68 -4 -68 -6 0 -10 12 -10 26 0 14 -3 23
-7 21 -5 -3 -9 32 -10 76 -1 45 -9 105 -17 132 -10 30 -12 51 -6 53 6 2 9 16
9 30 -1 17 -3 21 -6 9 -2 -9 -9 -15 -14 -11 -7 4 -8 -20 -6 -64 3 -38 1 -76
-4 -83 -7 -12 -9 -11 -9 1 0 8 -3 47 -7 85 -7 83 -7 112 0 182 2 29 2 54 0 57
-3 2 -6 170 -8 373 -2 203 -5 374 -6 379 -9 49 8 39 119 -70 84 -83 119 -124
121 -144z m-1749 6 c0 -10 -5 -18 -11 -18 -5 0 -7 -5 -4 -10 4 -6 6 -158 5
-338 -1 -180 -3 -968 -6 -1752 -2 -784 -6 -1460 -8 -1504 -3 -47 -9 -82 -16
-86 -8 -5 -9 -13 -4 -21 11 -18 14 -119 3 -119 -14 0 -10 -38 4 -43 6 -2 8 -8
4 -13 -19 -20 -35 59 -29 138 1 9 -5 18 -12 21 -12 5 -14 -9 -10 -76 3 -45 1
-111 -5 -147 -5 -36 -6 -69 -4 -73 8 -14 9 -307 1 -307 -5 0 -8 12 -9 28 0 15
-2 41 -4 57 -2 17 -6 101 -9 188 -3 87 -9 164 -13 169 -3 6 -1 8 5 4 7 -4 9 3
7 21 -2 16 -4 28 -5 28 -2 0 -6 30 -14 98 -4 37 -3 47 9 47 8 0 15 5 15 10 0
6 -6 10 -13 10 -9 0 -14 17 -15 57 -1 31 -5 60 -10 65 -10 10 -8 -169 3 -417
4 -88 4 -157 1 -154 -6 5 -10 52 -20 204 -3 44 -9 118 -13 165 -7 96 -7 379 1
387 2 3 1 16 -4 29 -6 16 -6 24 1 24 6 0 6 7 -1 20 -8 15 -6 24 7 39 9 11 21
17 26 14 6 -3 7 -1 3 6 -6 9 -11 9 -22 0 -11 -9 -14 -7 -14 10 0 12 5 19 10
16 6 -3 10 0 10 9 0 8 -6 17 -12 19 -8 4 -7 6 4 6 11 1 15 7 11 22 -3 11 -11
23 -17 25 -13 5 -15 83 -3 102 5 7 4 12 -3 12 -6 0 -8 5 -5 10 5 8 11 7 21 -1
9 -8 9 -1 -3 22 -11 22 -18 60 -18 103 -1 44 -6 71 -13 74 -8 2 -10 -3 -6 -15
4 -13 3 -14 -3 -5 -6 7 -10 32 -10 55 l-1 42 10 -32 c6 -17 17 -34 25 -37 11
-4 11 -1 3 14 -8 15 -8 20 1 20 8 0 8 4 -1 15 -7 8 -8 15 -3 15 13 0 15 57 2
65 -17 11 -23 -3 -9 -20 10 -12 10 -15 -4 -15 -11 0 -15 -5 -10 -12 4 -8 3
-10 -2 -5 -15 14 -10 61 9 80 12 12 15 22 9 30 -6 7 -12 21 -15 32 -3 11 -5 3
-4 -17 1 -20 -2 -40 -6 -44 -4 -4 -7 4 -8 17 -2 45 3 74 13 78 6 2 5 7 -2 11
-17 10 -21 195 -23 1025 -2 556 4 791 19 817 3 4 0 9 -6 13 -6 4 -8 10 -5 15
2 4 6 28 6 54 1 25 6 46 11 46 5 0 6 5 2 11 -3 6 -8 151 -9 323 -1 171 -6 339
-10 374 -10 78 6 82 52 14 18 -26 41 -57 51 -68 43 -46 46 -63 48 -249 2 -235
3 -237 12 -231 5 3 9 100 9 217 l0 211 -45 57 c-108 135 -109 140 -9 41 59
-57 107 -113 107 -122z m248 22 c50 0 92 -4 92 -9 0 -9 -99 -20 -198 -23 -29
-1 -55 -5 -59 -11 -6 -10 144 -5 332 12 100 9 297 19 433 23 29 1 56 -3 61 -8
10 -11 32 -97 26 -102 -2 -2 -18 16 -36 42 -44 62 -50 49 -9 -16 88 -137 172
-328 321 -728 17 -47 36 -96 42 -110 6 -14 10 -28 9 -32 -1 -5 3 -8 9 -8 5 0
8 -4 4 -9 -3 -6 9 -38 26 -73 44 -88 42 -83 105 -273 31 -93 76 -220 100 -282
24 -62 44 -121 44 -132 0 -11 4 -22 8 -25 5 -3 14 -30 21 -60 7 -30 25 -82 42
-116 16 -33 29 -63 29 -66 0 -8 20 -53 85 -189 77 -160 131 -202 82 -62 -25
70 -27 86 -33 343 -7 308 -7 280 -1 322 2 17 1 32 -4 32 -8 0 -5 68 4 76 3 3
1 20 -3 39 -5 21 -3 38 3 44 8 8 8 11 -1 11 -7 0 -12 5 -12 11 0 5 3 8 8 5 8
-4 11 198 17 894 1 228 3 425 4 437 1 22 3 22 159 21 86 -1 232 2 323 6 l166
8 6 -33 c6 -39 12 -1482 10 -2319 -3 -1216 -2 -2026 2 -2045 2 -11 7 -109 10
-219 l5 -199 -38 6 c-20 4 -142 7 -270 8 -128 0 -241 3 -251 6 -23 6 -35 53
-15 53 21 0 17 9 -16 40 -16 15 -30 35 -30 44 0 15 6 15 48 -1 9 -3 27 -8 39
-10 19 -3 20 -1 10 21 -7 14 -13 21 -15 16 -5 -13 -49 -13 -57 0 -4 6 -14 9
-23 8 -11 -2 -17 3 -16 14 1 10 -2 16 -6 13 -4 -2 -16 24 -28 58 -53 161 -95
273 -118 314 -22 40 -61 146 -139 374 -35 102 -109 284 -117 287 -5 2 -8 10
-8 18 0 17 -21 56 -35 66 -6 4 -2 8 8 8 21 0 21 -2 -3 48 -22 45 -37 82 -39
95 0 4 -8 22 -18 40 -9 17 -18 41 -19 52 -1 11 -19 56 -39 100 -20 44 -41 89
-46 100 -5 11 -23 61 -40 110 -17 50 -36 99 -43 110 -7 11 -16 33 -20 50 -7
27 -54 154 -135 365 -42 108 -43 111 -46 153 -4 39 -15 65 -15 34 0 -10 -4
-17 -8 -17 -13 0 -32 23 -32 39 0 9 -12 21 -25 28 l-26 11 23 -36 c12 -20 26
-38 30 -40 11 -5 10 -32 -1 -32 -5 0 -11 6 -14 13 -2 6 -7 9 -11 5 -4 -3 0
-18 10 -33 15 -22 16 -40 10 -128 -4 -56 -7 -150 -6 -208 5 -465 -3 -1834 -11
-2019 -1 -8 1 -24 4 -35 3 -11 6 -42 8 -69 l4 -49 -180 1 c-99 1 -293 1 -431
2 l-252 0 -6 43 c-6 38 -8 635 -6 1970 0 342 3 497 11 497 5 0 8 4 5 9 -9 14
-19 1864 -11 2044 5 129 10 167 20 167 8 0 17 5 21 12 5 8 2 9 -10 5 -19 -8
-32 14 -22 39 5 13 16 15 64 11 31 -4 99 -6 150 -7z m2370 -1107 c-2 -10 5
-19 17 -22 17 -5 20 -14 19 -46 -5 -144 -4 -253 2 -270 7 -20 6 -20 -8 -1 -11
13 -14 33 -10 58 5 41 -9 51 -27 21 -9 -16 -10 -16 -11 -1 0 9 -13 22 -30 30
l-30 13 0 88 c0 86 1 88 23 85 21 -3 22 -6 20 -91 -2 -67 0 -88 10 -84 9 3 12
36 12 120 0 65 3 117 8 117 4 0 7 -8 5 -17z m82 8 c0 -5 -6 -12 -12 -14 -8 -4
-7 -6 3 -6 31 -2 46 -136 24 -221 -7 -30 -13 -83 -13 -118 0 -34 -2 -65 -6
-69 -6 -6 -10 57 -6 111 1 16 -4 32 -11 37 -16 9 -14 218 1 233 6 6 5 15 -1
22 -6 7 -8 18 -4 24 8 12 25 13 25 1z m-84 -1197 c-4 -9 0 -27 9 -40 11 -18
15 -50 13 -136 0 -62 2 -124 6 -138 5 -17 4 -21 -2 -11 -7 9 -12 10 -16 2 -4
-6 0 -14 8 -17 12 -5 16 -21 16 -66 0 -52 2 -59 16 -54 14 5 15 4 4 -8 -11
-14 -14 -14 -27 -1 -16 16 -24 19 -20 8 2 -8 -6 -13 -21 -13 -5 0 -8 17 -6 38
4 50 4 50 16 22 l11 -25 5 25 c2 13 -1 26 -7 28 -6 2 -11 8 -11 13 0 4 8 6 18
3 14 -5 14 -3 -2 10 -20 16 -30 56 -14 56 5 0 6 5 3 11 -4 6 -7 60 -8 121 -1
98 -3 111 -19 116 -22 5 -24 22 -3 22 9 0 15 9 15 25 0 14 5 25 11 25 6 0 8
-7 5 -16z m-1299 -1148 c-3 -8 1 -20 9 -27 21 -18 65 -118 78 -179 1 -3 21
-44 45 -92 23 -48 40 -91 37 -97 -4 -5 7 -35 24 -67 25 -45 29 -59 18 -65 -12
-8 -4 -13 15 -10 4 0 8 -7 9 -16 0 -10 2 -27 3 -38 1 -11 7 -33 13 -48 14 -34
15 -37 4 -37 -5 0 -17 19 -27 43 -10 23 -31 71 -47 106 -16 35 -42 101 -58
145 -29 82 -70 186 -96 243 -8 17 -14 40 -14 52 0 12 -4 21 -8 21 -7 0 -32 57
-32 73 0 4 7 7 16 7 10 0 14 -6 11 -14z m1308 -51 c-1 -15 4 -29 14 -35 14 -8
14 -9 -1 -10 -10 0 -18 -5 -18 -11 0 -5 6 -7 13 -3 9 6 9 4 -1 -8 -10 -13 -10
-17 3 -22 8 -3 15 -1 15 4 0 6 5 10 10 10 6 0 10 -9 10 -20 0 -15 6 -19 23
-17 21 2 22 -2 24 -75 2 -76 1 -78 -23 -78 -23 0 -24 3 -24 65 0 50 -3 65 -14
65 -17 0 -30 -33 -22 -58 3 -10 7 -37 8 -60 1 -31 5 -41 15 -38 15 6 18 -29 3
-39 -5 -3 -10 0 -10 8 0 8 -7 17 -15 21 -8 3 -15 1 -15 -4 0 -6 5 -10 11 -10
5 0 7 -5 3 -11 -17 -29 -26 16 -22 120 2 61 1 111 -2 111 -4 0 -4 66 -1 113 1
4 5 7 10 7 5 0 8 -11 6 -25z m-2833 -281 c0 -32 0 -90 0 -129 -2 -85 -2 -69
-1 -290 0 -99 3 -207 8 -240 9 -65 7 -75 -11 -57 -16 16 -24 210 -21 517 3
282 3 279 15 267 5 -5 9 -35 10 -68z m2935 -235 c0 -82 -18 -142 -41 -147 -14
-3 -16 9 -16 82 0 51 -4 86 -10 86 -5 0 -10 -8 -11 -17 -8 -165 -16 -202 -41
-187 -5 3 -4 11 2 20 8 9 11 50 8 119 -3 102 -2 105 18 105 12 0 24 -7 28 -15
3 -8 17 -15 31 -15 18 0 25 5 25 20 0 11 2 20 4 20 2 0 4 -32 3 -71z"/>
<path d="M16747 6922 c-3 -4 -4 -56 -3 -116 2 -108 2 -109 26 -112 14 -1 40 0
58 3 l32 5 0 108 c0 89 -3 109 -16 114 -22 9 -92 7 -97 -2z"/>
<path d="M17145 6922 c-6 -4 -11 -55 -12 -114 l-2 -108 47 0 c26 0 53 4 60 9
20 12 24 208 5 215 -21 8 -86 7 -98 -2z"/>
<path d="M16740 6385 l0 -115 53 0 c28 0 58 4 65 8 9 6 12 36 10 113 l-3 104
-62 3 -63 3 0 -116z"/>
<path d="M16958 6103 c-25 -4 -28 -8 -28 -46 -1 -23 -2 -71 -3 -107 -2 -55 1
-65 16 -68 14 -3 17 5 19 55 1 32 1 77 0 101 -2 42 -1 42 34 42 35 0 35 -1 34
-37 -5 -107 0 -163 15 -163 12 0 15 19 15 109 l0 109 -31 6 c-17 3 -34 5 -38
5 -3 -1 -18 -4 -33 -6z"/>
<path d="M17131 6077 c-5 -13 -8 -63 -7 -112 l1 -90 35 -5 c19 -3 49 -1 67 5
l31 9 -4 101 c-2 55 -4 103 -4 108 0 4 -25 7 -55 7 -49 0 -57 -3 -64 -23z"/>
<path d="M16770 5703 c-24 -9 -25 -15 -25 -124 0 -117 0 -117 81 -104 l44 6 0
108 0 109 -31 6 c-36 7 -48 7 -69 -1z"/>
<path d="M16958 5703 l-28 -4 0 -109 0 -109 44 -6 c74 -12 86 1 87 98 1 75 0
119 -4 124 -6 5 -77 10 -99 6z m81 -118 l-1 -95 -39 0 -39 0 0 95 0 95 40 0
40 0 -1 -95z"/>
<path d="M17148 5703 c-10 -2 -18 -5 -18 -6 0 -1 -3 -47 -7 -101 -5 -89 -4
-101 13 -113 19 -14 82 -17 100 -5 7 4 13 51 16 114 4 101 4 107 -16 112 -24
6 -62 6 -88 -1z"/>
<path d="M16746 5267 c-15 -11 -16 -24 -10 -115 8 -115 11 -119 88 -108 l42 7
0 109 c0 102 -1 109 -20 114 -36 10 -81 7 -100 -7z m94 -112 l0 -95 -45 0 -45
0 0 88 c0 49 2 91 4 93 3 2 23 5 45 7 l41 2 0 -95z"/>
<path d="M16937 5274 c-4 -4 -7 -56 -7 -115 l0 -107 33 -6 c18 -3 48 -3 66 0
l32 7 -3 111 -3 111 -55 3 c-31 2 -59 0 -63 -4z"/>
<path d="M17160 5273 c-26 -10 -30 -25 -30 -124 0 -109 0 -109 79 -99 l44 5
-2 105 c-1 57 -4 106 -5 108 -7 6 -72 10 -86 5z"/>
<path d="M16744 4837 c-2 -7 -3 -58 -2 -113 l3 -99 51 -3 c33 -2 55 2 61 10 6
7 12 49 13 93 3 136 9 125 -60 125 -41 0 -62 -4 -66 -13z m104 -104 l3 -93
-46 0 -45 0 0 88 c0 49 3 92 7 96 4 4 23 6 43 4 l35 -3 3 -92z"/>
<path d="M16944 4837 c-2 -7 -3 -58 -2 -113 3 -111 4 -111 82 -100 l42 7 0
107 -1 107 -58 3 c-41 2 -59 -1 -63 -11z"/>
<path d="M17140 4831 c-5 -11 -10 -60 -10 -109 l0 -90 32 -4 c18 -3 44 -2 58
2 24 6 25 11 33 99 5 51 6 99 3 107 -4 9 -22 14 -55 14 -39 0 -53 -4 -61 -19z"/>
<path d="M16571 4441 c-11 -7 -14 -33 -13 -105 0 -53 1 -100 1 -106 1 -13 77
-13 101 0 16 9 18 22 17 112 l-2 103 -45 3 c-25 1 -51 -2 -59 -7z"/>
<path d="M16755 4418 c-3 -18 -5 -69 -3 -113 l3 -80 60 0 60 0 1 96 c0 52 3
100 7 106 9 14 -7 19 -70 22 -51 2 -52 2 -58 -31z"/>
<path d="M16947 4443 c-3 -4 -7 -55 -8 -113 l-4 -105 27 -9 c18 -6 40 -6 68 3
l41 12 -3 107 -3 107 -56 3 c-31 2 -59 0 -62 -5z"/>
<path d="M17189 4443 l-36 -4 -6 -102 c-2 -56 -1 -106 4 -111 5 -5 25 -5 51 0
l43 9 3 108 c2 82 0 107 -10 105 -7 -1 -29 -3 -49 -5z"/>
<path d="M16567 3968 c-12 -159 -4 -183 56 -172 18 3 39 7 47 8 16 3 16 23 4
139 -7 63 -27 87 -75 87 -26 0 -28 -2 -32 -62z"/>
<path d="M16960 4010 c-19 -19 -21 -30 -18 -113 l3 -92 48 -3 c71 -5 75 3 70
111 -3 50 -8 95 -12 98 -3 4 -20 10 -38 14 -25 5 -36 2 -53 -15z"/>
<path d="M16990 3643 c-14 -3 -28 -8 -32 -11 -3 -4 -8 -50 -10 -102 l-3 -94
39 -8 c25 -5 43 -5 50 2 5 5 17 10 26 10 13 0 15 14 12 92 -2 51 -7 97 -13
102 -10 12 -35 14 -69 9z"/>
<path d="M16757 3626 c-10 -28 -7 -178 4 -192 14 -17 59 -18 93 -3 23 11 25
17 25 68 -1 31 0 71 1 90 1 18 0 34 -2 36 -11 9 -118 10 -121 1z"/>
<path d="M17147 3632 c-3 -4 -7 -48 -8 -97 l-3 -90 36 -3 c69 -6 78 7 78 108
l0 90 -49 0 c-28 0 -52 -3 -54 -8z"/>
<path d="M4768 7968 c-2 -24 -7 -32 -18 -29 -49 14 -923 5 -884 -9 49 -18 672
-30 787 -16 55 7 67 6 67 -5 0 -8 -8 -19 -19 -24 -31 -17 -205 -151 -230 -179
-14 -14 -30 -26 -36 -26 -7 0 -23 -15 -36 -34 l-23 -34 -231 5 c-126 3 -239 9
-249 13 -11 4 83 9 208 13 142 3 233 10 239 16 8 8 -22 9 -103 6 -63 -4 -175
-6 -247 -6 -113 -1 -134 -3 -143 -17 -5 -10 -10 -12 -10 -4 0 6 -5 12 -11 12
-5 0 -7 -4 -4 -10 9 -14 -7 -12 -27 4 -12 8 -37 12 -70 9 -96 -7 -138 -14
-133 -23 5 -8 -83 -25 -91 -17 -3 3 15 18 39 33 83 54 282 192 312 217 17 14
27 28 23 32 -10 10 -73 -28 -278 -168 -96 -65 -187 -125 -202 -133 -35 -18
-35 -23 -1 -21 25 2 28 -2 34 -43 4 -25 7 -228 7 -452 1 -225 3 -412 6 -417 3
-4 6 -95 7 -202 1 -158 -2 -194 -13 -192 -7 1 -39 4 -70 8 -32 3 -58 10 -58
15 0 20 -53 70 -74 70 -23 0 -66 -37 -66 -57 0 -6 -21 -14 -47 -17 -27 -4 -64
-9 -83 -12 l-35 -5 -2 597 c-2 521 -1 595 12 590 13 -5 14 15 10 137 -4 131
-11 233 -17 254 -1 4 2 22 6 40 6 27 12 32 44 36 53 6 -725 -2 -833 -9 -98 -6
-144 -21 -190 -64 -43 -40 -189 -124 -193 -111 -6 17 -22 13 -22 -5 0 -19 -19
-36 -73 -65 -37 -20 -39 -20 -53 -2 -7 10 -14 22 -14 26 0 5 -4 6 -9 3 -5 -3
-7 -14 -4 -25 3 -12 -3 -24 -18 -35 -23 -16 -23 -16 -2 -16 19 0 21 -3 13 -29
-4 -16 -6 -31 -4 -34 2 -2 6 -82 9 -178 3 -96 10 -302 15 -459 6 -157 8 -305
6 -330 -18 -183 -27 -798 -15 -960 20 -259 25 -905 10 -1175 -9 -165 -8 -250
8 -400 13 -126 40 -285 50 -300 4 -5 8 -23 10 -40 6 -68 109 -292 187 -409 19
-28 31 -52 28 -55 -2 -3 -41 31 -86 75 -44 43 -73 68 -64 54 37 -56 355 -365
416 -405 36 -23 70 -48 77 -57 7 -8 14 -47 17 -87 4 -67 2 -73 -18 -81 -13 -5
65 -9 199 -9 135 -1 234 -5 255 -12 47 -16 770 -24 770 -9 0 8 -122 16 -167
11 -6 -1 -14 3 -18 9 -3 5 -28 10 -56 10 -27 0 -49 5 -49 10 0 13 97 13 102 0
2 -7 23 -7 62 1 83 15 217 12 246 -6 7 -4 76 -9 153 -10 106 -2 149 1 176 12
27 11 40 12 53 4 25 -15 35 -14 58 9 11 11 27 20 35 20 8 0 15 7 15 15 0 8 5
15 11 15 6 0 9 9 6 20 -4 14 0 20 12 20 9 0 27 7 39 16 12 8 28 13 35 10 7 -3
3 -7 -10 -11 -42 -13 -24 -25 40 -26 34 -1 66 -1 71 0 5 1 82 2 172 2 101 -1
164 3 164 9 0 11 -23 13 -155 10 -49 -1 -101 3 -115 9 -28 11 -23 13 34 15 47
1 63 26 17 26 -17 0 -31 5 -31 10 0 6 7 10 16 10 8 0 12 5 9 10 -7 11 -75 14
-75 4 0 -4 8 -13 18 -20 15 -12 10 -14 -35 -12 -53 1 -65 17 -15 19 l27 1 -28
8 c-16 5 -35 6 -43 3 -8 -3 -14 -1 -14 5 0 25 512 39 603 17 16 -5 27 -3 27 3
0 16 -66 23 -309 31 -13 1 -21 4 -18 8 8 7 217 5 265 -3 18 -4 32 -2 32 3 0
19 -325 33 -445 21 -33 -4 -50 -4 -37 -2 46 11 19 20 -58 19 -44 0 -76 3 -71
8 8 8 62 9 234 4 44 -1 81 2 84 6 3 4 10 4 16 -1 25 -19 154 -12 142 8 -6 10
42 23 55 15 6 -4 10 -2 10 3 0 13 -65 21 -203 27 -59 2 -111 7 -116 9 -4 3
-28 3 -52 0 -74 -10 -130 -10 -136 -1 -5 8 -55 5 -145 -10 -21 -3 -38 -3 -38
1 0 4 78 87 173 184 224 228 275 284 251 276 -18 -7 -18 -6 2 17 39 46 144
259 127 259 -3 0 -1 6 4 13 5 6 15 32 22 57 7 25 21 72 32 105 10 33 19 69 20
80 0 11 6 38 14 60 15 41 47 199 50 246 1 14 4 30 7 35 11 19 2 85 -12 94 -8
6 -10 10 -3 10 11 0 11 73 -3 305 -11 183 -17 1378 -14 2510 1 121 -1 280 -3
353 l-4 132 38 22 c22 12 39 25 39 30 0 11 -14 10 -25 -1 -20 -19 -50 -17 -51
4 -1 11 -2 35 -3 53 0 17 -5 32 -10 32 -6 0 -11 -15 -13 -32z m-1778 -60 c0
-7 -12 -20 -28 -30 -53 -32 -148 -101 -188 -138 -67 -62 -121 -93 -149 -88
-25 5 -35 -7 -12 -15 34 -12 -20 -18 -233 -23 -182 -4 -235 -3 -241 7 -5 9
-53 13 -183 13 -97 1 -176 3 -175 6 0 8 88 66 184 121 50 29 105 67 123 84
l33 32 322 7 c177 3 336 8 352 10 17 2 59 7 95 10 35 4 66 9 69 11 9 10 31 4
31 -7z m-22 -338 c-5 -151 -8 -349 -7 -440 9 -389 4 -859 -9 -872 -25 -25 -37
8 -35 95 2 55 -1 84 -10 90 -9 7 -9 10 1 14 10 4 9 9 -5 20 -17 13 -17 14 0 9
14 -5 17 1 17 39 0 25 -3 45 -8 45 -24 0 -42 -182 -26 -263 5 -26 4 -27 -20
-21 -21 5 -26 2 -26 -11 0 -14 6 -16 30 -11 17 3 30 1 30 -4 0 -13 -10 -17
-53 -25 -37 -7 -38 -6 -35 16 2 17 -3 25 -16 27 -22 5 -36 -13 -36 -48 0 -19
-3 -21 -9 -10 -5 8 -11 64 -15 125 -6 102 -10 124 -20 114 -2 -2 0 -60 5 -129
5 -78 5 -128 -1 -134 -5 -5 -12 -7 -15 -4 -3 3 -5 79 -5 169 1 90 1 174 1 186
-1 12 4 25 9 28 5 3 6 16 2 28 -9 23 -8 419 0 433 3 5 2 40 -2 77 -4 38 -4 84
0 103 5 19 5 47 1 62 -4 15 -4 45 1 67 9 37 13 88 16 210 2 49 4 51 64 100 72
58 160 146 153 153 -3 3 2 14 12 24 9 10 17 17 19 16 1 -2 -2 -127 -8 -278z
m1787 -894 c0 -640 -2 -1162 -5 -1160 -6 6 -6 16 -8 132 -1 50 -6 92 -10 92
-4 0 -7 -33 -6 -72 2 -161 3 -168 20 -168 14 0 15 -9 9 -67 -9 -87 -9 -112 -2
-258 4 -66 9 -183 12 -260 3 -77 7 -177 10 -222 2 -49 0 -83 -6 -83 -5 0 -7
11 -3 25 3 14 2 25 -4 25 -5 0 -13 -37 -17 -82 -7 -88 -22 -173 -24 -148 -4
31 -2 157 2 215 3 33 2 78 -2 100 -5 28 -10 -17 -15 -145 -4 -102 -10 -202
-12 -222 -2 -21 1 -38 6 -38 6 0 10 5 10 12 0 6 2 9 5 6 10 -10 -7 -39 -20
-34 -8 3 -11 -2 -8 -15 3 -10 8 -17 12 -15 8 6 1 -137 -8 -144 -9 -7 -7 -92 3
-113 5 -10 4 -23 -2 -30 -8 -10 -24 -62 -21 -69 2 -7 -55 -155 -66 -171 -11
-15 -12 -12 -10 25 1 23 7 44 14 46 6 2 11 8 11 13 0 6 -6 7 -12 4 -7 -4 -5 0
6 9 12 10 17 23 14 40 -3 14 -2 23 3 21 4 -3 10 -1 14 5 3 5 1 10 -4 10 -19 0
-12 20 7 20 15 1 15 2 -2 15 -11 8 -15 15 -9 15 6 0 9 12 7 27 -1 15 1 30 5
33 13 8 22 60 11 60 -5 0 -10 -5 -10 -11 0 -6 -7 -9 -14 -6 -10 4 -13 1 -9 -9
3 -7 2 -22 -2 -31 -4 -10 -9 -31 -11 -46 -2 -16 -11 -43 -20 -60 -31 -60 -34
-67 -34 -87 0 -11 -5 -20 -11 -20 -6 0 -8 9 -4 20 4 11 2 20 -4 20 -6 0 -8 7
-5 15 4 8 11 12 16 9 6 -4 5 3 -1 15 -9 16 -9 21 0 19 16 -4 39 40 38 72 l-1
25 -9 -27 c-7 -18 -15 -25 -25 -21 -11 4 -12 9 -3 19 6 7 7 19 3 26 -4 7 -4
10 1 6 12 -11 48 19 52 44 2 12 7 25 11 28 15 11 29 89 18 101 -8 8 -6 10 10
5 20 -6 21 -3 18 51 -2 32 -5 67 -8 78 -2 11 -5 34 -5 50 -1 30 -16 64 -24 55
-3 -3 -2 -26 2 -52 6 -36 5 -48 -5 -48 -10 0 -13 -22 -14 -82 0 -114 -2 -129
-16 -124 -6 2 -16 -6 -23 -20 -11 -24 -31 -33 -31 -14 0 6 5 10 11 10 7 0 9
13 6 38 -3 20 -3 29 -1 19 3 -9 9 -15 14 -12 5 3 7 12 3 21 -3 8 3 22 13 30
11 9 13 13 7 9 -7 -3 -13 -1 -13 5 0 6 -5 8 -10 5 -7 -4 -9 2 -6 17 3 12 8 43
10 66 l6 44 -20 -24 -19 -23 -1 28 c0 16 -4 26 -9 23 -12 -8 -3 -42 15 -57 16
-13 18 -29 4 -29 -5 0 -10 7 -10 15 0 8 -4 15 -10 15 -13 0 -13 -6 0 -31 18
-33 -4 -21 -29 16 l-24 35 23 103 23 103 39 12 c22 7 43 10 49 7 5 -4 9 3 9
14 0 11 5 23 10 26 6 3 7 18 4 32 -4 14 -8 35 -9 47 -4 32 -5 33 -17 6 l-11
-25 -6 30 c-3 17 -11 29 -16 27 -5 -1 -11 14 -13 34 -2 20 0 34 5 31 5 -3 7
26 5 63 -3 52 0 73 11 84 11 11 17 12 26 3 20 -20 18 114 -3 148 -21 34 -48
114 -42 124 3 5 0 14 -8 20 -9 8 -13 34 -12 85 1 41 -2 72 -5 70 -9 -5 -22 46
-14 54 3 3 5 -2 5 -11 0 -10 5 -17 10 -17 17 0 11 15 -17 42 -41 38 -54 56
-44 62 10 6 2 106 -10 121 -7 10 -10 68 -25 450 -6 172 -15 607 -15 740 0 692
1 722 24 734 37 18 59 34 100 71 22 19 43 34 48 33 4 -2 7 6 6 17 -1 11 -3 20
-5 20 -2 0 -27 -19 -55 -43 -74 -60 -117 -89 -117 -78 0 6 15 21 33 34 17 13
56 41 85 63 30 21 60 38 69 36 9 -2 13 2 11 10 -6 16 18 41 32 33 5 -3 10 1
10 10 0 12 5 15 16 11 10 -4 14 -1 12 6 -2 6 10 24 26 40 17 15 31 28 31 28 0
0 0 -524 0 -1164z m-2730 934 c112 -2 113 -6 5 -28 -32 -7 46 -10 265 -10
l310 0 3 -294 c6 -723 6 -1114 -1 -1124 -11 -18 -53 -22 -78 -8 -37 20 -58 17
-90 -15 -20 -21 -29 -39 -29 -63 0 -28 -10 -44 -59 -92 -52 -52 -63 -58 -107
-61 -27 -2 -59 -10 -72 -16 -28 -15 -39 -55 -23 -81 12 -20 5 -39 -34 -86 -8
-9 -29 -39 -47 -67 -26 -39 -40 -51 -63 -53 -36 -4 -51 -16 -72 -55 -13 -25
-13 -36 -3 -68 11 -32 11 -42 -3 -62 -8 -13 -25 -56 -37 -96 -19 -65 -25 -74
-55 -87 -18 -7 -36 -22 -39 -31 -17 -61 -16 -80 3 -104 18 -24 19 -33 10 -135
-5 -60 -12 -117 -15 -127 -6 -19 -43 -38 -57 -30 -4 2 -4 73 -1 156 6 134 -6
505 -23 717 -3 41 -4 224 -2 405 5 483 5 839 -1 1194 l-5 315 25 6 c14 4 61 6
105 5 44 -1 130 -3 190 -5z m1936 -33 c5 -6 59 -9 145 -8 118 1 259 -10 269
-21 2 -2 6 -289 9 -638 8 -825 20 -1343 32 -1375 4 -8 2 -15 -3 -15 -6 0 -30
36 -54 81 -24 44 -63 104 -86 132 -24 28 -43 55 -43 59 0 18 42 -15 65 -52 31
-49 51 -63 42 -29 -4 13 -7 29 -7 36 0 6 -12 25 -26 42 -18 22 -35 31 -56 31
-24 0 -48 16 -115 78 -47 42 -114 98 -150 124 -83 60 -81 58 -49 58 25 0 35
-8 92 -73 24 -28 29 -7 8 38 -25 54 -49 66 -114 60 -51 -5 -61 -2 -135 38 -44
24 -81 49 -81 57 -1 8 -2 20 -3 27 0 6 -13 25 -27 42 -32 38 -66 40 -101 5
-19 -19 -32 -24 -49 -20 l-24 6 -2 263 c0 144 -3 273 -5 287 -1 14 -5 124 -8
245 -6 238 -20 477 -31 512 -6 22 -6 22 152 26 199 4 347 -2 355 -16z m-541
-1367 c23 -6 26 -13 33 -75 4 -37 6 -70 4 -71 -2 -2 -21 2 -43 8 -40 13 -358
15 -395 3 -16 -5 -19 -1 -19 21 0 22 2 24 14 15 12 -10 19 -9 33 4 10 9 42 34
72 57 48 36 56 39 79 28 19 -8 28 -8 30 -1 5 15 48 14 80 -3 38 -20 75 -62 67
-76 -5 -8 -1 -11 10 -8 23 4 32 28 12 28 -9 0 -25 16 -37 35 -12 19 -28 35
-36 35 -9 0 -13 4 -9 9 5 9 52 5 105 -9z m-454 -29 c-1 -16 -5 -33 -9 -37 -4
-4 -2 -13 4 -20 16 -19 3 -62 -21 -68 -11 -3 -29 -9 -40 -12 -12 -3 -20 -1
-20 6 0 6 -8 19 -17 28 -16 16 -16 16 -9 -3 13 -34 12 -36 -28 -50 -60 -21
-86 -26 -86 -16 0 5 9 11 21 14 15 4 19 11 14 26 -6 21 28 71 49 71 6 0 17 9
24 20 14 22 51 26 71 8 10 -11 11 -10 6 5 -4 9 -13 17 -21 17 -8 0 -14 5 -14
11 0 7 10 9 25 5 14 -4 25 -3 24 1 -3 17 1 23 15 23 9 0 13 -10 12 -29z m560
10 c5 -5 47 -21 94 -36 83 -27 140 -51 150 -64 8 -10 83 -56 112 -69 19 -7 26
-16 22 -27 -3 -8 -10 -15 -15 -15 -5 0 -9 -16 -9 -35 0 -19 5 -35 10 -35 6 0
10 13 10 29 0 51 19 50 119 -10 72 -43 124 -95 187 -188 35 -53 86 -127 112
-166 48 -70 81 -149 69 -162 -4 -3 -17 -1 -30 5 -34 18 -107 42 -126 42 -9 -1
19 -16 63 -34 70 -29 80 -37 91 -68 6 -19 13 -57 13 -84 1 -27 5 -60 7 -74 3
-14 5 -128 4 -255 -1 -279 -2 -254 7 -346 4 -52 3 -78 -5 -83 -6 -4 -11 -1
-11 6 -1 13 -34 58 -44 58 -3 0 8 -30 24 -67 27 -63 27 -69 12 -86 -13 -15
-14 -20 -3 -27 8 -5 13 -22 12 -42 -1 -18 -2 -40 -3 -48 0 -8 -5 -21 -11 -28
-5 -7 -11 -26 -12 -42 -5 -64 -170 -313 -288 -436 -91 -95 -238 -206 -291
-220 -14 -3 -30 -12 -37 -20 -6 -8 -17 -14 -24 -14 -7 0 -18 -7 -25 -15 -21
-25 -39 -17 -46 23 -4 20 -16 53 -27 71 -18 34 -18 35 0 48 10 8 29 17 43 20
42 11 200 123 280 199 43 41 80 74 83 74 3 0 4 -39 4 -87 l-2 -88 -40 -3 c-22
-2 -58 2 -79 8 -37 11 -40 10 -63 -16 -13 -15 -26 -39 -29 -53 -9 -39 -36
-114 -47 -128 -6 -9 -6 -13 1 -13 15 0 23 15 52 100 31 91 44 100 129 86 53
-8 63 -7 80 8 16 15 19 30 18 92 -1 86 7 98 65 88 37 -6 78 2 78 14 0 4 -34 6
-75 5 -41 -1 -77 2 -79 5 -8 13 86 106 108 108 11 0 35 8 53 17 18 9 38 17 46
17 19 0 64 36 56 45 -4 3 -22 -3 -40 -14 -19 -12 -43 -21 -54 -21 -11 0 -31
-7 -43 -16 -13 -9 -25 -14 -28 -12 -2 3 15 41 37 85 37 70 44 79 65 75 14 -2
24 0 24 7 0 6 -7 11 -15 11 -31 0 -13 31 28 49 23 10 48 26 56 35 19 22 -1 20
-32 -4 -14 -11 -32 -20 -41 -20 -14 0 -13 7 6 53 11 28 28 81 36 117 8 36 19
67 23 68 5 2 9 17 9 33 0 19 5 29 15 29 8 0 15 5 15 10 0 6 -5 9 -12 8 -7 -2
-11 10 -10 32 12 236 -6 402 -60 555 -10 28 -64 146 -113 245 -20 40 -22 58
-20 163 l3 117 -68 0 c-109 0 -168 16 -230 64 -75 58 -189 126 -284 168 l-79
36 -3 76 c-4 73 0 87 22 67z m-910 -115 c-3 -13 -9 -31 -12 -40 -3 -9 -2 -16
4 -16 5 0 10 -18 10 -40 0 -22 -3 -40 -7 -40 -5 0 -42 -25 -84 -55 -41 -30
-79 -55 -84 -55 -9 0 -63 -59 -158 -171 -22 -26 -45 -48 -50 -48 -6 -1 -16
-13 -22 -28 -6 -16 -18 -39 -27 -53 -45 -76 -113 -241 -147 -360 -16 -53 -38
-211 -41 -286 -1 -37 -7 -72 -13 -78 -16 -18 -16 -36 0 -36 8 0 15 -9 15 -20
0 -22 -16 -27 -23 -7 -3 9 -7 9 -20 -2 -9 -7 -24 -11 -32 -7 -8 3 -15 1 -15
-4 0 -6 5 -10 10 -10 6 0 10 -9 10 -19 0 -11 -4 -23 -10 -26 -5 -3 -10 -17
-10 -31 0 -24 -24 -43 -38 -29 -10 9 -18 262 -13 403 1 30 4 33 29 32 41 -3
49 -1 32 10 -13 8 -13 10 2 10 23 0 58 39 51 56 -3 8 1 14 8 14 10 0 10 3 1
12 -14 14 -43 -6 -37 -25 6 -17 -21 -50 -34 -42 -12 7 -15 35 -3 35 4 0 7 16
8 35 1 51 18 65 44 35 11 -13 20 -19 20 -14 -1 15 -24 40 -45 48 -18 7 -19 8
-3 17 14 8 15 13 6 28 -9 15 -7 28 10 65 12 25 22 52 22 60 0 23 22 31 35 13
16 -22 25 -21 25 2 0 11 9 21 23 25 13 3 29 17 37 31 7 13 21 27 32 31 26 8
23 24 -13 67 l-30 37 30 42 c49 70 74 96 101 103 14 3 20 3 14 -2 -27 -19 -29
-103 -3 -103 6 0 8 9 4 19 -11 36 5 67 41 80 25 9 34 17 30 28 -4 9 1 17 14
20 25 7 25 14 1 44 -10 13 -16 29 -14 36 5 15 127 112 170 135 19 11 34 14 38
8 3 -6 -5 -15 -19 -21 -13 -6 -26 -19 -29 -28 -3 -9 -8 -24 -12 -35 -6 -14 -4
-17 11 -14 10 2 20 9 20 16 1 6 2 16 3 20 0 5 12 14 25 21 19 10 28 11 47 1
19 -10 22 -10 12 0 -6 7 -9 18 -6 25 2 8 0 23 -6 34 -9 17 -8 22 11 32 13 7
27 18 31 25 13 23 30 16 23 -10z m767 -48 c32 -6 60 -15 63 -20 8 -13 8 -523
0 -564 -3 -17 -26 -72 -51 -122 -25 -50 -45 -93 -45 -96 0 -2 -13 -33 -29 -68
-69 -152 -81 -181 -77 -185 2 -2 12 11 23 29 25 43 153 316 153 327 0 5 7 14
15 21 21 18 29 -26 21 -118 -7 -72 -10 -81 -56 -140 -112 -145 -142 -172 -152
-142 -2 6 -29 11 -61 11 l-57 1 -21 67 c-11 36 -23 80 -26 96 -6 38 -22 69
-23 44 0 -29 40 -172 55 -196 14 -21 14 -24 0 -29 -17 -7 -32 8 -69 71 -25 43
-43 115 -28 115 5 0 6 20 1 48 -13 78 -17 144 -9 135 4 -4 17 -35 29 -68 l22
-60 -7 50 c-3 28 -9 55 -13 60 -19 25 -31 202 -31 457 l0 277 58 6 c31 3 66 7
77 9 35 5 178 -5 238 -16z m-472 -75 c1 -98 17 -266 30 -315 5 -21 15 -38 22
-38 9 0 9 -2 0 -8 -7 -5 -9 -21 -4 -47 7 -42 4 -375 -3 -383 -13 -12 -150 313
-142 334 3 8 2 13 -3 10 -5 -3 -12 1 -15 10 -4 9 -2 13 5 8 8 -4 9 1 4 16 -4
12 -8 28 -9 34 -1 6 -4 16 -8 21 -6 11 -20 164 -22 255 -1 30 -7 64 -14 75
-10 16 -11 2 -7 -75 5 -90 14 -218 20 -286 4 -45 23 -100 61 -174 19 -35 34
-70 34 -77 0 -7 4 -13 9 -13 5 0 12 -15 15 -34 4 -19 22 -56 40 -83 19 -27 35
-66 38 -90 7 -46 -6 -57 -22 -20 -20 46 -78 112 -89 101 -3 -2 5 -11 17 -20
12 -8 22 -21 22 -28 0 -7 15 -30 33 -52 31 -36 56 -94 41 -94 -4 0 -23 12 -43
27 -20 16 -72 52 -116 80 -44 29 -86 57 -92 63 -9 8 -13 55 -12 170 0 88 -3
165 -7 172 -4 6 -8 34 -9 62 -1 28 -5 119 -10 202 l-8 152 26 17 c27 17 182
74 205 75 8 0 12 -16 13 -47z m726 -13 c58 -28 130 -68 161 -89 79 -54 210
-174 269 -246 59 -71 123 -163 123 -177 0 -5 18 -46 40 -91 113 -231 125 -593
30 -892 -68 -212 -157 -361 -302 -501 -110 -107 -294 -234 -340 -234 -8 0 -35
62 -67 153 -43 121 -55 168 -58 230 -3 43 -2 86 2 95 4 10 35 -40 95 -153 50
-92 90 -171 90 -174 1 -10 40 -57 40 -47 0 4 -47 99 -104 210 -57 110 -107
216 -111 234 -10 48 -13 232 -4 238 5 2 57 -42 116 -98 59 -57 151 -141 203
-188 52 -47 111 -100 130 -117 19 -18 40 -33 45 -33 11 0 -1 12 -283 273 -106
98 -196 186 -201 195 -5 10 -11 37 -12 61 -4 46 10 63 34 43 26 -21 519 -282
533 -282 15 0 -28 25 -151 91 -66 35 -187 100 -268 144 l-147 80 2 45 c2 34 7
44 18 42 21 -5 392 -60 529 -78 62 -8 121 -13 130 -12 18 4 -42 15 -329 58
-392 60 -348 49 -353 84 -2 17 -3 36 0 42 2 6 56 18 121 28 64 9 178 26 252
37 183 27 419 73 396 77 -10 2 -73 -5 -140 -17 -108 -18 -209 -33 -416 -61
-36 -5 -89 -14 -119 -20 -29 -5 -65 -10 -78 -10 -23 0 -24 3 -21 57 l3 57 65
36 c36 20 173 94 305 165 260 138 320 174 312 182 -3 2 -34 -11 -69 -30 -72
-39 -165 -89 -323 -172 -60 -32 -147 -77 -193 -101 -45 -24 -87 -44 -92 -44
-6 0 -10 26 -10 58 0 66 5 75 106 194 244 285 333 393 329 396 -2 3 -16 -9
-30 -26 -14 -17 -40 -46 -58 -64 -36 -37 -182 -207 -267 -310 -30 -37 -59 -67
-65 -67 -15 -1 -19 171 -5 232 11 49 26 93 56 164 8 17 14 37 14 45 0 8 4 18
8 24 16 18 32 64 22 64 -9 0 -60 -101 -60 -120 0 -5 -5 -21 -12 -37 -6 -15
-11 -31 -10 -35 1 -5 -2 -8 -8 -8 -6 0 -10 82 -10 225 0 202 2 225 17 225 9 0
63 -23 120 -50z m-1009 -258 l2 -207 -32 39 c-44 54 -104 116 -87 91 7 -11 32
-42 55 -70 64 -77 68 -89 69 -205 0 -58 4 -111 9 -118 24 -40 -87 25 -304 176
-49 35 -90 60 -90 55 0 -4 23 -24 51 -43 28 -19 72 -50 97 -69 26 -19 81 -57
122 -83 118 -78 117 -76 112 -163 -3 -58 -1 -75 10 -75 11 0 11 -2 -1 -9 -15
-10 -83 5 -345 73 -98 26 -181 44 -184 42 -3 -3 1 -8 9 -11 12 -4 256 -68 439
-115 l65 -16 0 -85 0 -84 -105 -11 c-58 -6 -163 -17 -235 -24 -71 -7 -148 -17
-170 -21 -64 -13 160 0 339 21 89 10 164 16 169 13 4 -2 7 -35 7 -73 l0 -68
-47 -18 c-132 -48 -429 -167 -438 -176 -5 -5 4 -4 20 2 85 33 456 170 460 170
3 0 5 -49 5 -109 l0 -110 -77 -67 c-143 -124 -243 -217 -239 -222 5 -5 12 1
185 153 57 50 110 95 120 102 15 11 16 -3 15 -170 0 -100 -4 -191 -9 -201 -5
-13 -5 -17 2 -13 6 4 15 -15 22 -46 13 -58 63 -172 88 -199 9 -10 12 -18 8
-18 -11 0 -87 51 -97 65 -4 5 -11 10 -15 10 -48 1 -364 311 -429 421 -44 75
-98 203 -89 212 3 3 -1 15 -9 27 -41 63 -74 359 -55 495 16 114 22 145 32 158
5 7 11 31 13 53 4 41 81 232 112 279 9 14 27 47 39 73 12 26 28 54 35 61 7 8
36 41 63 74 28 34 56 61 63 61 6 1 12 5 12 10 0 15 52 64 125 119 39 28 72 52
75 52 3 0 6 -93 8 -208z m1432 78 l85 -5 3 -92 c1 -51 0 -93 -2 -93 -7 0 -179
179 -190 197 -6 12 -5 14 5 7 8 -5 52 -11 99 -14z m389 -487 c20 -76 42 -219
40 -268 -1 -27 2 -58 6 -68 9 -22 1 -179 -15 -272 -6 -38 -13 -79 -14 -90 -2
-11 -6 -44 -10 -72 -5 -29 -12 -53 -17 -53 -15 0 -10 104 6 126 8 12 12 24 9
27 -3 3 -5 65 -3 139 4 278 -6 502 -26 551 -4 10 -3 17 4 17 5 0 15 -17 20
-37z m-1693 -176 c21 -18 66 -50 99 -71 78 -50 105 -75 105 -98 0 -14 -5 -17
-22 -13 -162 39 -223 56 -230 63 -14 14 -15 152 -2 152 6 0 28 -15 50 -33z
m16 -168 c9 -5 27 -9 40 -9 13 0 50 -9 83 -19 45 -14 61 -24 63 -39 3 -18 -4
-21 -65 -26 -37 -4 -94 -10 -126 -15 -69 -9 -71 -7 -68 87 1 41 2 42 29 36 15
-4 35 -11 44 -15z m447 -29 c42 -21 51 -36 51 -82 0 -22 -11 -41 -38 -68 l-38
-38 -48 12 c-49 13 -75 40 -76 79 0 32 31 87 59 102 35 19 45 18 90 -5z m231
-86 l0 -35 -47 5 -48 5 48 -15 c44 -14 47 -17 47 -50 0 -37 -10 -43 -31 -18
-15 18 -69 47 -75 41 -3 -3 15 -17 40 -31 25 -15 50 -34 55 -44 11 -20 18 -75
11 -81 -3 -2 -36 28 -74 68 -54 55 -67 74 -58 83 7 7 12 20 12 29 0 10 6 20
13 22 7 3 5 6 -5 6 -11 1 -18 9 -18 20 0 16 8 21 48 24 26 2 55 4 65 5 13 2
17 -6 17 -34z m-490 -13 c0 -20 -13 -41 -25 -41 -12 0 -64 -19 -176 -65 l-57
-23 -6 30 c-9 47 -7 76 7 85 30 19 257 31 257 14z m-7 -75 c8 -21 -4 -56 -19
-56 -7 0 -18 -9 -24 -20 -6 -11 -15 -20 -20 -20 -9 0 -72 -53 -122 -102 -15
-16 -32 -28 -38 -28 -9 0 -16 62 -12 120 1 19 -1 22 -8 10 -8 -13 -10 -13 -10
1 0 18 24 30 133 69 43 15 81 31 84 34 11 11 31 6 36 -8z m435 -102 l72 -85
-1 -105 c0 -57 -4 -102 -8 -100 -4 3 -13 24 -20 48 -6 24 -41 100 -76 170 -36
69 -65 134 -65 142 0 32 27 13 98 -70z m-145 14 c2 -24 27 -106 54 -183 80
-220 149 -424 326 -950 66 -197 141 -404 167 -463 11 -25 20 -47 20 -49 0 -2
-14 -3 -32 -1 l-32 3 -145 436 c-80 240 -165 494 -188 565 -23 71 -57 176 -77
234 -19 58 -53 162 -75 232 -22 70 -48 142 -56 159 -19 36 -14 59 14 59 15 0
20 -9 24 -42z m-108 0 c-3 -18 -10 -44 -15 -58 -5 -14 -18 -70 -31 -125 -12
-55 -43 -167 -69 -250 -47 -148 -68 -221 -87 -300 -19 -78 -58 -200 -65 -206
-4 -3 -9 -18 -10 -35 -1 -16 -5 -33 -9 -39 -4 -5 -10 -26 -13 -45 -4 -19 -22
-91 -41 -160 -46 -171 -95 -380 -95 -406 0 -18 -8 -22 -47 -28 -25 -3 -48 -5
-49 -3 -2 2 6 28 17 58 12 30 30 87 40 127 10 39 30 100 43 135 24 60 102 298
145 442 11 39 36 123 56 188 19 65 35 123 35 129 0 7 13 48 29 92 15 45 41
128 56 186 64 246 90 330 103 330 10 0 12 -9 7 -32z m-1347 0 c6 -6 12 -28 12
-50 0 -22 5 -49 12 -61 17 -31 40 -127 40 -159 -1 -16 3 -28 8 -28 9 0 35 -69
28 -75 -2 -2 -17 2 -32 11 -16 8 -31 12 -34 9 -10 -10 32 -45 54 -45 23 0 47
-34 88 -127 17 -39 17 -43 2 -58 -17 -17 -21 -52 -8 -72 9 -15 56 -33 86 -33
13 0 39 -16 60 -37 39 -39 96 -115 96 -130 1 -8 23 -28 65 -57 23 -17 14 -31
-25 -41 -18 -4 -32 0 -48 16 -22 20 -23 22 -6 40 14 16 15 22 5 32 -10 9 -15
8 -27 -7 -22 -30 -17 -64 13 -92 23 -21 34 -24 63 -19 19 4 46 13 58 22 22 14
28 12 100 -34 42 -27 82 -59 88 -71 6 -13 14 -23 18 -22 17 2 106 -52 106 -65
0 -18 -41 -29 -76 -21 -22 6 -25 11 -19 35 7 32 -16 49 -35 26 -16 -19 -2 -62
28 -85 42 -34 132 -6 132 41 0 17 2 17 38 2 20 -8 38 -16 40 -18 2 -2 -15 -61
-37 -131 -22 -71 -54 -177 -72 -236 l-32 -107 -66 -3 c-60 -3 -66 -5 -69 -26
-7 -47 -46 -34 -129 42 -18 16 -39 31 -48 32 -23 3 -65 37 -137 111 -90 91
-178 216 -239 338 -48 97 -111 292 -124 385 -3 25 -13 77 -21 115 -8 39 -14
76 -14 83 0 24 18 3 25 -29 4 -17 9 -28 11 -26 3 2 -4 40 -15 83 -26 106 -34
236 -26 416 7 145 8 148 29 142 11 -4 27 -11 34 -16z m1167 -40 c-3 -47 -13
-80 -40 -130 -33 -65 -102 -168 -111 -168 -3 0 -4 10 -3 23 1 12 1 36 0 52 -1
25 -3 27 -11 13 -7 -11 -7 -32 -1 -59 9 -40 -1 -79 -21 -79 -11 0 -10 14 1 26
6 5 6 25 2 44 -7 34 -7 33 -14 -23 -4 -32 -5 -61 -3 -65 2 -4 -2 -13 -10 -20
-11 -10 -13 -1 -12 60 1 40 -4 96 -10 123 -10 49 -10 50 22 80 56 52 208 184
213 185 1 0 0 -28 -2 -62z m274 -164 c27 -87 77 -238 111 -334 34 -96 63 -181
64 -189 4 -40 -181 -54 -236 -17 l-28 18 0 202 c0 125 -4 207 -11 216 -7 11
-9 -45 -6 -192 2 -115 1 -208 -3 -208 -14 0 -50 47 -70 92 -20 46 -20 50 -5
110 9 35 34 117 55 183 22 66 47 157 57 202 9 45 18 81 20 79 1 -1 25 -74 52
-162z m-1257 114 c30 -18 57 -46 68 -69 23 -44 27 -70 8 -51 -7 7 -17 12 -22
12 -6 -1 -2 -8 9 -18 23 -19 64 -89 85 -142 16 -40 43 -82 80 -123 l25 -29
-43 22 c-24 12 -45 20 -48 18 -2 -3 11 -13 29 -21 19 -9 46 -34 60 -54 73
-104 122 -152 272 -269 59 -46 183 -119 238 -139 26 -10 47 -24 47 -32 0 -21
-31 -126 -40 -136 -4 -4 -31 4 -60 19 -37 19 -49 29 -39 35 7 4 10 11 6 15 -3
4 -13 2 -20 -4 -10 -9 -25 -5 -63 15 -105 56 -124 71 -124 103 0 16 -5 32 -11
36 -8 5 -10 -1 -7 -20 3 -16 1 -26 -6 -26 -17 0 -57 30 -52 39 3 4 -13 18 -34
32 -35 21 -39 28 -34 52 3 16 1 27 -5 27 -6 0 -11 -7 -11 -15 0 -25 -25 -17
-48 15 -28 38 -28 48 1 24 l22 -19 -18 21 c-18 22 -22 101 -7 134 4 8 1 29 -6
47 -11 26 -21 33 -61 41 -26 6 -54 7 -61 3 -9 -5 6 -10 39 -14 58 -7 84 -28
70 -56 -5 -9 -7 -42 -5 -73 1 -32 -1 -58 -5 -58 -8 0 -47 47 -81 96 -8 12 -29
42 -46 67 -22 30 -30 52 -27 69 3 15 -2 29 -13 39 -16 13 -16 12 -5 -9 26 -48
4 -42 -27 8 -18 29 -30 55 -27 59 4 3 12 -2 19 -12 7 -9 37 -21 66 -27 57 -11
82 -6 30 5 -18 4 -40 14 -49 24 -10 9 -26 21 -37 27 -10 6 -23 20 -29 32 -5
12 -13 22 -17 22 -5 0 -8 5 -8 11 0 6 7 8 16 5 8 -3 3 7 -12 22 -31 32 -65
119 -72 182 -2 25 -8 50 -12 55 -5 6 4 11 23 12 21 2 47 -8 79 -29z m983 -67
c-2 -15 -8 -37 -15 -47 -9 -15 -8 -33 3 -81 20 -89 7 -162 -80 -433 -25 -80
-51 -155 -56 -167 -11 -25 -27 -21 -27 5 0 9 -7 30 -15 46 -8 15 -12 32 -9 37
3 6 0 16 -6 24 -12 15 -5 95 9 95 3 0 14 18 24 40 9 22 21 40 25 40 5 0 13 10
19 22 9 21 10 20 11 -12 0 -21 -2 -29 -7 -21 -16 25 -30 -29 -43 -159 -3 -34
3 -60 13 -60 6 0 8 7 5 16 -3 9 0 30 8 47 28 62 47 148 44 204 -2 56 18 133
34 133 4 0 8 9 8 20 0 11 10 38 21 60 12 23 19 43 16 46 -3 4 -25 -33 -48 -80
-23 -47 -44 -86 -48 -86 -12 0 -5 67 10 90 23 37 30 60 17 60 -6 0 -3 10 6 23
23 31 66 123 66 140 0 12 9 27 16 27 2 0 1 -13 -1 -29z m1461 -396 c3 -102
-23 -262 -61 -380 -75 -233 -171 -414 -284 -537 -50 -55 -190 -168 -208 -168
-12 0 -16 9 -148 400 -18 55 -19 60 -1 60 7 0 19 7 26 15 15 18 30 20 30 3 0
-6 7 -19 16 -29 20 -23 11 -49 -17 -49 -27 0 -20 -24 9 -28 13 -2 27 6 38 22
15 24 15 28 -1 52 -17 26 -17 27 4 21 16 -4 21 -1 21 13 0 14 -7 18 -27 17
-52 -4 -29 25 72 89 98 62 128 74 140 54 11 -18 87 -33 112 -21 24 11 32 54
12 66 -18 12 -29 54 -20 78 5 12 39 57 76 100 61 72 69 78 96 72 41 -9 68 1
62 25 -6 24 -30 33 -37 14 -6 -15 -36 -20 -36 -6 0 5 9 19 20 32 11 13 20 27
20 32 0 5 12 27 27 49 31 47 58 49 59 4z m-1387 -101 c7 -19 10 -38 7 -41 -3
-3 6 -20 19 -38 16 -20 25 -45 25 -68 0 -26 4 -37 15 -37 18 0 18 1 4 -38 -11
-33 -44 -48 -68 -29 -9 6 -8 2 3 -11 15 -17 22 -19 33 -11 15 13 17 6 4 -19
-5 -9 -12 -25 -15 -36 -5 -15 -12 -17 -44 -11 -20 4 -51 15 -69 26 -32 20 -32
20 -17 57 8 20 19 44 23 53 5 9 19 66 32 128 12 61 25 111 28 111 4 0 13 -16
20 -36z m363 -183 c-29 -54 -93 -124 -140 -153 -50 -31 -50 -14 0 39 97 102
118 126 118 134 0 11 -28 0 -62 -23 -14 -10 -31 -18 -37 -18 -22 0 -60 -46
-50 -61 7 -11 9 -11 9 4 0 9 5 17 10 17 6 0 19 9 30 20 31 31 42 23 12 -9 -15
-15 -38 -40 -51 -55 -30 -33 -41 -33 -37 2 2 15 4 37 5 50 1 12 7 22 16 22 8
0 15 9 15 20 0 15 7 20 28 20 16 0 46 9 68 19 21 11 42 17 45 15 4 -2 12 3 19
12 26 31 28 -8 2 -55z m132 -247 c23 -69 24 -75 8 -80 -9 -3 -28 -10 -42 -15
-31 -10 -184 -32 -225 -32 -16 0 -43 1 -59 1 l-28 2 38 48 38 47 -36 -33 -35
-33 -34 20 c-19 11 -62 34 -96 51 -63 32 -83 55 -40 46 69 -15 124 -15 232 -1
113 14 220 37 233 49 13 14 22 1 46 -70z m-560 24 c4 3 13 -4 22 -16 8 -12 19
-22 23 -22 10 0 161 -100 161 -107 0 -15 -279 13 -307 30 -11 7 -3 58 17 111
9 26 10 26 44 12 19 -8 37 -12 40 -8z m612 -200 c7 -25 17 -54 23 -66 6 -11
31 -82 56 -157 25 -74 48 -141 50 -148 4 -9 -102 -13 -485 -15 -269 -1 -490 0
-490 3 0 2 20 87 45 188 25 101 45 194 45 205 0 11 3 23 8 25 11 7 100 -17
113 -30 9 -9 17 -9 33 -1 15 8 21 8 24 0 3 -9 9 -9 23 -1 26 13 286 10 318 -5
18 -8 25 -8 28 1 3 8 14 4 30 -12 22 -20 24 -26 14 -39 -20 -24 -59 -19 -86
10 -26 28 -46 25 -38 -6 13 -49 105 -68 143 -30 22 22 26 60 8 78 -8 8 -8 15
-2 21 9 10 101 30 119 27 6 -2 15 -23 21 -48z m277 -430 c-2 -5 -8 -8 -13 -8
-5 0 -37 -13 -72 -29 -81 -37 -209 -78 -273 -86 -155 -21 -300 -47 -312 -57
-9 -7 -54 -7 -160 1 -317 24 -339 28 -448 81 -127 60 -154 90 -91 102 40 7
1374 3 1369 -4z m128 -5 c1 -5 2 -45 4 -89 l2 -81 -193 1 c-189 1 -235 7 -155
21 22 4 45 13 52 21 6 8 15 14 20 14 8 0 211 93 239 110 19 11 30 12 31 3z
m-1547 -82 c28 -16 83 -39 121 -51 39 -12 74 -26 78 -30 4 -4 -54 -6 -129 -5
l-137 3 -3 56 c-1 33 2 56 8 56 6 0 34 -13 62 -29z"/>
<path d="M13261 7958 c-1 -35 -3 -37 -23 -29 -13 4 -74 11 -136 15 l-114 7 4
-23 c3 -23 5 -23 140 -26 141 -3 150 -5 158 -47 1 -5 22 -40 46 -76 24 -37 44
-71 44 -76 0 -12 48 -58 54 -52 6 6 -35 91 -48 100 -5 4 -6 11 -3 17 4 5 -3
18 -14 28 -22 20 -69 95 -73 116 -1 7 -10 29 -18 48 l-16 35 -1 -37z"/>
<path d="M5370 7929 c-25 -17 -62 -47 -83 -67 -29 -28 -40 -34 -46 -23 -6 9
-11 10 -15 2 -4 -6 -5 -15 -2 -20 6 -9 -99 -113 -150 -148 -16 -12 -43 -25
-58 -29 -22 -5 -25 -9 -14 -15 12 -7 13 -18 6 -61 -14 -74 -15 -815 -3 -1553
12 -748 13 -1316 2 -1725 -4 -168 -9 -371 -11 -452 -2 -83 0 -148 5 -148 10 0
7 -36 -4 -46 -4 -4 -7 -30 -7 -57 0 -28 3 -47 7 -43 4 4 6 28 4 54 -1 26 1 43
6 39 4 -5 8 -196 9 -425 0 -230 2 -425 3 -434 3 -25 21 -23 21 2 0 17 4 19 33
12 17 -4 93 -7 169 -7 75 0 134 -3 131 -8 -2 -4 90 -7 206 -7 116 1 215 -2
221 -5 5 -3 16 -3 23 2 42 27 189 43 202 22 7 -11 45 16 45 33 0 4 19 32 43
62 23 29 61 79 84 112 23 32 63 80 88 106 28 30 45 56 44 70 -1 17 -3 18 -6 6
-2 -10 -9 -18 -14 -18 -12 0 -12 92 1 126 7 17 7 57 1 118 -5 50 -11 254 -14
454 -4 300 -3 361 8 352 13 -11 95 -189 95 -207 0 -5 25 -85 55 -177 49 -148
165 -513 246 -771 46 -146 75 -225 87 -237 22 -22 12 -28 -45 -28 -46 -1 -54
-3 -40 -11 25 -15 661 -6 845 12 103 9 153 10 182 3 23 -7 43 -7 48 -2 5 5 38
8 73 6 63 -3 64 -4 84 -40 11 -21 22 -38 25 -38 7 0 4 86 -4 99 -6 9 77 131
90 131 2 0 -2 -13 -11 -30 -9 -17 -19 -30 -24 -30 -5 0 -11 -9 -14 -21 -4 -16
1 -14 28 13 19 18 37 44 40 58 5 24 9 25 65 23 35 -1 62 2 66 9 5 7 -4 9 -30
4 -20 -4 -45 -4 -56 -1 -17 5 -18 9 -7 33 6 15 20 41 32 57 11 17 25 39 32 50
6 11 16 19 23 17 14 -3 6 43 -15 86 -30 59 -95 213 -95 223 0 5 -13 38 -29 72
-15 34 -67 161 -115 282 -48 121 -97 243 -108 270 -11 28 -29 77 -40 110 -10
33 -23 69 -27 80 -5 11 -19 47 -31 80 -12 33 -32 87 -45 120 -31 82 -67 195
-71 225 -3 26 -58 162 -113 282 -17 37 -33 79 -37 93 -3 14 -10 28 -16 31 -5
3 -4 12 3 20 7 9 8 14 1 14 -6 0 -13 -6 -16 -12 -5 -10 -7 -10 -12 0 -3 6 -11
9 -17 5 -7 -4 -5 4 4 17 9 14 26 29 37 35 12 5 22 13 22 18 0 4 10 18 23 30
13 12 45 49 71 81 26 33 71 80 98 105 54 49 128 150 128 175 0 9 4 16 9 16 5
0 11 7 15 15 9 24 -18 17 -30 -8 -30 -59 -89 -148 -116 -173 l-31 -29 34 50
c44 65 129 208 129 217 0 5 4 8 9 8 5 0 7 -9 4 -20 -3 -11 -1 -20 5 -20 8 0
21 39 38 113 1 4 2 8 4 10 1 1 3 11 5 22 2 11 11 40 20 64 20 56 35 129 40
206 35 475 37 573 16 585 -12 7 -12 9 -2 10 10 0 12 10 7 43 -12 79 -16 98
-41 174 -14 42 -25 80 -25 85 0 5 -13 37 -29 71 -35 73 -50 123 -32 113 6 -4
11 -2 11 3 0 6 -7 11 -15 11 -8 0 -12 6 -9 14 3 7 -9 38 -26 67 -17 30 -35 59
-38 66 -4 6 -30 43 -59 82 -29 38 -45 67 -35 64 21 -9 -12 38 -60 84 -102 97
-374 254 -526 302 -34 11 -77 32 -96 46 -39 29 -59 34 -25 5 13 -10 21 -19 17
-20 -4 0 -72 16 -150 35 -187 46 -363 64 -548 57 -161 -6 -856 -9 -840 -4 12
4 14 22 3 22 -5 0 -28 -14 -53 -31z m485 -34 c33 -3 168 -1 300 4 250 8 410
-2 518 -34 26 -8 54 -12 62 -8 8 3 15 0 15 -6 0 -7 10 -9 28 -5 21 4 24 3 12
-5 -13 -10 -13 -12 0 -21 8 -5 21 -10 28 -11 6 -1 15 -2 20 -3 4 -1 23 -6 42
-10 19 -5 41 -12 50 -16 43 -22 101 -43 105 -38 3 3 -10 13 -29 22 -31 14 -56
36 -42 36 17 0 191 -67 235 -91 30 -16 59 -29 64 -29 6 0 18 -6 26 -14 9 -7
42 -27 74 -45 117 -63 193 -131 255 -226 24 -38 52 -81 62 -95 22 -33 46 -79
55 -110 7 -22 6 -23 -9 -11 -11 9 -16 10 -16 2 0 -6 7 -14 14 -17 8 -3 22 -29
31 -57 9 -29 19 -59 22 -67 4 -8 7 -17 8 -20 12 -34 19 -51 36 -83 11 -20 26
-70 34 -110 7 -39 19 -94 25 -122 16 -74 22 -155 22 -300 -1 -137 -9 -196 -30
-203 -6 -2 -12 1 -12 8 0 6 5 8 10 5 6 -3 10 -2 10 4 0 5 -4 12 -8 15 -5 3 -4
34 2 68 14 80 13 127 -2 155 -8 14 -9 24 -2 28 5 3 10 16 9 28 0 20 -1 21 -8
3 -7 -18 -8 -18 -14 -3 -3 9 -11 17 -17 17 -7 0 -8 -5 -3 -12 4 -7 8 -59 8
-115 l0 -102 -22 15 c-20 13 -23 13 -23 -1 0 -8 4 -15 8 -15 8 0 7 -54 -1
-112 -5 -30 2 -35 22 -15 11 10 12 6 6 -23 -4 -19 -12 -39 -18 -45 -7 -5 -14
-21 -15 -35 -2 -14 -8 -26 -13 -28 -5 -2 -3 -13 4 -25 7 -12 12 -31 11 -42 -1
-11 -2 -26 -3 -32 -1 -7 -5 -13 -10 -13 -6 0 -9 11 -8 24 1 14 -2 25 -7 25
-13 -1 -26 24 -18 36 4 5 7 19 7 30 0 11 4 23 10 28 7 4 6 10 -3 15 -9 6 -10
15 -3 35 7 18 7 27 -2 31 -9 3 -8 7 3 15 8 6 10 11 5 11 -7 0 -10 33 -10 83 0
45 -4 87 -8 94 -4 6 -4 14 1 17 14 8 2 56 -13 56 -19 0 -23 -19 -14 -60 8 -37
5 -97 -5 -107 -3 -4 -6 7 -6 24 0 16 -3 58 -7 93 -5 51 -4 62 7 55 10 -6 12
-4 6 10 -5 14 -4 16 8 6 11 -9 14 -6 18 18 2 17 1 28 -4 25 -13 -8 -9 9 7 30
8 11 15 14 15 8 0 -7 5 -12 11 -12 5 0 8 4 4 9 -3 5 -1 12 4 15 14 9 7 34 -13
49 -9 7 -17 24 -18 37 -1 14 -6 31 -11 37 -5 7 -7 19 -4 28 4 8 2 17 -3 20
-14 9 -17 -22 -16 -137 1 -60 0 -108 -2 -108 -8 0 -25 64 -38 145 -21 134 -33
188 -44 199 -6 6 -10 16 -10 23 0 27 -71 165 -125 244 -30 44 -55 84 -55 90 0
5 -6 9 -13 9 -8 0 -32 19 -55 43 -145 151 -343 277 -522 333 -98 31 -259 70
-340 83 -186 29 -488 38 -720 21 -161 -12 -701 -32 -706 -27 -2 2 13 17 35 33
78 59 195 160 235 203 l41 43 195 -6 c107 -4 222 -9 255 -11z m472 -280 c277
-31 432 -66 622 -144 68 -28 140 -63 160 -79 20 -15 62 -45 94 -66 53 -35 207
-195 207 -215 0 -9 25 -39 72 -88 19 -20 25 -33 17 -33 -11 -1 -11 -3 2 -13
25 -19 66 -116 89 -208 11 -46 27 -107 35 -135 8 -28 15 -62 15 -75 0 -13 7
-46 15 -72 15 -49 16 -68 3 -77 -13 -10 -13 -63 0 -67 7 -3 10 1 6 11 -3 9 -1
16 5 16 14 0 13 -415 -1 -469 -5 -20 -11 -57 -12 -82 -3 -56 -11 -70 -34 -62
-16 6 -16 6 0 -10 15 -15 15 -21 1 -64 -8 -27 -19 -64 -24 -83 -22 -92 -137
-318 -193 -378 -28 -32 -166 -138 -245 -191 l-65 -43 -18 24 -19 23 15 -31
c14 -30 14 -32 -7 -51 -12 -11 -31 -24 -42 -28 -17 -7 -15 -9 14 -14 31 -6 36
-12 78 -106 68 -154 132 -310 168 -416 19 -53 74 -192 124 -308 83 -193 113
-275 98 -261 -5 5 -44 77 -172 315 -26 50 -90 167 -140 260 -51 94 -123 231
-160 305 -68 136 -243 456 -320 585 -33 57 -170 308 -183 338 -2 4 3 7 11 7
20 0 105 132 129 199 39 113 50 191 49 358 0 181 -11 240 -65 357 -33 71 -80
128 -166 200 l-45 38 39 -22 c29 -16 36 -17 26 -5 -8 9 -32 26 -54 37 -23 11
-44 26 -48 32 -4 6 -13 11 -20 11 -7 1 -26 7 -43 15 -57 26 -193 22 -365 -9
-37 -7 -40 -9 -14 -10 l31 -1 -4 -592 c-1 -326 1 -621 5 -655 5 -36 4 -69 -1
-79 -16 -28 12 -35 118 -29 140 9 217 29 314 81 69 38 86 43 96 32 7 -7 44
-74 82 -148 39 -74 98 -184 133 -245 34 -60 103 -189 152 -285 112 -217 208
-395 308 -570 43 -74 130 -234 195 -355 65 -121 126 -231 135 -245 9 -14 38
-79 64 -145 166 -417 172 -435 162 -435 -3 0 -104 197 -224 438 -121 240 -257
507 -302 592 -170 319 -255 481 -362 690 -61 118 -115 220 -120 225 -15 16
208 -429 356 -709 74 -138 268 -519 432 -846 164 -327 310 -617 326 -643 48
-82 47 -82 -102 -81 l-130 1 -48 50 c-66 69 -98 78 -267 78 -162 0 -216 -12
-274 -61 -21 -19 -44 -34 -50 -34 -6 0 -13 -11 -17 -24 -6 -25 -40 -36 -110
-36 -30 0 -32 3 -49 63 -9 34 -63 202 -120 372 -90 271 -123 374 -215 670 -47
148 -70 235 -79 295 l-10 65 4 -58 c5 -82 -11 -70 -63 46 l-43 96 -4 142 c-2
79 -1 147 2 151 2 5 12 3 20 -4 13 -10 15 -9 12 7 -3 13 -14 21 -33 23 l-29 4
6 -127 c8 -150 2 -155 -58 -43 -23 44 -66 102 -103 139 -57 59 -63 62 -68 42
-4 -13 -12 -23 -20 -23 -20 0 -27 -19 -13 -36 11 -13 13 -191 12 -902 l-2
-887 -253 0 c-139 0 -341 1 -449 3 -108 1 -209 -1 -226 -4 l-29 -6 2 430 3
429 105 209 c145 287 249 486 330 632 38 67 67 125 65 127 -9 8 -170 -285
-395 -719 -56 -109 -105 -201 -109 -204 -3 -4 -3 25 1 63 7 74 37 141 154 340
30 50 72 124 95 165 114 203 320 557 540 925 39 66 86 147 104 180 29 54 29
57 6 30 -14 -16 -47 -66 -73 -110 -27 -44 -112 -183 -189 -310 -179 -294 -381
-639 -513 -875 -57 -102 -109 -192 -117 -200 -19 -20 -18 -120 -8 1370 3 399
6 752 6 785 1 33 -2 283 -6 555 -4 272 -8 592 -9 710 -1 118 -4 221 -6 229 -8
22 38 29 125 19 76 -9 287 -5 530 11 203 14 488 12 632 -4z m43 -832 c93 -33
242 -210 285 -337 43 -132 46 -376 5 -526 -30 -109 -50 -130 -156 -158 -107
-29 -246 -29 -228 -1 12 20 1 958 -11 1017 -7 32 -7 32 26 26 19 -3 54 -13 79
-21z m-291 -487 c-1 -63 1 -76 20 -95 23 -23 41 -27 41 -11 0 6 8 10 18 8 14
-2 17 5 19 40 2 58 2 59 12 43 7 -11 13 -12 23 -3 11 9 14 6 15 -11 1 -13 -1
-17 -5 -10 -12 19 -27 1 -30 -37 -2 -19 -9 -38 -15 -42 -9 -6 -8 -8 2 -8 16 0
9 -66 -9 -84 -8 -8 -10 -3 -6 16 2 15 7 32 11 38 3 5 1 10 -4 10 -6 0 -11 7
-11 15 0 8 -4 15 -10 15 -10 0 -8 -35 3 -46 3 -4 3 -12 0 -18 -12 -19 -12 -40
-1 -53 7 -9 7 -13 -1 -13 -7 0 -9 -5 -6 -10 9 -14 35 7 35 27 0 8 4 12 9 9 15
-10 -18 -66 -34 -59 -12 4 -15 -5 -15 -41 0 -30 4 -46 13 -46 9 0 9 -2 0 -8
-15 -10 -11 -41 8 -53 8 -5 9 -9 3 -9 -7 0 -11 -11 -10 -25 0 -14 7 -25 14
-25 6 0 12 -4 12 -10 0 -5 -5 -10 -11 -10 -5 0 -7 -5 -4 -10 4 -6 1 -17 -5
-25 -7 -9 -8 -15 -2 -15 5 0 13 -12 16 -26 6 -21 -1 -34 -44 -77 -27 -29 -57
-61 -65 -72 l-14 -20 -2 20 c-3 62 3 557 7 577 3 12 5 72 5 131 0 70 3 106 10
102 5 -4 9 -39 8 -79z m1151 -1360 c0 27 121 -206 224 -431 38 -82 75 -159 82
-170 8 -11 14 -33 14 -50 1 -28 2 -29 15 -12 13 18 17 16 63 -33 28 -29 48
-58 45 -65 -7 -19 10 -25 25 -9 12 13 2 26 -62 87 -58 56 -85 90 -112 147 -43
88 -76 188 -64 195 7 5 40 -37 40 -51 0 -14 74 -154 91 -173 11 -11 19 -26 20
-33 0 -9 2 -10 5 -1 3 7 0 22 -6 34 -10 17 -9 20 1 17 8 -3 19 -20 25 -39 21
-65 38 -99 54 -104 12 -4 34 -43 59 -110 2 -5 -6 -1 -18 9 -11 11 -21 14 -21
8 0 -6 4 -13 10 -17 5 -3 7 -12 3 -20 -3 -8 -1 -15 5 -15 5 0 12 -10 16 -22 5
-19 8 -20 15 -8 11 15 13 10 51 -95 10 -27 21 -58 25 -67 4 -10 3 -18 -3 -18
-5 0 -15 14 -22 30 -7 17 -15 29 -17 26 -9 -8 28 -66 42 -66 7 0 23 -24 34
-55 11 -30 25 -63 30 -72 16 -29 123 -277 125 -289 1 -7 8 -19 15 -28 11 -13
11 -16 0 -16 -10 0 -11 -2 -2 -8 20 -13 51 -106 46 -137 -5 -23 -3 -27 11 -22
9 4 16 5 16 3 0 -3 3 -12 7 -22 5 -13 3 -15 -7 -9 -8 5 -11 3 -8 -6 3 -8 11
-13 17 -11 6 1 11 -5 11 -15 0 -29 -36 13 -80 93 -22 40 -45 76 -51 80 -18 11
70 -147 99 -178 14 -15 29 -25 34 -22 18 12 5 -12 -49 -88 -114 -158 -125
-173 -134 -197 -12 -31 -22 -20 -44 49 -10 30 -21 60 -25 65 -4 6 -10 19 -12
30 -3 11 -9 28 -13 38 -6 14 -4 16 11 10 18 -6 18 -5 3 13 -22 27 -93 175 -96
200 -1 11 -13 41 -27 67 -14 25 -26 50 -26 56 0 5 -5 22 -12 38 -6 15 -10 32
-9 36 0 4 -11 33 -25 65 -32 69 -134 321 -139 342 -2 8 -17 49 -35 90 -17 41
-40 99 -52 128 -11 30 -26 66 -34 80 -8 15 -14 31 -14 35 0 5 -6 23 -14 40
-15 35 -76 196 -76 203 0 2 7 1 15 -2 21 -9 19 2 -7 27 -13 12 -17 18 -9 14
10 -6 12 -2 6 16 -4 13 -12 29 -17 34 -7 7 -8 2 -3 -14 5 -17 4 -21 -5 -16 -7
4 -9 17 -6 31 5 19 3 22 -11 18 -15 -5 -15 -4 -4 4 13 9 9 22 -21 81 -20 39
-38 67 -41 63 -2 -4 -2 -2 -1 5 2 7 -1 15 -7 18 -5 4 -7 10 -4 15 3 5 -1 12
-8 17 -16 10 -55 93 -64 134 -4 23 -2 29 11 29 9 0 18 -6 20 -12 25 -91 43
-140 74 -191 50 -86 147 -315 138 -325 -3 -2 4 -20 15 -39 11 -19 15 -32 9
-28 -5 3 -10 2 -10 -4 0 -5 6 -12 13 -14 9 -4 8 -8 -3 -16 -8 -6 -10 -11 -5
-11 11 0 21 -21 55 -115 32 -91 60 -145 75 -145 7 0 15 -10 18 -22 4 -13 13
-32 22 -43 17 -21 17 -17 -2 25 -6 14 -14 33 -17 43 -3 10 -10 16 -14 13 -5
-3 -19 21 -31 52 -13 31 -29 71 -36 87 -24 56 -38 125 -26 125 6 0 20 -31 32
-70 13 -38 26 -70 30 -70 17 0 -39 146 -67 177 -13 14 -24 31 -24 38 0 7 -10
34 -22 61 -11 27 -25 64 -29 82 -6 28 -4 33 9 29 10 -2 16 -9 14 -16 -1 -7 2
-18 7 -25 5 -6 14 -30 20 -53 7 -24 17 -43 22 -43 6 0 8 7 5 16 -3 8 -2 12 4
9 6 -3 10 -1 10 4 0 6 -7 11 -16 11 -10 0 -14 6 -11 14 3 7 1 18 -4 23 -5 5
-12 25 -14 45 -5 39 -16 68 -44 113 -43 71 -150 286 -136 275 8 -7 15 -9 15
-4z m-1054 -1096 c4 -36 8 -77 9 -92 4 -45 5 -48 13 -48 7 0 9 91 2 115 -5 18
0 45 8 45 4 0 8 -8 9 -17 1 -10 4 -58 7 -108 3 -49 8 -101 10 -115 12 -57 15
-155 6 -135 -8 15 -9 9 -6 -25 3 -25 8 -55 12 -67 10 -37 -11 -26 -24 11 -7
19 -12 38 -11 43 1 4 1 19 0 32 -2 39 -11 18 -17 -39 -5 -45 -3 -52 9 -47 17
6 21 -7 32 -105 4 -32 11 -58 17 -58 6 0 8 10 4 25 -4 14 -2 25 3 25 5 0 10
-27 10 -60 0 -33 3 -65 6 -70 5 -8 -22 -43 -93 -118 -6 -7 -17 -22 -22 -33 -6
-10 -14 -19 -18 -19 -4 0 -7 192 -8 428 0 235 3 409 6 388 4 -22 8 -78 9 -124
0 -47 6 -112 11 -144 6 -32 8 -63 4 -69 -14 -24 3 -416 18 -401 6 6 6 76 -1
188 -9 155 -9 199 -1 224 5 13 -3 86 -11 107 -5 13 -5 23 -1 23 4 0 5 33 1 73
-9 79 -11 243 -5 236 3 -2 8 -33 12 -69z m-62 -271 c7 -194 9 -446 4 -544 -4
-63 -10 -88 -29 -117 -28 -45 -43 -49 -35 -10 3 15 7 94 8 175 2 82 7 151 11
154 5 3 7 -61 5 -141 -2 -80 0 -146 4 -146 4 0 9 33 10 73 1 87 2 89 11 105 5
7 5 22 2 33 -4 12 -7 130 -6 262 0 316 0 311 6 306 2 -3 7 -70 9 -150z m1391
-664 c35 -14 78 -62 69 -76 -3 -5 -12 -5 -22 0 -21 11 -268 24 -258 14 4 -4
31 -10 59 -14 35 -4 7 -7 -85 -8 -76 0 -141 -1 -145 -1 -13 0 -14 78 -1 86 40
25 324 24 383 -1z"/>
<path d="M6416 5364 c-22 -21 -29 -57 -23 -110 6 -53 20 -73 39 -56 7 5 35 9
63 7 29 -2 52 1 57 8 5 8 11 7 22 -2 27 -23 46 -6 46 40 0 33 -7 51 -36 85
-34 43 -37 44 -94 44 -40 0 -64 -5 -74 -16z"/>
<path d="M5983 5313 c-7 -2 -27 -29 -44 -60 -29 -50 -31 -58 -20 -92 l11 -38
72 -1 c50 -1 68 2 58 8 -13 8 -12 10 3 10 9 0 26 -6 37 -12 25 -16 39 -3 50
46 10 45 -2 91 -32 123 -17 18 -31 23 -72 22 -28 0 -56 -3 -63 -6z"/>
<path d="M6524 4699 c-20 -6 -42 -26 -67 -62 -34 -50 -37 -59 -37 -126 0 -69
17 -162 42 -223 13 -35 63 -40 73 -8 5 17 14 20 63 18 54 -1 55 -2 12 -5 -46
-4 -82 -23 -44 -23 11 0 26 -6 33 -12 11 -10 13 -10 7 0 -9 16 36 16 52 0 9
-9 12 -9 12 0 0 7 7 12 16 12 8 0 12 -4 9 -10 -3 -5 -1 -10 4 -10 6 0 11 5 11
11 0 7 8 9 23 4 28 -9 150 -6 160 4 4 4 9 22 12 41 2 18 9 38 14 43 18 18 12
51 -19 113 -22 45 -26 61 -18 72 11 13 4 23 -23 34 -4 2 -20 26 -36 53 -40 69
-75 85 -183 84 -47 0 -99 -5 -116 -10z m275 -104 c10 -11 22 -30 26 -42 l6
-23 -155 0 c-85 0 -157 4 -160 9 -10 16 6 70 23 75 9 3 67 4 128 3 98 -2 115
-5 132 -22z m-339 -82 c11 -10 20 -23 20 -30 0 -6 4 -15 10 -18 6 -4 8 5 4 22
l-6 28 182 -2 c180 -1 181 -1 200 -26 38 -48 17 -105 -35 -95 -14 3 -25 1 -25
-5 0 -6 19 -8 45 -4 45 5 45 4 32 -16 -13 -20 -23 -21 -208 -21 l-194 -1 -16
50 c-9 28 -14 54 -12 58 3 4 0 13 -5 20 -10 13 -23 57 -16 57 2 0 13 -8 24
-17z"/>
<path d="M5570 4413 c-42 -8 -87 -50 -111 -103 -15 -33 -29 -50 -40 -50 -24 0
-35 -20 -18 -31 11 -7 7 -21 -20 -72 -30 -56 -33 -69 -28 -110 7 -51 36 -116
61 -136 21 -17 46 -7 46 19 0 19 6 20 165 20 l165 0 0 -25 c0 -21 5 -25 30
-25 34 0 50 23 50 70 0 35 26 93 39 86 9 -6 8 -10 14 107 l5 87 -43 66 c-61
92 -70 97 -189 100 -56 1 -112 0 -126 -3z m205 -89 c18 -7 45 -54 45 -79 0
-13 -24 -15 -175 -15 -194 0 -189 -2 -161 65 l15 35 130 0 c71 0 137 -3 146
-6z m-185 -121 c63 -3 145 -1 183 4 l67 10 0 -40 c0 -22 -8 -57 -17 -78 -14
-32 -23 -40 -57 -48 l-41 -9 43 -1 c23 -1 42 4 42 9 0 6 6 10 14 10 10 0 16
17 21 53 11 95 15 107 36 107 24 0 24 -20 1 -68 -10 -20 -24 -63 -31 -94 -9
-42 -17 -58 -29 -59 -337 -11 -408 -10 -424 8 -15 18 -33 63 -25 63 3 0 21 -7
40 -15 43 -18 47 -18 47 -5 0 6 -5 10 -10 10 -6 0 -26 7 -46 15 l-35 14 22 43
c37 74 51 90 68 82 9 -3 68 -8 131 -11z"/>
<path d="M8404 7949 c-2 -4 32 -9 76 -11 44 -3 83 -8 87 -11 4 -4 -38 -53 -93
-110 -55 -56 -114 -119 -132 -140 -20 -24 -39 -37 -47 -33 -13 5 -14 -86 -11
-702 3 -389 10 -783 16 -877 18 -289 17 -1572 -4 -2979 -2 -114 0 -223 4 -242
8 -34 7 -34 -27 -34 -20 0 -32 -4 -28 -10 3 -5 20 -10 36 -10 20 0 28 -4 23
-11 -4 -7 -22 -9 -45 -6 -22 3 -39 1 -39 -4 0 -5 20 -9 45 -9 29 0 45 -4 46
-12 1 -7 2 -22 3 -33 1 -11 3 -30 4 -42 1 -13 7 -23 13 -23 8 0 10 18 7 55 -3
31 -2 58 1 60 21 12 975 20 1221 9 243 -10 476 -13 390 -4 -47 4 -119 9 -160
10 -61 1 -69 3 -46 11 17 4 194 9 395 10 202 1 391 3 421 4 30 1 79 3 108 4
39 1 52 5 52 16 0 12 -16 15 -82 16 -71 2 -64 3 52 10 74 5 136 6 139 4 2 -3
-11 -5 -30 -5 -37 0 -68 -15 -56 -27 12 -12 55 -14 62 -3 3 5 18 10 33 10 21
0 23 3 12 10 -23 14 -8 20 64 25 43 3 75 0 88 -8 16 -9 22 -9 25 1 3 6 13 12
24 12 10 0 19 5 19 10 0 6 -19 10 -42 10 -40 1 -42 2 -24 15 19 14 18 15 -10
16 -16 0 -38 2 -49 5 -11 2 -42 6 -70 9 -27 3 -61 10 -75 15 -14 5 -56 8 -94
7 -50 -1 -70 2 -74 11 -3 11 9 13 59 8 142 -12 365 -16 334 -5 -16 5 -59 11
-95 13 -36 2 -78 4 -94 4 -16 1 -26 5 -22 9 4 5 51 9 104 10 134 2 130 2 111
13 -9 5 -104 10 -213 11 -141 2 -194 5 -186 13 6 6 33 10 60 9 28 -1 50 2 50
7 0 12 51 19 74 10 20 -9 20 -9 -1 -9 -13 -1 -23 -5 -23 -11 0 -12 0 -12 75
-1 33 6 91 12 129 15 64 4 102 15 60 17 -26 1 -88 8 -149 18 -28 4 -85 7 -128
6 -42 -1 -77 0 -77 3 0 3 24 28 53 56 29 28 66 69 83 90 16 21 35 45 42 52 6
7 12 16 12 19 0 4 15 39 34 78 66 142 87 196 116 302 12 44 25 89 30 100 5 11
12 38 15 60 3 22 10 56 15 75 5 19 18 82 29 140 25 133 30 157 38 200 13 63 5
338 -11 405 -7 26 -48 244 -52 270 -1 11 -3 20 -4 20 -1 0 -4 11 -6 25 -2 13
-24 63 -47 110 -24 47 -43 95 -42 106 1 12 -3 21 -9 20 -6 0 -12 4 -14 9 -2 6
-10 14 -18 18 -8 4 -14 14 -14 20 0 18 -142 180 -168 192 -27 12 -29 29 -2 20
13 -4 30 4 56 27 39 35 124 144 124 159 0 20 -20 7 -35 -22 -9 -17 -31 -43
-48 -59 -29 -26 -33 -28 -45 -13 -13 18 -12 19 -61 -45 -18 -23 -37 -40 -42
-36 -5 3 9 27 31 53 22 26 40 52 40 58 0 6 4 13 9 15 9 3 121 230 121 245 0 4
9 19 19 32 18 23 20 24 42 9 17 -10 31 -13 47 -7 26 10 49 3 79 -24 l22 -20
-20 -28 c-11 -16 -18 -29 -14 -29 11 0 -24 -58 -40 -63 -24 -10 -18 -33 17
-62 25 -21 29 -28 17 -35 -41 -26 -177 -158 -181 -177 -6 -26 2 -29 21 -10 10
10 11 8 5 -7 -6 -16 -5 -17 14 -7 12 7 22 16 22 21 0 6 5 10 11 10 6 0 25 11
42 24 37 27 98 58 104 52 11 -10 -24 -45 -49 -50 -20 -4 -26 -10 -22 -21 3 -8
1 -15 -5 -15 -6 0 -10 -6 -8 -12 1 -7 -8 -14 -21 -16 -19 -3 -21 -6 -11 -19
11 -12 5 -22 -36 -59 -33 -29 -43 -44 -32 -44 9 0 17 5 17 11 0 6 9 9 19 6 15
-4 27 7 50 45 17 27 31 54 31 59 0 5 6 9 13 9 22 0 89 61 83 77 -3 7 1 16 9
19 8 4 15 12 15 19 0 7 7 15 15 19 21 8 8 32 -31 57 -19 11 -46 36 -61 55 -23
31 -24 36 -10 52 25 29 59 109 55 134 -4 29 -41 48 -95 48 -46 0 -50 5 -28 34
8 11 12 29 9 42 -4 14 4 44 21 79 14 31 25 66 23 78 -3 18 -49 59 -79 69 -7 2
-7 19 0 49 6 26 13 81 15 122 2 42 7 81 11 87 3 5 6 74 6 153 1 116 -3 154
-20 207 -22 70 -27 130 -11 130 6 0 10 -13 10 -30 0 -16 4 -30 9 -30 14 0 -5
70 -28 100 -16 23 -41 87 -47 125 -7 42 -18 75 -26 75 -5 0 -6 4 -3 10 3 5 -6
25 -20 44 -14 19 -25 38 -23 42 4 15 -32 76 -74 127 -22 26 -37 47 -34 47 4 0
26 -9 49 -20 59 -29 17 4 -48 37 -27 14 -74 52 -105 84 -56 59 -98 86 -250
161 -111 54 -87 61 31 9 95 -43 134 -49 58 -10 -71 36 -179 70 -179 56 0 -8
-4 -7 -9 2 -9 14 -297 94 -401 111 -30 5 -84 14 -120 20 -35 6 -75 9 -87 5
-13 -3 -23 -1 -23 5 0 5 -5 10 -11 10 -5 0 -8 -4 -5 -9 3 -5 -76 -6 -182 -4
-292 8 -1083 9 -1088 2z m696 -40 c245 -4 459 -10 475 -13 17 -3 80 -6 140 -8
61 -1 113 -6 116 -10 3 -5 37 -12 75 -15 41 -3 79 -13 94 -23 15 -11 36 -16
50 -14 33 6 236 -54 325 -97 39 -18 100 -52 136 -75 76 -49 226 -202 266 -272
15 -26 43 -72 63 -102 37 -57 77 -164 105 -285 9 -38 19 -78 21 -87 3 -10 1
-18 -4 -18 -12 0 -38 60 -34 78 2 6 -2 12 -8 12 -5 0 -10 6 -10 13 -1 18 -40
101 -45 95 -6 -5 35 -145 60 -203 13 -31 14 -37 2 -25 -8 8 -31 60 -51 115
-21 55 -44 112 -52 127 -17 32 -18 41 -1 32 22 -14 -13 28 -102 119 -67 69
-111 103 -201 156 -136 81 -183 105 -241 125 -81 28 -52 7 72 -53 82 -39 146
-78 189 -115 36 -31 73 -56 83 -56 10 0 15 -4 12 -10 -3 -5 0 -10 9 -10 16 0
81 -64 82 -83 2 -21 22 -65 34 -72 13 -8 103 -185 94 -185 -4 0 -2 -6 3 -12
12 -15 44 -110 40 -115 -4 -3 -14 16 -55 107 -35 78 -132 232 -176 278 -126
136 -408 315 -586 375 -200 66 -298 72 -1040 56 -322 -7 -606 -12 -632 -12
-27 1 -48 -2 -48 -7 0 -14 58 -22 110 -15 28 4 50 3 50 -2 0 -4 271 -8 602 -8
589 0 698 -5 818 -34 316 -79 485 -165 656 -335 76 -76 99 -107 142 -192 48
-95 152 -365 152 -395 0 -8 -10 -3 -23 12 -32 38 -81 49 -137 33 -44 -13 -45
-13 -75 16 -21 20 -43 31 -68 32 -20 2 -39 9 -42 16 -3 7 -1 11 4 8 4 -3 13 6
20 20 10 22 8 32 -10 62 -12 21 -28 44 -35 52 -10 12 -11 25 -2 59 11 43 11
44 -23 72 -45 38 -89 46 -123 24 -17 -12 -36 -15 -56 -12 -16 4 -32 2 -35 -3
-11 -19 -53 -11 -60 11 -4 11 -19 35 -34 52 -16 18 -31 49 -35 70 -5 27 -12
37 -26 37 -10 0 -27 3 -37 6 -10 4 -3 -7 16 -23 26 -22 34 -37 33 -60 0 -23 5
-33 22 -41 13 -6 27 -23 31 -39 12 -48 22 -54 84 -47 31 4 67 12 81 19 57 28
77 27 115 -6 39 -35 45 -58 15 -66 -24 -6 -25 -11 -6 -32 8 -9 23 -33 35 -53
l20 -37 -27 -21 -27 -20 28 10 c43 15 43 13 1 -25 -27 -25 -33 -34 -19 -31 14
4 26 -3 38 -20 17 -23 18 -29 4 -70 -8 -24 -11 -44 -7 -44 14 0 35 33 32 52
-5 27 21 32 63 12 32 -15 43 -15 91 -4 48 12 58 11 94 -5 46 -21 59 -48 36
-74 -21 -23 -20 -25 10 -58 l25 -27 -36 -18 c-29 -15 -34 -22 -26 -37 13 -23
40 -45 47 -38 3 3 1 14 -4 24 -8 14 -4 24 18 45 l27 27 7 -46 c3 -25 6 -85 6
-133 0 -72 -3 -89 -16 -94 -10 -4 -25 1 -35 10 -10 9 -22 13 -27 10 -6 -3 -8
2 -5 14 5 17 0 20 -32 20 -20 0 -43 -7 -51 -15 -16 -16 -63 -11 -75 7 -3 5
-20 -4 -37 -21 -17 -17 -27 -31 -22 -31 5 0 16 7 25 16 9 9 19 13 23 9 4 -3
-9 -20 -28 -36 -19 -15 -33 -29 -30 -29 13 0 79 38 74 43 -3 3 4 3 15 0 21 -5
21 -7 5 -24 -9 -11 -24 -19 -33 -19 -21 0 -47 -17 -39 -25 3 -4 15 -2 27 4 52
27 61 31 67 31 3 0 -1 -7 -10 -15 -8 -8 -23 -15 -34 -15 -24 0 -32 -8 -25 -26
4 -11 12 -10 44 6 21 11 39 25 39 30 0 15 17 12 35 -6 9 -9 18 -14 21 -11 3 3
-12 21 -32 41 -36 35 -37 37 -18 51 23 17 34 19 34 5 0 -5 -4 -10 -10 -10 -5
0 -10 -4 -10 -9 0 -5 10 -7 22 -3 17 4 20 2 15 -11 -4 -10 -2 -17 3 -17 6 0
10 -7 10 -15 0 -18 -2 -18 51 0 23 9 46 12 51 7 9 -9 -14 -149 -38 -232 -9
-30 -17 -60 -18 -67 -4 -25 -13 -22 -54 13 -23 19 -42 32 -42 27 1 -15 59 -73
74 -73 47 0 -107 -293 -161 -306 -40 -10 -37 2 11 47 26 23 44 44 41 47 -3 3
-25 -13 -48 -36 -47 -46 -58 -50 -77 -26 -11 13 -9 19 13 42 34 33 48 21 16
-15 l-24 -26 40 28 c83 60 131 118 66 79 -17 -10 -29 -22 -28 -28 1 -5 -6 -12
-17 -14 -12 -3 -16 0 -11 8 12 20 -37 -10 -56 -34 l-17 -21 -41 23 c-38 22
-61 22 -61 2 0 -4 8 -6 19 -3 12 3 30 -7 53 -29 18 -18 49 -45 68 -59 32 -24
33 -27 18 -48 -20 -28 -173 -150 -221 -176 -20 -11 -37 -23 -37 -27 0 -4 18
-12 40 -18 22 -6 40 -15 40 -20 0 -6 7 -10 15 -10 9 0 21 -4 28 -10 7 -5 25
-20 41 -33 l28 -23 -48 -31 c-27 -18 -61 -42 -76 -54 l-26 -22 -48 23 -47 23
-84 -42 c-46 -24 -86 -41 -89 -38 -5 5 135 88 169 100 9 4 17 2 17 -4 0 -6 4
-8 10 -4 5 3 18 0 29 -7 17 -11 23 -10 37 4 15 15 13 18 -29 37 -26 12 -50 20
-54 19 -14 -4 -53 13 -53 23 0 5 3 9 8 9 4 0 13 10 21 23 l14 22 -25 -22 c-23
-22 -48 -30 -48 -17 0 4 15 20 33 37 17 16 25 25 17 19 -9 -6 -29 -16 -45 -22
-29 -11 -29 -11 -10 10 25 28 -150 -63 -189 -99 -16 -14 -25 -20 -21 -12 5 9
4 12 -3 7 -16 -10 -210 -308 -221 -340 -2 -6 -10 -18 -18 -27 -7 -9 -13 -20
-12 -25 2 -5 -5 -25 -14 -44 -17 -34 -17 -34 -11 -5 7 38 -4 28 -16 -14 -5
-19 -5 -29 1 -26 5 4 9 1 9 -4 0 -6 -6 -11 -14 -11 -14 0 -32 -41 -42 -96 -3
-16 -9 -33 -15 -40 -5 -6 -18 -51 -28 -100 -11 -49 -27 -123 -36 -164 -19 -88
-23 -367 -6 -470 6 -36 11 -68 11 -72 0 -5 5 -8 11 -8 6 0 8 8 5 18 -13 45
-17 92 -8 92 8 0 16 -31 23 -100 1 -8 7 -19 13 -23 7 -5 3 -7 -9 -5 -17 3 -19
-2 -17 -37 4 -51 54 -221 86 -290 13 -30 35 -59 48 -66 12 -6 27 -19 32 -27 6
-11 21 -13 65 -8 51 6 63 3 115 -24 76 -41 106 -36 46 8 -25 17 -55 39 -68 48
-33 25 -21 27 23 4 22 -11 44 -20 50 -20 6 0 21 -9 33 -20 12 -11 31 -20 42
-20 12 0 28 -7 36 -15 15 -14 48 -10 39 6 -3 4 -12 6 -19 3 -7 -3 -21 6 -30
20 -9 15 -22 26 -29 26 -8 0 -23 10 -35 23 l-22 24 46 -2 c27 -1 50 -8 55 -16
9 -16 16 -17 111 -25 37 -2 89 -11 115 -19 26 -8 48 -13 50 -12 3 3 -54 32
-82 42 -19 7 -19 7 4 16 15 6 35 6 52 0 30 -10 109 -3 109 10 0 9 -43 12 -175
10 l-80 -1 35 19 c19 11 28 20 20 21 -8 0 -30 -9 -49 -21 -41 -25 -73 -19 -47
9 28 32 18 34 -29 6 -49 -29 -57 -20 -24 28 29 40 14 50 -17 10 -23 -28 -65
-48 -49 -22 9 15 -5 51 -16 44 -6 -3 -8 -12 -5 -20 3 -9 -1 -14 -12 -15 -9 0
-26 -3 -37 -6 -35 -8 -66 -4 -97 14 -30 18 -108 125 -108 148 0 7 -9 32 -20
56 -23 52 -25 69 -6 69 14 0 146 137 146 152 0 5 12 32 26 61 28 57 29 60 45
192 15 123 16 108 -7 300 -3 28 -15 73 -25 100 -10 28 -19 55 -19 62 0 6 21
25 48 41 26 17 73 49 106 71 65 46 89 53 60 19 -10 -13 -12 -17 -4 -10 20 17
35 15 20 -3 -7 -8 -17 -15 -23 -15 -5 0 -20 -12 -32 -26 -17 -20 -30 -25 -49
-22 -14 3 -26 3 -26 1 0 -5 81 -86 102 -102 10 -7 51 -15 92 -17 69 -4 76 -2
87 17 6 12 9 31 7 44 l-5 22 33 -19 c18 -10 38 -26 44 -34 16 -19 30 -18 46 4
12 16 14 15 41 -9 37 -34 55 -40 95 -28 27 7 40 19 56 53 15 29 31 46 47 50
33 8 56 54 49 97 -8 47 25 90 69 89 18 0 43 1 56 2 21 3 28 -4 43 -42 42 -110
98 -332 97 -390 0 -26 -26 45 -34 91 -8 54 -25 112 -32 106 -2 -3 12 -90 32
-193 35 -176 37 -198 32 -319 -3 -71 -10 -143 -16 -160 -5 -16 -12 -46 -14
-65 -3 -19 -10 -57 -16 -84 -7 -27 -13 -62 -15 -78 -5 -39 -38 -108 -53 -108
-6 0 -9 -9 -6 -20 3 -12 0 -20 -6 -20 -7 0 -9 -4 -6 -10 3 -5 2 -10 -4 -10 -5
0 -13 -10 -17 -22 -27 -89 -209 -313 -263 -324 -27 -6 -104 -64 -84 -64 6 0
16 6 22 14 6 8 21 16 33 19 20 6 20 4 -4 -20 -18 -17 -37 -26 -57 -25 -17 0
-34 -5 -38 -11 -16 -25 -61 -45 -203 -90 -239 -77 -486 -109 -820 -108 -102 1
-201 3 -222 5 -20 2 -152 7 -295 11 -142 4 -260 9 -263 10 -3 2 -39 0 -80 -4
l-75 -8 78 -2 c44 0 77 -5 77 -11 0 -6 -64 -10 -171 -10 -104 0 -168 4 -164 9
4 7 18 1149 15 1266 0 6 3 6 9 0 6 -6 11 -72 12 -148 2 -76 6 -140 11 -143 10
-6 -2 401 -13 435 -5 18 -7 2 -6 -48 1 -54 -2 -76 -11 -79 -12 -4 -13 51 -3
161 1 5 6 5 11 2 6 -3 10 -1 10 4 0 6 -6 11 -13 11 -10 0 -14 17 -14 65 1 36
3 65 6 65 7 0 6 147 -3 1695 -4 572 -11 1138 -17 1258 l-11 218 68 72 c37 40
79 83 93 96 83 75 101 94 101 110 0 27 39 64 59 55 9 -4 216 -11 461 -15z
m1206 -2739 c28 0 13 -20 -31 -41 -25 -12 -45 -25 -45 -29 0 -4 -8 -10 -17
-14 -10 -3 -25 -9 -33 -12 -8 -4 -2 5 15 19 27 24 27 26 6 20 -13 -3 -31 -18
-39 -33 -16 -27 -92 -88 -92 -73 0 20 -40 10 -61 -15 l-24 -27 26 23 c50 43
42 21 -12 -33 -57 -58 -80 -71 -53 -30 9 14 14 25 10 25 -13 0 57 100 90 129
63 56 190 107 232 95 8 -2 20 -4 28 -4z m297 -22 c77 -41 277 -295 277 -353 0
-12 -38 -4 -44 10 -4 13 -9 13 -25 3 -15 -9 -25 -9 -46 0 -37 17 -79 15 -106
-6 -13 -10 -59 -36 -102 -57 -42 -20 -80 -42 -83 -46 -7 -12 3 -11 29 2 15 7
12 3 -8 -15 -16 -14 -36 -23 -43 -21 -8 3 -27 -4 -43 -16 -16 -11 -29 -17 -29
-14 0 4 -11 0 -25 -9 -27 -18 -39 -21 -31 -7 6 9 -120 -71 -132 -84 -4 -4 22
7 58 25 55 28 62 29 46 11 -15 -16 -16 -20 -4 -16 10 4 17 -1 21 -17 7 -23 -6
-38 -34 -38 -21 0 -44 26 -29 33 6 3 5 4 -2 3 -7 -2 -13 -8 -13 -14 0 -5 -3
-14 -7 -18 -5 -4 -8 -2 -8 5 0 6 -6 11 -13 9 -13 -3 -87 42 -87 52 1 7 88 70
97 70 5 0 26 16 48 35 22 19 44 35 48 35 14 0 -71 -68 -119 -96 -62 -36 -55
-50 9 -18 52 26 52 26 32 3 l-20 -23 30 18 c17 10 41 29 56 42 14 13 32 24 40
24 8 0 30 13 49 28 40 32 153 102 166 102 5 0 18 8 29 16 20 16 20 16 -2 9
-33 -9 -28 2 10 25 39 24 72 28 39 4 -12 -8 -20 -19 -17 -24 3 -5 -17 -21 -45
-36 -60 -33 -60 -42 1 -15 49 22 104 74 95 90 -3 5 -1 11 6 14 7 2 1 3 -14 1
-38 -5 -35 4 7 22 24 10 33 19 28 29 -5 14 -7 14 -22 0 -40 -39 -109 -83 -138
-90 -44 -9 -42 7 5 42 20 15 42 33 47 39 6 6 25 21 43 33 17 12 32 27 32 32 0
13 -70 -37 -135 -96 -37 -34 -51 -42 -53 -30 -5 20 -8 19 -46 -10 -18 -14 -37
-25 -43 -25 -6 0 -22 -11 -38 -26 -44 -41 -38 -22 11 34 25 29 43 52 39 52
-11 0 -90 -42 -108 -58 -26 -23 -32 -7 -8 24 29 36 26 50 -5 29 -14 -9 -28
-14 -31 -11 -3 3 -20 -2 -37 -11 l-31 -16 33 37 c43 49 44 76 2 46 -33 -23
-40 -17 -13 12 12 14 13 17 2 13 -8 -3 -21 -18 -31 -34 -9 -16 -26 -35 -38
-41 -20 -11 -20 -8 6 26 l29 39 -28 -18 c-33 -21 -47 -16 -26 9 13 16 12 16
-8 3 -24 -15 -31 -39 -11 -39 6 0 8 -3 5 -6 -4 -4 -13 -1 -22 6 -13 11 -12 16
8 40 17 22 26 25 41 18 12 -7 16 -7 12 0 -12 21 102 100 182 126 36 12 41 12
31 0 -9 -11 -7 -14 10 -14 13 0 30 -7 38 -16 15 -15 18 -14 32 3 9 11 36 35
61 54 25 18 51 39 58 46 17 16 27 16 55 1z m-518 -180 c-32 -34 -53 -64 -46
-66 6 -2 8 -8 5 -13 -3 -6 4 -19 16 -29 18 -16 20 -22 10 -40 -11 -20 -10 -21
9 -10 30 15 26 5 -15 -46 -34 -41 -147 -134 -163 -134 -3 0 -14 15 -24 33 -18
33 -18 35 4 98 32 93 35 98 113 170 73 69 106 85 46 24 -19 -19 -30 -35 -24
-34 5 0 32 24 59 54 28 29 54 53 59 54 4 1 -18 -27 -49 -61z m105 -178 c-21
-30 -176 -161 -248 -210 -79 -54 -123 -89 -123 -97 0 -4 -7 -8 -17 -8 -17 0
-35 -12 -72 -49 -20 -19 -70 -116 -74 -141 -1 -8 -6 -18 -10 -22 -4 -4 -4 10
0 32 4 22 8 48 8 57 0 9 3 15 7 12 10 -6 19 23 13 39 -8 22 14 69 28 61 10 -6
10 -4 2 7 -11 13 -2 59 11 59 4 0 4 -10 1 -22 -4 -15 -1 -12 9 7 10 22 14 25
15 11 0 -18 1 -18 18 -3 10 10 23 17 29 17 46 0 177 84 270 174 41 39 128 100
151 105 2 1 -6 -13 -18 -29z m548 -7 c25 -6 29 -28 7 -41 -14 -7 -18 -25 -24
-99 -1 -7 -7 -13 -14 -13 -18 0 -63 -51 -70 -82 -7 -28 -40 -53 -57 -43 -5 3
-6 13 -3 23 4 13 2 13 -10 -3 -16 -20 -16 -20 -37 1 l-22 21 42 33 c22 18 44
29 48 25 4 -3 -2 -13 -12 -21 -16 -11 -17 -16 -6 -29 7 -8 18 -15 24 -14 7 0
6 2 -1 6 -22 8 -14 21 30 47 23 14 38 26 32 26 -5 0 1 9 15 20 14 11 19 20 12
20 -7 0 -23 -11 -36 -25 -13 -14 -29 -25 -35 -25 -7 0 14 25 46 56 64 62 41
58 -32 -6 -45 -39 -95 -70 -112 -70 -4 0 7 10 25 21 17 12 32 25 32 30 0 4 33
34 74 66 41 32 73 59 71 61 -4 4 -95 -46 -105 -57 -9 -10 -115 -97 -128 -105
-11 -7 -11 -4 0 13 7 12 17 21 23 21 5 0 4 4 -4 9 -11 7 -7 13 18 25 17 9 31
21 31 26 0 5 26 30 57 55 42 35 62 45 77 40 12 -4 31 -9 44 -12z m-789 -354
c19 -60 24 -96 25 -194 1 -144 -4 -169 -44 -210 -44 -46 -190 -121 -201 -103
-5 7 -7 76 -6 153 3 131 5 145 35 220 32 81 135 219 157 212 5 -2 20 -37 34
-78z"/>
<path d="M10020 7269 c-14 -6 -43 -9 -65 -6 -57 6 -130 -35 -170 -96 -26 -40
-65 -63 -65 -38 0 20 -35 20 -75 1 -34 -16 -48 -18 -69 -10 -42 15 -53 13 -90
-22 -18 -18 -44 -40 -56 -48 -18 -13 -20 -19 -11 -42 6 -16 21 -30 36 -34 31
-8 31 -15 -1 -69 -25 -44 -26 -69 0 -59 7 3 19 24 25 47 7 23 23 58 36 78 26
41 21 63 -6 27 l-18 -23 -25 24 c-14 14 -26 29 -26 33 0 5 18 17 39 26 22 9
42 25 45 36 4 15 10 17 33 11 15 -3 35 -13 44 -21 21 -19 36 -18 42 5 7 29 55
36 81 12 l22 -21 31 33 c16 17 40 47 52 65 15 21 31 32 46 32 13 0 25 5 27 12
3 7 32 14 71 16 37 2 67 8 67 13 0 17 60 9 80 -11 15 -15 20 -16 20 -6 0 37
-67 56 -120 35z"/>
<path d="M9365 6929 c-26 -21 -28 -21 -61 -5 -49 23 -72 20 -102 -12 -15 -16
-37 -34 -49 -41 -13 -6 -23 -19 -23 -27 0 -12 -8 -9 -32 11 -22 19 -37 24 -52
20 -12 -4 -46 -14 -76 -22 -75 -21 -81 -27 -79 -87 2 -53 17 -75 52 -76 23 0
22 13 -3 35 -15 14 -20 29 -18 54 3 33 5 35 58 47 78 18 101 17 126 -7 27 -26
59 -19 49 10 -3 11 0 23 6 27 9 5 10 2 6 -9 -5 -14 0 -17 24 -17 26 0 29 2 19
19 -13 26 -3 50 26 61 28 11 50 5 83 -24 18 -16 25 -18 29 -7 8 24 41 51 62
51 11 0 20 5 20 10 0 17 -36 11 -65 -11z"/>
<path d="M9530 6855 c-14 -27 -35 -33 -44 -12 -5 10 -7 10 -12 0 -3 -7 -19
-13 -35 -13 -21 0 -28 4 -23 12 5 8 2 9 -12 3 -10 -5 -46 -11 -79 -13 l-60 -3
1 -296 c1 -274 -1 -299 -19 -336 -10 -22 -25 -47 -33 -55 -8 -7 -14 -18 -14
-23 0 -17 -38 -9 -42 9 -3 9 4 34 14 55 23 46 7 49 -21 3 -27 -43 -27 -49 10
-90 l30 -35 -37 -41 c-21 -23 -43 -39 -51 -35 -7 3 -19 8 -27 11 -7 3 -16 -2
-20 -12 -5 -12 -2 -15 10 -10 12 4 15 2 10 -9 -4 -12 2 -15 29 -15 l34 0 -28
-31 c-28 -30 -29 -31 -54 -14 -34 22 -40 45 -27 96 6 22 9 43 6 46 -5 5 -28
-41 -40 -79 -7 -25 -44 -11 -62 24 -8 16 -12 38 -9 48 9 30 -4 24 -16 -6 -15
-42 -3 -60 87 -125 l85 -62 -36 -25 c-26 -19 -32 -28 -24 -38 15 -19 -14 -59
-59 -79 -60 -28 -65 -35 -46 -56 21 -24 32 -24 30 -2 0 9 11 24 26 32 27 15
28 15 63 -27 50 -58 63 -53 20 8 -19 27 -30 52 -25 55 6 3 10 11 10 16 0 6 -5
7 -12 3 -32 -20 52 72 89 98 44 30 67 32 43 3 -10 -12 -10 -15 1 -15 8 0 20 9
27 20 7 11 18 20 25 20 9 0 9 -2 -1 -9 -10 -6 -10 -10 3 -21 13 -11 14 -10 8
5 -5 15 -3 17 12 11 11 -4 22 -2 26 6 13 21 30 -39 23 -83 l-7 -39 82 0 c44 0
100 4 123 10 24 5 60 12 80 15 41 6 176 101 223 157 15 18 40 58 53 88 27 59
28 59 68 105 28 32 22 17 -10 -27 -11 -15 -17 -30 -14 -34 4 -3 11 4 18 15 6
12 15 21 21 21 5 0 2 -11 -8 -25 -10 -13 -23 -23 -30 -20 -7 2 -15 0 -18 -5
-4 -6 -2 -10 3 -10 6 0 8 -9 5 -20 -3 -11 -10 -17 -16 -13 -5 3 -7 1 -3 -5 3
-6 -1 -17 -9 -25 -8 -9 -15 -22 -15 -29 0 -8 -5 -19 -12 -26 -6 -6 -9 -14 -5
-18 10 -10 27 6 27 25 0 9 23 49 50 88 29 41 48 77 44 86 -4 11 5 18 30 27 19
6 37 16 39 23 2 7 8 9 12 5 4 -4 -12 -28 -36 -53 -24 -26 -46 -51 -48 -57 -2
-6 -28 -47 -57 -90 -29 -43 -48 -78 -42 -78 6 0 17 -8 24 -17 13 -17 13 -17
14 2 0 25 114 145 138 145 11 0 13 3 6 8 -8 5 -4 13 12 25 27 20 24 25 61 -86
12 -34 19 -45 21 -32 1 12 -13 63 -33 114 -20 51 -34 98 -32 104 3 7 8 -1 12
-18 15 -56 57 -141 63 -125 3 8 10 18 16 22 7 5 3 8 -9 8 -15 1 -12 5 15 20
19 11 31 19 26 20 -5 0 -3 7 4 15 6 8 9 19 5 25 -7 11 22 26 32 17 3 -3 -5
-22 -17 -42 -12 -19 -23 -45 -25 -58 -7 -47 -16 -82 -23 -87 -4 -3 -7 -12 -7
-20 0 -8 -15 -18 -32 -24 -20 -5 -33 -15 -32 -25 0 -10 2 -12 6 -3 8 20 26 14
20 -8 -3 -11 -1 -18 4 -14 5 3 9 13 9 24 0 17 27 36 38 26 12 -12 3 -57 -17
-82 -12 -15 -19 -30 -15 -33 3 -3 15 5 26 19 56 70 82 100 90 100 5 0 7 -4 4
-8 -3 -5 7 -23 22 -41 25 -30 33 -33 93 -36 60 -2 84 -10 144 -48 11 -6 22
-13 24 -14 2 -1 -7 -11 -20 -22 -22 -18 -22 -20 -6 -26 19 -8 42 7 58 36 8 15
6 17 -8 12 -16 -6 -16 -5 -4 11 13 15 13 19 0 27 -8 5 -20 9 -28 9 -8 0 1 10
19 23 18 12 38 31 44 42 6 10 20 27 31 37 11 9 17 17 14 18 -14 0 -76 -29
-101 -49 -14 -12 -33 -18 -41 -15 -8 3 -18 1 -22 -5 -8 -13 -55 -15 -55 -2 0
5 -10 7 -22 4 -23 -4 -23 -4 -2 9 11 7 41 29 65 49 58 47 119 83 119 71 0 -6
-24 -24 -52 -41 -29 -17 -66 -43 -83 -57 l-30 -26 30 7 c17 3 56 22 88 40 31
19 74 39 95 45 37 9 91 54 80 65 -3 3 -20 -6 -37 -21 -34 -28 -60 -26 -68 6
-3 11 -9 20 -14 20 -4 0 -19 11 -33 25 -17 17 -23 31 -19 47 4 18 -5 12 -39
-24 -50 -53 -64 -57 -98 -28 l-23 20 24 28 c14 15 33 38 44 52 19 24 19 24 1
10 -11 -8 -35 -31 -53 -50 -27 -29 -34 -33 -43 -20 -14 21 -13 25 17 61 25 29
25 31 5 20 -12 -6 -22 -16 -22 -21 0 -6 -7 -10 -15 -10 -22 0 -19 13 15 55 38
48 39 67 2 32 -15 -15 -32 -27 -36 -27 -5 0 -15 -8 -22 -17 -7 -10 -15 -15
-19 -12 -7 8 13 56 34 84 16 20 16 20 -8 0 -12 -11 -29 -32 -37 -47 -8 -16
-20 -28 -28 -28 -22 0 -47 35 -40 56 6 16 5 17 -7 7 -37 -35 -39 7 -3 60 14
21 23 41 21 44 -3 2 -13 -7 -22 -21 -10 -14 -22 -26 -28 -26 -5 0 -3 8 6 18
18 20 22 32 10 32 -5 0 -19 -16 -32 -36 -27 -40 -50 -54 -92 -59 -44 -6 -38
23 21 105 14 19 34 48 44 64 l19 30 -31 -25 c-40 -32 -133 -155 -124 -165 4
-4 1 -4 -6 0 -7 4 -19 3 -25 -3 -7 -5 -23 -8 -35 -4 -20 5 -21 9 -16 82 6 83
-19 209 -51 257 -9 14 -14 28 -11 31 8 8 45 -57 55 -97 26 -103 24 -100 30
-50 6 43 -7 94 -36 146 -7 12 -36 38 -65 57 -29 20 -75 56 -103 81 -29 27 -74
55 -107 67 -51 19 -76 39 -49 39 5 0 11 9 14 20 7 28 -7 25 -23 -5z m55 -105
c11 -4 52 -34 90 -67 73 -61 117 -128 135 -207 9 -36 6 -48 -19 -98 -16 -32
-25 -58 -20 -58 5 0 17 18 25 41 12 29 19 37 26 27 11 -17 -2 -141 -16 -150
-8 -5 -8 -13 2 -28 20 -33 15 -103 -11 -141 -20 -30 -31 -36 -87 -46 -36 -7
-86 -12 -111 -13 -29 0 -63 -9 -94 -25 -26 -14 -49 -24 -51 -22 -4 4 -11 254
-19 620 l-3 188 66 -7 c37 -3 76 -10 87 -14z"/>
<path d="M9030 6535 c-19 -19 -40 -33 -47 -31 -7 3 -15 0 -19 -6 -4 -7 -3 -8
4 -4 7 4 12 3 12 -3 0 -15 -14 -21 -29 -11 -8 4 -10 13 -7 19 8 13 -13 14 -33
2 -8 -5 -10 -14 -6 -21 4 -7 3 -15 -2 -19 -5 -3 -19 -21 -32 -39 -14 -20 -46
-43 -84 -61 -93 -43 -100 -51 -90 -91 8 -31 6 -36 -32 -70 -22 -21 -51 -41
-65 -45 -38 -11 -50 -25 -50 -56 0 -17 8 -34 23 -44 l22 -17 -22 7 c-16 4 -28
-1 -44 -19 -13 -15 -33 -26 -46 -26 -51 0 -82 -35 -62 -71 5 -11 26 -35 46
-53 l37 -33 -37 -50 c-20 -28 -37 -58 -37 -68 0 -15 32 -50 89 -97 11 -9 30
-13 50 -10 60 9 126 -43 84 -66 -13 -8 -13 -13 2 -48 8 -21 21 -41 27 -45 7
-4 -2 -18 -23 -37 -45 -41 -74 -56 -93 -49 -23 9 -20 35 9 86 34 58 25 63 -14
9 -23 -31 -31 -51 -28 -71 3 -24 -4 -35 -45 -69 -46 -40 -73 -92 -62 -122 3
-7 -2 -19 -11 -26 -32 -27 -6 -78 35 -65 16 5 24 0 38 -25 9 -17 28 -33 42
-36 14 -3 35 -10 48 -15 17 -7 31 -5 52 7 39 24 30 47 -11 27 -16 -8 -37 -13
-46 -11 -10 2 10 15 46 30 46 20 61 23 57 13 -3 -8 4 -24 16 -35 26 -24 25
-24 -32 -43 -24 -8 -46 -20 -48 -26 -6 -17 17 -13 49 10 20 14 38 19 54 15 31
-8 42 10 19 35 -13 15 -14 19 -3 19 10 1 8 5 -6 16 -19 14 -19 16 -2 25 9 6
29 21 45 35 26 25 27 25 2 13 -14 -7 -39 -12 -57 -11 -29 2 -107 -30 -118 -49
-8 -12 -35 1 -35 17 0 8 -4 14 -10 14 -5 0 -9 -5 -7 -11 1 -6 -4 -14 -10 -16
-7 -3 -13 -1 -13 4 0 4 -4 14 -9 22 -7 10 -13 11 -31 1 -18 -10 -25 -9 -38 4
-14 14 -13 16 10 25 27 10 46 31 29 31 -6 0 -15 9 -21 20 -8 15 -7 26 6 45 23
35 91 81 134 90 31 7 33 6 21 -9 -20 -24 1 -19 29 7 74 68 112 76 73 15 -16
-24 -34 -49 -40 -56 -7 -7 -13 -16 -13 -20 0 -4 18 13 39 38 22 25 38 47 35
49 -2 2 6 9 18 15 12 6 24 18 26 26 4 13 3 13 -10 2 -10 -8 -19 -9 -22 -3 -4
5 -2 12 4 16 18 11 11 23 -10 18 -12 -3 -20 0 -20 7 0 7 -7 10 -14 7 -10 -4
-13 -1 -9 9 6 16 43 20 43 4 0 -5 5 -10 11 -10 6 0 9 6 6 13 -3 7 5 34 18 60
12 26 18 47 14 47 -30 0 42 83 131 153 19 15 31 27 25 27 -19 -1 -119 -83
-180 -149 -21 -22 -24 -30 -11 -25 16 6 17 5 4 -17 -7 -13 -13 -25 -13 -25 0
-1 -10 -5 -22 -8 -22 -7 -22 -6 -8 21 8 15 15 33 15 38 1 13 90 106 115 121
27 15 31 34 5 27 -26 -7 -120 -109 -132 -145 -6 -16 -14 -28 -20 -28 -6 0 -8
7 -5 14 4 10 1 13 -9 9 -18 -7 -18 -5 5 43 23 46 77 101 106 106 23 4 23 21 0
26 -16 4 -110 -92 -110 -112 0 -6 -13 -12 -29 -13 l-29 -2 25 27 c75 82 88 98
88 110 0 6 -4 12 -8 12 -12 0 -43 -35 -37 -41 6 -7 -113 -129 -125 -129 -21 0
-8 21 41 67 28 26 58 61 66 78 l16 30 -27 -24 c-14 -14 -26 -19 -26 -13 0 6 5
14 10 17 6 3 10 12 10 18 0 7 -9 1 -20 -13 -11 -14 -20 -19 -20 -12 0 7 -5 10
-10 7 -6 -4 -4 -12 6 -22 14 -14 12 -19 -22 -54 -32 -33 -64 -42 -64 -18 0 4
-6 6 -14 3 -20 -8 -56 13 -56 32 0 26 61 106 76 100 8 -3 14 1 14 8 0 8 3 22
7 31 5 14 2 16 -14 11 -13 -4 -23 -2 -26 7 -3 8 -21 22 -41 31 -35 16 -50 46
-23 46 6 0 25 7 40 15 15 8 33 12 40 10 17 -7 46 15 30 22 -25 10 -12 22 17
17 34 -7 36 -1 15 50 -18 43 -13 56 21 56 16 0 38 13 59 36 28 30 37 34 54 25
25 -14 61 -14 61 -1 0 6 -11 15 -25 20 -14 5 -29 20 -34 32 -9 25 -3 58 10 58
4 0 19 11 33 25 31 31 59 32 87 4 18 -18 25 -20 41 -10 12 7 25 8 35 3 14 -8
13 -12 -6 -31 -11 -11 -21 -25 -21 -31 0 -5 -3 -10 -8 -10 -12 0 -87 -99 -94
-125 -9 -36 -4 -31 31 25 32 51 179 206 241 253 19 15 30 27 25 27 -6 0 -40
-24 -75 -54 -36 -30 -67 -53 -69 -50 -5 4 18 31 96 114 23 25 43 50 44 55 0 6
5 9 10 8 5 -2 9 2 9 7 0 15 -23 12 -46 -5 -19 -14 -19 -14 1 -15 18 -1 17 -2
-5 -15 -14 -7 -50 -41 -79 -75 -29 -33 -56 -59 -59 -56 -6 6 40 79 71 113 11
13 18 25 15 29 -3 3 -26 -19 -49 -49 -54 -67 -75 -82 -94 -67 -11 9 -7 18 20
45 18 19 38 35 46 37 7 2 26 14 42 28 16 14 33 24 38 23 11 -4 42 43 37 57 -2
6 -19 -5 -38 -25z"/>
<path d="M10816 6370 c-47 -24 -52 -25 -36 -5 31 38 -48 7 -130 -50 -85 -60
-109 -79 -105 -86 9 -14 50 4 98 43 48 40 48 40 66 20 17 -21 18 -21 50 -1 26
15 36 17 53 8 18 -10 20 -9 14 7 -13 33 -12 37 14 44 14 3 26 14 28 23 4 21
-3 21 -52 -3z"/>
<path d="M9879 5657 c-13 -23 -33 -60 -44 -81 -23 -46 -48 -60 -42 -24 2 12 2
17 0 11 -6 -19 -18 -16 -48 10 l-26 22 26 48 c34 60 25 62 -11 2 -24 -42 -44
-58 -44 -35 0 5 -7 7 -15 4 -23 -9 -18 -17 24 -43 55 -34 68 -61 46 -95 -10
-15 -35 -36 -56 -46 l-38 -20 -7 22 c-6 21 -7 21 -20 3 -8 -10 -14 -15 -14 -9
0 5 -5 2 -11 -6 -8 -11 -9 0 -4 39 l6 54 -45 -48 c-26 -27 -49 -45 -53 -42 -3
4 2 16 11 26 10 11 15 25 10 32 -4 8 -3 10 4 5 7 -4 12 -1 12 7 0 8 7 17 15
21 8 3 15 10 15 17 0 6 -15 -2 -32 -17 -18 -15 -33 -32 -33 -38 0 -6 -6 -17
-13 -25 -7 -7 -11 -20 -7 -29 4 -12 3 -13 -9 -3 -12 10 -17 8 -26 -9 -11 -21
-35 -18 -27 4 3 6 12 28 21 49 19 44 15 46 -19 10 -14 -15 -25 -24 -25 -18 0
5 -7 0 -15 -11 -14 -19 -14 -19 -15 1 0 18 -2 17 -13 -5 -16 -31 -41 -28 -79
8 -33 30 -44 25 -27 -12 11 -23 9 -29 -11 -51 -26 -27 -46 -32 -53 -12 -3 7
-6 5 -6 -5 -1 -10 -5 -18 -10 -18 -15 0 -20 27 -8 40 10 10 8 12 -6 6 -10 -3
-21 -6 -23 -6 -2 0 -4 -7 -4 -16 0 -8 5 -12 10 -9 6 3 10 2 10 -4 0 -5 -9 -9
-19 -8 -13 1 -17 6 -13 17 5 12 2 12 -21 -3 -14 -9 -29 -17 -32 -17 -13 0 -2
27 22 52 15 15 22 28 15 28 -16 0 -92 -82 -86 -92 8 -12 56 -32 72 -29 6 1 12
-3 12 -8 0 -6 12 -6 32 0 43 12 61 11 52 -2 -3 -6 17 5 45 25 28 20 59 36 68
37 16 0 16 1 -1 8 -29 11 -4 21 30 12 l29 -8 -22 -14 c-13 -7 -23 -17 -23 -21
0 -9 -60 -68 -70 -68 -3 0 -17 -10 -30 -22 -44 -41 -124 -98 -138 -98 -8 0
-32 18 -53 39 -22 21 -45 41 -53 44 -14 6 -76 -51 -76 -68 0 -6 3 -6 8 0 15
20 48 32 67 24 35 -14 92 -71 76 -77 -30 -10 -150 -98 -206 -151 -33 -31 -74
-68 -91 -82 -17 -14 -37 -36 -44 -50 -10 -20 -6 -18 24 10 19 19 38 32 41 29
6 -5 -65 -78 -76 -78 -4 0 -12 6 -18 14 -10 11 -8 17 6 25 15 9 15 12 4 20 -9
6 -10 10 -2 16 7 3 9 15 6 25 -5 15 12 32 35 34 10 0 87 86 78 86 -5 0 -35
-18 -65 -40 -31 -22 -62 -40 -69 -40 -20 0 -10 30 17 52 21 17 22 18 2 9 -12
-6 -33 -11 -47 -11 -23 0 -25 -4 -24 -36 1 -22 8 -38 18 -44 24 -13 31 -47 14
-61 -16 -13 -19 -49 -4 -49 6 0 10 -6 10 -14 0 -23 12 -26 81 -15 35 6 80 10
100 9 21 0 45 7 60 19 40 31 64 29 102 -7 26 -25 40 -32 56 -27 12 3 21 12 21
19 0 7 11 23 25 36 16 15 25 19 25 10 0 -16 15 -3 15 13 0 7 11 11 23 10 12
-2 22 2 22 8 0 5 -4 7 -10 4 -14 -9 -13 8 2 23 17 17 33 15 18 -3 -8 -10 -9
-15 -2 -15 6 0 16 8 21 18 6 11 33 34 60 53 28 19 51 38 51 42 0 11 -38 -11
-80 -45 -19 -15 -38 -28 -43 -28 -5 0 -23 -10 -40 -22 -17 -12 -27 -17 -24
-10 7 10 93 72 102 72 2 0 19 14 37 31 l33 30 -30 -12 c-16 -7 -41 -22 -55
-34 -54 -46 -63 -47 -21 -3 52 55 82 66 116 41 13 -10 25 -21 25 -25 0 -4 -21
-22 -47 -39 -27 -18 -75 -57 -107 -87 -37 -34 -61 -49 -66 -42 -5 8 -10 7 -19
-4 -10 -12 -8 -16 9 -21 26 -8 21 -29 -8 -33 -23 -4 -29 -17 -12 -27 6 -4 25
2 43 13 18 11 50 20 74 20 24 1 46 3 50 5 5 3 6 -92 5 -211 -4 -222 -3 -560 1
-827 l2 -150 33 -3 c17 -2 32 -7 32 -12 0 -17 -89 -127 -136 -168 -66 -58
-171 -126 -220 -142 -21 -7 -33 -15 -27 -17 42 -14 238 92 311 169 113 118
139 178 177 418 3 19 10 60 15 90 5 30 10 105 11 165 1 94 31 338 46 385 12
35 14 263 3 317 -18 89 -50 133 -176 244 -63 55 -113 106 -111 113 2 6 0 20
-6 31 -6 11 10 1 35 -22 25 -23 65 -53 89 -68 79 -49 175 -158 203 -230 5 -12
10 -15 13 -8 2 7 -17 52 -44 100 -26 48 -46 93 -45 100 1 6 -5 9 -15 7 -10 -3
-27 2 -38 11 -20 15 -20 15 -1 27 11 6 32 24 47 39 16 16 31 24 34 19 14 -22
15 -63 3 -78 -11 -13 -11 -14 1 -8 20 13 31 -12 31 -71 0 -28 5 -55 10 -58 6
-3 10 -15 10 -26 0 -10 5 -19 10 -19 12 0 13 72 0 125 -5 22 -11 75 -14 119
-2 43 -9 83 -14 88 -12 12 -5 38 9 38 5 0 9 -6 9 -12 1 -7 12 -26 25 -43 l25
-30 -14 48 c-8 26 -16 49 -18 50 -1 2 5 12 15 21 10 10 20 16 22 14 5 -5 17
-100 19 -158 1 -19 5 -41 9 -47 5 -7 6 -13 3 -13 -2 0 2 -26 9 -57 15 -64 12
-76 -10 -47 -17 23 -19 6 -4 -33 6 -15 19 -73 29 -128 10 -55 19 -90 19 -78 1
15 6 21 15 17 14 -5 17 4 43 116 3 14 27 54 53 90 56 78 140 234 166 307 9 29
21 50 26 47 14 -9 9 -114 -8 -147 -15 -29 -11 -27 37 19 30 29 65 57 79 64 17
9 12 1 -15 -23 -50 -43 -42 -57 11 -20 21 16 53 35 69 43 32 16 85 60 72 60
-5 0 -17 -5 -28 -10 -23 -13 -25 -7 -3 14 8 9 11 16 5 16 -5 0 -13 -4 -16 -10
-3 -5 -16 -15 -27 -21 -21 -11 -21 -11 1 20 20 28 26 31 58 25 28 -5 34 -4 31
7 -3 8 4 24 15 36 27 30 17 39 -16 13 -14 -11 -31 -20 -37 -20 -17 0 -70 33
-70 44 0 5 16 29 36 52 40 49 40 55 0 21 -29 -25 -94 -52 -103 -43 -4 3 1 14
9 23 30 35 29 47 -1 16 -37 -40 -58 -43 -34 -5 l17 27 -25 -23 c-44 -39 -40
-13 12 84 28 52 49 94 47 94 -3 0 -22 -26 -43 -57 -22 -32 -50 -71 -62 -86
-21 -27 -23 -27 -23 -7 0 12 5 31 11 42 6 11 7 18 1 14 -5 -3 -15 -19 -22 -36
-7 -16 -16 -30 -21 -30 -9 0 25 86 43 107 6 8 8 16 5 19 -6 7 -52 -63 -69
-104 -6 -16 -12 -22 -15 -14 -4 10 -10 10 -28 -2 -18 -12 -25 -13 -33 -3 -7 8
2 40 29 101 21 50 37 91 35 93 -1 1 -13 -16 -27 -40z m-152 -505 c10 -6 10
-12 -2 -28 -22 -30 -18 -34 19 -19 23 10 37 11 41 5 4 -6 11 -7 17 -4 6 4 8
-1 3 -16 -5 -15 -4 -20 4 -16 18 12 -9 -51 -34 -78 -27 -30 -47 -33 -69 -11
-22 22 -31 82 -16 100 11 13 10 14 -3 10 -23 -10 -31 13 -13 40 17 26 32 30
53 17z m-681 -67 c-29 -31 -33 -45 -13 -45 6 -1 -10 -12 -36 -26 -26 -14 -52
-22 -57 -19 -5 3 -7 -1 -4 -9 5 -12 11 -13 32 -3 15 6 34 17 43 24 8 7 21 13
29 13 7 0 1 -9 -13 -20 -14 -11 -30 -20 -36 -20 -29 0 -95 -45 -169 -115 -44
-41 -83 -75 -86 -75 -13 0 -5 17 23 48 17 17 25 32 18 32 -18 0 158 160 227
206 33 23 62 41 64 39 2 -2 -8 -15 -22 -30z m193 -77 c-17 -10 -34 -16 -38
-12 -3 4 -1 8 4 11 23 8 39 22 33 29 -11 10 -52 -20 -105 -76 -26 -28 -52 -50
-58 -50 -5 0 -3 4 5 10 8 5 12 12 9 15 -4 3 -30 -11 -60 -31 -35 -24 -47 -29
-34 -15 11 12 32 30 47 39 16 9 28 20 28 25 0 14 -104 -49 -172 -103 -62 -50
-88 -61 -88 -37 0 27 158 157 191 157 7 0 26 11 43 24 17 13 42 27 56 31 24 8
24 7 -5 -17 -16 -13 -46 -31 -65 -38 -65 -26 -180 -111 -180 -132 0 -5 21 8
48 29 61 49 74 57 150 94 35 16 67 27 72 24 5 -3 19 3 32 14 70 60 71 60 96
43 l23 -15 -32 -19z m230 -222 c18 -14 10 -385 -10 -431 -14 -33 -15 -21 -33
285 -4 63 -9 128 -12 143 -6 27 -4 28 17 22 13 -4 30 -12 38 -19z"/>
<path d="M9551 3680 c0 -42 -10 -107 -20 -145 -11 -38 -17 -73 -15 -77 3 -4 0
-8 -6 -8 -7 0 -10 -7 -6 -15 3 -8 1 -15 -4 -15 -6 0 -10 -9 -10 -19 0 -11 -4
-22 -9 -25 -5 -3 -12 -23 -15 -43 -5 -29 -20 -50 -64 -90 -45 -42 -53 -52 -36
-53 11 0 45 18 74 40 29 22 62 40 71 40 10 0 21 5 24 10 3 6 15 10 25 10 10 0
26 7 35 17 10 9 20 12 23 7 4 -5 48 -31 99 -57 89 -45 133 -58 133 -37 0 6 -9
10 -21 10 -25 0 -53 14 -100 51 -20 16 -44 29 -53 29 -9 0 -19 8 -22 18 -3 9
-10 28 -16 42 l-10 25 -9 -24 c-7 -18 -13 -21 -21 -13 -6 6 -17 8 -25 5 -13
-5 -14 1 -9 33 10 66 9 256 -2 309 l-10 50 -1 -75z"/>
<path d="M9450 3496 c-5 -15 -10 -32 -10 -37 0 -6 -4 -8 -9 -5 -5 3 -29 -18
-54 -47 -37 -43 -68 -65 -164 -114 -65 -34 -151 -73 -191 -86 -74 -25 -97 -37
-70 -37 20 0 101 29 223 80 73 30 109 40 133 36 17 -2 32 -1 32 4 0 5 25 46
56 91 56 83 79 127 70 137 -3 3 -10 -7 -16 -22z"/>
<path d="M12463 7933 c-95 -2 -173 -7 -173 -11 0 -4 10 -8 23 -8 12 -1 72 -7
132 -14 138 -16 373 -9 386 11 17 27 8 29 -93 27 -57 -1 -181 -4 -275 -5z"/>
<path d="M12645 7221 c-71 -18 -165 -59 -220 -94 -16 -10 -22 -17 -12 -13 29
9 19 -1 -30 -35 -27 -18 -61 -44 -78 -58 -32 -29 -21 -8 24 43 21 23 22 27 6
18 -45 -23 -154 -158 -206 -255 -93 -173 -123 -297 -122 -507 1 -110 5 -148
23 -205 13 -38 23 -81 24 -95 2 -24 27 -78 111 -235 21 -38 57 -106 80 -150
45 -86 134 -251 264 -492 l83 -153 -16 -102 c-9 -56 -23 -109 -31 -118 -11
-12 -12 -19 -4 -27 9 -9 7 -33 -5 -94 -11 -57 -13 -86 -6 -93 5 -5 10 -21 10
-35 0 -25 0 -25 15 -4 13 19 25 21 102 22 49 0 110 4 137 7 47 7 48 6 37 -14
-11 -20 -9 -21 22 -20 39 1 60 -9 51 -24 -5 -8 4 -9 28 -5 21 3 41 1 48 -6 10
-9 12 -8 7 4 -4 13 2 17 32 17 20 0 57 7 81 16 38 13 45 13 54 1 13 -17 26
-19 119 -17 87 2 88 17 1 18 -51 1 -69 5 -76 17 -5 10 -16 17 -23 17 -8 0 -15
5 -15 10 0 6 14 10 31 10 23 0 30 -4 26 -14 -7 -18 21 -25 103 -27 36 -1 57
-3 48 -6 -29 -7 -20 -24 10 -19 15 2 60 5 100 5 46 1 71 5 67 11 -3 6 -39 10
-78 10 -78 0 -117 13 -82 26 11 5 44 8 72 9 29 0 53 2 53 5 0 3 24 5 52 4 35
-1 40 0 16 3 -21 2 -38 8 -38 12 0 10 -115 13 -155 4 l-30 -7 35 -7 35 -6 -32
-2 c-17 0 -35 4 -38 10 -4 6 -19 10 -33 9 -50 -4 -71 0 -85 14 -8 9 -22 65
-32 133 -10 65 -24 147 -31 183 l-13 65 49 100 c27 55 80 160 117 232 38 73
82 163 100 200 65 138 163 354 163 359 0 3 6 20 14 37 91 201 135 392 122 525
-14 158 -84 342 -182 478 -56 79 -177 190 -223 205 -48 16 -106 45 -124 63 -8
8 -53 24 -100 35 -113 28 -347 28 -452 2z m469 -60 c141 -41 266 -104 266
-134 0 -7 -21 -17 -47 -23 -41 -10 -51 -9 -86 10 -22 12 -61 39 -86 61 -77 67
-90 71 -21 7 36 -34 80 -69 98 -79 17 -10 32 -20 32 -23 0 -3 -80 -27 -178
-54 -210 -58 -320 -94 -422 -136 l-75 -31 -20 27 c-20 27 -146 177 -171 204
-12 13 -14 13 -14 0 0 -8 17 -33 38 -55 53 -56 142 -168 142 -178 0 -5 -7 -6
-16 -3 -14 5 -15 4 -5 -8 10 -12 5 -27 -26 -79 -35 -57 -106 -252 -133 -364
-10 -38 -24 -53 -147 -153 -79 -63 -140 -107 -145 -102 -5 5 -10 26 -11 46 -1
20 -5 36 -8 36 -14 0 -30 106 -28 195 3 153 75 379 171 538 45 74 60 81 105
44 15 -13 53 -40 83 -62 30 -21 71 -50 90 -64 l35 -25 -24 26 c-20 23 -160
128 -211 159 -13 7 -11 13 12 31 142 121 316 199 483 218 110 13 202 5 319
-29z m346 -211 c19 -22 35 -44 35 -48 2 -22 18 -51 31 -56 9 -3 12 -11 8 -17
-4 -7 -3 -9 3 -6 12 7 48 -41 39 -51 -3 -3 -6 0 -6 6 0 7 -6 12 -12 12 -7 0 2
-13 20 -29 33 -31 39 -41 22 -41 -5 0 -10 7 -10 15 0 8 -4 15 -10 15 -13 0
-13 -3 6 -50 9 -22 25 -45 34 -50 37 -20 49 -141 39 -392 -5 -120 -17 -139
-59 -89 -35 41 -130 230 -168 336 -16 44 -62 160 -102 258 -39 98 -69 181 -67
184 9 8 121 42 142 42 12 1 35 -16 55 -39z m-240 -27 c0 -10 -7 -85 -15 -168
-8 -82 -15 -176 -15 -207 0 -32 -3 -58 -8 -58 -4 0 -22 24 -40 54 -89 150
-250 211 -413 156 -111 -38 -170 -88 -205 -174 -11 -25 -22 -46 -25 -46 -9 0
2 49 12 56 5 3 9 16 9 28 0 13 6 29 14 35 7 6 16 24 19 39 15 74 72 106 332
192 88 29 194 65 235 80 89 34 100 35 100 13z m94 -196 c30 -73 73 -181 96
-241 22 -60 61 -147 86 -194 25 -46 44 -85 42 -87 -2 -2 -63 36 -136 85 -73
49 -149 95 -168 102 -35 13 -36 13 -31 63 3 27 11 137 18 243 11 156 15 190
25 177 7 -9 37 -76 68 -148z m-338 -91 c53 -25 112 -85 147 -151 32 -60 31
-193 -2 -255 -37 -70 -61 -97 -116 -134 -62 -41 -125 -60 -168 -50 -83 17
-183 96 -208 162 -25 63 -30 142 -15 203 53 207 202 299 362 225z m-480 -193
c-11 -39 -6 -151 10 -213 56 -214 275 -315 466 -215 57 30 70 27 38 -7 -32
-33 -148 -218 -137 -218 3 0 36 46 76 103 39 56 102 139 140 185 77 93 112
170 114 251 1 28 5 51 9 51 10 0 102 -55 168 -100 30 -21 88 -58 128 -84 39
-25 72 -51 72 -58 0 -7 -98 -62 -218 -122 -119 -60 -287 -152 -374 -203 -86
-51 -161 -93 -167 -93 -5 0 -31 33 -57 73 -25 39 -74 102 -108 138 -88 96 -92
102 -78 107 8 2 -1 20 -25 47 -93 107 -127 164 -88 149 8 -4 15 -1 15 5 0 6
-4 11 -8 11 -4 0 -6 30 -4 68 4 68 18 142 28 142 3 0 3 -8 0 -17z m-33 -300
c28 -42 66 -97 84 -122 18 -25 65 -85 105 -133 116 -138 127 -154 103 -144
-11 4 -42 16 -70 26 -51 18 -333 154 -305 147 65 -17 66 -17 35 -2 -16 7 -37
12 -47 9 -12 -4 -222 77 -236 91 -3 3 71 60 198 154 33 25 60 49 60 54 0 17
22 -7 73 -80z m1149 -75 c-5 -7 -25 -49 -44 -93 -79 -181 -80 -183 -97 -178
-13 4 -13 3 -2 -5 14 -10 6 -26 -173 -377 -14 -27 -59 -122 -101 -210 -73
-152 -128 -252 -148 -266 -5 -4 -7 -11 -3 -17 6 -9 -43 -84 -63 -97 -6 -3 -11
-12 -11 -19 0 -8 -8 -31 -17 -52 -9 -22 -16 -43 -15 -47 1 -4 -5 -10 -13 -13
-8 -4 -15 -10 -15 -16 0 -5 5 -6 11 -2 6 3 4 -8 -5 -24 -17 -32 -36 -50 -36
-33 0 5 7 16 15 24 11 11 11 17 3 19 -9 3 -13 68 -15 239 -1 129 -5 248 -9
266 -7 34 28 120 71 178 13 17 30 46 39 65 l17 35 -30 -35 c-17 -19 -36 -47
-43 -62 -7 -16 -18 -28 -24 -28 -6 0 -14 -15 -18 -32 -11 -55 -27 -12 -25 68
1 39 0 75 -3 80 -3 5 -2 31 2 57 4 26 4 50 -1 52 -12 8 -8 127 5 139 13 13 91
65 121 82 11 6 67 37 125 70 146 83 247 130 299 140 16 4 38 15 47 25 9 11 23
19 31 19 7 0 13 3 13 8 0 8 49 32 67 32 7 0 13 5 13 10 0 6 10 10 21 10 16 0
19 -3 11 -12z m-1230 -189 c90 -40 213 -93 273 -119 176 -75 160 -63 161 -128
0 -31 8 -199 17 -372 20 -357 25 -556 15 -566 -4 -3 -1 -13 7 -21 16 -15 20
-33 8 -33 -13 0 -54 70 -47 81 3 6 -6 28 -20 49 -14 22 -26 42 -26 45 0 4 -17
32 -38 63 -21 31 -42 64 -45 72 -4 8 -11 22 -17 30 -5 8 -47 80 -91 160 -93
165 -180 318 -231 405 -44 76 -228 436 -228 447 0 5 22 -3 50 -17 27 -14 123
-57 212 -96z"/>
<path d="M11695 5843 c-4 -10 -12 -47 -19 -83 -7 -36 -33 -150 -57 -253 -37
-161 -41 -190 -29 -197 13 -8 12 -10 -2 -10 -10 0 -18 -3 -18 -7 -1 -58 -38
-275 -66 -386 -19 -78 -47 -187 -60 -242 -13 -55 -28 -113 -33 -130 -6 -16
-20 -77 -31 -135 -12 -58 -41 -186 -64 -285 -24 -99 -55 -234 -69 -300 -15
-66 -40 -174 -56 -240 -58 -233 -75 -328 -76 -425 -1 -98 -18 -180 -37 -180
-7 0 -6 -5 2 -15 16 -19 30 -10 30 18 1 12 7 33 14 46 13 24 14 24 21 -20 4
-24 14 -56 21 -71 8 -15 14 -36 14 -47 0 -30 39 -100 64 -113 19 -10 61 -11
121 -3 11 1 63 3 115 4 65 1 90 4 80 11 -10 7 19 10 93 10 65 0 107 -4 107
-10 0 -7 78 -8 225 -4 209 6 225 5 232 -11 6 -16 7 -16 15 4 7 19 13 21 42 16
20 -4 36 -2 40 4 5 7 -4 11 -24 11 -30 0 -31 1 -24 38 4 20 11 45 15 54 5 9 9
25 9 36 0 18 7 19 98 16 53 -2 123 -9 155 -15 69 -14 315 -7 343 10 15 8 -9
10 -103 7 -68 -2 -125 0 -129 5 -3 5 17 9 45 9 27 0 53 5 56 10 4 7 -17 9 -62
5 -74 -5 -173 -7 -300 -6 -80 1 -83 2 -83 24 0 13 2 26 5 29 3 3 38 -1 78 -9
101 -20 298 -13 767 27 90 8 -96 5 -320 -6 -102 -4 -348 -4 -383 1 -73 9 -26
15 129 16 93 0 203 1 244 1 41 0 83 4 95 8 16 7 -463 17 -498 11 -5 -1 -6 3
-2 9 3 5 19 10 36 10 32 0 40 16 12 23 -11 3 -8 5 9 6 20 1 26 -3 22 -14 -5
-12 6 -15 65 -15 51 0 70 3 69 13 -2 7 6 11 17 10 47 -4 90 -5 259 -4 99 1
177 3 175 6 -6 5 -177 13 -457 20 -163 4 -212 3 -206 -6 9 -15 -21 -38 -44
-34 -9 1 -11 0 -4 -2 22 -8 13 -26 -10 -19 -13 3 -27 6 -31 6 -5 0 -6 4 -3 9
4 5 8 31 11 58 9 92 18 138 28 151 5 7 7 15 4 18 -2 3 1 28 8 56 8 28 17 87
21 132 3 44 10 86 14 91 5 6 16 49 25 96 l17 87 42 -3 c22 -2 175 -4 339 -4
l297 -1 0 -24 c0 -32 20 -86 32 -86 5 0 3 -7 -6 -15 -13 -13 -13 -20 -3 -43 6
-15 17 -33 24 -40 17 -17 17 -39 1 -45 -10 -3 -10 -7 0 -19 9 -11 9 -17 2 -20
-7 -2 -8 -11 -4 -22 7 -19 8 -19 16 0 4 11 5 0 2 -27 -3 -27 1 -71 10 -110 9
-35 20 -94 25 -131 10 -75 11 -76 59 -135 24 -30 32 -48 27 -63 -3 -11 -2 -20
4 -20 5 0 29 -20 53 -45 24 -24 46 -45 49 -45 4 0 3 15 -1 34 -8 38 -36 83
-85 136 -41 45 -80 110 -66 110 6 0 11 -7 11 -15 0 -8 8 -15 18 -15 13 0 17 8
16 34 -1 19 -5 39 -9 45 -3 6 -2 11 3 11 10 0 30 -38 31 -60 3 -44 15 -97 27
-115 17 -23 17 -18 0 60 -13 60 -11 95 5 95 4 0 11 -21 14 -47 4 -27 15 -81
26 -121 10 -40 19 -83 19 -95 0 -13 3 -26 6 -30 4 -3 7 -25 8 -47 2 -39 1 -41
-21 -37 -13 2 -26 0 -29 -4 -3 -5 11 -9 30 -9 19 0 38 -4 41 -10 4 -6 78 -8
203 -5 281 8 833 -5 837 -19 2 -6 14 -44 26 -84 12 -40 25 -75 29 -77 9 -6
-13 91 -23 101 -4 4 -7 26 -7 49 0 23 -4 55 -9 71 -5 16 -24 90 -41 164 -18
74 -43 173 -56 220 -13 47 -35 141 -48 210 -20 107 -56 269 -110 500 -7 30 -9
56 -5 58 5 2 5 12 -1 21 -5 10 -7 21 -4 24 3 3 -2 16 -11 30 -13 20 -13 26 -3
30 9 4 8 6 -3 6 -16 1 -35 58 -24 69 3 3 5 0 5 -6 0 -7 5 -12 12 -12 6 0 4 7
-6 18 -28 32 -68 212 -46 212 7 0 5 6 -4 16 -9 8 -16 25 -16 37 0 18 2 19 10
7 11 -17 13 -1 4 25 -5 13 -8 14 -15 3 -7 -10 -9 -9 -9 4 0 9 5 18 11 20 9 3
8 11 -2 28 -7 14 -12 29 -11 34 2 5 -5 34 -15 65 -9 30 -17 73 -18 93 0 21 -4
38 -8 38 -5 0 -6 4 -2 9 3 5 1 12 -4 16 -6 3 -8 12 -4 20 3 8 0 15 -7 15 -6 0
-8 5 -5 10 4 6 1 17 -5 25 -7 8 -10 21 -7 29 3 8 2 16 -3 18 -7 3 -11 20 -24
98 -1 9 -5 20 -8 25 -3 6 -9 33 -12 60 -9 69 -31 164 -78 340 -23 83 -49 182
-59 220 -46 182 -54 204 -69 195 -13 -9 -13 -10 -1 -10 11 0 12 -3 5 -10 -13
-13 -7 -89 7 -107 6 -6 10 -30 11 -52 0 -23 4 -41 8 -41 5 0 8 -22 8 -49 1
-29 8 -61 17 -75 9 -14 14 -30 10 -35 -3 -6 1 -24 10 -42 9 -17 14 -33 11 -37
-3 -3 -2 -10 3 -16 5 -6 12 -31 15 -56 3 -25 13 -70 22 -100 20 -70 44 -176
49 -215 2 -16 8 -46 14 -65 13 -42 13 -40 2 -40 -5 0 -14 12 -20 28 -10 25
-11 24 -5 -12 8 -54 21 -86 36 -86 10 0 10 -2 1 -8 -10 -6 -10 -23 1 -78 27
-132 39 -179 53 -200 9 -14 11 -32 7 -49 -5 -18 -3 -26 3 -22 10 6 15 -8 26
-73 2 -9 7 -21 11 -28 4 -7 6 -16 3 -18 -3 -3 5 -45 19 -92 13 -48 32 -132 43
-187 33 -165 62 -298 66 -305 2 -3 15 -59 29 -125 15 -66 40 -176 56 -245 16
-69 44 -186 60 -260 28 -123 57 -226 75 -272 7 -17 -14 -18 -336 -18 -189 -1
-373 -1 -409 -2 -36 0 -104 0 -151 1 l-86 1 -22 117 c-12 65 -29 151 -37 192
-7 40 -14 90 -14 111 0 22 -5 42 -10 45 -6 4 -8 11 -4 16 6 11 0 49 -47 296
-16 84 -29 168 -29 187 0 39 -14 53 -34 37 -10 -8 -53 -8 -152 -1 -77 5 -170
10 -207 10 -43 0 -66 4 -62 10 3 6 2 10 -4 10 -5 0 -13 -5 -16 -10 -5 -8 -12
-7 -23 2 -13 11 -15 10 -9 -4 3 -10 2 -18 -3 -18 -6 0 -10 4 -10 9 0 15 -66
22 -130 15 -69 -8 -82 -21 -15 -16 28 3 45 0 45 -7 0 -15 -93 -14 -107 0 -9 9
-20 9 -40 1 -45 -17 -131 -23 -137 -9 -2 7 -5 4 -5 -5 -1 -10 -6 -18 -11 -18
-6 0 -9 -3 -8 -7 0 -5 -2 -15 -5 -23 -3 -8 -18 -58 -33 -110 -15 -52 -37 -123
-50 -157 -13 -34 -42 -138 -65 -230 -22 -92 -43 -176 -45 -185 -3 -10 -2 -18
3 -18 5 0 21 53 37 118 16 64 34 122 39 127 6 6 7 3 3 -10 -3 -11 -8 -40 -11
-64 -3 -24 -8 -48 -12 -54 -3 -6 -8 -26 -10 -46 -2 -20 -10 -58 -18 -86 -7
-27 -13 -57 -12 -66 0 -9 -6 -50 -13 -93 l-13 -76 -66 0 c-81 0 -241 18 -255
28 -6 4 -152 7 -323 6 -172 -1 -313 1 -313 4 0 2 14 61 31 131 17 69 37 153
44 186 7 33 19 87 28 120 29 118 58 241 61 265 2 14 6 32 9 40 16 42 36 142
31 155 -4 9 -1 15 7 15 9 0 10 3 2 11 -7 7 -8 22 -2 42 4 18 13 59 19 92 15
78 70 316 77 335 4 8 7 39 9 69 3 57 13 83 15 35 l1 -29 15 35 c8 19 17 45 19
58 2 12 6 32 8 45 3 12 7 33 9 47 2 14 10 44 16 68 9 34 9 47 0 58 -9 11 -9
14 0 14 7 0 10 4 7 9 -4 5 -1 11 5 13 6 2 12 25 13 51 0 26 4 47 7 47 4 0 5
14 3 30 -3 22 1 30 12 30 13 0 14 3 4 15 -10 11 -9 18 4 30 9 9 17 22 17 28 5
48 9 72 15 86 4 9 8 23 9 32 5 44 27 156 35 174 4 11 16 56 25 100 10 44 28
127 41 185 28 121 29 131 38 225 4 39 14 83 22 99 17 35 17 36 1 36 -19 0 -65
-181 -148 -580 -12 -58 -37 -166 -56 -240 -20 -74 -40 -157 -45 -185 -6 -27
-15 -54 -21 -60 -7 -7 -8 -4 -4 7 3 10 2 20 -3 23 -6 4 -11 3 -11 -2 -7 -42
-5 -53 10 -53 9 -1 3 -7 -14 -16 -22 -11 -24 -13 -7 -10 12 2 22 0 22 -5 0 -5
-8 -9 -18 -9 -15 0 -19 -8 -20 -35 -1 -20 -5 -41 -8 -47 -5 -8 -1 -9 9 -5 10
3 17 2 17 -2 0 -5 -7 -11 -15 -15 -8 -3 -12 -12 -9 -21 3 -8 2 -15 -4 -15 -6
0 -8 -9 -5 -19 6 -25 -16 -131 -27 -131 -5 0 -7 20 -5 45 3 26 1 45 -5 45 -6
0 -10 -5 -10 -11 0 -5 -4 -8 -9 -5 -9 6 -1 161 9 161 3 0 11 50 17 109 4 40 2
57 -5 52 -6 -3 -11 -23 -10 -44 0 -20 -7 -71 -16 -112 -9 -41 -15 -109 -15
-150 1 -90 -6 -156 -26 -253 -8 -39 -15 -76 -15 -80 0 -5 -4 -6 -9 -3 -5 3 0
46 10 95 25 123 30 289 9 301 -11 7 -12 9 -1 10 7 0 11 6 7 15 -3 8 -2 15 2
15 4 0 7 10 8 23 4 89 40 230 57 220 5 -3 7 0 5 8 -3 8 1 19 9 24 7 6 15 30
18 54 3 24 8 48 12 54 3 6 1 7 -5 3 -8 -4 -12 0 -12 11 0 28 26 169 49 263 11
47 25 112 31 145 5 33 12 70 14 82 3 11 8 43 11 70 4 26 13 74 21 107 25 98
24 232 -1 169z"/>
<path d="M6322 3110 c-31 -13 -114 -112 -128 -152 -4 -10 -10 -18 -14 -18 -5
0 -6 -9 -3 -20 4 -16 0 -20 -17 -20 -13 0 -20 -5 -18 -12 3 -8 21 -12 49 -11
43 2 43 2 12 -8 -54 -16 -53 -33 2 -26 54 8 66 14 46 26 -8 6 -3 10 18 14 18
4 31 13 31 22 0 8 5 15 10 15 6 0 10 -6 10 -12 0 -10 2 -10 8 -1 10 15 125 18
170 4 17 -5 43 -8 57 -5 27 5 35 -10 10 -20 -8 -3 -15 -11 -15 -17 0 -7 10 -3
23 9 19 18 36 22 88 23 94 2 26 16 -88 18 -48 1 -90 6 -93 12 -4 5 -59 8 -133
5 -70 -2 -129 0 -132 4 -9 15 41 20 263 26 231 7 282 23 85 26 -128 2 -95 15
42 17 62 1 85 4 75 11 -8 5 -48 10 -87 10 -42 0 -73 4 -73 10 0 10 35 14 105
11 35 -1 37 0 21 10 -13 8 -67 12 -158 11 -85 -1 -136 3 -133 9 4 5 39 9 78
10 40 0 92 4 117 8 l45 8 -51 2 c-28 0 -84 3 -125 6 -41 3 -84 1 -97 -5z"/>
<path d="M15927 2883 c-26 -7 -16 -25 19 -36 16 -5 155 -11 309 -12 154 -2
270 -1 258 2 -13 2 -23 8 -23 13 0 12 -56 18 -74 8 -9 -5 -24 -4 -36 2 -11 6
-20 7 -20 2 0 -5 -21 -10 -47 -10 -35 0 -43 2 -28 8 19 8 19 9 -2 9 -13 1 -23
-3 -23 -9 0 -5 -5 -10 -11 -10 -5 0 -7 5 -4 10 8 13 -1 13 -24 -2 -15 -9 -25
-9 -46 0 -14 7 -35 12 -45 12 -11 0 -20 5 -20 10 0 10 -147 12 -183 3z"/>
<path d="M12617 2873 c-5 -9 -28 -12 -65 -11 -100 4 -242 -4 -242 -13 0 -5 14
-9 30 -9 17 0 30 -5 30 -11 0 -12 407 -6 518 7 57 7 64 14 29 30 -18 8 -26 7
-36 -3 -19 -20 -217 -17 -200 3 9 11 8 14 -4 14 -8 0 -17 -7 -21 -15 -7 -20
-24 -19 -28 3 -3 12 -6 14 -11 5z"/>
</g>
</svg>
