<?xml version="1.0" standalone="no"?>
<!DOCTYPE svg PUBLIC "-//W3C//DTD SVG 20010904//EN"
 "http://www.w3.org/TR/2001/REC-SVG-20010904/DTD/svg10.dtd">
<svg version="1.0" xmlns="http://www.w3.org/2000/svg"
 width="1928.000000pt" height="1074.000000pt" viewBox="0 0 1928.000000 1074.000000"
 preserveAspectRatio="xMidYMid meet">
<metadata>
Created by potrace 1.16, written by Peter Selinger 2001-2019
</metadata>
<g transform="translate(0.000000,1074.000000) scale(0.100000,-0.100000)"
fill="#000000" stroke="none">
<path d="M14575 7984 c20 -26 28 -49 28 -78 2 -186 -14 -1188 -19 -1215 -6
-34 11 -91 27 -91 5 0 10 10 10 23 4 64 7 99 14 167 4 41 7 82 7 90 -1 8 -1
33 -1 55 1 89 4 125 12 125 5 0 5 5 2 10 -4 6 -8 142 -10 303 -1 161 -6 320
-10 355 -10 83 6 82 64 -3 24 -36 47 -65 51 -65 4 0 13 -12 20 -27 10 -20 15
-78 16 -203 2 -222 2 -230 12 -230 4 0 8 93 9 208 2 234 10 205 -94 334 l-66
83 108 -107 c87 -85 106 -110 100 -125 -5 -10 -7 -22 -6 -27 1 -5 2 -151 1
-325 -1 -174 -3 -980 -5 -1791 -3 -849 -9 -1476 -14 -1478 -5 -2 -5 -18 -1
-38 6 -27 5 -37 -6 -41 -16 -6 -19 -33 -4 -33 14 0 13 -67 -1 -76 -8 -4 -7 -9
2 -16 11 -7 11 -11 2 -15 -17 -6 -17 -40 -1 -45 10 -4 9 -9 -3 -20 -13 -14
-15 -9 -17 46 -1 33 -5 69 -8 80 -5 14 -3 16 7 11 8 -5 5 1 -5 13 -11 12 -20
22 -22 22 -2 0 -1 -37 2 -82 2 -46 1 -113 -4 -151 -5 -37 -7 -69 -4 -71 8 -8
7 -306 0 -306 -5 0 -8 12 -9 28 0 15 -2 52 -4 82 -2 30 -6 115 -10 189 -3 73
-8 138 -12 144 -3 6 -1 7 5 3 12 -7 11 32 -2 52 -4 7 -2 12 5 12 8 0 8 4 -2
16 -10 12 -10 17 0 23 10 6 9 10 -3 14 -19 8 -21 57 -3 76 10 11 10 14 0 18
-7 3 -13 11 -13 19 0 9 4 13 9 9 5 -3 12 -1 15 4 3 5 -1 11 -9 15 -8 3 -15 17
-15 31 0 14 -4 25 -9 25 -13 0 1 -499 15 -522 3 -4 1 -8 -5 -8 -13 0 -19 39
-26 185 -4 66 -9 147 -12 180 -3 33 -5 121 -5 195 1 74 2 164 1 200 0 36 0 76
1 90 1 14 2 30 3 37 0 7 4 10 9 7 16 -10 8 19 -9 31 -15 11 -14 12 12 8 17 -2
26 -1 20 4 -32 26 -54 109 -37 138 11 18 11 58 0 78 -7 15 -7 22 3 28 9 6 10
9 2 9 -8 0 -11 20 -10 60 1 33 5 60 10 60 5 0 4 6 -2 14 -9 11 -9 15 1 20 10
5 10 7 1 12 -9 4 -10 11 -3 25 9 15 7 19 -5 19 -10 0 -13 -5 -9 -11 4 -7 1
-10 -7 -7 -16 5 -19 30 -5 40 6 4 17 1 25 -5 11 -10 13 -9 9 3 -2 8 -13 15
-24 15 -14 0 -20 9 -24 35 -7 45 0 91 11 84 5 -3 8 16 8 43 l-2 48 -7 -40 c-4
-22 -8 -31 -10 -20 -4 31 -10 308 -16 805 -3 250 -8 457 -10 459 -2 3 -10 -1
-16 -7 -9 -9 -12 -232 -11 -884 0 -620 -3 -875 -11 -880 -8 -6 -8 -10 0 -15 8
-6 12 -146 13 -488 0 -264 2 -575 3 -692 3 -199 2 -212 -16 -217 -20 -5 -13
-26 8 -26 8 0 21 -11 29 -24 15 -22 15 -25 -1 -31 -16 -6 -16 -7 0 -16 10 -5
15 -16 12 -24 -4 -8 -1 -15 5 -15 20 0 112 -94 106 -108 -3 -10 0 -12 10 -8
38 14 105 -115 105 -204 0 -33 4 -60 9 -60 6 0 10 17 9 38 0 20 5 55 11 77
l10 40 157 -3 c143 -3 155 -4 142 -19 -7 -10 -8 -14 -1 -10 6 4 91 10 190 13
98 3 182 9 188 12 5 3 54 8 107 10 l98 4 0 -76 c0 -45 4 -76 10 -76 7 0 10 28
8 72 l-3 73 58 3 c31 2 57 7 57 12 0 6 -7 10 -15 10 -8 0 -23 9 -32 20 -21 24
-33 26 -33 5 0 -9 -9 -15 -22 -15 -17 0 -19 3 -10 12 7 7 12 42 12 85 l0 73
43 0 c23 0 98 -7 167 -15 149 -18 153 -18 145 -5 -3 6 -27 10 -53 10 -26 0
-65 5 -87 11 -22 6 -78 12 -125 13 -81 1 -85 2 -88 24 -3 22 -1 23 26 17 16
-3 61 -7 101 -7 39 -1 66 -5 59 -9 -7 -4 -10 -11 -6 -14 3 -4 100 -9 214 -11
115 -3 226 -9 247 -14 32 -7 38 -6 33 7 -3 8 -6 20 -6 25 0 6 -3 8 -7 5 -3 -4
-16 -1 -27 6 -33 22 -75 26 -311 32 -121 3 -244 8 -272 11 l-53 5 1 532 c0
293 -3 661 -7 820 -4 158 -4 287 -1 287 3 0 13 -24 22 -52 21 -66 91 -240 116
-290 11 -21 19 -44 19 -53 0 -9 11 -41 25 -72 14 -30 53 -130 86 -222 33 -91
85 -231 115 -311 31 -80 62 -170 69 -200 7 -30 24 -80 38 -110 37 -82 99 -252
94 -257 -3 -2 -24 15 -47 39 -42 42 -47 35 -6 -10 16 -19 18 -25 7 -31 -9 -6
0 -11 28 -16 32 -5 45 -13 56 -36 9 -16 29 -38 45 -50 16 -12 27 -26 24 -31
-3 -5 -1 -7 4 -6 5 2 43 -27 83 -63 41 -36 89 -78 107 -94 17 -15 32 -32 32
-37 0 -4 -27 -8 -60 -8 -33 0 -60 -4 -60 -10 0 -11 9 -12 95 -14 l60 -1 35
-72 c38 -79 74 -126 47 -63 -8 19 -23 52 -32 72 -35 72 7 64 61 -12 20 -27 40
-50 46 -50 10 0 -22 50 -47 70 -36 30 -15 32 183 24 108 -4 221 -7 250 -6 l52
2 0 -60 c0 -33 4 -60 10 -60 6 0 10 27 10 60 l0 60 38 0 c20 0 46 7 56 15 13
10 44 15 88 15 l68 0 0 -84 c0 -47 5 -88 10 -91 6 -4 10 27 10 84 l0 91 38 2
c20 1 54 0 75 -1 21 -1 37 2 37 8 0 6 -10 11 -22 12 -13 1 -30 2 -38 3 -8 2
-30 3 -48 4 l-33 2 6 53 c10 93 15 1026 5 1032 -6 4 -11 -27 -11 -77 -2 -64
-3 -74 -9 -43 -10 65 -1 368 12 376 8 5 9 12 1 21 -12 16 -14 163 -3 193 4 11
11 54 15 94 11 110 13 744 3 926 -9 166 -19 891 -15 1075 3 141 2 642 -1 920
l-3 225 30 -1 c17 -1 31 3 31 7 0 5 -12 9 -26 9 -17 0 -28 6 -31 19 -2 10 -16
24 -29 30 -14 6 -44 28 -66 48 -23 21 -72 65 -108 98 -72 65 -182 147 -188
140 -3 -2 -1 -12 3 -22 5 -10 9 -20 9 -23 2 -10 113 -108 156 -137 25 -17 63
-49 84 -72 22 -22 43 -38 47 -35 11 7 49 -14 49 -27 0 -5 -11 -2 -25 7 -14 9
-25 12 -25 8 0 -5 -48 -6 -112 -1 -110 8 -452 3 -689 -9 l-117 -6 -43 54 c-24
30 -78 85 -120 124 -42 38 -79 74 -82 79 -3 7 121 9 382 7 288 -3 396 0 424 9
20 7 37 16 37 21 0 7 -91 14 -162 11 -16 -1 -28 3 -28 7 0 4 -33 6 -72 5 -191
-8 -558 -19 -596 -18 -45 2 -64 -15 -44 -40 6 -8 6 -41 0 -92 -11 -96 -14
-339 -10 -899 1 -230 0 -421 -3 -424 -3 -3 0 -11 6 -19 9 -10 7 -13 -6 -13
-16 0 -17 -7 -12 -57 7 -71 -3 -57 -39 52 -15 44 -47 127 -71 185 -25 58 -63
159 -85 224 -22 65 -69 187 -105 270 -36 83 -74 174 -84 201 -34 94 -99 249
-109 259 -19 19 -11 38 12 30 20 -6 21 -5 9 10 -7 9 -21 16 -31 16 -10 0 -33
21 -51 46 -19 25 -47 61 -62 80 -16 18 -26 38 -22 44 4 6 3 9 -2 8 -10 -4 -93
85 -93 99 0 5 -14 22 -31 39 l-31 29 8 -30 c4 -16 23 -55 43 -86 46 -73 172
-219 189 -219 6 0 12 -4 12 -8 0 -11 -708 -3 -742 8 -17 6 -28 5 -28 -1 0 -5
-24 -9 -54 -9 -52 0 -56 2 -94 45 -22 25 -47 61 -56 79 -19 40 -96 140 -102
133 -3 -2 13 -31 34 -63 38 -58 56 -94 47 -94 -3 0 -20 24 -39 53 -19 28 -46
63 -60 76 -29 27 -38 64 -11 41 10 -8 19 -10 25 -4 6 6 58 6 127 2 219 -13
712 -14 702 -2 -13 16 -157 23 -549 29 l-335 5 -30 39 c-16 22 -34 40 -39 41
-4 0 4 -16 19 -36z m2034 -392 c2 -15 3 -34 3 -42 1 -32 -14 -225 -17 -229
-13 -13 -23 20 -29 89 -5 51 -11 78 -18 74 -7 -4 -7 0 -1 12 5 11 8 34 7 52
-1 17 -2 47 -3 66 -1 21 -7 36 -17 40 -14 5 -15 -1 -9 -56 4 -35 11 -64 16
-66 5 -2 9 -8 9 -13 0 -6 -4 -7 -10 -4 -6 4 -10 -10 -10 -35 0 -23 4 -39 9
-36 10 7 25 -99 16 -114 -16 -25 -26 -7 -22 40 3 28 1 50 -3 50 -5 0 -10 -29
-12 -64 -2 -46 0 -62 8 -55 19 16 24 -3 24 -93 0 -64 3 -87 11 -82 8 5 10 34
6 90 -5 82 4 113 24 83 5 -8 8 -95 7 -194 -3 -160 -5 -180 -20 -183 -15 -3
-18 8 -21 80 -4 77 -4 76 -3 -14 1 -53 -1 -95 -5 -92 -19 12 -27 -137 -9 -166
18 -28 29 4 32 90 2 52 7 83 13 80 12 -6 14 -384 3 -396 -14 -13 -16 -1 -21
84 -6 106 -19 121 -16 20 1 -50 -3 -83 -11 -93 -7 -8 -9 -22 -5 -32 8 -19 16
-297 9 -290 -9 8 -15 75 -20 211 -5 135 -23 239 -45 260 -15 15 -2 -84 17
-129 16 -40 18 -59 4 -50 -5 3 -10 17 -10 31 0 15 -6 24 -15 24 -9 0 -15 10
-15 26 0 14 -4 23 -8 20 -4 -2 -8 21 -8 52 0 90 -13 187 -25 191 -8 2 -8 5 0
11 10 6 17 84 11 115 -1 6 -2 15 0 20 1 7 -2 7 -8 0 -14 -14 -23 -75 -11 -75
5 0 9 -4 9 -10 0 -5 -6 -7 -13 -4 -10 4 -12 -3 -9 -26 3 -23 1 -29 -10 -25
-10 4 -13 29 -13 105 0 55 4 100 8 100 5 0 5 5 2 10 -4 6 -8 176 -10 378 -2
202 -4 372 -5 377 -11 51 7 40 118 -69 84 -83 119 -124 121 -144z m-1410 22
c12 -11 -18 -15 -128 -21 -67 -3 -124 -10 -128 -16 -6 -10 151 -4 322 12 94 9
437 26 479 23 10 0 22 -5 26 -9 9 -10 32 -104 27 -110 -3 -2 -19 19 -37 47
-18 28 -35 48 -38 45 -3 -2 12 -31 32 -62 20 -32 59 -103 86 -158 47 -97 186
-429 197 -470 8 -32 87 -240 93 -245 3 -3 6 -12 8 -20 3 -15 17 -49 53 -125
10 -22 44 -116 74 -210 31 -93 77 -220 101 -281 24 -62 45 -120 47 -130 2 -11
7 -26 10 -34 3 -8 11 -33 17 -55 13 -43 58 -159 95 -240 12 -27 35 -79 50
-115 30 -66 77 -144 96 -155 21 -14 20 5 -6 81 -26 75 -27 83 -31 383 -2 168
-6 316 -9 328 -3 12 -1 32 4 44 4 14 4 38 -1 58 -7 25 -6 36 4 42 10 7 10 9 1
9 -7 0 -13 5 -13 11 0 5 3 8 8 6 9 -6 10 44 15 753 3 305 6 565 6 577 1 23 2
23 164 21 89 -1 235 2 323 6 l161 8 6 -33 c6 -40 12 -1508 10 -2319 -2 -1077
-2 -2034 1 -2039 2 -3 7 -100 10 -215 l7 -209 -38 6 c-21 4 -138 7 -260 7
l-223 0 0 25 c0 25 0 25 36 10 20 -8 40 -12 45 -9 12 7 11 34 -1 34 -5 0 -10
-4 -10 -10 0 -6 -9 -6 -22 -1 -13 4 -36 11 -51 15 -26 6 -27 5 -18 -13 17 -31
13 -41 -14 -41 -20 0 -25 5 -25 25 0 14 5 25 10 25 19 0 10 20 -14 31 -14 7
-27 23 -31 36 -7 31 0 40 20 23 8 -7 15 -9 15 -4 0 4 5 3 12 -4 7 -7 22 -12
35 -12 21 0 22 2 11 20 -7 11 -14 16 -16 10 -2 -6 -17 -4 -38 5 -20 8 -41 14
-47 12 -7 -1 -11 6 -11 15 1 10 -2 16 -6 13 -4 -2 -16 24 -28 58 -60 183 -97
284 -108 297 -14 18 -61 133 -99 245 -93 274 -151 423 -169 436 -5 4 -6 11 -2
17 3 5 -1 15 -9 22 -8 7 -15 19 -15 26 0 8 -4 14 -10 14 -5 0 -10 5 -10 10 0
7 6 7 20 0 17 -9 16 -4 -9 47 -16 32 -32 69 -36 83 -4 14 -15 39 -23 55 -9 17
-17 39 -18 51 -2 11 -18 54 -37 95 -53 114 -63 140 -81 199 -10 30 -28 78 -41
105 -13 28 -27 61 -30 75 -7 24 -71 197 -134 360 -43 110 -43 112 -47 154 -3
39 -14 64 -14 33 0 -10 -4 -17 -8 -17 -14 0 -32 23 -32 42 0 10 -7 18 -15 18
-8 0 -15 5 -15 10 0 6 -5 10 -11 10 -5 0 0 -18 12 -40 13 -22 26 -40 31 -40 4
0 8 -7 8 -15 0 -18 -17 -20 -23 -2 -2 6 -7 9 -11 5 -4 -3 0 -18 10 -33 14 -22
16 -40 10 -118 -4 -51 -8 -101 -8 -112 0 -11 1 -324 2 -695 1 -783 -4 -1403
-13 -1417 -3 -5 -2 -25 3 -44 5 -19 10 -54 12 -78 l3 -43 -180 1 c-99 0 -293
1 -431 1 l-252 0 -6 43 c-6 38 -8 667 -6 1970 0 342 3 497 11 497 5 0 8 4 5 8
-9 15 -19 1867 -11 2043 7 157 8 168 29 178 13 7 14 10 3 6 -20 -5 -33 16 -23
40 4 12 28 13 153 8 81 -3 150 -7 152 -9z m2279 -1101 c-2 -12 3 -18 16 -18
23 0 25 -17 17 -138 -4 -49 -5 -90 -2 -92 2 -3 5 -27 6 -55 1 -39 -1 -46 -9
-33 -5 10 -9 35 -7 56 3 38 -6 46 -27 25 -7 -7 -12 -8 -12 -2 0 5 -13 18 -30
27 -30 18 -30 19 -30 103 0 83 1 85 23 82 21 -3 22 -7 22 -91 0 -48 4 -86 9
-84 11 4 19 197 7 197 -5 0 -7 9 -4 20 7 25 25 27 21 3z m32 -1172 c0 -5 -8
-12 -19 -16 -21 -6 -23 -36 -4 -48 15 -9 16 -254 1 -263 -14 -9 -9 -32 9 -36
15 -3 17 -20 15 -174 l-3 -170 36 4 c20 2 35 0 35 -6 0 -6 -11 -9 -25 -6 -19
3 -25 0 -26 -13 0 -11 -3 -13 -6 -5 -2 6 -9 12 -14 12 -4 0 -6 -7 -3 -15 4 -9
0 -15 -10 -15 -9 0 -16 -8 -16 -21 0 -11 -4 -17 -10 -14 -6 4 -5 16 4 33 10
20 11 33 4 46 -6 11 -10 58 -9 105 1 67 5 89 18 99 14 10 14 14 4 25 -7 6 -11
8 -9 2 3 -10 -4 -15 -19 -15 -5 0 -8 16 -9 35 -1 40 3 42 22 18 12 -17 13 -17
14 -1 0 9 -4 20 -10 23 -5 3 -10 12 -10 18 0 8 3 8 9 -1 6 -11 10 -10 15 3 4
11 0 18 -11 21 -16 5 -18 20 -17 147 0 131 -1 143 -20 160 -17 15 -18 18 -4
13 10 -3 17 -2 17 2 -5 31 3 54 16 48 8 -3 15 -1 15 4 0 6 5 10 10 10 6 0 10
-4 10 -9z m-1331 -1172 c-6 -3 -3 -11 6 -19 19 -16 59 -102 69 -147 4 -17 23
-61 42 -98 18 -37 31 -71 28 -76 -3 -5 -1 -9 4 -9 5 0 10 -12 10 -27 0 -15 5
-29 11 -31 6 -2 11 -12 11 -23 0 -10 5 -19 10 -19 6 0 9 -3 8 -7 -1 -5 4 -19
11 -32 11 -20 11 -25 0 -32 -13 -8 -6 -13 13 -10 9 1 22 -59 14 -66 -3 -4 1
-15 11 -25 9 -10 13 -18 10 -18 -4 0 -2 -12 4 -26 8 -23 8 -25 -5 -15 -9 7
-24 37 -36 67 -11 30 -31 76 -45 103 -13 27 -38 86 -54 132 -16 46 -48 128
-70 182 -23 53 -41 106 -41 117 0 11 -4 20 -8 20 -7 0 -20 30 -38 90 l-7 25
26 -25 c14 -14 21 -27 16 -31z m1315 -71 c16 -11 38 -10 31 2 -3 6 -2 10 3 10
6 0 9 -11 8 -24 -1 -16 -5 -21 -12 -15 -6 5 -14 6 -17 2 -4 -3 -7 -1 -7 6 0 7
-5 9 -11 5 -8 -4 -2 -12 15 -21 14 -7 26 -22 26 -33 0 -10 5 -22 10 -25 6 -3
10 -1 10 4 0 6 7 11 15 11 12 0 15 -15 14 -81 -1 -76 -2 -80 -23 -77 -18 3
-21 10 -24 66 -2 46 -7 62 -17 62 -17 0 -18 -11 -15 -90 2 -60 6 -73 21 -65 5
4 9 -3 9 -14 0 -12 -4 -21 -10 -21 -5 0 -10 5 -10 10 0 6 -4 10 -8 10 -12 0
-10 -44 2 -52 8 -6 8 -10 1 -15 -6 -5 -11 -13 -10 -20 0 -15 15 -30 15 -15 0
7 4 12 10 12 5 0 7 -7 4 -15 -4 -8 -1 -15 5 -15 6 0 11 -5 11 -11 0 -6 -8 -8
-19 -4 -11 3 -22 1 -26 -5 -3 -5 1 -10 10 -10 10 0 15 -6 12 -13 -3 -8 5 -14
24 -15 23 -2 32 3 38 20 10 25 8 -115 -2 -142 -3 -8 -7 -24 -9 -35 -2 -11 -11
-21 -21 -23 -15 -3 -17 6 -17 82 0 133 -27 107 -30 -28 -1 -33 -7 -68 -16 -80
-12 -17 -14 -18 -14 -3 0 9 4 17 9 17 5 0 8 38 6 88 -8 164 -13 597 -8 582 3
-8 11 -18 17 -22z m-2842 -290 c-1 -51 -1 -110 -1 -130 0 -21 -1 -46 -1 -55
-4 -193 4 -448 16 -485 6 -21 -9 -24 -23 -5 -11 14 -16 151 -16 432 1 330 2
360 14 348 7 -7 11 -48 11 -105z"/>
<path d="M16747 7323 c-4 -3 -7 -56 -7 -116 l0 -110 61 6 c34 3 65 11 69 17 7
12 3 171 -5 198 -5 13 -106 18 -118 5z"/>
<path d="M16937 7323 c-4 -3 -7 -53 -7 -109 0 -102 0 -104 25 -110 32 -8 98 4
107 19 4 7 8 49 8 94 0 99 -10 113 -79 113 -26 0 -51 -3 -54 -7z"/>
<path d="M17130 7311 c-5 -11 -10 -56 -10 -101 0 -75 1 -81 24 -91 15 -7 43
-9 72 -4 l47 7 -7 51 c-3 29 -6 76 -6 105 l0 52 -55 0 c-43 0 -56 -4 -65 -19z"/>
<path d="M16747 6924 c-4 -4 -7 -56 -7 -114 l0 -107 31 -7 c42 -8 49 -8 49 4
0 6 -11 10 -25 10 l-26 0 3 98 3 97 29 0 29 0 1 -102 c0 -79 3 -103 13 -103
11 0 13 24 11 113 l-3 112 -50 3 c-28 2 -54 0 -58 -4z"/>
<path d="M16948 6923 c-16 -4 -18 -18 -18 -103 0 -76 4 -102 16 -114 16 -17
65 -22 78 -8 4 4 13 7 19 7 18 0 22 206 5 217 -14 8 -70 9 -100 1z"/>
<path d="M17136 6922 c-4 -7 -9 -164 -7 -209 1 -14 87 -18 107 -5 18 11 23
210 6 217 -21 8 -100 6 -106 -3z"/>
<path d="M16742 6388 l3 -113 39 -3 c22 -2 50 -1 63 3 23 5 24 7 21 113 l-3
107 -63 3 -63 3 3 -113z"/>
<path d="M16938 6410 c-1 -49 -2 -98 -2 -107 -1 -21 54 -39 81 -28 10 5 23 9
28 9 6 1 11 46 13 109 l3 107 -61 0 -60 0 -2 -90z"/>
<path d="M17136 6091 c-3 -4 -8 -52 -11 -105 l-5 -96 27 -11 c39 -15 116 -2
109 18 -3 8 -6 57 -6 109 l0 94 -54 0 c-30 0 -57 -4 -60 -9z"/>
<path d="M16745 5688 c-3 -13 -5 -66 -3 -118 l3 -95 60 0 60 0 3 111 c3 125 4
124 -80 124 -31 0 -39 -4 -43 -22z"/>
<path d="M16958 5703 l-28 -4 0 -109 0 -108 45 -6 c78 -12 85 -2 85 118 l0
104 -31 6 c-17 3 -34 5 -38 5 -3 -1 -18 -4 -33 -6z m82 -119 l0 -95 -42 3 -43
3 -2 70 c-4 106 0 115 47 115 l40 0 0 -96z"/>
<path d="M17143 5702 c-7 -5 -15 -47 -19 -106 -6 -89 -5 -100 11 -112 20 -15
83 -19 101 -6 7 4 13 51 16 114 4 86 2 108 -9 113 -21 8 -86 6 -100 -3z"/>
<path d="M16748 5270 c-14 -9 -16 -25 -14 -113 l4 -102 64 -3 64 -3 0 110 c0
103 -1 110 -20 115 -32 9 -79 6 -98 -4z"/>
<path d="M16937 5274 c-4 -4 -7 -56 -7 -115 l0 -107 33 -6 c18 -3 48 -3 65 0
l32 7 -2 111 -3 111 -55 3 c-31 2 -59 0 -63 -4z"/>
<path d="M17160 5271 c-24 -7 -25 -9 -28 -113 -3 -119 -3 -119 71 -111 l47 6
0 107 c0 103 -1 108 -22 114 -27 7 -34 6 -68 -3z"/>
<path d="M16548 5253 c-2 -10 -2 -58 1 -108 l6 -90 45 0 45 0 3 101 3 101 -32
7 c-50 10 -66 7 -71 -11z"/>
<path d="M16747 4843 c-4 -3 -7 -52 -7 -109 0 -113 1 -114 76 -114 48 0 54 14
54 127 l0 103 -58 0 c-32 0 -62 -3 -65 -7z m101 -110 l3 -93 -46 0 -45 0 0 96
0 95 43 -3 42 -3 3 -92z"/>
<path d="M16944 4837 c-2 -7 -3 -58 -2 -112 l3 -99 36 -4 c19 -1 46 1 60 6 23
9 24 13 24 113 l0 104 -58 3 c-41 2 -59 -1 -63 -11z"/>
<path d="M17140 4831 c-5 -11 -10 -61 -10 -111 l0 -91 58 3 57 3 7 95 c4 52 5
101 3 108 -3 7 -23 12 -54 12 -39 0 -53 -4 -61 -19z"/>
<path d="M16570 4441 c-12 -7 -15 -31 -14 -113 l0 -103 30 -3 c17 -2 42 1 56
7 25 9 26 13 30 103 2 51 2 99 0 106 -5 14 -79 16 -102 3z"/>
<path d="M16755 4418 c-3 -18 -5 -69 -3 -113 l3 -80 39 -3 c82 -7 84 -4 83
100 -1 51 1 100 3 108 4 12 -7 16 -57 18 l-62 3 -6 -33z"/>
<path d="M16946 4442 c-2 -4 -6 -54 -7 -112 l-3 -105 34 -3 c18 -2 49 -1 67 3
l33 6 0 109 0 110 -59 0 c-33 0 -62 -3 -65 -8z m92 -109 c3 -84 1 -92 -18 -98
-11 -3 -29 -3 -40 0 -18 6 -20 15 -20 95 0 94 4 100 55 97 18 -2 20 -10 23
-94z"/>
<path d="M17168 4442 c-15 -3 -18 -16 -20 -88 -1 -46 -2 -94 -2 -106 -1 -28
19 -33 71 -19 l38 10 -3 106 -3 106 -32 -3 c-18 -1 -40 -4 -49 -6z"/>
<path d="M16569 3993 c-2 -106 4 -188 13 -194 5 -4 26 -3 46 2 20 4 39 6 43 3
16 -10 20 40 8 113 -13 87 -32 113 -80 113 -27 0 -29 -3 -30 -37z"/>
<path d="M16961 4011 c-17 -17 -20 -33 -18 -113 l2 -93 51 -3 c33 -2 54 2 61
10 6 8 8 51 5 106 -4 88 -6 94 -29 103 -36 13 -51 11 -72 -10z"/>
<path d="M16978 3643 c-27 -4 -28 -6 -30 -74 -4 -146 -7 -132 36 -141 25 -5
43 -5 50 2 5 5 17 10 26 10 13 0 14 14 10 102 l-5 103 -30 1 c-16 1 -42 -1
-57 -3z"/>
<path d="M16756 3624 c-12 -30 -6 -181 7 -192 25 -21 105 -13 109 12 1 10 6
102 7 155 1 32 1 33 -63 36 -41 3 -56 0 -60 -11z"/>
<path d="M17140 3593 c0 -27 -3 -72 -6 -100 l-7 -53 41 0 c23 0 51 5 64 10 22
10 23 15 20 100 l-3 90 -55 0 -54 0 0 -47z"/>
<path d="M4768 7968 c-2 -24 -7 -32 -18 -29 -49 14 -922 4 -884 -9 48 -18 669
-31 787 -17 57 7 67 6 67 -7 0 -9 -5 -16 -10 -16 -11 0 -133 -92 -214 -163
-28 -23 -53 -41 -57 -40 -5 2 -21 -15 -36 -36 l-28 -39 -220 5 c-246 6 -354
20 -165 22 63 1 158 4 210 6 52 2 107 4 123 4 15 1 27 5 27 11 0 6 -38 8 -102
5 -57 -2 -166 -5 -243 -6 -77 -1 -146 -6 -152 -11 -7 -6 -13 -7 -13 -2 0 5 -4
3 -8 -4 -7 -10 -15 -9 -40 4 -17 8 -36 13 -40 10 -5 -3 -26 -6 -48 -6 -65 -3
-114 -11 -109 -20 5 -8 -84 -25 -91 -17 -3 3 15 18 39 33 83 54 282 192 312
217 52 43 19 42 -52 -2 -37 -23 -143 -92 -234 -154 -92 -62 -175 -117 -185
-124 -17 -10 -16 -11 11 -10 28 2 30 -1 36 -43 4 -25 7 -187 7 -360 0 -173 3
-407 7 -520 3 -113 8 -244 10 -292 l3 -88 -34 0 c-48 0 -87 19 -73 37 15 18
26 17 56 -7 32 -25 41 -19 19 14 -31 48 -51 50 -91 9 l-37 -38 -120 -4 -121
-3 -26 33 -26 33 -2 558 c-2 307 1 558 5 558 4 0 14 -6 21 -12 11 -10 12 -10
7 -1 -4 7 -9 74 -11 150 -4 124 -11 227 -17 250 -1 4 2 22 6 40 6 27 12 32 44
36 53 7 -736 -2 -838 -9 -94 -6 -140 -22 -185 -64 -43 -40 -189 -124 -193
-111 -6 17 -22 13 -22 -5 0 -9 -8 -23 -18 -31 -22 -17 -93 -55 -96 -51 -2 2
-10 14 -19 28 l-17 24 0 -26 c0 -16 -9 -33 -22 -42 -18 -13 -19 -16 -6 -16 13
0 17 -11 17 -52 1 -29 3 -109 5 -178 13 -329 21 -635 20 -730 0 -145 -13 -451
-21 -530 -4 -36 -5 -69 -4 -75 2 -5 5 -100 8 -210 2 -110 7 -261 12 -335 7
-107 5 -970 -2 -1265 -2 -65 17 -260 34 -365 35 -208 113 -408 225 -574 18
-28 31 -52 28 -55 -2 -3 -41 31 -86 75 -44 43 -73 68 -64 54 38 -57 355 -366
416 -405 36 -23 70 -48 77 -56 6 -8 14 -47 16 -87 4 -68 3 -74 -17 -82 -13 -5
56 -9 179 -10 215 -2 243 -4 321 -17 77 -14 710 -17 719 -4 4 8 -19 11 -72 12
-43 1 -83 1 -90 0 -6 -1 -14 3 -18 9 -3 5 -28 10 -56 10 -27 0 -49 5 -49 10 0
13 97 13 102 -1 2 -7 18 -7 53 1 74 17 225 14 255 -5 7 -4 76 -9 154 -10 104
-2 150 2 175 13 27 10 40 11 53 3 24 -15 35 -14 56 6 11 10 31 27 46 37 15 11
25 25 22 32 -6 16 70 54 109 54 36 0 29 -7 -15 -15 -19 -3 -36 -8 -39 -11 -12
-12 18 -16 131 -15 331 2 389 4 379 14 -6 6 -66 9 -143 8 -135 -1 -192 4 -183
18 2 4 44 6 92 4 48 -2 84 -1 81 2 -9 9 -76 17 -168 20 -85 3 -110 15 -54 25
29 6 29 6 4 11 -52 12 -150 11 -150 -2 0 -8 13 -10 40 -6 37 5 53 -4 30 -18
-17 -11 -80 6 -80 22 0 8 -4 11 -10 8 -6 -3 -10 -15 -10 -26 0 -17 -3 -18 -20
-7 -11 7 -20 18 -20 25 0 7 -6 13 -14 13 -8 0 -16 7 -20 15 -5 15 19 22 27 8
3 -5 97 -6 209 -4 358 7 522 6 556 -3 21 -6 32 -5 32 2 0 15 -126 28 -298 31
-19 1 -31 5 -27 11 6 10 163 6 253 -6 23 -3 42 -1 42 4 0 21 -427 35 -452 15
-8 -6 -21 -7 -33 -2 -19 7 -19 8 3 8 12 1 22 5 22 9 0 9 -94 7 -160 -2 -19 -3
-28 -3 -20 1 8 3 18 10 21 15 6 9 119 12 203 5 27 -2 68 0 93 3 24 4 46 4 48
0 6 -9 103 -12 128 -4 9 3 15 9 12 14 -7 11 40 21 61 13 11 -4 15 -3 10 5 -8
13 -78 21 -211 25 -56 2 -105 6 -111 9 -5 4 -28 5 -49 2 -71 -9 -135 -9 -135
-1 0 7 -61 4 -143 -8 -26 -4 -47 -4 -47 0 0 3 78 86 173 183 215 219 268 277
261 285 -3 3 12 36 34 74 53 91 111 237 128 323 2 8 18 74 37 145 39 149 59
242 64 300 2 22 5 54 7 70 1 17 -2 36 -8 43 -7 10 -6 16 3 22 8 4 9 10 3 14
-5 3 -8 19 -6 36 2 16 0 30 -4 30 -8 0 -8 23 -17 830 -3 305 -7 655 -9 778 -2
139 1 222 7 222 6 0 6 5 0 13 -7 10 -8 294 -1 867 1 58 -1 196 -4 307 -5 199
-5 202 16 207 26 8 61 34 54 41 -3 3 -18 -1 -34 -10 -39 -20 -45 -19 -43 8 4
44 -1 87 -10 87 -6 0 -11 -15 -13 -32z m-1778 -60 c0 -7 -12 -20 -28 -30 -53
-32 -148 -101 -188 -138 -67 -62 -121 -93 -149 -88 -25 5 -35 -7 -12 -15 34
-12 -20 -18 -233 -23 -182 -4 -235 -3 -241 7 -5 9 -53 13 -183 13 -97 1 -176
4 -176 9 0 4 3 7 8 7 4 0 31 18 60 39 28 22 89 60 134 85 46 25 96 59 112 76
l29 30 226 0 c237 0 584 20 599 35 10 10 42 5 42 -7z m-21 -338 c-13 -361 -13
-349 -4 -760 9 -394 4 -486 -25 -495 -10 -3 -21 -14 -23 -23 -3 -9 -3 16 0 56
3 39 3 72 -1 72 -15 0 -46 -21 -42 -29 3 -4 6 -33 7 -64 2 -40 6 -57 16 -57 7
0 13 -4 13 -10 0 -5 -9 -10 -20 -10 -11 0 -20 -4 -20 -8 0 -5 -24 -14 -52 -22
-29 -7 -58 -15 -64 -17 -8 -3 -14 45 -19 157 -4 89 -10 158 -13 155 -4 -3 -5
-76 -4 -161 2 -104 0 -154 -7 -154 -12 0 -13 35 -11 215 1 61 1 122 1 138 -1
15 4 27 10 27 7 0 8 4 2 13 -5 7 -8 134 -7 302 3 340 4 385 3 405 0 8 5 80 12
160 l12 145 36 32 c20 18 39 32 43 33 4 0 6 -22 3 -50 -2 -27 0 -50 5 -50 11
0 19 82 9 95 -5 6 19 37 57 74 36 35 63 66 60 69 -4 3 1 14 11 24 9 10 17 17
19 15 1 -1 -2 -126 -7 -277z m1787 183 c-4 -49 -7 -92 -7 -98 -1 -5 -1 -64 0
-130 1 -66 2 -408 2 -760 -1 -352 2 -779 5 -950 3 -170 2 -306 -2 -302 -9 9
-11 31 -14 160 -1 53 -6 97 -11 97 -4 0 -6 -57 -4 -127 3 -100 7 -130 20 -139
21 -15 19 -70 -2 -83 -17 -10 -17 -10 0 -11 15 0 17 -5 11 -22 -5 -13 -7 -32
-7 -43 1 -11 4 -78 6 -150 14 -352 18 -445 22 -500 4 -45 2 -55 -6 -42 -14 24
-30 21 -20 -4 4 -12 4 -43 0 -68 -5 -25 -12 -73 -17 -106 l-9 -60 -3 58 c-3
72 -3 74 -12 83 -5 4 -8 -28 -9 -72 0 -43 -2 -91 -3 -106 -1 -16 2 -28 6 -28
4 0 8 -7 8 -16 0 -9 -5 -12 -12 -8 -8 5 -9 2 -4 -12 10 -23 10 -14 1 -139 -4
-55 -9 -103 -12 -108 -2 -4 -1 -13 4 -20 10 -13 10 -23 0 -47 -3 -8 -15 -49
-27 -90 -19 -65 -55 -150 -63 -150 -8 0 1 72 11 82 6 6 8 17 5 24 -3 8 0 14 6
14 6 0 11 9 11 19 0 11 5 23 10 26 6 3 10 11 10 16 0 6 -4 7 -10 4 -5 -3 -10
-2 -10 4 0 5 6 12 13 15 8 4 9 8 1 11 -12 6 -7 53 8 71 14 18 18 53 7 60 -5 3
-17 -12 -26 -33 -18 -40 -19 -46 -25 -104 -2 -24 -7 -35 -15 -32 -8 3 -13 -3
-13 -15 0 -12 -4 -24 -10 -27 -5 -3 -10 -17 -10 -30 0 -13 -5 -27 -12 -31 -8
-5 -9 0 -6 14 4 12 2 25 -3 28 -6 3 -5 11 2 20 6 7 9 21 5 29 -3 9 -2 13 4 10
11 -7 30 28 41 73 6 27 4 32 -7 28 -8 -3 -14 -1 -14 4 0 5 9 11 19 15 11 3 18
12 15 19 -3 7 2 20 10 29 9 9 18 32 21 53 2 20 7 39 10 42 2 3 1 10 -3 16 -5
6 -5 22 -1 36 6 21 7 22 9 5 1 -11 2 -24 1 -28 -1 -5 3 -6 9 -2 6 4 9 14 6 23
-3 10 -6 33 -8 52 -1 19 -7 39 -13 43 -7 6 -6 10 1 13 8 3 9 18 3 47 -4 23 -9
47 -9 52 -1 6 -5 1 -9 -10 -4 -11 -5 -34 0 -52 8 -40 -6 -54 -16 -15 -14 54
-14 83 -1 88 10 4 11 16 5 49 -5 25 -6 68 -4 97 4 45 3 48 -5 23 -13 -38 -14
-59 -6 -117 5 -31 3 -48 -4 -48 -5 0 -10 6 -10 14 0 8 -5 18 -10 21 -7 4 -9
-2 -4 -19 8 -34 -4 -34 -16 0 -6 14 -15 22 -21 19 -11 -8 -6 46 11 105 5 18 7
37 4 41 -3 5 0 9 6 9 7 0 10 7 6 15 -8 22 11 65 29 65 9 0 27 12 40 26 23 25
23 26 8 72 -9 26 -16 61 -17 79 -1 37 -16 57 -16 22 -1 -22 -2 -23 -14 -6 -14
18 -32 24 -21 7 3 -5 1 -10 -5 -10 -7 0 -9 7 -6 15 3 9 2 37 -4 63 -20 107
-22 124 -9 120 7 -2 13 -13 15 -24 6 -60 15 -103 24 -125 9 -20 9 -18 5 16
-15 118 -17 185 -6 185 19 0 12 50 -15 98 -25 45 -27 56 -31 227 -4 122 -2
177 5 170 5 -5 13 -57 16 -114 9 -158 18 -136 12 28 -3 79 -8 146 -11 149 -3
3 -5 -7 -5 -21 0 -15 -4 -27 -10 -27 -5 0 -10 7 -10 15 0 8 -4 15 -10 15 -8 0
-8 -327 0 -365 4 -19 0 -35 -10 -35 -14 0 -50 42 -50 59 0 11 9 6 25 -14 l26
-30 -17 40 c-9 23 -18 81 -20 139 -3 55 -9 105 -13 110 -5 6 -12 81 -15 166
-4 85 -9 216 -12 290 -4 111 -16 581 -16 655 0 11 1 196 2 411 2 391 2 391 23
403 33 16 55 33 95 69 20 17 41 32 47 32 6 0 11 9 11 20 0 11 -2 20 -4 20 -2
0 -27 -19 -55 -43 -74 -60 -117 -89 -117 -78 0 6 15 21 33 34 17 13 56 41 85
63 30 21 59 38 67 36 7 -1 16 9 19 24 5 17 12 24 21 20 9 -3 15 1 15 9 0 8 8
15 17 15 9 0 14 3 10 6 -5 5 51 63 62 64 2 0 1 -39 -3 -87z m-2628 -144 c17
-1 -36 -18 -63 -19 -16 -1 -48 -8 -70 -15 l-40 -13 40 5 c22 2 169 5 328 6
l287 2 1 -420 c0 -231 1 -531 1 -666 l1 -245 -28 -28 c-21 -21 -26 -34 -22
-54 5 -25 -1 -32 -66 -75 -63 -43 -75 -48 -107 -41 -56 11 -73 7 -103 -26 -24
-27 -27 -38 -22 -68 6 -40 6 -40 -90 -144 -39 -42 -49 -48 -85 -48 -27 0 -47
-7 -60 -20 -21 -21 -27 -74 -10 -85 20 -12 9 -48 -41 -141 -35 -64 -56 -94
-69 -94 -9 0 -29 -9 -44 -21 -20 -16 -26 -29 -26 -60 0 -22 7 -51 16 -65 16
-24 15 -30 -12 -120 -27 -88 -32 -96 -63 -110 -18 -8 -36 -14 -40 -14 -4 0 -7
84 -8 188 -2 181 -7 301 -20 467 -3 44 -4 229 -2 410 5 484 5 840 -1 1194 l-5
315 25 6 c19 5 346 4 398 -1z m1829 -31 c8 -6 62 -10 132 -9 125 2 262 -7 279
-18 7 -4 13 -250 18 -701 4 -382 8 -722 9 -755 6 -183 7 -456 2 -462 -4 -3 -7
3 -7 15 0 24 -35 52 -66 52 -13 0 -36 17 -57 43 -44 52 -132 139 -210 207 -45
39 -53 50 -36 50 21 0 62 -36 91 -80 26 -40 31 -16 7 35 -28 60 -58 79 -107
71 -33 -5 -47 1 -126 51 -49 31 -84 59 -78 61 22 7 12 42 -22 79 -36 39 -45
39 -97 1 -13 -9 -35 -7 -103 12 l-86 23 -2 266 c0 146 -3 277 -5 291 -1 14 -5
124 -8 245 -6 238 -20 477 -31 512 -6 22 -6 22 147 26 194 5 340 -1 356 -15z
m-511 -1381 c2 -2 6 -34 8 -70 4 -64 4 -67 -17 -63 -72 15 -114 19 -213 21
-61 1 -115 5 -121 8 -6 4 -13 3 -15 -2 -1 -5 -23 -12 -48 -16 l-45 -6 -2 38
c-1 21 -4 49 -5 63 -3 22 1 25 26 23 35 -3 106 -48 106 -68 0 -23 12 -19 100
34 79 49 82 49 151 46 39 -2 73 -5 75 -8z m-506 -6 c0 -10 -50 -61 -60 -61 -4
0 -12 -11 -18 -24 -6 -14 -23 -32 -37 -42 -24 -16 -26 -15 -54 12 -50 49 -45
66 24 87 33 9 71 21 85 26 34 12 60 13 60 2z m616 -11 c10 0 46 -14 80 -31 44
-21 61 -34 57 -45 -3 -8 -1 -14 5 -14 6 0 12 6 15 13 3 8 21 3 61 -18 68 -36
94 -60 53 -50 -17 5 -27 3 -27 -4 0 -6 19 -11 45 -11 35 0 51 -6 80 -31 22
-20 34 -38 30 -47 -4 -11 -2 -12 8 -4 8 7 18 7 27 2 12 -8 12 -11 -1 -27 -33
-39 0 -63 54 -39 13 6 33 -6 82 -49 36 -31 65 -61 65 -66 0 -11 2 -11 -39 1
-19 5 -71 10 -117 11 -82 2 -84 3 -139 46 -30 24 -55 48 -55 53 0 6 15 10 34
10 19 0 38 5 41 11 12 18 -2 21 -39 9 -35 -11 -42 -9 -169 53 -72 36 -149 72
-169 80 -34 15 -36 18 -25 41 7 14 19 26 28 26 9 0 22 7 29 15 7 9 19 14 27
11 7 -3 13 -1 13 4 0 15 -28 12 -55 -6 -34 -22 -52 -12 -57 31 -5 42 -1 48 23
35 10 -6 26 -10 35 -10z m-958 -155 c-6 -27 -17 -60 -25 -72 -9 -13 -13 -23
-9 -23 6 0 -40 -43 -178 -165 -37 -33 -70 -62 -73 -65 -3 -3 -4 9 -3 25 3 49
-1 62 -11 30 -4 -16 -6 -38 -3 -50 3 -13 -3 -32 -16 -48 -12 -15 -32 -45 -44
-66 -85 -153 -97 -164 -118 -113 -10 24 -12 25 -16 7 -3 -12 4 -26 18 -37 20
-17 21 -21 10 -51 -7 -17 -21 -45 -30 -62 -10 -16 -29 -82 -44 -145 -35 -153
-47 -191 -68 -212 -10 -10 -18 -22 -18 -27 0 -5 -11 -12 -25 -15 -14 -4 -25
-12 -25 -20 0 -7 -13 -32 -30 -54 -29 -40 -41 -80 -20 -67 6 4 39 -21 74 -55
53 -51 64 -67 69 -103 6 -46 0 -61 -14 -34 -6 9 -15 17 -21 17 -6 0 1 -15 14
-32 22 -30 113 -267 105 -274 -6 -6 -109 46 -143 73 -37 27 -50 67 -35 105 8
21 15 25 35 21 32 -6 41 -19 27 -36 -6 -8 -6 -18 -1 -27 6 -9 10 -10 10 -3 0
6 4 22 9 35 10 27 9 44 -2 40 -5 -1 -24 2 -43 7 -27 7 -34 7 -34 -5 0 -8 -7
-14 -15 -14 -8 0 -15 9 -15 20 0 11 -4 29 -10 40 -5 11 -14 28 -19 38 -4 9 -8
49 -8 87 0 39 -4 83 -8 99 -5 20 -4 31 6 37 11 6 10 9 -4 15 -24 9 -21 27 3
19 18 -6 19 -4 11 18 -13 34 -3 67 20 67 24 0 24 1 -2 44 -23 39 -22 52 13
167 19 65 20 67 52 66 24 -1 45 9 79 37 l45 37 -21 24 c-12 13 -33 38 -47 56
l-24 32 44 84 c40 76 74 108 69 66 -3 -32 1 -53 9 -53 4 0 6 16 4 35 -3 27 0
36 14 41 11 3 27 10 36 15 10 5 24 9 31 9 7 0 21 6 30 13 15 11 14 16 -13 56
-17 24 -30 48 -30 52 0 5 32 43 72 84 51 54 74 73 82 65 8 -8 7 -13 -1 -18 -7
-5 -16 -23 -19 -42 -5 -24 -4 -31 4 -26 7 4 12 18 12 30 0 29 43 49 96 44 23
-2 39 2 42 10 2 6 -2 12 -10 12 -11 0 -11 2 0 9 11 7 11 15 -2 46 -9 20 -13
41 -10 46 10 17 158 99 165 91 4 -4 3 -29 -3 -57z m772 4 c36 -6 70 -15 75
-20 14 -14 19 -491 6 -593 -5 -45 -6 -85 -2 -89 15 -15 -9 -91 -36 -117 l-25
-25 6 30 c5 25 4 27 -5 12 -6 -10 -8 -24 -5 -32 2 -7 -2 -19 -10 -26 -17 -14
-89 -134 -104 -173 -20 -53 9 -23 55 57 53 90 102 157 116 157 12 0 11 -137
-1 -161 -6 -10 -40 -43 -76 -73 l-65 -53 -38 19 c-22 11 -53 20 -70 20 -17 1
-32 4 -32 7 -1 3 -3 15 -4 26 -1 11 -9 47 -18 80 -8 33 -18 85 -22 115 -4 30
-13 93 -21 140 -39 226 -54 317 -54 343 0 16 -4 26 -8 23 -5 -3 -5 -31 -1 -63
4 -32 17 -128 29 -213 27 -197 56 -364 74 -415 14 -38 9 -54 -16 -55 -13 0
-108 199 -97 205 6 5 7 11 0 18 -12 15 -13 68 -11 362 1 130 6 217 10 200 8
-30 8 -30 9 8 0 21 -2 36 -6 34 -5 -3 -9 53 -11 123 l-3 128 58 10 c62 11 197
7 303 -9z m-459 -61 c3 -160 23 -322 43 -352 12 -19 15 -45 12 -118 -2 -51 -4
-127 -5 -168 -1 -66 -3 -72 -15 -55 -7 11 -17 36 -21 55 -4 19 -11 40 -16 46
-9 11 -47 114 -54 145 -5 23 -33 89 -39 89 -2 0 0 -12 5 -27 4 -16 16 -55 25
-88 21 -80 31 -105 75 -206 32 -72 39 -99 42 -167 2 -45 1 -82 -2 -82 -3 0
-16 15 -28 33 -13 17 -70 81 -128 140 -102 105 -105 110 -106 155 -3 94 -6
140 -18 292 -17 204 -14 247 19 265 51 28 171 74 198 75 7 0 12 -13 13 -32z
m747 -35 c83 -38 142 -72 172 -99 25 -22 68 -61 95 -87 91 -83 237 -274 289
-380 41 -83 88 -260 106 -393 21 -162 -13 -412 -80 -591 -28 -75 -102 -218
-149 -287 -60 -90 -202 -228 -299 -292 -83 -55 -156 -93 -177 -94 -6 0 -21 33
-35 73 -13 39 -39 117 -57 172 -34 100 -34 101 -31 263 1 89 5 167 8 172 3 5
46 -41 95 -103 136 -171 273 -335 287 -343 17 -11 -21 39 -187 245 -210 259
-198 242 -203 316 -2 36 -1 65 3 65 4 0 80 -58 168 -128 89 -70 191 -150 227
-177 36 -28 67 -52 70 -56 15 -16 83 -62 76 -51 -4 7 -71 63 -149 125 -78 62
-156 124 -173 137 -17 14 -72 58 -122 98 -51 41 -92 77 -93 80 -7 46 -7 92 -1
96 5 3 37 -7 73 -21 35 -14 145 -54 244 -88 99 -35 211 -75 249 -89 38 -15 74
-25 79 -23 13 4 -182 79 -388 150 -88 31 -181 65 -207 77 -45 20 -48 23 -48
59 l0 37 393 -3 c250 -2 382 1 363 7 -16 5 -155 10 -310 10 -342 2 -436 6
-448 18 -6 6 -7 28 -3 50 l6 39 83 26 c113 35 538 190 606 221 83 38 44 31
-78 -13 -289 -106 -594 -211 -609 -211 -9 0 -13 16 -13 48 0 27 6 55 13 64 6
9 100 82 207 163 239 181 360 278 355 284 -3 2 -10 -1 -17 -6 -42 -33 -534
-400 -546 -407 -12 -7 -13 8 -10 91 l3 99 91 139 c50 77 113 178 139 225 27
47 56 94 65 105 20 23 33 55 22 55 -7 0 -45 -54 -67 -95 -42 -76 -244 -385
-251 -385 -4 0 -4 30 0 68 4 37 7 187 6 335 0 236 1 267 15 267 9 0 73 -26
143 -57z m-1030 -286 l4 -242 -111 110 c-61 60 -111 105 -111 100 0 -6 47 -57
105 -115 114 -113 115 -117 119 -234 1 -47 6 -70 16 -76 10 -7 11 -10 3 -10
-7 0 -13 -10 -13 -23 0 -13 6 -29 13 -36 10 -10 6 -11 -18 -6 -28 7 -85 31
-339 147 -107 49 -154 62 -73 21 77 -39 359 -173 365 -173 15 0 42 -36 42 -57
0 -14 6 -23 15 -23 8 0 15 -4 15 -10 0 -5 -7 -7 -15 -4 -12 5 -15 -5 -15 -55
l0 -61 -37 0 c-21 0 -143 9 -272 20 -129 11 -237 18 -239 15 -10 -10 28 -14
476 -51 l72 -6 0 -68 0 -67 -42 -11 c-41 -11 -213 -48 -398 -87 -47 -10 -89
-23 -95 -28 -6 -6 -1 -7 17 -3 84 20 467 98 488 99 25 2 25 2 28 -94 l3 -97
-103 -60 c-124 -72 -318 -199 -318 -208 0 -11 28 4 142 79 127 82 278 171 281
166 1 -2 0 -61 -3 -130 l-5 -126 -75 -98 c-110 -144 -118 -156 -55 -90 30 32
71 83 91 112 19 28 38 54 42 57 4 2 8 -48 9 -113 2 -64 8 -141 14 -171 12 -61
61 -174 86 -202 9 -10 13 -18 9 -18 -10 0 -70 42 -74 52 -2 4 -24 17 -48 28
-25 10 -73 46 -107 78 -34 32 -89 82 -122 111 -61 54 -163 174 -187 220 -7 14
-23 41 -35 59 -44 66 -110 279 -101 326 3 14 1 27 -3 28 -31 11 -31 325 0 420
12 37 49 178 58 220 3 15 11 33 19 39 8 6 14 17 14 25 0 7 11 34 25 60 14 25
22 51 18 57 -4 6 -1 7 7 2 10 -6 12 -4 7 8 -4 11 -1 17 6 17 7 0 21 18 31 40
10 22 24 47 33 55 8 9 16 23 18 33 1 9 8 16 14 15 6 -2 11 1 11 6 0 5 20 30
45 55 25 25 42 46 38 47 -4 0 2 4 15 9 12 5 22 16 22 25 0 8 3 15 8 15 4 0 21
13 37 28 34 31 116 92 124 92 4 0 8 -109 9 -243z m1519 97 c56 -5 65 -9 98
-45 54 -60 58 -57 -94 -59 -81 -1 -91 4 -151 81 l-29 36 57 -4 c31 -2 85 -6
119 -9z m22 -127 c54 6 57 3 52 -49 -1 -10 3 -26 9 -35 8 -14 10 -6 6 34 -5
58 8 78 31 47 9 -12 12 -32 9 -53 -4 -25 -2 -31 6 -23 6 6 11 29 11 51 0 23 1
41 3 41 6 0 44 -92 44 -107 0 -7 14 -44 32 -81 23 -49 32 -84 34 -128 1 -34 5
-75 9 -93 5 -24 2 -37 -10 -51 -10 -12 -13 -20 -6 -25 7 -4 10 -120 10 -354
-1 -277 2 -352 12 -370 11 -17 11 -23 2 -29 -7 -4 -11 -16 -11 -27 2 -27 -21
-95 -33 -95 -5 0 -9 7 -9 17 0 9 -11 39 -25 68 -28 57 -26 80 11 89 13 4 24
11 24 16 0 6 -14 4 -34 -4 -40 -17 -50 -6 -33 34 5 14 11 34 12 45 2 11 10 58
19 105 25 129 34 241 22 290 -3 14 -13 66 -21 115 -8 50 -21 108 -29 130 -8
22 -17 54 -21 70 -4 17 -20 61 -37 100 -20 45 -27 70 -19 73 6 2 10 13 10 25
-1 18 -2 19 -6 4 -8 -29 -24 -16 -95 79 -71 94 -80 111 -49 95 10 -6 42 -8 70
-4z m-1427 -359 c12 -18 65 -78 116 -133 84 -91 124 -157 106 -174 -3 -3 -63
24 -132 60 l-127 67 -3 106 c-2 63 1 106 7 106 5 0 20 -15 33 -32z m1737 -152
c13 -75 15 -108 11 -266 -1 -47 2 -93 6 -104 4 -11 2 -21 -7 -27 -10 -6 -10
-9 -1 -9 6 0 12 -5 12 -11 0 -5 -4 -8 -9 -5 -5 4 -7 -3 -4 -14 3 -11 -1 -46
-10 -78 -8 -31 -18 -70 -21 -85 -9 -40 -22 -25 -18 20 7 72 13 218 11 273 -5
181 0 380 9 380 4 0 14 -33 21 -74z m-1645 -122 c95 -49 126 -70 126 -85 0
-16 -7 -19 -42 -19 -78 0 -118 11 -118 31 0 11 -5 19 -11 19 -6 0 -8 -9 -4
-20 6 -18 2 -20 -39 -20 -45 0 -46 1 -47 33 -4 95 -3 127 2 127 4 0 64 -30
133 -66z m-829 -149 c0 -69 -3 -124 -6 -123 -3 2 -30 25 -59 51 l-53 48 19 34
c17 31 86 115 95 115 2 0 4 -56 4 -125z m1208 70 c57 -24 74 -78 41 -135 -27
-45 -61 -58 -114 -45 -36 9 -47 17 -58 45 -20 48 -2 104 41 130 39 24 45 24
90 5z m239 -40 c2 -20 2 -38 -1 -40 -2 -3 -29 -6 -60 -6 l-56 -2 58 -9 c56
-10 57 -11 57 -44 0 -19 -2 -34 -5 -34 -3 0 -24 9 -46 21 -23 11 -43 18 -46
15 -3 -2 18 -16 46 -30 48 -25 51 -28 51 -66 0 -22 -3 -40 -6 -40 -3 0 -29 20
-56 45 -74 67 -70 48 6 -25 60 -58 64 -64 64 -106 0 -24 -4 -44 -9 -44 -4 0
-43 43 -85 95 -42 52 -84 95 -93 96 -11 0 -10 3 5 9 24 9 37 26 41 50 1 8 7
16 13 18 5 2 7 8 4 13 -3 6 -8 27 -10 47 -4 37 -4 37 48 53 74 23 75 23 80
-16z m-1674 5 c20 -19 22 -30 22 -150 0 -127 0 -130 -25 -146 -21 -14 -25 -24
-25 -64 0 -53 16 -74 67 -84 29 -7 33 -13 58 -89 15 -45 32 -90 37 -101 8 -15
5 -23 -15 -40 -36 -29 -45 -84 -19 -116 17 -21 27 -24 71 -22 l51 2 34 -52
c19 -29 48 -70 65 -92 37 -46 38 -58 9 -71 -35 -15 -36 -73 -3 -109 24 -26 31
-28 72 -22 25 3 52 11 59 17 16 14 36 3 113 -61 l60 -50 -14 -41 c-13 -36 -13
-44 0 -70 17 -32 51 -45 92 -34 37 9 53 23 53 46 0 27 21 24 93 -12 83 -42 88
-46 77 -72 -5 -12 -23 -71 -40 -132 -18 -60 -46 -156 -62 -212 l-31 -103 -64
0 c-62 0 -64 -1 -74 -30 -6 -16 -15 -30 -20 -30 -14 0 -67 38 -112 80 -21 19
-40 34 -42 33 -15 -8 -33 5 -107 75 -83 79 -118 122 -206 253 -98 146 -153
306 -206 601 -19 104 -19 111 -4 102 8 -5 9 4 4 32 -24 141 -28 202 -22 339 3
83 6 213 7 290 1 170 3 175 47 135z m1165 -16 c9 -3 17 -14 17 -25 0 -10 -1
-19 -2 -19 -2 0 -48 -9 -103 -20 -55 -11 -113 -23 -130 -26 l-30 -6 0 57 0 56
115 -6 c63 -4 123 -9 133 -11z m15 -96 c-2 -12 -12 -27 -23 -33 -19 -10 -41
-24 -165 -104 -30 -20 -56 -39 -58 -43 -10 -23 -22 -2 -22 38 0 25 4 43 9 40
5 -4 5 9 1 30 -8 34 -7 36 27 50 19 8 42 14 51 12 10 -1 24 2 32 7 16 10 77
22 123 24 24 1 28 -3 25 -21z m-10 -112 c-22 -38 -81 -116 -89 -116 -4 0 -10
8 -13 18 -3 9 -4 4 -2 -11 3 -21 -5 -37 -30 -64 -18 -19 -50 -55 -70 -80 -44
-54 -54 -46 -54 47 0 88 5 101 48 130 20 14 53 37 72 51 19 15 51 35 70 45 19
11 41 25 49 33 13 11 16 10 23 -9 5 -14 3 -30 -4 -44z m292 9 c0 -26 76 -255
130 -389 15 -40 32 -90 35 -112 4 -21 18 -66 30 -99 33 -86 114 -323 178 -520
30 -93 69 -208 87 -255 30 -81 101 -266 109 -283 2 -5 -12 -7 -29 -5 l-33 3
-58 170 c-32 94 -81 240 -109 325 -27 85 -65 200 -84 255 -19 55 -49 145 -66
200 -17 55 -35 108 -40 117 -6 10 -10 24 -10 33 0 8 -7 29 -15 47 -8 18 -28
80 -46 138 -59 195 -101 325 -116 353 -16 32 -10 47 18 47 14 0 19 -7 19 -25z
m-105 -17 c-4 -18 -17 -71 -30 -118 -13 -47 -29 -114 -35 -150 -10 -59 -64
-236 -111 -368 -10 -29 -19 -61 -19 -71 0 -10 -19 -74 -41 -142 -23 -68 -42
-131 -44 -139 -1 -8 -4 -22 -8 -30 -4 -8 -11 -35 -16 -60 -12 -56 -31 -130
-39 -150 -3 -8 -7 -22 -8 -30 -1 -8 -20 -89 -43 -179 -23 -90 -41 -174 -41
-186 0 -19 -7 -23 -47 -29 -25 -3 -48 -5 -50 -3 -1 2 8 31 21 65 13 33 29 83
35 110 5 26 22 80 36 118 36 96 114 329 130 389 38 136 135 456 154 505 11 30
30 96 41 145 41 182 94 355 108 355 10 0 12 -8 7 -32z m249 -93 c38 -46 68
-92 71 -110 7 -46 11 -295 4 -282 -9 16 -110 317 -114 339 -2 9 -15 50 -30 90
-29 82 -28 81 69 -37z m-429 -2 c0 -38 -4 -74 -8 -80 -5 -7 -4 -13 1 -13 11 0
-18 -73 -64 -165 -17 -33 -37 -81 -44 -107 -7 -27 -17 -48 -21 -48 -13 0 -11
11 6 44 18 34 11 48 -10 20 -13 -18 -14 -17 -16 16 l-1 35 -9 -29 c-5 -19 -5
-34 2 -42 7 -9 6 -19 -3 -33 -14 -22 -28 -28 -28 -11 0 6 5 10 10 10 6 0 10 7
10 15 0 8 -5 15 -11 15 -15 0 -3 128 13 147 6 7 8 27 6 45 -5 28 3 43 51 103
32 38 68 87 82 107 13 21 26 38 29 38 3 0 5 -30 5 -67z m238 20 c8 -47 71
-248 145 -461 l70 -203 -26 -12 c-30 -12 -223 -20 -203 -7 9 5 0 15 -28 31
-44 25 -96 92 -106 138 -6 28 13 130 34 181 8 19 10 2 12 -80 2 -104 2 -104 9
45 6 124 12 170 38 263 18 62 32 119 32 128 0 25 17 7 23 -23z m1112 -175 c11
-35 58 -133 67 -136 8 -4 -19 -79 -37 -102 -6 -8 -24 -36 -39 -62 -14 -26 -49
-77 -76 -112 -28 -36 -50 -68 -50 -72 0 -14 -88 -110 -153 -166 -51 -44 -72
-56 -81 -49 -7 6 -16 8 -20 4 -13 -13 -54 -13 -107 1 -50 12 -56 12 -81 -6
-23 -16 -28 -26 -27 -61 l1 -42 11 35 c10 33 41 70 58 70 5 0 29 -7 53 -15 26
-9 57 -13 73 -9 23 5 17 -2 -32 -41 -68 -54 -175 -108 -189 -95 -5 5 -17 31
-26 57 -10 26 -21 56 -25 65 -6 14 7 24 64 52 65 31 109 58 193 118 58 41 180
168 227 235 25 37 54 70 64 75 9 4 25 13 35 18 9 6 40 21 68 34 61 28 80 49
33 36 -18 -5 -54 -21 -80 -35 -27 -14 -51 -25 -53 -25 -2 0 8 24 24 53 24 46
59 131 74 180 7 24 23 21 31 -5z m-1349 -42 c0 -19 -4 -32 -8 -30 -4 3 -8 0
-8 -5 0 -6 4 -11 9 -11 14 0 2 -74 -35 -210 -33 -125 -87 -295 -107 -338 l-11
-23 -9 23 c-5 13 -10 28 -11 33 -1 6 -10 27 -20 47 -14 29 -17 49 -12 83 4 25
11 45 16 45 5 0 12 10 16 23 8 27 35 69 41 64 2 -2 -1 -17 -7 -33 -7 -16 -12
-48 -12 -71 0 -24 -4 -43 -8 -43 -5 0 -7 -12 -6 -27 2 -16 4 -36 5 -45 2 -31
21 -19 21 12 0 17 4 38 9 48 19 33 50 153 44 167 -9 24 -23 17 -24 -12 l0 -28
-10 24 c-7 17 -6 27 2 32 6 4 9 11 5 17 -3 5 1 15 9 22 8 7 15 19 15 27 0 23
40 134 68 191 14 28 27 52 27 52 1 0 1 -15 1 -34z m-1006 9 c7 -9 18 -14 24
-12 16 6 53 -10 108 -45 47 -31 60 -48 36 -48 -7 0 2 -15 19 -32 17 -18 38
-47 46 -64 21 -40 127 -164 203 -236 33 -32 65 -72 71 -90 6 -18 20 -56 30
-83 27 -70 35 -115 21 -115 -13 0 -94 50 -160 100 -27 20 -70 64 -97 97 -39
48 -49 68 -45 88 3 17 1 24 -6 20 -5 -3 -10 -13 -10 -22 0 -13 -3 -13 -15 -3
-23 19 -76 100 -65 100 5 0 12 -4 15 -10 3 -5 13 -10 21 -10 10 0 9 5 -6 20
-20 20 -20 36 2 124 6 26 6 42 -1 49 -8 8 -11 6 -11 -6 0 -9 -3 -17 -7 -17 -5
0 -9 -28 -10 -61 -1 -34 -5 -64 -8 -67 -8 -8 -45 29 -62 61 -10 21 -11 32 -3
41 8 10 6 15 -9 19 -11 3 -28 22 -38 42 -17 36 -17 37 2 51 19 14 19 14 -4 12
-18 -2 -28 5 -41 32 -25 48 -33 80 -22 80 5 0 15 -7 22 -15z m794 -47 c3 -18
4 -46 4 -63 -1 -16 2 -47 6 -68 5 -25 4 -37 -3 -33 -6 4 -7 -4 -1 -23 9 -34 3
-46 -17 -30 -15 13 -18 -2 -3 -17 12 -12 3 -44 -12 -44 -5 0 -6 -4 -3 -10 3
-5 2 -10 -3 -10 -14 0 -23 61 -23 155 0 90 8 135 22 135 5 0 9 9 9 20 0 33 19
23 24 -12z m1777 12 c17 -9 19 -18 13 -57 -3 -25 -7 -62 -7 -81 -1 -19 -3 -29
-5 -22 -9 26 -28 -47 -28 -102 1 -32 0 -58 -2 -58 -2 0 -9 6 -15 13 -9 8 -12
54 -11 147 1 168 7 185 55 160z m-136 -260 c3 -5 12 -7 20 -3 20 7 19 -2 -2
-22 -13 -14 -14 -18 -3 -25 11 -7 11 -24 1 -97 -16 -120 -43 -213 -110 -378
-61 -151 -135 -274 -220 -367 -50 -55 -190 -168 -208 -168 -5 0 -20 30 -35 68
-38 100 -128 380 -128 401 0 13 24 29 81 56 l80 38 15 -22 c23 -32 83 -55 112
-42 36 17 44 51 18 80 l-21 24 23 -6 c15 -3 25 0 29 9 8 22 -2 27 -36 19 -35
-7 -43 -38 -14 -53 20 -12 10 -42 -14 -42 -31 0 -93 20 -93 30 0 5 14 17 32
26 17 9 54 40 82 69 28 30 80 78 115 109 63 53 65 55 112 49 36 -4 55 -1 74
11 14 9 23 21 20 26 -8 12 -48 8 -63 -7 -16 -15 -22 -16 -42 -3 -12 8 -10 14
12 37 14 15 42 55 61 88 52 89 86 121 102 95z m-1351 -101 c2 -15 13 -40 24
-57 12 -16 22 -34 22 -40 0 -5 9 -12 20 -15 14 -4 18 -10 13 -22 -6 -17 -7
-17 -20 1 -11 15 -13 15 -13 2 0 -9 6 -18 14 -21 23 -9 6 -57 -28 -79 -25 -16
-26 -19 -8 -15 22 5 30 -7 12 -18 -5 -3 -10 -13 -10 -22 0 -13 3 -13 15 -3 12
10 15 10 15 -3 0 -11 5 -14 16 -10 12 4 15 2 12 -8 -3 -8 -16 -13 -29 -12 -88
8 -113 14 -144 33 l-34 21 15 37 c8 20 19 44 24 53 5 9 16 52 25 95 9 44 21
97 27 119 10 39 11 39 20 15 6 -14 11 -37 12 -51z m358 -158 c-29 -54 -93
-124 -140 -153 -73 -45 -44 -4 101 144 17 18 24 42 10 36 -48 -23 -63 -33 -60
-41 4 -13 -88 -117 -103 -117 -12 0 -19 39 -9 46 5 3 9 14 9 25 0 11 7 22 15
25 8 4 15 15 15 25 0 14 7 19 28 19 16 0 43 7 61 16 17 9 38 13 46 10 9 -3 19
3 26 16 8 15 13 17 19 8 4 -7 -3 -32 -18 -59z m-854 -11 c52 -38 218 -121 226
-113 3 3 8 -2 12 -11 7 -18 -24 -144 -37 -152 -5 -3 -43 11 -85 31 -60 29 -74
39 -64 48 10 9 14 9 17 0 3 -8 8 -9 16 -3 38 32 89 59 102 54 8 -4 15 -1 15 5
0 6 -7 11 -16 11 -18 0 -97 -41 -102 -53 -2 -4 -8 -4 -13 -1 -6 3 -16 0 -24
-6 -12 -10 -18 -10 -30 0 -8 7 -12 16 -9 22 3 5 1 14 -4 21 -21 26 -66 177
-52 177 4 0 25 -13 48 -30z m967 -182 c4 -13 12 -36 20 -53 7 -16 15 -42 19
-56 5 -24 2 -27 -37 -39 -44 -13 -147 -25 -147 -17 0 3 14 19 30 37 17 18 28
35 25 39 -4 3 -11 -1 -16 -10 -4 -9 -20 -24 -34 -33 -25 -16 -28 -16 -90 19
-36 20 -71 35 -77 32 -7 -2 20 -20 60 -41 39 -20 72 -40 72 -45 0 -5 -17 -11
-37 -14 -73 -11 -313 7 -313 24 0 4 20 22 45 39 25 17 45 33 45 35 0 7 -75
-29 -78 -37 -5 -12 -40 -10 -47 2 -3 6 -12 10 -18 10 -7 -1 -2 -9 11 -19 30
-26 28 -31 -14 -31 -50 0 -76 16 -69 43 25 96 27 98 59 93 153 -25 237 -28
333 -12 171 29 218 39 228 47 15 14 23 10 30 -13z m58 -185 c3 -5 8 -23 12
-40 6 -29 4 -33 -14 -33 -12 0 -21 6 -21 14 0 18 -16 30 -24 18 -3 -5 4 -23
15 -41 16 -27 22 -30 39 -21 25 13 28 7 85 -165 25 -74 48 -141 50 -148 4 -9
-102 -13 -485 -15 -269 -1 -490 1 -490 4 0 4 17 75 37 158 34 137 40 153 71
182 19 18 32 37 28 43 -10 16 -24 13 -29 -6 -3 -12 -5 -8 -6 9 -1 29 13 45 24
28 4 -6 16 -8 27 -4 11 3 66 0 122 -7 55 -7 104 -12 108 -11 5 1 13 -7 20 -17
9 -14 20 -18 48 -14 40 6 65 -13 54 -41 -4 -11 -18 -16 -43 -16 -30 0 -40 6
-59 36 -23 35 -42 38 -42 6 0 -26 29 -62 57 -73 63 -24 143 27 114 73 -7 11
-11 21 -9 23 18 15 60 25 153 35 61 8 117 17 125 21 19 11 28 11 33 2z m289
-474 c-14 -12 -179 -77 -247 -97 -38 -12 -146 -33 -239 -47 -93 -14 -175 -30
-183 -36 -9 -8 -52 -8 -160 0 -317 24 -339 28 -448 81 -131 62 -156 92 -85
102 45 6 1369 3 1362 -3z m134 -91 l1 -86 -193 2 c-190 1 -238 8 -149 22 25 3
45 10 45 16 0 5 17 16 38 25 50 21 203 92 222 103 29 17 35 3 36 -82z m-1552
3 c28 -16 83 -39 121 -51 39 -12 74 -26 78 -30 4 -3 -54 -6 -129 -5 l-137 2
-2 56 c-2 34 1 57 7 57 6 0 34 -13 62 -29z"/>
<path d="M5370 7929 c-25 -17 -62 -47 -83 -67 -29 -28 -40 -34 -46 -23 -6 9
-11 10 -15 2 -4 -6 -5 -15 -2 -20 6 -9 -99 -113 -150 -148 -16 -12 -43 -25
-58 -29 -22 -5 -25 -9 -14 -15 12 -7 13 -18 6 -61 -14 -74 -15 -811 -3 -1588
12 -772 13 -1296 3 -1620 -11 -357 -12 -595 -3 -610 5 -9 4 -11 -3 -6 -8 5
-12 -3 -12 -23 0 -17 4 -31 9 -31 11 0 10 29 14 -470 2 -234 5 -433 6 -442 3
-25 21 -23 21 2 0 18 4 20 43 13 23 -5 102 -7 176 -7 73 1 127 -2 120 -7 -7
-4 83 -8 199 -8 117 0 217 -3 222 -6 6 -3 16 -3 23 2 42 27 183 43 203 23 11
-11 26 2 49 40 5 10 33 47 60 83 28 36 63 84 79 106 16 22 49 60 73 83 29 29
42 51 42 68 -1 17 -3 19 -6 8 -2 -10 -9 -18 -14 -18 -14 0 -11 64 4 79 8 10 8
12 0 7 -14 -8 -28 10 -14 18 16 11 22 79 12 156 -5 41 -12 239 -15 438 -5 309
-3 362 8 352 15 -11 96 -189 96 -208 0 -6 20 -70 44 -144 45 -135 137 -423
227 -713 28 -88 57 -176 64 -195 8 -19 19 -53 26 -75 7 -22 19 -47 26 -56 21
-25 16 -29 -43 -29 -34 0 -53 -4 -49 -10 8 -13 510 -12 680 1 204 17 363 20
370 9 4 -7 13 -7 26 0 11 6 47 10 82 8 60 -3 63 -4 82 -40 11 -21 22 -38 25
-38 9 0 5 95 -4 101 -5 4 12 34 38 68 54 70 75 87 45 37 -12 -20 -24 -36 -28
-36 -8 0 -31 -44 -31 -57 0 -4 11 8 25 27 14 19 32 38 39 42 8 4 17 20 21 35
3 14 15 38 26 51 10 14 19 29 19 33 0 5 14 28 30 51 17 22 30 48 30 56 0 9 6
12 16 8 13 -5 14 -1 9 26 -4 18 -11 39 -16 48 -19 33 -99 221 -99 231 0 6 -12
36 -26 67 -34 74 -30 63 -124 302 -45 113 -90 226 -101 253 -11 26 -33 86 -50
135 -33 96 -59 166 -94 257 -13 33 -35 103 -50 155 -27 95 -82 240 -136 357
-16 34 -31 74 -35 88 -3 14 -10 28 -15 30 -4 3 -6 12 -2 20 3 8 0 15 -7 15 -6
0 -8 -4 -5 -10 3 -5 2 -10 -3 -10 -6 0 -13 7 -16 16 -7 19 20 54 41 54 7 0 13
5 13 10 0 6 10 21 23 33 13 12 45 49 71 81 26 33 71 80 98 105 54 49 128 150
128 175 0 8 4 16 9 18 5 2 11 10 13 18 2 8 6 17 9 20 7 6 84 269 93 320 4 19
9 64 11 100 35 504 37 570 17 577 -11 5 -11 7 -1 14 11 6 10 20 0 76 -18 91
-66 245 -96 308 -31 67 -42 111 -25 100 7 -4 11 -4 9 1 -39 88 -87 165 -180
287 -18 24 -18 26 -3 20 16 -6 15 -3 -3 23 -60 83 -199 184 -378 273 -77 39
-168 79 -203 90 -34 11 -79 33 -100 48 -30 22 -33 23 -18 5 11 -12 16 -22 13
-22 -4 0 -69 15 -145 34 -179 44 -314 60 -492 58 -403 -5 -909 -7 -900 -4 12
4 14 22 3 22 -5 0 -28 -14 -53 -31z m495 -34 c33 -2 166 0 295 4 248 8 406 -2
511 -33 28 -9 56 -13 61 -10 5 3 16 -2 23 -12 9 -11 14 -14 15 -6 0 6 4 12 10
12 5 0 9 -5 7 -12 -1 -7 40 -26 97 -45 55 -18 104 -37 110 -42 6 -4 25 -11 41
-15 l30 -7 -33 21 c-18 11 -36 20 -41 20 -5 0 -14 7 -21 15 -7 8 -8 15 -3 15
19 0 132 -43 210 -81 45 -21 86 -39 90 -39 5 0 14 -5 21 -12 6 -6 41 -28 76
-47 36 -20 81 -49 101 -66 20 -16 52 -43 72 -60 19 -16 56 -61 80 -100 25 -38
53 -81 63 -95 29 -42 51 -90 55 -118 5 -35 75 -236 85 -242 10 -7 21 -42 37
-125 7 -38 18 -92 24 -120 22 -105 31 -300 18 -390 -6 -38 -11 -75 -11 -82 -1
-7 -5 -10 -10 -7 -4 3 -8 0 -8 -6 0 -6 -5 -8 -11 -4 -6 3 -7 9 -3 13 5 3 9 11
9 16 1 6 5 37 10 70 12 86 12 117 -2 144 -8 16 -9 30 -2 42 12 23 11 38 -1 19
-8 -13 -10 -13 -10 1 0 9 -7 19 -15 23 -15 6 -20 -5 -8 -18 4 -4 7 -53 8 -110
0 -79 -3 -102 -12 -99 -7 3 -13 9 -13 14 0 5 -4 9 -10 9 -5 0 -10 -7 -10 -15
0 -8 4 -15 9 -15 5 0 7 -18 5 -40 -3 -32 0 -40 14 -41 15 -1 15 -2 1 -6 -9 -2
-19 -15 -22 -29 -4 -20 -1 -23 14 -19 20 7 27 -9 9 -20 -5 -3 -7 -12 -4 -20 4
-8 0 -17 -8 -20 -7 -3 -15 -18 -16 -33 -1 -15 -7 -29 -13 -31 -6 -2 -4 -10 6
-21 18 -20 10 -57 -10 -40 -6 5 -14 7 -17 4 -3 -2 -8 2 -11 11 -4 8 -2 15 4
15 6 0 8 7 5 16 -3 8 -1 25 5 37 8 14 9 22 1 25 -7 2 -7 13 -2 32 6 20 5 30
-3 34 -8 3 -9 7 -2 13 12 9 19 56 7 50 -4 -3 -8 24 -9 59 -1 43 2 64 9 64 7 0
4 6 -7 13 -13 10 -15 16 -6 21 6 4 8 13 4 19 -8 13 -9 19 -11 65 -1 17 -7 32
-13 32 -6 0 -8 -7 -5 -17 6 -16 6 -17 -9 -3 -18 19 -48 153 -42 193 2 15 0 27
-3 27 -4 0 -13 27 -19 60 -7 33 -16 62 -21 65 -6 4 -10 14 -10 23 0 29 -65
155 -124 242 -31 44 -56 85 -56 91 0 5 -6 9 -13 9 -8 0 -32 19 -55 43 -261
271 -591 404 -1087 438 -177 12 -300 10 -680 -10 -99 -5 -259 -12 -355 -15
-158 -6 -173 -5 -155 9 49 37 175 145 238 204 l69 64 196 -8 c109 -3 224 -8
257 -10z m460 -280 c175 -20 301 -42 410 -70 119 -31 329 -117 374 -153 20
-15 62 -45 93 -66 56 -37 183 -168 207 -214 14 -27 47 -67 74 -91 9 -8 17 -23
17 -33 0 -10 4 -18 9 -18 24 0 108 -266 131 -417 5 -28 11 -56 14 -61 11 -18
14 -82 5 -82 -6 0 -7 -4 -4 -10 3 -5 2 -10 -3 -10 -5 0 -8 -12 -6 -26 2 -26
14 -47 14 -26 0 7 5 12 11 12 7 0 8 -69 5 -217 -7 -257 -9 -293 -18 -293 -3 0
-4 -8 -1 -18 2 -10 0 -30 -6 -45 -8 -20 -15 -25 -28 -20 -17 6 -17 6 -1 -10
15 -15 15 -21 1 -64 -8 -27 -18 -59 -20 -73 -10 -48 -84 -211 -134 -295 -38
-65 -67 -100 -122 -145 -80 -67 -242 -180 -258 -180 -6 0 -8 -4 -5 -9 6 -10
-30 -44 -59 -56 -17 -7 -15 -9 14 -14 31 -6 36 -12 78 -106 62 -140 145 -345
178 -439 14 -44 66 -172 114 -285 144 -338 136 -337 -47 5 -71 131 -160 298
-199 369 -39 72 -100 189 -136 261 -36 73 -119 226 -183 340 -64 115 -144 259
-177 319 -33 61 -76 139 -96 175 -46 84 -45 80 -28 80 8 0 37 35 65 78 87 135
121 281 115 507 -2 80 -10 165 -19 199 -21 80 -70 182 -114 236 -20 25 -35 51
-33 58 3 6 0 12 -7 12 -6 0 -8 -4 -5 -10 13 -22 -12 -7 -55 31 -43 39 -43 40
-11 24 18 -9 30 -12 26 -6 -3 6 -25 21 -48 32 -23 12 -44 25 -47 29 -3 4 -32
17 -65 29 -54 20 -72 22 -178 17 -65 -3 -127 -10 -137 -16 -10 -5 -36 -11 -57
-12 -33 -1 -34 -2 -8 -5 l30 -4 -2 -674 c-2 -781 -19 -691 130 -680 135 10
212 30 306 81 69 38 86 43 96 32 8 -7 41 -67 75 -133 35 -66 96 -179 136 -251
40 -72 112 -207 160 -300 107 -210 204 -388 304 -564 43 -74 130 -234 195
-355 65 -121 126 -231 135 -245 10 -14 39 -79 65 -145 26 -66 71 -181 100
-255 58 -146 69 -180 61 -180 -3 0 -102 193 -220 428 -190 382 -385 759 -406
787 -7 10 -93 174 -270 520 -56 110 -107 205 -112 210 -15 16 199 -410 357
-710 78 -148 274 -533 436 -855 161 -322 306 -607 321 -633 50 -86 59 -82
-194 -82 -216 0 -526 -9 -734 -21 l-101 -6 -17 63 c-10 35 -65 206 -122 379
-107 322 -122 368 -193 595 -75 244 -90 300 -105 405 -9 64 -13 80 -10 40 3
-36 7 -80 11 -97 10 -60 -14 -35 -61 62 l-46 95 -4 155 c-3 85 -1 155 3 155 4
0 13 -6 20 -12 10 -11 12 -9 9 7 -2 14 -13 21 -32 23 l-29 4 6 -127 c8 -150 2
-155 -58 -42 -25 46 -65 101 -102 137 -55 55 -62 59 -68 41 -3 -12 -13 -21
-20 -21 -20 0 -28 -19 -15 -35 9 -10 11 -240 11 -902 l0 -888 -478 0 -478 0 1
427 2 426 171 336 c93 185 178 349 189 364 24 35 142 258 142 269 0 11 -31
-40 -95 -157 -29 -52 -72 -129 -95 -170 -23 -41 -96 -181 -163 -310 -66 -129
-129 -248 -139 -265 l-19 -30 7 70 c8 80 26 121 161 352 48 84 126 219 172
300 105 184 218 377 376 643 166 279 215 365 215 376 0 22 -206 -310 -520
-841 -144 -242 -177 -300 -280 -485 -57 -102 -110 -192 -117 -200 -16 -17 -16
-32 -14 395 1 236 10 1609 12 1780 1 44 1 94 0 110 -1 17 -1 37 0 45 0 8 -2
200 -6 425 -4 226 -8 516 -9 645 -1 129 -4 241 -7 249 -7 22 39 29 126 19 76
-9 287 -5 530 11 201 14 494 11 630 -4z m45 -832 c93 -33 242 -210 285 -337
61 -184 35 -558 -44 -637 -37 -36 -175 -71 -266 -67 -51 2 -69 7 -67 16 9 45
-3 974 -13 1020 -7 32 -7 32 26 26 19 -3 54 -13 79 -21z m-289 -496 c0 -66 2
-75 16 -70 10 4 14 2 10 -4 -4 -6 4 -23 18 -39 20 -24 24 -37 21 -81 -4 -59 0
-68 20 -48 16 15 19 35 5 35 -5 0 -7 19 -6 43 1 23 -2 46 -9 50 -8 6 -7 10 2
14 10 4 10 8 0 21 -12 13 -11 14 8 2 13 -8 20 -21 18 -36 -1 -13 2 -26 7 -30
5 -3 3 -14 -5 -26 -13 -18 -13 -23 0 -43 13 -20 13 -23 0 -28 -10 -4 -13 -13
-9 -23 5 -13 2 -15 -17 -9 -22 7 -22 6 -17 -61 7 -79 10 -101 19 -110 4 -3 4
-13 1 -22 -4 -10 -2 -13 5 -8 7 4 12 1 12 -8 0 -8 -5 -16 -12 -18 -9 -3 -10
-16 -1 -53 11 -48 10 -49 -25 -87 -33 -36 -60 -47 -32 -12 20 23 21 414 1 414
-9 0 -11 -7 -7 -24 3 -12 2 -26 -2 -30 -8 -8 -12 -59 -9 -131 4 -135 -5 -268
-20 -292 -9 -13 -18 -21 -21 -18 -7 7 -4 542 3 575 3 14 5 76 5 139 1 80 4
111 11 104 6 -6 10 -45 10 -86z m1147 -1319 c-2 -13 4 -31 13 -40 16 -19 149
-281 219 -433 23 -49 53 -114 68 -144 15 -30 26 -64 24 -75 -3 -21 -2 -21 13
-1 15 18 17 17 60 -30 25 -28 45 -55 45 -61 0 -5 14 -20 30 -33 17 -12 29 -30
28 -39 -2 -9 8 -21 22 -29 18 -8 32 -29 44 -65 10 -29 25 -68 34 -86 15 -33 9
-58 -8 -32 -8 12 -10 12 -10 2 0 -8 9 -16 20 -19 12 -3 27 -25 40 -60 11 -31
27 -65 35 -77 8 -11 15 -26 15 -32 0 -7 17 -50 39 -96 21 -45 44 -101 52 -123
7 -22 17 -45 21 -51 4 -6 15 -30 23 -54 14 -39 14 -41 -1 -29 -15 12 -16 11
-9 -11 10 -36 34 -70 48 -70 8 0 8 -3 -2 -9 -11 -7 -10 -11 6 -20 12 -6 24
-18 27 -28 6 -14 5 -16 -5 -5 -15 14 -33 16 -24 2 3 -5 1 -10 -4 -10 -6 0 -11
6 -11 14 0 16 -71 138 -77 132 -6 -6 78 -157 99 -178 10 -10 23 -16 28 -13 26
16 2 -23 -80 -133 -50 -67 -95 -133 -100 -148 -13 -34 -23 -24 -45 46 -10 30
-21 60 -25 65 -4 6 -10 19 -12 30 -3 11 -9 29 -14 39 -5 14 -4 17 6 11 15 -9
17 -14 -38 98 -24 48 -45 97 -47 109 -3 12 -18 49 -35 84 -16 35 -30 72 -30
83 0 12 -5 21 -11 21 -6 0 -9 7 -5 15 3 8 -5 36 -18 62 -41 83 -134 311 -142
348 -1 6 -14 37 -27 70 -14 33 -46 112 -71 175 -25 63 -50 124 -55 135 -13 28
-71 186 -71 192 0 3 7 0 15 -7 24 -20 18 6 -7 31 -13 12 -16 19 -8 15 8 -4 3
2 -13 14 -15 12 -25 26 -22 30 3 5 0 12 -6 16 -8 4 -7 9 2 15 12 7 11 14 -5
41 -10 18 -33 60 -49 93 -17 33 -36 63 -42 67 -6 5 -6 8 0 8 6 0 5 4 -2 8 -13
8 -53 105 -53 128 0 9 7 14 16 12 11 -2 22 -22 30 -53 13 -53 49 -134 77 -176
29 -43 114 -245 122 -289 1 -8 7 -26 12 -40 6 -14 8 -31 6 -37 -3 -7 0 -13 7
-13 6 0 8 -4 5 -10 -3 -5 5 -33 18 -62 13 -29 27 -66 31 -83 7 -27 32 -87 57
-137 5 -10 9 -23 9 -30 0 -7 14 -40 31 -73 16 -33 32 -71 33 -85 5 -35 23 -85
57 -158 16 -35 29 -65 29 -67 0 -11 43 -75 47 -71 3 3 -15 45 -40 93 -25 48
-53 117 -62 153 -10 36 -30 92 -45 125 -32 73 -45 119 -30 110 5 -3 10 -10 10
-15 0 -16 20 -63 25 -58 10 9 -38 108 -51 108 -8 0 -14 4 -14 9 0 5 7 8 16 7
9 0 18 5 20 12 1 7 0 8 -2 3 -10 -18 -43 2 -54 32 -7 18 -16 41 -20 52 -30 75
-44 135 -31 135 6 0 20 -31 32 -70 13 -38 26 -70 30 -70 9 0 -1 38 -24 92 -9
20 -18 52 -21 70 -3 18 -10 51 -15 73 -7 29 -7 42 2 47 8 5 6 8 -7 8 -11 0
-16 5 -13 14 3 7 2 17 -3 22 -5 5 -11 25 -14 44 -3 19 -9 36 -15 38 -5 2 -8 9
-5 16 3 7 -11 40 -30 72 -20 32 -36 64 -36 71 0 6 -3 13 -7 15 -14 6 -103 188
-93 188 6 0 9 3 9 8 -3 15 1 32 7 32 3 0 4 -10 2 -22z m272 -428 c0 -10 50
-110 60 -120 3 -3 11 -17 19 -32 8 -16 18 -28 23 -28 4 0 8 -8 9 -17 0 -11 3
-13 6 -5 8 19 23 14 23 -8 0 -11 5 -20 11 -20 6 0 8 -7 5 -16 -3 -8 -2 -13 2
-10 5 3 15 -3 24 -13 16 -18 70 -132 66 -137 -6 -6 -44 33 -57 58 -8 16 -39
49 -70 75 -45 40 -63 66 -104 153 -28 58 -50 117 -51 132 -1 16 -4 28 -8 28
-4 0 -5 7 -1 16 4 12 10 8 24 -16 11 -17 19 -35 19 -40z m-1285 -697 c3 -26 7
-63 21 -223 3 -36 7 -83 10 -105 l4 -40 -17 28 c-10 15 -21 27 -25 27 -13 0
-9 -12 8 -24 8 -7 17 -27 18 -46 2 -19 7 -47 11 -62 5 -18 3 -28 -4 -28 -6 0
-11 7 -11 16 0 9 -12 30 -27 48 l-26 31 7 -30 c5 -16 10 -59 12 -95 7 -108 21
-256 22 -241 1 8 9 19 17 25 13 10 12 22 -4 96 -23 105 -33 193 -22 185 12 -7
26 -76 30 -147 0 -16 5 -28 11 -28 5 0 7 26 3 63 -3 34 -2 59 1 56 4 -4 9 -46
12 -95 3 -49 7 -95 9 -102 4 -11 -22 -45 -93 -120 -6 -7 -17 -22 -22 -33 -6
-10 -14 -19 -18 -19 -4 0 -7 185 -8 411 0 225 2 405 6 400 3 -6 7 -55 8 -110
1 -54 7 -122 12 -151 6 -29 10 -54 10 -56 0 -2 5 -4 11 -4 6 0 8 8 6 18 -3 9
-8 39 -12 66 -6 45 -5 49 9 37 9 -8 16 -20 16 -27 0 -8 5 -14 10 -14 6 0 8 10
5 23 -4 13 -7 71 -9 128 -1 58 -5 110 -9 116 -8 12 2 68 10 59 3 -2 6 -17 8
-33z"/>
<path d="M6452 5353 c-28 -4 -37 -11 -52 -46 -16 -35 -17 -50 -9 -87 12 -54
22 -65 46 -55 25 11 83 14 77 3 -3 -4 4 -8 15 -8 12 0 21 5 21 10 0 13 37 13
45 0 14 -22 35 3 35 43 0 74 -68 151 -129 145 -9 0 -31 -3 -49 -5z"/>
<path d="M5945 5254 c-13 -14 -34 -46 -46 -71 -19 -39 -20 -50 -10 -84 13 -42
20 -46 52 -26 17 10 23 10 26 0 6 -16 80 -17 85 -2 3 9 10 8 25 -1 31 -20 49
-6 58 42 12 69 6 100 -28 136 -27 28 -37 32 -84 32 -45 0 -58 -4 -78 -26z"/>
<path d="M6580 4590 c-34 -7 -54 -19 -83 -52 -53 -59 -59 -79 -53 -175 5 -83
47 -241 68 -254 5 -4 44 -5 86 -3 46 3 80 0 88 -7 10 -9 14 -9 14 0 0 6 12 11
26 11 14 0 23 -4 20 -8 -2 -4 5 -8 17 -9 12 0 16 1 10 4 -7 3 -13 9 -13 14 0
6 6 9 13 8 25 -3 38 1 32 11 -3 6 0 10 7 11 7 0 22 2 33 5 13 2 28 -6 41 -23
17 -20 28 -24 47 -19 20 5 27 14 32 45 3 21 15 48 26 60 11 11 15 21 9 21 -5
0 -10 14 -10 31 0 17 -12 53 -27 80 -27 47 -27 49 -9 62 23 17 13 37 -17 37
-16 0 -30 15 -53 58 -41 77 -74 95 -178 98 -45 2 -101 -1 -126 -6z m229 -30
c10 -5 25 -20 33 -33 l16 -23 -153 1 c-152 0 -154 0 -158 23 -3 14 2 26 12 32
21 12 227 13 250 0z m55 -102 c8 -13 17 -33 21 -46 l6 -22 -143 1 c-189 2
-198 4 -198 38 0 47 13 51 162 51 132 0 138 -1 152 -22z m-374 -78 c0 -7 6 -7
18 -1 12 6 34 6 63 0 24 -6 110 -9 190 -7 159 3 167 1 189 -52 10 -23 10 -33
1 -44 -9 -11 -9 -15 1 -18 10 -4 11 -12 3 -34 l-10 -29 -212 -1 -211 -1 -11
25 c-15 32 -10 36 25 17 69 -36 94 -5 43 55 -23 27 -28 29 -18 10 6 -14 18
-33 27 -42 14 -16 13 -18 -6 -18 -25 0 -72 20 -72 31 0 4 6 9 13 12 10 4 10 7
0 18 -11 11 -13 10 -13 -4 0 -28 -17 -19 -29 14 -14 40 -14 79 -1 79 6 0 10
-5 10 -10z"/>
<path d="M5525 4263 c-48 -8 -95 -51 -121 -110 -13 -30 -29 -51 -34 -48 -5 3
-19 1 -31 -5 -19 -11 -20 -13 -4 -30 18 -20 13 -36 -29 -93 -33 -45 -28 -136
10 -207 24 -42 37 -56 57 -58 19 -2 26 2 29 18 3 21 8 21 178 23 169 2 175 1
175 -18 -1 -27 11 -33 48 -26 25 5 33 12 35 34 2 15 13 34 25 43 l22 16 -23
-7 c-18 -5 -22 -3 -19 14 2 11 14 34 27 51 19 25 25 46 26 91 1 32 5 78 8 102
5 34 3 47 -10 58 -9 7 -31 37 -50 66 -48 76 -65 83 -186 88 -56 2 -116 1 -133
-2z m230 -103 c17 -14 37 -79 29 -92 -6 -9 -367 -11 -377 -2 -3 4 5 28 18 55
21 40 30 49 57 52 60 9 258 -1 273 -13z m60 -110 c-10 -16 -15 -111 -6 -105 5
2 11 25 14 51 5 52 21 74 38 57 13 -13 4 -83 -11 -83 -5 0 -14 -28 -21 -62
-19 -94 -25 -98 -186 -100 -299 -6 -322 -2 -338 65 -9 33 12 37 38 7 16 -19
57 -28 57 -12 0 4 -15 14 -32 21 -61 27 -64 40 -20 116 l23 40 199 -3 c128 -3
205 0 217 7 23 13 36 14 28 1z"/>
<path d="M8404 7949 c-2 -3 33 -9 77 -12 44 -3 83 -8 87 -11 3 -4 -39 -52 -94
-109 -55 -56 -114 -119 -132 -140 -21 -24 -39 -37 -48 -33 -13 5 -14 -81 -10
-697 3 -386 10 -781 16 -877 15 -243 17 -1141 5 -2110 -5 -448 -9 -890 -8
-982 l2 -168 -37 0 c-28 0 -33 -3 -22 -10 8 -5 25 -10 38 -10 12 0 22 -5 22
-11 0 -8 -14 -10 -40 -6 -22 3 -40 1 -40 -4 0 -5 20 -9 45 -9 41 0 45 -2 45
-24 0 -40 12 -86 22 -86 7 0 9 22 6 56 -3 35 -1 57 6 59 41 13 970 20 1216 9
243 -10 476 -13 390 -4 -47 4 -119 9 -160 10 -62 1 -70 3 -45 11 16 5 181 9
365 10 184 0 376 2 425 4 50 1 111 3 138 4 35 1 47 5 47 16 0 12 -15 15 -72
16 -59 2 -49 3 51 10 69 5 127 6 130 4 2 -3 -12 -5 -33 -5 -22 0 -35 -4 -31
-10 4 -6 -1 -7 -11 -3 -12 4 -15 2 -12 -8 5 -15 56 -20 64 -7 3 4 14 8 24 8
12 0 17 5 14 13 -3 9 8 14 38 16 24 1 47 6 52 11 9 9 26 6 65 -13 19 -9 25 -9
28 1 3 6 13 12 24 12 10 0 19 5 19 11 0 8 -12 10 -33 6 -41 -6 -70 7 -36 16
36 10 21 14 -86 27 -156 18 -152 35 8 33 126 -1 130 -1 83 12 -26 7 -55 11
-62 8 -19 -7 -128 7 -119 15 4 4 19 7 33 8 171 4 186 5 172 14 -8 5 -64 10
-124 10 -60 0 -106 3 -102 7 4 5 11 8 14 9 4 0 43 4 87 9 44 4 89 9 100 10 11
1 31 3 44 4 40 2 19 10 -44 17 -33 3 -81 9 -107 13 -26 5 -81 7 -123 7 -41 -1
-75 1 -75 3 0 2 24 27 53 55 98 94 127 139 198 298 22 51 47 107 55 125 8 17
14 37 14 45 0 8 13 54 29 103 16 50 32 108 35 130 4 22 11 56 16 75 5 19 18
82 29 140 27 146 30 161 39 195 13 53 4 338 -13 410 -5 25 -47 244 -50 265 -1
8 -5 22 -8 30 -3 8 -8 27 -11 41 -3 15 -24 59 -46 98 -22 39 -40 75 -40 81 0
6 -14 31 -30 56 -24 34 -27 44 -15 44 9 0 14 4 10 10 -3 5 -12 7 -20 3 -8 -3
-15 0 -15 6 0 6 5 11 10 11 6 0 19 9 30 20 11 11 17 20 14 20 -3 0 9 20 27 45
18 25 37 45 43 45 17 0 76 57 76 73 0 7 9 23 21 35 20 22 19 62 -2 62 -5 0
-30 20 -54 45 l-45 44 41 75 c26 49 38 82 34 95 -7 23 -53 41 -103 41 -31 0
-34 2 -27 23 4 12 7 35 6 51 0 17 6 37 13 45 7 9 16 28 20 44 3 15 9 37 12 50
4 16 -2 32 -19 53 -23 27 -24 33 -15 89 5 33 11 91 13 130 21 348 21 350 -7
443 -19 67 -19 105 2 72 13 -21 18 -9 9 20 -4 14 -7 19 -8 13 -1 -7 -5 -13
-11 -13 -14 0 -12 28 2 32 9 3 7 13 -7 34 -11 16 -20 31 -20 34 -1 3 -7 23
-15 45 -8 22 -15 45 -15 50 -5 36 -19 75 -27 75 -5 0 -6 5 -3 11 4 5 0 18 -9
28 -9 10 -19 28 -21 41 -5 26 -22 53 -81 133 -48 62 -45 68 13 36 25 -14 31
-15 18 -4 -11 9 -42 28 -70 42 -27 14 -75 53 -107 86 -57 60 -87 79 -248 159
-111 54 -87 61 31 9 95 -43 134 -49 58 -10 -71 36 -179 70 -179 56 0 -8 -4 -7
-9 2 -9 14 -297 94 -401 111 -30 5 -84 14 -119 20 -36 6 -74 10 -85 8 -12 -1
-27 2 -35 6 -9 6 -12 5 -8 -1 4 -6 -52 -8 -161 -5 -273 6 -1104 7 -1108 1z
m340 -34 c50 -3 258 -8 461 -11 204 -4 393 -8 420 -10 28 -2 85 -4 128 -5 42
-1 77 -6 77 -10 0 -4 8 -8 18 -7 41 0 129 -15 147 -27 11 -6 34 -12 50 -13 46
-2 251 -65 330 -102 161 -76 328 -224 415 -368 23 -37 50 -81 61 -99 37 -59
128 -357 114 -372 -3 -2 -6 -2 -7 0 -30 48 -38 69 -27 69 8 0 6 6 -4 18 -13
15 -14 21 -4 32 10 10 9 12 -5 7 -17 -6 -22 2 -19 31 1 6 -5 12 -12 12 -8 0
-17 7 -21 15 -3 8 -12 15 -20 15 -17 0 -49 54 -39 64 11 10 -155 174 -217 214
-30 20 -64 42 -75 47 -11 6 -59 32 -106 58 -87 48 -168 81 -177 73 -2 -3 51
-32 119 -65 82 -39 146 -78 189 -115 36 -31 71 -56 77 -56 23 0 107 -80 109
-103 2 -21 22 -65 34 -72 16 -10 84 -150 114 -235 14 -41 32 -85 38 -97 6 -13
8 -26 5 -29 -4 -4 -11 6 -17 22 -51 141 -157 327 -237 415 -48 53 -158 142
-249 201 -90 59 -271 151 -349 177 -147 49 -385 71 -650 60 -82 -4 -352 -10
-599 -13 -247 -3 -452 -8 -454 -11 -13 -13 16 -20 79 -19 38 0 69 -2 69 -5 0
-3 269 -6 597 -6 625 0 738 -6 873 -45 36 -10 99 -28 140 -40 180 -53 367
-166 496 -302 84 -88 153 -215 215 -394 22 -66 47 -132 54 -149 19 -42 37
-398 21 -423 -11 -18 -77 -27 -86 -12 -5 8 -15 10 -26 6 -15 -6 -17 -5 -6 5
19 20 15 26 -19 33 -23 4 -41 0 -66 -15 -32 -20 -58 -20 -37 0 28 27 81 48 98
39 15 -9 17 -7 12 10 -6 16 0 24 24 37 30 16 32 24 15 81 -2 6 10 23 26 38 32
31 37 57 14 76 -16 13 -21 50 -6 50 20 0 18 39 -3 58 -38 35 -90 47 -148 35
-51 -10 -54 -10 -86 18 -19 17 -44 29 -61 29 -38 0 -42 7 -23 40 16 27 15 30
-16 80 -30 48 -31 55 -22 92 13 47 7 57 -57 95 l-45 26 -42 -22 c-47 -23 -66
-26 -66 -11 0 5 -14 1 -31 -8 -30 -16 -31 -16 -42 2 -7 10 -26 38 -43 61 -17
23 -34 57 -38 77 -5 30 -11 37 -36 40 l-29 4 30 -34 c23 -26 29 -41 25 -58 -5
-19 -1 -27 19 -36 14 -6 25 -17 25 -24 0 -7 5 -25 12 -39 11 -24 16 -26 67
-24 31 2 67 8 81 15 14 6 41 14 60 18 30 5 40 2 68 -23 38 -35 39 -45 11 -65
l-21 -15 31 -43 c20 -28 29 -51 25 -61 -4 -11 -1 -17 7 -17 7 0 3 -10 -11 -25
l-24 -25 23 -31 c23 -31 22 -77 -1 -106 -13 -16 -3 -17 21 -1 11 7 16 18 13
31 -8 29 16 37 64 19 36 -13 50 -14 96 -3 44 10 60 9 93 -3 56 -20 65 -38 36
-77 l-24 -32 29 -25 c27 -23 27 -26 10 -36 -10 -6 -28 -18 -40 -28 l-21 -16
24 -26 c14 -14 23 -27 20 -29 -51 -37 -85 -47 -75 -21 6 14 1 16 -31 9 -21 -4
-49 -7 -63 -7 -24 0 -40 -12 -40 -32 0 -4 6 -6 13 -3 53 20 58 17 17 -11 -24
-17 -47 -29 -51 -26 -4 2 -21 -10 -39 -26 -18 -17 -36 -30 -41 -30 -5 0 -9 -5
-9 -10 0 -19 55 3 118 48 35 24 66 42 69 38 3 -3 -2 -8 -11 -12 -9 -3 -16 -10
-16 -16 0 -5 5 -6 10 -3 6 3 10 2 10 -4 0 -16 -22 -24 -30 -11 -6 9 -20 1 -51
-28 -51 -48 -49 -57 2 -12 19 16 37 30 42 30 16 0 5 -16 -28 -40 -36 -26 -46
-44 -20 -34 8 4 15 10 15 15 0 5 7 9 15 9 8 0 15 5 15 10 0 6 6 10 13 10 6 -1
1 -10 -12 -20 -13 -11 -17 -20 -10 -20 7 0 21 7 31 17 10 9 18 11 18 6 0 -6
-10 -18 -22 -27 -20 -15 -21 -16 -3 -11 11 4 27 9 35 12 8 2 6 -1 -5 -9 -11
-7 -35 -13 -52 -13 -18 0 -33 -4 -32 -10 0 -5 10 -9 22 -7 21 3 22 2 3 -13
-35 -27 7 -18 50 11 32 22 41 24 57 14 34 -21 30 -2 -8 33 l-37 35 30 21 c38
26 55 27 23 1 -23 -20 -23 -20 -2 -20 12 0 21 -6 21 -15 0 -8 8 -15 18 -16 10
0 12 -3 5 -6 -26 -10 -13 -25 15 -18 129 33 122 34 122 -14 0 -28 -6 -47 -20
-61 -16 -16 -17 -20 -5 -20 21 0 19 -42 -4 -66 -12 -14 -18 -31 -15 -52 2 -18
0 -32 -5 -32 -5 0 -7 -9 -4 -19 6 -24 -36 -150 -76 -227 -36 -69 -86 -132 -97
-121 -4 4 10 25 31 47 22 22 34 40 28 40 -6 0 -27 -18 -46 -40 -19 -22 -39
-40 -45 -40 -7 0 -12 -5 -12 -11 0 -5 -5 -7 -11 -4 -10 7 66 85 82 85 3 0 14
12 23 26 16 23 13 22 -36 -11 -29 -20 -55 -40 -58 -43 -19 -26 -41 -34 -55
-22 -14 12 -13 16 6 36 12 12 27 20 34 18 7 -3 16 -1 20 5 3 6 1 11 -4 11 -6
0 -11 4 -11 10 0 5 6 7 13 4 7 -2 21 4 31 15 18 19 17 19 -46 0 -60 -19 -96
-39 -71 -39 7 0 15 5 18 10 3 6 11 10 18 10 6 0 0 -12 -14 -26 l-26 -26 -42
21 c-40 21 -61 21 -61 0 0 -6 9 -7 20 -4 15 5 36 -8 85 -51 76 -67 81 -88 31
-132 -45 -39 -161 -122 -172 -122 -5 0 -18 -7 -29 -16 -17 -13 -18 -16 -5 -24
8 -5 27 -10 41 -10 15 0 29 -7 33 -15 3 -8 12 -15 21 -15 8 0 15 -4 15 -8 0
-5 11 -14 25 -20 14 -6 25 -17 25 -24 0 -15 -136 -108 -157 -108 -7 0 -13 5
-13 10 0 6 -7 10 -15 10 -8 0 -15 5 -15 10 0 19 -26 10 -123 -40 -54 -27 -97
-47 -97 -45 0 2 34 27 76 55 77 52 128 65 157 41 11 -9 20 -7 38 8 l24 19 -30
13 c-16 6 -48 15 -70 18 -23 4 -39 12 -37 19 1 7 -9 12 -25 12 -27 1 -27 1 -9
15 19 14 19 15 -7 15 -37 0 -34 12 11 50 20 17 28 27 16 21 -12 -6 -40 -26
-63 -46 -24 -19 -48 -35 -54 -35 -21 -1 -89 -58 -75 -63 7 -3 4 -5 -7 -6 -57
-2 -68 -9 -112 -72 -24 -35 -56 -86 -70 -113 -14 -27 -31 -55 -38 -62 -6 -7
-18 -27 -25 -46 -8 -18 -23 -46 -35 -63 -23 -31 -39 -71 -49 -118 -4 -15 -11
-25 -15 -22 -9 5 -26 -35 -51 -116 -15 -50 -33 -141 -55 -269 -3 -19 -8 -48
-12 -65 -13 -63 -5 -378 12 -460 10 -44 21 -102 25 -130 10 -62 43 -169 78
-257 20 -51 34 -70 54 -79 15 -6 29 -17 32 -25 4 -10 23 -13 73 -12 60 2 75
-2 126 -31 53 -31 77 -36 63 -13 -3 5 -24 22 -48 38 -81 55 -85 65 -17 37 35
-14 69 -31 75 -39 6 -8 21 -14 33 -14 12 0 29 -7 37 -15 15 -15 48 -10 38 6
-3 5 -10 7 -15 3 -6 -3 -21 5 -34 18 -13 12 -41 37 -64 53 -44 33 -49 43 -26
52 21 7 33 -6 16 -16 -19 -12 0 -21 44 -19 22 1 40 -4 46 -13 9 -16 16 -17
118 -25 41 -3 90 -12 109 -20 19 -8 37 -13 39 -10 5 5 -37 32 -65 40 -34 11
-20 19 38 22 34 1 48 -1 43 -9 -4 -7 0 -8 11 -4 10 4 29 7 42 7 13 0 24 5 24
10 0 6 -17 10 -37 10 -21 0 -78 0 -128 0 l-90 0 35 20 c47 26 20 26 -32 -1
-42 -21 -73 -14 -43 11 32 27 13 30 -30 4 -49 -29 -57 -20 -24 28 29 40 14 50
-17 10 -32 -40 -40 -40 -48 -1 -3 18 -10 28 -17 24 -6 -4 -8 -13 -6 -20 7 -17
-70 -33 -109 -23 -60 15 -113 86 -166 222 -20 50 -21 60 -8 64 17 5 150 140
150 153 0 5 11 32 24 61 44 96 67 263 52 383 -3 28 -8 73 -11 100 -4 28 -18
85 -32 127 -15 43 -25 79 -22 81 36 30 206 137 218 137 11 0 7 -8 -14 -24 -16
-13 -27 -27 -23 -31 14 -14 -41 -47 -67 -41 -32 8 -33 -11 -1 -25 13 -6 26
-19 29 -29 3 -10 23 -32 47 -49 31 -22 47 -28 63 -22 11 4 33 3 47 -2 36 -14
59 -3 71 33 6 16 14 30 18 30 3 0 22 -14 40 -30 31 -29 34 -30 52 -14 17 15
20 15 49 -10 54 -45 121 -26 150 45 7 17 24 35 37 40 35 13 62 64 56 107 -7
51 30 86 90 88 23 0 49 4 57 7 22 11 47 -37 87 -167 33 -111 68 -275 59 -283
-6 -6 -36 93 -37 121 -1 24 -27 97 -28 79 -1 -12 10 -72 51 -283 17 -87 20
-128 15 -242 -3 -76 -10 -145 -15 -155 -6 -10 -12 -36 -15 -58 -21 -155 -64
-294 -87 -280 -5 3 -6 -3 -3 -13 2 -11 -2 -25 -9 -33 -7 -8 -29 -45 -48 -82
-55 -108 -192 -264 -241 -274 -15 -3 -36 -14 -45 -24 -9 -11 -23 -19 -31 -19
-7 0 -13 -8 -13 -17 0 -14 3 -14 23 4 12 11 31 23 42 27 17 6 16 3 -6 -20 -17
-16 -38 -26 -55 -26 -16 0 -44 -13 -64 -28 -46 -37 -290 -114 -440 -139 -63
-11 -173 -25 -245 -31 -124 -11 -455 -14 -540 -6 -22 2 -150 7 -285 11 -135 3
-256 8 -270 10 -14 3 -41 1 -60 -4 l-35 -9 48 -1 c26 -1 47 -5 47 -11 0 -6
-63 -10 -169 -10 l-168 0 3 22 c9 63 16 934 10 1278 -3 131 0 163 15 154 5 -3
9 -1 9 5 0 5 -6 11 -12 13 -13 5 -21 128 -9 128 3 0 5 170 4 378 -7 1579 -15
2388 -24 2575 l-11 218 68 72 c37 40 79 83 93 96 83 75 101 94 101 110 0 25
39 63 58 56 9 -3 56 -8 106 -10z m2343 -2027 c15 -12 8 -48 -11 -60 -6 -4 -12
-12 -12 -18 -1 -5 -2 -14 -3 -19 0 -5 -13 -24 -27 -41 l-27 -31 34 -35 c18
-19 28 -34 22 -34 -7 0 -57 -43 -112 -95 -78 -74 -94 -94 -73 -88 24 6 25 4
14 -10 -11 -13 -10 -15 7 -10 20 5 20 4 6 -23 -19 -37 -11 -43 20 -14 15 14
21 26 15 30 -17 10 0 39 32 56 16 8 37 23 47 32 34 33 100 82 110 82 18 0 12
-19 -10 -30 -11 -7 -18 -17 -16 -24 4 -9 -3 -12 -21 -8 -26 4 -26 4 -7 -11 19
-16 19 -16 -12 -23 -18 -3 -33 -10 -33 -15 0 -5 -7 -9 -16 -9 -14 0 -14 -3 -4
-15 10 -12 10 -15 -3 -15 -10 0 -14 -6 -11 -15 4 -9 0 -15 -10 -15 -9 0 -16
-6 -16 -13 0 -8 -9 -22 -19 -31 -11 -10 -17 -24 -14 -32 12 -32 -21 -9 -95 66
-44 44 -76 80 -71 80 22 0 154 161 147 180 -2 6 -21 -13 -43 -43 -28 -39 -46
-54 -61 -53 -15 1 -20 5 -15 16 4 8 24 51 45 95 21 44 52 110 70 147 30 65 32
67 71 70 42 3 80 -6 102 -24z m-281 -508 c50 -53 104 -122 104 -133 0 -2 18
-37 41 -78 59 -107 107 -237 124 -334 16 -97 35 -217 35 -226 0 -6 -7 -8 -17
-5 -15 6 -15 5 1 -13 12 -13 17 -32 15 -55 -2 -19 0 -38 4 -42 10 -10 9 -94
-1 -94 -9 0 -36 130 -28 137 3 3 1 16 -4 29 -6 14 -11 57 -11 97 -1 39 -6 77
-11 84 -5 6 -8 17 -6 25 1 7 -11 33 -28 58 -40 59 -46 70 -40 70 3 0 19 -20
34 -46 24 -37 31 -43 40 -31 10 11 8 20 -9 41 -11 14 -16 26 -11 26 10 0 7 27
-6 60 -3 8 -6 17 -7 20 -1 5 -15 34 -86 185 -12 28 -25 52 -29 55 -3 3 -13 16
-21 30 -9 14 -51 64 -93 113 -87 99 -79 121 10 27z m-526 -205 c0 -9 6 -12 15
-9 8 4 15 2 15 -4 0 -5 -15 -12 -33 -15 -19 -3 -57 -20 -86 -38 -44 -26 -55
-29 -63 -18 -8 11 -9 11 -5 -2 6 -17 -17 -42 -65 -72 -16 -10 -28 -13 -28 -7
0 14 -27 13 -36 -2 -5 -8 -2 -9 11 -4 10 3 -5 -17 -34 -45 -58 -59 -63 -78 -6
-25 20 19 55 44 78 56 l42 22 -24 -26 c-14 -14 -30 -26 -37 -26 -6 0 -18 -8
-25 -17 -11 -15 -11 -16 1 -5 23 20 35 14 15 -8 -11 -12 -13 -20 -6 -20 7 0 9
-5 6 -11 -4 -5 2 -18 14 -28 19 -17 19 -19 4 -42 l-17 -24 22 19 c21 18 22 18
22 1 0 -20 -153 -175 -172 -175 -7 1 -21 17 -30 36 -16 34 -15 39 2 94 10 32
23 66 29 76 6 11 22 48 37 84 25 62 70 130 104 157 18 15 145 83 155 83 3 0 3
-4 0 -10 -3 -5 9 -3 27 5 43 19 68 19 68 0z m313 -17 c55 -38 107 -90 169
-167 57 -72 113 -169 103 -180 -11 -10 -34 -9 -38 3 -5 13 -30 14 -57 2 -9 -4
-34 0 -55 7 -41 14 -65 13 -65 -4 0 -5 7 -9 15 -9 26 0 16 -17 -27 -45 -24
-15 -63 -45 -88 -65 -25 -21 -58 -44 -75 -53 -31 -17 -85 -62 -85 -72 0 -3 8
-5 17 -5 14 0 14 -3 5 -12 -9 -9 -15 -10 -20 -2 -4 6 -15 15 -25 21 -16 9 -17
11 -3 22 10 9 16 10 16 3 0 -6 7 -9 16 -5 13 5 13 7 2 14 -9 6 -9 9 -1 9 52 1
267 219 230 234 -7 2 -3 5 8 5 15 1 17 3 6 10 -10 7 -8 12 10 25 13 9 18 16
12 16 -7 0 -27 -14 -45 -31 -18 -17 -43 -38 -55 -46 -13 -8 -23 -20 -23 -26 0
-5 9 -2 20 8 11 10 23 16 26 13 3 -3 -16 -27 -43 -53 -40 -38 -44 -45 -23 -39
14 3 22 3 17 -1 -4 -5 -17 -9 -30 -10 -12 -2 -21 -7 -20 -13 1 -5 -4 -13 -13
-16 -23 -9 2 34 39 66 18 14 29 29 26 32 -3 3 -23 -12 -45 -34 -21 -22 -61
-54 -89 -72 -27 -17 -62 -43 -77 -57 -15 -13 -30 -23 -32 -20 -9 9 31 46 85
81 31 20 87 67 125 105 38 37 94 89 124 115 30 26 52 48 48 48 -3 0 -25 -16
-49 -35 -62 -53 -124 -86 -143 -79 -10 4 -15 13 -12 20 7 17 -6 18 -23 2 -10
-11 -11 -10 -5 5 5 13 2 16 -10 11 -9 -3 -16 -10 -16 -16 0 -5 -4 -7 -10 -3
-12 8 -79 -36 -85 -57 -6 -16 -35 -34 -35 -21 0 16 52 72 91 98 56 37 226 172
234 185 14 22 -14 7 -83 -45 -40 -30 -77 -55 -82 -55 -14 0 0 30 14 30 6 1 20
8 31 18 26 22 54 58 38 49 -26 -16 -19 10 8 28 16 11 29 24 29 28 0 5 -12 -1
-26 -12 -15 -12 -32 -21 -38 -21 -6 0 -22 -10 -36 -21 -23 -19 -23 -19 -2 -9
24 12 64 -1 43 -14 -6 -4 -11 -3 -11 3 0 7 -8 7 -24 0 -27 -12 -76 -5 -76 11
0 6 8 17 18 25 20 16 135 94 140 95 2 0 18 -10 35 -22z m-249 -79 c-2 -4 8
-10 22 -13 17 -5 24 -12 20 -21 -3 -10 1 -15 13 -15 14 0 17 -7 15 -32 -5 -75
-18 -99 -68 -125 l-31 -16 20 23 c18 21 16 20 -25 -5 -25 -15 -46 -32 -48 -36
-2 -5 -10 -9 -18 -9 -11 0 -9 7 6 33 11 17 20 35 20 40 0 4 -24 -5 -52 -20
-70 -37 -68 -36 -68 -25 0 5 11 14 24 20 28 12 56 75 29 65 -12 -5 -14 -3 -8
8 5 8 -1 5 -13 -5 -12 -11 -20 -22 -17 -25 4 -3 10 1 15 9 6 8 10 10 10 4 0
-5 -14 -23 -31 -40 -19 -18 -28 -22 -24 -11 4 9 11 17 16 17 5 0 9 5 9 10 0
20 -21 9 -38 -20 -9 -16 -21 -30 -26 -30 -6 0 -5 5 2 12 16 16 15 28 -3 28
-17 0 -20 16 -6 24 5 4 11 1 13 -5 2 -7 15 -1 32 15 16 14 24 26 19 26 -6 0
-16 -7 -23 -15 -7 -8 -17 -15 -22 -15 -6 0 -8 7 -4 15 3 8 1 15 -4 15 -6 0
-10 -3 -10 -7 -1 -16 -40 -54 -49 -49 -9 6 52 76 66 76 3 0 22 12 41 28 56 43
130 78 167 78 19 0 32 -3 29 -7z m-174 -258 c0 -20 -79 -90 -265 -235 -55 -43
-100 -82 -100 -87 0 -4 -6 -14 -14 -21 -10 -10 -12 -10 -7 0 11 19 -7 13 -34
-12 -27 -24 -43 -47 -62 -86 -7 -14 -16 -28 -21 -31 -5 -3 -8 -9 -7 -13 3 -18
-14 -76 -22 -76 -6 0 -8 6 -5 14 3 8 9 32 13 53 4 21 14 48 22 61 13 20 13 22
-2 22 -10 0 -14 5 -11 10 4 6 10 8 14 6 10 -7 36 42 28 51 -4 3 -7 -1 -7 -10
0 -9 -5 -19 -12 -23 -8 -5 -9 0 -4 17 4 13 8 29 8 36 1 6 7 9 13 6 7 -2 15 3
19 12 3 9 10 14 15 10 5 -3 12 -1 16 5 3 5 34 24 68 41 67 33 140 86 224 162
84 77 133 109 133 88z m553 -38 c4 -3 0 -14 -9 -24 -8 -9 -17 -36 -19 -59 -3
-34 -11 -48 -47 -80 -25 -22 -44 -48 -45 -61 -3 -41 -63 -69 -63 -29 0 11 27
46 63 81 34 34 54 58 44 55 -12 -4 -17 -2 -14 6 2 7 11 13 20 13 8 0 19 4 23
8 4 4 2 7 -6 7 -10 0 -10 3 1 17 33 39 -28 -7 -76 -59 -48 -51 -80 -111 -69
-129 9 -15 -13 -10 -25 5 -8 10 -9 16 -1 21 5 3 10 11 10 17 0 6 -10 3 -22 -8
-44 -38 41 61 107 126 37 36 75 73 84 82 17 18 34 22 44 11z m-779 -344 c35
-103 46 -250 26 -335 -11 -44 -22 -63 -54 -91 -45 -38 -175 -107 -185 -97 -3
3 -6 76 -6 162 0 164 6 193 57 298 27 57 107 156 121 152 7 -3 25 -42 41 -89z"/>
<path d="M10000 7269 c-14 -6 -46 -10 -72 -10 -64 0 -127 -37 -173 -100 -40
-53 -46 -57 -65 -34 -17 21 -53 19 -83 -6 -21 -16 -31 -18 -46 -10 -33 18 -78
13 -95 -10 -8 -12 -28 -30 -45 -40 -42 -25 -42 -62 -1 -81 32 -14 42 -54 16
-64 -8 -3 -17 -16 -20 -29 -3 -13 -15 -27 -26 -30 -11 -3 -20 -10 -20 -15 0
-4 -23 -8 -51 -8 -29 -1 -55 -5 -60 -9 -4 -4 -4 -29 1 -54 11 -57 11 -414 0
-462 -4 -19 -4 -39 0 -44 4 -4 10 -34 14 -65 5 -56 5 -57 -26 -72 -17 -9 -33
-14 -36 -11 -2 2 3 22 12 45 22 56 19 73 -5 28 -11 -21 -23 -38 -28 -38 -5 0
-11 -9 -14 -20 -3 -12 -14 -20 -26 -20 -26 0 -28 37 -6 80 9 17 11 30 5 30 -5
0 -19 -18 -30 -41 l-21 -41 25 -33 c32 -42 32 -46 -1 -85 -22 -27 -32 -31 -59
-27 -18 3 -35 3 -38 0 -11 -11 27 -43 51 -43 l24 0 -30 -32 -31 -33 -30 30
-31 31 16 43 c18 51 19 61 5 61 -5 0 -10 -8 -10 -17 -1 -10 -7 -31 -16 -48
-11 -22 -13 -24 -10 -7 2 12 0 22 -5 22 -5 0 -9 -6 -9 -14 0 -8 -5 -18 -12
-22 -14 -9 -48 31 -48 57 0 10 -4 19 -10 19 -11 0 -13 -30 -4 -54 4 -11 106
-95 163 -133 7 -5 -31 -38 -51 -46 -10 -3 -18 -11 -18 -17 0 -6 -4 -9 -8 -6
-5 3 -24 -5 -44 -17 -50 -31 -176 -140 -177 -153 -2 -27 -28 -64 -45 -64 -17
0 -16 4 9 30 16 17 24 30 19 30 -5 0 -18 -10 -29 -22 -17 -20 -20 -21 -23 -5
-2 9 -7 17 -12 17 -4 0 -8 6 -7 13 1 32 -4 48 -13 42 -6 -3 -17 0 -25 9 -19
18 -19 30 -1 23 8 -3 22 4 32 16 10 12 12 16 4 10 -20 -18 -35 -16 -20 2 7 8
18 15 24 15 15 0 57 56 49 64 -4 4 -39 -27 -79 -69 -66 -68 -94 -88 -94 -67 0
4 23 30 51 57 28 28 60 64 71 80 13 19 0 9 -35 -24 -64 -62 -84 -66 -32 -6 40
44 46 59 11 26 -13 -12 -27 -21 -32 -20 -20 3 -28 -2 -15 -10 12 -7 12 -13 3
-24 -7 -7 -9 -17 -5 -20 7 -8 -15 -37 -29 -37 -5 0 -7 3 -5 8 3 4 -6 8 -19 8
-31 2 -74 30 -74 48 0 8 25 40 55 71 50 52 72 87 44 70 -11 -7 -56 34 -52 47
2 4 -3 5 -11 2 -16 -6 -40 21 -31 36 3 5 14 10 24 10 9 0 26 6 36 14 10 7 26
11 36 9 10 -3 24 1 32 9 13 11 13 15 0 31 -9 9 -11 17 -6 17 6 0 16 -7 23 -15
16 -19 33 -9 21 13 -5 9 -11 33 -13 52 -3 33 -1 35 30 38 18 2 36 10 39 18 10
27 53 42 84 31 35 -14 51 0 24 18 -41 29 -47 37 -41 61 8 29 44 69 72 78 29 9
74 -10 74 -30 0 -15 2 -15 25 0 30 20 39 20 32 2 -3 -8 -1 -16 4 -18 6 -2 -8
-21 -31 -43 -60 -58 -110 -125 -110 -149 0 -14 11 -4 38 36 20 32 75 96 122
144 74 77 91 101 37 56 -9 -8 -20 -12 -23 -9 -4 3 24 38 61 77 60 62 65 69 38
59 -18 -6 -51 -35 -78 -70 -43 -53 -65 -71 -65 -53 0 11 42 68 79 107 19 20
30 37 24 37 -6 0 -37 -29 -68 -65 -56 -64 -77 -76 -91 -54 -8 13 54 79 74 79
27 0 122 83 122 107 0 8 -23 -9 -50 -37 -28 -27 -56 -50 -62 -50 -6 0 -4 8 5
18 25 28 20 34 -12 18 -16 -9 -31 -13 -34 -10 -2 3 -16 -14 -30 -38 -32 -56
-50 -71 -128 -110 -62 -32 -64 -34 -62 -70 2 -31 -4 -43 -35 -74 -20 -20 -52
-42 -72 -49 -32 -11 -35 -15 -35 -51 0 -49 -36 -90 -87 -99 -77 -14 -87 -70
-23 -119 19 -15 35 -32 35 -38 0 -6 -15 -29 -34 -52 -53 -65 -54 -82 -10 -119
20 -18 48 -42 62 -55 17 -17 28 -20 35 -13 14 14 50 14 82 -1 28 -13 34 -48
10 -68 -12 -10 -12 -16 -3 -34 7 -11 11 -26 10 -31 -1 -6 7 -17 17 -25 19 -13
18 -15 -24 -57 -24 -24 -53 -43 -64 -43 -33 0 -36 37 -6 82 35 52 26 59 -14
11 -23 -27 -31 -46 -28 -66 3 -23 -4 -33 -50 -67 -39 -30 -53 -48 -55 -68 -2
-46 -3 -50 -11 -58 -15 -15 -6 -26 17 -20 14 3 26 1 28 -5 2 -5 14 5 28 23 14
20 17 27 6 19 -15 -12 -19 -12 -34 3 -15 15 -15 19 -2 43 26 47 134 102 205
106 11 0 22 3 25 6 16 19 53 30 79 25 30 -6 81 -60 81 -84 0 -13 2 -13 53 19
21 13 36 26 33 28 -3 3 -15 -2 -28 -11 -36 -26 -46 -18 -13 10 l30 26 -37 -22
c-32 -18 -38 -19 -38 -6 0 9 -5 16 -10 16 -6 0 -15 11 -20 25 -10 26 -24 32
-35 15 -10 -16 -22 -12 -28 10 -6 23 7 64 40 128 17 33 18 42 7 42 -24 0 -16
10 58 82 90 86 133 115 142 93 9 -24 -1 -38 -49 -70 -50 -34 -52 -37 -29 -59
22 -22 37 -21 25 2 -8 15 -4 22 19 36 29 16 30 16 55 -12 14 -16 32 -37 39
-48 8 -10 18 -16 22 -12 4 5 0 16 -9 26 -10 10 -17 22 -17 27 0 5 -7 16 -16
26 -13 14 -13 22 -4 41 10 19 10 21 -1 11 -20 -20 -34 -15 -17 5 9 9 18 26 22
38 7 22 114 134 129 134 11 0 -3 -20 -52 -74 l-36 -39 46 36 c52 42 65 46 49
17 -10 -18 -9 -19 14 -9 14 7 22 17 19 25 -8 21 10 17 30 -7 10 -11 25 -18 33
-15 8 3 20 8 28 12 17 7 27 -41 19 -92 l-6 -37 116 6 c89 5 117 3 117 -6 0 -8
3 -8 9 2 5 7 34 23 64 36 81 33 201 135 234 200 9 16 18 25 20 18 2 -7 0 -21
-6 -32 -6 -11 -8 -27 -4 -36 5 -14 2 -16 -14 -11 -15 5 -23 0 -31 -19 -15 -32
-15 -46 -1 -22 10 17 12 16 34 -7 l24 -26 17 35 c16 35 72 97 132 148 l33 28
30 -65 c17 -36 28 -70 24 -76 -3 -5 -1 -10 4 -10 18 0 11 32 -29 130 -25 64
-18 61 17 -7 16 -32 22 -39 18 -20 -4 20 -1 27 10 27 8 0 15 5 15 12 0 6 3 8
7 5 10 -11 33 51 26 71 -6 16 -6 16 10 0 15 -15 15 -19 1 -47 -8 -17 -25 -38
-37 -47 l-22 -16 23 7 c21 6 22 4 16 -22 -4 -15 -14 -33 -23 -40 -12 -9 -13
-12 -2 -13 9 0 11 -8 7 -24 -3 -14 -2 -28 4 -31 13 -8 2 -53 -22 -87 -11 -16
-15 -28 -9 -28 6 0 22 17 35 38 13 20 35 48 49 61 l26 24 10 -26 c12 -31 58
-57 103 -57 51 -1 107 -16 130 -37 11 -10 29 -17 39 -15 25 4 24 -10 -1 -26
-11 -7 -20 -17 -20 -22 0 -16 40 -12 46 5 4 8 12 15 20 15 17 0 18 -17 2 -23
-10 -4 -10 -6 0 -6 15 -1 74 60 66 68 -3 3 -14 -4 -24 -16 -22 -27 -24 -28
-44 -7 -22 21 -20 29 12 60 l27 26 -43 -22 c-53 -26 -65 -21 -23 9 17 12 30
27 28 33 -1 6 5 13 13 15 13 4 13 3 0 -7 -13 -10 -13 -11 0 -7 8 2 15 9 15 15
0 5 3 14 8 18 4 4 7 11 7 16 0 5 -34 -9 -76 -32 -72 -39 -103 -47 -73 -18 32
30 117 78 140 78 15 0 38 14 59 35 41 42 34 44 -21 8 -40 -27 -42 -27 -56 -8
-7 11 -12 28 -10 37 3 11 0 15 -8 11 -18 -6 -55 32 -55 57 0 29 -9 25 -47 -20
-35 -41 -69 -52 -79 -26 -3 9 -12 12 -21 9 -18 -7 -17 -5 35 72 l34 50 -49
-52 c-38 -41 -52 -50 -61 -41 -18 18 -15 33 16 69 15 18 20 29 12 24 -8 -5
-21 -17 -29 -28 -9 -13 -17 -15 -24 -8 -6 6 0 23 22 52 34 47 33 64 -2 31 -13
-12 -29 -22 -37 -22 -7 0 -19 -8 -26 -17 -26 -34 -15 9 12 46 19 27 14 24 -19
-12 l-45 -49 -15 22 c-9 12 -13 29 -10 37 5 13 2 13 -15 4 -19 -10 -22 -9 -22
6 0 10 11 37 24 60 21 37 22 42 8 48 -11 4 -27 -7 -51 -35 -32 -39 -45 -48
-98 -64 -18 -6 -23 -3 -23 9 0 17 29 86 40 95 4 3 33 41 65 85 l58 80 -71 -75
c-40 -41 -72 -78 -72 -82 0 -3 -18 -29 -40 -57 -54 -68 -70 -61 -65 27 4 82
-20 215 -46 261 -11 18 -18 36 -15 38 11 11 58 -91 70 -153 l14 -69 0 69 c-1
97 -48 196 -93 196 -3 0 -3 -5 1 -12 4 -7 3 -8 -4 -4 -6 4 -9 13 -6 20 3 8 -3
17 -13 20 -10 3 -43 29 -73 58 -57 54 -109 82 -172 93 -43 8 -44 10 -23 31 8
9 15 22 15 30 0 8 -12 1 -30 -18 -25 -28 -31 -31 -40 -18 -14 21 -2 77 26 127
31 53 30 62 -1 33 -24 -23 -25 -23 -45 -5 -29 26 -25 43 15 62 19 9 35 23 35
30 0 20 51 16 85 -7 36 -24 46 -25 38 -4 -12 33 56 47 89 17 17 -15 20 -14 48
15 16 18 30 35 30 40 0 4 12 20 26 35 20 22 32 27 50 23 17 -5 24 -2 24 8 0
17 60 30 100 21 20 -4 29 -2 33 9 9 24 42 19 77 -10 l31 -26 -12 25 c-11 24
-47 48 -72 46 -7 0 -23 -5 -37 -10z m-405 -530 c72 -34 153 -115 185 -185 38
-80 39 -132 5 -191 -14 -23 -21 -43 -15 -43 5 0 17 18 26 40 9 23 19 38 23 35
3 -4 6 -40 6 -81 0 -52 -4 -74 -12 -74 -15 0 -17 -26 -3 -35 20 -12 11 -100
-13 -136 -20 -30 -31 -36 -87 -46 -36 -7 -84 -12 -108 -13 -41 0 -88 -16 -124
-42 -9 -7 -19 -10 -22 -7 -6 5 -11 178 -21 617 l-4 194 62 -7 c34 -4 80 -15
102 -26z"/>
<path d="M9347 6928 c-27 -20 -30 -20 -63 -4 -50 23 -66 20 -110 -20 -21 -19
-47 -43 -56 -51 -17 -15 -20 -15 -43 7 -25 23 -25 24 -78 7 -30 -9 -63 -17
-74 -17 -36 0 -52 -30 -44 -82 8 -47 4 -54 -24 -48 -5 1 -24 -1 -42 -5 -38 -7
-44 -32 -15 -58 23 -21 32 -21 32 -2 0 8 -4 15 -10 15 -5 0 -10 4 -10 8 0 5
14 7 30 4 23 -3 30 0 30 12 0 18 25 22 35 6 9 -15 35 -12 35 4 0 7 -7 19 -15
26 -9 7 -15 29 -15 51 0 34 3 39 28 45 15 3 44 10 64 15 39 10 64 3 101 -29
16 -14 19 -14 28 -2 5 8 7 20 4 27 -2 7 0 15 5 18 6 4 10 -1 10 -9 0 -10 9
-16 25 -16 25 0 33 14 15 25 -14 9 9 52 32 58 25 7 59 -6 77 -27 18 -21 28
-20 34 4 3 11 21 27 41 35 20 9 36 17 36 20 0 12 -38 2 -63 -17z"/>
<path d="M9694 5640 c-16 -24 -31 -37 -38 -33 -6 4 -17 8 -23 9 -24 4 -13 -14
20 -35 81 -50 85 -89 15 -140 -47 -35 -58 -38 -58 -16 0 8 -5 15 -10 15 -6 0
-13 -7 -16 -15 -4 -8 -12 -15 -19 -15 -9 0 -12 14 -8 50 2 28 0 50 -4 50 -4 0
-19 -16 -31 -35 -13 -18 -35 -41 -48 -49 l-23 -16 20 34 c11 19 19 38 17 42
-1 5 4 20 11 34 l14 25 -22 -19 c-11 -11 -21 -25 -21 -33 0 -19 -58 -103 -71
-103 -13 0 -24 29 -14 38 4 4 10 1 12 -5 6 -18 23 -16 23 2 0 8 -4 15 -10 15
-21 0 -8 27 38 80 53 61 17 38 -41 -26 -20 -23 -51 -47 -67 -54 -17 -7 -30
-16 -30 -21 0 -19 -40 -7 -70 21 -35 33 -48 34 -31 2 17 -33 13 -60 -13 -77
-13 -9 -28 -15 -32 -14 -5 1 -17 -1 -27 -6 -22 -9 -35 1 -19 17 22 22 12 29
-18 12 -21 -13 -26 -20 -17 -26 6 -4 -4 -5 -23 -2 -47 9 -47 10 -20 39 25 27
21 32 -11 15 -10 -6 -19 -17 -19 -25 0 -18 -29 -47 -40 -40 -5 3 -11 1 -15 -5
-6 -9 8 -15 29 -11 5 1 23 -5 40 -12 50 -23 74 -29 81 -17 3 5 18 10 32 10 34
0 113 46 113 66 0 11 6 14 16 10 9 -3 20 -6 26 -6 6 0 3 -10 -8 -22 -10 -12
-13 -18 -7 -14 9 5 11 2 7 -8 -3 -8 -12 -12 -20 -9 -8 3 -14 1 -14 -4 0 -19
-40 -55 -54 -50 -10 4 -13 1 -9 -9 3 -7 1 -14 -3 -14 -5 0 -29 -18 -54 -41
-49 -45 -71 -59 -94 -59 -15 0 -86 66 -86 81 0 4 14 21 31 38 19 20 25 31 16
31 -8 0 -23 -12 -32 -27 -10 -16 -30 -40 -44 -55 -30 -31 -64 -29 -93 5 -19
22 -15 32 27 70 19 17 19 17 -17 1 -31 -15 -37 -22 -40 -55 -3 -35 -1 -39 19
-39 12 0 28 -7 36 -15 14 -14 34 -14 67 -1 9 4 34 -9 63 -33 29 -24 42 -41 35
-44 -10 -4 -9 -8 2 -17 13 -10 13 -11 0 -8 -8 3 -48 -23 -90 -56 -42 -34 -87
-69 -100 -79 l-25 -19 28 16 c54 31 83 51 125 84 23 19 42 30 42 24 0 -6 -44
-42 -97 -80 -54 -38 -120 -89 -148 -114 -45 -39 -85 -53 -85 -28 0 12 100 100
114 100 6 -1 -5 -15 -24 -32 -19 -16 -26 -25 -15 -19 36 19 57 40 51 49 -3 5
24 33 60 63 132 109 145 123 69 73 -75 -49 -222 -168 -243 -196 -7 -10 -22
-23 -33 -28 -32 -17 -35 14 -5 47 21 22 23 29 11 31 -8 2 -13 8 -9 13 3 5 10
7 15 4 10 -7 103 65 95 73 -3 2 -31 -9 -63 -25 -32 -17 -63 -28 -70 -26 -19 7
-3 32 31 48 17 9 39 22 49 29 17 13 17 15 -3 48 l-20 35 57 37 c32 21 47 35
33 31 -14 -4 -29 -11 -35 -16 -5 -5 -29 -9 -53 -9 -29 0 -55 -8 -80 -25 -36
-25 -82 -34 -82 -16 0 5 -9 7 -20 4 -18 -5 -25 5 -21 30 2 11 -34 8 -46 -4
-14 -14 -36 -2 -27 13 5 8 1 9 -10 5 -10 -4 -20 -7 -22 -7 -2 0 -4 -6 -4 -14
0 -17 24 -28 45 -20 10 4 21 -5 32 -25 14 -25 25 -31 51 -31 18 0 46 -7 61
-15 27 -13 28 -18 23 -60 -4 -38 -1 -49 17 -66 25 -23 26 -32 6 -49 -18 -15
-19 -28 -3 -61 11 -24 16 -26 78 -24 36 1 90 3 121 4 37 1 61 7 75 19 30 28
62 25 78 -6 22 -43 53 -67 69 -53 8 6 17 8 20 4 4 -3 7 1 7 10 0 11 6 15 18
11 14 -5 15 -4 2 5 -13 9 -10 15 18 40 17 16 32 32 32 35 0 4 12 18 27 32 19
17 23 28 16 35 -8 8 -13 8 -17 0 -4 -6 -12 -11 -19 -11 -6 0 -2 6 8 14 11 8
24 12 30 10 6 -3 26 12 45 32 28 29 30 34 12 24 -13 -6 -26 -9 -29 -7 -2 3 5
10 17 17 17 9 27 7 55 -10 20 -12 33 -26 29 -31 -3 -5 -9 -7 -14 -4 -4 3 -14
-3 -21 -12 -12 -14 -11 -15 11 -8 14 4 31 10 38 12 24 10 11 -8 -55 -71 -37
-36 -65 -68 -61 -72 4 -4 14 -1 23 6 24 20 18 0 -7 -21 -29 -26 -39 -24 -35 6
3 25 55 89 79 98 7 2 10 7 7 11 -9 9 -64 -29 -124 -87 -36 -34 -46 -50 -37
-56 15 -9 2 -22 -32 -35 -15 -5 -17 -9 -8 -18 9 -9 19 -6 43 11 22 16 39 21
59 18 15 -3 36 0 46 7 10 7 28 15 39 18 20 5 20 1 17 -216 -4 -260 -4 -621 0
-831 l3 -150 33 -3 c17 -2 32 -7 32 -12 0 -12 -65 -97 -109 -143 -45 -48 -188
-144 -250 -168 -28 -11 -38 -18 -25 -19 63 -1 240 96 312 172 114 118 142 185
178 423 3 22 9 58 13 81 13 68 14 187 2 179 -6 -3 -11 -2 -11 4 0 5 4 11 9 13
8 3 32 249 31 320 0 20 3 39 7 41 4 3 5 76 2 162 -7 153 -8 159 -40 223 -27
52 -49 78 -109 127 -95 76 -162 144 -154 156 3 6 0 18 -7 27 -13 17 6 2 61
-47 14 -12 48 -36 76 -52 59 -33 107 -83 161 -166 20 -32 39 -60 40 -62 2 -2
6 -2 9 2 4 3 -8 30 -26 59 -18 29 -33 57 -34 63 -1 5 -7 19 -13 30 -8 14 -8
26 -2 38 11 18 -5 25 -16 7 -6 -10 -75 18 -75 32 0 4 10 13 22 19 13 7 31 23
41 36 24 30 33 29 41 -3 5 -19 2 -30 -11 -41 -17 -13 -17 -14 3 -8 25 6 36
-20 39 -90 2 -48 37 -121 43 -91 2 10 -4 60 -13 110 -9 51 -17 118 -18 149 -1
31 -6 57 -10 57 -4 0 -6 4 -3 9 4 5 0 11 -6 14 -10 3 -10 8 -2 16 9 9 18 2 38
-31 l26 -43 -6 50 c-4 28 -11 52 -15 55 -5 3 0 13 10 22 27 23 30 16 46 -123
2 -24 12 -78 20 -119 19 -95 19 -97 -5 -75 -24 22 -24 22 -1 -51 10 -32 24
-86 31 -119 7 -33 18 -64 23 -70 7 -7 8 -4 4 7 -4 12 -2 15 8 12 9 -4 15 6 20
28 4 18 11 38 16 44 14 17 19 83 6 78 -14 -5 -39 44 -30 59 4 6 11 3 19 -8 11
-14 16 -16 28 -6 11 9 15 9 18 -1 4 -10 48 51 86 120 49 89 71 132 82 165 12
39 39 97 40 87 1 -3 3 -29 6 -58 5 -42 1 -61 -16 -95 l-22 -42 56 58 c31 31
62 57 68 57 7 0 5 -7 -4 -17 -23 -27 -30 -43 -19 -43 5 0 16 6 23 13 7 7 40
32 73 55 59 40 103 82 86 82 -4 0 -18 -9 -31 -20 -29 -25 -33 -25 -19 1 11 21
10 21 -12 5 -37 -25 -41 -19 -10 15 19 21 35 29 47 26 60 -17 69 -18 52 -7
-25 15 -22 39 7 66 39 36 29 39 -14 5 -46 -36 -51 -37 -91 -12 l-31 18 35 47
c20 25 32 46 27 46 -6 0 -13 -5 -16 -10 -11 -17 -86 -62 -93 -55 -3 3 34 45
83 92 50 47 67 67 39 45 -28 -23 -57 -48 -64 -57 -7 -8 -16 -12 -21 -9 -5 3
-18 -11 -30 -30 -12 -20 -26 -36 -31 -36 -7 0 -7 4 -1 13 6 6 13 21 16 32 7
20 7 20 -8 1 -8 -11 -18 -17 -21 -13 -4 4 -13 2 -21 -5 -23 -19 -23 -5 0 38
86 160 86 164 -5 39 l-51 -70 8 40 c8 44 4 44 -20 0 l-16 -30 6 35 c4 19 16
50 26 69 11 18 18 36 15 38 -7 7 -53 -66 -67 -105 -9 -25 -14 -30 -24 -22 -9
8 -15 8 -20 0 -3 -5 -13 -10 -21 -10 -16 0 -19 33 -4 61 9 15 7 19 -5 19 -8 0
-21 -12 -27 -27 l-11 -28 -7 35 c-4 19 -8 27 -9 18 -2 -27 -14 -28 -46 -3
l-29 24 23 41 c29 52 19 52 -15 0z m-4 -515 c-29 -31 -25 -36 15 -19 44 18 65
18 65 -1 0 -8 5 -15 11 -15 8 0 8 -4 -1 -15 -6 -8 -9 -18 -7 -22 3 -5 -9 -26
-27 -47 -26 -32 -36 -37 -55 -31 -25 8 -56 68 -46 93 3 8 0 19 -6 23 -18 11
-3 54 23 66 36 17 54 -4 28 -32z"/>
<path d="M9551 3680 c0 -42 -10 -107 -20 -145 -11 -38 -17 -73 -15 -77 3 -4 0
-8 -6 -8 -7 0 -9 -8 -5 -21 5 -16 4 -19 -6 -14 -9 6 -11 4 -6 -8 3 -8 0 -21
-8 -27 -7 -6 -16 -27 -20 -48 -5 -27 -21 -50 -62 -88 -72 -68 -48 -81 32 -18
32 24 66 44 76 44 10 0 21 5 24 10 3 6 15 10 25 10 11 0 25 6 32 13 10 11 27
6 98 -30 47 -25 89 -49 95 -54 12 -12 65 -12 65 1 0 6 -11 10 -24 10 -13 0
-46 16 -72 35 -46 33 -63 42 -90 50 -6 2 -14 20 -18 39 -8 41 -21 47 -30 14
-4 -18 -8 -20 -17 -11 -10 10 -16 10 -27 1 -12 -10 -13 -3 -8 52 10 110 10
243 -1 295 l-11 50 -1 -75z"/>
<path d="M9460 3512 c0 -6 -29 -44 -65 -85 -56 -64 -78 -81 -175 -131 -61 -32
-147 -70 -191 -86 -44 -15 -83 -31 -86 -34 -19 -19 106 14 141 38 39 25 196
77 224 74 23 -3 32 4 62 54 19 31 44 68 55 80 21 25 48 89 40 97 -3 2 -5 -1
-5 -7z"/>
<path d="M12495 7933 c-162 -3 -199 -10 -150 -25 43 -13 383 -22 425 -11 20 5
36 17 38 26 3 15 -6 17 -80 15 -46 -1 -150 -4 -233 -5z"/>
<path d="M12645 7221 c-38 -10 -109 -37 -157 -60 -84 -40 -113 -60 -65 -45 12
3 -3 -10 -33 -31 -30 -21 -68 -49 -84 -64 l-29 -26 14 25 c8 14 23 33 33 42
10 10 15 18 10 18 -27 0 -156 -161 -209 -259 -62 -116 -93 -212 -111 -345 -19
-138 -12 -263 20 -376 14 -46 23 -87 20 -92 -3 -4 2 -18 9 -30 13 -21 61 -111
202 -383 68 -131 136 -257 145 -270 4 -5 29 -50 55 -100 26 -49 65 -123 87
-163 l40 -73 -17 -102 c-9 -56 -23 -109 -31 -118 -10 -11 -11 -18 -3 -26 9 -9
7 -33 -5 -94 -11 -57 -13 -86 -6 -93 5 -5 10 -21 11 -35 0 -25 1 -25 11 -4 9
19 18 21 102 21 50 1 112 4 138 8 45 6 47 5 41 -16 -5 -17 -2 -21 13 -19 27 4
65 -11 59 -22 -4 -5 7 -9 24 -9 16 0 33 5 37 11 3 6 18 9 32 6 15 -3 53 3 86
13 56 18 60 18 72 2 7 -9 16 -14 20 -9 4 4 2 7 -5 7 -7 0 -9 4 -6 10 4 6 11 5
19 -3 8 -6 13 -14 11 -17 -4 -6 160 -2 190 4 11 3 53 5 93 5 86 1 89 17 4 20
-32 1 -70 4 -83 7 -13 3 -43 7 -66 8 -72 4 -60 16 18 17 132 2 159 3 159 9 0
3 26 4 57 4 39 -1 45 0 18 3 -22 2 -43 10 -47 16 -5 9 -15 9 -38 0 -20 -7 -28
-8 -24 -1 5 7 -12 9 -52 4 -112 -12 -166 -9 -185 11 -13 13 -25 64 -44 185
-14 92 -28 174 -31 181 -3 8 59 140 137 293 78 153 154 308 169 344 15 36 51
117 80 180 67 148 75 167 94 215 28 73 64 209 76 285 31 188 -38 434 -176 626
-53 75 -167 182 -214 201 -69 28 -105 46 -133 65 -80 57 -395 79 -552 39z
m469 -60 c142 -41 272 -107 263 -134 -1 -5 -22 -16 -46 -23 -38 -11 -46 -10
-83 9 -23 12 -62 40 -87 62 -71 62 -92 73 -31 16 30 -28 75 -65 99 -81 28 -19
39 -31 30 -35 -8 -2 -86 -25 -174 -50 -260 -75 -325 -96 -410 -132 l-80 -34
-20 27 c-43 59 -179 214 -187 214 -14 0 -9 -10 32 -54 53 -57 150 -179 150
-188 0 -17 -20 -5 -101 60 -46 37 -105 81 -131 97 -27 17 -46 35 -45 40 7 20
154 118 232 155 203 95 382 111 589 51z m346 -212 c22 -22 39 -44 39 -47 -3
-19 4 -31 41 -71 22 -23 40 -48 40 -54 0 -6 -7 -2 -15 9 -19 25 -19 15 1 -24
8 -18 20 -32 26 -32 6 0 5 7 -3 18 -12 16 -12 16 5 0 18 -16 14 -44 -5 -33
-24 15 6 -44 32 -63 27 -19 43 -114 41 -252 -3 -256 -12 -291 -62 -230 -37 44
-130 230 -168 335 -16 44 -62 160 -102 258 -39 98 -69 181 -67 184 8 7 120 42
140 42 9 1 35 -17 57 -40z m-243 -66 c-4 -32 -12 -128 -18 -213 -6 -85 -13
-162 -16 -170 -3 -10 -13 1 -28 30 -36 70 -131 155 -195 174 -153 46 -341 -19
-402 -138 -80 -157 -78 -317 8 -446 66 -100 138 -139 254 -139 66 -1 107 10
168 43 19 9 36 15 40 12 3 -3 -13 -27 -34 -53 -22 -27 -57 -77 -79 -113 -48
-81 -47 -80 -41 -80 2 0 25 30 50 68 25 37 70 99 100 137 136 173 146 188 167
257 12 38 19 82 17 98 -3 19 0 30 7 30 7 0 59 -31 116 -68 57 -38 137 -90 177
-115 39 -26 72 -52 72 -59 0 -7 -98 -62 -218 -123 -119 -60 -288 -151 -374
-202 -86 -51 -161 -93 -167 -93 -5 0 -31 33 -57 73 -26 39 -80 107 -121 151
-40 43 -72 83 -71 90 2 7 -25 50 -59 97 -65 86 -76 113 -45 102 14 -5 14 -3
-3 10 -15 11 -17 18 -8 28 6 8 10 40 8 74 -2 34 3 73 10 90 7 17 21 57 31 90
9 33 20 65 24 70 4 6 13 26 19 46 25 78 79 107 371 201 69 22 152 50 185 63
125 47 119 49 112 -22z m-882 20 c18 -16 76 -59 129 -97 53 -38 96 -74 96 -79
0 -6 -6 -18 -14 -26 -40 -45 -119 -246 -156 -398 -10 -38 -24 -53 -141 -148
-72 -59 -137 -109 -145 -112 -13 -5 -18 13 -17 70 0 9 -3 17 -7 17 -3 0 -12
22 -19 49 -13 53 -12 282 2 292 5 3 16 37 26 75 27 104 75 220 127 307 52 87
67 93 119 50z m926 -54 c28 -57 91 -211 141 -344 22 -60 62 -152 90 -203 27
-52 48 -96 46 -98 -3 -2 -47 26 -99 62 -52 36 -127 84 -167 106 l-74 41 6 41
c3 23 11 130 17 239 7 108 14 197 16 197 1 0 12 -19 24 -41z m-298 -193 c74
-32 121 -77 157 -148 25 -51 30 -73 30 -132 0 -92 -13 -137 -61 -207 -30 -45
-51 -64 -99 -88 -82 -40 -134 -47 -204 -27 -74 22 -134 81 -178 177 -27 59
-34 68 -44 54 -9 -12 -12 -4 -16 42 -8 91 1 140 26 148 11 4 24 7 29 6 4 -1 7
6 7 14 0 9 -6 12 -15 9 -9 -4 -15 0 -15 10 0 10 9 16 23 16 17 0 23 6 25 26 3
35 11 46 30 42 9 -2 30 9 47 25 62 57 172 71 258 33z m-501 -514 c63 -94 124
-175 203 -269 33 -39 71 -87 85 -104 22 -30 23 -32 5 -25 -11 4 -42 16 -70 26
-27 10 -107 45 -177 78 -70 34 -183 84 -252 113 -69 28 -126 53 -126 54 0 4
91 74 200 154 33 25 60 49 60 54 0 18 22 -7 72 -81z m1150 -74 c-5 -7 -25 -49
-44 -93 -79 -181 -80 -183 -97 -178 -13 4 -13 3 -2 -5 11 -8 -2 -41 -69 -173
-45 -90 -87 -165 -91 -167 -5 -2 -9 -7 -9 -12 0 -20 -185 -406 -213 -445 -21
-29 -66 -107 -70 -122 -1 -4 -11 -17 -21 -28 -11 -12 -29 -48 -41 -81 -11 -32
-26 -58 -33 -57 -7 2 -12 -2 -12 -7 0 -6 5 -10 10 -10 6 0 10 -5 10 -11 0 -5
-5 -7 -12 -3 -7 5 -9 2 -5 -9 3 -9 -2 -26 -13 -39 -20 -23 -27 -15 -11 12 6 8
7 19 3 25 -3 5 -7 105 -8 220 -1 190 0 213 17 241 11 17 19 38 19 45 -1 8 -8
1 -16 -15 -13 -22 -18 -26 -25 -15 -5 8 -9 25 -9 38 0 28 43 122 75 166 29 38
60 99 47 91 -12 -7 -81 -107 -103 -149 -16 -30 -17 -30 -23 -9 -4 12 -6 51 -5
85 1 35 -1 68 -4 74 -4 6 -3 32 2 57 5 26 5 49 1 51 -5 3 -8 33 -8 67 0 61 15
98 41 98 6 0 25 11 43 25 18 14 35 25 39 25 3 0 22 11 43 24 20 12 87 49 147
81 61 32 116 62 123 68 7 5 15 7 19 4 3 -4 17 3 31 13 14 11 42 23 63 26 21 4
46 15 55 25 9 11 23 19 31 19 7 0 13 4 13 8 0 5 18 15 40 22 22 7 40 17 40 22
0 4 10 8 21 8 16 0 19 -3 11 -12z m-1217 -196 c94 -41 211 -91 260 -112 169
-70 160 -63 161 -128 0 -31 8 -199 17 -372 10 -173 18 -371 20 -440 2 -119 1
-125 -18 -125 -15 0 -19 6 -17 23 1 13 -9 38 -23 56 -14 18 -25 36 -25 40 0 4
-17 33 -38 64 -21 31 -42 64 -45 72 -4 8 -11 22 -17 30 -5 8 -47 80 -91 160
-93 165 -180 318 -231 405 -44 76 -228 436 -228 447 0 5 24 -4 53 -18 28 -15
129 -60 222 -102z"/>
<path d="M11843 5633 c-24 -93 -48 -203 -83 -368 -23 -109 -111 -467 -116
-474 -9 -11 -16 10 -9 26 13 28 14 43 5 43 -11 0 -34 -80 -26 -88 4 -3 -1 -17
-10 -30 -16 -24 -16 -25 5 -19 11 3 21 1 21 -4 0 -5 -8 -9 -18 -9 -15 0 -19
-8 -20 -35 -1 -20 -5 -41 -8 -47 -5 -8 -1 -9 11 -4 15 5 16 4 5 -9 -8 -9 -15
-33 -17 -53 -3 -34 -59 -285 -103 -462 -10 -41 -21 -93 -25 -115 -3 -22 -10
-51 -14 -65 -5 -14 -14 -52 -21 -85 -16 -76 -43 -167 -35 -115 20 117 37 204
45 226 19 50 80 359 80 408 0 21 4 27 15 22 8 -3 15 -1 15 4 0 6 -6 10 -14 10
-11 0 -13 10 -9 43 4 23 10 45 15 48 5 3 3 9 -5 12 -12 5 -15 18 -11 59 2 29
7 61 10 71 3 10 0 17 -9 17 -11 0 -14 -26 -15 -129 -1 -85 -8 -162 -22 -229
-11 -55 -20 -103 -20 -107 0 -3 -5 -3 -10 0 -6 4 -8 10 -5 15 7 11 36 178 37
214 1 17 -4 32 -10 34 -7 2 -12 8 -12 13 0 6 4 8 9 5 11 -7 20 90 11 123 -3
14 -3 43 2 64 4 20 11 54 14 74 3 20 10 48 16 62 5 14 9 28 9 31 -1 20 13 49
21 44 6 -4 9 -1 6 7 -3 8 2 19 10 25 9 6 15 29 16 60 0 30 7 54 16 62 13 10
13 11 -2 6 -12 -4 -18 -1 -18 7 0 21 27 159 50 252 17 72 45 224 55 297 2 14
6 37 10 53 10 36 -10 36 -29 -1 -17 -32 -76 -260 -76 -291 0 -10 6 -22 13 -24
7 -3 5 -6 -5 -6 -10 -1 -18 -4 -18 -7 0 -21 -32 -259 -35 -265 -3 -4 -11 -35
-19 -70 -7 -35 -37 -154 -65 -264 -28 -110 -63 -252 -76 -317 -13 -64 -42
-190 -63 -280 -22 -89 -49 -210 -62 -268 -12 -58 -37 -161 -55 -230 -54 -207
-89 -411 -81 -475 7 -58 -16 -155 -36 -155 -6 0 -5 -6 2 -15 16 -19 30 -10 30
18 1 12 7 33 14 46 13 24 14 24 21 -20 4 -24 14 -56 21 -71 8 -15 14 -40 14
-56 0 -16 7 -35 15 -42 8 -7 15 -19 15 -26 0 -8 13 -22 29 -32 24 -15 41 -17
88 -11 32 4 101 8 153 8 64 1 90 4 80 11 -10 6 21 9 93 8 60 0 107 -5 107 -10
0 -6 85 -7 225 -2 211 6 225 6 231 -11 7 -17 8 -16 16 4 7 19 13 21 42 16 20
-4 36 -2 40 4 5 7 -4 11 -23 11 -36 0 -35 -6 -14 81 l16 69 104 -5 c57 -3 124
-10 149 -16 55 -14 323 -7 350 10 18 10 18 10 1 11 -10 0 -16 4 -13 8 2 4 55
9 118 10 141 2 147 3 73 12 -51 7 -133 7 -277 1 -16 0 -28 -6 -28 -11 0 -7 18
-8 50 -4 34 5 50 3 50 -5 0 -6 -10 -11 -22 -11 -13 -1 -62 -2 -110 -4 -49 -2
-88 1 -88 5 0 5 23 9 50 9 28 0 50 5 50 10 0 6 -32 8 -87 4 -49 -3 -95 -6
-103 -6 -8 -1 -68 0 -132 0 l-118 2 0 36 c0 28 3 34 13 26 28 -23 156 -33 328
-27 95 3 183 8 194 10 11 2 65 7 120 11 251 16 293 22 125 18 -480 -13 -598
-14 -635 -6 -30 8 14 11 175 12 265 3 298 5 306 13 4 3 -105 6 -242 7 -151 0
-252 4 -258 10 -7 7 28 10 104 11 63 0 106 4 96 8 -31 12 2 20 54 12 25 -3
124 -4 220 -1 96 3 162 7 145 8 -16 2 -50 5 -75 7 -25 2 -161 6 -303 9 -186 4
-256 2 -251 -6 10 -16 -23 -37 -49 -32 -20 4 -20 4 -3 -4 23 -10 6 -25 -18
-16 -10 4 -16 17 -15 38 2 54 22 170 31 183 6 7 7 16 4 21 -3 6 0 28 8 49 8
22 17 80 21 129 4 49 11 94 15 99 5 6 16 49 25 97 l18 88 41 -4 c22 -2 174 -4
337 -5 l297 -1 6 -45 c4 -25 13 -51 20 -58 11 -10 11 -15 -1 -25 -9 -9 -10
-18 -3 -32 5 -10 10 -29 10 -42 0 -18 2 -20 10 -8 5 8 10 11 11 5 0 -5 2 -20
5 -33 2 -14 0 -21 -6 -17 -5 3 -10 2 -10 -4 0 -5 6 -12 13 -14 9 -4 9 -7 -1
-15 -8 -5 -10 -16 -6 -27 7 -18 8 -18 15 1 4 10 5 -1 2 -27 -3 -26 1 -70 10
-105 8 -32 18 -81 22 -109 12 -92 16 -103 61 -161 33 -43 41 -59 32 -65 -10
-6 -7 -13 12 -26 14 -10 42 -36 63 -58 l38 -40 -7 30 c-12 59 -17 68 -68 129
-60 71 -102 136 -88 136 5 0 12 -7 16 -15 3 -8 12 -15 21 -15 17 0 20 16 5 25
-12 8 0 37 14 32 6 -2 12 -12 13 -23 4 -46 22 -117 32 -127 15 -15 14 -1 -3
67 -14 53 -12 96 5 96 4 0 11 -21 14 -47 4 -27 15 -81 26 -121 10 -40 19 -83
19 -95 0 -13 3 -26 6 -30 4 -3 7 -24 8 -47 2 -36 0 -41 -18 -39 -40 3 -41 -3
-1 -12 22 -5 271 -11 553 -13 282 -2 517 -7 521 -12 4 -5 18 -44 31 -87 13
-43 27 -80 30 -82 9 -6 -13 91 -23 101 -4 4 -7 28 -7 52 0 25 -5 59 -10 76
-10 30 -70 267 -115 456 -12 52 -29 131 -38 175 -14 75 -70 328 -101 456 -8
31 -12 67 -9 81 3 15 -2 37 -12 51 -10 16 -12 26 -5 29 8 2 8 10 0 28 -9 23
-10 23 -6 3 2 -13 1 -23 -4 -23 -9 0 -23 61 -15 68 3 3 5 0 5 -6 0 -7 5 -12
10 -12 6 0 2 12 -9 28 -19 26 -52 158 -50 204 0 22 1 22 9 3 7 -16 9 -17 9 -3
1 9 -5 21 -12 25 -8 4 -17 19 -20 33 -6 24 -6 24 10 5 14 -18 15 -18 9 -2 -3
10 -6 23 -6 28 0 6 -4 7 -10 4 -5 -3 -10 -2 -10 4 0 5 4 11 9 13 5 2 4 14 -1
28 -6 14 -12 34 -13 45 -1 11 -10 49 -19 84 -10 35 -16 72 -13 82 3 11 1 17
-4 13 -5 -3 -9 1 -10 8 0 7 -3 24 -5 38 -2 14 -5 33 -5 43 0 9 -5 17 -11 17
-5 0 -8 7 -5 15 4 8 2 17 -3 20 -5 3 -9 13 -8 23 0 9 -3 26 -6 37 -3 11 -12
44 -20 74 -8 30 -13 57 -11 61 2 3 -5 44 -16 91 -11 46 -26 111 -33 144 -14
59 -22 91 -65 245 -36 127 -44 150 -51 150 -13 0 -19 -42 -10 -61 7 -12 6 -19
-3 -22 -9 -4 -9 -8 -1 -14 6 -4 11 -26 11 -49 0 -22 5 -56 11 -75 6 -18 20
-61 31 -94 11 -33 22 -79 25 -101 4 -23 11 -55 16 -72 5 -18 6 -32 3 -32 -3 0
0 -7 7 -15 7 -8 9 -15 5 -15 -4 0 -3 -6 3 -12 5 -7 12 -31 14 -54 3 -23 8 -47
13 -53 4 -7 7 -29 7 -49 0 -20 3 -41 8 -47 13 -18 21 -65 10 -65 -5 0 -12 11
-16 25 -13 51 -16 15 -3 -39 8 -39 17 -56 28 -56 12 0 13 -2 3 -8 -10 -7 -10
-20 -2 -63 17 -82 40 -182 47 -199 3 -8 5 -18 5 -22 -1 -5 3 -8 9 -8 8 0 9
-11 5 -32 -3 -17 -3 -28 1 -24 7 6 29 -61 37 -116 3 -15 14 -63 25 -108 12
-44 30 -124 41 -178 33 -165 61 -296 65 -302 2 -3 15 -59 29 -125 15 -66 33
-147 41 -180 8 -33 35 -150 60 -260 41 -179 70 -286 90 -337 7 -17 -17 -18
-381 -18 -214 -1 -398 -2 -409 -2 -11 -1 -59 -1 -106 0 l-86 2 -22 118 c-12
64 -29 150 -37 191 -7 40 -14 90 -14 110 0 21 -3 41 -6 44 -4 3 -8 21 -9 39
-6 71 -26 188 -50 303 -13 66 -25 137 -25 157 0 40 -14 56 -34 39 -10 -8 -53
-8 -152 -1 -77 5 -170 10 -207 10 -42 0 -66 4 -62 10 3 5 -8 2 -25 -8 -21 -12
-33 -14 -38 -6 -12 18 -62 26 -129 18 -71 -7 -87 -21 -18 -16 28 3 45 0 45 -7
0 -15 -93 -14 -107 0 -9 9 -20 9 -40 1 -45 -17 -131 -23 -137 -9 -2 7 -5 4 -5
-5 -1 -10 -6 -18 -11 -18 -6 0 -9 -3 -8 -7 0 -5 -2 -15 -5 -23 -3 -8 -15 -49
-27 -90 -21 -75 -35 -118 -50 -155 -17 -39 -39 -122 -75 -270 -45 -188 -45
-185 -36 -185 4 0 20 53 36 118 15 64 32 124 36 132 11 20 -1 -80 -12 -102 -5
-9 -11 -38 -14 -65 -3 -26 -12 -70 -19 -98 -8 -27 -14 -57 -13 -66 0 -9 -6
-50 -13 -93 l-13 -76 -66 0 c-92 0 -242 18 -258 32 -10 8 -13 7 -13 -2 0 -8
-4 -9 -12 -3 -8 5 -142 8 -310 7 -164 -1 -298 0 -298 3 0 2 14 58 30 126 17
67 37 151 44 187 13 59 35 155 80 338 9 34 15 66 14 70 -1 7 4 23 22 69 6 14
5 25 0 28 -6 4 -4 13 5 22 10 9 14 28 12 51 -2 20 -1 50 3 67 19 77 30 134 36
175 3 24 7 47 9 51 3 3 14 48 25 100 11 52 23 101 27 109 3 8 7 39 9 68 3 58
13 84 15 36 l1 -29 13 32 c15 32 23 65 38 156 3 12 10 42 16 66 10 36 10 45
-1 52 -11 7 -10 11 2 19 8 5 11 10 5 10 -5 0 -4 4 4 9 8 5 13 27 14 55 0 25 4
46 7 46 4 0 6 11 5 25 -2 14 3 29 12 34 11 6 12 10 4 15 -15 10 -14 26 2 26 8
0 14 6 15 13 3 43 15 103 21 112 5 5 8 17 9 25 0 8 3 31 6 50 4 19 9 51 12 70
3 19 9 44 14 55 4 11 18 65 30 120 12 55 31 138 42 185 11 47 21 101 23 121 3
20 5 41 6 45 1 5 1 19 0 32 -2 45 -17 20 -38 -65z"/>
<path d="M6322 3110 c-31 -13 -114 -112 -128 -152 -4 -10 -10 -18 -14 -18 -5
0 -6 -10 -3 -22 3 -17 2 -19 -5 -10 -7 11 -11 10 -16 -5 -11 -27 -10 -27 42
-26 44 2 45 1 14 -6 -42 -11 -65 -31 -35 -31 41 0 83 13 83 26 0 7 9 16 20 19
11 3 20 11 20 16 0 6 -10 7 -22 4 -25 -8 -24 -8 -55 -6 -13 0 -23 4 -23 9 0
10 102 8 119 -3 9 -5 12 -4 8 2 -8 13 112 25 133 13 10 -6 11 -9 3 -10 -7 0
-13 -5 -13 -11 0 -8 4 -8 15 1 10 8 39 10 95 6 49 -3 80 -2 80 4 0 6 -35 10
-81 10 -52 0 -78 4 -74 10 4 7 -38 9 -129 7 -75 -3 -139 -1 -142 4 -2 5 5 11
18 13 31 7 271 17 383 17 62 0 85 3 73 10 -9 5 -65 10 -125 11 -130 2 -101 15
37 17 65 1 90 4 80 11 -8 5 -48 10 -87 10 -42 0 -73 4 -73 10 0 10 42 15 88
11 35 -3 26 16 -10 21 -18 3 -81 4 -140 1 -60 -2 -108 0 -108 5 0 4 35 9 78
11 42 2 97 7 122 11 l45 7 -60 2 c-33 1 -89 3 -125 6 -36 3 -75 1 -88 -5z"/>
<path d="M15928 2882 c-31 -13 -4 -31 62 -41 83 -14 543 -15 535 -1 -3 5 -13
6 -22 3 -13 -5 -15 -2 -9 13 5 15 4 16 -5 7 -7 -7 -19 -9 -34 -3 -13 5 -25 6
-29 3 -10 -11 -126 -14 -126 -3 0 5 -5 10 -11 10 -5 0 -7 -4 -4 -10 3 -5 2
-10 -4 -10 -5 0 -12 6 -14 13 -4 10 -6 10 -6 0 -1 -7 -9 -13 -18 -13 -15 0
-16 2 -3 10 20 13 7 13 -22 -1 -17 -7 -32 -7 -53 2 -17 7 -36 11 -42 10 -7 -1
-13 3 -13 9 0 11 -154 13 -182 2z"/>
<path d="M12520 2869 c-14 -4 -67 -7 -117 -8 -55 -1 -93 -5 -93 -11 0 -9 29
-15 53 -11 4 0 7 -4 7 -10 0 -9 62 -10 233 -5 280 7 337 13 337 33 0 13 -3 13
-15 3 -12 -10 -15 -10 -15 4 0 20 -7 20 -27 0 -14 -13 -35 -15 -137 -10 -67 3
-136 5 -155 5 -19 0 -37 4 -40 9 -3 5 -17 5 -31 1z"/>
</g>
</svg>
