<?xml version="1.0" standalone="no"?>
<!DOCTYPE svg PUBLIC "-//W3C//DTD SVG 20010904//EN"
 "http://www.w3.org/TR/2001/REC-SVG-20010904/DTD/svg10.dtd">
<svg version="1.0" xmlns="http://www.w3.org/2000/svg"
 width="1928.000000pt" height="1074.000000pt" viewBox="0 0 1928.000000 1074.000000"
 preserveAspectRatio="xMidYMid meet">
<metadata>
Created by potrace 1.16, written by Peter Selinger 2001-2019
</metadata>
<g transform="translate(0.000000,1074.000000) scale(0.100000,-0.100000)"
fill="#000000" stroke="none">
<path d="M14560 8014 c0 -5 9 -20 20 -34 28 -36 25 -50 -12 -51 l-33 -2 35 -6
c30 -5 35 -10 34 -31 -1 -14 -5 -288 -9 -610 -3 -322 -8 -632 -9 -690 -5 -163
-5 -181 -1 -1125 2 -629 0 -894 -8 -903 -6 -8 -7 -16 -1 -20 5 -4 10 -23 11
-42 4 -82 5 -271 2 -275 -2 -2 -3 -104 -2 -227 7 -822 6 -838 -13 -852 -15
-12 -20 -11 -36 8 -14 17 -17 18 -18 5 0 -9 7 -22 15 -29 9 -7 14 -19 11 -27
-3 -7 -1 -13 4 -13 6 0 10 9 10 20 0 23 8 25 34 5 10 -7 15 -18 11 -24 -3 -6
1 -11 9 -11 8 0 18 -5 22 -12 5 -8 0 -9 -14 -6 -12 4 -22 2 -22 -3 0 -5 5 -9
11 -9 6 0 9 -6 7 -12 -5 -13 14 -38 29 -38 5 0 16 -8 24 -18 9 -9 28 -27 43
-40 17 -14 25 -29 22 -39 -4 -10 -2 -13 8 -10 18 7 35 -13 75 -84 27 -48 31
-66 32 -135 1 -70 2 -74 10 -39 5 22 11 60 14 85 3 25 9 50 13 55 4 6 62 9
154 7 128 -3 146 -6 141 -20 -4 -10 -2 -13 6 -8 6 4 91 10 189 13 97 3 184 9
192 13 8 4 62 8 120 8 307 3 334 4 315 12 -11 5 -43 9 -72 9 -61 1 -83 8 -83
27 0 8 -7 14 -15 14 -8 0 -15 -7 -15 -15 0 -9 -9 -15 -22 -15 -17 0 -19 3 -10
12 7 7 12 42 12 85 0 63 2 73 18 73 9 0 62 -5 117 -10 198 -20 225 -21 225
-10 0 6 -6 10 -12 9 -46 -6 -139 3 -149 14 -9 10 -38 12 -106 9 l-93 -4 0 27
0 26 63 -8 c34 -4 85 -8 112 -7 28 1 44 -1 38 -3 -26 -9 -12 -23 23 -23 30 0
34 2 25 14 -10 12 -6 14 24 14 19 0 32 -4 29 -9 -3 -5 -9 -7 -14 -4 -5 3 -11
1 -14 -4 -7 -11 54 -18 199 -20 65 -1 123 -5 128 -8 6 -3 31 -7 56 -8 25 -2
36 -1 24 2 -23 4 -33 23 -12 23 5 0 7 5 4 10 -12 20 3 9 41 -27 22 -21 72 -68
113 -106 41 -37 72 -69 70 -71 -2 -2 -62 -7 -134 -11 -71 -4 -132 -9 -134 -11
-2 -2 36 -5 85 -5 49 -1 118 -2 153 -3 l64 -1 50 -98 c27 -53 52 -95 54 -93 3
2 -12 39 -31 81 -20 43 -36 84 -36 92 0 24 35 -2 75 -57 20 -27 41 -50 47 -50
5 0 -1 14 -14 31 -59 80 -67 72 67 65 66 -3 180 -6 253 -7 l132 -1 0 -66 c0
-82 18 -72 22 13 l3 59 40 -1 c22 0 43 4 46 9 4 6 41 12 83 15 l76 5 2 -89 c0
-48 1 -94 1 -100 -1 -7 3 -13 8 -13 5 0 9 42 9 94 0 57 4 97 11 101 6 4 60 8
120 8 132 1 132 15 0 18 -108 3 -125 12 -115 64 3 18 7 196 7 394 2 283 -1
361 -10 361 -7 0 -13 5 -13 10 0 6 5 10 10 10 15 0 13 97 -2 102 -13 5 -16
107 -11 438 2 80 0 163 -3 185 -3 22 -8 238 -9 480 -5 514 -12 677 -29 653 -8
-11 -18 -13 -33 -7 -22 8 -23 13 -13 183 0 4 11 5 25 2 19 -5 23 -3 18 9 -3 9
-12 14 -19 11 -7 -3 -16 -1 -19 4 -4 6 5 10 19 10 23 0 26 4 27 38 0 43 10
125 15 131 2 2 3 -71 3 -162 1 -91 5 -207 11 -259 6 -51 10 -113 9 -138 -1
-25 -1 -244 0 -488 1 -411 8 -518 25 -375 11 94 7 963 -4 1024 -6 29 -10 97
-9 149 6 273 3 508 -6 620 -6 69 -8 127 -5 130 12 8 15 249 11 754 -3 432 -2
478 13 473 8 -3 18 -2 21 3 4 6 1 10 -4 10 -6 0 -21 10 -33 23 -12 12 -34 31
-49 42 -15 11 -74 61 -132 110 -152 130 -198 165 -209 159 -5 -3 -2 -14 7 -24
9 -10 14 -24 10 -29 -3 -6 0 -11 7 -11 7 0 27 -13 43 -28 17 -15 52 -45 80
-67 27 -22 63 -52 80 -67 68 -60 77 -67 89 -62 7 3 21 -4 31 -16 16 -18 8 -30
-9 -13 -14 14 -67 15 -850 9 l-110 -1 -41 51 c-23 28 -77 84 -121 124 -43 40
-80 76 -82 80 -1 4 171 5 383 3 256 -3 398 0 425 7 109 29 4 39 -390 34 -146
-1 -309 -6 -363 -10 l-97 -7 0 -31 c0 -17 -5 -92 -11 -166 -13 -149 -14 -194
-8 -852 2 -252 3 -458 1 -458 -1 0 -7 10 -12 23 -8 17 -9 7 -7 -41 2 -34 0
-59 -3 -55 -4 5 -21 51 -39 103 -18 52 -52 138 -76 190 -24 53 -53 127 -65
165 -44 139 -79 234 -129 346 -27 63 -75 179 -106 259 -31 80 -65 159 -76 176
-20 33 -15 52 8 32 7 -6 17 -8 21 -4 7 8 -23 29 -45 32 -23 4 -133 148 -129
168 2 6 1 8 -1 3 -6 -9 -92 84 -93 99 0 5 -14 23 -31 40 l-31 29 8 -29 c10
-42 69 -135 118 -186 24 -25 55 -62 71 -82 15 -21 35 -38 44 -39 10 0 6 -4 -9
-10 -14 -6 -37 -8 -53 -5 -15 3 -203 6 -417 6 l-389 1 -34 38 c-19 21 -47 60
-63 87 -15 27 -43 67 -61 88 -18 22 -33 44 -33 50 0 8 37 9 123 4 232 -12 708
-15 704 -4 -5 16 -111 22 -507 31 -195 4 -358 9 -362 11 -3 2 -8 -1 -10 -8 -2
-6 -21 10 -41 37 -20 26 -37 44 -37 39z m2046 -411 c-3 -7 -1 -15 4 -18 5 -3
7 -27 4 -53 -3 -26 -7 -81 -9 -122 -1 -41 -3 -77 -4 -80 -1 -4 0 -314 3 -505
0 -38 0 -127 -2 -197 -2 -106 -5 -128 -17 -128 -11 0 -15 12 -15 49 0 73 -15
69 -18 -4 -3 -60 -2 -64 20 -67 22 -3 23 -7 22 -88 0 -47 -2 -94 -4 -106 -5
-24 -30 -52 -30 -32 0 8 -3 9 -10 2 -6 -6 -6 -22 0 -44 12 -42 7 -50 -8 -13
-10 25 -25 124 -35 243 -3 25 -7 57 -9 73 -6 31 8 37 17 7 4 -11 11 -18 16
-15 9 6 7 11 -24 71 -9 17 -14 34 -11 37 3 3 1 14 -5 24 -9 15 -11 11 -12 -22
0 -22 0 -55 1 -72 1 -22 -3 -33 -12 -33 -9 -1 -8 -4 4 -10 12 -8 15 -19 11
-50 -4 -24 -1 -46 7 -54 6 -9 9 -20 6 -25 -4 -6 -1 -19 6 -30 14 -23 8 -34
-15 -25 -22 8 -29 32 -17 55 7 11 7 19 1 19 -5 0 -12 -6 -14 -12 -3 -7 -5 5
-5 27 0 22 -4 61 -10 88 -5 26 -5 47 -1 47 5 0 9 -5 9 -12 0 -6 3 -9 6 -6 3 3
-1 31 -9 61 -8 30 -11 61 -7 68 5 6 6 17 4 23 -2 6 -6 26 -8 44 -4 37 -14 52
-24 35 -8 -12 -7 -68 2 -248 5 -107 5 -117 -8 -89 -7 17 -12 49 -9 73 3 33 1
41 -9 35 -9 -5 -8 -2 2 11 14 17 13 18 -2 12 -10 -3 -18 -2 -18 3 0 6 7 10 15
10 8 0 15 5 15 11 0 5 -4 7 -10 4 -5 -3 -10 1 -10 10 0 9 4 14 8 11 10 -6 6
90 -4 106 -4 7 -9 183 -10 392 -1 210 -3 462 -4 561 -1 99 -1 184 -1 189 1 5
55 -44 121 -110 66 -65 118 -124 116 -131z m-1746 -5 c0 -9 -5 -20 -10 -23 -6
-4 -7 -11 -4 -17 3 -5 6 -155 5 -331 -1 -177 -4 -965 -6 -1752 -3 -786 -7
-1461 -10 -1500 -4 -49 -10 -74 -22 -82 -16 -12 -16 -14 0 -25 17 -13 18 -63
2 -102 -6 -14 -5 -17 3 -12 7 4 12 2 12 -3 0 -6 -4 -11 -10 -11 -5 0 -10 -7
-10 -16 0 -8 5 -12 10 -9 6 4 10 -6 9 -22 0 -16 -3 -22 -6 -13 -3 8 -11 18
-16 22 -6 3 -10 33 -9 66 1 34 -4 67 -11 76 -11 15 -13 -13 -14 -151 -1 -92
-3 -196 -3 -229 -1 -34 1 -71 4 -82 4 -11 2 -23 -4 -27 -5 -3 -10 -5 -11 -3
-4 13 -13 190 -13 261 -1 48 -3 87 -6 87 -3 0 -5 25 -5 56 1 30 -3 58 -7 60
-12 7 -10 54 2 54 6 0 11 -10 11 -22 1 -15 3 -17 6 -7 2 8 -2 29 -9 45 -13 31
-14 40 -17 97 0 20 -5 37 -9 37 -8 0 -8 -67 1 -375 6 -191 -7 -211 -16 -25 -3
52 -8 138 -11 190 -13 184 -12 512 2 517 6 3 12 13 12 23 0 10 -6 20 -12 23
-7 2 -9 8 -5 13 5 5 15 1 23 -10 12 -18 14 -18 14 -3 0 10 -7 20 -15 23 -8 4
-12 10 -9 15 3 5 10 7 15 4 17 -11 9 6 -16 33 -16 17 -21 28 -13 33 8 5 6 13
-7 25 -11 11 -14 19 -6 22 12 4 -3 41 -22 53 -6 4 -5 13 2 25 10 18 10 18 11
-3 0 -32 15 -36 29 -7 6 14 7 23 2 20 -5 -3 -11 6 -14 19 -2 14 0 28 4 31 5 3
5 13 -1 23 -12 23 -11 158 1 139 7 -10 9 -10 8 2 0 8 -4 23 -8 33 -6 17 -8 16
-19 -7 -8 -17 -8 -34 -2 -51 6 -15 6 -27 0 -30 -5 -3 -6 -13 -3 -23 4 -10 2
-14 -3 -9 -10 9 -15 190 -17 579 -1 137 -5 248 -8 248 -8 0 -4 1187 5 1225 3
17 6 73 6 124 0 59 4 98 11 102 7 4 8 12 4 19 -4 6 -8 147 -10 313 -1 166 -6
335 -10 375 -5 44 -4 72 2 72 5 0 41 -44 80 -97 l70 -98 1 -155 c0 -222 1
-250 10 -250 4 0 8 93 9 208 l1 207 -29 47 c-17 25 -37 52 -45 59 -8 6 -33 35
-56 63 -24 29 6 4 70 -59 62 -60 112 -117 112 -127z m916 -8 c7 -14 15 -43 18
-65 l7 -40 -37 52 c-21 29 -39 51 -42 49 -2 -2 22 -47 53 -100 59 -102 112
-210 152 -316 13 -35 35 -87 47 -115 23 -48 38 -84 41 -95 3 -15 49 -131 64
-165 10 -22 27 -58 37 -80 10 -22 18 -50 18 -62 0 -13 4 -23 10 -23 5 0 6 -3
3 -7 -4 -3 0 -15 10 -25 9 -10 13 -18 9 -18 -3 0 2 -17 13 -37 10 -21 48 -129
84 -240 36 -111 81 -239 100 -285 19 -46 49 -130 68 -188 65 -208 249 -607
249 -540 0 6 4 9 9 6 9 -6 -22 105 -35 126 -4 6 -9 97 -11 202 -2 105 -5 257
-6 339 -2 85 1 147 6 147 5 0 4 7 -3 15 -9 10 -9 23 -2 43 6 16 6 35 1 44 -5
8 -6 33 -4 54 8 60 15 436 19 907 2 235 5 429 7 431 2 2 33 1 69 -3 36 -3 179
-2 318 3 139 4 256 5 260 1 12 -11 19 -1820 14 -3598 -1 -439 0 -802 3 -807 2
-4 6 -95 9 -201 l3 -194 -226 2 c-124 2 -254 6 -288 9 -58 5 -63 7 -63 30 0
32 35 33 45 2 6 -20 8 -20 12 -5 2 9 9 14 15 11 6 -4 9 -1 6 7 -3 8 -11 14
-19 15 -36 3 -45 6 -65 22 -12 10 -25 29 -29 42 -6 20 -5 22 14 17 15 -3 21
-1 18 6 -2 7 -13 13 -24 15 -29 4 -42 33 -129 290 -13 41 -36 94 -49 119 -14
24 -43 95 -65 156 -132 378 -153 433 -201 533 -17 35 -28 68 -24 74 3 5 -1 20
-9 32 -9 12 -16 32 -16 43 0 11 -7 30 -15 42 -8 11 -22 47 -30 79 -8 32 -33
95 -54 139 -22 44 -47 100 -56 125 -9 25 -27 74 -40 110 -13 36 -37 101 -53
146 -39 108 -101 271 -119 314 -30 67 -63 173 -57 181 3 5 1 9 -4 9 -5 0 -8
10 -7 23 1 13 0 14 -2 4 -5 -22 -24 -18 -38 9 -12 23 -65 76 -65 65 0 -4 11
-20 25 -35 14 -15 25 -31 25 -36 0 -5 7 -13 16 -18 10 -5 14 -15 10 -21 -6 -9
-11 -9 -22 0 -22 18 -27 4 -9 -25 14 -22 16 -41 11 -118 -4 -51 -7 -100 -7
-108 -2 -35 -1 -333 2 -565 6 -365 4 -619 -12 -1565 0 -8 3 -37 6 -65 3 -27 7
-58 8 -68 2 -19 -38 -20 -744 -17 l-116 0 -7 49 c-4 28 -6 450 -5 938 0 488 2
1528 2 2310 1 782 5 1425 9 1429 8 7 29 9 193 19 55 3 113 8 129 11 29 6 506
33 536 30 8 -1 20 -12 26 -26z m1781 -980 c0 -33 -3 -60 -8 -60 -5 0 -9 -5 -9
-12 0 -6 3 -8 7 -5 3 4 13 -6 21 -21 19 -34 30 -232 13 -232 -6 0 -11 -10 -11
-21 0 -19 -2 -20 -17 -8 -15 12 -16 12 -10 -3 3 -10 2 -20 -3 -23 -6 -4 -10 3
-10 14 0 12 -4 21 -10 21 -5 0 -10 -13 -10 -29 0 -16 -3 -37 -7 -47 -4 -12 -3
-15 5 -10 7 4 12 3 12 -3 0 -5 -8 -14 -17 -20 -15 -8 -16 -12 -5 -23 7 -7 13
-8 12 -3 -4 20 1 30 9 17 10 -16 2 -62 -11 -62 -5 0 -6 -4 -3 -10 7 -12 16
-230 10 -240 -8 -13 -45 1 -45 16 0 17 17 18 23 2 3 -8 6 -6 6 5 1 10 -6 17
-18 17 -16 0 -18 9 -20 73 -1 39 4 108 10 152 6 44 12 88 13 97 1 10 5 21 9
24 4 4 7 15 7 25 0 19 -26 33 -35 19 -4 -6 -14 -10 -25 -10 -26 0 -40 49 -40
141 0 78 0 79 25 79 25 0 25 0 25 -95 0 -52 4 -95 9 -95 6 0 9 37 9 83 -1 122
0 127 21 127 14 0 17 6 13 25 -2 14 0 25 7 25 7 0 9 -43 6 -137 -2 -80 0 -127
4 -112 7 22 22 244 23 352 1 54 14 26 15 -33z m-67 -1279 c2 -1 -1 -6 -7 -12
-9 -9 -9 -18 1 -38 18 -35 27 -274 10 -267 -8 3 -10 -3 -6 -16 4 -15 7 -17 13
-6 5 8 9 -14 9 -54 0 -37 5 -70 11 -74 8 -4 8 -9 0 -17 -11 -11 -15 -164 -5
-191 4 -11 14 -13 35 -9 22 4 29 2 29 -10 0 -18 -27 -30 -35 -17 -7 12 -26 13
-24 3 1 -5 1 -19 0 -32 l-1 -24 -25 27 -25 27 7 -32 c4 -23 3 -30 -5 -25 -8 5
-10 45 -7 129 5 125 0 181 -15 172 -5 -3 -11 -1 -15 5 -3 5 0 10 9 10 8 0 17
13 21 30 4 17 10 28 15 25 4 -3 10 2 14 10 3 8 1 17 -4 20 -4 3 -10 -1 -13 -7
-5 -14 -6 6 -9 194 -2 108 -3 117 -22 123 -17 6 -18 8 -5 12 11 2 15 12 12 28
-4 19 -1 23 13 20 11 -2 21 -4 24 -4z m-1655 -716 c15 -44 45 -120 67 -170 22
-49 45 -108 50 -130 6 -22 15 -45 20 -52 9 -11 39 -90 98 -258 36 -104 124
-342 156 -423 14 -35 23 -70 20 -77 -2 -7 4 -29 15 -49 16 -31 49 -111 105
-260 8 -21 12 -41 10 -44 -3 -3 -24 15 -47 39 -42 44 -42 44 -14 5 20 -28 24
-40 15 -46 -17 -10 3 -22 25 -14 11 5 31 -9 66 -47 27 -29 49 -57 49 -62 0 -9
-42 1 -50 13 -10 15 -102 22 -320 26 -124 2 -242 6 -262 9 l-37 7 -2 641 c0
353 -2 685 -4 737 -4 140 -7 244 -5 255 1 17 17 -17 45 -100z m344 -439 c-3
-24 2 -36 14 -36 6 0 17 -15 24 -32 6 -18 21 -60 33 -93 11 -33 39 -97 60
-143 43 -89 45 -97 30 -87 -6 3 -7 -1 -4 -9 3 -9 11 -13 16 -10 6 4 8 -1 4
-14 -4 -11 -2 -23 4 -27 6 -3 8 -11 5 -16 -4 -5 0 -9 8 -9 15 0 40 -68 30 -83
-3 -6 -1 -7 5 -3 15 9 21 -5 12 -28 -4 -11 0 -32 8 -49 8 -15 11 -31 7 -35 -8
-9 -25 20 -46 78 -9 25 -30 77 -48 115 -36 83 -96 232 -119 295 -22 64 -32 91
-48 125 -7 17 -18 42 -23 56 -9 24 -7 26 10 22 11 -3 19 -10 18 -17z m1318
-101 c-4 -8 -2 -17 3 -20 6 -4 10 2 10 12 0 15 2 16 10 3 5 -8 7 -25 4 -37 -6
-21 -3 -22 30 -18 l36 5 0 -74 c0 -53 -4 -77 -15 -86 -28 -23 -45 5 -45 76 0
67 -13 86 -24 33 -15 -75 1 -142 31 -132 6 2 14 -1 18 -6 3 -6 -1 -11 -9 -11
-15 0 -21 -12 -16 -35 1 -5 -8 0 -20 13 -12 13 -26 19 -33 15 -7 -4 -5 2 3 12
8 10 10 16 4 12 -18 -10 -22 21 -15 108 4 44 7 95 6 113 0 21 4 32 13 32 8 0
12 -6 9 -15z m-2844 -228 c3 -26 1 -77 -2 -112 -4 -38 -3 -65 2 -65 5 0 6 -24
2 -57 -12 -95 -6 -369 11 -472 5 -30 4 -33 -10 -22 -8 7 -18 26 -22 43 -9 46
-12 708 -2 708 4 0 7 3 7 8 -2 13 1 25 6 21 2 -3 6 -26 8 -52z m2844 -172 c-4
-8 -2 -17 3 -20 4 -3 11 1 13 7 3 8 6 6 6 -4 1 -10 8 -18 16 -18 9 0 12 6 8
16 -3 10 4 6 21 -9 30 -28 34 -68 14 -142 -9 -33 -17 -45 -31 -45 -18 0 -19 6
-15 85 3 61 1 85 -7 85 -8 0 -14 -31 -18 -89 -7 -88 -13 -121 -26 -121 -7 0
-5 235 3 255 3 8 8 15 12 15 3 0 4 -7 1 -15z"/>
<path d="M16742 6388 l3 -113 46 -3 c72 -5 80 10 77 127 l-3 96 -63 3 -63 3 3
-113z m101 80 c-2 -5 -3 -46 -3 -93 l0 -85 -40 0 -40 0 0 96 0 95 43 -3 c23
-2 41 -6 40 -10z"/>
<path d="M16763 5703 c-22 -4 -23 -8 -23 -113 l0 -109 33 -6 c17 -3 46 -2 62
3 l30 8 0 103 c1 99 0 103 -23 112 -24 9 -40 10 -79 2z"/>
<path d="M16957 5703 l-28 -4 3 -107 3 -106 34 -9 c22 -5 43 -4 62 4 l29 11 0
104 c0 92 -2 104 -17 104 -10 0 -27 2 -38 4 -11 2 -33 1 -48 -1z m83 -118 l0
-95 -40 0 c-37 0 -40 2 -41 28 -1 15 -3 52 -5 82 -5 74 -2 80 46 80 l40 0 0
-95z"/>
<path d="M17154 5700 c-23 -9 -34 -59 -34 -151 0 -56 18 -79 61 -79 64 0 69
10 69 124 l0 104 -31 6 c-37 7 -38 7 -65 -4z m69 -19 c4 -1 7 -44 7 -97 l0
-95 -37 3 -38 3 -3 84 c-4 104 0 113 35 107 16 -2 31 -5 36 -5z"/>
<path d="M16943 5273 c-9 -3 -13 -36 -13 -113 l0 -108 31 -4 c18 -3 46 -2 63
1 l31 7 3 99 c2 85 0 102 -15 112 -17 13 -76 16 -100 6z"/>
<path d="M17164 5273 c-28 -5 -34 -28 -34 -136 l0 -88 58 3 57 3 3 103 c3 102
3 102 -23 112 -15 6 -29 9 -33 9 -4 -1 -17 -4 -28 -6z"/>
<path d="M16757 4843 c-16 -4 -18 -15 -15 -108 l3 -104 33 -6 c36 -7 73 1 84
19 4 6 8 52 8 102 0 75 -3 93 -16 98 -17 7 -69 6 -97 -1z"/>
<path d="M16772 4441 c-8 -5 -15 -41 -19 -101 -6 -83 -4 -94 12 -106 20 -15
83 -19 101 -6 8 4 11 44 10 114 l-1 108 -45 0 c-25 0 -51 -4 -58 -9z"/>
<path d="M16956 4435 c-13 -13 -16 -37 -16 -116 l0 -99 43 0 c89 0 88 -1 85
118 l-3 105 -46 4 c-34 3 -51 0 -63 -12z m84 -105 l0 -100 -40 0 -40 0 0 94
c0 100 2 104 53 105 l27 1 0 -100z"/>
<path d="M16973 4020 c-13 -5 -23 -13 -24 -17 0 -4 -1 -50 -2 -100 -2 -99 0
-103 51 -103 70 0 71 2 65 108 -3 54 -8 100 -12 104 -12 13 -56 17 -78 8z"/>
<path d="M16990 3641 l-35 -6 -7 -85 c-4 -47 -6 -90 -3 -97 7 -20 71 -33 100
-20 24 12 25 16 25 104 0 110 -5 115 -80 104z"/>
<path d="M16754 3625 c-3 -6 -4 -52 -2 -100 l3 -89 37 -9 c28 -7 42 -5 62 8
22 14 25 22 21 58 -2 23 0 58 4 78 5 20 5 42 1 48 -9 16 -121 21 -126 6z"/>
<path d="M4777 7990 c-3 -8 -7 -24 -9 -35 -3 -16 -10 -19 -33 -16 -37 6 -439
6 -795 1 l-265 -3 175 -8 c96 -5 266 -14 376 -20 183 -11 310 -9 448 7 51 7
61 -7 22 -30 -11 -6 -31 -22 -45 -35 -14 -13 -46 -37 -71 -54 -25 -17 -65 -49
-90 -71 -25 -23 -64 -57 -85 -76 l-39 -34 -236 3 c-129 1 -242 7 -250 12 -9 5
43 9 131 9 183 0 329 10 329 22 0 6 -16 7 -37 4 -21 -4 -128 -7 -238 -8 -170
-1 -202 -4 -213 -17 -8 -9 -11 -10 -7 -3 3 6 2 12 -4 12 -5 0 -11 -6 -13 -12
-3 -9 -9 -8 -21 4 -14 14 -30 16 -90 12 -85 -7 -100 -10 -92 -24 3 -5 0 -10
-7 -10 -7 -1 -37 -3 -65 -6 -29 -2 -53 -2 -53 0 0 2 69 50 153 106 174 117
245 172 229 178 -15 5 -88 -40 -293 -179 -90 -61 -175 -116 -189 -122 l-25
-11 27 -3 c34 -5 36 -18 36 -363 0 -151 3 -427 7 -612 l8 -337 -31 8 c-43 13
-52 19 -46 36 7 16 -29 37 -50 29 -8 -3 -18 -14 -21 -24 -3 -11 -14 -21 -23
-24 -50 -13 -102 -17 -167 -11 -110 11 -103 -26 -111 607 -6 508 -4 600 16
568 9 -15 6 213 -5 325 -3 33 -3 77 1 98 5 33 9 37 35 37 16 0 29 5 29 11 0 8
-17 9 -52 5 -29 -3 -215 -8 -413 -11 -510 -8 -486 -5 -570 -71 -64 -49 -215
-135 -225 -129 -6 4 -9 1 -8 -5 3 -11 -101 -76 -106 -68 -2 2 -10 14 -19 28
l-17 24 0 -26 c0 -16 -9 -33 -22 -42 l-22 -16 21 0 c19 0 21 -3 12 -33 -5 -18
-6 -44 -4 -57 3 -14 7 -77 10 -140 16 -485 20 -638 19 -730 -1 -159 -13 -479
-21 -535 -4 -27 -5 -54 -3 -60 1 -5 4 -107 7 -225 2 -118 7 -271 12 -340 9
-127 6 -1049 -4 -1195 -6 -91 25 -387 56 -530 29 -135 124 -349 211 -477 21
-32 36 -58 32 -58 -3 0 -45 37 -92 83 -135 129 -57 39 120 -140 93 -94 190
-182 231 -210 39 -26 76 -51 81 -55 5 -3 11 -40 13 -82 4 -72 2 -77 -19 -86
-15 -6 53 -9 197 -9 131 -1 234 -5 255 -12 47 -15 710 -24 710 -9 0 6 -29 10
-71 10 -44 0 -68 4 -64 10 4 6 -13 10 -44 10 -28 0 -51 4 -51 9 0 6 53 10 123
10 67 0 145 2 174 3 28 2 49 0 46 -4 -2 -5 0 -8 6 -8 5 0 18 -3 28 -7 17 -7
17 -6 0 11 -10 10 -16 21 -13 23 2 3 73 11 157 18 90 8 155 18 157 24 2 6 13
11 23 11 11 0 17 5 14 10 -9 15 -34 12 -51 -5 -17 -17 -44 -20 -44 -6 0 5 8
12 18 14 9 3 1 5 -18 6 -23 0 -30 -2 -21 -8 9 -6 10 -11 2 -15 -5 -4 -20 -1
-31 6 -17 11 -22 11 -29 0 -4 -7 -25 -15 -47 -18 -36 -4 -37 -4 -14 8 14 6 76
36 138 66 62 30 116 52 119 48 3 -3 7 -44 8 -90 l3 -84 -163 1 c-127 2 -162 0
-158 -10 6 -14 23 -16 168 -18 63 -1 116 4 143 13 32 11 47 11 55 3 15 -15 35
-14 52 1 38 34 47 39 60 34 9 -3 12 0 8 10 -3 7 0 14 6 14 6 0 11 -7 11 -15 0
-11 12 -15 53 -15 28 0 59 5 67 10 11 7 5 10 -24 10 -48 0 -108 20 -103 35 2
6 58 9 163 7 147 -4 188 1 118 14 -29 5 -58 23 -50 31 2 3 14 -1 27 -7 19 -11
25 -10 36 6 10 14 16 15 25 6 9 -9 9 -12 -3 -12 -12 0 -12 -1 1 -9 8 -6 19 -7
25 -3 5 3 17 7 25 7 42 4 50 6 50 13 0 4 -16 6 -36 4 -20 -3 -46 1 -58 7 -12
7 -31 14 -41 16 -11 2 -22 4 -25 5 -3 1 5 5 18 11 30 12 19 29 -19 29 -17 0
-28 -3 -26 -7 6 -10 -101 -9 -110 0 -3 4 0 7 8 8 8 0 50 2 94 5 44 2 107 6
140 10 33 3 72 5 88 5 15 -1 27 3 27 9 0 5 -11 10 -25 10 -14 0 -25 5 -25 10
0 7 38 10 111 7 62 -2 102 0 91 4 -34 13 -330 15 -342 3 -8 -8 10 -10 60 -9
77 3 95 -9 27 -18 -52 -7 -102 4 -102 23 0 18 -68 33 -121 26 -28 -4 -41 -1
-41 7 0 8 28 12 94 13 51 1 93 -2 93 -6 0 -3 22 -6 50 -6 27 1 50 4 50 7 0 14
33 19 46 8 18 -15 134 -23 134 -9 0 5 -10 10 -22 10 -12 0 -19 3 -15 6 8 9 86
11 130 3 31 -5 35 -4 26 7 -6 8 -15 11 -20 8 -5 -3 -14 -2 -21 2 -7 4 -24 9
-38 10 -58 5 -307 17 -335 15 -48 -2 -90 -1 -132 3 -21 2 -69 0 -108 -4 -38
-5 -72 -6 -74 -4 -6 6 165 174 178 174 6 0 11 6 11 14 0 8 4 16 9 18 18 7 190
201 185 209 -3 5 3 6 12 2 14 -5 16 -3 10 12 -4 11 -4 16 0 12 8 -8 34 11 34
25 0 6 -7 4 -17 -3 -15 -13 -15 -12 -4 9 7 12 16 20 22 17 5 -4 9 -3 8 2 -4
22 2 34 14 27 6 -4 9 -4 5 1 -4 4 5 31 21 59 35 60 84 191 112 296 36 132 76
303 85 355 4 28 9 57 10 65 14 83 13 89 -4 99 -9 6 -11 11 -4 11 16 0 16 27 0
33 -7 3 -4 6 6 6 15 1 17 4 9 12 -6 6 -9 18 -6 25 3 8 2 21 -1 30 -9 24 -17
347 -21 919 -2 292 -6 559 -9 595 -2 36 0 73 5 82 6 12 6 18 0 18 -12 0 -8
201 4 220 5 8 4 11 -2 7 -6 -4 -10 106 -10 319 1 265 3 324 14 320 9 -4 13 3
13 19 0 26 -14 34 -24 13 -3 -7 -3 12 1 42 6 58 8 210 4 375 -2 55 -2 145 -2
200 l1 100 31 18 c17 9 43 17 57 18 l27 1 -28 8 c-19 6 -36 4 -55 -6 -36 -18
-44 -18 -38 4 6 23 -9 101 -17 82z m-1787 -79 c0 -10 -53 -52 -115 -92 -22
-14 -67 -49 -100 -78 -93 -82 -89 -81 -228 -86 -69 -3 -136 -10 -149 -15 -18
-8 -12 -9 27 -6 195 19 195 19 195 4 0 -12 -25 -16 -127 -21 -198 -10 -307 -9
-321 5 -9 9 -12 9 -12 0 0 -14 -53 -28 -137 -37 -35 -4 -63 -12 -63 -17 0 -6
10 -8 23 -4 12 3 157 6 322 6 l300 2 2 -284 c1 -155 2 -382 3 -503 1 -121 2
-272 2 -335 0 -63 1 -135 2 -160 1 -39 -2 -45 -20 -48 -32 -5 -61 -84 -35 -94
6 -1 -25 -27 -67 -55 l-77 -53 -44 16 c-36 12 -50 13 -67 4 -38 -21 -58 -92
-32 -118 8 -8 -7 -30 -64 -89 -70 -70 -80 -77 -124 -82 -41 -5 -50 -10 -58
-33 -7 -19 -5 -40 4 -69 13 -37 12 -45 -4 -73 -10 -17 -33 -58 -50 -91 -49
-92 -59 -105 -78 -105 -25 0 -58 -39 -58 -69 0 -13 9 -35 21 -47 l21 -22 -26
-106 c-14 -58 -26 -112 -26 -121 0 -13 -78 -60 -87 -52 -1 2 -5 111 -8 243 -3
131 -10 311 -16 399 -5 88 -9 304 -7 480 5 532 3 864 -4 1187 -6 240 -5 309 5
315 6 4 105 6 220 5 132 -2 207 0 207 6 0 13 -77 19 -233 18 -70 -1 -127 2
-127 5 0 7 142 99 218 141 31 17 73 46 92 64 l35 32 305 5 c168 3 323 8 345
11 22 3 69 8 104 10 35 3 66 8 69 11 9 8 42 6 42 -4z m-15 -223 c-3 -90 -8
-215 -12 -278 -4 -63 -6 -137 -6 -165 1 -27 -3 -57 -8 -67 -6 -11 -5 -18 3
-20 9 -3 12 -110 12 -410 l1 -407 -22 -21 c-27 -24 -25 -34 -26 118 0 105 -10
133 -21 61 -6 -35 -9 -39 -21 -29 -10 8 -15 9 -15 2 0 -6 8 -15 17 -21 13 -7
14 -13 6 -23 -6 -8 -8 -35 -4 -68 12 -109 -5 -131 -103 -134 -24 0 -42 -4 -39
-8 9 -16 -10 -7 -23 10 -17 22 -20 352 -3 352 6 0 9 6 6 13 -2 6 -10 11 -16 9
-7 -1 -10 2 -6 8 4 6 8 162 10 347 3 263 7 338 17 344 11 7 10 9 -1 9 -10 0
-12 10 -6 43 6 40 10 90 13 202 2 49 4 51 64 100 76 61 158 144 158 160 0 10
19 35 27 35 2 0 1 -73 -2 -162z m1789 95 c-2 -21 -6 -56 -9 -78 -4 -22 -6 -98
-4 -170 1 -71 1 -137 1 -145 -2 -226 -2 -589 2 -1086 6 -739 5 -874 -3 -952 0
-7 -5 -10 -11 -7 -5 3 -10 1 -10 -4 0 -6 4 -11 10 -11 5 0 7 -7 4 -15 -4 -8
-2 -15 2 -15 5 0 10 -60 11 -133 1 -72 5 -168 8 -211 5 -60 3 -81 -7 -87 -10
-7 -10 -9 0 -9 7 0 12 -13 12 -31 0 -17 -4 -28 -10 -24 -12 8 -13 -37 -1 -51
5 -5 12 -20 16 -34 7 -22 6 -23 -9 -11 -15 12 -16 6 -16 -78 0 -50 -3 -91 -7
-91 -5 0 -8 -19 -8 -42 0 -22 -5 -43 -11 -45 -7 -2 -10 7 -8 22 2 20 -1 25
-12 21 -8 -3 -14 0 -15 7 0 7 -5 1 -10 -12 -5 -13 -7 -26 -4 -29 3 -3 5 0 5 6
0 7 5 12 11 12 7 0 9 -17 6 -47 -3 -31 0 -58 9 -75 8 -16 10 -28 5 -28 -5 0
-12 8 -15 18 -3 9 -3 -1 0 -23 8 -55 5 -162 -6 -209 -5 -25 -5 -47 1 -58 12
-23 2 -61 -13 -52 -7 5 -9 1 -5 -8 12 -33 -64 -255 -94 -274 -14 -8 -11 4 7
31 9 14 14 35 11 47 -4 13 2 32 14 49 10 15 19 36 19 47 0 12 5 24 10 27 6 3
10 11 10 16 0 6 -4 7 -10 4 -7 -4 -7 3 0 20 15 40 12 43 -11 10 -12 -16 -18
-21 -14 -10 4 11 10 30 12 42 4 15 10 20 22 15 14 -5 14 -4 2 12 -12 14 -12
17 -1 14 8 -2 15 6 17 17 3 16 2 17 -6 5 -7 -9 -11 -10 -11 -3 0 6 5 15 10 18
6 3 10 14 10 23 -1 16 -1 16 -13 0 -12 -15 -14 -15 -25 3 -15 23 -15 32 -2 24
6 -4 7 1 3 10 -3 10 0 20 7 25 9 6 9 12 0 30 -10 18 -8 30 9 70 24 56 25 60
11 60 -5 0 -10 -7 -10 -15 0 -8 -3 -15 -7 -15 -5 0 -8 18 -8 40 -1 22 3 40 7
40 4 0 8 -7 8 -15 0 -8 5 -15 10 -15 6 0 10 4 10 9 0 6 -4 13 -10 16 -5 3 -10
32 -11 63 -1 94 -29 -16 -34 -133 -1 -22 -2 -59 -3 -83 -1 -24 -6 -41 -11 -38
-9 6 -26 -22 -22 -37 3 -15 -31 -77 -40 -71 -5 3 -9 -4 -9 -15 0 -11 -5 -23
-11 -27 -9 -5 -10 1 -5 22 4 16 11 31 14 34 9 6 26 45 41 91 13 41 14 74 1 44
-8 -20 -9 -20 -9 1 -1 11 2 24 7 28 12 13 8 83 -6 96 -11 10 -13 9 -11 -1 8
-60 -11 -69 -44 -23 -17 23 -18 31 -7 89 7 36 18 81 25 101 l12 36 17 -23 16
-23 0 32 c0 32 35 92 53 92 5 0 6 -12 3 -27 -5 -21 -4 -24 4 -13 5 8 7 28 4
44 -4 18 -1 32 7 38 11 8 10 9 -3 5 -11 -4 -18 2 -22 18 -4 14 -18 35 -32 48
-23 22 -25 28 -19 88 9 101 12 127 20 139 10 17 33 -19 28 -44 -4 -20 -4 -20
8 -2 9 15 9 24 0 37 -6 11 -11 23 -11 29 0 17 18 11 23 -7 4 -14 5 -12 6 5 0
12 -4 22 -10 22 -7 0 -9 10 -7 25 3 14 1 28 -3 31 -5 3 -9 25 -9 49 0 24 -5
47 -11 50 -7 5 -8 -5 -4 -29 9 -45 -10 -49 -20 -5 -5 23 -10 28 -18 20 -19
-19 -29 -12 -23 13 4 15 -2 48 -15 81 -16 43 -18 60 -10 68 9 9 14 8 21 -3 5
-8 12 -12 15 -8 4 3 -9 46 -28 95 -19 48 -35 97 -34 108 3 75 -4 149 -13 135
-7 -12 -10 -8 -10 15 0 43 -9 278 -15 428 -8 157 -17 599 -16 727 0 52 1 237
1 411 l1 317 27 11 c15 7 50 32 77 56 28 25 52 45 55 45 3 0 6 9 7 21 2 16
-11 9 -63 -36 -35 -31 -64 -53 -64 -49 0 4 -10 -1 -21 -12 -15 -13 -20 -14
-17 -5 2 8 13 19 24 25 22 13 135 106 146 121 5 6 8 5 8 -2 0 -7 5 -13 11 -13
6 0 9 7 5 15 -3 8 -2 14 2 12 4 -1 8 2 9 7 1 5 20 18 41 29 22 11 38 25 36 32
-5 11 35 36 47 29 3 -2 4 -20 3 -41z m-911 -189 c98 -6 129 -20 60 -27 -21 -2
18 -1 87 1 133 5 349 -5 368 -17 8 -5 13 -174 17 -606 10 -1076 16 -1340 35
-1406 18 -61 -24 -20 -71 71 -16 31 -23 63 -24 102 0 70 -32 113 -76 104 -18
-3 -36 2 -56 17 -46 35 -113 113 -113 131 0 28 -39 95 -66 113 -22 14 -31 15
-60 4 -31 -11 -38 -10 -72 10 -72 43 -100 69 -107 97 -7 36 -50 82 -75 82 -11
0 -37 -9 -58 -20 -36 -19 -40 -19 -86 -4 -26 9 -49 21 -51 28 -2 6 -6 144 -9
306 -14 724 -25 959 -46 985 -18 21 -3 24 125 27 61 2 126 4 145 5 19 2 79 0
133 -3z m-455 -1410 c18 -18 32 -18 32 1 0 8 4 15 9 15 7 0 26 -129 19 -135
-2 -2 -40 2 -85 8 -62 8 -83 15 -84 27 -1 12 -2 12 -6 -1 -3 -14 -23 -17 -133
-17 l-130 0 0 48 c0 68 16 77 68 39 23 -17 42 -34 42 -39 0 -4 7 -11 16 -14
11 -4 36 8 70 34 59 45 71 48 77 23 3 -14 6 -12 17 10 12 24 18 27 44 21 16
-3 36 -13 44 -20z m-494 -36 c-8 -29 -22 -57 -31 -63 -32 -18 -64 -24 -88 -15
-21 8 -65 55 -65 70 0 13 133 57 176 59 20 1 21 0 8 -51z m633 32 c9 0 13 -6
9 -15 -3 -8 -1 -15 4 -15 6 0 10 6 10 14 0 19 49 8 63 -15 8 -12 23 -19 45
-19 54 0 223 -92 174 -95 -4 -1 -29 -6 -57 -13 -136 -32 -153 -32 -222 -1 -41
18 -63 34 -63 45 0 12 6 15 23 11 l22 -6 -22 18 c-14 11 -25 36 -29 62 -6 38
-5 42 10 36 10 -4 24 -7 33 -7z m-923 -117 c3 -21 5 -49 5 -63 l-1 -25 -8 25
c-7 23 -8 23 -9 3 -1 -12 4 -25 10 -29 7 -4 8 -9 1 -13 -17 -11 -133 -113
-209 -185 -40 -38 -75 -67 -79 -64 -3 3 -5 34 -6 69 -1 54 -3 60 -14 44 -7
-10 -11 -22 -7 -27 3 -6 7 -35 9 -66 3 -53 1 -57 -36 -96 -22 -23 -40 -44 -40
-49 1 -17 -84 -169 -96 -174 -8 -3 -14 -13 -14 -24 0 -30 -22 -69 -39 -69 -9
0 -24 -8 -33 -17 -29 -31 -48 -44 -48 -33 0 5 -6 10 -12 10 -7 0 -19 4 -26 9
-17 10 -5 61 14 61 16 0 37 -37 29 -50 -3 -6 -4 -10 -1 -10 3 0 10 9 16 21 9
17 7 26 -14 54 -14 19 -26 40 -26 47 0 19 80 161 87 154 3 -3 7 -23 9 -45 2
-22 13 -54 24 -73 l21 -33 -8 30 c-4 17 -7 45 -6 63 1 17 -3 32 -8 32 -14 0
-11 17 9 36 16 17 16 18 0 11 -12 -4 -18 -2 -18 8 0 23 16 26 35 5 23 -26 28
-25 56 5 13 13 30 25 38 25 9 0 11 6 6 18 -4 9 -8 23 -8 30 0 8 -11 18 -24 23
-40 15 -29 48 39 116 65 65 78 73 78 48 0 -12 4 -13 25 -3 14 6 25 16 25 21 0
5 -7 4 -15 -3 -12 -10 -15 -10 -15 3 0 21 12 27 38 20 18 -4 20 -8 11 -19 -14
-17 7 -19 43 -5 13 5 36 12 52 16 22 5 26 9 16 15 -8 5 -27 6 -42 3 -19 -4
-28 -1 -28 7 0 7 6 10 14 7 11 -5 14 2 11 32 -3 35 0 41 43 73 110 82 117 83
126 31z m777 -36 c49 -11 54 -15 61 -47 4 -19 6 -141 5 -270 l-2 -235 -47
-100 c-43 -91 -168 -389 -168 -400 0 -3 4 -5 8 -5 9 0 29 43 107 230 28 69 61
145 72 170 l20 45 6 -90 c4 -49 3 -104 -2 -122 -5 -17 -41 -73 -80 -125 -116
-153 -102 -140 -140 -127 -27 10 -32 15 -27 34 3 13 11 65 16 117 6 51 17 154
25 228 24 216 29 296 17 285 -6 -5 -13 -37 -16 -70 -4 -33 -8 -73 -11 -90 -7
-49 -49 -449 -50 -475 0 -8 -10 -16 -21 -18 -19 -3 -22 3 -27 45 -3 26 -14
100 -25 163 -11 63 -23 135 -27 160 -3 25 -12 80 -20 124 -8 43 -15 93 -15
112 0 18 -4 36 -10 39 -10 6 -10 5 15 -200 16 -127 59 -389 71 -431 5 -17 0
-23 -23 -29 -41 -10 -78 37 -87 112 -4 31 -5 58 -2 60 2 2 18 -24 35 -59 18
-35 29 -54 25 -43 -3 11 -10 34 -14 50 -4 17 -18 55 -30 85 -25 62 -24 48 -20
567 2 280 4 312 19 316 35 10 311 5 362 -6z m-415 -274 c-4 -153 -9 -298 -11
-323 -6 -64 -7 -299 -1 -338 3 -18 1 -32 -3 -30 -24 9 -261 282 -262 301 0 12
0 49 0 82 0 44 -2 55 -9 40 -8 -18 -9 -18 -9 5 0 14 -1 117 -4 230 -2 113 -2
197 0 187 2 -9 8 -15 13 -12 5 3 7 12 4 20 -4 10 9 21 42 36 76 32 127 49 154
49 14 0 36 7 50 15 14 8 29 14 34 15 5 0 6 -119 2 -277z m927 251 c52 -27 54
-30 47 -78 -4 -25 -3 -43 2 -40 4 3 8 16 8 29 0 49 31 39 119 -37 61 -53 105
-114 96 -136 -12 -31 -16 -160 -5 -167 6 -4 11 10 12 37 5 123 5 123 29 112 8
-3 46 -56 86 -117 98 -153 109 -203 36 -166 -21 10 -44 19 -53 19 -9 0 -25 6
-36 14 -14 11 -22 12 -33 3 -10 -9 -16 -7 -27 8 -8 10 -14 25 -14 32 0 8 -25
43 -55 79 -31 36 -69 83 -86 106 -16 23 -45 53 -64 67 -25 17 -34 30 -30 42 3
9 1 20 -5 24 -5 3 -10 -1 -10 -9 0 -10 -22 2 -66 35 -36 27 -94 64 -127 81
-58 29 -61 31 -37 40 13 5 33 8 45 6 11 -1 27 2 35 7 8 5 33 12 55 16 22 4 41
7 43 8 2 0 17 -6 35 -15z m-287 -52 c99 -43 241 -133 299 -186 12 -12 37 -34
55 -50 86 -78 218 -281 274 -421 58 -145 92 -375 81 -547 -8 -125 -49 -311
-94 -423 -64 -160 -202 -345 -336 -452 -86 -69 -262 -176 -279 -170 -6 2 -36
82 -68 178 l-58 174 2 167 c2 93 6 168 9 168 3 0 28 -35 56 -77 28 -43 89
-132 136 -198 47 -66 103 -144 123 -172 21 -29 39 -51 42 -49 4 5 -29 54 -222
335 -69 100 -130 199 -136 219 -13 46 -13 95 -1 90 6 -1 70 -53 143 -113 151
-125 355 -285 364 -285 7 0 -100 89 -306 255 -178 143 -210 176 -210 214 0 17
5 31 11 31 5 0 108 -51 227 -113 119 -62 235 -121 257 -131 22 -11 72 -34 110
-53 39 -19 66 -30 60 -25 -5 6 -118 67 -250 135 -132 69 -276 145 -320 169
l-80 45 -3 46 c-3 46 -3 47 25 42 26 -5 122 -18 473 -65 80 -11 161 -19 180
-19 19 1 -8 7 -60 15 -94 13 -140 20 -315 48 -49 8 -139 20 -198 27 l-108 13
3 50 c3 50 3 51 43 58 447 79 573 103 649 122 50 13 81 25 70 25 -20 1 -83
-10 -319 -54 -44 -8 -145 -27 -225 -40 -80 -14 -160 -30 -179 -35 -19 -5 -38
-7 -43 -4 -5 3 -7 29 -6 57 3 58 -12 45 231 195 56 35 163 102 239 150 75 48
144 92 155 98 10 7 15 14 12 18 -6 6 -145 -76 -369 -219 -120 -76 -253 -155
-261 -155 -13 0 -11 137 2 162 10 19 53 74 217 276 37 46 69 89 70 95 7 22
-83 -78 -207 -231 -41 -50 -78 -89 -83 -86 -12 7 -10 162 3 247 6 40 22 95 35
122 13 28 26 60 29 70 2 11 17 56 33 100 16 44 32 94 36 110 7 29 6 29 -8 9
-8 -11 -18 -34 -21 -50 -4 -16 -11 -38 -15 -49 -5 -11 -23 -58 -41 -105 -17
-47 -35 -89 -40 -94 -5 -6 -9 74 -9 187 0 108 2 197 4 197 2 0 53 -22 112 -48z
m-987 -327 c1 -77 4 -157 8 -177 3 -21 1 -38 -4 -38 -4 0 -38 30 -73 66 -69
70 -155 142 -130 109 8 -11 57 -61 108 -111 70 -70 92 -99 93 -120 5 -91 3
-224 -3 -224 -3 0 -62 28 -130 61 -165 83 -250 121 -255 116 -2 -3 79 -46 179
-97 200 -102 245 -130 226 -141 -17 -11 -19 -39 -2 -32 9 3 14 -1 14 -12 0
-11 -5 -15 -15 -11 -12 4 -15 -4 -15 -39 0 -24 -3 -46 -8 -49 -4 -2 -43 0 -87
5 -149 17 -428 40 -432 35 -7 -7 44 -15 172 -26 139 -12 300 -30 333 -36 21
-4 22 -9 22 -84 l0 -79 -37 -10 c-21 -5 -135 -33 -253 -62 -118 -28 -222 -55
-231 -60 -27 -14 -36 4 -48 91 -13 89 -7 235 11 258 7 8 7 12 -2 12 -8 0 -10
9 -5 28 4 15 11 53 16 84 13 81 67 241 84 251 8 4 15 16 15 25 0 18 53 126 95
192 50 79 233 275 284 304 8 5 25 18 36 28 20 19 20 19 26 -49 4 -37 7 -131 8
-208z m1709 -205 c51 -24 62 -33 62 -53 0 -14 -8 -28 -17 -32 -16 -6 -15 -8 5
-16 22 -8 23 -13 21 -98 -1 -49 1 -92 3 -97 3 -5 3 -110 1 -234 -3 -124 -4
-237 -4 -252 0 -16 -4 -28 -10 -28 -6 0 -8 -3 -6 -7 9 -15 18 -120 11 -136 -6
-18 -98 -87 -114 -87 -13 0 -13 7 5 38 24 44 45 120 45 162 0 21 5 40 11 42 8
3 12 32 13 76 1 52 5 76 16 83 12 8 10 9 -7 4 -21 -6 -34 9 -15 17 9 3 -1 177
-13 220 -6 22 -3 27 17 34 l23 7 -21 9 c-16 7 -23 22 -28 57 -4 25 -13 55 -21
65 -8 11 -15 29 -15 40 0 24 -50 134 -80 176 -11 16 -20 33 -20 39 0 18 65 4
138 -29z m-1587 -167 c12 -19 60 -75 108 -125 47 -49 90 -97 95 -105 11 -21
19 -73 10 -73 -4 0 -65 32 -136 72 l-128 72 0 109 c0 120 5 125 51 50z m-661
43 c0 -3 -11 -47 -25 -98 -14 -51 -25 -103 -25 -115 0 -33 -27 -28 -45 8 -9
17 -19 28 -23 25 -3 -4 5 -20 17 -37 36 -48 36 -96 0 -133 -16 -16 -29 -34
-29 -38 0 -18 -74 -118 -84 -115 -6 2 -12 16 -14 31 -3 21 1 29 18 33 19 5 21
11 15 40 -3 20 -2 40 5 48 8 10 6 22 -8 47 -19 33 -19 34 0 98 11 36 21 74 22
86 1 11 6 26 10 33 5 8 3 17 -5 23 -11 7 -9 8 5 4 11 -4 23 -1 27 5 4 6 12 8
18 5 16 -11 13 -26 -4 -20 -9 4 -15 0 -15 -9 0 -25 50 1 89 46 29 32 51 47 51
33z m2379 -103 c6 -21 13 -72 16 -113 4 -41 9 -95 12 -120 10 -71 9 -233 -1
-255 -5 -11 -8 -30 -7 -42 1 -13 -2 -23 -7 -23 -5 0 -7 -12 -4 -26 5 -29 -17
-134 -29 -134 -11 0 -8 183 3 198 7 8 7 16 1 25 -6 6 -8 37 -6 67 3 30 4 72 3
94 0 21 6 49 14 61 10 16 12 25 4 33 -21 21 -32 272 -12 272 2 0 8 -17 13 -37z
m-1009 -118 c0 -55 0 -55 -57 -100 -62 -48 -109 -70 -118 -54 -8 11 155 220
167 213 4 -3 8 -30 8 -59z m-555 -122 c33 -18 51 -36 53 -50 4 -27 9 -27 -104
-8 -49 8 -104 16 -122 17 l-33 3 -2 73 c-2 40 -1 74 1 76 3 3 71 -34 207 -111z
m330 -62 c24 -13 31 -25 33 -55 6 -64 -58 -137 -104 -119 -8 3 -14 9 -14 13 0
4 -11 5 -25 2 -21 -4 -27 1 -41 34 -22 52 -6 107 39 135 35 21 62 19 112 -10z
m-435 -15 c14 -2 56 -7 93 -11 62 -6 68 -9 65 -28 -2 -16 -15 -23 -58 -33 -91
-21 -100 -20 -100 21 0 19 -4 35 -9 35 -8 0 -6 -54 4 -70 4 -7 -86 -33 -91
-27 -1 1 -4 30 -6 65 l-4 62 40 -5 c23 -3 52 -7 66 -9z m-1027 -31 c16 -4 31
-13 33 -19 2 -6 8 -63 13 -126 8 -103 7 -117 -9 -135 -20 -23 -34 -87 -25
-116 4 -10 21 -26 40 -33 25 -11 36 -25 50 -62 10 -27 29 -76 42 -110 12 -33
23 -67 23 -75 0 -8 9 -27 20 -44 24 -36 25 -53 6 -74 -23 -25 -29 -83 -13
-106 12 -16 27 -20 80 -20 l64 0 47 -57 c25 -31 60 -67 77 -81 l32 -24 -21
-21 c-12 -12 -25 -34 -28 -48 -6 -22 -2 -32 20 -51 36 -31 110 -33 128 -3 7
11 16 20 19 20 13 0 175 -101 186 -117 8 -11 9 -22 3 -34 -25 -46 -3 -91 53
-104 22 -6 34 -2 53 16 13 12 24 31 24 41 0 18 15 25 24 10 3 -5 -15 -73 -40
-153 -25 -79 -55 -184 -68 -234 l-24 -90 -68 -5 c-59 -4 -69 -8 -69 -24 0 -10
-7 -23 -16 -29 -18 -11 -56 11 -128 78 -34 32 -41 35 -31 15 15 -29 -118 88
-184 161 -163 181 -281 435 -321 687 -8 53 -20 119 -26 145 -12 53 -6 74 11
36 10 -22 10 -22 5 6 -3 17 -10 55 -17 85 -18 83 -17 740 2 711 3 -5 18 -13
33 -16z m1185 -75 c1 -25 -6 -33 -36 -49 -20 -10 -81 -41 -134 -70 l-98 -51 0
48 c0 35 3 43 11 32 7 -11 9 -6 7 20 -3 33 -1 35 34 44 44 11 45 10 50 -26 2
-15 8 -31 12 -35 5 -4 6 11 3 34 -5 42 -4 43 31 53 21 5 46 10 57 10 11 0 27
5 35 10 23 15 27 12 28 -20z m-1001 -52 c56 -58 73 -86 73 -117 0 -19 -6 -21
-65 -21 -61 0 -66 2 -75 26 -6 14 -10 50 -10 80 0 36 -4 54 -12 54 -13 1 19
30 32 30 3 0 29 -24 57 -52z m673 -82 l0 -72 -132 -74 c-151 -83 -298 -170
-298 -176 0 -6 34 9 85 39 28 16 73 42 100 57 28 15 86 47 130 72 126 70 115
75 115 -60 -1 -73 -5 -125 -13 -138 -7 -12 -58 -70 -114 -129 -57 -59 -103
-112 -103 -119 0 -6 50 40 111 102 61 63 112 112 113 110 2 -1 6 -55 10 -118
12 -213 15 -226 64 -330 9 -19 23 -43 31 -53 29 -35 2 -26 -45 16 -27 24 -59
50 -72 59 -12 8 -79 64 -149 124 -92 80 -146 136 -200 208 -40 55 -76 111 -80
125 -3 15 -11 33 -18 41 -31 37 -97 251 -83 266 4 3 55 17 115 31 59 14 178
42 263 62 85 21 158 36 163 34 4 -2 7 -37 7 -77z m329 34 c1 -9 -7 -27 -16
-39 -17 -22 -147 -163 -220 -237 l-33 -33 1 107 c1 84 3 98 10 67 4 -22 8 -59
8 -82 1 -24 5 -43 10 -43 8 0 5 129 -4 157 -6 19 40 49 157 103 26 12 53 29
60 37 10 13 13 13 19 -4 4 -10 8 -25 8 -33z m407 -21 c82 -67 94 -83 94 -128
0 -43 -10 -39 -43 17 -16 27 -45 66 -64 88 l-35 39 23 -40 c13 -22 39 -62 59
-90 60 -81 60 -83 59 -237 l-1 -143 -80 245 c-70 214 -90 269 -106 303 -11 22
28 0 94 -54z m-126 8 c0 -24 87 -292 133 -407 14 -36 33 -92 42 -125 9 -33 45
-141 79 -240 34 -99 89 -261 123 -360 50 -149 158 -447 188 -518 7 -16 3 -18
-26 -15 l-33 3 -137 410 c-117 353 -278 843 -366 1120 -14 44 -32 93 -40 109
-12 24 -13 30 -1 37 23 15 38 10 38 -14z m-100 3 c0 -5 -14 -62 -31 -127 -17
-65 -37 -146 -45 -181 -7 -35 -30 -111 -50 -170 -19 -59 -37 -114 -39 -122 -2
-8 -16 -60 -30 -115 -15 -55 -29 -111 -32 -125 -3 -14 -9 -29 -13 -35 -5 -5
-11 -27 -15 -47 -4 -21 -11 -38 -15 -38 -9 0 -25 -40 -22 -52 2 -9 -19 -96
-81 -339 -24 -96 -51 -207 -58 -246 l-13 -71 -46 -4 c-25 -3 -46 -4 -47 -4 -1
1 11 39 27 86 43 129 193 594 196 605 1 6 17 62 37 125 19 63 45 149 57 190
12 41 35 116 52 165 16 50 43 144 60 210 30 122 63 241 79 282 8 23 29 32 29
13z m-183 -135 c1 -47 -1 -85 -6 -85 -5 0 -11 -17 -15 -39 -3 -21 -26 -76 -50
-122 -24 -46 -49 -101 -56 -121 -19 -61 -28 -53 -27 22 1 39 5 70 9 70 4 0 8
9 8 20 0 11 5 20 10 20 6 0 10 -12 10 -27 0 -40 11 -21 15 27 2 24 8 46 13 49
5 3 19 26 32 51 12 25 29 53 37 62 8 9 13 27 10 40 -3 21 -5 21 -16 -9 -13
-34 -31 -44 -31 -18 0 8 -4 15 -10 15 -13 0 -13 -27 1 -32 18 -6 -39 -115 -83
-160 -9 -9 -27 -36 -39 -60 l-23 -43 -8 35 c-5 19 -9 41 -10 48 -1 12 -18 18
-18 5 0 -4 5 -21 12 -39 8 -24 9 -40 1 -56 -6 -13 -15 -34 -21 -48 -10 -24
-11 -24 -11 10 0 19 1 58 0 85 0 81 3 103 16 116 9 9 11 7 6 -10 -3 -12 1 -29
9 -39 8 -9 18 -26 22 -36 3 -10 9 -17 12 -14 2 3 -1 18 -7 34 -20 51 -20 109
1 122 17 10 19 6 25 -38 4 -28 12 -53 17 -56 7 -5 8 4 3 27 -17 80 -12 97 46
152 30 29 67 69 82 90 15 20 29 37 30 37 1 0 3 -38 4 -85z m240 25 c6 -19 26
-82 43 -140 17 -58 58 -180 91 -272 32 -91 61 -184 65 -205 6 -39 5 -39 -33
-51 -21 -6 -64 -11 -96 -11 -51 0 -65 5 -120 42 -50 34 -67 53 -89 98 l-27 55
24 90 c13 49 33 123 45 164 37 132 62 224 67 253 6 33 14 27 30 -23z m-1202 0
c8 -12 -21 -73 -44 -94 -28 -25 -26 -43 3 -43 28 0 112 -59 151 -105 l27 -31
-22 -12 c-27 -14 -120 -8 -138 9 -7 7 -15 26 -18 42 -3 16 -9 31 -15 32 -5 2
-9 16 -9 32 0 16 -5 30 -12 32 -8 3 -7 11 4 27 14 20 14 26 2 49 -21 41 -18
70 9 74 26 4 55 -1 62 -12z m2425 -149 c0 -56 -15 -91 -40 -91 -11 0 -30 -11
-42 -25 -11 -13 -26 -22 -31 -18 -6 3 -7 1 -3 -5 5 -9 13 -9 27 -2 10 6 19 8
19 4 0 -4 9 1 20 11 19 18 20 17 20 -4 0 -12 -11 -46 -25 -74 -20 -42 -33 -56
-67 -71 -55 -24 -75 -32 -118 -45 -33 -10 -31 -10 22 -7 40 3 64 11 79 25 27
25 44 27 35 5 -11 -28 -113 -178 -142 -209 l-29 -30 -7 45 c-14 96 -9 163 15
200 13 19 36 59 52 88 26 49 31 52 57 47 17 -4 28 -2 28 4 0 6 -7 11 -15 11
-19 0 -19 31 0 76 10 23 20 34 31 32 9 -2 34 14 57 35 22 20 44 37 49 37 4 0
8 -18 8 -39z m-1456 -59 c-4 -27 -10 -39 -18 -35 -8 5 -8 3 0 -8 19 -24 -4
-134 -83 -379 -68 -213 -68 -214 -93 -130 -8 25 -16 50 -20 55 -12 19 -10 67
4 94 7 14 20 40 29 57 9 17 14 34 11 36 -3 3 2 8 10 11 17 7 14 -39 -9 -119
-15 -54 -10 -140 6 -99 4 11 8 35 8 54 1 19 4 31 8 28 3 -4 17 25 29 65 21 65
22 75 9 95 -17 26 -20 59 -5 68 6 3 10 13 10 21 0 8 20 56 44 107 24 51 47
101 50 111 11 32 17 11 10 -32z m-749 -186 c30 -44 73 -105 96 -135 l42 -54
-103 6 c-67 3 -99 2 -92 -5 5 -5 45 -11 88 -14 46 -2 84 -9 91 -17 8 -8 15
-45 17 -90 2 -42 7 -81 11 -87 3 -5 1 -10 -5 -10 -7 0 -14 9 -17 20 -3 11 -10
20 -17 20 -6 0 -27 15 -46 33 -19 17 -37 32 -41 32 -4 0 -11 4 -16 9 -5 5 -3
6 5 2 7 -4 12 -1 12 9 0 11 -6 15 -18 11 -12 -4 -26 2 -39 16 -25 26 -96 158
-86 158 3 0 -3 10 -14 23 -11 12 -26 32 -32 45 -6 12 -17 22 -24 22 -10 0 -47
65 -47 83 0 10 138 9 144 -1 3 -5 7 -45 10 -90 6 -90 9 -102 32 -102 8 0 12 5
9 10 -7 11 -13 48 -20 124 -2 27 -9 54 -15 60 -5 5 -10 14 -10 19 0 18 30 -16
85 -97z m2205 -23 c-1 -81 -24 -273 -41 -338 -25 -94 -58 -196 -69 -210 -4 -5
-13 -28 -20 -50 -56 -178 -226 -404 -380 -507 l-54 -36 -13 36 c-57 157 -98
279 -118 345 -13 42 -27 81 -30 87 -4 7 53 40 70 40 1 0 8 -13 15 -30 20 -47
118 -65 148 -27 17 22 20 56 6 68 -8 6 -11 16 -7 22 3 5 -2 16 -11 23 -10 7
-15 18 -11 23 9 16 165 141 175 141 4 0 21 -7 36 -15 50 -26 80 -19 109 22 33
50 33 90 0 103 -14 5 -25 12 -25 15 0 3 26 39 58 79 31 41 77 108 102 150 45
76 60 90 60 59z m210 -31 c0 -4 -5 -13 -12 -20 -9 -9 -9 -12 0 -12 7 0 12 -4
12 -10 0 -5 -7 -10 -15 -10 -12 0 -13 -4 -6 -18 7 -13 4 -30 -10 -61 -10 -24
-19 -54 -19 -66 0 -13 -6 -25 -12 -27 -7 -3 -11 -18 -10 -37 2 -26 -2 -34 -18
-38 -11 -3 -20 -10 -20 -16 0 -6 -3 -7 -7 -4 -3 4 3 16 15 28 13 12 19 25 15
32 -4 7 -8 19 -8 27 -1 17 31 86 43 94 4 2 9 19 10 36 2 19 -1 29 -8 25 -5 -3
-10 -14 -10 -25 0 -13 -5 -17 -19 -13 -17 4 -20 -3 -26 -66 -4 -38 -4 -74 -1
-80 4 -5 -2 -16 -12 -23 -20 -14 -67 -78 -57 -78 3 0 -2 -12 -11 -26 -13 -18
-14 -28 -6 -33 6 -4 9 -17 5 -29 -3 -12 -9 -19 -14 -16 -5 3 -9 -1 -9 -10 0
-8 -4 -16 -8 -18 -4 -1 -18 -23 -30 -48 -34 -70 -23 -17 19 85 6 17 13 43 15
59 3 17 8 32 12 35 9 8 14 30 14 64 0 15 3 27 8 27 5 0 12 15 16 32 3 18 13
42 20 54 8 11 11 23 8 27 -3 3 20 32 52 64 32 32 59 63 59 68 1 6 3 16 3 23 2
13 22 17 22 4z m-1605 -112 c4 -16 5 -31 4 -32 -2 -2 10 -24 25 -50 17 -29 25
-55 22 -68 -3 -11 -9 -30 -12 -41 l-6 -22 22 21 c12 11 19 25 16 31 -10 16 16
25 28 10 6 -8 29 -15 51 -17 50 -4 54 -9 27 -28 -12 -8 -22 -22 -22 -30 0 -8
-3 -14 -6 -14 -11 0 -34 29 -34 44 0 9 -7 16 -15 16 -8 0 -15 -5 -15 -11 0 -6
-17 -27 -37 -46 -36 -35 -36 -36 -10 -31 18 4 27 1 27 -8 0 -7 -6 -11 -14 -8
-8 3 -19 -3 -25 -15 -16 -29 -13 -39 4 -17 8 11 18 17 21 13 4 -4 1 -13 -6
-22 -10 -12 -10 -15 3 -15 9 0 18 12 22 28 3 15 15 38 26 52 18 23 20 24 33 8
20 -27 28 -22 59 28 21 35 32 45 50 42 12 -2 27 2 32 9 6 6 24 15 40 18 l30 7
-31 -20 c-18 -11 -35 -25 -39 -32 -4 -6 -16 -8 -28 -5 -15 4 -18 3 -9 -3 11
-8 10 -17 -7 -50 -21 -42 -38 -58 -48 -48 -4 3 6 19 20 34 27 28 35 52 17 52
-5 0 -12 -11 -16 -25 -3 -14 -9 -25 -13 -25 -11 0 -31 -47 -31 -70 0 -11 -4
-20 -10 -20 -5 0 -10 5 -10 11 0 8 -5 7 -16 -2 -16 -13 -15 -3 3 66 6 20 5 20
-15 1 -12 -10 -22 -30 -24 -45 -3 -22 -7 -26 -33 -23 -16 2 -33 8 -36 14 -4 7
-9 7 -13 0 -4 -6 -21 -5 -48 5 -54 18 -70 33 -58 53 9 13 13 11 30 -10 16 -20
20 -22 20 -7 0 9 5 17 11 17 6 0 8 -9 3 -22 -6 -21 -6 -21 11 -5 17 17 17 19
0 31 -15 11 -16 15 -4 34 11 17 11 24 1 34 -9 9 -12 7 -12 -10 0 -12 -4 -22
-10 -22 -5 0 -10 -7 -10 -15 0 -8 -4 -15 -9 -15 -18 0 -21 18 -9 47 14 35 13
32 22 68 4 17 12 50 19 75 15 57 14 55 16 85 1 34 18 31 26 -5z m-562 -112
c91 -81 111 -107 85 -109 -21 -2 -32 -5 -49 -13 -9 -4 -38 -6 -65 -4 -44 3
-48 5 -55 33 -9 36 -18 175 -12 175 2 0 46 -37 96 -82z m1487 -26 c0 -5 -9
-17 -20 -27 -15 -13 -17 -22 -9 -36 5 -11 9 -25 8 -32 -1 -6 -1 -25 0 -42 1
-27 2 -28 17 -13 12 12 13 20 6 35 -12 22 -1 85 18 108 9 11 31 14 81 13 38
-1 69 -6 69 -11 0 -22 -75 -97 -169 -168 -99 -75 -104 -77 -126 -63 -22 14
-22 17 -10 62 23 85 35 106 78 144 42 38 57 46 57 30z m-135 -101 c-8 -16 -17
-51 -21 -78 -3 -26 -7 -50 -10 -52 -4 -4 -58 8 -113 25 -21 6 -23 5 -16 -17
10 -32 12 -34 29 -20 8 7 25 9 40 5 14 -3 39 -7 55 -8 40 -3 51 -15 27 -29
-70 -43 -121 -66 -128 -59 -4 4 -19 39 -32 77 l-24 70 90 46 c50 26 95 52 101
58 18 18 18 13 2 -18z m-1201 -12 c14 -11 26 -18 26 -15 0 4 22 -5 50 -19 27
-14 58 -25 70 -25 24 0 25 -14 4 -88 -20 -71 -28 -80 -52 -59 -10 9 -38 24
-62 32 -98 34 -248 127 -249 153 -1 19 98 20 110 0 4 -7 10 -5 15 4 9 14 42
37 55 38 4 0 18 -9 33 -21z m896 -156 c0 -8 6 -26 14 -41 27 -54 28 -69 4 -77
-13 -5 -32 -10 -43 -11 -11 -2 -48 -9 -82 -15 -57 -11 -66 -10 -110 11 -26 12
-64 37 -84 55 -20 18 -45 37 -55 43 -27 15 -16 20 51 25 33 3 76 8 95 11 19 3
51 8 70 11 69 9 100 17 107 28 7 12 33 -19 33 -40z m-540 -12 c0 10 54 11 74
1 5 -3 24 -6 42 -7 24 -1 47 -14 81 -46 27 -24 59 -51 72 -60 14 -8 22 -20 18
-25 -13 -22 -337 5 -337 27 0 5 26 26 58 46 31 21 59 39 61 40 2 2 2 6 -1 9
-14 13 -128 -63 -128 -86 0 -7 -7 -10 -16 -6 -9 3 -20 6 -26 6 -12 0 -6 60 11
103 l11 28 40 -21 c23 -12 40 -16 40 -9z m-27 -161 c31 -6 57 -16 57 -21 0 -5
10 -8 21 -6 12 1 24 -4 26 -10 3 -9 -6 -13 -26 -13 -25 0 -31 -4 -31 -20 0
-64 121 -98 156 -45 16 24 16 27 -1 45 -10 11 -16 22 -14 23 37 28 337 38 392
13 23 -11 22 -23 -4 -36 -16 -9 -28 -8 -54 4 -19 9 -37 21 -40 26 -11 17 -25
11 -25 -10 0 -56 88 -90 138 -54 19 13 22 22 16 47 -3 18 -11 35 -16 38 -12 8
2 41 15 36 6 -2 44 -100 84 -218 40 -118 72 -214 73 -214 0 0 -221 -1 -490 -3
-270 -2 -490 0 -490 4 0 8 98 402 105 423 3 8 14 11 28 8 12 -3 48 -11 80 -17z
m917 -462 c0 -5 -3 -8 -7 -9 -20 -2 -44 -10 -123 -42 -126 -52 -169 -63 -352
-88 -134 -19 -165 -26 -160 -38 4 -12 -13 -13 -114 -7 -65 4 -157 11 -204 16
-47 5 -119 12 -160 16 -58 5 -89 14 -138 40 -35 19 -69 34 -75 34 -6 0 -28 12
-49 26 -41 29 -39 50 5 56 47 7 1377 3 1377 -4z m-1390 -103 c36 -18 86 -38
113 -45 26 -7 47 -15 47 -19 0 -3 -59 -6 -130 -6 l-130 -1 0 36 c0 19 -3 46
-7 59 -5 21 -4 23 18 16 13 -4 53 -22 89 -40z"/>
<path d="M2745 5835 c7 -141 15 -215 27 -239 7 -13 7 -16 -1 -12 -16 10 -2
-56 16 -74 13 -13 14 -12 8 10 -3 14 10 -2 29 -35 19 -33 36 -66 36 -72 0 -7
4 -13 8 -13 8 0 32 -43 32 -57 0 -3 -7 0 -15 7 -13 11 -13 8 -2 -21 28 -71 42
-99 48 -99 11 0 -3 49 -17 61 -16 13 -19 39 -3 39 5 0 8 -4 4 -9 -3 -5 -1 -12
5 -16 16 -10 12 28 -6 53 -9 13 -14 32 -11 43 3 10 1 16 -4 13 -12 -7 -48 36
-49 57 0 9 -6 22 -14 28 -7 6 -19 33 -26 59 -7 26 -16 51 -19 57 -6 11 -9 30
-15 105 -10 129 -19 196 -27 210 -6 9 -7 -27 -4 -95z"/>
<path d="M13260 7954 c0 -22 -3 -25 -23 -21 -75 19 -333 23 -537 8 -91 -6
-249 -11 -352 -11 -180 2 -214 -2 -203 -20 3 -4 -2 -27 -11 -51 -16 -47 -54
-199 -58 -237 -2 -12 -6 -25 -9 -29 -11 -10 -8 -35 3 -28 6 3 10 -1 10 -9 0
-8 -8 -20 -17 -25 -16 -9 -16 -12 -3 -21 9 -6 10 -10 3 -10 -7 0 -11 -13 -11
-31 1 -17 -5 -35 -13 -40 -8 -5 -9 -9 -3 -9 6 0 9 -13 6 -30 -2 -16 -8 -27
-13 -24 -5 3 -10 -3 -10 -13 -5 -67 -8 -85 -43 -243 -13 -58 -27 -125 -31
-150 -4 -25 -20 -99 -35 -165 -15 -66 -33 -158 -40 -205 -14 -91 -88 -432 -97
-440 -3 -3 -2 27 1 65 5 59 2 49 -19 -55 -57 -294 -126 -618 -155 -731 -10
-42 -26 -130 -35 -195 -21 -159 -44 -267 -115 -539 -23 -88 -53 -212 -66 -275
-13 -63 -42 -187 -63 -275 -34 -137 -59 -256 -66 -315 -2 -20 -12 -57 -41
-155 -23 -79 -31 -110 -59 -255 -8 -41 -21 -109 -30 -150 -11 -50 -15 -97 -11
-140 6 -67 -13 -147 -37 -162 -9 -5 -9 -10 0 -19 17 -17 30 -4 37 36 9 48 24
52 32 9 4 -21 13 -49 20 -63 8 -14 14 -34 14 -44 0 -54 73 -149 100 -132 6 4
65 8 133 10 153 5 158 5 127 15 -16 5 23 8 103 9 83 1 126 -3 122 -9 -3 -5 -1
-10 4 -10 6 0 11 5 11 10 0 6 10 10 23 9 21 0 21 -1 2 -9 -12 -6 63 -7 189 -3
191 6 210 5 222 -11 11 -16 13 -16 19 3 3 12 10 21 15 21 4 0 11 17 15 38 3
21 12 56 19 77 l14 38 88 -1 c49 -1 121 -5 159 -9 97 -11 315 -7 345 5 19 8
-5 10 -95 8 -66 -2 -129 0 -140 4 -16 7 -11 9 20 10 22 1 49 6 60 11 13 6 -14
7 -75 2 -100 -7 -124 -7 -257 -3 -44 1 -86 -1 -92 -5 -8 -5 -10 2 -5 22 4 15
8 30 10 32 2 2 40 -2 85 -9 55 -9 123 -10 212 -6 73 4 151 7 174 6 23 0 44 4
48 10 3 6 -3 9 -17 9 -102 -5 -428 4 -428 12 0 5 17 9 38 9 20 0 135 1 255 1
119 0 217 4 217 9 0 5 -107 9 -237 10 -131 1 -250 3 -265 5 -16 1 -36 3 -47 4
-19 1 -19 3 -7 91 5 38 33 172 51 244 2 11 7 53 11 95 4 42 10 81 14 86 13 16
41 166 33 178 -4 7 9 8 42 4 26 -4 182 -7 346 -7 l298 0 7 -45 c3 -26 13 -53
22 -61 12 -13 13 -17 3 -24 -9 -5 -11 -18 -6 -39 4 -17 10 -29 15 -26 10 6 20
-19 20 -48 0 -18 -2 -19 -10 -7 -8 12 -10 11 -10 -7 0 -13 5 -22 13 -20 7 1
13 -10 14 -28 1 -20 0 -23 -4 -7 -2 12 -9 22 -14 22 -6 0 -8 -8 -4 -19 10 -34
53 -255 59 -308 2 -13 22 -53 45 -89 23 -36 40 -72 37 -79 -3 -8 7 -21 22 -31
15 -9 39 -31 54 -48 l27 -31 1 28 c0 33 -26 87 -51 104 -20 15 -103 134 -92
132 33 -5 42 2 33 26 -7 20 -6 25 5 25 8 0 16 -4 16 -10 1 -5 2 -13 3 -17 1
-5 5 -25 10 -47 11 -57 25 -88 36 -81 6 4 4 18 -6 37 -10 19 -16 55 -16 95 0
34 -4 65 -9 68 -5 4 -9 30 -8 58 l1 52 13 -30 c8 -16 11 -40 8 -52 -3 -12 -1
-28 3 -35 4 -7 9 -19 10 -28 1 -8 12 -60 24 -115 29 -134 51 -258 45 -264 -3
-2 4 -11 15 -18 17 -12 66 -14 288 -9 147 4 377 3 511 -1 l245 -8 8 -35 c12
-49 50 -151 55 -147 2 2 -6 44 -17 93 -11 49 -24 109 -29 134 -6 25 -24 100
-41 167 -16 68 -29 126 -28 130 1 5 -3 17 -9 28 -11 21 -48 176 -83 355 -11
58 -23 112 -25 120 -30 116 -76 345 -77 378 0 23 -3 42 -8 42 -14 0 -21 33 -8
42 10 6 9 8 -3 8 -16 0 -24 32 -65 245 -28 148 -28 149 -13 141 8 -4 6 -1 -4
7 -10 8 -13 17 -8 18 7 3 2 40 -14 102 -14 54 -25 106 -25 117 0 11 -4 20 -10
20 -5 0 -10 9 -10 21 0 11 -5 30 -11 41 -9 16 -8 23 2 29 12 7 12 9 0 9 -8 0
-11 7 -8 20 3 11 1 20 -4 20 -5 0 -8 8 -7 18 3 24 -13 105 -23 118 -5 6 -11
35 -14 64 -3 29 -8 57 -12 63 -6 10 -10 27 -33 142 -7 33 -27 114 -46 180 -39
133 -67 252 -95 395 -23 125 -77 367 -88 405 -5 16 -15 57 -21 90 -25 134 -62
302 -72 325 -5 14 -13 54 -18 90 -5 36 -17 101 -29 145 -36 145 -135 584 -156
693 -4 23 -91 172 -141 241 -30 42 -31 61 -2 61 12 0 18 3 14 7 -4 4 -17 8
-29 8 -15 0 -23 7 -25 23 -5 31 -22 28 -22 -4z m-900 -50 c41 -3 259 -6 484
-5 371 2 410 0 427 -15 11 -9 19 -23 19 -29 0 -7 16 -33 35 -58 19 -25 35 -48
35 -52 0 -3 11 -23 25 -45 14 -22 25 -43 25 -47 0 -5 -244 -7 -542 -6 l-542 1
-3 24 c-2 12 -5 45 -7 71 -6 73 -14 68 -15 -9 0 -36 -2 -69 -5 -71 -2 -3 -21
31 -41 74 -21 43 -48 100 -61 127 -13 28 -24 51 -24 53 0 2 26 2 58 -1 31 -3
91 -8 132 -12z m-170 -117 c0 -5 20 -51 45 -103 l45 -94 -29 -113 c-17 -61
-34 -139 -40 -172 -9 -52 -36 -181 -45 -210 -2 -5 -6 -23 -10 -40 -21 -85 -41
-145 -48 -145 -5 0 -7 -4 -4 -9 3 -4 -1 -39 -9 -77 -29 -133 -56 -260 -75
-354 -10 -52 -26 -126 -35 -165 -9 -38 -24 -117 -35 -175 -10 -58 -21 -116
-24 -130 -3 -14 -28 -122 -55 -240 -28 -118 -71 -309 -95 -425 -56 -257 -129
-552 -141 -562 -4 -4 -5 0 -2 9 3 10 2 20 -3 23 -11 7 -12 4 -14 -35 -1 -14
-4 -29 -7 -35 -3 -5 -5 -25 -4 -42 1 -18 -3 -33 -8 -33 -5 0 -6 -13 -2 -30 5
-24 3 -30 -10 -30 -10 0 -13 -4 -8 -12 4 -7 6 -24 5 -38 -4 -38 -35 -174 -42
-180 -3 -3 -6 -12 -7 -20 -3 -28 -42 -215 -69 -330 -14 -63 -30 -135 -35 -160
-10 -49 -29 -78 -29 -43 0 11 11 58 24 104 13 46 29 109 35 139 6 30 13 66 16
80 20 92 44 262 39 275 -4 8 -1 29 6 45 7 16 10 35 7 42 -3 8 -10 0 -17 -17
-17 -45 -25 -89 -13 -82 9 6 -21 -180 -34 -213 -7 -16 -10 -26 -12 -37 0 -3
-3 -4 -6 -1 -3 3 1 34 9 69 8 35 18 105 21 154 10 143 13 157 36 150 11 -4 19
-2 19 4 0 6 -5 11 -11 11 -7 0 -9 16 -5 45 4 28 3 45 -4 45 -5 0 -10 -7 -10
-16 0 -8 -5 -12 -10 -9 -10 6 -7 51 12 140 16 78 18 85 35 85 11 0 14 7 11 25
-4 17 -1 25 8 25 11 0 14 15 13 58 -2 80 9 160 38 277 20 86 66 318 77 395 2
14 6 34 9 45 2 11 10 54 17 95 7 41 17 80 21 86 5 5 10 26 13 45 4 33 18 100
36 169 5 19 16 69 25 110 9 41 31 138 50 215 18 77 45 205 60 285 15 80 33
170 40 200 7 30 18 80 24 110 6 30 25 116 42 190 17 74 39 178 50 230 11 52
24 99 28 105 5 5 8 17 8 25 0 8 5 38 11 65 10 49 25 132 38 210 5 37 7 38 20
20 8 -10 14 -23 14 -28z m1248 -242 c22 -125 33 -177 78 -362 24 -100 48 -201
53 -225 5 -23 16 -69 25 -101 9 -32 16 -61 16 -65 0 -4 -20 22 -44 58 -90 133
-197 230 -293 266 -27 9 -57 26 -69 36 -11 10 -28 18 -37 18 -9 0 -18 4 -21 9
-23 36 -405 49 -511 17 -64 -20 -225 -91 -225 -100 0 -3 12 -1 26 4 45 17 50
10 9 -12 -37 -19 -103 -66 -133 -95 -21 -20 -27 -15 -9 5 10 10 17 21 17 24 0
7 -30 6 -30 -1 0 -3 -16 -24 -36 -46 -42 -48 -93 -124 -128 -190 -40 -75 -40
-68 -1 40 19 55 67 226 106 380 39 154 77 295 85 313 7 18 11 38 9 45 -9 24
15 41 67 47 29 3 274 6 543 6 l490 -1 13 -70z m-365 -400 c106 -26 188 -61
270 -116 53 -35 51 -41 -16 -53 -45 -8 -99 13 -169 67 -27 20 -48 35 -48 32 0
-11 67 -65 108 -87 65 -36 81 -27 -189 -102 -146 -41 -317 -100 -371 -127 -20
-10 -43 -19 -50 -19 -8 0 -41 35 -75 78 -97 120 -131 158 -137 151 -4 -4 36
-59 89 -124 53 -65 92 -121 88 -124 -39 -29 -127 -237 -163 -385 -22 -89 -30
-100 -138 -183 -41 -32 -92 -73 -114 -90 -22 -18 -44 -33 -48 -33 -5 0 -11 19
-15 43 -4 23 -11 47 -15 52 -24 31 -32 294 -9 321 6 7 8 17 5 23 -3 5 -3 11 2
13 4 1 18 39 31 83 37 128 146 345 173 345 10 0 62 -37 236 -168 17 -13 32
-22 32 -19 0 8 -148 129 -208 170 l-53 36 68 50 c227 168 475 225 716 166z
m374 -217 c17 -18 52 -62 77 -97 35 -48 44 -66 34 -72 -10 -7 -10 -11 0 -21 9
-9 12 -9 12 1 0 7 5 9 10 6 6 -3 10 -13 10 -21 0 -8 -4 -12 -10 -9 -5 3 -7 0
-4 -9 3 -8 12 -17 20 -20 8 -3 14 -11 13 -18 -2 -7 8 -47 21 -88 19 -59 24
-97 24 -180 0 -58 -2 -120 -4 -139 -3 -31 -4 -32 -16 -16 -11 15 -11 21 -1 33
10 13 9 14 -10 3 -13 -6 -23 -14 -23 -17 0 -16 23 -44 35 -44 20 0 19 -49 -1
-79 l-17 -23 -24 28 c-31 38 -116 207 -155 309 -49 131 -150 377 -170 418 -11
22 -17 42 -13 45 12 12 100 39 131 41 22 1 38 -8 61 -31z m-227 -30 c0 -7 -7
-76 -15 -153 -8 -77 -15 -170 -15 -207 0 -74 -10 -86 -31 -36 -19 46 -117 141
-174 168 -95 46 -221 36 -339 -28 -53 -29 -118 -107 -131 -157 -4 -16 -10 -24
-12 -18 -6 17 21 96 55 164 23 47 35 58 87 83 64 32 528 194 558 195 9 1 17
-5 17 -11z m39 -75 c25 -51 105 -247 146 -358 18 -50 54 -132 79 -184 26 -51
43 -91 39 -90 -5 2 -80 49 -167 104 l-158 100 6 60 c16 146 25 275 26 338 0
37 2 67 5 67 2 0 13 -17 24 -37z m-263 -211 c50 -26 116 -95 146 -152 19 -36
23 -60 23 -125 -1 -101 -27 -166 -95 -229 -75 -70 -122 -91 -210 -91 -66 0
-81 4 -125 30 -61 36 -117 93 -141 143 -27 56 -25 191 4 256 41 91 103 154
179 182 52 20 169 12 219 -14z m400 -365 c78 -48 151 -98 164 -112 l22 -24
-228 -114 c-126 -63 -296 -153 -377 -201 -82 -47 -153 -86 -158 -86 -5 0 -34
37 -63 83 -30 45 -66 93 -81 107 -60 55 -109 122 -96 129 10 6 9 10 -2 14 -14
5 -127 150 -127 162 0 3 7 5 15 5 21 0 19 18 -5 32 -22 14 -26 44 -9 68 9 12
10 12 5 -4 -4 -13 -2 -17 8 -13 10 4 21 -18 40 -79 44 -138 136 -230 252 -254
65 -14 117 -7 199 26 32 13 61 22 63 20 2 -2 -10 -19 -25 -37 -44 -52 -133
-199 -120 -199 2 0 25 33 52 73 53 77 90 126 170 222 59 71 96 151 102 220 7
76 9 80 36 63 12 -8 85 -53 163 -101z m334 9 c0 -24 33 -189 49 -243 6 -20 6
-33 0 -33 -12 0 -11 -33 3 -67 6 -15 12 -32 14 -38 1 -5 10 -37 19 -70 20 -72
25 -99 29 -145 3 -31 16 -89 44 -200 5 -20 14 -46 21 -59 7 -12 10 -25 7 -28
-3 -3 -1 -15 5 -25 6 -11 12 -34 14 -52 4 -45 26 -139 35 -151 4 -5 10 -28 14
-50 3 -22 17 -88 30 -147 13 -60 20 -108 15 -108 -4 0 -13 18 -19 40 -6 22
-13 40 -16 40 -7 0 5 -57 19 -90 6 -14 9 -32 8 -39 -2 -8 5 -21 15 -28 11 -8
13 -13 5 -13 -8 0 -10 -7 -6 -20 4 -11 8 -35 11 -52 2 -17 9 -35 16 -40 10 -6
10 -8 -2 -8 -12 -1 -11 -3 3 -14 12 -10 14 -15 6 -18 -8 -3 -9 -9 -4 -19 5 -8
11 -25 13 -38 2 -14 11 -31 20 -38 13 -11 14 -16 5 -19 -7 -3 -13 -15 -13 -27
0 -18 2 -19 10 -7 9 13 10 13 11 0 1 -8 1 -20 0 -27 -1 -6 3 -14 9 -18 5 -3
10 -11 10 -16 0 -6 -6 -7 -12 -3 -10 6 -10 5 -1 -8 7 -8 10 -18 6 -21 -3 -4
-2 -7 4 -7 5 0 11 -21 12 -47 1 -26 5 -49 10 -53 9 -6 38 -125 71 -295 12 -60
30 -141 39 -180 10 -38 28 -113 40 -165 82 -372 155 -681 172 -724 10 -28 19
-53 19 -56 0 -3 -181 -4 -403 -3 -221 1 -443 2 -494 3 l-92 0 -6 48 c-4 26
-11 65 -17 87 -6 22 -14 65 -19 95 -4 30 -19 125 -32 210 -14 85 -28 178 -32
205 -3 28 -17 104 -30 170 -14 66 -26 136 -27 155 -3 29 -7 34 -23 32 -11 -2
-74 -2 -140 0 -181 5 -350 3 -444 -6 -61 -6 -90 -5 -107 4 -17 10 -30 10 -51
2 -15 -7 -37 -11 -48 -11 -85 5 -125 -21 -131 -84 -2 -18 -17 -72 -34 -122
-66 -194 -147 -500 -138 -526 2 -6 19 49 38 122 18 74 35 136 37 138 10 12 12
-10 3 -33 -8 -23 -17 -66 -36 -181 -3 -16 -12 -52 -20 -78 -9 -26 -13 -55 -10
-64 4 -9 1 -32 -5 -52 -12 -35 -15 -54 -18 -99 -1 -22 -4 -23 -78 -21 -43 1
-107 5 -143 10 -144 17 -206 20 -463 21 -147 1 -270 5 -272 8 -3 4 11 67 29
141 19 74 44 179 56 234 13 55 33 144 46 197 13 54 23 101 23 105 -1 4 0 15 3
23 17 44 29 110 23 120 -4 7 -2 16 4 20 7 4 14 27 16 51 3 24 9 69 14 99 5 30
15 87 21 125 7 39 16 75 20 80 7 9 23 82 25 110 0 6 3 15 6 20 6 10 21 89 25
135 7 78 18 140 25 140 5 0 6 -6 4 -12 -11 -33 -14 -118 -4 -112 6 3 8 12 5
19 -2 7 0 17 5 22 6 6 12 23 14 39 2 16 7 40 10 54 3 14 7 39 10 55 2 17 8 44
14 62 5 17 7 34 4 36 -2 3 3 31 11 62 8 31 12 63 9 71 -3 8 0 14 5 14 6 0 9
12 6 26 -3 15 -1 23 5 20 13 -9 20 16 9 37 -5 11 -5 17 1 17 6 0 7 7 4 17 -4
11 -3 14 5 9 7 -4 13 -1 13 6 4 38 13 80 20 93 3 6 6 24 7 42 1 18 7 44 12 58
6 15 10 40 10 56 0 16 4 37 9 47 12 22 53 197 90 387 16 83 39 188 50 235 30
120 67 304 76 375 9 68 6 75 46 -100 13 -55 22 -107 21 -116 -2 -9 4 -22 13
-29 8 -7 15 -17 15 -22 0 -5 38 -80 85 -166 47 -86 89 -164 94 -172 186 -349
260 -486 289 -534 l35 -58 -17 -102 c-9 -55 -23 -111 -31 -122 -10 -15 -11
-24 -3 -32 7 -7 6 -35 -6 -93 -11 -57 -13 -86 -6 -93 5 -5 10 -21 11 -35 0
-26 0 -26 11 -4 10 21 18 23 97 22 47 0 105 3 128 7 23 3 50 3 60 0 17 -7 17
-8 -1 -22 -17 -12 -18 -14 -3 -14 9 0 17 -4 17 -10 0 -5 4 -10 10 -10 5 0 7 7
4 15 -4 8 -2 15 2 15 13 0 35 -16 37 -26 2 -10 22 -10 107 1 32 4 50 3 43 -2
-8 -6 3 -9 30 -10 38 -1 40 0 17 9 -21 9 -22 12 -7 15 9 3 17 9 17 14 0 5 9 9
20 9 11 0 20 -4 20 -10 0 -5 8 -10 18 -10 15 0 15 -2 2 -11 -12 -9 -12 -10 3
-5 10 3 31 6 45 7 18 0 22 3 12 7 -29 13 -70 44 -70 53 0 5 14 9 31 9 23 0 30
-4 26 -14 -6 -15 12 -26 44 -26 10 0 19 -4 19 -10 0 -5 -7 -7 -15 -4 -8 4 -15
1 -15 -5 0 -6 18 -11 43 -10 32 0 37 2 22 9 -21 8 -21 8 25 23 8 3 -5 6 -29 6
-58 1 -44 15 17 18 26 1 81 4 122 7 41 3 86 5 100 6 l25 1 -24 12 c-19 9 -25
9 -29 -1 -2 -6 -8 -12 -13 -12 -6 0 -7 5 -3 12 5 8 -2 9 -25 5 -23 -5 -30 -3
-25 5 5 8 -5 9 -37 4 -80 -13 -171 -7 -185 12 -7 9 -22 80 -34 157 -40 257
-52 201 108 515 77 151 148 298 157 325 9 28 25 64 35 80 10 17 31 62 46 100
15 39 31 75 35 80 32 42 129 335 129 388 0 23 4 36 10 32 6 -3 10 -16 10 -29z
m-1293 -88 c42 -68 143 -205 203 -277 84 -101 130 -159 130 -164 0 -7 -192 73
-270 113 -87 44 -338 150 -356 150 -25 0 -14 14 38 50 29 19 91 65 138 102 47
37 86 68 87 68 2 0 15 -19 30 -42z m1159 -130 c-116 -267 -183 -405 -256 -538
-29 -52 -77 -149 -107 -215 -29 -66 -59 -129 -65 -140 -7 -11 -25 -47 -41 -79
-16 -33 -44 -80 -62 -105 -48 -67 -135 -244 -135 -274 0 -19 -4 -25 -14 -21
-10 4 -13 0 -10 -13 3 -11 -1 -25 -8 -31 -12 -9 -15 28 -17 241 -2 139 -5 282
-8 320 -3 43 -1 67 6 67 12 0 45 59 37 67 -9 9 -26 -8 -26 -27 0 -25 -17 -35
-24 -13 -3 10 -7 66 -8 124 -3 104 -2 106 28 145 16 21 42 57 57 79 15 22 47
60 72 84 48 48 53 63 11 36 -23 -16 -94 -105 -139 -178 -24 -39 -37 -25 -37
42 l0 57 79 52 c43 29 137 83 209 121 73 38 142 77 154 85 12 9 32 16 44 16
12 0 46 13 75 29 136 73 155 83 164 92 5 5 15 9 22 9 11 0 11 -6 -1 -32z
m-1126 -211 c119 -53 236 -103 260 -113 65 -25 90 -43 83 -60 -3 -8 0 -74 6
-147 21 -257 43 -873 30 -860 -4 4 -14 29 -22 54 -9 25 -40 86 -71 135 -60 98
-103 171 -252 433 -54 95 -113 199 -131 230 -53 93 -243 460 -243 470 0 6 28
-3 63 -19 34 -15 159 -71 277 -123z"/>
<path d="M5382 7937 c-19 -12 -54 -41 -80 -64 -46 -44 -62 -52 -62 -32 0 5 -4
8 -10 4 -5 -3 -7 -12 -4 -19 7 -17 -140 -154 -189 -176 -22 -10 -35 -20 -29
-24 6 -3 5 -25 -1 -58 -10 -54 -13 -1163 -3 -1328 9 -153 11 -1627 3 -1950 -5
-173 -10 -385 -12 -470 -2 -85 0 -149 4 -141 17 26 18 -69 13 -653 -2 -115 1
-213 5 -217 12 -12 174 -30 267 -30 44 0 182 -3 306 -7 124 -4 230 -4 235 -1
15 10 72 21 139 26 42 4 61 1 67 -9 7 -9 11 -10 17 -2 4 7 36 15 72 19 60 8
62 9 31 16 -19 4 -45 3 -58 -2 -33 -12 -29 3 15 61 20 27 52 69 70 93 18 25
43 56 55 69 12 13 35 39 51 58 16 19 31 34 35 32 9 -6 19 32 11 43 -4 6 -10
19 -14 30 -3 12 -4 9 -2 -8 2 -15 -1 -30 -5 -33 -10 -6 -10 -8 -14 91 -1 39 0
59 4 45 5 -17 9 -21 15 -12 7 12 -1 178 -10 193 -5 8 -11 749 -7 749 9 0 91
-187 102 -230 7 -25 20 -70 31 -100 22 -64 170 -528 237 -740 24 -80 56 -173
69 -208 13 -34 24 -73 24 -86 0 -12 9 -31 20 -41 31 -28 24 -35 -36 -35 -35 0
-53 -4 -49 -10 8 -13 549 -12 715 1 226 18 483 24 503 12 5 -3 16 -21 24 -40
8 -19 17 -33 20 -30 8 9 8 81 -1 95 -6 10 76 132 90 132 9 0 -24 -55 -45 -74
-12 -11 -21 -25 -21 -33 0 -28 87 81 95 117 0 3 8 16 16 30 9 14 31 50 50 80
18 30 37 58 42 61 16 11 -2 74 -52 187 -27 60 -52 120 -56 133 -4 13 -15 42
-26 64 -29 62 -254 640 -289 740 -17 50 -35 99 -40 110 -8 18 -24 63 -80 220
-22 60 -34 107 -31 119 2 10 -86 219 -126 298 -13 27 -23 49 -22 50 6 10 -15
48 -27 48 -23 0 -28 29 -9 50 23 26 39 26 25 0 -7 -13 -7 -20 -1 -20 6 0 15
17 21 38 6 22 29 55 56 82 25 25 54 60 65 78 12 17 25 32 30 32 5 0 9 7 9 16
0 9 5 12 12 8 7 -5 9 -2 5 8 -3 10 10 37 34 70 22 29 61 90 86 136 24 45 47
82 49 82 15 0 -18 -68 -75 -155 -87 -131 -90 -138 -40 -85 46 50 92 118 92
137 0 7 4 13 7 13 6 0 34 55 35 70 1 3 6 21 13 41 7 20 14 45 16 56 3 11 13
51 25 89 23 81 38 187 46 334 3 58 10 159 14 225 5 66 9 131 10 145 3 60 -24
213 -55 313 -19 60 -34 117 -34 128 0 10 -5 18 -11 17 -12 -3 -43 68 -53 122
l-7 35 22 -42 c13 -24 24 -41 27 -39 4 5 -37 88 -48 96 -3 3 -17 28 -30 55
-12 28 -43 76 -68 108 -43 57 -51 84 -15 56 28 -22 -84 106 -121 139 -105 92
-358 234 -501 281 -39 12 -79 30 -89 39 -11 9 -16 11 -12 5 10 -18 1 -17 -132
16 -186 47 -327 64 -502 62 -641 -7 -907 -6 -903 7 7 17 -6 14 -45 -11z m658
-39 c124 1 245 5 270 8 65 7 263 -14 348 -37 39 -11 77 -17 82 -14 6 3 10 2
10 -3 0 -12 38 -29 142 -62 47 -16 96 -34 108 -40 11 -6 26 -10 32 -8 6 2 -10
15 -36 28 -25 14 -46 28 -46 32 0 7 42 -2 50 -11 3 -3 30 -14 60 -24 30 -10
73 -27 95 -37 22 -10 47 -20 55 -24 8 -3 22 -10 30 -14 8 -5 26 -15 40 -22 96
-50 120 -65 169 -102 88 -66 129 -108 173 -178 22 -36 54 -84 70 -107 15 -23
31 -57 34 -75 3 -18 12 -47 20 -65 8 -17 17 -45 20 -62 4 -17 11 -34 15 -37 5
-3 9 -13 9 -22 0 -9 12 -42 26 -72 14 -30 32 -89 40 -130 8 -41 19 -97 25
-125 28 -133 34 -410 11 -465 -7 -16 -11 -19 -11 -8 -1 9 -5 18 -11 20 -6 2
-6 16 1 41 6 22 8 45 5 53 -3 8 -1 14 5 14 6 0 8 9 4 21 -4 12 -7 55 -7 95 0
41 -4 74 -9 74 -5 0 -9 -10 -10 -22 0 -22 -1 -22 -8 -3 -5 11 -6 24 -3 29 3 5
0 6 -6 2 -7 -4 -12 -16 -12 -27 0 -10 -6 -19 -13 -19 -7 0 -19 -16 -26 -35 -7
-19 -17 -35 -22 -35 -5 0 -9 -4 -9 -9 0 -17 40 1 40 18 1 26 26 52 44 45 9 -3
13 -11 9 -17 -3 -6 -6 -45 -7 -88 0 -55 -3 -76 -12 -72 -7 2 -15 -1 -20 -8 -4
-7 -3 -14 4 -17 8 -2 8 -11 1 -29 -8 -21 -7 -24 6 -19 17 6 18 4 9 -18 -3 -8
-11 -13 -19 -10 -9 4 -11 -3 -7 -23 4 -23 6 -25 12 -8 6 17 7 17 13 -4 3 -13
10 -20 16 -16 6 3 11 1 11 -5 0 -8 -10 -10 -27 -6 -16 3 -22 3 -15 0 15 -7 16
-34 1 -34 -8 0 -7 -6 2 -17 12 -15 12 -16 -3 -10 -21 8 -27 -9 -17 -52 8 -38
4 -55 -13 -45 -6 4 -14 0 -19 -7 -6 -10 -9 -8 -9 9 0 12 -5 22 -11 22 -13 0
10 24 31 33 12 4 11 6 -3 6 -19 1 -20 30 -2 43 6 5 5 8 -2 8 -19 0 -15 37 4
44 10 4 13 10 8 14 -6 4 -11 13 -13 21 -9 43 -16 125 -15 194 0 78 -12 103
-22 45 -3 -18 -4 -66 -2 -106 1 -39 -1 -72 -4 -72 -3 0 -9 35 -12 78 -3 43 -9
87 -12 97 -5 15 -4 16 3 6 7 -9 11 -10 17 -2 4 7 2 18 -4 25 -8 10 -8 16 2 25
8 6 17 8 21 4 4 -4 5 14 3 40 -2 26 0 47 5 47 4 0 8 -7 8 -16 0 -27 25 -9 27
20 2 23 -2 27 -16 23 -16 -4 -18 1 -15 31 1 20 -2 42 -8 49 -5 7 -8 19 -5 27
3 7 -5 23 -19 35 -23 20 -35 16 -13 -6 11 -11 19 -223 8 -223 -17 0 -28 31
-34 95 -8 86 -10 99 -43 205 -37 121 -153 339 -181 340 -7 0 -11 6 -7 15 3 8
0 15 -7 15 -7 0 -20 14 -29 31 -10 17 -22 28 -27 24 -6 -3 -13 1 -18 9 -12 21
-139 125 -223 182 -168 114 -445 204 -725 235 -145 16 -491 17 -790 2 -132 -7
-310 -15 -395 -18 l-155 -6 29 23 c43 34 183 155 244 211 l53 49 202 -8 c111
-5 303 -8 427 -6z m290 -284 c245 -28 408 -62 541 -113 149 -56 203 -84 297
-150 93 -65 135 -103 178 -161 16 -22 34 -40 39 -40 6 0 16 -13 23 -29 7 -16
28 -45 48 -65 19 -20 31 -36 27 -36 -4 0 0 -5 11 -11 15 -9 16 -13 5 -20 -12
-7 -11 -9 1 -9 20 0 56 -86 84 -197 79 -308 86 -344 75 -366 -6 -10 -8 -25 -5
-32 3 -8 1 -17 -4 -20 -18 -11 -10 -26 10 -20 18 6 19 0 22 -67 3 -70 -7 -348
-15 -416 -2 -19 -10 -38 -18 -43 -10 -6 -11 -9 -1 -9 15 0 5 -51 -12 -62 -6
-4 -8 -10 -4 -13 8 -8 -34 -146 -75 -246 -20 -48 -59 -125 -87 -173 -57 -96
-123 -158 -288 -268 -50 -34 -95 -71 -98 -81 -3 -10 -24 -25 -47 -35 l-42 -17
39 -5 c38 -5 39 -6 83 -105 74 -165 122 -283 170 -420 25 -71 72 -191 105
-265 187 -422 157 -384 -148 185 -65 121 -129 240 -142 265 -13 25 -60 115
-103 200 -43 85 -89 173 -102 195 -13 22 -88 157 -166 300 -79 143 -156 282
-172 308 l-29 49 25 20 c40 31 89 111 117 188 44 123 56 221 51 394 -4 128 -7
151 -39 245 -39 118 -79 178 -162 248 -80 66 -81 67 -44 48 55 -27 46 -11 -10
20 -45 24 -49 30 -32 37 18 8 18 8 -1 5 -11 -2 -48 7 -83 20 -68 25 -158 29
-267 12 -33 -5 -77 -12 -98 -15 -20 -4 -40 -10 -43 -15 -3 -6 4 -7 18 -4 41
10 44 -1 36 -165 -13 -283 -8 -1074 7 -1118 2 -7 0 -23 -5 -37 -8 -20 -6 -25
12 -31 30 -9 210 5 277 22 58 15 201 87 213 107 5 8 10 8 17 2 10 -11 263
-484 401 -750 46 -88 130 -245 188 -350 451 -815 450 -814 556 -1085 89 -228
101 -260 92 -260 -3 0 -100 188 -215 418 -115 229 -248 491 -296 582 -100 190
-273 519 -400 763 -48 93 -89 167 -91 165 -3 -4 18 -47 196 -393 137 -268 234
-454 275 -530 18 -33 164 -321 324 -640 160 -319 305 -605 321 -634 16 -30 28
-56 26 -58 -2 -2 -142 -6 -312 -8 -170 -2 -397 -8 -504 -14 -256 -13 -250 -14
-250 3 0 8 -47 156 -104 328 -57 172 -130 394 -161 493 -32 99 -72 227 -91
284 -48 147 -54 172 -75 306 -15 99 -17 107 -13 45 3 -41 8 -86 11 -99 4 -17
2 -22 -8 -19 -8 3 -33 48 -57 102 l-42 97 -4 150 c-4 147 -4 150 16 143 15 -4
19 -2 16 7 -3 8 -17 15 -33 17 l-28 4 7 -126 c3 -69 3 -126 -1 -126 -8 0 -50
63 -77 116 -8 18 -42 58 -75 91 -46 47 -63 58 -79 52 -10 -4 -21 -13 -23 -21
-3 -7 -2 -148 2 -313 4 -165 5 -572 2 -905 l-5 -605 -479 0 -479 0 5 280 c2
154 5 285 6 290 0 6 0 71 -1 146 l-2 136 131 259 c72 143 185 360 251 483 67
123 120 225 118 227 -7 7 -253 -442 -395 -719 -58 -114 -107 -206 -110 -204
-2 3 0 38 6 78 9 78 15 90 146 314 32 55 77 134 100 175 91 162 170 300 230
400 34 58 124 211 200 340 76 129 162 274 191 323 57 92 73 137 26 71 -88
-124 -472 -764 -712 -1186 -82 -145 -157 -276 -167 -293 l-18 -30 -6 100 c-3
55 -4 228 -2 385 5 437 14 1571 14 1700 0 63 0 135 0 160 0 25 1 50 1 55 0 6
-3 190 -7 410 -4 220 -9 495 -11 610 -2 116 -4 221 -6 235 -2 17 2 25 12 25 8
0 20 3 25 6 6 4 48 2 95 -3 80 -9 270 -5 530 12 213 13 489 11 630 -6z m49
-834 c56 -25 169 -135 220 -215 17 -28 43 -86 57 -130 64 -200 29 -582 -58
-639 -72 -47 -329 -76 -320 -36 5 20 2 668 -3 830 -2 69 -7 146 -11 173 l-6
47 35 -4 c20 -3 58 -15 86 -26z m-309 -386 c0 -14 4 -23 8 -20 4 2 5 -29 1
-71 -8 -81 -4 -103 17 -103 8 0 11 -6 8 -15 -5 -12 -9 -13 -20 -4 -12 10 -14
6 -10 -26 5 -42 16 -60 16 -27 0 12 5 22 11 22 6 0 9 -9 6 -20 -3 -11 -2 -20
2 -20 10 0 46 44 43 53 -1 4 5 10 13 13 8 4 15 10 15 16 0 5 -4 6 -10 3 -5 -3
-10 1 -10 9 0 9 5 16 11 16 5 0 7 4 4 10 -7 11 23 60 37 60 5 0 3 -7 -5 -15
-9 -9 -15 -33 -15 -60 0 -34 -6 -50 -26 -70 -29 -29 -33 -50 -12 -71 19 -18
26 -18 26 1 0 8 5 15 10 15 18 0 11 -40 -7 -40 -17 -1 -17 -2 0 -14 13 -10 22
-41 32 -118 8 -56 17 -115 19 -129 4 -22 2 -26 -12 -22 -13 3 -17 16 -18 51
-1 26 -4 70 -7 97 -3 28 -6 60 -6 72 -1 16 -6 21 -16 17 -9 -4 -15 0 -15 10 0
19 -20 22 -21 4 -1 -20 2 -103 5 -123 1 -10 11 -22 22 -26 18 -7 18 -8 -1 -8
-17 -1 -18 -3 -5 -11 13 -9 13 -11 0 -21 -9 -7 -11 -12 -4 -15 6 -3 9 -26 8
-55 -3 -41 -1 -50 11 -45 36 13 19 -16 -39 -72 -35 -33 -66 -66 -69 -73 -9
-24 -27 12 -22 46 6 54 9 134 4 140 -7 6 0 367 8 385 3 8 4 35 3 60 -6 102 -5
220 3 220 4 0 7 -12 7 -26z m1286 -1346 c4 -6 2 -14 -4 -16 -8 -2 -3 -11 12
-23 14 -11 28 -30 32 -42 3 -12 17 -37 31 -54 13 -18 19 -33 12 -33 -8 0 -9
-3 0 -13 6 -8 8 -17 4 -21 -4 -4 1 -4 12 0 14 6 17 4 13 -7 -3 -8 0 -23 8 -34
8 -10 14 -26 14 -36 0 -9 9 -28 20 -42 11 -14 20 -28 20 -32 0 -17 -50 59
-125 189 -44 77 -86 142 -92 144 -18 5 -16 -39 3 -66 8 -12 13 -22 10 -22 -3
0 -1 -11 4 -25 8 -20 7 -23 -8 -19 -15 5 -15 4 1 -9 10 -8 20 -25 22 -37 2
-12 9 -28 15 -35 7 -9 8 -15 1 -19 -6 -4 -24 20 -41 53 -33 67 -36 75 -17 66
6 -4 4 0 -7 9 -10 8 -15 19 -12 24 3 5 -1 18 -9 28 -8 10 -15 14 -15 9 0 -6 6
-17 13 -25 10 -12 9 -12 -5 -1 -26 19 -22 31 20 68 40 35 56 40 68 21z m-32
-273 c87 -176 177 -368 206 -437 19 -47 28 -58 47 -58 15 0 35 -16 63 -52 22
-29 52 -65 65 -79 27 -28 33 -44 13 -34 -7 4 -5 0 4 -8 10 -8 15 -16 13 -19
-3 -3 2 -11 12 -19 14 -12 16 -12 8 1 -5 8 -10 25 -11 38 -2 14 -14 37 -28 51
-15 15 -26 32 -26 38 0 5 -23 30 -51 54 -76 66 -80 72 -127 176 -41 94 -67
183 -53 183 8 0 91 -171 91 -188 0 -7 4 -12 8 -12 5 0 19 -20 32 -45 13 -25
25 -43 28 -40 3 2 0 11 -7 18 -6 8 -9 21 -6 29 3 7 -4 23 -15 35 -19 21 -19
22 -1 20 11 -1 17 -7 14 -14 -3 -7 0 -13 5 -13 17 0 44 -62 32 -74 -14 -14
-13 -29 3 -23 16 5 59 -55 87 -123 12 -30 33 -79 46 -108 13 -29 24 -55 24
-59 0 -12 132 -337 166 -408 28 -59 50 -114 132 -324 3 -9 1 -12 -6 -7 -7 4
-12 2 -12 -3 0 -6 5 -11 11 -11 13 0 38 -29 39 -44 0 -5 -10 -1 -22 10 l-22
19 16 -25 c9 -14 21 -24 26 -23 22 5 -11 -97 -38 -117 -16 -12 -121 -158 -136
-188 -8 -18 -19 -30 -24 -27 -6 3 -17 32 -26 63 -9 31 -20 62 -24 67 -7 10
-18 47 -26 94 -3 13 -14 41 -24 62 -11 22 -29 58 -41 80 -11 23 -22 52 -23 65
-1 12 -8 29 -14 36 -6 8 -25 56 -42 108 -18 52 -38 109 -45 125 -78 177 -147
360 -147 388 1 9 -3 17 -8 17 -7 0 -19 24 -25 50 -1 3 -13 31 -28 63 -14 31
-36 85 -48 120 -12 34 -30 81 -40 104 -29 66 -62 164 -56 169 5 6 67 -120 67
-136 0 -11 73 -196 98 -250 10 -19 23 -39 30 -43 6 -4 12 -13 12 -18 0 -6 -4
-8 -8 -5 -12 7 34 -83 52 -103 8 -9 22 -36 32 -61 10 -25 21 -47 25 -50 4 -3
17 -27 28 -53 11 -26 23 -47 25 -47 6 0 -21 65 -47 115 -59 113 -94 192 -90
202 2 7 -5 22 -16 34 -11 12 -18 25 -16 29 3 5 -2 11 -11 14 -10 4 -14 12 -10
22 3 9 -2 28 -12 42 -24 35 -53 108 -45 116 3 3 0 12 -7 21 -8 10 -9 15 -1 15
13 0 34 -40 51 -97 7 -24 16 -43 21 -43 4 0 -9 49 -30 109 -20 59 -39 107 -43
105 -9 -6 -63 111 -60 129 1 4 -5 24 -13 44 -8 20 -13 38 -11 40 2 3 7 -5 11
-16 7 -24 21 -27 29 -8 3 6 3 -1 1 -16 -2 -16 0 -36 5 -45 5 -10 16 -38 26
-64 9 -26 20 -46 24 -45 4 1 8 -2 8 -7 0 -5 4 -12 9 -15 5 -3 17 -26 27 -51
10 -25 25 -59 32 -77 8 -17 14 -36 14 -41 0 -6 5 -14 11 -18 32 -19 -35 146
-94 233 -15 24 -25 47 -22 53 3 5 1 10 -5 10 -6 0 -9 4 -5 9 3 5 1 13 -5 16
-6 4 -8 21 -4 41 4 20 2 34 -4 34 -5 0 -15 15 -23 33 -7 17 -20 43 -29 57 -9
14 -25 45 -35 70 -11 25 -30 62 -42 83 -13 21 -21 42 -18 47 3 5 -3 13 -12 19
-10 6 -14 11 -10 11 5 0 2 7 -7 15 -8 9 -12 23 -9 31 8 21 33 -20 117 -191z
m-1146 -927 c1 -51 7 -97 12 -102 6 -6 10 -15 10 -20 0 -6 -5 -4 -11 4 -8 11
-9 7 -5 -17 3 -18 8 -62 12 -98 4 -36 11 -68 16 -71 6 -4 7 11 4 37 -14 97
-15 124 -5 135 6 8 6 27 0 55 -6 24 -10 62 -10 84 1 80 19 -3 24 -109 3 -56 9
-128 15 -161 5 -33 10 -69 9 -80 l0 -20 -9 20 c-8 19 -9 19 -9 -2 -1 -13 5
-23 12 -24 10 0 10 -2 0 -6 -7 -2 -13 -16 -13 -29 0 -18 4 -23 13 -18 9 6 9 4
-1 -8 -8 -10 -13 -46 -14 -93 0 -54 -3 -73 -10 -61 -5 9 -8 27 -6 39 3 23 -8
47 -21 47 -5 0 -4 -19 1 -42 6 -24 12 -81 15 -127 5 -84 5 -84 23 -61 12 16
16 31 10 44 -17 49 -20 76 -8 74 7 -2 12 5 10 15 -2 9 1 17 6 17 5 0 12 -21
15 -47 3 -27 8 -55 12 -64 3 -9 -4 -26 -17 -40 -13 -14 -43 -49 -67 -79 -25
-30 -48 -58 -51 -63 -4 -4 -7 17 -8 48 -1 30 -6 63 -11 73 -18 34 -26 150 -24
361 2 118 5 216 8 219 6 6 6 -13 10 -268 2 -96 8 -188 13 -205 7 -21 9 51 6
228 -2 163 1 257 7 257 5 0 9 -26 8 -57 -1 -32 1 -74 5 -93 3 -19 8 -62 11
-95 9 -83 16 -83 14 0 -2 90 -1 97 11 90 6 -3 10 -38 10 -76 0 -40 4 -68 9
-65 13 8 4 125 -10 142 -6 8 -16 11 -22 7 -6 -4 -8 2 -5 15 4 12 2 22 -2 22
-5 0 -8 14 -8 30 1 17 5 30 9 30 5 0 5 10 0 23 -11 29 -15 277 -4 277 4 0 9
-41 11 -92z"/>
<path d="M6448 5264 c-25 -8 -68 -80 -68 -114 0 -49 21 -121 38 -127 8 -4 20
0 26 9 14 19 155 20 174 1 37 -36 67 44 38 103 -9 19 -16 40 -16 47 0 7 -13
28 -28 47 -26 30 -34 34 -88 36 -32 2 -66 1 -76 -2z m184 -109 c0 -8 1 -21 2
-27 1 -7 5 -16 11 -20 14 -10 -7 -29 -31 -28 -10 0 -47 1 -82 3 -35 2 -66 -1
-68 -5 -6 -10 -25 -10 -41 0 -6 4 -14 24 -18 44 l-7 37 98 4 c55 1 107 4 117
5 9 1 18 -5 19 -13z"/>
<path d="M5923 5122 c-34 -1 -66 -8 -71 -15 -19 -24 -71 -126 -73 -144 -5 -32
12 -101 28 -114 12 -11 18 -9 33 11 16 21 21 23 51 12 25 -8 27 -10 7 -7 -15
3 -30 1 -33 -5 -4 -6 8 -11 27 -11 18 -1 49 -3 68 -4 42 -2 61 10 53 33 -3 11
2 8 14 -7 27 -32 63 -22 63 19 0 16 4 39 8 52 16 43 2 105 -32 142 -35 38 -53
43 -143 38z m150 -122 c3 -11 2 -20 -3 -20 -4 0 -5 -10 -3 -23 3 -13 -2 -28
-9 -35 -8 -6 -66 -14 -131 -18 -105 -6 -117 -5 -123 11 -4 10 -1 21 7 26 11 6
11 9 1 9 -8 0 -11 10 -9 28 l4 27 114 6 c63 3 121 6 130 7 9 1 19 -7 22 -18z"/>
<path d="M6675 4413 c-48 -10 -77 -28 -90 -54 -8 -15 -26 -36 -40 -47 -22 -18
-26 -29 -31 -108 -5 -74 -3 -100 14 -154 12 -36 26 -84 32 -108 14 -54 49 -75
80 -47 11 10 17 22 14 26 -8 14 23 22 52 15 23 -6 26 -19 6 -22 -18 -2 -42
-17 -42 -26 0 -7 5 -6 14 1 9 7 22 8 37 3 53 -19 194 6 158 28 -6 4 5 10 25
14 40 8 56 2 56 -19 0 -17 -22 -25 -55 -19 -17 3 -24 1 -20 -6 4 -6 -8 -10
-32 -11 -21 -1 -51 -5 -68 -9 l-30 -8 30 -1 c25 -1 152 18 233 35 13 2 20 9
17 14 -3 5 -1 17 4 27 5 10 15 46 21 79 10 58 9 64 -20 125 -25 54 -27 65 -15
72 20 11 19 25 -2 23 -11 0 -29 19 -50 54 -50 86 -63 101 -99 116 -31 13 -152
18 -199 7z m199 -99 c50 -7 69 -25 81 -76 l7 -28 -172 0 -172 0 6 31 c3 17 6
42 6 55 0 24 1 24 99 24 54 0 119 -3 145 -6z m136 -158 c30 -69 34 -119 12
-146 -18 -23 -24 -24 -198 -26 -98 -1 -188 -4 -198 -6 -13 -2 -24 6 -32 22
-10 20 -48 137 -62 187 -3 10 4 10 28 1 22 -7 34 -7 39 0 4 7 36 7 101 0 106
-11 247 -5 263 11 15 15 27 4 47 -43z"/>
<path d="M5563 4320 c-18 -10 -46 -43 -62 -72 -16 -29 -34 -58 -40 -65 -6 -7
-11 -17 -11 -23 0 -5 -4 -10 -10 -10 -5 0 -10 7 -10 15 0 17 -16 20 -25 4 -4
-5 0 -18 9 -28 21 -23 21 -25 -10 -71 -43 -64 -46 -101 -17 -181 23 -62 29
-69 53 -69 22 0 29 6 34 26 6 24 10 26 39 19 18 -5 86 -9 151 -11 108 -2 121
-4 127 -22 13 -35 79 -33 79 3 0 8 9 15 20 15 11 0 20 6 20 14 0 9 -7 12 -20
9 -21 -6 -23 -3 -14 21 3 8 13 12 22 9 12 -3 13 -2 5 4 -21 15 -4 73 21 73 10
0 12 21 8 85 -2 51 1 91 7 98 13 16 -74 151 -107 166 -13 6 -71 11 -130 11
-89 0 -113 -3 -139 -20z m217 -70 c31 -8 37 -16 47 -52 6 -23 9 -46 6 -51 -6
-10 -319 -5 -336 5 -8 5 -5 20 10 52 20 40 26 45 60 49 78 8 179 7 213 -3z
m-71 -128 l149 3 -3 -32 c-2 -18 1 -33 6 -33 5 0 10 10 11 23 0 12 2 28 2 36
1 8 6 16 12 18 22 7 24 -28 5 -70 -11 -23 -22 -60 -26 -82 -11 -64 -15 -74
-33 -75 -34 -3 -111 -3 -260 -1 -136 3 -156 5 -173 22 -18 18 -26 49 -14 49 4
0 19 -7 35 -15 17 -9 30 -12 30 -8 0 9 -42 38 -51 36 -11 -3 3 46 17 58 8 6
14 16 14 21 0 6 9 22 20 38 19 26 22 27 65 18 25 -5 113 -8 194 -6z"/>
<path d="M8400 7948 c0 -5 17 -8 38 -8 20 0 60 -3 89 -6 l52 -7 -136 -141
c-75 -77 -142 -140 -150 -138 -11 3 -13 -107 -8 -715 3 -395 9 -774 13 -843 5
-69 6 -132 4 -140 -2 -8 -18 -22 -35 -30 -48 -23 -47 -53 4 -100 l43 -39 -27
-40 c-38 -57 -34 -107 12 -152 18 -17 18 -31 6 -1539 -3 -437 -6 -895 -6
-1017 l-1 -223 -36 -1 -37 -1 43 -10 c52 -11 45 -30 -9 -25 -21 2 -39 0 -39
-5 0 -4 20 -8 45 -8 29 0 45 -5 46 -12 1 -7 2 -20 3 -28 2 -8 3 -27 4 -42 1
-16 7 -28 13 -28 7 0 10 20 7 57 l-3 58 250 7 c258 8 822 9 980 3 343 -14 449
-17 445 -13 -5 6 -147 17 -240 19 -48 1 -51 2 -25 9 22 6 743 22 937 20 15 0
29 4 32 9 3 5 21 5 42 1 40 -9 67 -3 58 12 -4 6 2 8 15 3 16 -5 20 -3 15 8 -6
17 52 32 81 21 13 -6 16 -4 10 5 -6 10 -2 11 16 6 13 -4 28 -11 33 -16 15 -14
39 -11 65 7 17 12 20 19 10 24 -7 5 -19 6 -26 3 -12 -5 -12 -7 -1 -15 8 -5 2
-6 -17 -2 -37 8 -57 24 -30 24 16 0 13 14 -3 16 -4 0 -20 3 -37 7 -16 3 -50 9
-75 12 -109 13 -107 23 5 25 61 1 124 2 140 1 l30 0 -30 9 c-16 6 -68 12 -114
15 -46 3 -86 7 -88 9 -8 8 136 18 164 12 16 -4 40 -2 54 3 l24 10 -25 2 c-28
3 -147 7 -297 10 -57 1 -103 6 -103 11 0 7 15 12 32 9 4 0 34 5 65 12 59 14
103 10 106 -8 1 -5 6 -9 11 -7 4 1 51 5 105 9 90 5 156 20 106 24 -11 1 -33 3
-50 4 -123 12 -217 18 -257 17 -55 -1 -60 8 -19 37 47 34 137 152 181 236 46
91 98 225 130 335 12 41 26 89 31 105 8 24 50 219 86 400 3 17 6 47 7 68 0 20
4 37 8 37 14 0 -1 268 -23 390 -5 30 -12 69 -14 85 -30 175 -52 248 -94 320
-19 33 -35 66 -36 75 -1 17 -45 83 -89 136 -17 21 -23 34 -15 34 8 0 37 28 64
61 28 33 62 67 78 75 15 8 27 23 27 33 0 10 7 24 15 31 22 18 19 33 -17 68
-40 38 -75 101 -62 110 16 12 64 121 64 147 0 31 -22 52 -70 66 -38 12 -51 31
-30 44 6 3 10 19 10 35 0 35 13 45 40 30 11 -6 20 -7 20 -2 0 5 -12 14 -26 21
-23 10 -26 15 -19 44 4 18 9 55 11 82 2 28 6 73 9 100 3 28 7 77 10 110 3 33
8 68 11 79 21 67 8 306 -21 391 -7 22 -16 60 -19 85 -6 41 -5 43 9 26 13 -17
15 -17 15 -3 0 9 -10 23 -22 31 -12 9 -19 19 -15 22 4 4 3 12 -1 18 -5 6 -17
38 -26 71 -10 33 -20 67 -23 75 -4 8 -5 19 -4 24 1 5 -7 18 -17 30 -31 34 -36
47 -15 39 17 -6 17 -5 1 14 -10 11 -18 23 -18 28 0 5 -27 41 -60 81 -56 69
-57 81 0 45 15 -10 21 -11 16 -3 -4 7 -28 23 -54 37 -26 13 -74 50 -106 82
-59 57 -107 89 -240 158 -112 59 -74 55 62 -7 24 -11 46 -17 49 -14 17 16
-225 103 -392 140 -122 26 -159 36 -180 46 -11 5 -36 11 -55 14 -19 2 -71 9
-115 15 -44 6 -95 14 -113 17 -20 3 -32 1 -28 -4 3 -6 -54 -8 -152 -5 -274 8
-1112 8 -1112 1z m389 -33 c75 -3 280 -8 456 -11 176 -4 345 -8 375 -9 30 -2
92 -4 138 -5 66 -2 82 -5 78 -16 -6 -16 10 -19 19 -4 5 8 11 8 20 0 7 -5 21
-9 31 -8 30 3 94 -13 94 -24 0 -6 7 -8 15 -4 8 3 15 1 15 -4 0 -5 7 -7 16 -3
14 5 42 -1 194 -44 76 -22 185 -74 267 -127 79 -51 228 -203 270 -274 15 -26
42 -68 59 -94 18 -26 40 -69 49 -95 9 -26 21 -57 26 -68 15 -34 57 -219 52
-229 -8 -12 -21 14 -28 56 -4 20 -13 39 -21 42 -8 3 -14 15 -14 26 0 11 -6 20
-12 20 -9 0 -8 4 2 10 13 8 13 10 -1 10 -9 0 -19 7 -23 15 -3 8 -10 15 -16 15
-10 0 16 -49 33 -61 5 -4 5 -9 0 -12 -6 -4 -20 12 -32 33 -12 22 -19 40 -16
40 3 0 -1 10 -9 21 -8 12 -12 27 -10 33 3 7 -6 23 -18 37 -13 13 -29 36 -36
51 -6 16 -22 30 -37 34 -14 3 -25 10 -25 14 0 14 -142 109 -225 150 -22 11
-60 33 -85 48 -42 26 -171 82 -188 82 -4 0 56 -33 133 -73 77 -40 176 -100
219 -134 44 -34 83 -60 87 -57 16 9 101 -103 104 -136 0 -3 10 -19 23 -37 20
-28 45 -79 98 -200 33 -74 10 -61 -29 17 -69 139 -144 245 -221 316 -132 122
-399 282 -553 332 -172 56 -186 57 -758 54 -291 -1 -617 -7 -724 -12 -107 -5
-201 -6 -209 -1 -11 6 10 33 95 117 61 60 114 119 117 131 10 32 36 55 54 48
8 -3 76 -8 151 -10z m-336 -308 c31 1 57 -1 57 -5 0 -4 267 -7 592 -7 641 0
737 -5 908 -52 367 -100 606 -269 732 -519 30 -60 65 -138 77 -174 13 -36 27
-74 32 -85 20 -45 49 -156 48 -182 -2 -46 10 -241 17 -268 6 -25 -9 -35 -21
-15 -8 13 -48 13 -80 -2 -23 -10 -28 -8 -65 30 -21 23 -46 42 -55 42 -8 0 -33
-11 -55 -25 -48 -30 -50 -30 -50 -6 0 23 16 37 23 19 3 -10 10 -8 25 6 12 10
19 23 15 29 -3 5 -1 7 5 4 18 -12 43 4 37 23 -4 12 1 19 15 23 27 7 26 37 -1
37 -12 0 -23 -8 -26 -20 -4 -13 -14 -20 -30 -20 l-25 0 23 20 c13 10 19 19 13
20 -18 0 -157 -70 -151 -77 4 -3 23 2 42 12 43 20 58 15 17 -6 -15 -7 -40 -26
-56 -41 -17 -16 -35 -28 -42 -28 -13 0 -44 -37 -44 -53 0 -4 18 2 40 14 46 26
67 17 30 -12 l-25 -20 25 12 c14 7 33 13 42 14 10 1 21 5 25 10 5 4 -1 5 -11
1 -16 -6 -17 -4 -6 9 15 18 32 2 23 -22 -9 -23 16 -14 49 17 36 35 73 43 43
10 -10 -11 -23 -20 -29 -20 -17 -1 -90 -69 -83 -77 4 -3 20 6 35 20 28 27 42
33 42 19 0 -4 -13 -16 -30 -25 -28 -17 -40 -37 -21 -37 4 0 25 11 45 25 36 25
38 25 67 8 20 -12 27 -23 24 -34 -6 -19 10 -35 19 -20 11 17 -13 59 -41 73
-15 7 -29 20 -31 29 -4 20 28 35 38 18 4 -6 17 -8 28 -5 17 6 19 3 15 -15 -5
-19 -3 -21 18 -15 56 16 119 19 134 6 15 -13 21 -80 7 -80 -5 0 -17 -7 -28
-15 -14 -11 -15 -15 -4 -14 39 4 43 0 37 -43 -4 -32 -15 -51 -41 -75 -19 -17
-31 -33 -26 -35 5 -2 -3 -16 -16 -32 -14 -15 -28 -26 -31 -22 -3 3 2 15 12 26
19 21 8 29 -12 9 -9 -9 -21 -4 -48 20 -51 44 -56 38 -10 -11 22 -23 46 -48 53
-56 12 -13 20 -9 58 29 24 24 44 38 44 32 0 -55 -102 -315 -134 -342 -9 -7
-16 -18 -16 -23 0 -10 -25 -38 -34 -38 -3 0 3 16 14 35 24 43 24 45 4 45 -9 0
-12 -5 -8 -12 4 -7 3 -8 -4 -4 -12 7 -44 -8 -79 -37 -17 -15 -25 -17 -42 -8
-12 7 -21 13 -21 15 0 1 29 26 64 54 50 40 63 56 59 72 -5 19 -7 19 -62 -11
-31 -18 -65 -40 -77 -51 -24 -21 -42 -22 -66 -4 -19 14 -14 26 12 26 9 0 25 9
35 20 21 23 11 27 -12 5 -8 -9 -18 -13 -21 -10 -4 3 0 10 8 15 13 8 13 10 -1
10 -14 0 -79 -53 -79 -65 0 -3 10 -5 21 -5 12 0 43 -19 70 -42 26 -24 54 -49
63 -56 15 -12 14 -16 -3 -50 -10 -20 -31 -48 -45 -61 -14 -14 -26 -28 -26 -33
0 -4 15 9 34 29 29 32 36 35 50 24 9 -7 16 -19 16 -26 0 -14 -94 -89 -161
-128 -61 -35 -66 -50 -23 -66 19 -7 34 -16 34 -22 0 -5 16 -15 35 -23 19 -8
35 -17 35 -20 0 -3 -14 -13 -30 -21 -17 -9 -28 -20 -26 -24 3 -4 -6 -13 -19
-19 -28 -13 -35 -35 -8 -25 11 4 14 3 9 -5 -4 -7 -2 -12 4 -12 7 0 10 7 6 15
-5 15 56 65 81 65 19 0 26 -20 12 -38 -11 -14 -11 -15 1 -4 8 6 20 12 28 12
23 0 141 -120 201 -205 48 -68 101 -162 101 -180 0 -16 -43 -1 -65 22 -21 23
-25 25 -25 9 0 -10 9 -31 20 -46 19 -26 23 -28 51 -18 39 13 40 12 79 -112 40
-129 59 -204 66 -264 10 -82 -12 -43 -30 52 -19 103 -39 143 -30 62 3 -30 10
-68 14 -85 5 -16 19 -79 31 -140 18 -94 21 -129 15 -240 -3 -71 -12 -159 -20
-195 -8 -36 -21 -99 -29 -140 -15 -73 -43 -148 -61 -161 -5 -4 -5 -12 -2 -18
4 -6 0 -11 -9 -11 -11 0 -15 -5 -11 -15 3 -8 1 -15 -4 -15 -5 0 -12 -10 -15
-22 -28 -92 -210 -313 -266 -325 -16 -3 -29 -11 -29 -17 0 -6 -5 -4 -10 4 -6
9 -10 10 -10 3 0 -7 8 -17 18 -22 16 -10 16 -12 -2 -26 -23 -17 -36 -19 -36
-5 0 6 -10 5 -25 -2 -14 -6 -25 -14 -25 -18 0 -15 -102 -60 -225 -98 -128 -40
-210 -58 -395 -84 -111 -15 -522 -17 -915 -4 -374 12 -393 12 -412 4 -10 -3
19 -7 65 -7 143 -2 81 -17 -75 -20 -81 -1 -156 -3 -166 -4 -18 -2 -19 9 -15
208 1 116 3 445 3 733 -1 287 3 522 7 522 4 0 8 -21 9 -47 0 -27 2 -84 4 -128
2 -44 5 -117 6 -162 2 -46 6 -83 11 -83 8 0 3 185 -8 360 -4 58 -9 97 -11 88
-9 -38 -18 -15 -19 47 -1 51 2 65 14 65 10 0 12 4 4 13 -6 7 -11 126 -11 315
l-2 302 31 0 c17 0 44 -10 60 -22 l29 -21 63 21 c46 15 65 17 70 9 5 -7 -1
-18 -14 -27 -40 -26 -89 -73 -84 -78 6 -5 61 34 91 64 15 16 18 16 33 0 12
-12 13 -19 5 -27 -6 -6 -9 -17 -6 -25 2 -7 -8 -30 -23 -51 -19 -27 -12 -22 24
17 55 59 61 74 35 84 -15 6 -13 11 15 37 29 27 38 39 29 39 -2 0 -14 -9 -27
-20 -26 -23 -36 -25 -45 -9 -4 6 2 17 14 25 12 8 21 19 21 25 0 12 -63 12 -77
-2 -18 -18 -122 -38 -130 -25 -7 11 -8 15 -11 46 -1 9 -13 2 -31 -20 -25 -31
-30 -33 -43 -19 -14 14 -14 18 2 40 13 16 17 33 13 52 -5 24 1 35 48 78 31 29
62 49 76 49 24 0 95 80 116 130 8 20 11 22 14 8 3 -10 -9 -35 -26 -55 -41 -50
-39 -65 3 -24 33 32 56 35 56 5 0 -16 18 -18 40 -4 13 8 12 12 -7 25 -13 9
-23 25 -23 35 0 10 -4 22 -10 25 -17 10 -11 55 10 85 17 23 17 29 5 34 -16 6
-45 -18 -45 -38 0 -8 -7 -19 -15 -26 -8 -7 -12 -16 -9 -21 7 -13 -54 -89 -72
-89 -17 0 -18 16 -1 27 17 11 55 58 40 49 -18 -10 -16 9 2 24 8 7 15 19 15 26
0 8 4 14 8 14 5 0 46 37 93 82 70 68 77 76 39 52 -25 -16 -67 -50 -95 -76
-165 -154 -140 -93 42 102 24 25 43 49 43 53 0 18 -33 -13 -120 -111 -77 -87
-95 -102 -113 -96 -12 3 -24 8 -26 10 -2 2 38 47 90 99 98 100 113 120 82 108
-18 -7 -95 -82 -161 -156 -18 -20 -39 -37 -47 -37 -23 0 -18 -18 9 -35 30 -20
40 -43 25 -61 -6 -7 -8 -18 -4 -24 4 -6 -4 -19 -16 -29 -17 -14 -22 -29 -23
-69 -1 -40 -7 -57 -27 -79 -15 -15 -34 -41 -42 -58 -15 -28 -16 -18 -17 172
l0 202 34 -6 c32 -5 39 0 118 77 45 46 71 75 56 65 -35 -21 -35 -16 -3 21 26
30 31 44 17 44 -5 0 -22 -19 -39 -42 -89 -124 -154 -162 -166 -99 -4 16 -2 44
3 63 12 40 12 40 2 34 -4 -2 -9 6 -10 20 -2 25 13 33 21 12 2 -7 3 3 2 22 -2
26 -7 34 -19 32 -12 -2 -16 5 -17 30 0 18 -2 41 -4 51 -2 11 3 17 15 17 23 0
34 28 19 47 -16 18 -3 29 15 14 22 -18 41 -3 23 17 -17 22 -21 72 -4 73 6 1
24 0 38 -1 21 -1 28 4 33 24 7 27 58 58 81 50 8 -3 22 -1 31 4 16 9 13 12 -19
26 -26 10 -37 21 -37 36 0 33 28 78 58 94 25 13 33 13 69 -4 40 -18 41 -18 62
3 17 17 23 19 33 8 11 -10 8 -16 -11 -32 -13 -11 -31 -32 -40 -48 -9 -16 -31
-50 -48 -77 -18 -26 -33 -59 -32 -73 1 -24 2 -24 16 8 27 62 71 118 188 235
63 63 115 121 115 128 0 7 -34 -21 -75 -62 -41 -41 -77 -71 -81 -67 -15 15 86
135 127 149 8 3 11 8 7 12 -16 18 -98 -49 -148 -121 -8 -11 -25 -24 -36 -27
-18 -6 -21 -3 -17 18 3 14 13 28 23 31 10 3 29 19 42 36 13 17 33 41 46 55 22
25 30 54 14 54 -4 0 -16 -15 -27 -32 -10 -18 -31 -45 -46 -60 l-26 -27 -34 23
c-19 13 -40 21 -48 18 -8 -3 -12 1 -9 9 3 8 13 13 24 12 10 -2 27 8 36 21 17
23 15 23 -62 -10 -44 -18 -80 -30 -80 -25 0 5 10 20 21 35 32 41 16 42 -18 2
-21 -26 -32 -33 -43 -26 -12 7 -8 17 24 49 35 36 37 41 21 47 -14 6 -28 -3
-57 -36 -21 -23 -38 -48 -38 -54 0 -6 16 -22 36 -34 32 -21 41 -23 77 -13 42
10 67 2 67 -23 0 -19 -49 -65 -93 -87 -79 -40 -94 -71 -63 -131 14 -26 13 -28
-5 -28 -11 0 -33 -15 -49 -34 -17 -19 -42 -36 -58 -38 -15 -3 -35 -9 -44 -13
-17 -7 -18 24 -18 565 0 315 -5 660 -11 766 -12 215 -10 230 40 216 14 -4 52
-6 84 -5z m2547 -1682 c44 -23 62 -75 26 -75 -8 0 -13 -13 -13 -32 0 -23 -8
-39 -32 -60 l-32 -29 31 -35 c17 -20 30 -39 28 -43 -5 -11 -85 -81 -93 -81 -4
0 -1 8 6 17 27 34 -45 -24 -83 -66 -42 -47 -53 -50 -79 -18 -22 27 -24 38 -4
31 17 -7 85 56 85 78 0 7 -16 -5 -35 -27 -19 -21 -38 -35 -42 -31 -4 5 -2 11
5 13 6 3 12 10 12 17 0 7 5 17 11 23 15 15 127 256 135 291 12 49 24 53 74 27z
m61 -321 c10 -13 10 -17 -2 -25 -8 -5 -21 -9 -30 -9 -8 0 -42 -14 -75 -32 -70
-37 -69 -36 -62 -44 6 -5 48 14 58 27 3 4 19 10 37 13 47 11 50 -11 4 -25 -22
-7 -39 -17 -38 -23 1 -6 -6 -10 -16 -10 -15 2 -16 -1 -5 -13 10 -12 9 -17 -3
-27 -9 -6 -19 -21 -23 -34 -4 -12 -13 -22 -20 -22 -16 0 -68 65 -59 74 4 3 1
6 -6 6 -7 0 -9 5 -5 11 5 8 9 8 14 -1 6 -10 13 -9 31 4 13 9 18 16 11 16 -8 0
11 22 40 50 33 31 59 47 70 44 9 -3 19 0 23 5 4 7 -1 9 -12 5 -16 -5 -16 -4 1
10 25 20 50 20 67 0z m-342 -128 c15 -8 41 -32 57 -53 15 -21 39 -49 52 -63
66 -69 196 -305 206 -376 l6 -39 -17 35 c-9 19 -37 76 -61 125 -48 98 -152
242 -231 320 -65 63 -69 80 -12 51z"/>
<path d="M9760 7275 c-25 -7 -55 -11 -67 -8 -33 7 -110 -43 -155 -104 -37 -49
-42 -52 -58 -38 -24 21 -60 19 -87 -7 -20 -19 -27 -20 -43 -10 -31 19 -78 15
-99 -9 -32 -36 -35 -39 -61 -58 -21 -16 -23 -23 -15 -47 7 -18 19 -30 33 -32
27 -4 29 -33 3 -56 -21 -19 -17 -56 5 -56 8 0 14 -4 14 -10 0 -13 -17 -13 -25
-1 -3 6 -20 4 -40 -5 -19 -8 -38 -15 -42 -15 -5 -1 -19 -10 -32 -20 -33 -26
-18 -37 20 -15 23 13 34 15 42 7 17 -17 27 -13 27 9 0 17 4 19 27 14 54 -14
54 -17 58 -264 2 -157 0 -240 -8 -260 -9 -24 -9 -33 1 -39 15 -9 20 -137 6
-151 -15 -14 -84 20 -84 40 0 26 -20 36 -26 13 -6 -23 -64 -47 -78 -33 -6 6
-1 30 12 67 27 72 21 81 -11 17 -49 -101 -60 -115 -87 -112 -33 4 -37 30 -11
67 23 33 26 41 11 41 -14 0 -50 -60 -50 -83 0 -10 11 -28 25 -41 22 -21 24
-27 14 -49 -6 -14 -22 -31 -35 -38 -13 -7 -24 -19 -24 -27 0 -12 -3 -12 -15
-2 -8 7 -15 9 -15 6 0 -4 -9 -2 -21 4 -18 10 -20 9 -17 -6 2 -10 14 -21 27
-24 28 -6 35 -19 22 -39 -7 -11 -15 -11 -46 -1 -46 15 -53 33 -30 76 10 19 15
37 10 42 -4 4 -9 3 -11 -3 -11 -30 -47 -77 -52 -69 -4 5 -16 14 -27 20 -12 7
-19 20 -18 33 2 12 -2 21 -7 21 -14 0 -12 -64 2 -78 7 -7 18 -12 26 -12 7 0
35 -18 61 -40 26 -22 53 -40 59 -40 18 0 15 -15 -8 -35 -11 -10 -17 -22 -14
-27 3 -5 -3 -12 -14 -15 -21 -5 -118 -111 -109 -119 4 -5 51 45 80 86 8 12 20
20 25 16 10 -6 45 27 37 36 -3 2 10 22 29 44 36 42 60 41 32 -1 -21 -32 -12
-32 20 0 14 14 39 32 57 42 30 15 31 15 18 -1 -8 -9 -11 -20 -7 -24 4 -4 16 3
26 16 23 27 34 28 27 2 -3 -13 0 -20 9 -20 9 0 11 -6 7 -17 -7 -20 -9 -21 63
36 54 42 80 38 111 -14 16 -29 22 -53 20 -85 l-2 -45 33 3 c30 3 43 -10 22
-23 -5 -3 -10 -12 -10 -18 1 -7 11 0 23 14 19 23 33 28 102 35 44 4 82 8 85 9
73 21 97 32 129 60 21 19 51 41 66 49 26 14 30 13 41 -2 12 -15 13 -14 14 11
0 63 99 174 128 145 7 -7 8 1 2 26 -9 42 6 50 16 9 12 -45 58 -138 83 -164 15
-16 20 -19 16 -6 -4 9 -3 17 3 17 19 0 23 -39 7 -70 -21 -41 -2 -38 30 4 18
23 32 33 43 29 15 -4 15 -3 2 6 -13 9 -12 13 8 33 19 19 24 21 32 8 6 -10 4
-20 -7 -32 -10 -11 -12 -18 -5 -18 7 0 12 5 12 10 0 18 23 11 50 -15 24 -23
32 -25 66 -17 27 6 47 4 64 -5 14 -7 33 -13 43 -13 10 0 35 -11 55 -25 40 -27
62 -32 62 -13 0 6 10 22 22 35 12 13 18 26 13 30 -4 5 -10 2 -12 -4 -3 -7 -11
-13 -19 -13 -8 0 -14 -4 -14 -10 0 -15 -24 -12 -56 6 -28 15 -28 15 -4 11 20
-4 36 5 78 43 53 47 53 48 23 46 -16 -1 -33 -5 -37 -9 -4 -4 -14 -7 -21 -7 -8
0 -29 -11 -46 -24 -37 -28 -87 -44 -87 -27 0 6 6 11 14 11 7 0 19 7 26 15 7 8
51 40 99 72 90 59 151 110 151 126 0 5 -18 -7 -40 -27 -46 -41 -60 -45 -60
-15 0 11 -7 27 -15 35 -13 14 -22 9 -77 -38 -98 -84 -102 -87 -95 -94 4 -4 15
0 26 10 10 9 29 19 41 21 13 3 38 19 57 37 18 17 36 28 40 24 8 -8 -53 -67
-125 -123 -41 -33 -52 -24 -15 13 l28 27 -29 -18 c-22 -13 -31 -15 -34 -6 -3
8 -19 -1 -42 -24 -21 -21 -44 -35 -52 -32 -9 4 -7 6 5 6 9 1 17 6 17 11 0 12
81 90 93 90 5 0 6 4 3 8 -6 11 34 49 89 86 37 24 38 27 18 32 -12 3 -23 15
-25 26 -2 16 -9 11 -35 -26 -30 -42 -36 -46 -71 -44 -21 0 -49 9 -62 20 -19
16 -20 20 -9 34 12 15 11 16 -9 10 -30 -10 -28 7 4 50 33 43 21 45 -16 3 -35
-41 -47 -23 -20 30 29 58 25 60 -19 10 -22 -24 -43 -40 -47 -37 -4 4 -1 14 6
23 10 12 10 15 0 15 -9 0 -7 7 5 20 10 11 13 20 7 20 -6 0 -24 -16 -41 -36
-31 -38 -61 -41 -61 -6 0 12 -8 18 -27 20 -14 1 -28 4 -30 6 -5 5 34 76 55 99
8 9 13 19 10 22 -5 5 -23 -16 -63 -70 -14 -20 -14 -20 -15 2 0 12 5 25 10 28
12 7 14 35 3 35 -5 0 -19 -23 -32 -50 -18 -40 -27 -49 -41 -45 -10 3 -21 1
-25 -5 -3 -5 -13 -10 -21 -10 -17 0 -19 41 -2 58 9 9 9 12 0 12 -7 0 -12 5
-12 10 0 6 7 10 15 10 8 0 21 17 30 38 9 20 21 45 26 55 5 9 6 17 2 17 -5 0
-21 -23 -36 -50 -16 -28 -30 -50 -32 -50 -2 0 -4 22 -3 48 0 59 -16 121 -44
168 -11 19 -18 37 -15 40 11 11 60 -94 65 -138 2 -26 8 -45 13 -42 15 9 -3
117 -28 167 -13 26 -34 52 -46 56 -23 10 -64 41 -132 103 -55 49 -147 79 -255
83 -47 2 -98 3 -113 4 -25 1 -27 3 -17 22 16 28 7 34 -14 10 -18 -20 -18 -20
-39 -1 l-20 20 31 60 c29 56 26 82 -4 43 -13 -17 -15 -17 -34 6 -28 33 -26 39
21 60 26 12 37 21 29 26 -9 6 -9 10 1 16 23 15 60 10 86 -11 31 -24 55 -26 46
-4 -12 33 53 47 82 18 15 -15 19 -14 51 17 19 18 34 39 34 46 0 7 4 13 9 13 5
0 11 9 14 20 4 14 14 20 35 20 17 0 32 6 35 14 4 9 29 17 71 21 37 4 69 11 72
16 10 16 47 9 71 -13 13 -12 23 -17 23 -10 0 17 -51 52 -74 51 -11 -1 -41 -7
-66 -14z m-221 -516 c103 -32 193 -108 239 -202 40 -81 42 -137 7 -189 -27
-40 -30 -48 -17 -48 5 0 17 18 27 41 25 56 39 29 27 -51 -6 -41 -5 -61 2 -64
6 -2 3 -5 -6 -5 -19 -1 -24 -26 -8 -36 18 -11 11 -88 -13 -130 -21 -38 -26
-40 -92 -52 -39 -6 -92 -13 -118 -14 -34 -2 -61 -11 -90 -30 -23 -15 -43 -26
-44 -25 -2 2 -6 126 -9 277 -3 151 -6 312 -8 359 -1 47 0 96 4 110 4 16 1 29
-8 36 -40 29 35 45 107 23z"/>
<path d="M9881 7190 c12 -16 22 -43 21 -59 0 -21 5 -32 19 -36 11 -4 28 -24
39 -46 11 -21 26 -39 33 -38 27 1 123 25 137 34 8 5 32 11 52 13 61 5 130 -56
83 -74 -26 -10 -20 -22 47 -103 12 -15 -1 -46 -20 -46 -6 0 -17 -6 -23 -12
-10 -10 -10 -13 -1 -13 7 0 12 5 12 12 0 9 3 9 13 -1 10 -10 6 -17 -18 -37
-16 -13 -25 -24 -19 -24 5 0 15 5 21 11 14 14 63 -27 63 -53 0 -10 5 -18 10
-18 6 0 10 7 10 15 0 8 1 15 3 15 2 0 29 -5 60 -10 45 -9 63 -8 92 4 44 19
116 11 148 -15 20 -15 21 -21 10 -48 -11 -29 -10 -32 17 -46 32 -17 31 -40 -1
-50 -26 -8 -24 -19 7 -50 31 -31 53 -21 34 15 -9 16 -9 25 -1 33 17 17 13 52
-10 73 -15 13 -19 26 -15 46 7 35 -22 64 -77 79 -33 9 -47 7 -87 -10 -50 -21
-74 -20 -84 4 -3 8 -19 21 -37 30 -26 14 -36 15 -55 4 -32 -17 -37 -9 -18 30
15 31 15 32 -20 81 -32 45 -38 72 -22 99 10 16 -5 39 -42 63 -52 35 -78 39
-104 19 -31 -24 -75 -34 -81 -18 -3 9 -9 7 -24 -5 -33 -30 -60 -23 -82 20 -11
21 -27 44 -35 51 -9 8 -16 21 -16 30 0 23 -28 61 -46 61 -11 0 -10 -7 7 -30z"/>
<path d="M9125 6910 c-19 -21 -60 -27 -70 -10 -3 6 -23 10 -44 10 -29 0 -44
-7 -69 -32 -66 -69 -69 -71 -101 -52 -28 17 -32 16 -116 -17 l-87 -33 4 -41
c3 -22 8 -47 12 -56 6 -13 -2 -17 -43 -23 -28 -4 -51 -10 -51 -14 1 -18 18
-28 49 -30 28 -2 32 0 22 12 -10 12 -7 15 18 21 17 3 35 4 41 0 25 -16 29 9 5
37 -40 48 -31 77 30 99 70 24 121 24 142 -1 23 -27 36 -25 29 4 -4 16 0 28 11
37 15 12 16 12 10 -4 -8 -20 14 -33 39 -23 13 5 14 9 4 21 -10 12 -9 20 4 40
21 32 74 34 101 5 23 -25 28 -25 40 3 6 12 25 29 42 37 18 8 33 18 33 23 0 15
-38 6 -55 -13z"/>
<path d="M9793 5688 c-10 -18 -30 -54 -43 -80 -32 -62 -50 -48 -28 23 13 39
14 48 3 39 -11 -9 -27 -53 -29 -82 -2 -18 -18 -19 -36 -3 -13 12 -18 26 -15
39 6 19 5 20 -5 3 -10 -16 -14 -17 -28 -4 -22 18 -60 28 -68 16 -3 -5 -1 -9 4
-9 19 0 92 -73 92 -92 0 -25 -75 -98 -101 -98 -11 0 -28 9 -39 20 -19 19 -20
19 -30 0 -6 -11 -8 -25 -5 -30 3 -6 -1 -10 -9 -10 -21 0 -20 8 2 45 21 34 34
75 24 75 -4 0 -23 -25 -43 -56 -42 -65 -57 -60 -25 7 22 45 22 47 4 58 -15 9
-20 8 -25 -6 -3 -10 -15 -29 -25 -42 -19 -26 -24 -46 -8 -36 6 3 10 1 10 -4 0
-6 -6 -11 -12 -11 -7 0 -23 -3 -36 -6 -21 -6 -22 -4 -17 25 6 35 1 38 -22 15
-9 -8 -22 -13 -29 -10 -8 3 -14 -1 -14 -10 0 -26 -30 -28 -55 -4 -31 29 -44
20 -21 -14 12 -19 13 -31 6 -50 -8 -23 -50 -56 -50 -39 0 4 -5 2 -12 -5 -7 -7
-18 -12 -26 -12 -12 0 -11 4 2 25 12 19 13 25 3 25 -7 0 -18 -15 -26 -32 -7
-19 -15 -28 -18 -20 -3 7 1 20 7 30 7 9 1 5 -13 -10 -24 -26 -27 -26 -36 -10
-9 16 -11 16 -23 -1 -8 -10 -30 -22 -48 -27 l-35 -8 31 -1 c17 -1 47 -7 65
-15 60 -23 133 -5 191 49 32 30 68 41 68 22 0 -36 -120 -157 -155 -157 -19 0
-19 5 2 37 14 21 14 25 3 21 -8 -2 -20 -14 -25 -25 -6 -11 -15 -18 -20 -16 -6
1 -16 -1 -24 -6 -15 -10 -7 -31 12 -31 8 0 8 3 -2 9 -8 5 -9 11 -3 15 12 7 42
-3 42 -14 0 -13 -60 -60 -75 -60 -25 0 -65 23 -80 47 -19 28 -45 30 -45 3 0
-11 5 -20 11 -20 6 0 30 -16 54 -36 37 -30 50 -35 89 -33 49 3 70 -7 46 -21
-8 -4 -18 -9 -23 -9 -4 0 -21 -8 -37 -16 -32 -17 -36 -14 -20 15 9 16 8 18 -5
14 -17 -7 -51 -63 -47 -77 4 -12 -65 -103 -94 -126 -31 -25 -154 -182 -154
-197 0 -10 -21 -24 -36 -24 -3 0 3 15 12 33 26 50 97 138 151 187 49 45 87 91
50 61 -15 -12 -17 -12 -11 3 3 9 2 16 -4 16 -16 0 -158 -177 -191 -240 -18
-33 -36 -60 -42 -60 -20 0 -7 44 24 83 56 69 54 74 -6 23 -65 -57 -78 -83 -51
-103 11 -8 20 -18 20 -23 1 -6 2 -14 3 -20 2 -15 27 -12 40 4 7 8 20 12 30 9
9 -2 23 3 30 11 8 9 26 16 41 16 16 0 41 11 57 23 41 34 83 40 122 16 17 -10
38 -19 45 -19 15 0 46 42 46 62 0 7 9 19 21 26 19 12 20 11 14 -7 -5 -15 -2
-21 10 -21 24 0 14 -32 -13 -46 -16 -8 -20 -14 -12 -19 6 -4 29 5 50 19 22 14
52 26 68 26 29 0 92 53 92 78 0 7 5 12 10 12 12 0 12 -5 0 -69 -8 -44 -13
-549 -9 -1028 l1 -153 34 0 c21 0 34 -5 34 -12 0 -28 -134 -170 -205 -218 -40
-27 -76 -54 -79 -59 -4 -5 -29 -17 -56 -26 -65 -22 -75 -38 -11 -19 132 39
269 137 356 254 30 41 74 153 80 206 3 21 9 62 15 89 24 127 35 285 21 285 -6
0 -11 8 -11 18 0 14 2 15 10 2 9 -13 10 -13 10 0 0 8 3 75 7 149 4 100 3 132
-6 127 -8 -5 -11 8 -11 43 0 41 3 49 15 44 14 -5 15 3 11 53 -3 33 -8 93 -11
134 -14 164 -58 247 -173 327 -67 47 -216 192 -207 201 3 3 11 -3 19 -13 7
-10 18 -15 24 -11 8 4 10 2 6 -7 -3 -8 2 -17 11 -21 9 -3 13 -2 10 4 -3 6 1 7
9 4 9 -3 16 -10 16 -14 0 -5 35 -28 78 -53 72 -42 149 -113 195 -181 32 -47
30 -21 -2 30 -17 26 -31 52 -31 58 0 5 -7 17 -16 27 -9 10 -13 23 -8 30 4 7 9
24 10 37 3 23 2 23 -11 6 -8 -11 -15 -25 -15 -31 0 -22 -50 -10 -50 11 0 13
71 86 83 86 4 0 7 -10 7 -23 0 -12 7 -32 15 -43 8 -12 19 -52 25 -89 6 -37 17
-80 25 -94 l14 -26 0 40 c0 22 -4 58 -9 80 -21 86 -51 247 -46 252 2 3 -14 23
-35 46 -50 51 -83 97 -71 97 6 0 28 -21 49 -46 21 -25 50 -60 65 -77 15 -18
35 -47 45 -64 17 -32 33 -43 33 -23 0 6 -4 10 -10 10 -5 0 -10 6 -10 14 0 7
-6 26 -14 41 -13 25 -13 32 0 57 8 15 18 28 22 28 7 0 14 -61 16 -142 0 -25 3
-45 5 -42 2 2 10 -1 17 -7 8 -7 11 -25 7 -54 -3 -26 0 -45 6 -49 13 -8 15 -63
2 -68 -9 -3 28 -132 54 -183 l15 -30 0 28 c0 16 -5 37 -11 48 -6 11 -8 25 -6
32 2 7 11 -1 20 -18 15 -27 16 -28 17 -7 0 12 5 22 10 22 17 0 11 40 -10 62
-19 21 -19 21 19 48 20 15 52 46 70 68 31 40 111 199 111 222 0 6 8 30 19 53
10 23 21 49 23 57 3 8 6 -19 7 -60 1 -59 -3 -84 -20 -115 l-21 -40 41 47 c41
46 101 86 101 67 0 -5 -7 -12 -15 -16 -17 -6 -47 -57 -40 -67 3 -3 2 -4 -2 -1
-3 3 -16 -9 -27 -27 -46 -70 -67 -105 -92 -153 -15 -27 -37 -66 -50 -86 -12
-20 -20 -40 -16 -44 4 -3 -1 -11 -11 -16 -9 -6 -15 -14 -12 -20 4 -5 -1 -19
-9 -31 -9 -12 -16 -18 -16 -13 0 29 -24 -22 -40 -86 -10 -41 -27 -103 -38
-139 -10 -36 -20 -90 -21 -120 -1 -30 -6 -80 -11 -110 -10 -55 -23 -216 -20
-235 1 -5 4 -66 6 -135 2 -69 8 -138 13 -155 l9 -30 1 32 c2 54 21 49 21 -6 0
-27 5 -53 10 -56 6 -3 10 -11 10 -17 0 -5 -9 0 -20 13 -16 20 -19 21 -20 7 0
-10 5 -18 10 -18 6 0 10 -21 9 -47 -1 -47 15 -107 73 -270 22 -61 35 -84 51
-89 12 -3 30 -14 41 -23 12 -11 38 -16 80 -17 48 0 73 -7 120 -32 33 -17 63
-29 68 -26 8 5 -38 42 -87 70 -10 6 -21 16 -23 22 -4 13 111 -36 116 -50 2 -4
17 -8 33 -8 16 0 29 -4 29 -10 0 -5 19 -9 43 -9 l42 1 -38 8 c-21 4 -43 14
-50 22 -7 8 -31 29 -54 47 -43 32 -56 61 -29 61 9 0 12 -7 9 -20 -5 -17 0 -19
41 -18 48 1 79 -11 35 -13 -13 -1 32 -9 101 -18 69 -10 134 -21 144 -26 14 -6
17 -5 12 4 -5 7 -20 17 -34 22 -24 9 -25 11 -10 20 11 6 30 7 50 1 39 -10 110
-4 102 9 -6 10 -16 11 -159 10 -90 0 -90 0 -57 16 17 9 32 20 32 25 0 4 -25
-4 -55 -19 -58 -29 -80 -26 -50 7 28 31 11 34 -31 5 -45 -31 -57 -18 -24 27
30 40 18 47 -16 9 -28 -32 -46 -40 -43 -18 3 18 -11 47 -23 47 -6 0 -8 -10 -6
-22 3 -18 -1 -23 -16 -25 -88 -7 -95 -6 -131 18 -40 27 -89 103 -123 192 -24
64 -28 92 -11 81 6 -3 37 20 69 54 90 93 130 185 151 349 14 117 14 92 -1 233
-12 108 -44 224 -72 257 -20 24 6 38 31 17 37 -32 109 -56 132 -43 16 8 25 7
39 -6 25 -22 64 -13 86 20 20 30 33 31 68 4 19 -15 34 -19 52 -15 20 5 34 0
61 -24 48 -42 92 -36 146 20 23 25 47 40 61 40 36 0 79 55 71 91 -7 31 15 51
68 65 32 7 45 30 28 47 -7 7 -11 8 -11 0 0 -17 -51 -12 -87 8 -44 25 -53 24
-82 -7 -17 -17 -31 -24 -46 -20 -14 4 -37 -7 -73 -34 -29 -22 -52 -36 -52 -31
0 13 47 49 120 94 34 21 60 41 57 44 -9 8 -131 -64 -162 -98 -26 -27 -112 -79
-131 -79 -11 0 38 36 74 54 17 9 32 21 32 26 0 6 -36 -13 -81 -41 -45 -28 -83
-49 -85 -47 -5 6 72 59 116 81 19 10 42 22 50 27 73 44 160 90 183 95 15 4 27
11 27 16 0 12 -6 11 -38 -5 -15 -7 -43 -17 -62 -20 l-35 -7 28 16 c15 9 27 21
27 28 0 9 2 9 8 -1 7 -9 18 -4 47 23 22 19 35 35 30 35 -5 0 -19 -9 -31 -21
-12 -11 -28 -21 -35 -23 -8 -1 -33 -14 -56 -29 -47 -30 -53 -32 -53 -16 0 21
61 66 83 62 14 -3 33 6 55 26 32 30 46 55 17 31 -8 -7 -15 -8 -15 -2 0 5 7 15
15 22 22 18 18 32 -5 18 -11 -7 -20 -18 -20 -25 0 -6 -9 -15 -20 -18 -11 -3
-20 -11 -20 -16 0 -12 17 -12 25 1 3 6 11 10 18 10 6 0 2 -10 -10 -22 -18 -17
-25 -19 -37 -9 -14 12 -27 6 -71 -36 -8 -7 -20 -13 -29 -13 -8 0 -18 -4 -21
-10 -4 -6 1 -7 12 -3 10 3 15 3 11 -2 -4 -4 -25 -8 -45 -9 -27 -1 -38 -6 -38
-16 0 -8 -4 -18 -10 -22 -5 -4 4 -8 20 -8 29 -1 29 -1 11 -15 -22 -17 -50 -20
-41 -5 10 16 -11 12 -25 -5 -17 -20 -31 -19 -23 2 4 11 3 14 -5 9 -7 -4 -12
-4 -12 1 1 14 24 38 53 53 16 8 33 22 38 32 15 27 160 148 171 142 4 -3 7 -1
6 4 -2 6 0 9 4 9 9 -2 59 65 53 71 -2 2 -21 -10 -42 -27 -21 -17 -58 -46 -81
-66 -44 -35 -62 -43 -62 -26 0 8 52 55 106 96 10 8 15 15 11 15 -15 0 -51 -22
-79 -48 -30 -27 -52 -24 -24 3 22 22 20 32 -2 12 -11 -10 -26 -14 -40 -10 -16
4 -22 1 -22 -11 0 -14 11 -21 33 -17 13 2 7 -17 -10 -35 -10 -10 -16 -29 -15
-45 3 -23 -7 -36 -64 -83 -37 -31 -74 -56 -80 -56 -20 0 -7 40 23 72 24 25 25
28 7 28 -10 -1 -43 -9 -72 -19 l-52 -18 15 23 c8 13 15 28 15 34 0 19 -28 10
-48 -15 -25 -32 -42 -32 -42 -1 0 19 -5 24 -24 22 -13 0 -22 -4 -19 -8 2 -5 0
-8 -6 -8 -20 0 -20 18 1 36 12 11 18 13 14 7 -7 -13 6 -18 17 -7 9 9 -4 34
-18 34 -7 0 -30 -17 -52 -37 -21 -21 -35 -35 -29 -30 16 11 26 8 26 -7 0 -8 9
-21 20 -29 18 -13 19 -17 8 -49 -16 -45 -124 -168 -147 -168 -28 0 -51 60 -40
104 5 20 13 51 18 70 4 18 12 40 17 47 5 8 9 17 10 22 1 4 2 8 4 10 1 1 3 10
5 19 2 10 16 43 32 74 21 43 41 65 83 94 62 42 157 80 199 80 16 0 35 8 42 17
12 15 12 16 -4 10 -12 -4 -20 -1 -24 11 -4 9 -11 20 -17 24 -6 4 -3 14 8 27
27 30 6 26 -45 -9 -57 -39 -83 -39 -33 0 66 52 96 81 89 88 -4 4 -10 1 -12 -5
-3 -7 -14 -13 -24 -13 -11 0 -18 -4 -15 -8 7 -12 -6 -25 -47 -47 -38 -20 -62
-47 -50 -58 3 -3 -1 -13 -10 -21 -12 -13 -17 -13 -26 -2 -8 10 -6 18 9 31 12
10 19 24 16 31 -3 8 0 11 9 8 7 -3 28 9 47 26 l33 32 -40 -22 -40 -22 35 31
c24 20 30 31 19 31 -9 0 -37 -19 -63 -41 -26 -23 -49 -39 -51 -37 -3 3 10 18
28 34 78 69 73 66 96 52 20 -12 25 -9 55 27 19 22 33 42 31 44 -2 2 -20 -7
-39 -19 -23 -14 -43 -19 -57 -15 -19 6 -20 8 -3 26 15 17 15 19 1 19 -9 0 -19
-4 -22 -10 -7 -12 -45 -13 -45 -2 0 5 9 17 21 28 46 42 40 52 -14 25 -44 -23
-97 -35 -97 -23 0 2 9 17 21 34 29 40 20 44 -19 8 -37 -33 -53 -22 -23 16 30
38 25 55 -4 19 -14 -16 -25 -25 -25 -19 0 6 11 23 25 38 28 30 65 98 65 118 0
7 -12 -9 -26 -36 -14 -27 -37 -60 -50 -73 -13 -13 -24 -30 -24 -38 0 -8 -4
-15 -9 -15 -6 0 -7 17 -5 38 4 28 3 33 -5 22 -6 -8 -11 -23 -11 -32 0 -10 -5
-18 -10 -18 -10 0 -7 29 11 84 12 39 6 43 -12 8 -8 -15 -20 -31 -26 -35 -7 -4
-13 -19 -13 -32 0 -14 -4 -25 -10 -25 -5 0 -10 5 -10 11 0 6 -7 3 -16 -6 -11
-11 -20 -13 -27 -6 -10 10 10 82 47 164 20 46 15 48 -11 5z m-83 -480 c0 -5
-13 -17 -30 -26 -20 -11 -28 -22 -24 -34 2 -9 0 -19 -6 -23 -23 -14 -8 -23 17
-10 23 12 30 12 41 1 16 -16 26 -86 12 -86 -5 0 -10 -6 -10 -14 0 -16 -37 -46
-55 -46 -18 1 -48 53 -48 84 0 17 -6 39 -14 48 -18 21 -1 58 26 58 11 0 28 15
40 35 14 23 25 33 36 29 8 -3 15 -10 15 -16z m440 -383 c0 -2 -26 -23 -57 -46
-32 -24 -112 -93 -179 -156 -67 -62 -125 -109 -129 -105 -5 4 -5 2 -2 -4 4 -7
-1 -18 -10 -25 -14 -12 -16 -12 -8 1 5 8 -5 4 -22 -10 -18 -14 -32 -30 -32
-36 -1 -6 -8 -17 -16 -24 -8 -7 -15 -23 -15 -36 0 -26 -7 -29 -29 -15 -12 7
-10 14 8 36 11 15 21 33 21 39 0 6 -7 3 -14 -6 -7 -10 -16 -18 -20 -18 -12 0
-5 65 9 84 8 11 15 30 15 43 0 13 4 23 9 23 9 0 1 -43 -18 -95 -9 -25 -8 -27
2 -10 22 37 97 105 115 105 29 0 92 47 187 141 50 48 106 95 125 103 35 15 60
20 60 11z m514 -66 c26 -21 26 -22 9 -41 -10 -11 -16 -31 -15 -48 3 -23 -2
-29 -27 -38 -32 -11 -42 -7 -34 14 3 8 1 14 -3 14 -13 0 -41 -20 -29 -20 6 0
-3 -8 -20 -19 -16 -10 -32 -17 -34 -15 -5 4 66 66 100 86 15 9 33 26 39 37 10
19 7 18 -27 -4 -20 -14 -43 -23 -51 -20 -18 7 -38 -5 -24 -14 7 -4 8 -12 1
-21 -6 -11 -11 -12 -17 -3 -5 8 -12 7 -27 -4 -19 -15 -19 -15 5 -8 l25 6 -27
-25 c-16 -14 -28 -30 -28 -36 0 -5 -2 -10 -4 -10 -2 0 -13 -3 -23 -7 -16 -6
-16 -5 -4 10 7 9 10 17 5 17 -4 0 1 7 12 15 18 14 18 14 -3 8 -13 -3 -23 -3
-23 0 0 3 33 29 72 58 40 29 82 61 92 71 25 23 28 23 60 -3z m-735 -272 c47
-128 64 -298 39 -393 -18 -65 -69 -107 -205 -167 -13 -6 -26 -7 -30 -4 -4 4
-9 71 -11 148 -5 151 6 215 51 309 31 63 104 160 121 160 8 0 23 -23 35 -53z"/>
<path d="M10253 5194 c-32 -16 -44 -34 -23 -34 6 0 10 5 10 10 0 17 44 11 70
-10 l25 -20 -26 0 c-28 0 -66 -14 -167 -61 -34 -16 -65 -29 -68 -29 -12 0 23
27 64 50 35 20 40 26 26 33 -10 6 -20 5 -27 -3 -9 -8 -7 -9 7 -4 14 5 17 4 12
-5 -5 -7 -17 -11 -27 -8 -10 3 -17 2 -16 -2 1 -3 0 -6 -3 -6 -3 0 -17 -11 -30
-23 -14 -13 -42 -32 -62 -43 -20 -10 -40 -24 -44 -31 -6 -10 -4 -11 7 0 7 6
20 12 29 12 8 -1 -7 -13 -35 -27 -27 -15 -53 -26 -58 -25 -4 1 -6 -1 -5 -5 1
-5 -3 -18 -10 -30 -7 -13 -10 -23 -6 -23 13 0 64 42 64 54 0 6 8 12 18 13 20
1 76 20 112 38 60 31 95 50 100 56 10 11 92 39 100 34 4 -3 11 1 13 7 3 7 6 3
6 -9 1 -16 6 -20 21 -16 22 6 26 18 9 28 -7 5 -4 14 8 27 17 19 17 21 -10 44
-33 28 -41 29 -84 8z"/>
<path d="M9551 3685 c-1 -57 -22 -190 -36 -227 -4 -10 -12 -18 -18 -18 -8 0
-8 -3 0 -11 8 -8 6 -20 -9 -45 -16 -28 -23 -32 -34 -23 -11 9 -14 8 -14 -4 0
-9 -13 -25 -30 -37 -16 -12 -30 -26 -30 -31 0 -17 24 -9 51 17 l28 27 -6 -24
c-3 -13 -29 -45 -56 -71 -66 -62 -38 -64 44 -3 34 25 65 43 69 40 4 -3 21 2
36 10 16 8 34 15 41 15 6 0 13 5 15 10 2 6 22 0 48 -14 108 -61 161 -86 179
-86 27 0 37 20 12 21 -38 3 -65 15 -121 59 -19 15 -41 25 -47 23 -7 -3 -16 4
-19 14 -3 10 -10 29 -16 43 l-10 25 -9 -22 c-10 -27 -26 -30 -32 -5 -3 14 -6
13 -15 -8 -14 -32 -14 -24 -2 145 6 100 5 143 -5 185 l-13 55 -1 -60z"/>
<path d="M12427 3127 c-10 -30 4 -42 44 -39 21 2 39 8 39 14 0 5 -9 7 -20 3
-11 -3 -28 -2 -37 4 -15 9 -13 10 12 11 44 0 74 -10 69 -24 -3 -7 5 -11 23
-10 16 1 34 3 41 3 7 1 10 6 7 11 -7 12 -20 11 255 11 121 0 206 3 195 8 -11
4 -65 9 -120 10 -55 1 -191 3 -302 6 -151 3 -203 1 -206 -8z"/>
<path d="M6289 3087 c-16 -17 -29 -35 -29 -39 0 -4 -18 -26 -39 -50 -32 -34
-39 -48 -35 -73 2 -16 2 -24 -2 -17 -3 6 -10 12 -15 12 -6 0 -8 -4 -5 -9 3 -5
-2 -8 -11 -7 -9 0 -18 -4 -20 -10 -3 -8 15 -12 56 -12 34 0 58 4 55 9 -3 5
-12 9 -20 9 -8 0 -14 4 -14 8 0 4 18 8 40 7 35 0 38 -2 23 -12 -15 -11 -13
-13 16 -13 19 0 30 4 26 10 -4 7 13 8 49 4 40 -5 56 -3 56 5 0 8 -11 10 -35 5
-36 -6 -51 10 -17 20 9 3 -22 3 -70 0 -54 -3 -88 -1 -88 5 0 5 12 12 28 15 40
7 360 21 412 17 33 -2 42 0 34 8 -7 7 -55 12 -128 12 -65 0 -117 2 -115 4 9 9
99 17 168 15 50 -1 71 2 66 9 -12 20 -277 9 -357 -15 -13 -4 -18 0 -18 13 0
16 11 18 98 21 102 2 195 18 187 32 -3 4 -39 6 -80 5 -41 -2 -75 1 -75 6 0 5
17 10 38 11 20 0 42 2 47 3 6 2 25 3 44 4 19 0 32 4 29 7 -3 3 -65 7 -138 9
l-132 4 -29 -32z"/>
<path d="M15970 2940 c0 -6 -32 -11 -72 -11 l-73 -2 60 -7 c33 -4 90 -8 128
-9 37 -1 67 -5 67 -11 0 -6 -30 -10 -67 -11 -82 -1 -112 -9 -91 -26 25 -22
102 -33 226 -33 102 0 122 2 122 15 0 20 17 19 28 0 7 -13 28 -15 118 -13 92
3 106 5 88 15 -27 15 -142 23 -147 10 -2 -6 -11 -5 -24 2 -28 14 -66 14 -81
-1 -9 -9 -21 -9 -50 0 -22 7 -53 12 -71 12 -21 0 -31 5 -31 15 0 12 13 15 55
15 54 0 62 4 47 26 -9 14 -126 18 -117 4 4 -7 -3 -7 -19 0 -14 5 -41 7 -58 4
-25 -4 -29 -3 -18 5 13 9 13 11 -2 11 -10 0 -18 -4 -18 -10z"/>
<path d="M12541 2875 c-1 -5 -25 -11 -54 -12 -47 -2 -128 -8 -167 -13 -8 -1 1
-7 20 -13 66 -20 579 -12 601 10 4 4 -71 8 -168 8 -132 0 -177 3 -180 12 -4
10 -9 9 -21 -3 -15 -15 -16 -15 -23 2 -4 11 -8 15 -8 9z"/>
</g>
</svg>
