<?xml version="1.0" standalone="no"?>
<!DOCTYPE svg PUBLIC "-//W3C//DTD SVG 20010904//EN"
 "http://www.w3.org/TR/2001/REC-SVG-20010904/DTD/svg10.dtd">
<svg version="1.0" xmlns="http://www.w3.org/2000/svg"
 width="1928.000000pt" height="1074.000000pt" viewBox="0 0 1928.000000 1074.000000"
 preserveAspectRatio="xMidYMid meet">
<metadata>
Created by potrace 1.16, written by Peter Selinger 2001-2019
</metadata>
<g transform="translate(0.000000,1074.000000) scale(0.100000,-0.100000)"
fill="#000000" stroke="none">
<path d="M14550 8025 c0 -4 11 -23 25 -41 33 -43 32 -52 -7 -57 -32 -4 -32 -4
5 -5 36 -2 38 -4 33 -29 -8 -45 -17 -1021 -20 -2213 -1 -608 -6 -1113 -10
-1122 -5 -11 -4 -18 2 -18 16 0 16 -287 0 -293 -10 -4 -10 -6 0 -6 16 -1 17
-132 0 -149 -8 -8 -8 -15 0 -25 7 -8 11 -64 11 -153 0 -76 0 -278 1 -447 2
-228 -1 -311 -10 -322 -10 -12 -9 -16 3 -21 25 -9 51 -55 37 -64 -8 -5 -9 -10
-2 -14 6 -4 9 -13 6 -21 -3 -8 4 -19 18 -26 34 -18 98 -81 98 -96 0 -7 9 -13
19 -13 14 0 30 -20 55 -71 29 -58 36 -83 36 -130 0 -33 4 -59 9 -59 5 0 9 20
9 45 0 50 19 118 31 110 5 -2 72 -5 150 -6 77 0 141 -5 141 -10 0 -11 306 -2
409 12 40 6 99 10 130 9 136 -5 286 0 271 10 -8 6 -35 9 -60 8 -56 -2 -90 9
-90 28 0 8 -7 14 -15 14 -8 0 -15 -7 -15 -15 0 -9 -9 -15 -22 -15 -17 0 -19 3
-10 12 7 7 12 42 12 85 l0 73 28 0 c15 0 63 -4 107 -9 150 -18 225 -22 225
-14 0 4 -19 9 -43 10 -66 3 -126 13 -131 22 -8 13 452 -1 486 -14 15 -6 16 -4
5 18 -6 14 -14 24 -16 22 -2 -3 -13 1 -24 6 -16 9 -22 8 -29 -5 -8 -14 -13
-15 -24 -5 -12 10 -12 14 -2 20 10 7 10 9 -2 10 -8 0 -24 2 -35 4 -11 3 -114
7 -230 10 -115 3 -233 8 -262 11 l-52 5 0 517 c0 284 -3 653 -7 820 -4 166 -4
302 -1 302 3 0 18 -37 33 -82 15 -46 49 -132 75 -192 27 -60 49 -117 49 -125
0 -9 12 -41 26 -71 24 -52 111 -284 155 -415 12 -33 41 -112 66 -175 25 -62
47 -131 49 -152 2 -21 10 -48 18 -61 17 -25 116 -275 116 -291 0 -5 -20 10
-45 34 -51 50 -62 44 -13 -7 25 -26 28 -33 14 -33 -9 0 -14 -5 -11 -10 4 -6
10 -8 15 -5 15 9 69 -17 75 -36 4 -10 22 -31 41 -45 18 -14 31 -31 27 -37 -3
-5 -1 -7 5 -3 6 3 17 -2 24 -12 7 -10 22 -25 34 -33 35 -24 164 -143 164 -151
0 -5 -27 -8 -60 -8 -33 0 -60 -4 -60 -10 0 -10 26 -13 114 -14 40 -1 40 -2 77
-77 21 -43 42 -80 48 -84 13 -7 2 24 -29 84 -24 48 -25 61 -5 61 8 0 33 -25
56 -55 23 -30 46 -55 51 -55 6 0 -6 20 -26 44 -20 24 -36 47 -36 51 0 4 87 3
193 -2 105 -4 218 -7 250 -6 l57 2 0 -59 c0 -33 4 -60 10 -60 6 0 10 27 10 60
l0 60 41 0 c23 0 47 7 55 15 11 10 36 15 85 15 l69 0 1 -67 c1 -38 1 -75 0
-85 -1 -9 3 -19 9 -23 7 -4 10 24 10 84 l0 91 38 2 c20 1 50 1 65 0 16 -1 36
2 45 8 15 8 13 10 -8 11 -72 3 -110 8 -120 14 -8 5 -10 24 -6 58 11 84 17
1231 7 1246 -6 9 -9 -27 -9 -95 0 -60 -1 -152 -3 -204 -2 -95 -2 -95 -9 -30
-8 88 -1 354 11 358 5 2 6 8 3 14 -13 21 -12 145 2 226 17 100 25 737 12 1002
-8 178 -18 886 -15 1060 1 52 1 335 0 627 l-3 532 30 -6 c17 -3 30 -1 30 5 0
5 -13 12 -30 16 -17 3 -30 12 -30 20 0 8 -10 18 -21 21 -12 4 -72 53 -134 109
-173 156 -277 224 -228 149 24 -36 104 -110 161 -149 48 -33 139 -121 131
-127 -2 -2 -67 1 -144 5 -88 6 -257 5 -455 -2 l-315 -11 -25 29 c-57 67 -89
101 -158 165 -39 38 -72 70 -72 71 0 1 172 0 382 -2 276 -2 394 0 425 9 23 6
41 15 38 19 -13 21 -411 27 -704 10 -79 -4 -150 -6 -158 -3 -7 3 -19 0 -27 -6
-7 -6 -21 -9 -30 -5 -9 3 -16 2 -16 -4 0 -5 12 -13 26 -16 21 -6 25 -11 20
-29 -18 -65 -22 -238 -18 -961 1 -225 0 -411 -2 -414 -3 -2 -1 -15 5 -29 12
-33 12 -36 -7 -29 -14 5 -15 -2 -11 -51 7 -71 -2 -58 -48 75 -18 53 -45 124
-60 156 -30 69 -47 112 -81 216 -14 41 -29 84 -33 95 -5 11 -15 36 -22 55 -7
19 -27 67 -44 105 -18 39 -49 113 -69 165 -20 52 -48 120 -61 150 -13 30 -33
80 -45 110 -12 30 -26 59 -31 64 -18 20 -10 38 13 30 20 -6 21 -5 9 10 -7 9
-21 16 -30 16 -9 0 -32 21 -51 46 -19 25 -48 61 -63 79 -16 19 -26 39 -22 45
3 5 0 10 -7 10 -7 0 -29 21 -48 46 -63 82 -92 114 -103 114 -7 0 -7 -4 1 -12
7 -7 12 -19 13 -27 1 -38 187 -276 227 -293 15 -6 14 -7 -3 -9 -60 -6 -713 4
-733 12 -15 6 -21 5 -17 -1 4 -6 -18 -10 -57 -10 l-64 0 -36 48 c-19 26 -47
67 -61 92 -15 25 -42 63 -62 84 -19 22 -32 43 -28 46 5 4 58 3 118 -1 195 -14
715 -16 704 -3 -13 16 -157 23 -552 29 l-329 5 -35 43 c-45 53 -43 52 -43 42z
m2056 -424 c-4 -5 -2 -12 4 -16 6 -4 8 -27 4 -58 -11 -97 -12 -112 -13 -160
-1 -34 -5 -47 -13 -45 -16 6 -26 71 -32 207 -3 71 -10 109 -19 118 -12 12 -13
0 -10 -89 2 -57 9 -113 15 -125 17 -34 16 -105 -1 -111 -11 -4 -13 6 -9 46 3
28 1 49 -4 46 -14 -9 -10 -114 5 -112 9 2 12 -21 12 -90 0 -121 19 -116 23 7
2 67 6 91 15 88 9 -3 13 -56 14 -195 2 -169 0 -192 -14 -192 -28 0 -42 -33
-43 -95 0 -67 8 -105 21 -105 5 0 9 41 9 91 0 68 3 90 13 86 9 -3 12 -51 12
-195 0 -104 -3 -194 -7 -198 -15 -14 -21 6 -19 59 1 30 -3 65 -8 78 -8 20 -10
14 -10 -32 -1 -31 -4 -78 -7 -105 -6 -41 -4 -47 7 -36 31 29 39 14 39 -72 0
-46 -3 -91 -6 -100 -13 -34 -24 -13 -24 44 0 33 -4 60 -9 60 -5 0 -8 -34 -6
-77 6 -107 12 -145 27 -155 9 -5 7 -8 -7 -8 -12 0 -22 7 -23 18 -1 9 -4 33 -6
52 -2 19 -7 67 -12 105 -4 39 -8 82 -9 98 0 15 -3 27 -6 27 -4 0 -9 15 -13 32
-4 18 -17 48 -29 68 -19 28 -24 51 -26 119 -1 46 -6 93 -10 105 -4 11 -6 30
-5 41 12 126 12 135 -2 135 -14 0 -15 -6 -20 -135 -3 -103 -4 -109 -11 -101
-4 4 -8 44 -10 89 -2 45 -4 96 -5 112 0 17 0 44 1 60 5 61 -8 806 -14 815 -4
6 -3 19 0 30 5 17 24 3 127 -100 66 -65 117 -123 114 -129z m-1746 2 c0 -7 -5
-13 -11 -13 -7 0 -8 -7 -4 -17 3 -10 6 -160 5 -333 -5 -1679 -11 -3163 -14
-3244 -2 -63 -8 -101 -16 -106 -9 -5 -9 -13 -2 -27 13 -23 9 -82 -6 -109 -10
-16 -12 -14 -13 21 -3 61 -3 63 -15 75 -9 9 -11 -13 -9 -82 1 -51 -1 -118 -5
-148 -4 -30 -6 -58 -3 -63 9 -15 9 -337 1 -329 -5 5 -11 47 -13 93 -8 208 -16
356 -22 373 -3 10 -1 16 4 13 12 -8 13 24 1 40 -6 7 -5 14 3 18 7 5 7 10 1 14
-5 3 -12 16 -16 29 -6 16 -3 22 8 22 9 0 16 5 16 11 0 6 -7 9 -15 5 -17 -6
-21 9 -5 19 12 8 13 75 1 75 -5 0 -9 6 -8 13 1 31 -4 57 -10 57 -5 0 -9 -27
-10 -60 -1 -46 2 -60 13 -60 8 0 14 -5 14 -11 0 -6 -7 -9 -15 -6 -12 5 -14 -4
-10 -56 9 -134 15 -351 10 -345 -7 7 -9 35 -20 223 -4 66 -9 136 -11 155 -7
55 -6 344 1 373 4 14 2 28 -5 32 -8 5 -8 10 0 20 8 9 6 14 -7 20 -17 6 -17 7
0 17 10 5 17 19 16 31 -4 51 1 69 16 63 8 -3 15 -1 15 4 0 6 -4 10 -8 10 -13
0 -40 70 -41 104 -1 17 -5 32 -10 35 -5 3 -12 29 -16 56 -8 52 2 60 11 9 9
-54 15 -64 37 -64 19 1 20 2 5 11 -10 5 -15 16 -12 24 4 8 3 23 -1 32 -15 34
-16 126 -3 135 10 6 10 8 1 8 -7 0 -13 7 -13 16 0 8 4 13 9 10 11 -7 8 70 -3
81 -4 4 -6 3 -4 -2 2 -6 -1 -10 -7 -10 -5 0 -9 6 -9 12 1 7 -2 10 -7 7 -5 -3
-9 0 -9 5 0 6 5 11 10 11 6 0 10 5 10 11 0 5 -3 8 -7 6 -5 -3 -9 7 -10 22 -1
15 -3 32 -4 37 -5 26 2 64 11 59 6 -3 10 -2 10 4 0 5 -5 11 -12 13 -8 3 -13
68 -16 229 -8 404 -7 1341 1 1474 4 72 8 169 9 218 0 48 5 87 10 87 5 0 6 5 3
11 -4 5 -7 101 -7 212 0 111 -4 269 -9 351 -5 83 -6 153 -1 158 4 4 30 -22 57
-59 96 -127 90 -107 92 -308 2 -231 2 -225 11 -225 4 0 8 94 9 209 l2 210 -51
68 c-28 37 -65 84 -82 103 -17 19 18 -12 77 -70 59 -57 107 -110 107 -117z
m339 7 c14 -7 -107 -20 -202 -22 -26 0 -50 -5 -54 -11 -6 -10 130 -6 332 12
61 5 184 12 275 16 91 3 172 8 181 11 24 7 46 -17 57 -66 6 -24 9 -46 7 -48
-2 -2 -18 16 -36 42 -44 62 -50 49 -9 -16 56 -88 115 -206 165 -333 26 -66 58
-142 71 -170 12 -27 32 -79 44 -115 12 -36 28 -78 35 -95 20 -42 59 -148 60
-160 0 -5 9 -26 20 -45 10 -19 20 -41 21 -48 1 -7 11 -32 22 -55 11 -23 45
-118 77 -212 31 -93 76 -220 101 -282 24 -62 44 -117 44 -122 0 -28 69 -214
127 -341 14 -30 32 -73 41 -95 9 -22 24 -53 34 -70 10 -16 22 -39 27 -50 10
-24 49 -60 56 -53 3 2 -7 38 -21 79 -24 71 -25 86 -30 364 -2 160 -6 320 -7
358 -2 37 0 67 4 67 4 0 4 13 -1 29 -4 16 -6 46 -4 67 11 115 14 259 18 759 3
303 5 560 6 572 0 23 0 23 163 21 89 -1 235 1 323 6 l161 8 6 -33 c8 -57 13
-1845 9 -3556 -1 -430 0 -788 2 -795 3 -7 7 -105 11 -218 l5 -205 -217 3
c-120 1 -250 5 -289 8 -66 5 -72 7 -77 30 -3 16 0 24 9 24 22 0 16 15 -10 30
-14 7 -27 24 -31 37 -7 30 1 41 17 25 14 -14 38 -16 38 -2 0 5 -15 12 -34 16
-27 5 -39 14 -52 42 -10 21 -19 42 -20 49 -3 18 -64 193 -80 230 -8 17 -14 38
-14 46 0 9 -5 19 -11 23 -16 9 -50 91 -93 219 -20 61 -41 119 -45 130 -5 11
-17 43 -26 70 -19 57 -19 56 -74 188 -23 54 -41 101 -41 106 0 5 -7 14 -15 21
-17 14 -20 50 -5 50 5 0 -2 20 -15 44 -14 25 -25 49 -25 55 0 5 -10 31 -22 58
-12 26 -23 55 -24 63 -2 20 -35 100 -50 125 -7 11 -36 82 -63 159 -28 76 -54
143 -59 150 -5 6 -12 25 -16 41 -7 28 -21 66 -133 354 -24 63 -41 121 -39 128
3 7 1 13 -5 13 -5 0 -9 6 -8 13 1 6 0 23 -1 37 -2 18 -4 20 -7 8 -2 -10 -8
-18 -12 -18 -13 0 -31 24 -31 42 0 10 -6 18 -14 18 -8 0 -22 10 -30 22 -9 12
-16 19 -16 15 0 -11 52 -92 61 -95 5 -2 9 -13 9 -25 0 -20 0 -20 -14 -1 -21
28 -31 10 -11 -20 14 -22 16 -42 11 -128 -3 -57 -6 -139 -6 -183 5 -900 -3
-2015 -14 -2033 -4 -7 -3 -20 2 -29 6 -10 12 -44 13 -77 l4 -58 -180 1 c-99 0
-293 1 -431 1 l-251 0 -7 43 c-4 23 -6 587 -4 1252 2 666 1 1631 -1 2145 -2
514 0 1014 4 1111 7 167 8 178 29 188 13 7 14 10 3 6 -20 -5 -33 16 -23 40 4
12 27 14 148 8 79 -3 149 -9 157 -13z m2312 -1132 c2 -15 2 -32 -2 -113 -2
-44 -10 -69 -27 -95 -14 -19 -22 -27 -19 -18 4 10 2 20 -3 23 -10 6 -14 -7
-11 -32 1 -7 -3 -13 -9 -13 -5 0 -10 12 -10 26 0 14 -4 23 -8 20 -12 -7 -14 6
-15 104 -2 79 -1 85 18 85 19 0 20 -5 16 -89 -2 -71 0 -87 10 -84 10 3 15 27
17 79 2 71 16 119 34 119 4 0 9 -6 9 -12z m-47 -1142 c17 6 17 -46 1 -59 -6
-4 -1 -7 10 -5 19 3 20 -3 20 -137 0 -111 3 -142 15 -151 11 -10 12 -19 3 -47
-9 -29 -8 -40 4 -57 11 -15 12 -24 4 -34 -13 -15 -20 -215 -7 -213 5 1 11 -4
14 -12 3 -10 0 -12 -12 -8 -10 4 -16 1 -16 -8 0 -8 -5 -15 -11 -15 -6 0 -9 -7
-5 -15 3 -8 0 -15 -7 -15 -7 0 -13 17 -15 40 -2 34 0 39 15 33 17 -7 17 -6 1
11 -15 14 -17 30 -12 98 2 45 10 88 16 96 9 10 8 12 -2 10 -7 -2 -16 10 -21
26 -10 35 -5 43 15 27 13 -11 14 -7 9 25 -5 29 -3 35 7 29 8 -5 11 -3 8 5 -2
7 -12 14 -22 16 -10 1 -21 6 -24 10 -4 4 1 4 11 1 22 -8 23 16 1 37 -8 9 -11
16 -6 16 11 0 9 210 -2 228 -4 7 -12 10 -17 7 -16 -11 -10 7 8 20 9 7 13 17 8
25 -6 10 -9 9 -16 -1 -4 -7 -12 -10 -16 -5 -4 5 -3 11 4 13 7 2 10 12 7 21 -5
16 -5 16 6 0 6 -9 17 -15 24 -12z m-1289 -1150 c20 -8 20 -8 0 -16 -19 -7 -19
-7 3 -19 22 -12 63 -90 76 -146 4 -16 25 -68 48 -114 22 -46 41 -94 42 -107 0
-13 4 -24 9 -24 4 0 7 -9 7 -20 0 -11 3 -20 8 -20 12 0 55 -119 49 -139 -2
-10 2 -26 9 -36 8 -10 14 -28 14 -38 0 -18 -2 -18 -19 4 -10 13 -22 35 -26 49
-8 29 -31 84 -49 120 -7 14 -26 59 -41 100 -26 72 -34 92 -68 170 -28 64 -52
135 -49 144 2 5 -1 12 -6 15 -4 3 -16 25 -25 49 -18 45 -22 64 -9 46 4 -6 16
-14 27 -18z m1354 -124 c-3 -45 8 -69 24 -53 22 22 27 9 27 -70 0 -78 -1 -80
-22 -77 -20 3 -23 10 -26 60 -2 34 -9 61 -17 68 -13 11 -15 1 -15 -69 0 -66
-3 -81 -15 -81 -13 0 -16 16 -14 100 1 55 5 98 9 95 19 -12 37 7 34 36 -2 16
1 29 7 29 5 0 9 -17 8 -38z m-2879 -174 c-1 -13 -1 -25 0 -28 7 -17 7 -90 -1
-90 -5 0 -4 -12 2 -27 5 -14 6 -29 2 -32 -5 -3 -8 -15 -7 -26 4 -42 5 -86 5
-265 0 -173 2 -221 14 -277 6 -26 -7 -30 -25 -8 -9 11 -12 106 -12 377 0 200
2 371 3 381 3 25 21 21 19 -5z m2844 -152 c-3 -8 0 -17 7 -22 7 -4 15 -2 17 4
2 7 8 12 13 12 5 0 4 -11 -1 -26 -17 -43 -13 -64 13 -64 12 0 27 -4 32 -8 12
-8 14 -97 2 -108 -4 -4 -7 -20 -7 -36 0 -23 -4 -29 -17 -26 -15 3 -18 15 -19
80 0 43 -4 81 -8 85 -11 12 -26 -19 -26 -54 0 -50 -15 -39 -18 11 -1 25 -2 48
-3 53 -4 24 2 53 11 48 6 -3 10 -1 10 4 0 6 -6 11 -13 11 -9 0 -12 13 -11 43
3 54 4 56 14 29 5 -12 7 -28 4 -36z"/>
<path d="M16744 7317 c-2 -7 -3 -58 -2 -113 l3 -99 45 -3 c47 -3 47 13 0 20
-14 1 -24 6 -22 11 1 4 2 45 2 92 l0 85 36 0 35 0 -1 -62 c-3 -114 -1 -128 15
-128 13 0 15 16 13 103 l-3 102 -58 3 c-41 2 -59 -1 -63 -11z"/>
<path d="M16943 7324 c-9 -4 -13 -36 -13 -109 0 -98 1 -103 23 -109 35 -9 69
-7 62 4 -3 6 -17 10 -31 10 -24 0 -24 1 -24 89 l0 89 33 5 c17 2 35 0 39 -6 3
-6 4 -50 2 -99 -4 -75 -3 -88 11 -88 16 0 18 15 16 135 -1 38 -4 71 -6 74 -7
7 -99 11 -112 5z"/>
<path d="M17130 7304 c-6 -14 -10 -61 -10 -104 0 -85 3 -90 63 -90 75 0 78 3
73 94 -3 44 -5 91 -5 104 -1 20 -6 22 -56 22 -50 0 -56 -2 -65 -26z"/>
<path d="M16747 6923 c-4 -3 -7 -55 -7 -114 0 -106 0 -107 26 -113 14 -4 41
-4 60 0 l34 6 0 108 c0 89 -3 109 -16 114 -21 8 -89 8 -97 -1z"/>
<path d="M16740 6385 l0 -115 49 0 c82 0 81 -2 81 121 l0 109 -65 0 -65 0 0
-115z"/>
<path d="M16947 6493 c-4 -3 -7 -52 -7 -108 l0 -102 32 -7 c17 -3 43 -1 58 6
26 11 27 16 33 106 4 52 4 98 1 103 -6 10 -107 12 -117 2z"/>
<path d="M16762 5703 c-22 -4 -23 -7 -20 -116 l3 -112 29 -3 c16 -2 44 -1 62
3 l34 6 -1 108 0 109 -31 6 c-32 6 -38 6 -76 -1z m72 -19 c13 -5 16 -23 16
-94 0 -49 -3 -91 -7 -93 -5 -2 -25 -2 -45 0 l-38 5 6 86 c3 48 8 90 10 94 6
10 36 10 58 2z"/>
<path d="M16958 5703 l-28 -4 0 -108 0 -108 39 -7 c22 -3 51 -2 65 4 26 9 26
11 26 114 l0 104 -31 6 c-17 3 -34 5 -38 5 -3 -1 -18 -4 -33 -6z m68 -23 c12
0 14 -17 12 -92 l-3 -93 -42 -3 -43 -3 0 90 c0 75 3 92 18 100 9 6 23 8 30 6
8 -3 20 -5 28 -5z"/>
<path d="M17154 5703 c-20 -4 -22 -13 -29 -105 -6 -92 -5 -103 12 -116 16 -12
96 -13 108 0 5 5 9 208 4 212 -8 6 -74 12 -95 9z m76 -114 l0 -100 -37 3 -38
3 -3 84 c-2 46 -1 90 2 98 3 7 20 13 41 13 l35 0 0 -101z"/>
<path d="M16748 5269 c-15 -8 -18 -25 -17 -114 0 -102 1 -103 26 -110 14 -3
45 -3 68 1 l44 6 0 108 c1 103 0 108 -22 114 -33 9 -80 7 -99 -5z m97 -114 l0
-90 -49 -3 -49 -3 5 86 c5 95 12 107 63 103 l30 -3 0 -90z"/>
<path d="M16937 5274 c-4 -4 -7 -56 -7 -115 0 -105 0 -107 25 -113 13 -3 43
-3 65 0 l41 7 -3 111 -3 111 -55 3 c-31 2 -59 0 -63 -4z"/>
<path d="M17153 5270 c-22 -9 -23 -15 -23 -115 l0 -106 58 3 57 3 3 106 c3
104 2 107 -20 113 -30 8 -48 7 -75 -4z"/>
<path d="M16747 4843 c-4 -3 -7 -52 -7 -109 l0 -102 50 -7 c75 -10 80 -3 80
121 l0 104 -58 0 c-32 0 -62 -3 -65 -7z m101 -111 l3 -93 -43 3 -43 3 -3 79
c-4 102 -1 108 45 104 l38 -3 3 -93z"/>
<path d="M16951 4841 c-11 -7 -14 -32 -13 -107 1 -54 4 -100 7 -103 10 -9 73
-11 96 -2 23 8 24 13 24 112 l0 104 -50 3 c-27 1 -56 -2 -64 -7z"/>
<path d="M17136 4828 c-3 -13 -6 -63 -6 -111 l0 -88 58 3 57 3 7 95 c4 52 5
101 3 108 -3 7 -24 12 -59 12 -47 0 -54 -3 -60 -22z"/>
<path d="M16570 4444 c-13 -4 -15 -24 -14 -112 l1 -107 44 0 c79 1 78 1 76
117 l-2 103 -45 2 c-25 0 -52 -1 -60 -3z"/>
<path d="M16758 4428 c-2 -13 -4 -63 -3 -113 l0 -90 60 0 60 0 1 113 1 112
-57 0 c-52 0 -58 -2 -62 -22z"/>
<path d="M16953 4442 c-7 -4 -12 -46 -14 -111 l-3 -105 29 -8 c17 -4 46 -3 67
3 l38 10 0 109 0 110 -52 0 c-29 0 -58 -4 -65 -8z"/>
<path d="M17148 4340 c-2 -58 -1 -109 3 -113 4 -5 26 -5 50 0 l44 9 3 106 3
106 -50 -1 -49 -2 -4 -105z"/>
<path d="M16570 3942 c0 -50 -3 -97 -6 -105 -10 -27 22 -46 63 -37 20 5 42 8
47 7 19 -3 2 186 -18 202 -6 5 -28 12 -48 16 l-38 7 0 -90z"/>
<path d="M16961 4021 c-21 -13 -28 -200 -9 -212 19 -12 92 -11 105 2 11 11 6
188 -6 201 -11 12 -76 19 -90 9z"/>
<path d="M16968 3643 c-15 -4 -18 -17 -20 -74 -4 -143 -6 -132 30 -141 23 -6
43 -5 63 4 29 13 29 13 29 100 0 47 -3 93 -6 102 -6 16 -54 20 -96 9z"/>
<path d="M16761 3626 c-8 -9 -11 -45 -9 -102 l3 -88 32 -10 c22 -6 42 -5 62 3
l29 13 0 93 c0 62 -4 95 -11 98 -31 10 -95 7 -106 -7z"/>
<path d="M17147 3633 c-3 -5 -7 -48 -8 -98 -4 -88 -4 -90 20 -93 13 -2 39 -1
57 3 l34 6 0 94 0 95 -49 0 c-28 0 -52 -3 -54 -7z"/>
<path d="M4768 7968 c-3 -30 -5 -33 -33 -29 -78 12 -900 4 -870 -8 44 -17 686
-33 786 -20 51 7 85 -4 59 -20 -8 -5 -24 -16 -35 -25 -11 -9 -56 -44 -100 -77
-44 -33 -91 -71 -106 -85 -14 -13 -29 -24 -35 -24 -5 0 -20 -16 -34 -34 l-25
-34 -225 5 c-264 7 -327 22 -100 24 209 2 281 6 291 16 4 4 -101 6 -234 5
-191 -3 -245 -7 -258 -18 -18 -16 -59 -19 -59 -4 0 11 -119 14 -170 4 -22 -5
-28 -9 -18 -15 9 -6 5 -8 -12 -8 -14 1 -41 -2 -60 -6 -40 -9 -36 -1 20 35 122
80 309 212 320 225 27 32 -2 26 -67 -14 -37 -23 -143 -93 -234 -154 -92 -62
-175 -117 -185 -124 -17 -10 -16 -11 11 -10 28 2 30 -1 36 -43 3 -25 7 -228 7
-453 1 -224 3 -411 6 -415 4 -6 10 -315 7 -362 -1 -10 -11 -4 -32 18 -37 40
-51 40 -88 1 -28 -29 -34 -30 -134 -36 l-104 -6 -43 43 -42 42 -5 549 c-4 508
-1 590 20 537 10 -24 -4 345 -14 399 -1 4 2 22 6 40 5 24 14 33 34 37 34 6
-708 -3 -824 -10 -98 -6 -144 -22 -190 -64 -43 -40 -189 -124 -193 -111 -6 17
-22 13 -22 -5 0 -19 -19 -36 -73 -65 -37 -20 -39 -20 -53 -2 -7 10 -14 22 -14
26 0 5 -4 6 -9 3 -5 -3 -7 -14 -4 -25 3 -12 -3 -24 -18 -35 -18 -13 -20 -16
-7 -16 14 0 17 -10 17 -52 0 -29 2 -123 5 -208 3 -85 10 -285 16 -445 5 -159
8 -308 6 -330 -3 -22 -7 -119 -10 -215 -4 -96 -9 -204 -13 -240 -4 -36 -5 -69
-4 -75 2 -5 5 -113 6 -240 2 -126 6 -238 10 -248 9 -20 12 -908 5 -1212 -2
-110 -1 -218 2 -240 4 -22 9 -71 13 -110 9 -104 43 -269 73 -360 29 -88 113
-258 167 -338 18 -29 32 -54 29 -56 -2 -3 -41 31 -86 75 -44 43 -73 68 -64 54
38 -58 368 -380 419 -409 77 -44 85 -56 91 -139 5 -68 4 -73 -17 -82 -14 -6
49 -9 178 -10 221 -2 234 -3 320 -19 71 -12 732 -14 719 -1 -5 4 -43 11 -84
14 -159 12 -210 19 -204 27 7 12 87 12 100 0 5 -6 31 -5 64 0 64 11 140 13
181 4 23 -5 28 -3 23 8 -7 19 29 26 175 33 119 6 167 17 156 34 -3 5 2 10 12
11 10 1 1 5 -20 10 -24 6 -45 5 -55 -1 -14 -7 -10 -9 16 -10 18 0 31 -4 28 -9
-8 -12 -72 -5 -69 8 2 6 -2 11 -7 11 -6 0 -10 -4 -10 -9 0 -4 -17 -11 -37 -14
-21 -4 -51 -9 -68 -12 -16 -3 -23 -2 -15 1 55 25 210 97 233 110 16 9 31 13
34 10 3 -3 7 -44 8 -90 l3 -85 -171 0 c-207 1 -209 0 -177 -12 14 -6 84 -13
156 -16 111 -5 138 -3 178 12 35 14 50 15 58 7 17 -17 35 -15 57 5 10 10 31
28 45 40 16 13 24 27 20 37 -5 13 -2 15 12 9 18 -6 18 -6 0 15 -25 29 -1 30
30 1 21 -19 33 -20 245 -20 133 1 227 5 233 11 11 11 5 12 -139 12 -55 0 -120
3 -145 8 -54 9 -29 12 90 10 47 -1 82 2 78 5 -7 7 -32 11 -145 21 -40 3 -73
11 -73 16 0 6 14 8 33 5 39 -6 89 2 82 13 -9 15 -154 4 -173 -14 -10 -9 -32
-15 -50 -13 -39 2 -43 17 -4 17 15 0 34 5 42 10 11 7 8 10 -16 10 -44 0 -98
-12 -86 -19 7 -4 5 -14 -5 -26 -15 -20 -15 -20 -11 0 2 14 -2 19 -14 17 -12
-2 -16 2 -12 12 3 9 -2 17 -15 21 -12 3 -21 11 -21 16 0 6 9 7 23 3 12 -4 110
-6 217 -4 367 5 525 4 565 -3 37 -8 38 -7 17 5 -26 16 -127 23 -325 22 -86 0
-134 3 -128 9 11 11 296 12 371 2 34 -5 50 -3 50 4 0 7 -23 12 -57 12 -32 1
-69 3 -83 5 -61 7 -277 7 -289 0 -8 -5 -17 -3 -22 5 -6 10 -29 14 -84 12 -44
-1 -73 3 -69 8 3 5 8 8 12 5 4 -2 31 0 60 4 29 3 55 3 57 0 4 -6 316 -7 348
-1 5 0 5 6 2 11 -6 9 10 14 43 13 6 -1 12 3 12 7 0 11 -36 16 -127 20 -75 3
-124 6 -208 14 -22 2 -48 0 -58 -6 -12 -6 -37 -5 -72 2 -41 9 -74 8 -131 0
-42 -6 -78 -9 -81 -6 -3 3 73 86 169 183 183 187 282 292 261 279 -9 -5 -11
-2 -7 8 3 8 12 17 20 20 7 3 11 12 8 20 -3 8 -1 17 5 20 24 15 132 279 144
351 3 17 17 73 31 126 52 195 74 338 53 351 -8 5 -6 8 6 8 20 0 22 11 5 28 -7
7 -8 12 -2 12 11 0 12 40 1 56 -3 6 -4 23 -1 37 2 15 1 27 -3 27 -5 0 -8 60
-8 132 0 162 -15 551 -20 557 -3 2 0 10 5 16 7 8 7 27 1 53 -5 23 -6 43 -3 46
3 3 4 167 3 363 -1 197 -2 574 -2 838 0 264 1 604 1 755 0 151 -2 302 -4 335
-5 92 2 118 36 138 16 9 42 17 56 18 l27 1 -30 9 c-18 5 -33 5 -39 -1 -17 -17
-56 -12 -54 8 3 40 -3 82 -11 82 -6 0 -11 -15 -13 -32z m-1778 -60 c0 -7 -41
-40 -90 -72 -49 -33 -98 -68 -107 -79 -31 -35 -135 -107 -154 -107 -10 0 -19
-7 -19 -15 0 -8 -6 -15 -12 -15 -7 0 -114 -3 -236 -7 -177 -5 -225 -4 -232 7
-6 9 -52 13 -184 14 -97 0 -176 3 -176 6 1 7 162 111 230 149 31 17 69 44 85
61 l29 30 235 0 c209 0 286 4 525 25 33 3 62 7 64 10 11 10 42 5 42 -7z m-22
-338 c-5 -151 -9 -324 -9 -385 1 -60 4 -272 7 -470 5 -388 1 -448 -32 -453
-20 -3 -20 1 -16 68 3 47 0 75 -8 85 -8 9 -9 15 -2 15 6 0 10 13 10 30 -1 16
-5 27 -10 24 -4 -3 -8 0 -8 5 0 6 5 11 10 11 6 0 10 11 10 25 0 14 -5 25 -11
25 -6 0 -9 -7 -5 -15 3 -8 2 -15 -3 -15 -8 0 -27 -85 -23 -102 1 -4 3 -44 4
-90 l2 -83 -49 -17 c-28 -9 -60 -17 -72 -17 -21 -1 -23 4 -24 57 -2 81 -8 245
-10 257 -1 6 -5 -9 -8 -31 -4 -23 -5 -97 -2 -164 6 -113 1 -154 -14 -138 -8 7
-7 362 1 393 3 12 1 26 -5 30 -6 3 -8 12 -4 18 4 6 8 100 10 207 1 107 4 221
5 253 2 31 0 57 -5 57 -4 0 -5 10 -2 23 9 34 12 137 4 137 -4 0 -2 19 3 43 10
42 12 68 16 187 l2 65 62 50 c72 58 158 145 158 161 0 10 21 36 26 31 1 -1 -2
-126 -8 -277z m1787 -910 c0 -1036 -2 -1170 -15 -1165 -10 3 -10 1 3 -9 18
-14 24 -46 7 -46 -5 0 -7 7 -4 15 4 8 1 15 -5 15 -6 0 -11 -9 -11 -20 0 -11 4
-20 9 -20 16 0 22 -32 9 -48 -10 -12 -10 -14 0 -8 6 4 12 2 12 -3 0 -6 -4 -11
-10 -11 -5 0 -10 -13 -10 -30 0 -16 3 -30 8 -30 4 0 7 -46 8 -103 1 -56 4
-196 8 -312 4 -134 3 -203 -3 -190 -11 22 -15 6 -5 -19 3 -9 11 -13 17 -9 6 3
7 1 3 -6 -4 -6 -11 -9 -16 -6 -4 2 -11 -32 -15 -78 -10 -116 -13 -138 -19
-145 -3 -3 -6 10 -7 29 -2 71 -4 88 -11 95 -4 3 -7 -29 -6 -72 0 -44 -2 -90
-7 -103 -4 -15 -3 -21 3 -17 10 6 26 -23 17 -32 -3 -3 -5 0 -5 6 0 7 -3 12 -7
12 -5 0 -6 -37 -5 -82 2 -46 -1 -114 -6 -153 -6 -46 -6 -74 0 -82 7 -9 7 -13
-1 -13 -7 0 -10 -4 -7 -8 7 -12 -38 -162 -67 -217 l-24 -49 4 54 c3 30 12 62
19 71 8 8 14 22 14 30 0 8 6 21 13 28 10 11 10 14 0 18 -7 3 -13 9 -13 14 0 6
5 7 10 4 6 -3 10 1 10 9 0 9 -5 16 -11 16 -13 0 -2 41 15 55 14 13 20 65 6 65
-5 0 -10 -5 -10 -11 0 -5 -5 -7 -12 -3 -7 4 -8 3 -4 -4 4 -6 0 -25 -9 -41 -8
-17 -15 -43 -15 -59 0 -16 -10 -42 -22 -58 -13 -15 -17 -25 -10 -20 6 4 12 2
12 -3 0 -6 -9 -11 -21 -11 -11 0 -17 -4 -14 -10 4 -6 1 -17 -5 -25 -10 -11
-10 -15 -1 -15 7 0 9 -5 5 -11 -10 -17 -24 12 -15 30 5 9 6 22 3 30 -2 7 1 17
8 21 9 6 8 13 -4 32 -13 20 -14 29 -3 51 9 19 17 25 30 21 16 -5 18 -2 12 15
-5 15 -2 21 10 21 9 0 13 5 9 11 -3 6 -3 14 2 18 15 10 35 62 28 72 -3 6 0 16
6 24 9 11 9 19 2 28 -6 7 -7 19 -3 26 6 9 10 6 16 -11 6 -20 8 -20 12 -5 3 10
0 24 -6 31 -7 9 -9 30 -5 56 5 32 4 41 -5 36 -13 -9 -20 7 -37 88 l-13 61 5
-60 c11 -118 6 -255 -10 -270 -8 -9 -17 -24 -21 -34 -6 -20 -35 -37 -35 -21 0
6 3 10 8 10 7 0 27 67 41 140 4 20 1 50 -5 69 -8 25 -9 42 -1 58 6 13 7 26 3
30 -10 10 -25 -17 -19 -34 3 -8 0 -12 -8 -10 -8 2 -11 2 -6 0 10 -6 9 -43 -2
-43 -22 0 -42 52 -36 91 4 21 11 39 16 39 6 0 8 4 5 9 -8 13 4 42 15 36 4 -3
7 7 6 22 -1 21 2 28 16 27 9 -1 17 4 17 12 0 8 6 14 13 14 13 1 44 39 48 61 1
8 -4 33 -11 57 -11 34 -18 42 -31 39 -25 -7 -39 13 -33 48 7 40 7 50 0 123 -7
70 8 77 19 9 4 -23 12 -49 17 -57 7 -11 8 -7 3 13 -17 84 -18 117 -1 117 13 0
16 10 16 49 0 28 -4 52 -10 56 -5 3 -7 11 -4 18 3 8 0 24 -6 38 -9 22 -10 20
-5 -11 4 -33 4 -34 -10 -16 -8 11 -16 27 -16 35 -5 55 -32 171 -41 171 -4 0
-8 7 -8 15 0 22 18 18 25 -6 4 -11 9 -19 11 -17 2 3 -1 20 -7 39 -20 66 -28
384 -10 402 7 7 7 16 0 30 -8 14 -8 18 0 13 6 -4 11 -2 11 4 0 6 4 8 10 5 6
-3 7 1 3 10 -4 13 -8 14 -14 4 -13 -21 -20 -5 -20 42 0 64 -9 119 -20 119 -6
0 -8 -4 -4 -9 3 -5 7 -124 9 -264 2 -140 6 -260 10 -266 4 -6 2 -11 -4 -11
-14 0 -41 26 -34 33 3 3 -4 8 -15 12 -13 4 -18 11 -14 22 6 14 7 14 14 -3 6
-16 8 -15 8 9 1 16 -4 26 -11 25 -6 -2 -13 6 -15 17 -3 16 -2 17 6 5 8 -12 11
-8 11 17 0 17 -4 33 -9 35 -5 2 -12 80 -15 173 -3 94 -9 229 -12 300 -11 227
-16 642 -14 1125 l1 315 34 28 c19 15 39 27 44 27 6 0 11 6 11 13 0 6 18 23
40 37 24 14 40 32 40 43 0 15 -10 10 -52 -25 -72 -59 -119 -91 -125 -85 -8 9
180 142 196 139 9 -2 12 2 8 12 -4 10 -1 16 8 16 8 0 15 7 15 16 0 8 5 12 10
9 6 -3 13 1 16 9 3 9 10 16 15 16 4 0 19 11 33 25 14 14 26 25 28 25 2 0 3
-527 3 -1170z m-2730 950 c112 -2 113 -5 5 -28 -33 -7 41 -10 265 -10 l310 0
2 -298 c1 -165 2 -378 3 -474 1 -96 2 -240 1 -320 0 -80 1 -185 4 -233 3 -73
1 -89 -12 -94 -9 -3 -24 -1 -34 5 -29 19 -66 14 -89 -10 -22 -24 -35 -61 -26
-76 6 -11 -18 -34 -94 -92 -52 -39 -58 -41 -105 -35 -45 5 -53 3 -74 -19 -23
-25 -25 -55 -7 -97 5 -11 -16 -46 -69 -113 -67 -84 -79 -95 -100 -90 -19 5
-32 -1 -55 -24 -34 -35 -37 -58 -13 -100 17 -29 17 -32 -1 -69 -11 -21 -31
-74 -46 -118 -25 -72 -30 -80 -59 -88 -24 -6 -36 -17 -47 -42 -21 -51 -17 -70
18 -100 l31 -26 -11 -77 c-7 -42 -12 -92 -12 -109 0 -26 -6 -36 -30 -48 -16
-8 -33 -15 -38 -15 -5 0 -8 95 -8 213 1 201 -10 576 -20 662 -2 22 -3 198 -2
390 4 597 3 888 -2 1214 l-5 315 25 7 c14 4 61 6 105 4 44 -2 130 -4 190 -5z
m1937 -33 c4 -7 44 -10 110 -8 111 3 279 -7 296 -18 7 -4 12 -208 16 -601 8
-863 16 -1234 27 -1325 5 -44 9 -86 9 -95 0 -18 -31 25 -65 92 -14 26 -38 63
-55 81 -33 38 -36 47 -17 47 6 0 26 -17 44 -37 32 -37 32 -37 33 -12 0 36 -34
69 -72 69 -26 0 -44 13 -105 76 -60 64 -73 82 -73 110 0 21 -10 44 -27 64 -23
28 -31 31 -62 26 -30 -4 -51 3 -126 43 -78 42 -90 52 -96 80 -7 33 -31 66 -60
82 -12 6 -25 2 -44 -13 -28 -21 -28 -22 -108 -5 -44 10 -82 19 -84 21 -2 1 -5
140 -7 307 -2 167 -7 360 -10 429 -3 69 -8 206 -11 305 -6 188 -7 210 -19 262
l-7 32 153 4 c197 4 351 -2 360 -16z m-1002 -1403 c-10 -11 -10 -17 -1 -28 7
-8 11 -29 9 -47 -4 -31 -7 -33 -94 -60 -101 -32 -104 -33 -104 -19 0 6 7 10
15 10 9 0 18 7 22 16 3 8 11 13 18 10 8 -3 20 9 29 29 9 18 21 35 28 37 6 2 9
10 6 18 -5 15 -128 -106 -128 -127 0 -7 -5 -13 -11 -13 -6 0 -9 7 -6 15 9 22
-9 27 -28 9 -12 -13 -19 -14 -28 -5 -8 8 -8 11 1 11 16 0 15 31 -3 54 -19 25
-19 46 -1 46 7 0 35 8 62 19 120 46 121 46 150 12 14 -17 30 -29 35 -25 16 10
10 24 -11 24 -29 0 -24 27 8 44 24 12 28 12 35 0 5 -9 4 -21 -3 -30z m147 -5
c29 -23 53 -48 53 -55 0 -19 17 -17 40 4 11 10 40 29 65 41 25 12 45 27 45 33
0 5 7 8 15 4 8 -3 26 -1 40 4 14 5 39 7 56 3 29 -6 31 -8 27 -49 -2 -24 0 -44
4 -44 5 0 8 -12 8 -26 0 -21 -4 -25 -17 -19 -34 13 -298 24 -364 15 -35 -5
-68 -10 -74 -10 -12 0 -12 87 -1 112 4 9 15 19 24 21 10 3 19 5 21 6 2 0 28
-18 58 -40z m533 -19 c14 -8 30 -15 35 -16 6 0 16 -2 23 -2 6 -1 12 -8 12 -16
0 -8 10 -13 23 -13 27 0 191 -79 208 -100 11 -12 1 -18 -23 -14 -5 0 -8 -3 -8
-8 0 -12 27 -21 44 -15 8 3 24 0 36 -6 17 -9 20 -17 15 -43 -5 -26 -4 -29 5
-14 13 21 30 22 30 2 0 -8 9 -15 20 -15 21 0 150 -121 150 -141 0 -6 -9 -13
-19 -16 -11 -3 -19 -12 -19 -21 0 -18 -6 -43 -17 -77 -7 -20 -6 -20 9 -1 9 11
16 28 16 37 0 10 8 22 18 28 9 5 16 13 14 18 -2 4 0 9 5 10 9 2 63 -72 63 -87
0 -5 22 -38 48 -73 42 -55 82 -150 69 -163 -8 -9 -114 19 -157 41 -34 17 -53
36 -73 74 -27 49 -96 138 -166 215 -26 28 -31 37 -16 32 11 -4 34 -10 50 -12
l30 -5 -34 15 c-18 9 -42 16 -53 16 -11 0 -50 22 -87 50 -116 86 -242 159
-364 208 -23 10 -26 15 -18 31 6 10 7 21 4 25 -9 8 -18 74 -14 98 1 8 107 -24
141 -42z m-257 -122 c32 -6 60 -15 63 -20 9 -14 12 -457 5 -620 -6 -134 -7
-137 -38 -183 -18 -25 -33 -48 -33 -50 0 -3 -19 -35 -43 -72 -24 -38 -50 -79
-57 -93 -13 -25 -13 -25 8 -6 18 16 77 103 140 206 l22 35 0 -86 0 -86 -80
-67 c-73 -62 -100 -74 -100 -43 0 7 -19 13 -46 15 -26 1 -50 5 -55 8 -5 3 -9
24 -9 46 0 23 -4 69 -9 102 -12 75 -35 269 -57 481 -9 88 -18 162 -20 164 -12
13 -13 -19 -4 -125 22 -257 26 -292 60 -534 13 -88 16 -138 10 -144 -14 -14
-24 0 -48 69 -11 33 -33 89 -49 125 l-28 65 -2 407 -2 406 67 7 c37 3 74 8 82
10 24 5 160 -5 223 -17z m-883 -17 c0 -5 -9 -33 -19 -63 -11 -29 -22 -66 -26
-81 -3 -16 -34 -59 -68 -95 -34 -37 -80 -88 -101 -114 -42 -52 -56 -59 -56
-28 0 11 -4 20 -9 20 -6 0 -7 -15 -4 -34 4 -27 -1 -41 -30 -78 -33 -45 -55
-50 -60 -17 -2 8 -13 29 -26 47 -20 29 -22 36 -11 63 14 32 162 189 179 189 6
0 8 6 5 13 -6 17 21 41 36 32 5 -3 10 -9 10 -13 -1 -15 -67 -82 -82 -82 -9 0
-18 -10 -22 -22 -9 -36 -7 -78 4 -78 6 0 10 18 10 39 0 35 3 40 31 50 18 6 40
11 49 11 10 0 29 9 43 21 l27 20 -25 25 c-43 43 -34 66 52 128 78 56 93 64 93
47z m480 -193 c0 -218 -14 -260 -26 -78 -3 58 -7 114 -8 125 0 11 -5 26 -9 33
-5 7 -3 12 5 13 10 0 10 2 0 6 -6 2 -10 9 -6 14 8 13 -5 49 -18 49 -6 0 -8
-28 -3 -82 3 -46 8 -114 10 -151 3 -37 12 -89 21 -115 14 -39 16 -86 16 -271
-1 -123 -4 -226 -6 -228 -3 -3 -14 15 -27 39 -12 23 -36 63 -54 88 -32 44 -85
136 -85 146 0 3 5 2 12 -2 6 -4 9 -3 6 2 -7 11 -16 79 -23 164 -2 36 -7 85
-10 110 -3 25 -7 90 -10 145 -3 55 -10 104 -15 109 -18 18 8 -354 35 -494 l7
-35 -36 34 c-51 49 -77 135 -83 272 -3 74 -1 109 6 109 6 0 11 -15 11 -34 0
-19 4 -37 9 -40 5 -3 8 15 7 42 -1 39 -4 46 -19 44 -14 -2 -17 5 -17 38 l0 41
83 39 c46 22 103 42 128 46 24 4 51 10 59 15 39 22 40 16 40 -193z m664 118
c61 -30 136 -72 166 -95 30 -22 72 -53 94 -68 69 -50 174 -172 233 -271 63
-106 130 -261 139 -326 4 -22 10 -45 14 -51 16 -20 40 -228 40 -338 -1 -256
-98 -541 -246 -724 -35 -43 -96 -106 -135 -140 -110 -95 -293 -213 -332 -213
-8 0 -34 59 -66 153 -58 163 -72 258 -54 375 l8 53 76 -128 c42 -70 100 -170
129 -220 44 -80 70 -116 70 -99 0 10 -181 329 -218 384 -22 31 -47 78 -55 103
-17 50 -17 174 0 174 6 0 68 -49 138 -110 181 -156 326 -275 350 -287 18 -9
18 -9 5 4 -8 9 -62 55 -120 103 -90 75 -206 175 -348 301 -33 29 -36 36 -36
90 -1 34 3 58 9 57 6 -1 60 -23 120 -48 167 -70 507 -196 513 -190 3 2 -4 7
-14 11 -32 11 -536 211 -581 231 -41 17 -43 20 -43 62 l0 44 123 -7 c388 -21
519 -25 582 -18 58 6 30 9 -157 15 -125 5 -235 10 -245 11 -10 2 -82 7 -160
11 -90 5 -143 12 -146 19 -2 6 -3 28 -3 49 l1 38 170 44 c166 43 561 169 579
185 11 11 -55 -4 -114 -25 -174 -61 -605 -179 -626 -171 -15 6 -20 101 -6 122
4 6 59 46 122 89 63 43 176 122 250 175 74 53 157 111 183 129 27 18 46 35 44
38 -5 4 -143 -87 -464 -307 -73 -49 -135 -90 -138 -90 -10 0 -5 168 6 199 7
18 26 54 43 80 17 26 51 80 76 120 25 40 73 115 108 168 34 52 62 101 62 107
0 6 -6 2 -12 -9 -11 -18 -17 -27 -43 -58 -18 -21 -150 -220 -189 -284 -20 -35
-42 -63 -48 -63 -8 0 -9 29 -4 92 3 50 6 196 6 325 0 209 2 233 16 233 9 0 67
-24 128 -54z m-1018 -78 c-3 -18 -2 -79 2 -135 4 -57 4 -103 0 -103 -3 0 -16
14 -28 31 -32 43 -36 29 -5 -17 14 -20 27 -47 30 -58 6 -30 12 -316 7 -316 -3
0 -55 37 -116 82 -179 132 -207 151 -211 146 -2 -2 46 -42 107 -88 61 -47 138
-107 170 -134 l60 -48 -7 -44 c-5 -36 -3 -44 9 -44 9 0 16 -5 16 -11 0 -6 -7
-9 -15 -5 -9 3 -15 0 -15 -9 0 -8 7 -15 15 -15 8 0 15 -5 15 -11 0 -6 -7 -9
-15 -5 -10 4 -15 -1 -15 -14 0 -11 -6 -20 -14 -20 -8 0 -94 28 -192 61 -233
80 -264 90 -264 80 0 -5 13 -11 30 -14 28 -6 203 -68 245 -87 11 -5 52 -19 90
-30 110 -33 100 -9 102 -247 1 -115 -2 -214 -5 -220 -4 -6 -59 -36 -122 -68
-128 -64 -290 -154 -290 -161 0 -2 91 43 203 101 112 58 207 105 210 105 4 0
7 -46 7 -102 l0 -103 -135 -130 c-74 -72 -135 -134 -135 -138 0 -14 50 29 156
134 55 54 103 99 106 99 3 0 8 -75 12 -167 4 -93 12 -193 18 -223 10 -56 57
-160 86 -192 8 -10 12 -18 9 -18 -16 0 -96 44 -92 51 3 4 -21 19 -52 34 -70
35 -305 267 -374 371 -94 140 -147 303 -183 561 -8 56 15 303 35 373 11 41 25
93 30 115 5 22 15 54 21 70 21 54 59 140 68 155 6 8 14 25 19 36 5 12 17 24
25 27 9 4 16 14 16 24 0 41 198 243 320 327 47 32 52 32 46 -6z m140 -472 c4
-12 30 -53 58 -93 91 -129 124 -187 134 -238 6 -27 9 -52 6 -54 -2 -3 -19 9
-37 26 -17 17 -72 61 -122 98 -49 37 -93 72 -96 78 -4 7 -9 68 -12 137 -3 69
-9 136 -13 150 -8 30 72 -72 82 -104z m-638 27 c-14 -32 -36 -87 -49 -123 -13
-36 -26 -67 -30 -70 -3 -3 -10 -20 -14 -38 -10 -46 -46 -54 -79 -15 -14 15
-26 33 -26 40 0 6 -5 13 -11 15 -8 3 -5 24 9 68 46 145 52 155 67 130 4 -7 14
-5 28 5 12 8 29 15 39 15 10 0 27 14 40 30 19 27 24 29 37 16 12 -13 11 -22
-11 -73z m2202 -20 c47 -15 55 -22 58 -46 2 -15 -8 -52 -22 -81 -29 -61 -30
-66 -16 -66 5 0 13 12 16 28 4 15 13 35 20 45 12 18 13 18 22 0 16 -30 14
-173 -3 -179 -11 -4 -9 -10 6 -25 14 -14 18 -27 13 -42 -4 -12 -8 -124 -8
-248 -1 -174 -5 -230 -15 -243 -12 -14 -11 -16 4 -16 15 0 17 -8 13 -60 -3
-42 -1 -61 9 -64 9 -4 10 -12 2 -35 -13 -37 -39 -62 -39 -37 0 10 -5 14 -11
11 -7 -5 -5 -13 5 -24 9 -10 16 -23 16 -31 0 -11 -63 -147 -90 -192 -5 -10
-13 -24 -17 -32 -59 -107 -181 -246 -302 -344 -159 -129 -160 -129 -155 -21 3
53 1 78 -6 74 -5 -3 -10 -33 -10 -65 0 -84 -4 -90 -58 -90 -31 0 -43 -3 -36
-10 12 -12 53 -15 77 -5 10 4 17 3 17 -4 0 -14 -137 -83 -144 -73 -3 5 -16 41
-29 81 l-25 73 52 23 c46 20 90 47 232 142 61 41 200 187 250 263 28 41 70
118 94 171 l44 97 25 -24 c13 -12 28 -21 33 -18 14 9 9 19 -22 37 -28 17 -34
37 -18 62 3 6 11 36 17 68 6 32 13 62 15 66 7 10 29 175 32 236 1 28 -2 55 -6
60 -10 12 -34 219 -27 237 2 7 -2 26 -10 41 -8 16 -12 31 -9 35 3 3 0 12 -8
21 -12 13 -72 159 -93 223 -6 19 -7 19 107 -19z m109 -108 c7 -36 17 -67 21
-70 19 -12 54 -317 47 -415 -3 -41 -7 -109 -10 -150 -6 -81 -38 -215 -56 -233
-11 -11 -11 10 4 103 13 84 14 114 4 132 -6 11 -7 24 -2 31 5 7 8 92 8 190 -1
97 2 177 7 177 5 0 4 8 -1 18 -6 10 -12 51 -15 91 -3 39 -12 84 -21 101 -16
31 -21 90 -7 90 5 0 14 -29 21 -65z m-1704 -131 c17 -15 65 -54 109 -88 43
-33 87 -68 96 -76 19 -16 36 -60 24 -60 -5 0 -66 19 -136 43 l-128 42 -1 65
c0 36 -2 73 -4 83 -4 23 5 21 40 -9z m-706 -46 c-5 -18 -12 -79 -16 -135 -3
-57 -9 -103 -12 -103 -3 0 -26 32 -49 70 -49 79 -49 80 16 145 67 66 75 69 61
23z m-121 -128 c4 -3 17 -23 29 -45 11 -22 30 -57 42 -78 24 -44 26 -57 8 -57
-8 0 -14 -7 -14 -15 0 -9 6 -14 14 -11 8 3 13 -2 13 -14 0 -11 -5 -17 -12 -15
-13 5 -38 -37 -38 -64 0 -9 -5 -33 -11 -53 -13 -49 -43 -52 -58 -5 -17 53 -11
78 22 84 20 4 25 8 16 14 -7 4 -19 3 -26 -3 -15 -12 -14 -14 -17 37 0 22 -5
46 -10 53 -8 14 1 199 12 216 3 5 9 -1 14 -15 5 -13 12 -26 16 -29z m908 -25
c130 -43 144 -51 144 -76 0 -17 -4 -20 -28 -15 -15 4 -73 7 -129 8 l-101 2 -4
36 c-3 37 1 80 8 80 2 0 51 -16 110 -35z m397 -50 c63 -26 76 -90 31 -144 -39
-46 -54 -52 -105 -37 -38 11 -46 18 -58 53 -18 51 -2 96 43 124 37 23 44 23
89 4z m-177 -61 c-3 -25 -8 -50 -11 -55 -4 -5 0 -7 7 -4 9 4 13 -5 14 -25 1
-18 10 -37 24 -48 l23 -19 -43 -132 c-24 -72 -45 -130 -47 -128 -3 3 4 63 21
194 3 22 1 30 -7 27 -9 -3 -12 25 -11 103 1 136 1 133 19 133 13 0 15 -9 11
-46z m-98 0 c41 -11 21 -37 -38 -52 -88 -22 -94 -21 -101 13 l-7 30 -1 -31
c-1 -34 -15 -44 -57 -44 -14 0 -23 -4 -20 -9 3 -4 17 -6 32 -3 16 3 30 -1 35
-9 7 -10 11 -11 17 -2 4 6 34 18 67 26 33 8 67 17 76 21 12 5 15 1 14 -15 -1
-15 -11 -26 -28 -32 -15 -5 -27 -13 -27 -18 0 -5 -6 -9 -12 -9 -7 0 -52 -20
-100 -44 -47 -24 -89 -42 -92 -38 -3 3 -6 20 -6 39 0 40 19 45 21 6 1 -24 2
-23 8 7 4 24 2 36 -6 38 -8 2 -13 22 -13 52 0 27 -3 55 -6 64 -5 14 8 16 107
16 63 0 124 -3 137 -6z m455 -55 c56 -12 57 -13 57 -45 0 -20 -5 -34 -12 -34
-9 0 -9 -3 0 -12 11 -11 18 -98 8 -98 -3 0 -35 29 -71 64 -60 56 -66 66 -56
84 6 11 8 28 5 36 -7 19 -4 19 69 5z m-1378 -126 c3 -32 13 -89 22 -126 16
-72 13 -88 -12 -67 -24 20 -17 2 10 -28 14 -15 28 -38 31 -52 3 -14 10 -32 15
-40 5 -8 21 -39 35 -68 13 -30 49 -88 78 -130 29 -43 61 -93 71 -112 10 -19
30 -51 45 -70 31 -39 49 -106 52 -195 1 -33 6 -66 11 -72 21 -28 -2 -10 -70
57 -40 38 -84 87 -100 107 -15 21 -34 44 -40 51 -7 7 -13 22 -13 32 0 10 -4
20 -8 22 -14 5 -72 96 -72 112 0 8 -4 17 -9 21 -5 3 -12 19 -16 35 -4 17 -11
28 -16 24 -5 -3 -7 -15 -4 -27 3 -12 -8 7 -25 42 -36 75 -35 75 -11 61 28 -14
36 -12 21 5 -7 8 -18 15 -25 15 -22 0 -30 61 -11 75 20 15 21 29 2 22 -20 -8
-49 16 -51 41 0 11 -8 28 -16 38 -11 13 -11 18 -2 21 10 4 10 10 2 24 -5 11
-9 30 -7 42 2 13 -2 21 -9 20 -7 -2 -13 6 -13 17 0 19 2 19 43 -6 23 -15 53
-36 67 -47 14 -12 6 -2 -17 22 l-42 42 15 42 c31 84 47 116 54 112 4 -3 11
-31 15 -62z m939 32 c-4 -26 -22 -50 -77 -102 -40 -37 -88 -85 -109 -106 -33
-35 -37 -37 -47 -20 -17 29 -6 -125 12 -172 20 -51 21 -33 3 29 -14 47 -11
116 5 116 5 0 9 -6 9 -12 0 -7 7 -1 17 12 17 27 175 189 183 190 9 0 4 -155
-5 -170 -5 -9 -4 -15 4 -18 9 -3 8 -9 -5 -23 -9 -10 -14 -19 -10 -19 5 0 -1
-16 -13 -36 -12 -19 -21 -41 -21 -47 0 -7 -16 -43 -35 -81 -19 -39 -35 -78
-35 -87 0 -10 -4 -21 -10 -24 -20 -13 -9 38 24 106 19 39 32 77 29 85 -3 7 5
27 17 44 12 16 23 41 24 54 1 14 8 32 15 40 7 8 11 25 9 38 -4 22 -5 22 -12 3
-4 -11 -12 -29 -16 -40 -5 -11 -12 -31 -15 -43 -4 -13 -26 -52 -49 -85 -23
-34 -48 -74 -56 -89 -17 -35 -34 -36 -28 -3 3 14 1 22 -4 19 -6 -4 -8 -18 -5
-33 3 -14 1 -34 -5 -44 -7 -13 -6 -23 1 -30 15 -15 14 -30 -2 -24 -9 3 -13 -7
-14 -34 -1 -22 2 -39 7 -39 14 0 22 -36 14 -64 -9 -37 -34 -33 -34 5 0 21 4
28 13 23 6 -5 4 3 -5 16 -9 14 -21 24 -26 23 -7 -2 -7 8 -1 29 5 17 5 36 0 42
-4 6 -8 115 -8 241 0 152 3 215 8 186 13 -70 19 -72 16 -6 l-2 60 92 46 c51
26 95 44 98 41 3 -3 12 4 21 16 22 32 35 27 28 -13z m431 -60 l75 -74 0 -66
c0 -36 -4 -65 -9 -65 -6 0 -45 58 -88 129 -42 71 -81 127 -85 125 -4 -3 -8 -1
-8 5 0 9 15 18 33 20 4 1 42 -33 82 -74z m-1601 29 c19 -4 24 -19 45 -126 22
-113 22 -122 7 -134 -9 -6 -21 -25 -25 -42 -12 -40 8 -68 58 -82 36 -9 39 -14
81 -112 24 -56 39 -103 34 -105 -26 -9 -36 -24 -40 -59 -7 -60 13 -77 91 -82
l64 -4 42 -57 c24 -31 55 -71 71 -89 28 -32 28 -32 8 -52 -48 -48 -4 -126 70
-124 22 1 51 9 64 18 24 15 27 15 58 -4 18 -10 59 -34 91 -52 31 -18 57 -38
57 -45 0 -7 7 -13 15 -13 7 0 18 -6 22 -14 4 -8 17 -15 28 -18 12 -2 20 -11
20 -23 0 -16 -8 -21 -43 -23 -48 -4 -53 -21 -10 -36 31 -11 74 16 84 52 5 18
34 33 34 17 0 -4 -100 -355 -127 -447 -4 -14 -17 -18 -62 -18 -56 0 -92 -12
-78 -26 9 -9 -12 -34 -29 -34 -15 0 -18 3 -103 77 -30 27 -51 42 -47 36 19
-33 -21 -5 -100 69 -117 111 -234 271 -291 397 -32 71 -77 210 -72 223 0 2 -5
17 -11 33 -13 35 -62 306 -56 312 5 5 36 -73 36 -91 0 -27 59 -210 66 -203 2
2 -10 50 -27 108 -17 57 -40 133 -50 169 -11 36 -24 104 -29 150 -11 94 -13
410 -4 458 6 27 8 29 21 17 8 -8 24 -17 37 -21z m1456 -12 c0 -16 25 -100 56
-188 31 -87 71 -206 91 -264 19 -58 55 -161 80 -230 24 -69 58 -168 75 -220
80 -253 214 -635 248 -707 26 -55 26 -55 -11 -51 l-32 3 -68 200 c-38 110 -75
223 -83 250 -8 28 -41 129 -74 225 -33 96 -79 234 -102 305 -23 72 -56 173
-74 225 -19 52 -55 163 -80 245 -26 83 -54 163 -62 178 -19 34 -12 57 16 57
15 0 20 -7 20 -28z m-100 10 c0 -5 -14 -62 -31 -128 -17 -65 -34 -130 -36
-144 -3 -14 -28 -99 -55 -190 -28 -91 -57 -190 -65 -220 -26 -102 -74 -265
-84 -285 -6 -12 -11 -27 -13 -35 -1 -8 -7 -33 -13 -55 -6 -22 -17 -65 -23 -95
-7 -30 -18 -68 -25 -85 -14 -32 -95 -389 -95 -416 0 -12 -13 -18 -47 -23 -25
-3 -48 -4 -50 -2 -2 2 6 25 17 52 12 27 30 82 40 124 10 41 48 161 85 265 36
105 72 213 80 240 8 28 48 165 90 305 41 140 89 305 105 365 63 235 95 335
108 335 6 0 12 -4 12 -8z m236 -159 l79 -137 3 -111 3 -110 -21 55 c-42 110
-149 421 -150 438 -1 14 20 -18 86 -135z m-184 60 c6 -33 63 -208 153 -468 36
-104 65 -192 65 -196 0 -13 -110 -31 -161 -26 -77 9 -155 64 -192 138 -33 65
-35 52 57 366 31 106 56 199 56 208 0 25 17 8 22 -22z m-239 -286 c-9 -95 -77
-341 -145 -520 l-11 -29 -14 34 c-39 89 -51 198 -22 198 5 0 9 6 9 14 0 8 7
21 15 30 8 8 19 25 24 38 10 23 10 23 10 -4 1 -15 -4 -39 -10 -55 -7 -15 -11
-40 -10 -55 1 -16 -2 -28 -7 -28 -9 0 -9 -76 0 -85 3 -4 9 9 13 27 3 18 10 42
15 53 22 52 39 146 37 200 -2 47 5 77 30 140 17 44 34 88 37 99 5 14 9 16 20
7 10 -9 13 -27 9 -64z m1457 -257 c-12 -192 -25 -247 -114 -475 -56 -142 -90
-204 -164 -303 -69 -92 -236 -242 -270 -242 -11 0 -40 77 -108 283 l-62 187
36 16 c36 14 36 14 60 -15 32 -41 92 -60 125 -38 30 19 40 53 21 71 -19 20
-18 26 7 26 12 0 19 5 16 13 -2 6 -16 12 -30 12 -49 0 -37 20 58 96 116 93
114 92 163 68 39 -19 44 -20 66 -6 16 11 25 29 29 58 6 47 3 59 -18 59 -17 0
-28 -31 -15 -44 18 -18 11 -38 -12 -35 -13 2 -28 0 -33 -3 -6 -4 -17 -3 -24 1
-9 6 -5 15 16 32 15 14 37 40 47 59 19 34 134 172 149 178 4 2 7 15 7 28 0 31
46 123 55 112 2 -2 -1 -64 -5 -138z m-1384 -32 c5 -18 9 -38 9 -43 0 -6 10
-25 23 -42 12 -17 22 -45 22 -62 0 -17 5 -31 11 -31 16 0 5 -77 -14 -98 -8 -9
-17 -28 -19 -42 -3 -23 -7 -25 -46 -22 -24 1 -55 10 -69 19 -27 18 -27 45 2
106 8 18 17 46 19 62 3 17 7 37 9 45 2 8 10 43 17 78 8 34 17 62 21 62 4 0 11
-15 15 -32z m-476 -215 c106 -60 149 -81 188 -93 26 -8 42 -19 42 -29 0 -24
-35 -130 -46 -140 -5 -5 -24 -2 -43 6 -28 12 -32 17 -20 25 10 7 7 8 -13 4
-32 -7 -109 28 -170 76 -20 16 -46 31 -58 33 -26 5 -40 14 -40 26 0 6 6 6 18
0 10 -5 24 -6 32 -1 22 12 123 21 136 13 6 -5 16 -17 22 -28 11 -19 11 -19 12
3 0 26 -36 66 -51 56 -24 -14 -135 -31 -151 -23 -11 6 -18 27 -23 66 -3 32 -9
79 -14 104 l-8 47 76 -63 c42 -34 92 -71 111 -82z m842 28 c-39 -71 -141 -171
-177 -171 -15 0 0 23 45 66 28 26 50 54 50 61 0 7 11 18 24 25 22 9 42 36 34
44 -8 7 -68 -30 -68 -42 0 -7 -4 -16 -10 -19 -5 -3 -7 0 -4 8 4 11 -1 13 -20
10 -25 -5 -25 -6 -6 -22 18 -15 18 -17 2 -36 -9 -11 -32 -31 -49 -43 -27 -19
-33 -20 -33 -8 0 9 5 16 11 16 6 0 9 11 7 24 -1 12 6 39 17 60 16 30 25 36 52
36 18 0 33 4 33 9 0 5 18 12 39 16 22 4 45 13 52 21 25 31 26 -8 1 -55z m131
-248 c21 -59 24 -78 15 -84 -19 -12 -161 -49 -186 -49 -19 0 -33 20 -14 20 4
0 31 23 61 50 29 28 57 50 62 50 5 0 9 5 9 10 0 16 -11 12 -50 -22 -39 -35
-90 -74 -102 -80 -11 -5 -148 105 -142 114 3 4 16 8 29 8 43 0 259 40 269 50
17 17 20 12 49 -67z m-538 21 c105 -14 105 -14 -2 -69 -40 -21 -73 -44 -73
-52 0 -15 -46 -18 -54 -4 -5 8 8 93 20 130 3 9 14 12 37 7 17 -4 50 -9 72 -12z
m214 -61 c31 -27 68 -55 81 -65 45 -30 14 -41 -113 -41 -169 1 -249 15 -233
42 4 6 36 27 72 47 l65 36 24 -22 c13 -12 21 -28 18 -36 -3 -8 0 -14 6 -14 18
0 12 23 -14 54 -33 38 -32 46 6 46 22 0 47 -13 88 -47z m365 -95 c11 -37 144
-423 146 -423 0 0 -221 -1 -490 -3 -270 -1 -490 1 -490 5 0 14 60 258 76 308
14 44 21 75 23 97 1 8 26 5 141 -19 41 -9 87 -22 102 -29 32 -17 41 -18 33 -4
-3 6 -1 10 4 10 6 0 11 -4 11 -10 0 -5 6 -7 14 -4 20 8 29 -12 16 -36 -18 -33
-69 -27 -102 12 l-27 33 -1 -26 c0 -58 81 -97 129 -61 20 15 26 28 25 54 -1
32 2 35 40 46 23 7 80 13 129 15 48 2 90 7 93 10 4 4 16 2 26 -4 14 -8 23 -8
31 0 8 8 16 6 29 -6 10 -9 21 -13 26 -9 4 4 -1 13 -10 20 -13 10 -15 15 -6 24
15 15 28 15 32 0z m288 -469 c-16 -13 -201 -86 -257 -102 -33 -8 -134 -27
-224 -41 -91 -14 -168 -31 -172 -37 -8 -13 -111 -8 -369 17 -151 15 -157 16
-255 63 -133 64 -157 94 -80 103 54 6 1364 3 1357 -3z m-1418 -88 c28 -16 83
-39 121 -51 39 -12 74 -26 78 -30 4 -3 -54 -6 -129 -6 l-137 2 -2 57 c-2 34 1
57 7 57 6 0 34 -13 62 -29z"/>
<path d="M3359 5923 c0 -10 -2 -25 -3 -33 -3 -15 -18 -120 -22 -150 -6 -52
-16 -114 -18 -119 -2 -3 -7 -28 -11 -56 -3 -27 -15 -102 -26 -165 -11 -63 -27
-160 -34 -215 -8 -55 -19 -122 -24 -150 -5 -27 -6 -53 -2 -58 8 -8 35 108 57
248 8 50 19 115 24 145 24 147 60 403 66 470 3 41 8 78 10 82 3 4 0 9 -6 13
-5 3 -10 -2 -11 -12z"/>
<path d="M13260 7955 c0 -32 -2 -35 -19 -25 -11 5 -54 10 -96 9 -65 -1 -76 -4
-73 -18 3 -13 20 -16 100 -19 85 -2 99 -5 108 -22 6 -11 8 -20 5 -20 -2 0 16
-30 41 -67 25 -37 50 -78 55 -92 7 -18 13 -21 21 -13 9 9 8 19 -2 39 -8 16
-14 33 -15 38 0 6 -17 32 -37 58 -20 26 -44 72 -54 103 -21 66 -34 78 -34 29z"/>
<path d="M5400 7951 c-8 -6 -19 -7 -25 -4 -5 4 -7 3 -3 -2 5 -5 -2 -15 -13
-23 -16 -11 -23 -12 -28 -3 -5 8 -14 4 -26 -11 -11 -13 -13 -17 -5 -10 34 30
30 8 -5 -28 -41 -42 -62 -51 -51 -24 5 14 4 15 -9 4 -9 -7 -14 -19 -11 -26 5
-12 -94 -112 -150 -151 -16 -12 -43 -25 -58 -29 -22 -5 -25 -9 -14 -15 13 -7
13 -18 5 -61 -12 -64 -13 -896 -3 -1508 11 -608 12 -1411 3 -1755 -15 -575
-16 -615 -6 -615 12 0 12 -37 -1 -45 -6 -3 -9 -27 -8 -53 l1 -47 7 50 c4 28 8
46 9 40 2 -5 4 -197 5 -425 l1 -414 40 -5 c22 -2 106 -4 188 -4 81 0 142 -4
136 -8 -6 -4 84 -7 200 -8 117 0 217 -3 222 -6 5 -4 15 -3 22 2 42 27 189 43
202 22 5 -7 13 -4 26 7 10 9 16 20 14 24 -3 4 3 14 12 21 9 8 54 64 99 125 46
61 101 129 122 150 31 30 37 43 31 59 -7 18 -8 18 -8 2 -1 -10 -5 -15 -11 -12
-13 8 -13 62 0 70 7 4 7 13 0 26 -7 12 -7 25 -1 37 10 19 3 172 -8 172 -3 0
-7 169 -8 376 -2 316 0 374 12 364 14 -11 95 -189 95 -208 0 -5 18 -63 39
-128 50 -152 153 -470 179 -554 75 -245 107 -343 128 -397 13 -34 24 -68 24
-76 0 -8 7 -20 15 -27 27 -22 16 -30 -41 -30 -34 0 -53 -4 -49 -10 9 -14 533
-13 691 2 71 7 219 12 329 13 l200 0 18 -37 c24 -49 33 -48 29 3 -3 28 0 44 9
50 11 7 10 9 -3 9 -10 0 -18 3 -18 6 0 7 35 51 83 107 l28 32 -17 -30 c-10
-16 -26 -40 -37 -52 -10 -12 -17 -28 -15 -35 3 -8 11 0 21 19 9 17 26 34 36
38 11 3 21 16 23 28 2 14 10 22 23 23 36 2 40 5 17 14 l-23 10 21 37 c44 83
68 118 80 115 19 -4 3 47 -54 176 -29 64 -59 135 -66 157 -7 22 -18 51 -25 65
-23 47 -122 288 -170 415 -13 33 -33 85 -45 115 -12 30 -37 98 -55 150 -19 52
-48 133 -66 180 -40 107 -69 191 -74 210 -23 97 -73 233 -138 370 -14 30 -29
67 -32 83 -4 15 -11 30 -17 33 -5 3 -4 12 3 20 8 10 8 14 0 14 -6 0 -11 -4
-11 -10 0 -16 -17 -11 -24 7 -4 9 0 23 9 32 13 14 15 14 15 -2 0 -10 5 -15 11
-12 5 4 8 12 6 18 -2 7 1 17 7 24 6 7 31 36 56 65 25 28 81 90 126 138 44 47
90 99 101 115 41 61 72 124 63 130 -5 3 -11 -4 -15 -15 -3 -11 -12 -26 -18
-33 -19 -20 -57 -76 -57 -83 0 -11 -72 -105 -77 -100 -3 2 10 26 29 53 18 26
54 84 80 128 62 105 70 117 63 88 -11 -41 12 -24 24 19 11 36 15 53 24 93 2 6
5 15 9 20 12 20 46 170 52 230 3 33 8 107 11 165 3 58 10 157 15 220 9 110 6
215 -6 290 -12 72 -15 84 -44 175 -17 50 -30 99 -30 109 0 9 -4 16 -9 16 -13
0 -54 114 -42 118 16 5 13 22 -4 22 -8 0 -12 6 -9 14 4 11 -28 78 -64 132 -29
44 -51 75 -81 112 -24 30 -28 40 -15 35 42 -16 -50 83 -141 153 -92 70 -348
205 -455 239 -30 10 -62 23 -70 30 -8 6 -22 16 -30 20 -13 8 -13 7 -1 -8 18
-23 16 -22 -140 17 -171 44 -308 60 -484 58 -740 -8 -902 -7 -898 6 6 14 -6
15 -27 3z m325 -51 c105 -5 296 -6 425 -2 248 8 427 -3 523 -32 27 -8 56 -12
65 -9 9 4 13 2 9 -4 -7 -10 54 -40 97 -49 37 -7 121 -37 156 -55 58 -32 69
-21 12 12 -29 17 -51 33 -49 35 6 6 173 -54 216 -77 20 -10 41 -19 48 -19 7 0
13 -4 13 -10 0 -5 9 -10 19 -10 11 0 22 -4 25 -9 4 -5 37 -26 74 -47 87 -49
197 -137 229 -183 121 -177 171 -270 138 -257 -8 3 -15 1 -15 -5 0 -5 7 -12
14 -15 8 -3 23 -29 32 -57 9 -29 20 -56 24 -62 4 -5 10 -23 14 -40 4 -16 18
-52 32 -81 13 -28 24 -62 24 -75 0 -13 5 -40 10 -59 17 -58 39 -173 38 -200 0
-14 2 -74 5 -135 3 -60 1 -132 -4 -160 -6 -27 -11 -62 -13 -77 -3 -33 -15 -49
-17 -22 -2 27 -1 41 6 104 13 116 12 140 -3 140 -11 0 -12 3 -3 14 9 11 9 15
-1 20 -10 5 -10 7 -1 12 9 4 9 11 -3 30 -20 30 -38 31 -28 2 4 -13 8 -68 8
-122 1 -82 -1 -100 -14 -103 -19 -5 -25 -53 -8 -66 10 -7 10 -10 1 -14 -19 -7
-17 -44 2 -37 11 5 15 -1 15 -19 0 -14 -5 -29 -10 -32 -6 -4 -8 -11 -5 -16 4
-5 -1 -9 -10 -9 -11 0 -15 -5 -12 -14 3 -8 2 -28 -3 -45 -4 -16 -6 -32 -2 -35
3 -4 6 -17 7 -31 0 -18 -5 -25 -17 -25 -10 0 -18 -5 -18 -12 0 -6 -3 -8 -7 -5
-3 4 2 16 12 27 10 11 15 23 11 27 -4 4 -11 2 -15 -5 -4 -8 -8 6 -9 33 -2 36
1 45 14 45 13 0 14 3 5 14 -6 7 -10 35 -9 62 2 54 -8 174 -16 181 -2 2 -1 17
4 32 4 15 4 35 -1 44 -6 10 -5 18 2 22 7 5 3 14 -10 26 -18 17 -19 22 -7 56 9
24 19 37 28 35 9 -1 18 7 21 20 6 23 -8 48 -27 48 -6 0 -12 12 -13 28 -6 65
-10 83 -20 93 -8 8 -11 -22 -9 -110 2 -119 -5 -155 -20 -109 -11 32 -13 45
-18 110 -2 31 -6 60 -9 65 -3 4 -10 35 -16 68 -6 32 -16 64 -21 69 -6 6 -10
17 -10 25 0 43 -190 366 -216 366 -5 0 -47 34 -93 75 -176 160 -348 253 -571
308 -184 45 -220 52 -326 64 -147 15 -521 16 -784 1 -118 -7 -291 -15 -385
-18 -155 -5 -168 -5 -150 10 56 43 177 147 237 203 l67 62 63 0 c35 0 149 -4
253 -10z m591 -285 c181 -20 308 -41 416 -70 122 -31 332 -117 377 -153 20
-15 62 -45 94 -66 53 -35 207 -195 207 -215 0 -7 7 -17 63 -81 48 -56 89 -155
127 -309 74 -300 72 -290 56 -313 -17 -24 -11 -48 13 -49 12 0 12 -2 -4 -9
-18 -8 -18 -9 -2 -9 17 -1 18 -13 16 -203 -2 -116 -7 -216 -14 -233 -6 -16
-10 -50 -9 -75 0 -25 -4 -54 -10 -65 -6 -11 -12 -31 -13 -44 -2 -22 -14 -61
-51 -171 -23 -68 -86 -197 -131 -266 -46 -73 -130 -144 -325 -277 l-29 -20
-19 24 -19 24 15 -30 c18 -38 8 -57 -36 -76 l-33 -14 33 -5 c30 -5 36 -12 78
-105 54 -117 85 -194 149 -365 49 -131 75 -196 181 -449 36 -84 63 -156 60
-158 -5 -6 -27 31 -166 292 -62 116 -143 266 -180 335 -37 69 -96 181 -130
250 -58 114 -241 449 -334 610 -21 36 -58 106 -83 155 -25 50 -54 101 -64 114
-22 28 -24 41 -6 41 21 0 103 132 131 210 40 114 53 216 49 375 -7 255 -70
403 -221 516 -79 60 -84 66 -28 36 29 -16 43 -21 35 -11 -7 8 -33 26 -58 39
-39 20 -42 24 -21 24 14 0 44 -8 68 -19 23 -10 42 -17 42 -14 0 10 -86 44
-115 44 -16 0 -55 9 -85 20 -59 21 -155 25 -250 10 -145 -23 -184 -31 -189
-36 -3 -4 17 -4 45 0 l50 6 -2 -592 c-2 -326 0 -621 4 -656 4 -34 4 -69 -1
-78 -16 -28 13 -35 118 -29 135 8 216 28 303 75 41 22 75 40 78 40 2 0 4 -9 4
-19 0 -19 50 -104 57 -98 2 2 -10 30 -26 62 -17 32 -27 63 -24 68 7 12 23 -13
78 -123 27 -52 87 -165 135 -250 48 -85 131 -240 185 -345 102 -198 217 -410
315 -580 31 -55 110 -199 175 -320 65 -121 126 -232 136 -246 10 -14 50 -107
88 -206 38 -99 82 -209 97 -244 26 -62 46 -129 38 -129 -2 0 -88 168 -190 373
-198 396 -308 611 -409 797 -101 187 -162 303 -278 530 -60 118 -114 220 -119
225 -21 23 137 -292 347 -690 78 -148 277 -537 441 -863 164 -327 311 -617
326 -645 14 -29 24 -54 22 -56 -2 -2 -88 -4 -191 -3 -104 1 -262 -2 -353 -7
-91 -6 -245 -13 -342 -16 l-176 -5 -7 33 c-4 17 -58 185 -120 372 -63 187
-118 356 -123 375 -6 19 -31 100 -57 180 -77 243 -113 372 -120 438 -4 34 -10
64 -14 67 -4 2 -4 -17 0 -43 14 -86 7 -95 -27 -34 -63 110 -75 155 -78 308 -3
140 -3 145 16 141 14 -4 18 -1 16 11 -2 10 -15 18 -32 20 l-29 4 7 -134 6
-133 -21 25 c-12 14 -34 51 -50 83 -16 32 -58 87 -94 122 -56 56 -65 62 -70
45 -4 -11 -13 -20 -20 -20 -20 0 -28 -19 -15 -35 9 -11 12 -237 11 -902 l0
-888 -478 0 -478 0 1 425 2 425 96 193 c53 106 130 255 171 332 41 77 109 204
151 283 42 78 85 157 96 175 11 17 17 32 14 32 -14 0 -219 -370 -412 -743 -63
-121 -116 -223 -119 -226 -3 -3 -3 26 1 64 8 80 26 121 148 330 46 77 124 214
176 305 100 177 112 198 332 570 181 306 268 457 268 466 0 13 -55 -70 -156
-236 -298 -488 -440 -728 -613 -1035 -78 -137 -146 -254 -152 -260 -7 -7 -10
14 -10 70 -1 234 2 655 7 1300 2 396 5 752 5 790 0 67 0 177 0 220 1 11 -2
180 -6 375 -4 195 -8 474 -9 620 -2 146 -5 271 -7 279 -6 22 39 29 126 19 76
-9 294 -4 540 11 198 13 475 11 611 -4z m54 -832 c93 -33 242 -210 285 -337
54 -163 42 -472 -23 -606 -19 -39 -47 -56 -142 -82 -61 -17 -172 -24 -202 -13
-10 4 -12 25 -8 93 6 102 5 170 -3 179 -4 3 -4 10 -1 15 10 16 0 664 -12 736
l-7 42 34 -6 c19 -3 54 -13 79 -21z m-289 -471 c0 -20 -1 -44 -2 -52 -5 -36 2
-60 16 -60 8 0 15 -6 15 -13 0 -15 45 -57 60 -57 6 0 10 -14 10 -32 0 -17 -3
-28 -7 -24 -5 4 -8 13 -8 19 0 5 -5 12 -12 14 -14 5 -13 -61 1 -74 5 -4 6 -3
2 4 -3 6 -2 14 4 18 5 3 10 -1 10 -9 0 -9 8 -16 18 -16 16 -1 16 -1 -1 -11
-10 -6 -25 -8 -33 -5 -11 4 -14 -5 -14 -39 0 -36 4 -45 18 -46 16 -1 16 -2 0
-6 -20 -5 -23 -19 -7 -29 8 -4 7 -9 -2 -15 -10 -6 -10 -9 -2 -9 7 0 10 -6 7
-14 -3 -8 5 -22 18 -31 15 -11 17 -15 6 -12 -15 6 -18 0 -18 -38 0 -33 5 -48
19 -56 17 -11 17 -13 2 -28 -9 -10 -42 -45 -73 -80 -41 -44 -58 -57 -59 -44
-3 68 1 442 6 553 3 74 5 164 5 200 0 50 2 61 11 47 5 -9 10 -34 10 -55z
m1159 -1328 c0 -3 -5 -14 -10 -25 -6 -10 -7 -19 -2 -19 4 0 19 -19 31 -42 84
-157 301 -605 301 -621 0 -7 4 -6 9 2 6 10 3 27 -10 50 -72 134 -116 261 -92
261 5 0 28 -39 52 -87 56 -117 84 -161 97 -156 6 2 21 -12 32 -32 14 -23 17
-35 9 -35 -7 0 1 -9 16 -19 27 -17 85 -121 68 -121 -11 0 -51 39 -51 50 0 10
-86 100 -96 100 -3 0 10 -19 28 -41 64 -80 110 -129 118 -124 4 3 11 -3 14
-12 4 -9 1 -20 -5 -24 -6 -4 -8 -12 -4 -19 6 -9 9 -9 16 1 8 14 10 10 55 -111
29 -77 28 -74 7 -66 -10 3 -6 -3 10 -15 15 -11 27 -26 27 -33 0 -7 13 -39 29
-72 16 -32 52 -115 81 -184 28 -69 56 -134 60 -145 5 -11 25 -60 45 -110 20
-49 39 -95 41 -101 3 -6 -2 -14 -10 -17 -11 -4 -27 15 -58 73 -24 44 -47 80
-51 80 -15 0 73 -154 105 -183 38 -36 36 -41 -67 -176 -41 -54 -79 -111 -85
-126 -6 -16 -14 -24 -19 -19 -14 15 -79 214 -71 214 5 0 -9 34 -30 75 -21 41
-36 75 -33 75 3 0 -2 9 -11 19 -10 11 -16 24 -13 28 3 5 -10 40 -29 79 -19 38
-34 79 -34 91 0 12 -5 25 -10 28 -6 4 -8 11 -4 16 3 5 -1 20 -8 32 -8 12 -22
45 -32 72 -11 28 -22 55 -27 60 -13 18 -89 218 -84 223 2 3 -2 17 -9 31 -15
28 -50 103 -51 111 -1 3 -6 16 -12 30 -56 129 -163 406 -163 421 0 8 4 8 15
-1 25 -21 -13 61 -42 89 -15 16 -20 27 -13 31 8 5 0 29 -24 73 -19 36 -37 61
-40 54 -3 -7 -3 -2 0 11 3 12 1 22 -5 22 -6 0 -10 3 -10 8 3 20 -2 32 -13 26
-7 -4 -8 -3 -4 4 4 7 3 12 -2 12 -13 0 -55 116 -47 130 13 21 28 4 41 -46 7
-28 26 -77 43 -110 17 -32 46 -93 66 -134 20 -41 44 -93 55 -115 18 -38 28
-70 34 -109 1 -10 7 -21 12 -24 5 -4 10 -23 10 -42 1 -19 11 -57 24 -85 12
-27 31 -77 42 -110 11 -33 29 -72 40 -87 10 -15 17 -32 13 -37 -3 -5 9 -38 27
-73 18 -35 33 -70 34 -79 2 -30 42 -147 67 -194 5 -11 15 -29 20 -40 6 -11 14
-27 19 -35 20 -35 50 -106 53 -125 2 -21 9 -40 30 -90 6 -16 18 -46 25 -65 15
-40 41 -82 46 -77 2 2 -10 35 -26 73 -16 38 -30 78 -30 89 0 12 -6 27 -12 33
-10 10 -10 15 1 21 11 7 11 10 -1 17 -16 10 -26 27 -97 174 -28 58 -51 111
-51 118 0 24 -41 137 -71 195 -16 31 -27 57 -25 57 2 0 21 -26 40 -57 20 -32
36 -54 36 -51 0 9 -72 141 -80 148 -14 11 -18 38 -7 49 9 9 8 11 -5 6 -15 -6
-27 10 -28 37 0 4 -9 28 -20 54 -20 46 -28 117 -11 98 5 -5 16 -35 26 -67 10
-32 21 -60 26 -63 14 -8 -39 147 -55 161 -14 12 -73 140 -86 186 -11 38 -4 55
16 38 7 -6 11 -15 8 -21 -3 -5 0 -16 7 -24 7 -8 15 -31 18 -51 3 -20 12 -38
20 -41 10 -3 11 2 6 19 -5 13 -8 31 -9 39 -1 8 -7 25 -14 38 -7 12 -10 27 -7
32 6 10 -20 71 -49 115 -11 16 -33 56 -48 88 -16 33 -37 72 -48 87 -11 15 -17
30 -14 33 6 6 -14 49 -28 58 -5 3 -3 13 6 21 8 9 12 18 9 22 -4 3 -1 6 5 6 7
0 12 -3 12 -6z m-1069 -1096 c0 -13 2 -34 3 -48 5 -40 18 -202 19 -244 1 -23
8 -41 16 -44 9 -3 11 1 7 16 -4 11 -8 66 -10 123 -2 57 -7 118 -11 134 -7 27
-6 29 8 15 11 -11 18 -44 22 -115 4 -55 9 -104 12 -108 3 -5 6 -62 7 -127 1
-84 -1 -117 -9 -113 -8 3 -11 -14 -8 -54 2 -51 2 -55 -8 -28 -6 17 -11 38 -11
47 1 10 -3 20 -9 23 -8 6 -5 -75 5 -120 2 -11 5 -51 6 -90 0 -57 3 -66 12 -51
11 20 12 105 2 138 -4 13 -1 16 10 12 11 -4 16 -1 16 10 0 9 5 16 10 16 14 0
12 -27 -2 -33 -10 -4 -10 -8 -1 -14 6 -4 13 -28 14 -51 3 -38 -2 -50 -36 -92
-22 -27 -42 -49 -45 -49 -3 -1 -6 43 -6 97 -3 137 -15 324 -22 318 -6 -7 -3
-163 7 -316 6 -96 4 -119 -8 -139 l-16 -25 -6 39 c-4 21 -4 46 -2 57 3 10 1
18 -5 18 -13 0 -21 -47 -18 -100 3 -34 -2 -52 -23 -81 -26 -39 -48 -52 -37
-23 3 9 6 22 6 30 0 8 7 14 15 14 12 0 15 14 16 68 0 37 3 78 6 92 3 14 6 36
5 50 -4 129 -2 563 2 568 3 3 7 -19 7 -49 1 -30 3 -65 4 -79 2 -14 5 -113 6
-220 2 -107 7 -211 11 -230 4 -19 5 124 3 319 -3 195 -2 351 2 348 3 -4 7 -39
9 -78 4 -116 15 -243 19 -248 3 -2 7 -2 10 1 5 4 -12 370 -19 416 -2 12 1 22
5 22 5 0 9 -10 10 -22z"/>
<path d="M6442 5373 c-42 -8 -65 -88 -42 -148 9 -23 14 -25 42 -20 58 10 126
12 139 5 42 -27 54 55 16 111 -35 53 -77 67 -155 52z"/>
<path d="M5948 5260 c-9 -6 -28 -31 -43 -56 -22 -37 -26 -55 -22 -86 7 -52 21
-67 47 -50 27 16 147 16 153 0 3 -10 9 -10 23 -2 38 22 34 136 -6 180 -20 20
-33 24 -79 24 -31 0 -63 -5 -73 -10z"/>
<path d="M6634 4643 c-12 -2 -41 -25 -65 -50 l-44 -47 2 -85 c1 -67 8 -104 30
-166 25 -70 32 -80 55 -83 19 -2 28 2 33 17 5 17 14 21 48 20 l42 -2 -40 -6
c-26 -4 -36 -9 -27 -14 7 -5 9 -14 5 -20 -5 -9 -3 -9 8 -1 8 7 28 10 44 9 106
-12 146 -8 152 15 3 11 11 20 17 20 18 0 35 -21 29 -36 -3 -10 2 -14 18 -14
45 0 63 26 74 107 6 43 3 59 -19 104 -16 35 -22 57 -16 63 17 17 11 28 -10 21
-12 -4 -20 -2 -20 6 0 6 -16 37 -35 69 -25 41 -45 61 -67 69 -29 10 -169 13
-214 4z m241 -79 c16 -6 45 -54 45 -74 0 -6 -52 -10 -150 -10 l-149 0 6 33
c10 54 16 57 128 57 57 0 111 -3 120 -6z m-314 -56 c1 -7 0 -19 -1 -27 -2 -18
21 -32 35 -21 5 4 30 4 55 0 60 -12 217 -12 257 -1 30 9 35 7 54 -21 29 -40
34 -109 11 -138 -16 -20 -21 -21 -62 -10 -27 7 -94 11 -174 8 l-130 -3 -12 25
c-20 41 -54 153 -54 178 0 23 19 32 21 10z"/>
<path d="M5520 4321 c-26 -13 -44 -37 -70 -87 -29 -58 -39 -69 -57 -66 -27 4
-29 -1 -6 -23 14 -15 15 -20 3 -39 -52 -82 -60 -105 -49 -154 17 -80 50 -137
81 -140 20 -2 28 2 33 18 6 20 12 22 69 16 33 -3 105 -7 159 -8 84 -2 100 -6
109 -21 14 -27 62 -19 66 11 2 12 9 22 15 22 8 0 7 4 -2 9 -19 12 -7 39 21 44
l23 4 -22 2 c-31 1 -29 17 5 35 15 8 22 15 15 16 -9 0 -8 7 2 27 9 17 11 31 5
37 -5 5 -6 37 -3 70 5 61 5 63 -46 142 -29 45 -62 86 -76 92 -15 7 -73 12
-133 12 -86 0 -114 -4 -142 -19z m267 -92 c7 -15 16 -41 19 -58 l7 -31 -154 0
c-190 0 -203 3 -195 41 3 16 13 40 22 54 17 26 17 26 153 23 l136 -3 12 -26z
m103 -116 c0 -14 -9 -40 -19 -57 -11 -17 -22 -52 -26 -77 -4 -25 -10 -52 -15
-59 -10 -16 -84 -27 -233 -34 -103 -4 -106 -4 -42 5 39 6 85 11 103 11 19 1
29 5 24 10 -5 5 -55 4 -118 -3 -108 -11 -160 -13 -174 -4 -11 7 -42 76 -37 81
3 3 20 -4 38 -15 35 -21 59 -27 59 -13 0 4 -20 15 -45 25 -46 19 -55 36 -32
56 8 6 22 29 32 52 18 40 20 41 59 35 96 -13 236 -17 296 -8 36 5 66 9 67 8 2
-1 -1 -32 -5 -69 -5 -37 -5 -67 -2 -67 9 0 31 130 24 141 -5 8 26 18 39 12 4
-2 7 -16 7 -30z"/>
<path d="M8404 7949 c-2 -3 33 -9 77 -12 44 -3 83 -8 87 -11 3 -4 -39 -52 -94
-109 -55 -56 -114 -119 -132 -140 -21 -25 -38 -37 -48 -33 -14 5 -15 -63 -10
-615 l5 -622 -35 -30 c-19 -17 -34 -36 -34 -42 0 -17 34 -45 54 -45 23 0 40
-42 32 -82 -5 -28 -14 -38 -51 -56 -57 -28 -64 -45 -36 -94 l22 -38 -37 -33
c-21 -17 -50 -40 -66 -49 -30 -19 -37 -54 -15 -77 10 -10 8 -14 -6 -22 -10 -6
-22 -22 -27 -35 -6 -16 -17 -24 -33 -24 -34 0 -77 -37 -77 -65 0 -16 13 -34
35 -52 19 -15 35 -34 35 -41 0 -7 -16 -34 -35 -59 -19 -25 -35 -52 -35 -60 0
-17 32 -48 90 -86 38 -26 42 -31 36 -60 -5 -26 -1 -36 26 -64 36 -37 48 -40
83 -17 31 20 59 11 52 -16 -3 -11 -1 -23 4 -26 5 -3 9 -18 9 -33 0 -16 7 -34
15 -41 36 -30 8 -120 -38 -120 -8 0 -19 -10 -23 -22 -4 -13 -23 -42 -42 -66
-31 -38 -34 -46 -24 -63 11 -17 9 -25 -9 -51 -23 -32 -20 -51 13 -72 12 -7 21
-6 32 3 25 21 20 39 -9 33 -30 -5 -33 13 -5 28 14 7 20 7 20 0 0 -5 5 -10 10
-10 16 0 12 15 -10 40 -25 29 -25 28 9 81 32 50 78 95 87 86 10 -10 4 -241 -7
-252 -9 -9 -23 3 -32 30 -2 6 -11 4 -21 -4 -15 -13 -15 -15 1 -34 10 -10 28
-23 40 -28 l23 -8 -6 -793 c-3 -436 -10 -800 -15 -809 -4 -9 -6 -18 -4 -21 3
-2 7 -71 10 -151 l4 -147 -29 0 c-17 0 -30 -4 -30 -10 0 -5 17 -10 37 -10 51
0 30 -18 -27 -23 l-45 -4 53 -1 c33 -1 52 -6 53 -14 1 -7 2 -20 3 -28 2 -8 3
-27 4 -42 1 -16 7 -28 13 -28 8 0 10 17 6 53 -3 30 -2 58 1 63 4 5 99 9 212
10 113 0 354 1 535 2 182 1 386 0 455 -3 69 -3 206 -7 305 -9 l180 -5 -145 12
c-209 18 -139 28 176 26 245 -1 655 8 662 16 2 2 1 8 -3 14 -3 6 -39 11 -82
11 -116 0 -83 7 62 12 72 3 122 4 113 1 -10 -2 -18 -10 -18 -16 0 -8 -3 -8
-11 0 -6 6 -19 8 -30 6 -15 -4 -17 -8 -8 -19 11 -14 53 -10 75 7 5 4 21 6 35
2 23 -5 24 -5 4 10 -19 16 -18 16 25 17 25 1 58 3 75 5 16 2 36 -1 44 -8 11
-9 15 -9 18 1 3 6 19 12 36 12 28 1 30 2 14 11 -11 6 -32 9 -47 6 -36 -8 -47
4 -19 19 19 10 12 12 -52 19 -41 5 -81 9 -89 10 -26 2 -70 17 -70 24 0 3 62 5
137 4 100 -1 126 1 95 7 -35 8 -121 16 -181 19 -8 1 -11 4 -7 8 7 7 14 8 136
11 52 2 70 5 59 12 -9 5 -105 10 -213 12 -126 1 -193 5 -186 12 12 12 180 35
186 25 2 -4 -6 -10 -18 -13 -32 -7 188 4 237 12 34 5 23 8 -80 23 -65 10 -150
16 -187 14 -37 -1 -68 1 -68 5 0 5 13 18 30 30 82 59 206 260 268 435 36 104
82 259 86 290 2 17 8 48 14 70 6 22 20 92 32 155 11 63 26 131 32 150 35 108
3 461 -69 748 -9 37 -19 69 -22 72 -10 9 -71 128 -71 139 0 21 -126 188 -192
254 -37 37 -68 70 -68 72 0 3 20 31 43 62 46 61 71 106 107 188 12 28 26 58
32 69 5 10 11 26 13 35 2 9 15 59 28 111 14 52 32 165 41 250 17 152 24 209
32 260 2 14 4 84 4 155 1 102 -4 145 -20 200 -24 83 -24 79 -5 71 21 -8 19 10
-5 34 -11 11 -19 28 -19 38 1 15 2 15 6 0 2 -9 11 -19 19 -22 12 -5 12 -1 -1
24 -9 17 -20 30 -25 30 -5 0 -9 8 -9 18 0 30 -51 186 -69 212 -32 44 -37 54
-22 45 18 -11 -21 54 -77 128 -23 31 -40 57 -38 57 3 0 24 -9 45 -20 66 -34
45 -14 -32 31 -40 23 -97 66 -125 96 -55 56 -96 82 -251 159 -51 25 -92 48
-90 50 5 5 121 -38 176 -66 24 -12 46 -19 49 -16 6 5 -63 41 -121 63 -66 25
-447 124 -491 128 -22 2 -62 9 -90 15 -28 7 -162 14 -300 17 -387 7 -1136 9
-1141 2z m340 -34 c50 -3 253 -8 451 -11 198 -3 383 -7 410 -9 28 -2 88 -5
134 -6 65 -2 88 -6 102 -20 10 -10 19 -14 21 -8 2 5 15 6 35 0 18 -5 35 -6 38
-1 6 10 65 -8 65 -19 0 -4 17 -8 38 -9 51 -2 254 -63 335 -100 37 -17 100 -54
140 -81 84 -56 238 -214 273 -281 14 -25 38 -66 54 -91 46 -70 120 -292 120
-356 0 -13 -3 -13 -15 -3 -9 7 -14 19 -11 27 4 8 1 11 -5 7 -8 -4 -9 1 -4 16
5 15 4 20 -3 16 -7 -4 -15 9 -22 33 -5 21 -18 45 -27 52 -15 12 -16 12 -11 -2
6 -16 41 -125 58 -181 5 -16 5 -28 2 -28 -4 0 -15 24 -24 53 -9 28 -31 88 -48
132 -18 44 -32 88 -32 97 1 10 -4 17 -11 15 -6 -1 -11 5 -12 13 0 21 -159 170
-225 212 -134 84 -325 176 -338 163 -2 -2 51 -31 119 -63 80 -39 146 -78 184
-112 33 -28 76 -60 95 -70 39 -20 102 -82 99 -96 -3 -14 18 -61 31 -69 14 -9
102 -187 117 -239 19 -62 7 -55 -25 15 -54 120 -159 274 -233 343 -187 173
-469 324 -694 370 -63 13 -338 34 -375 28 -23 -3 -1089 -25 -1142 -23 -27 1
-48 -2 -48 -7 0 -15 64 -23 120 -16 27 4 50 3 50 -2 0 -5 226 -8 528 -6 440 3
555 1 697 -13 94 -10 188 -23 210 -30 22 -8 69 -21 105 -30 138 -34 279 -101
400 -191 133 -97 207 -182 272 -310 58 -115 131 -315 148 -405 6 -30 13 -65
15 -79 13 -60 6 -418 -9 -515 -20 -118 -33 -172 -46 -180 -10 -6 -140 82 -140
95 0 4 7 24 15 44 8 20 15 37 14 38 0 2 6 16 15 32 24 47 -9 86 -73 86 -38 0
-46 13 -22 34 14 13 17 26 14 59 -3 26 1 62 11 91 21 61 11 80 -57 112 -61 28
-76 29 -103 9 -27 -21 -48 -18 -59 8 -6 12 -20 23 -32 25 -15 2 -23 10 -23 23
0 16 -4 19 -21 14 -46 -15 -67 -13 -62 6 4 14 11 17 29 13 26 -7 31 5 12 24
-13 13 -12 15 32 42 11 6 12 12 4 20 -8 8 -18 5 -37 -10 -15 -12 -31 -19 -37
-15 -5 3 -28 -11 -51 -32 -126 -115 -183 -172 -178 -177 3 -4 27 5 52 19 26
13 47 20 47 14 0 -5 -7 -12 -15 -15 -8 -4 -15 -10 -15 -15 0 -5 21 3 46 16 52
28 64 31 46 13 -17 -17 -15 -29 3 -22 11 5 14 2 8 -12 -6 -18 -6 -18 14 -1 21
18 33 22 33 9 0 -8 -52 -42 -65 -42 -3 0 -3 6 1 13 6 9 3 8 -8 -1 -9 -8 -14
-20 -11 -28 4 -11 9 -12 18 -4 9 8 15 7 18 -2 4 -9 17 -1 39 24 l33 36 28 -20
c20 -14 26 -26 22 -39 -5 -14 -1 -19 10 -19 14 0 16 6 10 28 -3 15 -10 28 -15
30 -5 2 -24 16 -42 32 -39 35 -44 36 -57 13 -5 -10 -13 -15 -17 -10 -4 4 0 15
8 24 32 38 34 49 4 30 -35 -24 -47 -14 -15 12 25 21 75 29 64 11 -3 -5 -1 -10
5 -10 6 0 8 -5 5 -11 -4 -6 2 -13 14 -16 12 -3 21 -10 21 -15 0 -6 11 -7 27
-3 23 5 25 4 14 -9 -11 -13 -7 -14 28 -11 22 2 49 9 61 15 16 9 33 9 70 0 80
-19 107 -61 62 -97 -9 -7 -12 -21 -9 -34 7 -27 -21 -87 -44 -94 -10 -3 -16
-12 -13 -19 3 -7 -14 -22 -38 -36 -24 -13 -49 -30 -56 -37 -9 -8 -17 -9 -25
-3 -90 73 -102 74 -38 4 l40 -42 23 20 c44 38 100 61 120 49 10 -6 32 -11 49
-11 16 0 39 -5 50 -10 26 -14 24 -49 -3 -60 -20 -7 -20 -9 -4 -9 15 -1 16 -4
6 -16 -7 -9 -10 -18 -6 -22 3 -3 -5 -21 -19 -39 l-26 -33 41 -26 c38 -24 52
-45 30 -45 -17 0 -84 -72 -124 -133 -21 -31 -42 -60 -47 -63 -13 -8 -11 -24 4
-24 6 1 21 8 32 18 23 19 75 94 75 107 0 17 72 95 88 95 9 0 26 -7 36 -15 16
-12 17 -17 5 -32 -13 -17 -12 -17 8 0 32 27 35 7 8 -49 -14 -27 -25 -55 -25
-61 0 -16 -22 -17 -37 -2 -8 8 -14 6 -22 -10 -10 -18 -8 -21 14 -27 32 -8 31
-14 -2 -52 -16 -17 -33 -36 -39 -44 -6 -7 -21 -20 -32 -29 -11 -9 -22 -23 -24
-30 -5 -14 -14 -11 -73 26 -58 37 -64 39 -80 25 -8 -6 -19 -9 -24 -6 -5 4 -12
2 -16 -4 -3 -5 -13 -10 -21 -10 -16 0 -14 43 5 78 6 12 9 22 6 22 -4 0 9 21
28 48 52 72 117 186 117 206 0 26 -17 10 -23 -23 -6 -31 -42 -71 -63 -71 -17
0 -27 31 -14 44 17 17 11 30 -7 15 -15 -13 -15 -12 -5 7 6 11 18 26 26 34 9 7
16 17 16 23 0 6 -19 -7 -42 -30 -32 -30 -50 -41 -70 -40 -33 2 -33 1 -11 34
l18 27 -33 -19 c-40 -24 -102 -82 -102 -96 0 -13 21 0 38 23 7 10 18 18 24 18
7 0 2 -9 -10 -20 -12 -12 -22 -26 -22 -32 0 -7 15 2 33 19 17 16 41 33 52 37
13 4 5 -8 -22 -34 -23 -22 -43 -46 -46 -52 -3 -9 -9 -10 -19 -3 -74 50 -100
66 -104 63 -6 -7 44 -56 76 -74 24 -15 30 -25 30 -51 0 -26 6 -36 31 -48 28
-15 29 -17 13 -29 -20 -15 -26 -55 -11 -74 7 -9 5 -18 -7 -30 -9 -10 -16 -26
-16 -34 0 -9 -22 -30 -50 -48 -27 -17 -67 -50 -90 -72 -29 -30 -44 -38 -57
-32 -10 4 -40 8 -68 10 -64 3 -63 2 -45 15 12 8 10 9 -7 4 -21 -6 -28 1 -25
26 1 4 -9 5 -21 2 -18 -4 -16 1 13 27 l35 31 -35 -21 c-34 -20 -70 -27 -70
-13 0 3 8 15 18 26 16 19 16 20 -5 8 -29 -15 -33 -14 -26 7 6 15 5 15 -15 -2
-19 -16 -24 -17 -52 -5 -16 8 -29 18 -26 24 2 5 6 21 10 35 l7 25 -18 -22
c-15 -18 -93 -50 -93 -38 0 3 12 17 28 33 25 26 57 82 47 82 -2 0 -12 -15 -21
-32 -16 -30 -18 -31 -25 -13 -6 16 -8 17 -8 3 -1 -9 -5 -19 -10 -22 -5 -4 -7
4 -4 16 l5 23 -16 -22 c-9 -12 -13 -30 -10 -40 4 -13 3 -14 -4 -5 -7 11 -11 8
-16 -10 -5 -18 -8 -20 -15 -9 -8 13 -12 13 -27 1 -15 -13 -16 -11 -13 28 5 42
-5 57 -15 25 -3 -10 -4 -5 -2 10 4 32 -8 25 -19 -10 -4 -15 -2 -23 5 -23 6 0
8 -5 4 -11 -4 -8 -12 -3 -20 12 -10 18 -13 20 -14 7 0 -9 -5 -20 -12 -24 -8
-5 -10 10 -5 57 5 62 5 63 -8 29 -7 -19 -14 -48 -14 -64 -1 -24 -3 -27 -16
-16 -12 10 -15 10 -15 -3 0 -10 -6 -13 -20 -10 -17 5 -20 14 -21 62 -1 31 -3
47 -6 36 -2 -11 -6 -30 -9 -42 -4 -23 -25 -26 -53 -9 -9 6 -10 10 -2 16 7 3
14 27 17 51 3 32 2 40 -6 29 -5 -8 -10 -24 -10 -36 0 -34 -22 -53 -47 -43 -13
4 -23 16 -23 26 0 15 -2 15 -9 4 -7 -12 -13 -12 -24 -3 -7 7 -17 9 -20 5 -4
-3 -14 0 -23 8 -15 12 -17 12 -13 -1 3 -8 27 -27 55 -41 27 -14 51 -33 52 -43
8 -41 -41 -107 -68 -91 -6 3 -10 0 -10 -8 0 -8 -9 -14 -22 -13 -20 1 -23 7
-26 44 -2 23 -6 42 -10 42 -4 0 -17 -22 -28 -49 -12 -27 -31 -54 -42 -60 -18
-10 -20 -8 -17 15 3 29 -12 19 -17 -11 -3 -23 -29 -46 -41 -38 -4 3 -4 10 1
16 5 7 12 25 16 40 7 28 7 28 -19 11 -14 -9 -33 -28 -44 -42 -18 -25 -19 -26
-46 -8 -37 24 -43 13 -12 -23 16 -19 23 -38 20 -51 -5 -20 -103 -97 -103 -81
0 6 -12 9 -27 8 -18 -1 -27 3 -25 11 5 28 -16 9 -30 -28 -12 -28 -13 -40 -4
-45 8 -4 8 -7 -1 -11 -7 -3 -13 -11 -13 -17 0 -7 -11 -24 -25 -39 -18 -20 -21
-27 -10 -32 16 -6 27 7 44 51 10 24 23 35 57 46 24 8 44 11 44 8 0 -5 -42 -60
-90 -118 -20 -24 6 -13 30 12 27 29 36 26 20 -7 -11 -22 -10 -22 9 2 12 14 24
30 28 35 5 6 17 22 28 35 17 20 18 23 3 17 -10 -4 -18 -2 -18 3 0 6 4 10 10
10 5 0 19 10 31 23 12 12 18 16 14 8 -6 -11 -4 -13 8 -8 10 3 17 2 17 -3 0 -6
-5 -10 -11 -10 -5 0 -7 -5 -4 -10 4 -6 -8 -28 -27 -49 -33 -38 -93 -111 -114
-139 -10 -13 -17 -12 -56 6 -24 12 -58 24 -75 25 -45 6 -55 16 -49 46 6 25 6
25 -9 7 -18 -24 -19 -38 -2 -55 10 -10 7 -16 -13 -29 -13 -10 -36 -29 -51 -44
-16 -14 -45 -29 -67 -33 -26 -4 -51 -18 -73 -41 -18 -19 -37 -34 -41 -34 -12
0 -10 218 2 261 6 20 19 44 31 55 17 16 22 16 29 4 14 -22 12 -27 -12 -50 -21
-19 -21 -20 -3 -13 65 26 117 74 70 65 -16 -3 -27 2 -34 16 -13 25 -8 141 8
171 14 25 0 28 -24 5 -9 -9 -19 -14 -22 -10 -6 6 2 19 50 79 16 20 29 42 31
49 1 7 12 30 25 51 13 21 21 40 19 42 -2 3 -17 -16 -33 -40 -15 -25 -32 -45
-36 -45 -5 0 -6 -7 -3 -15 4 -9 0 -15 -9 -15 -8 0 -23 -12 -32 -27 -16 -24
-16 -26 -1 -20 11 4 15 3 11 -4 -4 -6 -13 -8 -20 -5 -28 10 -40 -37 -13 -55
11 -8 19 -51 8 -44 -5 3 -14 -4 -20 -15 -20 -37 -28 -21 -24 48 2 37 4 76 4
87 1 11 11 38 24 60 13 22 25 45 26 50 1 6 9 18 17 28 27 29 -2 19 -31 -12
-17 -17 -23 -30 -16 -33 8 -2 5 -12 -8 -28 l-21 -25 0 90 c-1 50 -3 165 -6
257 -5 136 -3 173 9 203 15 35 57 96 98 140 24 27 92 116 102 135 5 8 -16 -12
-47 -45 -83 -91 -76 -62 10 40 84 101 90 105 112 98 13 -5 13 -3 4 7 -22 24
-61 1 -121 -73 -81 -98 -87 -103 -108 -82 -16 15 -16 18 2 33 17 16 17 16 5 0
-8 -10 -9 -18 -3 -18 5 0 22 17 38 38 15 20 42 51 59 69 18 17 41 55 53 83 19
47 20 51 4 48 -9 -2 -16 -10 -14 -16 4 -23 -31 -77 -85 -130 -29 -29 -53 -48
-53 -43 0 5 6 16 13 23 16 17 47 65 47 74 0 4 -10 -2 -22 -13 -23 -22 -38 -26
-73 -24 -16 1 -14 6 15 31 35 30 31 42 -4 15 -11 -8 -25 -15 -30 -15 -15 0
-11 139 3 153 8 8 7 15 -3 26 -11 13 -15 107 -20 476 -4 253 -9 494 -12 535
l-6 75 131 131 c72 73 131 139 131 148 0 24 39 59 58 51 8 -3 56 -8 106 -10z
m-433 -2197 c1 -345 0 -359 -14 -377 -9 -12 -9 -13 1 -7 6 4 12 3 12 -3 0 -20
-18 -20 -35 -1 -10 11 -23 17 -29 13 -6 -3 -1 5 10 18 21 23 44 62 44 73 0 19
-23 1 -37 -29 -9 -19 -20 -35 -25 -35 -4 0 -8 -6 -8 -13 0 -17 -37 -57 -53
-57 -7 0 -21 7 -31 15 -19 15 -19 15 2 45 12 16 22 31 22 33 0 1 24 28 54 59
55 56 84 98 68 98 -4 0 -32 -29 -62 -65 -30 -36 -55 -65 -57 -65 -6 0 29 64
45 83 9 10 11 17 4 17 -7 0 -22 -17 -36 -38 -27 -43 -54 -68 -63 -58 -4 3 3
13 15 22 12 8 22 21 22 28 0 15 52 66 67 66 7 0 14 4 17 9 3 5 -2 8 -11 7 -10
0 -35 -21 -56 -46 -22 -25 -43 -49 -47 -53 -6 -7 -32 0 -87 26 -13 6 -23 18
-23 26 0 21 71 110 89 111 7 0 -1 12 -18 27 -17 15 -31 32 -31 39 0 6 -10 10
-22 10 -14 -1 -24 6 -26 16 -4 19 53 48 95 48 18 0 24 4 19 15 -3 8 -2 14 2
14 4 -1 14 -1 22 0 12 1 12 4 -2 12 -22 13 -24 33 -2 25 28 -11 33 3 14 42
-19 38 -13 62 16 62 8 0 24 10 35 21 20 20 57 36 87 38 10 1 13 -58 13 -271z
m2224 -178 c-3 -5 0 -10 7 -10 8 0 20 -9 28 -20 8 -11 22 -20 32 -20 21 0 23
-11 6 -28 -14 -14 -48 -16 -48 -3 0 16 -41 24 -54 11 -8 -8 -7 -10 4 -6 8 3
26 -3 40 -13 l24 -19 -29 -14 c-16 -7 -43 -26 -60 -41 -16 -16 -45 -36 -64
-46 l-33 -18 44 -36 c25 -21 48 -37 52 -37 29 0 206 -161 206 -187 0 -14 -13
-17 -24 -6 -13 13 -41 12 -57 -3 -14 -13 -22 -13 -39 -4 -26 14 -75 -2 -84
-27 -5 -11 -2 -13 11 -8 20 8 27 9 62 7 21 -2 23 -6 17 -34 -3 -18 -7 -43 -9
-55 -2 -12 -23 -41 -45 -65 -23 -24 -42 -51 -42 -60 0 -23 -30 -50 -48 -43 -8
3 -21 0 -28 -6 -11 -9 -15 -7 -20 5 -11 29 4 62 54 114 59 64 78 68 28 7 -21
-25 -32 -45 -26 -45 8 0 8 -6 0 -21 -16 -29 -5 -35 16 -10 19 22 28 55 13 45
-5 -3 -9 -1 -9 4 0 15 46 53 55 45 4 -5 5 -2 1 4 -4 7 0 23 8 35 26 37 18 42
-21 12 -66 -50 -75 -58 -99 -96 -23 -36 -52 -53 -41 -24 4 10 0 12 -16 8 -26
-7 -48 -32 -42 -49 2 -7 0 -15 -6 -18 -15 -10 -22 21 -9 44 6 12 7 21 1 21 -5
0 -12 -11 -15 -25 -4 -14 -11 -25 -16 -25 -13 0 -13 17 0 25 6 4 8 10 6 14 -4
7 6 17 74 70 14 10 22 23 18 27 -11 10 -95 -62 -104 -88 -9 -30 -25 -44 -50
-44 -15 0 -20 5 -16 16 5 13 3 13 -10 2 -22 -17 -29 -82 -9 -74 9 3 12 1 8 -5
-4 -6 -1 -13 5 -16 10 -3 10 -9 2 -23 -13 -23 -96 -41 -125 -28 -19 9 -17 13
29 66 27 31 60 71 72 89 13 19 45 54 70 79 26 25 50 56 54 68 4 12 11 22 15
22 4 0 18 15 31 33 13 17 16 26 7 19 -14 -12 -19 -12 -33 2 -13 13 -19 14 -30
5 -8 -7 -17 -10 -20 -7 -10 11 16 55 75 128 33 41 61 80 60 85 0 12 -52 -46
-87 -100 -34 -50 -71 -90 -77 -83 -3 3 5 18 17 34 l22 29 -27 -24 c-15 -14
-27 -29 -28 -35 0 -6 -14 -22 -32 -36 -24 -19 -29 -21 -24 -7 8 22 -9 22 -22
0 -6 -10 -11 -14 -11 -9 0 5 -9 1 -20 -9 -27 -24 -27 1 0 35 41 53 18 49 -26
-4 -63 -76 -83 -73 -49 8 l16 37 -25 -16 c-14 -9 -35 -31 -46 -48 -19 -28 -20
-29 -14 -7 3 14 12 32 18 40 10 13 9 13 -6 1 -10 -7 -18 -19 -18 -26 0 -6 -9
-20 -20 -30 -17 -16 -21 -16 -35 -2 -9 10 -11 18 -5 22 16 10 12 28 -5 21 -17
-6 -21 9 -4 19 6 4 17 -1 25 -11 13 -18 15 -18 35 6 12 14 16 26 10 28 -6 2
-8 9 -4 15 3 7 -3 3 -15 -7 -19 -16 -22 -17 -22 -3 0 9 5 19 10 22 6 3 10 11
10 17 0 6 -9 3 -20 -7 -11 -10 -20 -13 -20 -8 0 10 28 37 108 104 24 20 40 25
74 23 23 -1 50 -5 59 -8 9 -4 21 0 29 9 14 17 0 21 -17 4 -21 -21 -11 33 13
71 14 24 43 46 90 70 38 19 86 48 107 64 33 25 36 31 22 38 -25 15 0 38 41 38
19 0 34 4 34 9 0 9 26 16 73 20 10 0 15 -3 12 -9z m377 -298 c68 -120 116
-223 124 -266 5 -29 4 -37 -5 -32 -7 5 -10 13 -8 19 2 7 -7 28 -20 47 -12 19
-23 40 -23 46 0 11 -59 122 -95 179 -28 44 -143 183 -158 189 -9 5 -9 7 1 12
6 3 10 11 6 17 -3 7 26 -21 64 -61 39 -39 90 -107 114 -150z m-1407 98 c-3 -5
0 -10 9 -10 11 0 7 -13 -15 -52 -16 -29 -32 -74 -35 -100 -5 -35 -11 -48 -23
-48 -10 0 -16 -9 -17 -22 0 -13 -4 -32 -9 -43 -8 -18 -6 -18 17 3 31 28 39 28
70 -5 24 -26 25 -30 12 -61 -12 -28 -46 -52 -73 -52 -11 0 -52 76 -45 83 4 3
-1 13 -10 22 -22 22 -20 37 6 65 12 13 23 29 24 34 3 15 41 95 64 133 11 18
17 40 14 48 -4 8 -1 15 6 15 6 0 8 -4 5 -10z m153 -152 c-2 -31 -1 -55 4 -52
4 3 8 12 8 19 0 8 16 30 35 49 19 20 28 33 20 30 -12 -5 -13 -1 -4 25 6 17 15
34 21 37 6 4 5 -2 -1 -14 -17 -31 -14 -34 16 -15 26 17 26 17 -10 -48 -20 -36
-34 -69 -30 -72 3 -4 1 -7 -6 -7 -7 0 -10 -4 -7 -9 4 -5 3 -11 -1 -13 -13 -5
-43 -77 -43 -101 0 -12 -6 -31 -14 -42 -7 -11 -19 -47 -26 -80 -8 -33 -17 -65
-23 -72 -5 -7 -6 -16 -3 -22 3 -5 2 -11 -4 -13 -8 -3 -24 -126 -23 -183 1
-118 4 -155 11 -151 5 3 9 -12 8 -32 0 -120 14 -545 20 -584 4 -27 10 -48 15
-48 5 0 6 6 3 14 -3 8 -1 17 5 21 7 4 11 -7 11 -30 0 -20 4 -45 10 -55 7 -13
6 -21 -4 -29 -16 -13 -13 -64 8 -136 8 -27 24 -82 36 -122 11 -40 25 -75 30
-78 6 -3 10 -14 10 -22 0 -9 19 -34 43 -55 40 -37 44 -39 100 -34 51 4 65 0
122 -30 35 -19 65 -34 67 -34 2 0 4 8 4 18 0 10 -5 19 -11 19 -13 0 -68 38
-100 67 -20 20 -20 20 8 2 15 -9 32 -14 37 -11 5 3 11 1 14 -4 9 -14 85 -51
105 -51 10 0 21 -6 24 -14 4 -9 14 -12 28 -9 22 6 22 7 3 14 -11 4 -31 16 -44
27 -14 12 -38 31 -53 44 l-28 23 33 -1 c18 -1 44 -2 58 -3 23 -2 24 -3 5 -11
-11 -5 -15 -9 -10 -10 6 -1 21 -4 35 -6 14 -2 56 -7 93 -9 38 -3 87 -12 110
-19 82 -27 238 -43 218 -23 -6 6 -30 12 -53 14 -123 10 -201 34 -180 55 6 6
22 6 43 1 41 -11 119 -5 119 9 0 6 -14 8 -32 5 -18 -2 -43 -1 -54 4 -12 4 -46
4 -75 1 -30 -4 -65 -6 -79 -4 -23 4 -23 5 10 19 19 8 29 17 22 20 -7 3 -29 -5
-49 -17 -20 -11 -43 -18 -51 -15 -12 5 -11 10 8 30 30 32 20 32 -36 -1 -49
-29 -56 -19 -23 28 31 43 13 48 -22 5 -17 -20 -34 -37 -38 -37 -4 0 -6 16 -5
35 2 26 -1 35 -13 35 -10 0 -14 -6 -10 -20 3 -11 0 -21 -6 -21 -7 -1 -23 -3
-37 -6 -104 -17 -160 37 -232 221 -20 51 -21 60 -8 64 8 2 43 33 77 68 88 91
126 181 145 339 13 112 13 127 5 195 -4 30 -10 75 -13 100 -9 76 -62 213 -105
269 l-40 52 28 34 c15 18 41 49 56 69 17 21 34 33 42 29 12 -4 10 -11 -8 -33
-12 -15 -24 -27 -27 -26 -9 2 -52 -46 -46 -51 8 -9 106 -9 106 -1 0 3 -5 8
-12 10 -7 3 10 20 38 39 31 21 49 39 46 48 -3 9 0 12 11 8 9 -3 24 4 38 19 12
13 17 24 11 24 -6 0 -14 -5 -17 -10 -4 -7 -13 -7 -26 0 -21 12 -39 6 -39 -13
0 -7 4 -6 10 3 5 8 12 11 16 7 11 -11 -16 -36 -34 -30 -10 3 -13 1 -7 -4 16
-13 16 -33 0 -27 -8 4 -15 1 -15 -5 0 -6 -5 -11 -11 -11 -5 0 -7 6 -3 13 6 10
4 10 -7 0 -7 -7 -18 -13 -23 -13 -6 0 8 19 29 42 22 23 32 36 22 29 -9 -8 -20
-11 -23 -8 -3 3 13 15 37 27 23 12 49 29 57 37 8 8 21 12 30 8 8 -3 20 3 27
12 8 10 17 14 21 10 5 -4 2 -12 -6 -17 -8 -6 -10 -10 -4 -10 6 0 31 23 56 50
25 28 48 50 51 50 4 0 -3 -17 -15 -37 -21 -36 -56 -76 -175 -200 -29 -30 -53
-59 -53 -63 0 -5 -16 -21 -35 -36 -40 -30 -38 -41 7 -44 124 -5 184 5 205 37
15 22 15 27 0 59 -18 38 -7 45 27 19 26 -20 45 -19 69 2 18 17 19 17 28 0 18
-30 45 -39 92 -27 46 13 76 43 77 76 0 15 8 24 25 28 14 4 29 14 32 24 4 9 15
29 26 43 15 21 17 31 8 47 -12 23 -2 61 20 78 28 21 92 34 106 22 32 -26 137
-184 169 -253 51 -109 125 -376 124 -443 -1 -37 -21 20 -37 101 -15 80 -32
131 -33 97 0 -8 16 -96 35 -195 46 -236 47 -321 5 -535 -4 -25 -15 -82 -24
-127 -8 -45 -26 -103 -40 -128 -15 -25 -26 -52 -26 -60 0 -8 -4 -15 -9 -15 -6
0 -25 -30 -43 -67 -57 -116 -186 -268 -245 -288 -18 -6 -49 -26 -70 -43 -91
-77 -108 -86 -256 -134 -245 -79 -482 -109 -840 -109 -120 0 -221 2 -225 5 -6
3 -401 17 -595 20 -43 1 -81 -2 -83 -6 -3 -5 21 -8 53 -9 32 0 67 -4 78 -9 12
-5 -49 -9 -157 -9 l-176 -1 4 38 c10 96 16 871 10 1262 -2 125 1 163 15 154 5
-3 9 0 9 5 0 6 -7 11 -15 11 -21 0 -19 20 3 21 14 1 14 2 1 6 -11 3 -15 16
-15 53 1 28 3 50 6 50 3 0 3 74 2 165 -3 139 -2 165 10 165 8 0 23 9 34 21 10
11 27 25 36 30 26 14 23 -6 -4 -31 -12 -11 -18 -20 -13 -20 5 0 17 8 27 17 18
16 20 15 41 -5 l21 -22 -31 -27 c-21 -18 -34 -41 -38 -64 -6 -31 -3 -39 20
-58 15 -11 34 -21 41 -21 14 0 19 -17 15 -57 -1 -14 6 -24 19 -28 11 -3 20
-10 20 -15 0 -22 33 -15 77 16 26 19 53 34 60 34 7 0 27 13 46 29 18 17 40 29
48 27 8 -2 31 -6 52 -11 47 -9 93 8 112 44 11 20 14 22 15 8 0 -15 3 -16 20
-7 23 12 25 7 10 -21 -6 -10 -18 -19 -26 -19 -9 0 -14 -5 -12 -12 8 -24 30
-19 62 16 22 24 41 36 59 36 16 0 27 6 27 13 0 8 10 19 23 26 47 25 68 38 87
56 18 17 22 17 36 4 12 -13 15 -54 13 -265 -2 -258 0 -565 4 -764 l2 -115 33
-3 c17 -2 32 -7 32 -12 0 -13 -85 -124 -126 -164 -22 -21 -52 -45 -69 -53 -16
-9 -54 -33 -85 -53 -30 -21 -70 -41 -87 -45 -18 -3 -33 -11 -33 -16 0 -12 -2
-12 61 10 112 39 224 112 290 186 97 111 116 159 153 387 30 179 35 260 18
266 -7 2 -12 8 -12 13 0 6 5 7 11 3 9 -5 10 10 4 57 -4 35 -9 89 -11 119 -2
30 -7 66 -10 80 -3 14 -8 43 -10 64 -9 71 -94 254 -150 323 -26 31 -81 68
-214 144 -99 56 -178 104 -176 106 2 3 15 -1 28 -8 22 -12 22 -11 8 6 -10 13
6 8 50 -16 36 -20 95 -46 131 -58 67 -22 121 -61 207 -150 53 -56 55 -38 2 24
-22 25 -40 49 -40 53 0 4 -13 21 -29 38 -21 23 -28 38 -25 55 5 21 4 22 -8 8
-20 -25 -53 -32 -67 -15 -14 16 -10 23 39 74 14 14 18 21 10 17 -13 -8 -13 -7
-1 8 10 13 17 15 27 6 8 -6 14 -17 14 -24 0 -18 88 -202 100 -210 5 -3 10 -3
10 2 0 15 -31 97 -55 148 -13 28 -26 64 -30 80 -11 50 -28 88 -52 121 -13 17
-23 34 -23 37 0 3 -18 24 -41 47 -22 22 -37 40 -32 41 4 1 -3 4 -16 8 -14 4
-27 13 -29 21 -5 13 -3 13 11 2 9 -8 20 -11 24 -9 9 6 115 -99 170 -168 l32
-40 -16 35 c-9 19 -24 47 -35 62 -23 33 -23 41 2 33 16 -5 19 -3 13 11 -4 12
-3 15 6 10 7 -5 11 -17 8 -27 -3 -11 -1 -17 3 -14 10 6 32 -30 37 -58 2 -10
-1 -16 -6 -12 -5 3 -3 -8 5 -25 9 -16 19 -32 25 -35 5 -4 9 -14 9 -23 0 -23
64 -145 104 -202 43 -59 49 -70 39 -70 -11 0 -80 90 -85 109 -2 8 -9 22 -15
30 -48 61 -45 58 -37 32 14 -52 35 -91 71 -135 21 -24 46 -55 55 -68 l17 -23
1 23 c0 14 4 21 11 16 8 -4 9 3 5 24 -5 20 -2 34 8 45 23 23 21 29 -29 71 -43
37 -59 63 -32 53 53 -20 54 -19 77 27 11 25 22 55 24 68 1 13 10 37 18 53 9
17 22 60 28 95 7 36 16 73 21 82 5 10 9 28 10 40 1 14 5 8 11 -17 5 -22 8 -66
6 -97z m365 116 c3 -4 -1 -16 -9 -28 -8 -13 -11 -26 -7 -31 5 -4 3 -5 -4 -1
-7 3 -27 -13 -49 -39 -35 -44 -87 -84 -68 -54 4 7 -9 0 -30 -16 -20 -15 -34
-30 -32 -32 3 -3 -4 -21 -15 -40 -11 -20 -18 -37 -17 -39 2 -2 20 12 41 31 20
19 37 28 37 21 0 -7 -14 -22 -31 -35 -24 -18 -28 -25 -18 -37 17 -20 -4 -17
-29 4 l-21 19 25 36 c29 44 25 46 -22 11 -33 -26 -45 -54 -23 -54 8 0 8 -4 -1
-15 -6 -8 -9 -18 -6 -23 6 -11 -30 -72 -44 -72 -15 0 7 103 34 154 17 32 85
90 137 115 62 31 142 100 135 117 -5 14 6 19 17 8z m-229 -310 c9 -3 16 -15
16 -25 0 -10 11 -26 24 -34 22 -15 23 -19 14 -48 -12 -36 -76 -137 -87 -137
-3 0 -14 9 -23 19 -9 10 -24 23 -34 29 -31 17 -22 75 20 124 20 23 34 48 31
56 -2 7 0 10 5 7 6 -3 10 -1 10 4 0 13 3 13 24 5z m-1120 -68 c-2 -12 1 -14
11 -6 7 6 20 8 29 5 9 -3 23 -7 32 -10 14 -4 12 -9 -9 -26 -28 -21 -101 -144
-131 -219 -10 -25 -23 -51 -29 -59 -9 -12 -9 -13 1 -7 6 4 12 4 12 -1 -1 -13
-24 -39 -42 -46 -15 -5 -16 -2 -8 19 7 18 7 23 -1 18 -7 -4 -10 -3 -7 2 2 5
14 32 27 59 13 28 30 59 39 70 8 11 -15 -11 -52 -48 -37 -38 -70 -66 -74 -63
-3 4 0 12 6 18 7 7 12 19 11 28 0 10 -2 11 -6 3 -5 -14 -33 -18 -33 -5 0 5 17
21 38 37 42 31 88 93 77 103 -4 4 -11 -1 -16 -11 -13 -22 -21 -22 -53 4 l-26
20 72 69 c62 60 76 69 102 66 21 -3 31 -9 30 -20z m1286 7 c-1 -20 -54 -106
-145 -239 -146 -211 -180 -281 -172 -350 2 -24 0 -44 -5 -44 -5 0 -7 4 -3 9 3
5 1 13 -5 16 -6 4 -8 16 -5 27 4 12 0 27 -10 38 -13 15 -16 30 -12 60 3 22 1
40 -4 40 -5 0 -9 8 -9 18 0 14 2 15 10 2 8 -12 10 -11 10 7 0 13 19 37 52 65
70 57 79 68 148 173 95 144 151 211 150 178z m-81 -358 c59 -93 92 -199 99
-318 7 -136 -8 -197 -62 -244 -40 -34 -148 -93 -171 -93 -15 0 -22 76 -24 246
-1 124 14 254 40 333 11 34 67 141 74 141 2 0 22 -29 44 -65z"/>
<path d="M9370 7285 c-25 -13 -56 -24 -70 -25 -14 0 -37 -13 -53 -30 -16 -16
-32 -30 -36 -30 -7 0 -42 -72 -55 -114 -4 -13 -11 -16 -24 -11 -40 17 -51 15
-83 -13 -27 -24 -43 -29 -78 -28 -35 0 -47 -4 -60 -22 -9 -13 -31 -39 -48 -57
-18 -19 -33 -38 -33 -42 0 -16 31 -53 44 -53 26 0 37 -25 21 -46 -8 -10 -15
-28 -15 -39 0 -12 -6 -27 -12 -34 -11 -11 -8 -12 12 -6 14 4 25 8 25 9 1 0 6
14 13 29 7 16 10 32 7 37 -3 5 2 30 11 55 17 51 12 74 -7 31 -14 -31 -17 -31
-49 -6 -30 23 -21 46 26 70 18 10 28 21 26 32 -4 22 38 34 66 19 30 -16 63
-14 56 3 -6 15 31 46 55 46 7 0 19 -7 26 -16 10 -14 15 -11 37 27 13 24 32 60
41 80 17 37 40 54 58 43 5 -3 9 1 9 9 0 21 38 43 88 52 26 4 42 12 42 21 0 21
69 18 86 -3 12 -17 13 -17 14 -1 0 42 -73 49 -140 13z"/>
<path d="M9475 7241 c-3 -5 4 -12 14 -16 21 -6 35 -35 36 -70 0 -13 8 -21 23
-23 14 -2 29 -17 42 -43 23 -45 24 -45 76 -22 22 9 42 17 47 17 4 1 22 13 40
27 17 14 49 32 69 39 32 12 40 11 62 -4 32 -21 34 -59 4 -80 l-22 -15 29 -23
c16 -13 33 -26 38 -30 6 -3 12 -27 13 -52 2 -34 -3 -53 -22 -82 l-26 -37 25
16 c23 15 26 15 47 -5 19 -18 21 -27 15 -67 -5 -38 -4 -44 6 -33 7 7 14 23 15
36 2 37 12 56 31 56 17 1 17 1 1 11 -37 21 -7 40 36 23 21 -8 21 -24 0 -24 -8
0 -12 -5 -8 -11 10 -18 71 -3 105 25 27 23 37 25 100 22 86 -4 100 -15 75 -58
-20 -34 -22 -30 31 -65 17 -12 16 -14 -14 -39 -31 -25 -32 -27 -16 -50 8 -13
24 -24 34 -24 22 0 23 4 7 31 -11 17 -10 22 5 34 27 20 27 68 0 80 -19 8 -22
15 -17 46 5 31 3 39 -17 52 -13 9 -47 19 -76 23 -46 6 -57 3 -105 -24 -53 -30
-53 -30 -77 -11 -27 22 -62 25 -91 7 -24 -16 -35 -6 -21 20 21 39 12 67 -34
112 -28 28 -41 48 -36 54 5 6 11 26 13 45 3 30 -1 37 -30 54 -41 24 -101 27
-113 5 -14 -25 -77 -59 -82 -45 -3 7 -14 1 -30 -15 -34 -36 -55 -35 -69 2 -5
17 -23 37 -39 46 -16 8 -29 21 -29 29 0 45 -46 85 -65 56z"/>
<path d="M8811 6805 c-26 -23 -36 -25 -78 -20 l-48 7 -47 -55 c-27 -31 -48
-61 -48 -67 0 -7 -14 -3 -34 10 l-35 21 -43 -19 c-24 -11 -60 -27 -81 -36 -31
-12 -37 -19 -33 -38 3 -13 8 -40 11 -60 3 -23 14 -42 26 -48 33 -18 41 -1 14
32 -37 44 -31 78 19 101 64 30 103 33 136 9 32 -24 40 -20 41 22 1 18 3 24 6
13 3 -11 10 -16 20 -13 8 3 18 6 22 6 5 0 8 17 7 37 -1 50 31 69 82 47 19 -8
36 -13 36 -12 8 23 28 44 54 58 17 10 29 20 25 24 -11 10 -20 7 -52 -19z"/>
<path d="M9263 6569 c2 -202 -1 -263 -10 -266 -7 -3 -13 -9 -13 -14 0 -6 4 -8
9 -5 10 7 16 -19 26 -106 6 -50 4 -58 -11 -58 -13 0 -16 7 -11 38 3 20 1 46
-3 57 -10 23 -10 23 -15 -29 -5 -46 -25 -73 -26 -35 l0 24 -10 -24 c-7 -18
-12 -22 -21 -13 -8 8 -9 21 -1 47 6 19 8 35 3 35 -4 0 -11 -15 -15 -32 -7 -32
-7 -32 -14 -8 -6 23 -8 23 -14 6 -4 -11 -3 -24 2 -29 5 -5 6 -21 1 -38 -5 -16
-8 -30 -7 -32 0 -1 -5 -11 -12 -22 -12 -20 -12 -20 -8 0 2 11 -3 27 -11 34
-12 12 -13 11 -7 -8 3 -11 2 -21 -3 -21 -5 0 -12 -14 -16 -32 -8 -41 -23 -58
-52 -58 -27 0 -26 -1 -15 58 5 23 5 42 1 42 -13 0 -33 -59 -28 -84 6 -32 -12
-39 -60 -23 -28 10 -37 18 -36 35 0 12 -3 22 -8 22 -4 0 -8 -9 -8 -19 0 -29
-17 -35 -32 -11 -16 26 -22 25 -36 -4 -11 -24 -48 -41 -57 -26 -3 5 0 21 6 37
15 37 23 104 11 83 -5 -8 -12 -31 -16 -52 -4 -20 -13 -39 -21 -42 -8 -3 -15
-15 -15 -26 0 -15 -7 -20 -25 -20 -32 0 -41 22 -28 72 13 50 0 49 -21 -2 -19
-47 -12 -67 31 -98 28 -20 28 -20 11 -56 -23 -47 -60 -71 -87 -57 -26 14 -28
14 -35 -5 -8 -20 53 -47 72 -32 18 16 14 0 -9 -33 l-20 -29 -40 27 c-44 29
-45 33 -24 93 18 50 18 50 6 50 -4 0 -16 -20 -25 -45 -18 -47 -35 -56 -56 -30
-10 12 -10 19 -2 27 7 7 12 21 11 33 0 16 -2 15 -11 -7 -11 -33 -23 -35 -38
-9 -7 14 -5 30 6 58 15 35 14 37 0 22 -9 -8 -19 -31 -22 -51 -6 -32 -2 -40 42
-85 27 -28 70 -64 97 -82 26 -18 47 -35 47 -39 0 -4 -14 -23 -31 -41 -16 -19
-23 -31 -15 -28 23 9 20 4 -21 -39 -51 -54 -154 -196 -147 -203 3 -3 10 2 16
12 5 10 23 33 39 51 16 19 29 37 29 40 0 11 60 83 98 119 19 17 28 33 22 37
-6 4 8 26 32 51 24 25 51 61 61 80 13 24 14 28 3 15 -9 -11 -18 -17 -21 -15
-2 3 16 31 40 62 25 31 45 62 45 69 0 10 3 9 9 -1 7 -11 12 -10 22 8 8 11 17
21 22 21 11 0 -40 -89 -74 -128 -16 -18 -38 -52 -50 -75 l-21 -42 22 23 c24
25 41 22 20 -3 -7 -9 -10 -18 -6 -22 3 -3 6 -2 6 4 0 6 14 16 30 22 17 5 30
17 30 25 0 8 6 17 13 20 10 5 10 7 0 12 -7 3 -13 10 -13 15 0 5 9 4 20 -3 12
-8 20 -24 20 -40 0 -16 4 -28 9 -28 16 0 56 24 86 53 34 31 45 34 45 12 0 -8
7 -15 15 -15 8 0 30 -17 50 -37 61 -66 42 -9 -27 84 -26 33 -37 57 -32 65 5 7
7 23 5 36 -1 12 2 22 7 22 13 0 24 -44 12 -48 -11 -4 -14 -32 -4 -32 4 0 12 7
18 16 10 13 18 7 51 -40 22 -31 43 -56 46 -56 12 0 20 53 10 63 -6 6 -11 8
-11 4 0 -4 -11 3 -25 15 -14 12 -25 25 -25 30 0 5 -13 22 -30 38 -19 18 -26
32 -19 36 6 4 16 0 21 -7 7 -11 11 -11 15 -1 2 6 10 12 16 12 7 0 25 7 40 15
33 17 37 14 80 -50 15 -22 27 -52 27 -68 0 -18 4 -27 13 -25 12 5 76 124 77
145 0 6 5 15 10 18 6 4 9 -10 6 -36 -2 -24 -9 -45 -15 -47 -6 -2 -11 -8 -11
-13 0 -6 4 -7 10 -4 14 9 23 -39 18 -95 l-5 -48 60 -4 c111 -6 283 30 312 65
24 30 103 86 110 79 5 -4 5 -2 2 4 -4 6 2 19 13 29 12 10 20 13 20 7 0 -28 19
-7 43 48 31 68 32 74 15 64 -7 -4 -5 1 4 12 10 11 15 28 12 40 -3 12 2 27 15
38 12 11 21 14 21 7 0 -6 -7 -14 -15 -17 -8 -4 -15 -14 -15 -23 0 -11 6 -8 23
12 15 20 27 26 39 22 10 -4 15 -12 11 -19 -4 -6 1 -5 10 3 12 9 17 10 17 2 0
-6 -6 -14 -14 -17 -23 -9 -67 -79 -61 -96 4 -9 2 -19 -4 -23 -6 -3 -11 -12
-11 -18 0 -13 49 43 50 57 0 5 -8 2 -17 -5 -13 -11 -13 -8 3 16 25 40 74 93
74 80 0 -5 -14 -25 -31 -43 -35 -37 -34 -53 1 -22 33 29 38 25 9 -7 -60 -68
-95 -103 -103 -103 -8 0 -7 9 8 55 5 15 4 15 -5 -2 -7 -13 -16 -23 -21 -23
-17 0 -7 -27 21 -54 l30 -28 33 20 c36 22 129 30 205 17 l42 -7 -20 -21 c-23
-25 -21 -50 5 -55 14 -3 17 1 12 15 -4 12 1 24 14 33 11 8 20 20 20 26 0 7 6
15 13 18 6 3 1 3 -12 0 -19 -5 -23 -3 -18 9 4 11 2 14 -9 10 -23 -9 -16 11 16
42 34 32 39 48 13 38 -16 -6 -16 -5 -4 10 23 29 6 19 -44 -26 -43 -39 -53 -44
-99 -44 -51 -1 -51 -1 -20 12 17 8 36 21 44 30 8 9 16 12 19 6 9 -13 201 161
201 182 0 6 -15 -3 -33 -21 -36 -35 -58 -40 -77 -17 -21 25 -35 18 -106 -56
-94 -96 -91 -93 -87 -106 5 -13 -51 -55 -61 -46 -3 3 -15 -2 -26 -12 -11 -10
-22 -16 -24 -14 -5 4 50 69 59 69 10 0 75 69 75 80 0 10 -4 9 -15 0 -13 -11
-14 -10 -9 4 4 10 12 15 19 12 7 -2 30 15 50 40 20 24 45 44 55 44 27 0 33 28
7 32 -13 2 -24 13 -27 28 -6 23 -8 21 -33 -27 -31 -60 -38 -66 -71 -57 -32 8
-38 36 -14 74 10 18 17 34 14 37 -2 3 -17 -18 -33 -45 -20 -35 -33 -48 -42
-43 -13 8 -7 53 12 81 5 8 -3 2 -17 -14 -36 -38 -42 -28 -16 24 12 23 19 44
16 47 -3 3 -13 -11 -22 -31 -10 -20 -21 -36 -26 -36 -4 0 -8 42 -7 93 1 95
-11 161 -42 235 -11 24 -15 41 -10 38 13 -8 43 -75 57 -126 l13 -45 0 50 c1
84 -55 181 -91 158 -6 -3 -8 -2 -5 4 3 5 -29 39 -72 76 -105 89 -162 108 -333
114 l-126 4 1 -262z m308 181 c20 -5 67 -36 105 -68 122 -102 164 -225 109
-319 -14 -23 -21 -43 -15 -43 5 0 18 18 27 41 12 31 18 38 24 26 13 -22 6
-147 -7 -147 -19 0 -25 -30 -9 -36 25 -10 19 -93 -9 -135 -22 -33 -31 -37 -95
-47 -38 -7 -90 -12 -114 -12 -31 0 -56 -8 -81 -25 -47 -32 -56 -31 -56 3 -1
15 -3 97 -5 182 -2 85 -7 256 -10 379 l-5 224 52 -6 c29 -3 69 -11 89 -17z"/>
<path d="M9551 3679 c-1 -41 -7 -98 -15 -125 -8 -27 -17 -66 -20 -86 -4 -21
-11 -38 -16 -38 -4 0 -6 -8 -3 -18 2 -10 -3 -24 -11 -31 -9 -8 -16 -27 -16
-43 0 -23 -14 -43 -60 -89 -76 -75 -58 -93 25 -25 31 25 65 46 75 46 10 0 21
4 24 9 3 5 18 12 33 16 15 3 31 12 35 18 5 8 11 8 16 2 4 -5 23 -18 42 -27 19
-10 59 -31 89 -48 30 -16 65 -30 78 -30 33 0 21 16 -17 24 -17 3 -50 21 -73
40 -23 19 -51 35 -62 37 -13 3 -22 16 -28 42 -10 42 -22 48 -30 15 -5 -18 -8
-19 -21 -9 -9 8 -13 18 -9 25 4 6 -1 5 -10 -2 -15 -13 -16 -9 -12 35 12 133
12 223 0 278 l-13 60 -1 -76z"/>
<path d="M12520 7933 c-129 -4 -155 -9 -127 -24 21 -12 315 -23 364 -14 24 4
33 11 33 25 0 18 -7 20 -77 18 -43 -1 -130 -4 -193 -5z"/>
<path d="M12640 7221 c-95 -26 -203 -78 -194 -92 4 -8 3 -9 -4 -5 -7 4 -20 2
-29 -4 -16 -10 -16 -11 2 -5 24 8 19 2 -65 -60 -61 -46 -64 -43 -15 14 l20 25
-32 -20 c-17 -10 -44 -36 -60 -56 -102 -131 -124 -165 -161 -240 -101 -207
-127 -473 -67 -681 13 -45 22 -84 20 -87 -2 -4 32 -76 77 -161 44 -85 102
-194 128 -244 47 -90 127 -237 235 -435 106 -191 99 -168 80 -284 -9 -55 -23
-108 -32 -118 -11 -12 -11 -18 -3 -23 13 -8 11 -31 -10 -129 -7 -34 -7 -53 0
-60 5 -5 10 -21 11 -35 0 -25 1 -26 11 -4 9 19 18 21 92 21 44 0 106 3 137 6
56 6 56 6 51 -19 -3 -19 0 -25 13 -25 10 0 15 5 12 14 -5 11 -1 11 24 -1 16
-8 27 -19 24 -24 -4 -5 7 -9 24 -9 16 0 33 5 36 10 3 6 17 7 31 4 14 -4 24 -2
24 5 0 6 -5 11 -12 11 -6 0 -9 2 -6 5 3 3 13 3 22 -1 18 -7 22 -34 5 -34 -5 0
-7 -4 -4 -10 3 -6 11 -10 16 -10 6 0 7 5 3 12 -5 8 -2 9 11 4 15 -5 16 -4 5 9
-11 13 -9 15 14 15 14 0 26 4 26 9 0 15 41 24 52 13 6 -6 18 -8 27 -6 9 3 6
-1 -7 -8 -21 -13 -14 -14 65 -11 195 6 333 17 333 25 0 7 -107 14 -135 8 -5
-1 -25 2 -45 6 l-35 7 60 14 c33 8 75 12 92 9 18 -2 35 -1 37 3 3 4 18 7 33 6
18 -2 20 -1 6 2 -13 2 -23 8 -23 14 0 5 -52 6 -127 3 -212 -9 -204 -13 -222
101 -6 38 -20 122 -30 185 l-18 114 63 126 c35 69 70 136 78 150 25 41 178
364 289 610 13 30 28 66 32 80 4 14 11 30 15 35 14 17 68 217 81 294 38 244
-84 563 -289 752 -64 59 -85 72 -161 100 -18 7 -49 23 -69 37 -63 42 -124 53
-317 58 -153 3 -190 1 -245 -15z m477 -61 c139 -40 269 -106 260 -133 -1 -5
-22 -16 -46 -23 -38 -11 -46 -10 -83 9 -23 12 -67 46 -100 75 -32 28 -62 52
-66 52 -11 -1 99 -99 147 -131 28 -18 39 -30 30 -33 -26 -9 -113 -34 -299 -87
-102 -29 -225 -70 -274 -91 -49 -21 -90 -37 -91 -36 -2 2 -25 30 -51 64 -80
99 -154 179 -154 165 0 -7 28 -45 63 -85 34 -39 75 -88 90 -108 31 -41 30 -48
-25 -139 -30 -49 -82 -193 -130 -359 -12 -40 -26 -55 -147 -153 -74 -59 -138
-104 -143 -99 -4 4 -9 21 -12 37 -2 17 -9 44 -17 60 -20 45 -18 345 2 345 4 0
10 15 14 33 22 108 66 217 132 330 31 52 51 77 64 77 11 0 16 5 13 14 -3 9 23
34 73 71 237 174 485 221 750 145z m347 -212 c20 -23 34 -48 32 -54 -3 -7 4
-20 14 -29 11 -10 17 -22 14 -26 -3 -5 2 -6 12 -2 13 5 15 2 10 -15 -4 -11 -2
-23 3 -27 7 -4 8 1 4 11 -4 12 -3 15 6 10 7 -5 10 -14 7 -22 -7 -19 3 -44 19
-44 8 0 17 -4 20 -10 3 -6 -1 -7 -10 -4 -13 5 -15 1 -11 -19 6 -34 23 -64 40
-70 26 -10 39 -106 38 -267 -2 -237 -12 -271 -63 -209 -36 43 -129 230 -167
334 -50 135 -161 407 -173 421 -12 15 13 31 81 50 74 20 85 17 124 -28z m-244
-30 c0 -13 -4 -59 -9 -103 -17 -145 -24 -325 -14 -325 13 0 21 67 29 254 6
123 9 146 20 132 16 -22 111 -249 164 -391 22 -60 61 -147 86 -193 25 -46 43
-86 41 -88 -2 -2 -39 21 -83 52 -43 30 -118 78 -166 106 -78 45 -88 54 -88 79
0 19 -4 27 -13 23 -8 -3 -17 12 -26 43 -11 37 -30 64 -80 113 -59 58 -75 68
-135 84 -49 14 -84 17 -128 12 -61 -6 -161 -47 -211 -86 -27 -22 -71 -106 -62
-120 3 -5 0 -10 -6 -12 -20 -7 -39 -81 -39 -154 0 -80 32 -202 56 -211 8 -3
14 -11 14 -18 0 -23 73 -88 128 -113 47 -21 64 -24 136 -20 60 3 96 12 139 31
31 15 62 26 67 24 6 -1 35 27 65 63 45 53 61 80 81 146 16 55 22 91 18 113 -7
33 -6 33 17 21 22 -12 100 -62 292 -186 37 -24 67 -50 67 -57 0 -6 -109 -67
-243 -134 -133 -68 -300 -159 -372 -203 -71 -44 -135 -80 -142 -80 -7 0 -33
33 -59 73 -40 62 -80 110 -197 235 -20 21 -20 22 -3 16 18 -7 -19 50 -91 139
-27 34 -31 59 -6 50 11 -4 14 -3 9 5 -4 7 -14 12 -23 12 -11 0 -14 6 -10 21 4
15 2 19 -9 15 -8 -3 -14 -1 -14 5 0 6 9 13 20 16 11 3 20 10 21 17 1 6 2 32 3
58 1 26 7 58 13 70 6 13 19 48 28 78 46 153 85 197 209 242 160 57 481 166
494 167 6 1 12 -9 12 -21z m-270 -241 c55 -20 93 -43 117 -71 13 -14 20 -26
15 -26 -4 -1 4 -10 17 -20 13 -11 20 -20 16 -20 -4 0 0 -11 9 -25 24 -37 53
-195 36 -195 -6 0 -10 -10 -10 -22 0 -40 -77 -155 -127 -189 -52 -36 -119 -59
-174 -59 -51 0 -137 40 -176 81 -38 41 -96 145 -88 158 3 5 0 22 -6 38 -13 32
-12 113 1 148 7 19 5 27 -8 34 -14 9 -14 11 -2 12 8 1 18 1 22 0 4 0 4 16 1
36 -4 26 -3 34 5 29 7 -4 12 -2 12 3 0 6 11 11 25 11 17 0 25 6 25 18 0 9 6
24 13 33 25 32 212 50 277 26z m-490 -530 c92 -133 145 -204 201 -268 54 -63
99 -122 99 -132 0 -9 -142 49 -285 115 -77 36 -185 85 -240 108 -55 23 -101
43 -102 44 -2 1 19 18 45 38 26 20 57 45 69 55 12 10 49 38 83 63 33 24 60 48
60 53 0 17 22 -7 70 -76z m1150 -73 c0 -5 -79 -187 -102 -236 -13 -26 -30 -47
-38 -48 -11 0 -12 -2 -3 -8 11 -7 -54 -146 -140 -302 -21 -38 -43 -81 -60
-120 -113 -252 -194 -407 -219 -418 -5 -2 -8 -11 -8 -19 0 -8 -15 -36 -34 -62
-18 -25 -41 -72 -51 -104 -10 -33 -24 -65 -32 -72 -7 -8 -13 -23 -13 -34 0
-28 -20 -37 -21 -9 -6 182 -5 448 2 466 7 17 5 22 -7 22 -39 0 7 161 63 218 7
8 18 22 23 33 19 34 -9 22 -29 -13 -11 -18 -26 -40 -34 -48 -8 -8 -18 -26 -22
-39 -13 -41 -25 -3 -24 74 0 39 0 72 -1 75 -1 3 -4 60 -5 128 l-3 123 26 16
c15 9 56 35 92 58 131 85 379 211 430 220 21 4 46 15 56 26 9 10 29 19 43 20
14 0 20 3 13 6 -15 6 30 33 54 33 8 0 14 4 14 8 0 5 7 9 15 9 8 0 15 -2 15 -3z
m-1231 -193 c135 -60 260 -115 276 -121 17 -6 59 -24 95 -41 l65 -30 1 -57 c0
-31 8 -203 17 -382 10 -179 19 -384 21 -456 1 -72 6 -136 10 -142 4 -7 3 -12
-1 -12 -13 0 -34 40 -28 51 4 5 1 8 -6 7 -8 -2 -14 7 -14 23 -1 14 -11 39 -23
56 -12 17 -22 34 -22 38 0 4 -16 32 -37 63 -67 106 -80 127 -118 197 -56 102
-65 117 -143 254 -40 68 -72 125 -72 128 0 2 -11 19 -24 36 -13 18 -58 102
-101 187 -43 85 -95 188 -117 228 -40 77 -42 82 -31 82 4 0 117 -49 252 -109z"/>
<path d="M13818 5875 c-2 -3 -1 -26 3 -53 4 -26 8 -68 8 -93 1 -29 7 -51 16
-59 8 -7 15 -24 14 -39 -1 -42 11 -108 26 -145 8 -18 12 -36 9 -38 -3 -3 2
-23 10 -44 14 -40 47 -172 51 -210 2 -12 7 -30 13 -40 5 -11 12 -37 15 -59 2
-22 7 -47 10 -55 3 -8 8 -31 11 -50 3 -19 10 -51 16 -70 12 -42 12 -40 0 -40
-5 0 -12 11 -16 25 -13 51 -16 15 -3 -39 8 -39 17 -56 28 -56 12 0 13 -2 4 -8
-10 -6 -10 -23 1 -78 32 -152 46 -209 55 -212 5 -2 7 -20 4 -40 -3 -25 -2 -33
5 -23 7 10 11 6 15 -15 3 -16 8 -40 12 -54 3 -14 8 -36 10 -50 3 -14 11 -50
20 -80 8 -30 20 -80 25 -110 14 -71 46 -218 76 -345 13 -55 46 -201 74 -325
92 -407 111 -484 135 -562 14 -42 25 -78 25 -80 0 -3 -212 -2 -901 2 l-86 0
-22 118 c-12 64 -29 151 -37 192 -13 71 -24 147 -25 180 0 8 -4 35 -10 60 -5
25 -11 65 -13 89 -5 46 -18 112 -42 221 -8 36 -15 82 -16 103 -1 41 -12 54
-31 38 -15 -12 -392 6 -419 20 -12 6 -18 6 -18 -1 0 -5 -7 -10 -16 -10 -8 0
-13 4 -10 8 7 12 -191 5 -239 -8 -68 -19 -159 -29 -166 -18 -7 10 -24 -20 -20
-36 1 -5 -2 -12 -7 -15 -4 -3 -21 -51 -36 -105 -16 -55 -39 -127 -51 -161 -13
-33 -42 -137 -65 -231 -52 -215 -51 -209 -40 -198 5 5 23 63 39 128 17 65 33
121 37 125 4 3 4 -6 0 -21 -3 -14 -8 -45 -11 -67 -3 -22 -10 -52 -15 -66 -6
-15 -10 -38 -10 -53 0 -15 -9 -50 -20 -79 -11 -28 -16 -53 -11 -55 4 -2 1 -40
-8 -85 l-15 -83 -64 0 c-93 0 -256 21 -264 34 -5 7 -8 7 -8 -3 0 -9 -4 -10
-12 -4 -7 5 -145 8 -310 7 -193 -1 -298 2 -298 9 0 5 15 71 34 146 19 75 48
197 65 271 17 74 36 151 42 171 6 20 12 49 13 65 1 16 4 34 7 39 4 6 10 28 14
50 4 22 13 58 20 80 7 22 16 69 19 105 3 36 15 110 26 165 20 101 27 133 54
240 8 33 17 86 20 118 5 62 16 91 16 42 0 -31 6 -31 12 0 1 11 9 26 16 34 7 7
11 20 8 28 -4 8 -3 20 1 26 13 21 14 77 1 77 -7 0 -6 5 4 13 21 15 40 84 27
93 -6 4 -6 10 0 18 6 7 8 16 4 19 -3 4 -2 7 4 7 10 0 13 20 15 78 0 12 4 22 8
22 4 0 6 10 6 23 -1 12 2 28 7 34 5 7 7 20 3 28 -3 9 0 15 9 15 10 0 14 9 11
30 -2 17 0 30 3 30 4 0 7 10 8 22 1 12 6 33 12 47 5 14 14 60 21 101 6 41 15
84 19 95 11 26 80 328 87 380 3 22 9 56 14 75 6 19 10 52 10 72 0 20 4 39 8
42 5 3 9 19 10 35 0 16 6 39 12 50 6 12 7 21 1 21 -5 0 -16 -18 -24 -39 -18
-45 -86 -317 -116 -466 -53 -261 -131 -575 -143 -575 -4 0 -8 5 -8 11 0 5 -4
7 -10 4 -5 -3 -10 -22 -10 -41 0 -20 -5 -34 -12 -34 -9 0 -8 -4 2 -10 10 -7
12 -12 4 -17 -14 -10 -26 -83 -13 -83 5 0 9 -5 9 -11 0 -5 -4 -8 -8 -5 -4 2
-9 -16 -10 -41 -1 -25 -8 -71 -16 -102 -9 -31 -27 -110 -41 -176 -15 -66 -31
-129 -35 -140 -8 -19 -9 -19 -9 2 -1 12 6 57 14 100 18 91 30 262 19 250 -10
-10 -13 -25 -20 -117 -5 -69 -21 -152 -44 -240 -5 -19 -21 -81 -35 -136 -13
-56 -29 -112 -34 -125 -9 -23 -10 -22 -7 6 2 17 6 37 9 45 5 13 13 53 32 148
2 12 7 27 11 34 11 17 53 248 54 291 0 58 -17 35 -25 -33 -4 -33 -11 -63 -16
-66 -11 -7 -12 -12 5 70 8 38 19 72 24 75 15 10 25 118 12 126 -8 5 -7 11 2
23 7 9 8 13 2 9 -6 -4 -3 28 9 81 10 48 20 94 22 102 2 8 4 20 4 27 1 7 10 21
21 31 20 19 43 109 30 117 -9 6 13 151 44 285 14 58 39 182 56 275 17 94 36
195 42 226 12 62 5 100 -14 81 -6 -6 -17 -37 -23 -69 -7 -32 -31 -141 -53
-243 -51 -231 -59 -273 -72 -385 -5 -49 -26 -153 -46 -230 -19 -77 -46 -185
-60 -240 -13 -55 -28 -113 -34 -130 -8 -25 -33 -146 -46 -220 -2 -11 -12 -56
-23 -100 -31 -127 -68 -282 -91 -390 -12 -55 -33 -138 -46 -185 -13 -47 -40
-168 -60 -270 -28 -144 -34 -198 -30 -245 5 -47 2 -72 -13 -114 -20 -52 -20
-71 0 -71 5 0 9 12 9 28 1 15 7 41 14 57 l13 30 7 -50 c5 -27 14 -62 22 -77 8
-15 14 -38 14 -51 0 -13 7 -32 15 -43 8 -10 15 -26 15 -35 0 -27 59 -45 120
-38 30 4 98 8 150 8 64 1 90 4 80 11 -10 6 19 9 87 9 56 0 105 -4 108 -9 4 -6
95 -7 229 -4 211 6 223 5 230 -12 7 -18 9 -17 17 4 7 20 13 22 49 16 27 -4 40
-3 40 5 0 6 -13 11 -30 11 -35 0 -34 -6 -14 80 l17 68 98 -4 c53 -2 118 -8
143 -13 100 -18 366 -10 366 12 0 6 -43 8 -119 4 -65 -2 -125 -1 -132 4 -13 8
45 15 94 11 9 -1 17 3 17 9 0 8 -29 9 -97 4 -111 -8 -154 -9 -270 -7 -80 2
-83 3 -83 25 0 13 2 26 5 29 3 3 38 -1 78 -9 55 -11 115 -13 252 -8 99 3 189
8 200 10 11 3 65 7 120 10 55 3 120 8 145 12 l45 7 -35 6 c-19 3 -62 1 -95 -3
-101 -13 -557 -20 -585 -8 -18 7 43 10 220 11 135 1 256 6 270 10 22 7 -240
13 -422 10 -42 -1 -68 3 -68 9 0 6 3 10 8 10 4 -1 52 -1 107 1 66 1 93 4 80
10 -24 10 -10 13 55 10 56 -3 54 -3 240 0 146 3 150 3 75 11 -106 10 -585 19
-582 10 1 -3 -7 -18 -19 -33 -14 -18 -29 -26 -47 -25 -30 2 -35 18 -13 40 9 9
11 18 5 24 -6 6 -3 37 6 84 9 41 18 86 19 101 2 14 9 41 14 60 6 18 14 71 17
118 4 47 11 90 15 95 4 6 15 49 25 96 l18 86 46 -2 c25 -1 177 -3 337 -4 l292
-1 7 -55 c5 -41 11 -55 23 -55 14 0 13 -2 -2 -13 -15 -11 -16 -17 -7 -35 6
-11 11 -31 11 -44 0 -16 3 -19 9 -10 7 11 9 11 14 -2 3 -8 2 -18 -3 -21 -14
-9 -12 -45 3 -45 8 0 8 -3 -2 -9 -9 -6 -11 -16 -6 -27 7 -18 7 -18 14 0 4 10
7 -11 7 -45 0 -35 8 -100 17 -144 9 -44 19 -96 22 -115 3 -20 24 -61 50 -95
31 -42 41 -62 32 -67 -9 -6 -7 -12 7 -20 11 -6 36 -29 57 -52 21 -22 40 -38
42 -36 2 3 0 23 -5 45 -6 28 -28 63 -73 114 -36 41 -65 78 -65 83 0 4 9 8 21
8 16 0 19 4 14 18 -13 32 -13 62 1 62 11 0 33 -75 34 -118 1 -9 7 -28 15 -42
11 -20 14 -21 15 -7 0 10 -4 26 -9 35 -13 25 -20 94 -12 116 10 27 17 12 31
-64 6 -36 18 -89 26 -119 8 -29 17 -76 19 -103 2 -27 6 -52 9 -55 14 -14 4
-33 -16 -33 -13 0 -29 -4 -36 -9 -24 -14 113 -20 433 -17 171 1 393 0 494 -3
l183 -6 13 -40 c7 -22 16 -52 19 -67 4 -16 10 -28 15 -28 10 0 5 32 -9 65 -5
11 -11 43 -13 70 -3 28 -19 106 -36 175 -18 69 -33 137 -35 151 -2 14 -5 30
-8 35 -14 22 -41 130 -68 269 -16 83 -43 209 -60 280 -16 72 -37 161 -46 200
-9 38 -17 88 -18 112 0 24 -5 43 -10 43 -4 0 -6 11 -4 25 3 14 1 23 -6 22 -5
-1 -16 27 -23 63 -7 36 -19 95 -28 131 -8 37 -15 77 -14 90 0 23 1 23 9 4 12
-28 12 -14 -1 47 -10 43 -13 49 -21 33 -6 -14 -6 -8 -3 18 3 20 3 42 -1 49 -4
6 -8 27 -10 46 -2 18 -8 39 -13 46 -6 7 -12 37 -13 68 -2 31 -6 54 -10 52 -4
-2 -9 0 -13 6 -3 5 -2 10 3 10 6 0 8 9 5 20 -3 11 -9 20 -14 20 -5 0 -7 11 -3
25 4 16 2 25 -6 25 -7 0 -10 7 -7 15 4 8 2 17 -3 20 -5 3 -9 13 -8 23 0 9 -3
28 -7 42 -4 14 -15 68 -26 120 -24 126 -43 212 -63 285 -9 33 -19 71 -22 84
-3 14 -7 27 -9 31 -2 4 -27 94 -55 201 -49 185 -60 216 -72 204z"/>
<path d="M6340 3107 c0 -5 -7 -7 -15 -3 -9 3 -34 -19 -73 -67 -72 -89 -74 -91
-66 -112 6 -14 16 -15 70 -10 54 6 65 5 70 -9 8 -22 7 -23 -46 -30 l-45 -6 40
20 40 20 -35 -6 c-63 -11 -102 -6 -112 16 -5 12 -7 12 -7 -2 -1 -10 -5 -18
-11 -18 -5 0 -10 -4 -10 -10 0 -5 21 -10 48 -11 45 -1 46 -1 15 -10 -55 -16
-53 -33 3 -25 27 4 87 9 133 11 46 3 90 10 97 16 9 8 14 8 14 1 0 -13 47 -9
61 5 10 10 -81 10 -98 0 -12 -7 -73 20 -73 33 0 5 14 10 31 10 17 0 28 -4 24
-10 -3 -5 1 -10 9 -10 9 0 13 6 10 14 -7 17 -92 29 -149 21 -42 -7 -71 7 -40
19 8 3 119 9 246 12 240 7 292 23 84 25 -94 1 -110 3 -75 10 25 4 80 8 123 8
49 1 76 5 72 11 -3 6 -45 10 -93 10 -69 1 -83 3 -68 12 11 6 46 10 78 10 34
-1 56 3 53 9 -4 5 -72 9 -153 9 -94 0 -141 4 -131 10 8 5 51 10 95 11 120 4
157 16 59 20 -160 6 -175 6 -175 -4z"/>
<path d="M15943 2881 c-50 -9 -27 -28 47 -40 83 -14 570 -15 570 -1 0 5 -7 7
-16 3 -9 -3 -20 0 -25 8 -5 9 -9 10 -9 2 0 -8 -9 -7 -31 4 -24 12 -36 13 -58
3 -38 -15 -226 -11 -268 7 -20 8 -33 9 -33 3 0 -5 -5 -10 -11 -10 -6 0 -9 7
-5 15 4 12 -6 15 -62 14 -37 -1 -82 -4 -99 -8z"/>
<path d="M12519 2870 c-8 -5 -59 -10 -112 -12 -53 -2 -97 -6 -97 -10 0 -7 32
-12 53 -9 4 0 7 -4 7 -10 0 -9 63 -10 243 -5 204 5 357 17 337 25 -12 6 -46
12 -55 11 -5 -1 -58 -4 -117 -6 -100 -5 -108 -4 -108 13 -1 16 -2 16 -10 2 -8
-14 -17 -15 -47 -9 -21 5 -39 7 -42 5 -2 -2 -11 0 -20 5 -9 4 -23 5 -32 0z"/>
</g>
</svg>
