<?xml version="1.0" standalone="no"?>
<!DOCTYPE svg PUBLIC "-//W3C//DTD SVG 20010904//EN"
 "http://www.w3.org/TR/2001/REC-SVG-20010904/DTD/svg10.dtd">
<svg version="1.0" xmlns="http://www.w3.org/2000/svg"
 width="1928.000000pt" height="1074.000000pt" viewBox="0 0 1928.000000 1074.000000"
 preserveAspectRatio="xMidYMid meet">
<metadata>
Created by potrace 1.16, written by Peter Selinger 2001-2019
</metadata>
<g transform="translate(0.000000,1074.000000) scale(0.100000,-0.100000)"
fill="#000000" stroke="none">
<path d="M14564 8003 c9 -17 20 -35 26 -38 21 -13 9 -34 -22 -38 -31 -4 -31
-4 6 -5 36 -2 38 -4 33 -29 -9 -51 -19 -1155 -19 -2243 -1 -744 -4 -1077 -11
-1082 -8 -5 -8 -14 0 -30 9 -19 11 -190 5 -458 0 -8 2 -114 4 -235 11 -665 11
-695 -11 -701 -14 -5 -27 2 -48 27 l-28 34 22 -50 c23 -55 46 -85 34 -47 -9
31 16 29 52 -4 21 -19 24 -27 14 -33 -9 -6 -10 -11 -2 -15 18 -11 13 -26 -6
-20 -12 4 -10 -1 6 -13 54 -42 116 -107 113 -119 -2 -9 6 -14 22 -14 21 0 30
-12 60 -71 29 -58 36 -83 36 -130 0 -33 4 -59 9 -59 6 0 10 17 9 38 0 60 20
125 38 118 9 -3 72 -6 140 -6 107 0 124 -2 124 -16 0 -10 6 -14 15 -11 8 4 79
9 157 12 79 3 175 9 213 12 65 6 147 9 288 12 31 1 57 6 57 11 0 6 -7 10 -15
10 -8 0 -23 9 -32 20 -21 24 -33 26 -33 5 0 -9 -9 -15 -22 -15 -17 0 -19 3
-10 12 7 7 12 42 12 85 l0 73 28 0 c26 -1 166 -13 282 -25 40 -5 51 -4 40 4
-8 6 -36 11 -62 11 -26 0 -59 5 -75 12 -15 6 -68 12 -118 12 -87 1 -90 2 -93
24 -3 21 -1 23 25 18 15 -3 60 -7 100 -8 40 -1 67 -6 60 -10 -32 -20 35 -26
284 -28 75 -1 153 -5 175 -10 36 -8 64 -3 37 7 -7 3 -13 12 -13 20 0 9 -3 13
-7 10 -3 -4 -16 -1 -27 7 -30 19 -90 25 -336 31 -118 3 -234 8 -257 11 l-42 5
0 527 c0 290 -3 659 -7 820 -4 160 -4 292 -1 292 3 0 18 -37 33 -82 15 -46 49
-132 76 -193 26 -60 48 -115 48 -122 0 -7 12 -38 26 -70 14 -32 52 -132 85
-223 111 -307 152 -415 166 -444 8 -16 16 -45 18 -65 1 -20 16 -65 32 -101 41
-87 105 -261 99 -267 -2 -3 -21 14 -42 36 -20 23 -39 39 -42 36 -3 -3 10 -21
28 -40 19 -19 29 -35 22 -35 -27 0 -9 -15 21 -17 18 -1 36 -10 42 -20 13 -23
44 -53 188 -183 64 -58 117 -108 117 -112 0 -5 -27 -8 -60 -8 -33 0 -60 -4
-60 -10 0 -12 7 -13 90 -14 l64 -1 42 -83 c72 -145 75 -122 4 31 -7 15 -10 30
-7 33 12 13 37 -6 73 -56 20 -27 40 -50 46 -50 10 0 -22 50 -47 70 -34 28 -13
31 153 24 92 -4 204 -7 250 -7 l82 -1 0 -58 c0 -32 4 -58 10 -58 6 0 10 27 10
60 l0 60 41 0 c23 0 47 7 55 15 11 10 36 15 85 15 l69 0 1 -67 c1 -38 1 -75 0
-85 -1 -9 3 -19 9 -23 7 -4 10 24 10 84 l0 91 38 2 c20 1 51 1 69 -1 17 -1 34
3 38 9 3 5 0 10 -7 11 -34 1 -104 10 -116 14 -10 4 -12 19 -7 63 10 93 14
1022 4 1022 -5 0 -10 -39 -10 -87 l-2 -88 -8 70 c-5 39 -6 115 -3 170 3 55 7
168 9 250 2 83 9 177 15 209 14 72 19 717 8 951 -5 88 -10 627 -11 1197 l-3
1037 22 -5 c12 -3 24 -1 28 4 3 5 -8 12 -24 16 -17 3 -30 12 -30 20 0 8 -9 18
-20 21 -12 4 -66 47 -122 97 -117 105 -116 104 -187 157 -30 22 -57 39 -59 37
-18 -19 72 -118 165 -181 50 -34 140 -122 132 -129 -2 -2 -60 1 -129 6 -85 7
-230 7 -455 -1 l-330 -12 -25 29 c-14 16 -37 42 -51 58 -14 16 -60 62 -102
101 -42 40 -77 74 -77 76 0 1 174 1 387 -1 290 -3 397 0 425 9 21 7 38 16 38
21 0 4 -29 9 -65 10 -36 1 -80 3 -97 4 -116 11 -682 -6 -727 -22 -7 -2 -10
-11 -7 -20 3 -8 -1 -95 -10 -192 -12 -129 -14 -228 -9 -367 7 -225 9 -835 1
-842 -2 -3 -2 -11 1 -19 3 -8 -1 -14 -8 -14 -8 0 -5 -6 7 -16 16 -13 16 -15 2
-10 -15 5 -18 -1 -18 -36 0 -57 -12 -41 -48 67 -17 50 -50 135 -72 190 -23 55
-55 141 -71 192 -16 51 -57 154 -90 230 -33 76 -76 176 -94 223 -60 155 -85
215 -105 255 -26 51 -25 58 3 49 22 -7 22 -6 4 14 -11 11 -25 18 -31 16 -16
-6 -139 153 -131 167 4 5 3 8 -2 7 -10 -4 -93 85 -93 99 0 5 -14 22 -31 39
l-31 29 8 -30 c11 -43 61 -122 114 -180 25 -27 58 -67 74 -87 16 -21 35 -38
42 -38 8 0 14 -4 14 -8 0 -11 -708 -3 -743 8 -17 6 -26 6 -22 0 7 -12 -105
-13 -121 -2 -15 10 -89 112 -107 147 -14 28 -72 95 -82 95 -2 0 14 -27 35 -60
43 -63 46 -70 30 -70 -5 0 -10 6 -10 14 0 7 -25 42 -56 76 -30 34 -53 65 -50
67 3 3 13 0 21 -7 10 -8 19 -10 25 -4 6 6 58 6 127 2 220 -13 712 -14 702 -2
-12 15 -143 22 -539 30 -173 3 -318 8 -322 11 -5 2 -8 -2 -8 -9 0 -7 -15 5
-32 27 -18 21 -39 46 -46 54 -8 10 -7 4 2 -16z m2043 -406 c6 -35 6 -55 -2
-167 -3 -58 -7 -194 -8 -304 -2 -189 -3 -199 -22 -206 -19 -7 -20 -4 -17 69 2
42 2 74 -1 71 -6 -6 -15 -100 -23 -242 -7 -106 -7 -107 15 -101 19 5 21 12 21
95 0 67 3 89 13 85 9 -3 12 -51 12 -195 0 -104 -3 -194 -7 -198 -15 -14 -21 6
-20 58 1 29 -3 71 -8 93 -8 38 -9 38 -7 -18 1 -31 -1 -57 -4 -57 -3 0 -4 -11
-1 -25 2 -13 1 -32 -2 -42 -6 -15 -8 -15 -16 -3 -6 8 -10 27 -10 42 0 15 -4
29 -9 32 -5 4 -12 29 -16 56 -12 84 -27 59 -21 -32 5 -67 4 -79 -5 -63 -7 10
-14 44 -15 75 -2 30 -4 55 -5 55 -3 0 -8 64 -14 185 -4 63 -7 122 -7 130 -1 8
1 21 3 29 2 7 -1 15 -8 18 -12 4 -15 -35 -17 -224 -1 -51 -4 -89 -8 -85 -10
10 -23 180 -18 242 2 27 -9 805 -12 830 -5 55 5 49 119 -65 64 -64 118 -126
120 -138z m-1752 -4 c-5 -10 -7 -22 -6 -27 2 -10 2 -51 -5 -2086 -6 -1581 -6
-1590 -16 -1583 -19 11 -27 -10 -12 -32 23 -35 13 -50 -15 -26 -13 12 -25 21
-27 21 -1 0 -1 -35 2 -78 2 -43 0 -109 -5 -147 -5 -44 -5 -75 1 -82 5 -7 7
-16 4 -22 -7 -11 -8 -75 -3 -221 4 -113 -12 -100 -18 15 -12 237 -14 355 -4
355 8 0 8 5 -1 15 -6 8 -9 19 -5 25 3 6 -1 24 -9 41 -13 26 -13 29 -1 19 20
-17 21 6 0 26 -8 8 -12 21 -9 29 4 8 1 15 -5 15 -16 0 -16 -8 -7 -239 4 -85 4
-152 1 -149 -8 8 -37 432 -36 538 0 51 -5 90 -12 99 -9 12 -9 13 1 7 9 -5 12
8 13 56 1 35 0 68 -1 73 -1 6 -2 20 -2 32 0 13 -5 20 -10 17 -6 -4 -5 3 1 15
7 11 9 21 6 21 -4 0 -3 5 0 10 5 8 12 7 23 -2 12 -10 11 -6 -3 15 -15 23 -16
30 -5 37 7 4 9 13 6 19 -4 6 0 11 11 12 10 0 13 3 6 6 -7 2 -13 11 -13 18 0 8
-8 19 -17 24 -16 9 -16 12 -3 21 9 5 10 10 3 10 -7 0 -10 13 -9 33 4 47 4 47
24 40 14 -5 15 -3 5 7 -10 11 -16 10 -34 -6 -13 -10 -19 -13 -15 -6 4 6 4 17
0 24 -4 7 -9 24 -10 37 -2 20 -1 22 6 11 5 -8 10 -23 10 -33 0 -11 5 -17 13
-14 6 2 11 15 9 28 -1 13 -4 40 -6 60 -2 20 -7 43 -12 50 -7 12 -5 12 9 0 26
-21 20 3 -8 33 -16 17 -25 39 -25 59 0 24 3 28 10 17 5 -8 10 -25 10 -36 0
-12 7 -27 15 -34 18 -15 20 1 3 18 -9 9 -9 12 1 12 11 0 11 3 1 15 -10 12 -10
15 0 15 10 0 10 3 0 15 -9 10 -9 15 -1 15 6 0 11 13 11 29 0 23 -5 30 -22 33
-21 3 -23 9 -24 68 -2 60 -1 61 5 18 4 -26 11 -51 15 -55 5 -4 6 3 3 17 -4 14
-7 52 -7 85 0 42 -3 56 -10 45 -5 -8 -10 -13 -11 -10 -6 21 -3 190 3 190 4 0
8 -9 8 -20 0 -11 4 -20 9 -20 4 0 6 11 3 25 -2 14 -11 25 -18 25 -8 0 -14 10
-14 25 0 14 6 25 13 25 9 0 9 2 -1 9 -9 5 -13 37 -13 107 -1 54 0 104 1 109 1
6 1 15 -1 20 -7 23 -11 940 -5 1030 2 28 7 131 11 230 5 99 12 182 17 183 5 2
4 10 -3 18 -9 11 -9 18 1 29 7 8 9 15 4 15 -5 0 -9 114 -9 253 -1 138 -4 298
-8 355 -8 121 0 128 53 50 19 -29 45 -63 58 -77 34 -37 42 -85 41 -252 -2
-188 -1 -209 9 -209 4 0 8 90 7 200 0 110 4 200 8 200 10 0 -41 72 -117 164
-53 64 -48 61 54 -41 91 -90 111 -115 105 -130z m344 21 c12 -11 -17 -15 -128
-21 -67 -3 -124 -10 -128 -16 -6 -10 132 -5 322 12 61 5 187 12 280 16 94 3
180 7 192 9 12 3 26 -1 31 -7 11 -14 33 -100 27 -105 -2 -2 -18 16 -36 42 -46
65 -50 48 -5 -21 49 -77 128 -238 166 -342 17 -46 44 -113 60 -147 30 -66 60
-147 60 -165 0 -6 11 -34 24 -62 13 -29 26 -63 30 -77 8 -27 13 -41 46 -115
26 -58 43 -98 45 -105 0 -3 6 -15 13 -27 6 -12 41 -109 76 -215 36 -107 78
-223 94 -259 16 -36 33 -81 37 -100 3 -19 16 -59 27 -89 11 -30 21 -62 23 -70
3 -12 37 -97 75 -185 72 -169 149 -299 166 -282 3 3 -6 40 -21 83 -26 76 -27
85 -31 364 -3 157 -6 331 -7 388 -2 86 0 102 13 103 12 1 11 2 -2 6 -14 3 -16
11 -11 36 3 18 10 35 16 38 5 4 5 9 0 12 -5 3 -8 34 -6 69 1 35 5 313 7 618 2
305 5 565 5 577 1 23 2 23 164 21 89 -1 235 2 323 6 l161 8 6 -33 c8 -55 13
-1884 9 -3563 -1 -428 1 -782 3 -786 3 -4 7 -103 10 -220 l5 -213 -38 7 c-20
3 -137 6 -258 6 l-221 0 0 25 c0 13 3 22 8 19 5 -3 9 0 9 5 0 6 -2 11 -4 11
-2 0 -12 3 -21 7 -15 5 -16 1 -10 -25 6 -29 4 -32 -18 -32 -18 0 -26 6 -29 25
-4 17 -1 25 8 25 21 0 17 9 -16 37 -16 13 -30 33 -30 44 0 18 4 18 48 3 9 -4
27 -8 40 -10 19 -2 21 0 12 11 -7 8 -15 13 -18 12 -17 -4 -101 27 -106 40 -3
8 -1 11 4 8 16 -10 12 2 -7 21 -10 10 -19 25 -20 33 -2 15 -56 170 -82 234 -6
16 -11 34 -11 42 0 8 -4 17 -10 20 -15 9 -54 100 -84 195 -26 84 -32 100 -54
150 -7 14 -23 59 -36 100 -21 65 -58 160 -99 253 -6 15 -15 27 -18 27 -12 0
-16 49 -5 53 8 3 8 8 0 18 -6 8 -24 46 -39 84 -15 39 -33 80 -41 93 -8 12 -13
26 -10 31 3 4 -5 30 -18 57 -43 88 -74 164 -121 299 -10 28 -23 59 -30 70 -6
11 -15 33 -19 50 -7 27 -56 160 -142 382 -20 51 -38 111 -40 135 -4 42 -14 66
-14 35 0 -10 -4 -17 -8 -17 -13 0 -32 23 -32 39 0 9 -11 21 -25 28 l-25 11 22
-39 c12 -21 25 -39 30 -39 4 0 8 -7 8 -16 0 -14 -3 -14 -15 -4 -23 19 -29 5
-9 -25 15 -22 16 -40 10 -128 -4 -56 -7 -151 -6 -212 6 -593 -3 -1985 -13
-2002 -5 -7 -4 -21 1 -30 6 -10 12 -44 13 -77 l4 -58 -429 1 c-237 1 -431 3
-432 4 -15 15 -22 2500 -7 2504 5 2 6 141 3 310 -3 170 -5 668 -5 1107 0 618
3 800 12 803 9 3 10 9 1 22 -6 10 -9 25 -5 34 5 13 27 14 154 10 81 -3 150 -7
152 -9z m2321 -1445 c0 -5 -5 -9 -11 -9 -8 0 -7 -6 2 -17 10 -11 10 -14 2 -9
-7 4 -13 3 -13 -3 0 -5 4 -12 10 -16 6 -3 6 -15 0 -30 -5 -13 -7 -34 -4 -47 8
-34 12 -167 7 -189 -3 -10 -10 -19 -15 -19 -6 0 -7 7 -4 15 4 11 0 15 -12 13
-14 -3 -17 7 -20 63 -2 36 1 91 6 121 5 33 5 63 0 72 -12 21 1 44 14 25 6 -9
7 -6 3 11 -5 21 -2 26 14 27 12 1 21 -2 21 -8z m-5 -436 c-3 -13 -12 -23 -21
-23 -13 0 -14 -2 -1 -14 10 -11 15 -43 16 -111 1 -53 6 -107 11 -121 6 -14 6
-34 1 -47 -5 -12 -7 -37 -5 -55 2 -18 -1 -32 -6 -32 -6 0 -10 13 -10 29 0 29
-21 57 -33 44 -4 -3 -7 1 -7 11 0 9 -7 19 -15 22 -8 4 -15 11 -15 16 0 7 5 6
13 -1 16 -13 28 -5 20 15 -3 8 -1 14 3 14 10 0 11 206 2 215 -3 4 -4 15 -1 26
5 19 18 25 26 12 2 -5 2 -2 1 5 -2 6 2 12 8 12 9 0 9 3 1 11 -6 6 -9 18 -6 27
9 23 25 -27 18 -55z m-30 -1293 c-3 -6 12 -13 35 -16 22 -4 41 -12 41 -18 3
-24 -3 -131 -8 -139 -12 -19 -23 9 -24 61 l-2 57 -7 -70 c-4 -38 -6 -79 -3
-90 10 -49 9 -67 -4 -81 -8 -7 -11 -19 -7 -26 6 -10 4 -10 -8 0 -14 11 -17 10
-21 -5 -3 -12 -5 -8 -6 10 -1 21 3 27 15 25 10 -2 19 3 21 10 3 6 -3 12 -12
12 -16 0 -16 2 -1 24 10 15 12 27 6 31 -6 3 -10 1 -10 -6 0 -7 -3 -9 -6 -6 -4
4 -1 13 5 21 9 10 9 16 1 21 -7 5 -9 31 -5 81 5 51 3 74 -4 74 -6 0 -11 12
-11 26 0 14 4 23 10 19 6 -4 8 -10 5 -15z m-1315 -257 c8 -16 19 -35 26 -43 6
-8 28 -58 49 -110 21 -52 53 -129 72 -169 18 -41 31 -81 29 -88 -3 -7 -1 -13
5 -13 6 0 9 -7 5 -15 -3 -8 2 -18 10 -23 9 -5 16 -12 15 -15 0 -4 6 -21 14
-39 7 -18 11 -36 9 -39 -2 -4 3 -12 11 -19 11 -9 12 -17 4 -32 -7 -13 -7 -23
-2 -27 5 -3 15 -22 21 -41 l12 -35 -20 25 c-11 14 -25 41 -31 60 -7 19 -25 62
-41 94 -16 32 -45 100 -63 150 -18 50 -49 130 -69 178 -20 48 -36 96 -36 107
0 11 -4 21 -10 23 -11 4 -41 98 -31 98 4 0 14 -12 21 -27z m1358 -144 c1 -34
12 -52 19 -31 8 22 31 13 36 -15 6 -33 -3 -132 -13 -138 -4 -2 -15 2 -26 9
-14 10 -19 27 -19 64 0 28 -6 57 -12 63 -11 10 -13 -4 -13 -70 0 -70 2 -82 15
-77 20 7 19 1 -2 -20 -13 -13 -14 -19 -5 -22 6 -2 12 -8 12 -14 0 -6 -6 -6
-15 2 -8 7 -15 9 -15 4 0 -5 -4 -3 -8 4 -13 20 -15 202 -2 202 7 0 8 6 0 19
-13 25 -13 44 0 36 6 -4 8 -11 5 -16 -12 -18 11 -9 25 11 8 11 15 20 16 20 0
0 1 -14 2 -31z m-2877 -166 c1 -21 0 -87 0 -148 -5 -334 -1 -513 14 -582 3
-13 1 -23 -4 -23 -12 0 -28 22 -29 40 -4 60 -8 696 -4 720 6 42 22 37 23 -7z"/>
<path d="M16747 7323 c-4 -3 -7 -55 -7 -115 l0 -108 45 0 c50 0 62 17 15 22
l-31 3 -2 88 c-2 48 -1 87 2 88 3 1 22 2 40 2 l35 2 -3 -99 c-2 -78 0 -97 11
-94 19 6 24 198 6 210 -16 9 -102 11 -111 1z"/>
<path d="M16938 7324 c-5 -4 -8 -53 -8 -110 0 -111 2 -113 68 -114 32 0 27 18
-5 22 -28 3 -28 3 -31 89 l-3 87 28 5 c15 3 31 3 35 0 5 -2 8 -47 8 -99 0 -93
11 -120 29 -71 9 23 6 175 -4 185 -9 9 -109 14 -117 6z"/>
<path d="M17130 7311 c-5 -11 -10 -56 -10 -100 0 -72 2 -82 21 -92 23 -12 95
-7 110 8 4 4 5 52 2 106 l-6 97 -53 0 c-42 0 -55 -4 -64 -19z"/>
<path d="M16745 6917 c-3 -7 -4 -60 -3 -118 3 -101 4 -104 27 -107 13 -2 39
-1 58 3 l34 6 -3 112 -3 112 -53 3 c-37 2 -54 -1 -57 -11z"/>
<path d="M17137 6923 c-3 -5 -6 -55 -8 -113 l-4 -105 35 -5 c19 -3 49 -2 65 3
l30 9 2 101 c2 71 -1 104 -10 109 -15 10 -104 10 -110 1z"/>
<path d="M16740 6385 l0 -115 43 0 c89 0 88 -1 85 119 l-3 106 -62 3 -63 3 0
-116z"/>
<path d="M17134 6085 c-4 -9 -7 -56 -8 -106 -1 -107 5 -116 77 -105 l47 7 0
110 0 109 -55 0 c-41 0 -57 -4 -61 -15z"/>
<path d="M16768 5703 c-20 -5 -31 -77 -26 -168 3 -68 9 -72 84 -60 l44 6 0
108 0 109 -31 6 c-33 6 -44 6 -71 -1z"/>
<path d="M16965 5701 l-30 -6 -3 -106 -2 -107 45 -6 c78 -12 85 -2 85 119 0
97 -1 105 -19 105 -11 0 -25 2 -33 4 -7 2 -26 1 -43 -3z m75 -116 l0 -95 -40
0 c-38 0 -40 1 -41 33 0 17 -2 43 -4 57 -2 14 -2 42 1 63 6 36 7 37 45 37 l39
0 0 -95z"/>
<path d="M17148 5703 c-10 -2 -18 -10 -18 -16 -1 -7 -3 -52 -7 -101 -5 -79 -3
-91 13 -103 19 -14 82 -17 101 -5 18 12 21 211 2 223 -14 9 -60 10 -91 2z"/>
<path d="M16746 5264 c-17 -17 -20 -91 -8 -173 8 -50 18 -55 90 -45 l42 6 0
108 c0 103 -1 108 -22 114 -41 11 -86 6 -102 -10z m102 -111 l3 -93 -51 0 -52
0 3 88 c3 95 8 103 64 99 l30 -2 3 -92z"/>
<path d="M16937 5274 c-4 -4 -7 -56 -7 -115 l0 -107 29 -7 c16 -3 46 -3 65 1
l37 6 -3 112 -3 111 -55 3 c-31 2 -59 0 -63 -4z m91 -26 c7 -7 12 -42 12 -88
0 -83 -9 -100 -51 -100 l-28 0 -3 91 c-2 73 0 93 12 100 21 12 44 11 58 -3z"/>
<path d="M17158 5273 l-28 -4 0 -109 c0 -77 4 -109 13 -112 6 -3 33 -3 60 0
l47 4 0 108 c0 103 -1 108 -22 114 -13 3 -27 5 -33 4 -5 0 -22 -3 -37 -5z"/>
<path d="M16742 4738 l3 -112 52 -4 c64 -4 71 6 73 109 3 131 9 119 -65 119
l-66 0 3 -112z m92 86 c13 -5 16 -23 16 -96 l0 -89 -42 3 -43 3 -3 79 c-2 44
-1 85 2 93 6 14 43 17 70 7z"/>
<path d="M16944 4837 c-2 -7 -3 -58 -2 -112 l3 -98 36 -4 c73 -7 79 1 84 112
3 71 1 102 -8 107 -21 13 -107 9 -113 -5z"/>
<path d="M17136 4828 c-3 -13 -6 -62 -6 -110 0 -84 1 -88 23 -89 12 0 31 -2
43 -4 42 -8 52 13 56 120 l3 100 -56 3 c-52 3 -57 1 -63 -20z"/>
<path d="M16571 4441 c-10 -6 -13 -35 -13 -112 l-1 -104 41 -3 c75 -6 81 3 81
123 l0 105 -47 0 c-26 0 -53 -4 -61 -9z"/>
<path d="M16759 4438 c-10 -196 -10 -208 4 -214 27 -10 72 -10 96 0 22 10 23
14 18 71 -3 33 -2 79 2 102 9 49 4 53 -70 53 -32 0 -49 -4 -50 -12z"/>
<path d="M16946 4442 c-2 -4 -6 -54 -7 -112 l-3 -104 28 -9 c19 -6 41 -5 67 3
l39 13 0 109 0 108 -59 0 c-33 0 -62 -3 -65 -8z m92 -110 c3 -101 -2 -111 -53
-98 -24 6 -25 9 -25 95 0 95 2 99 55 96 18 -2 20 -10 23 -93z"/>
<path d="M17178 4442 l-27 -3 -3 -102 c-2 -60 1 -105 7 -110 9 -6 80 0 95 8 3
2 4 51 2 109 -4 117 4 107 -74 98z"/>
<path d="M16569 3973 c-2 -99 3 -168 13 -174 5 -3 27 -3 49 1 21 4 39 5 39 1
0 -3 4 1 9 9 4 8 3 55 -3 105 -10 80 -14 91 -36 102 -14 7 -35 13 -47 13 -21
0 -23 -5 -24 -57z"/>
<path d="M16962 4012 c-16 -16 -18 -33 -18 -113 l1 -94 48 -3 c71 -5 75 3 70
111 -3 50 -8 95 -12 98 -3 4 -20 10 -38 14 -24 5 -36 2 -51 -13z"/>
<path d="M16973 3643 c-21 -4 -23 -11 -25 -74 -4 -144 -7 -132 32 -142 23 -6
41 -5 52 2 10 6 23 11 30 11 16 0 12 178 -4 197 -10 13 -40 15 -85 6z"/>
<path d="M16755 3632 c-3 -3 -5 -48 -5 -99 l0 -94 32 -13 c27 -12 35 -11 62 4
30 16 31 19 32 88 1 40 4 79 8 87 3 8 0 18 -6 21 -14 9 -115 14 -123 6z"/>
<path d="M17145 3628 c-2 -7 -6 -52 -8 -100 l-5 -88 42 0 c67 1 76 14 76 114
l0 86 -50 0 c-32 0 -52 -5 -55 -12z"/>
<path d="M4768 7968 c-2 -24 -7 -32 -18 -29 -48 13 -921 4 -884 -9 50 -18 683
-31 792 -16 52 7 62 6 62 -6 0 -8 -11 -20 -25 -26 -14 -6 -25 -16 -25 -22 0
-5 -5 -10 -12 -10 -6 0 -18 -7 -27 -15 -9 -9 -41 -34 -71 -58 -30 -23 -70 -55
-89 -72 -18 -16 -37 -29 -41 -28 -4 1 -18 -13 -31 -31 l-23 -34 -226 5 c-257
6 -330 22 -110 24 191 1 293 8 304 19 6 6 -28 7 -85 5 -52 -3 -163 -6 -247 -6
-83 -1 -155 -5 -158 -10 -3 -5 -10 -6 -16 -3 -6 4 -14 0 -19 -7 -8 -12 -10
-12 -18 0 -11 18 -101 16 -113 -2 -6 -9 -8 -9 -8 1 0 6 -11 12 -25 12 -14 0
-25 -4 -25 -9 0 -5 -10 -7 -22 -4 -17 3 -19 2 -9 -5 10 -7 -1 -12 -38 -17 -29
-4 -54 -5 -57 -3 -2 3 16 18 40 34 117 77 315 215 326 229 27 32 -2 26 -67
-14 -37 -23 -143 -92 -234 -154 -92 -62 -175 -117 -185 -124 -17 -10 -16 -11
11 -10 28 2 30 -1 36 -43 6 -40 11 -455 13 -1045 l1 -200 -108 -3 -107 -3 -39
41 c-49 51 -73 52 -107 0 -20 -30 -33 -40 -53 -40 l-26 0 -2 590 c-3 535 1
627 20 578 7 -16 0 267 -8 342 -3 30 -3 72 1 92 5 34 9 37 42 40 81 8 -283 7
-593 -2 -358 -10 -365 -11 -430 -70 -44 -41 -189 -124 -193 -111 -6 17 -22 13
-22 -5 0 -19 -19 -36 -74 -65 l-38 -20 -15 20 c-18 26 -33 27 -26 2 3 -12 -3
-24 -18 -35 -18 -13 -20 -16 -7 -16 14 0 17 -10 17 -52 -1 -29 2 -127 5 -218
3 -91 11 -289 16 -440 6 -151 8 -297 6 -325 -3 -27 -7 -126 -11 -220 -3 -93
-8 -199 -12 -235 -4 -36 -5 -69 -4 -75 2 -5 5 -98 7 -205 2 -107 8 -305 15
-440 10 -220 9 -398 -5 -1155 0 -44 2 -107 7 -140 4 -33 10 -87 13 -120 7 -73
34 -226 42 -240 3 -5 7 -22 9 -38 7 -65 112 -295 183 -402 59 -89 51 -87 -53
12 -137 133 -56 37 127 -148 111 -113 193 -187 228 -207 78 -45 85 -56 92
-140 5 -68 4 -74 -17 -82 -17 -7 311 -17 402 -12 8 0 42 -5 75 -12 80 -17 731
-22 741 -7 4 7 -16 11 -62 12 -37 1 -77 3 -88 5 -11 2 -46 7 -77 10 -32 4 -58
10 -58 15 0 11 87 12 94 1 3 -5 42 -3 86 3 45 7 102 9 128 4 35 -5 49 -3 55 7
4 8 26 17 47 20 22 4 40 11 40 16 0 4 10 12 23 17 12 5 76 34 141 65 65 31
121 55 124 52 2 -3 6 -44 7 -90 l3 -85 -177 3 c-258 6 -264 -19 -8 -30 82 -4
122 -1 164 11 39 12 59 13 66 6 16 -16 35 -13 57 9 11 11 27 20 35 20 8 0 15
7 15 15 0 8 7 15 16 15 13 0 14 3 4 15 -10 12 -6 18 22 35 34 21 74 27 63 10
-3 -5 -13 -10 -21 -10 -8 0 -14 -5 -14 -10 0 -7 51 -10 140 -9 78 0 140 5 140
10 0 5 -12 9 -27 9 -36 0 -73 10 -73 19 0 4 26 6 58 3 41 -3 54 -1 47 7 -13
14 -45 19 -125 22 -64 1 -64 2 -27 12 46 13 47 22 2 23 -19 0 -35 -3 -35 -8 0
-4 -8 -3 -18 3 -12 8 -38 9 -75 5 -54 -7 -72 -18 -44 -29 8 -4 7 -6 -3 -6 -8
-1 -21 8 -28 19 -7 11 -18 20 -26 20 -8 0 -16 7 -20 15 -5 15 19 22 28 8 5 -9
201 -9 488 1 145 4 221 3 253 -5 49 -12 73 -6 34 10 -20 7 -174 18 -289 21
-16 0 -21 3 -13 8 7 4 41 7 75 6 169 -6 239 -6 245 0 3 3 -25 7 -63 7 -38 1
-80 3 -94 5 -49 7 -275 8 -302 1 -21 -6 -26 -4 -22 7 7 18 63 24 184 20 100
-4 154 2 145 16 -7 11 22 21 40 14 8 -4 15 -1 15 4 0 14 -59 21 -196 25 -61 2
-115 6 -120 9 -5 3 -25 3 -44 1 -19 -2 -52 -5 -73 -7 -20 -2 -39 -1 -42 3 -5
9 -89 7 -162 -3 -32 -5 -53 -4 -53 1 0 6 26 34 58 64 113 107 388 398 362 384
-13 -8 -13 -7 0 11 8 10 20 22 25 26 6 4 6 8 2 8 -5 0 1 13 12 29 12 16 21 36
21 45 0 9 5 16 10 16 6 0 10 9 10 19 0 11 4 21 8 23 12 5 58 125 83 215 91
333 112 437 111 556 -1 67 -6 122 -12 122 0 0 -2 74 -4 165 -3 91 -8 242 -12
335 -4 94 -6 179 -5 190 2 33 3 69 2 95 -1 14 -2 167 -2 340 1 173 1 554 1
845 0 292 0 638 0 770 0 132 -2 293 -4 358 l-3 117 38 22 c22 12 39 25 39 30
0 11 -14 10 -25 -1 -20 -19 -50 -17 -51 4 -1 11 -2 35 -3 53 0 17 -5 32 -10
32 -6 0 -11 -15 -13 -32z m-1778 -60 c0 -7 -34 -35 -76 -63 -42 -27 -101 -72
-132 -98 -84 -74 -128 -100 -157 -95 -25 5 -35 -7 -12 -15 37 -13 -24 -19
-234 -23 -178 -4 -234 -2 -240 7 -5 9 -55 13 -183 13 -97 1 -176 4 -176 9 0 4
4 7 8 7 5 0 33 18 63 41 30 22 90 60 134 84 44 24 93 57 109 74 l30 31 235 0
c209 0 286 4 525 25 33 3 62 7 64 10 11 10 42 5 42 -7z m-14 -160 c-9 -162
-19 -447 -18 -518 1 -36 4 -266 7 -513 l6 -447 -23 -9 c-37 -15 -129 -41 -142
-41 -6 0 -23 11 -38 24 -25 23 -27 29 -34 155 -4 72 -10 133 -13 135 -3 2 -5
-61 -3 -140 1 -88 -1 -144 -7 -144 -6 0 -11 51 -13 118 -3 136 0 194 11 187 5
-2 6 8 4 23 -3 15 -4 119 -4 232 1 113 0 234 0 270 -3 156 3 315 11 315 0 0 3
47 5 104 l5 104 37 33 c21 18 42 33 46 34 5 0 6 -18 2 -40 -4 -21 -3 -45 2
-52 5 -8 10 3 14 32 4 25 3 49 -2 54 -5 6 18 36 56 73 36 35 65 69 65 76 0 12
19 37 28 37 2 0 1 -46 -2 -102z m1780 -19 c-7 -115 -8 -1392 -1 -1789 8 -433
4 -582 -16 -606 -6 -8 -6 -13 0 -16 6 -2 12 -67 15 -158 10 -289 16 -425 22
-449 4 -18 2 -22 -10 -18 -9 4 -16 2 -16 -3 0 -6 7 -10 16 -10 8 0 12 -5 9
-10 -4 -6 -10 -8 -14 -5 -5 2 -11 -33 -15 -78 -12 -150 -25 -222 -27 -146 -1
71 -5 109 -12 115 -4 4 -7 -10 -7 -32 0 -21 -2 -71 -3 -111 -2 -40 1 -67 5
-60 5 8 8 4 8 -11 0 -13 -4 -21 -9 -17 -5 3 -12 1 -15 -4 -3 -5 1 -11 9 -15 8
-3 13 -11 10 -18 -2 -7 -6 -53 -10 -103 -3 -49 -8 -105 -11 -122 -4 -21 -2
-33 5 -33 6 0 11 -4 11 -10 0 -5 -6 -7 -14 -4 -10 4 -13 0 -10 -13 9 -33 -52
-223 -75 -237 -11 -7 -5 64 7 76 6 6 8 16 6 23 -3 7 -1 16 5 20 6 3 11 15 11
25 0 10 6 20 13 23 9 3 9 7 1 18 -13 17 -10 77 5 92 13 13 15 57 3 57 -13 0
-34 -51 -39 -93 -2 -20 -10 -51 -17 -68 -11 -27 -15 -29 -27 -17 -7 8 -23 12
-36 10 -19 -4 -22 -1 -16 14 6 17 5 17 -10 5 -9 -7 -17 -9 -17 -3 0 17 30 23
36 7 8 -21 24 -19 25 3 0 14 2 14 9 -3 7 -19 9 -18 19 8 14 35 14 47 0 47 -5
0 -7 -5 -3 -12 5 -8 2 -9 -9 -5 -10 3 -17 2 -17 -3 0 -6 -7 -10 -15 -10 -8 0
-15 5 -15 11 0 5 5 7 11 4 6 -4 13 2 16 13 3 14 11 18 26 15 15 -3 18 -2 9 4
-10 8 -7 15 12 35 14 14 27 33 29 44 1 10 6 25 10 32 5 6 5 17 2 22 -4 6 -1
17 5 25 9 11 9 19 2 28 -13 15 1 43 16 33 7 -4 8 4 2 25 -5 18 -7 35 -5 40 3
4 1 10 -5 14 -5 3 -10 0 -11 -7 -1 -25 -27 57 -29 92 -2 32 -3 33 -9 10 l-7
-25 -12 30 c-12 29 -12 29 -7 3 3 -16 1 -28 -5 -28 -5 0 -10 9 -10 19 0 11 -7
27 -16 35 -13 14 -14 24 -4 72 9 44 15 54 27 50 14 -6 14 -4 2 10 -11 14 -11
18 4 29 9 7 17 22 17 34 0 12 6 21 15 21 8 0 16 6 17 13 0 6 2 17 3 22 2 6 4
15 5 20 5 23 -2 73 -17 115 -8 25 -17 70 -19 100 -2 49 -11 164 -19 257 -2 18
-7 38 -12 45 -4 7 -8 20 -9 28 -1 8 -2 25 -3 38 0 12 -7 22 -14 22 -17 0 -34
31 -43 76 -3 22 -11 47 -16 58 -7 13 -7 16 1 11 8 -4 11 4 9 29 -1 19 -6 32
-10 30 -4 -3 -8 -3 -8 0 0 2 -3 12 -7 22 -4 12 -3 15 5 10 15 -9 16 28 2 55
-6 10 -13 81 -15 157 -4 128 -15 400 -20 485 -1 21 2 40 7 43 5 3 5 11 1 17
-5 7 -9 66 -9 132 -1 66 -3 192 -4 280 -1 88 -1 303 0 478 l2 318 26 17 c42
27 63 44 109 88 33 31 42 46 36 60 -7 18 -6 18 11 2 19 -20 31 -24 21 -7 -9
13 2 59 14 59 5 0 28 18 52 40 24 22 48 40 53 40 5 0 6 -43 2 -101z m-2731
-118 c72 -2 103 -5 90 -11 -11 -5 -36 -9 -55 -10 -19 -1 -44 -5 -55 -10 -12
-5 111 -8 288 -8 169 0 310 -2 312 -4 3 -3 7 -949 4 -1018 0 -8 0 -73 1 -145
0 -71 1 -159 0 -195 l0 -65 -57 -34 c-51 -31 -59 -33 -88 -22 -53 19 -84 14
-117 -19 -25 -26 -29 -36 -26 -68 5 -35 1 -41 -79 -119 -79 -79 -85 -83 -128
-83 -74 0 -106 -54 -74 -124 10 -22 6 -35 -40 -111 -28 -47 -51 -90 -51 -95 0
-11 -30 -25 -73 -35 -48 -10 -62 -83 -26 -129 l22 -28 -23 -101 c-20 -92 -25
-104 -54 -122 -27 -18 -31 -26 -34 -73 -3 -45 0 -55 22 -76 25 -22 26 -29 26
-129 l0 -106 -30 -21 c-31 -22 -47 -72 -36 -108 4 -11 23 -27 44 -35 36 -15
38 -17 65 -121 l29 -105 -21 -27 c-12 -15 -21 -35 -21 -45 0 -23 46 -59 77
-59 29 0 63 -35 88 -89 17 -39 17 -40 -4 -67 -27 -34 -27 -68 0 -95 18 -18 30
-20 70 -17 53 5 59 2 119 -70 40 -49 52 -97 32 -129 -10 -16 -11 -27 -3 -42
26 -48 83 -64 131 -36 14 8 30 17 37 21 14 7 162 -82 170 -103 3 -7 12 -13 20
-13 10 0 12 -6 8 -20 -3 -11 -2 -20 3 -20 6 0 12 5 14 11 6 17 38 -1 38 -22 0
-21 -28 -39 -50 -31 -32 10 -50 34 -43 60 4 18 2 23 -8 20 -26 -8 -22 -61 5
-87 44 -41 135 -18 123 31 -4 14 1 18 19 18 13 0 24 -5 24 -12 0 -9 -63 -233
-127 -450 -4 -14 -19 -18 -72 -20 -60 -3 -66 -5 -69 -26 -7 -49 -46 -34 -141
53 -24 22 -41 34 -37 28 19 -34 -22 -4 -107 77 -139 132 -284 353 -327 496
-41 137 -49 170 -71 289 -11 61 -22 126 -25 145 -10 64 16 5 46 -106 29 -105
60 -197 66 -191 2 1 -10 45 -27 97 -86 274 -91 305 -94 550 -1 124 2 304 6
400 7 154 -5 771 -17 885 -2 22 -3 198 -2 390 4 597 3 888 -2 1214 l-5 315 24
6 c14 3 61 5 105 4 45 -1 131 -2 191 -3z m1937 -34 c4 -7 53 -10 140 -9 112 3
263 -9 273 -20 2 -2 6 -293 9 -648 7 -738 13 -1090 21 -1206 l6 -81 -26 5
c-15 2 -37 20 -52 41 -15 20 -47 63 -72 95 -37 49 -44 65 -42 98 3 54 -40 98
-98 98 -32 0 -52 9 -103 48 -35 27 -71 53 -82 59 -11 6 -20 23 -21 40 -3 40
-32 82 -62 89 -15 4 -39 0 -59 -9 -32 -16 -36 -15 -121 17 -77 30 -90 38 -105
69 -9 19 -28 43 -41 54 l-25 19 -5 270 c-3 148 -8 321 -11 384 -3 63 -8 198
-11 300 -3 102 -7 194 -9 205 -2 11 -6 37 -10 57 l-7 37 158 4 c200 4 346 -2
355 -16z m-622 -1348 c25 -1 59 -7 76 -15 29 -13 32 -18 38 -80 4 -37 5 -68 3
-70 -2 -2 -30 1 -63 7 -32 6 -100 12 -149 13 -50 1 -96 5 -102 9 -6 4 -13 3
-15 -2 -3 -9 -128 -25 -128 -16 0 25 87 121 106 117 8 -2 13 2 12 9 -2 8 11
13 33 15 30 2 48 -6 103 -47 36 -28 66 -57 66 -65 0 -11 10 -6 30 14 17 17 30
34 30 38 0 5 -5 3 -12 -4 -20 -20 -42 -14 -87 24 -34 29 -39 39 -30 50 7 8 19
12 28 10 9 -3 36 -6 61 -7z m260 -61 c47 -14 200 -87 200 -96 0 -4 15 -14 33
-23 135 -64 220 -119 207 -133 -8 -7 -188 -10 -235 -3 -22 3 -74 23 -115 44
-41 22 -99 49 -127 61 -78 33 -73 41 41 61 32 6 62 8 67 5 5 -3 9 0 9 7 0 12
-103 8 -146 -6 -18 -6 -22 -2 -28 28 -12 65 10 78 94 55z m-790 -29 c0 -6 8
-8 19 -4 30 9 71 -15 71 -42 0 -28 11 -29 35 -3 24 26 33 25 33 -4 0 -22 -7
-26 -77 -41 -42 -10 -80 -21 -86 -25 -5 -4 -30 -13 -54 -20 -35 -9 -45 -9 -52
2 -11 16 -12 37 -1 23 6 -9 42 -17 42 -10 0 2 -7 11 -16 19 -11 12 -12 20 -5
33 9 16 11 16 20 -7 l10 -25 0 28 c1 34 14 35 29 2 6 -14 19 -25 27 -25 14 0
14 4 -3 28 -10 15 -21 35 -25 44 -4 11 -13 15 -29 11 -22 -5 -22 -4 2 10 30
18 60 21 60 6z m-188 -115 c-3 -54 -7 -67 -22 -71 -10 -3 -17 -10 -14 -17 2
-6 -8 -20 -23 -31 -14 -11 -60 -46 -100 -78 -41 -32 -76 -57 -78 -55 -1 1 1
28 5 58 4 30 5 61 3 67 -6 15 35 33 69 31 13 -1 36 -1 52 0 28 2 28 3 11 15
-12 10 -14 16 -7 21 9 5 8 15 -3 36 l-15 29 52 31 c29 16 58 30 63 30 6 0 9
-26 7 -66z m668 15 c52 -5 110 -14 128 -20 37 -12 37 -15 33 -193 -2 -81 -9
-116 -37 -201 -19 -57 -34 -111 -34 -119 0 -9 -4 -24 -9 -34 -16 -30 -115
-380 -131 -464 -8 -40 4 -54 13 -15 3 12 26 92 51 177 25 85 62 216 81 290 40
152 54 190 66 190 14 0 11 -417 -3 -443 -6 -12 -41 -65 -78 -117 -36 -52 -70
-102 -74 -110 -12 -25 72 72 107 122 17 26 35 48 40 48 4 0 7 -27 7 -60 l0
-60 -51 -40 c-28 -22 -58 -44 -67 -49 -9 -5 -14 -12 -10 -16 6 -7 51 21 94 58
27 22 41 7 40 -42 -1 -34 -3 -35 -64 -54 -51 -14 -67 -16 -78 -6 -8 7 -13 18
-10 26 3 7 -1 13 -9 13 -8 0 -15 4 -15 9 0 5 -10 12 -22 16 -63 21 -57 -24
-63 480 -6 464 -9 583 -18 591 -3 3 -4 -234 -2 -525 l2 -531 -21 0 c-18 0 -24
11 -40 78 -25 106 -76 264 -90 281 -7 10 -12 121 -14 362 l-4 347 59 7 c32 4
63 8 68 9 17 5 57 4 155 -5z m-311 -161 c-2 -79 -6 -170 -9 -203 -7 -59 -9
-53 -15 40 -2 22 -6 76 -10 120 -4 44 -7 88 -6 98 0 9 -4 17 -9 17 -5 0 -11 8
-14 18 -4 15 0 -79 9 -234 4 -64 23 -134 35 -134 6 0 10 -5 10 -11 0 -5 -5 -7
-12 -3 -8 5 -9 2 -3 -12 8 -17 9 -464 1 -471 -4 -4 -145 172 -148 186 -2 6
-24 34 -50 62 -27 29 -50 64 -53 82 -18 98 -31 241 -30 353 0 127 0 128 25
141 46 23 94 42 150 58 30 9 66 20 80 24 52 18 51 21 49 -131z m662 55 c136
-69 200 -111 302 -198 106 -90 172 -174 238 -302 166 -318 193 -652 82 -1008
-25 -81 -96 -233 -136 -289 -44 -64 -158 -195 -199 -230 -96 -83 -308 -211
-322 -195 -2 2 -27 72 -56 154 -48 134 -54 160 -57 250 -3 55 -1 120 2 145 l7
44 33 -54 c82 -133 239 -370 242 -366 6 6 -41 85 -154 261 -53 83 -102 161
-108 175 -7 14 -15 64 -18 113 -5 72 -4 87 8 87 8 0 15 -4 15 -8 0 -16 470
-403 488 -402 8 1 -17 22 -119 104 -41 33 -145 121 -231 195 l-158 135 0 59
c0 32 3 57 8 55 125 -65 536 -236 602 -252 30 -7 -23 18 -140 67 -241 100
-408 172 -435 187 -25 14 -31 24 -33 59 l-3 42 43 -5 c199 -26 750 -65 738
-53 -3 4 -114 15 -245 27 -248 21 -435 39 -470 45 -11 2 -30 4 -43 4 -22 1
-23 5 -20 57 l3 56 145 38 c315 82 596 163 583 167 -14 5 -74 -10 -528 -131
-218 -59 -215 -59 -215 2 0 26 4 52 8 58 4 5 66 46 137 89 72 43 202 125 290
183 88 57 172 112 187 121 16 9 28 20 28 24 0 10 -71 -29 -150 -84 -79 -53
-482 -299 -492 -299 -12 0 -10 128 4 153 6 12 58 77 115 145 58 67 102 122 99
122 -6 0 -121 -119 -176 -182 -17 -21 -36 -38 -41 -38 -5 0 -6 33 -4 73 3 39
7 203 9 362 3 160 5 291 5 293 3 7 29 -4 132 -55z m-1211 17 c0 -5 -11 -12
-24 -16 -25 -6 -36 -40 -36 -119 0 -58 -11 -69 -62 -67 -24 1 -50 -2 -58 -8
-11 -7 -1 -10 38 -10 l53 0 -56 -65 c-30 -36 -58 -66 -62 -68 -7 -2 -63 -107
-63 -119 0 -4 -17 -34 -37 -68 -20 -34 -38 -72 -39 -84 -1 -11 -15 -61 -29
-111 -15 -49 -31 -113 -36 -142 -5 -29 -13 -62 -17 -75 -9 -27 -8 -220 2 -273
4 -19 4 -35 0 -35 -4 0 -26 21 -50 47 -43 46 -44 48 -30 78 46 99 59 156 41
185 -5 8 -12 33 -15 55 -3 22 -9 38 -15 35 -11 -5 -11 -7 5 -65 21 -76 21 -84
2 -103 -10 -10 -17 -23 -15 -29 2 -6 -8 -36 -22 -66 -29 -64 -32 -86 -11 -68
11 9 24 0 65 -45 66 -73 66 -91 -1 -86 -25 2 -22 -11 5 -23 22 -10 24 -19 12
-65 -5 -19 -3 -18 11 8 9 17 20 32 25 32 7 0 26 -56 45 -134 6 -27 6 -28 -17
-16 -22 11 -22 10 3 -12 22 -20 68 -95 68 -113 0 -3 -30 -3 -67 0 -46 3 -60 2
-43 -4 14 -5 38 -9 54 -10 22 -1 42 -14 77 -53 27 -28 46 -54 44 -58 -11 -18
113 -178 222 -287 23 -23 70 -61 105 -85 71 -48 242 -138 264 -138 8 0 14 -8
14 -18 0 -23 -40 -142 -47 -142 -3 0 -29 11 -57 24 -28 13 -71 33 -96 44 -58
24 -194 111 -186 119 3 3 11 1 19 -5 9 -8 32 -8 80 1 84 14 99 6 111 -56 5
-26 13 -47 18 -47 5 0 6 10 2 23 -5 12 -7 33 -7 47 1 14 -7 34 -18 46 -18 19
-23 20 -97 8 -44 -7 -84 -8 -93 -3 -16 8 -36 85 -43 159 -2 29 -9 38 -37 52
-19 9 -60 19 -92 23 -70 7 -105 22 -112 47 -4 10 -12 18 -20 18 -12 0 -29 40
-20 49 3 2 14 -4 25 -14 24 -22 36 -14 21 14 -7 12 -17 18 -26 15 -8 -4 -27 7
-44 24 -31 30 -97 158 -93 179 1 6 -2 14 -8 18 -5 3 -10 13 -10 21 0 9 -7 22
-15 30 -25 25 7 114 40 114 12 0 13 5 3 25 -12 26 -33 29 -33 4 0 -19 -28 -79
-37 -79 -5 0 -8 12 -8 28 0 15 -4 42 -9 59 -5 18 -6 35 -2 38 8 5 -3 85 -15
115 -4 8 -8 33 -9 55 -2 22 -5 68 -7 103 -3 35 -1 65 4 68 5 3 6 9 3 13 -2 5
7 21 20 37 30 35 29 32 8 75 -20 38 -22 124 -4 142 6 6 11 28 11 48 0 66 26
92 49 52 9 -16 10 -16 11 -1 0 9 17 27 38 39 20 13 45 30 54 38 16 14 16 15 0
27 -9 7 -17 16 -17 21 0 4 -11 25 -24 46 -19 31 -21 43 -13 61 18 39 83 138
88 133 3 -3 6 -20 6 -38 0 -19 7 -45 14 -59 11 -22 12 -19 7 35 -3 33 -9 64
-14 70 -5 5 -9 13 -9 17 0 10 92 -2 108 -15 9 -7 12 0 14 29 0 22 0 49 -1 62
-1 12 3 22 9 22 5 0 10 5 10 10 0 6 -7 10 -15 10 -8 0 -15 9 -15 19 0 30 181
188 201 175 5 -3 9 2 9 11 0 9 5 13 10 10 6 -3 10 -10 10 -15z m1505 -64 c97
-1 99 -1 105 -26 4 -14 5 -51 2 -82 -3 -34 -1 -58 5 -58 5 0 10 37 12 82 1 45
4 84 7 87 3 3 18 -8 33 -25 26 -29 27 -35 25 -120 -2 -94 12 -89 20 7 2 27 8
49 12 49 21 1 175 -213 162 -225 -5 -5 -121 29 -183 53 -22 9 -62 37 -88 63
-26 26 -92 80 -145 120 -120 91 -123 93 -92 83 14 -4 70 -8 125 -8z m-1307
-176 c3 -160 2 -179 -12 -174 -14 6 -14 3 0 -32 17 -41 28 -308 12 -298 -8 5
-2 -94 8 -123 2 -7 -1 -13 -6 -13 -18 0 -10 -22 10 -27 11 -3 20 -9 20 -14 0
-5 -7 -6 -15 -3 -12 5 -15 -4 -15 -51 l0 -58 -52 7 c-45 5 -196 19 -436 40
-29 3 -50 1 -47 -3 2 -5 69 -14 147 -21 182 -15 366 -37 378 -45 6 -3 10 -39
10 -80 l0 -73 -87 -21 c-49 -11 -164 -37 -258 -57 -93 -20 -174 -41 -180 -46
-7 -7 -3 -8 10 -5 11 3 38 9 60 13 22 3 130 26 240 50 110 24 203 44 208 44 4
0 7 -37 5 -82 l-3 -82 -214 -108 c-118 -59 -220 -113 -225 -119 -19 -18 31 4
232 105 106 53 199 96 208 96 12 0 15 -6 10 -22 -3 -13 -6 -63 -6 -111 l0 -88
-113 -122 c-62 -67 -119 -131 -127 -142 -14 -19 -14 -19 5 -5 24 17 47 41 149
153 44 48 84 87 89 87 6 0 7 -20 4 -47 -3 -27 -1 -111 4 -189 9 -132 11 -145
44 -210 19 -38 42 -79 51 -92 16 -21 16 -22 -2 -16 -11 4 -40 22 -65 40 -25
18 -56 38 -70 43 -40 16 -257 218 -322 301 -105 133 -207 369 -207 479 0 15
-5 32 -12 39 -8 8 -12 65 -12 184 -1 138 3 188 18 248 20 79 61 219 77 258 5
13 9 30 9 39 0 9 6 24 14 32 8 9 26 39 40 66 32 60 47 85 64 103 6 7 12 19 12
25 0 7 31 43 70 80 38 37 70 70 69 73 0 4 8 12 19 18 17 10 77 55 152 115 14
11 27 20 30 21 3 0 6 -81 8 -180z m1522 -105 c16 -8 46 -17 67 -21 74 -10 103
-25 128 -64 27 -43 57 -159 61 -240 3 -45 4 -328 3 -430 0 -14 0 -63 1 -110 0
-47 1 -129 1 -182 l-1 -98 -55 -36 c-30 -20 -58 -35 -60 -32 -3 3 7 45 21 94
15 49 29 99 31 112 3 12 13 22 22 22 14 1 14 2 0 10 -17 10 -16 75 2 142 5 21
7 48 5 60 -3 13 -8 43 -10 68 -17 159 -29 218 -66 329 -40 121 -91 226 -157
326 -45 69 -44 77 7 50z m-1412 -262 c17 -27 38 -64 46 -83 8 -19 15 -31 16
-26 0 14 30 -15 85 -84 54 -68 75 -101 75 -119 0 -19 -15 -12 -48 20 -18 18
-32 26 -32 18 0 -8 16 -25 36 -39 35 -23 56 -57 47 -73 -2 -4 -37 10 -76 32
-126 69 -170 91 -174 87 -6 -6 61 -52 117 -80 115 -58 130 -67 130 -88 0 -19
-4 -20 -57 -15 -32 4 -68 6 -80 7 -20 0 -23 5 -23 45 0 25 -5 45 -10 45 -7 0
-9 -16 -6 -40 l4 -40 -43 0 -44 0 0 231 c0 126 -3 234 -6 240 -4 5 -2 9 3 9 6
0 24 -21 40 -47z m315 -148 c45 -138 67 -238 56 -251 -17 -20 -40 -17 -69 9
-14 12 -21 19 -16 15 20 -16 26 -7 12 15 -20 30 -32 117 -18 126 8 5 9 18 3
41 -5 19 -12 67 -15 105 l-5 70 18 -40 c10 -22 25 -62 34 -90z m1415 3 c6 -29
10 -62 10 -73 -1 -11 4 -57 11 -103 11 -76 9 -161 -4 -183 -4 -5 -2 -9 4 -9
11 0 7 -123 -5 -142 -5 -7 -2 -9 8 -6 14 6 14 -1 2 -64 -16 -83 -21 -100 -45
-153 -16 -36 -58 -177 -64 -215 -5 -30 -36 -100 -70 -155 -13 -22 -29 -51 -35
-65 -24 -53 -243 -300 -266 -300 -11 0 1 179 13 191 4 4 17 10 28 13 11 3 6 4
-12 2 l-31 -2 46 59 c26 32 54 64 62 71 9 6 23 25 32 41 8 17 43 84 77 150 34
66 66 119 72 117 5 -1 30 10 55 24 33 20 48 24 53 15 17 -26 39 126 42 284 4
219 0 490 -7 528 -3 15 -1 27 4 27 5 0 14 -24 20 -52z m-1258 -294 c61 -25 78
-76 44 -134 -27 -44 -64 -62 -105 -48 -19 6 -39 12 -46 14 -7 2 -17 21 -22 42
-14 52 2 98 43 123 38 23 36 23 86 3z m-170 -44 c-5 -16 -6 -30 -3 -30 3 0 0
-7 -7 -15 -10 -12 -10 -15 2 -15 9 0 14 -11 14 -34 0 -24 7 -40 24 -54 l23
-19 -43 -132 c-24 -72 -45 -130 -47 -128 -2 3 1 35 7 73 17 114 18 143 6 147
-7 3 -7 9 3 21 12 14 12 16 -1 11 -11 -5 -14 5 -12 45 1 27 -2 50 -7 50 -4 0
-4 12 0 28 4 15 6 33 4 40 -3 6 0 12 5 12 5 0 7 12 4 26 -4 24 -3 25 16 15 17
-9 19 -16 12 -41z m-175 14 c85 -8 95 -12 95 -38 0 -24 -28 -36 -122 -51 l-38
-6 0 40 c0 22 -4 42 -9 45 -5 3 -8 -15 -7 -40 1 -46 1 -47 -42 -59 -23 -7 -43
-10 -45 -6 -2 3 -1 35 1 70 l4 64 56 -7 c32 -4 80 -10 107 -12z m88 -106 c8
-30 -2 -40 -86 -83 -40 -20 -96 -50 -124 -65 l-53 -29 2 52 c1 43 2 46 5 15 6
-54 18 -47 18 11 0 35 -4 47 -12 44 -7 -3 -13 -1 -13 4 0 10 90 36 98 28 3 -3
6 -21 6 -40 0 -19 2 -32 6 -29 3 3 5 22 5 42 l0 37 65 17 c36 9 68 16 71 17 4
1 9 -9 12 -21z m447 11 c48 -10 50 -12 50 -45 0 -19 -2 -34 -4 -34 -2 0 -25
12 -50 26 -26 15 -49 24 -52 21 -3 -3 14 -15 38 -27 63 -32 78 -49 78 -87 0
-18 -3 -33 -8 -33 -4 0 -38 29 -75 64 -63 61 -80 86 -57 86 6 0 10 9 10 20 0
23 2 24 70 9z m56 -234 c3 -11 4 -46 2 -76 l-3 -54 -24 45 c-13 25 -51 87 -83
138 -39 62 -57 99 -53 110 5 14 22 0 81 -62 41 -44 77 -89 80 -101z m-502 140
c6 -16 -17 -44 -129 -161 -73 -76 -115 -126 -115 -136 0 -4 -5 -8 -10 -8 -7 0
-10 33 -8 91 l3 92 65 38 c36 21 84 48 108 60 24 13 46 27 48 31 9 13 32 9 38
-7z m286 -33 c0 -15 23 -92 51 -172 28 -80 67 -192 86 -250 20 -58 62 -181 95
-275 34 -93 71 -206 84 -249 23 -76 74 -225 164 -481 23 -66 53 -144 66 -173
13 -29 24 -55 24 -57 0 -3 -15 -5 -32 -5 l-33 1 -99 302 c-55 166 -108 327
-118 357 -10 30 -31 91 -45 135 -14 44 -46 139 -70 210 -24 72 -59 180 -79
240 -91 287 -117 362 -132 393 -16 32 -16 34 2 47 24 18 36 11 36 -23z m-136
-143 c-20 -85 -58 -221 -85 -304 -26 -82 -57 -188 -69 -235 -22 -90 -65 -231
-81 -265 -5 -11 -11 -31 -14 -45 -11 -56 -45 -191 -73 -295 -43 -159 -82 -327
-82 -351 0 -18 -7 -22 -47 -27 -27 -3 -49 -4 -50 -3 -2 1 8 30 21 64 13 33 29
85 35 114 7 29 34 114 61 188 55 152 94 275 170 535 28 99 65 221 80 270 32
97 67 226 80 290 7 33 44 160 66 224 3 10 8 11 15 4 7 -7 -1 -58 -27 -164z
m251 44 c32 -54 68 -114 79 -133 16 -27 21 -58 26 -152 3 -65 3 -118 0 -118
-3 0 -34 87 -69 193 -35 105 -72 216 -82 245 -32 90 -26 86 46 -35z m-400 2
c-3 -64 -8 -83 -34 -123 -17 -26 -48 -77 -68 -114 -40 -71 -60 -82 -55 -30 2
18 0 32 -5 32 -11 0 -11 -63 1 -71 5 -4 3 -20 -5 -38 -15 -33 -29 -41 -29 -16
0 8 -4 15 -10 15 -6 0 -6 -9 0 -25 6 -16 6 -25 0 -25 -6 0 -10 -11 -10 -25 0
-14 -5 -25 -11 -25 -5 0 -9 -8 -8 -17 4 -24 -10 -63 -22 -63 -6 0 -8 4 -5 8 3
5 1 34 -3 65 -4 32 -4 60 1 63 4 3 8 -5 9 -18 1 -16 5 -11 12 17 7 22 18 49
24 60 11 17 14 18 23 5 9 -12 10 -11 5 7 -3 12 -2 39 4 58 6 22 6 45 1 58 -8
21 -9 21 -9 2 -1 -11 -6 -38 -13 -60 l-12 -40 -8 55 c-6 36 -5 56 2 58 5 2 10
9 10 16 0 6 34 47 76 91 42 44 87 97 100 118 13 20 28 37 33 37 5 0 8 -34 6
-75z m235 20 c0 -7 18 -76 41 -152 22 -76 41 -145 42 -153 1 -8 9 -26 16 -40
8 -14 22 -50 32 -80 9 -30 33 -99 53 -153 l36 -98 -28 -11 c-15 -6 -58 -13
-97 -15 -69 -5 -71 -4 -135 39 -52 34 -70 54 -92 98 -28 55 -28 55 -13 120 16
69 60 211 76 245 8 18 34 128 46 197 5 27 23 30 23 3z m-278 -268 c-41 -66
-82 -148 -82 -162 0 -8 -4 -15 -10 -15 -5 0 -10 5 -10 11 0 5 -4 8 -9 5 -5 -3
-7 -15 -4 -26 3 -11 0 -20 -6 -20 -5 0 -8 -6 -5 -14 3 -8 -1 -30 -9 -48 -8
-18 -19 -45 -25 -60 -8 -19 -16 -26 -27 -22 -13 5 -15 1 -10 -22 5 -26 4 -26
-4 -7 -11 23 2 73 33 131 8 15 29 59 46 97 18 39 41 81 50 95 10 14 33 54 51
90 33 64 34 64 37 32 2 -20 -4 -45 -16 -65z m39 9 c-8 -10 -9 -16 -1 -21 6 -3
8 -10 6 -14 -3 -4 -8 -30 -11 -57 -4 -27 -13 -76 -22 -109 -15 -62 -110 -350
-122 -373 -4 -7 -15 7 -28 38 -12 27 -18 50 -13 50 5 0 2 14 -7 30 -10 21 -12
40 -7 58 4 15 7 30 6 35 -1 4 2 7 7 7 5 0 15 16 22 35 7 19 16 35 20 35 4 0 9
9 12 20 7 29 22 25 24 -7 0 -16 -2 -21 -7 -13 -9 15 -32 -47 -36 -100 -2 -19
-5 -54 -8 -77 -5 -47 10 -59 20 -15 3 15 17 60 31 100 18 53 24 91 23 140 -3
94 55 250 94 252 5 0 3 -6 -3 -14z m1584 -53 c-4 -21 -10 -42 -15 -48 -4 -5
-7 -31 -6 -58 0 -26 -3 -47 -9 -47 -5 0 -10 -20 -10 -44 0 -38 2 -43 14 -33
10 9 9 2 -4 -23 -16 -31 -19 -33 -26 -15 -6 17 -8 15 -10 -10 -1 -25 -2 -26
-6 -7 -3 13 1 30 9 39 9 12 10 15 1 9 -9 -5 -13 0 -13 13 0 12 6 21 13 21 9 0
9 2 -1 9 -8 4 -13 17 -11 27 1 11 -1 39 -5 62 -10 53 9 129 33 135 47 13 54 9
46 -30z m-1505 -290 c7 -27 22 -60 32 -75 10 -14 18 -31 18 -37 0 -6 6 -11 14
-11 8 0 17 -4 20 -8 8 -13 -12 -79 -42 -145 -27 -57 -27 -58 -62 -52 -19 4
-47 13 -63 22 -25 13 -28 19 -23 45 3 16 13 44 21 62 13 27 28 89 51 214 9 45
19 40 34 -15z m-844 -40 c22 -9 57 -17 79 -19 22 -1 45 -2 51 -3 7 -1 15 -9
19 -18 14 -33 33 -148 27 -155 -8 -8 -157 126 -196 176 -31 41 -31 41 20 19z
m2189 -160 c-42 -155 -129 -359 -196 -463 -67 -104 -160 -202 -258 -273 l-65
-47 -14 38 c-8 20 -36 102 -63 181 -47 141 -48 145 -31 173 13 23 14 32 4 48
-16 26 -15 31 3 24 8 -4 15 -1 15 4 0 16 -18 24 -25 12 -4 -6 -11 -8 -16 -5
-12 8 -11 1 3 -30 6 -14 8 -28 5 -32 -9 -8 -36 27 -37 47 0 16 82 73 193 134
l68 38 37 -25 c57 -39 76 -41 108 -14 18 16 25 29 21 40 -8 20 -27 22 -27 3 0
-30 -24 -35 -68 -16 -48 22 -53 35 -18 44 14 3 32 13 41 22 15 15 18 15 39 -5
29 -27 38 -27 34 2 -2 12 -6 20 -9 17 -3 -3 -13 1 -22 9 -15 12 -15 15 4 40
11 14 52 59 92 99 62 64 74 72 96 66 14 -4 36 -6 48 -6 12 1 24 -2 27 -6 9
-15 -41 -199 -73 -269 -29 -64 -30 -66 -6 -38 35 42 82 188 101 315 l9 55 3
-42 c2 -25 -8 -84 -23 -140z m-385 -7 c-10 -26 -13 -28 -63 -23 -28 2 -61 7
-73 11 -22 8 -75 -26 -62 -40 4 -4 14 -1 23 6 11 9 29 10 63 5 26 -4 65 -7 86
-6 38 1 38 0 21 -19 -17 -18 -81 -61 -193 -128 -29 -18 -55 -32 -57 -32 -2 0
8 21 21 48 24 47 33 119 14 107 -5 -3 -10 -17 -10 -30 0 -29 -43 -129 -60
-140 -17 -10 -25 2 -54 78 l-25 67 72 36 c74 38 191 117 262 178 l40 34 3 -62
c2 -34 -2 -75 -8 -90z m-596 38 c-31 -56 -106 -139 -146 -160 -61 -32 -51 -13
42 85 44 46 80 87 80 92 0 10 -49 -7 -74 -26 -11 -8 -17 -18 -13 -21 8 -8 -35
-72 -62 -90 -12 -9 -26 -12 -31 -9 -13 8 -13 35 1 35 6 0 8 8 5 18 -4 12 1 26
14 37 11 10 20 24 20 32 0 8 12 13 35 13 19 0 35 4 35 9 0 10 56 26 76 23 7
-1 15 5 18 14 4 12 10 14 17 7 6 -6 1 -26 -17 -59z m124 -236 c12 -35 22 -69
24 -76 2 -9 -20 -20 -67 -32 -68 -18 -70 -18 -88 0 -18 20 -64 37 -73 27 -3
-3 13 -13 35 -23 22 -9 38 -21 35 -25 -2 -4 -41 -10 -87 -14 -81 -7 -84 -6
-137 25 -30 18 -81 50 -112 72 -32 21 -58 35 -58 30 0 -13 82 -77 128 -101 46
-24 54 -41 19 -41 -48 0 -265 46 -279 59 -6 6 16 109 26 119 3 2 28 -1 56 -8
92 -22 281 -18 405 9 61 13 117 28 125 32 25 14 26 12 48 -53z m115 -346 c38
-114 71 -211 73 -217 3 -7 -164 -11 -486 -13 -270 -1 -490 1 -490 5 0 9 73
295 93 368 16 53 16 53 82 35 56 -16 196 -39 220 -37 11 1 21 -5 23 -15 2 -13
-3 -18 -17 -18 -30 0 -35 -19 -6 -26 37 -9 53 1 63 38 8 32 10 33 67 36 47 2
62 0 72 -14 11 -15 16 -16 38 -4 18 10 28 11 36 3 16 -16 7 -47 -14 -51 -29
-6 -67 7 -67 22 0 7 -7 19 -15 26 -13 10 -15 9 -15 -12 0 -44 26 -68 75 -68
37 0 47 4 62 26 14 22 15 31 5 57 -6 17 -10 33 -7 35 7 7 97 31 120 31 17 1
29 -27 88 -207z m220 -274 c-2 -5 -8 -8 -13 -8 -5 0 -37 -13 -72 -29 -92 -43
-218 -78 -343 -96 -167 -24 -225 -37 -225 -48 0 -11 -109 -6 -365 19 -157 15
-162 16 -260 63 -131 63 -156 93 -85 103 52 7 1368 3 1363 -4z m-1418 -88 c28
-16 83 -39 121 -51 38 -11 73 -24 77 -29 5 -4 -53 -7 -129 -6 l-137 2 -2 57
c-2 34 1 57 7 57 6 0 34 -13 63 -30z"/>
<path d="M13261 7958 c-1 -36 -2 -37 -28 -28 -38 12 -179 19 -194 9 -6 -4 -9
-14 -6 -23 5 -12 28 -16 124 -18 108 -3 118 -5 123 -23 3 -12 26 -53 53 -92
26 -39 47 -75 47 -80 0 -16 37 -45 44 -35 3 5 -5 30 -19 56 -13 25 -21 46 -18
46 4 0 -5 12 -19 28 -30 32 -79 108 -76 119 1 5 -6 24 -14 43 l-16 35 -1 -37z"/>
<path d="M5370 7929 c-25 -17 -62 -47 -83 -67 -29 -28 -40 -34 -46 -23 -6 9
-11 10 -15 2 -4 -6 -5 -15 -2 -20 6 -9 -99 -113 -150 -148 -16 -12 -43 -25
-58 -29 -18 -4 -24 -9 -16 -14 8 -5 10 -23 6 -56 -11 -86 -11 -920 -1 -1594
15 -974 11 -1705 -11 -2169 -4 -90 -2 -126 6 -131 9 -6 9 -13 1 -28 -14 -26
-15 -106 -1 -97 11 7 12 -37 10 -460 -1 -149 1 -277 5 -286 7 -17 72 -24 242
-24 61 0 109 -3 107 -7 -5 -8 445 -16 461 -8 52 26 188 39 200 20 5 -8 12 -7
22 2 9 7 28 13 42 14 67 1 94 5 88 10 -3 4 -29 6 -57 5 -47 -1 -64 9 -39 25 6
3 48 56 94 118 45 61 99 128 119 148 22 23 36 46 35 60 -1 17 -3 18 -6 6 -2
-10 -9 -18 -14 -18 -11 0 -7 118 4 136 4 7 3 54 -2 106 -14 148 -21 819 -9
812 11 -7 81 -153 92 -194 4 -14 43 -135 86 -270 89 -279 211 -661 234 -735
31 -100 64 -187 75 -198 21 -21 11 -27 -46 -27 -42 0 -54 -3 -46 -11 12 -12
588 -7 738 7 44 4 170 7 280 8 l200 1 20 -37 c25 -47 32 -48 27 -3 -3 21 1 42
9 52 8 10 9 14 2 10 -6 -4 -14 -3 -18 2 -6 10 74 130 88 130 10 1 -10 -37 -33
-64 -9 -11 -20 -29 -24 -40 -5 -14 1 -11 18 10 14 17 25 33 26 37 0 4 9 10 20
13 11 4 18 11 14 16 -11 19 19 39 58 39 25 0 37 4 33 11 -4 6 -13 8 -21 5 -8
-3 -20 -3 -28 0 -17 7 -8 32 43 111 26 41 37 50 47 42 18 -14 4 25 -59 171
-27 63 -58 139 -68 169 -11 30 -23 59 -27 65 -5 6 -28 61 -51 121 -24 61 -57
146 -75 190 -71 172 -175 448 -205 545 -5 14 -18 48 -29 75 -23 55 -72 212
-72 229 0 6 -28 76 -61 156 -90 212 -101 242 -95 256 3 7 -1 15 -9 18 -9 3
-12 0 -8 -10 3 -7 1 -14 -5 -14 -5 0 -13 7 -16 17 -7 18 31 66 45 57 5 -3 9
-1 9 4 0 11 53 72 176 202 44 47 94 105 111 130 35 52 86 150 78 150 -3 0 -1
8 4 18 5 9 12 33 15 52 9 45 8 43 33 120 27 81 41 177 49 345 3 72 9 168 13
215 8 92 6 234 -5 290 -3 19 -8 46 -10 60 -8 41 -65 211 -90 265 -31 69 -41
111 -24 100 7 -5 11 -4 8 1 -3 5 -17 34 -32 64 -32 68 -37 76 -109 172 -32 43
-50 75 -40 71 45 -17 -58 91 -157 164 -99 73 -343 198 -455 233 -22 7 -47 19
-56 27 -12 10 -18 11 -21 3 -2 -8 -49 0 -143 23 -183 45 -318 61 -495 59 -348
-4 -909 -7 -900 -4 12 4 14 22 3 22 -5 0 -28 -14 -53 -31z m494 -34 c39 -2
176 0 305 4 128 4 263 4 300 -1 36 -4 86 -10 111 -12 25 -3 78 -16 118 -29 39
-14 72 -20 72 -16 0 5 8 9 18 8 11 0 12 -2 4 -6 -18 -7 4 -33 27 -33 21 0 153
-45 194 -66 15 -9 33 -14 39 -12 5 2 -11 14 -36 26 -40 20 -67 42 -52 42 24 0
204 -74 293 -121 130 -68 154 -83 207 -124 86 -67 110 -92 153 -160 25 -38 58
-88 73 -110 29 -43 54 -105 41 -105 -4 0 -13 6 -21 13 -7 6 -2 -2 12 -19 13
-18 31 -54 38 -80 7 -27 16 -53 20 -59 4 -5 13 -28 20 -50 7 -22 17 -46 23
-53 18 -22 67 -248 72 -332 12 -183 13 -234 4 -300 -6 -41 -11 -80 -12 -87 0
-6 -5 -9 -12 -7 -12 5 -12 24 0 104 8 49 8 83 2 143 -1 9 -5 17 -9 17 -4 0 -8
5 -8 11 0 5 5 7 10 4 6 -3 10 1 10 9 0 9 -4 16 -9 16 -5 0 -13 9 -16 20 -4 11
-11 18 -16 14 -6 -3 -5 -12 3 -22 11 -13 11 -15 -3 -10 -11 4 -21 -2 -30 -20
-7 -15 -20 -35 -28 -44 -18 -23 -4 -23 21 -1 10 9 18 25 18 35 0 11 5 18 12
16 9 -3 13 -33 14 -99 0 -52 -1 -97 -4 -102 -2 -4 -12 3 -22 15 -17 20 -19 20
-20 6 0 -10 4 -18 8 -18 5 0 7 -29 5 -65 -3 -51 -1 -64 9 -60 9 4 14 -3 15
-16 2 -28 -15 -61 -28 -54 -13 9 -11 -9 4 -24 10 -11 10 -13 0 -7 -9 5 -13 -1
-13 -18 0 -19 -5 -26 -20 -26 -23 0 -24 3 -7 30 10 17 9 22 -1 29 -11 7 -11
14 1 44 13 30 13 35 1 30 -8 -3 -14 0 -14 6 0 7 7 14 15 17 8 4 12 10 9 15 -3
5 -11 6 -17 2 -7 -4 -6 0 2 10 7 9 9 17 4 17 -5 0 -10 46 -10 101 -2 80 -6
105 -19 120 -11 12 -13 19 -5 19 6 0 11 8 9 18 -2 10 2 16 11 14 12 -3 12 0 1
12 -11 14 -9 16 9 16 28 0 33 43 6 65 -17 13 -37 78 -30 97 3 8 0 20 -8 26
-11 10 -13 2 -13 -46 1 -31 6 -60 11 -64 6 -5 5 -8 -3 -8 -10 0 -10 -5 -2 -20
7 -14 7 -20 0 -20 -5 0 -10 -15 -10 -32 -1 -32 -1 -32 -16 -13 -9 12 -14 34
-12 58 2 20 0 37 -4 37 -5 0 -8 14 -8 31 0 62 -43 202 -94 305 -44 90 -157
255 -181 264 -5 2 -45 35 -87 73 -175 159 -361 257 -593 312 -38 9 -97 23
-131 31 -163 38 -553 49 -959 27 -121 -7 -294 -15 -385 -18 -150 -5 -163 -4
-145 10 66 51 179 149 235 203 l65 63 194 -6 c107 -4 227 -8 265 -10z m491
-284 c275 -32 399 -61 594 -140 68 -28 140 -63 160 -79 20 -15 62 -45 93 -66
60 -39 184 -169 211 -221 8 -16 32 -47 52 -67 20 -21 34 -42 31 -47 -4 -5 -1
-13 6 -18 27 -17 59 -95 94 -229 20 -76 40 -160 45 -185 4 -26 12 -63 18 -83
7 -27 6 -45 -3 -69 -8 -19 -10 -42 -5 -57 4 -14 7 -19 8 -12 1 6 6 12 12 12 7
0 8 -68 5 -217 -7 -263 -15 -352 -35 -378 -5 -5 -8 -17 -8 -25 1 -42 -71 -246
-119 -336 -68 -131 -101 -172 -205 -254 -56 -45 -113 -88 -128 -97 -14 -9 -39
-25 -55 -36 l-29 -20 -20 24 -19 24 16 -27 c21 -35 12 -54 -33 -76 l-36 -17
34 -5 c31 -5 36 -11 78 -105 68 -152 147 -350 181 -450 17 -49 45 -121 62
-160 18 -38 45 -101 60 -140 16 -38 43 -103 60 -144 17 -41 28 -76 26 -78 -6
-6 -33 41 -164 287 -60 113 -141 265 -181 338 -39 73 -100 190 -136 261 -35
71 -117 223 -181 337 -218 390 -264 473 -264 478 0 4 -11 24 -25 46 -28 45
-30 50 -14 50 14 0 27 16 73 85 39 60 71 142 93 239 21 97 20 371 -2 458 -24
89 -68 182 -114 237 -22 27 -37 52 -33 56 4 5 1 5 -6 1 -9 -5 -24 1 -40 16
-15 14 -38 32 -52 41 -36 25 -11 21 30 -4 33 -20 34 -20 17 -2 -10 11 -36 29
-59 39 l-42 19 29 6 c30 7 30 7 -5 8 -19 0 -59 10 -88 21 -75 29 -161 27 -357
-8 -38 -7 -43 -10 -19 -11 l31 -1 -3 -592 c-2 -326 0 -621 4 -656 4 -34 4 -69
-1 -78 -16 -28 13 -36 117 -29 155 9 236 32 349 99 59 35 54 39 135 -114 33
-63 95 -180 139 -260 44 -80 119 -221 168 -315 94 -182 246 -462 297 -548 17
-28 59 -104 93 -167 34 -63 97 -180 140 -260 43 -80 86 -157 97 -172 10 -15
49 -107 87 -205 38 -98 83 -209 99 -248 30 -74 46 -125 37 -125 -3 0 -81 152
-173 338 -188 376 -336 664 -422 822 -32 58 -126 238 -210 400 -83 162 -156
300 -162 305 -12 12 187 -384 322 -640 55 -104 163 -316 241 -470 78 -154 223
-440 322 -635 99 -195 188 -372 198 -392 34 -66 43 -63 -218 -63 -223 0 -465
-7 -714 -21 l-107 -6 -7 33 c-4 19 -58 187 -120 374 -62 187 -121 369 -132
405 -12 36 -41 130 -66 210 -87 277 -97 311 -98 343 0 43 -27 169 -28 136 -1
-14 4 -51 10 -83 14 -78 8 -88 -23 -35 -67 114 -78 159 -82 320 -2 82 -1 149
3 149 4 0 13 -6 20 -12 10 -11 12 -9 9 7 -2 14 -13 21 -32 23 l-29 4 6 -134 7
-133 -21 25 c-12 14 -36 54 -54 90 -19 38 -55 85 -85 114 -46 43 -54 47 -75
38 -20 -9 -23 -9 -18 3 3 8 15 16 27 16 20 2 20 2 -1 6 -27 5 -29 15 -6 49 27
42 18 110 -22 171 -40 60 -66 69 -166 60 -66 -6 -85 -17 -106 -62 -7 -16 -17
-37 -22 -45 -21 -37 -41 -93 -41 -115 0 -41 30 -105 50 -105 10 0 20 7 24 15
4 12 26 15 106 15 96 0 102 -1 125 -26 l25 -27 1 -271 c1 -149 1 -551 0 -894
l-2 -622 -123 -3 c-115 -2 -122 -1 -112 16 6 9 14 17 19 17 4 0 6 4 3 9 -8 13
31 44 44 36 9 -5 9 -1 0 16 -12 21 -14 21 -25 6 -7 -9 -15 -17 -19 -17 -4 0
-5 50 -3 112 4 111 4 112 -23 137 -15 14 -39 46 -53 71 -57 99 -106 120 -278
120 -185 0 -249 -35 -314 -167 -26 -55 -46 -83 -57 -83 -15 0 -16 23 -12 291
l5 291 114 227 c62 124 141 278 175 341 156 288 210 391 210 398 0 20 -212
-363 -363 -658 -61 -118 -119 -228 -129 -245 l-19 -30 7 70 c8 78 28 126 132
300 36 61 86 148 112 195 85 154 171 301 330 570 87 146 195 330 240 410 46
80 90 155 98 168 8 12 12 22 9 22 -7 0 -68 -85 -109 -155 -19 -33 -93 -154
-163 -270 -70 -115 -153 -253 -183 -305 -30 -52 -66 -113 -80 -135 -14 -22
-101 -173 -193 -335 -92 -162 -175 -304 -183 -315 -15 -19 -16 -15 -17 60 -2
122 0 507 6 1305 7 1014 7 1017 0 1390 -4 184 -8 457 -9 605 -2 149 -5 276 -7
284 -6 22 39 29 126 19 76 -9 294 -4 540 11 226 15 474 12 650 -8z m-25 -816
c59 -12 102 -40 171 -112 145 -151 192 -283 188 -535 -2 -149 -38 -306 -77
-341 -31 -28 -145 -59 -234 -64 -78 -5 -87 -4 -97 15 -6 10 -8 22 -5 25 11 11
0 942 -12 996 -6 30 -5 33 12 28 10 -3 35 -9 54 -12z m-203 -622 c18 -17 22
-29 18 -53 -4 -21 -1 -30 8 -30 9 0 13 9 12 24 -2 18 1 23 11 19 17 -6 17 -9
4 -34 -6 -10 -17 -19 -25 -19 -10 0 -15 -10 -14 -27 0 -16 3 -22 6 -15 8 20
23 14 23 -9 0 -15 -4 -19 -16 -15 -15 6 -16 -3 -10 -81 4 -49 11 -106 16 -127
5 -22 7 -43 4 -47 -3 -5 -2 -20 2 -34 5 -20 9 -23 20 -14 22 18 16 2 -8 -23
-13 -13 -47 -50 -75 -81 -56 -61 -57 -61 -55 13 1 48 1 151 1 305 0 210 14
323 34 273 3 -7 6 -4 7 7 1 15 3 16 7 5 3 -8 17 -25 30 -37z m1039 -1289 c7
-28 26 -77 43 -110 50 -97 123 -252 149 -316 7 -17 8 -28 2 -28 -6 0 -10 -7
-10 -15 0 -8 7 -15 15 -15 20 0 39 -37 22 -43 -9 -3 -9 -7 0 -17 6 -7 9 -19 6
-26 -3 -8 0 -14 7 -14 6 0 9 -4 6 -8 -4 -7 34 -112 79 -217 4 -11 9 -22 10
-25 8 -24 19 -51 35 -85 10 -22 35 -89 55 -150 20 -60 45 -125 56 -143 10 -18
19 -38 19 -43 0 -6 11 -27 25 -47 37 -55 31 -33 -25 81 -27 56 -51 111 -53
122 -6 37 -50 159 -69 190 -21 36 -23 52 -4 36 8 -7 24 -37 36 -67 13 -30 25
-53 27 -50 8 8 -55 133 -71 139 -9 4 -16 12 -16 18 0 8 5 7 17 -2 15 -13 15
-12 0 17 -9 17 -23 36 -31 43 -9 8 -16 18 -16 23 0 6 -6 24 -14 41 -31 73 -36
89 -36 118 0 37 15 30 23 -10 8 -40 36 -105 42 -99 7 7 -44 148 -60 168 -21
26 -62 113 -75 158 -6 24 -14 50 -17 59 -5 13 -3 14 16 4 12 -7 19 -16 15 -22
-3 -5 0 -17 7 -25 6 -8 12 -22 13 -32 3 -29 37 -121 48 -129 8 -4 9 0 5 12 -6
14 -3 16 13 12 17 -4 19 -3 9 9 -6 8 -17 14 -24 14 -17 0 -27 27 -12 34 8 3 6
8 -6 16 -9 6 -15 16 -11 21 3 5 -1 20 -9 32 -8 12 -13 32 -11 45 2 12 -1 22
-6 22 -6 0 -10 8 -10 18 0 17 -6 30 -52 112 -52 92 -88 163 -88 173 0 6 -7 18
-15 27 -13 15 -14 18 -2 23 15 6 49 -49 107 -173 19 -41 38 -77 41 -80 4 -3
21 -39 39 -80 18 -41 58 -127 89 -190 67 -136 66 -131 52 -140 -8 -4 -4 -13
11 -26 16 -14 19 -14 10 -2 -10 13 -11 22 -2 38 9 16 7 26 -8 48 -41 60 -116
252 -103 265 10 10 31 -22 57 -85 10 -27 22 -48 27 -48 4 0 7 -8 7 -18 0 -11
9 -27 19 -36 11 -10 22 -28 25 -42 8 -30 26 -32 19 -1 -3 12 9 -2 26 -31 18
-29 29 -58 25 -64 -4 -6 -3 -8 3 -5 6 4 16 0 23 -9 16 -19 62 -116 57 -120 -5
-6 -57 54 -57 65 0 10 -91 91 -102 91 -4 0 13 -20 37 -45 24 -25 47 -55 50
-65 4 -11 11 -20 16 -20 6 0 7 -6 3 -12 -4 -7 -4 -10 1 -6 12 11 35 -11 28
-28 -3 -8 0 -14 7 -14 6 0 8 -5 4 -12 -5 -7 -3 -8 5 -4 7 5 10 15 7 23 -3 8
-2 12 3 9 5 -3 23 -43 41 -88 18 -46 38 -96 45 -113 7 -16 18 -47 25 -68 7
-22 29 -76 50 -120 20 -45 47 -104 60 -132 12 -27 29 -64 37 -82 8 -17 16 -37
17 -45 2 -7 8 -24 14 -38 5 -14 15 -38 21 -55 l11 -30 -20 24 c-25 29 -25 25
1 -33 11 -26 27 -50 36 -53 10 -4 11 -8 3 -13 -7 -4 -2 -13 14 -24 18 -11 26
-25 26 -44 l0 -27 -23 27 c-12 15 -35 50 -52 78 -52 89 -69 99 -25 15 44 -83
87 -138 102 -129 4 3 8 3 8 -1 0 -7 -51 -89 -60 -95 -16 -12 -121 -162 -130
-186 -14 -36 -22 -25 -58 76 -16 47 -33 93 -37 103 -4 9 -3 17 3 17 6 0 -12
44 -39 98 -26 53 -50 106 -52 117 -2 11 -13 38 -24 60 -12 23 -24 58 -28 78
-4 20 -11 37 -16 37 -5 0 -6 6 -3 13 2 7 -2 27 -11 43 -8 16 -15 32 -15 36 0
4 -17 44 -38 90 -47 100 -97 230 -94 241 1 4 -6 24 -17 45 -10 20 -42 96 -71
167 -29 72 -58 144 -65 160 -29 68 -75 195 -74 207 0 10 2 10 6 1 2 -7 9 -13
14 -13 5 0 3 14 -6 30 -9 17 -21 30 -28 30 -8 0 -8 3 2 9 10 7 11 13 2 30 -7
12 -16 19 -21 16 -5 -3 -12 0 -16 6 -4 8 -3 9 4 5 19 -11 14 16 -8 49 -11 17
-32 55 -47 85 -14 30 -29 57 -33 60 -11 9 -51 100 -57 132 -5 25 -3 29 12 27
12 -3 22 -21 31 -55z m-1139 -41 c3 -7 -3 -23 -11 -35 -9 -12 -16 -33 -16 -45
0 -34 -32 -45 -159 -50 -99 -5 -119 -3 -133 10 -14 15 -15 22 -2 64 8 26 18
51 22 55 4 4 61 9 127 10 170 4 168 4 172 -9z m148 -985 c2 -18 6 -75 11 -125
4 -51 11 -93 15 -93 7 0 5 133 -2 180 -4 26 1 54 8 46 8 -8 7 -3 22 -166 6
-69 14 -152 18 -184 4 -44 3 -57 -5 -52 -16 10 -15 -17 0 -32 9 -9 9 -12 -2
-12 -11 0 -11 -3 -2 -12 13 -13 16 -38 4 -38 -15 0 -35 65 -34 112 0 26 -3 50
-7 52 -8 6 -6 -194 5 -346 6 -96 7 -97 24 -75 10 12 15 24 11 27 -4 3 -7 16
-7 30 -2 53 -8 96 -16 112 -4 9 -4 19 1 22 11 7 21 -17 21 -50 0 -25 15 -33
23 -11 3 6 6 -17 6 -53 0 -62 -1 -67 -40 -107 -22 -24 -41 -43 -42 -43 -2 0
-3 30 -3 68 0 156 -15 614 -22 673 -7 65 -5 125 5 116 3 -3 6 -21 8 -39z m-30
-109 c2 -46 7 -158 10 -249 11 -368 15 -452 20 -461 6 -9 -23 -59 -34 -59 -3
0 -7 194 -8 431 -1 415 2 516 12 338z m-26 -354 c7 -361 3 -437 -30 -487 -27
-42 -44 -49 -36 -15 3 12 7 77 8 145 1 68 6 125 11 128 7 5 13 -47 8 -71 -6
-27 -5 -165 1 -165 4 0 10 37 13 83 5 71 6 122 2 317 0 19 2 112 4 205 4 209
14 139 19 -140z m-499 -81 c6 -6 8 -29 4 -57 -6 -39 -9 -44 -18 -32 -23 32
-328 42 -403 14 -21 -8 -21 -7 -11 17 15 32 57 54 123 65 71 11 292 6 305 -7z
m-23 -117 c20 -18 50 -123 39 -135 -12 -11 -487 -15 -498 -4 -8 8 -4 28 12 69
40 99 27 95 241 91 162 -3 190 -5 206 -21z m71 -217 c0 -25 -5 -67 -11 -94
l-12 -50 -52 0 c-29 -1 -53 1 -53 4 0 9 32 52 65 88 16 19 34 41 38 50 4 10
-19 -12 -52 -48 -34 -35 -61 -70 -61 -76 0 -9 -22 -11 -77 -7 -43 2 -151 1
-239 -4 l-162 -8 -1 57 c0 31 -1 60 -2 65 -4 21 3 34 33 62 26 24 35 28 47 18
10 -9 80 -12 246 -12 197 0 235 2 256 16 22 15 25 15 31 0 4 -9 6 -36 6 -61z"/>
<path d="M6442 5117 c-29 -30 -32 -39 -32 -95 0 -73 24 -142 50 -142 10 0 20
7 24 15 3 8 10 15 17 15 6 0 9 -6 6 -14 -4 -10 8 -14 54 -15 46 -1 59 2 59 14
0 9 9 15 25 15 16 0 25 -6 25 -15 0 -24 47 -19 55 7 18 56 4 118 -45 190 -32
48 -56 58 -139 58 -63 0 -69 -2 -99 -33z m259 -104 c5 -15 9 -36 7 -46 -3 -19
-12 -20 -133 -21 l-130 -1 -9 38 c-8 30 -7 40 5 48 8 5 67 9 132 9 l117 0 11
-27z"/>
<path d="M6835 3851 c-47 -12 -72 -28 -94 -64 -11 -19 -31 -38 -45 -44 -21
-10 -24 -20 -30 -85 -9 -96 6 -212 42 -323 40 -121 73 -189 95 -193 38 -8 64
7 71 39 6 30 8 31 44 25 20 -3 57 -6 81 -6 24 0 41 -3 38 -6 -8 -8 -48 -14
-109 -15 -27 0 -45 -5 -42 -10 6 -11 251 -11 314 0 27 5 35 9 20 10 -23 1 -23
3 -7 12 27 16 66 2 77 -27 9 -22 15 -25 51 -22 44 3 49 11 81 118 5 19 19 45
31 58 11 12 15 22 9 22 -7 0 -12 7 -12 15 0 26 -32 109 -56 145 -13 19 -24 42
-24 51 0 10 -3 19 -8 21 -4 2 -21 35 -37 73 -52 125 -75 157 -135 188 -51 26
-60 27 -189 26 -75 -1 -149 -4 -166 -8z m370 -51 c28 -26 60 -79 52 -86 -2 -2
-18 1 -35 7 -35 12 -347 8 -375 -5 -14 -6 -18 -5 -16 5 2 8 0 31 -4 52 -5 20
-5 42 -2 48 5 7 67 9 180 7 169 -3 174 -4 200 -28z m32 -108 c6 -4 26 -34 43
-67 l32 -60 -233 -3 c-128 -1 -237 2 -242 7 -12 12 2 99 20 116 12 12 50 15
191 15 97 0 182 -4 189 -8z m-467 -150 c19 -15 22 -27 21 -81 0 -34 -3 -66 -6
-71 -3 -5 2 -21 11 -35 12 -18 25 -25 48 -25 l31 0 -31 19 c-30 18 -44 51 -44
102 0 32 17 21 64 -41 49 -64 55 -80 31 -80 -8 0 -12 -6 -9 -14 4 -11 0 -13
-18 -9 -18 4 -20 3 -8 -6 25 -18 44 -12 57 15 14 31 16 28 -58 119 -63 78 -83
121 -52 112 99 -29 419 -31 508 -2 17 5 26 -5 57 -62 20 -37 37 -77 38 -88 6
-53 -2 -86 -26 -114 -23 -28 -31 -31 -85 -31 -38 0 -59 4 -59 12 0 8 -55 9
-213 4 -246 -8 -237 -11 -264 91 -8 32 -23 72 -33 88 -9 17 -20 49 -24 73 -6
39 -5 42 18 42 13 0 34 -8 46 -18z"/>
<path d="M8404 7949 c-2 -3 33 -9 77 -12 44 -3 83 -8 87 -11 3 -4 -39 -52 -94
-109 -55 -56 -114 -119 -132 -140 -21 -24 -39 -37 -48 -33 -13 5 -14 -81 -10
-702 3 -389 8 -751 12 -804 l7 -97 -37 -21 c-38 -23 -43 -40 -26 -84 6 -16 17
-26 30 -26 20 0 20 1 5 31 -13 24 -14 34 -4 45 31 38 35 16 37 -190 l1 -204
-27 -36 c-30 -39 -31 -40 -51 -27 -11 7 -12 13 -4 23 9 10 4 13 -24 15 -37 2
-83 26 -83 45 0 6 20 33 45 59 25 26 45 54 45 61 0 14 -20 31 -60 51 -39 20
-37 43 7 58 20 6 50 12 65 11 15 0 28 4 28 9 0 5 -5 9 -11 9 -5 0 -7 5 -4 10
5 8 11 8 20 0 10 -8 15 -8 20 0 10 16 2 21 -35 22 -21 1 -36 -5 -42 -15 -5
-11 -22 -17 -42 -17 -36 0 -66 -25 -66 -56 0 -11 18 -38 40 -59 l40 -39 -39
-41 c-66 -70 -63 -93 20 -145 47 -29 51 -34 45 -61 -8 -42 38 -93 85 -94 31 0
34 -2 32 -30 -1 -16 -4 -64 -6 -105 -5 -73 -6 -75 -48 -110 -34 -30 -41 -41
-36 -61 4 -16 0 -30 -15 -46 -18 -19 -20 -28 -12 -51 8 -22 16 -27 44 -28 19
0 40 -1 47 -2 19 -3 36 -82 29 -139 -3 -28 -8 -406 -11 -840 -3 -433 -8 -804
-12 -823 -3 -19 -6 -39 -5 -43 2 -4 4 -71 7 -148 l4 -139 -35 0 c-21 0 -33 -4
-29 -10 3 -5 19 -10 36 -10 16 0 29 -5 29 -11 0 -6 -16 -9 -40 -8 -21 2 -42 0
-46 -4 -4 -4 16 -7 44 -7 34 0 52 -4 53 -12 1 -7 2 -20 3 -28 2 -8 3 -27 4
-42 1 -16 7 -28 13 -28 8 0 10 17 6 53 -3 30 -2 58 1 63 4 5 97 9 207 10 641
4 903 3 1005 -1 274 -12 475 -17 470 -13 -5 5 -166 17 -250 19 -40 0 -42 1
-20 10 15 6 126 9 275 8 252 -2 685 8 694 16 2 3 -1 11 -8 18 -9 12 -5 16 20
21 17 3 46 5 63 5 23 -1 25 -3 9 -6 -13 -2 -23 -9 -23 -15 0 -6 -10 -8 -25 -4
-25 6 -36 -8 -12 -16 22 -8 72 -1 70 10 -2 7 9 10 30 6 31 -4 31 -4 7 7 -23
11 -18 13 48 20 48 6 81 5 93 -2 11 -5 25 -6 32 -2 12 8 17 9 37 12 6 0 10 5
10 10 0 6 -19 11 -42 13 -40 3 -41 4 -19 14 21 9 16 12 -45 18 -93 9 -136 16
-154 27 -18 10 -17 10 140 11 126 0 108 13 -31 22 -40 2 -78 5 -84 6 -26 6 79
19 152 19 45 1 84 5 87 9 5 8 -224 16 -383 14 -56 -1 -72 1 -63 10 6 6 31 12
54 14 24 1 54 6 67 11 29 12 80 5 60 -8 -24 -14 -5 -16 66 -8 39 5 101 11 138
15 38 3 67 8 64 10 -2 2 -28 6 -58 9 -30 3 -67 8 -82 11 -16 3 -74 7 -130 9
-56 2 -104 4 -107 4 -3 1 16 20 41 44 77 70 135 149 182 248 45 96 90 204 102
249 4 14 17 61 30 105 13 44 31 114 39 155 33 154 59 285 59 300 0 8 4 20 9
27 30 38 16 315 -29 558 -14 77 -27 151 -29 165 -8 46 -27 94 -55 142 -15 26
-40 73 -55 104 -15 31 -58 97 -95 147 -38 50 -69 94 -69 98 0 12 93 105 118
118 12 7 22 20 22 30 0 10 9 30 20 44 26 32 20 46 -41 97 -54 45 -55 48 -35
93 23 51 53 148 61 194 4 24 10 45 15 48 4 3 6 14 3 24 -3 10 2 79 11 152 9
74 18 156 21 182 3 27 8 54 12 60 9 14 6 278 -3 322 -3 17 -10 35 -14 40 -4 6
-11 25 -15 43 -6 31 -5 33 14 27 13 -4 21 -2 21 5 0 7 -9 14 -19 17 -11 3 -22
15 -25 26 -9 36 -6 43 9 23 22 -29 18 -15 -15 57 -17 35 -32 73 -34 83 -12 61
-30 112 -47 130 -11 11 -21 30 -24 42 -5 30 -22 60 -71 125 -48 62 -45 68 13
36 25 -14 31 -15 18 -4 -11 9 -41 27 -66 40 -26 13 -74 51 -107 85 -62 62 -97
84 -256 165 -48 24 -93 51 -100 58 -6 8 -74 28 -151 47 -77 18 -160 38 -185
46 -98 28 -185 37 -430 41 -399 8 -1141 9 -1146 2z m666 -41 c162 -1 351 -5
420 -9 69 -4 173 -8 233 -10 59 -1 107 -6 107 -11 0 -5 6 -8 13 -5 6 2 30 -2
51 -10 28 -9 42 -10 46 -3 5 8 19 5 43 -9 19 -11 48 -20 64 -19 40 0 251 -65
327 -101 35 -16 95 -50 132 -74 75 -49 215 -188 260 -258 15 -24 46 -73 70
-109 40 -62 76 -157 107 -285 22 -89 27 -125 19 -125 -11 0 -36 61 -34 83 1 9
-3 17 -8 17 -6 0 -10 8 -10 18 0 10 -3 22 -7 26 -5 4 -8 13 -8 19 0 7 -7 13
-16 15 -15 3 -14 -4 4 -60 11 -35 24 -72 28 -83 16 -44 18 -55 9 -55 -6 0 -10
5 -10 11 0 8 -55 158 -86 233 -6 15 -4 17 6 11 28 -17 -35 62 -109 138 -102
105 -268 212 -423 273 -100 39 -79 18 38 -37 60 -29 128 -65 151 -80 23 -16
46 -29 52 -29 6 0 10 -4 9 -9 -4 -10 80 -81 96 -81 15 0 88 -74 85 -86 -3 -13
18 -61 31 -69 24 -15 138 -270 126 -283 -3 -2 -21 30 -41 72 -56 121 -157 267
-233 336 -128 116 -380 271 -518 318 -131 45 -293 69 -474 72 -79 1 -1152 -20
-1196 -23 -75 -7 -71 4 45 119 61 61 111 117 111 123 0 7 5 22 11 33 10 19 17
20 98 14 47 -3 219 -7 381 -8z m-653 -308 c18 -4 35 -5 38 -1 8 7 67 10 78 4
5 -3 279 -6 610 -8 331 -1 611 -5 622 -7 11 -3 52 -8 90 -12 39 -4 88 -13 110
-21 22 -8 69 -21 105 -30 199 -49 405 -169 546 -317 51 -53 84 -102 121 -174
85 -164 155 -378 170 -515 9 -91 6 -450 -5 -461 -5 -5 -23 -3 -43 3 -45 16
-58 27 -39 39 9 5 17 33 21 72 3 35 12 84 19 110 13 45 13 49 -10 72 -12 14
-43 33 -66 42 -36 14 -49 14 -73 4 -35 -14 -66 -10 -66 9 0 14 -15 25 -47 35
-10 3 -18 14 -18 23 0 15 -7 18 -40 15 -21 -2 -45 -10 -51 -18 -10 -12 -7 -14
12 -12 19 2 24 -2 23 -20 0 -17 4 -21 16 -17 12 4 19 -1 23 -17 6 -21 7 -21
25 -5 27 25 37 21 18 -8 -21 -31 -20 -38 2 -26 9 5 49 12 87 15 62 6 75 4 110
-17 43 -24 56 -56 30 -77 -8 -7 -15 -23 -15 -36 0 -12 -4 -25 -8 -28 -11 -6
-9 -37 3 -55 6 -11 4 -13 -8 -8 -10 4 -26 -5 -44 -22 -15 -15 -44 -37 -63 -47
-19 -10 -38 -23 -41 -28 -4 -4 -9 -4 -13 2 -3 6 6 20 20 31 15 12 24 25 19 29
-4 4 -10 1 -12 -5 -3 -7 -11 -13 -18 -13 -7 0 -15 -5 -17 -11 -2 -7 -17 0 -35
15 -46 39 -50 32 -9 -14 20 -22 36 -46 36 -54 0 -11 12 -8 48 12 26 14 53 32
60 39 16 15 32 17 32 4 0 -17 31 -41 53 -41 12 0 32 -8 45 -18 23 -18 23 -18
6 -82 -8 -36 -22 -75 -30 -88 -8 -12 -13 -35 -11 -50 6 -37 -39 -123 -102
-197 -28 -33 -59 -72 -69 -87 -9 -16 -21 -28 -26 -28 -5 0 -17 -9 -26 -20 -19
-22 -55 -17 -46 5 2 7 -4 15 -15 18 -10 3 -19 10 -19 17 0 7 8 9 19 5 24 -7
41 33 20 46 -13 8 4 28 54 64 14 10 33 65 22 65 -1 0 -16 -13 -33 -30 -31 -29
-60 -41 -47 -19 14 21 88 68 99 62 6 -3 8 -2 3 2 -4 5 1 17 10 28 17 19 17 20
-4 8 -28 -15 -33 -14 -33 4 0 8 -5 15 -10 15 -6 0 -3 11 6 25 24 37 9 31 -39
-16 -23 -23 -57 -53 -75 -67 l-33 -25 -21 21 c-20 20 -20 22 -4 28 11 4 22 1
28 -7 8 -11 9 -10 4 3 -7 23 62 78 73 59 6 -9 11 -8 22 5 11 14 11 16 0 10 -8
-5 -16 -4 -21 4 -5 9 -18 5 -49 -15 -23 -16 -44 -25 -48 -22 -3 4 9 14 26 24
40 22 76 52 70 57 -4 4 -74 -39 -106 -66 -11 -9 -11 -13 -1 -20 10 -7 9 -12
-6 -23 -24 -18 -41 -9 -24 13 11 13 11 15 -3 10 -8 -3 -33 2 -55 13 -62 29
-60 23 17 -43 69 -60 71 -63 66 -100 -3 -21 -2 -38 1 -38 4 -1 17 -9 29 -19
20 -16 21 -23 12 -48 -14 -43 3 -83 36 -83 28 0 32 -12 11 -30 -12 -9 -17 -7
-28 9 -15 25 -24 26 -44 6 -9 -8 -11 -15 -5 -15 6 0 11 -6 11 -14 0 -7 -27
-26 -61 -41 -33 -15 -73 -39 -87 -54 -40 -40 -70 -50 -103 -34 -15 7 -45 14
-68 16 -22 1 -41 4 -41 6 0 3 8 13 18 24 16 19 16 20 -5 8 -33 -17 -48 -14
-32 5 12 15 11 16 -11 9 -25 -7 -25 -7 5 26 l30 33 -38 -22 c-21 -12 -43 -20
-48 -17 -5 4 -9 0 -9 -8 0 -8 -7 -20 -15 -27 -8 -7 -15 -20 -15 -30 0 -9 -21
-32 -47 -50 -44 -31 -45 -26 -3 21 33 38 40 49 40 59 0 15 -11 12 -27 -7 -8
-10 -4 1 8 24 16 31 28 42 43 40 15 -1 21 4 21 18 0 11 4 26 9 34 6 10 1 9
-20 -3 -23 -14 -35 -15 -57 -7 -38 15 -44 37 -18 72 12 16 17 29 12 29 -6 0
-15 -9 -21 -21 -6 -11 -17 -18 -23 -16 -7 2 -23 -4 -36 -15 -13 -10 -26 -16
-29 -13 -5 5 75 114 93 127 5 4 6 8 1 8 -5 0 -22 -15 -37 -32 -15 -18 -30 -30
-34 -26 -5 4 -2 14 5 23 7 8 8 15 2 15 -13 0 -23 -26 -16 -45 4 -8 1 -15 -5
-15 -6 0 -11 6 -12 13 0 6 -5 2 -11 -10 -12 -25 -28 -31 -28 -10 0 6 -10 1
-21 -13 l-21 -25 6 35 6 35 -23 -28 c-20 -26 -23 -27 -24 -9 -1 11 5 23 12 26
15 5 67 103 79 146 4 14 -9 -6 -29 -45 -20 -38 -52 -85 -71 -104 l-34 -33 6
33 c4 19 13 52 20 74 13 39 13 40 -4 17 -10 -13 -27 -45 -37 -72 -13 -34 -22
-46 -28 -37 -7 9 -10 9 -14 0 -8 -20 -43 -16 -43 5 0 10 -7 27 -16 38 -12 15
-15 15 -10 2 2 -9 -1 -19 -9 -21 -19 -8 -25 2 -19 37 4 31 4 31 -8 6 -6 -14
-13 -27 -14 -29 -2 -2 -17 7 -33 19 -25 17 -30 27 -26 48 3 15 2 20 -1 12 -12
-29 -26 -40 -38 -32 -19 15 -46 22 -46 12 0 -5 20 -21 45 -36 57 -33 67 -51
50 -84 -20 -38 -71 -84 -80 -70 -5 8 -10 8 -20 0 -9 -8 -15 -8 -20 0 -3 6 -11
8 -16 5 -5 -4 -9 17 -10 47 l0 53 -26 -52 c-23 -48 -53 -71 -53 -41 0 6 -10 0
-23 -13 -13 -13 -21 -30 -19 -38 3 -8 -1 -12 -14 -9 -23 5 -22 41 1 64 22 22
19 24 -16 11 -17 -7 -41 -24 -54 -38 l-22 -27 -31 20 c-37 23 -40 18 -13 -26
18 -28 18 -34 5 -61 -14 -29 -74 -73 -74 -55 0 6 5 10 10 10 6 0 10 5 10 12 0
6 -10 2 -23 -10 -31 -29 -44 -16 -15 15 30 33 17 29 -23 -7 -19 -16 -43 -29
-54 -29 -11 0 -15 3 -9 5 7 3 10 14 7 24 -8 30 -21 14 -17 -20 3 -21 -2 -34
-15 -42 -11 -6 -17 -18 -14 -25 7 -17 -13 -17 -21 0 -3 6 -3 2 0 -10 3 -13 1
-23 -5 -23 -6 0 -11 -5 -11 -11 0 -6 16 1 36 16 29 22 43 26 73 22 23 -3 44 1
56 9 45 33 35 9 -20 -46 -33 -33 -54 -60 -48 -60 7 0 16 8 22 17 5 10 13 15
17 10 4 -4 -1 -16 -11 -27 -32 -36 -5 -21 31 16 18 20 31 41 28 46 -8 12 54
71 66 63 6 -3 10 -1 10 4 0 6 -4 11 -9 11 -6 0 6 17 24 38 19 20 35 41 35 45
0 5 5 5 10 2 15 -10 12 -18 -19 -53 -17 -17 -26 -32 -20 -32 17 0 9 -15 -41
-70 -28 -30 -67 -77 -88 -103 -33 -43 -39 -47 -67 -41 -16 3 -37 12 -45 19
-36 30 -60 36 -81 22 -13 -10 -16 -16 -8 -19 7 -2 0 -18 -21 -41 -42 -48 -34
-59 9 -12 17 19 38 35 47 35 13 0 50 -15 62 -26 2 -1 -15 -19 -37 -40 -23 -20
-40 -38 -38 -40 8 -8 45 9 41 20 -2 6 10 20 28 31 l32 19 -38 -47 c-21 -26
-42 -45 -46 -42 -5 3 -22 -7 -39 -21 -17 -14 -31 -21 -31 -16 0 6 12 20 28 31
15 11 21 21 13 21 -8 0 -1 14 18 35 17 20 31 38 31 41 0 9 -35 -14 -56 -38
-53 -58 -180 -235 -176 -246 4 -14 -7 -15 -28 -2 -13 8 -13 13 -2 30 7 11 10
26 6 33 -4 7 -4 9 1 5 7 -7 49 43 54 64 1 4 22 28 47 54 24 26 42 49 39 52 -2
3 -11 0 -18 -6 -8 -7 -18 -8 -22 -4 -5 4 -5 1 -1 -6 5 -8 1 -21 -10 -33 -19
-21 -23 -22 -43 -10 -12 8 -12 12 -2 25 11 13 11 16 -2 16 -9 0 -28 5 -44 11
l-28 11 30 15 c17 9 52 33 79 54 27 22 59 39 73 39 l24 0 -23 30 c-25 35 -42
39 -33 10 14 -43 -73 -103 -152 -107 -29 -1 -63 -8 -75 -14 -30 -17 -98 -20
-98 -5 0 6 -2 51 -3 99 -2 52 1 93 7 101 12 14 96 49 96 40 0 -3 -5 -15 -11
-27 -12 -22 -12 -22 10 -3 11 11 21 24 21 30 0 6 10 17 21 24 18 12 24 11 36
0 12 -12 10 -18 -9 -40 -38 -41 -69 -88 -60 -88 5 0 20 16 33 35 13 19 27 35
30 35 3 0 24 14 45 31 27 22 32 29 17 25 -18 -6 -23 -3 -27 16 -8 43 -4 143 6
156 6 7 8 16 4 20 -4 4 -33 -21 -65 -56 -32 -34 -64 -62 -71 -62 -9 0 -7 8 7
23 11 12 18 29 16 37 -4 13 -3 13 6 0 10 -14 12 -12 15 15 2 18 40 61 64 74
12 6 22 16 22 22 0 23 -89 -52 -123 -104 -9 -15 -25 -27 -35 -27 -15 1 -15 3
3 18 22 18 115 145 115 156 0 4 9 16 20 28 11 12 20 26 20 31 0 6 -9 2 -20 -8
-22 -20 -28 -8 -7 15 10 12 9 12 -6 1 -9 -8 -16 -19 -15 -25 1 -6 -21 -36 -49
-66 -29 -30 -49 -57 -47 -60 3 -3 12 4 20 14 7 11 17 17 20 13 9 -8 -28 -56
-44 -57 -7 0 -11 4 -8 9 4 5 0 11 -6 14 -9 2 1 21 28 53 22 27 46 60 53 74
l12 25 -18 -25 c-29 -41 -105 -120 -115 -120 -14 0 1 41 29 78 13 17 20 32 16
32 -5 0 -14 -9 -21 -20 -7 -11 -17 -20 -22 -20 -17 0 1 53 29 85 l26 30 -27
-24 c-16 -14 -31 -21 -35 -17 -11 11 69 75 94 76 38 0 35 -18 -7 -56 -22 -20
-38 -39 -35 -42 2 -3 25 14 50 37 24 22 54 41 65 41 11 0 20 5 20 10 0 6 -10
10 -22 10 -12 0 -36 5 -54 12 -30 11 -35 9 -69 -20 -19 -18 -37 -32 -38 -32
-1 0 -3 19 -3 43 0 23 -4 112 -8 197 -8 148 -7 156 13 182 18 23 26 25 61 21
50 -7 53 11 5 27 -19 6 -36 15 -36 18 -8 41 -3 59 24 89 35 38 66 42 107 13
16 -11 35 -17 43 -14 8 3 18 0 23 -7 4 -7 2 -15 -4 -17 -7 -2 -12 -8 -12 -14
0 -5 -20 -36 -45 -68 -25 -32 -45 -69 -45 -81 0 -16 18 5 61 69 34 51 66 92
71 92 6 0 8 6 5 14 -3 7 2 24 11 37 l16 24 -22 -19 c-42 -36 -22 -1 47 84 38
47 68 86 66 88 -10 10 -50 -26 -90 -82 -48 -68 -72 -92 -81 -83 -3 3 0 16 7
29 l12 23 -26 -24 c-26 -23 -47 -22 -47 4 0 7 14 25 31 39 17 14 28 26 25 26
-4 0 1 14 10 31 l16 31 -23 -16 c-28 -19 -62 -21 -57 -3 3 6 18 18 34 26 16 8
24 16 17 18 -6 2 -23 -3 -37 -12 -14 -9 -29 -17 -33 -17 -4 0 -14 -3 -22 -6
-8 -3 -17 0 -19 6 -3 9 -9 9 -24 1 -14 -8 -23 -8 -31 0 -8 8 3 23 37 56 37 34
44 45 30 45 -11 0 -41 -22 -67 -48 l-47 -48 25 -24 c20 -19 35 -23 71 -21 25
1 52 -3 59 -9 25 -21 -14 -67 -88 -105 -37 -19 -69 -35 -72 -35 -3 0 -5 225
-5 500 0 275 -5 590 -11 700 -12 216 -9 238 35 224 12 -4 35 -10 53 -14z
m2495 -1870 c12 -11 18 -20 12 -20 -5 -1 6 -7 24 -15 37 -16 41 -30 12 -45
-11 -6 -20 -17 -20 -25 0 -22 -64 -67 -85 -59 -15 6 -17 3 -12 -15 5 -19 2
-22 -13 -18 -11 3 -24 -1 -30 -8 -9 -11 -7 -12 8 -8 23 6 35 -8 26 -31 -8 -22
-23 -20 -51 6 l-23 22 72 69 c40 38 59 60 41 48 -35 -23 -48 -27 -37 -9 4 7 3
8 -4 4 -7 -4 -12 -15 -12 -25 0 -9 -13 -27 -30 -39 -36 -27 -41 -12 -5 16 13
11 22 21 20 24 -3 2 11 29 30 58 19 30 35 62 35 72 0 24 16 23 42 -2z m-1647
-451 c25 -23 45 -47 45 -54 0 -8 3 -15 8 -17 13 -5 82 -105 82 -119 0 -7 3 -9
7 -5 4 4 0 21 -9 39 -36 75 -38 82 -30 112 l9 30 17 -32 c9 -18 14 -33 11 -33
-3 0 1 -13 10 -30 8 -16 15 -40 15 -53 0 -12 4 -27 9 -32 5 -6 12 -23 15 -40
14 -82 117 -300 124 -262 2 9 7 17 12 17 4 0 10 12 13 28 4 22 -2 34 -31 64
-38 40 -38 58 1 41 16 -8 25 -7 34 2 15 16 53 91 53 106 0 6 9 24 20 39 22 31
77 200 72 223 -1 4 2 7 8 7 13 0 23 -64 18 -113 l-5 -42 55 52 c59 57 95 74
43 21 -17 -17 -31 -37 -31 -44 0 -14 -58 -105 -74 -116 -6 -4 -7 -8 -3 -8 5 0
0 -16 -12 -36 -12 -19 -21 -39 -21 -45 0 -5 -9 -28 -19 -52 -11 -23 -22 -55
-26 -71 -3 -17 -12 -35 -20 -40 -9 -7 -16 -44 -20 -101 -7 -95 -22 -187 -24
-147 0 13 -5 21 -9 18 -10 -6 -16 -265 -14 -541 1 -176 14 -312 35 -365 3 -8
8 -31 10 -50 8 -58 58 -222 82 -270 13 -25 39 -57 59 -73 30 -23 44 -27 95
-26 45 1 71 -4 103 -21 24 -12 54 -26 67 -31 21 -8 22 -8 12 5 -7 8 -9 21 -5
28 4 7 4 10 -1 6 -8 -8 -66 24 -99 54 -28 26 -19 23 68 -22 42 -22 86 -40 96
-40 10 0 23 -7 28 -15 9 -16 42 -11 42 7 0 5 -5 6 -10 3 -11 -7 -45 16 -113
77 -36 31 -39 38 -24 44 22 8 37 -4 18 -15 -9 -6 -4 -11 17 -19 22 -8 32 -7
34 0 3 8 10 8 24 0 19 -11 19 -11 -1 -13 -30 -2 52 -19 120 -24 65 -6 189 -32
218 -46 12 -7 17 -5 17 5 0 10 -14 17 -37 21 -57 10 -107 35 -95 47 7 7 20 7
40 0 33 -11 112 -5 112 10 0 5 -17 8 -38 7 -21 -2 -42 0 -47 3 -6 3 -43 3 -82
-1 -40 -4 -73 -4 -73 -1 0 3 12 13 28 22 38 24 10 22 -39 -2 -49 -26 -69 -17
-38 16 29 31 18 30 -37 -2 -49 -29 -56 -19 -23 28 32 44 13 48 -22 4 -33 -39
-43 -40 -44 -3 0 23 -20 37 -20 15 0 -7 -18 -19 -40 -25 -93 -29 -163 35 -234
214 -23 58 -27 88 -10 77 11 -7 149 129 149 147 0 5 11 32 24 61 30 67 34 83
47 188 15 120 14 138 -7 300 -7 59 -55 199 -79 233 -19 27 -19 56 0 63 8 4 15
11 15 18 1 27 61 78 143 121 49 26 90 45 92 43 5 -5 -111 -101 -135 -112 -19
-9 -34 -35 -26 -44 8 -8 55 26 93 69 35 39 122 103 129 96 2 -2 -15 -19 -39
-37 -23 -19 -48 -42 -54 -51 -7 -9 -36 -36 -64 -60 -49 -41 -52 -42 -77 -27
-15 8 -33 13 -39 11 -24 -8 -13 -21 22 -27 20 -4 33 -11 30 -17 -4 -5 -10 -7
-15 -4 -11 7 -20 -8 -12 -20 12 -17 75 -38 107 -37 26 2 47 4 102 10 7 1 20
13 29 27 13 20 14 31 6 55 -13 35 -2 38 55 18 27 -10 38 -10 55 1 18 11 25 10
50 -9 21 -15 40 -20 71 -18 35 3 46 9 72 44 17 24 41 44 56 47 28 6 74 71 63
88 -12 20 7 66 32 78 14 6 29 9 34 6 11 -7 40 5 40 15 0 5 -10 12 -22 16 -13
4 -26 11 -30 17 -4 7 -11 7 -21 -1 -10 -9 -22 -9 -46 -1 -34 12 -91 -3 -91
-25 0 -6 -17 -19 -38 -29 l-37 -19 24 26 c14 14 22 28 20 31 -7 7 -128 -77
-134 -93 -5 -14 7 -9 40 17 14 11 12 7 -4 -12 -16 -17 -31 -25 -42 -22 -10 4
-23 -2 -31 -13 -28 -41 -90 -103 -96 -98 -3 4 8 20 24 38 l29 31 -32 -22 c-18
-12 -35 -26 -38 -31 -3 -5 -12 -7 -19 -4 -14 5 -43 -23 -33 -32 3 -3 -9 -19
-26 -36 -23 -21 -26 -26 -10 -19 12 6 25 16 28 21 9 14 22 12 28 -5 11 -26
-25 -55 -73 -59 -43 -3 -90 10 -90 24 0 15 28 30 46 24 16 -5 16 -4 4 5 -13 9
-12 12 5 25 27 21 40 20 24 -1 -13 -16 -12 -17 3 -5 9 8 14 20 11 29 -4 11 -2
14 8 11 8 -3 19 1 26 8 16 16 17 28 1 18 -7 -4 -8 -3 -4 5 4 6 10 10 14 8 4
-3 23 15 42 38 19 23 58 54 85 68 66 34 193 140 226 188 10 13 20 21 25 17 4
-5 -1 -18 -12 -30 -18 -22 -18 -22 8 1 21 18 24 26 15 36 -10 11 -18 8 -42
-14 -80 -75 -155 -118 -155 -91 0 5 -7 7 -15 4 -26 -11 -16 11 25 51 22 21 38
40 36 42 -2 2 -21 -15 -43 -37 -42 -42 -67 -52 -56 -23 4 11 3 14 -6 9 -6 -4
-9 -16 -6 -27 4 -11 2 -19 -4 -19 -6 0 -11 -9 -11 -21 0 -12 4 -18 11 -13 7 4
10 1 7 -7 -5 -15 -56 -44 -64 -37 -2 3 5 15 16 28 11 13 20 27 20 32 0 17 -16
7 -35 -23 -20 -31 -53 -55 -62 -45 -8 7 30 55 49 61 15 5 33 34 26 41 -2 1
-28 -16 -58 -39 -59 -44 -59 -47 -4 38 28 42 10 38 -38 -10 -25 -25 -48 -45
-52 -45 -7 0 1 62 14 94 5 15 6 26 0 26 -5 0 -11 -8 -15 -19 -7 -24 -72 -91
-88 -91 -6 0 7 18 28 40 45 47 36 53 -15 10 -19 -17 -40 -30 -46 -30 -7 0 -14
-3 -17 -7 -2 -5 -2 -2 -1 5 2 6 -1 12 -6 12 -6 0 -10 -4 -10 -10 0 -5 -4 -10
-10 -10 -15 0 9 44 32 59 13 8 24 9 30 3 7 -7 3 -12 -11 -17 -18 -5 -30 -25
-16 -25 13 0 57 34 66 51 8 15 6 18 -8 13 -12 -4 -8 3 10 20 30 28 28 33 -5
15 -29 -16 -33 -4 -9 27 11 15 21 21 21 13 0 -7 14 1 33 18 17 17 49 38 70 47
20 8 40 22 43 31 3 8 11 15 17 15 5 0 3 -8 -6 -18 -21 -23 -22 -39 -2 -22 12
10 15 10 15 0 0 -8 9 -11 26 -7 18 3 24 1 20 -9 -3 -8 0 -11 10 -7 22 8 13 35
-15 44 -21 7 74 80 116 90 32 7 39 5 56 -17 10 -14 43 -40 72 -58 63 -41 217
-189 238 -231 8 -16 33 -49 56 -72 55 -58 124 -204 165 -348 48 -168 73 -311
42 -239 -8 17 -19 62 -25 100 -14 81 -36 126 -27 54 4 -25 11 -65 16 -90 52
-241 63 -381 39 -501 -6 -30 -14 -79 -19 -109 -23 -138 -42 -205 -75 -272 -59
-122 -105 -200 -146 -254 -55 -72 -154 -164 -176 -164 -16 0 -49 -25 -126 -94
-37 -35 -308 -120 -462 -146 -66 -11 -174 -25 -240 -31 -114 -10 -539 -14
-553 -5 -4 2 -122 7 -262 11 -140 4 -290 9 -333 10 -43 1 -80 -2 -83 -6 -3 -5
29 -9 70 -9 44 0 76 -4 76 -10 0 -6 -65 -10 -176 -10 -122 0 -173 3 -169 11 4
6 9 328 11 717 2 389 3 713 4 720 0 7 5 10 10 7 6 -3 10 -2 10 4 0 5 -6 11
-12 13 -13 5 -23 128 -10 128 4 0 7 111 7 247 l0 248 40 -3 c23 -2 54 4 70 12
25 13 32 14 44 2 20 -21 4 -38 -29 -31 -25 6 -28 4 -23 -14 6 -25 16 -26 48
-5 23 15 79 12 89 -5 3 -4 -10 -24 -28 -45 -29 -35 -34 -38 -55 -27 l-23 13
23 24 c12 13 28 24 36 24 7 0 13 5 13 10 0 14 -11 12 -34 -5 -11 -8 -27 -15
-37 -15 -35 0 -32 -75 3 -86 16 -5 19 -12 15 -33 -4 -19 2 -34 24 -59 29 -32
31 -33 67 -21 20 6 45 15 54 20 10 5 23 9 31 9 7 0 29 9 50 20 52 28 74 25
118 -15 44 -40 59 -38 90 11 23 37 37 47 19 13 -14 -25 -7 -35 9 -15 10 12 16
13 26 3 17 -16 1 -47 -25 -47 -11 0 -20 -7 -20 -15 0 -23 32 -18 63 11 24 22
34 25 63 19 30 -5 36 -3 40 12 3 11 17 24 32 31 37 16 65 35 75 50 4 6 16 12
25 12 16 0 17 -20 14 -242 -4 -303 -4 -606 0 -808 l3 -155 33 -3 c17 -2 32 -7
32 -12 0 -16 -89 -127 -137 -170 -56 -50 -170 -122 -229 -145 l-39 -15 39 4
c22 3 82 27 135 53 100 50 180 121 241 211 29 44 67 144 75 198 2 16 13 83 24
149 11 66 21 143 22 170 3 102 -3 215 -13 221 -7 4 -7 9 0 13 13 8 -12 235
-37 333 -30 116 -80 216 -132 263 -24 22 -84 67 -134 99 -49 32 -100 69 -113
83 l-24 24 27 -7 c15 -4 73 -31 130 -60 105 -56 141 -87 211 -185 20 -27 39
-48 41 -45 6 6 -13 41 -53 93 -19 25 -37 55 -40 69 -3 13 -11 24 -16 24 -6 0
-8 14 -6 30 l5 30 -24 -22 c-22 -21 -23 -21 -43 -3 -21 19 -21 19 21 61 l42
43 22 -42 c12 -23 28 -67 35 -97 14 -60 34 -105 51 -116 16 -10 5 46 -31 154
-27 84 -45 159 -42 175 1 4 -1 7 -6 7 -4 0 -13 15 -21 33 -15 34 -86 118 -94
111 -3 -3 -7 2 -10 11 -11 26 12 16 58 -26z m840 -49 c-48 -49 -34 -53 17 -5
23 22 42 33 52 29 22 -9 20 -24 -4 -25 -32 -2 -34 -3 -64 -32 -16 -14 -32 -25
-36 -22 -4 3 -13 -2 -20 -10 -7 -8 -17 -15 -23 -15 -5 0 -2 10 9 21 19 22 19
22 -4 8 -12 -8 -20 -20 -17 -27 3 -8 -20 -36 -52 -65 -84 -76 -126 -121 -147
-159 -13 -22 3 -10 49 40 38 39 73 72 79 72 6 -1 2 -8 -9 -18 -25 -21 -38 -47
-40 -87 -1 -16 0 -24 2 -17 7 18 21 15 28 -7 8 -25 -21 -81 -75 -149 -41 -53
-66 -67 -57 -33 3 12 -1 22 -9 25 -32 12 -35 57 -9 156 3 14 8 36 11 49 9 45
53 118 91 152 22 20 74 53 116 74 42 21 87 49 99 62 12 13 28 23 37 23 10 0 1
-14 -24 -40z m540 -295 c0 -17 -29 -49 -55 -63 -49 -25 -71 -47 -65 -64 7 -18
37 -13 33 6 -1 6 6 21 17 34 20 23 45 30 45 11 0 -18 -20 -49 -33 -49 -7 0
-36 -26 -65 -57 -30 -33 -56 -54 -60 -48 -4 6 -16 10 -26 10 -49 0 -11 50 118
155 30 25 55 48 56 52 0 15 -76 -35 -120 -78 -25 -24 -48 -44 -52 -44 -17 0
-6 19 23 44 17 14 27 26 22 26 -5 0 -29 -20 -53 -45 -24 -24 -47 -42 -51 -39
-16 9 -49 -20 -43 -38 3 -11 0 -18 -8 -18 -16 0 -44 17 -38 23 3 2 30 21 60
42 30 21 68 52 85 68 16 16 44 35 60 42 17 8 43 23 58 33 20 14 37 17 60 13
18 -4 32 -11 32 -16z m-605 -28 c0 -13 -55 -97 -71 -107 -4 -3 -36 -42 -70
-87 -35 -45 -89 -110 -119 -144 -30 -35 -49 -60 -43 -55 9 5 11 2 7 -8 -3 -9
-10 -14 -14 -11 -21 13 -78 -99 -83 -162 -1 -20 -8 -38 -15 -41 -6 -2 -12 1
-12 7 0 6 4 11 10 11 5 0 8 6 6 13 -14 43 -15 77 -2 77 7 0 17 16 23 35 13 42
-2 48 -19 8 l-12 -28 -4 28 c-2 16 4 39 12 52 9 13 16 30 16 37 0 7 21 25 48
40 77 44 147 117 232 242 32 48 88 105 103 106 4 0 7 -6 7 -13z m-111 -427
c36 -92 51 -171 51 -267 0 -107 -17 -159 -65 -200 -55 -48 -172 -105 -182 -90
-4 7 -8 77 -10 157 -3 221 28 356 110 479 l30 44 18 -24 c10 -13 32 -58 48
-99z"/>
<path d="M9530 7290 c-19 -10 -51 -19 -70 -20 -50 0 -121 -68 -146 -138 -14
-39 -23 -51 -34 -46 -41 18 -60 15 -85 -10 -24 -24 -32 -26 -70 -20 -37 5 -46
3 -65 -18 -11 -12 -35 -37 -52 -54 -36 -37 -32 -64 13 -91 32 -19 37 -44 14
-63 -23 -19 -19 -50 6 -50 11 0 18 4 15 8 -6 10 23 112 37 130 5 7 7 16 3 20
-4 4 -16 -4 -27 -18 l-19 -25 -20 24 c-25 30 -22 40 18 66 17 11 29 26 27 32
-6 18 42 28 71 14 31 -14 67 -14 59 -1 -4 6 -1 17 5 25 14 17 56 20 65 5 3 -5
10 -10 14 -10 10 0 61 76 61 91 0 21 42 69 61 69 10 0 19 5 19 11 0 13 62 39
94 39 14 0 29 7 34 16 12 22 68 21 94 -2 l22 -19 -15 25 c-21 33 -80 37 -129
10z"/>
<path d="M9643 7220 c20 -18 32 -38 32 -56 1 -22 7 -30 23 -32 14 -2 30 -18
43 -44 18 -35 24 -40 47 -35 28 6 89 33 152 67 47 26 82 25 108 -3 27 -29 28
-57 2 -64 -11 -3 -20 -8 -20 -11 0 -4 21 -27 46 -53 l45 -46 -26 -31 c-17 -21
-21 -32 -13 -35 9 -3 6 -11 -9 -26 -30 -28 -29 -36 0 -16 22 14 25 13 46 -9
20 -21 21 -28 12 -62 -12 -45 -11 -48 15 -29 15 12 16 16 5 24 -9 6 -10 11 -2
15 6 4 11 17 11 28 0 19 4 20 59 15 51 -6 65 -3 106 19 43 23 54 24 113 17 73
-9 96 -28 74 -63 -18 -29 -15 -37 15 -52 36 -18 40 -35 9 -49 -31 -15 -33 -32
-5 -60 25 -25 48 -12 31 17 -7 13 -5 24 10 44 22 30 17 53 -17 68 -21 10 -24
16 -19 42 9 42 -16 66 -81 81 -49 11 -56 10 -108 -15 -31 -14 -59 -26 -62 -26
-4 0 -20 11 -37 25 -36 30 -48 31 -81 5 l-26 -21 6 49 c5 47 4 52 -34 93 -38
42 -39 46 -30 83 9 37 8 41 -19 63 -43 34 -90 40 -117 15 -36 -32 -85 -54 -90
-39 -3 8 -14 2 -31 -16 -31 -33 -46 -31 -64 6 -7 15 -24 34 -36 43 -13 8 -31
34 -40 58 -14 37 -21 43 -46 44 l-29 1 32 -29z"/>
<path d="M8950 6834 c-29 -25 -34 -26 -69 -15 -21 6 -42 11 -45 11 -4 0 -34
-28 -67 -61 -56 -57 -61 -60 -78 -45 -23 21 -32 20 -105 -6 -82 -29 -89 -35
-83 -77 10 -72 21 -90 55 -91 17 0 15 14 -8 40 -20 23 -26 56 -12 76 8 13 97
44 126 44 11 0 30 -10 42 -21 l23 -21 27 21 c15 11 33 21 40 21 17 0 17 5 4
29 -23 43 48 79 100 51 15 -8 25 -4 49 20 16 17 37 30 46 30 9 0 13 5 10 10
-10 16 -21 12 -55 -16z"/>
<path d="M9264 6564 c-1 -148 -2 -276 -3 -284 0 -8 2 -50 5 -92 6 -75 6 -76
-17 -80 -16 -2 -25 -11 -27 -25 -4 -24 -47 -57 -63 -47 -6 3 -8 23 -4 48 6 39
5 40 -10 21 -11 -13 -15 -31 -11 -52 4 -30 3 -33 -22 -33 -49 0 -72 11 -72 34
-1 20 -1 20 -15 2 -15 -19 -35 -14 -35 10 0 22 -16 16 -28 -11 -7 -15 -20 -25
-32 -25 -11 0 -20 -5 -20 -11 0 -5 -4 -7 -10 -4 -15 9 -12 25 5 25 10 0 15 10
15 29 0 16 2 44 5 62 4 26 1 21 -13 -17 -10 -29 -31 -63 -47 -78 -31 -29 -34
-30 -54 -17 -12 8 -13 16 -2 51 16 53 6 65 -14 17 -20 -48 -19 -74 3 -86 56
-33 57 -36 21 -80 -30 -38 -36 -41 -71 -37 -20 3 -40 0 -44 -5 -10 -17 18 -41
43 -36 13 2 26 1 28 -4 9 -13 -18 -59 -34 -59 -26 0 -73 50 -66 69 4 9 10 22
13 30 4 10 1 12 -8 6 -9 -6 -12 -4 -8 6 3 8 9 25 13 39 7 25 7 25 -9 3 -9 -11
-20 -33 -26 -48 -8 -21 -14 -25 -33 -19 -29 9 -38 24 -31 53 5 21 3 23 -10 12
-9 -8 -16 -21 -16 -30 0 -20 57 -76 123 -120 26 -18 47 -36 47 -41 0 -24 31
-6 79 44 50 54 66 62 35 18 -14 -20 -14 -23 0 -28 8 -3 21 -4 28 -1 9 4 7 6
-4 6 -13 1 -11 7 10 31 32 37 51 40 27 4 -22 -34 -11 -44 14 -13 22 27 34 22
34 -16 0 -25 0 -25 23 -10 13 8 29 15 37 15 7 0 23 9 36 21 l22 21 52 -51 c28
-28 55 -51 60 -51 9 0 -16 52 -45 93 -11 15 -17 35 -14 43 4 11 2 15 -8 11
-10 -4 -13 -1 -9 9 3 7 11 14 19 14 8 0 14 10 14 25 0 14 5 25 11 25 5 0 7 -5
3 -12 -4 -7 -3 -8 4 -4 7 4 10 17 7 29 -5 18 1 26 30 41 31 17 38 18 46 5 7
-11 9 -11 9 4 0 9 5 17 10 17 6 0 10 -6 10 -14 0 -8 -4 -18 -10 -21 -15 -9
-12 -25 3 -19 11 4 13 -20 12 -122 l-1 -127 121 6 c126 6 209 26 244 58 11 11
25 19 31 19 5 0 10 4 10 9 0 5 8 12 18 15 9 3 34 22 55 42 41 39 63 41 28 3
-12 -13 -21 -28 -20 -33 0 -6 3 -5 6 2 2 6 11 12 19 12 16 0 16 0 18 57 1 23
12 64 23 90 12 26 24 57 27 67 4 10 9 17 11 14 3 -3 -1 -23 -9 -46 -8 -23 -13
-53 -10 -67 2 -14 0 -25 -5 -25 -5 0 -9 -15 -8 -34 1 -23 5 -32 14 -29 17 7
16 -17 -2 -41 -16 -22 -20 -51 -6 -42 5 3 19 25 31 48 12 24 30 52 40 63 9 11
37 58 60 105 51 99 59 112 71 104 7 -4 -21 -54 -41 -74 -8 -7 -33 -62 -36 -78
-1 -8 -10 -29 -19 -49 -21 -44 -11 -56 12 -14 10 17 20 31 23 31 3 0 13 -14
22 -30 22 -39 44 -47 77 -27 31 18 105 21 181 6 42 -9 55 -9 58 1 3 7 13 21
24 32 11 11 16 23 12 26 -3 4 -9 1 -11 -5 -3 -7 -9 -13 -15 -13 -9 0 22 44 59
83 9 9 12 17 6 17 -5 0 -18 -9 -28 -20 -10 -11 -20 -18 -23 -15 -3 2 -23 -11
-45 -30 -38 -32 -76 -50 -49 -23 23 23 12 29 -14 9 -27 -22 -64 -28 -64 -12 0
5 9 13 20 16 11 3 20 10 20 15 0 5 14 11 31 15 17 4 46 21 65 37 19 17 63 52
96 77 34 25 64 53 66 61 4 12 0 11 -19 -3 -78 -56 -70 -53 -89 -29 -31 37 -35
35 -180 -95 -14 -13 -27 -23 -30 -23 -3 0 -25 -25 -49 -55 -24 -30 -46 -53
-49 -50 -7 7 49 87 78 110 13 11 31 29 40 39 54 68 84 95 107 98 36 4 43 28 9
28 -18 0 -29 7 -35 22 -7 20 -10 18 -37 -23 -26 -39 -34 -44 -67 -44 -44 -1
-47 12 -17 68 28 51 16 47 -17 -7 -25 -40 -30 -43 -46 -31 -15 11 -17 17 -7
35 6 12 9 24 7 27 -3 2 -11 -5 -17 -17 -8 -15 -15 -19 -22 -12 -7 7 -4 25 12
57 26 55 21 69 -10 26 -12 -17 -28 -31 -36 -31 -9 0 -12 -5 -8 -11 3 -6 1 -15
-7 -19 -23 -15 -29 0 -13 31 8 17 13 33 11 35 -8 8 -47 -47 -47 -65 0 -22 -34
-24 -53 -3 -12 14 -14 30 -8 81 9 76 -8 190 -38 252 -12 23 -19 44 -17 46 8 9
46 -67 59 -117 l14 -53 6 39 c6 32 1 51 -26 104 -18 37 -39 65 -47 65 -8 0
-22 7 -30 16 -8 9 -44 41 -80 71 -90 77 -157 99 -320 106 l-125 4 -1 -268z
m330 176 c73 -36 156 -118 187 -186 37 -79 38 -132 4 -191 -14 -23 -21 -43
-15 -43 5 0 18 18 26 41 12 29 19 37 25 27 11 -16 1 -115 -14 -146 -8 -17 -8
-25 1 -34 21 -21 14 -101 -11 -139 -20 -30 -31 -36 -87 -46 -36 -7 -84 -12
-108 -13 -41 0 -88 -16 -124 -42 -9 -7 -20 -10 -23 -6 -3 3 -8 97 -11 209 -11
499 -13 565 -20 583 -7 18 -3 19 61 13 37 -4 86 -16 109 -27z"/>
<path d="M10524 6575 c-30 -30 -37 -31 -29 -4 6 19 5 20 -17 9 -12 -7 -48 -36
-79 -64 -30 -28 -76 -68 -102 -89 -45 -37 -58 -57 -37 -57 5 0 15 6 22 14 11
12 16 12 32 -2 14 -13 20 -14 23 -4 3 6 9 12 15 12 6 0 7 -7 4 -16 -5 -14 -4
-15 8 -4 14 11 14 14 0 28 -13 13 -17 13 -24 1 -5 -7 -11 -11 -14 -8 -8 8 70
89 85 89 7 0 21 7 31 17 10 9 18 12 18 7 -1 -18 -40 -55 -69 -65 -38 -13 -40
-26 -5 -35 l25 -6 -20 -22 c-40 -43 -20 -37 34 10 31 26 53 49 50 52 -2 3 -10
0 -17 -5 -44 -34 -46 -17 -3 26 44 45 54 50 80 45 l30 -6 -20 22 -20 22 23 18
c23 19 29 40 12 40 -6 0 -22 -11 -36 -25z"/>
<path d="M9551 3676 c-1 -37 -8 -94 -16 -127 -8 -32 -14 -62 -13 -66 1 -4 -6
-22 -15 -40 -9 -18 -17 -41 -17 -52 0 -22 -22 -41 -28 -23 -2 6 -22 -10 -44
-36 -23 -26 -46 -51 -52 -55 -6 -5 0 -5 14 -2 14 4 39 23 57 44 28 32 32 33
33 15 0 -13 -23 -45 -60 -82 -45 -46 -55 -62 -44 -66 10 -4 36 11 68 39 29 25
63 45 74 45 11 0 23 4 27 9 3 5 19 12 35 16 17 4 30 10 30 15 0 8 70 -25 159
-75 44 -25 91 -33 91 -16 0 4 -16 11 -35 14 -19 3 -55 22 -79 41 -23 20 -51
36 -60 36 -9 0 -19 8 -22 18 -3 9 -11 30 -17 47 -11 29 -11 29 -17 5 -7 -28
-30 -39 -30 -15 0 15 -3 15 -15 5 -14 -11 -15 -4 -10 59 13 184 13 209 0 261
l-13 55 -1 -69z"/>
<path d="M12470 7930 c-96 -3 -177 -8 -180 -9 -27 -17 428 -38 485 -23 17 5
30 15 30 23 0 17 -68 19 -335 9z"/>
<path d="M12647 7224 c-58 -14 -252 -103 -243 -111 2 -3 15 0 28 6 20 10 20
10 4 -1 -10 -7 -47 -34 -81 -60 -37 -27 -61 -39 -58 -30 4 9 11 20 17 24 6 4
7 10 4 14 -4 3 -16 -4 -27 -17 -11 -13 -43 -51 -71 -84 -76 -89 -166 -275
-192 -400 -31 -145 -30 -340 2 -450 12 -44 23 -89 24 -100 2 -19 56 -131 121
-250 15 -27 53 -99 85 -160 59 -115 66 -126 203 -377 143 -261 131 -224 112
-342 -10 -55 -24 -108 -32 -118 -10 -12 -11 -18 -3 -23 12 -7 11 -17 -9 -125
-7 -35 -7 -58 -1 -64 6 -6 10 -21 11 -35 0 -26 1 -26 11 -4 10 20 18 22 102
22 50 1 113 4 140 7 43 5 48 4 43 -10 -9 -23 14 -56 38 -56 18 1 19 1 3 11
-27 15 -22 32 5 18 12 -7 24 -15 27 -19 3 -4 22 -10 43 -13 31 -5 37 -4 28 7
-15 18 13 25 65 17 30 -5 43 -2 56 11 20 20 53 25 42 6 -5 -8 -2 -9 11 -5 9 4
23 3 30 -3 7 -6 39 -11 71 -11 78 -1 89 0 80 8 -3 4 -34 8 -67 9 -51 1 -66 6
-87 28 l-27 26 33 0 c29 0 48 -19 20 -21 -7 0 -4 -4 7 -9 11 -5 50 -9 88 -9
62 -1 84 -11 55 -25 -7 -4 -2 -4 12 -1 14 2 61 5 105 5 105 0 88 20 -19 23
-43 1 -80 5 -82 9 -6 10 40 21 93 22 24 1 43 3 43 6 0 3 24 4 52 2 35 -2 48 0
39 6 -7 5 -22 7 -32 5 -11 -3 -25 -1 -32 5 -10 8 -139 9 -182 2 -5 -1 -34 -1
-63 1 -63 3 -66 6 -82 114 -7 44 -21 127 -30 185 l-17 105 151 301 c145 289
184 370 231 479 12 28 32 72 45 100 12 27 23 54 24 60 1 5 9 26 18 45 36 79
71 204 88 309 31 190 -36 430 -176 627 -53 75 -166 181 -214 201 -86 35 -130
57 -130 64 0 10 -23 18 -110 40 -93 23 -352 25 -443 3z m470 -64 c138 -40 263
-103 263 -133 0 -7 -21 -18 -47 -24 -44 -10 -52 -9 -92 14 -23 14 -67 47 -97
74 -30 27 -58 49 -62 49 -11 -1 97 -96 147 -130 28 -19 39 -31 30 -34 -8 -3
-115 -34 -239 -70 -124 -35 -270 -83 -325 -106 l-100 -41 -20 27 c-54 74 -180
214 -183 205 -2 -6 18 -35 45 -64 79 -88 139 -170 126 -174 -7 -3 -9 -11 -7
-18 3 -8 -5 -29 -19 -47 -14 -18 -34 -51 -45 -73 -19 -39 -81 -227 -102 -312
-9 -37 -23 -53 -113 -124 -56 -45 -117 -96 -135 -113 -38 -35 -49 -29 -57 33
-3 24 -11 51 -18 59 -14 18 -20 299 -6 308 5 3 7 10 4 15 -4 5 -1 9 4 9 6 0
11 7 11 16 0 41 76 238 126 327 45 79 59 97 78 97 13 0 29 -7 37 -16 7 -8 35
-31 63 -50 28 -19 74 -50 101 -70 l50 -36 -45 41 c-25 23 -80 65 -122 94 -43
29 -77 55 -78 59 0 13 157 121 225 155 199 96 394 113 602 53z m343 -209 c18
-22 35 -47 36 -56 1 -9 10 -25 18 -34 9 -10 13 -21 9 -26 -5 -4 -3 -5 3 -2 11
6 32 -13 49 -43 5 -9 -1 -7 -15 5 l-23 20 18 -32 c11 -18 25 -33 31 -33 7 0
14 -7 18 -15 3 -8 1 -15 -4 -15 -6 0 -10 5 -10 10 0 6 -5 10 -12 10 -9 0 -9
-3 0 -12 7 -7 12 -20 12 -30 0 -11 11 -29 24 -41 38 -36 48 -95 47 -282 -1
-236 -14 -272 -69 -196 -39 53 -124 227 -161 327 -33 89 -107 279 -121 309
-23 51 -50 118 -50 125 0 13 102 47 145 49 12 1 35 -15 55 -38z m-243 -68
c-18 -188 -30 -374 -24 -380 16 -16 21 18 32 200 l11 192 18 -34 c27 -50 102
-231 148 -356 22 -60 62 -152 89 -204 28 -51 48 -95 47 -97 -2 -2 -64 37 -138
86 -73 50 -148 95 -167 102 -30 11 -33 16 -31 47 1 20 -3 36 -10 39 -7 2 -12
8 -12 13 0 17 -55 94 -99 138 -68 68 -117 86 -236 86 -87 0 -107 -4 -155 -27
-115 -54 -175 -155 -195 -329 -5 -39 -3 -64 6 -80 7 -13 14 -26 14 -29 15 -93
76 -189 150 -235 46 -28 54 -30 154 -30 88 0 112 3 139 20 17 10 32 23 32 27
0 10 -112 -2 -124 -13 -15 -13 -106 -11 -147 4 -20 7 -52 24 -71 39 -39 30
-82 111 -75 139 3 10 -1 23 -9 30 -16 13 -21 154 -5 145 5 -4 5 11 0 35 -7 30
-6 45 4 59 8 11 17 17 20 13 4 -3 15 13 25 36 11 23 23 41 28 39 5 -2 11 8 12
21 2 13 12 26 23 28 10 3 17 9 14 13 -3 5 10 14 29 20 19 6 36 16 39 23 2 8
37 12 113 12 102 0 112 -2 149 -27 73 -49 95 -77 135 -165 13 -29 28 -53 33
-53 27 0 -24 -191 -62 -235 -10 -11 -24 -35 -31 -53 -8 -21 -18 -31 -26 -28
-10 4 -14 -4 -14 -29 0 -19 3 -35 8 -35 8 0 62 58 62 67 0 3 11 18 24 34 36
42 68 136 64 187 -2 27 1 42 8 42 7 0 59 -31 116 -68 56 -38 136 -90 176 -115
39 -26 72 -52 72 -59 0 -7 -98 -62 -218 -122 -119 -60 -287 -152 -373 -203
-86 -51 -161 -93 -167 -93 -6 0 -32 33 -58 72 -26 40 -82 111 -126 158 -44 46
-75 86 -68 88 6 2 -2 18 -17 37 -79 94 -115 155 -93 155 10 0 10 3 0 15 -9 10
-9 15 -1 15 6 0 11 5 11 11 0 6 -6 9 -13 6 -6 -2 -18 1 -24 8 -10 10 -9 14 3
19 9 3 19 4 23 2 3 -3 6 20 5 49 -2 76 75 293 124 349 28 32 198 100 417 167
33 10 89 29 125 43 94 36 93 36 87 -31z m-756 -740 c69 -103 130 -183 203
-268 34 -38 71 -84 83 -102 l23 -32 -68 24 c-37 12 -134 54 -217 93 -82 38
-196 89 -252 113 -57 24 -103 46 -102 49 0 3 32 28 70 55 95 67 173 128 177
137 10 22 37 0 83 -69z m1149 -67 c0 -5 -41 -99 -100 -233 -13 -29 -28 -49
-33 -46 -6 4 -7 1 -2 -7 5 -8 -16 -60 -56 -139 -35 -69 -66 -128 -69 -131 -3
-3 -12 -19 -21 -35 -8 -17 -21 -39 -27 -50 -6 -11 -25 -51 -43 -90 -77 -174
-144 -312 -161 -331 -10 -11 -18 -24 -18 -29 0 -5 -12 -22 -27 -37 -18 -19
-22 -28 -12 -28 10 -1 9 -4 -5 -15 -11 -8 -15 -19 -10 -27 4 -7 4 -10 -1 -6
-12 11 -51 -50 -64 -99 -6 -22 -20 -48 -32 -58 -13 -13 -18 -27 -15 -40 3 -12
-1 -30 -9 -41 -13 -17 -14 -17 -15 -1 0 9 6 17 13 17 8 1 7 4 -3 9 -13 8 -15
45 -15 234 0 205 2 227 19 245 10 12 16 27 13 34 -3 8 -9 2 -16 -15 -14 -35
-31 -26 -31 16 0 32 40 129 64 157 21 24 66 110 58 110 -4 0 -18 -19 -32 -42
-14 -23 -35 -54 -48 -69 -13 -16 -24 -37 -25 -49 -2 -24 -12 -26 -21 -4 -11
29 -6 140 7 153 10 10 9 12 -3 9 -19 -4 -25 34 -11 73 7 20 7 29 -1 29 -6 0
-8 15 -6 38 3 20 1 52 -3 70 -5 24 -4 32 7 32 8 0 14 5 14 10 0 6 10 14 23 19
13 5 43 22 68 39 24 16 91 56 149 87 58 32 124 68 147 80 22 13 44 21 47 18 3
-3 12 2 21 10 14 15 75 37 101 37 6 0 19 10 30 21 18 21 101 64 117 61 4 -1 7
3 7 8 0 6 7 10 15 10 8 0 15 -2 15 -4z m-1218 -202 c95 -42 222 -96 281 -120
147 -60 142 -56 142 -117 0 -29 8 -203 18 -387 22 -410 26 -550 14 -550 -4 0
-1 -10 7 -22 9 -12 16 -26 16 -30 0 -18 -16 -6 -38 28 -16 25 -20 40 -13 47 7
7 1 21 -20 46 -16 19 -29 40 -29 45 0 5 -18 35 -40 67 -22 32 -82 134 -133
226 -51 92 -117 208 -145 257 -29 49 -52 90 -52 92 0 2 -20 35 -45 74 -25 39
-45 72 -45 75 0 7 -79 166 -138 277 -29 53 -52 102 -52 108 0 6 22 -1 49 -15
28 -14 128 -59 223 -101z"/>
<path d="M13815 5850 c2 -28 6 -54 9 -57 3 -4 6 -23 6 -43 0 -21 7 -54 15 -73
8 -20 17 -62 19 -94 2 -32 10 -71 17 -88 7 -16 14 -43 16 -59 2 -16 7 -34 12
-40 9 -11 17 -42 27 -110 3 -22 10 -49 14 -62 5 -12 6 -25 3 -28 -3 -3 0 -13
8 -22 8 -10 13 -20 13 -23 -1 -3 0 -10 1 -16 6 -23 28 -132 30 -150 2 -11 8
-38 14 -59 6 -22 9 -42 6 -44 -9 -9 -25 11 -26 31 0 12 -3 17 -5 11 -3 -6 7
-57 21 -115 14 -57 28 -119 30 -138 2 -19 7 -37 12 -40 4 -3 9 -24 11 -46 2
-22 7 -44 12 -49 5 -5 6 -15 3 -24 -4 -10 -2 -13 5 -8 7 4 9 -4 5 -29 -4 -23
-2 -35 6 -35 6 0 11 -8 11 -18 0 -10 3 -22 7 -26 4 -3 9 -14 11 -24 8 -39 14
-78 16 -97 0 -11 4 -22 7 -25 5 -5 16 -50 61 -260 11 -52 31 -140 44 -195 13
-55 51 -221 85 -370 101 -447 116 -507 144 -577 7 -17 -17 -18 -382 -18 -213
-1 -397 -2 -408 -2 -11 -1 -59 -1 -106 0 l-86 2 -22 118 c-46 244 -51 268 -55
312 -7 61 -15 120 -21 150 -2 14 -7 43 -10 65 -9 63 -35 196 -46 238 -6 21
-11 56 -11 78 0 42 -12 57 -31 40 -9 -7 -79 -6 -226 2 -117 7 -215 9 -218 4
-2 -4 -11 -3 -19 4 -8 6 -14 9 -14 6 0 -3 -15 -1 -32 4 -37 11 -168 2 -168
-12 0 -5 20 -6 45 -2 31 4 45 2 45 -6 0 -15 -97 -15 -102 1 -4 10 -13 10 -44
1 -64 -19 -134 -25 -134 -10 -1 10 -22 -18 -26 -33 0 -3 -4 -12 -7 -20 -4 -8
-20 -62 -37 -120 -16 -58 -39 -128 -50 -157 -11 -28 -38 -127 -60 -220 -23
-92 -43 -176 -46 -185 -3 -10 -1 -18 3 -18 5 0 19 39 31 87 12 48 25 89 27 92
13 12 13 -10 1 -60 -8 -30 -20 -76 -26 -104 -7 -27 -14 -68 -16 -90 -2 -22 -9
-70 -15 -107 l-12 -68 -64 0 c-94 0 -257 21 -265 34 -5 7 -8 7 -8 -3 0 -9 -4
-10 -12 -4 -7 5 -144 8 -310 7 -164 -1 -298 0 -298 2 0 3 14 59 30 127 17 67
37 151 45 187 17 79 68 293 132 559 4 14 0 26 -8 32 -12 7 -11 9 1 9 9 0 15
10 16 28 1 52 26 178 83 431 11 46 17 89 15 95 -3 7 0 23 5 37 10 24 10 24 12
-6 1 -22 3 -25 6 -10 3 11 9 25 14 31 5 6 11 21 13 35 3 13 5 24 6 24 1 0 3
19 6 43 2 24 0 42 -6 42 -6 0 -10 4 -10 10 0 5 6 7 13 4 17 -6 38 77 25 100
-6 10 -5 16 1 16 11 0 31 87 24 107 -3 7 0 13 5 13 6 0 9 10 7 22 -3 12 0 27
6 35 6 7 9 20 5 28 -3 9 0 15 9 15 8 0 15 5 15 10 0 6 -6 10 -12 10 -10 0 -9
3 1 9 7 5 10 14 7 20 -4 6 -3 11 1 11 5 0 10 12 11 27 1 15 7 32 12 37 6 6 10
26 11 46 0 38 20 139 30 155 4 6 12 42 19 80 6 39 16 84 21 100 20 67 69 320
69 356 0 21 5 41 11 44 6 4 8 13 5 20 -2 7 -1 16 4 21 13 15 23 74 12 74 -18
0 -99 -310 -168 -645 -15 -71 -40 -182 -56 -245 -17 -63 -35 -136 -40 -162 -6
-27 -15 -48 -19 -48 -5 0 -9 5 -9 11 0 5 -5 7 -11 4 -6 -4 -8 -14 -5 -22 4 -9
1 -22 -5 -29 -6 -8 -8 -14 -5 -14 4 0 2 -9 -5 -21 -7 -15 -8 -24 -1 -31 7 -7
6 -15 -4 -25 -16 -16 -19 -48 -4 -38 6 3 10 -1 10 -10 0 -9 -4 -14 -8 -11 -4
2 -9 -14 -9 -36 -1 -22 -7 -64 -14 -94 -10 -43 -15 -52 -26 -43 -10 9 -13 8
-13 -5 0 -9 5 -16 10 -16 6 0 10 -7 10 -16 0 -9 -5 -12 -12 -8 -7 4 -8 3 -4
-5 7 -10 -18 -141 -46 -246 -6 -22 -19 -78 -29 -125 -19 -91 -46 -211 -54
-247 -3 -13 -10 -23 -16 -23 -6 0 -6 6 -1 18 5 9 12 40 16 67 4 28 15 82 26
120 19 75 44 186 60 275 24 134 36 289 22 275 -5 -5 -13 -46 -16 -91 -5 -69
-18 -147 -43 -244 l-6 -25 -7 25 c-4 14 -4 30 0 35 15 22 39 176 43 273 3 84
1 105 -10 109 -9 4 -11 8 -4 12 5 4 12 29 15 56 12 96 38 185 55 186 10 0 12
2 4 6 -7 2 -13 9 -13 14 0 6 4 8 9 4 5 -3 12 -1 16 5 3 5 1 10 -6 10 -8 0 -5
5 5 13 13 10 18 27 17 72 0 75 14 171 45 300 13 55 28 127 34 160 5 33 12 71
15 85 3 14 10 53 15 88 6 35 18 98 26 140 17 82 24 162 13 162 -14 0 -31 -60
-80 -280 -61 -279 -65 -302 -84 -446 -8 -61 -26 -158 -41 -215 -14 -57 -30
-120 -34 -139 -12 -57 -60 -243 -70 -275 -8 -26 -37 -163 -46 -220 -1 -11 -19
-83 -39 -160 -20 -77 -47 -196 -61 -265 -13 -69 -38 -172 -54 -230 -53 -186
-103 -467 -96 -535 5 -47 2 -72 -13 -114 -11 -30 -18 -58 -15 -63 10 -16 21 1
28 41 9 55 23 59 31 9 4 -24 14 -55 21 -70 8 -15 14 -38 14 -51 0 -13 7 -32
15 -43 8 -10 15 -26 15 -35 0 -27 59 -45 125 -38 33 4 101 7 150 8 62 1 85 4
75 11 -10 7 18 10 87 9 57 0 105 -5 109 -10 3 -5 99 -6 228 -3 211 6 223 5
231 -12 6 -18 8 -17 16 4 7 20 13 22 43 17 20 -4 36 -2 40 4 5 7 -4 11 -24 11
-30 0 -31 1 -24 38 4 20 11 45 15 54 5 9 9 26 9 36 0 19 6 20 93 16 50 -1 112
-7 137 -12 76 -15 279 -14 340 2 30 7 46 14 36 15 -11 1 -16 4 -12 9 8 8 13 8
96 11 42 1 51 4 38 12 -23 13 -237 4 -252 -11 -8 -8 5 -9 47 -4 40 5 57 3 57
-5 0 -7 -23 -11 -62 -12 -35 0 -79 -2 -98 -3 -19 -1 -44 1 -55 5 -13 5 -3 8
32 8 28 1 55 5 58 11 4 6 -21 7 -67 4 -72 -6 -112 -6 -280 -5 l-88 1 0 30 c0
26 3 30 23 25 12 -3 42 -9 67 -15 42 -9 345 -6 470 5 67 6 156 15 190 19 14 1
36 4 49 4 13 1 22 5 18 8 -9 10 -85 8 -175 -5 -46 -7 -106 -11 -135 -11 -29 1
-115 1 -192 1 -129 -1 -193 4 -204 15 -2 2 92 5 210 5 262 2 297 3 305 12 4 4
-106 7 -244 7 -156 0 -253 4 -257 10 -4 6 34 10 107 11 62 1 102 4 88 7 -42 8
6 19 54 13 23 -3 122 -4 221 -1 l180 5 -120 8 c-207 13 -547 18 -540 7 4 -6
11 -7 17 -4 7 4 8 2 4 -5 -4 -6 -12 -9 -17 -6 -5 4 -9 1 -9 -4 0 -6 -9 -11
-20 -11 -13 0 -18 -5 -14 -14 4 -11 -2 -14 -25 -14 -35 1 -43 30 -13 47 11 7
12 11 4 11 -10 0 -12 8 -8 28 4 15 8 43 10 62 2 19 9 48 15 63 6 16 9 32 6 37
-3 5 1 28 9 52 8 24 17 81 21 128 4 47 11 90 15 95 5 6 16 49 25 96 l17 86 47
-2 c25 -1 178 -3 339 -4 l292 -1 0 -24 c0 -31 20 -86 31 -86 5 0 9 -5 9 -11 0
-5 -4 -8 -9 -5 -25 16 -11 -63 17 -92 6 -7 12 -21 12 -30 0 -15 -2 -15 -10 -2
-8 13 -10 12 -10 -2 0 -10 5 -18 10 -18 6 0 10 -7 10 -16 0 -9 -5 -12 -12 -8
-8 5 -9 2 -5 -10 4 -10 7 -21 7 -24 0 -4 5 0 11 8 7 11 8 6 4 -20 -3 -19 -1
-57 5 -85 6 -27 17 -90 25 -139 8 -49 21 -98 29 -110 9 -11 29 -40 45 -62 21
-31 26 -45 18 -53 -8 -8 -8 -11 2 -11 6 0 35 -24 63 -52 l50 -53 -7 35 c-10
46 -32 85 -78 134 -21 23 -45 54 -53 70 -15 28 -15 29 5 23 16 -4 21 0 21 13
0 11 -4 21 -9 24 -10 7 -2 56 10 56 5 0 9 -6 10 -12 0 -7 2 -22 5 -33 2 -11 7
-40 11 -65 3 -25 13 -54 21 -65 13 -19 14 -17 7 15 -4 19 -11 52 -15 73 -8 42
-3 80 11 72 4 -3 11 -27 14 -53 4 -26 16 -81 26 -122 11 -41 22 -97 24 -125 2
-27 7 -58 10 -67 6 -15 2 -18 -23 -18 -44 0 -48 -16 -4 -17 20 -1 270 -4 555
-6 285 -2 522 -8 526 -13 5 -5 16 -37 27 -71 19 -67 39 -89 22 -25 -5 20 -13
60 -17 87 -4 28 -23 111 -41 185 -18 74 -34 144 -35 155 -1 11 -7 32 -13 46
-17 43 -30 97 -66 275 -19 93 -46 219 -60 279 -14 61 -33 139 -41 175 -8 36
-15 84 -15 107 0 23 -8 57 -19 75 -25 44 -35 88 -20 88 8 0 8 4 -1 15 -22 27
-55 186 -40 195 7 5 7 23 -1 58 -6 29 -15 50 -20 46 -5 -3 -9 0 -9 5 0 6 4 11
8 11 5 0 0 33 -10 73 -33 123 -37 141 -42 185 -3 23 -8 48 -13 55 -4 6 -6 20
-5 30 2 9 -2 17 -8 17 -7 0 -10 6 -7 14 3 7 2 17 -3 22 -4 5 -10 25 -13 44 -3
19 -10 50 -16 68 -5 18 -13 56 -16 85 -3 28 -15 86 -25 127 -10 41 -26 107
-35 145 -8 39 -27 106 -40 150 -13 44 -42 150 -63 235 -41 159 -64 204 -57
110z"/>
<path d="M6293 3088 c-17 -18 -52 -60 -76 -93 -45 -59 -45 -60 -24 -72 23 -13
114 -10 247 7 53 6 42 8 -65 6 -134 -3 -193 4 -144 17 13 4 124 10 247 13 230
7 287 24 83 24 -63 0 -111 3 -108 6 8 8 34 10 145 12 118 3 95 22 -26 23 -73
1 -90 3 -67 10 16 4 58 9 93 10 113 3 42 19 -92 21 -129 1 -168 17 -48 19 37
1 81 5 97 9 25 6 20 8 -30 10 -33 1 -92 4 -130 6 -69 4 -71 4 -102 -28z"/>
<path d="M15937 2883 c-16 -3 -26 -10 -24 -16 8 -25 115 -35 364 -36 226 -1
252 1 246 15 -4 12 -8 13 -14 3 -6 -10 -12 -9 -28 5 -16 15 -26 16 -53 8 -51
-15 -114 -14 -128 3 -7 8 -18 15 -24 15 -6 0 -3 -7 7 -14 15 -11 9 -13 -45
-12 -35 1 -68 4 -74 8 -6 4 -23 5 -37 2 -21 -3 -25 -1 -21 11 5 13 -5 15 -67
14 -41 -1 -87 -4 -102 -6z"/>
<path d="M12499 2866 c-3 -3 -46 -6 -97 -8 -51 -2 -92 -6 -92 -10 0 -7 32 -12
53 -9 4 0 7 -4 7 -10 0 -9 63 -10 238 -6 285 8 343 14 335 34 -4 10 -14 12
-37 6 -41 -9 -253 -10 -337 0 -36 4 -68 5 -70 3z"/>
</g>
</svg>
