<?xml version="1.0" standalone="no"?>
<!DOCTYPE svg PUBLIC "-//W3C//DTD SVG 20010904//EN"
 "http://www.w3.org/TR/2001/REC-SVG-20010904/DTD/svg10.dtd">
<svg version="1.0" xmlns="http://www.w3.org/2000/svg"
 width="1928.000000pt" height="1074.000000pt" viewBox="0 0 1928.000000 1074.000000"
 preserveAspectRatio="xMidYMid meet">
<metadata>
Created by potrace 1.16, written by Peter Selinger 2001-2019
</metadata>
<g transform="translate(0.000000,1074.000000) scale(0.100000,-0.100000)"
fill="#000000" stroke="none">
<path d="M14550 8025 c0 -4 12 -24 27 -43 18 -24 26 -47 26 -76 1 -23 -3 -297
-7 -611 -4 -313 -8 -1056 -9 -1650 0 -765 -3 -1082 -11 -1087 -7 -5 -8 -11 -1
-15 16 -12 18 -323 2 -323 -9 0 -8 -3 2 -9 9 -6 12 -24 7 -67 -3 -33 -5 -66
-4 -74 4 -99 7 -341 7 -530 0 -249 0 -281 5 -347 3 -35 0 -42 -18 -47 -21 -6
-33 4 -78 66 -9 13 -1 -8 18 -47 39 -76 50 -93 40 -57 -10 31 15 29 50 -3 27
-25 27 -26 8 -40 -17 -13 -17 -14 -1 -15 9 0 17 -5 17 -11 0 -6 -8 -8 -17 -5
-11 4 -8 -2 7 -14 87 -70 120 -104 115 -118 -3 -9 0 -12 9 -9 37 15 106 -118
106 -205 0 -32 4 -58 9 -58 6 0 10 17 9 38 0 20 5 57 12 80 10 38 14 43 33 38
12 -3 83 -6 157 -7 74 0 129 -3 123 -6 -7 -2 -13 -9 -13 -14 0 -6 4 -7 10 -4
5 3 78 8 162 11 84 2 180 7 213 10 61 6 186 11 283 13 28 1 52 6 52 11 0 6 -7
10 -15 10 -8 0 -23 9 -32 20 -21 24 -33 26 -33 5 0 -9 -9 -15 -22 -15 -17 0
-19 3 -10 12 7 7 12 42 12 86 l0 75 83 -7 c45 -4 96 -9 112 -11 124 -13 154
-15 175 -7 16 6 2 9 -51 10 -40 1 -91 7 -114 13 -22 7 -76 12 -120 13 -76 1
-80 2 -83 24 -3 21 -1 23 25 18 15 -3 60 -7 100 -8 40 -1 67 -6 60 -10 -25
-15 8 -21 150 -24 230 -6 316 -11 338 -20 19 -7 19 -7 2 13 -9 11 -14 23 -10
28 5 4 3 5 -3 2 -6 -4 -20 0 -30 8 -10 8 -26 14 -34 15 -12 0 -13 -2 -1 -9 7
-5 10 -14 6 -20 -10 -17 -36 6 -28 25 4 11 -4 14 -33 14 -117 1 -465 12 -501
16 l-42 5 0 502 c0 276 -3 645 -7 820 -4 174 -4 317 -1 317 3 0 15 -30 27 -68
13 -37 47 -124 76 -194 30 -70 54 -131 54 -137 0 -6 12 -36 26 -68 14 -32 52
-132 85 -223 110 -304 152 -415 166 -443 7 -15 15 -45 18 -67 2 -21 17 -67 33
-102 38 -80 105 -259 99 -265 -3 -2 -24 15 -47 39 -41 42 -47 35 -7 -9 10 -12
16 -26 13 -32 -4 -6 9 -13 29 -17 25 -4 40 -15 51 -35 8 -16 28 -38 44 -50 16
-12 27 -26 24 -31 -3 -5 -1 -7 4 -6 11 3 222 -182 222 -194 0 -5 -27 -8 -60
-8 -33 0 -60 -4 -60 -10 0 -5 6 -10 13 -11 67 -6 84 -6 103 1 28 11 43 -5 79
-87 28 -64 66 -113 46 -60 -6 15 -19 44 -31 66 -24 48 -25 61 -5 61 8 0 33
-25 56 -55 23 -30 46 -55 51 -55 11 0 -23 50 -47 70 -34 29 -13 31 178 24 105
-5 218 -8 250 -6 l57 2 0 -60 c0 -33 4 -60 10 -60 6 0 10 27 10 60 l0 60 38 0
c20 0 46 7 56 15 13 10 44 15 88 15 l68 0 1 -67 c1 -38 1 -72 0 -77 -1 -5 2
-16 6 -25 4 -9 10 23 13 79 l5 95 73 -2 c39 -1 72 3 72 8 0 5 -10 10 -22 11
-13 0 -27 2 -33 3 -5 2 -27 3 -49 4 l-38 1 6 53 c12 94 17 1158 5 1151 -6 -3
-10 -27 -9 -53 1 -25 1 -89 -1 -141 l-2 -95 -7 65 c-10 95 0 353 14 363 7 5 8
9 1 15 -12 8 -16 222 -5 222 4 0 11 25 15 55 10 86 13 750 3 940 -9 174 -18
835 -15 1025 3 136 1 817 -2 1030 l-3 165 31 -1 c40 -2 40 12 1 20 -17 3 -30
12 -30 20 0 8 -10 18 -21 21 -12 4 -62 44 -113 90 -139 125 -245 209 -254 201
-17 -18 74 -120 155 -174 38 -25 143 -122 143 -132 0 -3 -51 -2 -112 3 -109 8
-416 3 -678 -9 l-125 -7 -45 54 c-25 30 -81 88 -125 129 -44 41 -81 77 -83 80
-1 3 170 4 380 2 277 -3 394 0 425 9 57 15 55 29 -4 28 -27 0 -70 3 -98 6 -76
9 -380 6 -557 -5 -87 -6 -161 -10 -165 -9 -24 4 -31 -4 -30 -38 1 -21 -5 -114
-12 -208 -9 -114 -11 -228 -6 -345 12 -289 7 -863 -8 -872 -8 -5 -7 -8 6 -8 9
0 17 -5 17 -11 0 -6 -7 -8 -16 -5 -15 6 -16 0 -11 -51 7 -73 -3 -57 -48 75
-18 53 -51 138 -73 187 -22 50 -60 151 -85 225 -25 75 -70 193 -101 262 -30
69 -67 155 -81 192 -14 36 -37 96 -51 134 -14 37 -37 87 -51 111 l-25 44 28
-7 c28 -7 28 -7 10 13 -10 11 -24 17 -30 15 -7 -3 -28 16 -47 41 -19 25 -49
65 -67 88 -18 23 -49 64 -70 90 -20 26 -52 64 -70 85 l-33 37 7 -30 c4 -16 12
-37 18 -45 6 -8 20 -31 30 -50 11 -19 38 -55 60 -80 23 -25 57 -64 75 -87 19
-24 40 -43 48 -43 7 0 13 -3 13 -7 0 -11 -709 -4 -742 7 -18 6 -28 5 -28 -1 0
-5 -25 -9 -55 -9 -63 0 -82 15 -142 115 -40 66 -103 148 -109 142 -2 -2 16
-35 41 -72 42 -65 52 -85 40 -85 -3 0 -17 19 -32 43 -15 23 -45 61 -67 84 -37
40 -45 72 -11 43 10 -8 19 -10 25 -4 6 6 58 6 127 2 219 -13 712 -14 702 -2
-13 16 -150 23 -549 30 l-335 5 -33 42 c-41 52 -42 52 -42 42z m2056 -422 c-3
-7 0 -15 5 -19 7 -4 8 -21 4 -43 -12 -63 -14 -110 -15 -365 -2 -232 -3 -249
-20 -253 -21 -6 -29 -34 -31 -113 -1 -80 0 -90 11 -90 6 0 10 37 10 90 0 76 3
90 16 90 14 0 16 -21 13 -194 -2 -107 -7 -198 -11 -202 -15 -14 -22 7 -20 59
1 29 -3 66 -8 82 -8 25 -9 22 -5 -23 2 -29 1 -51 -3 -48 -9 5 -7 -327 2 -342
8 -13 -3 -44 -14 -37 -4 2 -8 30 -9 62 -1 32 -6 85 -10 118 -5 33 -7 64 -4 68
3 4 -2 19 -11 32 -9 13 -16 32 -15 42 0 12 5 8 14 -12 15 -32 16 -30 19 28 1
27 -3 36 -12 32 -7 -3 -10 0 -7 5 3 6 3 16 -1 22 -8 13 -14 41 -15 70 0 10 -4
20 -9 23 -9 6 -4 -121 6 -136 2 -4 0 -10 -6 -14 -6 -4 -13 7 -16 24 -4 21 -11
28 -21 24 -12 -5 -13 -2 -5 13 10 19 9 55 -4 174 -10 87 -11 111 -4 115 8 5
-1 85 -10 85 -10 0 -17 -89 -15 -193 2 -49 -1 -85 -6 -80 -10 10 -23 170 -19
228 2 22 3 63 2 90 0 28 -3 213 -6 413 -3 199 -8 367 -11 372 -4 6 -3 19 0 30
5 17 23 3 126 -97 65 -65 117 -123 115 -130z m-1752 -11 c-7 -11 -8 -26 -3
-41 5 -12 7 -26 4 -31 -3 -4 -7 -788 -11 -1741 -6 -1995 -5 -1879 -21 -1879
-15 0 -18 -36 -4 -44 12 -8 6 -95 -8 -109 -8 -8 -11 -4 -11 15 0 15 -3 33 -6
42 -4 11 -1 16 11 16 15 0 15 2 1 15 -8 8 -19 15 -23 15 -5 0 -9 -44 -9 -97 0
-54 0 -118 -1 -143 -2 -25 -2 -55 -2 -67 0 -13 0 -51 0 -85 -1 -35 1 -103 3
-153 4 -64 2 -85 -5 -72 -13 22 -19 116 -23 349 -2 132 -7 182 -17 195 -13 16
-12 17 4 4 15 -12 17 -11 17 2 0 8 -5 17 -12 19 -7 3 -13 17 -13 33 -1 16 -7
31 -13 33 -7 2 -9 -14 -7 -50 9 -120 13 -351 5 -327 -4 14 -11 93 -15 175 -4
82 -9 163 -12 179 -7 45 -5 363 2 375 3 5 3 15 -1 22 -7 11 -8 35 -5 101 1 24
3 26 20 17 19 -10 19 -9 6 17 -15 28 -11 48 7 37 6 -4 3 4 -8 18 -10 14 -23
23 -28 20 -5 -3 -6 0 -2 6 4 6 2 20 -4 31 -6 13 -6 22 0 26 5 3 6 13 3 21 -4
10 2 17 16 21 11 3 21 9 21 14 0 5 -12 4 -26 -1 -37 -14 -42 -12 -15 6 17 12
21 22 16 38 -3 11 -9 38 -12 60 -4 29 -2 37 7 31 10 -6 11 -4 4 6 -9 15 -13
109 -4 109 3 0 6 14 7 31 2 26 0 29 -13 19 -8 -7 -17 -10 -21 -6 -3 3 0 6 8 6
11 1 11 3 -1 13 -19 14 -29 164 -11 152 7 -4 11 6 10 27 -1 31 -1 32 -9 8 -4
-14 -9 -23 -10 -20 -1 3 -4 100 -6 215 -3 116 -6 229 -7 253 -2 23 0 42 4 42
4 0 3 15 -1 33 -9 30 -4 1110 5 1262 2 39 5 102 6 142 2 59 5 70 18 66 12 -4
13 -3 3 4 -10 8 -14 79 -16 309 -2 164 -7 325 -11 357 -5 39 -4 57 3 57 17 0
95 -107 87 -120 -4 -6 -1 -9 5 -8 7 2 22 -10 33 -25 21 -27 22 -40 22 -198 0
-108 4 -168 10 -166 6 2 10 66 10 165 0 89 4 162 8 162 10 0 -18 40 -101 145
l-64 80 108 -107 c93 -92 107 -111 98 -126z m345 22 c12 -11 -18 -15 -128 -21
-67 -3 -124 -10 -128 -16 -6 -10 150 -4 327 12 93 9 423 25 474 23 10 -1 22
-5 26 -9 9 -10 30 -96 25 -101 -2 -2 -18 16 -36 42 -44 62 -50 49 -9 -16 76
-120 118 -211 260 -563 15 -38 47 -117 70 -175 23 -58 47 -123 54 -145 6 -22
22 -62 34 -90 13 -27 28 -59 33 -70 5 -11 33 -94 62 -185 51 -155 91 -264 123
-337 8 -17 14 -36 14 -42 0 -27 108 -326 129 -356 4 -5 25 -50 46 -100 51
-116 105 -198 121 -183 2 3 -8 39 -21 81 -23 69 -26 98 -31 289 -3 117 -6 220
-6 228 -1 15 0 90 2 200 1 72 1 69 -4 117 -4 36 -2 41 12 36 14 -6 15 -4 5 8
-9 11 -11 52 -7 144 3 72 6 364 9 650 2 286 4 530 4 542 1 22 2 22 164 20 89
-1 235 2 323 7 l161 8 6 -33 c6 -39 12 -1475 10 -2314 -2 -1154 -2 -2039 2
-2044 2 -3 6 -98 9 -211 l7 -205 -228 3 c-125 1 -256 5 -290 8 -58 5 -63 8
-63 29 0 13 6 26 13 29 8 3 7 9 -7 20 -10 8 -22 17 -27 18 -4 2 -11 17 -15 33
-7 27 -6 29 9 17 9 -8 21 -11 26 -8 5 4 12 2 15 -3 7 -11 56 -11 56 0 0 5 -3
9 -7 10 -16 1 -48 8 -72 15 -14 4 -30 8 -36 8 -5 1 -9 12 -8 24 2 13 -1 21 -6
18 -5 -3 -13 7 -18 22 -28 77 -36 102 -55 157 -11 33 -23 69 -28 80 -5 11 -12
31 -16 45 -3 14 -12 32 -19 40 -15 19 -65 143 -95 235 -12 39 -28 84 -36 100
-7 17 -19 50 -27 75 -37 111 -112 295 -127 310 -7 7 -30 49 -30 55 0 3 9 1 19
-5 18 -9 17 -6 -4 33 -12 24 -26 54 -30 68 -4 13 -17 44 -28 69 -12 25 -22 54
-23 65 -2 12 -18 54 -38 95 -19 41 -54 127 -77 190 -22 63 -47 124 -53 135 -7
11 -16 33 -20 50 -4 16 -30 88 -57 160 -27 71 -62 164 -78 205 -15 41 -32 84
-37 95 -4 11 -9 29 -10 40 -6 67 -6 70 -11 53 -2 -10 -8 -18 -12 -18 -12 0
-31 23 -31 39 0 9 -11 21 -25 28 l-25 11 22 -39 c12 -21 25 -39 30 -39 4 0 8
-7 8 -16 0 -14 -3 -14 -15 -4 -23 19 -29 5 -9 -25 14 -22 16 -40 10 -118 -4
-51 -8 -101 -8 -112 0 -11 1 -330 1 -710 2 -865 -3 -1387 -11 -1401 -4 -6 -3
-26 2 -45 5 -19 10 -54 12 -78 l3 -43 -180 1 c-99 0 -293 1 -431 1 l-251 0 -7
42 c-4 24 -6 587 -4 1253 2 665 1 1631 -1 2145 -4 996 2 1290 24 1290 8 0 17
5 21 12 5 8 2 9 -10 5 -19 -7 -32 14 -22 38 4 12 28 13 153 8 81 -3 150 -7
152 -9z m2309 -1230 c0 -64 5 -111 11 -117 8 -8 11 18 11 95 0 82 3 107 14
111 30 12 39 -20 34 -126 -2 -56 -10 -111 -17 -122 -11 -18 -12 -18 -8 8 2 15
0 27 -4 27 -5 0 -9 -4 -9 -10 0 -5 -6 -7 -14 -4 -9 4 -16 -3 -19 -18 -3 -17
-5 -15 -6 10 -1 32 -15 43 -25 20 -3 -9 -11 -6 -24 10 -11 12 -25 22 -30 22
-16 0 -22 28 -22 106 0 67 2 74 20 74 19 0 20 -7 20 -91 0 -68 3 -90 13 -87 8
3 14 35 17 92 4 62 9 89 20 96 8 5 16 10 17 10 1 0 2 -48 1 -106z m6 -200 c9
-23 7 -36 -4 -29 -5 3 -10 4 -10 1 0 -2 -3 -11 -6 -20 -3 -9 -1 -16 6 -16 6 0
8 5 4 12 -4 7 -3 8 4 4 12 -7 13 -56 1 -56 -3 0 -4 -24 -1 -52 9 -85 6 -188
-5 -199 -6 -6 -16 -8 -23 -4 -8 5 -6 11 7 22 15 12 15 14 1 9 -11 -3 -18 3
-22 20 -9 36 -5 174 5 174 13 0 11 58 -1 62 -7 2 -6 14 3 36 7 18 17 29 22 25
4 -5 5 0 2 10 -8 21 9 23 17 1z m-1290 -2098 c13 -29 31 -75 39 -103 8 -28 29
-78 47 -111 17 -34 29 -66 25 -72 -3 -5 -1 -10 5 -10 7 0 10 -7 6 -15 -3 -8
-1 -15 5 -15 6 0 7 -5 3 -12 -4 -6 1 -17 11 -25 11 -7 16 -13 12 -13 -4 0 -1
-10 8 -23 8 -12 16 -32 18 -42 1 -11 6 -25 9 -31 4 -5 5 -19 4 -30 -2 -10 0
-23 4 -29 4 -5 12 -25 18 -44 19 -56 -14 -19 -37 42 -11 29 -33 79 -49 112
-16 33 -37 85 -47 115 -10 30 -37 100 -60 155 -23 55 -46 115 -50 134 -4 19
-14 41 -22 49 -12 12 -12 17 -2 23 19 11 26 4 53 -55z m1333 1 c4 -5 0 -5 -9
-2 -11 5 -17 -1 -21 -22 -5 -29 13 -79 21 -55 2 6 10 12 18 12 12 0 14 -16 12
-82 -3 -77 -5 -83 -23 -80 -27 5 -25 1 -26 71 -1 46 -5 61 -15 61 -12 0 -14
-15 -12 -77 2 -50 7 -77 14 -76 7 1 9 -8 6 -25 -4 -19 -7 -22 -10 -9 -2 9 -8
17 -13 17 -6 0 -8 -4 -4 -9 3 -5 1 -12 -4 -15 -15 -10 -20 18 -19 132 0 86 3
109 13 106 13 -5 28 11 31 34 1 6 -4 12 -12 12 -8 0 -14 4 -14 9 0 11 55 9 67
-2z m-2906 -248 c1 -30 1 -184 0 -344 0 -159 3 -308 9 -330 10 -44 7 -53 -13
-37 -10 9 -15 45 -17 129 -5 172 -6 593 -1 626 6 46 21 16 22 -44z m2842 -95
c-1 -15 3 -32 10 -36 9 -6 9 -12 0 -27 -11 -17 -10 -22 8 -35 27 -19 61 -7 70
25 8 27 1 -129 -8 -178 -4 -24 -11 -33 -24 -33 -17 0 -19 8 -19 85 0 47 -4 85
-9 85 -14 0 -19 -27 -20 -110 -1 -42 -6 -77 -12 -81 -7 -4 -8 -12 -3 -20 6
-12 5 -12 -8 -1 -14 11 -14 17 -3 38 8 17 11 51 8 102 -5 101 -5 104 -2 127 1
11 -1 37 -5 59 -6 29 -4 37 6 33 7 -2 12 -16 11 -33z"/>
<path d="M16747 6923 c-4 -3 -7 -55 -7 -113 l0 -107 30 -6 c17 -4 44 -4 60 0
l30 6 0 107 c0 89 -3 109 -16 114 -21 8 -89 8 -97 -1z"/>
<path d="M16740 6385 l0 -115 49 0 c82 0 81 -2 81 121 l0 109 -65 0 -65 0 0
-115z"/>
<path d="M17134 6087 c-2 -7 -5 -55 -7 -106 l-2 -94 28 -10 c15 -5 44 -6 63
-3 l34 7 0 109 0 110 -55 0 c-36 0 -57 -5 -61 -13z"/>
<path d="M16745 5638 c-4 -40 -5 -93 -3 -118 3 -41 5 -45 32 -48 16 -2 44 -1
63 3 l33 6 0 108 0 109 -31 6 c-17 3 -44 6 -59 6 -28 0 -28 -1 -35 -72z"/>
<path d="M16960 5701 c-24 -7 -25 -9 -28 -113 l-3 -107 45 -6 c78 -12 86 -1
86 119 l0 104 -31 6 c-35 7 -34 7 -69 -3z m80 -117 l0 -95 -42 3 -43 3 -1 65
c-3 109 1 120 47 120 l39 0 0 -96z"/>
<path d="M17141 5701 c-9 -6 -15 -40 -18 -106 -5 -87 -3 -100 13 -112 19 -14
82 -17 100 -5 7 4 13 51 16 114 4 86 2 108 -9 113 -22 8 -86 6 -102 -4z"/>
<path d="M16746 5267 c-15 -11 -17 -26 -13 -112 l4 -100 39 -5 c22 -3 51 -3
66 -1 l28 3 -1 108 c0 87 -3 109 -15 114 -27 10 -90 6 -108 -7z m99 -112 l0
-90 -47 -3 -48 -3 0 90 c0 98 2 101 65 98 l30 -2 0 -90z"/>
<path d="M16937 5274 c-4 -4 -7 -56 -7 -115 0 -105 0 -107 25 -113 13 -3 43
-3 65 0 l41 7 -3 111 -3 111 -55 3 c-31 2 -59 0 -63 -4z m89 -26 c4 -6 9 -44
11 -85 5 -83 -4 -103 -47 -103 l-29 0 -3 88 c-2 48 1 93 6 100 11 15 52 16 62
0z"/>
<path d="M17153 5273 c-22 -4 -23 -8 -23 -114 l0 -109 60 0 60 0 0 109 c0 104
-1 109 -22 115 -24 6 -39 6 -75 -1z"/>
<path d="M16550 4740 c0 -100 2 -111 17 -108 14 3 17 17 19 92 1 63 5 91 15
97 28 17 33 2 31 -82 -3 -86 8 -123 28 -103 7 7 10 48 8 110 l-3 99 -57 3 -58
3 0 -111z"/>
<path d="M16742 4738 l3 -113 56 -3 c68 -4 69 -2 69 136 l0 92 -65 0 -66 0 3
-112z"/>
<path d="M16958 4843 c-11 -3 -18 -14 -18 -31 -2 -59 -2 -148 -1 -168 1 -17 8
-21 40 -22 78 -3 83 2 87 113 4 73 1 100 -8 107 -14 8 -70 9 -100 1z"/>
<path d="M17140 4824 c-6 -14 -10 -63 -10 -110 l0 -85 58 3 57 3 7 95 c5 52 6
101 3 108 -3 7 -24 12 -55 12 -45 0 -52 -3 -60 -26z"/>
<path d="M16571 4441 c-10 -7 -14 -35 -14 -113 l-1 -103 53 1 c29 1 54 3 55 5
2 2 6 52 9 112 l6 107 -47 0 c-26 0 -53 -4 -61 -9z"/>
<path d="M16755 4418 c-3 -18 -5 -69 -3 -113 l3 -80 40 -5 c77 -11 82 -3 81
118 l-2 107 -56 3 -57 3 -6 -33z"/>
<path d="M16946 4442 c-3 -4 -6 -55 -7 -112 -2 -97 0 -105 19 -113 14 -7 37
-5 67 3 l45 13 0 108 0 109 -59 0 c-33 0 -62 -4 -65 -8z m92 -114 l3 -98 -25
0 c-53 0 -56 6 -56 100 0 94 2 97 55 96 18 -1 20 -9 23 -98z"/>
<path d="M17188 4443 l-38 -4 0 -52 c0 -29 -3 -75 -6 -103 -7 -59 2 -66 71
-52 l40 8 -3 105 c-2 74 -7 104 -15 103 -7 -1 -29 -3 -49 -5z"/>
<path d="M16577 4023 c-4 -3 -7 -55 -7 -115 0 -114 -1 -112 50 -109 63 4 65 6
64 47 -3 94 -17 155 -38 169 -21 16 -58 20 -69 8z"/>
<path d="M16961 4011 c-17 -17 -20 -33 -18 -113 l2 -93 51 -3 c33 -2 54 2 60
10 6 7 8 54 6 106 -4 88 -5 94 -29 103 -36 13 -51 11 -72 -10z"/>
<path d="M16978 3640 c-21 -5 -23 -12 -30 -100 -4 -52 -4 -97 0 -101 14 -13
80 -20 87 -9 4 6 14 8 23 6 15 -5 17 4 14 82 -4 124 -6 132 -41 129 -16 -1
-40 -4 -53 -7z"/>
<path d="M16754 3631 c-2 -2 -4 -47 -4 -98 l0 -94 33 -14 c28 -12 35 -12 62 4
27 16 30 22 27 66 -2 41 0 46 13 35 9 -7 15 -8 15 -2 0 6 -6 12 -12 14 -8 3
-11 20 -9 46 1 23 -1 42 -6 43 -32 3 -115 3 -119 0z"/>
<path d="M17145 3628 c-2 -7 -6 -52 -8 -100 l-5 -88 40 0 c72 0 78 9 78 110
l0 90 -50 0 c-32 0 -52 -5 -55 -12z"/>
<path d="M4768 7968 c-2 -24 -7 -32 -18 -29 -49 14 -922 4 -884 -9 48 -17 680
-31 792 -17 52 6 62 5 62 -8 0 -8 -4 -15 -9 -15 -10 0 -154 -108 -220 -166
-24 -22 -48 -38 -52 -37 -4 2 -21 -15 -36 -36 l-28 -40 -210 5 c-247 6 -276 9
-268 29 4 11 -2 15 -21 15 -14 0 -26 -4 -26 -10 0 -5 -7 -7 -15 -4 -8 4 -15 1
-15 -6 0 -10 -3 -10 -15 0 -20 16 -193 10 -203 -7 -5 -7 -30 -15 -58 -18 -42
-5 -46 -4 -30 7 10 7 37 27 60 43 23 17 96 68 162 113 123 83 152 107 141 119
-8 7 -102 -50 -308 -190 -92 -61 -175 -117 -185 -124 -17 -10 -16 -11 11 -10
28 2 30 -1 36 -43 4 -25 7 -209 8 -410 1 -201 5 -475 9 -610 4 -135 7 -248 5
-251 -1 -3 -33 -2 -70 3 -58 8 -71 14 -91 39 -13 16 -37 36 -52 44 -28 14 -29
14 -62 -25 -31 -37 -37 -39 -103 -45 l-70 -7 -2 596 c-2 539 1 631 20 584 7
-16 0 265 -8 347 -3 33 -3 74 0 92 5 28 10 32 43 35 81 8 -282 7 -594 -1 -311
-9 -333 -11 -370 -31 -21 -12 -50 -32 -64 -45 -14 -13 -61 -44 -104 -69 -59
-35 -81 -44 -87 -34 -6 9 -10 7 -15 -7 -4 -11 -15 -26 -23 -33 -21 -16 -92
-54 -95 -50 -2 2 -10 14 -19 28 l-17 24 0 -26 c0 -16 -9 -33 -20 -41 -18 -12
-18 -15 -5 -20 10 -4 15 -18 14 -39 -1 -18 1 -96 4 -173 26 -616 26 -1027 0
-1275 -4 -36 -5 -69 -4 -75 2 -5 5 -98 7 -205 2 -107 8 -292 13 -410 12 -252
13 -773 2 -980 -8 -139 -6 -293 3 -354 3 -16 8 -64 11 -105 6 -64 17 -128 51
-290 18 -85 119 -300 193 -411 17 -24 28 -46 25 -49 -2 -3 -41 31 -86 75 -44
43 -73 68 -64 54 37 -56 370 -380 419 -408 78 -44 86 -57 89 -142 3 -72 2 -74
-22 -81 -14 -4 67 -8 180 -9 221 -2 248 -4 326 -18 69 -12 711 -15 718 -4 3 6
-33 12 -82 16 -157 12 -202 18 -202 27 0 12 97 12 102 0 2 -5 32 -4 73 3 63
10 93 10 201 2 17 -2 37 -7 44 -11 24 -15 262 -13 314 2 35 10 52 11 59 4 14
-14 47 -14 47 -1 0 6 15 17 33 25 17 8 28 14 23 15 -6 0 -2 6 9 13 10 8 15 19
11 26 -5 7 4 15 23 22 17 6 31 15 31 20 0 5 9 9 20 9 11 0 20 -4 20 -10 0 -5
-9 -10 -20 -10 -11 0 -20 -4 -20 -10 0 -8 112 -17 144 -11 4 1 37 2 72 2 76 1
84 14 14 23 -80 11 -50 22 47 18 121 -5 103 8 -30 22 -31 3 -37 17 -10 27 10
4 16 9 13 10 -18 7 -250 4 -250 -3 0 -5 10 -9 23 -8 40 4 58 0 52 -10 -9 -15
-58 -12 -83 6 -22 15 -24 15 -38 -2 -9 -11 -13 -13 -9 -6 4 7 0 12 -9 12 -9 0
-16 5 -16 10 0 6 -6 10 -14 10 -8 0 -17 7 -20 15 -5 13 0 15 27 10 98 -17 597
-3 597 17 0 5 -10 8 -22 7 -54 -5 -123 2 -109 10 13 8 181 6 253 -4 20 -3 39
-1 42 4 11 17 -332 31 -439 18 -33 -4 -54 -4 -47 -1 27 13 10 23 -33 20 -25
-2 -45 1 -45 5 0 9 47 15 85 10 11 -1 96 -3 188 -5 130 -2 167 0 163 10 -3 7
7 15 22 19 27 7 27 7 5 16 -13 4 -79 9 -148 10 -69 0 -127 5 -130 10 -3 4 -25
6 -48 3 -67 -9 -139 -10 -143 -2 -5 8 -60 5 -136 -7 -27 -4 -48 -4 -48 0 0 3
78 86 174 183 212 217 244 253 238 271 -3 10 0 12 11 8 11 -4 14 -2 10 9 -3 7
-1 14 4 14 5 0 10 6 10 13 0 6 11 31 26 53 14 23 33 59 42 80 25 57 81 217 81
229 -1 6 7 35 16 65 27 88 57 212 63 255 3 22 10 56 15 75 5 19 9 49 10 65 0
17 2 44 3 60 2 17 1 34 -1 39 -5 10 -8 80 -27 616 -4 85 -8 162 -11 172 -3 9
0 19 6 23 6 4 8 14 6 23 -7 21 -6 1 -7 432 0 195 -1 398 -3 450 -2 52 0 117 4
143 4 26 4 49 1 51 -3 2 -4 183 -2 403 5 568 5 587 -1 808 l-6 200 39 19 c21
11 39 23 39 28 0 11 -17 10 -25 -2 -3 -5 -17 -10 -30 -10 -17 0 -24 5 -23 18
3 40 -3 82 -11 82 -6 0 -11 -15 -13 -32z m-1778 -60 c0 -7 -35 -35 -77 -63
-42 -27 -101 -71 -130 -97 -79 -71 -129 -101 -157 -96 -14 3 -31 1 -38 -3 -9
-6 -6 -9 10 -9 26 0 28 -6 7 -26 -8 -9 -15 -11 -15 -5 0 7 -72 9 -221 5 -170
-4 -224 -3 -229 7 -6 9 -56 12 -184 13 -97 1 -176 3 -176 6 1 6 159 109 225
146 28 15 65 43 84 61 l34 33 226 0 c124 0 287 5 361 10 74 6 157 12 183 14
26 2 51 6 54 10 11 11 43 6 43 -6z m-14 -165 c-20 -386 -21 -487 -11 -913 4
-179 4 -378 0 -443 l-7 -118 -31 20 c-34 21 -49 45 -23 35 13 -5 16 2 16 39 0
25 -5 49 -10 52 -8 5 -7 11 1 21 6 8 9 18 5 21 -4 4 -11 1 -16 -7 -8 -13 -10
-12 -10 3 0 9 6 17 13 17 10 0 14 17 16 56 1 36 -2 53 -9 49 -5 -3 -10 -19
-10 -35 0 -16 -5 -41 -11 -57 -6 -15 -10 -58 -9 -95 1 -64 0 -68 -24 -74 -28
-7 -56 -43 -56 -73 0 -12 -9 -21 -26 -25 -15 -4 -27 -6 -29 -4 -2 3 -11 157
-16 278 -2 32 -2 31 -8 -10 -3 -25 -4 -97 -1 -160 5 -104 0 -144 -15 -128 -6
6 -5 168 1 543 2 99 4 187 5 195 1 8 -2 27 -6 43 -4 15 -3 27 1 27 5 0 6 39 3
88 -3 48 -4 103 -1 122 3 19 4 42 4 50 0 8 -1 31 -1 50 -1 30 5 85 9 85 0 0 3
47 5 104 l5 104 37 33 c21 18 42 33 46 34 5 0 6 -17 2 -38 -3 -21 -2 -49 4
-62 10 -25 10 -25 11 5 1 17 3 42 5 57 2 15 -1 30 -6 34 -6 3 19 35 55 70 36
36 66 70 66 77 0 12 19 37 28 37 1 0 1 -48 -2 -107z m1781 10 c-11 -151 -8
-2018 3 -2068 7 -30 -1 -165 -10 -165 -5 0 -7 7 -4 15 4 8 1 15 -5 15 -6 0
-11 -9 -11 -20 0 -11 7 -20 15 -20 17 0 18 -13 6 -115 -5 -38 -7 -73 -5 -77 2
-3 6 -71 9 -150 7 -213 16 -440 18 -463 1 -11 -3 -19 -10 -17 -7 1 -13 -2 -13
-8 0 -5 7 -10 15 -10 16 0 21 -35 6 -44 -5 -4 -7 3 -4 14 3 11 1 20 -5 20 -5
0 -13 -39 -16 -87 -4 -49 -11 -104 -16 -123 -8 -34 -8 -33 -10 18 -3 67 -3 69
-14 79 -5 5 -7 -42 -4 -112 3 -66 2 -104 -2 -85 -8 40 -11 38 -15 -7 -1 -18 1
-33 6 -33 9 0 10 -168 1 -184 -3 -5 -6 -38 -7 -75 -3 -77 -36 -204 -69 -262
l-23 -40 2 38 c4 57 16 94 28 86 6 -4 8 2 5 15 -4 12 0 26 8 33 15 12 20 34 6
25 -4 -2 -9 5 -9 17 -2 17 0 19 7 7 13 -20 13 -4 0 20 -8 15 -6 28 9 56 22 40
19 72 -4 51 -7 -7 -11 -14 -9 -16 2 -2 -1 -10 -7 -18 -7 -7 -14 -30 -16 -50
-2 -19 -9 -45 -16 -57 -6 -11 -10 -25 -9 -30 2 -4 -6 -15 -16 -25 -10 -9 -16
-23 -14 -33 2 -9 -1 -19 -7 -22 -5 -4 -7 3 -4 16 10 44 -53 -43 -67 -91 -7
-25 -18 -49 -24 -53 -6 -4 -11 -11 -12 -15 0 -4 -5 -26 -12 -47 -6 -22 -9 -43
-6 -48 3 -5 1 -7 -5 -6 -11 3 -29 -26 -61 -94 -27 -57 -18 -19 14 63 18 47 41
120 50 162 12 52 22 77 32 77 8 0 23 9 34 20 19 19 19 22 5 36 -18 18 -18 14
-4 53 6 17 15 31 20 31 5 0 10 10 10 23 1 14 4 10 9 -13 4 -23 2 -43 -7 -57
-15 -25 -16 -33 -5 -33 4 0 15 14 24 30 9 17 14 30 10 30 -4 0 -8 9 -9 20 -2
22 13 27 20 8 6 -18 14 -8 22 27 5 24 4 27 -5 13 -6 -10 -17 -15 -26 -11 -10
4 -12 9 -4 18 5 6 7 15 3 19 -4 4 1 4 11 0 14 -5 17 -3 14 7 -3 8 3 21 13 30
26 22 50 84 42 105 -5 14 -3 16 11 11 16 -6 16 -5 1 15 -17 26 -20 58 -4 58 6
0 8 -9 4 -20 -3 -11 -2 -20 3 -20 13 0 24 29 16 42 -3 5 -8 49 -11 96 -2 48
-5 93 -5 100 -1 6 -5 12 -10 12 -4 0 -8 -23 -8 -52 0 -66 -17 -53 -23 17 -2
28 -2 -11 0 -85 3 -137 -1 -175 -18 -165 -8 5 -14 -23 -10 -47 0 -4 -8 -12
-19 -18 -14 -7 -20 -7 -20 0 0 5 4 10 9 10 5 0 11 23 15 50 4 29 11 48 16 45
14 -9 12 9 -2 23 -9 9 -9 12 0 12 7 0 12 9 12 20 0 11 -5 20 -11 20 -8 0 -8 4
-2 13 15 19 24 49 13 42 -6 -3 -10 -4 -10 -1 0 2 -3 12 -7 22 -5 13 -3 15 8 9
12 -8 12 -6 0 8 -10 13 -11 20 -2 31 8 10 9 16 1 21 -5 3 -10 15 -10 26 0 10
-5 19 -11 19 -6 0 -8 -9 -4 -22 12 -38 11 -43 -10 -43 -24 0 -24 9 1 132 12
58 24 93 32 93 6 0 12 5 12 11 0 6 7 8 16 5 9 -4 13 -2 8 5 -9 15 17 61 32 55
9 -3 9 4 1 30 -12 40 -22 43 -31 9 -4 -14 -11 -25 -17 -25 -7 0 -9 10 -5 25 4
14 0 41 -8 60 -9 20 -11 35 -5 35 6 0 6 7 -1 19 -15 29 -22 101 -10 101 15 0
20 -17 24 -88 2 -44 8 -68 21 -80 20 -19 20 -22 -8 110 -10 47 -11 70 -4 77
34 34 22 111 -24 156 -18 16 -29 24 -25 18 4 -7 3 -13 -2 -13 -13 0 -45 68
-39 83 3 7 11 -3 18 -20 8 -18 19 -33 27 -33 9 0 10 5 4 18 -5 9 -7 22 -5 29
2 6 0 14 -6 17 -6 4 -8 13 -5 21 3 8 -8 55 -25 106 -17 50 -31 101 -31 112 0
18 -2 19 -10 7 -6 -9 -10 -10 -10 -3 0 6 5 15 10 18 13 8 13 35 -1 35 -5 0 -7
-5 -3 -12 4 -7 3 -8 -4 -4 -7 4 -12 22 -11 39 1 31 1 31 9 7 7 -23 8 -21 9 12
1 20 -4 38 -9 40 -6 2 -12 69 -15 163 -4 162 -14 395 -20 472 -2 24 1 46 6 49
5 3 6 10 2 17 -4 6 -8 99 -10 207 -4 208 -4 208 -3 687 l2 312 51 38 c78 56
118 96 120 120 0 11 6 19 13 16 6 -2 14 7 18 21 3 14 10 26 15 26 5 0 31 20
57 45 27 25 51 45 53 45 2 0 1 -39 -2 -87z m-2627 -144 c0 -9 -38 -19 -75 -20
-16 0 -39 -4 -50 -9 -12 -5 112 -8 293 -7 l312 2 1 -425 c0 -234 1 -445 1
-470 1 -25 0 -74 -1 -110 -2 -36 0 -136 2 -223 l5 -158 -38 6 c-53 9 -91 -24
-96 -85 -1 -26 -9 -47 -18 -52 -8 -5 -37 -25 -63 -45 -44 -34 -53 -37 -104
-35 -52 3 -59 1 -79 -25 -17 -22 -20 -36 -16 -68 6 -39 4 -43 -76 -137 -71
-83 -87 -98 -113 -98 -40 0 -54 -10 -64 -47 -6 -22 -5 -39 6 -61 14 -29 13
-35 -12 -89 -15 -32 -35 -83 -45 -113 -15 -47 -22 -57 -50 -66 -64 -21 -78
-75 -36 -137 24 -35 24 -37 11 -114 -8 -43 -14 -92 -15 -110 0 -23 -6 -33 -20
-38 -11 -3 -27 -13 -35 -21 -13 -14 -15 -13 -15 8 1 47 -12 614 -15 648 -14
168 -18 371 -14 620 5 385 5 770 -1 1159 l-5 315 23 5 c32 8 402 7 402 0z
m1838 -31 c7 -6 57 -10 117 -9 112 2 267 -8 283 -18 6 -4 12 -231 16 -631 8
-830 14 -1139 27 -1294 5 -71 8 -130 6 -132 -1 -2 -12 13 -22 34 -48 92 -91
161 -127 204 -46 55 -47 90 -2 43 16 -17 38 -46 48 -65 15 -27 20 -31 24 -17
5 25 -16 82 -38 102 -11 10 -36 19 -56 20 -30 2 -49 16 -119 84 -47 44 -80 81
-75 81 31 0 -14 94 -49 105 -12 3 -36 1 -55 -5 -31 -10 -41 -7 -137 44 -75 39
-108 62 -118 83 -19 40 -62 83 -81 83 -9 0 -27 -9 -40 -20 -13 -11 -34 -20
-47 -20 l-23 0 -2 268 c0 147 -3 278 -5 292 -1 14 -6 124 -9 245 -6 246 -19
479 -29 512 -7 22 -7 22 151 26 198 4 345 -2 362 -15z m-542 -1374 c18 -5 22
-15 27 -72 3 -37 4 -68 4 -68 -1 -1 -51 5 -112 12 -83 10 -137 11 -220 4 -142
-13 -134 -13 -128 11 4 14 8 17 13 9 5 -9 23 1 56 31 27 24 58 52 69 62 16 15
32 17 88 13 75 -5 140 -37 152 -76 6 -19 25 -27 38 -14 3 3 -20 28 -50 56
l-56 51 49 -7 c27 -4 59 -10 70 -12z m114 -29 c17 -9 30 -20 30 -26 0 -8 4 -8
13 -1 12 10 24 7 157 -42 48 -18 87 -43 79 -51 -3 -2 -21 -7 -40 -10 -19 -2
-72 -11 -119 -18 -78 -13 -88 -13 -120 3 -34 18 -35 19 -38 89 -2 39 -1 71 3
71 3 0 19 -7 35 -15z m-620 -15 c0 -5 6 -10 13 -10 22 0 42 -46 29 -63 -7 -8
-9 -16 -7 -19 3 -3 -36 -17 -87 -31 -51 -14 -101 -29 -110 -32 -10 -4 -18 -3
-18 3 0 5 14 12 31 16 22 4 30 10 26 21 -4 8 0 25 6 39 16 29 72 78 81 69 3
-3 6 -1 6 5 0 7 7 12 15 12 8 0 15 -4 15 -10z m457 -131 c28 -6 56 -15 61 -22
15 -18 25 -225 13 -282 -7 -36 -6 -52 2 -57 8 -5 6 -12 -8 -23 -15 -13 -16
-15 -3 -11 15 4 17 -12 18 -190 1 -222 11 -186 -108 -367 -36 -54 -62 -100
-59 -103 5 -5 114 142 136 184 7 12 16 20 20 18 11 -7 7 -117 -4 -137 -13 -20
-141 -119 -155 -119 -5 0 -10 4 -10 9 0 5 -9 11 -21 14 -19 5 -19 7 -5 35 8
16 25 63 36 103 12 41 33 112 46 159 28 94 26 86 49 190 10 41 22 81 28 88 11
14 1 30 -12 16 -12 -14 -99 -317 -152 -528 -13 -52 -17 -58 -37 -47 -13 7 -15
26 -13 117 3 146 20 423 37 603 4 41 3 62 -3 58 -10 -6 -13 -33 -29 -212 -3
-33 -10 -98 -15 -145 -5 -47 -9 -160 -9 -252 0 -159 -1 -168 -19 -168 -11 0
-26 -3 -35 -6 -11 -4 -27 18 -62 88 l-48 93 -4 130 c-5 173 -1 197 22 123 18
-60 31 -79 20 -30 -17 76 -26 102 -32 98 -4 -2 -9 126 -11 284 l-3 288 58 7
c33 3 68 7 79 9 35 4 178 -5 232 -15z m-841 -5 c-3 -9 -9 -34 -12 -57 -4 -31
-3 -38 5 -27 6 8 11 23 11 32 0 19 37 48 61 48 12 0 18 -11 21 -36 4 -32 1
-38 -36 -63 -63 -43 -65 -43 -59 -21 3 11 0 20 -6 20 -6 0 -11 -10 -11 -21 0
-13 -21 -42 -52 -71 -129 -122 -188 -182 -188 -190 0 -4 -7 -8 -15 -8 -8 0
-15 -4 -15 -9 0 -4 -15 -28 -34 -52 -19 -23 -32 -47 -30 -51 3 -4 0 -8 -7 -8
-7 0 -10 -3 -6 -6 3 -3 -11 -38 -31 -77 -20 -40 -43 -92 -52 -117 -8 -25 -21
-44 -28 -43 -6 2 -12 -5 -12 -15 0 -20 -35 -62 -52 -62 -13 0 -52 -41 -61 -64
-10 -25 -25 -19 -23 9 0 14 4 25 7 25 4 0 10 12 13 26 6 22 11 25 33 19 24 -6
25 -5 13 12 -8 10 -16 20 -17 22 -1 2 -9 -2 -18 -9 -10 -8 -15 -9 -15 -1 0 6
4 11 8 11 5 0 7 19 6 42 -1 23 2 49 7 57 4 9 15 37 25 64 22 61 37 63 48 4 3
-15 8 -36 11 -47 4 -12 2 -20 -6 -20 -8 0 -8 -4 1 -15 23 -28 30 -1 15 55 -8
30 -15 60 -15 66 0 6 22 21 49 33 52 22 73 41 47 41 -9 0 -16 4 -16 9 0 4 11
6 25 3 25 -4 25 -3 13 24 -6 16 -20 41 -30 55 -17 26 -17 27 11 65 16 22 51
64 79 94 40 44 53 53 63 43 10 -10 9 -16 -4 -31 -10 -10 -18 -43 -22 -77 -5
-63 0 -55 26 46 9 38 27 49 81 49 15 0 30 5 33 10 3 6 15 10 26 10 18 0 18 2
-6 40 -39 62 -35 73 53 130 82 53 98 59 88 34z m1292 4 c9 -9 12 -9 12 0 0 14
42 -3 87 -37 30 -22 31 -26 18 -41 -8 -9 -12 -19 -9 -22 3 -4 -2 -20 -10 -37
-18 -34 -19 -41 -7 -41 4 0 16 21 26 46 9 25 24 48 31 51 16 6 68 -30 132 -91
47 -45 53 -60 20 -47 -13 4 -61 11 -108 15 -163 13 -156 8 -170 121 -8 69 -11
69 -14 0 -2 -33 2 -56 12 -67 24 -28 3 -21 -62 21 -34 22 -87 52 -118 66 -32
15 -56 31 -53 35 2 4 36 10 74 14 38 3 80 10 93 15 31 13 32 13 46 -1z m-849
-155 c-1 -134 -12 -283 -19 -258 -1 6 -4 39 -6 75 -1 36 -6 101 -9 145 -3 44
-6 88 -6 97 0 9 -7 19 -15 22 -13 5 -15 -4 -9 -67 3 -39 8 -103 10 -142 4 -69
22 -145 35 -145 4 0 8 -43 9 -95 2 -94 -6 -116 -28 -77 -6 9 -11 13 -11 8 0
-5 7 -17 15 -26 12 -13 15 -38 15 -96 -1 -44 -1 -124 0 -178 l1 -99 -33 39
c-36 42 -149 157 -185 188 -14 11 -23 14 -23 7 0 -6 53 -66 118 -132 65 -66
119 -125 120 -132 0 -7 4 -22 7 -34 4 -13 3 -23 -2 -23 -5 0 -54 24 -109 53
-54 29 -112 59 -127 67 l-28 14 1 111 c1 60 -4 189 -9 285 -25 411 -26 431 -7
424 11 -4 15 -2 11 8 -6 16 114 71 180 83 22 4 47 11 55 16 8 5 23 9 33 9 15
0 17 -13 16 -147z m611 85 c282 -122 451 -279 604 -560 37 -68 99 -255 90
-270 -3 -5 -1 -15 5 -22 6 -7 18 -62 27 -122 31 -218 -4 -458 -102 -701 -54
-132 -206 -316 -354 -428 -82 -63 -218 -145 -240 -145 -12 0 -30 42 -72 168
l-56 167 -1 138 c0 75 3 137 7 136 4 0 65 -90 136 -200 71 -110 134 -203 140
-206 11 -7 -9 27 -106 177 -167 262 -165 257 -173 348 -8 93 2 104 46 55 26
-29 118 -114 315 -289 153 -138 153 -138 160 -132 3 3 -55 59 -127 124 -173
155 -261 235 -331 302 -58 54 -58 54 -58 113 0 63 4 67 36 45 11 -8 45 -24 75
-36 315 -125 499 -193 505 -188 2 2 -114 51 -259 108 -144 57 -283 114 -309
127 -48 23 -48 23 -48 74 0 51 0 51 28 44 36 -10 678 -22 700 -13 13 5 11 7
-8 7 -14 1 -137 4 -275 7 -137 4 -295 9 -350 13 l-100 6 -2 38 c0 20 3 40 9
43 5 3 80 24 166 45 262 66 622 176 582 178 -18 1 -60 -10 -275 -74 -88 -26
-196 -55 -240 -65 -44 -11 -114 -28 -154 -39 -41 -11 -79 -18 -83 -15 -10 6
-10 105 0 121 4 6 32 28 62 49 126 87 440 299 498 337 35 23 59 43 53 45 -5 2
-29 -9 -53 -24 -67 -42 -352 -232 -459 -306 -54 -37 -100 -64 -103 -61 -12 12
-6 134 8 166 7 18 69 107 137 199 68 91 131 176 139 188 8 13 20 28 25 34 18
19 55 74 55 81 0 13 -22 -8 -53 -50 -18 -23 -73 -96 -122 -161 -50 -66 -110
-147 -134 -181 -24 -35 -48 -63 -54 -63 -6 0 -7 32 -2 88 4 48 7 205 7 350 -1
144 2 262 6 262 4 0 41 -15 82 -32z m-961 -333 c2 -151 -1 -265 -6 -265 -5 0
-33 25 -63 55 -30 30 -57 55 -60 55 -4 0 24 -31 62 -68 l68 -69 0 -61 c0 -42
5 -65 16 -76 8 -9 12 -16 7 -16 -4 0 -9 -11 -9 -25 -1 -14 2 -25 7 -25 5 0 9
-5 9 -11 0 -17 -32 -3 -254 108 -114 57 -210 102 -213 100 -2 -3 89 -53 204
-112 114 -58 214 -112 221 -119 14 -14 19 -133 5 -147 -5 -5 -36 -4 -73 1
-216 32 -434 60 -437 56 -6 -6 38 -15 153 -31 248 -33 340 -48 352 -58 8 -6
12 -40 12 -103 0 -52 -2 -94 -4 -94 -15 0 -495 -122 -511 -130 -36 -18 50 -1
279 56 120 30 222 54 227 54 5 0 9 -36 9 -79 l0 -80 -127 -72 c-126 -71 -274
-158 -282 -165 -2 -2 0 -4 5 -4 6 0 48 22 94 48 257 146 296 167 304 167 5 0
8 -54 7 -120 -2 -126 -8 -145 -63 -205 -93 -101 -159 -180 -151 -180 9 0 143
144 189 203 12 15 23 27 25 27 2 0 5 -55 6 -123 3 -160 22 -249 72 -332 22
-36 36 -65 31 -65 -5 0 -29 16 -54 35 -25 19 -67 46 -93 59 -57 30 -242 198
-305 276 -91 112 -198 342 -211 453 -3 17 -7 39 -10 47 -21 56 -39 363 -22
390 3 5 11 38 16 72 14 87 55 221 90 290 16 32 29 62 29 68 0 18 74 135 118
187 62 72 142 155 142 146 0 -4 7 3 16 15 14 20 152 131 164 132 3 0 7 -119 9
-265z m1409 180 c51 -2 96 -6 101 -9 4 -3 7 -37 6 -76 -1 -70 14 -113 17 -48
2 51 3 56 11 64 4 4 2 13 -4 21 -9 10 -8 13 1 13 25 0 71 -83 65 -117 -15 -74
-15 -85 -1 -74 8 7 13 27 12 46 -1 19 0 35 3 35 17 0 106 -139 116 -182 l7
-26 -61 19 c-34 10 -70 23 -81 29 -10 5 -27 10 -37 10 -12 0 -48 39 -101 110
-75 99 -153 180 -174 180 -4 0 -8 5 -8 11 0 6 8 8 18 5 10 -4 60 -8 110 -11z
m222 -337 c62 -17 118 -47 124 -66 8 -23 -8 -68 -26 -75 -8 -4 -7 -6 5 -6 10
-1 17 -9 17 -22 0 -11 4 -18 9 -15 5 3 11 -11 15 -32 9 -58 7 -132 -4 -132 -6
0 -4 -10 4 -22 15 -23 17 -154 3 -205 -3 -13 -2 -25 2 -28 5 -2 7 -28 6 -57
-4 -101 -7 -273 -6 -353 2 -78 2 -79 17 -50 14 30 14 26 -1 -35 -2 -8 -4 -17
-4 -20 -1 -3 -5 1 -10 8 -5 8 -7 -1 -6 -25 2 -21 -1 -42 -5 -48 -4 -5 -10 -23
-14 -40 -19 -79 -86 -135 -163 -135 -41 0 -68 -23 -57 -48 7 -16 7 -16 11 1 3
9 8 17 11 18 63 5 88 11 103 25 35 32 32 5 -6 -53 -43 -65 -74 -103 -87 -103
-4 0 -8 15 -8 34 0 19 -5 38 -10 41 -7 4 -9 -12 -7 -49 3 -33 0 -59 -6 -63 -6
-4 -8 0 -4 10 8 21 8 21 -38 1 -21 -8 -51 -14 -68 -12 -26 2 -34 -2 -50 -29
-16 -29 -17 -33 -3 -33 23 0 20 -23 -9 -80 -14 -28 -25 -52 -25 -55 3 -25 -69
-73 -80 -54 -4 5 -8 38 -9 72 -1 34 -4 69 -6 77 -3 10 6 22 24 33 16 9 55 42
87 72 32 30 61 55 64 55 20 2 174 225 175 255 1 6 6 9 12 8 6 -1 9 6 6 16 -5
21 22 81 38 81 18 0 21 -29 5 -45 -9 -9 -16 -17 -16 -19 0 -7 53 3 62 12 7 7
22 12 35 12 14 0 23 6 23 15 0 18 -5 18 -29 5 -14 -7 -24 -4 -41 10 -13 11
-27 20 -33 20 -26 0 18 105 50 117 21 8 65 54 59 61 -3 3 -14 -2 -24 -11 -10
-10 -24 -17 -30 -17 -7 0 -12 -7 -12 -15 0 -8 -5 -15 -11 -15 -7 0 -8 7 -4 18
4 9 8 24 10 32 2 8 11 43 20 77 8 33 15 65 14 70 -5 18 14 169 22 179 6 8 5
14 -4 17 -8 3 -18 43 -26 113 -19 155 -19 149 5 148 13 0 20 5 18 11 -3 6 -14
11 -26 11 -18 -1 -26 12 -48 69 -15 39 -30 83 -34 99 -7 28 -7 29 28 23 20 -3
36 -2 36 3 0 10 -26 20 -54 20 -16 0 -30 15 -54 59 -36 67 -40 87 -14 76 9 -4
33 -11 52 -17z m194 -255 c9 -38 19 -88 22 -113 3 -25 7 -54 9 -65 16 -97 22
-158 18 -205 -7 -82 -7 -81 0 -130 5 -32 4 -41 -3 -30 -7 11 -8 6 -3 -19 3
-20 2 -32 -3 -28 -5 3 -8 -11 -6 -34 3 -30 1 -39 -12 -39 -9 0 -13 -6 -10 -14
7 -17 -14 -96 -25 -96 -8 0 -4 103 6 130 7 21 7 528 0 565 -10 55 -19 145 -14
145 3 0 12 -30 21 -67z m-2419 -45 c-3 -23 -10 -60 -15 -82 -5 -23 -10 -67
-10 -98 0 -32 -4 -58 -9 -58 -5 0 -19 16 -30 36 -35 58 -35 32 -1 -31 17 -32
30 -58 28 -59 -2 0 -13 -7 -26 -14 -13 -7 -32 -10 -42 -7 -10 3 -21 1 -25 -5
-4 -6 4 -10 19 -10 30 0 42 -16 26 -35 -6 -8 -9 -19 -6 -24 4 -5 2 -12 -4 -16
-5 -3 -10 -18 -10 -33 l1 -27 14 25 c8 14 19 47 26 73 6 26 13 46 15 44 2 -2
6 -28 9 -58 3 -30 10 -87 16 -127 7 -40 9 -75 6 -78 -9 -9 -89 47 -94 67 -3
10 -10 16 -15 13 -5 -3 -7 -13 -4 -21 3 -8 -3 -26 -14 -40 -11 -14 -21 -24
-21 -22 -1 2 -2 15 -4 29 -1 14 -5 36 -10 50 -7 22 -6 23 9 11 18 -15 21 -8 6
19 -7 13 -7 21 0 25 6 4 8 14 6 23 -3 10 0 28 7 42 11 21 10 27 -7 44 -14 14
-16 21 -7 24 9 3 9 7 0 18 -10 12 -7 133 5 189 2 11 5 27 5 35 1 13 2 13 11 0
10 -16 25 -4 109 82 20 21 37 38 38 38 2 0 0 -19 -2 -42z m782 -169 c133 -69
143 -76 143 -96 0 -12 -7 -14 -27 -9 -16 3 -50 9 -76 12 -39 6 -50 12 -58 30
-10 29 -23 32 -14 4 6 -19 3 -20 -36 -15 -23 3 -43 6 -44 8 -5 6 -14 127 -10
127 3 0 58 -27 122 -61z m384 -90 c80 -26 92 -94 30 -159 -35 -37 -41 -40 -66
-30 -15 6 -30 8 -33 6 -12 -13 -42 18 -52 53 -13 51 3 97 44 122 37 22 34 22
77 8z m-352 -24 c51 -9 98 -18 102 -21 5 -3 9 -17 9 -32 0 -25 -5 -29 -57 -40
-32 -8 -68 -16 -80 -19 -22 -5 -23 -2 -23 53 0 33 -4 54 -8 47 -4 -7 -7 -34
-6 -62 l2 -49 -43 -11 c-24 -6 -45 -11 -47 -11 -2 0 -3 38 -3 85 l-1 85 31 -5
c16 -2 72 -12 124 -20z m185 -38 c-1 -26 1 -47 5 -47 3 0 7 -16 9 -36 1 -21
10 -43 22 -52 l20 -17 -25 -85 c-26 -92 -64 -192 -65 -174 0 6 4 35 10 65 16
89 19 151 6 146 -15 -6 -16 135 -2 145 8 5 8 8 1 8 -15 0 -17 41 -3 57 7 9 7
13 -1 13 -6 0 -11 7 -11 16 0 9 7 14 18 12 13 -3 17 -13 16 -51z m-78 -81 c7
-17 -12 -56 -27 -56 -6 0 -31 -13 -56 -30 -24 -16 -48 -30 -54 -30 -5 0 -28
-12 -50 -26 -23 -14 -43 -23 -46 -20 -4 3 -7 26 -7 51 -1 25 -3 40 -4 35 -4
-12 -22 -3 -22 11 0 9 30 24 74 35 19 4 24 0 34 -28 l10 -33 -1 35 c-2 34 -1
35 58 51 77 21 85 22 91 5z m-1175 -47 c23 -16 27 -28 33 -91 4 -40 11 -91 17
-112 10 -36 8 -41 -14 -60 -33 -28 -42 -87 -19 -117 10 -11 33 -24 51 -28 33
-6 37 -12 77 -111 49 -120 51 -130 25 -130 -12 0 -23 -11 -30 -31 -28 -80 -1
-114 84 -107 l55 5 46 -54 c91 -105 88 -99 64 -123 -26 -26 -25 -54 2 -80 25
-23 57 -25 104 -8 29 10 37 8 95 -29 67 -41 102 -89 79 -103 -18 -11 -4 -57
26 -87 21 -21 32 -25 65 -20 46 6 69 22 69 48 0 24 14 24 69 -1 34 -16 42 -24
36 -37 -11 -29 -62 -193 -80 -258 -9 -33 -26 -90 -37 -127 l-20 -68 -56 0
c-64 0 -76 -6 -86 -37 -4 -13 -12 -23 -17 -23 -14 0 -67 38 -118 85 -24 22
-41 34 -37 28 19 -33 -21 -5 -103 73 -50 47 -123 131 -163 187 -136 191 -187
326 -252 669 -19 101 -20 116 -7 102 8 -8 30 -82 62 -206 5 -20 20 -61 34 -90
14 -29 23 -46 21 -38 -3 8 -20 65 -39 125 -91 293 -102 367 -93 655 3 107 6
203 6 213 0 19 5 18 51 -14z m1661 -144 c7 -11 12 -94 13 -200 1 -99 6 -193
10 -210 5 -20 4 -27 -3 -20 -5 6 -30 73 -55 150 -25 77 -60 180 -76 228 -17
48 -31 93 -31 100 0 7 25 -26 56 -73 30 -47 60 -89 66 -95 17 -17 -21 55 -79
147 -37 58 -53 93 -49 105 6 14 19 5 72 -48 36 -35 70 -73 76 -84z m-487 83
c-4 -17 -14 -38 -24 -47 -9 -10 -40 -48 -70 -84 -30 -37 -58 -67 -61 -67 -4 0
-6 18 -4 40 1 22 -2 43 -8 46 -7 5 -9 -2 -4 -21 5 -18 2 -35 -9 -51 -14 -21
-14 -23 2 -17 14 6 14 2 -3 -26 -33 -57 -42 -57 -50 -4 -12 73 -9 136 7 145 8
5 59 35 114 67 55 32 104 57 108 54 5 -3 5 -18 2 -35z m283 -11 c2 -15 31
-103 64 -195 33 -92 71 -203 85 -247 31 -101 131 -390 149 -430 7 -16 22 -64
33 -105 28 -105 185 -551 221 -627 26 -55 26 -55 -12 -51 l-32 3 -97 290 c-54
160 -102 306 -107 325 -6 19 -26 80 -45 135 -42 120 -179 538 -237 725 -23 74
-49 148 -57 163 -16 31 -9 50 15 45 10 -2 18 -15 20 -31z m-100 6 c-3 -10 -19
-81 -38 -158 -18 -77 -54 -208 -81 -290 -26 -83 -57 -188 -69 -235 -27 -110
-69 -250 -83 -275 -6 -11 -12 -29 -14 -40 -5 -31 -30 -132 -52 -215 -42 -153
-101 -402 -101 -425 0 -19 -6 -23 -47 -28 -27 -3 -49 -4 -50 -3 -2 1 8 31 22
66 13 34 28 79 31 99 4 20 31 106 62 191 65 183 101 298 188 600 35 124 71
241 78 260 8 19 26 82 41 140 55 220 90 330 104 330 8 0 12 -7 9 -17z m-1167
-70 c54 -46 61 -55 49 -67 -15 -15 -12 -24 6 -22 12 1 22 -17 36 -64 10 -36
35 -96 54 -135 41 -82 43 -97 10 -66 -15 14 -33 21 -48 19 -21 -4 -19 -6 15
-20 25 -12 37 -23 37 -37 0 -12 5 -21 10 -21 6 0 10 7 10 16 0 25 16 8 50 -54
36 -63 152 -207 180 -222 9 -5 49 -36 88 -68 71 -60 176 -122 264 -158 27 -10
48 -25 48 -32 0 -29 -35 -134 -46 -139 -15 -5 -94 34 -94 47 0 5 9 12 20 15
11 3 20 10 20 15 0 4 10 11 23 15 20 6 20 8 4 12 -12 3 -30 -5 -46 -21 -40
-38 -58 -26 -65 42 -10 87 -22 111 -57 110 -30 -1 -31 -18 0 -18 18 0 41 -65
41 -115 0 -14 9 -30 20 -37 11 -7 20 -16 20 -20 0 -4 -24 7 -52 26 -29 18 -89
52 -132 75 -91 47 -127 78 -105 91 10 7 7 11 -13 19 -15 6 -35 22 -44 36 -11
17 -20 22 -24 15 -9 -14 -93 69 -86 85 2 6 -4 16 -13 22 -16 10 -71 112 -71
132 0 10 22 16 43 12 5 -1 6 3 2 8 -3 6 -12 8 -21 4 -17 -6 -64 33 -64 54 0 7
9 18 20 25 23 15 26 28 6 28 -8 0 -18 -9 -21 -21 -5 -15 -10 -17 -20 -9 -15
13 -44 71 -50 100 -3 17 -1 19 16 9 12 -6 23 -8 26 -6 2 3 -5 10 -16 17 -12 6
-21 21 -21 33 0 17 -2 19 -10 7 -11 -18 -19 -10 -26 26 -9 47 -17 69 -35 109
-22 46 -14 165 12 165 3 0 25 -17 50 -37z m986 -46 c2 -56 0 -64 -25 -85 -15
-13 -21 -20 -13 -16 17 8 7 -29 -18 -66 -9 -14 -30 -50 -46 -80 -15 -30 -31
-57 -34 -60 -3 -3 -12 -17 -20 -32 -8 -16 -18 -28 -22 -28 -12 0 -17 50 -8 97
6 28 5 51 0 56 -9 9 -28 -77 -22 -98 3 -10 4 -34 2 -97 -1 -41 -17 -52 -24
-15 -2 12 -4 -1 -3 -30 1 -51 -7 -73 -21 -59 -9 8 -12 165 -5 234 7 71 19 37
17 -45 -3 -75 -3 -77 11 -44 11 27 12 46 3 96 -11 62 -10 64 18 92 46 46 129
146 163 196 17 26 34 47 38 47 4 0 8 -28 9 -63z m233 38 c0 -8 48 -158 106
-332 59 -175 107 -324 108 -332 2 -29 -126 -52 -192 -34 -17 4 -22 11 -18 25
4 19 -4 232 -20 483 -5 84 -9 104 -16 85 -8 -22 -3 -236 7 -300 2 -14 7 -83
11 -154 l7 -130 -49 35 c-34 24 -57 51 -76 89 -34 69 -39 41 82 447 16 55 30
111 30 123 0 11 5 18 10 15 6 -3 10 -13 10 -20z m-235 -175 c-4 -11 -2 -20 4
-20 6 0 11 -8 11 -17 -1 -17 -1 -17 -14 -1 -11 15 -14 12 -23 -28 -9 -37 -8
-44 3 -40 10 4 14 -3 13 -22 0 -24 -1 -25 -9 -7 -7 16 -9 17 -9 3 -1 -9 -3
-22 -4 -30 -2 -7 -2 -10 0 -5 3 4 9 7 14 7 9 0 8 -12 -12 -100 -11 -47 -104
-348 -120 -388 -11 -28 -31 -19 -27 13 1 12 -3 30 -11 39 -8 9 -11 19 -8 23 4
3 2 12 -5 20 -13 16 -13 94 1 102 4 3 12 17 16 30 9 28 55 98 55 83 0 -6 3
-18 6 -27 4 -10 2 -15 -6 -13 -8 2 -17 -10 -21 -27 -18 -73 -26 -141 -19 -164
l7 -26 8 30 c12 47 36 128 45 150 18 45 19 57 4 81 -11 16 -12 24 -5 24 7 0 9
5 5 11 -3 6 -2 21 4 32 34 76 59 148 52 152 -5 3 -14 -12 -20 -32 -7 -21 -17
-42 -24 -48 -6 -5 -11 -14 -12 -20 -3 -23 -17 -55 -25 -55 -12 0 -12 53 0 66
5 5 23 36 41 69 86 158 99 180 85 135z m1465 -352 c0 -4 -7 -14 -16 -22 -10
-10 -11 -16 -4 -16 9 0 10 -18 5 -67 -6 -61 -13 -94 -46 -225 -17 -68 -110
-291 -149 -358 -82 -140 -190 -258 -310 -339 l-44 -30 -11 28 c-31 83 -145
436 -145 450 0 10 23 25 66 43 l66 28 29 -25 c34 -28 95 -43 118 -28 23 15 34
66 16 79 -21 16 -19 26 5 19 18 -6 21 -3 20 23 -1 4 -12 6 -25 4 -16 -2 -25 2
-25 10 0 13 69 84 142 145 37 32 37 32 77 16 37 -14 42 -14 66 1 30 20 32 36
5 59 -26 22 -27 22 -26 -5 1 -17 -5 -24 -23 -26 -36 -6 -46 13 -19 34 13 11
27 28 31 38 7 18 8 18 28 -2 11 -12 24 -22 29 -22 12 0 14 30 3 30 -5 0 -14 4
-21 9 -18 11 5 58 65 127 40 48 45 51 68 40 14 -6 25 -14 25 -18z m-1394 -60
c5 -18 9 -38 9 -43 0 -6 11 -25 24 -43 15 -22 21 -42 18 -58 -3 -16 1 -28 9
-31 8 -3 14 -16 14 -30 0 -45 55 -72 68 -33 4 12 3 13 -10 3 -12 -11 -16 -9
-24 10 -6 12 -8 32 -6 45 3 18 8 22 25 16 12 -4 30 -7 40 -8 9 -1 16 -5 15
-11 -2 -5 -6 -9 -10 -7 -5 1 -8 -5 -8 -13 0 -9 -7 -32 -15 -52 -12 -29 -18
-33 -29 -24 -11 10 -16 8 -21 -8 -3 -12 -4 -29 0 -40 7 -22 -17 -35 -46 -26
-23 8 -24 18 -4 35 12 10 15 9 15 -4 0 -10 4 -14 10 -11 10 6 7 81 -4 92 -3 3
-15 -2 -26 -12 -23 -21 -19 -35 5 -15 10 8 15 9 15 1 0 -6 -4 -11 -9 -11 -5 0
-13 -10 -17 -22 -13 -41 -30 -50 -71 -39 -21 6 -48 17 -60 26 -21 15 -21 17
-7 53 8 20 19 46 25 57 5 11 10 32 11 45 1 14 5 30 10 36 5 7 8 16 7 20 -4 16
25 134 32 134 4 0 11 -15 15 -32z m368 -184 c-43 -79 -161 -190 -181 -171 -7
8 21 47 34 47 7 0 21 12 30 27 10 15 35 45 56 67 43 45 47 59 12 46 -46 -17
-87 -41 -81 -47 3 -3 12 -1 19 5 23 19 27 2 5 -20 -19 -19 -20 -19 -33 -1 -12
17 -14 16 -23 -7 -6 -14 -13 -37 -16 -52 -4 -16 -11 -28 -17 -28 -13 0 -4 52
19 102 13 30 23 38 44 38 15 0 29 4 32 9 4 5 24 12 45 16 22 4 45 13 52 21 26
32 28 -5 3 -52z m472 -69 c1 -49 -3 -75 -10 -76 -28 -3 -74 3 -103 14 -25 8
-36 8 -45 -1 -7 -7 -20 -12 -29 -12 -12 0 -16 -6 -12 -20 5 -20 23 -28 23 -11
0 8 34 21 65 26 6 1 25 -5 44 -12 19 -7 42 -11 53 -7 58 18 -42 -63 -125 -101
-41 -19 -67 -9 -67 25 0 10 -7 34 -15 53 -8 20 -15 42 -15 50 0 7 28 27 63 44
34 17 85 47 112 66 28 19 52 35 55 36 3 0 6 -33 6 -74z m-361 -127 c4 -13 13
-36 20 -53 7 -16 16 -42 20 -56 6 -25 4 -26 -53 -39 -33 -7 -65 -11 -72 -8 -6
2 4 19 24 40 48 50 46 59 -4 14 -22 -20 -44 -36 -48 -36 -4 0 -30 14 -56 31
-27 16 -50 28 -53 25 -5 -5 69 -61 90 -69 22 -8 2 -16 -68 -27 -92 -15 -204
-14 -255 1 l-42 13 62 57 c55 51 68 58 114 62 76 8 269 45 286 56 23 15 28 13
35 -11z m-520 -33 c121 -15 130 -19 101 -41 -11 -7 -32 -25 -48 -39 -15 -14
-35 -25 -43 -25 -8 0 -15 -4 -15 -10 0 -5 5 -10 10 -10 6 0 10 -4 10 -9 0 -12
-76 -2 -119 15 -19 8 -31 19 -29 26 3 7 11 35 19 61 12 43 16 47 39 43 14 -3
48 -8 75 -11z m578 -152 c2 -5 7 -20 11 -35 7 -32 -12 -39 -34 -13 -15 19 -30
19 -30 2 0 -22 37 -49 58 -43 24 8 30 -5 87 -177 25 -75 48 -143 50 -150 4 -9
-102 -13 -485 -15 -269 -1 -490 0 -490 2 0 2 15 66 34 143 35 147 49 183 70
183 7 0 28 19 46 41 l33 42 80 -7 c96 -8 116 -17 110 -48 -6 -31 29 -75 67
-83 67 -15 120 27 120 95 0 36 6 38 199 55 24 2 46 6 49 9 8 8 20 7 25 -1z
m290 -475 c-2 -5 -8 -8 -13 -8 -5 0 -37 -13 -72 -29 -80 -37 -208 -77 -273
-86 -134 -17 -301 -48 -312 -57 -13 -11 -194 0 -413 24 -93 10 -116 17 -201
59 -126 62 -148 91 -79 101 52 7 1368 3 1363 -4z m128 -5 c1 -5 2 -45 4 -89
l2 -82 -192 2 c-185 1 -227 7 -148 22 20 4 44 15 54 25 11 11 25 19 32 20 6 0
62 24 122 54 115 56 124 60 126 48z m-1538 -87 c34 -19 90 -42 125 -51 34 -10
65 -21 67 -25 3 -4 -57 -6 -132 -5 l-136 3 -3 56 c-1 32 2 56 8 56 5 0 37 -15
71 -34z"/>
<path d="M5370 7929 c-25 -17 -62 -47 -83 -67 -29 -28 -40 -34 -46 -23 -6 9
-11 10 -15 2 -4 -6 -5 -15 -2 -19 6 -10 -102 -118 -150 -150 -16 -11 -43 -24
-58 -28 -22 -5 -25 -9 -14 -15 12 -7 13 -18 6 -61 -14 -74 -15 -810 -3 -1588
15 -966 11 -1722 -11 -2178 -3 -78 -2 -112 5 -107 7 4 11 -4 11 -19 0 -14 -4
-28 -10 -31 -6 -3 -10 -32 -10 -63 0 -41 3 -53 10 -42 8 12 10 11 10 -7 0 -13
-4 -23 -10 -23 -5 0 -9 -15 -9 -32 2 -31 2 -31 6 -5 2 15 8 27 12 27 4 0 6
-153 3 -340 -3 -245 -1 -344 7 -354 6 -7 9 -21 5 -30 -4 -10 -1 -16 9 -16 10
0 13 7 10 20 -5 19 -3 20 38 13 24 -4 108 -8 186 -7 83 1 140 -3 137 -8 -4 -5
26 -8 72 -5 42 2 136 0 208 -3 72 -4 136 -5 141 -1 42 26 188 41 200 21 5 -8
12 -7 23 2 16 14 19 14 91 17 24 0 41 4 38 7 -3 4 -29 6 -57 5 -47 -1 -64 9
-39 24 5 4 47 57 93 118 46 62 101 130 123 152 31 31 38 45 32 60 -6 17 -8 17
-8 3 -1 -10 -5 -18 -11 -18 -12 0 -11 120 1 136 9 12 0 174 -10 174 -3 0 -7
169 -7 375 -1 206 2 375 6 375 9 0 86 -167 99 -217 6 -22 33 -107 60 -189 42
-129 128 -397 242 -759 46 -144 76 -226 88 -238 21 -21 11 -27 -46 -27 -41 0
-54 -3 -46 -11 11 -11 601 -6 718 5 28 3 149 8 270 10 238 6 246 4 259 -50 4
-13 10 -24 14 -24 10 0 9 94 -2 101 -8 6 78 129 90 129 8 0 -17 -43 -42 -73
-13 -16 -24 -33 -24 -40 0 -6 16 8 36 31 24 28 44 42 62 43 24 2 24 2 5 6 -24
5 -30 18 -13 28 6 4 8 11 5 16 -4 5 -1 9 4 9 6 0 11 -4 11 -9 0 -5 9 -7 20 -4
11 3 20 9 20 13 0 5 -9 6 -20 3 -11 -3 -20 -3 -20 0 0 12 25 63 45 92 11 17
25 39 32 50 6 11 16 19 23 17 13 -3 5 48 -11 78 -17 29 -99 223 -99 232 0 5
-11 33 -24 61 -32 69 -48 108 -80 192 -15 39 -40 102 -56 140 -52 125 -111
278 -145 375 -19 52 -48 133 -66 180 -17 47 -38 105 -46 130 -13 39 -20 59
-28 80 -1 3 -6 20 -10 38 -4 18 -11 35 -16 38 -4 2 -6 11 -3 18 5 12 -51 152
-111 281 -13 27 -27 62 -30 78 -4 15 -11 30 -16 32 -4 3 -7 11 -5 18 1 7 1 9
-1 5 -8 -13 -21 -9 -27 8 -7 19 20 54 41 54 7 0 13 4 13 9 0 10 61 79 176 201
78 82 140 163 146 191 2 7 9 20 16 27 7 8 10 18 7 23 -4 5 -2 9 2 9 5 0 17 30
27 68 11 37 28 94 38 127 34 108 43 172 53 370 4 72 10 170 15 219 7 88 4 258
-6 285 -2 8 -7 30 -10 50 -3 20 -17 69 -30 110 -13 40 -24 78 -24 83 0 5 -13
37 -29 72 -36 75 -49 122 -32 112 6 -4 11 -2 11 3 0 6 -4 11 -10 11 -5 0 -10
7 -10 15 0 24 -93 174 -156 253 -22 26 -23 31 -8 25 46 -17 -56 89 -156 164
-100 74 -356 205 -452 231 -20 6 -54 23 -75 38 -30 23 -34 24 -19 6 11 -12 16
-22 13 -22 -3 0 -61 14 -129 31 -185 47 -391 69 -573 62 -160 -7 -851 -10
-835 -5 12 4 14 22 3 22 -5 0 -28 -14 -53 -31z m365 -29 c109 -5 288 -6 420
-1 234 8 422 -4 505 -31 19 -6 47 -11 62 -10 16 0 26 -3 23 -8 -3 -4 2 -10 10
-14 8 -3 15 -1 15 4 0 6 8 10 18 9 11 0 12 -2 4 -6 -18 -7 4 -33 27 -33 21 0
153 -45 194 -66 15 -9 33 -14 39 -12 5 2 -11 14 -36 26 -45 23 -67 42 -47 42
15 0 191 -69 240 -94 25 -13 53 -27 61 -30 68 -28 264 -168 299 -213 44 -56
148 -221 159 -252 11 -32 5 -40 -17 -18 -10 10 -11 9 -6 -5 4 -9 13 -19 20
-22 8 -3 22 -31 31 -63 18 -66 36 -111 65 -166 11 -20 26 -70 33 -110 16 -81
22 -112 36 -177 15 -66 19 -305 7 -377 -6 -42 -14 -63 -23 -63 -17 0 -19 20
-1 21 7 0 8 2 1 5 -8 3 -7 23 1 69 7 36 9 68 5 70 -5 3 -5 19 0 35 6 20 5 30
-2 30 -5 0 -8 7 -4 15 3 8 0 15 -7 16 -9 0 -9 2 1 6 6 2 12 11 12 19 0 8 -6
11 -15 8 -9 -4 -15 0 -15 9 0 9 -5 19 -12 23 -8 5 -9 2 -5 -9 4 -11 1 -17 -7
-17 -14 0 -26 -20 -33 -54 -3 -16 -1 -17 12 -6 8 7 15 21 15 32 0 11 5 18 12
16 9 -3 13 -32 13 -94 0 -70 -4 -97 -19 -127 -18 -33 -18 -39 -6 -48 10 -6 12
-11 4 -16 -14 -10 -25 -53 -13 -53 5 0 9 7 9 15 0 8 5 15 10 15 6 0 10 -12 10
-26 0 -14 -4 -23 -9 -19 -5 3 -12 1 -16 -5 -3 -5 -1 -10 4 -10 6 0 11 -4 11
-10 0 -5 -6 -10 -13 -10 -9 0 -13 -11 -12 -31 2 -35 -22 -66 -38 -50 -7 7 -7
14 0 23 13 16 13 48 1 48 -5 0 -6 5 -3 11 8 12 12 99 5 99 -3 0 -5 29 -6 65 0
40 4 65 10 65 6 0 5 4 -3 9 -10 6 -12 21 -8 50 3 23 2 39 -3 36 -4 -3 -10 11
-12 30 -2 19 -1 35 4 35 4 0 4 8 1 17 -5 13 -2 15 11 10 12 -5 19 1 27 21 9
23 7 29 -10 41 -13 8 -21 24 -21 41 0 14 -3 30 -7 34 -5 4 -8 16 -8 27 0 10
-4 18 -10 16 -13 -3 -16 -194 -3 -226 7 -20 6 -22 -5 -13 -18 15 -34 71 -42
147 -7 65 -29 162 -47 210 -24 65 -101 213 -142 275 -44 65 -95 129 -80 100 5
-8 -32 22 -81 68 -183 169 -357 264 -585 320 -183 45 -223 52 -312 62 -165 18
-475 23 -633 11 -166 -12 -705 -34 -711 -28 -2 2 14 17 35 33 62 46 161 131
223 190 l57 54 68 0 c37 0 154 -4 258 -10z m540 -280 c442 -48 687 -122 892
-269 100 -71 214 -186 246 -246 8 -16 32 -47 52 -67 20 -21 34 -42 31 -47 -4
-5 0 -13 7 -18 28 -16 81 -153 102 -263 3 -19 12 -55 19 -80 13 -44 36 -154
41 -197 2 -13 -1 -23 -6 -23 -6 0 -7 -4 -4 -10 3 -5 2 -10 -3 -10 -5 0 -6 -15
-4 -32 3 -18 7 -27 9 -20 3 6 9 12 14 12 12 0 10 -420 -2 -435 -4 -6 -6 -25
-5 -43 1 -17 -1 -32 -5 -32 -3 0 -5 -12 -3 -27 1 -15 -3 -36 -9 -47 -7 -12
-12 -25 -13 -31 -6 -92 -99 -321 -183 -451 -41 -64 -158 -167 -290 -253 l-65
-43 -18 24 -19 23 14 -30 c18 -39 13 -51 -31 -72 l-37 -18 33 -5 c31 -5 36
-11 71 -91 21 -47 45 -101 54 -120 32 -69 105 -256 132 -334 15 -44 69 -180
122 -303 52 -123 93 -226 90 -228 -7 -7 -30 34 -165 286 -60 113 -141 265
-181 338 -39 73 -100 191 -136 262 -36 72 -118 224 -182 338 -193 343 -253
452 -253 459 0 3 -13 28 -30 55 -34 54 -35 58 -19 58 14 0 27 16 75 88 42 64
68 130 90 232 23 104 22 376 -2 463 -24 88 -70 185 -114 237 -20 25 -35 52
-33 60 4 12 3 13 -5 1 -8 -11 -19 -6 -56 25 -25 21 -46 40 -46 41 0 2 14 -4
31 -13 17 -8 28 -11 24 -5 -3 6 -25 21 -48 32 -23 12 -44 25 -47 29 -3 4 -32
17 -65 29 -54 20 -72 22 -178 17 -65 -3 -127 -10 -137 -16 -10 -5 -36 -11 -57
-12 -34 -1 -35 -2 -7 -5 l31 -4 -3 -592 c-2 -326 0 -620 4 -655 4 -34 4 -69
-1 -78 -16 -28 13 -36 114 -30 146 9 196 21 303 76 80 41 102 48 112 38 7 -7
43 -71 80 -143 37 -71 99 -188 139 -260 40 -71 109 -202 155 -290 108 -209
205 -388 300 -555 43 -74 130 -234 195 -355 65 -121 126 -232 136 -246 10 -14
49 -106 88 -205 38 -98 83 -210 99 -249 30 -74 46 -125 37 -125 -2 0 -103 197
-223 438 -121 240 -254 502 -297 582 -125 233 -244 460 -360 685 -59 116 -112
215 -117 220 -11 12 22 -58 126 -265 77 -153 116 -228 274 -527 44 -83 214
-418 378 -745 164 -326 310 -614 325 -640 50 -86 71 -79 -256 -83 -159 -1
-342 -6 -405 -9 -63 -3 -171 -8 -240 -11 l-125 -6 -24 78 c-13 43 -67 211
-121 373 -205 621 -270 837 -289 960 l-10 65 5 -68 c5 -76 -2 -79 -35 -17 -64
124 -71 153 -75 311 -2 82 -1 149 3 149 4 0 13 -6 20 -12 10 -11 12 -9 9 7 -2
14 -13 21 -32 23 l-29 4 6 -127 c8 -150 2 -154 -58 -44 -24 44 -65 100 -102
136 -54 54 -63 59 -68 42 -4 -10 -13 -19 -20 -19 -20 0 -28 -19 -15 -35 9 -11
12 -233 12 -902 l0 -888 -479 0 -479 0 2 427 3 427 59 118 c123 246 265 520
296 573 45 76 146 268 146 277 0 20 -211 -361 -368 -667 -58 -113 -114 -218
-124 -235 l-19 -30 7 70 c8 78 28 126 132 300 36 61 86 148 112 195 105 190
269 471 460 790 48 80 111 188 140 240 30 52 60 106 68 120 29 52 -38 -34 -75
-95 -456 -753 -569 -945 -738 -1248 -48 -87 -92 -160 -97 -163 -6 -4 -10 26
-10 72 -1 313 11 1978 15 2104 1 41 -1 89 -4 107 -4 18 -4 35 -1 38 3 3 5 24
4 48 -3 95 -14 741 -16 997 -2 151 -5 281 -7 289 -6 22 39 29 126 19 76 -9
287 -5 530 11 170 12 480 12 580 1z m55 -825 c59 -12 102 -40 171 -112 145
-149 184 -258 184 -513 0 -143 -4 -176 -24 -249 -32 -111 -47 -127 -151 -156
-109 -31 -253 -34 -234 -4 11 18 1 949 -12 1013 -6 35 -5 38 12 33 10 -3 35
-9 54 -12z m-249 -482 c1 -21 -2 -53 -5 -71 -5 -26 -3 -34 11 -39 39 -14 60
-52 57 -102 -3 -41 0 -50 16 -54 16 -4 20 0 20 21 0 21 2 24 10 12 6 -10 4
-22 -6 -37 -13 -20 -13 -23 1 -23 8 0 15 -3 15 -7 1 -5 3 -25 6 -45 6 -41 1
-46 -22 -23 -13 13 -13 15 -1 15 26 0 8 47 -20 53 l-25 5 6 -81 c3 -44 10 -85
16 -92 5 -6 7 -15 3 -19 -4 -4 -1 -11 7 -16 10 -7 11 -10 3 -10 -14 0 -18 -67
-5 -87 11 -17 46 12 39 32 -4 8 -2 15 4 15 6 0 8 4 4 9 -3 5 -7 33 -9 63 -2
29 -7 61 -11 71 -5 11 -2 17 8 17 14 0 24 -42 32 -135 3 -36 -2 -44 -39 -80
-22 -22 -65 -66 -94 -98 -38 -43 -52 -54 -53 -40 -2 24 0 187 2 193 1 3 0 10
-1 15 -2 9 0 184 4 402 0 40 4 73 8 73 4 0 4 9 0 20 -11 28 -2 118 9 98 5 -9
10 -34 10 -55z m1169 -1398 c12 -14 140 -271 200 -400 28 -60 63 -134 78 -164
15 -30 26 -64 24 -75 -3 -21 -2 -21 13 -1 15 18 16 18 53 -25 20 -24 54 -63
74 -85 21 -23 35 -45 32 -48 -4 -3 3 -18 15 -33 11 -15 21 -21 21 -13 0 25 18
-6 41 -71 12 -36 26 -69 31 -75 10 -12 10 -35 0 -35 -5 0 -19 23 -31 51 -13
27 -25 48 -27 46 -9 -8 47 -107 60 -107 8 0 18 -10 22 -22 3 -13 22 -56 40
-96 19 -40 34 -74 34 -76 0 -3 15 -37 33 -78 32 -70 61 -138 63 -148 0 -3 4
-14 9 -25 36 -90 36 -88 19 -74 -13 11 -14 9 -8 -17 9 -38 32 -74 63 -101 15
-11 23 -25 19 -29 -4 -4 -3 -13 3 -21 14 -16 -2 -18 -18 -2 -6 6 -9 17 -7 24
3 7 1 16 -5 20 -7 4 -8 -1 -4 -12 15 -41 -12 -4 -59 85 -25 45 -48 73 -48 57
0 -15 97 -172 118 -192 28 -26 28 -27 -75 -165 -40 -53 -77 -108 -83 -123 -13
-35 -24 -26 -40 32 -8 27 -24 72 -37 101 -13 29 -21 57 -18 62 3 5 1 17 -4 27
-27 48 -91 196 -87 200 2 3 -6 24 -19 46 -12 23 -26 58 -30 77 -4 19 -12 41
-18 48 -5 7 -7 15 -4 19 4 3 0 15 -8 27 -8 11 -15 26 -15 32 0 7 -15 46 -34
87 -39 83 -100 237 -102 252 0 6 -8 28 -18 50 -10 22 -42 101 -72 175 -30 74
-58 144 -63 155 -13 28 -71 186 -71 192 0 3 7 3 15 -1 20 -7 19 0 -4 21 -24
23 -63 93 -52 93 4 0 13 -12 20 -26 6 -15 14 -24 17 -21 4 3 -8 32 -26 64 -18
32 -42 76 -54 98 -11 22 -25 43 -30 46 -5 4 -6 11 -2 17 3 5 0 12 -8 15 -14 6
-66 126 -66 153 0 9 7 14 16 12 16 -3 45 -85 47 -130 1 -9 3 -15 6 -12 6 5 37
-51 91 -166 71 -149 94 -210 79 -210 -17 0 -9 -19 11 -25 11 -3 20 -11 20 -16
0 -6 -5 -7 -12 -3 -8 5 -9 2 -3 -12 4 -10 8 -26 10 -34 1 -8 11 -35 22 -60 11
-25 28 -70 38 -100 10 -30 26 -67 37 -82 11 -16 17 -32 13 -37 -3 -5 -1 -12 5
-16 5 -3 10 -13 10 -21 0 -8 11 -39 24 -67 13 -29 34 -83 46 -122 20 -66 53
-143 105 -245 13 -25 26 -61 30 -80 4 -19 11 -39 15 -45 4 -5 10 -22 14 -36 8
-37 77 -182 82 -176 3 3 -6 31 -19 63 -33 82 -41 118 -25 108 7 -4 3 4 -9 18
-25 27 -32 56 -10 42 7 -5 3 0 -8 11 -28 26 -135 258 -165 355 -12 41 -31 92
-41 112 -23 45 -25 71 -4 44 8 -11 15 -15 15 -9 0 5 -9 18 -20 28 -21 19 -28
41 -8 29 7 -4 8 -3 4 5 -4 6 -12 8 -18 5 -6 -4 -8 1 -4 14 5 15 1 24 -14 32
-11 6 -20 19 -20 30 0 10 -4 21 -9 25 -5 3 -13 20 -16 38 -4 17 -12 41 -18 52
-13 25 -15 76 -2 72 5 -2 13 -19 18 -38 5 -19 13 -38 18 -43 5 -6 9 -20 9 -33
0 -13 4 -23 9 -23 6 0 6 11 1 28 -30 91 -46 130 -65 157 -25 34 -65 125 -71
163 -3 14 -10 34 -15 45 -11 19 -11 19 14 1 14 -11 23 -22 21 -26 -2 -3 2 -19
10 -35 8 -15 20 -48 26 -73 7 -25 16 -54 20 -65 8 -18 9 -18 9 5 1 20 3 22 11
10 6 -9 10 -10 10 -3 0 7 -10 21 -22 33 -18 16 -19 20 -5 20 11 0 14 5 10 16
-5 13 -7 13 -14 2 -7 -10 -9 -8 -10 7 -1 11 -1 24 0 29 1 5 -3 12 -9 16 -6 4
-13 23 -14 42 -3 38 -5 43 -96 207 -34 63 -63 120 -64 126 -1 7 -10 25 -20 40
-17 26 -17 28 -1 21 15 -5 16 -4 6 8 -7 8 -9 21 -5 28 5 8 11 1 17 -22 5 -19
12 -39 17 -45z m241 -355 c10 -19 30 -61 44 -92 14 -32 30 -60 35 -63 5 -3 17
-22 27 -42 9 -20 19 -31 21 -25 2 6 -2 21 -9 34 -11 21 -11 22 4 9 10 -7 17
-22 17 -32 0 -9 7 -25 16 -34 9 -8 13 -22 10 -31 -3 -8 -2 -12 4 -9 6 3 10 1
10 -5 0 -6 4 -9 9 -6 9 6 71 -115 71 -137 0 -7 5 -18 12 -25 9 -9 9 -12 0 -12
-6 0 -14 11 -18 24 -3 13 -17 34 -30 47 -13 12 -24 26 -24 31 0 5 -28 34 -62
66 -49 46 -70 75 -106 151 -25 52 -48 108 -52 125 -4 17 -11 39 -15 50 -14 33
16 13 36 -24z m-1305 -840 c3 -41 7 -103 8 -138 2 -42 7 -66 18 -75 9 -6 18
-30 21 -52 3 -22 9 -51 13 -65 4 -15 3 -22 -2 -17 -5 5 -9 12 -9 15 -1 11 -29
52 -37 52 -6 0 -5 -35 8 -252 6 -94 7 -97 24 -76 13 17 15 30 9 58 -5 21 -10
52 -13 71 -2 19 -8 42 -12 53 -5 14 -3 17 7 14 8 -3 15 -11 15 -19 1 -8 2 -18
3 -23 0 -6 7 -1 15 9 12 17 14 9 14 -67 l1 -85 -40 -39 c-22 -22 -49 -54 -60
-71 -12 -18 -24 -33 -28 -33 -4 0 -7 25 -7 57 1 32 -4 58 -10 60 -7 2 -10 -22
-10 -74 2 -68 -1 -83 -24 -115 -14 -21 -29 -37 -33 -38 -11 0 2 41 18 60 8 9
15 48 16 98 2 46 7 86 12 89 4 3 6 17 3 31 -7 36 -9 203 -6 377 4 187 17 98
20 -140 3 -151 14 -313 19 -260 4 48 0 398 -6 474 -4 56 -3 82 4 78 9 -6 30
-198 24 -222 -5 -17 -2 -155 5 -284 5 -88 10 -118 17 -106 5 10 6 51 3 99 -4
44 -9 187 -11 316 -3 129 -7 245 -9 256 -5 25 -9 120 -6 149 3 28 20 -75 26
-165z"/>
<path d="M6453 5273 c-38 -7 -63 -50 -63 -105 0 -78 35 -140 63 -111 10 9 67
10 67 1 0 -13 30 -9 56 8 23 15 26 15 42 0 16 -13 21 -14 37 -2 39 28 -14 179
-72 205 -23 11 -86 13 -130 4z m191 -121 c5 -18 7 -35 4 -37 -7 -7 -219 -12
-223 -5 -2 3 -6 22 -10 43 l-7 38 113 -3 113 -3 10 -33z"/>
<path d="M5900 5143 c-21 -8 -60 -44 -60 -56 0 -6 -7 -18 -15 -27 -22 -24 -31
-112 -15 -150 13 -32 37 -40 46 -15 4 8 10 15 15 15 5 0 9 -7 9 -15 0 -8 5
-15 11 -15 5 0 7 5 4 10 -4 6 7 10 27 10 18 0 50 3 71 6 31 6 37 4 37 -10 0
-12 7 -16 21 -14 26 4 58 98 51 149 -5 35 -33 84 -60 107 -16 12 -113 16 -142
5z m185 -103 c4 -6 2 -16 -3 -23 -5 -7 -12 -24 -16 -39 -6 -28 -44 -48 -55
-30 -3 6 -43 12 -89 15 -97 4 -97 -12 0 -23 l63 -8 -80 2 -80 1 -2 47 c-2 57
-3 57 142 61 55 2 103 4 107 5 4 1 10 -3 13 -8z"/>
<path d="M6706 4270 c-54 -9 -63 -14 -118 -72 l-60 -63 4 -130 c4 -123 7 -135
44 -230 42 -103 51 -113 100 -101 15 4 24 14 24 26 0 28 15 33 73 24 29 -4 46
-9 40 -11 -7 -3 -13 -11 -13 -20 0 -12 -10 -14 -45 -11 -28 2 -41 0 -34 -7 13
-13 243 -20 265 -7 14 8 -3 11 -70 11 -96 0 -133 10 -45 12 108 2 134 6 131
18 -1 8 7 11 25 9 20 -2 28 -8 27 -21 -2 -19 29 -31 66 -25 18 2 26 14 37 52
10 32 21 50 34 53 10 3 19 12 19 20 0 13 -2 13 -16 2 -14 -12 -16 -11 -12 6 2
11 10 19 16 17 25 -5 -5 81 -54 160 -14 22 -24 41 -22 41 53 26 58 51 10 55
-29 3 -36 9 -54 50 -28 64 -63 109 -100 128 -37 19 -188 27 -272 14z m277 -43
c15 -9 33 -30 41 -45 l14 -27 -182 3 c-99 2 -182 5 -183 6 -1 1 -4 17 -5 36
-3 31 0 35 27 41 17 4 82 7 145 6 92 -2 122 -6 143 -20z m43 -105 c12 -7 44
-76 44 -93 0 -5 -87 -9 -194 -9 -215 0 -223 2 -207 58 5 17 12 36 16 42 7 12
323 14 341 2z m-441 -112 c3 -5 15 -10 26 -10 13 0 19 -7 20 -22 1 -21 2 -21
6 -3 10 45 12 48 29 34 21 -17 323 -26 378 -10 34 9 43 8 59 -7 38 -34 60 -92
54 -145 -5 -59 -23 -79 -68 -77 -19 0 -122 2 -229 3 -107 1 -205 6 -216 10
-15 5 -25 22 -34 55 -6 26 -16 56 -21 67 -20 45 -37 104 -32 109 9 9 21 7 28
-4z"/>
<path d="M5407 3850 c-21 -4 -57 -20 -80 -36 -34 -24 -47 -43 -67 -96 -25 -66
-26 -67 -64 -70 -47 -4 -56 -20 -21 -36 14 -6 25 -15 25 -20 0 -5 -19 -37 -42
-72 -40 -59 -43 -68 -43 -129 0 -117 83 -250 131 -210 7 6 14 20 16 32 3 20
10 22 74 25 40 2 94 -1 120 -6 l49 -10 -75 -1 c-157 -4 -160 -19 -3 -20 154
-1 218 7 158 20 -23 5 -17 7 27 8 54 1 56 0 67 -29 7 -22 16 -30 35 -30 41 0
55 10 62 45 5 26 14 36 45 50 21 10 39 22 39 27 0 5 -15 0 -34 -11 -18 -12
-39 -21 -45 -21 -21 0 -1 19 41 41 22 11 37 23 34 26 -3 3 -17 -2 -30 -11 -14
-9 -28 -12 -31 -7 -3 5 -1 12 5 16 5 3 10 15 10 26 0 11 7 19 16 19 9 0 12 -5
8 -12 -4 -7 -3 -8 4 -4 6 4 9 13 5 21 -3 8 -2 23 2 33 3 9 7 71 9 136 1 114 0
121 -22 145 -13 14 -32 42 -42 61 -27 53 -66 87 -115 99 -48 12 -208 13 -268
1z m291 -32 c7 -7 12 -25 12 -40 0 -27 -1 -28 -22 -16 -31 17 -342 15 -363 -2
-25 -21 -17 5 9 29 34 32 71 39 222 40 89 1 134 -3 142 -11z m-26 -83 c16 -6
29 -35 42 -96 6 -26 4 -27 -37 -30 -23 -2 -124 -3 -225 -1 -140 3 -182 7 -182
16 0 8 9 36 21 64 19 46 25 51 58 55 53 7 303 1 323 -8z m72 -177 c-7 -113
-12 -124 -53 -138 -61 -20 -66 -10 -25 45 l37 50 -56 -54 c-31 -30 -54 -57
-52 -60 3 -2 35 -3 73 -2 80 3 76 -15 -7 -28 -77 -12 -75 -23 3 -19 38 1 70 7
71 13 1 5 8 28 14 50 6 22 12 74 14 115 2 50 7 75 15 74 7 -1 19 -2 27 -2 23
-3 18 -59 -10 -120 -14 -30 -25 -62 -25 -72 0 -10 -7 -40 -16 -68 l-16 -50
-137 -3 c-188 -4 -391 1 -418 12 -26 10 -53 57 -53 95 l0 28 28 -26 c43 -40
92 -61 92 -39 0 5 -9 13 -20 16 -32 10 -80 55 -80 75 0 16 52 105 81 138 6 8
18 10 28 6 9 -4 111 -9 226 -11 204 -4 220 -2 261 26 1 1 0 -23 -2 -51z"/>
<path d="M8404 7949 c-2 -3 33 -9 77 -12 44 -3 83 -8 87 -11 3 -4 -39 -52 -94
-109 -55 -56 -114 -119 -132 -140 -21 -24 -39 -37 -48 -33 -13 5 -14 -82 -10
-712 3 -394 7 -742 10 -772 18 -181 18 -180 -9 -192 -40 -18 -42 -51 -6 -99
28 -38 29 -44 17 -68 -8 -14 -26 -37 -40 -50 -39 -37 -35 -72 14 -113 l40 -33
4 -170 c4 -156 3 -173 -16 -202 -10 -18 -18 -41 -16 -51 1 -10 -5 -30 -15 -46
-25 -38 -14 -66 25 -66 l31 0 -7 -222 c-4 -123 -9 -549 -12 -948 -2 -399 -7
-741 -11 -760 -3 -19 -6 -39 -5 -43 2 -4 4 -71 7 -148 l4 -139 -35 0 c-21 0
-33 -4 -29 -10 3 -5 19 -10 36 -10 16 0 29 -5 29 -11 0 -7 -14 -9 -40 -5 -21
3 -42 1 -45 -4 -4 -6 14 -10 44 -10 34 0 51 -4 52 -12 1 -7 2 -20 3 -28 2 -8
3 -27 4 -42 1 -16 7 -28 13 -28 8 0 10 17 6 55 -3 30 -2 57 2 59 21 13 939 21
1221 11 52 -2 178 -7 280 -11 102 -4 183 -4 180 -2 -5 5 -165 17 -255 19 -46
1 -48 1 -20 10 17 5 154 9 305 8 292 -1 660 8 668 16 3 2 -1 11 -8 20 -10 12
-10 15 1 15 8 0 20 -9 26 -19 12 -20 31 -21 85 -6 17 4 25 12 21 21 -4 11 5
14 38 15 24 1 59 3 76 5 18 1 35 -2 39 -7 3 -5 12 -9 20 -9 8 0 12 5 9 10 -4
6 5 10 19 10 14 0 26 5 26 11 0 6 -15 9 -37 7 -39 -3 -48 11 -16 23 14 6 11 8
-12 9 -16 1 -39 3 -50 5 -11 2 -48 6 -83 10 -134 16 -65 30 123 25 72 -2 67
11 -7 17 -29 3 -64 6 -78 8 -14 1 -38 3 -54 4 -16 0 -26 4 -22 8 7 7 16 8 140
11 52 1 77 5 70 12 -5 5 -96 10 -212 11 -111 1 -202 5 -202 9 0 13 39 19 77
13 26 -4 34 -3 29 5 -4 7 0 12 11 13 10 0 28 2 41 3 13 2 25 -1 28 -6 3 -4 -2
-8 -10 -8 -9 0 -16 -4 -16 -10 0 -12 3 -12 71 -1 30 5 87 12 128 15 68 5 106
14 70 17 -33 2 -88 9 -144 16 -33 5 -95 8 -137 7 -43 0 -78 3 -78 7 0 5 14 19
31 31 56 41 146 164 193 262 100 208 138 336 200 661 15 77 33 160 40 185 10
31 11 49 4 58 -7 7 -7 12 -1 12 24 0 4 283 -34 480 -14 74 -27 145 -28 157 -5
40 -26 92 -66 164 -21 40 -39 75 -39 80 0 4 -13 27 -28 51 -16 24 -45 68 -66
100 -34 52 -102 121 -129 131 -9 3 -9 8 1 18 10 11 12 10 12 -2 0 -37 42 -13
129 73 76 75 94 88 106 78 23 -19 18 -28 -20 -41 -22 -8 -30 -16 -23 -20 15
-9 -7 -39 -28 -39 -8 0 -14 -4 -14 -10 0 -5 -7 -10 -15 -10 -9 0 -12 -6 -9
-15 5 -11 -1 -15 -19 -15 -14 0 -29 -4 -32 -10 -3 -5 0 -7 8 -4 23 9 29 -13
12 -40 -13 -19 -13 -26 -4 -32 8 -5 17 0 23 12 6 10 37 44 69 75 31 31 57 64
57 73 0 9 3 16 8 16 4 0 12 12 19 26 12 25 9 29 -47 84 -33 31 -60 61 -60 66
0 5 16 40 35 77 19 38 35 74 35 82 0 7 -13 24 -30 37 -28 22 -29 25 -18 58 6
19 13 42 15 50 4 13 11 90 15 150 0 8 9 78 20 155 27 187 26 446 -2 480 -15
18 -23 85 -11 85 6 0 11 -4 11 -10 0 -5 4 -10 10 -10 5 0 7 7 4 15 -4 8 -12
15 -20 15 -8 0 -14 7 -14 16 0 10 6 14 15 10 10 -4 6 12 -14 53 -17 32 -38 88
-47 124 -10 37 -22 67 -27 67 -4 0 -6 4 -3 9 3 5 -3 20 -14 34 -11 14 -20 29
-19 34 4 16 -20 59 -70 126 -28 37 -46 67 -41 67 5 0 25 -9 44 -21 20 -12 36
-18 36 -15 0 3 -33 24 -72 47 -40 23 -96 66 -124 96 -51 55 -77 71 -251 159
-51 25 -91 50 -88 54 6 10 7 10 -165 50 -74 18 -151 38 -170 45 -47 18 -265
49 -279 40 -7 -4 -19 -1 -28 7 -9 7 -14 8 -10 2 4 -7 -40 -9 -151 -6 -259 6
-1114 7 -1118 1z m296 -33 c19 -3 179 -6 355 -7 176 -2 379 -6 450 -10 72 -5
173 -9 225 -10 52 -1 100 -4 105 -8 13 -7 28 -10 98 -20 32 -4 62 -13 66 -19
3 -6 20 -10 37 -10 16 1 88 -16 159 -37 207 -60 339 -138 473 -280 45 -47 94
-107 109 -133 15 -26 43 -72 63 -102 31 -48 55 -110 99 -260 18 -59 29 -130
21 -135 -4 -2 -13 15 -19 38 -7 23 -17 50 -22 59 -12 24 -11 31 3 22 7 -4 8
-3 4 5 -4 6 -12 9 -17 6 -8 -5 -10 0 -9 20 1 3 -20 25 -45 49 -32 30 -44 47
-39 59 3 10 1 17 -5 17 -6 0 -11 5 -11 11 0 15 -150 154 -215 200 -30 21 -75
47 -102 58 l-48 20 29 -22 c16 -12 57 -46 92 -75 38 -32 68 -51 75 -46 8 4 9
3 5 -4 -4 -7 -1 -12 8 -12 16 0 81 -64 82 -83 2 -21 22 -65 34 -72 25 -16 150
-299 137 -312 -2 -2 -20 34 -41 80 -40 91 -149 263 -199 316 -123 128 -406
307 -579 364 -166 56 -387 77 -663 66 -122 -6 -848 -20 -1012 -20 -24 0 -43
-4 -43 -9 0 -11 51 -20 110 -19 25 1 322 -1 660 -3 500 -4 635 -8 721 -21 58
-9 117 -21 130 -26 13 -6 53 -18 89 -26 197 -48 405 -169 546 -317 76 -81 163
-233 203 -358 11 -36 29 -90 40 -121 26 -77 49 -222 56 -353 5 -100 4 -108
-12 -103 -85 28 -104 31 -123 19 -27 -17 -49 -15 -57 4 -3 8 -16 20 -29 24
-16 6 -22 15 -18 25 9 21 -44 20 -68 -2 -22 -19 -25 -41 -3 -23 9 7 18 10 22
7 3 -4 0 -13 -7 -22 -10 -13 -9 -15 9 -15 11 0 21 -5 21 -11 0 -8 5 -7 15 1 9
7 19 10 23 6 4 -4 -1 -13 -11 -20 -22 -17 -22 -30 1 -21 23 10 112 27 137 26
11 0 37 -8 58 -17 31 -14 38 -22 35 -43 -1 -14 -7 -32 -12 -40 -6 -8 -11 -28
-12 -45 -3 -61 -6 -65 -80 -124 -23 -17 -47 -32 -52 -32 -6 0 -18 -7 -27 -16
-9 -9 -18 -14 -21 -12 -8 8 47 58 83 74 32 16 48 39 18 28 -11 -5 -13 -2 -9 9
3 9 13 18 22 20 12 3 10 5 -5 6 -13 0 -23 -3 -23 -8 0 -5 -9 -11 -21 -14 -12
-3 -19 -11 -17 -18 4 -13 -39 -69 -53 -69 -4 0 -21 12 -38 26 -40 34 -39 27 3
-20 22 -23 33 -43 29 -53 -7 -17 5 -11 89 45 34 22 40 23 68 11 37 -17 38 -33
6 -125 -57 -165 -143 -311 -169 -285 -8 8 -3 18 13 36 15 16 19 25 10 25 -9 0
-8 6 5 20 16 17 16 20 2 20 -26 0 -26 24 2 54 l26 30 -27 -17 c-37 -23 -43
-21 -24 8 15 23 13 23 -31 -7 -27 -18 -70 -50 -96 -72 -48 -40 -49 -40 -65
-20 -9 11 -30 26 -47 34 -16 8 -38 20 -47 28 -9 8 -22 11 -27 7 -19 -11 -12
-25 13 -25 15 0 49 -21 86 -52 56 -46 61 -54 57 -82 -3 -24 1 -36 20 -52 15
-12 21 -24 15 -28 -6 -3 -8 -14 -6 -24 3 -11 -9 -29 -38 -52 -24 -19 -55 -48
-69 -64 -15 -15 -32 -26 -37 -22 -23 14 -19 -11 4 -29 14 -11 33 -28 42 -37 9
-10 21 -18 27 -18 12 0 28 -12 114 -82 89 -71 201 -212 201 -250 0 -24 -21
-23 -48 2 -26 24 -32 25 -32 4 0 -14 -7 -15 -37 -9 -64 12 -78 11 -78 -5 0
-10 12 -16 33 -18 37 -4 40 -19 12 -55 -11 -14 -17 -32 -14 -41 3 -9 1 -16 -5
-16 -6 0 -11 -5 -11 -11 0 -7 -13 -25 -30 -40 -16 -16 -41 -47 -55 -69 -24
-37 -65 -56 -65 -29 0 5 -4 8 -9 5 -12 -8 -41 3 -41 15 0 5 7 9 15 9 12 0 13
4 5 19 -13 25 -13 31 1 31 5 0 7 -4 4 -10 -13 -21 12 -9 45 22 19 18 41 33 48
34 7 1 22 12 33 25 10 12 22 19 26 15 4 -3 2 -10 -3 -14 -5 -5 -32 -27 -61
-51 -33 -27 -51 -49 -50 -62 1 -10 6 -18 12 -16 5 2 9 12 8 21 -1 12 4 15 14
12 11 -4 13 -2 9 9 -3 8 -1 15 5 15 21 0 80 73 73 92 -3 10 -1 18 4 18 6 0 13
7 16 16 4 9 -10 3 -33 -15 -21 -17 -43 -31 -47 -31 -4 0 -25 -17 -46 -37 -21
-20 -38 -32 -38 -26 0 6 15 22 33 35 43 34 120 109 115 113 -3 4 -96 -69 -176
-136 -13 -11 -31 -19 -40 -17 -13 3 -10 8 13 20 38 21 154 138 136 138 -7 0
-38 -24 -69 -53 -31 -30 -73 -63 -92 -75 -20 -11 -46 -32 -59 -46 -14 -14 -31
-26 -40 -26 -10 0 -7 6 9 17 14 9 30 22 35 28 6 7 34 26 63 45 35 21 50 36 43
43 -6 6 -18 2 -33 -13 -30 -29 -129 -92 -135 -87 -2 3 21 21 51 41 53 35 75
56 60 56 -4 0 -16 -7 -26 -17 -10 -9 -21 -13 -24 -10 -4 3 11 16 32 29 22 13
39 21 39 18 0 -3 11 5 25 18 13 12 39 32 57 45 40 27 47 59 7 32 -30 -20 -48
-10 -20 11 25 18 17 18 -28 -1 -33 -14 -36 -14 -36 1 0 18 -34 11 -62 -14 -11
-9 -18 -10 -18 -4 0 6 6 15 13 19 6 4 17 17 23 28 9 17 50 53 156 138 15 12
28 25 28 30 0 11 -17 8 -32 -6 -16 -15 -89 -71 -104 -80 -8 -5 -11 2 -10 18 0
14 7 27 15 30 7 3 10 12 7 21 -3 9 -2 12 4 9 6 -4 25 8 43 26 34 34 18 31 -20
-4 -35 -31 -27 -7 9 30 18 18 27 33 22 33 -10 0 -33 -23 -79 -78 -19 -23 -19
-23 1 -16 17 7 17 6 5 -9 -8 -11 -21 -15 -32 -12 -20 7 -26 -9 -8 -21 8 -4 7
-9 -2 -15 -11 -7 -11 -9 -1 -9 9 0 9 -6 -3 -23 -8 -13 -12 -26 -9 -30 8 -8
-43 -77 -57 -77 -6 0 -7 4 -4 10 9 14 -46 -8 -68 -27 -25 -23 -34 -7 -10 20
39 44 37 51 -9 24 -56 -33 -64 -34 -44 -5 19 27 21 52 4 42 -10 -6 -10 -4 0 7
25 27 11 31 -22 5 -19 -14 -39 -26 -44 -26 -5 0 -15 -7 -22 -15 -12 -15 -30
-12 -30 5 0 5 7 6 17 3 11 -4 14 -3 9 5 -4 8 0 12 11 13 10 0 29 14 43 32 l25
32 -35 -26 c-19 -14 -45 -29 -57 -33 -13 -4 -23 -12 -23 -17 0 -5 -4 -9 -10
-9 -26 0 -5 32 30 46 22 9 40 21 40 26 0 6 -8 7 -17 3 -48 -18 62 72 125 102
84 41 97 54 48 51 -20 -2 -36 -6 -36 -9 0 -3 -11 -11 -25 -17 -14 -7 -50 -30
-79 -52 -29 -22 -59 -40 -67 -40 -7 0 7 15 33 33 25 17 67 47 93 65 25 19 49
31 52 28 4 -3 12 -1 19 5 9 7 21 6 42 -5 28 -14 31 -14 52 9 l23 25 -31 0
c-17 0 -34 5 -37 10 -3 6 -24 10 -46 10 -21 0 -39 4 -39 9 0 5 -10 11 -22 14
-19 5 -20 8 -7 23 13 16 11 17 -16 12 -28 -6 -29 -5 -10 9 68 50 70 52 53 53
-9 0 -23 -7 -32 -15 -8 -8 -17 -15 -21 -15 -3 0 -17 -12 -30 -27 -12 -16 -40
-37 -62 -48 -57 -29 -66 -37 -52 -46 7 -4 1 -6 -14 -6 -32 2 -20 20 32 47 20
10 56 40 81 66 l45 47 -45 -35 c-60 -47 -80 -57 -54 -27 33 38 40 56 11 30
-35 -32 -42 -24 -12 11 15 18 30 26 40 22 17 -7 48 13 40 26 -3 4 2 13 11 21
8 7 20 22 26 33 l11 21 -24 -20 c-13 -11 -29 -26 -37 -32 -22 -21 -49 -14
-101 24 -2 2 15 26 39 54 l43 51 -59 -40 c-56 -38 -99 -51 -91 -28 2 6 8 22
12 36 l8 25 -22 -25 c-13 -14 -19 -18 -15 -10 5 10 0 9 -14 -4 -39 -34 -36 -8
12 84 48 94 51 125 4 42 -15 -26 -39 -60 -53 -77 l-26 -30 5 30 c6 28 5 29 -9
11 -8 -11 -15 -26 -15 -33 0 -7 -5 -13 -10 -13 -15 0 -2 47 30 108 16 28 25
52 21 52 -10 0 -81 -121 -81 -137 0 -7 -4 -13 -10 -13 -5 0 -10 8 -10 18 -1
16 -1 16 -11 0 -11 -20 -44 -24 -55 -7 -3 6 13 51 38 100 24 49 41 89 38 89
-3 0 -28 -39 -56 -86 -32 -56 -50 -79 -52 -67 -5 26 -22 41 -22 20 0 -9 -3
-17 -7 -17 -12 1 -53 37 -53 47 0 4 -10 8 -22 9 -13 0 -31 4 -40 8 -35 16 -17
-13 26 -44 57 -39 60 -44 42 -78 -20 -38 -86 -89 -95 -73 -4 6 -15 9 -25 5
-23 -9 -45 23 -39 58 6 41 -8 34 -40 -19 -31 -51 -47 -53 -22 -1 l17 33 -36
-39 c-20 -21 -36 -41 -36 -43 0 -13 -33 -34 -45 -29 -16 6 -21 32 -7 38 15 6
53 68 43 68 -6 0 -11 -4 -11 -8 0 -5 -18 -18 -40 -31 -22 -12 -47 -29 -55 -38
-15 -14 -20 -12 -57 18 -44 35 -45 32 -16 -39 12 -33 12 -35 -17 -58 -16 -13
-38 -24 -47 -24 -9 0 -20 -4 -23 -10 -10 -16 -25 -12 -25 6 0 14 -3 14 -15 4
-9 -7 -19 -10 -22 -6 -4 4 -1 11 7 16 8 6 10 10 4 10 -6 0 -17 -7 -24 -15 -14
-17 -35 -21 -25 -5 9 15 2 12 -34 -14 -22 -16 -28 -26 -19 -30 10 -5 10 -7 1
-12 -7 -3 -13 -10 -13 -16 0 -6 9 -5 23 3 12 8 29 13 37 13 8 -1 26 -2 40 -3
24 -1 24 -3 -15 -36 -22 -19 -36 -34 -32 -35 11 0 66 38 90 62 19 19 53 25 42
8 -3 -5 2 -10 12 -10 14 0 10 -8 -17 -31 l-35 -31 33 22 c44 29 84 70 70 70
-7 0 1 14 17 30 40 42 77 41 38 -2 -18 -20 -5 -25 17 -5 8 6 6 2 -5 -11 -10
-12 -24 -21 -31 -18 -8 3 -11 -1 -7 -10 3 -7 1 -14 -3 -14 -9 0 -43 -29 -115
-95 -20 -18 -50 -40 -66 -49 -30 -15 -32 -14 -71 14 -22 16 -43 34 -47 40 -5
8 -11 7 -22 -2 -39 -32 -105 -1 -105 48 0 23 -8 30 -20 19 -11 -11 14 -84 31
-91 9 -4 38 -8 65 -9 26 -1 51 -7 55 -12 3 -5 21 -18 39 -29 l33 -21 -47 -39
c-25 -21 -56 -47 -68 -56 -11 -10 -15 -18 -8 -18 6 0 22 12 35 26 12 14 36 32
52 41 29 14 28 13 -8 -22 -21 -20 -37 -39 -35 -41 3 -2 15 7 28 21 13 14 28
25 34 25 5 0 -3 -13 -19 -30 -35 -37 -31 -37 31 -3 60 33 56 26 -15 -21 -58
-39 -70 -44 -51 -21 7 8 10 15 7 15 -3 0 -13 3 -23 7 -14 5 -16 3 -10 -12 4
-11 4 -16 0 -13 -10 10 -71 -37 -135 -104 -31 -32 -62 -58 -68 -58 -7 0 -9 5
-6 10 7 12 -7 13 -20 2 -6 -4 12 13 39 40 27 26 53 45 57 42 4 -2 11 1 15 7 4
8 3 9 -4 5 -7 -4 -12 -2 -12 4 0 7 6 10 14 7 16 -6 40 16 29 27 -7 7 26 35 42
35 6 1 -1 -8 -15 -19 -30 -23 -14 -27 18 -4 18 12 20 19 11 30 -9 11 0 24 43
63 29 28 47 50 40 51 -6 0 -79 -65 -161 -145 -81 -80 -153 -145 -160 -145 -18
0 -13 25 9 45 14 12 17 21 9 25 -6 5 12 25 48 52 54 42 114 101 86 84 -7 -4
-13 -2 -13 4 0 6 -5 8 -11 4 -8 -5 -8 -8 0 -13 8 -5 5 -13 -9 -26 -11 -10 -23
-15 -28 -10 -4 4 -1 10 6 12 6 3 12 9 12 14 0 4 -17 -3 -37 -17 -21 -14 -38
-29 -38 -34 0 -5 -4 -12 -9 -17 -5 -5 -6 -3 -2 5 6 10 1 11 -18 6 -21 -5 -25
-3 -20 10 4 9 1 16 -6 16 -27 0 24 40 59 46 52 10 53 12 19 45 -30 28 -31 30
-12 44 10 8 22 15 25 15 11 0 60 50 50 50 -6 0 -19 -8 -28 -17 -13 -13 -33
-18 -71 -17 -38 0 -60 -5 -77 -18 -26 -21 -65 -24 -65 -5 0 9 -2 9 -8 -1 -7
-10 -15 -10 -36 -2 -15 5 -24 14 -21 20 3 5 2 10 -4 10 -14 0 -29 57 -25 100
1 24 11 42 31 58 30 25 155 83 162 76 2 -2 -4 -13 -14 -24 -31 -34 -6 -22 31
16 30 29 38 33 51 23 13 -11 9 -18 -27 -51 -23 -22 -39 -42 -36 -45 4 -4 26
12 49 35 47 46 76 53 95 22 7 -11 16 -20 21 -20 5 0 7 9 4 20 -3 11 -12 20
-19 20 -8 0 -14 5 -14 11 0 6 -8 9 -17 7 -23 -4 -55 22 -44 36 5 6 9 18 9 26
1 8 4 29 7 45 3 17 6 37 7 45 0 8 10 26 22 39 l21 24 -25 -13 c-14 -7 -33 -19
-42 -28 -35 -30 -17 4 22 42 41 41 57 74 19 40 -22 -19 -22 -19 -10 4 7 13 18
21 25 19 7 -3 34 18 62 46 32 34 39 44 19 30 -16 -11 -38 -30 -49 -42 -10 -11
-22 -19 -26 -16 -11 7 -51 -40 -48 -56 2 -8 -3 -13 -10 -11 -8 1 -11 -2 -8 -7
3 -5 -3 -19 -13 -32 -16 -19 -16 -25 -5 -37 10 -10 11 -18 4 -33 -13 -23 -35
-26 -26 -3 6 15 4 15 -10 3 -10 -8 -12 -15 -5 -17 18 -6 13 -18 -14 -30 -32
-15 -35 -15 -35 -2 0 6 7 10 16 10 13 0 14 3 4 15 -10 12 -6 18 22 36 33 20
33 21 6 16 -35 -5 -36 5 -3 23 14 7 25 18 25 23 0 6 -8 3 -18 -6 -10 -10 -27
-17 -38 -16 -18 0 -18 1 1 9 12 4 27 15 34 24 7 9 17 14 21 11 4 -3 10 4 13
14 3 15 1 18 -11 13 -12 -4 -10 3 7 27 13 18 33 36 45 41 26 10 84 70 68 70
-6 0 -20 -9 -31 -21 -12 -13 -25 -18 -33 -13 -7 4 -10 4 -6 -1 4 -4 -4 -17
-18 -27 -13 -11 -36 -42 -49 -68 -14 -27 -29 -51 -35 -55 -14 -9 -13 8 2 23 9
9 9 12 0 12 -7 0 -12 -4 -12 -9 0 -4 -20 -19 -45 -32 -34 -18 -45 -29 -43 -44
3 -20 16 -23 63 -11 14 4 25 2 25 -4 0 -5 -13 -10 -29 -10 -25 0 -28 -3 -23
-27 3 -16 13 -39 22 -53 17 -24 17 -24 -18 -52 -48 -38 -72 -37 -72 3 0 17 9
44 21 60 28 40 10 37 -22 -4 -20 -25 -24 -38 -18 -59 5 -20 2 -32 -12 -47 -11
-12 -22 -21 -25 -21 -9 0 -2 294 8 306 5 7 18 9 30 6 20 -5 20 -6 3 -18 -10
-8 -15 -17 -11 -21 4 -4 10 -3 14 3 12 19 36 22 53 8 14 -13 19 -11 42 12 30
30 37 56 9 31 -34 -31 -34 -17 0 25 49 63 91 98 110 92 22 -7 31 11 14 26 -10
8 -20 8 -33 2 -21 -12 -89 -86 -104 -114 -8 -15 -13 -17 -19 -8 -6 9 -12 9
-30 0 -14 -8 -26 -8 -32 -2 -9 9 13 28 115 97 22 15 36 29 33 32 -3 4 -14 -2
-25 -11 -11 -10 -22 -13 -25 -8 -3 6 1 12 9 16 8 3 15 10 15 16 0 12 -30 -14
-31 -27 -1 -13 -20 -33 -31 -33 -6 0 -4 8 3 17 12 14 10 14 -13 -1 -16 -10
-28 -23 -28 -29 0 -16 -41 -57 -57 -57 -7 0 -14 12 -15 28 -1 15 -2 36 -3 47
-1 11 2 27 6 36 4 8 4 21 -1 29 -5 9 -5 19 2 27 6 7 8 22 5 33 -3 11 0 20 6
20 7 0 4 5 -5 11 -13 7 -18 23 -18 54 0 41 2 45 25 45 14 0 28 7 31 15 4 8 16
15 28 15 19 1 19 2 4 11 -29 16 -21 31 12 24 l30 -7 -14 40 c-16 44 -7 62 29
62 12 0 30 9 41 21 15 16 27 20 56 16 48 -6 57 8 18 28 -16 8 -31 21 -31 28
-1 6 -2 19 -3 27 -2 22 60 80 84 80 12 0 31 -10 44 -23 21 -22 25 -22 47 -8
13 9 27 20 30 25 8 10 29 -1 29 -15 0 -5 -8 -9 -17 -7 -10 2 -17 -2 -15 -10 2
-14 0 -17 -56 -82 -55 -64 -72 -91 -72 -115 1 -16 4 -14 17 10 27 51 113 153
220 262 69 70 45 67 -28 -4 -33 -32 -49 -41 -54 -33 -5 9 18 39 67 87 42 40
73 75 69 77 -15 9 -50 -18 -101 -78 -32 -38 -63 -65 -75 -66 -17 0 -17 -2 -5
-10 8 -5 12 -10 8 -10 -12 0 -58 23 -58 29 0 3 16 21 35 40 25 24 35 29 35 17
0 -9 4 -16 8 -16 13 0 112 120 112 135 0 8 7 21 16 29 14 15 14 16 -5 16 -15
0 -21 -6 -21 -23 0 -14 -17 -42 -40 -67 -22 -24 -40 -48 -40 -54 0 -6 -6 -4
-13 5 -9 12 -24 16 -52 13 -39 -3 -39 -2 -15 11 14 8 21 14 17 15 -4 0 5 11
20 25 l28 26 -42 -20 c-22 -11 -43 -26 -46 -33 -4 -11 -7 -11 -15 0 -5 7 -16
10 -27 6 -17 -7 -17 -6 0 19 21 32 10 36 -14 5 -11 -13 -24 -19 -34 -15 -24 9
-12 30 33 58 42 26 50 39 24 39 -24 0 -104 -68 -104 -89 0 -28 45 -65 66 -53
9 5 26 7 38 4 69 -17 47 -60 -56 -113 -42 -21 -79 -43 -83 -49 -3 -5 -2 -25 3
-44 9 -31 7 -37 -22 -64 -17 -17 -43 -34 -58 -37 -37 -9 -51 -30 -46 -63 5
-22 -1 -33 -28 -55 l-33 -28 -5 23 c-3 13 -8 343 -11 733 -3 391 -8 742 -10
780 l-5 70 88 90 c48 50 107 107 130 128 23 21 42 46 42 56 0 28 38 62 63 57
12 -3 38 -7 57 -10z m2290 -2002 c0 -7 -7 -20 -16 -28 -8 -9 -13 -16 -10 -16
7 0 -25 -61 -47 -93 -10 -14 -8 -21 16 -41 15 -13 27 -28 27 -34 0 -6 -37 -44
-82 -84 -45 -40 -92 -83 -106 -96 -13 -12 -28 -20 -33 -16 -6 4 -3 13 9 24 28
26 110 170 132 232 24 66 63 159 74 176 9 15 36 -2 36 -24z m-1615 -629 c26
-35 44 -69 40 -75 -4 -6 -1 -9 6 -8 7 2 19 -9 26 -24 8 -16 19 -28 24 -28 6 0
8 3 6 8 -5 8 -19 43 -23 57 -16 50 5 73 25 28 14 -29 38 -122 46 -180 3 -18
10 -44 15 -59 6 -14 10 -32 10 -41 0 -14 -2 -14 -20 2 -19 17 -19 17 -11 -11
5 -16 19 -56 31 -89 12 -33 28 -79 37 -102 8 -24 19 -43 24 -43 10 0 3 38 -18
87 -7 18 -13 38 -13 45 1 19 40 -71 40 -91 0 -9 10 4 21 29 20 44 20 118 -1
105 -5 -3 -16 9 -24 26 -20 40 -20 38 4 32 11 -3 17 -9 14 -14 -3 -5 2 -6 10
-3 9 3 16 11 16 17 0 6 3 8 6 5 3 -4 1 -16 -6 -27 -6 -12 -7 -21 -3 -21 19 0
122 191 180 335 l28 70 8 -56 c8 -49 6 -62 -13 -100 l-22 -44 65 68 c35 37 70
67 78 67 7 0 1 -13 -15 -29 -17 -18 -25 -34 -21 -42 5 -7 4 -10 -3 -5 -6 3
-16 -3 -22 -15 -7 -11 -21 -31 -32 -44 -24 -28 -39 -53 -67 -115 -11 -25 -25
-52 -31 -60 -17 -25 -56 -112 -74 -164 -9 -27 -23 -54 -31 -60 -25 -20 -60
-190 -70 -336 -4 -52 -10 -123 -14 -158 -10 -85 -4 -351 9 -434 7 -36 13 -73
14 -82 1 -8 5 -19 9 -22 4 -4 7 -19 7 -33 0 -37 54 -220 84 -283 13 -29 40
-65 59 -80 31 -24 44 -28 101 -27 56 1 72 -3 116 -30 49 -30 70 -38 70 -24 0
8 -61 63 -70 63 -4 0 -20 12 -36 26 -18 16 -22 22 -9 16 100 -47 136 -66 140
-72 3 -5 14 -6 25 -3 14 4 20 0 20 -10 0 -13 16 -16 40 -7 3 1 16 1 30 0 36
-3 20 9 -17 13 -32 4 -148 81 -158 105 -2 7 2 15 11 19 20 7 32 -6 15 -16 -17
-11 1 -23 32 -21 45 4 67 0 65 -12 -3 -13 12 -16 106 -23 32 -3 77 -10 100
-17 22 -6 50 -13 61 -14 29 -3 80 -12 80 -14 0 -1 21 -3 48 -5 98 -5 32 20
-77 30 -80 7 -136 29 -118 47 13 13 72 0 72 -15 0 -8 4 -7 12 1 7 7 25 12 40
12 15 0 28 5 28 10 0 11 -10 12 -160 10 l-85 -1 30 20 c39 27 16 27 -35 1 -22
-11 -42 -20 -45 -20 -11 0 -4 28 10 40 30 25 6 21 -39 -5 -50 -29 -59 -21 -25
27 29 40 14 50 -17 10 -26 -32 -58 -44 -48 -18 3 8 1 23 -5 33 -10 17 -11 17
-17 -3 -10 -38 -97 -46 -150 -13 -30 18 -104 123 -104 147 0 5 -9 29 -20 53
-22 49 -26 84 -9 73 17 -10 136 120 160 174 11 26 24 56 29 67 13 29 28 110
35 190 10 98 11 77 -11 265 -3 30 -22 96 -40 146 -40 108 -40 110 -14 124 28
15 95 -7 79 -26 -8 -9 -3 -17 15 -28 14 -9 37 -22 49 -30 29 -18 139 -15 162
4 8 7 15 25 15 41 0 34 19 38 45 9 19 -21 55 -26 71 -10 7 7 18 2 34 -15 35
-37 93 -35 130 6 16 16 32 39 35 49 3 10 15 22 26 25 32 10 74 74 70 107 -4
43 22 76 66 83 21 4 49 12 62 18 28 14 38 3 87 -98 48 -100 125 -377 124 -444
-1 -36 -22 22 -37 102 -15 83 -32 131 -33 94 0 -10 6 -50 14 -90 56 -280 59
-298 53 -416 -2 -64 -10 -136 -16 -161 -5 -25 -20 -94 -31 -154 -24 -122 -54
-201 -73 -189 -7 4 -7 1 2 -10 11 -14 11 -18 -3 -23 -9 -3 -13 -10 -10 -15 3
-5 1 -9 -5 -9 -5 0 -13 -10 -17 -22 -28 -94 -206 -309 -268 -327 -19 -5 -43
-18 -55 -30 -25 -25 -28 -40 -3 -19 9 8 26 18 37 22 17 6 16 4 -5 -19 -17 -18
-31 -24 -46 -21 -14 4 -35 -5 -65 -28 -31 -24 -86 -47 -189 -80 -241 -76 -489
-108 -820 -107 -102 1 -202 3 -224 5 -53 6 -535 20 -619 19 -38 -1 -71 -4 -74
-7 -4 -3 28 -6 70 -6 45 0 77 -4 77 -10 0 -6 -62 -10 -165 -10 -179 0 -182 0
-176 15 1 6 5 327 7 715 2 388 3 711 4 718 0 7 5 10 10 7 6 -3 10 -1 10 4 0 6
-6 11 -14 11 -11 0 -14 15 -14 65 1 36 4 65 7 65 3 0 4 144 3 320 -2 176 -1
320 3 320 3 0 15 -9 27 -20 14 -12 36 -20 58 -20 49 0 75 -30 76 -91 0 -30 8
-57 22 -76 l21 -30 -21 -21 c-21 -20 -21 -22 -5 -40 9 -10 17 -24 17 -32 0 -9
10 -11 38 -6 150 25 195 36 210 49 9 8 32 17 50 19 25 4 32 1 32 -13 0 -10 11
-31 25 -48 20 -23 33 -29 60 -28 19 1 37 8 40 15 2 6 14 12 25 12 28 0 23 -32
-8 -45 -12 -5 -21 -14 -19 -19 7 -21 26 -16 56 13 27 27 34 29 58 20 24 -9 30
-7 48 15 12 14 28 26 38 26 9 0 26 9 37 20 11 11 21 20 23 20 1 0 1 -114 -1
-252 -4 -291 -4 -597 0 -813 l3 -150 33 -3 c17 -2 32 -7 32 -11 0 -29 -124
-170 -182 -207 -42 -27 -48 -29 -48 -14 0 6 6 10 14 10 8 0 19 14 25 31 6 17
26 52 44 78 70 97 56 91 -27 -12 -25 -32 -46 -64 -46 -72 0 -26 -18 -16 -25
13 -3 15 -15 38 -26 52 l-20 25 7 -30 c4 -16 16 -49 27 -73 10 -24 17 -45 15
-46 -46 -33 -78 -52 -116 -67 -26 -10 -38 -18 -27 -18 31 -1 83 20 181 72 90
48 153 106 218 201 25 37 61 136 70 191 2 17 14 84 25 150 16 91 21 164 21
305 1 102 1 214 2 250 2 129 -29 310 -68 397 -33 71 -59 99 -166 181 -152 114
-184 177 -45 85 41 -26 88 -55 104 -64 37 -20 139 -140 161 -189 12 -26 17
-31 20 -17 2 10 -8 33 -22 51 -14 18 -37 59 -52 90 -23 49 -25 61 -15 84 l11
27 -19 -22 c-22 -26 -39 -29 -65 -10 -15 11 -13 16 27 58 40 43 45 45 55 28 7
-10 12 -25 12 -32 0 -8 7 -28 16 -45 8 -18 14 -45 13 -60 -4 -30 28 -112 42
-112 11 0 5 47 -19 152 -11 46 -20 90 -20 98 0 28 -10 68 -26 98 -8 16 -13 32
-10 35 3 3 1 12 -5 19 -44 54 -61 77 -61 86 0 6 -6 13 -12 15 -10 4 -10 6 -1
6 7 1 33 -28 58 -64z m343 -25 c-33 -49 -67 -90 -74 -90 -8 0 -14 -9 -14 -20
0 -10 -9 -24 -20 -30 -11 -6 -20 -15 -20 -21 0 -5 13 -3 30 6 16 8 40 15 55
15 14 0 25 5 25 12 0 6 3 8 6 5 4 -4 1 -13 -6 -22 -9 -11 -9 -19 -2 -28 16
-19 -19 -90 -51 -104 -23 -11 -29 -10 -46 9 -22 23 -36 72 -26 88 3 5 1 10 -4
10 -6 0 -11 10 -11 22 0 24 27 58 45 58 7 0 16 7 19 16 3 8 10 13 15 10 12 -8
34 21 26 33 -3 6 0 9 7 6 8 -3 31 21 55 55 66 93 60 71 -9 -30z m491 -66 c-6
-8 -16 -14 -22 -14 -6 0 -20 -9 -32 -20 -33 -31 -136 -91 -146 -84 -5 3 -9 -1
-9 -8 0 -9 -3 -9 -10 2 -8 13 -10 13 -10 -2 0 -10 -5 -15 -13 -12 -8 3 -20 -2
-27 -11 -7 -8 -9 -15 -4 -15 4 0 -8 -16 -27 -37 -18 -20 -27 -32 -19 -28 24
14 73 48 95 67 14 12 25 14 35 8 13 -8 13 -10 -1 -10 -17 0 -52 -33 -44 -42 3
-3 -1 -11 -10 -18 -13 -11 -14 -10 -9 5 7 17 6 17 -23 0 -16 -9 -35 -27 -43
-39 -12 -20 -12 -20 12 2 37 34 46 26 12 -10 l-29 -33 32 29 c35 32 55 28 34
-6 -7 -11 -8 -18 -3 -14 5 3 18 -2 30 -10 21 -15 21 -16 5 -47 -20 -40 -143
-168 -154 -162 -4 3 -8 13 -7 23 0 9 -6 31 -13 49 -13 33 -8 52 59 218 17 43
56 102 82 123 21 18 210 113 210 107 0 -3 8 -2 17 3 24 14 47 4 32 -14z m809
-269 c6 -14 16 -25 22 -25 6 0 8 5 4 12 -4 7 -3 8 4 4 7 -4 12 -18 12 -31 0
-13 4 -26 8 -29 5 -3 9 -18 10 -33 1 -26 7 -62 18 -123 15 -83 28 -363 15
-356 -5 3 -11 0 -14 -6 -2 -7 -8 -10 -12 -5 -5 4 -3 13 3 19 7 7 12 19 12 27
0 14 -1 14 -10 1 -8 -13 -10 -12 -10 3 0 9 5 17 11 17 8 0 9 12 5 38 -17 100
-28 192 -28 242 -1 30 -4 60 -8 65 -14 20 -19 59 -8 72 5 7 8 18 5 25 -2 7 -5
18 -6 23 -1 6 -10 19 -20 30 -33 39 -43 55 -34 55 5 0 15 -11 21 -25z m-908
-54 c0 -13 -49 -71 -80 -96 -48 -38 -225 -220 -248 -255 -13 -19 -21 -26 -17
-15 5 16 1 15 -24 -9 -36 -34 -78 -119 -92 -187 -13 -60 -30 -57 -19 3 5 24 6
46 4 50 -3 5 -1 8 4 8 5 0 14 17 20 37 12 38 7 58 -8 33 -8 -12 -8 8 -1 68 0
7 8 12 17 10 10 -2 19 4 21 12 4 13 3 13 -6 0 -13 -18 -13 -3 -1 25 7 17 9 17
9 3 1 -10 3 -18 5 -18 2 0 37 22 78 49 43 29 112 89 162 143 105 112 176 168
176 139z m-197 -353 c41 -86 58 -157 64 -261 8 -136 -7 -197 -61 -244 -23 -19
-71 -50 -108 -68 -61 -31 -69 -32 -77 -17 -5 9 -9 79 -9 155 -1 146 21 267 63
347 28 53 87 140 96 140 4 0 19 -24 32 -52z"/>
<path d="M9790 7275 c-19 -7 -54 -14 -76 -14 -23 -1 -47 -7 -53 -15 -6 -8 -25
-19 -41 -26 -19 -8 -41 -32 -61 -66 -30 -54 -42 -63 -54 -44 -11 17 -64 11
-85 -10 -16 -16 -28 -18 -69 -13 -49 6 -50 5 -101 -45 -58 -57 -59 -72 -10
-100 33 -19 37 -33 15 -56 -8 -8 -15 -22 -15 -32 0 -18 -27 -43 -47 -44 -17 0
-78 -58 -70 -66 3 -4 18 1 31 10 15 9 27 12 31 6 10 -16 42 -12 49 6 9 23 7
31 -3 15 -5 -7 -14 -12 -20 -10 -9 3 -8 9 1 22 8 11 20 16 30 12 20 -8 31
-172 27 -410 -2 -88 0 -195 4 -237 6 -70 4 -78 -11 -78 -32 0 -63 30 -57 53 6
21 6 22 -9 3 -9 -11 -16 -24 -16 -29 0 -4 -5 -5 -11 -2 -6 4 -8 14 -4 24 3 9
-6 4 -20 -11 -14 -16 -32 -28 -40 -28 -16 0 -20 30 -6 45 5 6 12 30 15 55 l6
45 -18 -46 c-9 -25 -25 -54 -35 -64 -10 -10 -17 -26 -14 -35 4 -14 -1 -16 -27
-11 -25 5 -32 12 -34 35 -2 16 1 33 7 39 13 13 14 27 4 27 -10 0 -43 -57 -43
-73 0 -6 14 -25 30 -42 l30 -31 -29 -41 c-30 -42 -91 -69 -99 -44 -7 21 -22
11 -22 -14 0 -21 5 -25 30 -25 31 0 39 -17 18 -38 -18 -18 -40 -14 -73 12
l-30 24 23 46 c25 53 26 56 11 56 -5 0 -19 -20 -30 -45 l-20 -46 -30 21 c-37
27 -36 40 2 106 17 30 28 54 25 54 -12 0 -76 -106 -76 -126 0 -23 95 -118 137
-137 31 -14 29 -24 -9 -47 -18 -11 -33 -23 -33 -27 0 -5 -4 -15 -10 -23 -16
-26 23 8 90 79 33 35 76 81 95 101 19 20 45 49 57 65 13 16 26 26 30 22 3 -4
17 3 30 15 12 12 25 19 28 16 3 -3 -30 -41 -74 -85 -44 -44 -82 -76 -83 -71
-2 5 -12 -1 -23 -14 -16 -18 -16 -20 -2 -9 22 17 34 7 17 -14 -29 -35 14 -7
66 43 32 30 43 28 14 -3 -14 -14 -18 -25 -11 -25 7 0 22 10 32 23 l20 22 -6
-22 c-4 -14 -2 -23 5 -23 7 0 9 -8 5 -22 -6 -17 -4 -20 10 -15 9 4 25 7 36 7
10 0 19 7 19 15 0 8 3 14 8 13 4 -1 17 2 30 6 35 12 82 -43 82 -95 l0 -39 63
-2 c77 -2 66 -3 164 16 93 17 104 22 176 77 29 21 56 38 61 36 13 -4 76 67 76
86 0 17 45 67 59 67 5 0 11 -7 15 -15 3 -10 -1 -15 -13 -15 -23 0 -61 -41 -43
-47 6 -3 12 -12 12 -21 0 -13 -2 -14 -9 -4 -7 11 -9 11 -14 -2 -4 -9 -2 -16 4
-16 6 0 9 -7 5 -15 -8 -22 4 -18 30 11 29 30 30 35 7 27 -17 -6 -17 -5 -1 12
17 18 18 18 38 0 26 -24 25 -33 -7 -68 l-28 -29 28 13 c15 7 30 23 33 36 4 13
11 23 16 23 6 0 7 -11 4 -24 -5 -21 7 -36 29 -36 5 0 -33 126 -59 194 -27 70
-36 114 -12 61 7 -16 21 -48 31 -70 l19 -40 7 30 c3 17 7 24 8 18 1 -15 31
-18 31 -3 0 6 -4 10 -10 10 -5 0 -10 7 -10 16 0 8 4 13 8 10 5 -3 15 6 23 20
12 23 49 53 49 40 0 -3 -11 -22 -25 -42 -14 -20 -25 -49 -25 -63 0 -15 -5 -32
-11 -38 -5 -5 -10 -23 -9 -39 2 -64 5 -82 13 -77 12 7 8 -16 -9 -48 -24 -47
-9 -46 22 0 14 23 31 41 36 41 4 0 14 11 20 25 9 19 14 22 25 14 7 -6 13 -17
13 -23 0 -6 15 -21 33 -33 26 -17 42 -20 83 -16 50 5 174 -22 174 -39 0 -4 -9
-12 -20 -18 -24 -13 -26 -26 -5 -33 9 -4 25 10 45 39 26 40 28 45 10 39 -22
-7 -26 5 -8 23 21 21 18 40 -6 35 -16 -4 -10 6 24 37 38 35 41 41 20 35 -14
-4 -43 -19 -65 -34 -50 -34 -103 -56 -113 -46 -4 4 -1 10 6 12 7 3 31 21 55
40 23 20 62 45 87 57 61 29 110 67 110 85 0 11 -5 10 -22 -6 -46 -41 -63 -45
-92 -18 -27 25 -51 32 -58 17 -1 -4 -28 -25 -58 -46 -30 -22 -70 -53 -87 -70
-18 -16 -36 -27 -39 -23 -4 3 -13 -1 -21 -9 -17 -16 -34 -15 -41 4 -5 15 74
92 95 92 14 0 13 -3 -5 -20 -12 -11 -26 -20 -32 -20 -6 0 -8 -4 -5 -10 3 -5 1
-10 -5 -10 -16 0 -44 -30 -35 -38 3 -4 11 1 16 11 6 9 15 17 22 17 7 0 28 15
48 33 56 50 92 76 122 90 30 13 35 32 12 41 -8 3 -12 12 -9 21 11 28 -12 15
-45 -25 -27 -33 -37 -39 -64 -37 -23 2 -32 8 -31 20 2 14 -1 15 -12 6 -27 -22
-14 8 21 48 51 60 43 65 -14 9 l-49 -49 -13 41 c-10 36 -9 44 10 76 13 20 21
41 19 48 -2 6 -14 -5 -26 -26 -13 -22 -27 -34 -33 -30 -7 4 -20 -4 -30 -17
-28 -36 -23 -4 7 44 l27 42 -28 -25 c-15 -14 -34 -38 -42 -53 -14 -27 -15 -28
-33 -12 -10 9 -16 23 -14 30 6 16 -12 29 -21 15 -12 -19 -27 -10 -21 13 4 12
8 29 9 37 1 8 13 31 27 50 l25 35 -29 -22 c-15 -12 -46 -43 -68 -68 -22 -25
-43 -43 -48 -40 -4 2 -7 28 -7 57 0 39 6 62 23 87 13 19 21 37 17 40 -3 3 -7
2 -10 -4 -7 -20 -22 -39 -26 -35 -3 3 -7 28 -10 55 -7 62 -22 110 -42 142 -9
14 -14 27 -12 30 9 8 58 -84 64 -121 8 -51 22 -45 18 8 -4 59 -47 136 -93 164
-20 13 -64 47 -96 77 -71 64 -143 90 -281 101 -115 9 -126 9 -150 -1 -19 -9
-19 -8 -3 17 10 15 16 33 13 40 -3 7 4 31 15 52 19 39 18 68 -1 33 -13 -22
-32 -22 -53 2 -22 24 -14 39 30 57 23 10 32 19 28 29 -8 21 54 20 84 -1 13 -9
24 -14 25 -13 20 38 28 44 57 47 23 3 36 -2 43 -13 8 -15 13 -13 38 17 15 18
28 38 29 43 0 6 13 25 29 42 21 23 35 30 50 26 14 -4 21 -1 21 10 0 15 40 27
95 27 20 0 35 6 39 15 8 22 53 18 77 -6 11 -11 23 -18 26 -15 3 2 -6 16 -20
30 -29 29 -54 31 -107 11z m-196 -535 c73 -36 154 -116 186 -186 38 -80 39
-132 5 -191 -14 -23 -21 -43 -15 -43 5 0 17 18 26 40 9 23 19 38 23 35 3 -4 6
-40 6 -81 0 -52 -4 -74 -12 -74 -15 0 -17 -26 -3 -35 19 -12 11 -100 -13 -136
-25 -37 -40 -42 -181 -57 -63 -7 -96 -16 -117 -31 -38 -28 -49 -26 -49 7 0 15
-3 104 -5 197 -3 94 -7 264 -10 379 l-5 209 62 -7 c34 -3 80 -15 102 -26z"/>
<path d="M9892 7188 c22 -24 28 -39 25 -58 -5 -20 0 -29 23 -42 18 -10 31 -28
35 -48 l7 -32 60 6 c33 4 76 16 96 26 64 33 93 34 125 5 29 -28 36 -65 13 -65
-28 0 -26 -19 9 -60 42 -50 43 -64 10 -86 -14 -9 -25 -21 -25 -26 0 -6 12 -2
28 8 l27 18 -28 -37 -27 -36 27 -3 c25 -3 28 -7 29 -41 1 -21 -3 -40 -7 -43
-5 -3 -9 -12 -9 -21 0 -14 3 -14 20 2 12 10 18 25 16 32 -8 21 15 52 33 46 13
-5 14 -3 4 8 -7 7 -13 17 -13 21 0 14 47 9 60 -7 10 -12 9 -15 -6 -15 -17 0
-17 -1 2 -14 19 -15 62 -12 98 6 26 14 121 0 147 -21 22 -18 22 -18 3 -50
l-19 -33 28 -22 c34 -27 34 -31 -3 -46 -34 -14 -37 -26 -14 -58 20 -28 38 -29
31 0 -4 13 2 32 14 49 24 34 24 51 0 73 -16 15 -18 23 -9 47 8 25 7 34 -8 50
-40 45 -118 61 -164 34 -37 -21 -60 -18 -87 11 -21 23 -30 25 -63 20 -42 -7
-58 5 -35 24 23 19 18 45 -20 95 -29 37 -33 49 -25 65 20 38 12 68 -27 95 -41
27 -87 32 -112 12 -29 -24 -69 -37 -73 -25 -3 8 -12 6 -28 -5 -36 -25 -47 -21
-69 21 -11 21 -26 44 -34 50 -8 7 -20 33 -27 57 -11 39 -16 45 -40 45 l-28 0
30 -32z"/>
<path d="M9175 6888 c-24 -19 -31 -20 -59 -10 -18 7 -41 12 -52 12 -20 0 -98
-73 -106 -98 -2 -10 -11 -8 -31 8 -30 24 -42 23 -136 -4 -30 -8 -57 -20 -61
-27 -12 -18 1 -92 18 -111 14 -16 42 -25 42 -13 0 2 -9 22 -21 44 -27 53 -16
74 51 89 72 17 90 15 117 -9 18 -18 25 -20 37 -10 8 7 12 19 9 27 -3 8 0 14 7
14 6 0 8 -4 5 -10 -4 -6 5 -10 19 -10 24 0 25 2 14 26 -11 23 -10 29 11 45 29
24 38 24 79 -1 40 -24 39 -24 45 -1 2 10 18 24 36 32 17 8 31 17 31 21 0 15
-27 8 -55 -14z"/>
<path d="M10665 6457 c-32 -21 -55 -28 -49 -14 7 19 -56 14 -96 -8 -19 -10
-41 -21 -49 -25 -8 -3 -17 -13 -20 -21 -3 -11 -1 -12 11 -2 8 7 18 10 21 7 4
-4 21 4 39 18 48 36 59 41 53 26 -6 -14 -75 -67 -109 -83 -35 -17 -96 -60 -96
-67 0 -25 58 4 150 74 40 31 49 34 54 21 7 -18 -3 -32 -61 -90 -42 -40 -61
-71 -25 -41 9 8 35 23 57 33 22 10 34 20 28 22 -16 6 -17 23 -2 23 14 0 39 25
39 39 0 6 11 11 25 11 22 0 25 3 19 24 -5 20 -2 25 18 28 12 2 24 11 26 21 4
20 -7 22 -33 4z"/>
<path d="M9551 3677 c-1 -57 -29 -206 -49 -257 -3 -8 -6 -17 -6 -20 -1 -3 -7
-14 -14 -25 -9 -13 -15 -16 -18 -8 -3 8 -21 -6 -46 -34 -27 -31 -36 -49 -28
-51 7 -3 25 9 39 27 29 34 41 39 41 15 0 -8 -27 -41 -60 -73 -52 -51 -64 -71
-40 -71 4 0 33 20 64 45 32 25 67 45 77 45 10 0 20 4 23 9 3 5 18 12 33 16 15
3 31 12 35 18 5 8 11 8 16 2 4 -5 23 -18 42 -27 19 -10 59 -31 89 -48 53 -30
101 -39 101 -20 0 6 -12 10 -27 10 -15 0 -48 17 -79 40 -29 22 -60 40 -69 40
-9 0 -18 8 -21 18 -3 9 -12 31 -19 47 -12 26 -14 27 -14 8 -1 -30 -21 -40 -28
-14 -5 20 -6 21 -20 4 -12 -16 -13 -14 -9 22 10 71 8 269 -2 310 -9 39 -10 38
-11 -28z"/>
<path d="M12458 7933 c-248 -5 -193 -29 87 -39 161 -5 228 3 233 29 3 15 -6
17 -80 15 -46 -1 -154 -4 -240 -5z"/>
<path d="M12640 7221 c-66 -18 -245 -100 -236 -108 2 -3 15 0 28 6 20 10 20
10 4 -1 -10 -7 -47 -34 -81 -60 -62 -45 -79 -38 -26 10 19 18 21 21 6 14 -45
-23 -156 -161 -210 -261 -62 -115 -90 -203 -111 -341 -20 -136 -14 -259 18
-365 11 -38 21 -81 22 -95 2 -23 52 -128 121 -255 15 -27 53 -99 85 -160 67
-129 125 -238 150 -280 10 -16 37 -66 60 -110 23 -44 60 -113 82 -153 l40 -73
-17 -102 c-9 -56 -23 -109 -31 -118 -10 -12 -11 -18 -2 -27 9 -9 9 -23 1 -59
-20 -84 -24 -121 -13 -128 5 -3 10 -18 11 -33 0 -26 1 -26 11 -5 10 20 18 22
102 22 50 1 113 3 139 6 35 4 47 2 42 -6 -8 -12 14 -59 27 -59 5 0 6 9 3 20
-6 18 -4 19 19 9 14 -7 23 -15 21 -19 -3 -5 14 -10 38 -12 32 -3 45 0 54 13
10 14 20 15 49 9 20 -5 41 -15 46 -22 6 -9 8 -3 3 16 l-6 28 48 -7 c26 -4 49
-10 51 -13 2 -8 70 -6 250 4 62 4 109 11 105 15 -13 13 -135 14 -158 2 -11 -6
-54 -10 -95 -9 -66 2 -78 5 -104 29 l-29 27 31 0 c29 0 57 -19 30 -21 -7 0 -4
-4 7 -9 28 -12 164 -12 145 -1 -8 6 -26 7 -41 4 -15 -3 -30 0 -34 7 -5 8 8 11
47 9 29 0 90 2 135 6 69 7 80 10 68 22 -11 10 -37 12 -122 7 -151 -9 -167 -8
-187 15 -8 9 -25 87 -40 183 -14 91 -29 173 -32 181 -3 8 59 140 137 293 78
153 152 304 165 334 12 30 46 107 76 171 29 64 58 129 65 145 6 16 20 52 31
79 32 78 69 213 82 294 40 243 -83 563 -287 751 -37 34 -81 68 -98 75 -103 45
-124 55 -136 68 -8 7 -52 23 -99 35 -113 29 -359 31 -460 3z m475 -60 c134
-38 265 -104 265 -134 0 -7 -21 -17 -47 -23 -41 -10 -51 -9 -86 10 -22 12 -66
45 -99 74 -32 28 -62 52 -66 52 -11 -1 98 -97 147 -130 28 -19 39 -31 30 -34
-8 -3 -45 -14 -84 -25 -263 -75 -427 -127 -498 -157 l-82 -36 -20 28 c-41 56
-179 214 -187 214 -14 0 -9 -10 32 -54 53 -57 150 -179 150 -188 0 -17 -20 -5
-101 60 -47 37 -107 82 -133 100 -26 18 -44 36 -41 41 3 5 42 35 87 67 233
163 477 208 733 135z m350 -217 c25 -25 42 -50 39 -56 -3 -5 7 -24 23 -41 16
-18 36 -41 44 -52 13 -18 13 -19 -3 -6 -10 7 -18 10 -18 5 1 -12 30 -50 30
-40 0 5 7 3 15 -4 8 -7 12 -16 9 -22 -3 -5 -13 -4 -22 4 -13 11 -14 11 -7 -2
6 -8 10 -17 10 -20 1 -3 5 -16 9 -30 8 -24 9 -24 17 -5 5 15 8 16 8 4 1 -9 8
-30 16 -47 22 -43 32 -146 28 -281 -6 -209 -16 -239 -63 -182 -34 40 -131 234
-169 337 -26 70 -91 237 -124 318 -7 17 -22 49 -33 73 l-22 44 22 11 c24 13
103 36 129 37 9 1 37 -20 62 -45z m-245 -21 c0 -10 -7 -85 -15 -168 -17 -171
-19 -265 -6 -265 11 0 19 72 27 254 6 123 9 146 20 132 16 -22 111 -249 164
-390 22 -60 61 -147 86 -194 25 -46 44 -85 42 -87 -2 -2 -66 38 -143 89 -133
89 -185 117 -185 99 1 -4 42 -34 93 -66 215 -134 272 -173 275 -187 2 -10 -64
-48 -215 -124 -120 -60 -288 -151 -374 -203 -86 -51 -161 -93 -167 -93 -6 0
-31 31 -55 69 -25 38 -81 108 -126 157 -57 62 -77 90 -68 96 9 6 9 10 0 16
-15 9 -123 154 -123 164 0 5 8 8 18 8 16 1 16 2 0 13 -11 9 -13 18 -7 29 5 9
7 42 5 74 -5 60 14 131 67 259 48 117 76 134 362 229 94 31 199 67 235 80 79
30 90 31 90 9z m-900 -8 c6 -8 53 -44 103 -80 51 -36 103 -73 116 -84 l24 -18
-35 -59 c-37 -63 -88 -189 -108 -264 -41 -157 -29 -140 -178 -260 -82 -67
-139 -107 -145 -101 -5 5 -9 25 -10 45 -1 20 -4 36 -8 36 -32 0 -39 274 -9
350 9 25 20 61 24 80 11 60 65 191 117 283 41 70 55 87 74 87 12 0 28 -7 35
-15z m142 -773 c64 -96 126 -177 203 -267 33 -38 71 -85 84 -104 21 -30 22
-33 5 -27 -10 5 -41 16 -69 26 -27 10 -117 49 -200 88 -82 38 -179 81 -215 96
-36 15 -83 35 -104 45 l-39 17 71 55 c40 30 93 70 119 89 26 19 54 43 62 52 8
9 18 15 23 12 5 -3 31 -40 60 -82z m1148 -66 c0 -3 -17 -45 -39 -93 -21 -48
-49 -113 -62 -143 -13 -30 -43 -92 -66 -137 -55 -108 -132 -254 -142 -273 -4
-8 -15 -31 -24 -50 -78 -174 -193 -396 -215 -417 -15 -15 -20 -22 -13 -18 9 5
7 -3 -6 -21 -11 -16 -18 -35 -15 -43 3 -8 0 -11 -6 -7 -10 6 -41 -50 -76 -138
-12 -29 -20 -37 -33 -32 -15 5 -15 4 1 -9 12 -9 15 -15 7 -15 -7 0 -11 -6 -8
-13 3 -7 -2 -23 -12 -35 -15 -21 -16 -6 -16 226 0 215 3 251 18 279 9 18 17
36 17 40 -1 4 -8 -5 -16 -20 -8 -15 -19 -25 -25 -22 -11 7 -10 105 1 105 4 0
16 17 25 38 10 20 23 44 30 52 21 25 65 110 57 110 -4 0 -15 -12 -24 -28 -32
-51 -43 -66 -57 -81 -7 -8 -18 -28 -23 -44 -16 -45 -29 -14 -27 68 0 39 0 72
-1 75 -2 3 -4 59 -5 125 -3 98 0 123 12 138 9 9 20 17 24 17 4 0 43 22 86 48
43 27 128 75 188 107 61 32 115 62 122 67 7 5 16 7 22 4 5 -3 11 0 14 8 3 7
27 19 54 25 26 7 67 26 90 42 24 17 47 28 52 25 5 -3 14 1 21 9 7 8 19 15 26
15 8 0 14 5 14 10 0 6 7 10 15 10 8 0 15 -2 15 -4z m-1427 -107 c47 -24 334
-151 472 -209 172 -71 160 -61 162 -143 0 -40 8 -205 17 -367 9 -162 17 -356
17 -430 1 -74 5 -145 10 -157 5 -13 5 -23 1 -23 -13 0 -33 40 -26 52 4 6 3 8
-3 5 -6 -4 -13 0 -17 8 -3 8 -1 15 5 15 5 0 -4 20 -21 44 -16 25 -30 47 -30
51 0 3 -17 32 -38 63 -21 31 -42 64 -45 72 -4 8 -11 22 -17 30 -5 8 -45 78
-88 155 -43 77 -102 180 -130 229 -29 49 -52 90 -52 92 0 2 -15 27 -34 56 -27
43 -246 465 -246 475 0 8 26 1 63 -18z"/>
<path d="M12734 6701 c-96 -35 -151 -74 -177 -126 -78 -155 -75 -334 8 -459
65 -98 136 -136 256 -136 64 0 179 31 179 48 0 9 52 33 58 27 3 -3 0 -5 -6 -5
-7 0 -12 -5 -12 -11 0 -8 5 -8 15 1 11 9 12 16 5 25 -7 8 -7 15 -1 19 5 3 11
1 13 -6 6 -16 60 39 92 94 41 72 55 208 21 208 -9 0 -11 -14 -7 -50 3 -30 1
-50 -6 -50 -5 0 -22 -25 -38 -56 -47 -92 -95 -139 -167 -163 -34 -11 -75 -21
-92 -23 -18 -2 -29 -8 -27 -15 1 -10 -17 -13 -69 -13 -38 0 -68 4 -65 9 3 5
-9 15 -27 22 -39 16 -78 49 -71 60 2 4 0 10 -6 14 -5 3 -10 25 -9 48 l1 42 9
-35 c9 -31 21 -45 77 -91 31 -25 21 3 -16 48 -47 56 -82 126 -82 163 0 14 -7
35 -15 46 -8 10 -14 28 -15 39 0 15 3 16 9 7 5 -9 14 11 26 60 17 72 27 89
105 174 11 12 41 32 67 44 41 19 59 22 124 17 110 -7 177 -49 223 -139 11 -21
23 -38 28 -38 4 0 7 -3 6 -7 -3 -15 14 -83 22 -88 14 -9 21 27 8 43 -7 8 -12
23 -10 33 9 52 -94 175 -178 212 -64 29 -188 33 -256 8z"/>
<path d="M13825 5801 c3 -50 12 -106 21 -127 8 -20 13 -43 10 -50 -3 -8 -2
-14 2 -14 4 0 8 -19 9 -43 1 -23 7 -55 14 -72 7 -16 14 -41 15 -54 2 -13 9
-40 17 -60 8 -20 18 -57 21 -84 4 -26 11 -59 17 -74 5 -14 7 -28 4 -31 -2 -3
-1 -10 5 -16 9 -12 42 -156 43 -186 0 -32 -3 -41 -13 -35 -5 3 -10 1 -10 -5 0
-7 7 -10 15 -7 16 7 20 3 29 -35 3 -16 2 -28 -3 -28 -5 0 -14 12 -19 28 -19
51 -12 4 19 -124 17 -71 36 -132 42 -136 8 -5 8 -8 1 -8 -13 0 4 -101 19 -111
5 -4 6 -12 2 -19 -6 -9 -4 -11 5 -5 10 6 12 1 7 -24 -4 -18 -3 -30 2 -27 5 3
11 -7 14 -22 3 -15 8 -38 12 -52 4 -14 8 -32 9 -40 1 -8 15 -69 30 -135 15
-66 36 -163 48 -215 11 -52 33 -149 48 -215 16 -66 40 -172 54 -235 14 -64 51
-223 81 -355 49 -213 67 -278 90 -337 7 -17 -17 -18 -382 -18 -213 0 -395 -1
-403 -2 -8 -1 -56 0 -106 0 l-92 2 -11 68 c-6 37 -16 87 -21 112 -26 122 -40
201 -45 265 -4 38 -8 72 -10 75 -3 5 -13 69 -20 130 -4 35 -34 188 -45 231 -6
20 -10 55 -10 77 0 44 -13 60 -34 43 -9 -8 -57 -8 -167 -1 -84 6 -172 10 -194
9 -23 -2 -46 1 -52 4 -6 4 -23 2 -38 -5 -18 -8 -29 -9 -33 -1 -4 5 -20 13 -36
17 -32 8 -156 -2 -156 -13 0 -4 18 -5 41 -3 22 3 46 -1 52 -7 8 -8 -4 -11 -45
-11 -31 0 -60 5 -64 11 -3 6 -16 8 -28 4 -65 -19 -146 -26 -146 -13 0 6 -6 3
-14 -7 -8 -11 -12 -24 -9 -29 3 -4 1 -11 -4 -15 -5 -3 -22 -51 -38 -106 -15
-55 -38 -128 -51 -162 -13 -35 -42 -138 -64 -230 -22 -93 -43 -176 -46 -185
-3 -10 -1 -18 3 -18 5 0 19 39 31 87 12 48 25 89 27 92 13 12 13 -10 1 -60
-27 -103 -38 -154 -40 -181 0 -14 -5 -24 -10 -20 -5 3 -6 -3 -2 -14 4 -10 2
-49 -5 -86 l-12 -68 -66 0 c-92 0 -242 18 -258 32 -10 8 -13 7 -13 -2 0 -8 -4
-9 -12 -3 -7 5 -147 8 -310 7 -164 0 -298 1 -298 3 0 2 15 67 34 146 61 251
68 281 85 363 10 44 20 85 24 90 3 5 8 28 11 49 3 22 15 76 27 120 12 44 23
96 24 115 2 19 8 63 14 98 6 34 16 90 21 125 6 34 15 78 20 97 27 100 52 220
55 255 1 22 3 45 4 52 0 6 10 9 21 6 15 -4 20 0 21 13 0 11 3 28 5 39 3 11 7
36 10 55 2 19 11 59 18 87 9 35 11 55 4 59 -7 4 -6 9 1 13 13 8 31 98 24 118
-3 7 0 13 6 13 6 0 8 7 5 15 -4 8 -1 15 6 15 10 0 10 3 0 15 -10 12 -9 15 5
15 15 0 15 3 5 15 -11 13 -10 18 6 30 15 11 16 14 4 15 -11 0 -12 2 -3 8 7 4
15 26 19 47 3 22 10 45 16 52 5 7 8 18 5 25 -2 7 0 27 5 43 8 29 18 75 22 105
1 8 5 22 8 30 7 18 87 381 94 425 3 17 7 48 9 70 2 22 6 63 10 90 4 40 3 45
-5 26 -16 -36 -84 -320 -129 -536 -22 -104 -51 -233 -65 -285 -15 -52 -31
-119 -37 -147 -7 -29 -16 -53 -20 -53 -5 0 -9 5 -9 10 0 6 -4 10 -9 10 -5 0
-9 -12 -9 -27 0 -16 -1 -35 -3 -43 -2 -8 2 -14 9 -12 6 1 12 -2 12 -8 0 -5 -9
-10 -21 -10 -15 0 -19 -5 -15 -15 3 -8 0 -27 -6 -41 -10 -21 -9 -27 3 -35 9
-6 10 -12 4 -16 -5 -5 -11 -24 -13 -43 -1 -19 -10 -67 -19 -107 -13 -56 -19
-70 -32 -66 -13 4 -13 3 -2 -5 14 -10 3 -73 -44 -262 -7 -30 -19 -82 -25 -115
-6 -33 -16 -73 -21 -90 -5 -16 -16 -65 -25 -107 -9 -43 -21 -78 -26 -78 -6 0
-7 8 -3 18 4 9 14 50 21 91 8 41 20 95 28 120 13 43 23 91 60 281 8 41 18 114
21 163 4 48 11 87 16 87 5 0 9 -8 9 -17 0 -9 3 -14 6 -10 3 3 3 14 0 25 -8 24
-45 19 -44 -6 2 -52 -15 -172 -38 -277 -14 -66 -30 -138 -35 -160 -13 -63 -58
-193 -55 -160 2 17 5 37 9 45 6 17 27 113 32 148 2 13 8 28 14 35 5 7 12 35
15 62 4 28 13 82 21 120 8 39 16 116 18 173 3 86 1 104 -12 112 -10 6 -11 10
-3 10 6 0 12 12 12 28 0 15 7 56 16 92 14 64 21 97 23 113 1 4 9 7 19 8 11 0
12 2 4 6 -10 4 -10 8 2 17 16 11 39 104 30 118 -3 5 1 8 8 8 10 0 10 2 -1 9
-17 11 -5 104 35 265 13 55 28 125 34 155 5 31 20 119 34 196 31 177 34 207
19 212 -14 5 -12 13 -73 -257 -63 -281 -57 -252 -76 -399 -8 -69 -17 -128 -19
-132 -3 -4 -11 -35 -19 -70 -18 -84 -94 -386 -106 -424 -5 -16 -19 -77 -30
-135 -12 -58 -41 -186 -64 -285 -24 -99 -53 -227 -66 -285 -12 -58 -35 -153
-51 -212 -17 -60 -36 -145 -44 -190 -8 -46 -21 -117 -30 -158 -11 -49 -15 -98
-12 -141 6 -66 -12 -146 -34 -160 -6 -3 -3 -11 5 -19 13 -10 16 -10 20 1 2 8
10 34 17 58 l13 45 11 -55 c6 -30 17 -64 23 -76 7 -12 12 -30 12 -40 0 -34 34
-100 60 -115 19 -11 40 -13 85 -7 33 4 103 8 155 8 65 1 90 4 80 11 -10 7 17
10 87 10 57 0 105 -4 108 -10 4 -6 85 -8 229 -4 211 6 223 5 231 -12 6 -18 8
-17 16 4 7 20 13 22 49 16 27 -4 40 -3 40 5 0 6 -13 11 -30 11 -35 0 -34 -6
-14 80 l17 68 96 -4 c53 -2 122 -9 153 -15 65 -13 295 -7 343 10 23 8 -1 10
-102 8 -73 0 -136 2 -139 6 -4 4 18 7 49 7 31 0 57 4 57 9 0 6 -34 8 -82 5
-102 -5 -158 -6 -270 -5 l-88 1 0 30 c0 33 -8 33 97 10 58 -13 397 -4 563 14
19 2 91 8 160 13 l125 8 -80 5 c-44 3 -111 1 -150 -3 -108 -12 -566 -18 -600
-8 -20 6 46 10 205 11 129 1 250 2 268 2 18 0 35 5 38 9 3 5 -113 9 -263 9
-177 0 -263 4 -253 10 8 5 65 10 125 11 61 1 99 4 85 7 -42 8 6 19 54 13 23
-3 120 -4 216 -1 174 5 174 5 80 13 -135 10 -562 18 -556 9 8 -13 -22 -44 -35
-36 -7 4 -10 3 -5 -4 8 -14 -8 -24 -28 -16 -19 7 -22 44 -3 44 9 0 9 2 0 8
-13 8 -3 105 17 158 6 14 8 30 5 34 -3 5 1 25 9 45 8 19 15 38 15 40 -3 24 15
182 21 190 4 6 15 49 25 97 l18 88 51 -4 c28 -2 180 -4 337 -5 l286 -1 8 -42
c4 -24 9 -59 11 -78 5 -44 22 -110 23 -90 1 13 2 13 11 0 13 -20 13 -53 0 -45
-5 3 -10 2 -10 -4 0 -5 6 -12 13 -14 9 -4 9 -8 -2 -15 -9 -6 -11 -17 -6 -28
10 -27 43 -186 51 -252 9 -75 16 -93 64 -153 32 -40 38 -54 29 -65 -7 -9 -8
-14 -1 -14 6 0 34 -24 62 -52 48 -48 52 -50 46 -25 -4 16 -2 27 4 27 5 0 10
-15 10 -34 0 -19 3 -41 6 -50 5 -12 -1 -16 -24 -16 -44 0 -48 -16 -4 -17 20
-1 270 -4 555 -6 285 -2 521 -7 524 -11 4 -3 19 -43 34 -89 24 -68 27 -74 23
-37 -3 25 -10 49 -15 54 -5 6 -9 30 -9 55 0 24 -5 58 -10 75 -6 17 -26 94 -45
171 -18 77 -45 185 -60 240 -14 55 -30 131 -36 170 -6 38 -24 122 -40 185 -48
192 -72 312 -77 378 -2 34 -8 62 -14 62 -6 0 -8 13 -4 33 4 20 3 27 -3 18 -11
-17 -19 -3 -25 45 -3 21 -12 64 -20 95 -19 73 -30 172 -16 144 8 -16 9 -13 4
15 -10 62 -15 74 -25 59 -6 -10 -9 -8 -9 9 0 12 4 22 8 22 9 0 -14 115 -29
142 -5 10 -9 29 -9 42 0 14 -5 28 -10 31 -7 4 -6 13 1 27 8 16 8 19 -1 13 -8
-5 -11 -3 -8 6 3 8 0 28 -7 44 -6 17 -10 36 -8 43 3 6 -1 12 -7 12 -7 0 -10 7
-7 15 4 8 2 17 -4 21 -6 3 -8 12 -5 20 3 7 1 16 -4 19 -5 3 -9 13 -9 23 0 9
-5 37 -11 61 -6 24 -12 55 -14 70 -12 84 -44 217 -118 496 -19 72 -43 161 -52
200 -9 38 -22 73 -29 77 -9 6 -9 8 0 8 7 0 10 7 7 15 -15 39 -23 7 -19 -74z
m-455 -2517 c0 -14 7 -52 15 -84 8 -31 16 -75 18 -97 2 -22 6 -44 9 -49 11
-21 30 -104 26 -116 -3 -8 -11 0 -21 19 -9 17 -36 52 -59 78 -48 52 -94 125
-80 125 6 0 12 -7 16 -15 3 -8 12 -15 19 -15 11 0 13 12 11 45 -2 25 1 45 6
45 6 0 11 -10 12 -22 0 -13 2 -27 3 -33 12 -75 20 -103 32 -120 15 -19 15 -19
8 5 -3 14 -9 59 -12 100 -3 41 -9 80 -12 85 -12 17 -13 75 -2 75 6 0 11 -12
11 -26z"/>
<path d="M6330 3113 c-39 -14 -158 -164 -152 -192 2 -9 1 -13 -4 -9 -10 11
-34 -11 -28 -25 3 -8 23 -11 52 -10 43 2 44 2 14 -6 -43 -11 -65 -31 -35 -31
40 0 83 13 83 25 0 12 48 40 63 36 5 -1 6 3 2 9 -4 6 8 10 32 9 21 -1 29 -3
18 -6 -11 -3 -25 -11 -30 -18 -6 -7 -22 -15 -35 -17 -13 -1 -25 -9 -28 -17 -4
-11 8 -12 64 -6 74 7 106 21 53 23 -43 1 -64 22 -23 22 38 0 47 8 30 25 -9 9
-38 13 -94 11 -83 -3 -124 6 -80 17 13 4 124 10 247 13 232 7 285 24 77 24
-66 0 -116 3 -112 7 8 8 30 10 149 12 56 1 86 5 82 11 -3 6 -40 10 -81 10 -43
0 -74 4 -74 10 0 10 34 15 82 12 15 -1 30 3 33 8 6 10 -4 11 -152 14 -100 1
-123 16 -27 17 38 1 83 5 99 9 24 6 17 8 -35 10 -36 2 -90 4 -120 5 -30 2 -62
1 -70 -2z"/>
<path d="M15928 2882 c-31 -13 -4 -31 62 -41 82 -14 577 -15 585 -2 3 6 -4 8
-17 6 -12 -3 -30 3 -40 12 -17 15 -18 15 -13 1 5 -13 2 -15 -14 -11 -12 3 -21
9 -21 14 0 5 -12 6 -27 2 -35 -8 -257 -7 -300 2 -18 4 -33 11 -33 16 0 10
-157 11 -182 1z"/>
<path d="M12515 2868 c-16 -4 -69 -8 -117 -9 -49 0 -88 -5 -88 -10 0 -5 14 -9
30 -9 17 0 30 -5 30 -11 0 -9 63 -10 238 -6 274 8 332 13 332 34 0 11 -8 13
-32 8 -18 -4 -80 -9 -138 -12 -95 -5 -103 -4 -91 11 11 14 11 16 -3 16 -9 0
-16 -7 -16 -16 0 -11 -5 -14 -17 -9 -10 4 -34 8 -53 8 -19 0 -37 3 -40 7 -3 4
-18 3 -35 -2z"/>
</g>
</svg>
