<?xml version="1.0" standalone="no"?>
<!DOCTYPE svg PUBLIC "-//W3C//DTD SVG 20010904//EN"
 "http://www.w3.org/TR/2001/REC-SVG-20010904/DTD/svg10.dtd">
<svg version="1.0" xmlns="http://www.w3.org/2000/svg"
 width="1928.000000pt" height="1074.000000pt" viewBox="0 0 1928.000000 1074.000000"
 preserveAspectRatio="xMidYMid meet">
<metadata>
Created by potrace 1.16, written by Peter Selinger 2001-2019
</metadata>
<g transform="translate(0.000000,1074.000000) scale(0.100000,-0.100000)"
fill="#000000" stroke="none">
<path d="M14550 8025 c0 -4 11 -23 25 -41 33 -43 32 -52 -7 -57 -31 -4 -31 -4
6 -5 36 -2 38 -3 33 -29 -9 -47 -18 -1052 -20 -2213 -1 -608 -5 -1110 -10
-1117 -4 -6 -4 -14 1 -17 4 -2 9 -69 11 -147 2 -109 -1 -144 -11 -150 -8 -5
-8 -9 -2 -9 15 0 18 -124 4 -149 -6 -13 -7 -22 0 -26 5 -3 9 -66 9 -148 0 -78
0 -281 1 -451 1 -242 -2 -311 -12 -317 -9 -6 -3 -16 22 -39 31 -28 33 -32 18
-41 -21 -11 -24 -30 -5 -26 6 1 11 -6 9 -15 -2 -10 1 -18 6 -18 18 0 114 -98
108 -109 -5 -7 2 -11 17 -11 17 0 30 -11 48 -42 38 -67 47 -99 48 -160 1 -32
5 -58 10 -58 5 0 9 20 9 45 0 50 19 118 31 110 5 -2 72 -5 150 -6 77 0 141 -5
141 -10 0 -9 344 -2 370 8 16 6 163 12 345 13 77 0 106 3 95 10 -8 6 -33 10
-55 9 -66 -2 -75 0 -92 21 -21 24 -33 26 -33 5 0 -8 -9 -15 -20 -15 -11 0 -20
5 -20 10 0 6 5 10 10 10 6 0 10 32 10 75 l0 75 38 0 c20 0 66 -4 102 -9 87
-12 266 -25 260 -18 -3 3 -34 8 -70 11 -103 10 -139 17 -146 27 -4 6 20 8 63
5 37 -3 133 -6 213 -6 80 -1 164 -5 188 -10 42 -7 43 -7 25 12 -36 40 -72 49
-221 58 -81 5 -199 10 -262 10 -63 0 -132 3 -152 6 l-36 6 -1 532 c-1 292 -3
662 -6 821 l-5 290 21 -55 c11 -30 47 -118 79 -195 32 -77 62 -153 66 -170 4
-16 15 -46 24 -65 17 -34 109 -279 151 -405 12 -33 41 -112 66 -175 25 -63 47
-129 48 -147 2 -17 17 -60 33 -95 38 -80 105 -259 99 -265 -3 -2 -23 15 -46
39 -22 24 -41 38 -41 32 0 -5 13 -23 30 -39 19 -18 26 -32 21 -39 -6 -7 1 -12
22 -13 18 -1 37 -10 42 -19 6 -9 22 -31 37 -49 15 -18 24 -36 20 -40 -4 -5 -1
-5 6 -1 8 5 29 -7 55 -31 23 -21 75 -67 115 -103 39 -36 72 -68 72 -72 0 -5
-27 -8 -60 -8 -33 0 -60 -4 -60 -10 0 -12 5 -13 90 -14 l64 -1 37 -76 c21 -43
42 -80 48 -84 13 -7 2 24 -29 84 -24 48 -25 61 -5 61 8 0 33 -25 56 -55 23
-30 46 -55 51 -55 11 0 -23 50 -47 70 -34 29 -13 31 178 23 105 -4 218 -7 250
-6 l57 2 0 -59 c0 -80 18 -77 22 3 l3 62 37 -3 c23 -2 43 2 52 11 9 9 40 15
85 16 l71 2 1 -68 c1 -37 1 -75 0 -85 -1 -9 3 -19 9 -23 7 -4 10 24 10 84 l0
91 38 2 c20 0 51 1 69 2 38 1 56 15 22 17 -13 1 -33 3 -44 4 -11 1 -33 2 -49
3 l-28 2 6 61 c10 93 17 1239 8 1239 -4 0 -9 -46 -9 -102 -1 -57 -2 -141 -4
-188 l-2 -85 -6 60 c-4 33 -6 85 -5 115 1 30 2 97 3 148 0 59 5 91 11 87 6 -3
10 -2 10 4 0 5 -3 12 -7 14 -12 7 -7 205 5 259 14 60 21 746 9 943 -8 141 -19
915 -14 1035 1 30 1 315 0 632 l-3 577 30 -6 c17 -3 30 -1 30 5 0 5 -13 12
-30 16 -17 3 -30 12 -30 20 0 8 -10 18 -21 21 -12 4 -62 44 -113 90 -143 129
-245 209 -255 200 -9 -9 24 -59 58 -90 19 -16 42 -37 50 -46 9 -9 36 -30 61
-46 25 -17 65 -52 89 -77 25 -25 48 -41 51 -36 4 6 14 1 26 -11 11 -14 13 -19
4 -14 -8 5 -35 10 -60 11 -25 1 -103 4 -175 8 -71 4 -261 2 -422 -4 l-292 -11
-130 132 c-72 73 -131 133 -131 134 0 1 172 -1 381 -3 281 -3 394 -1 425 8 24
7 44 16 44 21 0 4 -37 10 -82 12 -106 6 -640 -2 -737 -11 l-75 -7 -1 -45 c-1
-25 -6 -101 -11 -170 -10 -133 -10 -168 -3 -837 2 -238 1 -433 -3 -433 -3 0
-9 6 -12 13 -3 6 -4 -17 -2 -52 5 -78 -1 -70 -53 76 -21 59 -61 164 -89 233
-28 69 -65 166 -82 215 -18 50 -60 158 -94 240 -103 247 -108 258 -123 300 -8
22 -27 66 -43 99 l-29 58 26 -7 c23 -5 25 -4 14 9 -8 9 -21 16 -30 16 -9 0
-32 21 -51 46 -19 25 -48 61 -63 79 -16 19 -26 39 -22 45 3 5 1 10 -6 10 -13
0 -88 80 -89 94 0 14 -52 66 -64 66 -6 0 -5 -5 2 -12 7 -7 12 -19 13 -27 1
-39 198 -291 227 -291 6 0 12 -4 12 -8 0 -11 -708 -3 -743 8 -17 6 -26 6 -22
0 4 -6 -19 -10 -57 -10 l-64 0 -36 48 c-20 26 -47 65 -60 88 -25 44 -66 95
-85 107 -7 5 4 -18 25 -50 35 -53 56 -93 48 -93 -1 0 -17 21 -34 48 -16 26
-44 60 -61 76 -32 31 -46 71 -16 46 10 -8 19 -10 25 -4 6 6 58 6 127 2 220
-13 712 -14 702 -2 -13 16 -153 23 -553 30 l-328 5 -35 42 c-45 53 -43 52 -43
42z m2062 -451 c2 -42 -12 -247 -17 -253 -11 -10 -25 15 -25 44 0 19 -4 36 -9
39 -5 3 -8 -13 -7 -37 1 -34 -2 -42 -16 -41 -11 1 -18 -5 -18 -17 0 -11 6 -18
13 -17 9 2 12 -20 12 -85 -1 -116 19 -110 23 7 2 63 6 86 15 83 9 -3 13 -55
15 -190 2 -162 0 -187 -13 -187 -8 0 -15 -4 -15 -10 0 -5 7 -10 15 -10 18 0
22 -65 15 -252 -5 -123 -11 -161 -25 -147 -2 3 -5 33 -6 67 -3 82 -17 90 -18
11 0 -34 -5 -67 -10 -72 -8 -8 -11 -1 -11 22 0 19 -7 39 -15 45 -8 6 -17 26
-19 44 -2 19 -9 39 -15 45 -13 12 -12 4 3 -113 5 -34 4 -40 -4 -25 -12 24 -32
80 -29 80 1 0 -3 11 -10 24 -8 14 -9 21 -2 17 12 -8 15 6 5 17 -4 3 -8 28 -10
54 -1 26 -5 78 -8 116 -4 41 -2 67 4 67 6 0 10 5 10 12 0 6 -8 4 -19 -6 -16
-15 -18 -30 -17 -117 2 -62 -1 -96 -7 -90 -5 5 -11 43 -12 83 -2 40 -6 96 -9
125 -4 30 -3 54 3 57 5 3 8 18 5 34 -2 15 -5 199 -8 410 -3 210 -8 387 -11
392 -4 6 -3 19 0 30 6 18 23 4 126 -98 109 -109 119 -123 121 -158z m-1757 19
c-5 -10 -7 -22 -6 -27 2 -10 2 -60 -5 -2064 -5 -1517 -6 -1601 -24 -1612 -9
-6 -9 -13 -1 -28 19 -35 14 -46 -14 -28 -13 9 -26 16 -29 16 -3 0 -3 -35 0
-77 2 -43 0 -109 -4 -146 -5 -38 -5 -70 0 -73 5 -3 7 -13 4 -22 -7 -22 -7 -90
-3 -222 3 -74 1 -96 -5 -75 -5 17 -11 59 -12 95 -11 225 -18 355 -22 359 -2 2
1 12 7 23 7 14 7 23 -1 33 -8 10 -8 15 1 20 7 5 8 10 1 14 -5 3 -13 30 -16 59
-3 33 -2 51 4 47 6 -3 10 1 10 9 0 9 -6 16 -12 16 -9 0 -9 3 1 9 11 7 12 13 4
23 -12 14 -13 17 -13 49 0 11 -4 18 -8 15 -9 -5 -8 -179 2 -410 10 -221 -5
-150 -21 101 -15 236 -19 474 -8 523 3 15 2 31 -4 34 -6 4 -8 13 -5 20 3 8 0
17 -6 21 -9 6 -9 9 0 15 7 5 14 21 16 37 2 15 6 48 10 72 5 36 4 43 -8 38 -12
-4 -14 5 -13 46 1 29 3 52 4 52 1 0 3 17 5 38 2 20 0 37 -4 37 -6 0 -5 140 3
242 4 54 3 56 -18 48 -14 -5 -22 -4 -23 3 -4 46 -3 99 2 104 5 6 10 -36 9 -74
-1 -7 4 -13 9 -13 13 0 2 74 -15 102 -10 17 -13 67 -13 195 1 95 -1 173 -4
173 -9 0 -4 1288 5 1450 11 191 12 654 3 813 -5 73 -4 117 2 117 6 0 31 -28
56 -62 25 -35 49 -65 54 -68 28 -19 34 -62 36 -235 3 -231 3 -225 12 -225 5 0
9 95 9 211 l1 211 -86 106 -86 107 113 -112 c92 -90 112 -115 106 -130z m348
17 c8 -7 -113 -20 -206 -22 -26 0 -50 -5 -54 -11 -6 -10 136 -5 332 12 104 9
428 25 469 23 10 -1 22 -5 26 -9 9 -10 30 -96 25 -101 -2 -2 -18 16 -36 42
-44 62 -50 49 -9 -16 59 -93 107 -190 165 -333 32 -77 61 -144 65 -150 4 -5
20 -44 35 -85 59 -160 69 -187 96 -247 16 -34 31 -75 35 -90 4 -15 11 -34 17
-40 5 -7 7 -13 3 -13 -4 0 3 -19 15 -41 11 -23 50 -130 86 -238 36 -108 78
-227 93 -266 16 -38 45 -122 65 -185 37 -119 75 -217 119 -307 15 -29 26 -55
26 -59 0 -3 14 -33 30 -68 32 -65 84 -135 94 -125 3 3 -6 41 -20 85 -24 70
-27 98 -29 239 -2 88 -4 165 -5 170 -1 6 -1 15 0 20 2 12 -1 277 -4 323 -1 17
1 32 6 32 4 0 3 12 -3 26 -5 15 -7 45 -4 68 11 79 15 234 19 771 3 297 5 550
5 563 l1 22 163 -2 c89 -1 235 1 323 6 l161 8 6 -33 c6 -37 12 -1384 10 -2309
-3 -1450 -2 -2033 2 -2040 2 -3 6 -102 9 -219 l5 -213 -37 5 c-20 4 -145 7
-277 8 -132 1 -246 4 -252 6 -15 6 -18 53 -3 53 18 0 10 16 -14 30 -22 11 -44
56 -33 67 3 2 22 -3 42 -11 50 -21 72 -21 55 -1 -7 8 -16 13 -20 10 -5 -3 -11
-1 -15 4 -3 6 -12 8 -20 4 -8 -3 -15 -1 -15 4 0 5 -10 9 -22 9 -17 -1 -22 4
-20 18 2 10 -1 15 -6 12 -9 -5 -20 16 -28 54 -3 15 -63 183 -83 233 -6 16 -11
33 -11 38 0 5 -11 27 -25 49 -14 22 -25 46 -25 53 0 7 -4 17 -8 22 -5 6 -26
60 -46 120 -20 61 -41 119 -45 130 -5 11 -17 43 -26 70 -29 85 -98 258 -117
293 -10 18 -16 37 -13 43 4 5 -1 9 -9 9 -9 0 -16 4 -16 10 0 5 7 7 15 4 13 -5
13 -1 -1 32 -9 22 -21 45 -26 52 -6 7 -8 15 -4 19 3 3 -1 15 -11 25 -9 10 -13
18 -9 18 3 0 -1 15 -11 33 -10 17 -18 41 -20 52 -1 11 -18 56 -38 100 -53 116
-51 111 -91 223 -20 56 -40 105 -45 108 -5 3 -9 12 -9 20 0 15 -74 217 -140
383 -22 57 -39 110 -36 117 3 8 1 14 -5 14 -5 0 -9 6 -8 13 1 6 0 23 -1 37 -2
18 -4 20 -7 8 -2 -10 -8 -18 -12 -18 -12 0 -31 23 -31 39 0 9 -12 21 -25 28
l-26 11 23 -36 c12 -20 26 -38 30 -40 4 -2 8 -11 8 -19 0 -13 -3 -13 -15 -3
-23 19 -29 5 -10 -24 14 -22 16 -42 11 -128 -4 -57 -7 -107 -7 -113 0 -5 0
-318 1 -695 1 -882 -4 -1392 -13 -1407 -4 -6 -3 -22 2 -35 5 -13 10 -48 12
-77 l4 -53 -180 1 c-99 0 -293 1 -431 1 l-251 0 -7 43 c-4 23 -6 587 -4 1252
2 666 1 1631 -1 2145 -2 515 0 1015 4 1112 7 166 8 177 29 187 13 7 14 10 3 6
-19 -5 -33 16 -24 39 5 11 33 13 154 9 81 -3 152 -9 156 -13z m2309 -1217 c-1
-53 -6 -99 -11 -102 -4 -3 -16 -19 -25 -36 -11 -20 -15 -23 -11 -8 3 12 1 24
-5 28 -5 3 -10 1 -10 -4 0 -6 -4 -11 -10 -11 -5 0 -10 5 -10 11 0 6 -7 17 -15
26 -12 12 -15 33 -13 92 3 68 5 76 23 76 19 0 20 -5 16 -87 -3 -76 -1 -88 13
-88 13 0 16 14 16 85 0 67 3 87 15 91 8 4 15 13 15 22 0 8 3 12 7 8 4 -3 6
-50 5 -103z m8 -244 c0 -10 -5 -19 -11 -19 -5 0 -8 4 -4 9 3 5 1 12 -5 16 -5
3 -10 -3 -10 -14 0 -13 7 -21 16 -21 13 0 15 -6 8 -27 -4 -16 -6 -50 -4 -78 4
-73 4 -136 0 -171 -4 -28 -6 -30 -22 -20 -22 13 -23 26 -3 26 9 0 12 6 8 17
-4 11 -8 12 -11 5 -19 -59 -31 92 -13 171 5 20 5 37 0 37 -4 0 -6 17 -3 38 6
55 54 82 54 31z m94 -584 c4 -77 9 -168 12 -202 3 -35 1 -70 -5 -80 -8 -14
-10 -4 -11 42 0 104 -12 199 -22 181 -5 -9 -17 -16 -28 -16 -16 0 -19 10 -22
81 -2 45 0 86 3 91 4 6 16 7 29 3 18 -6 21 -3 18 12 -2 10 -9 19 -16 19 -6 1
-17 2 -23 3 -5 0 -7 6 -4 11 4 6 15 8 26 5 12 -4 19 -2 19 7 1 9 3 9 9 -2 5
-8 12 -78 15 -155z m-134 -666 c0 -6 7 -9 15 -5 8 3 15 0 15 -6 0 -6 8 -17 18
-25 15 -13 16 -14 0 -9 -14 4 -17 -4 -20 -52 -2 -31 0 -78 3 -104 3 -28 1 -52
-5 -59 -8 -9 -8 -10 2 -5 7 4 15 0 19 -11 4 -10 10 -21 15 -24 5 -3 6 -13 2
-23 -6 -16 -7 -15 -19 1 -7 9 -11 23 -8 30 3 7 0 13 -6 13 -6 0 -11 -7 -11
-15 0 -8 -4 -15 -10 -15 -5 0 -10 -9 -10 -20 0 -11 -4 -20 -8 -20 -5 0 -8 18
-8 40 0 29 4 40 16 40 13 0 13 1 0 10 -12 7 -15 35 -15 140 0 71 3 130 7 130
5 0 8 -5 8 -11z m-1305 -730 c-3 -9 1 -19 9 -22 16 -6 58 -92 70 -142 4 -16
25 -67 47 -113 22 -45 37 -87 34 -92 -3 -6 -1 -10 5 -10 7 0 10 -7 6 -15 -3
-8 -1 -15 4 -15 6 0 10 -9 10 -21 0 -11 4 -17 10 -14 6 3 7 -1 4 -9 -3 -9 -2
-16 3 -16 12 0 47 -104 41 -121 -3 -8 1 -22 9 -31 8 -9 13 -27 11 -40 -3 -20
-6 -17 -25 22 -11 25 -29 63 -38 85 -10 22 -26 58 -36 80 -10 22 -31 76 -47
120 -17 44 -43 114 -60 155 -43 106 -45 114 -43 124 1 5 -2 12 -7 15 -7 5 -42
84 -42 96 0 3 9 0 20 -7 12 -8 18 -19 15 -29z m1317 -108 c-4 -20 -2 -23 12
-18 12 5 20 -1 28 -21 6 -15 12 -22 15 -14 3 6 11 12 19 12 12 0 14 -16 13
-80 -1 -80 -7 -91 -39 -71 -10 7 -14 26 -12 65 1 42 -2 56 -13 56 -10 0 -14
-20 -17 -80 -3 -80 2 -95 21 -62 9 14 10 13 11 -10 0 -21 -4 -26 -17 -21 -11
4 -14 3 -9 -5 8 -13 4 -15 -17 -6 -11 4 -15 28 -16 105 -1 64 2 98 8 95 5 -4
9 3 8 14 -1 11 -4 20 -7 20 -3 0 -6 26 -7 58 l-1 57 13 -35 c7 -19 11 -46 7
-59z m-2842 -201 c0 -19 1 -156 0 -305 0 -268 4 -362 16 -420 6 -30 6 -30 -14
-12 -11 11 -21 26 -21 35 -6 393 -7 694 -3 720 6 42 21 29 22 -18z"/>
<path d="M16747 7316 c-11 -12 -14 -38 -12 -113 2 -94 3 -98 25 -101 37 -6
108 8 112 21 3 7 2 55 -1 107 l-6 95 -52 3 c-35 2 -56 -2 -66 -12z"/>
<path d="M16943 7324 c-9 -4 -13 -36 -13 -109 0 -118 3 -123 86 -110 41 6 44
8 45 38 2 62 -2 171 -6 176 -7 7 -99 11 -112 5z"/>
<path d="M16753 6924 c-9 -4 -13 -37 -13 -114 0 -123 3 -128 81 -115 l40 7 -3
111 -3 112 -45 2 c-25 1 -51 0 -57 -3z"/>
<path d="M17136 6922 c-3 -4 -6 -55 -7 -113 l-2 -104 36 -6 c19 -3 47 -1 62 5
26 11 27 12 27 110 0 71 -4 101 -14 107 -17 11 -95 12 -102 1z"/>
<path d="M17143 6503 c-15 -6 -19 -213 -4 -213 5 0 17 -3 27 -7 13 -5 15 -3 9
7 -4 7 -9 53 -9 101 l-1 89 34 0 34 0 -7 -89 c-5 -63 -3 -92 5 -97 20 -12 29
20 29 112 0 87 -1 92 -22 98 -27 7 -78 7 -95 -1z"/>
<path d="M16742 6388 l3 -113 29 -3 c16 -2 44 -1 63 3 l33 6 0 109 0 110 -65
0 -66 0 3 -112z"/>
<path d="M16744 5685 c-3 -11 -4 -63 -2 -115 l3 -95 60 0 60 0 3 112 3 111
-38 5 c-62 9 -83 4 -89 -18z"/>
<path d="M16958 5703 l-28 -4 0 -109 0 -109 44 -6 c78 -12 86 -1 86 120 0 93
-2 105 -17 105 -10 0 -27 2 -38 4 -11 2 -32 1 -47 -1z m82 -118 l0 -95 -45 0
-45 0 0 88 c0 49 3 92 7 95 3 4 24 7 45 7 l38 0 0 -95z"/>
<path d="M17154 5703 c-20 -4 -22 -12 -27 -106 -4 -86 -2 -104 11 -114 17 -14
80 -17 99 -5 11 7 23 206 12 216 -8 7 -74 13 -95 9z m76 -113 l0 -100 -40 0
-40 0 0 84 c0 107 4 116 46 116 l34 0 0 -100z"/>
<path d="M16765 5273 c-11 -3 -23 -8 -28 -12 -4 -4 -4 -53 -1 -108 8 -114 13
-120 92 -107 l39 6 0 109 c0 60 0 109 -1 110 -10 4 -86 6 -101 2z m80 -118 l0
-90 -47 -3 -48 -3 0 80 c0 92 13 114 64 109 l31 -3 0 -90z"/>
<path d="M16937 5274 c-4 -4 -7 -56 -7 -115 l0 -107 29 -7 c16 -3 46 -3 65 1
l37 6 -3 112 -3 111 -55 3 c-31 2 -59 0 -63 -4z"/>
<path d="M17153 5270 c-22 -9 -23 -15 -23 -114 0 -101 1 -106 23 -111 12 -3
39 -2 61 2 l39 8 -2 105 c-1 58 -3 105 -4 106 -9 9 -77 11 -94 4z"/>
<path d="M16747 4843 c-4 -3 -7 -53 -7 -110 0 -115 -9 -103 80 -108 43 -3 50
17 50 129 l0 96 -58 0 c-32 0 -62 -3 -65 -7z m103 -108 l0 -95 -45 0 -45 0 0
95 0 95 45 0 45 0 0 -95z"/>
<path d="M16944 4837 c-2 -7 -3 -58 -2 -112 l3 -98 36 -4 c20 -2 47 1 60 6 23
8 24 13 24 112 l0 104 -58 3 c-41 2 -59 -1 -63 -11z"/>
<path d="M17140 4831 c-5 -11 -10 -60 -10 -110 l0 -91 48 0 c26 0 52 4 58 8
11 7 25 175 17 200 -3 7 -23 12 -53 12 -39 0 -52 -4 -60 -19z"/>
<path d="M16570 4441 c-12 -7 -15 -31 -14 -113 l0 -103 30 -3 c17 -2 42 2 57
7 27 10 27 11 27 114 l0 103 -42 2 c-24 1 -50 -2 -58 -7z"/>
<path d="M16757 4428 c-3 -13 -5 -63 -4 -113 l2 -90 60 0 60 0 0 100 c0 55 4
106 8 113 6 9 -7 12 -56 12 -59 0 -65 -2 -70 -22z"/>
<path d="M16947 4444 c-4 -4 -7 -56 -7 -115 l0 -107 26 -5 c14 -2 43 0 65 6
l40 10 -3 106 -3 106 -55 3 c-31 2 -59 0 -63 -4z"/>
<path d="M17149 4348 c-1 -54 -2 -104 -3 -110 -1 -14 21 -16 74 -5 l35 7 -3
105 -3 104 -50 -2 -49 -2 -1 -97z"/>
<path d="M16568 3925 c-2 -59 0 -111 3 -117 3 -5 30 -8 60 -6 l54 5 -1 39 c-3
71 -17 154 -28 163 -6 5 -28 12 -48 16 l-37 7 -3 -107z"/>
<path d="M16968 4023 c-10 -2 -18 -5 -19 -6 0 -1 -2 -47 -5 -101 -4 -75 -2
-101 8 -107 20 -13 94 -11 105 4 6 7 8 52 5 105 -4 88 -6 94 -29 103 -25 9
-36 10 -65 2z"/>
<path d="M16969 3643 c-13 -3 -18 -24 -23 -99 -3 -52 -4 -99 -1 -103 8 -14 78
-21 92 -10 7 6 18 9 25 6 10 -3 12 16 10 82 -4 128 -5 131 -50 130 -20 -1 -44
-3 -53 -6z"/>
<path d="M16764 3632 c-7 -4 -12 -43 -13 -100 -2 -92 -2 -92 26 -103 18 -7 41
-8 63 -2 l35 8 1 76 c0 42 3 83 7 92 4 11 -1 20 -13 27 -22 12 -90 13 -106 2z"/>
<path d="M17146 3632 c-2 -4 -6 -48 -7 -97 -2 -87 -1 -90 21 -93 12 -2 38 -1
56 3 l34 6 0 94 0 95 -49 0 c-28 0 -52 -4 -55 -8z"/>
<path d="M4770 7972 l0 -29 -282 1 c-430 1 -645 -4 -628 -13 28 -16 632 -32
798 -21 54 3 77 -5 52 -20 -8 -4 -24 -15 -35 -24 -11 -9 -56 -44 -100 -77 -44
-33 -91 -71 -106 -85 -14 -13 -29 -24 -35 -24 -5 0 -20 -16 -34 -34 l-25 -34
-225 5 c-264 7 -327 22 -100 24 209 2 281 6 291 16 4 4 -101 6 -234 5 -187 -3
-246 -7 -261 -18 -24 -16 -56 -19 -56 -4 0 6 -30 10 -69 10 -77 0 -133 -9
-126 -20 4 -7 -85 -23 -92 -17 -2 2 17 17 41 33 117 77 315 215 326 229 27 32
-2 26 -67 -14 -37 -23 -143 -93 -234 -154 -92 -62 -175 -117 -185 -124 -17
-10 -16 -11 11 -10 l30 2 7 -70 c3 -38 7 -230 7 -425 1 -195 4 -425 9 -510 9
-187 6 -250 -12 -250 -7 0 -21 -9 -31 -20 -16 -18 -31 -20 -125 -20 l-108 0
-40 40 c-22 22 -44 40 -50 40 -12 0 -45 -49 -45 -67 0 -7 -7 -13 -16 -13 -14
0 -16 60 -19 590 -2 541 1 628 21 578 10 -24 -3 344 -14 399 -1 4 2 22 6 40 5
24 14 33 34 37 34 6 -708 -3 -824 -10 -98 -6 -144 -22 -190 -64 -43 -40 -189
-124 -193 -111 -6 17 -22 13 -22 -5 0 -19 -19 -36 -73 -65 -37 -20 -39 -20
-53 -2 -7 10 -14 22 -14 26 0 5 -4 6 -9 3 -5 -3 -7 -14 -4 -25 3 -12 -3 -24
-18 -35 -18 -13 -20 -16 -7 -16 14 0 17 -10 17 -52 0 -55 3 -169 21 -658 5
-157 8 -303 6 -325 -3 -22 -7 -119 -10 -215 -4 -96 -9 -204 -13 -240 -4 -36
-5 -69 -4 -75 2 -5 5 -111 8 -235 2 -124 9 -308 14 -410 9 -155 7 -561 -4
-1150 -1 -47 1 -112 6 -145 4 -33 10 -87 13 -120 9 -96 43 -263 72 -350 29
-88 113 -258 167 -338 18 -29 32 -54 29 -56 -2 -3 -41 31 -86 75 -44 43 -73
68 -64 54 38 -58 368 -380 419 -409 77 -44 85 -56 91 -139 5 -68 4 -73 -17
-82 -14 -6 49 -9 178 -11 223 -2 235 -3 320 -18 76 -13 728 -14 720 -1 -4 6
-34 11 -68 11 -56 1 -130 13 -117 19 3 1 41 8 84 14 64 10 97 10 165 -1 151
-24 311 -27 376 -8 41 11 61 13 68 6 17 -17 41 -13 60 9 9 11 24 20 32 20 9 0
14 4 10 9 -3 6 4 15 15 21 12 6 19 18 16 25 -2 7 2 19 11 26 12 11 17 10 27
-4 11 -15 38 -16 239 -16 132 0 229 4 232 10 7 11 -1 11 -126 9 -96 -2 -175 7
-164 18 3 4 45 5 93 4 66 -2 83 0 69 8 -9 6 -21 9 -26 5 -12 -7 -101 17 -101
27 0 4 10 8 22 8 16 0 19 3 11 11 -7 7 -23 9 -38 5 -21 -5 -24 -10 -15 -21 9
-10 7 -14 -7 -17 -25 -5 -63 3 -63 13 0 5 12 9 26 9 14 0 23 4 20 9 -9 14 -62
6 -92 -14 -21 -14 -33 -15 -58 -7 l-31 10 37 1 c44 1 63 21 20 21 -56 0 -91
-11 -85 -27 4 -11 0 -14 -18 -11 -16 2 -23 9 -21 20 1 9 -6 19 -18 23 -11 3
-20 11 -20 16 0 6 9 7 22 3 12 -3 109 -5 217 -4 396 5 517 4 561 -3 43 -8 44
-7 20 6 -17 10 -69 16 -168 20 -78 2 -142 8 -142 13 0 8 173 8 236 0 17 -2 37
0 45 5 9 6 -6 9 -46 10 -33 1 -71 3 -85 5 -14 2 -72 4 -130 6 -99 4 -139 0
-202 -17 -18 -5 -28 -3 -28 4 0 6 10 11 23 12 21 0 21 1 -3 10 -14 6 -51 7
-83 4 -42 -5 -57 -4 -52 4 3 6 9 10 13 7 4 -2 32 0 62 4 30 4 60 5 65 1 15 -9
396 -8 401 1 3 4 -7 8 -21 8 -14 0 -24 4 -20 10 3 5 12 7 20 3 8 -3 15 -1 15
5 0 13 -24 18 -105 21 -38 1 -99 5 -135 8 -36 3 -85 4 -110 4 -89 -3 -106 -3
-155 0 -27 2 -78 0 -112 -5 -35 -4 -63 -4 -63 -1 0 4 74 82 163 173 225 229
275 285 270 300 -3 6 3 12 14 13 11 0 13 3 5 6 -8 3 -10 9 -3 16 22 28 65 115
97 199 38 97 129 442 137 518 3 25 6 45 8 45 8 0 4 82 -5 87 -7 5 -4 8 7 8 9
0 17 4 17 10 0 5 -8 14 -17 19 -17 10 -17 10 1 11 13 0 16 4 9 13 -5 6 -9 32
-8 57 2 25 1 48 -1 51 -2 4 -6 85 -9 180 -8 303 -16 493 -20 498 -2 2 0 12 5
22 7 11 7 33 1 58 -5 22 -6 43 -3 46 3 3 4 166 3 363 -1 196 -2 598 -1 892 1
294 3 582 3 640 0 58 -1 186 -3 285 -1 99 -2 191 -1 205 1 29 47 59 89 61 l27
1 -30 9 c-18 5 -33 5 -39 -1 -17 -17 -56 -12 -54 8 3 41 -3 82 -12 82 -5 0
-10 -13 -10 -28z m-1780 -64 c0 -7 -41 -40 -90 -72 -49 -33 -98 -68 -107 -79
-31 -35 -135 -107 -154 -107 -10 0 -19 -7 -19 -15 0 -10 -10 -15 -27 -16 -16
0 -124 -2 -242 -5 -136 -4 -211 -2 -207 4 8 13 -247 27 -314 18 -28 -4 -50 -3
-50 1 1 9 149 107 230 152 31 17 69 44 85 61 l29 30 235 0 c209 0 286 4 525
25 33 3 62 7 64 10 11 10 42 5 42 -7z m-22 -348 c-6 -157 -10 -312 -9 -345 0
-33 3 -259 6 -503 4 -354 3 -443 -7 -447 -7 -3 -22 -6 -33 -8 -11 -2 -51 -13
-89 -25 -86 -28 -96 -28 -95 1 3 45 -14 307 -19 302 -7 -7 -3 -281 4 -311 4
-17 2 -24 -8 -24 -19 0 -22 40 -18 243 1 64 6 117 10 117 9 0 1 40 -11 56 -5
6 -6 14 -2 18 4 4 8 71 10 149 1 78 3 193 5 255 2 61 0 112 -4 112 -7 0 -1
124 7 148 3 6 0 12 -5 12 -5 0 -5 14 1 33 5 17 12 84 15 147 l6 115 36 32 c21
18 41 32 45 33 5 0 6 -22 2 -50 -4 -31 -3 -50 3 -50 13 0 22 70 11 90 -5 10
11 33 57 78 35 34 64 68 64 75 0 12 21 39 26 34 1 -1 -2 -130 -8 -287z m1786
-973 c0 -683 -2 -1246 -3 -1252 -2 -5 -3 -12 -2 -15 1 -3 4 -75 7 -160 3 -85
7 -186 8 -225 8 -201 8 -256 -1 -267 -6 -7 -11 -29 -11 -48 -1 -19 -5 -56 -10
-82 -5 -26 -8 -59 -6 -73 1 -14 -2 -25 -7 -25 -5 0 -9 25 -9 55 0 30 -4 55
-10 55 -13 0 -13 -150 0 -184 6 -16 6 -27 0 -31 -6 -4 -10 -43 -10 -89 0 -50
-5 -87 -12 -94 -8 -8 -8 -12 -1 -12 7 0 8 -14 2 -42 -4 -25 -4 -47 2 -53 14
-14 11 -25 -5 -19 -11 4 -13 0 -9 -16 7 -27 -23 -140 -55 -208 -28 -57 -37
-63 -22 -14 5 20 5 30 -1 27 -12 -8 -11 -2 3 32 7 15 18 31 25 36 7 4 10 14 7
21 -3 8 -1 17 5 20 7 5 7 15 1 32 -7 17 -7 23 0 19 6 -3 10 -1 10 4 0 6 -5 11
-11 11 -12 0 -3 37 14 59 17 21 21 64 5 59 -18 -6 -41 -55 -45 -98 -5 -47 -23
-92 -44 -107 -11 -8 -15 -21 -12 -38 3 -15 1 -25 -7 -25 -7 0 -9 8 -5 21 5 15
4 19 -4 15 -17 -11 -13 10 8 35 15 19 16 26 6 34 -8 6 -11 24 -8 48 4 31 8 36
19 26 8 -7 18 -9 21 -5 4 4 1 11 -7 16 -14 9 -8 24 11 26 22 3 23 5 9 15 -11
8 -12 12 -2 16 6 2 12 11 12 19 0 8 5 14 11 14 5 0 9 8 8 18 -2 9 3 27 10 40
9 17 9 27 2 36 -8 10 -7 17 4 26 13 11 14 10 10 -3 -4 -8 -2 -18 4 -22 17 -10
13 31 -4 45 -8 7 -15 17 -15 22 0 6 7 5 15 -2 9 -7 18 -10 22 -6 3 3 1 6 -5 6
-6 0 -12 19 -14 42 -3 38 -28 69 -28 34 0 -9 5 -16 10 -16 6 0 10 -8 10 -17 0
-15 -2 -14 -15 3 -18 23 -17 25 -20 -59 -1 -46 -7 -72 -16 -78 -8 -5 -10 -9
-6 -9 5 0 1 -7 -8 -17 -12 -11 -15 -25 -11 -47 4 -18 3 -27 -3 -21 -10 11 -20
95 -10 89 4 -2 9 9 12 24 3 15 1 30 -4 33 -5 3 -7 13 -4 21 4 9 1 19 -5 23 -9
6 -9 10 1 17 11 7 11 11 2 15 -7 2 -13 12 -12 21 0 11 2 12 6 5 2 -7 9 -13 14
-13 6 0 7 5 4 11 -4 6 -7 26 -7 45 0 40 -13 46 -16 7 -3 -40 -19 -51 -31 -20
-8 19 -5 39 9 79 19 55 37 64 33 16 -4 -41 14 -43 21 -3 5 26 3 40 -9 51 -18
19 -19 28 -2 42 29 24 38 -2 32 -89 -3 -46 -8 -96 -11 -111 -3 -17 -1 -28 5
-28 6 0 11 1 12 3 0 1 3 57 6 125 4 87 2 122 -6 122 -6 0 -11 9 -11 20 0 11 6
20 14 20 11 0 13 14 9 68 -3 37 -9 71 -13 75 -4 5 -5 -11 -3 -36 6 -55 -10
-69 -32 -27 -8 16 -11 30 -6 30 8 0 11 21 10 75 -1 11 0 29 0 40 0 11 1 30 1
43 0 35 17 26 18 -10 1 -18 6 -46 11 -63 8 -24 10 -17 8 40 -2 55 1 69 12 67
22 -5 6 108 -18 129 -12 10 -24 40 -31 80 -6 35 -18 76 -26 92 -10 18 -11 27
-4 27 6 0 9 4 6 9 -4 5 -8 33 -10 63 -3 37 -2 46 5 31 13 -34 20 -28 8 7 -11
29 -23 38 -32 23 -2 -5 -2 -3 -1 4 2 6 -8 23 -22 36 -16 17 -22 30 -17 42 4
12 3 16 -5 11 -6 -4 -11 1 -11 11 0 10 -3 34 -5 53 -5 29 -4 31 3 10 5 -14 10
-20 11 -15 4 22 -2 80 -10 85 -11 7 -18 140 -7 140 5 0 5 6 -1 13 -5 6 -11 64
-12 127 0 63 -3 153 -6 200 -5 93 -16 584 -15 720 0 47 0 225 1 396 l1 312 83
63 c47 35 87 72 89 82 7 25 1 22 -56 -26 -71 -58 -118 -90 -124 -84 -8 9 180
142 196 139 8 -2 12 2 9 10 -4 11 24 48 37 48 3 0 10 0 15 0 6 0 10 6 10 13 0
8 56 57 65 57 0 0 0 -559 -1 -1243z m-2625 1017 c1 -1 -14 -5 -35 -9 -121 -19
-80 -23 204 -23 167 0 305 -2 307 -4 2 -2 5 -300 6 -661 2 -572 0 -659 -12
-670 -20 -15 -49 -63 -49 -78 0 -6 7 -9 15 -5 37 14 9 -16 -61 -64 -72 -50
-78 -52 -109 -42 -46 17 -63 15 -90 -13 -19 -18 -25 -35 -25 -66 0 -39 -6 -48
-79 -122 -74 -76 -82 -81 -122 -82 -33 0 -46 -5 -61 -26 -17 -22 -18 -30 -7
-70 12 -46 12 -46 -44 -151 -56 -103 -69 -118 -107 -118 -11 0 -24 -9 -30 -21
-17 -31 -15 -97 4 -118 20 -22 20 -41 0 -138 -9 -43 -18 -88 -20 -101 -3 -12
-16 -27 -29 -32 -14 -5 -25 -14 -25 -20 0 -5 -4 -10 -9 -10 -5 0 -11 89 -15
198 -9 274 -17 480 -22 527 -2 22 -3 198 -2 390 4 597 3 888 -2 1214 l-5 315
25 7 c23 7 390 0 399 -7z m1833 -26 c10 -4 100 -10 200 -12 101 -2 191 -7 201
-11 16 -7 17 -35 18 -394 0 -212 2 -417 4 -456 2 -38 6 -277 10 -530 3 -253
10 -500 15 -550 5 -49 10 -96 10 -103 0 -25 -22 1 -45 52 -12 28 -39 71 -59
95 -20 23 -36 47 -36 52 0 18 36 -9 61 -45 26 -38 44 -30 27 13 -15 42 -39 61
-74 61 -27 0 -41 10 -87 61 -40 43 -55 69 -55 88 1 28 -27 91 -46 103 -6 4
-29 8 -50 8 -60 0 -190 77 -179 105 8 21 -28 73 -58 86 -23 9 -33 8 -58 -7
-28 -17 -32 -17 -108 6 -115 33 -128 42 -141 92 -6 24 -14 165 -16 313 -3 149
-7 322 -10 385 -3 63 -8 198 -11 300 -3 102 -7 194 -9 205 -2 11 -6 37 -10 57
l-7 37 158 4 c188 4 331 -2 355 -15z m-576 -1360 c4 -5 0 -14 -7 -19 -12 -7
-11 -11 4 -26 17 -17 19 -17 31 0 20 26 36 21 36 -12 0 -16 3 -43 7 -61 l6
-33 -109 8 c-133 10 -232 11 -301 1 -49 -7 -52 -6 -55 16 -6 41 45 116 67 98
9 -8 14 -6 18 4 5 11 17 15 45 12 32 -2 50 -13 93 -55 29 -28 55 -48 58 -43 3
5 25 19 48 32 23 13 40 27 38 31 -3 4 -23 -2 -44 -14 -35 -19 -42 -20 -65 -7
-15 7 -37 28 -51 46 l-25 32 100 1 c60 0 102 -4 106 -11z m-431 -52 c-27 -56
-43 -65 -67 -36 -16 21 -19 21 -13 5 9 -26 9 -36 -1 -59 -7 -18 -5 -18 25 3
18 13 35 30 38 37 3 8 13 14 22 14 14 0 17 -7 13 -31 -2 -17 -10 -32 -16 -34
-6 -2 -65 -20 -131 -40 -66 -21 -120 -36 -121 -34 0 2 -8 -2 -16 -9 -13 -10
-17 -10 -22 4 -4 9 -4 19 -1 22 3 3 5 -1 5 -8 0 -11 2 -12 13 -1 10 10 8 15
-7 26 -10 8 -15 19 -11 25 5 8 11 5 21 -7 13 -17 13 -17 14 4 0 12 5 25 10 28
17 10 49 -5 55 -26 6 -17 35 -28 35 -12 0 12 -45 73 -53 73 -5 0 -5 6 -1 13 6
9 5 9 -7 0 -13 -10 -16 -10 -16 1 0 22 152 82 163 65 3 -6 9 -7 13 -2 11 15
56 31 64 23 5 -4 1 -24 -8 -44z m627 0 c85 -22 111 -35 105 -50 -4 -10 3 -13
25 -12 23 1 31 -4 34 -17 4 -27 14 -34 24 -17 6 10 12 12 20 4 7 -7 3 -17 -15
-34 -33 -31 -32 -35 10 -35 32 0 35 2 30 23 -7 29 4 28 78 -9 69 -34 99 -57
91 -70 -3 -5 4 -9 15 -9 23 0 43 -51 23 -58 -7 -2 -12 -9 -12 -15 0 -6 -6 -18
-14 -26 -7 -9 -17 -27 -21 -40 -6 -20 -1 -17 26 15 19 21 38 42 43 46 23 16
103 -43 157 -116 33 -45 37 -61 12 -51 -10 4 -43 10 -73 15 -100 14 -138 30
-209 85 -38 29 -91 69 -118 87 l-48 33 81 1 c78 0 82 -1 93 -25 9 -23 10 -23
7 -3 -3 13 2 26 12 31 13 8 14 12 5 22 -9 9 -19 9 -42 -1 -56 -23 -174 -8
-266 34 -162 75 -148 62 -153 139 -4 76 -6 76 80 53z m-972 -95 c0 -10 -7 -24
-15 -31 -8 -7 -15 -20 -15 -29 0 -12 5 -10 20 9 11 14 20 21 21 15 8 -80 1
-105 -28 -105 -11 0 -13 7 -9 25 4 14 2 25 -4 25 -9 0 -14 -17 -13 -47 1 -7
-3 -13 -8 -13 -5 0 -30 -21 -57 -47 -81 -80 -190 -173 -203 -173 -11 0 -11 4
6 100 6 31 5 33 -6 15 -7 -11 -14 -46 -15 -78 -2 -34 -9 -66 -17 -75 -26 -30
-105 -156 -128 -204 -13 -27 -27 -48 -31 -48 -4 0 -8 -7 -8 -17 0 -9 -8 -34
-17 -55 -14 -32 -22 -38 -43 -36 -18 2 -32 16 -52 52 -26 49 -26 51 -10 90 23
60 55 107 70 101 6 -2 12 0 12 5 0 4 15 13 34 20 18 6 42 20 51 30 10 11 26
20 37 20 18 0 25 15 11 22 -11 5 -43 64 -43 79 0 17 150 169 167 169 16 0 17
-12 2 -27 -8 -8 8 -9 58 -6 72 6 130 21 86 22 -22 1 -34 21 -13 21 5 0 3 17
-5 39 -16 47 -11 53 89 113 72 43 76 44 76 19z m705 -36 c39 -3 85 -11 103
-16 36 -12 34 -1 33 -188 0 -57 -3 -106 -6 -109 -3 -3 0 -11 6 -19 9 -10 8
-13 -5 -13 -9 0 -16 -8 -15 -17 0 -11 3 -13 6 -5 2 6 8 12 13 12 12 0 12 -398
1 -438 -5 -18 -38 -76 -74 -130 -35 -53 -73 -114 -86 -134 -26 -43 -24 -42
-54 -26 -12 6 -28 14 -36 18 -12 5 -15 86 -17 485 -2 263 -6 480 -8 482 -11
11 -14 -120 -12 -530 1 -441 1 -448 -19 -445 -15 2 -23 16 -31 53 -7 28 -31
106 -55 175 l-43 125 -4 357 -4 356 54 6 c29 3 67 8 83 10 17 2 46 2 65 0 19
-2 67 -6 105 -9z m-336 -158 c-2 -156 -14 -301 -19 -234 -2 20 -5 49 -6 65 -1
15 -5 76 -8 137 -3 60 -10 111 -16 113 -6 2 -8 8 -4 13 3 5 0 9 -5 9 -6 0 -11
-4 -12 -10 -2 -17 -1 -60 1 -62 2 -3 5 -40 14 -160 5 -76 23 -158 35 -158 3 0
5 -84 3 -187 -3 -225 -3 -317 1 -361 l3 -32 -40 38 c-23 21 -59 53 -81 71 -22
19 -63 55 -91 82 l-51 48 -8 143 c-5 79 -10 168 -11 198 -1 30 -6 116 -10 190
l-7 135 24 12 c44 22 152 63 168 64 9 0 32 6 51 13 73 28 71 33 69 -127z m691
42 c116 -59 157 -86 235 -155 184 -164 327 -390 379 -600 32 -129 35 -157 42
-295 5 -115 3 -162 -11 -233 -41 -218 -103 -379 -198 -523 -57 -86 -223 -248
-313 -306 -81 -52 -168 -97 -187 -97 -9 0 -33 56 -67 153 -55 156 -71 260 -55
344 5 29 9 32 21 23 8 -7 14 -17 14 -22 0 -12 180 -348 186 -348 11 0 -59 140
-177 355 -36 67 -38 75 -42 178 -2 59 0 106 3 105 4 -2 109 -102 234 -223 124
-121 232 -222 239 -223 6 -2 -97 104 -230 235 l-242 238 -3 63 c-3 65 3 81 25
64 16 -13 96 -46 362 -148 121 -46 231 -89 244 -95 13 -5 25 -8 27 -6 6 5 -68
37 -256 111 -212 84 -354 142 -380 156 -15 8 -20 21 -20 55 l0 45 48 -4 c75
-7 738 -19 732 -13 -6 6 -174 14 -480 23 -118 4 -235 9 -260 13 -44 6 -45 7
-45 41 0 40 -30 30 270 95 229 50 551 143 498 145 -6 0 -83 -20 -170 -44 -87
-24 -203 -53 -258 -65 -55 -12 -151 -32 -214 -46 -62 -14 -117 -22 -122 -19
-11 6 -12 95 -1 109 4 6 45 35 92 64 182 114 538 356 528 360 -5 2 -53 -26
-106 -62 -85 -57 -306 -199 -458 -295 -28 -18 -54 -32 -57 -32 -4 0 -7 40 -7
89 0 88 0 89 43 150 46 66 185 259 198 276 53 64 117 155 110 155 -4 0 -17
-12 -27 -26 -10 -14 -24 -31 -29 -38 -6 -6 -26 -31 -45 -56 -19 -25 -37 -47
-40 -50 -12 -10 -157 -206 -169 -227 -6 -13 -19 -23 -28 -23 -14 0 -15 12 -9
104 3 57 6 215 6 350 0 210 2 246 15 246 8 0 78 -32 155 -71z m-1041 -281 c2
-139 7 -266 12 -282 5 -16 7 -32 4 -34 -4 -4 -101 78 -225 193 -30 28 -68 60
-83 72 -21 16 -27 27 -22 43 3 11 11 20 17 20 6 0 36 26 67 58 53 55 206 182
220 182 3 0 8 -113 10 -252z m1412 68 c34 -14 159 -31 192 -27 9 1 17 -2 17
-6 0 -5 8 -18 18 -29 11 -11 25 -31 33 -45 8 -14 28 -47 46 -73 30 -45 61
-141 50 -152 -3 -3 -45 10 -94 29 -78 31 -92 41 -122 84 -19 26 -68 90 -108
141 -41 50 -72 92 -70 92 3 0 20 -6 38 -14z m-1638 -193 c50 -49 123 -117 160
-153 l69 -66 4 -64 c8 -110 9 -115 19 -122 18 -13 -1 -17 -41 -8 -23 5 -93 34
-155 63 -144 68 -269 116 -269 104 0 -2 46 -22 103 -46 56 -23 154 -67 217
-99 113 -56 115 -58 118 -94 2 -26 7 -35 16 -32 8 3 16 -4 19 -15 4 -18 2 -19
-14 -10 -17 9 -19 6 -19 -27 l0 -37 -52 7 c-29 3 -132 13 -228 21 -96 8 -197
18 -225 21 -34 3 -45 2 -35 -4 8 -6 98 -18 200 -27 199 -17 317 -32 331 -41 5
-3 9 -39 9 -80 0 -68 -2 -75 -22 -84 -20 -8 -346 -99 -465 -130 -23 -6 -45
-16 -49 -22 -5 -7 -2 -9 9 -5 9 3 53 15 99 26 46 11 154 40 240 65 87 25 165
46 173 46 12 0 15 -16 15 -87 0 -49 -4 -93 -8 -99 -4 -6 -27 -22 -52 -35 -43
-23 -59 -33 -140 -84 -19 -13 -72 -46 -118 -75 -46 -29 -81 -55 -78 -57 3 -3
43 20 91 51 128 83 283 176 295 176 6 0 10 -43 10 -117 0 -65 3 -172 7 -239 4
-87 2 -127 -7 -143 -6 -13 -8 -21 -2 -17 5 3 15 -15 21 -40 15 -57 66 -172 88
-196 26 -29 -2 -21 -49 15 -24 18 -67 48 -96 66 -127 81 -347 311 -417 437
-40 70 -93 224 -96 275 -2 19 -7 40 -13 48 -17 22 -18 383 -1 461 7 36 14 66
14 68 6 58 36 159 53 179 7 9 7 13 -2 13 -10 0 -10 3 0 15 6 8 9 19 5 25 -3 5
-2 10 4 10 5 0 22 26 37 58 15 31 37 72 50 91 13 19 21 38 18 43 -3 4 -1 8 4
8 5 0 15 11 22 25 7 14 20 25 27 25 8 0 55 -39 106 -87z m1850 -108 c10 -7 40
-19 67 -25 59 -14 91 -41 84 -72 -3 -13 -6 -36 -8 -53 -2 -16 -7 -39 -11 -50
l-8 -20 16 20 c9 11 17 18 18 15 6 -22 2 -180 -5 -180 -5 0 -3 -7 4 -15 7 -8
10 -29 8 -47 -3 -18 -1 -46 3 -62 6 -20 4 -38 -5 -58 -8 -16 -10 -30 -5 -33 5
-4 6 -40 3 -83 -3 -42 -5 -112 -4 -154 1 -67 -2 -83 -21 -110 -13 -18 -16 -27
-8 -21 21 17 29 7 29 -38 0 -28 -6 -40 -26 -54 -19 -12 -29 -14 -39 -5 -10 8
-19 8 -34 -2 -27 -17 -37 -4 -21 29 7 16 16 44 21 63 4 19 9 44 12 55 3 11 12
56 22 100 9 44 20 82 26 83 5 2 7 7 4 12 -3 5 -8 62 -11 127 -2 65 -7 129 -10
143 -3 14 -7 54 -8 88 -1 35 -7 67 -13 70 -6 4 -16 27 -23 52 -19 75 -39 128
-65 180 -33 65 -31 75 8 45z m-2268 -82 c0 -10 4 -24 9 -31 5 -8 1 -12 -12
-12 -11 0 -26 -8 -33 -17 -10 -11 -10 -14 -1 -9 6 4 12 3 12 -3 0 -6 -9 -15
-20 -21 -18 -10 -20 -30 -2 -30 4 0 29 20 56 45 70 65 76 61 55 -37 -9 -46
-20 -104 -24 -130 -3 -27 -9 -48 -13 -48 -4 0 -19 22 -34 49 -15 26 -34 54
-43 61 -8 7 -15 21 -15 30 0 10 -6 20 -12 23 -10 3 -10 9 -1 25 7 12 10 28 7
37 -4 8 1 17 10 21 9 3 16 12 16 19 0 8 5 26 10 41 8 20 14 24 22 16 6 -6 12
-19 13 -29z m2482 -112 c7 -31 16 -107 18 -170 3 -71 10 -118 17 -122 13 -8 7
-169 -11 -282 -6 -37 -15 -95 -21 -130 -5 -34 -20 -85 -33 -112 -14 -28 -27
-68 -31 -90 -8 -43 -84 -215 -96 -215 -9 0 -6 71 4 93 6 12 4 22 -7 30 -8 7
-18 29 -21 49 -4 20 -12 38 -19 41 -25 8 18 32 60 33 66 1 100 41 110 129 10
95 13 164 10 210 -4 60 15 200 30 217 15 16 15 18 0 18 -20 0 -26 21 -26 90 1
30 -4 105 -10 165 -6 61 -11 117 -11 125 1 26 21 -18 37 -79z m-1407 -83 c24
-73 47 -141 52 -151 7 -14 5 -22 -9 -33 -26 -19 -36 -17 -63 11 -16 18 -23 37
-24 70 -1 25 2 45 6 45 5 0 8 -4 8 -10 0 -5 4 -10 9 -10 5 0 1 17 -8 38 -10
20 -19 64 -20 96 -1 33 -4 63 -7 68 -3 4 -1 8 4 8 4 0 28 -60 52 -132z m-313
57 c15 -19 69 -71 119 -115 86 -75 114 -113 93 -126 -5 -3 -65 23 -134 57
l-125 63 0 78 c0 43 4 78 10 78 5 0 22 -16 37 -35z m703 -94 l0 -80 -73 -45
c-111 -69 -124 -60 -54 39 51 73 120 165 124 165 2 0 3 -36 3 -79z m-1524 37
c9 -18 32 -54 50 -81 33 -45 44 -87 25 -87 -5 0 -13 -9 -16 -20 -4 -11 -17
-31 -30 -44 -13 -13 -22 -26 -19 -29 7 -6 -36 -77 -47 -77 -14 0 -10 -40 4
-46 25 -9 127 -142 127 -164 0 -19 -4 -21 -22 -15 -13 4 -36 9 -53 11 -29 3
-28 3 5 -9 19 -7 41 -16 48 -20 16 -11 15 -42 -1 -59 -8 -7 -14 -20 -14 -28 0
-8 -4 -28 -8 -45 -8 -27 -7 -29 8 -16 10 7 17 26 17 40 0 15 7 36 15 47 12 16
16 17 24 5 5 -8 12 -30 16 -49 3 -19 21 -68 40 -110 18 -42 31 -79 29 -82 -3
-2 -8 0 -12 6 -4 6 -33 25 -65 43 -32 18 -63 43 -68 55 -12 27 -56 49 -63 32
-3 -6 -3 0 0 13 5 18 3 22 -7 16 -11 -6 -11 -5 -2 5 8 8 9 20 3 36 -6 14 -6
26 0 29 8 5 -5 41 -40 115 -9 19 -6 99 4 123 6 13 5 16 -7 11 -11 -4 -14 2
-13 23 1 15 5 34 10 41 4 7 5 20 2 28 -3 9 -3 21 1 27 4 6 8 22 9 36 2 13 9
28 16 32 10 6 7 15 -11 39 -19 26 -22 40 -17 73 3 23 6 50 7 60 0 28 17 67 28
67 6 0 18 -15 27 -32z m904 -152 c150 -76 169 -103 69 -92 -35 3 -94 9 -131
12 -39 4 -68 12 -69 18 0 6 -2 37 -4 69 -2 31 -1 57 3 57 4 0 63 -29 132 -64z
m383 -71 c63 -26 76 -90 31 -144 -39 -46 -54 -52 -105 -37 -38 11 -46 18 -58
53 -18 51 -2 96 43 124 37 23 44 23 89 4z m-303 -44 c39 -5 45 -9 45 -31 0
-23 -6 -26 -75 -38 -41 -8 -97 -23 -124 -33 -27 -11 -50 -18 -52 -17 -4 5 -6
50 -5 97 l1 43 83 -7 c45 -4 102 -10 127 -14z m-1131 -28 c17 -15 21 -34 27
-121 7 -104 7 -104 -20 -125 -21 -18 -26 -31 -28 -70 -1 -54 13 -75 64 -93 28
-9 33 -18 54 -90 12 -43 30 -100 39 -125 18 -45 18 -46 -3 -67 -26 -26 -28
-68 -6 -100 12 -18 25 -22 64 -22 l49 0 73 -97 c40 -53 68 -98 63 -100 -26 -9
-35 -22 -40 -55 -5 -29 -1 -41 20 -67 30 -35 76 -41 124 -17 27 14 31 13 162
-76 74 -49 146 -95 162 -100 33 -12 34 -21 3 -37 -35 -19 -71 -11 -70 17 0 12
-5 22 -13 22 -7 0 -13 8 -13 17 0 13 -3 14 -12 5 -18 -18 6 -86 36 -102 41
-21 106 4 106 41 0 23 -4 23 54 3 37 -13 46 -20 40 -33 -7 -15 -31 -94 -107
-348 l-30 -103 -63 0 c-66 0 -73 -4 -76 -43 -2 -19 -7 -23 -22 -19 -21 6 -25
9 -105 79 -30 27 -51 42 -47 36 40 -69 -166 123 -239 222 -153 208 -217 360
-266 635 -32 182 -32 188 -18 165 7 -10 18 -37 25 -60 7 -22 13 -33 13 -24 1
9 -8 45 -19 79 -34 105 -42 233 -36 514 4 142 9 263 12 268 8 12 20 10 43 -9z
m1181 -71 c0 -31 -34 -55 -43 -29 -2 6 -3 4 -2 -5 4 -22 -91 -92 -112 -84 -7
3 -12 2 -9 -3 5 -8 -85 -81 -99 -81 -3 0 -5 26 -5 58 0 40 3 53 10 42 6 -9 10
-10 10 -3 0 6 3 20 6 30 4 13 3 14 -4 5 -7 -11 -10 -11 -15 2 -8 19 -9 18 93
49 133 41 170 45 170 19z m424 -138 l76 -87 0 -99 c0 -73 -3 -97 -12 -92 -8 5
-9 2 -4 -12 5 -10 10 -38 12 -61 15 -165 12 -166 -40 -13 -19 58 -53 157 -75
220 -23 63 -41 119 -41 125 0 16 25 -25 72 -117 25 -48 48 -85 51 -81 8 7
-110 236 -135 263 -20 21 -24 35 -8 25 6 -3 10 -1 10 4 0 25 22 6 94 -75z
m-432 50 c-3 -17 -9 -23 -19 -20 -8 3 -12 2 -9 -3 6 -8 -88 -133 -104 -139 -4
-2 -11 9 -14 24 -4 14 -9 24 -12 22 -2 -3 -1 -16 4 -29 10 -26 6 -49 -8 -49
-5 0 -11 8 -13 18 -3 9 -4 5 -4 -9 1 -29 -60 -132 -74 -123 -5 3 -8 38 -8 77
1 40 4 62 6 49 2 -12 8 -20 13 -17 5 3 5 17 -1 32 -10 28 -4 36 61 73 19 11
64 43 100 70 75 56 89 60 82 24z m158 -135 c-17 -68 -36 -146 -41 -174 -5 -27
-32 -119 -59 -203 -28 -85 -57 -179 -64 -210 -17 -72 -65 -231 -77 -257 -6
-12 -11 -27 -13 -35 -1 -8 -7 -33 -13 -55 -6 -22 -16 -65 -23 -95 -7 -30 -18
-68 -25 -85 -14 -33 -95 -390 -95 -416 0 -12 -13 -18 -47 -23 -25 -3 -48 -4
-50 -2 -2 2 6 25 17 52 12 27 28 77 36 111 8 34 36 124 63 200 28 76 64 183
80 238 17 55 38 120 46 145 8 25 37 126 65 225 29 99 58 196 67 215 8 19 30
98 49 175 28 116 70 266 90 324 3 10 8 11 15 4 8 -8 2 -47 -21 -134z m130 114
c0 -28 26 -107 168 -518 83 -238 123 -357 215 -630 79 -234 152 -436 171 -472
22 -43 21 -45 -15 -41 l-32 3 -69 200 c-38 110 -75 220 -82 245 -18 61 -150
460 -193 585 -19 55 -52 156 -74 225 -22 69 -56 175 -75 235 -19 61 -42 125
-50 143 -17 36 -12 52 17 52 14 0 19 -7 19 -27z m-286 -121 c0 -91 -8 -128
-49 -247 -4 -11 4 -3 18 19 13 22 27 34 31 28 3 -6 0 -13 -6 -15 -10 -4 -10
-8 -2 -14 23 -16 -20 -205 -103 -450 -21 -61 -41 -114 -44 -118 -4 -3 -12 8
-17 25 -7 17 -7 28 -2 25 6 -3 7 1 4 9 -3 9 -10 16 -16 16 -5 0 -8 6 -7 13 1
6 -2 23 -8 37 -11 27 -6 90 7 90 16 0 21 52 6 69 -12 13 -12 26 -4 69 6 28 15
52 20 52 6 0 8 -11 6 -25 -3 -14 -1 -25 3 -25 5 0 9 6 10 13 1 6 2 26 4 43 1
16 6 41 10 53 5 16 4 21 -4 17 -6 -4 -15 -21 -20 -39 -9 -32 -9 -32 -10 -4 -2
47 -18 29 -28 -30 l-10 -58 -12 30 c-10 24 -10 34 0 50 7 11 18 30 24 42 9 17
15 19 23 11 9 -9 12 -7 12 10 0 27 42 113 64 131 13 11 17 11 22 -3 4 -9 0
-24 -9 -34 -20 -23 -48 -92 -37 -92 5 0 20 26 35 58 20 42 24 61 16 73 -10 17
4 55 42 109 18 26 23 60 8 60 -5 0 -13 -9 -16 -21 -8 -25 -85 -143 -97 -147
-4 -2 -8 -9 -8 -16 0 -13 -22 -45 -57 -83 -13 -13 -23 -30 -23 -38 0 -8 -4
-17 -10 -20 -5 -3 -14 -20 -18 -38 -7 -25 -9 -14 -11 55 0 49 -1 91 -2 95 -3
17 1 33 9 33 7 0 8 -8 12 -90 2 -38 4 -41 11 -22 5 13 6 39 3 58 -3 21 -1 41
7 50 6 8 8 14 4 14 -16 0 34 65 116 149 31 32 64 72 75 89 10 18 21 32 24 32
3 0 5 -44 4 -98z m236 43 c0 -23 140 -456 194 -599 15 -38 23 -73 19 -76 -18
-16 -79 -30 -130 -30 -95 0 -182 59 -222 152 -19 45 -19 47 -1 115 10 37 27
93 37 123 11 30 35 119 54 197 19 77 37 139 42 136 4 -2 7 -10 7 -18z m-1243
-224 c6 -10 45 -37 85 -59 71 -39 148 -108 148 -135 0 -6 28 -46 61 -87 85
-106 91 -119 95 -228 1 -54 8 -99 15 -108 6 -8 9 -17 6 -20 -17 -17 -97 78
-97 115 0 12 -6 21 -13 21 -8 0 -22 9 -32 20 -10 11 -23 20 -29 20 -12 1 -93
108 -98 130 -2 9 3 14 12 11 8 -2 36 -9 61 -16 26 -7 52 -9 59 -5 8 5 -10 12
-46 19 -32 7 -69 17 -81 24 -32 18 -85 89 -80 108 2 9 -3 21 -13 27 -18 11
-48 66 -53 98 -2 11 -8 29 -15 41 -22 40 -9 62 15 24z m2337 -135 c2 -17 -1
-36 -6 -43 -6 -7 -5 -14 2 -18 5 -3 10 -19 10 -34 0 -15 4 -31 9 -36 14 -14
-66 -133 -156 -232 -41 -46 -78 -83 -83 -83 -4 0 -7 40 -6 89 1 70 -1 88 -11
80 -8 -8 -11 -38 -8 -103 l3 -93 -42 -36 c-35 -31 -180 -127 -192 -127 -1 0
-26 -13 -54 -30 -28 -16 -57 -30 -64 -30 -8 0 -18 17 -24 38 -5 20 -17 54 -26
74 l-16 37 91 46 c108 54 196 116 259 180 25 25 57 52 73 61 15 8 27 20 27 26
0 6 21 37 48 67 48 57 52 63 97 166 15 33 32 63 38 67 13 8 26 -19 31 -66z
m142 -55 c-3 -5 -13 -85 -21 -179 -12 -143 -20 -186 -50 -275 -93 -277 -181
-436 -314 -567 -69 -68 -161 -140 -179 -140 -15 0 -136 347 -123 354 3 2 18 6
32 9 32 8 58 52 41 69 -19 19 -14 37 8 31 14 -4 20 0 20 10 0 23 -74 16 -78
-7 -4 -19 -22 -11 -22 10 0 8 7 14 15 14 8 0 15 4 15 9 0 8 92 68 191 124 l36
21 28 -22 c31 -24 83 -29 107 -9 22 17 28 43 15 57 -9 10 -9 14 1 17 19 7 14
30 -7 36 -23 6 -36 -29 -19 -50 7 -9 7 -17 -2 -28 -16 -19 -19 -19 -66 1 -37
15 -37 17 -19 31 11 7 28 12 38 9 9 -2 15 0 12 4 -7 11 64 105 134 178 42 45
54 52 73 46 28 -9 38 -9 61 1 14 6 17 2 17 -21 0 -45 -62 -251 -92 -304 l-20
-35 26 30 c22 26 48 96 86 230 4 17 10 58 13 92 4 53 2 62 -13 66 -17 4 -21
-8 -8 -28 4 -7 -8 -9 -33 -7 -21 2 -39 7 -39 11 0 3 18 28 40 55 22 26 40 54
40 62 0 20 43 104 53 104 4 0 6 -4 3 -9z m-1400 -173 c5 -18 9 -37 9 -43 0 -5
9 -23 20 -39 11 -16 20 -41 21 -55 2 -14 3 -29 3 -33 1 -5 5 -8 10 -8 5 0 7 9
4 20 -3 11 -1 20 5 20 17 0 25 -20 14 -33 -5 -7 -13 -29 -16 -50 -5 -28 -11
-37 -21 -33 -8 3 -17 0 -21 -6 -5 -7 -12 -5 -21 7 -7 11 -13 14 -13 8 0 -5 8
-17 18 -26 14 -13 21 -14 30 -5 9 9 12 9 12 1 0 -7 -4 -15 -10 -18 -5 -3 -10
-13 -10 -22 0 -13 3 -13 15 -3 8 7 15 8 15 3 0 -5 -12 -15 -26 -22 -30 -13
-87 -6 -124 17 -14 9 -26 17 -28 17 -2 2 23 67 39 100 5 11 12 34 14 50 13 79
39 185 46 185 4 0 11 -15 15 -32z m-640 -69 c82 -87 329 -248 382 -249 16 0
15 -21 -4 -88 -24 -84 -27 -86 -87 -55 -29 14 -46 28 -39 30 18 7 15 19 -5 20
-64 3 -145 38 -225 94 -14 11 -31 19 -38 19 -7 0 -10 7 -6 16 3 9 6 22 6 29 0
7 8 16 18 18 13 4 12 5 -5 6 -19 1 -22 8 -28 69 -3 37 -9 79 -11 95 -7 35 5
34 42 -4z m1006 -118 c-43 -78 -159 -187 -180 -167 -5 6 14 28 121 139 46 48
47 61 5 44 -19 -8 -32 -21 -32 -30 1 -13 -5 -15 -30 -11 -28 5 -29 4 -14 -8
16 -13 16 -16 -2 -43 -25 -38 -66 -60 -74 -40 -3 8 -1 17 5 21 6 3 8 12 5 20
-3 8 3 23 14 34 21 21 26 40 11 40 -13 0 -51 -55 -51 -73 0 -9 -4 -19 -10 -22
-15 -10 -12 -22 12 -45 12 -11 20 -21 17 -21 -38 -11 -44 -5 -44 42 0 26 3 51
7 54 4 4 1 24 -8 43 -18 45 -10 53 41 42 51 -12 115 -13 115 -1 0 5 20 14 44
20 25 6 48 16 52 22 5 8 9 8 14 -1 4 -7 -4 -33 -18 -59z m111 -188 c3 -10 15
-45 26 -77 12 -33 21 -60 21 -62 0 -15 -184 -55 -230 -50 -14 2 -31 4 -38 5
-9 1 -10 6 -3 20 9 16 8 18 -8 14 -12 -3 -49 13 -96 42 -42 25 -79 44 -81 42
-3 -2 21 -19 52 -38 31 -19 70 -45 87 -59 l31 -25 -59 -6 c-72 -7 -265 6 -318
21 -36 11 -38 14 -32 38 4 15 11 44 15 65 4 21 10 40 12 43 3 3 34 0 69 -7
130 -23 190 -22 355 6 87 15 163 31 169 36 14 13 22 11 28 -8z m72 -230 c4
-21 10 -42 15 -48 5 -5 31 -77 58 -160 28 -82 53 -157 56 -165 6 -13 -53 -15
-484 -18 -269 -1 -490 1 -490 5 0 15 61 261 80 321 11 34 20 69 20 77 0 8 2
15 6 15 17 0 152 -33 169 -41 28 -13 73 -13 120 1 50 15 372 23 380 10 4 -6
14 -10 23 -10 15 1 14 3 -3 16 -17 13 -18 16 -5 24 31 20 48 11 55 -27z m277
-434 c-16 -13 -201 -86 -257 -102 -33 -9 -134 -27 -224 -41 -91 -14 -168 -31
-172 -37 -5 -9 -47 -9 -176 0 -299 22 -356 32 -459 84 -123 62 -143 91 -69 99
54 6 1364 3 1357 -3z m129 -6 c0 -5 2 -45 4 -90 l3 -82 -194 1 c-188 1 -239 9
-151 23 23 4 44 11 47 15 3 5 55 31 115 60 61 28 121 58 135 65 28 16 40 18
41 8z m-1547 -82 c28 -16 83 -39 121 -51 39 -12 74 -26 78 -30 4 -3 -54 -6
-129 -6 l-137 2 -2 57 c-2 34 1 57 7 57 6 0 34 -13 62 -29z"/>
<path d="M2740 5929 c1 -35 20 -297 24 -326 3 -18 1 -33 -5 -33 -14 0 -37 58
-44 113 -3 26 -10 47 -14 47 -15 0 0 -94 24 -145 43 -96 46 -108 57 -207 1 -9
6 -14 11 -11 5 3 6 17 2 32 -10 40 7 17 60 -84 53 -99 85 -149 92 -142 5 5
-32 81 -101 210 -61 113 -65 129 -71 272 -5 108 -11 187 -19 252 -3 26 -16 44
-16 22z"/>
<path d="M2855 4190 c-16 -38 -33 -70 -36 -70 -13 0 -23 -55 -26 -140 -1 -47
-4 -101 -6 -120 -7 -70 8 -53 39 45 24 77 29 103 20 114 -8 11 -8 13 2 7 8 -5
12 -1 12 11 0 11 -6 25 -12 32 -11 11 -10 14 0 18 6 3 10 9 7 13 -3 5 6 39 20
76 27 71 29 84 18 84 -5 0 -21 -32 -38 -70z"/>
<path d="M5400 7951 c-8 -6 -19 -7 -25 -4 -5 4 -7 3 -3 -2 5 -5 -2 -15 -13
-23 -16 -11 -23 -12 -28 -3 -5 8 -14 4 -26 -11 -11 -13 -13 -17 -5 -10 34 30
30 8 -5 -28 -41 -42 -62 -51 -51 -24 5 14 4 15 -9 4 -9 -7 -14 -19 -11 -26 5
-12 -94 -112 -150 -151 -16 -12 -43 -25 -58 -29 -22 -5 -25 -9 -14 -15 12 -6
13 -18 5 -61 -11 -65 -13 -937 -3 -1463 11 -576 12 -1466 3 -1820 -5 -170 -10
-370 -12 -444 -2 -89 1 -141 8 -153 9 -14 9 -23 -1 -38 -6 -11 -11 -39 -10
-62 l1 -43 7 50 c11 81 12 32 11 -392 -1 -260 2 -403 8 -407 6 -4 8 -13 4 -21
-3 -8 0 -15 6 -15 6 0 11 9 11 20 0 18 4 20 43 13 23 -5 102 -7 176 -6 74 0
128 -3 121 -7 -7 -4 79 -8 190 -9 111 0 211 -3 222 -7 10 -3 24 -1 31 4 27 22
181 39 201 23 10 -8 17 -7 26 4 7 9 20 13 29 10 9 -2 36 -1 61 4 50 10 26 16
-45 11 l-40 -2 31 34 c17 18 63 76 102 128 38 52 88 113 110 135 31 32 38 44
32 60 -7 17 -9 17 -9 3 -1 -10 -6 -18 -12 -18 -8 0 -9 20 -3 73 9 79 6 229 -4
237 -4 3 -8 173 -9 378 -2 314 0 372 12 362 14 -12 95 -189 95 -208 0 -7 13
-51 29 -99 37 -110 162 -496 189 -583 73 -238 107 -343 128 -397 13 -34 24
-68 24 -76 0 -8 7 -20 15 -27 26 -22 16 -30 -35 -30 -27 0 -50 -4 -50 -10 0
-6 115 -10 326 -10 188 0 323 4 320 9 -6 9 286 21 464 18 l105 -2 20 -37 c11
-21 22 -38 25 -38 3 0 4 20 2 45 -3 33 0 45 9 46 8 0 6 3 -4 7 -16 7 -16 11
10 46 15 21 41 52 56 69 l28 32 -21 -35 c-11 -19 -28 -45 -37 -57 -9 -14 -11
-23 -4 -23 6 0 11 5 11 10 0 6 12 22 28 36 15 14 27 29 27 32 1 11 55 114 84
162 16 25 34 44 41 42 19 -4 4 47 -54 176 -29 64 -57 129 -61 142 -7 22 -17
47 -56 135 -17 39 -122 301 -144 360 -13 33 -33 85 -45 115 -12 30 -37 98 -55
150 -19 52 -48 133 -66 180 -41 111 -70 191 -74 210 -2 8 -4 15 -5 15 -1 0 -4
11 -6 25 -3 13 -9 29 -14 34 -4 4 -6 14 -4 20 4 11 -67 193 -105 266 -10 19
-24 53 -31 75 -7 22 -24 52 -38 67 -25 27 -25 28 -7 48 10 11 24 20 32 20 7 0
13 4 13 9 0 10 55 73 176 201 101 107 160 193 162 234 0 5 6 12 12 16 7 4 10
14 8 21 -3 8 -14 -5 -28 -31 -12 -25 -26 -47 -29 -50 -4 -3 -18 -23 -31 -45
-36 -62 -92 -136 -97 -131 -3 3 14 33 38 68 23 35 50 74 59 88 10 15 29 49 44
78 17 34 31 50 40 46 15 -6 22 9 32 71 3 22 12 52 20 67 8 15 14 29 13 30 -1
2 3 19 9 38 16 51 30 168 37 305 4 66 10 170 14 230 8 107 6 238 -4 281 -2 12
-7 37 -10 57 -4 20 -21 82 -40 137 -18 55 -31 100 -27 100 4 0 2 4 -5 8 -20
13 -56 114 -42 122 6 4 8 13 5 19 -4 6 -12 9 -17 6 -5 -3 -6 0 -3 8 4 12 -28
80 -64 133 -51 77 -63 93 -72 99 -5 3 -10 11 -10 17 0 6 7 5 17 -3 14 -12 16
-12 11 1 -2 8 -11 15 -19 15 -24 1 -43 16 -29 25 24 15 -99 128 -221 206 -68
43 -310 160 -369 179 -30 10 -62 23 -70 30 -8 6 -22 16 -30 20 -13 8 -13 7 -1
-8 18 -23 16 -22 -140 17 -171 44 -308 60 -484 58 -740 -8 -902 -7 -898 6 6
14 -6 15 -27 3z m330 -51 c107 -5 301 -6 430 -2 316 10 460 -5 600 -62 30 -13
89 -33 130 -46 41 -13 92 -32 113 -42 57 -28 65 -17 10 12 -27 14 -50 26 -52
28 -2 1 -2 5 2 8 6 7 165 -50 217 -77 19 -11 40 -19 47 -19 7 0 13 -4 13 -10
0 -5 9 -10 19 -10 11 0 22 -4 25 -9 4 -5 37 -26 74 -47 87 -49 197 -137 229
-183 113 -165 166 -261 143 -261 -4 0 -11 6 -13 13 -4 8 -6 9 -6 0 -1 -6 6
-19 15 -27 8 -9 22 -37 31 -63 9 -27 19 -52 23 -58 7 -10 23 -61 25 -80 0 -5
9 -22 18 -36 10 -15 22 -55 28 -90 5 -34 12 -66 15 -71 7 -12 26 -117 29 -168
14 -208 14 -244 0 -321 -8 -45 -12 -86 -9 -91 3 -4 1 -8 -4 -8 -13 0 -25 32
-15 39 4 3 9 26 9 51 1 25 3 75 5 112 2 45 -2 72 -11 83 -12 14 -12 18 1 25
11 8 11 12 -6 24 -11 9 -23 16 -27 16 -10 0 -10 -27 0 -33 5 -4 7 -142 3 -210
-1 -4 -6 -6 -12 -5 -6 2 -13 -10 -14 -25 -3 -25 -1 -27 18 -22 l22 6 -22 -20
c-26 -22 -34 -62 -8 -41 13 11 15 8 15 -13 0 -38 -21 -81 -32 -65 -5 8 -7 0
-6 -22 2 -21 -2 -35 -9 -35 -18 0 -28 -15 -11 -15 19 0 25 -23 18 -76 -4 -36
-7 -40 -25 -33 -17 6 -17 8 -2 8 9 1 17 6 17 12 0 6 -7 9 -15 5 -8 -3 -15 -1
-15 3 0 5 7 11 15 15 8 3 15 12 15 21 0 18 -20 21 -21 3 0 -7 -4 -4 -8 6 -11
29 -1 66 17 66 15 0 15 1 0 16 -12 12 -14 24 -8 45 6 20 5 29 -3 29 -8 0 -8 3
1 8 8 5 10 16 6 27 -6 14 -4 16 7 11 8 -4 6 -1 -3 6 -12 10 -16 25 -13 47 2
17 0 42 -5 55 -5 13 -6 26 -3 30 8 8 9 96 1 99 -4 1 -11 17 -14 36 -5 23 -4
32 4 28 6 -5 8 1 5 14 -5 18 -3 20 16 14 21 -6 22 -4 19 31 -3 40 -23 57 -31
27 -3 -10 -3 -1 0 20 3 22 0 43 -7 52 -6 7 -10 24 -8 36 2 12 -2 24 -8 26 -7
2 -10 -35 -9 -112 0 -63 -3 -115 -7 -115 -10 0 -25 57 -33 120 -3 30 -13 82
-22 115 -8 33 -16 65 -17 70 -13 66 -79 196 -158 312 -38 56 -74 106 -80 109
-7 5 -8 2 -2 -7 4 -8 -31 21 -78 65 -178 163 -355 259 -578 314 -184 45 -220
52 -326 64 -147 15 -520 16 -789 1 -121 -7 -294 -15 -385 -18 -159 -5 -164 -5
-140 12 33 24 148 124 231 201 l68 62 63 0 c35 0 151 -5 258 -10z m586 -285
c181 -20 308 -41 416 -70 122 -31 332 -117 377 -153 20 -15 62 -45 93 -66 57
-37 183 -168 208 -216 22 -41 64 -90 78 -90 8 0 11 -7 7 -19 -3 -11 1 -24 11
-31 8 -8 24 -31 35 -53 20 -38 83 -267 99 -360 5 -26 12 -56 15 -66 11 -35 14
-81 4 -76 -5 4 -9 -15 -8 -42 0 -26 3 -42 6 -35 2 6 9 12 14 12 6 0 8 -80 5
-212 -6 -257 -9 -297 -19 -291 -4 2 -5 -8 -3 -24 3 -16 -1 -41 -9 -57 -8 -15
-15 -39 -15 -52 0 -13 -6 -41 -13 -61 -8 -21 -22 -63 -32 -93 -24 -73 -85
-201 -134 -276 -42 -66 -126 -141 -269 -237 l-86 -59 -18 24 -19 23 15 -30
c18 -38 8 -57 -36 -76 l-33 -14 34 -5 c31 -5 36 -11 73 -95 22 -49 51 -117 65
-150 13 -33 40 -96 58 -140 18 -44 47 -120 63 -170 17 -49 43 -117 57 -150 55
-120 155 -368 151 -372 -6 -7 -13 5 -346 627 -37 69 -93 177 -125 240 -67 133
-258 482 -320 586 -24 39 -66 117 -95 175 -29 57 -61 116 -71 131 -22 31 -23
38 -6 38 21 0 114 150 136 220 36 114 49 217 44 366 -8 255 -71 402 -221 515
-79 60 -84 66 -28 36 29 -16 43 -21 35 -11 -7 8 -33 26 -58 39 -39 20 -42 24
-21 24 14 0 44 -8 68 -19 23 -10 42 -17 42 -14 0 12 -88 44 -121 44 -20 0 -51
8 -70 17 -61 31 -159 29 -378 -7 -77 -12 -97 -25 -25 -16 l50 6 -2 -592 c-2
-326 0 -621 4 -656 4 -34 4 -69 -1 -78 -16 -28 13 -35 118 -29 136 9 216 28
303 75 64 35 73 37 78 22 3 -9 10 -24 15 -32 5 -8 20 -35 33 -60 36 -64 32
-45 -9 43 -56 124 -22 97 46 -35 34 -68 99 -188 144 -268 45 -80 122 -221 170
-315 108 -210 205 -389 305 -565 42 -74 130 -234 195 -355 65 -121 125 -231
135 -245 9 -14 62 -140 117 -280 107 -270 118 -300 109 -300 -3 0 -95 179
-205 398 -185 369 -245 486 -484 937 -49 94 -137 262 -194 375 -58 113 -110
210 -115 215 -13 13 208 -425 347 -690 58 -110 189 -366 291 -570 103 -203
247 -489 322 -635 179 -351 171 -335 174 -350 5 -23 -163 -21 -247 4 -59 17
-99 20 -245 20 -168 0 -177 -1 -230 -26 -48 -22 -73 -27 -197 -33 l-141 -7 -7
34 c-4 18 -58 186 -120 373 -62 187 -118 356 -123 375 -6 19 -31 100 -57 180
-75 237 -112 371 -119 435 -4 33 -10 63 -15 68 -4 4 -4 -14 0 -40 14 -87 7
-96 -27 -35 -63 110 -75 155 -78 308 -3 140 -3 145 16 141 14 -4 18 -1 16 11
-2 10 -15 18 -32 20 l-29 4 7 -134 6 -133 -21 25 c-12 14 -34 50 -50 81 -15
31 -57 87 -92 124 -57 60 -66 65 -71 47 -4 -11 -16 -22 -27 -25 -18 -5 -19 -8
-8 -29 10 -18 12 -216 11 -908 l-2 -885 -478 0 -478 0 2 425 2 426 112 224
c62 124 152 297 200 385 137 252 191 355 186 355 -11 0 -210 -359 -362 -655
-59 -115 -116 -223 -126 -240 l-19 -30 7 70 c8 81 26 121 162 355 50 85 123
213 164 283 40 70 136 235 212 365 194 331 194 331 284 486 45 76 86 144 92
150 5 5 10 16 10 24 0 9 -7 6 -19 -9 -48 -63 -499 -815 -712 -1189 -92 -162
-175 -304 -183 -315 -15 -19 -16 -15 -17 60 -1 190 6 1574 12 2090 1 33 0 83
0 110 -1 28 -1 68 -1 90 1 22 -2 198 -5 390 -4 193 -8 472 -9 620 -2 149 -5
276 -7 284 -6 22 39 29 126 19 76 -9 294 -4 540 11 198 13 475 11 611 -4z m65
-837 c53 -22 169 -137 218 -215 69 -111 97 -255 88 -453 -8 -173 -46 -293
-100 -318 -84 -40 -269 -67 -303 -44 -7 4 -8 36 -4 92 5 68 6 175 1 175 -1 0
-3 164 -5 365 -2 201 -7 380 -11 398 l-8 33 39 -7 c21 -3 60 -15 85 -26z
m-230 -410 c5 -90 3 -126 -9 -145 -13 -20 -11 -24 15 -40 16 -10 28 -25 27
-33 0 -8 -2 -25 -2 -37 -1 -13 -6 -23 -12 -23 -14 0 -12 38 2 42 9 3 8 9 -4
21 -9 9 -18 17 -21 17 -2 0 -3 -29 -3 -65 -1 -60 8 -84 19 -52 2 6 6 0 9 -16
3 -15 1 -30 -3 -33 -5 -3 -9 0 -9 5 0 6 -5 11 -11 11 -7 0 -8 -25 -5 -72 12
-154 17 -213 21 -225 6 -19 33 -16 39 5 7 23 9 92 2 117 -2 11 -5 32 -5 47 -1
19 -5 26 -15 22 -8 -3 -17 -1 -21 5 -3 7 0 8 9 5 13 -5 16 3 16 42 0 55 11 53
17 -3 2 -21 10 -64 18 -96 25 -98 22 -109 -47 -182 -34 -36 -67 -65 -71 -65
-5 0 -4 7 4 16 10 12 13 69 12 235 0 121 -3 222 -7 226 -6 6 -11 -34 -8 -67 1
-8 -1 -22 -5 -30 -9 -25 -9 -60 1 -60 5 0 1 -9 -8 -19 -10 -10 -14 -21 -9 -24
4 -3 8 -70 7 -149 0 -122 -3 -147 -19 -172 -17 -25 -19 -26 -26 -10 -3 11 -5
35 -4 54 3 37 4 94 5 270 0 58 2 152 5 210 2 58 5 121 6 140 1 19 0 40 -1 45
-1 6 -2 30 -1 55 1 33 4 41 11 30 6 -8 9 -45 9 -81 -1 -37 1 -71 5 -77 3 -6 0
-13 -6 -16 -7 -3 -3 -3 10 0 15 4 22 1 20 -6 -2 -7 3 -15 10 -17 16 -6 15 12
-2 30 -9 9 -13 27 -11 47 5 36 15 52 22 33 3 -7 8 -13 12 -13 10 0 2 51 -10
65 -4 6 -4 17 1 25 5 8 6 18 4 22 -3 4 0 8 5 8 6 0 12 -10 12 -22z m1084
-1400 c-3 -7 8 -38 25 -68 115 -214 297 -604 294 -630 -1 -14 0 -19 2 -13 3 7
5 15 4 19 -1 4 4 10 11 15 11 6 10 11 -3 26 -20 23 -99 202 -100 228 -1 11 -6
26 -11 33 -7 8 -5 12 5 12 8 0 20 -10 25 -22 6 -13 24 -50 39 -83 36 -77 74
-135 88 -135 6 0 20 -15 31 -33 23 -38 31 -58 15 -37 -10 13 -11 13 -7 0 2 -8
12 -14 21 -13 11 0 15 -4 12 -13 -3 -8 -1 -13 4 -11 6 1 21 -22 34 -50 24 -51
23 -66 -2 -41 -9 9 -12 9 -12 1 0 -7 4 -14 10 -18 5 -3 7 -12 3 -20 -3 -8 0
-15 6 -15 6 0 11 5 11 12 0 9 3 9 12 0 10 -10 10 -15 -1 -21 -8 -5 -10 -14 -6
-21 6 -9 9 -9 15 1 9 13 25 -19 54 -105 24 -71 75 -193 96 -233 11 -21 20 -41
20 -45 0 -7 12 -34 71 -166 22 -49 25 -77 7 -66 -8 4 -10 3 -5 -2 5 -5 13 -9
19 -9 8 0 78 -159 77 -175 0 -3 -13 20 -30 50 -19 35 -28 45 -24 28 6 -33 44
-98 56 -98 4 0 14 -10 20 -22 11 -20 10 -22 -3 -10 -13 10 -17 10 -20 0 -3 -7
-24 25 -49 70 -24 45 -48 82 -52 82 -9 0 62 -135 92 -177 9 -12 22 -23 29 -23
6 0 12 -6 12 -13 0 -15 -12 -33 -102 -153 -37 -50 -72 -104 -78 -119 -6 -15
-14 -25 -17 -21 -11 11 -75 189 -77 216 -2 14 -21 63 -44 109 -23 46 -42 93
-42 103 0 10 -13 44 -30 75 -16 31 -30 66 -30 79 0 12 -5 26 -10 29 -6 4 -8
10 -5 15 3 5 -4 26 -15 47 -11 21 -20 41 -20 45 0 4 -15 40 -34 80 -18 40 -46
107 -61 148 -15 41 -47 123 -71 181 -24 59 -44 109 -44 112 0 4 -11 31 -25 61
-14 30 -25 58 -25 61 0 4 -6 21 -14 38 -8 18 -26 66 -41 107 -16 41 -32 80
-36 86 -13 16 2 26 18 13 23 -19 -16 63 -44 92 -14 16 -20 28 -13 31 11 3 -55
141 -89 184 -29 37 -66 143 -53 156 14 14 32 1 32 -22 0 -11 9 -42 19 -70 11
-30 14 -48 8 -44 -7 3 -5 -1 3 -8 20 -18 44 -59 86 -148 83 -175 98 -216 81
-227 -6 -4 0 -10 14 -16 14 -5 19 -11 12 -14 -9 -3 -8 -11 5 -31 9 -14 11 -23
5 -19 -17 11 -16 5 8 -51 44 -100 49 -113 49 -125 0 -8 12 -38 27 -68 15 -30
28 -58 29 -64 1 -5 8 -23 15 -40 7 -16 13 -32 14 -35 1 -3 9 -22 18 -42 10
-21 17 -43 17 -50 0 -7 7 -33 16 -58 26 -72 33 -89 63 -147 55 -107 73 -147
75 -166 3 -23 9 -41 31 -92 6 -16 18 -46 25 -65 8 -19 20 -44 27 -55 7 -11 13
-27 13 -36 0 -9 9 -27 20 -40 16 -19 19 -20 11 -4 -12 23 -34 82 -63 170 -11
33 -24 69 -30 80 -8 13 -8 20 0 23 6 2 8 10 5 18 -3 7 -9 12 -13 9 -5 -3 -16
12 -26 32 -9 21 -39 82 -65 137 -27 54 -49 106 -49 115 0 21 -57 171 -72 188
-6 8 -8 16 -4 20 3 4 13 -2 21 -13 12 -14 11 -10 -2 19 -11 25 -19 33 -25 25
-5 -9 -8 -6 -8 10 0 12 5 22 11 22 5 0 7 5 4 10 -4 6 -10 8 -14 5 -5 -2 -13 6
-19 20 -8 17 -8 25 0 27 8 3 8 10 -1 24 -10 15 -11 15 -7 2 3 -10 1 -18 -4
-18 -11 0 -34 40 -27 47 3 2 -2 21 -10 41 -27 63 -33 110 -14 117 14 6 14 8 1
18 -23 18 -90 173 -92 212 -1 19 -5 32 -9 30 -4 -3 -9 1 -12 9 -4 9 0 12 13 9
16 -4 34 -36 31 -56 -1 -4 5 -18 14 -30 8 -12 15 -34 15 -49 0 -15 5 -30 10
-33 6 -3 10 -17 10 -30 0 -13 5 -27 10 -30 12 -8 12 -1 -1 55 -6 25 -12 52
-13 60 -1 8 -7 25 -14 38 -7 12 -10 27 -7 33 6 9 -41 117 -56 129 -3 3 -16 25
-27 50 -12 25 -35 69 -51 98 -17 29 -31 58 -31 63 0 6 -7 18 -16 26 -13 13
-13 17 -2 24 7 5 9 9 3 9 -5 0 -3 5 5 10 19 13 20 12 15 -2z m-1059 -1120 c9
-102 15 -211 15 -330 0 -71 3 -128 6 -128 11 0 32 29 23 32 -12 4 -20 128 -8
128 5 0 7 8 4 18 -3 9 -8 64 -10 122 -3 58 -8 118 -11 133 -5 16 -3 27 3 27
18 0 21 -14 31 -147 6 -72 13 -150 16 -174 6 -41 5 -43 -9 -25 -9 11 -16 15
-16 9 0 -7 7 -19 17 -28 13 -13 14 -18 3 -25 -7 -5 -9 -13 -4 -21 4 -7 9 -27
11 -44 2 -27 1 -28 -11 -12 -12 15 -13 9 -10 -50 3 -48 1 -62 -5 -48 -5 11
-10 31 -10 45 -1 14 -5 31 -10 39 -6 9 -7 -7 -4 -40 2 -30 7 -96 10 -147 3
-51 8 -91 10 -88 12 12 20 79 13 116 -4 22 -3 43 1 46 5 3 9 -2 9 -10 0 -9 5
-16 10 -16 6 0 8 11 4 25 -4 15 -2 25 4 25 6 0 11 -26 11 -60 0 -33 3 -65 6
-70 3 -5 -18 -35 -47 -67 -29 -32 -61 -69 -70 -83 l-17 -25 -1 30 c-1 17 -3
38 -5 48 -2 9 1 17 6 17 6 0 8 3 5 8 -2 4 -7 158 -10 342 -3 184 -7 350 -9
368 -2 19 0 29 6 23 5 -5 11 -60 14 -123 3 -62 8 -131 12 -153 3 -22 4 -60 1
-85 -8 -68 11 -403 22 -392 6 6 6 82 0 203 -5 107 -9 217 -8 244 0 28 -3 129
-8 225 -5 96 -5 172 -2 168 4 -3 9 -26 12 -50z m-61 -284 c6 -176 7 -454 3
-541 -3 -56 -10 -82 -28 -113 -14 -22 -28 -40 -33 -40 -11 0 4 53 19 65 7 6
15 46 18 95 8 112 8 89 6 380 -2 296 -2 295 5 288 3 -3 7 -63 10 -134z"/>
<path d="M6409 5409 c-18 -18 -21 -30 -17 -71 6 -54 19 -75 40 -62 7 5 47 9
88 9 l75 0 3 33 c4 40 -29 97 -61 106 -49 13 -107 6 -128 -15z"/>
<path d="M5982 5327 c-21 -22 -49 -83 -47 -102 0 -5 4 -23 8 -39 7 -23 12 -27
30 -22 53 16 127 19 142 6 22 -18 35 -2 42 48 12 89 -21 132 -101 132 -42 0
-57 -5 -74 -23z"/>
<path d="M6568 4812 c-9 -4 -33 -26 -52 -49 -32 -37 -36 -47 -36 -100 0 -33
10 -94 24 -139 21 -71 26 -79 50 -82 19 -2 26 1 26 14 0 14 7 16 48 9 26 -4
57 -8 69 -9 12 0 28 -7 35 -13 18 -19 37 -16 31 6 -4 15 2 19 32 23 31 4 38 1
46 -19 5 -13 11 -23 13 -23 15 0 58 21 53 26 -3 3 -1 18 5 33 15 36 11 76 -12
121 -11 22 -20 48 -20 58 0 11 -7 25 -16 33 -8 7 -24 30 -35 51 -27 54 -62 68
-161 67 -46 0 -91 -3 -100 -7z m250 -94 c11 -18 18 -36 16 -40 -6 -9 -218 -11
-251 -2 -26 7 -27 12 -13 48 9 26 11 26 119 26 l109 0 20 -32z m-298 -56 c0
-4 74 -9 165 -9 91 -1 169 -4 174 -8 5 -3 15 -21 21 -41 11 -31 10 -37 -7 -49
-17 -14 -17 -14 0 -15 10 0 17 -6 15 -12 -6 -16 -88 -24 -88 -9 0 7 -44 10
-131 8 l-131 -2 -15 50 c-25 87 -26 95 -14 95 6 0 11 -4 11 -8z"/>
<path d="M5650 4561 c-57 -12 -78 -29 -106 -82 -14 -28 -34 -54 -45 -56 -21
-6 -25 -19 -7 -25 7 -3 3 -23 -15 -60 -33 -68 -34 -104 -6 -168 27 -63 79 -82
79 -29 0 18 8 19 140 19 134 0 140 -1 140 -20 0 -24 21 -34 54 -26 19 5 24 14
29 57 4 32 14 61 27 74 16 17 20 35 20 94 0 69 -2 76 -44 141 -37 57 -51 71
-83 79 -42 12 -128 13 -183 2z m170 -71 c11 0 22 -12 29 -31 21 -61 25 -59
-142 -59 -85 0 -156 3 -160 6 -3 4 3 24 13 45 20 38 21 38 87 42 38 2 88 2
112 1 24 -2 52 -4 61 -4z m113 -103 c3 -7 -6 -35 -18 -63 -13 -27 -24 -60 -25
-74 -1 -52 -4 -53 -204 -54 -156 -1 -188 1 -196 14 -23 35 -22 62 5 118 l27
57 178 0 178 0 -5 -50 c-4 -28 -13 -55 -22 -62 -15 -11 -15 -12 0 -13 19 0 39
40 39 80 0 15 3 35 6 44 7 19 30 21 37 3z"/>
<path d="M8404 7949 c-2 -3 33 -9 77 -12 44 -3 83 -8 87 -11 3 -4 -39 -52 -94
-109 -55 -56 -114 -119 -132 -140 -21 -25 -38 -37 -48 -33 -13 5 -15 -59 -10
-567 l5 -572 -22 -17 c-21 -16 -21 -18 -6 -44 16 -26 15 -27 -27 -66 -24 -22
-44 -48 -44 -58 0 -26 36 -53 61 -47 39 10 49 -1 49 -62 l0 -57 -60 -28 c-85
-41 -89 -48 -53 -99 l30 -43 -41 -38 c-23 -20 -52 -46 -66 -56 -23 -16 -24
-21 -14 -48 8 -20 8 -34 2 -40 -6 -6 -16 -21 -22 -34 -7 -13 -28 -28 -51 -36
-79 -26 -85 -58 -25 -117 22 -21 40 -44 40 -50 -1 -5 -14 -26 -30 -45 -48 -55
-41 -83 28 -127 65 -42 85 -63 71 -77 -16 -17 -10 -39 18 -68 30 -32 53 -35
88 -12 36 23 52 12 60 -42 4 -27 13 -57 21 -68 8 -11 14 -32 14 -46 0 -29 -25
-70 -43 -71 -7 0 -32 -30 -56 -67 -37 -56 -42 -70 -34 -91 7 -20 5 -32 -10
-53 -19 -25 -19 -28 -3 -52 19 -30 28 -32 60 -11 21 14 23 13 36 -10 7 -14 21
-25 31 -25 18 0 18 -33 13 -777 -4 -455 -10 -785 -16 -796 -5 -9 -6 -21 -3
-26 3 -5 7 -73 10 -150 l4 -141 -30 0 c-18 0 -28 -4 -24 -10 3 -5 20 -10 38
-10 46 0 20 -18 -33 -23 l-45 -4 53 -1 c33 -1 52 -6 53 -14 1 -7 2 -20 3 -28
2 -8 3 -27 4 -42 1 -16 7 -28 13 -28 8 0 10 17 6 53 -3 30 -2 58 1 63 4 5 99
9 212 10 113 0 354 1 535 2 182 1 386 0 455 -3 69 -3 206 -7 305 -9 l180 -4
-150 11 c-220 18 -141 27 250 27 182 1 366 3 410 4 44 2 104 4 133 5 37 1 52
5 52 15 0 8 -6 16 -12 19 -7 2 13 8 44 12 46 6 60 4 73 -9 9 -9 21 -16 26 -16
13 0 11 18 -3 23 -7 3 7 6 32 8 25 1 59 3 75 4 17 1 36 -3 43 -8 9 -7 17 -6
24 1 7 7 23 12 36 12 14 0 21 4 17 11 -4 6 -21 10 -39 9 -55 -3 -63 0 -37 14
22 12 16 14 -74 26 -88 11 -157 27 -130 30 6 1 69 1 140 2 95 0 119 2 90 9
-22 4 -66 8 -97 8 -31 1 -59 5 -62 10 -8 12 42 23 91 21 21 -1 49 -1 63 -1 21
1 22 3 8 11 -9 6 -102 10 -207 10 -105 1 -191 5 -191 9 0 13 47 22 75 15 14
-3 25 -2 25 4 0 12 79 21 86 10 3 -4 -2 -8 -10 -8 -9 0 -16 -3 -16 -8 0 -7
269 13 277 21 7 8 -214 31 -289 31 -43 0 -78 3 -78 7 0 4 13 17 30 29 82 59
206 260 268 435 35 99 82 258 86 290 7 51 66 338 78 377 6 20 8 44 4 53 -3 10
-2 14 5 10 23 -15 -5 331 -41 515 -12 58 -23 119 -26 135 -6 46 -25 93 -67
167 -20 36 -37 71 -37 77 0 21 -124 186 -192 254 -37 38 -68 73 -68 77 0 4 10
18 21 31 31 34 109 155 109 169 0 6 7 21 15 33 8 13 16 32 18 44 1 12 7 27 13
35 11 15 53 145 60 186 2 15 6 38 9 52 7 37 36 287 40 345 2 28 6 61 9 74 17
74 7 329 -14 356 -4 6 -10 25 -13 43 -6 30 -5 33 13 27 26 -8 25 -4 -5 29 -26
28 -32 46 -15 46 15 0 12 16 -6 34 -8 9 -12 16 -8 16 3 0 2 6 -3 13 -6 6 -20
50 -33 97 -12 47 -30 94 -39 105 -25 28 -37 50 -23 41 24 -15 -58 113 -107
167 -22 24 -23 27 -6 21 11 -4 35 -16 53 -27 17 -10 32 -16 32 -13 0 3 -32 24
-70 46 -39 22 -95 66 -126 97 -59 58 -99 83 -251 158 -50 25 -93 50 -95 56 -4
13 -316 96 -404 108 -34 4 -67 12 -74 16 -22 14 -1427 28 -1436 14z m851 -45
c171 -3 330 -7 355 -9 25 -2 83 -5 130 -6 47 0 91 -6 98 -11 6 -6 12 -8 12 -5
0 4 19 -1 42 -9 27 -9 44 -11 48 -4 6 10 60 -8 60 -21 0 -3 17 -6 38 -7 51 -2
254 -63 335 -100 37 -17 100 -53 140 -80 82 -56 223 -200 264 -270 15 -26 42
-69 60 -96 52 -80 131 -322 121 -373 -2 -14 -7 -12 -21 11 -14 21 -16 30 -6
42 10 13 6 18 -13 15 -4 0 -10 16 -14 36 -4 20 -15 46 -25 57 -24 25 -24 13 1
-59 11 -32 20 -63 20 -69 -1 -17 -30 41 -51 102 -10 30 -24 60 -29 67 -6 7
-10 17 -8 21 1 5 -3 18 -9 30 -16 28 -159 166 -203 196 -69 47 -150 89 -150
79 0 -6 13 -17 28 -25 16 -8 35 -22 43 -32 18 -22 115 -94 127 -94 12 0 83
-75 81 -86 -3 -13 18 -61 31 -69 24 -15 129 -250 157 -350 12 -44 -15 3 -38
65 -48 133 -173 325 -267 410 -178 161 -435 303 -647 356 -88 22 -380 40 -525
32 -69 -3 -253 -7 -410 -8 -157 -1 -355 -5 -440 -8 -85 -4 -173 -5 -194 -2
l-39 5 112 111 c61 61 111 117 111 123 0 7 5 21 10 32 10 18 20 18 183 14 95
-3 312 -8 482 -11z m-810 -300 c39 0 75 -2 80 -3 6 -1 282 -4 615 -5 333 -2
614 -5 625 -8 11 -3 52 -8 90 -13 39 -4 88 -13 110 -21 22 -7 69 -20 105 -29
139 -34 282 -103 402 -192 132 -98 205 -181 270 -309 58 -113 141 -346 153
-424 4 -24 9 -49 12 -53 13 -21 4 -425 -11 -522 -20 -121 -33 -172 -47 -180
-9 -6 -101 63 -125 94 -8 10 -4 31 18 83 15 39 28 79 28 89 0 22 -32 45 -75
54 -59 13 -60 14 -37 38 18 19 20 29 13 53 -6 20 -3 51 7 92 20 81 10 102 -63
138 -52 25 -61 26 -89 15 -60 -25 -67 -25 -73 -3 -5 21 -36 38 -59 34 -7 -1
-14 7 -17 18 -5 20 -7 20 -44 5 -61 -27 -71 -29 -52 -13 9 7 14 19 12 26 -3 8
6 12 26 12 35 0 38 6 15 31 -15 17 -15 19 10 30 30 14 31 18 11 65 -13 32 -13
38 0 57 23 33 19 66 -11 79 -21 10 -25 17 -20 42 3 17 2 36 -2 42 -25 37 -145
52 -179 22 -10 -8 -33 -23 -51 -32 -31 -16 -34 -16 -59 4 -30 23 -51 25 -76 6
-11 -9 -15 -20 -10 -32 6 -18 6 -18 -10 -3 -13 13 -14 24 -7 49 11 40 4 54
-53 107 -25 23 -41 45 -37 50 4 4 10 22 13 40 5 26 2 36 -19 52 -14 11 -38 23
-55 26 -31 7 -35 5 -104 -49 -26 -21 -39 -26 -44 -18 -5 8 -14 2 -29 -18 -28
-37 -59 -39 -72 -5 -5 14 -21 30 -35 37 -15 6 -29 25 -36 47 -15 46 -20 51
-45 45 -20 -5 -20 -7 9 -35 22 -23 28 -35 23 -54 -5 -21 -3 -25 17 -25 17 0
32 -12 51 -41 l27 -40 46 25 c25 14 51 26 59 26 7 0 19 9 26 19 24 34 85 64
116 56 15 -4 30 -12 34 -18 14 -22 8 -56 -13 -70 -20 -15 -20 -15 13 -38 45
-31 59 -50 54 -72 -3 -13 0 -17 10 -13 22 8 17 -10 -8 -28 l-23 -17 25 7 c22
5 23 4 10 -7 -8 -8 -26 -27 -40 -42 -18 -21 -20 -26 -7 -21 9 3 17 11 17 16 0
13 52 0 63 -15 4 -7 5 -34 2 -60 -3 -35 -1 -47 8 -44 6 2 13 17 13 33 1 16 2
37 3 47 1 10 9 17 21 17 25 0 26 16 3 29 -14 8 -15 12 -6 22 10 10 18 10 40 0
26 -12 27 -13 8 -24 -19 -11 -18 -12 10 -17 24 -5 40 1 76 27 42 30 53 33 117
33 82 0 99 -12 77 -53 -17 -33 -11 -55 18 -59 30 -4 31 -22 2 -56 l-25 -30 29
-25 c29 -24 30 -25 11 -42 -11 -10 -28 -18 -39 -19 -20 -1 -241 -208 -241
-226 0 -11 48 5 70 24 31 27 44 28 21 3 -32 -35 -19 -34 26 0 38 29 38 27 -3
-37 -11 -16 -11 -19 -1 -7 20 24 30 21 22 -5 -5 -20 -4 -21 5 -5 6 9 9 21 6
26 -9 14 20 32 40 25 15 -5 16 -4 4 5 -8 5 -12 12 -9 15 8 8 69 -17 69 -27 0
-5 -14 -22 -31 -38 -18 -16 -28 -33 -24 -37 4 -4 22 10 40 31 37 42 60 44 83
6 11 -17 11 -23 2 -29 -7 -4 -8 -10 -3 -13 16 -10 32 8 27 30 -7 25 -77 77
-117 87 -23 5 -26 9 -17 26 19 36 76 38 63 2 -3 -9 -3 -14 2 -10 4 4 21 0 37
-10 28 -16 30 -16 44 3 15 19 15 19 9 -7 -7 -27 -6 -27 31 -23 22 3 51 10 65
16 34 14 99 -3 136 -35 l28 -24 -22 -30 c-15 -21 -19 -32 -11 -40 8 -8 6 -22
-5 -50 -15 -37 -15 -41 0 -46 12 -5 13 -9 3 -21 -7 -8 -18 -15 -24 -14 -7 0
-6 2 2 6 20 8 14 26 -8 20 -11 -3 -22 -2 -25 3 -8 12 -60 6 -79 -9 -13 -11
-14 -16 -4 -22 9 -6 5 -11 -12 -18 -14 -5 -18 -10 -10 -10 23 -1 41 14 38 30
-2 8 5 14 14 14 9 0 20 4 24 8 18 18 25 5 8 -15 -16 -19 -16 -20 -1 -9 9 8 20
11 24 8 9 -10 -48 -52 -72 -53 -11 -1 -24 -2 -30 -4 -14 -4 -66 18 -87 37 -10
9 -18 11 -18 5 0 -6 18 -25 40 -42 22 -17 40 -39 40 -48 0 -15 14 -8 16 9 1 5
2 14 3 19 0 6 6 10 12 10 5 0 7 -4 4 -10 -11 -17 11 -11 49 15 43 29 49 30 66
10 7 -8 26 -15 42 -15 41 0 88 -27 88 -50 0 -10 -10 -26 -22 -34 -12 -9 -17
-16 -11 -16 18 0 5 -52 -20 -78 l-22 -23 40 -33 39 -34 -51 -53 c-68 -71 -143
-165 -143 -178 0 -15 13 -14 28 1 9 9 15 9 20 2 4 -5 19 -11 33 -12 20 -1 33
7 52 36 33 46 130 142 146 142 16 0 14 -10 -8 -46 -10 -17 -21 -40 -23 -50 -2
-13 -12 -19 -28 -19 -16 0 -25 -6 -25 -15 0 -8 5 -14 12 -13 6 1 10 -5 8 -15
-2 -13 -11 -16 -39 -14 -40 3 -80 -13 -70 -29 4 -6 11 -6 19 1 15 12 55 5 55
-10 0 -5 -22 -32 -49 -61 l-48 -52 -34 24 c-19 13 -35 27 -37 32 -5 10 -40 9
-46 -2 -3 -5 5 -12 19 -15 14 -4 25 -10 25 -15 0 -5 14 -14 30 -21 29 -12 30
-14 14 -31 -10 -11 -23 -19 -29 -19 -7 0 -15 -7 -19 -15 -3 -8 -12 -15 -20
-15 -8 0 -16 -3 -18 -7 -6 -15 -89 -75 -106 -78 -20 -3 -17 -36 3 -48 8 -4 21
-15 30 -23 9 -9 38 -28 65 -41 51 -25 171 -137 169 -157 0 -6 -3 -5 -6 2 -4 9
-8 10 -18 2 -10 -8 -15 -8 -20 1 -6 8 -10 8 -16 -2 -6 -11 -16 -11 -50 -2 -35
9 -47 8 -66 -4 -17 -11 -21 -19 -14 -26 7 -7 14 -8 21 -1 5 5 26 8 46 6 33 -4
35 -6 29 -31 -4 -14 -8 -30 -9 -36 -7 -34 -19 -55 -32 -55 -8 0 -13 -4 -10 -9
3 -5 -8 -23 -24 -41 -16 -18 -36 -44 -43 -58 -7 -15 -19 -27 -27 -27 -8 0 -21
-4 -28 -9 -20 -12 -50 20 -34 36 20 20 13 32 -8 13 -18 -16 -20 -16 -20 -2 0
10 6 17 13 18 9 0 9 2 0 5 -7 3 -9 12 -6 20 9 25 -14 15 -33 -13 -10 -16 -17
-30 -17 -33 3 -19 -19 -37 -41 -33 -26 5 -26 33 0 33 8 0 14 5 14 11 0 11 -15
5 -42 -19 -11 -9 -28 -13 -47 -9 -29 6 -49 -13 -35 -34 3 -6 0 -17 -8 -26 -11
-14 -10 -15 7 -9 18 5 21 1 23 -24 2 -25 -3 -32 -25 -41 -39 -15 -85 -18 -106
-7 -16 8 -13 14 25 62 24 29 54 68 68 86 47 64 82 100 91 94 5 -3 6 2 3 11 -7
16 2 28 65 91 19 19 29 34 22 34 -7 0 -11 6 -8 14 4 10 0 12 -14 9 -11 -3 -19
0 -19 6 0 9 -5 9 -21 0 -20 -10 -21 -9 -16 10 3 11 1 21 -4 21 -5 0 -9 -4 -9
-10 0 -5 -5 -10 -10 -10 -7 0 -7 7 0 21 21 39 4 29 -28 -16 -37 -53 -39 -59
-12 -52 11 3 22 2 25 -3 7 -11 -32 -43 -45 -35 -6 4 -22 0 -35 -9 -29 -19 -35
-20 -35 -5 0 17 41 81 48 75 2 -3 -1 -12 -8 -21 -7 -9 -10 -18 -7 -22 4 -3 12
7 19 23 7 16 17 32 23 37 5 4 0 6 -12 4 -13 -2 -33 -12 -45 -23 -69 -59 -70
-60 -34 -5 20 29 36 58 36 64 0 17 -40 -25 -67 -70 -14 -24 -29 -43 -33 -43
-14 0 -23 41 -11 53 13 13 15 47 3 47 -15 0 -52 -46 -57 -70 -2 -12 -7 -25
-11 -29 -4 -3 -4 3 -1 14 6 18 5 17 -9 -2 -20 -27 -46 -31 -38 -5 2 9 -1 6 -8
-7 -10 -19 -10 -25 0 -29 7 -2 10 -8 6 -13 -3 -5 -12 -3 -19 5 -12 12 -11 20
6 55 18 39 38 58 25 26 -12 -34 27 -5 49 35 5 10 1 8 -13 -4 -26 -22 -30 -11
-5 16 9 11 11 18 5 18 -7 0 -12 -4 -12 -10 0 -5 -4 -10 -10 -10 -5 0 -10 7
-10 15 0 8 4 15 9 15 5 0 12 7 15 16 4 11 -2 10 -24 -6 -49 -35 -34 -10 37 62
45 45 75 68 91 68 12 0 25 7 28 15 4 8 11 15 17 15 7 0 7 -4 -1 -12 -20 -20
-14 -27 16 -19 15 4 32 6 38 4 7 -2 22 11 34 29 l22 33 -28 -30 c-17 -19 -29
-25 -32 -17 -2 6 -7 10 -10 8 -4 -2 -13 2 -19 10 -10 10 -9 16 10 29 12 9 22
26 22 40 1 27 -5 31 -21 15 -7 -7 -19 -8 -37 -1 -18 7 -28 7 -33 0 -4 -7 -10
-7 -18 0 -7 6 -16 8 -19 5 -4 -4 -20 -1 -37 6 -23 10 -30 18 -27 32 6 21 -8
25 -16 4 -4 -9 -14 -12 -26 -9 -24 6 -26 14 -8 32 10 11 8 12 -11 6 -23 -7
-23 -6 -8 24 23 44 20 45 -17 5 -30 -33 -35 -35 -49 -21 -9 9 -18 14 -21 11
-3 -4 -11 -3 -17 1 -8 5 -8 10 -2 14 5 3 12 17 16 31 l7 25 -20 -23 c-13 -15
-21 -18 -24 -10 -3 8 -6 6 -6 -5 -1 -10 -5 -15 -11 -12 -5 3 -10 1 -10 -4 0
-6 -7 -11 -15 -11 -8 0 -15 -4 -15 -10 0 -5 -4 -10 -10 -10 -18 0 -11 15 23
53 35 39 72 97 63 97 -3 0 -18 -18 -32 -40 -30 -45 -47 -45 -34 0 5 17 5 30 0
30 -4 0 -11 -20 -14 -45 -4 -25 -11 -45 -16 -45 -5 0 -7 8 -4 18 3 9 -3 4 -12
-13 -10 -16 -17 -36 -16 -42 2 -7 -2 -13 -8 -13 -13 0 -13 35 1 63 10 21 9 21
-10 -2 -12 -13 -21 -29 -21 -37 0 -8 -5 -14 -10 -14 -14 0 -3 99 16 153 8 22
14 45 13 51 0 17 -49 -116 -49 -136 0 -9 -6 -18 -12 -21 -10 -3 -10 -7 1 -20
8 -11 9 -17 2 -17 -6 0 -13 12 -17 28 -10 47 -12 48 -13 7 -1 -30 -4 -36 -11
-25 -6 8 -8 42 -5 75 l5 60 -15 -54 c-9 -30 -13 -62 -10 -72 5 -14 1 -16 -15
-12 -11 3 -20 0 -20 -6 0 -15 -37 -14 -42 2 -3 6 -4 40 -3 74 0 34 -2 60 -6
57 -4 -2 -8 -12 -8 -22 -1 -17 -7 -71 -9 -84 -1 -3 -10 -4 -20 -1 -16 4 -18
13 -16 61 l3 57 -13 -55 c-8 -30 -14 -48 -15 -40 -1 13 -3 13 -10 1 -8 -12
-14 -11 -38 4 -15 11 -32 20 -38 21 -5 0 -12 2 -15 3 -13 7 -50 7 -50 0 0 -3
25 -19 56 -33 56 -26 56 -27 51 -62 -7 -44 -18 -57 -66 -82 -36 -19 -64 -17
-60 4 1 5 1 25 0 43 -1 41 -13 32 -31 -21 -7 -23 -23 -44 -41 -55 -16 -10 -29
-21 -29 -25 0 -4 -7 -8 -15 -8 -8 0 -15 -5 -15 -12 0 -9 -3 -9 -12 0 -9 9 -10
15 -2 20 15 9 27 62 15 62 -5 0 -25 -17 -45 -37 -33 -35 -36 -36 -60 -23 -36
19 -41 8 -11 -24 19 -21 23 -31 15 -50 -13 -35 -77 -80 -115 -82 -30 -1 -33 2
-28 25 l4 25 -19 -24 c-11 -14 -23 -40 -27 -59 -6 -29 -5 -33 9 -28 25 10 19
-8 -19 -49 -31 -35 -49 -84 -25 -69 6 3 10 11 10 17 0 18 72 92 110 112 l35
18 -23 -24 c-12 -14 -19 -27 -16 -31 4 -3 -16 -32 -42 -64 -27 -32 -41 -52
-32 -45 13 10 22 11 40 2 22 -11 22 -10 4 4 -11 9 -18 17 -15 18 2 2 19 17 38
33 23 20 32 24 28 13 -8 -23 -4 -23 18 2 17 18 17 20 2 14 -24 -9 -21 5 5 28
17 15 19 21 9 27 -9 6 -10 11 -2 15 6 4 11 2 11 -5 0 -7 8 -5 20 6 11 10 23
15 27 11 5 -4 -1 -12 -11 -18 -13 -7 -15 -12 -6 -18 8 -5 1 -21 -25 -56 -116
-156 -115 -155 -151 -129 -12 8 -39 15 -60 16 -53 3 -75 15 -67 37 5 14 4 15
-8 4 -10 -10 -11 -19 -2 -42 9 -23 8 -30 -1 -30 -7 0 -31 -21 -54 -46 -22 -25
-45 -43 -51 -40 -15 10 -73 -18 -100 -48 -14 -14 -28 -26 -32 -26 -10 0 -10
266 1 292 18 43 39 63 52 50 15 -15 18 -52 4 -52 -6 0 -16 -16 -22 -35 -6 -19
-7 -35 -3 -35 5 0 9 5 9 10 0 6 18 30 40 54 43 47 48 56 26 56 -22 0 -46 45
-44 85 1 20 5 38 9 40 4 3 5 14 2 24 -3 10 0 30 7 42 9 19 4 17 -20 -9 -17
-18 -28 -37 -26 -41 3 -4 -9 -21 -26 -37 -26 -25 -29 -26 -19 -6 7 12 9 28 5
35 -4 6 -4 9 1 5 4 -4 19 14 33 40 14 26 38 63 53 82 38 49 94 147 74 130 -9
-7 -32 -37 -51 -66 -23 -35 -40 -51 -50 -47 -18 7 -18 22 1 29 8 4 15 12 15
20 0 8 4 14 8 14 5 0 18 14 30 30 28 37 24 38 -14 3 -36 -34 -84 -98 -84 -112
0 -6 -4 -11 -10 -11 -12 0 0 34 41 108 31 57 32 57 5 33 -14 -14 -26 -32 -26
-42 0 -9 -6 -22 -14 -28 -11 -10 -13 -2 -11 46 3 75 3 73 19 67 8 -3 17 -1 21
5 3 7 -2 11 -14 11 -11 0 -23 5 -27 11 -11 18 -14 360 -4 399 5 19 28 57 50
84 22 26 40 53 40 58 0 6 16 33 36 62 l36 51 -41 -44 c-23 -24 -44 -41 -47
-38 -13 12 107 164 141 177 18 7 18 9 3 15 -21 9 -56 -17 -94 -69 -48 -67 -85
-106 -102 -106 -13 0 -12 3 3 20 17 19 10 28 -11 13 -5 -5 0 1 12 12 44 41
122 136 127 155 7 27 -10 26 -18 -1 -6 -19 -127 -149 -139 -149 -14 0 10 39
34 53 15 9 30 28 32 41 l5 24 -29 -21 c-25 -18 -30 -19 -38 -7 -6 10 -3 22 12
37 20 21 20 22 0 16 -18 -4 -20 1 -23 44 -6 80 -1 106 22 100 23 -6 25 10 3
34 -9 10 -17 32 -17 50 -2 30 3 36 38 52 62 30 107 33 129 8 l19 -21 24 26
c13 14 30 23 38 20 19 -7 30 11 16 27 -7 9 -6 20 2 36 17 33 48 43 83 25 22
-12 30 -12 33 -3 5 17 44 55 61 61 8 2 10 9 6 16 -6 9 -19 3 -47 -23 -32 -29
-43 -34 -59 -25 -39 21 -68 12 -95 -30 -13 -21 -34 -44 -45 -50 -11 -6 -20
-18 -20 -26 0 -13 -2 -13 -22 0 -30 21 -61 20 -105 -4 -21 -11 -43 -20 -50
-20 -10 0 -13 62 -13 286 0 158 -5 374 -11 480 -9 155 -9 197 2 210 7 9 18 12
28 7 9 -4 48 -8 86 -9z m-138 -1762 c3 -277 2 -282 -20 -314 -49 -73 -93 -127
-112 -139 -17 -10 -18 -10 -9 2 73 98 76 104 21 44 -67 -71 -87 -68 -26 4 23
28 40 54 37 57 -4 4 -48 -46 -74 -84 -1 -2 -12 -1 -24 3 -15 5 -19 12 -15 23
5 14 4 15 -6 5 -19 -19 -42 -16 -57 7 -15 24 -5 49 33 78 13 11 21 22 17 26
-3 4 1 4 9 1 9 -3 22 2 30 11 12 15 12 16 -9 10 -21 -7 -22 -5 -16 20 6 23 4
26 -10 21 -13 -5 -19 -1 -23 13 -3 12 -11 19 -17 17 -14 -5 -46 11 -46 23 0 5
19 20 43 32 42 22 47 24 80 26 9 1 17 8 17 16 0 8 6 17 13 20 6 3 2 3 -10 0
-17 -4 -23 -1 -23 11 0 9 7 16 18 14 31 -3 32 1 12 39 l-20 37 21 18 c12 9 27
17 34 17 7 0 20 12 30 26 11 17 23 24 35 21 10 -2 24 -1 31 4 11 6 7 15 -18
38 -18 16 -34 35 -34 40 -1 6 -2 17 -3 24 -2 16 64 79 78 74 8 -2 12 -94 13
-285z m7 -384 c-2 -35 -3 -83 -3 -108 -1 -25 -6 -52 -11 -60 -8 -13 -11 -13
-27 3 -15 15 -16 21 -4 50 7 17 15 43 18 57 4 22 2 21 -17 -9 -11 -18 -19 -36
-16 -38 8 -9 -65 -93 -80 -93 -8 0 -14 3 -14 8 1 13 27 42 38 42 6 0 9 7 5 16
-4 11 -13 14 -29 10 -13 -4 -24 -5 -24 -3 0 2 25 30 55 63 30 32 62 74 72 92
27 50 39 40 37 -30z m2573 -172 c39 -61 133 -250 133 -267 0 -8 5 -20 11 -26
6 -6 9 -19 7 -29 -2 -13 -13 1 -32 41 -90 189 -116 231 -209 343 -85 103 -81
135 6 41 33 -35 71 -81 84 -103z m-827 33 c13 -10 13 -10 -1 -6 -20 7 -104
-59 -130 -103 -14 -22 -23 -29 -28 -21 -6 9 -11 7 -22 -5 -9 -12 -10 -15 -1
-10 6 4 12 3 12 -1 0 -5 -9 -14 -20 -20 -17 -11 -18 -10 -13 5 7 17 -54 -32
-109 -90 -29 -28 -38 -56 -15 -41 6 4 4 -5 -6 -20 -9 -15 -13 -27 -7 -27 5 0
10 -8 10 -17 1 -15 4 -14 22 7 11 14 25 24 29 23 11 -3 11 0 3 21 -3 9 -11 13
-16 10 -6 -4 -5 4 2 16 11 21 10 22 -6 16 -11 -4 -8 2 10 19 35 33 38 32 20
-10 -8 -21 -10 -35 -4 -35 5 0 10 6 11 13 0 14 59 63 59 49 0 -6 -11 -19 -24
-29 -17 -13 -27 -32 -31 -65 -7 -45 -6 -48 19 -58 14 -5 26 -12 26 -15 0 -16
-68 -152 -82 -163 -23 -18 -91 45 -90 85 2 76 14 168 24 180 6 7 7 13 3 13 -5
0 0 9 10 20 10 11 14 20 10 20 -23 0 111 114 140 119 9 2 38 25 130 105 33 28
43 31 65 15z m-423 -51 c2 -115 4 -123 15 -103 10 19 75 85 83 85 3 0 -9 -26
-25 -57 -45 -88 -74 -173 -73 -211 1 -24 -2 -31 -8 -21 -5 8 -9 11 -9 7 0 -3
-3 -14 -7 -24 -4 -11 -3 -15 5 -10 6 3 4 -7 -5 -24 -8 -17 -12 -37 -9 -45 3
-8 2 -15 -3 -15 -5 0 -8 -12 -8 -26 0 -15 -6 -30 -13 -34 -9 -5 -9 -9 -1 -14
6 -4 11 -15 10 -24 0 -14 -2 -13 -8 3 -6 15 -9 11 -14 -20 -10 -61 -8 -255 2
-255 6 0 9 -8 9 -17 0 -10 2 -52 6 -93 3 -41 8 -172 11 -290 3 -118 8 -228 10
-245 13 -104 18 -125 27 -125 5 0 7 8 4 18 -4 10 -8 51 -11 91 -2 40 -7 76
-10 81 -3 5 -1 11 4 14 13 8 21 -30 21 -99 0 -34 5 -66 11 -72 8 -8 8 -17 -3
-32 -18 -25 -11 -76 27 -211 34 -118 57 -165 104 -207 33 -30 41 -33 97 -31
46 2 71 -3 105 -21 24 -13 55 -27 68 -32 21 -8 22 -8 11 6 -7 8 -9 15 -4 15 9
0 -13 14 -63 41 -12 6 -24 18 -27 25 -5 14 -2 13 51 -14 13 -7 30 -12 38 -12
8 0 15 -4 15 -9 0 -5 15 -13 33 -16 17 -4 35 -12 39 -18 4 -6 10 -9 13 -6 10
11 -6 36 -29 47 -35 16 -97 73 -90 83 3 5 14 9 25 9 11 0 17 -5 14 -10 -4 -6
-11 -7 -17 -4 -6 4 -9 1 -6 -7 3 -9 20 -14 48 -15 24 0 46 -6 48 -12 2 -7 11
-12 21 -12 9 0 26 -6 36 -14 12 -9 26 -11 35 -6 16 8 108 -3 150 -19 49 -18
100 -21 100 -5 0 10 -13 14 -47 14 -31 0 -57 7 -72 19 -30 23 -14 35 31 23 39
-10 118 -4 118 9 0 5 -17 9 -37 9 -21 0 -81 0 -133 0 l-95 0 35 20 c47 26 20
26 -31 0 -49 -26 -69 -17 -38 16 29 31 18 30 -35 -1 -24 -14 -45 -22 -49 -19
-3 4 6 22 20 41 36 47 20 56 -18 9 -34 -40 -43 -40 -44 2 0 15 -4 25 -10 22
-5 -3 -9 -11 -9 -17 2 -11 -28 -19 -39 -10 -2 1 -11 -3 -19 -10 -22 -18 -79 1
-119 40 -35 34 -61 80 -101 181 -19 50 -21 60 -8 64 8 2 43 33 77 68 86 89
128 186 145 339 12 111 12 115 4 195 -19 177 -58 297 -121 374 -40 49 -42 83
-4 71 11 -4 43 -8 70 -8 42 -2 47 0 32 11 -9 6 -25 10 -34 7 -10 -3 -20 -1
-24 5 -3 5 1 10 9 10 8 0 21 6 28 13 7 8 24 19 37 26 12 7 20 15 17 18 -3 3
-12 0 -21 -7 -26 -22 -30 -1 -4 26 35 37 60 49 70 33 4 -7 5 -17 2 -22 -3 -5
-9 -4 -13 2 -5 9 -10 7 -20 -4 -11 -13 -10 -15 4 -9 23 9 20 -3 -9 -33 -13
-15 -22 -29 -19 -32 3 -3 31 22 62 55 68 72 92 101 75 90 -8 -4 -13 -2 -13 5
0 8 -9 4 -22 -8 -37 -32 -53 -39 -45 -19 7 19 -4 15 -36 -12 -9 -8 -20 -13
-22 -10 -3 3 17 22 45 42 46 33 67 37 38 8 -7 -7 -8 -12 -2 -12 5 0 24 17 43
37 18 21 28 30 21 21 -17 -25 -8 -22 47 12 26 17 43 30 37 30 -5 0 -21 -8 -34
-17 l-25 -16 24 26 c14 15 31 27 38 27 8 0 12 4 8 9 -3 5 -1 12 4 15 7 5 8
-11 2 -31 -1 -2 -2 -6 -2 -10 -2 -11 -131 -177 -141 -181 -5 -2 -23 -25 -40
-50 -18 -26 -50 -64 -71 -85 -24 -24 -33 -39 -25 -41 86 -26 107 -28 129 -12
13 8 32 13 44 10 16 -4 29 3 48 25 25 30 25 33 11 67 -18 44 -13 52 20 30 26
-16 66 -22 66 -8 0 4 5 14 10 22 8 12 14 10 39 -14 29 -28 31 -29 76 -16 45
13 85 49 85 77 0 7 10 17 23 22 13 5 35 27 51 49 21 32 25 44 18 59 -13 23 12
80 37 87 65 17 68 17 102 -21 53 -61 142 -203 171 -273 51 -127 119 -392 104
-407 -9 -9 -22 36 -35 112 -12 68 -30 120 -31 85 0 -8 16 -98 36 -200 33 -169
36 -196 31 -310 -3 -78 -14 -168 -30 -240 -14 -63 -28 -132 -31 -153 -3 -21
-17 -58 -31 -83 -14 -24 -25 -48 -25 -52 -1 -4 -7 -16 -15 -27 -8 -11 -29 -47
-46 -80 -56 -107 -189 -260 -237 -272 -27 -6 -97 -57 -138 -100 -14 -13 -81
-41 -180 -73 -253 -81 -486 -111 -847 -111 -120 0 -221 2 -225 5 -8 5 -506 20
-605 19 -85 -1 -102 -13 -21 -14 32 0 68 -4 79 -9 12 -5 -49 -9 -157 -9 l-177
-1 4 28 c10 59 17 830 10 1277 -1 121 3 158 16 149 5 -3 9 0 9 5 0 6 -7 11
-15 11 -21 0 -19 20 3 21 15 1 15 2 1 6 -13 3 -16 14 -14 51 2 26 4 49 5 52 2
3 2 69 0 147 -2 142 -2 143 22 152 13 5 30 16 37 25 7 9 20 16 27 16 24 0 15
-27 -17 -54 -22 -19 -29 -31 -24 -44 6 -15 9 -14 23 7 44 65 47 67 76 48 32
-22 28 -31 -27 -57 -23 -10 -34 -19 -25 -20 9 0 20 5 23 10 3 6 11 10 16 10 6
0 -1 -14 -15 -31 -14 -17 -26 -37 -26 -45 0 -19 61 -82 75 -78 6 2 18 -3 28
-11 16 -11 17 -17 7 -35 -11 -20 -9 -25 16 -46 38 -31 56 -30 94 6 18 17 39
30 47 30 8 0 31 16 51 36 35 35 38 36 89 29 42 -5 57 -3 77 12 14 10 26 25 26
33 0 8 7 26 15 40 13 23 14 23 15 5 0 -12 -5 -26 -12 -33 -8 -8 -9 -12 -1 -12
6 0 18 7 27 15 22 22 26 18 15 -15 -6 -16 -17 -30 -25 -30 -8 0 -14 -7 -14
-15 0 -35 49 -4 74 48 7 12 23 23 37 25 16 2 37 17 55 42 16 22 37 40 47 40 9
0 17 4 17 9 0 15 32 22 46 10 9 -7 13 -33 13 -78 -3 -284 -1 -691 3 -891 l3
-155 33 -3 c17 -2 32 -7 32 -12 0 -13 -85 -124 -126 -164 -22 -21 -52 -44 -67
-52 -15 -8 -55 -32 -88 -54 -33 -21 -73 -42 -89 -45 -17 -4 -30 -11 -30 -16 0
-12 -3 -12 55 9 114 41 229 110 281 169 108 124 131 179 170 411 23 142 34
318 20 341 -3 5 -9 48 -12 96 -3 48 -10 99 -15 112 -5 13 -9 34 -9 46 0 34
-59 175 -102 244 -53 85 -89 114 -230 184 -160 80 -205 109 -188 119 9 5 35
-2 69 -20 31 -15 88 -37 128 -49 64 -19 83 -31 170 -109 86 -77 105 -75 24 2
-17 17 -31 34 -31 39 0 4 -6 14 -12 22 -42 44 -48 56 -38 75 15 28 -3 25 -25
-4 -17 -22 -48 -25 -60 -6 -6 10 46 102 60 107 6 2 32 -41 58 -95 27 -53 52
-103 56 -111 10 -19 31 -26 31 -10 0 6 -22 60 -49 118 -56 122 -77 173 -73
184 1 4 -3 7 -10 7 -6 0 -9 3 -6 6 6 5 -30 48 -104 124 -21 21 -38 41 -38 45
0 23 195 -163 205 -196 4 -10 10 -19 16 -19 5 0 -6 28 -25 63 -28 51 -31 64
-20 75 17 16 21 15 28 -4 3 -8 2 -12 -4 -9 -17 11 -11 -6 9 -23 10 -10 26 -37
36 -62 9 -25 22 -51 28 -58 6 -8 12 -23 14 -35 2 -11 7 -25 12 -31 5 -6 21
-33 37 -61 15 -27 42 -68 59 -90 18 -22 38 -51 44 -65 11 -23 10 -22 -15 5
-61 68 -74 85 -74 93 0 4 -8 15 -19 24 -10 8 -21 22 -23 29 -3 8 -8 11 -11 8
-10 -8 28 -78 61 -113 15 -17 41 -48 56 -69 15 -21 30 -37 32 -34 2 2 6 28 9
58 3 30 10 56 15 57 12 4 14 32 2 32 -15 0 -86 69 -79 76 4 5 16 3 26 -3 15
-10 22 -8 39 10 19 21 57 137 45 137 -4 0 1 8 10 18 9 10 24 56 33 103 13 68
23 94 40 99 0 0 0 -10 1 -22z m-230 -160 c4 -7 6 -21 4 -31 -2 -16 1 -17 18
-7 17 9 28 7 50 -6 28 -17 31 -25 22 -76 -3 -16 -34 -38 -56 -38 -26 0 -65 42
-65 71 0 11 -4 19 -10 19 -11 0 -13 39 -4 64 7 19 30 21 41 4z m-1095 -225
c-2 -65 -5 -124 -7 -130 -7 -21 -25 -15 -25 7 0 17 -3 19 -19 10 -27 -14 -28
-14 -26 20 1 20 -3 30 -12 30 -20 0 -26 26 -14 60 12 36 79 120 95 120 8 0 10
-35 8 -117z m1648 92 c0 -25 -42 -114 -88 -184 -32 -47 -61 -94 -67 -103 -5
-9 -34 -52 -64 -94 -59 -84 -112 -201 -106 -234 2 -11 0 -22 -6 -25 -5 -4 -9
-14 -9 -23 1 -15 2 -15 15 2 12 16 15 17 15 4 0 -9 -6 -18 -14 -21 -14 -6 -16
-91 -1 -137 6 -21 5 -23 -6 -12 -14 13 -30 182 -18 182 6 0 21 108 20 133 -2
15 -15 6 -17 -11 -3 -50 -8 -51 -14 -2 -3 30 -3 57 2 58 4 2 8 10 8 17 0 16
54 74 91 97 25 16 118 148 154 218 10 19 33 53 51 76 19 23 34 46 34 53 0 6 5
11 10 11 6 0 10 -2 10 -5z m-1282 -64 c19 -1 15 -18 -16 -64 -27 -41 -62 -111
-62 -125 0 -9 23 26 51 78 45 84 57 98 83 93 l24 -5 -33 -47 c-38 -54 -79
-131 -68 -131 4 0 2 -5 -5 -12 -7 -7 -12 -17 -12 -24 0 -7 -14 -49 -31 -94
-25 -64 -34 -78 -44 -70 -15 13 -14 40 4 85 10 24 14 27 22 15 8 -11 9 -8 5
12 -3 15 -1 39 4 55 10 27 9 27 -19 -7 -16 -19 -27 -39 -24 -44 4 -5 2 -6 -4
-3 -5 4 -23 -7 -38 -23 -16 -17 -23 -30 -17 -30 7 0 15 6 18 14 5 12 34 31 34
22 0 -1 -11 -16 -25 -32 -24 -28 -25 -28 -39 -9 -9 11 -16 24 -16 29 0 4 23
35 50 68 55 65 60 79 30 71 -11 -3 -31 2 -45 11 -33 21 -24 38 57 115 40 39
67 57 81 55 12 -1 28 -3 35 -3z m1201 -336 c59 -93 92 -199 99 -318 7 -136 -8
-197 -62 -244 -40 -34 -148 -93 -171 -93 -30 0 -30 442 0 540 19 61 76 180 86
180 4 0 26 -29 48 -65z"/>
<path d="M9334 7307 c-67 -39 -86 -48 -97 -46 -26 3 -36 -2 -80 -45 -30 -29
-49 -58 -58 -87 -16 -58 -31 -74 -55 -61 -24 12 -57 0 -77 -29 -13 -17 -26
-22 -69 -23 -44 -1 -54 -5 -64 -24 -6 -13 -23 -36 -38 -51 -14 -15 -26 -34
-26 -42 0 -18 41 -59 58 -59 15 0 16 -46 2 -55 -5 -3 -10 -17 -10 -30 0 -13
-5 -27 -10 -30 -6 -4 -9 -14 -8 -22 2 -9 -3 -18 -9 -20 -7 -3 -13 0 -13 6 0
21 -25 9 -54 -25 -32 -39 -28 -58 7 -26 16 15 27 18 37 12 23 -15 34 -12 45
12 11 25 45 37 45 16 1 -18 37 -64 45 -56 4 3 1 16 -5 28 -7 13 -8 26 -2 33 5
7 12 32 15 56 l6 45 -22 -39 c-12 -21 -25 -37 -29 -37 -5 1 -18 2 -30 2 l-22
0 22 20 c12 12 22 26 23 33 2 54 9 98 18 115 7 14 8 23 1 27 -9 6 -13 0 -26
-44 -7 -21 -56 28 -52 53 2 11 17 26 35 35 22 11 31 21 27 32 -6 20 41 32 68
18 26 -14 58 -11 52 4 -10 28 36 47 81 32 17 -5 24 1 40 37 11 24 20 45 20 48
2 16 37 70 45 71 6 1 16 2 23 3 6 1 11 8 9 14 -3 15 72 51 106 52 12 0 22 6
22 14 0 28 54 35 82 9 13 -11 18 -12 18 -3 0 33 -58 50 -96 27z"/>
<path d="M9255 6820 c-3 -5 -3 -14 0 -20 3 -5 8 -146 10 -312 2 -167 6 -315
10 -329 5 -21 1 -29 -19 -43 l-26 -17 1 48 c3 79 0 98 -12 86 -5 -5 -13 -36
-16 -67 -5 -47 -8 -54 -20 -44 -9 7 -12 22 -9 37 4 21 2 20 -9 -6 -19 -41 -45
-44 -45 -5 1 15 7 38 15 52 21 36 18 49 -5 21 -11 -13 -20 -32 -20 -42 0 -10
-4 -19 -10 -19 -5 0 -6 7 -3 17 4 10 2 14 -4 10 -7 -4 -10 -28 -8 -55 2 -26 0
-51 -5 -57 -4 -5 -10 -19 -13 -30 -4 -17 -5 -16 -6 5 -1 20 -3 22 -11 10 -9
-13 -11 -13 -20 0 -7 11 -9 3 -8 -29 1 -33 -3 -47 -18 -58 -35 -25 -49 -12
-46 42 3 47 2 49 -13 30 -12 -14 -15 -33 -12 -62 4 -41 3 -43 -22 -43 -42 0
-82 22 -77 43 6 24 -11 22 -19 -3 -9 -28 -19 -25 -32 8 l-11 27 -13 -33 c-12
-29 -43 -51 -55 -39 -3 2 0 24 5 48 16 68 11 102 -6 39 -20 -77 -43 -105 -78
-96 -29 7 -29 10 -9 86 11 40 -12 11 -26 -35 l-13 -39 42 -38 c49 -43 49 -56
-5 -115 l-35 -38 -19 23 c-21 26 -35 14 -26 -22 5 -20 11 -23 45 -21 28 2 37
-1 30 -9 -5 -6 -17 -21 -27 -33 l-17 -23 -39 35 -39 34 12 41 c7 23 15 48 18
56 3 8 1 14 -4 14 -5 0 -15 -15 -21 -34 -7 -19 -20 -40 -28 -47 -14 -11 -20
-8 -43 19 -28 35 -48 43 -32 14 16 -31 84 -97 134 -132 49 -35 55 -48 35 -68
-7 -7 -8 -12 -3 -12 5 0 -6 -8 -25 -19 -19 -10 -37 -27 -39 -37 -3 -19 -3 -19
18 0 11 11 21 15 21 11 0 -5 11 2 25 15 14 13 24 29 22 34 -3 6 11 33 30 59
18 26 31 52 28 57 -3 5 0 12 6 16 8 5 9 3 4 -6 -5 -8 -4 -11 3 -7 5 4 8 17 4
29 -3 14 -1 19 6 14 7 -4 10 -2 7 6 -5 13 73 108 88 108 5 0 6 -4 3 -9 -4 -5
-1 -11 5 -13 7 -2 4 -10 -7 -18 -16 -13 -17 -13 -9 0 4 8 4 12 0 7 -5 -4 -10
-13 -11 -20 -1 -7 -23 -43 -48 -80 -25 -38 -46 -74 -46 -80 0 -6 -8 -20 -17
-32 -10 -12 1 -1 25 24 32 35 42 40 37 24 -7 -26 6 -30 25 -8 7 8 16 13 20 10
4 -3 8 7 8 20 0 26 -13 34 -21 13 -2 -7 -8 -10 -11 -6 -4 3 2 16 13 27 16 16
21 17 21 6 0 -8 5 -15 10 -15 6 0 10 -7 10 -15 0 -8 5 -15 10 -15 6 0 10 -4
10 -10 0 -5 -8 -10 -17 -10 -9 0 -13 -3 -10 -6 9 -9 80 25 90 43 5 8 20 18 34
24 22 8 30 4 71 -36 69 -66 68 -33 -2 62 -17 23 -37 42 -43 43 -7 0 -13 5 -13
10 0 13 6 13 31 0 14 -8 19 -8 17 1 -7 31 25 15 58 -30 21 -28 42 -51 46 -51
13 0 9 28 -4 33 -10 4 -10 8 -2 14 6 4 15 19 19 33 l7 25 -21 -22 c-23 -24
-37 -31 -26 -12 4 6 -2 17 -13 25 -14 10 -18 21 -14 36 5 21 4 22 -11 9 -15
-12 -17 -11 -17 13 0 21 9 30 44 48 41 20 45 20 61 5 9 -10 20 -17 23 -17 4 0
18 -19 31 -43 23 -42 23 -44 7 -76 l-17 -33 31 23 c33 25 70 95 101 191 24 78
16 88 -13 17 -51 -123 -85 -164 -82 -99 2 31 90 171 112 178 19 6 15 -70 -8
-130 -23 -61 -23 -58 -11 -58 5 0 12 16 15 35 4 19 12 37 17 41 8 4 9 -4 4
-27 -9 -40 -22 -59 -41 -59 -8 0 -14 -4 -14 -10 0 -5 7 -6 17 -3 11 4 14 3 9
-5 -4 -8 -2 -10 8 -6 18 7 31 -50 21 -95 -6 -29 -5 -30 40 -36 52 -8 188 9
257 33 45 15 80 41 162 120 35 34 38 35 31 12 -8 -25 -8 -25 14 -6 11 11 21
26 21 35 0 9 6 25 14 36 16 23 49 140 48 170 -1 11 2 15 6 10 4 -6 18 -11 31
-13 14 -1 27 -4 29 -7 2 -2 -9 -23 -26 -47 -16 -24 -27 -48 -25 -55 2 -6 -5
-21 -16 -32 -11 -11 -19 -26 -17 -33 1 -7 1 -9 -2 -5 -2 4 -10 2 -18 -4 -15
-12 -10 -17 43 -44 7 -4 27 5 46 19 34 26 49 28 194 23 39 -1 41 -2 27 -21
-19 -28 -18 -46 5 -46 11 0 37 -15 60 -32 22 -18 50 -40 63 -49 17 -12 22 -24
20 -53 -2 -24 2 -36 10 -36 23 0 61 -32 48 -40 -6 -4 -15 -23 -20 -43 -6 -28
-4 -37 8 -42 13 -5 11 -10 -11 -31 -15 -14 -27 -31 -27 -38 0 -8 -8 -16 -17
-20 -32 -10 -70 -40 -103 -78 -33 -39 -32 -52 2 -21 20 18 51 37 88 53 14 6
44 23 68 36 37 22 41 28 30 41 -10 13 -9 18 7 29 22 16 45 18 45 4 0 -12 37
-13 44 -1 3 5 14 7 24 4 10 -2 24 3 31 11 15 18 8 20 -20 6 -13 -8 -19 -7 -19
0 0 8 -11 9 -30 5 -28 -6 -29 -5 -25 26 4 35 35 99 47 99 10 0 142 199 136
205 -3 3 -16 -10 -28 -29 -37 -53 -58 -62 -82 -36 -12 12 -17 25 -12 29 5 3
15 19 22 34 l12 29 -29 -24 c-16 -12 -34 -34 -41 -48 -6 -14 -28 -43 -50 -64
-22 -22 -40 -43 -40 -48 0 -4 -8 -8 -17 -8 -14 0 -12 5 8 26 24 26 24 26 2 15
-13 -6 -23 -8 -23 -4 0 18 62 83 79 83 26 0 32 10 15 28 -14 13 -18 11 -44
-19 -35 -41 -40 -31 -6 14 36 49 39 57 22 57 -9 0 -16 -6 -16 -14 0 -8 -5 -18
-12 -22 -7 -4 -8 -3 -4 4 16 26 -12 10 -49 -28 -33 -34 -37 -42 -25 -50 8 -5
21 -10 28 -10 15 0 16 -16 1 -25 -6 -4 -28 7 -49 24 -21 17 -42 31 -47 31 -4
0 -21 11 -38 24 l-30 24 23 25 c23 24 16 47 -9 32 -6 -4 -5 4 3 16 7 13 19 28
26 32 6 4 12 13 12 18 0 6 -4 7 -10 4 -16 -10 -12 11 5 25 8 7 15 17 15 22 0
10 -36 -14 -90 -61 -33 -29 -50 -38 -50 -26 0 10 38 51 129 141 52 52 92 96
89 100 -4 3 -21 -10 -38 -30 -18 -20 -35 -36 -39 -36 -4 0 -17 9 -29 20 -12
11 -27 20 -34 20 -7 0 -43 -33 -79 -72 -37 -40 -70 -70 -74 -66 -11 11 75 118
102 129 30 11 29 25 -2 33 -14 4 -25 13 -25 22 0 25 -20 5 -37 -37 -20 -52
-73 -82 -73 -41 0 14 -2 15 -10 2 -17 -27 -21 -2 -5 35 21 52 11 56 -15 6 -11
-23 -25 -41 -30 -41 -15 0 -12 37 6 71 8 17 13 33 10 36 -2 3 -12 -9 -21 -26
-8 -17 -17 -31 -19 -31 -3 0 -5 46 -5 103 -1 106 -16 181 -49 248 -11 22 -14
35 -7 29 18 -15 46 -75 61 -130 l13 -45 0 51 c1 70 -43 160 -77 157 -13 -2
-21 1 -18 5 3 5 -30 38 -73 75 -105 89 -162 108 -333 114 -80 2 -129 0 -133
-7z m316 -70 c20 -5 67 -36 105 -68 89 -74 136 -159 132 -239 -2 -28 0 -49 4
-47 11 7 18 -35 15 -98 -1 -35 -6 -58 -13 -58 -19 0 -24 -29 -7 -38 22 -13 13
-100 -15 -139 -18 -26 -32 -32 -91 -41 -38 -7 -90 -12 -114 -12 -31 0 -56 -8
-81 -25 -47 -32 -56 -31 -56 3 -1 15 -3 101 -5 192 -3 91 -7 261 -10 379 l-4
214 52 -6 c29 -3 68 -11 88 -17z"/>
<path d="M9551 3674 c-1 -39 -8 -94 -16 -122 -9 -29 -15 -58 -14 -65 1 -6 -4
-25 -11 -42 -7 -16 -14 -34 -14 -40 -1 -5 -6 -19 -12 -30 -6 -11 -14 -33 -18
-49 -4 -16 -32 -53 -61 -83 -41 -40 -51 -55 -40 -59 9 -4 37 12 71 40 31 25
63 46 70 46 8 0 22 4 32 9 44 24 81 38 84 32 2 -3 19 -14 38 -23 19 -10 59
-31 89 -48 52 -29 109 -41 96 -20 -3 6 -17 10 -29 10 -13 0 -45 17 -72 39 -27
21 -58 40 -69 42 -13 3 -22 16 -28 42 -10 41 -22 48 -30 17 -3 -11 -10 -20
-16 -20 -6 0 -11 9 -11 20 0 22 -16 27 -23 8 -3 -7 -4 10 -1 37 12 157 12 215
-1 270 l-13 60 -1 -71z"/>
<path d="M12513 7931 c-67 -3 -124 -9 -128 -12 -14 -15 127 -29 235 -25 63 3
130 5 148 5 25 1 32 5 32 21 0 22 -19 23 -287 11z"/>
<path d="M12640 7221 c-36 -10 -90 -29 -120 -43 -59 -27 -138 -74 -105 -63 25
8 18 2 -65 -60 -61 -46 -64 -43 -15 14 l20 25 -32 -20 c-17 -10 -44 -36 -60
-56 -101 -131 -124 -165 -161 -239 -97 -196 -127 -483 -70 -669 11 -36 21 -76
22 -90 2 -22 51 -122 201 -408 47 -90 90 -169 210 -387 140 -254 130 -221 110
-339 -9 -55 -23 -108 -31 -117 -10 -11 -11 -18 -3 -26 9 -9 7 -33 -5 -94 -11
-57 -13 -86 -6 -93 5 -5 10 -21 11 -35 0 -26 1 -26 11 -4 10 20 18 22 102 22
50 1 111 4 134 7 29 4 48 2 55 -6 9 -10 9 -11 0 -6 -19 11 -20 -17 -1 -36 23
-23 27 -23 21 2 -4 16 -2 19 13 14 11 -4 25 -14 32 -23 10 -12 18 -13 42 -4
16 6 38 9 49 6 10 -3 21 0 25 5 8 13 57 2 63 -14 3 -8 13 -14 22 -14 14 1 14
2 -1 11 -10 5 -18 16 -18 23 0 17 41 29 54 16 6 -6 18 -10 29 -10 10 0 16 -3
14 -7 -6 -10 140 -9 150 0 6 6 -29 12 -50 8 -5 -1 -6 2 -3 7 3 5 27 9 53 10
43 1 46 0 29 -13 -16 -12 -12 -13 44 -10 34 2 65 6 68 10 10 10 -22 25 -41 19
-9 -3 -32 -2 -49 1 -50 11 -11 26 80 30 42 2 82 4 89 4 7 1 10 8 7 16 -5 12
-26 14 -127 9 -67 -3 -132 -6 -145 -6 -38 0 -69 27 -76 69 -17 98 -48 310 -48
330 0 12 30 79 67 150 107 203 190 373 276 563 28 63 64 142 79 175 15 33 31
71 35 85 4 14 11 30 15 35 14 17 68 217 81 294 38 244 -83 563 -288 751 -65
60 -86 73 -162 101 -18 7 -49 23 -69 37 -63 42 -124 53 -317 58 -153 3 -190 1
-245 -15z m477 -61 c139 -40 269 -106 260 -133 -1 -5 -23 -16 -47 -23 -42 -12
-47 -12 -88 12 -24 15 -68 48 -98 75 -30 27 -58 49 -62 49 -11 -1 99 -99 147
-131 28 -18 39 -30 30 -33 -22 -8 -101 -31 -294 -86 -99 -28 -223 -69 -275
-91 l-94 -40 -21 28 c-52 71 -180 213 -183 203 -3 -7 11 -28 30 -48 61 -65
148 -173 148 -184 0 -5 -7 -8 -15 -4 -12 4 -13 2 -3 -14 10 -15 9 -22 -4 -37
-40 -45 -119 -244 -158 -401 -9 -36 -23 -52 -82 -100 -39 -31 -100 -81 -136
-111 -67 -56 -79 -56 -86 -6 -2 17 -9 44 -17 60 -17 39 -24 285 -8 285 8 0 8
4 0 14 -8 10 -9 16 -1 21 6 3 8 11 5 16 -4 5 -2 9 4 9 5 0 14 23 20 51 18 83
73 219 125 307 38 65 53 82 71 82 12 0 28 -7 35 -15 6 -8 58 -46 113 -85 74
-51 89 -59 57 -30 -25 22 -80 64 -122 93 -43 29 -77 55 -78 59 0 4 35 32 78
63 235 173 485 221 749 145z m345 -211 c21 -22 38 -49 38 -60 0 -10 11 -29 25
-41 13 -11 22 -25 19 -30 -3 -5 0 -7 7 -6 6 2 14 -3 17 -11 3 -8 0 -11 -7 -7
-15 10 -13 -5 4 -28 7 -10 18 -15 23 -12 6 3 13 -1 16 -10 4 -11 2 -15 -7 -11
-13 5 -13 1 -8 -45 1 -4 12 -17 25 -30 36 -34 48 -98 47 -243 -1 -274 -10
-307 -61 -245 -37 44 -130 229 -168 335 -50 135 -161 407 -173 421 -12 15 13
31 81 50 70 19 81 17 122 -27z m-246 -81 c-4 -40 -11 -116 -16 -168 -5 -52
-10 -121 -10 -153 0 -65 -9 -67 -39 -9 -29 55 -100 122 -156 148 -161 73 -374
12 -446 -128 -34 -66 -65 -245 -46 -264 4 -4 7 -23 7 -43 1 -20 9 -52 20 -71
10 -19 23 -44 28 -55 19 -38 86 -98 139 -122 47 -22 66 -25 137 -22 70 3 92 9
144 36 34 18 62 31 62 28 0 -2 -26 -39 -59 -82 -69 -93 -113 -165 -88 -144 9
7 27 30 39 50 26 42 101 140 176 230 30 35 58 76 64 90 21 54 38 146 32 174
-6 28 -5 28 18 16 21 -11 100 -61 291 -185 37 -24 67 -50 67 -57 0 -7 -98 -61
-217 -121 -120 -60 -288 -151 -374 -202 -86 -52 -161 -94 -167 -94 -6 0 -32
33 -58 73 -25 39 -75 104 -111 142 -89 97 -94 103 -81 107 6 2 -3 19 -20 38
-17 18 -48 58 -68 87 -34 50 -36 57 -26 88 10 36 7 40 -27 36 -7 -2 -10 2 -6
8 3 6 14 11 23 11 14 0 18 11 20 56 2 50 19 122 42 179 30 75 65 143 82 162
26 28 122 68 308 128 80 26 172 57 205 70 127 48 119 51 111 -37z m98 -141
c30 -73 73 -181 96 -242 22 -60 61 -147 86 -193 25 -46 44 -86 42 -87 -2 -2
-64 37 -138 86 -74 50 -150 97 -169 105 l-34 14 7 58 c12 96 25 283 26 357 1
89 9 80 84 -98z m-317 -78 c65 -31 103 -70 144 -149 19 -36 24 -60 24 -125 0
-69 -4 -89 -31 -146 -36 -75 -86 -128 -153 -161 -64 -32 -168 -32 -231 1 -44
22 -110 85 -110 104 0 5 -7 7 -15 3 -8 -3 -14 0 -12 6 1 7 -6 14 -15 16 -11 2
-18 -2 -18 -12 0 -9 -4 -16 -9 -16 -5 0 -5 17 0 41 7 31 6 48 -6 71 -17 35
-20 98 -5 98 6 0 10 11 10 24 0 14 5 28 10 31 6 3 10 15 10 26 0 24 35 80 89
141 77 86 196 104 318 47z m-537 -502 c92 -133 145 -204 201 -268 54 -62 99
-122 99 -132 0 -9 -127 42 -255 103 -71 34 -164 75 -205 91 -41 17 -96 40
-123 52 l-47 22 57 45 c32 24 63 48 68 52 6 4 39 31 75 61 36 30 68 52 73 50
4 -2 30 -37 57 -76z m1150 -71 c0 -24 -206 -459 -281 -592 -31 -57 -37 -69
-57 -114 -11 -25 -50 -107 -86 -183 -36 -76 -66 -140 -66 -141 0 -2 -19 -33
-42 -69 -96 -147 -112 -176 -123 -213 -7 -24 -20 -43 -35 -51 -16 -8 -19 -13
-9 -13 9 0 16 -7 16 -15 0 -8 -5 -15 -10 -15 -5 0 -7 -6 -4 -13 2 -6 -2 -18
-9 -25 -16 -15 -15 -39 -19 253 -3 192 -2 213 16 241 10 17 19 38 19 45 0 8
-6 3 -13 -10 -6 -14 -18 -26 -25 -29 -17 -5 -15 82 2 112 34 60 64 109 89 146
16 23 26 44 24 46 -7 7 -103 -128 -112 -155 -12 -39 -25 -4 -25 68 0 42 5 70
14 80 8 9 16 23 18 31 2 8 9 21 16 28 7 8 9 19 5 25 -6 10 -22 -19 -37 -66
-10 -30 -27 -8 -21 26 4 18 7 39 8 48 2 9 11 24 20 34 10 9 25 31 34 48 15 30
15 31 -1 18 -9 -7 -22 -25 -29 -39 -23 -49 -36 -38 -36 32 l0 66 56 36 c118
75 393 227 393 217 0 -3 7 1 16 8 19 15 81 39 105 39 9 0 24 9 34 20 10 11 30
20 44 21 14 0 20 3 13 6 -15 6 30 33 54 33 8 0 14 5 14 10 0 6 7 10 15 10 8 0
15 -2 15 -4z m-1231 -195 c135 -60 260 -115 276 -121 17 -6 59 -24 95 -41 l65
-30 1 -57 c0 -31 8 -203 18 -382 25 -482 26 -562 6 -555 -8 4 -5 -3 8 -15 22
-21 29 -40 15 -40 -14 0 -55 69 -48 80 4 6 -5 29 -19 50 -14 22 -26 42 -26 45
0 3 -24 43 -54 88 -29 45 -61 98 -71 117 -29 58 -184 328 -245 430 -32 52
-107 192 -166 310 -126 248 -118 230 -108 230 4 0 118 -49 253 -109z"/>
<path d="M13827 5873 c-17 -27 -5 -159 20 -206 7 -15 11 -32 8 -38 -4 -5 -1
-16 5 -24 6 -8 9 -19 5 -25 -3 -6 1 -36 11 -68 10 -31 19 -64 20 -72 2 -8 7
-31 13 -50 21 -69 64 -247 87 -360 14 -63 27 -123 30 -132 3 -10 1 -18 -5 -18
-6 0 -13 11 -17 25 -4 14 -9 24 -11 21 -3 -3 7 -56 21 -118 14 -62 36 -155 48
-205 11 -51 24 -93 29 -93 4 0 5 -17 3 -37 -4 -26 -3 -34 4 -24 7 10 11 6 15
-15 3 -16 8 -40 12 -54 4 -14 8 -32 9 -40 1 -8 14 -67 29 -130 14 -63 36 -160
48 -215 11 -55 34 -154 49 -220 16 -66 45 -192 64 -280 20 -88 56 -243 80
-345 38 -160 54 -221 83 -314 4 -12 2 -17 -5 -12 -9 5 -518 9 -742 5 -36 -1
-104 -1 -151 0 l-86 1 -18 93 c-42 226 -56 306 -61 367 -3 36 -8 68 -10 71 -2
4 -6 28 -9 55 -6 54 -29 175 -51 271 -8 34 -14 80 -14 102 0 43 -13 59 -34 42
-10 -8 -53 -8 -152 -1 -77 5 -169 10 -206 10 -48 0 -68 4 -68 13 0 8 -4 7 -10
-3 -7 -10 -12 -12 -17 -4 -10 15 -182 10 -243 -6 -51 -13 -162 -30 -170 -25
-3 1 -11 -3 -18 -11 -7 -8 -10 -14 -6 -14 3 0 2 -6 -3 -12 -6 -7 -23 -58 -38
-113 -15 -55 -38 -127 -51 -161 -12 -33 -41 -136 -64 -230 -52 -216 -51 -209
-40 -198 5 5 18 45 29 88 11 43 22 80 25 84 14 14 15 -9 1 -54 -8 -27 -15 -61
-15 -75 0 -15 -7 -43 -15 -63 -9 -20 -15 -47 -13 -59 1 -12 -4 -57 -11 -99
l-14 -78 -66 0 c-88 0 -243 19 -258 32 -9 7 -13 7 -13 -2 0 -8 -4 -9 -12 -3
-8 6 -135 9 -310 7 -164 -1 -298 2 -298 6 0 4 15 70 34 146 19 77 55 229 81
339 25 110 57 245 70 300 13 55 26 127 29 160 2 33 7 67 10 75 3 8 13 51 21
95 13 71 32 162 39 190 1 6 8 28 14 50 6 22 13 66 16 98 5 61 16 91 16 43 0
-17 4 -25 11 -21 6 4 8 9 5 12 -3 3 0 15 6 27 6 11 13 30 14 41 2 11 6 38 9
60 3 22 12 63 19 90 7 28 12 62 12 78 -1 15 1 27 5 27 6 0 10 25 11 78 0 12 5
22 11 22 6 0 7 3 4 7 -4 3 -2 12 4 20 9 10 8 13 -1 13 -10 0 -10 3 0 15 7 8
10 22 6 30 -3 9 0 15 9 15 7 0 14 8 13 18 0 9 5 40 11 67 11 46 39 181 45 215
1 8 5 22 8 30 15 38 60 272 65 337 7 89 -9 98 -26 16 -6 -32 -18 -87 -26 -123
-7 -36 -23 -110 -35 -165 -44 -205 -114 -475 -123 -475 -9 0 -5 28 10 66 4 11
3 15 -5 10 -14 -9 -32 -72 -31 -111 l1 -30 13 30 c10 22 14 25 14 10 -1 -24
-17 -75 -18 -57 -1 6 -9 12 -18 12 -15 0 -16 -2 -3 -10 13 -8 13 -11 1 -19 -7
-5 -11 -13 -7 -19 3 -6 2 -13 -4 -17 -15 -9 -12 -23 7 -27 15 -3 15 -4 0 -19
-9 -9 -14 -18 -12 -20 7 -7 -68 -359 -95 -444 -5 -16 -18 -73 -29 -125 -38
-180 -51 -233 -57 -239 -10 -9 5 86 26 164 45 171 75 334 85 465 4 46 9 89 13
95 3 5 -1 4 -10 -3 -9 -7 -16 -21 -16 -30 1 -39 -16 -177 -32 -247 -5 -22 -12
-53 -15 -69 -4 -18 -10 -25 -15 -20 -6 6 -6 23 0 44 34 114 50 260 29 260 -8
0 -8 4 0 14 17 21 23 106 9 123 -7 9 -8 17 -2 21 5 4 9 18 9 32 -1 57 44 232
58 223 6 -4 7 -1 2 7 -4 7 -2 15 4 20 15 9 33 84 22 88 -10 3 12 146 43 282
25 105 78 386 101 533 9 60 9 77 -1 77 -6 0 -14 -7 -18 -15 -4 -12 -93 -401
-112 -490 -2 -11 -6 -31 -9 -45 -3 -14 -12 -78 -20 -142 -12 -96 -107 -512
-145 -633 -9 -31 -38 -166 -45 -213 -2 -15 -24 -108 -48 -207 -25 -99 -54
-227 -67 -285 -12 -58 -32 -143 -46 -190 -13 -47 -40 -168 -60 -270 -28 -144
-34 -198 -30 -245 5 -47 2 -72 -14 -115 -12 -34 -16 -58 -10 -64 6 -6 11 -4
13 5 3 8 11 34 18 58 l13 45 11 -55 c6 -30 17 -64 23 -76 7 -12 12 -32 12 -45
0 -13 7 -33 15 -44 8 -10 15 -26 15 -35 0 -27 59 -45 120 -38 30 4 98 8 150 8
60 1 90 5 81 10 -9 6 24 9 87 9 56 1 104 -4 107 -9 4 -5 96 -7 229 -3 211 6
223 5 231 -12 6 -18 8 -17 16 4 7 20 13 22 49 16 27 -4 40 -3 40 5 0 6 -13 11
-30 11 -35 0 -34 -6 -14 80 l17 68 98 -4 c55 -3 120 -9 147 -14 65 -12 321 -6
352 8 20 10 0 11 -108 9 -73 -2 -135 0 -138 5 -3 4 12 8 33 8 21 0 45 5 53 10
9 6 -18 7 -75 3 -90 -6 -106 -7 -262 -4 -83 1 -83 1 -83 27 0 27 0 27 53 19
76 -12 317 -14 422 -4 50 4 140 11 200 14 61 4 115 11 120 17 7 7 -14 8 -65 4
-146 -13 -566 -18 -601 -8 -25 8 22 11 186 12 254 3 314 5 322 13 5 6 -271 10
-439 7 -37 0 -69 4 -73 9 -4 8 31 11 107 12 62 1 102 4 88 8 -43 12 -7 20 53
12 31 -4 67 -7 80 -5 12 1 90 3 172 5 146 2 148 2 65 10 -126 12 -581 19 -575
9 3 -5 -7 -16 -22 -24 -22 -12 -24 -15 -9 -16 31 0 11 -12 -28 -15 -39 -4 -48
12 -22 38 8 8 11 18 6 23 -5 5 -2 42 6 84 8 41 16 86 17 100 2 14 9 41 15 60
6 19 14 73 17 120 4 47 11 90 15 95 4 6 15 49 25 96 l18 86 46 -2 c25 -1 178
-3 339 -4 l292 -1 0 -22 c0 -36 11 -68 21 -62 5 3 6 -2 3 -10 -4 -10 -1 -16 7
-16 8 0 6 -5 -5 -13 -15 -11 -16 -17 -7 -35 6 -11 11 -31 11 -44 0 -16 3 -19
9 -10 7 11 9 11 14 -2 3 -8 2 -18 -3 -21 -14 -9 -12 -45 3 -45 9 0 9 -2 -1 -8
-8 -5 -10 -16 -6 -27 7 -18 8 -18 14 -1 3 10 6 -11 6 -45 0 -35 8 -100 17
-144 9 -44 19 -96 22 -116 3 -21 24 -59 51 -94 30 -40 41 -62 34 -69 -7 -7 -3
-15 13 -25 33 -23 117 -116 117 -130 0 -6 -13 -11 -29 -11 -17 0 -33 -4 -36
-10 -3 -6 10 -10 32 -9 296 1 1076 -11 1082 -17 7 -8 17 -41 36 -111 4 -13 10
-23 15 -23 9 0 4 33 -10 65 -5 11 -11 43 -13 70 -3 43 -29 156 -68 298 -6 22
-8 41 -5 45 3 3 2 10 -3 16 -13 16 -47 139 -61 221 -18 101 -44 218 -116 529
-9 39 -17 88 -18 110 -1 23 -5 47 -10 54 -4 7 -5 19 -2 27 3 8 0 14 -6 12 -7
-1 -16 18 -21 43 -5 25 -17 85 -28 134 -12 57 -16 93 -10 100 6 7 6 28 0 56
-6 25 -13 56 -15 69 -3 14 -8 29 -11 34 -3 6 -7 26 -9 45 -2 18 -8 40 -14 47
-5 7 -11 38 -13 69 -1 31 -6 56 -11 56 -5 0 -6 3 -3 7 4 3 0 17 -8 29 -8 13
-12 30 -8 39 3 10 1 20 -4 24 -9 5 -50 176 -59 246 -4 35 -15 81 -50 220 -31
124 -26 106 -67 255 -19 69 -42 163 -52 210 -18 84 -28 110 -38 93z"/>
<path d="M6334 3111 c-3 -3 -9 -6 -13 -6 -11 0 -38 -29 -94 -99 -35 -43 -47
-67 -44 -83 3 -19 0 -23 -20 -23 -42 0 -14 -20 30 -21 l42 -1 -32 -9 c-37 -11
-53 -29 -25 -29 43 0 80 12 76 25 -4 8 6 16 25 20 16 3 31 14 33 23 3 14 6 13
16 -5 12 -21 11 -23 -10 -23 -13 0 -29 -4 -36 -9 -11 -6 -10 -10 3 -15 23 -9
145 4 145 16 0 5 -6 8 -12 7 -29 -3 -49 2 -43 11 3 6 -3 10 -14 10 -12 0 -21
5 -21 10 0 6 11 10 25 10 14 0 25 -4 25 -10 0 -5 8 -10 17 -10 15 0 15 2 3 14
-22 21 -100 34 -137 23 -18 -5 -40 -6 -50 -2 -40 16 34 25 254 32 235 7 284
22 78 24 -94 1 -110 3 -75 10 25 4 80 8 123 8 118 1 85 21 -36 22 l-102 1 59
13 c32 7 77 11 100 8 33 -3 38 -2 23 7 -11 7 -72 12 -160 12 -86 0 -132 3
-117 8 14 4 52 9 85 10 33 0 78 5 100 9 36 8 32 9 -40 12 -155 6 -175 6 -181
0z"/>
<path d="M15938 2881 c-43 -10 -20 -27 53 -40 86 -14 539 -15 539 0 0 5 -5 7
-10 4 -6 -4 -17 -1 -25 5 -8 7 -15 9 -15 5 0 -4 -7 -2 -15 5 -8 6 -19 9 -26 5
-18 -11 -129 -17 -129 -6 0 17 -30 20 -46 4 -13 -14 -17 -14 -25 -2 -6 10 -9
10 -9 2 0 -16 -56 -17 -66 -2 -4 6 -19 9 -36 5 -24 -5 -29 -3 -24 9 4 13 -7
15 -67 14 -40 -1 -84 -4 -99 -8z"/>
<path d="M12511 2868 c-11 -4 -42 -8 -68 -8 -27 -1 -67 -1 -90 -2 -24 0 -43
-4 -43 -7 0 -4 21 -13 46 -20 37 -11 94 -12 278 -6 313 10 301 9 303 20 2 6
-46 9 -133 6 -113 -2 -135 -1 -128 10 6 11 5 12 -7 2 -12 -9 -28 -9 -76 1 -33
7 -70 9 -82 4z"/>
</g>
</svg>
